<svg xmlns="http://www.w3.org/2000/svg" xmlns:xlink="http://www.w3.org/1999/xlink" height="32" viewBox="0 0 32 32" width="32"><title>Template icons dark</title><defs><linearGradient id="c"><stop offset="0" stop-color="#24303f"/><stop offset="1" stop-color="#304155"/></linearGradient><linearGradient id="b"><stop offset="0" stop-color="#5a41e2"/><stop offset="1" stop-color="#4c9ce0" stop-opacity=".945"/></linearGradient><linearGradient id="a"><stop offset="0" stop-color="#fffefe"/><stop offset="1" stop-color="#fff" stop-opacity=".855"/></linearGradient><linearGradient gradientTransform="matrix(.3409 0 0 .3409 -70.546 -70.545)" xlink:href="#c" id="d" x1="171.402" y1="199.004" x2="171.402" y2="116" gradientUnits="userSpaceOnUse"/></defs><path style="isolation:auto;mix-blend-mode:normal;marker:none" d="M5.417 1h21.166A4.407 4.407 0 0 1 31 5.417v21.166A4.407 4.407 0 0 1 26.583 31H5.417A4.407 4.407 0 0 1 1 26.583V5.417A4.407 4.407 0 0 1 5.417 1z" color="#000" display="block" overflow="visible" fill-opacity=".126" paint-order="fill markers stroke"/><path style="isolation:auto;mix-blend-mode:normal;marker:none" d="M-25.86-30h19.72A4.132 4.132 0 0 1-2-25.86v19.72A4.132 4.132 0 0 1-6.14-2h-19.72A4.132 4.132 0 0 1-30-6.14v-19.72A4.132 4.132 0 0 1-25.86-30z" color="#000" display="block" overflow="visible" fill="url(#d)" paint-order="fill markers stroke" transform="translate(32 32)"/><path style="isolation:auto;mix-blend-mode:normal;marker:none" d="M2 25.518v.341A4.132 4.132 0 0 0 6.14 30h19.72A4.132 4.132 0 0 0 30 25.86v-.342c0 2.294-1.847 3.493-4.14 3.493H6.14c-2.293 0-4.14-1.199-4.14-3.493z" color="#000" overflow="visible" fill="#f2f2f8" fill-opacity=".153" paint-order="fill markers stroke"/><path d="M23.266 22.498c-2.294 1.229-4.788 1.82-7.057 1.82-3.362 0-6.618-1.162-9.251-3.093-.232-.169-.402.128-.21.347 2.442 2.777 5.666 4.447 9.247 4.447 2.556 0 5.522-1.014 7.57-2.918.338-.314.048-.789-.299-.603zm.56 1.85c-.077.19.086.267.258.123 1.118-.935 1.407-2.894 1.178-3.176-.227-.28-2.18-.523-3.373.315-.183.128-.152.306.052.28.672-.08 2.167-.26 2.432.083.266.342-.296 1.748-.548 2.375z" clip-rule="evenodd" fill="#ff9802" fill-opacity=".984" fill-rule="evenodd"/><path d="M17.635 14.405c0 1.029.024 1.884-.494 2.798-.419.744-1.086 1.2-1.825 1.2-1.013 0-1.604-.77-1.604-1.913 0-2.247 2.016-2.656 3.924-2.656v.571zm2.66 6.433a.542.542 0 0 1-.622.062c-.879-.728-1.034-1.065-1.515-1.758-1.447 1.475-2.473 1.917-4.349 1.917-2.22 0-3.95-1.37-3.95-4.111 0-2.142 1.162-3.598 2.814-4.312 1.432-.63 3.431-.744 4.961-.914v-.342c0-.629.05-1.371-.32-1.915-.321-.484-.938-.685-1.482-.685-1.006 0-1.9.516-2.12 1.584-.045.238-.218.473-.459.486l-2.555-.278c-.216-.047-.458-.222-.394-.551.588-3.103 3.39-4.04 5.899-4.04 1.283 0 2.961.343 3.972 1.315 1.284 1.198 1.162 2.798 1.162 4.54v4.11c0 1.236.515 1.778.996 2.445.17.24.206.526-.009.7-.54.452-1.497 1.284-2.023 1.753z" clip-rule="evenodd" fill="#fff" fill-opacity=".984" fill-rule="evenodd"/></svg>