<svg xmlns="http://www.w3.org/2000/svg" xmlns:xlink="http://www.w3.org/1999/xlink" height="32" viewBox="0 0 32 32" width="32"><title>Template icons dark</title><defs><linearGradient id="n"><stop offset="0" stop-color="#cacaca" stop-opacity="0"/><stop offset=".565" stop-color="#fff" stop-opacity=".422"/><stop offset="1" stop-color="#cacaca" stop-opacity="0"/></linearGradient><linearGradient id="o"><stop offset="0" stop-color="#fff" stop-opacity=".656"/><stop offset="1" stop-color="#fff" stop-opacity=".047"/></linearGradient><linearGradient id="p"><stop offset="0" stop-opacity=".26"/><stop offset="1" stop-color="#f0f0f0" stop-opacity="0"/></linearGradient><linearGradient id="m"><stop offset="0" stop-color="#fff" stop-opacity=".458"/><stop offset="1" stop-color="#fff" stop-opacity=".255"/></linearGradient><linearGradient id="l"><stop offset="0" stop-opacity=".146"/><stop offset=".494" stop-opacity=".506"/><stop offset="1" stop-opacity=".057"/></linearGradient><linearGradient id="k"><stop offset="0" stop-opacity=".156"/><stop offset="1" stop-color="#f0f0f0" stop-opacity="0"/></linearGradient><linearGradient id="a"><stop offset="0" stop-color="#58c19a"/><stop offset="1" stop-color="#38899d"/></linearGradient><linearGradient id="j"><stop offset="0" stop-opacity=".26"/><stop offset="1" stop-opacity="0"/></linearGradient><linearGradient id="g"><stop offset="0" stop-color="#afacd0"/><stop offset="1" stop-color="#eee"/></linearGradient><linearGradient id="i"><stop offset="0" stop-color="#cacaca" stop-opacity="0"/><stop offset=".583" stop-color="#fff" stop-opacity=".422"/><stop offset="1" stop-color="#cacaca" stop-opacity="0"/></linearGradient><linearGradient id="h"><stop offset="0" stop-color="#ececec"/><stop offset=".489" stop-color="#cacaca" stop-opacity=".459"/><stop offset="1" stop-color="#ececec"/></linearGradient><linearGradient id="c"><stop offset="0" stop-color="#bebebe"/><stop offset=".489" stop-color="#aeaeae" stop-opacity=".459"/><stop offset="1" stop-color="#bebebe"/></linearGradient><linearGradient xlink:href="#b" id="w" x1="155.296" y1="153.204" x2="165.174" y2="153.204" gradientUnits="userSpaceOnUse"/><linearGradient id="b"><stop offset="0" stop-color="#dfdfdf"/><stop offset=".489" stop-color="silver" stop-opacity=".459"/><stop offset="1" stop-color="#dfdfdf"/></linearGradient><linearGradient xlink:href="#c" id="x" gradientUnits="userSpaceOnUse" gradientTransform="matrix(.32771 0 0 .24329 -69.875 -52.669)" x1="160.971" y1="127.717" x2="167.448" y2="127.591"/><linearGradient id="d"><stop offset="0" stop-color="#444"/><stop offset="1" stop-color="#ececec"/></linearGradient><linearGradient id="e"><stop offset="0" stop-color="#a7a7a7"/><stop offset="1" stop-color="#eee"/></linearGradient><linearGradient id="f"><stop offset="0" stop-color="#a7a7a7"/><stop offset=".505" stop-color="#5b5b5b"/><stop offset="1" stop-color="#303030"/></linearGradient><linearGradient xlink:href="#a" id="q" gradientUnits="userSpaceOnUse" gradientTransform="matrix(1.60037 0 0 1.61052 -54.292 -53.187)" x1="23.981" y1="5.704" x2="23.981" y2="36.129"/><linearGradient xlink:href="#n" id="r" gradientUnits="userSpaceOnUse" x1="140.347" y1="191.371" x2="177.871" y2="191.371"/><linearGradient xlink:href="#p" id="u" gradientUnits="userSpaceOnUse" x1="160" y1="171.465" x2="160" y2="119"/><linearGradient xlink:href="#o" id="v" gradientUnits="userSpaceOnUse" x1="160" y1="175.786" x2="160" y2="150"/><linearGradient xlink:href="#i" id="s" gradientUnits="userSpaceOnUse" gradientTransform="translate(-5 -403)" x1="143.757" y1="216.607" x2="181.264" y2="216.607"/><linearGradient xlink:href="#i" id="t" gradientUnits="userSpaceOnUse" gradientTransform="translate(4 -324)" x1="134.54" y1="191.129" x2="179.142" y2="191.129"/></defs><path style="isolation:auto;mix-blend-mode:normal;marker:none" d="M9.086.086h14.005c3.506 0 6.995 3.494 6.995 7v19c0 3.506-3.494 6-7 6h-14c-3.506 0-7-3.494-7-7v-18c0-3.506 3.494-7 7-7z" color="#000" display="block" overflow="visible" fill-opacity=".151" paint-order="fill markers stroke"/><path style="isolation:auto;mix-blend-mode:normal;marker:none" d="M-22.914-31h14c3.352 0 6 2.734 6 6.086v18c0 3.352-3.648 6-7 6h-13c-3.352 0-6-2.648-6-6v-18c0-3.352 2.648-6.085 6-6.085z" color="#000" display="block" overflow="visible" fill="url(#q)" paint-order="fill markers stroke" transform="translate(32 32)"/><path d="M19 2h1v14c0 1.432-1.924 3-4 3s-4-1.568-4-3V2z" style="isolation:auto;mix-blend-mode:normal;marker:none" color="#000" overflow="visible" fill-opacity=".167" paint-order="fill markers stroke"/><path style="isolation:auto;mix-blend-mode:normal;marker:none" d="M19 1v16c0 1-2 3-3 3s-3-2-3-3V1z" color="#000" overflow="visible" fill-opacity=".661" paint-order="fill markers stroke"/><path d="M15.96 16.447c-.98 0-1.613.797-1.768 1.76l-1.402 5.147c-.278 1.724 1.415 3.152 3.17 3.152 1.757 0 3.45-1.428 3.171-3.152l-1.401-5.148c-.156-.962-.79-1.759-1.77-1.759zm0 1.456c.47 0 .85.378.85.845 0 .466-.38.845-.85.845a.847.847 0 0 1-.849-.845c0-.467.38-.845.85-.845zm0 3.02c1.144.001 2.07.923 2.07 2.06a2.064 2.064 0 0 1-2.07 2.056c-1.142 0-2.07-.92-2.07-2.057s.927-2.058 2.07-2.058z" style="isolation:auto;mix-blend-mode:normal;marker:none" color="#000" display="block" overflow="visible" fill-opacity=".313" paint-order="fill markers stroke"/><path style="isolation:auto;mix-blend-mode:normal;marker:none" d="M15.96 17c-1.008 0-1.66.82-1.82 1.81l-.974 4.124c-.246 1.52 1.246 2.779 2.795 2.779 1.548 0 3.04-1.26 2.795-2.78l-.974-4.123c-.16-.99-.812-1.81-1.821-1.81zm0 .953a.88.88 0 0 1 .884.878.88.88 0 0 1-.883.879.88.88 0 0 1-.883-.879.88.88 0 0 1 .883-.878zm0 3.19c.985 0 1.783.794 1.783 1.773 0 .978-.798 1.771-1.782 1.771a1.777 1.777 0 0 1-1.783-1.771c0-.98.798-1.773 1.783-1.773z" color="#000" overflow="visible" fill="#e7e7e7" paint-order="fill markers stroke"/><path style="isolation:auto;mix-blend-mode:normal;marker:none" d="M11 2h1v14h-1zM20 2h1v14h-1z" color="#000" display="block" overflow="visible" fill="#e7e7e7" fill-opacity=".234" paint-order="fill markers stroke"/><g color="#000"><path d="M9.086 1c-3.352 0-6 2.734-6 6.086v.667c0-3.352 2.648-5.754 6-5.754h14c3.352 0 6 2.402 6 5.754v-.667c0-3.352-2.648-6.085-6-6.085z" style="isolation:auto;mix-blend-mode:normal;marker:none" display="block" overflow="visible" fill="#fff" fill-opacity=".505" paint-order="fill markers stroke"/><path style="isolation:auto;mix-blend-mode:normal;marker:none" d="M151 181h18v1.5h-18z" display="block" overflow="visible" fill="url(#r)" paint-order="fill markers stroke" transform="translate(-90.581 -90.581) scale(.66667)"/><path transform="rotate(90 0 -90.581) scale(.66667)" style="isolation:auto;mix-blend-mode:normal;marker:none" d="M146.5-179.5H175v1.5h-28.5z" display="block" overflow="visible" fill="url(#s)" paint-order="fill markers stroke"/><path transform="rotate(90 0 -90.581) scale(.66667)" style="isolation:auto;mix-blend-mode:normal;marker:none" d="M148-142h25.5v1.5H148z" display="block" overflow="visible" fill="url(#t)" paint-order="fill markers stroke"/><path d="M149.5 137.372h21c5.028 0 9 4.1 9 9.128v4.5L160 166l-19.5-15v-4.5c0-5.028 3.972-9.128 9-9.128z" style="isolation:auto;mix-blend-mode:normal;marker:none" display="block" overflow="visible" fill="url(#u)" paint-order="fill markers stroke" transform="translate(-90.581 -90.581) scale(.66667)"/><path style="line-height:normal;font-variant-ligatures:normal;font-variant-position:normal;font-variant-caps:normal;font-variant-numeric:normal;font-variant-alternates:normal;font-feature-settings:normal;text-indent:0;text-align:start;text-decoration-line:none;text-decoration-style:solid;text-decoration-color:#000;text-transform:none;text-orientation:mixed;shape-padding:0;isolation:auto;mix-blend-mode:normal" d="M179.5 151L160 166l-19.5-15v1.5l19.5 15 19.5-15z" font-weight="400" font-family="sans-serif" white-space="normal" overflow="visible" fill="url(#v)" fill-rule="evenodd" transform="translate(-90.581 -90.581) scale(.66667)"/></g><path style="isolation:auto;mix-blend-mode:normal;marker:none" d="M-18-31v1h2v-1zm2 1v1h2v-1zm0 1h-2v1h2zm0 1v1h2v-1zm0 1h-2v1h2zm0 1v1h2v-1zm0 1h-2v1h2zm0 1v1h2v-1zm0 1h-2v1h2zm0 1v1h2v-1zm0 1h-2v1h2zm0 1v1h2v-1zm0 1h-2v1h2zm0 1v1h2v-1zm0 1h-2v1h2z" transform="matrix(1 0 0 1 32 32)" color="#000" display="block" overflow="visible" fill="url(#x)" paint-order="fill markers stroke"/></svg>