<svg xmlns="http://www.w3.org/2000/svg" xmlns:xlink="http://www.w3.org/1999/xlink" height="32" viewBox="0 0 32 32" width="32"><title>Template icons dark</title><defs><linearGradient id="b"><stop offset="0" stop-color="#ff053c"/><stop offset="1" stop-color="#0b31ff" stop-opacity=".974"/></linearGradient><linearGradient id="a"><stop offset="0" stop-color="#20c686"/><stop offset="1" stop-color="#259d68"/></linearGradient><linearGradient xlink:href="#a" id="c" x1="24.535" y1="7.996" x2="24.705" y2="38.25" gradientUnits="userSpaceOnUse" gradientTransform="matrix(.72548 0 0 .72548 -33.47 -34.542)"/><linearGradient gradientTransform="matrix(.34043 0 0 .34043 -70.468 -70.468)" xlink:href="#b" id="d" x1="122" y1="183" x2="196" y2="142" gradientUnits="userSpaceOnUse"/></defs><g transform="translate(32 32)"><circle style="isolation:auto;mix-blend-mode:normal;marker:none" cx="-16" cy="-16" r="16" color="#000" display="block" overflow="visible" fill-opacity=".157"/><circle style="isolation:auto;mix-blend-mode:normal;marker:none" cx="-16" cy="-16" r="15.152" color="#000" overflow="visible" fill="url(#c)" stroke="#fff" stroke-width=".844"/><circle r="15.152" cy="-16" cx="-16" style="isolation:auto;mix-blend-mode:normal;marker:none" color="#000" overflow="visible" opacity=".109" fill="url(#d)" stroke="#fff" stroke-width=".844"/><circle r="2.578" cy="-16" cx="-16" style="isolation:auto;mix-blend-mode:normal;marker:none" color="#000" overflow="visible" fill="#efefef" fill-opacity=".214"/><path d="M-12.155-4.875c-1.715-.285-3.942-2.248-5.976-5.267-.853-1.267-1.726-2.831-2.295-4.114-.115-.258-.156-.32-.19-.283-.07.074-.566 1.153-.828 1.798-.44 1.085-.75 2.12-.928 3.096-.113.625-.123 1.836-.017 2.21.245.873.778 1.235 1.61 1.096.599-.1 1.324-.43 2.094-.948.341-.23.431-.274.564-.275.202-.001.353.109.423.309.047.132.047.17-.001.298-.046.121-.126.193-.487.438-.498.338-1.35.773-1.787.913-1.143.365-2.032.231-2.658-.4-.575-.58-.823-1.519-.746-2.828.099-1.703.848-4.027 2.03-6.306l.297-.572-.224-.606c-.214-.58-.639-1.925-.639-2.025 0-.074-.13-.059-.698.081-1.303.32-2.272.729-2.966 1.25-1.366 1.025-1.004 2.18 1.042 3.331.326.183.4.282.4.526 0 .128-.023.18-.127.284-.224.224-.432.177-1.123-.25-.999-.62-1.63-1.325-1.853-2.07-.081-.27-.081-.818 0-1.091.118-.399.317-.715.675-1.076.804-.808 2.136-1.428 3.964-1.846.372-.084.458-.116.444-.164-.01-.032-.052-.245-.095-.473-.248-1.333-.255-2.861-.018-3.709.274-.977.77-1.559 1.56-1.83.324-.111.97-.094 1.413.038.445.132.998.405 1.487.732.583.39.754.555.78.743.056.434-.392.668-.758.395-1.146-.853-1.964-1.178-2.62-1.04-.477.1-.84.59-1.025 1.378-.073.313-.083.462-.083 1.241 0 .884.012 1.026.174 1.953l.08.466.192-.023c.878-.106 1.634-.18 2.1-.205l.554-.03.086-.11c.935-1.203 2.295-2.607 3.326-3.434 1.973-1.583 3.665-2.133 4.83-1.569.657.319 1.072.97 1.234 1.934.105.629.022 2.119-.142 2.538-.057.145-.238.25-.434.25a.36.36 0 0 1-.282-.11c-.112-.1-.123-.129-.122-.33 0-.12.032-.465.07-.765.112-.873.035-1.68-.203-2.147a1.423 1.423 0 0 0-.557-.57c-.153-.075-.232-.087-.591-.086-.377.002-.451.014-.823.141-1.152.393-2.47 1.337-3.887 2.781-.27.276-.677.714-.903.973l-.41.47.357.009c4.99.118 9.197 1.264 11.18 3.046.446.401.83.998.942 1.464.057.236.058.695.002.94-.205.906-1.2 1.797-2.653 2.373-.23.09-.278.098-.402.06a.453.453 0 0 1-.334-.436c0-.24.115-.354.53-.528.901-.378 1.6-.908 1.866-1.415.093-.176.107-.245.107-.523 0-.29-.013-.344-.127-.565-.16-.312-.693-.845-1.134-1.137-2.168-1.434-6.252-2.365-10.377-2.365h-.68l-.256.348a38.47 38.47 0 0 0-1.547 2.355l-.292.5.2.46c2.014 4.62 5.139 8.52 7.444 9.29.501.168.88.176 1.187.026.573-.28.874-1.01.92-2.231.077-2.04-.658-4.859-2.027-7.78-.142-.303-.228-.534-.228-.616 0-.247.203-.442.457-.438.226.002.325.093.498.454 1.11 2.323 1.851 4.65 2.128 6.688.093.685.093 2.08.001 2.578-.148.797-.411 1.372-.814 1.776-.49.493-1.128.68-1.881.556zm-7.97-12.403c.141-.228.415-.646.609-.93.194-.284.352-.528.352-.542 0-.048-1.779.132-1.833.186-.032.032.075.429.311 1.157.173.53.22.638.258.595a7.4 7.4 0 0 0 .303-.466zm3.797 3.377c-.566-.201-.897-.673-.889-1.268.004-.312.075-.526.257-.774.462-.628 1.404-.7 1.971-.15.652.633.46 1.762-.365 2.14-.284.129-.697.152-.974.053z" fill-opacity=".438"/><path d="M-12.155-5.73c-1.715-.284-3.942-2.247-5.976-5.266-.853-1.267-1.726-2.831-2.295-4.114-.115-.258-.156-.32-.19-.283-.07.074-.566 1.153-.828 1.798-.44 1.085-.75 2.12-.928 3.096-.113.625-.123 1.836-.017 2.21.245.873.778 1.235 1.61 1.096.599-.1 1.324-.429 2.094-.948.341-.23.431-.274.564-.275.202-.001.353.109.423.309.047.132.047.17-.001.298-.046.121-.126.193-.487.438-.498.338-1.35.773-1.787.913-1.143.365-2.032.231-2.658-.4-.575-.58-.823-1.519-.746-2.828.099-1.703.848-4.027 2.03-6.306l.297-.572-.224-.606c-.214-.58-.639-1.925-.639-2.025 0-.074-.13-.059-.698.081-1.303.32-2.272.729-2.966 1.25-1.366 1.025-1.004 2.18 1.042 3.331.326.183.4.282.4.526 0 .128-.023.18-.127.284-.224.224-.432.177-1.123-.25-.999-.62-1.63-1.325-1.853-2.07-.081-.27-.081-.818 0-1.091.118-.399.317-.715.675-1.076.804-.808 2.136-1.428 3.964-1.845.372-.085.458-.117.444-.165-.01-.032-.052-.245-.095-.473-.248-1.333-.255-2.861-.018-3.709.274-.977.77-1.559 1.56-1.83.324-.111.97-.094 1.413.038.445.132.998.405 1.487.732.583.39.754.555.78.743.056.434-.392.668-.758.395-1.146-.853-1.964-1.178-2.62-1.04-.477.1-.84.59-1.025 1.378-.073.313-.083.462-.083 1.241 0 .884.012 1.026.174 1.953l.08.466.192-.023c.878-.106 1.634-.18 2.1-.205l.554-.03.086-.11c.935-1.203 2.295-2.607 3.326-3.434 1.973-1.583 3.665-2.133 4.83-1.569.657.319 1.072.97 1.234 1.934.105.629.022 2.119-.142 2.538-.057.145-.238.25-.434.25a.36.36 0 0 1-.282-.11c-.112-.1-.123-.128-.122-.33 0-.12.032-.465.07-.765.112-.873.035-1.68-.203-2.147a1.423 1.423 0 0 0-.557-.57c-.153-.075-.232-.087-.591-.086-.377.002-.451.014-.823.141-1.152.393-2.47 1.337-3.887 2.781-.27.276-.677.714-.903.973l-.41.47.357.01c4.99.117 9.197 1.263 11.18 3.045.446.401.83.998.942 1.464.057.236.058.695.002.94-.205.906-1.2 1.797-2.653 2.373-.23.09-.278.098-.402.06a.453.453 0 0 1-.334-.436c0-.239.115-.354.53-.528.901-.378 1.6-.908 1.866-1.415.093-.176.107-.245.107-.523 0-.29-.013-.344-.127-.565-.16-.312-.693-.845-1.134-1.137-2.168-1.434-6.252-2.365-10.377-2.365h-.68l-.256.348a38.47 38.47 0 0 0-1.547 2.355l-.292.5.2.46c2.014 4.62 5.139 8.52 7.444 9.29.501.168.88.176 1.187.026.573-.28.874-1.01.92-2.231.077-2.04-.658-4.859-2.027-7.78-.142-.303-.228-.534-.228-.616 0-.247.203-.442.457-.438.226.002.325.093.498.454 1.11 2.323 1.851 4.65 2.128 6.688.093.686.093 2.08.001 2.578-.148.797-.411 1.372-.814 1.776-.49.493-1.128.68-1.881.556zm-7.97-12.402c.141-.228.415-.646.609-.93.194-.284.352-.528.352-.542 0-.048-1.779.132-1.833.186-.032.032.075.429.311 1.157.173.53.22.638.258.595a7.4 7.4 0 0 0 .303-.466zm3.797 3.378c-.566-.202-.897-.674-.889-1.27.004-.31.075-.524.257-.773.462-.628 1.404-.7 1.971-.15.652.633.46 1.762-.365 2.14-.284.129-.697.152-.974.053z" fill="#fff" stroke="#fff" stroke-width=".15"/></g></svg>