<svg xmlns="http://www.w3.org/2000/svg" xmlns:xlink="http://www.w3.org/1999/xlink" height="32" viewBox="0 0 32 32" width="32"><title>Template icons dark</title><defs><linearGradient id="a"><stop offset="0" stop-color="#fbfbfb"/><stop offset="1" stop-color="#cfcfcf"/></linearGradient><linearGradient id="b"><stop offset="0" stop-color="#ff8545"/><stop offset=".525" stop-color="#f47200"/><stop offset="1" stop-color="#ffa04d"/></linearGradient><linearGradient id="c"><stop offset="0" stop-color="#2c60d3" stop-opacity=".609"/><stop offset="1" stop-color="#2c60d3" stop-opacity="0"/></linearGradient><linearGradient id="d"><stop offset="0" stop-opacity=".289"/><stop offset="1" stop-color="#c1c1c1" stop-opacity="0"/></linearGradient><linearGradient id="e"><stop offset="0" stop-color="#da6607" stop-opacity=".355"/><stop offset="1" stop-color="#fff" stop-opacity=".243"/></linearGradient><linearGradient id="f"><stop offset="0" stop-color="#763704"/><stop offset="1" stop-color="#763704" stop-opacity="0"/></linearGradient><linearGradient xlink:href="#b" id="g" gradientUnits="userSpaceOnUse" gradientTransform="matrix(.69227 0 0 .69227 -32.43 -33.818)" x1="2.133" y1="1.425" x2="45.917" y2="45.208"/><linearGradient xlink:href="#a" id="h" gradientUnits="userSpaceOnUse" x1="213.205" y1="166" x2="213.205" y2="261.881" gradientTransform="matrix(.1184 0 0 .1184 -36.636 -38.48)"/></defs><path d="M-16.997-31.529c-.494 0-.987.189-1.365.567a1.926 1.926 0 0 0 0 2.73L-13-22.87h-13.98c-1.068 0-1.93.86-1.93 1.93 0 1.07.862 1.93 1.93 1.93 2.01-.006 4.86-.007 7.59-.006l-9.89 9.89a1.926 1.926 0 0 0 0 2.73 1.926 1.926 0 0 0 2.73 0c1.45-1.46 3.53-3.54 5.502-5.511a9.65 9.65 0 0 0 9.55 8.338 9.65 9.65 0 0 0 9.65-9.65 9.65 9.65 0 0 0-3.307-7.264c-.714-.713-7.131-7.114-10.478-10.48a1.924 1.924 0 0 0-1.364-.566zm5.612 16.013a2.252 2.252 0 1 1 0 4.505 2.252 2.252 0 0 1 0-4.505z" fill="url(#g)" transform="translate(32 32)"/><path d="M-11.393-19.054a5.79 5.79 0 0 0-5.79 5.79 5.79 5.79 0 0 0 5.79 5.79 5.79 5.79 0 0 0 5.79-5.79 5.79 5.79 0 0 0-5.79-5.79zm0 3.526a2.265 2.265 0 0 1 2.265 2.264 2.265 2.265 0 0 1-2.265 2.265 2.265 2.265 0 0 1-2.264-2.265 2.265 2.265 0 0 1 2.264-2.264z" fill="url(#h)" transform="translate(32 32)"/></svg>