<svg xmlns="http://www.w3.org/2000/svg" xmlns:xlink="http://www.w3.org/1999/xlink" height="32" viewBox="0 0 32 32" width="32"><title>Template icons dark</title><defs><linearGradient id="c"><stop offset="0" stop-color="#dbdbdb"/><stop offset="1" stop-color="#fff"/></linearGradient><linearGradient id="a"><stop offset="0" stop-color="#343434"/><stop offset="1" stop-color="#585858"/></linearGradient><linearGradient id="b"><stop offset="0" stop-color="#0086f7"/><stop offset="1" stop-color="#60cdff"/></linearGradient><linearGradient xlink:href="#b" id="d" gradientUnits="userSpaceOnUse" gradientTransform="matrix(2.2 0 0 2.2 -68.8 -75.84)" x1="25" y1="45.7" x2="25" y2="8.075"/><linearGradient xlink:href="#c" id="e" gradientUnits="userSpaceOnUse" gradientTransform="matrix(1.01537 0 0 1.01537 -178.459 -178.459)" x1="164.959" y1="189.342" x2="164.959" y2="137.236"/><linearGradient xlink:href="#a" id="f" gradientUnits="userSpaceOnUse" gradientTransform="translate(-63.565 -69.484) scale(1.98448)" x1="31" y1="38.2" x2="31" y2="16.075"/></defs><path d="M4.219 0H27.78A4.21 4.21 0 0 1 32 4.219V27.78A4.21 4.21 0 0 1 27.781 32H4.22A4.21 4.21 0 0 1 0 27.781V4.22A4.21 4.21 0 0 1 4.219 0z" fill-opacity=".078"/><path d="M-26.875-31h21.75A4.116 4.116 0 0 1-1-26.875v21.75A4.116 4.116 0 0 1-5.125-1h-21.75A4.116 4.116 0 0 1-31-5.125v-21.75A4.116 4.116 0 0 1-26.875-31z" fill="url(#d)" transform="translate(32 32)"/><path d="M1 25.875v1S1 31 5.415 31h21.29C30.677 31 31 26.875 31 26.875v-1C31 27.669 29.535 30 26.705 30H5.415C3.13 30 1 28.623 1 25.875z" fill="#fff" fill-opacity=".219"/><path d="M7.318 5h17.364A3.31 3.31 0 0 1 28 8.318v17.364A3.31 3.31 0 0 1 24.682 29H7.318A3.31 3.31 0 0 1 4 25.682V8.318A3.31 3.31 0 0 1 7.318 5z" fill-opacity=".385"/><path d="M-24.682-28h17.364A3.31 3.31 0 0 1-4-24.682v17.364A3.31 3.31 0 0 1-7.318-4h-17.364A3.31 3.31 0 0 1-28-7.318v-17.364A3.31 3.31 0 0 1-24.682-28z" fill="url(#e)" transform="translate(32 32)"/><path d="M4 23.659v1.015a3.31 3.31 0 0 0 3.318 3.318h17.364A3.31 3.31 0 0 0 28 24.674v-1.015a3.31 3.31 0 0 1-3.318 3.317H7.318A3.31 3.31 0 0 1 4 23.66z" fill="#f8f8f8"/><path d="M-24-24.008V-8h7v-4h-3v-8h3v-4zm9 .008v4h3v8h-3v4h7v-16z" fill="url(#f)" transform="translate(32 32)"/><path d="M8 7.992v1L15 9V8zM17 8v1h7V8zm-5 12v1h3v-1zm5 0v1h3v-1z" fill-opacity=".51"/><path d="M12 12v1h3v-1zm5 0v1h3v-1zm-2 12l-7 .001V25h7zm2 0v1h7v-1z" fill="#fff" fill-opacity=".948"/></svg>