<svg xmlns="http://www.w3.org/2000/svg" xmlns:xlink="http://www.w3.org/1999/xlink" height="32" viewBox="0 0 32 32" width="32"><title>Template icons dark</title><defs><linearGradient id="a"><stop offset="0" stop-color="#ba0049"/><stop offset="1" stop-color="#ff1edc"/></linearGradient><linearGradient id="b"><stop offset="0" stop-color="#00c640"/><stop offset="1" stop-color="#3bcfd5"/></linearGradient><linearGradient id="c"><stop offset="0" stop-color="#118fff"/><stop offset="1" stop-color="#00f5ab"/></linearGradient><linearGradient xlink:href="#a" id="d" gradientUnits="userSpaceOnUse" gradientTransform="translate(-33.297 -35.6) scale(.76876)" x1="40.461" y1="43.461" x2="24.042" y2="10.5"/><linearGradient xlink:href="#b" id="e" x1="34.931" y1="44.25" x2="8.627" y2="40.5" gradientUnits="userSpaceOnUse" gradientTransform="translate(-33.297 -35.6) scale(.76876)"/><linearGradient xlink:href="#c" id="f" gradientUnits="userSpaceOnUse" gradientTransform="translate(-33.297 -35.6) scale(.76876)" x1="19.466" y1="20.754" x2="8.839" y2="39.161"/></defs><g fill-rule="evenodd"><path d="M17.12 25l-5.787-2.328 5.318-4.339zM16.022 0L5.333 21.334 0 32h32z" fill-opacity=".174"/><path d="M-16-31.02L-.865-.75h-12.973z" fill="url(#d)" transform="translate(32 32)"/><path d="M-31.135-.75l5.045-10.09L-.865-.75z" fill="url(#e)" transform="translate(32 32)"/><path d="M.865 31.25L5.91 21.16l9.706 3.89z" fill-opacity=".325"/><path d="M-16-31.02L-31.135-.75l16.255-14.574z" fill="url(#f)" transform="translate(32 32)"/><path d="M.865 31.25l9.365-8.38 13.029 5.236z" fill-opacity=".174"/><path d="M17.392 20.324L31.135 31.25 17.781 25.91z" fill-opacity=".261"/><path d="M16 .98l-1.523 18.038 2.643-2.342z" fill-opacity=".236"/><path d="M16 .98L8.476 24.426l8.644-7.75zM16.811 11.825L31.135 31.25 17.781 25.91z" fill-opacity=".174"/></g></svg>