<svg xmlns="http://www.w3.org/2000/svg" xmlns:xlink="http://www.w3.org/1999/xlink" height="32" viewBox="0 0 32 32" width="32"><title>Template icons dark</title><defs><linearGradient id="q"><stop offset="0" stop-color="#c3c3c3"/><stop offset=".5" stop-color="#fff"/><stop offset="1" stop-color="#fff"/></linearGradient><linearGradient id="r"><stop offset="0" stop-color="#bababa" stop-opacity=".957"/><stop offset=".5" stop-color="#fff" stop-opacity=".827"/><stop offset="1" stop-color="#fff"/></linearGradient><linearGradient id="p"><stop offset="0" stop-opacity=".203"/><stop offset="1" stop-opacity="0"/></linearGradient><linearGradient id="o"><stop offset="0"/><stop offset="1" stop-opacity="0"/></linearGradient><linearGradient id="n"><stop offset="0" stop-color="#c6c6c6"/><stop offset="1" stop-color="#d2d2d2"/></linearGradient><linearGradient id="m"><stop offset="0" stop-color="#374359"/><stop offset="1" stop-color="#202733" stop-opacity=".953"/></linearGradient><linearGradient id="l"><stop offset="0" stop-color="#252525"/><stop offset="1" stop-color="#3d3d3d"/></linearGradient><linearGradient id="k"><stop offset="0" stop-opacity=".214"/><stop offset="1" stop-color="#fff"/></linearGradient><linearGradient id="j"><stop offset="0" stop-color="#bababa"/><stop offset="1" stop-color="#c9cbc9"/></linearGradient><linearGradient id="i"><stop offset="0" stop-opacity=".417"/><stop offset="1" stop-opacity="0"/></linearGradient><linearGradient id="h"><stop offset="0" stop-color="#fff"/><stop offset="1" stop-opacity=".792"/></linearGradient><linearGradient id="g"><stop offset="0" stop-color="#a6afb1"/><stop offset="1" stop-color="#c7cdcd"/></linearGradient><linearGradient id="d"><stop offset="0" stop-opacity=".125"/><stop offset="1" stop-color="#4bd865" stop-opacity="0"/></linearGradient><linearGradient id="c"><stop offset="0" stop-color="#80e493"/><stop offset="1" stop-color="#4bd865"/></linearGradient><linearGradient id="b"><stop offset="0" stop-color="#fff"/><stop offset="1" stop-color="#dadada"/></linearGradient><linearGradient id="e"><stop offset="0" stop-color="#bababa" stop-opacity=".957"/><stop offset=".17" stop-color="#fff" stop-opacity=".827"/><stop offset="1" stop-color="#fff"/></linearGradient><linearGradient id="f"><stop offset="0" stop-color="#c3c3c3"/><stop offset=".252" stop-color="#fff"/><stop offset="1" stop-color="#fff"/></linearGradient><linearGradient id="a"><stop offset="0" stop-color="#dadada"/><stop offset="1" stop-color="#fff"/></linearGradient><linearGradient xlink:href="#q" id="v" x1="-23.835" y1="47.253" x2="-23.835" y2="57.711" gradientUnits="userSpaceOnUse" gradientTransform="matrix(.87012 0 0 .86852 5.395 -50.966)"/><linearGradient xlink:href="#i" id="u" gradientUnits="userSpaceOnUse" x1="160" y1="168" x2="160" y2="171" gradientTransform="matrix(.34957 0 0 .34957 -74.711 -70.725)"/><linearGradient gradientTransform="matrix(.65263 0 0 .65263 -31.747 -29.867)" xlink:href="#r" id="t" x1="23.75" y1="11.188" x2="23.75" y2="2.875" gradientUnits="userSpaceOnUse"/><linearGradient xlink:href="#b" id="s" x1="163" y1="146.121" x2="163" y2="179.803" gradientUnits="userSpaceOnUse" gradientTransform="matrix(.34957 0 0 .37517 -71.982 -77.165)"/></defs><g transform="translate(32 32)"><path d="M-23-30v7h-9v15h4l2-2h20l2 2h4v-15h-9l.07-7z" style="isolation:auto;mix-blend-mode:normal;marker:none" color="#000" overflow="visible" fill-opacity=".182" paint-order="fill markers stroke"/><path d="M-31-22h30v13h-2l-2-2h-22l-2 2h-2z" style="isolation:auto;mix-blend-mode:normal;marker:none" color="#000" display="block" overflow="visible" fill="url(#s)" paint-order="fill markers stroke"/><path d="M-10-19l1-1h4l1 1.008v1.017L-5-17h-4l-1-1z" fill="#2dd24c"/><path d="M-22-29h12v7h-12z" style="isolation:auto;mix-blend-mode:normal" color="#000" overflow="visible" fill="url(#t)"/><path d="M-27-12h22v2h-22z" style="isolation:auto;mix-blend-mode:normal;marker:none" color="#000" display="block" overflow="visible" fill="url(#u)" paint-order="fill markers stroke"/><path d="M-24-10h16l6 9h-28z" style="isolation:auto;mix-blend-mode:normal" color="#000" overflow="visible" fill="url(#v)" stroke="#828282" stroke-width=".209"/><path d="M-16.034-2.23c-1.038-.124-1.978-.594-2.603-1.301a3.133 3.133 0 0 1-.595-.99 2.715 2.715 0 0 1-.031-1.735c.346-1.041 1.306-1.84 2.559-2.13a4.66 4.66 0 0 1 2.086.025 4.203 4.203 0 0 1 1.558.746c.183.138.272.233.333.358.06.122.063.188.014.277-.08.147-.327.247-.602.244a.912.912 0 0 1-.405-.088c-.097-.044-.112-.057-.217-.194a2.287 2.287 0 0 0-.415-.437 1.96 1.96 0 0 0-1.22-.463c-1.434-.016-2.445 1.651-2.01 3.316.233.895.82 1.574 1.573 1.816.419.135.825.118 1.24-.051.27-.11.532-.3.73-.526.16-.183.233-.242.376-.3.117-.047.126-.048.302-.046.17.002.187.005.29.047.132.055.253.142.299.215a.189.189 0 0 1 .03.133c-.008.099-.07.173-.275.324-.6.444-1.286.7-2.075.772a6.12 6.12 0 0 1-.942-.012zm-.073-2.246c-.063-.027-.107-.073-.108-.113-.002-.045.1-.042.136.003.05.064.225.057.224-.009-.001-.034-.035-.049-.18-.078-.12-.023-.167-.063-.168-.143 0-.048.009-.07.045-.105.041-.038.057-.043.154-.047.088-.004.117 0 .163.024.054.029.095.08.096.12 0 .035-.1.023-.14-.017-.025-.027-.049-.036-.094-.037-.075 0-.094.01-.093.049 0 .034.034.05.17.079.119.025.176.07.177.141.002.105-.08.158-.238.156a.471.471 0 0 1-.144-.023zm1.113.013c-.063-.028-.107-.074-.108-.113-.001-.045.1-.043.136.003.05.063.225.056.224-.009-.001-.035-.035-.05-.18-.078-.12-.024-.167-.063-.168-.143 0-.049.009-.07.045-.105.041-.039.057-.044.154-.048.088-.003.117.001.163.025.055.028.095.08.096.12 0 .035-.1.023-.14-.018-.025-.026-.049-.036-.094-.036-.075 0-.094.009-.093.048 0 .035.034.05.17.08.119.024.176.07.177.14.002.105-.08.158-.237.156a.471.471 0 0 1-.145-.022zm-.488-.097c-.007-.09-.016-.11-.103-.235a.617.617 0 0 1-.086-.147c.004-.006.037-.01.073-.01.064 0 .066.002.117.09.028.048.058.089.066.089s.035-.04.06-.088c.047-.087.048-.088.113-.087.036 0 .07.005.074.011a.577.577 0 0 1-.082.146c-.081.122-.09.143-.094.232l-.005.1-.062-.002-.062-.001zm1.099-.076c-.003-.128-.01-.194-.024-.205a.199.199 0 0 0-.09-.017c-.067 0-.07-.002-.071-.042v-.04l.245.002.245.003.001.041c.001.04-.003.04-.07.04-.038 0-.079.007-.09.015-.013.011-.018.076-.015.204l.003.188-.066-.001-.065-.002zm.392-.053l-.005-.245.213.002.213.003v.04l.002.04-.142.003c-.113.002-.145.007-.159.026-.013.017-.013.03 0 .047.015.019.05.026.149.033.125.008.129.01.13.042 0 .033-.004.034-.122.037-.136.003-.164.014-.163.068.001.059.028.069.185.07l.144.002v.041l.001.04-.22-.002-.222-.002zm.54.005l-.005-.246.094.005.094.005.044.148a.501.501 0 0 0 .06.15c.01.002.034-.064.056-.146l.039-.15.093-.002.093-.003.005.245.004.246h-.057l-.058-.002-.002-.119c-.003-.173-.024-.18-.067-.022l-.037.133h-.065l-.066-.002-.041-.135c-.05-.159-.07-.152-.067.021l.002.12-.057-.001h-.058l-.004-.247zm.704-.44a.323.323 0 0 1-.14-.129.389.389 0 0 1-.02-.122.238.238 0 0 1 .115-.217.44.44 0 0 1 .306-.01c.06.027.126.104.11.128-.021.027-.116.014-.154-.022-.042-.04-.124-.047-.178-.016-.045.026-.072.132-.051.202.027.093.1.13.195.099.048-.017.076-.052.058-.075-.005-.007-.03-.013-.057-.013-.043 0-.048-.006-.049-.041v-.041l.122.001.123.002.002.129c.002.126.001.13-.035.129a.104.104 0 0 1-.056-.016c-.013-.01-.032-.008-.068.006a.407.407 0 0 1-.223.006zm-3.45-.284l-.005-.245.173.002c.17.002.175.003.222.042.042.035.049.05.05.117.001.067-.005.082-.046.116-.04.034-.06.04-.135.039a.266.266 0 0 0-.107.015c-.01.009-.02.048-.018.088l.001.072-.065-.001-.066-.001zm.283-.037c.025-.021.015-.086-.017-.105-.037-.023-.093-.025-.118-.004-.026.021-.024.096.003.118.022.019.106.012.132-.01zm.257.043l-.004-.245.197.002c.197.002.198.002.246.042a.127.127 0 0 1 .024.18c-.022.03-.023.044-.008.07a.42.42 0 0 1 .03.117l.012.086-.07-.005-.071-.005-.012-.073c-.014-.086-.024-.096-.103-.108-.087-.013-.11.009-.107.105l.001.08-.065-.001-.066-.001zm.3-.037c.033-.01.042-.023.042-.055 0-.045-.044-.068-.13-.07-.056 0-.084.022-.083.068 0 .02.01.043.02.052.025.02.095.022.152.005zm.29.043l-.005-.245.065.002h.066l.004.246.005.245-.066-.001-.065-.002zm.245.002l-.005-.246.07.005.07.005.098.14a.506.506 0 0 0 .113.134.402.402 0 0 0 .012-.143l-.002-.135h.057l.057.001.005.246.004.246-.068-.005c-.068-.005-.068-.006-.162-.14a.58.58 0 0 0-.11-.135c-.01.002-.018.06-.02.138l-.002.136h-.056l-.057-.001zm.721.066c-.002-.128-.01-.193-.023-.204a.199.199 0 0 0-.09-.017c-.068 0-.071-.003-.072-.042v-.04l.245.002.245.003.001.04c.001.04-.002.041-.07.04-.038 0-.078.007-.09.016-.012.01-.018.076-.015.204l.003.188-.065-.002-.066-.001zm.392-.052l-.005-.245h.066l.065.002.005.245.004.245-.065-.001-.066-.001zm.245.001l-.004-.245.07.005.07.004.098.14a.505.505 0 0 0 .113.134.402.402 0 0 0 .012-.143l-.003-.135h.057l.058.002.004.245.005.246-.068-.005c-.068-.005-.069-.006-.163-.14a.58.58 0 0 0-.11-.134c-.01.001-.017.06-.019.137l-.002.136h-.113zm-2.647-.485c-.08-.037-.096-.082-.1-.293l-.003-.19h.064l.064.002.009.181c.01.203.021.227.108.228.086.001.097-.023.1-.225l.002-.182.064.001.064.001.003.191c.004.213-.01.256-.092.29a.516.516 0 0 1-.283-.003zm.49-.233l-.004-.246.07.005.07.005.098.14a.505.505 0 0 0 .113.134.402.402 0 0 0 .012-.143l-.003-.135h.058l.057.002.004.245.005.246-.068-.005c-.068-.005-.069-.005-.162-.14a.581.581 0 0 0-.11-.134c-.01.001-.018.06-.02.138l-.002.136-.056-.001h-.057zm.59.008l-.004-.245h.065l.066.002.004.245.004.245-.065-.002h-.066zm.21.236c-.004-.006.027-.058.071-.116a.6.6 0 0 0 .079-.12.622.622 0 0 0-.076-.12.913.913 0 0 1-.075-.113c0-.005.032-.01.073-.009.068 0 .075.004.111.056.021.03.046.054.055.055.009 0 .03-.023.048-.05.029-.047.038-.052.11-.055.042-.001.077.002.077.009a.719.719 0 0 1-.072.109.525.525 0 0 0-.071.115c0 .01.038.066.084.126.047.06.078.113.07.12-.008.007-.043.01-.078.006-.055-.004-.068-.012-.102-.063-.022-.032-.048-.058-.059-.058-.01 0-.039.027-.062.06-.04.056-.05.06-.109.06-.036 0-.069-.006-.074-.012z" fill-opacity=".313"/><path d="M-15.663-2.47a2.813 2.813 0 0 1-1.575-.66 2.933 2.933 0 0 1-.904-3.18c.08-.24.226-.524.368-.717.34-.463.778-.79 1.306-.972.319-.11.538-.144.9-.14.282.004.445.025.687.09.19.052.536.2.718.31.301.18.631.483.846.776.162.222.163.237.05.235a1.101 1.101 0 0 1-.393-.062c-.113-.047-.161-.05-.244-.165-.264-.364-.593-.657-.977-.81-.392-.156-.814-.2-1.208-.08-.61.185-1.119.682-1.388 1.357a2.86 2.86 0 0 0-.208 1.19c.008.427.136.81.294 1.174.066.15.265.492.359.613.616.802 1.46.98 2.303.634.258-.105.558-.334.744-.556a.778.778 0 0 1 .299-.243c.133-.066.378-.049.463-.029.056.014-.265.42-.506.62a2.636 2.636 0 0 1-1.337.596c-.141.02-.478.032-.597.02z" fill-opacity=".313"/><path d="M-5-16h-4l-1 1v1l1 1h4l1-1v-1.006z" fill="#a9a9a9"/><circle style="isolation:auto;mix-blend-mode:normal;marker:none" cx="-8" cy="-19" r="1" color="#000" display="block" overflow="visible" fill="#fff" fill-opacity=".953" paint-order="fill markers stroke"/><circle r="1" cy="-15" cx="-6" style="isolation:auto;mix-blend-mode:normal;marker:none" color="#000" display="block" overflow="visible" fill="#fff" fill-opacity=".953" paint-order="fill markers stroke"/><circle style="isolation:auto;mix-blend-mode:normal;marker:none" cx="-27" cy="-18" r="1" color="#000" display="block" overflow="visible" fill="#2db887" fill-opacity=".578" paint-order="fill markers stroke"/></g></svg>