<svg xmlns="http://www.w3.org/2000/svg" xmlns:xlink="http://www.w3.org/1999/xlink" height="32" viewBox="0 0 32 32" width="32" enable-background="new"><title>Template icons dark</title><defs><linearGradient id="d"><stop offset="0" stop-color="#d4d4d4"/><stop offset="1" stop-color="#fbfbfb"/></linearGradient><linearGradient id="a"><stop offset="0" stop-color="#9a9a9a" stop-opacity=".973"/><stop offset="1" stop-color="#f4f4f4"/></linearGradient><linearGradient id="b"><stop offset="0" stop-color="#825cf4"/><stop offset="1" stop-color="#3958ef"/></linearGradient><linearGradient id="c"><stop offset="0" stop-color="#eaf2f7"/><stop offset="1" stop-color="#99b4c0"/></linearGradient><linearGradient gradientTransform="matrix(.25 0 0 .25 -83.999 -84.749)" xlink:href="#d" id="h" x1="276.22" y1="292" x2="276.22" y2="276.22" gradientUnits="userSpaceOnUse"/><linearGradient gradientTransform="matrix(.63279 0 0 .63279 -31.187 -34.045)" xlink:href="#b" id="g" x1="23.375" y1="41.2" x2="23.375" y2="13.95" gradientUnits="userSpaceOnUse"/><linearGradient xlink:href="#b" id="f" gradientUnits="userSpaceOnUse" x1="23.375" y1="41.2" x2="23.375" y2="13.95" gradientTransform="matrix(.63279 0 0 .63279 -28.327 -36.361)"/><filter id="e" x="-.021" width="1.042" y="-.028" height="1.055" color-interpolation-filters="sRGB"><feGaussianBlur stdDeviation=".423"/></filter></defs><g color="#000" transform="translate(32 32)"><rect style="isolation:auto;mix-blend-mode:normal;marker:none" width="44" height="30" x="-3.249" y="17.533" rx="0" ry="1.515" transform="rotate(-9.771 -214.767 165.422) scale(.63279)" overflow="visible" fill-opacity=".157" filter="url(#e)" enable-background="accumulate"/><rect transform="rotate(-9.77)" ry=".959" rx="0" y="-28.796" x="-26.833" height="18.984" width="27.843" style="isolation:auto;mix-blend-mode:normal;marker:none" overflow="visible" fill="#fff" stroke="#000" stroke-width=".328" stroke-opacity=".157" enable-background="accumulate"/><rect transform="rotate(-9.09)" style="isolation:auto;mix-blend-mode:normal;marker:none" width="26.577" height="17.718" x="-26.428" y="-28.009" ry="0" overflow="visible" fill="url(#f)" enable-background="accumulate"/><rect style="isolation:auto;mix-blend-mode:normal;marker:none" width="27.843" height="18.984" x="-29.921" y="-26.325" rx="0" ry=".959" overflow="visible" fill="#fff" stroke="#000" stroke-width=".328" stroke-opacity=".157" enable-background="accumulate"/><rect ry="0" y="-25.692" x="-29.289" height="17.718" width="26.577" style="isolation:auto;mix-blend-mode:normal;marker:none" overflow="visible" fill="url(#g)" enable-background="accumulate"/><path style="isolation:auto;mix-blend-mode:normal;marker:none" d="M-16.95-24.25c-.132 0-.205.104-.238.224l-.502 1.845c-.39.116-.764.27-1.116.46l-1.66-.955c-.109-.062-.235-.084-.328.009l-1.359 1.359c-.093.093-.07.217-.009.325l.94 1.643a5.96 5.96 0 0 0-.49 1.141l-1.814.49c-.12.032-.225.106-.225.237v1.922c0 .132.105.204.225.237l1.775.483c.119.419.283.823.49 1.206l-.915 1.59c-.062.109-.084.235.009.328l1.359 1.359c.093.093.217.07.325.009l1.57-.9c.39.217.804.39 1.232.515l.471 1.749c.033.12.107.225.238.225h1.922c.132 0 .204-.105.237-.225l.477-1.75c.423-.126.83-.297 1.216-.512l1.587.912c.108.062.234.084.327-.009l1.359-1.359c.093-.093.07-.218.009-.326l-.921-1.606c.2-.375.36-.77.476-1.179l1.809-.489c.12-.032.225-.105.225-.236v-1.922c0-.132-.105-.205-.225-.238l-1.84-.5-.012-.031a5.896 5.896 0 0 0-.453-1.088l.955-1.66c.062-.108.084-.233-.009-.326l-1.359-1.36c-.093-.092-.218-.07-.326-.009l-1.657.95a5.898 5.898 0 0 0-1.117-.466l-.5-1.848c-.032-.12-.105-.224-.236-.224h-1.922zM-16-18c.834 0 1.5.666 1.5 1.5 0 .833-.666 1.5-1.5 1.5-.833 0-1.5-.667-1.5-1.5 0-.834.667-1.5 1.5-1.5z" overflow="visible" fill-opacity=".141" paint-order="fill markers stroke" enable-background="accumulate"/><path d="M-16.854-23.468c-.119 0-.185.094-.214.202l-.451 1.659a5.3 5.3 0 0 0-1.003.414l-1.493-.86c-.098-.055-.21-.075-.294.009l-1.222 1.222c-.084.083-.064.195-.008.292l.844 1.477c-.182.326-.33.67-.44 1.026l-1.63.44c-.109.029-.203.095-.203.213v1.728c0 .119.094.184.202.213l1.596.435c.107.376.254.74.44 1.083l-.822 1.43c-.056.098-.076.21.008.295l1.222 1.221c.083.084.195.064.292.008l1.411-.808c.351.195.723.35 1.108.462l.424 1.573c.029.108.095.202.213.202h1.728c.119 0 .184-.094.213-.202l.429-1.574c.38-.112.747-.267 1.093-.46l1.426.82c.098.056.21.076.294-.008l1.222-1.222c.084-.083.064-.196.008-.293l-.828-1.444c.18-.337.324-.692.428-1.06l1.627-.439c.108-.029.202-.094.202-.212v-1.728c0-.119-.094-.185-.202-.214l-1.654-.449c-.003-.01-.008-.019-.01-.029a5.3 5.3 0 0 0-.408-.978l.858-1.491c.056-.098.076-.21-.008-.294l-1.222-1.222c-.083-.083-.196-.064-.293-.008l-1.49.853a5.301 5.301 0 0 0-1.004-.418l-.449-1.662c-.029-.108-.094-.201-.212-.201h-1.728zM-16-18.6c1.167 0 2.1.933 2.1 2.1a2.091 2.091 0 0 1-2.1 2.102 2.092 2.092 0 0 1-2.102-2.102c0-1.167.934-2.1 2.102-2.1z" style="isolation:auto;mix-blend-mode:normal;marker:none" overflow="visible" fill="url(#h)" paint-order="fill markers stroke" enable-background="accumulate"/></g></svg>