<svg xmlns="http://www.w3.org/2000/svg" xmlns:xlink="http://www.w3.org/1999/xlink" height="32" viewBox="0 0 32 32" width="32"><title>Template icons dark</title><defs><linearGradient id="g"><stop offset="0" stop-color="#1f97cf"/><stop offset="1" stop-color="#50b5e4"/></linearGradient><linearGradient id="f"><stop offset="0" stop-color="#62c8f7"/><stop offset="1" stop-color="#0ca3e8"/></linearGradient><linearGradient id="a"><stop offset="0" stop-color="#7ed6fb"/><stop offset="1" stop-color="#90ddfc"/></linearGradient><linearGradient id="b"><stop offset="0" stop-color="#7ed6fb"/><stop offset="1" stop-color="#8edcfc"/></linearGradient><linearGradient id="c"><stop offset="0" stop-color="#62c8f7"/><stop offset="1" stop-color="#36aaf2"/></linearGradient><linearGradient id="d"><stop offset="0" stop-color="#7ed6fb"/><stop offset="1" stop-color="#8fdcfc"/></linearGradient><linearGradient id="e"><stop offset="0" stop-color="#1581ce"/><stop offset="1" stop-color="#32a9e0"/></linearGradient><linearGradient y2="880.934" x2="165.724" y1="880.934" x1="138.929" gradientTransform="matrix(.50106 0 0 .50106 -99.463 -465.637)" gradientUnits="userSpaceOnUse" id="h" xlink:href="#a"/><linearGradient gradientTransform="matrix(.50106 0 0 .50106 -40.052 -519.318)" gradientUnits="userSpaceOnUse" y2="988.557" x2="56.624" y1="986.071" x1="70.711" id="i" xlink:href="#b"/><linearGradient gradientTransform="matrix(.34727 0 0 .34727 -71.56 -71.654)" xlink:href="#f" id="j" x1="148" y1="148" x2="150.614" y2="169.512" gradientUnits="userSpaceOnUse"/><linearGradient gradientTransform="matrix(.34727 0 0 .34727 -71.56 -71.654)" xlink:href="#g" id="k" x1="167.78" y1="164" x2="169.512" y2="143.055" gradientUnits="userSpaceOnUse"/><linearGradient gradientTransform="matrix(.50106 0 0 .50106 -40.052 -519.318)" gradientUnits="userSpaceOnUse" y2="1020.598" x2="57.452" y1="1022.255" x1="54.138" id="l" xlink:href="#c"/><linearGradient gradientTransform="matrix(.50106 0 0 .50106 -40.052 -519.318)" gradientUnits="userSpaceOnUse" y2="1008.997" x2="58.281" y1="1009.273" x1="72.644" id="m" xlink:href="#d"/><linearGradient gradientTransform="matrix(.50106 0 0 .50106 -40.052 -519.318)" gradientUnits="userSpaceOnUse" y2="1022.675" x2="44.922" y1="1020.149" x1="38.672" id="n" xlink:href="#e"/><linearGradient gradientTransform="matrix(.50106 0 0 .50106 -40.052 -519.318)" gradientUnits="userSpaceOnUse" y2="1009.393" x2="40.234" y1="1010.175" x1="23.438" id="o" xlink:href="#d"/></defs><path d="M9.65 1.968L.372 7.71l6.303 5.202-6.303 5.202 6.303 3.902v2.08l9.302 5.79-.042-11.141h.002l.044 11.132 9.215-5.781v-2.025l6.43-3.987-6.349-5.165-.08.05v-.046l.017-.011-9.278-5.743-9.26 5.743 9.271-5.755-.01.008 9.299 5.754 6.348-5.163-9.324-5.782-6.31 5.18z" fill="none" stroke="#000" stroke-width=".434" stroke-opacity=".209"/><path d="M15.936 7.17l9.278 5.743-9.215 5.781-9.324-5.781z" fill="#7ed6fb"/><path d="M-31.628-24.29l9.278-5.743 6.301 5.188-9.276 5.758z" fill="url(#h)" transform="translate(32 32)"/><path d="M-16.063-24.834l9.298 5.755 6.35-5.165-9.325-5.78z" fill="url(#i)" transform="translate(32 32)"/><path d="M-16.064-24.83v9.855l-9.216 5.782-.045-9.894z" fill="url(#j)" transform="translate(32 32)"/><path d="M-16.064-24.83v9.855l9.215 5.782.045-9.894z" fill="url(#k)" transform="translate(32 32)"/><path d="M-6.804-19.087v11.184l-9.215 5.781-.045-11.222z" fill="url(#l)" transform="translate(32 32)"/><path d="M-16.001-13.336l9.278-5.743 6.35 5.164-9.325 5.781z" fill="url(#m)" transform="translate(32 32)"/><path d="M-25.325-19.087v11.184l9.302 5.79-.042-11.231z" fill="url(#n)" transform="translate(32 32)"/><path d="M-31.628-13.885l9.278 5.743 6.349-5.164-9.324-5.781z" fill="url(#o)" transform="translate(32 32)"/></svg>