<svg xmlns="http://www.w3.org/2000/svg" xmlns:xlink="http://www.w3.org/1999/xlink" height="32" viewBox="0 0 32 32" width="32"><title>Template icons dark</title><defs><linearGradient id="d"><stop offset="0" stop-color="#e6e223" stop-opacity="0"/><stop offset="1" stop-color="#f99500" stop-opacity=".598"/></linearGradient><linearGradient id="c"><stop offset="0" stop-color="#cdcdcd"/><stop offset="1" stop-color="#fff"/></linearGradient><linearGradient id="b"><stop offset="0" stop-color="#fff" stop-opacity=".427"/><stop offset=".423" stop-color="#fafcfe"/><stop offset="1" stop-color="#fff" stop-opacity=".49"/></linearGradient><linearGradient id="a"><stop offset="0" stop-color="#322461"/><stop offset="1" stop-color="#6d2fd8"/></linearGradient><linearGradient xlink:href="#a" id="e" x1="37.702" y1="34.889" x2="-2.538" y2="12.087" gradientUnits="userSpaceOnUse" gradientTransform="matrix(.74552 0 0 .74552 -32.774 -35.01)"/><linearGradient xlink:href="#d" id="f" gradientUnits="userSpaceOnUse" gradientTransform="matrix(.74552 0 0 .74552 -32.774 -35.01)" x1="25.908" y1="26.373" x2="3.094" y2="26.373"/><linearGradient gradientTransform="matrix(.33333 0 0 .33333 -69.333 -69.333)" xlink:href="#c" id="g" x1="161.772" y1="204" x2="161.772" y2="113" gradientUnits="userSpaceOnUse"/></defs><g color="#000"><path style="isolation:auto;mix-blend-mode:normal;marker:none" d="M32 16a16 16 0 0 1-16 16A16 16 0 0 1 0 16 16 16 0 0 1 16 0a16 16 0 0 1 16 16z" display="block" overflow="visible" fill-opacity=".058"/><path style="isolation:auto;mix-blend-mode:normal;marker:none" d="M-.667-16A15.333 15.333 0 0 1-16-.667 15.333 15.333 0 0 1-31.333-16 15.333 15.333 0 0 1-16-31.333 15.333 15.333 0 0 1-.667-16z" display="block" overflow="visible" fill="url(#e)" transform="translate(32 32)"/><path d="M-.667-16A15.333 15.333 0 0 1-16-.667 15.333 15.333 0 0 1-31.333-16 15.333 15.333 0 0 1-16-31.333 15.333 15.333 0 0 1-.667-16z" style="isolation:auto;mix-blend-mode:normal;marker:none" overflow="visible" fill="url(#f)" transform="translate(32 32)"/><path style="isolation:auto;mix-blend-mode:normal;marker:none" d="M2.46 9.131h27.083V12H2.46zM2 14h28v4H2zM2.46 20h27.083v3H2.46z" display="block" overflow="visible" fill="#fff" fill-opacity=".574" paint-order="fill markers stroke"/><path style="isolation:auto;mix-blend-mode:normal;marker:none" d="M30.029 16.374A14.029 14.029 0 0 1 16 30.402 14.029 14.029 0 0 1 1.971 16.374 14.029 14.029 0 0 1 16 2.345a14.029 14.029 0 0 1 14.029 14.029z" overflow="visible" fill="none" stroke="#050505" stroke-width=".56" stroke-linejoin="round" stroke-opacity=".458"/><path style="isolation:auto;mix-blend-mode:normal;marker:none" d="M-1.332-16A14.668 14.668 0 0 1-16-1.332 14.668 14.668 0 0 1-30.668-16 14.668 14.668 0 0 1-16-30.668 14.668 14.668 0 0 1-1.332-16z" overflow="visible" fill="none" stroke="url(#g)" stroke-width="1.33" stroke-linejoin="round" transform="translate(32 32)"/></g></svg>