<svg xmlns="http://www.w3.org/2000/svg" xmlns:xlink="http://www.w3.org/1999/xlink" height="32" viewBox="0 0 32 32" width="32"><title>Template icons dark</title><defs><linearGradient id="c"><stop offset="0" stop-color="#efefef" stop-opacity=".478"/><stop offset="1" stop-color="#efefef" stop-opacity="0"/></linearGradient><linearGradient id="b"><stop offset="0" stop-color="#ff053c"/><stop offset="1" stop-color="#0b31ff" stop-opacity=".974"/></linearGradient><linearGradient id="a"><stop offset="0" stop-color="#86dceb"/><stop offset="1" stop-color="#4bb7df"/></linearGradient><linearGradient gradientTransform="matrix(.34043 0 0 .34043 -70.468 -70.468)" xlink:href="#b" id="e" x1="122" y1="183" x2="196" y2="142" gradientUnits="userSpaceOnUse"/><linearGradient xlink:href="#a" id="d" x1="24.535" y1="7.996" x2="24.705" y2="38.25" gradientUnits="userSpaceOnUse" gradientTransform="matrix(.72548 0 0 .72548 -33.47 -34.542)"/></defs><g color="#000" transform="translate(32 32)"><circle style="isolation:auto;mix-blend-mode:normal;marker:none" cx="-16" cy="-16" r="16" display="block" overflow="visible" fill-opacity=".157"/><circle style="isolation:auto;mix-blend-mode:normal;marker:none" cx="-16" cy="-16" r="15.152" overflow="visible" fill="url(#d)" stroke="#fff" stroke-width=".844"/><circle r="15.152" cy="-16" cx="-16" style="isolation:auto;mix-blend-mode:normal;marker:none" overflow="visible" opacity=".109" fill="url(#e)" stroke="#fff" stroke-width=".844"/><circle style="isolation:auto;mix-blend-mode:normal;marker:none" cx="-16" cy="-16" r="2.389" overflow="visible" fill="#fff" paint-order="markers stroke fill"/><circle style="isolation:auto;mix-blend-mode:normal;marker:none" cx="-15.554" cy="-27.567" r="1.665" overflow="visible" fill="#fff" fill-opacity=".989" paint-order="markers stroke fill"/><circle style="isolation:auto;mix-blend-mode:normal;marker:none" cx="-26.282" cy="-11.152" r="1.665" overflow="visible" fill="#fff" fill-opacity=".989" paint-order="markers stroke fill"/><circle style="isolation:auto;mix-blend-mode:normal;marker:none" cx="-5.941" cy="-10.161" r="1.665" overflow="visible" fill="#fff" fill-opacity=".989" paint-order="markers stroke fill"/><path style="isolation:auto;mix-blend-mode:normal;marker:none" d="M-1.264-16.54A14.743 15.152 0 0 1-16-1.53 14.743 15.152 0 0 1-30.736-16.48a14.743 15.152 0 0 0-.007.14A14.743 15.152 0 0 0-16-1.188 14.743 15.152 0 0 0-1.257-16.34a14.743 15.152 0 0 0-.007-.2z" overflow="visible" fill-opacity=".297"/><path d="M-1.196-15.363A14.811 15.152 0 0 0-16-30.373a14.811 15.152 0 0 0-14.804 14.952 14.811 15.152 0 0 1-.007-.141A14.811 15.152 0 0 1-16-30.714 14.811 15.152 0 0 1-1.189-15.562a14.811 15.152 0 0 1-.007.2z" style="isolation:auto;mix-blend-mode:normal;marker:none" overflow="visible" fill="#242424" fill-opacity=".471"/><path style="isolation:auto;mix-blend-mode:normal;marker:none" d="M-7.11-9.435a11.441 5.76 26.792 0 1-11.174-1.29 11.441 5.76 26.792 0 1-8.09-8.16 11.441 5.76 26.792 0 1 5.56-4.372" overflow="visible" fill="none" stroke="#fff" stroke-width="1.034" stroke-linecap="round" stroke-miterlimit="3.7" stroke-opacity=".984" paint-order="markers stroke fill"/><path style="isolation:auto;mix-blend-mode:normal;marker:none" d="M-26.21-12.608a11.441 5.76-29.658 0 1 7.117-8.197 11.441 5.76-29.658 0 1 10.896-2.451 11.441 5.76-29.658 0 1 1.685 6.217" overflow="visible" fill="none" stroke="#fff" stroke-width="1.034" stroke-linecap="round" stroke-miterlimit="3.7" stroke-opacity=".984" paint-order="markers stroke fill"/><path style="isolation:auto;mix-blend-mode:normal;marker:none" d="M-14.063-26.906A5.76 11.441 1.017 0 1-10.16-16.24a5.76 11.441 1.017 0 1-3.946 11.013 5.76 11.441 1.017 0 1-6.42-3.638" overflow="visible" fill="none" stroke="#fff" stroke-width="1.034" stroke-linecap="round" stroke-miterlimit="3.7" stroke-opacity=".984" paint-order="markers stroke fill"/></g></svg>