<svg xmlns="http://www.w3.org/2000/svg" xmlns:xlink="http://www.w3.org/1999/xlink" height="32" viewBox="0 0 32 32" width="32" enable-background="new"><title>Template icons dark</title><defs><linearGradient id="a"><stop offset="0" stop-color="#9a9a9a" stop-opacity=".973"/><stop offset="1" stop-color="#f4f4f4"/></linearGradient><linearGradient id="b"><stop offset="0" stop-color="#f598f8"/><stop offset="1" stop-color="#398bef"/></linearGradient><linearGradient xlink:href="#b" id="d" gradientUnits="userSpaceOnUse" x1="23.375" y1="41.2" x2="23.375" y2="13.95" gradientTransform="matrix(.63281 0 0 .63281 -28.327 -36.362)"/><linearGradient gradientTransform="matrix(.63281 0 0 .63281 -31.188 -34.046)" xlink:href="#b" id="e" x1="23.375" y1="41.2" x2="23.375" y2="13.95" gradientUnits="userSpaceOnUse"/><filter id="c" x="-.021" width="1.042" y="-.028" height="1.055" color-interpolation-filters="sRGB"><feGaussianBlur stdDeviation=".423"/></filter></defs><g color="#000" transform="translate(32 32)"><rect style="isolation:auto;mix-blend-mode:normal;marker:none" width="44" height="30" x="-3.249" y="17.533" rx="0" ry="1.515" transform="scale(.63281) rotate(-9.77 -339.386 261.42)" overflow="visible" fill-opacity=".157" filter="url(#c)" enable-background="accumulate"/><rect transform="rotate(-9.77)" ry=".959" rx="0" y="-28.796" x="-26.833" height="18.984" width="27.844" style="isolation:auto;mix-blend-mode:normal;marker:none" overflow="visible" fill="#fff" stroke="#000" stroke-width=".328" stroke-opacity=".157" enable-background="accumulate"/><rect transform="rotate(-9.09)" style="isolation:auto;mix-blend-mode:normal;marker:none" width="26.578" height="17.719" x="-26.429" y="-28.009" ry="0" overflow="visible" fill="url(#d)" enable-background="accumulate"/><rect style="isolation:auto;mix-blend-mode:normal;marker:none" width="27.844" height="18.984" x="-29.922" y="-26.325" rx="0" ry=".959" overflow="visible" fill="#fff" stroke="#000" stroke-width=".328" stroke-opacity=".157" enable-background="accumulate"/><rect ry="0" y="-25.693" x="-29.289" height="17.719" width="26.578" style="isolation:auto;mix-blend-mode:normal;marker:none" overflow="visible" fill="url(#e)" enable-background="accumulate"/><path d="M-11.108-18.127l8.397 6.119v4.034l-23.068-.042z" style="isolation:auto;mix-blend-mode:normal;marker:none" overflow="visible" fill="#fff" enable-background="accumulate"/><path style="isolation:auto;mix-blend-mode:normal;marker:none" d="M-21.305-15.954l7.561 7.039 11.033.941h-26.578z" overflow="visible" fill="#fff" fill-opacity=".34" enable-background="accumulate"/><path style="isolation:auto;mix-blend-mode:normal;marker:none" d="M-18.616-25.19l.149.423-.451-.012.441.084-.235.384.291-.34.217.396-.149-.424.45.012-.44-.083.235-.384-.292.34zm5.04.297l.148.421-.45-.01.44.082-.235.386.292-.342.216.396-.149-.423.45.012-.44-.082.235-.386-.293.341zm4.949.592l.148.423-.45-.011.44.083-.235.384.293-.34.215.396-.148-.423.45.01-.44-.082.234-.384-.291.34zm2.726.089l.15.423-.45-.012.44.083-.236.385.293-.34.215.396-.149-.424.45.012-.44-.083.235-.384-.292.34zm-20.272.329l.422 1.2-1.28-.03 1.252.234-.668 1.092.83-.966.612 1.124-.424-1.202 1.28.032-1.25-.234.667-1.092-.83.966zm6.282.885l.15.424-.45-.01.44.081-.236.384.293-.34.215.396-.149-.423.45.012-.44-.083.235-.385-.292.34zm5.651.778l-3.03 2.862c-.972.587-.27.923.141.087l2.931-2.905zm.194 1.52l-3.03 2.863c-.874.872-.2.685.141.087l2.931-2.905z" display="block" overflow="visible" fill="#fff" fill-opacity=".335" enable-background="accumulate"/></g></svg>