<svg xmlns="http://www.w3.org/2000/svg" xmlns:xlink="http://www.w3.org/1999/xlink" height="32" viewBox="0 0 32 32" width="32"><title>Template icons dark</title><defs><linearGradient id="j"><stop offset="0" stop-color="#030303" stop-opacity=".151"/><stop offset="1" stop-color="#030303" stop-opacity=".161"/></linearGradient><linearGradient id="h"><stop offset="0" stop-color="#030303" stop-opacity=".203"/><stop offset="1" stop-color="#030303" stop-opacity=".161"/></linearGradient><linearGradient id="i"><stop offset="0" stop-opacity="0"/><stop offset="1" stop-opacity=".094"/></linearGradient><linearGradient id="g"><stop offset="0" stop-opacity="0"/><stop offset="1" stop-opacity=".052"/></linearGradient><linearGradient id="f"><stop offset="0" stop-color="#e6e6e6"/><stop offset="1" stop-color="#fff"/></linearGradient><linearGradient id="e"><stop offset="0" stop-color="#030303" stop-opacity=".135"/><stop offset=".402" stop-color="#030303" stop-opacity=".25"/><stop offset="1" stop-color="#030303" stop-opacity="0"/></linearGradient><linearGradient id="d"><stop offset="0" stop-opacity=".078"/><stop offset="1" stop-opacity="0"/></linearGradient><linearGradient id="c"><stop offset="0" stop-color="#fff"/><stop offset="1" stop-color="#e7e7e7"/></linearGradient><linearGradient id="b"><stop offset="0" stop-color="#030303" stop-opacity=".078"/><stop offset="1" stop-color="#030303" stop-opacity=".161"/></linearGradient><linearGradient id="a"><stop offset="0" stop-color="#030303" stop-opacity=".182"/><stop offset="1" stop-color="#030303" stop-opacity="0"/></linearGradient><linearGradient gradientTransform="matrix(.33 0 0 .33 -68.8 -68.465)" xlink:href="#f" id="k" x1="161" y1="187.457" x2="161" y2="165" gradientUnits="userSpaceOnUse"/><linearGradient gradientTransform="matrix(.33 0 0 .33 -68.8 -68.465)" xlink:href="#c" id="l" x1="160.063" y1="163" x2="160.063" y2="136" gradientUnits="userSpaceOnUse"/></defs><path style="isolation:auto;mix-blend-mode:normal;marker:none" d="M0 6h32v21H0z" color="#000" display="block" overflow="visible" fill-opacity=".115" paint-order="fill markers stroke"/><path style="isolation:auto;mix-blend-mode:normal;marker:none" d="M1 7h30v19H1z" color="#000" overflow="visible" fill="#f2f2f2" paint-order="fill markers stroke"/><path style="isolation:auto;mix-blend-mode:normal;marker:none" d="M1.48 25.575h29.04v-.668l-.66-1.642-12.536-8.247s-.921-.663-1.324-.663c-.452 0-1.317.658-1.317.658L2.14 23.265l-.66 1.65z" color="#000" overflow="visible" fill-opacity=".271" paint-order="fill markers stroke"/><path d="M-30.52-6.425h29.04l-.66-2.31-12.536-7.587s-.921-.663-1.324-.663c-.452 0-1.317.658-1.317.658L-29.86-8.735z" style="isolation:auto;mix-blend-mode:normal;marker:none" color="#000" display="block" overflow="visible" fill="url(#k)" paint-order="fill markers stroke" transform="translate(32 32)"/><path d="M1.48 7.425h29.04v.668l-.66 1.642-12.536 8.577s-.921.663-1.324.663c-.452 0-1.317-.658-1.317-.658L2.14 9.735l-.66-1.65z" style="isolation:auto;mix-blend-mode:normal;marker:none" color="#000" display="block" overflow="visible" fill-opacity=".266" paint-order="fill markers stroke"/><path style="isolation:auto;mix-blend-mode:normal;marker:none" d="M-30.52-24.575h29.04l-.66 2.31-12.536 7.587s-.921.663-1.324.663c-.452 0-1.317-.658-1.317-.658l-12.543-7.592z" color="#000" display="block" overflow="visible" fill="url(#l)" paint-order="fill markers stroke" transform="translate(32 32)"/><path d="M13.617 10.03a2.421 2.421 0 0 0-2.42 2.418 2.417 2.417 0 1 0 4.433 1.338v.254l2.02-.355.022-.35s-1.864.315-1.974.34c.085-.143.156-.295.21-.456.12-.028 1.945-.339 1.945-.339l.023-.35s-1.635.265-1.876.32c.022-.13.036-.264.036-.402 0-.068-.005-.135-.01-.202.16-.037 1.918-.333 1.918-.333l.021-.35s-1.91.326-1.992.345a2.401 2.401 0 0 0-.257-.658c.218-.05 1.873-.323 1.873-.323l.021-.35-2.041.355v.093a2.414 2.414 0 0 0-1.952-.996zm0 .224c1.213 0 2.194.98 2.194 2.194a2.193 2.193 0 0 1-2.194 2.195 2.193 2.193 0 0 1-2.195-2.195c0-1.213.981-2.194 2.195-2.194zm-.039.12a.215.215 0 1 0 0 .43.215.215 0 0 0 0-.43zm.039.562a1.513 1.513 0 1 0 .002 3.026 1.513 1.513 0 0 0-.002-3.026zm0 .14a1.371 1.371 0 1 1 0 2.745 1.371 1.371 0 0 1-1.372-1.373c0-.759.613-1.372 1.372-1.372zm.695.935a.349.349 0 0 0-.274.114.442.442 0 0 0-.101.306c0 .128.034.23.101.305a.35.35 0 0 0 .274.114.347.347 0 0 0 .271-.114.44.44 0 0 0 .102-.305.441.441 0 0 0-.102-.306.346.346 0 0 0-.271-.114zm-1.77.015v.808h.521v-.092h-.412v-.293h.386v-.092h-.386v-.24h.402v-.091zm.602 0l.309.808h.124l.308-.808h-.113l-.258.68-.255-.68zm1.168.074c.079 0 .142.03.188.088.047.06.07.14.07.243a.38.38 0 0 1-.07.241.226.226 0 0 1-.188.089.23.23 0 0 1-.19-.089.38.38 0 0 1-.07-.241c0-.102.023-.183.07-.243a.23.23 0 0 1 .19-.088zm1.211.17a.215.215 0 1 0 .001.43.215.215 0 0 0 0-.43zm-3.753.005a.215.215 0 1 0 0 .43.215.215 0 0 0 0-.43zm1.956 1.819a.215.215 0 1 0 0 .43.215.215 0 0 0 0-.43z" style="line-height:normal;font-variant-ligatures:normal;font-variant-position:normal;font-variant-caps:normal;font-variant-numeric:normal;font-variant-alternates:normal;font-feature-settings:normal;text-indent:0;text-align:start;text-decoration-line:none;text-decoration-style:solid;text-decoration-color:#000;text-transform:none;text-orientation:mixed;shape-padding:0;isolation:auto;mix-blend-mode:normal;marker:none" color="#000" font-weight="400" font-family="sans-serif" white-space="normal" overflow="visible" fill-opacity=".26" paint-order="fill markers stroke"/><path d="M6.114 6.997L1 7v2.764l.988-.694V7.96H5.43zm10.909 0L12.932 7l-.682.96h4.088zm10.909 0L23.84 7l-.682.96h4.088zm3.07.348l-.954 1.06-.003 3.777.958-.694zM1.989 15.636l-.985.691L1 20.473l.988-.694zM31.003 18.4l-.955.69-.003 4.146.958-.693zm-28.98 6.64L1.34 26h4.088l.685-.96zm10.909 0l-.682.96h4.088l.685-.96zm10.909 0l-.682.96h4.088l.685-.96z" fill="#5477b0" fill-rule="evenodd"/><path d="M11.568 6.997L7.478 7l-.683.96h4.089zm10.91 0L18.385 7l-.681.96h4.088zm8.522 0L29.295 7l-.681.96h1.702zM1.988 10.11l-.985.691L1 14.945l.988-.693zm29.015 2.764l-.955.69-.003 4.146.958-.693zm-29.015 8.29l-.985.692L1 26l.988-1.308zm29.015 2.764l-.955.691-.002.42-.75.003-.682.959H31zM7.477 25.041L6.795 26h4.091l.682-.96zm10.91 0l-.682.959h4.09l.682-.96z" fill="#b05457" fill-rule="evenodd"/></svg>