<svg xmlns="http://www.w3.org/2000/svg" xmlns:xlink="http://www.w3.org/1999/xlink" height="32" viewBox="0 0 32 32" width="32"><title>Template icons dark</title><defs><linearGradient id="d"><stop offset="0" stop-color="#fff" stop-opacity=".456"/><stop offset="1" stop-color="#fff" stop-opacity="0"/></linearGradient><linearGradient id="c"><stop offset="0" stop-color="#c7c7c7"/><stop offset="1" stop-color="#fff" stop-opacity=".989"/></linearGradient><linearGradient id="b"><stop offset="0" stop-color="#a61f23"/><stop offset="1" stop-color="#ff4955"/></linearGradient><linearGradient id="a"><stop offset="0" stop-color="#88c1df"/><stop offset="1" stop-color="#f0f5f8"/></linearGradient><linearGradient xlink:href="#b" id="h" gradientUnits="userSpaceOnUse" gradientTransform="matrix(.65626 0 0 .65626 -120.798 -121.097)" x1="165.921" y1="192" x2="159" y2="147.661"/><linearGradient xlink:href="#a" id="e" x1="170" y1="186" x2="170" y2="118" gradientUnits="userSpaceOnUse" gradientTransform="translate(-71.972 -72.529) scale(.34706)"/><radialGradient xlink:href="#d" id="g" gradientUnits="userSpaceOnUse" gradientTransform="matrix(.19592 0 0 .15165 -48.945 -42.296)" cx="105.669" cy="162.232" fx="105.669" fy="162.232" r="45.374"/><radialGradient xlink:href="#d" id="f" cx="191" cy="155.342" fx="191" fy="155.342" r="45.374" gradientTransform="matrix(.2603 0 0 .20149 -55.749 -50.381)" gradientUnits="userSpaceOnUse"/></defs><path d="M16.364.34a9.05 9.05 0 0 0-8.66 6.427 9.05 9.05 0 0 0-7.435 8.901 9.05 9.05 0 0 0 3.657 7.255 6.855 6.855 0 0 0 4.635 1.796h14.687c1.27 0 2.452-.346 3.471-.94a9.05 9.05 0 0 0 5.045-8.11 9.05 9.05 0 0 0-6.69-8.727A9.05 9.05 0 0 0 16.365.34z" style="isolation:auto;mix-blend-mode:normal;marker:none" color="#000" display="block" overflow="visible" fill="none" stroke="#000" stroke-width=".505" stroke-linecap="round" stroke-opacity=".066" paint-order="markers stroke fill"/><path style="isolation:auto;mix-blend-mode:normal;marker:none" d="M-15.636-32.007a9.05 9.05 0 0 0-8.66 6.427 9.05 9.05 0 0 0-7.435 8.901 9.05 9.05 0 0 0 3.657 7.255 6.855 6.855 0 0 0 4.635 1.796h14.687c1.27 0 2.452-.346 3.471-.94a9.05 9.05 0 0 0 5.045-8.11 9.05 9.05 0 0 0-6.69-8.727 9.05 9.05 0 0 0-8.71-6.602z" color="#000" overflow="visible" fill="url(#e)" paint-order="markers stroke fill" transform="translate(32 32)"/><path style="isolation:auto;mix-blend-mode:normal;marker:none" d="M.285 14.954a9.05 9.05 0 0 0-.016.367 9.05 9.05 0 0 0 3.657 7.255 6.855 6.855 0 0 0 4.635 1.796h14.687c1.27 0 2.452-.346 3.471-.94a9.05 9.05 0 0 0 5.045-8.11 9.05 9.05 0 0 0-.017-.33 9.05 9.05 0 0 1-5.028 7.746 6.863 6.863 0 0 1-3.471.94H8.56a6.855 6.855 0 0 1-4.635-1.796 9.05 9.05 0 0 1-3.64-6.928z" color="#000" overflow="visible" fill="#365a83" fill-opacity=".22" paint-order="markers stroke fill"/><path d="M-15.636-32.007a9.05 9.05 0 0 0-8.66 6.427 9.05 9.05 0 0 0-7.435 8.901 9.05 9.05 0 0 0 3.657 7.255 6.855 6.855 0 0 0 4.635 1.796h14.687c1.27 0 2.452-.346 3.471-.94a9.05 9.05 0 0 0 5.045-8.11 9.05 9.05 0 0 0-6.69-8.727 9.05 9.05 0 0 0-8.71-6.602z" style="isolation:auto;mix-blend-mode:normal;marker:none" color="#000" overflow="visible" fill="url(#f)" paint-order="markers stroke fill" transform="translate(32 32)"/><path style="isolation:auto;mix-blend-mode:normal;marker:none" d="M-15.636-32.007a9.05 9.05 0 0 0-8.66 6.427 9.05 9.05 0 0 0-7.435 8.901 9.05 9.05 0 0 0 3.657 7.255 6.855 6.855 0 0 0 4.635 1.796h14.687c1.27 0 2.452-.346 3.471-.94a9.05 9.05 0 0 0 5.045-8.11 9.05 9.05 0 0 0-6.69-8.727 9.05 9.05 0 0 0-8.71-6.602z" color="#000" overflow="visible" fill="url(#g)" paint-order="markers stroke fill" transform="translate(32 32)"/><path d="M16.324 6.347c-.549 0-1.11.248-1.523.744L5.393 19.57c-.345.705-.072 1.411.914 1.411h6.86l2.257 9.197c.032.867.352 1.57.789 1.57.437 0 .757-.703.789-1.57l2.257-9.197h6.908c.981 0 .98-1.335.728-1.669L17.778 7.093a1.795 1.795 0 0 0-1.454-.746z" style="isolation:auto;mix-blend-mode:normal;marker:none" color="#000" overflow="visible" fill-opacity=".176" paint-order="markers stroke fill"/><path style="isolation:auto;mix-blend-mode:normal;marker:none" d="M-15.676-27.064c-.549 0-1.11.248-1.523.744l-9.408 12.479c-.345.705-.072 1.411.914 1.411h6.86l2.257 9.197c.032.867.352 1.57.789 1.57.437 0 .757-.703.789-1.57l2.257-9.197h6.908c.981 0 .98-1.335.728-1.669l-9.117-12.219a1.795 1.795 0 0 0-1.454-.746z" color="#000" overflow="visible" fill="url(#h)" paint-order="markers stroke fill" transform="translate(32 32)"/><path style="isolation:auto;mix-blend-mode:normal;marker:none" d="M27.013 18.243c-.062.427-.297.846-.847.846H19.26l-2.257 9.196c-.032.867-.352 1.57-.79 1.57-.436 0-.756-.703-.788-1.57l-2.257-9.196h-6.86c-.595 0-.926-.259-1.023-.617-.134.586.184 1.099 1.023 1.099h6.86l2.257 9.195c.032.868.352 1.57.789 1.57.437 0 .757-.702.789-1.57l2.257-9.195h6.907c.768 0 .932-.812.847-1.328z" color="#000" overflow="visible" fill="#5d0a0a" fill-opacity=".434" paint-order="markers stroke fill"/><path style="isolation:auto;mix-blend-mode:normal;marker:none" d="M16.324 4.937c-.549 0-1.11.248-1.522.743L5.394 18.16c-.142.288-.173.574-.1.815.023-.088.056-.176.1-.265l9.408-12.479c.413-.495.973-.744 1.522-.743.55 0 1.086.249 1.454.745l9.116 12.219a.796.796 0 0 1 .113.314c.06-.349.003-.712-.113-.865L17.778 5.682a1.794 1.794 0 0 0-1.454-.745z" color="#000" overflow="visible" fill="red" fill-opacity=".363" paint-order="markers stroke fill"/><path d="M21.215 12.49H14.33l.359-1.68h4.196L19.27 9H13.24l-1.9 8.956h1.823l.834-3.913h4.37l-3.797 3.759.667 1.18c.308-.205.808-.23 1.155-.23.616 0 1.219.205 1.847.205.576 0 1.167-.039 2.129-.5l.336-1.579c-.654.27-1.623.526-2.465.526-.346 0-.667-.077-1-.128l3.68-3.58.296-1.206z" fill-opacity=".286"/><path d="M21.215 11.965H14.33l.359-1.68h4.196l.385-1.81H13.24l-1.9 8.956h1.823l.834-3.913h4.37l-3.797 3.76.667 1.18c.308-.206.808-.231 1.155-.231.616 0 1.219.205 1.847.205.576 0 1.167-.039 2.129-.5l.336-1.579c-.654.27-1.623.526-2.465.526-.346 0-.667-.077-1-.128l3.68-3.58.296-1.206z" fill="#fff"/></svg>