<svg xmlns="http://www.w3.org/2000/svg" xmlns:xlink="http://www.w3.org/1999/xlink" height="32" viewBox="0 0 32 32" width="32"><title>Template icons dark</title><defs><linearGradient id="c"><stop offset="0" stop-color="#fff" stop-opacity=".172"/><stop offset="1" stop-opacity="0"/></linearGradient><linearGradient id="b"><stop offset="0" stop-color="#730216" stop-opacity=".781"/><stop offset="1" stop-color="#d9042a" stop-opacity=".027"/></linearGradient><linearGradient id="a"><stop offset="0" stop-color="#d40e0e"/><stop offset="1" stop-color="#910404" stop-opacity=".965"/></linearGradient><linearGradient gradientTransform="translate(-74.909 -74.908) scale(.36363)" xlink:href="#c" id="f" x1="160" y1="197.921" x2="160" y2="120" gradientUnits="userSpaceOnUse"/><linearGradient xlink:href="#b" id="e" gradientUnits="userSpaceOnUse" x1="198.319" y1="122.536" x2="175.155" y2="144.161" gradientTransform="translate(-74.908 -41.454) scale(.36363)"/><linearGradient gradientTransform="translate(-74.909 -74.908) scale(.36363)" xlink:href="#a" id="d" x1="160.855" y1="121.51" x2="160.855" y2="200.855" gradientUnits="userSpaceOnUse"/></defs><path style="isolation:auto;mix-blend-mode:normal;marker:none" color="#000" display="block" overflow="visible" fill-opacity=".078" paint-order="fill markers stroke" d="M0 0h30.181v30.545H0z"/><path style="isolation:auto;mix-blend-mode:normal;marker:none" color="#000" display="block" overflow="visible" fill-opacity=".078" paint-order="fill markers stroke" d="M.364.364h29.818v29.818H.364z"/><path style="isolation:auto;mix-blend-mode:normal;marker:none" color="#000" overflow="visible" fill="url(#d)" paint-order="fill markers stroke" d="M-31.273-31.272h29.091v29.091h-29.091z" transform="translate(32 32)"/><path style="isolation:auto;mix-blend-mode:normal;marker:none" transform="rotate(90 0 32)" color="#000" display="block" overflow="visible" fill="url(#e)" paint-order="fill markers stroke" d="M-31.272 2.182h29.091v29.091h-29.091z"/><path d="M10.182 18.91v2.545c1.955.163 4.422-.586 5.818-4.728h2.909v-2.545H17.09c.854-1.055 2.05-1.926 3.272-2.182V9.455c-4.442.443-5.01 2.966-6.181 5.09-1.608 2.982-2.566 3.564-4 4.364z" fill-opacity=".151" fill-rule="evenodd"/><path d="M10.182 18.546v2.545c1.955.163 4.422-.586 5.818-4.727h2.909v-2.546H17.09c.854-1.054 2.05-1.925 3.272-2.181V9.09c-4.442.443-5.01 2.966-6.181 5.091-1.608 2.981-2.566 3.564-4 4.364z" fill="#fefefe" fill-rule="evenodd"/><path style="line-height:1000%;-inkscape-font-specification:'sans-serif Bold'" d="M15.273 20.364v.163h.278v.676h.217v-.676h.278v-.163zm.884 0v.839h.205v-.614l.194.453h.137l.193-.453v.614h.205v-.84h-.275l-.192.45-.192-.45z" font-weight="700" font-family="sans-serif" letter-spacing="0" word-spacing="0" fill="#fff"/><path style="line-height:normal;font-variant-ligatures:normal;font-variant-position:normal;font-variant-caps:normal;font-variant-numeric:normal;font-variant-alternates:normal;font-feature-settings:normal;text-indent:0;text-align:start;text-decoration-line:none;text-decoration-style:solid;text-decoration-color:#000;text-transform:none;text-orientation:mixed;shape-padding:0;isolation:auto;mix-blend-mode:normal;marker:none" d="M-2.182-31.272h-29.09v29.09h29.09zm-.364.363v28.364h-28.363V-30.91z" color="#000" font-weight="400" font-family="sans-serif" white-space="normal" overflow="visible" fill="url(#f)" paint-order="fill markers stroke" transform="translate(32 32)"/><path d="M28.6 27.444c0-.836-.683-1.518-1.52-1.518-.835 0-1.518.682-1.518 1.518 0 .837.683 1.519 1.519 1.519.836 0 1.518-.682 1.518-1.519zm3.036-.646v1.317c0 .088-.071.196-.166.213l-1.098.166c-.065.19-.136.368-.23.54.2.29.414.552.634.819.035.04.059.094.059.148a.197.197 0 0 1-.054.136c-.142.19-.942 1.062-1.144 1.062a.303.303 0 0 1-.155-.054l-.818-.64a3.59 3.59 0 0 1-.54.226c-.041.361-.077.747-.172 1.103a.218.218 0 0 1-.213.166h-1.317c-.107 0-.201-.077-.213-.178l-.166-1.091a3.487 3.487 0 0 1-.534-.22l-.836.635a.214.214 0 0 1-.297-.012c-.315-.285-.73-.652-.979-.996a.23.23 0 0 1 .006-.273c.202-.273.421-.534.623-.813a3.159 3.159 0 0 1-.243-.587l-1.085-.16a.216.216 0 0 1-.172-.214v-1.316c0-.09.07-.196.16-.214l1.103-.166c.059-.19.136-.368.231-.546a14.29 14.29 0 0 0-.635-.818.217.217 0 0 1-.059-.142.23.23 0 0 1 .054-.137c.142-.196.943-1.061 1.145-1.061.053 0 .106.024.154.059l.818.634a3.59 3.59 0 0 1 .54-.225c.041-.362.077-.747.172-1.103a.218.218 0 0 1 .213-.166h1.317c.107 0 .202.077.213.178l.167 1.091c.183.06.361.13.533.22l.843-.635a.202.202 0 0 1 .142-.054c.054 0 .107.024.148.06.315.29.73.658.98 1.008.029.035.04.083.04.13a.224.224 0 0 1-.047.137c-.202.272-.421.533-.623.812.101.19.184.386.243.581l1.086.167a.216.216 0 0 1 .172.213z" fill-opacity=".271"/><path d="M28.255 27.1c0-.836-.682-1.518-1.518-1.518s-1.519.682-1.519 1.518c0 .837.683 1.519 1.519 1.519.836 0 1.518-.682 1.518-1.519zm3.037-.646v1.317c0 .088-.071.196-.166.213l-1.098.166c-.065.19-.136.368-.23.54.2.29.414.552.634.819.035.04.059.094.059.148a.197.197 0 0 1-.054.136c-.142.19-.942 1.062-1.144 1.062a.303.303 0 0 1-.154-.054l-.819-.64a3.59 3.59 0 0 1-.54.226c-.041.361-.077.747-.172 1.103a.218.218 0 0 1-.213.166h-1.317c-.107 0-.201-.077-.213-.178l-.166-1.091a3.487 3.487 0 0 1-.534-.22l-.836.635a.214.214 0 0 1-.297-.012c-.315-.285-.73-.652-.979-.996a.23.23 0 0 1 .006-.273c.202-.273.421-.534.623-.813a3.16 3.16 0 0 1-.243-.587l-1.085-.16a.216.216 0 0 1-.172-.214v-1.316c0-.09.07-.196.16-.214l1.103-.166c.059-.19.136-.368.231-.546a14.295 14.295 0 0 0-.635-.818.217.217 0 0 1-.059-.142.23.23 0 0 1 .054-.137c.142-.196.943-1.061 1.145-1.061.053 0 .106.024.154.059l.818.634c.172-.088.356-.166.54-.225.041-.362.077-.747.172-1.103a.218.218 0 0 1 .213-.166h1.317c.107 0 .202.077.213.178l.167 1.091c.183.06.361.13.533.22l.843-.635a.202.202 0 0 1 .142-.054c.054 0 .107.024.148.06.315.29.73.658.98 1.008.029.035.04.083.04.13a.224.224 0 0 1-.047.137c-.202.272-.421.533-.623.812.101.19.184.386.243.581l1.086.167a.216.216 0 0 1 .172.213z" fill="#fbfbfb"/></svg>