<svg xmlns="http://www.w3.org/2000/svg" xmlns:xlink="http://www.w3.org/1999/xlink" height="32" viewBox="0 0 32 32" width="32"><title>Template icons dark</title><defs><linearGradient id="j"><stop offset="0" stop-color="#fff" stop-opacity=".194"/><stop offset=".043" stop-color="#fff" stop-opacity=".183"/><stop offset=".11" stop-color="#fff" stop-opacity=".262"/><stop offset=".139" stop-color="#fff" stop-opacity=".12"/><stop offset=".473" stop-color="#fff" stop-opacity=".136"/><stop offset=".517" stop-color="#fff" stop-opacity=".288"/><stop offset=".553" stop-color="#fff" stop-opacity=".173"/><stop offset="1" stop-color="#fff" stop-opacity=".11"/></linearGradient><linearGradient id="f"><stop offset="0" stop-opacity=".529"/><stop offset="1" stop-color="#6a062f" stop-opacity="0"/></linearGradient><linearGradient id="h"><stop offset="0" stop-opacity=".56"/><stop offset="1" stop-color="#6a062f" stop-opacity="0"/></linearGradient><linearGradient id="i"><stop offset="0" stop-opacity=".529"/><stop offset="1" stop-color="#6a062f" stop-opacity="0"/></linearGradient><linearGradient id="g"><stop offset="0" stop-opacity=".445"/><stop offset="1" stop-color="#6a062f" stop-opacity="0"/></linearGradient><linearGradient id="b"><stop offset="0" stop-color="#cfdde2"/><stop offset="1" stop-color="#90a1b1"/></linearGradient><linearGradient id="c"><stop offset="0" stop-color="#eaf2f7"/><stop offset="1" stop-color="#99b4c0"/></linearGradient><linearGradient id="d"><stop offset="0" stop-color="#f95e86"/><stop offset="1" stop-color="#613ef5"/></linearGradient><linearGradient id="a"><stop offset="0" stop-color="#7a0b1c"/><stop offset="1" stop-color="#e82895"/></linearGradient><linearGradient id="e"><stop offset="0" stop-color="#fff" stop-opacity="0"/><stop offset=".48" stop-color="#fff"/><stop offset="1" stop-color="#f5f6f6" stop-opacity="0"/></linearGradient><linearGradient xlink:href="#b" id="k" gradientUnits="userSpaceOnUse" gradientTransform="matrix(.6891 0 0 .6891 63.744 60.744)" x1="161.702" y1="118.898" x2="161.702" y2="197.932"/><linearGradient xlink:href="#c" id="l" gradientUnits="userSpaceOnUse" gradientTransform="matrix(.6891 0 0 .6891 63.744 60.744)" x1="168.352" y1="125.665" x2="168.352" y2="190.817"/><linearGradient xlink:href="#d" id="m" gradientUnits="userSpaceOnUse" gradientTransform="matrix(.66493 0 0 .66493 62.281 57.154)" x1="10.43" y1="43.068" x2="38.891" y2="13.193"/><linearGradient xlink:href="#d" id="n" gradientUnits="userSpaceOnUse" gradientTransform="matrix(.64773 0 0 .64773 70.418 67.605)" x1="142.933" y1="141.101" x2="170.722" y2="184.329"/><linearGradient xlink:href="#a" id="o" gradientUnits="userSpaceOnUse" x1="140.465" y1="191" x2="133.606" y2="140"/></defs><g color="#000"><path d="M18.132 8.877c-.173 0-.27.138-.314.297l-.666 2.452c-.455.162-1.053.389-1.456.6l-2.206-1.27c-.143-.082-.309-.11-.432.012l-1.794 1.795c-.123.122-.094.286-.012.43l1.24 2.167a7.875 7.875 0 0 0-.646 1.508l-2.396.646c-.159.043-.296.14-.296.314v2.538c0 .173.137.269.296.312l2.344.638c.157.552.374 1.086.647 1.591l-1.209 2.101c-.082.143-.11.309.013.432l1.794 1.794c.123.123.287.094.43.012l2.073-1.187c.515.286 1.06.514 1.626.678l.622 2.31c.043.16.14.297.314.297h2.538c.174 0 .269-.138.312-.297l.63-2.311a7.874 7.874 0 0 0 1.605-.676l2.096 1.205c.142.083.308.11.431-.012l1.794-1.794c.123-.123.094-.289.013-.432l-1.216-2.12a7.874 7.874 0 0 0 .628-1.556l2.389-.645c.159-.043.296-.139.296-.312v-2.538c0-.174-.137-.27-.296-.314l-2.43-.66a7.874 7.874 0 0 0-.618-1.47l1.266-2.199c.082-.143.11-.308-.012-.431l-1.795-1.794c-.122-.123-.288-.095-.431-.013l-2.205 1.263c-.486-.2-.994-.446-1.448-.593l-.669-2.471c-.043-.16-.138-.296-.312-.296h-2.538zm1.257 6.5a3.743 3.743 0 1 1 0 7.487 3.743 3.743 0 0 1 0-7.487z" style="isolation:auto;mix-blend-mode:normal;marker:none" overflow="visible" fill="none" stroke="#000" stroke-width=".65373" stroke-opacity=".168" paint-order="fill markers stroke"/><path style="isolation:auto;mix-blend-mode:normal;marker:none" d="M170.197 139.99c-.526 0-.82.417-.951.899l-2.02 7.43c-1.379.492-3.19 1.18-4.411 1.818l-6.686-3.848c-.433-.249-.935-.335-1.308.038l-5.437 5.437c-.372.372-.285.868-.037 1.302l3.758 6.569a23.863 23.863 0 0 0-1.956 4.57l-7.26 1.956c-.482.13-.898.425-.898.952v7.69c0 .526.416.815.898.946l7.1 1.935a23.862 23.862 0 0 0 1.962 4.82l-3.662 6.367c-.25.433-.335.936.037 1.308l5.437 5.437c.372.372.869.285 1.302.037l6.282-3.598a23.861 23.861 0 0 0 4.927 2.057l1.887 7c.13.481.425.897.951.897h7.69c.527 0 .816-.416.947-.898l1.908-7.005a23.862 23.862 0 0 0 4.863-2.046l6.351 3.651c.433.25.935.335 1.308-.037l5.437-5.437c.372-.372.285-.874.037-1.307l-3.683-6.426c.8-1.5 1.438-3.08 1.903-4.714l7.238-1.956c.483-.13.899-.42.899-.946v-7.69c0-.527-.417-.82-.899-.952l-7.36-1.998a23.862 23.862 0 0 0-1.877-4.454l3.837-6.665c.25-.432.335-.935-.037-1.307l-5.437-5.437c-.372-.372-.874-.285-1.307-.037l-6.681 3.826c-1.473-.604-3.014-1.35-4.39-1.796l-2.025-7.489c-.13-.482-.42-.898-.946-.898h-7.69zm3.808 19.698c6.264 0 11.343 5.078 11.343 11.343 0 6.264-5.079 11.343-11.343 11.343-6.265 0-11.344-5.079-11.344-11.343 0-6.265 5.079-11.343 11.344-11.343z" overflow="visible" fill="url(#k)" paint-order="fill markers stroke" transform="matrix(.33 0 0 .33 -38.033 -37.32)"/><path style="line-height:normal;text-indent:0;text-align:start;text-decoration-line:none;text-decoration-style:solid;text-decoration-color:#000;text-transform:none;isolation:auto;mix-blend-mode:normal;marker:none" d="M19.389 11.035c-4.444 0-8.077 3.63-8.077 8.074s3.633 8.077 8.077 8.077c4.443 0 8.074-3.633 8.074-8.077 0-4.443-3.63-8.074-8.074-8.074zm0 1.713a6.332 6.332 0 0 1 6.36 6.36 6.335 6.335 0 0 1-6.36 6.365 6.338 6.338 0 0 1-6.364-6.364 6.335 6.335 0 0 1 6.364-6.36z" font-weight="400" font-family="sans-serif" white-space="normal" overflow="visible" fill-opacity=".173" paint-order="fill markers stroke"/><path d="M174.004 147.27c-13.058 0-23.735 10.668-23.735 23.726s10.677 23.735 23.735 23.735 23.727-10.677 23.727-23.735-10.669-23.727-23.727-23.727zm0 5.033a18.607 18.607 0 0 1 18.692 18.692c0 10.39-8.302 18.702-18.691 18.702a18.624 18.624 0 0 1-18.702-18.702c0-10.39 8.312-18.692 18.702-18.692z" style="line-height:normal;text-indent:0;text-align:start;text-decoration-line:none;text-decoration-style:solid;text-decoration-color:#000;text-transform:none;isolation:auto;mix-blend-mode:normal;marker:none" font-weight="400" font-family="sans-serif" white-space="normal" overflow="visible" fill="url(#l)" paint-order="fill markers stroke" transform="matrix(.33 0 0 .33 -38.033 -37.32)"/><path d="M174.003 152.297c-10.29 0-18.706 8.409-18.706 18.7 0 10.29 8.415 18.706 18.706 18.706s18.7-8.415 18.7-18.706-8.409-18.7-18.7-18.7zm.001 4.72a13.95 13.95 0 0 1 14.014 14.014c0 7.79-6.224 14.021-14.014 14.021a13.964 13.964 0 0 1-14.021-14.021c0-7.79 6.232-14.014 14.021-14.014z" style="line-height:normal;text-indent:0;text-align:start;text-decoration-line:none;text-decoration-style:solid;text-decoration-color:#000;text-transform:none;isolation:auto;mix-blend-mode:normal;marker:none" font-weight="400" font-family="sans-serif" white-space="normal" overflow="visible" fill="url(#m)" paint-order="fill markers stroke" transform="matrix(.33 0 0 .33 -38.033 -37.32)"/><path style="line-height:normal;text-indent:0;text-align:start;text-decoration-line:none;text-decoration-style:solid;text-decoration-color:#000;text-transform:none;isolation:auto;mix-blend-mode:normal;marker:none" d="M174.003 152.297c-10.29 0-18.706 8.409-18.706 18.7 0 10.29 8.415 18.706 18.706 18.706s18.7-8.415 18.7-18.706-8.409-18.7-18.7-18.7zm0 10.367a8.33 8.33 0 0 1 8.368 8.368 8.334 8.334 0 0 1-8.368 8.373 8.338 8.338 0 0 1-8.373-8.373 8.334 8.334 0 0 1 8.373-8.368z" font-weight="400" font-family="sans-serif" white-space="normal" overflow="visible" fill="url(#n)" paint-order="fill markers stroke" transform="matrix(.33 0 0 .33 -38.033 -37.32)"/><path style="line-height:normal;text-indent:0;text-align:start;text-decoration-line:none;text-decoration-style:solid;text-decoration-color:#000;text-transform:none;isolation:auto;mix-blend-mode:normal;marker:none" d="M19.388 12.939c-3.396 0-6.173 2.775-6.173 6.17 0 .039.002.076.003.114.061-3.344 2.812-6.057 6.17-6.057s6.107 2.713 6.168 6.057c0-.038.003-.075.003-.113 0-3.396-2.775-6.171-6.171-6.171z" font-weight="400" font-family="sans-serif" white-space="normal" overflow="visible" fill-opacity=".283" paint-order="fill markers stroke"/><path style="isolation:auto;mix-blend-mode:normal;marker:none" d="M18.132 8.877c-.173 0-.27.138-.314.297l-.666 2.452c-.455.162-1.053.389-1.456.6l-2.206-1.27c-.143-.082-.31-.11-.432.013l-1.794 1.793c-.092.093-.099.208-.062.32a.28.28 0 0 1 .062-.092l1.794-1.794c.123-.123.289-.095.432-.013l2.206 1.27c.403-.21 1-.437 1.456-.6l.666-2.452c.044-.159.14-.296.314-.296h2.538c.174 0 .27.137.312.297l.668 2.47c.454.148.963.394 1.45.593l2.204-1.262c.143-.082.308-.11.431.012l1.795 1.794a.28.28 0 0 1 .062.094c.037-.113.03-.229-.062-.321l-1.795-1.794c-.123-.123-.288-.095-.431-.013l-2.205 1.263c-.486-.2-.995-.446-1.449-.593l-.668-2.47c-.042-.16-.138-.298-.312-.298zM12.43 15.48a7.873 7.873 0 0 0-.584 1.39l-2.396.645c-.159.043-.296.14-.296.314v.227c0-.173.137-.27.296-.314l2.396-.645c.162-.524.379-1.03.646-1.508zm13.907.054l-.062.107c.256.468.463.96.62 1.47l2.429.66c.159.043.296.14.296.313v-.227c0-.174-.137-.27-.296-.314l-2.43-.66a7.872 7.872 0 0 0-.557-1.35zm-13.958 7.48l-1.147 1.995c-.063.11-.093.232-.05.338a.592.592 0 0 1 .05-.11l1.209-2.101c-.022-.04-.04-.082-.062-.122zm13.989 0l-.061.122 1.216 2.12a.6.6 0 0 1 .05.11c.043-.106.012-.228-.05-.338z" overflow="visible" fill="#fff" fill-opacity=".675" paint-order="fill markers stroke"/><path style="line-height:normal;text-indent:0;text-align:start;text-decoration-line:none;text-decoration-style:solid;text-decoration-color:#000;text-transform:none;isolation:auto;mix-blend-mode:normal;marker:none" d="M19.388 16.265c-1.81 0-3.29 1.479-3.29 3.29a3.3 3.3 0 0 0 3.29 3.29c1.81 0 3.29-1.48 3.29-3.29 0-1.811-1.48-3.29-3.29-3.29zm0 .68a2.305 2.305 0 0 1 2.316 2.317 2.307 2.307 0 0 1-2.316 2.317 2.308 2.308 0 0 1-2.317-2.317 2.307 2.307 0 0 1 2.317-2.316z" font-weight="400" font-family="sans-serif" white-space="normal" overflow="visible" fill-opacity=".168" paint-order="fill markers stroke"/><path d="M19.401 15.48a3.664 3.664 0 0 0-3.655 3.655 3.665 3.665 0 0 0 3.655 3.655 3.664 3.664 0 0 0 3.654-3.655 3.663 3.663 0 0 0-3.654-3.654zm0 .83a2.802 2.802 0 0 1 2.815 2.814 2.803 2.803 0 0 1-2.814 2.815 2.804 2.804 0 0 1-2.816-2.815 2.803 2.803 0 0 1 2.816-2.815z" style="line-height:normal;text-indent:0;text-align:start;text-decoration-line:none;text-decoration-style:solid;text-decoration-color:#000;text-transform:none;isolation:auto;mix-blend-mode:normal;marker:none" font-weight="400" font-family="sans-serif" white-space="normal" overflow="visible" fill="#b1c7d0" paint-order="fill markers stroke"/><g><path d="M2.557 2.61v26.07h5.288l-.008-10.89h5.61v-5.28h-5.61V7.89h9.24V2.61z" style="isolation:auto;mix-blend-mode:normal;marker:none" overflow="visible" fill="none" stroke="#000" stroke-width=".66" stroke-linecap="square" stroke-linejoin="bevel" stroke-opacity=".267" paint-order="markers fill stroke"/><path style="isolation:auto;mix-blend-mode:normal;marker:none" d="M124 120v79h16.024L140 166h17v-16h-17v-14h28v-16z" overflow="visible" fill="url(#o)" fill-rule="evenodd" paint-order="markers fill stroke" transform="matrix(.33 0 0 .33 -38.033 -37.32)"/><path d="M8.175 28.35l-.008-10.89h5.61v-5.28h-5.61V7.56h9.24V2.28H2.887v.33h14.52v4.95h-9.24v4.95h5.61v4.95h-5.61v10.898l-5.28-.007z" style="line-height:normal;font-variant-ligatures:normal;font-variant-position:normal;font-variant-caps:normal;font-variant-numeric:normal;font-variant-alternates:normal;font-feature-settings:normal;text-indent:0;text-align:start;text-decoration-line:none;text-decoration-style:solid;text-decoration-color:#000;text-transform:none;text-orientation:mixed;shape-padding:0;isolation:auto;mix-blend-mode:normal;marker:none" font-weight="400" font-family="sans-serif" white-space="normal" overflow="visible" fill="#fff" fill-opacity=".419" fill-rule="evenodd" paint-order="markers fill stroke"/></g></g></svg>