<svg xmlns="http://www.w3.org/2000/svg" xmlns:xlink="http://www.w3.org/1999/xlink" height="32" viewBox="0 0 32 32" width="32"><title>Template icons dark</title><defs><linearGradient id="a"><stop offset="0" stop-color="#4b587a"/><stop offset="1" stop-color="#7a6982"/></linearGradient><linearGradient id="c"><stop offset="0" stop-color="#3e4453"/><stop offset="1" stop-color="#222630"/></linearGradient><linearGradient id="b"><stop offset="0" stop-color="#d4a8cf"/><stop offset="1" stop-color="#80c4e1" stop-opacity=".99"/></linearGradient><linearGradient id="d"><stop offset="0" stop-color="#9a9a9a" stop-opacity=".973"/><stop offset="1" stop-color="#f4f4f4"/></linearGradient><linearGradient xlink:href="#b" id="e" x1="4.995" y1="6.196" x2="40.265" y2="45.14" gradientUnits="userSpaceOnUse" gradientTransform="matrix(.72296 0 0 .72314 -31.48 -34.314)"/><linearGradient xlink:href="#c" id="f" gradientUnits="userSpaceOnUse" gradientTransform="matrix(.64625 0 0 .71463 2.65 -8.84)" x1="-26.746" y1="-29.715" x2="-26.746" y2="10.031"/><linearGradient xlink:href="#d" id="g" gradientUnits="userSpaceOnUse" gradientTransform="matrix(1.19079 0 0 1.19079 -40.616 -26.845)" x1="20.942" y1="20.603" x2="20.942" y2="-3.389"/><linearGradient xlink:href="#a" id="h" gradientUnits="userSpaceOnUse" gradientTransform="matrix(.92153 0 0 .92153 14.613 13.752)" x1="191.407" y1="201.023" x2="181.641" y2="174.894"/></defs><g color="#000"><path style="isolation:auto;mix-blend-mode:normal;marker:none" d="M3 1h26v30H3.087z" display="block" overflow="visible" fill-opacity=".088"/><path d="M-28-30v28h24v-28zm1 1h22v26h-22.024z" style="line-height:normal;font-variant-ligatures:normal;font-variant-position:normal;font-variant-caps:normal;font-variant-numeric:normal;font-variant-alternates:normal;font-feature-settings:normal;text-indent:0;text-align:start;text-decoration-line:none;text-decoration-style:solid;text-decoration-color:#000;text-transform:none;text-orientation:mixed;shape-padding:0;isolation:auto;mix-blend-mode:normal;marker:none" font-weight="400" font-family="sans-serif" white-space="normal" overflow="visible" fill="url(#e)" fill-opacity=".52" transform="translate(32 32)"/><path d="M-27-29h22v26h-22.024z" style="isolation:auto;mix-blend-mode:normal;marker:none" display="block" overflow="visible" fill="url(#f)" transform="translate(32 32)"/><path style="isolation:auto;mix-blend-mode:normal;marker:none" d="M16 32L3 24V7l13-7 13 7v17z" overflow="visible" fill-opacity=".253"/><path style="isolation:auto;mix-blend-mode:normal;marker:none" d="M-16-1l-13-8v-15l13-7 13 7v15z" overflow="visible" fill="url(#g)" transform="translate(32 32)"/><path style="isolation:auto;mix-blend-mode:normal;marker:none" d="M16 1L3 8v1l13-7 13 7V8z" display="block" overflow="visible" fill="#fff"/><g opacity=".8"><path style="isolation:auto;mix-blend-mode:normal;marker:none" display="block" overflow="visible" fill="#869eb6" d="M11 8h3v2h-3z"/><path style="isolation:auto;mix-blend-mode:normal;marker:none" display="block" overflow="visible" fill="#8e9f81" d="M15 8h3v2h-3z"/><path style="isolation:auto;mix-blend-mode:normal;marker:none" display="block" overflow="visible" fill="#987f95" d="M11 11h3v2h-3z"/><path style="isolation:auto;mix-blend-mode:normal;marker:none" display="block" overflow="visible" fill="#9d875f" d="M15 11h4v2h-4z"/><path style="isolation:auto;mix-blend-mode:normal;marker:none" display="block" overflow="visible" fill="#987f95" d="M11 17h3v2h-3z"/><path style="isolation:auto;mix-blend-mode:normal;marker:none" display="block" overflow="visible" fill="#68798d" d="M15 17h4v2h-4z"/><path style="isolation:auto;mix-blend-mode:normal;marker:none" display="block" overflow="visible" fill="#b36b75" d="M11 20h3v2h-3z"/><path style="isolation:auto;mix-blend-mode:normal;marker:none" display="block" overflow="visible" fill="#b47f70" d="M15 20h2v2h-2z"/><path style="isolation:auto;mix-blend-mode:normal;marker:none" display="block" overflow="visible" fill="#a66f71" d="M11 23h4v2h-4z"/><path style="isolation:auto;mix-blend-mode:normal;marker:none" display="block" overflow="visible" fill="#59758c" d="M16 23h3v2h-3z"/><path style="isolation:auto;mix-blend-mode:normal;marker:none" display="block" overflow="visible" fill="#5e6974" d="M18 20h2v2h-2z"/><path style="isolation:auto;mix-blend-mode:normal;marker:none" display="block" overflow="visible" fill="#4d854d" d="M20 17h4v2h-4z"/><path style="isolation:auto;mix-blend-mode:normal;marker:none" display="block" overflow="visible" fill="#b36b75" d="M19 8h3v2h-3z"/><path style="isolation:auto;mix-blend-mode:normal;marker:none" display="block" overflow="visible" fill="#575f70" d="M8 8h2v2H8zM8 11h2v2H8zM8 14h2v2H8zM8 17h2v2H8zM8 20h2v2H8zM8 23h2v2H8z"/></g></g></svg>