<svg xmlns="http://www.w3.org/2000/svg" xmlns:xlink="http://www.w3.org/1999/xlink" width="32" viewBox="0 0 32 32" height="32"><title>Template icons dark</title><defs><linearGradient id="b"><stop offset="0" stop-color="#d6c8ee"/><stop offset="1" stop-color="#aad1f7"/></linearGradient><linearGradient id="a"><stop offset="0" stop-color="#5d8afc"/><stop offset="1" stop-color="#aa88d1"/></linearGradient><linearGradient gradientTransform="translate(-70.007 -70.175) scale(.33828)" xlink:href="#a" id="h" x1="188.825" y1="190.844" x2="130.018" y2="127.876" gradientUnits="userSpaceOnUse"/><linearGradient gradientTransform="translate(-70.007 -70.175) scale(.33828)" xlink:href="#b" id="j" x1="144.509" y1="142.827" x2="172.287" y2="176.313" gradientUnits="userSpaceOnUse"/><radialGradient gradientTransform="matrix(.06522 -.0039 .00381 .06372 -97.9 -56.391)" gradientUnits="userSpaceOnUse" id="c" r="776.623" fy="3474.059" fx="3838.903" cy="3474.059" cx="3838.903"><stop offset="0%" stop-color="#444367"/><stop offset="44.511%" stop-color="#29253B"/><stop offset="1" stop-color="#1f2032"/></radialGradient><radialGradient gradientTransform="matrix(.06522 -.0039 .00381 .06372 -97.9 -56.391)" gradientUnits="userSpaceOnUse" id="d" r="776.623" fy="3474.059" fx="3838.903" cy="3474.059" cx="3838.903"><stop offset="0%" stop-color="#444367"/><stop offset="44.511%" stop-color="#29253B"/><stop offset="1" stop-color="#1f2032"/></radialGradient><radialGradient gradientTransform="matrix(.06522 -.0039 .00381 .06372 -97.9 -56.391)" gradientUnits="userSpaceOnUse" id="e" r="776.623" fy="3474.059" fx="3838.903" cy="3474.059" cx="3838.903"><stop offset="0%" stop-color="#444367"/><stop offset="44.511%" stop-color="#29253B"/><stop offset="1" stop-color="#1f2032"/></radialGradient><radialGradient gradientTransform="matrix(.06522 -.0039 .00381 .06372 -97.9 -56.391)" gradientUnits="userSpaceOnUse" id="f" r="776.623" fy="3474.059" fx="3838.903" cy="3474.059" cx="3838.903"><stop offset="0%" stop-color="#444367"/><stop offset="44.511%" stop-color="#29253B"/><stop offset="1" stop-color="#1f2032"/></radialGradient><radialGradient xlink:href="#g" id="i" gradientUnits="userSpaceOnUse" gradientTransform="matrix(.02152 -.00129 .00126 .02103 -101.107 -87.27)" cx="3838.903" cy="3474.059" fx="3838.903" fy="3474.059" r="776.623"/><radialGradient gradientTransform="matrix(.06522 -.0039 .00381 .06372 -97.9 -56.391)" gradientUnits="userSpaceOnUse" id="g" r="776.623" fy="3474.059" fx="3838.903" cy="3474.059" cx="3838.903"><stop offset="0%" stop-color="#444367"/><stop offset="44.511%" stop-color="#29253B"/><stop offset="1" stop-color="#1f2032"/></radialGradient></defs><path d="M16.005 32c-1.6 0-13.057-6.614-13.857-8-.8-1.386-.8-14.615 0-16 .8-1.386 12.257-8 13.857-8 1.6 0 13.056 6.614 13.856 8 .8 1.385.8 14.614 0 16-.8 1.386-12.256 8-13.856 8z" style="isolation:auto;mix-blend-mode:normal;marker:none" color="#000" overflow="visible" fill-opacity=".26"/><path style="isolation:auto;mix-blend-mode:normal;marker:none" d="M-15.995-1.331c-1.467 0-11.97-6.064-12.704-7.335-.734-1.27-.734-13.398 0-14.669.733-1.27 11.237-7.334 12.704-7.334 1.467 0 11.97 6.064 12.704 7.334.733 1.27.733 13.4 0 14.67-.734 1.27-11.237 7.334-12.704 7.334z" color="#000" overflow="visible" fill-opacity=".26" stroke="url(#h)" stroke-width="1.29" transform="translate(32 32)"/><path style="isolation:auto;mix-blend-mode:normal;marker:none" d="M-3.501-8.787l-12.494 7.214-12.494-7.214v-14.426l12.494-7.214 12.494 7.214z" color="#000" overflow="visible" fill="url(#i)" transform="translate(32 32)"/><path d="M3.087 16.692v-8.15l12.918-7.459 12.918 7.459z" style="isolation:auto;mix-blend-mode:normal;marker:none" color="#000" overflow="visible" fill="#fff" fill-opacity=".089"/><path d="M19.735 21.699V17.9h-3.126v-1.573h5.02V22.4q-1.108.786-2.444 1.193-1.335.398-2.85.398-3.316 0-5.192-1.932-1.866-1.942-1.866-5.4 0-3.466 1.866-5.398 1.876-1.942 5.191-1.942 1.383 0 2.624.34 1.25.342 2.302 1.005V12.7q-1.061-.9-2.255-1.354-1.193-.455-2.51-.455-2.595 0-3.902 1.45-1.298 1.449-1.298 4.319 0 2.86 1.298 4.31 1.307 1.449 3.902 1.449 1.014 0 1.81-.17.795-.18 1.43-.55z" style="line-height:1000%;-inkscape-font-specification:orya" font-weight="400" font-family="orya" letter-spacing="0" word-spacing="0" fill-opacity=".479"/><path style="line-height:1000%;-inkscape-font-specification:orya" d="M-12.265-11.316v-3.798h-3.126v-1.573h5.02v6.072q-1.108.786-2.444 1.194-1.335.397-2.85.397-3.316 0-5.192-1.932-1.866-1.942-1.866-5.4 0-3.466 1.866-5.398 1.876-1.942 5.191-1.942 1.383 0 2.624.341 1.25.341 2.302 1.004v2.037q-1.061-.9-2.255-1.355-1.193-.455-2.51-.455-2.595 0-3.902 1.45-1.298 1.449-1.298 4.319 0 2.86 1.298 4.31 1.307 1.449 3.902 1.449 1.014 0 1.81-.17.795-.18 1.43-.55z" font-weight="400" font-family="orya" letter-spacing="0" word-spacing="0" fill="url(#j)" transform="translate(32 32)"/></svg>