<svg xmlns:osb="http://www.openswatchbook.org/uri/2009/osb" xmlns="http://www.w3.org/2000/svg" xmlns:xlink="http://www.w3.org/1999/xlink" height="32" viewBox="0 0 32 32" width="32"><title>Template icons dark</title><defs><linearGradient id="h"><stop offset="0" stop-color="#d6dee0"/><stop offset="1" stop-color="#fff" stop-opacity=".474"/></linearGradient><linearGradient id="g"><stop offset="0" stop-color="#403d60" stop-opacity=".396"/><stop offset="1" stop-opacity=".073"/></linearGradient><linearGradient id="f"><stop offset="0" stop-color="#c3ced1"/><stop offset="1" stop-color="#f6f6f6"/></linearGradient><linearGradient id="a"><stop offset="0" stop-color="#c9cfd1"/><stop offset="1" stop-color="#fff"/></linearGradient><linearGradient id="b" osb:paint="solid"><stop offset="0" stop-color="#2d393e" stop-opacity=".117"/></linearGradient><linearGradient id="c"><stop offset="0" stop-opacity=".204"/><stop offset="1" stop-opacity="0"/></linearGradient><linearGradient id="d"><stop offset="0" stop-color="#dce1e8"/><stop offset="1" stop-color="#fff"/></linearGradient><linearGradient id="e" osb:paint="solid"><stop offset="0" stop-color="#33d351"/></linearGradient><linearGradient xlink:href="#d" id="l" gradientUnits="userSpaceOnUse" gradientTransform="translate(442.507 144.346) scale(.79897)" x1="-578.647" y1="-204.784" x2="-578.647" y2="-214.622"/><linearGradient xlink:href="#d" id="k" gradientUnits="userSpaceOnUse" gradientTransform="matrix(.79534 0 0 .79534 -25.858 -21.322)" x1="17.92" y1="19.84" x2="17.92" y2="11.307"/><linearGradient xlink:href="#e" id="j" gradientUnits="userSpaceOnUse" gradientTransform="matrix(.31941 0 0 .32125 -24.465 -343.522)"/><linearGradient gradientTransform="matrix(.35553 0 0 .35553 -72.886 -72.884)" xlink:href="#f" id="i" x1="162.551" y1="202.929" x2="162.551" y2="116" gradientUnits="userSpaceOnUse"/></defs><g transform="translate(32 32)"><path style="isolation:auto;mix-blend-mode:normal;marker:none" d="M-29.268-31.998h26.534c1.513 0 2.792 1.22 2.732 2.732v26.534A2.726 2.726 0 0 1-2.734 0h-26.534A2.726 2.726 0 0 1-32-2.732v-26.534c0-1.513 1.22-2.792 2.732-2.732z" color="#000" overflow="visible" fill-opacity=".099" paint-order="fill markers stroke"/><path d="M-28-31h24c1.514 0 3 1.486 3 3v23.972C-1-2.514-2.486-1-4-1h-24c-1.514 0-3-1.486-3-3v-24c0-1.514 1.486-3 3-3z" style="isolation:auto;mix-blend-mode:normal;marker:none" color="#000" overflow="visible" fill="url(#i)" paint-order="fill markers stroke"/><path d="M-31-4.356V-4c0 1.514 1.486 3 3 3h24c1.513-.028 3-1.514 3-3.028v-.355C-1-2.87-2.487-2.056-4-2h-24c-1.514 0-3-.842-3-2.356z" style="isolation:auto;mix-blend-mode:normal;marker:none" color="#000" overflow="visible" fill="#fff" fill-opacity=".542" paint-order="fill markers stroke"/><path d="M-20.752-11.989h9.582a2.988 2.988 0 0 1 2.995 2.995A2.988 2.988 0 0 1-11.17-6h-9.582a2.988 2.988 0 0 1-2.995-2.994 2.988 2.988 0 0 1 2.995-2.995z" fill="url(#j)"/><path d="M-20.401-26.028h9.626a3.002 3.002 0 0 1 3.008 3.009 3.002 3.002 0 0 1-3.008 3.008h-9.626a3.002 3.002 0 0 1-3.008-3.008 3.002 3.002 0 0 1 3.008-3.009z" fill="#2d393e" fill-opacity=".26"/><path d="M-27.989-28.998a.989.989 0 1 0 0 1.978.989.989 0 0 0 0-1.978zM-4-28.987a1.005 1.005 0 1 0 0 2.01 1.005 1.005 0 0 0 0-2.01zM-27.998-5.186a.998.998 0 1 0 0 1.997.998.998 0 0 0 0-1.997zm23.983.016a.985.985 0 1 0 0 1.97.985.985 0 0 0 0-1.97z" style="isolation:auto;mix-blend-mode:normal;marker:none" color="#000" overflow="visible" fill-opacity=".313" paint-order="fill markers stroke"/><path style="isolation:auto;mix-blend-mode:normal;marker:none" d="M-31-16.5h30v.5h-30z" color="#000" display="block" overflow="visible" fill-opacity=".25" paint-order="fill markers stroke"/><path style="isolation:auto;mix-blend-mode:normal;marker:none" d="M-31-16h30v.5h-30z" color="#000" display="block" overflow="visible" fill="#fff" fill-opacity=".807" paint-order="fill markers stroke"/><circle r="4.592" cy="-8.595" cx="-11.569" fill-opacity=".318"/><circle cx="-11.569" cy="-8.994" r="4.192" fill="url(#k)"/><circle r="4.002" cy="-8.994" cx="-11.569" fill="none" stroke="#fff" stroke-width=".381" stroke-miterlimit="4.6" stroke-opacity=".237"/><circle cx="20" cy="-22.618" r="4.613" transform="scale(-1 1)" fill-opacity=".328"/><circle cx="-20" cy="-23.019" r="4.211" fill="url(#l)"/><circle r="4.02" cy="-23.019" cx="-20" fill="none" stroke="#fff" stroke-width=".383" stroke-miterlimit="4.6" stroke-opacity=".237"/></g></svg>