<svg xmlns="http://www.w3.org/2000/svg" xmlns:xlink="http://www.w3.org/1999/xlink" height="32" viewBox="0 0 32 32" width="32"><title>Template icons dark</title><defs><linearGradient id="j"><stop offset="0" stop-color="#fff" stop-opacity=".852"/><stop offset="1" stop-color="#fff" stop-opacity="0"/></linearGradient><linearGradient id="i"><stop offset="0" stop-color="#fff" stop-opacity=".56"/><stop offset="1" stop-color="#fff" stop-opacity="0"/></linearGradient><linearGradient id="h"><stop offset="0" stop-color="#28263e"/><stop offset="1" stop-color="#494b5a"/></linearGradient><linearGradient id="g"><stop offset="0" stop-color="#4abecb"/><stop offset=".505" stop-color="#60d9b6" stop-opacity=".989"/><stop offset="1" stop-color="#dff48b" stop-opacity=".973"/></linearGradient><linearGradient id="f"><stop offset="0" stop-color="#2aa591"/><stop offset="1" stop-color="#2498e4"/></linearGradient><linearGradient id="a"><stop offset="0" stop-color="#2a0ff3" stop-opacity=".132"/><stop offset=".521" stop-color="#3bf963" stop-opacity=".291"/><stop offset="1" stop-color="#ef4cff" stop-opacity=".297"/></linearGradient><linearGradient id="b"><stop offset="0" stop-color="#fff"/><stop offset="1" stop-color="#fff" stop-opacity="0"/></linearGradient><linearGradient id="c"><stop offset="0"/><stop offset="1" stop-opacity="0"/></linearGradient><linearGradient id="d"><stop offset="0" stop-color="#babdb6"/><stop offset="1" stop-color="#fff"/></linearGradient><linearGradient id="e"><stop offset="0" stop-color="#888a85"/><stop offset="1" stop-color="#555753"/></linearGradient><linearGradient xlink:href="#g" id="l" x1="167.206" y1="193.417" x2="165.746" y2="132.007" gradientUnits="userSpaceOnUse" gradientTransform="rotate(-45 -63.648 101.525) scale(.32893)"/><linearGradient gradientTransform="rotate(-45 -72.319 122.65) scale(.40641)" xlink:href="#h" id="k" x1="153.065" y1="190.903" x2="153.065" y2="125.679" gradientUnits="userSpaceOnUse"/></defs><g color="#000"><path style="isolation:auto;mix-blend-mode:normal;marker:none" d="M23.088 2.672l7.98 13.826-7.651 13.254H8.113L.46 16.498 8.506 2.672z" display="block" overflow="visible" fill="none" stroke="#000" stroke-width=".797" stroke-opacity=".505" paint-order="fill markers stroke"/><path style="isolation:auto;mix-blend-mode:normal;marker:none" d="M-8.912-29.328l7.98 13.826-7.651 13.254h-15.304l-7.652-13.254 8.045-13.826z" display="block" overflow="visible" fill="url(#k)" paint-order="fill markers stroke" transform="translate(32 32)"/><path style="isolation:auto;mix-blend-mode:normal;marker:none" d="M.748 12.467l.733-5.377a.677.677 0 0 1 .764-.58l5.377.733c.373.05.581.764.2 1.054l-6.113 4.657c-.38.277-1.012-.114-.96-.487z" display="block" overflow="visible" fill-opacity=".297" paint-order="fill markers stroke"/><path d="M-22.62-26.559l-6.001 11.057 6.192 10.727h12.387l6.193-10.727-6.048-11.057zm2.94 5.346h6.602l3.3 5.716-3.3 5.717h-6.601l-3.3-5.717z" style="isolation:auto;mix-blend-mode:normal;marker:none" display="block" overflow="visible" fill="url(#l)" paint-order="fill markers stroke" transform="translate(32 32)"/><path d="M16.956 14.07l1.422 2.462-1.422 2.463h-2.844l-1.423-2.463 1.423-2.463z" style="isolation:auto;mix-blend-mode:normal;marker:none" display="block" overflow="visible" fill-opacity=".467" paint-order="fill markers stroke"/><path d="M.663 11.794l.733-5.377a.677.677 0 0 1 .764-.58l5.377.733c.372.05.58.764.199 1.054L1.623 12.28c-.38.277-1.011-.114-.96-.487z" style="isolation:auto;mix-blend-mode:normal;marker:none" display="block" overflow="visible" fill="#d0ec8c" paint-order="fill markers stroke"/><path style="isolation:auto;mix-blend-mode:normal;marker:none" d="M19.751 26.77l-2.816 4.877a.702.702 0 0 1-.961.258l-4.878-2.816c-.338-.195-.258-.962.223-1.09l7.7-2.074c.475-.117.927.507.732.845z" display="block" overflow="visible" fill-opacity=".659" paint-order="fill markers stroke"/><path d="M19.66 27.28l-2.214 3.836a.552.552 0 0 1-.756.202l-3.835-2.214c-.266-.153-.203-.756.175-.857l6.055-1.63c.373-.093.729.398.576.663z" style="isolation:auto;mix-blend-mode:normal;marker:none" display="block" overflow="visible" fill="#53c9c1" paint-order="fill markers stroke"/><path d="M7.804 24.593l-5.41 1.005a.686.686 0 0 1-.802-.551l-1.004-5.41c-.07-.375.55-.802.951-.527l6.428 4.404c.388.278.212 1.01-.163 1.08z" style="isolation:auto;mix-blend-mode:normal;marker:none" display="block" overflow="visible" fill-opacity=".379" paint-order="fill markers stroke"/><path style="isolation:auto;mix-blend-mode:normal;marker:none" d="M7.816 23.896l-5.41 1.005a.686.686 0 0 1-.802-.551L.599 18.94c-.07-.375.551-.802.952-.527l6.428 4.404c.388.278.212 1.01-.163 1.08z" display="block" overflow="visible" fill="#7bddab" paint-order="fill markers stroke"/><path d="M17.75 25.097l-2.27 1.558a.343.343 0 0 1-.48-.09l-1.557-2.27c-.108-.157.089-.478.328-.434l3.834.709c.234.048.302.419.145.527z" style="isolation:auto;mix-blend-mode:normal;marker:none" display="block" overflow="visible" fill-opacity=".593" paint-order="fill markers stroke"/><path style="isolation:auto;mix-blend-mode:normal;marker:none" d="M17.84 24.616l-2.271 1.558a.343.343 0 0 1-.479-.089l-1.558-2.27c-.108-.157.089-.479.328-.434l3.835.708c.233.048.301.42.144.527z" display="block" overflow="visible" fill="#fff" paint-order="fill markers stroke"/><path d="M18.205 19l-.738 2.752a.355.355 0 0 1-.436.252l-2.752-.738c-.19-.05-.252-.436-.034-.562l3.492-2.021c.216-.12.519.126.468.317z" style="isolation:auto;mix-blend-mode:normal;marker:none" display="block" overflow="visible" fill="#fefdf8" paint-order="fill markers stroke"/><path style="isolation:auto;mix-blend-mode:normal;marker:none" d="M11.986 3.02l4.33-2.5c.3-.173.68-.07.853.23l2.5 4.329c.173.3-.229.854-.656.74l-6.84-1.825c-.416-.12-.487-.8-.187-.974z" display="block" overflow="visible" fill-opacity=".264" paint-order="fill markers stroke"/><path d="M11.734 2.584l4.33-2.5c.3-.173.68-.07.853.23l2.5 4.329c.173.3-.229.854-.655.74l-6.84-1.825c-.417-.12-.488-.8-.188-.974z" style="isolation:auto;mix-blend-mode:normal;marker:none" display="block" overflow="visible" fill="#b6e895" paint-order="fill markers stroke"/><path d="M24.325 4.178l6.032 3.482c.418.241.56.772.319 1.19l-3.483 6.032c-.24.418-1.189.319-1.348-.276L23.28 5.082c-.144-.586.627-1.146 1.045-.904z" style="isolation:auto;mix-blend-mode:normal;marker:none" display="block" overflow="visible" fill-opacity=".264" paint-order="fill markers stroke"/><path style="isolation:auto;mix-blend-mode:normal;marker:none" d="M24.676 3.57l6.032 3.483c.418.241.56.772.319 1.19l-3.483 6.032c-.241.417-1.19.318-1.349-.276l-2.564-9.524c-.145-.586.627-1.146 1.045-.905z" display="block" overflow="visible" fill="#60d7b5" paint-order="fill markers stroke"/><path style="isolation:auto;mix-blend-mode:normal;marker:none" d="M16 16v1h-1v-1z" display="block" overflow="visible" fill="#bde993" paint-order="fill markers stroke"/><path style="isolation:auto;mix-blend-mode:normal;marker:none" d="M15 15v1h1v-1zm1 1v1h1v-1zm0 1h-1v1h1zm-1 0v-1h-1v1z" overflow="visible" fill="#bde993" fill-opacity=".527" paint-order="fill markers stroke"/></g></svg>