<svg xmlns="http://www.w3.org/2000/svg" xmlns:xlink="http://www.w3.org/1999/xlink" height="32" viewBox="0 0 32 32" width="32"><title>Template icons dark</title><defs><linearGradient id="c"><stop offset="0" stop-color="#5299dc"/><stop offset="1" stop-color="#287bc8"/></linearGradient><linearGradient id="b"><stop offset="0" stop-color="#ebebeb"/><stop offset="1" stop-color="#a0afbe"/></linearGradient><linearGradient id="a"><stop offset="0" stop-color="#003783"/><stop offset="1" stop-color="#69e5ff"/></linearGradient><linearGradient xlink:href="#a" id="d" gradientUnits="userSpaceOnUse" x1="120" y1="120" x2="203.055" y2="204"/><linearGradient xlink:href="#b" id="e" gradientUnits="userSpaceOnUse" gradientTransform="translate(-29 -29) scale(.66667)" x1="155.098" y1="157.153" x2="197.653" y2="195.477"/><linearGradient xlink:href="#c" id="f" gradientUnits="userSpaceOnUse" gradientTransform="translate(-29 -29) scale(.66667)" x1="181.918" y1="190.647" x2="170.052" y2="165.317"/></defs><g color="#000"><path style="isolation:auto;mix-blend-mode:normal;marker:none" d="M0 0h29v29H0z" display="block" overflow="visible" fill-opacity=".141" paint-order="fill markers stroke"/><path style="isolation:auto;mix-blend-mode:normal;marker:none" d="M1 1h27.003v27.003H1z" display="block" overflow="visible" fill="#2268ab" paint-order="fill markers stroke"/><path style="isolation:auto;mix-blend-mode:normal;marker:none" d="M10 10h9v9h-9z" display="block" overflow="visible" fill="#3d8dd8" paint-order="fill markers stroke"/><path style="isolation:auto;mix-blend-mode:normal;marker:none" d="M10 1h9v9h-9z" display="block" overflow="visible" fill="#2777c4" paint-order="fill markers stroke"/><path style="isolation:auto;mix-blend-mode:normal;marker:none" d="M1 1h9v9H1z" display="block" overflow="visible" fill="#1f609e" paint-order="fill markers stroke"/><path style="isolation:auto;mix-blend-mode:normal;marker:none" d="M1 10h9v9H1z" display="block" overflow="visible" fill="#3b83c8" paint-order="fill markers stroke"/><path style="isolation:auto;mix-blend-mode:normal;marker:none" d="M19 10h8.997v9H19z" display="block" overflow="visible" fill="#63a3e0" paint-order="fill markers stroke"/><path style="isolation:auto;mix-blend-mode:normal;marker:none" d="M19 1h8.997v9H19z" display="block" overflow="visible" fill="#3b8bd8" paint-order="fill markers stroke"/><path style="isolation:auto;mix-blend-mode:normal;marker:none" d="M10 19h9v8.997h-9z" display="block" overflow="visible" fill="#61a2e0" paint-order="fill markers stroke"/><path style="isolation:auto;mix-blend-mode:normal;marker:none" d="M1 19h9v8.997H1z" display="block" overflow="visible" fill="#4893db" paint-order="fill markers stroke"/><path style="isolation:auto;mix-blend-mode:normal;marker:none" d="M1 27h27.003v.997H1z" display="block" overflow="visible" fill="#fff" fill-opacity=".257" paint-order="fill markers stroke"/><path d="M21.726 11.34a10.36 10.36 0 0 0-.337.013c-.02-.003-.036-.012-.056-.012h-9.54a.413.413 0 0 0-.414.414v9.702a10.36 10.36 0 0 0-.012.243 10.36 10.36 0 0 0 10.36 10.36A10.36 10.36 0 0 0 32.085 21.7a10.36 10.36 0 0 0-10.36-10.36z" style="isolation:auto;mix-blend-mode:normal;marker:none" overflow="visible" fill-opacity=".152" paint-order="fill markers stroke"/><path d="M90.334 73.667a16.667 16.667 0 0 0-.543.02c-.031-.005-.058-.019-.09-.019H74.35a.664.664 0 0 0-.665.665v15.61a16.667 16.667 0 0 0-.02.39A16.667 16.667 0 0 0 90.335 107 16.667 16.667 0 0 0 107 90.334a16.667 16.667 0 0 0-16.666-16.667z" style="isolation:auto;mix-blend-mode:normal;marker:none" overflow="visible" fill="url(#e)" paint-order="fill markers stroke" transform="matrix(.57827 0 0 .57827 -30.511 -30.538)"/><path d="M98.903 90.334a8.57 8.57 0 0 1-8.57 8.569 8.57 8.57 0 0 1-8.569-8.57 8.57 8.57 0 0 1 8.57-8.569 8.57 8.57 0 0 1 8.569 8.57z" style="isolation:auto;mix-blend-mode:normal;marker:none" overflow="visible" fill="url(#f)" paint-order="fill markers stroke" transform="matrix(.57827 0 0 .57827 -30.511 -30.538)"/><path d="M21.726 16.745a4.955 4.955 0 0 0-4.948 5.184c.085-2.673 2.274-4.565 4.948-4.568 2.647.002 4.825 1.851 4.948 4.495.003-.052.006-.104.007-.156a4.955 4.955 0 0 0-4.955-4.955z" style="isolation:auto;mix-blend-mode:normal;marker:none" overflow="visible" fill-opacity=".372" paint-order="fill markers stroke"/><path d="M21 20v1h-1v1h1v1h1l-.016-1.016L23 22v-1.031L22 21l-.016-1z" style="isolation:auto;mix-blend-mode:normal;marker:none" overflow="visible" fill="#fff" fill-opacity=".293" paint-order="fill markers stroke"/></g></svg>