<svg xmlns="http://www.w3.org/2000/svg" xmlns:xlink="http://www.w3.org/1999/xlink" height="32" viewBox="0 0 32 32" width="32"><title>Template icons dark</title><defs><linearGradient id="c"><stop offset="0" stop-color="#db4ca1"/><stop offset="1" stop-color="#8e3592" stop-opacity=".996"/></linearGradient><linearGradient id="f"><stop offset="0" stop-color="#23acff"/><stop offset="1" stop-color="#7647d8" stop-opacity=".996"/></linearGradient><linearGradient id="e"><stop offset="0" stop-color="#08ffe8"/><stop offset="1" stop-color="#8abdec"/></linearGradient><linearGradient id="a"><stop offset="0" stop-color="#fff" stop-opacity=".427"/><stop offset=".423" stop-color="#fafcfe"/><stop offset="1" stop-color="#fff" stop-opacity=".49"/></linearGradient><linearGradient id="b"><stop offset="0" stop-color="#fe50b8"/><stop offset="1" stop-color="#722f98" stop-opacity=".995"/></linearGradient><linearGradient id="d"><stop offset="0" stop-color="#fff" stop-opacity=".179"/><stop offset="1" stop-color="#fff" stop-opacity=".795"/></linearGradient><linearGradient xlink:href="#b" id="h" gradientUnits="userSpaceOnUse" gradientTransform="translate(0 .338)" x1="16.791" y1="294.048" x2="16.839" y2="271.451"/><linearGradient xlink:href="#b" id="i" gradientUnits="userSpaceOnUse" gradientTransform="translate(0 .338)" x1="16.791" y1="294.048" x2="16.839" y2="271.451"/><linearGradient xlink:href="#b" id="j" gradientUnits="userSpaceOnUse" gradientTransform="translate(0 .338)" x1="16.791" y1="294.048" x2="16.839" y2="271.451"/><linearGradient xlink:href="#f" id="k" gradientUnits="userSpaceOnUse" gradientTransform="translate(0 .338)" x1="16.967" y1="277.049" x2="16.967" y2="264.621"/><linearGradient xlink:href="#e" id="l" gradientUnits="userSpaceOnUse" gradientTransform="translate(0 .338)" x1="17.244" y1="286.28" x2="30.792" y2="276.804"/><linearGradient xlink:href="#c" id="m" gradientUnits="userSpaceOnUse" gradientTransform="translate(0 .338)" x1="16.791" y1="294.048" x2="3.857" y2="275.45"/><linearGradient xlink:href="#b" id="g" gradientUnits="userSpaceOnUse" x1="16.791" y1="294.048" x2="16.839" y2="271.451"/><linearGradient xlink:href="#d" id="o" gradientUnits="userSpaceOnUse" gradientTransform="translate(0 .338)" x1="16.721" y1="296.202" x2="17.087" y2="265.977"/><linearGradient xlink:href="#d" id="p" gradientUnits="userSpaceOnUse" gradientTransform="translate(0 .338)" x1="16.721" y1="296.202" x2="17.087" y2="265.977"/><linearGradient xlink:href="#d" id="q" gradientUnits="userSpaceOnUse" gradientTransform="translate(0 .338)" x1="16.721" y1="296.202" x2="17.087" y2="265.977"/><linearGradient xlink:href="#d" id="r" gradientUnits="userSpaceOnUse" gradientTransform="translate(0 .338)" x1="16.721" y1="296.202" x2="17.087" y2="265.977"/><linearGradient xlink:href="#d" id="n" gradientUnits="userSpaceOnUse" x1="16.721" y1="296.202" x2="17.087" y2="265.977"/></defs><g color="#000" stroke-width=".265"><g style="isolation:auto;mix-blend-mode:normal;marker:none" overflow="visible" fill="url(#g)" stroke-opacity=".984" transform="matrix(1.0391 0 0 1.0391 -1.616 -275.248)"><path d="M2.483 268.31v16.01l14.463-5.115v-14.178z" fill="url(#h)"/><path d="M2.483 284.32l14.45 11.235 14.46-11.247-14.447-5.103z" fill="url(#i)" fill-rule="evenodd"/><path d="M16.946 265.027l14.448 3.278v16.003l-14.448-5.103z" fill="url(#j)" fill-rule="evenodd"/><path d="M2.483 268.31l14.45 7.945 14.46-7.95-14.447-3.278z" fill="url(#k)"/><path d="M16.932 276.255v19.3l14.462-11.247v-16.003z" fill="url(#l)" fill-rule="evenodd"/><path d="M2.483 268.31l14.45 7.945v19.3L2.482 284.32z" fill="url(#m)" fill-rule="evenodd"/></g><g style="isolation:auto;mix-blend-mode:normal;marker:none" overflow="visible" fill="none" stroke="url(#n)" stroke-opacity=".142" transform="matrix(1.0391 0 0 1.0391 -1.616 -275.248)"><path d="M2.483 284.32l14.45 11.235 14.46-11.247-14.447-5.267z" stroke="url(#o)" stroke-linejoin="round"/><path d="M2.483 268.31l14.45 7.781 14.46-7.786-14.447-3.278z" stroke="url(#p)"/><path d="M16.932 276.091v19.464l14.462-11.247v-16.003z" stroke="url(#q)" stroke-linejoin="round"/><path d="M2.483 268.31l14.45 7.781v19.464L2.482 284.32z" stroke="url(#r)" stroke-linejoin="round"/></g></g></svg>