<svg xmlns="http://www.w3.org/2000/svg" xmlns:xlink="http://www.w3.org/1999/xlink" height="32" viewBox="0 0 32 32" width="32"><title>Template icons dark</title><defs><linearGradient id="h"><stop offset="0" stop-color="#2b364a"/><stop offset="1" stop-color="#3a4964"/></linearGradient><linearGradient id="g"><stop offset="0" stop-color="#fff"/><stop offset="1" stop-color="#e1eef4"/></linearGradient><linearGradient id="f"><stop offset="0" stop-color="#fff"/><stop offset="1" stop-color="#dfdfdf" stop-opacity=".984"/></linearGradient><linearGradient id="e"><stop offset="0" stop-color="#009fe8" stop-opacity=".995"/><stop offset="1" stop-color="#0b7ac5" stop-opacity=".995"/></linearGradient><linearGradient id="d"><stop offset="0" stop-color="#d6dee0"/><stop offset="1" stop-color="#fff" stop-opacity=".474"/></linearGradient><linearGradient id="c"><stop offset="0" stop-color="#403d60" stop-opacity=".396"/><stop offset="1" stop-opacity=".073"/></linearGradient><linearGradient id="a"><stop offset="0" stop-color="#c9cfd1"/><stop offset="1" stop-color="#fff"/></linearGradient><linearGradient id="b"><stop offset="0" stop-color="#dce1e8"/><stop offset="1" stop-color="#fff"/></linearGradient><linearGradient gradientTransform="matrix(.37986 0 0 .37986 -77.755 -75.982)" xlink:href="#g" id="i" x1="133" y1="181" x2="191.252" y2="127" gradientUnits="userSpaceOnUse"/><linearGradient gradientTransform="matrix(.37986 0 0 .37986 -77.755 -75.982)" xlink:href="#e" id="j" x1="200.559" y1="193" x2="125" y2="123.315" gradientUnits="userSpaceOnUse"/><linearGradient gradientTransform="matrix(.37986 0 0 .37986 -77.755 -75.982)" xlink:href="#h" id="k" x1="181" y1="140" x2="198" y2="122.126" gradientUnits="userSpaceOnUse"/><linearGradient xlink:href="#f" id="l" x1="180" y1="177" x2="180" y2="183.78" gradientUnits="userSpaceOnUse" gradientTransform="matrix(.37986 0 0 .37986 -77.755 -75.223)"/><linearGradient xlink:href="#b" id="m" gradientUnits="userSpaceOnUse" gradientTransform="translate(447.638 163.222) scale(.81675)" x1="-578.647" y1="-204.784" x2="-578.647" y2="-214.622"/></defs><path style="isolation:auto;mix-blend-mode:normal;marker:none" d="M.044.106v31.452h32V19.835l-2.58-2.28h-.006v-7.217l1.432-1.14V1.792h-8.65L21.1 2.896h-6.837L12.364.111V.106z" color="#000" display="block" overflow="visible" fill="#03070a" fill-opacity=".095"/><path style="isolation:auto;mix-blend-mode:normal;marker:none" d="M-29.892-28.5h26.59v25.831h-26.59z" color="#000" display="block" overflow="visible" fill="url(#i)" transform="translate(32 32)"/><path style="isolation:auto;mix-blend-mode:normal;marker:none" d="M-30.854-31.305v30.282H-.539v-11.142h-19.097v-19.14z" color="#000" overflow="visible" fill="url(#j)" transform="translate(32 32)"/><path d="M21.1 3.5v7.598h7.598l1.14-1.14-7.598-7.597z" style="isolation:auto;mix-blend-mode:normal;marker:none" color="#000" display="block" overflow="visible" fill="#445575"/><path style="isolation:auto;mix-blend-mode:normal;marker:none" d="M21.1 3.5v7.598l4.56-4.89-3.42-3.847z" color="#000" display="block" overflow="visible" fill="#778bb0"/><path style="isolation:auto;mix-blend-mode:normal;marker:none" d="M-9.76-29.639v7.597h7.598v-7.597z" color="#000" display="block" overflow="visible" fill="url(#k)" transform="translate(32 32)"/><path d="M12.361.695L14.263 3.5v14.435l-1.899 1.899z" fill="#6bafdf" fill-rule="evenodd"/><path d="M31.461 19.835l-2.763-1.9H14.263l-1.899 1.9z" fill="#055fb0" fill-rule="evenodd"/><path style="isolation:auto;mix-blend-mode:normal;marker:none" d="M24.52 4.64h3.039v3.04h-3.04z" color="#000" display="block" overflow="visible" fill="#fff" fill-opacity=".947"/><path style="isolation:auto;mix-blend-mode:normal;marker:none" d="M16.961 24.013H28.28c.232 0 .42.187.42.42v2.2a.418.418 0 0 1-.42.42H16.961a.418.418 0 0 1-.419-.42v-2.2c0-.233.187-.42.42-.42z" color="#000" display="block" overflow="visible" fill-opacity=".216"/><path style="isolation:auto;mix-blend-mode:normal;marker:none" d="M-15.039-8.367H-3.72c.232 0 .42.187.42.42v2.2a.418.418 0 0 1-.42.42h-11.318a.418.418 0 0 1-.419-.42v-2.2c0-.233.187-.42.42-.42z" color="#000" display="block" overflow="visible" fill="url(#l)" transform="translate(32 32)"/><path style="isolation:auto;mix-blend-mode:normal;marker:none" d="M2.867.695h7.598v16.1H2.867z" color="#000" display="block" overflow="visible" fill="#07113c" fill-opacity=".289"/><path style="line-height:normal;font-variant-ligatures:normal;font-variant-position:normal;font-variant-caps:normal;font-variant-numeric:normal;font-variant-alternates:normal;font-feature-settings:normal;text-indent:0;text-align:start;text-decoration-line:none;text-decoration-style:solid;text-decoration-color:#000;text-transform:none;text-orientation:mixed;shape-padding:0;isolation:auto;mix-blend-mode:normal;marker:none" d="M2.867.695v16.1h7.598V.696zm.38 0h6.838v15.721H3.247z" color="#000" font-weight="400" font-family="sans-serif" white-space="normal" display="block" overflow="visible" fill-opacity=".132"/><path d="M2.122 24.542a4.715 4.715 0 1 0 9.43 0 4.715 4.715 0 0 0-9.43 0z" fill-opacity=".157"/><path d="M-20.857-7.868a4.305 4.305 0 1 1-8.61 0 4.305 4.305 0 0 1 8.61 0z" fill="url(#m)" transform="translate(32 32)"/><path d="M10.947 24.132a4.11 4.11 0 1 1-8.219 0 4.11 4.11 0 0 1 8.22 0z" fill="none" stroke="#fff" stroke-width=".391" stroke-miterlimit="4.6" stroke-opacity=".237"/><path style="isolation:auto;mix-blend-mode:normal;marker:none" d="M5.055 21.865l-.538.537 1.612 1.611-1.612 1.612.538.537 1.611-1.612 1.611 1.612.538-.537-1.612-1.612 1.612-1.611-.538-.537-1.611 1.611z" color="#000" display="block" overflow="visible" fill="#6162b1" fill-opacity=".379"/></svg>