<svg xmlns="http://www.w3.org/2000/svg" xmlns:xlink="http://www.w3.org/1999/xlink" height="32" viewBox="0 0 32 32" width="32"><title>Template icons dark</title><defs><linearGradient id="g"><stop offset="0" stop-color="#1d6e99"/><stop offset="1" stop-color="#f93000"/></linearGradient><linearGradient id="f"><stop offset="0" stop-color="#492f46" stop-opacity=".71"/><stop offset="1" stop-color="#3c3543" stop-opacity=".368"/></linearGradient><linearGradient id="h"><stop offset="0" stop-opacity=".511"/><stop offset="1" stop-opacity=".269"/></linearGradient><linearGradient id="a"><stop offset="0" stop-color="#313131" stop-opacity=".51"/><stop offset=".6" stop-color="#dfdfdf" stop-opacity=".761"/><stop offset="1" stop-color="#fff"/></linearGradient><linearGradient id="b"><stop offset="0" stop-color="#bcbcbc"/><stop offset="1" stop-color="#fff"/></linearGradient><linearGradient id="c"><stop offset="0" stop-color="#eee"/><stop offset=".413" stop-color="#a2a2a2"/><stop offset=".495" stop-color="#707070"/><stop offset=".53" stop-color="#838383"/><stop offset="1" stop-color="#d2d2d2"/></linearGradient><linearGradient id="d"><stop offset="0" stop-color="#353d5a" stop-opacity=".813"/><stop offset="1" stop-color="#a33284" stop-opacity=".588"/></linearGradient><linearGradient id="e"><stop offset="0" stop-color="#54546a"/><stop offset="1" stop-color="#5a6480"/></linearGradient><linearGradient xlink:href="#e" id="i" gradientUnits="userSpaceOnUse" gradientTransform="matrix(.59058 0 0 .59058 -44.81 -608.903)" x1="49.679" y1="1012.168" x2="28.449" y2="1012.168"/><linearGradient xlink:href="#g" id="j" gradientUnits="userSpaceOnUse" gradientTransform="matrix(.59058 0 0 .59058 -44.814 -608.88)" x1="55.554" y1="1018.555" x2="6.881" y2="979.09"/><linearGradient xlink:href="#b" id="k" x1="48.24" y1="22.745" x2="48.24" y2="-17.955" gradientUnits="userSpaceOnUse" gradientTransform="matrix(.35446 0 0 .35446 -33.014 -18.074)"/><linearGradient xlink:href="#d" id="l" gradientUnits="userSpaceOnUse" gradientTransform="matrix(.59058 0 0 .59058 -44.81 -608.903)" x1="50.104" y1="1012.168" x2="73.355" y2="1012.168"/><linearGradient xlink:href="#c" id="m" x1="43.116" y1="25.526" x2="1.463" y2="25.526" gradientUnits="userSpaceOnUse" gradientTransform="matrix(.6956 0 0 .6956 -31.65 -33.738)"/></defs><path d="M15.816.673C10.566.767 1.41 4.419 1.41 6.844l-.055 9.174c0 6.315 10.398 15.164 14.571 15.31h.129c4.173-.146 14.59-8.995 14.59-15.31l-.092-9.174c0-2.426-9.139-6.079-14.387-6.171h-.351z" fill="none" stroke="#000" stroke-width="1.345" stroke-opacity=".115"/><path d="M-16.185-31.355c-5.258.094-14.432 3.753-14.432 6.183l-.055 9.19c0 6.327 10.418 15.192 14.598 15.337h.129C-11.764-.79-1.328-9.655-1.328-15.98l-.092-9.191c0-2.431-9.156-6.09-14.414-6.183h-.351z" fill="url(#i)" transform="translate(32 32)"/><path d="M-16.189-31.333c-5.259.095-14.432 3.753-14.432 6.183l-.056 9.19c0 6.327 10.418 15.193 14.599 15.338h.129c4.18-.145 14.617-9.01 14.617-15.337l-.092-9.191c0-2.43-9.156-6.09-14.414-6.183h-.351z" fill="url(#j)" transform="translate(32 32)"/><path d="M15.816.645C10.557.739 1.383 4.397 1.383 6.827l-.055 9.192c0 2.655 1.838 5.756 4.277 8.474A28.037 26.35 0 0 1 30.467 6.342C29.41 3.938 21.084.732 16.166.645h-.351z" fill="#a3eaf1" fill-opacity=".187"/><path style="isolation:auto;mix-blend-mode:normal;marker:none" d="M23.508 7.289c3.99 3.99.35 1.872.35 7.515s3.64 3.526-.35 7.516-1.873.35-7.515.35c-5.643 0-3.526 3.64-7.516-.35s-.35-1.873-.35-7.516-3.64-3.525.35-7.515c3.99-3.99 1.873-.35 7.516-.35 5.642 0 3.525-3.64 7.515.35z" color="#000" overflow="visible" fill="none" stroke="#000" stroke-width=".5" stroke-linecap="square" stroke-miterlimit="3.7" stroke-opacity=".286" paint-order="markers stroke fill"/><path style="isolation:auto;mix-blend-mode:normal;marker:none" d="M23.508 7.289c3.99 3.99.35 1.872.35 7.515s3.64 3.526-.35 7.516-1.873.35-7.515.35c-5.643 0-3.526 3.64-7.516-.35s-.35-1.873-.35-7.516-3.64-3.525.35-7.515c3.99-3.99 1.873-.35 7.516-.35 5.642 0 3.525-3.64 7.515.35z" color="#000" overflow="visible" fill="#d5d5d5" paint-order="markers stroke fill"/><path d="M16 7.107a8.219 8.219 0 0 1 8.237 8.237A8.219 8.219 0 0 1 16 23.58a8.219 8.219 0 0 1-8.237-8.237A8.219 8.219 0 0 1 16 7.107z" fill-opacity=".357"/><path d="M-16-25.248a8.219 8.219 0 0 1 8.237 8.237A8.219 8.219 0 0 1-16-8.774a8.219 8.219 0 0 1-8.237-8.237A8.219 8.219 0 0 1-16-25.248z" fill="url(#k)" transform="translate(32 32)"/><path style="isolation:auto;mix-blend-mode:normal;marker:none" d="M20.094 15A4.094 4.094 0 0 1 16 19.094 4.094 4.094 0 0 1 11.906 15 4.094 4.094 0 0 1 16 10.905 4.094 4.094 0 0 1 20.094 15z" color="#000" overflow="visible" fill-opacity=".187"/><path style="isolation:auto;mix-blend-mode:normal;marker:none" d="M15 10h2v6l-1 2 1 1v1h-2v-6l.78-2-.78-1z" color="#000" overflow="visible" fill="#494949"/><path d="M-15.973-31.355v30.71H-15.945c4.18-.145 14.617-9.01 14.617-15.337l-.092-9.19c0-2.431-9.156-6.09-14.414-6.183h-.14z" opacity=".439" fill="url(#l)" transform="translate(32 32)"/><path d="M-16.18-31.008c-5.14.093-14.106 3.668-14.106 6.043l-.054 8.983c0 6.183 10.182 14.848 14.268 14.99h.126C-11.86-1.134-1.66-9.8-1.66-15.982l-.09-8.983c0-2.376-8.949-5.952-14.088-6.043H-16.18z" fill="none" stroke="url(#m)" stroke-width="1.317" transform="translate(32 32)"/><path style="line-height:normal;font-variant-ligatures:normal;font-variant-position:normal;font-variant-caps:normal;font-variant-numeric:normal;font-variant-alternates:normal;font-feature-settings:normal;text-indent:0;text-align:start;text-decoration-line:none;text-decoration-style:solid;text-decoration-color:#000;text-transform:none;text-orientation:mixed;shape-padding:0;isolation:auto;mix-blend-mode:normal" d="M15.811.667l.009.984-.007-.984h-.002zm.018.984h-.012l.003.333-.004-.333c-2.423.047-5.911.942-8.724 2.114-1.408.588-2.654 1.246-3.51 1.869-.855.623-1.21 1.222-1.21 1.401v.002l-.054 8.981.002.034.052-8.682v-.002c0-.18.355-.778 1.21-1.4.856-.624 2.102-1.282 3.51-1.87 2.817-1.174 6.313-2.07 8.737-2.114h.322c2.424.043 5.916.939 8.729 2.113 1.406.588 2.65 1.247 3.504 1.87.853.623 1.208 1.22 1.208 1.401v.004l.087 8.7c0-.018.003-.036.003-.053l-.09-8.98v-.004c0-.18-.355-.779-1.208-1.402-.854-.623-2.097-1.282-3.504-1.869-2.813-1.175-6.305-2.07-8.729-2.113h-.322z" color="#000" font-weight="400" font-family="sans-serif" white-space="normal" overflow="visible" fill="#060606" fill-opacity=".451"/><path d="M16 6.752a8.22 8.22 0 0 0-8.237 8.237c0 .056.003.112.005.167A8.217 8.217 0 0 1 16 7.086a8.217 8.217 0 0 1 8.233 8.07c0-.055.004-.11.004-.167A8.22 8.22 0 0 0 16 6.752z" fill="#fff" fill-opacity=".758"/></svg>