<svg xmlns="http://www.w3.org/2000/svg" xmlns:xlink="http://www.w3.org/1999/xlink" height="32" viewBox="0 0 32 32" width="32"><title>Template icons dark</title><defs><linearGradient id="e"><stop offset="0" stop-color="#6e685c"/><stop offset="1" stop-color="#7f6a7f"/></linearGradient><linearGradient id="d"><stop offset="0" stop-opacity=".022"/><stop offset="1" stop-color="#111" stop-opacity=".551"/></linearGradient><linearGradient id="c"><stop offset="0" stop-color="#262532"/><stop offset="1" stop-color="#39343d"/></linearGradient><linearGradient id="b"><stop offset="0" stop-color="#f75100"/><stop offset="1" stop-color="#ffae11"/></linearGradient><linearGradient id="a"><stop offset="0" stop-color="#23211d"/><stop offset="1" stop-color="#3f474b"/></linearGradient><linearGradient gradientTransform="matrix(.33334 0 0 .33334 -69.334 -69.334)" xlink:href="#c" id="f" gradientUnits="userSpaceOnUse" x1="165.575" y1="196.64" x2="165.575" y2="124"/><linearGradient gradientTransform="matrix(.33334 0 0 .33334 -69.334 -69.334)" xlink:href="#b" id="g" x1="160" y1="182.114" x2="160" y2="138" gradientUnits="userSpaceOnUse"/></defs><g color="#000"><path d="M32 16c0 1.12-7.03 13.296-8 13.856-.97.56-15.03.56-16 0C7.03 29.296 0 17.12 0 16 0 14.88 7.03 2.704 8 2.144c.97-.56 15.03-.56 16 0 .97.56 8 12.736 8 13.856z" style="isolation:auto;mix-blend-mode:normal;marker:none" display="block" overflow="visible" fill-opacity=".423" paint-order="fill markers stroke"/><path style="isolation:auto;mix-blend-mode:normal;marker:none" d="M-.333-16c0 1.097-6.884 13.02-7.834 13.568-.95.548-14.717.548-15.666 0-.95-.549-7.834-12.471-7.834-13.568 0-1.097 6.884-13.02 7.834-13.568.95-.548 14.717-.548 15.666 0 .95.549 7.834 12.471 7.834 13.568z" display="block" overflow="visible" fill="url(#f)" paint-order="fill markers stroke" transform="translate(32 32)"/><path style="isolation:auto;mix-blend-mode:normal;marker:none" d="M31 16c0 1.05-6.59 12.465-7.5 12.99-.91.525-14.09.525-15 0C7.59 28.465 1 17.05 1 16 1 14.95 7.59 3.535 8.5 3.01c.91-.525 14.09-.525 15 0C24.41 3.535 31 14.95 31 16z" display="block" overflow="visible" fill="#f6f5f4" fill-opacity=".099" paint-order="fill markers stroke"/><path style="line-height:normal;font-variant-ligatures:normal;font-variant-position:normal;font-variant-caps:normal;font-variant-numeric:normal;font-variant-alternates:normal;font-feature-settings:normal;text-indent:0;text-align:start;text-decoration-line:none;text-decoration-style:solid;text-decoration-color:#000;text-transform:none;text-orientation:mixed;shape-padding:0;isolation:auto;mix-blend-mode:normal;marker:none" d="M-16-24.662c-1.053 0-2.104.018-2.943.057-.42.02-.784.044-1.085.076-.15.016-.284.033-.415.058-.132.025-.231.019-.495.166-.263.148-.308.236-.396.334-.088.098-.17.2-.26.32-.179.236-.382.53-.61.874a62.914 62.914 0 0 0-1.522 2.446 62.62 62.62 0 0 0-1.42 2.504c-.192.362-.354.68-.476.95a4.72 4.72 0 0 0-.155.378c-.044.123-.1.204-.1.499 0 .295.056.376.1.5.043.122.094.243.155.378.122.269.284.587.476.95.385.724.893 1.617 1.42 2.503.336.566.67 1.106.993 1.617l-1.372 4.385 3.442-1.907c.084.025.148.031.22.045.131.025.265.042.415.058.3.032.665.056 1.085.076.839.039 1.89.057 2.943.057 1.053 0 2.104-.018 2.943-.057.42-.02.784-.044 1.085-.076.15-.016.284-.033.415-.058.132-.025.231-.019.495-.166.263-.148.308-.236.396-.334.088-.098.17-.2.26-.32.179-.236.382-.53.61-.874.453-.686.995-1.56 1.522-2.446a62.625 62.625 0 0 0 1.42-2.504c.192-.362.353-.68.475-.95.061-.134.113-.255.156-.378.044-.123.1-.204.1-.499 0-.295-.056-.376-.1-.5a4.735 4.735 0 0 0-.156-.378 17.555 17.555 0 0 0-.475-.95 62.624 62.624 0 0 0-1.42-2.503 62.926 62.926 0 0 0-1.523-2.446 17.75 17.75 0 0 0-.61-.875 4.817 4.817 0 0 0-.259-.32c-.088-.097-.133-.185-.396-.333-.264-.147-.363-.14-.495-.166a5.08 5.08 0 0 0-.415-.058c-.3-.032-.666-.056-1.085-.076A67.025 67.025 0 0 0-16-24.662zm0 1.97c1.028 0 2.058.02 2.847.056.114.005.175.013.278.02l-3.143 4.678-3.181-4.674c.126-.008.207-.017.352-.024A65.47 65.47 0 0 1-16-22.691zm4.969 1.72a68.67 68.67 0 0 1 2.373 4.048c.181.34.329.634.422.84l.035.084-.035.084c-.093.206-.24.5-.422.84a66.13 66.13 0 0 1-2.51 4.26l-3.365-4.942zm-9.974.057l3.517 5.166-3.33 4.956a65.867 65.867 0 0 1-1.15-1.861 61.248 61.248 0 0 1-1.375-2.422c-.18-.34-.328-.634-.42-.84-.018-.039-.023-.052-.036-.084l.035-.084c.093-.206.24-.5.421-.84a69.464 69.464 0 0 1 2.337-3.99zm5.001 7.346l2.862 4.204-.011.001c-.789.037-1.82.055-2.847.055a65.66 65.66 0 0 1-2.83-.054z" font-weight="400" font-family="sans-serif" white-space="normal" display="block" overflow="visible" fill="url(#g)" paint-order="fill markers stroke" transform="translate(32 32)"/><path d="M29 16c0 .91-5.712 10.803-6.5 11.258-.788.455-12.212.455-13 0C8.712 26.803 3 16.91 3 16c0-.91 5.712-10.803 6.5-11.258.788-.455 12.212-.455 13 0C23.288 5.197 29 15.09 29 16z" style="isolation:auto;mix-blend-mode:normal;marker:none" display="block" overflow="visible" fill="#f6f5f4" fill-opacity=".099" paint-order="fill markers stroke"/></g></svg>