<svg xmlns="http://www.w3.org/2000/svg" xmlns:xlink="http://www.w3.org/1999/xlink" height="32" viewBox="0 0 32 32" width="32"><title>Template icons dark</title><defs><linearGradient id="a"><stop offset="0" stop-color="#4d77d3"/><stop offset=".453" stop-color="#767294"/><stop offset="1" stop-color="#a6659c"/></linearGradient><linearGradient id="b"><stop offset="0" stop-color="#0b1528"/><stop offset="1" stop-color="#473d49"/></linearGradient><linearGradient xlink:href="#a" id="d" x1="53.271" y1="55.429" x2="-10.45" y2="-7.238" gradientUnits="userSpaceOnUse" gradientTransform="matrix(.4007 0 0 .41727 -25.583 -25.733)"/><linearGradient xlink:href="#b" id="c" x1="26.4" y1="60.613" x2="26.4" y2="-12.187" gradientUnits="userSpaceOnUse" gradientTransform="matrix(.37087 0 0 .37527 -24.97 -25.003)"/></defs><g color="#000" transform="translate(32 32)"><rect ry="1.615" y="-31.018" x="-32.091" height="30" width="32" style="isolation:auto;mix-blend-mode:normal;marker:none" overflow="visible" fill-opacity=".077"/><rect style="isolation:auto;mix-blend-mode:normal;marker:none" width="29.889" height="27.889" x="-31.035" y="-29.963" ry="1.501" overflow="visible" fill="url(#c)" stroke="#000" stroke-width=".111" stroke-opacity=".471"/><rect style="isolation:auto;mix-blend-mode:normal;marker:none" width="29" height="27" x="-30.591" y="-29.519" ry="1.012" overflow="visible" fill="none" stroke="url(#d)"/><path style="isolation:auto;mix-blend-mode:normal;marker:none" d="M-26-25.926h2.37V-20H-26z" display="block" overflow="visible" fill="#94d59b"/><path style="isolation:auto;mix-blend-mode:normal;marker:none" d="M-27.778-27.11h2.37l-.018.593-1.76-.002v7.11l1.76.003v.591h-2.352z" display="block" overflow="visible" fill="#fff" fill-opacity=".247"/><path style="isolation:auto;mix-blend-mode:normal;marker:none" d="M-22.445-25.926h2.37V-20h-2.37zM-18.89-25.926h2.371V-20h-2.37z" display="block" overflow="visible" fill="#94d59b"/><path style="isolation:auto;mix-blend-mode:normal;marker:none" d="M-15.334-25.926h2.37V-20h-2.37z" display="block" overflow="visible" fill="#94ccd5"/><path style="isolation:auto;mix-blend-mode:normal;marker:none" d="M-11.778-25.926h2.37V-20h-2.37z" display="block" overflow="visible" fill="#d594c7"/><path style="isolation:auto;mix-blend-mode:normal;marker:none" d="M-26-14.667h2.37v5.926H-26z" display="block" overflow="visible" fill="#94d59b"/><path d="M-27.778-15.852h2.37l-.018.594-1.76-.003v7.11l1.76.004v.591h-2.352z" style="isolation:auto;mix-blend-mode:normal;marker:none" display="block" overflow="visible" fill="#fff" fill-opacity=".247"/><path style="isolation:auto;mix-blend-mode:normal;marker:none" d="M-22.445-14.667h2.37v5.926h-2.37z" display="block" overflow="visible" fill="#94ccd5"/><path style="isolation:auto;mix-blend-mode:normal;marker:none" d="M-18.89-14.667h2.371v5.926h-2.37z" display="block" overflow="visible" fill="#d594c7"/></g></svg>