<svg xmlns="http://www.w3.org/2000/svg" xmlns:xlink="http://www.w3.org/1999/xlink" height="32" viewBox="0 0 32 32" width="32"><title>Template icons dark</title><defs><linearGradient id="a"><stop offset="0" stop-color="#3b173b"/><stop offset="1" stop-color="#1c2d4c"/></linearGradient><linearGradient gradientTransform="translate(-31.989 -32.623) scale(.66667)" xlink:href="#a" id="b" x1="2" y1="35.339" x2="46" y2="35.339" gradientUnits="userSpaceOnUse"/></defs><path d="M16.563 1.91c-.877.189-3.116 4.674-3.116 4.674s-2.728 4.03-5.23 4.876c-2.21.747-6.872 3.917-6.872 3.917L16.01 28.71l14.667-13.333C22.047 9.078 22.108 9.97 16.563 1.91z" fill="#535363"/><path d="M7.293 12.169c.668.563 1.974-.1 1.865 1.136.134.689.352 2.355 1.283 1.289.38-.996 1.67-1.105 1.848.074.374.642.487 1.923 1.435 1.165.894-.19 1.905-1.153 2.757-.406.78.299 1.49 1.336 2.361 1.009.9-.534 1.435-1.746 2.632-1.693 1.03-.043 1.979.703 2.229 1.699.537.915 1.575 1.7 2.676 1.685.897-.216 3.159-1.508 3.845-2.18-3.328-2.227-9.333-6.118-14.263-13.707-.643.804-1.353 1.898-1.931 2.818-.567.945-.85 2.058-1.679 2.822-2.044 2.408-2.702 3.39-5.058 4.289z" fill-opacity=".319"/><path d="M7.747 11.599c.668.563 1.974-.1 1.865 1.136.134.689.352 2.354 1.282 1.288.382-.995 1.671-1.104 1.85.075.373.642.486 1.923 1.434 1.165.894-.19 1.905-1.153 2.757-.406.78.299 1.49 1.336 2.361 1.009.9-.534 1.435-1.746 2.632-1.694 1.03-.042 1.979.704 2.229 1.7.537.915 1.575 1.7 2.676 1.685.897-.216 3.158-1.508 3.845-2.18C27.35 13.15 21.345 9.259 16.415 1.67c-.643.803-1.353 1.898-1.931 2.817-.567.946-.85 2.06-1.679 2.823-2.044 2.408-2.702 3.39-5.058 4.289z" fill="#f0f0ef"/><path d="M17.143 7.282c-.403.71-1.128 1.204-1.502 1.907.601.461 1.54.81 1.764 1.698-.74.32-.928 1.24-.66 1.937.006.916-.944 1.389-1.605 1.83-.417.408-1.556 1.54-1.325 2.16 1.4.958 3.503-.91 5.077-.25.736.704-2.953 2.239-4.296 4.297 1.759.48 5.169.002 4.964 1.132-3.549 2.717-3.549 6.717-3.549 6.717l14.667-13.333c-5.627-4-9.333-6.428-14.115-13.467.792 2.192 1.027 4.315.58 5.372z" fill-opacity=".215"/><path d="M7.034 18.693l-.02.012.022-.005z" fill="#545374"/><path d="M-30.655-16.623L-15.99-3.29l14.667-13.333-14.667 16z" fill="url(#b)" fill-rule="evenodd" transform="translate(32 32)"/><path d="M9.604 6.666l6.863-5.075" fill-opacity=".215" fill-rule="evenodd" stroke="#eed3fc" stroke-width=".367"/><path style="isolation:auto;mix-blend-mode:normal;marker:none" d="M10.3 6.585a.71.71 0 0 1-.711.71.71.71 0 0 1-.71-.71.71.71 0 0 1 .71-.71.71.71 0 0 1 .71.71zM25.06 4.593a.71.71 0 0 1-.71.71.71.71 0 0 1-.71-.71.71.71 0 0 1 .71-.71.71.71 0 0 1 .71.71z" color="#000" display="block" overflow="visible" fill="none" stroke="#fefbfb" stroke-width=".254" stroke-linecap="round" paint-order="fill markers stroke"/><path d="M16.498 1.695L24.5 4.67" fill-opacity=".215" fill-rule="evenodd" stroke="#eed3fc" stroke-width=".367"/><path d="M16.563 1.91c-.877.189-3.116 4.674-3.116 4.674s-2.728 4.03-5.23 4.876c-2.21.747-6.872 3.917-6.872 3.917L16.01 28.71l14.667-13.333C22.047 9.078 22.108 9.97 16.563 1.91z" fill="none" stroke="#fc4f4f" stroke-width=".219" stroke-opacity=".916"/><path style="isolation:auto;mix-blend-mode:normal;marker:none" d="M.771 14.686h1.26v1.26H.771zM15.376 27.747h1.26v1.26h-1.26zM29.98 14.646h1.26v1.26h-1.26zM15.804.873h1.26v1.26h-1.26z" color="#000" display="block" overflow="visible" fill="#dedede" paint-order="fill markers stroke"/></svg>