<svg xmlns:osb="http://www.openswatchbook.org/uri/2009/osb" xmlns="http://www.w3.org/2000/svg" xmlns:xlink="http://www.w3.org/1999/xlink" height="32" viewBox="0 0 32 32" width="32"><title>Template icons dark</title><defs><linearGradient id="h" osb:paint="solid"><stop offset="0" stop-color="#65748c"/></linearGradient><linearGradient id="g" osb:paint="solid"><stop offset="0" stop-opacity=".196"/></linearGradient><linearGradient id="f" osb:paint="solid"><stop offset="0" stop-color="#fff" stop-opacity=".782"/></linearGradient><linearGradient id="e" osb:paint="solid"><stop offset="0" stop-opacity=".078"/></linearGradient><linearGradient id="d" osb:paint="solid"><stop offset="0" stop-opacity=".157"/></linearGradient><linearGradient id="b"><stop offset="0" stop-color="#fff"/><stop offset="1" stop-color="#dfdfdf"/></linearGradient><linearGradient id="a"><stop offset="0" stop-color="#f0f0f0"/><stop offset="1" stop-color="#fff"/></linearGradient><linearGradient id="c"><stop offset="0" stop-opacity="0"/><stop offset="1" stop-opacity=".102"/></linearGradient><linearGradient xlink:href="#a" id="j" gradientUnits="userSpaceOnUse" gradientTransform="matrix(.74629 0 0 .7469 -33.962 -33.796)" x1="24.117" y1="4.931" x2="24.058" y2="42.556"/><linearGradient xlink:href="#b" id="l" gradientUnits="userSpaceOnUse" gradientTransform="matrix(.8529 0 0 .7469 -37.49 -33.878)" x1="28.713" y1="15.703" x2="25.196" y2="18.581"/><linearGradient xlink:href="#d" id="i" x1="126" y1="161.5" x2="194" y2="161.5" gradientUnits="userSpaceOnUse"/><linearGradient xlink:href="#g" id="k" x1="166" y1="133.472" x2="193" y2="133.472" gradientUnits="userSpaceOnUse"/><linearGradient xlink:href="#h" id="s" gradientUnits="userSpaceOnUse" x1="-53" y1="-43.5" x2="-35" y2="-43.5"/><linearGradient xlink:href="#h" id="r" gradientUnits="userSpaceOnUse" x1="-53" y1="-43.5" x2="-35" y2="-43.5"/><linearGradient xlink:href="#h" id="q" gradientUnits="userSpaceOnUse" x1="-53" y1="-43.5" x2="-35" y2="-43.5"/><linearGradient xlink:href="#h" id="p" gradientUnits="userSpaceOnUse" x1="-53" y1="-43.5" x2="-35" y2="-43.5"/><linearGradient xlink:href="#h" id="o" gradientUnits="userSpaceOnUse" x1="-53" y1="-43.5" x2="-35" y2="-43.5"/><linearGradient xlink:href="#h" id="n" gradientUnits="userSpaceOnUse" x1="-53" y1="-43.5" x2="-35" y2="-43.5"/><linearGradient xlink:href="#h" id="v" gradientUnits="userSpaceOnUse" x1="-53" y1="-43.5" x2="-35" y2="-43.5"/><linearGradient xlink:href="#h" id="u" gradientUnits="userSpaceOnUse" x1="-53" y1="-43.5" x2="-35" y2="-43.5"/><linearGradient xlink:href="#h" id="D" gradientUnits="userSpaceOnUse" x1="-53" y1="-43.5" x2="-35" y2="-43.5"/><linearGradient xlink:href="#h" id="C" gradientUnits="userSpaceOnUse" x1="-53" y1="-43.5" x2="-35" y2="-43.5"/><linearGradient xlink:href="#h" id="B" gradientUnits="userSpaceOnUse" x1="-53" y1="-43.5" x2="-35" y2="-43.5"/><linearGradient xlink:href="#h" id="A" gradientUnits="userSpaceOnUse" x1="-53" y1="-43.5" x2="-35" y2="-43.5"/><linearGradient xlink:href="#h" id="z" gradientUnits="userSpaceOnUse" x1="-53" y1="-43.5" x2="-35" y2="-43.5"/><linearGradient xlink:href="#h" id="y" gradientUnits="userSpaceOnUse" x1="-53" y1="-43.5" x2="-35" y2="-43.5"/><linearGradient xlink:href="#h" id="F" gradientUnits="userSpaceOnUse" x1="-53" y1="-43.5" x2="-35" y2="-43.5"/><linearGradient xlink:href="#h" id="K" gradientUnits="userSpaceOnUse" x1="-53" y1="-43.5" x2="-35" y2="-43.5"/><linearGradient xlink:href="#h" id="J" gradientUnits="userSpaceOnUse" x1="-53" y1="-43.5" x2="-35" y2="-43.5"/><linearGradient xlink:href="#h" id="I" gradientUnits="userSpaceOnUse" x1="-53" y1="-43.5" x2="-35" y2="-43.5"/><linearGradient xlink:href="#h" id="H" gradientUnits="userSpaceOnUse" x1="-53" y1="-43.5" x2="-35" y2="-43.5"/><linearGradient xlink:href="#h" id="G" gradientUnits="userSpaceOnUse" x1="-53" y1="-43.5" x2="-35" y2="-43.5"/><linearGradient xlink:href="#h" id="E" gradientUnits="userSpaceOnUse" x1="-53" y1="-43.5" x2="-35" y2="-43.5"/><linearGradient xlink:href="#h" id="x" gradientUnits="userSpaceOnUse" x1="-53" y1="-43.5" x2="-35" y2="-43.5"/><linearGradient xlink:href="#h" id="w" gradientUnits="userSpaceOnUse" x1="-53" y1="-43.5" x2="-35" y2="-43.5"/><linearGradient xlink:href="#h" id="t" gradientUnits="userSpaceOnUse" x1="-53" y1="-43.5" x2="-35" y2="-43.5"/><linearGradient xlink:href="#h" id="m" gradientUnits="userSpaceOnUse" x1="-53" y1="-43.5" x2="-35" y2="-43.5"/></defs><path style="isolation:auto;mix-blend-mode:normal;marker:none" d="M-28-31h15l9 9v21h-24z" color="#000" overflow="visible" fill="url(#i)" paint-order="fill markers stroke" transform="translate(32 32)"/><path d="M-27-30h14l8 8v20h-22z" style="isolation:auto;mix-blend-mode:normal;marker:none" color="#000" overflow="visible" fill="url(#j)" paint-order="fill markers stroke" transform="translate(32 32)"/><path d="M-13-30l8 8v1h-9v-9z" fill="url(#k)" fill-rule="evenodd" transform="translate(32 32)"/><path d="M-13-30l8 8h-8z" fill="url(#l)" fill-rule="evenodd" transform="translate(32 32)"/><g transform="matrix(.7264 0 0 .7264 3.274 -5.43)" style="marker:none" fill="url(#m)" stroke-width=".514" paint-order="fill markers stroke"><g transform="translate(-47.291)" style="marker:none" fill="url(#t)" paint-order="fill markers stroke"><g transform="matrix(.8091 0 0 .8091 36.38 10.004)" style="marker:none" fill="url(#x)" stroke-width=".635" paint-order="fill markers stroke"><g style="marker:none" transform="matrix(1.99877 0 0 1.99877 18.097 -2059.514)" fill="url(#E)" stroke-width=".318" paint-order="fill markers stroke"><path style="marker:none" d="M408.996 530.996l-5.244 6.733c-.983 1.263-.708 3.511.55 4.498 1.259.986 3.5.71 4.484-.553l5.244-6.732.655-.842c.656-.842.472-2.34-.367-2.998-.839-.658-2.333-.474-2.989.368l-.655.842-3.933 5.05-.656.84c-.327.422-.236 1.171.184 1.5.42.329 1.167.237 1.494-.184l4.589-5.891.839.657-4.589 5.891c-.655.842-2.15 1.026-2.989.368-.839-.657-1.022-2.156-.367-2.998l.656-.841 4.588-5.892c.984-1.262 3.225-1.538 4.484-.552 1.258.987 1.534 3.235.55 4.498l-.655.841-5.244 6.733c-1.311 1.683-4.3 2.051-5.978.736-1.678-1.315-2.045-4.313-.734-5.996l5.244-6.733z" fill="url(#K)" paint-order="fill markers stroke" transform="matrix(.78637 0 0 .78395 -313.948 623.62)" stroke-width=".405"/></g></g></g></g></svg>