<svg xmlns:osb="http://www.openswatchbook.org/uri/2009/osb" xmlns="http://www.w3.org/2000/svg" xmlns:xlink="http://www.w3.org/1999/xlink" height="32" viewBox="0 0 32 32" width="32" id="svg2"><title id="title4675">Template icons dark</title><defs id="defs22"><linearGradient id="linearGradient9052"><stop offset="0" id="stop9048" stop-opacity=".411"/><stop offset="1" id="stop9050" stop-opacity=".516"/></linearGradient><linearGradient id="linearGradient9046"><stop id="stop9042" offset="0" stop-color="#efefef"/><stop id="stop9044" offset="1" stop-color="#adadad"/></linearGradient><linearGradient id="linearGradient7841"><stop offset="0" id="stop7837" stop-color="#00a500"/><stop offset="1" id="stop7839" stop-color="#00a51a"/></linearGradient><linearGradient id="linearGradient7833"><stop offset="0" id="stop7829" stop-color="#fff" stop-opacity=".057"/><stop offset="1" id="stop7831" stop-color="#fff" stop-opacity=".13"/></linearGradient><linearGradient id="linearGradient7827"><stop id="stop7823" offset="0" stop-color="#f7f7f7"/><stop id="stop7825" offset="1" stop-color="#e2e2e2"/></linearGradient><linearGradient id="linearGradient7819"><stop offset="0" id="stop7815" stop-color="#e3e3e3"/><stop offset="1" id="stop7817" stop-color="#939393"/></linearGradient><linearGradient xlink:href="#linearGradient7827" id="linearGradient7785" x1="160" y1="137" x2="160" y2="188" gradientUnits="userSpaceOnUse"/><linearGradient xlink:href="#linearGradient9046" id="linearGradient7821" x1="160.063" y1="120" x2="160.063" y2="204" gradientUnits="userSpaceOnUse"/><linearGradient xlink:href="#linearGradient7833" id="linearGradient7835" x1="178" y1="117" x2="193" y2="136" gradientUnits="userSpaceOnUse"/><linearGradient xlink:href="#linearGradient7841" id="linearGradient7843" x1="171.402" y1="117.454" x2="193" y2="136" gradientUnits="userSpaceOnUse"/><linearGradient gradientTransform="translate(-35.934 -35.408) scale(.7191)" xlink:href="#linearGradient7827" id="linearGradient7785-2" x1="160" y1="137" x2="160" y2="188" gradientUnits="userSpaceOnUse"/><linearGradient gradientTransform="translate(-35.934 -35.408) scale(.7191)" xlink:href="#linearGradient7819" id="linearGradient7821-8" x1="160.063" y1="118.739" x2="160.063" y2="204" gradientUnits="userSpaceOnUse"/><linearGradient gradientTransform="translate(-35.934 -35.408) scale(.7191)" xlink:href="#linearGradient7841" id="linearGradient7843-2" x1="171.402" y1="117.454" x2="193.205" y2="136.848" gradientUnits="userSpaceOnUse"/><linearGradient gradientTransform="translate(-35.934 -35.408) scale(.7191)" xlink:href="#linearGradient7833" id="linearGradient7835-3" x1="178" y1="117" x2="193.205" y2="136.848" gradientUnits="userSpaceOnUse"/><linearGradient gradientTransform="matrix(1.34831 0 0 1.34831 55.37 56.159)" xlink:href="#linearGradient7827" id="linearGradient7785-29" x1="160" y1="137" x2="160" y2="188" gradientUnits="userSpaceOnUse"/><linearGradient gradientTransform="matrix(1.34831 0 0 1.34831 55.37 56.159)" xlink:href="#linearGradient7819" id="linearGradient7821-9" x1="159.708" y1="120.211" x2="160.063" y2="204" gradientUnits="userSpaceOnUse"/><linearGradient xlink:href="#linearGradient7841" id="linearGradient8962" gradientUnits="userSpaceOnUse" x1="171.402" y1="117.454" x2="193" y2="136"/><linearGradient xlink:href="#linearGradient9052" id="linearGradient9054" x1="160" y1="119" x2="160" y2="201.575" gradientUnits="userSpaceOnUse"/><linearGradient xlink:href="#linearGradient7819" id="linearGradient9397" gradientUnits="userSpaceOnUse" gradientTransform="translate(-35.934 -35.408) scale(.7191)" x1="79.174" y1="52.02" x2="79.174" y2="110.426"/><linearGradient gradientTransform="translate(100 98)" xlink:href="#linearGradient9052" id="linearGradient9054-3" x1="160" y1="119" x2="160" y2="201.575" gradientUnits="userSpaceOnUse"/><linearGradient xlink:href="#linearGradient9052" id="linearGradient7937" gradientUnits="userSpaceOnUse" x1="79.843" y1="50.497" x2="79.843" y2="108"/><linearGradient gradientTransform="translate(-90.934 -84.408) scale(.7191)" xlink:href="#linearGradient7827" id="linearGradient7785-2-7" x1="160" y1="137" x2="160" y2="188" gradientUnits="userSpaceOnUse"/><linearGradient xlink:href="#linearGradient7827" id="linearGradient7867" gradientUnits="userSpaceOnUse" gradientTransform="translate(-35.934 -35.408) scale(.7191)" x1="79.623" y1="54.801" x2="79.623" y2="108.504"/><linearGradient id="linearGradient9422" osb:paint="solid"><stop offset="0" id="stop9420" stop-color="#a3bfcf"/></linearGradient><linearGradient id="linearGradient7827-6"><stop id="stop7823-2" offset="0" stop-color="#a3bfcf"/><stop id="stop7825-9" offset="1" stop-color="#6d8aa9"/></linearGradient><style id="style51071-8">.str0{stroke:#1f1a17;stroke-width:3}.fil0{fill:none}</style><style id="style2031-6">.str0{stroke:#1f1a17;stroke-width:.0762}.fil0,.fil1{fill:none}.fil1{fill-rule:nonzero}</style><style id="style5368-2">.str0,.str1{stroke:#000;stroke-width:63}.str1{stroke:#09098f}.fil5{fill:none}.fil1,.fil2{fill:#000}.fil3{fill:#4d66cc}.fil0{fill:#576ecd}.fil4{fill:#89a1d4}</style><style id="style51071">.str0{stroke:#1f1a17;stroke-width:3}.fil0{fill:none}</style><style id="style2031">.str0{stroke:#1f1a17;stroke-width:.0762}.fil0,.fil1{fill:none}.fil1{fill-rule:nonzero}</style><style id="style5368">.str0,.str1{stroke:#000;stroke-width:63}.str1{stroke:#09098f}.fil5{fill:none}.fil1,.fil2{fill:#000}.fil3{fill:#4d66cc}.fil0{fill:#576ecd}.fil4{fill:#89a1d4}</style></defs><g id="g7816" transform="translate(32 32)"><g id="g7814"><path id="path9155-8-3-1" d="M-27.976-29L-28-3l2.024 2h20l2-2.007V-18l-13-13h-9zm11-1l12 12v14.982l-1 1.018h-20l-1-1.008V-29l1.004-1z" style="line-height:normal;font-variant-ligatures:normal;font-variant-position:normal;font-variant-caps:normal;font-variant-numeric:normal;font-variant-alternates:normal;font-feature-settings:normal;text-indent:0;text-align:start;text-decoration-line:none;text-decoration-style:solid;text-decoration-color:#000;text-transform:none;text-orientation:mixed;shape-padding:0;isolation:auto;mix-blend-mode:normal;marker:none" color="#000" font-weight="400" font-family="sans-serif" white-space="normal" overflow="visible" fill="#0b0b0b" fill-opacity=".157" stroke-width="1.954" paint-order="fill markers stroke"/><path style="isolation:auto;mix-blend-mode:normal;marker:none" d="M-16.976-30l12 12v15l-1 1h-20l-1-1.008V-29l1.004-1z" id="rect7756-7-0-8-2" color="#000" display="block" overflow="visible" fill="#fff" fill-opacity=".995" stroke-width=".071" paint-order="fill markers stroke"/><path style="marker:none" d="M-14.976-31l11 11.189v-9.181l-2-2.008z" id="path9157-4-6-0" fill-opacity=".177" fill-rule="evenodd" stroke-width="1.954" paint-order="fill markers stroke"/><path id="path9009-5-3-8-9" d="M-12.976-30l8 8v-6.969l-1-1.031z" fill="#00a500" fill-rule="evenodd" stroke-width=".351"/><path id="path8019-2-7-1" d="M-25.976-28v24l1.016 1h17.984l1-1v-14l-11-11h-8zm1 0h8l10 10v14h-18z" style="line-height:normal;font-variant-ligatures:normal;font-variant-position:normal;font-variant-caps:normal;font-variant-numeric:normal;font-variant-alternates:normal;font-feature-settings:normal;text-indent:0;text-align:start;text-decoration-line:none;text-decoration-style:solid;text-decoration-color:#000;text-transform:none;text-orientation:mixed;shape-padding:0;isolation:auto;mix-blend-mode:normal" color="#000" font-weight="400" font-family="sans-serif" white-space="normal" overflow="visible" fill="#fff" fill-opacity=".235" fill-rule="evenodd"/><path d="M-12.976-30l1 1h6v6l1 1v-6.969l-1-1.031z" id="path8304" fill="#fff" fill-opacity=".37" fill-rule="evenodd"/><path style="-inkscape-font-specification:Vegur" d="M-21.954-16.194v2.8h.507l.012-.221h.008c.163.183.326.26.593.26.504 0 .837-.455.837-1.023 0-.548-.299-.952-.814-.952a.774.774 0 0 0-.616.26h-.008v-1.124zm-.637.14a.298.298 0 0 0-.298.3c0 .167.131.3.298.3a.3.3 0 0 0 0-.6zm-2.273.024v2.637h1.7v-.4h-1.182v-2.237zm6.26.7a.733.733 0 0 0-.593.377h-.008l-.012-.339h-.508v1.899h.52v-.716c0-.381.07-.517.19-.603.104-.074.228-.105.399-.113zm1.127 0c-.597 0-.98.412-.98 1.038 0 .611.395.938.98.938.275 0 .468-.044.65-.125l-.054-.39c-.17.07-.344.114-.53.114-.314 0-.516-.144-.535-.44h1.228c.016-.07.023-.179.023-.26 0-.471-.287-.875-.782-.875zm-5.373.038v1.899h.519v-1.899zm1.842.362c.31 0 .464.222.464.583 0 .358-.15.592-.457.592-.267 0-.434-.21-.434-.545v-.085c0-.327.148-.545.427-.545zm3.476 0c.225 0 .33.183.337.377h-.732c.039-.218.19-.377.395-.377z" id="path3245-2-6-4" font-weight="400" font-size="67.562" font-family="Vegur" fill="#18a303" stroke-width=".057"/><path style="-inkscape-font-specification:Vegur" d="M-12.628-16.233c-.46 0-.724.3-.724.837v.12h-.306v.249h.306v1.634h.326v-1.634h.756v1.634h.326v-1.634h.48v-.25h-.48v-.17c0-.339.143-.537.402-.537.12 0 .198.02.271.047l.031-.241a.98.98 0 0 0-.306-.055c-.46 0-.724.3-.724.837v.12h-.756v-.171c0-.339.143-.537.402-.537.12 0 .198.02.271.047l.032-.241a.98.98 0 0 0-.307-.055zm-2.49.164c-.698 0-1.271.51-1.271 1.357 0 .848.573 1.358 1.27 1.358.698 0 1.27-.51 1.27-1.358 0-.848-.572-1.357-1.27-1.357zm4.193.112a.2.2 0 0 0-.201.202.201.201 0 1 0 .403 0 .2.2 0 0 0-.202-.202zm-4.194.152c.52 0 .914.39.914 1.093 0 .704-.394 1.093-.914 1.093-.519 0-.914-.389-.914-1.093s.395-1.093.914-1.093zm5.711.49c-.58 0-1.018.354-1.018 1.015 0 .622.395.946.918.946.232 0 .399-.028.588-.11l-.03-.248a1.221 1.221 0 0 1-.5.109c-.376 0-.636-.238-.636-.74 0-.474.283-.723.651-.723.194 0 .365.046.504.113l.03-.249a1.182 1.182 0 0 0-.507-.113zm1.619 0c-.523 0-.906.435-.906 1.015 0 .638.383.946.906.946.232 0 .407-.035.589-.11l-.03-.248c-.144.07-.35.109-.513.109-.375 0-.62-.23-.627-.658h1.306a1.63 1.63 0 0 0 .01-.186c0-.483-.251-.868-.735-.868zm-3.299.039v1.883h.326v-1.883zm3.272.21c.286 0 .441.237.441.549h-.98c.047-.331.229-.549.539-.549z" id="path3255-0-1-9" font-weight="400" font-size="67.562" font-family="Vegur" stroke-width=".057"/></g></g></svg>