<svg xmlns="http://www.w3.org/2000/svg" xmlns:xlink="http://www.w3.org/1999/xlink" height="32" viewBox="0 0 32 32" width="32"><title>Template icons dark</title><defs><linearGradient id="a"><stop offset="0" stop-color="#fff" stop-opacity=".427"/><stop offset=".423" stop-color="#fafcfe"/><stop offset="1" stop-color="#fff" stop-opacity=".49"/></linearGradient><linearGradient id="d"><stop offset="0" stop-color="#fe54ba"/><stop offset="1" stop-color="#722f98" stop-opacity=".995"/></linearGradient><linearGradient id="b"><stop offset="0" stop-color="#6a1262" stop-opacity=".611"/><stop offset="1" stop-color="#d75dea" stop-opacity=".979"/></linearGradient><linearGradient id="e"><stop offset="0" stop-color="#fff" stop-opacity=".179"/><stop offset="1" stop-color="#fff" stop-opacity=".795"/></linearGradient><linearGradient id="c"><stop offset="0" stop-color="#fff" stop-opacity=".526"/><stop offset=".446" stop-color="#fff" stop-opacity=".737"/><stop offset=".476" stop-color="#fff"/><stop offset=".503" stop-color="#fff" stop-opacity=".718"/><stop offset="1" stop-color="#fff" stop-opacity=".495"/></linearGradient><linearGradient xlink:href="#d" id="f" gradientUnits="userSpaceOnUse" x1="16.791" y1="294.048" x2="16.839" y2="271.451"/><linearGradient xlink:href="#b" id="j" gradientUnits="userSpaceOnUse" x1="16.907" y1="265.033" x2="17.034" y2="278.562"/><linearGradient gradientTransform="translate(-32.801 -294.884) scale(.99317)" xlink:href="#c" id="m" x1="7.403" y1="282" x2="27.388" y2="282.145" gradientUnits="userSpaceOnUse"/><linearGradient xlink:href="#d" id="g" gradientUnits="userSpaceOnUse" x1="16.791" y1="294.048" x2="16.839" y2="271.451"/><linearGradient xlink:href="#d" id="h" gradientUnits="userSpaceOnUse" x1="16.791" y1="294.048" x2="16.839" y2="271.451"/><linearGradient xlink:href="#d" id="i" gradientUnits="userSpaceOnUse" x1="16.791" y1="294.048" x2="16.839" y2="271.451"/><linearGradient xlink:href="#d" id="k" gradientUnits="userSpaceOnUse" x1="16.791" y1="294.048" x2="16.839" y2="271.451"/><linearGradient xlink:href="#d" id="l" gradientUnits="userSpaceOnUse" x1="16.791" y1="294.048" x2="16.839" y2="271.451"/></defs><g transform="translate(-.801 -262.884) scale(.99317)" style="isolation:auto;mix-blend-mode:normal;marker:none" color="#000" overflow="visible" fill="url(#f)" stroke-width=".265" stroke-opacity=".984"><path d="M2.483 267.972v16.009l14.463-1.73v-17.562z" fill="url(#g)"/><path d="M2.483 283.98l14.45 12.929 14.46-12.94-14.447-1.719z" fill="url(#h)" fill-rule="evenodd" stroke-linejoin="round"/><path d="M16.946 264.69l14.448 3.277v16.003l-14.448-1.72z" fill="url(#i)" fill-rule="evenodd" stroke-linejoin="round"/><path d="M2.483 267.972l14.45 11.329 14.46-11.334-14.447-3.278z" fill="url(#j)"/><path d="M16.932 279.3v17.609l14.462-12.94v-16.002z" fill="url(#k)" fill-rule="evenodd" stroke-linejoin="round"/><path d="M2.483 267.972l14.45 11.329v17.608l-14.45-12.928z" fill="url(#l)" fill-rule="evenodd" stroke-linejoin="round"/></g><path d="M4.162 5.399V21.38l1.236 1.118V8.08l10.618 7.964L26.633 8.08v14.411l1.236-1.11V5.399l-11.853 8.89z" fill="#3f2c48" fill-opacity=".347" fill-rule="evenodd" stroke-width=".352"/><path d="M-26.602-9.505V-23.92l10.618 7.963 10.617-7.963v14.415l-5.309 4.761v-8.558l-5.308 5.308-5.31-5.308v8.558z" fill="url(#m)" fill-rule="evenodd" stroke-width=".315" transform="translate(32 32)"/><path style="line-height:normal;font-variant-ligatures:normal;font-variant-position:normal;font-variant-caps:normal;font-variant-numeric:normal;font-variant-alternates:normal;font-feature-settings:normal;text-indent:0;text-align:start;text-decoration-line:none;text-decoration-style:solid;text-decoration-color:#000;text-transform:none;text-orientation:mixed;shape-padding:0;isolation:auto;mix-blend-mode:normal" d="M10.865 27.392V19.08l5.15 5.15 5.152-5.15v8.31l.315-.283v-8.79l-5.467 5.467-5.466-5.467v8.79zM5.555 8.395l10.46 7.845 10.461-7.845V22.64l.314-.25V7.766l-10.775 8.081L5.24 7.765v14.59l.315.284z" color="#000" font-weight="400" font-family="sans-serif" white-space="normal" overflow="visible" fill="#fff" fill-rule="evenodd" stroke-width=".315"/></svg>