<svg xmlns:osb="http://www.openswatchbook.org/uri/2009/osb" xmlns="http://www.w3.org/2000/svg" xmlns:xlink="http://www.w3.org/1999/xlink" height="32" viewBox="0 0 32 32" width="32"><title>Template icons dark</title><defs><linearGradient id="e"><stop offset="0" stop-color="#a2f2e6"/><stop offset="1" stop-color="#77d6f5"/></linearGradient><linearGradient id="d"><stop offset="0" stop-color="#2384a9"/><stop offset="1" stop-color="#25ada9" stop-opacity=".953"/></linearGradient><linearGradient id="c" osb:paint="solid"><stop offset="0" stop-opacity=".134"/></linearGradient><linearGradient id="b" osb:paint="solid"><stop offset="0" stop-color="#fff" stop-opacity=".028"/></linearGradient><linearGradient id="a"><stop offset="0" stop-opacity=".036"/><stop offset="1" stop-color="#afe4ff" stop-opacity=".042"/></linearGradient><linearGradient gradientTransform="translate(-74.19 -74.18) scale(.36363)" xlink:href="#d" id="f" x1="191.627" y1="198" x2="186" y2="177" gradientUnits="userSpaceOnUse"/><linearGradient xlink:href="#c" id="h" gradientUnits="userSpaceOnUse" x1="124" y1="154.5" x2="196" y2="154.5" gradientTransform="translate(19.25)"/><linearGradient xlink:href="#b" id="i" gradientUnits="userSpaceOnUse" x1="124" y1="155.5" x2="196" y2="155.5" gradientTransform="translate(19.25)"/><linearGradient xlink:href="#b" id="j" gradientUnits="userSpaceOnUse" gradientTransform="translate(0 -1)" x1="124" y1="155.5" x2="196" y2="155.5"/><linearGradient xlink:href="#c" id="k" gradientUnits="userSpaceOnUse" gradientTransform="translate(0 -1)" x1="124" y1="154.5" x2="196" y2="154.5"/><linearGradient xlink:href="#e" id="g" x1="142" y1="130" x2="187" y2="140" gradientUnits="userSpaceOnUse" gradientTransform="translate(-107.817 -90.82) scale(.54546)"/></defs><path style="isolation:auto;mix-blend-mode:normal;marker:none" d="M5 0h22c1.612 0 3 1.388 3 3v26c0 1.612-1.388 3-3 3H5c-1.612 0-3-1.388-3-3V3c0-1.612 1.388-3 3-3z" color="#000" display="block" overflow="visible" fill-opacity=".141" stroke-width=".803" stroke-miterlimit="0" paint-order="fill markers stroke"/><path style="isolation:auto;mix-blend-mode:normal;marker:none" d="M6 1h20c1.612 0 3 1.388 3 3v24c0 1.612-1.388 3-3 3H6c-1.612 0-3-1.388-3-3V4c0-1.612 1.388-3 3-3z" color="#000" display="block" overflow="visible" fill="#31353f" stroke-width=".803" stroke-miterlimit="0" paint-order="fill markers stroke"/><path style="isolation:auto;mix-blend-mode:normal;marker:none" d="M3 12h26v16c0 1.612-1.388 3-3 3H6c-1.612 0-3-1.388-3-3z" color="#000" overflow="visible" fill="#333842" stroke-width=".93" stroke-miterlimit="0" paint-order="fill markers stroke"/><path style="isolation:auto;mix-blend-mode:normal;marker:none" d="M-15-10v9h9c1.612 0 3-1.429 3-3v-6z" color="#000" display="block" overflow="visible" fill="url(#f)" stroke-width=".93" stroke-miterlimit="0" paint-order="fill markers stroke" transform="translate(32 32)"/><path style="isolation:auto;mix-blend-mode:normal;marker:none" d="M26 1c1.603 0 2.981 1.397 3 3v8H3V4c0-1.603 1.397-2.98 3-3z" color="#000" display="block" overflow="visible" fill-opacity=".198" stroke-width=".803" stroke-miterlimit="0" paint-order="fill markers stroke"/><path style="line-height:1.25;-inkscape-font-specification:'Liberation Sans';text-align:center" d="M9 14v2H7v1h2v2h1v-2h2v-1h-2v-2zm11 2v1h5v-1z" font-weight="400" font-size="2.853" font-family="Liberation Sans" letter-spacing="0" word-spacing="0" text-anchor="middle" fill="#95e7d0" fill-opacity=".698" stroke-width=".889"/><path d="M20 25v1h5v-1zm0 2v1h5v-1z" style="line-height:1.25;-inkscape-font-specification:'Liberation Sans';text-align:center" font-weight="400" font-size="2.853" font-family="Liberation Sans" letter-spacing="0" word-spacing="0" text-anchor="middle" fill="#ecf8fd" fill-opacity=".849" stroke-width=".889"/><path style="line-height:normal;font-variant-ligatures:normal;font-variant-position:normal;font-variant-caps:normal;font-variant-numeric:normal;font-variant-alternates:normal;font-feature-settings:normal;text-indent:0;text-align:start;text-decoration-line:none;text-decoration-style:solid;text-decoration-color:#000;text-transform:none;text-orientation:mixed;shape-padding:0;isolation:auto;mix-blend-mode:normal;marker:none" d="M6 1C4.395 1 3 2.395 3 4v24c0 1.605 1.395 3 3 3h20c1.605 0 3-1.395 3-3V4c0-1.605-1.395-3-3-3zm0 1h20c1.215 0 2 .785 2 2v24c0 1.215-.785 2-2 2H6c-1.215 0-2-.785-2-2V4c0-1.215.785-2 2-2z" color="#000" font-weight="400" font-family="sans-serif" white-space="normal" overflow="visible" fill="#fff" fill-opacity=".073" stroke-width=".727" stroke-miterlimit="0" paint-order="fill markers stroke"/><path style="line-height:1.25;-inkscape-font-specification:'Liberation Sans';text-align:center" d="M-25-28v1h2l-1 2 1 1h-2v1h3v-1l-1-1 1-2v-1zm7 0h-1v1h1v4h1v-5zm4 0l-2 3v1h2v1h1v-5zm3 0l-1 .07v.93h1v4h1v-5zm2 0v3h2v1h-2v1h3v-3h-2v-1h2v-1zm-5 1v2.008L-15-25zm-7 3v1h1v-1z" font-weight="400" font-size="2.853" font-family="Liberation Sans" letter-spacing="0" word-spacing="0" text-anchor="middle" fill="url(#g)" stroke-width=".545" transform="translate(32 32)"/><path style="isolation:auto;mix-blend-mode:normal;marker:none" d="M7 23v1h1v-1zm1 1v1h1v-1zm1 1v1h1v-1zm1 0h1v-1h-1zm1-1h1v-1h-1zm-1 2v1h1v-1zm1 1v1h1v-1zm-2-1H8v1h1zm-1 1H7v1h1z" color="#000" display="block" overflow="visible" fill="#77b2ae" stroke-width=".545" paint-order="fill markers stroke"/><g stroke-width="1.882"><path d="M3 12v1h26v-1z" style="marker:none" fill="#d7fde9" fill-opacity=".047" paint-order="fill markers stroke"/><path d="M157.274 151v52.25h2.75V151z" fill="url(#h)" transform="translate(-42.19 -42.908) scale(.36363)"/><path d="M160.024 151v52.25h2.75V151z" fill="url(#i)" transform="translate(-42.19 -42.908) scale(.36363)"/><path d="M124.274 175.75v2.75h71.5v-2.75z" fill="url(#j)" transform="translate(-42.19 -42.908) scale(.36363)"/><path d="M124.274 173v2.75h71.5V173z" fill="url(#k)" transform="translate(-42.19 -42.908) scale(.36363)"/></g></svg>