<svg xmlns="http://www.w3.org/2000/svg" xmlns:xlink="http://www.w3.org/1999/xlink" height="32" viewBox="0 0 32 32" width="32"><title>Template icons dark</title><defs><linearGradient id="k"><stop offset="0" stop-color="#4c4553"/><stop offset="1" stop-color="#3b3144" stop-opacity=".969"/></linearGradient><linearGradient id="j"><stop offset="0" stop-color="#3d3743"/><stop offset="1" stop-color="#2f2736" stop-opacity=".969"/></linearGradient><linearGradient id="d"><stop offset="0" stop-color="#f87c32"/><stop offset="1" stop-color="#fdab5a" stop-opacity=".996"/></linearGradient><linearGradient id="i"><stop offset="0" stop-color="#fff" stop-opacity=".125"/><stop offset="1" stop-color="#fff" stop-opacity="0"/></linearGradient><linearGradient id="h"><stop offset="0" stop-color="#fff" stop-opacity=".198"/><stop offset="1" stop-color="#fff" stop-opacity="0"/></linearGradient><linearGradient id="g"><stop offset="0" stop-color="#2c3749"/><stop offset="1" stop-color="#3d3c63"/></linearGradient><linearGradient id="f"><stop offset="0" stop-opacity=".129"/><stop offset=".347" stop-color="#4f4f4f" stop-opacity="0"/><stop offset=".765" stop-color="#8d8d8d" stop-opacity="0"/><stop offset="1" stop-color="#fff" stop-opacity=".104"/></linearGradient><linearGradient id="o"><stop offset="0" stop-opacity=".057"/><stop offset=".909" stop-color="#fff" stop-opacity=".02"/><stop offset="1" stop-color="#fff" stop-opacity=".536"/></linearGradient><linearGradient id="e"><stop offset="0" stop-color="#ff994a"/><stop offset="1" stop-color="#ffb555"/></linearGradient><linearGradient id="n"><stop offset="0" stop-opacity="0"/><stop offset=".887" stop-opacity=".078"/><stop offset="1" stop-color="#fff" stop-opacity=".464"/></linearGradient><linearGradient id="m"><stop offset="0" stop-opacity="0"/><stop offset=".887" stop-opacity=".078"/><stop offset="1" stop-opacity=".188"/></linearGradient><linearGradient id="l"><stop offset="0" stop-opacity=".057"/><stop offset=".909" stop-opacity=".021"/><stop offset="1" stop-opacity=".505"/></linearGradient><linearGradient id="c"><stop offset="0" stop-color="#f88232"/><stop offset="1" stop-color="#fdc85a" stop-opacity=".995"/></linearGradient><linearGradient id="b"><stop offset="0" stop-color="#ed7837" stop-opacity=".974"/><stop offset="1" stop-color="#e45a2a"/></linearGradient><linearGradient id="a"><stop offset="0" stop-color="#403a47"/><stop offset="1" stop-color="#2c2533" stop-opacity=".971"/></linearGradient><linearGradient xlink:href="#f" id="z" x1="187.697" y1="190.626" x2="187.697" y2="176.858" gradientUnits="userSpaceOnUse" gradientTransform="matrix(.46404 0 0 .4609 -93.447 -91.239)"/><linearGradient gradientTransform="matrix(.44734 0 0 .44734 -90.39 -88.814)" xlink:href="#g" id="y" x1="188" y1="191" x2="188" y2="177" gradientUnits="userSpaceOnUse"/><linearGradient xlink:href="#c" id="x" gradientUnits="userSpaceOnUse" gradientTransform="rotate(-96.838 -13.237 -31.485) scale(.2433)" x1="-101.254" y1="-148.008" x2="-84.616" y2="-106.562"/><linearGradient xlink:href="#d" id="w" gradientUnits="userSpaceOnUse" gradientTransform="rotate(-41.818 -111.904 84.734) scale(.34419)" x1="104.202" y1="237.968" x2="124.46" y2="214.022"/><linearGradient xlink:href="#c" id="v" gradientUnits="userSpaceOnUse" gradientTransform="rotate(74.668 18.834 -99.07) scale(.34419)" x1="295.286" y1="-123.22" x2="267.135" y2="-118.871"/><linearGradient xlink:href="#c" id="u" gradientUnits="userSpaceOnUse" gradientTransform="rotate(-172.407 -27.004 -34.627) scale(.34419)" x1="-112.967" y1="-156.148" x2="-80.17" y2="-124.045"/><linearGradient xlink:href="#c" id="t" gradientUnits="userSpaceOnUse" gradientTransform="rotate(-142.434 -16.327 -20.893) scale(.16546)" x1="-112.967" y1="-156.148" x2="-80.17" y2="-124.045"/><linearGradient xlink:href="#c" id="s" gradientUnits="userSpaceOnUse" gradientTransform="scale(-.3197) rotate(-13.969 782.935 -733.706)" x1="-95.591" y1="-143.575" x2="-67.254" y2="-126.208"/><linearGradient xlink:href="#b" id="r" x1="159.873" y1="151.837" x2="159.873" y2="167.94" gradientUnits="userSpaceOnUse" gradientTransform="matrix(.478 0 0 .478 -92.991 -92.418)"/><linearGradient gradientTransform="matrix(.34419 0 0 .34419 -71.582 -71.009)" xlink:href="#e" id="q" x1="161.189" y1="172.735" x2="162.769" y2="145.544" gradientUnits="userSpaceOnUse"/><linearGradient xlink:href="#j" id="p" x1="158.551" y1="120" x2="158.551" y2="196.51" gradientUnits="userSpaceOnUse" gradientTransform="matrix(.35927 0 0 .35927 -73.996 -73.422)"/></defs><g transform="translate(32 32)"><circle r="15.481" cy="-15.939" cx="-16.512" style="isolation:auto;mix-blend-mode:normal;marker:none" color="#000" display="block" overflow="visible" fill-opacity=".104" stroke-width=".033" stroke-miterlimit="4.6" paint-order="fill markers stroke"/><path style="isolation:auto;mix-blend-mode:normal;marker:none" d="M-1.367-15.939A15.144 15.144 0 0 1-16.512-.794 15.144 15.144 0 0 1-31.656-15.94a15.144 15.144 0 0 1 15.144-15.144A15.144 15.144 0 0 1-1.367-15.939z" color="#000" display="block" overflow="visible" fill="#191520" stroke-width=".032" stroke-miterlimit="4.6" paint-order="fill markers stroke"/><path style="isolation:auto;mix-blend-mode:normal;marker:none" d="M-2.056-15.939A14.456 14.456 0 0 1-16.512-1.483a14.456 14.456 0 0 1-14.456-14.456 14.456 14.456 0 0 1 14.456-14.455A14.456 14.456 0 0 1-2.056-15.94z" color="#000" display="block" overflow="visible" fill="url(#p)" stroke-width=".031" stroke-miterlimit="4.6" paint-order="fill markers stroke"/><path style="isolation:auto;mix-blend-mode:normal;marker:none" d="M-11.827-15.939a4.685 4.685 0 0 1-3.647 4.569 4.685 4.685 0 0 1-5.262-2.544 4.685 4.685 0 0 1 1.314-5.696l2.91 3.671z" color="#000" display="block" overflow="visible" fill="none" fill-opacity=".943" stroke="url(#q)" stroke-width="1.626" stroke-miterlimit="4.6" paint-order="fill markers stroke"/><path style="isolation:auto;mix-blend-mode:normal;marker:none" d="M-13.524-15.939a2.988 2.988 0 0 1-2.988 2.988 2.988 2.988 0 0 1-2.987-2.988 2.988 2.988 0 0 1 2.987-2.987 2.988 2.988 0 0 1 2.988 2.987z" color="#000" display="block" overflow="visible" fill="none" fill-opacity=".943" stroke="url(#r)" stroke-width="1.821" stroke-miterlimit="4.6" paint-order="fill markers stroke"/><path style="isolation:auto;mix-blend-mode:normal;marker:none" d="M-29.47-12.604a13.433 13.433 0 0 1 .622-8.374l12.414 5.131z" color="#000" display="block" overflow="visible" fill="url(#s)" stroke-width="9.35" stroke-miterlimit="4.6" paint-order="fill markers stroke"/><path style="isolation:auto;mix-blend-mode:normal;marker:none" d="M-21.972-20.244a6.952 6.952 0 0 1 6.378-2.66l-.867 6.899z" color="#000" display="block" overflow="visible" fill="url(#t)" stroke-width="4.839" stroke-miterlimit="4.6" paint-order="fill markers stroke"/><path style="isolation:auto;mix-blend-mode:normal;marker:none" d="M-30.771-17.913a14.462 14.462 0 0 1 8.729-11.421l5.606 13.331z" color="#000" display="block" overflow="visible" fill="url(#u)" stroke-width="10.067" stroke-miterlimit="4.6" paint-order="fill markers stroke"/><path style="isolation:auto;mix-blend-mode:normal;marker:none" d="M-13.666-5.934a10.49 10.49 0 0 1-10.096-2.605l7.323-7.512z" color="#000" display="block" overflow="visible" fill="url(#v)" stroke-width="10.067" stroke-miterlimit="4.6" paint-order="fill markers stroke"/><path style="isolation:auto;mix-blend-mode:normal;marker:none" d="M-30.893-15.983a14.462 14.462 0 0 1 .118-1.88l14.344 1.846z" color="#000" display="block" overflow="visible" fill-opacity=".219" stroke-width="10.067" stroke-miterlimit="4.6" paint-order="fill markers stroke"/><path style="isolation:auto;mix-blend-mode:normal;marker:none" d="M-4.208-26.988A16.521 16.521 0 0 1-.025-15.056l-16.496-.917z" color="#000" display="block" overflow="visible" fill="url(#w)" stroke-width="10.067" stroke-miterlimit="4.6" paint-order="fill markers stroke"/><path style="isolation:auto;mix-blend-mode:normal;marker:none" d="M-9.09-22.615a9.95 9.95 0 0 1 2.52 7.187l-9.936-.552z" color="#000" display="block" overflow="visible" fill="#fef6f0" fill-opacity=".422" stroke-width=".172" stroke-miterlimit="4.6" stroke-opacity=".307" paint-order="fill markers stroke"/><path style="isolation:auto;mix-blend-mode:normal;marker:none" d="M-16.735-26.308c.14 0 .573.065.712.07L-16.443-16z" color="#000" display="block" overflow="visible" fill-opacity=".672" stroke-width="7.132" stroke-miterlimit="4.6" paint-order="fill markers stroke"/><path style="isolation:auto;mix-blend-mode:normal;marker:none" d="M-16.063-26.21a10.223 10.223 0 0 1 6.435 2.619l-6.842 7.596z" color="#000" display="block" overflow="visible" fill="url(#x)" stroke-width="7.116" stroke-miterlimit="4.6" paint-order="fill markers stroke"/><path style="isolation:auto;mix-blend-mode:normal;marker:none" d="M-.025-15.054a16.521 16.521 0 0 1-.152 1.496l-16.344-2.415z" color="#000" display="block" overflow="visible" fill="#141414" fill-opacity=".463" stroke-width="10.067" stroke-miterlimit="4.6" paint-order="fill markers stroke"/><path style="isolation:auto;mix-blend-mode:normal;marker:none" d="M-13.75-15.939a2.762 2.762 0 0 1-2.762 2.762 2.762 2.762 0 0 1-2.761-2.762 2.762 2.762 0 0 1 2.761-2.761 2.762 2.762 0 0 1 2.762 2.761z" color="#000" display="block" overflow="visible" fill="#37313e" stroke-width=".057" stroke-miterlimit="4.6" stroke-opacity=".344" paint-order="fill markers stroke"/><path style="isolation:auto;mix-blend-mode:normal;marker:none" d="M-15.18-15.939a1.33 1.33 0 0 1-1.332 1.331 1.33 1.33 0 0 1-1.33-1.33 1.33 1.33 0 0 1 1.33-1.331 1.33 1.33 0 0 1 1.331 1.33z" color="#000" display="block" overflow="visible" fill="#fff" fill-opacity=".943" stroke-width=".028" stroke-miterlimit="4.6" stroke-opacity=".344" paint-order="fill markers stroke"/><path style="isolation:auto;mix-blend-mode:normal;marker:none" d="M-12-10H0v9h-12z" color="#000" display="block" overflow="visible" fill-opacity=".427" stroke-width="2.575" stroke-miterlimit="4.6" paint-order="fill markers stroke"/><path style="isolation:auto;mix-blend-mode:normal;marker:none" d="M-13-11h12v9h-12z" color="#000" display="block" overflow="visible" fill="url(#y)" stroke-width="2.575" stroke-miterlimit="4.6" paint-order="fill markers stroke"/><path style="line-height:1000%" d="M-4.743-6.08q-.345 0-.544.294-.194.293-.194.817 0 .516.194.813.199.294.544.294.337 0 .532-.294.198-.297.198-.813 0-.52-.198-.813-.195-.298-.532-.298zm0-.504q.627 0 .996.437.369.436.369 1.178t-.373 1.178q-.37.433-.992.433-.635 0-1.004-.433-.369-.436-.369-1.178 0-.746.37-1.178.372-.437 1.003-.437zM-8.837-9q-.342 0-.54.298-.194.293-.194.809 0 .524.194.817.194.294.54.294.345 0 .54-.294.197-.293.197-.817 0-.512-.198-.81Q-8.496-9-8.838-9zm3.582-.504h.635l-3.706 6.146h-.634zm-3.582 0q.626 0 1 .437.372.432.372 1.174 0 .75-.373 1.182-.369.433-1 .433-.63 0-1-.433-.364-.436-.364-1.182 0-.738.369-1.174.369-.437.996-.437z" font-family="sans-serif" letter-spacing="0" word-spacing="0" fill="#fff" stroke-width=".508"/><path style="line-height:normal;font-variant-ligatures:normal;font-variant-position:normal;font-variant-caps:normal;font-variant-numeric:normal;font-variant-alternates:normal;font-feature-settings:normal;text-indent:0;text-align:start;text-decoration-line:none;text-decoration-style:solid;text-decoration-color:#000;text-transform:none;text-orientation:mixed;shape-padding:0;isolation:auto;mix-blend-mode:normal;marker:none" d="M-13-11v9h12v-9zm1 1h10l.087 7H-12z" color="#000" font-weight="400" font-family="sans-serif" white-space="normal" display="block" overflow="visible" fill="url(#z)" stroke-width=".231" stroke-miterlimit="4.6" paint-order="fill markers stroke"/></g></svg>