<svg xmlns="http://www.w3.org/2000/svg" xmlns:xlink="http://www.w3.org/1999/xlink" height="32" viewBox="0 0 32 32" width="32"><title>Template icons dark</title><defs><linearGradient id="f"><stop offset="0" stop-color="#647780"/><stop offset="1" stop-color="#fff"/></linearGradient><linearGradient id="e"><stop offset="0" stop-opacity=".135"/><stop offset="1" stop-opacity="0"/></linearGradient><linearGradient id="d"><stop offset="0" stop-color="#391f3c" stop-opacity=".059"/><stop offset="1" stop-color="#391f3c" stop-opacity="0"/></linearGradient><linearGradient id="c"><stop offset="0" stop-color="#d8d8d8"/><stop offset="1" stop-color="#fff" stop-opacity=".995"/></linearGradient><linearGradient id="a"><stop offset="0" stop-color="#626262"/><stop offset="1" stop-color="#626262" stop-opacity="0"/></linearGradient><linearGradient id="b"><stop offset="0" stop-color="#69c2b7"/><stop offset="1" stop-color="#64a5b5"/></linearGradient><linearGradient xlink:href="#b" id="g" gradientUnits="userSpaceOnUse" gradientTransform="matrix(1.07355 0 0 1.07355 -13.86 -5)" x1="164" y1="143.615" x2="164" y2="180"/></defs><path style="isolation:auto;mix-blend-mode:normal;marker:none" d="M4.432 0h23.136A4.422 4.422 0 0 1 32 4.432v23.136A4.422 4.422 0 0 1 27.568 32H4.432A4.422 4.422 0 0 1 0 27.568V4.432A4.422 4.422 0 0 1 4.432 0z" color="#000" display="block" overflow="visible" fill="#202020" fill-opacity=".118" stroke-width="1.067"/><path d="M31 25.155v1.69A4.146 4.146 0 0 1 26.845 31H5.155A4.146 4.146 0 0 1 1 26.845v-1.69z" style="isolation:auto;mix-blend-mode:normal;marker:none" color="#000" display="block" overflow="visible" fill="#cacaca"/><path style="isolation:auto;mix-blend-mode:normal;marker:none" d="M5.155 1h21.69A4.146 4.146 0 0 1 31 5.155v19.69A4.146 4.146 0 0 1 26.845 29H5.155A4.146 4.146 0 0 1 1 24.845V5.155A4.146 4.146 0 0 1 5.155 1z" color="#000" display="block" overflow="visible" fill="#fff"/><path style="isolation:auto;mix-blend-mode:normal;marker:none" d="M2.783.696C1.549.696.787 1.553.696 2.783v4.174h30.608V2.783c0-1.234-.853-2.087-2.087-2.087zm8.752 1.577a1.484 1.484 0 1 1 0 2.968 1.484 1.484 0 0 1 0-2.968zm8.904 0a1.484 1.484 0 1 1 0 2.968 1.484 1.484 0 0 1 0-2.968z" color="#000" display="block" overflow="visible" fill-opacity=".089" stroke-width=".212" stroke-opacity=".583"/><path style="isolation:auto;mix-blend-mode:normal;marker:none" d="M11.782 1.949a1.808 1.808 0 1 0 0 3.615 1.808 1.808 0 0 0 0-3.615zm8.41 0a1.808 1.808 0 1 0 0 3.615 1.808 1.808 0 0 0 0-3.615z" color="#000" display="block" overflow="visible" fill="#fff" fill-opacity=".927" stroke-width=".542" stroke-opacity=".583"/><path style="isolation:auto;mix-blend-mode:normal;marker:none" d="M11.782 1.949A1.808 1.808 0 0 0 9.99 3.985a1.808 1.808 0 0 1 1.792-1.584c.91 0 1.677.677 1.792 1.579a1.808 1.808 0 0 0-1.792-2.031zm8.41 0A1.808 1.808 0 0 0 18.4 3.985a1.808 1.808 0 0 1 1.792-1.584c.91 0 1.677.677 1.792 1.579a1.808 1.808 0 0 0-1.792-2.031z" color="#000" display="block" overflow="visible" fill-opacity=".401" stroke-width=".542" stroke-opacity=".583"/><path style="line-height:1000%" d="M16.473 7.74v2.203h.26V7.74zm-2.685.09v1.966c0 .183-.026.31-.078.38-.052.071-.14.107-.267.107h-.09v.24h.11c.214 0 .37-.057.466-.172.097-.115.145-.3.145-.555V7.83zm.817.528v.96c0 .218.048.384.142.497.095.113.232.17.415.17.11 0 .207-.024.29-.07a.647.647 0 0 0 .221-.215v.243h.26V8.358h-.26v.898a.523.523 0 0 1-.123.367.426.426 0 0 1-.333.135c-.117 0-.205-.037-.264-.112-.058-.075-.087-.188-.087-.338v-.95zm2.485 0l.641 1.56-.046.118c-.048.127-.092.208-.132.242a.25.25 0 0 1-.167.05h-.153v.219h.209c.117 0 .21-.03.28-.087.07-.058.142-.18.215-.37l.697-1.732h-.276l-.496 1.24-.496-1.24z" font-family="sans-serif" letter-spacing="0" word-spacing="0" fill-opacity=".516" stroke-width=".181"/><path d="M145.318 148.955c-3.409 0-6.223 1.005-8.443 3.015-2.203 1.993-3.303 4.501-3.303 7.526h4.85c0-1.976.62-3.556 1.862-4.745 1.259-1.206 2.937-1.81 5.034-1.81 4.458 0 6.687 2.237 6.687 6.712 0 1.993-.656 3.576-1.967 4.747-1.31 1.171-3.111 1.775-5.401 1.81h-3.644v3.958h3.644c2.57.035 4.537.648 5.9 1.837 1.364 1.189 2.045 2.892 2.045 5.112 0 2.29-.62 4.048-1.86 5.271-1.241 1.224-3.034 1.835-5.376 1.835-2.203 0-3.96-.603-5.272-1.81-1.31-1.206-1.966-2.814-1.966-4.824h-4.878c0 3.181 1.12 5.744 3.357 7.684 2.256 1.94 5.175 2.91 8.759 2.91 3.583 0 6.493-1.004 8.73-3.014 2.238-2.01 3.358-4.73 3.358-8.157 0-2.22-.577-4.1-1.73-5.638-1.137-1.538-2.754-2.638-4.852-3.302 1.853-.77 3.314-1.934 4.38-3.49 1.084-1.555 1.625-3.163 1.625-4.824 0-3.392-1.022-6.04-3.068-7.945-2.045-1.905-4.87-2.858-8.47-2.858zm28.145 0c-4.143 0-7.184 1.364-9.125 4.091-1.94 2.727-2.91 6.896-2.91 12.507v6.477c.07 5.367 1.082 9.406 3.04 12.115 1.958 2.693 4.974 4.039 9.048 4.039 4.125 0 7.16-1.381 9.1-4.143 1.94-2.763 2.91-6.986 2.91-12.667v-6.292c-.053-5.49-1.05-9.546-2.99-12.168-1.94-2.64-4.965-3.959-9.073-3.959zm0 3.986c2.5 0 4.327.943 5.481 2.83 1.154 1.871 1.73 4.86 1.73 8.969v7.947c-.052 3.985-.663 6.905-1.835 8.758-1.153 1.853-2.928 2.778-5.323 2.778-2.43 0-4.248-.978-5.454-2.935-1.189-1.976-1.784-5.027-1.784-9.153v-7.762c.035-3.881.62-6.756 1.757-8.626 1.136-1.87 2.946-2.806 5.428-2.806z" style="line-height:1000%;-inkscape-font-specification:Roboto" font-weight="400" font-family="Roboto" letter-spacing="0" word-spacing="0" fill="url(#g)" stroke-width="3.356" transform="translate(-43.037 -43.733) scale(.37101)"/></svg>