<svg xmlns="http://www.w3.org/2000/svg" xmlns:xlink="http://www.w3.org/1999/xlink" height="32" viewBox="0 0 32 32" width="32"><title>Template icons dark</title><defs><linearGradient id="a"><stop offset="0" stop-color="#e9e9e9"/><stop offset="1" stop-color="#fff"/></linearGradient><linearGradient gradientTransform="translate(-70.47 -70.472) scale(.34044)" xlink:href="#a" id="b" x1="168" y1="201.741" x2="168" y2="114.331" gradientUnits="userSpaceOnUse"/></defs><path d="M14.552 31.3c-2.19-.727-3.744-1.716-5.491-3.496-1.954-1.99-3.104-4.071-3.588-6.494-.67-3.352 1.108-6.425 4.858-8.395 4.525-2.379 10.713-2.603 12.994-.472.699.653.853 1.028.853 2.075 0 2-1.104 3.239-5.421 6.081-5.215 3.433-5.76 4.274-3.946 6.088.742.742 1.22.977 1.99.977.997 0 1.895-.575 1.942-1.242.138-1.956.432-2.317 2.286-2.81 1.555-.412 3.322-.148 3.697.554.43.801-.6 3.374-1.876 4.693-2.381 2.46-5.49 3.374-8.298 2.442zM4.484 12.338c-1.57-1.57-1.691-3.62-.255-4.274.633-.289.818-.235 1.476.422 1.248 1.248 1.262 4.812.02 4.812-.155 0-.713-.432-1.241-.96zM8.86 9.335c-.58-.64-1.348-2.45-1.348-3.174 0-.92 1.103-2.06 1.997-2.06 1.072 0 1.51.596 1.67 2.276.185 1.92-.353 3.472-1.203 3.472-.358 0-.86-.231-1.116-.514zm12.093-.08c-1.363-.794-1.17-4.445.346-6.537 2.126-2.935 7.476-3.243 7.476-.43 0 1.906-2.755 5.598-4.982 6.676-1.354.655-2.087.73-2.84.292zm-6.836-1.777c-1.61-2.64-.623-5.962 1.77-5.962 1.128 0 1.681.702 1.681 2.133 0 2.212-1.243 4.763-2.322 4.763-.323 0-.8-.395-1.129-.934z" fill="none" stroke="#000" stroke-width=".681" stroke-opacity=".176"/><path d="M-17.448-.7c-2.19-.727-3.744-1.716-5.491-3.496-1.954-1.99-3.104-4.071-3.588-6.494-.67-3.352 1.108-6.425 4.858-8.395 4.525-2.379 10.713-2.603 12.994-.472.699.653.853 1.028.853 2.075 0 2-1.104 3.239-5.421 6.081-5.215 3.433-5.76 4.274-3.946 6.088.742.742 1.22.977 1.99.977.997 0 1.895-.575 1.942-1.242.138-1.956.432-2.317 2.286-2.81 1.555-.412 3.322-.148 3.697.554.43.801-.6 3.374-1.876 4.693C-11.531-.681-14.64.233-17.448-.7zm-10.068-18.963c-1.57-1.57-1.691-3.62-.255-4.274.633-.289.818-.235 1.476.422 1.248 1.248 1.262 4.812.02 4.812-.155 0-.713-.432-1.241-.96zm4.377-3.002c-.58-.64-1.348-2.45-1.348-3.174 0-.92 1.103-2.06 1.997-2.06 1.072 0 1.51.596 1.67 2.276.185 1.92-.353 3.472-1.203 3.472-.358 0-.86-.231-1.116-.514zm12.093-.08c-1.363-.794-1.17-4.445.346-6.537 2.126-2.935 7.476-3.243 7.476-.43 0 1.906-2.755 5.598-4.982 6.676-1.354.655-2.087.73-2.84.292zm-6.836-1.777c-1.61-2.64-.623-5.962 1.77-5.962 1.128 0 1.681.702 1.681 2.133 0 2.212-1.243 4.763-2.322 4.763-.323 0-.8-.395-1.129-.934z" fill="url(#b)" stroke-width=".287" transform="translate(32 32)"/></svg>