<svg xmlns="http://www.w3.org/2000/svg" xmlns:xlink="http://www.w3.org/1999/xlink" height="32" viewBox="0 0 32 32" width="32"><title>Template icons dark</title><defs><linearGradient id="k"><stop offset="0" stop-color="#3d353d"/><stop offset="1" stop-color="#3b464e"/></linearGradient><linearGradient id="j"><stop offset="0" stop-color="#6a618d"/><stop offset="1" stop-color="#5f81b6"/></linearGradient><linearGradient id="i"><stop offset="0" stop-color="#6e6492"/><stop offset="1" stop-color="#6688ba"/></linearGradient><linearGradient id="h"><stop offset="0" stop-color="#fff" stop-opacity=".368"/><stop offset="1" stop-color="#fff" stop-opacity=".289"/></linearGradient><linearGradient id="g"><stop offset="0" stop-color="#dedede"/><stop offset="1" stop-color="#cfcfcf"/></linearGradient><linearGradient id="e"><stop offset="0" stop-color="#093adc" stop-opacity=".325"/><stop offset=".514" stop-color="#621fed" stop-opacity=".099"/><stop offset="1" stop-color="#b707ff" stop-opacity=".45"/></linearGradient><linearGradient id="f"><stop offset="0" stop-color="#093adc" stop-opacity=".55"/><stop offset=".511" stop-color="#611fed" stop-opacity=".183"/><stop offset="1" stop-color="#b707ff" stop-opacity=".33"/></linearGradient><linearGradient id="d"><stop offset="0" stop-color="#fff" stop-opacity=".322"/><stop offset="1" stop-color="#fff" stop-opacity=".217"/></linearGradient><linearGradient xlink:href="#a" id="r" gradientUnits="userSpaceOnUse" gradientTransform="matrix(2.04888 0 0 1.9477 4.734 55.135)" x1="-17.142" y1="-42.312" x2="-3.543" y2="-30.204"/><linearGradient id="a"><stop offset="0" stop-color="#9081c4"/><stop offset="1" stop-color="#8baddf"/></linearGradient><linearGradient id="b"><stop offset="0" stop-color="#9751de"/><stop offset="1" stop-color="#3c87f8"/></linearGradient><linearGradient id="c"><stop offset="0" stop-color="#eaf03f" stop-opacity=".422"/><stop offset="1" stop-color="#4e79e6" stop-opacity=".416"/></linearGradient><linearGradient x1=".297" y1="-.219" x2=".827" y2=".252" gradientUnits="userSpaceOnUse" gradientTransform="scale(36.36815) rotate(18.09 -11.34 17.011)" id="l"><stop offset="0" stop-color="#cdc9c1"/><stop offset=".181" stop-color="#f4f3f1"/><stop offset=".492" stop-color="#b8b8b8"/><stop offset=".931" stop-color="#efeeeb"/><stop offset="1" stop-color="#fff"/></linearGradient><linearGradient x2="1" gradientUnits="userSpaceOnUse" gradientTransform="scale(-25.52501 25.52501) rotate(21.485 -18.377 -13.86)" id="m"><stop offset="0" stop-color="#888c8f"/><stop offset=".062" stop-color="#888c8f"/><stop offset=".677" stop-color="#fff"/><stop offset=".971" stop-color="#c5c7c6"/><stop offset="1" stop-color="#c5c7c6"/></linearGradient><linearGradient x1=".204" y1=".178" x2=".988" y2="-.108" gradientUnits="userSpaceOnUse" gradientTransform="scale(69.4056) rotate(-71.943 2.912 -.084)" id="n"><stop offset="0" stop-color="#a1a5a7"/><stop offset=".052" stop-color="#aeb1b3"/><stop offset=".178" stop-color="#d9dbdc"/><stop offset=".499" stop-color="#dcdfdf"/><stop offset=".677" stop-color="#fff"/><stop offset=".971" stop-color="#c5c7c6"/><stop offset="1" stop-color="#c5c7c6"/></linearGradient><linearGradient x1=".292" y1="-.05" x2=".949" y2="-.086" gradientUnits="userSpaceOnUse" gradientTransform="scale(36.36778 -36.36778) rotate(-68.481 -1.174 -5.63)" id="o"><stop offset="0" stop-color="#dcd9d4"/><stop offset=".019" stop-color="#dedcd7"/><stop offset=".402" stop-color="#c7d2d5"/><stop offset=".882" stop-color="#fbfbfa"/><stop offset="1" stop-color="#a7a093"/></linearGradient><linearGradient x2="1" gradientUnits="userSpaceOnUse" gradientTransform="scale(37.65896) rotate(-88.059 4.182 .033)" id="p"><stop offset="0" stop-color="#888c8f"/><stop offset=".062" stop-color="#888c8f"/><stop offset=".677" stop-color="#fff"/><stop offset=".971" stop-color="#c5c7c6"/><stop offset="1" stop-color="#c5c7c6"/></linearGradient><linearGradient x1="-.006" y1=".936" x2="1.249" y2="-.572" gradientUnits="userSpaceOnUse" gradientTransform="rotate(-88.059 163.826 7.503) scale(35.6457)" id="q"><stop offset="0" stop-color="#636869"/><stop offset=".119" stop-color="#a4a8aa"/><stop offset=".177" stop-color="#c6c9ca"/><stop offset=".265" stop-color="#b7babb"/><stop offset=".501" stop-color="#d8d8d8"/><stop offset=".642" stop-color="#cfd0d0"/><stop offset=".73" stop-color="#c9d9d9"/><stop offset=".84" stop-color="#cbcccc"/><stop offset=".971" stop-color="#dadbdb"/><stop offset="1" stop-color="#dbdddc"/></linearGradient><linearGradient xlink:href="#p" id="s" gradientUnits="userSpaceOnUse" gradientTransform="scale(37.65896) rotate(-88.059 4.182 .033)" x2="1"/><linearGradient xlink:href="#q" id="t" gradientUnits="userSpaceOnUse" gradientTransform="rotate(-88.059 163.826 7.503) scale(35.6457)" x1="-.006" y1=".936" x2="1.249" y2="-.572"/><linearGradient xlink:href="#m" id="u" gradientUnits="userSpaceOnUse" gradientTransform="scale(-25.52501 25.52501) rotate(21.485 -18.377 -13.86)" x2="1"/><linearGradient xlink:href="#n" id="v" gradientUnits="userSpaceOnUse" gradientTransform="scale(69.4056) rotate(-71.943 2.912 -.084)" x1=".204" y1=".178" x2=".988" y2="-.108"/></defs><path d="M1 3h30v26H1z" style="isolation:auto;mix-blend-mode:normal;marker:none" color="#000" overflow="visible" fill-opacity=".157" stroke-width="2.152" stroke-opacity=".344" paint-order="fill markers stroke"/><path style="isolation:auto;mix-blend-mode:normal;marker:none" d="M-30-28h28v24h-28z" color="#000" display="block" overflow="visible" fill="url(#r)" stroke-width="1.998" stroke-opacity=".344" paint-order="fill markers stroke" transform="translate(32 32)"/><path style="isolation:auto;mix-blend-mode:normal;marker:none" color="#000" display="block" overflow="visible" fill="none" stroke="#000" stroke-width=".6" stroke-linecap="square" stroke-dasharray="1.8,1.8" stroke-dashoffset="6" stroke-opacity=".368" paint-order="markers stroke fill" d="M4.5 7.18h23v19h-23z"/><path style="isolation:auto;mix-blend-mode:normal;marker:none" color="#000" display="block" overflow="visible" fill="none" stroke="#fcfcfc" stroke-width=".6" stroke-linecap="square" stroke-dasharray="1.8,1.8" stroke-dashoffset="6" paint-order="markers stroke fill" d="M4.5 6.5h23v19h-23z"/><path d="M7.134 0l5.79 12.744L0 6.171l2.112 3.041s.85 1.417 1.697 1.962c.83.532 3.057 1.842 3.057 1.842l8.205 4.455.087.191s1.211.747 1.414.967c.719.781 1.473 2.859 1.68 3.9.065.325-.012 1.269-.017 1.336a4.06 4.06 0 0 0-1.919 1.092c-1.593 1.617-1.563 4.225.063 5.825a4.13 4.13 0 0 0 2.735 1.186c1.225.152 2.5-.24 3.429-1.185 1.59-1.615 1.56-4.224-.066-5.825a4.183 4.183 0 0 0-.244-.218l-2.24-4.597 4.057 2.203c.066.086.133.172.207.254 1.528 1.695 4.133 1.84 5.818.322a4.085 4.085 0 0 0 1.333-3.378 4.129 4.129 0 0 0-1.063-2.779c-1.527-1.695-4.131-1.84-5.816-.32a4.063 4.063 0 0 0-1.176 1.868c-.066.003-1.014.038-1.336-.04-1.031-.253-3.073-1.1-3.822-1.853-.01-.01-.026-.032-.039-.047L13.67 7.16s-1.21-2.282-1.706-3.134c-.507-.872-1.885-1.783-1.885-1.783zm20.33 16.672c.813.045 1.61.4 2.2 1.056.485.537.75 1.192.809 1.86a3.152 3.152 0 0 1-1.041 2.298c-1.302 1.172-3.313 1.06-4.493-.25a3.206 3.206 0 0 1-.474-.694l-.203-.497a3.193 3.193 0 0 1-.132-.66 3.151 3.151 0 0 1 3.334-3.113zm-7.903 8.03c.037 0 .074.004.111.005.222.03.44.084.654.161l.487.225a3.182 3.182 0 0 1 .722 5.003 3.151 3.151 0 0 1-2.345.939 3.188 3.188 0 0 1-1.82-.89 3.182 3.182 0 0 1-.049-4.5 3.152 3.152 0 0 1 2.24-.942z" fill="#1e1d1d" fill-opacity=".473" stroke-width=".103"/><path d="M178.47 163.07c-2.997-.57-8.982-2.694-11.242-4.743-.637-.575-2.81-4.04-2.81-4.04l-50.936-22.658 6.514 8.412s2.651 3.94 5.165 5.375c2.46 1.406 9.047 4.83 9.047 4.83l54.45 25.998-6.238-13.263s-2.98.273-3.95.09" fill="url(#s)" stroke-width=".098" transform="rotate(1.491 1445.52 -1387.686) scale(.33097)"/><path d="M134.425 149.791c-.05-.026-6.59-3.428-9.013-4.813-2.385-1.362-4.972-5.18-4.997-5.219l-5.307-6.854 48.964 21.782c.445.702 2.2 3.456 2.817 4.014 2.281 2.068 8.326 4.262 11.485 4.865.84.16 2.887.018 3.74-.051l5.485 11.665-53.174-25.389" fill="url(#t)" stroke-width=".098" transform="rotate(1.491 1445.52 -1387.686) scale(.33097)"/><path d="M29.248 21.04a3.026 3.026 0 0 1-4.278-.125 3.026 3.026 0 0 1 .097-4.279 3.026 3.026 0 0 1 4.279.125 3.025 3.025 0 0 1-.098 4.279zm-4.796-5.052c-1.565 1.485-1.621 3.965-.127 5.539 1.494 1.574 3.975 1.647 5.54.162 1.564-1.485 1.62-3.966.125-5.54-1.494-1.574-3.974-1.647-5.538-.161" fill="#6c6a6a" stroke-width=".098"/><path d="M29.227 20.72a3.026 3.026 0 0 1-4.278-.126 3.026 3.026 0 0 1 .098-4.278 3.026 3.026 0 0 1 4.278.124 3.026 3.026 0 0 1-.098 4.28zm-4.796-5.053c-1.564 1.485-1.62 3.966-.127 5.54 1.495 1.573 3.975 1.647 5.54.162 1.564-1.486 1.62-3.966.125-5.54-1.494-1.574-3.973-1.647-5.538-.162" fill="#fff" stroke="#7d7569" stroke-width=".06950369999999999"/><path d="M19.395 16.492L18 15.684l-4.327-3.073-1.097-.515 1.72 4.168 6.539 3.338z" fill-opacity=".253" fill-rule="evenodd" stroke-width="1.05"/><path d="M168.302 175.846c-.75-2.956-3.226-8.805-5.405-10.938-.614-.602-4.201-2.565-4.201-2.565l-25.663-49.49 8.787 6.002s4.09 2.41 5.675 4.834c1.55 2.371 5.362 8.74 5.362 8.74l29.205 52.8-13.612-5.433s.095-2.992-.148-3.95" fill="url(#u)" stroke-width=".098" transform="rotate(1.491 1445.52 -1387.686) scale(.33097)"/><path d="M168.964 179.458c.018-.856.037-2.91-.173-3.737-.79-3.117-3.341-9.02-5.541-11.174-.595-.583-3.448-2.17-4.177-2.573l-24.668-47.573 7.13 4.87c.068.043 4.037 2.398 5.538 4.693 1.525 2.336 5.313 8.66 5.35 8.726l28.513 51.547-11.972-4.779" fill="url(#v)" stroke-width=".098" transform="rotate(1.491 1445.52 -1387.686) scale(.33097)"/><path d="M17.964 28.87a3.026 3.026 0 0 1-.158-4.277 3.027 3.027 0 0 1 4.278-.131 3.027 3.027 0 0 1 .159 4.277 3.026 3.026 0 0 1-4.279.131zm-.606.649c1.586 1.482 4.065 1.408 5.539-.17 1.472-1.575 1.38-4.055-.206-5.536-1.586-1.482-4.065-1.406-5.537.17-1.474 1.576-1.382 4.054.204 5.536" fill="#6c6a6a" stroke-width=".098"/><path d="M17.644 28.852a3.026 3.026 0 0 1-.158-4.277 3.026 3.026 0 0 1 4.278-.131 3.026 3.026 0 0 1 .158 4.277 3.026 3.026 0 0 1-4.278.131zm-.606.65c1.585 1.481 4.065 1.407 5.538-.17 1.473-1.576 1.38-4.056-.206-5.538-1.585-1.482-4.064-1.406-5.537.17-1.474 1.577-1.381 4.055.205 5.537" fill="#fff" stroke="#7d7569" stroke-width=".06950369999999999"/><path d="M17.388 15.556a.802.802 0 1 1-1.585.237.802.802 0 0 1 1.585-.237" fill="#9e9e9e" stroke="#000" stroke-width=".14198613" stroke-opacity=".577"/><path d="M16.806 16.186l-.164-1.094-.223.031.165 1.099.222-.036" fill="#373636" stroke-width=".097"/></svg>