<svg xmlns="http://www.w3.org/2000/svg" xmlns:xlink="http://www.w3.org/1999/xlink" height="32" viewBox="0 0 32 32" width="32"><title>Template icons dark</title><defs><linearGradient id="e"><stop offset="0" stop-color="#ff2a0b"/><stop offset=".496" stop-color="#110200" stop-opacity=".453"/><stop offset=".532" stop-opacity=".13"/><stop offset=".617" stop-color="#ffcdc5" stop-opacity=".106"/><stop offset=".702" stop-color="#ffd2cb" stop-opacity=".161"/><stop offset=".778" stop-color="#ffe2dd" stop-opacity="0"/><stop offset=".872" stop-color="#fff" stop-opacity=".109"/><stop offset=".936" stop-color="#fff" stop-opacity=".078"/><stop offset="1" stop-opacity=".354"/></linearGradient><linearGradient id="d"><stop offset="0" stop-opacity="0"/><stop offset=".497" stop-opacity="0"/><stop offset=".749" stop-opacity=".271"/><stop offset="1" stop-opacity="0"/></linearGradient><linearGradient id="b"><stop offset="0" stop-color="#c5c5c5"/><stop offset="1" stop-color="#f4f4f4"/></linearGradient><linearGradient id="a"><stop offset="0" stop-color="#cd3a00"/><stop offset="1" stop-color="#cf6e53"/></linearGradient><linearGradient id="c"><stop offset="0" stop-color="#fff" stop-opacity="0"/><stop offset=".657" stop-color="#fff" stop-opacity="0"/><stop offset=".829" stop-color="#fff8f4" stop-opacity=".26"/><stop offset="1" stop-color="#fff" stop-opacity="0"/></linearGradient><linearGradient gradientTransform="matrix(.33333 0 0 .33333 -69.333 -69.333)" xlink:href="#b" id="g" x1="170" y1="201.251" x2="170" y2="119" gradientUnits="userSpaceOnUse"/><linearGradient gradientTransform="matrix(.33333 0 0 .33333 -69.333 -69.333)" xlink:href="#a" id="f" x1="160" y1="205" x2="160" y2="113" gradientUnits="userSpaceOnUse"/><radialGradient gradientTransform="matrix(.33333 0 0 .33333 -69.333 -69.333)" xlink:href="#e" id="h" cx="160" cy="160" fx="160" fy="160" r="47" gradientUnits="userSpaceOnUse"/></defs><path d="M5.482 1c-1.47 0-1.366 2.199-2.3 3.074-.763.714-2.503.26-2.629 1.712-.156 1.806-.024 5.193.46 6.13l10.37-10.25S6.822 1 5.482 1zm20.715 0c-1.34 0-5.9.667-5.9.667l10.37 10.248c.483-.936.615-4.323.459-6.13-.126-1.452-1.866-.997-2.629-1.711-.933-.875-.83-3.074-2.3-3.074zM1.012 20.325c-.483.936-.615 4.324-.459 6.13.126 1.452 1.866.997 2.629 1.712.934.875.83 3.073 2.3 3.073 1.34 0 5.9-.666 5.9-.666zm29.655 0l-10.37 10.249s4.56.666 5.9.666c1.47 0 1.367-2.198 2.3-3.073.763-.715 2.503-.26 2.629-1.713.156-1.805.024-5.193-.46-6.13z" fill="none" fill-rule="evenodd" stroke="#d6cebe" stroke-width=".433"/><path d="M16 0C7.163 0 0 7.163 0 16s7.163 16 16 16 16-7.163 16-16S24.837 0 16 0zm0 8.667a7.333 7.333 0 1 1 0 14.666 7.333 7.333 0 0 1 0-14.666z" style="isolation:auto;mix-blend-mode:normal;marker:none" color="#000" display="block" overflow="visible" fill-opacity=".052" stroke-width=".348" stroke-opacity=".37" paint-order="fill markers stroke"/><path style="isolation:auto;mix-blend-mode:normal;marker:none" d="M-16-31.667A15.667 15.667 0 0 0-31.667-16 15.667 15.667 0 0 0-16-.333 15.667 15.667 0 0 0-.333-16 15.667 15.667 0 0 0-16-31.667zm0 8A7.667 7.667 0 0 1-8.333-16 7.667 7.667 0 0 1-16-8.333 7.667 7.667 0 0 1-23.667-16 7.667 7.667 0 0 1-16-23.667z" color="#000" display="block" overflow="visible" fill="url(#f)" stroke-width=".341" stroke-opacity=".37" paint-order="fill markers stroke" transform="translate(32 32)"/><path style="isolation:auto;mix-blend-mode:normal;marker:none" d="M-23.943-29.502a15.739 15.739 0 0 0-5.559 5.559l6.374 5.393a7.58 7.58 0 0 1 4.577-4.58zm15.886 0l-5.393 6.374a7.58 7.58 0 0 1 4.58 4.577l6.372-5.392a15.739 15.739 0 0 0-5.559-5.559zM-23.13-13.448l-6.372 5.391a15.739 15.739 0 0 0 5.558 5.559l5.393-6.374a7.58 7.58 0 0 1-4.579-4.576zm14.258 0a7.58 7.58 0 0 1-4.576 4.578l5.391 6.372a15.739 15.739 0 0 0 5.559-5.558z" color="#000" overflow="visible" fill="url(#g)" stroke="#441201" stroke-width=".403" stroke-opacity=".391" paint-order="fill markers stroke" transform="translate(32 32)"/><path d="M-16-31.667A15.667 15.667 0 0 0-31.667-16 15.667 15.667 0 0 0-16-.333 15.667 15.667 0 0 0-.333-16 15.667 15.667 0 0 0-16-31.667zm0 8A7.667 7.667 0 0 1-8.333-16 7.667 7.667 0 0 1-16-8.333 7.667 7.667 0 0 1-23.667-16 7.667 7.667 0 0 1-16-23.667z" style="isolation:auto;mix-blend-mode:normal;marker:none" color="#000" overflow="visible" fill="url(#h)" stroke-width=".341" stroke-opacity=".37" paint-order="fill markers stroke" transform="translate(32 32)"/></svg>