<svg xmlns="http://www.w3.org/2000/svg" xmlns:xlink="http://www.w3.org/1999/xlink" height="32" viewBox="0 0 32 32" width="32" id="svg2"><title id="title4675">Template icons dark</title><defs id="defs22"><linearGradient id="linearGradient11855"><stop offset="0" id="stop11851" stop-opacity=".471"/><stop offset="1" id="stop11853" stop-opacity=".398"/></linearGradient><linearGradient id="linearGradient11845"><stop offset="0" id="stop11841" stop-opacity=".283"/><stop offset="1" id="stop11843" stop-color="#96d4fd" stop-opacity=".492"/></linearGradient><linearGradient id="linearGradient1272"><stop offset="0" id="stop1268" stop-color="#d4e4ef"/><stop offset="1" id="stop1270" stop-color="#c5b3cb"/></linearGradient><linearGradient id="linearGradient1264"><stop offset="0" id="stop1260" stop-color="#6c69e5" stop-opacity=".263"/><stop offset="1" id="stop1262" stop-color="#f3c6f8" stop-opacity=".272"/></linearGradient><linearGradient id="linearGradient1176"><stop offset="0" id="stop1172" stop-color="#5ca5ff"/><stop offset="1" id="stop1174" stop-color="#eb81ff"/></linearGradient><linearGradient id="linearGradient1151"><stop offset="0" id="stop1147" stop-color="#2395e4" stop-opacity=".979"/><stop offset="1" id="stop1149" stop-color="#40d0f0" stop-opacity=".984"/></linearGradient><linearGradient id="linearGradient1109"><stop offset="0" id="stop1105" stop-color="#d9dce8" stop-opacity=".99"/><stop offset="1" id="stop1107" stop-color="#ebf3ef" stop-opacity=".99"/></linearGradient><linearGradient id="linearGradient1064"><stop offset="0" id="stop1060" stop-color="#191c24"/><stop offset="1" id="stop1062" stop-color="#656177"/></linearGradient><linearGradient xlink:href="#linearGradient1064" id="linearGradient1066" x1="125" y1="203" x2="195" y2="117.567" gradientUnits="userSpaceOnUse"/><linearGradient xlink:href="#linearGradient1109" id="linearGradient1111" x1="194" y1="193.493" x2="194" y2="175.102" gradientUnits="userSpaceOnUse"/><linearGradient xlink:href="#linearGradient1064" id="linearGradient1165" gradientUnits="userSpaceOnUse" x1="125" y1="203" x2="195" y2="117.567"/><linearGradient xlink:href="#linearGradient1176" id="linearGradient1178" x1="129" y1="200" x2="191.567" y2="121" gradientUnits="userSpaceOnUse"/><linearGradient xlink:href="#linearGradient1151" id="linearGradient1185" gradientUnits="userSpaceOnUse" x1="144" y1="200" x2="179.567" y2="133" gradientTransform="matrix(1 0 0 1.01389 0 -1.833)"/><linearGradient xlink:href="#linearGradient1264" id="linearGradient1266" x1="128" y1="118" x2="193" y2="118" gradientUnits="userSpaceOnUse"/><linearGradient xlink:href="#linearGradient1272" id="linearGradient1274" x1="132.528" y1="193" x2="189" y2="122" gradientUnits="userSpaceOnUse"/><linearGradient xlink:href="#linearGradient1064" id="linearGradient1279" gradientUnits="userSpaceOnUse" x1="125" y1="203" x2="195" y2="117.567"/><linearGradient xlink:href="#linearGradient11845" id="linearGradient11847" x1="155" y1="196.575" x2="158.173" y2="206" gradientUnits="userSpaceOnUse"/><linearGradient xlink:href="#linearGradient11855" id="linearGradient11857" x1="159" y1="196" x2="159" y2="200" gradientUnits="userSpaceOnUse"/><linearGradient gradientTransform="matrix(1.33333 0 0 1.33333 58.138 57.825)" xlink:href="#linearGradient1272" id="linearGradient1274-3" x1="132.528" y1="193" x2="189" y2="122" gradientUnits="userSpaceOnUse"/><linearGradient gradientTransform="matrix(1.33333 0 0 1.33333 58.138 57.825)" xlink:href="#linearGradient1064" id="linearGradient1165-5" gradientUnits="userSpaceOnUse" x1="125" y1="203" x2="195" y2="117.567"/><linearGradient gradientTransform="matrix(1.33333 0 0 1.33333 58.138 57.825)" xlink:href="#linearGradient1264" id="linearGradient1266-6" x1="128" y1="118" x2="193" y2="118" gradientUnits="userSpaceOnUse"/><linearGradient gradientTransform="matrix(1.33333 0 0 1.33333 58.138 57.825)" xlink:href="#linearGradient1176" id="linearGradient1178-1" x1="129" y1="200" x2="191.567" y2="121" gradientUnits="userSpaceOnUse"/><linearGradient xlink:href="#linearGradient1151" id="linearGradient1185-0" gradientUnits="userSpaceOnUse" x1="144" y1="200" x2="179.567" y2="133" gradientTransform="matrix(1.33333 0 0 1.35185 58.138 55.381)"/><linearGradient gradientTransform="matrix(1.33333 0 0 1.33333 58.138 57.825)" xlink:href="#linearGradient11855" id="linearGradient11857-6" x1="159" y1="196" x2="159" y2="200" gradientUnits="userSpaceOnUse"/><linearGradient gradientTransform="matrix(1.33333 0 0 1.33333 58.138 57.825)" xlink:href="#linearGradient11845" id="linearGradient11847-1" x1="155" y1="196.575" x2="158.173" y2="206" gradientUnits="userSpaceOnUse"/><linearGradient xlink:href="#linearGradient11855" id="linearGradient1417" gradientUnits="userSpaceOnUse" gradientTransform="matrix(1.33333 0 0 1.33333 58.138 57.825)" x1="159" y1="196" x2="159" y2="200"/><linearGradient xlink:href="#linearGradient1064" id="linearGradient1419" gradientUnits="userSpaceOnUse" x1="125" y1="203" x2="195" y2="117.567"/><linearGradient xlink:href="#linearGradient1109" id="linearGradient1421" gradientUnits="userSpaceOnUse" x1="194" y1="193.493" x2="194" y2="175.102"/><linearGradient xlink:href="#linearGradient1064" id="linearGradient1423" gradientUnits="userSpaceOnUse" x1="125" y1="203" x2="195" y2="117.567"/><linearGradient gradientTransform="matrix(.67667 0 0 .67667 -28.242 -28.112)" xlink:href="#linearGradient1272" id="linearGradient1274-4" x1="132.528" y1="193" x2="189" y2="122" gradientUnits="userSpaceOnUse"/><linearGradient gradientTransform="matrix(.67667 0 0 .67667 -28.242 -28.112)" xlink:href="#linearGradient1064" id="linearGradient1165-54" gradientUnits="userSpaceOnUse" x1="125" y1="203" x2="195" y2="117.567"/><linearGradient gradientTransform="matrix(.67667 0 0 .67667 -28.242 -28.112)" xlink:href="#linearGradient1264" id="linearGradient1266-4" x1="128" y1="118" x2="193" y2="118" gradientUnits="userSpaceOnUse"/><linearGradient gradientTransform="matrix(.67667 0 0 .67667 -28.242 -28.112)" xlink:href="#linearGradient1176" id="linearGradient1178-7" x1="129" y1="200" x2="191.567" y2="121" gradientUnits="userSpaceOnUse"/><linearGradient xlink:href="#linearGradient1151" id="linearGradient1185-8" gradientUnits="userSpaceOnUse" x1="144" y1="200" x2="179.567" y2="133" gradientTransform="matrix(.67667 0 0 .68606 -28.242 -29.352)"/><linearGradient gradientTransform="matrix(.67667 0 0 .67667 -28.242 -28.112)" xlink:href="#linearGradient11855" id="linearGradient11857-4" x1="159" y1="196" x2="159" y2="200" gradientUnits="userSpaceOnUse"/><linearGradient gradientTransform="matrix(.67667 0 0 .67667 -28.242 -28.112)" xlink:href="#linearGradient11845" id="linearGradient11847-0" x1="155" y1="196.575" x2="158.173" y2="206" gradientUnits="userSpaceOnUse"/><linearGradient xlink:href="#linearGradient11855" id="linearGradient1575" gradientUnits="userSpaceOnUse" gradientTransform="matrix(.67667 0 0 .67667 -28.242 -28.112)" x1="159" y1="196" x2="159" y2="200"/><linearGradient xlink:href="#linearGradient1064" id="linearGradient1577" gradientUnits="userSpaceOnUse" x1="125" y1="203" x2="195" y2="117.567"/><linearGradient xlink:href="#linearGradient1109" id="linearGradient1579" gradientUnits="userSpaceOnUse" x1="194" y1="193.493" x2="194" y2="175.102"/><linearGradient xlink:href="#linearGradient1064" id="linearGradient1581" gradientUnits="userSpaceOnUse" x1="125" y1="203" x2="195" y2="117.567"/><linearGradient gradientTransform="matrix(.5 0 0 .5 -56.025 -55.557)" xlink:href="#linearGradient1272" id="linearGradient1274-9" x1="132.528" y1="193" x2="189" y2="122" gradientUnits="userSpaceOnUse"/><linearGradient gradientTransform="matrix(.5 0 0 .5 -56.025 -55.557)" xlink:href="#linearGradient1064" id="linearGradient1165-0" gradientUnits="userSpaceOnUse" x1="125" y1="203" x2="195" y2="117.567"/><linearGradient gradientTransform="matrix(.5 0 0 .5 -56.025 -55.557)" xlink:href="#linearGradient1264" id="linearGradient1266-5" x1="128" y1="118" x2="193" y2="118" gradientUnits="userSpaceOnUse"/><linearGradient xlink:href="#linearGradient1151" id="linearGradient1185-5" gradientUnits="userSpaceOnUse" x1="144" y1="200" x2="179.567" y2="133" gradientTransform="matrix(.5 0 0 .50694 -56.025 -56.474)"/><linearGradient xlink:href="#linearGradient11855" id="linearGradient1733" gradientUnits="userSpaceOnUse" gradientTransform="matrix(.5 0 0 .5 -56.025 -55.557)" x1="159" y1="196" x2="159" y2="200"/><linearGradient xlink:href="#linearGradient1064" id="linearGradient1735" gradientUnits="userSpaceOnUse" x1="125" y1="203" x2="195" y2="117.567"/><linearGradient xlink:href="#linearGradient1109" id="linearGradient1737" gradientUnits="userSpaceOnUse" x1="194" y1="193.493" x2="194" y2="175.102"/><linearGradient xlink:href="#linearGradient1064" id="linearGradient1739" gradientUnits="userSpaceOnUse" x1="125" y1="203" x2="195" y2="117.567"/><linearGradient gradientTransform="matrix(.33833 0 0 .33833 -69.748 -70.527)" xlink:href="#linearGradient1272" id="linearGradient1274-9-2" x1="132.528" y1="193" x2="189" y2="122" gradientUnits="userSpaceOnUse"/><linearGradient gradientTransform="matrix(.33833 0 0 .33833 -69.748 -70.527)" xlink:href="#linearGradient1064" id="linearGradient1165-0-0" gradientUnits="userSpaceOnUse" x1="125" y1="203" x2="195" y2="117.567"/><linearGradient gradientTransform="matrix(.33833 0 0 .33833 -69.748 -70.527)" xlink:href="#linearGradient1264" id="linearGradient1266-5-4" x1="128" y1="118" x2="193" y2="118" gradientUnits="userSpaceOnUse"/><linearGradient xlink:href="#linearGradient1151" id="linearGradient1185-5-2" gradientUnits="userSpaceOnUse" x1="144" y1="200" x2="179.567" y2="133" gradientTransform="matrix(.33833 0 0 .34303 -69.748 -71.147)"/><linearGradient xlink:href="#linearGradient11855" id="linearGradient1733-1" gradientUnits="userSpaceOnUse" gradientTransform="matrix(.33833 0 0 .33833 -69.748 -70.527)" x1="159" y1="196" x2="159" y2="200"/><linearGradient xlink:href="#linearGradient1064" id="linearGradient1939" gradientUnits="userSpaceOnUse" x1="125" y1="203" x2="195" y2="117.567"/><linearGradient xlink:href="#linearGradient1109" id="linearGradient1941" gradientUnits="userSpaceOnUse" x1="194" y1="193.493" x2="194" y2="175.102"/><linearGradient xlink:href="#linearGradient1064" id="linearGradient1943" gradientUnits="userSpaceOnUse" x1="125" y1="203" x2="195" y2="117.567"/><linearGradient xlink:href="#linearGradient11855" id="linearGradient1733-1-1" gradientUnits="userSpaceOnUse" gradientTransform="translate(-85.264 -85.19) scale(.25506)" x1="159" y1="196" x2="159" y2="200"/><linearGradient xlink:href="#linearGradient1151" id="linearGradient1185-5-2-6" gradientUnits="userSpaceOnUse" x1="144" y1="200" x2="179.567" y2="133" gradientTransform="matrix(.25506 0 0 .2586 -85.264 -85.657)"/><linearGradient gradientTransform="translate(-85.264 -85.19) scale(.25506)" xlink:href="#linearGradient1264" id="linearGradient1266-5-4-3" x1="128" y1="118" x2="193" y2="118" gradientUnits="userSpaceOnUse"/><linearGradient gradientTransform="translate(-85.264 -85.19) scale(.25506)" xlink:href="#linearGradient1064" id="linearGradient1165-0-0-5" gradientUnits="userSpaceOnUse" x1="125" y1="203" x2="195" y2="117.567"/><linearGradient gradientTransform="translate(-85.264 -85.19) scale(.25506)" xlink:href="#linearGradient1272" id="linearGradient1274-9-2-6" x1="132.528" y1="193" x2="189" y2="122" gradientUnits="userSpaceOnUse"/><linearGradient xlink:href="#linearGradient1151" id="linearGradient1185-5-2-6-8" gradientUnits="userSpaceOnUse" x1="144" y1="200" x2="179.567" y2="133" gradientTransform="matrix(.16911 0 0 .17146 -90.921 -91.584)"/><linearGradient gradientTransform="matrix(.16911 0 0 .16911 -90.921 -91.274)" xlink:href="#linearGradient1064" id="linearGradient1165-0-0-5-4" gradientUnits="userSpaceOnUse" x1="125" y1="203" x2="195" y2="117.567"/><linearGradient gradientTransform="matrix(.16911 0 0 .16911 -90.921 -91.274)" xlink:href="#linearGradient1272" id="linearGradient1274-9-2-6-6" x1="132.528" y1="193" x2="189" y2="122" gradientUnits="userSpaceOnUse"/><style id="style51071-8">.str0{stroke:#1f1a17;stroke-width:3}.fil0{fill:none}</style><style id="style2031-6">.str0{stroke:#1f1a17;stroke-width:.0762}.fil0,.fil1{fill:none}.fil1{fill-rule:nonzero}</style><style id="style5368-2">.str0,.str1{stroke:#000;stroke-width:63}.str1{stroke:#09098f}.fil5{fill:none}.fil1,.fil2{fill:#000}.fil3{fill:#4d66cc}.fil0{fill:#576ecd}.fil4{fill:#89a1d4}</style><style id="style51071">.str0{stroke:#1f1a17;stroke-width:3}.fil0{fill:none}</style><style id="style2031">.str0{stroke:#1f1a17;stroke-width:.0762}.fil0,.fil1{fill:none}.fil1{fill-rule:nonzero}</style><style id="style5368">.str0,.str1{stroke:#000;stroke-width:63}.str1{stroke:#09098f}.fil5{fill:none}.fil1,.fil2{fill:#000}.fil3{fill:#4d66cc}.fil0{fill:#576ecd}.fil4{fill:#89a1d4}</style></defs><g id="g7816" transform="translate(32 32)"><g id="g7814"><path style="isolation:auto;mix-blend-mode:normal;marker:none" d="M-28.133-31.619h25.037v30.45h-25.037z" id="rect1160-3-8" color="#000" overflow="visible" fill="#00010a" fill-opacity=".173" stroke-width=".338" stroke-opacity="0"/><path style="isolation:auto;mix-blend-mode:normal;marker:none" d="M-25.088-28.574h18.947v24.36h-18.947z" id="rect1187-0-0" color="#000" overflow="visible" fill="url(#linearGradient1274-9-2)" stroke-width=".338" stroke-opacity="0"/><path style="isolation:auto;mix-blend-mode:normal;marker:none" d="M-27.795-31.28v29.773h24.36V-31.28zm2.707 2.706h18.947v24.36h-18.947z" id="rect1029-4-2" color="#000" overflow="visible" fill="url(#linearGradient1165-0-0)" stroke-width=".338" stroke-opacity="0"/><path style="isolation:auto;mix-blend-mode:normal;marker:none" d="M-25.088-4.213v-24.36l-1.353-1.354V-2.86z" id="path1244-44-1" color="#000" overflow="visible" fill="#8b86b5" fill-opacity=".435" stroke-width=".338" stroke-opacity="0"/><path id="path1250-4-0" d="M-6.141-4.213h-18.947l-1.353 1.353h21.653z" style="isolation:auto;mix-blend-mode:normal;marker:none" color="#000" overflow="visible" fill="#d4cfff" fill-opacity=".366" stroke-width=".338" stroke-opacity="0"/><path id="path1246-76-5" d="M-6.141-4.213v-24.36l1.353-1.354V-2.86z" style="isolation:auto;mix-blend-mode:normal;marker:none" color="#000" overflow="visible" fill-opacity=".099" stroke-width=".338" stroke-opacity="0"/><path style="isolation:auto;mix-blend-mode:normal;marker:none" d="M-6.141-28.574h-18.947l-1.353-1.353h21.653z" id="path1248-3-1" color="#000" overflow="visible" fill="#00010a" fill-opacity=".346" stroke-width=".338" stroke-opacity="0"/><path id="path1258-1-1" d="M-4.788-29.927h-21.653l-1.354-1.353h24.36z" style="isolation:auto;mix-blend-mode:normal;marker:none" color="#000" overflow="visible" fill="url(#linearGradient1266-5-4)" stroke-width=".338" stroke-opacity="0"/><path style="isolation:auto;mix-blend-mode:normal;marker:none" d="M-22.387-24.821h13.544c.372 0 .672.3.672.671v.016a.67.67 0 0 1-.672.671h-13.544a.67.67 0 0 1-.671-.671v-.016c0-.372.3-.671.671-.671z" id="rect1276-5-0" color="#000" display="block" overflow="visible" fill="#2d2d2d" fill-opacity=".995" stroke-width=".136"/><path style="isolation:auto;mix-blend-mode:normal;marker:none" d="M-21.705-24.14h12.18s.677.674.677 1.352v17.259l.677 1.316-.339 1.353L-6 0h-19l2.28-2.86-.338-1.353.677-1.274V-22.78c0-.67.676-1.36.676-1.36z" id="rect1145-9-8" color="#000" overflow="visible" fill="url(#linearGradient1185-5-2)" stroke-width=".222" stroke-opacity=".262" paint-order="stroke fill markers"/><path id="path1156-6-5" d="M-10.76-9.545a.58.58 0 0 1-.187-.106c-.292-.121-.598-.208-.87-.375-.095-.015-.186-.04-.251-.119-.05-.013-.092-.047-.14-.06a.62.62 0 0 1-.351-.226c-.055-.036-.113-.069-.164-.11a.22.22 0 0 1-.122-.161c-.024-.105-.055-.208-.083-.312-.038-.104-.04-.214-.061-.321-.013-.06-.027-.112-.093-.13a.13.13 0 0 0-.06-.014c-.041 0-.082.016-.122.025a.299.299 0 0 1-.065.008c-.08 0-.126-.045-.142-.15-.013-.094-.038-.188-.043-.28-.01-.207-.04-.427.155-.579a8.25 8.25 0 0 0 .534-1.463c.03-.113.083-.209.232-.213.089-.002.162-.066.19-.164.088-.295.172-.593.307-.872.042-.203.141-.392.15-.604-.002-.042.01-.084.005-.126l-.024-.045-.022-.017c.004-.09.011-.181.008-.27-.004-.127-.064-.232-.186-.264-.112-.03-.133-.093-.126-.194.026-.397.048-.795.071-1.193l-.004-.037v-.024c-.012-.12-.022-.242-.036-.362-.031-.288-.062-.578-.211-.833a2.879 2.879 0 0 0-1.188-1.13c-.424-.219-.885-.328-1.35-.421a3.312 3.312 0 0 0-.664-.07c-.698 0-1.334.244-1.906.74l.006.02a.57.57 0 0 0-.199.218c-.09.17-.22.308-.356.436-.25.238-.387.512-.346.862l-.028.016-.03.044c-.06.284.015.567.014.85.07.24.07.487.09.732.011.135-.026.226-.154.273-.164.057-.229.191-.25.35a1.25 1.25 0 0 0 .018.502c.063.234.13.466.204.696.118.195.19.412.232.63.028.146.088.229.213.276a.27.27 0 0 1 .182.216c.036.17.1.332.15.497.06.135.158.255.159.412l.012.047c.284.46.436.94.25 1.48a.123.123 0 0 1-.094.046c-.065 0-.13-.05-.196-.052h-.05c-.073 0-.131.01-.15.11-.074.234-.114.478-.187.713a.435.435 0 0 1-.224.283 4.54 4.54 0 0 1-.816.34c-.19.136-.418.178-.63.257-.232.086-.47.152-.71.214 2.842 1.757 7.473 1.498 9.708.004z" style="isolation:auto;mix-blend-mode:normal;marker:none" color="#000" overflow="visible" fill="#040a54" fill-opacity=".309" stroke-width=".202" stroke-opacity="0"/><path style="isolation:auto;mix-blend-mode:normal;marker:none" d="M-10.76-9.937a.58.58 0 0 1-.187-.106c-.292-.12-.598-.207-.87-.375-.095-.015-.186-.039-.251-.118-.05-.013-.092-.047-.14-.06a.62.62 0 0 1-.351-.226c-.055-.037-.113-.07-.164-.11a.22.22 0 0 1-.122-.162c-.024-.104-.055-.208-.083-.311-.038-.104-.04-.214-.061-.321-.013-.06-.027-.112-.093-.13a.13.13 0 0 0-.06-.014c-.041 0-.082.016-.122.025a.299.299 0 0 1-.065.008c-.08 0-.126-.046-.142-.15-.013-.094-.038-.188-.043-.28-.01-.208-.04-.427.155-.58a8.25 8.25 0 0 0 .534-1.462c.03-.113.083-.21.232-.213.089-.002.162-.066.19-.164.088-.296.172-.593.307-.872.042-.204.141-.392.15-.604-.002-.042.01-.085.005-.127l-.024-.045-.022-.017c.004-.09.011-.18.008-.27-.004-.127-.064-.231-.186-.263-.112-.03-.133-.093-.126-.194.026-.398.048-.796.071-1.193l-.004-.038v-.023c-.012-.121-.022-.242-.036-.362-.031-.288-.062-.578-.211-.834a2.879 2.879 0 0 0-1.188-1.129c-.424-.219-.885-.328-1.35-.422a3.312 3.312 0 0 0-.664-.07c-.698 0-1.334.245-1.906.74l.006.02a.57.57 0 0 0-.199.218c-.09.17-.22.309-.356.437-.25.237-.387.512-.346.862l-.028.016-.03.044c-.06.284.015.566.014.85.07.24.07.486.09.732.011.135-.026.226-.154.272-.164.058-.229.192-.25.351a1.25 1.25 0 0 0 .018.501c.063.234.13.467.204.697.118.195.19.412.232.63.028.145.088.229.213.275a.27.27 0 0 1 .182.217c.036.17.1.332.15.497.06.135.158.254.159.412l.012.047c.284.459.436.94.25 1.48a.123.123 0 0 1-.094.045c-.065 0-.13-.05-.196-.051h-.05c-.073 0-.131.01-.15.11-.074.234-.114.477-.187.712a.435.435 0 0 1-.224.283 4.54 4.54 0 0 1-.816.34c-.19.136-.418.178-.63.257-.232.087-.47.153-.71.214 2.842 1.758 7.473 1.499 9.708.005z" id="path1043-21-0" color="#000" overflow="visible" fill="#eff9ff" stroke-width=".202" stroke-opacity="0"/><path style="isolation:auto;mix-blend-mode:normal;marker:none" d="M-23.058-4.213h14.887L-8.51-2.86h-14.21z" id="rect11836-3-1" color="#000" display="block" overflow="visible" fill="url(#linearGradient1733-1)" stroke-width=".135"/><g id="g11818-78-6" transform="matrix(.2084 0 0 .2084 -52.983 -44.682)" color="#000"><g id="g11788-5-4" transform="translate(0 1.686)"><path style="isolation:auto;mix-blend-mode:normal;marker:none" d="M119.492 126h.425c3.601 0 6.5 2.899 6.5 6.5s-2.899 6.5-6.5 6.5h-.425a6.486 6.486 0 0 1-6.5-6.5c0-3.601 2.9-6.5 6.5-6.5z" id="rect11775-4-6" display="block" overflow="visible" fill="#343441" stroke-width=".4"/><path style="isolation:auto;mix-blend-mode:normal;marker:none" d="M124.157 132.5a4.453 4.453 0 0 1-4.452 4.453 4.453 4.453 0 0 1-4.453-4.453 4.453 4.453 0 0 1 4.453-4.453 4.453 4.453 0 0 1 4.452 4.453z" id="circle11777-18-2" display="block" overflow="visible" fill="#fbfbfb" stroke-width=".524"/></g><g transform="translate(0 27.694)" id="g11796-5-5"><path style="isolation:auto;mix-blend-mode:normal;marker:none" d="M119.492 126h.425c3.601 0 6.5 2.899 6.5 6.5s-2.899 6.5-6.5 6.5h-.425a6.486 6.486 0 0 1-6.5-6.5c0-3.601 2.9-6.5 6.5-6.5z" id="rect11792-7-8" display="block" overflow="visible" fill="#343441" stroke-width=".4"/><path style="isolation:auto;mix-blend-mode:normal;marker:none" d="M124.157 132.5a4.453 4.453 0 0 1-4.452 4.453 4.453 4.453 0 0 1-4.453-4.453 4.453 4.453 0 0 1 4.453-4.453 4.453 4.453 0 0 1 4.452 4.453z" id="circle11794-53-6" display="block" overflow="visible" fill="#fbfbfb" stroke-width=".524"/></g><g id="g11804-8-2" transform="translate(0 53.7)"><path style="isolation:auto;mix-blend-mode:normal;marker:none" d="M119.492 126h.425c3.601 0 6.5 2.899 6.5 6.5s-2.899 6.5-6.5 6.5h-.425a6.486 6.486 0 0 1-6.5-6.5c0-3.601 2.9-6.5 6.5-6.5z" id="rect11800-1-8" display="block" overflow="visible" fill="#343441" stroke-width=".4"/><path style="isolation:auto;mix-blend-mode:normal;marker:none" d="M124.157 132.5a4.453 4.453 0 0 1-4.452 4.453 4.453 4.453 0 0 1-4.453-4.453 4.453 4.453 0 0 1 4.453-4.453 4.453 4.453 0 0 1 4.452 4.453z" id="circle11802-8-4" display="block" overflow="visible" fill="#fbfbfb" stroke-width=".524"/></g><g id="g11826-96-7" transform="translate(0 -24.32)"><path style="isolation:auto;mix-blend-mode:normal;marker:none" d="M119.492 126h.425c3.601 0 6.5 2.899 6.5 6.5s-2.899 6.5-6.5 6.5h-.425a6.486 6.486 0 0 1-6.5-6.5c0-3.601 2.9-6.5 6.5-6.5z" id="rect11822-3-2" display="block" overflow="visible" fill="#343441" stroke-width=".4"/><path style="isolation:auto;mix-blend-mode:normal;marker:none" d="M124.157 132.5a4.453 4.453 0 0 1-4.452 4.453 4.453 4.453 0 0 1-4.453-4.453 4.453 4.453 0 0 1 4.453-4.453 4.453 4.453 0 0 1 4.452 4.453z" id="circle11824-3-4" display="block" overflow="visible" fill="#fbfbfb" stroke-width=".524"/></g><g transform="translate(0 -50.328)" id="g11834-3-0"><path style="isolation:auto;mix-blend-mode:normal;marker:none" d="M119.492 126h.425c3.601 0 6.5 2.899 6.5 6.5s-2.899 6.5-6.5 6.5h-.425a6.486 6.486 0 0 1-6.5-6.5c0-3.601 2.9-6.5 6.5-6.5z" id="rect11830-6-6" display="block" overflow="visible" fill="#343441" stroke-width=".4"/><path style="isolation:auto;mix-blend-mode:normal;marker:none" d="M124.157 132.5a4.453 4.453 0 0 1-4.452 4.453 4.453 4.453 0 0 1-4.453-4.453 4.453 4.453 0 0 1 4.453-4.453 4.453 4.453 0 0 1 4.452 4.453z" id="circle11832-0-2" display="block" overflow="visible" fill="#fbfbfb" stroke-width=".524"/></g></g><g id="g1058-4-9" transform="matrix(.33078 0 0 .33078 -68.298 -67.711)"><path style="isolation:auto;mix-blend-mode:normal;marker:none" d="M205 184.819a13 13 0 0 1-13 13 13 13 0 0 1-13-13 13 13 0 0 1 13-13 13 13 0 0 1 13 13z" id="path1046-8-9" color="#000" display="block" overflow="visible" fill="url(#linearGradient1939)" stroke-width=".7" stroke-opacity=".262" paint-order="stroke fill markers"/><path style="isolation:auto;mix-blend-mode:normal;marker:none" d="M203 184.819a11 11 0 0 1-11 11 11 11 0 0 1-11-11 11 11 0 0 1 11-11 11 11 0 0 1 11 11z" id="circle1136-8-0" color="#000" display="block" overflow="visible" fill="url(#linearGradient1941)" stroke-width=".846" stroke-opacity="0"/><path d="M189.852 185.029q0 1.238.615 1.948.614.701 1.688.701 1.065 0 1.672-.71.614-.71.614-1.94 0-1.212-.623-1.922-.624-.719-1.68-.719-1.048 0-1.671.71-.615.71-.615 1.932zm4.72 2.589q-.52.667-1.196.987-.667.312-1.559.312-1.489 0-2.424-1.074-.927-1.082-.927-2.814t.935-2.815q.936-1.082 2.416-1.082.892 0 1.568.329.675.32 1.186.978v-1.134h1.239v6.373q1.264-.19 1.974-1.151.719-.97.719-2.503 0-.927-.277-1.74-.269-.815-.823-1.507-.9-1.135-2.2-1.732-1.29-.607-2.814-.607-1.065 0-2.044.286-.978.277-1.81.831-1.36.884-2.13 2.321-.762 1.43-.762 3.1 0 1.377.494 2.581.502 1.204 1.446 2.122.91.9 2.104 1.368 1.195.476 2.555.476 1.117 0 2.19-.38 1.083-.373 1.984-1.074l.78.96q-1.083.84-2.365 1.282-1.273.45-2.59.45-1.601 0-3.021-.57-1.42-.564-2.53-1.646-1.108-1.083-1.688-2.503-.58-1.429-.58-3.065 0-1.577.589-3.005.589-1.43 1.68-2.512 1.117-1.1 2.58-1.68 1.464-.589 3.1-.589 1.837 0 3.404.754 1.576.753 2.641 2.139.65.848.988 1.844.346.996.346 2.061 0 2.278-1.377 3.594-1.377 1.316-3.802 1.368z" style="line-height:1000%;-inkscape-font-specification:font;marker:none" id="path1052-9-8" font-weight="400" font-family="font" letter-spacing="0" word-spacing="0" fill="url(#linearGradient1943)" stroke-opacity="0"/></g></g></g></svg>