<svg xmlns="http://www.w3.org/2000/svg" xmlns:xlink="http://www.w3.org/1999/xlink" height="32" viewBox="0 0 32 32" width="32"><title>Template icons dark</title><defs><linearGradient id="c"><stop offset="0" stop-color="#8298a2"/><stop offset="1" stop-color="#c3d5dc" stop-opacity=".984"/></linearGradient><linearGradient id="d"><stop offset="0" stop-color="#889da6"/><stop offset="1" stop-color="#b9cdd5" stop-opacity=".984"/></linearGradient><linearGradient id="e"><stop offset="0" stop-color="#758d98"/><stop offset="1" stop-color="#acc5ce" stop-opacity=".984"/></linearGradient><linearGradient id="b"><stop offset="0" stop-color="#e0eef7"/><stop offset="1" stop-color="#909b9c"/></linearGradient><linearGradient id="a"><stop offset="0" stop-color="#98aab2"/><stop offset="1" stop-color="#d3e0e5" stop-opacity=".984"/></linearGradient><linearGradient xlink:href="#a" id="h" gradientUnits="userSpaceOnUse" x1="141.165" y1="190.299" x2="186.52" y2="128" gradientTransform="scale(.3309) rotate(-15 -736.307 843.678)"/><linearGradient xlink:href="#c" id="g" gradientUnits="userSpaceOnUse" x1="141.165" y1="190.299" x2="186.52" y2="128" gradientTransform="scale(.3309) rotate(-15 -736.307 843.678)"/><linearGradient xlink:href="#b" id="f" gradientUnits="userSpaceOnUse" gradientTransform="scale(.3309) rotate(-15 -740.105 844.178)" x1="161" y1="199" x2="161" y2="195.016"/></defs><path style="isolation:auto;mix-blend-mode:normal;marker:none" d="M23.58-.05c-.09.005-.18.02-.27.043L2.253 5.635a1.347 1.347 0 0 0-.955 1.654l5.97 22.278.263.986.088.328c0 .002.001.002.002.003l.055.204c.166.62.798.985 1.418.819l21.428-5.742c.62-.166.984-.798.818-1.418l-6.068-22.65-.004-.01-.305-1.139A1.347 1.347 0 0 0 23.58-.05z" color="#000" overflow="visible" fill-opacity=".104" stroke-width=".259"/><path style="isolation:auto;mix-blend-mode:normal;marker:none" d="M2.809 7.266l20.838-5.583a1.123 1.123 0 0 1 1.379.796l5.901 22.025a1.123 1.123 0 0 1-.795 1.379L9.293 31.467a1.123 1.123 0 0 1-1.378-.796L2.013 8.645a1.123 1.123 0 0 1 .796-1.379z" color="#000" overflow="visible" fill="#59686e" stroke-width=".252"/><path style="isolation:auto;mix-blend-mode:normal;marker:none" d="M3.294 7.977L23.17 2.65a1.077 1.077 0 0 1 1.322.763l5.63 21.01a1.077 1.077 0 0 1-.764 1.323L9.482 31.073a1.077 1.077 0 0 1-1.322-.763L2.53 9.3a1.077 1.077 0 0 1 .764-1.323z" color="#000" display="block" overflow="visible" fill-opacity=".225" stroke-width=".24"/><path style="isolation:auto;mix-blend-mode:normal;marker:none" d="M-28.792-24.343l19.877-5.326a1.077 1.077 0 0 1 1.322.764l5.63 21.01a1.077 1.077 0 0 1-.763 1.323l-19.877 5.326a1.077 1.077 0 0 1-1.323-.764l-5.63-21.01a1.077 1.077 0 0 1 .764-1.323z" color="#000" display="block" overflow="visible" fill="url(#f)" stroke-width=".24" transform="translate(32 32)"/><path style="isolation:auto;mix-blend-mode:normal;marker:none" d="M-29.359-26.08l20.476-5.487a1.31 1.31 0 0 1 1.608.928L-1.64-9.614a1.31 1.31 0 0 1-.929 1.608L-23.045-2.52c-.703.189-1.042 1.187-1.095.99l-6.147-22.942a1.31 1.31 0 0 1 .928-1.609z" color="#000" overflow="visible" fill="url(#g)" stroke-width=".252" transform="translate(32 32)"/><path style="line-height:1000%;-inkscape-font-specification:'Nimbus Roman, '" d="M21.646 16.454l-1.312-4.894-.485.13c.215 1.729-.065 2.12-1.783 2.626l-3.06.82-1.254-4.684c-.148-.638-.102-.719.483-.898l2.869-.769c2.458-.613 2.96-.431 3.8 1.356L21.43 10l-.871-3-11.202 3.001.107.401c1.569-.307 1.895-.1 2.344 1.407l2.448 9.135c.46 1.798.31 2.087-1.264 2.622l.107.4 5.907-1.582-.108-.4c-1.62.366-1.994.15-2.428-1.385L15.239 16l3.058-.82c1.736-.442 2.153-.237 2.864 1.404z" font-weight="400" font-family="Nimbus Roman" letter-spacing="0" word-spacing="0" fill-opacity=".401" stroke-width="1.365"/><path style="line-height:1000%;-inkscape-font-specification:'Nimbus Roman, '" d="M21.526 15.785l-1.312-4.895-.485.13c.214 1.73-.065 2.12-1.784 2.626l-3.058.82-1.255-4.683c-.149-.639-.102-.72.483-.899l2.869-.768c2.458-.614 2.959-.431 3.8 1.356l.527-.142-.872-3L9.238 9.333l.107.4c1.568-.306 1.895-.1 2.344 1.408l2.448 9.134c.459 1.799.31 2.087-1.265 2.623l.108.4 5.906-1.582-.107-.401c-1.62.366-1.995.15-2.428-1.384l-1.233-4.6 3.06-.819c1.735-.442 2.151-.237 2.862 1.404z" font-weight="400" font-family="Nimbus Roman" letter-spacing="0" word-spacing="0" fill="#fdfefe" stroke-width="1.365"/><path style="isolation:auto;mix-blend-mode:normal;marker:none" d="M3.21 6.72a.33.33 0 0 1 .404.233l5.738 21.415a.33.33 0 1 1-.639.171L2.975 7.125a.33.33 0 0 1 .234-.406z" color="#000" display="block" overflow="visible" fill="#0c0f10" fill-opacity=".192" stroke-width=".252"/><path style="isolation:auto;mix-blend-mode:normal;marker:none" d="M30.273 22.066a1.31 1.31 0 0 1-.928 1.609L8.869 29.16c-.703.188-1.042 1.187-1.095.989l.086.32c.053.197.392-.801 1.095-.99l20.475-5.486a1.31 1.31 0 0 0 .929-1.608z" color="#000" overflow="visible" fill-opacity=".434" stroke-width=".252"/></svg>