<svg xmlns="http://www.w3.org/2000/svg" xmlns:xlink="http://www.w3.org/1999/xlink" height="32" viewBox="0 0 32 32" width="32"><title>Template icons dark</title><defs><linearGradient id="c"><stop offset="0" stop-color="#35b8ff"/><stop offset="1" stop-color="#ffd578"/></linearGradient><linearGradient id="b"><stop offset="0" stop-opacity=".031"/><stop offset="1" stop-opacity=".266"/></linearGradient><linearGradient id="a"><stop offset="0" stop-color="#fff" stop-opacity="0"/><stop offset="1" stop-color="#e1f0f2" stop-opacity=".803"/></linearGradient><linearGradient xlink:href="#c" id="d" x1="184.536" y1="195.531" x2="131.031" y2="127.468" gradientUnits="userSpaceOnUse" gradientTransform="matrix(.33333 0 0 .33333 -69.333 -69.333)"/><linearGradient xlink:href="#a" id="e" gradientUnits="userSpaceOnUse" gradientTransform="matrix(.3253 -.02623 .02623 .3253 -72.288 -63.851)" x1="136.2" y1="136.006" x2="125.785" y2="189.342"/><linearGradient xlink:href="#b" id="f" gradientUnits="userSpaceOnUse" gradientTransform="scale(-.32636) rotate(64.278 192.812 16.174)" x1="177.255" y1="146.351" x2="140.341" y2="120.537"/><linearGradient xlink:href="#a" id="g" gradientUnits="userSpaceOnUse" gradientTransform="matrix(.3253 -.02623 .02623 .3253 -72.288 -63.851)" x1="139.777" y1="191.473" x2="200.801" y2="178.153"/><linearGradient xlink:href="#b" id="h" gradientUnits="userSpaceOnUse" x1="177.255" y1="146.351" x2="140.341" y2="120.537" gradientTransform="scale(-.32636) rotate(-57.521 3.367 205.554)"/><linearGradient xlink:href="#a" id="i" x1="193.184" y1="160.635" x2="155.531" y2="117.469" gradientUnits="userSpaceOnUse" gradientTransform="matrix(.3253 -.02623 .02623 .3253 -72.288 -63.851)"/><linearGradient xlink:href="#b" id="j" x1="177.255" y1="146.351" x2="140.341" y2="120.537" gradientUnits="userSpaceOnUse" gradientTransform="matrix(.32636 0 0 .32636 -68.218 -68.218)"/></defs><g color="#000"><path d="M16 0C7.163 0 0 7.163 0 16s7.163 16 16 16 16-7.163 16-16S24.837 0 16 0zm-.03 11.793a4.253 4.253 0 1 1 0 8.506 4.253 4.253 0 0 1 0-8.506z" style="isolation:auto;mix-blend-mode:normal;marker:none" display="block" overflow="visible" fill-opacity=".141" stroke-width="3.997" paint-order="fill markers stroke"/><path style="isolation:auto;mix-blend-mode:normal;marker:none" d="M-16-31.665c-8.652 0-15.665 7.014-15.665 15.665C-31.665-7.348-24.652-.334-16-.334S-.335-7.348-.335-16c0-8.651-7.013-15.665-15.665-15.665zm-.03 11.222a4.49 4.49 0 1 1 0 8.98 4.49 4.49 0 0 1 0-8.98z" display="block" overflow="visible" fill="url(#d)" stroke-width="3.914" paint-order="fill markers stroke" transform="translate(32 32)"/><path style="isolation:auto;mix-blend-mode:normal;marker:none" d="M-29.499-8.046a15.665 15.665 0 0 0 5.575 5.558c-.134-.199-.263-.4-.386-.605-3.594-6.115 1.571-13.552 5.35-16.257a4.49 4.49 0 0 1 .65-.469c.22-.127.449-.235.686-.324l-6.325-9.35c-7.455 4.39-9.94 13.992-5.55 21.447z" overflow="visible" fill="url(#e)" stroke-width="3.914" paint-order="fill markers stroke" transform="translate(32 32)"/><path style="isolation:auto;mix-blend-mode:normal;marker:none" d="M-24.336-2.762c.289.198.584.388.887.566-.133-.198-.261-.4-.384-.606-3.05-5.222 1.182-12.166 3.722-15.012a4.552 4.552 0 0 1 1.163-1.551c-3.786 2.694-8.971 10.112-5.394 16.237.123.206.251.407.385.606-.13-.076-.253-.16-.38-.24z" overflow="visible" fill="url(#f)" stroke-width="3.914" paint-order="fill markers stroke" transform="translate(32 32)"/><path d="M-2.17-8.633a15.665 15.665 0 0 0 1.832-7.655c-.1.217-.204.432-.315.644-3.34 6.258-12.466 5.775-16.746 3.964a4.49 4.49 0 0 1-.74-.311 4.49 4.49 0 0 1-.633-.415l-4.59 10.232C-15.726 1.894-6.238-.997-2.17-8.633z" style="isolation:auto;mix-blend-mode:normal;marker:none" overflow="visible" fill="url(#g)" stroke-width="3.914" paint-order="fill markers stroke" transform="translate(32 32)"/><path d="M-.357-15.863c.016-.35.022-.701.014-1.053-.098.218-.202.434-.312.646-2.832 5.345-11.05 5.442-14.807 4.783-1.02.147-1.931-.171-1.931-.171 4.285 1.798 13.408 2.26 16.729-4.008.11-.212.213-.427.312-.645.003.15-.004.299-.004.448z" style="isolation:auto;mix-blend-mode:normal;marker:none" overflow="visible" fill="url(#h)" stroke-width="3.914" paint-order="fill markers stroke" transform="translate(32 32)"/><path style="isolation:auto;mix-blend-mode:normal;marker:none" d="M-17.254-31.617a15.665 15.665 0 0 0-7.434 2.59c.237-.035.475-.062.713-.084 7.07-.564 11.5 7.424 12.285 12.004.07.26.115.524.137.791.02.252.017.506-.007.757L-.38-17.26c-.696-8.624-8.25-15.051-16.874-14.356z" overflow="visible" fill="url(#i)" stroke-width="3.914" paint-order="fill markers stroke" transform="translate(32 32)"/><path style="isolation:auto;mix-blend-mode:normal;marker:none" d="M-24.307-29.265a15.67 15.67 0 0 0-.896.554c.237-.033.475-.062.713-.083 6.03-.482 10.446 6.442 11.906 9.966.673.781.894 1.721.894 1.721-.785-4.58-5.215-12.569-12.286-12.004-.238.022-.475.05-.712.084.125-.084.254-.158.381-.238z" overflow="visible" fill="url(#j)" stroke-width="3.914" paint-order="fill markers stroke" transform="translate(32 32)"/><path style="isolation:auto;mix-blend-mode:normal;marker:none" d="M20.426 16.016a4.45 4.45 0 1 1-8.902 0 4.45 4.45 0 0 1 8.902 0z" display="block" overflow="visible" fill-opacity=".083" stroke-width="3.997" paint-order="fill markers stroke"/></g></svg>