<svg xmlns="http://www.w3.org/2000/svg" xmlns:xlink="http://www.w3.org/1999/xlink" height="32" viewBox="0 0 32 32" width="32"><title>Template icons dark</title><defs><linearGradient id="a"><stop offset="0" stop-color="#4d77d3"/><stop offset=".453" stop-color="#767294"/><stop offset="1" stop-color="#a6659c"/></linearGradient><linearGradient id="b"><stop offset="0" stop-color="#0b1528"/><stop offset="1" stop-color="#473d49"/></linearGradient><linearGradient xlink:href="#a" id="d" x1="53.271" y1="55.429" x2="-10.45" y2="-7.238" gradientUnits="userSpaceOnUse" gradientTransform="matrix(.4007 0 0 .41727 -25.583 -25.733)"/><linearGradient xlink:href="#b" id="c" x1="26.4" y1="60.613" x2="26.4" y2="-12.187" gradientUnits="userSpaceOnUse" gradientTransform="matrix(.37087 0 0 .37527 -24.97 -25.003)"/></defs><g transform="translate(32 32)"><rect ry="1.615" y="-31.018" x="-32.091" height="30" width="32" style="isolation:auto;mix-blend-mode:normal;marker:none" color="#000" overflow="visible" fill-opacity=".077" stroke-width=".12" stroke-opacity=".471"/><rect style="isolation:auto;mix-blend-mode:normal;marker:none" width="29.889" height="27.889" x="-31.035" y="-29.963" ry="1.501" color="#000" overflow="visible" fill="url(#c)" stroke="#000" stroke-width=".111" stroke-opacity=".471"/><rect style="isolation:auto;mix-blend-mode:normal;marker:none" width="29" height="27" x="-30.591" y="-29.519" ry="1.012" color="#000" overflow="visible" fill="none" stroke="url(#d)"/><rect style="isolation:auto;mix-blend-mode:normal;marker:none" width="10" height="3" x="-19" y="-19" ry="0" color="#000" overflow="visible" fill="#e9f0fe" stroke-width=".645"/><path style="line-height:10;-inkscape-font-specification:'Ubuntu Mono'" d="M-24.26-17.798q.514 0 .856-.071.357-.086.556-.228.2-.157.286-.357.085-.214.085-.456 0-.357-.17-.6-.172-.256-.471-.441-.286-.2-.657-.343-.37-.157-.77-.3-.385-.142-.77-.313-.37-.171-.67-.414-.285-.256-.47-.599-.186-.356-.186-.87 0-.912.542-1.483.542-.57 1.569-.727v-1.469h1.055v1.426q.57.029 1.041.143.485.1.77.214l-.242.998q-.3-.114-.756-.228-.456-.128-1.155-.128-.77 0-1.184.285-.4.285-.4.827 0 .3.115.5.128.199.356.356.228.157.528.285.314.128.699.27.485.186.941.4.456.2.799.485.342.285.542.685.214.399.214.955 0 .842-.557 1.426-.556.585-1.711.728v1.64h-1.055V-16.8q-.899-.028-1.455-.2-.556-.17-.827-.327l.314-.984q.385.185.912.356.528.157 1.327.157z" font-weight="400" font-size="10.102" font-family="Ubuntu Mono" letter-spacing="0" word-spacing="0" fill="#fff" fill-opacity=".989" stroke-width="1.412"/></g></svg>