<svg xmlns="http://www.w3.org/2000/svg" xmlns:xlink="http://www.w3.org/1999/xlink" height="32" viewBox="0 0 32 32" width="32"><title>Template icons dark</title><defs><linearGradient id="h"><stop offset="0" stop-color="#e1140e"/><stop offset="1" stop-color="#951318"/></linearGradient><linearGradient id="g" gradientTransform="matrix(0 -100 -100 0 96 146)" gradientUnits="userSpaceOnUse" x2="1"><stop offset="0" stop-color="#fff"/><stop offset="1" stop-color="#c7c7c7"/></linearGradient><linearGradient id="b"><stop offset="0" stop-color="#c6120c"/><stop offset="1" stop-color="#490306"/></linearGradient><linearGradient id="f"><stop offset="0" stop-opacity=".736"/><stop offset="1" stop-opacity="0"/></linearGradient><linearGradient id="e"><stop offset="0" stop-opacity=".742"/><stop offset="1" stop-opacity="0"/></linearGradient><linearGradient id="d"><stop offset="0" stop-color="#8c1919"/><stop offset="1" stop-color="#ff3030"/></linearGradient><linearGradient id="i"><stop offset="0" stop-color="#fff"/><stop offset="1" stop-color="#dac7b4"/></linearGradient><linearGradient id="c"><stop offset="0" stop-color="#362c2d" stop-opacity=".374"/><stop offset="1" stop-opacity="0"/></linearGradient><linearGradient id="a"><stop offset="0" stop-color="#2c2e31"/><stop offset="1" stop-color="#40464d"/></linearGradient><linearGradient xlink:href="#g" id="u" gradientUnits="userSpaceOnUse" x1="177.323" y1="176" x2="177.323" y2="200" gradientTransform="matrix(.35745 0 0 .35745 -72.783 -72.588)"/><linearGradient xlink:href="#h" id="t" gradientUnits="userSpaceOnUse" x1="173.088" y1="180.647" x2="173.088" y2="200" gradientTransform="matrix(.35745 0 0 .35745 -72.783 -72.588)"/><linearGradient xlink:href="#b" id="n" x1="-567.013" y1="546.542" x2="-567.013" y2="541.888" gradientUnits="userSpaceOnUse" gradientTransform="matrix(.27318 0 0 .27318 139.058 -166.575)"/><linearGradient xlink:href="#a" id="m" x1="-553.436" y1="535.695" x2="-538.458" y2="525.571" gradientUnits="userSpaceOnUse" gradientTransform="matrix(.27318 0 0 .27318 139.058 -166.575)"/><linearGradient xlink:href="#a" id="l" x1="-591.369" y1="535.056" x2="-580.187" y2="522.822" gradientUnits="userSpaceOnUse" gradientTransform="matrix(.27318 0 0 .27318 139.058 -166.575)"/><linearGradient xlink:href="#c" id="k" x1="166" y1="152" x2="166" y2="146" gradientUnits="userSpaceOnUse" gradientTransform="matrix(.548 0 0 .548 -105.763 -96.56)"/><linearGradient xlink:href="#g" id="o" gradientUnits="userSpaceOnUse" gradientTransform="matrix(.35745 0 0 .35745 -72.783 -72.588)" x1="177.323" y1="176" x2="177.323" y2="200"/><linearGradient xlink:href="#g" id="p" gradientUnits="userSpaceOnUse" gradientTransform="matrix(.35745 0 0 .35745 -72.783 -72.588)" x1="177.323" y1="176" x2="177.323" y2="200"/><linearGradient xlink:href="#h" id="q" gradientUnits="userSpaceOnUse" gradientTransform="matrix(.35745 0 0 .35745 -72.783 -72.588)" x1="173.088" y1="180.647" x2="173.088" y2="200"/><linearGradient xlink:href="#h" id="r" gradientUnits="userSpaceOnUse" gradientTransform="matrix(.35745 0 0 .35745 -72.783 -72.588)" x1="173.088" y1="180.647" x2="173.088" y2="200"/><linearGradient xlink:href="#g" id="s" gradientUnits="userSpaceOnUse" gradientTransform="matrix(.35745 0 0 .35745 -72.783 -72.588)" x1="177.323" y1="176" x2="177.323" y2="200"/><radialGradient xlink:href="#i" id="j" cx="167.805" cy="136.668" fx="167.805" fy="136.668" r="20.669" gradientTransform="matrix(.548 0 0 .45286 -105.763 -83.634)" gradientUnits="userSpaceOnUse"/></defs><path d="M5.983 16.55c5.297 4.968 16.594 3.29 20.776.17 1.827-1.768 1.197-4.314-.458-4.928C31.156 1.011 14.52-5.725 11.027 6.516 8.975 2.691 1.225 6.48 6.07 11.48c-2.398.385-3.09 4.06-.086 5.07z" fill-opacity=".099" fill-rule="evenodd" stroke-width=".264"/><path style="isolation:auto;mix-blend-mode:normal;marker:none" d="M27.726 31.197a11.724.765 0 0 1-11.724.765 11.724.765 0 0 1-11.724-.765 11.724.765 0 0 1 11.724-.765 11.724.765 0 0 1 11.724.765z" color="#000" display="block" overflow="visible" fill-opacity=".17" stroke-width=".209" paint-order="fill markers stroke"/><path d="M-25.48-15.734c5.024 4.714 15.743 3.123 19.71.162 1.733-1.677 1.136-4.093-.435-4.675 4.607-10.23-11.176-16.62-14.49-5.006-1.947-3.629-9.3-.034-4.705 4.71-2.274.365-2.931 3.852-.08 4.809z" fill="url(#j)" fill-rule="evenodd" stroke-width=".25" transform="translate(32 32)"/><path d="M-25.48-15.734c5.024 4.714 15.743 3.123 19.71.162 1.733-1.677 1.136-4.093-.435-4.675 4.607-10.23-11.176-16.62-14.49-5.006-1.947-3.629-9.3-.034-4.705 4.71-2.274.365-2.931 3.852-.08 4.809z" fill="url(#k)" fill-rule="evenodd" stroke-width=".25" transform="translate(32 32)"/><path d="M-19.09-20.41a1.7 1.7 0 1 1-3.4 0 1.7 1.7 0 0 1 3.4 0z" fill="url(#l)" stroke-width=".164" stroke-linecap="round" stroke-linejoin="round" transform="translate(32 32)"/><path d="M-8.727-20.236a1.7 1.7 0 1 1-3.4 0 1.7 1.7 0 0 1 3.4 0z" fill="url(#m)" stroke-width=".164" stroke-linecap="round" stroke-linejoin="round" transform="translate(32 32)"/><path d="M-13.05-18.286c-.402 3.09-4.878 2.912-5.077-.038-.035-.29.026-.265.308-.266l4.406-.025c.387-.035.393.006.363.33z" opacity=".848" fill="url(#n)" fill-rule="evenodd" stroke-width=".262" transform="translate(32 32)"/><path d="M22.807 11.065a.535.535 0 1 1-1.07 0 .535.535 0 0 1 1.07 0zM12.218 11.065a.535.535 0 1 1-1.07 0 .535.535 0 0 1 1.07 0z" fill="#fefefe" stroke-width=".052" stroke-linecap="round" stroke-linejoin="round"/><path d="M-19.476-.696h2.448l-.346-12.852c-.005-1.345-2.344-1.765-2.689-.323z" fill="url(#o)" fill-rule="evenodd" stroke-width=".228" transform="translate(32 32)"/><path d="M25.213 31.197a9.21.601 0 0 1-9.211.601 9.21.601 0 0 1-9.21-.6 9.21.601 0 0 1 9.21-.602 9.21.601 0 0 1 9.21.601z" style="isolation:auto;mix-blend-mode:normal;marker:none" color="#000" display="block" overflow="visible" fill-opacity=".17" stroke-width=".164" paint-order="fill markers stroke"/><path d="M-12.357-.696h-2.208l.193-12.92c.005-1.345 2.345-1.765 2.689-.323z" fill="url(#p)" fill-rule="evenodd" stroke-width=".228" transform="translate(32 32)"/><path d="M-17.193-.696h2.628l.205-12.61c-.017-1.93-3.01-1.936-3.019-.03z" fill="url(#q)" fill-rule="evenodd" stroke-width=".228" transform="translate(32 32)"/><path d="M-10.03-.696h-2.48l.688-13.298c.037-1.344 2.44-1.713 2.762-.263z" fill="url(#r)" fill-rule="evenodd" stroke-width=".228" transform="translate(32 32)"/><path d="M-8.138-.696h-2.047l1.136-13.779c.103-1.34 2.444-1.59 2.681-.127z" fill="url(#s)" fill-rule="evenodd" stroke-width=".228" transform="translate(32 32)"/><path d="M-21.637-.696h2.449l-.87-13.23c-.037-1.344-2.44-1.713-2.762-.263z" fill="url(#t)" fill-rule="evenodd" stroke-width=".228" transform="translate(32 32)"/><path d="M-23.674-.696h2.16l-1.317-13.711c-.103-1.34-2.444-1.59-2.682-.127z" fill="url(#u)" fill-rule="evenodd" stroke-width=".228" transform="translate(32 32)"/></svg>