<svg xmlns="http://www.w3.org/2000/svg" xmlns:xlink="http://www.w3.org/1999/xlink" height="32" viewBox="0 0 32 32" width="32"><title>Template icons dark</title><defs><linearGradient id="b"><stop offset="0" stop-color="#cfdde2"/><stop offset="1" stop-color="#90a1b1"/></linearGradient><linearGradient id="g"><stop offset="0" stop-color="#fff" stop-opacity="0"/><stop offset=".48" stop-color="#fff"/><stop offset="1" stop-color="#f5f6f6" stop-opacity="0"/></linearGradient><linearGradient id="e"><stop offset="0" stop-color="#eaf2f7"/><stop offset="1" stop-color="#99b4c0"/></linearGradient><linearGradient id="f"><stop offset="0" stop-color="#c1dae3"/><stop offset="1" stop-color="#8a98b4"/></linearGradient><linearGradient id="d"><stop offset="0" stop-color="#d2d2d2"/><stop offset="1" stop-color="#939393"/></linearGradient><linearGradient id="c"><stop offset="0" stop-color="#671e1e"/><stop offset="1" stop-color="#d04044"/></linearGradient><linearGradient id="a"><stop offset="0" stop-color="#0c528e"/><stop offset="1" stop-color="#5fb19b"/></linearGradient><linearGradient xlink:href="#g" id="m" x1="146.804" y1="139.479" x2="174.466" y2="139.479" gradientUnits="userSpaceOnUse" gradientTransform="matrix(.14812 0 0 .2418 -39.813 -56.77)"/><linearGradient xlink:href="#g" id="l" gradientUnits="userSpaceOnUse" gradientTransform="matrix(.15997 0 0 .2418 -41.537 -45.32)" x1="146.804" y1="139.479" x2="174.466" y2="139.479"/><linearGradient xlink:href="#c" id="k" gradientUnits="userSpaceOnUse" gradientTransform="matrix(.32343 0 0 .32343 -67.721 -67.628)" x1="162.588" y1="185.95" x2="162.588" y2="134.436"/><linearGradient xlink:href="#a" id="j" x1="10.43" y1="43.068" x2="38.891" y2="13.193" gradientUnits="userSpaceOnUse" gradientTransform="matrix(.33202 0 0 .33202 -71.784 -72.847)"/><linearGradient gradientTransform="matrix(.34409 0 0 .34409 -71.054 -71.054)" xlink:href="#e" id="i" x1="168.352" y1="125.665" x2="168.352" y2="190.817" gradientUnits="userSpaceOnUse"/><linearGradient gradientTransform="matrix(.34409 0 0 .34409 -71.054 -71.054)" xlink:href="#b" id="h" gradientUnits="userSpaceOnUse" x1="161.702" y1="118.898" x2="161.702" y2="197.932"/></defs><g color="#000"><path d="M14.101.516c-.263 0-.41.208-.475.449l-1.008 3.71c-.689.245-1.593.589-2.203.908L7.076 3.66c-.216-.124-.467-.167-.652.019L3.709 6.395c-.186.186-.143.433-.019.65l1.876 3.28c-.404.725-.731 1.49-.976 2.282l-3.625.977c-.241.065-.449.212-.449.475v3.84c0 .263.208.407.449.472l3.545.966c.238.836.566 1.643.98 2.407l-1.83 3.18c-.123.216-.166.467.02.652l2.714 2.715c.186.186.434.143.65.019l3.137-1.797c.78.434 1.605.778 2.46 1.027l.943 3.495c.064.241.212.449.475.449h3.84c.263 0 .407-.208.472-.449l.953-3.497c.845-.25 1.66-.593 2.428-1.022l3.172 1.823c.216.125.467.167.652-.018l2.715-2.715c.186-.186.143-.437.019-.653l-1.84-3.209c.4-.748.719-1.537.95-2.354l3.615-.976c.241-.065.449-.21.449-.473v-3.84c0-.262-.208-.41-.449-.475l-3.675-.998a11.915 11.915 0 0 0-.937-2.223l1.916-3.328c.124-.216.167-.467-.018-.653l-2.715-2.715c-.186-.186-.437-.142-.653-.019l-3.336 1.911c-.736-.302-1.505-.675-2.192-.897L18.414.964c-.065-.24-.21-.448-.473-.448h-3.84zm1.901 9.835a5.664 5.664 0 1 1 0 11.328 5.664 5.664 0 0 1 0-11.328z" style="isolation:auto;mix-blend-mode:normal;marker:none" overflow="visible" fill="none" stroke="#000" stroke-width="1.032" stroke-opacity=".168" paint-order="fill markers stroke"/><path style="isolation:auto;mix-blend-mode:normal;marker:none" d="M-17.899-31.484c-.263 0-.41.208-.475.449l-1.008 3.71c-.689.245-1.593.589-2.203.908l-3.339-1.922c-.216-.124-.467-.167-.652.019l-2.715 2.715c-.186.186-.143.433-.019.65l1.876 3.28c-.404.725-.731 1.49-.976 2.282l-3.625.977c-.241.065-.449.212-.449.475v3.84c0 .263.208.407.449.472l3.545.966c.238.836.566 1.643.98 2.407l-1.83 3.18c-.123.216-.166.467.02.652l2.714 2.715c.186.186.434.143.65.019l3.137-1.797c.78.434 1.605.778 2.46 1.027l.943 3.495c.064.241.212.449.475.449h3.84c.263 0 .407-.208.472-.449l.953-3.497c.845-.25 1.66-.593 2.428-1.022l3.172 1.823c.216.125.467.167.652-.018l2.715-2.715c.186-.186.143-.437.019-.653l-1.84-3.209c.4-.748.719-1.537.95-2.354l3.615-.976c.241-.065.449-.21.449-.473v-3.84c0-.262-.208-.41-.449-.475l-3.675-.998a11.915 11.915 0 0 0-.937-2.223l1.916-3.328c.124-.216.167-.467-.018-.653l-2.715-2.715c-.186-.186-.437-.142-.653-.019l-3.336 1.911c-.736-.302-1.505-.675-2.192-.897l-1.011-3.74c-.065-.24-.21-.448-.473-.448h-3.84zm1.901 9.835a5.664 5.664 0 1 1 0 11.328 5.664 5.664 0 0 1 0-11.328z" overflow="visible" fill="url(#h)" stroke-width=".644" stroke-opacity=".141" paint-order="fill markers stroke" transform="translate(32 32)"/><path style="line-height:normal;text-indent:0;text-align:start;text-decoration-line:none;text-decoration-style:solid;text-decoration-color:#000;text-transform:none;isolation:auto;mix-blend-mode:normal;marker:none" d="M16.002 3.78c-6.724 0-12.221 5.494-12.221 12.218s5.497 12.221 12.221 12.221S28.22 22.722 28.22 15.998 22.726 3.78 16.002 3.78zm0 2.593a9.581 9.581 0 0 1 9.625 9.624c0 5.35-4.275 9.63-9.625 9.63a9.59 9.59 0 0 1-9.63-9.63c0-5.35 4.28-9.624 9.63-9.624z" font-weight="400" font-family="sans-serif" white-space="normal" overflow="visible" fill-opacity=".173" stroke-width="1.133" stroke-opacity=".141" paint-order="fill markers stroke"/><path d="M-15.998-27.85c-6.52 0-11.851 5.328-11.851 11.848 0 6.52 5.33 11.851 11.851 11.851 6.52 0 11.847-5.33 11.847-11.851 0-6.52-5.327-11.847-11.847-11.847zm0 2.514a9.29 9.29 0 0 1 9.334 9.333 9.295 9.295 0 0 1-9.334 9.339 9.3 9.3 0 0 1-9.338-9.339 9.295 9.295 0 0 1 9.338-9.333z" style="line-height:normal;text-indent:0;text-align:start;text-decoration-line:none;text-decoration-style:solid;text-decoration-color:#000;text-transform:none;isolation:auto;mix-blend-mode:normal;marker:none" font-weight="400" font-family="sans-serif" white-space="normal" overflow="visible" fill="url(#i)" stroke-width="1.099" stroke-opacity=".141" paint-order="fill markers stroke" transform="translate(32 32)"/><path d="M-15.998-25.339c-5.14 0-9.34 4.199-9.34 9.337 0 5.14 4.2 9.34 9.34 9.34 5.138 0 9.337-4.2 9.337-9.34 0-5.138-4.199-9.337-9.337-9.337zm0 2.357A6.966 6.966 0 0 1-9-15.985a6.97 6.97 0 0 1-6.998 7.002 6.972 6.972 0 0 1-7.001-7.002 6.97 6.97 0 0 1 7.001-6.997z" style="line-height:normal;text-indent:0;text-align:start;text-decoration-line:none;text-decoration-style:solid;text-decoration-color:#000;text-transform:none;isolation:auto;mix-blend-mode:normal;marker:none" font-weight="400" font-family="sans-serif" white-space="normal" overflow="visible" fill="url(#j)" stroke-width=".688" paint-order="fill markers stroke" transform="translate(32 32)"/><path style="line-height:normal;text-indent:0;text-align:start;text-decoration-line:none;text-decoration-style:solid;text-decoration-color:#000;text-transform:none;isolation:auto;mix-blend-mode:normal;marker:none" d="M-15.998-25.339c-5.14 0-9.34 4.199-9.34 9.337 0 5.14 4.2 9.34 9.34 9.34 5.138 0 9.337-4.2 9.337-9.34 0-5.138-4.199-9.337-9.337-9.337zm0 2.357A6.966 6.966 0 0 1-9-15.985a6.97 6.97 0 0 1-6.998 7.002 6.972 6.972 0 0 1-7.001-7.002 6.97 6.97 0 0 1 7.001-6.997z" font-weight="400" font-family="sans-serif" white-space="normal" overflow="visible" fill="url(#k)" stroke-width=".866" stroke-opacity=".141" paint-order="fill markers stroke" transform="translate(32 32)"/><path style="line-height:normal;text-indent:0;text-align:start;text-decoration-line:none;text-decoration-style:solid;text-decoration-color:#000;text-transform:none;isolation:auto;mix-blend-mode:normal;marker:none" d="M16.001 6.661c-5.138 0-9.34 4.199-9.34 9.338 0 .057.003.114.004.172.093-5.06 4.255-9.166 9.336-9.166s9.24 4.106 9.334 9.166c0-.058.004-.115.004-.172 0-5.139-4.199-9.338-9.338-9.338z" font-weight="400" font-family="sans-serif" white-space="normal" overflow="visible" fill-opacity=".283" stroke-width=".866" stroke-opacity=".141" paint-order="fill markers stroke"/><path style="isolation:auto;mix-blend-mode:normal;marker:none" d="M14.101.516c-.262 0-.41.208-.475.448l-1.008 3.71c-.689.246-1.594.59-2.203.909L7.077 3.66c-.216-.124-.468-.167-.654.02L3.708 6.393c-.139.14-.149.315-.093.484.02-.049.05-.096.093-.14l2.715-2.714c.186-.186.438-.143.654-.019l3.338 1.922c.61-.32 1.514-.663 2.203-.908l1.008-3.71c.066-.241.213-.449.475-.449h3.84c.263 0 .408.208.473.45l1.01 3.738c.688.223 1.458.595 2.193.897l3.336-1.91c.216-.125.467-.168.653.018l2.715 2.715a.424.424 0 0 1 .094.141c.055-.17.045-.346-.094-.485L25.606 3.71c-.186-.186-.437-.143-.653-.019L21.617 5.6c-.735-.301-1.505-.673-2.192-.896L18.414.965c-.065-.24-.21-.449-.472-.449zm-8.629 9.989c-.36.671-.657 1.374-.882 2.103l-3.626.976c-.24.065-.448.212-.448.475v.344c0-.263.208-.41.448-.475l3.626-.976c.245-.793.572-1.558.977-2.283zm21.044.081l-.093.163c.386.707.7 1.452.937 2.223l3.676.998c.24.066.448.213.448.476V14.1c0-.262-.208-.41-.448-.475l-3.676-.998a11.91 11.91 0 0 0-.844-2.042zm-21.12 11.32l-1.735 3.017c-.095.166-.142.351-.076.512a.896.896 0 0 1 .076-.168l1.828-3.178c-.032-.06-.06-.123-.092-.184zm21.167 0c-.032.06-.06.122-.093.183l1.84 3.208c.03.054.057.11.075.167.066-.16.02-.346-.075-.511z" overflow="visible" fill="#fff" fill-opacity=".675" stroke-width=".644" stroke-opacity=".141" paint-order="fill markers stroke"/><path style="line-height:normal;text-indent:0;text-align:start;text-decoration-line:none;text-decoration-style:solid;text-decoration-color:#000;text-transform:none;isolation:auto;mix-blend-mode:normal;marker:none" d="M16.002 9.468c-3.964 0-7.206 3.239-7.206 7.203 0 3.964 3.242 7.205 7.206 7.205 3.964 0 7.203-3.241 7.203-7.205s-3.24-7.203-7.203-7.203zm0 2.96a4.239 4.239 0 0 1 4.257 4.259 4.241 4.241 0 0 1-4.258 4.26 4.243 4.243 0 0 1-4.26-4.26A4.241 4.241 0 0 1 16 12.429z" font-weight="400" font-family="sans-serif" white-space="normal" overflow="visible" fill-opacity=".168" stroke-width=".702" stroke-opacity=".141" paint-order="fill markers stroke"/><path d="M16.022 8.833c-3.964 0-7.206 3.239-7.206 7.203 0 3.964 3.242 7.206 7.206 7.206 3.964 0 7.203-3.242 7.203-7.206 0-3.964-3.24-7.203-7.203-7.203zm0 2.929a4.239 4.239 0 0 1 4.258 4.258 4.241 4.241 0 0 1-4.258 4.26 4.243 4.243 0 0 1-4.26-4.26 4.241 4.241 0 0 1 4.26-4.258z" style="line-height:normal;text-indent:0;text-align:start;text-decoration-line:none;text-decoration-style:solid;text-decoration-color:#000;text-transform:none;isolation:auto;mix-blend-mode:normal;marker:none" font-weight="400" font-family="sans-serif" white-space="normal" overflow="visible" fill="#b1c7d0" stroke-width=".702" stroke-opacity=".141" paint-order="fill markers stroke"/><path style="line-height:normal;text-indent:0;text-align:start;text-decoration-line:none;text-decoration-style:solid;text-decoration-color:#000;text-transform:none;isolation:auto;mix-blend-mode:normal;marker:none" d="M16.026 20.288a4.24 4.24 0 0 1-4.261-4.258c0-.058.006-.115.009-.172.09 2.285 1.943 3.868 4.252 3.868 2.308 0 4.16-1.583 4.249-3.868.002.057.009.114.009.172a4.239 4.239 0 0 1-4.258 4.258z" font-weight="400" font-family="sans-serif" white-space="normal" overflow="visible" fill="#718085" stroke-width=".702" stroke-opacity=".141" paint-order="fill markers stroke"/><path style="line-height:normal;text-indent:0;text-align:start;text-decoration-line:none;text-decoration-style:solid;text-decoration-color:#000;text-transform:none;isolation:auto;mix-blend-mode:normal;marker:none" d="M16.022 8.833c-3.965 0-7.206 3.239-7.206 7.203 0 .055.003.109.004.163.088-3.889 3.292-7.039 7.202-7.039 3.909 0 7.11 3.15 7.198 7.04.002-.055.005-.11.005-.164 0-3.964-3.24-7.203-7.203-7.203zm-4.252 7.36c-.002.057-.009.113-.009.171a4.243 4.243 0 0 0 4.261 4.26 4.24 4.24 0 0 0 4.258-4.26c0-.058-.006-.114-.008-.172a4.236 4.236 0 0 1-4.25 4.088 4.238 4.238 0 0 1-4.252-4.088z" font-weight="400" font-family="sans-serif" white-space="normal" overflow="visible" fill="#fff" fill-opacity=".691" stroke-width=".702" stroke-opacity=".141" paint-order="fill markers stroke"/><path style="isolation:auto;mix-blend-mode:normal;marker:none" overflow="visible" fill="url(#l)" stroke-width=".393" paint-order="fill markers stroke" d="M-18.054-11.77h4.425v.352h-4.425z" transform="translate(32 32)"/><path style="isolation:auto;mix-blend-mode:normal;marker:none" overflow="visible" fill="url(#m)" stroke-width=".378" paint-order="fill markers stroke" d="M-18.069-23.22h4.097v.352h-4.097z" transform="translate(32 32)"/></g></svg>