<svg xmlns="http://www.w3.org/2000/svg" xmlns:xlink="http://www.w3.org/1999/xlink" height="32" viewBox="0 0 32 32" width="32"><title>Template icons dark</title><defs><linearGradient id="j"><stop offset="0" stop-color="#078cd0" stop-opacity=".781"/><stop offset=".774" stop-color="#5946dd" stop-opacity=".584"/><stop offset="1" stop-color="#ca39f1" stop-opacity=".669"/></linearGradient><linearGradient id="i"><stop offset="0" stop-color="#078cd0" stop-opacity=".698"/><stop offset=".774" stop-color="#5946dd" stop-opacity=".443"/><stop offset="1" stop-color="#ca39f1" stop-opacity=".302"/></linearGradient><linearGradient id="c"><stop offset="0" stop-color="#d1f8fc" stop-opacity=".084"/><stop offset=".501" stop-color="#fff" stop-opacity=".039"/><stop offset="1" stop-color="#b6f3fa" stop-opacity=".096"/></linearGradient><linearGradient id="b"><stop offset="0" stop-color="#777"/><stop offset="1" stop-color="#595959"/></linearGradient><linearGradient id="h"><stop offset="0" stop-color="#fff" stop-opacity=".528"/><stop offset=".561" stop-color="#fff" stop-opacity=".522"/><stop offset="1" stop-color="#fff" stop-opacity="0"/></linearGradient><linearGradient id="f"><stop offset="0" stop-color="#fff" stop-opacity=".663"/><stop offset=".561" stop-color="#fff" stop-opacity=".522"/><stop offset="1" stop-color="#fff" stop-opacity="0"/></linearGradient><linearGradient id="g"><stop offset="0" stop-color="#fff"/><stop offset=".561" stop-color="#fff" stop-opacity=".522"/><stop offset="1" stop-color="#fff" stop-opacity="0"/></linearGradient><linearGradient id="e"><stop offset="0" stop-color="#4fb9ef" stop-opacity=".459"/><stop offset=".836" stop-color="#1f1cec" stop-opacity=".315"/><stop offset=".888" stop-color="#d039f1" stop-opacity=".376"/><stop offset="1" stop-color="#ca39f1" stop-opacity=".302"/></linearGradient><linearGradient id="d"><stop offset="0" stop-color="#393939"/><stop offset="1" stop-color="#181818"/></linearGradient><linearGradient id="a"><stop offset="0" stop-color="#efefef"/><stop offset="1" stop-color="#cacaca"/></linearGradient><linearGradient xlink:href="#a" id="k" x1="160" y1="133.669" x2="160" y2="186.583" gradientUnits="userSpaceOnUse" gradientTransform="matrix(.3337 0 0 .33334 -69.41 -69.517)"/><radialGradient xlink:href="#i" id="m" cx="-226.274" cy=".459" fx="-226.274" fy=".459" r="15.999" gradientUnits="userSpaceOnUse" gradientTransform="matrix(.36197 -.36197 .36244 .36244 65.755 -98.212)"/><radialGradient gradientTransform="matrix(.33334 0 0 .33334 -69.334 -69.517)" xlink:href="#d" id="l" cx="160" cy="160" fx="160" fy="160" r="33" gradientUnits="userSpaceOnUse"/></defs><g color="#000" transform="translate(32 32)"><rect style="isolation:auto;mix-blend-mode:normal;marker:none" width="32" height="20" x="-32" y="-26" ry="1.381" display="block" overflow="visible" fill-opacity=".131" stroke-width=".274" paint-order="fill markers stroke"/><rect style="isolation:auto;mix-blend-mode:normal;marker:none" width="30" height="18" x="-31" y="-25" ry="1.333" display="block" overflow="visible" fill="url(#k)" stroke-width=".666" stroke-opacity=".344" paint-order="fill markers stroke"/><path style="isolation:auto;mix-blend-mode:normal;marker:none" d="M-31-8.67v.334C-31-7.597-30.416-7-29.677-7h27.415C-1.524-7-1-7.634-1-8.373v-.333C-1-7.967-1.524-8-2.262-8h-27.446C-30.447-8-31-7.93-31-8.67z" display="block" overflow="visible" fill="#eee" stroke-width=".666" stroke-opacity=".344" paint-order="fill markers stroke"/><path style="isolation:auto;mix-blend-mode:normal;marker:none" d="M-4.584-15.85A11.416 11.416 0 0 1-16-4.432a11.416 11.416 0 0 1-11.416-11.416A11.416 11.416 0 0 1-16-27.266 11.416 11.416 0 0 1-4.584-15.849z" overflow="visible" fill-opacity=".23" stroke-width=".604" paint-order="fill markers stroke"/><path style="isolation:auto;mix-blend-mode:normal;marker:none" d="M-5.334-16.183A10.666 10.666 0 0 1-16-5.516a10.666 10.666 0 0 1-10.666-10.667A10.666 10.666 0 0 1-16-26.849 10.666 10.666 0 0 1-5.334-16.183z" overflow="visible" fill="url(#l)" stroke="#f2f2f2" stroke-width=".668" paint-order="fill markers stroke"/><path style="line-height:normal;font-variant-ligatures:normal;font-variant-position:normal;font-variant-caps:normal;font-variant-numeric:normal;font-variant-alternates:normal;font-feature-settings:normal;text-indent:0;text-align:start;text-decoration-line:none;text-decoration-style:solid;text-decoration-color:#000;text-transform:none;text-orientation:mixed;shape-padding:0;isolation:auto;mix-blend-mode:normal;marker:none" d="M-16-26.35c-5.609 0-10.167 4.559-10.167 10.167 0 5.609 4.558 10.167 10.167 10.167s10.167-4.558 10.167-10.167c0-5.608-4.558-10.166-10.167-10.166zm0 1.348a8.811 8.811 0 0 1 8.819 8.82A8.811 8.811 0 0 1-16-7.365a8.811 8.811 0 0 1-8.819-8.819A8.811 8.811 0 0 1-16-25.002z" font-weight="400" font-family="sans-serif" white-space="normal" overflow="visible" fill="#c7e8fb" fill-opacity=".14" stroke-width="1.061" paint-order="fill markers stroke"/><path style="line-height:normal;font-variant-ligatures:normal;font-variant-position:normal;font-variant-caps:normal;font-variant-numeric:normal;font-variant-alternates:normal;font-feature-settings:normal;text-indent:0;text-align:start;text-decoration-line:none;text-decoration-style:solid;text-decoration-color:#000;text-transform:none;text-orientation:mixed;shape-padding:0;isolation:auto;mix-blend-mode:normal;marker:none" d="M-16-27.3c-6.134 0-11.117 4.983-11.117 11.117 0 6.135 4.983 11.117 11.117 11.117 6.134 0 11.117-4.982 11.117-11.117 0-6.134-4.983-11.116-11.117-11.116zm0 1.159a9.765 9.765 0 0 1 9.772 9.772c0 5.402-4.165 10.328-9.772 10.328s-9.772-4.926-9.772-10.328A9.765 9.765 0 0 1-16-26.141z" font-weight="400" font-family="sans-serif" white-space="normal" overflow="visible" fill="#fff" stroke-width="1.333" paint-order="fill markers stroke"/><path style="isolation:auto;mix-blend-mode:normal;marker:none" d="M-10.08-10.308A8.43 8.43 0 0 1-22-10.332l5.972-5.948z" overflow="visible" fill="#c7e8fb" fill-opacity=".129" stroke-width=".528" paint-order="fill markers stroke"/><path style="isolation:auto;mix-blend-mode:normal;marker:none" d="M-21.794-21.955a8.205 8.205 0 0 1 11.604.023l-5.814 5.79z" overflow="visible" fill="url(#m)" stroke-width=".514" paint-order="fill markers stroke"/><path style="isolation:auto;mix-blend-mode:normal;marker:none" d="M-15.333-15.135a.687.464 0 0 1-.687.464.687.464 0 0 1-.687-.464.687.464 0 0 1 .687-.464.687.464 0 0 1 .687.464z" overflow="visible" fill="#c7e8fb" fill-opacity=".382" stroke-width=".094" paint-order="fill markers stroke"/><path style="isolation:auto;mix-blend-mode:normal;marker:none" d="M-14.8-17.66a1.2.977 0 0 1-1.2.976 1.2.977 0 0 1-1.2-.977 1.2.977 0 0 1 1.2-.977 1.2.977 0 0 1 1.2.977z" overflow="visible" fill="#ecf7fe" fill-opacity=".438" stroke-width=".094" paint-order="fill markers stroke"/><path style="isolation:auto;mix-blend-mode:normal;marker:none" d="M-28-22.955a1 1 0 0 0-1 1 1 1 0 0 0 .004.078A1 1 0 0 1-28-22.8a1 1 0 0 1 .996.922 1 1 0 0 0 .004-.078 1 1 0 0 0-1-1z" overflow="visible" fill-opacity=".506" stroke-width=".512" paint-order="fill markers stroke"/><circle style="isolation:auto;mix-blend-mode:normal;marker:none" cx="-16" cy="-16.183" r="3" overflow="visible" fill="none" fill-opacity=".459" stroke="#8e8e8e" stroke-width="1.256" paint-order="fill markers stroke"/><circle style="isolation:auto;mix-blend-mode:normal;marker:none" cx="-28" cy="-21.955" r="1" overflow="visible" fill="#ea6565" stroke-width=".512" paint-order="fill markers stroke"/></g></svg>