<svg xmlns="http://www.w3.org/2000/svg" xmlns:xlink="http://www.w3.org/1999/xlink" height="32" viewBox="0 0 32 32" width="32"><title>Template icons dark</title><defs><linearGradient id="b"><stop offset="0" stop-color="#212121"/><stop offset="1" stop-color="#282828"/></linearGradient><linearGradient id="a"><stop offset="0" stop-color="#8683ee"/><stop offset="1" stop-color="#1ed7b6"/></linearGradient><linearGradient xlink:href="#a" id="d" x1="4.376" y1="5.854" x2="42.128" y2="43.605" gradientUnits="userSpaceOnUse" gradientTransform="translate(-33.68 -34.765) scale(.73418)"/><linearGradient xlink:href="#a" id="c" x1="183.831" y1="182.717" x2="134.463" y2="144.519" gradientUnits="userSpaceOnUse" gradientTransform="translate(-71.122 -71.122) scale(.34451)"/></defs><g transform="translate(32 32)"><circle style="isolation:auto;mix-blend-mode:normal;marker:none" cx="-16" cy="-16" r="16" color="#000" display="block" overflow="visible" fill-opacity=".078" stroke-width=".694"/><circle style="isolation:auto;mix-blend-mode:normal;marker:none" cx="-16" cy="-16" r="15.333" color="#000" overflow="visible" fill="#303030" stroke-width=".855"/><circle r="15.333" cy="-16" cx="-16" style="isolation:auto;mix-blend-mode:normal;marker:none" color="#000" overflow="visible" opacity=".119" fill="url(#c)" stroke-width=".855"/><path style="line-height:normal;font-variant-ligatures:normal;font-variant-position:normal;font-variant-caps:normal;font-variant-numeric:normal;font-variant-alternates:normal;font-feature-settings:normal;text-indent:0;text-align:start;text-decoration-line:none;text-decoration-style:solid;text-decoration-color:#000;text-transform:none;text-orientation:mixed;shape-padding:0;isolation:auto;mix-blend-mode:normal;marker:none" d="M-16-31.333c-8.463 0-15.333 6.87-15.333 15.333 0 8.463 6.87 15.333 15.333 15.333C-7.537-.667-.667-7.537-.667-16c0-8.463-6.87-15.333-15.333-15.333zm0 .833c8.013 0 14.5 6.487 14.5 14.5S-7.987-1.5-16-1.5-30.5-7.987-30.5-16s6.487-14.5 14.5-14.5z" color="#000" font-weight="400" font-family="sans-serif" white-space="normal" overflow="visible" fill="url(#d)" stroke-width=".855"/><path d="M-23.48-26.733l.018 4.137 4.5 4.1-4.51 4.113-.008 4.126 9.037-8.238zm16.002 5.323l-9.036 8.638 9.036 8.637.012-4.107-4.53-4.53L-7.47-17.3z" fill-opacity=".147" fill-rule="evenodd" stroke-width="2.403"/><path d="M-7.478-22.208l-9.036 8.637 9.036 8.638.012-4.108-4.53-4.53 4.527-4.527z" fill="#7f91e9" fill-rule="evenodd" stroke-width="4.256"/><path d="M-24.147-26.865l9.037 8.238-9.037 8.238.008-4.127 4.51-4.111-4.5-4.102z" fill="#25c9bb" fill-rule="evenodd" stroke-width="4.256"/></g></svg>