<svg xmlns="http://www.w3.org/2000/svg" xmlns:xlink="http://www.w3.org/1999/xlink" height="32" viewBox="0 0 32 32" width="32"><title>Template icons dark</title><defs><linearGradient id="e"><stop offset="0" stop-color="#242a34"/><stop offset="1" stop-color="#443f4c"/></linearGradient><linearGradient id="d"><stop offset="0" stop-color="#b1e3f2"/><stop offset="1"/></linearGradient><linearGradient id="f"><stop offset="0" stop-color="#aea6b6"/><stop offset="1" stop-color="#e4e4e4"/></linearGradient><linearGradient id="c"><stop offset="0" stop-color="#2d3840"/><stop offset="1" stop-color="#5f5777"/></linearGradient><linearGradient id="b"><stop offset="0" stop-color="#e8c2ee"/><stop offset="1" stop-color="#98d1e8"/></linearGradient><linearGradient id="a"><stop offset="0" stop-color="#50b4ce"/><stop offset="1" stop-color="#df2fb9" stop-opacity=".974"/></linearGradient><linearGradient id="g"><stop offset="0" stop-color="#e8c2ee"/><stop offset="1" stop-color="#98d1e8"/></linearGradient><linearGradient xlink:href="#f" id="h" gradientUnits="userSpaceOnUse" gradientTransform="matrix(.31214 0 0 .31197 -65.924 -66.066)" x1="151.033" y1="198.284" x2="151.033" y2="118.162"/><linearGradient xlink:href="#a" id="i" x1="120.752" y1="131.244" x2="191.98" y2="189.032" gradientUnits="userSpaceOnUse" gradientTransform="matrix(0 -.31526 .31526 0 -66.415 32)"/><linearGradient xlink:href="#c" id="j" x1="119.039" y1="133.562" x2="178.802" y2="193.325" gradientUnits="userSpaceOnUse" gradientTransform="matrix(0 -.3124 .3124 0 -65.959 31.568)"/><linearGradient xlink:href="#e" id="k" x1="159.097" y1="188.196" x2="159.097" y2="134.451" gradientUnits="userSpaceOnUse" gradientTransform="translate(-69.28 -69.454) scale(.33308)"/><linearGradient xlink:href="#d" id="l" x1="159.057" y1="187.825" x2="159.057" y2="132.319" gradientUnits="userSpaceOnUse" gradientTransform="translate(-69.31 -68.9) scale(.33308)"/><linearGradient xlink:href="#g" id="m" x1="151" y1="147" x2="151" y2="171.95" gradientUnits="userSpaceOnUse" gradientTransform="matrix(.21086 0 0 .21086 -48.085 -49.683)"/></defs><g color="#000"><path style="isolation:auto;mix-blend-mode:normal;marker:none" d="M10.992 31.801C7.227 25.28 3.765 19.004 0 12.483c2.998-5.193 2.311-3.92 4.663-7.994h22.634c2.252 3.9 2.061 3.46 4.679 7.994-3.793 6.569-7.199 12.749-10.992 19.318z" overflow="visible" fill="#000808" fill-opacity=".147" stroke-width=".175" stroke-opacity="0"/><path d="M-20.55-.936c-3.556-6.157-7.15-12.323-10.705-18.48 2.83-4.903 2.323-3.61 4.544-7.457h21.398c2.127 3.683 2.068 3.176 4.54 7.457-3.582 6.202-7.119 12.278-10.7 18.48z" style="isolation:auto;mix-blend-mode:normal;marker:none" overflow="visible" fill="url(#h)" stroke="url(#linearGradient1010)" stroke-width=".367" transform="translate(32 32)"/><path d="M21.008.85C24.774 7.372 28.235 13.648 32 20.17c-2.998 5.193-2.31 3.92-4.663 7.994H4.703c-2.252-3.9-2.061-3.46-4.679-7.994C3.817 13.599 7.223 7.419 11.016.85z" style="isolation:auto;mix-blend-mode:normal;marker:none" overflow="visible" fill="#000808" fill-opacity=".147" stroke-width=".175" stroke-opacity="0"/><path style="isolation:auto;mix-blend-mode:normal;marker:none" d="M-11.438-30.45C-7.874-24.279-4.27-18.097-.707-11.925c-2.837 4.915-2.329 3.62-4.555 7.476h-21.452c-2.132-3.692-2.073-3.184-4.55-7.476 3.59-6.218 7.136-12.309 10.725-18.527z" overflow="visible" fill="url(#i)" stroke-width=".166" stroke-opacity="0" transform="translate(32 32)"/><path d="M-11.847-29.838c3.413 5.912 7.1 11.928 10.512 17.84-2.717 4.707-2.327 3.315-4.46 7.008h-20.387c-2.042-3.536-2.087-2.898-4.46-7.009 3.438-5.955 7.074-11.884 10.512-17.839z" style="isolation:auto;mix-blend-mode:normal;marker:none" overflow="visible" fill="url(#j)" stroke-width=".159" stroke-opacity="0" transform="translate(32 32)"/><path style="isolation:auto;mix-blend-mode:normal;marker:none" d="M-6.9-15.568a9.246 9.246 0 0 1-9.245 9.246 9.246 9.246 0 0 1-9.246-9.246 9.246 9.246 0 0 1 9.246-9.246A9.246 9.246 0 0 1-6.9-15.568z" overflow="visible" fill="url(#k)" stroke-width=".345" transform="translate(32 32)"/><path style="line-height:normal;font-variant-ligatures:normal;font-variant-position:normal;font-variant-caps:normal;font-variant-numeric:normal;font-variant-alternates:normal;font-feature-settings:normal;text-indent:0;text-align:start;text-decoration-line:none;text-decoration-style:solid;text-decoration-color:#000;text-transform:none;text-orientation:mixed;shape-padding:0;isolation:auto;mix-blend-mode:normal;marker:none" d="M-16.145-25.076c-5.248 0-9.507 4.26-9.507 9.508 0 5.247 4.259 9.507 9.507 9.507 5.247 0 9.507-4.26 9.507-9.507 0-5.248-4.26-9.508-9.507-9.508zm0 .5a9.004 9.004 0 0 1 9.007 9.008 9.004 9.004 0 0 1-9.007 9.007 9.004 9.004 0 0 1-9.008-9.007 9.004 9.004 0 0 1 9.008-9.008z" font-weight="400" font-family="sans-serif" white-space="normal" overflow="visible" opacity=".996" fill="url(#l)" stroke-width=".5" transform="translate(32 32)"/><path d="M20.986 16.32l-3.967 2.29-3.966 2.29v-9.16l3.966 2.29z" style="isolation:auto;mix-blend-mode:normal;marker:none" overflow="visible" fill-opacity=".288" stroke-width=".105" stroke-opacity="0"/><path style="isolation:auto;mix-blend-mode:normal;marker:none" d="M-11.014-16.127l-3.967 2.29-3.966 2.29v-9.16l3.966 2.29z" overflow="visible" fill="url(#m)" stroke-width=".105" stroke-opacity="0" transform="translate(32 32)"/><path style="isolation:auto;mix-blend-mode:normal;marker:none" d="M13.053 11.293v9.16l3.966-2.29 3.967-2.29-.26-.15-3.496 2.018-3.966 2.29v-8.616z" overflow="visible" fill="#feeaeb" stroke-width=".105" stroke-opacity="0"/></g></svg>