<svg xmlns="http://www.w3.org/2000/svg" xmlns:xlink="http://www.w3.org/1999/xlink" height="32" viewBox="0 0 32 32" width="32"><title>Template icons dark</title><defs><linearGradient id="c"><stop offset="0" stop-color="#8e8eb4"/><stop offset="1" stop-color="#fdfdfe"/></linearGradient><linearGradient id="b"><stop offset="0" stop-color="#9d9eb3"/><stop offset="1" stop-color="#bcbcbc"/></linearGradient><linearGradient id="a"><stop offset="0" stop-color="#530559"/><stop offset="1" stop-color="#8108f2"/></linearGradient><linearGradient xlink:href="#a" id="f" x1="-252.036" y1="73.11" x2="-193.17" y2="102.89" gradientUnits="userSpaceOnUse" gradientTransform="matrix(-.13502 -.30605 .26689 -.20165 -69.883 -69.446)"/><linearGradient gradientTransform="matrix(.3345 0 0 .3345 -69.592 -69.446)" xlink:href="#c" id="e" x1="160.004" y1="206.598" x2="160.004" y2="197.991" gradientUnits="userSpaceOnUse"/><linearGradient gradientTransform="matrix(.3345 0 0 .3345 -69.592 -69.446)" xlink:href="#b" id="d" x1="160.098" y1="193.342" x2="160.098" y2="197.786" gradientUnits="userSpaceOnUse"/></defs><path style="isolation:auto;mix-blend-mode:normal;marker:none" d="M11.24 26.798L8.507 28.7 6.05 32.086l19.437.028-2.014-3.38-3.167-1.915z" color="#000" fill-opacity=".184" fill-rule="evenodd" stroke-width=".287" stroke-linejoin="round"/><path style="isolation:auto;mix-blend-mode:normal;marker:none" d="M-22.959-3.244l13.866.031-2.934-1.65-8.401-.019z" color="#000" fill="url(#d)" fill-rule="evenodd" stroke-width=".266" stroke-linejoin="round" transform="translate(32 32)"/><path style="isolation:auto;mix-blend-mode:normal;marker:none" d="M-25.236-.21l2.277-3.034 13.866.031 1.866 3.029z" color="#000" fill="url(#e)" fill-rule="evenodd" stroke-width=".266" stroke-linejoin="round" transform="translate(32 32)"/><path style="isolation:auto;mix-blend-mode:normal;marker:none" d="M.918 8.318C4.883 3.074 10.285.121 15.923.114c5.638-.006 11.044 2.935 15.016 8.17L15.941 26.626z" color="#000" display="block" overflow="visible" fill-opacity=".195" stroke-width=".976" stroke-linecap="square" stroke-opacity=".279"/><path style="isolation:auto;mix-blend-mode:normal;marker:none" d="M-29.752-23.183a25.208 19.263 90 0 1 13.676-7.477 25.208 19.263 90 0 1 13.685 7.446L-16.06-5.451z" color="#000" display="block" overflow="visible" fill="url(#f)" stroke-width=".889" stroke-linecap="square" stroke-opacity=".279" transform="translate(32 32)"/><path style="isolation:auto;mix-blend-mode:normal;marker:none" d="M15.923 1.34A19.263 25.208 0 0 0 2.248 8.817l.269.347A19.263 25.208 0 0 1 15.923 2.01a19.263 25.208 0 0 1 13.418 7.124l.268-.347A19.263 25.208 0 0 0 15.923 1.34z" color="#000" display="block" overflow="visible" fill="#fff" fill-opacity=".137" stroke-width=".889" stroke-linecap="square" stroke-opacity=".279"/><path d="M14.675 6.575v6.075h.508v-.841c.161.272.383.493.665.665.289.172.604.26.948.26.289 0 .558-.06.808-.176a2.13 2.13 0 0 0 .658-.483 2.368 2.368 0 0 0 .59-1.58c0-.283-.047-.558-.141-.824a2.226 2.226 0 0 0-.392-.724 1.846 1.846 0 0 0-.615-.517 1.703 1.703 0 0 0-.816-.192c-.36 0-.676.093-.948.276a2.431 2.431 0 0 0-.7.707V6.575zm-3.677.165l-2.472 5.91h.625l.757-1.848h2.655l.766 1.848h.615L11.49 6.74zm.241.684l1.19 2.92h-2.397zm10.445.814a2.18 2.18 0 0 0-.882.175 2.096 2.096 0 0 0-1.132 1.19c-.106.273-.159.561-.159.867 0 .31.053.6.159.872.11.272.264.513.458.724.194.206.424.37.69.492.267.116.558.175.874.175.206 0 .402-.028.59-.083.195-.05.37-.122.526-.216.16-.1.3-.215.416-.343.116-.133.205-.276.266-.431l-.557-.167a.771.771 0 0 1-.176.282c-.083.09-.182.17-.299.243a1.68 1.68 0 0 1-.79.215c-.217 0-.423-.045-.617-.133a1.73 1.73 0 0 1-.499-.375 1.81 1.81 0 0 1-.34-.565 1.906 1.906 0 0 1-.126-.69c0-.25.04-.481.117-.692.083-.211.194-.39.333-.54.144-.156.31-.278.5-.367.194-.088.401-.133.623-.133.266 0 .508.064.724.192.222.122.394.293.516.515l.549-.174a1.764 1.764 0 0 0-.69-.749 2 2 0 0 0-1.074-.284zm-4.953.5c.228 0 .435.05.624.15.194.094.358.225.491.391.139.161.244.346.316.557.078.211.117.431.117.659 0 .222-.042.438-.125.648-.078.206-.189.39-.333.557-.139.161-.308.291-.508.391-.194.095-.41.142-.649.142a1.41 1.41 0 0 1-.458-.083 1.657 1.657 0 0 1-.79-.557.977.977 0 0 1-.176-.425V9.82c.067-.144.15-.28.25-.407.1-.134.214-.25.342-.35.127-.1.266-.177.416-.232a1.27 1.27 0 0 1 .483-.092z" style="line-height:1000%;-inkscape-font-specification:Raleway" font-weight="400" font-family="Raleway" letter-spacing="0" word-spacing="0" fill="#fefefd" fill-opacity=".995" stroke="#fff" stroke-width=".39" stroke-opacity=".995"/><path d="M8.605 3.307v2.93h.732V4.038h2.197v-.732zm11.718 0v.732h2.197v2.197h.732v-2.93zM8.605 14.355v2.93h2.93v-.733H9.336v-2.197zm13.915 0v2.197h-2.197v.733h2.929v-2.93z" fill="#fefefe" fill-rule="evenodd" stroke-width=".183"/><path style="isolation:auto;mix-blend-mode:normal;marker:none" d="M5.1 9.778h21.658v2.93H5.099z" color="#000" display="block" overflow="visible" fill="#ff2e97" fill-opacity=".116" stroke-width=".082"/><path style="isolation:auto;mix-blend-mode:normal;marker:none" d="M4.098 9.778h23.661v1.465H4.098z" color="#000" display="block" overflow="visible" fill="#ff2e97" fill-opacity=".389" stroke-width=".061"/><path style="isolation:auto;mix-blend-mode:normal;marker:none" d="M3.469 9.778h24.92v.38H3.468z" color="#000" display="block" overflow="visible" fill="#ff2e97" stroke-width=".032"/></svg>