<svg xmlns="http://www.w3.org/2000/svg" xmlns:xlink="http://www.w3.org/1999/xlink" height="32" viewBox="0 0 32 32" width="32"><title>Template icons dark</title><defs><linearGradient id="h"><stop offset="0" stop-color="#53b679"/><stop offset="1" stop-color="#189189"/></linearGradient><linearGradient id="g"><stop offset="0" stop-color="#58c27e"/><stop offset=".194" stop-color="#d5db7e"/><stop offset=".681" stop-color="#fdb63d" stop-opacity=".989"/><stop offset="1" stop-color="#d66026"/></linearGradient><linearGradient id="f"><stop offset="0" stop-color="#18b378"/><stop offset="1" stop-color="#5bc981"/></linearGradient><linearGradient id="e"><stop offset="0" stop-color="#5ccb82"/><stop offset="1" stop-color="#479c6c"/></linearGradient><linearGradient id="d"><stop offset="0" stop-color="#097b8c"/><stop offset="1" stop-color="#27a787"/></linearGradient><linearGradient id="c"><stop offset="0" stop-color="#242d3c"/><stop offset="1" stop-color="#374160"/></linearGradient><linearGradient id="a"><stop offset="0" stop-color="#d78383"/><stop offset="1" stop-color="#fefefe"/></linearGradient><linearGradient id="b"><stop offset="0" stop-color="#2c2c2c"/><stop offset="1" stop-color="#4c4c4c"/></linearGradient><linearGradient gradientTransform="scale(.33556) rotate(-30 -328.823 443.912)" xlink:href="#c" id="i" x1="127.52" y1="180.599" x2="204.29" y2="154.964" gradientUnits="userSpaceOnUse"/><linearGradient gradientTransform="scale(.33556) rotate(-30 -328.823 443.912)" xlink:href="#h" id="j" x1="140.881" y1="187.394" x2="176.248" y2="126.137" gradientUnits="userSpaceOnUse"/><linearGradient xlink:href="#d" id="k" gradientUnits="userSpaceOnUse" gradientTransform="matrix(.33863 0 0 .33863 -70.097 -69.7)" x1="160.063" y1="176" x2="160.063" y2="196"/><linearGradient gradientTransform="matrix(.33863 0 0 .33863 -70.102 -69.743)" xlink:href="#f" id="l" x1="160.882" y1="204.887" x2="160.882" y2="180.705" gradientUnits="userSpaceOnUse"/><linearGradient xlink:href="#e" id="m" x1="160" y1="180" x2="160" y2="171.339" gradientUnits="userSpaceOnUse" gradientTransform="matrix(.33863 0 0 .33863 -70.102 -69.457)"/><linearGradient xlink:href="#g" id="n" x1="182.69" y1="179.28" x2="182.956" y2="140.009" gradientUnits="userSpaceOnUse" gradientTransform="matrix(.20805 0 0 .33863 -45.268 -69.967)"/><linearGradient xlink:href="#g" id="o" gradientUnits="userSpaceOnUse" gradientTransform="matrix(.14894 0 0 .24242 -46.546 -53.322)" x1="182.69" y1="179.28" x2="182.956" y2="140.009"/></defs><g color="#000" stroke-linecap="square"><path style="isolation:auto;mix-blend-mode:normal;marker:none" d="M-28.775-12.129c-.743 0-1.083.369-1.34.774l-1.383 2.175a.242.242 0 0 0-.012.256.514.514 0 0 0 .012.268l1.383 4.239c.257.79.597 1.508 1.34 1.508h25.709c.743 0 1.083-.718 1.34-1.508l1.383-4.239c.03-.09.03-.18.012-.268a.242.242 0 0 0-.012-.256l-1.383-2.175c-.257-.405-.597-.774-1.34-.774z" overflow="visible" fill-opacity=".1" stroke-width=".614" filter="url(#filter5140)" transform="translate(32 32)"/><path style="isolation:auto;mix-blend-mode:normal;marker:none" d="M-1.844-23.688v16.423h-28.153v-16.423l14.076-8.128z" overflow="visible" fill-opacity=".153" stroke-width=".613" filter="url(#filter5140)" transform="translate(32 32)"/><path style="isolation:auto;mix-blend-mode:normal;marker:none" d="M-2.716-23.185v15.503h-26.409v-15.503l13.204-7.623z" overflow="visible" fill="url(#i)" stroke="url(#j)" stroke-width=".677" filter="url(#filter5140)" transform="translate(32 32)"/><path style="isolation:auto;mix-blend-mode:normal;marker:none" d="M-28.685-10.1h25.529c.737 0 2.388.668 2.14 1.408l-1.322 3.956c-.246.738-.572 1.408-1.283 1.408h-24.6c-.71 0-1.036-.67-1.282-1.408l-1.323-3.956c-.247-.74 1.403-1.408 2.14-1.408z" display="block" overflow="visible" fill="url(#k)" stroke-width=".581" filter="url(#filter5140)" transform="translate(32 32)"/><path style="isolation:auto;mix-blend-mode:normal;marker:none" d="M-30.797-8.887l-.029.044c-.247.38.628.722 1.408.722h26.994c.78 0 1.656-.343 1.409-.722l-.029-.044c-.2.245-.812.427-1.38.427h-26.994c-.567 0-1.18-.182-1.38-.427z" display="block" overflow="visible" fill="#19b4b6" stroke-width=".416" filter="url(#filter5140)" transform="translate(32 32)"/><path d="M-23.538-10.143h15.235c2.41 0 1.226 1.05.723 2.147l-2.771 6.034c-.491 1.069-.903 2.146-2.024 2.146h-7.091C-20.588.184-21-.893-21.49-1.962l-2.771-6.034c-.504-1.096-1.687-2.147.723-2.147z" style="isolation:auto;mix-blend-mode:normal;marker:none" overflow="visible" fill-opacity=".253" stroke-width=".614" filter="url(#filter5140)" transform="translate(32 32)"/><path style="isolation:auto;mix-blend-mode:normal;marker:none" d="M-23.339-10.143h14.836c2.346 0 1.194.964.704 1.971l-2.698 5.54c-.478.981-.88 1.97-1.971 1.97h-6.905c-1.092 0-1.493-.989-1.971-1.97l-2.699-5.54c-.49-1.006-1.642-1.971.704-1.971z" overflow="visible" fill="url(#l)" stroke-width=".581" filter="url(#filter5140)" transform="translate(32 32)"/><path d="M-29.418-8.46h26.995c.78 0 1.655-.343 1.408-.722l-1.323-2.03c-.246-.379-.572-.723-1.283-.723h-24.6c-.71 0-1.036.344-1.282.723l-1.323 2.03c-.247.38.628.722 1.408.722z" style="isolation:auto;mix-blend-mode:normal;marker:none" display="block" overflow="visible" fill="url(#m)" stroke-width=".416" filter="url(#filter5140)" transform="translate(32 32)"/><path d="M-13.205-20.505l-3.758-.045 6.503-7.706 6.032 7.75H-7.32s-.956 4.95-.203 7.56c.754 2.608 1.612 3.622 1.612 3.622l-4.465.18s-1.96-1.237-2.535-4.024c-.575-2.787-.294-7.337-.294-7.337z" style="isolation:auto;mix-blend-mode:normal;marker:none" overflow="visible" fill-opacity=".479" stroke-width=".527" filter="url(#filter5140)" transform="translate(32 32)"/><path style="isolation:auto;mix-blend-mode:normal;marker:none" d="M-12.543-20.93l-3.287-.045 5.392-6.694 5.032 6.74H-8.32s-.42 5.462.338 8.09c.759 2.627 2.71 3.83 2.71 3.83h-5.24s-1.518-1.472-2.097-4.28c-.58-2.807.065-7.64.065-7.64z" overflow="visible" fill="url(#n)" stroke-width=".531" filter="url(#filter5140)" transform="translate(32 32)"/><path style="isolation:auto;mix-blend-mode:normal;marker:none" d="M-23.628-18.01l-2.68-.033 4.638-5.496 4.303 5.528h-2.063s-.682 3.53-.145 5.391c.538 1.86 1.15 2.583 1.15 2.583l-3.185.128s-1.398-.881-1.808-2.869c-.41-1.988-.21-5.233-.21-5.233z" overflow="visible" fill-opacity=".479" stroke-width=".376" filter="url(#filter5140)" transform="translate(32 32)"/><path d="M-23.119-18.217l-2.353-.032 3.86-4.792 3.602 4.824h-2.085s-.301 3.91.242 5.792c.543 1.88 1.94 2.741 1.94 2.741h-3.751s-1.087-1.053-1.502-3.063c-.414-2.01.047-5.47.047-5.47z" style="isolation:auto;mix-blend-mode:normal;marker:none" display="block" overflow="visible" fill="url(#o)" stroke-width=".38" filter="url(#filter5140)" transform="translate(32 32)"/><path transform="scale(.06365) rotate(-30 707.415 121.413)" d="M205.438 160l-22.719 39.35h-45.438L114.56 160l22.72-39.35h45.438z" style="isolation:auto;mix-blend-mode:normal;marker:none" overflow="visible" fill-opacity=".358" stroke-width="2.018" filter="url(#filter5140)"/></g></svg>