<svg xmlns="http://www.w3.org/2000/svg" xmlns:xlink="http://www.w3.org/1999/xlink" height="32" viewBox="0 0 32 32" width="32"><title>Template icons dark</title><defs><linearGradient id="i"><stop offset="0" stop-color="#078cd0" stop-opacity=".781"/><stop offset=".774" stop-color="#5946dd" stop-opacity=".584"/><stop offset="1" stop-color="#ca39f1" stop-opacity=".669"/></linearGradient><linearGradient id="h"><stop offset="0" stop-color="#078cd0" stop-opacity=".698"/><stop offset=".774" stop-color="#5946dd" stop-opacity=".443"/><stop offset="1" stop-color="#ca39f1" stop-opacity=".302"/></linearGradient><linearGradient id="b"><stop offset="0" stop-color="#d1f8fc" stop-opacity=".084"/><stop offset=".501" stop-color="#fff" stop-opacity=".039"/><stop offset="1" stop-color="#b6f3fa" stop-opacity=".096"/></linearGradient><linearGradient id="a"><stop offset="0" stop-color="#777"/><stop offset="1" stop-color="#595959"/></linearGradient><linearGradient id="g"><stop offset="0" stop-color="#fff" stop-opacity=".528"/><stop offset=".561" stop-color="#fff" stop-opacity=".522"/><stop offset="1" stop-color="#fff" stop-opacity="0"/></linearGradient><linearGradient id="e"><stop offset="0" stop-color="#fff" stop-opacity=".663"/><stop offset=".561" stop-color="#fff" stop-opacity=".522"/><stop offset="1" stop-color="#fff" stop-opacity="0"/></linearGradient><linearGradient id="f"><stop offset="0" stop-color="#fff"/><stop offset=".561" stop-color="#fff" stop-opacity=".522"/><stop offset="1" stop-color="#fff" stop-opacity="0"/></linearGradient><linearGradient id="d"><stop offset="0" stop-color="#4fb9ef" stop-opacity=".459"/><stop offset=".836" stop-color="#1f1cec" stop-opacity=".315"/><stop offset=".888" stop-color="#d039f1" stop-opacity=".376"/><stop offset="1" stop-color="#ca39f1" stop-opacity=".302"/></linearGradient><linearGradient id="c"><stop offset="0" stop-color="#393939"/><stop offset="1" stop-color="#181818"/></linearGradient><radialGradient xlink:href="#h" id="k" cx="-226.274" cy=".459" fx="-226.274" fy=".459" r="15.999" gradientUnits="userSpaceOnUse" gradientTransform="matrix(.4546 -.4546 .45518 .45518 86.675 -119.284)"/><radialGradient gradientTransform="matrix(.41863 0 0 .41863 -82.981 -83.245)" xlink:href="#c" id="j" cx="160" cy="160" fx="160" fy="160" r="33" gradientUnits="userSpaceOnUse"/></defs><g color="#000" transform="translate(32 32)"><path style="isolation:auto;mix-blend-mode:normal;marker:none" d="M-10.864-23.979l5.743-5.743a1.929 1.929 0 0 1 2.734 0 1.929 1.929 0 0 1 0 2.734l-5.743 5.743a1.929 1.929 0 0 1-2.734 0 1.929 1.929 0 0 1 0-2.734z" display="block" overflow="visible" fill="#fff" stroke-width=".188" stroke-linecap="round" stroke-linejoin="round" paint-order="stroke fill markers"/><path style="isolation:auto;mix-blend-mode:normal;marker:none" d="M-3.835-29.482a1.188 1.188 0 0 0-1.189 1.189 1.188 1.188 0 0 0 .005.092 1.188 1.188 0 0 1 1.184-1.095 1.188 1.188 0 0 1 1.183 1.095 1.188 1.188 0 0 0 .005-.092 1.188 1.188 0 0 0-1.188-1.189z" overflow="visible" fill-opacity=".506" stroke-width=".608" paint-order="fill markers stroke"/><path style="isolation:auto;mix-blend-mode:normal;marker:none" d="M-1.662-15.845A14.338 14.338 0 0 1-16-1.507a14.338 14.338 0 0 1-14.338-14.338A14.338 14.338 0 0 1-16-30.183 14.338 14.338 0 0 1-1.662-15.845z" overflow="visible" fill-opacity=".23" stroke-width=".759" paint-order="fill markers stroke"/><path style="isolation:auto;mix-blend-mode:normal;marker:none" d="M-2.604-16.264A13.396 13.396 0 0 1-16-2.868a13.396 13.396 0 0 1-13.396-13.396A13.396 13.396 0 0 1-16-29.659 13.396 13.396 0 0 1-2.604-16.264z" overflow="visible" fill="url(#j)" stroke="#f2f2f2" stroke-width=".839" paint-order="fill markers stroke"/><path style="line-height:normal;font-variant-ligatures:normal;font-variant-position:normal;font-variant-caps:normal;font-variant-numeric:normal;font-variant-alternates:normal;font-feature-settings:normal;text-indent:0;text-align:start;text-decoration-line:none;text-decoration-style:solid;text-decoration-color:#000;text-transform:none;text-orientation:mixed;shape-padding:0;isolation:auto;mix-blend-mode:normal;marker:none" d="M-16-29.032c-7.044 0-12.768 5.724-12.768 12.768 0 7.044 5.724 12.769 12.768 12.769 7.044 0 12.768-5.725 12.768-12.769 0-7.044-5.724-12.768-12.768-12.768zm0 1.693A11.066 11.066 0 0 1-4.924-16.264 11.066 11.066 0 0 1-16-5.188a11.066 11.066 0 0 1-11.076-11.076A11.066 11.066 0 0 1-16-27.339z" font-weight="400" font-family="sans-serif" white-space="normal" overflow="visible" fill="#c7e8fb" fill-opacity=".14" stroke-width="1.332" paint-order="fill markers stroke"/><path style="line-height:normal;font-variant-ligatures:normal;font-variant-position:normal;font-variant-caps:normal;font-variant-numeric:normal;font-variant-alternates:normal;font-feature-settings:normal;text-indent:0;text-align:start;text-decoration-line:none;text-decoration-style:solid;text-decoration-color:#000;text-transform:none;text-orientation:mixed;shape-padding:0;isolation:auto;mix-blend-mode:normal;marker:none" d="M-16-30.225c-7.704 0-13.961 6.257-13.961 13.961 0 7.704 6.257 13.962 13.961 13.962 7.704 0 13.961-6.258 13.961-13.962S-8.296-30.224-16-30.224zm0 1.454c6.784 0 12.272 5.489 12.272 12.273S-8.958-3.528-16-3.528s-12.273-6.186-12.273-12.97c0-6.784 5.489-12.273 12.273-12.273z" font-weight="400" font-family="sans-serif" white-space="normal" overflow="visible" fill="#fff" stroke-width="1.675" paint-order="fill markers stroke"/><path style="isolation:auto;mix-blend-mode:normal;marker:none" d="M-8.564-8.885a10.586 10.586 0 0 1-14.971-.03l7.5-7.47z" overflow="visible" fill="#c7e8fb" fill-opacity=".129" stroke-width=".663" paint-order="fill markers stroke"/><path style="isolation:auto;mix-blend-mode:normal;marker:none" d="M-23.276-23.514a10.305 10.305 0 0 1 14.573.03l-7.302 7.272z" overflow="visible" fill="url(#k)" stroke-width=".645" paint-order="fill markers stroke"/><path style="isolation:auto;mix-blend-mode:normal;marker:none" d="M-15.163-14.948a.863.583 0 0 1-.863.583.863.583 0 0 1-.862-.583.863.583 0 0 1 .862-.583.863.583 0 0 1 .863.583z" overflow="visible" fill="#c7e8fb" fill-opacity=".382" stroke-width=".118" paint-order="fill markers stroke"/><path style="isolation:auto;mix-blend-mode:normal;marker:none" d="M-14.492-18.12A1.508 1.227 0 0 1-16-16.893a1.508 1.227 0 0 1-1.508-1.227A1.508 1.227 0 0 1-16-19.348a1.508 1.227 0 0 1 1.508 1.228z" overflow="visible" fill="#ecf7fe" fill-opacity=".438" stroke-width=".118" paint-order="fill markers stroke"/><circle style="isolation:auto;mix-blend-mode:normal;marker:none" cx="-3.836" cy="-28.293" r="1.188" overflow="visible" fill="#ea6565" stroke-width=".608" paint-order="fill markers stroke"/><circle style="isolation:auto;mix-blend-mode:normal;marker:none" cx="-16" cy="-16.264" r="3.768" overflow="visible" fill="none" fill-opacity=".459" stroke="#8e8e8e" stroke-width="1.577" paint-order="fill markers stroke"/></g></svg>