<svg xmlns:osb="http://www.openswatchbook.org/uri/2009/osb" xmlns="http://www.w3.org/2000/svg" xmlns:xlink="http://www.w3.org/1999/xlink" height="32" viewBox="0 0 32 32" width="32"><title>Template icons dark</title><defs><linearGradient xlink:href="#a" id="h" x1="99.818" y1="164.367" x2="220.995" y2="164.367" gradientUnits="userSpaceOnUse"/><linearGradient id="a"><stop offset="0" stop-color="#665e8f"/><stop offset="1" stop-color="#343b41"/></linearGradient><linearGradient xlink:href="#b" id="i" x1="115.452" y1="160" x2="204.026" y2="160.174" gradientUnits="userSpaceOnUse"/><linearGradient id="b"><stop offset="0" stop-color="#383d60"/><stop offset="1" stop-color="#242e42"/></linearGradient><linearGradient id="d"><stop offset="0" stop-opacity=".204"/><stop offset="1" stop-opacity="0"/></linearGradient><linearGradient id="e" osb:paint="solid"><stop offset="0" stop-color="#8ca1a8" stop-opacity=".424"/></linearGradient><linearGradient id="f" osb:paint="solid"><stop offset="0" stop-color="#ff4ca1"/></linearGradient><linearGradient id="c"><stop offset="0" stop-color="#dce1e8"/><stop offset="1" stop-color="#fff"/></linearGradient><linearGradient id="g"><stop offset="0" stop-color="#383d60"/><stop offset="1" stop-color="#242e42"/></linearGradient><linearGradient xlink:href="#c" id="o" gradientUnits="userSpaceOnUse" gradientTransform="matrix(.67185 0 0 .67185 369.406 119.94)" x1="-578.647" y1="-204.784" x2="-578.647" y2="-214.622"/><linearGradient xlink:href="#d" id="n" gradientUnits="userSpaceOnUse" gradientTransform="matrix(.3522 0 0 .34858 -379.178 -149.732)" x1="1031.269" y1="365.654" x2="1031.269" y2="380.159"/><linearGradient xlink:href="#e" id="m" gradientUnits="userSpaceOnUse" gradientTransform="translate(30.108 5.298) scale(.33727)" x1="-49.096" y1="1041.18" x2="-9.096" y2="1041.18"/><linearGradient xlink:href="#c" id="l" gradientUnits="userSpaceOnUse" gradientTransform="matrix(.67185 0 0 .67185 -24.5 -22.916)" x1="17.92" y1="19.84" x2="17.92" y2="11.307"/><linearGradient xlink:href="#d" id="k" gradientUnits="userSpaceOnUse" gradientTransform="matrix(.3522 0 0 .28047 -379.516 -116.244)" x1="1031.269" y1="365.654" x2="1031.269" y2="380.159"/><linearGradient xlink:href="#f" id="j" gradientUnits="userSpaceOnUse" gradientTransform="matrix(.26982 0 0 .27137 -23.323 -295.088)"/></defs><g transform="translate(32 32)"><path d="M-16 0l-13.856-8v-16L-16-32l13.856 8v16z" style="isolation:auto;mix-blend-mode:normal;marker:none" color="#000" overflow="visible" fill-opacity=".018" stroke-width=".259"/><path style="isolation:auto;mix-blend-mode:normal;marker:none" d="M192.612 192.612l-44.549 11.936-32.611-32.611 11.936-44.549 44.549-11.936 32.611 32.611z" transform="scale(.32549) rotate(45 309.39 -197.671)" color="#000" overflow="visible" fill="url(#h)" stroke-width=".068"/><path transform="rotate(45 82.922 -56.975) scale(.26039)" d="M192.612 192.612l-44.549 11.936-32.611-32.611 11.936-44.549 44.549-11.936 32.611 32.611z" style="isolation:auto;mix-blend-mode:normal;marker:none" color="#000" overflow="visible" fill="url(#i)" stroke-width=".068"/><path style="isolation:auto;mix-blend-mode:normal;marker:none" d="M-26.4-10.398v-12.01l10.4-6.004 10.4 6.005z" color="#000" overflow="visible" fill="#fff" fill-opacity=".058" stroke-width=".018"/><path style="isolation:auto;mix-blend-mode:normal;marker:none" d="M-16-28.412l-10.4 6.005v1.598l10.4-6.004 10.4 6.004v-1.598z" color="#000" overflow="visible" fill-opacity=".466" stroke-width=".018"/><path style="isolation:auto;mix-blend-mode:normal;marker:none" d="M-26.4-11.13v.734L-16-4.391l10.4-6.005v-.734L-16-5.125z" color="#000" overflow="visible" fill="#faf8fb" fill-opacity=".349" stroke-width=".018"/><path style="isolation:auto;mix-blend-mode:normal;marker:none" d="M-16-31.414l-13 7.506v.32l13-7.507 13 7.506v-.32z" color="#000" overflow="visible" fill="#fff" fill-opacity=".267" stroke-width=".022"/><path style="isolation:auto;mix-blend-mode:normal;marker:none" d="M-29-8.897v.64l13 7.505 13-7.505v-.64L-16-1.39z" color="#000" overflow="visible" fill="#131a20" fill-opacity=".092" stroke-width=".086"/><path d="M-20.353-15.377h8.899c1.54 0 2.78 1.282 2.78 2.875s-1.24 2.876-2.78 2.876h-8.899c-1.54 0-2.78-1.283-2.78-2.876s1.24-2.875 2.78-2.875z" fill="#fff" fill-opacity=".189" stroke-width=".379"/><path d="M-20.187-15.031h8.095a2.524 2.524 0 0 1 2.53 2.53 2.524 2.524 0 0 1-2.53 2.529h-8.095a2.524 2.524 0 0 1-2.53-2.53 2.524 2.524 0 0 1 2.53-2.53z" fill="url(#j)" stroke-width=".304"/><path style="line-height:normal;font-variant-ligatures:normal;font-variant-position:normal;font-variant-caps:normal;font-variant-numeric:normal;font-variant-alternates:normal;font-feature-settings:normal;text-indent:0;text-align:start;text-decoration-line:none;text-decoration-style:solid;text-decoration-color:#000;text-transform:none;text-orientation:mixed;shape-padding:0;isolation:auto;mix-blend-mode:normal" d="M-20.204-15.027a2.501 2.501 0 0 0-2.503 2.503v.04a2.502 2.502 0 0 0 2.503 2.503h8.145a2.502 2.502 0 0 0 2.503-2.504v-.039a2.501 2.501 0 0 0-2.503-2.503zm0 .337h8.145c1.203 0 2.166.963 2.166 2.166v.04a2.158 2.158 0 0 1-2.166 2.166h-8.145a2.158 2.158 0 0 1-2.166-2.167v-.039c0-1.203.963-2.166 2.166-2.166z" color="#000" font-weight="400" font-family="sans-serif" white-space="normal" overflow="visible" fill="url(#k)" stroke-width=".303"/><path d="M-8.55-12.165a3.879 3.879 0 0 1-3.88 3.879 3.879 3.879 0 0 1-3.878-3.879 3.879 3.879 0 0 1 3.879-3.878 3.879 3.879 0 0 1 3.878 3.878z" fill-opacity=".157" stroke-width=".162" stroke-miterlimit="4.6" stroke-opacity=".197"/><path d="M-8.888-12.502a3.541 3.541 0 0 1-3.541 3.541 3.541 3.541 0 0 1-3.542-3.54 3.541 3.541 0 0 1 3.542-3.542 3.541 3.541 0 0 1 3.541 3.541z" fill="url(#l)" stroke-width=".14" stroke-miterlimit="4.6"/><path d="M-19.85-23.326h8.095a2.524 2.524 0 0 1 2.53 2.53 2.524 2.524 0 0 1-2.53 2.53h-8.094a2.524 2.524 0 0 1-2.53-2.53 2.524 2.524 0 0 1 2.53-2.53z" fill="url(#m)" stroke-width=".339"/><path style="line-height:normal;font-variant-ligatures:normal;font-variant-position:normal;font-variant-caps:normal;font-variant-numeric:normal;font-variant-alternates:normal;font-feature-settings:normal;text-indent:0;text-align:start;text-decoration-line:none;text-decoration-style:solid;text-decoration-color:#000;text-transform:none;text-orientation:mixed;shape-padding:0;isolation:auto;mix-blend-mode:normal" d="M-19.866-23.321a2.501 2.501 0 0 0-2.503 2.503v.039a2.502 2.502 0 0 0 2.503 2.504h8.144a2.502 2.502 0 0 0 2.503-2.504v-.039a2.501 2.501 0 0 0-2.503-2.503zm0 .337h8.144c1.203 0 2.166.963 2.166 2.166v.039a2.158 2.158 0 0 1-2.166 2.167h-8.144a2.158 2.158 0 0 1-2.166-2.167v-.039c0-1.203.963-2.166 2.166-2.166z" color="#000" font-weight="400" font-family="sans-serif" white-space="normal" overflow="visible" fill="url(#n)" stroke-width=".337"/><path d="M-15.71-20.676a3.879 3.879 0 0 1-3.878 3.878 3.879 3.879 0 0 1-3.879-3.878 3.879 3.879 0 0 1 3.879-3.879 3.879 3.879 0 0 1 3.879 3.879z" fill-opacity=".157" stroke-width=".162" stroke-miterlimit="4.6" stroke-opacity=".197"/><path d="M-15.97-20.796a3.541 3.541 0 0 1-3.542 3.541 3.541 3.541 0 0 1-3.541-3.541 3.541 3.541 0 0 1 3.541-3.542 3.541 3.541 0 0 1 3.541 3.542z" fill="url(#o)" stroke-width=".14" stroke-miterlimit="4.6"/><circle style="isolation:auto;mix-blend-mode:normal;marker:none" cx="-27.708" cy="-23.032" r=".625" color="#000" overflow="visible" fill="#f8fbfe" fill-opacity=".55" stroke-width=".16" stroke-linejoin="round"/><circle r=".625" cy="-29.554" cx="-15.987" style="isolation:auto;mix-blend-mode:normal;marker:none" color="#000" overflow="visible" fill="#f8fbfe" fill-opacity=".55" stroke-width=".16" stroke-linejoin="round"/><circle style="isolation:auto;mix-blend-mode:normal;marker:none" cx="-4.413" cy="-22.885" r=".625" color="#000" overflow="visible" fill="#f8fbfe" fill-opacity=".55" stroke-width=".16" stroke-linejoin="round"/><circle r=".625" cy="-9.595" cx="-4.413" style="isolation:auto;mix-blend-mode:normal;marker:none" color="#000" overflow="visible" fill="#f8fbfe" fill-opacity=".55" stroke-width=".16" stroke-linejoin="round"/><circle style="isolation:auto;mix-blend-mode:normal;marker:none" cx="-16.003" cy="-3.395" r=".625" color="#000" overflow="visible" fill="#f8fbfe" fill-opacity=".55" stroke-width=".16" stroke-linejoin="round"/><circle r=".625" cy="-9.546" cx="-27.659" style="isolation:auto;mix-blend-mode:normal;marker:none" color="#000" overflow="visible" fill="#f8fbfe" fill-opacity=".55" stroke-width=".16" stroke-linejoin="round"/><circle r="3.38" cy="-12.502" cx="-12.429" fill="none" stroke="#fff" stroke-width=".322" stroke-miterlimit="4.6" stroke-opacity=".237"/><circle r="3.38" cy="-20.796" cx="-19.512" fill="none" stroke="#fff" stroke-width=".322" stroke-miterlimit="4.6" stroke-opacity=".237"/></g></svg>