<svg xmlns="http://www.w3.org/2000/svg" xmlns:xlink="http://www.w3.org/1999/xlink" height="32" viewBox="0 0 32 32" width="32"><title>Template icons dark</title><defs><linearGradient id="d"><stop offset="0" stop-color="#fff" stop-opacity=".763"/><stop offset="1" stop-color="#fff" stop-opacity=".632"/></linearGradient><linearGradient id="c"><stop offset="0" stop-color="#fff"/><stop offset="1" stop-color="#fff" stop-opacity=".637"/></linearGradient><linearGradient id="b"><stop offset="0" stop-color="#ff053c"/><stop offset="1" stop-color="#0b31ff" stop-opacity=".974"/></linearGradient><linearGradient id="a"><stop offset="0" stop-color="#1ed760"/><stop offset="1" stop-color="#1ed760"/></linearGradient><linearGradient xlink:href="#a" id="e" x1="24.535" y1="7.996" x2="24.705" y2="38.25" gradientUnits="userSpaceOnUse" gradientTransform="translate(-33.68 -34.765) scale(.73418)"/><linearGradient xlink:href="#b" id="f" x1="122" y1="183" x2="196" y2="142" gradientUnits="userSpaceOnUse" gradientTransform="translate(-71.122 -71.122) scale(.34451)"/><linearGradient gradientTransform="matrix(.33333 0 0 .33333 -69.333 -69.333)" xlink:href="#c" id="h" x1="160.063" y1="147" x2="158.323" y2="181" gradientUnits="userSpaceOnUse"/><linearGradient gradientTransform="matrix(.33333 0 0 .33333 -69.333 -69.333)" xlink:href="#d" id="g" x1="172" y1="119" x2="148.724" y2="201.638" gradientUnits="userSpaceOnUse"/></defs><g color="#000" transform="translate(32 32)"><circle style="isolation:auto;mix-blend-mode:normal;marker:none" cx="-16" cy="-16" r="16" display="block" overflow="visible" fill-opacity=".078" stroke-width=".694"/><circle style="isolation:auto;mix-blend-mode:normal;marker:none" cx="-16" cy="-16" r="15.333" overflow="visible" fill="url(#e)" stroke-width=".855"/><circle r="15.333" cy="-16" cx="-16" style="isolation:auto;mix-blend-mode:normal;marker:none" overflow="visible" opacity=".109" fill="url(#f)" stroke-width=".855"/><circle style="isolation:auto;mix-blend-mode:normal;marker:none" cx="-16" cy="-16" r="14.917" overflow="visible" fill="none" stroke="url(#g)" stroke-width=".833"/><path style="line-height:normal;font-variant-ligatures:normal;font-variant-position:normal;font-variant-caps:normal;font-variant-numeric:normal;font-variant-alternates:normal;font-feature-settings:normal;text-indent:0;text-align:start;text-decoration-line:none;text-decoration-style:solid;text-decoration-color:#000;text-transform:none;text-orientation:mixed;shape-padding:0;isolation:auto;mix-blend-mode:normal" d="M-17.771-23.132a28.67 28.67 0 0 0-7.35.956 1.416 1.416 0 1 0 .73 2.735c5.571-1.486 12.242-1.1 17.692 1.772a1.416 1.416 0 1 0 1.32-2.504c-3.869-2.04-8.182-2.96-12.392-2.96zm-.167 5.206c-2.207-.01-4.36.284-6.28.82a1.22 1.22 0 1 0 .654 2.348c4.474-1.247 10.752-.912 14.99 1.746a1.22 1.22 0 1 0 1.295-2.065c-3.151-1.977-6.98-2.833-10.66-2.849zm.271 4.926c-2.151-.033-4.215.286-6.115.708a.944.944 0 1 0 .41 1.842c4.151-.922 8.704-1.286 13.31 1.462a.944.944 0 1 0 .968-1.62c-2.895-1.728-5.806-2.35-8.573-2.392z" font-weight="400" font-family="sans-serif" white-space="normal" overflow="visible" fill-opacity=".147" stroke-width="2.831"/><path d="M-17.771-23.465a28.67 28.67 0 0 0-7.35.955 1.416 1.416 0 1 0 .73 2.736c5.571-1.486 12.242-1.1 17.692 1.772a1.416 1.416 0 1 0 1.32-2.505c-3.869-2.038-8.182-2.96-12.392-2.958zm-.167 5.206c-2.207-.01-4.36.284-6.28.819a1.22 1.22 0 1 0 .654 2.348c4.474-1.247 10.752-.911 14.99 1.746A1.22 1.22 0 1 0-7.28-15.41c-3.151-1.976-6.98-2.833-10.66-2.848zm.271 4.926c-2.151-.033-4.215.285-6.115.707a.944.944 0 1 0 .41 1.843c4.151-.923 8.704-1.287 13.31 1.462a.944.944 0 1 0 .968-1.621c-2.895-1.727-5.806-2.35-8.573-2.391z" style="line-height:normal;font-variant-ligatures:normal;font-variant-position:normal;font-variant-caps:normal;font-variant-numeric:normal;font-variant-alternates:normal;font-feature-settings:normal;text-indent:0;text-align:start;text-decoration-line:none;text-decoration-style:solid;text-decoration-color:#000;text-transform:none;text-orientation:mixed;shape-padding:0;isolation:auto;mix-blend-mode:normal" font-weight="400" font-family="sans-serif" white-space="normal" overflow="visible" fill="url(#h)" stroke-width="2.831"/></g></svg>