<svg xmlns="http://www.w3.org/2000/svg" xmlns:xlink="http://www.w3.org/1999/xlink" height="32" viewBox="0 0 32 32" width="32"><title>Template icons dark</title><defs><linearGradient id="b"><stop offset="0" stop-color="#aed5f8"/><stop offset="1" stop-color="#f7cbff"/></linearGradient><linearGradient id="c"><stop offset="0" stop-color="#5a9fdb"/><stop offset="1" stop-color="#e47ff5"/></linearGradient><linearGradient id="a"><stop offset="0" stop-color="#1d273b"/><stop offset="1" stop-color="#342b38"/></linearGradient><linearGradient xlink:href="#a" id="d" gradientUnits="userSpaceOnUse" gradientTransform="matrix(.68183 0 0 -.68183 -31.873 .855)" x1="14.633" y1="41.796" x2="34.842" y2="6.78"/><linearGradient xlink:href="#c" id="e" gradientUnits="userSpaceOnUse" gradientTransform="translate(-68.174 -68.174) scale(.32609)" x1="113" y1="160" x2="207" y2="160"/><linearGradient xlink:href="#b" id="f" gradientUnits="userSpaceOnUse" gradientTransform="translate(-70.798 -82.17) scale(.37882)" x1="112.037" y1="174.404" x2="175.498" y2="174.404"/></defs><g color="#000"><path style="isolation:auto;mix-blend-mode:normal;marker:none" d="M16 0A16 16 0 0 0 0 16a16 16 0 0 0 16 16 16 16 0 0 0 16-16A16 16 0 0 0 16 0zm0 11.942A4.058 4.058 0 0 1 20.058 16 4.058 4.058 0 0 1 16 20.058 4.058 4.058 0 0 1 11.942 16 4.058 4.058 0 0 1 16 11.942z" overflow="visible" fill-opacity=".12" stroke-width=".696"/><path style="isolation:auto;mix-blend-mode:normal;marker:none" d="M-16-1c-8.284 0-15-6.716-15-15 0-8.284 6.716-15 15-15 8.284 0 15 6.716 15 15C-1-7.716-7.716-1-16-1z" overflow="visible" fill="url(#d)" stroke="url(#e)" stroke-width=".666" transform="translate(32 32)"/><path d="M21.937 4.907c-1.742-.093-3.327.695-4.4 1.856a5.88 5.88 0 0 0-.36.428L7.267 20.2 1.41 16.876s.02 1.184.196 2.038c.22 1.064.494 2.048.494 2.048l3.454 1.866c-.388 1.237-.128 2.646.96 3.735 1.46 1.458 3.495 1.431 4.92.346L25.887 15.9c2.357-1.795 3.358-5.813.23-8.94-1.375-1.376-2.825-1.982-4.18-2.054zm.081 2.208a4.136 4.136 0 1 1-2.986 1.21 4.136 4.136 0 0 1 2.986-1.21zm-.07 1.42a2.666 2.666 0 1 0 0 5.332 2.666 2.666 0 0 0 0-5.332zM9.902 20.885a2.39 2.39 0 1 1-1.724 4.08 2.39 2.39 0 0 1-.635-1.147l1.725.859a1.56 1.56 0 0 0 1.316-2.826l-1.6-.795a2.39 2.39 0 0 1 .918-.17z" style="isolation:auto;mix-blend-mode:normal;marker:none" overflow="visible" fill-opacity=".319" stroke-width=".379"/><path style="isolation:auto;mix-blend-mode:normal;marker:none" d="M-10.463-27.492c-1.741-.093-3.326.695-4.4 1.856a5.88 5.88 0 0 0-.36.428l-9.91 13.01-5.856-3.325s.02 1.183.196 2.038c.22 1.064.494 2.048.494 2.048l3.454 1.865c-.388 1.238-.128 2.647.96 3.735 1.459 1.46 3.495 1.432 4.92.347l14.452-11.008c2.357-1.796 3.358-5.813.23-8.94-1.375-1.377-2.825-1.982-4.18-2.054zm.082 2.207a4.136 4.136 0 1 1-2.986 1.212 4.136 4.136 0 0 1 2.986-1.212zm-.07 1.421a2.666 2.666 0 1 0 0 5.332 2.666 2.666 0 0 0 0-5.332zm-12.046 12.35a2.39 2.39 0 1 1-1.724 4.08 2.39 2.39 0 0 1-.635-1.148l1.724.86a1.56 1.56 0 0 0 1.317-2.826l-1.6-.796a2.39 2.39 0 0 1 .918-.17z" overflow="visible" fill="url(#f)" stroke-width=".379" transform="translate(32 32)"/></g></svg>