<svg xmlns="http://www.w3.org/2000/svg" xmlns:xlink="http://www.w3.org/1999/xlink" height="32" viewBox="0 0 32 32" width="32"><title>Template icons dark</title><defs><linearGradient id="a"><stop offset="0" stop-color="#eadfec"/><stop offset="1" stop-color="#c0dde6"/></linearGradient><linearGradient id="b"><stop offset="0" stop-color="#3e4453"/><stop offset="1" stop-color="#222630"/></linearGradient><linearGradient id="c"><stop offset="0" stop-color="#abd6e5"/><stop offset="1" stop-color="#f7e2f7"/></linearGradient><linearGradient xlink:href="#b" id="d" gradientUnits="userSpaceOnUse" gradientTransform="translate(-33.664 -34.748) scale(.7335)" x1="24.535" y1="7.996" x2="24.766" y2="38.006"/><linearGradient xlink:href="#c" id="e" gradientUnits="userSpaceOnUse" gradientTransform="matrix(.72886 0 0 .72886 -33.493 -35.825)" x1="36.062" y1="47.638" x2="13.188" y2="8.325"/><linearGradient xlink:href="#c" id="f" gradientUnits="userSpaceOnUse" gradientTransform="matrix(.72886 0 0 .72886 -33.493 -35.825)" x1="36.062" y1="47.638" x2="13.188" y2="8.325"/><linearGradient xlink:href="#a" id="g" gradientUnits="userSpaceOnUse" gradientTransform="translate(-33.497 -34.92) scale(.77571)" x1="17.302" y1="14.341" x2="30.113" y2="34.354"/></defs><g transform="translate(32 32)"><circle r="16" cy="-16" cx="-16" style="isolation:auto;mix-blend-mode:normal;marker:none" color="#000" display="block" overflow="visible" fill-opacity=".115" stroke-width=".616"/><circle r="15.319" cy="-16" cx="-16" style="isolation:auto;mix-blend-mode:normal;marker:none" color="#000" overflow="visible" fill="url(#d)" stroke="url(#e)" stroke-width=".681"/><circle style="isolation:auto;mix-blend-mode:normal;marker:none" cx="-16" cy="-16" r="15.319" color="#000" display="block" overflow="visible" fill="none" stroke="url(#f)" stroke-width=".681"/><path style="isolation:auto;mix-blend-mode:normal;marker:none" color="#000" display="block" overflow="visible" fill="#869eb6" stroke-width="1.7" d="M-22-24h4v2h-4z"/><path style="isolation:auto;mix-blend-mode:normal;marker:none" color="#000" display="block" overflow="visible" fill="#8e9f81" stroke-width="1.289" d="M-18.383-23.83h2.043v1.362h-2.043z"/><path style="isolation:auto;mix-blend-mode:normal;marker:none" color="#000" display="block" overflow="visible" fill="#86b1d6" fill-opacity=".357" stroke-width="1.945" d="M-19-20.113h3V-18h-3z"/><path style="isolation:auto;mix-blend-mode:normal;marker:none" color="#000" display="block" overflow="visible" fill="#88885e" fill-opacity=".495" stroke-width="1.893" d="M-15-20h3v2h-3z"/><path style="isolation:auto;mix-blend-mode:normal;marker:none" color="#000" display="block" overflow="visible" fill="#987f95" fill-opacity=".676" stroke-width="1.504" d="M-22.133-12H-19v2h-3.133z"/><path style="isolation:auto;mix-blend-mode:normal;marker:none" color="#000" display="block" overflow="visible" fill="#68798d" fill-opacity=".764" stroke-width="2.186" d="M-18-12h4v2h-4z"/><path style="isolation:auto;mix-blend-mode:normal;marker:none" color="#000" overflow="visible" fill="#606d78" stroke-width="1.901" d="M-13-12h5v2h-5z"/><path style="isolation:auto;mix-blend-mode:normal;marker:none" color="#000" display="block" overflow="visible" fill="#53c290" stroke-width="1.7" d="M-22-8h4v2h-4z"/><path style="isolation:auto;mix-blend-mode:normal;marker:none" color="#000" display="block" overflow="visible" fill="#e675d2" stroke-width="1.893" d="M-17-8h3v2h-3z"/><path style="isolation:auto;mix-blend-mode:normal;marker:none" color="#000" display="block" overflow="visible" fill="#8f6094" stroke-width="1.415" d="M-11-20h3v2h-3z"/><path style="isolation:auto;mix-blend-mode:normal;marker:none" color="#000" display="block" overflow="visible" fill="#575f70" stroke-width="2" d="M-25-24h2v2h-2zM-25-20h2v2h-2zM-25-16h2v2h-2z"/><path style="isolation:auto;mix-blend-mode:normal;marker:none" color="#000" display="block" overflow="visible" fill="#575f70" stroke-width="1.997" d="M-25-11.995h2V-10h-2z"/><path style="isolation:auto;mix-blend-mode:normal;marker:none" color="#000" display="block" overflow="visible" fill="#575f70" stroke-width="2" d="M-25-8h2v2h-2z"/><path style="isolation:auto;mix-blend-mode:normal;marker:none" color="#000" display="block" overflow="visible" fill="#9176e2" stroke-width="1.472" d="M-22-27h3v2h-3z"/><path style="isolation:auto;mix-blend-mode:normal;marker:none" color="#000" display="block" overflow="visible" fill="#57bdff" fill-opacity=".824" stroke-width="1.893" d="M-18-27h3v2h-3z"/><path style="isolation:auto;mix-blend-mode:normal;marker:none" color="#000" display="block" overflow="visible" fill="#575f70" stroke-width="2" d="M-25-27h2v2h-2z"/><path d="M-12.753-11.227q0-1.08-.822-1.671-.807-.605-2.838-1.038-2.017-.432-3.213-1.037-1.182-.605-1.758-1.44-.562-.836-.562-1.99 0-1.916 1.614-3.241 1.628-1.326 4.15-1.326 2.65 0 4.293 1.37 1.657 1.368 1.657 3.5h-2.68q0-1.095-.937-1.887-.922-.793-2.334-.793-1.455 0-2.276.634-.822.634-.822 1.657 0 .966.764 1.456t2.752.936q2.003.447 3.242 1.066 1.24.62 1.83 1.499.605.864.605 2.118 0 2.09-1.671 3.357-1.672 1.254-4.337 1.254-1.873 0-3.314-.663t-2.262-1.844q-.807-1.196-.807-2.58h2.665q.072 1.34 1.067 2.133 1.008.778 2.65.778 1.514 0 2.421-.605.923-.62.923-1.643z" style="line-height:10;-inkscape-font-specification:Roboto" font-weight="400" font-size="83.863" font-family="Roboto" letter-spacing="0" word-spacing="0" fill-opacity=".385" stroke-width="1.434" stroke-opacity=".194"/><path style="line-height:10;-inkscape-font-specification:Roboto" d="M-12.753-12.574q0-1.08-.822-1.672-.807-.605-2.838-1.037-2.017-.432-3.213-1.037-1.182-.606-1.758-1.441-.562-.836-.562-1.989 0-1.916 1.614-3.242 1.628-1.325 4.15-1.325 2.65 0 4.293 1.369 1.657 1.368 1.657 3.5h-2.68q0-1.094-.937-1.887-.922-.792-2.334-.792-1.455 0-2.276.634-.822.634-.822 1.657 0 .965.764 1.455.764.49 2.752.937 2.003.446 3.242 1.066 1.24.62 1.83 1.498.605.865.605 2.118 0 2.09-1.671 3.358-1.672 1.253-4.337 1.253-1.873 0-3.314-.663-1.441-.662-2.262-1.844-.807-1.196-.807-2.579h2.665q.072 1.34 1.067 2.132 1.008.779 2.65.779 1.514 0 2.421-.606.923-.62.923-1.642z" font-weight="400" font-size="83.863" font-family="Roboto" letter-spacing="0" word-spacing="0" fill="url(#g)" stroke-width="1.434" stroke-opacity=".194"/></g></svg>