<svg xmlns="http://www.w3.org/2000/svg" xmlns:xlink="http://www.w3.org/1999/xlink" height="32" viewBox="0 0 32 32" width="32"><title>Template icons dark</title><defs><linearGradient id="j"><stop offset="0" stop-color="#0292e2"/><stop offset=".556" stop-color="#0283cb"/><stop offset=".59" stop-color="#0297e9"/><stop offset="1" stop-color="#41bafd"/></linearGradient><linearGradient id="c"><stop offset="0" stop-color="#fff" stop-opacity=".307"/><stop offset=".7" stop-color="#fff" stop-opacity=".214"/><stop offset="1" stop-color="#fff" stop-opacity=".188"/><stop offset="1" stop-color="#fff" stop-opacity="0"/></linearGradient><linearGradient id="h"><stop offset="0" stop-color="#fff" stop-opacity=".25"/><stop offset=".7" stop-color="#fff" stop-opacity=".214"/><stop offset="1" stop-color="#fff" stop-opacity=".188"/><stop offset="1" stop-color="#fff" stop-opacity="0"/></linearGradient><linearGradient id="i"><stop offset="0" stop-color="#fff" stop-opacity=".271"/><stop offset=".7" stop-color="#fff" stop-opacity=".214"/><stop offset="1" stop-color="#fff" stop-opacity=".188"/><stop offset="1" stop-color="#fff" stop-opacity="0"/></linearGradient><linearGradient id="f"><stop offset="0" stop-color="#0292e2"/><stop offset="1" stop-color="#029bf0"/></linearGradient><linearGradient id="e"><stop offset="0"/><stop offset="1" stop-opacity=".078"/></linearGradient><linearGradient id="d"><stop offset="0" stop-color="#00628a"/><stop offset=".632" stop-color="#00668f"/><stop offset="1" stop-color="#005172"/></linearGradient><linearGradient id="a"><stop offset="0" stop-color="#fff"/><stop offset=".134" stop-color="#e9f5fa"/><stop offset=".301" stop-color="#dff2fa"/><stop offset=".422" stop-color="#b5e2f4"/><stop offset="1" stop-color="#22affd"/></linearGradient><linearGradient id="b"><stop offset="0" stop-color="#fff" stop-opacity=".313"/><stop offset="1" stop-color="#fff" stop-opacity="0"/></linearGradient><linearGradient id="g"><stop offset="0" stop-color="#fff" stop-opacity=".313"/><stop offset=".7" stop-color="#fff" stop-opacity=".214"/><stop offset="1" stop-color="#fff" stop-opacity=".188"/><stop offset="1" stop-color="#fff" stop-opacity="0"/></linearGradient><linearGradient xlink:href="#a" id="n" x1="24" y1="37.929" x2="24" y2="1.669" gradientUnits="userSpaceOnUse" gradientTransform="matrix(.67061 0 0 .67061 -32.094 -30.933)"/><linearGradient gradientTransform="matrix(.75944 0 0 .75944 -34.226 -36.387)" xlink:href="#i" id="m" x1="24.03" y1="40.729" x2="24.03" y2="31.155" gradientUnits="userSpaceOnUse"/><linearGradient gradientTransform="matrix(.36357 0 0 .36357 -74.17 -73.442)" xlink:href="#d" id="l" x1="165" y1="115" x2="165" y2="119.646" gradientUnits="userSpaceOnUse"/><linearGradient gradientTransform="matrix(.36357 0 0 .36357 -74.17 -73.442)" xlink:href="#f" id="k" x1="132.78" y1="129" x2="197" y2="194" gradientUnits="userSpaceOnUse"/></defs><path d="M31 2v17l1 11c.066.724-1.273 2-2 2H2c-.727 0-2.066-1.276-2-2l1-11V2l2-2h26z" fill="#030303" fill-opacity=".13" stroke-width=".193" stroke-opacity=".196"/><path d="M-2-30v17l1 10c.06.596-1 2-2 2h-26c-.599 0-2.06-1.404-2-2l1-10v-17z" fill="url(#k)" stroke-width=".194" stroke-opacity=".196" transform="translate(32 32)"/><path d="M-28-32h24l2 2h-28z" fill="url(#l)" stroke-width=".192" stroke-opacity=".196" transform="translate(32 32)"/><path d="M-2-30v17l1 10c.06.596-1 2-2 2h-26c-1 0-2.032-1.68-2-2l1-10v-17z" fill="url(#m)" stroke-width=".194" stroke-opacity=".196" transform="translate(32 32)"/><path d="M13 3v17H6.866L16 28l9-8h-6V3z" fill-opacity=".193" stroke-width=".469" stroke-linecap="round" stroke-opacity=".771"/><path d="M-19-30v17h-6l9 8 9-8h-6v-17z" fill="url(#n)" stroke-width=".469" stroke-linecap="round" stroke-opacity=".771" transform="translate(32 32)"/><path d="M9.983 3.702a1.369 1.369 0 1 0 0 2.737 1.369 1.369 0 0 0 0-2.737zm11.987 0a1.369 1.369 0 1 0 0 2.737 1.369 1.369 0 0 0 0-2.737z" fill="#25231d" fill-opacity=".583" stroke-width=".423"/><path d="M9.418 6.202s.694 6.816 6.775 6.816c6.107 0 6.249-6.647 6.249-6.647-.43-.406-.746-.366-1.114-.135 0 0-.578 5.634-5.135 5.634-4.765 0-5.526-5.6-5.526-5.6-.356-.577-.966-.453-1.249-.068z" fill-opacity=".302" fill-rule="evenodd" stroke-width=".583" stroke-linecap="round" stroke-opacity=".333"/><path d="M9.418 5.111s.694 6.816 6.775 6.816c6.107 0 6.249-6.647 6.249-6.647-.43-.405-.746-.366-1.114-.135 0 0-.578 5.635-5.135 5.635-4.765 0-5.526-5.601-5.526-5.601-.356-.577-.966-.453-1.249-.068z" fill="#fffffc" fill-rule="evenodd" stroke="#000" stroke-width=".30085714999999996" stroke-linecap="round" stroke-opacity=".333"/><path style="isolation:auto;mix-blend-mode:normal;marker:none" color="#000" overflow="visible" fill="#fff" fill-opacity=".182" stroke-width=".471" d="M2 2h28v1H2z"/></svg>