<svg xmlns="http://www.w3.org/2000/svg" xmlns:xlink="http://www.w3.org/1999/xlink" height="32" viewBox="0 0 32 32" width="32"><title>Template icons dark</title><defs><linearGradient id="d"><stop offset="0" stop-color="#443791"/><stop offset="1" stop-color="#915cb8"/></linearGradient><linearGradient id="c"><stop offset="0" stop-color="#fff"/><stop offset="1" stop-color="#d2d2d2"/></linearGradient><linearGradient id="b"><stop offset="0" stop-color="#5a41e2"/><stop offset="1" stop-color="#4c9ce0" stop-opacity=".945"/></linearGradient><linearGradient id="a"><stop offset="0" stop-color="#fffefe"/><stop offset="1" stop-color="#fff" stop-opacity=".855"/></linearGradient><linearGradient gradientTransform="rotate(-45 -123.373 51.094) scale(.35165)" xlink:href="#d" id="e" x1="12.131" y1="258.452" x2="12.131" y2="181.283" gradientUnits="userSpaceOnUse"/><linearGradient gradientTransform="matrix(.35165 0 0 .35165 -72.264 -72.272)" xlink:href="#c" id="f" x1="160.425" y1="131.905" x2="160.425" y2="202" gradientUnits="userSpaceOnUse"/></defs><path style="isolation:auto;mix-blend-mode:normal;marker:none" d="M.615 14.521L14.52.615c.82-.82 2.139-.82 2.958 0L31.385 14.52c.82.82.82 2.139 0 2.958L17.48 31.385c-.82.82-2.139.82-2.958 0L.615 17.48a2.087 2.087 0 0 1 0-2.958z" color="#000" overflow="visible" fill="#040307" fill-opacity=".1" stroke-width=".133" stroke-opacity=".104" paint-order="fill markers stroke"/><path style="isolation:auto;mix-blend-mode:normal;marker:none" d="M-30.794-17.422l13.372-13.372a2.007 2.007 0 0 1 2.844 0l13.372 13.372a2.007 2.007 0 0 1 0 2.844L-14.578-1.206a2.007 2.007 0 0 1-2.844 0l-13.372-13.372a2.007 2.007 0 0 1 0-2.844z" color="#000" overflow="visible" fill="url(#e)" stroke-width=".128" stroke-opacity=".104" paint-order="fill markers stroke" transform="translate(32 32)"/><path d="M12.205 3.49l-.352.352 3.593 3.592a2.387 2.387 0 0 1 2.456.573c.378.378.596.85.669 1.34a2.38 2.38 0 0 0-.669-2.043 2.387 2.387 0 0 0-2.456-.574zm1.648 5.133c-.037.241-.04.485-.003.726a2.39 2.39 0 0 1 .154-.575zm4.737 1.273a2.406 2.406 0 0 1-.12.584l3.463 3.461a2.39 2.39 0 0 1 3.145 1.909 2.387 2.387 0 0 0-3.145-2.612zm1.763 5.248a2.397 2.397 0 0 0-.002.707c.028-.19.074-.38.149-.56zM.56 15.646a2.008 2.008 0 0 0 .557 1.777l13.461 13.46a2.011 2.011 0 0 0 2.844.001l13.462-13.461a2.008 2.008 0 0 0 .556-1.774c-.07.392-.253.767-.556 1.07L17.422 30.181a2.011 2.011 0 0 1-2.844 0L1.117 16.718a2 2 0 0 1-.557-1.073zm14.745 4.137a2.391 2.391 0 0 0-1.455 2.565 2.39 2.39 0 0 1 1.455-1.862zm1.968.07v.703a2.379 2.379 0 0 1 1.305 1.793 2.387 2.387 0 0 0-1.305-2.496z" fill="#fff" fill-opacity=".668" stroke-width=".34"/><path style="line-height:normal;font-variant-ligatures:normal;font-variant-position:normal;font-variant-caps:normal;font-variant-numeric:normal;font-variant-alternates:normal;font-feature-settings:normal;text-indent:0;text-align:start;text-decoration-line:none;text-decoration-style:solid;text-decoration-color:#000;text-transform:none;text-orientation:mixed;shape-padding:0;isolation:auto;mix-blend-mode:normal" d="M15.4 7.629l.1-.035a2.218 2.218 0 0 1 2.81 2.83l-.035.1 3.613 3.613.1-.035a2.217 2.217 0 0 1 2.297.528c.87.87.87 2.273.001 3.144a2.22 2.22 0 0 1-3.145-.001 2.223 2.223 0 0 1-.484-2.418l.043-.104-3.6-3.6.003 9.011.095.047a2.22 2.22 0 0 1 .589 3.565 2.22 2.22 0 0 1-3.144 0 2.22 2.22 0 0 1 .727-3.63l.106-.044-.002-8.802-.106-.043a2.222 2.222 0 0 1-1.207-2.916l.044-.105-3.59-3.575-.221.251 3.422 3.416a2.554 2.554 0 0 0 .583 2.684c.217.218.472.366.735.489l.002 8.4a2.536 2.536 0 0 0-.734.49 2.565 2.565 0 0 0 0 3.624c1 1 2.625 1 3.625 0 .999-1 .999-2.624-.001-3.623a2.527 2.527 0 0 0-.583-.418l-.002-8 2.873 2.872a2.553 2.553 0 0 0 .587 2.67c1 .999 2.625 1 3.625 0s.999-2.625 0-3.624a2.548 2.548 0 0 0-2.535-.632l-3.338-3.336a2.549 2.549 0 0 0-.63-2.535 2.547 2.547 0 0 0-2.52-.635c-1.2-1.147-3.491-3.488-3.491-3.488l-.229.232z" color="#000" font-weight="400" font-family="sans-serif" white-space="normal" overflow="visible" fill-opacity="0" stroke="#000" stroke-width=".48" stroke-opacity=".142"/><path d="M-1.117-17.423l-13.46-13.46a2.012 2.012 0 0 0-2.845 0l-2.724 2.725 3.592 3.592a2.39 2.39 0 0 1 3.025 3.046l3.462 3.461a2.393 2.393 0 1 1-1.433 1.35l-3.23-3.23.003 8.496a2.393 2.393 0 1 1-1.967-.07l-.002-8.574a2.393 2.393 0 0 1-1.3-3.139l-3.541-3.542-9.347 9.346a2.012 2.012 0 0 0 0 2.845l13.462 13.46a2.011 2.011 0 0 0 2.844.001l13.461-13.461a2.013 2.013 0 0 0 0-2.846z" fill="url(#f)" stroke-width=".34" transform="translate(32 32)"/></svg>