<svg xmlns="http://www.w3.org/2000/svg" xmlns:xlink="http://www.w3.org/1999/xlink" height="32" viewBox="0 0 32 32" width="32"><title>Template icons dark</title><defs><linearGradient id="a"><stop offset="0" stop-color="#fff" stop-opacity=".105"/><stop offset="1" stop-color="#fff" stop-opacity=".414"/></linearGradient><linearGradient id="b"><stop offset="0" stop-color="#4b4b4b"/><stop offset=".125" stop-color="#fff"/><stop offset=".306" stop-color="#5c5c5c"/><stop offset=".455" stop-color="#fff"/><stop offset=".55" stop-color="#fff"/><stop offset=".731" stop-color="#626262"/><stop offset=".931" stop-color="#fff"/><stop offset="1" stop-color="#505050"/></linearGradient><linearGradient id="c"><stop offset="0" stop-color="#fcfcfc"/><stop offset=".512" stop-color="#7c7c7c"/><stop offset=".904" stop-color="#fcfcfc"/><stop offset="1" stop-color="#b5b5b5"/></linearGradient><linearGradient id="d"><stop offset="0" stop-opacity="0"/><stop offset="1" stop-color="#919191" stop-opacity=".502"/></linearGradient><linearGradient id="e"><stop offset="0" stop-color="#15b5ff"/><stop offset="1" stop-color="#1385ff"/></linearGradient><linearGradient id="f"><stop offset="0" stop-color="#42ec81"/><stop offset="1" stop-color="#3add5c"/></linearGradient><linearGradient id="g"><stop offset="0" stop-color="#ff8300"/><stop offset="1" stop-color="#ff5b00"/></linearGradient><linearGradient id="h"><stop offset="0" stop-color="#f72424" stop-opacity=".066"/><stop offset="1" stop-color="#f72424" stop-opacity=".118"/></linearGradient><linearGradient xlink:href="#c" id="i" x1="11.592" y1="14.007" x2="28.333" y2="31.765" gradientUnits="userSpaceOnUse" gradientTransform="matrix(.99788 0 0 .99788 -39.115 -42.836)"/><linearGradient xlink:href="#d" id="j" x1="8.57" y1="18.196" x2="28.333" y2="31.765" gradientUnits="userSpaceOnUse" gradientTransform="matrix(.99788 0 0 .99788 -39.115 -42.836)"/><linearGradient xlink:href="#b" id="l" gradientUnits="userSpaceOnUse" gradientTransform="matrix(.5671 .56157 -1.11238 1.14519 196.997 109.169)" x1="45.878" y1="34.792" x2="45.869" y2="42.694"/><linearGradient xlink:href="#b" id="m" gradientUnits="userSpaceOnUse" gradientTransform="matrix(.7981 0 0 1.5965 225.755 -64.719)" x1="45.878" y1="34.792" x2="46.015" y2="47.577"/><linearGradient xlink:href="#a" id="k" x1="20.54" y1="20.256" x2="17.967" y2="15.009" gradientUnits="userSpaceOnUse" gradientTransform="matrix(.7942 0 0 .7942 -34.834 -38.93)"/></defs><path d="M12.883.878C6.733.878.959 6.418.959 12.568c0 6.15 5.637 11.696 11.786 11.696 6.15 0 11.604-5.454 11.604-11.604C24.35 6.51 19.032.878 12.883.878zm-.138 1.857c5.42 0 9.782 3.728 9.782 9.147a9.76 9.76 0 0 1-9.782 9.782 9.76 9.76 0 0 1-9.781-9.782c0-5.419 4.362-9.147 9.781-9.147z" fill="#050505" fill-opacity=".13" stroke-width=".748"/><path d="M-19.408-31.927a12.492 12.492 0 0 0-12.519 12.52A12.492 12.492 0 0 0-19.407-6.89 12.492 12.492 0 0 0-6.89-19.408a12.492 12.492 0 0 0-12.519-12.519zm0 1.294A11.2 11.2 0 0 1-8.183-19.408 11.2 11.2 0 0 1-19.408-8.183a11.2 11.2 0 0 1-11.225-11.225 11.2 11.2 0 0 1 11.225-11.225z" fill="url(#i)" stroke="url(#j)" stroke-width=".146" transform="translate(32 32)"/><path d="M-18.938-27.55c-.51-.02-1.02.026-1.518.148-4.95 1.218-6.688 5.628-5.19 7.247 1.222 1.32 2.346-1.207 5.78-2.033 3.435-.826 5.335 1.65 6.4.23 1.605-2.142-1.904-5.454-5.472-5.592zm5.846 7.062c-.504-.043-1.035.35-1.238.922-.233.654.014 1.397.573 1.596.56.198 1.219-.223 1.451-.877.233-.653-.014-1.395-.573-1.594a.854.854 0 0 0-.213-.047z" fill="url(#k)" stroke-width=".469" stroke-miterlimit="0" stroke-opacity=".192" transform="translate(32 32)"/><g stroke-miterlimit="0"><path d="M180.51 170.87l5.744 5.435-9.088 9.234-5.558-5.503z" fill="url(#l)" stroke-width="1.693" stroke-opacity=".192" transform="matrix(.34783 0 0 .34783 -39.836 -39.552)"/><path d="M258.257-9.374h22.38c1.012 0 1.826.815 1.826 1.827V8.935a1.823 1.823 0 0 1-1.826 1.826h-22.38a1.823 1.823 0 0 1-1.827-1.826V-7.547c0-1.012.815-1.827 1.827-1.827z" transform="matrix(.24716 .24474 -.24235 .2495 -39.836 -39.552)" fill="url(#m)" stroke-width="1.693" stroke-opacity=".192"/><path d="M29.996 25.015l1.84 1.824c.172.17.216.596.004.814l-4.09 4.209c-.17.175-.593.183-.788-.012l-1.89-1.878c2.103-1.994 3.625-3.398 4.924-4.957z" fill-opacity=".563" stroke-width="6.347"/><path d="M25.922 20.978l.757.736c-1.992 1.655-3.16 2.83-4.894 5.006l-.725-.713c-.047-.046-.07-.203-.031-.243l4.738-4.797c.04-.04.108-.035.155.01z" fill-opacity=".563" stroke-width="1.693"/></g></svg>