<svg xmlns="http://www.w3.org/2000/svg" xmlns:xlink="http://www.w3.org/1999/xlink" height="32" viewBox="0 0 32 32" width="32"><title>Template icons dark</title><defs><linearGradient id="d"><stop offset="0" stop-color="#4e98d9"/><stop offset="1" stop-color="#ce18ec"/></linearGradient><linearGradient id="c"><stop offset="0" stop-color="#3489d3"/><stop offset="1" stop-color="#dd5ff2"/></linearGradient><linearGradient id="a"><stop offset="0" stop-color="#5a9fdb"/><stop offset="1" stop-color="#e47ff5"/></linearGradient><linearGradient id="b"><stop offset="0" stop-color="#d1d6da"/><stop offset="1" stop-color="#fff"/></linearGradient><linearGradient xlink:href="#a" id="f" gradientUnits="userSpaceOnUse" gradientTransform="rotate(45 21.18 -75.047) scale(.59095)" x1="76.324" y1="-11.358" x2="40.503" y2="-11.358"/><linearGradient xlink:href="#b" id="e" gradientUnits="userSpaceOnUse" gradientTransform="matrix(.68182 0 0 .68182 -31.873 -32.855)" x1="22.978" y1="39.178" x2="22.978" y2="21.425"/></defs><path style="isolation:auto;mix-blend-mode:normal;marker:none" d="M16 0A16 16 0 0 0 0 16a16 16 0 0 0 16 16 16 16 0 0 0 16-16A16 16 0 0 0 16 0zm0 11.942A4.058 4.058 0 0 1 20.058 16 4.058 4.058 0 0 1 16 20.058 4.058 4.058 0 0 1 11.942 16 4.058 4.058 0 0 1 16 11.942z" color="#000" overflow="visible" fill-opacity=".12" stroke-width=".696"/><path style="isolation:auto;mix-blend-mode:normal;marker:none" d="M-16-31c-8.284 0-15 6.716-15 15 0 8.284 6.716 15 15 15C-7.716-1-1-7.716-1-16c0-8.284-6.716-15-15-15z" color="#000" overflow="visible" fill="url(#e)" stroke-width=".341" stroke-opacity=".702" transform="translate(32 32)"/><path style="isolation:auto;mix-blend-mode:normal;marker:none" d="M1.004 15.837c0 .054-.004.108-.004.163 0 8.284 6.716 15 15 15 8.284 0 15-6.716 15-15 0-.055-.004-.108-.005-.163C30.908 24.046 24.23 30.674 16 30.674S1.092 24.046 1.004 15.837z" color="#000" overflow="visible" fill="#fafafa" stroke-width=".341" stroke-opacity=".702"/><path d="M-10.986-21.014l-2.507 2.507h6.686v-6.686l-2.507 2.507a9.453 9.453 0 0 0-13.372 0 9.389 9.389 0 0 0-2.524 4.597h2.44a7.007 7.007 0 0 1 1.756-2.925 7.09 7.09 0 0 1 10.028 0zm4.196 7.103h-2.44a7.007 7.007 0 0 1-1.756 2.925 7.09 7.09 0 0 1-10.028 0l2.507-2.507h-6.686v6.686l2.507-2.507a9.453 9.453 0 0 0 13.372 0 9.389 9.389 0 0 0 2.524-4.597z" style="marker:none" fill="url(#f)" stroke-width=".899" stroke-opacity=".073" transform="translate(32 32)"/><path style="marker:none" d="M16 6.544a9.426 9.426 0 0 0-9.21 7.367h.089a9.365 9.365 0 0 1 2.435-4.257 9.453 9.453 0 0 1 13.372 0l2.507-2.506v-.34l-2.507 2.506A9.426 9.426 0 0 0 16 6.544zm4.84 4.616l-2.333 2.333h.34l2.168-2.167c-.058-.057-.117-.111-.175-.166zm1.93 6.93a7.008 7.008 0 0 1-1.755 2.925 7.088 7.088 0 0 1-9.855.165l-.175.175a7.09 7.09 0 0 0 10.03 0 7.008 7.008 0 0 0 1.754-2.925h2.352c.03-.114.063-.227.088-.34zm-15.963.417v.34h6.345l.34-.34z" fill-opacity=".458" stroke-width=".899" stroke-opacity=".073"/></svg>