<svg xmlns:osb="http://www.openswatchbook.org/uri/2009/osb" xmlns="http://www.w3.org/2000/svg" xmlns:xlink="http://www.w3.org/1999/xlink" height="32" viewBox="0 0 32 32" width="32"><title>Template icons dark</title><defs><linearGradient id="i" osb:paint="solid"><stop offset="0"/></linearGradient><linearGradient id="g" osb:paint="solid"><stop offset="0" stop-color="#fff" stop-opacity=".079"/></linearGradient><linearGradient id="f" osb:paint="solid"><stop offset="0" stop-color="#c0aa8a"/></linearGradient><linearGradient id="c" osb:paint="solid"><stop offset="0" stop-opacity=".079"/></linearGradient><linearGradient id="e"><stop offset="0" stop-color="#e5d3b9" stop-opacity=".449"/><stop offset="1" stop-color="#e5d3b9" stop-opacity=".876"/></linearGradient><linearGradient id="a"><stop offset="0" stop-color="#e5d3b9"/><stop offset="1" stop-color="#e5d3b9"/></linearGradient><linearGradient xlink:href="#b" id="k" gradientUnits="userSpaceOnUse" gradientTransform="matrix(1.01967 0 0 1.03029 -189.938 -221.797)" x1="64.666" y1="133.777" x2="88.203" y2="133.777"/><linearGradient id="b" osb:paint="solid"><stop offset="0" stop-color="#c0aa8a"/></linearGradient><linearGradient xlink:href="#c" id="j" x1="-30" y1="-16" x2="-2" y2="-16" gradientUnits="userSpaceOnUse"/><linearGradient xlink:href="#a" id="l" gradientUnits="userSpaceOnUse" gradientTransform="matrix(-1 0 0 1 -27.977 -3.97)" x1="-11.725" y1="3.969" x2="-11.725" y2="7.969"/><linearGradient id="d"><stop offset="0" stop-opacity="0"/><stop offset=".25" stop-opacity=".091"/><stop offset="1" stop-opacity="0"/></linearGradient><linearGradient id="h" osb:paint="solid"><stop offset="0" stop-color="#fff"/></linearGradient></defs><path style="marker:none" d="M-29-29c-.537 0-1 .457-1 1v24c0 .5.5 1 1 1 6.607-.017 25.5 0 26 0s1-.499 1-1v-21c0-.5-.5-1-1-1h-12l-3-3z" fill="url(#j)" paint-order="fill markers stroke" transform="translate(32 32)"/><path d="M-28-28c-.537 0-1 .457-1 1v22c0 .5.5 1 1 1 6.607-.017 23.5 0 24 0s1-.499 1-1v-19c0-.5-.5-1-1-1h-11l-3-3z" style="marker:none" fill="url(#k)" paint-order="fill markers stroke" transform="translate(32 32)"/><path style="line-height:normal;font-variant-ligatures:normal;font-variant-position:normal;font-variant-caps:normal;font-variant-numeric:normal;font-variant-alternates:normal;font-feature-settings:normal;text-indent:0;text-align:start;text-decoration-line:none;text-decoration-style:solid;text-decoration-color:#000;text-transform:none;text-orientation:mixed;shape-padding:0;isolation:auto;mix-blend-mode:normal;marker:none" d="M-15-25l-2 2h-11c-1 0-1 1-1 2 0 0 .076-.93 1-1 3.694.018 7.17-.03 11 0l3-3z" color="#000" font-weight="400" font-family="sans-serif" white-space="normal" overflow="visible" fill="url(#j)" fill-rule="evenodd" paint-order="fill markers stroke" transform="translate(32 32)"/><path style="marker:none" d="M-4-25c.537 0 1 .457 1 1v19c0 .5-.5 1-1 1-6.607-.017-23.5 0-24 0s-1-.499-1-1v-16c0-.5.5-1 1-1h11l3-3z" fill="url(#l)" paint-order="fill markers stroke" transform="translate(32 32)"/></svg>