<svg xmlns="http://www.w3.org/2000/svg" xmlns:xlink="http://www.w3.org/1999/xlink" height="32" viewBox="0 0 32 32" width="32"><title>Template icons dark</title><defs><linearGradient id="b"><stop offset="0" stop-color="#7da2db"/><stop offset=".399" stop-color="#555dbb"/><stop offset="1" stop-color="#b985b0"/></linearGradient><linearGradient id="a"><stop offset="0" stop-color="#0b1528"/><stop offset="1" stop-color="#473d49"/></linearGradient><linearGradient xlink:href="#a" id="e" gradientUnits="userSpaceOnUse" gradientTransform="matrix(1.0687 0 0 1.03163 21.039 19.372)" x1="152.009" y1="127.834" x2="152.009" y2="94.362"/><linearGradient xlink:href="#b" id="f" gradientUnits="userSpaceOnUse" gradientTransform="matrix(.94814 0 0 .88988 8.297 14.756)" x1="183" y1="155" x2="132.898" y2="114"/><linearGradient xlink:href="#a" id="c" gradientUnits="userSpaceOnUse" gradientTransform="matrix(1.0687 0 0 1.03163 21.039 19.372)" x1="152.009" y1="127.834" x2="152.009" y2="94.362"/><linearGradient xlink:href="#b" id="d" gradientUnits="userSpaceOnUse" gradientTransform="matrix(.94814 0 0 .88988 8.297 14.756)" x1="183" y1="155" x2="132.898" y2="114"/></defs><g transform="translate(32 32)"><rect style="isolation:auto;mix-blend-mode:normal;marker:none" width="32" height="5.565" x="-32" y="-18.825" ry="0" color="#000" overflow="visible" fill-opacity=".157" stroke-width=".402"/><g transform="matrix(.34782 0 0 .34782 -71.652 -54.609)"><rect ry="0" y="113.875" x="114" height="40.25" width="92" style="marker:none" fill="url(#c)" stroke-width=".968" stroke-opacity=".471"/><rect style="marker:none" width="89.125" height="37.375" x="115.437" y="115.312" ry="0" fill="none" stroke="url(#d)" stroke-width="2.875"/><rect ry="0" y="139.75" x="142.75" height="5.75" width="20.125" style="isolation:auto;mix-blend-mode:normal;marker:none" color="#000" overflow="visible" fill="#d8e6ff" stroke-width="1.16" stroke-opacity=".272"/><path style="line-height:10;-inkscape-font-specification:'Ubuntu Mono';isolation:auto;mix-blend-mode:normal;marker:none" d="M128.697 138.908q1.047 0 1.745-.143.727-.172 1.134-.458.407-.315.581-.716.175-.429.175-.915 0-.716-.349-1.202-.349-.515-.96-.887-.581-.401-1.337-.687-.756-.315-1.57-.601-.786-.286-1.571-.63-.756-.343-1.367-.83-.581-.515-.96-1.202-.378-.715-.378-1.745 0-1.832 1.106-2.977 1.105-1.145 3.198-1.46v-2.947h2.152v2.862q1.164.057 2.123.286.989.2 1.57.43l-.494 2.003q-.61-.23-1.541-.458-.93-.258-2.356-.258-1.57 0-2.413.572-.815.573-.815 1.66 0 .601.233 1.002.262.4.727.715.465.315 1.076.573.64.257 1.425.544.989.372 1.92.8.93.402 1.628.974.698.572 1.105 1.374.436.8.436 1.917 0 1.688-1.134 2.862-1.134 1.173-3.49 1.46v3.29h-2.152v-3.205q-1.832-.057-2.966-.4-1.134-.344-1.686-.659l.64-1.974q.784.372 1.86.715 1.076.315 2.705.315z" color="#000" font-weight="400" font-size="28.848" font-family="Ubuntu Mono" letter-spacing="0" word-spacing="0" fill="#fff" fill-opacity=".984" stroke-width="1.118" stroke-opacity=".272"/></g><g transform="matrix(.34782 0 0 .34782 -71.652 -70.609)"><rect style="marker:none" width="92" height="40.25" x="114" y="113.875" ry="0" fill="url(#e)" stroke-width=".968" stroke-opacity=".471"/><rect ry="0" y="115.312" x="115.437" height="37.375" width="89.125" style="marker:none" fill="none" stroke="url(#f)" stroke-width="2.875"/><rect style="isolation:auto;mix-blend-mode:normal;marker:none" width="20.125" height="5.75" x="142.75" y="139.75" ry="0" color="#000" overflow="visible" fill="#d8e6ff" stroke-width="1.16" stroke-opacity=".272"/><path d="M128.697 138.908q1.047 0 1.745-.143.727-.172 1.134-.458.407-.315.581-.716.175-.429.175-.915 0-.716-.349-1.202-.349-.515-.96-.887-.581-.401-1.337-.687-.756-.315-1.57-.601-.786-.286-1.571-.63-.756-.343-1.367-.83-.581-.515-.96-1.202-.378-.715-.378-1.745 0-1.832 1.106-2.977 1.105-1.145 3.198-1.46v-2.947h2.152v2.862q1.164.057 2.123.286.989.2 1.57.43l-.494 2.003q-.61-.23-1.541-.458-.93-.258-2.356-.258-1.57 0-2.413.572-.815.573-.815 1.66 0 .601.233 1.002.262.4.727.715.465.315 1.076.573.64.257 1.425.544.989.372 1.92.8.93.402 1.628.974.698.572 1.105 1.374.436.8.436 1.917 0 1.688-1.134 2.862-1.134 1.173-3.49 1.46v3.29h-2.152v-3.205q-1.832-.057-2.966-.4-1.134-.344-1.686-.659l.64-1.974q.784.372 1.86.715 1.076.315 2.705.315z" style="line-height:10;-inkscape-font-specification:'Ubuntu Mono';isolation:auto;mix-blend-mode:normal;marker:none" color="#000" font-weight="400" font-size="28.848" font-family="Ubuntu Mono" letter-spacing="0" word-spacing="0" fill="#fff" fill-opacity=".984" stroke-width="1.118" stroke-opacity=".272"/></g></g></svg>