<svg xmlns="http://www.w3.org/2000/svg" xmlns:xlink="http://www.w3.org/1999/xlink" height="32" viewBox="0 0 32 32" width="32"><title>Template icons dark</title><defs><linearGradient id="d"><stop offset="0" stop-color="#e7747f"/><stop offset=".151" stop-color="#8c2f37"/><stop offset=".491" stop-color="#882d2d"/><stop offset=".873" stop-color="#cf5763"/><stop offset="1" stop-color="#f83044"/></linearGradient><linearGradient id="g"><stop offset="0" stop-color="#fff" stop-opacity=".115"/><stop offset=".555" stop-color="#fff" stop-opacity=".681"/><stop offset="1" stop-color="#fff" stop-opacity="0"/></linearGradient><linearGradient id="h"><stop offset="0" stop-color="#fff" stop-opacity=".073"/><stop offset=".555" stop-color="#fff" stop-opacity=".681"/><stop offset="1" stop-color="#fff" stop-opacity=".068"/></linearGradient><linearGradient id="f"><stop offset="0" stop-color="#463f54"/><stop offset=".192" stop-color="#413a4f"/><stop offset=".345" stop-color="#615876"/><stop offset=".499" stop-color="#3e384c"/><stop offset="1" stop-color="#343142"/></linearGradient><linearGradient id="e"><stop offset="0" stop-color="#b3b3b3"/><stop offset=".246" stop-color="#828282"/><stop offset=".543" stop-color="silver"/><stop offset=".824" stop-color="#fff"/><stop offset="1" stop-color="#8e8e8e"/></linearGradient><linearGradient id="c"><stop offset="0" stop-color="#fafafa"/><stop offset=".178" stop-color="#efe1f2"/><stop offset=".226" stop-color="#d5d6d8"/><stop offset=".705" stop-color="#7d8089"/><stop offset=".745" stop-color="#a6d6c0"/><stop offset=".796" stop-color="#657060"/><stop offset=".871" stop-color="#b3b2b7"/><stop offset=".961" stop-color="#fff"/><stop offset="1" stop-color="#cbcace"/></linearGradient><linearGradient id="b"><stop offset="0" stop-color="#4d4e55"/><stop offset="1" stop-color="#717171"/></linearGradient><linearGradient id="a"><stop offset="0" stop-color="#c2bac6"/><stop offset="1" stop-color="#fff"/></linearGradient><linearGradient xlink:href="#c" id="p" x1="159.898" y1="180" x2="159.898" y2="124" gradientUnits="userSpaceOnUse" gradientTransform="matrix(.39673 0 0 .39673 -79.485 -80.327)"/><linearGradient xlink:href="#d" id="o" x1="161" y1="133.852" x2="161" y2="126" gradientUnits="userSpaceOnUse" gradientTransform="matrix(.39673 0 0 .39673 -79.485 -80.327)"/><linearGradient xlink:href="#f" id="n" x1="160.063" y1="188" x2="160.063" y2="161.929" gradientUnits="userSpaceOnUse" gradientTransform="matrix(.33333 0 0 .33333 -69.295 -71.59)"/><linearGradient xlink:href="#e" id="m" x1="161" y1="132.669" x2="161" y2="126.984" gradientUnits="userSpaceOnUse" gradientTransform="matrix(.39673 0 0 .39673 -79.485 -80.327)"/><linearGradient xlink:href="#a" id="l" x1="160.063" y1="194.079" x2="160.063" y2="148.724" gradientUnits="userSpaceOnUse" gradientTransform="matrix(.39673 0 0 .39673 -79.485 -81.12)"/><linearGradient gradientTransform="matrix(.33333 0 0 .33333 -69.295 -69.924)" xlink:href="#g" id="k" x1="131" y1="202.811" x2="116.008" y2="189" gradientUnits="userSpaceOnUse"/><linearGradient gradientTransform="matrix(.33333 0 0 .33333 -69.295 -69.924)" xlink:href="#h" id="j" gradientUnits="userSpaceOnUse" x1="204.717" y1="191" x2="190" y2="204"/><linearGradient xlink:href="#b" id="i" gradientUnits="userSpaceOnUse" x1="160.063" y1="194.079" x2="160.063" y2="148.724" gradientTransform="translate(-83.873 -84.138) scale(.42412)"/></defs><path style="isolation:auto;mix-blend-mode:normal;marker:none" d="M7.354 9.125h17.4c1.315 0 2.016 1.12 2.374 2.396l4.613 16.476c.499 1.783-1.506 3.419-3.37 3.413l-24.64-.073c-1.864-.005-3.864-1.557-3.364-3.34L4.98 11.521c.357-1.277 1.059-2.396 2.374-2.396z" color="#000" display="block" overflow="visible" fill-opacity=".131" stroke-width=".212" stroke-opacity="0"/><path d="M-24.723-22.875H-7.17c1.327 0 2.075 1.108 2.395 2.396l4.03 16.183c.437 1.752-1.41 3.373-3.217 3.373h-24c-1.805 0-3.622-1.62-3.186-3.373l4.03-16.183c.32-1.288 1.068-2.396 2.395-2.396z" style="isolation:auto;mix-blend-mode:normal;marker:none" color="#000" overflow="visible" fill="url(#i)" stroke-width=".212" stroke-opacity="0" transform="translate(32 32)"/><path d="M-24.723-22.875H-7.17c1.327 0 2.062 1.111 2.395 2.396l4.03 15.516C-.29-3.215-2.155-1.59-3.962-1.59h-24c-1.805 0-3.64-1.625-3.186-3.373l4.03-15.516c.334-1.285 1.068-2.396 2.395-2.396z" style="isolation:auto;mix-blend-mode:normal;marker:none" color="#000" display="block" overflow="visible" fill="url(#j)" stroke-width=".212" stroke-opacity="0" transform="translate(32 32)"/><path style="isolation:auto;mix-blend-mode:normal;marker:none" d="M-24.723-22.875H-7.17c1.327 0 2.06 1.112 2.395 2.396L-.628-4.59c.456 1.747-1.528 3-3.334 3h-24c-1.805 0-3.64-1.625-3.186-3.373l4.03-15.516c.334-1.285 1.068-2.396 2.395-2.396z" color="#000" display="block" overflow="visible" fill="url(#k)" stroke-width=".212" stroke-opacity="0" transform="translate(32 32)"/><path style="isolation:auto;mix-blend-mode:normal;marker:none" d="M-23.962-23.257h16c1.242 0 2.154 1.105 2.466 2.307l3.77 14.514c.424 1.635-1.36 3.05-3.05 3.05h-22.341c-1.69 0-3.474-1.415-3.049-3.05l3.77-14.514c.312-1.202 1.193-2.307 2.434-2.307z" color="#000" display="block" overflow="visible" fill="url(#l)" stroke-width=".198" stroke-opacity="0" transform="translate(32 32)"/><path style="isolation:auto;mix-blend-mode:normal;marker:none" d="M-25.295-29.923h18.667c.666 0 .666 2.333 0 2.333h-18.667c-.667 0-.667-2.333 0-2.333z" color="#000" display="block" overflow="visible" fill="url(#m)" stroke-width=".134" stroke-opacity="0" transform="translate(32 32)"/><path d="M-11.628-16.257h-1.667l1.333 4.667h3.927l-7.906 4.693-7.874-4.693h3.853l1.334-4.667h-1.667l4.333-2z" style="isolation:auto;mix-blend-mode:normal;marker:none" color="#000" display="block" overflow="visible" fill="url(#n)" stroke-width=".07" stroke-opacity="0" transform="translate(32 32)"/><path d="M20.372 15.743h.666l-2.333-1.333.346.724z" fill="#a89cac" fill-opacity=".974" fill-rule="evenodd" stroke-width=".333"/><path style="isolation:auto;mix-blend-mode:normal;marker:none" d="M-21.628-30.257l11.007.005c.66 0 2.349.018 2.66.328.337.338.307 2.026 0 2.334-.323.322-2 .333-2.667.333h-11c-.667 0-2 0-2.334-.333-.333-.333-.333-2 0-2.334.311-.31 1.667-.333 2.334-.333z" color="#000" display="block" overflow="visible" fill="url(#o)" stroke-width=".134" stroke-opacity="0" transform="translate(32 32)"/><path d="M11.705 15.743h-.667l2.334-1.333-.346.724z" fill="#a89cac" fill-opacity=".974" fill-rule="evenodd" stroke-width=".333"/><path style="isolation:auto;mix-blend-mode:normal;marker:none" d="M-19.628-31.257c-.39 0-1.142.52-1.142 1.314v2.777c0 1.04 1.587 1.262 1.587 2.243l.221 12h6l.127-12c.01-.981 1.587-1.203 1.587-2.243v-2.777c0-.793-.65-1.314-1.047-1.314z" color="#000" display="block" overflow="visible" fill="url(#p)" stroke-width=".131" stroke-opacity="0" transform="translate(32 32)"/><path style="isolation:auto;mix-blend-mode:normal;marker:none" d="M1.805 25.726c-.27 1.565 1.283 3.017 2.916 3.017h22.317c1.633 0 3.534-1.452 3.264-3.017-.228 1.256-1.87 2.35-3.264 2.35H4.721c-1.395 0-2.688-1.094-2.916-2.35z" color="#000" display="block" overflow="visible" fill="#fefdff" stroke-width=".198" stroke-opacity="0"/><path d="M12.705 17.743l-.291 1.334-.376 1.333H8.185c.04 0 1.133.675 1.133.675l2.72-.008zm6.504 0l.83 3.334 2.796.004s1.09-.671 1.13-.671h-3.927l-.375-1.333z" fill="#bab1bd" fill-opacity=".974" fill-rule="evenodd" stroke-width=".333"/><path style="line-height:1000%;-inkscape-font-specification:'Serto Kharput'" d="M14 9h4v1h-1.401v2.5h-1.136V10H14z" font-weight="400" font-family="Serto Kharput" letter-spacing="0" word-spacing="0" fill="#282828" stroke-width=".5"/></svg>