<svg xmlns="http://www.w3.org/2000/svg" xmlns:xlink="http://www.w3.org/1999/xlink" height="32" viewBox="0 0 32 32" width="32"><title>Template icons dark</title><defs><linearGradient id="c"><stop offset="0" stop-color="#fff" stop-opacity="0"/><stop offset=".457" stop-color="#fff"/><stop offset="1" stop-color="#fff" stop-opacity="0"/></linearGradient><linearGradient id="d"><stop offset="0" stop-color="#fff" stop-opacity=".549"/><stop offset="1" stop-color="#fff" stop-opacity="0"/></linearGradient><linearGradient id="a"><stop offset="0" stop-color="#344961"/><stop offset="1" stop-color="#2d9580"/></linearGradient><linearGradient id="b"><stop offset="0" stop-color="#eff0c8" stop-opacity=".396"/><stop offset=".16" stop-color="#71cbd7" stop-opacity=".02"/><stop offset=".8" stop-color="#91dfcb" stop-opacity=".275"/><stop offset="1" stop-color="#6beed0" stop-opacity=".627"/></linearGradient><linearGradient xlink:href="#a" id="e" x1="36.516" y1="40.131" x2="9.579" y2="9.429" gradientUnits="userSpaceOnUse" gradientTransform="matrix(.74914 0 0 .73854 -34.035 -33.764)"/><linearGradient xlink:href="#b" id="f" gradientUnits="userSpaceOnUse" gradientTransform="matrix(.85099 0 0 .8556 -36.264 -35.93)" x1="22.144" y1="41.149" x2="22.144" y2="5.178"/></defs><path style="isolation:auto;mix-blend-mode:normal;marker:none" d="M4 1h24c1.997 0 4 2.003 4 4v22c0 2.663-2.523 4-4 4H4c-1.99 0-4-2.003-4-4V5c0-2 1.365-4 4-4z" color="#000" overflow="visible" fill-opacity=".148" stroke-width=".222" stroke-opacity=".471"/><path style="isolation:auto;mix-blend-mode:normal;marker:none" d="M-28-30h24c1.487 0 3 2.513 3 4v21c0 1.487-1.513 3-3 3h-24c-1.488 0-3-1.662-3-3.15v-21.186C-31-27.823-29.488-30-28-30z" color="#000" overflow="visible" fill="url(#e)" stroke-width=".222" stroke-opacity=".471" transform="translate(32 32)"/><path d="M14.674 6.187a.355.355 0 0 0-.352.327l-.957 12.107-.076-.216a.355.355 0 0 0-.335-.236h-2.413c-.188-.289-.372-.56-.571-.737-.246-.22-.532-.362-.838-.357-.306.005-.585.154-.825.374-.193.177-.37.441-.552.72H2.422c-.473 0-.473.71 0 .71h5.505c.124 0 .24-.065.304-.172.206-.341.396-.589.556-.735.16-.147.27-.186.356-.188.086-.001.193.032.354.177.162.144.357.393.57.746.064.107.18.172.304.172h2.334l.55 1.544c.128.36.657.29.687-.091l.726-9.185.877 11.615c.03.397.592.45.696.065l1.062-3.948h2.491c.16 0 .299-.106.342-.26.466-1.668 1.34-2.377 2.104-2.378.764 0 1.637.706 2.104 2.378.043.154.182.26.342.26H26.9a1.03 1.03 0 1 0 .016-.71h-1.99c-.545-1.67-1.56-2.638-2.687-2.637-1.128 0-2.14.97-2.684 2.637H17.03c-.16 0-.3.108-.342.263l-.593 2.204-1.066-14.12a.355.355 0 0 0-.356-.329z" style="line-height:normal;font-variant-ligatures:normal;font-variant-position:normal;font-variant-caps:normal;font-variant-numeric:normal;font-variant-alternates:normal;font-feature-settings:normal;text-indent:0;text-align:start;text-decoration-line:none;text-decoration-style:solid;text-decoration-color:#000;text-transform:none;text-orientation:mixed;shape-padding:0;isolation:auto;mix-blend-mode:normal" color="#000" font-weight="400" font-family="sans-serif" white-space="normal" overflow="visible" fill="none" stroke="#fff" stroke-width="2.052" stroke-linecap="round" stroke-linejoin="round" stroke-opacity=".17"/><path style="line-height:normal;font-variant-ligatures:normal;font-variant-position:normal;font-variant-caps:normal;font-variant-numeric:normal;font-variant-alternates:normal;font-feature-settings:normal;text-indent:0;text-align:start;text-decoration-line:none;text-decoration-style:solid;text-decoration-color:#000;text-transform:none;text-orientation:mixed;shape-padding:0;isolation:auto;mix-blend-mode:normal" d="M14.674 6.187a.355.355 0 0 0-.352.327l-.957 12.107-.076-.216a.355.355 0 0 0-.335-.236h-2.413c-.188-.289-.372-.56-.571-.737-.246-.22-.532-.362-.838-.357-.306.005-.585.154-.825.374-.193.177-.37.441-.552.72H2.422c-.473 0-.473.71 0 .71h5.505c.124 0 .24-.065.304-.172.206-.341.396-.589.556-.735.16-.147.27-.186.356-.188.086-.001.193.032.354.177.162.144.357.393.57.746.064.107.18.172.304.172h2.334l.55 1.544c.128.36.657.29.687-.091l.726-9.185.877 11.615c.03.397.592.45.696.065l1.062-3.948h2.491c.16 0 .299-.106.342-.26.466-1.668 1.34-2.377 2.104-2.378.764 0 1.637.706 2.104 2.378.043.154.182.26.342.26H26.9a1.03 1.03 0 1 0 .016-.71h-1.99c-.545-1.67-1.56-2.638-2.687-2.637-1.128 0-2.14.97-2.684 2.637H17.03c-.16 0-.3.108-.342.263l-.593 2.204-1.066-14.12a.355.355 0 0 0-.356-.329z" color="#000" font-weight="400" font-family="sans-serif" white-space="normal" overflow="visible" fill="#fcfffe" stroke-width=".709" stroke-linecap="round" stroke-linejoin="round"/><path d="M4 30c-1.488 0-3-1.662-3-3.15v-.335C1 28.002 2.512 29 4 29h24c1.487 0 3-.848 3-2.336V27c0 1.487-1.513 3-3 3z" style="isolation:auto;mix-blend-mode:normal;marker:none" color="#000" overflow="visible" fill="#fff" fill-opacity=".401" stroke-width=".222" stroke-opacity=".471"/><path style="isolation:auto;mix-blend-mode:normal;marker:none" d="M-28-30h24c1.487 0 3 2.513 3 4v21c0 1.487-1.513 3-3 3h-24c-1.488 0-3-1.662-3-3.15v-21.186C-31-27.823-29.488-30-28-30z" color="#000" overflow="visible" fill="url(#f)" stroke-width=".403" transform="translate(32 32)"/><path d="M4 2h24c1.487 0 3 2.513 3 4v21c0 1.487-1.513 3-3 3H4c-1.488 0-3-1.662-3-3.15V5.664C1 4.177 2.512 2 4 2z" style="isolation:auto;mix-blend-mode:normal;marker:none" color="#000" overflow="visible" fill="none" stroke-width=".403"/><path style="isolation:auto;mix-blend-mode:normal;marker:none" d="M4 2C2.512 2 1 4.177 1 5.664V6c0-1.487 1.512-3 3-3h24c1.487 0 3 1.848 3 3.336V6c0-1.487-1.513-4-3-4z" color="#000" overflow="visible" fill="#fff" fill-opacity=".566" stroke-width=".222" stroke-opacity=".471"/><g fill="#fff" fill-opacity=".577"><path opacity=".2" stroke-width=".945" d="M4 3.173V29H3V3.173z"/><path opacity=".2" stroke-width=".952" d="M7 2v28.118H6V2zM11 2v28.118h-1V2zM14 2v28.118h-1V2zM16 2v28.118h-1V2zM19 2v28.118h-1V2zM22 2v28.118h-1V2zM25 2v28.118h-1V2z"/><path opacity=".2" stroke-width=".937" d="M29 3v26h-1.006V3z"/><path opacity=".2" d="M31 7H1V6h30zM31 10H1V9h30zM30.969 13H1v-1H30.97zM31 16H1v-1h30zM31 19H1v-1h30zM31 22H1v-1h30zM31 25H1v-1h30z"/><path opacity=".2" stroke-width=".969" d="M30 27.983H1.85V27H30z"/></g></svg>