<svg xmlns="http://www.w3.org/2000/svg" xmlns:xlink="http://www.w3.org/1999/xlink" height="32" viewBox="0 0 32 32" width="32"><title>Template icons dark</title><defs><linearGradient id="d"><stop offset="0" stop-color="#fff" stop-opacity=".802"/><stop offset=".502" stop-color="#fff" stop-opacity=".945"/><stop offset="1" stop-color="#fff" stop-opacity=".692"/></linearGradient><linearGradient id="c"><stop offset="0" stop-color="#fff" stop-opacity=".632"/><stop offset=".448" stop-color="#fff" stop-opacity=".94"/><stop offset="1" stop-color="#fff" stop-opacity=".61"/></linearGradient><linearGradient id="b"><stop offset="0" stop-color="#d1d1d1"/><stop offset="1" stop-color="#fff" stop-opacity=".989"/></linearGradient><linearGradient id="a"><stop offset="0" stop-color="#0086f7"/><stop offset="1" stop-color="#60cdff"/></linearGradient><linearGradient xlink:href="#a" id="e" gradientUnits="userSpaceOnUse" gradientTransform="matrix(2.2 0 0 2.2 -68.8 -75.84)" x1="25" y1="45.7" x2="25" y2="8.075"/><linearGradient gradientTransform="matrix(.3409 0 0 .3409 -70.545 -70.545)" xlink:href="#b" id="f" x1="157.89" y1="194.158" x2="157.89" y2="132" gradientUnits="userSpaceOnUse"/><linearGradient gradientTransform="matrix(.3409 0 0 .3409 -70.545 -70.545)" xlink:href="#d" id="g" x1="173.291" y1="203.528" x2="136" y2="117.102" gradientUnits="userSpaceOnUse"/></defs><path d="M4.219 0H27.78A4.21 4.21 0 0 1 32 4.219V27.78A4.21 4.21 0 0 1 27.781 32H4.22A4.21 4.21 0 0 1 0 27.781V4.22A4.21 4.21 0 0 1 4.219 0z" fill-opacity=".078" stroke-width="1.845" stroke-linejoin="round" stroke-opacity=".131"/><path d="M-26.875-31h21.75A4.116 4.116 0 0 1-1-26.875v21.75A4.116 4.116 0 0 1-5.125-1h-21.75A4.116 4.116 0 0 1-31-5.125v-21.75A4.116 4.116 0 0 1-26.875-31z" fill="url(#e)" stroke-width="1.804" stroke-linejoin="round" stroke-opacity=".131" transform="translate(32 32)"/><path d="M2.471 15.16h4.894L10.243 26.1l4.03-15.832 3.454 11.226 3.166-11.226 3.167 11.226h5.469" fill="none" fill-rule="evenodd" stroke="#000" stroke-width="1.957" stroke-opacity=".275"/><path d="M-29.529-19.166h4.894l2.878 10.938 4.03-15.832 3.454 11.226 3.166-11.226 3.167 11.226h5.469" fill="none" fill-rule="evenodd" stroke="url(#f)" stroke-width="2" transform="translate(32 32)"/><path style="line-height:normal;font-variant-ligatures:normal;font-variant-position:normal;font-variant-caps:normal;font-variant-numeric:normal;font-variant-alternates:normal;font-feature-settings:normal;text-indent:0;text-align:start;text-decoration-line:none;text-decoration-style:solid;text-decoration-color:#000;text-transform:none;text-orientation:mixed;shape-padding:0;isolation:auto;mix-blend-mode:normal" d="M-27.391-31C-28.958-31-31-28.755-31-27.391V-4.61C-31-3.304-28.833-1-27.391-1H-4.61C-3.245-1-1-3.15-1-4.668v-22.664C-1-29.096-3.443-31-4.668-31zm0 .652H-4.61c1.305 0 2.957 1.652 2.957 2.957V-4.61c0 1.305-1.68 2.957-2.957 2.957h-23.434c-.653 0-2.305-1.652-2.305-2.305V-27.39c0-1.305 1.652-2.957 2.957-2.957z" color="#000" font-weight="400" font-family="sans-serif" white-space="normal" overflow="visible" opacity=".315" fill="url(#g)" stroke-width=".672" stroke-linejoin="round" transform="translate(32 32)"/></svg>