<svg xmlns="http://www.w3.org/2000/svg" xmlns:xlink="http://www.w3.org/1999/xlink" height="32" viewBox="0 0 32 32" width="32"><title>Template icons dark</title><defs><linearGradient id="d"><stop offset="0" stop-color="#1cdbff" stop-opacity=".143"/><stop offset="1" stop-color="#c34c74" stop-opacity="0"/></linearGradient><linearGradient id="c"><stop offset="0" stop-color="#d663eb" stop-opacity=".423"/><stop offset="1" stop-color="#c34c74" stop-opacity="0"/></linearGradient><linearGradient id="g"><stop offset="0" stop-color="#97176b"/><stop offset="1" stop-color="#69104b"/></linearGradient><linearGradient id="b"><stop offset="0" stop-color="#8ab0c4"/><stop offset="1" stop-color="#fcf6f8"/></linearGradient><linearGradient id="a"><stop offset="0" stop-color="#d8eaf3"/><stop offset="1" stop-color="#fff" stop-opacity=".945"/></linearGradient><linearGradient id="e"><stop offset="0" stop-color="#eeeeec"/><stop offset="1" stop-color="#d3d7cf"/></linearGradient><linearGradient id="f"><stop offset="0" stop-color="#2e3436"/><stop offset="1"/></linearGradient><linearGradient xlink:href="#b" id="h" x1="160" y1="196" x2="160" y2="110.592" gradientUnits="userSpaceOnUse" gradientTransform="matrix(.3026 0 0 .3026 -64.755 -64.755)"/><linearGradient xlink:href="#c" id="i" gradientUnits="userSpaceOnUse" gradientTransform="matrix(.3026 0 0 .3026 -64.755 -64.755)" x1="191.501" y1="140.476" x2="137.499" y2="161.382"/><linearGradient xlink:href="#f" id="k" gradientUnits="userSpaceOnUse" gradientTransform="scale(1.94673) rotate(30 -52.286 194.21)" x1="9.697" y1="24.661" x2="33.232" y2="24.661"/><linearGradient xlink:href="#f" id="l" gradientUnits="userSpaceOnUse" gradientTransform="scale(1.94673) rotate(30 -52.286 194.21)" x1="19.5" y1="28.5" x2="23.5" y2="28.5"/><linearGradient xlink:href="#e" id="m" gradientUnits="userSpaceOnUse" gradientTransform="scale(1.94673) rotate(30 -52.286 194.21)" x1="20" y1="12" x2="23" y2="12"/><radialGradient xlink:href="#g" id="j" gradientUnits="userSpaceOnUse" gradientTransform="matrix(.95209 .06625 -.03316 .47649 -166.49 -100.531)" cx="168.187" cy="156.788" fx="168.187" fy="156.788" r="29.345"/></defs><g transform="translate(32 32)"><circle style="isolation:auto;mix-blend-mode:normal;marker:none" cx="-16.34" cy="-16.34" r="15.66" color="#000" overflow="visible" fill-opacity=".121" stroke-width=".345" stroke-opacity=".995"/><circle r="15.319" cy="-16.34" cx="-16.34" style="isolation:auto;mix-blend-mode:normal;marker:none" color="#000" display="block" overflow="visible" fill="url(#h)" stroke-width=".259" stroke-opacity=".995"/><circle style="isolation:auto;mix-blend-mode:normal;marker:none" cx="-16.34" cy="-16.34" r="15.319" color="#000" display="block" overflow="visible" fill="url(#i)" stroke-width=".259" stroke-opacity=".995"/><path d="M-14.825-19.229c-8.595 3.493-12.403 4.608-15.798 7.18 2.191 6.045 7.427 10.43 13.672 10.606C-7.778-1.869-1.78-7.98-1.624-16.345a14.825 14.825 0 0 0-1.92-7.28c.01.022.024.043.033.066-9.727 4.664-8.494 4.299-11.314 4.33z" style="isolation:auto;mix-blend-mode:normal;marker:none" color="#000" overflow="visible" fill="url(#j)" stroke-width=".317" stroke-opacity=".995"/><path d="M-13.039-19.31c-.978 1.694-11.808 13.34-17.478 7.457-4.574-11.41 14.414-7.412 17.478-7.457z" style="isolation:auto;mix-blend-mode:normal;marker:none" color="#000" display="block" overflow="visible" fill="#b14abf" stroke-width=".46" stroke-opacity=".995"/><path style="isolation:auto;mix-blend-mode:normal;marker:none" d="M-13.138-19.174c.644-1.124 8.524-9.552 9.891-3.934-.111 5.968-8.26 4.292-9.891 3.934z" color="#000" display="block" overflow="visible" fill="#ef53b7" stroke-width=".328" stroke-opacity=".995"/><path style="isolation:auto;mix-blend-mode:normal;marker:none" d="M-20.222-9.134c-.22.22-3.623-2.118-3.93-2.07-.307.049-2.821 3.324-3.098 3.183-.277-.141.895-4.1.753-4.377-.14-.277-4.032-1.657-3.984-1.964.049-.307 4.176-.416 4.396-.636.22-.22.329-4.347.636-4.395.307-.05 1.686 3.843 1.963 3.984.277.14 4.236-1.03 4.377-.754.142.277-3.134 2.791-3.182 3.098-.049.308 2.29 3.71 2.07 3.93z" color="#000" display="block" overflow="visible" fill-opacity=".302" stroke-width=".37"/><path d="M-20.222-10.16c-.22.22-3.623-2.118-3.93-2.07-.307.049-2.821 3.324-3.098 3.183-.277-.141.895-4.1.753-4.378-.14-.277-4.032-1.656-3.984-1.963.049-.307 4.176-.416 4.396-.636.22-.22.329-4.347.636-4.396.307-.048 1.686 3.844 1.963 3.985.277.14 4.236-1.03 4.377-.754.142.277-3.134 2.791-3.182 3.098-.049.307 2.29 3.71 2.07 3.93z" style="isolation:auto;mix-blend-mode:normal;marker:none" color="#000" display="block" overflow="visible" fill="#fefefe" stroke-width=".37"/><path d="M-12.114-20.22c-.159.158-2.615-1.53-2.837-1.494-.222.035-2.037 2.399-2.237 2.297-.2-.102.646-2.96.544-3.16-.101-.2-2.91-1.195-2.876-1.417.036-.221 3.015-.3 3.174-.459.158-.159.237-3.138.459-3.173.221-.035 1.217 2.774 1.417 2.876.2.102 3.057-.744 3.16-.544.101.2-2.263 2.015-2.298 2.236-.035.222 1.652 2.679 1.494 2.837z" style="isolation:auto;mix-blend-mode:normal;marker:none" color="#000" display="block" overflow="visible" fill-opacity=".302" stroke-width=".267"/><path style="isolation:auto;mix-blend-mode:normal;marker:none" d="M-12.114-21.096c-.159.158-2.615-1.53-2.837-1.494-.222.035-2.037 2.4-2.237 2.297-.2-.102.646-2.96.544-3.16-.101-.2-2.91-1.195-2.876-1.416.036-.222 3.015-.3 3.174-.46.158-.158.237-3.137.459-3.173.221-.035 1.217 2.774 1.417 2.876.2.102 3.057-.744 3.16-.544.101.2-2.263 2.015-2.298 2.237-.035.222 1.652 2.678 1.494 2.837z" color="#000" display="block" overflow="visible" fill="#fefefe" stroke-width=".267"/><g transform="translate(-80.68 -76.188) scale(.38216)" stroke-width="1.947"><path d="M202.923 129.8l-36.988 64.065c-.538.93.536 2.557 2.398 3.632 1.863 1.075 3.808 1.192 4.346.261l36.988-64.065z" fill="url(#k)" stroke="url(#l)" stroke-linejoin="round"/><path d="M202.923 129.8l-9.734 16.859c-.537.93.536 2.557 2.399 3.632 1.862 1.076 3.807 1.192 4.345.261l9.734-16.859z" fill="url(#m)" stroke="#babdb6" stroke-linejoin="round"/><ellipse transform="rotate(30)" cx="244.53" cy="10.948" rx="3.893" ry="1.947" fill="#d3d7cf" stroke="#babdb6"/></g></g></svg>