<svg xmlns="http://www.w3.org/2000/svg" xmlns:xlink="http://www.w3.org/1999/xlink" height="32" viewBox="0 0 32 32" width="32"><title>Template icons dark</title><defs><linearGradient id="e"><stop offset="0" stop-color="#1cdbff" stop-opacity=".143"/><stop offset="1" stop-color="#c34c74" stop-opacity="0"/></linearGradient><linearGradient id="d"><stop offset="0" stop-color="#d663eb" stop-opacity=".423"/><stop offset="1" stop-color="#c34c74" stop-opacity="0"/></linearGradient><linearGradient id="f"><stop offset="0" stop-color="#97176b"/><stop offset="1" stop-color="#69104b"/></linearGradient><linearGradient id="b"><stop offset="0" stop-color="#8ab0c4"/><stop offset="1" stop-color="#fcf6f8"/></linearGradient><linearGradient id="a"><stop offset="0" stop-color="#d8eaf3"/><stop offset="1" stop-color="#fff" stop-opacity=".945"/></linearGradient><linearGradient id="c"><stop offset="0" stop-color="#30d9eb"/><stop offset="1" stop-color="#5393e4"/></linearGradient><linearGradient xlink:href="#e" id="i" gradientUnits="userSpaceOnUse" gradientTransform="translate(-65.467 -65.467) scale(.30917)" x1="115.424" y1="153.693" x2="151.567" y2="164.5"/><linearGradient xlink:href="#d" id="h" gradientUnits="userSpaceOnUse" gradientTransform="translate(-65.467 -65.467) scale(.30917)" x1="191.501" y1="140.476" x2="137.499" y2="161.382"/><linearGradient xlink:href="#b" id="g" x1="160" y1="196" x2="160" y2="110.592" gradientUnits="userSpaceOnUse" gradientTransform="translate(-65.467 -65.467) scale(.30917)"/><radialGradient xlink:href="#f" id="j" gradientUnits="userSpaceOnUse" gradientTransform="matrix(.97279 .06769 -.03388 .48685 -169.414 -102.021)" cx="168.187" cy="156.788" fx="168.187" fy="156.788" r="29.345"/></defs><g color="#000" transform="translate(32 32)"><circle style="isolation:auto;mix-blend-mode:normal;marker:none" cx="-16" cy="-16" r="16" overflow="visible" fill-opacity=".121" stroke-width=".352" stroke-opacity=".995"/><circle r="15.652" cy="-16" cx="-16" style="isolation:auto;mix-blend-mode:normal;marker:none" display="block" overflow="visible" fill="url(#g)" stroke-width=".265" stroke-opacity=".995"/><circle style="isolation:auto;mix-blend-mode:normal;marker:none" cx="-16" cy="-16" r="15.652" display="block" overflow="visible" fill="url(#h)" stroke-width=".265" stroke-opacity=".995"/><circle r="15.652" cy="-16" cx="-16" style="isolation:auto;mix-blend-mode:normal;marker:none" display="block" overflow="visible" fill="url(#i)" stroke-width=".265" stroke-opacity=".995"/><path d="M-14.452-18.951c-8.781 3.569-12.672 4.708-16.14 7.336C-28.355-5.44-23.005-.96-16.625-.778c9.373-.436 15.5-6.681 15.66-15.227a15.147 15.147 0 0 0-1.962-7.439c.01.024.025.045.035.068-9.94 4.766-8.68 4.393-11.56 4.425z" style="isolation:auto;mix-blend-mode:normal;marker:none" overflow="visible" fill="url(#j)" stroke-width=".324" stroke-opacity=".995"/><path d="M-12.627-19.034c-.999 1.73-12.064 13.63-17.857 7.619-4.674-11.658 14.726-7.573 17.857-7.62z" style="isolation:auto;mix-blend-mode:normal;marker:none" display="block" overflow="visible" fill="#b14abf" stroke-width=".47" stroke-opacity=".995"/><path style="isolation:auto;mix-blend-mode:normal;marker:none" d="M-12.728-18.895c.658-1.149 8.71-9.76 10.107-4.02-.114 6.098-8.44 4.386-10.107 4.02z" display="block" overflow="visible" fill="#ef53b7" stroke-width=".335" stroke-opacity=".995"/><ellipse style="isolation:auto;mix-blend-mode:normal;marker:none" cx="-1.959" cy="-35.675" rx="5.721" ry="1.621" transform="rotate(-40.62)" display="block" overflow="visible" fill="#fff" fill-opacity=".286" stroke-width=".25"/><ellipse transform="rotate(25.023)" ry=".629" rx="2.221" cy="-21.508" cx="-20.634" style="isolation:auto;mix-blend-mode:normal;marker:none" display="block" overflow="visible" fill="#fff" fill-opacity=".159" stroke-width=".097"/><ellipse transform="rotate(-40.62)" ry="1.751" rx="6.178" cy="-9.544" cx="-2.11" style="isolation:auto;mix-blend-mode:normal;marker:none" display="block" overflow="visible" fill="#fff" fill-opacity=".066" stroke-width=".27"/></g></svg>