<svg xmlns="http://www.w3.org/2000/svg" xmlns:xlink="http://www.w3.org/1999/xlink" height="128" viewBox="0 0 128 128" width="128"><title>Template icons dark</title><defs><linearGradient id="c"><stop offset="0" stop-color="#24303f"/><stop offset="1" stop-color="#304155"/></linearGradient><linearGradient id="b"><stop offset="0" stop-color="#5a41e2"/><stop offset="1" stop-color="#4c9ce0" stop-opacity=".945"/></linearGradient><linearGradient id="a"><stop offset="0" stop-color="#fffefe"/><stop offset="1" stop-color="#fff" stop-opacity=".855"/></linearGradient><linearGradient gradientTransform="translate(58.667 58.667) scale(1.33333)" xlink:href="#c" id="d" x1="171.402" y1="199.004" x2="171.402" y2="116" gradientUnits="userSpaceOnUse"/></defs><path style="isolation:auto;mix-blend-mode:normal;marker:none" d="M20.751 3.811h86.875a16.526 16.526 0 0 1 16.563 16.563v86.875a16.526 16.526 0 0 1-16.563 16.562H20.751A16.526 16.526 0 0 1 4.19 107.25V20.374A16.526 16.526 0 0 1 20.75 3.81z" color="#000" display="block" overflow="visible" fill-opacity=".078" paint-order="fill markers stroke"/><path style="isolation:auto;mix-blend-mode:normal;marker:none" d="M229.528 213.333h84.944a16.159 16.159 0 0 1 16.195 16.195v84.944a16.159 16.159 0 0 1-16.195 16.195h-84.944a16.159 16.159 0 0 1-16.195-16.195v-84.944a16.159 16.159 0 0 1 16.195-16.195z" color="#000" display="block" overflow="visible" fill="url(#d)" paint-order="fill markers stroke" transform="translate(-207.811 -208.189)"/><path style="isolation:auto;mix-blend-mode:normal;marker:none" d="M5.522 104.95v1.332a16.16 16.16 0 0 0 16.196 16.196h84.942a16.16 16.16 0 0 0 16.196-16.196v-1.333a16.16 16.16 0 0 1-16.196 16.195H21.718A16.16 16.16 0 0 1 5.522 104.95z" color="#000" display="block" overflow="visible" fill="#f2f2f8" fill-opacity=".153" paint-order="fill markers stroke"/><path d="M91.621 88.343c-8.662 4.64-18.076 6.874-26.643 6.874-12.693 0-24.986-4.39-34.927-11.681-.873-.637-1.516.485-.791 1.311 9.22 10.484 21.389 16.787 34.91 16.787 9.649 0 20.848-3.826 28.576-11.012 1.28-1.189.183-2.979-1.125-2.28zm2.112 6.984c-.287.716.328 1.009.977.464 4.22-3.53 5.311-10.925 4.447-11.99-.857-1.06-8.233-1.973-12.734 1.188-.693.485-.573 1.157.196 1.062 2.537-.302 8.18-.983 9.182.31 1.005 1.291-1.12 6.6-2.068 8.966z" clip-rule="evenodd" fill="#ff9802" fill-opacity=".984" fill-rule="evenodd"/><path d="M70.361 57.79c0 3.884.092 7.112-1.863 10.563-1.582 2.808-4.1 4.533-6.89 4.533-3.826 0-6.058-2.913-6.058-7.225 0-8.485 7.612-10.03 14.814-10.03v2.16zm10.042 24.287c-.659.595-1.614.633-2.348.233-3.316-2.749-3.902-4.022-5.718-6.638-5.465 5.57-9.336 7.24-16.418 7.24-8.384 0-14.912-5.172-14.912-15.523 0-8.085 4.384-13.582 10.622-16.277 5.406-2.377 12.955-2.809 18.729-3.452v-1.292c0-2.373.19-5.175-1.207-7.23-1.214-1.825-3.543-2.585-5.595-2.585-3.798 0-7.177 1.948-8.006 5.98-.17.898-.823 1.786-1.73 1.834l-9.648-1.05c-.817-.176-1.728-.838-1.488-2.08 2.219-11.713 12.797-15.25 22.272-15.25 4.844 0 11.18 1.293 14.997 4.962 4.847 4.526 4.387 10.565 4.387 17.14v15.517c0 4.668 1.942 6.714 3.757 9.232.643.905.779 1.986-.031 2.645a390.38 390.38 0 0 0-7.638 6.616z" clip-rule="evenodd" fill="#fff" fill-opacity=".984" fill-rule="evenodd"/></svg>