<svg xmlns="http://www.w3.org/2000/svg" xmlns:xlink="http://www.w3.org/1999/xlink" height="128" viewBox="0 0 128 128" width="128"><title>Template icons dark</title><defs><linearGradient id="d"><stop offset="0" stop-color="#f772b7"/><stop offset="1" stop-color="#f70342"/></linearGradient><linearGradient id="c"><stop offset="0" stop-color="#f7f7f7"/><stop offset="1" stop-color="#e8e8e8"/></linearGradient><linearGradient id="a"><stop offset="0" stop-color="#dedede"/><stop offset="1" stop-color="#fff" stop-opacity=".974"/></linearGradient><linearGradient id="b"><stop offset="0" stop-color="#ff1781"/><stop offset="1" stop-color="#0b65ff"/></linearGradient><linearGradient gradientTransform="matrix(1.12236 0 0 1.12236 92.422 92.422)" xlink:href="#b" id="f" x1="160.333" y1="155.19" x2="160.333" y2="204.115" gradientUnits="userSpaceOnUse"/><linearGradient xlink:href="#c" id="g" gradientUnits="userSpaceOnUse" x1="272" y1="298" x2="272" y2="237.102" gradientTransform="matrix(1.01216 0 0 1.01216 -4.318 -7.132)"/><radialGradient xlink:href="#d" id="e" cx="160" cy="160" fx="160" fy="160" r="38.047" gradientTransform="matrix(1.30225 0 0 1.73834 63.64 -6.134)" gradientUnits="userSpaceOnUse"/></defs><g transform="translate(-208 -208)"><path style="isolation:auto;mix-blend-mode:normal;marker:none" d="M332 272l-37.534 7.675 26.075 29.407-34.656-16.988L290.54 332 272 296.838 253.459 332l4.656-39.906-34.656 16.988 26.075-29.407L212 272l37.534-7.675-26.075-29.407 34.656 16.988L253.46 212 272 247.162 290.541 212l-4.656 39.906 34.656-16.988-26.075 29.407z" color="#000" overflow="visible" fill-opacity=".267"/><path style="isolation:auto;mix-blend-mode:normal;marker:none" d="M326.305 272l-33.972 6.947 23.6 26.615-31.366-15.375 4.214 36.118L272 294.48l-16.781 31.825 4.214-36.118-31.367 15.375 23.6-26.615-33.97-6.947 33.97-6.947-23.6-26.615 31.367 15.375-4.214-36.118L272 249.52l16.781-31.825-4.214 36.118 31.367-15.375-23.6 26.615z" color="#000" display="block" overflow="visible" fill="#fff" fill-opacity=".984"/><path style="isolation:auto;mix-blend-mode:normal;marker:none" d="M321.954 272A49.954 49.954 0 0 1 272 321.954 49.954 49.954 0 0 1 222.046 272 49.954 49.954 0 0 1 272 222.046 49.954 49.954 0 0 1 321.954 272z" color="#000" overflow="visible" fill="url(#e)" stroke="#fff" stroke-width="2.784"/><path style="isolation:auto;mix-blend-mode:normal;marker:none" d="M321.954 272A49.954 49.954 0 0 1 272 321.954 49.954 49.954 0 0 1 222.046 272 49.954 49.954 0 0 1 272 222.046 49.954 49.954 0 0 1 321.954 272z" color="#000" overflow="visible" opacity=".284" fill="url(#f)" stroke="#fff" stroke-width="2.784"/><path style="isolation:auto;mix-blend-mode:normal;marker:none" d="M320.583 270.22A48.607 49.954 0 0 1 272 319.71a48.607 49.954 0 0 1-48.583-49.297 48.607 49.954 0 0 0-.024.465A48.607 49.954 0 0 0 272 320.832a48.607 49.954 0 0 0 48.607-49.954 48.607 49.954 0 0 0-.024-.658z" color="#000" overflow="visible" fill-opacity=".297"/><path d="M320.808 274.1A48.832 49.954 0 0 0 272 224.613a48.832 49.954 0 0 0-48.808 49.296 48.832 49.954 0 0 1-.024-.465A48.832 49.954 0 0 1 272 223.49a48.832 49.954 0 0 1 48.832 49.954 48.832 49.954 0 0 1-.023.658z" style="isolation:auto;mix-blend-mode:normal;marker:none" color="#000" overflow="visible" fill="#242424" fill-opacity=".471"/><path style="line-height:normal;font-variant-ligatures:normal;font-variant-position:normal;font-variant-caps:normal;font-variant-numeric:normal;font-variant-alternates:normal;font-feature-settings:normal;text-indent:0;text-align:start;text-decoration-line:none;text-decoration-style:solid;text-decoration-color:#000;text-transform:none;text-orientation:mixed;shape-padding:0;isolation:auto;mix-blend-mode:normal;marker:none" d="M267.002 230.879l-1.286.163-.05.008-.709.126.356 1.985.659-.118.021-.003 1.265-.161zm12.36.353l-.356 1.987.954.169.008.003.965.224.453-1.966-1.012-.232-.05-.011zm-26.132 3.835l-.96.49-.041.024-.815.47 1.005 1.75.817-.47v-.003l.914-.466zm39.638 1.144l-1.007 1.75.588.337.01.005 1.076.694 1.091-1.7-1.12-.717-.042-.027zm-24.326 7.161l-.915.116-.037.005-.474.087.248 1.381.44-.079.015-.003.019-.003.88-.11zm8.6.253l-.247 1.384.653.116.688.158.317-1.368-.725-.166-.034-.008zm-35.407.093l-.387.406-.032.036-.954 1.1 1.524 1.32.922-1.065.021-.02.011-.014.356-.372zm62.114 1.787l-1.524 1.32.074.085.005.005 1.141 1.455 1.587-1.247-1.147-1.46-.031-.037zm-44.875.788l-.69.332-.061.032-.543.332.727 1.199.525-.316.65-.314zm27.573.833l-.73 1.2 1.2.73.73-1.203zm-35.6 5.203l-.943 1.038 1.039.947.946-1.039zm43.226 1.233l-1.039.947.032.034.772 1.033 1.125-.84-.788-1.055-.042-.053zm-60.303 2.207l-.037.081-.018.045-.707 1.792 1.877.741.688-1.747.005-.014.014-.032.018-.036zm33.57.806l-.187.05-.074.021-1.297.477.54 1.477 1.253-.46.155-.039zm9.755.208l-.543 1.48.989.36.4.193.683-1.418-.427-.206-.071-.029zm33.82 1.258l-1.91.646.53 1.568v.005l.086.295 1.94-.55-.084-.301-.016-.048zm-65.542 2.633l-.032.069-.02.047-.488 1.236 1.304.514.47-1.189.031-.065zm53.694 1.634l-1.33.448.36 1.068.005.018.005.016.056.2 1.352-.384-.066-.232-.01-.035zm-40.781 1.144l-.514.846-.037.066-.253.527 1.418.683.235-.49.495-.815zm27.534.504l-1.344.817.19.31.49 1.02 1.418-.682-.51-1.057-.036-.066zm-55.292 5.843l-.005.045-.003.05-.05 1.972 2.02.052.047-1.937.003-.029h-.003v-.008l-.148-.003zm12.573.656l-.003.043-.003.036-.034 1.36 1.405.035.034-1.36v-.008zm43.314 1.505l-.079 1.566.733.037.83.126v-.005l.008-.079.08-1.565zm24.901.014l-.053 2.019 2.017.05.053-2.016zm-11.98.008l-.034 1.405 1.402.034.037-1.402zm-41.751 2.314l-1.555.237.103.67.015.076.222.87 1.523-.393-.21-.827zm-11.925 5.73l-1.352.385.042.148.011.034.4 1.184 1.332-.451-.39-1.15-.005-.018-.005-.015zm52.021 1.384l-.003.008-.014.032-.487 1.234 1.307.516.498-1.268.014-.031.013-.042zm-14.871.14l-.646.712-.398.36 1.06 1.166.424-.385.053-.053.672-.74zm-20.172 1.629l-.203.271-.828.912.032.03.058.047 1.175.88.064.042.052.032.738-1.212.09-.122-.01-.008v-.003l-.02-.01-1.114-.833-.008-.008zm-28.43.369l-1.94.55.055.199.016.047.58 1.719 1.91-.649-.563-1.668-.003-.005zm74.728 1.969l-.021.058-.701 1.774 1.876.74.72-1.82.016-.046.02-.06zm-35.162.862l-.39.06-1.1.056.082 1.57 1.14-.057.078-.008.427-.064zm-23.76 2.116l-1.125.841.736.983.042.053.118.13 1.042-.944-.103-.114zm42.901 1.129l-.943 1.038 1.038.944.944-1.039zm-35.957 5.369l-.73 1.199 1.201.73.728-1.202zm-16.538.722l-1.586 1.247 1.08 1.376.032.036.174.203 1.526-1.32-.145-.166-.005-.005zm45.147.053l-.601.363-.57.275.61 1.265.61-.295.061-.032.62-.377zm16.516 1.57l-.991 1.147-.021.021-.011.014-.282.292 1.46 1.392.314-.327.031-.037 1.026-1.18zm-36.335 1.398l-.314 1.368.638.147.035.008.738.132.245-1.384-.738-.132zm10.875.287l-.527.095-.016.003-.018.003-.793.1.179 1.394.825-.105.037-.005.561-.1zm-26.168 6.041l-1.089 1.698 1.028.659.042.026.691.395 1.004-1.747-.648-.372-.032-.02-.01-.006zm41.119 1.084l-.91.522v.003l-.817.415.918 1.795.864-.44.042-.024.91-.522zm-28.501 4.262l-.454 1.966.907.208.05.011 1.068.193.355-1.988-1.06-.187-.007-.003zm15.622.408l-.767.14-.021.003-1.157.148.253 2 1.18-.15.05-.008.815-.145z" color="#000" font-weight="400" font-family="sans-serif" white-space="normal" overflow="visible" fill="#fff" fill-opacity=".705"/><path style="line-height:1000%;-inkscape-font-specification:Sagar" d="M272.853 228.835c-3.965 0-7.27.689-9.843 2.301-2.502 1.568-4.134 3.975-4.134 6.676v.11l.461 4.267 9.586 41.957h3.147c-6.08.072-11.039 5.042-11.039 11.14 0 6.142 5.023 11.165 11.166 11.165 6.142 0 11.165-5.023 11.165-11.166 0-6.097-4.958-11.067-11.039-11.14h3.471l9.723-42.063v-3.728c0-2.893-1.498-5.51-3.984-7.129-2.425-1.619-5.381-2.39-8.68-2.39z" font-weight="400" font-family="Sagar" letter-spacing="0" word-spacing="0" fill-opacity=".136" paint-order="stroke fill markers"/><path style="line-height:1000%;-inkscape-font-specification:Sagar" d="M272.518 231.1c-3.721 0-6.64.663-8.756 1.989-2.115 1.325-3.172 2.972-3.172 4.94l.436 4.037 9.195 40.249h3.61l9.303-40.25v-3.494c0-2.29-1.021-4.097-3.064-5.423-2.043-1.366-4.56-2.048-7.552-2.048zm-.656 55.285a9.117 9.117 0 0 0-9.118 9.117 9.117 9.117 0 0 0 9.118 9.118 9.117 9.117 0 0 0 9.117-9.118 9.117 9.117 0 0 0-9.117-9.117z" font-weight="400" font-family="Sagar" letter-spacing="0" word-spacing="0" fill="url(#g)" paint-order="stroke fill markers"/><circle style="isolation:auto;mix-blend-mode:normal;marker:none" cx="272" cy="272" r="53.905" color="#000" overflow="visible" fill-opacity=".157"/></g></svg>