<svg xmlns="http://www.w3.org/2000/svg" xmlns:xlink="http://www.w3.org/1999/xlink" height="128" viewBox="0 0 128 128" width="128"><title>Template icons dark</title><defs><linearGradient id="b"><stop offset="0" stop-color="#ff053c"/><stop offset="1" stop-color="#0b31ff" stop-opacity=".974"/></linearGradient><linearGradient id="a"><stop offset="0" stop-color="#20c686"/><stop offset="1" stop-color="#259d68"/></linearGradient><linearGradient xlink:href="#a" id="c" x1="24.535" y1="7.996" x2="24.705" y2="38.25" gradientUnits="userSpaceOnUse" gradientTransform="matrix(2.81122 0 0 2.81122 204.301 200.148)"/><linearGradient gradientTransform="matrix(1.31915 0 0 1.31915 60.936 60.936)" xlink:href="#b" id="d" x1="122" y1="183" x2="196" y2="142" gradientUnits="userSpaceOnUse"/></defs><g transform="translate(-208 -208)"><circle style="isolation:auto;mix-blend-mode:normal;marker:none" cx="272" cy="272" r="62" color="#000" display="block" overflow="visible" fill-opacity=".157"/><circle style="isolation:auto;mix-blend-mode:normal;marker:none" cx="272" cy="272" r="58.712" color="#000" overflow="visible" fill="url(#c)" stroke="#fff" stroke-width="3.272"/><circle r="58.712" cy="272" cx="272" style="isolation:auto;mix-blend-mode:normal;marker:none" color="#000" overflow="visible" opacity=".109" fill="url(#d)" stroke="#fff" stroke-width="3.272"/><circle r="9.991" cy="272" cx="272" style="isolation:auto;mix-blend-mode:normal;marker:none" color="#000" overflow="visible" fill="#efefef" fill-opacity=".214"/><circle style="isolation:auto;mix-blend-mode:normal;marker:none" cx="272" cy="272" r="48.306" color="#000" overflow="visible" fill="none" stroke="#fff" stroke-width="1.511" stroke-dasharray="1.51143861,12.09150892" stroke-opacity=".292"/><path d="M286.898 314.437c-6.646-1.104-15.275-8.71-23.155-20.41-3.305-4.908-6.687-10.97-8.895-15.942-.443-.997-.605-1.237-.739-1.094-.268.286-2.191 4.469-3.204 6.968-1.705 4.205-2.907 8.214-3.595 11.994-.441 2.422-.48 7.115-.07 8.569.953 3.378 3.018 4.782 6.239 4.242 2.322-.39 5.133-1.661 8.115-3.672 1.325-.893 1.673-1.063 2.185-1.066.784-.005 1.368.422 1.642 1.197.182.514.181.663-.005 1.154-.178.471-.488.75-1.886 1.698-1.931 1.31-5.234 2.997-6.924 3.538-4.428 1.416-7.873.897-10.302-1.553-2.227-2.247-3.187-5.882-2.891-10.953.385-6.6 3.286-15.608 7.87-24.44l1.149-2.214-.868-2.349c-.831-2.248-2.475-7.46-2.475-7.847 0-.285-.502-.227-2.707.315-5.05 1.243-8.803 2.824-11.494 4.844-5.29 3.97-3.889 8.448 4.038 12.908 1.263.71 1.554 1.092 1.554 2.037 0 .495-.09.697-.496 1.102-.867.867-1.674.686-4.35-.974-3.87-2.4-6.318-5.132-7.18-8.014-.315-1.053-.316-3.173-.001-4.232.457-1.543 1.227-2.77 2.616-4.167 3.114-3.132 8.278-5.536 15.36-7.153 1.442-.329 1.775-.452 1.721-.636-.037-.125-.202-.95-.366-1.833-.962-5.166-.992-11.088-.071-14.373 1.061-3.787 2.983-6.04 6.047-7.093 1.251-.43 3.755-.361 5.472.149 1.726.513 3.87 1.568 5.764 2.838 2.257 1.513 2.922 2.148 3.018 2.879.22 1.68-1.516 2.585-2.933 1.53-4.442-3.307-7.613-4.566-10.154-4.03-1.846.39-3.257 2.288-3.97 5.34-.283 1.213-.322 1.79-.323 4.808-.001 3.425.048 3.976.673 7.568l.314 1.805.741-.09c3.401-.41 6.332-.697 8.14-.794l2.144-.115.335-.43c3.623-4.658 8.893-10.098 12.885-13.302 7.646-6.136 14.204-8.266 18.715-6.081 2.549 1.234 4.16 3.757 4.784 7.492.407 2.439.085 8.211-.55 9.837-.218.562-.922.966-1.68.967-.476 0-.726-.097-1.094-.425-.436-.39-.476-.498-.473-1.277.001-.468.125-1.803.273-2.967.431-3.383.135-6.51-.788-8.32-.448-.878-1.365-1.816-2.158-2.206-.594-.294-.9-.338-2.291-.334-1.461.005-1.747.054-3.19.546-4.461 1.522-9.573 5.18-15.06 10.776a106.29 106.29 0 0 0-3.498 3.77l-1.59 1.824 1.382.033c19.34.458 35.64 4.9 43.322 11.804 1.73 1.553 3.22 3.868 3.652 5.673.22.915.224 2.692.008 3.643-.793 3.51-4.653 6.962-10.28 9.192-.889.352-1.077.381-1.557.237-.787-.236-1.298-.901-1.298-1.69 0-.929.447-1.374 2.054-2.048 3.495-1.466 6.205-3.52 7.234-5.484.358-.683.412-.948.411-2.026 0-1.121-.047-1.332-.49-2.189-.623-1.209-2.684-3.276-4.394-4.406-8.4-5.556-24.228-9.164-40.21-9.164h-2.635l-.994 1.35c-1.486 2.019-4.71 6.927-5.994 9.122l-1.132 1.936.778 1.785c7.8 17.903 19.91 33.018 28.843 36 1.942.65 3.411.68 4.6.1 2.222-1.088 3.386-3.91 3.565-8.646.298-7.904-2.548-18.827-7.856-30.147-.55-1.174-.881-2.07-.881-2.388 0-.958.786-1.71 1.772-1.697.875.01 1.259.363 1.926 1.759 4.305 9.004 7.174 18.023 8.246 25.919.36 2.655.362 8.058.005 9.99-.573 3.088-1.593 5.313-3.154 6.88-1.902 1.909-4.37 2.638-7.29 2.153zm-30.88-48.06c.544-.883 1.605-2.505 2.356-3.605.752-1.1 1.367-2.043 1.367-2.098 0-.188-6.895.51-7.103.719-.126.125.287 1.661 1.205 4.484.668 2.053.849 2.47 1 2.306.1-.111.63-.924 1.174-1.807zm14.71 13.088c-2.192-.783-3.473-2.612-3.444-4.917.017-1.207.29-2.035.996-2.996 1.789-2.437 5.44-2.714 7.64-.58 2.525 2.45 1.777 6.824-1.417 8.286-1.1.503-2.7.59-3.775.207z" fill-opacity=".235"/><path d="M286.898 311.799c-6.646-1.104-15.275-8.71-23.155-20.41-3.305-4.908-6.687-10.97-8.895-15.942-.443-.997-.605-1.237-.739-1.094-.268.286-2.191 4.468-3.204 6.968-1.705 4.205-2.907 8.213-3.595 11.994-.441 2.422-.48 7.115-.07 8.568.953 3.379 3.018 4.783 6.239 4.243 2.322-.39 5.133-1.661 8.115-3.672 1.325-.893 1.673-1.063 2.185-1.066.784-.005 1.368.421 1.642 1.197.182.513.181.663-.005 1.154-.178.471-.488.75-1.886 1.698-1.931 1.31-5.234 2.997-6.924 3.537-4.428 1.417-7.873.898-10.302-1.552-2.227-2.247-3.187-5.883-2.891-10.954.385-6.599 3.286-15.607 7.87-24.439l1.149-2.214-.868-2.35c-.831-2.247-2.475-7.46-2.475-7.847 0-.285-.502-.226-2.707.316-5.05 1.243-8.803 2.824-11.494 4.844-5.29 3.97-3.889 8.448 4.038 12.907 1.263.71 1.554 1.093 1.554 2.038 0 .494-.09.697-.496 1.102-.867.867-1.674.686-4.35-.974-3.87-2.4-6.318-5.132-7.18-8.015-.315-1.052-.316-3.173-.001-4.231.457-1.544 1.227-2.77 2.616-4.167 3.114-3.132 8.278-5.537 15.36-7.153 1.442-.33 1.775-.452 1.721-.636-.037-.126-.202-.95-.366-1.833-.962-5.166-.992-11.089-.071-14.373 1.061-3.787 2.983-6.041 6.047-7.093 1.251-.43 3.755-.362 5.472.149 1.726.513 3.87 1.568 5.764 2.838 2.257 1.513 2.922 2.147 3.018 2.878.22 1.68-1.516 2.586-2.933 1.531-4.442-3.307-7.613-4.566-10.154-4.03-1.846.39-3.257 2.288-3.97 5.34-.283 1.213-.322 1.79-.323 4.807-.001 3.426.048 3.977.673 7.569l.314 1.805.741-.09c3.401-.411 6.332-.697 8.14-.794l2.144-.115.335-.43c3.623-4.658 8.893-10.099 12.885-13.302 7.646-6.136 14.204-8.267 18.715-6.081 2.549 1.234 4.16 3.757 4.784 7.492.407 2.439.085 8.21-.55 9.837-.218.561-.922.966-1.68.967-.476 0-.726-.097-1.094-.425-.436-.39-.476-.498-.473-1.277.001-.468.125-1.803.273-2.967.431-3.383.135-6.51-.788-8.32-.448-.878-1.365-1.816-2.158-2.207-.594-.293-.9-.337-2.291-.333-1.461.005-1.747.054-3.19.546-4.461 1.521-9.573 5.179-15.06 10.776a106.299 106.299 0 0 0-3.498 3.77l-1.59 1.823 1.382.033c19.34.459 35.64 4.9 43.322 11.804 1.73 1.554 3.22 3.869 3.652 5.674.22.915.224 2.692.008 3.643-.793 3.51-4.653 6.961-10.28 9.192-.889.352-1.077.38-1.557.237-.787-.236-1.298-.901-1.298-1.691 0-.928.447-1.374 2.054-2.047 3.495-1.466 6.205-3.52 7.234-5.485.358-.682.412-.948.411-2.026 0-1.12-.047-1.331-.49-2.188-.623-1.21-2.684-3.276-4.394-4.407-8.4-5.556-24.228-9.163-40.21-9.163h-2.635l-.994 1.35c-1.486 2.018-4.71 6.926-5.994 9.122l-1.132 1.936.778 1.785c7.8 17.903 19.91 33.018 28.843 36 1.942.649 3.411.68 4.6.1 2.222-1.088 3.386-3.91 3.565-8.646.298-7.904-2.548-18.827-7.856-30.148-.55-1.173-.881-2.069-.881-2.387 0-.958.786-1.71 1.772-1.697.875.01 1.259.362 1.926 1.759 4.305 9.003 7.174 18.023 8.246 25.918.36 2.655.362 8.059.005 9.99-.573 3.088-1.593 5.314-3.154 6.88-1.902 1.91-4.37 2.638-7.29 2.154zm-30.88-48.06c.544-.884 1.605-2.506 2.356-3.605.752-1.1 1.367-2.044 1.367-2.098 0-.188-6.895.51-7.103.719-.126.125.287 1.661 1.205 4.484.668 2.053.849 2.47 1 2.305.1-.11.63-.923 1.174-1.806zm14.71 13.087c-2.192-.782-3.473-2.611-3.444-4.917.017-1.207.29-2.034.996-2.996 1.789-2.436 5.44-2.713 7.64-.58 2.525 2.451 1.777 6.824-1.417 8.287-1.1.503-2.7.59-3.775.206z" fill="#fff" stroke="#fff" stroke-width=".581"/><path style="isolation:auto;mix-blend-mode:normal;marker:none" d="M329.102 269.908A57.129 58.712 0 0 1 272 328.074a57.129 58.712 0 0 1-57.102-57.94 57.129 58.712 0 0 0-.027.547A57.129 58.712 0 0 0 272 329.393a57.129 58.712 0 0 0 57.13-58.712 57.129 58.712 0 0 0-.028-.773z" color="#000" overflow="visible" fill-opacity=".297"/><path d="M329.366 274.47A57.394 58.712 0 0 0 272 216.302a57.394 58.712 0 0 0-57.366 57.94 57.394 58.712 0 0 1-.028-.547A57.394 58.712 0 0 1 272 214.984a57.394 58.712 0 0 1 57.394 58.712 57.394 58.712 0 0 1-.028.773z" style="isolation:auto;mix-blend-mode:normal;marker:none" color="#000" overflow="visible" fill="#242424" fill-opacity=".471"/></g></svg>