<svg xmlns="http://www.w3.org/2000/svg" xmlns:xlink="http://www.w3.org/1999/xlink" height="128" viewBox="0 0 128 128" width="128"><title>Template icons dark</title><defs><linearGradient id="f"><stop offset="0" stop-color="#0a34ff" stop-opacity="0"/><stop offset="1" stop-color="#ffff0d" stop-opacity=".24"/></linearGradient><linearGradient id="c"><stop offset="0" stop-color="#fff" stop-opacity=".427"/><stop offset=".423" stop-color="#fbfcfe"/><stop offset="1" stop-color="#fff" stop-opacity=".49"/></linearGradient><linearGradient id="e"><stop offset="0" stop-color="#cdcdcd"/><stop offset="1" stop-color="#fff"/></linearGradient><linearGradient id="d"><stop offset="0" stop-color="#fff" stop-opacity=".427"/><stop offset=".423" stop-color="#fafcfe"/><stop offset="1" stop-color="#fff" stop-opacity=".49"/></linearGradient><linearGradient id="b"><stop offset="0" stop-color="#fff" stop-opacity=".266"/><stop offset="1" stop-color="#fff"/></linearGradient><linearGradient id="a"><stop offset="0" stop-color="#0a34ff"/><stop offset="1" stop-color="#f044ee"/></linearGradient><linearGradient xlink:href="#a" id="g" x1="22.9" y1="46.6" x2="22.9" y2="-10.331" gradientUnits="userSpaceOnUse" gradientTransform="matrix(2.88889 0 0 2.88889 207 198.333)"/><linearGradient xlink:href="#f" id="h" gradientUnits="userSpaceOnUse" gradientTransform="matrix(2.88889 0 0 2.88889 207 198.333)" x1="15.346" y1="25.106" x2="29.288" y2="40.737"/><linearGradient gradientTransform="matrix(1.29167 0 0 1.29167 65.333 65.333)" xlink:href="#c" id="j" x1="152" y1="178.131" x2="152" y2="128" gradientUnits="userSpaceOnUse"/><linearGradient gradientTransform="matrix(1.29167 0 0 1.29167 65.333 65.333)" xlink:href="#b" id="k" x1="160" y1="174" x2="160" y2="137" gradientUnits="userSpaceOnUse"/><linearGradient gradientTransform="matrix(1.29167 0 0 1.29167 65.333 65.333)" xlink:href="#e" id="l" x1="161.772" y1="204" x2="161.772" y2="113" gradientUnits="userSpaceOnUse"/><linearGradient xlink:href="#c" id="i" gradientUnits="userSpaceOnUse" gradientTransform="matrix(1.29167 0 0 1.29167 65.333 65.333)" x1="152" y1="178.131" x2="152" y2="128"/></defs><path style="isolation:auto;mix-blend-mode:normal;marker:none" d="M126 64a62 62 0 0 1-62 62A62 62 0 0 1 2 64 62 62 0 0 1 64 2a62 62 0 0 1 62 62z" color="#000" display="block" overflow="visible" fill-opacity=".058"/><path style="isolation:auto;mix-blend-mode:normal;marker:none" d="M331.417 272A59.417 59.417 0 0 1 272 331.417 59.417 59.417 0 0 1 212.583 272 59.417 59.417 0 0 1 272 212.583 59.417 59.417 0 0 1 331.417 272z" color="#000" display="block" overflow="visible" fill="url(#g)" transform="translate(-208 -208)"/><path d="M331.417 272A59.417 59.417 0 0 1 272 331.417 59.417 59.417 0 0 1 212.583 272 59.417 59.417 0 0 1 272 212.583 59.417 59.417 0 0 1 331.417 272z" style="isolation:auto;mix-blend-mode:normal;marker:none" color="#000" display="block" overflow="visible" fill="url(#h)" transform="translate(-208 -208)"/><path d="M218.13 276.166l9.226 17.774 3.31-25.214 4.427 25.49 2.051-34.032 3.88 35.822 3.296-39.542 1.318 38.027 2.52-43.814 2.592 39.404 2.465-43.124 3.087 47.671 2.23-55.11 4.489 61.173 2.608-69.027 2.744 79.36L272 223.397" fill="none" stroke="url(#i)" stroke-width=".923" stroke-opacity=".283" transform="translate(-208 -208)"/><path d="M325.595 274.1l-8.951 19.84-3.31-25.352-4.427 25.627-1.776-33.755-4.155 35.546-3.296-39.542-1.318 38.027-2.52-43.814-2.592 39.404-2.465-43.124-3.087 47.671-2.23-55.11-4.489 61.173-2.608-69.027-2.744 79.36L272 223.397" fill="none" stroke="url(#j)" stroke-width=".923" stroke-opacity=".283" transform="translate(-208 -208)"/><path d="M9.716 84.804c33.342 1.654 24.599-44.777 53.457-44.777 31.414 0 18.807 44.709 55.112 44.777" fill="none" stroke="#090909" stroke-width="5.167" stroke-opacity=".22"/><path style="line-height:normal;font-variant-ligatures:normal;font-variant-position:normal;font-variant-caps:normal;font-variant-numeric:normal;font-variant-alternates:normal;font-feature-settings:normal;text-indent:0;text-align:start;text-decoration-line:none;text-decoration-style:solid;text-decoration-color:#000;text-transform:none;text-orientation:mixed;shape-padding:0;isolation:auto;mix-blend-mode:normal" d="M271.173 241.585c-7.908 0-13.68 3.39-17.789 8.119-4.108 4.728-6.802 10.673-9.579 16.337-2.777 5.665-5.621 11.028-9.51 14.738-3.89 3.71-8.708 5.972-16.452 5.588l-.254 5.16c8.927.442 15.52-2.478 20.27-7.009 4.75-4.53 7.773-10.467 10.586-16.204 2.812-5.737 5.429-11.296 8.84-15.222 3.41-3.926 7.366-6.34 13.888-6.34 7.24 0 11.432 2.376 14.846 6.14 3.414 3.764 5.87 9.121 8.542 14.749 2.673 5.627 5.585 11.537 10.432 16.15 4.848 4.614 11.68 7.72 21.287 7.738l.01-5.167c-8.545-.016-13.754-2.523-17.735-6.312-3.98-3.789-6.686-9.068-9.326-14.627-2.64-5.558-5.191-11.38-9.383-16.002-4.191-4.621-10.207-7.836-18.673-7.836z" color="#000" font-weight="400" font-family="sans-serif" white-space="normal" overflow="visible" fill="url(#k)" fill-rule="evenodd" transform="translate(-208 -208)"/><path d="M63.173 37.46c-7.908 0-12.583 4.017-16.692 8.745-4.108 4.729-5.705 10.047-8.482 15.711-2.777 5.665-6.875 11.028-10.764 14.738-3.89 3.71-9.648 5.972-17.392 5.588l-.254 1.284c8.927.443 15.52-2.477 20.27-7.008 4.75-4.53 7.773-10.467 10.586-16.204 2.812-5.737 5.429-11.296 8.84-15.222 3.41-3.926 7.366-6.34 13.888-6.34 7.24 0 11.432 2.376 14.846 6.14 3.414 3.764 5.87 9.121 8.542 14.749 2.673 5.627 5.585 11.537 10.432 16.15 4.848 4.614 11.68 7.72 21.287 7.738l.01-1.292c-8.545-.016-14.38-2.523-18.361-6.312s-7.314-7.971-9.954-13.53c-2.64-5.558-5.66-12.478-9.852-17.099s-8.484-7.836-16.95-7.836z" style="line-height:normal;font-variant-ligatures:normal;font-variant-position:normal;font-variant-caps:normal;font-variant-numeric:normal;font-variant-alternates:normal;font-feature-settings:normal;text-indent:0;text-align:start;text-decoration-line:none;text-decoration-style:solid;text-decoration-color:#000;text-transform:none;text-orientation:mixed;shape-padding:0;isolation:auto;mix-blend-mode:normal" color="#000" font-weight="400" font-family="sans-serif" white-space="normal" overflow="visible" fill="#fff" fill-opacity=".734" fill-rule="evenodd"/><path style="isolation:auto;mix-blend-mode:normal;marker:none" d="M118.36 65.448A54.36 54.36 0 0 1 64 119.81 54.36 54.36 0 0 1 9.64 65.45 54.36 54.36 0 0 1 64 11.087a54.36 54.36 0 0 1 54.36 54.36z" color="#000" overflow="visible" fill="none" stroke="#050505" stroke-width="2.169" stroke-linejoin="round" stroke-opacity=".458"/><path style="isolation:auto;mix-blend-mode:normal;marker:none" d="M118.36 63.687A54.36 54.36 0 0 1 64 118.047a54.36 54.36 0 0 1-54.36-54.36A54.36 54.36 0 0 1 64 9.326a54.36 54.36 0 0 1 54.36 54.36z" color="#000" overflow="visible" fill="none" stroke="#fff" stroke-width="2.169" stroke-linejoin="round"/><path style="isolation:auto;mix-blend-mode:normal;marker:none" d="M328.84 272A56.84 56.84 0 0 1 272 328.84 56.84 56.84 0 0 1 215.16 272 56.84 56.84 0 0 1 272 215.16 56.84 56.84 0 0 1 328.84 272z" color="#000" overflow="visible" fill="none" stroke="url(#l)" stroke-width="5.153" stroke-linejoin="round" transform="translate(-208 -208)"/></svg>