<svg xmlns="http://www.w3.org/2000/svg" xmlns:xlink="http://www.w3.org/1999/xlink" height="128" viewBox="0 0 128 128" width="128" enable-background="new"><title>Template icons dark</title><defs><linearGradient id="a"><stop offset="0" stop-color="#fbfbfb"/><stop offset="1" stop-color="#cfcfcf"/></linearGradient><linearGradient id="b"><stop offset="0" stop-color="#ff8545"/><stop offset=".525" stop-color="#f47200"/><stop offset="1" stop-color="#ffa04d"/></linearGradient><linearGradient id="c"><stop offset="0" stop-color="#2c60d3" stop-opacity=".609"/><stop offset="1" stop-color="#2c60d3" stop-opacity="0"/></linearGradient><linearGradient id="d"><stop offset="0" stop-opacity=".289"/><stop offset="1" stop-color="#c1c1c1" stop-opacity="0"/></linearGradient><linearGradient id="e"><stop offset="0" stop-color="#da6607" stop-opacity=".355"/><stop offset="1" stop-color="#fff" stop-opacity=".243"/></linearGradient><linearGradient id="f"><stop offset="0" stop-color="#763704"/><stop offset="1" stop-color="#763704" stop-opacity="0"/></linearGradient><linearGradient xlink:href="#b" id="h" gradientUnits="userSpaceOnUse" gradientTransform="matrix(2.78499 0 0 2.78499 204.97 206.153)" x1="2.133" y1="1.425" x2="45.917" y2="45.208"/><linearGradient xlink:href="#a" id="i" gradientUnits="userSpaceOnUse" x1="213.205" y1="166" x2="213.205" y2="261.881" gradientTransform="matrix(.47631 0 0 .47631 188.049 187.4)"/><linearGradient xlink:href="#c" id="q" x1="214" y1="191.323" x2="214" y2="237.518" gradientUnits="userSpaceOnUse" gradientTransform="matrix(.50313 0 0 .50313 182.331 181.688)"/><linearGradient xlink:href="#d" id="j" x1="164.302" y1="206.353" x2="230" y2="226.22" gradientUnits="userSpaceOnUse" gradientTransform="matrix(.47631 0 0 .47631 188.13 187.726)"/><linearGradient xlink:href="#d" id="k" gradientUnits="userSpaceOnUse" x1="164.302" y1="206.353" x2="230" y2="226.22" gradientTransform="matrix(-.3368 -.3368 .3368 -.3368 289.242 432.87)"/><linearGradient xlink:href="#d" id="l" gradientUnits="userSpaceOnUse" gradientTransform="matrix(-.3368 .3368 -.3368 -.3368 433.252 289.123)" x1="164.302" y1="206.353" x2="230" y2="226.22"/><linearGradient gradientTransform="matrix(.48748 0 0 .48748 186.665 186.011)" xlink:href="#e" id="m" x1="153.638" y1="72" x2="250.772" y2="141.165" gradientUnits="userSpaceOnUse"/><linearGradient xlink:href="#f" id="n" x1="196" y1="124.126" x2="156.079" y2="62" gradientUnits="userSpaceOnUse" gradientTransform="translate(191.565 190.944) scale(.45938)"/><linearGradient xlink:href="#f" id="o" gradientUnits="userSpaceOnUse" x1="196" y1="124.126" x2="156.079" y2="62" gradientTransform="rotate(-45 423.59 -37.154) scale(.45938)"/><linearGradient xlink:href="#f" id="p" gradientUnits="userSpaceOnUse" gradientTransform="rotate(-90 288.613 97.004) scale(.45938)" x1="196" y1="124.126" x2="156.079" y2="62"/><filter id="g" x="-.012" width="1.024" y="-.012" height="1.024" color-interpolation-filters="sRGB"><feGaussianBlur stdDeviation="1.246"/></filter></defs><g transform="translate(-208 -208)"><path d="M164.152 51.022a17.143 17.143 0 0 0-12.16 5.053 17.16 17.16 0 0 0 0 24.32l47.776 47.777H75.214a17.158 17.158 0 0 0-17.196 17.197 17.158 17.158 0 0 0 17.196 17.196c17.905-.05 43.299-.056 67.617-.05l-88.122 88.122a17.16 17.16 0 0 0 0 24.32 17.16 17.16 0 0 0 24.321 0c12.934-13.007 31.462-31.543 49.032-49.103 5.84 42.532 42.157 74.24 85.088 74.288 47.488 0 85.985-38.497 85.985-85.985a85.985 85.985 0 0 0-29.466-64.717c-6.366-6.35-63.542-63.38-93.359-93.365a17.138 17.138 0 0 0-12.158-5.053zm50.009 142.676c11.083 0 20.068 8.984 20.068 20.068 0 11.083-8.985 20.068-20.068 20.068-11.083 0-20.068-8.985-20.068-20.068 0-11.084 8.985-20.068 20.068-20.068z" transform="translate(191.565 190.944) scale(.45938)" fill-opacity=".203" filter="url(#g)" enable-background="new"/><path d="M267.054 215.363a7.74 7.74 0 0 0-5.49 2.281 7.748 7.748 0 0 0 0 10.982l21.57 21.571h-56.237a7.747 7.747 0 0 0-7.764 7.765 7.747 7.747 0 0 0 7.764 7.764c8.085-.022 19.55-.025 30.53-.022l-39.788 39.788a7.748 7.748 0 0 0 0 10.98 7.748 7.748 0 0 0 10.981 0c5.84-5.872 14.206-14.242 22.139-22.17 2.637 19.204 19.034 33.52 38.418 33.542 21.442 0 38.823-17.382 38.823-38.823a38.82 38.82 0 0 0-13.304-29.221c-2.874-2.867-28.69-28.616-42.153-42.156a7.738 7.738 0 0 0-5.49-2.28zm22.58 64.42a9.061 9.061 0 1 1 0 18.122 9.061 9.061 0 0 1 0-18.122z" fill="url(#h)" enable-background="new"/><path d="M289.601 259.047a29.827 29.827 0 0 0-29.827 29.827 29.827 29.827 0 0 0 29.827 29.826 29.827 29.827 0 0 0 29.827-29.826 29.827 29.827 0 0 0-29.827-29.827zm0 18.16a11.665 11.665 0 0 1 11.666 11.667 11.665 11.665 0 0 1-11.666 11.665 11.665 11.665 0 0 1-11.665-11.665 11.665 11.665 0 0 1 11.665-11.666z" fill-opacity=".099" enable-background="new"/><path d="M289.601 265.55a23.294 23.294 0 0 0-23.293 23.294 23.294 23.294 0 0 0 23.293 23.294 23.294 23.294 0 0 0 23.294-23.294 23.294 23.294 0 0 0-23.294-23.294zm0 14.183a9.11 9.11 0 0 1 9.11 9.11 9.11 9.11 0 0 1-9.11 9.111 9.11 9.11 0 0 1-9.11-9.11 9.11 9.11 0 0 1 9.11-9.11z" fill="url(#i)" enable-background="new"/><path d="M266.906 215.67a7.74 7.74 0 0 0-5.49 2.282 7.739 7.739 0 0 0-2.276 5.733 7.738 7.738 0 0 1 2.276-5.247 7.74 7.74 0 0 1 5.49-2.282c1.985 0 3.97.76 5.49 2.282 13.463 13.539 39.278 39.288 42.153 42.155a38.823 38.823 0 0 1 13.294 29.022 38.823 38.823 0 0 0 .01-.287 38.823 38.823 0 0 0-13.304-29.22c-2.874-2.867-28.689-28.617-42.152-42.156a7.74 7.74 0 0 0-5.49-2.281zm-40.155 34.835a7.748 7.748 0 0 0-7.76 8.007 7.745 7.745 0 0 1 7.76-7.522h56.236l-.485-.485zm30.044 15.992L217.492 305.8a7.739 7.739 0 0 0-2.276 5.733 7.738 7.738 0 0 1 2.276-5.248l39.788-39.788h-.485z" opacity=".884" fill="#f5eece" fill-opacity=".672" enable-background="new"/><path d="M259.39 223.123a7.738 7.738 0 0 0 2.276 5.733l21.087 21.087h.485l-21.572-21.572a7.738 7.738 0 0 1-2.275-5.248zm-40.147 34.827c-.002.08-.006.161-.006.243a7.748 7.748 0 0 0 7.764 7.764c7.965-.022 19.214-.025 30.044-.022l.486-.485c-10.98-.002-22.445 0-30.53.022a7.745 7.745 0 0 1-7.758-7.522zm108.85 31.103a38.823 38.823 0 0 1-38.813 38.536 38.823 38.823 0 0 1-38.418-33.541 11320.613 11320.613 0 0 0-22.139 22.17 7.747 7.747 0 0 1-10.98 0 7.738 7.738 0 0 1-2.276-5.247 7.738 7.738 0 0 0 2.276 5.732 7.747 7.747 0 0 0 10.98 0 11310.52 11310.52 0 0 1 22.139-22.17 38.823 38.823 0 0 0 38.418 33.542 38.823 38.823 0 0 0 38.823-38.824 38.823 38.823 0 0 0-.01-.198z" fill-opacity=".552" enable-background="new"/><path d="M289.601 265.55a23.294 23.294 0 0 0-23.293 23.294 23.294 23.294 0 0 0 .02.556 23.294 23.294 0 0 1 23.274-22.897 23.294 23.294 0 0 1 23.274 22.733 23.294 23.294 0 0 0 .02-.392 23.294 23.294 0 0 0-23.294-23.294z" fill-opacity=".573" enable-background="new"/><path d="M289.492 312.247a23.294 23.294 0 0 0 23.294-23.294 23.294 23.294 0 0 0-.02-.556 23.294 23.294 0 0 1-23.274 22.897 23.294 23.294 0 0 1-23.274-22.733 23.294 23.294 0 0 0-.02.392 23.294 23.294 0 0 0 23.294 23.294z" fill="#f4f4f4" enable-background="new"/><path d="M289.683 266.364a23.294 23.294 0 0 0-23.293 23.293 23.294 23.294 0 0 0 1.751 8.832l14.176-14.176a9.11 9.11 0 0 1 7.366-3.766 9.11 9.11 0 0 1 9.11 9.11 9.11 9.11 0 0 1-2.24 5.975l10.035 10.034a23.294 23.294 0 0 0 6.389-16.009 23.294 23.294 0 0 0-23.294-23.293z" fill="url(#j)" enable-background="new"/><path d="M273.038 305.457a23.294 23.294 0 0 0 32.942 0 23.294 23.294 0 0 0 5.006-7.484H290.94a9.11 9.11 0 0 1-7.872-2.545 9.11 9.11 0 0 1 0-12.884 9.11 9.11 0 0 1 5.809-2.641v-14.19a23.294 23.294 0 0 0-15.838 6.801 23.294 23.294 0 0 0 0 32.943z" fill="url(#k)" enable-background="new"/><path d="M305.839 305.327a23.294 23.294 0 0 0 0-32.943 23.294 23.294 0 0 0-7.483-5.006v20.048a9.11 9.11 0 0 1-2.546 7.872 9.11 9.11 0 0 1-12.884 0 9.11 9.11 0 0 1-2.64-5.809h-14.191a23.294 23.294 0 0 0 6.802 15.838 23.294 23.294 0 0 0 32.942 0z" fill="url(#l)" enable-background="new"/><path d="M289.601 259.047a29.772 29.772 0 0 0-29.772 29.772 29.772 29.772 0 0 0 .027.757 29.772 29.772 0 0 1 29.745-29.234 29.772 29.772 0 0 1 29.745 29.013 29.772 29.772 0 0 0 .027-.536 29.772 29.772 0 0 0-29.772-29.772z" fill-opacity=".484" enable-background="new"/><path d="M289.5 319.59a29.724 29.724 0 0 0 29.723-29.724 29.724 29.724 0 0 0-.027-.756 29.724 29.724 0 0 1-29.697 29.187 29.724 29.724 0 0 1-29.697-28.966 29.724 29.724 0 0 0-.027.535A29.724 29.724 0 0 0 289.5 319.59z" fill="#fff" fill-opacity=".38" enable-background="new"/><path d="M267.054 215.363a7.74 7.74 0 0 0-5.49 2.281 7.748 7.748 0 0 0 0 10.982l21.57 21.571-16.08-34.834z" fill="url(#n)" enable-background="new"/><path d="M220.982 252.53a7.74 7.74 0 0 0-2.27 5.496 7.748 7.748 0 0 0 7.766 7.765h30.507l-36.003-13.26z" fill="url(#o)" enable-background="new"/><path d="M216.028 310.129c0 1.985.76 3.97 2.28 5.49a7.748 7.748 0 0 0 10.982 0l21.572-21.571z" fill="url(#p)" enable-background="new"/><circle style="isolation:auto;mix-blend-mode:normal;marker:none" cx="289.607" cy="288.872" r="11.925" color="#000" display="block" overflow="visible" fill="url(#q)" paint-order="fill markers stroke" enable-background="accumulate"/><circle r="18.894" cy="288.872" cx="289.607" style="isolation:auto;mix-blend-mode:normal;marker:none" color="#000" display="block" overflow="visible" fill="none" stroke="#f4f4f4" stroke-width=".262" paint-order="fill markers stroke" enable-background="accumulate"/><circle style="isolation:auto;mix-blend-mode:normal;marker:none" cx="289.607" cy="288.872" r="15.511" color="#000" display="block" overflow="visible" fill="none" stroke="#f4f4f4" stroke-width=".215" paint-order="fill markers stroke" enable-background="accumulate"/></g></svg>