<svg xmlns="http://www.w3.org/2000/svg" xmlns:xlink="http://www.w3.org/1999/xlink" height="128" viewBox="0 0 128 128" width="128"><title>Template icons dark</title><defs><linearGradient id="c"><stop offset="0" stop-color="#dbdbdb"/><stop offset="1" stop-color="#fff"/></linearGradient><linearGradient id="a"><stop offset="0" stop-color="#343434"/><stop offset="1" stop-color="#585858"/></linearGradient><linearGradient id="b"><stop offset="0" stop-color="#0086f7"/><stop offset="1" stop-color="#60cdff"/></linearGradient><linearGradient xlink:href="#b" id="d" x1="25" y1="45.7" x2="25" y2="8.075" gradientUnits="userSpaceOnUse" gradientTransform="matrix(2.93333 0 0 2.93333 201.6 192.213)"/><linearGradient xlink:href="#c" id="e" x1="164.959" y1="189.342" x2="164.959" y2="137.236" gradientUnits="userSpaceOnUse" gradientTransform="matrix(1.35382 0 0 1.35382 55.388 55.388)"/><linearGradient xlink:href="#a" id="f" x1="31" y1="38.2" x2="31" y2="16.075" gradientUnits="userSpaceOnUse" gradientTransform="matrix(2.64597 0 0 2.64597 208.58 200.689)"/></defs><path d="M9.625 4h108.75A5.613 5.613 0 0 1 124 9.625v108.75a5.613 5.613 0 0 1-5.625 5.625H9.625C6.509 124 4 122.116 4 119V9.625A5.613 5.613 0 0 1 9.625 4z" fill-opacity=".078"/><path d="M219 213h106c3.047 0 6 2.953 6 6v106c0 3.047-2.953 6-6 6H219c-3.047 0-6-2.953-6-6V219c0-3.047 2.953-6 6-6z" fill="url(#d)" transform="translate(-208 -208)"/><path d="M5 115.667V117c0 3.047 2.953 6 6 6h106c3.047 0 6-2.953 6-6v-1.333c0 3.047-2.953 6.333-6 6.333H11c-3.047 0-6-3.286-6-6.333z" fill="#fff" fill-opacity=".219"/><path d="M21.757 18.667h84.486a4.42 4.42 0 0 1 4.424 4.423L111 107c.01 2.45-2.55 5-5 5H22c-2.45 0-5.01-2.55-5-5l.333-83.91a4.42 4.42 0 0 1 4.424-4.423z" fill-opacity=".385"/><path d="M230 225h84c2.45 0 5 2.55 5 5v84.011c0 2.45-2.55 4.989-5 4.989h-84.016c-2.45 0-4.984-2.55-4.984-5v-84c0-2.45 2.55-5 5-5z" fill="url(#e)" transform="translate(-208 -208)"/><path d="M17 104.646V106c0 2.45 2.534 4.989 4.984 4.989H106c2.45 0 5-2.538 5-4.989v-1.354c0 2.45-2.55 5.354-5 5.354H22c-2.45 0-5-2.903-5-5.354z" fill="#f8f8f8"/><path d="M239 239.995v65.088l28-.168V291h-14v-38h14v-12.995zm38 .01V253h14v38h-14v13.915h28v-64.91z" fill="url(#f)" transform="translate(-208 -208)"/><path d="M31 31.995v1l28 .01v-1zm38 .01v1h28v-1zM45 83v1h14v-1zm24 0v1h14v-1z" fill-opacity=".51"/><path d="M45 45v1h14v-1zm24 0v1h14v-1zM59 96.915l-28 .17v1l28-.17zm10 0v1h28v-1z" fill="#fff" fill-opacity=".948"/></svg>