<svg xmlns="http://www.w3.org/2000/svg" xmlns:xlink="http://www.w3.org/1999/xlink" height="128" viewBox="0 0 128 128" width="128" enable-background="new"><title>Template icons dark</title><defs><filter id="d" x="-.012" width="1.024" y="-.012" height="1.024" color-interpolation-filters="sRGB"><feGaussianBlur stdDeviation=".23"/></filter><linearGradient id="a"><stop offset="0" stop-color="#99c7d1"/><stop offset="1" stop-color="#e4eff7"/></linearGradient><linearGradient id="b"><stop offset="0" stop-color="#4378aa"/><stop offset="1" stop-color="#3797ca"/></linearGradient><linearGradient id="c"><stop offset="0" stop-color="#649ad2"/><stop offset="1" stop-color="#87c7e0"/></linearGradient><linearGradient gradientTransform="matrix(2.63247 0 0 2.63247 208.82 208.82)" xlink:href="#a" id="e" x1="33.117" y1="38.86" x2="31.597" y2="21.547" gradientUnits="userSpaceOnUse"/><linearGradient gradientTransform="matrix(2.63247 0 0 2.63247 208.82 208.82)" xlink:href="#b" id="f" x1="22.716" y1="14.943" x2="26.34" y2="-.083" gradientUnits="userSpaceOnUse"/><linearGradient gradientTransform="matrix(2.63247 0 0 2.63247 208.82 208.82)" xlink:href="#c" id="g" gradientUnits="userSpaceOnUse" x1="9.475" y1="36.754" x2="13.065" y2="19.442"/></defs><g transform="translate(-208 -208)"><circle r="62.016" cy="272" cx="272" style="isolation:auto;mix-blend-mode:normal;marker:none" color="#000" display="block" overflow="visible" opacity=".6" fill="none" stroke="#000" stroke-width="3.967" stroke-opacity=".123" paint-order="fill markers stroke" enable-background="accumulate"/><circle style="isolation:auto;mix-blend-mode:normal;marker:none" cx="272" cy="272" r="14.236" color="#000" display="block" overflow="visible" fill="#4690eb" fill-opacity=".215" paint-order="fill markers stroke" enable-background="accumulate"/><path style="isolation:auto;mix-blend-mode:normal;marker:none" d="M160.063 137.063c-12.703 0-23 10.297-23 23s10.297 23 23 23 23-10.297 23-23-10.297-23-23-23zm-.077 16.434a6.586 6.586 0 1 1 0 13.173 6.586 6.586 0 0 1 0-13.173z" transform="matrix(2.63247 0 0 2.63247 -149.361 -149.361)" color="#000" overflow="visible" fill-opacity=".235" fill-rule="evenodd" filter="url(#d)" enable-background="accumulate"/><path d="M272 216.95c-33.44 0-55.282 21.61-55.282 55.05s21.843 60.547 55.282 60.547c33.44 0 60.547-27.108 60.547-60.547a60.297 60.297 0 0 0-13.672-38.325C307.772 220.11 290.897 216.95 272 216.95zm-.204 37.765c9.576 0 17.339 7.763 17.339 17.338 0 9.576-8.237 17.88-17.813 17.88-9.779 1.017-18.381-4.656-18.76-18.828-.32-11.954 12.91-18.083 19.234-16.39z" fill="url(#e)" fill-rule="evenodd"/><path d="M272 211.453c-22.339 0-41.837 12.108-52.33 30.109l38.086 40.663c-3.183-4.223-3.298-8.643-3.298-10.172 0-9.118 7.043-16.577 15.984-17.27l56.343-9.015c-2.09-4.338-4.658-8.638-7.677-12.326-11.103-13.564-28.21-21.989-47.108-21.989z" fill="url(#f)" fill-rule="evenodd"/><path d="M218.139 299.667c10.204 19.872 29.882 31.686 50.689 32.797l14.547-47.52a17.303 17.303 0 0 1-3.66 2.54c-8.11 4.166-17.964 1.308-22.664-6.329l-33.308-45.69c-2.904 3.84-5.349 7.982-7.25 12.353-6.995 16.073-6.987 35.04 1.646 51.85z" style="isolation:auto;mix-blend-mode:normal" color="#000" overflow="visible" fill="url(#g)" fill-rule="evenodd" enable-background="accumulate"/><path d="M223.546 235.063l31.792 31.564s-1.318 4.025-.797 7.563c.505 3.429 2.152 6.397 2.152 6.397zM326.541 245.828l-41.751 14.664s-2.89-2.96-5.454-4.07c-4.699-2.035-8.1-1.75-8.1-1.75zM268.835 332.514l4.093-43.135s2.926-.011 7.104-2.03c1.236-.597 3.349-2.399 3.349-2.399z" fill-opacity=".11" fill-rule="evenodd"/></g></svg>