<svg xmlns="http://www.w3.org/2000/svg" xmlns:xlink="http://www.w3.org/1999/xlink" height="128" viewBox="0 0 128 128" width="128"><title>Template icons dark</title><defs><linearGradient id="a"><stop offset="0" stop-color="#ba0049"/><stop offset="1" stop-color="#ff1edc"/></linearGradient><linearGradient id="b"><stop offset="0" stop-color="#00c640"/><stop offset="1" stop-color="#3bcfd5"/></linearGradient><linearGradient id="c"><stop offset="0" stop-color="#118fff"/><stop offset="1" stop-color="#00f5ab"/></linearGradient><linearGradient xlink:href="#a" id="d" gradientUnits="userSpaceOnUse" gradientTransform="matrix(3.07504 0 0 3.07504 202.811 193.603)" x1="40.461" y1="43.461" x2="24.042" y2="10.5"/><linearGradient xlink:href="#b" id="e" x1="34.931" y1="44.25" x2="8.627" y2="40.5" gradientUnits="userSpaceOnUse" gradientTransform="matrix(3.07504 0 0 3.07504 202.811 193.603)"/><linearGradient xlink:href="#c" id="f" gradientUnits="userSpaceOnUse" gradientTransform="matrix(3.07504 0 0 3.07504 202.811 193.603)" x1="19.466" y1="20.754" x2="8.839" y2="39.161"/></defs><g fill-rule="evenodd"><path d="M68.483 100l-23.15-9.312 21.27-17.355zM64.084 0l-42.75 85.334L0 128h128z" fill-opacity=".174"/><path d="M272 211.922l60.54 121.08h-51.891z" fill="url(#d)" transform="translate(-208 -208)"/><path d="M211.46 333.002l20.18-40.36 100.9 40.36z" fill="url(#e)" transform="translate(-208 -208)"/><path d="M3.46 125.002l20.18-40.36 38.824 15.555z" fill-opacity=".325"/><path d="M272 211.922l-60.54 121.08 65.022-58.3z" fill="url(#f)" transform="translate(-208 -208)"/><path d="M3.46 125.002L40.92 91.48l52.116 20.943z" fill-opacity=".174"/><path d="M69.569 81.296l54.971 43.706-53.418-21.367z" fill-opacity=".261"/><path d="M64 3.922l-6.092 72.15 10.574-9.37z" fill-opacity=".236"/><path d="M64 3.922L33.906 97.7l34.576-30.997zM67.245 47.298l57.295 77.704-53.418-21.367z" fill-opacity=".174"/><path d="M64 3.922l2.334 64.648 2.148-1.867zM70.954 99.532l53.586 25.47-53.418-21.367zM3.46 125.002L40.92 91.48l3.815 1.553z" fill-opacity=".157"/></g></svg>