<svg xmlns="http://www.w3.org/2000/svg" xmlns:xlink="http://www.w3.org/1999/xlink" height="128" viewBox="0 0 128 128" width="128"><title>Template icons dark</title><defs><linearGradient id="b"><stop offset="0" stop-color="#7da2db"/><stop offset=".399" stop-color="#555dbb"/><stop offset="1" stop-color="#b985b0"/></linearGradient><linearGradient id="a"><stop offset="0" stop-color="#0b1528"/><stop offset="1" stop-color="#473d49"/></linearGradient><linearGradient xlink:href="#a" id="c" gradientUnits="userSpaceOnUse" gradientTransform="matrix(1.0687 0 0 1.0218 21.039 20.464)" x1="152.009" y1="127.834" x2="152.009" y2="94.362"/><linearGradient xlink:href="#b" id="d" gradientUnits="userSpaceOnUse" gradientTransform="matrix(.9624 0 0 .9127 6.015 11.7)" x1="183" y1="155" x2="132.898" y2="114"/><linearGradient xlink:href="#a" id="e" gradientUnits="userSpaceOnUse" gradientTransform="matrix(1.0687 0 0 1.0218 21.039 20.464)" x1="152.009" y1="127.834" x2="152.009" y2="94.362"/><linearGradient xlink:href="#b" id="f" gradientUnits="userSpaceOnUse" gradientTransform="matrix(.9624 0 0 .9127 6.015 11.7)" x1="183" y1="155" x2="132.898" y2="114"/></defs><g transform="translate(-208 -208)"><rect style="isolation:auto;mix-blend-mode:normal;marker:none" width="118.024" height="20.869" x="212.976" y="261.565" ry="0" color="#000" overflow="visible" fill-opacity=".157"/><g transform="matrix(1.30434 0 0 1.30434 63.305 125.218)"><rect ry="1.374" y="114.067" x="114" height="39.867" width="92" style="marker:none" fill="url(#c)"/><rect style="marker:none" width="90.466" height="38.333" x="114.767" y="114.833" ry=".421" fill="none" stroke="url(#d)" stroke-width="1.534"/><rect ry="0" y="141.667" x="141.6" height="5.367" width="18.4" style="isolation:auto;mix-blend-mode:normal;marker:none" color="#000" overflow="visible" fill="#d8e6ff"/><path style="line-height:10;-inkscape-font-specification:'Ubuntu Mono';isolation:auto;mix-blend-mode:normal;marker:none" d="M128.697 141.783q1.047 0 1.745-.143.727-.172 1.134-.458.407-.315.581-.716.175-.429.175-.915 0-.716-.349-1.202-.349-.515-.96-.887-.581-.401-1.337-.687-.756-.315-1.57-.601-.786-.286-1.571-.63-.756-.343-1.367-.83-.581-.515-.96-1.202-.378-.715-.378-1.745 0-1.832 1.106-2.977 1.105-1.145 3.198-1.46v-2.947h2.152v2.862q1.164.057 2.123.286.989.2 1.57.43l-.494 2.003q-.61-.23-1.541-.458-.93-.258-2.356-.258-1.57 0-2.413.572-.815.573-.815 1.66 0 .601.233 1.002.262.4.727.715.465.315 1.076.573.64.257 1.425.544.989.372 1.92.8.93.402 1.628.974.698.572 1.105 1.374.436.8.436 1.917 0 1.688-1.134 2.862-1.134 1.173-3.49 1.46v3.29h-2.152v-3.205q-1.832-.057-2.966-.4-1.134-.344-1.686-.659l.64-1.974q.784.372 1.86.715 1.076.315 2.705.315z" color="#000" font-weight="400" font-size="28.848" font-family="Ubuntu Mono" letter-spacing="0" word-spacing="0" fill="#fff" fill-opacity=".984"/></g><g transform="matrix(1.30434 0 0 1.30434 63.305 68.218)"><rect style="marker:none" width="92" height="39.867" x="114" y="114.067" ry="1.374" fill="url(#e)"/><rect ry=".421" y="114.833" x="114.767" height="38.333" width="90.466" style="marker:none" fill="none" stroke="url(#f)" stroke-width="1.534"/><rect style="isolation:auto;mix-blend-mode:normal;marker:none" width="18.4" height="5.367" x="141.6" y="141.667" ry="0" color="#000" overflow="visible" fill="#d8e6ff"/><path d="M128.697 141.783q1.047 0 1.745-.143.727-.172 1.134-.458.407-.315.581-.716.175-.429.175-.915 0-.716-.349-1.202-.349-.515-.96-.887-.581-.401-1.337-.687-.756-.315-1.57-.601-.786-.286-1.571-.63-.756-.343-1.367-.83-.581-.515-.96-1.202-.378-.715-.378-1.745 0-1.832 1.106-2.977 1.105-1.145 3.198-1.46v-2.947h2.152v2.862q1.164.057 2.123.286.989.2 1.57.43l-.494 2.003q-.61-.23-1.541-.458-.93-.258-2.356-.258-1.57 0-2.413.572-.815.573-.815 1.66 0 .601.233 1.002.262.4.727.715.465.315 1.076.573.64.257 1.425.544.989.372 1.92.8.93.402 1.628.974.698.572 1.105 1.374.436.8.436 1.917 0 1.688-1.134 2.862-1.134 1.173-3.49 1.46v3.29h-2.152v-3.205q-1.832-.057-2.966-.4-1.134-.344-1.686-.659l.64-1.974q.784.372 1.86.715 1.076.315 2.705.315z" style="line-height:10;-inkscape-font-specification:'Ubuntu Mono';isolation:auto;mix-blend-mode:normal;marker:none" color="#000" font-weight="400" font-size="28.848" font-family="Ubuntu Mono" letter-spacing="0" word-spacing="0" fill="#fff" fill-opacity=".984"/></g></g></svg>