<svg xmlns="http://www.w3.org/2000/svg" xmlns:xlink="http://www.w3.org/1999/xlink" height="128" viewBox="0 0 128 128" width="128"><title>Template icons dark</title><defs><linearGradient id="q"><stop offset="0" stop-color="#c3c3c3"/><stop offset=".5" stop-color="#fff"/><stop offset="1" stop-color="#fff"/></linearGradient><linearGradient id="r"><stop offset="0" stop-color="#bababa" stop-opacity=".957"/><stop offset=".5" stop-color="#fff" stop-opacity=".827"/><stop offset="1" stop-color="#fff"/></linearGradient><linearGradient id="p"><stop offset="0" stop-opacity=".203"/><stop offset="1" stop-opacity="0"/></linearGradient><linearGradient id="o"><stop offset="0"/><stop offset="1" stop-opacity="0"/></linearGradient><linearGradient id="n"><stop offset="0" stop-color="#c6c6c6"/><stop offset="1" stop-color="#d2d2d2"/></linearGradient><linearGradient id="m"><stop offset="0" stop-color="#374359"/><stop offset="1" stop-color="#202733" stop-opacity=".953"/></linearGradient><linearGradient id="l"><stop offset="0" stop-color="#252525"/><stop offset="1" stop-color="#3d3d3d"/></linearGradient><linearGradient id="k"><stop offset="0" stop-opacity=".214"/><stop offset="1" stop-color="#fff"/></linearGradient><linearGradient id="j"><stop offset="0" stop-color="#bababa"/><stop offset="1" stop-color="#c9cbc9"/></linearGradient><linearGradient id="i"><stop offset="0" stop-opacity=".417"/><stop offset="1" stop-opacity="0"/></linearGradient><linearGradient id="h"><stop offset="0" stop-color="#fff"/><stop offset="1" stop-opacity=".792"/></linearGradient><linearGradient id="g"><stop offset="0" stop-color="#a6afb1"/><stop offset="1" stop-color="#c7cdcd"/></linearGradient><linearGradient id="d"><stop offset="0" stop-opacity=".125"/><stop offset="1" stop-color="#4bd865" stop-opacity="0"/></linearGradient><linearGradient id="c"><stop offset="0" stop-color="#80e493"/><stop offset="1" stop-color="#4bd865"/></linearGradient><linearGradient id="b"><stop offset="0" stop-color="#fff"/><stop offset="1" stop-color="#dadada"/></linearGradient><linearGradient id="e"><stop offset="0" stop-color="#bababa" stop-opacity=".957"/><stop offset=".17" stop-color="#fff" stop-opacity=".827"/><stop offset="1" stop-color="#fff"/></linearGradient><linearGradient id="f"><stop offset="0" stop-color="#c3c3c3"/><stop offset=".252" stop-color="#fff"/><stop offset="1" stop-color="#fff"/></linearGradient><linearGradient id="a"><stop offset="0" stop-color="#dadada"/><stop offset="1" stop-color="#fff"/></linearGradient><linearGradient xlink:href="#a" id="E" gradientUnits="userSpaceOnUse" gradientTransform="matrix(-.82953 0 0 .82953 332.458 261.268)" x1="17.92" y1="19.84" x2="17.92" y2="11.307"/><linearGradient xlink:href="#n" id="C" gradientUnits="userSpaceOnUse" gradientTransform="matrix(-.8756 0 0 .88884 473.833 137.88)" x1="186.244" y1="149" x2="186.244" y2="159.943"/><linearGradient xlink:href="#p" id="D" x1="193" y1="150.033" x2="193" y2="158" gradientUnits="userSpaceOnUse" gradientTransform="matrix(1.33583 0 0 1.33583 58.403 68.516)"/><linearGradient xlink:href="#f" id="B" x1="-23.835" y1="47.253" x2="-23.835" y2="57.711" gradientUnits="userSpaceOnUse" gradientTransform="matrix(3.32506 0 0 3.31893 354.09 136.327)"/><linearGradient gradientTransform="matrix(1.33583 0 0 1.33583 58.403 63.172)" xlink:href="#l" id="A" x1="164.79" y1="170.337" x2="164.79" y2="181.809" gradientUnits="userSpaceOnUse"/><linearGradient xlink:href="#k" id="z" x1="128" y1="141.741" x2="128" y2="146.399" gradientUnits="userSpaceOnUse" gradientTransform="matrix(1.33583 0 0 1.33583 58.403 68.516)"/><linearGradient xlink:href="#i" id="y" gradientUnits="userSpaceOnUse" x1="160" y1="168" x2="160" y2="171" gradientTransform="matrix(1.33583 0 0 1.33583 47.716 60.5)"/><linearGradient gradientTransform="matrix(2.49394 0 0 2.49394 212.158 216.955)" xlink:href="#e" id="x" x1="23.75" y1="11.188" x2="23.75" y2="2.875" gradientUnits="userSpaceOnUse"/><linearGradient gradientTransform="matrix(1.33583 0 0 1.33583 58.403 63.172)" xlink:href="#m" id="w" x1="160.584" y1="120.75" x2="160.584" y2="137.129" gradientUnits="userSpaceOnUse"/><linearGradient xlink:href="#a" id="v" gradientUnits="userSpaceOnUse" gradientTransform="translate(291.965 245.238) scale(.82953)" x1="17.92" y1="19.84" x2="17.92" y2="11.307"/><linearGradient xlink:href="#c" id="t" x1="186.244" y1="149" x2="186.244" y2="159.943" gradientUnits="userSpaceOnUse" gradientTransform="matrix(.8756 0 0 .88884 150.59 121.85)"/><linearGradient xlink:href="#o" id="u" x1="195" y1="140" x2="195" y2="147.803" gradientUnits="userSpaceOnUse" gradientTransform="matrix(1.33583 0 0 1.33583 58.403 65.844)"/><linearGradient xlink:href="#b" id="s" x1="163" y1="146.121" x2="163" y2="179.803" gradientUnits="userSpaceOnUse" gradientTransform="matrix(1.33583 0 0 1.43367 58.403 36.21)"/></defs><g transform="translate(-208 -208)"><path d="M246.756 222.136v1.336h-2.672v13.359h-5.343l-.01 7.861H213.36l-1.336 1.336v53.587l1.336 1.336h12.138l10.571-12.023h72.135l10.74 12.023h12.212l1.093-1.358v-52.198l-2.672-2.703h-24.045v-7.861h-5.343v-13.359h-2.672v-1.336z" style="isolation:auto;mix-blend-mode:normal;marker:none" color="#000" overflow="visible" fill-opacity=".182" paint-order="fill markers stroke"/><path d="M213.36 247.364l1.336-1.336h114.881l1.336 1.336v50.915l-1.336 1.336h-9.35l-10.687-12.023h-74.807l-10.696 12.023h-9.341l-1.336-1.336z" style="isolation:auto;mix-blend-mode:normal;marker:none" color="#000" display="block" overflow="visible" fill="url(#s)" paint-order="fill markers stroke"/><path d="M306.868 252.86h10.687c4.007 0 5.343 2.672 5.343 5.344s-1.336 5.343-5.238 5.343h-10.792c-4.007 0-5.343-2.475-5.343-5.343s1.336-5.343 5.343-5.343z" fill="url(#t)" stroke="url(#u)" stroke-width=".668" stroke-miterlimit="4.6" stroke-opacity=".161"/><path d="M311.304 258.793a4.373 4.373 0 0 1-4.372 4.372 4.373 4.373 0 0 1-4.373-4.372 4.373 4.373 0 0 1 4.373-4.373 4.373 4.373 0 0 1 4.372 4.373z" fill-opacity=".202"/><path d="M311.24 258.096a4.373 4.373 0 0 1-4.372 4.372 4.373 4.373 0 0 1-4.372-4.372 4.373 4.373 0 0 1 4.372-4.373 4.373 4.373 0 0 1 4.373 4.373z" fill="url(#v)" stroke="#19b796" stroke-width=".332" stroke-miterlimit="4.6" stroke-opacity=".283"/><path style="isolation:auto;mix-blend-mode:normal" d="M245.42 224.945v13.21l-5.343.011v7.852h64.12v-7.852h-5.344v-13.358z" color="#000" overflow="visible" fill="url(#w)"/><path d="M248.092 223.017h48.09v23.164h-48.09z" style="isolation:auto;mix-blend-mode:normal" color="#000" overflow="visible" fill="url(#x)"/><path style="line-height:normal;font-variant-ligatures:normal;font-variant-position:normal;font-variant-caps:normal;font-variant-numeric:normal;font-variant-alternates:normal;font-feature-settings:normal;text-indent:0;text-align:start;text-decoration-line:none;text-decoration-style:solid;text-decoration-color:#000;text-transform:none;text-orientation:mixed;shape-padding:0;isolation:auto;mix-blend-mode:normal;marker:none" d="M309.54 287.592l10.687 12.075 9.35-.052 1.336-1.336v-50.762l-1.336-1.336H214.696l-1.336 1.336v50.762l1.336 1.336h9.35l10.687-12.023v-1.336l-10.686 12.023h-8.015l-1.336-1.336v-48.09l1.336-1.336h112.21l1.335 1.336v48.09l-1.335 1.336h-8.015l-10.687-12.023z" color="#000" font-weight="400" font-family="sans-serif" white-space="normal" display="block" overflow="visible" fill="#fff" fill-opacity=".823" paint-order="fill markers stroke"/><path d="M237.405 284.92h69.463c1.559 0 2.672 1.114 2.672 2.672 0 1.56-1.113 2.672-2.672 2.672h-69.463c-1.559 0-2.672-1.113-2.672-2.672 0-1.558 1.113-2.671 2.672-2.671z" style="isolation:auto;mix-blend-mode:normal;marker:none" color="#000" display="block" overflow="visible" fill="url(#y)" paint-order="fill markers stroke"/><path d="M232.062 260.876a2.672 2.672 0 0 1-2.672 2.671 2.672 2.672 0 0 1-2.672-2.671 2.672 2.672 0 0 1 2.672-2.672 2.672 2.672 0 0 1 2.672 2.672z" style="isolation:auto;mix-blend-mode:normal;marker:none" color="#000" display="block" overflow="visible" fill="#2db887" fill-opacity=".578" stroke="url(#z)" stroke-width=".534" paint-order="fill markers stroke"/><path d="M237.405 290.264h70.957l10.529 14.694h-92.173z" style="isolation:auto;mix-blend-mode:normal" color="#000" overflow="visible" fill="url(#A)"/><path d="M241.412 291.6h61.449l16.871 30.724h-93.855z" style="isolation:auto;mix-blend-mode:normal" color="#000" overflow="visible" fill="url(#B)" stroke="#828282" stroke-width=".797"/><path style="isolation:auto;mix-blend-mode:normal;marker:none" d="M253.565 295.607l-.13 1.336h34.732v-1.336zm-.146 4.008l-.088 1.336h23.938v-1.336zm.097 4.007l-.081 1.336h21.31v-1.336zm-.102 4.008l.013 1.336h20.045v-1.336zm-1.388 4.007l.065 1.336h20.13v-1.336zm-1.263 4.008v1.336h21.374v-1.336z" color="#000" overflow="visible" fill="#ccc" fill-opacity=".812"/><path d="M290.158 317.444c-2.883-.125-5.568-1.221-7.436-3.035a8.647 8.647 0 0 1-1.844-2.6c-.663-1.462-.83-3.236-.448-4.766.733-2.939 3.208-5.34 6.594-6.396 1.764-.55 3.902-.69 5.747-.372a11.6 11.6 0 0 1 4.444 1.728c.532.341.796.585.99.915.19.322.213.503.098.759-.191.423-.849.75-1.606.798a2.516 2.516 0 0 1-1.133-.157c-.277-.1-.32-.133-.637-.489-.457-.511-.74-.767-1.235-1.116-1.046-.736-2.261-1.094-3.451-1.017-3.952.256-6.385 5.054-4.841 9.545.83 2.414 2.59 4.158 4.71 4.668 1.181.284 2.297.152 3.403-.402.72-.36 1.4-.935 1.898-1.6.4-.536.592-.713.972-.902.313-.155.337-.16.82-.192.47-.03.517-.026.806.07.379.123.728.336.87.529a.52.52 0 0 1 .11.359c0 .274-.155.49-.687.95-1.558 1.346-3.393 2.193-5.55 2.559-.625.106-1.968.191-2.594.164zm-.67-6.165c-.18-.062-.31-.18-.322-.288-.013-.124.264-.138.375-.02.152.164.63.108.614-.072-.01-.095-.107-.128-.513-.177-.335-.04-.47-.138-.49-.358-.012-.134.009-.197.102-.298.105-.115.148-.132.413-.163.243-.029.324-.022.455.033.155.066.278.198.288.308.01.098-.27.085-.387-.018-.077-.068-.144-.089-.267-.081-.208.014-.258.044-.248.153.01.095.105.13.487.182.33.044.498.158.516.352.027.287-.185.45-.622.478a1.308 1.308 0 0 1-.402-.032zm3.065-.199c-.179-.062-.31-.18-.321-.287-.014-.124.264-.139.374-.02.153.163.631.108.614-.072-.009-.095-.106-.129-.513-.177-.335-.04-.47-.139-.49-.359-.012-.133.01-.196.102-.297.106-.115.149-.132.413-.164.243-.028.324-.022.455.034.156.066.279.197.289.308.009.098-.271.085-.387-.019-.077-.068-.144-.088-.267-.08-.208.013-.258.044-.248.153.009.094.105.13.486.181.331.045.498.159.517.353.027.286-.186.45-.622.478a1.304 1.304 0 0 1-.402-.032zm-1.362-.163c-.04-.246-.07-.302-.333-.626-.16-.195-.28-.37-.27-.387.01-.017.1-.036.2-.043.177-.01.182-.008.34.223.088.129.178.233.2.231.022 0 .09-.116.15-.254.109-.249.112-.252.29-.263.1-.007.193 0 .207.016.013.016-.074.203-.194.417-.2.354-.219.412-.212.66l.008.273-.17.01-.171.011zm3.006-.441c-.033-.352-.067-.53-.107-.558-.032-.022-.146-.035-.252-.028-.186.012-.195.008-.205-.1l-.01-.112.676-.044.676-.043.01.112c.011.107.002.112-.183.124-.106.008-.216.035-.243.061-.034.033-.035.213-.001.565l.048.516-.18.01-.18.01zm1.067-.227l-.063-.673.586-.038.586-.038.01.11.011.111-.389.037c-.312.028-.397.049-.432.104-.031.05-.028.086.012.131.043.048.139.061.414.058.345-.004.358-.001.366.089.01.09-.003.095-.326.126-.374.037-.449.075-.435.221.015.163.091.185.523.157l.397-.025.01.112.01.112-.608.04-.608.039zm1.487-.1l-.063-.674.26-.007.26-.007.151.397c.084.218.172.398.197.4.024.004.08-.183.122-.414l.077-.419.255-.027.256-.028.064.675.063.675-.158.009-.158.009-.031-.327c-.046-.478-.105-.492-.19-.048l-.074.375-.18.01-.18.011-.142-.361c-.169-.428-.224-.406-.18.072l.03.327-.157.009-.158.009-.064-.675zm1.846-1.357a.892.892 0 0 1-.414-.325 1.07 1.07 0 0 1-.079-.333.655.655 0 0 1 .27-.622c.166-.119.62-.167.84-.09.172.06.37.26.328.328-.05.08-.314.063-.425-.027-.124-.101-.35-.104-.494-.007-.118.08-.169.376-.099.565.094.251.305.339.557.231.13-.055.199-.158.146-.218-.015-.018-.088-.028-.16-.024-.118.008-.134-.005-.144-.104l-.01-.112.338-.022.338-.022.033.356c.033.345.03.355-.07.362a.28.28 0 0 1-.156-.031c-.038-.027-.09-.018-.186.03-.14.073-.459.106-.613.064zm-9.554-.06l-.063-.673.477-.031c.467-.03.48-.029.619.07.123.087.145.128.162.312.017.184.004.227-.102.33-.104.1-.156.12-.364.133-.133.009-.264.037-.292.064-.027.026-.042.137-.03.246l.018.199-.18.01-.18.01zm.772-.16c.064-.063.023-.24-.068-.287-.108-.055-.261-.047-.327.016-.065.064-.045.268.033.324.064.046.295.01.362-.054zm.716.063l-.063-.673.544-.035c.542-.035.545-.035.687.065a.35.35 0 0 1 .102.488c-.053.088-.055.129-.008.194.032.045.08.188.109.317l.05.234h-.195l-.195.002-.048-.198c-.057-.234-.086-.26-.306-.275-.243-.017-.299.047-.274.311l.021.22-.18.01-.18.011zm.82-.165c.087-.034.11-.07.102-.158-.012-.125-.136-.18-.372-.164-.155.009-.225.077-.214.202.004.053.036.116.068.139.07.05.264.04.417-.019zm.803.06l-.063-.673.18-.01.18-.011.064.673.063.673-.18.01-.18.01zm.676-.046l-.063-.676h.192l.193-.002.3.366c.166.201.318.355.339.343.02-.012.022-.19.003-.395l-.035-.372.158-.009.158-.009.063.676.064.675h-.188c-.187.002-.19 0-.476-.352-.158-.195-.307-.35-.332-.346-.025.005-.034.17-.022.383l.022.375-.156.01-.157.008zm1.999.03c-.033-.351-.067-.529-.107-.557-.032-.023-.146-.036-.252-.028-.186.012-.195.008-.205-.1l-.01-.112.676-.044.676-.044.01.112c.011.108.002.113-.183.125-.106.008-.216.034-.243.061-.034.033-.035.213-.001.564l.048.516-.18.011-.18.01zm1.067-.227l-.063-.673.18-.01.18-.01.064.672.063.673-.18.01-.18.011zm.676-.046l-.064-.675.193-.001.193-.001.3.365c.166.202.318.356.339.343.02-.012.021-.19.003-.394l-.035-.372.158-.01.157-.008.064.675.063.675-.188.001c-.187.001-.189 0-.475-.353-.158-.194-.307-.35-.332-.345-.025.005-.035.17-.022.383l.022.375-.157.009-.156.009zm-7.387-.782c-.23-.085-.28-.204-.335-.783l-.05-.525.177-.011.175-.01.063.497c.07.556.107.62.345.605.238-.016.262-.084.227-.642l-.03-.5.175-.01.176-.011.05.525c.055.585.026.706-.194.82-.162.083-.61.11-.779.048zm1.302-.743l-.064-.675h.193l.192-.002.301.366c.165.2.318.355.338.342.021-.012.022-.19.003-.394l-.034-.372.157-.009.158-.009.064.675.063.675-.188.001c-.187.001-.19 0-.475-.353-.158-.194-.308-.35-.332-.345-.026.005-.035.17-.022.383l.021.375-.156.009-.156.009zm1.623-.102l-.063-.673.18-.01.18-.011.064.673.063.673-.18.01-.18.01zm.629.605c-.014-.016.062-.166.17-.333.108-.166.194-.323.191-.348 0-.024-.107-.165-.233-.312a2.51 2.51 0 0 1-.231-.295c-.001-.016.087-.034.198-.041.188-.012.21-.004.318.13.065.078.138.14.162.14.025-.004.08-.07.123-.15.07-.133.095-.148.29-.17.117-.015.214-.011.216.006 0 .017-.077.159-.175.315-.098.156-.175.305-.173.331.003.027.118.175.258.33.142.158.237.296.217.316-.02.02-.115.035-.211.034-.154 0-.191-.019-.296-.152-.067-.084-.144-.15-.174-.148-.029.003-.1.083-.159.18-.097.16-.122.176-.286.186-.099.007-.19 0-.205-.017z" fill-opacity=".208"/><path d="M291.13 316.707c-1.676-.043-3.123-.525-4.474-1.49-2.714-1.94-3.971-5.35-3.153-8.56a7.97 7.97 0 0 1 .862-2.049c.837-1.346 1.975-2.336 3.39-2.948.856-.37 1.451-.51 2.449-.573.776-.05 1.23-.025 1.909.104.536.1 1.517.438 2.04.7.866.433 1.838 1.198 2.491 1.96.493.575.498.616.186.636-.338.022-.75.022-1.093-.09-.321-.105-.455-.103-.708-.402-.802-.947-1.768-1.682-2.857-2.023-1.112-.347-2.283-.38-3.342.032-1.641.637-2.935 2.11-3.534 4.024-.347 1.11-.442 2.079-.324 3.321.111 1.172.544 2.2 1.057 3.168.21.397.831 1.296 1.114 1.611 1.863 2.076 4.226 2.388 6.471 1.263.688-.345 1.465-1.036 1.93-1.686.315-.44.488-.562.772-.732.352-.21 1.03-.214 1.268-.177.159.025-.641 1.21-1.262 1.813a7.275 7.275 0 0 1-3.554 1.92c-.384.086-1.309.186-1.638.177z" fill-opacity=".208"/><path d="M317.555 268.89h-10.687c-4.007 0-5.343 2.672-5.343 5.344s1.336 5.343 5.238 5.343h10.792c4.007 0 5.343-2.475 5.343-5.343s-1.336-5.343-5.343-5.343z" fill="url(#C)" stroke="url(#D)" stroke-width=".668" stroke-miterlimit="4.6"/><path d="M313.119 274.823a4.373 4.373 0 0 0 4.372 4.372 4.373 4.373 0 0 0 4.373-4.372 4.373 4.373 0 0 0-4.373-4.373 4.373 4.373 0 0 0-4.372 4.373z" fill-opacity=".202"/><path d="M313.182 274.126a4.373 4.373 0 0 0 4.373 4.372 4.373 4.373 0 0 0 4.372-4.372 4.373 4.373 0 0 0-4.372-4.373 4.373 4.373 0 0 0-4.373 4.373z" fill="url(#E)" stroke="#19b796" stroke-width=".332" stroke-miterlimit="4.6" stroke-opacity=".283"/><circle r=".668" cy="249.521" cx="216.699" style="isolation:auto;mix-blend-mode:normal;marker:none" color="#000" display="block" overflow="visible" fill="#a7a7a7" fill-opacity=".552" paint-order="fill markers stroke"/><circle r=".668" cy="296.275" cx="216.699" style="isolation:auto;mix-blend-mode:normal;marker:none" color="#000" display="block" overflow="visible" fill="#a7a7a7" fill-opacity=".552" paint-order="fill markers stroke"/><circle cy="249.521" cx="327.574" style="isolation:auto;mix-blend-mode:normal;marker:none" r=".668" color="#000" display="block" overflow="visible" fill="#a7a7a7" fill-opacity=".552" paint-order="fill markers stroke"/><circle r=".668" cy="296.275" cx="327.574" style="isolation:auto;mix-blend-mode:normal;marker:none" color="#000" display="block" overflow="visible" fill="#a7a7a7" fill-opacity=".552" paint-order="fill markers stroke"/></g></svg>