<svg xmlns="http://www.w3.org/2000/svg" xmlns:xlink="http://www.w3.org/1999/xlink" height="128" viewBox="0 0 128 128" width="128" enable-background="new"><title>Template icons dark</title><defs><linearGradient id="d"><stop offset="0" stop-color="#d4d4d4"/><stop offset="1" stop-color="#fbfbfb"/></linearGradient><linearGradient id="a"><stop offset="0" stop-color="#9a9a9a" stop-opacity=".973"/><stop offset="1" stop-color="#f4f4f4"/></linearGradient><linearGradient id="b"><stop offset="0" stop-color="#825cf4"/><stop offset="1" stop-color="#3958ef"/></linearGradient><linearGradient xlink:href="#b" id="f" gradientUnits="userSpaceOnUse" x1="23.375" y1="41.2" x2="23.375" y2="13.95" gradientTransform="translate(164.917 242.378) scale(2.5312)"/><linearGradient gradientTransform="translate(211.251 202.818) scale(2.5312)" xlink:href="#b" id="g" x1="23.375" y1="41.2" x2="23.375" y2="13.95" gradientUnits="userSpaceOnUse"/><linearGradient id="c"><stop offset="0" stop-color="#eaf2f7"/><stop offset="1" stop-color="#99b4c0"/></linearGradient><linearGradient xlink:href="#d" id="h" x1="276.22" y1="292" x2="276.22" y2="276.22" gradientUnits="userSpaceOnUse"/><filter id="e" x="-.021" width="1.042" y="-.028" height="1.055" color-interpolation-filters="sRGB"><feGaussianBlur stdDeviation=".423"/></filter></defs><g color="#000" transform="translate(-208 -208)"><rect style="isolation:auto;mix-blend-mode:normal;marker:none" width="44" height="30" x="-3.249" y="17.533" rx="0" ry="1.515" transform="rotate(-9.77 1292.147 -1134.45) scale(2.5312)" overflow="visible" fill-opacity=".157" filter="url(#e)" enable-background="accumulate"/><rect transform="rotate(-9.77)" ry="3.835" rx="0" y="275.916" x="166.268" height="75.936" width="111.373" style="isolation:auto;mix-blend-mode:normal;marker:none" overflow="visible" fill="#fff" stroke="#000" stroke-width="1.311" stroke-opacity=".157" enable-background="accumulate"/><rect transform="rotate(-9.09)" style="isolation:auto;mix-blend-mode:normal;marker:none" width="106.31" height="70.874" x="172.51" y="275.79" ry="0" overflow="visible" fill="url(#f)" enable-background="accumulate"/><rect style="isolation:auto;mix-blend-mode:normal;marker:none" width="111.373" height="75.936" x="216.314" y="233.699" rx="0" ry="3.835" overflow="visible" fill="#fff" stroke="#000" stroke-width="1.311" stroke-opacity=".157" enable-background="accumulate"/><rect ry="0" y="236.23" x="218.845" height="70.874" width="106.31" style="isolation:auto;mix-blend-mode:normal;marker:none" overflow="visible" fill="url(#g)" enable-background="accumulate"/><path style="isolation:auto;mix-blend-mode:normal;marker:none" d="M261.536 238.24l.594 1.692-1.802-.047 1.766.334-.943 1.536 1.167-1.36.864 1.584-.593-1.693 1.802.047-1.766-.333.943-1.536-1.167 1.359zm20.157 1.187l.593 1.688-1.802-.042 1.76.328-.937 1.542 1.167-1.365.865 1.584-.594-1.693 1.802.047-1.766-.328.943-1.542-1.172 1.364zm19.797 2.37l.593 1.693-1.802-.047 1.766.333-.943 1.536 1.172-1.359.86 1.583-.594-1.692 1.802.041-1.76-.328.937-1.536-1.167 1.36zm10.906.354l.599 1.693-1.802-.047 1.76.333-.943 1.537 1.172-1.36.86 1.584-.594-1.693 1.802.047-1.76-.334.937-1.536-1.167 1.36zm-81.089 1.318l1.688 4.802-5.115-.125 5.005.937-2.671 4.37 3.317-3.865 2.448 4.495-1.693-4.807 5.12.13-5.005-.937 2.672-4.37-3.318 3.864zm25.13 3.541l.6 1.693-1.803-.041 1.76.328-.942 1.536 1.172-1.36.86 1.584-.594-1.693 1.802.047-1.76-.333.937-1.537-1.167 1.36zm22.605 3.11l-12.12 11.448c-3.89 2.348-1.082 3.693.562.349l11.724-11.62zm.776 6.083l-12.12 11.448c-3.497 3.489-.798 2.743.562.349l11.724-11.62z" display="block" overflow="visible" fill="#fff" fill-opacity=".335" enable-background="accumulate"/><path style="isolation:auto;mix-blend-mode:normal;marker:none" d="M268.199 241.996c-.526 0-.82.418-.952.9l-2.007 7.378a23.586 23.586 0 0 0-4.464 1.843l-6.643-3.822c-.432-.25-.936-.336-1.309.036l-5.435 5.436c-.373.372-.285.868-.037 1.301l3.757 6.57a23.84 23.84 0 0 0-1.955 4.568l-7.259 1.955c-.482.13-.9.426-.9.952v7.688c0 .526.419.816.9.947l7.1 1.934a23.866 23.866 0 0 0 1.96 4.82l-3.66 6.365c-.25.432-.336.936.036 1.309l5.436 5.435c.372.373.868.285 1.301.037l6.28-3.598a23.873 23.873 0 0 0 4.928 2.057l1.885 6.998c.13.482.426.9.952.9h7.688c.526 0 .816-.419.947-.9l1.908-7.003a23.863 23.863 0 0 0 4.862-2.047l6.349 3.65c.432.25.936.336 1.309-.036l5.435-5.436c.373-.372.285-.873.037-1.306l-3.684-6.424c.8-1.5 1.439-3.08 1.903-4.714l7.238-1.955c.482-.13.9-.42.9-.947V269.2c0-.526-.419-.82-.9-.952l-7.36-1.997c-.014-.043-.034-.084-.047-.128a23.584 23.584 0 0 0-1.812-4.351l3.82-6.638c.248-.432.335-.934-.037-1.306l-5.436-5.436c-.372-.372-.873-.287-1.306-.039l-6.628 3.799a23.59 23.59 0 0 0-4.468-1.862l-1.997-7.394c-.13-.482-.42-.897-.947-.897H268.2zM272.002 267a5.971 5.971 0 0 1 5.998 5.998 5.974 5.974 0 0 1-5.998 6.002 5.977 5.977 0 0 1-6.002-6.002 5.974 5.974 0 0 1 6.002-5.998z" overflow="visible" fill-opacity=".141" paint-order="fill markers stroke" enable-background="accumulate"/><path d="M268.583 245.128c-.473 0-.738.376-.856.809l-1.804 6.633c-1.402.42-2.747.972-4.013 1.657l-5.972-3.436c-.389-.224-.842-.302-1.176.032l-4.887 4.887c-.335.335-.256.78-.033 1.17l3.378 5.906a21.431 21.431 0 0 0-1.758 4.106l-6.525 1.758c-.434.117-.809.382-.809.855v6.912c0 .473.376.733.809.851l6.382 1.739a21.455 21.455 0 0 0 1.762 4.334l-3.29 5.72c-.224.39-.302.843.032 1.177l4.887 4.887c.335.335.78.256 1.17.033l5.646-3.235c1.402.78 2.889 1.401 4.43 1.85l1.694 6.29c.117.434.382.809.855.809h6.912c.473 0 .733-.376.851-.809l1.716-6.295a21.452 21.452 0 0 0 4.37-1.84l5.708 3.281c.389.224.842.302 1.176-.032l4.887-4.887c.334-.335.256-.785.033-1.174l-3.312-5.775a21.454 21.454 0 0 0 1.711-4.238l6.506-1.758c.434-.116.809-.377.809-.85v-6.912c0-.473-.376-.738-.809-.856l-6.616-1.795c-.012-.039-.03-.076-.042-.115a21.203 21.203 0 0 0-1.63-3.912l3.434-5.967c.224-.389.302-.84-.032-1.174l-4.887-4.887c-.335-.334-.785-.258-1.174-.035l-5.958 3.415a21.206 21.206 0 0 0-4.017-1.673l-1.796-6.647c-.116-.434-.377-.807-.85-.807h-6.912zm3.42 19.47c4.668 0 8.4 3.73 8.4 8.4a8.366 8.366 0 0 1-8.4 8.404 8.37 8.37 0 0 1-8.405-8.404c0-4.67 3.735-8.4 8.404-8.4z" style="isolation:auto;mix-blend-mode:normal;marker:none" overflow="visible" fill="url(#h)" paint-order="fill markers stroke" enable-background="accumulate"/></g></svg>