<svg xmlns="http://www.w3.org/2000/svg" xmlns:xlink="http://www.w3.org/1999/xlink" height="128" viewBox="0 0 128 128" width="128"><title>Template icons dark</title><defs><linearGradient id="g"><stop offset="0" stop-color="#1f97cf"/><stop offset="1" stop-color="#50b5e4"/></linearGradient><linearGradient id="f"><stop offset="0" stop-color="#62c8f7"/><stop offset="1" stop-color="#0ca3e8"/></linearGradient><linearGradient id="a"><stop offset="0" stop-color="#7ed6fb"/><stop offset="1" stop-color="#90ddfc"/></linearGradient><linearGradient id="b"><stop offset="0" stop-color="#7ed6fb"/><stop offset="1" stop-color="#8edcfc"/></linearGradient><linearGradient id="c"><stop offset="0" stop-color="#62c8f7"/><stop offset="1" stop-color="#36aaf2"/></linearGradient><linearGradient id="d"><stop offset="0" stop-color="#7ed6fb"/><stop offset="1" stop-color="#8fdcfc"/></linearGradient><linearGradient id="e"><stop offset="0" stop-color="#1581ce"/><stop offset="1" stop-color="#32a9e0"/></linearGradient><linearGradient y2="880.934" x2="165.724" y1="880.934" x1="138.929" gradientTransform="matrix(1.91897 0 0 1.91897 -47.662 -1449.761)" gradientUnits="userSpaceOnUse" id="h" xlink:href="#a"/><linearGradient gradientTransform="matrix(1.91897 0 0 1.91897 179.873 -1655.35)" gradientUnits="userSpaceOnUse" y2="988.557" x2="56.624" y1="986.071" x1="70.711" id="i" xlink:href="#b"/><linearGradient gradientTransform="matrix(1.33 0 0 1.33 59.204 59.124)" xlink:href="#f" id="j" x1="148" y1="148" x2="150.614" y2="169.512" gradientUnits="userSpaceOnUse"/><linearGradient gradientTransform="matrix(1.33 0 0 1.33 59.204 59.124)" xlink:href="#g" id="k" x1="167.78" y1="164" x2="169.512" y2="143.055" gradientUnits="userSpaceOnUse"/><linearGradient gradientTransform="matrix(1.91897 0 0 1.91897 179.873 -1655.35)" gradientUnits="userSpaceOnUse" y2="1020.598" x2="57.452" y1="1022.255" x1="54.138" id="l" xlink:href="#c"/><linearGradient gradientTransform="matrix(1.91897 0 0 1.91897 179.873 -1655.35)" gradientUnits="userSpaceOnUse" y2="1008.997" x2="58.281" y1="1009.273" x1="72.644" id="m" xlink:href="#d"/><linearGradient gradientTransform="matrix(1.91897 0 0 1.91897 179.873 -1655.35)" gradientUnits="userSpaceOnUse" y2="1022.675" x2="44.922" y1="1020.149" x1="38.672" id="n" xlink:href="#e"/><linearGradient gradientTransform="matrix(1.91897 0 0 1.91897 179.873 -1655.35)" gradientUnits="userSpaceOnUse" y2="1009.393" x2="40.234" y1="1010.175" x1="23.438" id="o" xlink:href="#d"/></defs><path d="M39.67 10.527L4.134 32.52l24.14 19.924L4.134 72.37l24.142 14.942v7.967L63.9 117.452l-.16-42.667.004-.003.17 42.638 35.291-22.142v-7.754l24.628-15.272-24.316-19.778-.31.192v-.18l.068-.04L63.742 30.45 28.276 52.445l35.51-22.04-.039.03 35.611 22.039 24.314-19.776-35.71-22.143L63.8 30.391z" fill="none" stroke="#000" stroke-width="1.662" stroke-opacity=".209"/><path d="M63.74 30.45l35.536 21.995-35.293 22.142-35.71-22.142z" fill="#7ed6fb"/><path d="M212.133 240.522l35.535-21.996 24.133 19.869-35.527 22.05z" fill="url(#h)" transform="translate(-208 -208)"/><path d="M271.747 238.434l35.61 22.04 24.315-19.777-35.709-22.141z" fill="url(#i)" transform="translate(-208 -208)"/><path d="M271.74 238.45v37.745l-35.293 22.141-.172-37.89z" fill="url(#j)" transform="translate(-208 -208)"/><path d="M271.74 238.45l.002 37.745 35.292 22.141.172-37.89z" fill="url(#k)" transform="translate(-208 -208)"/><path d="M307.208 260.445l-.001 42.834-35.293 22.141-.172-42.98z" fill="url(#l)" transform="translate(-208 -208)"/><path d="M271.983 282.47l35.535-21.995 24.315 19.778-35.71 22.141z" fill="url(#m)" transform="translate(-208 -208)"/><path d="M236.274 260.445v42.834l35.627 22.171-.162-43.01z" fill="url(#n)" transform="translate(-208 -208)"/><path d="M212.133 280.37l35.535 21.995 24.315-19.778-35.71-22.142z" fill="url(#o)" transform="translate(-208 -208)"/></svg>