<svg xmlns="http://www.w3.org/2000/svg" xmlns:xlink="http://www.w3.org/1999/xlink" height="128" viewBox="0 0 128 128" width="128"><title>Template icons dark</title><defs><linearGradient id="c"><stop offset="0" stop-color="#efefef" stop-opacity=".478"/><stop offset="1" stop-color="#efefef" stop-opacity="0"/></linearGradient><linearGradient id="b"><stop offset="0" stop-color="#ff053c"/><stop offset="1" stop-color="#0b31ff" stop-opacity=".974"/></linearGradient><linearGradient id="a"><stop offset="0" stop-color="#86dceb"/><stop offset="1" stop-color="#4bb7df"/></linearGradient><linearGradient xlink:href="#c" id="f" x1="160.849" y1="166.43" x2="160.849" y2="155.944" gradientUnits="userSpaceOnUse" gradientTransform="matrix(1.4882 0 0 1.4882 33.888 33.889)"/><linearGradient gradientTransform="matrix(1.31915 0 0 1.31915 60.936 60.936)" xlink:href="#b" id="e" x1="122" y1="183" x2="196" y2="142" gradientUnits="userSpaceOnUse"/><linearGradient xlink:href="#a" id="d" x1="24.535" y1="7.996" x2="24.705" y2="38.25" gradientUnits="userSpaceOnUse" gradientTransform="matrix(2.81122 0 0 2.81122 204.301 200.148)"/></defs><g color="#000" transform="translate(-208 -208)"><circle style="isolation:auto;mix-blend-mode:normal;marker:none" cx="272" cy="272" r="62" display="block" overflow="visible" fill-opacity=".157"/><circle style="isolation:auto;mix-blend-mode:normal;marker:none" cx="272" cy="272" r="58.712" overflow="visible" fill="url(#d)" stroke="#fff" stroke-width="3.272"/><circle r="58.712" cy="272" cx="272" style="isolation:auto;mix-blend-mode:normal;marker:none" overflow="visible" opacity=".109" fill="url(#e)" stroke="#fff" stroke-width="3.272"/><circle r="11.272" cy="272" cx="272" style="isolation:auto;mix-blend-mode:normal;marker:none" overflow="visible" fill="url(#f)"/><circle style="isolation:auto;mix-blend-mode:normal;marker:none" cx="272" cy="272" r="48.565" overflow="visible" fill="none" stroke="#fff" stroke-width="1.728" stroke-dasharray="1.72808511,6.91234043" stroke-opacity=".368"/><circle style="isolation:auto;mix-blend-mode:normal;marker:none" cx="272" cy="272" r="6.237" overflow="visible" fill="#fff" paint-order="markers stroke fill"/><circle style="isolation:auto;mix-blend-mode:normal;marker:none" cx="273.379" cy="234.019" r="5.41" overflow="visible" fill="#fff" fill-opacity=".989" paint-order="markers stroke fill"/><circle r="2.673" cy="234.019" cx="273.379" style="isolation:auto;mix-blend-mode:normal;marker:none" overflow="visible" fill="#77c5e8" paint-order="markers stroke fill"/><circle style="isolation:auto;mix-blend-mode:normal;marker:none" cx="238.523" cy="287.353" r="5.41" overflow="visible" fill="#fff" fill-opacity=".989" paint-order="markers stroke fill"/><circle r="2.673" cy="287.353" cx="238.523" style="isolation:auto;mix-blend-mode:normal;marker:none" overflow="visible" fill="#64add5" paint-order="markers stroke fill"/><circle style="isolation:auto;mix-blend-mode:normal;marker:none" cx="304.615" cy="290.573" r="5.41" overflow="visible" fill="#fff" fill-opacity=".989" paint-order="markers stroke fill"/><circle r="2.673" cy="290.573" cx="304.615" style="isolation:auto;mix-blend-mode:normal;marker:none" overflow="visible" fill="#54afe0" paint-order="markers stroke fill"/><path style="isolation:auto;mix-blend-mode:normal;marker:none" d="M329.102 269.908A57.129 58.712 0 0 1 272 328.074a57.129 58.712 0 0 1-57.102-57.94 57.129 58.712 0 0 0-.027.547A57.129 58.712 0 0 0 272 329.393a57.129 58.712 0 0 0 57.13-58.712 57.129 58.712 0 0 0-.028-.773z" overflow="visible" fill-opacity=".297"/><path d="M329.366 274.47A57.394 58.712 0 0 0 272 216.302a57.394 58.712 0 0 0-57.366 57.94 57.394 58.712 0 0 1-.028-.547A57.394 58.712 0 0 1 272 214.984a57.394 58.712 0 0 1 57.394 58.712 57.394 58.712 0 0 1-.028.773z" style="isolation:auto;mix-blend-mode:normal;marker:none" overflow="visible" fill="#242424" fill-opacity=".471"/><path style="isolation:auto;mix-blend-mode:normal;marker:none" d="M300.815 292.932a37.176 18.717 26.792 0 1-36.306-4.192 37.176 18.717 26.792 0 1-26.287-26.511 37.176 18.717 26.792 0 1 18.064-14.205" overflow="visible" fill="none" stroke="#fff" stroke-width="2.334" stroke-linecap="round" stroke-miterlimit="3.7" stroke-opacity=".984" paint-order="markers stroke fill"/><path style="isolation:auto;mix-blend-mode:normal;marker:none" d="M238.756 282.624a37.176 18.717-29.658 0 1 23.124-26.635 37.176 18.717-29.658 0 1 35.403-7.964 37.176 18.717-29.658 0 1 5.477 20.201" overflow="visible" fill="none" stroke="#fff" stroke-width="2.334" stroke-linecap="round" stroke-miterlimit="3.7" stroke-opacity=".984" paint-order="markers stroke fill"/><path style="isolation:auto;mix-blend-mode:normal;marker:none" d="M278.224 236.166a18.717 37.176 1.017 0 1 12.682 34.654 18.717 37.176 1.017 0 1-12.822 35.786 18.717 37.176 1.017 0 1-20.862-11.821" overflow="visible" fill="none" stroke="#fff" stroke-width="2.334" stroke-linecap="round" stroke-miterlimit="3.7" stroke-opacity=".984" paint-order="markers stroke fill"/></g></svg>