<svg xmlns="http://www.w3.org/2000/svg" xmlns:xlink="http://www.w3.org/1999/xlink" height="128" viewBox="0 0 128 128" width="128" enable-background="new"><title>Template icons dark</title><defs><linearGradient id="a"><stop offset="0" stop-color="#9a9a9a" stop-opacity=".973"/><stop offset="1" stop-color="#f4f4f4"/></linearGradient><linearGradient id="b"><stop offset="0" stop-color="#f598f8"/><stop offset="1" stop-color="#398bef"/></linearGradient><linearGradient xlink:href="#b" id="d" gradientUnits="userSpaceOnUse" x1="23.375" y1="41.2" x2="23.375" y2="13.95" gradientTransform="translate(165.39 239.416) scale(2.5312)"/><linearGradient gradientTransform="translate(211.251 199.818) scale(2.5312)" xlink:href="#b" id="e" x1="23.375" y1="41.2" x2="23.375" y2="13.95" gradientUnits="userSpaceOnUse"/><filter id="c" x="-.021" width="1.042" y="-.028" height="1.055" color-interpolation-filters="sRGB"><feGaussianBlur stdDeviation=".423"/></filter></defs><g color="#000" transform="translate(-208 -208)"><rect style="isolation:auto;mix-blend-mode:normal;marker:none" width="44" height="30" x="-3.249" y="17.533" rx="0" ry="1.515" transform="rotate(-9.77 1274.596 -1135.95) scale(2.5312)" overflow="visible" fill-opacity=".157" filter="url(#c)" enable-background="accumulate"/><rect transform="rotate(-9.77)" ry="3.835" rx="0" y="272.959" x="166.777" height="75.936" width="111.373" style="isolation:auto;mix-blend-mode:normal;marker:none" overflow="visible" fill="#fff" stroke="#000" stroke-width="1.311" stroke-opacity=".157" enable-background="accumulate"/><rect transform="rotate(-9.09)" style="isolation:auto;mix-blend-mode:normal;marker:none" width="106.31" height="70.874" x="172.984" y="272.828" ry="0" overflow="visible" fill="url(#d)" enable-background="accumulate"/><rect style="isolation:auto;mix-blend-mode:normal;marker:none" width="111.373" height="75.936" x="216.314" y="230.699" rx="0" ry="3.835" overflow="visible" fill="#fff" stroke="#000" stroke-width="1.311" stroke-opacity=".157" enable-background="accumulate"/><rect ry="0" y="233.23" x="218.845" height="70.874" width="106.31" style="isolation:auto;mix-blend-mode:normal;marker:none" overflow="visible" fill="url(#e)" enable-background="accumulate"/><path d="M291.57 263.49l33.585 24.477v16.137l-92.268-.167z" style="isolation:auto;mix-blend-mode:normal;marker:none" overflow="visible" fill="#fff" enable-background="accumulate"/><path style="isolation:auto;mix-blend-mode:normal;marker:none" d="M250.781 272.183l30.243 28.155 44.131 3.766h-106.31z" overflow="visible" fill="#fff" fill-opacity=".34" enable-background="accumulate"/><path style="isolation:auto;mix-blend-mode:normal;marker:none" d="M261.536 235.24l.594 1.692-1.802-.047 1.766.334-.943 1.536 1.167-1.36.864 1.584-.593-1.693 1.802.047-1.766-.333.943-1.536-1.167 1.359zm20.157 1.187l.593 1.688-1.802-.042 1.76.328-.937 1.542 1.167-1.365.865 1.584-.594-1.693 1.802.047-1.766-.328.943-1.542-1.172 1.364zm19.797 2.37l.593 1.693-1.802-.047 1.766.333-.943 1.536 1.172-1.359.86 1.583-.594-1.692 1.802.041-1.76-.328.937-1.536-1.167 1.36zm10.906.354l.599 1.693-1.802-.047 1.76.333-.943 1.537 1.172-1.36.86 1.584-.594-1.693 1.802.047-1.76-.334.937-1.536-1.167 1.36zm-81.089 1.318l1.688 4.802-5.115-.125 5.005.937-2.671 4.37 3.317-3.865 2.448 4.495-1.693-4.807 5.12.13-5.005-.937 2.672-4.37-3.318 3.864zm25.13 3.541l.6 1.693-1.803-.041 1.76.328-.942 1.536 1.172-1.36.86 1.584-.594-1.693 1.802.047-1.76-.333.937-1.537-1.167 1.36zm22.605 3.11l-12.12 11.448c-3.89 2.348-1.082 3.693.562.349l11.724-11.62zm.776 6.083l-12.12 11.448c-3.497 3.489-.798 2.743.562.349l11.724-11.62z" display="block" overflow="visible" fill="#fff" fill-opacity=".335" enable-background="accumulate"/></g></svg>