<svg xmlns="http://www.w3.org/2000/svg" xmlns:xlink="http://www.w3.org/1999/xlink" height="128" viewBox="0 0 128 128" width="128"><title>Template icons dark</title><defs><linearGradient id="d"><stop offset="0" stop-color="#fff" stop-opacity=".456"/><stop offset="1" stop-color="#fff" stop-opacity="0"/></linearGradient><linearGradient id="c"><stop offset="0" stop-color="#c7c7c7"/><stop offset="1" stop-color="#fff" stop-opacity=".989"/></linearGradient><linearGradient id="b"><stop offset="0" stop-color="#a61f23"/><stop offset="1" stop-color="#ff4955"/></linearGradient><linearGradient id="a"><stop offset="0" stop-color="#88c1df"/><stop offset="1" stop-color="#f0f5f8"/></linearGradient><linearGradient xlink:href="#b" id="h" gradientUnits="userSpaceOnUse" gradientTransform="translate(-129.846 -129.252) scale(2.51489)" x1="165.921" y1="192" x2="159" y2="147.661"/><linearGradient xlink:href="#a" id="e" x1="170" y1="186" x2="170" y2="118" gradientUnits="userSpaceOnUse" gradientTransform="matrix(1.33 0 0 1.33 57.26 56.87)"/><radialGradient xlink:href="#d" id="g" gradientUnits="userSpaceOnUse" gradientTransform="matrix(.7508 0 0 .58116 145.504 172.727)" cx="105.669" cy="162.232" fx="105.669" fy="162.232" r="45.374"/><radialGradient xlink:href="#d" id="f" cx="191" cy="155.342" fx="191" fy="155.342" r="45.374" gradientTransform="matrix(.99753 0 0 .77214 119.432 141.744)" gradientUnits="userSpaceOnUse"/></defs><path d="M65.149 5.485a34.683 34.683 0 0 0-33.185 24.631A34.683 34.683 0 0 0 3.47 64.226a34.683 34.683 0 0 0 14.017 27.803c4.684 4.265 10.899 6.88 17.763 6.88H91.53c4.865 0 9.398-1.325 13.303-3.602a34.683 34.683 0 0 0 19.332-31.081 34.683 34.683 0 0 0-25.634-33.44A34.683 34.683 0 0 0 65.15 5.485z" style="isolation:auto;mix-blend-mode:normal;marker:none" color="#000" display="block" overflow="visible" fill="none" stroke="#000" stroke-width="1.934" stroke-linecap="round" stroke-opacity=".066" paint-order="markers stroke fill"/><path style="isolation:auto;mix-blend-mode:normal;marker:none" d="M273.149 212.155a34.683 34.683 0 0 0-33.185 24.631 34.683 34.683 0 0 0-28.494 34.11 34.683 34.683 0 0 0 14.017 27.802c4.684 4.266 10.899 6.882 17.763 6.882H299.53c4.865 0 9.398-1.326 13.303-3.603a34.683 34.683 0 0 0 19.332-31.081 34.683 34.683 0 0 0-25.634-33.44 34.683 34.683 0 0 0-33.382-25.301z" color="#000" overflow="visible" fill="url(#e)" paint-order="markers stroke fill" transform="translate(-208 -208)"/><path style="isolation:auto;mix-blend-mode:normal;marker:none" d="M3.535 61.49a34.683 34.683 0 0 0-.065 1.406 34.683 34.683 0 0 0 14.017 27.803c4.684 4.265 10.899 6.88 17.763 6.88H91.53c4.865 0 9.398-1.325 13.303-3.602a34.683 34.683 0 0 0 19.332-31.081 34.683 34.683 0 0 0-.065-1.263 34.683 34.683 0 0 1-19.267 29.684A26.302 26.302 0 0 1 91.53 94.92H35.25c-6.864 0-13.079-2.616-17.763-6.881A34.683 34.683 0 0 1 3.535 61.49z" color="#000" overflow="visible" fill="#365a83" fill-opacity=".22" paint-order="markers stroke fill"/><path d="M273.149 212.155a34.683 34.683 0 0 0-33.185 24.631 34.683 34.683 0 0 0-28.494 34.11 34.683 34.683 0 0 0 14.017 27.802c4.684 4.266 10.899 6.882 17.763 6.882H299.53c4.865 0 9.398-1.326 13.303-3.603a34.683 34.683 0 0 0 19.332-31.081 34.683 34.683 0 0 0-25.634-33.44 34.683 34.683 0 0 0-33.382-25.301z" style="isolation:auto;mix-blend-mode:normal;marker:none" color="#000" overflow="visible" fill="url(#f)" paint-order="markers stroke fill" transform="translate(-208 -208)"/><path style="isolation:auto;mix-blend-mode:normal;marker:none" d="M273.149 212.155a34.683 34.683 0 0 0-33.185 24.631 34.683 34.683 0 0 0-28.494 34.11 34.683 34.683 0 0 0 14.017 27.802c4.684 4.266 10.899 6.882 17.763 6.882H299.53c4.865 0 9.398-1.326 13.303-3.603a34.683 34.683 0 0 0 19.332-31.081 34.683 34.683 0 0 0-25.634-33.44 34.683 34.683 0 0 0-33.382-25.301z" color="#000" overflow="visible" fill="url(#g)" paint-order="markers stroke fill" transform="translate(-208 -208)"/><path d="M64.998 28.507c-2.104-.001-4.253.95-5.836 2.849L23.11 79.178c-1.323 2.703-.278 5.408 3.502 5.408H52.9l8.648 35.242c.122 3.325 1.348 6.017 3.023 6.017 1.674 0 2.9-2.692 3.023-6.017l8.652-35.242h26.47c3.76 0 3.758-5.116 2.79-6.395L70.568 31.365c-1.41-1.902-3.467-2.857-5.57-2.858z" style="isolation:auto;mix-blend-mode:normal;marker:none" color="#000" overflow="visible" fill-opacity=".176" paint-order="markers stroke fill"/><path style="isolation:auto;mix-blend-mode:normal;marker:none" d="M272.998 231.1c-2.104-.001-4.253.95-5.836 2.849L231.11 281.77c-1.323 2.703-.278 5.408 3.502 5.408H260.9l8.648 35.242c.122 3.325 1.348 6.017 3.023 6.017 1.674 0 2.9-2.692 3.023-6.017l8.652-35.242h26.47c3.76 0 3.758-5.116 2.79-6.395l-34.938-46.826c-1.41-1.902-3.467-2.857-5.57-2.858z" color="#000" overflow="visible" fill="url(#h)" paint-order="markers stroke fill" transform="translate(-208 -208)"/><path style="isolation:auto;mix-blend-mode:normal;marker:none" d="M105.96 74.093c-.238 1.636-1.14 3.242-3.245 3.242h-26.47l-8.65 35.239c-.124 3.324-1.35 6.017-3.024 6.017-1.675 0-2.9-2.693-3.023-6.017L52.9 77.334H26.61c-2.28 0-3.548-.991-3.92-2.365-.515 2.248.705 4.212 3.92 4.212H52.9l8.648 35.239c.123 3.324 1.348 6.018 3.023 6.018s2.9-2.694 3.023-6.018l8.652-35.24h26.469c2.94 0 3.569-3.111 3.245-5.087z" color="#000" overflow="visible" fill="#5d0a0a" fill-opacity=".434" paint-order="markers stroke fill"/><path style="isolation:auto;mix-blend-mode:normal;marker:none" d="M64.998 23.101c-2.103 0-4.252.95-5.834 2.85L23.11 73.77c-.542 1.109-.662 2.204-.383 3.126.09-.335.216-.673.383-1.014l36.054-47.821c1.582-1.9 3.73-2.85 5.834-2.85 2.103.001 4.16.955 5.57 2.858 11.646 15.61 23.29 31.214 34.937 46.823.196.26.339.703.433 1.204.231-1.336.012-2.728-.433-3.315-11.646-15.61-23.29-31.214-34.937-46.823-1.41-1.903-3.467-2.857-5.57-2.858z" color="#000" overflow="visible" fill="red" fill-opacity=".363" paint-order="markers stroke fill"/><path d="M77.736 53.553h-18.01l.94-4.397h10.976l1.007-4.733H56.873l-4.968 23.43h4.766l2.182-10.239h11.433L60.35 67.45l1.746 3.088c.805-.537 2.115-.604 3.02-.604 1.612 0 3.19.537 4.834.537 1.508 0 3.051-.1 5.57-1.309l.879-4.128c-1.712.704-4.246 1.376-6.449 1.376-.906 0-1.745-.202-2.618-.336l9.63-9.365.773-3.156z" fill-opacity=".286"/><path d="M77.736 52.18h-18.01l.94-4.397h10.976l1.007-4.733H56.873l-4.968 23.43h4.766l2.182-10.239h11.433l-9.935 9.835 1.746 3.088c.805-.537 2.115-.604 3.02-.604 1.612 0 3.19.537 4.834.537 1.508 0 3.051-.1 5.57-1.309l.879-4.128c-1.712.704-4.246 1.376-6.449 1.376-.906 0-1.745-.202-2.618-.336l9.63-9.365.773-3.156z" fill="#fff"/></svg>