<svg xmlns="http://www.w3.org/2000/svg" xmlns:xlink="http://www.w3.org/1999/xlink" height="128" viewBox="0 0 128 128" width="128"><title>Template icons dark</title><defs><linearGradient id="c"><stop offset="0" stop-color="#fff" stop-opacity=".172"/><stop offset="1" stop-opacity="0"/></linearGradient><linearGradient id="b"><stop offset="0" stop-color="#730216" stop-opacity=".781"/><stop offset="1" stop-color="#d9042a" stop-opacity=".027"/></linearGradient><linearGradient id="a"><stop offset="0" stop-color="#d40e0e"/><stop offset="1" stop-color="#910404" stop-opacity=".965"/></linearGradient><linearGradient gradientTransform="matrix(1.32824 0 0 1.32824 59.61 58.613)" xlink:href="#c" id="f" x1="160" y1="197.921" x2="160" y2="120" gradientUnits="userSpaceOnUse"/><linearGradient xlink:href="#b" id="e" gradientUnits="userSpaceOnUse" x1="198.319" y1="122.536" x2="175.155" y2="144.161" gradientTransform="matrix(1.32824 0 0 1.32824 58.613 -484.646)"/><linearGradient gradientTransform="matrix(1.32824 0 0 1.32824 59.61 58.613)" xlink:href="#a" id="d" x1="160.855" y1="121.51" x2="160.855" y2="200.855" gradientUnits="userSpaceOnUse"/></defs><path style="isolation:auto;mix-blend-mode:normal;marker:none" color="#000" display="block" overflow="visible" fill-opacity=".078" paint-order="fill markers stroke" d="M8.343 7.344h110.244v111.572H8.343z"/><path style="isolation:auto;mix-blend-mode:normal;marker:none" color="#000" display="block" overflow="visible" fill-opacity=".078" paint-order="fill markers stroke" d="M9.671 8.673h108.915v108.915H9.671z"/><path style="isolation:auto;mix-blend-mode:normal;marker:none" color="#000" overflow="visible" fill="url(#d)" paint-order="fill markers stroke" d="M218.999 218.001h106.259V324.26H218.999z" transform="translate(-208 -208)"/><path style="isolation:auto;mix-blend-mode:normal;marker:none" transform="rotate(90 0 -208)" color="#000" display="block" overflow="visible" fill="url(#e)" paint-order="fill markers stroke" d="M218.001-325.258H324.26v106.259H218.001z"/><path d="M45.533 76.413v9.297c7.141.596 16.155-2.139 21.252-17.267h10.626v-9.297H70.77c3.12-3.853 7.491-7.035 11.954-7.97v-9.298c-16.226 1.619-18.304 10.834-22.58 18.596-5.872 10.89-9.37 13.017-14.61 15.939z" fill-opacity=".151" fill-rule="evenodd"/><path d="M45.533 75.084v9.298c7.141.595 16.155-2.14 21.252-17.267h10.626v-9.298H70.77c3.12-3.852 7.491-7.034 11.954-7.97V40.55C66.498 42.17 64.42 51.383 60.144 59.146c-5.872 10.89-9.37 13.017-14.61 15.938z" fill="#fefefe" fill-rule="evenodd"/><path style="line-height:1000%;-inkscape-font-specification:'sans-serif Bold'" d="M64.129 81.726v.597h1.017v2.468h.792v-2.468h1.015v-.597zm3.23 0v3.065h.75V82.55l.706 1.653h.502l.706-1.653v2.24h.747v-3.064h-1.004l-.701 1.641-.7-1.641z" font-weight="700" font-family="sans-serif" letter-spacing="0" word-spacing="0" fill="#fff"/><path style="line-height:normal;font-variant-ligatures:normal;font-variant-position:normal;font-variant-caps:normal;font-variant-numeric:normal;font-variant-alternates:normal;font-feature-settings:normal;text-indent:0;text-align:start;text-decoration-line:none;text-decoration-style:solid;text-decoration-color:#000;text-transform:none;text-orientation:mixed;shape-padding:0;isolation:auto;mix-blend-mode:normal;marker:none" d="M325.258 218H218.999v106.26h106.259zm-1.328 1.33V322.93H220.327V219.33z" color="#000" font-weight="400" font-family="sans-serif" white-space="normal" overflow="visible" fill="url(#f)" paint-order="fill markers stroke" transform="translate(-208 -208)"/><path d="M112.807 107.588a5.557 5.557 0 0 0-5.547-5.546 5.557 5.557 0 0 0-5.546 5.546 5.557 5.557 0 0 0 5.546 5.547 5.557 5.557 0 0 0 5.547-5.547zm11.092-2.361v4.81c0 .324-.26.716-.607.78l-4.009.607c-.238.693-.498 1.343-.844 1.971.736 1.063 1.517 2.015 2.318 2.99a.85.85 0 0 1 .216.542.72.72 0 0 1-.195.498c-.52.693-3.444 3.878-4.182 3.878-.195 0-.39-.087-.563-.195l-2.99-2.34c-.628.325-1.3.608-1.971.824-.15 1.322-.281 2.73-.628 4.03a.795.795 0 0 1-.78.607h-4.81c-.39 0-.736-.281-.779-.65l-.607-3.987a12.738 12.738 0 0 1-1.95-.801l-3.054 2.318a.83.83 0 0 1-.542.196.782.782 0 0 1-.542-.239c-1.149-1.04-2.665-2.383-3.575-3.64a.84.84 0 0 1-.15-.497c0-.196.064-.347.172-.498.736-.997 1.538-1.95 2.276-2.969a11.538 11.538 0 0 1-.89-2.145l-3.963-.585c-.37-.066-.628-.412-.628-.78v-4.81c0-.324.259-.715.585-.779l4.029-.607c.216-.694.498-1.344.844-1.993-.736-1.04-1.517-2.015-2.318-2.99a.794.794 0 0 1-.216-.52c0-.195.088-.346.195-.497.52-.716 3.445-3.879 4.182-3.879.196 0 .39.088.563.217l2.99 2.318c.628-.324 1.3-.607 1.971-.824.151-1.321.282-2.73.628-4.03a.795.795 0 0 1 .78-.606h4.81c.39 0 .736.28.779.65l.607 3.986a12.73 12.73 0 0 1 1.95.802l3.077-2.319a.737.737 0 0 1 .52-.195c.195 0 .39.088.542.216 1.148 1.062 2.665 2.405 3.574 3.683a.74.74 0 0 1 .151.477.817.817 0 0 1-.173.498c-.736.997-1.538 1.95-2.275 2.969.368.693.67 1.408.888 2.122l3.965.608c.368.065.628.412.628.78z" fill-opacity=".271"/><path d="M111.55 106.332a5.557 5.557 0 0 0-5.546-5.547 5.557 5.557 0 0 0-5.546 5.547 5.557 5.557 0 0 0 5.546 5.546 5.557 5.557 0 0 0 5.546-5.546zm11.093-2.362v4.81c0 .325-.26.716-.608.78l-4.008.607c-.239.693-.498 1.344-.845 1.972.737 1.062 1.517 2.015 2.319 2.99a.85.85 0 0 1 .216.542.72.72 0 0 1-.196.497c-.52.694-3.444 3.879-4.182 3.879-.195 0-.39-.088-.562-.196l-2.99-2.339c-.628.324-1.3.607-1.972.824-.15 1.321-.28 2.73-.628 4.03a.795.795 0 0 1-.779.607h-4.81c-.39 0-.736-.282-.78-.65l-.607-3.987a12.737 12.737 0 0 1-1.95-.802l-3.054 2.319a.83.83 0 0 1-.542.195.781.781 0 0 1-.542-.238c-1.148-1.04-2.665-2.384-3.575-3.64a.839.839 0 0 1-.15-.498c0-.195.065-.347.173-.498.736-.997 1.537-1.95 2.275-2.969a11.54 11.54 0 0 1-.889-2.145l-3.964-.585c-.369-.065-.628-.412-.628-.78v-4.81c0-.324.26-.715.585-.779l4.03-.607c.216-.693.497-1.344.844-1.992-.736-1.04-1.517-2.015-2.318-2.99a.794.794 0 0 1-.217-.52c0-.195.088-.347.196-.498.52-.715 3.444-3.878 4.182-3.878.195 0 .39.088.563.216l2.99 2.318c.627-.324 1.3-.607 1.97-.823.152-1.322.282-2.73.629-4.03a.795.795 0 0 1 .78-.607h4.81c.389 0 .736.281.778.65l.608 3.987c.67.216 1.321.477 1.95.801l3.076-2.318a.737.737 0 0 1 .52-.196c.196 0 .39.088.542.217 1.148 1.062 2.665 2.404 3.575 3.682a.74.74 0 0 1 .15.477.817.817 0 0 1-.173.498c-.736.997-1.537 1.95-2.275 2.969.369.693.671 1.409.889 2.123l3.964.607c.369.066.628.412.628.78z" fill="#fbfbfb"/></svg>