<svg xmlns="http://www.w3.org/2000/svg" xmlns:xlink="http://www.w3.org/1999/xlink" height="128" viewBox="0 0 128 128" width="128"><title>Template icons dark</title><defs><linearGradient id="a"><stop offset="0" stop-color="#4b587a"/><stop offset="1" stop-color="#7a6982"/></linearGradient><linearGradient id="c"><stop offset="0" stop-color="#3e4453"/><stop offset="1" stop-color="#222630"/></linearGradient><linearGradient id="b"><stop offset="0" stop-color="#d4a8cf"/><stop offset="1" stop-color="#80c4e1" stop-opacity=".99"/></linearGradient><linearGradient id="d"><stop offset="0" stop-color="#9a9a9a" stop-opacity=".973"/><stop offset="1" stop-color="#f4f4f4"/></linearGradient><linearGradient xlink:href="#b" id="e" x1="4.995" y1="6.196" x2="40.265" y2="45.14" gradientUnits="userSpaceOnUse" gradientTransform="matrix(2.70428 0 0 2.70494 214.094 203.497)"/><linearGradient xlink:href="#c" id="f" gradientUnits="userSpaceOnUse" gradientTransform="matrix(2.41732 0 0 2.67312 341.76 298.782)" x1="-26.746" y1="-29.715" x2="-26.746" y2="10.031"/><linearGradient xlink:href="#d" id="g" gradientUnits="userSpaceOnUse" gradientTransform="matrix(4.45422 0 0 4.45422 179.923 231.434)" x1="20.942" y1="20.603" x2="20.942" y2="-3.389"/><linearGradient xlink:href="#a" id="h" gradientUnits="userSpaceOnUse" gradientTransform="matrix(.92153 0 0 .92153 14.613 13.752)" x1="191.407" y1="201.023" x2="181.641" y2="174.894"/></defs><g color="#000"><path style="isolation:auto;mix-blend-mode:normal;marker:none" d="M16 8h96v112H16z" display="block" overflow="visible" fill-opacity=".088"/><path d="M225 217v110.047l94-.047V217zm1 1h92v108h-92z" style="line-height:normal;font-variant-ligatures:normal;font-variant-position:normal;font-variant-caps:normal;font-variant-numeric:normal;font-variant-alternates:normal;font-feature-settings:normal;text-indent:0;text-align:start;text-decoration-line:none;text-decoration-style:solid;text-decoration-color:#000;text-transform:none;text-orientation:mixed;shape-padding:0;isolation:auto;mix-blend-mode:normal;marker:none" font-weight="400" font-family="sans-serif" white-space="normal" overflow="visible" fill="url(#e)" fill-opacity=".52" transform="translate(-208 -208)"/><path d="M226 218h92v108h-92z" style="isolation:auto;mix-blend-mode:normal;marker:none" display="block" overflow="visible" fill="url(#f)" transform="translate(-208 -208)"/><path style="isolation:auto;mix-blend-mode:normal;marker:none" d="M64 124L15 95V33L64 4l49.016 29L113 95z" overflow="visible" fill-opacity=".253"/><path style="isolation:auto;mix-blend-mode:normal;marker:none" d="M272 329l-49-29v-57l49-29 49 29v57z" overflow="visible" fill="url(#g)" transform="translate(-208 -208)"/><path style="isolation:auto;mix-blend-mode:normal;marker:none" d="M64 6L15 35v1L64 8l49 28v-1z" display="block" overflow="visible" fill="#fff"/><g opacity=".8"><path style="isolation:auto;mix-blend-mode:normal;marker:none" display="block" overflow="visible" fill="#869eb6" d="M45 32h14v5H45z"/><path style="isolation:auto;mix-blend-mode:normal;marker:none" display="block" overflow="visible" fill="#8e9f81" d="M60 32h7.998v5H60z"/><path style="isolation:auto;mix-blend-mode:normal;marker:none" display="block" overflow="visible" fill="#9e9e86" d="M45 39.999h14v5H45z"/><path style="isolation:auto;mix-blend-mode:normal;marker:none" display="block" overflow="visible" fill="#86b1d6" d="M60 39.999h7.998v5H60z"/><path style="isolation:auto;mix-blend-mode:normal;marker:none" display="block" overflow="visible" fill="#88885e" d="M69 39.999h9v5h-9z"/><path style="isolation:auto;mix-blend-mode:normal;marker:none" display="block" overflow="visible" fill="#987f95" d="M45 48h14v5H45z"/><path style="isolation:auto;mix-blend-mode:normal;marker:none" display="block" overflow="visible" fill="#9d875f" d="M60 48h7.998v5H60z"/><path style="isolation:auto;mix-blend-mode:normal;marker:none" display="block" overflow="visible" fill="#987f95" d="M45 64.001h14v5H45z"/><path style="isolation:auto;mix-blend-mode:normal;marker:none" display="block" overflow="visible" fill="#68798d" d="M60.01 64.001h12.998v5H60.01z"/><path style="isolation:auto;mix-blend-mode:normal;marker:none" display="block" overflow="visible" fill="#606d78" d="M74 64.001h14v5.101H74z"/><path style="isolation:auto;mix-blend-mode:normal;marker:none" display="block" overflow="visible" fill="#b29d71" d="M89.001 64.001h10v5H89z"/><path style="isolation:auto;mix-blend-mode:normal;marker:none" display="block" overflow="visible" fill="#b36b75" d="M45 79.999h14v5H45z"/><path style="isolation:auto;mix-blend-mode:normal;marker:none" display="block" overflow="visible" fill="#b47f70" d="M60 79.999h7.998v5H60z"/><path style="isolation:auto;mix-blend-mode:normal;marker:none" display="block" overflow="visible" fill="#a66f71" d="M45 88h15v5H45z"/><path style="isolation:auto;mix-blend-mode:normal;marker:none" display="block" overflow="visible" fill="#59758c" d="M61 88h10v5H61z"/><path style="isolation:auto;mix-blend-mode:normal;marker:none" display="block" overflow="visible" fill="#5e6974" d="M69 79.999h7.999v5h-8z"/><path style="isolation:auto;mix-blend-mode:normal;marker:none" display="block" overflow="visible" fill="#4d854d" d="M78 79.999h13.001v5h-13z"/><path style="isolation:auto;mix-blend-mode:normal;marker:none" display="block" overflow="visible" fill="#b36b75" d="M69 32h14v5H69z"/><path style="isolation:auto;mix-blend-mode:normal;marker:none" display="block" overflow="visible" fill="#c09d58" d="M84.001 32h13.002v5H84z"/><path style="isolation:auto;mix-blend-mode:normal;marker:none" display="block" overflow="visible" fill="#575f70" d="M35 32h5v5h-5zM35 39.999h5v5h-5zM35 48h5v5h-5zM35 56h5v5h-5zM35 64.001h5v5h-5zM35 72h5v5h-5zM35 79.999h5v5h-5zM35 88h5v5h-5z"/></g></g></svg>