<svg xmlns="http://www.w3.org/2000/svg" xmlns:xlink="http://www.w3.org/1999/xlink" width="128" viewBox="0 0 128 128" height="128"><title>Template icons dark</title><defs><linearGradient id="b"><stop offset="0" stop-color="#d6c8ee"/><stop offset="1" stop-color="#aad1f7"/></linearGradient><linearGradient id="a"><stop offset="0" stop-color="#5d8afc"/><stop offset="1" stop-color="#aa88d1"/></linearGradient><linearGradient gradientTransform="matrix(1.31083 0 0 1.31083 62.678 62.127)" xlink:href="#a" id="h" x1="188.825" y1="190.844" x2="130.018" y2="127.876" gradientUnits="userSpaceOnUse"/><linearGradient gradientTransform="matrix(1.31083 0 0 1.31083 62.678 62.127)" xlink:href="#b" id="j" x1="144.509" y1="142.827" x2="172.287" y2="176.313" gradientUnits="userSpaceOnUse"/><radialGradient gradientTransform="matrix(.06522 -.0039 .00381 .06372 -97.9 -56.391)" gradientUnits="userSpaceOnUse" id="c" r="776.623" fy="3474.059" fx="3838.903" cy="3474.059" cx="3838.903"><stop offset="0%" stop-color="#444367"/><stop offset="44.511%" stop-color="#29253B"/><stop offset="1" stop-color="#1f2032"/></radialGradient><radialGradient gradientTransform="matrix(.06522 -.0039 .00381 .06372 -97.9 -56.391)" gradientUnits="userSpaceOnUse" id="d" r="776.623" fy="3474.059" fx="3838.903" cy="3474.059" cx="3838.903"><stop offset="0%" stop-color="#444367"/><stop offset="44.511%" stop-color="#29253B"/><stop offset="1" stop-color="#1f2032"/></radialGradient><radialGradient gradientTransform="matrix(.06522 -.0039 .00381 .06372 -97.9 -56.391)" gradientUnits="userSpaceOnUse" id="e" r="776.623" fy="3474.059" fx="3838.903" cy="3474.059" cx="3838.903"><stop offset="0%" stop-color="#444367"/><stop offset="44.511%" stop-color="#29253B"/><stop offset="1" stop-color="#1f2032"/></radialGradient><radialGradient xlink:href="#f" id="i" gradientUnits="userSpaceOnUse" gradientTransform="matrix(.08624 -.00516 .00504 .08426 -69.03 -13.492)" cx="3838.903" cy="3474.059" fx="3838.903" fy="3474.059" r="776.623"/><radialGradient gradientTransform="matrix(.06522 -.0039 .00381 .06372 -97.9 -56.391)" gradientUnits="userSpaceOnUse" id="f" r="776.623" fy="3474.059" fx="3838.903" cy="3474.059" cx="3838.903"><stop offset="0%" stop-color="#444367"/><stop offset="44.511%" stop-color="#29253B"/><stop offset="1" stop-color="#1f2032"/></radialGradient><radialGradient gradientTransform="matrix(.06522 -.0039 .00381 .06372 -97.9 -56.391)" gradientUnits="userSpaceOnUse" id="g" r="776.623" fy="3474.059" fx="3838.903" cy="3474.059" cx="3838.903"><stop offset="0%" stop-color="#444367"/><stop offset="44.511%" stop-color="#29253B"/><stop offset="1" stop-color="#1f2032"/></radialGradient></defs><path d="M63.97 126.054c-6.2 0-50.593-25.63-53.693-31-3.1-5.369-3.1-56.63 0-62 3.1-5.369 47.494-31 53.694-31 6.2 0 50.593 25.631 53.693 31 3.1 5.37 3.1 56.631 0 62-3.1 5.37-47.493 31-53.693 31z" style="isolation:auto;mix-blend-mode:normal;marker:none" color="#000" overflow="visible" fill-opacity=".26"/><path style="isolation:auto;mix-blend-mode:normal;marker:none" d="M271.97 328.897c-5.683 0-46.384-23.499-49.226-28.421-2.842-4.923-2.842-51.92 0-56.843 2.842-4.922 43.543-28.421 49.227-28.421 5.684 0 46.385 23.499 49.227 28.421 2.842 4.923 2.842 51.92 0 56.843-2.842 4.922-43.543 28.42-49.227 28.42z" color="#000" overflow="visible" fill-opacity=".26" stroke="url(#h)" stroke-width="4.998" transform="translate(-208 -208)"/><path style="isolation:auto;mix-blend-mode:normal;marker:none" d="M322.028 300.955l-50.057 28.9-50.057-28.9v-57.801l50.057-28.9 50.057 28.9z" color="#000" overflow="visible" fill="url(#i)" transform="translate(-208 -208)"/><path style="line-height:normal;font-variant-ligatures:normal;font-variant-position:normal;font-variant-caps:normal;font-variant-numeric:normal;font-variant-alternates:normal;font-feature-settings:normal;text-indent:0;text-align:start;text-decoration-line:none;text-decoration-style:solid;text-decoration-color:#000;text-transform:none;text-orientation:mixed;shape-padding:0;isolation:auto;mix-blend-mode:normal;marker:none" d="M64.411 17.219L24.51 40.256v46.076l39.901 23.035 39.902-23.035V40.256zm0 4.026l36.416 21.024v42.048L64.41 105.343 27.996 84.317V42.27z" color="#000" font-weight="400" font-family="sans-serif" white-space="normal" overflow="visible" fill="#5ddffc" fill-opacity=".057"/><path d="M13.914 66.738V35.154l50.057-28.9 50.057 28.9z" style="isolation:auto;mix-blend-mode:normal;marker:none" color="#000" overflow="visible" fill="#fff" fill-opacity=".031"/><path d="M78.424 86.138V71.419H66.312v-6.092h19.453v23.527q-4.294 3.047-9.47 4.625-5.175 1.541-11.047 1.541-12.847 0-20.114-7.487-7.231-7.525-7.231-20.922 0-13.434 7.23-20.921 7.268-7.525 20.115-7.525 5.358 0 10.167 1.322 4.845 1.321 8.919 3.89v7.892q-4.111-3.487-8.736-5.249-4.624-1.762-9.726-1.762-10.057 0-15.123 5.616-5.028 5.616-5.028 16.737 0 11.085 5.028 16.7 5.066 5.616 15.123 5.616 3.927 0 7.01-.66 3.083-.698 5.542-2.13z" style="line-height:1000%;-inkscape-font-specification:orya" font-weight="400" font-family="orya" letter-spacing="0" word-spacing="0" fill-opacity=".479"/><path style="line-height:1000%;-inkscape-font-specification:orya" d="M286.424 290.205v-14.718h-12.112v-6.093h19.453v23.528q-4.294 3.046-9.47 4.624-5.175 1.542-11.047 1.542-12.847 0-20.114-7.488-7.231-7.524-7.231-20.921 0-13.434 7.23-20.922 7.268-7.524 20.115-7.524 5.358 0 10.167 1.321 4.845 1.322 8.919 3.89v7.892q-4.111-3.487-8.736-5.248-4.625-1.762-9.726-1.762-10.057 0-15.123 5.616-5.028 5.615-5.028 16.737 0 11.084 5.028 16.7 5.066 5.616 15.123 5.616 3.927 0 7.01-.66 3.083-.698 5.542-2.13z" font-weight="400" font-family="orya" letter-spacing="0" word-spacing="0" fill="url(#j)" transform="translate(-208 -208)"/><path style="isolation:auto;mix-blend-mode:normal;marker:none" d="M63.971 6.252L13.913 35.155v1.31L63.971 7.564l50.057 28.903v-1.311z" color="#000" overflow="visible" fill-opacity=".297"/><path d="M63.971 121.897L13.913 92.994v-1.31l50.058 28.902 50.057-28.902v1.31z" style="isolation:auto;mix-blend-mode:normal;marker:none" color="#000" overflow="visible" fill="#fff" fill-opacity=".099"/></svg>