<svg xmlns="http://www.w3.org/2000/svg" xmlns:xlink="http://www.w3.org/1999/xlink" height="128" viewBox="0 0 128 128" width="128" enable-background="new"><title>Template icons dark</title><defs><linearGradient id="a"><stop offset="0" stop-color="#4ceb78"/><stop offset="1" stop-color="#2ec43e"/></linearGradient><linearGradient id="b"><stop offset="0" stop-color="#e12850"/><stop offset="1" stop-color="#ff2e62"/></linearGradient><linearGradient id="c"><stop offset="0" stop-color="#ffa300"/><stop offset="1" stop-color="#ffcf46"/></linearGradient><linearGradient gradientTransform="matrix(2.63247 0 0 2.63247 208.82 208.82)" xlink:href="#c" id="e" x1="36.662" y1="41.352" x2="34.678" y2="22.168" gradientUnits="userSpaceOnUse"/><linearGradient gradientTransform="matrix(2.63247 0 0 2.63247 208.82 208.82)" xlink:href="#b" id="f" x1="31.235" y1="5.571" x2="18.309" y2="14.08" gradientUnits="userSpaceOnUse"/><linearGradient gradientTransform="matrix(2.63247 0 0 2.63247 208.82 208.82)" xlink:href="#a" id="g" x1="12.634" y1="23.19" x2="12.682" y2="39.659" gradientUnits="userSpaceOnUse"/><filter id="d" x="-.012" width="1.024" y="-.012" height="1.024" color-interpolation-filters="sRGB"/></defs><g transform="translate(-208 -208)"><circle style="isolation:auto;mix-blend-mode:normal;marker:none" cx="272" cy="272" r="60.438" color="#000" overflow="visible" fill="none" stroke="#000" stroke-width="7.124" stroke-opacity=".115" paint-order="fill markers stroke" enable-background="accumulate"/><path style="isolation:auto;mix-blend-mode:normal;marker:none" d="M159.552 136.448c-12.703 0-23 10.297-23 23s10.297 23 23 23 23-10.297 23-23-10.297-23-23-23zm-.138 16.597a6.424 6.424 0 1 1 0 12.847 6.424 6.424 0 0 1 0-12.847z" transform="matrix(2.63247 0 0 2.63247 -148.016 -147.743)" color="#000" overflow="visible" fill-opacity=".235" filter="url(#d)" enable-background="accumulate"/><path d="M277.265 216.718c-33.44 0-60.547 27.108-60.547 60.547 0 30.211 22.019 55.34 55.282 55.282 33.44-.06 60.547-27.108 60.547-60.547a60.297 60.297 0 0 0-13.671-38.325c-11.104-13.565-22.714-16.957-41.611-16.957zm-5.63 37.88c9.641 0 17.456 7.816 17.456 17.456s-9.315 18.82-18.955 18.82c-9.64 0-20.32-9.18-20.32-18.82s12.588-18.682 21.82-17.455z" fill="url(#e)" fill-rule="evenodd"/><path d="M272 211.453c-22.339 0-41.837 12.108-52.33 30.109l37.83 40.733c-3.204-4.251-3.32-8.701-3.32-10.24 0-9.18 7.09-16.69 16.092-17.388l56.28-8.9c-2.09-4.337-4.658-8.404-7.676-12.092-11.104-13.565-27.979-22.222-46.876-22.222z" fill="url(#f)" fill-rule="evenodd"/><path d="M218.139 299.667c10.204 19.872 29.717 32.243 50.689 32.797l14.464-47.432a17.421 17.421 0 0 1-3.683 2.557c-8.167 4.194-18.086 1.317-22.818-6.371l-33.048-45.753c-2.904 3.841-5.349 7.982-7.25 12.353-6.995 16.073-6.987 35.04 1.646 51.85z" fill="url(#g)" fill-rule="evenodd"/><path d="M223.546 235.063l31.62 31s-1.36 4.012-.986 8.31c.193 2.213 2.25 6.273 2.25 6.273zM326.541 245.828l-42.165 14.216s-3.081-3.043-5.656-4.054c-4.206-1.65-7.292-1.435-7.292-1.435zM268.835 332.514l4.776-42.995s3.527-.676 5.142-1.42c1.66-.763 4.545-3.06 4.545-3.06z" fill-opacity=".147" fill-rule="evenodd"/><path d="M271.636 286.457c7.954 0 14.402-6.448 14.402-14.403 0-7.954-6.448-14.402-14.402-14.402-7.954 0-14.402 6.448-14.402 14.402 0 7.955 6.448 14.403 14.402 14.403z" fill="#4690eb" fill-opacity=".335" fill-rule="evenodd"/></g></svg>