<svg xmlns="http://www.w3.org/2000/svg" xmlns:xlink="http://www.w3.org/1999/xlink" height="128" viewBox="0 0 128 128" width="128"><title>Template icons dark</title><defs><linearGradient id="j"><stop offset="0" stop-color="#fff" stop-opacity=".852"/><stop offset="1" stop-color="#fff" stop-opacity="0"/></linearGradient><linearGradient id="i"><stop offset="0" stop-color="#fff" stop-opacity=".56"/><stop offset="1" stop-color="#fff" stop-opacity="0"/></linearGradient><linearGradient id="h"><stop offset="0" stop-color="#28263e"/><stop offset="1" stop-color="#494b5a"/></linearGradient><linearGradient id="g"><stop offset="0" stop-color="#4abecb"/><stop offset=".505" stop-color="#60d9b6" stop-opacity=".989"/><stop offset="1" stop-color="#dff48b" stop-opacity=".973"/></linearGradient><linearGradient id="f"><stop offset="0" stop-color="#2aa591"/><stop offset="1" stop-color="#2498e4"/></linearGradient><linearGradient id="a"><stop offset="0" stop-color="#2a0ff3" stop-opacity=".132"/><stop offset=".521" stop-color="#3bf963" stop-opacity=".291"/><stop offset="1" stop-color="#ef4cff" stop-opacity=".297"/></linearGradient><linearGradient id="b"><stop offset="0" stop-color="#fff"/><stop offset="1" stop-color="#fff" stop-opacity="0"/></linearGradient><linearGradient id="c"><stop offset="0"/><stop offset="1" stop-opacity="0"/></linearGradient><linearGradient id="d"><stop offset="0" stop-color="#babdb6"/><stop offset="1" stop-color="#fff"/></linearGradient><linearGradient id="e"><stop offset="0" stop-color="#888a85"/><stop offset="1" stop-color="#555753"/></linearGradient><linearGradient xlink:href="#g" id="l" x1="167.206" y1="193.417" x2="165.746" y2="132.007" gradientUnits="userSpaceOnUse" gradientTransform="matrix(.87616 -.87616 .87616 .87616 -6.376 272.9)"/><linearGradient xlink:href="#h" id="k" x1="153.065" y1="190.903" x2="153.065" y2="125.679" gradientUnits="userSpaceOnUse"/><radialGradient xlink:href="#i" id="m" cx="160.296" cy="160.027" fx="160.296" fy="160.027" r="13.624" gradientTransform="matrix(.64508 0 0 .70955 168.573 158.512)" gradientUnits="userSpaceOnUse"/></defs><g color="#000" transform="translate(-208 -208)"><path d="M301.944 222.098l28.825 49.927-28.825 49.926h-57.65l-28.825-49.926 28.825-49.927z" style="isolation:auto;mix-blend-mode:normal;marker:none" display="block" overflow="visible" fill="none" stroke="#000" stroke-width="3.0037239000000002" stroke-opacity=".17" paint-order="fill markers stroke"/><path style="isolation:auto;mix-blend-mode:normal;marker:none" d="M196.373 149.254l-9.746 36.373-36.373 9.746-26.627-26.627 9.746-36.373 36.373-9.746z" transform="scale(1.53095) rotate(-45 191.751 146.134)" display="block" overflow="visible" fill="url(#k)" paint-order="fill markers stroke"/><path style="isolation:auto;mix-blend-mode:normal;marker:none" d="M244.293 322.17l-28.825-49.926.377-.652 28.448 49.276h57.65l28.45-49.276.376.652-28.825 49.927z" display="block" overflow="visible" fill-opacity=".544" paint-order="fill markers stroke"/><path d="M244.293 222.098l-28.825 49.927.377.651 28.448-49.276h57.65l28.45 49.276.376-.651-28.825-49.927z" style="isolation:auto;mix-blend-mode:normal;marker:none" display="block" overflow="visible" fill="#bcecf6" fill-opacity=".154" paint-order="fill markers stroke"/><path style="isolation:auto;mix-blend-mode:normal;marker:none" d="M249.788 232.92l-23.327 40.407 23.327 40.408h46.66l23.329-40.408-23.328-40.407zm10.357 18.893h24.866l12.432 21.535-12.432 21.534h-24.866l-12.433-21.534z" overflow="visible" fill-opacity=".418" paint-order="fill markers stroke"/><path style="isolation:auto;mix-blend-mode:normal;marker:none" d="M216.551 256.84l2.763-20.255a2.55 2.55 0 0 1 2.877-2.187l20.256 2.762c1.402.191 2.186 2.877.748 3.97l-23.025 17.544c-1.432 1.044-3.81-.43-3.619-1.833z" display="block" overflow="visible" fill-opacity=".297" paint-order="fill markers stroke"/><path d="M249.788 231.617l-23.327 40.408 23.327 40.407h46.66l23.329-40.407-23.328-40.408zm10.357 18.894h24.866l12.432 21.534-12.432 21.534h-24.866l-12.433-21.534z" style="isolation:auto;mix-blend-mode:normal;marker:none" display="block" overflow="visible" fill="url(#l)" paint-order="fill markers stroke"/><path d="M277.605 262.875l5.357 9.278-5.357 9.279h-10.714l-5.357-9.279 5.357-9.278z" style="isolation:auto;mix-blend-mode:normal;marker:none" display="block" overflow="visible" fill-opacity=".467" paint-order="fill markers stroke"/><path d="M278.062 260.78l-12.202.015c-.496 0-.865.353-1.041.744-.177.392-.2.874.112 1.186l6.092 6.092a1.317 1.317 0 0 0 1.86 0l5.625-5.624v-.001l.467-.465c.04-.042.034-.103.063-.15l.007.004.001-.022c.184-.304.192-.685.044-1.018-.173-.393-.536-.75-1.026-.76zm-.007.479c.257.006.48.206.598.473.119.268.094.547-.015.656l-6.092 6.092a.832.832 0 0 1-1.185 0l-6.092-6.092c-.11-.109-.133-.388-.014-.653.12-.264.34-.463.606-.463h.001zm3.132 3.492a.836.836 0 0 0-.563.24l-6.092 6.092a1.317 1.317 0 0 0 0 1.86l5.625 5.625.465.466h.001c.041.041.102.034.149.064l-.003.007h.021c.304.185.685.193 1.019.045.392-.174.75-.536.759-1.026v-.001l-.015-12.2c0-.496-.353-.867-.744-1.044a1.367 1.367 0 0 0-.623-.127zm-18.419.096a1.38 1.38 0 0 0-.624.124c-.392.174-.748.535-.758 1.025v.003l.014 12.2c0 .496.353.867.744 1.043.391.177.875.2 1.187-.112l6.092-6.092a1.319 1.319 0 0 0 0-1.861l-5.625-5.625-.467-.466c-.041-.041-.103-.033-.15-.063l.003-.007-.021-.001c-.125-.076-.249-.16-.395-.169zm18.462.388a.849.849 0 0 1 .384.08c.265.119.463.341.463.606l.014 12.193c-.006.257-.206.48-.474.598-.268.119-.547.094-.656-.015l-6.091-6.092a.832.832 0 0 1 0-1.185l6.091-6.092c.055-.055.153-.088.269-.093zm-18.506.096c.117.006.214.038.269.092l6.09 6.092a.83.83 0 0 1 0 1.184l-6.09 6.092c-.11.11-.389.135-.654.015-.265-.12-.461-.342-.461-.607l-.015-12.194c.006-.257.206-.478.473-.597a.876.876 0 0 1 .388-.077zm9.283 9.587c-.337 0-.674.13-.93.386l-5.626 5.624-.466.465v.001c-.042.041-.034.102-.064.149l-.006-.003-.001.018a1.104 1.104 0 0 0-.044 1.022c.173.392.535.75 1.025.76h.003l12.2-.016c.496 0 .867-.353 1.043-.744.176-.391.2-.873-.112-1.186l-6.092-6.091a1.314 1.314 0 0 0-.931-.386zm0 .475c.213 0 .427.082.592.248l6.092 6.091c.11.11.135.388.015.653-.12.265-.342.462-.607.462l-12.194.015c-.257-.006-.479-.206-.597-.474-.119-.268-.094-.547.015-.656l6.092-6.092a.834.834 0 0 1 .592-.247z" style="line-height:normal;font-variant-ligatures:normal;font-variant-position:normal;font-variant-caps:normal;font-variant-numeric:normal;font-variant-alternates:normal;font-feature-settings:normal;text-indent:0;text-align:start;text-decoration-line:none;text-decoration-style:solid;text-decoration-color:#000;text-transform:none;text-orientation:mixed;shape-padding:0;isolation:auto;mix-blend-mode:normal;marker:none" font-weight="400" font-family="sans-serif" white-space="normal" display="block" overflow="visible" fill="url(#m)" paint-order="fill markers stroke"/><path d="M249.788 231.617l-23.327 40.408.376.651 22.951-39.756h46.66l22.952 39.756.377-.651-23.328-40.408zm-1.7 41.08l-.376.65 12.433 21.535h24.866l12.432-21.534-.376-.652-12.056 20.883h-24.866z" style="isolation:auto;mix-blend-mode:normal;marker:none" display="block" overflow="visible" fill="#f7fdd4" fill-opacity=".918" paint-order="fill markers stroke"/><path d="M216.23 254.306l2.762-20.256a2.55 2.55 0 0 1 2.877-2.187l20.256 2.762c1.403.191 2.187 2.877.748 3.97l-23.025 17.544c-1.432 1.044-3.81-.43-3.618-1.833z" style="isolation:auto;mix-blend-mode:normal;marker:none" display="block" overflow="visible" fill="#d0ec8c" paint-order="fill markers stroke"/><path style="isolation:auto;mix-blend-mode:normal;marker:none" d="M288.653 314.386l-8.342 14.448a2.08 2.08 0 0 1-2.848.763l-14.448-8.342c-1-.577-.764-2.848.66-3.23l22.81-6.142c1.405-.346 2.746 1.502 2.168 2.503z" display="block" overflow="visible" fill-opacity=".379" paint-order="fill markers stroke"/><path d="M287.794 312.642l-8.341 14.448a2.08 2.08 0 0 1-2.849.763l-14.448-8.341c-1-.578-.763-2.85.661-3.23l22.81-6.143c1.404-.346 2.745 1.502 2.167 2.503z" style="isolation:auto;mix-blend-mode:normal;marker:none" display="block" overflow="visible" fill="#53c9c1" paint-order="fill markers stroke"/><path d="M243.132 302.52l-20.381 3.783a2.586 2.586 0 0 1-3.02-2.075l-3.784-20.38c-.262-1.412 2.075-3.021 3.585-1.984l24.215 16.589c1.46 1.046.796 3.805-.615 4.067z" style="isolation:auto;mix-blend-mode:normal;marker:none" display="block" overflow="visible" fill-opacity=".379" paint-order="fill markers stroke"/><path style="isolation:auto;mix-blend-mode:normal;marker:none" d="M243.176 299.894l-20.381 3.784a2.586 2.586 0 0 1-3.02-2.075l-3.784-20.381c-.262-1.412 2.075-3.02 3.585-1.983l24.214 16.588c1.46 1.047.797 3.805-.614 4.067z" display="block" overflow="visible" fill="#7bddab" paint-order="fill markers stroke"/><path d="M280.596 304.416l-8.552 5.87a1.294 1.294 0 0 1-1.803-.336l-5.87-8.552c-.406-.593.335-1.803 1.237-1.636l14.443 2.669c.88.182 1.138 1.578.545 1.985z" style="isolation:auto;mix-blend-mode:normal;marker:none" display="block" overflow="visible" fill-opacity=".308" paint-order="fill markers stroke"/><path style="isolation:auto;mix-blend-mode:normal;marker:none" d="M280.933 302.605l-8.552 5.87a1.294 1.294 0 0 1-1.803-.336l-5.87-8.552c-.407-.593.335-1.803 1.237-1.636l14.443 2.669c.88.182 1.138 1.578.545 1.985z" display="block" overflow="visible" fill="#fff289" paint-order="fill markers stroke"/><path style="isolation:auto;mix-blend-mode:normal;marker:none" d="M279.52 287.626l-1.812 6.765a.874.874 0 0 1-1.072.62l-6.765-1.814c-.469-.125-.62-1.072-.083-1.381l8.582-4.97c.532-.292 1.276.312 1.15.78z" display="block" overflow="visible" fill-opacity=".247" paint-order="fill markers stroke"/><path d="M278.91 285.77l-1.812 6.765a.874.874 0 0 1-1.072.619l-6.765-1.813c-.469-.125-.62-1.072-.083-1.382l8.582-4.969c.532-.292 1.276.311 1.15.78z" style="isolation:auto;mix-blend-mode:normal;marker:none" display="block" overflow="visible" fill="#ebda8c" paint-order="fill markers stroke"/><path style="isolation:auto;mix-blend-mode:normal;marker:none" d="M273.507 281.393l-4.453 1.675a.593.593 0 0 1-.766-.348l-1.675-4.453c-.116-.308.347-.766.73-.592l6.14 2.774c.371.178.332.828.024.944z" display="block" overflow="visible" fill="#f8f1b8" paint-order="fill markers stroke"/><path style="isolation:auto;mix-blend-mode:normal;marker:none" d="M258.883 221.254l16.31-9.417a2.349 2.349 0 0 1 3.216.862l9.417 16.31c.652 1.13-.862 3.215-2.47 2.785l-25.767-6.87c-1.568-.455-1.835-3.018-.706-3.67z" display="block" overflow="visible" fill-opacity=".264" paint-order="fill markers stroke"/><path d="M257.935 219.612l16.31-9.417a2.349 2.349 0 0 1 3.216.862l9.417 16.31c.652 1.13-.862 3.216-2.47 2.785l-25.767-6.87c-1.568-.455-1.835-3.018-.706-3.67z" style="isolation:auto;mix-blend-mode:normal;marker:none" display="block" overflow="visible" fill="#b6e895" paint-order="fill markers stroke"/><path d="M305.366 225.614l22.723 13.119a3.273 3.273 0 0 1 1.2 4.48l-13.119 22.723c-.908 1.574-4.48 1.2-5.08-1.04l-9.66-35.874c-.545-2.208 2.362-4.317 3.936-3.408z" style="isolation:auto;mix-blend-mode:normal;marker:none" display="block" overflow="visible" fill-opacity=".264" paint-order="fill markers stroke"/><path style="isolation:auto;mix-blend-mode:normal;marker:none" d="M306.686 223.326l22.724 13.12a3.273 3.273 0 0 1 1.2 4.48l-13.12 22.723c-.908 1.573-4.48 1.2-5.08-1.04l-9.66-35.875c-.544-2.208 2.363-4.316 3.936-3.408z" display="block" overflow="visible" fill="#60d7b5" paint-order="fill markers stroke"/><path d="M262.338 316.506c-.986.698-1.058 2.502-.182 3.007l.061.035c-.086-.858.33-1.89 1.25-2.138l22.812-6.143c.605-.15 1.187.12 1.62.542-.184-.934-1.208-1.932-2.272-1.67l-22.81 6.143a1.493 1.493 0 0 0-.48.224z" style="isolation:auto;mix-blend-mode:normal;marker:none" display="block" overflow="visible" fill="#fbfefd" fill-opacity=".379" paint-order="fill markers stroke"/><path d="M218.343 278.911c-1.282.081-2.547 1.252-2.35 2.31l.104.562c.448-1.149 2.234-2.097 3.48-1.241l24.213 16.589c.394.282.623.693.735 1.142.203-.883.03-1.896-.735-2.445l-24.213-16.589a1.93 1.93 0 0 0-1.234-.328z" style="isolation:auto;mix-blend-mode:normal;marker:none" display="block" overflow="visible" fill="#fff" fill-opacity=".874" paint-order="fill markers stroke"/><path d="M306.042 223.12c-1.603-.174-3.768 1.684-3.292 3.615l.04.153c.44-1.709 2.603-3.005 3.895-2.259l22.725 13.119a3.253 3.253 0 0 1 1.562 2.18 3.258 3.258 0 0 0-1.562-3.482l-22.725-13.12a1.633 1.633 0 0 0-.643-.206z" style="isolation:auto;mix-blend-mode:normal;marker:none" display="block" overflow="visible" fill="#fff" fill-opacity=".544" paint-order="fill markers stroke"/><circle cy="272.015" cx="272.009" style="isolation:auto;mix-blend-mode:normal;marker:none" r="1.193" display="block" overflow="visible" fill="#bde993" paint-order="fill markers stroke"/></g></svg>