<svg xmlns="http://www.w3.org/2000/svg" xmlns:xlink="http://www.w3.org/1999/xlink" height="128" viewBox="0 0 128 128" width="128"><title>Template icons dark</title><defs><linearGradient id="c"><stop offset="0" stop-color="#5299dc"/><stop offset="1" stop-color="#287bc8"/></linearGradient><linearGradient id="b"><stop offset="0" stop-color="#ebebeb"/><stop offset="1" stop-color="#a0afbe"/></linearGradient><linearGradient id="a"><stop offset="0" stop-color="#003783"/><stop offset="1" stop-color="#69e5ff"/></linearGradient><linearGradient xlink:href="#a" id="d" gradientUnits="userSpaceOnUse" x1="120" y1="120" x2="203.055" y2="204"/><linearGradient gradientTransform="translate(58 56.494) scale(1.33333)" xlink:href="#c" id="f" x1="181.918" y1="190.647" x2="170.052" y2="165.317" gradientUnits="userSpaceOnUse"/><linearGradient gradientTransform="translate(58 56.494) scale(1.33333)" xlink:href="#b" id="e" x1="155.098" y1="157.153" x2="197.653" y2="195.477" gradientUnits="userSpaceOnUse"/></defs><g color="#000"><path style="isolation:auto;mix-blend-mode:normal;marker:none" d="M14 12h97.667l.666 99H14z" display="block" overflow="visible" fill-opacity=".141" paint-order="fill markers stroke"/><path style="isolation:auto;mix-blend-mode:normal;marker:none" d="M15 14h96.01v96.01H15z" display="block" overflow="visible" fill="#2268ab" paint-order="fill markers stroke"/><path style="isolation:auto;mix-blend-mode:normal;marker:none" d="M47 46h32v32H47z" display="block" overflow="visible" fill="#3d8dd8" paint-order="fill markers stroke"/><path style="isolation:auto;mix-blend-mode:normal;marker:none" d="M47 14h32v32H47z" display="block" overflow="visible" fill="#2777c4" paint-order="fill markers stroke"/><path style="isolation:auto;mix-blend-mode:normal;marker:none" d="M15 14h32v32H15z" display="block" overflow="visible" fill="#1f609e" paint-order="fill markers stroke"/><path style="isolation:auto;mix-blend-mode:normal;marker:none" d="M15 46h32v32H15z" display="block" overflow="visible" fill="#3b83c8" paint-order="fill markers stroke"/><path style="isolation:auto;mix-blend-mode:normal;marker:none" d="M79 46h31.99v32H79z" display="block" overflow="visible" fill="#63a3e0" paint-order="fill markers stroke"/><path style="isolation:auto;mix-blend-mode:normal;marker:none" d="M79 14h31.99v32H79z" display="block" overflow="visible" fill="#3b8bd8" paint-order="fill markers stroke"/><path style="isolation:auto;mix-blend-mode:normal;marker:none" d="M47 78h32v31.99H47z" display="block" overflow="visible" fill="#61a2e0" paint-order="fill markers stroke"/><path style="isolation:auto;mix-blend-mode:normal;marker:none" d="M15 78h32v31.99H15z" display="block" overflow="visible" fill="#4893db" paint-order="fill markers stroke"/><path style="isolation:auto;mix-blend-mode:normal;marker:none" d="M15 109h96.01v.99H15z" display="block" overflow="visible" fill="#fff" fill-opacity=".257" paint-order="fill markers stroke"/><path d="M88.667 52.32a34.84 34.84 0 0 0-1.136.04c-.063-.009-.12-.038-.187-.038H55.258c-.77 0-1.391.62-1.391 1.391v32.63a34.84 34.84 0 0 0-.04.817A34.84 34.84 0 0 0 88.666 122a34.84 34.84 0 0 0 34.84-34.84 34.84 34.84 0 0 0-34.84-34.84z" style="isolation:auto;mix-blend-mode:normal;marker:none" display="block" overflow="visible" fill-opacity=".152" paint-order="fill markers stroke"/><path d="M296.666 261.826a33.333 33.333 0 0 0-1.085.04c-.062-.009-.116-.037-.18-.037h-30.698c-.737 0-1.33.593-1.33 1.33v31.22a33.333 33.333 0 0 0-.04.78 33.333 33.333 0 0 0 33.333 33.334A33.333 33.333 0 0 0 330 295.16a33.333 33.333 0 0 0-33.334-33.334z" style="isolation:auto;mix-blend-mode:normal;marker:none" display="block" overflow="visible" fill="url(#e)" paint-order="fill markers stroke" transform="translate(-208 -208)"/><path d="M313.805 295.16a17.139 17.139 0 0 1-17.139 17.138 17.139 17.139 0 0 1-17.138-17.138 17.139 17.139 0 0 1 17.138-17.14 17.139 17.139 0 0 1 17.14 17.14z" style="isolation:auto;mix-blend-mode:normal;marker:none" display="block" overflow="visible" fill="url(#f)" paint-order="fill markers stroke" transform="translate(-208 -208)"/><path d="M88.667 70.022A17.139 17.139 0 0 0 71.529 87.16a17.139 17.139 0 0 0 .026.791 17.139 17.139 0 0 1 17.112-16.596 17.139 17.139 0 0 1 17.111 16.346 17.139 17.139 0 0 0 .026-.541 17.139 17.139 0 0 0-17.138-17.138z" style="isolation:auto;mix-blend-mode:normal;marker:none" display="block" overflow="visible" fill-opacity=".215" paint-order="fill markers stroke"/><path style="isolation:auto;mix-blend-mode:normal;marker:none" d="M88.667 105.641a17.139 17.139 0 0 1-17.138-17.138 17.139 17.139 0 0 1 .026-.791 17.139 17.139 0 0 0 17.112 16.596 17.139 17.139 0 0 0 17.111-16.346 17.139 17.139 0 0 1 .026.541 17.139 17.139 0 0 1-17.137 17.138z" display="block" overflow="visible" fill="#fff" fill-opacity=".597" paint-order="fill markers stroke"/><path d="M55.367 86.493a33.333 33.333 0 0 0-.034.667 33.333 33.333 0 0 0 33.333 33.333A33.333 33.333 0 0 0 122 87.16a33.333 33.333 0 0 0-.029-.552 33.333 33.333 0 0 1-33.305 32.552 33.333 33.333 0 0 1-33.299-32.667z" style="isolation:auto;mix-blend-mode:normal;marker:none" display="block" overflow="visible" fill="#fff" fill-opacity=".492" paint-order="fill markers stroke"/><path d="M87 82v5h-5v2h5v5h2v-5h5v-2h-5v-5z" style="isolation:auto;mix-blend-mode:normal;marker:none" display="block" overflow="visible" fill="#fff" fill-opacity=".293" paint-order="fill markers stroke"/></g></svg>