<svg xmlns="http://www.w3.org/2000/svg" xmlns:xlink="http://www.w3.org/1999/xlink" height="128" viewBox="0 0 128 128" width="128"><title>Template icons dark</title><defs><linearGradient id="h"><stop offset="0" stop-color="#2b364a"/><stop offset="1" stop-color="#3a4964"/></linearGradient><linearGradient id="g"><stop offset="0" stop-color="#fff"/><stop offset="1" stop-color="#e1eef4"/></linearGradient><linearGradient id="f"><stop offset="0" stop-color="#fff"/><stop offset="1" stop-color="#dfdfdf" stop-opacity=".984"/></linearGradient><linearGradient id="e"><stop offset="0" stop-color="#009fe8" stop-opacity=".995"/><stop offset="1" stop-color="#0b7ac5" stop-opacity=".995"/></linearGradient><linearGradient id="d"><stop offset="0" stop-color="#d6dee0"/><stop offset="1" stop-color="#fff" stop-opacity=".474"/></linearGradient><linearGradient id="c"><stop offset="0" stop-color="#403d60" stop-opacity=".396"/><stop offset="1" stop-opacity=".073"/></linearGradient><linearGradient id="a"><stop offset="0" stop-color="#c9cfd1"/><stop offset="1" stop-color="#fff"/></linearGradient><linearGradient id="b"><stop offset="0" stop-color="#dce1e8"/><stop offset="1" stop-color="#fff"/></linearGradient><linearGradient gradientTransform="matrix(1.42448 0 0 1.42448 40.3 47.262)" xlink:href="#g" id="i" x1="133" y1="181" x2="191.252" y2="127" gradientUnits="userSpaceOnUse"/><linearGradient gradientTransform="matrix(1.42448 0 0 1.42448 40.3 47.262)" xlink:href="#e" id="j" x1="200.559" y1="193" x2="125" y2="123.315" gradientUnits="userSpaceOnUse"/><linearGradient gradientTransform="matrix(1.42448 0 0 1.42448 40.3 47.262)" xlink:href="#h" id="k" x1="181" y1="140" x2="198" y2="122.126" gradientUnits="userSpaceOnUse"/><linearGradient xlink:href="#f" id="l" x1="180" y1="177" x2="180" y2="183.78" gradientUnits="userSpaceOnUse" gradientTransform="matrix(1.42448 0 0 1.42448 40.3 50.111)"/><linearGradient xlink:href="#b" id="m" gradientUnits="userSpaceOnUse" gradientTransform="matrix(3.06279 0 0 3.06279 2010.506 944.268)" x1="-578.647" y1="-204.784" x2="-578.647" y2="-214.622"/></defs><path style="isolation:auto;mix-blend-mode:normal;marker:none" d="M4.044 4.593v117.944h120V78.574l-9.676-8.547h-.023V42.962l5.372-4.273V10.91H87.28l-4.273 4.144h-25.64L50.243 4.61v-.018z" color="#000" display="block" overflow="visible" fill="#03070a" fill-opacity=".095"/><path style="isolation:auto;mix-blend-mode:normal;marker:none" d="M219.784 225.322h99.713v96.864h-99.713z" color="#000" display="block" overflow="visible" fill="url(#i)" transform="translate(-208 -208)"/><path style="isolation:auto;mix-blend-mode:normal;marker:none" d="M216.179 214.8v113.556h113.68v-41.782h-71.614V214.8z" color="#000" overflow="visible" fill="url(#j)" transform="translate(-208 -208)"/><path d="M33.15 6.8h1.425v58.96L36 67.25v53.107h-1.425V67.218l-1.424-1.458z" style="isolation:auto;mix-blend-mode:normal;marker:none" color="#000" display="block" overflow="visible" fill-opacity=".121"/><path style="isolation:auto;mix-blend-mode:normal;marker:none" d="M23.18 6.8h1.424v58.836l-1.425 1.613v53.107h-1.424v-53.2l1.424-1.396z" color="#000" display="block" overflow="visible" fill-opacity=".095"/><path d="M83.008 17.322v28.49h28.49l4.273-4.274-28.49-28.49z" style="isolation:auto;mix-blend-mode:normal;marker:none" color="#000" display="block" overflow="visible" fill="#445575"/><path style="isolation:auto;mix-blend-mode:normal;marker:none" d="M83.008 17.322v28.49l17.093-18.34-12.82-14.424z" color="#000" display="block" overflow="visible" fill="#778bb0"/><path style="isolation:auto;mix-blend-mode:normal;marker:none" d="M295.281 221.048v28.49h28.49v-28.49z" color="#000" display="block" overflow="visible" fill="url(#k)" transform="translate(-208 -208)"/><path d="M50.233 6.8l7.134 10.522v54.13l-7.122 7.122z" fill="#6bafdf" fill-rule="evenodd"/><path d="M121.858 78.574l-10.36-7.122H57.366l-7.122 7.122z" fill="#055fb0" fill-rule="evenodd"/><path style="isolation:auto;mix-blend-mode:normal;marker:none" d="M95.828 21.595h11.396v11.396H95.828z" color="#000" display="block" overflow="visible" fill="#fff" fill-opacity=".947"/><path style="isolation:auto;mix-blend-mode:normal;marker:none" d="M67.484 94.244h42.443c.87 0 1.57.7 1.57 1.57v8.255c0 .87-.7 1.57-1.57 1.57H67.484c-.87 0-1.57-.7-1.57-1.57v-8.255c0-.87.7-1.57 1.57-1.57z" color="#000" display="block" overflow="visible" fill-opacity=".216"/><path style="isolation:auto;mix-blend-mode:normal;marker:none" d="M275.484 300.819h42.443c.87 0 1.57.7 1.57 1.57v8.256c0 .87-.7 1.57-1.57 1.57h-42.443c-.87 0-1.57-.7-1.57-1.57v-8.256c0-.87.7-1.57 1.57-1.57z" color="#000" display="block" overflow="visible" fill="url(#l)" transform="translate(-208 -208)"/><path d="M93.106 94.943c-.492 0-.947.1-1.366.292-.419.187-.785.44-1.097.766a3.606 3.606 0 0 0-.726 1.126c-.173.426-.26.881-.26 1.367 0 .512.087.99.26 1.435.18.439.417.82.716 1.146.306.326.662.583 1.067.769.413.186.852.28 1.317.28.752 0 1.41-.283 1.975-.848v.798h1.136v-3.64h-2.562v1.009h1.426v.496c-.552.645-1.172.969-1.856.969-.3 0-.579-.061-.838-.18a2.134 2.134 0 0 1-.657-.51 2.379 2.379 0 0 1-.44-.745 2.73 2.73 0 0 1-.157-.94c0-.319.044-.62.137-.906.1-.286.238-.54.411-.759.18-.22.391-.39.637-.516.253-.126.529-.19.828-.19.379 0 .729.093 1.048.279a1.9 1.9 0 0 1 .758.808l1.025-.759a2.702 2.702 0 0 0-1.077-1.126c-.472-.28-1.04-.42-1.705-.42zm-24.256.052l2.86 7.079h1.16l1.225-2.973 1.225 2.973h1.156l2.884-7.079h-1.498l-2.003 5.502-.897-2.263 1.206-3.219h-1.275l-.798 2.342-.798-2.342h-1.265l1.186 3.219-.877 2.263-2.017-5.502zm11.236 0v7.079h1.376v-7.079zm2.841 0v7.079h2.575a3.91 3.91 0 0 0 1.436-.25c.432-.173.8-.41 1.107-.716.305-.313.536-.685.696-1.117.166-.439.25-.93.25-1.468 0-.485-.074-.941-.22-1.366a3.128 3.128 0 0 0-.657-1.127 3.108 3.108 0 0 0-1.097-.756c-.432-.186-.936-.279-1.515-.279zm14.374 0v7.079h4.917v-1.206h-3.541v-1.846h2.982v-1.116h-2.982V96.2h3.449v-1.206zm5.4 0v1.206h2.263v5.873h1.366V96.2h2.263v-1.206zm-18.398 1.206h1.2c.332 0 .627.058.886.17.266.113.487.27.667.477.18.206.317.453.41.739.093.286.138.597.138.936 0 .332-.045.644-.138.93a2.194 2.194 0 0 1-.41.745c-.173.206-.391.37-.657.49-.26.12-.558.18-.897.18h-1.199z" style="line-height:1000%;-inkscape-font-specification:'Raleway Bold'" font-weight="700" font-family="Raleway" letter-spacing="0" word-spacing="0" fill="#8489b6" fill-opacity=".984"/><path d="M91.6 17.367h19.852V37.22H91.6z" style="isolation:auto;mix-blend-mode:normal;marker:none" color="#000" display="block" overflow="visible" fill="none" stroke="#fff" stroke-width=".739" stroke-linecap="round" stroke-dasharray=".73856825,2.95427303" stroke-opacity=".663"/><path style="isolation:auto;mix-blend-mode:normal;marker:none" d="M14.633 6.8h28.49v60.378h-28.49z" color="#000" display="block" overflow="visible" fill="#07113c" fill-opacity=".289"/><path style="line-height:normal;font-variant-ligatures:normal;font-variant-position:normal;font-variant-caps:normal;font-variant-numeric:normal;font-variant-alternates:normal;font-feature-settings:normal;text-indent:0;text-align:start;text-decoration-line:none;text-decoration-style:solid;text-decoration-color:#000;text-transform:none;text-orientation:mixed;shape-padding:0;isolation:auto;mix-blend-mode:normal;marker:none" d="M14.633 6.8v60.378h28.49V6.8zm1.424 0h25.64v58.954h-25.64z" color="#000" font-weight="400" font-family="sans-serif" white-space="normal" display="block" overflow="visible" fill-opacity=".132"/><path d="M11.84 96.224c0 9.766 7.916 17.682 17.681 17.682s17.682-7.917 17.682-17.682c0-9.765-7.917-17.682-17.682-17.682-9.765 0-17.682 7.917-17.682 17.682z" fill-opacity=".157"/><path d="M253.665 302.687c0 8.916-7.228 16.144-16.144 16.144-8.916 0-16.144-7.228-16.144-16.144 0-8.917 7.228-16.145 16.144-16.145 8.916 0 16.144 7.228 16.144 16.145z" fill="url(#m)" transform="translate(-208 -208)"/><path d="M44.931 94.687c0 8.51-6.9 15.41-15.41 15.41-8.511 0-15.41-6.9-15.41-15.41 0-8.511 6.899-15.41 15.41-15.41 8.51 0 15.41 6.899 15.41 15.41z" fill="none" stroke="#fff" stroke-width="1.468" stroke-miterlimit="4.6" stroke-opacity=".237"/><path style="isolation:auto;mix-blend-mode:normal;marker:none" d="M22.834 86.186l-2.014 2.015 6.043 6.043-6.043 6.042 2.014 2.015 6.043-6.043 6.043 6.043 2.015-2.015-6.043-6.042 6.043-6.043-2.015-2.015-6.043 6.043z" color="#000" display="block" overflow="visible" fill="#6162b1" fill-opacity=".379"/><path d="M60.216 18.746v8.547h2.849v-5.698h2.849v-2.849zm0 42.735v8.546h7.122v-2.849h-4.273v-5.697zm47.008 2.849v2.848h-4.274v2.85h7.123V64.33z" fill="#576d95" fill-rule="evenodd"/><path d="M77.31 17.322v34.187l34.187-.023V45.81h-28.49V17.32z" fill="#fff" fill-rule="evenodd"/><path d="M98.677 24.444h5.698v5.698h-5.698z" style="isolation:auto;mix-blend-mode:normal;marker:none" color="#000" display="block" overflow="visible" fill="none" stroke="#63b5ff" stroke-width=".712"/><path style="isolation:auto;mix-blend-mode:normal;marker:none" d="M74.46 57.207h21.087a2.843 2.843 0 0 1 2.849 2.85 2.843 2.843 0 0 1-2.85 2.848H74.46a2.843 2.843 0 0 1-2.849-2.849 2.843 2.843 0 0 1 2.85-2.849z" color="#000" display="block" overflow="visible" fill="#93afd5" fill-opacity=".668"/><path d="M66.377 30.142l-.907.907 2.722 2.722-2.722 2.722.907.907 2.722-2.722 2.722 2.722.907-.907-2.721-2.722 2.721-2.722-.907-.907-2.722 2.722zM66.377 42.41l-.907.906 2.722 2.722-2.722 2.722.907.907 2.722-2.721 2.722 2.721.907-.907-2.721-2.722 2.721-2.722-.907-.907-2.722 2.722z" style="isolation:auto;mix-blend-mode:normal;marker:none" color="#000" display="block" overflow="visible" fill="#3f4ec6" fill-opacity=".668"/><path style="isolation:auto;mix-blend-mode:normal;marker:none" d="M71.712 59.344a2.85 2.85 0 0 0-.1.712 2.843 2.843 0 0 0 2.849 2.849h21.086a2.843 2.843 0 0 0 2.849-2.849c0-.248-.041-.483-.1-.712a2.835 2.835 0 0 1-2.749 2.137H74.461a2.835 2.835 0 0 1-2.749-2.137z" color="#000" display="block" overflow="visible" fill-opacity=".137"/><path d="M71.712 59.356a2.85 2.85 0 0 1-.1-.712 2.843 2.843 0 0 1 2.849-2.849h21.086a2.843 2.843 0 0 1 2.849 2.85c0 .247-.041.483-.1.711a2.835 2.835 0 0 0-2.749-2.136H74.461c-1.33 0-2.433.907-2.749 2.136z" style="isolation:auto;mix-blend-mode:normal;marker:none" color="#000" display="block" overflow="visible" fill="#fff" fill-opacity=".684"/></svg>