<svg xmlns="http://www.w3.org/2000/svg" xmlns:xlink="http://www.w3.org/1999/xlink" height="128" viewBox="0 0 128 128" width="128"><title>Template icons dark</title><defs><linearGradient id="c"><stop offset="0" stop-color="#db4ca1"/><stop offset="1" stop-color="#8e3592" stop-opacity=".996"/></linearGradient><linearGradient id="f"><stop offset="0" stop-color="#23acff"/><stop offset="1" stop-color="#7647d8" stop-opacity=".996"/></linearGradient><linearGradient id="e"><stop offset="0" stop-color="#08ffe8"/><stop offset="1" stop-color="#8abdec"/></linearGradient><linearGradient id="a"><stop offset="0" stop-color="#fff" stop-opacity=".427"/><stop offset=".423" stop-color="#fafcfe"/><stop offset="1" stop-color="#fff" stop-opacity=".49"/></linearGradient><linearGradient id="b"><stop offset="0" stop-color="#fe50b8"/><stop offset="1" stop-color="#722f98" stop-opacity=".995"/></linearGradient><linearGradient id="d"><stop offset="0" stop-color="#fff" stop-opacity=".179"/><stop offset="1" stop-color="#fff" stop-opacity=".795"/></linearGradient><linearGradient xlink:href="#b" id="h" gradientUnits="userSpaceOnUse" gradientTransform="translate(0 .338)" x1="16.791" y1="294.048" x2="16.839" y2="271.451"/><linearGradient xlink:href="#b" id="i" gradientUnits="userSpaceOnUse" gradientTransform="translate(0 .338)" x1="16.791" y1="294.048" x2="16.839" y2="271.451"/><linearGradient xlink:href="#b" id="j" gradientUnits="userSpaceOnUse" gradientTransform="translate(0 .338)" x1="16.791" y1="294.048" x2="16.839" y2="271.451"/><linearGradient xlink:href="#f" id="k" gradientUnits="userSpaceOnUse" gradientTransform="translate(0 .338)" x1="16.967" y1="277.049" x2="16.967" y2="264.621"/><linearGradient xlink:href="#e" id="l" gradientUnits="userSpaceOnUse" gradientTransform="translate(0 .338)" x1="17.244" y1="286.28" x2="30.792" y2="276.804"/><linearGradient xlink:href="#c" id="m" gradientUnits="userSpaceOnUse" gradientTransform="translate(0 .338)" x1="16.791" y1="294.048" x2="3.857" y2="275.45"/><linearGradient xlink:href="#b" id="g" gradientUnits="userSpaceOnUse" x1="16.791" y1="294.048" x2="16.839" y2="271.451"/><linearGradient xlink:href="#d" id="o" gradientUnits="userSpaceOnUse" gradientTransform="translate(0 .338)" x1="16.721" y1="296.202" x2="17.087" y2="265.977"/><linearGradient xlink:href="#d" id="p" gradientUnits="userSpaceOnUse" gradientTransform="translate(0 .338)" x1="16.721" y1="296.202" x2="17.087" y2="265.977"/><linearGradient xlink:href="#d" id="q" gradientUnits="userSpaceOnUse" gradientTransform="translate(0 .338)" x1="16.721" y1="296.202" x2="17.087" y2="265.977"/><linearGradient xlink:href="#d" id="r" gradientUnits="userSpaceOnUse" gradientTransform="translate(0 .338)" x1="16.721" y1="296.202" x2="17.087" y2="265.977"/><linearGradient xlink:href="#d" id="n" gradientUnits="userSpaceOnUse" x1="16.721" y1="296.202" x2="17.087" y2="265.977"/></defs><g transform="matrix(3.9301 0 0 3.9301 -2.49 -1036.421)" style="isolation:auto;mix-blend-mode:normal;marker:none" color="#000" overflow="visible" fill="url(#g)" stroke-width=".265" stroke-opacity=".984"><path d="M2.483 268.31v16.01l14.463-5.115v-14.178z" fill="url(#h)"/><path d="M2.483 284.32l14.45 11.235 14.46-11.247-14.447-5.103z" fill="url(#i)" fill-rule="evenodd"/><path d="M16.946 265.027l14.448 3.278v16.003l-14.448-5.103z" fill="url(#j)" fill-rule="evenodd"/><path d="M2.483 268.31l14.45 7.945 14.46-7.95-14.447-3.278z" fill="url(#k)"/><path d="M16.932 276.255v19.3l14.462-11.247v-16.003z" fill="url(#l)" fill-rule="evenodd"/><path d="M2.483 268.31l14.45 7.945v19.3L2.482 284.32z" fill="url(#m)" fill-rule="evenodd"/></g><g transform="matrix(3.9301 0 0 3.9301 -2.49 -1036.421)" style="isolation:auto;mix-blend-mode:normal;marker:none" color="#000" overflow="visible" fill="none" stroke="url(#n)" stroke-width=".265" stroke-opacity=".142"><path d="M2.483 284.32l14.45 11.235 14.46-11.247-14.447-5.267z" stroke="url(#o)" stroke-linejoin="round"/><path d="M2.483 268.31l14.45 7.781 14.46-7.786-14.447-3.278z" stroke="url(#p)"/><path d="M16.932 276.091v19.464l14.462-11.247v-16.003z" stroke="url(#q)" stroke-linejoin="round"/><path d="M2.483 268.31l14.45 7.781v19.464L2.482 284.32z" stroke="url(#r)" stroke-linejoin="round"/></g><path style="line-height:1000%;-inkscape-font-specification:Raleway" d="M27.43 53.309l-.024 1.933 4.49 3.279-.258 20.21 1.245.907.258-20.21 4.49 3.279.025-1.933zm22.236 16.269l-7.106 7.817.165-12.848-1.242-.905L41.2 85.75l1.242.905.087-6.8 2.434-2.599 4.687 14.66 1.367.995-5.257-16.366 5.273-5.97zM19.461 48.065c-.84-.614-1.62-.865-2.338-.76-.718.084-1.342.454-1.876 1.115-.534.638-.958 1.529-1.271 2.664-.301 1.144-.46 2.45-.48 3.927-.017 1.413.11 2.904.39 4.471a28.949 28.949 0 0 0 1.179 4.483c.519 1.448 1.13 2.756 1.831 3.92.714 1.17 1.498 2.068 2.35 2.69 1.527 1.115 2.888.96 4.088-.451l-.04 3.247 1.047.764.139-10.886-3.851-2.811-.022 1.684 2.804 2.046-.047 3.681c-.62.848-1.264 1.332-1.934 1.451-.658.108-1.348-.102-2.07-.629-.675-.492-1.302-1.2-1.875-2.121a16.891 16.891 0 0 1-1.464-3.084 23.26 23.26 0 0 1-.973-3.701 20.926 20.926 0 0 1-.31-3.813c.015-1.186.136-2.253.363-3.2.228-.965.542-1.734.944-2.301.413-.58.9-.926 1.463-1.04.574-.107 1.212.101 1.91.611.84.614 1.587 1.483 2.242 2.61.654 1.129 1.178 2.526 1.575 4.2l.972-.425a20.5 20.5 0 0 0-.72-2.476 13.87 13.87 0 0 0-1.011-2.28 11.336 11.336 0 0 0-1.335-1.98 9.043 9.043 0 0 0-1.682-1.607z" font-weight="400" font-family="Raleway" letter-spacing="0" word-spacing="0" opacity=".446" fill="#fff" stroke="#fff" stroke-width="1.477"/></svg>