<svg xmlns="http://www.w3.org/2000/svg" xmlns:xlink="http://www.w3.org/1999/xlink" height="128" viewBox="0 0 128 128" width="128"><title>Template icons dark</title><defs><linearGradient id="d"><stop offset="0" stop-color="#0a34ff" stop-opacity="0"/><stop offset="1" stop-color="#ffff0d" stop-opacity=".24"/></linearGradient><linearGradient id="c"><stop offset="0" stop-color="#cdcdcd"/><stop offset="1" stop-color="#fff"/></linearGradient><linearGradient id="b"><stop offset="0" stop-color="#fff" stop-opacity=".427"/><stop offset=".423" stop-color="#fafcfe"/><stop offset="1" stop-color="#fff" stop-opacity=".49"/></linearGradient><linearGradient id="a"><stop offset="0" stop-color="#0796d6"/><stop offset="1" stop-color="#4987ce"/></linearGradient><linearGradient xlink:href="#a" id="e" x1="22.9" y1="46.6" x2="22.9" y2="-10.331" gradientUnits="userSpaceOnUse" gradientTransform="matrix(2.88889 0 0 2.88889 207 198.333)"/><linearGradient xlink:href="#d" id="f" gradientUnits="userSpaceOnUse" gradientTransform="matrix(2.88889 0 0 2.88889 207 198.333)" x1="15.346" y1="25.106" x2="29.288" y2="40.737"/><linearGradient gradientTransform="matrix(1.29167 0 0 1.29167 65.333 65.333)" xlink:href="#c" id="g" x1="161.772" y1="204" x2="161.772" y2="113" gradientUnits="userSpaceOnUse"/></defs><g color="#000"><path style="isolation:auto;mix-blend-mode:normal;marker:none" d="M126 64a62 62 0 0 1-62 62A62 62 0 0 1 2 64 62 62 0 0 1 64 2a62 62 0 0 1 62 62z" display="block" overflow="visible" fill-opacity=".058"/><path style="isolation:auto;mix-blend-mode:normal;marker:none" d="M331.417 272A59.417 59.417 0 0 1 272 331.417 59.417 59.417 0 0 1 212.583 272 59.417 59.417 0 0 1 272 212.583 59.417 59.417 0 0 1 331.417 272z" display="block" overflow="visible" fill="url(#e)" transform="translate(-208 -208)"/><path d="M331.417 272A59.417 59.417 0 0 1 272 331.417 59.417 59.417 0 0 1 212.583 272 59.417 59.417 0 0 1 272 212.583 59.417 59.417 0 0 1 331.417 272z" style="isolation:auto;mix-blend-mode:normal;marker:none" display="block" overflow="visible" fill="url(#f)" transform="translate(-208 -208)"/><path d="M50.107 12.689l-10.146 27.89h-.003L22.71 87.956h11.482l14.665-40.26h8.63l-14.666 40.26 11.476.003L67.965 50.4c1.967-5.4-1.128-9.82-6.87-9.82h-9.651L62.11 11.27c-3.563-.379-9.358.422-12.004 1.42zm30.072 27.89L62.445 89.311h-.008l-9.948 27.336a54.171 54.171 0 0 0 10.955 1.482l10.978-30.173h15.235c2.675 0 5.61-2.056 6.524-4.567l12.01-32.99c1.965-5.402-1.127-9.82-6.875-9.82zm8.931 7.09h8.627l-12.08 33.144h-8.626z" style="isolation:auto;mix-blend-mode:normal;marker:none" display="block" overflow="visible" fill-opacity=".194"/><path style="isolation:auto;mix-blend-mode:normal;marker:none" d="M48.055 11.899l-10.147 27.89h-.003L20.66 87.166H32.14l14.666-40.26h8.63L40.77 87.167l11.476.003 13.666-37.56c1.967-5.4-1.127-9.82-6.87-9.82h-9.65l10.666-29.31c-3.562-.379-9.357.422-12.003 1.42zm30.072 27.89L60.393 88.521h-.008l-9.948 27.336a54.172 54.172 0 0 0 10.954 1.482L72.37 87.166h15.236c2.674 0 5.61-2.056 6.524-4.567l12.01-32.99c1.965-5.402-1.128-9.82-6.875-9.82zm8.931 7.09h8.627l-12.08 33.144h-8.627z" display="block" overflow="visible" fill="#fff"/><path style="isolation:auto;mix-blend-mode:normal;marker:none" d="M118.36 65.448A54.36 54.36 0 0 1 64 119.81 54.36 54.36 0 0 1 9.64 65.45 54.36 54.36 0 0 1 64 11.087a54.36 54.36 0 0 1 54.36 54.36z" overflow="visible" fill="none" stroke="#050505" stroke-width="2.169" stroke-linejoin="round" stroke-opacity=".458"/><path style="isolation:auto;mix-blend-mode:normal;marker:none" d="M118.36 63.687A54.36 54.36 0 0 1 64 118.047a54.36 54.36 0 0 1-54.36-54.36A54.36 54.36 0 0 1 64 9.326a54.36 54.36 0 0 1 54.36 54.36z" overflow="visible" fill="none" stroke="#fff" stroke-width="2.169" stroke-linejoin="round"/><path style="isolation:auto;mix-blend-mode:normal;marker:none" d="M328.84 272A56.84 56.84 0 0 1 272 328.84 56.84 56.84 0 0 1 215.16 272 56.84 56.84 0 0 1 272 215.16 56.84 56.84 0 0 1 328.84 272z" overflow="visible" fill="none" stroke="url(#g)" stroke-width="5.153" stroke-linejoin="round" transform="translate(-208 -208)"/></g></svg>