<svg xmlns="http://www.w3.org/2000/svg" xmlns:xlink="http://www.w3.org/1999/xlink" height="128" viewBox="0 0 128 128" width="128"><title>Template icons dark</title><defs><linearGradient id="a"><stop offset="0" stop-color="#4d77d3"/><stop offset=".453" stop-color="#767294"/><stop offset="1" stop-color="#a6659c"/></linearGradient><linearGradient id="b"><stop offset="0" stop-color="#0b1528"/><stop offset="1" stop-color="#473d49"/></linearGradient><linearGradient xlink:href="#b" id="c" x1="26.4" y1="60.613" x2="26.4" y2="-12.187" gradientUnits="userSpaceOnUse" gradientTransform="matrix(1.38463 0 0 1.367 238.849 239.272)"/><linearGradient xlink:href="#a" id="d" x1="53.271" y1="55.429" x2="-10.45" y2="-7.238" gradientUnits="userSpaceOnUse" gradientTransform="matrix(1.51989 0 0 1.54543 235.994 236.022)"/></defs><g color="#000" transform="translate(-208 -208)"><rect ry="5.909" y="217.107" x="212" height="109.787" width="120" style="isolation:auto;mix-blend-mode:normal;marker:none" overflow="visible" fill-opacity=".077"/><rect style="isolation:auto;mix-blend-mode:normal;marker:none" width="111.59" height="101.59" x="216.205" y="221.205" ry="5.468" overflow="visible" fill="url(#c)" stroke="#000" stroke-width=".41" stroke-opacity=".471"/><rect style="isolation:auto;mix-blend-mode:normal;marker:none" width="110" height="100" x="217" y="222" ry="4.606" overflow="visible" fill="none" stroke="url(#d)" stroke-width="2"/><path style="isolation:auto;mix-blend-mode:normal;marker:none" d="M231 236h8v20h-8z" display="block" overflow="visible" fill="#94d59b"/><path style="isolation:auto;mix-blend-mode:normal;marker:none" d="M225 232h8l-.063 2.004-5.937-.008v23.998l5.937.012V260H225z" display="block" overflow="visible" fill="#fff" fill-opacity=".247"/><path style="isolation:auto;mix-blend-mode:normal;marker:none" d="M243 236h8v20h-8zM255 236h8v20h-8z" display="block" overflow="visible" fill="#94d59b"/><path style="isolation:auto;mix-blend-mode:normal;marker:none" d="M267 236h8v20h-8z" display="block" overflow="visible" fill="#94ccd5"/><path style="isolation:auto;mix-blend-mode:normal;marker:none" d="M279 236h8v20h-8z" display="block" overflow="visible" fill="#d594c7"/><path style="isolation:auto;mix-blend-mode:normal;marker:none" d="M231 274h8v20h-8z" display="block" overflow="visible" fill="#94d59b"/><path d="M225 270h8l-.063 2.004-5.937-.008v23.998l5.937.012V298H225z" style="isolation:auto;mix-blend-mode:normal;marker:none" display="block" overflow="visible" fill="#fff" fill-opacity=".247"/><path style="isolation:auto;mix-blend-mode:normal;marker:none" d="M243 274h8v20h-8z" display="block" overflow="visible" fill="#94ccd5"/><path style="isolation:auto;mix-blend-mode:normal;marker:none" d="M255 274h8v20h-8z" display="block" overflow="visible" fill="#d594c7"/></g></svg>