<svg xmlns="http://www.w3.org/2000/svg" xmlns:xlink="http://www.w3.org/1999/xlink" height="128" viewBox="0 0 128 128" width="128"><title>Template icons dark</title><defs><linearGradient id="a"><stop offset="0" stop-color="#3b173b"/><stop offset="1" stop-color="#1c2d4c"/></linearGradient><linearGradient gradientTransform="translate(208.015 204.995) scale(2.66666)" xlink:href="#a" id="b" x1="2" y1="35.339" x2="46" y2="35.339" gradientUnits="userSpaceOnUse"/></defs><path d="M66.22 7.128c-3.507.754-12.464 18.695-12.464 18.695s-10.911 16.12-20.917 19.503c-8.84 2.989-27.49 15.669-27.49 15.669l58.666 53.333 58.666-53.333C88.155 35.802 88.4 39.373 66.221 7.128z" fill="#535363"/><path d="M29.141 48.164c2.673 2.253 7.897-.397 7.461 4.544.536 2.755 1.407 9.419 5.13 5.154 1.524-3.983 6.682-4.417 7.394.297 1.496 2.57 1.946 7.693 5.739 4.662 3.575-.758 7.62-4.613 11.028-1.625 3.123 1.195 5.96 5.345 9.445 4.035 3.599-2.135 5.74-6.984 10.526-6.773 4.124-.171 7.915 2.813 8.916 6.796 2.149 3.664 6.3 6.804 10.706 6.743 3.588-.863 12.633-6.034 15.38-8.721-13.313-8.908-37.334-24.471-57.053-54.829-2.573 3.215-5.412 7.594-7.725 11.272-2.267 3.782-3.397 8.235-6.713 11.289-8.176 9.631-10.81 13.563-20.234 17.156z" fill-opacity=".319"/><path d="M30.957 45.883c2.673 2.253 7.897-.397 7.461 4.544.536 2.756 1.406 9.419 5.129 5.154 1.525-3.983 6.682-4.417 7.395.298 1.496 2.569 1.945 7.692 5.738 4.662 3.576-.759 7.62-4.614 11.029-1.626 3.123 1.196 5.959 5.345 9.445 4.035 3.598-2.134 5.74-6.984 10.526-6.772 4.124-.172 7.915 2.813 8.916 6.796 2.148 3.663 6.3 6.804 10.706 6.742 3.588-.863 12.632-6.034 15.38-8.721-13.313-8.908-37.334-24.47-57.053-54.828-2.574 3.215-5.413 7.593-7.725 11.271-2.268 3.782-3.398 8.235-6.713 11.29-8.177 9.63-10.81 13.562-20.234 17.155z" fill="#f0f0ef"/><path d="M68.542 28.616c-1.614 2.837-4.515 4.816-6.008 7.63 2.403 1.843 6.16 3.24 7.053 6.788-2.957 1.285-3.712 4.963-2.635 7.751.018 3.664-3.777 5.554-6.422 7.316-1.67 1.634-6.225 6.167-5.303 8.645 5.605 3.831 14.015-3.643 20.31-1.001 2.945 2.815-11.813 8.954-17.183 17.189 7.034 1.918 20.673.005 19.855 4.527-14.194 10.867-14.194 26.867-14.194 26.867l58.666-53.333c-22.509-16-37.333-25.712-56.46-53.867 3.168 8.767 4.11 17.262 2.321 21.488z" fill-opacity=".215"/><path d="M28.104 74.26l-.08.048.088-.019z" fill="#545374"/><path d="M213.348 268.995l58.667 53.333 58.666-53.333-58.666 64z" fill="url(#b)" fill-rule="evenodd" transform="translate(-208 -208)"/><path d="M38.384 26.153l27.455-20.3" fill-opacity=".215" fill-rule="evenodd" stroke="#a782ec" stroke-width="1.067"/><path style="isolation:auto;mix-blend-mode:normal;marker:none" d="M41.166 25.828a2.841 2.841 0 0 1-2.842 2.841 2.841 2.841 0 0 1-2.841-2.841 2.841 2.841 0 0 1 2.841-2.841 2.841 2.841 0 0 1 2.842 2.841zM100.209 17.861a2.841 2.841 0 0 1-2.842 2.841 2.841 2.841 0 0 1-2.841-2.841 2.841 2.841 0 0 1 2.841-2.841 2.841 2.841 0 0 1 2.842 2.841z" color="#000" display="block" overflow="visible" fill="none" stroke="#fefbfb" stroke-width="1.016" stroke-linecap="round" paint-order="fill markers stroke"/><path d="M65.961 6.27l32.006 11.895" fill-opacity=".215" fill-rule="evenodd" stroke="#a782ec" stroke-width="1.067"/><path d="M66.22 7.128c-3.507.754-12.464 18.695-12.464 18.695s-10.911 16.12-20.917 19.503c-8.84 2.989-27.49 15.669-27.49 15.669l58.666 53.333 58.666-53.333C88.155 35.802 88.4 39.373 66.221 7.128z" fill="none" stroke="#fc4f4f" stroke-width=".875" stroke-opacity=".916"/><path style="isolation:auto;mix-blend-mode:normal;marker:none" d="M3.054 58.234h5.04v5.04h-5.04zM61.473 110.474h5.04v5.04h-5.04zM119.89 58.073h5.038v5.04h-5.039zM63.185 2.98h5.04v5.039h-5.04z" color="#000" display="block" overflow="visible" fill="#dedede" paint-order="fill markers stroke"/></svg>