<svg xmlns="http://www.w3.org/2000/svg" xmlns:xlink="http://www.w3.org/1999/xlink" height="128" viewBox="0 0 128 128" width="128"><title>Template icons dark</title><defs><linearGradient id="e"><stop offset="0" stop-color="#6e685c"/><stop offset="1" stop-color="#7f6a7f"/></linearGradient><linearGradient id="d"><stop offset="0" stop-opacity=".022"/><stop offset="1" stop-color="#111" stop-opacity=".551"/></linearGradient><linearGradient id="c"><stop offset="0" stop-color="#262532"/><stop offset="1" stop-color="#39343d"/></linearGradient><linearGradient id="b"><stop offset="0" stop-color="#92e96f"/><stop offset="1" stop-color="#11ffec"/></linearGradient><linearGradient id="a"><stop offset="0" stop-color="#23211d"/><stop offset="1" stop-color="#3f474b"/></linearGradient><linearGradient gradientTransform="matrix(1.33333 0 0 1.33333 58.667 58.667)" xlink:href="#c" id="f" gradientUnits="userSpaceOnUse" x1="165.575" y1="196.64" x2="165.575" y2="124"/><linearGradient gradientTransform="matrix(1.33333 0 0 1.33333 58.667 58.667)" xlink:href="#b" id="g" x1="160" y1="182.114" x2="160" y2="138" gradientUnits="userSpaceOnUse"/><linearGradient xlink:href="#d" id="h" gradientUnits="userSpaceOnUse" gradientTransform="matrix(-1.33333 0 0 1.33333 485.302 58.667)" x1="162.536" y1="165" x2="171.252" y2="173"/><linearGradient xlink:href="#d" id="i" gradientUnits="userSpaceOnUse" x1="157.441" y1="165" x2="152.504" y2="178" gradientTransform="matrix(-1.33333 0 0 1.33333 485.302 58.667)"/><linearGradient xlink:href="#d" id="j" gradientUnits="userSpaceOnUse" x1="157.441" y1="165" x2="152.504" y2="178" gradientTransform="matrix(1.33333 0 0 -1.33333 58.667 487.227)"/><linearGradient xlink:href="#d" id="k" gradientUnits="userSpaceOnUse" gradientTransform="matrix(-1.33333 0 0 -1.33333 485.302 487.227)" x1="157.441" y1="165" x2="152.504" y2="178"/></defs><path d="M128 64c0 4.48-28.12 53.186-32 55.426-3.88 2.24-60.12 2.24-64 0C28.12 117.186 0 68.48 0 64c0-4.48 28.12-53.186 32-55.426 3.88-2.24 60.12-2.24 64 0 3.88 2.24 32 50.946 32 55.426z" style="isolation:auto;mix-blend-mode:normal;marker:none" color="#000" display="block" overflow="visible" fill-opacity=".423" paint-order="fill markers stroke"/><path style="isolation:auto;mix-blend-mode:normal;marker:none" d="M334.667 272c0 4.387-27.535 52.078-31.334 54.271-3.799 2.193-58.867 2.193-62.666 0-3.8-2.193-31.334-49.884-31.334-54.271 0-4.387 27.535-52.078 31.334-54.271 3.799-2.193 58.867-2.193 62.666 0 3.8 2.193 31.334 49.884 31.334 54.271z" color="#000" display="block" overflow="visible" fill="url(#f)" paint-order="fill markers stroke" transform="translate(-208 -208)"/><path d="M117.333 64c0 3.733-23.433 44.321-26.666 46.188-3.233 1.867-50.1 1.867-53.334 0C34.1 108.321 10.667 67.733 10.667 64c0-3.733 23.433-44.321 26.666-46.188 3.233-1.867 50.1-1.867 53.334 0C93.9 19.679 117.333 60.267 117.333 64z" style="isolation:auto;mix-blend-mode:normal;marker:none" color="#000" display="block" overflow="visible" fill="#f6f5f4" fill-opacity=".099" paint-order="fill markers stroke"/><path style="isolation:auto;mix-blend-mode:normal;marker:none" d="M110.667 64c0 3.267-20.505 38.781-23.334 40.415-2.829 1.633-43.837 1.633-46.666 0C37.837 102.78 17.333 67.267 17.333 64c0-3.267 20.505-38.781 23.334-40.415 2.829-1.633 43.837-1.633 46.666 0 2.83 1.634 23.334 37.148 23.334 40.415z" color="#000" display="block" overflow="visible" fill="#f6f5f4" fill-opacity=".099" paint-order="fill markers stroke"/><path d="M64 8.083c-14.717 0-29.434.55-31.333 1.646C28.867 11.923 1.333 59.613 1.333 64c0 .16.047.395.118.667 1.872-7.16 27.556-51.491 31.216-53.604 3.799-2.194 58.867-2.194 62.666 0 3.66 2.113 29.344 46.443 31.217 53.604.07-.272.117-.507.117-.667 0-4.387-27.535-52.077-31.334-54.27C93.433 8.631 78.717 8.082 64 8.082z" style="isolation:auto;mix-blend-mode:normal;marker:none" color="#000" overflow="visible" fill="#f5deb2" fill-opacity=".247" paint-order="fill markers stroke"/><path style="line-height:normal;font-variant-ligatures:normal;font-variant-position:normal;font-variant-caps:normal;font-variant-numeric:normal;font-variant-alternates:normal;font-feature-settings:normal;text-indent:0;text-align:start;text-decoration-line:none;text-decoration-style:solid;text-decoration-color:#000;text-transform:none;text-orientation:mixed;shape-padding:0;isolation:auto;mix-blend-mode:normal;marker:none" d="M64 32.018c-4.212 0-8.418.074-11.773.23-1.678.077-3.136.173-4.339.301a20.33 20.33 0 0 0-1.661.235c-.526.1-.923.073-1.977.664-1.054.59-1.234.941-1.586 1.333a19.26 19.26 0 0 0-1.039 1.279c-.716.948-1.53 2.125-2.437 3.497-1.817 2.744-3.985 6.245-6.092 9.787-2.106 3.542-4.14 7.113-5.68 10.013-.769 1.45-1.415 2.723-1.903 3.8a18.88 18.88 0 0 0-.622 1.512c-.174.492-.396.816-.396 1.998 0 1.181.222 1.505.396 1.997.173.492.378.975.622 1.513.488 1.076 1.134 2.35 1.904 3.8 1.54 2.899 3.573 6.47 5.68 10.013a287.572 287.572 0 0 0 4.005 6.523l-5.567 16.148 14.087-6.226c.208.043.403.076.605.114.525.1 1.06.17 1.661.235 1.203.128 2.66.224 4.339.302 3.355.155 7.56.23 11.773.23 4.212-.001 8.415-.075 11.77-.23 1.679-.078 3.139-.174 4.342-.302a20.335 20.335 0 0 0 1.661-.235c.526-.1.923-.073 1.977-.664 1.054-.59 1.234-.941 1.586-1.333.352-.392.681-.805 1.04-1.279.715-.947 1.528-2.125 2.437-3.497 1.816-2.744 3.985-6.244 6.09-9.786 2.107-3.542 4.141-7.114 5.68-10.013.77-1.45 1.414-2.724 1.901-3.8.244-.538.452-1.021.625-1.513.174-.492.396-.816.396-1.997 0-1.182-.222-1.506-.396-1.998a18.941 18.941 0 0 0-.625-1.513c-.487-1.076-1.13-2.35-1.9-3.8-1.54-2.899-3.574-6.47-5.68-10.012-2.106-3.542-4.275-7.043-6.091-9.787-.909-1.372-1.722-2.55-2.438-3.497a19.268 19.268 0 0 0-1.039-1.279c-.352-.392-.532-.742-1.586-1.333-1.054-.59-1.451-.564-1.977-.664-.525-.1-1.06-.17-1.661-.235-1.203-.128-2.663-.224-4.341-.302-3.356-.155-7.559-.229-11.77-.229zm0 7.883c4.112 0 8.232.076 11.388.221.457.021.7.054 1.112.078L63.93 58.914 51.203 40.219c.507-.032.83-.07 1.409-.097 3.156-.146 7.277-.221 11.388-.221zm19.875 6.88a274.711 274.711 0 0 1 3.997 6.503c2.056 3.457 4.05 6.958 5.498 9.685.724 1.363 1.312 2.54 1.685 3.362.07.154.087.21.14.336-.053.126-.07.181-.14.336-.373.822-.961 1.998-1.685 3.362-1.448 2.726-3.442 6.227-5.498 9.684a264.538 264.538 0 0 1-4.544 7.357l-13.46-19.773zm-39.896.227l14.068 20.664-13.318 19.823a263.465 263.465 0 0 1-4.601-7.446c-2.056-3.457-4.05-6.958-5.498-9.684-.724-1.364-1.312-2.54-1.685-3.362-.07-.155-.087-.21-.14-.336.053-.126.07-.182.14-.336.373-.823.961-1.999 1.685-3.362 1.448-2.727 3.442-6.228 5.498-9.685a277.826 277.826 0 0 1 3.851-6.276zM63.984 76.39l11.448 16.817-.044.003c-3.156.146-7.277.222-11.388.222-4.084 0-8.17-.075-11.318-.22z" color="#000" font-weight="400" font-family="sans-serif" white-space="normal" display="block" overflow="visible" fill-opacity=".214" paint-order="fill markers stroke"/><path style="line-height:normal;font-variant-ligatures:normal;font-variant-position:normal;font-variant-caps:normal;font-variant-numeric:normal;font-variant-alternates:normal;font-feature-settings:normal;text-indent:0;text-align:start;text-decoration-line:none;text-decoration-style:solid;text-decoration-color:#000;text-transform:none;text-orientation:mixed;shape-padding:0;isolation:auto;mix-blend-mode:normal;marker:none" d="M272 237.352c-4.212 0-8.418.074-11.773.229-1.678.077-3.136.174-4.339.302-.602.064-1.136.134-1.661.234-.526.1-.923.073-1.977.664-1.054.591-1.234.942-1.586 1.334-.352.392-.681.804-1.039 1.278-.716.948-1.53 2.126-2.437 3.498-1.817 2.744-3.985 6.244-6.092 9.786-2.106 3.542-4.14 7.114-5.68 10.013-.769 1.45-1.416 2.724-1.903 3.8a18.878 18.878 0 0 0-.622 1.513c-.174.491-.396.816-.396 1.997s.222 1.506.396 1.997c.173.492.378.976.622 1.513.487 1.076 1.134 2.35 1.904 3.8 1.54 2.9 3.573 6.47 5.68 10.013a288.217 288.217 0 0 0 3.97 6.469l-5.486 17.541 13.768-7.63c.336.1.592.125.878.18.525.1 1.06.17 1.661.234 1.203.128 2.66.225 4.339.302 3.355.155 7.56.23 11.773.23 4.212 0 8.415-.075 11.77-.23 1.679-.077 3.139-.174 4.342-.302a20.335 20.335 0 0 0 1.661-.234c.526-.1.923-.073 1.977-.664 1.054-.59 1.234-.942 1.586-1.334.352-.392.681-.804 1.039-1.278.716-.948 1.53-2.126 2.438-3.498 1.816-2.744 3.984-6.244 6.09-9.786 2.107-3.542 4.14-7.114 5.68-10.013.77-1.45 1.414-2.724 1.901-3.8.244-.537.452-1.02.625-1.513.174-.491.396-.816.396-1.997s-.222-1.506-.396-1.997a18.941 18.941 0 0 0-.625-1.513c-.487-1.076-1.13-2.35-1.9-3.8-1.54-2.9-3.574-6.47-5.68-10.013-2.107-3.542-4.275-7.042-6.091-9.786-.909-1.372-1.722-2.55-2.438-3.498a19.268 19.268 0 0 0-1.04-1.278c-.35-.392-.531-.743-1.585-1.334-1.054-.59-1.451-.564-1.977-.664-.525-.1-1.06-.17-1.661-.234-1.203-.128-2.663-.225-4.341-.302-3.356-.155-7.559-.23-11.771-.23zm0 7.882c4.111 0 8.232.076 11.388.222.457.02.699.054 1.112.078l-12.57 18.713-12.727-18.695c.507-.031.83-.07 1.409-.096 3.156-.146 7.277-.222 11.388-.222zm19.875 6.88a274.711 274.711 0 0 1 3.997 6.503c2.056 3.457 4.05 6.959 5.498 9.685.724 1.363 1.312 2.54 1.685 3.362.07.154.087.21.14.336-.053.126-.07.182-.14.336-.373.822-.961 1.999-1.685 3.362-1.448 2.726-3.442 6.228-5.498 9.685a264.538 264.538 0 0 1-4.544 7.357l-13.46-19.774zm-39.896.227l14.068 20.664-13.318 19.823a263.48 263.48 0 0 1-4.601-7.445c-2.056-3.457-4.05-6.959-5.498-9.685-.724-1.363-1.312-2.54-1.685-3.362-.07-.154-.087-.21-.14-.336.053-.126.07-.182.14-.336.373-.822.961-1.999 1.685-3.362 1.448-2.726 3.442-6.228 5.498-9.685a277.849 277.849 0 0 1 3.851-6.276zm20.005 29.383l11.448 16.818c-.018 0-.026 0-.044.003-3.156.146-7.277.221-11.388.221-4.084 0-8.17-.075-11.318-.219z" color="#000" font-weight="400" font-family="sans-serif" white-space="normal" display="block" overflow="visible" fill="url(#g)" paint-order="fill markers stroke" transform="translate(-208 -208)"/><path d="M252.73 292.828l19.254-11.104-5.937-8.719z" fill="url(#h)" fill-rule="evenodd" transform="translate(-208 -208)"/><path d="M291.328 292.74l-19.344-11.016 5.938-8.719z" fill="url(#i)" fill-rule="evenodd" transform="translate(-208 -208)"/><path d="M251.98 252.341l19.95 11.906-5.883 8.758z" fill="url(#j)" fill-rule="evenodd" transform="translate(-208 -208)"/><path d="M292 252.168l-20.07 12.08 5.937 8.718z" fill="url(#k)" fill-rule="evenodd" transform="translate(-208 -208)"/><path style="line-height:normal;font-variant-ligatures:normal;font-variant-position:normal;font-variant-caps:normal;font-variant-numeric:normal;font-variant-alternates:normal;font-feature-settings:normal;text-indent:0;text-align:start;text-decoration-line:none;text-decoration-style:solid;text-decoration-color:#000;text-transform:none;text-orientation:mixed;shape-padding:0;isolation:auto;mix-blend-mode:normal;marker:none" d="M64 29.352c-4.212 0-8.418.074-11.773.229-1.678.077-3.136.174-4.339.302-.602.064-1.136.134-1.661.234-.526.1-.923.073-1.977.664-1.054.591-1.234.942-1.586 1.334-.352.392-.681.804-1.039 1.278-.716.948-1.53 2.126-2.437 3.498-1.817 2.744-3.985 6.244-6.092 9.786-2.106 3.542-4.14 7.114-5.68 10.013-.769 1.45-1.415 2.724-1.903 3.8a18.878 18.878 0 0 0-.622 1.513c-.174.491-.396.816-.396 1.997 0 .265.014.476.034.667.067-.658.227-.95.362-1.331.173-.492.378-.975.622-1.513.488-1.076 1.134-2.35 1.904-3.8 1.54-2.899 3.573-6.47 5.68-10.013 2.106-3.542 4.274-7.042 6.09-9.786.909-1.372 1.722-2.55 2.438-3.497.358-.474.687-.887 1.04-1.28.351-.391.531-.742 1.585-1.332 1.054-.591 1.451-.565 1.977-.664.525-.1 1.06-.17 1.661-.235 1.203-.128 2.66-.224 4.339-.302 3.355-.155 7.56-.23 11.773-.23 4.212 0 8.415.075 11.77.23 1.679.078 3.139.174 4.342.302.602.064 1.136.135 1.662.235.525.1.922.073 1.976.664 1.054.59 1.234.94 1.586 1.333.352.392.681.805 1.04 1.279.715.947 1.528 2.125 2.437 3.497 1.816 2.744 3.985 6.244 6.09 9.786 2.107 3.542 4.141 7.114 5.68 10.013.77 1.45 1.414 2.724 1.901 3.8.244.538.452 1.021.625 1.513.135.381.296.673.362 1.33.02-.19.034-.4.034-.666 0-1.181-.222-1.506-.395-1.997a18.934 18.934 0 0 0-.625-1.513c-.488-1.076-1.132-2.35-1.902-3.8-1.539-2.9-3.573-6.47-5.68-10.013-2.105-3.542-4.274-7.042-6.09-9.786-.908-1.372-1.722-2.55-2.438-3.498a19.264 19.264 0 0 0-1.039-1.278c-.352-.392-.532-.743-1.586-1.334-1.054-.59-1.45-.564-1.976-.664-.526-.1-1.06-.17-1.662-.234-1.203-.128-2.663-.225-4.341-.302-3.356-.155-7.559-.23-11.77-.23zm11.646 9.455L63.93 56.247 52.07 38.826c-.275.02-.555.04-.867.06L63.93 57.58 76.5 38.867c-.317-.018-.564-.04-.854-.06zm-42.534 25.86c-.04.087-.13.25-.167.33-.07.155-.087.21-.14.336.053.126.07.182.14.336.373.823.961 1.999 1.685 3.362 1.448 2.727 3.442 6.228 5.498 9.685a263.466 263.466 0 0 0 4.601 7.445L58.047 66.34l-.45-.662-12.868 19.151a263.48 263.48 0 0 1-4.601-7.445c-2.056-3.457-4.05-6.959-5.498-9.685a64.572 64.572 0 0 1-1.518-3.031zm61.776 0a64.572 64.572 0 0 1-1.518 3.03c-1.448 2.727-3.442 6.229-5.498 9.686a264.538 264.538 0 0 1-4.544 7.357l-13.01-19.112-.45.671 13.46 19.774c1.431-2.236 2.98-4.727 4.544-7.357 2.056-3.457 4.05-6.958 5.498-9.685.724-1.363 1.312-2.54 1.685-3.362.07-.154.087-.21.14-.336-.053-.126-.07-.181-.14-.336-.037-.08-.126-.243-.167-.33zM36.841 88.753l-5.26 16.58.37-.226 5.117-15.982c-.074-.117-.152-.254-.227-.372zm37.703 1.817c-3.04.124-6.758.196-10.544.196-3.747 0-7.416-.072-10.44-.193l-.878 1.307c3.148.144 7.234.219 11.318.219 4.112 0 8.232-.076 11.388-.221l.044-.003z" color="#000" font-weight="400" font-family="sans-serif" white-space="normal" display="block" overflow="visible" fill="#f5edb2" fill-opacity=".385" paint-order="fill markers stroke"/><path style="isolation:auto;mix-blend-mode:normal;marker:none" d="M64 70.667c-.305 0-1.24-3.898-1.456-4.114-.216-.216-4.114-1.151-4.114-1.456 0-.306 3.898-1.241 4.114-1.457.216-.216 1.15-4.114 1.456-4.114.305 0 1.24 3.898 1.457 4.114.216.216 4.113 1.151 4.113 1.457 0 .305-3.897 1.24-4.113 1.456-.216.216-1.152 4.114-1.457 4.114z" color="#000" overflow="visible" fill-opacity=".198" paint-order="fill markers stroke"/></svg>