<svg xmlns="http://www.w3.org/2000/svg" xmlns:xlink="http://www.w3.org/1999/xlink" height="128" viewBox="0 0 128 128" width="128"><title>Template icons dark</title><defs><linearGradient id="j"><stop offset="0" stop-color="#aa70ce"/><stop offset="1" stop-color="#e2268d"/></linearGradient><linearGradient id="i"><stop offset="0" stop-color="#fff" stop-opacity=".225"/><stop offset="1" stop-color="#fff" stop-opacity=".093"/></linearGradient><linearGradient id="a"><stop offset="0" stop-color="#fff" stop-opacity=".105"/><stop offset="1" stop-color="#fff" stop-opacity=".414"/></linearGradient><linearGradient id="b"><stop offset="0" stop-color="#4b4b4b"/><stop offset=".139" stop-color="#ddd"/><stop offset=".303" stop-color="#838383"/><stop offset=".455" stop-color="#fff"/><stop offset=".522" stop-color="#fff"/><stop offset=".731" stop-color="#5f5f5f"/><stop offset=".931" stop-color="#fff"/><stop offset="1" stop-color="#505050"/></linearGradient><linearGradient id="c"><stop offset="0" stop-color="#fcfcfc"/><stop offset=".512" stop-color="#7c7c7c"/><stop offset=".904" stop-color="#fcfcfc"/><stop offset="1" stop-color="#b5b5b5"/></linearGradient><linearGradient id="d"><stop offset="0" stop-opacity="0"/><stop offset="1" stop-color="#919191" stop-opacity=".502"/></linearGradient><linearGradient id="e"><stop offset="0" stop-color="#15b5ff"/><stop offset="1" stop-color="#1385ff"/></linearGradient><linearGradient id="f"><stop offset="0" stop-color="#42ec81"/><stop offset="1" stop-color="#3add5c"/></linearGradient><linearGradient id="g"><stop offset="0" stop-color="#ff8300"/><stop offset="1" stop-color="#ff5b00"/></linearGradient><linearGradient id="h"><stop offset="0" stop-color="#f72424" stop-opacity=".066"/><stop offset="1" stop-color="#f72424" stop-opacity=".118"/></linearGradient><linearGradient xlink:href="#c" id="p" x1="11.592" y1="14.007" x2="28.333" y2="31.765" gradientUnits="userSpaceOnUse" gradientTransform="translate(185.851 171.074) scale(3.74205)"/><linearGradient xlink:href="#d" id="q" x1="8.57" y1="18.196" x2="28.333" y2="31.765" gradientUnits="userSpaceOnUse" gradientTransform="translate(185.851 171.074) scale(3.74205)"/><linearGradient xlink:href="#a" id="o" x1="20.54" y1="20.256" x2="17.967" y2="15.009" gradientUnits="userSpaceOnUse" gradientTransform="translate(185.851 171.074) scale(3.74205)"/><linearGradient xlink:href="#b" id="m" gradientUnits="userSpaceOnUse" gradientTransform="matrix(.5671 .56157 -1.11238 1.14519 196.997 109.169)" x1="45.878" y1="34.792" x2="45.869" y2="42.694"/><linearGradient xlink:href="#b" id="n" gradientUnits="userSpaceOnUse" gradientTransform="matrix(.7981 0 0 1.5965 225.755 -64.719)" x1="45.878" y1="34.792" x2="46.015" y2="47.577"/><linearGradient xlink:href="#j" id="k" x1="151.346" y1="136.33" x2="151.346" y2="165" gradientUnits="userSpaceOnUse"/><linearGradient xlink:href="#i" id="l" gradientUnits="userSpaceOnUse" gradientTransform="translate(2 2)" x1="149.661" y1="137.417" x2="149.661" y2="161"/></defs><g stroke-opacity=".209"><path style="isolation:auto;mix-blend-mode:normal;marker:none" d="M28.71 28.875h45.23v45.23H28.71z" color="#000" display="block" overflow="visible" fill-opacity=".143" stroke-width=".444" paint-order="fill markers stroke"/><path d="M134 134v32h32v-32zm4 4h24v24h-24z" style="isolation:auto;mix-blend-mode:normal;marker:none" color="#000" display="block" overflow="visible" fill="url(#k)" stroke-width=".418" paint-order="fill markers stroke" transform="matrix(1.33 0 0 1.33 -148.18 -148.005)"/><path d="M138 138h24v24h-24z" style="isolation:auto;mix-blend-mode:normal;marker:none" color="#000" display="block" overflow="visible" fill="url(#l)" stroke-width=".312" paint-order="fill markers stroke" transform="matrix(1.33 0 0 1.33 -148.18 -148.005)"/><path d="M35.562 45.332l15.96 21.28 35.022-39.926-35.022 29.286z" fill-opacity=".247" fill-rule="evenodd"/><path d="M35.36 42.185l15.96 21.28 36.151-38.57-36.15 27.93z" fill="#fff" fill-rule="evenodd"/><path style="isolation:auto;mix-blend-mode:normal;marker:none" d="M30.04 71.445H72.6l-.21 1.33H30.04z" color="#000" display="block" overflow="visible" fill-opacity=".253" stroke-width=".312" paint-order="fill markers stroke"/><path style="isolation:auto;mix-blend-mode:normal;marker:none" d="M35.36 35.535h31.92v1.33H35.36z" color="#000" display="block" overflow="visible" fill-opacity=".456" stroke-width=".064" paint-order="fill markers stroke"/><path d="M35.36 67.455h31.92l-.083 1.33H35.36z" style="isolation:auto;mix-blend-mode:normal;marker:none" color="#000" display="block" overflow="visible" fill="#fff" fill-opacity=".11" stroke-width=".064" paint-order="fill markers stroke"/></g><g stroke-width="1.693" stroke-miterlimit="0"><path d="M180.51 170.87l5.744 5.435-9.088 9.234-5.558-5.503z" fill="url(#m)" stroke-opacity=".192" transform="matrix(1.30435 0 0 1.30435 -144.851 -144.608)"/><path d="M258.257-9.374h22.38c1.012 0 1.826.815 1.826 1.827V8.935a1.823 1.823 0 0 1-1.826 1.826h-22.38a1.823 1.823 0 0 1-1.827-1.826V-7.547c0-1.012.815-1.827 1.827-1.827z" transform="matrix(.92683 .91778 -.90882 .93562 -144.851 -144.608)" fill="url(#n)" stroke-opacity=".192"/><path d="M120.767 101.265l3.154 3.09c.647.634.806 2.236.014 3.052l-15.34 15.784c-.638.657-2.22.685-2.956-.043l-3.336-3.294c7.885-7.479 13.595-12.744 18.464-18.59zM101.74 82.376l2.84 2.763c-7.47 6.205-11.854 10.607-18.355 18.77l-2.718-2.673c-.175-.172-.263-.763-.117-.911l17.771-17.989c.146-.148.404-.131.58.04z" fill="#570000" fill-opacity=".563"/></g><path d="M52.843 7.002c-23.061 0-44.715 20.778-44.715 43.839s21.14 43.858 44.2 43.858c23.062 0 43.515-20.454 43.515-43.515s-19.938-44.182-43-44.182zm-.514 3.212c20.32 0 36.68 17.732 36.68 38.053 0 20.322-16.36 36.681-36.68 36.681-20.322 0-36.682-16.36-36.682-36.68 0-20.322 16.36-38.054 36.682-38.054z" fill="#050505" fill-opacity=".13" stroke-width=".748"/><path d="M260.75 224.69c-2.401-.093-4.809.12-7.153.698-23.318 5.737-31.51 26.516-24.45 34.145 5.754 6.218 11.05-5.685 27.233-9.577 16.184-3.891 25.138 7.773 30.151 1.083 7.564-10.093-8.967-25.697-25.78-26.348zm27.545 33.277c-2.375-.206-4.876 1.648-5.834 4.343-1.095 3.081.068 6.582 2.703 7.518 2.634.936 5.741-1.048 6.836-4.129 1.095-3.08-.068-6.576-2.702-7.512a4.023 4.023 0 0 0-1.003-.22z" fill="url(#o)" stroke-width="2.208" stroke-miterlimit="0" stroke-opacity=".192" transform="translate(-208 -208)"/><path d="M259.754 211.985c-26.008 0-46.946 20.937-46.946 46.945s20.938 46.946 46.946 46.946S306.7 284.938 306.7 258.93s-20.938-46.945-46.946-46.945zm0 3.642c23.99 0 43.303 19.314 43.303 43.303 0 23.99-19.313 43.304-43.303 43.304s-43.304-19.313-43.304-43.304c0-23.99 19.314-43.303 43.304-43.303z" fill="url(#p)" stroke="url(#q)" stroke-width=".549" transform="translate(-208 -208)"/></svg>