<svg xmlns="http://www.w3.org/2000/svg" xmlns:xlink="http://www.w3.org/1999/xlink" height="128" viewBox="0 0 128 128" width="128"><title>Template icons dark</title><defs><linearGradient id="c"><stop offset="0" stop-color="#35b8ff"/><stop offset="1" stop-color="#ffd578"/></linearGradient><linearGradient id="b"><stop offset="0" stop-opacity=".031"/><stop offset="1" stop-opacity=".266"/></linearGradient><linearGradient id="a"><stop offset="0" stop-color="#fff" stop-opacity="0"/><stop offset="1" stop-color="#e1f0f2" stop-opacity=".803"/></linearGradient><linearGradient xlink:href="#c" id="d" x1="184.536" y1="195.531" x2="131.031" y2="127.468" gradientUnits="userSpaceOnUse" gradientTransform="matrix(1.29167 0 0 1.29167 65.333 64.333)"/><linearGradient xlink:href="#a" id="e" gradientUnits="userSpaceOnUse" gradientTransform="rotate(-4.609 1090.077 -626.675) scale(1.26466)" x1="136.2" y1="136.006" x2="125.785" y2="189.342"/><linearGradient xlink:href="#b" id="f" gradientUnits="userSpaceOnUse" gradientTransform="rotate(-115.722 258.753 214.776) scale(1.26466)" x1="177.255" y1="146.351" x2="140.341" y2="120.537"/><linearGradient xlink:href="#a" id="g" gradientUnits="userSpaceOnUse" gradientTransform="rotate(-4.609 1090.077 -626.675) scale(1.26466)" x1="139.777" y1="191.473" x2="200.801" y2="178.153"/><linearGradient xlink:href="#b" id="h" gradientUnits="userSpaceOnUse" x1="177.255" y1="146.351" x2="140.341" y2="120.537" gradientTransform="rotate(122.479 218.294 255.822) scale(1.26466)"/><linearGradient xlink:href="#a" id="i" x1="193.184" y1="160.635" x2="155.531" y2="117.469" gradientUnits="userSpaceOnUse" gradientTransform="rotate(-4.609 1094.242 -624.378) scale(1.26466)"/><linearGradient xlink:href="#b" id="j" x1="177.255" y1="146.351" x2="140.341" y2="120.537" gradientUnits="userSpaceOnUse" gradientTransform="translate(69.654 68.656) scale(1.26466)"/></defs><g color="#000"><path d="M64 1C29.758 1 2 28.758 2 63c0 34.242 27.758 62 62 62 34.242 0 62-27.758 62-62 0-34.242-27.758-62-62-62zm0 46.562c9.054 0 16.393 7.34 16.393 16.393 0 9.054-7.34 16.394-16.393 16.394-9.054 0-16.393-7.34-16.393-16.394 0-9.053 7.34-16.393 16.393-16.393z" style="isolation:auto;mix-blend-mode:normal;marker:none" display="block" overflow="visible" fill-opacity=".141" stroke-width="15.489" paint-order="fill markers stroke"/><path style="isolation:auto;mix-blend-mode:normal;marker:none" d="M272 210.298c-33.526 0-60.704 27.178-60.704 60.704 0 33.525 27.178 60.703 60.704 60.703 33.526 0 60.704-27.178 60.704-60.703 0-33.526-27.178-60.704-60.704-60.704zm0 44.353c9.558 0 17.306 7.748 17.306 17.305 0 9.558-7.748 17.306-17.306 17.306s-17.306-7.748-17.306-17.306c0-9.557 7.748-17.305 17.306-17.305z" display="block" overflow="visible" fill="url(#d)" stroke-width="15.165" paint-order="fill markers stroke" transform="translate(-208 -208)"/><path style="isolation:auto;mix-blend-mode:normal;marker:none" d="M219.692 301.823a60.703 60.703 0 0 0 21.601 21.534 53.112 53.112 0 0 1-1.494-2.342c-13.929-23.695 6.345-51.724 20.907-62.15a17.306 17.306 0 0 1 2.513-1.809c.842-.489 1.725-.906 2.638-1.247l-24.66-37.097c-28.889 17.012-38.517 54.222-21.505 83.111z" overflow="visible" fill="url(#e)" stroke-width="15.165" paint-order="fill markers stroke" transform="translate(-208 -208)"/><path style="isolation:auto;mix-blend-mode:normal;marker:none" d="M239.697 322.296a60.768 60.768 0 0 0 3.44 2.195 53.182 53.182 0 0 1-1.49-2.347c-11.82-20.239 4.834-46.391 14.626-57.358 1.588-3.643 4.482-5.982 4.482-5.982-14.592 10.386-34.941 38.342-21.08 62.077.476.795.974 1.576 1.49 2.345-.5-.295-.978-.622-1.468-.93z" overflow="visible" fill="url(#f)" stroke-width="15.165" paint-order="fill markers stroke" transform="translate(-208 -208)"/><path d="M325.593 299.548a60.704 60.704 0 0 0 7.096-29.665c-.384.843-.79 1.676-1.218 2.497-12.944 24.248-48.249 23.03-64.743 16.049a17.305 17.305 0 0 1-2.853-1.2 17.304 17.304 0 0 1-2.442-1.6l-17.96 38.945c29.588 15.766 66.354 4.561 82.12-25.026z" style="isolation:auto;mix-blend-mode:normal;marker:none" overflow="visible" fill="url(#g)" stroke-width="15.165" paint-order="fill markers stroke" transform="translate(-208 -208)"/><path d="M332.618 271.532c.061-1.357.084-2.718.053-4.08-.381.843-.784 1.68-1.21 2.503-10.972 20.71-42.786 21.758-57.267 19.215-3.933.57-7.446-.657-7.446-.657 16.516 6.929 51.811 8.07 64.679-16.218.425-.822.827-1.657 1.208-2.5.014.58-.013 1.157-.016 1.737z" style="isolation:auto;mix-blend-mode:normal;marker:none" overflow="visible" fill="url(#h)" stroke-width="15.165" paint-order="fill markers stroke" transform="translate(-208 -208)"/><path style="isolation:auto;mix-blend-mode:normal;marker:none" d="M266.968 210.826a60.704 60.704 0 0 0-28.803 10.034 53.064 53.064 0 0 1 2.76-.322c27.398-2.187 44.671 29.54 47.695 47.194.267.999.445 2.02.53 3.05.072.972.062 1.948-.03 2.919l43.234-7.246c-2.694-33.417-31.968-58.323-65.386-55.629z" overflow="visible" fill="url(#i)" stroke-width="15.165" paint-order="fill markers stroke" transform="translate(-208 -208)"/><path style="isolation:auto;mix-blend-mode:normal;marker:none" d="M239.81 219.6a60.716 60.716 0 0 0-3.47 2.146c.917-.13 1.84-.24 2.762-.323 23.363-1.866 40.555 25.87 46.185 39.452 2.593 3.012 3.444 6.634 3.444 6.634-3.023-17.654-20.237-49.502-47.636-47.314-.923.083-1.842.193-2.76.324.483-.323.985-.611 1.475-.92z" overflow="visible" fill="url(#j)" stroke-width="15.165" paint-order="fill markers stroke" transform="translate(-208 -208)"/><path style="isolation:auto;mix-blend-mode:normal;marker:none" d="M81.273 63.822a17.237 17.237 0 0 1-17.237 17.236A17.237 17.237 0 0 1 46.8 63.822a17.237 17.237 0 0 1 17.236-17.237 17.237 17.237 0 0 1 17.237 17.237z" display="block" overflow="visible" fill-opacity=".083" stroke-width="10.141" paint-order="fill markers stroke"/></g></svg>