<svg xmlns="http://www.w3.org/2000/svg" xmlns:xlink="http://www.w3.org/1999/xlink" height="128" viewBox="0 0 128 128" width="128"><title>Template icons dark</title><defs><linearGradient id="j"><stop offset="0" stop-color="#fff" stop-opacity=".194"/><stop offset=".043" stop-color="#fff" stop-opacity=".183"/><stop offset=".11" stop-color="#fff" stop-opacity=".262"/><stop offset=".139" stop-color="#fff" stop-opacity=".12"/><stop offset=".473" stop-color="#fff" stop-opacity=".136"/><stop offset=".517" stop-color="#fff" stop-opacity=".288"/><stop offset=".553" stop-color="#fff" stop-opacity=".173"/><stop offset="1" stop-color="#fff" stop-opacity=".11"/></linearGradient><linearGradient id="f"><stop offset="0" stop-opacity=".529"/><stop offset="1" stop-color="#6a062f" stop-opacity="0"/></linearGradient><linearGradient id="h"><stop offset="0" stop-opacity=".56"/><stop offset="1" stop-color="#6a062f" stop-opacity="0"/></linearGradient><linearGradient id="i"><stop offset="0" stop-opacity=".529"/><stop offset="1" stop-color="#6a062f" stop-opacity="0"/></linearGradient><linearGradient id="g"><stop offset="0" stop-opacity=".445"/><stop offset="1" stop-color="#6a062f" stop-opacity="0"/></linearGradient><linearGradient id="b"><stop offset="0" stop-color="#cfdde2"/><stop offset="1" stop-color="#90a1b1"/></linearGradient><linearGradient id="c"><stop offset="0" stop-color="#eaf2f7"/><stop offset="1" stop-color="#99b4c0"/></linearGradient><linearGradient id="d"><stop offset="0" stop-color="#f95e86"/><stop offset="1" stop-color="#613ef5"/></linearGradient><linearGradient id="a"><stop offset="0" stop-color="#7a0b1c"/><stop offset="1" stop-color="#e82895"/></linearGradient><linearGradient id="e"><stop offset="0" stop-color="#fff" stop-opacity="0"/><stop offset=".48" stop-color="#fff"/><stop offset="1" stop-color="#f5f6f6" stop-opacity="0"/></linearGradient><linearGradient xlink:href="#b" id="k" gradientUnits="userSpaceOnUse" gradientTransform="matrix(.6891 0 0 .6891 63.744 60.744)" x1="161.702" y1="118.898" x2="161.702" y2="197.932"/><linearGradient xlink:href="#c" id="l" gradientUnits="userSpaceOnUse" gradientTransform="matrix(.6891 0 0 .6891 63.744 60.744)" x1="168.352" y1="125.665" x2="168.352" y2="190.817"/><linearGradient xlink:href="#d" id="m" gradientUnits="userSpaceOnUse" gradientTransform="matrix(.66493 0 0 .66493 62.281 57.154)" x1="10.43" y1="43.068" x2="38.891" y2="13.193"/><linearGradient xlink:href="#d" id="n" gradientUnits="userSpaceOnUse" gradientTransform="matrix(.64773 0 0 .64773 70.418 67.605)" x1="142.933" y1="141.101" x2="170.722" y2="184.329"/><linearGradient xlink:href="#e" id="o" gradientUnits="userSpaceOnUse" gradientTransform="matrix(.32036 0 0 .48424 122.857 112.282)" x1="146.804" y1="139.479" x2="174.466" y2="139.479"/><linearGradient xlink:href="#e" id="p" gradientUnits="userSpaceOnUse" gradientTransform="matrix(.29664 0 0 .48424 126.31 92.35)" x1="146.804" y1="139.479" x2="174.466" y2="139.479"/><linearGradient xlink:href="#a" id="q" gradientUnits="userSpaceOnUse" x1="140.465" y1="191" x2="133.606" y2="140"/><linearGradient xlink:href="#i" id="r" gradientUnits="userSpaceOnUse" x1="144" y1="151.559" x2="154.394" y2="163"/><linearGradient xlink:href="#h" id="s" gradientUnits="userSpaceOnUse" x1="148" y1="136" x2="167.134" y2="118"/><linearGradient xlink:href="#f" id="t" gradientUnits="userSpaceOnUse" x1="138" y1="183" x2="142" y2="202.472"/><linearGradient xlink:href="#j" id="u" gradientUnits="userSpaceOnUse" x1="145.677" y1="123" x2="127" y2="195"/><linearGradient xlink:href="#f" id="v" gradientUnits="userSpaceOnUse" x1="136.449" y1="161" x2="107.15" y2="117"/></defs><g color="#000"><path d="M72.342 35.455c-.701 0-1.093.555-1.268 1.197l-2.692 9.904c-1.838.656-4.253 1.572-5.88 2.424l-8.913-5.129c-.577-.332-1.247-.446-1.743.05l-7.248 7.247c-.496.496-.38 1.158-.049 1.736l5.009 8.756a31.81 31.81 0 0 0-2.607 6.093l-9.678 2.607c-.643.173-1.197.567-1.197 1.269v10.25c0 .702.555 1.087 1.197 1.262l9.465 2.579a31.808 31.808 0 0 0 2.614 6.426l-4.881 8.487c-.332.577-.446 1.247.05 1.743l7.247 7.247c.496.496 1.158.38 1.736.05l8.374-4.797a31.807 31.807 0 0 0 6.568 2.742l2.515 9.33c.173.643.566 1.198 1.268 1.198H82.48c.702 0 1.087-.555 1.261-1.197l2.544-9.338a31.808 31.808 0 0 0 6.482-2.727l8.466 4.867c.577.332 1.247.446 1.743-.05l7.248-7.247c.496-.497.38-1.166.05-1.743l-4.91-8.566a31.808 31.808 0 0 0 2.536-6.284l9.65-2.607c.642-.173 1.197-.56 1.197-1.26V71.721c0-.702-.555-1.094-1.197-1.268l-9.813-2.664a31.808 31.808 0 0 0-2.5-5.937l5.115-8.884c.332-.577.446-1.247-.05-1.743l-7.248-7.248c-.496-.496-1.165-.38-1.742-.05l-8.906 5.102c-1.963-.806-4.018-1.801-5.852-2.395l-2.7-9.982c-.172-.643-.559-1.198-1.26-1.198H72.342zm5.075 26.256c8.351 0 15.12 6.77 15.12 15.12 0 8.351-6.769 15.12-15.12 15.12-8.35 0-15.12-6.769-15.12-15.12 0-8.35 6.77-15.12 15.12-15.12z" style="isolation:auto;mix-blend-mode:normal;marker:none" overflow="visible" fill="none" stroke="#000" stroke-width="2.640673" stroke-opacity=".168" paint-order="fill markers stroke"/><path style="isolation:auto;mix-blend-mode:normal;marker:none" d="M170.197 139.99c-.526 0-.82.417-.951.899l-2.02 7.43c-1.379.492-3.19 1.18-4.411 1.818l-6.686-3.848c-.433-.249-.935-.335-1.308.038l-5.437 5.437c-.372.372-.285.868-.037 1.302l3.758 6.569a23.863 23.863 0 0 0-1.956 4.57l-7.26 1.956c-.482.13-.898.425-.898.952v7.69c0 .526.416.815.898.946l7.1 1.935a23.862 23.862 0 0 0 1.962 4.82l-3.662 6.367c-.25.433-.335.936.037 1.308l5.437 5.437c.372.372.869.285 1.302.037l6.282-3.598a23.861 23.861 0 0 0 4.927 2.057l1.887 7c.13.481.425.897.951.897h7.69c.527 0 .816-.416.947-.898l1.908-7.005a23.862 23.862 0 0 0 4.863-2.046l6.351 3.651c.433.25.935.335 1.308-.037l5.437-5.437c.372-.372.285-.874.037-1.307l-3.683-6.426c.8-1.5 1.438-3.08 1.903-4.714l7.238-1.956c.483-.13.899-.42.899-.946v-7.69c0-.527-.417-.82-.899-.952l-7.36-1.998a23.862 23.862 0 0 0-1.877-4.454l3.837-6.665c.25-.432.335-.935-.037-1.307l-5.437-5.437c-.372-.372-.874-.285-1.307-.037l-6.681 3.826c-1.473-.604-3.014-1.35-4.39-1.796l-2.025-7.489c-.13-.482-.42-.898-.946-.898h-7.69zm3.808 19.698c6.264 0 11.343 5.078 11.343 11.343 0 6.264-5.079 11.343-11.343 11.343-6.265 0-11.344-5.079-11.344-11.343 0-6.265 5.079-11.343 11.344-11.343z" overflow="visible" fill="url(#k)" stroke-width="1.29" stroke-opacity=".141" paint-order="fill markers stroke" transform="translate(-154.53 -151.153) scale(1.333)"/><path style="line-height:normal;text-indent:0;text-align:start;text-decoration-line:none;text-decoration-style:solid;text-decoration-color:#000;text-transform:none;isolation:auto;mix-blend-mode:normal;marker:none" d="M77.417 44.17c-17.95 0-32.626 14.665-32.626 32.615 0 17.95 14.676 32.626 32.626 32.626 17.95 0 32.615-14.677 32.615-32.626 0-17.95-14.666-32.615-32.615-32.615zm0 6.92c14.282 0 25.694 11.412 25.694 25.693 0 14.282-11.412 25.708-25.693 25.708A25.6 25.6 0 0 1 51.71 76.783c0-14.281 11.426-25.693 25.708-25.693z" font-weight="400" font-family="sans-serif" white-space="normal" overflow="visible" fill-opacity=".173" stroke-width="2.27" stroke-opacity=".141" paint-order="fill markers stroke"/><path d="M174.004 147.27c-13.058 0-23.735 10.668-23.735 23.726s10.677 23.735 23.735 23.735 23.727-10.677 23.727-23.735-10.669-23.727-23.727-23.727zm0 5.033a18.607 18.607 0 0 1 18.692 18.692c0 10.39-8.302 18.702-18.691 18.702a18.624 18.624 0 0 1-18.702-18.702c0-10.39 8.312-18.692 18.702-18.692z" style="line-height:normal;text-indent:0;text-align:start;text-decoration-line:none;text-decoration-style:solid;text-decoration-color:#000;text-transform:none;isolation:auto;mix-blend-mode:normal;marker:none" font-weight="400" font-family="sans-serif" white-space="normal" overflow="visible" fill="url(#l)" stroke-width="2.201" stroke-opacity=".141" paint-order="fill markers stroke" transform="translate(-154.53 -151.153) scale(1.333)"/><path d="M174.003 152.297c-10.29 0-18.706 8.409-18.706 18.7 0 10.29 8.415 18.706 18.706 18.706s18.7-8.415 18.7-18.706-8.409-18.7-18.7-18.7zm.001 4.72a13.95 13.95 0 0 1 14.014 14.014c0 7.79-6.224 14.021-14.014 14.021a13.964 13.964 0 0 1-14.021-14.021c0-7.79 6.232-14.014 14.021-14.014z" style="line-height:normal;text-indent:0;text-align:start;text-decoration-line:none;text-decoration-style:solid;text-decoration-color:#000;text-transform:none;isolation:auto;mix-blend-mode:normal;marker:none" font-weight="400" font-family="sans-serif" white-space="normal" overflow="visible" fill="url(#m)" stroke-width="1.378" paint-order="fill markers stroke" transform="translate(-154.53 -151.153) scale(1.333)"/><path style="line-height:normal;text-indent:0;text-align:start;text-decoration-line:none;text-decoration-style:solid;text-decoration-color:#000;text-transform:none;isolation:auto;mix-blend-mode:normal;marker:none" d="M174.003 152.297c-10.29 0-18.706 8.409-18.706 18.7 0 10.29 8.415 18.706 18.706 18.706s18.7-8.415 18.7-18.706-8.409-18.7-18.7-18.7zm0 10.367a8.33 8.33 0 0 1 8.368 8.368 8.334 8.334 0 0 1-8.368 8.373 8.338 8.338 0 0 1-8.373-8.373 8.334 8.334 0 0 1 8.373-8.368z" font-weight="400" font-family="sans-serif" white-space="normal" overflow="visible" fill="url(#n)" stroke-width="1.735" stroke-opacity=".141" paint-order="fill markers stroke" transform="translate(-154.53 -151.153) scale(1.333)"/><path style="line-height:normal;text-indent:0;text-align:start;text-decoration-line:none;text-decoration-style:solid;text-decoration-color:#000;text-transform:none;isolation:auto;mix-blend-mode:normal;marker:none" d="M77.415 51.86c-13.718 0-24.934 11.209-24.934 24.927 0 .154.008.306.01.46.248-13.508 11.36-24.468 24.924-24.468s24.668 10.96 24.916 24.467c.002-.153.01-.305.01-.46 0-13.717-11.208-24.926-24.926-24.926z" font-weight="400" font-family="sans-serif" white-space="normal" overflow="visible" fill-opacity=".283" stroke-width="1.735" stroke-opacity=".141" paint-order="fill markers stroke"/><path style="isolation:auto;mix-blend-mode:normal;marker:none" d="M72.343 35.455c-.702 0-1.094.554-1.268 1.197l-2.693 9.905c-1.838.655-4.254 1.572-5.881 2.423l-8.912-5.129c-.576-.332-1.247-.446-1.743.05l-7.248 7.247c-.373.372-.399.838-.25 1.291.054-.13.133-.257.25-.373l7.248-7.246c.496-.496 1.167-.382 1.743-.05l8.912 5.129c1.627-.852 4.043-1.768 5.88-2.424l2.694-9.905c.174-.642.566-1.197 1.268-1.197h10.251c.702 0 1.088.556 1.262 1.199l2.698 9.982c1.833.594 3.889 1.587 5.852 2.393l8.906-5.1c.578-.33 1.246-.446 1.742.05l7.248 7.248c.117.117.197.244.251.377.149-.454.12-.924-.251-1.295l-7.248-7.248c-.496-.497-1.164-.381-1.742-.05l-8.906 5.1c-1.963-.806-4.019-1.8-5.852-2.393l-2.698-9.983c-.174-.642-.56-1.198-1.262-1.198zM49.307 62.12a31.801 31.801 0 0 0-2.356 5.614l-9.679 2.607c-.642.173-1.196.567-1.196 1.268v.919c0-.702.554-1.096 1.196-1.269l9.68-2.606a31.806 31.806 0 0 1 2.606-6.093zm56.178.217l-.25.435a31.806 31.806 0 0 1 2.501 5.936l9.814 2.664c.642.175 1.197.567 1.197 1.269v-.919c0-.701-.555-1.094-1.197-1.268l-9.814-2.664a31.797 31.797 0 0 0-2.251-5.453zm-56.38 30.218l-4.635 8.057c-.254.441-.377.937-.2 1.367a2.39 2.39 0 0 1 .2-.448l4.882-8.486c-.087-.161-.164-.328-.248-.49zm56.504 0c-.083.162-.16.329-.246.49l4.91 8.565c.083.144.152.295.201.446.176-.43.052-.923-.2-1.365z" overflow="visible" fill="#fff" fill-opacity=".675" stroke-width="1.29" stroke-opacity=".141" paint-order="fill markers stroke"/><path style="line-height:normal;text-indent:0;text-align:start;text-decoration-line:none;text-decoration-style:solid;text-decoration-color:#000;text-transform:none;isolation:auto;mix-blend-mode:normal;marker:none" d="M77.415 65.294c-7.313 0-13.293 5.975-13.293 13.288 0 7.313 5.98 13.292 13.293 13.292 7.313 0 13.288-5.98 13.288-13.292 0-7.313-5.975-13.288-13.288-13.288zm0 2.751c5.2 0 9.354 4.155 9.354 9.355s-4.155 9.36-9.355 9.36-9.36-4.16-9.36-9.36c0-5.2 4.16-9.355 9.36-9.355z" font-weight="400" font-family="sans-serif" white-space="normal" overflow="visible" fill-opacity=".168" stroke-width=".972" stroke-opacity=".141" paint-order="fill markers stroke"/><path d="M77.468 62.127c-8.123 0-14.765 6.637-14.765 14.76 0 8.123 6.642 14.765 14.765 14.765 8.123 0 14.76-6.642 14.76-14.765 0-8.123-6.637-14.76-14.76-14.76zm.002 3.349c6.319 0 11.368 5.049 11.368 11.367A11.322 11.322 0 0 1 77.47 88.217a11.327 11.327 0 0 1-11.374-11.374A11.322 11.322 0 0 1 77.47 65.476z" style="line-height:normal;text-indent:0;text-align:start;text-decoration-line:none;text-decoration-style:solid;text-decoration-color:#000;text-transform:none;isolation:auto;mix-blend-mode:normal;marker:none" font-weight="400" font-family="sans-serif" white-space="normal" overflow="visible" fill="#b1c7d0" stroke-width="1.407" stroke-opacity=".141" paint-order="fill markers stroke"/><path style="line-height:normal;text-indent:0;text-align:start;text-decoration-line:none;text-decoration-style:solid;text-decoration-color:#000;text-transform:none;isolation:auto;mix-blend-mode:normal;marker:none" d="M77.48 88.237A11.321 11.321 0 0 1 66.105 76.87c0-.155.017-.306.023-.46.24 6.1 5.188 10.326 11.352 10.326 6.163 0 11.104-4.225 11.343-10.326.007.154.024.305.024.46A11.315 11.315 0 0 1 77.48 88.237z" font-weight="400" font-family="sans-serif" white-space="normal" overflow="visible" fill="#718085" stroke-width="1.407" stroke-opacity=".141" paint-order="fill markers stroke"/><path style="line-height:normal;text-indent:0;text-align:start;text-decoration-line:none;text-decoration-style:solid;text-decoration-color:#000;text-transform:none;isolation:auto;mix-blend-mode:normal;marker:none" d="M77.468 61.597c-8.473 0-14.767 6.923-14.767 15.397 0 .117.006.233.008.35.188-8.314 6.403-15.047 14.76-15.047 8.356 0 14.622 8.11 14.81 16.423.003-.117.01-.233.01-.35 0-8.474-6.347-16.773-14.82-16.773zM66.703 78.704c-.005.085-.02.167-.02.253 0 3.472 5.727 9.221 10.787 9.221 5.06 0 10.89-5.75 10.89-9.221 0-.086-.015-.168-.02-.253-.209 3.353-5.935 8.739-10.87 8.739-4.936 0-10.558-5.386-10.767-8.739z" font-weight="400" font-family="sans-serif" white-space="normal" overflow="visible" fill="#fff" fill-opacity=".691" stroke-width="1.126" stroke-opacity=".141" paint-order="fill markers stroke"/><path style="isolation:auto;mix-blend-mode:normal;marker:none" overflow="visible" fill="url(#o)" stroke-width=".788" paint-order="fill markers stroke" d="M169.887 179.472h8.862v.705h-8.862z" transform="translate(-154.53 -151.153) scale(1.333)"/><path style="isolation:auto;mix-blend-mode:normal;marker:none" overflow="visible" fill="url(#p)" stroke-width=".758" paint-order="fill markers stroke" d="M169.857 159.54h8.206v.705h-8.206z" transform="translate(-154.53 -151.153) scale(1.333)"/></g><g fill-rule="evenodd"><path d="M9.428 10.14v105.307h21.36l-.032-43.989h22.661V50.13h-22.66V31.468H68.08V10.14z" style="isolation:auto;mix-blend-mode:normal;marker:none" color="#000" overflow="visible" fill="none" stroke="#000" stroke-width="2.666" stroke-linecap="square" stroke-linejoin="bevel" stroke-opacity=".267" paint-order="markers fill stroke"/><path style="isolation:auto;mix-blend-mode:normal;marker:none" d="M124 120v79h16.024L140 166h17v-16h-17v-14h28v-16z" color="#000" overflow="visible" fill="url(#q)" stroke-width="4.457" stroke-linecap="square" stroke-linejoin="bevel" paint-order="markers fill stroke" transform="translate(-154.53 -151.153) scale(1.333)"/><path d="M32.12 114.114l-.03-43.989h22.66V48.797H32.09V30.135h37.323V8.807H10.761v1.333h58.652v19.995H32.09V50.13H54.75v19.995H32.09v44.02l-21.329-.03z" style="line-height:normal;font-variant-ligatures:normal;font-variant-position:normal;font-variant-caps:normal;font-variant-numeric:normal;font-variant-alternates:normal;font-feature-settings:normal;text-indent:0;text-align:start;text-decoration-line:none;text-decoration-style:solid;text-decoration-color:#000;text-transform:none;text-orientation:mixed;shape-padding:0;isolation:auto;mix-blend-mode:normal;marker:none" color="#000" font-weight="400" font-family="sans-serif" white-space="normal" overflow="visible" fill="#fff" fill-opacity=".419" stroke-linecap="square" stroke-linejoin="bevel" paint-order="markers fill stroke"/><path d="M141 166h16v-16h-13z" fill="url(#r)" transform="translate(-154.53 -151.153) scale(1.333)"/><path d="M168 136h-21l3-16h18z" fill="url(#s)" transform="translate(-154.53 -151.153) scale(1.333)"/><path d="M140 170.236L134 199h6z" fill="url(#t)" transform="translate(-154.53 -151.153) scale(1.333)"/><path d="M137 120l-13 79h1l13-79zm12 0l-3 16h1l3-16zm-6 30l-3 16h1l3-16zm-3 19l-7 30h1l6-28.764z" style="line-height:normal;font-variant-ligatures:normal;font-variant-position:normal;font-variant-caps:normal;font-variant-numeric:normal;font-variant-alternates:normal;font-feature-settings:normal;text-indent:0;text-align:start;text-decoration-line:none;text-decoration-style:solid;text-decoration-color:#000;text-transform:none;text-orientation:mixed;shape-padding:0;isolation:auto;mix-blend-mode:normal" color="#000" font-weight="400" font-family="sans-serif" white-space="normal" overflow="visible" fill="url(#u)" stroke-width=".6" transform="translate(-154.53 -151.153) scale(1.333)"/><path d="M124 120v79l13-79z" fill="url(#v)" transform="translate(-154.53 -151.153) scale(1.333)"/></g></svg>