<svg xmlns:osb="http://www.openswatchbook.org/uri/2009/osb" xmlns="http://www.w3.org/2000/svg" xmlns:xlink="http://www.w3.org/1999/xlink" height="128" viewBox="0 0 128 128" width="128"><title>Template icons dark</title><defs><linearGradient id="h"><stop offset="0" stop-color="#d6dee0"/><stop offset="1" stop-color="#fff" stop-opacity=".474"/></linearGradient><linearGradient id="g"><stop offset="0" stop-color="#403d60" stop-opacity=".396"/><stop offset="1" stop-opacity=".073"/></linearGradient><linearGradient id="f"><stop offset="0" stop-color="#c3ced1"/><stop offset="1" stop-color="#f6f6f6"/></linearGradient><linearGradient id="a"><stop offset="0" stop-color="#c9cfd1"/><stop offset="1" stop-color="#fff"/></linearGradient><linearGradient id="b" osb:paint="solid"><stop offset="0" stop-color="#2d393e" stop-opacity=".117"/></linearGradient><linearGradient id="c"><stop offset="0" stop-opacity=".204"/><stop offset="1" stop-opacity="0"/></linearGradient><linearGradient id="d"><stop offset="0" stop-color="#dce1e8"/><stop offset="1" stop-color="#fff"/></linearGradient><linearGradient id="e" osb:paint="solid"><stop offset="0" stop-color="#33d351"/></linearGradient><linearGradient xlink:href="#d" id="o" gradientUnits="userSpaceOnUse" gradientTransform="matrix(2.65584 0 0 2.65584 1796.693 803.672)" x1="-578.647" y1="-204.784" x2="-578.647" y2="-214.622"/><linearGradient xlink:href="#c" id="m" gradientUnits="userSpaceOnUse" gradientTransform="matrix(1.39225 0 0 1.37796 -1162.5 -262.355)" x1="1031.269" y1="365.654" x2="1031.269" y2="380.159"/><linearGradient xlink:href="#b" id="l" gradientUnits="userSpaceOnUse" gradientTransform="matrix(1.33325 0 0 1.33325 455.43 350.488)" x1="-49.096" y1="1041.18" x2="-9.096" y2="1041.18"/><linearGradient xlink:href="#d" id="n" gradientUnits="userSpaceOnUse" gradientTransform="matrix(2.65584 0 0 2.65584 239.564 255.5)" x1="17.92" y1="19.84" x2="17.92" y2="11.307"/><linearGradient xlink:href="#c" id="k" gradientUnits="userSpaceOnUse" gradientTransform="matrix(1.39225 0 0 1.10871 -1163.833 -113.432)" x1="1031.269" y1="365.654" x2="1031.269" y2="380.159"/><linearGradient xlink:href="#e" id="j" gradientUnits="userSpaceOnUse" gradientTransform="matrix(1.0666 0 0 1.07273 244.215 -820.412)"/><linearGradient gradientTransform="matrix(1.33325 0 0 1.33325 58.68 58.681)" xlink:href="#f" id="i" x1="162.551" y1="202.929" x2="162.551" y2="116" gradientUnits="userSpaceOnUse"/></defs><g transform="translate(-208 -208)"><path d="M228.249 218.005h86.5c5.676 0 10.47 4.574 10.246 10.246v87.5c0 5.676-4.57 10.246-10.246 10.246h-86.5a10.224 10.224 0 0 1-10.246-10.246v-87.5c0-5.676 4.574-10.471 10.246-10.246z" style="isolation:auto;mix-blend-mode:normal;marker:none" color="#000" overflow="visible" fill="#2e2e2e" fill-opacity=".245" stroke-width="1.333" stroke-opacity=".458" paint-order="fill markers stroke"/><path style="isolation:auto;mix-blend-mode:normal;marker:none" d="M229.582 219.338h83.834c5.676 0 10.246 4.57 10.246 10.246v84.834c0 5.676-4.57 10.246-10.246 10.246h-83.834a10.224 10.224 0 0 1-10.246-10.246v-84.834c0-5.676 4.57-10.246 10.246-10.246z" color="#000" overflow="visible" fill="url(#i)" stroke-width="1.333" stroke-opacity=".458" paint-order="fill markers stroke"/><path style="isolation:auto;mix-blend-mode:normal;marker:none" d="M219.336 313.084v1.333c0 5.677 4.575 10.032 10.247 10.247h83.832c5.677 0 10.247-4.57 10.247-10.247v-1.333c0 5.676-4.575 10.024-10.247 10.247H229.583a10.225 10.225 0 0 1-10.247-10.247z" color="#000" overflow="visible" fill="#fff" fill-opacity=".542" stroke-width="1.333" stroke-opacity=".458" paint-order="fill markers stroke"/><path d="M255.958 285.299h35.174c6.09 0 10.993 5.07 10.993 11.367 0 6.297-4.903 11.367-10.993 11.367h-35.174c-6.09 0-10.993-5.07-10.993-11.367 0-6.297 4.903-11.367 10.993-11.367z" fill="#fff" fill-opacity=".365" stroke-width="1.5"/><path d="M256.614 286.667h31.998c5.54 0 10 4.46 10 10 0 5.539-4.46 9.998-10 9.998h-31.998c-5.54 0-10-4.46-10-9.999 0-5.54 4.46-10 10-10z" fill="url(#j)" stroke-width="1.203"/><path d="M256.547 286.685a9.887 9.887 0 0 0-9.895 9.895v.154a9.889 9.889 0 0 0 9.895 9.898h32.196a9.889 9.889 0 0 0 9.895-9.898v-.154a9.887 9.887 0 0 0-9.895-9.895zm0 1.333h32.196a8.527 8.527 0 0 1 8.562 8.562v.154a8.53 8.53 0 0 1-8.562 8.565h-32.196a8.53 8.53 0 0 1-8.562-8.565v-.154a8.527 8.527 0 0 1 8.562-8.562z" style="line-height:normal;font-variant-ligatures:normal;font-variant-position:normal;font-variant-caps:normal;font-variant-numeric:normal;font-variant-alternates:normal;font-feature-settings:normal;text-indent:0;text-align:start;text-decoration-line:none;text-decoration-style:solid;text-decoration-color:#000;text-transform:none;text-orientation:mixed;shape-padding:0;isolation:auto;mix-blend-mode:normal" color="#000" font-weight="400" font-family="sans-serif" white-space="normal" overflow="visible" fill="url(#k)" stroke-width="1.196"/><path d="M255.106 235.969h35.387c6.126 0 11.058 5.07 11.058 11.367 0 6.297-4.932 11.367-11.058 11.367h-35.387c-6.126 0-11.058-5.07-11.058-11.367 0-6.298 4.932-11.367 11.058-11.367z" fill="#fff" fill-opacity=".583" stroke-width="1.504"/><path d="M257.947 237.337h31.998c5.54 0 10 4.46 10 9.999 0 5.54-4.46 10-10 10h-31.998c-5.54 0-9.999-4.46-9.999-10s4.46-10 10-10z" fill="url(#l)" stroke-width="1.342"/><path d="M257.88 237.355a9.887 9.887 0 0 0-9.895 9.895v.154a9.889 9.889 0 0 0 9.895 9.898h32.196a9.889 9.889 0 0 0 9.895-9.898v-.154a9.887 9.887 0 0 0-9.895-9.895zm0 1.333h32.196a8.527 8.527 0 0 1 8.562 8.562v.154a8.53 8.53 0 0 1-8.562 8.564H257.88a8.53 8.53 0 0 1-8.562-8.564v-.154a8.527 8.527 0 0 1 8.562-8.562z" style="line-height:normal;font-variant-ligatures:normal;font-variant-position:normal;font-variant-caps:normal;font-variant-numeric:normal;font-variant-alternates:normal;font-feature-settings:normal;text-indent:0;text-align:start;text-decoration-line:none;text-decoration-style:solid;text-decoration-color:#000;text-transform:none;text-orientation:mixed;shape-padding:0;isolation:auto;mix-blend-mode:normal" color="#000" font-weight="400" font-family="sans-serif" white-space="normal" overflow="visible" fill="url(#m)" stroke-width="1.333"/><path style="isolation:auto;mix-blend-mode:normal;marker:none" d="M227.336 224.671a2.666 2.666 0 1 0 0 5.333 2.666 2.666 0 0 0 0-5.333zm88.327 0a2.666 2.666 0 1 0 0 5.333 2.666 2.666 0 0 0 0-5.333zm-88.327 89.327a2.666 2.666 0 1 0 0 5.333 2.666 2.666 0 0 0 0-5.333zm88.327 0a2.666 2.666 0 1 0 0 5.333 2.666 2.666 0 0 0 0-5.333z" color="#000" overflow="visible" fill-opacity=".188" stroke-width=".77" stroke-opacity=".198" paint-order="fill markers stroke"/><path style="isolation:auto;mix-blend-mode:normal;marker:none" d="M229.984 316.965a2.666 2.666 0 0 0-2.648-2.388 2.667 2.667 0 0 0-2.649 2.365 2.653 2.653 0 0 1-.018-.276 2.667 2.667 0 1 1 5.315.3zm88.327 0a2.666 2.666 0 0 0-2.648-2.388 2.667 2.667 0 0 0-2.649 2.365 2.653 2.653 0 0 1-.018-.276 2.667 2.667 0 1 1 5.315.3zm-88.327-89.327a2.666 2.666 0 0 0-2.648-2.388 2.667 2.667 0 0 0-2.649 2.365 2.653 2.653 0 0 1-.018-.276 2.666 2.666 0 1 1 5.315.3zm88.327 0a2.666 2.666 0 0 0-2.648-2.388 2.666 2.666 0 0 0-2.649 2.365 2.653 2.653 0 0 1-.018-.276 2.666 2.666 0 1 1 5.315.3z" color="#000" overflow="visible" fill-opacity=".318" stroke-width=".77" stroke-opacity=".198" paint-order="fill markers stroke"/><path d="M229.984 227.578a2.666 2.666 0 0 1-2.648 2.388 2.667 2.667 0 0 1-2.649-2.364c-.01.091-.017.183-.018.276a2.667 2.667 0 1 0 5.315-.3zm88.327 0a2.666 2.666 0 0 1-2.648 2.388 2.667 2.667 0 0 1-2.649-2.364c-.01.091-.017.183-.018.276a2.667 2.667 0 1 0 5.315-.3zm-88.327 89.327a2.666 2.666 0 0 1-2.648 2.388 2.667 2.667 0 0 1-2.649-2.364c-.01.091-.017.183-.018.276a2.666 2.666 0 1 0 5.315-.3zm88.327 0a2.666 2.666 0 0 1-2.648 2.388 2.666 2.666 0 0 1-2.649-2.364c-.01.091-.017.183-.018.276a2.666 2.666 0 1 0 5.315-.3z" style="isolation:auto;mix-blend-mode:normal;marker:none" color="#000" overflow="visible" fill="#fff" fill-opacity=".922" stroke-width=".77" stroke-opacity=".198" paint-order="fill markers stroke"/><path style="isolation:auto;mix-blend-mode:normal;marker:none" d="M219.336 272h104.326v1.334H219.336z" color="#000" display="block" overflow="visible" fill-opacity=".115" stroke-width="1.098" stroke-opacity=".594" paint-order="fill markers stroke"/><path style="isolation:auto;mix-blend-mode:normal;marker:none" d="M219.336 273.334h104.326v1.333H219.336z" color="#000" display="block" overflow="visible" fill="#fff" fill-opacity=".724" stroke-width="1.098" stroke-opacity=".594" paint-order="fill markers stroke"/><circle cx="287.279" cy="297.999" r="15.332" fill-opacity=".157" stroke-width=".639" stroke-miterlimit="4.6" stroke-opacity=".197"/><circle r="13.999" cy="296.666" cx="287.279" fill="url(#n)" stroke-width=".555" stroke-miterlimit="4.6"/><circle cx="287.279" cy="296.666" r="13.363" fill="none" stroke="#fff" stroke-width="1.273" stroke-miterlimit="4.6" stroke-opacity=".237"/><circle transform="scale(-1 1)" r="15.332" cy="248.669" cx="-259.281" fill-opacity=".157" stroke-width=".639" stroke-miterlimit="4.6" stroke-opacity=".197"/><circle r="13.999" cy="247.336" cx="259.281" fill="url(#o)" stroke-width=".555" stroke-miterlimit="4.6"/><circle cx="259.281" cy="247.336" r="13.363" fill="none" stroke="#fff" stroke-width="1.273" stroke-miterlimit="4.6" stroke-opacity=".237"/></g></svg>