<svg xmlns="http://www.w3.org/2000/svg" xmlns:xlink="http://www.w3.org/1999/xlink" height="128" viewBox="0 0 128 128" width="128"><title>Template icons dark</title><defs><linearGradient id="c"><stop offset="0" stop-color="#8298a2"/><stop offset="1" stop-color="#c3d5dc" stop-opacity=".984"/></linearGradient><linearGradient id="d"><stop offset="0" stop-color="#889da6"/><stop offset="1" stop-color="#b9cdd5" stop-opacity=".984"/></linearGradient><linearGradient id="e"><stop offset="0" stop-color="#758d98"/><stop offset="1" stop-color="#acc5ce" stop-opacity=".984"/></linearGradient><linearGradient id="b"><stop offset="0" stop-color="#e0eef7"/><stop offset="1" stop-color="#909b9c"/></linearGradient><linearGradient id="a"><stop offset="0" stop-color="#98aab2"/><stop offset="1" stop-color="#d3e0e5" stop-opacity=".984"/></linearGradient><linearGradient xlink:href="#a" id="h" gradientUnits="userSpaceOnUse" x1="141.165" y1="190.299" x2="186.52" y2="128" gradientTransform="rotate(-15 469.733 13.26) scale(1.32358)"/><linearGradient xlink:href="#a" id="g" gradientUnits="userSpaceOnUse" x1="141.165" y1="190.299" x2="186.52" y2="128" gradientTransform="rotate(-15 469.733 13.26) scale(1.32358)"/><linearGradient xlink:href="#b" id="f" gradientUnits="userSpaceOnUse" gradientTransform="rotate(-15 464.706 13.922) scale(1.32358)" x1="161" y1="199" x2="161" y2="195.016"/></defs><path style="isolation:auto;mix-blend-mode:normal;marker:none" d="M93.12.01c-.359.021-.723.08-1.085.176L7.812 22.752a5.388 5.388 0 0 0-3.819 6.615L27.87 118.48v.003l1.056 3.94.353 1.316c.001.005.004.005.005.012l.22.815a4.622 4.622 0 0 0 5.672 3.274l85.712-22.968a4.62 4.62 0 0 0 3.275-5.669L99.888 8.602c-.004-.015-.009-.026-.014-.04l-1.222-4.556A5.387 5.387 0 0 0 93.12.01z" color="#000" overflow="visible" fill-opacity=".104" stroke-width="1.036"/><path style="isolation:auto;mix-blend-mode:normal;marker:none" d="M10.033 29.277L93.386 6.943a4.492 4.492 0 0 1 5.514 3.183l23.608 88.105a4.492 4.492 0 0 1-3.184 5.514l-83.353 22.334a4.492 4.492 0 0 1-5.514-3.183L6.85 34.79a4.492 4.492 0 0 1 3.183-5.514z" color="#000" overflow="visible" fill="#59686e" stroke-width="1.008"/><path style="isolation:auto;mix-blend-mode:normal;marker:none" d="M11.972 32.119L91.48 10.815a4.31 4.31 0 0 1 5.29 3.054l22.52 84.043a4.31 4.31 0 0 1-3.055 5.29l-79.508 21.305a4.31 4.31 0 0 1-5.29-3.055L8.917 37.41a4.31 4.31 0 0 1 3.055-5.29z" color="#000" display="block" overflow="visible" fill-opacity=".225" stroke-width=".962"/><path style="isolation:auto;mix-blend-mode:normal;marker:none" d="M219.63 238.84l79.507-21.304a4.31 4.31 0 0 1 5.29 3.055l22.52 84.043a4.31 4.31 0 0 1-3.055 5.29l-79.508 21.304a4.31 4.31 0 0 1-5.29-3.054l-22.52-84.043a4.31 4.31 0 0 1 3.055-5.29z" color="#000" display="block" overflow="visible" fill="url(#f)" stroke-width=".962" transform="translate(-208 -208)"/><path style="isolation:auto;mix-blend-mode:normal;marker:none" d="M217.362 231.89l81.904-21.946a5.241 5.241 0 0 1 6.433 3.714l22.534 84.098a5.241 5.241 0 0 1-3.714 6.433l-81.904 21.946c-2.81.753-4.166 4.747-4.377 3.956l-24.59-91.768a5.241 5.241 0 0 1 3.714-6.434z" color="#000" overflow="visible" fill="url(#g)" stroke-width="1.008" transform="translate(-208 -208)"/><path style="line-height:1000%;-inkscape-font-specification:'Nimbus Roman, '" d="M81.043 65.116L76.715 48.96l-1.602.429c.708 5.706-.214 6.998-5.887 8.668l-10.097 2.705-4.142-15.459c-.49-2.107-.337-2.372 1.594-2.964l9.47-2.538c8.115-2.025 9.769-1.423 12.543 4.476l1.741-.467-2.877-9.901-36.975 9.907.354 1.323c5.177-1.014 6.255-.332 7.738 4.644l8.079 30.151c1.516 5.938 1.025 6.89-4.174 8.657l.355 1.323 19.497-5.225-.355-1.323c-5.348 1.21-6.584.496-8.015-4.569l-4.068-15.18 10.097-2.705c5.729-1.46 7.104-.784 9.45 4.632z" font-weight="400" font-family="Nimbus Roman" letter-spacing="0" word-spacing="0" fill-opacity=".236" stroke-width="4.506"/><path style="line-height:1000%;-inkscape-font-specification:'Nimbus Roman, '" d="M80.646 62.906l-4.328-16.155-1.602.43c.708 5.706-.215 6.998-5.887 8.667l-10.097 2.705-4.142-15.458c-.49-2.108-.337-2.373 1.594-2.965l9.47-2.537c8.115-2.026 9.769-1.424 12.543 4.475l1.741-.466-2.877-9.902-36.975 9.907.354 1.324c5.177-1.014 6.255-.333 7.738 4.643l8.079 30.152c1.516 5.937 1.025 6.89-4.174 8.656l.354 1.323 19.498-5.224-.355-1.323c-5.348 1.209-6.584.495-8.016-4.57l-4.067-15.18 10.097-2.705c5.728-1.46 7.104-.784 9.45 4.632z" font-weight="400" font-family="Nimbus Roman" letter-spacing="0" word-spacing="0" fill="#fdfefe" stroke-width="4.506"/><path style="isolation:auto;mix-blend-mode:normal;marker:none" d="M11.633 27.09a1.32 1.32 0 0 1 1.621.936l22.953 85.658a1.32 1.32 0 0 1-.936 1.62 1.32 1.32 0 0 1-1.621-.935L10.697 28.711a1.32 1.32 0 0 1 .936-1.621z" color="#000" display="block" overflow="visible" fill="#0c0f10" fill-opacity=".192" stroke-width="1.008"/><path style="isolation:auto;mix-blend-mode:normal;marker:none" d="M119.89 88.477a5.242 5.242 0 0 1-3.714 6.434l-81.903 21.946c-2.81.753-4.166 4.747-4.378 3.956l.343 1.279c.212.79 1.567-3.204 4.378-3.957l81.903-21.946a5.242 5.242 0 0 0 3.714-6.433z" color="#000" overflow="visible" fill-opacity=".434" stroke-width="1.008"/></svg>