<svg xmlns="http://www.w3.org/2000/svg" xmlns:xlink="http://www.w3.org/1999/xlink" height="128" viewBox="0 0 128 128" width="128"><title>Template icons dark</title><defs><linearGradient id="h"><stop offset="0" stop-color="#2aa591"/><stop offset="1" stop-color="#2498e4"/></linearGradient><linearGradient id="g"><stop offset="0" stop-color="#eeda60"/><stop offset="1" stop-color="#db9918"/></linearGradient><linearGradient id="b"><stop offset="0" stop-color="#2a0ff3" stop-opacity=".132"/><stop offset=".521" stop-color="#3bf963" stop-opacity=".291"/><stop offset="1" stop-color="#ef4cff" stop-opacity=".297"/></linearGradient><linearGradient id="a"><stop offset="0" stop-color="#e1e3e7"/><stop offset=".21" stop-color="#dee1e4"/><stop offset=".38" stop-color="#f1f2f3"/><stop offset=".67" stop-color="#c2c6cd"/><stop offset="1" stop-color="#d7dadf"/></linearGradient><linearGradient id="c"><stop offset="0" stop-color="#fff"/><stop offset="1" stop-color="#fff" stop-opacity="0"/></linearGradient><linearGradient id="d"><stop offset="0"/><stop offset="1" stop-opacity="0"/></linearGradient><linearGradient id="e"><stop offset="0" stop-color="#babdb6"/><stop offset="1" stop-color="#fff"/></linearGradient><linearGradient id="f"><stop offset="0" stop-color="#888a85"/><stop offset="1" stop-color="#555753"/></linearGradient><linearGradient gradientTransform="matrix(2.86125 0 0 2.86125 203.444 204.462)" xlink:href="#a" id="i" x1="9.196" y1="4.43" x2="37.228" y2="44" gradientUnits="userSpaceOnUse"/><linearGradient gradientTransform="translate(53.845 54.863) scale(1.36364)" xlink:href="#g" id="j" x1="160.063" y1="200" x2="160" y2="196.534" gradientUnits="userSpaceOnUse"/></defs><path d="M18 5v120h23l4-4 38.119-.045L87 125h23V5z" fill-opacity=".104" stroke-width="2.988" stroke-opacity=".24"/><path d="M19 6v118h22l7-10h31.984L87 124h22V6z" fill="#565e66" stroke-width="2.861" stroke-opacity=".24"/><path d="M228 215l.095 116H249l7.036-9h31.948l7.016 9h21V215z" fill="url(#i)" stroke-width="2.861" stroke-opacity=".24" transform="translate(-208 -208)"/><path d="M48 114l-4.24 6H85l-5-6z" fill="#6c7587" fill-rule="evenodd" stroke-width="2.861"/><path style="isolation:auto;mix-blend-mode:normal;marker:none" d="M256.036 322l-.036 6h2v-6zm4.964 0v6h2v-6zm5 0v6h2v-6zm10 0v6h2v-6zm5.008 0l-.008 6h2v-6zm4.992 0v6h2l-.016-6z" color="#000" display="block" overflow="visible" fill="url(#j)" stroke-width=".372" stroke-linecap="round" stroke-linejoin="round" stroke-opacity=".964" transform="translate(-208 -208)"/><path d="M48 114l-2 3h36.457L80 114z" fill-opacity=".247" fill-rule="evenodd" stroke-width="2.01"/><path style="isolation:auto;mix-blend-mode:normal;marker:none" d="M41 31h46v68H41z" color="#000" display="block" overflow="visible" fill-opacity=".22" stroke-width=".743" stroke-linecap="round" stroke-linejoin="round" stroke-opacity=".964"/><path style="isolation:auto;mix-blend-mode:normal;marker:none" d="M41 99h46v1H41z" color="#000" overflow="visible" fill="#fff" fill-opacity=".5" stroke-width="1.364" stroke-linecap="square" stroke-dasharray="2.72728475,2.72728475" stroke-dashoffset="9.739" paint-order="markers stroke fill"/><path d="M25.846 65.046a2.726 2.726 0 0 1 2.732 2.732 2.726 2.726 0 0 1-2.732 2.733 2.726 2.726 0 0 1-2.733-2.733 2.726 2.726 0 0 1 2.733-2.732zM25.846 114.137a2.726 2.726 0 0 1 2.732 2.732 2.726 2.726 0 0 1-2.732 2.733 2.726 2.726 0 0 1-2.733-2.733 2.726 2.726 0 0 1 2.733-2.732zM102.21 10.5a2.726 2.726 0 0 1 2.732 2.733 2.726 2.726 0 0 1-2.732 2.732 2.726 2.726 0 0 1-2.733-2.732 2.726 2.726 0 0 1 2.733-2.733zM102.21 65.046a2.726 2.726 0 0 1 2.732 2.732 2.726 2.726 0 0 1-2.732 2.733 2.726 2.726 0 0 1-2.733-2.733 2.726 2.726 0 0 1 2.733-2.732zM102.21 114.137a2.726 2.726 0 0 1 2.732 2.732 2.726 2.726 0 0 1-2.732 2.733 2.726 2.726 0 0 1-2.733-2.733 2.726 2.726 0 0 1 2.733-2.732zM25.846 10.5a2.726 2.726 0 0 1 2.732 2.733 2.726 2.726 0 0 1-2.732 2.732 2.726 2.726 0 0 1-2.733-2.732 2.726 2.726 0 0 1 2.733-2.733z" fill="#737373" stroke-width="3.643" stroke-opacity=".643"/><path d="M25.846 10.5a2.727 2.727 0 0 0-2.733 2.733c0 .133.022.26.04.389a2.718 2.718 0 0 1 5.385 0c.018-.129.04-.256.04-.39a2.727 2.727 0 0 0-2.733-2.732zm76.364 0a2.727 2.727 0 0 0-2.733 2.733c0 .133.022.26.04.389a2.718 2.718 0 0 1 5.385 0c.018-.129.04-.256.04-.39a2.727 2.727 0 0 0-2.733-2.732zM25.846 65.046a2.727 2.727 0 0 0-2.733 2.732c0 .134.022.261.04.39a2.718 2.718 0 0 1 5.385 0c.018-.129.04-.256.04-.39a2.727 2.727 0 0 0-2.733-2.732zm76.364 0a2.727 2.727 0 0 0-2.733 2.732c0 .134.022.261.04.39a2.718 2.718 0 0 1 5.385 0c.018-.129.04-.256.04-.39a2.727 2.727 0 0 0-2.733-2.732zm-76.364 49.091a2.727 2.727 0 0 0-2.733 2.733c0 .133.022.26.04.388a2.718 2.718 0 0 1 5.385 0c.018-.128.04-.255.04-.388a2.727 2.727 0 0 0-2.733-2.733zm76.364 0a2.727 2.727 0 0 0-2.733 2.733c0 .133.022.26.04.388a2.718 2.718 0 0 1 5.385 0c.018-.128.04-.255.04-.388a2.727 2.727 0 0 0-2.733-2.733z" fill-opacity=".462" stroke-width="3.643" stroke-opacity=".643"/><path style="isolation:auto;mix-blend-mode:normal;marker:none" d="M25.846 11.864a1.364 1.364 0 0 0-1.364 1.363 1.364 1.364 0 0 0 1.364 1.364 1.364 1.364 0 0 0 1.363-1.364 1.364 1.364 0 0 0-1.363-1.363zm76.364 0a1.364 1.364 0 0 0-1.364 1.363 1.364 1.364 0 0 0 1.364 1.364 1.364 1.364 0 0 0 1.363-1.364 1.364 1.364 0 0 0-1.363-1.363zM25.846 66.41a1.364 1.364 0 0 0-1.364 1.363 1.364 1.364 0 0 0 1.364 1.364 1.364 1.364 0 0 0 1.363-1.364 1.364 1.364 0 0 0-1.363-1.363zm76.364 0a1.364 1.364 0 0 0-1.364 1.363 1.364 1.364 0 0 0 1.364 1.364 1.364 1.364 0 0 0 1.363-1.364 1.364 1.364 0 0 0-1.363-1.363zM25.846 115.5a1.364 1.364 0 0 0-1.364 1.364 1.364 1.364 0 0 0 1.364 1.364 1.364 1.364 0 0 0 1.363-1.364 1.364 1.364 0 0 0-1.363-1.363zm76.364.051a1.364 1.364 0 0 0-1.364 1.364 1.364 1.364 0 0 0 1.364 1.364 1.364 1.364 0 0 0 1.363-1.364 1.364 1.364 0 0 0-1.363-1.364z" color="#000" display="block" overflow="visible" fill="#fff" fill-opacity=".275" stroke-width=".517" stroke-opacity=".28" paint-order="fill markers stroke"/><path style="isolation:auto;mix-blend-mode:normal;marker:none" d="M65.793 43.819a18.83 18.83 0 0 0-18.832 18.83 18.83 18.83 0 0 0 3.095 10.328 10.663 10.663 0 0 0-8.161 10.353 10.663 10.663 0 0 0 10.661 10.664A10.663 10.663 0 0 0 63.221 83.33a10.663 10.663 0 0 0-.219-2.083 18.83 18.83 0 0 0 2.791.232 18.83 18.83 0 0 0 18.83-18.83 18.83 18.83 0 0 0-18.83-18.83z" color="#000" display="block" overflow="visible" fill="#fff" fill-opacity=".324" stroke="#000" stroke-width=".483" stroke-opacity=".28" paint-order="fill markers stroke"/><path style="isolation:auto;mix-blend-mode:normal;marker:none" d="M64.07 47.747c-.26 0-.404.207-.469.445l-.932 3.46c-.847.247-1.665.588-2.437 1.017l-3.105-1.779c-.215-.123-.46-.165-.645.019l-2.687 2.687c-.184.184-.142.433-.019.647l1.809 3.148c-.41.757-.734 1.557-.97 2.384l-3.51.956c-.238.065-.445.209-.445.469V65c0 .26.207.408.445.472l3.59.967c.243.785.567 1.544.967 2.261l-1.856 3.247c-.123.214-.168.46.015.644l2.69 2.688c.185.184.434.141.648.018l3.305-1.901c.604.316 1.5.654 2.181.897l.999 3.676c.065.238.209.442.469.442h3.803c.26 0 .405-.204.469-.442l1.001-3.705c.68-.22 1.443-.588 2.17-.887l3.303 1.891c.215.122.464.165.648-.019l2.687-2.687c.184-.184.142-.433.019-.647l-1.9-3.295c.384-.7.696-1.439.93-2.202l3.638-.988c.239-.065.445-.209.445-.47v-3.802c0-.26-.206-.405-.445-.47l-3.58-.966c-.229-.808-.544-1.59-.94-2.33l1.822-3.178c.123-.214.166-.463-.018-.647l-2.688-2.687c-.184-.185-.433-.142-.647-.02l-3.14 1.807a11.806 11.806 0 0 0-2.405-1.012l-.943-3.463c-.065-.238-.208-.445-.469-.445zm1.926 9.708a5.61 5.61 0 1 1-.001 11.22 5.61 5.61 0 0 1 0-11.22zm-14.81 18.318c-.137 0-.215.107-.248.231l-.488 1.811a6.18 6.18 0 0 0-1.275.533l-1.625-.93c-.112-.064-.242-.088-.338.009l-1.406 1.408c-.097.097-.076.227-.011.339l.948 1.646a6.18 6.18 0 0 0-.506 1.249l-1.838.5c-.125.034-.232.11-.232.246v1.99c0 .135.107.21.232.244l1.878.506c.127.411.296.807.506 1.183l-.972 1.702c-.065.112-.086.239.01.335l1.407 1.41c.096.095.226.072.338.007l1.731-.996c.316.165.783.344 1.14.471l.525 1.923c.034.125.109.232.245.232h1.99c.135 0 .21-.107.244-.232l.525-1.939c.356-.115.756-.307 1.137-.463l1.729.99c.112.065.242.086.338-.01l1.406-1.406c.097-.097.075-.227.011-.339l-.993-1.726c.2-.366.362-.753.484-1.153l1.905-.517c.124-.033.234-.108.234-.245V82.79c0-.136-.11-.211-.234-.245l-1.873-.506a6.178 6.178 0 0 0-.492-1.22l.953-1.662c.064-.112.086-.242-.01-.338l-1.407-1.406c-.096-.096-.226-.075-.338-.011l-1.644.945a6.184 6.184 0 0 0-1.26-.53l-.492-1.813c-.034-.125-.109-.232-.245-.232zm1.006 5.081a2.935 2.935 0 1 1 .001 5.87 2.935 2.935 0 0 1 0-5.87z" color="#000" overflow="visible" fill="#656c76" stroke="#f7f2f8" stroke-width=".517" stroke-opacity=".808" paint-order="fill markers stroke"/><path style="isolation:auto;mix-blend-mode:normal;marker:none" color="#000" display="block" overflow="visible" fill-opacity=".286" stroke-width="1.364" stroke-linecap="square" stroke-dasharray="2.72728475,2.72728475" stroke-dashoffset="9.739" paint-order="markers stroke fill" d="M41 31h46v1H41z"/></svg>