<svg xmlns="http://www.w3.org/2000/svg" xmlns:xlink="http://www.w3.org/1999/xlink" height="128" viewBox="0 0 128 128" width="128"><title>Template icons dark</title><defs><linearGradient id="f"><stop offset="0" stop-color="#647780"/><stop offset="1" stop-color="#fff"/></linearGradient><linearGradient id="e"><stop offset="0" stop-opacity=".135"/><stop offset="1" stop-opacity="0"/></linearGradient><linearGradient id="d"><stop offset="0" stop-color="#391f3c" stop-opacity=".059"/><stop offset="1" stop-color="#391f3c" stop-opacity="0"/></linearGradient><linearGradient id="c"><stop offset="0" stop-color="#d8d8d8"/><stop offset="1" stop-color="#fff" stop-opacity=".995"/></linearGradient><linearGradient id="a"><stop offset="0" stop-color="#626262"/><stop offset="1" stop-color="#626262" stop-opacity="0"/></linearGradient><linearGradient id="b"><stop offset="0" stop-color="#69c2b7"/><stop offset="1" stop-color="#64a5b5"/></linearGradient><linearGradient gradientTransform="matrix(1.33333 0 0 1.33333 58.163 57.83)" xlink:href="#d" id="h" x1="160.063" y1="136" x2="160.063" y2="118.488" gradientUnits="userSpaceOnUse"/><linearGradient gradientTransform="matrix(1.33333 0 0 1.33333 58.163 57.83)" xlink:href="#c" id="g" x1="196" y1="196" x2="160" y2="160" gradientUnits="userSpaceOnUse"/><linearGradient xlink:href="#e" id="i" gradientUnits="userSpaceOnUse" x1="162" y1="188.703" x2="162" y2="145"/><linearGradient xlink:href="#f" id="j" gradientUnits="userSpaceOnUse" x1="174" y1="144.177" x2="174" y2="189.118"/><linearGradient xlink:href="#b" id="k" gradientUnits="userSpaceOnUse" gradientTransform="translate(-20.706 -15.965) scale(1.12927)" x1="164" y1="143.615" x2="164" y2="180"/></defs><path style="isolation:auto;mix-blend-mode:normal;marker:none" d="M15.496 6.496h96c5.91 0 8.667 2.758 8.667 8.667v98.666c0 5.91-2.758 8.667-8.667 8.667h-96c-5.91 0-8.666-2.757-8.666-8.667V15.163c0-5.91 2.757-8.667 8.666-8.667z" color="#000" overflow="visible" fill-opacity=".172" stroke-width=".8" stroke-opacity=".583"/><path d="M119.496 103.163v10.666c0 4.432-3.568 8-8 8h-96c-4.432 0-8-3.568-8-8v-10.666z" style="isolation:auto;mix-blend-mode:normal;marker:none" color="#000" display="block" overflow="visible" fill="#696969" stroke-width=".764" stroke-opacity=".583"/><path style="isolation:auto;mix-blend-mode:normal;marker:none" d="M119.496 100.496v10.667c0 4.432-3.568 8-8 8h-96c-4.432 0-8-3.568-8-8v-10.667z" color="#000" display="block" overflow="visible" fill="#a5a5a5" stroke-width=".764" stroke-opacity=".583"/><path style="isolation:auto;mix-blend-mode:normal;marker:none" d="M223.496 215.163h96c4.432 0 8 3.568 8 8v92c0 4.432-3.568 8-8 8h-96c-4.432 0-8-3.568-8-8v-92c0-4.432 3.568-8 8-8z" color="#000" display="block" overflow="visible" fill="url(#g)" stroke-width=".764" stroke-opacity=".583" transform="translate(-208 -208)"/><path style="isolation:auto;mix-blend-mode:normal;marker:none" d="M223.496 215.163c-4.432 0-8 3.568-8 8v16h112v-16c0-4.432-3.568-8-8-8zm32 8a5.333 5.333 0 0 1 5.333 5.333 5.333 5.333 0 0 1-5.333 5.333 5.333 5.333 0 0 1-5.333-5.333 5.333 5.333 0 0 1 5.333-5.333zm32 0a5.333 5.333 0 0 1 5.333 5.333 5.333 5.333 0 0 1-5.333 5.333 5.333 5.333 0 0 1-5.333-5.333 5.333 5.333 0 0 1 5.333-5.333z" color="#000" display="block" overflow="visible" fill="url(#h)" stroke-width=".764" stroke-opacity=".583" transform="translate(-208 -208)"/><path style="line-height:1000%" d="M96.717 104.592v4.477h1.245c.864 0 1.501-.183 1.909-.544.408-.362.612-.93.612-1.7 0-.769-.204-1.331-.61-1.691-.405-.362-1.043-.542-1.91-.542zm.607.498h.732c.618 0 1.068.14 1.354.419.288.278.432.715.432 1.315 0 .604-.144 1.046-.432 1.326-.286.28-.736.419-1.354.419h-.732zm5.274.539c-.18 0-.365.02-.555.06-.19.038-.384.096-.586.174v.508a2.207 2.207 0 0 1 1.086-.273c.302 0 .534.068.7.208.168.138.253.335.253.588v.055h-.773c-.502 0-.882.095-1.136.287-.252.191-.377.476-.377.854 0 .324.102.582.304.776.204.192.477.289.82.289.272 0 .503-.047.69-.143.189-.098.346-.25.472-.454v.51h.552v-1.916c0-.512-.122-.894-.362-1.146-.24-.251-.603-.377-1.088-.377zm2.192.08l1.36 3.305-.1.253c-.101.268-.194.436-.278.508a.528.528 0 0 1-.354.109h-.326v.46h.443c.248 0 .446-.06.594-.181.148-.122.3-.385.456-.784l1.474-3.67h-.584l-1.05 2.628-1.049-2.628zm-1.843 1.67h.549v.125c0 .36-.093.646-.279.864a.917.917 0 0 1-.734.326c-.222 0-.399-.058-.529-.172a.603.603 0 0 1-.192-.469c0-.246.086-.419.257-.52.172-.103.482-.154.928-.154z" font-family="sans-serif" letter-spacing="0" word-spacing="0" fill="#3ca0a0" fill-opacity=".568" stroke-width=".288"/><path style="line-height:1000%" d="M66.03 34.606v5.486h.648v-5.486zm-6.685.223v4.896c0 .456-.066.772-.195.948-.13.177-.35.266-.664.266h-.224v.599h.273c.534 0 .92-.143 1.159-.43.242-.287.362-.748.362-1.383V34.83zm2.034 1.316v2.39c0 .543.119.955.354 1.237.235.282.578.422 1.031.422.275 0 .517-.057.724-.172a1.61 1.61 0 0 0 .55-.536v.606h.648v-3.947h-.648v2.237c0 .385-.103.69-.308.914-.202.223-.477.336-.828.336-.291 0-.51-.093-.656-.28-.146-.187-.219-.47-.219-.843v-2.364zm6.187 0l1.597 3.885-.115.294c-.12.315-.23.517-.328.602-.099.085-.238.125-.417.125h-.38v.544h.518c.292 0 .524-.073.698-.216.174-.143.354-.45.537-.92l1.734-4.314h-.687l-1.235 3.088-1.234-3.088z" font-family="sans-serif" letter-spacing="0" word-spacing="0" fill-opacity=".516" stroke-width=".451"/><path style="isolation:auto;mix-blend-mode:normal;marker:none" d="M7.496 105.83v1.333c0 4.432 3.568 8 8 8h96c4.432 0 8-3.568 8-8v-1.334c0 4.432-3.568 8-8 8h-96c-4.432 0-8-3.568-8-8z" color="#000" display="block" overflow="visible" fill="#fff" fill-opacity=".495" stroke-width=".764" stroke-opacity=".583"/><path d="M7.496 109.83v1.333c0 4.432 3.568 8 8 8h96c4.432 0 8-3.568 8-8v-1.334c0 4.432-3.568 8-8 8h-96c-4.432 0-8-3.568-8-8z" style="isolation:auto;mix-blend-mode:normal;marker:none" color="#000" display="block" overflow="visible" fill="#fff" fill-opacity=".208" stroke-width=".764" stroke-opacity=".583"/><path style="isolation:auto;mix-blend-mode:normal;marker:none" d="M7.496 112.496v1.333c0 4.432 3.568 8 8 8h96c4.432 0 8-3.568 8-8v-1.333c0 4.432-3.568 8-8 8h-96c-4.432 0-8-3.568-8-8z" color="#000" display="block" overflow="visible" fill="#fff" fill-opacity=".099" stroke-width=".764" stroke-opacity=".583"/><g color="#000" stroke-width="1.2" stroke-opacity=".583"><path d="M47.496 15.163a5.333 5.333 0 0 0-5.333 5.333 5.333 5.333 0 0 0 5.333 5.333 5.333 5.333 0 0 0 5.333-5.333 5.333 5.333 0 0 0-5.333-5.333zm32 0a5.333 5.333 0 0 0-5.333 5.333 5.333 5.333 0 0 0 5.333 5.333 5.333 5.333 0 0 0 5.333-5.333 5.333 5.333 0 0 0-5.333-5.333z" style="isolation:auto;mix-blend-mode:normal;marker:none" display="block" overflow="visible" fill="#fff" fill-opacity=".927"/><path d="M47.496 15.163a5.333 5.333 0 0 0-5.333 5.333 5.333 5.333 0 0 0 .047.675 5.333 5.333 0 0 1 5.286-4.675 5.333 5.333 0 0 1 5.287 4.659 5.333 5.333 0 0 0 .046-.659 5.333 5.333 0 0 0-5.333-5.333zm32 0a5.333 5.333 0 0 0-5.333 5.333 5.333 5.333 0 0 0 .047.675 5.333 5.333 0 0 1 5.286-4.675 5.333 5.333 0 0 1 5.286 4.659 5.333 5.333 0 0 0 .047-.659 5.333 5.333 0 0 0-5.333-5.333z" style="isolation:auto;mix-blend-mode:normal;marker:none" display="block" overflow="visible" fill-opacity=".401"/><path style="isolation:auto;mix-blend-mode:normal;marker:none" d="M47.496 25.811a5.333 5.333 0 0 1-5.333-5.333 5.333 5.333 0 0 1 .047-.674 5.333 5.333 0 0 0 5.286 4.674 5.333 5.333 0 0 0 5.287-4.659 5.333 5.333 0 0 1 .047.66 5.333 5.333 0 0 1-5.334 5.332zm32 0a5.333 5.333 0 0 1-5.333-5.333 5.333 5.333 0 0 1 .047-.674 5.333 5.333 0 0 0 5.286 4.674 5.333 5.333 0 0 0 5.286-4.659 5.333 5.333 0 0 1 .047.66 5.333 5.333 0 0 1-5.333 5.332z" display="block" overflow="visible" fill="#e6e6e6" fill-opacity=".292"/></g><g font-weight="400" font-family="Roboto" letter-spacing="0" word-spacing="0"><path style="line-height:1000%;-inkscape-font-specification:Roboto;font-variant-ligatures:normal;font-variant-position:normal;font-variant-caps:normal;font-variant-numeric:normal;font-variant-alternates:normal;font-feature-settings:normal;text-indent:0;text-align:start;text-decoration-line:none;text-decoration-style:solid;text-decoration-color:#000;text-transform:none;text-orientation:mixed;shape-padding:0;isolation:auto;mix-blend-mode:normal" d="M144.04 144.346c-3.934 0-7.399 1.212-10.067 3.629-2.646 2.394-4.055 5.615-4.055 9.224v1.766h8.633v-1.766c0-1.708.46-2.804 1.414-3.717.97-.93 2.206-1.414 4.074-1.414 2.05 0 3.269.487 4.025 1.246.757.76 1.245 1.989 1.245 4.05 0 1.708-.473 2.777-1.48 3.677-1.006.898-2.42 1.423-4.534 1.455h-5.57v7.695h5.588c2.425.036 4.031.603 5.056 1.497 1.024.892 1.545 2.072 1.545 4.046 0 2.091-.517 3.388-1.43 4.287-.91.897-2.258 1.422-4.416 1.422-1.994 0-3.333-.502-4.35-1.437-1.019-.938-1.5-2.045-1.5-3.776v-1.765h-8.66v1.765c0 3.761 1.426 7.064 4.141 9.418l.002.002.002.002c2.723 2.343 6.277 3.489 10.365 3.489 4.1 0 7.662-1.196 10.364-3.623 2.725-2.448 4.117-5.904 4.117-9.893 0-2.637-.712-5.037-2.166-6.98l-.002-.002c-.76-1.027-1.717-1.872-2.8-2.58a11.62 11.62 0 0 0 2.339-2.512c1.305-1.877 2.021-3.949 2.021-6.076 0-3.923-1.253-7.288-3.787-9.649-2.53-2.357-6.016-3.48-10.115-3.48zm32.3 0c-4.746 0-8.652 1.692-11.037 5.045-2.373 3.334-3.389 8.073-3.389 14.18v6.824l.002.011c.076 5.856 1.153 10.465 3.531 13.756l.002.002.002.002c2.403 3.303 6.272 4.975 10.946 4.975 4.733 0 8.636-1.72 11.015-5.108 2.369-3.371 3.383-8.162 3.383-14.34v-6.637c-.057-5.976-1.104-10.6-3.488-13.826l-.002-.002c-2.394-3.254-6.267-4.883-10.965-4.883zm0 7.722c2.186 0 3.342.632 4.26 2.133l.002.004.002.004c.91 1.476 1.556 4.35 1.556 8.506v8.336c-.053 4.024-.723 6.817-1.656 8.293l-.004.006-.002.004c-.924 1.483-2.037 2.09-4.102 2.09-2.079 0-3.238-.64-4.228-2.242-.968-1.615-1.621-4.544-1.621-8.707v-8.149c.035-3.912.673-6.662 1.592-8.174.899-1.48 2.033-2.103 4.2-2.103z" color="#000" white-space="normal" overflow="visible" fill="url(#i)" stroke="url(#j)" stroke-width=".6" stroke-opacity=".448" transform="translate(-146.084 -146.859) scale(1.3138)"/><path d="M144.04 145.982c-3.586 0-6.547 1.057-8.883 3.171-2.317 2.097-3.473 4.735-3.473 7.916h5.101c0-2.078.653-3.74 1.959-4.991 1.324-1.269 3.089-1.903 5.295-1.903 4.69 0 7.034 2.352 7.034 7.06 0 2.096-.69 3.761-2.069 4.993-1.379 1.232-3.272 1.867-5.681 1.904h-3.834v4.164h3.834c2.703.037 4.772.682 6.206 1.932 1.435 1.25 2.15 3.042 2.15 5.377 0 2.41-.65 4.258-1.956 5.545-1.305 1.287-3.19 1.93-5.655 1.93-2.317 0-4.166-.635-5.545-1.903-1.379-1.27-2.069-2.96-2.069-5.075h-5.13c0 3.346 1.177 6.042 3.531 8.083 2.372 2.041 5.443 3.061 9.213 3.061 3.77 0 6.83-1.056 9.184-3.171 2.354-2.115 3.531-4.976 3.531-8.58 0-2.335-.606-4.313-1.82-5.93-1.194-1.62-2.896-2.776-5.103-3.475 1.95-.809 3.486-2.033 4.608-3.67 1.14-1.637 1.709-3.328 1.709-5.075 0-3.567-1.075-6.353-3.227-8.357-2.151-2.004-5.122-3.006-8.91-3.006zm32.3 0c-4.358 0-7.557 1.434-9.598 4.303-2.041 2.869-3.062 7.253-3.062 13.156v6.813c.074 5.646 1.139 9.894 3.199 12.744 2.06 2.832 5.232 4.248 9.517 4.248 4.34 0 7.53-1.452 9.572-4.358 2.041-2.905 3.061-7.347 3.061-13.324v-6.619c-.055-5.774-1.104-10.04-3.145-12.8-2.04-2.776-5.222-4.163-9.543-4.163zm0 4.193c2.63 0 4.552.991 5.766 2.977 1.214 1.968 1.82 5.112 1.82 9.434v8.359c-.056 4.192-.698 7.263-1.93 9.213-1.214 1.949-3.081 2.922-5.6 2.922-2.556 0-4.468-1.028-5.737-3.088-1.25-2.078-1.877-5.287-1.877-9.627V162.2c.037-4.083.653-7.107 1.848-9.074 1.196-1.968 3.1-2.951 5.71-2.951z" style="line-height:1000%;-inkscape-font-specification:Roboto" fill="url(#k)" stroke-width="3.531" transform="translate(-146.084 -146.859) scale(1.3138)"/><path style="line-height:1000%;-inkscape-font-specification:Roboto" d="M43.155 49.126c-2.9 0-5.217.835-6.957 2.502-1.715 1.643-2.573 3.826-2.573 6.556h-6.641c-.035.432-.062.866-.062 1.314h6.703c0-2.73.858-4.913 2.573-6.556 1.74-1.667 4.058-2.502 6.957-2.502 5.908 0 8.975 2.851 9.217 8.54.01-.192.023-.38.023-.578 0-6.185-3.08-9.276-9.24-9.276zm42.437 0c-3.431 0-5.93 1.292-7.5 3.877-1.571 2.585-2.382 6.559-2.43 11.922v1.314c.048-5.363.859-9.337 2.43-11.922 1.57-2.585 4.069-3.877 7.5-3.877 3.454 0 5.98 1.304 7.575 3.913 1.594 2.585 2.391 6.717 2.391 12.394v-1.314c0-5.677-.797-9.809-2.391-12.394-1.595-2.609-4.12-3.913-7.575-3.913zM59.077 59.182c-.125 2.071-.863 4.082-2.222 6.033-1.474 2.15-3.492 3.759-6.053 4.822a16.43 16.43 0 0 1 1.524.574c1.849-1.021 3.362-2.38 4.529-4.082 1.498-2.15 2.248-4.371 2.248-6.667 0-.232-.019-.452-.026-.68zM37.176 72.934v1.313h5.037c3.552.049 6.27.898 8.155 2.54 1.752 1.528 2.677 3.68 2.8 6.439.009-.228.025-.452.025-.688 0-3.068-.94-5.421-2.825-7.064-1.885-1.643-4.603-2.492-8.155-2.54zm65.087 1.668c0 7.851-1.34 13.688-4.02 17.505-2.683 3.817-6.875 5.725-12.577 5.725-5.63 0-9.798-1.86-12.504-5.581-2.706-3.745-4.107-9.327-4.203-16.744v1.314c.096 7.417 1.497 12.999 4.203 16.743 2.706 3.721 6.875 5.582 12.504 5.582 5.702 0 9.894-1.908 12.576-5.725 2.682-3.817 4.021-9.654 4.021-17.506zm-42.388 8.362c-.122 4.463-1.652 8.037-4.616 10.7-3.093 2.779-7.113 4.168-12.066 4.168-4.952 0-8.987-1.34-12.104-4.021-2.776-2.408-4.296-5.516-4.58-9.307h-.059c0 4.397 1.547 7.939 4.64 10.62 3.116 2.682 7.15 4.022 12.103 4.022 4.953 0 8.973-1.39 12.066-4.168 3.092-2.778 4.64-6.537 4.64-11.272 0-.253-.013-.496-.024-.742z" fill-opacity=".151" stroke-width="3.531"/></g></svg>