<svg xmlns="http://www.w3.org/2000/svg" xmlns:xlink="http://www.w3.org/1999/xlink" height="128" viewBox="0 0 128 128" width="128"><title>Template icons dark</title><defs><linearGradient id="e"><stop offset="0" stop-color="#ff2a0b"/><stop offset=".496" stop-color="#110200" stop-opacity=".453"/><stop offset=".532" stop-opacity=".13"/><stop offset=".617" stop-color="#ffcdc5" stop-opacity=".106"/><stop offset=".702" stop-color="#ffd2cb" stop-opacity=".161"/><stop offset=".778" stop-color="#ffe2dd" stop-opacity="0"/><stop offset=".872" stop-color="#fff" stop-opacity=".109"/><stop offset=".936" stop-color="#fff" stop-opacity=".078"/><stop offset="1" stop-opacity=".354"/></linearGradient><linearGradient id="d"><stop offset="0" stop-opacity="0"/><stop offset=".497" stop-opacity="0"/><stop offset=".749" stop-opacity=".271"/><stop offset="1" stop-opacity="0"/></linearGradient><linearGradient id="b"><stop offset="0" stop-color="#c5c5c5"/><stop offset="1" stop-color="#f4f4f4"/></linearGradient><linearGradient id="a"><stop offset="0" stop-color="#cd3a00"/><stop offset="1" stop-color="#cf6e53"/></linearGradient><linearGradient id="c"><stop offset="0" stop-color="#fff" stop-opacity="0"/><stop offset=".657" stop-color="#fff" stop-opacity="0"/><stop offset=".829" stop-color="#fff8f4" stop-opacity=".26"/><stop offset="1" stop-color="#fff" stop-opacity="0"/></linearGradient><linearGradient gradientTransform="matrix(1.29167 0 0 1.29167 65.415 65.8)" xlink:href="#a" id="f" x1="160" y1="205" x2="160" y2="113" gradientUnits="userSpaceOnUse"/><linearGradient gradientTransform="matrix(1.29167 0 0 1.29167 65.415 65.8)" xlink:href="#b" id="g" x1="170" y1="201.251" x2="170" y2="119" gradientUnits="userSpaceOnUse"/><radialGradient gradientTransform="matrix(1.29167 0 0 1.29167 65.415 65.8)" xlink:href="#e" id="h" cx="160" cy="160" fx="160" fy="160" r="47" gradientUnits="userSpaceOnUse"/></defs><path d="M23.326 6.342c-5.696 0-5.297 8.52-8.916 11.91-2.957 2.77-9.697 1.006-10.184 6.635-.606 6.997-.096 20.124 1.778 23.752L46.187 8.925S28.52 6.342 23.326 6.342zm80.267 0c-5.194 0-22.861 2.583-22.861 2.583l40.183 39.714c1.874-3.628 2.384-16.755 1.778-23.752-.487-5.629-7.227-3.865-10.184-6.635-3.62-3.39-3.22-11.91-8.916-11.91zM6.004 81.226C4.13 84.854 3.62 97.98 4.226 104.978c.487 5.628 7.227 3.864 10.184 6.635 3.619 3.39 3.22 11.91 8.916 11.91 5.193 0 22.861-2.583 22.861-2.583zm114.91 0L80.733 120.94s17.667 2.583 22.861 2.583c5.696 0 5.297-8.52 8.916-11.91 2.957-2.77 9.697-1.007 10.184-6.635.606-6.997.096-20.124-1.778-23.752z" fill="none" fill-rule="evenodd" stroke="#fff" stroke-width="1.679"/><path d="M23.326 6.342c-5.696 0-5.297 8.52-8.916 11.91-2.957 2.77-9.697 1.006-10.184 6.635-.606 6.997-.096 20.124 1.778 23.752L46.187 8.925S28.52 6.342 23.326 6.342zm80.267 0c-5.194 0-22.861 2.583-22.861 2.583l40.183 39.714c1.874-3.628 2.384-16.755 1.778-23.752-.487-5.629-7.227-3.865-10.184-6.635-3.62-3.39-3.22-11.91-8.916-11.91zM6.004 81.226C4.13 84.854 3.62 97.98 4.226 104.978c.487 5.628 7.227 3.864 10.184 6.635 3.619 3.39 3.22 11.91 8.916 11.91 5.193 0 22.861-2.583 22.861-2.583zm114.91 0L80.733 120.94s17.667 2.583 22.861 2.583c5.696 0 5.297-8.52 8.916-11.91 2.957-2.77 9.697-1.007 10.184-6.635.606-6.997.096-20.124-1.778-23.752z" fill="none" fill-rule="evenodd" stroke="#9c8456" stroke-width="1.679" stroke-dasharray="3.35833333,1.67916667"/><path d="M64.081 2.467c-34.241 0-62 27.758-62 62 0 34.242 27.759 62 62 62 34.242 0 62-27.758 62-62 0-34.242-27.758-62-62-62zm0 33.583c15.694 0 28.417 12.723 28.417 28.417S79.775 92.884 64.08 92.884 35.665 80.16 35.665 64.467 48.387 36.05 64.08 36.05z" style="isolation:auto;mix-blend-mode:normal;marker:none" color="#000" display="block" overflow="visible" fill-opacity=".052" stroke-width="1.348" stroke-opacity=".37" paint-order="fill markers stroke"/><path style="isolation:auto;mix-blend-mode:normal;marker:none" d="M272.081 211.759a60.708 60.708 0 0 0-60.708 60.708 60.708 60.708 0 0 0 60.708 60.708 60.708 60.708 0 0 0 60.709-60.708 60.708 60.708 0 0 0-60.709-60.708zm0 31a29.708 29.708 0 0 1 29.709 29.708 29.708 29.708 0 0 1-29.709 29.708 29.708 29.708 0 0 1-29.708-29.708 29.708 29.708 0 0 1 29.708-29.708z" color="#000" display="block" overflow="visible" fill="url(#f)" stroke-width="1.32" stroke-opacity=".37" paint-order="fill markers stroke" transform="translate(-208 -208)"/><path style="isolation:auto;mix-blend-mode:normal;marker:none" d="M241.3 220.147a60.988 60.988 0 0 0-21.539 21.54l24.698 20.898a29.373 29.373 0 0 1 17.738-17.748zm61.562 0l-20.9 24.698a29.373 29.373 0 0 1 17.749 17.738l24.69-20.897a60.988 60.988 0 0 0-21.54-21.54zm-58.408 62.21l-24.693 20.89a60.989 60.989 0 0 0 21.537 21.54l20.896-24.7a29.373 29.373 0 0 1-17.74-17.73zm55.247 0a29.373 29.373 0 0 1-17.73 17.737l20.89 24.693a60.989 60.989 0 0 0 21.54-21.537z" color="#000" overflow="visible" fill="url(#g)" stroke="#441201" stroke-width="1.562" stroke-opacity=".391" paint-order="fill markers stroke" transform="translate(-208 -208)"/><path d="M272.081 211.759a60.708 60.708 0 0 0-60.708 60.708 60.708 60.708 0 0 0 60.708 60.708 60.708 60.708 0 0 0 60.709-60.708 60.708 60.708 0 0 0-60.709-60.708zm0 31a29.708 29.708 0 0 1 29.709 29.708 29.708 29.708 0 0 1-29.709 29.708 29.708 29.708 0 0 1-29.708-29.708 29.708 29.708 0 0 1 29.708-29.708z" style="isolation:auto;mix-blend-mode:normal;marker:none" color="#000" overflow="visible" fill="url(#h)" stroke-width="1.32" stroke-opacity=".37" paint-order="fill markers stroke" transform="translate(-208 -208)"/><path d="M34.565 11.509L55.547 36.05zm58.889 0L72.472 36.05zm-82.475 23.25L35.521 55.74zM35.521 73.4L10.979 94.382zm56.977 0l24.542 20.982zM55.547 93.09l-20.982 24.542zm16.925 0l20.982 24.542z" fill="none" fill-rule="evenodd" stroke="#fff" stroke-width="1.292" stroke-opacity=".214"/><path style="line-height:1000%;-inkscape-font-specification:Z003" d="M110.114 32.998a.222.222 0 0 0-.198.08c-.072.087-.119.258-.132.499-.015.258-.024.417-.031.479a12.347 12.347 0 0 0-.271-.352c-.023-.018-.07-.014-.09.01-.03.038-.116.464-.177.868l.077.102c.01-.035.03-.105.061-.203.024-.096.033-.114.057-.143.036-.044.094-.04.16.014.132.109.897 1.098 1.514 1.955l-.102.138.028.207c.058-.063.093-.107.106-.122l.221-.261.196-.232c.024-.03.066-.08.137-.174l.001-.19-.36.392c-.184-.231-.271-.34-.318-.403-.062-.082-.128-.16-.193-.244l-.124-.169c.075-.061.111-.1.163-.162.165-.201.18-.257.176-.738.004-.206-.012-.293-.074-.435-.142-.314-.364-.625-.573-.797a.487.487 0 0 0-.255-.12zm-1.86.153a.799.799 0 0 0-.158.147c-.12.147-.158.306-.145.618.012.279.036.368.13.524.063.101.294.426.426.595l.931 1.207a.516.516 0 0 0 .06.061c.114.094.275.121.323.063l.019-.023.009-.009c.029-.013.044-.196.095-1.014l-.08-.068c-.019.113-.02.114-.05.353-.02.16-.043.247-.076.287-.03.037-.098.03-.15-.012l-.033-.027-.033-.027c-.067-.054-.643-.803-1.049-1.363-.425-.589-.46-.673-.327-.835a.821.821 0 0 1 .173-.159zm1.88.272a.355.355 0 0 1 .175.088c.165.135.332.359.455.613.139.28.144.492.02.643a.734.734 0 0 1-.31.212l-.096-.122-.204-.26-.193-.25-.109-.139c.024-.478.059-.646.137-.741.03-.037.074-.051.126-.043zm-3.538 1.753a.54.54 0 0 0-.157.142.524.524 0 0 0-.085.133c-.046.116-.052.423-.017.716.038.277.09.405.266.655l.275.392.086.125-.64.782c-.052-.08-.09-.13-.103-.152a32.952 32.952 0 0 1-.41-.564 7.884 7.884 0 0 0-.111-.14l-.004-.242c-.086.09-.14.155-.182.207-.295.36-.432.66-.448.978-.015.318.082.544.313.734.059.048.101.072.207.122l.134-.351a1.042 1.042 0 0 1-.285-.167c-.202-.165-.28-.371-.225-.572.039-.122.099-.218.282-.442.135.203.151.22.537.745l.084.114.032.247.085-.09c.538.736.571.899.25 1.291a2.687 2.687 0 0 1-.168.188l.096.368a1.44 1.44 0 0 0 .162-.168 1.12 1.12 0 0 0 .196-.311c.06-.141.065-.445.023-.798-.042-.36-.055-.39-.337-.825.344-.479.444-.616.609-.825.062.082.1.139.12.16l.243.341c.408.55.409.55.456.589.04.033.107.027.143-.017a.565.565 0 0 0 .066-.118c.052-.117.09-.184.345-.644l-.037-.142c-.138.206-.187.27-.265.366-.06.073-.133.088-.195.036-.114-.093-.114-.093-.834-1.077-.626-.907-.626-.907-.66-1.008-.043-.128-.028-.22.056-.323.06-.073.101-.107.197-.163zm1.387.367c-.065.006-.126.045-.18.11a.542.542 0 0 0-.117.277 1.723 1.723 0 0 0-.01.558c.054.278.355.735.653.979.216.177.445.175.598-.012.178-.216.246-.629.19-1.136l-.105-.09c.009.498-.029.732-.143.871-.079.096-.202.117-.318.065a.95.95 0 0 1-.22-.15c.032-.257.043-.42.06-.768.015-.326-.047-.499-.212-.634a.266.266 0 0 0-.196-.07zm-.053.353c.04.004.086.024.132.062.183.15.213.354.146.937-.345-.388-.51-.8-.378-.962a.11.11 0 0 1 .1-.037z" font-weight="400" font-family="Z003" letter-spacing="0" word-spacing="0" fill-opacity=".443" stroke-width=".297"/><path style="isolation:auto;mix-blend-mode:normal;marker:none" d="M99.539 18.408c-.495.01-.987.21-1.36.596a1.933 1.933 0 0 0 .048 2.74l8.368 8.07a1.933 1.933 0 0 0 2.74-.05 1.933 1.933 0 0 0-.05-2.74l-8.366-8.07a1.932 1.932 0 0 0-1.38-.546zm-70.704.629a1.931 1.931 0 0 0-1.38.545l-8.365 8.07a1.933 1.933 0 0 0-.05 2.74 1.933 1.933 0 0 0 2.74.048l8.365-8.07a1.934 1.934 0 0 0 .05-2.74 1.93 1.93 0 0 0-1.36-.593zm63.02 7.056a1.932 1.932 0 0 0-1.36.595 1.933 1.933 0 0 0 .053 2.74l8.373 8.06a1.933 1.933 0 0 0 2.74-.05 1.933 1.933 0 0 0-.05-2.74l-8.376-8.063a1.93 1.93 0 0 0-1.38-.542zm-55.027.464a1.931 1.931 0 0 0-1.38.545l-8.366 8.073a1.93 1.93 0 0 0-.05 2.737 1.933 1.933 0 0 0 2.74.05l8.365-8.07a1.933 1.933 0 0 0 .05-2.74 1.934 1.934 0 0 0-1.36-.595zm47.032 7.215a1.926 1.926 0 0 0-1.357.596 1.933 1.933 0 0 0 .05 2.74l8.376 8.06a1.933 1.933 0 0 0 2.74-.05 1.933 1.933 0 0 0-.051-2.74l-8.376-8.063a1.935 1.935 0 0 0-1.382-.543zm-39.353 1.093a1.929 1.929 0 0 0-1.38.542l-8.368 8.073a1.933 1.933 0 0 0-.048 2.74 1.933 1.933 0 0 0 2.74.048l8.365-8.07a1.934 1.934 0 0 0 .05-2.74 1.93 1.93 0 0 0-1.359-.593zm47.171 47.168a1.931 1.931 0 0 0-1.38.545l-8.368 8.07a1.933 1.933 0 0 0-.048 2.74 1.934 1.934 0 0 0 2.74.05l8.365-8.07a1.933 1.933 0 0 0 .048-2.74 1.928 1.928 0 0 0-1.357-.595zm-55.45.315a1.931 1.931 0 0 0-1.36.593 1.933 1.933 0 0 0 .047 2.74l8.368 8.07a1.933 1.933 0 0 0 2.74-.05 1.933 1.933 0 0 0-.048-2.74l-8.368-8.068a1.932 1.932 0 0 0-1.38-.545zm-7.685 7.682a1.932 1.932 0 0 0-1.36.596 1.934 1.934 0 0 0 .053 2.74l8.373 8.062c.773.745 1.995.72 2.74-.053a1.933 1.933 0 0 0-.05-2.74l-8.376-8.062a1.93 1.93 0 0 0-1.38-.543zm70.812.31a1.929 1.929 0 0 0-1.38.543l-8.366 8.073a1.934 1.934 0 0 0-.05 2.74 1.933 1.933 0 0 0 2.74.048l8.368-8.07a1.933 1.933 0 0 0 .048-2.74 1.93 1.93 0 0 0-1.36-.593zm8.108 7.461a1.932 1.932 0 0 0-1.377.55l-8.328 8.11a1.933 1.933 0 0 0-.035 2.74c.749.77 1.97.787 2.74.038l8.327-8.113c.77-.749.785-1.97.036-2.74a1.93 1.93 0 0 0-1.363-.585zm-86.912-.091a1.932 1.932 0 0 0-1.36.595 1.934 1.934 0 0 0 .053 2.74l8.373 8.063c.773.744 1.995.72 2.74-.053a1.933 1.933 0 0 0-.05-2.74l-8.377-8.063a1.93 1.93 0 0 0-1.38-.542z" color="#000" display="block" overflow="visible" fill-opacity=".12" stroke-width="1.679" paint-order="fill markers stroke"/></svg>