<svg xmlns:osb="http://www.openswatchbook.org/uri/2009/osb" xmlns="http://www.w3.org/2000/svg" xmlns:xlink="http://www.w3.org/1999/xlink" height="128" viewBox="0 0 128 128" width="128"><title>Template icons dark</title><defs><linearGradient id="i" osb:paint="solid"><stop offset="0"/></linearGradient><linearGradient id="g" osb:paint="solid"><stop offset="0" stop-color="#fff" stop-opacity=".079"/></linearGradient><linearGradient id="f" osb:paint="solid"><stop offset="0" stop-color="#c0aa8a"/></linearGradient><linearGradient id="c" osb:paint="solid"><stop offset="0" stop-opacity=".079"/></linearGradient><linearGradient id="e"><stop offset="0" stop-color="#e5d3b9" stop-opacity=".449"/><stop offset="1" stop-color="#e5d3b9" stop-opacity=".876"/></linearGradient><linearGradient id="a"><stop offset="0" stop-color="#e5d3b9"/><stop offset="1" stop-color="#e5d3b9"/></linearGradient><linearGradient id="b" osb:paint="solid"><stop offset="0" stop-color="#c0aa8a"/></linearGradient><linearGradient id="d"><stop offset="0" stop-opacity="0"/><stop offset=".25" stop-opacity=".091"/><stop offset="1" stop-opacity="0"/></linearGradient><linearGradient xlink:href="#c" id="j" gradientUnits="userSpaceOnUse" gradientTransform="matrix(1.01967 0 0 1.03029 -57.938 -69.829)" x1="64.666" y1="133.777" x2="88.203" y2="133.777"/><linearGradient xlink:href="#b" id="k" x1="116" y1="160" x2="204" y2="160" gradientUnits="userSpaceOnUse" gradientTransform="matrix(1.32 0 0 1.32 60.547 60.897)"/><linearGradient xlink:href="#d" id="l" gradientUnits="userSpaceOnUse" x1="13" y1="17" x2="13" y2="11" gradientTransform="matrix(2.61992 0 0 2.62354 208.002 205.206)"/><linearGradient gradientTransform="matrix(.5 0 0 .5 103.747 106.34)" xlink:href="#a" id="m" gradientUnits="userSpaceOnUse" x1="344.505" y1="259.319" x2="344.505" y2="435.681"/><linearGradient xlink:href="#g" id="n" x1="2" y1="12.617" x2="46" y2="12.617" gradientUnits="userSpaceOnUse"/><linearGradient id="h" osb:paint="solid"><stop offset="0" stop-color="#fff"/></linearGradient></defs><path style="marker:none" d="M218.947 217.977c-3.96 0-6.947 3.063-6.947 7.023v95c0 4 4 8 8 8 36.005-.09 104 0 104 0 4 0 7.998-4 8-8l.032-82c0-3.96-4.072-8-8.032-8h-47l-15.813-12.034z" fill="url(#j)" stroke-width=".205" paint-order="fill markers stroke" transform="translate(-208 -208)"/><path d="M219 220c-2.64 0-5 2.36-5 5v95c0 3 3 6 6 6h104c2.64 0 6-3.36 6-6v-83c0-2.64-3.36-5-6-5h-47l-16-12z" fill="url(#k)" stroke-width=".229" transform="translate(-208 -208)"/><path d="M219 220c-2.64 0-5 2.36-5 5v95c0 3 3 6 6 6h104c2.64 0 6-3.36 6-6v-83c0-2.64-3.36-5-6-5h-47l-16-12z" fill="url(#l)" stroke-width=".229" transform="translate(-208 -208)"/><path style="marker:none" d="M324 232c2.64 0 6.116 2.363 6 5v83c0 2.64-3.36 6-6 6H220c-3 0-6-3-6-6v-69c0-2.64 2.36-5 5-5h42l16-14z" fill="url(#m)" stroke-width=".603" paint-order="fill markers stroke" transform="translate(-208 -208)"/><path d="M219 220c-2.64 0-5 2.36-5 5 0-2.624 2.36-3.976 5-4h42l15 11h1l-16-12zM277 232l-16 14h-42c-2.64 0-5 2.36-5 5 0-2.64 2.36-4 5-4h42l16-14h47c2.64 0 6 1.36 6 4 0-2.64-3.36-5-6-5z" fill="url(#n)" stroke-width=".4" transform="translate(-208 -208)"/><path d="M16 17h32s4 0 4 4-4 3.956-4 3.956L16 25s-4 0-4-4 4-4 4-4z" style="isolation:auto;mix-blend-mode:normal;marker:none" color="#000" display="block" overflow="visible" fill-opacity=".078" stroke-width=".234" paint-order="fill markers stroke"/><path d="M16 17s-4 0-4 4c0-2 4-3 4-3h32s4 1 4 3c0-4-4-4-4-4z" style="isolation:auto;mix-blend-mode:normal;marker:none" color="#000" display="block" overflow="visible" fill-opacity=".157" stroke-width=".211" paint-order="fill markers stroke"/><path style="isolation:auto;mix-blend-mode:normal;marker:none" d="M256 232.956s4 .044 4-3.956c0 2-4 3.035-4 3.035L224 232s-4-1-4-3c0 4 4 4 4 4z" color="#000" display="block" overflow="visible" opacity=".689" fill="url(#n)" stroke-width=".4" paint-order="fill markers stroke" transform="translate(-208 -208)"/></svg>