<svg xmlns="http://www.w3.org/2000/svg" xmlns:xlink="http://www.w3.org/1999/xlink" height="128" viewBox="0 0 128 128" width="128"><title>Template icons dark</title><defs><linearGradient id="a"><stop offset="0" stop-color="#003783"/><stop offset="1" stop-color="#69e5ff"/></linearGradient><linearGradient xlink:href="#a" id="b" gradientUnits="userSpaceOnUse" x1="120" y1="120" x2="203.055" y2="204"/></defs><path style="isolation:auto;mix-blend-mode:normal;marker:none" d="M15 12h97.667l.666 99H15z" color="#000" display="block" overflow="visible" fill-opacity=".141" stroke-width="3.083" stroke-opacity=".079" paint-order="fill markers stroke"/><path style="isolation:auto;mix-blend-mode:normal;marker:none" d="M16 14h96.01v96.01H16z" color="#000" display="block" overflow="visible" fill="#a3acc3" stroke-width=".75" stroke-opacity=".079" paint-order="fill markers stroke"/><path style="isolation:auto;mix-blend-mode:normal;marker:none" d="M48 46h32v32H48z" color="#000" display="block" overflow="visible" fill="#79859c" stroke-width=".75" stroke-opacity=".079" paint-order="fill markers stroke"/><path style="isolation:auto;mix-blend-mode:normal;marker:none" d="M48 14h32v32H48z" color="#000" display="block" overflow="visible" fill="#696e82" stroke-width=".75" stroke-opacity=".079" paint-order="fill markers stroke"/><path style="isolation:auto;mix-blend-mode:normal;marker:none" d="M16 14h32v32H16z" color="#000" display="block" overflow="visible" fill="#565a68" stroke-width=".75" stroke-opacity=".079" paint-order="fill markers stroke"/><path style="isolation:auto;mix-blend-mode:normal;marker:none" d="M16 46h32v32H16z" color="#000" display="block" overflow="visible" fill="#777a8b" stroke-width=".75" stroke-opacity=".079" paint-order="fill markers stroke"/><path style="isolation:auto;mix-blend-mode:normal;marker:none" d="M80 46h31.99v32H80z" color="#000" display="block" overflow="visible" fill="#8d98b6" stroke-width=".75" stroke-opacity=".079" paint-order="fill markers stroke"/><path style="isolation:auto;mix-blend-mode:normal;marker:none" d="M80 14h31.99v32H80z" color="#000" display="block" overflow="visible" fill="#7a8399" stroke-width=".75" stroke-opacity=".079" paint-order="fill markers stroke"/><path style="isolation:auto;mix-blend-mode:normal;marker:none" d="M48 78h32v31.99H48z" color="#000" display="block" overflow="visible" fill="#9098b0" stroke-width=".75" stroke-opacity=".079" paint-order="fill markers stroke"/><path style="isolation:auto;mix-blend-mode:normal;marker:none" d="M16 78h32v31.99H16z" color="#000" display="block" overflow="visible" fill="#818da2" stroke-width=".75" stroke-opacity=".079" paint-order="fill markers stroke"/><path style="isolation:auto;mix-blend-mode:normal;marker:none" d="M16 109h96.01v.99H16z" color="#000" display="block" overflow="visible" fill="#fff" fill-opacity=".257" stroke-width=".344" stroke-opacity=".079" paint-order="fill markers stroke"/><path style="line-height:1000%" d="M98.501 19.174c-3.25 0-5.808.996-7.677 2.99-1.87 1.984-2.806 4.703-2.806 8.154 0 3.441.936 6.16 2.806 8.153 1.869 1.985 4.428 2.977 7.677 2.977a12.25 12.25 0 0 0 3.594-.519c1.141-.345 2.22-.864 3.236-1.554v-3.032c-.978.91-2.022 1.59-3.134 2.04a9.217 9.217 0 0 1-3.522.677c-2.454 0-4.333-.749-5.637-2.244-1.304-1.505-1.955-3.67-1.955-6.498 0-2.838.651-5.003 1.955-6.499 1.304-1.505 3.183-2.26 5.637-2.26 1.246 0 2.42.226 3.522.677 1.112.45 2.156 1.132 3.134 2.043v-3.065a11.322 11.322 0 0 0-3.206-1.524 12.356 12.356 0 0 0-3.624-.516zm-67.958.388L22.347 41.03h3.064l1.955-5.51h9.676l1.957 5.51h3.02l-8.184-21.47zm27.326 0V41.03h7.707c2.406 0 4.261-.523 5.565-1.567 1.304-1.045 1.955-2.528 1.955-4.445 0-1.457-.397-2.669-1.193-3.637-.786-.978-1.893-1.621-3.321-1.928 1.189-.192 2.09-.676 2.703-1.452.614-.777.92-1.821.92-3.135 0-1.696-.598-3.005-1.797-3.925-1.198-.92-2.906-1.38-5.12-1.38zm2.904 2.388h4.3c1.419 0 2.474.268 3.164.805.7.537 1.048 1.345 1.048 2.428 0 1.093-.348 1.907-1.048 2.444-.69.528-1.745.792-3.164.792h-4.3zm-28.59.473l3.955 10.684h-7.894zm28.59 8.355h4.659c1.562 0 2.718.32 3.465.962.758.633 1.137 1.621 1.137 2.963 0 1.333-.38 2.325-1.137 2.977-.747.642-1.903.963-3.465.963h-4.659zm-30.23 26.619c-.862 0-1.75.097-2.66.289-.911.182-1.851.46-2.82.834v2.444a10.66 10.66 0 0 1 2.517-.992c.873-.22 1.77-.331 2.69-.331 1.448 0 2.57.337 3.365 1.008.805.661 1.209 1.598 1.209 2.816v.26h-3.71c-2.406 0-4.219.459-5.436 1.38-1.208.92-1.81 2.287-1.81 4.099 0 1.553.483 2.795 1.451 3.725.978.92 2.29 1.38 3.94 1.38 1.303 0 2.406-.23 3.307-.69.902-.47 1.654-1.194 2.258-2.172v2.445h2.644v-9.189c0-2.454-.574-4.285-1.725-5.493-1.15-1.208-2.89-1.813-5.22-1.813zm1.67 8.4h2.63v.588c0 1.726-.445 3.111-1.337 4.156-.882 1.035-2.058 1.554-3.524 1.554-1.064 0-1.907-.275-2.53-.821-.614-.556-.92-1.305-.92-2.244 0-1.18.411-2.012 1.235-2.5.825-.49 2.307-.733 4.445-.733zm-2.539 21.21c-.61 0-1.101.209-1.47.628-.363.419-.543.986-.543 1.703h1.331v-.064c0-.32.07-.569.212-.746.142-.178.34-.265.596-.265.085 0 .182.019.289.062.113.035.258.104.436.203l.607.353c.369.192.658.315.863.372.213.056.441.085.682.085.597 0 1.074-.21 1.436-.628.37-.426.561-.994.575-1.704H33.36v.064c0 .292-.072.527-.214.712a.677.677 0 0 1-.553.267c-.107 0-.222-.021-.342-.064a2.775 2.775 0 0 1-.426-.203l-.607-.318c-.34-.192-.62-.315-.84-.372a2.727 2.727 0 0 0-.703-.086zm.458 2.81l-2.247 2.832h1.479l1.768-1.896 1.767 1.896h1.482l-2.246-2.832zm1.096 4.057c-1.79 0-3.213.575-4.27 1.725-1.052 1.143-1.576 2.692-1.576 4.645 0 1.888.553 3.385 1.66 4.492 1.115 1.108 2.626 1.661 4.528 1.661.76 0 1.508-.076 2.247-.232a11.742 11.742 0 0 0 2.16-.682v-1.854a9.688 9.688 0 0 1-2.107.83 8.573 8.573 0 0 1-2.185.277c-1.299 0-2.314-.35-3.046-1.053-.724-.71-1.129-1.74-1.214-3.089h9.01v-.957c0-1.775-.467-3.177-1.404-4.207-.93-1.036-2.199-1.556-3.803-1.556zm.021 1.66c.966 0 1.74.322 2.322.96.589.64.892 1.493.906 2.565l-6.988.011c.1-1.122.476-1.99 1.129-2.607.66-.618 1.538-.928 2.631-.928z" font-family="sans-serif" letter-spacing="0" word-spacing="0" fill="#fefefe" stroke-width="1.841"/></svg>