<svg xmlns="http://www.w3.org/2000/svg" xmlns:xlink="http://www.w3.org/1999/xlink" height="128" viewBox="0 0 128 128" width="128"><title>Template icons dark</title><defs><linearGradient id="j"><stop offset="0" stop-color="#078cd0" stop-opacity=".781"/><stop offset=".774" stop-color="#5946dd" stop-opacity=".584"/><stop offset="1" stop-color="#ca39f1" stop-opacity=".669"/></linearGradient><linearGradient id="i"><stop offset="0" stop-color="#078cd0" stop-opacity=".698"/><stop offset=".774" stop-color="#5946dd" stop-opacity=".443"/><stop offset="1" stop-color="#ca39f1" stop-opacity=".302"/></linearGradient><linearGradient id="c"><stop offset="0" stop-color="#d1f8fc" stop-opacity=".084"/><stop offset=".501" stop-color="#fff" stop-opacity=".039"/><stop offset="1" stop-color="#b6f3fa" stop-opacity=".096"/></linearGradient><linearGradient id="b"><stop offset="0" stop-color="#777"/><stop offset="1" stop-color="#595959"/></linearGradient><linearGradient id="h"><stop offset="0" stop-color="#fff" stop-opacity=".528"/><stop offset=".561" stop-color="#fff" stop-opacity=".522"/><stop offset="1" stop-color="#fff" stop-opacity="0"/></linearGradient><linearGradient id="f"><stop offset="0" stop-color="#fff" stop-opacity=".663"/><stop offset=".561" stop-color="#fff" stop-opacity=".522"/><stop offset="1" stop-color="#fff" stop-opacity="0"/></linearGradient><linearGradient id="g"><stop offset="0" stop-color="#fff"/><stop offset=".561" stop-color="#fff" stop-opacity=".522"/><stop offset="1" stop-color="#fff" stop-opacity="0"/></linearGradient><linearGradient id="e"><stop offset="0" stop-color="#4fb9ef" stop-opacity=".459"/><stop offset=".836" stop-color="#1f1cec" stop-opacity=".315"/><stop offset=".888" stop-color="#d039f1" stop-opacity=".376"/><stop offset="1" stop-color="#ca39f1" stop-opacity=".302"/></linearGradient><linearGradient id="d"><stop offset="0" stop-color="#393939"/><stop offset="1" stop-color="#181818"/></linearGradient><linearGradient id="a"><stop offset="0" stop-color="#efefef"/><stop offset="1" stop-color="#cacaca"/></linearGradient><linearGradient xlink:href="#a" id="k" x1="160" y1="133.669" x2="160" y2="186.583" gradientUnits="userSpaceOnUse" gradientTransform="matrix(1.33478 0 0 1.33333 58.366 57.35)"/><linearGradient gradientTransform="translate(58.667 57.35) scale(1.33333)" xlink:href="#b" id="m" x1="158.033" y1="188.223" x2="158.033" y2="130.744" gradientUnits="userSpaceOnUse"/><linearGradient gradientTransform="rotate(45.116 -39.697 99.29) scale(1.33333)" xlink:href="#c" id="n" x1="228.437" y1="20.042" x2="246.784" y2="1.62" gradientUnits="userSpaceOnUse"/><radialGradient gradientTransform="translate(58.667 57.35) scale(1.33333)" xlink:href="#d" id="l" cx="160" cy="160" fx="160" fy="160" r="33" gradientUnits="userSpaceOnUse"/><radialGradient xlink:href="#e" id="o" cx="-226.274" cy=".459" fx="-226.274" fy=".459" r="15.999" gradientUnits="userSpaceOnUse" gradientTransform="matrix(1.53864 -1.53863 1.54064 1.54064 619.517 -78.014)"/><radialGradient xlink:href="#h" id="p" gradientUnits="userSpaceOnUse" gradientTransform="matrix(.67271 .05222 -.08303 .48797 177.856 185.6)" cx="160.02" cy="162.319" fx="160.02" fy="162.319" r="2.546"/><radialGradient xlink:href="#f" id="q" gradientUnits="userSpaceOnUse" gradientTransform="matrix(1.0289 0 0 .83764 107.144 135.94)" cx="160.366" cy="156" fx="160.366" fy="156" r="2.546"/></defs><g color="#000" transform="translate(-208 -208)"><rect style="isolation:auto;mix-blend-mode:normal;marker:none" width="128" height="77.333" x="208" y="232.017" ry="5.524" display="block" overflow="visible" fill-opacity=".131" stroke-width="1.095" paint-order="fill markers stroke"/><rect style="isolation:auto;mix-blend-mode:normal;marker:none" width="126" height="75" x="209" y="233" ry="5.333" display="block" overflow="visible" fill="url(#k)" stroke-width="2.665" stroke-opacity=".344" paint-order="fill markers stroke"/><path style="isolation:auto;mix-blend-mode:normal;marker:none" d="M209 301v1.333c0 2.955 2.045 5.667 5 5.667h116c2.955 0 5-2.712 5-5.667V301c0 2.955-2.045 6-5 6H214c-2.955 0-5-3.045-5-6z" display="block" overflow="visible" fill="#eee" stroke-width="2.664" stroke-opacity=".344" paint-order="fill markers stroke"/><path style="isolation:auto;mix-blend-mode:normal;marker:none" d="M317.665 272.017A45.665 45.665 0 0 1 272 317.68a45.665 45.665 0 0 1-45.665-45.664A45.665 45.665 0 0 1 272 226.352a45.665 45.665 0 0 1 45.665 45.665z" overflow="visible" fill-opacity=".23" stroke-width="2.418" paint-order="fill markers stroke"/><path style="isolation:auto;mix-blend-mode:normal;marker:none" d="M314.664 270.684A42.664 42.664 0 0 1 272 313.348a42.664 42.664 0 0 1-42.664-42.664A42.664 42.664 0 0 1 272 228.019a42.664 42.664 0 0 1 42.664 42.665z" overflow="visible" fill="url(#l)" stroke="#f2f2f2" stroke-width="2.671" paint-order="fill markers stroke"/><path style="line-height:normal;font-variant-ligatures:normal;font-variant-position:normal;font-variant-caps:normal;font-variant-numeric:normal;font-variant-alternates:normal;font-feature-settings:normal;text-indent:0;text-align:start;text-decoration-line:none;text-decoration-style:solid;text-decoration-color:#000;text-transform:none;text-orientation:mixed;shape-padding:0;isolation:auto;mix-blend-mode:normal;marker:none" d="M272 229.168c-22.903 0-41.516 18.612-41.516 41.516 0 22.903 18.613 41.515 41.516 41.515s41.516-18.612 41.516-41.515c0-22.904-18.613-41.516-41.516-41.516zm0 4.33c20.562 0 37.185 16.623 37.185 37.186 0 20.562-16.623 37.184-37.185 37.184s-37.185-16.622-37.185-37.184c0-20.563 16.623-37.185 37.185-37.185z" font-weight="400" font-family="sans-serif" white-space="normal" overflow="visible" fill="url(#m)" stroke-width="4.331" paint-order="fill markers stroke"/><path style="line-height:normal;font-variant-ligatures:normal;font-variant-position:normal;font-variant-caps:normal;font-variant-numeric:normal;font-variant-alternates:normal;font-feature-settings:normal;text-indent:0;text-align:start;text-decoration-line:none;text-decoration-style:solid;text-decoration-color:#000;text-transform:none;text-orientation:mixed;shape-padding:0;isolation:auto;mix-blend-mode:normal;marker:none" d="M272 226.217c-24.537 0-44.466 19.93-44.466 44.467 0 24.536 19.93 44.466 44.466 44.466 24.537 0 44.466-19.93 44.466-44.466 0-24.537-19.93-44.467-44.466-44.467zm0 3.605c22.589 0 40.862 18.273 40.862 40.862 0 22.588-18.273 40.861-40.862 40.861-22.589 0-40.862-18.273-40.862-40.861 0-22.59 18.273-40.862 40.862-40.862z" font-weight="400" font-family="sans-serif" white-space="normal" overflow="visible" fill="#fff" stroke-width="3.604" paint-order="fill markers stroke"/><path style="isolation:auto;mix-blend-mode:normal;marker:none" d="M296.699 295.202a35.154 35.154 0 0 1-49.715-.1l24.908-24.808z" overflow="visible" fill="url(#n)" stroke-width="2.201" paint-order="fill markers stroke"/><path style="isolation:auto;mix-blend-mode:normal;marker:none" d="M247.37 246.135a34.877 34.877 0 0 1 49.325.1l-24.712 24.612z" overflow="visible" fill="url(#o)" stroke-width="2.184" paint-order="fill markers stroke"/><path style="isolation:auto;mix-blend-mode:normal;marker:none" d="M273.686 273.076a1.767 1.194 0 0 1-1.767 1.194 1.767 1.194 0 0 1-1.768-1.194 1.767 1.194 0 0 1 1.768-1.194 1.767 1.194 0 0 1 1.767 1.194z" overflow="visible" fill="url(#p)" stroke-width=".242" paint-order="fill markers stroke"/><path style="isolation:auto;mix-blend-mode:normal;marker:none" d="M274.763 266.612a2.62 2.133 0 0 1-2.62 2.133 2.62 2.133 0 0 1-2.619-2.133 2.62 2.133 0 0 1 2.62-2.132 2.62 2.133 0 0 1 2.62 2.132z" overflow="visible" fill="url(#q)" stroke-width=".205" paint-order="fill markers stroke"/><path style="isolation:auto;mix-blend-mode:normal;marker:none" d="M221.271 238.809a2.604 2.604 0 0 0-2.604 2.604 2.604 2.604 0 0 0 .01.203 2.604 2.604 0 0 1 2.594-2.401 2.604 2.604 0 0 1 2.594 2.4 2.604 2.604 0 0 0 .01-.202 2.604 2.604 0 0 0-2.603-2.604z" overflow="visible" fill-opacity=".506" stroke-width="1.333" paint-order="fill markers stroke"/><circle style="isolation:auto;mix-blend-mode:normal;marker:none" cx="272" cy="270.683" r="9.618" overflow="visible" fill="none" fill-opacity=".459" stroke="#8e8e8e" stroke-width="3.197" paint-order="fill markers stroke"/><circle r="11.333" cy="270.683" cx="272" style="isolation:auto;mix-blend-mode:normal;marker:none" overflow="visible" fill="#030303" fill-opacity=".459" stroke="#969696" stroke-width="1.202" paint-order="fill markers stroke"/><circle style="isolation:auto;mix-blend-mode:normal;marker:none" cx="272" cy="270.683" r="31.38" overflow="visible" fill="none" fill-opacity=".459" stroke="#fff" stroke-width=".307" stroke-opacity=".237" paint-order="fill markers stroke"/><circle r="19.315" cy="270.683" cx="272" style="isolation:auto;mix-blend-mode:normal;marker:none" overflow="visible" fill="none" fill-opacity=".459" stroke="#fff" stroke-width=".133" stroke-opacity=".376" paint-order="fill markers stroke"/><circle style="isolation:auto;mix-blend-mode:normal;marker:none" cx="221.27" cy="241.413" r="2.604" overflow="visible" fill="#ea6565" stroke-width="1.333" paint-order="fill markers stroke"/></g></svg>