<svg xmlns="http://www.w3.org/2000/svg" xmlns:xlink="http://www.w3.org/1999/xlink" height="128" viewBox="0 0 128 128" width="128"><title>Template icons dark</title><defs><linearGradient id="a"><stop offset="0" stop-color="#e9e9e9"/><stop offset="1" stop-color="#fff"/></linearGradient><linearGradient gradientTransform="matrix(1.27664 0 0 1.27664 67.738 67.739)" xlink:href="#a" id="b" x1="168" y1="201.741" x2="168" y2="114.331" gradientUnits="userSpaceOnUse"/></defs><path d="M58.57 121.383c-8.217-2.73-14.04-6.437-20.593-13.11-7.326-7.462-11.64-15.27-13.455-24.356-2.513-12.57 4.155-24.091 18.218-31.481 16.97-8.918 40.172-9.76 48.725-1.77 2.622 2.449 3.201 3.857 3.201 7.784 0 7.5-4.14 12.144-20.33 22.802-19.556 12.873-21.6 16.026-14.796 22.829 2.782 2.782 4.578 3.663 7.465 3.663 3.736 0 7.102-2.153 7.279-4.656.518-7.334 1.621-8.69 8.572-10.534 5.833-1.548 12.458-.557 13.866 2.074 1.608 3.005-2.25 12.654-7.036 17.598-8.93 9.222-20.59 12.654-31.116 9.157zM20.813 50.27c-5.883-5.883-6.34-13.573-.954-16.027 2.372-1.081 3.068-.882 5.533 1.583 4.68 4.68 4.735 18.044.074 18.044-.579 0-2.673-1.62-4.653-3.6zm16.415-11.255c-2.176-2.405-5.057-9.185-5.057-11.903 0-3.454 4.14-7.722 7.489-7.722 4.022 0 5.661 2.23 6.267 8.53.692 7.202-1.325 13.02-4.514 13.02-1.343 0-3.227-.866-4.185-1.925zm45.348-.299c-5.11-2.978-4.386-16.672 1.296-24.516 7.973-11.007 28.034-12.162 28.034-1.615 0 7.15-10.33 20.995-18.681 25.038-5.077 2.457-7.824 2.74-10.649 1.093zM56.941 32.05c-6.037-9.898-2.336-22.359 6.64-22.359 4.227 0 6.303 2.634 6.303 7.998 0 8.297-4.664 17.862-8.71 17.862-1.21 0-3-1.481-4.233-3.501z" fill="none" stroke="#000" stroke-width="2.553" stroke-opacity=".176"/><path d="M266.57 329.383c-8.217-2.73-14.04-6.437-20.593-13.11-7.326-7.462-11.64-15.27-13.455-24.356-2.513-12.57 4.155-24.091 18.218-31.481 16.97-8.918 40.171-9.76 48.725-1.77 2.622 2.449 3.201 3.857 3.201 7.784 0 7.5-4.14 12.144-20.33 22.802-19.556 12.873-21.6 16.026-14.796 22.829 2.782 2.782 4.578 3.663 7.465 3.663 3.735 0 7.102-2.153 7.279-4.656.518-7.334 1.621-8.69 8.572-10.534 5.833-1.548 12.458-.557 13.866 2.074 1.608 3.005-2.25 12.654-7.036 17.598-8.93 9.222-20.59 12.654-31.116 9.157zm-37.757-71.114c-5.883-5.883-6.34-13.573-.954-16.027 2.372-1.081 3.068-.882 5.533 1.583 4.68 4.68 4.735 18.044.074 18.044-.579 0-2.673-1.62-4.653-3.6zm16.415-11.255c-2.176-2.405-5.057-9.185-5.057-11.903 0-3.454 4.14-7.722 7.489-7.722 4.022 0 5.661 2.23 6.267 8.53.692 7.202-1.325 13.02-4.514 13.02-1.343 0-3.227-.866-4.185-1.925zm45.348-.299c-5.11-2.978-4.386-16.672 1.296-24.516 7.973-11.007 28.034-12.162 28.034-1.615 0 7.15-10.33 20.995-18.681 25.038-5.077 2.457-7.824 2.74-10.649 1.093zm-25.635-6.665c-6.037-9.898-2.336-22.359 6.64-22.359 4.227 0 6.303 2.634 6.303 7.998 0 8.297-4.664 17.862-8.71 17.862-1.21 0-3-1.481-4.233-3.501z" fill="url(#b)" stroke-width="1.078" transform="translate(-208 -208)"/></svg>