<svg xmlns:osb="http://www.openswatchbook.org/uri/2009/osb" xmlns="http://www.w3.org/2000/svg" xmlns:xlink="http://www.w3.org/1999/xlink" height="128" viewBox="0 0 128 128" width="128"><title>Template icons dark</title><defs><linearGradient id="e"><stop offset="0" stop-color="#a2f2e6"/><stop offset="1" stop-color="#77d6f5"/></linearGradient><linearGradient id="d"><stop offset="0" stop-color="#2384a9"/><stop offset="1" stop-color="#25ada9" stop-opacity=".953"/></linearGradient><linearGradient id="c" osb:paint="solid"><stop offset="0" stop-opacity=".134"/></linearGradient><linearGradient id="b" osb:paint="solid"><stop offset="0" stop-color="#fff" stop-opacity=".028"/></linearGradient><linearGradient id="a"><stop offset="0" stop-opacity=".036"/><stop offset="1" stop-color="#afe4ff" stop-opacity=".042"/></linearGradient><linearGradient xlink:href="#e" id="g" x1="142" y1="130" x2="187" y2="140" gradientUnits="userSpaceOnUse" gradientTransform="matrix(1.36364 0 0 1.36364 53.636 52.455)"/><linearGradient xlink:href="#c" id="r" gradientUnits="userSpaceOnUse" x1="124" y1="154.5" x2="196" y2="154.5"/><linearGradient xlink:href="#b" id="q" gradientUnits="userSpaceOnUse" x1="124" y1="155.5" x2="196" y2="155.5"/><linearGradient gradientTransform="matrix(1.36364 0 0 1.36364 53.636 53.818)" xlink:href="#d" id="f" x1="191.627" y1="198" x2="186" y2="177" gradientUnits="userSpaceOnUse"/><linearGradient xlink:href="#c" id="h" gradientUnits="userSpaceOnUse" gradientTransform="translate(0 -1)" x1="124" y1="154.5" x2="196" y2="154.5"/><linearGradient xlink:href="#c" id="i" gradientUnits="userSpaceOnUse" x1="124" y1="154.5" x2="196" y2="154.5"/><linearGradient xlink:href="#b" id="j" gradientUnits="userSpaceOnUse" x1="124" y1="155.5" x2="196" y2="155.5"/><linearGradient xlink:href="#c" id="k" gradientUnits="userSpaceOnUse" x1="124" y1="154.5" x2="196" y2="154.5"/><linearGradient xlink:href="#b" id="l" gradientUnits="userSpaceOnUse" x1="124" y1="155.5" x2="196" y2="155.5"/><linearGradient xlink:href="#c" id="m" gradientUnits="userSpaceOnUse" x1="124" y1="154.5" x2="196" y2="154.5"/><linearGradient xlink:href="#b" id="n" gradientUnits="userSpaceOnUse" x1="124" y1="155.5" x2="196" y2="155.5"/><linearGradient xlink:href="#b" id="o" gradientUnits="userSpaceOnUse" gradientTransform="translate(0 -1)" x1="124" y1="155.5" x2="196" y2="155.5"/><linearGradient xlink:href="#c" id="p" gradientUnits="userSpaceOnUse" gradientTransform="translate(0 -1)" x1="124" y1="154.5" x2="196" y2="154.5"/><linearGradient xlink:href="#b" id="s" gradientUnits="userSpaceOnUse" gradientTransform="translate(0 -14)" x1="124" y1="155.5" x2="196" y2="155.5"/></defs><path style="isolation:auto;mix-blend-mode:normal;marker:none" d="M23 5h81c6.044 0 11 3.956 11 10v98c0 6.044-3.956 10-10 10H23.016C16.972 123 13 118.044 13 112V15c0-6.044 3.956-10 10-10z" color="#000" display="block" overflow="visible" fill-opacity=".047" stroke-width="3.011" stroke-miterlimit="0" paint-order="fill markers stroke"/><path style="isolation:auto;mix-blend-mode:normal;marker:none" d="M26 7h76c6.044 0 11 3.956 11 10v93c0 6.044-4.956 11-11 11H26c-6.044 0-11-4.956-11-11V18c0-6.044 4.956-11 11-11z" color="#000" display="block" overflow="visible" fill="#31353f" stroke-width="3.011" stroke-miterlimit="0" paint-order="fill markers stroke"/><path style="isolation:auto;mix-blend-mode:normal;marker:none" d="M15 50h98v60c0 6.044-4.956 11-11 11H26c-6.044 0-11-4.956-11-11z" color="#000" overflow="visible" fill="#333842" stroke-width="3.488" stroke-miterlimit="0" paint-order="fill markers stroke"/><path style="isolation:auto;mix-blend-mode:normal;marker:none" d="M300 294v34h8c6.044 0 12-4.956 12-11v-23z" color="#000" overflow="visible" fill="url(#f)" stroke-width="3.488" stroke-miterlimit="0" paint-order="fill markers stroke" transform="translate(-208 -208)"/><path style="isolation:auto;mix-blend-mode:normal;marker:none" d="M26 7h76c6.011 0 11 4.989 11 11v32H15V18c0-6.011 4.989-11 11-11z" color="#000" overflow="visible" fill-opacity=".198" stroke-width="3.011" stroke-miterlimit="0" paint-order="fill markers stroke"/><path style="line-height:1.25;-inkscape-font-specification:'Liberation Sans';text-align:center" d="M77 54v5h5v2h-5v1h6v-8zm-28 .006V57l1 1-1 2v2h5v-2l-1-2 1-1v-2.994zM24 54v1h4l-3 7h2l3-8zm58 4h-4v-3h4zm-32-2.994h3V57h-3zM50 59h3v2h-3zm27 13v8h6v-5h-5v-2h5v-1zm-50 0l-3 4v2h3v2h1v-8zm23 0v4h3v3h-3v1h4v-5h-3v-2h3v-1zm-23 2v3h-2zm55 2v3h-4v-3zm1 15v-1h-6v1h5l-3 3 3 3h-5v1h6v-3l-1-1zm-33 1h1l1-1h1v2.016L50 97v1h4v-1h-2l2-3v-4h-4zm-23-2h-1v1h1v6h-1v1h3v-1h-1v-7zm20 21h4v-4h-4zm7-4l-4 7h2l4-7zm-4 1v2h-2v-2zm-25 6h4v-7h-4zm3-6v5h-2v-5zm51 1v3h3v-3zm-24 5h4v-4h-4zm3-3v2h-2v-2z" font-weight="400" font-size="2.853" font-family="Liberation Sans" letter-spacing="0" word-spacing="0" text-anchor="middle" fill="#95d3e7" fill-opacity=".698" stroke-width="3.336"/><path style="line-height:1.25;-inkscape-font-specification:'Liberation Sans';text-align:center" d="M102 56v3h-3v1l3-.09V63h1v-3h3v-1h-3v-3zm-3 20v1h7v-1z" font-weight="400" font-size="2.853" font-family="Liberation Sans" letter-spacing="0" word-spacing="0" text-anchor="middle" fill="#95e7c8" fill-opacity=".698" stroke-width="3.336"/><path d="M99 101v1h7v-1zm0 3v1h7v-1z" style="line-height:1.25;-inkscape-font-specification:'Liberation Sans';text-align:center" font-weight="400" font-size="2.853" font-family="Liberation Sans" letter-spacing="0" word-spacing="0" text-anchor="middle" fill="#ecf8fd" fill-opacity=".849" stroke-width="3.336"/><path style="isolation:auto;mix-blend-mode:normal;marker:none" d="M16 107.636V109c0 6.044 4.956 11 11 11h73c6.718 0 12-4.956 12-11v-1.364c0 6.044-5.956 11.364-12 11.364H27c-6.044 0-11-5.32-11-11.364z" color="#000" overflow="visible" fill="#fff" fill-opacity=".104" stroke-width="3.011" stroke-miterlimit="0" paint-order="fill markers stroke"/><path style="line-height:1000%;-inkscape-font-specification:'Roboto Mono for Powerline'" d="M251.62 229.488c-.718 0-1.371.113-1.96.34a4.517 4.517 0 0 0-1.503.917 4.08 4.08 0 0 0-.98 1.363 4.094 4.094 0 0 0-.341 1.662h1.981c0-.405.068-.77.203-1.097.135-.327.323-.607.565-.842.248-.234.543-.412.884-.532a3.316 3.316 0 0 1 1.15-.192c.888 0 1.563.23 2.024.692.462.455.693 1.133.693 2.035 0 .39-.068.75-.202 1.076a2.28 2.28 0 0 1-.597.842 2.747 2.747 0 0 1-.959.554 3.876 3.876 0 0 1-1.31.202h-1.406v1.598h1.406c.49 0 .937.057 1.342.17.412.114.76.288 1.044.523.291.234.515.529.671.884.164.348.245.763.245 1.246 0 .49-.07.917-.213 1.279-.135.355-.33.653-.586.895a2.463 2.463 0 0 1-.927.543c-.362.114-.767.17-1.214.17-.447 0-.856-.064-1.225-.191a2.666 2.666 0 0 1-.927-.544 2.43 2.43 0 0 1-.597-.852 2.93 2.93 0 0 1-.202-1.108h-1.97c0 .682.127 1.29.383 1.822.262.532.614.983 1.054 1.353.44.37.96.65 1.556.841a6.333 6.333 0 0 0 1.928.288c.696 0 1.342-.1 1.939-.298a4.63 4.63 0 0 0 1.566-.884c.44-.391.785-.867 1.033-1.428.249-.561.373-1.204.373-1.928 0-.355-.043-.714-.128-1.076a3.185 3.185 0 0 0-.426-1.034 3.263 3.263 0 0 0-.81-.884c-.333-.263-.752-.476-1.257-.64a3.934 3.934 0 0 0 1.076-.66c.306-.27.554-.554.746-.852.192-.305.334-.618.426-.937.093-.32.139-.629.139-.927 0-.718-.114-1.35-.341-1.897a3.746 3.746 0 0 0-.959-1.374 4.032 4.032 0 0 0-1.48-.83 6.003 6.003 0 0 0-1.908-.288zm22.883.213l-5.87 2.258v1.8l4.059-1.544v12.997h1.97v-15.511zm11.378 0l-6.946 10.749v1.161h7.074v3.601h1.97v-3.6h2.163v-1.61h-2.163v-10.301zm12.06 0l-5.87 2.258v1.8l4.058-1.544v12.997h1.971v-15.511zm6.967 0l-.778 7.734 1.577.405c.177-.156.348-.295.511-.416.17-.12.352-.223.543-.309.192-.085.405-.149.64-.191.241-.05.525-.075.852-.075.497 0 .937.089 1.32.266.384.178.708.423.97.735.263.306.462.668.597 1.087.142.42.213.87.213 1.353 0 .533-.064 1.016-.192 1.449-.12.433-.305.806-.554 1.119a2.486 2.486 0 0 1-.905.713 3.003 3.003 0 0 1-1.247.245c-.83 0-1.513-.227-2.045-.681-.526-.455-.849-1.123-.97-2.003h-1.875c.071.717.245 1.346.522 1.885.284.54.643.988 1.076 1.343.44.355.941.621 1.502.799a5.898 5.898 0 0 0 1.79.266c.824 0 1.541-.128 2.152-.383a4.156 4.156 0 0 0 1.513-1.076 4.504 4.504 0 0 0 .906-1.641 6.819 6.819 0 0 0 .298-2.056c0-.781-.107-1.492-.32-2.13a4.615 4.615 0 0 0-.916-1.63 4.062 4.062 0 0 0-1.449-1.056c-.568-.248-1.21-.372-1.928-.372-.561 0-1.055.067-1.48.202a5.48 5.48 0 0 0-1.098.469l.437-4.134h6.296v-1.917zm-18.9 2.62v7.681h-4.89l4.57-7.084zm-23.117 10.09c-.256 0-.48.038-.672.116a1.287 1.287 0 0 0-.479.33 1.439 1.439 0 0 0-.298.48 1.81 1.81 0 0 0-.096.597c0 .205.032.4.096.585.07.178.17.334.298.47.128.134.288.237.48.308.191.078.415.117.67.117.256 0 .48-.039.672-.117.199-.07.362-.174.49-.309.135-.135.234-.291.298-.469.071-.184.107-.38.107-.585a1.65 1.65 0 0 0-.107-.597 1.245 1.245 0 0 0-.298-.48 1.272 1.272 0 0 0-.49-.33 1.771 1.771 0 0 0-.671-.117z" font-weight="400" font-family="Roboto Mono for Powerline" letter-spacing="0" word-spacing="0" fill="url(#g)" stroke-width="1.364" transform="translate(-208 -208)"/><path d="M26 7h76c6.011 0 11 4.989 11 11v2C76.578 23.514 26.87-2.63 15 50V18c0-6.011 4.989-11 11-11z" style="isolation:auto;mix-blend-mode:normal;marker:none" color="#000" overflow="visible" fill="#fff" fill-opacity=".031" stroke-width="3.011" stroke-miterlimit="0" paint-order="fill markers stroke"/><path d="M16 21.364V20c0-6.044 4.956-10 11-10h74c6.044 0 11 3.956 11 10v1.364C112 15.32 107.044 11 101 11H27c-6.044 0-11 4.32-11 10.364z" style="isolation:auto;mix-blend-mode:normal;marker:none" color="#000" overflow="visible" fill="#fff" fill-opacity=".042" stroke-width="3.011" stroke-miterlimit="0" paint-order="fill markers stroke"/><g stroke-width="1.882"><path d="M15 49v1h98v-1z" style="marker:none" fill="#d7fde9" fill-opacity=".115" paint-order="fill markers stroke"/><path d="M124.2 163.467v.733h71.867v-.733z" fill="url(#h)" transform="matrix(1.36364 0 0 1.36364 -154.364 -156.91)"/><path d="M140.333 151.733v51.334h.734v-51.334z" fill="url(#i)" transform="matrix(1.36364 0 0 1.36364 -154.364 -156.91)"/><path d="M141.067 151.733v51.334h.727l.006-51.334z" fill="url(#j)" transform="matrix(1.36364 0 0 1.36364 -154.364 -156.91)"/><path d="M160.867 151.733v51.334h.733v-51.334z" fill="url(#k)" transform="matrix(1.36364 0 0 1.36364 -154.364 -156.91)"/><path d="M161.6 151.733v51.334h.733v-51.334z" fill="url(#l)" transform="matrix(1.36364 0 0 1.36364 -154.364 -156.91)"/><path d="M179.933 151.733v51.334h.734v-51.334z" fill="url(#m)" transform="matrix(1.36364 0 0 1.36364 -154.364 -156.91)"/><path d="M180.667 151.733v51.334h.733v-51.334z" fill="url(#n)" transform="matrix(1.36364 0 0 1.36364 -154.364 -156.91)"/><path d="M124.2 176.667v.733h71.867v-.733z" fill="url(#o)" transform="matrix(1.36364 0 0 1.36364 -154.364 -156.91)"/><path d="M124.2 175.933v.734h71.867v-.734z" fill="url(#p)" transform="matrix(1.36364 0 0 1.36364 -154.364 -156.91)"/><path d="M124.2 189.867v.733h55.733v-.733z" fill="url(#q)" transform="matrix(1.36364 0 0 1.36364 -154.364 -156.91)"/><path d="M124.2 189.133v.734h55.733v-.734z" fill="url(#r)" transform="matrix(1.36364 0 0 1.36364 -154.364 -156.91)"/><path d="M124.2 164.2v.733h71.867v-.733z" fill="url(#s)" transform="matrix(1.36364 0 0 1.36364 -154.364 -156.91)"/></g></svg>