<svg xmlns="http://www.w3.org/2000/svg" xmlns:xlink="http://www.w3.org/1999/xlink" height="128" viewBox="0 0 128 128" width="128"><title>Template icons dark</title><defs><linearGradient id="k"><stop offset="0" stop-color="#4c4553"/><stop offset="1" stop-color="#3b3144" stop-opacity=".969"/></linearGradient><linearGradient id="j"><stop offset="0" stop-color="#3d3743"/><stop offset="1" stop-color="#2f2736" stop-opacity=".969"/></linearGradient><linearGradient id="d"><stop offset="0" stop-color="#f87c32"/><stop offset="1" stop-color="#fdab5a" stop-opacity=".996"/></linearGradient><linearGradient id="i"><stop offset="0" stop-color="#fff" stop-opacity=".125"/><stop offset="1" stop-color="#fff" stop-opacity="0"/></linearGradient><linearGradient id="h"><stop offset="0" stop-color="#fff" stop-opacity=".198"/><stop offset="1" stop-color="#fff" stop-opacity="0"/></linearGradient><linearGradient id="g"><stop offset="0" stop-color="#2c3749"/><stop offset="1" stop-color="#3d3c63"/></linearGradient><linearGradient id="f"><stop offset="0" stop-opacity=".129"/><stop offset=".347" stop-color="#4f4f4f" stop-opacity="0"/><stop offset=".765" stop-color="#8d8d8d" stop-opacity="0"/><stop offset="1" stop-color="#fff" stop-opacity=".104"/></linearGradient><linearGradient id="o"><stop offset="0" stop-opacity=".057"/><stop offset=".909" stop-color="#fff" stop-opacity=".02"/><stop offset="1" stop-color="#fff" stop-opacity=".536"/></linearGradient><linearGradient id="e"><stop offset="0" stop-color="#ff994a"/><stop offset="1" stop-color="#ffb555"/></linearGradient><linearGradient id="n"><stop offset="0" stop-opacity="0"/><stop offset=".887" stop-opacity=".078"/><stop offset="1" stop-color="#fff" stop-opacity=".464"/></linearGradient><linearGradient id="m"><stop offset="0" stop-opacity="0"/><stop offset=".887" stop-opacity=".078"/><stop offset="1" stop-opacity=".188"/></linearGradient><linearGradient id="l"><stop offset="0" stop-opacity=".057"/><stop offset=".909" stop-opacity=".021"/><stop offset="1" stop-opacity=".505"/></linearGradient><linearGradient id="c"><stop offset="0" stop-color="#f88232"/><stop offset="1" stop-color="#fdc85a" stop-opacity=".995"/></linearGradient><linearGradient id="b"><stop offset="0" stop-color="#ed7837" stop-opacity=".974"/><stop offset="1" stop-color="#e45a2a"/></linearGradient><linearGradient id="a"><stop offset="0" stop-color="#403a47"/><stop offset="1" stop-color="#2c2533" stop-opacity=".971"/></linearGradient><linearGradient xlink:href="#i" id="F" gradientUnits="userSpaceOnUse" gradientTransform="translate(48.12 50.199) scale(1.38688)" x1="158.559" y1="119" x2="158.559" y2="151"/><linearGradient xlink:href="#h" id="E" x1="158.559" y1="119" x2="158.559" y2="151" gradientUnits="userSpaceOnUse" gradientTransform="matrix(1.32187 0 0 1.32187 58.522 60.6)"/><linearGradient xlink:href="#f" id="D" x1="187.697" y1="190.626" x2="187.697" y2="176.858" gradientUnits="userSpaceOnUse" gradientTransform="matrix(1.37964 0 0 1.37029 48.132 52.091)"/><linearGradient gradientTransform="matrix(1.33 0 0 1.33 57.222 59.3)" xlink:href="#g" id="C" x1="188" y1="191" x2="188" y2="177" gradientUnits="userSpaceOnUse"/><linearGradient xlink:href="#c" id="z" gradientUnits="userSpaceOnUse" gradientTransform="matrix(-.11194 -.93346 .93346 -.11194 397.384 146.755)" x1="-101.254" y1="-148.008" x2="-84.616" y2="-106.562"/><linearGradient xlink:href="#d" id="w" gradientUnits="userSpaceOnUse" gradientTransform="rotate(-41.817 171.224 57.37) scale(1.33)" x1="104.202" y1="237.968" x2="124.46" y2="214.022"/><linearGradient xlink:href="#c" id="v" gradientUnits="userSpaceOnUse" gradientTransform="rotate(74.668 20.947 2.855) scale(1.33)" x1="295.286" y1="-123.22" x2="267.135" y2="-118.871"/><linearGradient xlink:href="#c" id="u" gradientUnits="userSpaceOnUse" gradientTransform="rotate(-172.409 73.636 21.968) scale(1.33)" x1="-112.967" y1="-156.148" x2="-80.17" y2="-124.045"/><linearGradient xlink:href="#c" id="t" gradientUnits="userSpaceOnUse" gradientTransform="rotate(-142.434 160.568 29.344) scale(.63936)" x1="-112.967" y1="-156.148" x2="-80.17" y2="-124.045"/><linearGradient xlink:href="#c" id="s" gradientUnits="userSpaceOnUse" gradientTransform="matrix(-1.19882 .2982 -.2982 -1.19882 86.428 127.017)" x1="-95.591" y1="-143.575" x2="-67.254" y2="-126.208"/><linearGradient xlink:href="#b" id="r" x1="159.873" y1="151.837" x2="159.873" y2="167.94" gradientUnits="userSpaceOnUse" gradientTransform="matrix(1.84706 0 0 1.84706 -25.507 -23.43)"/><linearGradient gradientTransform="matrix(1.33 0 0 1.33 57.222 59.3)" xlink:href="#e" id="q" x1="161.189" y1="172.735" x2="162.769" y2="145.544" gradientUnits="userSpaceOnUse"/><linearGradient xlink:href="#a" id="p" x1="158.551" y1="120" x2="158.551" y2="196.51" gradientUnits="userSpaceOnUse" gradientTransform="translate(47.895 49.973) scale(1.38829)"/><radialGradient xlink:href="#o" id="B" gradientUnits="userSpaceOnUse" gradientTransform="matrix(-1.98805 -1.3093 1.50068 -2.27864 121.59 -275.515)" cx="-176.577" cy="-137.64" fx="-176.577" fy="-137.64" r="15.364"/><radialGradient xlink:href="#n" id="A" gradientUnits="userSpaceOnUse" gradientTransform="matrix(1.28138 -.3727 .49677 1.708 154.138 -102.913)" cx="24.007" cy="220.792" fx="24.007" fy="220.792" r="18.085"/><radialGradient xlink:href="#m" id="y" gradientUnits="userSpaceOnUse" gradientTransform="matrix(1.2647 -.36784 .49031 1.68577 155.635 -97.996)" cx="24.007" cy="220.792" fx="24.007" fy="220.792" r="18.085"/><radialGradient xlink:href="#l" id="x" cx="-176.577" cy="-137.64" fx="-176.577" fy="-137.64" r="15.364" gradientTransform="matrix(-1.95851 -1.28985 1.47838 -2.24478 123.808 -267.377)" gradientUnits="userSpaceOnUse"/></defs><g transform="translate(-208 -208)"><circle r="59.85" cy="272.1" cx="270.022" style="isolation:auto;mix-blend-mode:normal;marker:none" color="#000" display="block" overflow="visible" fill-opacity=".104" stroke-width=".126" stroke-miterlimit="4.6" paint-order="fill markers stroke"/><path style="isolation:auto;mix-blend-mode:normal;marker:none" d="M328.542 272.1a58.52 58.52 0 0 1-58.52 58.52 58.52 58.52 0 0 1-58.52-58.52 58.52 58.52 0 0 1 58.52-58.52 58.52 58.52 0 0 1 58.52 58.52z" color="#000" display="block" overflow="visible" fill="#191520" stroke-width=".124" stroke-miterlimit="4.6" paint-order="fill markers stroke"/><path style="isolation:auto;mix-blend-mode:normal;marker:none" d="M325.882 272.1a55.86 55.86 0 0 1-55.86 55.86 55.86 55.86 0 0 1-55.86-55.86 55.86 55.86 0 0 1 55.86-55.86 55.86 55.86 0 0 1 55.86 55.86z" color="#000" display="block" overflow="visible" fill="url(#p)" stroke-width=".118" stroke-miterlimit="4.6" paint-order="fill markers stroke"/><path style="isolation:auto;mix-blend-mode:normal;marker:none" d="M322.146 272.1a52.125 52.125 0 0 1-52.124 52.124 52.125 52.125 0 0 1-52.125-52.124 52.125 52.125 0 0 1 52.125-52.125 52.125 52.125 0 0 1 52.124 52.125z" color="#000" display="block" overflow="visible" fill="none" stroke="#000" stroke-width="7.384" stroke-miterlimit="4.6" stroke-opacity=".109" paint-order="fill markers stroke"/><path style="isolation:auto;mix-blend-mode:normal;marker:none" d="M314.345 272.1a44.324 44.324 0 0 1-44.323 44.323 44.324 44.324 0 0 1-44.324-44.323 44.324 44.324 0 0 1 44.324-44.324 44.324 44.324 0 0 1 44.323 44.324z" color="#000" display="block" overflow="visible" fill="none" stroke="#000" stroke-width="9.856" stroke-miterlimit="4.6" stroke-opacity=".125" paint-order="fill markers stroke"/><path style="isolation:auto;mix-blend-mode:normal;marker:none" d="M305.729 272.1a35.707 35.707 0 0 1-35.707 35.707 35.707 35.707 0 0 1-35.707-35.707 35.707 35.707 0 0 1 35.707-35.707 35.707 35.707 0 0 1 35.707 35.707z" color="#000" display="block" overflow="visible" fill="none" stroke="#000" stroke-width="8.518" stroke-miterlimit="4.6" stroke-opacity=".089" paint-order="fill markers stroke"/><path style="isolation:auto;mix-blend-mode:normal;marker:none" d="M319.583 272.1a49.56 49.56 0 0 1-49.561 49.56 49.56 49.56 0 0 1-49.561-49.56 49.56 49.56 0 0 1 49.56-49.561 49.56 49.56 0 0 1 49.562 49.56z" color="#000" display="block" overflow="visible" fill="none" stroke="#fbfbfb" stroke-width=".663" stroke-miterlimit="4.6" stroke-opacity=".099" paint-order="fill markers stroke"/><path style="isolation:auto;mix-blend-mode:normal;marker:none" d="M310.36 272.1a40.339 40.339 0 0 1-40.338 40.339 40.339 40.339 0 0 1-40.34-40.34 40.339 40.339 0 0 1 40.34-40.338A40.339 40.339 0 0 1 310.36 272.1z" color="#000" display="block" overflow="visible" fill="none" stroke="#fbfbfb" stroke-width=".608" stroke-miterlimit="4.6" stroke-opacity=".12" paint-order="fill markers stroke"/><path style="isolation:auto;mix-blend-mode:normal;marker:none" d="M302.076 272.1a32.055 32.055 0 0 1-32.054 32.055 32.055 32.055 0 0 1-32.055-32.055 32.055 32.055 0 0 1 32.055-32.055 32.055 32.055 0 0 1 32.054 32.055z" color="#000" display="block" overflow="visible" fill="none" stroke="#fbfbfb" stroke-width=".665" stroke-miterlimit="4.6" stroke-opacity=".141" paint-order="fill markers stroke"/><path style="isolation:auto;mix-blend-mode:normal;marker:none" d="M288.124 272.1a18.102 18.102 0 0 1-14.092 17.652 18.102 18.102 0 0 1-20.336-9.83 18.102 18.102 0 0 1 5.082-22.009l11.244 14.187z" color="#000" display="block" overflow="visible" fill="none" fill-opacity=".943" stroke="url(#q)" stroke-width="6.283" stroke-miterlimit="4.6" paint-order="fill markers stroke"/><path style="isolation:auto;mix-blend-mode:normal;marker:none" d="M281.567 273.085a11.545 11.545 0 0 1-11.545 11.545 11.545 11.545 0 0 1-11.545-11.545 11.545 11.545 0 0 1 11.545-11.546 11.545 11.545 0 0 1 11.545 11.546z" color="#000" display="block" overflow="visible" fill="none" fill-opacity=".943" stroke="#000" stroke-width="7.035" stroke-miterlimit="4.6" stroke-opacity=".354" paint-order="fill markers stroke"/><path style="isolation:auto;mix-blend-mode:normal;marker:none" d="M301.279 272.1a31.257 31.257 0 0 1-31.257 31.257 31.257 31.257 0 0 1-31.257-31.257 31.257 31.257 0 0 1 31.257-31.257 31.257 31.257 0 0 1 31.257 31.257z" color="#000" display="block" overflow="visible" fill="none" stroke="#000" stroke-width=".648" stroke-miterlimit="4.6" stroke-opacity=".344" paint-order="fill markers stroke"/><path style="isolation:auto;mix-blend-mode:normal;marker:none" d="M281.567 272.1a11.545 11.545 0 0 1-11.545 11.545 11.545 11.545 0 0 1-11.545-11.545 11.545 11.545 0 0 1 11.545-11.545 11.545 11.545 0 0 1 11.545 11.545z" color="#000" display="block" overflow="visible" fill="none" fill-opacity=".943" stroke="url(#r)" stroke-width="7.035" stroke-miterlimit="4.6" paint-order="fill markers stroke"/><path style="isolation:auto;mix-blend-mode:normal;marker:none" d="M219.949 284.985a51.907 51.907 0 0 1 2.402-32.36l47.97 19.83z" color="#000" display="block" overflow="visible" fill="url(#s)" stroke-width="36.132" stroke-miterlimit="4.6" paint-order="fill markers stroke"/><path style="isolation:auto;mix-blend-mode:normal;marker:none" d="M248.922 255.462a26.865 26.865 0 0 1 24.646-10.276l-3.351 26.655z" color="#000" display="block" overflow="visible" fill="url(#t)" stroke-width="18.7" stroke-miterlimit="4.6" paint-order="fill markers stroke"/><path style="isolation:auto;mix-blend-mode:normal;marker:none" d="M214.92 264.468a55.884 55.884 0 0 1 33.731-44.131l21.664 51.514z" color="#000" display="block" overflow="visible" fill="url(#u)" stroke-width="38.9" stroke-miterlimit="4.6" paint-order="fill markers stroke"/><path style="isolation:auto;mix-blend-mode:normal;marker:none" d="M281.02 310.76a40.538 40.538 0 0 1-39.015-10.067l28.296-29.029z" color="#000" display="block" overflow="visible" fill="url(#v)" stroke-width="38.9" stroke-miterlimit="4.6" paint-order="fill markers stroke"/><path style="isolation:auto;mix-blend-mode:normal;marker:none" d="M214.448 271.928a55.884 55.884 0 0 1 .457-7.262l55.427 7.129z" color="#000" display="block" overflow="visible" fill-opacity=".219" stroke-width="38.9" stroke-miterlimit="4.6" paint-order="fill markers stroke"/><path style="isolation:auto;mix-blend-mode:normal;marker:none" d="M317.565 229.401a63.84 63.84 0 0 1 16.163 46.11l-63.742-3.544z" color="#000" display="block" overflow="visible" fill="url(#w)" stroke-width="38.9" stroke-miterlimit="4.6" paint-order="fill markers stroke"/><path style="isolation:auto;mix-blend-mode:normal;marker:none" d="M298.701 246.3a38.452 38.452 0 0 1 9.735 27.772l-38.392-2.134z" color="#000" display="block" overflow="visible" fill="#fef6f0" fill-opacity=".422" stroke-width=".665" stroke-miterlimit="4.6" stroke-opacity=".307" paint-order="fill markers stroke"/><path style="isolation:auto;mix-blend-mode:normal;marker:none" d="M230.71 266.573a39.954 39.954 0 0 1 24.116-31.552l15.489 36.83z" color="#000" display="block" overflow="visible" fill="none" stroke="url(#x)" stroke-width=".665" stroke-miterlimit="4.6" paint-order="fill markers stroke"/><path style="isolation:auto;mix-blend-mode:normal;marker:none" d="M306.457 239.365a48.825 48.825 0 0 1 12.362 35.265l-48.75-2.71z" color="#000" display="block" overflow="visible" fill="none" stroke="url(#y)" stroke-width=".675" stroke-miterlimit="4.6" paint-order="fill markers stroke"/><path style="isolation:auto;mix-blend-mode:normal;marker:none" d="M270.293 232.27a39.592 39.592 0 0 1 1.618.033l-1.624 39.559z" color="#000" display="block" overflow="visible" fill-opacity=".198" stroke-width="27.56" stroke-miterlimit="4.6" paint-order="fill markers stroke"/><path style="isolation:auto;mix-blend-mode:normal;marker:none" d="M271.756 232.41a39.503 39.503 0 0 1 24.866 10.12l-26.438 29.352z" color="#000" display="block" overflow="visible" fill="url(#z)" stroke-width="27.497" stroke-miterlimit="4.6" paint-order="fill markers stroke"/><path style="isolation:auto;mix-blend-mode:normal;marker:none" d="M306.948 238.895a49.469 49.469 0 0 1 12.525 35.73l-49.393-2.746z" color="#000" display="block" overflow="visible" fill="none" stroke="url(#A)" stroke-width=".684" stroke-miterlimit="4.6" paint-order="fill markers stroke"/><path style="isolation:auto;mix-blend-mode:normal;marker:none" d="M333.728 275.518a63.84 63.84 0 0 1-.587 5.78l-63.155-9.33z" color="#000" display="block" overflow="visible" fill="#141414" fill-opacity=".463" stroke-width="38.9" stroke-miterlimit="4.6" paint-order="fill markers stroke"/><path style="isolation:auto;mix-blend-mode:normal;marker:none" d="M280.693 272.1a10.672 10.672 0 0 1-10.671 10.672A10.672 10.672 0 0 1 259.35 272.1a10.672 10.672 0 0 1 10.672-10.672 10.672 10.672 0 0 1 10.671 10.672z" color="#000" display="block" overflow="visible" fill="#37313e" stroke-width=".221" stroke-miterlimit="4.6" stroke-opacity=".344" paint-order="fill markers stroke"/><path style="isolation:auto;mix-blend-mode:normal;marker:none" d="M277.438 272.1a7.417 7.417 0 0 1-7.416 7.416 7.417 7.417 0 0 1-7.417-7.416 7.417 7.417 0 0 1 7.417-7.417 7.417 7.417 0 0 1 7.416 7.417z" color="#000" display="block" overflow="visible" fill-opacity=".198" stroke-width=".154" stroke-miterlimit="4.6" stroke-opacity=".344" paint-order="fill markers stroke"/><path style="isolation:auto;mix-blend-mode:normal;marker:none" d="M275.165 272.1a5.143 5.143 0 0 1-5.143 5.143 5.143 5.143 0 0 1-5.143-5.143 5.143 5.143 0 0 1 5.143-5.143 5.143 5.143 0 0 1 5.143 5.143z" color="#000" display="block" overflow="visible" fill="#fff" fill-opacity=".943" stroke-width=".107" stroke-miterlimit="4.6" stroke-opacity=".344" paint-order="fill markers stroke"/><path style="isolation:auto;mix-blend-mode:normal;marker:none" d="M280.208 272.1a10.187 10.187 0 0 1-10.186 10.187 10.187 10.187 0 0 1-10.187-10.187 10.187 10.187 0 0 1 10.187-10.187 10.187 10.187 0 0 1 10.186 10.187z" color="#000" display="block" overflow="visible" fill="none" stroke="#000" stroke-width=".864" stroke-miterlimit="4.6" stroke-opacity=".526" paint-order="fill markers stroke"/><path style="isolation:auto;mix-blend-mode:normal;marker:none" d="M230.105 266.487a40.557 40.557 0 0 1 24.48-32.028l15.722 37.386z" color="#000" display="block" overflow="visible" fill="none" stroke="url(#B)" stroke-width=".675" stroke-miterlimit="4.6" paint-order="fill markers stroke"/><path style="isolation:auto;mix-blend-mode:normal;marker:none" d="M288.642 293.38h37.24v23.94h-37.24z" color="#000" display="block" overflow="visible" fill-opacity=".427" stroke-width="7.656" stroke-miterlimit="4.6" paint-order="fill markers stroke"/><path style="isolation:auto;mix-blend-mode:normal;marker:none" d="M287.312 292.05h37.24v23.94h-37.24z" color="#000" display="block" overflow="visible" fill="url(#C)" stroke-width="7.656" stroke-miterlimit="4.6" paint-order="fill markers stroke"/><path style="line-height:normal;font-variant-ligatures:normal;font-variant-position:normal;font-variant-caps:normal;font-variant-numeric:normal;font-variant-alternates:normal;font-feature-settings:normal;text-indent:0;text-align:start;text-decoration-line:none;text-decoration-style:solid;text-decoration-color:#000;text-transform:none;text-orientation:mixed;shape-padding:0;isolation:auto;mix-blend-mode:normal;marker:none" d="M287.312 292.05V315.99h37.24v-23.94zm1.33 1.33h34.58v21.196l-34.58.084z" color="#000" font-weight="400" font-family="sans-serif" white-space="normal" display="block" overflow="visible" fill="url(#D)" stroke-width=".687" stroke-miterlimit="4.6" paint-order="fill markers stroke"/><path d="M325.54 272.1a55.519 55.519 0 0 1-55.518 55.519 55.519 55.519 0 0 1-55.519-55.52 55.519 55.519 0 0 1 55.519-55.518A55.519 55.519 0 0 1 325.54 272.1z" style="isolation:auto;mix-blend-mode:normal;marker:none" color="#000" display="block" overflow="visible" fill="none" stroke="url(#E)" stroke-width=".661" stroke-miterlimit="4.6" paint-order="fill markers stroke"/><path style="isolation:auto;mix-blend-mode:normal;marker:none" d="M328.27 272.1a58.25 58.25 0 0 1-58.248 58.249 58.25 58.25 0 0 1-58.25-58.25 58.25 58.25 0 0 1 58.25-58.248A58.25 58.25 0 0 1 328.27 272.1z" color="#000" display="block" overflow="visible" fill="none" stroke="url(#F)" stroke-width=".693" stroke-miterlimit="4.6" paint-order="fill markers stroke"/><path d="M311.136 306.486q-.904 0-1.424.769-.509.769-.509 2.14 0 1.351.51 2.13.519.77 1.423.77.883 0 1.392-.77.52-.779.52-2.13 0-1.361-.52-2.13-.51-.78-1.392-.78zm0-1.32q1.641 0 2.608 1.143.966 1.143.966 3.086 0 1.943-.977 3.086-.966 1.133-2.597 1.133-1.663 0-2.63-1.133-.965-1.143-.965-3.086 0-1.953.966-3.086.977-1.143 2.629-1.143zm-10.723-6.328q-.894 0-1.414.78-.509.769-.509 2.12 0 1.37.51 2.14.509.769 1.413.769t1.413-.77q.52-.768.52-2.14 0-1.34-.52-2.12-.52-.779-1.413-.779zm9.382-1.32h1.663l-9.705 16.096h-1.663zm-9.382 0q1.641 0 2.618 1.144.977 1.132.977 3.075 0 1.964-.977 3.097-.966 1.132-2.618 1.132-1.653 0-2.619-1.132-.956-1.143-.956-3.097 0-1.932.967-3.075.966-1.143 2.608-1.143z" style="line-height:1000%" font-size="16" font-family="sans-serif" letter-spacing="0" word-spacing="0" fill-opacity=".396"/><path d="M311.136 305.156q-.904 0-1.424.769-.509.769-.509 2.14 0 1.351.51 2.13.519.77 1.423.77.883 0 1.392-.77.52-.779.52-2.13 0-1.361-.52-2.13-.51-.78-1.392-.78zm0-1.32q1.641 0 2.608 1.143.966 1.143.966 3.086 0 1.943-.977 3.086-.966 1.133-2.597 1.133-1.663 0-2.63-1.133-.965-1.143-.965-3.086 0-1.953.966-3.086.977-1.143 2.629-1.143zm-10.723-6.328q-.894 0-1.414.78-.509.769-.509 2.12 0 1.37.51 2.14.509.769 1.413.769t1.413-.77q.52-.768.52-2.14 0-1.34-.52-2.12-.52-.779-1.413-.779zm9.382-1.32h1.663l-9.705 16.096h-1.663zm-9.382 0q1.641 0 2.618 1.144.977 1.132.977 3.075 0 1.964-.977 3.097-.966 1.132-2.618 1.132-1.653 0-2.619-1.132-.956-1.143-.956-3.097 0-1.932.967-3.075.966-1.143 2.608-1.143z" style="line-height:1000%" font-size="16" font-family="sans-serif" letter-spacing="0" word-spacing="0" fill="#fff"/></g></svg>