<svg xmlns="http://www.w3.org/2000/svg" xmlns:xlink="http://www.w3.org/1999/xlink" height="128" viewBox="0 0 128 128" width="128"><title>Template icons dark</title><defs><linearGradient id="h"><stop offset="0" stop-color="#e1140e"/><stop offset="1" stop-color="#951318"/></linearGradient><linearGradient id="g" gradientTransform="matrix(0 -100 -100 0 96 146)" gradientUnits="userSpaceOnUse" x2="1"><stop offset="0" stop-color="#fff"/><stop offset="1" stop-color="#c7c7c7"/></linearGradient><linearGradient id="b"><stop offset="0" stop-color="#c6120c"/><stop offset="1" stop-color="#490306"/></linearGradient><linearGradient id="f"><stop offset="0" stop-opacity=".736"/><stop offset="1" stop-opacity="0"/></linearGradient><linearGradient id="e"><stop offset="0" stop-opacity=".742"/><stop offset="1" stop-opacity="0"/></linearGradient><linearGradient id="d"><stop offset="0" stop-color="#8c1919"/><stop offset="1" stop-color="#ff3030"/></linearGradient><linearGradient id="i"><stop offset="0" stop-color="#fff"/><stop offset="1" stop-color="#dac7b4"/></linearGradient><linearGradient id="c"><stop offset="0" stop-color="#362c2d" stop-opacity=".374"/><stop offset="1" stop-opacity="0"/></linearGradient><linearGradient id="a"><stop offset="0" stop-color="#2c2e31"/><stop offset="1" stop-color="#40464d"/></linearGradient><linearGradient xlink:href="#g" id="u" gradientUnits="userSpaceOnUse" x1="177.323" y1="176" x2="177.323" y2="200" gradientTransform="matrix(1.34044 0 0 1.34044 59.373 60.526)"/><linearGradient xlink:href="#h" id="t" gradientUnits="userSpaceOnUse" x1="173.088" y1="180.647" x2="173.088" y2="200" gradientTransform="matrix(1.34044 0 0 1.34044 59.373 60.526)"/><linearGradient xlink:href="#b" id="n" x1="-567.013" y1="546.542" x2="-567.013" y2="541.888" gradientUnits="userSpaceOnUse" gradientTransform="translate(853.785 -291.93) scale(1.02442)"/><linearGradient xlink:href="#a" id="m" x1="-553.436" y1="535.695" x2="-538.458" y2="525.571" gradientUnits="userSpaceOnUse" gradientTransform="translate(853.785 -291.93) scale(1.02442)"/><linearGradient xlink:href="#a" id="l" x1="-591.369" y1="535.056" x2="-580.187" y2="522.822" gradientUnits="userSpaceOnUse" gradientTransform="translate(853.785 -291.93) scale(1.02442)"/><linearGradient xlink:href="#c" id="k" x1="166" y1="152" x2="166" y2="146" gradientUnits="userSpaceOnUse" gradientTransform="translate(-64.307 -29.373) scale(2.05506)"/><linearGradient xlink:href="#g" id="o" gradientUnits="userSpaceOnUse" gradientTransform="matrix(1.34044 0 0 1.34044 59.373 60.526)" x1="177.323" y1="176" x2="177.323" y2="200"/><linearGradient xlink:href="#g" id="p" gradientUnits="userSpaceOnUse" gradientTransform="matrix(1.34044 0 0 1.34044 59.373 60.526)" x1="177.323" y1="176" x2="177.323" y2="200"/><linearGradient xlink:href="#h" id="q" gradientUnits="userSpaceOnUse" gradientTransform="matrix(1.34044 0 0 1.34044 59.373 60.526)" x1="173.088" y1="180.647" x2="173.088" y2="200"/><linearGradient xlink:href="#h" id="r" gradientUnits="userSpaceOnUse" gradientTransform="matrix(1.34044 0 0 1.34044 59.373 60.526)" x1="173.088" y1="180.647" x2="173.088" y2="200"/><linearGradient xlink:href="#g" id="s" gradientUnits="userSpaceOnUse" gradientTransform="matrix(1.34044 0 0 1.34044 59.373 60.526)" x1="177.323" y1="176" x2="177.323" y2="200"/><radialGradient xlink:href="#i" id="j" cx="167.805" cy="136.668" fx="167.805" fy="136.668" r="20.669" gradientTransform="matrix(2.05506 0 0 1.69824 -64.307 19.104)" gradientUnits="userSpaceOnUse"/></defs><path d="M26.747 66.793c19.863 18.632 62.229 12.342 77.909.641 6.852-6.63 4.492-16.178-1.717-18.481 18.208-40.43-44.176-65.69-57.276-19.785-7.696-14.344-36.759-.134-18.595 18.616-8.99 1.443-11.587 15.228-.32 19.01z" fill-opacity=".099" fill-rule="evenodd" stroke-width=".99"/><path style="isolation:auto;mix-blend-mode:normal;marker:none" d="M108.283 121.724a43.966 2.869 0 0 1-43.966 2.869 43.966 2.869 0 0 1-43.966-2.87 43.966 2.869 0 0 1 43.966-2.868 43.966 2.869 0 0 1 43.966 2.869z" color="#000" display="block" overflow="visible" fill-opacity=".17" stroke-width=".784" paint-order="fill markers stroke"/><path d="M236.757 273.731c18.844 17.677 59.039 11.71 73.915.608 6.502-6.29 4.262-15.35-1.628-17.534 17.274-38.358-41.913-62.322-54.341-18.771-7.301-13.609-34.875-.127-17.642 17.662-8.53 1.37-10.993 14.448-.304 18.035z" fill="url(#j)" fill-rule="evenodd" stroke-width=".939" transform="translate(-208 -208)"/><path d="M236.757 273.731c18.844 17.677 59.039 11.71 73.915.608 6.502-6.29 4.262-15.35-1.628-17.534 17.274-38.358-41.913-62.322-54.341-18.771-7.301-13.609-34.875-.127-17.642 17.662-8.53 1.37-10.993 14.448-.304 18.035z" fill="url(#k)" fill-rule="evenodd" stroke-width=".939" transform="translate(-208 -208)"/><path d="M260.725 256.193a6.376 6.376 0 1 1-12.751 0 6.376 6.376 0 0 1 12.751 0z" fill="url(#l)" stroke-width=".615" stroke-linecap="round" stroke-linejoin="round" transform="translate(-208 -208)"/><path d="M299.584 256.847a6.376 6.376 0 1 1-12.751 0 6.376 6.376 0 0 1 12.751 0z" fill="url(#m)" stroke-width=".615" stroke-linecap="round" stroke-linejoin="round" transform="translate(-208 -208)"/><path d="M283.374 264.162c-1.51 11.586-18.292 10.919-19.039-.143-.131-1.088.097-.994 1.153-1l16.525-.09c1.448-.135 1.474.022 1.361 1.233z" opacity=".848" fill="url(#n)" fill-rule="evenodd" stroke-width=".981" transform="translate(-208 -208)"/><path d="M89.837 46.226a2.007 2.007 0 1 1-4.014 0 2.007 2.007 0 0 1 4.014 0zM50.127 46.226a2.007 2.007 0 1 1-4.013 0 2.007 2.007 0 0 1 4.013 0z" fill="#fefefe" stroke-width=".193" stroke-linecap="round" stroke-linejoin="round"/><path d="M259.274 330.123h9.183l-1.298-48.195c-.018-5.042-8.793-6.62-10.083-1.212z" fill="url(#o)" fill-rule="evenodd" stroke-width=".854" transform="translate(-208 -208)"/><path d="M98.858 121.724a34.54 2.254 0 0 1-34.54 2.254 34.54 2.254 0 0 1-34.542-2.254 34.54 2.254 0 0 1 34.541-2.254 34.54 2.254 0 0 1 34.541 2.254z" style="isolation:auto;mix-blend-mode:normal;marker:none" color="#000" display="block" overflow="visible" fill-opacity=".17" stroke-width=".616" paint-order="fill markers stroke"/><path d="M285.973 330.123h-8.281l.722-48.45c.02-5.041 8.794-6.62 10.084-1.211z" fill="url(#p)" fill-rule="evenodd" stroke-width=".854" transform="translate(-208 -208)"/><path d="M267.837 330.123h9.855l.767-47.284c-.063-7.24-11.287-7.264-11.32-.117z" fill="url(#q)" fill-rule="evenodd" stroke-width=".854" transform="translate(-208 -208)"/><path d="M294.695 330.123h-9.299l2.583-49.867c.137-5.04 9.148-6.422 10.355-.986z" fill="url(#r)" fill-rule="evenodd" stroke-width=".854" transform="translate(-208 -208)"/><path d="M301.792 330.123h-7.674l4.258-51.67c.388-5.027 9.166-5.966 10.057-.478z" fill="url(#s)" fill-rule="evenodd" stroke-width=".854" transform="translate(-208 -208)"/><path d="M251.17 330.123h9.185l-3.264-49.612c-.137-5.04-9.148-6.422-10.355-.986z" fill="url(#t)" fill-rule="evenodd" stroke-width=".854" transform="translate(-208 -208)"/><path d="M243.53 330.123h8.101l-4.938-51.416c-.387-5.027-9.165-5.965-10.056-.477z" fill="url(#u)" fill-rule="evenodd" stroke-width=".854" transform="translate(-208 -208)"/></svg>