<svg xmlns="http://www.w3.org/2000/svg" xmlns:xlink="http://www.w3.org/1999/xlink" height="128" viewBox="0 0 128 128" width="128"><title>Template icons dark</title><defs><linearGradient id="b"><stop offset="0" stop-color="#cfdde2"/><stop offset="1" stop-color="#90a1b1"/></linearGradient><linearGradient id="g"><stop offset="0" stop-color="#fff" stop-opacity="0"/><stop offset=".48" stop-color="#fff"/><stop offset="1" stop-color="#f5f6f6" stop-opacity="0"/></linearGradient><linearGradient id="e"><stop offset="0" stop-color="#eaf2f7"/><stop offset="1" stop-color="#99b4c0"/></linearGradient><linearGradient id="f"><stop offset="0" stop-color="#c1dae3"/><stop offset="1" stop-color="#8a98b4"/></linearGradient><linearGradient id="d"><stop offset="0" stop-color="#d2d2d2"/><stop offset="1" stop-color="#939393"/></linearGradient><linearGradient id="c"><stop offset="0" stop-color="#671e1e"/><stop offset="1" stop-color="#d04044"/></linearGradient><linearGradient id="a"><stop offset="0" stop-color="#0c708e"/><stop offset="1" stop-color="#4dc3a3"/></linearGradient><linearGradient xlink:href="#g" id="k" x1="146.804" y1="139.479" x2="174.466" y2="139.479" gradientUnits="userSpaceOnUse" gradientTransform="matrix(.55546 0 0 .90674 182.44 119.579)"/><linearGradient xlink:href="#a" id="j" x1="10.43" y1="43.068" x2="38.891" y2="13.193" gradientUnits="userSpaceOnUse" gradientTransform="matrix(1.24507 0 0 1.24507 62.55 59.292)"/><linearGradient gradientTransform="matrix(1.29032 0 0 1.29032 65.29 66.015)" xlink:href="#e" id="i" x1="168.352" y1="125.665" x2="168.352" y2="190.817" gradientUnits="userSpaceOnUse"/><linearGradient gradientTransform="matrix(1.29032 0 0 1.29032 65.29 66.015)" xlink:href="#b" id="h" gradientUnits="userSpaceOnUse" x1="161.702" y1="118.898" x2="161.702" y2="197.932"/></defs><g color="#000"><path d="M56.62 6.402c-.985 0-1.535.78-1.78 1.682l-3.783 13.913c-2.582.921-5.973 2.208-8.26 3.405l-12.52-7.205c-.81-.467-1.75-.628-2.448.07l-10.18 10.18c-.697.697-.535 1.627-.07 2.438l7.036 12.3a44.68 44.68 0 0 0-3.662 8.56L7.359 55.406c-.903.243-1.682.795-1.682 1.78v14.401c0 .986.78 1.526 1.682 1.772l13.295 3.622a44.681 44.681 0 0 0 3.673 9.026L17.47 97.931c-.467.81-.628 1.75.07 2.448l10.18 10.18c.697.697 1.627.535 2.438.07l11.764-6.737a44.682 44.682 0 0 0 9.225 3.851l3.533 13.107c.243.903.796 1.681 1.781 1.681h14.4c.986 0 1.527-.78 1.772-1.681l3.573-13.117a44.682 44.682 0 0 0 9.106-3.831l11.893 6.837c.81.466 1.75.627 2.448-.07l10.18-10.18c.697-.698.535-1.637.07-2.449l-6.896-12.032a44.68 44.68 0 0 0 3.562-8.827l13.555-3.662c.903-.243 1.682-.786 1.682-1.772v-14.4c0-.986-.78-1.536-1.682-1.781l-13.784-3.742a44.681 44.681 0 0 0-3.513-8.34l7.186-12.48c.466-.81.627-1.75-.07-2.448l-10.18-10.18c-.697-.697-1.637-.535-2.449-.07l-12.51 7.165c-2.757-1.132-5.644-2.53-8.22-3.364L72.793 8.085c-.243-.903-.786-1.682-1.772-1.682h-14.4zm7.13 36.883c11.73 0 21.24 9.51 21.24 21.24 0 11.73-9.51 21.24-21.24 21.24-11.73 0-21.24-9.51-21.24-21.24 0-11.73 9.51-21.24 21.24-21.24z" style="isolation:auto;mix-blend-mode:normal;marker:none" overflow="visible" fill="none" stroke="#000" stroke-width="3.871" stroke-opacity=".168" paint-order="fill markers stroke"/><path style="isolation:auto;mix-blend-mode:normal;marker:none" d="M264.62 214.402c-.985 0-1.535.78-1.78 1.682l-3.783 13.913c-2.582.921-5.973 2.208-8.26 3.405l-12.52-7.205c-.81-.467-1.75-.628-2.448.07l-10.18 10.18c-.697.697-.535 1.627-.07 2.438l7.036 12.3a44.68 44.68 0 0 0-3.662 8.56l-13.595 3.662c-.902.243-1.681.795-1.681 1.78v14.401c0 .986.78 1.526 1.681 1.772l13.296 3.622a44.681 44.681 0 0 0 3.673 9.026l-6.857 11.923c-.467.81-.628 1.75.07 2.448l10.18 10.18c.697.697 1.627.535 2.438.07l11.764-6.737a44.682 44.682 0 0 0 9.225 3.851l3.533 13.107c.243.903.796 1.681 1.781 1.681h14.4c.986 0 1.527-.78 1.772-1.681l3.573-13.117a44.682 44.682 0 0 0 9.106-3.831l11.893 6.837c.81.466 1.75.627 2.448-.07l10.18-10.18c.697-.698.535-1.637.07-2.449l-6.896-12.032a44.68 44.68 0 0 0 3.562-8.827l13.555-3.662c.903-.243 1.682-.786 1.682-1.772v-14.4c0-.986-.78-1.536-1.682-1.781l-13.784-3.742a44.681 44.681 0 0 0-3.513-8.34l7.186-12.48c.466-.81.627-1.75-.07-2.448l-10.18-10.18c-.698-.697-1.637-.535-2.449-.07l-12.51 7.165c-2.757-1.132-5.644-2.53-8.22-3.364l-3.791-14.022c-.243-.903-.786-1.682-1.772-1.682h-14.4zm7.13 36.883c11.73 0 21.24 9.51 21.24 21.24 0 11.73-9.51 21.24-21.24 21.24-11.73 0-21.24-9.51-21.24-21.24 0-11.73 9.51-21.24 21.24-21.24z" overflow="visible" fill="url(#h)" stroke-width="2.416" stroke-opacity=".141" paint-order="fill markers stroke" transform="translate(-208 -208)"/><path style="line-height:normal;text-indent:0;text-align:start;text-decoration-line:none;text-decoration-style:solid;text-decoration-color:#000;text-transform:none;isolation:auto;mix-blend-mode:normal;marker:none" d="M63.75 18.645c-25.215 0-45.831 20.6-45.831 45.814s20.616 45.83 45.83 45.83 45.815-20.616 45.815-45.83-20.601-45.814-45.815-45.814zm0 9.72c20.062 0 36.092 16.03 36.092 36.092 0 20.062-16.03 36.112-36.092 36.112-20.062 0-36.112-16.05-36.112-36.112 0-20.061 16.05-36.092 36.112-36.092z" font-weight="400" font-family="sans-serif" white-space="normal" overflow="visible" fill-opacity=".173" stroke-width="4.251" stroke-opacity=".141" paint-order="fill markers stroke"/><path d="M271.749 228.032c-24.45 0-44.443 19.977-44.443 44.427s19.992 44.443 44.443 44.443c24.45 0 44.427-19.992 44.427-44.443 0-24.45-19.977-44.427-44.427-44.427zm0 9.426c19.455 0 35 15.545 35 35 0 19.454-15.545 35.018-35 35.018-19.454 0-35.018-15.564-35.018-35.019 0-19.454 15.564-34.999 35.019-34.999z" style="line-height:normal;text-indent:0;text-align:start;text-decoration-line:none;text-decoration-style:solid;text-decoration-color:#000;text-transform:none;isolation:auto;mix-blend-mode:normal;marker:none" font-weight="400" font-family="sans-serif" white-space="normal" overflow="visible" fill="url(#i)" stroke-width="4.122" stroke-opacity=".141" paint-order="fill markers stroke" transform="translate(-208 -208)"/><path d="M271.747 237.446c-19.27 0-35.027 15.745-35.027 35.015 0 19.27 15.757 35.027 35.027 35.027 19.27 0 35.015-15.757 35.015-35.027 0-19.27-15.745-35.015-35.015-35.015zm.003 8.837c14.586 0 26.241 11.655 26.241 26.242 0 14.586-11.655 26.255-26.24 26.255a26.146 26.146 0 0 1-26.256-26.255c0-14.587 11.67-26.242 26.255-26.242z" style="line-height:normal;text-indent:0;text-align:start;text-decoration-line:none;text-decoration-style:solid;text-decoration-color:#000;text-transform:none;isolation:auto;mix-blend-mode:normal;marker:none" font-weight="400" font-family="sans-serif" white-space="normal" overflow="visible" fill="url(#j)" stroke-width="2.581" paint-order="fill markers stroke" transform="translate(-208 -208)"/><path style="line-height:normal;text-indent:0;text-align:start;text-decoration-line:none;text-decoration-style:solid;text-decoration-color:#000;text-transform:none;isolation:auto;mix-blend-mode:normal;marker:none" d="M63.746 29.447c-19.27 0-35.025 15.745-35.025 35.015 0 .216.012.43.015.645.348-18.974 15.956-34.37 35.01-34.37s34.652 15.396 35 34.37c.004-.215.015-.429.015-.645 0-19.27-15.745-35.015-35.015-35.015z" font-weight="400" font-family="sans-serif" white-space="normal" overflow="visible" fill-opacity=".283" stroke-width="3.249" stroke-opacity=".141" paint-order="fill markers stroke"/><path style="isolation:auto;mix-blend-mode:normal;marker:none" d="M56.622 6.402c-.986 0-1.537.78-1.782 1.681l-3.783 13.914c-2.582.921-5.974 2.208-8.26 3.405l-12.519-7.205c-.81-.467-1.752-.627-2.45.07l-10.18 10.18c-.523.522-.56 1.177-.35 1.814.075-.184.186-.361.35-.524l10.18-10.18c.698-.696 1.64-.536 2.45-.07l12.518 7.205c2.287-1.196 5.68-2.483 8.261-3.404L54.84 9.374c.245-.903.796-1.681 1.782-1.681h14.4c.985 0 1.529.78 1.772 1.683l3.79 14.022c2.576.834 5.463 2.23 8.22 3.362l12.51-7.165c.812-.464 1.751-.626 2.448.071l10.181 10.182c.165.164.277.342.353.529.209-.639.17-1.298-.353-1.82L99.762 18.376c-.697-.697-1.636-.535-2.447-.07l-12.51 7.164c-2.758-1.132-5.645-2.528-8.221-3.362l-3.79-14.022c-.243-.903-.787-1.684-1.772-1.684zM24.262 43.86a44.672 44.672 0 0 0-3.308 7.885L7.358 55.407c-.903.243-1.681.796-1.681 1.782v1.29c0-.985.778-1.539 1.68-1.782l13.597-3.661a44.68 44.68 0 0 1 3.662-8.559zm78.915.305l-.35.61a44.678 44.678 0 0 1 3.512 8.339l13.786 3.742c.902.245 1.68.796 1.68 1.782v-1.29c0-.986-.778-1.537-1.68-1.782l-13.786-3.743a44.663 44.663 0 0 0-3.162-7.658zM23.978 86.612l-6.51 11.318c-.356.619-.529 1.315-.282 1.92.07-.214.165-.427.282-.63l6.858-11.92c-.122-.227-.23-.46-.348-.688zm79.373 0c-.117.228-.225.461-.346.688l6.898 12.03a3.4 3.4 0 0 1 .282.628c.247-.604.073-1.297-.282-1.917z" overflow="visible" fill="#fff" fill-opacity=".675" stroke-width="2.416" stroke-opacity=".141" paint-order="fill markers stroke"/><path style="line-height:normal;text-indent:0;text-align:start;text-decoration-line:none;text-decoration-style:solid;text-decoration-color:#000;text-transform:none;isolation:auto;mix-blend-mode:normal;marker:none" d="M63.748 39.97c-14.866 0-27.021 12.146-27.021 27.012s12.155 27.02 27.02 27.02c14.866 0 27.012-12.154 27.012-27.02S78.613 39.971 63.748 39.971zm-.003 11.105a15.896 15.896 0 0 1 15.968 15.968 15.904 15.904 0 0 1-15.968 15.978 15.911 15.911 0 0 1-15.977-15.978 15.904 15.904 0 0 1 15.977-15.968z" font-weight="400" font-family="sans-serif" white-space="normal" overflow="visible" fill-opacity=".168" stroke-width="2.634" stroke-opacity=".141" paint-order="fill markers stroke"/><path d="M63.823 37.59c-14.866 0-27.021 12.146-27.021 27.012s12.155 27.02 27.02 27.02c14.866 0 27.012-12.154 27.012-27.02S78.688 37.59 63.823 37.59z" style="line-height:normal;text-indent:0;text-align:start;text-decoration-line:none;text-decoration-style:solid;text-decoration-color:#000;text-transform:none;isolation:auto;mix-blend-mode:normal;marker:none" font-weight="400" font-family="sans-serif" white-space="normal" overflow="visible" fill="#b1c7d0" stroke-width="2.634" stroke-opacity=".141" paint-order="fill markers stroke"/><path style="line-height:normal;text-indent:0;text-align:start;text-decoration-line:none;text-decoration-style:solid;text-decoration-color:#000;text-transform:none;isolation:auto;mix-blend-mode:normal;marker:none" d="M63.822 37.591c-14.865 0-27.02 12.145-27.02 27.01 0 .206.01.41.015.614.33-14.584 12.345-26.396 27.005-26.396 14.66 0 26.666 11.812 26.996 26.396.005-.205.017-.408.017-.614 0-14.865-12.147-27.01-27.013-27.01z" font-weight="400" font-family="sans-serif" white-space="normal" overflow="visible" fill="#fff" fill-opacity=".691" stroke-width="2.634" stroke-opacity=".141" paint-order="fill markers stroke"/><path style="isolation:auto;mix-blend-mode:normal;marker:none" overflow="visible" fill="url(#k)" stroke-width="1.419" paint-order="fill markers stroke" d="M263.984 245.39h15.365v1.32h-15.365z" transform="translate(-208 -208)"/></g></svg>