<svg xmlns="http://www.w3.org/2000/svg" xmlns:xlink="http://www.w3.org/1999/xlink" height="128" viewBox="0 0 128 128" width="128"><title>Template icons dark</title><defs><linearGradient id="b"><stop offset="0" stop-color="#212121"/><stop offset="1" stop-color="#282828"/></linearGradient><linearGradient id="a"><stop offset="0" stop-color="#8683ee"/><stop offset="1" stop-color="#1ed7b6"/></linearGradient><linearGradient xlink:href="#a" id="d" x1="4.376" y1="5.854" x2="42.128" y2="43.605" gradientUnits="userSpaceOnUse" gradientTransform="matrix(2.93673 0 0 2.93673 201.28 196.94)"/><linearGradient xlink:href="#a" id="c" x1="183.831" y1="182.717" x2="134.463" y2="144.519" gradientUnits="userSpaceOnUse" gradientTransform="translate(51.514 51.514) scale(1.37804)"/></defs><g transform="translate(-208 -208)"><circle style="isolation:auto;mix-blend-mode:normal;marker:none" cx="272" cy="272" r="64" color="#000" display="block" overflow="visible" fill-opacity=".078" stroke-width="2.778"/><circle style="isolation:auto;mix-blend-mode:normal;marker:none" cx="272" cy="272" r="61.333" color="#000" overflow="visible" fill="#303030" stroke-width="3.418"/><circle r="61.333" cy="272" cx="272" style="isolation:auto;mix-blend-mode:normal;marker:none" color="#000" overflow="visible" opacity=".119" fill="url(#c)" stroke-width="3.418"/><path style="line-height:normal;font-variant-ligatures:normal;font-variant-position:normal;font-variant-caps:normal;font-variant-numeric:normal;font-variant-alternates:normal;font-feature-settings:normal;text-indent:0;text-align:start;text-decoration-line:none;text-decoration-style:solid;text-decoration-color:#000;text-transform:none;text-orientation:mixed;shape-padding:0;isolation:auto;mix-blend-mode:normal;marker:none" d="M272 210.667c-33.854 0-61.333 27.48-61.333 61.333 0 33.854 27.48 61.333 61.333 61.333 33.854 0 61.333-27.48 61.333-61.333 0-33.854-27.48-61.333-61.333-61.333zm0 3.333c32.052 0 58 25.948 58 58s-25.948 58-58 58-58-25.948-58-58 25.948-58 58-58z" color="#000" font-weight="400" font-family="sans-serif" white-space="normal" overflow="visible" fill="url(#d)" stroke-width="3.418"/><path d="M242.08 229.068l.071 16.547 18.003 16.403-18.045 16.448-.028 16.505 36.145-32.953zm64.009 21.294l-36.146 34.55 36.146 34.549.046-16.43-18.12-18.12 18.107-18.106z" fill-opacity=".147" fill-rule="evenodd" stroke-width="9.611"/><path d="M306.09 247.167l-36.148 34.55 36.147 34.55.047-16.43-18.12-18.12 18.107-18.108z" fill="#7f91e9" fill-rule="evenodd" stroke-width="17.022"/><path d="M239.414 228.538l36.147 32.952-36.147 32.953.029-16.505 18.045-16.448-18.003-16.405z" fill="#25c9bb" fill-rule="evenodd" stroke-width="17.022"/><path d="M272 214c-32.014 0-58 25.986-58 58 0 32.014 25.986 58 58 58 32.014 0 58-25.986 58-58 0-32.014-25.986-58-58-58zm0 3.152c30.31 0 54.848 24.538 54.848 54.848S302.31 326.848 272 326.848 217.152 302.31 217.152 272 241.69 217.152 272 217.152z" style="line-height:normal;font-variant-ligatures:normal;font-variant-position:normal;font-variant-caps:normal;font-variant-numeric:normal;font-variant-alternates:normal;font-feature-settings:normal;text-indent:0;text-align:start;text-decoration-line:none;text-decoration-style:solid;text-decoration-color:#000;text-transform:none;text-orientation:mixed;shape-padding:0;isolation:auto;mix-blend-mode:normal;marker:none" color="#000" font-weight="400" font-family="sans-serif" white-space="normal" overflow="visible" fill-opacity=".179" stroke-width="3.232"/><path d="M314.091 265.031l-17.458 16.685 17.458 16.688.021-7.935-8.75-8.753 8.745-8.745zm8.357 6.969l-10.164 9.716 10.164 9.719.016-4.622-5.097-5.097 5.091-5.091z" fill="#7f91e9" fill-opacity=".118" fill-rule="evenodd" stroke-width="8.221"/><path d="M229.003 245.031l-.016 7.94 8.745 8.745-8.75 8.753.02 7.935 17.462-16.688zM220.646 252l-.01 4.625 5.093 5.091-5.096 5.097.013 4.622 10.166-9.719z" fill="#25c9bb" fill-opacity=".118" fill-rule="evenodd" stroke-width="8.221"/></g></svg>