<svg xmlns="http://www.w3.org/2000/svg" xmlns:xlink="http://www.w3.org/1999/xlink" height="128" viewBox="0 0 128 128" width="128"><title>Template icons dark</title><defs><linearGradient id="c"><stop offset="0" stop-color="#8e8eb4"/><stop offset="1" stop-color="#fdfdfe"/></linearGradient><linearGradient id="b"><stop offset="0" stop-color="#9d9eb3"/><stop offset="1" stop-color="#bcbcbc"/></linearGradient><linearGradient id="a"><stop offset="0" stop-color="#530559"/><stop offset="1" stop-color="#8108f2"/></linearGradient><linearGradient xlink:href="#a" id="f" x1="-252.036" y1="73.11" x2="-193.17" y2="102.89" gradientUnits="userSpaceOnUse" gradientTransform="matrix(-.5232 -1.18594 1.03421 -.78141 63.495 65.024)"/><linearGradient gradientTransform="matrix(1.29623 0 0 1.29623 64.62 65.024)" xlink:href="#c" id="e" x1="160.004" y1="206.598" x2="160.004" y2="197.991" gradientUnits="userSpaceOnUse"/><linearGradient gradientTransform="matrix(1.29623 0 0 1.29623 64.62 65.024)" xlink:href="#b" id="d" x1="160.098" y1="193.342" x2="160.098" y2="197.786" gradientUnits="userSpaceOnUse"/></defs><path style="isolation:auto;mix-blend-mode:normal;marker:none" d="M45.847 105.973l-10.586 7.369-9.522 13.121 75.318.11-7.806-13.1-12.271-7.418z" color="#000" fill-opacity=".184" fill-rule="evenodd" stroke-width="1.111" stroke-linejoin="round"/><path style="isolation:auto;mix-blend-mode:normal;marker:none" d="M245.328 321.56l53.73.122-11.37-6.393-32.553-.075z" color="#000" fill="url(#d)" fill-rule="evenodd" stroke-width="1.029" stroke-linejoin="round" transform="translate(-208 -208)"/><path style="isolation:auto;mix-blend-mode:normal;marker:none" d="M236.505 333.317l8.823-11.758 53.73.123 7.232 11.736z" color="#000" fill="url(#e)" fill-rule="evenodd" stroke-width="1.029" stroke-linejoin="round" transform="translate(-208 -208)"/><path style="isolation:auto;mix-blend-mode:normal;marker:none" d="M5.85 34.364C21.218 14.042 42.15 2.597 63.997 2.572c21.846-.025 42.794 11.373 58.188 31.659l-58.117 71.076z" color="#000" display="block" overflow="visible" fill-opacity=".195" stroke-width="3.782" stroke-linecap="square" stroke-opacity=".279"/><path style="isolation:auto;mix-blend-mode:normal;marker:none" d="M219.006 244.296a97.684 74.644 90 0 1 52.992-28.974 97.684 74.644 90 0 1 53.03 28.853l-52.965 68.831z" color="#000" display="block" overflow="visible" fill="url(#f)" stroke-width="3.446" stroke-linecap="square" stroke-opacity=".279" transform="translate(-208 -208)"/><path style="isolation:auto;mix-blend-mode:normal;marker:none" d="M63.997 7.323a74.644 97.684 0 0 0-52.991 28.972l1.04 1.347a74.644 97.684 0 0 1 51.95-27.727 74.644 97.684 0 0 1 51.997 27.606l1.035-1.347A74.644 97.684 0 0 0 63.997 7.323z" color="#000" display="block" overflow="visible" fill="#fff" fill-opacity=".137" stroke-width="3.446" stroke-linecap="square" stroke-opacity=".279"/><path d="M59.91 29.34v20.12h1.683v-2.785a6.325 6.325 0 0 0 2.204 2.203c.955.57 2 .858 3.14.858.955 0 1.846-.195 2.673-.58a7.056 7.056 0 0 0 2.18-1.6 7.7 7.7 0 0 0 1.43-2.37c.349-.9.525-1.853.525-2.863a8.12 8.12 0 0 0-.47-2.73c-.294-.9-.726-1.698-1.295-2.397a6.114 6.114 0 0 0-2.038-1.71c-.79-.423-1.69-.636-2.701-.636-1.195 0-2.24.306-3.14.913-.9.588-1.676 1.368-2.319 2.342V29.34zm-12.175.55l-8.187 19.57h2.07l2.507-6.118h8.792l2.535 6.117h2.038l-8.127-19.57zm.798 2.263l3.941 9.672h-7.938zm34.59 2.697c-1.066 0-2.041.195-2.923.58a6.942 6.942 0 0 0-2.287 1.6 7.117 7.117 0 0 0-1.461 2.342c-.35.9-.526 1.857-.526 2.868 0 1.029.177 1.99.526 2.89a7.93 7.93 0 0 0 1.516 2.398 7.3 7.3 0 0 0 2.287 1.627c.882.386 1.848.581 2.895.581.68 0 1.33-.093 1.955-.277a6.401 6.401 0 0 0 1.738-.714 6.49 6.49 0 0 0 1.378-1.134c.386-.441.679-.915.88-1.43l-1.843-.553c-.11.331-.306.642-.581.936a4.847 4.847 0 0 1-.991.802c-.386.22-.809.393-1.268.521a4.864 4.864 0 0 1-3.393-.249 5.732 5.732 0 0 1-1.65-1.24 5.993 5.993 0 0 1-1.13-1.872 6.313 6.313 0 0 1-.415-2.286c0-.827.13-1.593.387-2.291a5.651 5.651 0 0 1 1.102-1.79 5.35 5.35 0 0 1 1.655-1.212 4.906 4.906 0 0 1 2.065-.442c.882 0 1.681.213 2.398.636.735.404 1.306.97 1.71 1.706l1.816-.576a5.84 5.84 0 0 0-2.286-2.48c-1.01-.625-2.195-.941-3.555-.941zM66.72 36.505c.753 0 1.44.167 2.065.498a4.67 4.67 0 0 1 1.627 1.295c.46.533.808 1.146 1.047 1.844.257.699.387 1.428.387 2.18a5.8 5.8 0 0 1-.415 2.15 6.074 6.074 0 0 1-1.102 1.843 5.356 5.356 0 0 1-1.682 1.296c-.643.312-1.359.47-2.149.47-.477 0-.984-.093-1.516-.277a6.436 6.436 0 0 1-1.462-.742 5.49 5.49 0 0 1-1.157-1.102 3.234 3.234 0 0 1-.58-1.406v-4.467c.22-.478.498-.928.829-1.35.33-.442.707-.827 1.13-1.158.422-.33.882-.586 1.378-.77a4.204 4.204 0 0 1 1.6-.304z" style="line-height:1000%;-inkscape-font-specification:Raleway" font-weight="400" font-family="Raleway" letter-spacing="0" word-spacing="0" fill="#fefefd" fill-opacity=".995" stroke-width="1.292"/><path d="M35.638 14.943v11.352h2.838V17.78h8.514v-2.838zm45.406 0v2.838h8.514v8.514h2.838V14.943zM35.638 57.757v11.351H46.99V66.27h-8.514v-8.513zm53.92 0v8.513h-8.514v2.838h11.352V57.757z" fill="#fefefe" fill-rule="evenodd" stroke-width=".709"/><path style="isolation:auto;mix-blend-mode:normal;marker:none" d="M22.054 40.02h83.926v11.352H22.054z" color="#000" display="block" overflow="visible" fill="#ff2e97" fill-opacity=".116" stroke-width=".319"/><path style="isolation:auto;mix-blend-mode:normal;marker:none" d="M18.173 40.02h91.688v5.676H18.173z" color="#000" display="block" overflow="visible" fill="#ff2e97" fill-opacity=".389" stroke-width=".236"/><path style="isolation:auto;mix-blend-mode:normal;marker:none" d="M15.735 40.02h96.564v1.47H15.735z" color="#000" display="block" overflow="visible" fill="#ff2e97" stroke-width=".123"/></svg>