<svg xmlns="http://www.w3.org/2000/svg" xmlns:xlink="http://www.w3.org/1999/xlink" height="128" viewBox="0 0 128 128" width="128"><title>Template icons dark</title><defs><linearGradient id="h"><stop offset="0" stop-color="#53b679"/><stop offset="1" stop-color="#189189"/></linearGradient><linearGradient id="g"><stop offset="0" stop-color="#58c27e"/><stop offset=".194" stop-color="#d5db7e"/><stop offset=".681" stop-color="#fdb63d" stop-opacity=".989"/><stop offset="1" stop-color="#d66026"/></linearGradient><linearGradient id="f"><stop offset="0" stop-color="#18b378"/><stop offset="1" stop-color="#5bc981"/></linearGradient><linearGradient id="e"><stop offset="0" stop-color="#5ccb82"/><stop offset="1" stop-color="#479c6c"/></linearGradient><linearGradient id="d"><stop offset="0" stop-color="#097b8c"/><stop offset="1" stop-color="#27a787"/></linearGradient><linearGradient id="c"><stop offset="0" stop-color="#242d3c"/><stop offset="1" stop-color="#374160"/></linearGradient><linearGradient id="a"><stop offset="0" stop-color="#d78383"/><stop offset="1" stop-color="#fefefe"/></linearGradient><linearGradient id="b"><stop offset="0" stop-color="#2c2c2c"/><stop offset="1" stop-color="#4c4c4c"/></linearGradient><linearGradient gradientTransform="scale(1.25832) rotate(-30 294.96 83.93)" xlink:href="#c" id="i" x1="127.52" y1="180.599" x2="204.29" y2="154.964" gradientUnits="userSpaceOnUse"/><linearGradient gradientTransform="scale(1.25832) rotate(-30 294.96 83.93)" xlink:href="#h" id="j" x1="140.881" y1="187.394" x2="176.248" y2="126.137" gradientUnits="userSpaceOnUse"/><linearGradient xlink:href="#d" id="k" gradientUnits="userSpaceOnUse" gradientTransform="matrix(1.26987 0 0 1.26987 68.784 70.4)" x1="160.063" y1="176" x2="160.063" y2="196"/><linearGradient gradientTransform="matrix(1.26987 0 0 1.26987 68.764 70.24)" xlink:href="#f" id="l" x1="160.882" y1="204.887" x2="160.882" y2="180.705" gradientUnits="userSpaceOnUse"/><linearGradient xlink:href="#e" id="m" x1="160" y1="180" x2="160" y2="171.339" gradientUnits="userSpaceOnUse" gradientTransform="matrix(1.26987 0 0 1.26987 68.764 71.312)"/><linearGradient xlink:href="#g" id="n" x1="182.69" y1="179.28" x2="182.956" y2="140.009" gradientUnits="userSpaceOnUse" gradientTransform="matrix(.78018 0 0 1.26987 161.892 69.397)"/><linearGradient xlink:href="#g" id="o" gradientUnits="userSpaceOnUse" gradientTransform="matrix(.55852 0 0 .90907 157.1 131.818)" x1="182.69" y1="179.28" x2="182.956" y2="140.009"/></defs><g color="#000" stroke-linecap="square"><path style="isolation:auto;mix-blend-mode:normal;marker:none" d="M223.74 286.29c-2.786 0-4.06 1.382-5.027 2.902l-5.184 8.156a.908.908 0 0 0-.046.962c-.068.33-.065.664.046 1.004l5.184 15.896c.966 2.962 2.24 5.656 5.026 5.656h96.41c2.785 0 4.059-2.694 5.025-5.656l5.184-15.896c.112-.341.115-.676.047-1.007a.907.907 0 0 0-.047-.959l-5.184-8.156c-.966-1.52-2.24-2.901-5.026-2.901z" overflow="visible" fill-opacity=".1" stroke-width="2.304" filter="url(#filter5140)" transform="translate(-208 -208)"/><path style="isolation:auto;mix-blend-mode:normal;marker:none" d="M324.731 242.942v61.59H219.156v-61.59l52.788-30.476z" overflow="visible" fill-opacity=".153" stroke-width="2.3" filter="url(#filter5140)" transform="translate(-208 -208)"/><path style="isolation:auto;mix-blend-mode:normal;marker:none" d="M321.46 244.831v58.137h-99.032v-58.137l49.516-28.588z" overflow="visible" fill="url(#i)" stroke="url(#j)" stroke-width="2.54" filter="url(#filter5140)" transform="translate(-208 -208)"/><path style="isolation:auto;mix-blend-mode:normal;marker:none" d="M224.077 293.897h95.733c2.766 0 8.955 2.506 8.028 5.28l-4.96 14.838c-.924 2.766-2.145 5.28-4.81 5.28H225.82c-2.665 0-3.887-2.514-4.811-5.28l-4.96-14.838c-.927-2.774 5.262-5.28 8.028-5.28z" display="block" overflow="visible" fill="url(#k)" stroke-width="2.177" filter="url(#filter5140)" transform="translate(-208 -208)"/><path style="isolation:auto;mix-blend-mode:normal;marker:none" d="M216.156 298.447l-.107.164c-.927 1.423 2.356 2.708 5.28 2.708h101.229c2.924 0 6.207-1.285 5.28-2.708l-.107-.164c-.748.919-3.046 1.603-5.173 1.603H221.33c-2.127 0-4.426-.684-5.174-1.603z" display="block" overflow="visible" fill="#19b4b6" stroke-width="1.56" filter="url(#filter5140)" transform="translate(-208 -208)"/><path d="M243.377 293.737h57.133c9.035 0 4.599 3.94 2.71 8.05l-10.39 22.628c-1.842 4.01-3.386 8.05-7.591 8.05h-26.59c-4.206 0-5.75-4.04-7.591-8.05l-10.392-22.627c-1.887-4.109-6.324-8.05 2.711-8.05z" style="isolation:auto;mix-blend-mode:normal;marker:none" overflow="visible" fill-opacity=".253" stroke-width="2.303" filter="url(#filter5140)" transform="translate(-208 -208)"/><path style="isolation:auto;mix-blend-mode:normal;marker:none" d="M244.126 293.737h55.635c8.798 0 4.478 3.617 2.64 7.392l-10.12 20.774c-1.793 3.68-3.296 7.39-7.39 7.39h-25.894c-4.095 0-5.598-3.71-7.391-7.39l-10.12-20.774c-1.837-3.772-6.158-7.392 2.64-7.392z" overflow="visible" fill="url(#l)" stroke-width="2.177" filter="url(#filter5140)" transform="translate(-208 -208)"/><path d="M221.329 300.049h101.23c2.924 0 6.206-1.286 5.28-2.709l-4.96-7.613c-.925-1.419-2.146-2.709-4.811-2.709H225.82c-2.665 0-3.887 1.29-4.811 2.71l-4.96 7.612c-.927 1.423 2.355 2.709 5.28 2.709z" style="isolation:auto;mix-blend-mode:normal;marker:none" display="block" overflow="visible" fill="url(#m)" stroke-width="1.56" filter="url(#filter5140)" transform="translate(-208 -208)"/><path d="M282.126 254.88l-14.091-.167 24.386-28.9 22.62 29.067h-10.844s-3.585 18.56-.76 28.344c2.824 9.783 6.042 13.583 6.042 13.583l-16.744.674s-7.351-4.635-9.506-15.087c-2.155-10.452-1.103-27.514-1.103-27.514z" style="isolation:auto;mix-blend-mode:normal;marker:none" overflow="visible" fill-opacity=".479" stroke-width="1.976" filter="url(#filter5140)" transform="translate(-208 -208)"/><path style="isolation:auto;mix-blend-mode:normal;marker:none" d="M284.611 253.287l-12.326-.168 20.217-25.104 18.87 25.272h-10.924s-1.575 20.484 1.27 30.339c2.845 9.854 10.16 14.36 10.16 14.36H292.23s-5.695-5.517-7.866-16.045c-2.17-10.528.246-28.654.246-28.654z" overflow="visible" fill="url(#n)" stroke-width="1.991" filter="url(#filter5140)" transform="translate(-208 -208)"/><path style="isolation:auto;mix-blend-mode:normal;marker:none" d="M243.043 264.234l-10.05-.12 17.393-20.611 16.133 20.73h-7.735s-2.557 13.238-.542 20.216c2.014 6.977 4.309 9.687 4.309 9.687l-11.942.48s-5.242-3.305-6.78-10.76c-1.537-7.454-.786-19.622-.786-19.622z" overflow="visible" fill-opacity=".479" stroke-width="1.41" filter="url(#filter5140)" transform="translate(-208 -208)"/><path d="M244.951 263.46l-8.824-.12 14.473-17.971 13.508 18.091h-7.82s-1.127 14.664.91 21.719c2.036 7.054 7.272 10.28 7.272 10.28h-14.064s-4.077-3.95-5.631-11.486c-1.554-7.537.176-20.513.176-20.513z" style="isolation:auto;mix-blend-mode:normal;marker:none" display="block" overflow="visible" fill="url(#o)" stroke-width="1.425" filter="url(#filter5140)" transform="translate(-208 -208)"/><path transform="scale(.23867) rotate(-30 744.562 100.81)" d="M205.438 160l-22.719 39.35h-45.438L114.56 160l22.72-39.35h45.438z" style="isolation:auto;mix-blend-mode:normal;marker:none" overflow="visible" fill-opacity=".237" stroke-width="2.018" filter="url(#filter5140)"/><path style="isolation:auto;mix-blend-mode:normal;marker:none" d="M271.944 303.21l-9.393 5.424v1.27l9.393-5.425 9.392 5.424v-1.27z" overflow="visible" fill-opacity=".237" stroke-width=".482" filter="url(#filter5140)" transform="translate(-208 -208)"/><path style="isolation:auto;mix-blend-mode:normal;marker:none" d="M262.551 319.477v1.27l9.393 5.424 9.392-5.424v-1.27l-9.392 5.424z" overflow="visible" fill="#f4f4f4" fill-opacity=".237" stroke-width=".482" filter="url(#filter5140)" transform="translate(-208 -208)"/></g></svg>