<svg xmlns="http://www.w3.org/2000/svg" xmlns:xlink="http://www.w3.org/1999/xlink" height="128" viewBox="0 0 128 128" width="128"><title>Template icons dark</title><defs><linearGradient id="i"><stop offset="0" stop-color="#078cd0" stop-opacity=".781"/><stop offset=".774" stop-color="#5946dd" stop-opacity=".584"/><stop offset="1" stop-color="#ca39f1" stop-opacity=".669"/></linearGradient><linearGradient id="h"><stop offset="0" stop-color="#078cd0" stop-opacity=".698"/><stop offset=".774" stop-color="#5946dd" stop-opacity=".443"/><stop offset="1" stop-color="#ca39f1" stop-opacity=".302"/></linearGradient><linearGradient id="b"><stop offset="0" stop-color="#d1f8fc" stop-opacity=".084"/><stop offset=".501" stop-color="#fff" stop-opacity=".039"/><stop offset="1" stop-color="#b6f3fa" stop-opacity=".096"/></linearGradient><linearGradient id="a"><stop offset="0" stop-color="#777"/><stop offset="1" stop-color="#595959"/></linearGradient><linearGradient id="g"><stop offset="0" stop-color="#fff" stop-opacity=".528"/><stop offset=".561" stop-color="#fff" stop-opacity=".522"/><stop offset="1" stop-color="#fff" stop-opacity="0"/></linearGradient><linearGradient id="e"><stop offset="0" stop-color="#fff" stop-opacity=".663"/><stop offset=".561" stop-color="#fff" stop-opacity=".522"/><stop offset="1" stop-color="#fff" stop-opacity="0"/></linearGradient><linearGradient id="f"><stop offset="0" stop-color="#fff"/><stop offset=".561" stop-color="#fff" stop-opacity=".522"/><stop offset="1" stop-color="#fff" stop-opacity="0"/></linearGradient><linearGradient id="d"><stop offset="0" stop-color="#4fb9ef" stop-opacity=".459"/><stop offset=".836" stop-color="#1f1cec" stop-opacity=".315"/><stop offset=".888" stop-color="#d039f1" stop-opacity=".376"/><stop offset="1" stop-color="#ca39f1" stop-opacity=".302"/></linearGradient><linearGradient id="c"><stop offset="0" stop-color="#393939"/><stop offset="1" stop-color="#181818"/></linearGradient><linearGradient xlink:href="#a" id="k" x1="158.033" y1="188.223" x2="158.033" y2="130.744" gradientUnits="userSpaceOnUse" gradientTransform="matrix(1.74932 0 0 1.74932 -7.89 -8.602)"/><linearGradient xlink:href="#b" id="l" x1="228.437" y1="20.042" x2="246.784" y2="1.62" gradientUnits="userSpaceOnUse" gradientTransform="scale(1.74932) rotate(45.116 3.664 -7.888)"/><radialGradient xlink:href="#c" id="j" cx="160" cy="160" fx="160" fy="160" r="33" gradientUnits="userSpaceOnUse" gradientTransform="matrix(1.74932 0 0 1.74932 -7.89 -8.602)"/><radialGradient xlink:href="#d" id="m" cx="-226.274" cy=".459" fx="-226.274" fy=".459" r="15.999" gradientUnits="userSpaceOnUse" gradientTransform="matrix(2.01868 -2.01868 2.0213 2.0213 727.94 -186.2)"/><radialGradient xlink:href="#g" id="n" gradientUnits="userSpaceOnUse" gradientTransform="matrix(.8826 .0685 -.10893 .6402 148.484 159.659)" cx="160.02" cy="162.319" fx="160.02" fy="162.319" r="2.546"/><radialGradient xlink:href="#e" id="o" gradientUnits="userSpaceOnUse" gradientTransform="matrix(1.3499 0 0 1.09897 55.71 94.507)" cx="160.366" cy="156" fx="160.366" fy="156" r="2.546"/></defs><g color="#000" transform="translate(-208 -208)"><path style="isolation:auto;mix-blend-mode:normal;marker:none" d="M293.962 240.32l19.777-19.778a6.642 6.642 0 0 1 9.414 0 6.642 6.642 0 0 1 0 9.414l-19.777 19.777a6.642 6.642 0 0 1-9.414 0 6.642 6.642 0 0 1 0-9.414z" display="block" overflow="visible" fill="#fff" stroke-width=".648" stroke-linecap="round" stroke-linejoin="round" paint-order="stroke fill markers"/><path style="isolation:auto;mix-blend-mode:normal;marker:none" d="M331.911 273.038A59.911 59.911 0 0 1 272 332.949a59.911 59.911 0 0 1-59.911-59.911A59.911 59.911 0 0 1 272 213.126a59.911 59.911 0 0 1 59.911 59.912z" overflow="visible" fill-opacity=".23" stroke-width="3.172" paint-order="fill markers stroke"/><path style="isolation:auto;mix-blend-mode:normal;marker:none" d="M327.975 271.289A55.975 55.975 0 0 1 272 327.264a55.975 55.975 0 0 1-55.975-55.975A55.975 55.975 0 0 1 272 215.313a55.975 55.975 0 0 1 55.975 55.976z" overflow="visible" fill="url(#j)" stroke="#f2f2f2" stroke-width="3.505" paint-order="fill markers stroke"/><path style="line-height:normal;font-variant-ligatures:normal;font-variant-position:normal;font-variant-caps:normal;font-variant-numeric:normal;font-variant-alternates:normal;font-feature-settings:normal;text-indent:0;text-align:start;text-decoration-line:none;text-decoration-style:solid;text-decoration-color:#000;text-transform:none;text-orientation:mixed;shape-padding:0;isolation:auto;mix-blend-mode:normal;marker:none" d="M272 216.82c-30.049 0-54.468 24.42-54.468 54.469 0 30.048 24.42 54.468 54.468 54.468 30.049 0 54.468-24.42 54.468-54.468 0-30.05-24.42-54.468-54.468-54.468zm0 5.682c26.978 0 48.786 21.809 48.786 48.787 0 26.977-21.808 48.786-48.786 48.786s-48.786-21.809-48.786-48.786c0-26.978 21.808-48.787 48.786-48.787z" font-weight="400" font-family="sans-serif" white-space="normal" overflow="visible" fill="url(#k)" stroke-width="5.682" paint-order="fill markers stroke"/><path style="line-height:normal;font-variant-ligatures:normal;font-variant-position:normal;font-variant-caps:normal;font-variant-numeric:normal;font-variant-alternates:normal;font-feature-settings:normal;text-indent:0;text-align:start;text-decoration-line:none;text-decoration-style:solid;text-decoration-color:#000;text-transform:none;text-orientation:mixed;shape-padding:0;isolation:auto;mix-blend-mode:normal;marker:none" d="M272 212.95c-32.192 0-58.339 26.147-58.339 58.339 0 32.191 26.147 58.339 58.339 58.339s58.339-26.148 58.339-58.34c0-32.191-26.147-58.339-58.339-58.339zm0 4.728c29.637 0 53.61 23.974 53.61 53.61 0 29.637-23.973 53.611-53.61 53.611s-53.61-23.974-53.61-53.61c0-29.637 23.973-53.61 53.61-53.61z" font-weight="400" font-family="sans-serif" white-space="normal" overflow="visible" fill="#fff" stroke-width="4.728" paint-order="fill markers stroke"/><path style="isolation:auto;mix-blend-mode:normal;marker:none" d="M304.405 303.457a46.122 46.122 0 0 1-65.226-.133l32.679-32.546z" overflow="visible" fill="url(#l)" stroke-width="2.888" paint-order="fill markers stroke"/><path style="isolation:auto;mix-blend-mode:normal;marker:none" d="M239.686 239.08a45.759 45.759 0 0 1 64.713.132l-32.422 32.29z" overflow="visible" fill="url(#m)" stroke-width="2.865" paint-order="fill markers stroke"/><path style="isolation:auto;mix-blend-mode:normal;marker:none" d="M274.212 274.428a2.319 1.566 0 0 1-2.319 1.566 2.319 1.566 0 0 1-2.318-1.566 2.319 1.566 0 0 1 2.318-1.566 2.319 1.566 0 0 1 2.319 1.566z" overflow="visible" fill="url(#n)" stroke-width=".318" paint-order="fill markers stroke"/><path style="isolation:auto;mix-blend-mode:normal;marker:none" d="M275.626 265.947a3.437 2.798 0 0 1-3.437 2.798 3.437 2.798 0 0 1-3.437-2.798 3.437 2.798 0 0 1 3.437-2.798 3.437 2.798 0 0 1 3.437 2.798z" overflow="visible" fill="url(#o)" stroke-width=".27" paint-order="fill markers stroke"/><circle style="isolation:auto;mix-blend-mode:normal;marker:none" cx="272" cy="271.289" r="12.619" overflow="visible" fill="none" fill-opacity=".459" stroke="#8e8e8e" stroke-width="4.195" paint-order="fill markers stroke"/><circle r="14.868" cy="271.289" cx="272" style="isolation:auto;mix-blend-mode:normal;marker:none" overflow="visible" fill="#030303" fill-opacity=".459" stroke="#969696" stroke-width="1.577" paint-order="fill markers stroke"/><circle style="isolation:auto;mix-blend-mode:normal;marker:none" cx="272" cy="271.289" r="41.17" overflow="visible" fill="none" fill-opacity=".459" stroke="#fff" stroke-width=".403" stroke-opacity=".237" paint-order="fill markers stroke"/><circle r="25.341" cy="271.289" cx="272" style="isolation:auto;mix-blend-mode:normal;marker:none" overflow="visible" fill="none" fill-opacity=".459" stroke="#fff" stroke-width=".175" stroke-opacity=".376" paint-order="fill markers stroke"/><g transform="translate(60.579 -65.44) scale(2.11069)"><circle r="1.953" cy="138.047" cx="121.953" style="isolation:auto;mix-blend-mode:normal;marker:none" overflow="visible" fill="#ea6565" paint-order="fill markers stroke"/><path d="M121.953 136.094a1.953 1.953 0 0 0-1.953 1.953 1.953 1.953 0 0 0 .008.152 1.953 1.953 0 0 1 1.945-1.8 1.953 1.953 0 0 1 1.946 1.8 1.953 1.953 0 0 0 .008-.152 1.953 1.953 0 0 0-1.954-1.953z" style="isolation:auto;mix-blend-mode:normal;marker:none" overflow="visible" fill-opacity=".506" paint-order="fill markers stroke"/></g></g></svg>