<svg xmlns:osb="http://www.openswatchbook.org/uri/2009/osb" xmlns="http://www.w3.org/2000/svg" xmlns:xlink="http://www.w3.org/1999/xlink" height="128" viewBox="0 0 128 128" width="128"><title>Template icons dark</title><defs><linearGradient id="a"><stop offset="0" stop-color="#665e8f"/><stop offset="1" stop-color="#343b41"/></linearGradient><linearGradient id="b"><stop offset="0" stop-color="#383d60"/><stop offset="1" stop-color="#242e42"/></linearGradient><linearGradient id="d"><stop offset="0" stop-opacity=".204"/><stop offset="1" stop-opacity="0"/></linearGradient><linearGradient id="e" osb:paint="solid"><stop offset="0" stop-color="#8ca1a8" stop-opacity=".424"/></linearGradient><linearGradient id="f" osb:paint="solid"><stop offset="0" stop-color="#ff4ca1"/></linearGradient><linearGradient id="c"><stop offset="0" stop-color="#dce1e8"/><stop offset="1" stop-color="#fff"/></linearGradient><linearGradient xlink:href="#c" id="o" gradientUnits="userSpaceOnUse" gradientTransform="translate(1675.628 770.434) scale(2.4463)" x1="-578.647" y1="-204.784" x2="-578.647" y2="-214.622"/><linearGradient xlink:href="#d" id="n" gradientUnits="userSpaceOnUse" gradientTransform="matrix(1.2824 0 0 1.26924 -1050.09 -211.484)" x1="1031.269" y1="365.654" x2="1031.269" y2="380.159"/><linearGradient xlink:href="#e" id="m" gradientUnits="userSpaceOnUse" gradientTransform="matrix(1.22806 0 0 1.22806 440.188 353.006)" x1="-49.096" y1="1041.18" x2="-9.096" y2="1041.18"/><linearGradient xlink:href="#c" id="l" gradientUnits="userSpaceOnUse" gradientTransform="translate(241.354 250.276) scale(2.4463)" x1="17.92" y1="19.84" x2="17.92" y2="11.307"/><linearGradient xlink:href="#d" id="k" gradientUnits="userSpaceOnUse" gradientTransform="matrix(1.2824 0 0 1.02123 -1051.317 -89.548)" x1="1031.269" y1="365.654" x2="1031.269" y2="380.159"/><linearGradient xlink:href="#f" id="j" gradientUnits="userSpaceOnUse" gradientTransform="matrix(.98245 0 0 .9881 245.639 -740.75)"/><linearGradient xlink:href="#g" id="i" gradientUnits="userSpaceOnUse" x1="115.452" y1="160" x2="204.026" y2="160.174"/><linearGradient id="g"><stop offset="0" stop-color="#383d60"/><stop offset="1" stop-color="#242e42"/></linearGradient><linearGradient xlink:href="#a" id="h" gradientUnits="userSpaceOnUse" x1="99.818" y1="164.367" x2="220.995" y2="164.367"/></defs><g transform="translate(-208 -208)"><path style="isolation:auto;mix-blend-mode:normal;marker:none" d="M271.497 336.053l-55.426-32v-64l55.426-32 55.425 32v64z" color="#000" display="block" overflow="visible" fill-opacity=".018" stroke-width=".09"/><path style="isolation:auto;mix-blend-mode:normal;marker:none" d="M218.836 302.457v2.59l52.66 30.404 52.66-30.404v-2.59l-52.66 30.404z" color="#000" overflow="visible" fill="#131a20" fill-opacity=".092" stroke-width=".12"/><path style="isolation:auto;mix-blend-mode:normal;marker:none" d="M192.612 192.612l-44.549 11.936-32.611-32.611 11.936-44.549 44.549-11.936 32.611 32.611z" transform="rotate(45 167.477 314.583) scale(1.31848)" color="#000" display="block" overflow="visible" fill="url(#h)" stroke-width=".068"/><path transform="scale(1.05479) rotate(45 90.495 326.526)" d="M192.612 192.612l-44.549 11.936-32.611-32.611 11.936-44.549 44.549-11.936 32.611 32.611z" style="isolation:auto;mix-blend-mode:normal;marker:none" color="#000" display="block" overflow="visible" fill="url(#i)" stroke-width=".068"/><path style="isolation:auto;mix-blend-mode:normal;marker:none" d="M229.367 296.376v-48.647l42.129-24.323 42.129 24.323z" color="#000" overflow="visible" fill="#fff" fill-opacity=".058" stroke-width=".071"/><path style="isolation:auto;mix-blend-mode:normal;marker:none" d="M271.496 223.405l-42.13 24.325v6.475l42.13-24.325 42.13 24.325v-6.475z" color="#000" display="block" overflow="visible" fill-opacity=".466" stroke-width=".071"/><path style="isolation:auto;mix-blend-mode:normal;marker:none" d="M229.367 296.382v2.01l42.129 24.325 42.13-24.324v-2.01l-42.13 24.324z" color="#000" display="block" overflow="visible" fill="#faf8fb" fill-opacity=".24" stroke-width=".071"/><path style="isolation:auto;mix-blend-mode:normal;marker:none" d="M271.496 211.243l-52.66 30.405v1.295l52.66-30.405 52.66 30.405v-1.295z" color="#000" display="block" overflow="visible" fill="#fff" fill-opacity=".267" stroke-width=".089"/><path d="M256.455 277.723h32.4c5.608 0 10.124 4.67 10.124 10.47 0 5.8-4.516 10.47-10.125 10.47h-32.4c-5.609 0-10.124-4.67-10.124-10.47 0-5.8 4.515-10.47 10.125-10.47z" fill="#fff" fill-opacity=".189" stroke-width="1.381"/><path d="M257.06 278.983h29.473a9.19 9.19 0 0 1 9.21 9.21 9.19 9.19 0 0 1-9.21 9.21h-29.474a9.19 9.19 0 0 1-9.21-9.21 9.19 9.19 0 0 1 9.21-9.21z" fill="url(#j)" stroke-width="1.109"/><path style="line-height:normal;font-variant-ligatures:normal;font-variant-position:normal;font-variant-caps:normal;font-variant-numeric:normal;font-variant-alternates:normal;font-feature-settings:normal;text-indent:0;text-align:start;text-decoration-line:none;text-decoration-style:solid;text-decoration-color:#000;text-transform:none;text-orientation:mixed;shape-padding:0;isolation:auto;mix-blend-mode:normal" d="M256.997 279a9.107 9.107 0 0 0-9.114 9.114v.142a9.109 9.109 0 0 0 9.114 9.117h29.656a9.109 9.109 0 0 0 9.114-9.117v-.142a9.107 9.107 0 0 0-9.114-9.114zm0 1.228h29.656a7.854 7.854 0 0 1 7.886 7.886v.142a7.856 7.856 0 0 1-7.886 7.889h-29.656a7.856 7.856 0 0 1-7.886-7.89v-.14a7.854 7.854 0 0 1 7.886-7.887z" color="#000" font-weight="400" font-family="sans-serif" white-space="normal" overflow="visible" fill="url(#k)" stroke-width="1.102"/><path d="M299.427 289.421a14.123 14.123 0 0 1-14.122 14.123 14.123 14.123 0 0 1-14.123-14.123 14.123 14.123 0 0 1 14.123-14.122 14.123 14.123 0 0 1 14.122 14.122z" fill-opacity=".157" stroke-width=".589" stroke-miterlimit="4.6" stroke-opacity=".197"/><path d="M298.2 288.193a12.895 12.895 0 0 1-12.895 12.895 12.895 12.895 0 0 1-12.895-12.895 12.895 12.895 0 0 1 12.895-12.894 12.895 12.895 0 0 1 12.894 12.894z" fill="url(#l)" stroke-width=".511" stroke-miterlimit="4.6"/><path d="M258.288 248.782h29.473a9.19 9.19 0 0 1 9.21 9.21 9.19 9.19 0 0 1-9.21 9.21h-29.473a9.19 9.19 0 0 1-9.21-9.21 9.19 9.19 0 0 1 9.21-9.21z" fill="url(#m)" stroke-width="1.236"/><path style="line-height:normal;font-variant-ligatures:normal;font-variant-position:normal;font-variant-caps:normal;font-variant-numeric:normal;font-variant-alternates:normal;font-feature-settings:normal;text-indent:0;text-align:start;text-decoration-line:none;text-decoration-style:solid;text-decoration-color:#000;text-transform:none;text-orientation:mixed;shape-padding:0;isolation:auto;mix-blend-mode:normal" d="M258.225 248.799a9.107 9.107 0 0 0-9.114 9.114v.142a9.109 9.109 0 0 0 9.114 9.117h29.656a9.109 9.109 0 0 0 9.114-9.117v-.142a9.107 9.107 0 0 0-9.114-9.114zm0 1.228h29.656a7.854 7.854 0 0 1 7.886 7.886v.142a7.856 7.856 0 0 1-7.886 7.889h-29.656a7.856 7.856 0 0 1-7.886-7.889v-.142a7.854 7.854 0 0 1 7.886-7.886z" color="#000" font-weight="400" font-family="sans-serif" white-space="normal" overflow="visible" fill="url(#n)" stroke-width="1.228"/><path d="M273.361 258.43a14.123 14.123 0 0 1-14.122 14.122 14.123 14.123 0 0 1-14.123-14.123 14.123 14.123 0 0 1 14.123-14.123 14.123 14.123 0 0 1 14.123 14.123z" fill-opacity=".157" stroke-width=".589" stroke-miterlimit="4.6" stroke-opacity=".197"/><path d="M272.41 257.992a12.895 12.895 0 0 1-12.894 12.895 12.895 12.895 0 0 1-12.895-12.895 12.895 12.895 0 0 1 12.895-12.894 12.895 12.895 0 0 1 12.894 12.894z" fill="url(#o)" stroke-width=".511" stroke-miterlimit="4.6"/><circle style="isolation:auto;mix-blend-mode:normal;marker:none" cx="318.795" cy="245.977" r="2.534" color="#000" display="block" overflow="visible" fill="#fdfeff" fill-opacity=".198" stroke-width=".646" stroke-linejoin="round"/><circle style="isolation:auto;mix-blend-mode:normal;marker:none" cx="224.071" cy="245.198" r="2.534" color="#000" display="block" overflow="visible" fill="#fdfeff" fill-opacity=".198" stroke-width=".646" stroke-linejoin="round"/><circle cy="300.031" cx="224.071" style="isolation:auto;mix-blend-mode:normal;marker:none" r="2.534" color="#000" display="block" overflow="visible" fill="#fdfeff" fill-opacity=".198" stroke-width=".646" stroke-linejoin="round"/><circle style="isolation:auto;mix-blend-mode:normal;marker:none" cx="271.628" cy="327.187" r="2.534" color="#000" overflow="visible" fill="#fdfeff" fill-opacity=".198" stroke-width=".646" stroke-linejoin="round"/><circle cy="300.161" cx="318.015" style="isolation:auto;mix-blend-mode:normal;marker:none" r="2.534" color="#000" display="block" overflow="visible" fill="#fdfeff" fill-opacity=".198" stroke-width=".646" stroke-linejoin="round"/><circle cy="218.301" cx="271.498" style="isolation:auto;mix-blend-mode:normal;marker:none" r="2.534" color="#000" display="block" overflow="visible" fill="#fdfeff" fill-opacity=".198" stroke-width=".646" stroke-linejoin="round"/><circle cy="288.193" cx="285.305" r="12.308" fill="none" stroke="#fff" stroke-width="1.172" stroke-miterlimit="4.6" stroke-opacity=".237"/><circle cy="257.992" cx="259.516" r="12.308" fill="none" stroke="#fff" stroke-width="1.172" stroke-miterlimit="4.6" stroke-opacity=".237"/></g></svg>