<svg xmlns="http://www.w3.org/2000/svg" xmlns:xlink="http://www.w3.org/1999/xlink" height="128" viewBox="0 0 128 128" width="128"><title>Template icons dark</title><defs><linearGradient id="d"><stop offset="0" stop-color="#fff" stop-opacity=".763"/><stop offset="1" stop-color="#fff" stop-opacity=".632"/></linearGradient><linearGradient id="c"><stop offset="0" stop-color="#fff"/><stop offset="1" stop-color="#fff" stop-opacity=".637"/></linearGradient><linearGradient id="b"><stop offset="0" stop-color="#ff053c"/><stop offset="1" stop-color="#0b31ff" stop-opacity=".974"/></linearGradient><linearGradient id="a"><stop offset="0" stop-color="#1ed760"/><stop offset="1" stop-color="#1ed760"/></linearGradient><linearGradient xlink:href="#a" id="e" x1="24.535" y1="7.996" x2="24.705" y2="38.25" gradientUnits="userSpaceOnUse" gradientTransform="matrix(2.93673 0 0 2.93673 201.28 196.94)"/><linearGradient xlink:href="#b" id="f" x1="122" y1="183" x2="196" y2="142" gradientUnits="userSpaceOnUse" gradientTransform="translate(51.514 51.514) scale(1.37804)"/><linearGradient gradientTransform="matrix(1.33333 0 0 1.33333 58.667 58.667)" xlink:href="#c" id="h" x1="160.063" y1="147" x2="158.323" y2="181" gradientUnits="userSpaceOnUse"/><linearGradient gradientTransform="matrix(1.33333 0 0 1.33333 58.667 58.667)" xlink:href="#d" id="g" x1="172" y1="119" x2="148.724" y2="201.638" gradientUnits="userSpaceOnUse"/></defs><g color="#000" transform="translate(-208 -208)"><circle style="isolation:auto;mix-blend-mode:normal;marker:none" cx="272" cy="272" r="64" display="block" overflow="visible" fill-opacity=".078" stroke-width="2.778"/><circle style="isolation:auto;mix-blend-mode:normal;marker:none" cx="272" cy="272" r="61.333" overflow="visible" fill="url(#e)" stroke-width="3.418"/><circle r="61.333" cy="272" cx="272" style="isolation:auto;mix-blend-mode:normal;marker:none" overflow="visible" opacity=".109" fill="url(#f)" stroke-width="3.418"/><circle style="isolation:auto;mix-blend-mode:normal;marker:none" cx="272" cy="272" r="59.667" overflow="visible" fill="none" stroke="url(#g)" stroke-width="3.333"/><path style="line-height:normal;font-variant-ligatures:normal;font-variant-position:normal;font-variant-caps:normal;font-variant-numeric:normal;font-variant-alternates:normal;font-feature-settings:normal;text-indent:0;text-align:start;text-decoration-line:none;text-decoration-style:solid;text-decoration-color:#000;text-transform:none;text-orientation:mixed;shape-padding:0;isolation:auto;mix-blend-mode:normal" d="M264.914 243.471c-10.105.003-20.064 1.333-29.401 3.823a5.663 5.663 0 1 0 2.92 10.943c22.288-5.944 48.971-4.4 70.77 7.089a5.663 5.663 0 1 0 5.281-10.019c-15.474-8.155-32.727-11.84-49.57-11.836zm-.667 20.826c-8.829-.038-17.441 1.135-25.122 3.276a4.877 4.877 0 1 0 2.617 9.393c17.897-4.988 43.01-3.646 59.961 6.985a4.877 4.877 0 1 0 5.182-8.26c-12.606-7.907-27.923-11.332-42.638-11.394zM265.333 284c-8.606-.13-16.862 1.142-24.46 2.83a3.775 3.775 0 1 0 1.637 7.37c16.607-3.69 34.818-5.146 53.243 5.85a3.776 3.776 0 1 0 3.87-6.485c-11.579-6.91-23.224-9.397-34.29-9.565z" font-weight="400" font-family="sans-serif" white-space="normal" overflow="visible" fill-opacity=".147" stroke-width="11.325"/><path d="M264.914 242.138c-10.105.003-20.064 1.333-29.401 3.823a5.663 5.663 0 1 0 2.92 10.943c22.288-5.944 48.971-4.4 70.77 7.088a5.663 5.663 0 1 0 5.281-10.018c-15.474-8.156-32.727-11.84-49.57-11.836zm-.667 20.826c-8.829-.038-17.441 1.135-25.122 3.276a4.877 4.877 0 1 0 2.617 9.393c17.897-4.988 43.01-3.646 59.961 6.984a4.877 4.877 0 1 0 5.182-8.26c-12.606-7.906-27.923-11.331-42.638-11.393zm1.086 19.703c-8.606-.131-16.862 1.142-24.46 2.83a3.775 3.775 0 1 0 1.637 7.37c16.607-3.69 34.818-5.146 53.243 5.85a3.776 3.776 0 1 0 3.87-6.485c-11.579-6.91-23.224-9.397-34.29-9.565z" style="line-height:normal;font-variant-ligatures:normal;font-variant-position:normal;font-variant-caps:normal;font-variant-numeric:normal;font-variant-alternates:normal;font-feature-settings:normal;text-indent:0;text-align:start;text-decoration-line:none;text-decoration-style:solid;text-decoration-color:#000;text-transform:none;text-orientation:mixed;shape-padding:0;isolation:auto;mix-blend-mode:normal" font-weight="400" font-family="sans-serif" white-space="normal" overflow="visible" fill="url(#h)" stroke-width="11.325"/></g></svg>