<svg xmlns="http://www.w3.org/2000/svg" xmlns:xlink="http://www.w3.org/1999/xlink" height="128" viewBox="0 0 128 128" width="128"><title>Template icons dark</title><defs><linearGradient id="b"><stop offset="0" stop-color="#aed5f8"/><stop offset="1" stop-color="#f7cbff"/></linearGradient><linearGradient id="c"><stop offset="0" stop-color="#5a9fdb"/><stop offset="1" stop-color="#e47ff5"/></linearGradient><linearGradient id="a"><stop offset="0" stop-color="#1d273b"/><stop offset="1" stop-color="#342b38"/></linearGradient><linearGradient xlink:href="#a" id="d" gradientUnits="userSpaceOnUse" gradientTransform="matrix(2.78788 0 0 -2.78788 207.098 340.916)" x1="14.633" y1="41.796" x2="34.842" y2="6.78"/><linearGradient gradientTransform="matrix(1.33333 0 0 1.33333 58.667 58.667)" xlink:href="#c" id="e" x1="113" y1="160" x2="207" y2="160" gradientUnits="userSpaceOnUse"/><linearGradient xlink:href="#b" id="f" x1="112.037" y1="174.404" x2="175.498" y2="174.404" gradientUnits="userSpaceOnUse" gradientTransform="matrix(1.51529 0 0 1.51529 52.808 7.317)"/></defs><g color="#000"><path style="isolation:auto;mix-blend-mode:normal;marker:none" d="M64 0A64.002 64.002 0 0 0 0 64a64.002 64.002 0 0 0 64 64 64.002 64.002 0 0 0 64-64A64.002 64.002 0 0 0 64 0zm0 47.767A16.234 16.234 0 0 1 80.233 64 16.234 16.234 0 0 1 64 80.233 16.234 16.234 0 0 1 47.767 64 16.234 16.234 0 0 1 64 47.767z" overflow="visible" fill-opacity=".12" stroke-width="2.783"/><path style="isolation:auto;mix-blend-mode:normal;marker:none" d="M272 333.333c-33.873 0-61.333-27.46-61.333-61.333s27.46-61.333 61.333-61.333 61.333 27.46 61.333 61.333-27.46 61.333-61.333 61.333z" overflow="visible" fill="url(#d)" stroke="url(#e)" stroke-width="2.667" transform="translate(-208 -208)"/><path d="M87.746 19.627c-6.966-.372-13.307 2.78-17.6 7.426-.509.55-.99 1.121-1.438 1.71L29.065 80.804 5.64 67.506s.078 4.732.782 8.15A139.38 139.38 0 0 0 8.4 83.85l13.816 7.46c-1.553 4.95-.512 10.587 3.841 14.94 5.836 5.836 13.981 5.727 19.681 1.385l57.806-44.032c9.427-7.18 13.434-23.25.923-35.76-5.504-5.504-11.303-7.926-16.721-8.216zm.326 8.832a16.546 16.546 0 0 1 11.453 4.844c6.462 6.461 6.463 16.936.003 23.399-6.461 6.462-16.939 6.462-23.4 0-6.461-6.462-6.461-16.937 0-23.399h.002a16.546 16.546 0 0 1 11.942-4.844zm-.281 5.682c-5.89 0-10.664 4.774-10.663 10.663 0 5.89 4.774 10.664 10.663 10.663 5.888 0 10.66-4.775 10.66-10.663s-4.772-10.662-10.66-10.663zm-48.182 49.4A9.56 9.56 0 1 1 32.71 99.86a9.56 9.56 0 0 1-2.539-4.59l6.9 3.436a6.242 6.242 0 0 0 8.168-3.344 6.24 6.24 0 0 0-2.904-7.958l-6.398-3.182a9.56 9.56 0 0 1 3.672-.68z" style="isolation:auto;mix-blend-mode:normal;marker:none" display="block" overflow="visible" fill-opacity=".319" stroke-width="1.515"/><path style="isolation:auto;mix-blend-mode:normal;marker:none" d="M294.15 226.03c-6.967-.372-13.308 2.78-17.6 7.426-.51.55-.99 1.122-1.439 1.71l-39.643 52.041-23.423-13.298s.077 4.733.782 8.15a139.38 139.38 0 0 0 1.976 8.194l13.816 7.46c-1.553 4.95-.512 10.587 3.842 14.94 5.835 5.836 13.98 5.728 19.68 1.386l57.806-44.032c9.428-7.182 13.434-23.25.924-35.76-5.505-5.505-11.303-7.927-16.722-8.216zm.325 8.832a16.546 16.546 0 0 1 11.454 4.845c6.461 6.46 6.462 16.936.003 23.398-6.462 6.463-16.94 6.463-23.401 0-6.461-6.461-6.461-16.937 0-23.398h.003a16.546 16.546 0 0 1 11.941-4.845zm-.28 5.682c-5.89 0-10.664 4.774-10.664 10.664 0 5.889 4.774 10.663 10.663 10.663 5.888-.001 10.66-4.775 10.66-10.663 0-5.889-4.772-10.662-10.66-10.664zm-48.182 49.401a9.56 9.56 0 1 1-6.899 16.319 9.56 9.56 0 0 1-2.54-4.59l6.9 3.436a6.242 6.242 0 0 0 8.168-3.345 6.24 6.24 0 0 0-2.903-7.958l-6.399-3.181a9.56 9.56 0 0 1 3.673-.681z" display="block" overflow="visible" fill="url(#f)" stroke-width="1.515" transform="translate(-208 -208)"/></g></svg>