<svg xmlns="http://www.w3.org/2000/svg" xmlns:xlink="http://www.w3.org/1999/xlink" height="128" viewBox="0 0 128 128" width="128"><title>Template icons dark</title><defs><linearGradient id="a"><stop offset="0" stop-color="#eadfec"/><stop offset="1" stop-color="#c0dde6"/></linearGradient><linearGradient id="b"><stop offset="0" stop-color="#3e4453"/><stop offset="1" stop-color="#222630"/></linearGradient><linearGradient id="c"><stop offset="0" stop-color="#abd6e5"/><stop offset="1" stop-color="#f7e2f7"/></linearGradient><linearGradient xlink:href="#a" id="g" gradientUnits="userSpaceOnUse" gradientTransform="translate(204.2 198.683) scale(3.00588)" x1="17.302" y1="14.341" x2="30.113" y2="34.354"/><linearGradient xlink:href="#c" id="f" x1="36.062" y1="47.638" x2="13.188" y2="8.325" gradientUnits="userSpaceOnUse" gradientTransform="matrix(2.82432 0 0 2.82432 204.216 195.178)"/><linearGradient xlink:href="#b" id="d" x1="24.535" y1="7.996" x2="24.766" y2="38.006" gradientUnits="userSpaceOnUse" gradientTransform="translate(203.553 199.353) scale(2.84232)"/><linearGradient xlink:href="#c" id="e" gradientUnits="userSpaceOnUse" gradientTransform="matrix(2.82432 0 0 2.82432 204.216 195.178)" x1="36.062" y1="47.638" x2="13.188" y2="8.325"/></defs><g transform="translate(-208 -208)"><circle r="62" cy="272" cx="272" style="isolation:auto;mix-blend-mode:normal;marker:none" color="#000" display="block" overflow="visible" fill-opacity=".115" stroke-width="2.388"/><circle r="59.362" cy="272" cx="272" style="isolation:auto;mix-blend-mode:normal;marker:none" color="#000" overflow="visible" fill="url(#d)" stroke="url(#e)" stroke-width="2.638"/><circle style="isolation:auto;mix-blend-mode:normal;marker:none" cx="272" cy="272" r="59.362" color="#000" display="block" overflow="visible" fill="none" stroke="url(#f)" stroke-width="2.638"/><path style="isolation:auto;mix-blend-mode:normal;marker:none" color="#000" display="block" overflow="visible" fill="#869eb6" stroke-width="4.845" d="M248 242h13v5h-13z"/><path style="isolation:auto;mix-blend-mode:normal;marker:none" color="#000" display="block" overflow="visible" fill="#8e9f81" stroke-width="4.994" d="M262.766 241.66h7.915v5.277h-7.915z"/><path style="isolation:auto;mix-blend-mode:normal;marker:none" color="#000" display="block" overflow="visible" fill="#9e9e86" stroke-width="4.845" d="M248 251h13v5h-13z"/><path style="isolation:auto;mix-blend-mode:normal;marker:none" color="#000" display="block" overflow="visible" fill="#86b1d6" fill-opacity=".357" stroke-width="4.887" d="M263 251h8v5h-8z"/><path style="isolation:auto;mix-blend-mode:normal;marker:none" color="#000" display="block" overflow="visible" fill="#88885e" fill-opacity=".495" stroke-width="4.887" d="M272 251h8v5h-8z"/><path style="isolation:auto;mix-blend-mode:normal;marker:none" color="#000" display="block" overflow="visible" fill="#987f95" stroke-width="4.845" d="M248 261h13v5h-13z"/><path style="isolation:auto;mix-blend-mode:normal;marker:none" color="#000" display="block" overflow="visible" fill="#9d875f" fill-opacity=".687" stroke-width="4.887" d="M263 261h8v5h-8z"/><path style="isolation:auto;mix-blend-mode:normal;marker:none" color="#000" display="block" overflow="visible" fill="#987f95" fill-opacity=".676" stroke-width="4.845" d="M248 277h13v5h-13z"/><path style="isolation:auto;mix-blend-mode:normal;marker:none" color="#000" display="block" overflow="visible" fill="#68798d" fill-opacity=".764" stroke-width="6.23" d="M263 277h13v5h-13z"/><path style="isolation:auto;mix-blend-mode:normal;marker:none" color="#000" display="block" overflow="visible" fill="#606d78" stroke-width="5.014" d="M278 276.723h13.191V282H278z"/><path style="isolation:auto;mix-blend-mode:normal;marker:none" color="#000" display="block" overflow="visible" fill="#8f6094" stroke-width="4.693" d="M291.766 277H301v5h-9.234z"/><path style="isolation:auto;mix-blend-mode:normal;marker:none" color="#000" display="block" overflow="visible" fill="#b36b75" stroke-width="5.014" d="M248 292.723h13.191V298H248z"/><path style="isolation:auto;mix-blend-mode:normal;marker:none" color="#000" display="block" overflow="visible" fill="#b47f70" stroke-width="4.989" d="M263.085 293H271v5.266h-7.915z"/><path style="isolation:auto;mix-blend-mode:normal;marker:none" color="#000" display="block" overflow="visible" fill="#53c290" stroke-width="5.028" d="M248 304h14v5h-14z"/><path style="isolation:auto;mix-blend-mode:normal;marker:none" color="#000" display="block" overflow="visible" fill="#e675d2" stroke-width="5.184" d="M264 304h9v5h-9z"/><path style="isolation:auto;mix-blend-mode:normal;marker:none" color="#000" display="block" overflow="visible" fill="#5e6974" stroke-width="4.887" d="M272 293h8v5h-8z"/><path style="isolation:auto;mix-blend-mode:normal;marker:none" color="#000" display="block" overflow="visible" fill="#4d854d" stroke-width="4.975" d="M281 293h12v5h-12z"/><path style="isolation:auto;mix-blend-mode:normal;marker:none" color="#000" display="block" overflow="visible" fill="#b36b75" stroke-width="5.042" d="M271.808 242h13.191v5.277h-13.191z"/><path style="isolation:auto;mix-blend-mode:normal;marker:none" color="#000" display="block" overflow="visible" fill="#8f6094" stroke-width="4.699" d="M287 242h13v5.087h-13z"/><path style="isolation:auto;mix-blend-mode:normal;marker:none" color="#000" display="block" overflow="visible" fill="#575f70" stroke-width="5" d="M238 242h5v5h-5z"/><path style="isolation:auto;mix-blend-mode:normal;marker:none" color="#000" display="block" overflow="visible" fill="#575f70" stroke-width="4.992" d="M238 251h5v4.984h-5z"/><path style="isolation:auto;mix-blend-mode:normal;marker:none" color="#000" display="block" overflow="visible" fill="#575f70" stroke-width="5" d="M238 261h5v5h-5zM238 269h5v5h-5z"/><path style="isolation:auto;mix-blend-mode:normal;marker:none" color="#000" display="block" overflow="visible" fill="#575f70" stroke-width="4.992" d="M238 277.016h5V282h-5z"/><path style="isolation:auto;mix-blend-mode:normal;marker:none" color="#000" overflow="visible" fill="#575f70" stroke-width="5" d="M238 285h5v5h-5z"/><path style="isolation:auto;mix-blend-mode:normal;marker:none" color="#000" display="block" overflow="visible" fill="#575f70" stroke-width="5" d="M238 293h5v5h-5zM238 304h5v5h-5z"/><path style="isolation:auto;mix-blend-mode:normal;marker:none" color="#000" display="block" overflow="visible" fill="#9176e2" stroke-width="4.845" d="M248 231h13v5h-13z"/><path style="isolation:auto;mix-blend-mode:normal;marker:none" color="#000" display="block" overflow="visible" fill="#57bdff" fill-opacity=".824" stroke-width="4.892" d="M262.984 231H271v5h-8.016z"/><path style="isolation:auto;mix-blend-mode:normal;marker:none" color="#000" display="block" overflow="visible" fill="#575f70" stroke-width="5" d="M238 231h5v5h-5z"/><path d="M284.58 287.913q0-4.187-3.182-6.476-3.127-2.345-11-4.02-7.816-1.675-12.45-4.02-4.579-2.345-6.812-5.584-2.178-3.238-2.178-7.705 0-7.426 6.254-12.562 6.309-5.137 16.08-5.137 10.273 0 16.638 5.304 6.421 5.304 6.421 13.568h-10.385q0-4.244-3.63-7.315-3.572-3.07-9.044-3.07-5.64 0-8.822 2.456-3.182 2.457-3.182 6.421 0 3.741 2.959 5.64 2.959 1.898 10.664 3.629 7.76 1.73 12.563 4.131 4.801 2.401 7.09 5.807 2.345 3.35 2.345 8.207 0 8.096-6.476 13.01-6.477 4.857-16.806 4.857-7.258 0-12.842-2.568-5.583-2.569-8.766-7.147-3.126-4.634-3.126-9.994h10.329q.279 5.192 4.132 8.263 3.908 3.015 10.273 3.015 5.862 0 9.38-2.345 3.573-2.4 3.573-6.365z" style="line-height:10;-inkscape-font-specification:Roboto" font-weight="400" font-size="83.863" font-family="Roboto" letter-spacing="0" word-spacing="0" fill-opacity=".489" stroke-width="5.558" stroke-opacity=".194"/><path style="line-height:10;-inkscape-font-specification:Roboto" d="M284.58 285.275q0-4.188-3.182-6.477-3.127-2.345-11-4.02-7.816-1.675-12.45-4.02-4.579-2.345-6.812-5.583-2.178-3.238-2.178-7.705 0-7.426 6.254-12.563 6.309-5.136 16.08-5.136 10.273 0 16.638 5.304 6.421 5.304 6.421 13.567h-10.385q0-4.243-3.63-7.314-3.572-3.07-9.044-3.07-5.64 0-8.822 2.456-3.182 2.457-3.182 6.42 0 3.742 2.959 5.64 2.959 1.898 10.664 3.63 7.76 1.73 12.563 4.13 4.801 2.402 7.09 5.808 2.345 3.35 2.345 8.207 0 8.096-6.476 13.01-6.477 4.857-16.806 4.857-7.258 0-12.842-2.569-5.583-2.568-8.766-7.146-3.126-4.634-3.126-9.994h10.329q.279 5.192 4.132 8.263 3.908 3.015 10.273 3.015 5.862 0 9.38-2.345 3.573-2.4 3.573-6.365z" font-weight="400" font-size="83.863" font-family="Roboto" letter-spacing="0" word-spacing="0" fill="url(#g)" stroke-width="5.558" stroke-opacity=".194"/><path style="isolation:auto;mix-blend-mode:normal;marker:none" d="M272 213.878A58.123 58.123 0 0 0 213.878 272a58.123 58.123 0 0 0 .028.776A58.123 58.123 0 0 1 272 215.196a58.123 58.123 0 0 1 58.094 57.35 58.123 58.123 0 0 0 .028-.546A58.123 58.123 0 0 0 272 213.878z" color="#000" overflow="visible" fill-opacity=".236" stroke-width="2.583"/><path d="M272 330.052a58.123 58.123 0 0 1-58.122-58.122 58.123 58.123 0 0 1 .028-.776A58.123 58.123 0 0 0 272 328.733a58.123 58.123 0 0 0 58.094-57.35 58.123 58.123 0 0 1 .029.547A58.123 58.123 0 0 1 272 330.052z" style="isolation:auto;mix-blend-mode:normal;marker:none" color="#000" overflow="visible" fill="#fff" fill-opacity=".967" stroke-width="2.583"/></g></svg>