<svg xmlns="http://www.w3.org/2000/svg" xmlns:xlink="http://www.w3.org/1999/xlink" height="128" viewBox="0 0 128 128" width="128"><title>Template icons dark</title><defs><linearGradient id="d"><stop offset="0" stop-color="#443791"/><stop offset="1" stop-color="#915cb8"/></linearGradient><linearGradient id="c"><stop offset="0" stop-color="#fff"/><stop offset="1" stop-color="#d2d2d2"/></linearGradient><linearGradient id="b"><stop offset="0" stop-color="#5a41e2"/><stop offset="1" stop-color="#4c9ce0" stop-opacity=".945"/></linearGradient><linearGradient id="a"><stop offset="0" stop-color="#fffefe"/><stop offset="1" stop-color="#fff" stop-opacity=".855"/></linearGradient><linearGradient gradientTransform="translate(60.878 61.819) scale(1.31868)" xlink:href="#c" id="f" x1="160.425" y1="131.905" x2="160.425" y2="202" gradientUnits="userSpaceOnUse"/><linearGradient gradientTransform="rotate(-45 105.06 -42.577) scale(1.31868)" xlink:href="#d" id="e" x1="12.131" y1="258.452" x2="12.131" y2="181.283" gradientUnits="userSpaceOnUse"/></defs><path style="isolation:auto;mix-blend-mode:normal;marker:none" d="M6.361 59.106l52.15-52.15a7.826 7.826 0 0 1 11.092 0l52.15 52.15a7.826 7.826 0 0 1 0 11.092l-52.15 52.15a7.826 7.826 0 0 1-11.093 0L6.361 70.197a7.826 7.826 0 0 1 0-11.092z" color="#000" overflow="visible" fill="#040307" fill-opacity=".1" stroke-width=".497" stroke-opacity=".104" paint-order="fill markers stroke"/><path style="isolation:auto;mix-blend-mode:normal;marker:none" d="M216.391 267.508l50.144-50.144a7.525 7.525 0 0 1 10.666 0l50.143 50.144a7.525 7.525 0 0 1 0 10.666l-50.143 50.143a7.525 7.525 0 0 1-10.666 0l-50.144-50.143a7.525 7.525 0 0 1 0-10.666z" color="#000" overflow="visible" fill="url(#e)" stroke-width=".478" stroke-opacity=".104" paint-order="fill markers stroke" transform="translate(-207.811 -208.189)"/><path d="M49.826 17.739l-1.319 1.319 13.47 13.47a8.951 8.951 0 0 1 9.213 2.15 8.89 8.89 0 0 1 2.506 5.023c.404-2.712-.416-5.57-2.506-7.66a8.951 8.951 0 0 0-9.213-2.15zm6.181 19.25a8.995 8.995 0 0 0-.015 2.722c.108-.735.29-1.463.58-2.158zm17.764 4.772a8.993 8.993 0 0 1-.451 2.19l12.986 12.98c3.14-1.083 6.763-.38 9.272 2.133a8.925 8.925 0 0 1 2.521 5.024c.4-2.713-.432-5.573-2.521-7.662-2.509-2.512-6.131-3.215-9.272-2.132zm6.609 19.68a8.978 8.978 0 0 0-.005 2.653 8.924 8.924 0 0 1 .556-2.102zM6.155 63.326a7.53 7.53 0 0 0 2.089 6.66l50.48 50.479a7.542 7.542 0 0 0 10.666.003l50.48-50.481a7.528 7.528 0 0 0 2.087-6.653 7.494 7.494 0 0 1-2.087 4.016l-50.48 50.48a7.541 7.541 0 0 1-10.666-.003L8.244 67.35a7.498 7.498 0 0 1-2.09-4.023zM61.452 78.84a8.965 8.965 0 0 0-2.939 1.96c-2.088 2.087-2.92 4.945-2.519 7.66a8.906 8.906 0 0 1 2.52-5.023 8.965 8.965 0 0 1 2.938-1.96zm7.379.262v2.638c.854.423 1.66.988 2.372 1.7a8.921 8.921 0 0 1 2.521 5.024c.4-2.713-.432-5.573-2.521-7.662a9.008 9.008 0 0 0-2.372-1.7z" fill="#fff" fill-opacity=".668" stroke-width="1.274"/><path style="line-height:normal;font-variant-ligatures:normal;font-variant-position:normal;font-variant-caps:normal;font-variant-numeric:normal;font-variant-alternates:normal;font-feature-settings:normal;text-indent:0;text-align:start;text-decoration-line:none;text-decoration-style:solid;text-decoration-color:#000;text-transform:none;text-orientation:mixed;shape-padding:0;isolation:auto;mix-blend-mode:normal" d="M61.807 33.26l.374-.13a8.31 8.31 0 0 1 8.558 1.999 8.319 8.319 0 0 1 1.98 8.613l-.13.376 13.547 13.547.376-.131c2.918-1.006 6.279-.357 8.613 1.98h.003a8.325 8.325 0 0 1 .003 11.789 8.328 8.328 0 0 1-11.794-.003 8.335 8.335 0 0 1-1.816-9.066l.163-.392-13.499-13.498.008 33.79.356.176a8.367 8.367 0 0 1 2.204 1.579 8.328 8.328 0 0 1 .003 11.79 8.327 8.327 0 0 1-11.788-.002 8.328 8.328 0 0 1-.003-11.791 8.326 8.326 0 0 1 2.73-1.821l.397-.162-.008-33.009-.397-.162a8.25 8.25 0 0 1-2.73-1.818 8.334 8.334 0 0 1-1.798-9.115l.165-.394L43.86 23.999l-.826.94L55.869 37.75c-1.23 3.399-.538 7.34 2.184 10.063h.003v.003c.812.814 1.77 1.371 2.753 1.831l.008 31.504c-.985.462-1.943 1.025-2.753 1.834-3.748 3.746-3.745 9.837.003 13.591 3.746 3.748 9.844 3.749 13.591.003 3.747-3.75 3.746-9.842-.003-13.591-.657-.657-1.413-1.14-2.187-1.566l-.008-30 10.774 10.771c-1.206 3.386-.502 7.302 2.202 10.009 3.752 3.749 9.844 3.75 13.594.003h.003c3.747-3.75 3.743-9.843-.005-13.592-2.574-2.576-6.24-3.328-9.504-2.367L74.007 43.734c.963-3.264.21-6.93-2.365-9.506-2.558-2.56-6.193-3.32-9.444-2.382C57.69 27.548 49.1 18.767 49.1 18.767l-.856.872z" color="#000" font-weight="400" font-family="sans-serif" white-space="normal" overflow="visible" fill-opacity="0" stroke="#000" stroke-width="1.801" stroke-opacity=".142"/><path d="M327.68 267.506l-50.477-50.477a7.544 7.544 0 0 0-10.668 0l-10.216 10.218 13.47 13.47a8.951 8.951 0 0 1 9.213 2.15 8.962 8.962 0 0 1 2.13 9.271l12.984 12.983c3.141-1.083 6.763-.38 9.272 2.132a8.973 8.973 0 1 1-12.691 12.687 8.977 8.977 0 0 1-1.954-9.76l-12.11-12.108.009 31.856a8.975 8.975 0 0 1 2.375 14.39 8.974 8.974 0 0 1-12.69-.003c-3.504-3.51-3.506-9.19-.002-12.692a8.963 8.963 0 0 1 2.94-1.958l-.009-32.153a8.901 8.901 0 0 1-2.94-1.96c-2.655-2.653-3.295-6.55-1.934-9.81l-13.28-13.281-35.05 35.047a7.544 7.544 0 0 0 .004 10.668l50.48 50.477a7.542 7.542 0 0 0 10.665.003l50.48-50.48a7.547 7.547 0 0 0 0-10.67z" fill="url(#f)" stroke-width="1.274" transform="translate(-207.811 -208.189)"/><path style="isolation:auto;mix-blend-mode:normal;marker:none" d="M64.72 38.08a2.945 2.945 0 0 0-2.946 2.947 2.945 2.945 0 0 0 2.946 2.944 2.945 2.945 0 0 0 2.944-2.944 2.945 2.945 0 0 0-2.944-2.946zm24.767 24.5a2.945 2.945 0 0 0-2.947 2.946 2.945 2.945 0 0 0 2.947 2.943 2.945 2.945 0 0 0 2.944-2.943 2.945 2.945 0 0 0-2.944-2.947zM64.452 86.407a2.945 2.945 0 0 0-2.946 2.947 2.945 2.945 0 0 0 2.946 2.943 2.945 2.945 0 0 0 2.944-2.943 2.945 2.945 0 0 0-2.944-2.947z" color="#000" overflow="visible" fill="#fff" fill-opacity=".363" stroke-width="1.074" stroke-opacity=".142"/></svg>