<svg xmlns="http://www.w3.org/2000/svg" xmlns:xlink="http://www.w3.org/1999/xlink" height="128" viewBox="0 0 128 128" width="128"><title>Template icons dark</title><defs><linearGradient id="d"><stop offset="0" stop-color="#4e98d9"/><stop offset="1" stop-color="#ce18ec"/></linearGradient><linearGradient id="c"><stop offset="0" stop-color="#3489d3"/><stop offset="1" stop-color="#dd5ff2"/></linearGradient><linearGradient id="a"><stop offset="0" stop-color="#5a9fdb"/><stop offset="1" stop-color="#e47ff5"/></linearGradient><linearGradient id="b"><stop offset="0" stop-color="#d1d6da"/><stop offset="1" stop-color="#fff"/></linearGradient><linearGradient xlink:href="#a" id="f" gradientUnits="userSpaceOnUse" gradientTransform="scale(2.28993) rotate(45 -67.294 121.998)" x1="76.324" y1="-11.358" x2="40.503" y2="-11.358"/><linearGradient xlink:href="#b" id="e" gradientUnits="userSpaceOnUse" gradientTransform="translate(207.789 203.817) scale(2.75822)" x1="22.978" y1="39.178" x2="22.978" y2="21.425"/></defs><path style="isolation:auto;mix-blend-mode:normal;marker:none" d="M64 2A62.002 62.002 0 0 0 2 64a62.002 62.002 0 0 0 62 62 62.002 62.002 0 0 0 62-62A62.002 62.002 0 0 0 64 2zm0 46.274A15.726 15.726 0 0 1 79.726 64 15.726 15.726 0 0 1 64 79.726 15.726 15.726 0 0 1 48.274 64 15.726 15.726 0 0 1 64 48.274z" color="#000" overflow="visible" fill-opacity=".12" stroke-width="2.696"/><path style="isolation:auto;mix-blend-mode:normal;marker:none" d="M272 211.32c-33.513 0-60.68 27.167-60.68 60.68s27.167 60.68 60.68 60.68 60.68-27.167 60.68-60.68-27.167-60.68-60.68-60.68z" color="#000" overflow="visible" fill="url(#e)" stroke-width="1.379" stroke-opacity=".702" transform="translate(-208 -208)"/><path style="isolation:auto;mix-blend-mode:normal;marker:none" d="M3.337 63.34c-.003.221-.018.439-.018.66 0 33.513 27.168 60.68 60.681 60.68S124.68 97.514 124.68 64c0-.221-.015-.439-.017-.66-.356 33.208-27.371 60.022-60.663 60.022S3.693 96.548 3.337 63.34z" color="#000" overflow="visible" fill="#eaeaea" stroke-width="1.379" stroke-opacity=".702"/><path d="M291.43 252.57l-9.715 9.715h25.908v-25.908l-9.715 9.715c-14.314-14.314-37.502-14.314-51.816 0-5.084 5.085-8.306 11.286-9.78 17.812h9.457a27.151 27.151 0 0 1 6.8-11.335c10.736-10.735 28.126-10.735 38.862 0zm16.258 27.526h-9.457a27.151 27.151 0 0 1-6.8 11.335c-10.736 10.735-28.126 10.735-38.862 0l9.716-9.716h-25.908v25.908l9.715-9.715c14.314 14.314 37.502 14.314 51.816 0 5.084-5.085 8.306-11.286 9.78-17.812z" style="marker:none" fill="url(#f)" stroke-width="3.485" stroke-opacity=".073" transform="translate(-208 -208)"/><path style="marker:none" d="M64 27.358c-9.375 0-18.752 3.576-25.909 10.733-5.084 5.084-8.304 11.288-9.778 17.814h.343c1.595-6.04 4.695-11.755 9.435-16.495 14.314-14.314 37.504-14.314 51.818 0l9.713-9.713v-1.32l-9.713 9.714C82.752 30.934 73.375 27.358 64 27.358zm18.754 17.888l-9.038 9.038h1.319l8.397-8.397c-.222-.22-.451-.429-.678-.641zm7.477 26.85a27.154 27.154 0 0 1-6.8 11.336c-10.513 10.514-27.408 10.722-38.185.641l-.678.678c10.736 10.735 28.128 10.735 38.864 0a27.154 27.154 0 0 0 6.799-11.337h9.113c.116-.439.243-.876.343-1.319zm-61.853 1.62v1.319h24.587l1.32-1.32z" fill-opacity=".276" stroke-width="3.485" stroke-opacity=".073"/><path style="marker:none" d="M64 36.517a27.395 27.395 0 0 0-19.432 8.051 27.154 27.154 0 0 0-6.799 11.337h-9.113c-.116.439-.243.877-.343 1.319h9.456a27.154 27.154 0 0 1 6.8-11.337c10.513-10.514 27.408-10.722 38.185-.641l.678-.678A27.395 27.395 0 0 0 64 36.517zm11.035 17.767l-1.32 1.32h25.907v-1.32zm24.309 19.13c-1.595 6.04-4.695 11.755-9.435 16.495-14.314 14.314-37.504 14.314-51.818 0l-9.713 9.713v1.32l9.713-9.714c14.314 14.314 37.504 14.314 51.818 0 5.084-5.084 8.304-11.288 9.778-17.814zm-46.379 1.621l-8.397 8.397c.222.221.451.429.678.641l9.038-9.038z" fill="#fff" stroke-width="3.485" stroke-opacity=".073"/><path d="M64 9.915C34.13 9.915 9.915 34.13 9.915 64S34.13 118.085 64 118.085 118.085 93.87 118.085 64 93.87 9.915 64 9.915z" style="isolation:auto;mix-blend-mode:normal;marker:none" color="#000" overflow="visible" fill="none" stroke="#000" stroke-width="1.23" stroke-dasharray="1.22979228,3.68937684" stroke-opacity=".13"/><path style="isolation:auto;mix-blend-mode:normal;marker:none" d="M64 5.957C31.944 5.957 5.957 31.944 5.957 64S31.944 122.043 64 122.043 122.043 96.056 122.043 64 96.056 5.957 64 5.957z" color="#000" overflow="visible" fill="none" stroke="#000" stroke-width="1.32" stroke-dasharray="1.32046809,3.96140426" stroke-opacity=".104"/></svg>