<svg xmlns="http://www.w3.org/2000/svg" xmlns:xlink="http://www.w3.org/1999/xlink" height="128" viewBox="0 0 128 128" width="128"><title>Template icons dark</title><defs><linearGradient id="j"><stop offset="0" stop-color="#0292e2"/><stop offset=".556" stop-color="#0283cb"/><stop offset=".59" stop-color="#0297e9"/><stop offset="1" stop-color="#41bafd"/></linearGradient><linearGradient id="c"><stop offset="0" stop-color="#fff" stop-opacity=".307"/><stop offset=".7" stop-color="#fff" stop-opacity=".214"/><stop offset="1" stop-color="#fff" stop-opacity=".188"/><stop offset="1" stop-color="#fff" stop-opacity="0"/></linearGradient><linearGradient id="h"><stop offset="0" stop-color="#fff" stop-opacity=".25"/><stop offset=".7" stop-color="#fff" stop-opacity=".214"/><stop offset="1" stop-color="#fff" stop-opacity=".188"/><stop offset="1" stop-color="#fff" stop-opacity="0"/></linearGradient><linearGradient id="i"><stop offset="0" stop-color="#fff" stop-opacity=".271"/><stop offset=".7" stop-color="#fff" stop-opacity=".214"/><stop offset="1" stop-color="#fff" stop-opacity=".188"/><stop offset="1" stop-color="#fff" stop-opacity="0"/></linearGradient><linearGradient id="f"><stop offset="0" stop-color="#0292e2"/><stop offset="1" stop-color="#029bf0"/></linearGradient><linearGradient id="e"><stop offset="0"/><stop offset="1" stop-opacity=".078"/></linearGradient><linearGradient id="d"><stop offset="0" stop-color="#00628a"/><stop offset=".632" stop-color="#00668f"/><stop offset="1" stop-color="#005172"/></linearGradient><linearGradient id="a"><stop offset="0" stop-color="#fff"/><stop offset=".134" stop-color="#e9f5fa"/><stop offset=".301" stop-color="#dff2fa"/><stop offset=".422" stop-color="#b5e2f4"/><stop offset="1" stop-color="#22affd"/></linearGradient><linearGradient id="b"><stop offset="0" stop-color="#fff" stop-opacity=".313"/><stop offset="1" stop-color="#fff" stop-opacity="0"/></linearGradient><linearGradient id="g"><stop offset="0" stop-color="#fff" stop-opacity=".313"/><stop offset=".7" stop-color="#fff" stop-opacity=".214"/><stop offset="1" stop-color="#fff" stop-opacity=".188"/><stop offset="1" stop-color="#fff" stop-opacity="0"/></linearGradient><linearGradient gradientTransform="translate(53.827 56.553) scale(1.36359)" xlink:href="#e" id="p" x1="161" y1="124" x2="161" y2="126" gradientUnits="userSpaceOnUse"/><linearGradient xlink:href="#a" id="o" x1="23.999" y1="38.449" x2="24" y2="1.669" gradientUnits="userSpaceOnUse" gradientTransform="translate(211.637 215.986) scale(2.51519)"/><linearGradient gradientTransform="matrix(2.84836 0 0 2.84836 203.64 195.532)" xlink:href="#b" id="n" x1="24.75" y1="47.202" x2="24.75" y2="46.372" gradientUnits="userSpaceOnUse"/><linearGradient gradientTransform="matrix(2.84836 0 0 2.84836 203.64 195.532)" xlink:href="#g" id="m" x1="24.03" y1="40.729" x2="24.03" y2="31.155" gradientUnits="userSpaceOnUse"/><linearGradient gradientTransform="translate(53.827 56.553) scale(1.36359)" xlink:href="#d" id="l" x1="165" y1="115" x2="165" y2="119.646" gradientUnits="userSpaceOnUse"/><linearGradient gradientTransform="translate(53.827 56.553) scale(1.36359)" xlink:href="#f" id="k" x1="132.78" y1="129" x2="197" y2="194" gradientUnits="userSpaceOnUse"/></defs><g transform="translate(-208 -208)"><path d="M330 220v64l2.031 43c.13 2.724-3.304 5-6.031 5H217c-2.727 0-5.13-3.276-5-6l2-42v-64l12-5 3-3h86.024l2.976 3z" fill="#030303" fill-opacity=".13" stroke-width=".724" stroke-opacity=".196"/><path d="M329 220v64l2 43c.104 2.244-2.754 4-5 4H217c-2.246 0-4.107-2.756-4-5l2-42v-64z" fill="url(#k)" stroke-width=".727" stroke-opacity=".196"/><path d="M229 213h86l3 2.953L329 220H215l11-4z" fill="url(#l)" stroke-width=".72" stroke-opacity=".196"/><path d="M329 220v64l2 43c.104 2.244-2.754 4-5 4H217c-2.246 0-4.107-2.756-4-5l2-42v-64z" fill="url(#m)" stroke-width=".727" stroke-opacity=".196"/><path d="M330.307 316.998L331 327c.155 2.241-2.754 4-5 4H217c-2.246 0-4.17-2.76-4-5l.403-9z" fill="url(#n)" stroke-width=".727" stroke-opacity=".196"/><path d="M260 221v64h-21l33 29 33-29h-21v-64z" fill-opacity=".307" stroke-width="1.761" stroke-linecap="round" stroke-opacity=".771"/><path d="M260 220v64h-21l33 29 33-29h-21v-64z" fill="url(#o)" stroke-width="1.761" stroke-linecap="round" stroke-opacity=".771"/><path d="M249.433 225.87a5.133 5.133 0 1 0 .002 10.266 5.133 5.133 0 0 0-.002-10.266zm44.959 0a5.133 5.133 0 1 0-.004 10.266 5.133 5.133 0 0 0 .004-10.266z" fill="#2d2615" fill-opacity=".464" stroke="url(#p)" stroke-width=".818"/><path d="M247.314 235.247s2.602 25.562 25.408 25.562c22.908 0 23.438-24.93 23.438-24.93-1.612-1.52-2.798-1.371-4.175-.506 0 0-2.172 21.133-19.263 21.133-17.871 0-20.726-21.006-20.726-21.006-1.335-2.162-3.62-1.7-4.682-.253z" fill-opacity=".198" fill-rule="evenodd" stroke-width="1.129" stroke-linecap="round" stroke-opacity=".333"/><path d="M247.314 231.156s2.602 25.562 25.408 25.562c22.908 0 23.438-24.93 23.438-24.93-1.612-1.52-2.798-1.371-4.175-.505 0 0-2.172 21.133-19.263 21.133-17.871 0-20.726-21.007-20.726-21.007-1.335-2.162-3.62-1.7-4.682-.253z" fill="#fffffc" fill-rule="evenodd" stroke="#000" stroke-width="1.129" stroke-linecap="round" stroke-opacity=".333"/><path d="M293.204 231.385l-.65.618 1.731 3.904.647-.617zm-44.298 4.325l-.379 1.012 4.456 1.657.376-1.012zm42.127 4.437l-1.057.213.937 4.658 1.058-.21zm-38.199 4.485l-.083 1.074 4.738.37.083-1.076zm32.15 3.257l-.913 4.664 1.06.208.911-4.664zm-19.382 3.393l-4.632 1.06.24 1.052 4.634-1.06zm10.94 1.37l-3.96 2.628.6.9 3.957-2.628z" opacity=".57" fill="#7c6555" fill-opacity=".974" stroke-width="1.693" stroke-linecap="round" stroke-opacity=".729"/><path style="line-height:normal;font-variant-ligatures:normal;font-variant-position:normal;font-variant-caps:normal;font-variant-numeric:normal;font-variant-alternates:normal;font-feature-settings:normal;text-indent:0;text-align:start;text-decoration-line:none;text-decoration-style:solid;text-decoration-color:#000;text-transform:none;text-orientation:mixed;shape-padding:0;isolation:auto;mix-blend-mode:normal" d="M229 213l-3 3-11 4h114l-11-4.047-3-2.953zm0 1h86l2 2 11 4H217l10-4z" color="#000" font-weight="400" font-family="sans-serif" white-space="normal" overflow="visible" fill="#92e3fa" fill-opacity=".13" stroke-width="1.364"/><rect style="isolation:auto;mix-blend-mode:normal;marker:none" width="114" height="1" x="215" y="220" ry="0" color="#000" overflow="visible" fill="#fff" fill-opacity=".182" stroke-width="1.767"/></g></svg>