<svg xmlns="http://www.w3.org/2000/svg" xmlns:xlink="http://www.w3.org/1999/xlink" height="128" viewBox="0 0 128 128" width="128"><title>Template icons dark</title><defs><linearGradient id="l"><stop offset="0" stop-color="#5d6687"/><stop offset="1" stop-color="#e6e6e6"/></linearGradient><linearGradient id="k"><stop offset="0" stop-opacity=".286"/><stop offset="1" stop-opacity=".083"/></linearGradient><linearGradient id="a"><stop offset="0" stop-color="#fff" stop-opacity=".161"/><stop offset="1" stop-color="#fff" stop-opacity=".708"/></linearGradient><linearGradient id="b"><stop offset="0" stop-color="#4b4b4b"/><stop offset=".125" stop-color="#fff"/><stop offset=".306" stop-color="#747474"/><stop offset=".47" stop-color="#fff"/><stop offset=".539" stop-color="#fff"/><stop offset=".731" stop-color="#646464"/><stop offset=".931" stop-color="#fff"/><stop offset="1" stop-color="#505050"/></linearGradient><linearGradient id="c"><stop offset="0" stop-color="#fcfcfc"/><stop offset=".512" stop-color="#7c7c7c"/><stop offset=".904" stop-color="#fcfcfc"/><stop offset="1" stop-color="#b5b5b5"/></linearGradient><linearGradient id="d"><stop offset="0" stop-opacity="0"/><stop offset="1" stop-color="#919191" stop-opacity=".502"/></linearGradient><linearGradient id="e"><stop offset="0" stop-color="#15b5ff"/><stop offset="1" stop-color="#1385ff"/></linearGradient><linearGradient id="f"><stop offset="0" stop-color="#42ec81"/><stop offset="1" stop-color="#3add5c"/></linearGradient><linearGradient id="g"><stop offset="0" stop-color="#ff8300"/><stop offset="1" stop-color="#ff5b00"/></linearGradient><linearGradient id="h"><stop offset="0" stop-color="#f72424" stop-opacity=".066"/><stop offset="1" stop-color="#f72424" stop-opacity=".118"/></linearGradient><linearGradient id="i"><stop offset="0" stop-color="#6a7395"/><stop offset="1" stop-color="#d3d3d3"/></linearGradient><linearGradient id="j"><stop offset="0" stop-color="#b1b1b1"/><stop offset="1" stop-color="#7d809b"/></linearGradient><linearGradient xlink:href="#c" id="q" x1="11.592" y1="14.007" x2="28.333" y2="31.765" gradientUnits="userSpaceOnUse" gradientTransform="translate(185.851 171.074) scale(3.74205)"/><linearGradient xlink:href="#d" id="r" x1="8.57" y1="18.196" x2="28.333" y2="31.765" gradientUnits="userSpaceOnUse" gradientTransform="translate(185.851 171.074) scale(3.74205)"/><linearGradient xlink:href="#a" id="p" x1="20.54" y1="20.256" x2="17.967" y2="15.009" gradientUnits="userSpaceOnUse" gradientTransform="translate(185.851 171.074) scale(3.74205)"/><linearGradient gradientTransform="matrix(1.86003 0 0 1.86003 215.113 214.29)" xlink:href="#k" id="o" x1="24.468" y1="33.879" x2="24.468" y2="12.544" gradientUnits="userSpaceOnUse"/><linearGradient xlink:href="#i" id="m" gradientUnits="userSpaceOnUse" x1="23.844" y1="46.356" x2="23.844" y2="2.313" gradientTransform="matrix(1.98712 0 0 1.98712 212.063 211.24)"/><linearGradient xlink:href="#j" id="n" gradientUnits="userSpaceOnUse" x1="26.05" y1="46.063" x2="26.05" y2="1.813" gradientTransform="matrix(1.98712 0 0 1.98712 212.063 211.24)"/><linearGradient xlink:href="#b" id="s" gradientUnits="userSpaceOnUse" gradientTransform="matrix(.5671 .56157 -1.11238 1.14519 196.997 109.169)" x1="45.878" y1="34.792" x2="45.869" y2="42.694"/><linearGradient xlink:href="#b" id="t" gradientUnits="userSpaceOnUse" gradientTransform="matrix(.7981 0 0 1.5965 225.755 -64.719)" x1="45.878" y1="34.792" x2="46.015" y2="47.577"/></defs><path style="isolation:auto;mix-blend-mode:normal;marker:none" d="M95.15 51.045a44.348 44.348 0 0 1-44.348 44.348A44.348 44.348 0 0 1 6.454 51.045 44.348 44.348 0 0 1 50.802 6.697 44.348 44.348 0 0 1 95.15 51.045z" color="#000" display="block" overflow="visible" fill-opacity=".813" stroke-width=".652" stroke-opacity=".391" paint-order="fill markers stroke"/><path d="M254.393 215.215c-.742 0-1.157.586-1.341 1.266l-2.848 10.475.068.014a33.641 33.641 0 0 0-6.287 2.547l-9.426-5.425c-.61-.35-1.318-.472-1.843.053l-7.665 7.665c-.525.525-.402 1.225-.052 1.836l5.297 9.26a33.641 33.641 0 0 0-2.757 6.444l-10.236 2.758c-.68.183-1.266.599-1.266 1.341v10.842c0 .742.587 1.15 1.266 1.334l10.01 2.727a33.641 33.641 0 0 0 2.766 6.796l-5.163 8.977c-.351.61-.472 1.318.053 1.843l7.665 7.665c.524.525 1.224.402 1.835.052l8.857-5.072a33.641 33.641 0 0 0 6.946 2.9l2.66 9.867c.183.68.599 1.267 1.34 1.267h10.843c.742 0 1.149-.587 1.334-1.267l2.69-9.875a33.641 33.641 0 0 0 6.855-2.885l8.954 5.148c.61.351 1.319.472 1.844-.053l7.665-7.665c.524-.524.402-1.232.052-1.843l-5.192-9.059a33.641 33.641 0 0 0 2.682-6.646l10.205-2.757c.68-.183 1.267-.592 1.267-1.334V253.57c0-.742-.587-1.156-1.267-1.341l-10.377-2.817a33.641 33.641 0 0 0-2.645-6.28l5.41-9.395c.35-.61.472-1.319-.053-1.844l-7.665-7.665c-.525-.524-1.232-.402-1.843-.052l-9.419 5.395.053.075a33.641 33.641 0 0 0-6.272-2.6l.03-.007-2.855-10.558c-.183-.68-.591-1.266-1.333-1.266h-10.842zm5.365 35.92a7.793 7.793 0 0 1 7.792 7.793 7.793 7.793 0 0 1-7.792 7.792 7.793 7.793 0 0 1-7.793-7.792 7.793 7.793 0 0 1 7.793-7.793z" style="isolation:auto;mix-blend-mode:normal;marker:none" color="#000" overflow="visible" opacity=".569" fill="url(#m)" stroke="url(#n)" stroke-width="1.391" stroke-linecap="round" paint-order="stroke fill markers" transform="translate(-208 -208)"/><path style="line-height:normal;text-indent:0;text-align:start;text-decoration-line:none;text-decoration-style:solid;text-decoration-color:#000;text-transform:none;isolation:auto;mix-blend-mode:normal;marker:none" d="M259.757 238.82c-11.066 0-20.115 9.04-20.115 20.107 0 11.066 9.05 20.115 20.115 20.115 11.067 0 20.108-9.049 20.108-20.115 0-11.066-9.041-20.108-20.108-20.108zm0 7.181a12.867 12.867 0 0 1 12.926 12.926 12.873 12.873 0 0 1-12.926 12.933 12.88 12.88 0 0 1-12.933-12.933 12.873 12.873 0 0 1 12.933-12.926z" color="#000" font-weight="400" font-family="sans-serif" white-space="normal" overflow="visible" opacity=".569" fill="url(#o)" stroke="#000" stroke-width=".652" stroke-linecap="round" stroke-opacity=".391" paint-order="stroke fill markers" transform="translate(-208 -208)"/><path style="line-height:normal;text-indent:0;text-align:start;text-decoration-line:none;text-decoration-style:solid;text-decoration-color:#000;text-transform:none;isolation:auto;mix-blend-mode:normal;marker:none" d="M51.757 30.82c-11.066 0-20.116 9.041-20.116 20.108 0 .22.026.433.034.652.35-10.765 9.236-19.456 20.082-19.456s19.725 8.691 20.075 19.456c.007-.219.033-.432.033-.652 0-11.067-9.042-20.108-20.108-20.108zM38.859 51.58c-.01.217-.033.432-.033.652a12.877 12.877 0 0 0 12.931 12.931 12.872 12.872 0 0 0 12.926-12.931c0-.22-.022-.435-.033-.652-.337 6.875-5.928 12.279-12.893 12.279a12.861 12.861 0 0 1-12.898-12.28z" color="#000" font-weight="400" font-family="sans-serif" white-space="normal" overflow="visible" opacity=".569" fill-opacity=".401" stroke-width=".652" stroke-linecap="round" stroke-opacity=".391" paint-order="stroke fill markers"/><path d="M51.757 72.583c-11.066 0-20.116-9.042-20.116-20.108 0-.22.026-.434.034-.652.35 10.765 9.236 19.456 20.082 19.456s19.725-8.691 20.075-19.456c.007.218.033.432.033.652 0 11.066-9.042 20.108-20.108 20.108zm-12.898-20.76c-.01-.218-.033-.432-.033-.652a12.877 12.877 0 0 1 12.931-12.932 12.872 12.872 0 0 1 12.926 12.932c0 .22-.022.434-.033.652-.337-6.875-5.928-12.28-12.893-12.28a12.861 12.861 0 0 0-12.898 12.28z" style="line-height:normal;text-indent:0;text-align:start;text-decoration-line:none;text-decoration-style:solid;text-decoration-color:#000;text-transform:none;isolation:auto;mix-blend-mode:normal;marker:none" color="#000" font-weight="400" font-family="sans-serif" white-space="normal" overflow="visible" opacity=".569" fill="#fff" fill-opacity=".427" stroke-width=".652" stroke-linecap="round" stroke-opacity=".391" paint-order="stroke fill markers"/><path d="M52.843 7.002c-23.061 0-44.715 20.778-44.715 43.839s21.14 43.858 44.2 43.858c23.062 0 43.515-20.454 43.515-43.515s-19.938-44.182-43-44.182zm-.514 3.212c20.32 0 36.68 17.732 36.68 38.053 0 20.322-16.36 36.681-36.68 36.681-20.322 0-36.682-16.36-36.682-36.68 0-20.322 16.36-38.054 36.682-38.054z" fill="#050505" fill-opacity=".276" stroke-width=".748"/><path d="M260.75 224.69c-2.401-.093-4.809.12-7.153.698-23.318 5.737-31.51 26.516-24.45 34.145 5.754 6.218 11.05-5.685 27.233-9.577 16.184-3.891 25.138 7.773 30.151 1.083 7.564-10.093-8.967-25.697-25.78-26.348zm27.545 33.277c-2.375-.206-4.876 1.648-5.834 4.343-1.095 3.081.068 6.582 2.703 7.518 2.634.936 5.741-1.048 6.836-4.129 1.095-3.08-.068-6.576-2.702-7.512a4.023 4.023 0 0 0-1.003-.22z" fill="url(#p)" stroke-width="2.208" stroke-miterlimit="0" stroke-opacity=".192" transform="translate(-208 -208)"/><path d="M259.754 211.985c-26.008 0-46.946 20.937-46.946 46.945s20.938 46.946 46.946 46.946S306.7 284.938 306.7 258.93s-20.938-46.945-46.946-46.945zm0 3.642c23.99 0 43.303 19.314 43.303 43.303 0 23.99-19.313 43.304-43.303 43.304s-43.304-19.313-43.304-43.304c0-23.99 19.314-43.303 43.304-43.303z" fill="url(#q)" stroke="url(#r)" stroke-width=".549" transform="translate(-208 -208)"/><g stroke-width="1.693" stroke-miterlimit="0"><path d="M180.51 170.87l5.744 5.435-9.088 9.234-5.558-5.503z" fill="url(#s)" stroke-opacity=".192" transform="matrix(1.30435 0 0 1.30435 -144.851 -144.608)"/><path d="M258.257-9.374h22.38c1.012 0 1.826.815 1.826 1.827V8.935a1.823 1.823 0 0 1-1.826 1.826h-22.38a1.823 1.823 0 0 1-1.827-1.826V-7.547c0-1.012.815-1.827 1.827-1.827z" transform="matrix(.92683 .91778 -.90882 .93562 -144.851 -144.608)" fill="url(#t)" stroke-opacity=".192"/><path d="M120.767 101.265l3.154 3.09c.647.634.806 2.236.014 3.052l-15.34 15.784c-.638.657-2.22.685-2.956-.043l-3.336-3.294c7.885-7.479 13.595-12.744 18.464-18.59z" fill-opacity=".427"/><path d="M101.74 82.376l2.84 2.763c-7.47 6.205-11.854 10.607-18.355 18.77l-2.718-2.673c-.175-.172-.263-.763-.117-.911l17.771-17.989c.146-.148.404-.131.58.04z" fill-opacity=".494"/></g></svg>