<svg xmlns="http://www.w3.org/2000/svg" xmlns:xlink="http://www.w3.org/1999/xlink" height="128" viewBox="0 0 128 128" width="128"><title>Template icons dark</title><defs><linearGradient id="d"><stop offset="0" stop-color="#e7747f"/><stop offset=".151" stop-color="#8c2f37"/><stop offset=".491" stop-color="#882d2d"/><stop offset=".873" stop-color="#cf5763"/><stop offset="1" stop-color="#f83044"/></linearGradient><linearGradient id="g"><stop offset="0" stop-color="#fff" stop-opacity=".115"/><stop offset=".555" stop-color="#fff" stop-opacity=".681"/><stop offset="1" stop-color="#fff" stop-opacity="0"/></linearGradient><linearGradient id="h"><stop offset="0" stop-color="#fff" stop-opacity=".073"/><stop offset=".555" stop-color="#fff" stop-opacity=".681"/><stop offset="1" stop-color="#fff" stop-opacity=".068"/></linearGradient><linearGradient id="f"><stop offset="0" stop-color="#463f54"/><stop offset=".192" stop-color="#413a4f"/><stop offset=".345" stop-color="#615876"/><stop offset=".499" stop-color="#3e384c"/><stop offset="1" stop-color="#343142"/></linearGradient><linearGradient id="e"><stop offset="0" stop-color="#b3b3b3"/><stop offset=".246" stop-color="#828282"/><stop offset=".543" stop-color="silver"/><stop offset=".824" stop-color="#fff"/><stop offset="1" stop-color="#8e8e8e"/></linearGradient><linearGradient id="c"><stop offset="0" stop-color="#fafafa"/><stop offset=".178" stop-color="#efe1f2"/><stop offset=".226" stop-color="#d5d6d8"/><stop offset=".705" stop-color="#7d8089"/><stop offset=".745" stop-color="#a6d6c0"/><stop offset=".796" stop-color="#657060"/><stop offset=".871" stop-color="#b3b2b7"/><stop offset=".961" stop-color="#fff"/><stop offset="1" stop-color="#cbcace"/></linearGradient><linearGradient id="b"><stop offset="0" stop-color="#4d4e55"/><stop offset="1" stop-color="#717171"/></linearGradient><linearGradient id="a"><stop offset="0" stop-color="#c2bac6"/><stop offset="1" stop-color="#fff"/></linearGradient><linearGradient xlink:href="#c" id="p" x1="159.898" y1="180" x2="159.898" y2="124" gradientUnits="userSpaceOnUse" gradientTransform="matrix(1.5869 0 0 1.5869 17.82 14.421)"/><linearGradient xlink:href="#d" id="o" x1="161" y1="133.852" x2="161" y2="126" gradientUnits="userSpaceOnUse" gradientTransform="matrix(1.5869 0 0 1.5869 17.82 14.421)"/><linearGradient xlink:href="#f" id="n" x1="160.063" y1="188" x2="160.063" y2="161.929" gradientUnits="userSpaceOnUse" gradientTransform="translate(58.578 49.367) scale(1.33333)"/><linearGradient xlink:href="#e" id="m" x1="161" y1="132.669" x2="161" y2="126.984" gradientUnits="userSpaceOnUse" gradientTransform="matrix(1.5869 0 0 1.5869 17.82 14.421)"/><linearGradient xlink:href="#a" id="l" x1="160.063" y1="194.079" x2="160.063" y2="148.724" gradientUnits="userSpaceOnUse" gradientTransform="matrix(1.5869 0 0 1.5869 17.82 11.248)"/><linearGradient gradientTransform="translate(58.578 56.034) scale(1.33333)" xlink:href="#g" id="k" x1="131" y1="202.811" x2="116.008" y2="189" gradientUnits="userSpaceOnUse"/><linearGradient gradientTransform="translate(58.578 56.034) scale(1.33333)" xlink:href="#h" id="j" gradientUnits="userSpaceOnUse" x1="204.717" y1="191" x2="190" y2="204"/><linearGradient xlink:href="#b" id="i" gradientUnits="userSpaceOnUse" x1="160.063" y1="194.079" x2="160.063" y2="148.724" gradientTransform="matrix(1.69648 0 0 1.69648 .269 -.822)"/></defs><g transform="translate(-208 -208)"><path style="isolation:auto;mix-blend-mode:normal;marker:none" d="M237.174 244.228h69.597c5.262 0 8.068 4.475 9.498 9.582l18.45 65.905c1.997 7.132-6.021 13.673-13.475 13.651l-98.565-.29c-7.453-.022-15.45-6.228-13.454-13.361l18.451-65.905c1.43-5.108 4.236-9.582 9.498-9.582z" color="#000" display="block" overflow="visible" fill-opacity=".131" stroke-width=".848" stroke-opacity="0"/><path d="M236.867 244.228h70.21c5.308 0 8.3 4.431 9.582 9.582l16.12 64.733c1.745 7.009-5.645 13.49-12.868 13.49h-96c-7.223 0-14.49-6.481-12.745-13.49l16.12-64.733c1.283-5.15 4.273-9.581 9.581-9.581z" style="isolation:auto;mix-blend-mode:normal;marker:none" color="#000" overflow="visible" fill="url(#i)" stroke-width=".848" stroke-opacity="0"/><path d="M236.867 244.228h70.21c5.308 0 8.247 4.444 9.582 9.582l16.12 62.066c1.815 6.991-5.645 13.49-12.868 13.49h-96c-7.223 0-14.56-6.499-12.745-13.49l16.12-62.066c1.334-5.138 4.273-9.582 9.581-9.582z" style="isolation:auto;mix-blend-mode:normal;marker:none" color="#000" display="block" overflow="visible" fill="url(#j)" stroke-width=".848" stroke-opacity="0"/><path style="isolation:auto;mix-blend-mode:normal;marker:none" d="M236.867 244.228h70.21c5.308 0 8.241 4.446 9.582 9.582l16.585 63.556c1.824 6.99-6.11 12-13.333 12h-96c-7.223 0-14.56-6.499-12.745-13.49l16.12-62.066c1.334-5.138 4.273-9.582 9.581-9.582z" color="#000" display="block" overflow="visible" fill="url(#k)" stroke-width=".848" stroke-opacity="0"/><path style="isolation:auto;mix-blend-mode:normal;marker:none" d="M239.911 242.7h64c4.965 0 8.613 4.42 9.861 9.226l15.079 58.057c1.698 6.54-5.44 12.196-12.196 12.196H227.29c-6.756 0-13.893-5.656-12.195-12.196l15.079-58.057c1.248-4.806 4.773-9.226 9.738-9.226z" color="#000" display="block" overflow="visible" fill="url(#l)" stroke-width=".793" stroke-opacity="0"/><path style="isolation:auto;mix-blend-mode:normal;marker:none" d="M234.578 216.033h74.666c2.667 0 2.667 9.334 0 9.334h-74.666c-2.667 0-2.667-9.334 0-9.334z" color="#000" display="block" overflow="visible" fill="url(#m)" stroke-width=".535" stroke-opacity="0"/><path d="M289.244 270.7h-6.666l5.333 18.666h15.706l-31.622 18.772-31.496-18.772h15.412l5.333-18.666h-6.666l17.333-8z" style="isolation:auto;mix-blend-mode:normal;marker:none" color="#000" display="block" overflow="visible" fill="url(#n)" stroke-width=".28" stroke-opacity="0"/><path d="M289.244 270.7h2.667l-9.333-5.333 1.383 2.894z" fill="#a89cac" fill-opacity=".974" fill-rule="evenodd" stroke-width="1.333"/><path style="isolation:auto;mix-blend-mode:normal;marker:none" d="M249.244 214.7l44.028.018c2.639.001 9.396.072 10.639 1.315 1.35 1.35 1.231 8.102 0 9.334-1.288 1.288-8 1.333-10.667 1.333h-44c-2.666 0-8 0-9.333-1.333-1.333-1.334-1.333-8 0-9.334 1.243-1.243 6.667-1.333 9.333-1.333z" color="#000" display="block" overflow="visible" fill="url(#o)" stroke-width=".535" stroke-opacity="0"/><path d="M254.578 270.7h-2.667l9.333-5.333-1.383 2.894z" fill="#a89cac" fill-opacity=".974" fill-rule="evenodd" stroke-width="1.333"/><path style="isolation:auto;mix-blend-mode:normal;marker:none" d="M257.244 210.7c-1.56 0-4.564 2.083-4.564 5.257v11.108c0 4.159 6.347 5.045 6.347 8.97l.884 47.998h24l.507-47.998c.041-3.925 6.347-4.811 6.347-8.97v-11.108c0-3.174-2.6-5.257-4.187-5.257z" color="#000" display="block" overflow="visible" fill="url(#p)" stroke-width=".523" stroke-opacity="0"/><path style="line-height:1000%;-inkscape-font-specification:'Serto Kharput'" d="M265.244 242.7h13.334v2.667h-5.334v9.333h-2.666v-9.333h-5.334z" font-weight="400" font-family="Serto Kharput" letter-spacing="0" word-spacing="0" fill="#282828" stroke-width="1.333"/><path style="isolation:auto;mix-blend-mode:normal;marker:none" d="M214.979 310.632c-1.081 6.259 5.131 12.068 11.662 12.068h89.27c6.53 0 14.136-5.81 13.055-12.068-.913 5.024-7.478 9.401-13.055 9.401h-89.27c-5.577 0-10.75-4.377-11.662-9.4z" color="#000" display="block" overflow="visible" fill="#fefdff" stroke-width=".793" stroke-opacity="0"/><path style="line-height:normal;font-variant-ligatures:normal;font-variant-position:normal;font-variant-caps:normal;font-variant-numeric:normal;font-variant-alternates:normal;font-feature-settings:normal;text-indent:0;text-align:start;text-decoration-line:none;text-decoration-style:solid;text-decoration-color:#000;text-transform:none;text-orientation:mixed;shape-padding:0;isolation:auto;mix-blend-mode:normal;marker:none" d="M259.911 210.7c-.366 0-.618.219-1.055.534-.436.315-.889.762-1.302 1.31-.825 1.095-1.492 2.59-1.492 4.195v10.982c0 2.111 1.339 3.398 2.636 4.617 1.296 1.219 2.549 2.367 2.541 4.247v47.435h20.966v-47.432c0-1.88 1.253-3.033 2.547-4.252 1.295-1.219 2.63-2.505 2.63-4.615V216.74c0-1.605-.658-3.096-1.481-4.192a6.254 6.254 0 0 0-1.302-1.313c-.438-.315-.862-.502-1.232-.502zm0 0l23.456.031c.276 0 .664.42 1.075.716.412.297.848.73 1.245 1.258.794 1.058 1.43 2.502 1.43 4.034v10.982c0 1.999-1.254 3.204-2.547 4.422-1.293 1.217-2.628 2.446-2.628 4.445v47.431h-20.437v-47.431c.008-1.999-1.33-3.228-2.625-4.445-1.295-1.218-2.552-2.422-2.552-4.422v-10.982c0-1.532.64-2.976 1.437-4.034a6.078 6.078 0 0 1 1.248-1.258c.41-.296.628-.747.898-.747z" color="#000" font-weight="400" font-family="sans-serif" white-space="normal" overflow="visible" fill="#44464f" stroke-width=".265"/><path style="line-height:normal;font-variant-ligatures:normal;font-variant-position:normal;font-variant-caps:normal;font-variant-numeric:normal;font-variant-alternates:normal;font-feature-settings:normal;text-indent:0;text-align:start;text-decoration-line:none;text-decoration-style:solid;text-decoration-color:#000;text-transform:none;text-orientation:mixed;shape-padding:0;isolation:auto;mix-blend-mode:normal;marker:none" d="M263.911 210.7c-.289 0-.838.231-1.143.55-.305.318-.62.767-.906 1.315a9.228 9.228 0 0 0-1.029 4.174v10.982c0 2.093.926 3.38 1.826 4.599.9 1.219 1.77 2.367 1.76 4.265v47.435h14.607v-47.432c0-1.899.87-3.052 1.768-4.27.897-1.22 1.818-2.504 1.818-4.597V216.74c0-1.593-.454-3.079-1.024-4.174-.285-.548-.597-.997-.904-1.315-.306-.318-.481-.55-.773-.55zm0 0h16c.157 0 .301.438.583.732.283.293.584.726.86 1.255.55 1.059.995 2.51.995 4.052v10.982c0 2.016-.873 3.223-1.769 4.44-.896 1.217-1.817 2.446-1.817 4.427v47.431h-14.078v-47.431c.01-1.98-.914-3.21-1.813-4.427-.899-1.217-1.773-2.424-1.773-4.44v-10.982c0-1.543.444-2.993.997-4.052.276-.53.58-.962.862-1.255.282-.294.801-.732.953-.732z" color="#000" font-weight="400" font-family="sans-serif" white-space="normal" overflow="visible" fill="#44464f" stroke-width=".265"/><path d="M235.911 216.033h1.333c-1.333 1.334-1.333 8 0 9.334h-1.333c-2.666 0-2.666-9.334 0-9.334zM307.703 216.033h-1.333c1.333 1.334 1.333 8 0 9.334h1.333c2.667 0 2.667-9.334 0-9.334z" style="isolation:auto;mix-blend-mode:normal;marker:none" color="#000" display="block" overflow="visible" fill-opacity=".288" stroke-width=".535" stroke-opacity="0"/><path d="M258.578 278.7l-1.164 5.333-1.503 5.333H240.5c.159 0 4.53 2.701 4.53 2.701l10.881-.034zm26.015 0l3.318 13.333 11.188.016s4.359-2.683 4.518-2.683H287.91l-1.503-5.333z" fill="#bab1bd" fill-opacity=".974" fill-rule="evenodd" stroke-width="1.333"/><path d="M245.03 292.067c.214-.034 26.881 11.966 26.881 11.966L299.1 292.05l-27.104 15.984z" fill-opacity=".183" fill-rule="evenodd" stroke-width="1.333"/><path d="M214.856 312.007c-1.081 6.258 5.254 12.026 11.785 12.026h89.27c6.53 0 14.415-5.741 13.333-12-1.333 6.667-7.756 10.667-13.333 10.667h-89.27c-5.577 0-11.908-4.685-11.785-10.693z" style="isolation:auto;mix-blend-mode:normal;marker:none" color="#000" display="block" overflow="visible" fill-opacity=".199" stroke-width=".793" stroke-opacity="0"/><circle style="isolation:auto;mix-blend-mode:normal;marker:none" cx="271.87" cy="247.227" r=".758" color="#000" display="block" overflow="visible" fill="#4dfb84" fill-opacity=".979" stroke="#4dfb84" stroke-width="2.064" stroke-opacity=".387"/><circle r=".758" cy="244.13" cx="271.911" style="isolation:auto;mix-blend-mode:normal;marker:none" color="#000" display="block" overflow="visible" fill="#4dfb84" fill-opacity=".979" stroke="#4dfb84" stroke-width="2.064" stroke-opacity=".387"/><circle r=".758" cy="249.914" cx="271.911" style="isolation:auto;mix-blend-mode:normal;marker:none" color="#000" display="block" overflow="visible" fill="#4dfb84" fill-opacity=".979" stroke="#4dfb84" stroke-width="2.064" stroke-opacity=".387"/><circle style="isolation:auto;mix-blend-mode:normal;marker:none" cx="271.911" cy="252.602" r=".758" color="#000" display="block" overflow="visible" fill="#4dfb84" fill-opacity=".979" stroke="#4dfb84" stroke-width="2.064" stroke-opacity=".387"/><circle style="isolation:auto;mix-blend-mode:normal;marker:none" cx="268.555" cy="244.13" r=".758" color="#000" display="block" overflow="visible" fill="#4dfb84" fill-opacity=".979" stroke="#4dfb84" stroke-width="2.064" stroke-opacity=".387"/><circle r=".758" cy="244.13" cx="275.554" style="isolation:auto;mix-blend-mode:normal;marker:none" color="#000" display="block" overflow="visible" fill="#4dfb84" fill-opacity=".979" stroke="#4dfb84" stroke-width="2.064" stroke-opacity=".387"/></g></svg>