<svg xmlns="http://www.w3.org/2000/svg" xmlns:xlink="http://www.w3.org/1999/xlink" height="128" viewBox="0 0 128 128" width="128"><title>Template icons dark</title><defs><linearGradient id="d"><stop offset="0" stop-color="#fff" stop-opacity=".802"/><stop offset=".502" stop-color="#fff" stop-opacity=".945"/><stop offset="1" stop-color="#fff" stop-opacity=".692"/></linearGradient><linearGradient id="c"><stop offset="0" stop-color="#fff" stop-opacity=".632"/><stop offset=".448" stop-color="#fff" stop-opacity=".94"/><stop offset="1" stop-color="#fff" stop-opacity=".61"/></linearGradient><linearGradient id="b"><stop offset="0" stop-color="#d1d1d1"/><stop offset="1" stop-color="#fff" stop-opacity=".989"/></linearGradient><linearGradient id="a"><stop offset="0" stop-color="#0086f7"/><stop offset="1" stop-color="#60cdff"/></linearGradient><linearGradient xlink:href="#a" id="e" x1="25" y1="45.7" x2="25" y2="8.075" gradientUnits="userSpaceOnUse" gradientTransform="matrix(2.93333 0 0 2.93333 201.6 192.213)"/><linearGradient gradientTransform="matrix(1.33933 0 0 1.33933 57.707 57.707)" xlink:href="#d" id="g" x1="173.291" y1="203.528" x2="136" y2="117.102" gradientUnits="userSpaceOnUse"/><linearGradient gradientTransform="matrix(1.33933 0 0 1.33933 57.707 57.707)" xlink:href="#b" id="f" x1="157.89" y1="194.158" x2="157.89" y2="132" gradientUnits="userSpaceOnUse"/></defs><path d="M9.625 4h108.75A5.613 5.613 0 0 1 124 9.625v108.75a5.613 5.613 0 0 1-5.625 5.625H9.625C6.509 124 4 122.116 4 119V9.625A5.613 5.613 0 0 1 9.625 4z" fill-opacity=".078" stroke-width="2.46" stroke-linejoin="round" stroke-opacity=".131"/><path d="M219 213h106c3.047 0 6 2.953 6 6v106c0 3.047-2.953 6-6 6H219c-3.047 0-6-2.953-6-6V219c0-3.047 2.953-6 6-6z" fill="url(#e)" stroke-width="2.405" stroke-linejoin="round" stroke-opacity=".131" transform="translate(-208 -208)"/><path d="M5 115.667V117c0 3.047 2.953 6 6 6h106c3.047 0 6-2.953 6-6v-1.333c0 3.047-2.953 6.333-6 6.333H11c-3.047 0-6-3.286-6-6.333z" fill="#fff" fill-opacity=".219" stroke-width="2.405" stroke-linejoin="round" stroke-opacity=".131"/><path d="M10.849 55.578h19.225l11.309 42.974 15.832-62.199 13.57 44.105 12.44-44.105 12.44 44.105h21.487" fill="none" fill-rule="evenodd" stroke="#000" stroke-width="6.785" stroke-opacity=".275"/><path d="M218.849 259.56h19.225l11.308 42.974 15.833-62.199 13.57 44.105 12.44-44.105 12.44 44.105h21.486" fill="none" fill-rule="evenodd" stroke="url(#f)" stroke-width="6.785" transform="translate(-208 -208)"/><path style="line-height:normal;font-variant-ligatures:normal;font-variant-position:normal;font-variant-caps:normal;font-variant-numeric:normal;font-variant-alternates:normal;font-feature-settings:normal;text-indent:0;text-align:start;text-decoration-line:none;text-decoration-style:solid;text-decoration-color:#000;text-transform:none;text-orientation:mixed;shape-padding:0;isolation:auto;mix-blend-mode:normal" d="M218.427 213.07c-2.832 0-5.358 2.496-5.358 5.357v107.146c0 3.51 3.333 5.358 5.358 5.358h107.146c2.194 0 5.358-2.086 5.358-5.358V218.427c0-3.146-2.878-5.358-5.358-5.358zm0 2.678h107.146c1.34 0 2.679 1.34 2.679 2.679v107.146c0 1.34-1.34 2.679-2.679 2.679H218.427c-1.34 0-2.679-1.34-2.679-2.679V218.427c0-1.34 1.308-2.679 2.679-2.679z" color="#000" font-weight="400" font-family="sans-serif" white-space="normal" overflow="visible" fill="url(#g)" stroke-width="2.638" stroke-linejoin="round" transform="translate(-208 -208)"/></svg>