<svg xmlns="http://www.w3.org/2000/svg" xmlns:xlink="http://www.w3.org/1999/xlink" height="128" viewBox="0 0 128 128" width="128" enable-background="new"><title>Template icons dark</title><defs><linearGradient id="d"><stop offset="0" stop-color="#1cdbff" stop-opacity=".143"/><stop offset="1" stop-color="#c34c74" stop-opacity="0"/></linearGradient><linearGradient id="c"><stop offset="0" stop-color="#d663eb" stop-opacity=".423"/><stop offset="1" stop-color="#c34c74" stop-opacity="0"/></linearGradient><linearGradient id="g"><stop offset="0" stop-color="#97176b"/><stop offset="1" stop-color="#69104b"/></linearGradient><linearGradient id="b"><stop offset="0" stop-color="#8ab0c4"/><stop offset="1" stop-color="#fcf6f8"/></linearGradient><linearGradient id="a"><stop offset="0" stop-color="#d8eaf3"/><stop offset="1" stop-color="#fff" stop-opacity=".945"/></linearGradient><linearGradient id="e"><stop offset="0" stop-color="#eeeeec"/><stop offset="1" stop-color="#d3d7cf"/></linearGradient><linearGradient id="f"><stop offset="0" stop-color="#2e3436"/><stop offset="1"/></linearGradient><linearGradient xlink:href="#b" id="h" x1="160" y1="196" x2="160" y2="110.592" gradientUnits="userSpaceOnUse" gradientTransform="matrix(1.13472 0 0 1.13472 89.147 89.294)"/><linearGradient xlink:href="#c" id="i" gradientUnits="userSpaceOnUse" gradientTransform="matrix(1.13472 0 0 1.13472 89.147 89.294)" x1="191.501" y1="140.476" x2="137.499" y2="161.382"/><linearGradient xlink:href="#d" id="j" gradientUnits="userSpaceOnUse" gradientTransform="matrix(1.13472 0 0 1.13472 89.147 89.294)" x1="115.424" y1="153.693" x2="151.567" y2="164.5"/><linearGradient xlink:href="#f" id="m" gradientUnits="userSpaceOnUse" gradientTransform="scale(1.94673) rotate(30 -52.286 194.21)" x1="9.697" y1="24.661" x2="33.232" y2="24.661"/><linearGradient xlink:href="#f" id="n" gradientUnits="userSpaceOnUse" gradientTransform="scale(1.94673) rotate(30 -52.286 194.21)" x1="19.5" y1="28.5" x2="23.5" y2="28.5"/><linearGradient xlink:href="#e" id="o" gradientUnits="userSpaceOnUse" gradientTransform="scale(1.94673) rotate(30 -52.286 194.21)" x1="20" y1="12" x2="23" y2="12"/><radialGradient xlink:href="#g" id="k" gradientUnits="userSpaceOnUse" gradientTransform="matrix(3.57033 .24844 -.12433 1.78684 -292.357 -44.865)" cx="168.187" cy="156.788" fx="168.187" fy="156.788" r="29.345"/><filter id="l" x="-.072" width="1.144" y="-.101" height="1.201" color-interpolation-filters="sRGB"><feGaussianBlur stdDeviation="2.003"/></filter></defs><g transform="translate(-208 -208)"><circle style="isolation:auto;mix-blend-mode:normal;marker:none" cx="270.703" cy="270.85" r="58.723" color="#000" overflow="visible" fill-opacity=".121" stroke-width="1.293" stroke-opacity=".995" enable-background="accumulate"/><circle r="57.447" cy="270.85" cx="270.703" style="isolation:auto;mix-blend-mode:normal;marker:none" color="#000" display="block" overflow="visible" fill="url(#h)" stroke-width=".972" stroke-opacity=".995" enable-background="accumulate"/><circle style="isolation:auto;mix-blend-mode:normal;marker:none" cx="270.703" cy="270.85" r="57.447" color="#000" display="block" overflow="visible" fill="url(#i)" stroke-width=".972" stroke-opacity=".995" enable-background="accumulate"/><circle r="57.447" cy="270.85" cx="270.703" style="isolation:auto;mix-blend-mode:normal;marker:none" color="#000" display="block" overflow="visible" fill="url(#j)" stroke-width=".972" stroke-opacity=".995" enable-background="accumulate"/><path d="M276.386 260.019c-32.23 13.1-46.511 17.278-59.241 26.924 8.215 22.67 27.85 39.113 51.27 39.774 34.398-1.6 56.886-24.52 57.474-55.885a55.594 55.594 0 0 0-7.201-27.301c.037.086.092.162.126.25-36.477 17.488-31.854 16.12-42.428 16.238z" style="isolation:auto;mix-blend-mode:normal;marker:none" color="#000" overflow="visible" fill="url(#k)" stroke-width="1.19" stroke-opacity=".995" enable-background="accumulate"/><path d="M283.083 259.715c-3.667 6.351-44.28 50.027-65.54 27.963-17.154-42.786 54.049-27.793 65.54-27.963z" style="isolation:auto;mix-blend-mode:normal;marker:none" color="#000" display="block" overflow="visible" fill="#b14abf" stroke-width="1.724" stroke-opacity=".995" enable-background="accumulate"/><path style="isolation:auto;mix-blend-mode:normal;marker:none" d="M282.712 260.225c2.414-4.216 31.965-35.82 37.093-14.754-.418 22.381-30.973 16.097-37.093 14.754z" color="#000" display="block" overflow="visible" fill="#ef53b7" stroke-width="1.23" stroke-opacity=".995" enable-background="accumulate"/><path d="M310.021 252.103c2.35-3.237-.452-9.1-3.718-11.407-2.2-1.554-5.42-.239-8.075.204-5.174.861-10.825 1.56-15.01 4.723-9.027 6.82-11.691 19.436-18.644 28.361-2.888 3.707-4.855 9.887-9.527 10.39-2.635.285-4.84-2.512-6.498-4.579-2.363-2.947-4.37-6.684-4.359-10.461.017-5.214 3.061-10.17 6.11-14.399 1.638-2.271 3.938-4.055 6.3-5.558 4.068-2.586 8.618-4.476 13.262-5.766 4.584-1.273 9.493-.893 14.148-1.873 5.617-1.181 10.811-4.37 16.534-4.81 2.864-.22 6.555-.957 8.544 1.114 2.316 2.412.73 6.652.895 9.991.067 1.355-.925 3.115.038 4.07z" transform="matrix(1.2766 0 0 1.2766 -75.162 -75.27)" fill="#fefefe" fill-opacity=".632" fill-rule="evenodd" stroke-width=".861" filter="url(#l)"/><path d="M305.187 234.134c-.368.155-3.277-4.282-3.666-4.374-.389-.092-4.974 2.579-5.234 2.276-.261-.303 3.06-4.44 3.027-4.838-.033-.399-3.99-3.934-3.782-4.275.207-.342 5.169 1.538 5.537 1.384.369-.154 2.508-5.01 2.897-4.918.389.092.134 5.391.395 5.694.26.303 5.54.837 5.572 1.235.033.398-5.086 1.794-5.293 2.135-.208.342.916 5.527.547 5.681z" style="isolation:auto;mix-blend-mode:normal;marker:none" color="#000" display="block" overflow="visible" fill-opacity=".379" stroke-width=".372" enable-background="accumulate"/><path style="isolation:auto;mix-blend-mode:normal;marker:none" d="M305.842 232.606c-.368.154-3.277-4.283-3.666-4.375-.389-.091-4.973 2.58-5.234 2.276-.26-.302 3.06-4.44 3.027-4.838-.033-.398-3.99-3.933-3.782-4.275.208-.341 5.169 1.539 5.537 1.384.369-.154 2.508-5.01 2.897-4.918.389.092.134 5.392.395 5.694.26.303 5.54.837 5.572 1.235.033.399-5.086 1.794-5.293 2.135-.207.342.916 5.527.547 5.682z" color="#000" display="block" overflow="visible" fill="#fefefe" stroke-width=".372" enable-background="accumulate"/><path style="isolation:auto;mix-blend-mode:normal;marker:none" d="M255.036 285.634c-.662.662-10.915-6.38-11.84-6.234-.925.146-8.5 10.013-9.334 9.587-.834-.425 2.696-12.352 2.27-13.186-.425-.835-12.149-4.99-12.002-5.915.146-.925 12.58-1.253 13.243-1.916.662-.662.99-13.096 1.916-13.243.925-.146 5.08 11.578 5.914 12.003.834.426 12.761-3.105 13.187-2.27.425.835-9.442 8.409-9.588 9.334-.147.925 6.896 11.178 6.234 11.84z" color="#000" display="block" overflow="visible" fill-opacity=".302" stroke-width="1.114" enable-background="accumulate"/><path d="M255.036 284.357c-.662.663-10.915-6.38-11.84-6.234-.925.147-8.5 10.013-9.334 9.588-.834-.425 2.696-12.352 2.27-13.187-.425-.835-12.149-4.99-12.002-5.914.146-.926 12.58-1.254 13.243-1.916.662-.662.99-13.097 1.916-13.243.925-.147 5.08 11.577 5.914 12.003.834.425 12.761-3.105 13.187-2.27.425.834-9.442 8.408-9.588 9.333-.147.925 6.896 11.178 6.234 11.84z" style="isolation:auto;mix-blend-mode:normal;marker:none" color="#000" display="block" overflow="visible" fill="#fefefe" stroke-width="1.114" enable-background="accumulate"/><path style="isolation:auto;mix-blend-mode:normal;marker:none" d="M277.59 242.343c-.36.371-6.08-3.417-6.59-3.327-.508.09-4.593 5.603-5.057 5.376-.465-.226 1.37-6.838 1.128-7.295-.243-.456-6.749-2.637-6.677-3.149.072-.511 6.928-.81 7.287-1.181.359-.372.422-7.233.931-7.323.51-.09 2.911 6.338 3.376 6.565.464.227 7.01-1.833 7.252-1.377.242.457-5.128 4.727-5.2 5.239-.073.512 3.909 6.1 3.55 6.472z" color="#000" display="block" overflow="visible" fill-opacity=".247" stroke-width=".372" enable-background="accumulate"/><path d="M277.59 241.066c-.36.372-6.08-3.416-6.59-3.327-.508.09-4.593 5.603-5.057 5.377-.465-.227 1.37-6.839 1.128-7.295-.243-.457-6.749-2.637-6.677-3.15.072-.51 6.928-.81 7.287-1.18.359-.372.422-7.234.931-7.323.51-.09 2.911 6.338 3.376 6.564.464.227 7.01-1.833 7.252-1.376.242.456-5.128 4.727-5.2 5.238-.073.512 3.909 6.1 3.55 6.472z" style="isolation:auto;mix-blend-mode:normal;marker:none" color="#000" display="block" overflow="visible" fill="#fefefe" stroke-width=".372" enable-background="accumulate"/><ellipse style="isolation:auto;mix-blend-mode:normal;marker:none" cx="28.297" cy="333.694" rx="20.996" ry="5.95" transform="rotate(-40.62)" color="#000" display="block" overflow="visible" fill="#fff" fill-opacity=".286" stroke-width=".916" enable-background="accumulate"/><ellipse transform="rotate(25.023)" ry="2.31" rx="8.151" cy="80.358" cx="362.18" style="isolation:auto;mix-blend-mode:normal;marker:none" color="#000" display="block" overflow="visible" fill="#fff" fill-opacity=".159" stroke-width=".356" enable-background="accumulate"/><ellipse transform="rotate(-40.62)" ry="6.426" rx="22.673" cy="429.603" cx="27.746" style="isolation:auto;mix-blend-mode:normal;marker:none" color="#000" display="block" overflow="visible" fill="#fff" fill-opacity=".066" stroke-width=".989" enable-background="accumulate"/><g transform="matrix(1.4331 0 0 1.4331 29.43 46.424)" stroke-width="1.947"><path d="M202.923 129.8l-36.988 64.065c-.538.93.536 2.557 2.398 3.632 1.863 1.075 3.808 1.192 4.346.261l36.988-64.065z" fill="url(#m)" stroke="url(#n)" stroke-linejoin="round"/><path d="M202.923 129.8l-9.734 16.859c-.537.93.536 2.557 2.399 3.632 1.862 1.076 3.807 1.192 4.345.261l9.734-16.859z" fill="url(#o)" stroke="#babdb6" stroke-linejoin="round"/><ellipse transform="rotate(30)" cx="244.53" cy="10.948" rx="3.893" ry="1.947" fill="#d3d7cf" stroke="#babdb6"/></g></g></svg>