<svg xmlns="http://www.w3.org/2000/svg" xmlns:xlink="http://www.w3.org/1999/xlink" height="128" viewBox="0 0 128 128" width="128"><title>Template icons dark</title><defs><linearGradient id="e"><stop offset="0" stop-color="#1cdbff" stop-opacity=".143"/><stop offset="1" stop-color="#c34c74" stop-opacity="0"/></linearGradient><linearGradient id="d"><stop offset="0" stop-color="#d663eb" stop-opacity=".423"/><stop offset="1" stop-color="#c34c74" stop-opacity="0"/></linearGradient><linearGradient id="f"><stop offset="0" stop-color="#97176b"/><stop offset="1" stop-color="#69104b"/></linearGradient><linearGradient id="b"><stop offset="0" stop-color="#8ab0c4"/><stop offset="1" stop-color="#fcf6f8"/></linearGradient><linearGradient id="a"><stop offset="0" stop-color="#d8eaf3"/><stop offset="1" stop-color="#fff" stop-opacity=".945"/></linearGradient><linearGradient id="c"><stop offset="0" stop-color="#30d9eb"/><stop offset="1" stop-color="#5393e4"/></linearGradient><linearGradient xlink:href="#e" id="i" gradientUnits="userSpaceOnUse" gradientTransform="matrix(1.1594 0 0 1.1594 86.497 86.497)" x1="115.424" y1="153.693" x2="151.567" y2="164.5"/><linearGradient xlink:href="#d" id="h" gradientUnits="userSpaceOnUse" gradientTransform="matrix(1.1594 0 0 1.1594 86.497 86.497)" x1="191.501" y1="140.476" x2="137.499" y2="161.382"/><linearGradient xlink:href="#b" id="g" x1="160" y1="196" x2="160" y2="110.592" gradientUnits="userSpaceOnUse" gradientTransform="matrix(1.1594 0 0 1.1594 86.497 86.497)"/><radialGradient xlink:href="#f" id="j" gradientUnits="userSpaceOnUse" gradientTransform="matrix(3.64795 .25384 -.12704 1.82568 -303.3 -50.579)" cx="168.187" cy="156.788" fx="168.187" fy="156.788" r="29.345"/></defs><g color="#000" transform="translate(-208 -208)"><circle style="isolation:auto;mix-blend-mode:normal;marker:none" cx="272" cy="272" r="60" overflow="visible" fill-opacity=".121" stroke-width="1.321" stroke-opacity=".995"/><circle r="58.696" cy="272" cx="272" style="isolation:auto;mix-blend-mode:normal;marker:none" display="block" overflow="visible" fill="url(#g)" stroke-width=".993" stroke-opacity=".995"/><circle style="isolation:auto;mix-blend-mode:normal;marker:none" cx="272" cy="272" r="58.696" display="block" overflow="visible" fill="url(#h)" stroke-width=".993" stroke-opacity=".995"/><circle r="58.696" cy="272" cx="272" style="isolation:auto;mix-blend-mode:normal;marker:none" display="block" overflow="visible" fill="url(#i)" stroke-width=".993" stroke-opacity=".995"/><path d="M277.807 260.933c-32.93 13.385-47.523 17.654-60.53 27.51 8.394 23.162 28.457 39.963 52.385 40.638 35.146-1.635 58.123-25.053 58.724-57.1a56.802 56.802 0 0 0-7.358-27.894c.038.088.094.165.13.255-37.271 17.869-32.547 16.472-43.351 16.59z" style="isolation:auto;mix-blend-mode:normal;marker:none" overflow="visible" fill="url(#j)" stroke-width="1.216" stroke-opacity=".995"/><path d="M284.65 260.622c-3.747 6.49-45.243 51.116-66.966 28.572-17.526-43.717 55.224-28.398 66.965-28.572z" style="isolation:auto;mix-blend-mode:normal;marker:none" display="block" overflow="visible" fill="#b14abf" stroke-width="1.761" stroke-opacity=".995"/><path style="isolation:auto;mix-blend-mode:normal;marker:none" d="M284.27 261.144c2.466-4.308 32.66-36.598 37.9-15.075-.427 22.868-31.647 16.446-37.9 15.075z" display="block" overflow="visible" fill="#ef53b7" stroke-width="1.257" stroke-opacity=".995"/><ellipse style="isolation:auto;mix-blend-mode:normal;marker:none" cx="28.515" cy="334.365" rx="21.452" ry="6.079" transform="rotate(-40.62)" display="block" overflow="visible" fill="#fff" fill-opacity=".286" stroke-width=".936"/><ellipse transform="rotate(25.023)" ry="2.36" rx="8.329" cy="79.752" cx="363.892" style="isolation:auto;mix-blend-mode:normal;marker:none" display="block" overflow="visible" fill="#fff" fill-opacity=".159" stroke-width=".363"/><ellipse transform="rotate(-40.62)" ry="6.565" rx="23.166" cy="432.359" cx="27.952" style="isolation:auto;mix-blend-mode:normal;marker:none" display="block" overflow="visible" fill="#fff" fill-opacity=".066" stroke-width="1.011"/></g></svg>