<svg xmlns="http://www.w3.org/2000/svg" xmlns:xlink="http://www.w3.org/1999/xlink" height="48" viewBox="0 0 48 48" width="48"><title>Template icons dark</title><defs><linearGradient id="d"><stop offset="0" stop-color="#f772b7"/><stop offset="1" stop-color="#f70342"/></linearGradient><linearGradient id="c"><stop offset="0" stop-color="#f7f7f7"/><stop offset="1" stop-color="#e8e8e8"/></linearGradient><linearGradient id="a"><stop offset="0" stop-color="#dedede"/><stop offset="1" stop-color="#fff" stop-opacity=".974"/></linearGradient><linearGradient id="b"><stop offset="0" stop-color="#ff1781"/><stop offset="1" stop-color="#0b65ff"/></linearGradient><linearGradient gradientTransform="matrix(.41153 0 0 .41153 -41.845 -41.845)" xlink:href="#b" id="f" x1="160.333" y1="155.19" x2="160.333" y2="204.115" gradientUnits="userSpaceOnUse"/><linearGradient xlink:href="#c" id="g" gradientUnits="userSpaceOnUse" x1="272" y1="298" x2="272" y2="237.102" gradientTransform="matrix(.37112 0 0 .37112 -77.317 -78.348)"/><radialGradient xlink:href="#d" id="e" cx="160" cy="160" fx="160" fy="160" r="38.047" gradientTransform="matrix(.4775 0 0 .6374 -52.399 -77.983)" gradientUnits="userSpaceOnUse"/></defs><g><path style="isolation:auto;mix-blend-mode:normal;marker:none" d="M48 24l-15.014 3.07 10.43 11.763-13.862-6.795L31.416 48 24 33.935 16.584 48l1.862-15.962-13.862 6.795 10.43-11.763L0 24l15.014-3.07L4.584 9.167l13.862 6.795L16.584 0 24 14.065 31.416 0l-1.862 15.962 13.862-6.795-10.43 11.763z" color="#000" overflow="visible" fill-opacity=".267"/><path style="isolation:auto;mix-blend-mode:normal;marker:none" d="M45.722 24l-13.589 2.779 9.44 10.646-12.546-6.15 1.685 14.447L24 32.992l-6.712 12.73 1.685-14.447-12.546 6.15 9.44-10.646L2.278 24l13.589-2.779-9.44-10.646 12.546 6.15-1.685-14.447L24 15.008l6.712-12.73-1.685 14.447 12.546-6.15-9.44 10.646z" color="#000" display="block" overflow="visible" fill="#fff" fill-opacity=".984"/><path style="isolation:auto;mix-blend-mode:normal;marker:none" d="M42.316 24A18.316 18.316 0 0 1 24 42.316 18.316 18.316 0 0 1 5.684 24 18.316 18.316 0 0 1 24 5.684 18.316 18.316 0 0 1 42.316 24z" color="#000" overflow="visible" fill="url(#e)" stroke="#fff" stroke-width="1.021"/><path style="isolation:auto;mix-blend-mode:normal;marker:none" d="M42.316 24A18.316 18.316 0 0 1 24 42.316 18.316 18.316 0 0 1 5.684 24 18.316 18.316 0 0 1 24 5.684 18.316 18.316 0 0 1 42.316 24z" color="#000" overflow="visible" opacity=".284" fill="url(#f)" stroke="#fff" stroke-width="1.021"/><path style="isolation:auto;mix-blend-mode:normal;marker:none" d="M41.814 23.347A17.822 18.316 0 0 1 24 41.493 17.822 18.316 0 0 1 6.186 23.418a17.822 18.316 0 0 0-.009.17A17.822 18.316 0 0 0 24 41.905a17.822 18.316 0 0 0 17.823-18.317 17.822 18.316 0 0 0-.009-.24z" color="#000" overflow="visible" fill-opacity=".297"/><path d="M41.896 24.77A17.905 18.316 0 0 0 24 6.624 17.905 18.316 0 0 0 6.104 24.7a17.905 18.316 0 0 1-.01-.17A17.905 18.316 0 0 1 24 6.212a17.905 18.316 0 0 1 17.905 18.316 17.905 18.316 0 0 1-.009.241z" style="isolation:auto;mix-blend-mode:normal;marker:none" color="#000" overflow="visible" fill="#242424" fill-opacity=".471"/><path style="line-height:normal;font-variant-ligatures:normal;font-variant-position:normal;font-variant-caps:normal;font-variant-numeric:normal;font-variant-alternates:normal;font-feature-settings:normal;text-indent:0;text-align:start;text-decoration-line:none;text-decoration-style:solid;text-decoration-color:#000;text-transform:none;text-orientation:mixed;shape-padding:0;isolation:auto;mix-blend-mode:normal;marker:none" d="M22.168 8.922l-.472.06-.018.003-.26.046.13.728.242-.043.007-.001.464-.06zm4.531.13l-.13.728.35.062.003.001.353.082.167-.72-.371-.086-.019-.004zm-9.581 1.406l-.352.18-.015.008-.3.172.37.642.299-.172.335-.172zm14.534.42l-.37.641.216.124.004.002.394.254.4-.623-.41-.263-.016-.01zm-8.92 2.625l-.335.043-.014.002-.174.032.091.506.161-.029h.006l.007-.002.323-.04zm3.154.093l-.091.507.24.043.252.058.116-.502-.266-.06-.013-.004zm-12.983.034l-.142.149-.012.013-.35.403.56.484.337-.39.008-.008.004-.005.13-.136zm22.775.655l-.559.484.027.031.002.002.419.534.582-.457-.42-.536-.012-.013zm-16.454.29l-.254.12-.022.012-.199.122.267.44.192-.116.239-.115zm10.11.304l-.268.44.44.268.268-.44zM16.28 16.787l-.346.381.38.347.348-.38zm15.849.453l-.38.347.01.012.284.379.413-.308-.29-.387-.015-.02zm-22.11.809l-.014.03-.007.016-.26.657.689.272.252-.641.002-.005.005-.012.007-.013zm12.308.295l-.069.019-.027.007-.475.175.198.541.459-.168.057-.014zm3.577.077l-.2.542.363.132.147.07.25-.52-.156-.075-.026-.01zm12.4.46l-.7.237.194.575v.002l.032.109.711-.202-.03-.11-.006-.018zm-24.032.966l-.011.025-.008.018-.179.453.479.188.172-.435.011-.025zm19.688.6l-.488.164.133.391.002.007.002.006.02.073.496-.141-.024-.085-.004-.013zm-14.953.419l-.188.31-.014.024-.093.193.52.25.086-.179.182-.299zm10.096.184l-.493.3.07.114.18.374.52-.25-.187-.388-.014-.024zM8.83 23.193l-.002.016v.019l-.019.723.74.02.018-.711v-.014h-.054zm4.61.24v.016l-.002.014-.012.498.515.013.013-.499v-.003zm15.882.553l-.029.574.269.013.304.046v-.002l.003-.029.03-.574zm9.13.004l-.019.74.74.02.019-.74zm-4.392.003l-.013.516.515.012.013-.514zm-15.309.849l-.57.087.038.245.005.028.082.32.558-.145-.077-.303zm-4.372 2.101l-.496.141.015.054.004.013.147.434.488-.165-.143-.422-.002-.007-.002-.005zm19.074.507l-.001.003-.005.012-.179.452.48.19.182-.465.005-.012.005-.015zM28 27.502l-.237.26-.146.133.389.427.156-.14.019-.02.246-.272zm-7.396.597l-.075.1-.303.334.012.01.02.018.432.323.023.015.02.012.27-.445.033-.044-.004-.003v-.001l-.007-.004-.409-.306-.003-.003zm-10.425.135l-.71.202.02.073.005.017.213.63.7-.237-.206-.612-.001-.002zm27.4.722l-.007.022-.257.65.688.272.264-.668.006-.017.008-.022zm-12.892.316l-.143.022-.403.02.03.577.418-.021.029-.003.156-.024zm-8.712.776l-.412.309.27.36.015.02.043.047.382-.346-.038-.042zm15.73.414l-.345.38.38.347.346-.381zm-13.184 1.969l-.268.44.441.267.267-.44zm-6.064.265l-.581.457.396.504.011.014.064.074.56-.484-.053-.061-.002-.002zm16.554.019l-.22.133-.209.1.223.465.224-.109.023-.011.227-.138zm6.056.576l-.363.42-.008.008-.004.005-.103.107.535.51.115-.12.012-.013.375-.433zm-13.323.512l-.115.502.234.054.013.003.27.048.09-.507-.27-.049zm3.988.105l-.193.035-.006.001-.007.001-.29.037.065.511.302-.038.014-.002.206-.037zm-9.595 2.216l-.4.622.378.242.015.01.253.144.368-.64-.237-.137-.012-.008-.004-.002zm15.077.397l-.334.191v.001l-.3.153.337.658.317-.162.015-.008.334-.192zm-10.45 1.563l-.167.72.333.077.018.004.391.07.13-.728-.388-.069h-.003zm5.728.15l-.282.05-.007.002-.425.054.093.733.433-.055.018-.003.3-.053z" color="#000" font-weight="400" font-family="sans-serif" white-space="normal" overflow="visible" fill="#fff" fill-opacity=".705"/><path style="line-height:1000%;-inkscape-font-specification:Sagar" d="M24.313 8.173c-1.454 0-2.666.252-3.61.844-.917.574-1.515 1.457-1.515 2.447v.041l.169 1.564 3.515 15.384h1.154c-2.23.027-4.048 1.85-4.048 4.085a4.105 4.105 0 0 0 4.094 4.094 4.105 4.105 0 0 0 4.094-4.094c0-2.236-1.818-4.058-4.048-4.085h1.273l3.565-15.423v-1.367c0-1.06-.55-2.02-1.46-2.614-.89-.593-1.974-.876-3.183-.876z" font-weight="400" font-family="Sagar" letter-spacing="0" word-spacing="0" fill-opacity=".136" paint-order="stroke fill markers"/><path style="line-height:1000%;-inkscape-font-specification:Sagar" d="M24.19 9.003c-1.364 0-2.435.243-3.21.73-.776.486-1.164 1.09-1.164 1.81l.16 1.481 3.372 14.758h1.323l3.411-14.758v-1.281c0-.84-.374-1.503-1.123-1.989-.75-.5-1.672-.75-2.77-.75zm-.24 20.272a3.343 3.343 0 0 0-3.344 3.343 3.343 3.343 0 0 0 3.343 3.343 3.343 3.343 0 0 0 3.343-3.343 3.343 3.343 0 0 0-3.343-3.343z" font-weight="400" font-family="Sagar" letter-spacing="0" word-spacing="0" fill="url(#g)" paint-order="stroke fill markers"/><circle style="isolation:auto;mix-blend-mode:normal;marker:none" cx="24" cy="24" r="19.765" color="#000" overflow="visible" fill-opacity=".157"/></g></svg>