<svg xmlns="http://www.w3.org/2000/svg" xmlns:xlink="http://www.w3.org/1999/xlink" height="48" viewBox="0 0 48 48" width="48"><title>Template icons dark</title><defs><linearGradient id="b"><stop offset="0" stop-color="#ff053c"/><stop offset="1" stop-color="#0b31ff" stop-opacity=".974"/></linearGradient><linearGradient id="a"><stop offset="0" stop-color="#20c686"/><stop offset="1" stop-color="#259d68"/></linearGradient><linearGradient gradientTransform="matrix(.51064 0 0 .51064 -57.702 -57.702)" xlink:href="#b" id="d" x1="122" y1="183" x2="196" y2="142" gradientUnits="userSpaceOnUse"/><linearGradient xlink:href="#a" id="c" x1="24.535" y1="7.996" x2="24.705" y2="38.25" gradientUnits="userSpaceOnUse" gradientTransform="matrix(1.08822 0 0 1.08822 -2.206 -3.814)"/></defs><g><circle style="isolation:auto;mix-blend-mode:normal;marker:none" cx="24" cy="24" r="24" color="#000" display="block" overflow="visible" fill-opacity=".157"/><circle style="isolation:auto;mix-blend-mode:normal;marker:none" cx="24" cy="24" r="22.727" color="#000" overflow="visible" fill="url(#c)" stroke="#fff" stroke-width="1.267"/><circle r="22.727" cy="24" cx="24" style="isolation:auto;mix-blend-mode:normal;marker:none" color="#000" overflow="visible" opacity=".109" fill="url(#d)" stroke="#fff" stroke-width="1.267"/><circle r="3.868" cy="24" cx="24" style="isolation:auto;mix-blend-mode:normal;marker:none" color="#000" overflow="visible" fill="#efefef" fill-opacity=".214"/><circle style="isolation:auto;mix-blend-mode:normal;marker:none" cx="24" cy="24" r="18.699" color="#000" overflow="visible" fill="none" stroke="#fff" stroke-width=".885" stroke-dasharray=".885,3.54" stroke-opacity=".344"/><path d="M29.767 40.427c-2.572-.427-5.913-3.372-8.963-7.9-1.28-1.9-2.589-4.247-3.444-6.171-.171-.386-.234-.48-.285-.424-.104.11-.849 1.73-1.241 2.697-.66 1.628-1.125 3.18-1.391 4.643-.171.938-.186 2.754-.027 3.317.368 1.308 1.168 1.851 2.415 1.642.898-.15 1.986-.643 3.141-1.421.513-.346.648-.412.846-.413.303-.002.53.163.635.463.07.2.07.257-.002.447-.069.183-.189.29-.73.658-.747.506-2.026 1.16-2.68 1.369-1.714.548-3.048.347-3.988-.601-.862-.87-1.234-2.277-1.12-4.24.15-2.555 1.273-6.042 3.047-9.46l.445-.858-.336-.909c-.322-.87-.958-2.888-.958-3.038 0-.11-.194-.087-1.048.123-1.955.48-3.407 1.093-4.45 1.875-2.047 1.536-1.504 3.27 1.564 4.996.489.275.602.423.602.789 0 .191-.036.27-.192.426-.336.336-.648.266-1.684-.377-1.499-.929-2.446-1.986-2.78-3.102-.122-.408-.122-1.228 0-1.638.177-.598.475-1.072 1.013-1.613 1.205-1.212 3.204-2.143 5.945-2.769.559-.127.688-.175.667-.246a17.372 17.372 0 0 1-.142-.71c-.373-2-.384-4.292-.028-5.563.411-1.466 1.155-2.339 2.341-2.746.484-.166 1.454-.14 2.118.057.669.199 1.498.608 2.231 1.099.874.586 1.132.831 1.169 1.114.085.65-.587 1.001-1.135.593-1.72-1.28-2.948-1.768-3.931-1.56-.715.15-1.261.885-1.537 2.067-.11.47-.124.693-.125 1.86 0 1.327.018 1.54.26 2.93l.122.7.287-.036c1.317-.159 2.451-.27 3.15-.307l.831-.044.13-.167c1.402-1.803 3.442-3.909 4.987-5.15 2.96-2.374 5.499-3.199 7.245-2.353.986.478 1.61 1.454 1.852 2.9.157.944.033 3.179-.213 3.808-.085.217-.357.374-.65.374a.539.539 0 0 1-.424-.164c-.169-.151-.184-.193-.183-.494 0-.182.048-.698.106-1.149.166-1.31.052-2.52-.306-3.22-.173-.34-.528-.703-.835-.855-.23-.113-.348-.13-.887-.129-.565.002-.676.021-1.234.211-1.727.59-3.706 2.005-5.83 4.172a41.143 41.143 0 0 0-1.354 1.46l-.616.705.535.013c7.486.177 13.796 1.897 16.77 4.57.67.6 1.246 1.497 1.414 2.195.085.355.086 1.042.003 1.41-.307 1.36-1.801 2.695-3.98 3.559-.344.136-.416.147-.602.091a.68.68 0 0 1-.503-.654c0-.36.173-.532.795-.793 1.353-.567 2.402-1.362 2.8-2.123.14-.264.16-.367.16-.784 0-.434-.018-.515-.19-.847-.241-.468-1.039-1.268-1.7-1.706-3.252-2.15-9.38-3.547-15.566-3.547h-1.02l-.385.523a57.706 57.706 0 0 0-2.32 3.53l-.438.75.3.691c3.02 6.93 7.708 12.781 11.166 13.936.752.251 1.32.263 1.78.038.86-.42 1.311-1.513 1.38-3.347.116-3.059-.986-7.287-3.04-11.67-.214-.454-.341-.8-.341-.924 0-.37.304-.662.685-.657.34.005.488.14.746.681 1.666 3.486 2.777 6.977 3.192 10.033.14 1.028.14 3.12.002 3.867-.222 1.196-.617 2.057-1.221 2.664-.736.739-1.691 1.02-2.822.833zM17.813 21.823c.211-.342.622-.97.913-1.395.29-.426.528-.791.528-.812 0-.073-2.668.197-2.75.278-.048.048.112.643.468 1.736.258.795.328.956.386.892.04-.043.244-.357.455-.699zm5.695 5.067c-.849-.303-1.345-1.011-1.333-1.904.006-.467.112-.787.385-1.16.692-.943 2.106-1.05 2.957-.224.978.949.688 2.641-.548 3.208-.426.194-1.045.228-1.461.08z" fill-opacity=".235"/><path d="M29.767 39.406c-2.572-.427-5.913-3.372-8.963-7.9-1.28-1.9-2.589-4.247-3.444-6.172-.171-.386-.234-.479-.285-.423-.104.11-.849 1.73-1.241 2.697-.66 1.628-1.125 3.18-1.391 4.643-.171.937-.186 2.754-.027 3.317.368 1.307 1.168 1.85 2.415 1.642.898-.15 1.986-.643 3.141-1.421.513-.346.648-.412.846-.413.303-.002.53.163.635.463.07.2.07.257-.002.447-.069.182-.189.29-.73.657-.747.507-2.026 1.16-2.68 1.37-1.714.548-3.048.347-3.988-.601-.862-.87-1.234-2.277-1.12-4.24.15-2.555 1.273-6.042 3.047-9.46l.445-.858-.336-.91c-.322-.87-.958-2.887-.958-3.037 0-.11-.194-.088-1.048.122-1.955.481-3.407 1.093-4.45 1.875-2.047 1.537-1.504 3.27 1.564 4.997.489.275.602.423.602.789 0 .19-.036.27-.192.426-.336.336-.648.266-1.684-.377-1.499-.93-2.446-1.987-2.78-3.102-.122-.408-.122-1.229 0-1.638.177-.598.475-1.072 1.013-1.613 1.205-1.213 3.204-2.144 5.945-2.77.559-.127.688-.174.667-.245a17.372 17.372 0 0 1-.142-.71c-.373-2-.384-4.292-.028-5.564.411-1.466 1.155-2.338 2.341-2.745.484-.167 1.454-.14 2.118.057.669.199 1.498.607 2.231 1.099.874.585 1.132.831 1.169 1.114.085.65-.587 1.001-1.135.593-1.72-1.28-2.948-1.768-3.931-1.56-.715.15-1.261.885-1.537 2.066-.11.47-.124.693-.125 1.862 0 1.326.018 1.539.26 2.93l.122.698.287-.035c1.317-.159 2.451-.27 3.15-.307l.831-.045.13-.166c1.402-1.803 3.442-3.91 4.987-5.15 2.96-2.374 5.499-3.2 7.245-2.353.986.478 1.61 1.454 1.852 2.9.157.944.033 3.178-.213 3.808-.085.217-.357.374-.65.374a.539.539 0 0 1-.424-.165c-.169-.15-.184-.192-.183-.494 0-.18.048-.698.106-1.148.166-1.31.052-2.52-.306-3.22-.173-.34-.528-.704-.835-.855-.23-.114-.348-.13-.887-.129-.565.002-.676.02-1.234.211-1.727.59-3.706 2.005-5.83 4.171a41.142 41.142 0 0 0-1.354 1.46l-.616.706.535.013c7.486.177 13.796 1.896 16.77 4.569.67.601 1.246 1.497 1.414 2.196.085.354.086 1.042.003 1.41-.307 1.36-1.801 2.695-3.98 3.558-.344.137-.416.148-.602.092a.68.68 0 0 1-.503-.654c0-.36.173-.532.795-.793 1.353-.567 2.402-1.363 2.8-2.123.14-.264.16-.367.16-.784 0-.434-.018-.515-.19-.847-.241-.468-1.039-1.268-1.7-1.706-3.252-2.15-9.38-3.547-15.566-3.547h-1.02l-.385.522a57.706 57.706 0 0 0-2.32 3.532l-.438.75.3.69c3.02 6.93 7.708 12.781 11.166 13.936.752.25 1.32.263 1.78.038.86-.42 1.311-1.514 1.38-3.347.116-3.06-.986-7.288-3.04-11.67-.214-.454-.341-.8-.341-.924 0-.37.304-.662.685-.657.34.004.488.14.746.681 1.666 3.485 2.777 6.977 3.192 10.033.14 1.028.14 3.12.002 3.867-.222 1.196-.617 2.057-1.221 2.663-.736.74-1.691 1.022-2.822.834zM17.813 20.802c.211-.342.622-.97.913-1.395.29-.426.528-.791.528-.812 0-.073-2.668.197-2.75.278-.048.048.112.643.468 1.736.258.794.328.956.386.892.04-.043.244-.357.455-.7zm5.695 5.066c-.849-.303-1.345-1.01-1.333-1.903.006-.467.112-.788.385-1.16.692-.943 2.106-1.05 2.957-.224.978.948.688 2.641-.548 3.207-.426.195-1.045.229-1.461.08z" fill="#fff" stroke="#fff" stroke-width=".225"/><path style="isolation:auto;mix-blend-mode:normal;marker:none" d="M46.104 23.19A22.114 22.727 0 0 1 24 45.706 22.114 22.727 0 0 1 1.896 23.278a22.114 22.727 0 0 0-.01.211A22.114 22.727 0 0 0 24 46.217a22.114 22.727 0 0 0 22.115-22.728 22.114 22.727 0 0 0-.011-.299z" color="#000" overflow="visible" fill-opacity=".297"/><path d="M46.206 24.956A22.217 22.727 0 0 0 24 2.44 22.217 22.727 0 0 0 1.794 24.868a22.217 22.727 0 0 1-.01-.211A22.217 22.727 0 0 1 24 1.929a22.217 22.727 0 0 1 22.217 22.728 22.217 22.727 0 0 1-.01.299z" style="isolation:auto;mix-blend-mode:normal;marker:none" color="#000" overflow="visible" fill="#242424" fill-opacity=".471"/></g></svg>