<svg xmlns="http://www.w3.org/2000/svg" xmlns:xlink="http://www.w3.org/1999/xlink" height="48" viewBox="0 0 48 48" width="48"><title>Template icons dark</title><defs><linearGradient id="f"><stop offset="0" stop-color="#0a34ff" stop-opacity="0"/><stop offset="1" stop-color="#ffff0d" stop-opacity=".24"/></linearGradient><linearGradient id="c"><stop offset="0" stop-color="#fff" stop-opacity=".427"/><stop offset=".423" stop-color="#fbfcfe"/><stop offset="1" stop-color="#fff" stop-opacity=".49"/></linearGradient><linearGradient id="e"><stop offset="0" stop-color="#cdcdcd"/><stop offset="1" stop-color="#fff"/></linearGradient><linearGradient id="d"><stop offset="0" stop-color="#fff" stop-opacity=".427"/><stop offset=".423" stop-color="#fafcfe"/><stop offset="1" stop-color="#fff" stop-opacity=".49"/></linearGradient><linearGradient id="b"><stop offset="0" stop-color="#fff" stop-opacity=".266"/><stop offset="1" stop-color="#fff"/></linearGradient><linearGradient id="a"><stop offset="0" stop-color="#0a34ff"/><stop offset="1" stop-color="#f044ee"/></linearGradient><linearGradient xlink:href="#a" id="g" x1="22.9" y1="46.6" x2="22.9" y2="-10.331" gradientUnits="userSpaceOnUse" gradientTransform="matrix(1.11828 0 0 1.11828 -1.161 -4.516)"/><linearGradient xlink:href="#f" id="h" gradientUnits="userSpaceOnUse" gradientTransform="matrix(1.11828 0 0 1.11828 -1.161 -4.516)" x1="15.346" y1="25.106" x2="29.288" y2="40.737"/><linearGradient gradientTransform="matrix(.5 0 0 .5 -56 -56)" xlink:href="#c" id="j" x1="152" y1="178.131" x2="152" y2="128" gradientUnits="userSpaceOnUse"/><linearGradient gradientTransform="matrix(.5 0 0 .5 -56 -56)" xlink:href="#b" id="k" x1="160" y1="174" x2="160" y2="137" gradientUnits="userSpaceOnUse"/><linearGradient gradientTransform="matrix(.5 0 0 .5 -56 -56)" xlink:href="#e" id="l" x1="161.772" y1="204" x2="161.772" y2="113" gradientUnits="userSpaceOnUse"/><linearGradient xlink:href="#c" id="i" gradientUnits="userSpaceOnUse" gradientTransform="matrix(.5 0 0 .5 -56 -56)" x1="152" y1="178.131" x2="152" y2="128"/></defs><path style="isolation:auto;mix-blend-mode:normal;marker:none" d="M48 24a24 24 0 0 1-24 24A24 24 0 0 1 0 24 24 24 0 0 1 24 0a24 24 0 0 1 24 24z" color="#000" display="block" overflow="visible" fill-opacity=".058"/><path style="isolation:auto;mix-blend-mode:normal;marker:none" d="M47 24a23 23 0 0 1-23 23A23 23 0 0 1 1 24 23 23 0 0 1 24 1a23 23 0 0 1 23 23z" color="#000" display="block" overflow="visible" fill="url(#g)"/><path d="M47 24a23 23 0 0 1-23 23A23 23 0 0 1 1 24 23 23 0 0 1 24 1a23 23 0 0 1 23 23z" style="isolation:auto;mix-blend-mode:normal;marker:none" color="#000" display="block" overflow="visible" fill="url(#h)"/><path d="M3.147 25.613l3.571 6.88L8 22.733l1.713 9.866.795-13.173 1.501 13.867 1.276-15.307.51 14.72.976-16.96L15.774 31l.954-16.693 1.195 18.453.864-21.333 1.737 23.68 1.01-26.72 1.062 30.72L24 5.186" fill="none" stroke="url(#i)" stroke-width=".357" stroke-opacity=".283"/><path d="M44.747 24.813l-3.465 7.68L40 22.679l-1.713 9.92-.688-13.066-1.608 13.76-1.276-15.307-.51 14.72-.976-16.96L32.226 31l-.954-16.693-1.195 18.453-.864-21.333-1.737 23.68-1.01-26.72-1.062 30.72L24 5.186" fill="none" stroke="url(#j)" stroke-width=".357" stroke-opacity=".283"/><path d="M2.987 32.053c12.906.64 9.522-17.333 20.693-17.333 12.16 0 7.28 17.307 21.333 17.333" fill="none" stroke="#090909" stroke-width="2" stroke-opacity=".22"/><path style="line-height:normal;font-variant-ligatures:normal;font-variant-position:normal;font-variant-caps:normal;font-variant-numeric:normal;font-variant-alternates:normal;font-feature-settings:normal;text-indent:0;text-align:start;text-decoration-line:none;text-decoration-style:solid;text-decoration-color:#000;text-transform:none;text-orientation:mixed;shape-padding:0;isolation:auto;mix-blend-mode:normal" d="M23.68 12.227c-3.061 0-5.296 1.312-6.886 3.142-1.59 1.83-2.633 4.132-3.708 6.324-1.075 2.193-2.176 4.27-3.682 5.705-1.505 1.436-3.37 2.312-6.368 2.164l-.099 1.997c3.456.171 6.008-.96 7.847-2.713 1.84-1.754 3.01-4.052 4.098-6.273 1.089-2.22 2.101-4.373 3.422-5.892 1.32-1.52 2.851-2.454 5.376-2.454 2.802 0 4.425.92 5.747 2.377 1.321 1.457 2.272 3.53 3.306 5.709 1.035 2.178 2.162 4.466 4.038 6.251 1.877 1.786 4.522 2.989 8.24 2.996l.005-2c-3.308-.007-5.324-.977-6.866-2.444-1.54-1.466-2.588-3.51-3.61-5.662-1.022-2.152-2.01-4.405-3.632-6.194-1.622-1.789-3.951-3.033-7.228-3.033z" color="#000" font-weight="400" font-family="sans-serif" white-space="normal" overflow="visible" fill="url(#k)" fill-rule="evenodd"/><path d="M23.68 13.727c-3.061 0-4.871 1.554-6.461 3.385-1.59 1.83-2.209 3.889-3.284 6.081-1.075 2.193-2.661 4.27-4.167 5.705-1.505 1.436-3.734 2.312-6.732 2.164l-.098.497c3.455.171 6.007-.96 7.846-2.713 1.84-1.754 3.01-4.052 4.098-6.273 1.089-2.22 2.101-4.373 3.422-5.892 1.32-1.52 2.851-2.454 5.376-2.454 2.802 0 4.425.92 5.747 2.377 1.321 1.457 2.272 3.53 3.306 5.708 1.035 2.179 2.162 4.467 4.038 6.252 1.877 1.786 4.522 2.989 8.24 2.996l.005-.5c-3.308-.007-5.567-.977-7.108-2.444-1.541-1.466-2.831-3.086-3.853-5.237-1.022-2.152-2.191-4.83-3.814-6.62-1.623-1.788-3.284-3.032-6.561-3.032z" style="line-height:normal;font-variant-ligatures:normal;font-variant-position:normal;font-variant-caps:normal;font-variant-numeric:normal;font-variant-alternates:normal;font-feature-settings:normal;text-indent:0;text-align:start;text-decoration-line:none;text-decoration-style:solid;text-decoration-color:#000;text-transform:none;text-orientation:mixed;shape-padding:0;isolation:auto;mix-blend-mode:normal" color="#000" font-weight="400" font-family="sans-serif" white-space="normal" overflow="visible" fill="#fff" fill-opacity=".734" fill-rule="evenodd"/><path style="isolation:auto;mix-blend-mode:normal;marker:none" d="M45.043 24.56A21.043 21.043 0 0 1 24 45.605 21.043 21.043 0 0 1 2.957 24.56 21.043 21.043 0 0 1 24 3.518 21.043 21.043 0 0 1 45.043 24.56z" color="#000" overflow="visible" fill="none" stroke="#050505" stroke-width=".839" stroke-linejoin="round" stroke-opacity=".458"/><path style="isolation:auto;mix-blend-mode:normal;marker:none" d="M45.043 23.879A21.043 21.043 0 0 1 24 44.922 21.043 21.043 0 0 1 2.957 23.879 21.043 21.043 0 0 1 24 2.836a21.043 21.043 0 0 1 21.043 21.043z" color="#000" overflow="visible" fill="none" stroke="#fff" stroke-width=".839" stroke-linejoin="round"/><path style="isolation:auto;mix-blend-mode:normal;marker:none" d="M46.003 24A22.003 22.003 0 0 1 24 46.003 22.003 22.003 0 0 1 1.997 24 22.003 22.003 0 0 1 24 1.997 22.003 22.003 0 0 1 46.003 24z" color="#000" overflow="visible" fill="none" stroke="url(#l)" stroke-width="1.995" stroke-linejoin="round"/></svg>