<svg xmlns="http://www.w3.org/2000/svg" xmlns:xlink="http://www.w3.org/1999/xlink" height="48" viewBox="0 0 48 48" width="48" enable-background="new"><title>Template icons dark</title><defs><linearGradient id="a"><stop offset="0" stop-color="#fbfbfb"/><stop offset="1" stop-color="#cfcfcf"/></linearGradient><linearGradient id="b"><stop offset="0" stop-color="#ff8545"/><stop offset=".525" stop-color="#f47200"/><stop offset="1" stop-color="#ffa04d"/></linearGradient><linearGradient xlink:href="#b" id="h" gradientUnits="userSpaceOnUse" gradientTransform="translate(-1.012 -.517) scale(1.04437)" x1="2.133" y1="1.425" x2="45.917" y2="45.208"/><linearGradient xlink:href="#a" id="i" gradientUnits="userSpaceOnUse" x1="213.205" y1="166" x2="213.205" y2="261.881" gradientTransform="matrix(.17862 0 0 .17862 -7.357 -7.55)"/><linearGradient xlink:href="#c" id="q" x1="214" y1="191.323" x2="214" y2="237.518" gradientUnits="userSpaceOnUse" gradientTransform="matrix(.18867 0 0 .18867 -9.501 -9.692)"/><linearGradient id="c"><stop offset="0" stop-color="#2c60d3" stop-opacity=".609"/><stop offset="1" stop-color="#2c60d3" stop-opacity="0"/></linearGradient><linearGradient xlink:href="#d" id="j" x1="164.302" y1="206.353" x2="230" y2="226.22" gradientUnits="userSpaceOnUse" gradientTransform="matrix(.17862 0 0 .17862 -7.327 -7.427)"/><linearGradient id="d"><stop offset="0" stop-opacity=".289"/><stop offset="1" stop-color="#c1c1c1" stop-opacity="0"/></linearGradient><linearGradient xlink:href="#d" id="k" gradientUnits="userSpaceOnUse" x1="164.302" y1="206.353" x2="230" y2="226.22" gradientTransform="matrix(-.1263 -.1263 .1263 -.1263 30.59 84.502)"/><linearGradient xlink:href="#d" id="l" gradientUnits="userSpaceOnUse" gradientTransform="matrix(-.1263 .1263 -.1263 -.1263 84.594 30.597)" x1="164.302" y1="206.353" x2="230" y2="226.22"/><linearGradient gradientTransform="matrix(.1828 0 0 .1828 -7.876 -8.07)" xlink:href="#e" id="m" x1="153.638" y1="72" x2="250.772" y2="141.165" gradientUnits="userSpaceOnUse"/><linearGradient id="e"><stop offset="0" stop-color="#da6607" stop-opacity=".355"/><stop offset="1" stop-color="#fff" stop-opacity=".243"/></linearGradient><linearGradient xlink:href="#f" id="n" x1="196" y1="124.126" x2="156.079" y2="62" gradientUnits="userSpaceOnUse" gradientTransform="matrix(.17227 0 0 .17227 -6.039 -6.22)"/><linearGradient id="f"><stop offset="0" stop-color="#763704"/><stop offset="1" stop-color="#763704" stop-opacity="0"/></linearGradient><linearGradient xlink:href="#f" id="o" gradientUnits="userSpaceOnUse" x1="196" y1="124.126" x2="156.079" y2="62" gradientTransform="rotate(-45.001 25.966 41.16) scale(.17227)"/><linearGradient xlink:href="#f" id="p" gradientUnits="userSpaceOnUse" gradientTransform="rotate(-90 30.38 36.403) scale(.17227)" x1="196" y1="124.126" x2="156.079" y2="62"/><filter id="g" x="-.012" width="1.024" y="-.012" height="1.024" color-interpolation-filters="sRGB"><feGaussianBlur stdDeviation="1.246"/></filter></defs><g><path d="M164.152 51.022a17.143 17.143 0 0 0-12.16 5.053 17.16 17.16 0 0 0 0 24.32l47.776 47.777H75.214a17.158 17.158 0 0 0-17.196 17.197 17.158 17.158 0 0 0 17.196 17.196c17.905-.05 43.299-.056 67.617-.05l-88.122 88.122a17.16 17.16 0 0 0 0 24.32 17.16 17.16 0 0 0 24.321 0c12.934-13.007 31.462-31.543 49.032-49.103 5.84 42.532 42.157 74.24 85.088 74.288 47.488 0 85.985-38.497 85.985-85.985a85.985 85.985 0 0 0-29.466-64.717c-6.366-6.35-63.542-63.38-93.359-93.365a17.138 17.138 0 0 0-12.158-5.053zm50.009 142.676c11.083 0 20.068 8.984 20.068 20.068 0 11.083-8.985 20.068-20.068 20.068-11.083 0-20.068-8.985-20.068-20.068 0-11.084 8.985-20.068 20.068-20.068z" transform="matrix(.17227 0 0 .17227 -6.039 -6.22)" fill-opacity=".203" filter="url(#g)" enable-background="new"/><path d="M22.27 2.937c-.745 0-1.49.285-2.06.855a2.906 2.906 0 0 0 0 4.118L28.3 16H7.21A2.905 2.905 0 0 0 4.3 18.91a2.905 2.905 0 0 0 2.91 2.912c3.033-.009 7.332-.01 11.45-.009L3.738 36.734a2.906 2.906 0 0 0 0 4.119 2.906 2.906 0 0 0 4.118 0c2.19-2.203 5.327-5.341 8.302-8.314a14.559 14.559 0 0 0 14.407 12.578c8.04 0 14.558-6.518 14.559-14.559a14.559 14.559 0 0 0-4.99-10.957A7271.333 7271.333 0 0 1 24.328 3.792a2.902 2.902 0 0 0-2.058-.855zm8.467 24.157a3.398 3.398 0 1 1 0 6.796 3.398 3.398 0 0 1 0-6.796z" fill="url(#h)" enable-background="new"/><path d="M30.725 19.318A11.185 11.185 0 0 0 19.54 30.503a11.185 11.185 0 0 0 11.185 11.185A11.185 11.185 0 0 0 41.91 30.503a11.185 11.185 0 0 0-11.185-11.185zm0 6.81a4.375 4.375 0 0 1 4.374 4.375 4.375 4.375 0 0 1-4.374 4.375 4.375 4.375 0 0 1-4.375-4.375 4.375 4.375 0 0 1 4.375-4.374z" fill-opacity=".099" enable-background="new"/><path d="M30.725 21.757a8.735 8.735 0 0 0-8.735 8.735 8.735 8.735 0 0 0 8.735 8.735 8.735 8.735 0 0 0 8.735-8.735 8.735 8.735 0 0 0-8.735-8.735zm0 5.319a3.416 3.416 0 0 1 3.416 3.416 3.416 3.416 0 0 1-3.416 3.416 3.416 3.416 0 0 1-3.417-3.416 3.416 3.416 0 0 1 3.417-3.416z" fill="url(#i)" enable-background="new"/><path d="M22.214 3.052c-.744 0-1.488.285-2.059.856a2.902 2.902 0 0 0-.853 2.15c.022-.714.306-1.421.853-1.968a2.903 2.903 0 0 1 4.118 0A7282.11 7282.11 0 0 0 40.08 19.898a14.559 14.559 0 0 1 4.985 10.883 14.559 14.559 0 0 0 .005-.107 14.559 14.559 0 0 0-4.99-10.958A7265.008 7265.008 0 0 1 24.274 3.908a2.903 2.903 0 0 0-2.058-.856zM7.156 16.115a2.905 2.905 0 0 0-2.912 2.912l.002.09a2.904 2.904 0 0 1 2.91-2.82h21.088l-.182-.182zm11.266 5.997L3.684 36.85A2.902 2.902 0 0 0 2.83 39c.023-.713.307-1.42.854-1.968l14.92-14.92h-.182z" opacity=".884" fill="#f5eece" fill-opacity=".672" enable-background="new"/><path d="M19.396 5.847c-.024.774.26 1.556.853 2.15l7.908 7.907h.182l-8.09-8.09a2.902 2.902 0 0 1-.853-1.967zM4.34 18.907l-.002.09A2.905 2.905 0 0 0 7.25 21.91c2.987-.009 7.205-.01 11.267-.009l.182-.182c-4.118 0-8.417 0-11.449.009a2.904 2.904 0 0 1-2.91-2.821zM45.16 30.57a14.559 14.559 0 0 1-14.556 14.452 14.559 14.559 0 0 1-14.406-12.578 4245.918 4245.918 0 0 0-8.302 8.313 2.905 2.905 0 0 1-4.118 0 2.902 2.902 0 0 1-.854-1.967c-.024.774.26 1.556.854 2.15a2.905 2.905 0 0 0 4.118 0c2.19-2.203 5.327-5.341 8.302-8.314a14.559 14.559 0 0 0 14.406 12.578 14.559 14.559 0 0 0 14.56-14.56 14.559 14.559 0 0 0-.005-.074z" fill-opacity=".552" enable-background="new"/><path d="M30.725 21.757a8.735 8.735 0 0 0-8.735 8.735 8.735 8.735 0 0 0 .007.209 8.735 8.735 0 0 1 8.728-8.587 8.735 8.735 0 0 1 8.728 8.525 8.735 8.735 0 0 0 .007-.147 8.735 8.735 0 0 0-8.735-8.735z" fill-opacity=".573" enable-background="new"/><path d="M30.684 39.268a8.735 8.735 0 0 0 8.735-8.735 8.735 8.735 0 0 0-.007-.209 8.735 8.735 0 0 1-8.728 8.587 8.735 8.735 0 0 1-8.728-8.525 8.735 8.735 0 0 0-.007.147 8.735 8.735 0 0 0 8.735 8.735z" fill="#f4f4f4" enable-background="new"/><path d="M30.756 22.062a8.735 8.735 0 0 0-8.736 8.735 8.735 8.735 0 0 0 .657 3.312l5.316-5.316a3.416 3.416 0 0 1 2.763-1.412 3.416 3.416 0 0 1 3.416 3.416 3.416 3.416 0 0 1-.84 2.24l3.763 3.763a8.735 8.735 0 0 0 2.396-6.003 8.735 8.735 0 0 0-8.735-8.735z" fill="url(#j)" enable-background="new"/><path d="M24.514 36.722a8.735 8.735 0 0 0 12.353 0 8.735 8.735 0 0 0 1.877-2.806h-7.518a3.416 3.416 0 0 1-2.951-.955 3.416 3.416 0 0 1 0-4.832 3.416 3.416 0 0 1 2.178-.99v-5.321a8.735 8.735 0 0 0-5.94 2.55 8.735 8.735 0 0 0 0 12.354z" fill="url(#k)" enable-background="new"/><path d="M36.814 36.673a8.735 8.735 0 0 0 0-12.353 8.735 8.735 0 0 0-2.806-1.878v7.518a3.416 3.416 0 0 1-.955 2.952 3.416 3.416 0 0 1-4.831 0 3.416 3.416 0 0 1-.99-2.178H21.91a8.735 8.735 0 0 0 2.55 5.94 8.735 8.735 0 0 0 12.354 0z" fill="url(#l)" enable-background="new"/><path d="M30.725 19.318A11.164 11.164 0 0 0 19.56 30.483a11.164 11.164 0 0 0 .01.283 11.164 11.164 0 0 1 11.155-10.962 11.164 11.164 0 0 1 11.154 10.88 11.164 11.164 0 0 0 .01-.201 11.164 11.164 0 0 0-11.164-11.165z" fill-opacity=".484" enable-background="new"/><path d="M30.687 42.022a11.146 11.146 0 0 0 11.146-11.147 11.146 11.146 0 0 0-.01-.283 11.146 11.146 0 0 1-11.136 10.945A11.146 11.146 0 0 1 19.55 30.675a11.146 11.146 0 0 0-.01.2 11.146 11.146 0 0 0 11.147 11.147z" fill="#fff" fill-opacity=".38" enable-background="new"/><path d="M22.27 2.937c-.745 0-1.49.285-2.06.855a2.906 2.906 0 0 0 0 4.118L28.3 16 22.27 2.937z" fill="url(#n)" enable-background="new"/><path d="M4.993 16.875a2.903 2.903 0 0 0-.851 2.06 2.906 2.906 0 0 0 2.912 2.912h11.44L4.993 16.875z" fill="url(#o)" enable-background="new"/><path d="M3.135 38.474c0 .744.285 1.489.855 2.059a2.906 2.906 0 0 0 4.118 0l8.09-8.09-13.063 6.03z" fill="url(#p)" enable-background="new"/><circle style="isolation:auto;mix-blend-mode:normal;marker:none" cx="30.727" cy="30.502" r="4.472" color="#000" display="block" overflow="visible" fill="url(#q)" paint-order="fill markers stroke" enable-background="accumulate"/><circle r="7.085" cy="30.502" cx="30.727" style="isolation:auto;mix-blend-mode:normal;marker:none" color="#000" display="block" overflow="visible" fill="none" stroke="#f4f4f4" stroke-width=".098" paint-order="fill markers stroke" enable-background="accumulate"/><circle style="isolation:auto;mix-blend-mode:normal;marker:none" cx="30.727" cy="30.502" r="5.817" color="#000" display="block" overflow="visible" fill="none" stroke="#f4f4f4" stroke-width=".081" paint-order="fill markers stroke" enable-background="accumulate"/></g></svg>