<svg xmlns="http://www.w3.org/2000/svg" xmlns:xlink="http://www.w3.org/1999/xlink" height="48" viewBox="0 0 48 48" width="48"><title>Template icons dark</title><defs><linearGradient id="c"><stop offset="0" stop-color="#dbdbdb"/><stop offset="1" stop-color="#fff"/></linearGradient><linearGradient id="a"><stop offset="0" stop-color="#343434"/><stop offset="1" stop-color="#585858"/></linearGradient><linearGradient id="b"><stop offset="0" stop-color="#0086f7"/><stop offset="1" stop-color="#60cdff"/></linearGradient><linearGradient xlink:href="#b" id="d" x1="25" y1="45.7" x2="25" y2="8.075" gradientUnits="userSpaceOnUse" gradientTransform="matrix(2.2 0 0 2.2 -28.8 -35.84)"/><linearGradient xlink:href="#c" id="e" x1="164.959" y1="189.342" x2="164.959" y2="137.236" gradientUnits="userSpaceOnUse" gradientTransform="matrix(1.01537 0 0 1.01537 -138.459 -138.459)"/><linearGradient xlink:href="#a" id="f" x1="31" y1="38.2" x2="31" y2="16.075" gradientUnits="userSpaceOnUse" gradientTransform="translate(-23.565 -29.484) scale(1.98448)"/></defs><path d="M4.219 0H43.78A4.21 4.21 0 0 1 48 4.219V43.78A4.21 4.21 0 0 1 43.781 48H4.22A4.21 4.21 0 0 1 0 43.781V4.22A4.21 4.21 0 0 1 4.219 0z" fill-opacity=".078"/><path d="M5.125 1h37.75A4.116 4.116 0 0 1 47 5.125v37.75A4.116 4.116 0 0 1 42.875 47H5.125A4.116 4.116 0 0 1 1 42.875V5.125A4.116 4.116 0 0 1 5.125 1z" fill="url(#d)"/><path d="M1 41.875v1S1 47 5.415 47h37.29C46.677 47 47 42.875 47 42.875v-1C47 43.669 45.535 46 42.705 46H5.415C3.13 46 1 44.623 1 41.875z" fill="#fff" fill-opacity=".219"/><path d="M9.318 6h29.364A3.31 3.31 0 0 1 42 9.318v30.364A3.31 3.31 0 0 1 38.682 43H9.318A3.31 3.31 0 0 1 6 39.682V9.318A3.31 3.31 0 0 1 9.318 6z" fill-opacity=".385"/><path d="M9.318 5h29.364A3.31 3.31 0 0 1 42 8.318v30.364A3.31 3.31 0 0 1 38.682 42H9.318A3.31 3.31 0 0 1 6 38.682V8.318A3.31 3.31 0 0 1 9.318 5z" fill="url(#e)"/><path d="M6 37.659v1.015a3.31 3.31 0 0 0 3.318 3.318h29.364A3.31 3.31 0 0 0 42 38.674v-1.015a3.31 3.31 0 0 1-3.318 3.317H9.318A3.31 3.31 0 0 1 6 37.66z" fill="#f8f8f8"/><path d="M10 10.992v25.134L21 36v-5h-4V16h4v-5zM27 11v5h4v15h-4v5h11V11z" fill="url(#f)"/><path d="M10 10.992v1L21 12v-1zM27 11v1h11v-1zM17 31v1h4v-1zm10 0v1h4v-1z" fill-opacity=".51"/><path d="M17 16v1h4v-1zm10 0v1h4v-1zm-6 20l-11 .127v1L21 37zm6 0v1h11v-1z" fill="#fff" fill-opacity=".948"/></svg>