<svg xmlns="http://www.w3.org/2000/svg" xmlns:xlink="http://www.w3.org/1999/xlink" height="48" viewBox="0 0 48 48" width="48" enable-background="new"><title>Template icons dark</title><defs><filter id="d" x="-.012" width="1.024" y="-.012" height="1.024" color-interpolation-filters="sRGB"><feGaussianBlur stdDeviation=".23"/></filter><linearGradient id="a"><stop offset="0" stop-color="#99c7d1"/><stop offset="1" stop-color="#e4eff7"/></linearGradient><linearGradient id="b"><stop offset="0" stop-color="#4378aa"/><stop offset="1" stop-color="#3797ca"/></linearGradient><linearGradient id="c"><stop offset="0" stop-color="#649ad2"/><stop offset="1" stop-color="#87c7e0"/></linearGradient><linearGradient gradientTransform="translate(-.457 -.457) scale(1.01902)" xlink:href="#a" id="e" x1="35.776" y1="38.187" x2="34.911" y2="20.075" gradientUnits="userSpaceOnUse"/><linearGradient gradientTransform="translate(-.457 -.457) scale(1.01902)" xlink:href="#b" id="f" x1="22.716" y1="14.943" x2="26.34" y2="-.083" gradientUnits="userSpaceOnUse"/><linearGradient gradientTransform="translate(-.457 -.457) scale(1.01902)" xlink:href="#c" id="g" gradientUnits="userSpaceOnUse" x1="8.299" y1="34.262" x2="12.224" y2="17.231"/></defs><g><circle r="23.256" cy="24" cx="24" style="isolation:auto;mix-blend-mode:normal;marker:none" color="#000" display="block" overflow="visible" opacity=".6" fill="none" stroke="#000" stroke-width="1.488" stroke-opacity=".123" paint-order="fill markers stroke" enable-background="accumulate"/><circle style="isolation:auto;mix-blend-mode:normal;marker:none" cx="24" cy="24" r="5.669" color="#000" display="block" overflow="visible" fill="#4690eb" fill-opacity=".215" paint-order="fill markers stroke" enable-background="accumulate"/><path style="isolation:auto;mix-blend-mode:normal;marker:none" d="M160.063 137.063c-12.703 0-23 10.297-23 23s10.297 23 23 23 23-10.297 23-23-10.297-23-23-23zm-.077 16.434a6.586 6.586 0 1 1 0 13.173 6.586 6.586 0 0 1 0-13.173z" transform="translate(-139.108 -139.108) scale(1.01902)" color="#000" overflow="visible" fill-opacity=".235" fill-rule="evenodd" filter="url(#d)" enable-background="accumulate"/><path d="M24 2.69C11.056 2.69 2.6 11.057 2.6 24c0 12.944 8.456 23.437 21.4 23.437 12.944 0 23.437-10.493 23.437-23.437a23.34 23.34 0 0 0-5.292-14.836C37.847 3.914 31.315 2.691 24 2.691zm-.079 14.619a6.712 6.712 0 0 1 6.712 6.712c0 3.706-3.189 6.921-6.895 6.921-3.786.393-7.116-1.803-7.263-7.288-.123-4.628 4.998-7 7.446-6.345z" fill="url(#e)" fill-rule="evenodd"/><path d="M24 .562C15.353.562 7.805 5.25 3.743 12.218l14.743 15.74c-1.232-1.635-1.276-3.345-1.276-3.937a6.708 6.708 0 0 1 6.187-6.686l21.81-3.49c-.81-1.679-1.803-3.343-2.972-4.77C37.937 3.823 31.315.561 24 .561z" fill="url(#f)" fill-rule="evenodd"/><path d="M3.15 34.71c3.95 7.692 11.568 12.265 19.622 12.696l5.631-18.396c-.42.378-.89.713-1.416.984a6.708 6.708 0 0 1-8.774-2.45L5.32 9.857a23.459 23.459 0 0 0-2.807 4.782C-.194 20.861-.19 28.203 3.15 34.71z" style="isolation:auto;mix-blend-mode:normal" color="#000" overflow="visible" fill="url(#g)" fill-rule="evenodd" enable-background="accumulate"/><path style="font-variant-east_asian:normal" d="M5.244 9.702L17.55 21.92s-.51 1.558-.308 2.928c.195 1.327.833 2.476.833 2.476zM45.113 13.869L28.95 19.545S27.832 18.4 26.84 17.97c-1.82-.788-3.136-.678-3.136-.678zM22.775 47.425l1.584-16.698s1.133-.004 2.75-.785c.479-.231 1.296-.93 1.296-.93z" fill-opacity=".11" fill-rule="evenodd"/></g></svg>