<svg xmlns="http://www.w3.org/2000/svg" xmlns:xlink="http://www.w3.org/1999/xlink" height="48" viewBox="0 0 48 48" width="48"><title>Template icons dark</title><defs><linearGradient id="a"><stop offset="0" stop-color="#ba0049"/><stop offset="1" stop-color="#ff1edc"/></linearGradient><linearGradient id="b"><stop offset="0" stop-color="#00c640"/><stop offset="1" stop-color="#3bcfd5"/></linearGradient><linearGradient id="c"><stop offset="0" stop-color="#118fff"/><stop offset="1" stop-color="#00f5ab"/></linearGradient><linearGradient xlink:href="#a" id="d" gradientUnits="userSpaceOnUse" gradientTransform="translate(-1.946 -5.399) scale(1.15314)" x1="40.461" y1="43.461" x2="24.042" y2="10.5"/><linearGradient xlink:href="#b" id="e" x1="34.931" y1="44.25" x2="8.627" y2="40.5" gradientUnits="userSpaceOnUse" gradientTransform="translate(-1.946 -5.399) scale(1.15314)"/><linearGradient xlink:href="#c" id="f" gradientUnits="userSpaceOnUse" gradientTransform="translate(-1.946 -5.399) scale(1.15314)" x1="19.466" y1="20.754" x2="8.839" y2="39.161"/></defs><g fill-rule="evenodd"><path d="M25.681 37.5L17 34.008l7.976-6.508zM24.031 0L8 32 0 48h48z" fill-opacity=".174"/><path d="M24 1.47l22.702 45.406H27.243z" fill="url(#d)"/><path d="M1.298 46.876L8.865 31.74l37.837 15.135z" fill="url(#e)"/><path d="M1.298 46.876L8.865 31.74l14.56 5.833z" fill-opacity=".325"/><path d="M24 1.47L1.298 46.877 25.68 25.014z" fill="url(#f)"/><path d="M1.298 46.876l14.047-12.57 19.543 7.853z" fill-opacity=".174"/><path d="M26.088 30.486l20.614 16.39-20.031-8.013z" fill-opacity=".261"/><path d="M24 1.47l-2.284 27.057 3.965-3.513z" fill-opacity=".236"/><path d="M24 1.47L12.715 36.638 25.68 25.014zM25.217 17.737l21.485 29.139-20.031-8.013z" fill-opacity=".174"/><path d="M24 1.47l.875 24.244.806-.7zM26.608 37.324l20.094 9.552-20.031-8.013zM1.298 46.876l14.047-12.57 1.43.582z" fill-opacity=".157"/></g></svg>