<svg xmlns="http://www.w3.org/2000/svg" xmlns:xlink="http://www.w3.org/1999/xlink" height="48" viewBox="0 0 48 48" width="48"><title>Template icons dark</title><defs><linearGradient id="b"><stop offset="0" stop-color="#7da2db"/><stop offset=".399" stop-color="#555dbb"/><stop offset="1" stop-color="#b985b0"/></linearGradient><linearGradient id="a"><stop offset="0" stop-color="#0b1528"/><stop offset="1" stop-color="#473d49"/></linearGradient><linearGradient xlink:href="#a" id="e" gradientUnits="userSpaceOnUse" gradientTransform="matrix(1.0687 0 0 .9825 21.039 24.83)" x1="152.009" y1="127.834" x2="152.009" y2="94.362"/><linearGradient xlink:href="#b" id="f" gradientUnits="userSpaceOnUse" gradientTransform="matrix(.95833 0 0 .86707 6.666 17.813)" x1="183" y1="155" x2="132.898" y2="114"/><linearGradient xlink:href="#a" id="c" gradientUnits="userSpaceOnUse" gradientTransform="matrix(1.0687 0 0 .9825 21.039 24.83)" x1="152.009" y1="127.834" x2="152.009" y2="94.362"/><linearGradient xlink:href="#b" id="d" gradientUnits="userSpaceOnUse" gradientTransform="matrix(.95833 0 0 .86707 6.666 17.813)" x1="183" y1="155" x2="132.898" y2="114"/></defs><g><rect style="isolation:auto;mix-blend-mode:normal;marker:none" width="48" height="8.348" y="19.763" ry="0" color="#000" overflow="visible" fill-opacity=".157"/><g transform="matrix(.52174 0 0 .52174 -59.478 -34.913)"><rect style="marker:none" width="92" height="38.333" x="114" y="114.833" ry="1.321" fill="url(#c)"/><rect ry=".4" y="115.792" x="114.958" height="36.417" width="90.083" style="marker:none" fill="none" stroke="url(#d)" stroke-width="1.917"/><rect style="isolation:auto;mix-blend-mode:normal;marker:none" width="17.25" height="5.75" x="142.75" y="141.667" ry="0" color="#000" overflow="visible" fill="#d8e6ff"/><path d="M128.697 141.783q1.047 0 1.745-.143.727-.172 1.134-.458.407-.315.581-.716.175-.429.175-.915 0-.716-.349-1.202-.349-.515-.96-.887-.581-.401-1.337-.687-.756-.315-1.57-.601-.786-.286-1.571-.63-.756-.343-1.367-.83-.581-.515-.96-1.202-.378-.715-.378-1.745 0-1.832 1.106-2.977 1.105-1.145 3.198-1.46v-2.947h2.152v2.862q1.164.057 2.123.286.989.2 1.57.43l-.494 2.003q-.61-.23-1.541-.458-.93-.258-2.356-.258-1.57 0-2.413.572-.815.573-.815 1.66 0 .601.233 1.002.262.4.727.715.465.315 1.076.573.64.257 1.425.544.989.372 1.92.8.93.402 1.628.974.698.572 1.105 1.374.436.8.436 1.917 0 1.688-1.134 2.862-1.134 1.173-3.49 1.46v3.29h-2.152v-3.205q-1.832-.057-2.966-.4-1.134-.344-1.686-.659l.64-1.974q.784.372 1.86.715 1.076.315 2.705.315z" style="line-height:10;-inkscape-font-specification:'Ubuntu Mono';isolation:auto;mix-blend-mode:normal;marker:none" color="#000" font-weight="400" font-size="28.848" font-family="Ubuntu Mono" letter-spacing="0" word-spacing="0" fill="#fff" fill-opacity=".984"/></g><g transform="matrix(.52174 0 0 .52174 -59.478 -56.913)"><rect ry="1.321" y="114.833" x="114" height="38.333" width="92" style="marker:none" fill="url(#e)"/><rect style="marker:none" width="90.083" height="36.417" x="114.958" y="115.792" ry=".4" fill="none" stroke="url(#f)" stroke-width="1.917"/><rect ry="0" y="141.667" x="142.75" height="5.75" width="17.25" style="isolation:auto;mix-blend-mode:normal;marker:none" color="#000" overflow="visible" fill="#d8e6ff"/><path style="line-height:10;-inkscape-font-specification:'Ubuntu Mono';isolation:auto;mix-blend-mode:normal;marker:none" d="M128.697 141.783q1.047 0 1.745-.143.727-.172 1.134-.458.407-.315.581-.716.175-.429.175-.915 0-.716-.349-1.202-.349-.515-.96-.887-.581-.401-1.337-.687-.756-.315-1.57-.601-.786-.286-1.571-.63-.756-.343-1.367-.83-.581-.515-.96-1.202-.378-.715-.378-1.745 0-1.832 1.106-2.977 1.105-1.145 3.198-1.46v-2.947h2.152v2.862q1.164.057 2.123.286.989.2 1.57.43l-.494 2.003q-.61-.23-1.541-.458-.93-.258-2.356-.258-1.57 0-2.413.572-.815.573-.815 1.66 0 .601.233 1.002.262.4.727.715.465.315 1.076.573.64.257 1.425.544.989.372 1.92.8.93.402 1.628.974.698.572 1.105 1.374.436.8.436 1.917 0 1.688-1.134 2.862-1.134 1.173-3.49 1.46v3.29h-2.152v-3.205q-1.832-.057-2.966-.4-1.134-.344-1.686-.659l.64-1.974q.784.372 1.86.715 1.076.315 2.705.315z" color="#000" font-weight="400" font-size="28.848" font-family="Ubuntu Mono" letter-spacing="0" word-spacing="0" fill="#fff" fill-opacity=".984"/></g></g></svg>