<svg xmlns="http://www.w3.org/2000/svg" xmlns:xlink="http://www.w3.org/1999/xlink" height="48" viewBox="0 0 48 48" width="48"><title>Template icons dark</title><defs><linearGradient id="q"><stop offset="0" stop-color="#c3c3c3"/><stop offset=".5" stop-color="#fff"/><stop offset="1" stop-color="#fff"/></linearGradient><linearGradient id="r"><stop offset="0" stop-color="#bababa" stop-opacity=".957"/><stop offset=".5" stop-color="#fff" stop-opacity=".827"/><stop offset="1" stop-color="#fff"/></linearGradient><linearGradient id="p"><stop offset="0" stop-opacity=".203"/><stop offset="1" stop-opacity="0"/></linearGradient><linearGradient id="o"><stop offset="0"/><stop offset="1" stop-opacity="0"/></linearGradient><linearGradient id="n"><stop offset="0" stop-color="#c6c6c6"/><stop offset="1" stop-color="#d2d2d2"/></linearGradient><linearGradient id="m"><stop offset="0" stop-color="#374359"/><stop offset="1" stop-color="#202733" stop-opacity=".953"/></linearGradient><linearGradient id="l"><stop offset="0" stop-color="#252525"/><stop offset="1" stop-color="#3d3d3d"/></linearGradient><linearGradient id="k"><stop offset="0" stop-opacity=".214"/><stop offset="1" stop-color="#fff"/></linearGradient><linearGradient id="j"><stop offset="0" stop-color="#bababa"/><stop offset="1" stop-color="#c9cbc9"/></linearGradient><linearGradient id="i"><stop offset="0" stop-opacity=".417"/><stop offset="1" stop-opacity="0"/></linearGradient><linearGradient id="h"><stop offset="0" stop-color="#fff"/><stop offset="1" stop-opacity=".792"/></linearGradient><linearGradient id="g"><stop offset="0" stop-color="#a6afb1"/><stop offset="1" stop-color="#c7cdcd"/></linearGradient><linearGradient id="d"><stop offset="0" stop-opacity=".125"/><stop offset="1" stop-color="#4bd865" stop-opacity="0"/></linearGradient><linearGradient id="c"><stop offset="0" stop-color="#80e493"/><stop offset="1" stop-color="#4bd865"/></linearGradient><linearGradient id="b"><stop offset="0" stop-color="#fff"/><stop offset="1" stop-color="#dadada"/></linearGradient><linearGradient id="e"><stop offset="0" stop-color="#bababa" stop-opacity=".957"/><stop offset=".17" stop-color="#fff" stop-opacity=".827"/><stop offset="1" stop-color="#fff"/></linearGradient><linearGradient id="f"><stop offset="0" stop-color="#c3c3c3"/><stop offset=".252" stop-color="#fff"/><stop offset="1" stop-color="#fff"/></linearGradient><linearGradient id="a"><stop offset="0" stop-color="#dadada"/><stop offset="1" stop-color="#fff"/></linearGradient><linearGradient xlink:href="#n" id="C" gradientUnits="userSpaceOnUse" gradientTransform="matrix(-.33862 0 0 .34374 116.128 -30.69)" x1="186.244" y1="149" x2="186.244" y2="159.943"/><linearGradient xlink:href="#p" id="D" x1="193" y1="150.033" x2="193" y2="158" gradientUnits="userSpaceOnUse" gradientTransform="translate(-44.53 -57.515) scale(.5166)"/><linearGradient xlink:href="#f" id="B" x1="-23.835" y1="47.253" x2="-23.835" y2="57.711" gradientUnits="userSpaceOnUse" gradientTransform="matrix(1.28589 0 0 1.28352 55.615 -28.71)"/><linearGradient gradientTransform="translate(-58.736 -57.001) scale(.5166)" xlink:href="#l" id="A" x1="164.79" y1="170.337" x2="164.79" y2="181.809" gradientUnits="userSpaceOnUse"/><linearGradient xlink:href="#k" id="z" x1="128" y1="141.741" x2="128" y2="146.399" gradientUnits="userSpaceOnUse" gradientTransform="translate(-58.736 -54.935) scale(.5166)"/><linearGradient xlink:href="#i" id="y" gradientUnits="userSpaceOnUse" x1="160" y1="168" x2="160" y2="171" gradientTransform="translate(-62.868 -57.82) scale(.5166)"/><linearGradient gradientTransform="translate(.726 2.47) scale(.96447)" xlink:href="#e" id="x" x1="23.75" y1="11.188" x2="23.75" y2="2.875" gradientUnits="userSpaceOnUse"/><linearGradient gradientTransform="translate(-58.736 -57.001) scale(.5166)" xlink:href="#m" id="w" x1="160.584" y1="120.75" x2="160.584" y2="137.129" gradientUnits="userSpaceOnUse"/><linearGradient xlink:href="#a" id="v" gradientUnits="userSpaceOnUse" gradientTransform="translate(31.28 12.993) scale(.3208)" x1="17.92" y1="19.84" x2="17.92" y2="11.307"/><linearGradient xlink:href="#c" id="t" x1="186.244" y1="149" x2="186.244" y2="159.943" gradientUnits="userSpaceOnUse" gradientTransform="matrix(.33862 0 0 .34374 -23.084 -34.586)"/><linearGradient xlink:href="#o" id="u" x1="195" y1="140" x2="195" y2="147.803" gradientUnits="userSpaceOnUse" gradientTransform="translate(-58.736 -56.244) scale(.5166)"/><linearGradient xlink:href="#b" id="s" x1="163" y1="146.121" x2="163" y2="179.803" gradientUnits="userSpaceOnUse" gradientTransform="matrix(.5166 0 0 .55444 -58.736 -67.428)"/><linearGradient xlink:href="#a" id="E" gradientUnits="userSpaceOnUse" gradientTransform="matrix(-.3208 0 0 .3208 47.72 18.993)" x1="17.92" y1="19.84" x2="17.92" y2="11.307"/></defs><path d="M14 3v1h-1v6h-2v3H.984L0 13.984v20.032l1 1L6 35l4-4h28l4 4 5 .016 1-1L48.016 14 47 13H37v-3h-2V4h-1V3z" style="isolation:auto;mix-blend-mode:normal;marker:none" color="#000" overflow="visible" fill-opacity=".182" paint-order="fill markers stroke"/><path d="M1 15l1-1h44l1 1v18l-1 1h-3l-4-4H9l-4 4H2l-1-1z" style="isolation:auto;mix-blend-mode:normal;marker:none" color="#000" display="block" overflow="visible" fill="url(#s)" paint-order="fill markers stroke"/><path d="M37 16h5c1 0 2 1.044 2 2 0 1-1 2-2 2h-5c-.991 0-2-1-2-2s1-2 2-2z" fill="url(#t)" stroke="url(#u)" stroke-width=".258" stroke-miterlimit="4.6" stroke-opacity=".161"/><path d="M38.76 18.235a1.691 1.691 0 0 1-3.383 0 1.67 1.67 0 0 1 1.691-1.667 1.67 1.67 0 0 1 1.691 1.667z" fill-opacity=".202"/><path d="M38.735 17.966a1.691 1.691 0 1 1-3.382 0 1.67 1.67 0 0 1 1.69-1.668 1.67 1.67 0 0 1 1.692 1.668z" fill="url(#v)" stroke="#19b796" stroke-width=".128" stroke-miterlimit="4.6" stroke-opacity=".283"/><path style="isolation:auto;mix-blend-mode:normal" d="M14 5v6h-2v3h24v-3h-2V5z" color="#000" overflow="visible" fill="url(#w)"/><path d="M15 4h18v10H15z" style="isolation:auto;mix-blend-mode:normal" color="#000" overflow="visible" fill="url(#x)"/><path d="M10.152 28.97h27.753c.603 0 1.033.43 1.033 1.033s-.43 1.033-1.033 1.033H10.152c-.603 0-1.034-.43-1.034-1.033s.43-1.033 1.034-1.033z" style="isolation:auto;mix-blend-mode:normal;marker:none" color="#000" display="block" overflow="visible" fill="url(#y)" paint-order="fill markers stroke"/><path d="M8.423 19.456a1.033 1.033 0 1 1-2.067 0 1.033 1.033 0 0 1 2.067 0z" style="isolation:auto;mix-blend-mode:normal;marker:none" color="#000" display="block" overflow="visible" fill="#2db887" fill-opacity=".578" stroke="url(#z)" stroke-width=".207" paint-order="fill markers stroke"/><path d="M11 31h27l4 6H6z" style="isolation:auto;mix-blend-mode:normal" color="#000" overflow="visible" fill="url(#A)"/><path d="M12.102 31h23.796L42 43H6z" style="isolation:auto;mix-blend-mode:normal" color="#000" overflow="visible" fill="url(#B)" stroke="#828282" stroke-width=".308"/><path d="M23.946 41.835c-1.534-.184-2.924-.878-3.847-1.923a4.63 4.63 0 0 1-.88-1.463 4.012 4.012 0 0 1-.045-2.563c.511-1.54 1.93-2.72 3.781-3.147a6.886 6.886 0 0 1 3.084.035c.86.216 1.588.565 2.302 1.103.27.204.402.345.492.529.088.18.093.277.021.41-.119.217-.483.365-.89.36a1.348 1.348 0 0 1-.598-.13c-.144-.065-.166-.084-.32-.287a3.38 3.38 0 0 0-.615-.646 2.896 2.896 0 0 0-1.8-.683c-2.122-.024-3.616 2.439-2.974 4.9.345 1.322 1.214 2.325 2.325 2.684.62.2 1.22.174 1.834-.077a2.96 2.96 0 0 0 1.078-.777c.236-.27.345-.357.556-.442.174-.07.186-.072.446-.07.252.004.277.008.427.07.197.082.375.21.443.319.04.063.05.108.044.196-.01.146-.103.255-.405.479-.887.656-1.901 1.033-3.068 1.141a9.045 9.045 0 0 1-1.391-.018zm-.108-3.319c-.093-.04-.158-.108-.16-.167-.002-.066.147-.063.201.005.075.093.333.083.33-.013 0-.052-.05-.074-.266-.116-.177-.035-.245-.093-.247-.211-.001-.072.013-.105.067-.155.06-.057.085-.065.227-.07.13-.006.174 0 .242.036.08.042.14.117.141.176.001.053-.148.034-.206-.025-.038-.04-.073-.053-.14-.054-.11-.001-.139.013-.138.071.001.051.051.075.252.117.175.037.26.105.262.21.003.154-.117.232-.351.23a.696.696 0 0 1-.214-.034zm1.645.019c-.093-.04-.158-.109-.16-.167-.002-.067.147-.063.201.004.075.094.333.084.33-.013 0-.05-.05-.073-.266-.115-.177-.035-.245-.093-.247-.212-.001-.071.013-.104.067-.154.06-.058.084-.065.227-.07.13-.006.174 0 .241.035.08.042.141.117.142.177.001.052-.148.034-.206-.025-.038-.04-.073-.054-.14-.054-.11-.001-.139.013-.138.071.001.051.05.074.252.117.175.037.26.105.262.21.003.153-.117.232-.352.229a.697.697 0 0 1-.213-.033zm-.72-.143c-.012-.133-.026-.164-.153-.348-.077-.11-.135-.208-.128-.217.006-.01.055-.016.108-.015.095.002.098.003.173.133.041.072.085.131.097.131.012 0 .053-.058.09-.13.069-.128.07-.13.167-.128.053 0 .102.008.109.017.006.009-.048.105-.12.215-.122.18-.134.211-.14.344l-.007.146-.092-.002-.091-.001zm1.622-.113c-.003-.19-.014-.286-.034-.302a.293.293 0 0 0-.133-.026c-.1 0-.105-.003-.106-.061v-.06l.362.004.363.004.001.06c.002.058-.004.06-.103.06-.057 0-.117.009-.132.022-.02.016-.028.112-.024.301l.005.278-.097-.002-.097-.002zm.58-.078l-.007-.362.314.003.315.004.001.06.002.06-.21.003c-.167.003-.214.01-.234.038-.02.025-.019.045 0 .07.022.028.072.039.22.048.184.012.19.014.191.063.002.048-.005.05-.18.054-.2.004-.242.022-.24.1.001.087.04.103.273.105l.212.003.002.06v.06l-.326-.003-.326-.004zm.798.007l-.007-.363.14.008.138.007.065.218c.036.12.076.22.089.222.013.002.05-.095.082-.216l.058-.22.137-.005.138-.004.007.363.006.362h-.085l-.084-.002-.004-.175c-.005-.257-.036-.267-.1-.034l-.054.198-.097-.002-.096-.002-.061-.199c-.073-.235-.103-.226-.099.031l.003.176h-.085l-.084-.002-.007-.363zm1.04-.65a.477.477 0 0 1-.207-.19.574.574 0 0 1-.029-.181.351.351 0 0 1 .17-.32c.093-.058.337-.065.452-.015.089.04.187.154.162.189-.03.04-.17.02-.227-.032-.062-.06-.183-.07-.263-.024-.066.038-.105.195-.076.298.04.138.15.194.288.146.072-.024.113-.076.087-.11-.008-.01-.046-.019-.085-.02-.063 0-.07-.008-.072-.06l-.001-.061.181.002.182.002.003.191c.003.186.002.191-.052.19a.153.153 0 0 1-.082-.022c-.02-.016-.048-.013-.1.009a.601.601 0 0 1-.33.009zm-5.098-.42l-.007-.362.256.003c.25.003.257.004.328.062.062.052.072.075.073.174.002.098-.007.12-.067.171-.06.05-.088.058-.2.057a.393.393 0 0 0-.159.022c-.015.013-.027.072-.026.13l.002.107-.097-.002-.097-.002zm.418-.054c.037-.031.022-.128-.025-.156-.055-.034-.137-.036-.175-.005-.037.031-.034.142.005.174.032.028.157.018.195-.014zm.38.063l-.006-.362.292.003c.29.003.292.004.364.063.084.07.097.174.034.264-.032.046-.034.067-.012.104a.621.621 0 0 1 .045.173l.018.127-.105-.007-.104-.007-.018-.108c-.02-.127-.035-.142-.152-.159-.129-.02-.161.013-.158.155l.002.118-.097-.002-.097-.002zm.445-.055c.047-.015.061-.033.06-.08 0-.067-.065-.101-.191-.103-.084 0-.124.032-.123.1 0 .028.014.063.03.076.036.03.14.033.224.008zm.426.065l-.007-.362.097.002.097.001.006.362.007.362-.097-.001-.097-.002zm.363.002l-.007-.363.103.007.103.008.146.207c.08.114.155.203.167.197.011-.006.019-.1.017-.21l-.003-.2h.084l.085.001.006.363.007.364-.1-.008c-.1-.007-.102-.008-.24-.207-.077-.11-.15-.2-.163-.198-.014.002-.026.089-.028.203l-.003.201h-.084l-.084-.002zm1.066.098c-.004-.189-.015-.285-.035-.302a.293.293 0 0 0-.133-.025c-.1-.001-.104-.004-.105-.062l-.002-.06.363.004.363.004.001.06c.002.058-.004.06-.103.06-.057 0-.117.009-.132.022-.02.016-.027.112-.024.301l.005.278-.097-.002-.097-.002zm.579-.078l-.007-.362.097.002.097.002.006.362.007.362-.097-.002-.097-.002zm.363.003l-.007-.363.103.007.103.007.146.208c.08.114.155.202.166.196.012-.005.02-.1.018-.21l-.004-.2h.085l.085.002.006.363.007.363-.1-.007c-.1-.007-.102-.008-.24-.208-.077-.11-.15-.2-.163-.198-.014.002-.026.09-.028.204l-.004.2h-.083l-.084-.001zm-3.913-.718c-.12-.055-.141-.12-.147-.432l-.005-.282.094.002.095.001.013.269c.015.3.032.335.16.337.127 0 .143-.034.147-.334l.004-.268.094.001.094.002.005.282c.006.315-.014.378-.136.43a.762.762 0 0 1-.418-.006zm.725-.344l-.006-.363.103.008.103.007.145.207c.08.114.155.203.167.197.012-.006.02-.1.018-.21l-.004-.2h.085l.084.002.007.363.006.363-.1-.007c-.1-.007-.101-.008-.24-.208-.076-.11-.15-.199-.163-.198-.014.003-.025.09-.027.204l-.004.201h-.084l-.084-.002zm.871.012l-.006-.362.096.001.097.002.007.362.006.362-.096-.002-.097-.002zm.311.349c-.006-.01.04-.087.105-.171a.887.887 0 0 0 .116-.178.92.92 0 0 0-.112-.177 1.347 1.347 0 0 1-.111-.167c0-.008.048-.014.107-.013.101 0 .112.006.165.082.031.044.067.08.08.081.014 0 .046-.033.072-.074.043-.069.057-.076.162-.08.063-.003.115.003.115.012 0 .01-.048.082-.106.161a.776.776 0 0 0-.106.17c0 .014.056.098.124.186.07.09.115.168.103.178-.011.01-.062.014-.114.01-.082-.006-.1-.019-.152-.094-.032-.047-.07-.086-.086-.086-.016 0-.057.04-.093.09-.058.081-.072.089-.16.088-.053-.001-.102-.009-.109-.018z" fill-opacity=".208"/><path d="M24.494 41.481a4.158 4.158 0 0 1-2.328-.977 4.335 4.335 0 0 1-1.336-4.7c.12-.354.335-.772.544-1.058a3.954 3.954 0 0 1 1.93-1.437c.472-.162.796-.213 1.331-.206.417.005.657.037 1.015.133.282.076.793.296 1.062.457.444.266.932.714 1.25 1.148.24.327.24.349.073.347-.181-.002-.402-.019-.58-.093-.167-.069-.239-.073-.362-.243-.39-.538-.875-.97-1.443-1.196-.58-.23-1.204-.296-1.786-.119-.902.274-1.653 1.008-2.05 2.005-.23.578-.32 1.092-.308 1.76.011.63.2 1.197.435 1.735.096.22.391.725.53.905.91 1.185 2.16 1.447 3.403.938.382-.157.825-.494 1.1-.822.186-.222.283-.28.442-.36.196-.098.558-.072.684-.042.084.02-.392.62-.748.916a3.896 3.896 0 0 1-1.975.88c-.209.03-.707.047-.883.029z" fill-opacity=".208"/><path d="M42 22h-5c-1 0-2 1.044-2 2 0 1 1 2 2 2h5c.991 0 2-1 2-2s-1-2-2-2z" fill="url(#C)" stroke="url(#D)" stroke-width=".258" stroke-miterlimit="4.6"/><path d="M40.24 24.235a1.691 1.691 0 0 0 3.383 0 1.67 1.67 0 0 0-1.691-1.667 1.67 1.67 0 0 0-1.691 1.667z" fill-opacity=".202"/><path d="M40.265 23.966a1.691 1.691 0 1 0 3.382 0 1.67 1.67 0 0 0-1.69-1.668 1.67 1.67 0 0 0-1.692 1.668z" fill="url(#E)" stroke="#19b796" stroke-width=".128" stroke-miterlimit="4.6" stroke-opacity=".283"/></svg>