<svg xmlns="http://www.w3.org/2000/svg" xmlns:xlink="http://www.w3.org/1999/xlink" height="48" viewBox="0 0 48 48" width="48"><title>Template icons dark</title><defs><linearGradient id="j"><stop offset="0" stop-color="#aa70ce"/><stop offset="1" stop-color="#e2268d"/></linearGradient><linearGradient id="i"><stop offset="0" stop-color="#fff" stop-opacity=".225"/><stop offset="1" stop-color="#fff" stop-opacity=".093"/></linearGradient><linearGradient id="a"><stop offset="0" stop-color="#fff" stop-opacity=".105"/><stop offset="1" stop-color="#fff" stop-opacity=".414"/></linearGradient><linearGradient id="b"><stop offset="0" stop-color="#4b4b4b"/><stop offset=".139" stop-color="#ddd"/><stop offset=".303" stop-color="#838383"/><stop offset=".455" stop-color="#fff"/><stop offset=".522" stop-color="#fff"/><stop offset=".731" stop-color="#5f5f5f"/><stop offset=".931" stop-color="#fff"/><stop offset="1" stop-color="#505050"/></linearGradient><linearGradient id="c"><stop offset="0" stop-color="#fcfcfc"/><stop offset=".512" stop-color="#7c7c7c"/><stop offset=".904" stop-color="#fcfcfc"/><stop offset="1" stop-color="#b5b5b5"/></linearGradient><linearGradient id="d"><stop offset="0" stop-opacity="0"/><stop offset="1" stop-color="#919191" stop-opacity=".502"/></linearGradient><linearGradient id="e"><stop offset="0" stop-color="#15b5ff"/><stop offset="1" stop-color="#1385ff"/></linearGradient><linearGradient id="f"><stop offset="0" stop-color="#42ec81"/><stop offset="1" stop-color="#3add5c"/></linearGradient><linearGradient id="g"><stop offset="0" stop-color="#ff8300"/><stop offset="1" stop-color="#ff5b00"/></linearGradient><linearGradient id="h"><stop offset="0" stop-color="#f72424" stop-opacity=".066"/><stop offset="1" stop-color="#f72424" stop-opacity=".118"/></linearGradient><linearGradient xlink:href="#c" id="p" x1="11.592" y1="14.007" x2="28.333" y2="31.765" gradientUnits="userSpaceOnUse" gradientTransform="matrix(1.4968 0 0 1.4968 -10.673 -16.254)"/><linearGradient xlink:href="#d" id="q" x1="8.57" y1="18.196" x2="28.333" y2="31.765" gradientUnits="userSpaceOnUse" gradientTransform="matrix(1.4968 0 0 1.4968 -10.673 -16.254)"/><linearGradient xlink:href="#a" id="o" x1="20.54" y1="20.256" x2="17.967" y2="15.009" gradientUnits="userSpaceOnUse" gradientTransform="matrix(1.4968 0 0 1.4968 -10.673 -16.254)"/><linearGradient xlink:href="#b" id="m" gradientUnits="userSpaceOnUse" gradientTransform="matrix(.5671 .56157 -1.11238 1.14519 196.997 109.169)" x1="45.878" y1="34.792" x2="45.869" y2="42.694"/><linearGradient xlink:href="#b" id="n" gradientUnits="userSpaceOnUse" gradientTransform="matrix(.7981 0 0 1.5965 225.755 -64.719)" x1="45.878" y1="34.792" x2="46.015" y2="47.577"/><linearGradient xlink:href="#j" id="k" x1="151.346" y1="136.33" x2="151.346" y2="165" gradientUnits="userSpaceOnUse"/><linearGradient xlink:href="#i" id="l" gradientUnits="userSpaceOnUse" gradientTransform="translate(2 2)" x1="149.661" y1="137.417" x2="149.661" y2="161"/></defs><path style="isolation:auto;mix-blend-mode:normal;marker:none" d="M8 8h21v21H8z" color="#000" display="block" overflow="visible" fill-opacity=".143" paint-order="fill markers stroke"/><path d="M131.134 131.02v38h38v-38zm6 6h26v26h-26z" style="isolation:auto;mix-blend-mode:normal;marker:none" color="#000" display="block" overflow="visible" fill="url(#k)" paint-order="fill markers stroke" transform="matrix(.5 0 0 .5 -56.567 -56.51)"/><path d="M137.134 137.02h26v26h-26z" style="isolation:auto;mix-blend-mode:normal;marker:none" color="#000" display="block" overflow="visible" fill="url(#l)" paint-order="fill markers stroke" transform="matrix(.5 0 0 .5 -56.567 -56.51)"/><path d="M10.966 15.18l8.137 10.849L36.958 5.674l-17.855 14.93z" fill-opacity=".247" fill-rule="evenodd"/><path d="M10.863 13.576L19 24.424 37.43 4.761 19 19z" fill="#fff" fill-rule="evenodd"/><path style="isolation:auto;mix-blend-mode:normal;marker:none" d="M12 12h13v1H12z" color="#000" display="block" overflow="visible" fill-opacity=".456" paint-order="fill markers stroke"/><path d="M12 24h13v1H12z" style="isolation:auto;mix-blend-mode:normal;marker:none" color="#000" display="block" overflow="visible" fill="#fff" fill-opacity=".11" paint-order="fill markers stroke"/><g><path d="M180.51 170.87l5.744 5.435-9.088 9.234-5.558-5.503z" fill="url(#m)" transform="matrix(.52174 0 0 .52174 -59.753 -59.326)"/><path d="M258.257-9.374h22.38c1.012 0 1.826.815 1.826 1.827V8.935a1.823 1.823 0 0 1-1.826 1.826h-22.38a1.823 1.823 0 0 1-1.827-1.826V-7.547c0-1.012.815-1.827 1.827-1.827z" transform="matrix(.37073 .3671 -.36352 .37425 -59.753 -59.326)" fill="url(#n)"/><path d="M46.493 39.022l1.262 1.236c.258.254.322.895.005 1.22l-6.135 6.314c-.256.263-.888.274-1.183-.017l-1.335-1.317c3.154-2.992 5.439-5.098 7.386-7.436zM38.883 31.466l1.136 1.106c-2.989 2.482-4.742 4.242-7.343 7.507l-1.087-1.068c-.07-.07-.105-.306-.046-.365l7.108-7.195c.058-.06.161-.053.232.015z" fill="#570000" fill-opacity=".563"/></g><path d="M19.324 1.317c-9.225 0-17.886 8.311-17.886 17.536 0 9.224 8.456 17.543 17.68 17.543s17.406-8.182 17.406-17.406c0-9.225-7.976-17.673-17.2-17.673zm-.206 1.285c8.128 0 14.672 7.093 14.672 15.221a14.64 14.64 0 0 1-14.672 14.672A14.64 14.64 0 0 1 4.446 17.823c0-8.128 6.543-15.221 14.672-15.221z" fill="#050505" fill-opacity=".13"/><path d="M19.287 5.193c-.961-.038-1.924.048-2.861.278C7.098 7.766 3.822 16.078 6.646 19.13c2.3 2.488 4.42-2.274 10.893-3.83 6.473-1.557 10.055 3.109 12.06.433 3.025-4.037-3.587-10.279-10.312-10.54zm11.018 13.31c-.95-.082-1.95.66-2.334 1.737-.438 1.233.027 2.633 1.081 3.007 1.054.375 2.297-.419 2.735-1.651.438-1.232-.028-2.63-1.081-3.005a1.61 1.61 0 0 0-.401-.088z" fill="url(#o)"/><path d="M18.888.11A18.737 18.737 0 0 0 .11 18.888a18.737 18.737 0 0 0 18.778 18.779 18.737 18.737 0 0 0 18.778-18.779A18.737 18.737 0 0 0 18.888.11zm0 1.457A17.283 17.283 0 0 1 36.21 18.888 17.283 17.283 0 0 1 18.89 36.21 17.283 17.283 0 0 1 1.566 18.888a17.283 17.283 0 0 1 17.321-17.32z" fill="url(#p)" stroke="url(#q)" stroke-width=".22"/></svg>