<svg xmlns="http://www.w3.org/2000/svg" xmlns:xlink="http://www.w3.org/1999/xlink" height="48" viewBox="0 0 48 48" width="48" enable-background="new"><title>Template icons dark</title><defs><linearGradient id="d"><stop offset="0" stop-color="#d4d4d4"/><stop offset="1" stop-color="#fbfbfb"/></linearGradient><linearGradient id="a"><stop offset="0" stop-color="#9a9a9a" stop-opacity=".973"/><stop offset="1" stop-color="#f4f4f4"/></linearGradient><linearGradient id="b"><stop offset="0" stop-color="#825cf4"/><stop offset="1" stop-color="#3958ef"/></linearGradient><linearGradient id="c"><stop offset="0" stop-color="#eaf2f7"/><stop offset="1" stop-color="#99b4c0"/></linearGradient><linearGradient gradientTransform="matrix(.375 0 0 .375 -78 -79.126)" xlink:href="#d" id="h" x1="276.22" y1="292" x2="276.22" y2="276.22" gradientUnits="userSpaceOnUse"/><linearGradient gradientTransform="matrix(.9492 0 0 .9492 1.219 -3.068)" xlink:href="#b" id="g" x1="23.375" y1="41.2" x2="23.375" y2="13.95" gradientUnits="userSpaceOnUse"/><linearGradient xlink:href="#b" id="f" gradientUnits="userSpaceOnUse" x1="23.375" y1="41.2" x2="23.375" y2="13.95" gradientTransform="matrix(.9492 0 0 .9492 -2.676 .438)"/><filter id="e" x="-.021" width="1.042" y="-.028" height="1.055" color-interpolation-filters="sRGB"><feGaussianBlur stdDeviation=".423"/></filter></defs><g color="#000"><rect style="isolation:auto;mix-blend-mode:normal;marker:none" width="44" height="30" x="-3.249" y="17.533" rx="0" ry="1.515" transform="scale(.9492) rotate(-9.77 -18.269 -9.13)" overflow="visible" fill-opacity=".157" filter="url(#e)" enable-background="accumulate"/><rect transform="rotate(-9.77)" ry="1.438" rx="0" y="12.255" x="-1.091" height="28.476" width="41.765" style="isolation:auto;mix-blend-mode:normal;marker:none" overflow="visible" fill="#fff" stroke="#000" stroke-width=".492" stroke-opacity=".157" enable-background="accumulate"/><rect transform="rotate(-9.09)" style="isolation:auto;mix-blend-mode:normal;marker:none" width="39.867" height="26.578" x=".171" y="12.967" ry="0" overflow="visible" fill="url(#f)" enable-background="accumulate"/><rect style="isolation:auto;mix-blend-mode:normal;marker:none" width="41.765" height="28.476" x="3.117" y="8.512" rx="0" ry="1.438" overflow="visible" fill="#fff" stroke="#000" stroke-width=".492" stroke-opacity=".157" enable-background="accumulate"/><rect ry="0" y="9.461" x="4.067" height="26.578" width="39.867" style="isolation:auto;mix-blend-mode:normal;marker:none" overflow="visible" fill="url(#g)" enable-background="accumulate"/><path style="isolation:auto;mix-blend-mode:normal;marker:none" d="M20.076 10.215l.223.635-.676-.018.662.125-.353.576.437-.51.324.594-.222-.635.675.018-.662-.125.354-.576-.438.51zm7.559.445l.222.633-.675-.016.66.123-.352.578.438-.511.324.593-.223-.634.676.017-.662-.123.354-.578-.44.512zm7.424.889l.222.635-.675-.018.662.125-.354.576.44-.51.322.594-.223-.635.676.016-.66-.123.351-.576-.437.51zm4.09.133l.224.634-.676-.017.66.125-.353.576.44-.51.322.594-.223-.635.676.018-.66-.125.351-.576-.437.51zm-30.409.494l.633 1.8-1.918-.046 1.877.351L8.33 15.92l1.244-1.45.918 1.686-.635-1.803 1.92.05L9.9 14.05l1.002-1.639-1.244 1.45zm9.424 1.328l.225.635-.676-.016.66.123-.354.576.44-.51.322.594-.222-.635.675.018-.66-.125.352-.576-.438.51zm8.477 1.166l-4.545 4.293c-1.46.88-.406 1.385.21.13l4.397-4.357zm.29 2.281l-4.544 4.293c-1.312 1.308-.3 1.029.21.131l4.397-4.357z" display="block" overflow="visible" fill="#fff" fill-opacity=".335" enable-background="accumulate"/><path style="isolation:auto;mix-blend-mode:normal;marker:none" d="M22.575 11.623c-.198 0-.308.157-.357.338l-.753 2.767a8.845 8.845 0 0 0-1.674.69L17.3 13.986c-.162-.093-.351-.125-.49.014l-2.04 2.039c-.139.14-.106.325-.013.487l1.409 2.464a8.94 8.94 0 0 0-.733 1.713l-2.722.733c-.181.05-.338.16-.338.357v2.883c0 .198.157.306.338.355l2.662.726a8.95 8.95 0 0 0 .735 1.808l-1.373 2.386c-.093.162-.125.351.014.49l2.039 2.04c.14.139.325.106.487.013l2.356-1.35a8.952 8.952 0 0 0 1.848.772l.706 2.624c.05.181.16.338.357.338h2.883c.198 0 .306-.157.355-.338l.716-2.626a8.949 8.949 0 0 0 1.823-.767l2.381 1.369c.162.093.351.125.49-.014l2.04-2.039c.139-.14.106-.327.013-.49l-1.381-2.408c.3-.563.54-1.155.713-1.768l2.714-.733c.181-.049.338-.158.338-.355v-2.883c0-.198-.157-.308-.338-.357l-2.76-.75c-.005-.015-.012-.03-.017-.047a8.844 8.844 0 0 0-.68-1.632l1.433-2.49c.093-.161.125-.35-.014-.489l-2.039-2.038c-.14-.14-.327-.108-.49-.015l-2.485 1.424a8.846 8.846 0 0 0-1.675-.698l-.75-2.772c-.048-.181-.157-.337-.354-.337h-2.883zM24 21c1.25 0 2.249 1 2.249 2.25s-1 2.25-2.25 2.25-2.25-1-2.25-2.25S22.75 21 24 21z" overflow="visible" fill-opacity=".141" paint-order="fill markers stroke" enable-background="accumulate"/><path d="M22.719 12.798c-.178 0-.277.14-.321.303l-.677 2.488a7.951 7.951 0 0 0-1.505.62l-2.24-1.288c-.145-.084-.315-.113-.44.013l-1.833 1.832c-.125.126-.096.293-.012.439l1.266 2.215a8.037 8.037 0 0 0-.659 1.54l-2.447.659c-.162.043-.303.143-.303.32v2.592c0 .178.14.275.303.32l2.393.652c.16.564.383 1.109.661 1.625l-1.234 2.145c-.084.146-.113.316.013.441l1.832 1.833c.126.125.293.096.439.012l2.117-1.213a8.048 8.048 0 0 0 1.661.694l.636 2.359c.043.162.143.303.32.303h2.592c.178 0 .275-.14.32-.303l.643-2.361c.57-.169 1.12-.4 1.639-.69l2.14 1.23c.146.085.316.114.441-.012l1.833-1.832c.125-.126.096-.295.012-.44l-1.242-2.166c.27-.506.485-1.038.642-1.59l2.44-.658c.162-.044.303-.142.303-.32V21.97c0-.178-.14-.277-.303-.321l-2.481-.673c-.005-.015-.012-.029-.016-.044a7.95 7.95 0 0 0-.611-1.466l1.288-2.238c.084-.146.113-.315-.013-.44l-1.832-1.833c-.126-.125-.294-.097-.44-.013l-2.235 1.28a7.953 7.953 0 0 0-1.506-.627L25.63 13.1c-.044-.162-.142-.302-.32-.302H22.72zM24 20.099c1.75 0 3.15 1.4 3.15 3.15 0 1.751-1.4 3.152-3.15 3.152-1.751 0-3.152-1.401-3.152-3.152 0-1.75 1.401-3.15 3.152-3.15z" style="isolation:auto;mix-blend-mode:normal;marker:none" overflow="visible" fill="url(#h)" paint-order="fill markers stroke" enable-background="accumulate"/></g></svg>