<svg xmlns="http://www.w3.org/2000/svg" xmlns:xlink="http://www.w3.org/1999/xlink" height="48" viewBox="0 0 48 48" width="48"><title>Template icons dark</title><defs><linearGradient id="g"><stop offset="0" stop-color="#1f97cf"/><stop offset="1" stop-color="#50b5e4"/></linearGradient><linearGradient id="f"><stop offset="0" stop-color="#62c8f7"/><stop offset="1" stop-color="#0ca3e8"/></linearGradient><linearGradient id="a"><stop offset="0" stop-color="#7ed6fb"/><stop offset="1" stop-color="#90ddfc"/></linearGradient><linearGradient id="b"><stop offset="0" stop-color="#7ed6fb"/><stop offset="1" stop-color="#8edcfc"/></linearGradient><linearGradient id="c"><stop offset="0" stop-color="#62c8f7"/><stop offset="1" stop-color="#36aaf2"/></linearGradient><linearGradient id="d"><stop offset="0" stop-color="#7ed6fb"/><stop offset="1" stop-color="#8fdcfc"/></linearGradient><linearGradient id="e"><stop offset="0" stop-color="#1581ce"/><stop offset="1" stop-color="#32a9e0"/></linearGradient><linearGradient y2="880.934" x2="165.724" y1="880.934" x1="138.929" gradientTransform="matrix(.7516 0 0 .7516 -101.196 -650.466)" gradientUnits="userSpaceOnUse" id="h" xlink:href="#a"/><linearGradient gradientTransform="matrix(.7516 0 0 .7516 -12.078 -730.988)" gradientUnits="userSpaceOnUse" y2="988.557" x2="56.624" y1="986.071" x1="70.711" id="i" xlink:href="#b"/><linearGradient gradientTransform="matrix(.52092 0 0 .52092 -59.34 -59.484)" xlink:href="#f" id="j" x1="148" y1="148" x2="150.614" y2="169.512" gradientUnits="userSpaceOnUse"/><linearGradient gradientTransform="matrix(.52092 0 0 .52092 -59.34 -59.484)" xlink:href="#g" id="k" x1="167.78" y1="164" x2="169.512" y2="143.055" gradientUnits="userSpaceOnUse"/><linearGradient gradientTransform="matrix(.7516 0 0 .7516 -12.078 -730.988)" gradientUnits="userSpaceOnUse" y2="1020.598" x2="57.452" y1="1022.255" x1="54.138" id="l" xlink:href="#c"/><linearGradient gradientTransform="matrix(.7516 0 0 .7516 -12.078 -730.988)" gradientUnits="userSpaceOnUse" y2="1008.997" x2="58.281" y1="1009.273" x1="72.644" id="m" xlink:href="#d"/><linearGradient gradientTransform="matrix(.7516 0 0 .7516 -12.078 -730.988)" gradientUnits="userSpaceOnUse" y2="1022.675" x2="44.922" y1="1020.149" x1="38.672" id="n" xlink:href="#e"/><linearGradient gradientTransform="matrix(.7516 0 0 .7516 -12.078 -730.988)" gradientUnits="userSpaceOnUse" y2="1009.393" x2="40.234" y1="1010.175" x1="23.438" id="o" xlink:href="#d"/></defs><path d="M14.476 2.949L.557 11.563l9.455 7.804L.557 27.17l9.456 5.852v3.12l13.953 8.686-.063-16.712h.002l.066 16.7 13.823-8.673v-3.037l9.646-5.981-9.524-7.747-.121.075v-.07l.026-.016-13.917-8.615-13.89 8.615 13.907-8.633-.015.012 13.948 8.632 9.523-7.746L33.391 2.96l-9.464 7.769z" fill="none" stroke="#000" stroke-width=".651" stroke-opacity=".209"/><path d="M23.904 10.752l13.917 8.615-13.823 8.672-13.986-8.672z" fill="#7ed6fb"/><path d="M.557 11.563l13.918-8.615 9.452 7.782-13.915 8.637z" fill="url(#h)"/><path d="M23.906 10.746l13.948 8.632 9.523-7.746L33.39 2.96z" fill="url(#i)"/><path d="M23.904 10.752v14.783L10.08 34.207l-.067-14.84z" fill="url(#j)"/><path d="M23.904 10.752v14.783l13.823 8.672.067-14.84z" fill="url(#k)"/><path d="M37.795 19.367v16.776L23.97 44.815l-.067-16.834z" fill="url(#l)"/><path d="M23.998 27.993l13.918-8.615 9.524 7.747-13.986 8.672z" fill="url(#m)"/><path d="M10.012 19.367v16.776l13.954 8.684-.063-16.846z" fill="url(#n)"/><path d="M.557 27.17l13.918 8.615 9.523-7.746-13.986-8.672z" fill="url(#o)"/></svg>