<svg xmlns="http://www.w3.org/2000/svg" xmlns:xlink="http://www.w3.org/1999/xlink" height="48" viewBox="0 0 48 48" width="48"><title>Template icons dark</title><defs><linearGradient id="d"><stop offset="0" stop-color="#e6e223" stop-opacity="0"/><stop offset="1" stop-color="#f99500" stop-opacity=".598"/></linearGradient><linearGradient id="c"><stop offset="0" stop-color="#cdcdcd"/><stop offset="1" stop-color="#fff"/></linearGradient><linearGradient id="b"><stop offset="0" stop-color="#fff" stop-opacity=".427"/><stop offset=".423" stop-color="#fafcfe"/><stop offset="1" stop-color="#fff" stop-opacity=".49"/></linearGradient><linearGradient id="a"><stop offset="0" stop-color="#322461"/><stop offset="1" stop-color="#6d2fd8"/></linearGradient><linearGradient xlink:href="#a" id="e" x1="37.702" y1="34.889" x2="-2.538" y2="12.087" gradientUnits="userSpaceOnUse" gradientTransform="matrix(1.11828 0 0 1.11828 -1.161 -4.516)"/><linearGradient xlink:href="#d" id="f" gradientUnits="userSpaceOnUse" gradientTransform="matrix(1.11828 0 0 1.11828 -1.161 -4.516)" x1="25.908" y1="26.373" x2="3.094" y2="26.373"/><linearGradient gradientTransform="matrix(.5 0 0 .5 -56 -56)" xlink:href="#c" id="g" x1="161.772" y1="204" x2="161.772" y2="113" gradientUnits="userSpaceOnUse"/></defs><g color="#000"><path style="isolation:auto;mix-blend-mode:normal;marker:none" d="M48 24a24 24 0 0 1-24 24A24 24 0 0 1 0 24 24 24 0 0 1 24 0a24 24 0 0 1 24 24z" display="block" overflow="visible" fill-opacity=".058"/><path style="isolation:auto;mix-blend-mode:normal;marker:none" d="M47 24a23 23 0 0 1-23 23A23 23 0 0 1 1 24 23 23 0 0 1 24 1a23 23 0 0 1 23 23z" display="block" overflow="visible" fill="url(#e)"/><path d="M47 24a23 23 0 0 1-23 23A23 23 0 0 1 1 24 23 23 0 0 1 24 1a23 23 0 0 1 23 23z" style="isolation:auto;mix-blend-mode:normal;marker:none" overflow="visible" fill="url(#f)"/><path style="isolation:auto;mix-blend-mode:normal;marker:none" d="M4 14h40v5H4z" display="block" overflow="visible" fill="#fff" fill-opacity=".442" paint-order="fill markers stroke"/><path style="isolation:auto;mix-blend-mode:normal;marker:none" d="M3 18h41.819v1H3z" display="block" overflow="visible" fill="#fff" fill-opacity=".821" paint-order="fill markers stroke"/><path style="isolation:auto;mix-blend-mode:normal;marker:none" d="M3 19h41.819v1H3z" display="block" overflow="visible" fill-opacity=".179" paint-order="fill markers stroke"/><path style="isolation:auto;mix-blend-mode:normal;marker:none" d="M3 22h41.819v5H3z" display="block" overflow="visible" fill="#fff" fill-opacity=".442" paint-order="fill markers stroke"/><path style="isolation:auto;mix-blend-mode:normal;marker:none" d="M3 26h41.819v1H3z" display="block" overflow="visible" fill="#fff" fill-opacity=".821" paint-order="fill markers stroke"/><path style="isolation:auto;mix-blend-mode:normal;marker:none" d="M3 27h41.819v1H3z" display="block" overflow="visible" fill-opacity=".179" paint-order="fill markers stroke"/><path style="isolation:auto;mix-blend-mode:normal;marker:none" d="M4 30h40v5H4z" display="block" overflow="visible" fill="#fff" fill-opacity=".442" paint-order="fill markers stroke"/><path style="isolation:auto;mix-blend-mode:normal;marker:none" d="M5 34h39v1H5z" display="block" overflow="visible" fill="#fff" fill-opacity=".821" paint-order="fill markers stroke"/><path style="isolation:auto;mix-blend-mode:normal;marker:none" d="M5 35h38.06v1H5z" display="block" overflow="visible" fill-opacity=".179" paint-order="fill markers stroke"/><path style="isolation:auto;mix-blend-mode:normal;marker:none" d="M45.043 24.56A21.043 21.043 0 0 1 24 45.605 21.043 21.043 0 0 1 2.957 24.56 21.043 21.043 0 0 1 24 3.518 21.043 21.043 0 0 1 45.043 24.56z" overflow="visible" fill="none" stroke="#050505" stroke-width=".839" stroke-linejoin="round" stroke-opacity=".458"/><path style="isolation:auto;mix-blend-mode:normal;marker:none" d="M45.043 23.879A21.043 21.043 0 0 1 24 44.922 21.043 21.043 0 0 1 2.957 23.879 21.043 21.043 0 0 1 24 2.836a21.043 21.043 0 0 1 21.043 21.043z" overflow="visible" fill="none" stroke="#fff" stroke-width=".839" stroke-linejoin="round"/><path style="isolation:auto;mix-blend-mode:normal;marker:none" d="M46.003 24A22.003 22.003 0 0 1 24 46.003 22.003 22.003 0 0 1 1.997 24 22.003 22.003 0 0 1 24 1.997 22.003 22.003 0 0 1 46.003 24z" overflow="visible" fill="none" stroke="url(#g)" stroke-width="1.995" stroke-linejoin="round"/></g></svg>