<svg xmlns="http://www.w3.org/2000/svg" xmlns:xlink="http://www.w3.org/1999/xlink" height="48" viewBox="0 0 48 48" width="48"><title>Template icons dark</title><defs><linearGradient id="c"><stop offset="0" stop-color="#efefef" stop-opacity=".478"/><stop offset="1" stop-color="#efefef" stop-opacity="0"/></linearGradient><linearGradient id="b"><stop offset="0" stop-color="#ff053c"/><stop offset="1" stop-color="#0b31ff" stop-opacity=".974"/></linearGradient><linearGradient id="a"><stop offset="0" stop-color="#86dceb"/><stop offset="1" stop-color="#4bb7df"/></linearGradient><linearGradient xlink:href="#c" id="f" x1="160.849" y1="166.43" x2="160.849" y2="155.944" gradientUnits="userSpaceOnUse" gradientTransform="matrix(.57608 0 0 .57608 -68.223 -68.172)"/><linearGradient gradientTransform="matrix(.51064 0 0 .51064 -57.753 -57.702)" xlink:href="#b" id="e" x1="122" y1="183" x2="196" y2="142" gradientUnits="userSpaceOnUse"/><linearGradient xlink:href="#a" id="d" x1="24.535" y1="7.996" x2="24.705" y2="38.25" gradientUnits="userSpaceOnUse" gradientTransform="matrix(1.08822 0 0 1.08822 -2.256 -3.814)"/></defs><g color="#000"><circle style="isolation:auto;mix-blend-mode:normal;marker:none" cx="23.95" cy="24" r="24" display="block" overflow="visible" fill-opacity=".157"/><circle style="isolation:auto;mix-blend-mode:normal;marker:none" cx="23.95" cy="24" r="22.727" overflow="visible" fill="url(#d)" stroke="#fff" stroke-width="1.267"/><circle r="22.727" cy="24" cx="23.95" style="isolation:auto;mix-blend-mode:normal;marker:none" overflow="visible" opacity=".109" fill="url(#e)" stroke="#fff" stroke-width="1.267"/><circle r="4.363" cy="24" cx="23.95" style="isolation:auto;mix-blend-mode:normal;marker:none" overflow="visible" fill="url(#f)"/><circle style="isolation:auto;mix-blend-mode:normal;marker:none" cx="23.95" cy="24" r="18.799" overflow="visible" fill="none" stroke="#fff" stroke-width=".669" stroke-dasharray=".66893617,2.67574468" stroke-opacity=".368"/><circle style="isolation:auto;mix-blend-mode:normal;marker:none" cx="23.95" cy="24" r="2.414" overflow="visible" fill="#fff" paint-order="markers stroke fill"/><circle style="isolation:auto;mix-blend-mode:normal;marker:none" cx="24.483" cy="9.297" r="2.094" overflow="visible" fill="#fff" fill-opacity=".989" paint-order="markers stroke fill"/><circle r="1.035" cy="9.297" cx="24.483" style="isolation:auto;mix-blend-mode:normal;marker:none" overflow="visible" fill="#77c5e8" paint-order="markers stroke fill"/><circle style="isolation:auto;mix-blend-mode:normal;marker:none" cx="10.991" cy="29.943" r="2.094" overflow="visible" fill="#fff" fill-opacity=".989" paint-order="markers stroke fill"/><circle r="1.035" cy="29.943" cx="10.991" style="isolation:auto;mix-blend-mode:normal;marker:none" overflow="visible" fill="#64add5" paint-order="markers stroke fill"/><circle style="isolation:auto;mix-blend-mode:normal;marker:none" cx="36.575" cy="31.19" r="2.094" overflow="visible" fill="#fff" fill-opacity=".989" paint-order="markers stroke fill"/><circle r="1.035" cy="31.19" cx="36.575" style="isolation:auto;mix-blend-mode:normal;marker:none" overflow="visible" fill="#54afe0" paint-order="markers stroke fill"/><path style="isolation:auto;mix-blend-mode:normal;marker:none" d="M46.053 23.19A22.114 22.727 0 0 1 23.95 45.706 22.114 22.727 0 0 1 1.846 23.278a22.114 22.727 0 0 0-.01.211A22.114 22.727 0 0 0 23.95 46.217a22.114 22.727 0 0 0 22.114-22.728 22.114 22.727 0 0 0-.01-.299z" overflow="visible" fill-opacity=".297"/><path d="M46.156 24.956A22.217 22.727 0 0 0 23.95 2.44 22.217 22.727 0 0 0 1.743 24.868a22.217 22.727 0 0 1-.01-.211A22.217 22.727 0 0 1 23.95 1.929a22.217 22.727 0 0 1 22.217 22.728 22.217 22.727 0 0 1-.011.299z" style="isolation:auto;mix-blend-mode:normal;marker:none" overflow="visible" fill="#242424" fill-opacity=".471"/><path style="isolation:auto;mix-blend-mode:normal;marker:none" d="M35.104 32.103A14.39 7.245 26.792 0 1 21.05 30.48a14.39 7.245 26.792 0 1-10.176-10.263 14.39 7.245 26.792 0 1 6.993-5.498" overflow="visible" fill="none" stroke="#fff" stroke-width="1.3" stroke-linecap="round" stroke-miterlimit="3.7" stroke-opacity=".984" paint-order="markers stroke fill"/><path style="isolation:auto;mix-blend-mode:normal;marker:none" d="M11.081 28.112a14.39 7.245-29.658 0 1 8.951-10.31 14.39 7.245-29.658 0 1 13.705-3.083 14.39 7.245-29.658 0 1 2.12 7.82" overflow="visible" fill="none" stroke="#fff" stroke-width="1.3" stroke-linecap="round" stroke-miterlimit="3.7" stroke-opacity=".984" paint-order="markers stroke fill"/><path style="isolation:auto;mix-blend-mode:normal;marker:none" d="M26.359 10.129a7.245 14.39 1.017 0 1 4.909 13.414 7.245 14.39 1.017 0 1-4.963 13.853 7.245 14.39 1.017 0 1-8.076-4.576" overflow="visible" fill="none" stroke="#fff" stroke-width="1.3" stroke-linecap="round" stroke-miterlimit="3.7" stroke-opacity=".984" paint-order="markers stroke fill"/></g></svg>