<svg xmlns="http://www.w3.org/2000/svg" xmlns:xlink="http://www.w3.org/1999/xlink" height="48" viewBox="0 0 48 48" width="48" enable-background="new"><title>Template icons dark</title><defs><linearGradient id="a"><stop offset="0" stop-color="#9a9a9a" stop-opacity=".973"/><stop offset="1" stop-color="#f4f4f4"/></linearGradient><linearGradient xlink:href="#b" id="d" gradientUnits="userSpaceOnUse" x1="23.375" y1="41.2" x2="23.375" y2="13.95" gradientTransform="translate(-2.676 .438) scale(.9492)"/><linearGradient id="b"><stop offset="0" stop-color="#f598f8"/><stop offset="1" stop-color="#398bef"/></linearGradient><linearGradient gradientTransform="translate(1.22 -3.068) scale(.9492)" xlink:href="#b" id="e" x1="23.375" y1="41.2" x2="23.375" y2="13.95" gradientUnits="userSpaceOnUse"/><filter id="c" x="-.021" width="1.042" y="-.028" height="1.055" color-interpolation-filters="sRGB"><feGaussianBlur stdDeviation=".423"/></filter></defs><g color="#000"><rect style="isolation:auto;mix-blend-mode:normal;marker:none" width="44" height="30" x="-3.249" y="17.533" rx="0" ry="1.515" transform="rotate(-9.77 -17.34 -8.667) scale(.9492)" overflow="visible" fill-opacity=".157" filter="url(#c)" enable-background="accumulate"/><rect transform="rotate(-9.77)" ry="1.438" rx="0" y="12.255" x="-1.091" height="28.476" width="41.765" style="isolation:auto;mix-blend-mode:normal;marker:none" overflow="visible" fill="#fff" stroke="#000" stroke-width=".492" stroke-opacity=".157" enable-background="accumulate"/><rect transform="rotate(-9.09)" style="isolation:auto;mix-blend-mode:normal;marker:none" width="39.866" height="26.578" x=".171" y="12.967" ry="0" overflow="visible" fill="url(#d)" enable-background="accumulate"/><rect style="isolation:auto;mix-blend-mode:normal;marker:none" width="41.765" height="28.476" x="3.118" y="8.512" rx="0" ry="1.438" overflow="visible" fill="#fff" stroke="#000" stroke-width=".492" stroke-opacity=".157" enable-background="accumulate"/><rect ry="0" y="9.461" x="4.067" height="26.578" width="39.866" style="isolation:auto;mix-blend-mode:normal;marker:none" overflow="visible" fill="url(#e)" enable-background="accumulate"/><path d="M31.339 20.809l12.594 9.179v6.05l-34.6-.062z" style="isolation:auto;mix-blend-mode:normal;marker:none" overflow="visible" fill="#fff" enable-background="accumulate"/><path style="isolation:auto;mix-blend-mode:normal;marker:none" d="M16.043 24.069l11.34 10.558 16.55 1.412H4.067z" overflow="visible" fill="#fff" fill-opacity=".34" enable-background="accumulate"/><path style="isolation:auto;mix-blend-mode:normal;marker:none" d="M20.076 10.215l.223.635-.676-.018.662.125-.353.576.437-.51.324.594-.222-.635.675.018-.662-.125.354-.576-.438.51zm7.559.445l.222.633-.675-.016.66.123-.352.579.438-.512.324.594-.223-.635.676.017-.662-.123.353-.578-.439.512zm7.424.889l.222.635-.676-.018.663.125-.354.576.44-.51.322.594-.223-.635.676.016-.66-.123.351-.576-.437.51zm4.09.133l.224.634-.676-.017.66.125-.353.576.44-.51.322.594-.223-.635.676.018-.66-.125.351-.576-.437.51zm-30.409.494l.633 1.8-1.918-.046 1.877.351L8.33 15.92l1.244-1.45.918 1.686-.635-1.802 1.92.048-1.877-.351 1.002-1.639-1.244 1.45zm9.424 1.328l.225.635-.676-.016.66.123-.353.576.439-.51.322.594-.222-.635.675.018-.66-.125.352-.576-.438.51zm8.477 1.166l-4.545 4.293c-1.46.88-.406 1.385.21.13l4.397-4.357zm.29 2.281l-4.544 4.293c-1.312 1.308-.3 1.029.21.131l4.397-4.357z" display="block" overflow="visible" fill="#fff" fill-opacity=".335" enable-background="accumulate"/></g></svg>