<svg xmlns="http://www.w3.org/2000/svg" xmlns:xlink="http://www.w3.org/1999/xlink" height="48" viewBox="0 0 48 48" width="48"><title>Template icons dark</title><defs><linearGradient id="j"><stop offset="0" stop-color="#030303" stop-opacity=".151"/><stop offset="1" stop-color="#030303" stop-opacity=".161"/></linearGradient><linearGradient id="h"><stop offset="0" stop-color="#030303" stop-opacity=".203"/><stop offset="1" stop-color="#030303" stop-opacity=".161"/></linearGradient><linearGradient id="i"><stop offset="0" stop-opacity="0"/><stop offset="1" stop-opacity=".094"/></linearGradient><linearGradient id="g"><stop offset="0" stop-opacity="0"/><stop offset="1" stop-opacity=".052"/></linearGradient><linearGradient id="f"><stop offset="0" stop-color="#e6e6e6"/><stop offset="1" stop-color="#fff"/></linearGradient><linearGradient id="e"><stop offset="0" stop-color="#030303" stop-opacity=".135"/><stop offset=".402" stop-color="#030303" stop-opacity=".25"/><stop offset="1" stop-color="#030303" stop-opacity="0"/></linearGradient><linearGradient id="d"><stop offset="0" stop-opacity=".078"/><stop offset="1" stop-opacity="0"/></linearGradient><linearGradient id="c"><stop offset="0" stop-color="#fff"/><stop offset="1" stop-color="#e7e7e7"/></linearGradient><linearGradient id="b"><stop offset="0" stop-color="#030303" stop-opacity=".078"/><stop offset="1" stop-color="#030303" stop-opacity=".161"/></linearGradient><linearGradient id="a"><stop offset="0" stop-color="#030303" stop-opacity=".182"/><stop offset="1" stop-color="#030303" stop-opacity="0"/></linearGradient><linearGradient xlink:href="#h" id="k" gradientUnits="userSpaceOnUse" x1="160" y1="162" x2="160" y2="124" gradientTransform="matrix(.5 0 0 -.5 -56 104.75)"/><linearGradient gradientTransform="matrix(.5 0 0 .5 -56 -55.75)" xlink:href="#f" id="l" x1="161" y1="187.457" x2="161" y2="165" gradientUnits="userSpaceOnUse"/><linearGradient gradientTransform="matrix(.5 0 0 .5 -56 -55.75)" xlink:href="#i" id="m" x1="160.063" y1="184" x2="160.063" y2="166.009" gradientUnits="userSpaceOnUse"/><linearGradient gradientTransform="matrix(.5 0 0 .5 -56 -55.75)" xlink:href="#c" id="o" x1="160.063" y1="163" x2="160.063" y2="136" gradientUnits="userSpaceOnUse"/><linearGradient gradientTransform="matrix(.5 0 0 .5 -56 -55.75)" xlink:href="#d" id="p" x1="160.126" y1="160" x2="160.126" y2="136" gradientUnits="userSpaceOnUse"/><linearGradient xlink:href="#j" id="n" gradientUnits="userSpaceOnUse" gradientTransform="matrix(.5 0 0 .5 -56 -55.75)" x1="160" y1="162" x2="160" y2="124"/></defs><path style="isolation:auto;mix-blend-mode:normal;marker:none" d="M0 9h48v31H0z" color="#000" display="block" overflow="visible" fill-opacity=".115" paint-order="fill markers stroke"/><path style="isolation:auto;mix-blend-mode:normal;marker:none" d="M1 10h46v29H1z" color="#000" overflow="visible" fill="#e2e2e2" paint-order="fill markers stroke"/><path style="isolation:auto;mix-blend-mode:normal;marker:none" d="M2 38.25h44v-1.012l-1-2.488-18.994-12.495S24.61 21.25 24 21.25c-.685 0-1.996.997-1.996.997L3 34.75l-1 2.5z" color="#000" overflow="visible" fill="url(#k)" paint-order="fill markers stroke"/><path d="M2 38.25h44l-1-3.5-18.994-11.495S24.61 22.25 24 22.25c-.685 0-1.996.997-1.996.997L3 34.75z" style="isolation:auto;mix-blend-mode:normal;marker:none" color="#000" display="block" overflow="visible" fill="url(#l)" paint-order="fill markers stroke"/><path style="isolation:auto;mix-blend-mode:normal;marker:none" d="M4 37.25h40l-1-2.5-16.994-9.495S24.61 24.25 24 24.25c-.685 0-1.996.997-1.996.997L5 34.75z" color="#000" overflow="visible" fill="url(#m)" paint-order="fill markers stroke"/><path d="M2 10.75h44v1.012l-1 2.488-18.994 12.995S24.61 28.25 24 28.25c-.685 0-1.996-.997-1.996-.997L3 14.25l-1-2.5z" style="isolation:auto;mix-blend-mode:normal;marker:none" color="#000" display="block" overflow="visible" fill="url(#n)" paint-order="fill markers stroke"/><path style="isolation:auto;mix-blend-mode:normal;marker:none" d="M2 10.75h44l-1 3.5-18.994 11.495S24.61 26.75 24 26.75c-.685 0-1.996-.997-1.996-.997L3 14.25z" color="#000" display="block" overflow="visible" fill="url(#o)" paint-order="fill markers stroke"/><path d="M4 11.75h40l-1 2.5-16.994 9.495S24.61 24.75 24 24.75c-.685 0-1.996-.997-1.996-.997L5 14.25z" style="isolation:auto;mix-blend-mode:normal;marker:none" color="#000" overflow="visible" fill="url(#p)" paint-order="fill markers stroke"/><path d="M19.75 14.485a3.41 3.41 0 0 0-3.408 3.409 3.405 3.405 0 1 0 6.245 1.885v.357s1.883-.444 2.845-.5c.843-.05 1.434.973 2.554 1.029.675.034 1.86-1.42 2.51-1.37.746.059 1.382.908 1.96 1.054.943.237 1.63-.213 1.63-.213v-.492s-.647.425-1.615.332c-.566-.055-1.241-1.116-1.961-1.171-.659-.051-1.854 1.402-2.538 1.368-1.105-.055-1.677-1.077-2.51-1.03-.928.054-2.625.444-2.78.48.12-.202.22-.417.296-.644.168-.039 1.826-.424 2.74-.477.844-.05 1.436.974 2.556 1.03.675.034 1.86-1.42 2.51-1.37.745.058 1.38.908 1.96 1.054.942.237 1.63-.214 1.63-.214v-.492s-.648.425-1.616.332c-.566-.055-1.241-1.115-1.961-1.171-.659-.051-1.854 1.402-2.538 1.368-1.105-.055-1.677-1.077-2.509-1.03-.866.05-2.303.374-2.643.451.031-.185.051-.373.051-.566 0-.097-.007-.191-.014-.286.225-.052 1.805-.416 2.702-.468.843-.05 1.434.973 2.554 1.029.675.034 1.86-1.42 2.51-1.37.745.058 1.382.908 1.96 1.054.943.237 1.63-.213 1.63-.213v-.493s-.648.426-1.616.332c-.566-.054-1.24-1.115-1.96-1.17-.659-.051-1.855 1.402-2.54 1.368-1.104-.055-1.676-1.077-2.508-1.03-.94.054-2.69.459-2.807.486a3.383 3.383 0 0 0-.362-.928c.307-.07 1.771-.405 2.639-.455.843-.05 1.434.973 2.554 1.03.675.033 1.86-1.42 2.51-1.37.745.058 1.382.907 1.96 1.053A2.185 2.185 0 0 0 34 16.25v-.492s-.648.425-1.616.332c-.566-.055-1.24-1.115-1.96-1.171-.659-.051-1.855 1.402-2.54 1.368-1.104-.055-1.676-1.077-2.508-1.03-.972.056-2.876.5-2.876.5v.132a3.401 3.401 0 0 0-2.75-1.404zm0 .317a3.09 3.09 0 0 1 3.092 3.092 3.09 3.09 0 0 1-3.092 3.091 3.09 3.09 0 0 1-3.092-3.091 3.09 3.09 0 0 1 3.092-3.092zm-.055.169a.304.304 0 0 0-.303.303.304.304 0 0 0 .303.304.304.304 0 0 0 .304-.304.304.304 0 0 0-.304-.303zm.055.792a2.132 2.132 0 0 0 0 4.261 2.132 2.132 0 0 0 0-4.261zm0 .197c1.07 0 1.934.864 1.934 1.934 0 1.069-.865 1.933-1.934 1.933a1.932 1.932 0 0 1-1.934-1.933c0-1.07.865-1.934 1.934-1.934zm.979 1.317a.491.491 0 0 0-.385.161.622.622 0 0 0-.144.431c0 .18.048.323.144.43a.493.493 0 0 0 .385.161c.16 0 .287-.054.382-.161a.621.621 0 0 0 .144-.43.622.622 0 0 0-.144-.43.487.487 0 0 0-.382-.162zm-2.494.02v1.14h.735v-.13h-.58v-.412h.543v-.13h-.543v-.337h.566v-.13zm.849 0l.435 1.14h.174l.435-1.14h-.16l-.363.96-.36-.96zm1.645.105c.111 0 .2.042.265.125a.54.54 0 0 1 .099.342.535.535 0 0 1-.099.34.319.319 0 0 1-.265.125.324.324 0 0 1-.268-.125.535.535 0 0 1-.098-.34.54.54 0 0 1 .098-.342.324.324 0 0 1 .268-.125zm1.707.24a.304.304 0 0 0-.303.303.304.304 0 0 0 .303.304.304.304 0 0 0 .303-.304.304.304 0 0 0-.303-.303zm-5.289.007a.304.304 0 0 0-.302.304.304.304 0 0 0 .302.304.304.304 0 0 0 .304-.304.304.304 0 0 0-.304-.304zm2.757 2.563a.304.304 0 0 0-.303.304.304.304 0 0 0 .303.303.304.304 0 0 0 .303-.303.304.304 0 0 0-.303-.304z" style="line-height:normal;font-variant-ligatures:normal;font-variant-position:normal;font-variant-caps:normal;font-variant-numeric:normal;font-variant-alternates:normal;font-feature-settings:normal;text-indent:0;text-align:start;text-decoration-line:none;text-decoration-style:solid;text-decoration-color:#000;text-transform:none;text-orientation:mixed;shape-padding:0;isolation:auto;mix-blend-mode:normal;marker:none" color="#000" font-weight="400" font-family="sans-serif" white-space="normal" overflow="visible" fill-opacity=".156" paint-order="fill markers stroke"/><path d="M8.84 9.996L1 10v4.218l1.015-1.058v-2.144h5.776zm16.728 0L19.295 10l-1.045 1.016h6.269zm16.727 0L36.023 10l-1.046 1.016h6.269zm4.71 1.02l-.89 1.054-.004 5.84.893-1.06zM2.014 23.182l-1.01 1.054L1 30.564l1.015-1.059zm44.99 4.218l-.89 1.055-.004 6.327.893-1.059zM2.567 38.107L1.523 39H7.79l1.05-.893zm16.727 0L18.25 39h6.269l1.05-.893zm16.728 0L34.977 39h6.269l1.05-.893z" fill="#5477b0" fill-rule="evenodd"/><path d="M17.205 9.996L10.932 10l-1.046 1.016h6.269zm16.727 0L27.659 10l-1.045 1.016h6.268zm13.068 0L44.386 10l-1.045 1.016h2.61zm-44.985 4.75L1.005 15.8 1 22.127l1.015-1.058zm44.99 4.218l-.89 1.054-.004 6.328.893-1.06zM2.014 31.618l-1.01 1.055L1 39l1.015-1.425zm44.99 4.218l-.89 1.055-.003 1.212-1.726.004-1.045.893H47zm-36.073 2.27L9.886 39h6.273l1.046-.893zm16.727 0L26.614 39h6.272l1.046-.893z" fill="#b05457" fill-rule="evenodd"/></svg>