<svg xmlns="http://www.w3.org/2000/svg" xmlns:xlink="http://www.w3.org/1999/xlink" height="48" viewBox="0 0 48 48" width="48"><title>Template icons dark</title><defs><linearGradient id="d"><stop offset="0" stop-color="#fff" stop-opacity=".456"/><stop offset="1" stop-color="#fff" stop-opacity="0"/></linearGradient><linearGradient id="c"><stop offset="0" stop-color="#c7c7c7"/><stop offset="1" stop-color="#fff" stop-opacity=".989"/></linearGradient><linearGradient id="b"><stop offset="0" stop-color="#a61f23"/><stop offset="1" stop-color="#ff4955"/></linearGradient><linearGradient id="a"><stop offset="0" stop-color="#88c1df"/><stop offset="1" stop-color="#f0f5f8"/></linearGradient><linearGradient xlink:href="#b" id="h" gradientUnits="userSpaceOnUse" gradientTransform="matrix(.9844 0 0 .9844 -133.173 -133.22)" x1="165.921" y1="192" x2="159" y2="147.661"/><linearGradient xlink:href="#a" id="e" x1="170" y1="186" x2="170" y2="118" gradientUnits="userSpaceOnUse" gradientTransform="matrix(.5206 0 0 .5206 -59.934 -60.367)"/><radialGradient xlink:href="#d" id="g" gradientUnits="userSpaceOnUse" gradientTransform="matrix(.29388 0 0 .22748 -25.393 -15.018)" cx="105.669" cy="162.232" fx="105.669" fy="162.232" r="45.374"/><radialGradient xlink:href="#d" id="f" cx="191" cy="155.342" fx="191" fy="155.342" r="45.374" gradientTransform="matrix(.39046 0 0 .30224 -35.599 -27.145)" gradientUnits="userSpaceOnUse"/></defs><path d="M24.57.936a13.576 13.576 0 0 0-12.99 9.641A13.576 13.576 0 0 0 .429 23.93a13.576 13.576 0 0 0 5.486 10.883 10.283 10.283 0 0 0 6.953 2.693h22.029c1.905 0 3.68-.519 5.208-1.41a13.576 13.576 0 0 0 7.567-12.166 13.576 13.576 0 0 0-10.034-13.09A13.576 13.576 0 0 0 24.57.937z" style="isolation:auto;mix-blend-mode:normal;marker:none" color="#000" display="block" overflow="visible" fill="none" stroke="#000" stroke-width=".757" stroke-linecap="round" stroke-opacity=".066" paint-order="markers stroke fill"/><path style="isolation:auto;mix-blend-mode:normal;marker:none" d="M24.57.416a13.576 13.576 0 0 0-12.99 9.64A13.576 13.576 0 0 0 .429 23.409a13.576 13.576 0 0 0 5.486 10.883 10.283 10.283 0 0 0 6.953 2.694h22.029c1.905 0 3.68-.52 5.208-1.41a13.576 13.576 0 0 0 7.567-12.167A13.576 13.576 0 0 0 37.637 10.32 13.576 13.576 0 0 0 24.57.416z" color="#000" overflow="visible" fill="url(#e)" paint-order="markers stroke fill"/><path style="isolation:auto;mix-blend-mode:normal;marker:none" d="M.453 22.858a13.576 13.576 0 0 0-.025.55 13.576 13.576 0 0 0 5.486 10.883 10.283 10.283 0 0 0 6.953 2.694h22.029c1.905 0 3.68-.52 5.208-1.41a13.576 13.576 0 0 0 7.567-12.167 13.576 13.576 0 0 0-.025-.494 13.576 13.576 0 0 1-7.542 11.62 10.295 10.295 0 0 1-5.207 1.41H12.867c-2.687 0-5.12-1.024-6.953-2.694A13.576 13.576 0 0 1 .453 22.858z" color="#000" overflow="visible" fill="#365a83" fill-opacity=".22" paint-order="markers stroke fill"/><path d="M24.57.416a13.576 13.576 0 0 0-12.99 9.64A13.576 13.576 0 0 0 .429 23.409a13.576 13.576 0 0 0 5.486 10.883 10.283 10.283 0 0 0 6.953 2.694h22.029c1.905 0 3.68-.52 5.208-1.41a13.576 13.576 0 0 0 7.567-12.167A13.576 13.576 0 0 0 37.637 10.32 13.576 13.576 0 0 0 24.57.416z" style="isolation:auto;mix-blend-mode:normal;marker:none" color="#000" overflow="visible" fill="url(#f)" paint-order="markers stroke fill"/><path style="isolation:auto;mix-blend-mode:normal;marker:none" d="M24.57.416a13.576 13.576 0 0 0-12.99 9.64A13.576 13.576 0 0 0 .429 23.409a13.576 13.576 0 0 0 5.486 10.883 10.283 10.283 0 0 0 6.953 2.694h22.029c1.905 0 3.68-.52 5.208-1.41a13.576 13.576 0 0 0 7.567-12.167A13.576 13.576 0 0 0 37.637 10.32 13.576 13.576 0 0 0 24.57.416z" color="#000" overflow="visible" fill="url(#g)" paint-order="markers stroke fill"/><path d="M24.511 9.948c-.823 0-1.664.371-2.284 1.115L8.115 29.782c-.518 1.058-.109 2.116 1.37 2.116h10.29l3.386 13.795c.048 1.302.528 2.356 1.183 2.356.656 0 1.135-1.054 1.183-2.356l3.387-13.795h10.361c1.472 0 1.471-2.002 1.092-2.503L26.692 11.067a2.692 2.692 0 0 0-2.18-1.12z" style="isolation:auto;mix-blend-mode:normal;marker:none" color="#000" overflow="visible" fill-opacity=".176" paint-order="markers stroke fill"/><path style="isolation:auto;mix-blend-mode:normal;marker:none" d="M24.511 7.831c-.823 0-1.664.372-2.284 1.115L8.115 27.666c-.518 1.057-.109 2.116 1.37 2.116h10.29l3.386 13.795c.048 1.301.528 2.355 1.183 2.355.656 0 1.135-1.054 1.183-2.355l3.387-13.795h10.361c1.472 0 1.471-2.003 1.092-2.503L26.692 8.95a2.692 2.692 0 0 0-2.18-1.119z" color="#000" overflow="visible" fill="url(#h)" paint-order="markers stroke fill"/><path style="isolation:auto;mix-blend-mode:normal;marker:none" d="M40.545 27.791c-.093.64-.446 1.27-1.27 1.27h-10.36l-3.387 13.793c-.048 1.301-.528 2.355-1.184 2.355-.655 0-1.135-1.054-1.183-2.355L19.776 29.06H9.486c-.893 0-1.39-.388-1.534-.926-.203.88.275 1.649 1.534 1.649h10.29l3.385 13.793c.048 1.302.528 2.356 1.183 2.356.656 0 1.136-1.054 1.184-2.356l3.386-13.793h10.36c1.152 0 1.398-1.218 1.27-1.992z" color="#000" overflow="visible" fill="#5d0a0a" fill-opacity=".434" paint-order="markers stroke fill"/><path style="isolation:auto;mix-blend-mode:normal;marker:none" d="M24.511 7.832c-.823 0-1.664.372-2.283 1.115L8.115 27.666c-.212.433-.259.862-.15 1.223.036-.131.085-.264.15-.397L22.228 9.773c.619-.743 1.46-1.115 2.283-1.115.824 0 1.629.374 2.18 1.119l13.676 18.328c.077.101.133.275.17.47.09-.522.004-1.067-.17-1.297L26.692 8.95a2.692 2.692 0 0 0-2.18-1.118z" color="#000" overflow="visible" fill="red" fill-opacity=".363" paint-order="markers stroke fill"/><path d="M29.497 19.751h-7.05l.369-1.72h4.296l.394-1.853h-6.175l-1.945 9.17h1.866l.854-4.007h4.475l-3.888 3.85.683 1.208c.315-.21.828-.236 1.182-.236.631 0 1.249.21 1.892.21.59 0 1.195-.04 2.18-.512l.344-1.616c-.67.276-1.661.538-2.524.538-.354 0-.683-.078-1.025-.13l3.77-3.667.302-1.235z" fill-opacity=".286"/><path d="M29.497 19.214h-7.05l.369-1.721h4.296l.394-1.853h-6.175l-1.945 9.171h1.866l.854-4.007h4.475l-3.888 3.85.683 1.208c.315-.21.828-.236 1.182-.236.631 0 1.249.21 1.892.21.59 0 1.195-.04 2.18-.513l.344-1.616c-.67.276-1.661.539-2.524.539-.354 0-.683-.079-1.025-.131l3.77-3.666.302-1.235z" fill="#fff"/></svg>