<svg xmlns="http://www.w3.org/2000/svg" xmlns:xlink="http://www.w3.org/1999/xlink" height="48" viewBox="0 0 48 48" width="48"><title>Template icons dark</title><defs><linearGradient id="c"><stop offset="0" stop-color="#fff" stop-opacity=".172"/><stop offset="1" stop-opacity="0"/></linearGradient><linearGradient id="b"><stop offset="0" stop-color="#730216" stop-opacity=".781"/><stop offset="1" stop-color="#d9042a" stop-opacity=".027"/></linearGradient><linearGradient id="a"><stop offset="0" stop-color="#d40e0e"/><stop offset="1" stop-color="#910404" stop-opacity=".965"/></linearGradient><linearGradient gradientTransform="matrix(.5 0 0 .5 -57 -57)" xlink:href="#c" id="f" x1="160" y1="197.921" x2="160" y2="120" gradientUnits="userSpaceOnUse"/><linearGradient xlink:href="#b" id="e" gradientUnits="userSpaceOnUse" x1="198.319" y1="122.536" x2="175.155" y2="144.161" gradientTransform="matrix(.5 0 0 .5 -57 -103)"/><linearGradient gradientTransform="matrix(.5 0 0 .5 -57 -57)" xlink:href="#a" id="d" x1="160.855" y1="121.51" x2="160.855" y2="200.855" gradientUnits="userSpaceOnUse"/></defs><path style="isolation:auto;mix-blend-mode:normal;marker:none" color="#000" display="block" overflow="visible" fill-opacity=".078" paint-order="fill markers stroke" d="M2 1.999h41.5v42H2z"/><path style="isolation:auto;mix-blend-mode:normal;marker:none" color="#000" display="block" overflow="visible" fill-opacity=".078" paint-order="fill markers stroke" d="M2.5 2.499h41v41h-41z"/><path style="isolation:auto;mix-blend-mode:normal;marker:none" color="#000" overflow="visible" fill="url(#d)" paint-order="fill markers stroke" d="M3 2.999h40v40H3z"/><path style="isolation:auto;mix-blend-mode:normal;marker:none" transform="rotate(90 0 0)" color="#000" display="block" overflow="visible" fill="url(#e)" paint-order="fill markers stroke" d="M2.999-43h40v40h-40z"/><path d="M16 28v3.5c2.688.223 6.082-.806 8-6.5h4v-3.5h-2.5c1.175-1.45 2.82-2.649 4.5-3V15c-6.108.609-6.89 4.077-8.5 7-2.21 4.099-3.527 4.9-5.5 6z" fill-opacity=".151" fill-rule="evenodd"/><path d="M16 27.5V31c2.688.223 6.082-.806 8-6.5h4V21h-2.5c1.175-1.45 2.82-2.649 4.5-3v-3.5c-6.108.609-6.89 4.077-8.5 7-2.21 4.099-3.527 4.9-5.5 6z" fill="#fefefe" fill-rule="evenodd"/><path style="line-height:1000%;-inkscape-font-specification:'sans-serif Bold'" d="M23 30v.224h.383v.93h.299v-.93h.382V30zm1.217 0v1.153h.282v-.843l.265.622h.19l.265-.622v.843h.281V30h-.377l-.265.618-.263-.618z" font-weight="700" font-family="sans-serif" letter-spacing="0" word-spacing="0" fill="#fff"/><path style="line-height:normal;font-variant-ligatures:normal;font-variant-position:normal;font-variant-caps:normal;font-variant-numeric:normal;font-variant-alternates:normal;font-feature-settings:normal;text-indent:0;text-align:start;text-decoration-line:none;text-decoration-style:solid;text-decoration-color:#000;text-transform:none;text-orientation:mixed;shape-padding:0;isolation:auto;mix-blend-mode:normal;marker:none" d="M43 3H3v40h40zm-.5.5v39h-39v-39z" color="#000" font-weight="400" font-family="sans-serif" white-space="normal" overflow="visible" fill="url(#f)" paint-order="fill markers stroke"/><path d="M41.325 39.735c0-1.15-.938-2.088-2.088-2.088-1.15 0-2.088.938-2.088 2.088 0 1.15.938 2.088 2.088 2.088 1.15 0 2.088-.938 2.088-2.088zm4.175-.889v1.81c0 .123-.097.27-.228.294l-1.51.229c-.09.26-.187.506-.317.742.277.4.57.759.873 1.126a.32.32 0 0 1 .08.204c0 .073-.024.13-.073.187-.195.261-1.296 1.46-1.574 1.46a.416.416 0 0 1-.212-.074l-1.125-.88c-.237.122-.49.228-.742.31-.057.497-.106 1.028-.237 1.517a.3.3 0 0 1-.293.228h-1.81c-.147 0-.278-.106-.294-.244l-.229-1.501a4.795 4.795 0 0 1-.734-.302l-1.15.873a.294.294 0 0 1-.408-.016c-.432-.392-1.003-.898-1.345-1.37a.316.316 0 0 1 .008-.375c.277-.376.579-.734.857-1.118a4.343 4.343 0 0 1-.335-.807l-1.492-.22a.297.297 0 0 1-.237-.294v-1.81c0-.123.098-.27.22-.294l1.517-.229c.082-.26.188-.505.318-.75a19.65 19.65 0 0 0-.872-1.125.299.299 0 0 1-.082-.196c0-.073.033-.13.074-.187.195-.27 1.296-1.46 1.574-1.46.074 0 .147.033.212.081l1.125.873c.237-.122.49-.229.742-.31.057-.498.106-1.028.237-1.517a.3.3 0 0 1 .293-.229h1.811c.147 0 .277.106.293.245l.229 1.5c.253.082.497.18.734.303l1.158-.873a.277.277 0 0 1 .196-.074c.073 0 .146.033.204.082.432.4 1.003.905 1.345 1.386.041.05.057.114.057.18 0 .073-.024.13-.065.187-.277.375-.579.734-.856 1.118.138.26.252.53.334.799l1.492.228a.297.297 0 0 1 .237.294z" fill-opacity=".271"/><path d="M40.852 39.262c0-1.15-.938-2.088-2.088-2.088-1.15 0-2.088.938-2.088 2.088 0 1.15.938 2.088 2.088 2.088 1.15 0 2.088-.938 2.088-2.088zm4.175-.889v1.81c0 .123-.097.27-.228.294l-1.51.229c-.09.26-.187.506-.317.742.277.4.57.759.873 1.126a.32.32 0 0 1 .08.204c0 .073-.024.13-.073.187-.195.261-1.296 1.46-1.574 1.46a.416.416 0 0 1-.212-.074l-1.125-.88c-.237.122-.49.228-.742.31-.057.497-.106 1.028-.237 1.517a.3.3 0 0 1-.293.228h-1.81c-.147 0-.278-.106-.294-.244l-.229-1.501a4.795 4.795 0 0 1-.734-.302l-1.15.873a.294.294 0 0 1-.408-.016c-.432-.392-1.003-.898-1.345-1.37a.316.316 0 0 1 .008-.375c.277-.376.579-.734.857-1.118a4.344 4.344 0 0 1-.335-.807l-1.492-.22a.297.297 0 0 1-.237-.294v-1.81c0-.123.098-.27.22-.294l1.517-.229c.082-.26.188-.505.318-.75a19.656 19.656 0 0 0-.872-1.125.299.299 0 0 1-.082-.196c0-.073.033-.13.074-.187.195-.27 1.296-1.46 1.574-1.46.074 0 .147.033.212.081l1.125.873c.237-.122.49-.229.742-.31.057-.498.106-1.028.237-1.517a.3.3 0 0 1 .293-.229h1.811c.147 0 .277.106.293.245l.229 1.5c.253.082.497.18.734.303l1.158-.873a.277.277 0 0 1 .196-.074c.073 0 .146.033.204.082.432.4 1.003.905 1.345 1.386.041.05.057.114.057.18 0 .073-.024.13-.065.187-.277.375-.579.734-.856 1.118.138.26.252.53.334.799l1.492.228a.297.297 0 0 1 .237.294z" fill="#fbfbfb"/></svg>