<svg xmlns="http://www.w3.org/2000/svg" xmlns:xlink="http://www.w3.org/1999/xlink" height="48" viewBox="0 0 48 48" width="48"><title>Template icons dark</title><defs><linearGradient id="a"><stop offset="0" stop-color="#4b587a"/><stop offset="1" stop-color="#7a6982"/></linearGradient><linearGradient id="c"><stop offset="0" stop-color="#3e4453"/><stop offset="1" stop-color="#222630"/></linearGradient><linearGradient id="b"><stop offset="0" stop-color="#d4a8cf"/><stop offset="1" stop-color="#80c4e1" stop-opacity=".99"/></linearGradient><linearGradient id="d"><stop offset="0" stop-color="#9a9a9a" stop-opacity=".973"/><stop offset="1" stop-color="#f4f4f4"/></linearGradient><linearGradient xlink:href="#b" id="e" x1="4.995" y1="6.196" x2="40.265" y2="45.14" gradientUnits="userSpaceOnUse" gradientTransform="matrix(1.08443 0 0 1.0847 .78 -3.47)"/><linearGradient xlink:href="#c" id="f" gradientUnits="userSpaceOnUse" gradientTransform="matrix(.96936 0 0 1.07193 51.974 34.74)" x1="-26.746" y1="-29.715" x2="-26.746" y2="10.031"/><linearGradient xlink:href="#d" id="g" gradientUnits="userSpaceOnUse" gradientTransform="translate(-12.923 7.733) scale(1.78616)" x1="20.942" y1="20.603" x2="20.942" y2="-3.389"/><linearGradient xlink:href="#a" id="h" gradientUnits="userSpaceOnUse" gradientTransform="matrix(.92153 0 0 .92153 14.613 13.752)" x1="191.407" y1="201.023" x2="181.641" y2="174.894"/></defs><g color="#000"><path style="isolation:auto;mix-blend-mode:normal;marker:none" d="M5 2h38v44H5z" display="block" overflow="visible" fill-opacity=".088"/><path d="M6 3v42h36V3zm.992 1h34.016L41 44H7z" style="line-height:normal;font-variant-ligatures:normal;font-variant-position:normal;font-variant-caps:normal;font-variant-numeric:normal;font-variant-alternates:normal;font-feature-settings:normal;text-indent:0;text-align:start;text-decoration-line:none;text-decoration-style:solid;text-decoration-color:#000;text-transform:none;text-orientation:mixed;shape-padding:0;isolation:auto;mix-blend-mode:normal;marker:none" font-weight="400" font-family="sans-serif" white-space="normal" overflow="visible" fill="url(#e)" fill-opacity=".52"/><path d="M6.992 4h34.016L41 44H7z" style="isolation:auto;mix-blend-mode:normal;marker:none" display="block" overflow="visible" fill="url(#f)"/><path style="isolation:auto;mix-blend-mode:normal;marker:none" d="M24 48L4 36V11L24 0l20 11v25z" overflow="visible" fill-opacity=".253"/><path style="isolation:auto;mix-blend-mode:normal;marker:none" d="M24 46L4 35V12L24 1l20 11v23z" overflow="visible" fill="url(#g)"/><path style="isolation:auto;mix-blend-mode:normal;marker:none" d="M24 1L4 12v1L24 2l20 11v-1z" display="block" overflow="visible" fill="#fff"/><g opacity=".8"><path style="isolation:auto;mix-blend-mode:normal;marker:none" display="block" overflow="visible" fill="#869eb6" d="M17 11h4v2h-4z"/><path style="isolation:auto;mix-blend-mode:normal;marker:none" display="block" overflow="visible" fill="#8e9f81" d="M22 11h3v2h-3z"/><path style="isolation:auto;mix-blend-mode:normal;marker:none" display="block" overflow="visible" fill="#9e9e86" d="M17 14h4v2h-4z"/><path style="isolation:auto;mix-blend-mode:normal;marker:none" display="block" overflow="visible" fill="#86b1d6" d="M22 14h3v2h-3z"/><path style="isolation:auto;mix-blend-mode:normal;marker:none" display="block" overflow="visible" fill="#88885e" d="M26 14h3v2h-3z"/><path style="isolation:auto;mix-blend-mode:normal;marker:none" display="block" overflow="visible" fill="#987f95" d="M17 17h4v2h-4z"/><path style="isolation:auto;mix-blend-mode:normal;marker:none" display="block" overflow="visible" fill="#9d875f" d="M22 17h3v2h-3z"/><path style="isolation:auto;mix-blend-mode:normal;marker:none" display="block" overflow="visible" fill="#987f95" d="M17 23h4v2h-4z"/><path style="isolation:auto;mix-blend-mode:normal;marker:none" display="block" overflow="visible" fill="#68798d" d="M22 23h5v2h-5z"/><path style="isolation:auto;mix-blend-mode:normal;marker:none" display="block" overflow="visible" fill="#606d78" d="M28 23h6v2h-6z"/><path style="isolation:auto;mix-blend-mode:normal;marker:none" display="block" overflow="visible" fill="#b29d71" d="M35 23h4v2h-4z"/><path style="isolation:auto;mix-blend-mode:normal;marker:none" display="block" overflow="visible" fill="#b36b75" d="M17 29h4v2.163h-4z"/><path style="isolation:auto;mix-blend-mode:normal;marker:none" display="block" overflow="visible" fill="#b47f70" d="M22 29h3v2h-3z"/><path style="isolation:auto;mix-blend-mode:normal;marker:none" display="block" overflow="visible" fill="#a66f71" d="M17 32h5v2h-5z"/><path style="isolation:auto;mix-blend-mode:normal;marker:none" display="block" overflow="visible" fill="#59758c" d="M23 32h4v2h-4z"/><path style="isolation:auto;mix-blend-mode:normal;marker:none" display="block" overflow="visible" fill="#5e6974" d="M25.89 29H29v2h-3.11z"/><path style="isolation:auto;mix-blend-mode:normal;marker:none" display="block" overflow="visible" fill="#4d854d" d="M30 29h6v2h-6z"/><path style="isolation:auto;mix-blend-mode:normal;marker:none" display="block" overflow="visible" fill="#b36b75" d="M26 11h5v2h-5z"/><path style="isolation:auto;mix-blend-mode:normal;marker:none" display="block" overflow="visible" fill="#c09d58" d="M32 11h5v2h-5z"/><path style="isolation:auto;mix-blend-mode:normal;marker:none" display="block" overflow="visible" fill="#575f70" d="M12 11h2v2h-2zM12 14h2v2h-2zM12 17h2v2h-2zM12 20h2v2h-2zM12 23h2v2h-2zM12 26h2v2h-2zM12 29h2v2h-2zM12 32h2v2h-2z"/></g></g></svg>