<svg xmlns="http://www.w3.org/2000/svg" xmlns:xlink="http://www.w3.org/1999/xlink" width="48" viewBox="0 0 48 48" height="48"><title>Template icons dark</title><defs><linearGradient id="b"><stop offset="0" stop-color="#d6c8ee"/><stop offset="1" stop-color="#aad1f7"/></linearGradient><linearGradient id="a"><stop offset="0" stop-color="#5d8afc"/><stop offset="1" stop-color="#aa88d1"/></linearGradient><linearGradient gradientTransform="matrix(.50742 0 0 .50742 -57.053 -57.262)" xlink:href="#b" id="j" x1="144.509" y1="142.827" x2="172.287" y2="176.313" gradientUnits="userSpaceOnUse"/><linearGradient gradientTransform="matrix(.50742 0 0 .50742 -57.053 -57.262)" xlink:href="#a" id="h" x1="188.825" y1="190.844" x2="130.018" y2="127.876" gradientUnits="userSpaceOnUse"/><radialGradient gradientTransform="matrix(.06522 -.0039 .00381 .06372 -97.9 -56.391)" gradientUnits="userSpaceOnUse" id="c" r="776.623" fy="3474.059" fx="3838.903" cy="3474.059" cx="3838.903"><stop offset="0%" stop-color="#444367"/><stop offset="44.511%" stop-color="#29253B"/><stop offset="1" stop-color="#1f2032"/></radialGradient><radialGradient xlink:href="#d" id="i" gradientUnits="userSpaceOnUse" gradientTransform="matrix(.03338 -.002 .00195 .03261 -108.037 -86.533)" cx="3838.903" cy="3474.059" fx="3838.903" fy="3474.059" r="776.623"/><radialGradient gradientTransform="matrix(.06522 -.0039 .00381 .06372 -97.9 -56.391)" gradientUnits="userSpaceOnUse" id="d" r="776.623" fy="3474.059" fx="3838.903" cy="3474.059" cx="3838.903"><stop offset="0%" stop-color="#444367"/><stop offset="44.511%" stop-color="#29253B"/><stop offset="1" stop-color="#1f2032"/></radialGradient><radialGradient gradientTransform="matrix(.06522 -.0039 .00381 .06372 -97.9 -56.391)" gradientUnits="userSpaceOnUse" id="e" r="776.623" fy="3474.059" fx="3838.903" cy="3474.059" cx="3838.903"><stop offset="0%" stop-color="#444367"/><stop offset="44.511%" stop-color="#29253B"/><stop offset="1" stop-color="#1f2032"/></radialGradient><radialGradient gradientTransform="matrix(.06522 -.0039 .00381 .06372 -97.9 -56.391)" gradientUnits="userSpaceOnUse" id="f" r="776.623" fy="3474.059" fx="3838.903" cy="3474.059" cx="3838.903"><stop offset="0%" stop-color="#444367"/><stop offset="44.511%" stop-color="#29253B"/><stop offset="1" stop-color="#1f2032"/></radialGradient><radialGradient gradientTransform="matrix(.06522 -.0039 .00381 .06372 -97.9 -56.391)" gradientUnits="userSpaceOnUse" id="g" r="776.623" fy="3474.059" fx="3838.903" cy="3474.059" cx="3838.903"><stop offset="0%" stop-color="#444367"/><stop offset="44.511%" stop-color="#29253B"/><stop offset="1" stop-color="#1f2032"/></radialGradient></defs><path d="M23.963 48c-2.4 0-19.584-9.921-20.784-12-1.2-2.078-1.2-21.921 0-24 1.2-2.078 18.384-12 20.784-12 2.4 0 19.585 9.922 20.785 12 1.2 2.079 1.2 21.922 0 24-1.2 2.079-18.385 12-20.785 12z" style="isolation:auto;mix-blend-mode:normal;marker:none" color="#000" overflow="visible" fill-opacity=".26"/><path style="isolation:auto;mix-blend-mode:normal;marker:none" d="M23.963 46.004c-2.2 0-17.955-9.097-19.055-11.002-1.1-1.906-1.1-20.098 0-22.004 1.1-1.905 16.855-11.001 19.055-11.001 2.2 0 17.956 9.096 19.056 11.001 1.1 1.906 1.1 20.098 0 22.004-1.1 1.905-16.855 11.002-19.056 11.002z" color="#000" overflow="visible" fill-opacity=".26" stroke="url(#h)" stroke-width="1.935"/><path style="isolation:auto;mix-blend-mode:normal;marker:none" d="M43.34 35.187L23.963 46.375 4.587 35.187V12.813L23.963 1.626 43.34 12.813z" color="#000" overflow="visible" fill="url(#i)"/><path style="line-height:normal;font-variant-ligatures:normal;font-variant-position:normal;font-variant-caps:normal;font-variant-numeric:normal;font-variant-alternates:normal;font-feature-settings:normal;text-indent:0;text-align:start;text-decoration-line:none;text-decoration-style:solid;text-decoration-color:#000;text-transform:none;text-orientation:mixed;shape-padding:0;isolation:auto;mix-blend-mode:normal;marker:none" d="M24.134 5.87L8.688 14.788v17.836l15.446 8.916 15.446-8.916V14.788zm0 1.559l14.096 8.138v16.277l-14.096 8.139-14.096-8.14V15.568z" color="#000" font-weight="400" font-family="sans-serif" white-space="normal" overflow="visible" fill="#5ddffc" fill-opacity=".057"/><path d="M4.587 25.039V12.813L23.963 1.626 43.34 12.813z" style="isolation:auto;mix-blend-mode:normal;marker:none" color="#000" overflow="visible" fill="#fff" fill-opacity=".031"/><path d="M29.558 32.549V26.85H24.87v-2.358h7.53V33.6q-1.662 1.18-3.666 1.79-2.003.597-4.276.597-4.973 0-7.786-2.899-2.8-2.912-2.8-8.098 0-5.2 2.8-8.099 2.813-2.912 7.786-2.912 2.074 0 3.935.511 1.876.512 3.453 1.506v3.055q-1.591-1.35-3.382-2.032-1.79-.682-3.765-.682-3.893 0-5.854 2.174Q16.9 20.685 16.9 24.99q0 4.29 1.946 6.465 1.961 2.173 5.854 2.173 1.52 0 2.714-.255 1.193-.27 2.145-.824z" style="line-height:1000%;-inkscape-font-specification:orya" font-weight="400" font-family="orya" letter-spacing="0" word-spacing="0" fill-opacity=".479"/><path style="line-height:1000%;-inkscape-font-specification:orya" d="M29.558 31.026V25.33H24.87V22.97h7.53v9.108q-1.662 1.179-3.666 1.79-2.003.597-4.276.597-4.973 0-7.786-2.899-2.8-2.912-2.8-8.098 0-5.2 2.8-8.099 2.813-2.913 7.786-2.913 2.074 0 3.935.512 1.876.511 3.453 1.506v3.055q-1.591-1.35-3.382-2.032-1.79-.682-3.765-.682-3.893 0-5.854 2.174-1.946 2.174-1.946 6.479 0 4.29 1.946 6.464 1.961 2.174 5.854 2.174 1.52 0 2.714-.256 1.193-.27 2.145-.824z" font-weight="400" font-family="orya" letter-spacing="0" word-spacing="0" fill="url(#j)"/><path style="isolation:auto;mix-blend-mode:normal;marker:none" d="M23.963 1.625L4.586 12.813v.508L23.963 2.133 43.34 13.32v-.508z" color="#000" overflow="visible" fill-opacity=".297"/><path d="M23.963 46.39L4.586 35.204v-.508l19.377 11.188L43.34 34.695v.508z" style="isolation:auto;mix-blend-mode:normal;marker:none" color="#000" overflow="visible" fill="#fff" fill-opacity=".099"/></svg>