<svg xmlns="http://www.w3.org/2000/svg" xmlns:xlink="http://www.w3.org/1999/xlink" height="48" viewBox="0 0 48 48" width="48" enable-background="new"><title>Template icons dark</title><defs><linearGradient id="a"><stop offset="0" stop-color="#4ceb78"/><stop offset="1" stop-color="#2ec43e"/></linearGradient><linearGradient id="b"><stop offset="0" stop-color="#e12850"/><stop offset="1" stop-color="#ff2e62"/></linearGradient><linearGradient id="c"><stop offset="0" stop-color="#ffa300"/><stop offset="1" stop-color="#ffcf46"/></linearGradient><linearGradient gradientTransform="translate(-.457 -.457) scale(1.01902)" xlink:href="#c" id="e" x1="35.797" y1="39.238" x2="34.085" y2="22.905" gradientUnits="userSpaceOnUse"/><linearGradient gradientTransform="translate(-.457 -.457) scale(1.01902)" xlink:href="#b" id="f" x1="33.793" y1="4.069" x2="16.622" y2="16.444" gradientUnits="userSpaceOnUse"/><linearGradient gradientTransform="translate(-.457 -.457) scale(1.01902)" xlink:href="#a" id="g" x1="12.226" y1="19.162" x2="11.067" y2="36.957" gradientUnits="userSpaceOnUse"/><filter id="d" x="-.012" width="1.024" y="-.012" height="1.024" color-interpolation-filters="sRGB"/></defs><g><circle style="isolation:auto;mix-blend-mode:normal;marker:none" cx="24" cy="24" r="22.664" color="#000" display="block" overflow="visible" fill="none" stroke="#000" stroke-width="2.672" stroke-opacity=".115" paint-order="fill markers stroke" enable-background="accumulate"/><path style="isolation:auto;mix-blend-mode:normal;marker:none" d="M159.552 136.448c-12.703 0-23 10.297-23 23s10.297 23 23 23 23-10.297 23-23-10.297-23-23-23zm-.138 16.597a6.424 6.424 0 1 1 0 12.847 6.424 6.424 0 0 1 0-12.847z" transform="translate(-138.587 -138.481) scale(1.01902)" color="#000" overflow="visible" fill-opacity=".235" filter="url(#d)" enable-background="accumulate"/><path style="font-variant-east_asian:normal" d="M23.859 29.492a5.47 5.47 0 1 0 0-10.942 5.47 5.47 0 0 0 0 10.942z" fill="#4690eb" fill-opacity=".335" fill-rule="evenodd"/><path d="M26.038 2.6C13.094 2.6 2.601 13.095 2.601 26.039c0 11.695 8.523 21.422 21.399 21.4C36.944 47.415 47.438 36.944 47.438 24a23.34 23.34 0 0 0-5.293-14.836c-4.298-5.25-8.792-6.563-16.107-6.563zM23.86 17.265a6.757 6.757 0 0 1 6.757 6.757c0 3.732-3.606 7.285-7.338 7.285-3.731 0-7.865-3.553-7.865-7.285s4.873-7.232 8.446-6.757z" fill="url(#e)" fill-rule="evenodd"/><path d="M24 .563c-8.647 0-16.195 4.686-20.257 11.655l14.644 15.767c-1.24-1.646-1.285-3.368-1.285-3.964a6.753 6.753 0 0 1 6.23-6.73l21.785-3.445a23.458 23.458 0 0 0-2.972-4.682C37.847 3.914 31.315.563 24 .563z" fill="url(#f)" fill-rule="evenodd"/><path d="M3.15 34.71c3.95 7.692 11.504 12.481 19.622 12.696l5.6-18.361c-.424.38-.897.717-1.427.99a6.753 6.753 0 0 1-8.833-2.467L5.32 9.858a23.458 23.458 0 0 0-2.807 4.781C-.194 20.861-.19 28.203 3.15 34.71z" fill="url(#g)" fill-rule="evenodd"/><path d="M5.244 9.702l12.24 12s-.527 1.553-.382 3.217c.075.856.871 2.428.871 2.428zM45.113 13.869L28.79 19.372s-1.193-1.178-2.19-1.57c-1.628-.638-2.822-.555-2.822-.555zM22.775 47.425l1.849-16.643s1.365-.262 1.99-.55c.643-.295 1.76-1.185 1.76-1.185z" fill-opacity=".147" fill-rule="evenodd"/></g></svg>