<svg xmlns="http://www.w3.org/2000/svg" xmlns:xlink="http://www.w3.org/1999/xlink" height="48" viewBox="0 0 48 48" width="48"><title>Template icons dark</title><defs><linearGradient id="j"><stop offset="0" stop-color="#fff" stop-opacity=".852"/><stop offset="1" stop-color="#fff" stop-opacity="0"/></linearGradient><linearGradient id="i"><stop offset="0" stop-color="#fff" stop-opacity=".56"/><stop offset="1" stop-color="#fff" stop-opacity="0"/></linearGradient><linearGradient id="h"><stop offset="0" stop-color="#28263e"/><stop offset="1" stop-color="#494b5a"/></linearGradient><linearGradient id="g"><stop offset="0" stop-color="#4abecb"/><stop offset=".505" stop-color="#60d9b6" stop-opacity=".989"/><stop offset="1" stop-color="#dff48b" stop-opacity=".973"/></linearGradient><linearGradient id="f"><stop offset="0" stop-color="#2aa591"/><stop offset="1" stop-color="#2498e4"/></linearGradient><linearGradient id="a"><stop offset="0" stop-color="#2a0ff3" stop-opacity=".132"/><stop offset=".521" stop-color="#3bf963" stop-opacity=".291"/><stop offset="1" stop-color="#ef4cff" stop-opacity=".297"/></linearGradient><linearGradient id="b"><stop offset="0" stop-color="#fff"/><stop offset="1" stop-color="#fff" stop-opacity="0"/></linearGradient><linearGradient id="c"><stop offset="0"/><stop offset="1" stop-opacity="0"/></linearGradient><linearGradient id="d"><stop offset="0" stop-color="#babdb6"/><stop offset="1" stop-color="#fff"/></linearGradient><linearGradient id="e"><stop offset="0" stop-color="#888a85"/><stop offset="1" stop-color="#555753"/></linearGradient><linearGradient gradientTransform="scale(.587) rotate(-45 -41.783 242.705)" xlink:href="#h" id="k" x1="153.065" y1="190.903" x2="153.065" y2="125.679" gradientUnits="userSpaceOnUse"/><linearGradient xlink:href="#g" id="l" x1="167.206" y1="193.417" x2="165.746" y2="132.007" gradientUnits="userSpaceOnUse" gradientTransform="rotate(-45 -12 111.957) scale(.47509)"/></defs><g color="#000"><path style="isolation:auto;mix-blend-mode:normal;marker:none" d="M35.062 4L46.59 23.97 35.537 43.113H13.432L2.38 23.97 14 4z" display="block" overflow="visible" fill="none" stroke="#000" stroke-width="1.15171362" stroke-opacity=".17" paint-order="fill markers stroke"/><path style="isolation:auto;mix-blend-mode:normal;marker:none" d="M35.062 4L46.59 23.97 35.537 43.113H13.432L2.38 23.97 14 4z" display="block" overflow="visible" fill="url(#k)" paint-order="fill markers stroke"/><path style="isolation:auto;mix-blend-mode:normal;marker:none" d="M13.432 43.197L2.38 24.054l.144-.25 10.908 18.894h22.105l10.908-18.894.144.25-11.052 19.143z" display="block" overflow="visible" fill-opacity=".544" paint-order="fill markers stroke"/><path d="M14 4L2.38 23.97l.144.25L13.681 5h21.658l11.106 19.22.144-.25L35.062 4z" style="isolation:auto;mix-blend-mode:normal;marker:none" display="block" overflow="visible" fill="#bcecf6" fill-opacity=".154" paint-order="fill markers stroke"/><path style="isolation:auto;mix-blend-mode:normal;marker:none" d="M15.54 8.976L6.594 24.47l8.944 15.494h17.89l8.945-15.494L33.43 8.976zm3.97 7.244h9.535l4.766 8.257-4.766 8.257H19.51l-4.767-8.257z" overflow="visible" fill-opacity=".418" paint-order="fill markers stroke"/><path style="isolation:auto;mix-blend-mode:normal;marker:none" d="M2.795 18.148l1.06-7.767a.978.978 0 0 1 1.102-.838l7.767 1.059c.538.073.839 1.103.287 1.522l-8.828 6.727c-.55.4-1.461-.165-1.388-.703z" display="block" overflow="visible" fill-opacity=".297" paint-order="fill markers stroke"/><path d="M15.263 8L6.595 23.97l8.944 15.493h17.89l8.945-15.493L33.64 8zm4.247 7.721h9.535l4.766 8.257-4.766 8.257H19.51l-4.767-8.257z" style="isolation:auto;mix-blend-mode:normal;marker:none" display="block" overflow="visible" fill="url(#l)" paint-order="fill markers stroke"/><path d="M26.205 20.462l2.054 3.557-2.054 3.558h-4.108l-2.054-3.558 2.054-3.557z" style="isolation:auto;mix-blend-mode:normal;marker:none" display="block" overflow="visible" fill-opacity=".467" paint-order="fill markers stroke"/><path d="M15.263 8L6.595 23.97l.144.25 8.8-15.244h17.89L42.23 24.22l.144-.25L33.64 8zm-.375 16.228l-.145.25 4.767 8.256h9.535l4.766-8.257-.144-.25-4.622 8.008H19.51z" style="isolation:auto;mix-blend-mode:normal;marker:none" display="block" overflow="visible" fill="#f7fdd4" fill-opacity=".918" paint-order="fill markers stroke"/><path d="M2.672 17.176L3.73 9.41a.978.978 0 0 1 1.103-.838l7.767 1.059c.538.073.838 1.103.287 1.522L4.059 17.88c-.549.4-1.46-.165-1.387-.703z" style="isolation:auto;mix-blend-mode:normal;marker:none" display="block" overflow="visible" fill="#d0ec8c" paint-order="fill markers stroke"/><path style="isolation:auto;mix-blend-mode:normal;marker:none" d="M30.257 40.42l-3.198 5.54a.798.798 0 0 1-1.093.293l-5.54-3.199c-.383-.221-.292-1.092.254-1.238l8.746-2.355c.538-.133 1.052.576.831.96z" display="block" overflow="visible" fill-opacity=".659" paint-order="fill markers stroke"/><path d="M30.112 39.544l-3.199 5.54a.798.798 0 0 1-1.092.292l-5.54-3.198c-.383-.222-.292-1.093.254-1.239l8.746-2.355c.538-.133 1.052.576.83.96z" style="isolation:auto;mix-blend-mode:normal;marker:none" display="block" overflow="visible" fill="#53c9c1" paint-order="fill markers stroke"/><path d="M12.987 35.663l-7.815 1.45a.991.991 0 0 1-1.158-.795l-1.45-7.815c-.1-.541.795-1.158 1.374-.76l9.285 6.36c.56.401.305 1.46-.236 1.56z" style="isolation:auto;mix-blend-mode:normal;marker:none" display="block" overflow="visible" fill-opacity=".379" paint-order="fill markers stroke"/><path style="isolation:auto;mix-blend-mode:normal;marker:none" d="M13.004 34.656l-7.815 1.45a.991.991 0 0 1-1.158-.795l-1.45-7.815c-.101-.54.795-1.158 1.374-.76l9.284 6.36c.56.402.306 1.46-.235 1.56z" display="block" overflow="visible" fill="#7bddab" paint-order="fill markers stroke"/><path d="M27.352 36.39l-3.28 2.25a.496.496 0 0 1-.69-.128l-2.252-3.28c-.155-.227.13-.69.475-.627l5.538 1.023c.337.07.436.606.209.762z" style="isolation:auto;mix-blend-mode:normal;marker:none" display="block" overflow="visible" fill-opacity=".593" paint-order="fill markers stroke"/><path style="isolation:auto;mix-blend-mode:normal;marker:none" d="M27.48 35.695l-3.278 2.25a.496.496 0 0 1-.692-.128l-2.25-3.279c-.156-.227.128-.691.474-.627l5.538 1.023c.337.07.436.605.209.761z" display="block" overflow="visible" fill="#fff289" paint-order="fill markers stroke"/><path style="isolation:auto;mix-blend-mode:normal;marker:none" d="M27.272 29.805l-.808 3.016a.39.39 0 0 1-.478.276l-3.016-.808c-.209-.056-.276-.478-.037-.616l3.826-2.215c.237-.13.569.139.513.347z" display="block" overflow="visible" fill-opacity=".61" paint-order="fill markers stroke"/><path d="M27 28.978l-.808 3.016a.39.39 0 0 1-.478.276l-3.016-.808c-.209-.056-.276-.478-.037-.616l3.826-2.216c.237-.13.569.14.513.348z" style="isolation:auto;mix-blend-mode:normal;marker:none" display="block" overflow="visible" fill="#ebda8c" paint-order="fill markers stroke"/><path style="isolation:auto;mix-blend-mode:normal;marker:none" d="M25 27.679l-2.095.788a.28.28 0 0 1-.36-.164l-.789-2.095c-.054-.145.164-.36.344-.279l2.888 1.306c.175.083.157.39.012.444z" display="block" overflow="visible" fill="#f8f1b8" paint-order="fill markers stroke"/><path style="isolation:auto;mix-blend-mode:normal;marker:none" d="M19.026 4.503L25.28.893a.9.9 0 0 1 1.233.33l3.61 6.254c.25.433-.33 1.233-.946 1.067l-9.88-2.634c-.601-.174-.704-1.157-.27-1.407z" display="block" overflow="visible" fill-opacity=".264" paint-order="fill markers stroke"/><path d="M18.663 3.873l6.253-3.61a.9.9 0 0 1 1.233.33l3.611 6.254c.25.433-.33 1.233-.947 1.068l-9.88-2.634c-.6-.174-.703-1.157-.27-1.408z" style="isolation:auto;mix-blend-mode:normal;marker:none" display="block" overflow="visible" fill="#b6e895" paint-order="fill markers stroke"/><path d="M36.849 6.175l8.713 5.03c.603.348.808 1.115.46 1.718l-5.03 8.713c-.349.603-1.718.46-1.948-.399L35.34 7.482c-.209-.847.906-1.656 1.509-1.307z" style="isolation:auto;mix-blend-mode:normal;marker:none" display="block" overflow="visible" fill-opacity=".264" paint-order="fill markers stroke"/><path style="isolation:auto;mix-blend-mode:normal;marker:none" d="M37.355 5.298l8.713 5.03c.603.348.809 1.114.46 1.718l-5.03 8.712c-.348.604-1.718.46-1.948-.398L35.846 6.605c-.209-.847.906-1.656 1.51-1.307z" display="block" overflow="visible" fill="#60d7b5" paint-order="fill markers stroke"/><path d="M20.35 41.025c-.377.268-.405.96-.069 1.153l.024.014c-.033-.33.126-.725.48-.82l8.745-2.356c.232-.057.456.046.622.208-.07-.358-.463-.74-.871-.64l-8.747 2.356a.575.575 0 0 0-.183.085z" style="isolation:auto;mix-blend-mode:normal;marker:none" display="block" overflow="visible" fill="#fbfefd" fill-opacity=".896" paint-order="fill markers stroke"/><path d="M3.482 26.61c-.491.032-.976.48-.901.886l.04.216c.172-.44.857-.804 1.334-.476l9.284 6.36c.151.109.24.266.282.438.078-.338.011-.727-.282-.937l-9.284-6.36a.74.74 0 0 0-.473-.127z" style="isolation:auto;mix-blend-mode:normal;marker:none" display="block" overflow="visible" fill="#fff" fill-opacity=".874" paint-order="fill markers stroke"/><path d="M37.108 5.219c-.614-.067-1.445.645-1.262 1.386l.016.058c.168-.655.997-1.152 1.493-.866l8.713 5.03c.325.188.53.497.6.836a1.25 1.25 0 0 0-.6-1.335l-8.713-5.03a.626.626 0 0 0-.247-.08z" style="isolation:auto;mix-blend-mode:normal;marker:none" display="block" overflow="visible" fill="#fff" fill-opacity=".544" paint-order="fill markers stroke"/><path style="isolation:auto;mix-blend-mode:normal;marker:none" d="M25 24l-1 1-1-1 1-1z" display="block" overflow="visible" fill="#bde993" paint-order="fill markers stroke"/></g></svg>