<svg xmlns="http://www.w3.org/2000/svg" xmlns:xlink="http://www.w3.org/1999/xlink" height="48" viewBox="0 0 48 48" width="48"><title>Template icons dark</title><defs><linearGradient id="c"><stop offset="0" stop-color="#5299dc"/><stop offset="1" stop-color="#287bc8"/></linearGradient><linearGradient id="b"><stop offset="0" stop-color="#ebebeb"/><stop offset="1" stop-color="#a0afbe"/></linearGradient><linearGradient id="a"><stop offset="0" stop-color="#003783"/><stop offset="1" stop-color="#69e5ff"/></linearGradient><linearGradient xlink:href="#a" id="d" gradientUnits="userSpaceOnUse" x1="120" y1="120" x2="203.055" y2="204"/><linearGradient xlink:href="#b" id="e" gradientUnits="userSpaceOnUse" gradientTransform="translate(-29 -29) scale(.66667)" x1="155.098" y1="157.153" x2="197.653" y2="195.477"/><linearGradient xlink:href="#c" id="f" gradientUnits="userSpaceOnUse" gradientTransform="translate(-29 -29) scale(.66667)" x1="181.918" y1="190.647" x2="170.052" y2="165.317"/></defs><g color="#000"><path style="isolation:auto;mix-blend-mode:normal;marker:none" d="M5 5h38v38H5z" display="block" overflow="visible" fill-opacity=".141" paint-order="fill markers stroke"/><path style="isolation:auto;mix-blend-mode:normal;marker:none" d="M6 6h36.003v36.003H6z" display="block" overflow="visible" fill="#2268ab" paint-order="fill markers stroke"/><path style="isolation:auto;mix-blend-mode:normal;marker:none" d="M18 18h12v12H18z" display="block" overflow="visible" fill="#3d8dd8" paint-order="fill markers stroke"/><path style="isolation:auto;mix-blend-mode:normal;marker:none" d="M18 6h12v12H18z" display="block" overflow="visible" fill="#2777c4" paint-order="fill markers stroke"/><path style="isolation:auto;mix-blend-mode:normal;marker:none" d="M6 6h12v12H6z" display="block" overflow="visible" fill="#1f609e" paint-order="fill markers stroke"/><path style="isolation:auto;mix-blend-mode:normal;marker:none" d="M6 18h12v12H6z" display="block" overflow="visible" fill="#3b83c8" paint-order="fill markers stroke"/><path style="isolation:auto;mix-blend-mode:normal;marker:none" d="M30 18h11.997v12H30z" display="block" overflow="visible" fill="#63a3e0" paint-order="fill markers stroke"/><path style="isolation:auto;mix-blend-mode:normal;marker:none" d="M30 6h11.997v12H30z" display="block" overflow="visible" fill="#3b8bd8" paint-order="fill markers stroke"/><path style="isolation:auto;mix-blend-mode:normal;marker:none" d="M18 30h12v11.997H18z" display="block" overflow="visible" fill="#61a2e0" paint-order="fill markers stroke"/><path style="isolation:auto;mix-blend-mode:normal;marker:none" d="M6 30h12v11.997H6z" display="block" overflow="visible" fill="#4893db" paint-order="fill markers stroke"/><path style="isolation:auto;mix-blend-mode:normal;marker:none" d="M6 41h36.003v.997H6z" display="block" overflow="visible" fill="#fff" fill-opacity=".257" paint-order="fill markers stroke"/><path d="M33.469 19.92a13.574 13.574 0 0 0-.442.016c-.025-.003-.048-.014-.074-.014h-12.5a.54.54 0 0 0-.543.541v12.714a13.574 13.574 0 0 0-.016.318A13.574 13.574 0 0 0 33.47 47.069a13.574 13.574 0 0 0 13.574-13.574A13.574 13.574 0 0 0 33.47 19.92z" style="isolation:auto;mix-blend-mode:normal;marker:none" overflow="visible" fill-opacity=".152" paint-order="fill markers stroke"/><path d="M90.334 73.667a16.667 16.667 0 0 0-.543.02c-.031-.005-.058-.019-.09-.019H74.35a.664.664 0 0 0-.665.665v15.61a16.667 16.667 0 0 0-.02.39A16.667 16.667 0 0 0 90.335 107 16.667 16.667 0 0 0 107 90.334a16.667 16.667 0 0 0-16.666-16.667z" style="isolation:auto;mix-blend-mode:normal;marker:none" overflow="visible" fill="url(#e)" paint-order="fill markers stroke" transform="matrix(.75774 0 0 .75774 -34.98 -34.954)"/><path d="M98.903 90.334a8.57 8.57 0 0 1-8.57 8.569 8.57 8.57 0 0 1-8.569-8.57 8.57 8.57 0 0 1 8.57-8.569 8.57 8.57 0 0 1 8.569 8.57z" style="isolation:auto;mix-blend-mode:normal;marker:none" overflow="visible" fill="url(#f)" paint-order="fill markers stroke" transform="matrix(.75774 0 0 .75774 -34.98 -34.954)"/><path d="M33.469 27.002a6.493 6.493 0 0 0-6.493 6.493c0 .1.004.2.01.3.11-3.502 2.98-5.981 6.483-5.985 3.468.002 6.323 2.426 6.483 5.89a6.44 6.44 0 0 0 .01-.205 6.493 6.493 0 0 0-6.493-6.493z" style="isolation:auto;mix-blend-mode:normal;marker:none" overflow="visible" fill-opacity=".372" paint-order="fill markers stroke"/><path style="isolation:auto;mix-blend-mode:normal;marker:none" d="M33.469 40.67c-3.586 0-6.493-3.08-6.493-6.666 0-.1.004-.2.01-.3a6.493 6.493 0 0 0 6.483 6.288 6.493 6.493 0 0 0 6.483-6.193c.004.068.008.137.01.205 0 3.586-2.907 6.666-6.493 6.666z" overflow="visible" fill="#fff" fill-opacity=".937" paint-order="fill markers stroke"/><path d="M20.853 33.242c-.006.084-.01.169-.013.253 0 6.975 5.654 12.629 12.629 12.629s12.629-5.654 12.629-12.63a14.82 14.82 0 0 0-.011-.208c-.16 6.854-5.762 12.026-12.618 12.03-6.873-.006-12.479-5.203-12.616-12.074z" style="isolation:auto;mix-blend-mode:normal;marker:none" overflow="visible" fill="#fff" fill-opacity=".796" paint-order="fill markers stroke"/><path d="M33 31v2h-2v1h2l-.036 2.02L34 36v-2h2v-1h-2v-2z" style="isolation:auto;mix-blend-mode:normal;marker:none" overflow="visible" fill="#fff" fill-opacity=".293" paint-order="fill markers stroke"/></g></svg>