<svg xmlns="http://www.w3.org/2000/svg" xmlns:xlink="http://www.w3.org/1999/xlink" height="48" viewBox="0 0 48 48" width="48"><title>Template icons dark</title><defs><linearGradient id="c"><stop offset="0" stop-color="#db4ca1"/><stop offset="1" stop-color="#8e3592" stop-opacity=".996"/></linearGradient><linearGradient id="f"><stop offset="0" stop-color="#23acff"/><stop offset="1" stop-color="#7647d8" stop-opacity=".996"/></linearGradient><linearGradient id="e"><stop offset="0" stop-color="#08ffe8"/><stop offset="1" stop-color="#8abdec"/></linearGradient><linearGradient id="a"><stop offset="0" stop-color="#fff" stop-opacity=".427"/><stop offset=".423" stop-color="#fafcfe"/><stop offset="1" stop-color="#fff" stop-opacity=".49"/></linearGradient><linearGradient id="b"><stop offset="0" stop-color="#fe50b8"/><stop offset="1" stop-color="#722f98" stop-opacity=".995"/></linearGradient><linearGradient id="d"><stop offset="0" stop-color="#fff" stop-opacity=".179"/><stop offset="1" stop-color="#fff" stop-opacity=".795"/></linearGradient><linearGradient xlink:href="#b" id="h" gradientUnits="userSpaceOnUse" gradientTransform="translate(0 .338)" x1="16.791" y1="294.048" x2="16.839" y2="271.451"/><linearGradient xlink:href="#b" id="i" gradientUnits="userSpaceOnUse" gradientTransform="translate(0 .338)" x1="16.791" y1="294.048" x2="16.839" y2="271.451"/><linearGradient xlink:href="#b" id="j" gradientUnits="userSpaceOnUse" gradientTransform="translate(0 .338)" x1="16.791" y1="294.048" x2="16.839" y2="271.451"/><linearGradient xlink:href="#f" id="k" gradientUnits="userSpaceOnUse" gradientTransform="translate(0 .338)" x1="16.967" y1="277.049" x2="16.967" y2="264.621"/><linearGradient xlink:href="#e" id="l" gradientUnits="userSpaceOnUse" gradientTransform="translate(0 .338)" x1="17.244" y1="286.28" x2="30.792" y2="276.804"/><linearGradient xlink:href="#c" id="m" gradientUnits="userSpaceOnUse" gradientTransform="translate(0 .338)" x1="16.791" y1="294.048" x2="3.857" y2="275.45"/><linearGradient xlink:href="#b" id="g" gradientUnits="userSpaceOnUse" x1="16.791" y1="294.048" x2="16.839" y2="271.451"/><linearGradient xlink:href="#d" id="o" gradientUnits="userSpaceOnUse" gradientTransform="translate(0 .338)" x1="16.721" y1="296.202" x2="17.087" y2="265.977"/><linearGradient xlink:href="#d" id="p" gradientUnits="userSpaceOnUse" gradientTransform="translate(0 .338)" x1="16.721" y1="296.202" x2="17.087" y2="265.977"/><linearGradient xlink:href="#d" id="q" gradientUnits="userSpaceOnUse" gradientTransform="translate(0 .338)" x1="16.721" y1="296.202" x2="17.087" y2="265.977"/><linearGradient xlink:href="#d" id="r" gradientUnits="userSpaceOnUse" gradientTransform="translate(0 .338)" x1="16.721" y1="296.202" x2="17.087" y2="265.977"/><linearGradient xlink:href="#d" id="n" gradientUnits="userSpaceOnUse" x1="16.721" y1="296.202" x2="17.087" y2="265.977"/></defs><g transform="matrix(1.55102 0 0 1.55102 -2.128 -410.637)" style="isolation:auto;mix-blend-mode:normal;marker:none" color="#000" overflow="visible" fill="url(#g)" stroke-width=".265" stroke-opacity=".984"><path d="M2.483 268.31v16.01l14.463-5.115v-14.178z" fill="url(#h)"/><path d="M2.483 284.32l14.45 11.235 14.46-11.247-14.447-5.103z" fill="url(#i)" fill-rule="evenodd"/><path d="M16.946 265.027l14.448 3.278v16.003l-14.448-5.103z" fill="url(#j)" fill-rule="evenodd"/><path d="M2.483 268.31l14.45 7.945 14.46-7.95-14.447-3.278z" fill="url(#k)"/><path d="M16.932 276.255v19.3l14.462-11.247v-16.003z" fill="url(#l)" fill-rule="evenodd"/><path d="M2.483 268.31l14.45 7.945v19.3L2.482 284.32z" fill="url(#m)" fill-rule="evenodd"/></g><g transform="matrix(1.55102 0 0 1.55102 -2.128 -410.637)" style="isolation:auto;mix-blend-mode:normal;marker:none" color="#000" overflow="visible" fill="none" stroke="url(#n)" stroke-width=".265" stroke-opacity=".142"><path d="M2.483 284.32l14.45 11.235 14.46-11.247-14.447-5.267z" stroke="url(#o)" stroke-linejoin="round"/><path d="M2.483 268.31l14.45 7.781 14.46-7.786-14.447-3.278z" stroke="url(#p)"/><path d="M16.932 276.091v19.464l14.462-11.247v-16.003z" stroke="url(#q)" stroke-linejoin="round"/><path d="M2.483 268.31l14.45 7.781v19.464L2.482 284.32z" stroke="url(#r)" stroke-linejoin="round"/></g><path style="line-height:1000%;-inkscape-font-specification:Raleway" d="M9.68 19.427l-.01.763 1.772 1.294-.102 7.976.491.358.102-7.976 1.772 1.294.01-.763zm8.775 6.42l-2.804 3.086.064-5.07-.49-.358-.111 8.725.49.357.034-2.684.96-1.025 1.85 5.785.54.393-2.075-6.459 2.081-2.356zm-11.92-8.49c-.333-.242-.64-.341-.924-.3-.283.034-.53.18-.74.44-.21.252-.378.604-.501 1.052a6.423 6.423 0 0 0-.19 1.55 9.403 9.403 0 0 0 .154 1.764c.11.61.265 1.201.465 1.77.205.57.446 1.087.723 1.546.282.462.591.816.927 1.062.603.44 1.14.379 1.614-.178l-.016 1.281.413.302.055-4.296-1.52-1.11-.008.665 1.106.808-.019 1.452c-.244.335-.498.526-.763.573-.26.043-.532-.04-.817-.248-.266-.194-.513-.474-.74-.838a6.666 6.666 0 0 1-.577-1.217 9.18 9.18 0 0 1-.384-1.46 8.259 8.259 0 0 1-.123-1.505c.006-.468.054-.889.144-1.263.09-.38.214-.684.372-.908.163-.229.355-.366.577-.41.227-.042.479.04.755.24.331.243.626.586.884 1.031.258.445.465.997.622 1.657l.383-.167a8.09 8.09 0 0 0-.284-.978c-.109-.32-.242-.62-.399-.9a4.473 4.473 0 0 0-.527-.78c-.2-.246-.42-.458-.664-.635z" font-weight="400" font-family="Raleway" letter-spacing="0" word-spacing="0" opacity=".446" fill="#fff" stroke="#fff" stroke-width=".583"/></svg>