<svg xmlns="http://www.w3.org/2000/svg" xmlns:xlink="http://www.w3.org/1999/xlink" height="48" viewBox="0 0 48 48" width="48"><title>Template icons dark</title><defs><linearGradient id="g"><stop offset="0" stop-color="#1d6e99"/><stop offset="1" stop-color="#f93000"/></linearGradient><linearGradient id="f"><stop offset="0" stop-color="#492f46" stop-opacity=".71"/><stop offset="1" stop-color="#3c3543" stop-opacity=".368"/></linearGradient><linearGradient id="h"><stop offset="0" stop-opacity=".511"/><stop offset="1" stop-opacity=".269"/></linearGradient><linearGradient id="a"><stop offset="0" stop-color="#313131" stop-opacity=".51"/><stop offset=".6" stop-color="#dfdfdf" stop-opacity=".761"/><stop offset="1" stop-color="#fff"/></linearGradient><linearGradient id="b"><stop offset="0" stop-color="#bcbcbc"/><stop offset="1" stop-color="#fff"/></linearGradient><linearGradient id="c"><stop offset="0" stop-color="#eee"/><stop offset=".413" stop-color="#a2a2a2"/><stop offset=".495" stop-color="#707070"/><stop offset=".53" stop-color="#838383"/><stop offset="1" stop-color="#d2d2d2"/></linearGradient><linearGradient id="d"><stop offset="0" stop-color="#353d5a" stop-opacity=".813"/><stop offset="1" stop-color="#a33284" stop-opacity=".588"/></linearGradient><linearGradient id="e"><stop offset="0" stop-color="#54546a"/><stop offset="1" stop-color="#5a6480"/></linearGradient><linearGradient xlink:href="#e" id="i" gradientUnits="userSpaceOnUse" gradientTransform="matrix(.88586 0 0 .88586 -19.254 -865.335)" x1="49.679" y1="1012.168" x2="28.449" y2="1012.168"/><linearGradient xlink:href="#g" id="j" gradientUnits="userSpaceOnUse" gradientTransform="matrix(.88586 0 0 .88586 -19.26 -865.301)" x1="55.554" y1="1018.555" x2="6.881" y2="979.09"/><linearGradient xlink:href="#b" id="k" x1="48.24" y1="22.745" x2="48.24" y2="-17.955" gradientUnits="userSpaceOnUse" gradientTransform="matrix(.53167 0 0 .53167 -1.561 20.89)"/><linearGradient xlink:href="#a" id="l" gradientUnits="userSpaceOnUse" gradientTransform="translate(2.824 -419.158) scale(.43941)" x1="48.843" y1="994.453" x2="48.843" y2="1014.97"/><linearGradient xlink:href="#d" id="m" gradientUnits="userSpaceOnUse" gradientTransform="matrix(.88586 0 0 .88586 -19.254 -865.335)" x1="50.104" y1="1012.168" x2="73.355" y2="1012.168"/><linearGradient xlink:href="#c" id="n" x1="43.116" y1="25.526" x2="1.463" y2="25.526" gradientUnits="userSpaceOnUse" gradientTransform="matrix(1.04337 0 0 1.04337 .483 -2.606)"/></defs><path d="M23.683 1.01C15.81 1.15 2.074 6.628 2.074 10.267l-.082 13.76c0 9.473 15.598 22.746 21.857 22.963h.193c6.26-.217 21.885-13.49 21.885-22.962l-.138-13.761c0-3.64-13.709-9.118-21.581-9.257-.101-.002-.232 0-.332 0h-.193z" fill="none" stroke="#000" stroke-width="2.017" stroke-opacity=".115"/><path d="M23.682.968c-7.887.142-21.648 5.629-21.648 9.274l-.083 13.786c0 9.49 15.627 22.787 21.898 23.004h.193c6.271-.217 21.925-13.515 21.925-23.004l-.138-13.786c0-3.646-13.734-9.135-21.62-9.274-.102-.002-.233 0-.333 0h-.194z" fill="url(#i)"/><path d="M23.676 1.001c-7.888.142-21.648 5.63-21.648 9.274l-.083 13.786c0 9.49 15.626 22.787 21.897 23.005h.194c6.27-.218 21.925-13.515 21.925-23.005l-.138-13.786c0-3.646-13.734-9.135-21.62-9.274-.103-.002-.233 0-.333 0h-.194z" fill="url(#j)"/><path d="M23.683.968c-7.888.142-21.648 5.628-21.648 9.273l-.083 13.787c0 3.983 2.756 8.635 6.415 12.711A42.055 39.525 0 0 1 45.659 9.513C44.074 5.908 31.585 1.098 24.21.968c-.102-.002-.233 0-.333 0h-.193z" fill="#a3eaf1" fill-opacity=".187"/><path style="isolation:auto;mix-blend-mode:normal;marker:none" d="M35.221 10.933c5.985 5.985.524 2.81.524 11.273 0 8.464 5.46 5.288-.524 11.273-5.985 5.985-2.809.525-11.273.525-8.464 0-5.288 5.46-11.273-.525-5.985-5.985-.524-2.809-.524-11.273 0-8.464-5.46-5.288.524-11.273 5.985-5.984 2.81-.524 11.273-.524 8.464 0 5.288-5.46 11.273.524z" color="#000" overflow="visible" fill="none" stroke="#000" stroke-width=".75" stroke-linecap="square" stroke-miterlimit="3.7" stroke-opacity=".286" paint-order="markers stroke fill"/><path style="isolation:auto;mix-blend-mode:normal;marker:none" d="M35.221 10.933c5.985 5.985.524 2.81.524 11.273 0 8.464 5.46 5.288-.524 11.273-5.985 5.985-2.809.525-11.273.525-8.464 0-5.288 5.46-11.273-.525-5.985-5.985-.524-2.809-.524-11.273 0-8.464-5.46-5.288.524-11.273 5.985-5.984 2.81-.524 11.273-.524 8.464 0 5.288-5.46 11.273.524z" color="#000" overflow="visible" fill="#d5d5d5" paint-order="markers stroke fill"/><path d="M23.96 10.66c6.844 0 12.354 5.511 12.354 12.356S30.804 35.37 23.96 35.37a12.328 12.328 0 0 1-12.355-12.355c0-6.845 5.51-12.355 12.355-12.355z" fill-opacity=".357"/><path d="M23.96 10.13c6.844 0 12.354 5.51 12.354 12.354 0 6.845-5.51 12.355-12.355 12.355a12.328 12.328 0 0 1-12.355-12.355c0-6.845 5.51-12.355 12.355-12.355z" fill="url(#k)"/><path style="isolation:auto;mix-blend-mode:normal;marker:none" d="M28.872 22.5a4.913 4.913 0 0 1-4.913 4.913 4.913 4.913 0 0 1-4.912-4.913 4.913 4.913 0 0 1 4.912-4.913 4.913 4.913 0 0 1 4.913 4.913z" color="#000" overflow="visible" fill="url(#l)"/><path style="isolation:auto;mix-blend-mode:normal;marker:none" d="M22 15h4v9l-1 2 1 1v2h-4v-9l1-2-1-1z" color="#000" overflow="visible" fill="#494949"/><path d="M24 .967v46.066H24.04c6.271-.218 21.926-13.516 21.926-23.005l-.138-13.787c0-3.646-13.734-9.135-21.621-9.274h-.209z" opacity=".439" fill="url(#m)"/><path d="M23.689 1.489C15.979 1.627 2.53 6.99 2.53 10.553l-.08 13.474c0 9.275 15.272 22.272 21.401 22.484h.189c6.13-.212 21.43-13.21 21.43-22.484l-.136-13.474c0-3.564-13.423-8.928-21.131-9.064-.1-.002-.227 0-.325 0h-.19z" fill="none" stroke="url(#n)" stroke-width="1.975"/><path style="line-height:normal;font-variant-ligatures:normal;font-variant-position:normal;font-variant-caps:normal;font-variant-numeric:normal;font-variant-alternates:normal;font-feature-settings:normal;text-indent:0;text-align:start;text-decoration-line:none;text-decoration-style:solid;text-decoration-color:#000;text-transform:none;text-orientation:mixed;shape-padding:0;isolation:auto;mix-blend-mode:normal" d="M23.676 1.001l.013 1.476L23.679 1h-.003zm.026 1.476h-.017l.004.5-.005-.5c-3.635.071-8.868 1.413-13.086 3.172-2.113.88-3.982 1.868-5.265 2.802-1.282.935-1.815 1.833-1.815 2.102v.003l-.081 13.471.003.051.078-13.022v-.003c0-.27.533-1.167 1.816-2.102 1.282-.934 3.15-1.921 5.264-2.802 4.225-1.762 9.469-3.106 13.104-3.172h.176c.11 0 .235-.002.308 0 3.635.064 8.873 1.408 13.093 3.17 2.11.88 3.975 1.869 5.255 2.803 1.28.935 1.813 1.832 1.813 2.103v.005l.13 13.05c.001-.026.005-.054.005-.08l-.135-13.47v-.005c0-.27-.532-1.168-1.812-2.103-1.28-.934-3.146-1.922-5.256-2.803-4.22-1.762-9.458-3.106-13.093-3.17-.073-.002-.198 0-.308 0H23.703z" color="#000" font-weight="400" font-family="sans-serif" white-space="normal" overflow="visible" fill="#060606" fill-opacity=".451"/><path d="M23.96 10.129a12.328 12.328 0 0 0-12.356 12.355c0 .084.005.167.007.25A12.325 12.325 0 0 1 23.959 10.63c6.761 0 12.216 5.377 12.349 12.105.001-.083.007-.166.007-.25 0-6.844-5.51-12.355-12.356-12.355z" fill="#fff" fill-opacity=".758"/></svg>