<svg xmlns="http://www.w3.org/2000/svg" xmlns:xlink="http://www.w3.org/1999/xlink" height="48" viewBox="0 0 48 48" width="48"><title>Template icons dark</title><defs><linearGradient id="d"><stop offset="0" stop-color="#0a34ff" stop-opacity="0"/><stop offset="1" stop-color="#ffff0d" stop-opacity=".24"/></linearGradient><linearGradient id="c"><stop offset="0" stop-color="#cdcdcd"/><stop offset="1" stop-color="#fff"/></linearGradient><linearGradient id="b"><stop offset="0" stop-color="#fff" stop-opacity=".427"/><stop offset=".423" stop-color="#fafcfe"/><stop offset="1" stop-color="#fff" stop-opacity=".49"/></linearGradient><linearGradient id="a"><stop offset="0" stop-color="#0796d6"/><stop offset="1" stop-color="#4987ce"/></linearGradient><linearGradient xlink:href="#a" id="e" x1="22.9" y1="46.6" x2="22.9" y2="-10.331" gradientUnits="userSpaceOnUse" gradientTransform="matrix(1.11828 0 0 1.11828 -1.161 -4.516)"/><linearGradient xlink:href="#d" id="f" gradientUnits="userSpaceOnUse" gradientTransform="matrix(1.11828 0 0 1.11828 -1.161 -4.516)" x1="15.346" y1="25.106" x2="29.288" y2="40.737"/><linearGradient gradientTransform="matrix(.5 0 0 .5 -56 -56)" xlink:href="#c" id="g" x1="161.772" y1="204" x2="161.772" y2="113" gradientUnits="userSpaceOnUse"/></defs><g color="#000"><path style="isolation:auto;mix-blend-mode:normal;marker:none" d="M48 24a24 24 0 0 1-24 24A24 24 0 0 1 0 24 24 24 0 0 1 24 0a24 24 0 0 1 24 24z" display="block" overflow="visible" fill-opacity=".058"/><path style="isolation:auto;mix-blend-mode:normal;marker:none" d="M47 24a23 23 0 0 1-23 23A23 23 0 0 1 1 24 23 23 0 0 1 24 1a23 23 0 0 1 23 23z" display="block" overflow="visible" fill="url(#e)"/><path d="M47 24a23 23 0 0 1-23 23A23 23 0 0 1 1 24 23 23 0 0 1 24 1a23 23 0 0 1 23 23z" style="isolation:auto;mix-blend-mode:normal;marker:none" display="block" overflow="visible" fill="url(#f)"/><path d="M18.54 3.7l-3.947 10.85-6.71 18.429h4.467l5.705-15.66h3.356l-5.704 15.66 4.464.001 5.316-14.61c.765-2.101-.439-3.82-2.672-3.82H19.06l4.15-11.402c-1.386-.147-3.64.165-4.67.553zm11.698 10.85L23.34 33.506h-.003l-3.87 10.634c1.397.336 2.825.53 4.261.576l4.27-11.737h5.927c1.04 0 2.182-.8 2.538-1.777l4.671-12.833c.765-2.1-.438-3.82-2.674-3.82zm3.474 2.757h3.356L32.369 30.2h-3.356z" style="isolation:auto;mix-blend-mode:normal;marker:none" display="block" overflow="visible" fill-opacity=".194"/><path style="isolation:auto;mix-blend-mode:normal;marker:none" d="M17.742 3.393l-3.947 10.85-6.71 18.429h4.467l5.704-15.661h3.357l-5.705 15.66 4.464.002 5.317-14.611c.765-2.1-.439-3.82-2.673-3.82h-3.754l4.15-11.401c-1.386-.147-3.64.164-4.67.552zm11.698 10.85L22.54 33.199h-.003l-3.87 10.633c1.398.337 2.825.53 4.262.576l4.27-11.736h5.927c1.04 0 2.181-.8 2.537-1.777l4.672-12.833c.764-2.101-.438-3.82-2.674-3.82zM32.914 17h3.356l-4.7 12.893h-3.355z" display="block" overflow="visible" fill="#fff"/><path style="isolation:auto;mix-blend-mode:normal;marker:none" d="M45.043 24.56A21.043 21.043 0 0 1 24 45.605 21.043 21.043 0 0 1 2.957 24.56 21.043 21.043 0 0 1 24 3.518 21.043 21.043 0 0 1 45.043 24.56z" overflow="visible" fill="none" stroke="#050505" stroke-width=".839" stroke-linejoin="round" stroke-opacity=".458"/><path style="isolation:auto;mix-blend-mode:normal;marker:none" d="M45.043 23.879A21.043 21.043 0 0 1 24 44.922 21.043 21.043 0 0 1 2.957 23.879 21.043 21.043 0 0 1 24 2.836a21.043 21.043 0 0 1 21.043 21.043z" overflow="visible" fill="none" stroke="#fff" stroke-width=".839" stroke-linejoin="round"/><path style="isolation:auto;mix-blend-mode:normal;marker:none" d="M46.003 24A22.003 22.003 0 0 1 24 46.003 22.003 22.003 0 0 1 1.997 24 22.003 22.003 0 0 1 24 1.997 22.003 22.003 0 0 1 46.003 24z" overflow="visible" fill="none" stroke="url(#g)" stroke-width="1.995" stroke-linejoin="round"/></g></svg>