<svg xmlns="http://www.w3.org/2000/svg" xmlns:xlink="http://www.w3.org/1999/xlink" height="48" viewBox="0 0 48 48" width="48"><title>Template icons dark</title><defs><linearGradient id="a"><stop offset="0" stop-color="#4d77d3"/><stop offset=".453" stop-color="#767294"/><stop offset="1" stop-color="#a6659c"/></linearGradient><linearGradient id="b"><stop offset="0" stop-color="#0b1528"/><stop offset="1" stop-color="#473d49"/></linearGradient><linearGradient xlink:href="#a" id="d" x1="53.271" y1="55.429" x2="-10.45" y2="-7.238" gradientUnits="userSpaceOnUse" gradientTransform="matrix(.62177 0 0 .63362 9.27 9.249)"/><linearGradient xlink:href="#b" id="c" x1="26.4" y1="60.613" x2="26.4" y2="-12.187" gradientUnits="userSpaceOnUse" gradientTransform="matrix(.56869 0 0 .56288 10.384 10.524)"/></defs><g color="#000"><rect ry="2.368" y="2" height="44" width="48" style="isolation:auto;mix-blend-mode:normal;marker:none" overflow="visible" fill-opacity=".077"/><rect style="isolation:auto;mix-blend-mode:normal;marker:none" width="45.831" height="41.831" x="1.084" y="3.084" ry="2.252" overflow="visible" fill="url(#c)" stroke="#000" stroke-width=".169" stroke-opacity=".471"/><rect style="isolation:auto;mix-blend-mode:normal;marker:none" width="45" height="41" x="1.5" y="3.5" ry="1.536" overflow="visible" fill="none" stroke="url(#d)"/><path style="isolation:auto;mix-blend-mode:normal;marker:none" d="M7.778 9.89h3.555v8.89H7.778z" display="block" overflow="visible" fill="#94d59b"/><path style="isolation:auto;mix-blend-mode:normal;marker:none" d="M5.111 8.113h3.556l-.028.89L6 9v10.665l2.639.006v.886H5.11z" display="block" overflow="visible" fill="#fff" fill-opacity=".247"/><path style="isolation:auto;mix-blend-mode:normal;marker:none" d="M13.111 9.89h3.555v8.89h-3.555zM18.444 9.89H22v8.89h-3.556z" display="block" overflow="visible" fill="#94d59b"/><path style="isolation:auto;mix-blend-mode:normal;marker:none" d="M23.777 9.89h3.556v8.89h-3.556z" display="block" overflow="visible" fill="#94ccd5"/><path style="isolation:auto;mix-blend-mode:normal;marker:none" d="M29.11 9.89h3.556v8.89h-3.555z" display="block" overflow="visible" fill="#d594c7"/><path style="isolation:auto;mix-blend-mode:normal;marker:none" d="M7.778 26.78h3.555v8.888H7.778z" display="block" overflow="visible" fill="#94d59b"/><path d="M5.111 25.002h3.556l-.028.89L6 25.89v10.665l2.639.006v.886H5.11z" style="isolation:auto;mix-blend-mode:normal;marker:none" display="block" overflow="visible" fill="#fff" fill-opacity=".247"/><path style="isolation:auto;mix-blend-mode:normal;marker:none" d="M13.111 26.78h3.555v8.888h-3.555z" display="block" overflow="visible" fill="#94ccd5"/><path style="isolation:auto;mix-blend-mode:normal;marker:none" d="M18.444 26.78H22v8.888h-3.556z" display="block" overflow="visible" fill="#d594c7"/></g></svg>