<svg xmlns="http://www.w3.org/2000/svg" xmlns:xlink="http://www.w3.org/1999/xlink" height="48" viewBox="0 0 48 48" width="48"><title>Template icons dark</title><defs><linearGradient gradientTransform="translate(0 -1.012)" xlink:href="#a" id="b" x1="2" y1="35.339" x2="46" y2="35.339" gradientUnits="userSpaceOnUse"/><linearGradient id="a"><stop offset="0" stop-color="#3b173b"/><stop offset="1" stop-color="#1c2d4c"/></linearGradient></defs><path d="M24.827 2.788c-1.315.283-4.674 7.01-4.674 7.01s-4.092 6.046-7.844 7.315C8.994 18.233 2 22.988 2 22.988l22 20 22-20c-12.947-9.447-12.856-8.108-21.173-20.2z" fill="#535363"/><path d="M10.922 18.177c1.003.845 2.962-.15 2.798 1.704.201 1.033.528 3.532 1.924 1.933.572-1.494 2.506-1.657 2.773.111.56.964.73 2.885 2.152 1.748 1.34-.284 2.857-1.73 4.135-.61 1.172.45 2.235 2.005 3.542 1.514 1.35-.8 2.153-2.62 3.948-2.54 1.546-.064 2.968 1.055 3.343 2.549.806 1.374 2.363 2.551 4.015 2.528 1.345-.324 4.737-2.263 5.767-3.27-4.992-3.34-14-9.177-21.395-20.561-.965 1.206-2.03 2.848-2.897 4.227-.85 1.418-1.273 3.088-2.517 4.233-3.066 3.612-4.053 5.086-7.588 6.434z" fill-opacity=".319"/><path d="M11.603 17.321c1.003.845 2.962-.148 2.798 1.704.201 1.034.528 3.533 1.924 1.933.571-1.493 2.506-1.656 2.773.112.56.963.73 2.885 2.152 1.748 1.34-.284 2.857-1.73 4.135-.61 1.171.449 2.235 2.005 3.542 1.514 1.35-.8 2.153-2.62 3.948-2.54 1.546-.064 2.968 1.055 3.343 2.548.806 1.374 2.362 2.552 4.015 2.529 1.345-.324 4.737-2.263 5.767-3.27-4.992-3.341-14-9.177-21.395-20.561-.965 1.205-2.03 2.847-2.897 4.227-.85 1.418-1.274 3.088-2.517 4.233-3.066 3.612-4.054 5.086-7.588 6.433z" fill="#f0f0ef"/><path d="M25.698 10.846c-.606 1.064-1.693 1.806-2.253 2.861.9.692 2.31 1.215 2.645 2.546-1.11.482-1.392 1.861-.989 2.907.008 1.374-1.416 2.082-2.408 2.743-.626.613-2.334 2.313-1.988 3.242 2.102 1.437 5.255-1.366 7.616-.375 1.104 1.055-4.43 3.357-6.444 6.446 2.638.719 7.753.001 7.446 1.697C24 36.988 24 42.988 24 42.988l22-20c-8.44-6-14-9.642-21.173-20.2 1.188 3.288 1.541 6.473.87 8.058z" fill-opacity=".215"/><path d="M10.534 27.963l-.03.018.033-.007z" fill="#545374"/><path d="M2 22.988l22 20 22-20-22 24z" fill="url(#b)" fill-rule="evenodd"/><path d="M14.388 9.923L24.684 2.31" fill-opacity=".215" fill-rule="evenodd" stroke="#a782ec" stroke-width=".4"/><path style="isolation:auto;mix-blend-mode:normal;marker:none" d="M15.432 9.8a1.066 1.066 0 0 1-1.066 1.066 1.066 1.066 0 0 1-1.065-1.065 1.066 1.066 0 0 1 1.065-1.066 1.066 1.066 0 0 1 1.066 1.066zM37.573 6.813a1.066 1.066 0 0 1-1.066 1.066 1.066 1.066 0 0 1-1.065-1.066 1.066 1.066 0 0 1 1.065-1.065 1.066 1.066 0 0 1 1.066 1.065z" color="#000" display="block" overflow="visible" fill="none" stroke="#fefbfb" stroke-width=".381" stroke-linecap="round" paint-order="fill markers stroke"/><path d="M24.73 2.466l12.002 4.461" fill-opacity=".215" fill-rule="evenodd" stroke="#a782ec" stroke-width=".4"/><path d="M24.827 2.788c-1.315.283-4.674 7.01-4.674 7.01s-4.092 6.046-7.844 7.315C8.994 18.233 2 22.988 2 22.988l22 20 22-20c-12.947-9.447-12.856-8.108-21.173-20.2z" fill="none" stroke="#fc4f4f" stroke-width=".328" stroke-opacity=".916"/><path style="isolation:auto;mix-blend-mode:normal;marker:none" d="M1.14 21.953h1.89v1.89H1.14zM23.047 41.543h1.89v1.89h-1.89zM44.953 21.893h1.89v1.89h-1.89zM23.689 1.232h1.89v1.89h-1.89z" color="#000" display="block" overflow="visible" fill="#dedede" paint-order="fill markers stroke"/></svg>