<svg xmlns="http://www.w3.org/2000/svg" xmlns:xlink="http://www.w3.org/1999/xlink" height="48" viewBox="0 0 48 48" width="48"><title>Template icons dark</title><defs><linearGradient id="e"><stop offset="0" stop-color="#6e685c"/><stop offset="1" stop-color="#7f6a7f"/></linearGradient><linearGradient id="d"><stop offset="0" stop-opacity=".022"/><stop offset="1" stop-color="#111" stop-opacity=".551"/></linearGradient><linearGradient id="c"><stop offset="0" stop-color="#262532"/><stop offset="1" stop-color="#39343d"/></linearGradient><linearGradient id="b"><stop offset="0" stop-color="#92e96f"/><stop offset="1" stop-color="#11ffec"/></linearGradient><linearGradient id="a"><stop offset="0" stop-color="#23211d"/><stop offset="1" stop-color="#3f474b"/></linearGradient><linearGradient gradientTransform="matrix(.5 0 0 .5 -56 -56)" xlink:href="#c" id="f" gradientUnits="userSpaceOnUse" x1="165.575" y1="196.64" x2="165.575" y2="124"/><linearGradient gradientTransform="matrix(.5 0 0 .5 -56 -56)" xlink:href="#b" id="g" x1="160" y1="182.114" x2="160" y2="138" gradientUnits="userSpaceOnUse"/><linearGradient xlink:href="#d" id="h" gradientUnits="userSpaceOnUse" gradientTransform="matrix(-.5 0 0 .5 103.988 -56)" x1="162.536" y1="165" x2="171.252" y2="173"/><linearGradient xlink:href="#d" id="i" gradientUnits="userSpaceOnUse" x1="157.441" y1="165" x2="152.504" y2="178" gradientTransform="matrix(-.5 0 0 .5 103.988 -56)"/><linearGradient xlink:href="#d" id="j" gradientUnits="userSpaceOnUse" x1="157.441" y1="165" x2="152.504" y2="178" gradientTransform="matrix(.5 0 0 -.5 -56 104.71)"/><linearGradient xlink:href="#d" id="k" gradientUnits="userSpaceOnUse" gradientTransform="matrix(-.5 0 0 -.5 103.988 104.71)" x1="157.441" y1="165" x2="152.504" y2="178"/></defs><path d="M48 24c0 1.68-10.545 19.945-12 20.785-1.455.84-22.545.84-24 0C10.545 43.945 0 25.68 0 24 0 22.32 10.545 4.055 12 3.215c1.455-.84 22.545-.84 24 0C37.455 4.055 48 22.32 48 24z" style="isolation:auto;mix-blend-mode:normal;marker:none" color="#000" display="block" overflow="visible" fill-opacity=".423" paint-order="fill markers stroke"/><path style="isolation:auto;mix-blend-mode:normal;marker:none" d="M47.5 24c0 1.645-10.325 19.529-11.75 20.352-1.425.822-22.075.822-23.5 0C10.825 43.529.5 25.645.5 24c0-1.645 10.325-19.529 11.75-20.352 1.425-.822 22.075-.822 23.5 0C37.175 4.471 47.5 22.355 47.5 24z" color="#000" display="block" overflow="visible" fill="url(#f)" paint-order="fill markers stroke"/><path d="M44 24c0 1.4-8.788 16.62-10 17.32-1.213.7-18.788.7-20 0C12.788 40.62 4 25.4 4 24c0-1.4 8.788-16.62 10-17.32 1.212-.7 18.787-.7 20 0 1.212.7 10 15.92 10 17.32z" style="isolation:auto;mix-blend-mode:normal;marker:none" color="#000" display="block" overflow="visible" fill="#f6f5f4" fill-opacity=".099" paint-order="fill markers stroke"/><path style="isolation:auto;mix-blend-mode:normal;marker:none" d="M41.5 24c0 1.225-7.69 14.543-8.75 15.155-1.061.613-16.44.613-17.5 0C14.19 38.543 6.5 25.225 6.5 24c0-1.225 7.69-14.543 8.75-15.155 1.06-.613 16.439-.613 17.5 0 1.06.612 8.75 13.93 8.75 15.155z" color="#000" display="block" overflow="visible" fill="#f6f5f4" fill-opacity=".099" paint-order="fill markers stroke"/><path d="M24 3.031c-5.519 0-11.038.206-11.75.618C10.825 4.47.5 22.355.5 24c0 .06.017.148.044.25.702-2.685 10.333-19.309 11.706-20.101 1.425-.823 22.075-.823 23.5 0 1.372.792 11.004 17.416 11.706 20.101.027-.102.044-.19.044-.25 0-1.645-10.325-19.529-11.75-20.351-.712-.412-6.231-.618-11.75-.618z" style="isolation:auto;mix-blend-mode:normal;marker:none" color="#000" overflow="visible" fill="#f5deb2" fill-opacity=".247" paint-order="fill markers stroke"/><path style="line-height:normal;font-variant-ligatures:normal;font-variant-position:normal;font-variant-caps:normal;font-variant-numeric:normal;font-variant-alternates:normal;font-feature-settings:normal;text-indent:0;text-align:start;text-decoration-line:none;text-decoration-style:solid;text-decoration-color:#000;text-transform:none;text-orientation:mixed;shape-padding:0;isolation:auto;mix-blend-mode:normal;marker:none" d="M24 12.007c-1.58 0-3.157.028-4.415.086-.63.029-1.176.065-1.627.113-.226.024-.426.05-.623.088-.197.037-.346.028-.741.249-.395.222-.463.353-.595.5a7.222 7.222 0 0 0-.39.48c-.268.355-.573.797-.914 1.311a94.369 94.369 0 0 0-2.284 3.67 93.93 93.93 0 0 0-2.13 3.755 26.421 26.421 0 0 0-.714 1.425 7.079 7.079 0 0 0-.233.567c-.065.184-.148.306-.148.749s.083.565.148.749c.065.184.142.366.233.567.183.404.426.882.714 1.425a93.93 93.93 0 0 0 2.13 3.755c.51.857 1.015 1.675 1.502 2.446l-2.087 6.056 5.282-2.335c.078.016.152.029.227.043.197.037.397.064.623.088.451.048.998.084 1.627.113 1.258.058 2.835.086 4.415.086s3.156-.028 4.414-.086c.63-.029 1.177-.065 1.628-.113.226-.024.426-.05.623-.088.197-.037.346-.028.741-.25.395-.22.463-.352.595-.5.132-.146.255-.3.39-.479.268-.355.573-.797.914-1.311a94.376 94.376 0 0 0 2.284-3.67 93.936 93.936 0 0 0 2.13-3.755c.288-.543.53-1.021.713-1.425.09-.201.169-.383.234-.567.065-.184.148-.306.148-.749s-.083-.565-.148-.749a7.102 7.102 0 0 0-.234-.567 26.332 26.332 0 0 0-.713-1.425 93.935 93.935 0 0 0-2.13-3.755 94.387 94.387 0 0 0-2.284-3.67c-.34-.514-.646-.956-.914-1.312a7.224 7.224 0 0 0-.39-.479c-.132-.147-.2-.278-.595-.5-.395-.221-.544-.212-.741-.249a7.623 7.623 0 0 0-.623-.088 28.262 28.262 0 0 0-1.628-.113A100.55 100.55 0 0 0 24 12.007zm0 2.956c1.542 0 3.087.028 4.27.083.172.008.263.02.417.03l-4.713 7.017-4.773-7.01c.19-.013.311-.027.528-.037A98.21 98.21 0 0 1 24 14.963zm7.453 2.58c.482.76.987 1.578 1.5 2.438a91.871 91.871 0 0 1 2.06 3.632c.272.512.493.953.632 1.261.027.058.033.079.053.126-.02.047-.026.068-.053.126-.14.308-.36.75-.631 1.26a91.872 91.872 0 0 1-2.062 3.633 99.198 99.198 0 0 1-1.704 2.758L26.2 25.362zm-14.96.085l5.275 7.749-4.995 7.433a98.804 98.804 0 0 1-1.725-2.791 91.872 91.872 0 0 1-2.062-3.632 24.273 24.273 0 0 1-.631-1.261c-.027-.058-.033-.079-.053-.126.02-.047.026-.068.053-.126.14-.308.36-.75.631-1.26a91.871 91.871 0 0 1 2.062-3.633c.492-.827.978-1.615 1.444-2.353zm7.501 11.018l4.293 6.307a98.49 98.49 0 0 1-8.531.002z" color="#000" font-weight="400" font-family="sans-serif" white-space="normal" display="block" overflow="visible" fill-opacity=".214" paint-order="fill markers stroke"/><path style="line-height:normal;font-variant-ligatures:normal;font-variant-position:normal;font-variant-caps:normal;font-variant-numeric:normal;font-variant-alternates:normal;font-feature-settings:normal;text-indent:0;text-align:start;text-decoration-line:none;text-decoration-style:solid;text-decoration-color:#000;text-transform:none;text-orientation:mixed;shape-padding:0;isolation:auto;mix-blend-mode:normal;marker:none" d="M24 11.007c-1.58 0-3.157.028-4.415.086-.63.029-1.176.065-1.627.113-.226.024-.426.05-.623.088-.197.037-.346.028-.741.249-.395.222-.463.353-.595.5a7.222 7.222 0 0 0-.39.48c-.268.355-.573.797-.914 1.311a94.37 94.37 0 0 0-2.284 3.67 93.93 93.93 0 0 0-2.13 3.755 26.421 26.421 0 0 0-.714 1.425 7.078 7.078 0 0 0-.233.567c-.065.184-.148.306-.148.749s.083.565.148.749c.065.184.142.366.233.567.183.404.426.882.714 1.425a93.93 93.93 0 0 0 2.13 3.755c.505.849 1.006 1.66 1.49 2.426L11.842 39.5l5.163-2.861c.126.037.222.047.329.067.197.037.397.064.623.088.451.048.998.084 1.627.113 1.258.058 2.835.086 4.415.086s3.156-.028 4.414-.086c.63-.029 1.177-.065 1.628-.113.226-.024.426-.05.623-.088.197-.037.346-.028.741-.249.395-.222.463-.353.595-.5.132-.147.255-.302.39-.48.268-.355.573-.797.914-1.311a94.376 94.376 0 0 0 2.284-3.67 93.936 93.936 0 0 0 2.13-3.755c.288-.543.53-1.021.713-1.425.09-.201.169-.383.234-.567.065-.184.148-.306.148-.749s-.083-.565-.148-.749a7.102 7.102 0 0 0-.234-.567 26.332 26.332 0 0 0-.713-1.425 93.936 93.936 0 0 0-2.13-3.755 94.388 94.388 0 0 0-2.284-3.67c-.34-.514-.646-.956-.914-1.311a7.224 7.224 0 0 0-.39-.48c-.132-.147-.2-.278-.595-.5-.395-.221-.544-.212-.741-.249a7.623 7.623 0 0 0-.623-.088 28.261 28.261 0 0 0-1.628-.113A100.55 100.55 0 0 0 24 11.007zm0 2.956c1.542 0 3.087.028 4.27.083.172.008.263.02.417.03l-4.713 7.017-4.773-7.01c.19-.013.311-.027.528-.037A98.21 98.21 0 0 1 24 13.963zm7.453 2.58c.482.76.987 1.578 1.5 2.438a91.871 91.871 0 0 1 2.06 3.632c.272.512.493.953.632 1.261.027.058.033.079.053.126-.02.047-.026.068-.053.126-.14.308-.36.75-.631 1.26a91.871 91.871 0 0 1-2.062 3.633 99.198 99.198 0 0 1-1.704 2.758L26.2 24.362zm-14.96.085l5.275 7.749-4.995 7.434a98.8 98.8 0 0 1-1.725-2.792 91.871 91.871 0 0 1-2.062-3.632 24.273 24.273 0 0 1-.631-1.261c-.027-.058-.033-.079-.053-.126.02-.047.026-.068.053-.126.14-.308.36-.75.631-1.26a91.871 91.871 0 0 1 2.062-3.633c.492-.827.978-1.615 1.444-2.353zm7.501 11.018l4.293 6.307a98.49 98.49 0 0 1-8.531.002z" color="#000" font-weight="400" font-family="sans-serif" white-space="normal" display="block" overflow="visible" fill="url(#g)" paint-order="fill markers stroke"/><path d="M16.773 31.81l7.221-4.164-2.226-3.269z" fill="url(#h)" fill-rule="evenodd"/><path d="M31.248 31.777l-7.254-4.13 2.227-3.27z" fill="url(#i)" fill-rule="evenodd"/><path d="M16.492 16.628l7.482 4.465-2.206 3.284z" fill="url(#j)" fill-rule="evenodd"/><path d="M31.5 16.563l-7.526 4.53 2.226 3.27z" fill="url(#k)" fill-rule="evenodd"/><path style="line-height:normal;font-variant-ligatures:normal;font-variant-position:normal;font-variant-caps:normal;font-variant-numeric:normal;font-variant-alternates:normal;font-feature-settings:normal;text-indent:0;text-align:start;text-decoration-line:none;text-decoration-style:solid;text-decoration-color:#000;text-transform:none;text-orientation:mixed;shape-padding:0;isolation:auto;mix-blend-mode:normal;marker:none" d="M24 11.007c-1.58 0-3.157.028-4.415.086-.63.029-1.176.065-1.627.113-.226.024-.426.05-.623.088-.197.037-.346.028-.741.249-.395.222-.463.353-.595.5a7.222 7.222 0 0 0-.39.48c-.268.355-.573.797-.914 1.311a94.37 94.37 0 0 0-2.284 3.67 93.93 93.93 0 0 0-2.13 3.755 26.421 26.421 0 0 0-.714 1.425 7.078 7.078 0 0 0-.233.567c-.065.184-.148.306-.148.749 0 .1.005.179.012.25.025-.247.086-.356.136-.499.065-.184.142-.366.233-.567.183-.404.426-.882.714-1.425a93.93 93.93 0 0 1 2.13-3.755 94.37 94.37 0 0 1 2.284-3.67c.34-.514.646-.956.914-1.311.135-.178.258-.333.39-.48.132-.147.2-.278.595-.5.395-.221.544-.212.741-.249.197-.037.397-.064.623-.088a28.22 28.22 0 0 1 1.627-.113c1.258-.058 2.835-.086 4.415-.086s3.156.028 4.414.086c.63.029 1.177.065 1.628.113.226.024.426.05.623.088.197.037.346.028.741.249.395.222.463.353.595.5.132.147.255.302.39.48.268.355.573.797.914 1.311a94.394 94.394 0 0 1 2.284 3.67 93.936 93.936 0 0 1 2.13 3.755c.288.543.53 1.021.713 1.425.09.201.169.383.234.567.05.143.11.252.136.499a2.41 2.41 0 0 0 .012-.25c0-.443-.083-.565-.148-.749a7.102 7.102 0 0 0-.234-.567 26.332 26.332 0 0 0-.713-1.425 93.936 93.936 0 0 0-2.13-3.755 94.394 94.394 0 0 0-2.284-3.67c-.34-.514-.646-.956-.914-1.311a7.224 7.224 0 0 0-.39-.48c-.132-.147-.2-.278-.595-.5-.395-.221-.544-.212-.741-.249a7.623 7.623 0 0 0-.623-.088 28.261 28.261 0 0 0-1.628-.113A100.55 100.55 0 0 0 24 11.007zm4.367 3.546l-4.393 6.54-4.448-6.533-.325.022 4.773 7.01 4.713-7.017c-.119-.007-.211-.015-.32-.022zm-15.95 9.697c-.015.033-.049.094-.062.124-.027.058-.033.079-.053.126.02.047.026.068.053.126.14.308.36.75.631 1.26a91.872 91.872 0 0 0 2.062 3.633c.594.999 1.184 1.946 1.725 2.792l4.995-7.434-.17-.248-4.825 7.182a98.8 98.8 0 0 1-1.725-2.792 91.871 91.871 0 0 1-2.062-3.632c-.244-.461-.429-.836-.569-1.137zm23.166 0c-.14.301-.325.676-.57 1.137a91.871 91.871 0 0 1-2.06 3.632 99.198 99.198 0 0 1-1.705 2.758l-4.879-7.167-.169.252 5.048 7.415a99.2 99.2 0 0 0 1.704-2.758 91.872 91.872 0 0 0 2.062-3.632c.271-.512.492-.953.631-1.261.027-.058.033-.079.053-.126-.02-.047-.026-.068-.053-.126-.013-.03-.047-.091-.062-.124zm-21.768 9.032L11.843 39.5l.138-.085 1.92-5.993-.086-.14zm14.14.682c-1.141.046-2.535.073-3.955.073-1.405 0-2.781-.027-3.915-.072l-.33.49a98.49 98.49 0 0 0 4.245.082c1.542 0 3.087-.028 4.27-.083l.017-.001z" color="#000" font-weight="400" font-family="sans-serif" white-space="normal" display="block" overflow="visible" fill="#f5edb2" fill-opacity=".385" paint-order="fill markers stroke"/><path style="isolation:auto;mix-blend-mode:normal;marker:none" d="M24 26.5c-.115 0-.465-1.462-.546-1.543-.081-.08-1.543-.431-1.543-.546 0-.114 1.462-.465 1.543-.546.08-.081.431-1.543.546-1.543.115 0 .465 1.462.546 1.543.081.081 1.543.432 1.543.546 0 .115-1.462.465-1.543.546-.08.081-.431 1.543-.546 1.543z" color="#000" overflow="visible" fill-opacity=".198" paint-order="fill markers stroke"/></svg>