<svg xmlns:osb="http://www.openswatchbook.org/uri/2009/osb" xmlns="http://www.w3.org/2000/svg" xmlns:xlink="http://www.w3.org/1999/xlink" height="48" viewBox="0 0 48 48" width="48" id="svg2"><title id="title4675">Template icons dark</title><defs id="defs22"><linearGradient id="linearGradient9052"><stop offset="0" id="stop9048" stop-opacity=".411"/><stop offset="1" id="stop9050" stop-opacity=".516"/></linearGradient><linearGradient id="linearGradient9046"><stop id="stop9042" offset="0" stop-color="#efefef"/><stop id="stop9044" offset="1" stop-color="#adadad"/></linearGradient><linearGradient id="linearGradient7841"><stop offset="0" id="stop7837" stop-color="#00a500"/><stop offset="1" id="stop7839" stop-color="#00a51a"/></linearGradient><linearGradient id="linearGradient7833"><stop offset="0" id="stop7829" stop-color="#fff" stop-opacity=".057"/><stop offset="1" id="stop7831" stop-color="#fff" stop-opacity=".13"/></linearGradient><linearGradient id="linearGradient7827"><stop id="stop7823" offset="0" stop-color="#f7f7f7"/><stop id="stop7825" offset="1" stop-color="#e2e2e2"/></linearGradient><linearGradient id="linearGradient7819"><stop offset="0" id="stop7815" stop-color="#e3e3e3"/><stop offset="1" id="stop7817" stop-color="#939393"/></linearGradient><linearGradient xlink:href="#linearGradient7827" id="linearGradient7785" x1="160" y1="137" x2="160" y2="188" gradientUnits="userSpaceOnUse"/><linearGradient xlink:href="#linearGradient9046" id="linearGradient7821" x1="160.063" y1="120" x2="160.063" y2="204" gradientUnits="userSpaceOnUse"/><linearGradient xlink:href="#linearGradient7833" id="linearGradient7835" x1="178" y1="117" x2="193" y2="136" gradientUnits="userSpaceOnUse"/><linearGradient xlink:href="#linearGradient7841" id="linearGradient7843" x1="171.402" y1="117.454" x2="193" y2="136" gradientUnits="userSpaceOnUse"/><linearGradient gradientTransform="translate(-35.934 -35.408) scale(.7191)" xlink:href="#linearGradient7827" id="linearGradient7785-2" x1="160" y1="137" x2="160" y2="188" gradientUnits="userSpaceOnUse"/><linearGradient gradientTransform="translate(-35.934 -35.408) scale(.7191)" xlink:href="#linearGradient7819" id="linearGradient7821-8" x1="160.063" y1="118.739" x2="160.063" y2="204" gradientUnits="userSpaceOnUse"/><linearGradient gradientTransform="translate(-35.934 -35.408) scale(.7191)" xlink:href="#linearGradient7841" id="linearGradient7843-2" x1="171.402" y1="117.454" x2="193.205" y2="136.848" gradientUnits="userSpaceOnUse"/><linearGradient gradientTransform="translate(-35.934 -35.408) scale(.7191)" xlink:href="#linearGradient7833" id="linearGradient7835-3" x1="178" y1="117" x2="193.205" y2="136.848" gradientUnits="userSpaceOnUse"/><linearGradient gradientTransform="matrix(1.34831 0 0 1.34831 55.37 56.159)" xlink:href="#linearGradient7827" id="linearGradient7785-29" x1="160" y1="137" x2="160" y2="188" gradientUnits="userSpaceOnUse"/><linearGradient gradientTransform="matrix(1.34831 0 0 1.34831 55.37 56.159)" xlink:href="#linearGradient7819" id="linearGradient7821-9" x1="159.708" y1="120.211" x2="160.063" y2="204" gradientUnits="userSpaceOnUse"/><linearGradient xlink:href="#linearGradient7841" id="linearGradient8962" gradientUnits="userSpaceOnUse" x1="171.402" y1="117.454" x2="193" y2="136"/><linearGradient xlink:href="#linearGradient9052" id="linearGradient9054" x1="160" y1="119" x2="160" y2="201.575" gradientUnits="userSpaceOnUse"/><linearGradient xlink:href="#linearGradient7819" id="linearGradient9397" gradientUnits="userSpaceOnUse" gradientTransform="translate(-35.934 -35.408) scale(.7191)" x1="79.174" y1="52.02" x2="79.174" y2="110.426"/><linearGradient gradientTransform="translate(100 98)" xlink:href="#linearGradient9052" id="linearGradient9054-3" x1="160" y1="119" x2="160" y2="201.575" gradientUnits="userSpaceOnUse"/><linearGradient xlink:href="#linearGradient9052" id="linearGradient7937" gradientUnits="userSpaceOnUse" x1="79.843" y1="50.497" x2="79.843" y2="108"/><linearGradient gradientTransform="translate(-90.934 -84.408) scale(.7191)" xlink:href="#linearGradient7827" id="linearGradient7785-2-7" x1="160" y1="137" x2="160" y2="188" gradientUnits="userSpaceOnUse"/><linearGradient xlink:href="#linearGradient7827" id="linearGradient7867" gradientUnits="userSpaceOnUse" gradientTransform="translate(-35.934 -35.408) scale(.7191)" x1="79.623" y1="54.801" x2="79.623" y2="108.504"/><linearGradient id="linearGradient9422" osb:paint="solid"><stop offset="0" id="stop9420" stop-color="#a3bfcf"/></linearGradient><linearGradient id="linearGradient7827-6"><stop id="stop7823-2" offset="0" stop-color="#a3bfcf"/><stop id="stop7825-9" offset="1" stop-color="#6d8aa9"/></linearGradient><style id="style51071-8">.str0{stroke:#1f1a17;stroke-width:3}.fil0{fill:none}</style><style id="style2031-6">.str0{stroke:#1f1a17;stroke-width:.0762}.fil0,.fil1{fill:none}.fil1{fill-rule:nonzero}</style><style id="style5368-2">.str0,.str1{stroke:#000;stroke-width:63}.str1{stroke:#09098f}.fil5{fill:none}.fil1,.fil2{fill:#000}.fil3{fill:#4d66cc}.fil0{fill:#576ecd}.fil4{fill:#89a1d4}</style><style id="style51071">.str0{stroke:#1f1a17;stroke-width:3}.fil0{fill:none}</style><style id="style2031">.str0{stroke:#1f1a17;stroke-width:.0762}.fil0,.fil1{fill:none}.fil1{fill-rule:nonzero}</style><style id="style5368">.str0,.str1{stroke:#000;stroke-width:63}.str1{stroke:#09098f}.fil5{fill:none}.fil1,.fil2{fill:#000}.fil3{fill:#4d66cc}.fil0{fill:#576ecd}.fil4{fill:#89a1d4}</style></defs><g id="layer3"><g id="layer10"><path style="marker:none" d="M25 1l16.008 17V4.032C41.008 2 40 1 37.976 1z" id="path9157-4-6-6" fill-opacity=".177" fill-rule="evenodd" stroke-width="2.996" paint-order="fill markers stroke"/><path id="path9009-5-3-8-8" d="M27 2l13 13V5.02C40 3 39 2 37.02 2z" fill="#00a500" fill-rule="evenodd" stroke-width=".539"/><path id="path9155-8-3-6" d="M7 3.975V42.98C7 45 8 46 10 46h28.02c1.98 0 2.988-1 2.988-2.955V21L21.722.996 10.047 1C8 1 7 2 7 3.975z" style="line-height:normal;font-variant-ligatures:normal;font-variant-position:normal;font-variant-caps:normal;font-variant-numeric:normal;font-variant-alternates:normal;font-feature-settings:normal;text-indent:0;text-align:start;text-decoration-line:none;text-decoration-style:solid;text-decoration-color:#000;text-transform:none;text-orientation:mixed;shape-padding:0;isolation:auto;mix-blend-mode:normal;marker:none" color="#000" font-weight="400" font-family="sans-serif" white-space="normal" overflow="visible" fill="#0b0b0b" fill-opacity=".157" stroke-width="2.996" paint-order="fill markers stroke"/><path style="isolation:auto;mix-blend-mode:normal;marker:none" d="M21 4l17 17v22H10V3.984z" id="rect7756-7-0-8-9" color="#000" display="block" overflow="visible" fill="url(#linearGradient7867)" stroke-width=".145" paint-order="fill markers stroke"/><path style="line-height:normal;font-variant-ligatures:normal;font-variant-position:normal;font-variant-caps:normal;font-variant-numeric:normal;font-variant-alternates:normal;font-feature-settings:normal;text-indent:0;text-align:start;text-decoration-line:none;text-decoration-style:solid;text-decoration-color:#000;text-transform:none;text-orientation:mixed;shape-padding:0;isolation:auto;mix-blend-mode:normal;marker:none" d="M8 5.036v36.972C8 44 9 45 10.98 45h26.012C39 45 40 44 40 42.017V21L21 2H10.964C9 2 8 3 8 5.036zM21 4l17 17v22H10V3.984z" id="path9151-7-4-2" color="#000" font-weight="400" font-family="sans-serif" white-space="normal" overflow="visible" fill="url(#linearGradient9397)" stroke-width="1.438" paint-order="fill markers stroke"/><path style="isolation:auto;mix-blend-mode:normal;marker:none" d="M11 22h26v8H11z" id="rect7869" color="#000" display="block" overflow="visible" fill="#fcfcfc" stroke-width=".167" paint-order="fill markers stroke"/><path style="-inkscape-font-specification:Vegur" d="M15.913 23.958v3.776h.684l.016-.3h.01c.22.247.44.352.8.352.679 0 1.128-.614 1.128-1.38 0-.739-.403-1.284-1.097-1.284-.371 0-.59.11-.83.351h-.011v-1.515zm-.859.189a.402.402 0 0 0-.401.403.4.4 0 0 0 .401.405.404.404 0 0 0 0-.808zm-3.064.032v3.555h2.292v-.54H12.69v-3.015zm8.438.943a.989.989 0 0 0-.799.509h-.01l-.016-.456h-.684v2.559h.7v-.965c0-.514.093-.697.255-.813.141-.1.309-.142.538-.152zm1.52 0c-.805 0-1.321.557-1.321 1.4 0 .824.532 1.264 1.32 1.264.371 0 .632-.058.878-.168l-.073-.524c-.23.094-.465.152-.715.152-.423 0-.695-.194-.721-.592h1.656c.02-.095.03-.242.03-.352 0-.635-.386-1.18-1.054-1.18zm-7.243.053v2.559h.7v-2.56zm2.483.487c.418 0 .626.3.626.787 0 .482-.203.797-.616.797-.36 0-.585-.284-.585-.735v-.115c0-.44.199-.734.575-.734zm4.687 0c.303 0 .443.247.454.509h-.987c.052-.294.256-.509.533-.509z" id="path3245-2-6-4-6" font-weight="400" font-size="67.562" font-family="Vegur" fill="#18a303" stroke-width=".077"/><path style="-inkscape-font-specification:Vegur" d="M28.485 23.906c-.621 0-.976.404-.976 1.127v.162h-.413v.336h.413v2.203h.439v-2.203H28.967v2.203h.44v-2.203h.646v-.336h-.647v-.23c0-.456.193-.723.543-.723.162 0 .266.026.365.062l.042-.325a1.322 1.322 0 0 0-.412-.073c-.622 0-.977.404-.977 1.127v.162H27.948v-.23c0-.456.193-.723.543-.723.162 0 .266.026.365.062l.042-.325a1.322 1.322 0 0 0-.413-.073zm-3.357.22c-.94 0-1.713.687-1.713 1.83 0 1.144.773 1.83 1.713 1.83.94 0 1.712-.686 1.712-1.83 0-1.143-.772-1.83-1.712-1.83zm5.653.152a.27.27 0 0 0-.272.272c0 .153.12.274.272.274a.272.272 0 0 0 .272-.274.27.27 0 0 0-.272-.272zm-5.653.205c.7 0 1.231.524 1.231 1.473 0 .95-.532 1.474-1.231 1.474-.7 0-1.233-.524-1.233-1.474 0-.949.533-1.473 1.233-1.473zm7.698.66c-.783 0-1.373.477-1.373 1.369 0 .839.532 1.274 1.237 1.274.313 0 .538-.036.794-.146l-.041-.337c-.22.1-.455.147-.674.147-.507 0-.857-.32-.857-.996 0-.64.381-.975.877-.975.261 0 .492.063.68.152l.041-.335a1.593 1.593 0 0 0-.684-.153zm2.182 0c-.705 0-1.222.587-1.222 1.369 0 .86.517 1.274 1.222 1.274.313 0 .548-.047.794-.146l-.042-.337c-.193.095-.47.147-.69.147-.506 0-.835-.31-.846-.886h1.761c.01-.094.015-.172.015-.25 0-.651-.34-1.171-.992-1.171zm-4.447.052v2.539h.44v-2.539zm4.41.284c.387 0 .596.32.596.74h-1.321c.063-.446.308-.74.725-.74z" id="path3255-0-1-9-4" font-weight="400" font-size="67.562" font-family="Vegur" stroke-width=".077"/><path id="path8019-2-7" d="M10 4v39h28V21L21.063 4zm1 1h10.063L37 21v21H11z" style="line-height:normal;font-variant-ligatures:normal;font-variant-position:normal;font-variant-caps:normal;font-variant-numeric:normal;font-variant-alternates:normal;font-feature-settings:normal;text-indent:0;text-align:start;text-decoration-line:none;text-decoration-style:solid;text-decoration-color:#000;text-transform:none;text-orientation:mixed;shape-padding:0;isolation:auto;mix-blend-mode:normal" color="#000" font-weight="400" font-family="sans-serif" white-space="normal" overflow="visible" fill="#fff" fill-opacity=".958" fill-rule="evenodd"/><path style="line-height:normal;font-variant-ligatures:normal;font-variant-position:normal;font-variant-caps:normal;font-variant-numeric:normal;font-variant-alternates:normal;font-feature-settings:normal;text-indent:0;text-align:start;text-decoration-line:none;text-decoration-style:solid;text-decoration-color:#000;text-transform:none;text-orientation:mixed;shape-padding:0;isolation:auto;mix-blend-mode:normal" d="M9 3v41h30V21L21 3zm.984 1H21l17 17v22H10z" id="path8240" color="#000" font-weight="400" font-family="sans-serif" white-space="normal" overflow="visible" fill-opacity=".109" fill-rule="evenodd" stroke-width="1.061"/></g></g></svg>