<svg xmlns:osb="http://www.openswatchbook.org/uri/2009/osb" xmlns="http://www.w3.org/2000/svg" xmlns:xlink="http://www.w3.org/1999/xlink" height="48" viewBox="0 0 48 48" width="48" id="svg2"><title id="title4675">Template icons dark</title><defs id="defs22"><linearGradient id="linearGradient7995"><stop id="stop7991" offset="0" stop-color="#fff" stop-opacity=".057"/><stop id="stop7993" offset="1" stop-color="#fff" stop-opacity=".635"/></linearGradient><linearGradient id="linearGradient9793"><stop offset="0" id="stop9789" stop-color="#fff" stop-opacity=".464"/><stop offset="1" id="stop9791" stop-color="#f6f6f6" stop-opacity=".219"/></linearGradient><linearGradient id="linearGradient9499"><stop offset="0" id="stop9495" stop-opacity=".297"/><stop offset="1" id="stop9497" stop-opacity=".078"/></linearGradient><linearGradient id="linearGradient9422" osb:paint="solid"><stop offset="0" id="stop9420" stop-color="#ffe22c"/></linearGradient><linearGradient id="linearGradient9052"><stop offset="0" id="stop9048" stop-opacity=".411"/><stop offset="1" id="stop9050" stop-opacity=".516"/></linearGradient><linearGradient id="linearGradient7827"><stop id="stop7823" offset="0" stop-color="#f4d437"/><stop id="stop7825" offset="1" stop-color="#f2a200"/></linearGradient><linearGradient xlink:href="#linearGradient7827" id="linearGradient7785" x1="160" y1="137" x2="160" y2="188" gradientUnits="userSpaceOnUse"/><linearGradient gradientTransform="translate(-35.934 -35.408) scale(.7191)" xlink:href="#linearGradient7827" id="linearGradient7785-2" x1="160" y1="137" x2="160" y2="188" gradientUnits="userSpaceOnUse"/><linearGradient xlink:href="#linearGradient9052" id="linearGradient9054" x1="160" y1="119" x2="160" y2="201.575" gradientUnits="userSpaceOnUse"/><linearGradient xlink:href="#linearGradient9422" id="linearGradient9424" x1="172" y1="128" x2="194" y2="128" gradientUnits="userSpaceOnUse"/><linearGradient xlink:href="#linearGradient9499" id="linearGradient9501" x1="160" y1="204" x2="160" y2="119" gradientUnits="userSpaceOnUse"/><linearGradient xlink:href="#linearGradient9499" id="linearGradient9719" gradientUnits="userSpaceOnUse" x1="75.591" y1="110.653" x2="75.591" y2="48"/><linearGradient xlink:href="#linearGradient9499" id="linearGradient9730" gradientUnits="userSpaceOnUse" x1="21" y1="47.457" x2="21" y2="2"/><linearGradient xlink:href="#linearGradient9793" id="linearGradient9795" x1="-64" y1="-57" x2="-64" y2="-71" gradientUnits="userSpaceOnUse"/><linearGradient xlink:href="#linearGradient9793" id="linearGradient9834" gradientUnits="userSpaceOnUse" x1="-44.031" y1="-34" x2="-44.031" y2="-54"/><linearGradient gradientTransform="translate(100 98)" xlink:href="#linearGradient9052" id="linearGradient9054-3" x1="160" y1="119" x2="160" y2="201.575" gradientUnits="userSpaceOnUse"/><linearGradient xlink:href="#linearGradient7995" id="linearGradient8964" gradientUnits="userSpaceOnUse" x1="192.576" y1="117.256" x2="192.576" y2="136.349"/><linearGradient xlink:href="#linearGradient7827" id="linearGradient9991" gradientUnits="userSpaceOnUse" x1="273.449" y1="218.045" x2="273.449" y2="328"/><linearGradient xlink:href="#linearGradient9499" id="linearGradient10016" gradientUnits="userSpaceOnUse" x1="272" y1="328.693" x2="272" y2="214.425"/><linearGradient xlink:href="#linearGradient7827" id="linearGradient8207" gradientUnits="userSpaceOnUse" gradientTransform="translate(-35.934 -35.408) scale(.7191)" x1="86.127" y1="50.629" x2="86.127" y2="112.39"/><linearGradient xlink:href="#linearGradient7827" id="linearGradient8285" gradientUnits="userSpaceOnUse" gradientTransform="translate(-35.934 -35.408) scale(.7191)" x1="28.947" y1="7.52" x2="28.947" y2="46.457"/><linearGradient xlink:href="#linearGradient7827" id="linearGradient8287" gradientUnits="userSpaceOnUse" gradientTransform="translate(-35.934 -35.408) scale(.7191)" x1="-11.217" y1="-25.855" x2="-11.217" y2="1.957"/><linearGradient xlink:href="#linearGradient7827" id="linearGradient7872" gradientUnits="userSpaceOnUse" gradientTransform="translate(-35.934 -35.408) scale(.7191)" x1="160" y1="137" x2="160" y2="188"/><linearGradient gradientTransform="translate(-128 -119)" xlink:href="#linearGradient9052" id="linearGradient9054-2" x1="160" y1="119" x2="160" y2="201.575" gradientUnits="userSpaceOnUse"/><linearGradient xlink:href="#linearGradient9052" id="linearGradient7937" gradientUnits="userSpaceOnUse" x1="79.843" y1="50.497" x2="79.843" y2="108"/><style id="style51071-8">.str0{stroke:#1f1a17;stroke-width:3}.fil0{fill:none}</style><style id="style2031-6">.str0{stroke:#1f1a17;stroke-width:.0762}.fil0,.fil1{fill:none}.fil1{fill-rule:nonzero}</style><style id="style5368-2">.str0,.str1{stroke:#000;stroke-width:63}.str1{stroke:#09098f}.fil5{fill:none}.fil1,.fil2{fill:#000}.fil3{fill:#4d66cc}.fil0{fill:#576ecd}.fil4{fill:#89a1d4}</style><style id="style51071">.str0{stroke:#1f1a17;stroke-width:3}.fil0{fill:none}</style><style id="style2031">.str0{stroke:#1f1a17;stroke-width:.0762}.fil0,.fil1{fill:none}.fil1{fill-rule:nonzero}</style><style id="style5368">.str0,.str1{stroke:#000;stroke-width:63}.str1{stroke:#09098f}.fil5{fill:none}.fil1,.fil2{fill:#000}.fil3{fill:#4d66cc}.fil0{fill:#576ecd}.fil4{fill:#89a1d4}</style><symbol id="icon-object-group" viewBox="0 0 32 28"><title id="title15141">object-group</title><path d="M32 6h-2v16h2v6h-6v-2H6v2H0v-6h2V6H0V0h6v2h20V0h6v6zm-4-4v2h2V2h-2zM2 2v2h2V2H2zm2 24v-2H2v2h2zm22-2v-2h2V6h-2V4H6v2H4v16h2v2h20zm4 2v-2h-2v2h2zM20 10h6v12H12v-4H6V6h14v4zM8 16h10V8H8v8zm16 4v-8h-4v6h-6v2h10z" id="path15143"/></symbol></defs><g id="layer3"><g id="layer10"><path style="marker:none" d="M25 1l16.008 17V4.032C41.008 2 40 1 37.976 1z" id="path9157-4-6-6" fill-opacity=".177" fill-rule="evenodd" stroke-width="2.996" paint-order="fill markers stroke"/><path id="path9009-5-3-8-8" d="M27 2l13 13V5.02C40 3 39 2 37.02 2z" fill="url(#linearGradient9424)" fill-rule="evenodd"/><path id="path9155-8-3-6" d="M7 3.975V42.98C7 45 8 46 10 46h28.02c1.98 0 2.988-1 2.988-2.955V21L21.722.996 10.047 1C8 1 7 2 7 3.975z" style="line-height:normal;font-variant-ligatures:normal;font-variant-position:normal;font-variant-caps:normal;font-variant-numeric:normal;font-variant-alternates:normal;font-feature-settings:normal;text-indent:0;text-align:start;text-decoration-line:none;text-decoration-style:solid;text-decoration-color:#000;text-transform:none;text-orientation:mixed;shape-padding:0;isolation:auto;mix-blend-mode:normal;marker:none" color="#000" font-weight="400" font-family="sans-serif" white-space="normal" overflow="visible" fill="#0b0b0b" fill-opacity=".157" stroke-width="2.996" paint-order="fill markers stroke"/><path style="isolation:auto;mix-blend-mode:normal;marker:none" d="M21 2l19 19.102v20.914c0 1.984-1 3-3 3H11C9 45 8 44 8 42V5c0-2 1-3 3-3z" id="rect7756-7-0-8-9" color="#000" display="block" overflow="visible" fill="url(#linearGradient8207)" stroke-width=".145" paint-order="fill markers stroke"/><path style="line-height:normal;font-variant-ligatures:normal;font-variant-position:normal;font-variant-caps:normal;font-variant-numeric:normal;font-variant-alternates:normal;font-feature-settings:normal;text-indent:0;text-align:start;text-decoration-line:none;text-decoration-style:solid;text-decoration-color:#000;text-transform:none;text-orientation:mixed;shape-padding:0;isolation:auto;mix-blend-mode:normal;marker:none" d="M8 5.036v36.972C8 44 9 45 10.98 45h26.012C39 45 40 44 40 42.017V21L21 2H10.964C9 2 8 3 8 5.036zM21 4l17 17v22H10V3.984z" id="path9151-7-4-2" color="#000" font-weight="400" font-family="sans-serif" white-space="normal" overflow="visible" fill="url(#linearGradient9730)" stroke-width=".201" paint-order="fill markers stroke"/><path id="path8019-2-7" d="M10 4v39h28V21L21.063 4zm1 1h10.063L37 21v21H11z" style="line-height:normal;font-variant-ligatures:normal;font-variant-position:normal;font-variant-caps:normal;font-variant-numeric:normal;font-variant-alternates:normal;font-feature-settings:normal;text-indent:0;text-align:start;text-decoration-line:none;text-decoration-style:solid;text-decoration-color:#000;text-transform:none;text-orientation:mixed;shape-padding:0;isolation:auto;mix-blend-mode:normal" color="#000" font-weight="400" font-family="sans-serif" white-space="normal" overflow="visible" fill="#fff" fill-opacity=".235" fill-rule="evenodd"/><path style="line-height:normal;font-variant-ligatures:normal;font-variant-position:normal;font-variant-caps:normal;font-variant-numeric:normal;font-variant-alternates:normal;font-feature-settings:normal;text-indent:0;text-align:start;text-decoration-line:none;text-decoration-style:solid;text-decoration-color:#000;text-transform:none;text-orientation:mixed;shape-padding:0;isolation:auto;mix-blend-mode:normal" d="M9 3v41h30V21L21 3zm.984 1H21l17 17v22H10z" id="path8240" color="#000" font-weight="400" font-family="sans-serif" white-space="normal" overflow="visible" fill-opacity=".109" fill-rule="evenodd" stroke-width="1.061"/><path id="path7976" d="M34 20h-1v13h1v4h-4v-1H17v1h-4v-4h1V20h-1v-4h4v2h13v-2h4zm-3-3v2h2v-2zm-17 0v2h2v-2zm2 19v-2h-2v2zm-1-16v13h2v2h13v-2h2V20h-2v-1H17v1zm18 16v-2h-2v2zm-6-14v3h3v7h-8v-3h-4v-7zm-8 6h7v-5h-7zm10 3v-5h-2v3.024L23 29v2z" fill="#642009" fill-opacity=".464" stroke-width="1.563"/><path d="M34 19h-1v13h1v4h-4v-1H17v1h-4v-4h1V19h-1v-4h4v2h13v-2h4zm-3-3v2h2v-2zm-17 0v2h2v-2zm2 19v-2h-2v2zm-1-16v13h2v2h13v-2h2V19h-2v-1H17v1zm18 16v-2h-2v2zm-6-14v3h3v7h-8v-3h-4v-7zm-8 6h7v-5h-7zm10 3v-5h-2v3.024L23 28v2z" id="path30419-3-7" fill="#fefefe" stroke-width="1.563"/></g></g></svg>