<svg xmlns:osb="http://www.openswatchbook.org/uri/2009/osb" xmlns="http://www.w3.org/2000/svg" xmlns:xlink="http://www.w3.org/1999/xlink" height="48" viewBox="0 0 48 48" width="48" id="svg2"><title id="title4675">Template icons dark</title><defs id="defs22"><linearGradient id="linearGradient9793"><stop offset="0" id="stop9789" stop-color="#fff" stop-opacity=".464"/><stop offset="1" id="stop9791" stop-color="#f6f6f6" stop-opacity=".219"/></linearGradient><linearGradient id="linearGradient9499"><stop offset="0" id="stop9495" stop-opacity=".297"/><stop offset="1" id="stop9497" stop-opacity=".078"/></linearGradient><linearGradient id="linearGradient9422" osb:paint="solid"><stop offset="0" id="stop9420" stop-color="#42ec81"/></linearGradient><linearGradient id="linearGradient9052"><stop offset="0" id="stop9048" stop-opacity=".411"/><stop offset="1" id="stop9050" stop-opacity=".516"/></linearGradient><linearGradient id="linearGradient7833"><stop offset="0" id="stop7829" stop-color="#fff" stop-opacity=".057"/><stop offset="1" id="stop7831" stop-color="#fff" stop-opacity=".13"/></linearGradient><linearGradient id="linearGradient7827"><stop id="stop7823" offset="0" stop-color="#42ec81"/><stop id="stop7825" offset="1" stop-color="#3add5c"/></linearGradient><linearGradient xlink:href="#linearGradient7827" id="linearGradient7785" x1="160" y1="137" x2="160" y2="188" gradientUnits="userSpaceOnUse"/><linearGradient gradientTransform="translate(-35.934 -35.408) scale(.7191)" xlink:href="#linearGradient7827" id="linearGradient7785-2" x1="160" y1="137" x2="160" y2="188" gradientUnits="userSpaceOnUse"/><linearGradient gradientTransform="translate(-35.934 -35.408) scale(.7191)" xlink:href="#linearGradient7833" id="linearGradient7835-3" x1="178" y1="117" x2="193.205" y2="136.848" gradientUnits="userSpaceOnUse"/><linearGradient xlink:href="#linearGradient9052" id="linearGradient9054" x1="160" y1="119" x2="160" y2="201.575" gradientUnits="userSpaceOnUse"/><linearGradient xlink:href="#linearGradient9422" id="linearGradient9424" x1="172" y1="128" x2="194" y2="128" gradientUnits="userSpaceOnUse"/><linearGradient xlink:href="#linearGradient9499" id="linearGradient9501" x1="160" y1="204" x2="160" y2="119" gradientUnits="userSpaceOnUse"/><linearGradient xlink:href="#linearGradient9499" id="linearGradient9719" gradientUnits="userSpaceOnUse" x1="75.591" y1="110.653" x2="75.591" y2="48"/><linearGradient xlink:href="#linearGradient9499" id="linearGradient9730" gradientUnits="userSpaceOnUse" x1="21" y1="47.457" x2="21" y2="2"/><linearGradient xlink:href="#linearGradient9793" id="linearGradient9795" x1="-64" y1="-57" x2="-64" y2="-71" gradientUnits="userSpaceOnUse"/><linearGradient xlink:href="#linearGradient9793" id="linearGradient9834" gradientUnits="userSpaceOnUse" x1="-44.031" y1="-34" x2="-44.031" y2="-54"/><linearGradient gradientTransform="translate(100 98)" xlink:href="#linearGradient9052" id="linearGradient9054-3" x1="160" y1="119" x2="160" y2="201.575" gradientUnits="userSpaceOnUse"/><linearGradient xlink:href="#linearGradient7833" id="linearGradient8964" gradientUnits="userSpaceOnUse" x1="178" y1="117" x2="192.559" y2="135.911"/><linearGradient xlink:href="#linearGradient7827" id="linearGradient9991" gradientUnits="userSpaceOnUse" x1="273.449" y1="218.045" x2="273.449" y2="328"/><linearGradient xlink:href="#linearGradient9499" id="linearGradient10016" gradientUnits="userSpaceOnUse" x1="272" y1="328.693" x2="272" y2="214.425"/><linearGradient xlink:href="#linearGradient9052" id="linearGradient7937" gradientUnits="userSpaceOnUse" x1="79.843" y1="50.497" x2="79.843" y2="108"/><linearGradient xlink:href="#linearGradient9422" id="linearGradient7901" gradientUnits="userSpaceOnUse" x1="172" y1="128" x2="194" y2="128" gradientTransform="translate(30)"/><linearGradient id="linearGradient9422-3" osb:paint="solid"><stop offset="0" id="stop9420-5" stop-color="#a3bfcf"/></linearGradient><linearGradient id="linearGradient7827-6"><stop id="stop7823-2" offset="0" stop-color="#a3bfcf"/><stop id="stop7825-9" offset="1" stop-color="#6d8aa9"/></linearGradient><linearGradient xlink:href="#linearGradient7827" id="linearGradient7958" gradientUnits="userSpaceOnUse" gradientTransform="translate(-35.934 -35.408) scale(.7191)" x1="84.879" y1="54.801" x2="84.879" y2="107.36"/><linearGradient xlink:href="#linearGradient7827" id="linearGradient7958-3" gradientUnits="userSpaceOnUse" gradientTransform="translate(-43.934 -37.408) scale(.7191)" x1="84.879" y1="54.801" x2="84.879" y2="107.36"/><linearGradient xlink:href="#linearGradient7827" id="linearGradient7997" gradientUnits="userSpaceOnUse" gradientTransform="translate(-35.934 -35.408) scale(.7191)" x1="27.721" y1="7.52" x2="27.721" y2="46.457"/><linearGradient xlink:href="#linearGradient9422" id="linearGradient7901-2" gradientUnits="userSpaceOnUse" x1="172" y1="128" x2="194" y2="128" gradientTransform="translate(13 30)"/><style id="style51071-8">.str0{stroke:#1f1a17;stroke-width:3}.fil0{fill:none}</style><style id="style2031-6">.str0{stroke:#1f1a17;stroke-width:.0762}.fil0,.fil1{fill:none}.fil1{fill-rule:nonzero}</style><style id="style5368-2">.str0,.str1{stroke:#000;stroke-width:63}.str1{stroke:#09098f}.fil5{fill:none}.fil1,.fil2{fill:#000}.fil3{fill:#4d66cc}.fil0{fill:#576ecd}.fil4{fill:#89a1d4}</style><style id="style51071">.str0{stroke:#1f1a17;stroke-width:3}.fil0{fill:none}</style><style id="style2031">.str0{stroke:#1f1a17;stroke-width:.0762}.fil0,.fil1{fill:none}.fil1{fill-rule:nonzero}</style><style id="style5368">.str0,.str1{stroke:#000;stroke-width:63}.str1{stroke:#09098f}.fil5{fill:none}.fil1,.fil2{fill:#000}.fil3{fill:#4d66cc}.fil0{fill:#576ecd}.fil4{fill:#89a1d4}</style></defs><g id="layer3"><g id="layer10"><path style="marker:none" d="M25 1l16.008 17V4.032C41.008 2 40 1 37.976 1z" id="path9157-4-6-6" fill-opacity=".177" fill-rule="evenodd" stroke-width="2.996" paint-order="fill markers stroke"/><path id="path9009-5-3-8-8" d="M27 2l13 13V5.02C40 3 39 2 37.02 2z" fill="url(#linearGradient9424)" fill-rule="evenodd"/><path id="path9155-8-3-6" d="M7 3.975V42.98C7 45 8 46 10 46h28.02c1.98 0 2.988-1 2.988-2.955V21L21.722.996 10.047 1C8 1 7 2 7 3.975z" style="line-height:normal;font-variant-ligatures:normal;font-variant-position:normal;font-variant-caps:normal;font-variant-numeric:normal;font-variant-alternates:normal;font-feature-settings:normal;text-indent:0;text-align:start;text-decoration-line:none;text-decoration-style:solid;text-decoration-color:#000;text-transform:none;text-orientation:mixed;shape-padding:0;isolation:auto;mix-blend-mode:normal;marker:none" color="#000" font-weight="400" font-family="sans-serif" white-space="normal" overflow="visible" fill="#0b0b0b" fill-opacity=".157" stroke-width="2.996" paint-order="fill markers stroke"/><path style="isolation:auto;mix-blend-mode:normal;marker:none" d="M21 2l19 19.102v20.914c0 1.984-1 3-3 3H11C9 45 8 44 8 42V5c0-2 1-3 3-3z" id="rect7756-7-0-8-9" color="#000" display="block" overflow="visible" fill="url(#linearGradient7958)" stroke-width=".145" paint-order="fill markers stroke"/><path style="line-height:normal;font-variant-ligatures:normal;font-variant-position:normal;font-variant-caps:normal;font-variant-numeric:normal;font-variant-alternates:normal;font-feature-settings:normal;text-indent:0;text-align:start;text-decoration-line:none;text-decoration-style:solid;text-decoration-color:#000;text-transform:none;text-orientation:mixed;shape-padding:0;isolation:auto;mix-blend-mode:normal;marker:none" d="M8 5.036v36.972C8 44 9 45 10.98 45h26.012C39 45 40 44 40 42.017V21L21 2H10.964C9 2 8 3 8 5.036zM21 4l17 17v22H10V3.984z" id="path9151-7-4-2" color="#000" font-weight="400" font-family="sans-serif" white-space="normal" overflow="visible" fill="url(#linearGradient9730)" stroke-width=".201" paint-order="fill markers stroke"/><path style="isolation:auto;mix-blend-mode:normal;marker:none" d="M12.008 36.386l-.004-.908a.611.611 0 0 1 .614-.614h3.909c.34 0 .476.29.477.63l.004.892a.611.611 0 0 1-.614.614H12.62a.613.613 0 0 1-.613-.614z" id="rect7802-45" color="#000" overflow="visible" fill-opacity=".208" stroke-width=".016"/><path style="isolation:auto;mix-blend-mode:normal;marker:none" d="M12 35.386l.004-7.767c0-.34.274-.615.614-.613l3.772.013c.34.001.614.274.614.614l.004 7.753c0 .34-.274.614-.614.614h-3.78a.612.612 0 0 1-.614-.614z" id="rect7792-2-3" color="#000" overflow="visible" fill="#fff" fill-opacity=".979" stroke-width=".013"/><path style="isolation:auto;mix-blend-mode:normal;marker:none" d="M21.011 36.386l-.007-.853c-.003-.34 0-.669.206-.669h3.907c.34 0 .877.362.887.702l.023.82a.607.607 0 0 1-.614.614h-3.787a.615.615 0 0 1-.615-.614z" id="rect8144-5" color="#000" overflow="visible" fill-opacity=".208" stroke-width=".016"/><path style="isolation:auto;mix-blend-mode:normal;marker:none" d="M21.004 35.355V22.621c0-.34.274-.61.614-.613l3.772-.033a.61.61 0 0 1 .614.614l.023 12.797c0 .34-.274.614-.614.614l-3.813.004c-.34 0-.594-.25-.596-.649z" id="rect8146-4" color="#000" overflow="visible" fill="#fff" fill-opacity=".979" stroke-width=".013"/><path style="isolation:auto;mix-blend-mode:normal;marker:none" d="M29.975 36.386l.029-.908c.01-.34.07-.614.41-.614h3.908c.34 0 .682.307.682.646v.854c0 .34-.274.612-.614.614L30.588 37a.604.604 0 0 1-.613-.614z" id="rect8148-7" color="#000" overflow="visible" fill-opacity=".208" stroke-width=".016"/><path style="isolation:auto;mix-blend-mode:normal;marker:none" d="M30.067 35.386l-.063-16.725a.614.614 0 0 1 .614-.613L34.39 18a.61.61 0 0 1 .614.614v16.772c0 .34-.274.614-.614.614h-3.709a.613.613 0 0 1-.614-.614z" id="rect8150-4" color="#000" overflow="visible" fill="#fafafa" stroke-width=".013"/><path id="path8019-2-7" d="M10 4v39h28V21L21.063 4zm1 1h10.063L37 21v21H11z" style="line-height:normal;font-variant-ligatures:normal;font-variant-position:normal;font-variant-caps:normal;font-variant-numeric:normal;font-variant-alternates:normal;font-feature-settings:normal;text-indent:0;text-align:start;text-decoration-line:none;text-decoration-style:solid;text-decoration-color:#000;text-transform:none;text-orientation:mixed;shape-padding:0;isolation:auto;mix-blend-mode:normal" color="#000" font-weight="400" font-family="sans-serif" white-space="normal" overflow="visible" fill="#fff" fill-opacity=".235" fill-rule="evenodd"/><path style="line-height:normal;font-variant-ligatures:normal;font-variant-position:normal;font-variant-caps:normal;font-variant-numeric:normal;font-variant-alternates:normal;font-feature-settings:normal;text-indent:0;text-align:start;text-decoration-line:none;text-decoration-style:solid;text-decoration-color:#000;text-transform:none;text-orientation:mixed;shape-padding:0;isolation:auto;mix-blend-mode:normal" d="M9 3v41h30V21L21 3zm.984 1H21l17 17v22H10z" id="path8240" color="#000" font-weight="400" font-family="sans-serif" white-space="normal" overflow="visible" fill-opacity=".109" fill-rule="evenodd" stroke-width="1.061"/></g></g></svg>