<svg xmlns:osb="http://www.openswatchbook.org/uri/2009/osb" xmlns="http://www.w3.org/2000/svg" xmlns:xlink="http://www.w3.org/1999/xlink" height="48" viewBox="0 0 48 48" width="48" id="svg2"><title id="title4675">Template icons dark</title><defs id="defs22"><linearGradient id="linearGradient9793"><stop offset="0" id="stop9789" stop-color="#fff" stop-opacity=".464"/><stop offset="1" id="stop9791" stop-color="#f6f6f6" stop-opacity=".219"/></linearGradient><linearGradient id="linearGradient9499"><stop offset="0" id="stop9495" stop-opacity=".297"/><stop offset="1" id="stop9497" stop-opacity=".078"/></linearGradient><linearGradient id="linearGradient9422" osb:paint="solid"><stop offset="0" id="stop9420" stop-color="#cb15ff"/></linearGradient><linearGradient id="linearGradient9052"><stop offset="0" id="stop9048" stop-opacity=".411"/><stop offset="1" id="stop9050" stop-opacity=".516"/></linearGradient><linearGradient id="linearGradient7833"><stop offset="0" id="stop7829" stop-color="#fff" stop-opacity=".057"/><stop offset="1" id="stop7831" stop-color="#fff" stop-opacity=".13"/></linearGradient><linearGradient id="linearGradient7827"><stop id="stop7823" offset="0" stop-color="#cb15ff"/><stop id="stop7825" offset="1" stop-color="#9213ff"/></linearGradient><linearGradient xlink:href="#linearGradient7827" id="linearGradient7785" x1="160" y1="137" x2="160" y2="188" gradientUnits="userSpaceOnUse"/><linearGradient gradientTransform="translate(-35.934 -35.408) scale(.7191)" xlink:href="#linearGradient7827" id="linearGradient7785-2" x1="160" y1="137" x2="160" y2="188" gradientUnits="userSpaceOnUse"/><linearGradient xlink:href="#linearGradient9052" id="linearGradient9054" x1="160" y1="119" x2="160" y2="201.575" gradientUnits="userSpaceOnUse"/><linearGradient xlink:href="#linearGradient9422" id="linearGradient9424" x1="172" y1="128" x2="194" y2="128" gradientUnits="userSpaceOnUse"/><linearGradient xlink:href="#linearGradient9499" id="linearGradient9501" x1="160" y1="204" x2="160" y2="119" gradientUnits="userSpaceOnUse"/><linearGradient xlink:href="#linearGradient9499" id="linearGradient9719" gradientUnits="userSpaceOnUse" x1="75.591" y1="110.653" x2="75.591" y2="48"/><linearGradient xlink:href="#linearGradient9499" id="linearGradient9730" gradientUnits="userSpaceOnUse" x1="21" y1="47.457" x2="21" y2="2"/><linearGradient xlink:href="#linearGradient9793" id="linearGradient9795" x1="-64" y1="-57" x2="-64" y2="-71" gradientUnits="userSpaceOnUse"/><linearGradient xlink:href="#linearGradient9793" id="linearGradient9834" gradientUnits="userSpaceOnUse" x1="-44.031" y1="-34" x2="-44.031" y2="-54"/><linearGradient gradientTransform="translate(100 98)" xlink:href="#linearGradient9052" id="linearGradient9054-3" x1="160" y1="119" x2="160" y2="201.575" gradientUnits="userSpaceOnUse"/><linearGradient xlink:href="#linearGradient7833" id="linearGradient8964" gradientUnits="userSpaceOnUse" x1="178" y1="117" x2="192.559" y2="135.911"/><linearGradient xlink:href="#linearGradient7827" id="linearGradient9991" gradientUnits="userSpaceOnUse" x1="273.449" y1="218.045" x2="273.449" y2="328"/><linearGradient xlink:href="#linearGradient9499" id="linearGradient10016" gradientUnits="userSpaceOnUse" x1="272" y1="328.693" x2="272" y2="214.425"/><linearGradient xlink:href="#linearGradient9052" id="linearGradient7937" gradientUnits="userSpaceOnUse" x1="79.843" y1="50.497" x2="79.843" y2="108"/><linearGradient xlink:href="#linearGradient7827" id="linearGradient8010" gradientUnits="userSpaceOnUse" gradientTransform="translate(-35.934 -35.408) scale(.7191)" x1="80.718" y1="53.706" x2="80.718" y2="111.521"/><linearGradient id="linearGradient9422-0" osb:paint="solid"><stop offset="0" id="stop9420-6" stop-color="#a3bfcf"/></linearGradient><linearGradient id="linearGradient7827-2"><stop id="stop7823-6" offset="0" stop-color="#a3bfcf"/><stop id="stop7825-1" offset="1" stop-color="#6d8aa9"/></linearGradient><linearGradient xlink:href="#linearGradient7827" id="linearGradient8010-8" gradientUnits="userSpaceOnUse" gradientTransform="translate(-43.934 -37.408) scale(.7191)" x1="80.718" y1="53.706" x2="80.718" y2="111.521"/><linearGradient xlink:href="#linearGradient7827" id="linearGradient8110" gradientUnits="userSpaceOnUse" gradientTransform="translate(-35.934 -35.408) scale(.7191)" x1="26.33" y1="7.52" x2="26.33" y2="45.023"/><linearGradient gradientTransform="translate(-27 -2)" xlink:href="#linearGradient9422" id="linearGradient9424-0" x1="172" y1="128" x2="194" y2="128" gradientUnits="userSpaceOnUse"/><linearGradient xlink:href="#linearGradient7827" id="linearGradient8148" gradientUnits="userSpaceOnUse" gradientTransform="translate(-35.934 -35.408) scale(.7191)" x1="-10.604" y1="-25.404" x2="-10.604" y2="-.824"/><style id="style51071-8">.str0{stroke:#1f1a17;stroke-width:3}.fil0{fill:none}</style><style id="style2031-6">.str0{stroke:#1f1a17;stroke-width:.0762}.fil0,.fil1{fill:none}.fil1{fill-rule:nonzero}</style><style id="style5368-2">.str0,.str1{stroke:#000;stroke-width:63}.str1{stroke:#09098f}.fil5{fill:none}.fil1,.fil2{fill:#000}.fil3{fill:#4d66cc}.fil0{fill:#576ecd}.fil4{fill:#89a1d4}</style><style id="style51071">.str0{stroke:#1f1a17;stroke-width:3}.fil0{fill:none}</style><style id="style2031">.str0{stroke:#1f1a17;stroke-width:.0762}.fil0,.fil1{fill:none}.fil1{fill-rule:nonzero}</style><style id="style5368">.str0,.str1{stroke:#000;stroke-width:63}.str1{stroke:#09098f}.fil5{fill:none}.fil1,.fil2{fill:#000}.fil3{fill:#4d66cc}.fil0{fill:#576ecd}.fil4{fill:#89a1d4}</style></defs><g id="layer3"><g id="layer10"><path style="marker:none" d="M25 1l16.008 17V4.032C41.008 2 40 1 37.976 1z" id="path9157-4-6-6" fill-opacity=".177" fill-rule="evenodd" stroke-width="2.996" paint-order="fill markers stroke"/><path id="path9009-5-3-8-8" d="M27 2l13 13V5.02C40 3 39 2 37.02 2z" fill="url(#linearGradient9424)" fill-rule="evenodd"/><path id="path9155-8-3-6" d="M7 3.975V42.98C7 45 8 46 10 46h28.02c1.98 0 2.988-1 2.988-2.955V21L21.722.996 10.047 1C8 1 7 2 7 3.975z" style="line-height:normal;font-variant-ligatures:normal;font-variant-position:normal;font-variant-caps:normal;font-variant-numeric:normal;font-variant-alternates:normal;font-feature-settings:normal;text-indent:0;text-align:start;text-decoration-line:none;text-decoration-style:solid;text-decoration-color:#000;text-transform:none;text-orientation:mixed;shape-padding:0;isolation:auto;mix-blend-mode:normal;marker:none" color="#000" font-weight="400" font-family="sans-serif" white-space="normal" overflow="visible" fill="#0b0b0b" fill-opacity=".157" stroke-width="2.996" paint-order="fill markers stroke"/><path style="isolation:auto;mix-blend-mode:normal;marker:none" d="M21 2l19 19.102v20.914c0 1.984-1 3-3 3H11C9 45 8 44 8 42V5c0-2 1-3 3-3z" id="rect7756-7-0-8-9" color="#000" display="block" overflow="visible" fill="url(#linearGradient8010)" stroke-width=".145" paint-order="fill markers stroke"/><path style="line-height:normal;font-variant-ligatures:normal;font-variant-position:normal;font-variant-caps:normal;font-variant-numeric:normal;font-variant-alternates:normal;font-feature-settings:normal;text-indent:0;text-align:start;text-decoration-line:none;text-decoration-style:solid;text-decoration-color:#000;text-transform:none;text-orientation:mixed;shape-padding:0;isolation:auto;mix-blend-mode:normal;marker:none" d="M8 5.036v36.972C8 44 9 45 10.98 45h26.012C39 45 40 44 40 42.017V21L21 2H10.964C9 2 8 3 8 5.036zM21 4l17 17v22H10V3.984z" id="path9151-7-4-2" color="#000" font-weight="400" font-family="sans-serif" white-space="normal" overflow="visible" fill="url(#linearGradient9730)" stroke-width=".201" paint-order="fill markers stroke"/><path id="path7868-5-0" d="M23.5 25.637c3.331 0 6.674-.595 8.5-1.87v1.87c0 1.551-3.807 2.817-8.5 2.817S15 27.188 15 25.637v-1.87c1.826 1.276 5.169 1.87 8.5 1.87zm0 8.451c3.331 0 6.674-.594 8.5-1.87v1.87c0 1.552-3.807 2.817-8.5 2.817S15 35.64 15 34.088v-1.87c1.826 1.277 5.169 1.87 8.5 1.87zm0-4.225c3.331 0 6.674-.595 8.5-1.871v1.87c0 1.552-3.807 2.818-8.5 2.818S15 31.414 15 29.863v-1.871c1.826 1.277 5.169 1.87 8.5 1.87zm0-12.678c4.693 0 8.5 1.266 8.5 2.818v1.408c0 1.552-3.807 2.817-8.5 2.817S15 22.963 15 21.411v-1.408c0-1.552 3.807-2.818 8.5-2.818z" fill-opacity=".328" stroke-width="1.059"/><path d="M23.5 25.106c3.331 0 6.674-.595 8.5-1.871v1.87c0 1.552-3.807 2.818-8.5 2.818S15 26.657 15 25.106v-1.871c1.826 1.277 5.169 1.87 8.5 1.87zm0 8.451c3.331 0 6.674-.594 8.5-1.87v1.87c0 1.552-3.807 2.817-8.5 2.817S15 35.11 15 33.557v-1.87c1.826 1.276 5.169 1.87 8.5 1.87zm0-4.226c3.331 0 6.674-.594 8.5-1.87v1.87c0 1.552-3.807 2.817-8.5 2.817S15 30.883 15 29.331v-1.87c1.826 1.277 5.169 1.87 8.5 1.87zm0-12.677c4.693 0 8.5 1.266 8.5 2.817v1.409c0 1.551-3.807 2.817-8.5 2.817S15 22.431 15 20.88V19.47c0-1.551 3.807-2.817 8.5-2.817z" id="path33483-3-6-9" fill="#fff" stroke-width=".706"/><path id="path8019-2-7" d="M10 4v39h28V21L21.063 4zm1 1h10.063L37 21v21H11z" style="line-height:normal;font-variant-ligatures:normal;font-variant-position:normal;font-variant-caps:normal;font-variant-numeric:normal;font-variant-alternates:normal;font-feature-settings:normal;text-indent:0;text-align:start;text-decoration-line:none;text-decoration-style:solid;text-decoration-color:#000;text-transform:none;text-orientation:mixed;shape-padding:0;isolation:auto;mix-blend-mode:normal" color="#000" font-weight="400" font-family="sans-serif" white-space="normal" overflow="visible" fill="#fff" fill-opacity=".235" fill-rule="evenodd"/><path style="line-height:normal;font-variant-ligatures:normal;font-variant-position:normal;font-variant-caps:normal;font-variant-numeric:normal;font-variant-alternates:normal;font-feature-settings:normal;text-indent:0;text-align:start;text-decoration-line:none;text-decoration-style:solid;text-decoration-color:#000;text-transform:none;text-orientation:mixed;shape-padding:0;isolation:auto;mix-blend-mode:normal" d="M9 3v41h30V21L21 3zm.984 1H21l17 17v22H10z" id="path8240" color="#000" font-weight="400" font-family="sans-serif" white-space="normal" overflow="visible" fill-opacity=".109" fill-rule="evenodd" stroke-width="1.061"/></g></g></svg>