<svg xmlns="http://www.w3.org/2000/svg" xmlns:xlink="http://www.w3.org/1999/xlink" height="48" viewBox="0 0 48 48" width="48"><title>Template icons dark</title><defs><linearGradient id="a"><stop offset="0" stop-color="#fff" stop-opacity=".427"/><stop offset=".423" stop-color="#fafcfe"/><stop offset="1" stop-color="#fff" stop-opacity=".49"/></linearGradient><linearGradient id="d"><stop offset="0" stop-color="#fe54ba"/><stop offset="1" stop-color="#722f98" stop-opacity=".995"/></linearGradient><linearGradient id="b"><stop offset="0" stop-color="#6a1262" stop-opacity=".611"/><stop offset="1" stop-color="#d75dea" stop-opacity=".979"/></linearGradient><linearGradient id="e"><stop offset="0" stop-color="#fff" stop-opacity=".179"/><stop offset="1" stop-color="#fff" stop-opacity=".795"/></linearGradient><linearGradient id="c"><stop offset="0" stop-color="#fff" stop-opacity=".526"/><stop offset=".446" stop-color="#fff" stop-opacity=".737"/><stop offset=".476" stop-color="#fff"/><stop offset=".503" stop-color="#fff" stop-opacity=".718"/><stop offset="1" stop-color="#fff" stop-opacity=".495"/></linearGradient><linearGradient gradientTransform="matrix(1.47748 0 0 1.47748 -1.005 -390.878)" xlink:href="#c" id="r" x1="7.403" y1="282" x2="27.388" y2="282.145" gradientUnits="userSpaceOnUse"/><linearGradient xlink:href="#e" id="m" gradientUnits="userSpaceOnUse" x1="16.721" y1="296.202" x2="17.087" y2="265.977"/><linearGradient xlink:href="#d" id="f" gradientUnits="userSpaceOnUse" x1="16.791" y1="294.048" x2="16.839" y2="271.451"/><linearGradient xlink:href="#b" id="j" gradientUnits="userSpaceOnUse" x1="16.907" y1="265.033" x2="17.034" y2="278.562"/><linearGradient xlink:href="#d" id="g" gradientUnits="userSpaceOnUse" x1="16.791" y1="294.048" x2="16.839" y2="271.451"/><linearGradient xlink:href="#d" id="h" gradientUnits="userSpaceOnUse" x1="16.791" y1="294.048" x2="16.839" y2="271.451"/><linearGradient xlink:href="#d" id="i" gradientUnits="userSpaceOnUse" x1="16.791" y1="294.048" x2="16.839" y2="271.451"/><linearGradient xlink:href="#d" id="k" gradientUnits="userSpaceOnUse" x1="16.791" y1="294.048" x2="16.839" y2="271.451"/><linearGradient xlink:href="#d" id="l" gradientUnits="userSpaceOnUse" x1="16.791" y1="294.048" x2="16.839" y2="271.451"/><linearGradient xlink:href="#e" id="n" gradientUnits="userSpaceOnUse" x1="16.721" y1="296.202" x2="17.087" y2="265.977"/><linearGradient xlink:href="#e" id="o" gradientUnits="userSpaceOnUse" x1="16.721" y1="296.202" x2="17.087" y2="265.977"/><linearGradient xlink:href="#e" id="p" gradientUnits="userSpaceOnUse" x1="16.721" y1="296.202" x2="17.087" y2="265.977"/><linearGradient xlink:href="#e" id="q" gradientUnits="userSpaceOnUse" x1="16.721" y1="296.202" x2="17.087" y2="265.977"/></defs><g transform="matrix(1.47748 0 0 1.47748 -1.005 -390.878)" style="isolation:auto;mix-blend-mode:normal;marker:none" color="#000" overflow="visible" fill="url(#f)" stroke-width=".265" stroke-opacity=".984"><path d="M2.483 267.972v16.009l14.463-1.73v-17.562z" fill="url(#g)"/><path d="M2.483 283.98l14.45 12.929 14.46-12.94-14.447-1.719z" fill="url(#h)" fill-rule="evenodd" stroke-linejoin="round"/><path d="M16.946 264.69l14.448 3.277v16.003l-14.448-1.72z" fill="url(#i)" fill-rule="evenodd" stroke-linejoin="round"/><path d="M2.483 267.972l14.45 11.329 14.46-11.334-14.447-3.278z" fill="url(#j)"/><path d="M16.932 279.3v17.609l14.462-12.94v-16.002z" fill="url(#k)" fill-rule="evenodd" stroke-linejoin="round"/><path d="M2.483 267.972l14.45 11.329v17.608l-14.45-12.928z" fill="url(#l)" fill-rule="evenodd" stroke-linejoin="round"/></g><g transform="matrix(1.47748 0 0 1.47748 -1.005 -390.878)" style="isolation:auto;mix-blend-mode:normal;marker:none" color="#000" overflow="visible" fill="none" stroke="url(#m)" stroke-width=".265" stroke-opacity=".142"><path d="M2.483 283.98l14.45 12.929 14.46-12.94-14.447-1.882z" fill-rule="evenodd" stroke="url(#n)" stroke-linejoin="round"/><path d="M2.483 267.972l14.45 11.165 14.46-11.17-14.447-3.278z" stroke="url(#o)"/><path d="M16.932 279.137v17.772l14.462-12.94v-16.002z" fill-rule="evenodd" stroke="url(#p)" stroke-linejoin="round"/><path d="M2.483 267.972l14.45 11.165v17.772l-14.45-12.928z" fill-rule="evenodd" stroke="url(#q)" stroke-linejoin="round"/></g><path d="M6.38 8.23v23.776l1.838 1.663V12.22l15.795 11.847L39.807 12.22v21.44l1.839-1.653V8.23L24.013 21.456z" fill="#3f2c48" fill-opacity=".347" fill-rule="evenodd" stroke-width=".524"/><path d="M8.218 33.665V12.22l15.795 11.846L39.807 12.22v21.445l-7.897 7.082V28.015l-7.897 7.898-7.898-7.898v12.732z" fill="url(#r)" fill-rule="evenodd" stroke-width=".469"/><path style="line-height:normal;font-variant-ligatures:normal;font-variant-position:normal;font-variant-caps:normal;font-variant-numeric:normal;font-variant-alternates:normal;font-feature-settings:normal;text-indent:0;text-align:start;text-decoration-line:none;text-decoration-style:solid;text-decoration-color:#000;text-transform:none;text-orientation:mixed;shape-padding:0;isolation:auto;mix-blend-mode:normal" d="M16.35 40.949V28.583l7.662 7.662 7.664-7.662v12.364l.468-.421V27.449l-8.133 8.132-8.131-8.132v13.076zm-7.898-28.26l15.56 11.67 15.562-11.67V33.88l.468-.37V11.75l-16.03 12.022L7.984 11.75v21.706l.468.421z" color="#000" font-weight="400" font-family="sans-serif" white-space="normal" overflow="visible" fill="#fff" fill-rule="evenodd" stroke-width=".469"/></svg>