<svg xmlns="http://www.w3.org/2000/svg" xmlns:xlink="http://www.w3.org/1999/xlink" height="48" viewBox="0 0 48 48" width="48"><title>Template icons dark</title><defs><linearGradient id="a"><stop offset="0" stop-color="#e9e9e9"/><stop offset="1" stop-color="#fff"/></linearGradient><linearGradient gradientTransform="matrix(.51065 0 0 .51065 -57.704 -57.704)" xlink:href="#a" id="b" x1="168" y1="201.741" x2="168" y2="114.331" gradientUnits="userSpaceOnUse"/></defs><path d="M21.828 46.954c-3.286-1.092-5.616-2.575-8.237-5.244-2.93-2.985-4.656-6.108-5.382-9.742-1.005-5.028 1.662-9.637 7.287-12.593 6.788-3.567 16.069-3.904 19.49-.708 1.05.98 1.28 1.543 1.28 3.114 0 3-1.656 4.858-8.132 9.12-7.822 5.15-8.639 6.411-5.918 9.132 1.113 1.113 1.832 1.466 2.986 1.466 1.495 0 2.841-.862 2.912-1.863.207-2.933.648-3.476 3.429-4.213 2.333-.62 4.983-.223 5.546.829.643 1.202-.9 5.062-2.814 7.04-3.572 3.688-8.236 5.061-12.447 3.662zM6.726 18.508c-2.354-2.353-2.537-5.429-.382-6.41.949-.433 1.227-.353 2.213.633 1.872 1.872 1.894 7.217.03 7.217-.232 0-1.07-.648-1.861-1.44zm6.566-4.502c-.87-.961-2.023-3.674-2.023-4.76 0-1.382 1.656-3.09 2.995-3.09 1.61 0 2.265.893 2.507 3.413.277 2.88-.53 5.207-1.805 5.207-.538 0-1.291-.346-1.674-.77zm18.139-.119c-2.044-1.191-1.755-6.669.518-9.807 3.19-4.402 11.214-4.864 11.214-.646 0 2.86-4.132 8.399-7.473 10.016-2.03.983-3.13 1.096-4.26.437zm-10.254-2.666c-2.415-3.96-.935-8.944 2.656-8.944 1.69 0 2.52 1.054 2.52 3.2 0 3.318-1.865 7.144-3.483 7.144-.484 0-1.2-.592-1.693-1.4z" fill="none" stroke="#000" stroke-width="1.021" stroke-opacity=".176"/><path d="M21.828 46.954c-3.286-1.092-5.616-2.575-8.237-5.244-2.93-2.985-4.656-6.108-5.382-9.742-1.005-5.028 1.662-9.637 7.287-12.593 6.788-3.567 16.069-3.904 19.49-.708 1.05.98 1.28 1.543 1.28 3.114 0 3-1.656 4.858-8.132 9.12-7.822 5.15-8.639 6.411-5.918 9.132 1.113 1.113 1.832 1.466 2.986 1.466 1.495 0 2.841-.862 2.912-1.863.207-2.933.648-3.476 3.429-4.213 2.333-.62 4.983-.223 5.546.829.643 1.202-.9 5.062-2.814 7.04-3.572 3.688-8.236 5.061-12.447 3.662zM6.726 18.508c-2.354-2.353-2.537-5.429-.382-6.41.949-.433 1.227-.353 2.213.633 1.872 1.872 1.894 7.217.03 7.217-.232 0-1.07-.648-1.861-1.44zm6.565-4.502c-.87-.961-2.022-3.674-2.022-4.76 0-1.382 1.656-3.09 2.995-3.09 1.61 0 2.265.893 2.507 3.413.277 2.88-.53 5.207-1.805 5.207-.538 0-1.291-.346-1.674-.77zm18.14-.119c-2.044-1.191-1.755-6.669.518-9.807 3.19-4.402 11.214-4.864 11.214-.646 0 2.86-4.132 8.399-7.473 10.016-2.03.983-3.13 1.096-4.26.437zm-10.254-2.666c-2.415-3.96-.935-8.944 2.656-8.944 1.69 0 2.52 1.054 2.52 3.2 0 3.318-1.865 7.145-3.483 7.145-.484 0-1.2-.593-1.693-1.401z" fill="url(#b)" stroke-width=".431"/></svg>