<svg xmlns="http://www.w3.org/2000/svg" xmlns:xlink="http://www.w3.org/1999/xlink" height="48" viewBox="0 0 48 48" width="48"><title>Template icons dark</title><defs><linearGradient id="h"><stop offset="0" stop-color="#2aa591"/><stop offset="1" stop-color="#2498e4"/></linearGradient><linearGradient id="g"><stop offset="0" stop-color="#eeda60"/><stop offset="1" stop-color="#db9918"/></linearGradient><linearGradient id="b"><stop offset="0" stop-color="#2a0ff3" stop-opacity=".132"/><stop offset=".521" stop-color="#3bf963" stop-opacity=".291"/><stop offset="1" stop-color="#ef4cff" stop-opacity=".297"/></linearGradient><linearGradient id="a"><stop offset="0" stop-color="#e1e3e7"/><stop offset=".21" stop-color="#dee1e4"/><stop offset=".38" stop-color="#f1f2f3"/><stop offset=".67" stop-color="#c2c6cd"/><stop offset="1" stop-color="#d7dadf"/></linearGradient><linearGradient id="c"><stop offset="0" stop-color="#fff"/><stop offset="1" stop-color="#fff" stop-opacity="0"/></linearGradient><linearGradient id="d"><stop offset="0"/><stop offset="1" stop-opacity="0"/></linearGradient><linearGradient id="e"><stop offset="0" stop-color="#babdb6"/><stop offset="1" stop-color="#fff"/></linearGradient><linearGradient id="f"><stop offset="0" stop-color="#888a85"/><stop offset="1" stop-color="#555753"/></linearGradient><linearGradient xlink:href="#a" id="i" x1="9" y1="4" x2="37.228" y2="44" gradientUnits="userSpaceOnUse"/></defs><g><path d="M7 2v44h9l2-4h12l2 4h9V2H24z" fill-opacity=".104" stroke-width="1.594" stroke-opacity=".24"/><path d="M8 3v42h8l2-3h12l2 3h8V3z" fill="#565e66" stroke-width="1.526" stroke-opacity=".24"/><path d="M9 4v40h7l2-3h12l2 3h7V4z" fill="url(#i)" stroke-opacity=".24"/><path d="M18 41l-1.336 2H31.34L30 41z" fill="#6c7587" fill-rule="evenodd"/><path d="M18 41l-.661 1H30.66L30 41z" fill-opacity=".413" fill-rule="evenodd" stroke-width=".703"/><path style="isolation:auto;mix-blend-mode:normal;marker:none" d="M16 12h16v24H16z" color="#000" display="block" overflow="visible" fill-opacity=".22" stroke-width=".266" stroke-linecap="round" stroke-linejoin="round" stroke-opacity=".964"/><path style="isolation:auto;mix-blend-mode:normal;marker:none" d="M16 36h16v1H16z" color="#000" overflow="visible" fill="#fff" fill-opacity=".5" stroke-width=".488" stroke-linecap="square" stroke-dasharray=".97623542,.97623542" stroke-dashoffset="9.739" paint-order="markers stroke fill"/><path style="isolation:auto;mix-blend-mode:normal;marker:none" d="M24.77 16.513a6.695 6.786 0 0 0-6.696 6.785 6.695 6.786 0 0 0 1.1 3.722 3.791 3.843 0 0 0-2.902 3.73 3.791 3.843 0 0 0 3.791 3.844 3.791 3.843 0 0 0 3.792-3.843 3.791 3.843 0 0 0-.078-.75 6.695 6.786 0 0 0 .993.083 6.695 6.786 0 0 0 6.695-6.786 6.695 6.786 0 0 0-6.695-6.785z" color="#000" display="block" overflow="visible" fill="#fff" fill-opacity=".665" stroke-width=".375" stroke-opacity=".28" paint-order="fill markers stroke"/><path style="isolation:auto;mix-blend-mode:normal;marker:none" d="M24.157 17.928c-.093 0-.144.075-.167.16l-.331 1.247a4.167 4.167 0 0 0-.867.367l-1.104-.641c-.076-.044-.164-.06-.229.007l-.955.968c-.066.066-.05.156-.007.233l.643 1.135c-.146.272-.261.56-.345.859l-1.248.344c-.085.024-.158.075-.158.17v1.369c0 .094.073.147.158.17l1.276.348c.087.283.202.556.344.815l-.66 1.17c-.043.077-.06.166.006.232l.956.969c.066.066.154.05.23.006l1.176-.685c.214.114.533.236.775.324l.355 1.324c.023.086.074.16.167.16h1.352c.093 0 .144-.074.167-.16l.356-1.335c.242-.08.513-.212.772-.32l1.174.682c.076.044.165.06.23-.007l.956-.968c.065-.067.05-.156.007-.234l-.676-1.187c.136-.252.248-.518.33-.794l1.294-.356c.085-.023.158-.075.158-.169v-1.37c0-.094-.073-.146-.158-.17l-1.272-.347a4.283 4.283 0 0 0-.335-.84l.648-1.145c.044-.077.059-.167-.007-.233l-.955-.969c-.066-.066-.154-.051-.23-.007l-1.117.651a4.166 4.166 0 0 0-.855-.365l-.335-1.247c-.023-.086-.074-.16-.167-.16zm.685 3.499c1.101 0 1.994.905 1.994 2.021 0 1.116-.893 2.021-1.994 2.021-1.102 0-1.995-.905-1.995-2.021 0-1.116.893-2.021 1.995-2.021zm-5.266 6.6c-.049 0-.076.04-.088.084l-.174.653a2.18 2.18 0 0 0-.453.192l-.578-.335c-.04-.023-.086-.032-.12.003l-.5.507c-.034.035-.027.082-.004.122l.337.593a2.244 2.244 0 0 0-.18.45l-.653.181c-.045.012-.083.04-.083.088v.717c0 .05.038.076.083.089l.667.182c.046.148.106.29.18.426l-.345.613c-.023.04-.03.087.004.121l.5.508c.034.035.08.026.12.003l.615-.359c.113.06.279.124.406.17l.186.693c.012.045.039.083.087.083h.708c.048 0 .075-.038.087-.083l.186-.699c.127-.041.27-.11.405-.167l.614.357c.04.023.086.031.12-.004l.5-.506c.035-.035.027-.082.005-.122l-.354-.622c.071-.133.129-.272.173-.416l.677-.186c.044-.012.083-.04.083-.088v-.718c0-.05-.039-.077-.083-.089l-.666-.182a2.243 2.243 0 0 0-.175-.44l.339-.598c.023-.04.03-.088-.004-.122l-.5-.507c-.034-.035-.08-.027-.12-.004l-.585.34a2.183 2.183 0 0 0-.448-.19l-.175-.654c-.012-.045-.039-.083-.087-.083zm.358 1.832a1.05 1.05 0 0 1 1.043 1.057 1.05 1.05 0 0 1-1.043 1.058 1.05 1.05 0 0 1-1.044-1.058 1.05 1.05 0 0 1 1.044-1.057z" color="#000" overflow="visible" fill="#656c76" stroke-width=".185" stroke-opacity=".808" paint-order="fill markers stroke"/><rect ry="1.333" rx="1.333" y="41" x="36" height="2" width="2" fill="#737373" stroke-width="1.333" stroke-opacity=".643"/><path style="isolation:auto;mix-blend-mode:normal;marker:none" color="#000" display="block" overflow="visible" fill="#dbb518" stroke-width=".13" stroke-linecap="round" stroke-linejoin="round" stroke-opacity=".964" d="M18 41h1v2h-1zM20 41h1v2h-1zM22 41h1v2h-1zM24.89 41h1v2h-1zM27 41h1v2h-1zM29 41h1v2h-1z"/><rect ry="1.333" rx="1.333" y="41" x="10" height="2" width="2" fill="#737373" stroke-width="1.333" stroke-opacity=".643"/><rect ry="1.333" rx="1.333" y="23.088" x="36" height="2" width="2" fill="#737373" stroke-width="1.333" stroke-opacity=".643"/><rect ry="1.333" rx="1.333" y="23" x="10" height="2" width="2" fill="#737373" stroke-width="1.333" stroke-opacity=".643"/><rect ry="1.333" rx="1.333" y="5" x="36" height="2" width="2" fill="#737373" stroke-width="1.333" stroke-opacity=".643"/><rect ry="1.333" rx="1.333" y="5" x="10" height="2" width="2" fill="#737373" stroke-width="1.333" stroke-opacity=".643"/><path style="isolation:auto;mix-blend-mode:normal;marker:none" color="#000" display="block" overflow="visible" fill-opacity=".286" stroke-width=".488" stroke-linecap="square" stroke-dasharray=".97623542,.97623542" stroke-dashoffset="9.739" paint-order="markers stroke fill" d="M16 12h16v1H16z"/></g></svg>