<svg xmlns="http://www.w3.org/2000/svg" xmlns:xlink="http://www.w3.org/1999/xlink" height="48" viewBox="0 0 48 48" width="48"><title>Template icons dark</title><defs><linearGradient id="j"><stop offset="0" stop-color="#078cd0" stop-opacity=".781"/><stop offset=".774" stop-color="#5946dd" stop-opacity=".584"/><stop offset="1" stop-color="#ca39f1" stop-opacity=".669"/></linearGradient><linearGradient id="i"><stop offset="0" stop-color="#078cd0" stop-opacity=".698"/><stop offset=".774" stop-color="#5946dd" stop-opacity=".443"/><stop offset="1" stop-color="#ca39f1" stop-opacity=".302"/></linearGradient><linearGradient id="c"><stop offset="0" stop-color="#d1f8fc" stop-opacity=".084"/><stop offset=".501" stop-color="#fff" stop-opacity=".039"/><stop offset="1" stop-color="#b6f3fa" stop-opacity=".096"/></linearGradient><linearGradient id="b"><stop offset="0" stop-color="#777"/><stop offset="1" stop-color="#595959"/></linearGradient><linearGradient id="h"><stop offset="0" stop-color="#fff" stop-opacity=".528"/><stop offset=".561" stop-color="#fff" stop-opacity=".522"/><stop offset="1" stop-color="#fff" stop-opacity="0"/></linearGradient><linearGradient id="f"><stop offset="0" stop-color="#fff" stop-opacity=".663"/><stop offset=".561" stop-color="#fff" stop-opacity=".522"/><stop offset="1" stop-color="#fff" stop-opacity="0"/></linearGradient><linearGradient id="g"><stop offset="0" stop-color="#fff"/><stop offset=".561" stop-color="#fff" stop-opacity=".522"/><stop offset="1" stop-color="#fff" stop-opacity="0"/></linearGradient><linearGradient id="e"><stop offset="0" stop-color="#4fb9ef" stop-opacity=".459"/><stop offset=".836" stop-color="#1f1cec" stop-opacity=".315"/><stop offset=".888" stop-color="#d039f1" stop-opacity=".376"/><stop offset="1" stop-color="#ca39f1" stop-opacity=".302"/></linearGradient><linearGradient id="d"><stop offset="0" stop-color="#393939"/><stop offset="1" stop-color="#181818"/></linearGradient><linearGradient id="a"><stop offset="0" stop-color="#efefef"/><stop offset="1" stop-color="#cacaca"/></linearGradient><linearGradient xlink:href="#a" id="k" x1="160" y1="133.669" x2="160" y2="186.583" gradientUnits="userSpaceOnUse" gradientTransform="matrix(.50055 0 0 .5 -56.113 -56.341)"/><radialGradient xlink:href="#i" id="m" cx="-226.274" cy=".459" fx="-226.274" fy=".459" r="15.999" gradientUnits="userSpaceOnUse" gradientTransform="matrix(.54295 -.54295 .54366 .54366 146.632 -99.385)"/><radialGradient gradientTransform="matrix(.5 0 0 .5 -56 -56.341)" xlink:href="#d" id="l" cx="160" cy="160" fx="160" fy="160" r="33" gradientUnits="userSpaceOnUse"/></defs><g color="#000"><rect style="isolation:auto;mix-blend-mode:normal;marker:none" width="48" height="30" y="9" ry="2.071" display="block" overflow="visible" fill-opacity=".131" stroke-width=".411" paint-order="fill markers stroke"/><rect style="isolation:auto;mix-blend-mode:normal;marker:none" width="46" height="28" x="1" y="10" ry="2" display="block" overflow="visible" fill="url(#k)" stroke-width=".999" stroke-opacity=".344" paint-order="fill markers stroke"/><path style="isolation:auto;mix-blend-mode:normal;marker:none" d="M1 35.5v.5c0 1.108.892 2 2 2h42c1.108 0 2-.892 2-2v-.5c0 1.108-.876 1.5-1.984 1.5H3c-1.108 0-2-.392-2-1.5z" display="block" overflow="visible" fill="#eee" stroke-width=".999" stroke-opacity=".344" paint-order="fill markers stroke"/><path style="isolation:auto;mix-blend-mode:normal;marker:none" d="M41.124 24.16A17.124 17.124 0 0 1 24 41.282 17.124 17.124 0 0 1 6.876 24.16 17.124 17.124 0 0 1 24 7.035a17.124 17.124 0 0 1 17.124 17.124z" overflow="visible" fill-opacity=".23" stroke-width=".907" paint-order="fill markers stroke"/><path style="isolation:auto;mix-blend-mode:normal;marker:none" d="M40 23.66a16 16 0 0 1-16 15.998A16 16 0 0 1 8 23.66a16 16 0 0 1 16-16 16 16 0 0 1 16 16z" overflow="visible" fill="url(#l)" stroke="#f2f2f2" stroke-width="1.002" paint-order="fill markers stroke"/><path style="line-height:normal;font-variant-ligatures:normal;font-variant-position:normal;font-variant-caps:normal;font-variant-numeric:normal;font-variant-alternates:normal;font-feature-settings:normal;text-indent:0;text-align:start;text-decoration-line:none;text-decoration-style:solid;text-decoration-color:#000;text-transform:none;text-orientation:mixed;shape-padding:0;isolation:auto;mix-blend-mode:normal;marker:none" d="M24 8.41c-8.413 0-15.25 6.836-15.25 15.25 0 8.412 6.837 15.249 15.25 15.249s15.25-6.837 15.25-15.25S32.413 8.41 24 8.41zm0 2.02a13.217 13.217 0 0 1 13.228 13.23A13.217 13.217 0 0 1 24 36.886 13.217 13.217 0 0 1 10.772 23.66 13.217 13.217 0 0 1 24 10.431z" font-weight="400" font-family="sans-serif" white-space="normal" overflow="visible" fill="#c7e8fb" fill-opacity=".331" stroke-width="1.591" paint-order="fill markers stroke"/><path style="line-height:normal;font-variant-ligatures:normal;font-variant-position:normal;font-variant-caps:normal;font-variant-numeric:normal;font-variant-alternates:normal;font-feature-settings:normal;text-indent:0;text-align:start;text-decoration-line:none;text-decoration-style:solid;text-decoration-color:#000;text-transform:none;text-orientation:mixed;shape-padding:0;isolation:auto;mix-blend-mode:normal;marker:none" d="M24 6.984c-9.201 0-16.675 7.474-16.675 16.675S14.8 40.334 24 40.334s16.675-7.474 16.675-16.675S33.2 6.984 24 6.984zm0 1.675c8.292 0 15 6.708 15 15s-6.708 15-15 15-15-6.708-15-15 6.708-15 15-15z" font-weight="400" font-family="sans-serif" white-space="normal" overflow="visible" fill="#fff" stroke-width="2" paint-order="fill markers stroke"/><path style="isolation:auto;mix-blend-mode:normal;marker:none" d="M32.881 32.472A12.644 12.644 0 0 1 15 32.435l8.959-8.922z" overflow="visible" fill="#c7e8fb" fill-opacity=".129" stroke-width=".792" paint-order="fill markers stroke"/><path style="isolation:auto;mix-blend-mode:normal;marker:none" d="M15.31 15a12.307 12.307 0 0 1 17.405.035l-8.72 8.685z" overflow="visible" fill="url(#m)" stroke-width=".771" paint-order="fill markers stroke"/><path style="isolation:auto;mix-blend-mode:normal;marker:none" d="M25 24.816a1.03.696 0 0 1-1.03.696 1.03.696 0 0 1-1.031-.696 1.03.696 0 0 1 1.03-.696 1.03.696 0 0 1 1.031.696z" overflow="visible" fill="#c7e8fb" fill-opacity=".382" stroke-width=".141" paint-order="fill markers stroke"/><path style="isolation:auto;mix-blend-mode:normal;marker:none" d="M25.39 22.132A1.39 1.132 0 0 1 24 23.265a1.39 1.132 0 0 1-1.39-1.133A1.39 1.132 0 0 1 24 21a1.39 1.132 0 0 1 1.39 1.132z" overflow="visible" fill="#ecf7fe" fill-opacity=".438" stroke-width=".109" paint-order="fill markers stroke"/><path style="isolation:auto;mix-blend-mode:normal;marker:none" d="M4.5 12A1.5 1.5 0 0 0 3 13.5a1.5 1.5 0 0 0 .006.117A1.5 1.5 0 0 1 4.5 12.234a1.5 1.5 0 0 1 1.494 1.383A1.5 1.5 0 0 0 6 13.5 1.5 1.5 0 0 0 4.5 12z" overflow="visible" fill-opacity=".506" stroke-width=".768" paint-order="fill markers stroke"/><circle style="isolation:auto;mix-blend-mode:normal;marker:none" cx="24" cy="23.659" r="4.12" overflow="visible" fill="none" fill-opacity=".459" stroke="#8e8e8e" stroke-width="2" paint-order="fill markers stroke"/><circle r="5" cy="23.659" cx="24" style="isolation:auto;mix-blend-mode:normal;marker:none" overflow="visible" fill="#030303" fill-opacity=".459" stroke="#969696" stroke-width=".53" paint-order="fill markers stroke"/><circle style="isolation:auto;mix-blend-mode:normal;marker:none" cx="4.5" cy="13.5" r="1.5" overflow="visible" fill="#ea6565" stroke-width=".768" paint-order="fill markers stroke"/></g></svg>