<svg xmlns="http://www.w3.org/2000/svg" xmlns:xlink="http://www.w3.org/1999/xlink" height="48" viewBox="0 0 48 48" width="48"><title>Template icons dark</title><defs><linearGradient id="k"><stop offset="0" stop-color="#4c4553"/><stop offset="1" stop-color="#3b3144" stop-opacity=".969"/></linearGradient><linearGradient id="j"><stop offset="0" stop-color="#3d3743"/><stop offset="1" stop-color="#2f2736" stop-opacity=".969"/></linearGradient><linearGradient id="d"><stop offset="0" stop-color="#f87c32"/><stop offset="1" stop-color="#fdab5a" stop-opacity=".996"/></linearGradient><linearGradient id="i"><stop offset="0" stop-color="#fff" stop-opacity=".125"/><stop offset="1" stop-color="#fff" stop-opacity="0"/></linearGradient><linearGradient id="h"><stop offset="0" stop-color="#fff" stop-opacity=".198"/><stop offset="1" stop-color="#fff" stop-opacity="0"/></linearGradient><linearGradient id="g"><stop offset="0" stop-color="#2c3749"/><stop offset="1" stop-color="#3d3c63"/></linearGradient><linearGradient id="f"><stop offset="0" stop-opacity=".129"/><stop offset=".347" stop-color="#4f4f4f" stop-opacity="0"/><stop offset=".765" stop-color="#8d8d8d" stop-opacity="0"/><stop offset="1" stop-color="#fff" stop-opacity=".104"/></linearGradient><linearGradient id="o"><stop offset="0" stop-opacity=".057"/><stop offset=".909" stop-color="#fff" stop-opacity=".02"/><stop offset="1" stop-color="#fff" stop-opacity=".536"/></linearGradient><linearGradient id="e"><stop offset="0" stop-color="#ff994a"/><stop offset="1" stop-color="#ffb555"/></linearGradient><linearGradient id="n"><stop offset="0" stop-opacity="0"/><stop offset=".887" stop-opacity=".078"/><stop offset="1" stop-color="#fff" stop-opacity=".464"/></linearGradient><linearGradient id="m"><stop offset="0" stop-opacity="0"/><stop offset=".887" stop-opacity=".078"/><stop offset="1" stop-opacity=".188"/></linearGradient><linearGradient id="l"><stop offset="0" stop-opacity=".057"/><stop offset=".909" stop-opacity=".021"/><stop offset="1" stop-opacity=".505"/></linearGradient><linearGradient id="c"><stop offset="0" stop-color="#f88232"/><stop offset="1" stop-color="#fdc85a" stop-opacity=".995"/></linearGradient><linearGradient id="b"><stop offset="0" stop-color="#ed7837" stop-opacity=".974"/><stop offset="1" stop-color="#e45a2a"/></linearGradient><linearGradient id="a"><stop offset="0" stop-color="#403a47"/><stop offset="1" stop-color="#2c2533" stop-opacity=".971"/></linearGradient><linearGradient xlink:href="#i" id="F" gradientUnits="userSpaceOnUse" gradientTransform="matrix(.53836 0 0 .53836 -62.905 -62.37)" x1="158.559" y1="119" x2="158.559" y2="151"/><linearGradient xlink:href="#h" id="E" x1="158.559" y1="119" x2="158.559" y2="151" gradientUnits="userSpaceOnUse" gradientTransform="matrix(.51312 0 0 .51312 -58.867 -58.332)"/><linearGradient xlink:href="#f" id="D" x1="187.697" y1="190.626" x2="187.697" y2="176.858" gradientUnits="userSpaceOnUse" gradientTransform="matrix(.53555 0 0 .53192 -62.9 -61.635)"/><linearGradient gradientTransform="matrix(.51628 0 0 .51628 -59.372 -58.837)" xlink:href="#g" id="C" x1="188" y1="191" x2="188" y2="177" gradientUnits="userSpaceOnUse"/><linearGradient xlink:href="#c" id="z" gradientUnits="userSpaceOnUse" gradientTransform="matrix(-.04345 -.36235 .36235 -.04345 72.672 -24.889)" x1="-101.254" y1="-148.008" x2="-84.616" y2="-106.562"/><linearGradient xlink:href="#d" id="w" gradientUnits="userSpaceOnUse" gradientTransform="rotate(-41.818 -81.458 88.117) scale(.51628)" x1="104.202" y1="237.968" x2="124.46" y2="214.022"/><linearGradient xlink:href="#c" id="v" gradientUnits="userSpaceOnUse" gradientTransform="rotate(74.668 20.998 -93.301) scale(.51628)" x1="295.286" y1="-123.22" x2="267.135" y2="-118.871"/><linearGradient xlink:href="#c" id="u" gradientUnits="userSpaceOnUse" gradientTransform="rotate(-172.407 -14.924 -29.694) scale(.51628)" x1="-112.967" y1="-156.148" x2="-80.17" y2="-124.045"/><linearGradient xlink:href="#c" id="t" gradientUnits="userSpaceOnUse" gradientTransform="matrix(-.19673 -.15131 .15131 -.19673 23.205 -23.436)" x1="-112.967" y1="-156.148" x2="-80.17" y2="-124.045"/><linearGradient xlink:href="#c" id="s" gradientUnits="userSpaceOnUse" gradientTransform="rotate(166.03 -22.024 -19.218) scale(.47954)" x1="-95.591" y1="-143.575" x2="-67.254" y2="-126.208"/><linearGradient xlink:href="#b" id="r" x1="159.873" y1="151.837" x2="159.873" y2="167.94" gradientUnits="userSpaceOnUse" gradientTransform="matrix(.71699 0 0 .71699 -91.486 -90.95)"/><linearGradient gradientTransform="matrix(.51628 0 0 .51628 -59.372 -58.837)" xlink:href="#e" id="q" x1="161.189" y1="172.735" x2="162.769" y2="145.544" gradientUnits="userSpaceOnUse"/><linearGradient xlink:href="#a" id="p" x1="158.551" y1="120" x2="158.551" y2="196.51" gradientUnits="userSpaceOnUse" gradientTransform="matrix(.5389 0 0 .5389 -62.992 -62.457)"/><radialGradient xlink:href="#o" id="B" gradientUnits="userSpaceOnUse" gradientTransform="matrix(-.77172 -.50824 .58253 -.88452 -34.385 -188.805)" cx="-176.577" cy="-137.64" fx="-176.577" fy="-137.64" r="15.364"/><radialGradient xlink:href="#n" id="A" gradientUnits="userSpaceOnUse" gradientTransform="matrix(.4974 -.14467 .19284 .663 -21.751 -121.804)" cx="24.007" cy="220.792" fx="24.007" fy="220.792" r="18.085"/><radialGradient xlink:href="#m" id="y" gradientUnits="userSpaceOnUse" gradientTransform="matrix(.49093 -.14279 .19033 .65438 -21.17 -119.896)" cx="24.007" cy="220.792" fx="24.007" fy="220.792" r="18.085"/><radialGradient xlink:href="#l" id="x" cx="-176.577" cy="-137.64" fx="-176.577" fy="-137.64" r="15.364" gradientTransform="matrix(-.76025 -.5007 .57388 -.87138 -33.524 -185.646)" gradientUnits="userSpaceOnUse"/></defs><g><circle r="23.233" cy="23.767" cx="23.233" style="isolation:auto;mix-blend-mode:normal;marker:none" color="#000" display="block" overflow="visible" fill-opacity=".104" stroke-width=".049" stroke-miterlimit="4.6" paint-order="fill markers stroke"/><path style="isolation:auto;mix-blend-mode:normal;marker:none" d="M45.949 23.768a22.716 22.716 0 0 1-22.717 22.716A22.716 22.716 0 0 1 .516 23.768 22.716 22.716 0 0 1 23.232 1.05 22.716 22.716 0 0 1 45.95 23.768z" color="#000" display="block" overflow="visible" fill="#191520" stroke-width=".048" stroke-miterlimit="4.6" paint-order="fill markers stroke"/><path style="isolation:auto;mix-blend-mode:normal;marker:none" d="M44.916 23.768A21.684 21.684 0 0 1 23.232 45.45 21.684 21.684 0 0 1 1.55 23.768 21.684 21.684 0 0 1 23.232 2.084a21.684 21.684 0 0 1 21.684 21.684z" color="#000" display="block" overflow="visible" fill="url(#p)" stroke-width=".046" stroke-miterlimit="4.6" paint-order="fill markers stroke"/><path style="isolation:auto;mix-blend-mode:normal;marker:none" d="M43.466 23.768A20.234 20.234 0 0 1 23.232 44 20.234 20.234 0 0 1 3 23.768 20.234 20.234 0 0 1 23.232 3.534a20.234 20.234 0 0 1 20.234 20.234z" color="#000" display="block" overflow="visible" fill="none" stroke="#000" stroke-width="2.866" stroke-miterlimit="4.6" stroke-opacity=".109" paint-order="fill markers stroke"/><path style="isolation:auto;mix-blend-mode:normal;marker:none" d="M40.438 23.768a17.205 17.205 0 0 1-17.206 17.205A17.205 17.205 0 0 1 6.027 23.768 17.205 17.205 0 0 1 23.232 6.562a17.205 17.205 0 0 1 17.206 17.206z" color="#000" display="block" overflow="visible" fill="none" stroke="#000" stroke-width="3.826" stroke-miterlimit="4.6" stroke-opacity=".125" paint-order="fill markers stroke"/><path style="isolation:auto;mix-blend-mode:normal;marker:none" d="M37.093 23.768a13.86 13.86 0 0 1-13.86 13.86 13.86 13.86 0 0 1-13.861-13.86 13.86 13.86 0 0 1 13.86-13.861 13.86 13.86 0 0 1 13.861 13.86z" color="#000" display="block" overflow="visible" fill="none" stroke="#000" stroke-width="3.306" stroke-miterlimit="4.6" stroke-opacity=".089" paint-order="fill markers stroke"/><path style="isolation:auto;mix-blend-mode:normal;marker:none" d="M42.471 23.768a19.239 19.239 0 0 1-19.239 19.238A19.239 19.239 0 0 1 3.994 23.768 19.239 19.239 0 0 1 23.232 4.529a19.239 19.239 0 0 1 19.239 19.239z" color="#000" display="block" overflow="visible" fill="none" stroke="#fbfbfb" stroke-width=".258" stroke-miterlimit="4.6" stroke-opacity=".099" paint-order="fill markers stroke"/><path style="isolation:auto;mix-blend-mode:normal;marker:none" d="M38.891 23.768a15.659 15.659 0 0 1-15.659 15.658A15.659 15.659 0 0 1 7.574 23.768a15.659 15.659 0 0 1 15.658-15.66 15.659 15.659 0 0 1 15.66 15.66z" color="#000" display="block" overflow="visible" fill="none" stroke="#fbfbfb" stroke-width=".236" stroke-miterlimit="4.6" stroke-opacity=".12" paint-order="fill markers stroke"/><path style="isolation:auto;mix-blend-mode:normal;marker:none" d="M35.675 23.768A12.443 12.443 0 0 1 23.232 36.21 12.443 12.443 0 0 1 10.79 23.768a12.443 12.443 0 0 1 12.442-12.443 12.443 12.443 0 0 1 12.443 12.443z" color="#000" display="block" overflow="visible" fill="none" stroke="#fbfbfb" stroke-width=".258" stroke-miterlimit="4.6" stroke-opacity=".141" paint-order="fill markers stroke"/><path style="isolation:auto;mix-blend-mode:normal;marker:none" d="M30.26 23.768a7.027 7.027 0 0 1-5.47 6.852 7.027 7.027 0 0 1-7.895-3.816 7.027 7.027 0 0 1 1.973-8.543l4.364 5.507z" color="#000" display="block" overflow="visible" fill="none" fill-opacity=".943" stroke="url(#q)" stroke-width="2.439" stroke-miterlimit="4.6" paint-order="fill markers stroke"/><path style="isolation:auto;mix-blend-mode:normal;marker:none" d="M27.714 24.15a4.482 4.482 0 0 1-4.482 4.481 4.482 4.482 0 0 1-4.481-4.481 4.482 4.482 0 0 1 4.481-4.482 4.482 4.482 0 0 1 4.482 4.482z" color="#000" display="block" overflow="visible" fill="none" fill-opacity=".943" stroke="#000" stroke-width="2.731" stroke-miterlimit="4.6" stroke-opacity=".354" paint-order="fill markers stroke"/><path style="isolation:auto;mix-blend-mode:normal;marker:none" d="M35.366 23.768A12.133 12.133 0 0 1 23.232 35.9 12.133 12.133 0 0 1 11.1 23.768a12.133 12.133 0 0 1 12.133-12.134 12.133 12.133 0 0 1 12.134 12.134z" color="#000" display="block" overflow="visible" fill="none" stroke="#000" stroke-width=".252" stroke-miterlimit="4.6" stroke-opacity=".344" paint-order="fill markers stroke"/><path style="isolation:auto;mix-blend-mode:normal;marker:none" d="M27.714 23.768a4.482 4.482 0 0 1-4.482 4.481 4.482 4.482 0 0 1-4.481-4.481 4.482 4.482 0 0 1 4.481-4.482 4.482 4.482 0 0 1 4.482 4.482z" color="#000" display="block" overflow="visible" fill="none" fill-opacity=".943" stroke="url(#r)" stroke-width="2.731" stroke-miterlimit="4.6" paint-order="fill markers stroke"/><path style="isolation:auto;mix-blend-mode:normal;marker:none" d="M3.795 28.77a20.15 20.15 0 0 1 .933-12.562l18.62 7.697z" color="#000" display="block" overflow="visible" fill="url(#s)" stroke-width="14.026" stroke-miterlimit="4.6" paint-order="fill markers stroke"/><path style="isolation:auto;mix-blend-mode:normal;marker:none" d="M15.042 17.31a10.428 10.428 0 0 1 9.567-3.99l-1.3 10.347z" color="#000" display="block" overflow="visible" fill="url(#t)" stroke-width="7.259" stroke-miterlimit="4.6" paint-order="fill markers stroke"/><path style="isolation:auto;mix-blend-mode:normal;marker:none" d="M1.843 20.805a21.693 21.693 0 0 1 13.094-17.13l8.41 19.996z" color="#000" display="block" overflow="visible" fill="url(#u)" stroke-width="15.1" stroke-miterlimit="4.6" paint-order="fill markers stroke"/><path style="isolation:auto;mix-blend-mode:normal;marker:none" d="M27.502 38.775a15.736 15.736 0 0 1-15.145-3.908L23.34 23.598z" color="#000" display="block" overflow="visible" fill="url(#v)" stroke-width="15.1" stroke-miterlimit="4.6" paint-order="fill markers stroke"/><path style="isolation:auto;mix-blend-mode:normal;marker:none" d="M1.66 23.7a21.693 21.693 0 0 1 .177-2.818l21.516 2.767z" color="#000" display="block" overflow="visible" fill-opacity=".219" stroke-width="15.1" stroke-miterlimit="4.6" paint-order="fill markers stroke"/><path style="isolation:auto;mix-blend-mode:normal;marker:none" d="M41.688 7.193a24.781 24.781 0 0 1 6.274 17.899l-24.743-1.376z" color="#000" display="block" overflow="visible" fill="url(#w)" stroke-width="15.1" stroke-miterlimit="4.6" paint-order="fill markers stroke"/><path style="isolation:auto;mix-blend-mode:normal;marker:none" d="M34.365 13.752a14.926 14.926 0 0 1 3.78 10.781l-14.904-.828z" color="#000" display="block" overflow="visible" fill="#fef6f0" fill-opacity=".422" stroke-width=".258" stroke-miterlimit="4.6" stroke-opacity=".307" paint-order="fill markers stroke"/><path style="isolation:auto;mix-blend-mode:normal;marker:none" d="M7.973 21.622a15.51 15.51 0 0 1 9.36-12.248l6.013 14.297z" color="#000" display="block" overflow="visible" fill="none" stroke="url(#x)" stroke-width=".258" stroke-miterlimit="4.6" paint-order="fill markers stroke"/><path style="isolation:auto;mix-blend-mode:normal;marker:none" d="M37.376 11.06a18.953 18.953 0 0 1 4.799 13.69L23.25 23.697z" color="#000" display="block" overflow="visible" fill="none" stroke="url(#y)" stroke-width=".262" stroke-miterlimit="4.6" paint-order="fill markers stroke"/><path style="isolation:auto;mix-blend-mode:normal;marker:none" d="M23.338 8.306a15.369 15.369 0 0 1 .628.013l-.63 15.356z" color="#000" display="block" overflow="visible" fill-opacity=".198" stroke-width="10.698" stroke-miterlimit="4.6" paint-order="fill markers stroke"/><path style="isolation:auto;mix-blend-mode:normal;marker:none" d="M23.906 8.36a15.334 15.334 0 0 1 9.652 3.929L23.296 23.683z" color="#000" display="block" overflow="visible" fill="url(#z)" stroke-width="10.674" stroke-miterlimit="4.6" paint-order="fill markers stroke"/><path style="isolation:auto;mix-blend-mode:normal;marker:none" d="M37.566 10.878a19.203 19.203 0 0 1 4.862 13.87l-19.173-1.066z" color="#000" display="block" overflow="visible" fill="none" stroke="url(#A)" stroke-width=".265" stroke-miterlimit="4.6" paint-order="fill markers stroke"/><path style="isolation:auto;mix-blend-mode:normal;marker:none" d="M47.962 25.094a24.781 24.781 0 0 1-.228 2.244l-24.515-3.622z" color="#000" display="block" overflow="visible" fill="#141414" fill-opacity=".463" stroke-width="15.1" stroke-miterlimit="4.6" paint-order="fill markers stroke"/><path style="isolation:auto;mix-blend-mode:normal;marker:none" d="M27.375 23.768a4.143 4.143 0 0 1-4.143 4.142 4.143 4.143 0 0 1-4.142-4.142 4.143 4.143 0 0 1 4.142-4.143 4.143 4.143 0 0 1 4.143 4.143z" color="#000" display="block" overflow="visible" fill="#37313e" stroke-width=".086" stroke-miterlimit="4.6" stroke-opacity=".344" paint-order="fill markers stroke"/><path style="isolation:auto;mix-blend-mode:normal;marker:none" d="M26.111 23.768a2.879 2.879 0 0 1-2.879 2.878 2.879 2.879 0 0 1-2.878-2.878 2.879 2.879 0 0 1 2.878-2.88 2.879 2.879 0 0 1 2.88 2.88z" color="#000" display="block" overflow="visible" fill-opacity=".198" stroke-width=".06" stroke-miterlimit="4.6" stroke-opacity=".344" paint-order="fill markers stroke"/><path style="isolation:auto;mix-blend-mode:normal;marker:none" d="M25.229 23.768a1.996 1.996 0 0 1-1.997 1.996 1.996 1.996 0 0 1-1.996-1.996 1.996 1.996 0 0 1 1.996-1.997 1.996 1.996 0 0 1 1.997 1.997z" color="#000" display="block" overflow="visible" fill="#fff" fill-opacity=".943" stroke-width=".041" stroke-miterlimit="4.6" stroke-opacity=".344" paint-order="fill markers stroke"/><path style="isolation:auto;mix-blend-mode:normal;marker:none" d="M27.187 23.768a3.954 3.954 0 0 1-3.955 3.954 3.954 3.954 0 0 1-3.954-3.954 3.954 3.954 0 0 1 3.954-3.955 3.954 3.954 0 0 1 3.955 3.955z" color="#000" display="block" overflow="visible" fill="none" stroke="#000" stroke-width=".335" stroke-miterlimit="4.6" stroke-opacity=".526" paint-order="fill markers stroke"/><path style="isolation:auto;mix-blend-mode:normal;marker:none" d="M7.738 21.589A15.743 15.743 0 0 1 17.24 9.156l6.103 14.512z" color="#000" display="block" overflow="visible" fill="none" stroke="url(#B)" stroke-width=".262" stroke-miterlimit="4.6" paint-order="fill markers stroke"/><path style="isolation:auto;mix-blend-mode:normal;marker:none" d="M30.46 32.028h14.456v9.293H30.46z" color="#000" display="block" overflow="visible" fill-opacity=".427" stroke-width="2.972" stroke-miterlimit="4.6" paint-order="fill markers stroke"/><path style="isolation:auto;mix-blend-mode:normal;marker:none" d="M29.944 31.512H44.4v9.293H29.944z" color="#000" display="block" overflow="visible" fill="url(#C)" stroke-width="2.972" stroke-miterlimit="4.6" paint-order="fill markers stroke"/><path style="line-height:normal;font-variant-ligatures:normal;font-variant-position:normal;font-variant-caps:normal;font-variant-numeric:normal;font-variant-alternates:normal;font-feature-settings:normal;text-indent:0;text-align:start;text-decoration-line:none;text-decoration-style:solid;text-decoration-color:#000;text-transform:none;text-orientation:mixed;shape-padding:0;isolation:auto;mix-blend-mode:normal;marker:none" d="M29.944 31.512V40.805H44.4v-9.293zm.516.516h13.424v8.228l-13.424.032z" color="#000" font-weight="400" font-family="sans-serif" white-space="normal" display="block" overflow="visible" fill="url(#D)" stroke-width=".267" stroke-miterlimit="4.6" paint-order="fill markers stroke"/><path d="M44.784 23.768a21.551 21.551 0 0 1-21.552 21.55 21.551 21.551 0 0 1-21.55-21.55 21.551 21.551 0 0 1 21.55-21.552 21.551 21.551 0 0 1 21.552 21.552z" style="isolation:auto;mix-blend-mode:normal;marker:none" color="#000" display="block" overflow="visible" fill="none" stroke="url(#E)" stroke-width=".257" stroke-miterlimit="4.6" paint-order="fill markers stroke"/><path style="isolation:auto;mix-blend-mode:normal;marker:none" d="M45.844 23.768a22.611 22.611 0 0 1-22.612 22.61 22.611 22.611 0 0 1-22.61-22.61 22.611 22.611 0 0 1 22.61-22.612 22.611 22.611 0 0 1 22.612 22.612z" color="#000" display="block" overflow="visible" fill="none" stroke="url(#F)" stroke-width=".269" stroke-miterlimit="4.6" paint-order="fill markers stroke"/><path d="M39.192 37.115q-.35 0-.553.299-.197.298-.197.83 0 .525.197.828.202.298.553.298.343 0 .54-.298.202-.303.202-.827 0-.529-.201-.827-.198-.303-.541-.303zm0-.512q.637 0 1.012.444.376.444.376 1.198t-.38 1.198q-.375.44-1.008.44-.645 0-1.02-.44-.376-.444-.376-1.198 0-.759.376-1.198.379-.444 1.02-.444zm-4.162-2.456q-.347 0-.549.302-.198.299-.198.823 0 .533.198.831.198.298.549.298.35 0 .548-.298.202-.298.202-.83 0-.521-.202-.824-.202-.302-.548-.302zm3.642-.512h.645l-3.767 6.247h-.645zm-3.642 0q.637 0 1.016.443.38.44.38 1.194 0 .762-.38 1.202-.375.44-1.016.44-.642 0-1.017-.44-.37-.444-.37-1.202 0-.75.374-1.194.375-.443 1.013-.443z" style="line-height:1000%" font-size="16" font-family="sans-serif" letter-spacing="0" word-spacing="0" fill-opacity=".396"/><path d="M39.192 36.6q-.35 0-.553.298-.197.298-.197.83 0 .525.197.827.202.299.553.299.343 0 .54-.299.202-.302.202-.827 0-.528-.201-.826-.198-.303-.541-.303zm0-.513q.637 0 1.012.444.376.443.376 1.197 0 .755-.38 1.198-.375.44-1.008.44-.645 0-1.02-.44-.376-.443-.376-1.198 0-.758.376-1.197.379-.444 1.02-.444zM35.03 33.63q-.347 0-.549.302-.198.299-.198.823 0 .532.198.83.198.3.549.3.35 0 .548-.3.202-.298.202-.83 0-.52-.202-.823-.202-.302-.548-.302zm3.642-.513h.645l-3.767 6.248h-.645zm-3.642 0q.637 0 1.016.444.38.44.38 1.194 0 .762-.38 1.202-.375.44-1.016.44-.642 0-1.017-.44-.37-.444-.37-1.202 0-.75.374-1.194.375-.444 1.013-.444z" style="line-height:1000%" font-size="16" font-family="sans-serif" letter-spacing="0" word-spacing="0" fill="#fff"/></g></svg>