<svg xmlns:osb="http://www.openswatchbook.org/uri/2009/osb" xmlns="http://www.w3.org/2000/svg" xmlns:xlink="http://www.w3.org/1999/xlink" height="48" viewBox="0 0 48 48" width="48"><title>Template icons dark</title><defs><linearGradient id="e"><stop offset="0" stop-color="#a2f2e6"/><stop offset="1" stop-color="#77d6f5"/></linearGradient><linearGradient id="d"><stop offset="0" stop-color="#2384a9"/><stop offset="1" stop-color="#25ada9" stop-opacity=".953"/></linearGradient><linearGradient id="c" osb:paint="solid"><stop offset="0" stop-opacity=".134"/></linearGradient><linearGradient id="b" osb:paint="solid"><stop offset="0" stop-color="#fff" stop-opacity=".028"/></linearGradient><linearGradient id="a"><stop offset="0" stop-opacity=".036"/><stop offset="1" stop-color="#afe4ff" stop-opacity=".042"/></linearGradient><linearGradient xlink:href="#e" id="g" x1="142" y1="130" x2="187" y2="140" gradientUnits="userSpaceOnUse" gradientTransform="translate(-61.817 -55.82) scale(.54546)"/><linearGradient xlink:href="#c" id="r" gradientUnits="userSpaceOnUse" x1="124" y1="154.5" x2="196" y2="154.5"/><linearGradient xlink:href="#b" id="q" gradientUnits="userSpaceOnUse" x1="124" y1="155.5" x2="196" y2="155.5"/><linearGradient gradientTransform="translate(-63.274 -63.274) scale(.54546)" xlink:href="#d" id="f" x1="191.627" y1="198" x2="186" y2="177" gradientUnits="userSpaceOnUse"/><linearGradient xlink:href="#c" id="h" gradientUnits="userSpaceOnUse" gradientTransform="translate(0 -1)" x1="124" y1="154.5" x2="196" y2="154.5"/><linearGradient xlink:href="#c" id="i" gradientUnits="userSpaceOnUse" x1="124" y1="154.5" x2="196" y2="154.5"/><linearGradient xlink:href="#b" id="j" gradientUnits="userSpaceOnUse" x1="124" y1="155.5" x2="196" y2="155.5"/><linearGradient xlink:href="#c" id="k" gradientUnits="userSpaceOnUse" x1="124" y1="154.5" x2="196" y2="154.5"/><linearGradient xlink:href="#b" id="l" gradientUnits="userSpaceOnUse" x1="124" y1="155.5" x2="196" y2="155.5"/><linearGradient xlink:href="#c" id="m" gradientUnits="userSpaceOnUse" x1="124" y1="154.5" x2="196" y2="154.5"/><linearGradient xlink:href="#b" id="n" gradientUnits="userSpaceOnUse" x1="124" y1="155.5" x2="196" y2="155.5"/><linearGradient xlink:href="#b" id="o" gradientUnits="userSpaceOnUse" gradientTransform="translate(0 -1)" x1="124" y1="155.5" x2="196" y2="155.5"/><linearGradient xlink:href="#c" id="p" gradientUnits="userSpaceOnUse" gradientTransform="translate(0 -1)" x1="124" y1="154.5" x2="196" y2="154.5"/><linearGradient xlink:href="#b" id="s" gradientUnits="userSpaceOnUse" gradientTransform="translate(0 -14)" x1="124" y1="155.5" x2="196" y2="155.5"/></defs><path style="isolation:auto;mix-blend-mode:normal;marker:none" d="M7.636 0H41c2.417 0 4 1.583 4 4v39c0 2.417-1.575 5-3.992 5H7c-2.417 0-4-1.583-4-4V5c0-2.417 2.219-5 4.636-5z" color="#000" display="block" overflow="visible" fill-opacity=".104" stroke-width="1.204" stroke-miterlimit="0" paint-order="fill markers stroke"/><path style="isolation:auto;mix-blend-mode:normal;marker:none" d="M9 1h30c2.417 0 5 2.583 5 5v36c0 2.417-2.583 5-5 5H9c-2.417 0-5-2.583-5-5V6c0-2.417 2.583-5 5-5z" color="#000" display="block" overflow="visible" fill="#31353f" stroke-width="1.204" stroke-miterlimit="0" paint-order="fill markers stroke"/><path style="isolation:auto;mix-blend-mode:normal;marker:none" d="M4 18h40v24c0 2.417-2.583 5-5 5H9c-2.417 0-5-2.583-5-5z" color="#000" overflow="visible" fill="#333842" stroke-width="1.395" stroke-miterlimit="0" paint-order="fill markers stroke"/><path style="isolation:auto;mix-blend-mode:normal;marker:none" d="M35 33v14.016L39 47c2.417-.01 5-2.583 5-5v-9z" color="#000" display="block" overflow="visible" fill="url(#f)" stroke-width="1.395" stroke-miterlimit="0" paint-order="fill markers stroke"/><path style="isolation:auto;mix-blend-mode:normal;marker:none" d="M9 1h30c2.405 0 5.065 2.596 5 5v12H4V6.205C4 3.515 6.595 1 9 1z" color="#000" display="block" overflow="visible" fill-opacity=".198" stroke-width="1.204" stroke-miterlimit="0" paint-order="fill markers stroke"/><path style="line-height:1.25;-inkscape-font-specification:'Liberation Sans';text-align:center" d="M29 20v2h1v1h-1v1h2v-4zm-11 0v1l.525.568L18 22v1h2v-1l-.51-.386L20 21v-1zM8 20v1h1l-1 3h1l2-4zm21 7v4h2v-2h-1v-1h1v-1zM9 27l-1 1v2h1v1h1v-4zm9 0v2.339l1 .047V30h-1v1h2v-2.39l-1 .016V28h1v-1zm13 7h-2v1h1l-1 1 1 1h-1v1h2zm-12.355 1.44V35h.914l-.046.532L18 37v1h2v-1h-1l1-1v-2h-2v1.486s.28-.041.645-.047zM9 34H8v1h1v3h1v-4zm9 8h1v-1h-1zm3-1l-3 3h1l3-3zM8 44h2v-3H8zm22-2v1h1v-1zm-9 2h1v-1h-1z" font-weight="400" font-size="2.853" font-family="Liberation Sans" letter-spacing="0" word-spacing="0" text-anchor="middle" fill="#95d3e7" fill-opacity=".698" stroke-width="1.334"/><path style="line-height:1.25;-inkscape-font-specification:'Liberation Sans';text-align:center" d="M39 21v1h-1v1h1v1h1v-1h1l.008-1H40v-1zm-1 8v1h3.008v-1z" font-weight="400" font-size="2.853" font-family="Liberation Sans" letter-spacing="0" word-spacing="0" text-anchor="middle" fill="#95e7c8" fill-opacity=".698" stroke-width="1.334"/><path d="M38 38v1h3.008L41 38zm0 2v1l3 .016.008-1.016z" style="line-height:1.25;-inkscape-font-specification:'Liberation Sans';text-align:center" font-weight="400" font-size="2.853" font-family="Liberation Sans" letter-spacing="0" word-spacing="0" text-anchor="middle" fill="#ecf8fd" fill-opacity=".849" stroke-width="1.334"/><path style="line-height:normal;font-variant-ligatures:normal;font-variant-position:normal;font-variant-caps:normal;font-variant-numeric:normal;font-variant-alternates:normal;font-feature-settings:normal;text-indent:0;text-align:start;text-decoration-line:none;text-decoration-style:solid;text-decoration-color:#000;text-transform:none;text-orientation:mixed;shape-padding:0;isolation:auto;mix-blend-mode:normal;marker:none" d="M9 1C6.592 1 4 3.625 4 6v36c0 2.408 2.592 5 5 5h30c2.408 0 5-2.592 5-5V6c0-2.408-2.592-5-5-5zm0 1h30c1.823 0 4 2.177 4 4v36c0 1.823-2.177 4-4 4H9c-1.823 0-4-2.177-4-4V6c0-1.823 2.177-4 4-4z" color="#000" font-weight="400" font-family="sans-serif" white-space="normal" display="block" overflow="visible" fill="#f6f6f6" fill-opacity=".089" stroke-width="1.091" stroke-miterlimit="0" paint-order="fill markers stroke"/><path d="M9 1h30c2.405 0 5 2.595 5 5v1C29.431 8.406 8.748-1.052 4 20V6c0-2.35 2.552-5 5-5z" style="isolation:auto;mix-blend-mode:normal;marker:none" color="#000" overflow="visible" fill="#fff" fill-opacity=".031" stroke-width="1.204" stroke-miterlimit="0" paint-order="fill markers stroke"/><path style="line-height:1.25;-inkscape-font-specification:'Liberation Sans';text-align:center" d="M16 7v1h3l-2 2 2 2h-3v1h4v-2l-1-1 1-2V7zm9 0l-1 .66V8h1v4.5h-1v.5h3v-.5h-1V7zm5 0l-2 3v1h2v2h1V7zm4 0l-1 .66V8h1v4.5h-1v.5h3v-.5h-1V7zm3 0v3h2v2h-2v1h3V9h-2V8h2V7zm-7 1v2.008L29 10zm-9 4v1h1v-1z" font-weight="400" font-size="2.853" font-family="Liberation Sans" letter-spacing="0" word-spacing="0" text-anchor="middle" fill="url(#g)" stroke-width=".545"/><g stroke-width="1.882"><path d="M4 18v1h40v-1z" style="marker:none" fill="#d7fde9" fill-opacity=".078" paint-order="fill markers stroke"/><path d="M123.334 162v1.833h73.332V162z" fill="url(#h)" transform="translate(-63.274 -64.365) scale(.54546)"/><path d="M139.834 152.833l-.03 51.333h1.863v-51.333z" fill="url(#i)" transform="translate(-63.274 -64.365) scale(.54546)"/><path d="M141.667 152.833v51.333h1.833v-51.333z" fill="url(#j)" transform="translate(-63.274 -64.365) scale(.54546)"/><path d="M160 152.833v51.333h1.833v-51.333z" fill="url(#k)" transform="translate(-63.274 -64.365) scale(.54546)"/><path d="M161.833 152.833v51.333h1.834v-51.333z" fill="url(#l)" transform="translate(-63.274 -64.365) scale(.54546)"/><path d="M178.333 152.833v51.333l1.833.03v-51.363z" fill="url(#m)" transform="translate(-63.274 -64.365) scale(.54546)"/><path d="M180.166 152.833v51.362l1.834-.029v-51.333z" fill="url(#n)" transform="translate(-63.274 -64.365) scale(.54546)"/><path d="M123.334 176.667v1.833h73.332v-1.834z" fill="url(#o)" transform="translate(-63.274 -64.365) scale(.54546)"/><path d="M123.334 174.833v1.834h73.332v-1.834z" fill="url(#p)" transform="translate(-63.274 -64.365) scale(.54546)"/><path d="M123.334 189.5v1.833h55V189.5z" fill="url(#q)" transform="translate(-63.274 -64.365) scale(.54546)"/><path d="M123.305 187.666l.029 1.834h55v-1.834z" fill="url(#r)" transform="translate(-63.274 -64.365) scale(.54546)"/><path d="M123.334 163.833v1.834h73.332v-1.834z" fill="url(#s)" transform="translate(-63.274 -64.365) scale(.54546)"/></g></svg>