<svg xmlns="http://www.w3.org/2000/svg" xmlns:xlink="http://www.w3.org/1999/xlink" height="48" viewBox="0 0 48 48" width="48"><title>Template icons dark</title><defs><linearGradient id="k"><stop offset="0" stop-color="#3d353d"/><stop offset="1" stop-color="#3b464e"/></linearGradient><linearGradient id="j"><stop offset="0" stop-color="#6a618d"/><stop offset="1" stop-color="#5f81b6"/></linearGradient><linearGradient id="i"><stop offset="0" stop-color="#6e6492"/><stop offset="1" stop-color="#6688ba"/></linearGradient><linearGradient id="h"><stop offset="0" stop-color="#fff" stop-opacity=".368"/><stop offset="1" stop-color="#fff" stop-opacity=".289"/></linearGradient><linearGradient id="g"><stop offset="0" stop-color="#dedede"/><stop offset="1" stop-color="#cfcfcf"/></linearGradient><linearGradient id="e"><stop offset="0" stop-color="#093adc" stop-opacity=".325"/><stop offset=".514" stop-color="#621fed" stop-opacity=".099"/><stop offset="1" stop-color="#b707ff" stop-opacity=".45"/></linearGradient><linearGradient id="f"><stop offset="0" stop-color="#093adc" stop-opacity=".55"/><stop offset=".511" stop-color="#611fed" stop-opacity=".183"/><stop offset="1" stop-color="#b707ff" stop-opacity=".33"/></linearGradient><linearGradient id="d"><stop offset="0" stop-color="#fff" stop-opacity=".322"/><stop offset="1" stop-color="#fff" stop-opacity=".217"/></linearGradient><linearGradient id="a"><stop offset="0" stop-color="#9081c4"/><stop offset="1" stop-color="#8baddf"/></linearGradient><linearGradient xlink:href="#b" id="r" x1="212.945" y1="123.216" x2="297.975" y2="196.698" gradientUnits="userSpaceOnUse" gradientTransform="matrix(.48562 0 0 .46557 -100.703 -50.576)"/><linearGradient id="b"><stop offset="0" stop-color="#9751de"/><stop offset="1" stop-color="#3c87f8"/></linearGradient><linearGradient xlink:href="#c" id="s" gradientUnits="userSpaceOnUse" gradientTransform="matrix(.48562 0 0 .46557 -100.703 -50.576)" x1="295.139" y1="128.574" x2="216.105" y2="194.162"/><linearGradient id="c"><stop offset="0" stop-color="#eaf03f" stop-opacity=".422"/><stop offset="1" stop-color="#4e79e6" stop-opacity=".416"/></linearGradient><linearGradient x1=".297" y1="-.219" x2=".827" y2=".252" gradientUnits="userSpaceOnUse" gradientTransform="scale(36.36815) rotate(18.09 -11.34 17.011)" id="l"><stop offset="0" stop-color="#cdc9c1"/><stop offset=".181" stop-color="#f4f3f1"/><stop offset=".492" stop-color="#b8b8b8"/><stop offset=".931" stop-color="#efeeeb"/><stop offset="1" stop-color="#fff"/></linearGradient><linearGradient x2="1" gradientUnits="userSpaceOnUse" gradientTransform="scale(-25.52501 25.52501) rotate(21.485 -18.377 -13.86)" id="m"><stop offset="0" stop-color="#888c8f"/><stop offset=".062" stop-color="#888c8f"/><stop offset=".677" stop-color="#fff"/><stop offset=".971" stop-color="#c5c7c6"/><stop offset="1" stop-color="#c5c7c6"/></linearGradient><linearGradient x1=".204" y1=".178" x2=".988" y2="-.108" gradientUnits="userSpaceOnUse" gradientTransform="scale(69.4056) rotate(-71.943 2.912 -.084)" id="n"><stop offset="0" stop-color="#a1a5a7"/><stop offset=".052" stop-color="#aeb1b3"/><stop offset=".178" stop-color="#d9dbdc"/><stop offset=".499" stop-color="#dcdfdf"/><stop offset=".677" stop-color="#fff"/><stop offset=".971" stop-color="#c5c7c6"/><stop offset="1" stop-color="#c5c7c6"/></linearGradient><linearGradient x1=".292" y1="-.05" x2=".949" y2="-.086" gradientUnits="userSpaceOnUse" gradientTransform="scale(36.36778 -36.36778) rotate(-68.481 -1.174 -5.63)" id="o"><stop offset="0" stop-color="#dcd9d4"/><stop offset=".019" stop-color="#dedcd7"/><stop offset=".402" stop-color="#c7d2d5"/><stop offset=".882" stop-color="#fbfbfa"/><stop offset="1" stop-color="#a7a093"/></linearGradient><linearGradient x2="1" gradientUnits="userSpaceOnUse" gradientTransform="scale(37.65896) rotate(-88.059 4.182 .033)" id="t"><stop offset="0" stop-color="#888c8f"/><stop offset=".062" stop-color="#888c8f"/><stop offset=".677" stop-color="#fff"/><stop offset=".971" stop-color="#c5c7c6"/><stop offset="1" stop-color="#c5c7c6"/></linearGradient><linearGradient x1="-.006" y1=".936" x2="1.249" y2="-.572" gradientUnits="userSpaceOnUse" gradientTransform="rotate(-88.059 163.826 7.503) scale(35.6457)" id="u"><stop offset="0" stop-color="#636869"/><stop offset=".119" stop-color="#a4a8aa"/><stop offset=".177" stop-color="#c6c9ca"/><stop offset=".265" stop-color="#b7babb"/><stop offset=".501" stop-color="#d8d8d8"/><stop offset=".642" stop-color="#cfd0d0"/><stop offset=".73" stop-color="#c9d9d9"/><stop offset=".84" stop-color="#cbcccc"/><stop offset=".971" stop-color="#dadbdb"/><stop offset="1" stop-color="#dbdddc"/></linearGradient><linearGradient xlink:href="#l" id="v" gradientUnits="userSpaceOnUse" gradientTransform="scale(36.36815) rotate(18.09 -11.34 17.011)" x1=".297" y1="-.219" x2=".827" y2=".252"/><linearGradient xlink:href="#m" id="w" gradientUnits="userSpaceOnUse" gradientTransform="scale(-25.52501 25.52501) rotate(21.485 -18.377 -13.86)" x2="1"/><linearGradient xlink:href="#n" id="x" gradientUnits="userSpaceOnUse" gradientTransform="scale(69.4056) rotate(-71.943 2.912 -.084)" x1=".204" y1=".178" x2=".988" y2="-.108"/><linearGradient xlink:href="#o" id="y" gradientUnits="userSpaceOnUse" gradientTransform="scale(36.36778 -36.36778) rotate(-68.481 -1.174 -5.63)" x1=".292" y1="-.05" x2=".949" y2="-.086"/><linearGradient x2="1" gradientUnits="userSpaceOnUse" gradientTransform="scale(37.65896) rotate(-88.059 4.182 .033)" id="p"><stop offset="0" stop-color="#888c8f"/><stop offset=".062" stop-color="#888c8f"/><stop offset=".677" stop-color="#fff"/><stop offset=".971" stop-color="#c5c7c6"/><stop offset="1" stop-color="#c5c7c6"/></linearGradient><linearGradient x1="-.006" y1=".936" x2="1.249" y2="-.572" gradientUnits="userSpaceOnUse" gradientTransform="rotate(-88.059 163.826 7.503) scale(35.6457)" id="q"><stop offset="0" stop-color="#636869"/><stop offset=".119" stop-color="#a4a8aa"/><stop offset=".177" stop-color="#c6c9ca"/><stop offset=".265" stop-color="#b7babb"/><stop offset=".501" stop-color="#d8d8d8"/><stop offset=".642" stop-color="#cfd0d0"/><stop offset=".73" stop-color="#c9d9d9"/><stop offset=".84" stop-color="#cbcccc"/><stop offset=".971" stop-color="#dadbdb"/><stop offset="1" stop-color="#dbdddc"/></linearGradient></defs><g><rect ry="0" y="6" x="2" height="36" width="44" style="isolation:auto;mix-blend-mode:normal;marker:none" color="#000" display="block" overflow="visible" fill-opacity=".078" stroke-width=".481" stroke-opacity=".344" paint-order="fill markers stroke"/><path style="isolation:auto;mix-blend-mode:normal;marker:none" color="#000" display="block" overflow="visible" fill="url(#r)" stroke-width=".475" stroke-opacity=".344" paint-order="fill markers stroke" d="M3 7h42v34H3z"/><path style="isolation:auto;mix-blend-mode:normal;marker:none" color="#000" display="block" overflow="visible" fill="url(#s)" stroke-width=".475" stroke-opacity=".344" paint-order="fill markers stroke" d="M3 7h42v34H3z"/><path style="isolation:auto;mix-blend-mode:normal;marker:none" color="#000" display="block" overflow="visible" fill="none" stroke="#000" stroke-linecap="square" stroke-dasharray="6,6" stroke-dashoffset="10" stroke-opacity=".192" paint-order="markers stroke fill" d="M5.5 10.5h37v29h-37z"/><path style="isolation:auto;mix-blend-mode:normal;marker:none" color="#000" display="block" overflow="visible" fill="none" stroke="#e5e6e7" stroke-linecap="square" stroke-dasharray="6,6" stroke-dashoffset="10" paint-order="markers stroke fill" d="M5.5 9.5h37v29h-37z"/><path d="M10.7 0l8.686 19.117L0 9.257l3.168 4.561s1.275 2.126 2.546 2.942c1.244.8 4.585 2.764 4.585 2.764l12.308 6.682.13.287s1.817 1.12 2.12 1.45c1.079 1.172 2.21 4.288 2.52 5.85.098.488-.017 1.904-.025 2.004a6.09 6.09 0 0 0-2.878 1.639c-2.389 2.425-2.344 6.337.095 8.738a6.195 6.195 0 0 0 4.102 1.778 6.129 6.129 0 0 0 5.143-1.777c2.386-2.424 2.341-6.337-.098-8.738a6.274 6.274 0 0 0-.367-.327l-3.36-6.895 6.086 3.304c.1.13.2.258.311.381 2.291 2.543 6.2 2.76 8.727.483a6.128 6.128 0 0 0 2-5.066 6.193 6.193 0 0 0-1.595-4.17c-2.291-2.542-6.197-2.759-8.725-.48a6.094 6.094 0 0 0-1.764 2.803c-.1.004-1.52.056-2.004-.062-1.547-.378-4.61-1.648-5.732-2.777-.015-.016-.04-.05-.058-.072l-6.73-13.818s-1.816-3.423-2.56-4.701c-.76-1.307-2.826-2.674-2.826-2.674zm30.495 25.008a4.79 4.79 0 0 1 3.302 1.584 4.78 4.78 0 0 1 1.212 2.789 4.728 4.728 0 0 1-1.562 3.447c-1.952 1.76-4.968 1.592-6.739-.373a4.81 4.81 0 0 1-.71-1.042l-.306-.745a4.789 4.789 0 0 1-.197-.991 4.729 4.729 0 0 1 5-4.668zM29.342 37.054c.055 0 .11.005.166.007.333.045.661.126.98.241l.732.337c.359.204.7.451 1.007.755 1.886 1.856 1.919 4.877.076 6.75a4.726 4.726 0 0 1-3.518 1.408 4.782 4.782 0 0 1-2.73-1.335c-1.884-1.855-1.917-4.876-.073-6.75a4.728 4.728 0 0 1 3.36-1.413z" fill="#1e1d1d" fill-opacity=".473" stroke-width=".103"/><path d="M178.47 163.07c-2.997-.57-8.982-2.694-11.242-4.743-.637-.575-2.81-4.04-2.81-4.04l-50.936-22.658 6.514 8.412s2.651 3.94 5.165 5.375c2.46 1.406 9.047 4.83 9.047 4.83l54.45 25.998-6.238-13.263s-2.98.273-3.95.09" fill="url(#t)" stroke-width=".098" transform="matrix(.49629 .0129 -.0129 .49629 -53.338 -57.03)"/><path d="M134.425 149.791c-.05-.026-6.59-3.428-9.013-4.813-2.385-1.362-4.972-5.18-4.997-5.219l-5.307-6.854 48.964 21.782c.445.702 2.2 3.456 2.817 4.014 2.281 2.068 8.326 4.262 11.485 4.865.84.16 2.887.018 3.74-.051l5.485 11.665-53.174-25.389" fill="url(#u)" stroke-width=".098" transform="matrix(.49629 .0129 -.0129 .49629 -53.338 -57.03)"/><path d="M43.872 31.56c-1.813 1.72-4.685 1.637-6.417-.188-1.732-1.824-1.667-4.697.146-6.418 1.814-1.722 4.685-1.637 6.417.187 1.732 1.825 1.668 4.697-.146 6.419zm-7.195-7.578c-2.346 2.227-2.43 5.948-.19 8.308 2.242 2.361 5.963 2.472 8.31.244 2.347-2.228 2.43-5.95.188-8.31-2.241-2.361-5.96-2.47-8.308-.242" fill="#6c6a6a" stroke-width=".098"/><path d="M200.289 172.333c-3.56 3.56-9.348 3.54-12.931-.042-3.583-3.583-3.602-9.37-.042-12.93 3.563-3.563 9.35-3.545 12.933.038 3.584 3.583 3.602 9.37.04 12.934zm-14.883-14.883c-4.608 4.608-4.584 12.104.052 16.74 4.637 4.637 12.136 4.664 16.744.056 4.61-4.61 4.581-12.107-.056-16.744-4.636-4.636-12.13-4.662-16.74-.052" fill="url(#v)" stroke="#7d7569" stroke-width=".21" transform="matrix(.49629 .0129 -.0129 .49629 -53.338 -57.03)"/><path d="M29.093 24.738l-2.094-1.212-6.492-4.609-1.645-.773 2.581 6.252 9.808 5.008z" fill-opacity=".253" fill-rule="evenodd" stroke-width="1.05"/><path d="M168.302 175.846c-.75-2.956-3.226-8.805-5.405-10.938-.614-.602-4.201-2.565-4.201-2.565l-25.663-49.49 8.787 6.002s4.09 2.41 5.675 4.834c1.55 2.371 5.362 8.74 5.362 8.74l29.205 52.8-13.612-5.433s.095-2.992-.148-3.95" fill="url(#w)" stroke-width=".098" transform="matrix(.49629 .0129 -.0129 .49629 -53.338 -57.03)"/><path d="M168.964 179.458c.018-.856.037-2.91-.173-3.737-.79-3.117-3.341-9.02-5.541-11.174-.595-.583-3.448-2.17-4.177-2.573l-24.668-47.573 7.13 4.87c.068.043 4.037 2.398 5.538 4.693 1.525 2.336 5.313 8.66 5.35 8.726l28.513 51.547-11.972-4.779" fill="url(#x)" stroke-width=".098" transform="matrix(.49629 .0129 -.0129 .49629 -53.338 -57.03)"/><path d="M26.946 43.305c-1.838-1.717-1.944-4.589-.237-6.416 1.707-1.826 4.58-1.913 6.417-.196 1.838 1.718 1.945 4.59.238 6.416-1.707 1.827-4.58 1.915-6.418.196zm-.91.973c2.38 2.224 6.099 2.112 8.31-.253 2.208-2.364 2.07-6.083-.31-8.306-2.378-2.223-6.097-2.109-8.306.255-2.21 2.365-2.072 6.082.307 8.304" fill="#6c6a6a" stroke-width=".098"/><path d="M165.94 197.807c-3.791-3.363-4.155-9.141-.812-12.908 3.34-3.765 9.12-4.094 12.91-.732 3.792 3.364 4.154 9.14.815 12.906-3.342 3.77-9.122 4.096-12.912.734zm-1.78 2.007c4.907 4.352 12.39 3.934 16.717-.946 4.324-4.877 3.85-12.358-1.057-16.71-4.906-4.351-12.387-3.927-16.712.948-4.329 4.878-3.853 12.357 1.053 16.708" fill="url(#y)" stroke="#7d7569" stroke-width=".21" transform="matrix(.49629 .0129 -.0129 .49629 -53.338 -57.03)"/><path d="M26.082 23.334a1.202 1.202 0 1 1-2.378.355 1.202 1.202 0 0 1 2.378-.355" fill="#9e9e9e" stroke="#000" stroke-width=".21297705" stroke-opacity=".577"/><path d="M25.209 24.279l-.246-1.64h-.001l-.333.046.246 1.648.334-.054" fill="#373636" stroke-width=".097"/></g></svg>