<svg xmlns="http://www.w3.org/2000/svg" xmlns:xlink="http://www.w3.org/1999/xlink" height="48" viewBox="0 0 48 48" width="48"><title>Template icons dark</title><defs><linearGradient id="f"><stop offset="0" stop-color="#647780"/><stop offset="1" stop-color="#fff"/></linearGradient><linearGradient id="e"><stop offset="0" stop-opacity=".135"/><stop offset="1" stop-opacity="0"/></linearGradient><linearGradient id="d"><stop offset="0" stop-color="#391f3c" stop-opacity=".059"/><stop offset="1" stop-color="#391f3c" stop-opacity="0"/></linearGradient><linearGradient id="c"><stop offset="0" stop-color="#d8d8d8"/><stop offset="1" stop-color="#fff" stop-opacity=".995"/></linearGradient><linearGradient id="a"><stop offset="0" stop-color="#626262"/><stop offset="1" stop-color="#626262" stop-opacity="0"/></linearGradient><linearGradient id="b"><stop offset="0" stop-color="#69c2b7"/><stop offset="1" stop-color="#64a5b5"/></linearGradient><linearGradient gradientTransform="matrix(.53333 0 0 .53333 -61.352 -61.866)" xlink:href="#d" id="h" x1="160.063" y1="136" x2="160.063" y2="118.488" gradientUnits="userSpaceOnUse"/><linearGradient gradientTransform="matrix(.53333 0 0 .53333 -61.352 -61.866)" xlink:href="#c" id="g" x1="196" y1="196" x2="160" y2="160" gradientUnits="userSpaceOnUse"/><linearGradient xlink:href="#f" id="i" gradientUnits="userSpaceOnUse" x1="174" y1="144.177" x2="174" y2="189.118"/><linearGradient xlink:href="#b" id="j" gradientUnits="userSpaceOnUse" gradientTransform="translate(-20.706 -15.965) scale(1.12927)" x1="164" y1="143.615" x2="164" y2="180"/></defs><path style="isolation:auto;mix-blend-mode:normal;marker:none" d="M5 1h38c2 0 4 2 4 4v38c0 2-1.976 4-4 4H5c-2 0-4-2-4-4V5c0-2 2-4 4-4z" color="#000" overflow="visible" fill-opacity=".172" stroke-width=".32" stroke-opacity=".583"/><path d="M46 39.067V42c0 1.773-1.227 4-3 4H5c-1.773 0-3-2.227-3-4v-3z" style="isolation:auto;mix-blend-mode:normal;marker:none" color="#000" display="block" overflow="visible" fill="#696969" stroke-width=".305" stroke-opacity=".583"/><path style="isolation:auto;mix-blend-mode:normal;marker:none" d="M46 38v4c0 1.773-1.227 3-3 3H5c-1.773 0-3-1.227-3-3v-4z" color="#000" display="block" overflow="visible" fill="#a5a5a5" stroke-width=".305" stroke-opacity=".583"/><path style="isolation:auto;mix-blend-mode:normal;marker:none" d="M5 2h38c1.773 0 3 1.227 3 3v35c0 1.773-1.227 4-3 4H5c-1.773 0-3-1.56-3-3.333V5c0-1.773 1.227-3 3-3z" color="#000" display="block" overflow="visible" fill="url(#g)" stroke-width=".305" stroke-opacity=".583"/><path style="isolation:auto;mix-blend-mode:normal;marker:none" d="M5 2C3.227 2 2.13 3.232 2 5v6h44V5c0-1.773-1.227-3-3-3zm12.581 2.267a2.133 2.133 0 1 1 0 4.266 2.133 2.133 0 0 1 0-4.266zm12.8 0a2.133 2.133 0 1 1 0 4.266 2.133 2.133 0 0 1 0-4.266z" color="#000" display="block" overflow="visible" fill="url(#h)" stroke-width=".305" stroke-opacity=".583"/><path style="line-height:1000%" d="M37.27 39.087v1.79h.498c.345 0 .6-.073.763-.217.163-.145.245-.372.245-.68 0-.307-.082-.533-.244-.676-.162-.145-.417-.217-.764-.217zm.242.199h.293c.247 0 .427.056.542.168.115.11.173.286.173.526 0 .241-.058.418-.173.53-.115.112-.295.167-.542.167h-.293zm2.11.215c-.072 0-.146.008-.222.024a1.431 1.431 0 0 0-.235.07v.203a.883.883 0 0 1 .435-.11c.12 0 .214.028.28.084a.288.288 0 0 1 .101.236v.022h-.31c-.2 0-.352.037-.453.114-.101.077-.151.19-.151.342 0 .13.04.233.121.31.082.077.191.116.329.116.108 0 .2-.02.276-.057.075-.04.138-.1.188-.182v.204h.22v-.766c0-.205-.048-.358-.144-.459-.096-.1-.241-.15-.435-.15zm.877.033l.544 1.322-.04.1a.546.546 0 0 1-.111.204.211.211 0 0 1-.142.043h-.13v.185h.177c.099 0 .178-.024.237-.073.06-.049.12-.154.183-.314l.59-1.467h-.234l-.42 1.05-.42-1.05zm-.738.667h.22v.05a.514.514 0 0 1-.111.346.367.367 0 0 1-.294.13.31.31 0 0 1-.212-.068.241.241 0 0 1-.077-.188c0-.098.035-.167.103-.208.07-.041.193-.062.371-.062z" font-family="sans-serif" letter-spacing="0" word-spacing="0" fill="#3ca0a0" fill-opacity=".568" stroke-width=".288"/><path style="line-height:1000%" d="M24.995 12.044v2.195h.26v-2.195zm-2.674.09v1.958c0 .182-.027.308-.078.379-.052.07-.14.106-.266.106h-.09v.24h.11c.213 0 .367-.057.463-.172.097-.115.145-.3.145-.553v-1.959zm.813.525v.957c0 .217.048.382.142.494.094.113.231.17.412.17.11 0 .207-.023.29-.07a.644.644 0 0 0 .22-.214v.243h.26v-1.58h-.26v.895a.521.521 0 0 1-.123.366.424.424 0 0 1-.331.134c-.117 0-.205-.037-.263-.111-.058-.075-.087-.188-.087-.338v-.946zm2.475 0l.639 1.555-.046.117c-.048.126-.092.207-.131.24a.248.248 0 0 1-.167.05h-.152v.219h.207c.117 0 .21-.03.28-.087.07-.057.14-.18.214-.368l.694-1.726h-.275l-.494 1.236-.494-1.236z" font-family="sans-serif" letter-spacing="0" word-spacing="0" fill-opacity=".516" stroke-width=".181"/><path style="isolation:auto;mix-blend-mode:normal;marker:none" d="M2 39v1c0 2.452 1 4 3 4h38c1.47 0 3-1.78 3-4v-.933C46 40.785 44.641 43 43 43H5c-.551 0-2.88-2.194-3-4z" color="#000" display="block" overflow="visible" fill="#fff" fill-opacity=".37" stroke-width=".296" stroke-opacity=".583"/><g color="#000" stroke-width="1.2" stroke-opacity=".583"><path d="M17.581 4.267A2.133 2.133 0 0 0 15.448 6.4a2.133 2.133 0 0 0 2.133 2.133A2.133 2.133 0 0 0 19.715 6.4a2.133 2.133 0 0 0-2.134-2.133zm12.8 0A2.133 2.133 0 0 0 28.248 6.4a2.133 2.133 0 0 0 2.133 2.133A2.133 2.133 0 0 0 32.514 6.4a2.133 2.133 0 0 0-2.133-2.133z" style="isolation:auto;mix-blend-mode:normal;marker:none" display="block" overflow="visible" fill="#fff" fill-opacity=".927"/><path d="M17.581 4.267A2.133 2.133 0 0 0 15.448 6.4a2.133 2.133 0 0 0 .019.27A2.133 2.133 0 0 1 17.58 4.8a2.133 2.133 0 0 1 2.115 1.864 2.133 2.133 0 0 0 .019-.264 2.133 2.133 0 0 0-2.134-2.133zm12.8 0A2.133 2.133 0 0 0 28.248 6.4a2.133 2.133 0 0 0 .019.27A2.133 2.133 0 0 1 30.38 4.8a2.133 2.133 0 0 1 2.115 1.864 2.133 2.133 0 0 0 .018-.264 2.133 2.133 0 0 0-2.133-2.133z" style="isolation:auto;mix-blend-mode:normal;marker:none" display="block" overflow="visible" fill-opacity=".401"/><path style="isolation:auto;mix-blend-mode:normal;marker:none" d="M17.581 8.526a2.133 2.133 0 0 1-2.133-2.133 2.133 2.133 0 0 1 .019-.27 2.133 2.133 0 0 0 2.114 1.87 2.133 2.133 0 0 0 2.115-1.864 2.133 2.133 0 0 1 .019.264 2.133 2.133 0 0 1-2.134 2.133zm12.8 0a2.133 2.133 0 0 1-2.133-2.133 2.133 2.133 0 0 1 .019-.27 2.133 2.133 0 0 0 2.114 1.87 2.133 2.133 0 0 0 2.115-1.864 2.133 2.133 0 0 1 .018.264 2.133 2.133 0 0 1-2.133 2.133z" display="block" overflow="visible" fill="#e6e6e6" fill-opacity=".292"/></g><g font-weight="400" font-family="Roboto" letter-spacing="0" word-spacing="0"><path style="line-height:1000%;-inkscape-font-specification:Roboto;font-variant-ligatures:normal;font-variant-position:normal;font-variant-caps:normal;font-variant-numeric:normal;font-variant-alternates:normal;font-feature-settings:normal;text-indent:0;text-align:start;text-decoration-line:none;text-decoration-style:solid;text-decoration-color:#000;text-transform:none;text-orientation:mixed;shape-padding:0;isolation:auto;mix-blend-mode:normal" d="M144.04 144.346c-3.934 0-7.399 1.212-10.067 3.629-2.646 2.394-4.055 5.615-4.055 9.224v1.766h8.633v-1.766c0-1.708.46-2.804 1.414-3.717.97-.93 2.206-1.414 4.074-1.414 2.05 0 3.269.487 4.025 1.246.757.76 1.245 1.989 1.245 4.05 0 1.708-.473 2.777-1.48 3.677-1.006.898-2.42 1.423-4.534 1.455h-5.57v7.695h5.588c2.425.036 4.031.603 5.056 1.497 1.024.892 1.545 2.072 1.545 4.046 0 2.091-.517 3.388-1.43 4.287-.91.897-2.258 1.422-4.416 1.422-1.994 0-3.333-.502-4.35-1.437-1.019-.938-1.5-2.045-1.5-3.776v-1.765h-8.66v1.765c0 3.761 1.426 7.064 4.141 9.418l.002.002.002.002c2.723 2.343 6.277 3.489 10.365 3.489 4.1 0 7.662-1.196 10.364-3.623 2.725-2.448 4.117-5.904 4.117-9.893 0-2.637-.712-5.037-2.166-6.98l-.002-.002c-.76-1.027-1.717-1.872-2.8-2.58a11.62 11.62 0 0 0 2.339-2.512c1.305-1.877 2.021-3.949 2.021-6.076 0-3.923-1.253-7.288-3.787-9.649-2.53-2.357-6.016-3.48-10.115-3.48zm32.3 0c-4.746 0-8.652 1.692-11.037 5.045-2.373 3.334-3.389 8.073-3.389 14.18v6.824l.002.011c.076 5.856 1.153 10.465 3.531 13.756l.002.002.002.002c2.403 3.303 6.272 4.975 10.946 4.975 4.733 0 8.636-1.72 11.015-5.108 2.369-3.371 3.383-8.162 3.383-14.34v-6.637c-.057-5.976-1.104-10.6-3.488-13.826l-.002-.002c-2.394-3.254-6.267-4.883-10.965-4.883zm0 7.722c2.186 0 3.342.632 4.26 2.133l.002.004.002.004c.91 1.476 1.556 4.35 1.556 8.506v8.336c-.053 4.024-.723 6.817-1.656 8.293l-.004.006-.002.004c-.924 1.483-2.037 2.09-4.102 2.09-2.079 0-3.238-.64-4.228-2.242-.968-1.615-1.621-4.544-1.621-8.707v-8.149c.035-3.912.673-6.662 1.592-8.174.899-1.48 2.033-2.103 4.2-2.103z" color="#000" white-space="normal" overflow="visible" fill="none" stroke="url(#i)" stroke-width=".6" stroke-opacity=".448" transform="translate(-58.824 -59.546) scale(.51691)"/><path d="M144.04 145.982c-3.586 0-6.547 1.057-8.883 3.171-2.317 2.097-3.473 4.735-3.473 7.916h5.101c0-2.078.653-3.74 1.959-4.991 1.324-1.269 3.089-1.903 5.295-1.903 4.69 0 7.034 2.352 7.034 7.06 0 2.096-.69 3.761-2.069 4.993-1.379 1.232-3.272 1.867-5.681 1.904h-3.834v4.164h3.834c2.703.037 4.772.682 6.206 1.932 1.435 1.25 2.15 3.042 2.15 5.377 0 2.41-.65 4.258-1.956 5.545-1.305 1.287-3.19 1.93-5.655 1.93-2.317 0-4.166-.635-5.545-1.903-1.379-1.27-2.069-2.96-2.069-5.075h-5.13c0 3.346 1.177 6.042 3.531 8.083 2.372 2.041 5.443 3.061 9.213 3.061 3.77 0 6.83-1.056 9.184-3.171 2.354-2.115 3.531-4.976 3.531-8.58 0-2.335-.606-4.313-1.82-5.93-1.194-1.62-2.896-2.776-5.103-3.475 1.95-.809 3.486-2.033 4.608-3.67 1.14-1.637 1.709-3.328 1.709-5.075 0-3.567-1.075-6.353-3.227-8.357-2.151-2.004-5.122-3.006-8.91-3.006zm32.3 0c-4.358 0-7.557 1.434-9.598 4.303-2.041 2.869-3.062 7.253-3.062 13.156v6.813c.074 5.646 1.139 9.894 3.199 12.744 2.06 2.832 5.232 4.248 9.517 4.248 4.34 0 7.53-1.452 9.572-4.358 2.041-2.905 3.061-7.347 3.061-13.324v-6.619c-.055-5.774-1.104-10.04-3.145-12.8-2.04-2.776-5.222-4.163-9.543-4.163zm0 4.193c2.63 0 4.552.991 5.766 2.977 1.214 1.968 1.82 5.112 1.82 9.434v8.359c-.056 4.192-.698 7.263-1.93 9.213-1.214 1.949-3.081 2.922-5.6 2.922-2.556 0-4.468-1.028-5.737-3.088-1.25-2.078-1.877-5.287-1.877-9.627V162.2c.037-4.083.653-7.107 1.848-9.074 1.196-1.968 3.1-2.951 5.71-2.951z" style="line-height:1000%;-inkscape-font-specification:Roboto" fill="url(#j)" stroke-width="3.531" transform="translate(-58.824 -59.546) scale(.51691)"/></g></svg>