<svg xmlns="http://www.w3.org/2000/svg" xmlns:xlink="http://www.w3.org/1999/xlink" height="48" viewBox="0 0 48 48" width="48"><title>Template icons dark</title><defs><linearGradient id="c"><stop offset="0" stop-color="#35b8ff"/><stop offset="1" stop-color="#ffd578"/></linearGradient><linearGradient id="b"><stop offset="0" stop-opacity=".031"/><stop offset="1" stop-opacity=".266"/></linearGradient><linearGradient id="a"><stop offset="0" stop-color="#fff" stop-opacity="0"/><stop offset="1" stop-color="#e1f0f2" stop-opacity=".803"/></linearGradient><linearGradient xlink:href="#c" id="d" x1="184.536" y1="195.531" x2="131.031" y2="127.468" gradientUnits="userSpaceOnUse" gradientTransform="translate(-54.298 -54.298) scale(.48936)"/><linearGradient xlink:href="#a" id="e" gradientUnits="userSpaceOnUse" gradientTransform="rotate(-4.611 -603.916 705.31) scale(.47913)" x1="136.2" y1="136.006" x2="125.785" y2="189.342"/><linearGradient xlink:href="#b" id="f" gradientUnits="userSpaceOnUse" gradientTransform="rotate(-115.722 33.793 66.866) scale(.47913)" x1="177.255" y1="146.351" x2="140.341" y2="120.537"/><linearGradient xlink:href="#a" id="g" gradientUnits="userSpaceOnUse" gradientTransform="rotate(-4.611 -603.916 705.31) scale(.47913)" x1="139.777" y1="191.473" x2="200.801" y2="178.153"/><linearGradient xlink:href="#b" id="h" gradientUnits="userSpaceOnUse" x1="177.255" y1="146.351" x2="140.341" y2="120.537" gradientTransform="rotate(122.479 64.768 35.892) scale(.47913)"/><linearGradient xlink:href="#a" id="i" x1="193.184" y1="160.635" x2="155.531" y2="117.469" gradientUnits="userSpaceOnUse" gradientTransform="rotate(-4.611 -603.916 705.31) scale(.47913)"/><linearGradient xlink:href="#b" id="j" x1="177.255" y1="146.351" x2="140.341" y2="120.537" gradientUnits="userSpaceOnUse" gradientTransform="matrix(.47913 0 0 .47913 -52.66 -52.66)"/></defs><g color="#000"><path d="M24 0C10.745 0 0 10.745 0 24s10.745 24 24 24 24-10.745 24-24S37.255 0 24 0zm0 17.605a6.488 6.488 0 1 1 0 12.975 6.488 6.488 0 0 1 0-12.975z" style="isolation:auto;mix-blend-mode:normal;marker:none" display="block" overflow="visible" fill-opacity=".141" stroke-width="5.996" paint-order="fill markers stroke"/><path style="isolation:auto;mix-blend-mode:normal;marker:none" d="M24 1.002C11.298 1.002 1.002 11.3 1.002 24.001c0 12.701 10.296 22.998 22.998 22.998 12.702 0 22.998-10.297 22.998-22.998C46.998 11.299 36.702 1.002 24 1.002zm0 16.388a6.703 6.703 0 1 1 0 13.406 6.703 6.703 0 0 1 0-13.406z" display="block" overflow="visible" fill="url(#d)" stroke-width="5.746" paint-order="fill markers stroke"/><path style="isolation:auto;mix-blend-mode:normal;marker:none" d="M4.183 35.678a22.998 22.998 0 0 0 8.183 8.158c-.196-.29-.385-.587-.566-.887-5.277-8.978 2.185-19.889 7.826-23.927.302-.262.628-.497.973-.7.326-.19.668-.352 1.022-.484L12.33 4.19C1.384 10.635-2.264 24.733 4.182 35.678z" overflow="visible" fill="url(#e)" stroke-width="5.746" paint-order="fill markers stroke"/><path style="isolation:auto;mix-blend-mode:normal;marker:none" d="M11.762 43.434c.424.29.858.57 1.303.832a20.152 20.152 0 0 1-.565-.89c-4.478-7.667 1.616-17.813 5.408-22.06.615-1.412 1.736-2.318 1.736-2.318-5.652 4.023-13.142 14.908-7.89 23.9.18.301.368.597.564.888-.19-.111-.37-.235-.556-.352z" overflow="visible" fill="url(#f)" stroke-width="5.746" paint-order="fill markers stroke"/><path d="M44.304 34.816a22.998 22.998 0 0 0 2.689-11.239c-.146.32-.3.635-.462.946-4.904 9.186-18.184 8.654-24.573 5.95a6.702 6.702 0 0 1-1.105-.465 6.702 6.702 0 0 1-.946-.62l-6.715 14.91c11.21 5.972 25.139 1.727 31.112-9.482z" style="isolation:auto;mix-blend-mode:normal;marker:none" overflow="visible" fill="url(#g)" stroke-width="5.746" paint-order="fill markers stroke"/><path d="M46.966 24.201c.023-.514.031-1.03.02-1.545-.145.32-.297.636-.459.948-4.156 7.846-16.068 8.141-21.677 7.156-1.524.22-2.884-.255-2.884-.255 6.397 2.684 19.673 3.188 24.548-6.014.161-.312.314-.628.458-.948.005.22-.005.439-.006.658z" style="isolation:auto;mix-blend-mode:normal;marker:none" overflow="visible" fill="url(#h)" stroke-width="5.746" paint-order="fill markers stroke"/><path style="isolation:auto;mix-blend-mode:normal;marker:none" d="M22.159 1.073a22.998 22.998 0 0 0-10.913 3.801c.347-.05.696-.09 1.045-.121 10.38-.83 17.018 10.78 18.19 17.617.103.387.172.782.205 1.181.028.377.024.755-.012 1.13l16.257-2.532C45.91 9.489 34.819.052 22.159 1.073z" overflow="visible" fill="url(#i)" stroke-width="5.746" paint-order="fill markers stroke"/><path style="isolation:auto;mix-blend-mode:normal;marker:none" d="M11.805 4.527c-.446.256-.886.526-1.315.813.347-.05.697-.091 1.046-.123 8.851-.707 15.43 9.323 17.61 14.584 1.005 1.166 1.334 2.57 1.334 2.57-1.17-6.839-7.808-18.448-18.189-17.619-.35.032-.698.073-1.045.123.183-.122.373-.232.559-.348z" overflow="visible" fill="url(#j)" stroke-width="5.746" paint-order="fill markers stroke"/><path style="isolation:auto;mix-blend-mode:normal;marker:none" d="M30.654 24.047a6.645 6.645 0 1 1-13.29 0 6.645 6.645 0 0 1 13.29 0z" display="block" overflow="visible" fill-opacity=".083" stroke-width="5.868" paint-order="fill markers stroke"/></g></svg>