<svg xmlns="http://www.w3.org/2000/svg" xmlns:xlink="http://www.w3.org/1999/xlink" height="48" viewBox="0 0 48 48" width="48"><title>Template icons dark</title><defs><linearGradient id="c"><stop offset="0" stop-color="#8298a2"/><stop offset="1" stop-color="#c3d5dc" stop-opacity=".984"/></linearGradient><linearGradient id="d"><stop offset="0" stop-color="#889da6"/><stop offset="1" stop-color="#b9cdd5" stop-opacity=".984"/></linearGradient><linearGradient id="e"><stop offset="0" stop-color="#758d98"/><stop offset="1" stop-color="#acc5ce" stop-opacity=".984"/></linearGradient><linearGradient id="b"><stop offset="0" stop-color="#e0eef7"/><stop offset="1" stop-color="#909b9c"/></linearGradient><linearGradient id="a"><stop offset="0" stop-color="#98aab2"/><stop offset="1" stop-color="#d3e0e5" stop-opacity=".984"/></linearGradient><linearGradient xlink:href="#a" id="h" gradientUnits="userSpaceOnUse" x1="141.165" y1="190.299" x2="186.52" y2="128" gradientTransform="scale(.49634) rotate(-15 -320.473 527.969)"/><linearGradient xlink:href="#a" id="g" gradientUnits="userSpaceOnUse" x1="141.165" y1="190.299" x2="186.52" y2="128" gradientTransform="scale(.49634) rotate(-15 -320.473 527.969)"/><linearGradient xlink:href="#b" id="f" gradientUnits="userSpaceOnUse" gradientTransform="scale(.49634) rotate(-15 -324.27 528.469)" x1="161" y1="199" x2="161" y2="195.016"/></defs><path style="isolation:auto;mix-blend-mode:normal;marker:none" d="M34.96.003c-.134.009-.27.03-.406.067L2.97 8.532a2.02 2.02 0 0 0-1.432 2.48l8.954 33.418v.001l.396 1.478.132.493c0 .002.002.002.002.005l.082.305a1.733 1.733 0 0 0 2.128 1.228l32.142-8.613a1.732 1.732 0 0 0 1.228-2.126L37.499 3.225l-.006-.015-.458-1.708A2.02 2.02 0 0 0 34.961.004z" color="#000" overflow="visible" fill-opacity=".104" stroke-width=".389"/><path style="isolation:auto;mix-blend-mode:normal;marker:none" d="M3.803 10.979L35.06 2.603a1.685 1.685 0 0 1 2.068 1.194l8.853 33.04a1.685 1.685 0 0 1-1.194 2.067L13.53 47.28a1.685 1.685 0 0 1-2.068-1.194l-8.853-33.04a1.685 1.685 0 0 1 1.194-2.067z" color="#000" overflow="visible" fill="#59686e" stroke-width=".378"/><path style="isolation:auto;mix-blend-mode:normal;marker:none" d="M4.53 12.045l29.816-7.99a1.616 1.616 0 0 1 1.983 1.146l8.445 31.516a1.616 1.616 0 0 1-1.145 1.984L13.813 46.69a1.616 1.616 0 0 1-1.984-1.145L3.385 14.028a1.616 1.616 0 0 1 1.145-1.983z" color="#000" display="block" overflow="visible" fill-opacity=".225" stroke-width=".361"/><path style="isolation:auto;mix-blend-mode:normal;marker:none" d="M4.401 11.565l29.816-7.989a1.616 1.616 0 0 1 1.984 1.145l8.445 31.517a1.616 1.616 0 0 1-1.146 1.984L13.685 46.21a1.616 1.616 0 0 1-1.984-1.146L3.256 13.55a1.616 1.616 0 0 1 1.145-1.984z" color="#000" display="block" overflow="visible" fill="url(#f)" stroke-width=".361"/><path style="isolation:auto;mix-blend-mode:normal;marker:none" d="M3.551 8.958L34.265.728a1.965 1.965 0 0 1 2.413 1.394l8.45 31.536a1.965 1.965 0 0 1-1.393 2.413L13.021 44.3c-1.054.282-1.562 1.78-1.641 1.483L2.159 11.371A1.965 1.965 0 0 1 3.55 8.958z" color="#000" overflow="visible" fill="url(#g)" stroke-width=".378"/><path style="line-height:1000%;-inkscape-font-specification:'Nimbus Roman, '" d="M30.432 24.418l-1.623-6.058-.601.161c.265 2.14-.08 2.625-2.208 3.25l-3.786 1.015-1.553-5.797c-.184-.79-.127-.89.597-1.112l3.552-.951c3.043-.76 3.663-.534 4.703 1.678l.653-.175-1.079-3.713-13.865 3.715.132.497c1.942-.38 2.346-.125 2.902 1.741l3.03 11.307c.568 2.226.384 2.584-1.565 3.246l.132.496 7.312-1.96-.133-.495c-2.005.453-2.469.186-3.006-1.714l-1.525-5.692 3.786-1.015c2.148-.547 2.664-.294 3.544 1.737z" font-weight="400" font-family="Nimbus Roman" letter-spacing="0" word-spacing="0" fill-opacity=".236" stroke-width="1.69"/><path style="line-height:1000%;-inkscape-font-specification:'Nimbus Roman, '" d="M30.283 23.59l-1.623-6.058-.6.16c.265 2.14-.081 2.625-2.209 3.251l-3.786 1.015-1.553-5.798c-.184-.79-.127-.89.597-1.111l3.552-.952c3.043-.76 3.663-.534 4.704 1.678l.652-.174-1.079-3.714-13.865 3.716.133.496c1.94-.38 2.345-.125 2.901 1.741l3.03 11.307c.568 2.227.384 2.584-1.565 3.246l.133.496 7.311-1.959-.133-.496c-2.005.454-2.469.186-3.006-1.713l-1.525-5.693 3.786-1.014c2.148-.548 2.664-.294 3.544 1.737z" font-weight="400" font-family="Nimbus Roman" letter-spacing="0" word-spacing="0" fill="#fdfefe" stroke-width="1.69"/><path style="isolation:auto;mix-blend-mode:normal;marker:none" d="M4.403 10.159a.495.495 0 0 1 .608.35l8.607 32.122a.495.495 0 1 1-.959.257L4.052 10.766a.495.495 0 0 1 .351-.607z" color="#000" display="block" overflow="visible" fill="#0c0f10" fill-opacity=".192" stroke-width=".378"/><path style="isolation:auto;mix-blend-mode:normal;marker:none" d="M45 33.18a1.966 1.966 0 0 1-1.393 2.412l-30.714 8.23c-1.054.282-1.562 1.78-1.642 1.483l.129.48c.08.296.587-1.202 1.641-1.484l30.714-8.23a1.966 1.966 0 0 0 1.393-2.413z" color="#000" overflow="visible" fill-opacity=".434" stroke-width=".378"/></svg>