<svg xmlns="http://www.w3.org/2000/svg" xmlns:xlink="http://www.w3.org/1999/xlink" height="48" viewBox="0 0 48 48" width="48"><title>Template icons dark</title><defs><linearGradient id="a"><stop offset="0" stop-color="#003783"/><stop offset="1" stop-color="#69e5ff"/></linearGradient><linearGradient xlink:href="#a" id="b" gradientUnits="userSpaceOnUse" x1="120" y1="120" x2="203.055" y2="204"/></defs><path style="isolation:auto;mix-blend-mode:normal;marker:none" d="M5 5h38v38H5z" color="#000" display="block" overflow="visible" fill-opacity=".141" stroke-width="1.168" stroke-opacity=".079" paint-order="fill markers stroke"/><path style="isolation:auto;mix-blend-mode:normal;marker:none" d="M6 6h36.003v36.003H6z" color="#000" display="block" overflow="visible" fill="#a3acc3" stroke-width=".75" stroke-opacity=".079" paint-order="fill markers stroke"/><path style="isolation:auto;mix-blend-mode:normal;marker:none" d="M18 18h12v12H18z" color="#000" display="block" overflow="visible" fill="#79859c" stroke-width=".75" stroke-opacity=".079" paint-order="fill markers stroke"/><path style="isolation:auto;mix-blend-mode:normal;marker:none" d="M18 6h12v12H18z" color="#000" display="block" overflow="visible" fill="#696e82" stroke-width=".75" stroke-opacity=".079" paint-order="fill markers stroke"/><path style="isolation:auto;mix-blend-mode:normal;marker:none" d="M6 6h12v12H6z" color="#000" display="block" overflow="visible" fill="#565a68" stroke-width=".75" stroke-opacity=".079" paint-order="fill markers stroke"/><path style="isolation:auto;mix-blend-mode:normal;marker:none" d="M6 18h12v12H6z" color="#000" display="block" overflow="visible" fill="#777a8b" stroke-width=".75" stroke-opacity=".079" paint-order="fill markers stroke"/><path style="isolation:auto;mix-blend-mode:normal;marker:none" d="M30 18h11.997v12H30z" color="#000" display="block" overflow="visible" fill="#8d98b6" stroke-width=".75" stroke-opacity=".079" paint-order="fill markers stroke"/><path style="isolation:auto;mix-blend-mode:normal;marker:none" d="M30 6h11.997v12H30z" color="#000" display="block" overflow="visible" fill="#7a8399" stroke-width=".75" stroke-opacity=".079" paint-order="fill markers stroke"/><path style="isolation:auto;mix-blend-mode:normal;marker:none" d="M18 30h12v11.997H18z" color="#000" display="block" overflow="visible" fill="#9098b0" stroke-width=".75" stroke-opacity=".079" paint-order="fill markers stroke"/><path style="isolation:auto;mix-blend-mode:normal;marker:none" d="M6 30h12v11.997H6z" color="#000" display="block" overflow="visible" fill="#818da2" stroke-width=".75" stroke-opacity=".079" paint-order="fill markers stroke"/><path style="isolation:auto;mix-blend-mode:normal;marker:none" d="M6 41h36.003v.997H6z" color="#000" display="block" overflow="visible" fill="#fff" fill-opacity=".257" stroke-width=".13" stroke-opacity=".079" paint-order="fill markers stroke"/><path style="line-height:1000%" d="M36.685 8.109c-1.187 0-2.121.364-2.804 1.092-.682.724-1.024 1.717-1.024 2.977 0 1.257.342 2.25 1.024 2.978.683.724 1.617 1.087 2.804 1.087.462 0 .9-.064 1.313-.19.416-.126.81-.315 1.181-.567v-1.108a3.74 3.74 0 0 1-1.144.745 3.366 3.366 0 0 1-1.286.248c-.897 0-1.583-.274-2.06-.82-.475-.55-.713-1.34-.713-2.373 0-1.036.238-1.827.714-2.373.476-.55 1.162-.825 2.059-.825.455 0 .883.082 1.286.247.406.165.787.414 1.144.746V8.854a4.134 4.134 0 0 0-1.17-.557 4.512 4.512 0 0 0-1.324-.188zm-24.816.141l-2.994 7.84h1.12l.713-2.011h3.534l.715 2.011h1.102l-2.988-7.84zm9.978 0v7.84h2.815c.878 0 1.556-.19 2.032-.572.476-.382.714-.923.714-1.623 0-.532-.145-.975-.436-1.328-.287-.357-.691-.592-1.213-.704.434-.07.764-.247.988-.53.224-.284.335-.665.335-1.145 0-.62-.218-1.098-.656-1.434-.437-.336-1.061-.504-1.87-.504zm1.06.873h1.571c.518 0 .903.097 1.155.293.256.197.383.492.383.887 0 .4-.127.697-.383.893-.252.192-.637.289-1.155.289h-1.57zm-10.44.172l1.445 3.902h-2.883zm10.44 3.051h1.702c.57 0 .992.117 1.265.352.277.23.416.592.416 1.082 0 .486-.139.849-.416 1.087-.273.234-.695.351-1.265.351h-1.701zm-11.038 9.72c-.315 0-.64.036-.972.106a6.285 6.285 0 0 0-1.03.305v.893a3.892 3.892 0 0 1 1.902-.484c.529 0 .938.123 1.229.368.294.242.44.584.44 1.029v.094h-1.354c-.878 0-1.54.168-1.985.504-.441.336-.661.836-.661 1.497 0 .567.177 1.021.53 1.36.357.337.837.505 1.439.505.476 0 .879-.084 1.208-.252.329-.172.603-.436.824-.793v.892h.966v-3.355c0-.896-.21-1.565-.63-2.006-.42-.441-1.056-.662-1.906-.662zm.609 3.068h.96v.215c0 .63-.162 1.136-.487 1.518-.322.378-.752.567-1.287.567-.389 0-.697-.1-.924-.3-.224-.203-.336-.476-.336-.82 0-.43.15-.734.451-.912.301-.179.842-.268 1.623-.268zm-.927 7.745a.681.681 0 0 0-.537.23c-.132.153-.198.36-.198.622h.486v-.024c0-.116.026-.207.077-.272a.263.263 0 0 1 .218-.097c.031 0 .067.007.106.023a.898.898 0 0 1 .159.074l.221.129c.135.07.24.115.316.136.078.02.16.03.249.03a.659.659 0 0 0 .524-.229c.135-.155.205-.362.21-.622h-.485v.024a.413.413 0 0 1-.078.26.247.247 0 0 1-.202.097.376.376 0 0 1-.125-.023 1.013 1.013 0 0 1-.156-.074l-.221-.117a1.357 1.357 0 0 0-.307-.135.996.996 0 0 0-.257-.032zm.167 1.027l-.82 1.034h.54l.645-.692.646.692h.541l-.82-1.034zm.4 1.481c-.653 0-1.173.21-1.559.63-.384.417-.575.983-.575 1.696 0 .69.202 1.237.606 1.641.407.404.959.606 1.654.606.277 0 .55-.027.82-.085.27-.057.532-.14.789-.249v-.676c-.254.134-.51.235-.77.302a3.13 3.13 0 0 1-.797.102c-.475 0-.846-.128-1.113-.385-.264-.26-.412-.635-.443-1.128h3.29v-.35c0-.647-.17-1.16-.513-1.535-.34-.379-.802-.569-1.388-.569zm.008.607c.353 0 .635.117.848.35.215.234.326.545.331.937l-2.552.004c.037-.41.174-.727.412-.952.242-.226.562-.34.961-.34z" font-family="sans-serif" letter-spacing="0" word-spacing="0" fill="#fefefe" stroke-width=".672"/></svg>