<svg xmlns="http://www.w3.org/2000/svg" xmlns:xlink="http://www.w3.org/1999/xlink" height="48" viewBox="0 0 48 48" width="48"><title>Template icons dark</title><defs><linearGradient id="j"><stop offset="0" stop-color="#fff" stop-opacity=".194"/><stop offset=".043" stop-color="#fff" stop-opacity=".183"/><stop offset=".11" stop-color="#fff" stop-opacity=".262"/><stop offset=".139" stop-color="#fff" stop-opacity=".12"/><stop offset=".473" stop-color="#fff" stop-opacity=".136"/><stop offset=".517" stop-color="#fff" stop-opacity=".288"/><stop offset=".553" stop-color="#fff" stop-opacity=".173"/><stop offset="1" stop-color="#fff" stop-opacity=".11"/></linearGradient><linearGradient id="f"><stop offset="0" stop-opacity=".529"/><stop offset="1" stop-color="#6a062f" stop-opacity="0"/></linearGradient><linearGradient id="h"><stop offset="0" stop-opacity=".56"/><stop offset="1" stop-color="#6a062f" stop-opacity="0"/></linearGradient><linearGradient id="i"><stop offset="0" stop-opacity=".529"/><stop offset="1" stop-color="#6a062f" stop-opacity="0"/></linearGradient><linearGradient id="g"><stop offset="0" stop-opacity=".445"/><stop offset="1" stop-color="#6a062f" stop-opacity="0"/></linearGradient><linearGradient id="b"><stop offset="0" stop-color="#cfdde2"/><stop offset="1" stop-color="#90a1b1"/></linearGradient><linearGradient id="c"><stop offset="0" stop-color="#eaf2f7"/><stop offset="1" stop-color="#99b4c0"/></linearGradient><linearGradient id="d"><stop offset="0" stop-color="#f95e86"/><stop offset="1" stop-color="#613ef5"/></linearGradient><linearGradient id="a"><stop offset="0" stop-color="#7a0b1c"/><stop offset="1" stop-color="#e82895"/></linearGradient><linearGradient id="e"><stop offset="0" stop-color="#fff" stop-opacity="0"/><stop offset=".48" stop-color="#fff"/><stop offset="1" stop-color="#f5f6f6" stop-opacity="0"/></linearGradient><linearGradient xlink:href="#b" id="k" gradientUnits="userSpaceOnUse" gradientTransform="matrix(.6891 0 0 .6891 63.744 60.744)" x1="161.702" y1="118.898" x2="161.702" y2="197.932"/><linearGradient xlink:href="#c" id="l" gradientUnits="userSpaceOnUse" gradientTransform="matrix(.6891 0 0 .6891 63.744 60.744)" x1="168.352" y1="125.665" x2="168.352" y2="190.817"/><linearGradient xlink:href="#d" id="m" gradientUnits="userSpaceOnUse" gradientTransform="matrix(.66493 0 0 .66493 62.281 57.154)" x1="10.43" y1="43.068" x2="38.891" y2="13.193"/><linearGradient xlink:href="#d" id="n" gradientUnits="userSpaceOnUse" gradientTransform="matrix(.64773 0 0 .64773 70.418 67.605)" x1="142.933" y1="141.101" x2="170.722" y2="184.329"/><linearGradient xlink:href="#e" id="o" gradientUnits="userSpaceOnUse" gradientTransform="matrix(.32036 0 0 .48424 122.857 112.282)" x1="146.804" y1="139.479" x2="174.466" y2="139.479"/><linearGradient xlink:href="#e" id="p" gradientUnits="userSpaceOnUse" gradientTransform="matrix(.29664 0 0 .48424 126.31 92.35)" x1="146.804" y1="139.479" x2="174.466" y2="139.479"/><linearGradient xlink:href="#a" id="q" gradientUnits="userSpaceOnUse" x1="140.465" y1="191" x2="133.606" y2="140"/><linearGradient xlink:href="#i" id="r" gradientUnits="userSpaceOnUse" x1="144" y1="151.559" x2="154.394" y2="163"/><linearGradient xlink:href="#h" id="s" gradientUnits="userSpaceOnUse" x1="148" y1="136" x2="167.134" y2="118"/><linearGradient xlink:href="#f" id="t" gradientUnits="userSpaceOnUse" x1="138" y1="183" x2="142" y2="202.472"/><linearGradient xlink:href="#j" id="u" gradientUnits="userSpaceOnUse" x1="145.677" y1="123" x2="127" y2="195"/><linearGradient xlink:href="#f" id="v" gradientUnits="userSpaceOnUse" x1="136.449" y1="161" x2="107.15" y2="117"/></defs><g color="#000"><path d="M26.97 13.548c-.263 0-.41.208-.475.449l-1.01 3.715c-.69.246-1.595.59-2.206.909l-3.343-1.924c-.216-.125-.467-.167-.653.019l-2.719 2.718c-.186.186-.143.435-.019.651l1.88 3.285a11.931 11.931 0 0 0-.979 2.285l-3.63.978c-.24.065-.449.213-.449.476v3.845c0 .263.208.407.45.473l3.55.967c.238.837.566 1.645.98 2.41l-1.83 3.184c-.125.216-.168.468.018.654l2.718 2.718c.186.186.435.143.651.019l3.141-1.8c.78.435 1.607.78 2.464 1.03l.943 3.499c.065.241.213.45.476.45h3.845c.263 0 .408-.21.473-.45l.954-3.502c.846-.25 1.662-.594 2.432-1.024l3.175 1.826c.217.125.468.168.654-.019l2.719-2.718c.186-.186.142-.437.018-.654l-1.841-3.213c.4-.75.719-1.54.951-2.357l3.62-.978c.24-.064.449-.21.449-.473v-3.845c0-.263-.209-.41-.45-.475l-3.68-1a11.93 11.93 0 0 0-.938-2.227l1.919-3.332c.124-.216.167-.468-.019-.654l-2.719-2.718c-.186-.186-.437-.143-.653-.019l-3.34 1.914c-.737-.303-1.508-.676-2.196-.899l-1.012-3.744c-.065-.241-.21-.45-.473-.45H26.97zm1.904 9.848a5.672 5.672 0 1 1 0 11.343 5.672 5.672 0 0 1 0-11.343z" style="isolation:auto;mix-blend-mode:normal;marker:none" overflow="visible" fill="none" stroke="#000" stroke-width=".9905" stroke-opacity=".168" paint-order="fill markers stroke"/><path style="isolation:auto;mix-blend-mode:normal;marker:none" d="M170.197 139.99c-.526 0-.82.417-.951.899l-2.02 7.43c-1.379.492-3.19 1.18-4.411 1.818l-6.686-3.848c-.433-.249-.935-.335-1.308.038l-5.437 5.437c-.372.372-.285.868-.037 1.302l3.758 6.569a23.863 23.863 0 0 0-1.956 4.57l-7.26 1.956c-.482.13-.898.425-.898.952v7.69c0 .526.416.815.898.946l7.1 1.935a23.862 23.862 0 0 0 1.962 4.82l-3.662 6.367c-.25.433-.335.936.037 1.308l5.437 5.437c.372.372.869.285 1.302.037l6.282-3.598a23.861 23.861 0 0 0 4.927 2.057l1.887 7c.13.481.425.897.951.897h7.69c.527 0 .816-.416.947-.898l1.908-7.005a23.862 23.862 0 0 0 4.863-2.046l6.351 3.651c.433.25.935.335 1.308-.037l5.437-5.437c.372-.372.285-.874.037-1.307l-3.683-6.426c.8-1.5 1.438-3.08 1.903-4.714l7.238-1.956c.483-.13.899-.42.899-.946v-7.69c0-.527-.417-.82-.899-.952l-7.36-1.998a23.862 23.862 0 0 0-1.877-4.454l3.837-6.665c.25-.432.335-.935-.037-1.307l-5.437-5.437c-.372-.372-.874-.285-1.307-.037l-6.681 3.826c-1.473-.604-3.014-1.35-4.39-1.796l-2.025-7.489c-.13-.482-.42-.898-.946-.898h-7.69zm3.808 19.698c6.264 0 11.343 5.078 11.343 11.343 0 6.264-5.079 11.343-11.343 11.343-6.265 0-11.344-5.079-11.344-11.343 0-6.265 5.079-11.343 11.344-11.343z" overflow="visible" fill="url(#k)" stroke-width="1.29" stroke-opacity=".141" paint-order="fill markers stroke" transform="matrix(.5 0 0 .5 -58.128 -56.448)"/><path style="line-height:normal;text-indent:0;text-align:start;text-decoration-line:none;text-decoration-style:solid;text-decoration-color:#000;text-transform:none;isolation:auto;mix-blend-mode:normal;marker:none" d="M28.874 16.817c-6.733 0-12.238 5.5-12.238 12.233 0 6.733 5.505 12.238 12.238 12.238s12.234-5.505 12.234-12.238c0-6.732-5.501-12.233-12.234-12.233zm0 2.595a9.594 9.594 0 0 1 9.638 9.638 9.598 9.598 0 0 1-9.638 9.642 9.603 9.603 0 0 1-9.642-9.642 9.598 9.598 0 0 1 9.642-9.638z" font-weight="400" font-family="sans-serif" white-space="normal" overflow="visible" fill-opacity=".173" stroke-width="2.27" stroke-opacity=".141" paint-order="fill markers stroke"/><path d="M174.004 147.27c-13.058 0-23.735 10.668-23.735 23.726s10.677 23.735 23.735 23.735 23.727-10.677 23.727-23.735-10.669-23.727-23.727-23.727zm0 5.033a18.607 18.607 0 0 1 18.692 18.692c0 10.39-8.302 18.702-18.691 18.702a18.624 18.624 0 0 1-18.702-18.702c0-10.39 8.312-18.692 18.702-18.692z" style="line-height:normal;text-indent:0;text-align:start;text-decoration-line:none;text-decoration-style:solid;text-decoration-color:#000;text-transform:none;isolation:auto;mix-blend-mode:normal;marker:none" font-weight="400" font-family="sans-serif" white-space="normal" overflow="visible" fill="url(#l)" stroke-width="2.201" stroke-opacity=".141" paint-order="fill markers stroke" transform="matrix(.5 0 0 .5 -58.128 -56.448)"/><path d="M174.003 152.297c-10.29 0-18.706 8.409-18.706 18.7 0 10.29 8.415 18.706 18.706 18.706s18.7-8.415 18.7-18.706-8.409-18.7-18.7-18.7zm.001 4.72a13.95 13.95 0 0 1 14.014 14.014c0 7.79-6.224 14.021-14.014 14.021a13.964 13.964 0 0 1-14.021-14.021c0-7.79 6.232-14.014 14.021-14.014z" style="line-height:normal;text-indent:0;text-align:start;text-decoration-line:none;text-decoration-style:solid;text-decoration-color:#000;text-transform:none;isolation:auto;mix-blend-mode:normal;marker:none" font-weight="400" font-family="sans-serif" white-space="normal" overflow="visible" fill="url(#m)" stroke-width="1.378" paint-order="fill markers stroke" transform="matrix(.5 0 0 .5 -58.128 -56.448)"/><path style="line-height:normal;text-indent:0;text-align:start;text-decoration-line:none;text-decoration-style:solid;text-decoration-color:#000;text-transform:none;isolation:auto;mix-blend-mode:normal;marker:none" d="M174.003 152.297c-10.29 0-18.706 8.409-18.706 18.7 0 10.29 8.415 18.706 18.706 18.706s18.7-8.415 18.7-18.706-8.409-18.7-18.7-18.7zm0 10.367a8.33 8.33 0 0 1 8.368 8.368 8.334 8.334 0 0 1-8.368 8.373 8.338 8.338 0 0 1-8.373-8.373 8.334 8.334 0 0 1 8.373-8.368z" font-weight="400" font-family="sans-serif" white-space="normal" overflow="visible" fill="url(#n)" stroke-width="1.735" stroke-opacity=".141" paint-order="fill markers stroke" transform="matrix(.5 0 0 .5 -58.128 -56.448)"/><path style="line-height:normal;text-indent:0;text-align:start;text-decoration-line:none;text-decoration-style:solid;text-decoration-color:#000;text-transform:none;isolation:auto;mix-blend-mode:normal;marker:none" d="M28.873 19.701c-5.145 0-9.352 4.204-9.352 9.35 0 .058.003.115.004.172.093-5.066 4.26-9.177 9.348-9.177 5.088 0 9.253 4.11 9.346 9.177.001-.057.004-.114.004-.172 0-5.146-4.204-9.35-9.35-9.35z" font-weight="400" font-family="sans-serif" white-space="normal" overflow="visible" fill-opacity=".283" stroke-width="1.735" stroke-opacity=".141" paint-order="fill markers stroke"/><path style="isolation:auto;mix-blend-mode:normal;marker:none" d="M26.97 13.548c-.262 0-.41.208-.475.449l-1.01 3.715c-.69.246-1.595.59-2.206.91l-3.343-1.925c-.216-.124-.468-.167-.654.019l-2.718 2.718c-.14.14-.15.315-.094.484.02-.049.05-.096.094-.14l2.718-2.718c.186-.186.438-.143.654-.018l3.343 1.924c.61-.32 1.516-.664 2.206-.91l1.01-3.715c.066-.24.213-.449.476-.449h3.845c.263 0 .408.209.473.45l1.012 3.744c.688.223 1.459.595 2.195.898l3.34-1.913c.218-.124.468-.168.654.018l2.719 2.72a.424.424 0 0 1 .094.14c.056-.17.045-.346-.094-.485l-2.719-2.72c-.186-.185-.436-.142-.653-.018l-3.34 1.913c-.737-.302-1.508-.675-2.196-.897l-1.012-3.745c-.065-.24-.21-.45-.473-.45zM18.33 23.55c-.36.672-.658 1.376-.883 2.105l-3.631.978c-.241.065-.449.213-.449.476v.344c0-.263.208-.41.449-.475l3.63-.978c.246-.794.574-1.56.978-2.285zm21.072.081l-.093.163c.387.709.701 1.455.938 2.227l3.68 1c.242.065.45.212.45.475v-.345c0-.263-.208-.41-.45-.475l-3.68-1a11.927 11.927 0 0 0-.845-2.045zM18.254 34.966l-1.738 3.022c-.095.165-.141.351-.075.513a.897.897 0 0 1 .075-.169l1.831-3.183c-.033-.06-.061-.122-.093-.183zm21.195 0c-.032.06-.06.123-.093.183l1.842 3.213c.031.054.057.11.076.168.065-.162.019-.347-.076-.513z" overflow="visible" fill="#fff" fill-opacity=".675" stroke-width="1.29" stroke-opacity=".141" paint-order="fill markers stroke"/><path style="line-height:normal;text-indent:0;text-align:start;text-decoration-line:none;text-decoration-style:solid;text-decoration-color:#000;text-transform:none;isolation:auto;mix-blend-mode:normal;marker:none" d="M28.873 24.74a4.998 4.998 0 0 0-4.986 4.984 5 5 0 0 0 4.986 4.986 4.998 4.998 0 0 0 4.984-4.986 4.997 4.997 0 0 0-4.984-4.984zm0 1.032a3.493 3.493 0 0 1 3.51 3.51c0 1.95-1.56 3.51-3.51 3.51-1.95 0-3.51-1.56-3.51-3.51 0-1.951 1.56-3.51 3.51-3.51z" font-weight="400" font-family="sans-serif" white-space="normal" overflow="visible" fill-opacity=".168" stroke-width=".972" stroke-opacity=".141" paint-order="fill markers stroke"/><path d="M28.893 23.552c-3.047 0-5.538 2.49-5.538 5.537 0 3.047 2.491 5.538 5.538 5.538s5.537-2.491 5.537-5.538-2.49-5.537-5.537-5.537zm0 1.256a4.245 4.245 0 0 1 4.265 4.264 4.247 4.247 0 0 1-4.264 4.267 4.249 4.249 0 0 1-4.267-4.267 4.247 4.247 0 0 1 4.267-4.264z" style="line-height:normal;text-indent:0;text-align:start;text-decoration-line:none;text-decoration-style:solid;text-decoration-color:#000;text-transform:none;isolation:auto;mix-blend-mode:normal;marker:none" font-weight="400" font-family="sans-serif" white-space="normal" overflow="visible" fill="#b1c7d0" stroke-width="1.407" stroke-opacity=".141" paint-order="fill markers stroke"/><path style="line-height:normal;text-indent:0;text-align:start;text-decoration-line:none;text-decoration-style:solid;text-decoration-color:#000;text-transform:none;isolation:auto;mix-blend-mode:normal;marker:none" d="M28.897 33.346a4.247 4.247 0 0 1-4.266-4.264c0-.058.006-.115.009-.172.09 2.288 1.946 3.873 4.257 3.873 2.312 0 4.166-1.585 4.256-3.873.002.057.008.114.008.172a4.244 4.244 0 0 1-4.264 4.264z" font-weight="400" font-family="sans-serif" white-space="normal" overflow="visible" fill="#718085" stroke-width="1.407" stroke-opacity=".141" paint-order="fill markers stroke"/><path style="line-height:normal;text-indent:0;text-align:start;text-decoration-line:none;text-decoration-style:solid;text-decoration-color:#000;text-transform:none;isolation:auto;mix-blend-mode:normal;marker:none" d="M28.893 23.354c-3.178 0-5.539 2.596-5.539 5.775 0 .044.002.087.003.13.07-3.117 2.402-5.643 5.536-5.643 3.135 0 5.485 3.042 5.556 6.16 0-.044.003-.087.003-.131 0-3.179-2.38-6.291-5.559-6.291zm-4.038 6.416c-.002.032-.007.063-.007.095 0 1.302 2.148 3.459 4.046 3.459 1.898 0 4.085-2.157 4.085-3.46 0-.031-.006-.062-.008-.094-.078 1.258-2.226 3.278-4.077 3.278s-3.96-2.02-4.039-3.278z" font-weight="400" font-family="sans-serif" white-space="normal" overflow="visible" fill="#fff" fill-opacity=".691" stroke-width="1.126" stroke-opacity=".141" paint-order="fill markers stroke"/><path style="isolation:auto;mix-blend-mode:normal;marker:none" overflow="visible" fill="url(#o)" stroke-width=".788" paint-order="fill markers stroke" d="M169.887 179.472h8.862v.705h-8.862z" transform="matrix(.5 0 0 .5 -58.128 -56.448)"/><path style="isolation:auto;mix-blend-mode:normal;marker:none" overflow="visible" fill="url(#p)" stroke-width=".758" paint-order="fill markers stroke" d="M169.857 159.54h8.206v.705h-8.206z" transform="matrix(.5 0 0 .5 -58.128 -56.448)"/></g><g fill-rule="evenodd"><path d="M3.372 4.052v39.5h8.012l-.012-16.5h8.5v-8h-8.5v-7h14v-8z" style="isolation:auto;mix-blend-mode:normal;marker:none" color="#000" overflow="visible" fill="none" stroke="#000" stroke-width="1" stroke-linecap="square" stroke-linejoin="bevel" stroke-opacity=".267" paint-order="markers fill stroke"/><path style="isolation:auto;mix-blend-mode:normal;marker:none" d="M124 120v79h16.024L140 166h17v-16h-17v-14h28v-16z" color="#000" overflow="visible" fill="url(#q)" stroke-width="4.457" stroke-linecap="square" stroke-linejoin="bevel" paint-order="markers fill stroke" transform="matrix(.5 0 0 .5 -58.128 -56.448)"/><path d="M11.884 43.052l-.012-16.5h8.5v-8h-8.5v-7h14v-8h-22v.5h22v7.5h-14v7.5h8.5v7.5h-8.5v16.512l-8-.012z" style="line-height:normal;font-variant-ligatures:normal;font-variant-position:normal;font-variant-caps:normal;font-variant-numeric:normal;font-variant-alternates:normal;font-feature-settings:normal;text-indent:0;text-align:start;text-decoration-line:none;text-decoration-style:solid;text-decoration-color:#000;text-transform:none;text-orientation:mixed;shape-padding:0;isolation:auto;mix-blend-mode:normal;marker:none" color="#000" font-weight="400" font-family="sans-serif" white-space="normal" overflow="visible" fill="#fff" fill-opacity=".419" stroke-linecap="square" stroke-linejoin="bevel" paint-order="markers fill stroke"/><path d="M141 166h16v-16h-13z" fill="url(#r)" transform="matrix(.5 0 0 .5 -58.128 -56.448)"/><path d="M168 136h-21l3-16h18z" fill="url(#s)" transform="matrix(.5 0 0 .5 -58.128 -56.448)"/><path d="M140 170.236L134 199h6z" fill="url(#t)" transform="matrix(.5 0 0 .5 -58.128 -56.448)"/><path d="M137 120l-13 79h1l13-79zm12 0l-3 16h1l3-16zm-6 30l-3 16h1l3-16zm-3 19l-7 30h1l6-28.764z" style="line-height:normal;font-variant-ligatures:normal;font-variant-position:normal;font-variant-caps:normal;font-variant-numeric:normal;font-variant-alternates:normal;font-feature-settings:normal;text-indent:0;text-align:start;text-decoration-line:none;text-decoration-style:solid;text-decoration-color:#000;text-transform:none;text-orientation:mixed;shape-padding:0;isolation:auto;mix-blend-mode:normal" color="#000" font-weight="400" font-family="sans-serif" white-space="normal" overflow="visible" fill="url(#u)" stroke-width=".6" transform="matrix(.5 0 0 .5 -58.128 -56.448)"/><path d="M124 120v79l13-79z" fill="url(#v)" transform="matrix(.5 0 0 .5 -58.128 -56.448)"/></g></svg>