<svg xmlns="http://www.w3.org/2000/svg" xmlns:xlink="http://www.w3.org/1999/xlink" height="48" viewBox="0 0 48 48" width="48"><title>Template icons dark</title><defs><linearGradient id="e"><stop offset="0" stop-color="#ff2a0b"/><stop offset=".496" stop-color="#110200" stop-opacity=".453"/><stop offset=".532" stop-opacity=".13"/><stop offset=".617" stop-color="#ffcdc5" stop-opacity=".106"/><stop offset=".702" stop-color="#ffd2cb" stop-opacity=".161"/><stop offset=".778" stop-color="#ffe2dd" stop-opacity="0"/><stop offset=".872" stop-color="#fff" stop-opacity=".109"/><stop offset=".936" stop-color="#fff" stop-opacity=".078"/><stop offset="1" stop-opacity=".354"/></linearGradient><linearGradient id="d"><stop offset="0" stop-opacity="0"/><stop offset=".497" stop-opacity="0"/><stop offset=".749" stop-opacity=".271"/><stop offset="1" stop-opacity="0"/></linearGradient><linearGradient id="b"><stop offset="0" stop-color="#c5c5c5"/><stop offset="1" stop-color="#f4f4f4"/></linearGradient><linearGradient id="a"><stop offset="0" stop-color="#cd3a00"/><stop offset="1" stop-color="#cf6e53"/></linearGradient><linearGradient id="c"><stop offset="0" stop-color="#fff" stop-opacity="0"/><stop offset=".657" stop-color="#fff" stop-opacity="0"/><stop offset=".829" stop-color="#fff8f4" stop-opacity=".26"/><stop offset="1" stop-color="#fff" stop-opacity="0"/></linearGradient><linearGradient gradientTransform="matrix(.5 0 0 .5 -56 -56)" xlink:href="#b" id="g" x1="170" y1="201.251" x2="170" y2="119" gradientUnits="userSpaceOnUse"/><linearGradient gradientTransform="matrix(.5 0 0 .5 -56 -56)" xlink:href="#a" id="f" x1="160" y1="205" x2="160" y2="113" gradientUnits="userSpaceOnUse"/><radialGradient gradientTransform="matrix(.5 0 0 .5 -56 -56)" xlink:href="#e" id="h" cx="160" cy="160" fx="160" fy="160" r="47" gradientUnits="userSpaceOnUse"/></defs><path d="M8.224 1.5c-2.205 0-2.05 3.298-3.452 4.61C3.628 7.183 1.02 6.5.83 8.68c-.234 2.708-.037 7.79.689 9.194L17.073 2.5s-6.839-1-8.85-1zm31.07 0c-2.01 0-8.849 1-8.849 1L46 17.873c.725-1.404.923-6.486.688-9.194-.188-2.18-2.797-1.496-3.942-2.569-1.4-1.312-1.246-4.61-3.451-4.61zM1.52 30.487C.793 31.892.596 36.973.83 39.682c.189 2.178 2.798 1.496 3.942 2.568 1.401 1.312 1.247 4.61 3.452 4.61 2.01 0 8.85-1 8.85-1zm44.481 0L30.445 45.86s6.84 1 8.85 1c2.205 0 2.05-3.298 3.451-4.61 1.145-1.072 3.754-.39 3.942-2.568.235-2.709.037-7.79-.688-9.195z" fill="none" fill-rule="evenodd" stroke="#fff" stroke-width=".65"/><path d="M8.224 1.5c-2.205 0-2.05 3.298-3.452 4.61C3.628 7.183 1.02 6.5.83 8.68c-.234 2.708-.037 7.79.689 9.194L17.073 2.5s-6.839-1-8.85-1zm31.07 0c-2.01 0-8.849 1-8.849 1L46 17.873c.725-1.404.923-6.486.688-9.194-.188-2.18-2.797-1.496-3.942-2.569-1.4-1.312-1.246-4.61-3.451-4.61zM1.52 30.487C.793 31.892.596 36.973.83 39.682c.189 2.178 2.798 1.496 3.942 2.568 1.401 1.312 1.247 4.61 3.452 4.61 2.01 0 8.85-1 8.85-1zm44.481 0L30.445 45.86s6.84 1 8.85 1c2.205 0 2.05-3.298 3.451-4.61 1.145-1.072 3.754-.39 3.942-2.568.235-2.709.037-7.79-.688-9.195z" fill="none" fill-rule="evenodd" stroke="#9c8456" stroke-width=".65" stroke-dasharray="1.3,.65"/><path d="M24 0C10.745 0 0 10.745 0 24s10.745 24 24 24 24-10.745 24-24S37.255 0 24 0zm0 13c6.075 0 11 4.925 11 11s-4.925 11-11 11-11-4.925-11-11 4.925-11 11-11z" style="isolation:auto;mix-blend-mode:normal;marker:none" color="#000" display="block" overflow="visible" fill-opacity=".052" stroke-width=".522" stroke-opacity=".37" paint-order="fill markers stroke"/><path style="isolation:auto;mix-blend-mode:normal;marker:none" d="M24 .5A23.5 23.5 0 0 0 .5 24 23.5 23.5 0 0 0 24 47.5 23.5 23.5 0 0 0 47.5 24 23.5 23.5 0 0 0 24 .5zm0 12A11.5 11.5 0 0 1 35.5 24 11.5 11.5 0 0 1 24 35.5 11.5 11.5 0 0 1 12.5 24 11.5 11.5 0 0 1 24 12.5z" color="#000" display="block" overflow="visible" fill="url(#f)" stroke-width=".511" stroke-opacity=".37" paint-order="fill markers stroke"/><path style="isolation:auto;mix-blend-mode:normal;marker:none" d="M12.085 3.747a23.608 23.608 0 0 0-8.338 8.338l9.56 8.09a11.37 11.37 0 0 1 6.867-6.87zm23.83 0l-8.09 9.56a11.37 11.37 0 0 1 6.87 6.867l9.558-8.089a23.608 23.608 0 0 0-8.338-8.338zm-22.61 24.081l-9.558 8.087a23.609 23.609 0 0 0 8.337 8.338l8.089-9.562a11.37 11.37 0 0 1-6.867-6.863zm21.386 0a11.37 11.37 0 0 1-6.863 6.866l8.087 9.559a23.609 23.609 0 0 0 8.338-8.337z" color="#000" overflow="visible" fill="url(#g)" stroke="#441201" stroke-width=".605" stroke-opacity=".391" paint-order="fill markers stroke"/><path d="M24 .5A23.5 23.5 0 0 0 .5 24 23.5 23.5 0 0 0 24 47.5 23.5 23.5 0 0 0 47.5 24 23.5 23.5 0 0 0 24 .5zm0 12A11.5 11.5 0 0 1 35.5 24 11.5 11.5 0 0 1 24 35.5 11.5 11.5 0 0 1 12.5 24 11.5 11.5 0 0 1 24 12.5z" style="isolation:auto;mix-blend-mode:normal;marker:none" color="#000" overflow="visible" fill="url(#h)" stroke-width=".511" stroke-opacity=".37" paint-order="fill markers stroke"/><path d="M12.574 3.5l8.122 9.5zm22.796 0L27.248 13zm-31.926 9l9.5 8.122zm9.5 14.958l-9.5 8.122zm22.056 0l9.5 8.122zM20.696 35.08l-8.122 9.5zm6.552 0l8.122 9.5z" fill="none" fill-rule="evenodd" stroke="#fff" stroke-width=".5" stroke-opacity=".214"/><path style="isolation:auto;mix-blend-mode:normal;marker:none" d="M37.726 6.17a.749.749 0 0 0-.527.231c-.288.3-.28.772.019 1.06l3.239 3.125c.3.288.772.28 1.06-.02a.748.748 0 0 0-.019-1.06L38.26 6.382a.748.748 0 0 0-.534-.211zM10.27 6.5a.747.747 0 0 0-.534.21L6.498 9.836a.748.748 0 1 0 1.041 1.079l3.239-3.124a.748.748 0 0 0-.507-1.29zm24.48 2.646a.748.748 0 0 0-.506 1.291l3.241 3.12c.3.288.773.28 1.06-.02a.748.748 0 0 0-.019-1.06l-3.242-3.122a.747.747 0 0 0-.534-.21zm-21.3.18a.747.747 0 0 0-.535.21l-3.238 3.125a.747.747 0 0 0-.02 1.06.748.748 0 0 0 1.06.02l3.239-3.125a.748.748 0 0 0 .02-1.06.748.748 0 0 0-.527-.23zm18.205 2.792a.746.746 0 0 0-.525.23c-.288.3-.28.773.02 1.061l3.242 3.12c.299.288.772.28 1.06-.02a.748.748 0 0 0-.02-1.06l-3.242-3.12a.749.749 0 0 0-.535-.21zm-15.233.423a.747.747 0 0 0-.534.21l-3.24 3.125a.748.748 0 0 0-.018 1.06.748.748 0 0 0 1.06.02l3.239-3.125a.748.748 0 0 0-.507-1.29zM34.683 30.8a.747.747 0 0 0-.535.21l-3.239 3.125a.748.748 0 0 0-.018 1.06.748.748 0 0 0 1.06.02l3.238-3.124a.748.748 0 0 0 .019-1.06.746.746 0 0 0-.525-.231zm-21.465.122a.748.748 0 0 0-.508 1.29l3.24 3.124c.298.288.771.28 1.06-.02a.748.748 0 0 0-.019-1.06l-3.239-3.123a.748.748 0 0 0-.534-.211zm-2.975 2.974a.748.748 0 0 0-.506 1.291l3.242 3.12c.299.289.772.28 1.06-.02a.748.748 0 0 0-.02-1.06l-3.242-3.122a.747.747 0 0 0-.534-.21zm27.411.12a.747.747 0 0 0-.534.21l-3.238 3.125a.748.748 0 1 0 1.04 1.079l3.24-3.124a.748.748 0 0 0-.508-1.29zm3.163 2.786a.747.747 0 0 0-.534.213l-3.223 3.14a.748.748 0 0 0-.014 1.06.748.748 0 0 0 1.06.015l3.224-3.14a.748.748 0 0 0-.513-1.288zm-33.668.066a.748.748 0 0 0-.506 1.291l3.242 3.121c.3.288.772.28 1.06-.02a.748.748 0 0 0-.02-1.06l-3.241-3.122a.747.747 0 0 0-.535-.21z" color="#000" display="block" overflow="visible" fill-opacity=".12" stroke-width=".65" paint-order="fill markers stroke"/></svg>