<svg xmlns="http://www.w3.org/2000/svg" xmlns:xlink="http://www.w3.org/1999/xlink" height="48" viewBox="0 0 48 48" width="48"><title>Template icons dark</title><defs><linearGradient id="n"><stop offset="0" stop-color="#cacaca" stop-opacity="0"/><stop offset=".565" stop-color="#fff" stop-opacity=".422"/><stop offset="1" stop-color="#cacaca" stop-opacity="0"/></linearGradient><linearGradient id="o"><stop offset="0" stop-color="#fff" stop-opacity=".656"/><stop offset="1" stop-color="#fff" stop-opacity=".047"/></linearGradient><linearGradient id="p"><stop offset="0" stop-opacity=".26"/><stop offset="1" stop-color="#f0f0f0" stop-opacity="0"/></linearGradient><linearGradient id="m"><stop offset="0" stop-color="#fff" stop-opacity=".458"/><stop offset="1" stop-color="#fff" stop-opacity=".255"/></linearGradient><linearGradient id="l"><stop offset="0" stop-opacity=".146"/><stop offset=".494" stop-opacity=".506"/><stop offset="1" stop-opacity=".057"/></linearGradient><linearGradient id="k"><stop offset="0" stop-opacity=".156"/><stop offset="1" stop-color="#f0f0f0" stop-opacity="0"/></linearGradient><linearGradient id="a"><stop offset="0" stop-color="#58c19a"/><stop offset="1" stop-color="#38899d"/></linearGradient><linearGradient id="j"><stop offset="0" stop-opacity=".26"/><stop offset="1" stop-opacity="0"/></linearGradient><linearGradient id="g"><stop offset="0" stop-color="#afacd0"/><stop offset="1" stop-color="#eee"/></linearGradient><linearGradient id="i"><stop offset="0" stop-color="#cacaca" stop-opacity="0"/><stop offset=".583" stop-color="#fff" stop-opacity=".422"/><stop offset="1" stop-color="#cacaca" stop-opacity="0"/></linearGradient><linearGradient id="h"><stop offset="0" stop-color="#ececec"/><stop offset=".489" stop-color="#cacaca" stop-opacity=".459"/><stop offset="1" stop-color="#ececec"/></linearGradient><linearGradient id="c"><stop offset="0" stop-color="#bebebe"/><stop offset=".489" stop-color="#aeaeae" stop-opacity=".459"/><stop offset="1" stop-color="#bebebe"/></linearGradient><linearGradient id="b"><stop offset="0" stop-color="#dfdfdf"/><stop offset=".489" stop-color="silver" stop-opacity=".459"/><stop offset="1" stop-color="#dfdfdf"/></linearGradient><linearGradient xlink:href="#d" id="x" gradientUnits="userSpaceOnUse" gradientTransform="matrix(1.07772 0 0 .90037 -12.594 9.605)" x1="158.822" y1="98.639" x2="158.822" y2="88.728"/><linearGradient id="d"><stop offset="0" stop-color="#444"/><stop offset="1" stop-color="#ececec"/></linearGradient><linearGradient xlink:href="#e" id="y" gradientUnits="userSpaceOnUse" gradientTransform="matrix(.84789 0 0 .84296 23.882 13.537)" x1="160.167" y1="110.428" x2="160.167" y2="94.122"/><linearGradient id="e"><stop offset="0" stop-color="#a7a7a7"/><stop offset="1" stop-color="#eee"/></linearGradient><linearGradient xlink:href="#f" id="z" gradientUnits="userSpaceOnUse" gradientTransform="matrix(.75437 0 0 .75437 38.724 23.007)" x1="158.671" y1="97.368" x2="158.671" y2="90.163"/><linearGradient id="f"><stop offset="0" stop-color="#a7a7a7"/><stop offset=".505" stop-color="#5b5b5b"/><stop offset="1" stop-color="#303030"/></linearGradient><linearGradient xlink:href="#b" id="r" gradientUnits="userSpaceOnUse" gradientTransform="matrix(.497 0 0 .35858 -55.182 -34.04)" x1="153.284" y1="153.493" x2="165.174" y2="153.204"/><linearGradient xlink:href="#n" id="s" gradientUnits="userSpaceOnUse" x1="140.347" y1="191.371" x2="177.871" y2="191.371"/><linearGradient xlink:href="#o" id="w" gradientUnits="userSpaceOnUse" x1="160" y1="175.786" x2="160" y2="150"/><linearGradient xlink:href="#a" id="q" gradientUnits="userSpaceOnUse" gradientTransform="matrix(1.60037 0 0 1.61052 -14.292 -13.187)" x1="24.117" y1="4.931" x2="23.981" y2="42.599"/><linearGradient xlink:href="#i" id="t" gradientUnits="userSpaceOnUse" gradientTransform="translate(-5 -403)" x1="143.757" y1="216.607" x2="181.264" y2="216.607"/><linearGradient xlink:href="#i" id="u" gradientUnits="userSpaceOnUse" gradientTransform="translate(4 -324)" x1="134.54" y1="191.129" x2="179.142" y2="191.129"/><linearGradient xlink:href="#p" id="v" gradientUnits="userSpaceOnUse" x1="160" y1="171.465" x2="160" y2="119"/></defs><g color="#000"><path style="isolation:auto;mix-blend-mode:normal;marker:none" d="M11.086 2.086h26.005c3.506 0 6.995 3.494 6.995 7v31c0 3.506-3.494 6-7 6h-26c-3.506 0-7-3.494-7-7v-30c0-3.506 3.494-7 7-7z" display="block" overflow="visible" fill-opacity=".151" stroke-width=".635" paint-order="fill markers stroke"/><path style="isolation:auto;mix-blend-mode:normal;marker:none" d="M11.086 3.086h26c3.352 0 6 2.648 6 6v30c0 3.352-3.648 6-7 6h-25c-3.352 0-6-2.648-6-6v-30c0-3.352 2.648-6 6-6z" display="block" overflow="visible" fill="url(#q)" stroke-width=".606" paint-order="fill markers stroke"/><path style="line-height:normal;font-variant-ligatures:normal;font-variant-position:normal;font-variant-caps:normal;font-variant-numeric:normal;font-variant-alternates:normal;font-feature-settings:normal;text-indent:0;text-align:start;text-decoration-line:none;text-decoration-style:solid;text-decoration-color:#000;text-transform:none;text-orientation:mixed;shape-padding:0;isolation:auto;mix-blend-mode:normal;marker:none" d="M18.086 3.086v22c2.134 7.914 9.694 7.914 12 0v-22zm1 0h10v22c-2.086 7.253-9 6.813-10 0z" font-weight="400" font-family="sans-serif" white-space="normal" display="block" overflow="visible" fill="#fff" fill-opacity=".13" stroke-width=".333" paint-order="fill markers stroke"/><path d="M28 3h1v23c0 1.844-2.327 4-5 4s-5-2.156-5-4V3z" style="isolation:auto;mix-blend-mode:normal;marker:none" display="block" overflow="visible" fill-opacity=".094" stroke-width=".217" paint-order="fill markers stroke"/><path style="isolation:auto;mix-blend-mode:normal;marker:none" d="M27 3v22c0 1.652-1.348 3-3 3a3.01 3.01 0 0 1-3-3V3z" display="block" overflow="visible" fill-opacity=".848" stroke-width=".162" paint-order="fill markers stroke"/><path d="M24 3.24V4h2v-.76zM24 4h-2v1h2zm0 1v1h2V5zm0 1h-2v1h2zm0 1v1h2V7zm0 1h-2v1h2zm0 1v1h2V9zm0 1h-2v1h2zm0 1v1h2v-1zm0 1h-2v1h2zm0 1v1h2v-1zm0 1h-2v1h2zm0 1v1h2v-1zm0 1h-2v1h2zm0 1v1h2v-1zm0 1h-2v1h2zm0 1v1h2v-1zm0 1h-2v1h2z" style="isolation:auto;mix-blend-mode:normal;marker:none" display="block" overflow="visible" fill="url(#r)" stroke-width=".276" stroke-opacity=".957" paint-order="fill markers stroke"/><path d="M11.086 3.086c-3.352 0-6 2.648-6 6v.667c0-3.352 2.648-5.667 6-5.667h26c3.352 0 6 2.315 6 5.667v-.667c0-3.352-2.648-6-6-6z" style="isolation:auto;mix-blend-mode:normal;marker:none" display="block" overflow="visible" fill="#fff" fill-opacity=".505" stroke-width=".909" paint-order="fill markers stroke"/><path style="isolation:auto;mix-blend-mode:normal;marker:none" d="M142 190h36v1.5h-36z" display="block" overflow="visible" fill="url(#s)" stroke-width=".829" paint-order="fill markers stroke" transform="translate(-82.581 -82.581) scale(.66667)"/><path transform="rotate(90 0 -82.581) scale(.66667)" style="isolation:auto;mix-blend-mode:normal;marker:none" d="M137.5-188.5H175v1.5h-37.5z" display="block" overflow="visible" fill="url(#t)" stroke-width=".829" paint-order="fill markers stroke"/><path transform="rotate(90 0 -82.581) scale(.66667)" style="isolation:auto;mix-blend-mode:normal;marker:none" d="M139-133h43.5v1.5H139z" display="block" overflow="visible" fill="url(#u)" stroke-width=".829" paint-order="fill markers stroke"/><path d="M140.5 128.5h39c5.028 0 9 3.973 9 9V148L160 172l-28.5-24v-10.5c0-5.027 3.972-9 9-9z" style="isolation:auto;mix-blend-mode:normal;marker:none" display="block" overflow="visible" fill="url(#v)" stroke-width=".909" paint-order="fill markers stroke" transform="translate(-82.581 -82.581) scale(.66667)"/><path style="line-height:normal;font-variant-ligatures:normal;font-variant-position:normal;font-variant-caps:normal;font-variant-numeric:normal;font-variant-alternates:normal;font-feature-settings:normal;text-indent:0;text-align:start;text-decoration-line:none;text-decoration-style:solid;text-decoration-color:#000;text-transform:none;text-orientation:mixed;shape-padding:0;isolation:auto;mix-blend-mode:normal" d="M188.5 148L160 172l-28.5-24v1.5l28.5 24 28.5-24z" font-weight="400" font-family="sans-serif" white-space="normal" overflow="visible" fill="url(#w)" fill-rule="evenodd" transform="translate(-82.581 -82.581) scale(.66667)"/><g transform="matrix(.88842 0 0 .88842 -116.76 -58.41)"><path d="M158.45 89.573c1.956 0 3.947 1.353 3.53 2.95l-.927 3.555c-.307 1.177-1.161 2.175-2.603 2.175-1.442 0-2.296-.998-2.603-2.175l-.928-3.555c-.416-1.597 1.575-2.95 3.53-2.95z" style="isolation:auto;mix-blend-mode:normal;marker:none" display="block" overflow="visible" fill="url(#x)" stroke="#2c2c2c" stroke-width=".373" paint-order="fill markers stroke"/><path style="isolation:auto;mix-blend-mode:normal;marker:none" d="M158.45 92.404c-1.546 0-2.545 1.257-2.79 2.774l-1.33 8.218c-.363 2.24 1.838 4.096 4.12 4.096s4.482-1.856 4.12-4.096l-1.33-8.218c-.246-1.517-1.245-2.774-2.79-2.774zm0 .844a1.973 1.962 0 0 1 1.972 1.961 1.973 1.962 0 0 1-1.972 1.964 1.973 1.962 0 0 1-1.973-1.964 1.973 1.962 0 0 1 1.973-1.96zm0 6.717a3.424 3.404 0 0 1 3.423 3.405 3.424 3.404 0 0 1-3.423 3.404 3.424 3.404 0 0 1-3.426-3.404 3.424 3.404 0 0 1 3.426-3.405z" display="block" overflow="visible" fill-opacity=".411" stroke-width=".143" stroke-opacity=".995" paint-order="fill markers stroke"/><path d="M158.45 93.223c-1.378 0-2.269 1.12-2.488 2.472l-1.185 7.327c-.324 1.997 1.638 3.652 3.673 3.652 2.034 0 3.996-1.655 3.673-3.652l-1.186-7.327c-.219-1.352-1.11-2.472-2.487-2.472zm0 .752c.97 0 1.758.783 1.758 1.748 0 .967-.787 1.75-1.758 1.75-.972 0-1.76-.783-1.76-1.75.001-.965.788-1.748 1.76-1.748zm0 6.524a2.507 2.507 0 0 1 2.513 2.5 2.507 2.507 0 0 1-2.514 2.499 2.507 2.507 0 0 1-2.514-2.5c0-1.38 1.125-2.5 2.514-2.5z" style="isolation:auto;mix-blend-mode:normal;marker:none" display="block" overflow="visible" fill="url(#y)" stroke="#646464" stroke-width=".128" stroke-opacity=".995" paint-order="fill markers stroke"/><rect ry=".754" y="90.896" x="157.695" height="6.035" width="1.509" style="isolation:auto;mix-blend-mode:normal;marker:none" display="block" overflow="visible" fill="url(#z)" stroke-width=".623" paint-order="fill markers stroke"/></g></g></svg>