<svg xmlns="http://www.w3.org/2000/svg" xmlns:xlink="http://www.w3.org/1999/xlink" height="48" viewBox="0 0 48 48" width="48"><title>Template icons dark</title><defs><linearGradient id="h"><stop offset="0" stop-color="#e1140e"/><stop offset="1" stop-color="#951318"/></linearGradient><linearGradient id="g" gradientTransform="matrix(0 -100 -100 0 96 146)" gradientUnits="userSpaceOnUse" x2="1"><stop offset="0" stop-color="#fff"/><stop offset="1" stop-color="#c7c7c7"/></linearGradient><linearGradient id="b"><stop offset="0" stop-color="#c6120c"/><stop offset="1" stop-color="#490306"/></linearGradient><linearGradient id="f"><stop offset="0" stop-opacity=".736"/><stop offset="1" stop-opacity="0"/></linearGradient><linearGradient id="e"><stop offset="0" stop-opacity=".742"/><stop offset="1" stop-opacity="0"/></linearGradient><linearGradient id="d"><stop offset="0" stop-color="#8c1919"/><stop offset="1" stop-color="#ff3030"/></linearGradient><linearGradient id="i"><stop offset="0" stop-color="#fff"/><stop offset="1" stop-color="#dac7b4"/></linearGradient><linearGradient id="c"><stop offset="0" stop-color="#362c2d" stop-opacity=".374"/><stop offset="1" stop-opacity="0"/></linearGradient><linearGradient id="a"><stop offset="0" stop-color="#2c2e31"/><stop offset="1" stop-color="#40464d"/></linearGradient><linearGradient xlink:href="#g" id="u" gradientUnits="userSpaceOnUse" x1="177.323" y1="176" x2="177.323" y2="200" gradientTransform="matrix(.53618 0 0 .53618 -61.411 -60.864)"/><linearGradient xlink:href="#h" id="t" gradientUnits="userSpaceOnUse" x1="173.088" y1="180.647" x2="173.088" y2="200" gradientTransform="matrix(.53618 0 0 .53618 -61.411 -60.864)"/><linearGradient xlink:href="#b" id="n" x1="-567.013" y1="546.542" x2="-567.013" y2="541.888" gradientUnits="userSpaceOnUse" gradientTransform="matrix(.40977 0 0 .40977 256.353 -201.846)"/><linearGradient xlink:href="#a" id="m" x1="-553.436" y1="535.695" x2="-538.458" y2="525.571" gradientUnits="userSpaceOnUse" gradientTransform="matrix(.40977 0 0 .40977 256.353 -201.846)"/><linearGradient xlink:href="#a" id="l" x1="-591.369" y1="535.056" x2="-580.187" y2="522.822" gradientUnits="userSpaceOnUse" gradientTransform="matrix(.40977 0 0 .40977 256.353 -201.846)"/><linearGradient xlink:href="#c" id="k" x1="166" y1="152" x2="166" y2="146" gradientUnits="userSpaceOnUse" gradientTransform="matrix(.82202 0 0 .82202 -110.883 -96.824)"/><linearGradient xlink:href="#g" id="o" gradientUnits="userSpaceOnUse" gradientTransform="matrix(.53618 0 0 .53618 -61.411 -60.864)" x1="177.323" y1="176" x2="177.323" y2="200"/><linearGradient xlink:href="#g" id="p" gradientUnits="userSpaceOnUse" gradientTransform="matrix(.53618 0 0 .53618 -61.411 -60.864)" x1="177.323" y1="176" x2="177.323" y2="200"/><linearGradient xlink:href="#h" id="q" gradientUnits="userSpaceOnUse" gradientTransform="matrix(.53618 0 0 .53618 -61.411 -60.864)" x1="173.088" y1="180.647" x2="173.088" y2="200"/><linearGradient xlink:href="#h" id="r" gradientUnits="userSpaceOnUse" gradientTransform="matrix(.53618 0 0 .53618 -61.411 -60.864)" x1="173.088" y1="180.647" x2="173.088" y2="200"/><linearGradient xlink:href="#g" id="s" gradientUnits="userSpaceOnUse" gradientTransform="matrix(.53618 0 0 .53618 -61.411 -60.864)" x1="177.323" y1="176" x2="177.323" y2="200"/><radialGradient xlink:href="#i" id="j" cx="167.805" cy="136.668" fx="167.805" fy="136.668" r="20.669" gradientTransform="matrix(.82202 0 0 .6793 -110.883 -77.433)" gradientUnits="userSpaceOnUse"/></defs><path d="M8.738 24.843c7.946 7.453 24.892 4.937 31.164.256 2.74-2.652 1.797-6.471-.687-7.392 7.283-16.172-17.67-26.276-22.91-7.914-3.079-5.738-14.704-.054-7.438 7.446-3.597.577-4.635 6.091-.129 7.604z" fill-opacity=".099" fill-rule="evenodd" stroke-width=".396"/><path style="isolation:auto;mix-blend-mode:normal;marker:none" d="M41.353 46.815a17.586 1.148 0 0 1-17.587 1.148A17.586 1.148 0 0 1 6.18 46.815a17.586 1.148 0 0 1 17.586-1.148 17.586 1.148 0 0 1 17.587 1.148z" color="#000" display="block" overflow="visible" fill-opacity=".17" stroke-width=".314" paint-order="fill markers stroke"/><path d="M9.542 24.418c7.538 7.07 23.616 4.684 29.567.243 2.6-2.516 1.704-6.14-.652-7.013 6.91-15.344-16.765-24.93-21.736-7.509-2.92-5.443-13.95-.05-7.057 7.065-3.412.548-4.397 5.779-.122 7.214z" fill="url(#j)" fill-rule="evenodd" stroke-width=".376"/><path d="M9.542 24.418c7.538 7.07 23.616 4.684 29.567.243 2.6-2.516 1.704-6.14-.652-7.013 6.91-15.344-16.765-24.93-21.736-7.509-2.92-5.443-13.95-.05-7.057 7.065-3.412.548-4.397 5.779-.122 7.214z" fill="url(#k)" fill-rule="evenodd" stroke-width=".376"/><path d="M19.13 17.403a2.55 2.55 0 1 1-5.1 0 2.55 2.55 0 0 1 5.1 0z" fill="url(#l)" stroke-width=".246" stroke-linecap="round" stroke-linejoin="round"/><path d="M34.673 17.664a2.55 2.55 0 1 1-5.1 0 2.55 2.55 0 0 1 5.1 0z" fill="url(#m)" stroke-width=".246" stroke-linecap="round" stroke-linejoin="round"/><path d="M28.19 20.59c-.605 4.635-7.318 4.368-7.616-.057-.053-.435.038-.397.46-.4l6.61-.036c.58-.054.59.009.545.493z" opacity=".848" fill="url(#n)" fill-rule="evenodd" stroke-width=".392"/><path d="M33.974 16.616a.803.803 0 1 1-1.605 0 .803.803 0 0 1 1.605 0zM18.09 16.616a.803.803 0 1 1-1.605 0 .803.803 0 0 1 1.605 0z" fill="#fefefe" stroke-width=".077" stroke-linecap="round" stroke-linejoin="round"/><path d="M18.549 46.975h3.673l-.519-19.278c-.007-2.017-3.517-2.648-4.033-.485z" fill="url(#o)" fill-rule="evenodd" stroke-width=".342"/><path d="M37.583 46.815a13.816.902 0 0 1-13.817.902 13.816.902 0 0 1-13.816-.902 13.816.902 0 0 1 13.816-.902 13.816.902 0 0 1 13.817.902z" style="isolation:auto;mix-blend-mode:normal;marker:none" color="#000" display="block" overflow="visible" fill-opacity=".17" stroke-width=".246" paint-order="fill markers stroke"/><path d="M29.229 46.975h-3.313l.29-19.38c.007-2.017 3.517-2.648 4.033-.485z" fill="url(#p)" fill-rule="evenodd" stroke-width=".342"/><path d="M21.974 46.975h3.942l.307-18.914c-.025-2.896-4.515-2.906-4.528-.047z" fill="url(#q)" fill-rule="evenodd" stroke-width=".342"/><path d="M32.718 46.975h-3.72l1.033-19.947c.055-2.016 3.66-2.569 4.142-.394z" fill="url(#r)" fill-rule="evenodd" stroke-width=".342"/><path d="M35.556 46.975h-3.07l1.704-20.668c.155-2.011 3.666-2.387 4.023-.191z" fill="url(#s)" fill-rule="evenodd" stroke-width=".342"/><path d="M15.307 46.975h3.674L17.676 27.13c-.055-2.016-3.66-2.569-4.142-.395z" fill="url(#t)" fill-rule="evenodd" stroke-width=".342"/><path d="M12.252 46.975h3.24l-1.975-20.567c-.155-2.01-3.666-2.386-4.023-.19z" fill="url(#u)" fill-rule="evenodd" stroke-width=".342"/></svg>