<svg xmlns="http://www.w3.org/2000/svg" xmlns:xlink="http://www.w3.org/1999/xlink" height="48" viewBox="0 0 48 48" width="48"><title>Template icons dark</title><defs><linearGradient id="b"><stop offset="0" stop-color="#cfdde2"/><stop offset="1" stop-color="#90a1b1"/></linearGradient><linearGradient id="g"><stop offset="0" stop-color="#fff" stop-opacity="0"/><stop offset=".48" stop-color="#fff"/><stop offset="1" stop-color="#f5f6f6" stop-opacity="0"/></linearGradient><linearGradient id="e"><stop offset="0" stop-color="#eaf2f7"/><stop offset="1" stop-color="#99b4c0"/></linearGradient><linearGradient id="f"><stop offset="0" stop-color="#c1dae3"/><stop offset="1" stop-color="#8a98b4"/></linearGradient><linearGradient id="d"><stop offset="0" stop-color="#d2d2d2"/><stop offset="1" stop-color="#939393"/></linearGradient><linearGradient id="c"><stop offset="0" stop-color="#671e1e"/><stop offset="1" stop-color="#d04044"/></linearGradient><linearGradient id="a"><stop offset="0" stop-color="#0c528e"/><stop offset="1" stop-color="#5fb19b"/></linearGradient><linearGradient xlink:href="#g" id="m" x1="146.804" y1="139.479" x2="174.466" y2="139.479" gradientUnits="userSpaceOnUse" gradientTransform="matrix(.22218 0 0 .3627 -11.72 -37.155)"/><linearGradient xlink:href="#g" id="l" gradientUnits="userSpaceOnUse" gradientTransform="matrix(.23995 0 0 .3627 -14.306 -19.98)" x1="146.804" y1="139.479" x2="174.466" y2="139.479"/><linearGradient xlink:href="#c" id="k" gradientUnits="userSpaceOnUse" gradientTransform="matrix(.48514 0 0 .48514 -53.582 -53.442)" x1="162.588" y1="185.95" x2="162.588" y2="134.436"/><linearGradient xlink:href="#a" id="j" x1="10.43" y1="43.068" x2="38.891" y2="13.193" gradientUnits="userSpaceOnUse" gradientTransform="matrix(.49803 0 0 .49803 -59.676 -61.27)"/><linearGradient gradientTransform="matrix(.51613 0 0 .51613 -58.58 -58.58)" xlink:href="#e" id="i" x1="168.352" y1="125.665" x2="168.352" y2="190.817" gradientUnits="userSpaceOnUse"/><linearGradient gradientTransform="matrix(.51613 0 0 .51613 -58.58 -58.58)" xlink:href="#b" id="h" gradientUnits="userSpaceOnUse" x1="161.702" y1="118.898" x2="161.702" y2="197.932"/></defs><g color="#000"><path d="M21.152.774c-.394 0-.615.312-.713.673l-1.512 5.565c-1.033.368-2.39.883-3.305 1.362l-5.007-2.882c-.325-.187-.7-.251-.98.028L5.563 9.592c-.279.279-.214.65-.028.975l2.815 4.92a17.873 17.873 0 0 0-1.465 3.424l-5.438 1.465c-.361.097-.673.318-.673.712v5.76c0 .395.312.61.673.709l5.318 1.449c.357 1.253.85 2.464 1.47 3.61l-2.744 4.77c-.186.324-.25.7.028.979l4.073 4.072c.278.279.65.214.975.028l4.705-2.695a17.873 17.873 0 0 0 3.69 1.54l1.414 5.243c.097.361.318.673.712.673h5.76c.394 0 .61-.312.709-.673l1.429-5.247a17.873 17.873 0 0 0 3.642-1.532l4.757 2.735c.325.186.7.25.98-.028l4.072-4.073c.279-.278.214-.654.028-.979l-2.759-4.812a17.872 17.872 0 0 0 1.425-3.531l5.422-1.465c.361-.098.673-.315.673-.709v-5.76c0-.394-.312-.614-.673-.713l-5.513-1.496a17.872 17.872 0 0 0-1.405-3.336l2.874-4.992c.186-.324.25-.7-.028-.98l-4.073-4.072c-.278-.278-.654-.213-.979-.027l-5.004 2.866c-1.103-.453-2.257-1.012-3.288-1.346l-1.516-5.609c-.098-.361-.315-.673-.709-.673h-5.76zm2.851 14.753a8.496 8.496 0 1 1 0 16.992 8.496 8.496 0 0 1 0-16.992z" style="isolation:auto;mix-blend-mode:normal;marker:none" overflow="visible" fill="none" stroke="#000" stroke-width="1.548" stroke-opacity=".168" paint-order="fill markers stroke"/><path style="isolation:auto;mix-blend-mode:normal;marker:none" d="M21.152.774c-.394 0-.615.312-.713.673l-1.512 5.565c-1.033.368-2.39.883-3.305 1.362l-5.007-2.882c-.325-.187-.7-.251-.98.028L5.563 9.592c-.279.279-.214.65-.028.975l2.815 4.92a17.873 17.873 0 0 0-1.465 3.424l-5.438 1.465c-.361.097-.673.318-.673.712v5.76c0 .395.312.61.673.71l5.318 1.448c.357 1.253.85 2.464 1.47 3.61l-2.744 4.77c-.186.324-.25.7.028.979l4.073 4.072c.278.279.65.214.975.028l4.705-2.695a17.873 17.873 0 0 0 3.69 1.54l1.414 5.243c.097.361.318.673.712.673h5.76c.394 0 .61-.312.709-.673l1.429-5.247a17.873 17.873 0 0 0 3.642-1.532l4.757 2.735c.325.186.7.25.98-.028l4.072-4.073c.279-.278.214-.654.028-.979l-2.759-4.812a17.872 17.872 0 0 0 1.425-3.531l5.422-1.465c.361-.098.673-.315.673-.709v-5.76c0-.394-.312-.614-.673-.713l-5.513-1.496a17.872 17.872 0 0 0-1.405-3.336l2.874-4.992c.186-.324.25-.7-.028-.98l-4.073-4.072c-.278-.278-.654-.213-.979-.027l-5.004 2.866c-1.103-.453-2.257-1.012-3.288-1.346l-1.516-5.609c-.098-.361-.315-.673-.709-.673h-5.76zm2.851 14.753a8.496 8.496 0 1 1 0 16.992 8.496 8.496 0 0 1 0-16.992z" overflow="visible" fill="url(#h)" stroke-width=".966" stroke-opacity=".141" paint-order="fill markers stroke"/><path style="line-height:normal;text-indent:0;text-align:start;text-decoration-line:none;text-decoration-style:solid;text-decoration-color:#000;text-transform:none;isolation:auto;mix-blend-mode:normal;marker:none" d="M24.003 5.671c-10.085 0-18.332 8.24-18.332 18.326 0 10.085 8.247 18.332 18.332 18.332 10.086 0 18.326-8.247 18.326-18.332 0-10.086-8.24-18.326-18.326-18.326zm0 3.888a14.371 14.371 0 0 1 14.438 14.437 14.378 14.378 0 0 1-14.437 14.445A14.385 14.385 0 0 1 9.559 23.996c0-8.025 6.42-14.437 14.445-14.437z" font-weight="400" font-family="sans-serif" white-space="normal" overflow="visible" fill-opacity=".173" stroke-width="1.7" stroke-opacity=".141" paint-order="fill markers stroke"/><path d="M24.003 6.226c-9.78 0-17.777 7.99-17.777 17.77 0 9.781 7.997 17.778 17.777 17.778 9.78 0 17.771-7.997 17.771-17.777 0-9.78-7.99-17.771-17.77-17.771zm0 3.77c7.782 0 14 6.218 14 14a13.943 13.943 0 0 1-14 14.008A13.95 13.95 0 0 1 9.997 23.996c0-7.782 6.226-14 14.008-14z" style="line-height:normal;text-indent:0;text-align:start;text-decoration-line:none;text-decoration-style:solid;text-decoration-color:#000;text-transform:none;isolation:auto;mix-blend-mode:normal;marker:none" font-weight="400" font-family="sans-serif" white-space="normal" overflow="visible" fill="url(#i)" stroke-width="1.649" stroke-opacity=".141" paint-order="fill markers stroke"/><path d="M24.002 9.992c-7.708 0-14.01 6.298-14.01 14.006s6.302 14.01 14.01 14.01 14.006-6.302 14.006-14.01S31.71 9.992 24.002 9.992zm.001 3.535A10.449 10.449 0 0 1 34.5 24.023a10.454 10.454 0 0 1-10.497 10.502 10.459 10.459 0 0 1-10.502-10.502 10.454 10.454 0 0 1 10.502-10.496z" style="line-height:normal;text-indent:0;text-align:start;text-decoration-line:none;text-decoration-style:solid;text-decoration-color:#000;text-transform:none;isolation:auto;mix-blend-mode:normal;marker:none" font-weight="400" font-family="sans-serif" white-space="normal" overflow="visible" fill="url(#j)" stroke-width="1.032" paint-order="fill markers stroke"/><path style="line-height:normal;text-indent:0;text-align:start;text-decoration-line:none;text-decoration-style:solid;text-decoration-color:#000;text-transform:none;isolation:auto;mix-blend-mode:normal;marker:none" d="M24.002 9.992c-7.708 0-14.01 6.298-14.01 14.006s6.302 14.01 14.01 14.01 14.006-6.302 14.006-14.01S31.71 9.992 24.002 9.992zm.001 3.535A10.449 10.449 0 0 1 34.5 24.023a10.454 10.454 0 0 1-10.497 10.502 10.459 10.459 0 0 1-10.502-10.502 10.454 10.454 0 0 1 10.502-10.496z" font-weight="400" font-family="sans-serif" white-space="normal" overflow="visible" fill="url(#k)" stroke-width="1.299" stroke-opacity=".141" paint-order="fill markers stroke"/><path style="line-height:normal;text-indent:0;text-align:start;text-decoration-line:none;text-decoration-style:solid;text-decoration-color:#000;text-transform:none;isolation:auto;mix-blend-mode:normal;marker:none" d="M24.002 9.992c-7.708 0-14.01 6.298-14.01 14.006 0 .087.005.172.006.258.14-7.59 6.382-13.748 14.004-13.748s13.86 6.158 14 13.748c.002-.086.006-.171.006-.258 0-7.708-6.298-14.006-14.006-14.006z" font-weight="400" font-family="sans-serif" white-space="normal" overflow="visible" fill-opacity=".283" stroke-width="1.299" stroke-opacity=".141" paint-order="fill markers stroke"/><path style="isolation:auto;mix-blend-mode:normal;marker:none" d="M21.152.774c-.394 0-.614.312-.712.673l-1.514 5.565c-1.032.369-2.39.883-3.304 1.362l-5.007-2.882c-.324-.187-.701-.25-.98.028L5.563 9.592c-.21.209-.224.47-.14.726a.637.637 0 0 1 .14-.21l4.072-4.072c.279-.278.656-.215.98-.028l5.007 2.882c.915-.479 2.272-.993 3.304-1.362l1.514-5.565c.098-.361.318-.673.712-.673h5.76c.395 0 .612.313.709.674l1.516 5.609c1.03.333 2.185.891 3.288 1.344l5.004-2.866c.325-.185.7-.25.98.029l4.072 4.072c.066.066.11.137.141.212.083-.255.068-.52-.141-.728l-4.073-4.072c-.278-.28-.654-.214-.979-.029l-5.004 2.866c-1.103-.453-2.258-1.01-3.288-1.345l-1.516-5.608c-.097-.362-.314-.674-.709-.674zM8.21 15.757a17.869 17.869 0 0 0-1.324 3.154l-5.438 1.465c-.362.097-.673.319-.673.713v.516c0-.394.311-.616.673-.713l5.438-1.465a17.872 17.872 0 0 1 1.465-3.423zm31.565.122l-.14.244a17.871 17.871 0 0 1 1.405 3.336l5.514 1.497c.361.098.673.318.673.712v-.516c0-.394-.312-.614-.673-.712l-5.514-1.497a17.865 17.865 0 0 0-1.265-3.064zM8.094 32.858l-2.603 4.527c-.143.248-.212.526-.113.768.028-.085.066-.17.113-.252l2.743-4.768c-.049-.09-.092-.184-.14-.275zm31.75 0c-.047.091-.09.185-.138.275l2.759 4.813c.046.08.085.165.113.25.098-.241.029-.518-.113-.767z" overflow="visible" fill="#fff" fill-opacity=".675" stroke-width=".966" stroke-opacity=".141" paint-order="fill markers stroke"/><path style="line-height:normal;text-indent:0;text-align:start;text-decoration-line:none;text-decoration-style:solid;text-decoration-color:#000;text-transform:none;isolation:auto;mix-blend-mode:normal;marker:none" d="M24.003 14.201c-5.947 0-10.809 4.859-10.809 10.805s4.862 10.808 10.809 10.808c5.946 0 10.804-4.862 10.804-10.808S29.95 14.201 24.003 14.201zm-.001 4.442a6.359 6.359 0 0 1 6.387 6.388c0 3.55-2.837 6.39-6.387 6.39-3.55 0-6.391-2.84-6.391-6.39s2.84-6.388 6.39-6.388z" font-weight="400" font-family="sans-serif" white-space="normal" overflow="visible" fill-opacity=".168" stroke-width="1.054" stroke-opacity=".141" paint-order="fill markers stroke"/><path d="M24.033 13.25c-5.947 0-10.809 4.858-10.809 10.804 0 5.946 4.862 10.808 10.809 10.808 5.946 0 10.804-4.862 10.804-10.808S29.98 13.249 24.033 13.249zm0 4.392a6.359 6.359 0 0 1 6.388 6.388c0 3.55-2.837 6.39-6.388 6.39-3.55 0-6.39-2.84-6.39-6.39s2.84-6.388 6.39-6.388z" style="line-height:normal;text-indent:0;text-align:start;text-decoration-line:none;text-decoration-style:solid;text-decoration-color:#000;text-transform:none;isolation:auto;mix-blend-mode:normal;marker:none" font-weight="400" font-family="sans-serif" white-space="normal" overflow="visible" fill="#b1c7d0" stroke-width="1.054" stroke-opacity=".141" paint-order="fill markers stroke"/><path style="line-height:normal;text-indent:0;text-align:start;text-decoration-line:none;text-decoration-style:solid;text-decoration-color:#000;text-transform:none;isolation:auto;mix-blend-mode:normal;marker:none" d="M24.038 30.432a6.361 6.361 0 0 1-6.39-6.387c0-.088.009-.172.012-.259.135 3.428 2.915 5.802 6.378 5.802 3.464 0 6.24-2.374 6.374-5.802.004.087.014.171.014.259a6.358 6.358 0 0 1-6.388 6.387z" font-weight="400" font-family="sans-serif" white-space="normal" overflow="visible" fill="#718085" stroke-width="1.054" stroke-opacity=".141" paint-order="fill markers stroke"/><path style="line-height:normal;text-indent:0;text-align:start;text-decoration-line:none;text-decoration-style:solid;text-decoration-color:#000;text-transform:none;isolation:auto;mix-blend-mode:normal;marker:none" d="M24.032 13.25c-5.946 0-10.807 4.857-10.807 10.804 0 .082.004.163.005.245.132-5.833 4.938-10.558 10.802-10.558S34.7 18.466 34.831 24.299c.002-.082.006-.163.006-.245 0-5.947-4.858-10.804-10.805-10.804zm-6.377 11.038c-.003.087-.013.171-.013.258 0 3.55 2.84 6.39 6.391 6.39a6.36 6.36 0 0 0 6.387-6.39c0-.087-.01-.171-.013-.258a6.354 6.354 0 0 1-6.374 6.132 6.357 6.357 0 0 1-6.378-6.132z" font-weight="400" font-family="sans-serif" white-space="normal" overflow="visible" fill="#fff" fill-opacity=".691" stroke-width="1.054" stroke-opacity=".141" paint-order="fill markers stroke"/><path style="isolation:auto;mix-blend-mode:normal;marker:none" overflow="visible" fill="url(#l)" stroke-width=".59" paint-order="fill markers stroke" d="M20.919 30.345h6.638v.528h-6.638z"/><path style="isolation:auto;mix-blend-mode:normal;marker:none" overflow="visible" fill="url(#m)" stroke-width=".568" paint-order="fill markers stroke" d="M20.897 13.169h6.146v.528h-6.146z"/></g></svg>