<svg xmlns="http://www.w3.org/2000/svg" xmlns:xlink="http://www.w3.org/1999/xlink" height="48" viewBox="0 0 48 48" width="48"><title>Template icons dark</title><defs><linearGradient id="b"><stop offset="0" stop-color="#212121"/><stop offset="1" stop-color="#282828"/></linearGradient><linearGradient id="a"><stop offset="0" stop-color="#8683ee"/><stop offset="1" stop-color="#1ed7b6"/></linearGradient><linearGradient xlink:href="#a" id="d" x1="4.376" y1="5.854" x2="42.128" y2="43.605" gradientUnits="userSpaceOnUse" gradientTransform="translate(-2.52 -4.147) scale(1.10127)"/><linearGradient xlink:href="#a" id="c" x1="183.831" y1="182.717" x2="134.463" y2="144.519" gradientUnits="userSpaceOnUse" gradientTransform="matrix(.51677 0 0 .51677 -58.682 -58.682)"/></defs><g><circle style="isolation:auto;mix-blend-mode:normal;marker:none" cx="24" cy="24" r="24" color="#000" display="block" overflow="visible" fill-opacity=".078" stroke-width="1.042"/><circle style="isolation:auto;mix-blend-mode:normal;marker:none" cx="24" cy="24" r="23" color="#000" overflow="visible" fill="#303030" stroke-width="1.282"/><circle r="23" cy="24" cx="24" style="isolation:auto;mix-blend-mode:normal;marker:none" color="#000" overflow="visible" opacity=".119" fill="url(#c)" stroke-width="1.282"/><path style="line-height:normal;font-variant-ligatures:normal;font-variant-position:normal;font-variant-caps:normal;font-variant-numeric:normal;font-variant-alternates:normal;font-feature-settings:normal;text-indent:0;text-align:start;text-decoration-line:none;text-decoration-style:solid;text-decoration-color:#000;text-transform:none;text-orientation:mixed;shape-padding:0;isolation:auto;mix-blend-mode:normal;marker:none" d="M24 1C11.305 1 1 11.305 1 24s10.305 23 23 23 23-10.305 23-23S36.695 1 24 1zm0 1.25c12.02 0 21.75 9.73 21.75 21.75S36.02 45.75 24 45.75 2.25 36.02 2.25 24 11.98 2.25 24 2.25z" color="#000" font-weight="400" font-family="sans-serif" white-space="normal" overflow="visible" fill="url(#d)" stroke-width="1.282"/><path d="M12.78 7.9l.027 6.205 6.75 6.152-6.766 6.168-.01 6.19 13.554-12.358zm24.003 7.986L23.23 28.842l13.554 12.956.018-6.161-6.795-6.795 6.79-6.79z" fill-opacity=".147" fill-rule="evenodd" stroke-width="3.604"/><path d="M36.784 14.688L23.228 27.644 36.784 40.6l.017-6.161-6.795-6.795 6.79-6.79z" fill="#7f91e9" fill-rule="evenodd" stroke-width="6.383"/><path d="M11.78 7.702l13.555 12.357L11.78 32.416l.011-6.19 6.767-6.167-6.751-6.152z" fill="#25c9bb" fill-rule="evenodd" stroke-width="6.383"/><path d="M24 2.25C11.995 2.25 2.25 11.995 2.25 24S11.995 45.75 24 45.75 45.75 36.005 45.75 24 36.005 2.25 24 2.25zm0 1.182c11.366 0 20.568 9.202 20.568 20.568 0 11.366-9.202 20.568-20.568 20.568-11.366 0-20.568-9.202-20.568-20.568C3.432 12.634 12.634 3.432 24 3.432z" style="line-height:normal;font-variant-ligatures:normal;font-variant-position:normal;font-variant-caps:normal;font-variant-numeric:normal;font-variant-alternates:normal;font-feature-settings:normal;text-indent:0;text-align:start;text-decoration-line:none;text-decoration-style:solid;text-decoration-color:#000;text-transform:none;text-orientation:mixed;shape-padding:0;isolation:auto;mix-blend-mode:normal;marker:none" color="#000" font-weight="400" font-family="sans-serif" white-space="normal" overflow="visible" fill-opacity=".179" stroke-width="1.212"/><path d="M39.784 21.387l-6.547 6.257 6.547 6.257.008-2.975-3.281-3.282 3.279-3.28zM42.918 24l-3.812 3.644 3.812 3.644.006-1.733-1.911-1.911 1.909-1.91z" fill="#7f91e9" fill-opacity=".118" fill-rule="evenodd" stroke-width="3.083"/><path d="M7.876 13.887l-.006 2.977 3.28 3.28-3.282 3.282.008 2.975 6.548-6.257zM4.742 16.5l-.004 1.734 1.91 1.91-1.91 1.91.004 1.734 3.813-3.644z" fill="#25c9bb" fill-opacity=".118" fill-rule="evenodd" stroke-width="3.083"/></g></svg>