<svg xmlns="http://www.w3.org/2000/svg" xmlns:xlink="http://www.w3.org/1999/xlink" height="48" viewBox="0 0 48 48" width="48"><title>Template icons dark</title><defs><linearGradient id="e"><stop offset="0" stop-color="#242a34"/><stop offset="1" stop-color="#443f4c"/></linearGradient><linearGradient id="d"><stop offset="0" stop-color="#b1e3f2"/><stop offset="1"/></linearGradient><linearGradient id="f"><stop offset="0" stop-color="#aea6b6"/><stop offset="1" stop-color="#e4e4e4"/></linearGradient><linearGradient id="c"><stop offset="0" stop-color="#2d3840"/><stop offset="1" stop-color="#5f5777"/></linearGradient><linearGradient id="b"><stop offset="0" stop-color="#e8c2ee"/><stop offset="1" stop-color="#98d1e8"/></linearGradient><linearGradient id="a"><stop offset="0" stop-color="#50b4ce"/><stop offset="1" stop-color="#df2fb9" stop-opacity=".974"/></linearGradient><linearGradient id="g"><stop offset="0" stop-color="#e8c2ee"/><stop offset="1" stop-color="#98d1e8"/></linearGradient><linearGradient xlink:href="#f" id="h" gradientUnits="userSpaceOnUse" gradientTransform="matrix(.481 0 0 .48075 -52.933 -53.31)" x1="154.325" y1="239.481" x2="153.538" y2="177.822"/><linearGradient xlink:href="#f" id="i" gradientUnits="userSpaceOnUse" gradientTransform="matrix(.481 0 0 .48075 -52.933 -53.31)" x1="151.033" y1="198.284" x2="151.033" y2="118.162"/><linearGradient xlink:href="#a" id="j" x1="120.752" y1="131.244" x2="191.98" y2="189.032" gradientUnits="userSpaceOnUse" gradientTransform="matrix(0 -.4846 .4846 0 -53.496 97.623)"/><linearGradient xlink:href="#c" id="k" x1="119.039" y1="133.562" x2="178.802" y2="193.325" gradientUnits="userSpaceOnUse" gradientTransform="matrix(0 -.48996 .48996 0 -54.353 98.434)"/><linearGradient xlink:href="#e" id="l" x1="159.097" y1="188.196" x2="159.097" y2="134.451" gradientUnits="userSpaceOnUse" gradientTransform="matrix(.49962 0 0 .49962 -55.92 -56.327)"/><linearGradient xlink:href="#d" id="m" x1="159.057" y1="187.825" x2="159.057" y2="132.319" gradientUnits="userSpaceOnUse" gradientTransform="matrix(.49962 0 0 .49962 -55.965 -55.497)"/><linearGradient xlink:href="#g" id="n" x1="151" y1="147" x2="151" y2="171.95" gradientUnits="userSpaceOnUse" gradientTransform="matrix(.28815 0 0 .28815 -19.711 -22.165)"/></defs><g color="#000"><path style="isolation:auto;mix-blend-mode:normal;marker:none" d="M16.487 47.555C10.84 37.773 5.647 28.359 0 18.577c4.497-7.79 3.466-5.88 6.995-11.991h33.95c3.378 5.851 3.092 5.19 7.018 11.99-5.69 9.855-10.798 19.124-16.487 28.979z" overflow="visible" fill="#000808" fill-opacity=".147" stroke-width=".263" stroke-opacity="0"/><path d="M16.987 47.055C11.509 37.567 5.97 28.065.492 18.577c4.362-7.555 3.58-5.564 7.002-11.491H40.47c3.277 5.675 3.186 4.894 6.995 11.49-5.519 9.559-10.97 18.921-16.488 28.479z" style="isolation:auto;mix-blend-mode:normal;marker:none" overflow="visible" fill="url(#h)" stroke="url(#linearGradient1010)" stroke-width=".565"/><path style="isolation:auto;mix-blend-mode:normal;marker:none" d="M17.487 46.555C12.134 37.284 6.352 27.848.999 18.577c4.263-7.383 3.65-5.2 6.995-10.992h31.975c3.202 5.546 3.273 4.546 6.995 10.992-5.392 9.34-11.095 18.639-16.487 27.978z" overflow="visible" fill="url(#i)" stroke="url(#linearGradient1010)" stroke-width=".565"/><path d="M31.512 1.129C37.16 10.91 42.352 20.324 48 30.106c-4.498 7.79-3.467 5.88-6.995 11.991H7.055c-3.379-5.851-3.092-5.19-7.019-11.99 5.69-9.855 10.798-19.124 16.488-28.978z" style="isolation:auto;mix-blend-mode:normal;marker:none" overflow="visible" fill="#000808" fill-opacity=".147" stroke-width=".263" stroke-opacity="0"/><path style="isolation:auto;mix-blend-mode:normal;marker:none" d="M31.013 1.628c5.478 9.488 11.017 18.99 16.495 28.478-4.362 7.555-3.58 5.564-7.003 11.492H7.531C4.254 35.922 4.345 36.703.536 30.106c5.518-9.558 10.969-18.92 16.487-28.478z" overflow="visible" fill="url(#j)" stroke-width=".255" stroke-opacity="0"/><path d="M30.513 2.128C35.866 11.399 41.647 20.835 47 30.106c-4.262 7.383-3.65 5.2-6.994 10.992H8.03c-3.202-5.546-3.273-4.546-6.994-10.992 5.392-9.34 11.095-18.638 16.487-27.978z" style="isolation:auto;mix-blend-mode:normal;marker:none" overflow="visible" fill="url(#k)" stroke-width=".249" stroke-opacity="0"/><path style="isolation:auto;mix-blend-mode:normal;marker:none" d="M37.65 24.5a13.869 13.869 0 0 1-13.868 13.87A13.869 13.869 0 0 1 9.912 24.5a13.869 13.869 0 0 1 13.87-13.868A13.869 13.869 0 0 1 37.65 24.5z" overflow="visible" fill="url(#l)" stroke-width=".518"/><path style="line-height:normal;font-variant-ligatures:normal;font-variant-position:normal;font-variant-caps:normal;font-variant-numeric:normal;font-variant-alternates:normal;font-feature-settings:normal;text-indent:0;text-align:start;text-decoration-line:none;text-decoration-style:solid;text-decoration-color:#000;text-transform:none;text-orientation:mixed;shape-padding:0;isolation:auto;mix-blend-mode:normal;marker:none" d="M23.782 10.24c-7.872 0-14.26 6.389-14.26 14.26 0 7.872 6.388 14.26 14.26 14.26 7.871 0 14.26-6.388 14.26-14.26 0-7.871-6.389-14.26-14.26-14.26zm0 .75c7.466 0 13.51 6.044 13.51 13.51 0 7.467-6.044 13.511-13.51 13.511-7.467 0-13.511-6.044-13.511-13.51 0-7.467 6.044-13.512 13.51-13.512z" font-weight="400" font-family="sans-serif" white-space="normal" display="block" overflow="visible" opacity=".996" fill="url(#m)" stroke-width=".749"/><path d="M30.949 24.302l-5.42 3.13-5.42 3.13V18.043l5.42 3.13z" style="isolation:auto;mix-blend-mode:normal;marker:none" overflow="visible" fill-opacity=".288" stroke-width=".144" stroke-opacity="0"/><path style="isolation:auto;mix-blend-mode:normal;marker:none" d="M30.949 23.692l-5.42 3.13-5.42 3.129V17.434l5.42 3.129z" overflow="visible" fill="url(#n)" stroke-width=".144" stroke-opacity="0"/><path style="isolation:auto;mix-blend-mode:normal;marker:none" d="M20.108 17.433v12.518l5.42-3.13 5.421-3.129-.355-.205-4.777 2.758-5.42 3.13V17.6z" overflow="visible" fill="#feeaeb" stroke-width=".144" stroke-opacity="0"/></g></svg>