<svg xmlns="http://www.w3.org/2000/svg" xmlns:xlink="http://www.w3.org/1999/xlink" height="48" viewBox="0 0 48 48" width="48"><title>Template icons dark</title><defs><linearGradient id="c"><stop offset="0" stop-color="#8e8eb4"/><stop offset="1" stop-color="#fdfdfe"/></linearGradient><linearGradient id="b"><stop offset="0" stop-color="#9d9eb3"/><stop offset="1" stop-color="#bcbcbc"/></linearGradient><linearGradient id="a"><stop offset="0" stop-color="#530559"/><stop offset="1" stop-color="#8108f2"/></linearGradient><linearGradient xlink:href="#a" id="f" x1="-252.036" y1="73.11" x2="-193.17" y2="102.89" gradientUnits="userSpaceOnUse" gradientTransform="matrix(-.20253 -.45907 .40034 -.30248 -56.74 -56.372)"/><linearGradient gradientTransform="matrix(.50176 0 0 .50176 -56.305 -56.372)" xlink:href="#c" id="e" x1="160.004" y1="206.598" x2="160.004" y2="197.991" gradientUnits="userSpaceOnUse"/><linearGradient gradientTransform="matrix(.50176 0 0 .50176 -56.305 -56.372)" xlink:href="#b" id="d" x1="160.098" y1="193.342" x2="160.098" y2="197.786" gradientUnits="userSpaceOnUse"/></defs><path style="isolation:auto;mix-blend-mode:normal;marker:none" d="M16.944 39.995l-4.098 2.852-3.686 5.08 29.155.042-3.021-5.07-4.75-2.872z" color="#000" fill-opacity=".184" fill-rule="evenodd" stroke-width=".43" stroke-linejoin="round"/><path style="isolation:auto;mix-blend-mode:normal;marker:none" d="M13.646 42.932l20.799.047-4.401-2.475-12.602-.029z" color="#000" fill="url(#d)" fill-rule="evenodd" stroke-width=".398" stroke-linejoin="round"/><path style="isolation:auto;mix-blend-mode:normal;marker:none" d="M10.23 47.483l3.416-4.551 20.799.047 2.8 4.543z" color="#000" fill="url(#e)" fill-rule="evenodd" stroke-width=".398" stroke-linejoin="round"/><path style="isolation:auto;mix-blend-mode:normal;marker:none" d="M1.461 12.275C7.41 4.41 15.513-.02 23.97-.03c8.457-.01 16.566 4.402 22.524 12.255L23.997 39.737z" color="#000" display="block" overflow="visible" fill-opacity=".195" stroke-width="1.464" stroke-linecap="square" stroke-opacity=".279"/><path style="isolation:auto;mix-blend-mode:normal;marker:none" d="M3.457 13.023A37.813 28.894 90 0 1 23.97 1.808a37.813 28.894 90 0 1 20.528 11.168L23.995 39.621z" color="#000" display="block" overflow="visible" fill="url(#f)" stroke-width="1.334" stroke-linecap="square" stroke-opacity=".279"/><path style="isolation:auto;mix-blend-mode:normal;marker:none" d="M23.97 1.808A28.894 37.813 0 0 0 3.456 13.023l.403.521A28.894 37.813 0 0 1 23.97 2.811a28.894 37.813 0 0 1 20.127 10.686l.4-.521A28.894 37.813 0 0 0 23.97 1.808z" color="#000" display="block" overflow="visible" fill="#fff" fill-opacity=".137" stroke-width="1.334" stroke-linecap="square" stroke-opacity=".279"/><path d="M22.388 10.331v7.788h.651V17.04c.206.348.49.632.853.853.37.22.774.332 1.215.332.37 0 .715-.076 1.035-.225.327-.156.61-.363.844-.62a2.98 2.98 0 0 0 .554-.916 3.144 3.144 0 0 0 .021-2.165 2.854 2.854 0 0 0-.501-.928 2.367 2.367 0 0 0-.79-.662 2.183 2.183 0 0 0-1.045-.246c-.462 0-.867.118-1.215.353-.349.227-.649.53-.898.906v-3.392zm-4.713.212l-3.17 7.576h.801l.971-2.368h3.403l.982 2.368h.789l-3.146-7.576zm.308.877l1.526 3.744h-3.073zm13.39 1.044c-.413 0-.79.075-1.132.224a2.687 2.687 0 0 0-1.45 1.526 3.045 3.045 0 0 0-.204 1.11c0 .398.069.77.204 1.12.142.348.338.657.587.927.249.263.543.474.885.63.341.15.715.225 1.12.225.264 0 .515-.036.757-.107.25-.064.474-.156.673-.277.206-.128.384-.275.534-.439.149-.17.262-.354.34-.553l-.713-.214a.989.989 0 0 1-.225.362 1.876 1.876 0 0 1-.384.31 2.155 2.155 0 0 1-1.014.277c-.277 0-.541-.057-.79-.171a2.219 2.219 0 0 1-.639-.48 2.32 2.32 0 0 1-.437-.725 2.444 2.444 0 0 1-.16-.885c0-.32.05-.617.15-.887.106-.27.248-.5.426-.692.185-.2.398-.356.64-.47.25-.113.515-.17.8-.17.341 0 .65.082.928.245.284.157.505.376.662.66l.703-.222a2.26 2.26 0 0 0-.885-.96c-.391-.242-.85-.365-1.376-.365zm-6.35.64c.292 0 .558.065.8.193.249.12.46.288.63.501.178.207.312.444.405.714.1.27.15.553.15.844 0 .285-.054.562-.16.832-.1.263-.242.5-.427.714a2.073 2.073 0 0 1-.652.501c-.249.121-.525.182-.831.182-.185 0-.381-.036-.587-.107a2.492 2.492 0 0 1-.566-.287c-.17-.121-.32-.263-.448-.427a1.252 1.252 0 0 1-.225-.544v-1.73c.085-.184.193-.359.321-.522.128-.17.274-.32.438-.448.163-.128.341-.227.533-.298.192-.078.399-.118.62-.118z" style="line-height:1000%;-inkscape-font-specification:Raleway" font-weight="400" font-family="Raleway" letter-spacing="0" word-spacing="0" fill="#fefefd" fill-opacity=".995" stroke-width=".5"/><path d="M12.992 4.758v4.394h1.099V5.856h3.295V4.758zm17.576 0v1.098h3.296v3.296h1.099V4.758zM12.992 21.33v4.394h4.394v-1.099h-3.295v-3.295zm20.872 0v3.295h-3.296v1.099h4.395V21.33z" fill="#fefefe" fill-rule="evenodd" stroke-width=".275"/><path style="isolation:auto;mix-blend-mode:normal;marker:none" d="M7.734 14.465H40.22v4.394H7.734z" color="#000" display="block" overflow="visible" fill="#ff2e97" fill-opacity=".116" stroke-width=".123"/><path style="isolation:auto;mix-blend-mode:normal;marker:none" d="M6.231 14.465h35.492v2.197H6.231z" color="#000" display="block" overflow="visible" fill="#ff2e97" fill-opacity=".389" stroke-width=".091"/><path style="isolation:auto;mix-blend-mode:normal;marker:none" d="M5.287 14.465h37.38v.569H5.287z" color="#000" display="block" overflow="visible" fill="#ff2e97" stroke-width=".048"/></svg>