<svg xmlns="http://www.w3.org/2000/svg" xmlns:xlink="http://www.w3.org/1999/xlink" height="48" viewBox="0 0 48 48" width="48"><title>Template icons dark</title><defs><linearGradient id="h"><stop offset="0" stop-color="#53b679"/><stop offset="1" stop-color="#189189"/></linearGradient><linearGradient id="g"><stop offset="0" stop-color="#58c27e"/><stop offset=".194" stop-color="#d5db7e"/><stop offset=".681" stop-color="#fdb63d" stop-opacity=".989"/><stop offset="1" stop-color="#d66026"/></linearGradient><linearGradient id="f"><stop offset="0" stop-color="#18b378"/><stop offset="1" stop-color="#5bc981"/></linearGradient><linearGradient id="e"><stop offset="0" stop-color="#5ccb82"/><stop offset="1" stop-color="#479c6c"/></linearGradient><linearGradient id="d"><stop offset="0" stop-color="#097b8c"/><stop offset="1" stop-color="#27a787"/></linearGradient><linearGradient id="c"><stop offset="0" stop-color="#242d3c"/><stop offset="1" stop-color="#374160"/></linearGradient><linearGradient id="a"><stop offset="0" stop-color="#d78383"/><stop offset="1" stop-color="#fefefe"/></linearGradient><linearGradient id="b"><stop offset="0" stop-color="#2c2c2c"/><stop offset="1" stop-color="#4c4c4c"/></linearGradient><linearGradient gradientTransform="scale(.49545) rotate(-30 -101.812 312.99)" xlink:href="#c" id="i" x1="127.52" y1="180.599" x2="204.29" y2="154.964" gradientUnits="userSpaceOnUse"/><linearGradient gradientTransform="scale(.49545) rotate(-30 -101.812 312.99)" xlink:href="#h" id="j" x1="140.881" y1="187.394" x2="176.248" y2="126.137" gradientUnits="userSpaceOnUse"/><linearGradient xlink:href="#d" id="k" gradientUnits="userSpaceOnUse" gradientTransform="matrix(.5 0 0 .5 -55.998 -55.367)" x1="160.063" y1="176" x2="160.063" y2="196"/><linearGradient gradientTransform="matrix(.5 0 0 .5 -56.006 -55.43)" xlink:href="#f" id="l" x1="160.882" y1="204.887" x2="160.882" y2="180.705" gradientUnits="userSpaceOnUse"/><linearGradient xlink:href="#e" id="m" x1="160" y1="180" x2="160" y2="171.339" gradientUnits="userSpaceOnUse" gradientTransform="matrix(.5 0 0 .5 -56.006 -55.008)"/><linearGradient xlink:href="#g" id="n" x1="182.69" y1="179.28" x2="182.956" y2="140.009" gradientUnits="userSpaceOnUse" gradientTransform="matrix(.30719 0 0 .5 -19.337 -55.762)"/><linearGradient xlink:href="#g" id="o" gradientUnits="userSpaceOnUse" gradientTransform="matrix(.21991 0 0 .35794 -21.225 -31.185)" x1="182.69" y1="179.28" x2="182.956" y2="140.009"/></defs><g color="#000" stroke-linecap="square"><path style="isolation:auto;mix-blend-mode:normal;marker:none" d="M5.014 29.638c-1.097 0-1.598.544-1.979 1.142L.994 33.992a.357.357 0 0 0-.018.378.758.758 0 0 0 .018.396l2.041 6.258c.38 1.167.882 2.227 1.98 2.227h37.96c1.096 0 1.598-1.06 1.978-2.227l2.041-6.258a.759.759 0 0 0 .019-.397.357.357 0 0 0-.019-.377l-2.04-3.212c-.381-.598-.883-1.142-1.98-1.142z" overflow="visible" fill-opacity=".1" stroke-width=".907" filter="url(#filter5140)"/><path style="isolation:auto;mix-blend-mode:normal;marker:none" d="M44.779 12.57v24.25H3.209V12.57l20.785-12z" overflow="visible" fill-opacity=".153" stroke-width=".906" filter="url(#filter5140)"/><path style="isolation:auto;mix-blend-mode:normal;marker:none" d="M43.49 13.314v22.89H4.499v-22.89L23.994 2.057z" overflow="visible" fill="url(#i)" stroke="url(#j)" filter="url(#filter5140)"/><path style="isolation:auto;mix-blend-mode:normal;marker:none" d="M5.147 32.633h37.694c1.09 0 3.526.986 3.161 2.079l-1.953 5.842c-.364 1.089-.845 2.079-1.894 2.079H5.833c-1.05 0-1.53-.99-1.894-2.079l-1.953-5.842c-.365-1.093 2.072-2.08 3.161-2.08z" display="block" overflow="visible" fill="url(#k)" stroke-width=".857" filter="url(#filter5140)"/><path style="isolation:auto;mix-blend-mode:normal;marker:none" d="M2.028 34.424l-.042.065c-.365.56.928 1.066 2.08 1.066h39.857c1.151 0 2.444-.506 2.079-1.066l-.042-.065c-.295.362-1.2.631-2.037.631H4.065c-.837 0-1.742-.27-2.037-.63z" display="block" overflow="visible" fill="#19b4b6" stroke-width=".614" filter="url(#filter5140)"/><path d="M12.746 32.57h22.496c3.557 0 1.81 1.55 1.067 3.17l-4.091 8.909c-.726 1.578-1.333 3.17-2.99 3.17H18.76c-1.656 0-2.263-1.592-2.988-3.17l-4.092-8.91c-.743-1.617-2.49-3.17 1.067-3.17z" style="isolation:auto;mix-blend-mode:normal;marker:none" overflow="visible" fill-opacity=".253" stroke-width=".907" filter="url(#filter5140)"/><path style="isolation:auto;mix-blend-mode:normal;marker:none" d="M13.041 32.57h21.906c3.464 0 1.763 1.424 1.04 2.91l-3.985 8.18c-.706 1.449-1.298 2.91-2.91 2.91H18.896c-1.612 0-2.204-1.461-2.91-2.91l-3.984-8.18c-.724-1.485-2.425-2.91 1.04-2.91z" overflow="visible" fill="url(#l)" stroke-width=".857" filter="url(#filter5140)"/><path d="M4.065 35.055h39.858c1.152 0 2.444-.506 2.079-1.067l-1.953-2.997c-.364-.559-.845-1.067-1.894-1.067H5.833c-1.05 0-1.53.508-1.894 1.067l-1.953 2.997c-.365.56.927 1.067 2.079 1.067z" style="isolation:auto;mix-blend-mode:normal;marker:none" display="block" overflow="visible" fill="url(#m)" stroke-width=".614" filter="url(#filter5140)"/><path d="M28.003 17.27l-5.548-.066 9.602-11.379 8.907 11.445h-4.27s-1.412 7.308-.3 11.16c1.112 3.852 2.38 5.348 2.38 5.348l-6.594.266s-2.894-1.825-3.743-5.94c-.848-4.116-.434-10.834-.434-10.834z" style="isolation:auto;mix-blend-mode:normal;marker:none" overflow="visible" fill-opacity=".479" stroke-width=".778" filter="url(#filter5140)"/><path style="isolation:auto;mix-blend-mode:normal;marker:none" d="M28.982 16.643l-4.854-.066 7.96-9.885 7.43 9.95h-4.3s-.62 8.066.5 11.946c1.12 3.88 4 5.655 4 5.655h-7.736s-2.242-2.173-3.097-6.318.097-11.282.097-11.282z" overflow="visible" fill="url(#n)" stroke-width=".784" filter="url(#filter5140)"/><path style="isolation:auto;mix-blend-mode:normal;marker:none" d="M12.615 20.953l-3.957-.047 6.848-8.116 6.352 8.163h-3.045s-1.007 5.212-.214 7.96c.793 2.747 1.697 3.814 1.697 3.814l-4.702.19s-2.064-1.303-2.67-4.238c-.605-2.935-.31-7.726-.31-7.726z" overflow="visible" fill-opacity=".479" stroke-width=".555" filter="url(#filter5140)"/><path d="M13.366 20.648l-3.474-.047 5.698-7.076 5.319 7.123H17.83s-.444 5.774.358 8.552c.802 2.778 2.863 4.048 2.863 4.048h-5.537s-1.605-1.555-2.217-4.523c-.612-2.968.07-8.077.07-8.077z" style="isolation:auto;mix-blend-mode:normal;marker:none" display="block" overflow="visible" fill="url(#o)" stroke-width=".561" filter="url(#filter5140)"/><path transform="scale(.09398) rotate(-30 714.67 117.979)" d="M205.438 160l-22.719 39.35h-45.438L114.56 160l22.72-39.35h45.438z" style="isolation:auto;mix-blend-mode:normal;marker:none" overflow="visible" fill-opacity=".237" stroke-width="2.018" filter="url(#filter5140)"/><path style="isolation:auto;mix-blend-mode:normal;marker:none" d="M23.994 36.3l-3.698 2.135v.5l3.698-2.136 3.698 2.136v-.5z" overflow="visible" fill-opacity=".237" stroke-width=".19" filter="url(#filter5140)"/><path style="isolation:auto;mix-blend-mode:normal;marker:none" d="M20.296 42.705v.5l3.698 2.135 3.698-2.135v-.5l-3.698 2.135z" overflow="visible" fill="#f4f4f4" fill-opacity=".237" stroke-width=".19" filter="url(#filter5140)"/></g></svg>