<svg xmlns="http://www.w3.org/2000/svg" xmlns:xlink="http://www.w3.org/1999/xlink" height="48" viewBox="0 0 48 48" width="48"><title>Template icons dark</title><defs><linearGradient id="i"><stop offset="0" stop-color="#078cd0" stop-opacity=".781"/><stop offset=".774" stop-color="#5946dd" stop-opacity=".584"/><stop offset="1" stop-color="#ca39f1" stop-opacity=".669"/></linearGradient><linearGradient id="h"><stop offset="0" stop-color="#078cd0" stop-opacity=".698"/><stop offset=".774" stop-color="#5946dd" stop-opacity=".443"/><stop offset="1" stop-color="#ca39f1" stop-opacity=".302"/></linearGradient><linearGradient id="b"><stop offset="0" stop-color="#d1f8fc" stop-opacity=".084"/><stop offset=".501" stop-color="#fff" stop-opacity=".039"/><stop offset="1" stop-color="#b6f3fa" stop-opacity=".096"/></linearGradient><linearGradient id="a"><stop offset="0" stop-color="#777"/><stop offset="1" stop-color="#595959"/></linearGradient><linearGradient id="g"><stop offset="0" stop-color="#fff" stop-opacity=".528"/><stop offset=".561" stop-color="#fff" stop-opacity=".522"/><stop offset="1" stop-color="#fff" stop-opacity="0"/></linearGradient><linearGradient id="e"><stop offset="0" stop-color="#fff" stop-opacity=".663"/><stop offset=".561" stop-color="#fff" stop-opacity=".522"/><stop offset="1" stop-color="#fff" stop-opacity="0"/></linearGradient><linearGradient id="f"><stop offset="0" stop-color="#fff"/><stop offset=".561" stop-color="#fff" stop-opacity=".522"/><stop offset="1" stop-color="#fff" stop-opacity="0"/></linearGradient><linearGradient id="d"><stop offset="0" stop-color="#4fb9ef" stop-opacity=".459"/><stop offset=".836" stop-color="#1f1cec" stop-opacity=".315"/><stop offset=".888" stop-color="#d039f1" stop-opacity=".376"/><stop offset="1" stop-color="#ca39f1" stop-opacity=".302"/></linearGradient><linearGradient id="c"><stop offset="0" stop-color="#393939"/><stop offset="1" stop-color="#181818"/></linearGradient><radialGradient xlink:href="#h" id="k" cx="-226.274" cy=".459" fx="-226.274" fy=".459" r="15.999" gradientUnits="userSpaceOnUse" gradientTransform="matrix(.6766 -.6766 .6775 .6775 176.68 -129.786)"/><radialGradient gradientTransform="matrix(.62309 0 0 .62309 -75.835 -76.147)" xlink:href="#c" id="j" cx="160" cy="160" fx="160" fy="160" r="33" gradientUnits="userSpaceOnUse"/></defs><g color="#000"><path style="isolation:auto;mix-blend-mode:normal;marker:none" d="M30.329 13.242l9.033-9.033a3.034 3.034 0 0 1 4.3 0 3.034 3.034 0 0 1 0 4.3l-9.033 9.033a3.034 3.034 0 0 1-4.3 0 3.034 3.034 0 0 1 0-4.3z" display="block" overflow="visible" fill="#fff" stroke-width=".296" stroke-linecap="round" stroke-linejoin="round" paint-order="stroke fill markers"/><path style="isolation:auto;mix-blend-mode:normal;marker:none" d="M45.2 24.17a21.34 21.34 0 0 1-21.34 21.34A21.34 21.34 0 0 1 2.52 24.17 21.34 21.34 0 0 1 23.86 2.83 21.34 21.34 0 0 1 45.2 24.17z" overflow="visible" fill-opacity=".23" stroke-width="1.13" paint-order="fill markers stroke"/><path style="isolation:auto;mix-blend-mode:normal;marker:none" d="M43.797 23.548A19.938 19.938 0 0 1 23.86 43.485 19.938 19.938 0 0 1 3.922 23.548 19.938 19.938 0 0 1 23.86 3.61a19.938 19.938 0 0 1 19.937 19.938z" overflow="visible" fill="url(#j)" stroke="#f2f2f2" stroke-width="1.248" paint-order="fill markers stroke"/><path style="line-height:normal;font-variant-ligatures:normal;font-variant-position:normal;font-variant-caps:normal;font-variant-numeric:normal;font-variant-alternates:normal;font-feature-settings:normal;text-indent:0;text-align:start;text-decoration-line:none;text-decoration-style:solid;text-decoration-color:#000;text-transform:none;text-orientation:mixed;shape-padding:0;isolation:auto;mix-blend-mode:normal;marker:none" d="M23.86 4.544c-10.484 0-19.004 8.52-19.004 19.004 0 10.484 8.52 19.004 19.004 19.004 10.484 0 19.004-8.52 19.004-19.004 0-10.484-8.52-19.004-19.004-19.004zm0 2.519c9.115 0 16.485 7.369 16.485 16.485 0 9.115-7.37 16.484-16.485 16.484-9.116 0-16.485-7.369-16.485-16.484 0-9.116 7.369-16.485 16.485-16.485z" font-weight="400" font-family="sans-serif" white-space="normal" overflow="visible" fill="#c7e8fb" fill-opacity=".331" stroke-width="1.983" paint-order="fill markers stroke"/><path style="line-height:normal;font-variant-ligatures:normal;font-variant-position:normal;font-variant-caps:normal;font-variant-numeric:normal;font-variant-alternates:normal;font-feature-settings:normal;text-indent:0;text-align:start;text-decoration-line:none;text-decoration-style:solid;text-decoration-color:#000;text-transform:none;text-orientation:mixed;shape-padding:0;isolation:auto;mix-blend-mode:normal;marker:none" d="M23.86 2.768c-11.467 0-20.78 9.313-20.78 20.78 0 11.466 9.313 20.78 20.78 20.78 11.466 0 20.78-9.314 20.78-20.78 0-11.467-9.314-20.78-20.78-20.78zm0 2.087c10.333 0 18.692 8.36 18.692 18.693 0 10.333-8.359 18.692-18.692 18.692-10.334 0-18.693-8.359-18.693-18.692 0-10.334 8.36-18.693 18.693-18.693z" font-weight="400" font-family="sans-serif" white-space="normal" overflow="visible" fill="#fff" stroke-width="2.492" paint-order="fill markers stroke"/><path style="isolation:auto;mix-blend-mode:normal;marker:none" d="M34.927 34.53a15.756 15.756 0 0 1-22.283-.046l11.164-11.118z" overflow="visible" fill="#c7e8fb" fill-opacity=".129" stroke-width=".987" paint-order="fill markers stroke"/><path style="isolation:auto;mix-blend-mode:normal;marker:none" d="M13.03 12.757a15.337 15.337 0 0 1 21.69.044L23.853 23.624z" overflow="visible" fill="url(#k)" stroke-width=".96" paint-order="fill markers stroke"/><path style="isolation:auto;mix-blend-mode:normal;marker:none" d="M25.106 24.99a1.284.867 0 0 1-1.284.867 1.284.867 0 0 1-1.285-.868 1.284.867 0 0 1 1.285-.867 1.284.867 0 0 1 1.284.867z" overflow="visible" fill="#c7e8fb" fill-opacity=".382" stroke-width=".176" paint-order="fill markers stroke"/><path style="isolation:auto;mix-blend-mode:normal;marker:none" d="M25.593 21.645a1.733 1.411 0 0 1-1.733 1.411 1.733 1.411 0 0 1-1.734-1.411 1.733 1.411 0 0 1 1.734-1.411 1.733 1.411 0 0 1 1.733 1.411z" overflow="visible" fill="#ecf7fe" fill-opacity=".438" stroke-width=".136" paint-order="fill markers stroke"/><path style="isolation:auto;mix-blend-mode:normal;marker:none" d="M41.384 4.587a1.869 1.869 0 0 0-1.87 1.869 1.869 1.869 0 0 0 .008.146 1.869 1.869 0 0 1 1.862-1.724 1.869 1.869 0 0 1 1.862 1.724 1.869 1.869 0 0 0 .007-.146 1.869 1.869 0 0 0-1.869-1.87z" overflow="visible" fill-opacity=".506" stroke-width=".957" paint-order="fill markers stroke"/><circle style="isolation:auto;mix-blend-mode:normal;marker:none" cx="23.86" cy="23.548" r="5.135" overflow="visible" fill="none" fill-opacity=".459" stroke="#8e8e8e" stroke-width="2.492" paint-order="fill markers stroke"/><circle r="6.231" cy="23.548" cx="23.86" style="isolation:auto;mix-blend-mode:normal;marker:none" overflow="visible" fill="#030303" fill-opacity=".459" stroke="#969696" stroke-width=".661" paint-order="fill markers stroke"/><circle style="isolation:auto;mix-blend-mode:normal;marker:none" cx="41.384" cy="6.456" r="1.869" overflow="visible" fill="#ea6565" stroke-width=".957" paint-order="fill markers stroke"/></g></svg>