<svg xmlns:osb="http://www.openswatchbook.org/uri/2009/osb" xmlns="http://www.w3.org/2000/svg" xmlns:xlink="http://www.w3.org/1999/xlink" height="48" viewBox="0 0 48 48" width="48"><title>Template icons dark</title><defs><linearGradient id="a"><stop offset="0" stop-color="#665e8f"/><stop offset="1" stop-color="#343b41"/></linearGradient><linearGradient id="b"><stop offset="0" stop-color="#383d60"/><stop offset="1" stop-color="#242e42"/></linearGradient><linearGradient id="d"><stop offset="0" stop-opacity=".204"/><stop offset="1" stop-opacity="0"/></linearGradient><linearGradient id="e" osb:paint="solid"><stop offset="0" stop-color="#8ca1a8" stop-opacity=".424"/></linearGradient><linearGradient id="f" osb:paint="solid"><stop offset="0" stop-color="#ff4ca1"/></linearGradient><linearGradient id="c"><stop offset="0" stop-color="#dce1e8"/><stop offset="1" stop-color="#fff"/></linearGradient><linearGradient id="g"><stop offset="0" stop-color="#383d60"/><stop offset="1" stop-color="#242e42"/></linearGradient><linearGradient xlink:href="#c" id="o" gradientUnits="userSpaceOnUse" gradientTransform="translate(550.549 210.896) scale(.91736)" x1="-578.647" y1="-204.784" x2="-578.647" y2="-214.622"/><linearGradient xlink:href="#d" id="n" gradientUnits="userSpaceOnUse" gradientTransform="matrix(.4809 0 0 .47596 -471.592 -157.323)" x1="1031.269" y1="365.654" x2="1031.269" y2="380.159"/><linearGradient xlink:href="#e" id="m" gradientUnits="userSpaceOnUse" gradientTransform="translate(87.26 54.36) scale(.46052)" x1="-49.096" y1="1041.18" x2="-9.096" y2="1041.18"/><linearGradient xlink:href="#c" id="l" gradientUnits="userSpaceOnUse" gradientTransform="translate(12.697 15.837) scale(.91736)" x1="17.92" y1="19.84" x2="17.92" y2="11.307"/><linearGradient xlink:href="#d" id="k" gradientUnits="userSpaceOnUse" gradientTransform="matrix(.4809 0 0 .38296 -472.053 -111.597)" x1="1031.269" y1="365.654" x2="1031.269" y2="380.159"/><linearGradient xlink:href="#f" id="j" gradientUnits="userSpaceOnUse" gradientTransform="matrix(.36842 0 0 .37054 14.304 -355.796)"/><linearGradient xlink:href="#g" id="i" gradientUnits="userSpaceOnUse" x1="115.452" y1="160" x2="204.026" y2="160.174"/><linearGradient xlink:href="#a" id="h" gradientUnits="userSpaceOnUse" x1="99.818" y1="164.367" x2="220.995" y2="164.367"/></defs><g><path style="isolation:auto;mix-blend-mode:normal;marker:none" d="M24 48.003l-20.784-12v-24l20.785-12 20.784 12v24z" color="#000" display="block" overflow="visible" fill-opacity=".018" stroke-width=".09"/><path style="isolation:auto;mix-blend-mode:normal;marker:none" d="M4.253 35.405v.97L24 47.778l19.747-11.401v-.971L24.001 46.806z" color="#000" overflow="visible" fill="#131a20" fill-opacity=".092" stroke-width=".045"/><path style="isolation:auto;mix-blend-mode:normal;marker:none" d="M192.612 192.612l-44.549 11.936-32.611-32.611 11.936-44.549 44.549-11.936 32.611 32.611z" transform="rotate(45 118.073 -14.965) scale(.49443)" color="#000" display="block" overflow="visible" fill="url(#h)" stroke-width=".068"/><path transform="matrix(.2797 .2797 -.2797 .2797 24 -65.498)" d="M192.612 192.612l-44.549 11.936-32.611-32.611 11.936-44.549 44.549-11.936 32.611 32.611z" style="isolation:auto;mix-blend-mode:normal;marker:none" color="#000" display="block" overflow="visible" fill="url(#i)" stroke-width=".068"/><path style="isolation:auto;mix-blend-mode:normal;marker:none" d="M8.202 33.124V14.882L24 5.76 39.8 14.88z" color="#000" overflow="visible" fill="#fff" fill-opacity=".058" stroke-width=".027"/><path style="isolation:auto;mix-blend-mode:normal;marker:none" d="M24 5.76L8.203 14.882v2.428l15.799-9.122 15.798 9.122v-2.428z" color="#000" display="block" overflow="visible" fill-opacity=".466" stroke-width=".027"/><path style="isolation:auto;mix-blend-mode:normal;marker:none" d="M8.202 33.127v.754l15.799 9.121 15.798-9.121v-.754l-15.798 9.121z" color="#000" display="block" overflow="visible" fill="#faf8fb" fill-opacity=".24" stroke-width=".027"/><path style="isolation:auto;mix-blend-mode:normal;marker:none" d="M24 1.2L4.254 12.6v.486L24 1.685l19.747 11.402V12.6z" color="#000" display="block" overflow="visible" fill="#fff" fill-opacity=".267" stroke-width=".033"/><path d="M18.36 26.13h12.15c2.103 0 3.797 1.75 3.797 3.926 0 2.175-1.694 3.926-3.797 3.926H18.36c-2.103 0-3.797-1.751-3.797-3.926 0-2.175 1.694-3.927 3.797-3.927z" fill="#fff" fill-opacity=".189" stroke-width=".518"/><path d="M18.587 26.602h11.052a3.446 3.446 0 0 1 3.454 3.454 3.446 3.446 0 0 1-3.454 3.454H18.587a3.446 3.446 0 0 1-3.454-3.454 3.446 3.446 0 0 1 3.454-3.454z" fill="url(#j)" stroke-width=".416"/><path style="line-height:normal;font-variant-ligatures:normal;font-variant-position:normal;font-variant-caps:normal;font-variant-numeric:normal;font-variant-alternates:normal;font-feature-settings:normal;text-indent:0;text-align:start;text-decoration-line:none;text-decoration-style:solid;text-decoration-color:#000;text-transform:none;text-orientation:mixed;shape-padding:0;isolation:auto;mix-blend-mode:normal" d="M18.564 26.608a3.415 3.415 0 0 0-3.418 3.418v.053a3.416 3.416 0 0 0 3.418 3.42h11.12a3.416 3.416 0 0 0 3.418-3.42v-.053a3.415 3.415 0 0 0-3.418-3.418zm0 .46h11.12a2.945 2.945 0 0 1 2.958 2.958v.053a2.946 2.946 0 0 1-2.958 2.959h-11.12a2.946 2.946 0 0 1-2.958-2.959v-.053a2.945 2.945 0 0 1 2.958-2.957z" color="#000" font-weight="400" font-family="sans-serif" white-space="normal" overflow="visible" fill="url(#k)" stroke-width=".413"/><path d="M34.475 30.516a5.296 5.296 0 0 1-5.296 5.296 5.296 5.296 0 0 1-5.296-5.296 5.296 5.296 0 0 1 5.296-5.296 5.296 5.296 0 0 1 5.296 5.296z" fill-opacity=".157" stroke-width=".221" stroke-miterlimit="4.6" stroke-opacity=".197"/><path d="M34.014 30.056a4.835 4.835 0 0 1-4.835 4.835 4.835 4.835 0 0 1-4.836-4.835 4.835 4.835 0 0 1 4.836-4.836 4.835 4.835 0 0 1 4.835 4.836z" fill="url(#l)" stroke-width=".192" stroke-miterlimit="4.6"/><path d="M19.047 15.277H30.1a3.446 3.446 0 0 1 3.454 3.454 3.446 3.446 0 0 1-3.454 3.453H19.047a3.446 3.446 0 0 1-3.454-3.453 3.446 3.446 0 0 1 3.454-3.454z" fill="url(#m)" stroke-width=".463"/><path style="line-height:normal;font-variant-ligatures:normal;font-variant-position:normal;font-variant-caps:normal;font-variant-numeric:normal;font-variant-alternates:normal;font-feature-settings:normal;text-indent:0;text-align:start;text-decoration-line:none;text-decoration-style:solid;text-decoration-color:#000;text-transform:none;text-orientation:mixed;shape-padding:0;isolation:auto;mix-blend-mode:normal" d="M19.024 15.283a3.415 3.415 0 0 0-3.418 3.418v.053a3.416 3.416 0 0 0 3.418 3.419h11.12a3.416 3.416 0 0 0 3.419-3.419v-.053a3.415 3.415 0 0 0-3.418-3.418zm0 .46h11.12a2.945 2.945 0 0 1 2.958 2.958v.053a2.946 2.946 0 0 1-2.957 2.958H19.024a2.946 2.946 0 0 1-2.957-2.958v-.053a2.945 2.945 0 0 1 2.957-2.957z" color="#000" font-weight="400" font-family="sans-serif" white-space="normal" overflow="visible" fill="url(#n)" stroke-width=".461"/><path d="M24.7 18.894a5.296 5.296 0 0 1-5.296 5.296 5.296 5.296 0 0 1-5.296-5.296 5.296 5.296 0 0 1 5.296-5.296 5.296 5.296 0 0 1 5.296 5.296z" fill-opacity=".157" stroke-width=".221" stroke-miterlimit="4.6" stroke-opacity=".197"/><path d="M24.343 18.73a4.835 4.835 0 0 1-4.835 4.836 4.835 4.835 0 0 1-4.836-4.835 4.835 4.835 0 0 1 4.836-4.836 4.835 4.835 0 0 1 4.835 4.836z" fill="url(#o)" stroke-width=".192" stroke-miterlimit="4.6"/><circle style="isolation:auto;mix-blend-mode:normal;marker:none" cx="41.737" cy="14.225" r=".95" color="#000" display="block" overflow="visible" fill="#fdfeff" fill-opacity=".198" stroke-width=".242" stroke-linejoin="round"/><circle style="isolation:auto;mix-blend-mode:normal;marker:none" cx="6.216" cy="13.932" r=".95" color="#000" display="block" overflow="visible" fill="#fdfeff" fill-opacity=".198" stroke-width=".242" stroke-linejoin="round"/><circle r=".95" cy="34.495" cx="6.216" style="isolation:auto;mix-blend-mode:normal;marker:none" color="#000" display="block" overflow="visible" fill="#fdfeff" fill-opacity=".198" stroke-width=".242" stroke-linejoin="round"/><circle style="isolation:auto;mix-blend-mode:normal;marker:none" cx="24.05" cy="44.679" r=".95" color="#000" overflow="visible" fill="#fdfeff" fill-opacity=".198" stroke-width=".242" stroke-linejoin="round"/><circle r=".95" cy="34.544" cx="41.445" style="isolation:auto;mix-blend-mode:normal;marker:none" color="#000" display="block" overflow="visible" fill="#fdfeff" fill-opacity=".198" stroke-width=".242" stroke-linejoin="round"/><circle r=".95" cy="3.846" cx="24.001" style="isolation:auto;mix-blend-mode:normal;marker:none" color="#000" display="block" overflow="visible" fill="#fdfeff" fill-opacity=".198" stroke-width=".242" stroke-linejoin="round"/><circle r="4.616" cy="30.056" cx="29.179" fill="none" stroke="#fff" stroke-width=".44" stroke-miterlimit="4.6" stroke-opacity=".237"/><circle r="4.616" cy="18.731" cx="19.508" fill="none" stroke="#fff" stroke-width=".44" stroke-miterlimit="4.6" stroke-opacity=".237"/></g></svg>