<svg xmlns="http://www.w3.org/2000/svg" xmlns:xlink="http://www.w3.org/1999/xlink" height="48" viewBox="0 0 48 48" width="48"><title>Template icons dark</title><defs><linearGradient id="d"><stop offset="0" stop-color="#fff" stop-opacity=".763"/><stop offset="1" stop-color="#fff" stop-opacity=".632"/></linearGradient><linearGradient id="c"><stop offset="0" stop-color="#fff"/><stop offset="1" stop-color="#fff" stop-opacity=".637"/></linearGradient><linearGradient id="b"><stop offset="0" stop-color="#ff053c"/><stop offset="1" stop-color="#0b31ff" stop-opacity=".974"/></linearGradient><linearGradient id="a"><stop offset="0" stop-color="#1ed760"/><stop offset="1" stop-color="#1ed760"/></linearGradient><linearGradient xlink:href="#a" id="e" x1="24.535" y1="7.996" x2="24.705" y2="38.25" gradientUnits="userSpaceOnUse" gradientTransform="translate(-2.52 -4.147) scale(1.10127)"/><linearGradient xlink:href="#b" id="f" x1="122" y1="183" x2="196" y2="142" gradientUnits="userSpaceOnUse" gradientTransform="matrix(.51677 0 0 .51677 -58.682 -58.682)"/><linearGradient gradientTransform="matrix(.5 0 0 .5 -56 -56)" xlink:href="#c" id="h" x1="160.063" y1="147" x2="158.323" y2="181" gradientUnits="userSpaceOnUse"/><linearGradient gradientTransform="matrix(.5 0 0 .5 -56 -56)" xlink:href="#d" id="g" x1="172" y1="119" x2="148.724" y2="201.638" gradientUnits="userSpaceOnUse"/></defs><g color="#000"><circle style="isolation:auto;mix-blend-mode:normal;marker:none" cx="24" cy="24" r="24" display="block" overflow="visible" fill-opacity=".078" stroke-width="1.042"/><circle style="isolation:auto;mix-blend-mode:normal;marker:none" cx="24" cy="24" r="23" overflow="visible" fill="url(#e)" stroke-width="1.282"/><circle r="23" cy="24" cx="24" style="isolation:auto;mix-blend-mode:normal;marker:none" overflow="visible" opacity=".109" fill="url(#f)" stroke-width="1.282"/><circle style="isolation:auto;mix-blend-mode:normal;marker:none" cx="24" cy="24" r="22.375" overflow="visible" fill="none" stroke="url(#g)" stroke-width="1.25"/><path style="line-height:normal;font-variant-ligatures:normal;font-variant-position:normal;font-variant-caps:normal;font-variant-numeric:normal;font-variant-alternates:normal;font-feature-settings:normal;text-indent:0;text-align:start;text-decoration-line:none;text-decoration-style:solid;text-decoration-color:#000;text-transform:none;text-orientation:mixed;shape-padding:0;isolation:auto;mix-blend-mode:normal" d="M21.343 13.302c-3.79 0-7.524.5-11.026 1.433a2.124 2.124 0 1 0 1.095 4.104c8.359-2.23 18.364-1.65 26.54 2.658a2.124 2.124 0 1 0 1.98-3.757c-5.803-3.058-12.273-4.44-18.59-4.438zm-.25 7.81c-3.311-.015-6.54.425-9.421 1.228a1.829 1.829 0 1 0 .981 3.522c6.712-1.87 16.13-1.367 22.486 2.62a1.829 1.829 0 1 0 1.943-3.098c-4.727-2.965-10.471-4.25-15.99-4.273zM21.5 28.5c-3.227-.049-6.323.428-9.173 1.062a1.416 1.416 0 1 0 .614 2.763c6.228-1.384 13.057-1.93 19.966 2.194a1.416 1.416 0 1 0 1.451-2.432C30.017 29.496 25.65 28.563 21.5 28.5z" font-weight="400" font-family="sans-serif" white-space="normal" overflow="visible" fill-opacity=".147" stroke-width="4.247"/><path d="M21.343 12.802c-3.79 0-7.524.5-11.026 1.433a2.124 2.124 0 1 0 1.095 4.104c8.359-2.23 18.364-1.65 26.54 2.658a2.124 2.124 0 1 0 1.98-3.757c-5.803-3.058-12.273-4.44-18.59-4.438zm-.25 7.81c-3.311-.015-6.54.425-9.421 1.228a1.829 1.829 0 1 0 .981 3.522c6.712-1.87 16.13-1.367 22.486 2.62a1.829 1.829 0 1 0 1.943-3.098c-4.727-2.965-10.471-4.25-15.99-4.273zM21.5 28c-3.227-.049-6.323.428-9.173 1.062a1.416 1.416 0 1 0 .614 2.763c6.228-1.384 13.057-1.93 19.966 2.194a1.416 1.416 0 1 0 1.451-2.432C30.017 28.996 25.65 28.063 21.5 28z" style="line-height:normal;font-variant-ligatures:normal;font-variant-position:normal;font-variant-caps:normal;font-variant-numeric:normal;font-variant-alternates:normal;font-feature-settings:normal;text-indent:0;text-align:start;text-decoration-line:none;text-decoration-style:solid;text-decoration-color:#000;text-transform:none;text-orientation:mixed;shape-padding:0;isolation:auto;mix-blend-mode:normal" font-weight="400" font-family="sans-serif" white-space="normal" overflow="visible" fill="url(#h)" stroke-width="4.247"/></g></svg>