<svg xmlns="http://www.w3.org/2000/svg" xmlns:xlink="http://www.w3.org/1999/xlink" height="48" viewBox="0 0 48 48" width="48"><title>Template icons dark</title><defs><linearGradient id="b"><stop offset="0" stop-color="#aed5f8"/><stop offset="1" stop-color="#f7cbff"/></linearGradient><linearGradient id="c"><stop offset="0" stop-color="#5a9fdb"/><stop offset="1" stop-color="#e47ff5"/></linearGradient><linearGradient id="a"><stop offset="0" stop-color="#1d273b"/><stop offset="1" stop-color="#342b38"/></linearGradient><linearGradient xlink:href="#a" id="d" gradientUnits="userSpaceOnUse" gradientTransform="matrix(1.02274 0 0 -1.02274 .19 49.282)" x1="14.633" y1="41.796" x2="34.842" y2="6.78"/><linearGradient gradientTransform="matrix(.48914 0 0 .48914 -54.262 -54.262)" xlink:href="#c" id="e" x1="113" y1="160" x2="207" y2="160" gradientUnits="userSpaceOnUse"/><linearGradient xlink:href="#b" id="f" x1="112.037" y1="174.404" x2="175.498" y2="174.404" gradientUnits="userSpaceOnUse" gradientTransform="matrix(.56823 0 0 .56823 -58.197 -75.256)"/></defs><g color="#000"><path style="isolation:auto;mix-blend-mode:normal;marker:none" d="M24 0A24 24 0 0 0 0 24a24 24 0 0 0 24 24 24 24 0 0 0 24-24A24 24 0 0 0 24 0zm0 17.913A6.088 6.088 0 0 1 30.087 24 6.088 6.088 0 0 1 24 30.087 6.088 6.088 0 0 1 17.913 24 6.088 6.088 0 0 1 24 17.913z" overflow="visible" fill-opacity=".12" stroke-width="1.044"/><path style="isolation:auto;mix-blend-mode:normal;marker:none" d="M24 46.5C11.573 46.5 1.5 36.427 1.5 24S11.573 1.5 24 1.5 46.5 11.573 46.5 24 36.427 46.5 24 46.5z" overflow="visible" fill="url(#d)" stroke="url(#e)"/><path d="M32.905 7.36c-2.613-.14-4.99 1.043-6.6 2.785-.191.206-.371.42-.54.641L10.9 30.302l-8.783-4.987s.028 1.774.293 3.056c.329 1.596.741 3.073.741 3.073l5.18 2.797c-.581 1.857-.191 3.97 1.441 5.603 2.189 2.188 5.243 2.148 7.38.52L38.83 23.85c3.535-2.693 5.038-8.718.346-13.41-2.064-2.064-4.238-2.972-6.27-3.08zm.122 3.312a6.205 6.205 0 1 1-4.48 1.817h.002a6.205 6.205 0 0 1 4.478-1.817zm-.105 2.13a3.999 3.999 0 1 0 0 7.998 3.999 3.999 0 0 0 0-7.997zM14.854 31.329a3.585 3.585 0 1 1-2.587 6.12 3.585 3.585 0 0 1-.953-1.722l2.587 1.289a2.34 2.34 0 0 0 1.975-4.239l-2.4-1.193a3.585 3.585 0 0 1 1.378-.255z" style="isolation:auto;mix-blend-mode:normal;marker:none" display="block" overflow="visible" fill-opacity=".319" stroke-width=".568"/><path style="isolation:auto;mix-blend-mode:normal;marker:none" d="M32.306 6.762c-2.612-.14-4.99 1.042-6.6 2.784-.19.207-.371.42-.54.642L10.3 29.703l-8.783-4.987s.029 1.775.293 3.056c.33 1.596.741 3.073.741 3.073l5.181 2.798c-.582 1.856-.192 3.97 1.44 5.602 2.189 2.188 5.243 2.148 7.381.52L38.23 23.252c3.535-2.692 5.038-8.718.347-13.41-2.065-2.064-4.24-2.972-6.271-3.08zm.122 3.311a6.205 6.205 0 1 1-4.48 1.817h.002a6.205 6.205 0 0 1 4.478-1.817zm-.105 2.131a3.999 3.999 0 1 0 0 7.997 3.999 3.999 0 0 0 0-7.997zM14.255 30.73a3.585 3.585 0 1 1-2.587 6.12 3.585 3.585 0 0 1-.952-1.721l2.587 1.288a2.34 2.34 0 0 0 1.974-4.238l-2.4-1.193a3.585 3.585 0 0 1 1.378-.256z" display="block" overflow="visible" fill="url(#f)" stroke-width=".568"/></g></svg>