<svg xmlns="http://www.w3.org/2000/svg" xmlns:xlink="http://www.w3.org/1999/xlink" height="48" viewBox="0 0 48 48" width="48"><title>Template icons dark</title><defs><linearGradient id="a"><stop offset="0" stop-color="#eadfec"/><stop offset="1" stop-color="#c0dde6"/></linearGradient><linearGradient id="b"><stop offset="0" stop-color="#3e4453"/><stop offset="1" stop-color="#222630"/></linearGradient><linearGradient id="c"><stop offset="0" stop-color="#abd6e5"/><stop offset="1" stop-color="#f7e2f7"/></linearGradient><linearGradient xlink:href="#a" id="g" gradientUnits="userSpaceOnUse" gradientTransform="matrix(1.16357 0 0 1.16357 -2.245 -4.38)" x1="17.302" y1="14.341" x2="30.113" y2="34.354"/><linearGradient xlink:href="#c" id="f" x1="36.062" y1="47.638" x2="13.188" y2="8.325" gradientUnits="userSpaceOnUse" gradientTransform="matrix(1.09329 0 0 1.09329 -2.239 -5.737)"/><linearGradient xlink:href="#b" id="d" x1="24.535" y1="7.996" x2="24.766" y2="38.006" gradientUnits="userSpaceOnUse" gradientTransform="matrix(1.10025 0 0 1.10025 -2.496 -4.121)"/><linearGradient xlink:href="#c" id="e" gradientUnits="userSpaceOnUse" gradientTransform="matrix(1.09329 0 0 1.09329 -2.239 -5.737)" x1="36.062" y1="47.638" x2="13.188" y2="8.325"/></defs><g><circle r="24" cy="24" cx="24" style="isolation:auto;mix-blend-mode:normal;marker:none" color="#000" display="block" overflow="visible" fill-opacity=".115" stroke-width=".924"/><circle r="22.979" cy="24" cx="24" style="isolation:auto;mix-blend-mode:normal;marker:none" color="#000" overflow="visible" fill="url(#d)" stroke="url(#e)" stroke-width="1.021"/><circle style="isolation:auto;mix-blend-mode:normal;marker:none" cx="24" cy="24" r="22.979" color="#000" display="block" overflow="visible" fill="none" stroke="url(#f)" stroke-width="1.021"/><path style="isolation:auto;mix-blend-mode:normal;marker:none" color="#000" display="block" overflow="visible" fill="#869eb6" stroke-width="1.901" d="M15 12h5v2h-5z"/><path style="isolation:auto;mix-blend-mode:normal;marker:none" color="#000" display="block" overflow="visible" fill="#8e9f81" stroke-width="1.933" d="M20.426 12.255h3.064v2.043h-3.064z"/><path style="isolation:auto;mix-blend-mode:normal;marker:none" color="#000" display="block" overflow="visible" fill="#86b1d6" fill-opacity=".357" stroke-width="1.893" d="M21 16h3v2h-3z"/><path style="isolation:auto;mix-blend-mode:normal;marker:none" color="#000" display="block" overflow="visible" fill="#88885e" fill-opacity=".495" stroke-width="1.893" d="M25 16h3v2h-3z"/><path style="isolation:auto;mix-blend-mode:normal;marker:none" color="#000" overflow="visible" fill="#9d875f" fill-opacity=".687" stroke-width="2.342" d="M21 20h4v2.296h-4z"/><path style="isolation:auto;mix-blend-mode:normal;marker:none" color="#000" display="block" overflow="visible" fill="#987f95" fill-opacity=".676" stroke-width="1.906" d="M14.97 28H20v2h-5.03z"/><path style="isolation:auto;mix-blend-mode:normal;marker:none" color="#000" display="block" overflow="visible" fill="#68798d" fill-opacity=".764" stroke-width="2.444" d="M21 28h5v2h-5z"/><path style="isolation:auto;mix-blend-mode:normal;marker:none" color="#000" overflow="visible" fill="#606d78" stroke-width="1.947" d="M27 28h5.25v2H27z"/><path style="isolation:auto;mix-blend-mode:normal;marker:none" color="#000" display="block" overflow="visible" fill="#8f6094" stroke-width="1.954" d="M33 28h4v2h-4z"/><path style="isolation:auto;mix-blend-mode:normal;marker:none" color="#000" display="block" overflow="visible" fill="#53c290" stroke-width="2.082" d="M15 36h6v2h-6z"/><path style="isolation:auto;mix-blend-mode:normal;marker:none" color="#000" display="block" overflow="visible" fill="#e675d2" stroke-width="2.186" d="M22 36h4v2h-4z"/><path style="isolation:auto;mix-blend-mode:normal;marker:none" color="#000" display="block" overflow="visible" fill="#4d854d" stroke-width="1.968" d="M27.574 33.17h4.596v2.043h-4.596z"/><path style="isolation:auto;mix-blend-mode:normal;marker:none" color="#000" display="block" overflow="visible" fill="#8f6094" stroke-width="1.866" d="M29.617 12.255h5.106v2.043h-5.106z"/><path style="isolation:auto;mix-blend-mode:normal;marker:none" color="#000" display="block" overflow="visible" fill="#575f70" stroke-width="2" d="M11 12h2v2h-2zM11 16h2v2h-2z"/><path style="isolation:auto;mix-blend-mode:normal;marker:none" color="#000" display="block" overflow="visible" fill="#575f70" stroke-width="2.011" d="M11 20h2.022v2H11z"/><path style="isolation:auto;mix-blend-mode:normal;marker:none" color="#000" display="block" overflow="visible" fill="#575f70" stroke-width="2" d="M11 24h2v2h-2zM11 28h2v2h-2zM11 32h2v2h-2zM11 36h2v2h-2z"/><path style="isolation:auto;mix-blend-mode:normal;marker:none" color="#000" display="block" overflow="visible" fill="#9176e2" stroke-width="1.901" d="M15 8h5v2h-5z"/><path style="isolation:auto;mix-blend-mode:normal;marker:none" color="#000" display="block" overflow="visible" fill="#57bdff" fill-opacity=".824" stroke-width="1.893" d="M21 8h3v2h-3z"/><path style="isolation:auto;mix-blend-mode:normal;marker:none" color="#000" display="block" overflow="visible" fill="#575f70" stroke-width="2" d="M11 8h2v2h-2z"/><path d="M28.87 31.16q0-1.621-1.232-2.507-1.21-.908-4.258-1.556-3.026-.649-4.82-1.556-1.772-.908-2.636-2.162-.843-1.253-.843-2.982 0-2.875 2.42-4.863 2.443-1.989 6.225-1.989 3.977 0 6.44 2.054 2.486 2.053 2.486 5.252h-4.02q0-1.643-1.405-2.832-1.383-1.188-3.501-1.188-2.183 0-3.415.95-1.232.952-1.232 2.486 0 1.448 1.146 2.183 1.145.735 4.128 1.405 3.004.67 4.863 1.6 1.858.929 2.744 2.247.908 1.297.908 3.177 0 3.134-2.507 5.036-2.507 1.88-6.505 1.88-2.81 0-4.971-.994-2.162-.994-3.394-2.767-1.21-1.793-1.21-3.868h3.998q.108 2.01 1.6 3.198 1.513 1.168 3.977 1.168 2.269 0 3.63-.908 1.384-.93 1.384-2.464z" style="line-height:10;-inkscape-font-specification:Roboto" font-weight="400" font-size="83.863" font-family="Roboto" letter-spacing="0" word-spacing="0" fill-opacity=".385" stroke-width="2.151" stroke-opacity=".194"/><path style="line-height:10;-inkscape-font-specification:Roboto" d="M28.87 29.139q0-1.621-1.232-2.507-1.21-.908-4.258-1.557-3.026-.648-4.82-1.556-1.772-.907-2.636-2.161-.843-1.254-.843-2.983 0-2.874 2.42-4.862 2.443-1.989 6.225-1.989 3.977 0 6.44 2.053 2.486 2.054 2.486 5.252h-4.02q0-1.642-1.405-2.831-1.383-1.189-3.501-1.189-2.183 0-3.415.951-1.232.951-1.232 2.486 0 1.448 1.146 2.183 1.145.735 4.128 1.405 3.004.67 4.863 1.599 1.858.93 2.744 2.248.908 1.296.908 3.177 0 3.134-2.507 5.036-2.507 1.88-6.505 1.88-2.81 0-4.971-.994-2.162-.995-3.394-2.767-1.21-1.794-1.21-3.868h3.998q.108 2.01 1.6 3.198 1.513 1.167 3.977 1.167 2.269 0 3.63-.907 1.384-.93 1.384-2.464z" font-weight="400" font-size="83.863" font-family="Roboto" letter-spacing="0" word-spacing="0" fill="url(#g)" stroke-width="2.151" stroke-opacity=".194"/></g></svg>