<svg xmlns="http://www.w3.org/2000/svg" xmlns:xlink="http://www.w3.org/1999/xlink" height="48" viewBox="0 0 48 48" width="48"><title>Template icons dark</title><defs><linearGradient id="j"><stop offset="0" stop-color="#0292e2"/><stop offset=".556" stop-color="#0283cb"/><stop offset=".59" stop-color="#0297e9"/><stop offset="1" stop-color="#41bafd"/></linearGradient><linearGradient id="c"><stop offset="0" stop-color="#fff" stop-opacity=".307"/><stop offset=".7" stop-color="#fff" stop-opacity=".214"/><stop offset="1" stop-color="#fff" stop-opacity=".188"/><stop offset="1" stop-color="#fff" stop-opacity="0"/></linearGradient><linearGradient id="h"><stop offset="0" stop-color="#fff" stop-opacity=".25"/><stop offset=".7" stop-color="#fff" stop-opacity=".214"/><stop offset="1" stop-color="#fff" stop-opacity=".188"/><stop offset="1" stop-color="#fff" stop-opacity="0"/></linearGradient><linearGradient id="i"><stop offset="0" stop-color="#fff" stop-opacity=".271"/><stop offset=".7" stop-color="#fff" stop-opacity=".214"/><stop offset="1" stop-color="#fff" stop-opacity=".188"/><stop offset="1" stop-color="#fff" stop-opacity="0"/></linearGradient><linearGradient id="f"><stop offset="0" stop-color="#0292e2"/><stop offset="1" stop-color="#029bf0"/></linearGradient><linearGradient id="e"><stop offset="0"/><stop offset="1" stop-opacity=".078"/></linearGradient><linearGradient id="d"><stop offset="0" stop-color="#00628a"/><stop offset=".632" stop-color="#00668f"/><stop offset="1" stop-color="#005172"/></linearGradient><linearGradient id="a"><stop offset="0" stop-color="#fff"/><stop offset=".134" stop-color="#e9f5fa"/><stop offset=".301" stop-color="#dff2fa"/><stop offset=".422" stop-color="#b5e2f4"/><stop offset="1" stop-color="#22affd"/></linearGradient><linearGradient id="b"><stop offset="0" stop-color="#fff" stop-opacity=".313"/><stop offset="1" stop-color="#fff" stop-opacity="0"/></linearGradient><linearGradient id="g"><stop offset="0" stop-color="#fff" stop-opacity=".313"/><stop offset=".7" stop-color="#fff" stop-opacity=".214"/><stop offset="1" stop-color="#fff" stop-opacity=".188"/><stop offset="1" stop-color="#fff" stop-opacity="0"/></linearGradient><linearGradient gradientTransform="matrix(.5454 0 0 .5454 -63.264 -62.174)" xlink:href="#f" id="k" x1="132.78" y1="129" x2="197" y2="194" gradientUnits="userSpaceOnUse"/><linearGradient gradientTransform="matrix(.5454 0 0 .5454 -63.264 -62.174)" xlink:href="#d" id="l" x1="165" y1="115" x2="165" y2="119.646" gradientUnits="userSpaceOnUse"/><linearGradient gradientTransform="matrix(1.13927 0 0 1.13927 -3.343 -6.585)" xlink:href="#i" id="m" x1="24.03" y1="40.729" x2="24.03" y2="31.155" gradientUnits="userSpaceOnUse"/><linearGradient gradientTransform="matrix(1.13927 0 0 1.13927 -3.343 -6.585)" xlink:href="#b" id="n" x1="24.75" y1="47.202" x2="24.75" y2="45.279" gradientUnits="userSpaceOnUse"/><linearGradient xlink:href="#a" id="o" x1="24" y1="37.929" x2="24" y2="1.669" gradientUnits="userSpaceOnUse" gradientTransform="matrix(1.00601 0 0 1.00601 -.144 1.596)"/><linearGradient xlink:href="#e" id="p" gradientUnits="userSpaceOnUse" gradientTransform="matrix(.70452 0 0 .70452 47.275 48.685)" x1="161" y1="124" x2="161" y2="126"/></defs><path d="M47 3v26l1 16c.068 1.089-1.91 3-3 3H2c-1.09 0-2.064-.911-2-2l1-17V3l4-2 1-1 35.805.001L43 1z" fill="#030303" fill-opacity=".13" stroke-width=".289" stroke-opacity=".196"/><path d="M46 3v26l1 16c.056.897-1.101 2-2 2H3c-.899 0-2.056-1.103-2-2l1-16V3z" fill="url(#k)" stroke-width=".291" stroke-opacity=".196"/><path d="M6 1h36l1 1 3 1H2l3-1z" fill="url(#l)" stroke-width=".288" stroke-opacity=".196"/><path d="M46 3v26l1 16c.056.897-1.101 2-2 2H3c-.899 0-2.056-1.103-2-2l1-16V3z" fill="url(#m)" stroke-width=".291" stroke-opacity=".196"/><path d="M46.832 42L47 45c.05.897-1.101 2-2 2H3c-.899 0-1.956-1.103-2-2v-3z" fill="url(#n)" stroke-width=".291" stroke-opacity=".196"/><path d="M19 4v26h-8l13 11.031L37 30h-8V4z" fill-opacity=".193" stroke-width=".704" stroke-linecap="round" stroke-opacity=".771"/><path d="M19 3v26h-8l13 11 13-11h-8V3z" fill="url(#o)" stroke-width=".704" stroke-linecap="round" stroke-opacity=".771"/><path style="line-height:normal;font-variant-ligatures:normal;font-variant-position:normal;font-variant-caps:normal;font-variant-numeric:normal;font-variant-alternates:normal;font-feature-settings:normal;text-indent:0;text-align:start;text-decoration-line:none;text-decoration-style:solid;text-decoration-color:#000;text-transform:none;text-orientation:mixed;shape-padding:0;isolation:auto;mix-blend-mode:normal" d="M6 1L5 2 2 3h44l-3-1-1-1zM5 2h38l3 1H2z" color="#000" font-weight="400" font-family="sans-serif" white-space="normal" overflow="visible" fill="#92e3fa" fill-opacity=".13" stroke-width=".545"/><path d="M148.338 136.166a2.652 2.652 0 0 0-2.651 2.652 2.652 2.652 0 0 0 2.651 2.652 2.652 2.652 0 0 0 2.653-2.652 2.652 2.652 0 0 0-2.653-2.652zm23.229 0a2.652 2.652 0 0 0-2.653 2.652 2.652 2.652 0 0 0 2.653 2.652 2.652 2.652 0 0 0 2.651-2.652 2.652 2.652 0 0 0-2.651-2.652z" fill="#2d2615" fill-opacity=".464" stroke="url(#p)" stroke-width=".423" transform="matrix(.77415 0 0 .77415 -99.862 -99.863)"/><path d="M14.126 9.3s1.04 10.224 10.162 10.224c9.163 0 9.375-9.971 9.375-9.971-.645-.608-1.12-.549-1.67-.203 0 0-.869 8.453-7.705 8.453-7.148 0-8.29-8.402-8.29-8.402-.534-.865-1.448-.68-1.872-.101z" fill-opacity=".198" fill-rule="evenodd" stroke-width=".583" stroke-linecap="round" stroke-opacity=".333"/><path d="M14.126 7.663s1.04 10.225 10.162 10.225c9.163 0 9.375-9.972 9.375-9.972-.645-.608-1.12-.548-1.67-.202 0 0-.869 8.453-7.705 8.453-7.148 0-8.29-8.402-8.29-8.402-.534-.865-1.448-.68-1.872-.102z" fill="#fffffc" fill-rule="evenodd" stroke="#000" stroke-width=".45132944999999997" stroke-linecap="round" stroke-opacity=".333"/><path d="M32.48 7.755l-.26.247.693 1.562.259-.247zm-17.718 1.73l-.151.405 1.782.662.15-.404zm16.85 1.775l-.423.085.375 1.863.423-.084zm-15.278 1.794l-.034.429 1.896.148.033-.43zm12.86 1.302l-.366 1.866.424.083.364-1.866zm-7.754 1.357l-1.852.424.096.421 1.853-.424zm4.376.548l-1.584 1.051.24.36 1.583-1.05z" opacity=".57" fill="#7c6555" fill-opacity=".974" stroke-width=".875" stroke-linecap="round" stroke-opacity=".729"/><path style="isolation:auto;mix-blend-mode:normal;marker:none" color="#000" overflow="visible" fill="#fff" fill-opacity=".182" stroke-width=".707" d="M2 3h44v1H2z"/></svg>