<svg xmlns="http://www.w3.org/2000/svg" xmlns:xlink="http://www.w3.org/1999/xlink" height="48" viewBox="0 0 48 48" width="48"><title>Template icons dark</title><defs><linearGradient id="d"><stop offset="0" stop-color="#443791"/><stop offset="1" stop-color="#915cb8"/></linearGradient><linearGradient id="c"><stop offset="0" stop-color="#fff"/><stop offset="1" stop-color="#d2d2d2"/></linearGradient><linearGradient id="b"><stop offset="0" stop-color="#5a41e2"/><stop offset="1" stop-color="#4c9ce0" stop-opacity=".945"/></linearGradient><linearGradient id="a"><stop offset="0" stop-color="#fffefe"/><stop offset="1" stop-color="#fff" stop-opacity=".855"/></linearGradient><linearGradient gradientTransform="rotate(-45 -95.483 39.906) scale(.5)" xlink:href="#d" id="e" x1="12.131" y1="258.452" x2="12.131" y2="181.283" gradientUnits="userSpaceOnUse"/><linearGradient gradientTransform="matrix(.5 0 0 .5 -56.184 -55.829)" xlink:href="#c" id="f" x1="160.425" y1="131.905" x2="160.425" y2="202" gradientUnits="userSpaceOnUse"/></defs><path style="isolation:auto;mix-blend-mode:normal;marker:none" d="M1.94 22.08L21.713 2.309a2.968 2.968 0 0 1 4.206 0L45.692 22.08a2.968 2.968 0 0 1 0 4.206L25.92 46.06a2.968 2.968 0 0 1-4.206 0L1.94 26.287a2.968 2.968 0 0 1 0-4.206z" color="#000" overflow="visible" fill="#040307" fill-opacity=".1" stroke-width=".189" stroke-opacity=".104" paint-order="fill markers stroke"/><path style="isolation:auto;mix-blend-mode:normal;marker:none" d="M2.781 22.162L21.794 3.149a2.853 2.853 0 0 1 4.044 0l19.013 19.013a2.853 2.853 0 0 1 0 4.044L25.838 45.219a2.853 2.853 0 0 1-4.044 0L2.781 26.206a2.853 2.853 0 0 1 0-4.044z" color="#000" overflow="visible" fill="url(#e)" stroke-width=".181" stroke-opacity=".104" paint-order="fill markers stroke"/><path d="M18.42 6.396l-.5.5 5.108 5.107a3.394 3.394 0 0 1 3.493.816 3.37 3.37 0 0 1 .95 1.904 3.384 3.384 0 0 0-.95-2.904 3.394 3.394 0 0 0-3.493-.816zm2.344 7.299c-.054.342-.057.69-.006 1.032.041-.279.11-.555.22-.818zm6.735 1.81a3.41 3.41 0 0 1-.17.83l4.923 4.921a3.397 3.397 0 0 1 4.472 2.714 3.397 3.397 0 0 0-4.472-3.714zm2.506 7.461c-.05.334-.051.672-.002 1.006.04-.271.105-.54.211-.797zm-28.143.715c-.158.89.105 1.838.792 2.526l19.14 19.14a2.86 2.86 0 0 0 4.044 0l19.14-19.14a2.855 2.855 0 0 0 .792-2.523 2.841 2.841 0 0 1-.791 1.523l-19.14 19.14a2.86 2.86 0 0 1-4.045 0l-19.14-19.14a2.843 2.843 0 0 1-.792-1.526zm20.967 5.882a3.4 3.4 0 0 0-2.07 3.647 3.4 3.4 0 0 1 2.07-2.647zm2.797.1v1a3.383 3.383 0 0 1 1.855 2.55 3.393 3.393 0 0 0-1.855-3.55z" fill="#fff" fill-opacity=".668" stroke-width=".483"/><path style="line-height:normal;font-variant-ligatures:normal;font-variant-position:normal;font-variant-caps:normal;font-variant-numeric:normal;font-variant-alternates:normal;font-feature-settings:normal;text-indent:0;text-align:start;text-decoration-line:none;text-decoration-style:solid;text-decoration-color:#000;text-transform:none;text-orientation:mixed;shape-padding:0;isolation:auto;mix-blend-mode:normal" d="M22.963 12.28l.142-.048a3.15 3.15 0 0 1 3.245.758 3.154 3.154 0 0 1 .751 3.265l-.05.143 5.137 5.137.142-.05a3.153 3.153 0 0 1 3.266.75h.001a3.156 3.156 0 0 1 .001 4.47 3.158 3.158 0 0 1-4.472 0 3.16 3.16 0 0 1-.688-3.438l.061-.148L25.381 18l.003 12.813.135.066a3.157 3.157 0 0 1 .837 5.07 3.158 3.158 0 0 1-4.47-.001 3.158 3.158 0 0 1 0-4.471 3.157 3.157 0 0 1 1.034-.69l.15-.062-.002-12.516-.15-.061a3.16 3.16 0 0 1-1.717-4.146l.062-.149-5.105-5.083-.313.357 4.866 4.857c-.466 1.289-.203 2.783.828 3.815h.001v.001c.309.31.672.52 1.044.695l.003 11.945c-.373.175-.736.389-1.044.695a3.648 3.648 0 0 0 .001 5.154 3.648 3.648 0 0 0 5.154 0 3.648 3.648 0 0 0-.001-5.153 3.594 3.594 0 0 0-.83-.593l-.002-11.375 4.085 4.084c-.457 1.284-.19 2.768.835 3.794a3.648 3.648 0 0 0 5.154.001 3.647 3.647 0 0 0-.001-5.153c-.976-.977-2.366-1.262-3.604-.897l-4.746-4.744c.366-1.238.08-2.628-.896-3.605-.97-.97-2.349-1.258-3.581-.903-1.71-1.63-4.966-4.96-4.966-4.96l-.325.331z" color="#000" font-weight="400" font-family="sans-serif" white-space="normal" overflow="visible" fill-opacity="0" stroke="#000" stroke-width=".683" stroke-opacity=".142"/><path d="M44.978 22.161L25.84 3.022a2.86 2.86 0 0 0-4.045 0l-3.873 3.874 5.107 5.108a3.398 3.398 0 0 1 4.301 4.33l4.923 4.923a3.402 3.402 0 1 1-2.037 1.918l-4.592-4.59.003 12.078a3.403 3.403 0 1 1-2.797-.1l-.003-12.191a3.403 3.403 0 0 1-1.848-4.463l-5.035-5.036-13.29 13.29a2.86 2.86 0 0 0 .001 4.044l19.14 19.14a2.86 2.86 0 0 0 4.044 0l19.14-19.14a2.862 2.862 0 0 0 0-4.046z" fill="url(#f)" stroke-width=".483"/><path style="isolation:auto;mix-blend-mode:normal;marker:none" d="M24.068 14.109a1.117 1.117 NaN 0 0-1.117 1.117 1.117 1.117 NaN 0 0 1.117 1.116 1.117 1.117 NaN 0 0 1.116-1.116 1.117 1.117 NaN 0 0-1.116-1.117zm9.39 9.289a1.117 1.117 NaN 0 0-1.117 1.117 1.117 1.117 NaN 0 0 1.117 1.116 1.117 1.117 NaN 0 0 1.117-1.116 1.117 1.117 NaN 0 0-1.117-1.117zm-9.492 9.035a1.117 1.117 NaN 0 0-1.117 1.117 1.117 1.117 NaN 0 0 1.117 1.117 1.117 1.117 NaN 0 0 1.116-1.117 1.117 1.117 NaN 0 0-1.116-1.117z" color="#000" overflow="visible" fill="#fff" fill-opacity=".363" stroke-width=".407" stroke-opacity=".142"/></svg>