<svg xmlns:osb="http://www.openswatchbook.org/uri/2009/osb" xmlns="http://www.w3.org/2000/svg" xmlns:xlink="http://www.w3.org/1999/xlink" height="48" viewBox="0 0 48 48" width="48"><title>Template icons dark</title><defs><linearGradient id="i" osb:paint="solid"><stop offset="0"/></linearGradient><linearGradient id="g" osb:paint="solid"><stop offset="0" stop-color="#fff" stop-opacity=".079"/></linearGradient><linearGradient id="f" osb:paint="solid"><stop offset="0" stop-color="#c0aa8a"/></linearGradient><linearGradient id="c" osb:paint="solid"><stop offset="0" stop-opacity=".079"/></linearGradient><linearGradient id="e"><stop offset="0" stop-color="#e5d3b9" stop-opacity=".449"/><stop offset="1" stop-color="#e5d3b9" stop-opacity=".876"/></linearGradient><linearGradient id="a"><stop offset="0" stop-color="#e5d3b9"/><stop offset="1" stop-color="#e5d3b9"/></linearGradient><linearGradient id="b" osb:paint="solid"><stop offset="0" stop-color="#c0aa8a"/></linearGradient><linearGradient xlink:href="#b" id="k" gradientUnits="userSpaceOnUse" gradientTransform="matrix(1.01967 0 0 1.03029 -57.938 -69.829)" x1="64.666" y1="133.777" x2="88.203" y2="133.777"/><linearGradient xlink:href="#d" id="l" x1="13" y1="17" x2="13" y2="11" gradientUnits="userSpaceOnUse"/><linearGradient id="d"><stop offset="0" stop-opacity="0"/><stop offset=".25" stop-opacity=".091"/><stop offset="1" stop-opacity="0"/></linearGradient><linearGradient xlink:href="#a" id="m" gradientUnits="userSpaceOnUse" x1="29" y1="9" x2="29" y2="43.691"/><linearGradient xlink:href="#c" id="j" gradientUnits="userSpaceOnUse" gradientTransform="matrix(1.01967 0 0 1.03029 -57.938 -69.829)" x1="64.666" y1="133.777" x2="88.203" y2="133.777"/><linearGradient xlink:href="#g" id="n" x1="2" y1="12.617" x2="46" y2="12.617" gradientUnits="userSpaceOnUse"/><linearGradient id="h" osb:paint="solid"><stop offset="0" stop-color="#fff"/></linearGradient></defs><path d="M3 3C2 3 1 4 1 5v38c0 1 1 2 2 2 13.214-.033 41 0 42 0s2-.997 2-2V10c0-1-1-2-2-2H26l-6-5z" style="marker:none" fill="url(#j)" stroke-width=".205" paint-order="fill markers stroke"/><path style="marker:none" d="M4 4C3 4 2 5 2 6v36c0 1 1 2 2 2h40c1 0 2-.997 2-2V11c0-1-1-2-2-2H26l-6-5z" fill="url(#k)" stroke-width=".205" paint-order="fill markers stroke"/><path d="M4 4C3 4 2 5 2 6v36c0 1 1 2 2 2h40c1 0 2-.997 2-2V11c0-1-1-2-2-2H26l-6-5z" fill="url(#l)" stroke-width=".087"/><path style="marker:none" d="M44 9c1 0 2 1 2 2v31c0 1-1 2-2 2H4c-1 0-2-.997-2-2V16c0-1 1-2 2-2h16l6-5z" fill="url(#m)" stroke-width="1.205" paint-order="fill markers stroke"/><path d="M4 4C3 4 2 5 2 6v.309c0-1 1-1.672 2-1.674h16l6 5V9l-6-5z" fill="url(#n)" stroke-width=".4"/><path d="M26 9l-6 5H4c-1 0-2 1-2 2v.234c0-1 1-1.734 2-1.734h16l6-5h18c1 0 2 .734 2 1.734V11c0-1-1-2-2-2z" fill="url(#n)" stroke-width=".4"/><path d="M6.042 7h11.93c.571 0 1.042.31 1.042 1.5 0 .818-.465 1.476-1.042 1.476H6.042C5.465 9.976 5 9.318 5 8.5 5 7.684 5.465 7 6.042 7z" style="isolation:auto;mix-blend-mode:normal;marker:none" color="#000" display="block" overflow="visible" fill-opacity=".078" stroke-width=".096" paint-order="fill markers stroke"/><path d="M6.042 7A1.04 1.04 0 0 0 5 8.043c0 .058.008.113.017.169a1.037 1.037 0 0 1 1.025-.873h11.93c.519 0 .952.427 1.024.873.01-.056.018-.111.018-.17A1.04 1.04 0 0 0 17.972 7z" style="isolation:auto;mix-blend-mode:normal;marker:none" color="#000" display="block" overflow="visible" fill-opacity=".157" stroke-width=".081" paint-order="fill markers stroke"/><path style="isolation:auto;mix-blend-mode:normal;marker:none" d="M17.972 9.96a1.04 1.04 0 0 0 1.042-1.042c0-.058-.009-.114-.018-.17a1.037 1.037 0 0 1-1.024.874H6.042c-.52 0-.944-.378-1.025-.873A1.049 1.049 0 0 0 5 8.918 1.04 1.04 0 0 0 6.042 9.96z" color="#000" display="block" overflow="visible" opacity=".689" fill="url(#n)" stroke-width=".4" paint-order="fill markers stroke"/></svg>