<svg xmlns="http://www.w3.org/2000/svg" xmlns:xlink="http://www.w3.org/1999/xlink" height="48" viewBox="0 0 48 48" width="48"><title>Template icons dark</title><defs><linearGradient id="d"><stop offset="0" stop-color="#4e98d9"/><stop offset="1" stop-color="#ce18ec"/></linearGradient><linearGradient id="c"><stop offset="0" stop-color="#3489d3"/><stop offset="1" stop-color="#dd5ff2"/></linearGradient><linearGradient id="a"><stop offset="0" stop-color="#5a9fdb"/><stop offset="1" stop-color="#e47ff5"/></linearGradient><linearGradient id="b"><stop offset="0" stop-color="#d1d6da"/><stop offset="1" stop-color="#fff"/></linearGradient><linearGradient xlink:href="#a" id="f" gradientUnits="userSpaceOnUse" gradientTransform="matrix(.6268 .6268 -.6268 .6268 -22.356 -7.5)" x1="76.324" y1="-11.358" x2="40.503" y2="-11.358"/><linearGradient xlink:href="#b" id="e" gradientUnits="userSpaceOnUse" gradientTransform="matrix(1.04545 0 0 1.04545 -.401 -1.907)" x1="22.978" y1="39.178" x2="22.978" y2="21.425"/></defs><path style="isolation:auto;mix-blend-mode:normal;marker:none" d="M23.937-.063a24 24 0 0 0-24 24 24 24 0 0 0 24 24 24 24 0 0 0 24-24 24 24 0 0 0-24-24zm0 17.913a6.088 6.088 0 0 1 6.087 6.087 6.088 6.088 0 0 1-6.087 6.087 6.088 6.088 0 0 1-6.087-6.087 6.088 6.088 0 0 1 6.087-6.087z" color="#000" overflow="visible" fill-opacity=".12" stroke-width="1.044"/><path style="isolation:auto;mix-blend-mode:normal;marker:none" d="M23.937.937c-12.703 0-23 10.297-23 23s10.297 23 23 23 23-10.297 23-23-10.297-23-23-23z" color="#000" overflow="visible" fill="url(#e)" stroke-width=".523" stroke-opacity=".702"/><path style="isolation:auto;mix-blend-mode:normal;marker:none" d="M.944 23.687c-.001.084-.007.166-.007.25 0 12.703 10.297 23 23 23s23-10.297 23-23c0-.084-.006-.166-.007-.25-.135 12.587-10.374 22.75-22.993 22.75-12.619 0-22.858-10.163-22.993-22.75z" color="#000" overflow="visible" fill="#eaeaea" stroke-width=".523" stroke-opacity=".702"/><path d="M31.459 16.415l-3.761 3.761h10.029V10.147l-3.761 3.761c-5.541-5.54-14.517-5.54-20.058 0a14.083 14.083 0 0 0-3.786 6.895h3.66a10.51 10.51 0 0 1 2.633-4.388c4.156-4.155 10.888-4.155 15.044 0zm6.293 10.656h-3.66a10.51 10.51 0 0 1-2.633 4.388c-4.156 4.155-10.888 4.155-15.044 0l3.761-3.761H10.147v10.029l3.761-3.761c5.541 5.54 14.517 5.54 20.058 0a14.083 14.083 0 0 0 3.786-6.895z" style="marker:none" fill="url(#f)" stroke-width="1.349" stroke-opacity=".073"/><path style="marker:none" d="M23.937 9.753a14.139 14.139 0 0 0-13.814 11.05h.132a14.048 14.048 0 0 1 3.653-6.385c5.54-5.54 14.517-5.54 20.058 0l3.76-3.76v-.51l-3.76 3.76a14.139 14.139 0 0 0-10.029-4.155zm7.26 6.924l-3.499 3.499h.51l3.25-3.25c-.085-.086-.174-.166-.261-.249zm2.894 10.394a10.511 10.511 0 0 1-2.632 4.388c-4.07 4.07-10.61 4.15-14.782.248l-.262.263c4.156 4.155 10.888 4.155 15.044 0a10.511 10.511 0 0 0 2.632-4.389h3.528c.044-.17.094-.34.132-.51zm-23.943.627v.51h9.517l.511-.51z" fill-opacity=".276" stroke-width="1.349" stroke-opacity=".073"/><path style="marker:none" d="M23.937 13.298a10.605 10.605 0 0 0-7.522 3.117 10.511 10.511 0 0 0-2.632 4.388h-3.528c-.044.17-.093.34-.132.511h3.66a10.511 10.511 0 0 1 2.632-4.388c4.07-4.07 10.61-4.15 14.782-.249l.262-.262a10.605 10.605 0 0 0-7.522-3.117zm4.272 6.878l-.511.51h10.028v-.51zm9.41 7.405a14.048 14.048 0 0 1-3.653 6.385c-5.54 5.541-14.517 5.541-20.058 0l-3.76 3.76v.51l3.76-3.76c5.54 5.542 14.517 5.542 20.058 0a14.084 14.084 0 0 0 3.785-6.895zm-17.954.628l-3.25 3.25c.086.086.175.166.262.248l3.499-3.498z" fill="#fff" stroke-width="1.349" stroke-opacity=".073"/><path d="M23.937 3.496c-11.29 0-20.441 9.152-20.441 20.441 0 11.29 9.152 20.441 20.441 20.441 11.29 0 20.441-9.152 20.441-20.441 0-11.29-9.152-20.441-20.441-20.441z" style="isolation:auto;mix-blend-mode:normal;marker:none" color="#000" overflow="visible" fill="none" stroke="#000" stroke-width=".465" stroke-dasharray=".46479624,1.39438872" stroke-opacity=".13"/><path style="isolation:auto;mix-blend-mode:normal;marker:none" d="M23.937 2C11.822 2 2 11.822 2 23.937c0 12.115 9.822 21.937 21.937 21.937 12.115 0 21.937-9.822 21.937-21.937C45.874 11.822 36.052 2 23.937 2z" color="#000" overflow="visible" fill="none" stroke="#000" stroke-width=".499" stroke-dasharray=".49906689,1.49720066" stroke-opacity=".104"/></svg>