<svg xmlns="http://www.w3.org/2000/svg" xmlns:xlink="http://www.w3.org/1999/xlink" height="48" viewBox="0 0 48 48" width="48"><title>Template icons dark</title><defs><linearGradient id="l"><stop offset="0" stop-color="#5d6687"/><stop offset="1" stop-color="#e6e6e6"/></linearGradient><linearGradient id="k"><stop offset="0" stop-opacity=".286"/><stop offset="1" stop-opacity=".083"/></linearGradient><linearGradient id="a"><stop offset="0" stop-color="#fff" stop-opacity=".161"/><stop offset="1" stop-color="#fff" stop-opacity=".708"/></linearGradient><linearGradient id="b"><stop offset="0" stop-color="#4b4b4b"/><stop offset=".125" stop-color="#fff"/><stop offset=".306" stop-color="#747474"/><stop offset=".47" stop-color="#fff"/><stop offset=".539" stop-color="#fff"/><stop offset=".731" stop-color="#646464"/><stop offset=".931" stop-color="#fff"/><stop offset="1" stop-color="#505050"/></linearGradient><linearGradient id="c"><stop offset="0" stop-color="#fcfcfc"/><stop offset=".512" stop-color="#7c7c7c"/><stop offset=".904" stop-color="#fcfcfc"/><stop offset="1" stop-color="#b5b5b5"/></linearGradient><linearGradient id="d"><stop offset="0" stop-opacity="0"/><stop offset="1" stop-color="#919191" stop-opacity=".502"/></linearGradient><linearGradient id="e"><stop offset="0" stop-color="#15b5ff"/><stop offset="1" stop-color="#1385ff"/></linearGradient><linearGradient id="f"><stop offset="0" stop-color="#42ec81"/><stop offset="1" stop-color="#3add5c"/></linearGradient><linearGradient id="g"><stop offset="0" stop-color="#ff8300"/><stop offset="1" stop-color="#ff5b00"/></linearGradient><linearGradient id="h"><stop offset="0" stop-color="#f72424" stop-opacity=".066"/><stop offset="1" stop-color="#f72424" stop-opacity=".118"/></linearGradient><linearGradient id="i"><stop offset="0" stop-color="#6a7395"/><stop offset="1" stop-color="#d3d3d3"/></linearGradient><linearGradient id="j"><stop offset="0" stop-color="#b1b1b1"/><stop offset="1" stop-color="#7d809b"/></linearGradient><linearGradient xlink:href="#c" id="p" x1="11.592" y1="14.007" x2="28.333" y2="31.765" gradientUnits="userSpaceOnUse" gradientTransform="matrix(1.4968 0 0 1.4968 -10.673 -16.254)"/><linearGradient xlink:href="#d" id="q" x1="8.57" y1="18.196" x2="28.333" y2="31.765" gradientUnits="userSpaceOnUse" gradientTransform="matrix(1.4968 0 0 1.4968 -10.673 -16.254)"/><linearGradient xlink:href="#a" id="o" x1="20.54" y1="20.256" x2="17.967" y2="15.009" gradientUnits="userSpaceOnUse" gradientTransform="matrix(1.4968 0 0 1.4968 -10.673 -16.254)"/><linearGradient xlink:href="#i" id="m" gradientUnits="userSpaceOnUse" x1="23.844" y1="46.356" x2="23.844" y2="2.313" gradientTransform="matrix(.8046 0 0 .8046 -.422 -.422)"/><linearGradient xlink:href="#j" id="n" gradientUnits="userSpaceOnUse" x1="26.05" y1="46.063" x2="26.05" y2="1.813" gradientTransform="matrix(.8046 0 0 .8046 -.422 -.422)"/><linearGradient xlink:href="#b" id="r" gradientUnits="userSpaceOnUse" gradientTransform="matrix(.5671 .56157 -1.11238 1.14519 196.997 109.169)" x1="45.878" y1="34.792" x2="45.869" y2="42.694"/><linearGradient xlink:href="#b" id="s" gradientUnits="userSpaceOnUse" gradientTransform="matrix(.7981 0 0 1.5965 225.755 -64.719)" x1="45.878" y1="34.792" x2="46.015" y2="47.577"/></defs><path style="isolation:auto;mix-blend-mode:normal;marker:none" d="M36.246 18.934a17.74 17.74 0 0 1-17.739 17.74A17.74 17.74 0 0 1 .768 18.933a17.74 17.74 0 0 1 17.74-17.739 17.74 17.74 0 0 1 17.738 17.74z" color="#000" display="block" overflow="visible" fill-opacity=".813" stroke-width=".261" stroke-opacity=".391" paint-order="fill markers stroke"/><path d="M16.717 1.187c-.3 0-.468.238-.543.513l-.758 5.59.025.005c-.79.23-1.555.54-2.283.925L8.687 4.782c-.247-.142-.534-.191-.747.021L4.837 7.907c-.213.213-.163.496-.022.743l3.372 4.432c-.415.743-.75 1.527-1.002 2.34l-5.485.704c-.276.074-.513.243-.513.543v4.39c0 .3.238.465.513.54l5.404.724c.243.856.58 1.684 1.004 2.468L4.782 29.09c-.142.247-.191.534.021.746l3.104 3.104c.212.212.496.163.743.021l4.268-3.28c.8.443 1.645.797 2.523 1.052l.685 5.344c.074.275.242.513.543.513h4.39c.3 0 .465-.238.54-.513l.693-5.347a12.217 12.217 0 0 0 2.49-1.047l4.308 3.311c.247.143.534.192.746-.02l3.104-3.105c.212-.212.162-.498.02-.746l-3.34-4.332c.41-.768.736-1.577.974-2.414l5.483-.73c.275-.073.512-.239.512-.54v-4.39c0-.3-.237-.468-.512-.543l-5.546-.73a12.217 12.217 0 0 0-.96-2.28l3.423-4.477c.142-.247.191-.534-.021-.746l-3.104-3.104c-.212-.213-.499-.163-.746-.021l-4.48 3.423.02.027a12.217 12.217 0 0 0-2.278-.944l.01-.003-.748-5.619c-.074-.275-.24-.513-.54-.513h-4.39zm2.173 14.545a3.155 3.155 0 1 1 0 6.31 3.155 3.155 0 0 1 0-6.31z" style="isolation:auto;mix-blend-mode:normal;marker:none" color="#000" overflow="visible" opacity=".678" fill="url(#m)" stroke="url(#n)" stroke-width=".563" stroke-linecap="round" paint-order="stroke fill markers"/><path style="line-height:normal;text-indent:0;text-align:start;text-decoration-line:none;text-decoration-style:solid;text-decoration-color:#000;text-transform:none;isolation:auto;mix-blend-mode:normal;marker:none" d="M18.89 10.745c-4.481 0-8.145 3.661-8.145 8.142 0 4.48 3.664 8.145 8.145 8.145 4.48 0 8.141-3.664 8.141-8.145 0-4.48-3.66-8.142-8.141-8.142zm0 2.908a5.21 5.21 0 0 1 5.233 5.234 5.213 5.213 0 0 1-5.233 5.237 5.215 5.215 0 0 1-5.237-5.237 5.213 5.213 0 0 1 5.237-5.234z" color="#000" font-weight="400" font-family="sans-serif" white-space="normal" overflow="visible" opacity=".678" fill-opacity=".505" stroke="#000" stroke-width=".264" stroke-linecap="round" stroke-opacity=".391" paint-order="stroke fill markers"/><path d="M19.324 1.317c-9.225 0-17.886 8.311-17.886 17.536 0 9.224 8.456 17.543 17.68 17.543s17.406-8.182 17.406-17.406c0-9.225-7.976-17.673-17.2-17.673zm-.206 1.285c8.128 0 14.672 7.093 14.672 15.221a14.64 14.64 0 0 1-14.672 14.672A14.64 14.64 0 0 1 4.446 17.823c0-8.128 6.543-15.221 14.672-15.221z" fill="#050505" fill-opacity=".276" stroke-width=".299"/><path d="M19.287 5.193c-.961-.038-1.924.048-2.861.278C7.098 7.766 3.822 16.078 6.646 19.13c2.3 2.488 4.42-2.274 10.893-3.83 6.473-1.557 10.055 3.109 12.06.433 3.025-4.037-3.587-10.279-10.312-10.54zm11.018 13.31c-.95-.082-1.95.66-2.334 1.737-.438 1.233.027 2.633 1.081 3.007 1.054.375 2.297-.419 2.735-1.651.438-1.232-.028-2.63-1.081-3.005a1.61 1.61 0 0 0-.401-.088z" fill="url(#o)" stroke-width=".883" stroke-miterlimit="0" stroke-opacity=".192"/><path d="M18.888.11A18.737 18.737 0 0 0 .11 18.888a18.737 18.737 0 0 0 18.778 18.779 18.737 18.737 0 0 0 18.778-18.779A18.737 18.737 0 0 0 18.888.11zm0 1.457A17.283 17.283 0 0 1 36.21 18.888 17.283 17.283 0 0 1 18.89 36.21 17.283 17.283 0 0 1 1.566 18.888a17.283 17.283 0 0 1 17.321-17.32z" fill="url(#p)" stroke="url(#q)" stroke-width=".22"/><g stroke-width="1.693" stroke-miterlimit="0"><path d="M180.51 170.87l5.744 5.435-9.088 9.234-5.558-5.503z" fill="url(#r)" stroke-opacity=".192" transform="matrix(.52174 0 0 .52174 -59.753 -59.326)"/><path d="M258.257-9.374h22.38c1.012 0 1.826.815 1.826 1.827V8.935a1.823 1.823 0 0 1-1.826 1.826h-22.38a1.823 1.823 0 0 1-1.827-1.826V-7.547c0-1.012.815-1.827 1.827-1.827z" transform="matrix(.37073 .3671 -.36352 .37425 -59.753 -59.326)" fill="url(#s)" stroke-opacity=".192"/><path d="M46.493 39.022l1.262 1.236c.258.254.322.895.005 1.22l-6.135 6.314c-.256.263-.888.274-1.183-.017l-1.335-1.317c3.154-2.992 5.439-5.098 7.386-7.436z" fill-opacity=".427"/><path d="M38.883 31.466l1.136 1.106c-2.989 2.482-4.742 4.242-7.343 7.507l-1.087-1.068c-.07-.07-.105-.306-.046-.365l7.108-7.195c.058-.06.161-.053.232.015z" fill-opacity=".494"/></g></svg>