<svg xmlns="http://www.w3.org/2000/svg" xmlns:xlink="http://www.w3.org/1999/xlink" height="48" viewBox="0 0 48 48" width="48"><title>Template icons dark</title><defs><linearGradient id="d"><stop offset="0" stop-color="#e7747f"/><stop offset=".151" stop-color="#8c2f37"/><stop offset=".491" stop-color="#882d2d"/><stop offset=".873" stop-color="#cf5763"/><stop offset="1" stop-color="#f83044"/></linearGradient><linearGradient id="g"><stop offset="0" stop-color="#fff" stop-opacity=".115"/><stop offset=".555" stop-color="#fff" stop-opacity=".681"/><stop offset="1" stop-color="#fff" stop-opacity="0"/></linearGradient><linearGradient id="h"><stop offset="0" stop-color="#fff" stop-opacity=".073"/><stop offset=".555" stop-color="#fff" stop-opacity=".681"/><stop offset="1" stop-color="#fff" stop-opacity=".068"/></linearGradient><linearGradient id="f"><stop offset="0" stop-color="#463f54"/><stop offset=".192" stop-color="#413a4f"/><stop offset=".345" stop-color="#615876"/><stop offset=".499" stop-color="#3e384c"/><stop offset="1" stop-color="#343142"/></linearGradient><linearGradient id="e"><stop offset="0" stop-color="#b3b3b3"/><stop offset=".246" stop-color="#828282"/><stop offset=".543" stop-color="silver"/><stop offset=".824" stop-color="#fff"/><stop offset="1" stop-color="#8e8e8e"/></linearGradient><linearGradient id="c"><stop offset="0" stop-color="#fafafa"/><stop offset=".178" stop-color="#efe1f2"/><stop offset=".226" stop-color="#d5d6d8"/><stop offset=".705" stop-color="#7d8089"/><stop offset=".745" stop-color="#a6d6c0"/><stop offset=".796" stop-color="#657060"/><stop offset=".871" stop-color="#b3b2b7"/><stop offset=".961" stop-color="#fff"/><stop offset="1" stop-color="#cbcace"/></linearGradient><linearGradient id="b"><stop offset="0" stop-color="#4d4e55"/><stop offset="1" stop-color="#717171"/></linearGradient><linearGradient id="a"><stop offset="0" stop-color="#c2bac6"/><stop offset="1" stop-color="#fff"/></linearGradient><linearGradient xlink:href="#c" id="p" x1="159.898" y1="180" x2="159.898" y2="124" gradientUnits="userSpaceOnUse" gradientTransform="matrix(.59509 0 0 .59509 -71.325 -72.538)"/><linearGradient xlink:href="#d" id="o" x1="161" y1="133.852" x2="161" y2="126" gradientUnits="userSpaceOnUse" gradientTransform="matrix(.59509 0 0 .59509 -71.325 -72.538)"/><linearGradient xlink:href="#f" id="n" x1="160.063" y1="188" x2="160.063" y2="161.929" gradientUnits="userSpaceOnUse" gradientTransform="matrix(.5 0 0 .5 -56.04 -59.433)"/><linearGradient xlink:href="#e" id="m" x1="161" y1="132.669" x2="161" y2="126.984" gradientUnits="userSpaceOnUse" gradientTransform="matrix(.59509 0 0 .59509 -71.325 -72.538)"/><linearGradient xlink:href="#a" id="l" x1="160.063" y1="194.079" x2="160.063" y2="148.724" gradientUnits="userSpaceOnUse" gradientTransform="matrix(.59509 0 0 .59509 -71.325 -73.728)"/><linearGradient gradientTransform="matrix(.5 0 0 .5 -56.04 -56.933)" xlink:href="#g" id="k" x1="131" y1="202.811" x2="116.008" y2="189" gradientUnits="userSpaceOnUse"/><linearGradient gradientTransform="matrix(.5 0 0 .5 -56.04 -56.933)" xlink:href="#h" id="j" gradientUnits="userSpaceOnUse" x1="204.717" y1="191" x2="190" y2="204"/><linearGradient xlink:href="#b" id="i" gradientUnits="userSpaceOnUse" x1="160.063" y1="194.079" x2="160.063" y2="148.724" gradientTransform="translate(-77.906 -78.254) scale(.63618)"/></defs><g><path style="isolation:auto;mix-blend-mode:normal;marker:none" d="M10.933 13.64h26.1c1.973 0 3.025 1.678 3.561 3.593l6.92 24.714c.748 2.675-2.26 5.128-5.054 5.12l-36.962-.11c-2.795-.007-5.794-2.335-5.045-5.01l6.919-24.714c.536-1.915 1.588-3.593 3.561-3.593z" color="#000" display="block" overflow="visible" fill-opacity=".131" stroke-width=".318" stroke-opacity="0"/><path d="M10.818 13.64h26.33c1.99 0 3.111 1.661 3.592 3.593l6.045 24.275c.655 2.628-2.117 5.059-4.825 5.059h-36c-2.709 0-5.434-2.43-4.78-5.059l6.045-24.275c.481-1.931 1.603-3.593 3.593-3.593z" style="isolation:auto;mix-blend-mode:normal;marker:none" color="#000" overflow="visible" fill="url(#i)" stroke-width=".318" stroke-opacity="0"/><path d="M10.818 13.64h26.33c1.99 0 3.092 1.666 3.592 3.593l6.045 23.275c.681 2.622-2.117 5.059-4.825 5.059h-36c-2.709 0-5.46-2.437-4.78-5.059l6.045-23.275c.5-1.927 1.603-3.593 3.593-3.593z" style="isolation:auto;mix-blend-mode:normal;marker:none" color="#000" display="block" overflow="visible" fill="url(#j)" stroke-width=".318" stroke-opacity="0"/><path style="isolation:auto;mix-blend-mode:normal;marker:none" d="M10.818 13.64h26.33c1.99 0 3.09 1.667 3.592 3.593l6.22 23.834c.684 2.62-2.292 4.5-5 4.5h-36c-2.709 0-5.46-2.437-4.78-5.059l6.045-23.275c.5-1.927 1.603-3.593 3.593-3.593z" color="#000" display="block" overflow="visible" fill="url(#k)" stroke-width=".318" stroke-opacity="0"/><path style="isolation:auto;mix-blend-mode:normal;marker:none" d="M11.96 13.067h24c1.862 0 3.23 1.657 3.698 3.46l5.654 21.771c.637 2.452-2.04 4.573-4.573 4.573H7.227c-2.534 0-5.21-2.12-4.574-4.573l5.655-21.771c.468-1.803 1.79-3.46 3.652-3.46z" color="#000" display="block" overflow="visible" fill="url(#l)" stroke-width=".298" stroke-opacity="0"/><path style="isolation:auto;mix-blend-mode:normal;marker:none" d="M9.96 3.067h28c1 0 1 3.5 0 3.5h-28c-1 0-1-3.5 0-3.5z" color="#000" display="block" overflow="visible" fill="url(#m)" stroke-width=".201" stroke-opacity="0"/><path d="M30.46 23.567h-2.5l2 7h5.89l-11.859 7.04-11.81-7.04h5.779l2-7h-2.5l6.5-3z" style="isolation:auto;mix-blend-mode:normal;marker:none" color="#000" display="block" overflow="visible" fill="url(#n)" stroke-width=".105" stroke-opacity="0"/><path d="M30.46 23.567h1l-3.5-2 .519 1.085z" fill="#a89cac" fill-opacity=".974" fill-rule="evenodd" stroke-width=".5"/><path style="isolation:auto;mix-blend-mode:normal;marker:none" d="M15.46 2.567l16.51.007c.99 0 3.524.027 3.99.493.506.506.462 3.038 0 3.5-.483.483-3 .5-4 .5h-16.5c-1 0-3 0-3.5-.5s-.5-3 0-3.5c.466-.466 2.5-.5 3.5-.5z" color="#000" display="block" overflow="visible" fill="url(#o)" stroke-width=".201" stroke-opacity="0"/><path d="M17.46 23.567h-1l3.5-2-.519 1.085z" fill="#a89cac" fill-opacity=".974" fill-rule="evenodd" stroke-width=".5"/><path style="isolation:auto;mix-blend-mode:normal;marker:none" d="M18.46 1.067c-.585 0-1.712.78-1.712 1.971v4.166c0 1.56 2.38 1.892 2.38 3.363l.332 18h9l.19-18c.015-1.471 2.38-1.804 2.38-3.363V3.038c0-1.19-.975-1.971-1.57-1.971z" color="#000" display="block" overflow="visible" fill="url(#p)" stroke-width=".196" stroke-opacity="0"/><path style="line-height:1000%;-inkscape-font-specification:'Serto Kharput'" d="M21.46 13.067h5v1h-2v3.5h-1v-3.5h-2z" font-weight="400" font-family="Serto Kharput" letter-spacing="0" word-spacing="0" fill="#282828" stroke-width=".5"/><path style="isolation:auto;mix-blend-mode:normal;marker:none" d="M2.61 38.541c-.405 2.347 1.924 4.526 4.373 4.526H40.46c2.449 0 5.3-2.179 4.895-4.526-.342 1.884-2.804 3.526-4.895 3.526H6.983c-2.09 0-4.03-1.642-4.373-3.526z" color="#000" display="block" overflow="visible" fill="#fefdff" stroke-width=".298" stroke-opacity="0"/><path d="M10.46 3.067h.5c-.5.5-.5 3 0 3.5h-.5c-1 0-1-3.5 0-3.5zM37.382 3.067h-.5c.5.5.5 3 0 3.5h.5c1 0 1-3.5 0-3.5z" style="isolation:auto;mix-blend-mode:normal;marker:none" color="#000" display="block" overflow="visible" fill-opacity=".288" stroke-width=".201" stroke-opacity="0"/><path d="M18.96 26.567l-.437 2-.563 2h-5.78c.06 0 1.7 1.012 1.7 1.012l4.08-.012zm9.756 0l1.244 5 4.195.006s1.635-1.006 1.695-1.006h-5.89l-.564-2z" fill="#bab1bd" fill-opacity=".974" fill-rule="evenodd" stroke-width=".5"/><path d="M13.88 31.58c.08-.013 10.08 4.487 10.08 4.487l10.195-4.494-10.164 5.994z" fill-opacity=".183" fill-rule="evenodd" stroke-width=".5"/><circle style="isolation:auto;mix-blend-mode:normal;marker:none" cx="23.945" cy="14.764" r=".284" color="#000" display="block" overflow="visible" fill="#4dfb84" fill-opacity=".979" stroke="#4dfb84" stroke-width=".774" stroke-opacity=".387"/><circle r=".284" cy="13.603" cx="23.96" style="isolation:auto;mix-blend-mode:normal;marker:none" color="#000" display="block" overflow="visible" fill="#4dfb84" fill-opacity=".979" stroke="#4dfb84" stroke-width=".774" stroke-opacity=".387"/><circle r=".284" cy="15.772" cx="23.96" style="isolation:auto;mix-blend-mode:normal;marker:none" color="#000" display="block" overflow="visible" fill="#4dfb84" fill-opacity=".979" stroke="#4dfb84" stroke-width=".774" stroke-opacity=".387"/><circle style="isolation:auto;mix-blend-mode:normal;marker:none" cx="23.96" cy="16.78" r=".284" color="#000" display="block" overflow="visible" fill="#4dfb84" fill-opacity=".979" stroke="#4dfb84" stroke-width=".774" stroke-opacity=".387"/><circle style="isolation:auto;mix-blend-mode:normal;marker:none" cx="22.701" cy="13.603" r=".284" color="#000" display="block" overflow="visible" fill="#4dfb84" fill-opacity=".979" stroke="#4dfb84" stroke-width=".774" stroke-opacity=".387"/><circle r=".284" cy="13.603" cx="25.326" style="isolation:auto;mix-blend-mode:normal;marker:none" color="#000" display="block" overflow="visible" fill="#4dfb84" fill-opacity=".979" stroke="#4dfb84" stroke-width=".774" stroke-opacity=".387"/></g></svg>