<svg xmlns="http://www.w3.org/2000/svg" xmlns:xlink="http://www.w3.org/1999/xlink" height="48" viewBox="0 0 48 48" width="48"><title>Template icons dark</title><defs><linearGradient id="d"><stop offset="0" stop-color="#fff" stop-opacity=".802"/><stop offset=".502" stop-color="#fff" stop-opacity=".945"/><stop offset="1" stop-color="#fff" stop-opacity=".692"/></linearGradient><linearGradient id="c"><stop offset="0" stop-color="#fff" stop-opacity=".632"/><stop offset=".448" stop-color="#fff" stop-opacity=".94"/><stop offset="1" stop-color="#fff" stop-opacity=".61"/></linearGradient><linearGradient id="b"><stop offset="0" stop-color="#d1d1d1"/><stop offset="1" stop-color="#fff" stop-opacity=".989"/></linearGradient><linearGradient id="a"><stop offset="0" stop-color="#0086f7"/><stop offset="1" stop-color="#60cdff"/></linearGradient><linearGradient xlink:href="#a" id="e" x1="25" y1="45.7" x2="25" y2="8.075" gradientUnits="userSpaceOnUse" gradientTransform="matrix(2.2 0 0 2.2 -28.8 -35.84)"/><linearGradient gradientTransform="matrix(.52273 0 0 .52273 -59.636 -59.636)" xlink:href="#d" id="g" x1="173.291" y1="203.528" x2="136" y2="117.102" gradientUnits="userSpaceOnUse"/><linearGradient gradientTransform="matrix(.52273 0 0 .52273 -59.636 -59.636)" xlink:href="#b" id="f" x1="157.89" y1="194.158" x2="157.89" y2="132" gradientUnits="userSpaceOnUse"/></defs><path d="M4.219 0H43.78A4.21 4.21 0 0 1 48 4.219V43.78A4.21 4.21 0 0 1 43.781 48H4.22A4.21 4.21 0 0 1 0 43.781V4.22A4.21 4.21 0 0 1 4.219 0z" fill-opacity=".078" stroke-width="1.845" stroke-linejoin="round" stroke-opacity=".131"/><path d="M5.125 1h37.75A4.116 4.116 0 0 1 47 5.125v37.75A4.116 4.116 0 0 1 42.875 47H5.125A4.116 4.116 0 0 1 1 42.875V5.125A4.116 4.116 0 0 1 5.125 1z" fill="url(#e)" stroke-width="1.804" stroke-linejoin="round" stroke-opacity=".131"/><path d="M3.256 19.923h7.503l4.414 16.772 6.179-24.276 5.296 17.214 4.855-17.214 4.855 17.214h8.386" fill="none" fill-rule="evenodd" stroke="#000" stroke-width="3" stroke-opacity=".275"/><path d="M3.256 19.145h7.503l4.414 16.772 6.179-24.275 5.296 17.213 4.855-17.213 4.855 17.213h8.386" fill="none" fill-rule="evenodd" stroke="url(#f)" stroke-width="2"/><path style="line-height:normal;font-variant-ligatures:normal;font-variant-position:normal;font-variant-caps:normal;font-variant-numeric:normal;font-variant-alternates:normal;font-feature-settings:normal;text-indent:0;text-align:start;text-decoration-line:none;text-decoration-style:solid;text-decoration-color:#000;text-transform:none;text-orientation:mixed;shape-padding:0;isolation:auto;mix-blend-mode:normal" d="M5 1C2.598 1 1 2.91 1 5v38c0 2 1.79 4 4 4h38c2.09 0 4-1.763 4-4.09V5.09C47 2.387 44.787 1 42.91 1zm0 1h38c2 0 3 1 3 3v38c0 2-1.042 3-3 3H4c-1 0-2-1-2-2V5c0-2 1-3 3-3z" color="#000" font-weight="400" font-family="sans-serif" white-space="normal" overflow="visible" opacity=".259" fill="url(#g)" stroke-width="1.03" stroke-linejoin="round"/></svg>