<svg xmlns="http://www.w3.org/2000/svg" height="48" viewBox="0 0 48 48" width="48" enable-background="new"><title>Template icons dark</title><defs><linearGradient id="a"><stop offset="0" stop-color="#56aff6"/><stop offset="1" stop-color="#2196f3"/></linearGradient><clipPath id="c"><path d="M592-212L272 101.043V-116l-48 24v240l48 24 432-336z" fill="#1565c0" fill-rule="evenodd" enable-background="new"/></clipPath><filter id="d" x="-.054" width="1.108" y="-.068" height="1.135" color-interpolation-filters="sRGB"><feGaussianBlur stdDeviation="10.8"/></filter><filter id="b" x="-.024" width="1.048" y="-.024" height="1.048" color-interpolation-filters="sRGB"><feGaussianBlur stdDeviation="4.8"/></filter></defs><g fill-rule="evenodd"><path d="M152-216L-44.402-23.867-168-120l-48 24v240l48 24 123.598-96.133L152 264l112-48v-384zm0 135.111V128.89L17.143 24zm-320 31.846L-93.334 24-168 97.043z" transform="matrix(.09167 0 0 .09167 21.8 21.953)" opacity=".1" filter="url(#b)" enable-background="new"/><path d="M152-216L-44.402-23.867-168-120l-48 24v240l48 24 123.598-96.133L152 264l112-48v-384zm0 135.111V128.89L17.143 24zm-320 31.846L-93.334 24-168 97.043z" transform="matrix(.09167 0 0 .09167 21.8 21.953)" opacity=".2" filter="url(#b)" enable-background="new"/><path d="M35.733 1.786L17.73 19.4 6.4 10.586l-4.4 2.2v22l4.4 2.2 11.33-8.812 18.003 17.612L46 41.386v-35.2zm0 12.386v19.23l-12.362-9.616zM6.4 17.09l6.844 6.695L6.4 30.482z" opacity=".2" stroke-width=".092" enable-background="new"/><path d="M2 34.603v-22l4.4-2.2v26.4z" fill="#1976d2" stroke-width=".092" enable-background="new"/><path d="M35.733 1.603L2 34.603l4.4 2.2L46 6.003z" fill="#1565c0" stroke-width=".092" enable-background="new"/><path transform="matrix(.09167 0 0 .09167 -18.533 21.036)" d="M592 272L224-88l48-24 432 336z" clip-path="url(#c)" opacity=".2" filter="url(#d)" enable-background="new"/><path d="M35.733 1.603L2 34.603l.124.062 33.61-32.879 10.114 4.335.152-.118z" opacity=".2" fill="#fff" stroke-width=".092" enable-background="new"/><path d="M35.733 45.603L2 12.603l4.4-2.2 39.6 30.8z" fill="#1e88e5" stroke-width=".092" enable-background="new"/><path d="M6.4 10.403l-4.4 2.2.124.121L6.4 10.586l39.448 30.682.152-.065z" opacity=".2" fill="#fff" stroke-width=".092" enable-background="new"/><path d="M46 41.203v-35.2l-10.267-4.4v44z" fill="#2196f3" stroke-width=".092" enable-background="new"/><path d="M35.733 1.603v.183L46 6.186v-.183z" opacity=".2" fill="#fff" stroke-width=".092" enable-background="new"/></g></svg>