<svg xmlns="http://www.w3.org/2000/svg" xmlns:xlink="http://www.w3.org/1999/xlink" height="48" viewBox="0 0 48 48" width="48"><title>Template icons dark</title><defs><linearGradient id="e"><stop offset="0" stop-color="#1cdbff" stop-opacity=".143"/><stop offset="1" stop-color="#c34c74" stop-opacity="0"/></linearGradient><linearGradient id="d"><stop offset="0" stop-color="#d663eb" stop-opacity=".423"/><stop offset="1" stop-color="#c34c74" stop-opacity="0"/></linearGradient><linearGradient id="f"><stop offset="0" stop-color="#97176b"/><stop offset="1" stop-color="#69104b"/></linearGradient><linearGradient id="b"><stop offset="0" stop-color="#8ab0c4"/><stop offset="1" stop-color="#fcf6f8"/></linearGradient><linearGradient id="a"><stop offset="0" stop-color="#d8eaf3"/><stop offset="1" stop-color="#fff" stop-opacity=".945"/></linearGradient><linearGradient id="c"><stop offset="0" stop-color="#30d9eb"/><stop offset="1" stop-color="#5393e4"/></linearGradient><linearGradient xlink:href="#e" id="i" gradientUnits="userSpaceOnUse" gradientTransform="matrix(.46376 0 0 .46376 -50.264 -50.264)" x1="115.424" y1="153.693" x2="151.567" y2="164.5"/><linearGradient xlink:href="#d" id="h" gradientUnits="userSpaceOnUse" gradientTransform="matrix(.46376 0 0 .46376 -50.264 -50.264)" x1="191.501" y1="140.476" x2="137.499" y2="161.382"/><linearGradient xlink:href="#b" id="g" x1="160" y1="196" x2="160" y2="110.592" gradientUnits="userSpaceOnUse" gradientTransform="matrix(.46376 0 0 .46376 -50.264 -50.264)"/><radialGradient xlink:href="#f" id="j" gradientUnits="userSpaceOnUse" gradientTransform="matrix(1.45918 .10153 -.05081 .73027 -206.183 -105.094)" cx="168.187" cy="156.788" fx="168.187" fy="156.788" r="29.345"/></defs><g color="#000"><circle style="isolation:auto;mix-blend-mode:normal;marker:none" cx="23.937" cy="23.937" r="24" overflow="visible" fill-opacity=".121" stroke-width=".528" stroke-opacity=".995"/><circle r="23.478" cy="23.937" cx="23.937" style="isolation:auto;mix-blend-mode:normal;marker:none" display="block" overflow="visible" fill="url(#g)" stroke-width=".397" stroke-opacity=".995"/><circle style="isolation:auto;mix-blend-mode:normal;marker:none" cx="23.937" cy="23.937" r="23.478" display="block" overflow="visible" fill="url(#h)" stroke-width=".397" stroke-opacity=".995"/><circle r="23.478" cy="23.937" cx="23.937" style="isolation:auto;mix-blend-mode:normal;marker:none" display="block" overflow="visible" fill="url(#i)" stroke-width=".397" stroke-opacity=".995"/><path d="M26.26 19.51C13.087 24.864 7.25 26.572 2.048 30.514 5.406 39.78 13.43 46.5 23.002 46.77c14.058-.654 23.249-10.021 23.49-22.84a22.721 22.721 0 0 0-2.944-11.157c.015.035.038.066.052.102-14.908 7.147-13.019 6.588-17.34 6.636z" style="isolation:auto;mix-blend-mode:normal;marker:none" overflow="visible" fill="url(#j)" stroke-width=".487" stroke-opacity=".995"/><path d="M28.997 19.386C27.498 21.982 10.9 39.832 2.21 30.815c-7.01-17.487 22.09-11.36 26.786-11.43z" style="isolation:auto;mix-blend-mode:normal;marker:none" display="block" overflow="visible" fill="#b14abf" stroke-width=".705" stroke-opacity=".995"/><path style="isolation:auto;mix-blend-mode:normal;marker:none" d="M28.845 19.595c.987-1.724 13.064-14.64 15.16-6.03-.171 9.147-12.659 6.578-15.16 6.03z" display="block" overflow="visible" fill="#ef53b7" stroke-width=".503" stroke-opacity=".995"/><ellipse style="isolation:auto;mix-blend-mode:normal;marker:none" cx="2.239" cy="14.082" rx="8.581" ry="2.432" transform="rotate(-40.62)" display="block" overflow="visible" fill="#fff" fill-opacity=".286" stroke-width=".374"/><ellipse transform="rotate(25.023)" ry=".944" rx="3.331" cy="-9.101" cx="32.763" style="isolation:auto;mix-blend-mode:normal;marker:none" display="block" overflow="visible" fill="#fff" fill-opacity=".159" stroke-width=".145"/><ellipse transform="rotate(-40.62)" ry="2.626" rx="9.267" cy="53.28" cx="2.014" style="isolation:auto;mix-blend-mode:normal;marker:none" display="block" overflow="visible" fill="#fff" fill-opacity=".066" stroke-width=".404"/></g></svg>