<svg xmlns="http://www.w3.org/2000/svg" xmlns:xlink="http://www.w3.org/1999/xlink" height="48" viewBox="0 0 48 48" width="48" enable-background="new"><title>Template icons dark</title><defs><linearGradient id="d"><stop offset="0" stop-color="#1cdbff" stop-opacity=".143"/><stop offset="1" stop-color="#c34c74" stop-opacity="0"/></linearGradient><linearGradient id="c"><stop offset="0" stop-color="#d663eb" stop-opacity=".423"/><stop offset="1" stop-color="#c34c74" stop-opacity="0"/></linearGradient><linearGradient id="g"><stop offset="0" stop-color="#97176b"/><stop offset="1" stop-color="#69104b"/></linearGradient><linearGradient id="b"><stop offset="0" stop-color="#8ab0c4"/><stop offset="1" stop-color="#fcf6f8"/></linearGradient><linearGradient id="a"><stop offset="0" stop-color="#d8eaf3"/><stop offset="1" stop-color="#fff" stop-opacity=".945"/></linearGradient><linearGradient id="e"><stop offset="0" stop-color="#eeeeec"/><stop offset="1" stop-color="#d3d7cf"/></linearGradient><linearGradient id="f"><stop offset="0" stop-color="#2e3436"/><stop offset="1"/></linearGradient><linearGradient xlink:href="#b" id="h" x1="160" y1="196" x2="160" y2="110.592" gradientUnits="userSpaceOnUse" gradientTransform="translate(-49.133 -49.133) scale(.45389)"/><linearGradient xlink:href="#c" id="i" gradientUnits="userSpaceOnUse" gradientTransform="translate(-49.133 -49.133) scale(.45389)" x1="191.501" y1="140.476" x2="137.499" y2="161.382"/><linearGradient xlink:href="#d" id="j" gradientUnits="userSpaceOnUse" gradientTransform="translate(-49.133 -49.133) scale(.45389)" x1="115.424" y1="153.693" x2="151.567" y2="164.5"/><linearGradient xlink:href="#f" id="m" gradientUnits="userSpaceOnUse" gradientTransform="scale(1.94673) rotate(30 -52.286 194.21)" x1="9.697" y1="24.661" x2="33.232" y2="24.661"/><linearGradient xlink:href="#f" id="n" gradientUnits="userSpaceOnUse" gradientTransform="scale(1.94673) rotate(30 -52.286 194.21)" x1="19.5" y1="28.5" x2="23.5" y2="28.5"/><linearGradient xlink:href="#e" id="o" gradientUnits="userSpaceOnUse" gradientTransform="scale(1.94673) rotate(30 -52.286 194.21)" x1="20" y1="12" x2="23" y2="12"/><radialGradient xlink:href="#g" id="k" gradientUnits="userSpaceOnUse" gradientTransform="matrix(1.42813 .09937 -.04973 .71473 -201.735 -102.797)" cx="168.187" cy="156.788" fx="168.187" fy="156.788" r="29.345"/><filter id="l" x="-.072" width="1.144" y="-.101" height="1.201" color-interpolation-filters="sRGB"><feGaussianBlur stdDeviation="2.003"/></filter></defs><g><circle style="isolation:auto;mix-blend-mode:normal;marker:none" cx="23.489" cy="23.489" r="23.489" color="#000" overflow="visible" fill-opacity=".121" stroke-width=".517" stroke-opacity=".995" enable-background="accumulate"/><circle r="22.979" cy="23.489" cx="23.489" style="isolation:auto;mix-blend-mode:normal;marker:none" color="#000" display="block" overflow="visible" fill="url(#h)" stroke-width=".389" stroke-opacity=".995" enable-background="accumulate"/><circle style="isolation:auto;mix-blend-mode:normal;marker:none" cx="23.489" cy="23.489" r="22.979" color="#000" display="block" overflow="visible" fill="url(#i)" stroke-width=".389" stroke-opacity=".995" enable-background="accumulate"/><circle r="22.979" cy="23.489" cx="23.489" style="isolation:auto;mix-blend-mode:normal;marker:none" color="#000" display="block" overflow="visible" fill="url(#j)" stroke-width=".389" stroke-opacity=".995" enable-background="accumulate"/><path d="M25.763 19.157c-12.892 5.24-18.605 6.911-23.697 10.77 3.286 9.067 11.14 15.645 20.508 15.909 13.76-.64 22.755-9.808 22.99-22.354a22.238 22.238 0 0 0-2.88-10.92c.014.034.036.064.05.1-14.591 6.995-12.742 6.448-16.971 6.495z" style="isolation:auto;mix-blend-mode:normal;marker:none" color="#000" overflow="visible" fill="url(#k)" stroke-width=".476" stroke-opacity=".995" enable-background="accumulate"/><path d="M28.441 19.035c-1.466 2.54-17.711 20.011-26.216 11.186-6.861-17.115 21.62-11.118 26.216-11.186z" style="isolation:auto;mix-blend-mode:normal;marker:none" color="#000" display="block" overflow="visible" fill="#b14abf" stroke-width=".69" stroke-opacity=".995" enable-background="accumulate"/><path style="isolation:auto;mix-blend-mode:normal;marker:none" d="M28.293 19.24c.965-1.687 12.786-14.329 14.837-5.903-.167 8.953-12.39 6.44-14.837 5.902z" color="#000" display="block" overflow="visible" fill="#ef53b7" stroke-width=".492" stroke-opacity=".995" enable-background="accumulate"/><path d="M61.939 5.167c2.349-3.237-.453-9.1-3.72-11.407-2.198-1.554-5.418-.239-8.074.204-5.174.861-10.825 1.56-15.01 4.723-9.027 6.82-11.691 19.436-18.644 28.361-2.888 3.707-4.855 9.887-9.527 10.39-2.635.285-4.84-2.512-6.498-4.579-2.363-2.947-4.37-6.684-4.358-10.461.017-5.214 3.06-10.17 6.11-14.399 1.637-2.271 3.937-4.055 6.3-5.558 4.067-2.586 8.617-4.476 13.261-5.766 4.584-1.273 9.493-.893 14.148-1.873 5.617-1.181 10.812-4.37 16.535-4.81 2.863-.22 6.554-.957 8.544 1.114 2.316 2.412.729 6.651.894 9.991.067 1.355-.925 3.115.039 4.07z" transform="matrix(.51064 0 0 .51064 11.824 11.137)" fill="#fefefe" fill-opacity=".632" fill-rule="evenodd" stroke-width=".861" filter="url(#l)"/><path d="M37.283 8.803c-.147.062-1.31-1.713-1.466-1.75-.156-.036-1.99 1.032-2.094.91-.104-.12 1.224-1.775 1.21-1.935-.012-.159-1.595-1.573-1.512-1.71.083-.136 2.067.616 2.215.554.147-.062 1.003-2.004 1.158-1.967.156.036.054 2.156.158 2.277.105.122 2.216.335 2.23.494.013.16-2.035.718-2.118.854-.083.137.366 2.211.219 2.273z" style="isolation:auto;mix-blend-mode:normal;marker:none" color="#000" display="block" overflow="visible" fill-opacity=".379" stroke-width=".372" enable-background="accumulate"/><path style="isolation:auto;mix-blend-mode:normal;marker:none" d="M37.545 8.192c-.147.061-1.31-1.714-1.466-1.75-.156-.037-1.99 1.031-2.094.91-.104-.12 1.224-1.776 1.21-1.935-.012-.16-1.595-1.573-1.512-1.71.083-.137 2.068.615 2.215.554.147-.062 1.003-2.004 1.159-1.968.155.037.053 2.157.157 2.278.105.121 2.216.335 2.23.494.013.16-2.035.717-2.118.854-.083.137.366 2.21.22 2.273z" color="#000" display="block" overflow="visible" fill="#fefefe" stroke-width=".372" enable-background="accumulate"/><path style="isolation:auto;mix-blend-mode:normal;marker:none" d="M17.223 29.403c-.265.265-4.366-2.553-4.736-2.494-.37.059-3.4 4.005-3.734 3.835-.334-.17 1.078-4.94.908-5.275-.17-.333-4.86-1.995-4.801-2.365.059-.37 5.032-.502 5.297-.767.265-.264.396-5.238.767-5.297.37-.058 2.031 4.631 2.365 4.801.334.17 5.105-1.242 5.275-.908.17.334-3.776 3.364-3.835 3.734-.059.37 2.759 4.47 2.494 4.736z" color="#000" display="block" overflow="visible" fill-opacity=".302" stroke-width=".446" enable-background="accumulate"/><path d="M17.223 28.892c-.265.265-4.366-2.552-4.736-2.494-.37.06-3.4 4.006-3.734 3.836-.334-.17 1.078-4.941.908-5.275-.17-.334-4.86-1.996-4.801-2.366.059-.37 5.032-.501 5.297-.766.265-.265.396-5.239.767-5.297.37-.059 2.031 4.63 2.365 4.8.334.17 5.105-1.241 5.275-.907.17.333-3.776 3.363-3.835 3.733-.059.37 2.759 4.471 2.494 4.736z" style="isolation:auto;mix-blend-mode:normal;marker:none" color="#000" display="block" overflow="visible" fill="#fefefe" stroke-width=".446" enable-background="accumulate"/><path style="isolation:auto;mix-blend-mode:normal;marker:none" d="M26.244 12.086c-.144.149-2.432-1.366-2.636-1.33-.203.035-1.837 2.24-2.023 2.15-.186-.09.548-2.735.451-2.918-.097-.182-2.699-1.055-2.67-1.26.029-.204 2.77-.323 2.914-.472.144-.149.17-2.893.373-2.929.204-.036 1.165 2.535 1.35 2.626.186.09 2.804-.733 2.901-.55.097.182-2.051 1.89-2.08 2.095-.029.204 1.564 2.44 1.42 2.588z" color="#000" display="block" overflow="visible" fill-opacity=".247" stroke-width=".372" enable-background="accumulate"/><path d="M26.244 11.576c-.144.148-2.432-1.367-2.636-1.331-.203.036-1.837 2.241-2.023 2.15-.186-.09.548-2.735.451-2.917-.097-.183-2.699-1.055-2.67-1.26.029-.205 2.77-.324 2.914-.473.144-.148.17-2.893.373-2.929.204-.036 1.165 2.535 1.35 2.626.186.09 2.804-.733 2.901-.55.097.182-2.051 1.89-2.08 2.095-.029.205 1.564 2.44 1.42 2.589z" style="isolation:auto;mix-blend-mode:normal;marker:none" color="#000" display="block" overflow="visible" fill="#fefefe" stroke-width=".372" enable-background="accumulate"/><ellipse style="isolation:auto;mix-blend-mode:normal;marker:none" cx="2.198" cy="13.869" rx="8.398" ry="2.38" transform="rotate(-40.62)" color="#000" display="block" overflow="visible" fill="#fff" fill-opacity=".286" stroke-width=".366" enable-background="accumulate"/><ellipse transform="rotate(25.023)" ry=".924" rx="3.261" cy="-8.878" cx="32.148" style="isolation:auto;mix-blend-mode:normal;marker:none" color="#000" display="block" overflow="visible" fill="#fff" fill-opacity=".159" stroke-width=".142" enable-background="accumulate"/><ellipse transform="rotate(-40.62)" ry="2.57" rx="9.069" cy="52.233" cx="1.978" style="isolation:auto;mix-blend-mode:normal;marker:none" color="#000" display="block" overflow="visible" fill="#fff" fill-opacity=".066" stroke-width=".396" enable-background="accumulate"/><g transform="translate(-73.02 -66.281) scale(.57324)" stroke-width="1.947"><path d="M202.923 129.8l-36.988 64.065c-.538.93.536 2.557 2.398 3.632 1.863 1.075 3.808 1.192 4.346.261l36.988-64.065z" fill="url(#m)" stroke="url(#n)" stroke-linejoin="round"/><path d="M202.923 129.8l-9.734 16.859c-.537.93.536 2.557 2.399 3.632 1.862 1.076 3.807 1.192 4.345.261l9.734-16.859z" fill="url(#o)" stroke="#babdb6" stroke-linejoin="round"/><ellipse transform="rotate(30)" cx="244.53" cy="10.948" rx="3.893" ry="1.947" fill="#d3d7cf" stroke="#babdb6"/></g></g></svg>