<svg xmlns="http://www.w3.org/2000/svg" xmlns:xlink="http://www.w3.org/1999/xlink" height="48" viewBox="0 0 48 48" width="48"><title>Template icons dark</title><defs><linearGradient id="a"><stop offset="0" stop-color="#4d77d3"/><stop offset=".453" stop-color="#767294"/><stop offset="1" stop-color="#a6659c"/></linearGradient><linearGradient id="b"><stop offset="0" stop-color="#0b1528"/><stop offset="1" stop-color="#473d49"/></linearGradient><linearGradient xlink:href="#a" id="d" x1="53.271" y1="55.429" x2="-10.45" y2="-7.238" gradientUnits="userSpaceOnUse" gradientTransform="matrix(.62177 0 0 .63362 9.27 9.249)"/><linearGradient xlink:href="#b" id="c" x1="26.4" y1="60.613" x2="26.4" y2="-12.187" gradientUnits="userSpaceOnUse" gradientTransform="matrix(.56869 0 0 .56288 10.384 10.524)"/></defs><g><rect ry="2.368" y="2" height="44" width="48" style="isolation:auto;mix-blend-mode:normal;marker:none" color="#000" overflow="visible" fill-opacity=".077" stroke-width=".178" stroke-opacity=".471"/><rect style="isolation:auto;mix-blend-mode:normal;marker:none" width="45.831" height="41.831" x="1.084" y="3.084" ry="2.252" color="#000" overflow="visible" fill="url(#c)" stroke="#000" stroke-width=".169" stroke-opacity=".471"/><rect style="isolation:auto;mix-blend-mode:normal;marker:none" width="45" height="41" x="1.5" y="3.5" ry="1.536" color="#000" overflow="visible" fill="none" stroke="url(#d)"/><rect style="isolation:auto;mix-blend-mode:normal;marker:none" width="12" height="3" x="14" y="17" ry="0" color="#000" overflow="visible" fill="#8affca" fill-opacity=".984" stroke-width=".707"/><path style="line-height:10;-inkscape-font-specification:'Ubuntu Mono'" d="M8.178 16.917q.514 0 .856-.071.356-.086.556-.228.2-.157.285-.357.085-.214.085-.456 0-.356-.17-.599-.172-.256-.471-.442-.285-.2-.656-.342-.37-.157-.77-.3-.385-.142-.77-.313-.37-.17-.67-.413-.285-.257-.47-.6-.186-.355-.186-.869 0-.912.542-1.482t1.568-.728V8.25h1.055v1.426q.57.028 1.041.142.485.1.77.214l-.242.998q-.3-.114-.756-.228-.456-.128-1.155-.128-.77 0-1.183.285-.4.285-.4.827 0 .3.115.499.128.2.356.356.228.157.528.285.313.129.698.271.485.185.941.4.456.199.799.484.342.285.541.684.214.4.214.956 0 .84-.556 1.425-.556.585-1.71.727v1.64H7.906v-1.597q-.898-.028-1.454-.2-.556-.17-.827-.327l.314-.984q.385.185.912.356.528.157 1.326.157z" font-weight="400" font-size="10.102" font-family="Ubuntu Mono" letter-spacing="0" word-spacing="0" fill="#8affca" fill-opacity=".984" stroke-width="1.411"/></g></svg>