<svg xmlns="http://www.w3.org/2000/svg" xmlns:xlink="http://www.w3.org/1999/xlink" height="48" viewBox="0 0 48 48" width="48"><title>Template icons dark</title><defs><linearGradient id="A"><stop offset="0" stop-color="#e3ab74"/><stop offset="1" stop-color="#c89e75"/></linearGradient><linearGradient id="N"><stop offset="0" stop-opacity=".291"/><stop offset="1" stop-opacity="0"/></linearGradient><linearGradient id="q"><stop offset="0" stop-color="#6a5033"/><stop offset="1" stop-color="#bb905d"/></linearGradient><linearGradient id="x"><stop offset="0" stop-color="#739eff"/><stop offset="1" stop-color="#98e6f6"/></linearGradient><linearGradient id="r"><stop offset="0" stop-color="#967248" stop-opacity=".325"/><stop offset="1" stop-color="#bb905d"/></linearGradient><linearGradient id="p"><stop offset="0" stop-opacity="0"/><stop offset=".151" stop-opacity="0"/><stop offset=".416" stop-opacity=".319"/><stop offset=".703" stop-opacity=".082"/><stop offset="1" stop-opacity="0"/></linearGradient><linearGradient id="a"><stop offset="0"/><stop offset="1" stop-opacity="0"/></linearGradient><linearGradient id="b"><stop offset="0" stop-color="#fff" stop-opacity="0"/><stop offset=".245" stop-color="#fff"/><stop offset=".774" stop-color="#fff"/><stop offset="1" stop-color="#fff" stop-opacity="0"/></linearGradient><linearGradient id="c"><stop offset="0" stop-color="#fff"/><stop offset="1" stop-color="#fff" stop-opacity="0"/></linearGradient><linearGradient id="d"><stop offset="0" stop-color="#dac197"/><stop offset=".239" stop-color="#c1a581"/><stop offset=".276" stop-color="#dbc298"/><stop offset="1" stop-color="#a68b60"/></linearGradient><linearGradient x1="63.999" y1="3.1" x2="63.999" y2="122.899" id="e" gradientUnits="userSpaceOnUse"><stop offset="0" stop-color="#f6f6f6"/><stop offset="1" stop-color="#d2d2d2"/></linearGradient><linearGradient id="f"><stop offset="0" stop-color="#969696"/><stop offset="1" stop-color="#787878"/></linearGradient><linearGradient id="g"><stop offset="0" stop-color="#fff"/><stop offset="1" stop-color="#959595"/></linearGradient><linearGradient id="h"><stop offset="0" stop-color="#d3d7cf"/><stop offset=".183" stop-color="#babdb6"/><stop offset=".319" stop-color="#fff"/><stop offset=".876" stop-color="#babdb6"/><stop offset="1" stop-color="#eeeeec"/></linearGradient><linearGradient id="i"><stop offset="0" stop-color="#888a85"/><stop offset="1" stop-color="#555753"/></linearGradient><linearGradient id="j"><stop offset="0" stop-color="#babdb6"/><stop offset="1" stop-color="#fff"/></linearGradient><linearGradient id="k"><stop offset="0" stop-color="#edd563"/><stop offset="1" stop-color="#e08223"/></linearGradient><linearGradient id="l"><stop offset="0" stop-color="#bb5e12"/><stop offset="1" stop-color="#cd8033"/></linearGradient><linearGradient id="m"><stop offset="0" stop-color="#695337"/><stop offset="1" stop-color="#695337" stop-opacity="0"/></linearGradient><linearGradient id="n"><stop offset="0" stop-color="#c3a67d"/><stop offset=".239" stop-color="#a17d4f"/><stop offset=".276" stop-color="#bb9b71"/><stop offset="1" stop-color="#836945"/></linearGradient><linearGradient id="o"><stop offset="0" stop-opacity="0"/><stop offset=".5"/><stop offset="1" stop-opacity="0"/></linearGradient><linearGradient id="s"><stop offset="0" stop-color="#fcd9cd"/><stop offset="1" stop-color="#fcd9cd" stop-opacity="0"/></linearGradient><linearGradient id="t"><stop offset="0" stop-color="#ebeec7"/><stop offset="1" stop-color="#ebeec7" stop-opacity="0"/></linearGradient><linearGradient id="u"><stop offset="0" stop-color="#c4ebdd"/><stop offset="1" stop-color="#c4ebdd" stop-opacity="0"/></linearGradient><linearGradient id="v"><stop offset="0" stop-color="#c1cbe4"/><stop offset="1" stop-color="#c1cbe4" stop-opacity="0"/></linearGradient><linearGradient id="w"><stop offset="0" stop-color="#e6cde2"/><stop offset="1" stop-color="#e6cde2" stop-opacity="0"/></linearGradient><linearGradient id="E" y2="32.509" gradientUnits="userSpaceOnUse" x2="21.448" gradientTransform="translate(115.776 107.335) scale(1.3125)" y1="15.5" x1="21.448"><stop offset="0" stop-color="#aaa"/><stop offset="1" stop-color="#d4d4d4"/></linearGradient><linearGradient id="C" y2="14.203" gradientUnits="userSpaceOnUse" x2="35.391" gradientTransform="rotate(90 41.228 142.348) scale(1.5714)" y1="32.416" x1="12.274"><stop offset="0" stop-color="#dedbde"/><stop offset=".5" stop-color="#e6e6e6"/><stop offset="1" stop-color="#d2d2d2"/></linearGradient><linearGradient id="D" y2="45.033" gradientUnits="userSpaceOnUse" x2="-21.916" gradientTransform="translate(182.51 106.64) scale(1.3415)" y1="3" x1="-21.916"><stop offset="0" stop-color="#b4b4b4"/><stop offset="1" stop-color="#969696"/></linearGradient><linearGradient id="y"><stop offset="0" stop-color="#fff5ef"/><stop offset="1" stop-color="#fef8dd"/></linearGradient><linearGradient id="z"><stop offset="0" stop-color="#fff"/><stop offset=".063" stop-color="#fff" stop-opacity=".235"/><stop offset=".951" stop-color="#fff" stop-opacity=".157"/><stop offset="1" stop-color="#fff" stop-opacity=".392"/></linearGradient><linearGradient id="M"><stop offset="0" stop-color="#ff7d7d"/><stop offset=".262" stop-color="#fc6136"/><stop offset=".705" stop-color="#e21d0e"/><stop offset="1" stop-color="#ac1f1f"/></linearGradient><linearGradient id="B"><stop offset="0" stop-color="#ca81c4"/><stop offset="1" stop-color="#ce1748"/></linearGradient><linearGradient id="F" y2="41.181" gradientUnits="userSpaceOnUse" x2="25.208" gradientTransform="matrix(.92308 0 0 .9 134.545 121.35)" y1="28.5" x1="13.63"><stop offset="0" stop-color="#82fa32" stop-opacity=".841"/><stop offset="1" stop-color="#54be35" stop-opacity=".791"/></linearGradient><linearGradient x2="1" gradientUnits="userSpaceOnUse" gradientTransform="scale(37.65896) rotate(-88.059 4.182 .033)" id="G"><stop offset="0" stop-color="#888c8f"/><stop offset=".062" stop-color="#888c8f"/><stop offset=".677" stop-color="#fff"/><stop offset=".971" stop-color="#c5c7c6"/><stop offset="1" stop-color="#c5c7c6"/></linearGradient><linearGradient x1="-.006" y1=".936" x2="1.249" y2="-.572" gradientUnits="userSpaceOnUse" gradientTransform="rotate(-88.059 163.826 7.503) scale(35.6457)" id="H"><stop offset="0" stop-color="#636869"/><stop offset=".119" stop-color="#a4a8aa"/><stop offset=".177" stop-color="#c6c9ca"/><stop offset=".265" stop-color="#b7babb"/><stop offset=".501" stop-color="#d8d8d8"/><stop offset=".642" stop-color="#cfd0d0"/><stop offset=".73" stop-color="#c9d9d9"/><stop offset=".84" stop-color="#cbcccc"/><stop offset=".971" stop-color="#dadbdb"/><stop offset="1" stop-color="#dbdddc"/></linearGradient><linearGradient x1=".297" y1="-.219" x2=".827" y2=".252" gradientUnits="userSpaceOnUse" gradientTransform="scale(36.36815) rotate(18.09 -11.34 17.011)" id="I"><stop offset="0" stop-color="#cdc9c1"/><stop offset=".181" stop-color="#f4f3f1"/><stop offset=".492" stop-color="#b8b8b8"/><stop offset=".931" stop-color="#efeeeb"/><stop offset="1" stop-color="#fff"/></linearGradient><linearGradient x2="1" gradientUnits="userSpaceOnUse" gradientTransform="scale(-25.52501 25.52501) rotate(21.485 -18.377 -13.86)" id="J"><stop offset="0" stop-color="#888c8f"/><stop offset=".062" stop-color="#888c8f"/><stop offset=".677" stop-color="#fff"/><stop offset=".971" stop-color="#c5c7c6"/><stop offset="1" stop-color="#c5c7c6"/></linearGradient><linearGradient x1=".204" y1=".178" x2=".988" y2="-.108" gradientUnits="userSpaceOnUse" gradientTransform="scale(69.4056) rotate(-71.943 2.912 -.084)" id="K"><stop offset="0" stop-color="#a1a5a7"/><stop offset=".052" stop-color="#aeb1b3"/><stop offset=".178" stop-color="#d9dbdc"/><stop offset=".499" stop-color="#dcdfdf"/><stop offset=".677" stop-color="#fff"/><stop offset=".971" stop-color="#c5c7c6"/><stop offset="1" stop-color="#c5c7c6"/></linearGradient><linearGradient x1=".292" y1="-.05" x2=".949" y2="-.086" gradientUnits="userSpaceOnUse" gradientTransform="scale(36.36778 -36.36778) rotate(-68.481 -1.174 -5.63)" id="L"><stop offset="0" stop-color="#dcd9d4"/><stop offset=".019" stop-color="#dedcd7"/><stop offset=".402" stop-color="#c7d2d5"/><stop offset=".882" stop-color="#fbfbfa"/><stop offset="1" stop-color="#a7a093"/></linearGradient><linearGradient x1="167.983" y1="8.508" x2="167.983" y2="54.78" id="ag" xlink:href="#y" gradientUnits="userSpaceOnUse" gradientTransform="scale(.41112) rotate(15 -882.675 1232.942)"/><linearGradient gradientTransform="matrix(.5 0 0 .5 -56.064 -54.647)" xlink:href="#A" id="ao" x1="128.906" y1="195" x2="190.795" y2="153" gradientUnits="userSpaceOnUse"/><linearGradient xlink:href="#q" id="ap" x1="194.079" y1="154" x2="198.701" y2="163" gradientUnits="userSpaceOnUse" gradientTransform="matrix(.5 0 0 .5 -56.064 -53.147)"/><linearGradient xlink:href="#r" id="aq" gradientUnits="userSpaceOnUse" x1="194.079" y1="154" x2="198.701" y2="163" gradientTransform="matrix(-.5 0 0 .5 103.938 -53.147)"/><linearGradient xlink:href="#p" id="ar" x1="160" y1="166.656" x2="160" y2="196.616" gradientUnits="userSpaceOnUse" gradientTransform="matrix(.5 0 0 .98439 -56.064 -148.086)"/><linearGradient xlink:href="#F" id="O" gradientUnits="userSpaceOnUse" gradientTransform="matrix(.92308 0 0 .9 134.545 121.35)" x1="13.63" y1="28.5" x2="25.208" y2="41.181"/><linearGradient xlink:href="#C" id="Q" gradientUnits="userSpaceOnUse" gradientTransform="rotate(90 41.228 142.348) scale(1.5714)" x1="12.274" y1="32.416" x2="35.391" y2="14.203"/><linearGradient xlink:href="#D" id="R" gradientUnits="userSpaceOnUse" gradientTransform="translate(182.51 106.64) scale(1.3415)" x1="-21.916" y1="3" x2="-21.916" y2="45.033"/><linearGradient xlink:href="#E" id="S" gradientUnits="userSpaceOnUse" gradientTransform="translate(115.776 107.335) scale(1.3125)" x1="21.448" y1="15.5" x2="21.448" y2="32.509"/><linearGradient xlink:href="#c" id="T" gradientUnits="userSpaceOnUse" gradientTransform="translate(133.133 124.313) scale(.58088)" x1="18.776" y1="4.038" x2="18.203" y2="45.962"/><linearGradient xlink:href="#w" id="U" gradientUnits="userSpaceOnUse" gradientTransform="rotate(1.621 -3694.103 4166.568) scale(1.3333)" x1="20.58" y1="10.775" x2="24.274" y2="9.862" spreadMethod="reflect"/><linearGradient xlink:href="#v" id="V" gradientUnits="userSpaceOnUse" gradientTransform="translate(115.276 106.894) scale(1.3333)" x1="17.495" y1="11.2" x2="21.047" y2="9.796" spreadMethod="reflect"/><linearGradient xlink:href="#u" id="W" gradientUnits="userSpaceOnUse" gradientTransform="translate(115.276 106.894) scale(1.3333)" x1="14.085" y1="13.046" x2="16.994" y2="10.732" spreadMethod="reflect"/><linearGradient xlink:href="#t" id="X" gradientUnits="userSpaceOnUse" gradientTransform="translate(115.276 106.894) scale(1.3333)" x1="12.372" y1="16.188" x2="14.609" y2="13.462" spreadMethod="reflect"/><linearGradient xlink:href="#s" id="Y" gradientUnits="userSpaceOnUse" gradientTransform="translate(115.276 106.894) scale(1.3333)" x1="10.609" y1="17.886" x2="9.73" y2="20.613" spreadMethod="reflect"/><linearGradient xlink:href="#c" id="Z" gradientUnits="userSpaceOnUse" gradientTransform="translate(114.686 105.371) scale(1.3385)" x1="10.502" y1="3.61" x2="48.799" y2="54.698"/><linearGradient xlink:href="#w" id="aa" gradientUnits="userSpaceOnUse" gradientTransform="rotate(-178.379 90.39 84.629) scale(1.3333)" x1="20.58" y1="10.775" x2="24.274" y2="9.862" spreadMethod="reflect"/><linearGradient xlink:href="#v" id="ab" gradientUnits="userSpaceOnUse" gradientTransform="rotate(180 89.638 85.44) scale(1.3333)" x1="17.495" y1="11.2" x2="21.047" y2="9.796" spreadMethod="reflect"/><linearGradient xlink:href="#u" id="ac" gradientUnits="userSpaceOnUse" gradientTransform="rotate(180 89.638 85.44) scale(1.3333)" x1="14.085" y1="13.046" x2="16.994" y2="10.732" spreadMethod="reflect"/><linearGradient xlink:href="#t" id="ad" gradientUnits="userSpaceOnUse" gradientTransform="rotate(180 89.638 85.44) scale(1.3333)" x1="12.372" y1="16.188" x2="14.609" y2="13.462" spreadMethod="reflect"/><linearGradient xlink:href="#s" id="ae" gradientUnits="userSpaceOnUse" gradientTransform="rotate(180 89.638 85.44) scale(1.3333)" x1="10.609" y1="17.886" x2="9.73" y2="20.613" spreadMethod="reflect"/><linearGradient xlink:href="#x" id="af" gradientUnits="userSpaceOnUse" gradientTransform="translate(3.579 -15.939)" x1="211.886" y1="114.474" x2="230.317" y2="77.976"/><linearGradient xlink:href="#G" id="ah" gradientUnits="userSpaceOnUse" gradientTransform="scale(37.65896) rotate(-88.059 4.182 .033)" x2="1"/><linearGradient xlink:href="#H" id="ai" gradientUnits="userSpaceOnUse" gradientTransform="rotate(-88.059 163.826 7.503) scale(35.6457)" x1="-.006" y1=".936" x2="1.249" y2="-.572"/><linearGradient xlink:href="#I" id="aj" gradientUnits="userSpaceOnUse" gradientTransform="scale(36.36815) rotate(18.09 -11.34 17.011)" x1=".297" y1="-.219" x2=".827" y2=".252"/><linearGradient xlink:href="#J" id="ak" gradientUnits="userSpaceOnUse" gradientTransform="scale(-25.52501 25.52501) rotate(21.485 -18.377 -13.86)" x2="1"/><linearGradient xlink:href="#K" id="al" gradientUnits="userSpaceOnUse" gradientTransform="scale(69.4056) rotate(-71.943 2.912 -.084)" x1=".204" y1=".178" x2=".988" y2="-.108"/><linearGradient xlink:href="#L" id="am" gradientUnits="userSpaceOnUse" gradientTransform="scale(36.36778 -36.36778) rotate(-68.481 -1.174 -5.63)" x1=".292" y1="-.05" x2=".949" y2="-.086"/><radialGradient id="P" gradientUnits="userSpaceOnUse" cy="15.064" cx="9.026" gradientTransform="matrix(1.2852 0 0 .95593 128.632 124.918)" r="18.259"><stop offset="0" stop-color="#fff"/><stop offset="1" stop-color="#fff" stop-opacity="0"/></radialGradient><radialGradient xlink:href="#N" id="an" cx="157.114" cy="228.185" fx="157.114" fy="228.185" r="37" gradientTransform="matrix(.68345 0 0 .04197 -84.943 35.776)" gradientUnits="userSpaceOnUse"/></defs><g stroke-linejoin="round"><path d="M138.699 133.5v27h36zm5 11l15 11h-15z" fill="url(#O)" fill-rule="evenodd" stroke="#535353" stroke-width=".646" stroke-opacity=".269" transform="rotate(-75 13.92 97.716) scale(.65103)"/><path d="M39.816 22.213l1.257.337zm.842-3.144l1.258.337zm1.685-6.288l1.258.337zm.843-3.144l1.257.337zm-1.67 6.292l1.242.333z" fill="none" stroke="#2e2e2e" stroke-width=".24804243" stroke-linecap="round" stroke-opacity=".236"/><path d="M139.7 135.5v24h32zm4.999 8.5l14.5 10.5c.546.395.374 2-.3 2h-14.612c-.723 0-1.588-.752-1.588-1.474v-9.707c0-.671 1.456-1.712 2-1.318z" opacity=".5" fill="none" stroke="url(#P)" transform="rotate(-75 13.92 97.716) scale(.65103)"/></g><path d="M174.776 138.835a27.43 27.43 0 0 0-27.5-27.5 27.43 27.43 0 0 0-27.5 27.5 27.43 27.43 0 0 0 27.5 27.5 27.43 27.43 0 0 0 27.5-27.5zm-17 0c0 5.538-4.851 10.5-10.5 10.5-5.76 0-10.5-5.074-10.5-10.5 0-5.537 4.519-10.5 10.5-10.5 5.98 0 10.5 5.073 10.5 10.5z" fill="url(#Q)" stroke="url(#R)" transform="matrix(.49747 0 0 .49747 -53.603 -49.923)"/><path d="M147.276 128.335c-5.796 0-10.5 4.704-10.5 10.5s4.704 10.5 10.5 10.5 10.5-4.704 10.5-10.5-4.704-10.5-10.5-10.5zm0 5.25a5.252 5.252 0 0 1 5.25 5.25 5.252 5.252 0 0 1-5.25 5.25 5.252 5.252 0 0 1-5.25-5.25 5.252 5.252 0 0 1 5.25-5.25z" fill="#fff" fill-opacity=".498" stroke="url(#S)" stroke-linejoin="round" transform="matrix(.49747 0 0 .49747 -53.603 -49.923)"/><path d="M147.276 127.335c-6.374 0-11.5 5.126-11.5 11.5s5.126 11.5 11.5 11.5 11.5-5.126 11.5-11.5-5.126-11.5-11.5-11.5z" opacity=".8" fill="none" stroke="url(#T)" transform="matrix(.49747 0 0 .49747 -53.603 -49.923)"/><path d="M137.117 114.234l5.955 14.324a11.045 11.045 0 0 1 4.525-.83l.125.003.456-15.486c-3.918-.205-7.412.667-11.061 1.99z" opacity=".8" fill="url(#U)" stroke-width="1.333" transform="matrix(.49747 0 0 .49747 -53.603 -49.923)"/><path d="M131.437 117.435l9.24 12.48a11.058 11.058 0 0 1 4.191-1.9c.041-.01.08-.02.123-.027l-3.24-15.193c-3.852.748-7.092 2.474-10.314 4.64z" opacity=".8" fill="url(#V)" stroke-width="1.333" transform="matrix(.49747 0 0 .49747 -53.603 -49.923)"/><path d="M126.279 122.422l12.284 9.54a11.068 11.068 0 0 1 3.556-2.92c.037-.018.072-.037.11-.057l-7.133-13.757c-3.526 1.72-6.266 4.268-8.817 7.194z" opacity=".8" fill="url(#W)" stroke-width="1.333" transform="matrix(.49747 0 0 .49747 -53.603 -49.923)"/><path d="M122.786 128.325c9.566 2.99 10.466 9.374 17.036 2.339l-10.547-11.595c-2.962 2.575-4.782 5.77-6.49 9.256z" opacity=".8" fill="url(#X)" stroke-width="1.333" transform="matrix(.49747 0 0 .49747 -53.603 -49.923)"/><path d="M124.816 124.484c-1.578 2.336-2.544 4.849-3.367 7.525l15.118 3.966c.287-1.017.691-2.018 1.292-2.957l.083-.125-13.126-8.41z" opacity=".8" fill="url(#Y)" stroke-width="1.333" transform="matrix(.49747 0 0 .49747 -53.603 -49.923)"/><path d="M147.276 112.335a26.432 26.432 0 0 0-26.5 26.5 26.432 26.432 0 0 0 26.5 26.5 26.432 26.432 0 0 0 26.5-26.5 26.432 26.432 0 0 0-26.5-26.5z" opacity=".4" fill="none" stroke="url(#Z)" transform="matrix(.49747 0 0 .49747 -53.603 -49.923)"/><path d="M157.435 163.541l-5.955-14.324c-1.397.573-2.92.876-4.526.831l-.125-.004-.456 15.486c3.918.206 7.412-.667 11.062-1.99z" opacity=".8" fill="url(#aa)" stroke-width="1.333" transform="matrix(.49747 0 0 .49747 -53.603 -49.923)"/><path d="M163.115 160.34l-9.241-12.48a11.058 11.058 0 0 1-4.191 1.9c-.041.01-.08.02-.123.028l3.24 15.192c3.852-.748 7.092-2.474 10.315-4.64z" opacity=".8" fill="url(#ab)" stroke-width="1.333" transform="matrix(.49747 0 0 .49747 -53.603 -49.923)"/><path d="M168.273 155.353l-12.285-9.54a11.068 11.068 0 0 1-3.556 2.92l-.11.057 7.133 13.757c3.526-1.72 6.266-4.268 8.818-7.194z" opacity=".8" fill="url(#ac)" stroke-width="1.333" transform="matrix(.49747 0 0 .49747 -53.603 -49.923)"/><path d="M171.765 149.45c-9.566-2.99-10.466-9.374-17.035-2.338l10.546 11.594c2.962-2.575 4.782-5.77 6.49-9.256z" opacity=".8" fill="url(#ad)" stroke-width="1.333" transform="matrix(.49747 0 0 .49747 -53.603 -49.923)"/><path d="M169.735 153.291c1.578-2.336 2.544-4.849 3.367-7.525l-15.118-3.966c-.287 1.017-.69 2.018-1.292 2.957l-.083.125 13.126 8.41z" opacity=".8" fill="url(#ae)" stroke-width="1.333" transform="matrix(.49747 0 0 .49747 -53.603 -49.923)"/><g><path transform="scale(.44929) rotate(19.986 247.575 -366.973)" style="isolation:auto;mix-blend-mode:normal;marker:none" color="#000" display="block" overflow="visible" fill="url(#af)" stroke="#fff" stroke-width="2" paint-order="fill markers stroke" d="M198.873 57.46h35.906v39.685h-35.906z"/><path d="M32.515 12.112c-.272-.072-.272.12-.321.304l-1.4 5.209s-.15-.054-.254-.082c-.78-.261-1.801.082-2.103.891-.27.635.281 1.365.93 1.43.807.126 1.602-.509 1.709-1.317.37-1.374.733-2.753 1.109-4.124.07-.047.144.112.198.134.53.542.923 1.306.756 2.082-.12.61-.457 1.147-.81 1.647.909-.658 1.456-1.826 1.247-2.947-.088-.641-.54-1.144-.703-1.761-.13-.419-.196-.864-.136-1.301-.021-.1-.11-.136-.196-.158z" style="marker:none" color="#000" overflow="visible" fill="#0b0201" fill-opacity=".286" stroke-width=".578"/><path d="M182.692 132.564c-.606-.163-.606.267-.715.675l-3.115 11.594s-.333-.12-.566-.182c-1.737-.581-4.01.182-4.682 1.983-.601 1.414.627 3.039 2.073 3.181 1.794.282 3.563-1.13 3.802-2.93.824-3.058 1.63-6.126 2.467-9.18.156-.104.32.251.442.299 1.18 1.206 2.055 2.907 1.682 4.635-.265 1.356-1.017 2.552-1.802 3.665 2.022-1.464 3.24-4.064 2.776-6.558-.196-1.429-1.204-2.546-1.566-3.92-.29-.932-.435-1.924-.303-2.897-.046-.222-.244-.3-.436-.35z" fill="url(#ag)" stroke-width=".578" transform="matrix(.44929 0 0 .44929 -49.654 -47.947)"/></g><g><path d="M9.23 1.83l2.465 14.183L.533 6.126l1.315 3.573s.48 1.63 1.182 2.391c.688.746 2.566 2.625 2.566 2.625l7.014 6.558.037.212s1.012 1.057 1.156 1.329c.514.963.727 3.226.664 4.315-.02.341-.34 1.26-.363 1.326a4.176 4.176 0 0 0-2.193.59c-2.003 1.198-2.648 3.801-1.444 5.815a4.247 4.247 0 0 0 2.415 1.888c1.18.468 2.55.407 3.719-.292 2.001-1.197 2.647-3.8 1.442-5.815a4.302 4.302 0 0 0-.187-.28l-1.04-5.155 3.469 3.242c.043.103.088.206.14.307 1.082 2.082 3.638 2.9 5.708 1.826a4.201 4.201 0 0 0 2.2-3.017 4.246 4.246 0 0 0-.339-3.041c-1.081-2.083-3.635-2.9-5.706-1.825-.71.37-1.267.916-1.654 1.556-.066-.014-1.018-.225-1.319-.387-.96-.517-2.774-1.888-3.324-2.831-.008-.013-.018-.04-.027-.058l-2.081-10.33s-.614-2.584-.887-3.56c-.28-1-1.415-2.263-1.415-2.263zm15.92 21.855c.798.255 1.5.815 1.918 1.62.343.66.437 1.38.323 2.06a3.241 3.241 0 0 1-1.63 2.018c-1.6.83-3.572.199-4.408-1.41a3.297 3.297 0 0 1-.292-.815l-.074-.547a3.283 3.283 0 0 1 .04-.691 3.24 3.24 0 0 1 4.123-2.235zm-9.943 5.947c.037.01.073.023.11.034.212.087.416.197.608.329l.427.35c.203.196.386.42.539.674.93 1.557.431 3.567-1.115 4.492a3.24 3.24 0 0 1-2.577.328 3.278 3.278 0 0 1-1.58-1.357 3.272 3.272 0 0 1 1.115-4.492 3.242 3.242 0 0 1 2.473-.358z" fill="#1e1d1d" fill-opacity=".473" stroke-width=".103"/><path d="M178.47 163.07c-2.997-.57-8.982-2.694-11.242-4.743-.637-.575-2.81-4.04-2.81-4.04l-50.936-22.658 6.514 8.412s2.651 3.94 5.165 5.375c2.46 1.406 9.047 4.83 9.047 4.83l54.45 25.998-6.238-13.263s-2.98.273-3.95.09" fill="url(#ah)" stroke-width=".098" transform="rotate(16.064 155.049 -106.534) scale(.34037)"/><path d="M134.425 149.791c-.05-.026-6.59-3.428-9.013-4.813-2.385-1.362-4.972-5.18-4.997-5.219l-5.307-6.854 48.964 21.782c.445.702 2.2 3.456 2.817 4.014 2.281 2.068 8.326 4.262 11.485 4.865.84.16 2.887.018 3.74-.051l5.485 11.665-53.174-25.389" fill="url(#ai)" stroke-width=".098" transform="rotate(16.064 155.049 -106.534) scale(.34037)"/><path d="M25.796 28.493c-1.5.83-3.39.278-4.225-1.231a3.112 3.112 0 0 1 1.204-4.233A3.111 3.111 0 0 1 27 24.259a3.111 3.111 0 0 1-1.205 4.234zm-3.466-6.27c-1.942 1.074-2.64 3.528-1.56 5.481 1.08 1.953 3.53 2.669 5.472 1.595 1.942-1.073 2.638-3.528 1.558-5.481-1.08-1.954-3.528-2.668-5.47-1.594" fill="#6c6a6a" stroke-width=".098"/><path d="M200.289 172.333c-3.56 3.56-9.348 3.54-12.931-.042-3.583-3.583-3.602-9.37-.042-12.93 3.563-3.563 9.35-3.545 12.933.038 3.584 3.583 3.602 9.37.04 12.934zm-14.883-14.883c-4.608 4.608-4.584 12.104.052 16.74 4.637 4.637 12.136 4.664 16.744.056 4.61-4.61 4.581-12.107-.056-16.744-4.636-4.636-12.13-4.662-16.74-.052" fill="url(#aj)" stroke="#7d7569" stroke-width=".21" transform="rotate(16.064 155.049 -106.534) scale(.34037)"/><path d="M17.166 21.417l-1.18-1.165-3.512-4.178-.958-.797.634 4.593 5.644 5.015z" fill-opacity=".253" fill-rule="evenodd" stroke-width="1.05"/><path d="M168.302 175.846c-.75-2.956-3.226-8.805-5.405-10.938-.614-.602-4.201-2.565-4.201-2.565l-25.663-49.49 8.787 6.002s4.09 2.41 5.675 4.834c1.55 2.371 5.362 8.74 5.362 8.74l29.205 52.8-13.612-5.433s.095-2.992-.148-3.95" fill="url(#ak)" stroke-width=".098" transform="rotate(16.064 155.049 -106.534) scale(.34037)"/><path d="M168.964 179.458c.018-.856.037-2.91-.173-3.737-.79-3.117-3.341-9.02-5.541-11.174-.595-.583-3.448-2.17-4.177-2.573l-24.668-47.573 7.13 4.87c.068.043 4.037 2.398 5.538 4.693 1.525 2.336 5.313 8.66 5.35 8.726l28.513 51.547-11.972-4.779" fill="url(#al)" stroke-width=".098" transform="rotate(16.064 155.049 -106.534) scale(.34037)"/><path d="M12.539 33.367a3.112 3.112 0 0 1 .95-4.298c1.447-.917 3.368-.48 4.292.977.922 1.456.498 3.38-.95 4.298a3.112 3.112 0 0 1-4.292-.977zm-.771.489c1.194 1.886 3.682 2.453 5.557 1.265 1.873-1.187 2.422-3.68 1.228-5.565-1.195-1.885-3.683-2.45-5.556-1.263-1.875 1.188-2.424 3.678-1.23 5.563" fill="#6c6a6a" stroke-width=".098"/><path d="M165.94 197.807c-3.791-3.363-4.155-9.141-.812-12.908 3.34-3.765 9.12-4.094 12.91-.732 3.792 3.364 4.154 9.14.815 12.906-3.342 3.77-9.122 4.096-12.912.734zm-1.78 2.007c4.907 4.352 12.39 3.934 16.717-.946 4.324-4.877 3.85-12.358-1.057-16.71-4.906-4.351-12.387-3.927-16.712.948-4.329 4.878-3.853 12.357 1.053 16.708" fill="url(#am)" stroke="#7d7569" stroke-width=".21" transform="rotate(16.064 155.049 -106.534) scale(.34037)"/><path d="M15.411 19.966a.824.824 0 1 1-1.64-.174.824.824 0 0 1 1.64.174" fill="#9e9e9e" stroke="#000" stroke-width=".14601873" stroke-opacity=".577"/><path d="M14.669 20.442l.12-1.13h-.001l-.23-.027-.12 1.136.231.021" fill="#373636" stroke-width=".097"/></g><path style="isolation:auto;mix-blend-mode:normal;marker:none" d="M3.937 28.353h40v18.5h-40z" color="#000" overflow="visible" fill="url(#an)" stroke-width=".851" paint-order="fill markers stroke"/><path style="isolation:auto;mix-blend-mode:normal;marker:none" d="M5.937 20.853h36v24h-36z" color="#000" display="block" overflow="visible" fill="url(#ao)" stroke-width="1.134" paint-order="fill markers stroke"/><path style="isolation:auto;mix-blend-mode:normal;marker:none" d="M5.937 28.853v16h36v-16h-.5v15.5h-35v-15.5z" color="#000" display="block" overflow="visible" fill="#eac198" fill-opacity=".604" stroke-width="1.134" paint-order="fill markers stroke"/><path style="isolation:auto;mix-blend-mode:normal;marker:none" d="M41.937 20.853l6 7.5h-6z" color="#000" display="block" overflow="visible" fill="url(#ap)" stroke-width=".756" paint-order="fill markers stroke"/><path d="M5.937 20.853l-6 7.5h6z" style="isolation:auto;mix-blend-mode:normal;marker:none" color="#000" display="block" overflow="visible" fill="url(#aq)" stroke-width=".756" paint-order="fill markers stroke"/><path d="M5.905 13.353h36.032v31.5H5.905z" style="isolation:auto;mix-blend-mode:normal;marker:none" color="#000" display="block" overflow="visible" fill="url(#ar)" stroke-width="1.186" paint-order="fill markers stroke"/><path d="M5.905 20.853h36.032l3.5 8H2.405z" style="isolation:auto;mix-blend-mode:normal;marker:none" color="#000" display="block" overflow="visible" fill="#fece96" fill-opacity=".978" stroke-width=".756" paint-order="fill markers stroke"/><path style="isolation:auto;mix-blend-mode:normal;marker:none" d="M2.937 29.353l42-.008.5-.492H2.405z" color="#000" overflow="visible" fill="#f1bd81" stroke-width=".189" paint-order="fill markers stroke"/><path d="M-.063 27.853l5.5-7h.5l-6 7.5zM47.937 27.853l-5.5-7h-.5l6 7.5z" style="isolation:auto;mix-blend-mode:normal;marker:none" color="#000" display="block" overflow="visible" fill="#fccd95" stroke-width=".189" paint-order="fill markers stroke"/></svg>