<svg xmlns="http://www.w3.org/2000/svg" xmlns:xlink="http://www.w3.org/1999/xlink" width="128" height="128" viewBox="0 0 33.866666 33.866668"><defs><linearGradient id="b"><stop offset="0" stop-color="#11a6dd"/><stop offset="1" stop-color="#1186dd"/></linearGradient><linearGradient id="a"><stop offset="0" stop-color="#a911dd"/><stop offset="1" stop-color="#ba22ee"/></linearGradient><linearGradient xlink:href="#a" id="c" x1="-259.393" y1="145.938" x2="-233.308" y2="132.311" gradientUnits="userSpaceOnUse"/><linearGradient xlink:href="#b" id="d" x1="47.069" y1="267.52" x2="57.786" y2="285.223" gradientUnits="userSpaceOnUse"/></defs><g transform="translate(0 -263.133)"><rect transform="rotate(-64.547)" ry=".869" rx=".869" y="125.593" x="-259.393" height="20.346" width="27.315" fill="url(#c)" stroke-width=".053" stroke-linecap="round" stroke-linejoin="round" paint-order="fill markers stroke"/><path style="line-height:normal;font-variant-ligatures:normal;font-variant-position:normal;font-variant-caps:normal;font-variant-numeric:normal;font-variant-alternates:normal;font-feature-settings:normal;text-indent:0;text-align:start;text-decoration-line:none;text-decoration-style:solid;text-decoration-color:#000;text-transform:none;text-orientation:mixed;shape-padding:0;isolation:auto;mix-blend-mode:normal" d="M12.38 266.223l-.43.903 18.371 8.743.43-.902-18.37-8.744zm-8.744 18.371l-.43.903 18.371 8.743.43-.902-18.371-8.744z" color="#000" font-weight="400" font-family="sans-serif" white-space="normal" overflow="visible" fill-opacity=".063" stroke-width="3.78" stroke-linecap="round" stroke-linejoin="round" paint-order="fill markers stroke"/><rect width="27.315" height="20.346" x="-149.423" y="-255.909" rx=".869" ry=".869" transform="rotate(-154.547)" fill="#11cddd" stroke-width=".053" stroke-linecap="round" stroke-linejoin="round" paint-order="fill markers stroke"/><path style="line-height:normal;font-variant-ligatures:normal;font-variant-position:normal;font-variant-caps:normal;font-variant-numeric:normal;font-variant-alternates:normal;font-feature-settings:normal;text-indent:0;text-align:start;text-decoration-line:none;text-decoration-style:solid;text-decoration-color:#000;text-transform:none;text-orientation:mixed;shape-padding:0;isolation:auto;mix-blend-mode:normal" d="M7.578 268.204l-.452.949 14.261 1.911-2.95-1.404-10.86-1.456zm-3.15 6.616l-1.404 2.95-.892 6.662.948.451 1.349-10.063zm26.449.76l-1.35 10.066 1.405-2.951.893-6.663-.948-.451zm-18.304 13.821l2.95 1.405 10.856 1.455.451-.949-14.257-1.91z" color="#000" font-weight="400" font-family="sans-serif" white-space="normal" overflow="visible" fill-opacity=".063" stroke-width="3.78" stroke-linecap="round" stroke-linejoin="round" paint-order="fill markers stroke"/><rect width="27.315" height="20.346" x="40.398" y="265.32" rx=".869" ry=".869" transform="rotate(7.634)" fill="url(#d)" stroke-width=".053" stroke-linecap="round" stroke-linejoin="round" paint-order="fill markers stroke"/><text style="line-height:125%;-inkscape-font-specification:'Source Sans Pro Bold'" x="49.013" y="252.872" transform="matrix(.89888 .12042 -.14641 1.09288 0 0)" font-weight="700" font-size="9.598" font-family="Source Sans Pro" letter-spacing="0" word-spacing="0" fill="#fff" stroke-width=".24"><tspan x="49.013" y="252.872" style="-inkscape-font-specification:'Source Sans Pro Bold'">2048</tspan></text></g></svg>