<svg xmlns="http://www.w3.org/2000/svg" xmlns:xlink="http://www.w3.org/1999/xlink" width="128" height="128" viewBox="0 0 128 128"><defs><linearGradient id="b"><stop offset="0" stop-color="#0e0e0e"/><stop offset="1" stop-color="#333"/></linearGradient><linearGradient id="a"><stop offset="0" stop-color="#cccdd1"/><stop offset="1" stop-color="#f7f9f9"/></linearGradient><linearGradient xlink:href="#a" id="d" x1="701.81" y1="398.371" x2="699.275" y2="220.527" gradientUnits="userSpaceOnUse" gradientTransform="translate(-399.671 -144.993) scale(.66355)"/><linearGradient xlink:href="#b" id="c" x1="66.517" y1="120.595" x2="64.334" y2="5.983" gradientUnits="userSpaceOnUse"/></defs><path d="M77.39 29.41c-3.58 0-7.254 4.949-7.254 14.507 0 8.704 2.901 14.506 2.901 14.506s23.211-2.901 23.211-14.506c0-8.705-8.172-15.773-11.605-8.705-1.296-3.887-3.788-5.802-7.254-5.802zM44.023 32.31c-8.704 0-15.773 8.173-8.704 11.606-3.888 1.295-5.803 3.788-5.803 7.253 0 3.579 4.949 7.253 14.507 7.253 8.704 0 14.506-2.901 14.506-2.901s-2.9-23.211-14.506-23.211zm11.605 37.718S32.42 72.93 32.42 84.536c0 8.704 8.172 15.773 11.605 8.704 1.296 3.888 3.788 5.803 7.253 5.803 3.579 0 7.253-4.95 7.253-14.507 0-8.704-2.9-14.507-2.9-14.507zm29.014 0c-8.704 0-14.507 2.901-14.507 2.901s2.901 23.211 14.507 23.211c8.704 0 15.773-8.172 8.704-11.605 3.888-1.296 5.803-3.789 5.803-7.254 0-3.579-4.95-7.253-14.507-7.253z" style="isolation:isolate" fill="#f9f9f9" stroke-width=".484"/><circle cx="64.333" cy="64.226" r="60.566" fill="url(#c)" stroke="#cccdd1" stroke-width="4.645"/><path style="line-height:normal;font-variant-ligatures:normal;font-variant-position:normal;font-variant-caps:normal;font-variant-numeric:normal;font-variant-alternates:normal;font-feature-settings:normal;text-indent:0;text-align:start;text-decoration-line:none;text-decoration-style:solid;text-decoration-color:#000;text-transform:none;text-orientation:mixed;shape-padding:0;isolation:auto;mix-blend-mode:normal" d="M64.334 1.339c-34.705 0-62.889 28.182-62.889 62.887 0 34.704 28.184 62.888 62.889 62.888 34.704 0 62.887-28.184 62.887-62.888 0-34.705-28.183-62.887-62.887-62.887zm0 4.644c32.194 0 58.242 26.048 58.242 58.243 0 32.194-26.048 58.243-58.242 58.243-32.195 0-58.244-26.05-58.244-58.243 0-32.195 26.05-58.243 58.244-58.243z" color="#000" font-weight="400" font-family="sans-serif" white-space="normal" overflow="visible" fill="url(#d)" stroke-width="4.645"/><path d="M64.333 30.01a34.217 34.217 0 0 0-34.217 34.216 34.217 34.217 0 0 0 34.217 34.217A34.217 34.217 0 0 0 98.55 64.226 34.217 34.217 0 0 0 64.333 30.01zm-.117 9.87c5.127 0 9.056 1.097 11.787 3.291 2.754 2.172 4.131 5.272 4.131 9.301 0 2.575-.784 4.838-2.352 6.785-1.544 1.948-3.626 3.179-6.246 3.694v.134c3.045.493 5.43 1.745 7.155 3.76 1.746 1.993 2.619 4.568 2.619 7.725 0 4.433-1.468 7.88-4.4 10.342-2.933 2.44-7.12 3.66-12.56 3.66-5.395 0-9.58-1.22-12.558-3.66-2.955-2.44-4.433-5.865-4.433-10.276 0-3.022.873-5.563 2.619-7.623 1.746-2.082 4.087-3.369 7.02-3.861v-.135c-2.553-.56-4.613-1.825-6.18-3.795-1.568-1.97-2.35-4.242-2.35-6.816 0-3.873 1.364-6.93 4.096-9.168 2.753-2.239 6.637-3.358 11.652-3.358zm0 6.616c-4.074 0-6.111 2.16-6.111 6.48 0 4.522 2.06 6.783 6.18 6.783 2.059 0 3.592-.526 4.599-1.578 1.03-1.052 1.545-2.787 1.545-5.205 0-2.239-.515-3.872-1.545-4.902-1.03-1.052-2.586-1.578-4.668-1.578zm-.066 19.88c-2.284 0-4.04.65-5.272 1.948-1.209 1.298-1.814 3.167-1.814 5.607 0 2.776.605 4.802 1.814 6.078 1.21 1.276 3.054 1.914 5.54 1.914 2.44 0 4.23-.638 5.372-1.914 1.164-1.276 1.746-3.347 1.746-6.213 0-4.947-2.461-7.42-7.386-7.42z" fill="#f2f2f2"/></svg>