<svg xmlns="http://www.w3.org/2000/svg" xmlns:xlink="http://www.w3.org/1999/xlink" width="128" height="128" viewBox="0 0 128 128"><defs><linearGradient id="b"><stop offset="0" stop-color="#1c47ff"/><stop offset="1" stop-color="#92d8eb"/></linearGradient><linearGradient id="a"><stop offset="0" stop-color="#cccdd1"/><stop offset="1" stop-color="#f7f9f9"/></linearGradient><linearGradient xlink:href="#a" id="e" x1="701.81" y1="398.371" x2="699.275" y2="220.527" gradientUnits="userSpaceOnUse" gradientTransform="translate(-399.671 -144.993) scale(.66355)"/><linearGradient xlink:href="#b" id="d" x1="66.517" y1="120.595" x2="64.334" y2="5.983" gradientUnits="userSpaceOnUse"/><linearGradient id="c"><stop offset="0" stop-color="#0068e0"/><stop offset="1" stop-color="#00acf4"/></linearGradient></defs><path d="M77.39 29.41c-3.58 0-7.254 4.949-7.254 14.507 0 8.704 2.901 14.506 2.901 14.506s23.211-2.901 23.211-14.506c0-8.705-8.172-15.773-11.605-8.705-1.296-3.887-3.788-5.802-7.254-5.802zM44.023 32.31c-8.704 0-15.773 8.173-8.704 11.606-3.888 1.295-5.803 3.788-5.803 7.253 0 3.579 4.949 7.253 14.507 7.253 8.704 0 14.506-2.901 14.506-2.901s-2.9-23.211-14.506-23.211zm11.605 37.718S32.42 72.93 32.42 84.536c0 8.704 8.172 15.773 11.605 8.704 1.296 3.888 3.788 5.803 7.253 5.803 3.579 0 7.253-4.95 7.253-14.507 0-8.704-2.9-14.507-2.9-14.507zm29.014 0c-8.704 0-14.507 2.901-14.507 2.901s2.901 23.211 14.507 23.211c8.704 0 15.773-8.172 8.704-11.605 3.888-1.296 5.803-3.789 5.803-7.254 0-3.579-4.95-7.253-14.507-7.253z" style="isolation:isolate" fill="#f9f9f9" stroke-width=".484"/><circle cx="64.333" cy="64.226" r="60.566" fill="url(#d)" stroke="#cccdd1" stroke-width="4.645"/><path style="line-height:normal;font-variant-ligatures:normal;font-variant-position:normal;font-variant-caps:normal;font-variant-numeric:normal;font-variant-alternates:normal;font-feature-settings:normal;text-indent:0;text-align:start;text-decoration-line:none;text-decoration-style:solid;text-decoration-color:#000;text-transform:none;text-orientation:mixed;shape-padding:0;isolation:auto;mix-blend-mode:normal" d="M64.334 1.339c-34.705 0-62.889 28.182-62.889 62.887 0 34.704 28.184 62.888 62.889 62.888 34.704 0 62.887-28.184 62.887-62.888 0-34.705-28.183-62.887-62.887-62.887zm0 4.644c32.194 0 58.242 26.048 58.242 58.243 0 32.194-26.048 58.243-58.242 58.243-32.195 0-58.244-26.05-58.244-58.243 0-32.195 26.05-58.243 58.244-58.243z" color="#000" font-weight="400" font-family="sans-serif" white-space="normal" overflow="visible" fill="url(#e)" stroke-width="4.645"/><path d="M64.334 38.464c-14.909 0-28.99 6.578-38.635 18.053a3.602 3.602 0 0 0 .443 5.078 3.6 3.6 0 0 0 5.078-.44c8.269-9.837 20.34-15.48 33.114-15.48 12.774 0 24.843 5.643 33.111 15.478a3.6 3.6 0 0 0 2.764 1.285 3.601 3.601 0 0 0 2.758-5.922c-9.643-11.474-23.724-18.052-38.633-18.052zm-.002 15.27c-10.65 0-20.706 4.698-27.594 12.892a3.602 3.602 0 0 0 .441 5.078 3.595 3.595 0 0 0 5.078-.44c5.512-6.558 13.56-10.32 22.075-10.32 8.515 0 16.562 3.762 22.076 10.32a3.595 3.595 0 0 0 5.078.44 3.603 3.603 0 0 0 .443-5.078c-6.89-8.194-16.947-12.893-27.597-12.893zm.002 15.86c-6.393 0-12.43 2.82-16.559 7.735a3.602 3.602 0 0 0 .444 5.078 3.59 3.59 0 0 0 2.316.846c1.029 0 2.05-.437 2.762-1.285 2.757-3.281 6.78-5.164 11.037-5.164 4.256 0 8.278 1.883 11.035 5.164a3.592 3.592 0 0 0 2.762 1.285c.82 0 1.643-.276 2.318-.846a3.602 3.602 0 0 0 .441-5.078c-4.129-4.915-10.163-7.734-16.556-7.734zm.752 13.674c-3.157-.228-6.584 1.998-6.692 5.53a5.94 5.94 0 0 0 11.877 0c-.439-3.688-2.73-5.351-5.185-5.53z" fill="#fff" stroke-width=".129"/></svg>