<svg xmlns="http://www.w3.org/2000/svg" xmlns:xlink="http://www.w3.org/1999/xlink" height="136.533" viewBox="0 0 136.53333 136.53333" width="136.533"><defs><linearGradient id="b"><stop offset="0" stop-color="#03a0ff"/><stop offset=".5" stop-color="#00ce98"/><stop offset="1" stop-color="#c48fff"/></linearGradient><linearGradient id="a"><stop offset="0" stop-color="#f1f1f1"/><stop offset="1" stop-color="#d9dad9"/></linearGradient><linearGradient xlink:href="#a" id="e" x1="73.909" y1="8.694" x2="79.909" y2="137.964" gradientUnits="userSpaceOnUse"/><linearGradient xlink:href="#b" id="f" x1="109.022" y1="137.146" x2="25.16" y2="-3.491" gradientUnits="userSpaceOnUse"/></defs><linearGradient id="d"><stop offset="0" stop-color="#9760ef"/><stop offset="1" stop-color="#c054f2" stop-opacity="0"/></linearGradient><linearGradient id="c"><stop offset="0" stop-color="#17c7e7"/><stop offset="1" stop-color="#c054f2" stop-opacity="0"/></linearGradient><path style="line-height:normal;font-variant-ligatures:normal;font-variant-position:normal;font-variant-caps:normal;font-variant-numeric:normal;font-variant-alternates:normal;font-feature-settings:normal;text-indent:0;text-align:start;text-decoration-line:none;text-decoration-style:solid;text-decoration-color:#000;text-transform:none;text-orientation:mixed;shape-padding:0;isolation:auto;mix-blend-mode:normal" d="M68.113 2.217c-36.98 0-67.021 30.042-67.021 67.021 0 36.98 30.042 67.022 67.021 67.022 36.98 0 67.022-30.042 67.022-67.022 0-36.98-30.042-67.021-67.022-67.021z" color="#000" font-weight="400" font-family="sans-serif" white-space="normal" overflow="visible" fill="url(#e)" stroke-width="6"/><path d="M68.113 8.781c-33.39 0-60.457 27.068-60.457 60.457 0 33.39 27.068 60.458 60.457 60.457 33.39 0 60.458-27.067 60.457-60.457 0-33.39-27.067-60.457-60.457-60.457z" fill="url(#f)" stroke-width="3.8" stroke-linecap="round" stroke-linejoin="round" stroke-opacity=".053" paint-order="fill markers stroke"/><path d="M53.03 36.516l-1.487 4.459 1.486.086v25.968l-17.523 35.05c-.988 1.976.448 4.302 2.658 4.302H96.14c2.21 0 3.646-2.326 2.658-4.303L81.273 67.03V41.061l1.487-.086-1.487-4.46h-5.945v31.217c0 .462.106.918.313 1.33l15.69 31.374H42.972l15.69-31.374c.205-.412.314-.868.314-1.33V36.516h-5.948zm11.236 20.072a3.54 3.54 0 0 0-3.541 3.539 3.54 3.54 0 0 0 3.54 3.539 3.54 3.54 0 0 0 3.54-3.539 3.54 3.54 0 0 0-3.54-3.54zm6.24 3.81a2.029 2.029 0 0 0-2.03 2.028 2.029 2.029 0 0 0 2.03 2.03 2.029 2.029 0 0 0 2.03-2.03 2.029 2.029 0 0 0-2.03-2.028zm-1.512 5.387a2.751 2.751 0 0 0-2.75 2.75 2.751 2.751 0 0 0 2.75 2.752 2.751 2.751 0 0 0 2.752-2.752 2.751 2.751 0 0 0-2.752-2.75zM56.77 76.65L45.723 98.736H88.58L77.535 76.65H56.77z" fill="#fff" fill-rule="evenodd" stroke-width="2.973"/></svg>