<svg xmlns="http://www.w3.org/2000/svg" xmlns:xlink="http://www.w3.org/1999/xlink" height="136.533" viewBox="0 0 136.53333 136.53333" width="136.533"><defs><linearGradient id="b"><stop offset="0" stop-color="#008c67"/><stop offset="1" stop-color="#00c490" stop-opacity=".951"/></linearGradient><linearGradient id="a"><stop offset="0" stop-color="#f1f1f1"/><stop offset="1" stop-color="#d9dad9"/></linearGradient><linearGradient xlink:href="#a" id="e" x1="73.909" y1="8.694" x2="79.909" y2="137.964" gradientUnits="userSpaceOnUse"/><linearGradient xlink:href="#b" id="f" x1="68.113" y1="106.056" x2="68.113" y2="8.781" gradientUnits="userSpaceOnUse"/></defs><linearGradient id="d"><stop offset="0" stop-color="#9760ef"/><stop offset="1" stop-color="#c054f2" stop-opacity="0"/></linearGradient><linearGradient id="c"><stop offset="0" stop-color="#17c7e7"/><stop offset="1" stop-color="#c054f2" stop-opacity="0"/></linearGradient><path style="line-height:normal;font-variant-ligatures:normal;font-variant-position:normal;font-variant-caps:normal;font-variant-numeric:normal;font-variant-alternates:normal;font-feature-settings:normal;text-indent:0;text-align:start;text-decoration-line:none;text-decoration-style:solid;text-decoration-color:#000;text-transform:none;text-orientation:mixed;shape-padding:0;isolation:auto;mix-blend-mode:normal" d="M68.113 2.217c-36.98 0-67.021 30.042-67.021 67.021 0 36.98 30.042 67.022 67.021 67.022 36.98 0 67.022-30.042 67.022-67.022 0-36.98-30.042-67.021-67.022-67.021z" color="#000" font-weight="400" font-family="sans-serif" white-space="normal" overflow="visible" fill="url(#e)" stroke-width="6"/><path d="M68.113 8.781c-33.39 0-60.457 27.068-60.457 60.457 0 33.39 27.068 60.458 60.457 60.457 33.39 0 60.458-27.067 60.457-60.457 0-33.39-27.067-60.457-60.457-60.457z" fill="url(#f)" stroke-width="3.8" stroke-linecap="round" stroke-linejoin="round" stroke-opacity=".053" paint-order="fill markers stroke"/><path d="M67.894 33.61c-17.946 0-32.672 11.76-32.672 26.262 0 7.121 3.553 13.577 9.318 18.307l3.408 7.563v1.16c0 4.246 6.313 8.733 9.791 12.163 3.478 3.43 4.12 5.8 9.449 5.8h1.858c5.329 0 6.629-2.37 10.107-5.8 3.477-3.43 9.133-7.917 9.133-12.164v-2.105l2.969-6.274c6.018-4.759 9.75-11.353 9.75-18.65 0-14.502-14.726-26.261-32.892-26.261zM53.927 73.449c4.3-.192 10.922 5.579 9.544 10.539-1.496 2.69-6.25 3.18-9.613 1.31-3.179-1.871-5.775-9.414-.343-11.808a4.34 4.34 0 0 1 .412-.04zm28.716 0c.286-.012.562.004.61.041 5.652 2.394 3.055 9.937-.124 11.808-3.363 1.87-8.116 1.38-9.613-1.31-1.332-4.8 4.83-10.36 9.127-10.539z" fill="none" fill-rule="evenodd" stroke-width="2.45" stroke="#007657" stroke-opacity=".289"/><path d="M67.894 33.61c-17.946 0-32.672 11.76-32.672 26.262 0 7.121 3.553 13.577 9.318 18.307l3.408 7.563v1.16c0 4.246 6.313 8.733 9.791 12.163 3.478 3.43 4.12 5.8 9.449 5.8h1.858c5.329 0 6.629-2.37 10.107-5.8 3.477-3.43 9.133-7.917 9.133-12.164v-2.105l2.969-6.274c6.018-4.759 9.75-11.353 9.75-18.65 0-14.502-14.726-26.261-32.892-26.261zM53.927 73.449c4.3-.192 10.922 5.579 9.544 10.539-1.496 2.69-6.25 3.18-9.613 1.31-3.179-1.871-5.775-9.414-.343-11.808a4.34 4.34 0 0 1 .412-.04zm28.716 0c.286-.012.562.004.61.041 5.652 2.394 3.055 9.937-.124 11.808-3.363 1.87-8.116 1.38-9.613-1.31-1.332-4.8 4.83-10.36 9.127-10.539z" fill="#fff" fill-rule="evenodd" stroke-width="2.45"/></svg>