<svg xmlns="http://www.w3.org/2000/svg" xmlns:xlink="http://www.w3.org/1999/xlink" height="136.533" viewBox="0 0 136.53333 136.53333" width="136.533"><defs><linearGradient id="a"><stop offset="0" stop-color="#f1f1f1"/><stop offset="1" stop-color="#d9dad9"/></linearGradient><linearGradient xlink:href="#a" id="h" x1="73.909" y1="8.694" x2="79.909" y2="137.964" gradientUnits="userSpaceOnUse"/><linearGradient xlink:href="#b" id="i" x1="69.849" y1="15.805" x2="72.163" y2="128.537" gradientUnits="userSpaceOnUse"/><filter y="0%" x="0%" height="100%" width="100%" id="c"><feColorMatrix values="0 0 0 0 1 0 0 0 0 1 0 0 0 0 1 0 0 0 1 0" in="SourceGraphic"/></filter><clipPath id="d"><path d="M0 0h384v384H0z"/></clipPath><clipPath id="e"><path d="M0 0h384v384H0z"/></clipPath><linearGradient gradientTransform="matrix(.20207 0 0 .20207 29.315 30.434)" gradientUnits="userSpaceOnUse" y2="249.017" y1="515.328" x2="249.882" x1="-248.932" id="b"><stop offset="0" stop-color="#3295eb"/><stop offset="1" stop-color="#2570ef"/></linearGradient></defs><linearGradient id="g"><stop offset="0" stop-color="#9760ef"/><stop offset="1" stop-color="#c054f2" stop-opacity="0"/></linearGradient><linearGradient id="f"><stop offset="0" stop-color="#17c7e7"/><stop offset="1" stop-color="#c054f2" stop-opacity="0"/></linearGradient><path style="line-height:normal;font-variant-ligatures:normal;font-variant-position:normal;font-variant-caps:normal;font-variant-numeric:normal;font-variant-alternates:normal;font-feature-settings:normal;text-indent:0;text-align:start;text-decoration-line:none;text-decoration-style:solid;text-decoration-color:#000;text-transform:none;text-orientation:mixed;shape-padding:0;isolation:auto;mix-blend-mode:normal" d="M68.113 2.217c-36.98 0-67.021 30.042-67.021 67.021 0 36.98 30.042 67.022 67.021 67.022 36.98 0 67.022-30.042 67.022-67.022 0-36.98-30.042-67.021-67.022-67.021z" color="#000" font-weight="400" font-family="sans-serif" white-space="normal" overflow="visible" fill="url(#h)" stroke-width="6" enable-background="accumulate"/><path d="M68.113 8.781c-33.39 0-60.457 27.068-60.457 60.457 0 33.39 27.068 60.458 60.457 60.457 33.39 0 60.458-27.067 60.457-60.457 0-33.39-27.067-60.457-60.457-60.457z" fill="url(#i)" stroke-width="3.8" stroke-linecap="round" stroke-linejoin="round" stroke-opacity=".053" paint-order="fill markers stroke"/><path d="M61.746 103.152c-7.611-.778-12.91-2.956-16.827-6.91-1.584-1.6-2.658-3.068-3.55-4.855-1.892-3.78-2.484-8.033-1.559-11.178.92-3.128 3.014-6.576 5.96-9.82 1.637-1.8 2.465-2.969 3.222-4.438.912-1.77 1.011-2.956.935-4.6-.075-1.595-.417-2.281-1.293-3.009-.828-.686-1.171-1.067-3.737-.943-2.505.119-3.733-.034-4.93-.611-.927-.449-1.256-.955-.97-1.496 1.493-1.164 2.015-2.436 3.655-3.029-2.399-2.046-4.768-4.186-4.85-7.243.169-1.637 1.684-1.243 1.684-1.243 2.375.481 4.83.965 7.067 1.04.643-.087 1.321-.258 1.507-.381.185-.122.691-.848 1.124-1.612 1.686-2.978 3.471-4.902 5.472-5.893 2.305-1.142 5.567-1.754 8.662-1.623 3.722.156 6.882 1.444 9.463 3.853 1.775 1.655 2.95 2.07 4.637 1.635 1.187-.307 1.214-.305 1.214.067 0 .49-.39 1.124-.99 1.608l-.552.446.556.33c.768.456.677.822-.236.953-.76.11-1.33.362-1.33.589 0 .08.11.774.243 1.543.327 1.886.21 5.54-.234 7.343-.69 2.796-1.734 4.765-3.517 6.634-1.387 1.262-5.305 3.848-5.671 4.079.172 0 1.672-.088 2.677 0 3.679.327 6.24.947 9.934 2.668 3.49 1.626 4.972 1.801 6.902.816 1.233-.628 2.996-1.969 4.314-3.746 1.127-1.517 1.8-2.162 2.847-2.162 1.026 0 1.762.676 2.539 1.86 1.1 1.68 1.699 2.877 2.126 5.8.304 2.09.22 6.993-.159 9.076-2.258 12.447-10.202 20.826-22.328 23.555-3.273.737-4.592.87-9.128.917-2.353.024-4.548.016-4.878-.018z" fill="#fff" stroke-width=".202"/></svg>