<svg xmlns="http://www.w3.org/2000/svg" xmlns:xlink="http://www.w3.org/1999/xlink" width="170.667" height="170.667" viewBox="0 0 170.66667 170.66667"><defs><linearGradient id="a"><stop offset="0" stop-color="#62e895"/><stop offset="1" stop-color="#00b181"/></linearGradient><linearGradient id="c"><stop offset="0" stop-color="#fff"/><stop offset="1" stop-color="#fff" stop-opacity=".178"/></linearGradient><linearGradient id="b"><stop offset="0" stop-color="#51e689"/><stop offset="1" stop-color="#00a87b"/></linearGradient><linearGradient xlink:href="#a" id="e" x1="102.271" y1="146.505" x2="89.998" y2="253.89" gradientUnits="userSpaceOnUse" gradientTransform="translate(-3.402 -103.624)"/><linearGradient xlink:href="#b" id="d" gradientUnits="userSpaceOnUse" gradientTransform="rotate(-12.246 -394.16 201.96)" x1="102.271" y1="146.505" x2="89.998" y2="253.89"/><linearGradient xlink:href="#c" id="f" x1="88.127" y1="113.924" x2="102.691" y2="79.844" gradientUnits="userSpaceOnUse"/><filter id="g" height="1.113" width="1.128" x="-.064" y="-.056" color-interpolation-filters="sRGB"><feGaussianBlur stdDeviation="2.175"/></filter><linearGradient id="h" gradientUnits="userSpaceOnUse" x1="372.069" x2="387.12" y1="947.001" y2="947.001"><stop offset="0" stop-color="#828398"/><stop offset=".05" stop-color="#4f4e50"/><stop offset=".14" stop-color="#e8e5eb"/><stop offset=".232" stop-color="#e9d3d9" stop-opacity=".941"/><stop offset=".762" stop-color="#c4c2c7"/><stop offset=".87" stop-color="#f4f1fa"/><stop offset=".934" stop-color="#b8b8bf"/><stop offset="1" stop-color="#c1bfcc"/></linearGradient><linearGradient id="i" gradientUnits="userSpaceOnUse" x1="368.214" x2="394.83" y1="1018.955" y2="1018.588"><stop offset="0" stop-color="#130804"/><stop offset=".17" stop-color="#0f0704"/><stop offset=".238" stop-color="#323033"/><stop offset=".718" stop-color="#323033"/><stop offset=".848" stop-color="#141215"/><stop offset="1" stop-color="#00010e"/></linearGradient><linearGradient id="j" gradientUnits="userSpaceOnUse" x1="367.847" x2="372.252" y1="904.783" y2="917.999"><stop offset="0" stop-color="#2d2d39"/><stop offset="1" stop-color="#acabb0"/></linearGradient><linearGradient id="k" gradientUnits="userSpaceOnUse" x1="389.507" x2="414.058" y1="902.213" y2="908.792"><stop offset="0" stop-color="#59585d"/><stop offset=".193" stop-color="#010103"/><stop offset=".543" stop-color="#5b5b5d"/><stop offset="1" stop-color="#171719"/></linearGradient><linearGradient id="l" gradientUnits="userSpaceOnUse" x1="-353.818" x2="-353.818" y1="903.401" y2="883.111"><stop offset="0" stop-color="#202024"/><stop offset=".337" stop-color="#919095"/><stop offset=".539" stop-color="#4e4d51"/><stop offset=".695" stop-color="#cfcfd1"/><stop offset="1" stop-color="#69696b"/></linearGradient><linearGradient id="m" gradientUnits="userSpaceOnUse" x1="338.845" x2="338.845" y1="903.66" y2="883.857"><stop offset="0" stop-color="#181820"/><stop offset=".035" stop-color="#86858a"/><stop offset=".141" stop-color="#7a797e"/><stop offset=".196" stop-color="#2f2e33"/><stop offset=".333" stop-color="#414045"/><stop offset=".431" stop-color="#545358"/><stop offset=".561" stop-color="#ebeaf0"/><stop offset=".692" stop-color="#abaaaf"/><stop offset=".86" stop-color="#d7d6dc"/><stop offset="1" stop-color="#66656a"/></linearGradient><linearGradient id="n" gradientUnits="userSpaceOnUse" x1="367.847" x2="415.572" y1="-67.365" y2="-50.845"><stop offset="0" stop-color="#c7c6cb"/><stop offset=".543" stop-color="#fcfcfd"/><stop offset="1" stop-color="#d8d8da"/></linearGradient><filter id="o" height="1.273" width="1.04" x="-.02" y="-.136" color-interpolation-filters="sRGB"><feGaussianBlur stdDeviation=".198"/></filter></defs><path d="M7.022 48.588l5.797 112.289 157.646-19.828-23.438-111.6z" fill="url(#d)"/><path d="M13.079 51.35l.077 1.763c-.586.078-1.476.2-2.047.275.36.066 1.072.075 2.061.038l4.142 94.477-.894.258.9-.11.309 7.05-2.108.84 2.133-.264.063 1.412 1-.043c-.031-.342-.065-.993-.098-1.49 2.896-.359 35.164-4.352 70.586-8.74l51.115-6.333c12.69-1.574 19.75-2.45 21.82-2.71.208 1.1.584 2.162 1.583 2.89l-.612-3.01c.093-.013 1.368-.17 1.401-.175l-.129-.991-1.47.183-1.362-6.702 2.402-.603-2.463.303-17.456-85.942c-.16-2.41-.433-4.59-1.14-6.646.676-.09 1.693-.228 2.349-.314-.392-.09-1.304-.09-2.48-.047a14.22 14.22 0 0 0-1.377-2.78l.565 2.826c-16.486.832-88.784 11.06-128.284 16.28-.193-1.071-.388-1.704-.586-1.696zm.649 2.04c15.184-.723 88.154-10.89 128.306-16.196l18.495 92.592-140.19 17.246-2.111.608c-.998-23.988-2.607-82.65-4.5-94.25zm7.571 3.476c-.005-.024.047.347.094.82l.041.426-1.489.203.136.992 1.446-.196c.015.162.025.259.04.433.094 1.047.21 2.418.32 3.734l-2.994.446.147.99 2.933-.437.052.598c.196 2.348.265 3.209.382 4.642l-1.472.237.16.989 1.393-.225.156 1.9.996-.081-.161-1.978 30.684-4.945-.079-.493.49-.098-.37-1.852c.776.121 1.301.418 1.717.817.744.714 1.19 1.924 1.764 3.258.574 1.334 1.321 2.806 2.876 3.747 1.048.634 2.42.988 4.236.981.071.474.127.862.199 1.338.51 3.389.793 5.226 1.015 6.675l-.335.052.157.988.328-.053.19 1.25.988-.153-.19-1.254 30.87-4.925-.08-.495.496-.073-2.392-16.132-.494.074-.082-.492-30.821 5.137c-.015-.13-.053-.405-.054-.432l-.999.049c.005.097.044.372.065.547l-1.22.203.163.986 1.185-.197c.074.54.156 1.135.265 1.885.144.999.343 2.314.524 3.528-1.48-.021-2.501-.325-3.237-.77-1.147-.695-1.73-1.789-2.274-3.055-.544-1.266-1-2.69-2.103-3.75-.726-.697-1.727-1.147-3.058-1.251l-1.413-7.092-.491.096-.067-.495-29.506 4.014-.037-.392c-.048-.478-.069-.73-.112-.93zm1.22 2.11L51.6 55.018l1.28 6.425c-.418.02-.855.06-1.33.141a.75.75 0 0 0-.075.014.75.75 0 0 0 .328 1.464c.52-.09.968-.132 1.372-.146l.317 1.594-30.098 4.848c-.116-1.438-.18-2.256-.373-4.566l-.058-.663 23.138-3.44-.146-.99-23.077 3.432c-.11-1.294-.224-2.645-.316-3.677l-.044-.478zm42.254 5.726l30.356-5.06 2.245 15.14-30.376 4.846c-.222-1.45-.504-3.283-1.014-6.667-.066-.436-.117-.79-.182-1.225.61-.044 1.254-.114 1.96-.234a.75.75 0 0 0 .28-.1 1.539 1.636 77.754 0 0-.078.868 1.539 1.636 77.754 0 0 1.926 1.153 1.539 1.636 77.754 0 0 1.27-1.851v-.004a1.539 1.636 77.754 0 0-1.93-1.152 1.539 1.636 77.754 0 0-.834.455.75.75 0 0 0-.883-.848c-.713.12-1.347.19-1.931.227-.188-1.257-.392-2.611-.541-3.642-.11-.76-.194-1.365-.268-1.906zM52.846 76.05l.172 1.631-31.444 5.256.083.494-.495.077 2.995 19.166-1.568.209.133.99 1.589-.213.178 1.14.987-.154-.174-1.117 32.84-4.382-.132-.992-1.809.24-2.09-19.882 1.012-.17-.165-.987-.953.159-.164-1.57zm55.34-11.404l-.975.22.39 1.734-2.352.396.166.985 2.406-.406 5.216 23.185c-1.638.78-2.771 1.758-3.536 2.864-1.168 1.69-1.48 3.577-1.767 5.31-.286 1.733-.553 3.307-1.407 4.547-.854 1.24-2.31 2.264-5.313 2.834a.75.75 0 1 0 .28 1.472c3.25-.616 5.169-1.859 6.268-3.455 1.1-1.597 1.367-3.43 1.652-5.154.285-1.724.581-3.345 1.52-4.702.568-.823 1.386-1.58 2.64-2.222l3.748 16.662-1.423.213.147.99 1.496-.223.346 1.535.975-.22-.33-1.465c1.925-.286 6.841-1.014 13.888-2.073 4.155-.624 8.369-1.26 11.668-1.769 2.378-.366 3.392-.539 4.466-.72l.471 2.255.98-.205-.462-2.208c.117-.021.671-.104.74-.119l-.212-.977c-.048.01-.629.099-.732.117l-8.875-42.47-.49.102-.083-.494-31.104 5.248zM22.226 83.84l30.897-5.163 2.088 19.85-30.064 4.013zm47.876-8.987a1.539 1.636 77.754 0 0-1.267 1.852 1.539 1.636 77.754 0 0 1.925 1.153 1.539 1.636 77.754 0 0 1.272-1.85l-.001-.004a1.539 1.636 77.754 0 0-1.929-1.15zm38.706-7.445l30.576-5.158 8.767 41.955c-1.044.174-2.043.345-4.415.71-3.297.507-7.51 1.144-11.664 1.768-7.083 1.064-12.076 1.805-13.96 2.085l-3.81-16.94a15.876 15.876 0 0 1 2.003-.635 1.539 1.636 77.754 0 0 1.705.645 1.539 1.636 77.754 0 0 1.27-1.85v-.005a1.539 1.636 77.754 0 0-1.928-1.15 1.539 1.636 77.754 0 0-1.126.846.75.75 0 0 0-.151.02c-.775.19-1.467.414-2.104.659zm6.236 8.235a1.539 1.636 77.754 0 0-1.266 1.852 1.539 1.636 77.754 0 0 1.925 1.153 1.539 1.636 77.754 0 0 1.27-1.848l-.002-.006a1.539 1.636 77.754 0 0-1.926-1.15zm-47.389 25.182c-.003-.012.024.132.05.319l.1.756.065.525-.962.159c-.921.154-1.444.241-1.628.281l.212.978c.037-.008.662-.12 1.582-.274l.92-.153.122.986c.103.838.241 2.006.363 3.007l-.67.088.128.991.663-.086.181 1.498c-3.985 1.47-5.182 4.02-6.457 6.208-.995 1.71-2.077 3.282-4.865 4.464l-1.08-8.156.92-.138-.148-.989-.904.134-.183-1.379-.991.131.185 1.397-30.453 4.545-.079-1.272-.997.063.083 1.359-2.14.318.147.99 2.054-.306.281 4.59-2.192.398.178.984 2.075-.376.882 14.434-1.644.177.106.994 1.6-.17.165 2.715.998-.06-.168-2.764 32.171-3.465.226 1.703.99-.13-.222-1.681 1.48-.16-.108-.995-1.504.162-1.529-11.538c3.394-1.38 4.875-3.353 5.964-5.223 1.29-2.217 2.044-4.143 5.344-5.433l.03.247c.441 3.687.653 5.484.87 7.312l-1.558.238.152.988 1.523-.232.246 2.063.994-.116-.25-2.1 35.087-5.371-.15-.989-35.055 5.366c-.217-1.837-.426-3.607-.866-7.277l-.056-.46c.119-.036.211-.079.335-.114a.75.75 0 0 0-.36-1.455.75.75 0 0 0-.05.013l-.11.034-.157-1.307 28.39-3.713-.131-.991-28.378 3.713c-.121-.998-.26-2.164-.363-3l-.127-1.027c.6-.1 1.051-.176 1.77-.294 2.989-.493 6.891-1.13 10.766-1.763 7.75-1.266 15.388-2.509 15.388-2.509l-.16-.986s-7.639 1.24-15.389 2.506c-3.875.633-7.777 1.273-10.767 1.766l-1.734.288-.06-.488c-.04-.316-.076-.574-.102-.766-.027-.192-.04-.294-.062-.394zm-42.789 16.294l30.523-4.556 1.109 8.367c-.898.31-1.908.594-3.15.83a.75.75 0 1 0 .28 1.474c1.157-.22 2.17-.488 3.07-.792l1.495 11.289-32.1 3.46-.886-14.506 27.904-5.057-.178-.983-27.789 5.035zm48.174-7.846a1.539 1.636 77.754 0 0-1.267 1.852 1.539 1.636 77.754 0 0 1.925 1.153 1.539 1.636 77.754 0 0 1.272-1.85l-.001-.005a1.539 1.636 77.754 0 0-1.929-1.15zM18.24 147.94l138.923-16.867 3.45-.866.784 3.929c.366.702.46 1.663.585 2.649-2.037.255-9.114 1.135-21.787 2.706a517933.87 517933.87 0 0 1-51.114 6.334c-36.88 4.568-70.341 8.887-70.517 8.91a441.914 441.914 0 0 1-.324-6.795z" style="line-height:normal;font-variant-ligatures:normal;font-variant-position:normal;font-variant-caps:normal;font-variant-numeric:normal;font-variant-alternates:normal;font-feature-settings:normal;text-indent:0;text-align:start;text-decoration-line:none;text-decoration-style:solid;text-decoration-color:#000;text-transform:none;text-orientation:mixed;shape-padding:0;isolation:auto;mix-blend-mode:normal" color="#000" font-weight="400" font-family="sans-serif" white-space="normal" overflow="visible" fill="#fff" enable-background="accumulate"/><path d="M90.119 37.23l-67.416 9.214-11.998 73.452 1.377 26.662 67.097 5.972 89.6-11.267.053-7.985-19.194-91.396z" fill="#1a1a1a" fill-opacity=".327" stroke-width="1.026"/><path d="M27.024 33.549L8.87 144.513l158.264 14.062.767-114.032z" fill="url(#e)"/><path style="line-height:normal;font-variant-ligatures:normal;font-variant-position:normal;font-variant-caps:normal;font-variant-numeric:normal;font-variant-alternates:normal;font-feature-settings:normal;text-indent:0;text-align:start;text-decoration-line:none;text-decoration-style:solid;text-decoration-color:#000;text-transform:none;text-orientation:mixed;shape-padding:0;isolation:auto;mix-blend-mode:normal" d="M32.357 37.533l-.3 1.74c-.589-.049-1.484-.118-2.058-.166.338.14 1.032.3 2.006.474l-15.992 93.205-.928.063.903.084-1.194 6.955-2.238.373 2.14.195-.238 1.393.987.17c.042-.34.147-.984.22-1.477 2.906.264 35.287 3.206 70.834 6.432 18.554 1.684 37.177 3.373 51.295 4.652 12.734 1.154 19.82 1.796 21.899 1.98-.03 1.12.112 2.237.933 3.16l.041-3.071 1.406.127.084-.996-1.476-.133.092-6.838 2.474-.08-2.47-.227 1.17-87.69c.356-2.388.55-4.577.296-6.736.68.057 1.703.137 2.362.192-.365-.17-1.255-.365-2.414-.572a14.22 14.22 0 0 0-.756-3.008l-.047 2.88c-16.287-2.683-89.11-8.023-128.818-11.3.038-1.088-.018-1.748-.213-1.781zm.2 2.13c14.993 2.516 88.46 8.057 128.823 11.389l-1.566 94.408-140.658-12.883-2.192.147c4.113-23.654 14.984-81.322 15.594-93.06zM16.912 133.02l139.34 12.984 3.555-.115-.066 4.006c.208.763.096 1.722.01 2.713-2.046-.183-9.148-.824-21.866-1.977l-51.295-4.652c-37.01-3.359-70.625-6.235-70.802-6.25.26-1.66.652-3.986 1.125-6.71z" color="#000" font-weight="400" font-family="sans-serif" white-space="normal" overflow="visible" fill="#fff" enable-background="accumulate"/><path style="line-height:normal;font-variant-ligatures:normal;font-variant-position:normal;font-variant-caps:normal;font-variant-numeric:normal;font-variant-alternates:normal;font-feature-settings:normal;text-indent:0;text-align:start;text-decoration-line:none;text-decoration-style:solid;text-decoration-color:#000;text-transform:none;text-orientation:mixed;shape-padding:0;isolation:auto;mix-blend-mode:normal" d="M94.028 58.409c-7.698-.202-14.59 5.878-14.744 13.71a.5.5 0 1 0 1 .02c.142-7.255 6.563-12.917 13.719-12.73 8.01.209 14.247 7.314 13.998 15.224l-.006.174a.5.5 0 0 0 .012.16l-21.932-1.85a.5.5 0 0 0-.049-.002.5.5 0 0 0-.035.999l24.104 2.033a.5.5 0 1 0 .084-.996l-1.227-.104a.5.5 0 0 0 .041-.197l.008-.186c.267-8.453-6.386-16.031-14.973-16.255zm-27.457 15.01l-6.008 27.866.979.211.727-3.373 5.146.936-.328 1.316.97.242.344-1.378.489.087.177-.984-.425-.078 4.906-19.736L67.438 77l-.244.971 5.14 1.285-4.679 18.83-5.176-.941 5.07-23.518zm11.37 2.486l-.106 1.12c-.07 0-.197-.006-.264-.005-.593.003-1.08.015-1.453.043-.186.014-.342.03-.478.054-.137.024-.241.03-.414.143a.5.5 0 1 0 .529.848c-.04.025-.013.008.057-.004a4.12 4.12 0 0 1 .38-.043c.332-.025.804-.038 1.385-.041.041 0 .122.004.164.004l-2.945 31.185c-.829-.076-2.637-.25-2.844-.263l-.066.998c.165.01 1.997.185 2.816.26l-.004.042.996.094.004-.045c1.25.116 1.575.14 3.475.32 3.984.378 9.118.87 14.191 1.358 5.862.563 7.748.746 11.586 1.117l-.033.256.992.125.035-.285 7.475.72.096-.996-7.444-.716c.145-1.139 1.037-8.153 2.075-16.366.559-4.426 1.119-8.868 1.539-12.236a1252 1252 0 0 0 .48-3.902c2.684.179 5.057.34 5.057.34a.5.5 0 1 0 .068-.998s-2.37-.163-5.006-.338l.049-.41.04-.344c.008-.085.013-.092.013-.2h-1c0-.075-.002.018-.01.096l-.037.334-.055.457c-3.633-.239-8.485-.549-13.398-.834-4.892-.283-9.825-.54-13.62-.676-1.385-.049-2.402-.06-3.43-.072l.1-1.047zm.802 2.14c1.03.011 2.072.022 3.488.072 3.78.135 8.708.39 13.596.674 4.88.283 9.715.592 13.34.83-.12.993-.278 2.27-.475 3.848-.419 3.367-.98 7.808-1.539 12.234-1.039 8.226-1.936 15.276-2.078 16.393-3.838-.37-5.738-.555-11.615-1.12-5.074-.487-10.208-.977-14.193-1.355-1.894-.179-2.233-.204-3.475-.32zm41.498 1.889l-7.21 1.914.07.445 4.046 25.721 8.41-2.031zm-.767 1.24l4.912 24.063-6.418 1.55-3.809-24.203zm-39.907 30.87l-.045.349-.773-.063-.082.998.73.059-1.736 13.736 5.473.323-.133 1.521.996.086.135-1.547.242.014.059-.998-.215-.012 1.1-12.64 1.122.091.082-.998-1.117-.092.04-.45-.999-.087-.039.457-3.887-.316.04-.307zm16.088 1.023l-.045.674-.586-.053-.09.996.61.055-.78 11.615-.306-.014-.043 1 .283.012-.037.539.998.068.037-.564 3.782.16-.026.332.998.076.027-.367.356.016.043-1-.322-.014.927-12.324-4.875-.442.047-.699zm-15.26.402l3.924.32-1.1 12.66-4.43-.261zm16.145 1.36l3.87.351-.858 11.375-3.787-.16z" color="#000" font-weight="400" font-family="sans-serif" white-space="normal" overflow="visible" fill="#fff" fill-opacity=".555" fill-rule="evenodd" stroke-linecap="round" paint-order="stroke fill markers" enable-background="accumulate"/><path style="line-height:normal;font-variant-ligatures:normal;font-variant-position:normal;font-variant-caps:normal;font-variant-numeric:normal;font-variant-alternates:normal;font-feature-settings:normal;text-indent:0;text-align:start;text-decoration-line:none;text-decoration-style:solid;text-decoration-color:#000;text-transform:none;text-orientation:mixed;shape-padding:0;isolation:auto;mix-blend-mode:normal" d="M66.287 75.428L66 76.778a52.305 52.305 0 0 0-.895-.208 11.54 11.54 0 0 0-.41-.082c-.11-.02-.184-.033-.265-.033v.5c-.002 0 .077.008.177.025.1.018.233.046.393.08.23.05.568.13.895.208l-4.49 21.076.49.103.197-.927 5.195 1.298-.44 1.487.48.14.444-1.506.215.053.073-.29-.202-.052 5.739-19.408.998.262.129-.483-.985-.257.05-.166-.48-.141-.052.18c-.862-.229-1.677-.448-3.41-.895-1.194-.308-2.387-.61-3.36-.847l.29-1.362-.489-.105zm.094 1.955c.967.235 2.152.537 3.34.844 1.723.444 2.527.66 3.392.888l-5.74 19.414-5.219-1.302 4.227-19.844z" color="#000" font-weight="400" font-family="sans-serif" white-space="normal" overflow="visible" fill="#fff" stroke-width=".5" enable-background="accumulate"/><path style="line-height:normal;font-variant-ligatures:normal;font-variant-position:normal;font-variant-caps:normal;font-variant-numeric:normal;font-variant-alternates:normal;font-feature-settings:normal;text-indent:0;text-align:start;text-decoration-line:none;text-decoration-style:solid;text-decoration-color:#000;text-transform:none;text-orientation:mixed;shape-padding:0;isolation:auto;mix-blend-mode:normal" d="M92.773 58.975c-2.813.018-5.576.77-7.88 2.455-3.073 2.245-5.306 6.14-5.754 12.06l.25.02-.014.199 32.342 2.174.027-.4-32.084-2.155c.476-5.693 2.619-9.368 5.528-11.494 2.944-2.152 6.69-2.73 10.322-2.147 3.63.583 7.136 2.33 9.562 4.79 2.427 2.46 3.775 5.61 3.157 9.06l.492.09c.65-3.627-.781-6.955-3.293-9.502-2.512-2.547-6.105-4.332-9.84-4.932a17.07 17.07 0 0 0-2.815-.218zM109.998 76.932l-.303 2.078L76.79 77.44l-.023.498 1.779.084-3.973 31.36 30.352 3.906.027-.2.197.03 4.88-33.594 3.736.178.025-.498-3.691-.176.297-2.039-.397-.058zm-31.394 1.095l31.021 1.479-4.846 33.361-29.76-3.83 3.922-30.967-.337-.043z" color="#000" font-weight="400" font-family="sans-serif" white-space="normal" overflow="visible" fill="#fff" stroke-width=".4" enable-background="accumulate"/><path style="line-height:normal;font-variant-ligatures:normal;font-variant-position:normal;font-variant-caps:normal;font-variant-numeric:normal;font-variant-alternates:normal;font-feature-settings:normal;text-indent:0;text-align:start;text-decoration-line:none;text-decoration-style:solid;text-decoration-color:#000;text-transform:none;text-orientation:mixed;shape-padding:0;isolation:auto;mix-blend-mode:normal" d="M119.629 80.938l-5.756 1.22-.17-1.142-.494.072.176 1.174-.61.129.084.39.584-.123 3.705 24.838 8.762-1.91-.105-.488-8.24 1.797-3.631-24.34 5.384-1.143 4.871 23.865.393-.08-4.953-24.26z" color="#000" font-weight="400" font-family="sans-serif" white-space="normal" overflow="visible" fill="#fff" stroke-width=".5" enable-background="accumulate"/><path d="M73.548 78.528l-5.893 22.297M61.288 97.446l7.113 1.793M65.989 77.107l-4.7 20.34" fill="none" stroke="#000" stroke-width="0"/><path style="line-height:normal;font-variant-ligatures:normal;font-variant-position:normal;font-variant-caps:normal;font-variant-numeric:normal;font-variant-alternates:normal;font-feature-settings:normal;text-indent:0;text-align:start;text-decoration-line:none;text-decoration-style:solid;text-decoration-color:#000;text-transform:none;text-orientation:mixed;shape-padding:0;isolation:auto;mix-blend-mode:normal" d="M79.68 112.518l-.03.24-1.724 14.096 6.006.523 1.191-14.402zm.437.539l4.467.375-1.11 13.404-4.99-.436z" color="#000" font-weight="400" font-family="sans-serif" white-space="normal" overflow="visible" fill="#fff" stroke-width=".5" enable-background="accumulate"/><path style="line-height:normal;font-variant-ligatures:normal;font-variant-position:normal;font-variant-caps:normal;font-variant-numeric:normal;font-variant-alternates:normal;font-feature-settings:normal;text-indent:0;text-align:start;text-decoration-line:none;text-decoration-style:solid;text-decoration-color:#000;text-transform:none;text-orientation:mixed;shape-padding:0;isolation:auto;mix-blend-mode:normal" d="M96.21 114.002l-.01.225-.225-.018-.957 12.55-.51-.007-.006.451.482.008-.033.422.45.033.035-.45 4.41.063-.037.645.449.025.039-.664.916.014.006-.45-.897-.013c.05-.84.161-2.682.317-5.39.094-1.635.186-3.276.254-4.526a236.53 236.53 0 0 0 .097-1.984l.004-.135c0-.035.004-.041-.002-.092a.254.254 0 0 0-.096-.168.37.37 0 0 0-.091-.057 1.052 1.052 0 0 0-.188-.06 5.606 5.606 0 0 0-.545-.098 31.608 31.608 0 0 0-1.582-.164c-1.142-.096-2.28-.16-2.28-.16zm.194.465c.188.01 1.024.056 2.05.142.566.048 1.134.104 1.556.162.21.03.387.063.5.09.017.004.02.006.033.01l-.002.049a242.94 242.94 0 0 1-.098 1.975c-.067 1.248-.16 2.891-.254 4.525-.156 2.718-.267 4.58-.316 5.41l-4.404-.064.935-12.3z" color="#000" font-weight="400" font-family="sans-serif" white-space="normal" overflow="visible" fill="#fff" stroke-width=".45" enable-background="accumulate"/><path style="line-height:normal;font-variant-ligatures:normal;font-variant-position:normal;font-variant-caps:normal;font-variant-numeric:normal;font-variant-alternates:normal;font-feature-settings:normal;text-indent:0;text-align:start;text-decoration-line:none;text-decoration-style:solid;text-decoration-color:#000;text-transform:none;text-orientation:mixed;shape-padding:0;isolation:auto;mix-blend-mode:normal" d="M80.715 79.348c-.027.133-.09.645-.192 1.478-.1.833-.237 1.975-.394 3.319-.314 2.686-.714 6.183-1.11 9.652-.79 6.938-1.56 13.762-1.56 13.762l.2.023s.769-6.826 1.56-13.764c.395-3.469.796-6.966 1.11-9.652.156-1.343.29-2.482.392-3.314.101-.833.173-1.373.191-1.465l-.197-.04zm25.494 2.707c-.02.076-.163.57-.393 1.345-.23.776-.548 1.845-.925 3.108a22430.204 22430.204 0 0 1-6.637 22.12l.191.056s1.944-6.462 3.91-13.016a8316.067 8316.067 0 0 0 3.653-12.211c.23-.776.368-1.25.394-1.353l-.193-.05zm-13.74 1.988l-5.967 22.418.193.05 5.967-22.417-.193-.051z" color="#000" font-weight="400" font-family="sans-serif" white-space="normal" overflow="visible" fill="#fff" stroke-width=".2" enable-background="accumulate"/><path d="M78.604 78.027l-3.584 31.01 30.128 4.082 5.136-34.425z" fill="url(#f)" opacity=".409"/><path style="line-height:normal;font-variant-ligatures:normal;font-variant-position:normal;font-variant-caps:normal;font-variant-numeric:normal;font-variant-alternates:normal;font-feature-settings:normal;text-indent:0;text-align:start;text-decoration-line:none;text-decoration-style:solid;text-decoration-color:#000;text-transform:none;text-orientation:mixed;shape-padding:0;isolation:auto;mix-blend-mode:normal" d="M67.291 76.97l-3.072 15.75.295.057 3.072-15.748-.295-.058zm.893 12.163l-2.301 9.27.29.072 2.302-9.27-.291-.072z" color="#000" font-weight="400" font-family="sans-serif" white-space="normal" overflow="visible" fill="#fff" stroke-width=".3" enable-background="accumulate"/><path d="M53.506 964.147c-8.582.005-14.725 2.818-22.666 7.403-2.317 6.034-5.058 7.023-11.13 7.01l-5.31 3.066c1.584 4.457 2.177 5.694 5.907 10.228l5.31-3.066c2.282-3.837 5.284-7.812 11.715-5.031l-.004-.01c5.714.059 7.194 5.11 7.203 5.14v.006h.002l.002.002c.006.002.516.175.76.26l8.93 15.467-.008.012c-.305.527-.095 1.133.11 1.629l10.62 21.502 14.141 24.814s.994 2.467 1.55 3.432c.558.965 2.567.322 3.852.033l10.819-6.742s1.275-1.216.36-2.803c-.917-1.587-2.392-3.07-2.392-3.07l-11.671-17.864-7.446-10.539-11.174-14.75c-.178-.178-.444-.286-.757-.334l.03-.01-9.796-14.941.053-.719-.336-.506-.026-.004c-.025-.033-1.946-2.523-2.648-4.697-.707-2.188.36-3.979 4.162-6.174 3.802-2.195 13.325-1.758 19.85.656.409.166.693.19.86.106l.003.021c.533-.307.368-.969.043-1.69l.01-.046-.04-.023-.005-.016-.002.008-2.262-1.426c.378.119.755.236 1.135.371.399.172.642.2.785.135l.004.01c.008-.005.012-.013.02-.018a.228.228 0 0 0 .058-.052c.45-.388.242-1.345-.123-2.139l.002-.004-.004-.002-.006-.016-.004.01c-2.127-1.362-4.9-2.257-6.875-2.8-5.306-1.256-9.71-1.833-13.611-1.83zm2.508.53c.17.002.355.015.527.02-.311-.008-.62-.013-.924-.013.135 0 .26-.009.397-.008zm-1.762.037c-.27.01-.541.015-.805.03.263-.015.536-.02.805-.03zm3.71.039zm-6.003.119c-.185.02-.375.032-.557.055.182-.023.373-.036.557-.055zm8.49.08c.348.036.693.07 1.051.113-.358-.043-.703-.077-1.05-.113zm2.737.348c.352.052.694.097 1.056.156-.363-.06-.704-.104-1.056-.156zm-15.647.35c-.194.049-.384.108-.576.161.192-.053.382-.112.576-.162zm11.885.515c.076.002.15.009.226.012-.45-.015-.905-.017-1.363-.01.38-.006.761-.012 1.137-.002zm-1.508.002h.129c-.55.013-1.103.04-1.658.088-1.7.147-3.109.501-4.268 1.006 1.16-.505 2.568-.86 4.268-1.006a26.496 26.496 0 0 1 1.529-.088zm-12.236.021c-.213.069-.422.145-.633.217.21-.072.42-.148.633-.217zm14.357.006zm1.604.114zm1.486.176zm1.367.218c.351.064.683.134 1.022.205-.337-.07-.673-.142-1.022-.205zm-20.582.114zm22.512.302zm-24.31.44c-.236.103-.47.206-.706.314.235-.108.47-.211.705-.314zm26.788.217zm-28.685.666c-.183.09-.365.176-.549.27.183-.094.366-.18.549-.27zm30.758.013zm-11.291.334c.323-.008.724.003 1.09.004-.452 0-.912-.005-1.3.006.079-.002.129-.008.21-.01zm-9.932.006c-.135.124-.28.242-.402.371.122-.13.267-.247.402-.37zm11.73 0c.462.01.967.04 1.477.069-.505-.029-1.018-.059-1.477-.069zm-2.433.024c-.383.015-.767.031-1.063.052.308-.022.658-.035 1.063-.052zm4.816.097zm8.672.137c.485.2.887.375 1.102.475l-.004.008c-.157-.075-.427-.207-1.098-.483zm-33.572.025zm17.236.123zm11.535.21zm1.428.285zm-13.975.076c-.028.024-.057.049-.078.072.021-.024.05-.048.078-.072zm-.115.123zm5.77.004c.034 0 .07.003.103.004-.36-.007-.715 0-1.066.011.318-.01.637-.02.963-.015zm.166.006zm-1.395.013h.035a15.795 15.795 0 0 0-.035 0zm2.809.057zm-7.377.055c.016.04.05.076.125.105-.075-.029-.109-.065-.125-.105zm15.596.025zm-6.438.121zm-7.488.008c-.107.007-.218.016-.313.02.095-.004.206-.013.313-.02zm9.928.385zm2.398.523zm2.26.602zm1.955.613c.125.043.26.087.361.123-.102-.036-.237-.08-.361-.123zm.896.328l.04.016v.002l-.04-.018zm-38.064 6.38c.04.013.087.034.129.048.096.034.195.07.3.11-.07-.023-.145-.051-.214-.073-.066-.023-.154-.065-.215-.086zm1.32.48c.12.047.243.105.365.158-.121-.053-.246-.11-.365-.158zm1.223.568zm1.908 1.258c.052.042.104.087.156.13-.052-.043-.104-.088-.156-.13zm2.164 2.195c.06.074.117.145.176.221l-.176-.22zm1.125 1.559c.064.099.127.204.191.307-.064-.103-.127-.208-.19-.307z" opacity=".3" fill-rule="evenodd" filter="url(#g)" transform="matrix(-1.1811 0 0 1.14735 187.837 -1055.442)"/><g transform="scale(-.68893 .66924) rotate(-30 -1428.309 1572.803)"><path d="M372.138 921.51c-.092-.115-1.102-1.263-1.102-1.263l1.24-2.34 12.823-.011 1.687 1.298.065 1.038-1.103 1.622z" fill-rule="evenodd"/><path d="M371.948 920.173l.885-1.395h12.062l1.157.606 1.844 32.453-3.574-1.114-9.878.115-2.496 1.112z" fill="url(#h)"/><g fill-rule="evenodd"><path d="M367.755 1044.423l.276-48.963 2.66-41.027c.121-.911.33-1.993 1.234-2.515l2.4-1.087 9.72-.16c2.36 0 4.3 1.042 4.636 2.295l3.946 31.48 2.02 22.027 2.018 36.528s.918 3.466.918 6.608c0 3.142-2.937 3.854-2.937 3.854l-21.843.735c-2.157-.673-5.69-1.44-5.69-3.35 0-1.91.642-6.425.642-6.425z" fill="url(#i)"/><path d="M371.04 920.256s2.183-8.85-6.319-13.847l.974-9.345s8.355 6.765 6.603 20.848z" fill="url(#j)"/><path d="M373.289 917.916c.563-12.768-4.467-17.713-7.594-20.852 0 0 8.355 6.765 6.603 20.848z" fill="#5b5c60"/><path d="M386.753 919.192s-.734-5.415.092-9.27c.826-3.854 3.947-5.598 11.472-5.598 7.526 0 21.293 8.81 28.91 17.988 1.097 1.407 1.87 1.158 1.928-.55.045-.227-11.122-13.318-21.293-17.622-10.248-4.336-1.743-3.028-1.743-3.028s13.032 5.231 23.036 16.979c1.322 1.776 1.735.664 2.019-1.193 0 0-8.994-13.492-23.128-20.1-14.134-6.608-21.017 2.662-22.578 9.27-1.56 6.608-.55 11.93-.55 11.93z" fill="url(#k)"/><path d="M430.819 916.468l-.617 2.515c1.13-.017 1.693-1.769 1.833-3.359zM428.993 921.562l-.592 1.68c1.098 0 1.408-1.209 1.533-2.629z"/></g><path transform="scale(-1 1)" d="M-365.577 882.758c8.614 6.975 13.528 6.098 22.532.872v20.248c-6.678-3.74-14.541-7.07-21.706 2.57l-.957-9.195z" fill="url(#l)"/><path d="M332.532 883.63h10.513v20.248h-10.513z" fill="url(#m)"/><path d="M365.577 882.762c22.867 0 36.87 2.302 58.638 22.823-22.53-19.794-35.197-19.86-58.635-19.666z" fill="#3b3b3d" fill-rule="evenodd"/><path transform="translate(0 956.362)" d="M373.904-70.467c-2.633-.022-5.394 0-8.324.024l-.057 12.789.172-1.645s.13.105.352.315l.004.004c.222.21.536.523.908.943l.014.016c.048.054.103.124.152.181.115.133.23.271.354.422l.025.03c2.934 3.265 6.248 8.442 5.785 18.943l-.902-.006.11.435 12.544-.238.004-.027-.127-.082s-1.01-5.324.551-11.932c1.56-6.608 8.444-15.878 22.578-9.27 12.775 5.973 21.278 17.471 22.809 19.645l1.164-.807c-1.99-3.845-5.338-7.551-7.805-10.05-19.714-17.32-31.876-19.537-50.31-19.69zm30.065 15.031c-1.591-.002-2.51.503 3.894 3.213 9.765 4.132 20.339 16.245 21.137 17.416l.924-.931-2.14-4.065C418-50.465 406.118-55.25 406.118-55.25s-1.196-.184-2.15-.186zm-32.465 5.795zm.467 1.85zm.345 2.045zm.188 2.19zm.012 2.353zm59.515.492l-.002.01.006-.004zm-2.101 4.988c-.004.046-.013.084-.018.13l.055-.061z" fill="url(#n)"/><path d="M332.532 883.63c-1.469 7.975-1.65 10.319 0 20.248z" fill="#5b5a60"/><rect y="1049.242" x="370.967" width="23.862" transform="matrix(1.0416 0 0 1.18757 -15.93 -197.136)" rx="1.744" height="3.488" fill="#323033" filter="url(#o)"/><rect y="1049.242" x="370.967" width="23.862" rx="1.744" height="3.488" fill="#060509"/></g><path style="line-height:normal;font-variant-ligatures:normal;font-variant-position:normal;font-variant-caps:normal;font-variant-numeric:normal;font-variant-alternates:normal;font-feature-settings:normal;text-indent:0;text-align:start;text-decoration-line:none;text-decoration-style:solid;text-decoration-color:#000;text-transform:none;text-orientation:mixed;shape-padding:0;isolation:auto;mix-blend-mode:normal" d="M80.836 112.93l-1.502 12.144.299.037 1.502-12.144-.3-.037zm1.28.033l-.481 4.314.299.034.48-4.315-.299-.033zm1.15.13l-.543 5.977.298.028.543-5.977-.298-.027z" color="#000" font-weight="400" font-family="sans-serif" white-space="normal" overflow="visible" fill="#fff" stroke-width=".3" enable-background="accumulate"/></svg>