<svg xmlns="http://www.w3.org/2000/svg" xmlns:xlink="http://www.w3.org/1999/xlink" height="136.533" viewBox="0 0 136.53333 136.53333" width="136.533"><defs><linearGradient id="b"><stop offset="0" stop-color="#03b954"/><stop offset="1" stop-color="#7eea7a"/></linearGradient><linearGradient id="a"><stop offset="0" stop-color="#f1f1f1"/><stop offset="1" stop-color="#d9dad9"/></linearGradient><linearGradient xlink:href="#a" id="e" x1="73.909" y1="8.694" x2="79.909" y2="137.964" gradientUnits="userSpaceOnUse"/><linearGradient xlink:href="#b" id="f" x1="68.113" y1="119.146" x2="68.113" y2="8.781" gradientUnits="userSpaceOnUse"/></defs><linearGradient id="d"><stop offset="0" stop-color="#9760ef"/><stop offset="1" stop-color="#c054f2" stop-opacity="0"/></linearGradient><linearGradient id="c"><stop offset="0" stop-color="#17c7e7"/><stop offset="1" stop-color="#c054f2" stop-opacity="0"/></linearGradient><path style="line-height:normal;font-variant-ligatures:normal;font-variant-position:normal;font-variant-caps:normal;font-variant-numeric:normal;font-variant-alternates:normal;font-feature-settings:normal;text-indent:0;text-align:start;text-decoration-line:none;text-decoration-style:solid;text-decoration-color:#000;text-transform:none;text-orientation:mixed;shape-padding:0;isolation:auto;mix-blend-mode:normal" d="M68.113 2.217c-36.98 0-67.021 30.042-67.021 67.021 0 36.98 30.042 67.022 67.021 67.022 36.98 0 67.022-30.042 67.022-67.022 0-36.98-30.042-67.021-67.022-67.021z" color="#000" font-weight="400" font-family="sans-serif" white-space="normal" overflow="visible" fill="url(#e)" stroke-width="6"/><path d="M68.113 8.781c-33.39 0-60.457 27.068-60.457 60.457 0 33.39 27.068 60.458 60.457 60.457 33.39 0 60.458-27.067 60.457-60.457 0-33.39-27.067-60.457-60.457-60.457z" fill="url(#f)" stroke-width="3.8" stroke-linecap="round" stroke-linejoin="round" stroke-opacity=".053" paint-order="fill markers stroke"/><g transform="matrix(.24233 0 0 .24233 68.113 44.412)" fill="#fff"><use height="100%" width="100%" xlink:href="#g" stroke-width="14.4"/><use height="100%" width="100%" xlink:href="#h" transform="scale(-1 1)"/><g id="h" stroke="#fff" stroke-width="7.2"><rect rx="6.5" transform="rotate(29)" height="86" width="13" y="-86" x="14" stroke="none"/><path id="i" d="M-119 41c13.296 0 24 10.704 24 24v85c0 13.296-10.704 24-24 24s-24-10.704-24-24V65c0-13.296 10.704-24 24-24z" stroke="none"/><use height="100%" width="100%" y="97" x="85" xlink:href="#i"/></g><g id="g" stroke-width=".138"><path transform="matrix(7.24596 0 0 7.24596 -612.426 -481.203)" d="M84.52 60.475a12.559 11.593 0 0 0-12.56 11.58h25.118a12.559 11.593 0 0 0-12.558-11.58zm-5.797 4.886c.573 0 1.048.476 1.048 1.05 0 .573-.475 1.048-1.048 1.048a1.056 1.056 0 0 1-1.05-1.049c0-.573.476-1.049 1.05-1.049zm11.593 0c.574 0 1.05.476 1.05 1.05 0 .573-.476 1.048-1.05 1.048a1.056 1.056 0 0 1-1.048-1.049c0-.573.475-1.049 1.048-1.049zM72.014 73.05A12.559 11.593 0 0 0 84.52 83.66 12.559 11.593 0 0 0 97.025 73.05z"/><path transform="matrix(7.24596 0 0 7.24596 -612.426 -481.203)" d="M74.998 69.17a3.023 3.023 0 0 0-3.021 2.885h25.085a3.02 3.02 0 0 0-3.019-2.885zm-3.037 3.879v18.203a3.03 3.03 0 0 0 3.037 3.035h19.045a3.028 3.028 0 0 0 3.035-3.035V73.049z"/></g></g></svg>