<svg xmlns="http://www.w3.org/2000/svg" xmlns:xlink="http://www.w3.org/1999/xlink" height="136.533" viewBox="0 0 136.53333 136.53333" width="136.533"><defs><linearGradient id="b"><stop offset="0" stop-color="#9416b7"/><stop offset="1" stop-color="#e41b93"/></linearGradient><linearGradient id="a"><stop offset="0" stop-color="#f5f5f5"/><stop offset="1" stop-color="#e0e1e0"/></linearGradient><linearGradient xlink:href="#a" id="e" x1="91.31" y1="122.973" x2="34.942" y2="15.363" gradientUnits="userSpaceOnUse"/><linearGradient xlink:href="#b" id="f" x1="68.204" y1="132.268" x2="67.638" y2="15.816" gradientUnits="userSpaceOnUse"/></defs><linearGradient id="d"><stop offset="0" stop-color="#9760ef"/><stop offset="1" stop-color="#c054f2" stop-opacity="0"/></linearGradient><linearGradient id="c"><stop offset="0" stop-color="#17c7e7"/><stop offset="1" stop-color="#c054f2" stop-opacity="0"/></linearGradient><path style="line-height:normal;font-variant-ligatures:normal;font-variant-position:normal;font-variant-caps:normal;font-variant-numeric:normal;font-variant-alternates:normal;font-feature-settings:normal;text-indent:0;text-align:start;text-decoration-line:none;text-decoration-style:solid;text-decoration-color:#000;text-transform:none;text-orientation:mixed;shape-padding:0;isolation:auto;mix-blend-mode:normal" d="M68.113 2.217c-36.98 0-67.021 30.042-67.021 67.021 0 36.98 30.042 67.022 67.021 67.022 36.98 0 67.022-30.042 67.022-67.022 0-36.98-30.042-67.021-67.022-67.021z" color="#000" font-weight="400" font-family="sans-serif" white-space="normal" overflow="visible" fill="url(#e)" stroke-width="6"/><path d="M68.116 9.759c-32.859 0-59.483 26.727-59.483 59.712 0 30.52 22.792 55.656 52.224 59.25 0 0 7.75-19.286 8.868-28.497 1.118-9.211-1.554-25.781-1.554-25.781s-12.239-2.67-16.47-.579c-4.23 2.092-4.274 8.147-6.852 9.654-2.577 1.508-4.24.443-6.045.636-1.804.193-2.484 1.654-4.78.52-1.475-.728-3.316-4.25-4.441-6.67-.649-1.303-.999-2.523-.698-4.273l1.041-6.054c.483-2.262.776-3.436 2.629-5.135l22.659-19.141-4.26-10.174 11.17 4.278-5.874-14.682s16.419 7.141 23.84 13.467c7.42 6.326 14.335 15.284 19.405 24.336 6.74 12.035 14.106 38.903 14.106 38.903l2.937 4.624c6.963-9.78 11.056-21.746 11.056-34.684 0-32.985-26.624-59.713-59.483-59.713z" fill="url(#f)" stroke-width=".354"/></svg>