<svg xmlns="http://www.w3.org/2000/svg" xmlns:xlink="http://www.w3.org/1999/xlink" width="128" height="128" viewBox="0 0 33.866666 33.866668"><defs><linearGradient id="c"><stop offset="0" stop-color="#f3f9f9"/><stop offset="1" stop-color="#d5dada"/></linearGradient><linearGradient gradientTransform="matrix(.26458 0 0 .26458 -.75 260.85)" xlink:href="#a" id="f" gradientUnits="userSpaceOnUse" x1="122.341" y1="117.042" x2="84.091" y2="71.02"/><linearGradient id="a"><stop offset="0" stop-color="#d5dada"/><stop offset="1" stop-color="#f1f1f1"/></linearGradient><linearGradient gradientTransform="matrix(.2532 0 0 .2532 -.094 263.438)" xlink:href="#b" id="e" x1="36.952" y1="28.276" x2="67.633" y2="108.047" gradientUnits="userSpaceOnUse"/><linearGradient id="b"><stop offset="0" stop-color="#1cba4f"/><stop offset="1" stop-color="#0ebb9a"/></linearGradient><filter id="d" height="1.031" width="1.031" x="-.016" y="-.016" color-interpolation-filters="sRGB"><feGaussianBlur stdDeviation=".799"/></filter><linearGradient xlink:href="#c" id="g" gradientUnits="userSpaceOnUse" x1="21.771" y1="281.845" x2="30.878" y2="291.664" gradientTransform="matrix(.957 0 0 .957 .624 13.803)"/></defs><g transform="translate(0 -263.133)"><rect y="-8.17" x="159.551" width="107.46" transform="matrix(.2427 -.0394 .0394 .2427 -37.675 277.01)" rx="4.827" height="109.128" fill="#5d5d5d" filter="url(#d)"/><rect y="265.387" x="-42.336" width="26.423" transform="rotate(-9.219)" rx="1.187" height="26.833" fill="#fff" stroke-width=".246"/><path d="M2.322 270.326l23.167-4.081 4.024 22.994-23.11 4.254z" fill="url(#e)" stroke-width=".246"/><g opacity=".288" fill-opacity=".08" stroke-linecap="round" stroke-linejoin="round" stroke-opacity=".038"><path d="M25.528 280.638a7.302 7.302 0 0 0-7.302 7.302 7.302 7.302 0 0 0 1.851 4.845l9.86-1.6a1.184 1.184 0 0 0 .98-1.361l-1.285-7.922a7.302 7.302 0 0 0-4.104-1.264z" stroke-width="2.744" paint-order="fill markers stroke"/><path d="M25.478 280.538a7.352 7.352 0 0 0-7.352 7.352 7.352 7.352 0 0 0 1.888 4.906l9.922-1.61a1.184 1.184 0 0 0 .981-1.362l-1.3-8.01a7.352 7.352 0 0 0-4.139-1.276z" stroke-width="2.763" paint-order="fill markers stroke"/><path d="M25.415 280.412A7.415 7.415 0 0 0 18 287.827a7.415 7.415 0 0 0 1.934 4.982l10.002-1.624a1.184 1.184 0 0 0 .981-1.361l-1.317-8.118a7.415 7.415 0 0 0-4.185-1.294z" stroke-width="2.787" paint-order="fill markers stroke"/><path d="M25.377 280.336a7.453 7.453 0 0 0-7.453 7.453 7.453 7.453 0 0 0 1.962 5.028l10.05-1.632a1.184 1.184 0 0 0 .981-1.361l-1.328-8.183a7.453 7.453 0 0 0-4.212-1.305z" stroke-width="2.801" paint-order="fill markers stroke"/><path d="M25.314 280.21a7.516 7.516 0 0 0-7.516 7.517 7.516 7.516 0 0 0 2.008 5.103l10.13-1.645a1.184 1.184 0 0 0 .981-1.361l-1.345-8.29a7.516 7.516 0 0 0-4.258-1.323z" stroke-width="2.824" paint-order="fill markers stroke"/><path d="M25.251 280.085a7.579 7.579 0 0 0-7.578 7.579 7.579 7.579 0 0 0 2.053 5.179l10.21-1.658a1.184 1.184 0 0 0 .981-1.361l-1.362-8.397a7.579 7.579 0 0 0-4.304-1.342z" stroke-width="2.848" paint-order="fill markers stroke"/><path d="M25.189 279.96a7.641 7.641 0 0 0-7.642 7.64 7.641 7.641 0 0 0 2.1 5.256l10.29-1.67a1.184 1.184 0 0 0 .98-1.362l-1.38-8.504a7.641 7.641 0 0 0-4.348-1.36z" stroke-width="2.872" paint-order="fill markers stroke"/><path d="M25.138 279.858a7.692 7.692 0 0 0-7.692 7.692 7.692 7.692 0 0 0 2.136 5.316l10.354-1.68a1.184 1.184 0 0 0 .981-1.362l-1.394-8.59a7.692 7.692 0 0 0-4.385-1.376z" stroke-width="2.891" paint-order="fill markers stroke"/></g><circle cx="25.578" cy="287.991" r="7.252" fill="url(#g)" stroke-width=".721" stroke-linecap="round" stroke-linejoin="round" stroke-opacity=".038" paint-order="fill markers stroke"/><path style="line-height:normal;font-variant-ligatures:normal;font-variant-position:normal;font-variant-caps:normal;font-variant-numeric:normal;font-variant-alternates:normal;font-feature-settings:normal;text-indent:0;text-align:start;text-decoration-line:none;text-decoration-style:solid;text-decoration-color:#000;text-transform:none;text-orientation:mixed;shape-padding:0;isolation:auto;mix-blend-mode:normal" d="M23.603 285.349a.35.35 0 0 0-.36.35v4.583c0 .27.292.438.526.303l3.968-2.291a.35.35 0 0 0 0-.607l-3.968-2.291a.35.35 0 0 0-.166-.047z" color="#000" font-weight="400" font-family="sans-serif" white-space="normal" overflow="visible" fill="#19c0c6" stroke-width=".7" stroke-linecap="round" stroke-linejoin="round" paint-order="fill markers stroke" enable-background="accumulate"/><path d="M13.915 270.483c-.2-.004-.407.016-.616.063-1.735.389-2.92 2.021-2.42 4.252.508 2.261 2.2 3.129 3.944 2.738a2.816 2.816 0 0 0 1.916-1.471l-1.043-.731c-.25.435-.599.763-1.146.885-.991.223-1.812-.439-2.123-1.823-.303-1.353.247-2.333 1.187-2.543.464-.105.839.017 1.25.25l.625-1.127a3.021 3.021 0 0 0-1.574-.493zM7.7 271.932l-1.828.41-.596 7.205 1.548-.347.055-1.693 2.054-.461.772 1.508 1.612-.362-3.617-6.26zm-.67 1.365c.333.663.697 1.416 1.034 2.046l.293.585-1.435.322.026-.657c.035-.713.035-1.537.04-2.287l.042-.009zm5.238 7.73c-.276.011-.958.135-2.61.458-1.465.285-2.712.55-2.773.588-.083.053-.088.18-.017.539.05.258.117.488.152.51.034.024 1.317-.212 2.852-.523l2.793-.565-.063-.45c-.038-.262-.108-.482-.173-.534-.022-.018-.07-.027-.161-.023z" fill="#fff" stroke-width="2.196"/></g></svg>