<svg xmlns="http://www.w3.org/2000/svg" xmlns:xlink="http://www.w3.org/1999/xlink" width="32" height="32" viewBox="0 0 32 32"><defs><linearGradient id="a"><stop offset="0" stop-color="#d3d3d3"/><stop offset="1" stop-color="#fcf9f9"/></linearGradient><linearGradient xlink:href="#a" id="c" x1="396.23" y1="545.306" x2="397.758" y2="517.263" gradientUnits="userSpaceOnUse" gradientTransform="matrix(1.01613 0 0 1.01613 -6.508 -8.625)"/><linearGradient xlink:href="#a" id="b" x1="403.437" y1="544.989" x2="402.485" y2="518.344" gradientUnits="userSpaceOnUse" gradientTransform="matrix(1.01613 0 0 1.01613 -6.508 -8.625)"/></defs><g transform="translate(-404.952 -542.702) scale(1.05085)"><circle r="14.226" cy="531.742" cx="400.524" fill="url(#b)" stroke="url(#c)" stroke-width="1.524"/><g fill="#3d434a"><path d="M400.242 525.28l-6.346 8.123c-1.19 1.523-.857 4.236.666 5.426 1.523 1.19 4.236.856 5.426-.667l6.346-8.123.793-1.015c.794-1.015.572-2.824-.444-3.617-1.015-.793-2.824-.571-3.617.444l-.793 1.015-4.76 6.092-.793 1.016c-.397.507-.286 1.412.222 1.808.507.397 1.412.286 1.808-.222l5.553-7.107 1.016.793-5.553 7.108c-.794 1.015-2.602 1.237-3.618.444-1.015-.793-1.237-2.602-.444-3.617l.793-1.016 5.554-7.107c1.19-1.523 3.902-1.856 5.425-.667 1.523 1.19 1.857 3.903.667 5.426l-.794 1.016-6.346 8.123c-1.586 2.03-5.204 2.474-7.235.888-2.03-1.587-2.474-5.204-.888-7.235l6.346-8.123 1.016.794z" stroke-width=".071" stroke="none" stroke-opacity="1"/></g></g></svg>