<svg xmlns="http://www.w3.org/2000/svg" xmlns:xlink="http://www.w3.org/1999/xlink" height="48" viewBox="0 0 48 48" width="48"><defs><linearGradient id="c"><stop offset="0" stop-color="#b6b6b6"/><stop offset=".482" stop-color="#fff"/><stop offset="1" stop-color="#cfcfcf"/></linearGradient><linearGradient id="b"><stop offset="0" stop-color="#165dc2"/><stop offset="1" stop-color="#1680c2"/></linearGradient><linearGradient id="a"><stop offset="0" stop-color="#858585"/><stop offset="1" stop-color="#a8a8a8"/></linearGradient><linearGradient xlink:href="#a" id="g" gradientUnits="userSpaceOnUse" x1="-26.73" y1="58.686" x2="-26.73" y2="22.726"/><linearGradient xlink:href="#d" id="f" x1="23.743" y1="44.55" x2="23.743" y2="3.871" gradientUnits="userSpaceOnUse" gradientTransform="matrix(1.09524 0 0 1.09524 -2.286 -2.286)"/><linearGradient id="d"><stop offset="0" stop-color="#0c7ac7"/><stop offset="1" stop-color="#6cb4e7"/></linearGradient><filter id="e" x="-.012" width="1.024" y="-.012" height="1.024" color-interpolation-filters="sRGB"><feGaussianBlur stdDeviation=".23"/></filter></defs><circle r="23" cy="24" cx="24" fill-opacity=".314" stroke-width=".5" filter="url(#e)"/><circle cx="24" cy="24" r="23" opacity=".99" fill="url(#f)" stroke-width=".5"/><path d="M43.378 11.897c6.351 11 2.582 25.067-8.419 31.419-11 6.35-25.067 2.582-31.418-8.42 0 0 11.156-22.027 39.837-23z" opacity=".99" fill="#fff" fill-opacity=".126" stroke-width=".5"/><g style="line-height:0%"><path d="M22.364 16.143q-.99 0-1.712-.685-.723-.685-.723-1.865t.723-1.864q.723-.685 1.712-.685 1.027 0 1.712.685.723.685.723 1.864 0 1.18-.723 1.865-.685.685-1.712.685zm-.8 5.365h-5.098v-2.626h8.219v10.845q0 2.625.723 3.538.723.875 2.169.875 1.103 0 2.016-.266.952-.266 1.484-.57l.457 2.663q-.228.114-.647.304-.418.152-.99.305-.532.152-1.217.266-.647.114-1.37.114-1.674 0-2.777-.457-1.104-.456-1.789-1.37-.647-.913-.913-2.244-.266-1.37-.266-3.158z" style="line-height:10;-inkscape-font-specification:'Ubuntu Mono'" font-weight="400" font-size="38.05" font-family="Ubuntu Mono" letter-spacing="0" word-spacing="0" fill="#fff" stroke-width=".2" stroke-opacity=".455"/></g></svg>