<svg xmlns="http://www.w3.org/2000/svg" xmlns:xlink="http://www.w3.org/1999/xlink" width="128" height="128" viewBox="0 0 128 128"><defs><linearGradient id="D"><stop offset="0" stop-color="#514039"/><stop offset="1" stop-color="#605449"/></linearGradient><linearGradient id="C"><stop offset="0" stop-color="#fff"/><stop offset="1" stop-color="#f5f5f3"/></linearGradient><linearGradient id="B"><stop offset="0" stop-color="#dde2ec"/><stop offset="1" stop-color="#fff"/></linearGradient><linearGradient id="A"><stop offset="0" stop-color="#b8c5d3"/><stop offset="1" stop-color="#dfe4e9"/></linearGradient><linearGradient id="z"><stop offset="0" stop-color="#fff" stop-opacity="0"/><stop offset=".27" stop-color="#fff" stop-opacity=".2"/><stop offset=".374" stop-color="#d5e1ee" stop-opacity=".85"/><stop offset=".488" stop-color="#e8edf6"/><stop offset=".596" stop-color="#ebf0f9" stop-opacity=".85"/><stop offset=".715" stop-color="#fff" stop-opacity=".2"/><stop offset="1" stop-color="#e8e8e8" stop-opacity="0"/></linearGradient><linearGradient id="y"><stop offset="0" stop-color="#242424"/><stop offset="1" stop-color="#484848"/></linearGradient><linearGradient id="x"><stop offset="0" stop-color="#e8e8e8" stop-opacity="0"/><stop offset=".27" stop-color="#e0e0e0" stop-opacity=".212"/><stop offset=".374" stop-color="#cacaca" stop-opacity=".855"/><stop offset=".488" stop-color="#c6c6c6"/><stop offset=".596" stop-color="#cacaca" stop-opacity=".851"/><stop offset=".715" stop-color="#e1e1e1" stop-opacity=".192"/><stop offset="1" stop-color="#e8e8e8" stop-opacity="0"/></linearGradient><linearGradient id="w"><stop offset="0" stop-color="#e8e8e8" stop-opacity="0"/><stop offset=".105" stop-color="#e0e0e0" stop-opacity=".212"/><stop offset=".418" stop-color="#cacaca" stop-opacity=".855"/><stop offset=".488" stop-color="#c6c6c6"/><stop offset=".564" stop-color="#cacaca" stop-opacity=".851"/><stop offset=".901" stop-color="#e1e1e1" stop-opacity=".192"/><stop offset="1" stop-color="#e8e8e8" stop-opacity="0"/></linearGradient><linearGradient id="v"><stop offset="0" stop-color="#e8e8e8" stop-opacity="0"/><stop offset=".243" stop-color="#cacaca" stop-opacity=".275"/><stop offset=".407" stop-color="#8b8b8b" stop-opacity=".867"/><stop offset=".524" stop-color="#7d7d7d"/><stop offset=".616" stop-color="#8b8b8b" stop-opacity=".867"/><stop offset=".817" stop-color="#d7d7d7" stop-opacity=".153"/><stop offset="1" stop-color="#e8e8e8" stop-opacity="0"/></linearGradient><linearGradient id="u"><stop offset="0" stop-color="#393939"/><stop offset="1" stop-color="#1c1c1c"/></linearGradient><linearGradient id="t"><stop offset="0" stop-color="#1b1b1b"/><stop offset="1" stop-color="#525252"/></linearGradient><linearGradient id="s"><stop offset="0" stop-color="#2d2e2d"/><stop offset="1" stop-color="#555"/></linearGradient><linearGradient id="r"><stop offset="0" stop-color="#c7cbd7"/><stop offset="1" stop-color="#f7ebf7"/></linearGradient><linearGradient id="q"><stop offset="0" stop-color="#fff"/><stop offset="1" stop-color="#fff"/></linearGradient><linearGradient id="m"><stop offset="0" stop-color="#a0e65d"/><stop offset="1" stop-color="#7fcd35"/></linearGradient><linearGradient id="l"><stop offset="0" stop-color="#4d9309"/><stop offset="1" stop-color="#83d92e"/></linearGradient><linearGradient id="k"><stop offset="0" stop-color="#7dba41"/><stop offset="1" stop-color="#a0e65c"/></linearGradient><linearGradient id="j"><stop offset="0" stop-color="#ebe3e3"/><stop offset=".437" stop-color="#f7ebef"/><stop offset="1" stop-color="#f7f7f7"/></linearGradient><linearGradient id="i"><stop offset="0" stop-color="#ded3d6"/><stop offset="1" stop-color="#f7ebef"/></linearGradient><linearGradient id="h"><stop offset="0" stop-color="#ffe7f7"/><stop offset="1" stop-color="#ffc3ef"/></linearGradient><linearGradient id="g"><stop offset="0" stop-color="#29a221"/><stop offset="1" stop-color="#63db4a"/></linearGradient><linearGradient id="f"><stop offset="0" stop-color="#c16d16"/><stop offset="1" stop-color="#ff8e31"/></linearGradient><linearGradient id="e"><stop offset="0" stop-color="#92948f" stop-opacity="0"/><stop offset=".428" stop-color="#9b9e98"/><stop offset="1" stop-color="#939690" stop-opacity="0"/></linearGradient><linearGradient id="d"><stop offset="0" stop-color="#fff" stop-opacity="0"/><stop offset=".459" stop-color="#fff"/><stop offset="1" stop-color="#fff" stop-opacity="0"/></linearGradient><linearGradient id="c"><stop offset="0"/><stop offset=".061" stop-color="#1a1a1a"/><stop offset=".165" stop-color="#333"/><stop offset=".554" stop-color="#4d4d4d"/><stop offset="1" stop-color="#999"/></linearGradient><linearGradient id="b"><stop offset="0" stop-color="#1a1a1a"/><stop offset="1" stop-color="gray"/></linearGradient><linearGradient id="a"><stop offset="0" stop-color="#333"/><stop offset="1" stop-color="#e0e0dd" stop-opacity="0"/></linearGradient><linearGradient id="n"><stop offset="0" stop-color="#66b41a"/><stop offset=".696" stop-color="#569817"/><stop offset=".849" stop-color="#477b12"/><stop offset="1" stop-color="#3e6d10"/></linearGradient><linearGradient id="o"><stop offset="0" stop-color="#a5c69f"/><stop offset="1" stop-color="#fffbff"/></linearGradient><linearGradient id="p"><stop offset="0" stop-color="#c2debe"/><stop offset="1" stop-color="#eeffe7"/></linearGradient><linearGradient gradientTransform="matrix(.96123 0 0 .96123 52.064 -10.159)" y2="35.309" x2="-33.313" y1="76.556" x1="-62.747" gradientUnits="userSpaceOnUse" id="H" xlink:href="#z"/><linearGradient y2="35.309" x2="-33.313" y1="76.556" x1="-62.747" gradientTransform="matrix(.96123 0 0 .96123 87.746 -70.643)" gradientUnits="userSpaceOnUse" id="G" xlink:href="#z"/><linearGradient y2="35.309" x2="-33.313" y1="76.556" x1="-62.747" gradientTransform="matrix(.80528 0 0 .80528 44.665 -1.405)" gradientUnits="userSpaceOnUse" id="J" xlink:href="#z"/><linearGradient y2="35.309" x2="-33.313" y1="76.556" x1="-62.747" gradientTransform="matrix(.80528 0 0 .80528 -3.139 -32.172)" gradientUnits="userSpaceOnUse" id="I" xlink:href="#z"/><linearGradient y2="35.309" x2="-33.313" y1="76.556" x1="-62.747" gradientTransform="matrix(.62794 0 0 .62794 36.049 8.574)" gradientUnits="userSpaceOnUse" id="L" xlink:href="#z"/><linearGradient y2="35.309" x2="-33.313" y1="76.556" x1="-62.747" gradientTransform="matrix(.64884 0 0 .64884 -10.251 -21.893)" gradientUnits="userSpaceOnUse" id="K" xlink:href="#z"/><linearGradient y2="35.309" x2="-33.313" y1="76.556" x1="-62.747" gradientTransform="matrix(.51648 0 0 .51648 30.634 14.847)" gradientUnits="userSpaceOnUse" id="M" xlink:href="#z"/><linearGradient y2="35.309" x2="-33.313" y1="76.556" x1="-62.747" gradientTransform="translate(22.471 24.3) scale(.34847)" gradientUnits="userSpaceOnUse" id="O" xlink:href="#z"/><linearGradient y2="35.309" x2="-33.313" y1="76.556" x1="-62.747" gradientTransform="translate(-25.42 -6.75) scale(.34847)" gradientUnits="userSpaceOnUse" id="N" xlink:href="#z"/><linearGradient gradientTransform="matrix(1.32117 0 0 1.32117 -4.471 -1247.776)" gradientUnits="userSpaceOnUse" y2="1028.009" x2="48.952" y1="1032.494" x1="48.952" id="S" xlink:href="#A"/><linearGradient y2="35.309" x2="-33.313" y1="76.556" x1="-62.747" gradientTransform="translate(18.24 29.201) scale(.26139)" gradientUnits="userSpaceOnUse" id="P" xlink:href="#z"/><linearGradient y2="35.309" x2="-33.313" y1="76.556" x1="-62.747" gradientTransform="translate(55.009 -27.7) scale(.26139)" gradientUnits="userSpaceOnUse" id="Q" xlink:href="#z"/><linearGradient gradientUnits="userSpaceOnUse" y2="996.962" x2="48.095" y1="994.353" x1="48.095" id="R" xlink:href="#B" gradientTransform="translate(-91.932 -990.284)"/><linearGradient xlink:href="#C" id="E" x1="25.623" y1="7.384" x2="32.963" y2="27.761" gradientUnits="userSpaceOnUse" gradientTransform="translate(-89.415 -15.584) scale(5.01447)"/><linearGradient xlink:href="#D" id="F" x1="39.107" y1="23.638" x2="38.341" y2="4.323" gradientUnits="userSpaceOnUse" gradientTransform="translate(-123.894 5.816) scale(5.01447)"/></defs><g opacity=".25" color="#000" font-weight="400" font-family="sans-serif" white-space="normal" fill-opacity=".137" stroke-linecap="round" stroke-linejoin="round"><path d="M17.514 13.887a6.437 6.437 0 0 0-5.37 7.355l15.429 99.324a6.437 6.437 0 0 0 7.347 5.38l80.317-12.475a6.445 6.445 0 0 0 5.378-7.357L105.188 6.79a6.445 6.445 0 0 0-7.358-5.379zm.155.997c-92.286 92.144-46.143 46.072 0 0z" style="line-height:normal;font-variant-ligatures:normal;font-variant-position:normal;font-variant-caps:normal;font-variant-numeric:normal;font-variant-alternates:normal;font-feature-settings:normal;text-indent:0;text-align:start;text-decoration-line:none;text-decoration-style:solid;text-decoration-color:#000;text-transform:none;text-orientation:mixed;shape-padding:0;isolation:auto;mix-blend-mode:normal" overflow="visible" stroke-width=".2" paint-order="fill markers stroke"/><path style="line-height:normal;font-variant-ligatures:normal;font-variant-position:normal;font-variant-caps:normal;font-variant-numeric:normal;font-variant-alternates:normal;font-feature-settings:normal;text-indent:0;text-align:start;text-decoration-line:none;text-decoration-style:solid;text-decoration-color:#000;text-transform:none;text-orientation:mixed;shape-padding:0;isolation:auto;mix-blend-mode:normal" d="M16.908 13.974c-3.527.55-5.933 3.866-5.385 7.407l15.475 100.013c.548 3.54 3.843 5.967 7.37 5.417l80.563-12.562c3.527-.55 5.944-3.867 5.396-7.408L104.85 6.828c-.547-3.54-3.852-5.966-7.38-5.416zm.156 1.004c-92.57 92.784-46.285 46.392 0 0z" overflow="visible" stroke-width=".201" paint-order="fill markers stroke"/><path d="M16.426 14.088c-3.521.555-5.923 3.9-5.376 7.473l15.447 100.914c.546 3.573 3.835 6.022 7.356 5.467l80.415-12.676c3.52-.554 5.933-3.902 5.386-7.475L104.207 6.878c-.547-3.573-3.846-6.02-7.366-5.465zm.155 1.013c-92.4 93.62-46.2 46.81 0 0z" style="line-height:normal;font-variant-ligatures:normal;font-variant-position:normal;font-variant-caps:normal;font-variant-numeric:normal;font-variant-alternates:normal;font-feature-settings:normal;text-indent:0;text-align:start;text-decoration-line:none;text-decoration-style:solid;text-decoration-color:#000;text-transform:none;text-orientation:mixed;shape-padding:0;isolation:auto;mix-blend-mode:normal" overflow="visible" stroke-width=".202" paint-order="fill markers stroke"/></g><rect width="93.156" height="112.394" x="9.727" y="16.349" rx="5.937" ry="5.937" transform="rotate(-8.83)" fill="url(#E)" stroke-width="40.116" stroke-linecap="round" stroke-linejoin="round" paint-order="fill markers stroke"/><rect width="87.249" height="106.49" x="12.589" y="19.372" rx="4.928" ry="4.928" transform="rotate(-8.901)" fill="url(#F)" stroke-width="1.003" stroke-linecap="round" stroke-linejoin="round" stroke-opacity=".137" paint-order="fill markers stroke"/><path d="M74.588 84.837a34.2 34.2 0 0 1 24.191-41.852 34.2 34.2 0 0 1-41.828-24.232 34.2 34.2 0 0 1-24.274 41.804 34.2 34.2 0 0 1 41.78 24.315" fill="#473c34"/><path d="M74.41 84.177A33.515 33.515 0 0 1 98.119 43.16a33.515 33.515 0 0 1-40.992-23.747 33.515 33.515 0 0 1-23.788 40.968A33.515 33.515 0 0 1 74.283 84.21" fill="#d8e4f4"/><g transform="matrix(1.36796 0 0 1.36796 125.834 44.465)"><path d="M-37.723 28.54A23.992 23.992 0 0 1-20.75-.823a23.992 23.992 0 0 1-29.345-17 23.992 23.992 0 0 1-17.03 29.327 23.992 23.992 0 0 1 29.312 17.058" fill="#8193ab"/><circle r="24" cy="-16.552" cx="41.047" transform="rotate(-165)" fill="url(#G)"/><circle transform="rotate(90)" cx="5.364" cy="43.932" r="24" fill="url(#H)"/><path d="M-38.59 25.304A20.643 20.643 0 0 1-23.986.041a20.643 20.643 0 0 1-25.249-14.627 20.643 20.643 0 0 1-14.652 25.234 20.643 20.643 0 0 1 25.22 14.678" fill="#ced8e7"/><path d="M-38.719 24.822A20.143 20.143 0 0 1-24.469.17a20.143 20.143 0 0 1-24.638-14.273A20.143 20.143 0 0 1-63.405 10.52a20.143 20.143 0 0 1 24.61 14.322" fill="#8c98ac"/><path d="M-38.848 24.339A19.644 19.644 0 0 1-24.953.299 19.644 19.644 0 0 1-48.979-13.62a19.644 19.644 0 0 1-13.943 24.012A19.644 19.644 0 0 1-38.923 24.36" fill="#8f9eb2"/><circle transform="rotate(10.313)" cx="-42.262" cy="13.143" r="20.106" opacity=".7" fill="url(#I)"/><path d="M-39.66 21.31A16.507 16.507 0 0 1-27.983 1.107a16.507 16.507 0 0 1-20.19-11.697A16.507 16.507 0 0 1-59.89 9.59a16.507 16.507 0 0 1 20.167 11.737" fill="#7f8fa5"/><circle r="20.106" cy="43.91" cx="5.541" transform="rotate(90.23)" opacity=".8" fill="url(#J)"/><path d="M-39.771 20.893A16.077 16.077 0 0 1-28.4 1.22a16.077 16.077 0 0 1-19.663-11.392A16.077 16.077 0 0 1-59.473 9.48a16.077 16.077 0 0 1 19.64 11.43" fill="#93a0b3"/><circle r="16.2" cy="14.619" cx="-41.774" transform="rotate(12.326)" opacity=".9" fill="url(#K)"/><circle transform="rotate(90.23)" cx="5.541" cy="43.91" r="15.679" opacity=".9" fill="url(#L)"/><path d="M-40.597 17.812a12.887 12.887 0 0 1 9.116-15.77A12.887 12.887 0 0 1-47.243-7.09 12.887 12.887 0 0 1-56.39 8.663a12.887 12.887 0 0 1 15.744 9.162" fill="#b9c4d2"/><path d="M-40.726 17.33a12.387 12.387 0 0 1 8.762-15.16 12.387 12.387 0 0 1-15.15-8.777 12.387 12.387 0 0 1-8.793 15.142 12.387 12.387 0 0 1 15.133 8.807" fill="#8696a9"/><path d="M-41.438 14.674A9.637 9.637 0 0 1-34.62 2.879 9.637 9.637 0 0 1-46.408-3.95a9.637 9.637 0 0 1-6.84 11.781 9.637 9.637 0 0 1 11.773 6.852" fill="#0ff"/><path d="M-40.87 16.795a11.833 11.833 0 0 1 8.371-14.482 11.833 11.833 0 0 1-14.473-8.385 11.833 11.833 0 0 1-8.4 14.465 11.833 11.833 0 0 1 14.457 8.414" fill="#a1aec1"/><circle r="12.895" cy="43.91" cx="5.541" transform="rotate(90.23)" opacity=".7" fill="url(#M)"/><path d="M-41.567 14.19a9.137 9.137 0 0 1 6.463-11.182A9.137 9.137 0 0 1-46.28-3.466a9.137 9.137 0 0 1-6.485 11.17A9.137 9.137 0 0 1-41.602 14.2" fill="#c0c8d1"/><path d="M-42.153 12.006a6.876 6.876 0 0 1 4.864-8.415 6.876 6.876 0 0 1-8.41-4.872 6.876 6.876 0 0 1-4.88 8.405 6.876 6.876 0 0 1 8.4 4.89" fill="#0ff"/><path d="M-41.68 13.77a8.702 8.702 0 0 1 6.156-10.65 8.702 8.702 0 0 1-10.644-6.166 8.702 8.702 0 0 1-6.177 10.638 8.702 8.702 0 0 1 10.632 6.187" fill="#8695a6"/><circle r="8.701" cy="12.859" cx="-42.349" transform="rotate(9.928)" opacity=".7" fill="url(#N)"/><circle transform="rotate(90.23)" cx="5.541" cy="43.91" r="8.701" opacity=".7" fill="url(#O)"/><path d="M-42.243 11.67a6.528 6.528 0 0 1 4.618-7.989 6.528 6.528 0 0 1-7.984-4.626 6.528 6.528 0 0 1-4.634 7.98 6.528 6.528 0 0 1 7.975 4.642" fill="#5a6878"/><path d="M-42.355 11.25a6.093 6.093 0 0 1 4.31-7.457 6.093 6.093 0 0 1-7.453-4.317 6.093 6.093 0 0 1-4.325 7.448 6.093 6.093 0 0 1 7.445 4.332" fill="#99a6b5"/><circle r="6.526" cy="43.91" cx="5.541" transform="rotate(90.23)" opacity=".7" fill="url(#P)"/><circle transform="rotate(-169.894)" cx="42.309" cy="-12.99" r="6.526" opacity=".5" fill="url(#Q)"/><path d="M-44.318 6.806a1.492 1.492 0 0 1-1.056-1.826 1.492 1.492 0 0 1 1.825-1.058 1.492 1.492 0 0 1 1.06 1.824 1.492 1.492 0 0 1-1.824 1.061" opacity=".75" fill="url(#R)"/><path d="M-44.191 6.33a1 1 0 0 1-.707-1.223 1 1 0 0 1 1.223-.709 1 1 0 0 1 .71 1.222 1 1 0 0 1-1.222.711"/></g><rect ry="1.239" rx="1.239" y="106.525" x="32.579" height="12.675" width="51.349" transform="rotate(-8.302)" opacity=".3" fill="#020303" stroke-width="1.321"/><rect width="51.349" height="12.675" x="32.579" y="105.203" rx="1.239" ry="1.239" transform="rotate(-8.302)" fill="url(#S)" stroke-width="1.321"/><path d="M48.984 110.06l.095.652c.099.679.725 1.148 1.404 1.049l48.361-7.057c.68-.1 1.146-.728 1.047-1.407l-.095-.651c.099.679-.368 1.305-1.047 1.404l-48.361 7.057c-.68.1-1.305-.367-1.404-1.047z" fill="#c4d3e1" stroke-width="1.321"/><path d="M48.653 99.219c-.68.099-1.146.725-1.047 1.404l.096.654c-.1-.68.367-1.305 1.047-1.405l48.36-7.057c.68-.099 1.306.368 1.405 1.047l-.095-.653a1.236 1.236 0 0 0-1.405-1.047z" fill="#fff" stroke-width="1.321"/><text transform="rotate(-7.516)" y="114.162" x="46.326" style="line-height:125%;-inkscape-font-specification:'Source Sans Pro'" font-weight="400" font-size="9.334" font-family="Source Sans Pro" letter-spacing="0" word-spacing="0" fill="#494038" stroke-width=".233"><tspan style="-inkscape-font-specification:'Source Sans Pro'" y="114.162" x="46.326">Ardour</tspan></text></svg>