<svg xmlns="http://www.w3.org/2000/svg" xmlns:xlink="http://www.w3.org/1999/xlink" width="128" height="128" viewBox="0 0 33.866666 33.866668"><defs><linearGradient id="c"><stop offset="0" stop-color="#ffffea"/><stop offset="1" stop-color="#fefdb0"/></linearGradient><linearGradient id="b"><stop offset="0" stop-color="#fffff2"/><stop offset="1" stop-color="#d7c86d"/></linearGradient><linearGradient id="a"><stop offset="0" stop-color="#545454"/><stop offset="1" stop-color="#313032"/></linearGradient><linearGradient xlink:href="#a" id="e" x1="17.108" y1="269.736" x2="25.768" y2="291.971" gradientUnits="userSpaceOnUse" gradientTransform="matrix(1.01743 0 0 1.0174 -.326 -4.595)"/><linearGradient xlink:href="#b" id="f" x1="-7.047" y1="259.534" x2="-.672" y2="270.024" gradientUnits="userSpaceOnUse"/><linearGradient xlink:href="#c" id="d" x1="12.9" y1="269.031" x2="28.584" y2="292.09" gradientUnits="userSpaceOnUse"/></defs><g stroke-linecap="round" stroke-linejoin="round"><path d="M31.155 29.069l-11.102-2.944-8.718 7.477-.632-11.468L.9 16.152l10.711-4.144L14.27.835l7.251 8.907 11.448-.924-6.23 9.648z" opacity=".25" stroke-width="2.616"/><path d="M28.756 295.285l-10.994-4.86-10.235 6.3 1.225-11.956-9.156-7.788 11.75-2.53 4.578-11.114 6.037 10.394 11.984.919-8.019 8.953z" transform="matrix(.94378 -.14948 .14948 .9438 -40.123 -245.843)" fill="url(#d)" stroke="#98a3b2" stroke-width=".105"/><path transform="matrix(.79397 -.12576 .12575 .794 -31.067 -204.17)" d="M28.756 295.285l-10.994-4.86-10.235 6.3 1.225-11.956-9.156-7.788 11.75-2.53 4.578-11.114 6.037 10.394 11.984.919-8.019 8.953z" fill="url(#e)" stroke-width="3.11"/><path d="M17.755 12.429a5.57 5.024 0 0 0-5.57 5.023 5.57 5.024 0 0 0 5.57 5.024 5.57 5.024 0 0 0 5.57-5.024 5.57 5.024 0 0 0-5.57-5.023zm3.323 3.185l.238.9-.119.021-.3-.254-.466.074.216 2.082a.373.373 0 0 1-.331.41l-3.738.404a.373.373 0 0 1-.414-.371v-.509l-.642.059-.903.868a.373.373 0 0 1-.628-.221l-.211-1.656a.373.373 0 0 1 .49-.401l1.192.408.433-.025-.082-.924a.373.373 0 0 1 .33-.402l3.835-.442.03-.001a.373.373 0 0 1 .383.334l.002.015.446-.071.098-.258z" fill="#353535" stroke-width=".029" paint-order="fill markers stroke"/><path d="M-3.125 257.413a7.464 6.731 0 0 0-7.463 6.731 7.464 6.731 0 0 0 7.463 6.732 7.464 6.731 0 0 0 7.464-6.732 7.464 6.731 0 0 0-7.464-6.73zm4.453 4.269l.32 1.204-.16.03-.401-.341-.625.1.289 2.789a.5.5 0 0 1-.444.549l-5.008.542a.5.5 0 0 1-.554-.497v-.682l-.862.078-1.208 1.164a.5.5 0 0 1-.842-.297l-.283-2.219a.5.5 0 0 1 .655-.537l1.598.547.58-.033-.109-1.238a.5.5 0 0 1 .441-.54l5.139-.591.04-.002a.5.5 0 0 1 .515.447l.002.021.598-.095.13-.346z" fill="url(#f)" stroke-width=".029" paint-order="fill markers stroke" transform="translate(20.086 -180.216) scale(.74631)"/><path d="M17.754 12.024c-3.012 0-5.44 2.198-5.44 4.894s2.428 4.893 5.44 4.893c3.013 0 5.44-2.197 5.44-4.893 0-2.696-2.427-4.894-5.44-4.894zm0 .244c2.895 0 5.198 2.099 5.198 4.65 0 2.55-2.303 4.65-5.198 4.65-2.894 0-5.196-2.1-5.196-4.65 0-2.551 2.302-4.65 5.196-4.65zm3.328 2.438a.373.373 0 0 0-.106.015l-.14.04a.373.373 0 0 0-.248.227l-.016.042a.677.677 0 0 0-.32-.211.373.373 0 0 0-.244-.094c-.029 0-.047.003-.057.003a.373.373 0 0 0-.016.002l-3.835.441a.751.751 0 0 0-.659.805.373.373 0 0 0 0 .001l.047.531-1.098-.376a.373.373 0 0 0-.001 0c-.508-.172-1.048.27-.98.802l.211 1.656a.373.373 0 0 0 .002 0c.076.584.83.85 1.255.443a.373.373 0 0 0 .001 0l.808-.779.105-.01v.102c0 .438.392.79.828.742l3.737-.405a.752.752 0 0 0 .662-.82l-.174-1.673.111.095a.373.373 0 0 0 .31.083l.119-.022a.373.373 0 0 0 .293-.463l-.238-.898a.373.373 0 0 0-.357-.279zm-.003.243a.13.13 0 0 1 .126.097l.237.9a.13.13 0 0 1-.102.161l-.12.022a.13.13 0 0 1-.107-.029l-.256-.214-.282.045.201 1.957a.507.507 0 0 1-.446.555l-3.738.403a.505.505 0 0 1-.558-.501v-.365l-.454.041-.87.837a.507.507 0 0 1-.848-.299l-.211-1.656a.507.507 0 0 1 .66-.54l1.17.399.272-.016-.07-.79a.506.506 0 0 1 .445-.544l3.835-.442a.13.13 0 0 1 .005 0 .53.53 0 0 1 .036-.001h.004a.13.13 0 0 1 .13.116c.119.046.207.116.263.23l.343-.054.071-.187a.13.13 0 0 1 .086-.08l.142-.04a.13.13 0 0 1 .036-.005z" style="line-height:normal;font-variant-ligatures:normal;font-variant-position:normal;font-variant-caps:normal;font-variant-numeric:normal;font-variant-alternates:normal;font-feature-settings:normal;text-indent:0;text-align:start;text-decoration-line:none;text-decoration-style:solid;text-decoration-color:#000;text-transform:none;text-orientation:mixed;shape-padding:0;isolation:auto;mix-blend-mode:normal" color="#000" font-weight="400" font-family="sans-serif" white-space="normal" overflow="visible" fill="#fff" fill-opacity=".293" stroke-width="3.78" paint-order="fill markers stroke"/></g></svg>