<svg xmlns="http://www.w3.org/2000/svg" xmlns:xlink="http://www.w3.org/1999/xlink" width="128" height="128" viewBox="0 0 33.866666 33.866668"><defs><linearGradient id="c"><stop offset="0" stop-color="#a8c5da"/><stop offset="1" stop-color="#dfe6ee"/></linearGradient><linearGradient id="b"><stop offset="0" stop-color="#0099fb" stop-opacity=".992"/><stop offset="1" stop-color="#4ecafe" stop-opacity=".973"/></linearGradient><linearGradient id="a"><stop offset="0" stop-color="#dbe7f3"/><stop offset="1" stop-color="#9ba7af"/></linearGradient><linearGradient xlink:href="#a" id="e" x1="-905.432" y1="649.285" x2="-844.875" y2="649.285" gradientUnits="userSpaceOnUse" gradientTransform="matrix(.03648 0 0 .03648 48.848 260.587)"/><linearGradient xlink:href="#b" id="f" x1="-170.156" y1="-33.742" x2="-161.92" y2="-96.1" gradientUnits="userSpaceOnUse" gradientTransform="matrix(.13786 0 0 -.13786 48.848 260.587)"/><linearGradient xlink:href="#c" id="d" x1="-223.571" y1="236.074" x2="-227.231" y2="258.84" gradientUnits="userSpaceOnUse" gradientTransform="matrix(.13786 0 0 .13786 48.848 260.587)"/></defs><g transform="translate(0 -263.133)"><path d="M23.976 294.4c0 1.29-3.134 2.335-7 2.335-3.867 0-7.002-1.045-7.002-2.335 0-.128-.04-.678.02-.8.538-1.111 3.498-1.535 6.981-1.535 3.494 0 6.525.335 6.984 1.48.052.128.017.73.017.855z" fill="#698fac" stroke-width=".944"/><ellipse cx="16.975" cy="293.671" rx="7.001" ry="2.335" fill="url(#d)" stroke-width=".944"/><path d="M15.82 275.053v18.08h.004a1.102.368 0 0 0 1.101.356 1.102.368 0 0 0 1.1-.355h.005v-18.08z" fill="url(#e)" stroke="#698fac" stroke-width=".05"/><path d="M2.799 277.023H31.14c.332 0 .522-.25.526-.6l.007-.545-2.354-11.23c-.068-.324-.304-.58-.636-.58l-23.442-.013c-.331 0-.575.184-.625.428L2.191 275.84l.009.584c.005.332.267.6.599.6z" fill="#045389" stroke-width=".816"/><path d="M2.799 276.367H31.14c.332 0 .59-.274.526-.6l-2.347-11.775c-.064-.325-.304-.58-.636-.581l-23.441-.013c-.332 0-.576.184-.626.429L2.2 275.767c-.066.326.267.6.599.6z" fill="url(#f)" stroke-width=".816"/><path d="M8.482 265.39l16.907-.005 1.136 8.597H7.332z" opacity=".25" stroke-width=".79"/><path d="M8.482 265.244l16.907-.004 1.136 8.596H7.332z" fill="#fcfcfc" stroke-width=".79"/><path d="M3.066 275.192h27.731l-.099.404H3.162z" fill="#004d84" stroke-width=".265"/><path d="M3.127 274.812l-.061.38h27.731l-.031-.394z" fill="#81e3fc" stroke-width=".265"/><path d="M9.291 267.173h15.034v-.037" fill="none" stroke="#000" stroke-width=".05"/><ellipse cx="18.661" cy="268.352" rx=".407" ry=".267" fill="#26b1f6" stroke-width=".1" stroke-linecap="round"/><ellipse ry=".267" rx=".407" cy="269.219" cx="18.677" fill="#e785f8" stroke-width=".1" stroke-linecap="round"/><ellipse cx="18.698" cy="270.098" rx=".407" ry=".267" fill="#fc5353" stroke-width=".1" stroke-linecap="round"/><ellipse ry=".282" rx=".43" cy="271.036" cx="18.736" fill="#ffe244" stroke-width=".1" stroke-linecap="round"/><ellipse cx="18.76" cy="272.007" rx=".442" ry=".29" fill="#90e564" stroke-width=".1" stroke-linecap="round"/><path d="M13.139 267.797a3.777 2.446 0 0 0-3.777 2.446 3.777 2.446 0 0 0 3.777 2.446 3.777 2.446 0 0 0 3.777-2.446 3.777 2.446 0 0 0 0-.005h-3.772v-2.442a3.777 2.446 0 0 0-.005 0z" fill="#26b1f6" fill-rule="evenodd" stroke-width=".354" stroke-linecap="round" stroke-linejoin="bevel"/><path d="M13.144 270.238l-2.55 1.809a3.777 2.446 0 0 0 2.545.642 3.777 2.446 0 0 0 3.106-1.058l-2.203-1.195z" fill="#90e564" fill-rule="evenodd" stroke-width=".354" stroke-linecap="round" stroke-linejoin="bevel"/><path d="M13.678 267.473l.001 2.39 3.714.004.005-.07c0-1.285-1.607-2.326-3.59-2.326-.043.001-.087 0-.13.002z" fill="#e786f9" fill-rule="evenodd" stroke-width=".354" stroke-linecap="round" stroke-linejoin="bevel"/><path d="M16.105 268.01l-2.426 1.854 3.714.003a1.52 1.52 0 0 0 .005-.07c0-.719-.503-1.36-1.293-1.787z" fill="#fb5352" fill-rule="evenodd" stroke-width=".354" stroke-linecap="round" stroke-linejoin="bevel"/><path d="M13.144 270.238l1.67 2.195a3.777 2.446 0 0 0 2.102-2.19 3.777 2.446 0 0 0 0-.005z" fill="#ffe244" fill-rule="evenodd" stroke-width=".354" stroke-linecap="round" stroke-linejoin="bevel"/><g style="line-height:1.25" font-weight="400" font-size="3.219" font-family="sans-serif" letter-spacing="0" word-spacing="0" fill="gray" stroke-width="1.919"><path d="M19.812 268.086h.05v.277h-.05zM20.197 268.238v.125h-.046v-.124q0-.03-.016-.045-.016-.014-.047-.014-.038 0-.06.017-.021.018-.021.049v.117h-.047v-.208h.047v.032q.017-.018.04-.028.022-.009.051-.009.05 0 .074.022.025.022.025.066zM20.433 268.074v.028h-.044q-.025 0-.035.008-.01.007-.01.027v.018h.077v.027h-.076v.181h-.047v-.181h-.045v-.027h.045v-.014q0-.035.022-.051.022-.016.07-.016zM20.472 268.155h.046v.208h-.046zm0-.081h.046v.043h-.046zM20.85 268.238v.125h-.046v-.124q0-.03-.016-.045-.015-.014-.047-.014-.037 0-.059.017-.022.018-.022.049v.117h-.046v-.208h.046v.032q.017-.018.04-.028.022-.009.052-.009.048 0 .073.022.025.022.025.066zM20.944 268.155h.046v.208h-.046zm0-.081h.046v.043h-.046zM21.133 268.096v.059h.096v.027h-.096v.113q0 .025.01.032.009.008.038.008h.048v.028h-.048q-.054 0-.074-.014-.02-.015-.02-.054v-.113h-.035v-.027h.034v-.06zM21.532 268.25v.017h-.214q.003.036.029.054.026.019.072.019.027 0 .052-.005.025-.005.05-.015v.033q-.025.008-.051.012-.027.004-.054.004-.067 0-.107-.03-.04-.028-.04-.078t.038-.08q.038-.031.101-.031.057 0 .09.027.034.027.034.074zm-.047-.01q0-.027-.021-.044-.02-.017-.055-.017-.039 0-.062.016-.024.016-.027.046zM21.775 268.086h.05v.246h.184v.031h-.234zM22.161 268.179q-.037 0-.059.022-.021.021-.021.058 0 .038.021.06.022.02.06.02.037 0 .058-.02.022-.022.022-.06 0-.037-.022-.058-.021-.022-.059-.022zm0-.029q.061 0 .096.029.034.029.034.08 0 .052-.034.08-.035.03-.096.03-.06 0-.095-.03-.034-.028-.034-.08 0-.051.034-.08.035-.029.095-.029zM22.478 268.179q-.037 0-.06.022-.02.021-.02.058 0 .038.02.06.022.02.06.02.037 0 .059-.02.022-.022.022-.06 0-.037-.022-.058-.022-.022-.059-.022zm0-.029q.06 0 .095.029t.035.08q0 .052-.035.08-.034.03-.095.03-.06 0-.095-.03-.035-.028-.035-.08 0-.051.035-.08.034-.029.095-.029zM22.73 268.332v.11h-.047v-.287h.046v.032q.015-.019.037-.028.023-.009.054-.009.051 0 .083.03.033.03.033.08 0 .049-.033.079-.032.03-.083.03-.031 0-.054-.01-.022-.008-.037-.027zm.157-.073q0-.037-.02-.059-.022-.021-.059-.021-.036 0-.058.021-.02.022-.02.06 0 .037.02.059.022.021.058.021.037 0 .058-.021.021-.022.021-.06z"/></g><g style="line-height:1.25" font-weight="400" font-size="3.219" font-family="sans-serif" letter-spacing="0" word-spacing="0" fill="gray" stroke-width="1.919"><path d="M19.829 268.973h.076l.096.19.097-.19h.076v.278h-.05v-.244l-.097.19h-.052l-.097-.19v.244h-.05zM20.401 269.146q-.056 0-.078.01-.021.01-.021.032 0 .018.016.03.016.01.044.01.039 0 .062-.02.024-.02.024-.054v-.008zm.093-.014v.12h-.046v-.033q-.016.02-.04.029-.024.008-.058.008-.043 0-.07-.017-.025-.018-.025-.049 0-.035.032-.053.032-.017.096-.017h.065v-.004q0-.023-.022-.036-.02-.013-.059-.013-.024 0-.047.004t-.044.013v-.032q.026-.007.05-.01.023-.004.046-.004.062 0 .092.023.03.024.03.071zM20.754 269.075q-.008-.004-.017-.005l-.02-.002q-.04 0-.061.02-.021.018-.021.053v.11h-.047v-.208h.047v.032q.015-.019.038-.028.024-.01.057-.01l.01.001.014.002zM20.803 269.043h.047v.208h-.047zm0-.081h.047v.043h-.047zM21.075 269.146q-.056 0-.078.01t-.022.032q0 .018.016.03.017.01.045.01.039 0 .062-.02t.023-.054v-.008zm.093-.014v.12h-.047v-.033q-.016.02-.04.029-.023.008-.057.008-.044 0-.07-.017-.025-.018-.025-.049 0-.035.032-.053.032-.017.095-.017h.065v-.004q0-.023-.021-.036-.021-.013-.06-.013-.023 0-.046.004t-.044.013v-.032q.025-.007.049-.01.024-.004.047-.004.061 0 .091.023.03.024.03.071zM21.499 269.125v.126h-.047v-.125q0-.03-.015-.044-.016-.015-.047-.015-.038 0-.06.018-.021.018-.021.048v.118h-.047v-.208h.047v.032q.016-.019.039-.028.022-.01.052-.01.049 0 .074.023.025.022.025.065zM21.592 269.043h.046v.208h-.046zm0-.081h.046v.043h-.046zM22.028 269.01l-.07.139h.14zm-.029-.037h.058l.143.278h-.053l-.034-.071h-.17l-.034.071h-.054zM22.19 269.043h.049l.088.175.089-.175h.049l-.106.208h-.063zM22.77 269.138v.017h-.213q.003.035.029.054.026.018.072.018.027 0 .052-.004.025-.005.05-.015v.032q-.025.008-.051.012-.027.004-.054.004-.067 0-.107-.029-.04-.029-.04-.078 0-.051.038-.081.038-.03.101-.03.057 0 .09.027.034.027.034.073zm-.046-.01q0-.028-.021-.045-.02-.016-.055-.016-.04 0-.063.016t-.026.045z"/></g><g style="line-height:1.25" font-weight="400" font-size="3.219" font-family="sans-serif" letter-spacing="0" word-spacing="0" fill="gray" stroke-width="1.919"><path d="M19.933 269.872v.216h.062q.078 0 .114-.026.036-.026.036-.082 0-.056-.036-.082-.036-.026-.114-.026zm-.05-.03h.104q.11 0 .161.033.051.033.051.105t-.051.105q-.052.034-.16.034h-.106zM20.52 270.006v.017h-.213q.003.035.028.054.026.018.073.018.026 0 .051-.004.026-.005.05-.015v.032q-.025.008-.051.012-.026.004-.053.004-.068 0-.108-.029-.039-.029-.039-.078 0-.051.037-.081.038-.03.102-.03.057 0 .09.027.033.027.033.073zm-.046-.01q0-.028-.022-.045-.02-.016-.055-.016-.039 0-.062.016t-.027.045zM20.889 269.878l-.07.139h.14zm-.029-.037h.058l.144.278h-.053l-.035-.071h-.17l-.034.071h-.054zM21.35 269.993v.126h-.047v-.125q0-.03-.016-.044-.015-.015-.047-.015-.037 0-.059.018t-.022.048v.118h-.046v-.208h.046v.032q.017-.019.04-.028.022-.01.052-.01.048 0 .073.023.025.022.025.065zM21.422 269.91h.221v.032l-.175.15h.175v.027h-.227v-.031l.175-.15h-.169zM21.843 270.014q-.057 0-.078.01-.022.01-.022.032 0 .018.016.03.017.01.045.01.038 0 .061-.02.024-.02.024-.054v-.008zm.092-.014v.119h-.046v-.032q-.016.02-.04.029-.023.008-.058.008-.043 0-.069-.017-.025-.018-.025-.049 0-.035.031-.053.032-.017.096-.017h.065v-.004q0-.023-.021-.036-.021-.013-.06-.013-.024 0-.047.004t-.044.013v-.032q.026-.007.05-.01.024-.004.046-.004.062 0 .092.023.03.024.03.071zM22.249 269.986v.102h.082q.04 0 .06-.012.02-.013.02-.039 0-.026-.02-.038-.02-.013-.06-.013zm0-.114v.084h.075q.038 0 .056-.01.018-.01.018-.032 0-.021-.018-.031-.018-.01-.056-.01zm-.051-.03h.13q.058 0 .09.017.032.018.032.05 0 .026-.017.041-.016.016-.047.02.038.005.058.024.021.019.021.047 0 .037-.034.058-.034.02-.098.02h-.135zM22.55 269.83h.047v.289h-.047zM22.66 269.91h.05l.088.176.088-.175h.05l-.106.208h-.064zM23.186 269.942v-.112h.046v.289h-.046v-.031q-.015.018-.037.028-.023.008-.054.008-.051 0-.083-.03-.033-.03-.033-.079 0-.05.033-.08.032-.03.083-.03.031 0 .054.01.022.009.037.027zm-.159.073q0 .038.021.06.022.02.058.02.037 0 .059-.02.02-.022.02-.06t-.02-.06q-.022-.02-.059-.02-.036 0-.058.02-.02.022-.02.06z"/></g><g style="line-height:1.25" font-weight="400" font-size="3.219" font-family="sans-serif" letter-spacing="0" word-spacing="0" fill="gray" stroke-width="1.919"><path d="M19.887 270.779h.319v.031h-.134v.247h-.051v-.247h-.134z"/><path d="M20.297 270.952q-.057 0-.078.01-.022.009-.022.032 0 .018.016.029.016.01.044.01.04 0 .062-.02.024-.02.024-.054v-.007zm.092-.014v.119h-.046v-.032q-.016.019-.04.028-.024.009-.058.009-.043 0-.07-.018-.025-.018-.025-.048 0-.035.032-.053.032-.018.096-.018h.065v-.003q0-.024-.021-.037-.021-.013-.06-.013-.024 0-.047.004-.023.005-.044.013v-.031q.026-.008.05-.011.024-.004.046-.004.062 0 .092.024.03.023.03.07zM20.72 270.93v.127h-.046v-.125q0-.03-.015-.044-.016-.015-.047-.015-.038 0-.06.018-.021.017-.021.048v.118h-.047v-.209h.047v.033q.016-.02.039-.029.022-.009.052-.009.049 0 .074.022.025.023.025.066zM20.86 270.789v.06h.095v.026h-.095v.113q0 .025.01.033.009.007.038.007h.047v.029h-.047q-.054 0-.074-.015-.02-.015-.02-.054v-.113h-.035v-.027h.034v-.059zM21.145 270.952q-.056 0-.078.01-.021.009-.021.032 0 .018.016.029.016.01.044.01.039 0 .062-.02.024-.02.024-.054v-.007zm.093-.014v.119h-.046v-.032q-.016.019-.04.028-.024.009-.058.009-.044 0-.07-.018-.025-.018-.025-.048 0-.035.032-.053.032-.018.095-.018h.066v-.003q0-.024-.022-.037-.02-.013-.059-.013-.024 0-.047.004-.023.005-.044.013v-.031q.025-.008.05-.011.023-.004.046-.004.061 0 .092.024.03.023.03.07zM21.33 270.974v-.126h.046v.125q0 .03.015.044.016.015.047.015.038 0 .06-.018.021-.017.021-.048v-.118h.047v.209h-.047v-.032q-.016.018-.039.028-.022.009-.052.009-.048 0-.074-.022-.025-.023-.025-.066zM21.955 270.816l-.07.138h.14zm-.03-.037h.059l.143.278h-.053l-.034-.072h-.17l-.034.072h-.054zM22.116 270.848h.05l.088.175.088-.175h.05l-.106.209h-.063zM22.698 270.944v.017h-.214q.003.035.029.053.026.019.072.019.027 0 .052-.005.025-.005.05-.014v.032q-.025.008-.051.012-.027.004-.054.004-.067 0-.107-.03-.04-.028-.04-.078t.038-.08q.038-.03.101-.03.057 0 .09.026.034.027.034.074zm-.047-.01q0-.028-.021-.045-.021-.017-.055-.017-.04 0-.063.016-.023.017-.026.046z"/></g><g style="line-height:1.25" font-weight="400" font-size="3.219" font-family="sans-serif" letter-spacing="0" word-spacing="0" fill="gray" stroke-width="1.919"><path d="M20.075 272.036l-.144-.278h.053l.12.234.12-.234h.052l-.143.278zM20.417 271.93q-.056 0-.078.01t-.022.033q0 .018.017.029.016.01.044.01.039 0 .062-.02t.023-.054v-.007zm.093-.013v.119h-.047v-.032q-.016.019-.04.028-.023.009-.057.009-.044 0-.07-.018-.025-.018-.025-.048 0-.035.032-.053.032-.018.095-.018h.065v-.003q0-.024-.02-.037-.022-.013-.06-.013-.024 0-.047.004-.023.005-.044.013v-.031q.025-.008.05-.011.023-.004.046-.004.061 0 .091.024.03.023.03.07zM20.606 271.746h.046v.29h-.046zM20.75 271.746h.046v.29h-.047zM21.134 271.923v.017h-.213q.003.035.029.054.026.018.072.018.026 0 .051-.005.026-.005.05-.014v.032q-.025.008-.05.012-.027.004-.054.004-.068 0-.107-.03-.04-.028-.04-.078t.038-.08q.037-.03.1-.03.058 0 .091.026.033.027.033.074zm-.046-.01q0-.028-.022-.045-.02-.017-.055-.017-.039 0-.062.016-.023.017-.027.046zM21.328 272.055q-.02.037-.038.048-.019.012-.05.012h-.037v-.029h.027q.02 0 .03-.007.01-.006.023-.031l.009-.016-.115-.205h.05l.088.163.088-.163h.05zM21.94 271.996v-.075h-.083v-.03h.134v.119q-.03.015-.066.023-.035.008-.076.008-.088 0-.138-.038-.05-.038-.05-.106t.05-.106q.05-.038.138-.038.037 0 .07.006.034.007.062.02v.04q-.029-.017-.06-.026-.032-.01-.067-.01-.07 0-.104.03-.035.028-.035.084 0 .056.035.085.035.028.104.028.027 0 .048-.003.021-.004.038-.011zM22.246 271.86q-.008-.004-.017-.006l-.02-.001q-.04 0-.061.019-.021.018-.021.054v.11h-.047v-.209h.047v.033q.015-.02.038-.029.024-.009.057-.009h.01l.014.002zM22.526 271.923v.017h-.213q.003.035.029.054.026.018.072.018.026 0 .051-.005.026-.005.05-.014v.032q-.025.008-.05.012-.027.004-.054.004-.068 0-.107-.03-.04-.028-.04-.078t.038-.08q.037-.03.1-.03.058 0 .091.026.033.027.033.074zm-.046-.01q0-.028-.022-.045-.02-.017-.055-.017-.039 0-.062.016-.023.017-.027.046zM22.845 271.923v.017h-.214q.003.035.03.054.025.018.071.018.027 0 .052-.005.025-.005.05-.014v.032q-.025.008-.051.012-.026.004-.053.004-.068 0-.108-.03-.04-.028-.04-.078t.038-.08q.038-.03.101-.03.057 0 .09.026.034.027.034.074zm-.047-.01q0-.028-.021-.045-.02-.017-.055-.017-.039 0-.062.016-.024.017-.027.046zM23.156 271.91v.126h-.046v-.125q0-.03-.016-.044-.016-.015-.047-.015-.038 0-.06.018-.02.017-.02.048v.118h-.048v-.209h.047v.033q.017-.02.04-.029.022-.009.051-.009.05 0 .074.022.025.023.025.066zM23.467 271.789v.216h.062q.078 0 .114-.026.036-.026.036-.083 0-.055-.036-.081-.036-.026-.114-.026zm-.051-.031h.105q.11 0 .16.033.052.034.052.105 0 .072-.052.106-.051.034-.16.034h-.105zM23.976 271.86q-.008-.004-.018-.006l-.02-.001q-.04 0-.06.019-.021.018-.021.054v.11h-.047v-.209h.047v.033q.014-.02.038-.029.023-.009.057-.009h.01l.013.002z"/></g><g style="line-height:1.25" font-weight="400" font-size="11.277" font-family="sans-serif" letter-spacing="0" word-spacing="0" fill="#111" stroke-width="1.919"><path d="M9.63 265.671h.2v.866h-.2zM10.23 265.671h.299l.378.59.38-.59h.3v.866h-.196v-.76l-.382.594h-.202l-.382-.594v.76h-.195zM12.187 265.767v.326h.252q.14 0 .216-.042.077-.043.077-.121t-.077-.12q-.076-.043-.216-.043zm-.201-.096h.453q.25 0 .376.066.128.066.128.193 0 .128-.128.194-.127.065-.376.065h-.252v.348h-.201zM13.917 266.131q.064.013.125.055.061.041.123.115l.204.236h-.216l-.19-.222q-.073-.087-.143-.115-.068-.029-.187-.029h-.219v.366h-.2v-.866h.452q.255 0 .38.062t.125.188q0 .081-.066.135-.064.054-.188.075zm-.503-.364v.308h.252q.145 0 .219-.039.074-.04.074-.115 0-.076-.074-.115-.074-.039-.219-.039zM14.628 265.671h.937v.099h-.737v.256h.707v.099h-.707v.314h.755v.098h-.955zM16.804 265.7v.114q-.114-.032-.216-.048-.1-.015-.195-.015-.164 0-.254.037-.088.037-.088.105 0 .058.059.087.06.03.224.047l.121.015q.225.025.331.088.107.063.107.168 0 .126-.145.191-.144.065-.423.065-.105 0-.224-.014-.118-.014-.246-.041v-.12q.123.04.24.06.117.02.23.02.172 0 .265-.04.094-.039.094-.112 0-.064-.068-.1-.066-.036-.22-.054l-.121-.014q-.225-.026-.325-.082-.1-.055-.1-.154 0-.115.138-.181.139-.067.382-.067.104 0 .212.011.109.011.222.033zM18.095 265.7v.114q-.114-.032-.215-.048-.102-.015-.196-.015-.164 0-.253.037t-.089.105q0 .058.059.087.06.03.224.047l.121.015q.225.025.331.088.107.063.107.168 0 .126-.145.191-.144.065-.423.065-.105 0-.224-.014-.118-.014-.245-.041v-.12q.122.04.239.06.117.02.23.02.172 0 .266-.04.093-.039.093-.112 0-.064-.068-.1-.066-.036-.22-.054l-.121-.014q-.225-.026-.325-.082-.1-.055-.1-.154 0-.115.138-.181.139-.067.382-.067.104 0 .213.011.108.011.221.033z"/></g></g></svg>