<svg xmlns="http://www.w3.org/2000/svg" width="128" height="128" viewBox="0 0 33.866666 33.866668"><g stroke-width="1.099"><g opacity=".25" stroke-width=".084"><path d="M1.827 4.95A1.449 1.449 0 0 0 .618 6.609l2.04 12.885 28.7-4.546-2.04-12.885A1.448 1.448 0 0 0 27.657.858z"/><path d="M14.756 3.015l2.25 14.207 14.352-2.274-2.023-12.774A1.448 1.448 0 0 0 27.674.969z" stroke-width=".317"/><path d="M32.19 29.492a1.449 1.449 0 0 0 1.21-1.659l-2.041-12.885-28.7 4.546 2.04 12.885c.126.793.866 1.33 1.661 1.205z"/><path d="M2.659 19.494l14.244-2.256 2.267 14.314-12.809 2.03A1.448 1.448 0 0 1 4.7 32.377z"/></g><g stroke="#666" stroke-width=".084"><path d="M95.333 160.435a.608.608 0 0 0-.609.608v5.48h12.171v-5.48a.607.607 0 0 0-.608-.608z" fill="#e7e8e9" transform="matrix(2.3581 -.3735 .37248 2.35187 -282.811 -337.24)"/><path d="M381.008 606.545v22.83h23.004v-20.53c0-1.274-1.025-2.3-2.3-2.3z" transform="matrix(.62391 -.09882 .09855 .62227 -282.811 -337.24)" fill="#838383" stroke-width=".317"/><path d="M106.286 172.61a.608.608 0 0 0 .609-.61v-5.478h-12.17v5.479c0 .337.27.609.607.609z" fill="#e8e8e8" transform="matrix(2.3581 -.3735 .37248 2.35187 -282.811 -337.24)"/><path d="M94.724 166.522h6.04v6.087h-5.431a.607.607 0 0 1-.609-.609z" fill="#838383" transform="matrix(2.3581 -.3735 .37248 2.35187 -282.811 -337.24)"/></g><path d="M23.418 22.996l-.058.01-.033-.21a.49.49 0 0 0-.562-.406l-.227.035c-.073-.28-.13-.56-.113-.835.076-1.218.213-2.435.397-3.64.303-1.982.367-3.926-.542-5.79-1.015-2.082-2.588-3.425-4.95-3.742-.164-.022-.347-.142-.458-.27-.402-.464-.834-.88-1.48-1.217.014.259.01.426.034.59.036.241.084.482.144.72.082.33.01.547-.356.636-.205.05-.396.159-.583.237.119.752.119.752-.52 1.137-.21.126-.437.232-.625.386a1.877 1.877 0 0 0-.38.46c-.246.39-.433.822-.715 1.18a41.784 41.784 0 0 1-1.774 2.087c-.264.293-.458.551-.24.959.064.118.03.292.026.44-.014.459.49 1.163.932 1.297 1.049.316 1.795.065 2.443-.836.305-.425.68-.633 1.224-.537.746.132 1.498.198 2.312-.134-.14.202-.22.324-.306.442-.81 1.133-1.585 2.289-2.104 3.59-.412 1.034-.714 2.1-.517 3.222.05.294.13.583.22.874l-.097.015a.49.49 0 0 0-.41.561l.034.208-.057.01a.556.556 0 0 0-.463.635l.343 2.165 10.44-1.655-.342-2.165a.555.555 0 0 0-.636-.459z" fill="#171717" stroke-width=".349"/></g></svg>