<svg xmlns="http://www.w3.org/2000/svg" xmlns:xlink="http://www.w3.org/1999/xlink" width="128" height="128" viewBox="0 0 128 128"><defs><linearGradient id="b"><stop offset="0" stop-color="#ff4777"/><stop offset="1" stop-color="#f75e67"/></linearGradient><linearGradient id="a"><stop offset="0" stop-color="#be3467"/><stop offset="1" stop-color="#ee5f82"/></linearGradient><linearGradient xlink:href="#a" id="c" x1="-741.832" y1="959.047" x2="-741.832" y2="93.836" gradientUnits="userSpaceOnUse" gradientTransform="matrix(.13668 0 0 .13668 162.312 -5.99)"/><linearGradient xlink:href="#b" id="d" x1="-738.764" y1="931.434" x2="-738.764" y2="152.131" gradientUnits="userSpaceOnUse" gradientTransform="matrix(.13668 0 0 .13668 162.312 -5.99)"/></defs><circle cx="63.592" cy="64.286" r="61.38" fill="url(#c)" stroke-width=".787" stroke-linecap="round" stroke-linejoin="round"/><circle r="55.09" cy="64.286" cx="63.592" opacity=".8" fill="url(#d)" stroke-width=".706" stroke-linecap="round" stroke-linejoin="round"/><path d="M89.821 27.018c-1 6.166-4.035 11.794-8.595 15.942a31.845 31.845 0 0 0-17.635-5.295 31.859 31.859 0 0 0-17.648 5.298c-4.522-4.104-7.548-9.665-8.582-15.768a27.997 27.997 0 0 0-.39 4.461 27.818 27.818 0 0 0 4.398 15c-5.992 5.8-9.721 13.916-9.721 22.954 0 17.697 14.246 31.945 31.943 31.945 17.696 0 31.945-14.248 31.945-31.945 0-9.035-3.73-17.15-9.717-22.949a27.819 27.819 0 0 0 4.004-19.642zm-35.608 46.96l6.714 3.618c-1.567 2.532-4.081 4.236-6.884 4.948-.98-2.633-1.665-6.189.17-8.565zm-.17 8.566c-2.621.487-6.208.291-8.704-1.054-5.457-2.939-7.328-9.45-4.178-14.542l9.283 5c-.48 3.84 1.29 7.249 3.599 10.596zm31.974-15.596C89.168 72.04 87.3 78.55 81.841 81.49c-2.697 1.454-5.766 1.759-8.561 1.085 2.57-2.823 3.996-7.181 3.476-10.636-10.58 5.697 7.407-3.992 9.261-4.991zm-13.033 7.02c1.386 2.837 1.618 5.866.195 8.585-2.82-.705-5.352-2.412-6.927-4.957z" fill="#fff" stroke-width=".244"/></svg>