<svg xmlns="http://www.w3.org/2000/svg" xmlns:xlink="http://www.w3.org/1999/xlink" width="128" height="128" viewBox="0 0 33.866666 33.866668"><defs><linearGradient id="i"><stop offset="0" stop-color="#fcedf5" stop-opacity=".408"/><stop offset="1" stop-color="#fcedf5" stop-opacity="0"/></linearGradient><linearGradient id="h"><stop offset="0" stop-color="#e3188d" stop-opacity="0"/><stop offset=".349" stop-color="#e3188d" stop-opacity=".251"/><stop offset=".464" stop-color="#de2b92" stop-opacity=".667"/><stop offset=".61" stop-color="#db3b97"/><stop offset=".76" stop-color="#dc3394" stop-opacity=".776"/><stop offset="1" stop-color="#e3188d" stop-opacity="0"/></linearGradient><linearGradient id="g"><stop offset="0" stop-color="#8f4b6d"/><stop offset="1" stop-color="#3b1827"/></linearGradient><linearGradient id="f"><stop offset="0" stop-color="#532f44"/><stop offset=".098" stop-color="#543145"/><stop offset=".122" stop-color="#8e6880"/><stop offset=".341" stop-color="#754d5f"/><stop offset=".357" stop-color="#58304a"/><stop offset=".369" stop-color="#824575"/><stop offset="1" stop-color="#614359"/></linearGradient><linearGradient id="e"><stop offset="0" stop-color="#5a283d"/><stop offset=".494" stop-color="#5a3649"/><stop offset="1" stop-color="#4f2437"/></linearGradient><linearGradient id="d"><stop offset="0" stop-color="#ffa5d1"/><stop offset=".038" stop-color="#fe88ce"/><stop offset="1" stop-color="#fe2f75"/></linearGradient><linearGradient id="c"><stop offset="0" stop-color="#7b4d74"/><stop offset="1" stop-color="#3c1e2f"/></linearGradient><linearGradient id="b"><stop offset="0" stop-color="#918a98"/><stop offset="1" stop-color="#656268"/></linearGradient><linearGradient id="a"><stop offset="0" stop-color="#e4dee7"/><stop offset=".187" stop-color="#dcd5e1"/><stop offset=".433" stop-color="#b3afb9"/><stop offset=".546" stop-color="#9d97a4"/><stop offset=".694" stop-color="#9893a0"/><stop offset=".818" stop-color="#888191"/><stop offset="1" stop-color="#736b77"/></linearGradient><linearGradient xlink:href="#a" id="k" x1="-146.654" y1="195.586" x2="-146.654" y2="157.633" gradientUnits="userSpaceOnUse"/><linearGradient xlink:href="#b" id="j" x1="-149.661" y1="195.404" x2="-149.661" y2="197.122" gradientUnits="userSpaceOnUse"/><linearGradient xlink:href="#c" id="l" x1="44.171" y1="13.358" x2="44.171" y2="154.969" gradientUnits="userSpaceOnUse"/><linearGradient xlink:href="#d" id="m" x1="37.639" y1="15.912" x2="37.639" y2="150.341" gradientUnits="userSpaceOnUse"/><linearGradient xlink:href="#e" id="p" x1="-194.598" y1="78.258" x2="-188.214" y2="78.258" gradientUnits="userSpaceOnUse" gradientTransform="rotate(-14.754 -35.935 -1150.59)"/><linearGradient xlink:href="#f" id="r" x1="-170.806" y1="19.461" x2="-88.308" y2="82.86" gradientUnits="userSpaceOnUse"/><linearGradient xlink:href="#g" id="q" x1="-173.099" y1="22.09" x2="-91.983" y2="80.407" gradientUnits="userSpaceOnUse"/><linearGradient xlink:href="#h" id="o" x1="-202.296" y1="58.502" x2="-193.889" y2="48.214" gradientUnits="userSpaceOnUse" gradientTransform="translate(283.407 .276)"/><linearGradient xlink:href="#i" id="n" x1="700.675" y1="348.004" x2="15.523" y2="386.389" gradientUnits="userSpaceOnUse"/></defs><g stroke-width=".529" stroke-linecap="round" stroke-linejoin="round" stroke-opacity=".851"><path d="M12.247 31.206c-.53.673-1.038 1.184-1.03 1.51.007.293.283.689.577.689h10.543c.294 0 .523-.405.53-.699.008-.325-.5-.837-1.03-1.51z" fill-opacity=".162" paint-order="fill markers stroke"/><path d="M-181.878 181.648c-3.769 4.796-7.397 8.44-7.338 10.758.053 2.091 2.018 4.912 4.11 4.912H-109.98c2.092 0 3.722-2.888 3.775-4.978.06-2.32-3.569-5.963-7.337-10.759z" fill="url(#j)" paint-order="fill markers stroke" transform="translate(37.772 5.614) scale(.14034)"/><path d="M12.247 31.385c-.53.673-1.038 1.184-1.03 1.51.007.293.283.689.577.689h10.543c.294 0 .523-.405.53-.699.008-.325-.5-.836-1.03-1.51z" fill-opacity=".037" paint-order="fill markers stroke"/><path d="M12.247 31.282c-.53.673-1.038 1.184-1.03 1.51.007.293.283.689.577.689h10.543c.294 0 .523-.405.53-.699.008-.325-.5-.837-1.03-1.51z" fill-opacity=".047" paint-order="fill markers stroke"/><path d="M-148.445 156.102v.015l-21.164.181c-2.092.018-3.953 1.692-3.775 3.776.986 11.557-3.818 15.38-8.16 20.906-3.769 4.796-7.397 8.439-7.338 10.758.054 2.091 1.684 3.776 3.776 3.776H-109.98c2.092 0 3.722-1.685 3.775-3.776.06-2.32-3.569-5.962-7.337-10.758-4.342-5.526-9.146-9.349-8.16-20.906.178-2.084-1.683-3.758-3.775-3.776l-21.164-.18v-.016l-.903.008z" fill="url(#k)" paint-order="fill markers stroke" transform="translate(37.772 5.614) scale(.14034)"/></g><path d="M5.425 7.068h23.26c2.143 0 3.093 1.03 3.394 3.394l1.779 13.98c.237 1.866-1.514 3.395-3.394 3.395H3.62c-1.88 0-3.635-1.53-3.394-3.394l1.803-13.98C2.33 8.15 3.057 7.067 5.425 7.067z" fill="#8c7a93" stroke-width=".529" stroke-linecap="round" stroke-linejoin="round" stroke-opacity=".851" paint-order="fill markers stroke"/><path d="M-36.668 11.426H129.07c15.27 0 22.025 7.343 24.186 24.186l12.298 95.839c1.543 12.031-8.142 24.186-23.809 24.186H-49.519c-19.814 0-25.079-17.53-24.186-24.186l12.85-95.84c2.209-16.466 7.313-24.185 24.187-24.185z" fill="url(#l)" stroke-width=".529" stroke-linecap="round" stroke-linejoin="round" stroke-opacity=".851" paint-order="fill markers stroke" transform="translate(10.57 5.464) scale(.14034)"/><path d="M-32.705 15.961h157.423c16.873 0 21.538 3.233 24.186 24.186l10.96 86.752c2.199 17.396-6.804 24.186-22.47 24.186h-182.95c-19.814 0-23.966-11.144-22.315-24.186l10.98-86.752c2.173-17.165 4.907-24.186 24.186-24.186z" fill="url(#m)" stroke-width=".529" stroke-linecap="round" stroke-linejoin="round" stroke-opacity=".851" paint-order="fill markers stroke" transform="translate(10.57 5.464) scale(.14034)"/><path d="M-123.61 60.326c225.067 59.24 405.539 74.396 544.003 35.73l130.23 421.764c-110.713 23.568-222.926 45.456-335.92 53.211h304.578c59.214 0 93.24-25.665 84.932-91.412l-41.428-327.88c-10.006-79.196-27.638-91.413-91.412-91.413zm174.118 510.65l.013.055h.729c-.247-.019-.495-.035-.742-.054z" transform="translate(10.57 5.464) scale(.03713)" fill="url(#n)"/><path d="M26.695 25.73L129.86 95.487l1.87-15.635-82.986-66.817-7.083 6.013z" opacity=".399" fill="url(#o)" stroke-width=".265" transform="translate(10.57 5.464) scale(.14034)"/><path d="M111.229 25.415l3.307-.871a1.478 1.478 0 0 1 1.81 1.055l29.34 111.408-6.173 1.625-29.34-111.407a1.478 1.478 0 0 1 1.056-1.81z" fill="url(#p)" stroke-width=".529" stroke-linecap="round" stroke-linejoin="round" stroke-opacity=".851" paint-order="fill markers stroke" transform="translate(10.57 5.464) scale(.14034)"/><path d="M17.412 7.295a.464.464 0 0 1-.464.464.464.464 0 0 1-.465-.463.464.464 0 0 1 .463-.465.464.464 0 0 1 .466.463" fill="#9893a0" stroke-width=".501" stroke-linecap="round" stroke-linejoin="round" stroke-opacity=".851" paint-order="fill markers stroke"/><path d="M16.797 7.063h.122c.218 0 .393.176.393.394v.817c-.324.222-.727.041-.908-.14v-.677c0-.218.175-.394.393-.394z" fill="#ab5b7e" stroke-width=".529" stroke-linecap="round" stroke-linejoin="round" stroke-opacity=".851" paint-order="fill markers stroke"/><g stroke-width=".265"><path d="M-170.004 18.258c-3.505-2.946-6.895 1.25-4.03 4.467l9.38 6.292 22.578 13.269 50.484 40.683c1.061.963 2.387 1.032 3.078.272l.004-.005c.688-.764-.04-2.02-1.103-2.982l-1.55-1.447-44.932-37.94c-1.26-1.113-5.284-3.82-6.561-4.534l-18.467-11.17z" fill="url(#q)" transform="translate(40.979 4.532) scale(.14034)"/><path d="M-169.068 17.055c-4.794-2.73-7.644 3.16-4.03 5.035l9.38 6.291 22.389 12.985 50.153 41.393c1.061.963 2.386 1.032 3.078.271l.004-.005c.687-.764-.041-2.02-1.103-2.982l-1.55-1.446-44.412-38.932c-1.26-1.114-5.284-3.82-6.562-4.535l-18.466-11.17z" fill="url(#r)" transform="translate(40.979 4.532) scale(.14034)"/></g></svg>