<svg xmlns="http://www.w3.org/2000/svg" xmlns:xlink="http://www.w3.org/1999/xlink" width="128" height="128" viewBox="0 0 128 128"><defs><linearGradient id="c"><stop offset="0" stop-color="#05e4b9" stop-opacity=".121"/><stop offset="1" stop-color="#53cdfc" stop-opacity=".06"/></linearGradient><linearGradient id="b"><stop offset="0" stop-color="#0cddb5"/><stop offset="1" stop-color="#50c0ff"/></linearGradient><linearGradient id="a"><stop offset="0" stop-color="#e2e2e4"/><stop offset="1" stop-color="#f7f9f9"/></linearGradient><linearGradient xlink:href="#a" id="d" x1="701.81" y1="398.371" x2="699.275" y2="220.527" gradientUnits="userSpaceOnUse" gradientTransform="translate(-399.671 -144.993) scale(.66355)"/><linearGradient xlink:href="#b" id="p" x1="47.537" y1="19.187" x2="88.25" y2="116.893" gradientUnits="userSpaceOnUse"/><linearGradient xlink:href="#c" id="o" x1="39.111" y1="20.849" x2="88.566" y2="102.534" gradientUnits="userSpaceOnUse" gradientTransform="translate(94.542 -5.314)"/><linearGradient xlink:href="#c" id="e" gradientUnits="userSpaceOnUse" gradientTransform="translate(94.542 -5.314)" x1="39.111" y1="20.849" x2="88.566" y2="102.534"/><linearGradient xlink:href="#c" id="f" gradientUnits="userSpaceOnUse" gradientTransform="translate(94.542 -5.314)" x1="39.111" y1="20.849" x2="88.566" y2="102.534"/><linearGradient xlink:href="#c" id="g" gradientUnits="userSpaceOnUse" gradientTransform="translate(94.542 -5.314)" x1="39.111" y1="20.849" x2="88.566" y2="102.534"/><linearGradient xlink:href="#c" id="h" gradientUnits="userSpaceOnUse" gradientTransform="translate(94.542 -5.314)" x1="39.111" y1="20.849" x2="88.566" y2="102.534"/><linearGradient xlink:href="#c" id="i" gradientUnits="userSpaceOnUse" gradientTransform="translate(94.542 -5.314)" x1="39.111" y1="20.849" x2="88.566" y2="102.534"/><linearGradient xlink:href="#c" id="j" gradientUnits="userSpaceOnUse" gradientTransform="translate(94.542 -5.314)" x1="39.111" y1="20.849" x2="88.566" y2="102.534"/><linearGradient xlink:href="#c" id="k" gradientUnits="userSpaceOnUse" gradientTransform="translate(94.542 -5.314)" x1="39.111" y1="20.849" x2="88.566" y2="102.534"/><linearGradient xlink:href="#c" id="l" gradientUnits="userSpaceOnUse" gradientTransform="translate(94.542 -5.314)" x1="39.111" y1="20.849" x2="88.566" y2="102.534"/><linearGradient xlink:href="#c" id="m" gradientUnits="userSpaceOnUse" gradientTransform="translate(94.542 -5.314)" x1="39.111" y1="20.849" x2="88.566" y2="102.534"/><linearGradient xlink:href="#c" id="n" gradientUnits="userSpaceOnUse" gradientTransform="translate(94.542 -5.314)" x1="39.111" y1="20.849" x2="88.566" y2="102.534"/></defs><path style="line-height:normal;font-variant-ligatures:normal;font-variant-position:normal;font-variant-caps:normal;font-variant-numeric:normal;font-variant-alternates:normal;font-feature-settings:normal;text-indent:0;text-align:start;text-decoration-line:none;text-decoration-style:solid;text-decoration-color:#000;text-transform:none;text-orientation:mixed;shape-padding:0;isolation:auto;mix-blend-mode:normal" d="M64.334 1.339c-34.705 0-62.889 28.182-62.889 62.887 0 34.704 28.184 62.888 62.889 62.888 34.704 0 62.887-28.184 62.887-62.888 0-34.705-28.183-62.887-62.887-62.887z" color="#000" font-weight="400" font-family="sans-serif" white-space="normal" overflow="visible" fill="url(#d)" stroke-width="4.645"/><g opacity=".316" fill="none" stroke-linecap="round" stroke-linejoin="round"><path d="M143.64 37.819v25.61h-11.45l26.683 27.764 26.688-27.763h-11.452V37.819z" stroke="url(#e)" transform="translate(-94.542 5.314)"/><path d="M143.64 37.819v25.61h-11.45l26.683 27.764 26.688-27.763h-11.452V37.819z" stroke="url(#f)" stroke-width="1.5" transform="translate(-94.542 5.314)"/><path d="M143.64 37.819v25.61h-11.45l26.683 27.764 26.688-27.763h-11.452V37.819z" stroke="url(#g)" stroke-width="2" transform="translate(-94.542 5.314)"/><path d="M143.64 37.819v25.61h-11.45l26.683 27.764 26.688-27.763h-11.452V37.819z" stroke="url(#h)" stroke-width="2.5" transform="translate(-94.542 5.314)"/><path d="M143.64 37.819v25.61h-11.45l26.683 27.764 26.688-27.763h-11.452V37.819z" stroke="url(#i)" stroke-width="3" transform="translate(-94.542 5.314)"/><path d="M143.64 37.819v25.61h-11.45l26.683 27.764 26.688-27.763h-11.452V37.819z" stroke="url(#j)" stroke-width="4" transform="translate(-94.542 5.314)"/><path d="M143.64 37.819v25.61h-11.45l26.683 27.764 26.688-27.763h-11.452V37.819z" stroke="url(#k)" stroke-width="5" transform="translate(-94.542 5.314)"/><path d="M143.64 37.819v25.61h-11.45l26.683 27.764 26.688-27.763h-11.452V37.819z" stroke="url(#l)" stroke-width="6" transform="translate(-94.542 5.314)"/><path d="M143.64 37.819v25.61h-11.45l26.683 27.764 26.688-27.763h-11.452V37.819z" stroke="url(#m)" stroke-width="7" transform="translate(-94.542 5.314)"/><path d="M143.64 37.819v25.61h-11.45l26.683 27.764 26.688-27.763h-11.452V37.819z" stroke="url(#n)" stroke-width="9" transform="translate(-94.542 5.314)"/><path d="M143.64 37.819v25.61h-11.45l26.683 27.764 26.688-27.763h-11.452V37.819z" stroke="url(#o)" stroke-width="11" transform="translate(-94.542 5.314)"/></g><path d="M49.099 43.133v25.611H37.647l26.684 27.763L91.02 68.744H79.567v-25.61z" fill="url(#p)" stroke-width="11.851" stroke-linecap="square" stroke-linejoin="bevel"/></svg>