<svg xmlns="http://www.w3.org/2000/svg" xmlns:xlink="http://www.w3.org/1999/xlink" width="128" height="128" viewBox="0 0 128 128"><defs><linearGradient id="b"><stop offset="0" stop-color="#1c65ff"/><stop offset="1" stop-color="#4acfff"/></linearGradient><linearGradient id="a"><stop offset="0" stop-color="#cccdd1"/><stop offset="1" stop-color="#f7f9f9"/></linearGradient><linearGradient xlink:href="#a" id="e" x1="701.81" y1="398.371" x2="699.275" y2="220.527" gradientUnits="userSpaceOnUse" gradientTransform="translate(-399.671 -144.993) scale(.66355)"/><linearGradient xlink:href="#b" id="d" x1="66.517" y1="120.595" x2="64.334" y2="5.983" gradientUnits="userSpaceOnUse"/><linearGradient id="c"><stop offset="0" stop-color="#0068e0"/><stop offset="1" stop-color="#00acf4"/></linearGradient></defs><circle cx="64.333" cy="64.226" r="60.566" fill="url(#d)" stroke="#cccdd1" stroke-width="4.645"/><path style="line-height:normal;font-variant-ligatures:normal;font-variant-position:normal;font-variant-caps:normal;font-variant-numeric:normal;font-variant-alternates:normal;font-feature-settings:normal;text-indent:0;text-align:start;text-decoration-line:none;text-decoration-style:solid;text-decoration-color:#000;text-transform:none;text-orientation:mixed;shape-padding:0;isolation:auto;mix-blend-mode:normal" d="M64.334 1.339c-34.705 0-62.889 28.182-62.889 62.887 0 34.704 28.184 62.888 62.889 62.888 34.704 0 62.887-28.184 62.887-62.888 0-34.705-28.183-62.887-62.887-62.887zm0 4.644c32.194 0 58.242 26.048 58.242 58.243 0 32.194-26.048 58.243-58.242 58.243-32.195 0-58.244-26.05-58.244-58.243 0-32.195 26.05-58.243 58.244-58.243z" color="#000" font-weight="400" font-family="sans-serif" white-space="normal" overflow="visible" fill="url(#e)" stroke-width="4.645"/><path d="M78.87 42.72c-38.35.077-33.766 56.964-55.668 44.873 1.108 4.41 4.974 6.535 10.45 7.328 2.127-4.263 4.592-10.038 11.417-10.052 1.958-.004 4.275.467 7.044 1.584-5.567-.7-7.274 4.423-6.56 8.618 1.344-.097 2.713-.216 4.114-.36 2.72-5.476 6.087-13.207 18.359-8.258-4.773-.6-6.706 3.08-6.71 6.787 1.797-.251 3.592-.499 5.386-.746 2.634-5.055 6.564-10.345 17.236-6.041-3.871-.487-5.874 1.845-6.496 4.721 4.22-.413 8.201-.63 11.72-.464-13.423-7.488-14.528-46.284 12.286-42.913-8.878-3.58-16.303-5.09-22.578-5.077z" fill="#fff" stroke-width=".404"/></svg>