<svg xmlns="http://www.w3.org/2000/svg" xmlns:xlink="http://www.w3.org/1999/xlink" width="128" height="128" viewBox="0 0 33.866666 33.866668"><defs><linearGradient id="h"><stop offset="0" stop-color="#e4e4e4"/><stop offset="1" stop-color="#ececec" stop-opacity="0"/></linearGradient><linearGradient id="i"><stop offset="0" stop-color="#3c6df5"/><stop offset="1" stop-color="#3fa8fa"/></linearGradient><linearGradient id="g"><stop offset="0"/><stop offset="1" stop-opacity="0"/></linearGradient><linearGradient id="f"><stop offset="0" stop-color="#e2e2e2" stop-opacity=".992"/><stop offset=".07" stop-color="#d7d7d7" stop-opacity=".992"/><stop offset="1" stop-color="#ebebeb"/></linearGradient><linearGradient id="a"><stop offset="0" stop-color="#0068e0"/><stop offset="1" stop-color="#00acf4"/></linearGradient><filter y="0%" x="0%" height="100%" width="100%" id="b"><feColorMatrix values="0 0 0 0 1 0 0 0 0 1 0 0 0 0 1 0 0 0 1 0" in="SourceGraphic"/></filter><clipPath id="c"><path d="M0 0h384v384H0z"/></clipPath><clipPath id="d"><path d="M0 0h384v384H0z"/></clipPath><linearGradient gradientTransform="matrix(.26458 0 0 .26458 -70.665 275.532)" xlink:href="#e" id="n" gradientUnits="userSpaceOnUse" x1="122.341" y1="117.042" x2="84.091" y2="71.02"/><linearGradient id="e"><stop offset="0" stop-color="#d5dada"/><stop offset="1" stop-color="#f1f1f1"/></linearGradient><linearGradient xlink:href="#f" id="j" x1="54.052" y1="47.929" x2="51.259" y2="30.072" gradientUnits="userSpaceOnUse" gradientTransform="matrix(.25946 0 0 .25946 .394 263.372)"/><linearGradient xlink:href="#g" id="m" x1="13.826" y1="272.373" x2="14.541" y2="277.004" gradientUnits="userSpaceOnUse" gradientTransform="matrix(3.77953 0 0 3.77953 0 -994.52)"/><linearGradient xlink:href="#h" id="l" gradientUnits="userSpaceOnUse" x1="-8.314" y1="291.018" x2="-9.323" y2="312.804" gradientTransform="rotate(-7.983 -5652.696 -10.412) scale(2.92625)"/><linearGradient xlink:href="#i" id="k" x1="20.631" y1="292.555" x2="17.722" y2="273.774" gradientUnits="userSpaceOnUse"/></defs><g fill="none" stroke="#000" stroke-linejoin="bevel" stroke-opacity=".008"><path d="M29.024 5.566c-.065-.003-.131 0-.199.01L1.773 9.637a.98.98 0 0 0-.826 1.118l.574 3.82 2.45 16.323a.98.98 0 0 0 1.118.826l27.052-4.062a.98.98 0 0 0 .826-1.113v-.005L29.943 6.401a.991.991 0 0 0-.046-.182l-.014-.03-.01-.025a.976.976 0 0 0-.054-.112c-.011-.019-.024-.036-.036-.054a.971.971 0 0 0-.343-.312l-.039-.02-.03-.016a.985.985 0 0 0-.103-.037l-.039-.012-.025-.008a.97.97 0 0 0-.18-.027z" stroke-width=".19612400000000002"/><path d="M29.024 5.566c-.065-.003-.131 0-.199.01L1.773 9.637a.98.98 0 0 0-.826 1.118l.574 3.82 2.45 16.323a.98.98 0 0 0 1.118.826l27.052-4.062a.98.98 0 0 0 .826-1.113v-.005L29.943 6.401a.991.991 0 0 0-.046-.182l-.014-.03-.01-.025a.976.976 0 0 0-.054-.112c-.011-.019-.024-.036-.036-.054a.971.971 0 0 0-.343-.312l-.039-.02-.03-.016a.985.985 0 0 0-.103-.037l-.039-.012-.025-.008a.97.97 0 0 0-.18-.027z" stroke-width=".39224800000000004"/><path d="M29.024 5.566c-.065-.003-.131 0-.199.01L1.773 9.637a.98.98 0 0 0-.826 1.118l.574 3.82 2.45 16.323a.98.98 0 0 0 1.118.826l27.052-4.062a.98.98 0 0 0 .826-1.113v-.005L29.943 6.401a.991.991 0 0 0-.046-.182l-.014-.03-.01-.025a.976.976 0 0 0-.054-.112c-.011-.019-.024-.036-.036-.054a.971.971 0 0 0-.343-.312l-.039-.02-.03-.016a.985.985 0 0 0-.103-.037l-.039-.012-.025-.008a.97.97 0 0 0-.18-.027z" stroke-width=".588372"/><path d="M29.024 5.566c-.065-.003-.131 0-.199.01L1.773 9.637a.98.98 0 0 0-.826 1.118l.574 3.82 2.45 16.323a.98.98 0 0 0 1.118.826l27.052-4.062a.98.98 0 0 0 .826-1.113v-.005L29.943 6.401a.991.991 0 0 0-.046-.182l-.014-.03-.01-.025a.976.976 0 0 0-.054-.112c-.011-.019-.024-.036-.036-.054a.971.971 0 0 0-.343-.312l-.039-.02-.03-.016a.985.985 0 0 0-.103-.037l-.039-.012-.025-.008a.97.97 0 0 0-.18-.027z" stroke-width=".7844960000000001"/><path d="M29.024 5.566c-.065-.003-.131 0-.199.01L1.773 9.637a.98.98 0 0 0-.826 1.118l.574 3.82 2.45 16.323a.98.98 0 0 0 1.118.826l27.052-4.062a.98.98 0 0 0 .826-1.113v-.005L29.943 6.401a.991.991 0 0 0-.046-.182l-.014-.03-.01-.025a.976.976 0 0 0-.054-.112c-.011-.019-.024-.036-.036-.054a.971.971 0 0 0-.343-.312l-.039-.02-.03-.016a.985.985 0 0 0-.103-.037l-.039-.012-.025-.008a.97.97 0 0 0-.18-.027z" stroke-width=".98062"/><path d="M29.024 5.566c-.065-.003-.131 0-.199.01L1.773 9.637a.98.98 0 0 0-.826 1.118l.574 3.82 2.45 16.323a.98.98 0 0 0 1.118.826l27.052-4.062a.98.98 0 0 0 .826-1.113v-.005L29.943 6.401a.991.991 0 0 0-.046-.182l-.014-.03-.01-.025a.976.976 0 0 0-.054-.112c-.011-.019-.024-.036-.036-.054a.971.971 0 0 0-.343-.312l-.039-.02-.03-.016a.985.985 0 0 0-.103-.037l-.039-.012-.025-.008a.97.97 0 0 0-.18-.027z" stroke-width="1.176744"/><path d="M29.024 5.566c-.065-.003-.131 0-.199.01L1.773 9.637a.98.98 0 0 0-.826 1.118l.574 3.82 2.45 16.323a.98.98 0 0 0 1.118.826l27.052-4.062a.98.98 0 0 0 .826-1.113v-.005L29.943 6.401a.991.991 0 0 0-.046-.182l-.014-.03-.01-.025a.976.976 0 0 0-.054-.112c-.011-.019-.024-.036-.036-.054a.971.971 0 0 0-.343-.312l-.039-.02-.03-.016a.985.985 0 0 0-.103-.037l-.039-.012-.025-.008a.97.97 0 0 0-.18-.027z" stroke-width="1.372868"/><path d="M29.024 5.566c-.065-.003-.131 0-.199.01L1.773 9.637a.98.98 0 0 0-.826 1.118l.574 3.82 2.45 16.323a.98.98 0 0 0 1.118.826l27.052-4.062a.98.98 0 0 0 .826-1.113v-.005L29.943 6.401a.991.991 0 0 0-.046-.182l-.014-.03-.01-.025a.976.976 0 0 0-.054-.112c-.011-.019-.024-.036-.036-.054a.971.971 0 0 0-.343-.312l-.039-.02-.03-.016a.985.985 0 0 0-.103-.037l-.039-.012-.025-.008a.97.97 0 0 0-.18-.027z" stroke-width="1.5689920000000002"/><path d="M29.024 5.566c-.065-.003-.131 0-.199.01L1.773 9.637a.98.98 0 0 0-.826 1.118l.574 3.82 2.45 16.323a.98.98 0 0 0 1.118.826l27.052-4.062a.98.98 0 0 0 .826-1.113v-.005L29.943 6.401a.991.991 0 0 0-.046-.182l-.014-.03-.01-.025a.976.976 0 0 0-.054-.112c-.011-.019-.024-.036-.036-.054a.971.971 0 0 0-.343-.312l-.039-.02-.03-.016a.985.985 0 0 0-.103-.037l-.039-.012-.025-.008a.97.97 0 0 0-.18-.027z" stroke-width="1.7651160000000001"/></g><path d="M29.024 268.7a.995.995 0 0 0-.199.01l-27.052 4.06a.98.98 0 0 0-.826 1.119l.574 3.82 28.995-4.354 2.451 16.328v-.005l-3.024-20.143a.98.98 0 0 0-.919-.836z" fill="url(#j)" stroke-width=".981" stroke-linejoin="bevel" transform="translate(0 -263.133)"/><path d="M29.205 268.727c.021.005.042.013.063.02-.021-.007-.042-.015-.063-.02zm.165.057c.024.01.047.024.07.036-.023-.013-.046-.025-.07-.036zm.16.09zm.137.116zm.116.142c.012.017.025.035.036.053-.011-.018-.024-.036-.036-.053zm.09.166c.008.018.018.036.024.055-.006-.02-.016-.037-.024-.055zm.643 4.056l-28.995 4.354 2.45 16.323a.98.98 0 0 0 1.118.826l27.053-4.061a.98.98 0 0 0 .826-1.114z" fill="url(#k)" stroke-width=".981" stroke-linejoin="bevel" transform="translate(0 -263.133)"/><path style="line-height:1.25;-inkscape-font-specification:'Bitstream Charter';text-align:center" d="M102.895 49.46L69.76 54.108l-.37.497 4.647 33.132.492.375 33.133-4.646.375-.496-4.646-33.133-.496-.375zm-.31.933l4.524 32.261-32.267 4.526-4.524-32.262 32.268-4.525zm-47.163 5.724l-33.133 4.647-.37.496 4.647 33.135.49.375 33.135-4.647.375-.498-4.646-33.133-.498-.375zm-.309.934l4.526 32.261-32.268 4.524-4.523-32.262 32.265-4.523zm27.496 4.113a13.74 13.74 0 0 0-1.332.125l-6.279.883.137.984 1.424-.049.468.286 1.903 13.572-.371.402-1.385.32.14 1.01 6.502-.912c4.187-.587 6.188-2.625 5.752-5.728-.338-2.414-2.2-3.684-5.134-3.297 2.274-.972 3.305-2.4 3.043-4.272-.333-2.37-1.945-3.446-4.868-3.324zm-1.058 1.242c2.1-.07 3.257.778 3.502 2.524.335 2.389-.949 3.625-4.028 4.056a11.95 11.95 0 0 1-.94.106l-.888-6.33c.612-.113 1.075-.225 1.395-.27.338-.047.659-.076.959-.086zm15.693 1.252a5.41 5.41 0 0 0-.974.051c-3.3.463-5.335 3.334-4.813 7.053.508 3.62 3.093 5.745 6.344 5.289 1.551-.218 3.084-.935 4.424-2.127l-.192-1.354c-1.272 1.133-2.434 1.796-3.666 1.97-2.487.348-4.4-1.292-4.842-4.444l-.039-.272 7.98-1.119a8.229 8.229 0 0 0-.081-.767c-.372-2.651-1.953-4.189-4.14-4.28zm-.547 1.172c1.313.055 2.158 1.005 2.403 2.75l.054.395-5.69.798c-.145-2.114 1.065-3.69 2.641-3.912.207-.029.405-.039.592-.03zm-49.404.4a1.51 1.51 0 0 0-.307.012 1.51 1.51 0 0 0-1.298 1.723c.116.833.885 1.388 1.718 1.271.833-.116 1.418-.862 1.301-1.695a1.528 1.528 0 0 0-1.414-1.31zm-10.65 2.444l-6.352.89.146 1.043 1.66-.074.497.301 2.011 14.344-.392.426-1.623.36.15 1.067 12.469-1.748-.664-4.738-1.354.191-.004 3.186-.306.467-5.883.824-2.062-14.707.39-.426 1.463-.363-.146-1.043zm46.974 2.078c2.12-.06 3.288.855 3.563 2.816.349 2.488-1.038 3.711-4.338 4.174-.517.073-1.064.126-1.662.158v-.002l-.922-6.574a24.842 24.842 0 0 1 2.392-.488c.342-.048.664-.076.967-.084zm-34.935 1.144l-.99.14-2.862 1.357.113.806 1.823-.256 1.322 9.424-.385.479-1.361.324.13.935 5.858-.82-.133-.937-1.424.066-.525-.35-1.566-11.168zm13.007 29.92l-33.132 4.647-.37.496 1.731 12.34.865-.131-1.668-11.895 32.268-4.525 1.623 11.582.865-.129-1.684-12.01-.498-.375zm-13.548 10.871l-5.084.713.136.967 1.483.016.496.375.308 2.203 1.305-.195-.306-2.192.375-.498 1.423-.422-.136-.966zm-11.45 1.606l-4.55.637.134.968 1.57-.072.483.28.348 2.478 1.304-.195-.199-1.428 1.15 1.285 2.489-.375-2.645-2.973-.084-.605z" transform="scale(.26458)" font-weight="400" font-size="10.583" font-family="Bitstream Charter" letter-spacing="0" word-spacing="0" text-anchor="middle" fill="url(#l)" stroke-width=".657"/><path style="line-height:normal;font-variant-ligatures:normal;font-variant-position:normal;font-variant-caps:normal;font-variant-numeric:normal;font-variant-alternates:normal;font-feature-settings:normal;text-indent:0;text-align:start;text-decoration-line:none;text-decoration-style:solid;text-decoration-color:#000;text-transform:none;text-orientation:mixed;shape-padding:0;isolation:auto;mix-blend-mode:normal" d="M115.338 38.63L5.748 55.085l1.354 9.02L116.72 47.84l-1.383-9.21z" transform="scale(.26458)" color="#000" font-weight="400" font-family="sans-serif" white-space="normal" overflow="visible" opacity=".572" fill="url(#m)" stroke-width="3.706" stroke-linecap="square" enable-background="accumulate"/><g transform="matrix(.87914 -.13524 .13524 .87914 1.519 -223.445)" stroke-linecap="round" stroke-linejoin="round"><circle r="1.336" cy="261.91" cx="-38.526" fill="#ff2911" stroke-width=".9" paint-order="fill markers stroke"/><circle cx="-34.572" cy="261.91" r="1.336" fill="#f89c22" stroke-width=".9" paint-order="fill markers stroke"/><circle r="1.336" cy="261.91" cx="-30.619" fill="#2ecc3f" stroke-width=".9" paint-order="fill markers stroke"/><path d="M-39.848 261.732a1.336 1.336 0 0 0-.014.178 1.336 1.336 0 0 0 1.336 1.336 1.336 1.336 0 0 0 1.337-1.336 1.336 1.336 0 0 0-.014-.177 1.336 1.336 0 0 1-1.323 1.158 1.336 1.336 0 0 1-1.322-1.159z" fill="#e61700" fill-opacity=".803" stroke-width="3.402" paint-order="fill markers stroke"/><path d="M-38.526 260.574a1.336 1.336 0 0 0-1.336 1.336 1.336 1.336 0 0 0 .016.192 1.336 1.336 0 0 1 1.32-1.146 1.336 1.336 0 0 1 1.321 1.144 1.336 1.336 0 0 0 .016-.19 1.336 1.336 0 0 0-1.337-1.336z" fill="#ff6b5b" fill-opacity=".398" stroke-width="3.402" paint-order="fill markers stroke"/><path d="M-33.25 261.726a1.336 1.336 0 0 1-1.322 1.154 1.336 1.336 0 0 1-1.322-1.153 1.336 1.336 0 0 0-.014.183 1.336 1.336 0 0 0 1.336 1.336 1.336 1.336 0 0 0 1.336-1.336 1.336 1.336 0 0 0-.015-.184z" fill="#ec8a07" stroke-width="3.402" paint-order="fill markers stroke"/><path d="M-34.572 260.574a1.336 1.336 0 0 0-1.336 1.336 1.336 1.336 0 0 0 .011.161 1.336 1.336 0 0 1 1.325-1.17 1.336 1.336 0 0 1 1.324 1.174 1.336 1.336 0 0 0 .012-.165 1.336 1.336 0 0 0-1.336-1.336z" fill="#f9aa42" fill-opacity=".851" stroke-width="3.402" paint-order="fill markers stroke"/><path d="M-29.296 261.732a1.336 1.336 0 0 1-1.323 1.16 1.336 1.336 0 0 1-1.323-1.16 1.336 1.336 0 0 0-.013.178 1.336 1.336 0 0 0 1.336 1.336 1.336 1.336 0 0 0 1.336-1.336 1.336 1.336 0 0 0-.013-.178z" fill="#27ae36" stroke-width="3.402" paint-order="fill markers stroke"/><path d="M-30.619 260.574a1.336 1.336 0 0 0-1.336 1.336 1.336 1.336 0 0 0 .013.177 1.336 1.336 0 0 1 1.323-1.159 1.336 1.336 0 0 1 1.323 1.158 1.336 1.336 0 0 0 .013-.176 1.336 1.336 0 0 0-1.336-1.336z" fill="#50d85f" fill-opacity=".775" stroke-width="3.402" paint-order="fill markers stroke"/></g></svg>