<svg xmlns="http://www.w3.org/2000/svg" xmlns:xlink="http://www.w3.org/1999/xlink" width="128" height="128" viewBox="0 0 128 128"><defs><linearGradient id="j"><stop offset="0" stop-color="#9e0f00"/><stop offset=".2" stop-color="#970e00" stop-opacity=".953"/><stop offset=".514" stop-color="#cf1200" stop-opacity=".98"/><stop offset=".648" stop-color="#d81300" stop-opacity=".988"/><stop offset=".84" stop-color="#dd1400" stop-opacity=".992"/><stop offset="1" stop-color="#e41500"/></linearGradient><linearGradient id="i"><stop offset="0"/><stop offset="1" stop-opacity="0"/></linearGradient><linearGradient id="h"><stop offset="0"/><stop offset="1" stop-opacity="0"/></linearGradient><linearGradient id="g"><stop offset="0"/><stop offset="1" stop-opacity="0"/></linearGradient><linearGradient id="f"><stop offset="0"/><stop offset="1" stop-opacity="0"/></linearGradient><linearGradient id="e"><stop offset="0"/><stop offset="1" stop-opacity="0"/></linearGradient><linearGradient id="d"><stop offset="0"/><stop offset="1" stop-opacity="0"/></linearGradient><linearGradient id="c"><stop offset="0" stop-color="#595854"/><stop offset=".774" stop-color="#4a4944"/><stop offset=".91" stop-color="#3d3c38"/><stop offset="1" stop-color="#272725"/></linearGradient><linearGradient id="b"><stop offset="0" stop-color="#1d79ca"/><stop offset=".188" stop-color="#2a8fde"/><stop offset=".245" stop-color="#2d93e2"/><stop offset=".359" stop-color="#329bea"/><stop offset=".47" stop-color="#36a2f0"/><stop offset=".515" stop-color="#39a6f4"/><stop offset=".565" stop-color="#3ba9f7"/><stop offset=".609" stop-color="#3ba9f7" stop-opacity=".965"/><stop offset=".665" stop-color="#3ba9f7" stop-opacity=".871"/><stop offset="1" stop-color="#3ba9f7" stop-opacity=".446"/></linearGradient><linearGradient id="a"><stop offset="0" stop-color="#fff" stop-opacity="0"/><stop offset=".289" stop-color="#fff" stop-opacity=".835"/><stop offset=".5" stop-color="#fff"/><stop offset=".75" stop-color="#fff" stop-opacity=".834"/><stop offset="1" stop-color="#fff" stop-opacity="0"/></linearGradient><linearGradient xlink:href="#a" id="x" x1="305.662" y1="79.373" x2="497.803" y2="79.373" gradientUnits="userSpaceOnUse" gradientTransform="matrix(.54037 0 0 .65797 -152.493 -13.687)"/><linearGradient xlink:href="#b" id="w" gradientUnits="userSpaceOnUse" x1="407.919" y1="220.226" x2="407.919" y2="85.447" gradientTransform="matrix(.54037 0 0 .54037 -152.493 -4.47)"/><linearGradient xlink:href="#c" id="q" gradientUnits="userSpaceOnUse" gradientTransform="matrix(.54037 0 0 .54037 -83.447 -4.47)" x1="277.343" y1="16.454" x2="277.343" y2="86.485"/><linearGradient xlink:href="#d" id="y" x1="394.307" y1="92.667" x2="394.307" y2="75.334" gradientUnits="userSpaceOnUse" gradientTransform="matrix(.54037 0 0 .54037 -152.493 -4.47)"/><linearGradient xlink:href="#e" id="s" x1="417.154" y1="62.873" x2="423.552" y2="62.784" gradientUnits="userSpaceOnUse"/><radialGradient xlink:href="#f" id="v" cx="418.13" cy="45.528" fx="418.13" fy="45.528" r="5.861" gradientTransform="matrix(.84532 -.01618 .01627 .85038 64.098 11.893)" gradientUnits="userSpaceOnUse"/><linearGradient xlink:href="#g" id="t" x1="-43.955" y1="376.133" x2="-38.899" y2="376.133" gradientUnits="userSpaceOnUse"/><linearGradient xlink:href="#h" id="r" x1="334.355" y1="62.873" x2="327.402" y2="62.873" gradientUnits="userSpaceOnUse"/><radialGradient xlink:href="#i" id="u" cx="334.608" cy="45.008" fx="334.608" fy="45.008" r="5.815" gradientTransform="matrix(1.23914 0 0 .81995 -80.017 6.783)" gradientUnits="userSpaceOnUse"/><linearGradient xlink:href="#h" id="l" gradientUnits="userSpaceOnUse" x1="334.355" y1="62.873" x2="327.402" y2="62.873" gradientTransform="translate(17.162 -25.743)"/><linearGradient xlink:href="#e" id="m" gradientUnits="userSpaceOnUse" x1="417.154" y1="62.873" x2="423.552" y2="62.784" gradientTransform="translate(58.119 -19.928)"/><linearGradient xlink:href="#g" id="n" gradientUnits="userSpaceOnUse" x1="-43.955" y1="376.133" x2="-38.899" y2="376.133" gradientTransform="translate(25.743 17.162)"/><radialGradient xlink:href="#i" id="o" gradientUnits="userSpaceOnUse" gradientTransform="matrix(1.23914 0 0 .81995 -62.855 -18.96)" cx="334.608" cy="45.008" fx="334.608" fy="45.008" r="5.815"/><radialGradient xlink:href="#f" id="p" gradientUnits="userSpaceOnUse" gradientTransform="matrix(1.95617 0 0 1.85353 -334.353 -58.898)" cx="411.282" cy="44.594" fx="411.282" fy="44.594" r="5.861"/><linearGradient xlink:href="#j" id="k" x1="255.106" y1="96" x2="273.341" y2="96" gradientUnits="userSpaceOnUse" gradientTransform="matrix(.54037 0 0 .54037 -24.763 -4.13)"/></defs><rect width="9.854" height="19.707" x="113.09" y="37.893" rx="1.063" ry="1.063" fill="url(#k)" stroke-width=".811" stroke-linecap="round" stroke-linejoin="round"/><path d="M18.274 12.007a5.583 5.583 0 0 0-5.596 5.595V100.752c0 .816.584 1.328 1.437 1.73l48.453 22.956a4.658 4.658 0 0 0 2.246.455 4.652 4.652 0 0 0 1.812-.455l48.444-22.919c.89-.44 1.436-.95 1.436-1.767v-83.15c0-3.1-2.495-5.595-5.595-5.595z" fill="#3796e0" stroke-width="8.106" stroke-linecap="round" stroke-linejoin="round"/><g transform="matrix(.54037 0 0 .54037 -152.493 -4.47)"><rect width="8.722" height="38.373" x="343.047" y="17.944" rx="0" ry="0" opacity=".347" fill="url(#l)" stroke-width="1.5" stroke-linecap="round" stroke-linejoin="round"/><rect ry="0" rx="0" y="23.759" x="475.272" height="54.462" width="8.722" opacity=".347" fill="url(#m)" stroke-width="1.5" stroke-linecap="round" stroke-linejoin="round"/><rect width="8.722" height="119.401" x="-18.212" y="350.786" rx="0" ry="0" transform="rotate(-90)" opacity=".347" fill="url(#n)" stroke-width="1.5" stroke-linecap="round" stroke-linejoin="round"/><path d="M350.786 9.49h-8.37l.631 8.454 7.743.003-.018-6.712z" opacity=".409" fill="url(#o)"/><path d="M470.053 11.181l.133 12.578h13.809l.759-7.64z" opacity=".529" fill="url(#p)"/></g><path d="M37.05 4.215c-.909 0-1.64.731-1.64 1.64v34.837c0 .908.731 1.64 1.64 1.64h63.8a4.908 4.908 0 0 0 4.918-4.919V9.133a4.907 4.907 0 0 0-4.918-4.918H63.007z" fill="url(#q)" stroke-width="8.106" stroke-linecap="round" stroke-linejoin="round"/><path d="M88.478 4.215v34.402c0 .908.73 1.64 1.639 1.64h2.42c.909 0 1.64-.732 1.64-1.64V4.215z" fill="#302f2c" stroke-width="8.106" stroke-linecap="round" stroke-linejoin="round"/><rect ry="0" rx="0" y="37.877" x="26.319" height="50.778" width="79.29" fill="#fff" stroke-width="8.106" stroke-linecap="round" stroke-linejoin="round"/><g transform="matrix(.54037 0 0 .54037 -152.493 -4.47)" opacity=".347"><rect ry="0" rx="0" y="43.687" x="325.885" height="38.373" width="8.722" fill="url(#r)" stroke-width="1.5" stroke-linecap="round" stroke-linejoin="round"/><rect width="8.722" height="38.373" x="417.154" y="43.687" rx="0" ry="0" fill="url(#s)" stroke-width="1.5" stroke-linecap="round" stroke-linejoin="round"/><rect transform="rotate(-90)" ry="0" rx="0" y="333.624" x="-43.955" height="85.018" width="8.722" fill="url(#t)" stroke-width="1.5" stroke-linecap="round" stroke-linejoin="round"/><path d="M333.624 35.233h-8.37l.631 8.454 7.743.003-.018-6.712z" fill="url(#u)"/><path d="M418.634 37.177l.006 6.51h7.236l.759-7.64z" fill="url(#v)"/></g><path style="line-height:normal;font-variant-ligatures:normal;font-variant-position:normal;font-variant-caps:normal;font-variant-numeric:normal;font-variant-alternates:normal;font-feature-settings:normal;text-indent:0;text-align:start;text-decoration-line:none;text-decoration-style:solid;text-decoration-color:#000;text-transform:none;text-orientation:mixed;shape-padding:0;isolation:auto;mix-blend-mode:normal" d="M37.216 4.215v38.117h.81V4.215z" color="#000" font-weight="400" font-family="sans-serif" white-space="normal" overflow="visible" fill-opacity=".321" stroke-width=".811"/><rect width="48.688" height="70.81" x="26.319" y="17.845" rx="1.474" ry="1.474" fill="#fff" stroke-width="8.106" stroke-linecap="round" stroke-linejoin="round"/><path d="M12.678 37.88v62.872c0 .817.584 1.328 1.437 1.731l48.453 22.955a4.658 4.658 0 0 0 2.246.455 4.652 4.652 0 0 0 1.812-.455l48.444-22.919c.89-.44 1.436-.95 1.436-1.767V37.88z" fill="#3ba9f7" fill-opacity=".839" stroke-width=".54"/><path d="M12.678 37.88v62.872c0 .817.584 1.328 1.437 1.731l48.453 22.955a4.658 4.658 0 0 0 2.246.455 4.652 4.652 0 0 0 1.812-.455l48.444-22.919c.89-.44 1.436-.95 1.436-1.767V37.88z" fill="url(#w)" stroke-width=".54"/><path d="M12.678 37.88v1.081h103.828V37.88z" opacity=".423" fill="url(#x)" stroke-width=".469"/><path d="M28.525 20.527v17.35h44.4v-17.35z" fill="#14a95c"/><path d="M12.678 23.254V37.88h103.828c.007-5.177-.9-8.435 0-12.356v-2.27z" fill="url(#y)" stroke-width=".54"/></svg>