<svg xmlns="http://www.w3.org/2000/svg" xmlns:xlink="http://www.w3.org/1999/xlink" width="128" height="128" viewBox="0 0 33.866666 33.866668"><defs><linearGradient id="b"><stop offset="0" stop-color="#0eb6ed"/><stop offset="1" stop-color="#3ef4eb" stop-opacity=".925"/></linearGradient><linearGradient id="a"><stop offset="0" stop-color="#d1dee5"/><stop offset="1" stop-color="#f6fbff"/></linearGradient><linearGradient gradientUnits="userSpaceOnUse" y2="285.186" x2="-276.967" y1="28.729" x1="-94.844" id="d" xlink:href="#a"/><linearGradient xlink:href="#a" id="e" gradientUnits="userSpaceOnUse" x1="-94.844" y1="28.729" x2="-276.967" y2="285.186"/><linearGradient xlink:href="#b" id="c" x1="-522.08" y1="-177.863" x2="-130.238" y2="197.314" gradientUnits="userSpaceOnUse"/></defs><path d="M32.54 14.274c0 7.162-7.225 12.969-16.138 12.969-1.456 0-2.866-.156-4.208-.446h-.003a.42.42 0 0 0-.01-.002c-.39-.081-.577.08-1.003.448-2.266 1.923-4.834 2.776-7.117 2.776-2.283 0-2.443-.48-2.443-.737 0-.258.16-.356.426-.462 3.066-1.11 3.243-3.216 3.243-4.238-.009-.497-.124-.906-.577-1.37C1.955 20.887.265 17.739.265 14.275c0-7.163 7.225-12.969 16.137-12.969 8.913 0 16.138 5.806 16.138 12.97" opacity=".25" stroke-width="3.9"/><path d="M32.729 32.57c0 .146-.109.275-.326.346-2.835.862-5.664-1.499-5.944-1.746a.655.655 0 0 0-.512-.14 12.75 12.75 0 0 1-2.7.287c-5.718 0-10.355-3.735-10.355-8.343 0-4.607 4.637-8.342 10.355-8.342 5.719 0 10.355 3.735 10.355 8.342 0 2.206-1.062 4.21-2.796 5.701l-.008.008c-.397.36-.412.706-.421 1.07 0 1.946 2.066 2.537 2.146 2.556.08.02.206.114.206.26" opacity=".25" stroke-width="3.9"/><path d="M0 0c0-134.36-135.54-243.28-302.74-243.28-27.31 0-53.77 2.91-78.94 8.36-.02.01-.03.01-.05.01-.06.01-.12.02-.19.03-7.33 1.52-10.83-1.49-18.83-8.4-42.5-36.08-90.67-52.09-133.5-52.09s-45.83 9-45.83 13.83c0 4.84 3 6.67 8 8.67 57.5 20.83 60.833 60.323 60.833 79.493-.167 9.333-2.334 16.997-10.833 25.697C-573.75-124.04-605.47-64.99-605.47 0c0 134.37 135.54 243.29 302.73 243.29C-135.54 243.29 0 134.37 0 0" transform="matrix(.0533 0 0 -.0533 32.54 13.731)" fill="url(#c)" stroke-width="1.876" stroke="#10549f"/><path d="M0 0c0-2.75-2.04-5.17-6.12-6.5-53.17-16.17-106.25 28.12-111.5 32.75-2.25 2.13-6.8 3.25-9.6 2.62-16.15-3.5-33.131-5.37-50.65-5.37-107.28 0-194.25 70.07-194.25 156.5s86.97 156.5 194.25 156.5S16.38 266.43 16.38 180c0-41.37-19.92-78.98-52.45-106.95-.05-.05-.1-.1-.16-.15-7.44-6.76-7.73-13.23-7.89-20.07 0-36.5 38.75-47.58 40.25-47.95C-2.37 4.5 0 2.75 0 0" fill="url(#e)" transform="matrix(.0533 0 0 -.0533 32.729 32.027)" stroke-width="1.876" stroke="#10549f"/></svg>