<svg xmlns="http://www.w3.org/2000/svg" xmlns:xlink="http://www.w3.org/1999/xlink" width="128" height="128" viewBox="0 0 33.866666 33.866668"><defs><linearGradient id="k"><stop offset="0" stop-color="#0c0111"/><stop offset=".837" stop-opacity=".427"/><stop offset="1" stop-color="#3c0756" stop-opacity="0"/></linearGradient><linearGradient id="j"><stop offset="0" stop-color="#2d82ef"/><stop offset="1" stop-color="#4adbf1"/></linearGradient><linearGradient id="f"><stop offset="0" stop-color="#fff"/><stop offset="1" stop-color="#f0f0f0"/></linearGradient><linearGradient id="a"><stop offset="0" stop-color="#0068e0"/><stop offset="1" stop-color="#00acf4"/></linearGradient><filter id="b" width="100%" height="100%" x="0%" y="0%"><feColorMatrix in="SourceGraphic" values="0 0 0 0 1 0 0 0 0 1 0 0 0 0 1 0 0 0 1 0"/></filter><clipPath id="c"><path d="M0 0h384v384H0z"/></clipPath><clipPath id="d"><path d="M0 0h384v384H0z"/></clipPath><linearGradient y2="71.02" x2="84.091" y1="117.042" x1="122.341" gradientUnits="userSpaceOnUse" id="F" xlink:href="#e" gradientTransform="matrix(.26458 0 0 .26458 -73.214 269.229)"/><linearGradient id="e"><stop offset="0" stop-color="#d5dada"/><stop offset="1" stop-color="#f1f1f1"/></linearGradient><linearGradient xlink:href="#f" id="G" x1="-39.014" y1="265.756" x2="-21.756" y2="285.733" gradientUnits="userSpaceOnUse"/><filter y="0%" x="0%" height="100%" width="100%" id="g"><feColorMatrix values="0 0 0 0 1 0 0 0 0 1 0 0 0 0 1 0 0 0 1 0" in="SourceGraphic"/></filter><clipPath id="h"><path d="M0 0h384v384H0z"/></clipPath><clipPath id="i"><path d="M0 0h384v384H0z"/></clipPath><linearGradient xlink:href="#e" id="T" gradientUnits="userSpaceOnUse" gradientTransform="matrix(.26458 0 0 .26458 -114.234 271.806)" x1="122.341" y1="117.042" x2="84.091" y2="71.02"/><linearGradient xlink:href="#j" id="V" x1="26.341" y1="294.788" x2="23.904" y2="281.592" gradientUnits="userSpaceOnUse"/><radialGradient xlink:href="#k" id="U" cx="25.628" cy="288.76" fx="25.628" fy="288.76" r="11.299" gradientTransform="matrix(3.46938 -.02249 .01829 2.82136 2.636 -719.206)" gradientUnits="userSpaceOnUse"/><linearGradient id="A"><stop offset="0" stop-color="#fff"/><stop offset=".089" stop-color="#fff" stop-opacity=".235"/><stop offset=".915" stop-color="#fff" stop-opacity=".157"/><stop offset="1" stop-color="#fff" stop-opacity=".392"/></linearGradient><linearGradient id="w"><stop offset="0" stop-color="#eaece9"/><stop offset="1" stop-color="#abacae"/></linearGradient><linearGradient id="D"><stop offset="0" stop-color="#fff"/><stop offset=".142" stop-color="#fff" stop-opacity=".235"/><stop offset=".945" stop-color="#fff" stop-opacity=".157"/><stop offset="1" stop-color="#fff" stop-opacity=".392"/></linearGradient><linearGradient id="C"><stop offset="0" stop-color="#d4d4d4"/><stop offset="1" stop-color="#fafafa"/></linearGradient><linearGradient id="m"><stop offset="0" stop-color="#f8ffff"/><stop offset="1" stop-color="#fafafa"/></linearGradient><linearGradient id="l"><stop offset="0" stop-color="#36bebe"/><stop offset="1" stop-color="#8cfcff"/></linearGradient><filter height="4.828" y="-1.914" width="1.121" x="-.061" id="aa" color-interpolation-filters="sRGB"><feGaussianBlur stdDeviation="1.209"/></filter><linearGradient gradientTransform="matrix(7.06958 0 0 7.06958 8.443 -105.557)" gradientUnits="userSpaceOnUse" y2=".929" x2="7.841" y1="14.762" x1="7.894" id="ab" xlink:href="#l"/><linearGradient gradientTransform="matrix(2.13107 0 0 2.06556 13.854 -34.623)" gradientUnits="userSpaceOnUse" y2="5.098" x2="23.996" y1="-21.021" x1="24.049" id="ac" xlink:href="#m"/><linearGradient id="n"><stop offset="0"/><stop offset="1" stop-opacity="0"/></linearGradient><linearGradient gradientTransform="matrix(2.5424 0 0 2.5424 3.983 -110.017)" gradientUnits="userSpaceOnUse" xlink:href="#o" id="ad" y2="43" x2="24" y1="5" x1="24"/><linearGradient id="o"><stop offset="0" stop-color="#fff"/><stop offset=".063" stop-color="#fff" stop-opacity=".235"/><stop offset=".951" stop-color="#fff" stop-opacity=".157"/><stop offset="1" stop-color="#fff" stop-opacity=".392"/></linearGradient><linearGradient id="p"><stop offset="0" stop-color="#919caf"/><stop offset=".262" stop-color="#68758e"/><stop offset=".705" stop-color="#485a6c"/><stop offset="1" stop-color="#444c5c"/></linearGradient><radialGradient gradientTransform="matrix(2.00378 0 0 1.4 27.988 -17.4)" gradientUnits="userSpaceOnUse" xlink:href="#q" id="X" fy="43.5" fx="4.993" r="2.5" cy="43.5" cx="4.993"/><linearGradient id="q"><stop offset="0" stop-color="#181818"/><stop offset="1" stop-color="#181818" stop-opacity="0"/></linearGradient><radialGradient gradientTransform="matrix(2.00378 0 0 1.4 -20.012 -104.4)" gradientUnits="userSpaceOnUse" xlink:href="#q" id="Y" fy="43.5" fx="4.993" r="2.5" cy="43.5" cx="4.993"/><linearGradient gradientUnits="userSpaceOnUse" xlink:href="#r" id="Z" y2="39.999" x2="25.058" y1="47.028" x1="25.058"/><linearGradient id="r"><stop offset="0" stop-color="#181818" stop-opacity="0"/><stop offset=".5" stop-color="#181818"/><stop offset="1" stop-color="#181818" stop-opacity="0"/></linearGradient><radialGradient gradientTransform="matrix(1.5564 0 0 .16979 70.27 -14.869)" gradientUnits="userSpaceOnUse" xlink:href="#n" id="W" fy="93.468" fx="-4.029" r="35.338" cy="93.468" cx="-4.029"/><linearGradient id="s"><stop offset="0" stop-color="#fff"/><stop offset="1" stop-color="#fff" stop-opacity="0"/></linearGradient><linearGradient id="t"><stop offset="0" stop-color="#fff"/><stop offset=".033" stop-color="#fff" stop-opacity=".235"/><stop offset=".986" stop-color="#fff" stop-opacity=".157"/><stop offset="1" stop-color="#fff" stop-opacity=".392"/></linearGradient><linearGradient id="u"><stop offset="0" stop-color="#d88f22"/><stop offset="1" stop-color="#d88f22" stop-opacity="0"/></linearGradient><linearGradient id="v"><stop offset="0" stop-color="#f2e0c4"/><stop offset=".765" stop-color="#e5af5b"/><stop offset="1" stop-color="#af6900"/></linearGradient><linearGradient gradientTransform="matrix(.72237 0 0 .48158 -43.839 284.361)" gradientUnits="userSpaceOnUse" xlink:href="#r" id="J" y2="39.999" x2="25.058" y1="47.028" x1="25.058"/><radialGradient gradientTransform="matrix(1.35098 0 0 .67421 29.865 -334.638)" gradientUnits="userSpaceOnUse" xlink:href="#q" id="I" fy="43.5" fx="4.993" r="2.5" cy="43.5" cx="4.993"/><radialGradient gradientTransform="matrix(1.35098 0 0 .67421 -23.139 275.982)" gradientUnits="userSpaceOnUse" xlink:href="#q" id="H" fy="43.5" fx="4.993" r="2.5" cy="43.5" cx="4.993"/><linearGradient id="z"><stop offset="0" stop-color="#cad0c6"/><stop offset=".5" stop-color="#eaece9"/><stop offset="1" stop-color="#c5cbc0"/></linearGradient><linearGradient gradientTransform="matrix(.63951 0 0 .74438 -41.895 269.956)" gradientUnits="userSpaceOnUse" xlink:href="#w" id="L" y2="25.013" x2="24.499" y1="3.489" x1="24.46"/><clipPath id="N"><path d="M35.382 60.546V41.345c0-19.52 11.203-28.794 28.511-28.55 17.402.243 28.725 8.8 28.725 28.55v19.82h-11.7v-14.86c0-4.96 1.21-21.012-16.903-21.012-17.964 0-16.655 16.15-16.585 20.993v14.343z" fill="url(#x)" fill-rule="evenodd" stroke-width="1.887"/></clipPath><linearGradient y2="25.013" x2="24.499" y1="3.489" x1="24.46" gradientTransform="matrix(2.1309 0 0 2.48033 12.71 .602)" gradientUnits="userSpaceOnUse" id="x" xlink:href="#w"/><clipPath id="M"><path d="M49.03 58.355V43.792c0-14.805 8.497-21.839 21.624-21.654 13.198.185 21.786 6.675 21.786 21.654v15.033h-8.874v-11.27c0-3.763.919-15.938-12.82-15.938-13.625 0-12.632 12.25-12.579 15.922v10.88z" fill="url(#y)" fill-rule="evenodd" stroke-width="1.887"/></clipPath><linearGradient y2="17.47" x2="27.192" y1="2.914" x1="10.651" gradientTransform="matrix(1.61616 0 0 1.88119 31.834 12.891)" gradientUnits="userSpaceOnUse" id="y" xlink:href="#z"/><linearGradient gradientUnits="userSpaceOnUse" y2="115.309" x2="63.932" y1="82.252" x1="63.98" id="S" xlink:href="#A"/><clipPath id="R"><path fill="#555761" stroke-width=".9" d="M19.636 83.204h88.727v29.74H19.636z"/></clipPath><linearGradient y2="-60.975" x2="165.123" y1="-12.913" x1="164.561" gradientTransform="matrix(1.88723 0 0 1.88723 -239.24 126.675)" gradientUnits="userSpaceOnUse" id="B" xlink:href="#C"/><linearGradient gradientUnits="userSpaceOnUse" y2="128" x2="61.716" y1="33.533" x1="64.515" id="E" xlink:href="#w"/><linearGradient gradientUnits="userSpaceOnUse" y2="128" x2="62.885" y1="42.863" x1="63.239" id="Q" xlink:href="#D"/><clipPath id="P"><rect style="marker:none" y="45.138" x="20.114" ry="3.111" rx="2.831" height="77.199" width="87.771" color="#000" overflow="visible" fill="url(#E)" stroke-opacity=".774" enable-background="accumulate"/></clipPath><clipPath id="O"><path fill="#ffe16b" fill-rule="evenodd" stroke-width=".983" stroke-linecap="round" stroke-linejoin="round" stroke-opacity=".514" paint-order="markers fill stroke" d="M211.839-24.826h30.965v6.461h-30.965z"/></clipPath><linearGradient xlink:href="#w" id="K" gradientUnits="userSpaceOnUse" x1="64.515" y1="33.533" x2="61.716" y2="128" gradientTransform="matrix(.26458 0 0 .26458 -43.435 273.129)"/></defs><g transform="translate(0 -263.133)"><g transform="rotate(-8.765 81.188 -141.781) scale(.98654)" opacity=".389" fill="none" stroke="#000" stroke-linecap="round" stroke-linejoin="round" stroke-opacity=".039"><rect width="25.83" height="29.567" x="-61.945" y="253.765" rx="1.442" ry="1.442" stroke-width=".15" paint-order="fill markers stroke"/><rect ry="1.442" rx="1.442" y="253.765" x="-61.945" height="29.567" width="25.83" stroke-width=".3" paint-order="fill markers stroke"/><rect width="25.83" height="29.567" x="-61.945" y="253.765" rx="1.442" ry="1.442" stroke-width=".45" paint-order="fill markers stroke"/><rect ry="1.442" rx="1.442" y="253.765" x="-61.945" height="29.567" width="25.83" stroke-width=".6" paint-order="fill markers stroke"/><rect width="25.83" height="29.567" x="-61.945" y="253.765" rx="1.442" ry="1.442" stroke-width=".85" paint-order="fill markers stroke"/><rect ry="1.442" rx="1.442" y="253.765" x="-61.945" height="29.567" width="25.83" paint-order="fill markers stroke"/></g><rect width="25.483" height="29.169" x="-40.457" y="264.375" rx="1.423" ry="1.423" transform="rotate(-8.764)" fill="url(#G)" stroke-width=".363" stroke-linecap="round" stroke-linejoin="round" stroke-opacity=".148" paint-order="fill markers stroke"/><g transform="matrix(.60122 -.09034 .09034 .60122 4.313 101.509)"><path opacity=".3" fill="url(#H)" stroke-width=".499" d="M-16.389 303.624h3.371v3.371h-3.371z"/><path transform="scale(-1)" opacity=".3" fill="url(#I)" stroke-width=".499" d="M36.615-306.995h3.371v3.371h-3.371z"/><path opacity=".3" fill="url(#J)" stroke-width=".499" d="M-36.615 303.624h20.226v3.371h-20.226z"/><rect style="marker:none" y="285.071" x="-38.113" ry=".823" rx=".749" height="20.426" width="23.223" color="#000" overflow="visible" fill="url(#K)" stroke-width=".265" stroke-opacity=".774" enable-background="accumulate"/><path d="M-35.09 284.89v-2.707c0-5.858 3.362-8.641 8.556-8.568 5.223.073 8.62 2.64 8.62 8.568v2.708h-3.51v-1.22c0-1.488.363-6.305-5.073-6.305-5.391 0-4.999 4.847-4.978 6.3v1.225z" fill="url(#L)" fill-rule="evenodd" stroke-width=".499"/><path d="M49.03 50.634v-6.842c0-14.805 8.497-21.839 21.624-21.654 13.198.185 21.786 6.675 21.786 21.654v6.842" transform="matrix(.3957 0 0 .3957 -54.491 264.855)" clip-path="url(#M)" fill="none" fill-rule="evenodd" stroke="#fafafa" stroke-width="1.262" stroke-opacity=".615"/><path d="M-35.09 284.89v-2.707c0-5.858 3.362-8.641 8.556-8.568 5.223.073 8.62 2.64 8.62 8.568v2.708h-3.51v-1.22c0-1.488.363-6.305-5.073-6.305-5.391 0-4.999 4.847-4.978 6.3v1.225z" fill="none" fill-rule="evenodd" stroke="#b7b7b7" stroke-width=".265" stroke-opacity=".899"/><path d="M80.918 50.366v-4.06c0-4.961 1.21-21.013-16.903-21.013-17.964 0-16.655 16.15-16.585 20.993v4.08" clip-path="url(#N)" transform="matrix(.30011 0 0 .30011 -45.709 269.775)" fill="none" fill-rule="evenodd" stroke="#282828" stroke-width="1.763" stroke-opacity=".188"/><path fill="#ffe16b" fill-rule="evenodd" stroke-width=".26" stroke-linecap="round" stroke-linejoin="round" stroke-opacity=".514" paint-order="markers fill stroke" d="M-38.115 287.374h23.218v4.844h-23.218z"/><g transform="translate(-196.954 305.989) scale(.74981)" clip-path="url(#O)" stroke-width=".173" fill="#0e141f" fill-rule="evenodd" stroke-linecap="round" stroke-linejoin="round" stroke-opacity=".514"><path d="M210.563-14.632l7.723-13.377 2.114 1.22-7.723 13.377-2.114-1.22M216.573-14.632l7.723-13.377 2.114 1.22-7.723 13.377-2.114-1.22M222.583-14.632l7.723-13.377 2.114 1.22-7.723 13.377-2.114-1.22M228.593-14.632l7.723-13.377 2.114 1.22-7.723 13.377-2.114-1.22M234.604-14.632l7.722-13.377 2.114 1.22-7.723 13.377-2.113-1.22" paint-order="markers fill stroke"/></g><path d="M-14.897 292.218h-23.218m0-4.844h23.218" fill="none" fill-rule="evenodd" stroke="#d48e15" stroke-width=".26" stroke-linecap="round" stroke-linejoin="round" paint-order="markers fill stroke"/><rect width="23.223" height="20.426" rx=".749" ry=".823" x="-38.113" y="285.071" style="marker:none" color="#000" overflow="visible" fill="none" stroke="#a8a8a8" stroke-width=".265" stroke-opacity=".774" enable-background="accumulate"/><rect transform="matrix(.26458 0 0 .26458 -43.435 273.129)" style="marker:none" y="45.138" x="20.114" ry="3.111" rx="2.831" height="77.199" width="87.771" clip-path="url(#P)" color="#000" overflow="visible" fill="none" stroke="url(#Q)" stroke-width="2" stroke-opacity=".774" enable-background="accumulate"/><path clip-path="url(#R)" transform="matrix(.30011 0 0 .30011 -45.709 269.775)" fill="none" stroke="url(#S)" stroke-width="1.763" stroke-opacity=".827" d="M19.636 83.204h88.727v29.74H19.636z"/></g><path d="M93.188 60.041c-11.363 0-22.055 3.93-30.108 11.066-8.123 7.198-12.598 16.792-12.598 27.014 0 7.607 2.482 14.864 7.098 21.047l50.213-7.74a5.367 5.367 0 0 0 4.496-6.135l-6.727-43.637a47.739 47.739 0 0 0-12.374-1.615z" transform="matrix(.26458 0 0 .26458 0 263.133)" fill="url(#U)" stroke-width="3.468" opacity=".576"/><path d="M19.005 282.506c1.585-1.404 3.69-2.178 5.927-2.178 2.236 0 4.341.774 5.926 2.178 1.599 1.417 2.48 3.305 2.48 5.317 0 1.92-.803 3.728-2.266 5.12-.855.827-2 1.358-3.06 1.858a9.31 9.31 0 0 1-3.08.518c-2.237 0-4.342-.774-5.927-2.178-1.599-1.417-2.48-3.306-2.48-5.318 0-2.012.881-3.9 2.48-5.317z" fill="url(#V)" stroke-width=".683"/><path d="M22.303 273.402a.286.75 0 0 1-.286.75.286.75 0 0 1-.287-.749.286.75 0 0 1 .286-.75.286.75 0 0 1 .287.747" fill-opacity="0" stroke-width=".053" stroke-linecap="round" stroke-linejoin="round" stroke-opacity=".859" paint-order="fill markers stroke"/><path d="M19.206 286.46a1.363 1.363 0 0 0-1.363 1.363 1.363 1.363 0 0 0 1.363 1.364 1.363 1.363 0 0 0 1.363-1.364 1.363 1.363 0 0 0-1.363-1.363zm3.817 0a1.363 1.363 0 0 0-1.363 1.363 1.363 1.363 0 0 0 1.363 1.364 1.363 1.363 0 0 0 1.364-1.364 1.363 1.363 0 0 0-1.364-1.363zm3.817 0a1.363 1.363 0 0 0-1.363 1.363 1.363 1.363 0 0 0 1.363 1.364 1.363 1.363 0 0 0 1.363-1.364 1.363 1.363 0 0 0-1.363-1.363zm3.817 0a1.363 1.363 0 0 0-1.363 1.363 1.363 1.363 0 0 0 1.363 1.364 1.363 1.363 0 0 0 1.364-1.364 1.363 1.363 0 0 0-1.364-1.363z" fill="#fff" stroke-width="2" stroke-linecap="round" stroke-linejoin="round" stroke-opacity=".008"/></g></svg>