<svg xmlns="http://www.w3.org/2000/svg" xmlns:xlink="http://www.w3.org/1999/xlink" width="128" height="128" viewBox="0 0 33.866666 33.866668"><defs><linearGradient id="g"><stop offset="0" stop-color="#1185ff"/><stop offset="1" stop-color="#11bfff"/></linearGradient><linearGradient id="b"><stop offset="0" stop-color="#d3d3d3"/><stop offset="1" stop-color="#e0e0e0"/></linearGradient><linearGradient id="a"><stop offset="0" stop-color="#0068e0"/><stop offset="1" stop-color="#00acf4"/></linearGradient><linearGradient xlink:href="#b" id="j" x1="-23.371" y1="265.059" x2="-23.368" y2="258.264" gradientUnits="userSpaceOnUse" gradientTransform="rotate(-8.765 62.878 -6.925) scale(.98654)"/><filter id="c" width="100%" height="100%" x="0%" y="0%"><feColorMatrix in="SourceGraphic" values="0 0 0 0 1 0 0 0 0 1 0 0 0 0 1 0 0 0 1 0"/></filter><clipPath id="d"><path d="M0 0h384v384H0z"/></clipPath><clipPath id="e"><path d="M0 0h384v384H0z"/></clipPath><linearGradient y2="71.02" x2="84.091" y1="117.042" x1="122.341" gradientUnits="userSpaceOnUse" id="h" xlink:href="#f" gradientTransform="matrix(.26458 0 0 .26458 -73.214 269.229)"/><linearGradient id="f"><stop offset="0" stop-color="#d5dada"/><stop offset="1" stop-color="#f1f1f1"/></linearGradient><filter id="k" height="1.113" width="1.128" x="-.064" y="-.056" color-interpolation-filters="sRGB"><feGaussianBlur stdDeviation="2.175"/></filter><linearGradient id="l" gradientUnits="userSpaceOnUse" x1="372.069" x2="387.12" y1="947.001" y2="947.001"><stop offset="0" stop-color="#828398"/><stop offset=".05" stop-color="#4f4e50"/><stop offset=".14" stop-color="#e8e5eb"/><stop offset=".232" stop-color="#e9d3d9" stop-opacity=".941"/><stop offset=".762" stop-color="#c4c2c7"/><stop offset=".87" stop-color="#f4f1fa"/><stop offset=".934" stop-color="#b8b8bf"/><stop offset="1" stop-color="#c1bfcc"/></linearGradient><linearGradient id="m" gradientUnits="userSpaceOnUse" x1="368.214" x2="394.83" y1="1018.955" y2="1018.588"><stop offset="0" stop-color="#130804"/><stop offset=".17" stop-color="#0f0704"/><stop offset=".238" stop-color="#323033"/><stop offset=".718" stop-color="#323033"/><stop offset=".848" stop-color="#141215"/><stop offset="1" stop-color="#00010e"/></linearGradient><linearGradient id="n" gradientUnits="userSpaceOnUse" x1="367.847" x2="372.252" y1="904.783" y2="917.999"><stop offset="0" stop-color="#2d2d39"/><stop offset="1" stop-color="#acabb0"/></linearGradient><linearGradient id="o" gradientUnits="userSpaceOnUse" x1="389.507" x2="414.058" y1="902.213" y2="908.792"><stop offset="0" stop-color="#59585d"/><stop offset=".193" stop-color="#010103"/><stop offset=".543" stop-color="#5b5b5d"/><stop offset="1" stop-color="#171719"/></linearGradient><linearGradient id="p" gradientUnits="userSpaceOnUse" x1="-353.818" x2="-353.818" y1="903.401" y2="883.111"><stop offset="0" stop-color="#202024"/><stop offset=".337" stop-color="#919095"/><stop offset=".539" stop-color="#4e4d51"/><stop offset=".695" stop-color="#cfcfd1"/><stop offset="1" stop-color="#69696b"/></linearGradient><linearGradient id="q" gradientUnits="userSpaceOnUse" x1="338.845" x2="338.845" y1="903.66" y2="883.857"><stop offset="0" stop-color="#181820"/><stop offset=".035" stop-color="#86858a"/><stop offset=".141" stop-color="#7a797e"/><stop offset=".196" stop-color="#2f2e33"/><stop offset=".333" stop-color="#414045"/><stop offset=".431" stop-color="#545358"/><stop offset=".561" stop-color="#ebeaf0"/><stop offset=".692" stop-color="#abaaaf"/><stop offset=".86" stop-color="#d7d6dc"/><stop offset="1" stop-color="#66656a"/></linearGradient><linearGradient id="r" gradientUnits="userSpaceOnUse" x1="367.847" x2="415.572" y1="-67.365" y2="-50.845"><stop offset="0" stop-color="#c7c6cb"/><stop offset=".543" stop-color="#fcfcfd"/><stop offset="1" stop-color="#d8d8da"/></linearGradient><filter id="s" height="1.273" width="1.04" x="-.02" y="-.136" color-interpolation-filters="sRGB"><feGaussianBlur stdDeviation=".198"/></filter><linearGradient xlink:href="#g" id="i" x1="-30.145" y1="290.811" x2="-25.075" y2="269.002" gradientUnits="userSpaceOnUse"/></defs><g transform="translate(0 -263.133)"><g transform="rotate(-8.765 81.188 -141.781) scale(.98654)" opacity=".389" fill="none" stroke="#000" stroke-linecap="round" stroke-linejoin="round" stroke-opacity=".039"><rect width="25.83" height="29.567" x="-61.945" y="253.765" rx="1.442" ry="1.442" stroke-width=".15" paint-order="fill markers stroke"/><rect ry="1.442" rx="1.442" y="253.765" x="-61.945" height="29.567" width="25.83" stroke-width=".3" paint-order="fill markers stroke"/><rect width="25.83" height="29.567" x="-61.945" y="253.765" rx="1.442" ry="1.442" stroke-width=".45" paint-order="fill markers stroke"/><rect ry="1.442" rx="1.442" y="253.765" x="-61.945" height="29.567" width="25.83" stroke-width=".6" paint-order="fill markers stroke"/><rect width="25.83" height="29.567" x="-61.945" y="253.765" rx="1.442" ry="1.442" stroke-width=".85" paint-order="fill markers stroke"/><rect ry="1.442" rx="1.442" y="253.765" x="-61.945" height="29.567" width="25.83" paint-order="fill markers stroke"/></g><rect width="25.483" height="29.169" x="-40.457" y="264.375" rx="1.423" ry="1.423" transform="rotate(-8.764)" fill="url(#i)" stroke-width=".363" stroke-linecap="round" stroke-linejoin="round" stroke-opacity=".148" paint-order="fill markers stroke"/><path d="M17.539 279.195l-2.88 8.525" fill="none" stroke="#fff" stroke-width="1.47" stroke-linecap="round" stroke-linejoin="round"/><path d="M1.703 267.235l22.373-3.449a1.42 1.42 0 0 1 1.623 1.19l.78 5.06-25.186 3.876-.78-5.053a1.42 1.42 0 0 1 1.19-1.623z" fill="url(#j)" stroke-width=".363" stroke-linecap="round" stroke-linejoin="round" stroke-opacity=".148" paint-order="fill markers stroke"/><g transform="scale(.90706) rotate(-8.745 220.047 3.016)" stroke-linecap="round" stroke-linejoin="round"><circle r="1.336" cy="261.91" cx="-38.526" fill="#ff2911" stroke-width=".9" paint-order="fill markers stroke"/><circle cx="-34.572" cy="261.91" r="1.336" fill="#f89c22" stroke-width=".9" paint-order="fill markers stroke"/><circle r="1.336" cy="261.91" cx="-30.619" fill="#2ecc3f" stroke-width=".9" paint-order="fill markers stroke"/><path d="M-39.848 261.732a1.336 1.336 0 0 0-.014.178 1.336 1.336 0 0 0 1.336 1.336 1.336 1.336 0 0 0 1.337-1.336 1.336 1.336 0 0 0-.014-.177 1.336 1.336 0 0 1-1.323 1.158 1.336 1.336 0 0 1-1.322-1.159z" fill="#e61700" fill-opacity=".803" stroke-width="3.402" paint-order="fill markers stroke"/><path d="M-38.526 260.574a1.336 1.336 0 0 0-1.336 1.336 1.336 1.336 0 0 0 .016.192 1.336 1.336 0 0 1 1.32-1.146 1.336 1.336 0 0 1 1.321 1.144 1.336 1.336 0 0 0 .016-.19 1.336 1.336 0 0 0-1.337-1.336z" fill="#ff6b5b" fill-opacity=".398" stroke-width="3.402" paint-order="fill markers stroke"/><path d="M-33.25 261.726a1.336 1.336 0 0 1-1.322 1.154 1.336 1.336 0 0 1-1.322-1.153 1.336 1.336 0 0 0-.014.183 1.336 1.336 0 0 0 1.336 1.336 1.336 1.336 0 0 0 1.336-1.336 1.336 1.336 0 0 0-.015-.184z" fill="#ec8a07" stroke-width="3.402" paint-order="fill markers stroke"/><path d="M-34.572 260.574a1.336 1.336 0 0 0-1.336 1.336 1.336 1.336 0 0 0 .011.161 1.336 1.336 0 0 1 1.325-1.17 1.336 1.336 0 0 1 1.324 1.174 1.336 1.336 0 0 0 .012-.165 1.336 1.336 0 0 0-1.336-1.336z" fill="#f9aa42" fill-opacity=".851" stroke-width="3.402" paint-order="fill markers stroke"/><path d="M-29.296 261.732a1.336 1.336 0 0 1-1.323 1.16 1.336 1.336 0 0 1-1.323-1.16 1.336 1.336 0 0 0-.013.178 1.336 1.336 0 0 0 1.336 1.336 1.336 1.336 0 0 0 1.336-1.336 1.336 1.336 0 0 0-.013-.178z" fill="#27ae36" stroke-width="3.402" paint-order="fill markers stroke"/><path d="M-30.619 260.574a1.336 1.336 0 0 0-1.336 1.336 1.336 1.336 0 0 0 .013.177 1.336 1.336 0 0 1 1.323-1.159 1.336 1.336 0 0 1 1.323 1.158 1.336 1.336 0 0 0 .013-.176 1.336 1.336 0 0 0-1.336-1.336z" fill="#50d85f" fill-opacity=".775" stroke-width="3.402" paint-order="fill markers stroke"/></g><g transform="matrix(.97507 -.15 .15 .97507 1.79 9.5)" fill="none" fill-opacity=".851" stroke="#000" stroke-linecap="round" stroke-linejoin="round" stroke-opacity=".064"><rect width="10.47" height="2.603" x="-27.81" y="260.425" rx="1.301" ry="1.301" stroke-width=".1" paint-order="fill markers stroke"/><rect ry="1.301" rx="1.301" y="260.425" x="-27.81" height="2.603" width="10.47" stroke-width=".2" paint-order="fill markers stroke"/><rect width="10.47" height="2.603" x="-27.81" y="260.425" rx="1.301" ry="1.301" stroke-width=".3" paint-order="fill markers stroke"/></g><rect width="10.329" height="2.568" x="-27.112" y="266.58" rx="1.284" ry="1.284" transform="rotate(-8.745)" fill="#fff" fill-opacity=".851" stroke-width=".942" stroke-linecap="round" stroke-linejoin="round" paint-order="fill markers stroke"/><path d="M23.906 268.257a1.281 1.281 0 0 1-.841.509l-7.67 1.18a1.286 1.286 0 0 1-.956-.233c.392.008.816.048 1.25-.02l6.964-1.08c.463-.072.876-.236 1.253-.356z" fill="#ccc" fill-opacity=".851" stroke-width=".942" stroke-linecap="round" stroke-linejoin="round" paint-order="fill markers stroke"/><rect width="25.483" height=".434" x="-40.369" y="270.923" rx="0" ry="0" transform="rotate(-8.745)" fill-opacity=".155" stroke-width=".296" stroke-linecap="round" stroke-linejoin="round" stroke-opacity=".064" paint-order="fill markers stroke"/><rect ry="0" rx="0" y="270.678" x="-40.369" height=".246" width="25.483" transform="rotate(-8.745)" fill="#fff" fill-opacity=".155" stroke-width=".296" stroke-linecap="round" stroke-linejoin="round" stroke-opacity=".064" paint-order="fill markers stroke"/><path d="M10.323 280.128l-4.606 4.984 6.5 3.047M19.792 278.476l6.02 3.13-5.084 5.068" fill="none" stroke="#fff" stroke-width="1.47" stroke-linecap="round" stroke-linejoin="round"/><path d="M53.506 964.147c-8.582.005-14.725 2.818-22.666 7.403-2.317 6.034-5.058 7.023-11.13 7.01l-5.31 3.066c1.584 4.457 2.177 5.694 5.907 10.228l5.31-3.066c2.282-3.837 5.284-7.812 11.715-5.031l-.004-.01c5.714.059 7.194 5.11 7.203 5.14v.006h.002l.002.002c.006.002.516.175.76.26l8.93 15.467-.008.012c-.305.527-.095 1.133.11 1.629l10.62 21.502 14.141 24.814s.994 2.467 1.55 3.432c.558.965 2.567.322 3.852.033l10.819-6.742s1.275-1.216.36-2.803c-.917-1.587-2.392-3.07-2.392-3.07l-11.671-17.864-7.446-10.539-11.174-14.75c-.178-.178-.444-.286-.757-.334l.03-.01-9.796-14.941.053-.719-.336-.506-.026-.004c-.025-.033-1.946-2.523-2.648-4.697-.707-2.188.36-3.979 4.162-6.174 3.802-2.195 13.325-1.758 19.85.656.409.166.693.19.86.106l.003.021c.533-.307.368-.969.043-1.69l.01-.046-.04-.023-.005-.016-.002.008-2.262-1.426c.378.119.755.236 1.135.371.399.172.642.2.785.135l.004.01c.008-.005.012-.013.02-.018a.228.228 0 0 0 .058-.052c.45-.388.242-1.345-.123-2.139l.002-.004-.004-.002-.006-.016-.004.01c-2.127-1.362-4.9-2.257-6.875-2.8-5.306-1.256-9.71-1.833-13.611-1.83zm2.508.53c.17.002.355.015.527.02-.311-.008-.62-.013-.924-.013.135 0 .26-.009.397-.008zm-1.762.037c-.27.01-.541.015-.805.03.263-.015.536-.02.805-.03zm3.71.039zm-6.003.119c-.185.02-.375.032-.557.055.182-.023.373-.036.557-.055zm8.49.08c.348.036.693.07 1.051.113-.358-.043-.703-.077-1.05-.113zm2.737.348c.352.052.694.097 1.056.156-.363-.06-.704-.104-1.056-.156zm-15.647.35c-.194.049-.384.108-.576.161.192-.053.382-.112.576-.162zm11.885.515c.076.002.15.009.226.012-.45-.015-.905-.017-1.363-.01.38-.006.761-.012 1.137-.002zm-1.508.002h.129c-.55.013-1.103.04-1.658.088-1.7.147-3.109.501-4.268 1.006 1.16-.505 2.568-.86 4.268-1.006a26.496 26.496 0 0 1 1.529-.088zm-12.236.021c-.213.069-.422.145-.633.217.21-.072.42-.148.633-.217zm14.357.006zm1.604.114zm1.486.176zm1.367.218c.351.064.683.134 1.022.205-.337-.07-.673-.142-1.022-.205zm-20.582.114zm22.512.302zm-24.31.44c-.236.103-.47.206-.706.314.235-.108.47-.211.705-.314zm26.788.217zm-28.685.666c-.183.09-.365.176-.549.27.183-.094.366-.18.549-.27zm30.758.013zm-11.291.334c.323-.008.724.003 1.09.004-.452 0-.912-.005-1.3.006.079-.002.129-.008.21-.01zm-9.932.006c-.135.124-.28.242-.402.371.122-.13.267-.247.402-.37zm11.73 0c.462.01.967.04 1.477.069-.505-.029-1.018-.059-1.477-.069zm-2.433.024c-.383.015-.767.031-1.063.052.308-.022.658-.035 1.063-.052zm4.816.097zm8.672.137c.485.2.887.375 1.102.475l-.004.008c-.157-.075-.427-.207-1.098-.483zm-33.572.025zm17.236.123zm11.535.21zm1.428.285zm-13.975.076c-.028.024-.057.049-.078.072.021-.024.05-.048.078-.072zm-.115.123zm5.77.004c.034 0 .07.003.103.004-.36-.007-.715 0-1.066.011.318-.01.637-.02.963-.015zm.166.006zm-1.395.013h.035a15.795 15.795 0 0 0-.035 0zm2.809.057zm-7.377.055c.016.04.05.076.125.105-.075-.029-.109-.065-.125-.105zm15.596.025zm-6.438.121zm-7.488.008c-.107.007-.218.016-.313.02.095-.004.206-.013.313-.02zm9.928.385zm2.398.523zm2.26.602zm1.955.613c.125.043.26.087.361.123-.102-.036-.237-.08-.361-.123zm.896.328l.04.016v.002l-.04-.018zm-38.064 6.38c.04.013.087.034.129.048.096.034.195.07.3.11-.07-.023-.145-.051-.214-.073-.066-.023-.154-.065-.215-.086zm1.32.48c.12.047.243.105.365.158-.121-.053-.246-.11-.365-.158zm1.223.568zm1.908 1.258c.052.042.104.087.156.13-.052-.043-.104-.088-.156-.13zm2.164 2.195c.06.074.117.145.176.221l-.176-.22zm1.125 1.559c.064.099.127.204.191.307-.064-.103-.127-.208-.19-.307z" opacity=".3" fill-rule="evenodd" filter="url(#k)" transform="matrix(.29927 0 0 .29072 3.28 -11.471)"/><g transform="matrix(.15117 -.08479 .08728 .14686 -119.805 170.589)"><path d="M372.138 921.51c-.092-.115-1.102-1.263-1.102-1.263l1.24-2.34 12.823-.011 1.687 1.298.065 1.038-1.103 1.622z" fill-rule="evenodd"/><path d="M371.948 920.173l.885-1.395h12.062l1.157.606 1.844 32.453-3.574-1.114-9.878.115-2.496 1.112z" fill="url(#l)"/><g fill-rule="evenodd"><path d="M367.755 1044.423l.276-48.963 2.66-41.027c.121-.911.33-1.993 1.234-2.515l2.4-1.087 9.72-.16c2.36 0 4.3 1.042 4.636 2.295l3.946 31.48 2.02 22.027 2.018 36.528s.918 3.466.918 6.608c0 3.142-2.937 3.854-2.937 3.854l-21.843.735c-2.157-.673-5.69-1.44-5.69-3.35 0-1.91.642-6.425.642-6.425z" fill="url(#m)"/><path d="M371.04 920.256s2.183-8.85-6.319-13.847l.974-9.345s8.355 6.765 6.603 20.848z" fill="url(#n)"/><path d="M373.289 917.916c.563-12.768-4.467-17.713-7.594-20.852 0 0 8.355 6.765 6.603 20.848z" fill="#5b5c60"/><path d="M386.753 919.192s-.734-5.415.092-9.27c.826-3.854 3.947-5.598 11.472-5.598 7.526 0 21.293 8.81 28.91 17.988 1.097 1.407 1.87 1.158 1.928-.55.045-.227-11.122-13.318-21.293-17.622-10.248-4.336-1.743-3.028-1.743-3.028s13.032 5.231 23.036 16.979c1.322 1.776 1.735.664 2.019-1.193 0 0-8.994-13.492-23.128-20.1-14.134-6.608-21.017 2.662-22.578 9.27-1.56 6.608-.55 11.93-.55 11.93z" fill="url(#o)"/><path d="M430.819 916.468l-.617 2.515c1.13-.017 1.693-1.769 1.833-3.359zM428.993 921.562l-.592 1.68c1.098 0 1.408-1.209 1.533-2.629z"/></g><path transform="scale(-1 1)" d="M-365.577 882.758c8.614 6.975 13.528 6.098 22.532.872v20.248c-6.678-3.74-14.541-7.07-21.706 2.57l-.957-9.195z" fill="url(#p)"/><path d="M332.532 883.63h10.513v20.248h-10.513z" fill="url(#q)"/><path d="M365.577 882.762c22.867 0 36.87 2.302 58.638 22.823-22.53-19.794-35.197-19.86-58.635-19.666z" fill="#3b3b3d" fill-rule="evenodd"/><path transform="translate(0 956.362)" d="M373.904-70.467c-2.633-.022-5.394 0-8.324.024l-.057 12.789.172-1.645s.13.105.352.315l.004.004c.222.21.536.523.908.943l.014.016c.048.054.103.124.152.181.115.133.23.271.354.422l.025.03c2.934 3.265 6.248 8.442 5.785 18.943l-.902-.006.11.435 12.544-.238.004-.027-.127-.082s-1.01-5.324.551-11.932c1.56-6.608 8.444-15.878 22.578-9.27 12.775 5.973 21.278 17.471 22.809 19.645l1.164-.807c-1.99-3.845-5.338-7.551-7.805-10.05-19.714-17.32-31.876-19.537-50.31-19.69zm30.065 15.031c-1.591-.002-2.51.503 3.894 3.213 9.765 4.132 20.339 16.245 21.137 17.416l.924-.931-2.14-4.065C418-50.465 406.118-55.25 406.118-55.25s-1.196-.184-2.15-.186zm-32.465 5.795zm.467 1.85zm.345 2.045zm.188 2.19zm.012 2.353zm59.515.492l-.002.01.006-.004zm-2.101 4.988c-.004.046-.013.084-.018.13l.055-.061z" fill="url(#r)"/><path d="M332.532 883.63c-1.469 7.975-1.65 10.319 0 20.248z" fill="#5b5a60"/><rect y="1049.242" x="370.967" width="23.862" transform="matrix(1.0416 0 0 1.18757 -15.93 -197.136)" rx="1.744" height="3.488" fill="#323033" filter="url(#s)"/><rect y="1049.242" x="370.967" width="23.862" rx="1.744" height="3.488" fill="#060509"/></g></g></svg>