<svg xmlns="http://www.w3.org/2000/svg" xmlns:xlink="http://www.w3.org/1999/xlink" width="128" height="128" viewBox="0 0 128 128"><defs><linearGradient id="b"><stop offset="0" stop-color="#00f27d"/><stop offset="1" stop-color="#5ef7ad"/></linearGradient><linearGradient id="a"><stop offset="0" stop-color="#13a960"/><stop offset="1" stop-color="#5ef7ad"/></linearGradient><linearGradient xlink:href="#a" id="c" x1="-741.832" y1="959.047" x2="-741.832" y2="93.836" gradientUnits="userSpaceOnUse" gradientTransform="matrix(.13668 0 0 .13668 162.312 -5.99)"/><linearGradient xlink:href="#b" id="d" x1="-738.764" y1="931.434" x2="-738.764" y2="152.131" gradientUnits="userSpaceOnUse" gradientTransform="matrix(.13668 0 0 .13668 162.312 -5.99)"/></defs><circle cx="63.592" cy="64.286" r="61.38" fill="url(#c)" stroke-width=".787" stroke-linecap="round" stroke-linejoin="round"/><circle r="55.09" cy="64.286" cx="63.592" opacity=".8" fill="url(#d)" stroke-width=".706" stroke-linecap="round" stroke-linejoin="round"/><path d="M52.23 96.448c-.533-.367-1.985-1.508-3.227-2.535-1.609-1.33-3.03-2.096-4.945-2.666-5.138-1.53-6.928-3.563-6.928-7.868 0-3.192 1.396-6.262 3.894-8.564 2.117-1.952 3.554-2.679 9.059-4.583 2.375-.821 4.732-1.885 5.238-2.364l.92-.87-1.002-.252c-.574-.144-1.724.017-2.687.375-11.795 4.386-19.273 3.202-22.334-3.538-1.18-2.6-.981-4.9.62-7.144 3.169-4.445 3.68-5.38 4.308-7.897.363-1.456 1.088-3.38 1.611-4.278 2.628-4.507 10.67-4.68 15.802-.34.885.748 2.15 2.863 3.972 6.637 1.47 3.047 3.05 5.876 3.51 6.287l.836.748v-1.668c0-.917-.657-3.726-1.459-6.242-2.31-7.25-1.814-11.012 1.968-14.912 2.197-2.265 4.31-3.31 6.765-3.346 2.053-.03 1.913-.093 7.575 3.474 1.151.725 2.785 1.42 3.63 1.544l3.089.452c1.98.291 4.889 2.783 5.536 4.745.654 1.981.24 5.136-.993 7.57-2.127 4.197-5.497 6.806-12.23 9.469-3.566 1.41-4.896 2.439-4.136 3.199.526.526.76.453 8.703-2.705 3.252-1.292 4.13-1.48 6.868-1.462 7.069.044 11.95 3.993 11.5 9.302-.138 1.623-.546 2.58-2.01 4.711-1.695 2.47-1.836 2.86-1.844 5.103-.02 5.481-3.678 8.904-9.518 8.904-4.423 0-8.273-2.779-11.883-8.577-.854-1.37-1.92-2.945-2.371-3.497-1.109-1.36-1.837-.863-1.493 1.017.946 5.164 7.074 13.83 12.027 17.008 1.806 1.159 1.9 1.295 1.237 1.78-.395.288-1.675.826-2.845 1.195l-2.127.67-1.907-2.074c-2.706-2.942-4.803-6.67-7.492-13.32-1.286-3.18-2.397-5.84-2.47-5.912-.072-.073-.334.245-.58.707-.346.646-.309 1.519.164 3.804 1.764 8.529-.02 14.99-4.828 17.488-2.533 1.316-5.95 1.509-7.522.425z" fill="#fff" stroke-width=".314"/></svg>