<svg xmlns="http://www.w3.org/2000/svg" xmlns:xlink="http://www.w3.org/1999/xlink" width="128" height="128" viewBox="0 0 33.866666 33.866668"><defs><linearGradient id="f"><stop offset="0" stop-color="#52c1fa"/><stop offset="1" stop-color="#1496ff"/></linearGradient><linearGradient id="a"><stop offset="0" stop-color="#0068e0"/><stop offset="1" stop-color="#00acf4"/></linearGradient><filter id="b" width="100%" height="100%" x="0%" y="0%"><feColorMatrix in="SourceGraphic" values="0 0 0 0 1 0 0 0 0 1 0 0 0 0 1 0 0 0 1 0"/></filter><clipPath id="c"><path d="M0 0h384v384H0z"/></clipPath><clipPath id="d"><path d="M0 0h384v384H0z"/></clipPath><linearGradient y2="71.02" x2="84.091" y1="117.042" x1="122.341" gradientUnits="userSpaceOnUse" id="n" xlink:href="#e" gradientTransform="matrix(.26458 0 0 .26458 -73.214 269.229)"/><linearGradient id="e"><stop offset="0" stop-color="#d5dada"/><stop offset="1" stop-color="#f1f1f1"/></linearGradient><linearGradient xlink:href="#f" id="o" x1="-33.316" y1="267.258" x2="-21.756" y2="285.733" gradientUnits="userSpaceOnUse"/><filter y="0%" x="0%" height="100%" width="100%" id="g"><feColorMatrix values="0 0 0 0 1 0 0 0 0 1 0 0 0 0 1 0 0 0 1 0" in="SourceGraphic"/></filter><clipPath id="h"><path d="M0 0h384v384H0z"/></clipPath><clipPath id="i"><path d="M0 0h384v384H0z"/></clipPath><linearGradient xlink:href="#e" id="p" gradientUnits="userSpaceOnUse" gradientTransform="matrix(.26458 0 0 .26458 -114.234 271.806)" x1="122.341" y1="117.042" x2="84.091" y2="71.02"/><linearGradient id="l"><stop offset="0"/><stop offset="1" stop-opacity="0"/></linearGradient><linearGradient id="j"><stop offset="0" stop-color="#fff"/><stop offset=".021" stop-color="#fff" stop-opacity=".235"/><stop offset=".977" stop-color="#fff" stop-opacity=".157"/><stop offset="1" stop-color="#fff" stop-opacity=".392"/></linearGradient><linearGradient id="m"><stop offset="0" stop-color="#181818" stop-opacity="0"/><stop offset=".5" stop-color="#181818"/><stop offset="1" stop-color="#181818" stop-opacity="0"/></linearGradient><linearGradient y2="43" y1="5.317" x2="24" x1="24" id="v" xlink:href="#j" gradientUnits="userSpaceOnUse" gradientTransform="translate(-165.874 244.978) scale(.72224)"/><radialGradient r="12.672" id="u" xlink:href="#k" gradientUnits="userSpaceOnUse" gradientTransform="matrix(0 6.63662 -8.14765 0 -66.833 189.527)" fy="9.957" fx="6.2" cy="9.957" cx="6.73"/><radialGradient r="2.5" id="r" xlink:href="#l" gradientUnits="userSpaceOnUse" gradientTransform="matrix(1.5068 0 0 .26458 -145.542 264.428)" fy="43.5" fx="4.993" cy="43.5" cx="4.993"/><radialGradient r="2.5" id="s" xlink:href="#l" gradientUnits="userSpaceOnUse" gradientTransform="matrix(1.5068 0 0 .26458 151.54 -287.447)" fy="43.5" fx="4.993" cy="43.5" cx="4.993"/><linearGradient y2="39.999" y1="47.028" x2="25.058" x1="25.058" id="t" xlink:href="#m" gradientUnits="userSpaceOnUse" gradientTransform="matrix(.75197 0 0 .18899 -166.588 267.717)"/><radialGradient r="35.338" id="q" xlink:href="#l" gradientUnits="userSpaceOnUse" gradientTransform="matrix(.4118 0 0 .04492 -146.881 271.607)" fy="93.468" fx="-4.029" cy="93.468" cx="-4.029"/><linearGradient id="k"><stop offset="0" stop-color="#8cd5ff"/><stop offset=".555" stop-color="#3689e6"/><stop offset="1" stop-color="#3689e6"/></linearGradient><linearGradient y2="132" y1="196" x2="352" x1="352" id="w" xlink:href="#l" gradientUnits="userSpaceOnUse" gradientTransform="matrix(.26458 0 0 .26458 -144.52 226.1)"/><linearGradient y2="152" y1="196" x2="320" x1="320" id="y" xlink:href="#l" gradientUnits="userSpaceOnUse" gradientTransform="matrix(.26458 0 0 .26458 -144.52 225.57)"/><linearGradient y2="131" y1="196" x2="352" x1="352" id="x" xlink:href="#l" gradientUnits="userSpaceOnUse" gradientTransform="matrix(.26458 0 0 .26458 -144.52 225.835)"/></defs><g transform="translate(0 -263.133)"><g transform="rotate(-8.765 81.188 -141.781) scale(.98654)" opacity=".389" fill="none" stroke="#000" stroke-linecap="round" stroke-linejoin="round" stroke-opacity=".039"><rect width="25.83" height="29.567" x="-61.945" y="253.765" rx="1.442" ry="1.442" stroke-width=".15" paint-order="fill markers stroke"/><rect ry="1.442" rx="1.442" y="253.765" x="-61.945" height="29.567" width="25.83" stroke-width=".3" paint-order="fill markers stroke"/><rect width="25.83" height="29.567" x="-61.945" y="253.765" rx="1.442" ry="1.442" stroke-width=".45" paint-order="fill markers stroke"/><rect ry="1.442" rx="1.442" y="253.765" x="-61.945" height="29.567" width="25.83" stroke-width=".6" paint-order="fill markers stroke"/><rect width="25.83" height="29.567" x="-61.945" y="253.765" rx="1.442" ry="1.442" stroke-width=".85" paint-order="fill markers stroke"/><rect ry="1.442" rx="1.442" y="253.765" x="-61.945" height="29.567" width="25.83" paint-order="fill markers stroke"/></g><rect width="25.483" height="29.169" x="-40.457" y="264.375" rx="1.423" ry="1.423" transform="rotate(-8.764)" fill="url(#o)" stroke-width=".363" stroke-linecap="round" stroke-linejoin="round" stroke-opacity=".148" paint-order="fill markers stroke"/><path style="marker:none" d="M-133.988 275.805c0 .877-6.516 1.588-14.553 1.588-8.036 0-14.552-.71-14.552-1.588 0-.876 6.516-1.587 14.552-1.587 8.037 0 14.553.71 14.553 1.587z" color="#000" overflow="visible" opacity=".2" fill="url(#q)" stroke-width=".265" enable-background="accumulate"/><path opacity=".4" fill="url(#r)" stroke-width=".377" d="M-138.013 275.276h3.76v1.323h-3.76z"/><path transform="scale(-1)" opacity=".4" fill="url(#s)" stroke-width=".377" d="M159.068-276.599h3.76v1.323h-3.76z"/><path opacity=".4" fill="url(#t)" stroke-width=".377" d="M-159.068 275.276h21.055v1.323h-21.055z"/><rect y="248.686" x="-162.167" width="27.252" style="marker:none" ry="1.602" rx="1.602" height="27.252" color="#000" overflow="visible" fill="url(#u)" stroke="#00537d" stroke-width=".265" stroke-opacity=".498" enable-background="accumulate"/><rect y="248.95" x="-161.902" width="26.723" ry="1.323" rx="1.323" height="26.723" opacity=".4" fill="none" stroke="url(#v)" stroke-width=".265" stroke-linecap="round" stroke-linejoin="round"/><g color="#bebebe"><path d="M-55.62 256.79s-1.06 0-1.06 1.059c0 1.058-1.058 1.058-1.058 1.058s-1.058.001-1.058-1.058v11.642h-4.233l7.408 8.466 7.408-8.466h-4.233V257.85c0 1.058-1.058 1.058-1.058 1.058s-1.059 0-1.059-1.058c0-1.059-1.058-1.059-1.058-1.059z" style="marker:none" overflow="visible" opacity=".15" fill="url(#w)" stroke-width=".265" enable-background="accumulate" transform="rotate(-8.705 70.641 -190.974)"/><path d="M-55.62 256.526s-1.06 0-1.06 1.058c0 1.059-1.058 1.059-1.058 1.059s-1.058 0-1.058-1.059V269.226h-4.233l7.408 8.467 7.408-8.467h-4.233v-11.642c0 1.059-1.058 1.059-1.058 1.059s-1.059 0-1.059-1.059c0-1.058-1.058-1.058-1.058-1.058z" style="marker:none" overflow="visible" opacity=".1" fill="url(#x)" stroke="url(#y)" stroke-width=".529" stroke-linejoin="round" enable-background="accumulate" transform="rotate(-8.705 70.641 -190.974)"/><path d="M8.157 284.155l8.604 7.248 6.042-9.49-4.185.641-.48-3.14c.16 1.047-.887 1.207-.887 1.207s-1.046.16-1.206-.886c-.16-1.046-1.206-.886-1.206-.886s-1.046.16-.886 1.206c.16 1.047-.886 1.207-.886 1.207s-1.046.16-1.207-.887l.481 3.14z" style="marker:none" overflow="visible" fill="#fff" stroke-width=".265" enable-background="accumulate"/><path d="M12.106 274.985s-1.046.16-.886 1.206l.96 6.277 6.278-.96-.961-6.278c-.16-1.046-1.207-.886-1.207-.886s-1.046.16-.886 1.207c.16 1.046-.885 1.206-.885 1.206s-1.047.16-1.207-.886c-.16-1.046-1.206-.886-1.206-.886z" style="marker:none" overflow="visible" opacity=".5" fill="#fff" stroke-width=".265" enable-background="accumulate"/><path d="M13.558 270.48s-1.047.16-.886 1.206c.16 1.047-.886 1.207-.886 1.207s-1.046.16-1.207-.886l2.243 14.646 6.276-.961-2.242-14.646c.16 1.046-.886 1.206-.886 1.206s-1.046.16-1.206-.886c-.16-1.046-1.206-.886-1.206-.886z" style="marker:none" overflow="visible" opacity=".2" fill="#fff" stroke-width=".265" enable-background="accumulate"/></g></g></svg>