<svg xmlns="http://www.w3.org/2000/svg" xmlns:xlink="http://www.w3.org/1999/xlink" width="128" height="128" viewBox="0 0 128 128"><defs><linearGradient id="a"><stop offset="0" stop-color="#c8dde2"/><stop offset="1" stop-color="#a4a9ae"/></linearGradient><linearGradient xlink:href="#a" id="b" x1="594.55" y1="573.697" x2="595.107" y2="609.294" gradientUnits="userSpaceOnUse" gradientTransform="translate(-548.025 -541.395)"/></defs><g stroke-width=".2" stroke-linecap="round" stroke-linejoin="round"><path d="M13.334 31.464a9.834 9.834 0 0 0-9.856 9.857v29.263c2.229.51 4.992.192 6.358-1.145a9.018 11.63 0 0 1 5.865-2.813 9.018 11.63 0 0 1 9.02 11.631 9.018 11.63 0 0 1-9.02 11.632 9.018 11.63 0 0 1-5.968-2.926c-1.395-1.265-4.078-1.554-6.255-1.056v29.287a9.834 9.834 0 0 0 9.856 9.856H91.43a9.834 9.834 0 0 0 9.856-9.856V88.588c1.614-5.35 7.154-4.338 9.589-1.465v-.015a9.018 11.63 0 0 0 5.837 2.78 9.018 11.63 0 0 0 9.015-11.631 9.018 11.63 0 0 0-9.015-11.631 9.018 11.63 0 0 0-5.926 2.873c-2.474 2.802-7.904 3.743-9.5-1.55V41.32a9.834 9.834 0 0 0-9.856-9.856z" fill="#828d90" paint-order="fill markers stroke"/><path d="M29.722 31.259a4.09 4.09 0 0 0-4.1 4.1V47.53c.928.212 2.077.08 2.645-.477a3.751 4.838 0 0 1 2.44-1.17 3.751 4.838 0 0 1 3.752 4.838 3.751 4.838 0 0 1-3.752 4.838 3.751 4.838 0 0 1-2.483-1.216c-.58-.527-1.696-.647-2.601-.44v12.182a4.09 4.09 0 0 0 4.1 4.1h32.482a4.09 4.09 0 0 0 4.1-4.1V55.018c.67-2.224 2.975-1.804 3.988-.609v-.006a3.751 4.838 0 0 0 2.427 1.156 3.751 4.838 0 0 0 3.75-4.838 3.751 4.838 0 0 0-3.75-4.838 3.751 4.838 0 0 0-2.465 1.196c-1.028 1.165-3.287 1.556-3.95-.645V35.358a4.09 4.09 0 0 0-4.1-4.1z" fill="url(#b)" paint-order="fill markers stroke" transform="matrix(2.4042 0 0 2.4042 -58.124 -45.756)"/></g><path d="M74.097 46.367c-4.147-2.2-9.096-2.888-13.862-1.545-9.54 2.688-14.746 12.493-11.629 21.901a18.08 18.08 0 0 0 1.685 3.666l-17.776 33.47 1.411 4.258 5.73 3.042 8.635-2.433 2.908-5.476-1.412-4.258 4.319-1.216-1.412-4.26 4.32-1.216-1.413-4.26 8.637-2.433 3.216-6.057a18.424 18.424 0 0 0 4.065-.665c9.54-2.688 14.745-12.493 11.628-21.902-1.558-4.704-4.903-8.416-9.05-10.616zm-3.316 6.168a4.682 4.682 0 0 1 2.263 2.654 4.25 4.25 0 0 1-2.907 5.474c-2.382.672-4.951-.693-5.73-3.042a4.25 4.25 0 0 1 2.907-5.474 4.686 4.686 0 0 1 3.467.388z" fill="#fff" stroke-width=".917"/><path fill="red" fill-opacity="0" d="M-98.691-20.677H15.11V92.882H-98.691z"/></svg>