<svg xmlns="http://www.w3.org/2000/svg" xmlns:xlink="http://www.w3.org/1999/xlink" width="128" height="128" viewBox="0 0 128 128"><defs><linearGradient id="b"><stop offset="0" stop-color="#ea5621"/><stop offset="1" stop-color="#ff9b38"/></linearGradient><linearGradient id="a"><stop offset="0" stop-color="#cb4e21"/><stop offset="1" stop-color="#ff9b38"/></linearGradient><linearGradient xlink:href="#a" id="f" x1="-741.832" y1="959.047" x2="-741.832" y2="93.836" gradientUnits="userSpaceOnUse" gradientTransform="matrix(.13668 0 0 .13668 162.312 -5.99)"/><linearGradient xlink:href="#b" id="g" x1="-722.891" y1="875.879" x2="-738.764" y2="152.131" gradientUnits="userSpaceOnUse" gradientTransform="matrix(.13668 0 0 .13668 162.312 -5.99)"/><linearGradient id="e"><stop offset="0" stop-color="#f37329"/><stop offset="1" stop-color="#e95420"/></linearGradient><linearGradient id="d"><stop offset="0" stop-color="#3d3d3d"/><stop offset=".5" stop-color="#686868" stop-opacity=".498"/><stop offset="1" stop-color="#686868" stop-opacity="0"/></linearGradient><linearGradient id="c"><stop offset="0" stop-color="#fff"/><stop offset=".424" stop-color="#fff" stop-opacity=".235"/><stop offset=".821" stop-color="#fff" stop-opacity=".157"/><stop offset="1" stop-color="#fff" stop-opacity=".392"/></linearGradient></defs><circle cx="63.592" cy="64.286" r="61.38" fill="url(#f)" stroke-width=".787" stroke-linecap="round" stroke-linejoin="round"/><circle r="55.09" cy="64.286" cx="63.592" fill="url(#g)" stroke-width=".706" stroke-linecap="round" stroke-linejoin="round"/><path d="M60.137 35.786L46.793 42.51l13.344 6.72 6.703-3.437v-3.346c0-.06 0-.092.031-.123 0 0 0-.029.03-.029 0-.03.03-.061.03-.092 0-.03.03-.03.03-.03l.062-.063.03-.03.03-.031h.062l2.71-1.35zm21.525.201l-9.68 4.86-.576.307-.576.275-2.459 1.252 2.46 1.223.575.306.577.276 1.94.978.518.275.516.245 6.705 3.392 13.293-6.695zm-36.056 7.075l-.518.244-12.855 6.476 12.703 6.416.152.061.518.246.517-.246 12.826-6.477-6.336-3.191-2.408-1.197zm22.128.414v9.752l6.19 3.119.517.275.243.121h.06c.03 0 .03.032.03.032.03 0 .03.03.03.03l.061.061.032.032c.03.03.029.06.029.091 0 0 0 .03.031.03 0 .03.03.09.03.152l-.03.338v3.057l6.19 3.117V50.294l-6.19-3.119-.516-.275-.517-.276-3.094-1.558-.578-.305-.576-.307zm27.858.031L82.18 50.294v13.389l1.941-.979.576-.304.577-.276 10.318-5.197zM66.84 46.989l-5.574 2.793 5.574 2.825zm-6.844 3.55l-.515.275-12.776 6.42 6.069 3.056 6.707 3.393.515.244.516-.244 9.164-4.615.576-.307.578-.275 2.457-1.252-5.553-2.784-.515-.273-.516-.246-6.191-3.117zm-28.404.103v13.445l.06.031.58.276 12.856 6.476V57.427l-.06-.031-.61-.307zm14.474 7.447v13.39l.061.03.578.275 6.068 3.057 6.708 3.395V64.845l-.061-.031-.578-.305-6.31-3.18zm27.858 0l-1.941.979-.577.275-.576.305-9.681 4.861-.577.305-.06.03v13.392l12.775-6.452.576-.275.06-.03zm1.232 3.48v9.27l12.827-6.477-2.467-1.257-3.383 1.718c-.03 0-.03 0-.06.032h-.032c-.091.061-.151.06-.182.06-.03 0-.092 0-.123-.031h-.029c-.03 0-.03.001-.06-.03zm-43.564 3.684v13.443l13.496 6.786V72.036zm57 0l-13.465 6.783v13.446l13.465-6.786zm-42.469 7.305v13.445l.06.031.58.307 12.827 6.445V79.343l-.063-.031-.578-.307zm27.967 0l-12.824 6.447-.58.307-.061.031v13.443l12.826-6.445.578-.307.06-.03z" fill="#fff"/></svg>