<svg viewBox="0 0 320 320" xmlns="http://www.w3.org/2000/svg" fill-rule="evenodd" clip-rule="evenodd" stroke-linejoin="round" stroke-miterlimit="1.414"><g transform="matrix(0 5.95349 6.09524 0 -53.333 -63.256)"><ellipse cx="37.5" cy="35" rx="21.5" ry="21" fill="none"/><clipPath id="a"><ellipse cx="37.5" cy="35" rx="21.5" ry="21"/></clipPath><g clip-path="url(#a)"><g transform="matrix(0 .40385 .45263 0 -.295 -3.365)"><ellipse cx="95" cy="83.5" rx="52" ry="47.5" fill="url(#b)"/><clipPath id="c"><ellipse cx="95" cy="83.5" rx="52" ry="47.5"/></clipPath><g clip-path="url(#c)"><path d="M117.295 108.604H79.153l-10.647 16.031H48.265l53.001-74.812h18.72l20.124 74.812h-18.954l-3.861-16.031zm-3.159-13.146l-6.903-28.856-19.305 28.856h26.208z" fill="#fff" fill-opacity=".882" fill-rule="nonzero"/></g><path d="M95.168 36l.168.001.168.001.168.002.167.002.168.003.167.003.167.004.167.004.167.004.167.005.167.006.166.006.167.006.166.007.166.008.166.008.166.008.166.009.165.009.166.01.165.011.165.01.165.012.165.011.165.013.165.012.164.013.164.014.165.014.164.014.164.015.163.016.164.016.163.016.164.017.163.017.163.018.162.018.163.019.163.019.162.02.162.02.162.02.162.021.162.022.161.021.162.023.161.022.161.024.161.023.161.025.16.024.161.025.16.026.16.025.16.027.159.027.16.027.159.028.16.028.159.028.159.029.158.03.159.03.158.03.158.031.158.031.158.032.158.032.157.032.158.033.157.034.157.033.156.035.157.034.156.036.156.035.156.036.156.037.156.036.155.038.155.037.156.038.154.039.155.039.155.039.154.04.154.04.154.041.154.041.153.042.153.042.153.042.153.043.153.043.153.044.152.044.152.044.152.045.152.045.151.046.151.046.151.046.151.047.151.048.15.047.151.049.15.048.15.049.149.049.15.05.149.05.149.051.149.051.148.051.148.052.149.052.147.053.148.053.148.053.147.054.147.054.147.055.146.055.147.055.146.056.146.056.145.057.146.057.145.057.145.058.145.058.144.059.145.058.144.06.143.059.144.06.143.061.144.061.142.061.143.062.143.062.142.062.142.063.141.063.142.063.141.064.141.065.141.064.14.065.141.066.14.066.139.066.14.066.139.067.139.067.139.068.138.068.139.069.138.068.138.069.137.07.137.07.137.07.137.071.137.071.136.071.136.072.136.072.135.072.135.073.135.073.135.074.134.074.134.074.134.074.134.075.133.076.133.075.133.076.133.077.132.076.132.078.132.077.131.078.131.078.131.078.131.079.13.079.13.08.13.08.13.08.129.081.129.081.129.081.128.082.128.081.128.083.128.082.127.083.127.084.127.083.126.084.126.085.126.084.126.085.125.086.125.085.125.086.124.087.124.086.124.087.124.088.123.088.123.088.123.088.122.089.122.089.122.089.121.089.121.09.121.091.121.09.12.091.12.092.12.091.119.092.119.092.119.093.118.093.118.093.118.093.118.094.117.094.117.095.116.095.116.095.116.095.116.096.115.096.115.096.115.097.114.097.114.097.114.098.113.097.113.099.113.098.113.099.112.099.112.099.111.1.111.1.111.1.11.101.11.101.11.101.11.102.109.101.109.103.108.102.108.103.108.103.108.103.107.103.107.104.106.104.106.105.106.105.105.105.106.105.104.106.105.106.104.106.104.106.103.107.103.107.103.107.102.108.102.108.102.108.101.108.101.109.101.109.1.109.1.11.1.11.099.11.099.11.098.111.098.111.098.111.097.112.097.112.097.112.097.112.096.112.095.113.095.113.095.114.095.113.094.114.094.115.093.114.093.115.093.115.092.115.092.115.092.116.091.116.091.116.09.117.09.117.09.117.09.117.089.118.088.118.088.118.088.118.088.119.087.118.086.12.087.119.086.119.085.12.085.12.085.121.084.12.084.121.084.121.083.122.083.121.083.122.082.122.081.122.082.123.08.123.081.123.08.123.08.123.079.124.079.124.078.124.079.125.077.124.078.125.076.126.077.125.076.126.076.125.075.126.075.127.074.126.074.127.074.127.073.127.073.128.073.127.072.128.071.128.071.129.071.128.071.129.07.129.069.129.069.13.069.129.068.13.068.13.068.131.067.13.066.131.066.131.066.131.066.132.064.131.065.132.064.132.064.132.063.133.063.132.062.133.062.133.061.134.061.133.061.134.06.134.06.134.059.134.059.134.059.135.058.135.057.135.057.135.057.136.056.136.056.136.056.136.054.136.055.136.054.137.054.137.053.137.052.137.053.138.052.137.051.138.051.138.05.138.05.139.05.138.049.139.049.139.048.139.048.139.047.14.047.14.046.14.046.14.045.14.045.14.045.141.044.141.044.14.043.142.042.141.043.141.041.142.042.142.04.142.041.142.04.142.039.143.039.142.038.143.038.143.038.143.037.144.036.143.037.144.035.144.035.144.035.144.034.144.034.145.033.144.033.145.032.145.032.145.031.146.031.145.03.146.03.145.029.146.029.146.029.147.027.146.028.146.027.147.026.147.026.147.025.147.025.147.025.148.024.147.023.148.023.148.023.148.022.148.021.148.021.149.02.148.02.149.02.149.019.149.018.149.018.149.017.15.017.149.017.15.016.15.015.15.015.15.014.15.014.15.013.151.013.151.013.15.011.151.012.151.01.151.011.152.009.151.01.152.008.151.008.152.008.152.007.152.007.152.006.152.005.153.005.152.005.153.004.153.003.152.003.153.003.153.002.154.001.153.001.153v.308l-.001.153-.001.153-.002.154-.003.153-.003.153-.003.152-.004.153-.005.153-.005.152-.005.153-.006.152-.007.152-.007.152-.008.152-.008.152-.008.151-.01.152-.009.151-.011.152-.01.151-.012.151-.011.151-.013.15-.013.151-.013.151-.014.15-.014.15-.015.15-.015.15-.016.15-.017.15-.017.149-.017.15-.018.149-.018.149-.019.149-.02.149-.02.149-.02.148-.021.149-.021.148-.022.148-.023.148-.023.148-.023.148-.024.147-.025.148-.025.147-.025.147-.026.147-.026.147-.027.147-.028.146-.027.146-.029.147-.029.146-.029.146-.03.145-.03.146-.031.145-.031.146-.032.145-.032.145-.033.145-.033.144-.034.145-.034.144-.035.144-.035.144-.035.144-.037.144-.036.143-.037.144-.038.143-.038.143-.038.143-.039.142-.039.143-.04.142-.041.142-.04.142-.042.142-.041.142-.043.141-.042.141-.043.142-.044.14-.044.141-.045.141-.045.14-.045.14-.046.14-.046.14-.047.14-.047.14-.048.139-.048.139-.049.139-.049.139-.05.138-.05.139-.05.138-.051.138-.051.138-.052.137-.053.138-.052.137-.053.137-.054.137-.054.137-.055.136-.054.136-.056.136-.056.136-.056.136-.057.136-.057.135-.057.135-.058.135-.059.135-.059.134-.059.134-.06.134-.06.134-.061.134-.061.133-.061.134-.062.133-.062.133-.063.132-.063.133-.064.132-.064.132-.065.132-.064.131-.066.132-.066.131-.066.131-.066.131-.067.13-.068.131-.068.13-.068.13-.069.129-.069.13-.069.129-.07.129-.071.129-.071.128-.071.129-.071.128-.072.128-.073.127-.073.128-.073.127-.074.127-.074.127-.074.126-.075.127-.075.126-.076.125-.076.126-.077.125-.076.126-.078.125-.077.124-.079.125-.078.124-.079.124-.079.124-.08.123-.08.123-.081.123-.08.123-.082.123-.081.122-.082.122-.083.122-.083.121-.083.122-.084.121-.084.121-.084.12-.085.121-.085.12-.085.12-.086.119-.087.119-.086.12-.087.118-.088.119-.088.118-.088.118-.088.118-.089.118-.09.117-.09.117-.09.117-.09.117-.091.116-.091.116-.092.116-.092.115-.092.115-.093.115-.093.115-.093.114-.094.115-.094.114-.095.113-.095.114-.095.113-.095.113-.096.112-.097.112-.097.112-.097.112-.097.112-.098.111-.098.111-.098.111-.099.11-.099.11-.1.11-.1.11-.1.109-.101.109-.101.109-.101.108-.102.108-.102.108-.102.108-.103.107-.103.107-.103.107-.104.106-.104.106-.105.106-.104.106-.106.105-.105.105-.106.105-.106.105-.106.104-.107.104-.107.103-.108.103-.108.103-.108.103-.108.102-.109.103-.109.101-.11.102-.11.101-.11.101-.11.101-.111.1-.111.1-.111.1-.112.099-.112.099-.113.099-.113.098-.113.099-.113.097-.114.098-.114.097-.114.097-.115.097-.115.096-.115.096-.116.096-.116.095-.116.095-.116.095-.117.095-.117.094-.118.094-.118.093-.118.093-.118.093-.119.093-.119.092-.119.092-.12.091-.12.092-.12.091-.121.09-.121.091-.121.09-.121.089-.122.089-.122.089-.122.089-.123.088-.123.088-.123.088-.124.088-.124.087-.124.086-.124.087-.125.086-.125.085-.125.086-.126.085-.126.084-.126.085-.126.084-.127.083-.127.084-.127.083-.128.082-.128.083-.128.081-.128.082-.129.081-.129.081-.129.081-.13.08-.13.08-.13.08-.13.079-.131.079-.131.078-.131.078-.131.078-.132.077-.132.078-.132.076-.133.077-.133.076-.133.075-.133.076-.134.075-.134.074-.134.074-.134.074-.135.074-.135.073-.135.073-.135.072-.136.072-.136.072-.136.071-.137.071-.137.071-.137.07-.137.07-.137.07-.138.069-.138.068-.139.069-.138.068-.139.068-.139.067-.139.067-.14.066-.139.066-.14.066-.141.066-.14.065-.141.064-.141.065-.141.064-.142.063-.141.063-.142.063-.142.062-.143.062-.143.062-.142.061-.144.061-.143.061-.144.06-.143.059-.144.06-.145.058-.144.059-.145.058-.145.058-.145.057-.146.057-.145.057-.146.056-.146.056-.147.055-.146.055-.147.055-.147.054-.147.054-.148.053-.148.053-.147.053-.149.052-.148.052-.148.051-.149.051-.149.051-.149.05-.15.05-.149.049-.15.049-.15.048-.151.049-.15.047-.151.048-.151.047-.151.046-.151.046-.151.046-.152.045-.152.045-.152.044-.152.044-.153.044-.153.043-.153.043-.153.042-.153.042-.153.042-.154.041-.154.041-.154.04-.154.04-.155.039-.155.039-.154.039-.156.038-.155.037-.155.038-.156.036-.156.037-.156.036-.156.035-.156.036-.157.034-.156.035-.157.033-.157.034-.158.033-.157.032-.158.032-.158.032-.158.031-.158.031-.158.03-.159.03-.158.03-.159.029-.159.028-.16.028-.159.028-.16.027-.159.027-.16.027-.16.025-.16.026-.161.025-.16.024-.161.025-.161.023-.161.024-.161.022-.162.023-.161.021-.162.022-.162.021-.162.02-.162.02-.162.02-.163.019-.163.019-.162.018-.163.018-.163.017-.164.017-.163.016-.164.016-.163.016-.164.015-.164.014-.165.014-.164.014-.164.013-.165.012-.165.013-.165.011-.165.012-.165.01-.165.011-.166.01-.165.009-.166.009-.166.008-.166.008-.166.008-.166.007-.167.006-.166.006-.167.006-.167.005-.167.004-.167.004-.167.004-.167.003-.168.003-.167.002-.168.002-.168.001-.168.001h-.336l-.168-.001-.168-.001-.168-.002-.167-.002-.168-.003-.167-.003-.167-.004-.167-.004-.167-.004-.167-.005-.167-.006-.166-.006-.167-.006-.166-.007-.166-.008-.166-.008-.166-.008-.166-.009-.165-.009-.166-.01-.165-.011-.165-.01-.165-.012-.165-.011-.165-.013-.165-.012-.164-.013-.164-.014-.165-.014-.164-.014-.164-.015-.163-.016-.164-.016-.163-.016-.164-.017-.163-.017-.163-.018-.162-.018-.163-.019-.163-.019-.162-.02-.162-.02-.162-.02-.162-.021-.162-.022-.161-.021-.162-.023-.161-.022-.161-.024-.161-.023-.161-.025-.16-.024-.161-.025-.16-.026-.16-.025-.16-.027-.159-.027-.16-.027-.159-.028-.16-.028-.159-.028-.159-.029-.158-.03-.159-.03-.158-.03-.158-.031-.158-.031-.158-.032-.158-.032-.157-.032-.158-.033-.157-.034-.157-.033-.156-.035-.157-.034-.156-.036-.156-.035-.156-.036-.156-.037-.156-.036-.155-.038-.155-.037-.156-.038-.154-.039-.155-.039-.155-.039-.154-.04-.154-.04-.154-.041-.154-.041-.153-.042-.153-.042-.153-.042-.153-.043-.153-.043-.153-.044-.152-.044-.152-.044-.152-.045-.152-.045-.151-.046-.151-.046-.151-.046-.151-.047-.151-.048-.15-.047-.151-.049-.15-.048-.15-.049-.149-.049-.15-.05-.149-.05-.149-.051-.149-.051-.148-.051-.148-.052-.149-.052-.147-.053-.148-.053-.148-.053-.147-.054-.147-.054-.147-.055-.146-.055-.147-.055-.146-.056-.146-.056-.145-.057-.146-.057-.145-.057-.145-.058-.145-.058-.144-.059-.145-.058-.144-.06-.143-.059-.144-.06-.143-.061-.144-.061-.142-.061-.143-.062-.143-.062-.142-.062-.142-.063-.141-.063-.142-.063-.141-.064-.141-.065-.141-.064-.14-.065-.141-.066-.14-.066-.139-.066-.14-.066-.139-.067-.139-.067-.139-.068-.138-.068-.139-.069-.138-.068-.138-.069-.137-.07-.137-.07-.137-.07-.137-.071-.137-.071-.136-.071-.136-.072-.136-.072-.135-.072-.135-.073-.135-.073-.135-.074-.134-.074-.134-.074-.134-.074-.134-.075-.133-.076-.133-.075-.133-.076-.133-.077-.132-.076-.132-.078-.132-.077-.131-.078-.131-.078-.131-.078-.131-.079-.13-.079-.13-.08-.13-.08-.13-.08-.129-.081-.129-.081-.129-.081-.128-.082-.128-.081-.128-.083-.128-.082-.127-.083-.127-.084-.127-.083-.126-.084-.126-.085-.126-.084-.126-.085-.125-.086-.125-.085-.125-.086-.124-.087-.124-.086-.124-.087-.124-.088-.123-.088-.123-.088-.123-.088-.122-.089-.122-.089-.122-.089-.121-.089-.121-.09-.121-.091-.121-.09-.12-.091-.12-.092-.12-.091-.119-.092-.119-.092-.119-.093-.118-.093-.118-.093-.118-.093-.118-.094-.117-.094-.117-.095-.116-.095-.116-.095-.116-.095-.116-.096-.115-.096-.115-.096-.115-.097-.114-.097-.114-.097-.114-.098-.113-.097-.113-.099-.113-.098-.113-.099-.112-.099-.112-.099-.111-.1-.111-.1-.111-.1-.11-.101-.11-.101-.11-.101-.11-.102-.109-.101-.109-.103-.108-.102-.108-.103-.108-.103-.108-.103-.107-.103-.107-.104-.106-.104-.106-.105-.106-.105-.105-.105-.106-.105-.104-.106-.105-.106-.104-.106-.104-.106-.103-.107-.103-.107-.103-.107-.102-.108-.102-.108-.102-.108-.101-.108-.101-.109-.101-.109-.1-.109-.1-.11-.1-.11-.099-.11-.099-.11-.098-.111-.098-.111-.098-.111-.097-.112-.097-.112-.097-.112-.097-.112-.096-.112-.095-.113-.095-.113-.095-.114-.095-.113-.094-.114-.094-.115-.093-.114-.093-.115-.093-.115-.092-.115-.092-.115-.092-.116-.091-.116-.091-.116-.09-.117-.09-.117-.09-.117-.09-.117-.089-.118-.088-.118-.088-.118-.088-.118-.088-.119-.087-.118-.086-.12-.087-.119-.086-.119-.085-.12-.085-.12-.085-.121-.084-.12-.084-.121-.084-.121-.083-.122-.083-.121-.083-.122-.082-.122-.081-.122-.082-.123-.08-.123-.081-.123-.08-.123-.08-.123-.079-.124-.079-.124-.078-.124-.079-.125-.077-.124-.078-.125-.076-.126-.077-.125-.076-.126-.076-.125-.075-.126-.075-.127-.074-.126-.074-.127-.074-.127-.073-.127-.073-.128-.073-.127-.072-.128-.071-.128-.071-.129-.071-.128-.071-.129-.07-.129-.069-.129-.069-.13-.069-.129-.068-.13-.068-.13-.068-.131-.067-.13-.066-.131-.066-.131-.066-.131-.066-.132-.064-.131-.065-.132-.064-.132-.064-.132-.063-.133-.063-.132-.062-.133-.062-.133-.061-.134-.061-.133-.061-.134-.06-.134-.06-.134-.059-.134-.059-.134-.059-.135-.058-.135-.057-.135-.057-.135-.057-.136-.056-.136-.056-.136-.056-.136-.054-.136-.055-.136-.054-.137-.054-.137-.053-.137-.052-.137-.053-.138-.052-.137-.051-.138-.051-.138-.05-.138-.05-.139-.05-.138-.049-.139-.049-.139-.048-.139-.048-.139-.047-.14-.047-.14-.046-.14-.046-.14-.045-.14-.045-.14-.045-.141-.044-.141-.044-.14-.043-.142-.042-.141-.043-.141-.041-.142-.042-.142-.04-.142-.041-.142-.04-.142-.039-.143-.039-.142-.038-.143-.038-.143-.038-.143-.037-.144-.036-.143-.037-.144-.035-.144-.035-.144-.035-.144-.034-.144-.034-.145-.033-.144-.033-.145-.032-.145-.032-.145-.031-.146-.031-.145-.03-.146-.03-.145-.029-.146-.029-.146-.029-.147-.027-.146-.028-.146-.027-.147-.026-.147-.026-.147-.025-.147-.025-.147-.025-.148-.024-.147-.023-.148-.023-.148-.023-.148-.022-.148-.021-.148-.021-.149-.02-.148-.02-.149-.02-.149-.019-.149-.018-.149-.018-.149-.017-.15-.017-.149-.017-.15-.016-.15-.015-.15-.015-.15-.014-.15-.014-.15-.013-.151-.013-.151-.013-.15-.011-.151-.012-.151-.01-.151-.011-.152-.009-.151-.01-.152-.008-.151-.008-.152-.008-.152-.007-.152-.007-.152-.006-.152-.005-.153-.005-.152-.005-.153-.004-.153-.003-.152-.003-.153-.003-.153-.002-.154-.001-.153-.001-.153v-.308l.001-.153.001-.153.002-.154.003-.153.003-.153.003-.152.004-.153.005-.153.005-.152.005-.153.006-.152.007-.152.007-.152.008-.152.008-.152.008-.151.01-.152.009-.151.011-.152.01-.151.012-.151.011-.151.013-.15.013-.151.013-.151.014-.15.014-.15.015-.15.015-.15.016-.15.017-.15.017-.149.017-.15.018-.149.018-.149.019-.149.02-.149.02-.149.02-.148.021-.149.021-.148.022-.148.023-.148.023-.148.023-.148.024-.147.025-.148.025-.147.025-.147.026-.147.026-.147.027-.147.028-.146.027-.146.029-.147.029-.146.029-.146.03-.145.03-.146.031-.145.031-.146.032-.145.032-.145.033-.145.033-.144.034-.145.034-.144.035-.144.035-.144.035-.144.037-.144.036-.143.037-.144.038-.143.038-.143.038-.143.039-.142.039-.143.04-.142.041-.142.04-.142.042-.142.041-.142.043-.141.042-.141.043-.142.044-.14.044-.141.045-.141.045-.14.045-.14.046-.14.046-.14.047-.14.047-.14.048-.139.048-.139.049-.139.049-.139.05-.138.05-.139.05-.138.051-.138.051-.138.052-.137.053-.138.052-.137.053-.137.054-.137.054-.137.055-.136.054-.136.056-.136.056-.136.056-.136.057-.136.057-.135.057-.135.058-.135.059-.135.059-.134.059-.134.06-.134.06-.134.061-.134.061-.133.061-.134.062-.133.062-.133.063-.132.063-.133.064-.132.064-.132.065-.132.064-.131.066-.132.066-.131.066-.131.066-.131.067-.13.068-.131.068-.13.068-.13.069-.129.069-.13.069-.129.07-.129.071-.129.071-.128.071-.129.071-.128.072-.128.073-.127.073-.128.073-.127.074-.127.074-.127.074-.126.075-.127.075-.126.076-.125.076-.126.077-.125.076-.126.078-.125.077-.124.079-.125.078-.124.079-.124.079-.124.08-.123.08-.123.081-.123.08-.123.082-.123.081-.122.082-.122.083-.122.083-.121.083-.122.084-.121.084-.121.084-.12.085-.121.085-.12.085-.12.086-.119.087-.119.086-.12.087-.118.088-.119.088-.118.088-.118.088-.118.089-.118.09-.117.09-.117.09-.117.09-.117.091-.116.091-.116.092-.116.092-.115.092-.115.093-.115.093-.115.093-.114.094-.115.094-.114.095-.113.095-.114.095-.113.095-.113.096-.112.097-.112.097-.112.097-.112.097-.112.098-.111.098-.111.098-.111.099-.11.099-.11.1-.11.1-.11.1-.109.101-.109.101-.109.101-.108.102-.108.102-.108.102-.108.103-.107.103-.107.103-.107.104-.106.104-.106.105-.106.104-.106.106-.105.105-.105.106-.105.106-.105.106-.104.107-.104.107-.103.108-.103.108-.103.108-.103.108-.102.109-.103.109-.101.11-.102.11-.101.11-.101.11-.101.111-.1.111-.1.111-.1.112-.099.112-.099.113-.099.113-.098.113-.099.113-.097.114-.098.114-.097.114-.097.115-.097.115-.096.115-.096.116-.096.116-.095.116-.095.116-.095.117-.095.117-.094.118-.094.118-.093.118-.093.118-.093.119-.093.119-.092.119-.092.12-.091.12-.092.12-.091.121-.09.121-.091.121-.09.121-.089.122-.089.122-.089.122-.089.123-.088.123-.088.123-.088.124-.088.124-.087.124-.086.124-.087.125-.086.125-.085.125-.086.126-.085.126-.084.126-.085.126-.084.127-.083.127-.084.127-.083.128-.082.128-.083.128-.081.128-.082.129-.081.129-.081.129-.081.13-.08.13-.08.13-.08.13-.079.131-.079.131-.078.131-.078.131-.078.132-.077.132-.078.132-.076.133-.077.133-.076.133-.075.133-.076.134-.075.134-.074.134-.074.134-.074.135-.074.135-.073.135-.073.135-.072.136-.072.136-.072.136-.071.137-.071.137-.071.137-.07.137-.07.137-.07.138-.069.138-.068.139-.069.138-.068.139-.068.139-.067.139-.067.14-.066.139-.066.14-.066.141-.066.14-.065.141-.064.141-.065.141-.064.142-.063.141-.063.142-.063.142-.062.143-.062.143-.062.142-.061.144-.061.143-.061.144-.06.143-.059.144-.06.145-.058.144-.059.145-.058.145-.058.145-.057.146-.057.145-.057.146-.056.146-.056.147-.055.146-.055.147-.055.147-.054.147-.054.148-.053.148-.053.147-.053.149-.052.148-.052.148-.051.149-.051.149-.051.149-.05.15-.05.149-.049.15-.049.15-.048.151-.049.15-.047.151-.048.151-.047.151-.046.151-.046.151-.046.152-.045.152-.045.152-.044.152-.044.153-.044.153-.043.153-.043.153-.042.153-.042.153-.042.154-.041.154-.041.154-.04.154-.04.155-.039.155-.039.154-.039.156-.038.155-.037.155-.038.156-.036.156-.037.156-.036.156-.035.156-.036.157-.034.156-.035.157-.033.157-.034.158-.033.157-.032.158-.032.158-.032.158-.031.158-.031.158-.03.159-.03.158-.03.159-.029.159-.028.16-.028.159-.028.16-.027.159-.027.16-.027.16-.025.16-.026.161-.025.16-.024.161-.025.161-.023.161-.024.161-.022.162-.023.161-.021.162-.022.162-.021.162-.02.162-.02.162-.02.163-.019.163-.019.162-.018.163-.018.163-.017.164-.017.163-.016.164-.016.163-.016.164-.015.164-.014.165-.014.164-.014.164-.013.165-.012.165-.013.165-.011.165-.012.165-.01.165-.011.166-.01.165-.009.166-.009.166-.008.166-.008.166-.008.166-.007.167-.006.166-.006.167-.006.167-.005.167-.004.167-.004.167-.004.167-.003.168-.003.167-.002.168-.002.168-.001.168-.001h.336zm-.321 4.453l-.152.001-.153.001-.152.002-.152.002-.152.002-.152.003-.152.003-.151.004-.152.004-.151.005-.151.005-.152.005-.151.006-.15.006-.151.007-.151.007-.15.008-.15.008-.151.009-.15.009-.15.009-.149.01-.15.01-.15.011-.149.011-.149.011-.149.012-.149.012-.149.013-.149.013-.148.014-.149.014-.148.014-.148.015-.148.015-.148.016-.148.016-.147.017-.148.016-.147.018-.147.018-.147.018-.147.018-.146.019-.147.02-.146.019-.146.021-.147.02-.145.021-.146.022-.146.022-.145.022-.146.023-.145.023-.145.023-.145.024-.144.024-.145.025-.144.025-.144.025-.144.026-.144.027-.144.026-.144.027-.143.028-.143.028-.143.028-.143.029-.143.029-.143.029-.142.03-.142.03-.142.031-.142.031-.142.031-.142.032-.141.032-.141.033-.141.033-.141.033-.141.034-.141.034-.14.035-.14.035-.14.035-.14.036-.14.036-.139.036-.14.037-.139.037-.139.038-.139.038-.138.038-.139.039-.138.039-.138.039-.138.04-.138.04-.137.041-.138.041-.137.041-.137.042-.137.042-.136.043-.137.043-.136.043-.136.043-.136.044-.136.045-.135.044-.135.045-.135.046-.135.046-.135.046-.135.046-.134.047-.134.048-.134.047-.134.048-.133.049-.134.048-.133.049-.133.05-.132.05-.133.05-.132.05-.132.051-.132.051-.132.052-.132.052-.131.052-.131.053-.131.053-.131.053-.13.054-.13.054-.131.054-.129.055-.13.055-.129.056-.13.056-.129.056-.129.056-.128.057-.129.057-.128.058-.128.058-.127.058-.128.059-.127.058-.127.06-.127.059-.127.06-.126.061-.126.06-.126.061-.126.061-.125.062-.126.062-.125.062-.125.063-.124.063-.125.063-.124.064-.124.064-.123.064-.124.065-.123.065-.123.065-.123.066-.122.066-.123.066-.122.067-.121.067-.122.067-.121.068-.122.068-.12.068-.121.068-.12.069-.121.07-.119.069-.12.07-.12.07-.119.071-.119.071-.118.071-.119.071-.118.072-.118.072-.118.072-.117.073-.117.073-.117.074-.117.073-.116.074-.116.075-.116.074-.116.075-.115.075-.116.076-.114.076-.115.076-.114.076-.115.077-.113.077-.114.078-.113.077-.113.078-.113.079-.113.078-.112.079-.112.079-.112.08-.111.08-.112.08-.111.08-.11.081-.111.081-.11.081-.11.082-.109.082-.11.082-.109.082-.108.083-.109.083-.108.083-.108.084-.108.084-.107.084-.107.085-.107.084-.107.086-.106.085-.106.086-.106.086-.105.086-.105.086-.105.087-.105.087-.104.087-.104.088-.103.088-.104.088-.103.089-.103.089-.102.089-.103.089-.102.089-.101.09-.102.09-.101.091-.101.091-.1.091-.1.091-.1.091-.1.092-.099.092-.099.093-.099.092-.098.093-.098.093-.098.094-.097.093-.098.094-.096.094-.097.095-.096.095-.096.095-.096.095-.095.095-.095.096-.095.096-.094.096-.094.097-.094.097-.094.097-.093.097-.093.098-.092.098-.092.098-.092.098-.092.099-.091.099-.091.099-.091.099-.09.1-.09.099-.089.101-.09.1-.089.101-.088.1-.089.102-.088.101-.087.101-.088.102-.087.102-.087.103-.086.102-.086.103-.086.103-.085.103-.085.104-.085.104-.084.104-.084.104-.084.104-.083.105-.083.105-.083.105-.082.106-.082.105-.082.106-.081.106-.081.107-.081.106-.08.107-.08.107-.08.107-.079.108-.079.108-.079.108-.078.108-.078.108-.078.109-.077.109-.077.109-.076.109-.076.11-.076.109-.075.11-.075.111-.075.11-.075.111-.074.11-.073.112-.074.111-.072.111-.073.112-.072.112-.072.112-.072.112-.071.113-.071.113-.07.113-.07.113-.07.113-.069.114-.069.114-.069.114-.068.114-.068.114-.067.115-.067.115-.067.115-.066.115-.066.116-.066.115-.065.116-.065.116-.065.117-.064.116-.063.117-.064.117-.063.117-.062.117-.063.117-.062.118-.061.118-.061.118-.061.118-.06.119-.06.118-.06.119-.059.119-.059.119-.058.12-.058.119-.058.12-.057.12-.057.12-.056.121-.056.12-.056.121-.055.121-.055.121-.055.121-.054.121-.054.122-.053.122-.053.122-.053.122-.052.122-.051.123-.052.123-.051.122-.05.123-.05.124-.05.123-.049.124-.049.123-.049.124-.048.125-.048.124-.047.124-.047.125-.047.125-.046.125-.045.125-.046.125-.045.126-.044.125-.044.126-.044.126-.043.126-.043.126-.042.127-.042.127-.042.126-.041.127-.041.127-.04.128-.04.127-.039.128-.039.128-.039.127-.038.129-.038.128-.037.128-.037.129-.037.128-.036.129-.036.129-.035.13-.035.129-.034.129-.034.13-.034.13-.033.13-.032.13-.033.13-.031.131-.032.13-.031.131-.03.131-.03.131-.03.131-.029.131-.029.132-.028.131-.028.132-.028.132-.027.132-.026.132-.026.132-.026.133-.025.132-.025.133-.024.133-.024.133-.024.133-.023.133-.022.134-.023.133-.021.134-.021.134-.021.134-.021.134-.019.134-.02.134-.019.135-.018.135-.018.134-.018.135-.017.135-.017.135-.016.136-.016.135-.015.136-.015.135-.015.136-.014.136-.013.136-.013.137-.013.136-.012.136-.011.137-.011.137-.011.136-.01.137-.01.137-.009.138-.009.137-.009.137-.008.138-.007.138-.007.137-.006.138-.006.138-.006.139-.005.138-.004.138-.005.139-.003.138-.003.139-.003.139-.002.139-.002.139-.001.139-.001.14v.278l.001.14.001.139.002.139.002.139.003.139.003.139.003.138.005.139.004.138.005.138.006.139.006.138.006.138.007.137.007.138.008.138.009.137.009.137.009.138.01.137.01.137.011.136.011.137.011.137.012.136.013.136.013.137.013.136.014.136.015.136.015.135.015.136.016.135.016.136.017.135.017.135.018.135.018.134.018.135.019.135.02.134.019.134.021.134.021.134.021.134.021.134.023.133.022.134.023.133.024.133.024.133.024.133.025.133.025.132.026.133.026.132.026.132.027.132.028.132.028.132.028.131.029.132.029.131.03.131.03.131.03.131.031.131.032.13.031.131.033.13.032.13.033.13.034.13.034.13.034.129.035.129.035.13.036.129.036.128.037.129.037.129.037.128.038.128.038.128.039.128.039.128.039.128.04.127.04.128.041.127.041.127.042.126.042.127.042.127.043.126.043.126.044.126.044.126.044.125.045.126.046.125.045.125.046.125.047.125.047.125.047.124.048.124.048.125.049.124.049.123.049.124.05.123.05.123.05.124.051.122.052.123.051.123.052.122.053.122.053.122.053.122.054.122.054.121.055.121.055.121.055.121.056.121.056.12.056.121.057.12.057.12.058.12.058.119.058.12.059.119.059.119.06.119.06.118.06.119.061.118.061.118.061.118.062.118.063.117.062.117.063.117.064.117.063.117.064.116.065.117.065.116.065.116.066.115.066.116.066.115.067.115.067.115.067.115.068.114.068.114.069.114.069.114.069.114.07.113.07.113.07.113.071.113.071.113.072.112.072.112.072.112.073.112.072.111.074.111.073.112.074.11.075.111.075.11.075.111.075.11.076.109.076.11.076.109.077.109.077.109.078.109.078.108.078.108.079.108.079.108.079.107.08.108.08.107.08.107.08.106.082.107.081.106.082.106.082.105.082.106.083.105.083.105.083.105.084.104.084.104.084.104.085.104.085.104.085.103.086.103.086.103.086.102.087.103.087.102.088.102.087.101.088.101.089.102.088.1.089.101.09.1.089.101.09.099.09.1.091.099.091.099.091.099.092.099.092.098.092.098.092.098.093.098.093.097.094.097.094.097.094.097.094.096.095.096.095.096.095.095.096.095.096.095.096.095.097.095.096.094.098.094.097.093.098.094.098.093.098.093.099.092.099.093.099.092.1.092.1.091.1.091.1.091.101.091.101.09.102.091.101.09.102.089.103.089.102.089.103.089.103.089.104.088.103.088.104.087.105.088.104.087.105.087.105.086.105.086.106.086.106.086.106.085.107.086.107.084.107.085.107.084.108.084.108.084.108.083.109.083.108.083.11.082.109.082.109.082.11.082.11.081.111.081.11.081.112.08.111.081.111.079.112.08.112.079.112.079.113.078.113.079.113.078.113.077.114.078.113.077.115.077.114.076.115.076.114.076.116.076.115.075.116.075.116.074.116.075.116.074.117.073.117.074.117.073.118.073.117.072.118.072.118.072.119.071.118.071.119.071.12.071.119.07.12.07.12.069.12.07.12.069.121.068.121.068.121.068.121.068.122.067.121.067.122.067.123.066.122.066.123.066.123.065.123.065.124.065.123.064.124.064.124.064.125.063.124.063.125.063.125.062.125.062.126.062.126.061.126.061.126.06.126.061.127.06.127.059.127.06.127.058.128.059.127.058.128.058.129.058.128.057.128.057.129.056.129.056.13.056.129.056.13.055.129.055.131.054.13.054.13.054.131.053.131.053.131.053.131.052.132.052.132.052.132.051.132.051.132.05.133.05.132.05.133.05.134.049.133.048.133.049.134.048.134.047.134.048.134.047.135.046.135.046.135.046.135.046.135.045.135.044.136.045.136.044.136.043.136.043.137.043.136.043.137.042.137.042.137.041.138.041.137.041.138.04.138.04.138.039.138.039.139.039.138.038.139.038.139.038.139.037.14.037.139.036.14.036.14.036.14.035.14.035.14.035.141.034.141.034.141.033.141.033.141.033.141.032.142.032.142.031.142.031.142.031.142.03.142.03.143.029.143.029.143.029.143.028.143.028.143.028.144.027.144.026.144.027.144.026.144.025.144.025.145.025.144.024.145.024.145.023.145.023.146.023.145.022.146.022.146.022.145.021.147.02.146.021.146.019.147.02.146.019.147.018.147.018.147.018.147.018.148.016.147.017.148.016.148.016.148.015.148.015.148.014.149.014.148.014.149.013.149.013.149.012.149.012.149.011.149.011.15.011.15.01.149.01.15.009.15.009.15.009.151.008.15.008.151.007.151.007.151.006.15.006.152.005.151.005.151.005.152.004.151.004.152.003.152.003.152.002.152.002.152.002.153.001.152.001h.306l.152-.001.153-.001.152-.002.152-.002.152-.002.152-.003.152-.003.151-.004.152-.004.151-.005.151-.005.152-.005.15-.006.151-.006.151-.007.151-.007.15-.008.151-.008.15-.009.15-.009.15-.009.149-.01.15-.01.15-.011.149-.011.149-.011.149-.012.149-.012.149-.013.149-.013.148-.014.149-.014.148-.014.148-.015.148-.015.148-.016.148-.016.147-.017.148-.016.147-.018.147-.018.147-.018.147-.018.146-.019.147-.02.146-.019.146-.021.147-.02.145-.021.146-.022.146-.022.145-.022.146-.023.145-.023.145-.023.145-.024.144-.024.145-.025.144-.025.144-.025.144-.026.144-.027.144-.026.144-.027.143-.028.143-.028.143-.028.143-.029.143-.029.143-.029.142-.03.142-.03.142-.031.142-.031.142-.031.142-.032.141-.032.141-.033.141-.033.141-.033.141-.034.141-.034.14-.035.14-.035.14-.035.14-.036.14-.036.139-.036.14-.037.139-.037.139-.038.139-.038.138-.038.139-.039.138-.039.138-.039.138-.04.138-.04.137-.041.138-.041.137-.041.137-.042.137-.042.136-.043.137-.043.136-.043.136-.043.136-.044.136-.045.135-.044.135-.045.135-.046.135-.046.135-.046.135-.046.134-.047.134-.048.134-.047.134-.048.133-.049.133-.048.134-.049.133-.05.132-.05.133-.05.132-.05.132-.051.132-.051.132-.052.132-.052.131-.052.131-.053.131-.053.131-.053.13-.054.13-.054.131-.054.129-.055.13-.055.129-.056.13-.056.129-.056.129-.056.128-.057.128-.057.129-.058.128-.058.127-.058.128-.059.127-.058.127-.06.127-.059.127-.06.126-.061.126-.06.126-.061.126-.061.125-.062.126-.062.125-.062.125-.063.124-.063.125-.063.124-.064.124-.064.123-.064.124-.065.123-.065.123-.065.123-.066.122-.066.123-.066.122-.067.121-.067.122-.067.121-.068.121-.068.121-.068.121-.068.12-.069.121-.07.119-.069.12-.07.119-.07.12-.071.119-.071.118-.071.119-.071.118-.072.118-.072.117-.072.118-.073.117-.073.117-.074.117-.073.116-.074.116-.075.116-.074.116-.075.115-.075.116-.076.114-.076.115-.076.114-.076.115-.077.113-.077.114-.078.113-.077.113-.078.113-.079.113-.078.112-.079.112-.079.112-.08.111-.079.111-.081.112-.08.11-.081.111-.081.11-.081.11-.082.109-.082.109-.082.11-.082.108-.083.109-.083.108-.083.108-.084.108-.084.107-.084.107-.085.107-.084.107-.085.106-.086.106-.086.106-.085.105-.087.105-.086.105-.087.104-.087.105-.088.104-.087.103-.088.104-.088.103-.089.103-.089.102-.089.103-.089.102-.089.101-.09.102-.09.101-.091.101-.091.1-.091.1-.091.1-.091.1-.092.099-.092.099-.093.099-.092.098-.093.098-.093.098-.094.097-.093.098-.094.096-.094.097-.095.096-.095.096-.095.096-.095.095-.095.095-.096.095-.096.094-.096.094-.097.094-.097.094-.097.093-.097.093-.098.092-.098.092-.098.092-.098.092-.099.091-.099.091-.099.091-.099.09-.1.09-.099.089-.101.09-.1.089-.101.088-.1.089-.102.088-.101.088-.102.087-.101.087-.102.087-.103.086-.102.086-.103.086-.103.085-.103.085-.104.085-.104.084-.104.084-.104.084-.105.083-.104.083-.105.083-.105.083-.106.081-.105.082-.106.081-.106.081-.107.081-.106.08-.107.08-.107.08-.108.079-.107.079-.108.079-.108.078-.108.078-.108.077-.109.078-.109.077-.109.076-.109.076-.11.076-.109.075-.11.075-.111.075-.11.075-.111.074-.11.073-.112.074-.111.072-.111.073-.112.072-.112.072-.112.072-.112.071-.113.071-.113.07-.113.07-.113.07-.113.069-.114.069-.114.069-.114.068-.114.068-.114.067-.115.067-.115.067-.115.066-.115.066-.116.066-.115.065-.116.065-.116.065-.117.064-.116.063-.117.064-.117.063-.117.063-.117.062-.117.062-.118.061-.118.061-.118.061-.118.06-.119.06-.118.06-.119.059-.119.059-.119.058-.12.058-.119.058-.12.057-.12.057-.12.056-.121.056-.12.056-.121.055-.121.055-.121.055-.121.054-.122.054-.121.053-.122.053-.122.053-.122.052-.122.051-.123.052-.123.051-.122.05-.124.05-.123.05-.123.049-.124.049-.123.049-.124.048-.125.048-.124.047-.124.047-.125.047-.125.046-.125.045-.125.046-.125.045-.126.044-.125.044-.126.044-.126.043-.126.043-.126.042-.127.042-.127.042-.126.041-.127.041-.128.04-.127.04-.127.039-.128.039-.127.039-.128.038-.129.038-.128.037-.128.037-.129.037-.128.036-.129.036-.129.035-.13.035-.129.034-.129.034-.13.034-.13.033-.13.032-.13.033-.13.031-.131.032-.13.031-.131.03-.131.03-.131.03-.131.029-.131.029-.132.028-.131.028-.132.028-.132.027-.132.026-.132.026-.132.026-.133.025-.132.025-.133.024-.133.024-.133.024-.133.023-.133.022-.134.023-.133.021-.134.021-.134.021-.134.021-.134.019-.134.02-.135.019-.134.018-.135.018-.134.018-.135.017-.135.017-.135.016-.136.016-.135.015-.136.015-.135.015-.136.014-.136.013-.136.013-.137.013-.136.012-.136.011-.137.012-.137.01-.136.01-.137.01-.137.009-.138.009-.137.009-.137.008-.138.007-.138.007-.137.006-.138.006-.138.006-.139.005-.138.004-.138.005-.139.003-.138.003-.139.003-.139.002-.139.002-.139.001-.139.001-.14v-.278l-.001-.14-.001-.139-.002-.139-.002-.139-.003-.139-.003-.139-.003-.138-.005-.139-.004-.138-.005-.138-.006-.139-.006-.138-.006-.138-.007-.137-.007-.138-.008-.138-.009-.137-.009-.137-.009-.138-.01-.137-.01-.137-.01-.136-.012-.137-.011-.137-.012-.136-.013-.136-.013-.137-.013-.136-.014-.136-.015-.136-.015-.135-.015-.136-.016-.135-.016-.136-.017-.135-.017-.135-.018-.135-.018-.134-.018-.135-.019-.134-.02-.135-.019-.134-.021-.134-.021-.134-.021-.134-.021-.134-.023-.133-.022-.134-.023-.133-.024-.133-.024-.133-.024-.133-.025-.133-.025-.132-.026-.133-.026-.132-.026-.132-.027-.132-.028-.132-.028-.132-.028-.131-.029-.132-.029-.131-.03-.131-.03-.131-.03-.131-.031-.131-.032-.13-.031-.131-.033-.13-.032-.13-.033-.13-.034-.13-.034-.13-.034-.129-.035-.129-.035-.13-.036-.129-.036-.129-.037-.128-.037-.129-.037-.128-.038-.128-.038-.129-.039-.127-.039-.128-.039-.128-.04-.127-.04-.127-.041-.128-.041-.127-.042-.126-.042-.127-.042-.127-.043-.126-.043-.126-.044-.126-.044-.126-.044-.125-.045-.126-.046-.125-.045-.125-.046-.125-.047-.125-.047-.125-.047-.124-.048-.124-.048-.125-.049-.124-.049-.123-.049-.124-.05-.123-.05-.123-.05-.124-.051-.122-.052-.123-.051-.123-.052-.122-.053-.122-.053-.122-.053-.122-.054-.122-.054-.121-.055-.121-.055-.121-.055-.121-.056-.121-.056-.12-.056-.121-.057-.12-.057-.12-.058-.12-.058-.119-.058-.12-.059-.119-.059-.119-.06-.119-.06-.118-.06-.119-.061-.118-.061-.118-.061-.118-.062-.118-.062-.117-.063-.117-.063-.117-.064-.117-.063-.117-.064-.116-.065-.117-.065-.116-.065-.116-.066-.115-.066-.116-.066-.115-.067-.115-.067-.115-.067-.115-.068-.114-.068-.114-.069-.114-.069-.114-.069-.114-.07-.113-.07-.113-.07-.113-.071-.113-.071-.113-.072-.112-.072-.112-.072-.112-.073-.112-.072-.111-.074-.111-.073-.112-.074-.11-.075-.111-.075-.11-.075-.111-.075-.11-.076-.109-.076-.11-.076-.109-.077-.109-.078-.109-.077-.109-.078-.108-.078-.108-.079-.108-.079-.108-.079-.107-.08-.108-.08-.107-.08-.107-.081-.106-.081-.107-.081-.106-.082-.106-.081-.105-.083-.106-.083-.105-.083-.105-.083-.104-.084-.105-.084-.104-.084-.104-.085-.104-.085-.104-.085-.103-.086-.103-.086-.103-.086-.102-.087-.103-.087-.102-.087-.101-.088-.102-.088-.102-.089-.101-.088-.1-.089-.101-.09-.1-.089-.101-.09-.099-.09-.1-.091-.099-.091-.099-.091-.099-.092-.099-.092-.098-.092-.098-.092-.098-.093-.098-.093-.097-.094-.097-.094-.097-.094-.097-.094-.096-.095-.096-.095-.096-.095-.095-.096-.095-.096-.095-.096-.095-.097-.095-.096-.094-.098-.094-.097-.093-.098-.094-.098-.093-.098-.093-.099-.092-.099-.093-.099-.092-.1-.092-.1-.091-.1-.091-.1-.091-.101-.091-.101-.091-.102-.09-.101-.089-.102-.09-.103-.089-.102-.089-.103-.089-.103-.089-.104-.088-.103-.088-.104-.087-.105-.088-.104-.087-.105-.087-.105-.086-.105-.087-.106-.085-.106-.086-.106-.086-.107-.085-.107-.084-.107-.085-.107-.084-.108-.084-.108-.084-.108-.083-.109-.083-.108-.083-.109-.082-.11-.082-.109-.082-.11-.082-.11-.081-.111-.081-.111-.081-.11-.08-.112-.08-.111-.08-.112-.08-.112-.079-.112-.079-.113-.078-.113-.079-.113-.078-.113-.077-.114-.078-.113-.077-.115-.077-.114-.076-.115-.076-.114-.076-.116-.076-.115-.075-.116-.075-.116-.074-.116-.075-.116-.074-.117-.073-.117-.074-.117-.073-.117-.073-.118-.072-.118-.072-.118-.072-.119-.071-.118-.071-.119-.071-.119-.071-.12-.07-.12-.07-.119-.069-.121-.07-.12-.069-.121-.068-.12-.068-.122-.068-.121-.068-.121-.067-.122-.067-.122-.067-.123-.066-.122-.066-.123-.066-.123-.065-.123-.065-.124-.065-.123-.064-.124-.064-.124-.064-.125-.063-.124-.063-.125-.063-.125-.062-.126-.062-.125-.062-.126-.061-.126-.061-.126-.06-.126-.061-.127-.06-.127-.059-.127-.06-.127-.058-.128-.059-.127-.058-.128-.058-.129-.058-.128-.057-.128-.057-.129-.056-.129-.056-.129-.056-.13-.056-.13-.055-.129-.055-.131-.054-.13-.054-.13-.054-.131-.053-.131-.053-.131-.053-.131-.052-.132-.052-.132-.052-.132-.051-.132-.051-.132-.05-.133-.05-.132-.05-.133-.05-.133-.049-.134-.048-.133-.049-.134-.048-.134-.047-.134-.048-.134-.047-.135-.046-.135-.046-.135-.046-.135-.045-.135-.046-.135-.044-.136-.045-.136-.044-.136-.043-.136-.043-.137-.043-.136-.043-.137-.042-.137-.042-.137-.041-.138-.041-.137-.041-.138-.04-.138-.04-.138-.039-.138-.039-.139-.039-.138-.038-.139-.038-.139-.038-.139-.037-.14-.037-.139-.036-.14-.036-.14-.036-.14-.035-.14-.035-.14-.035-.141-.034-.141-.034-.141-.033-.141-.033-.141-.033-.141-.032-.142-.032-.142-.031-.142-.031-.142-.031-.142-.03-.142-.03-.143-.029-.143-.029-.143-.029-.143-.028-.143-.028-.143-.028-.144-.027-.144-.026-.144-.027-.144-.026-.144-.025-.144-.025-.145-.025-.144-.024-.145-.024-.145-.023-.145-.023-.146-.023-.145-.022-.146-.022-.146-.022-.145-.021-.147-.02-.146-.021-.146-.019-.147-.02-.146-.019-.147-.018-.147-.018-.147-.018-.147-.018-.148-.016-.147-.017-.148-.016-.148-.016-.148-.015-.148-.015-.148-.014-.149-.014-.148-.014-.149-.013-.149-.013-.149-.012-.149-.012-.149-.011-.149-.011-.15-.011-.15-.01-.149-.01-.15-.009-.15-.009-.151-.009-.15-.008-.15-.008-.151-.007-.151-.007-.15-.006-.151-.006-.152-.005-.151-.005-.151-.005-.152-.004-.151-.004-.152-.003-.152-.003-.152-.002-.152-.002-.152-.002-.153-.001-.152-.001h-.306z" fill-opacity=".086"/></g></g><path d="M16 35.068v.068l.001.068.001.067.001.068.001.068.001.067.002.068.002.067.002.068.002.067.003.067.003.068.002.067.004.067.003.067.004.067.003.067.004.067.005.067.004.067.005.066.005.067.005.067.005.066.006.067.005.066.006.067.006.066.007.066.006.067.007.066.007.066.007.066.008.066.007.066.008.066.008.066.008.065.009.066.009.066.008.065.009.066.01.065.009.066.01.065.01.065.01.065.01.065.011.065.01.065.011.065.011.065.012.065.011.065.012.064.012.065.012.064.012.065.013.064.013.065.013.064.013.064.013.064.014.064.013.064.014.064.014.064.015.063.014.064.015.064.015.063.015.064.015.063.016.063.016.063.015.064.017.063.016.063.016.063.017.062.017.063.017.063.017.063.018.062.017.063.018.062.018.062.018.062.019.063.018.062.019.062.019.062.019.061.02.062.019.062.02.061.02.062.02.061.02.062.021.061.021.061.02.061.021.061.022.061.021.061.022.061.021.061.022.06.023.061.022.06.023.06.022.061.023.06.023.06.023.06.024.06.024.06.023.059.024.06.024.06.025.059.024.059.025.06.025.059.025.059.025.059.026.059.025.059.026.058.026.059.026.059.026.058.027.058.027.059.026.058.027.058.028.058.027.058.028.058.027.057.028.058.028.058.028.057.029.057.028.058.029.057.029.057.029.057.03.056.029.057.03.057.029.056.03.057.03.056.031.056.03.057.031.056.031.056.031.055.031.056.031.056.031.055.032.056.032.055.032.055.032.055.032.055.033.055.032.055.033.055.033.054.033.055.033.054.034.055.033.054.034.054.034.054.034.054.035.053.034.054.034.054.035.053.035.053.035.054.035.053.036.053.035.053.036.052.036.053.036.052.036.053.036.052.037.052.036.053.037.051.037.052.037.052.037.052.038.051.037.052.038.051.038.051.038.051.038.051.039.051.038.051.039.05.038.051.039.05.039.05.04.051.039.05.04.049.039.05.04.05.04.049.04.05.041.049.04.049.041.049.04.049.041.049.041.049.041.048.042.049.041.048.042.048.041.048.042.048.042.048.043.048.042.047.042.048.043.047.043.047.043.047.043.047.043.047.043.047.044.046.043.047.044.046.044.046.044.046.044.046.044.046.045.046.044.045.045.046.045.045.045.045.045.045.045.045.046.045.045.044.046.045.046.044.046.044.046.044.046.044.046.044.047.044.046.043.047.044.047.043.047.043.047.043.047.043.048.043.047.042.048.043.048.042.048.042.048.042.048.042.048.042.049.042.048.041.049.041.049.042.049.041.049.041.049.04.05.041.049.041.05.04.049.04.05.04.05.04.05.04.05.04.051.039.05.039.051.04.051.039.05.039.051.038.051.039.052.038.051.039.051.038.052.038.052.038.051.037.052.038.052.038.053.037.052.037.052.037.053.037.052.036.053.037.053.036.053.037.053.036.053.036.054.035.053.036.054.035.053.036.054.035.054.035.054.035.054.035.054.034.055.034.054.035.055.034.055.034.054.033.055.034.055.034.055.033.056.033.055.033.055.033.056.032.056.033.056.032.055.032.056.032.057.032.056.032.056.032.057.031.056.031.057.031.056.031.057.031.057.03.057.031.058.03.057.03.057.03.058.03.057.029.058.03.058.029.058.029.058.029.058.029.058.028.058.029.059.028.058.028.059.028.058.028.059.027.059.028.059.027.059.027.059.027.06.027.059.026.059.027.06.026.06.026.059.026.06.026.06.025.06.025.06.026.061.025.06.024.06.025.061.025.06.024.061.024.061.024.061.024.061.023.061.024.061.023.061.023.062.023.061.023.061.022.062.023.062.022.062.022.061.022.062.021.062.022.063.021.062.021.062.021.062.021.063.02.062.021.063.02.063.02.063.02.062.019.063.02.064.019.063.019.063.019.063.019.064.018.063.019.064.018.063.018.064.018.064.017.064.018.064.017.064.017.064.017.064.017.064.016.064.016.065.016.064.016.065.016.065.016.064.015.065.015.065.015.065.015.065.014.065.015.065.014.066.014.065.014.065.013.066.014.065.013.066.013.066.013.065.013.066.012.066.012.066.012.066.012.066.012.066.011.067.011.066.012.066.01.067.011.066.011.067.01.067.01.066.01.067.009.067.01.067.009.067.009.067.009.067.009.067.008.068.008.067.008.067.008.068.008.067.007.068.008.067.007.068.006.068.007.068.007.068.006.067.006.068.006.069.005.068.006.068.005.068.005.068.004.069.005.068.004.069.004.068.004.069.004.068.004.069.003.069.003.069.003.068.003.069.002.069.002.069.002.069.002.07.002.069.001.069.001.069.001.07.001.069.001h.278l.069-.001.07-.001.069-.001.069-.001.069-.001.07-.002.069-.002.069-.002.069-.002.069-.002.068-.003.069-.003.069-.003.069-.003.068-.004.069-.004.068-.004.069-.004.068-.004.069-.005.068-.004.068-.005.068-.005.068-.006.069-.005.068-.006.067-.006.068-.006.068-.007.068-.007.068-.006.067-.007.068-.008.067-.007.068-.008.067-.008.067-.008.068-.008.067-.008.067-.009.067-.009.067-.009.067-.009.067-.01.067-.009.066-.01.067-.01.067-.01.066-.011.067-.011.066-.01.066-.012.067-.011.066-.011.066-.012.066-.012.066-.012.066-.012.066-.012.065-.013.066-.013.066-.013.065-.013.066-.014.065-.013.065-.014.066-.014.065-.014.065-.015.065-.014.065-.015.065-.015.065-.015.064-.015.065-.016.065-.016.064-.016.065-.016.064-.016.064-.016.064-.017.064-.017.064-.017.064-.017.064-.018.064-.017.064-.018.063-.018.064-.018.063-.019.064-.018.063-.019.063-.019.063-.019.064-.019.063-.02.062-.019.063-.02.063-.02.063-.02.062-.021.063-.02.062-.021.062-.021.062-.021.063-.021.062-.022.062-.021.061-.022.062-.022.062-.022.062-.023.061-.022.061-.023.062-.023.061-.023.061-.023.061-.024.061-.023.061-.024.061-.024.061-.024.06-.024.061-.025.06-.025.06-.024.061-.025.06-.026.06-.025.06-.025.06-.026.059-.026.06-.026.06-.026.059-.027.059-.026.06-.027.059-.027.059-.027.059-.027.059-.028.059-.027.058-.028.059-.028.058-.028.059-.028.058-.029.058-.028.058-.029.058-.029.058-.029.058-.029.058-.03.057-.029.058-.03.057-.03.057-.03.058-.03.057-.031.057-.03.057-.031.056-.031.057-.031.056-.031.057-.031.056-.032.056-.032.057-.032.056-.032.055-.032.056-.032.056-.033.056-.032.055-.033.055-.033.056-.033.055-.033.055-.034.055-.034.054-.033.055-.034.055-.034.054-.035.055-.034.054-.034.054-.035.054-.035.054-.035.054-.035.053-.036.054-.035.053-.036.054-.035.053-.036.053-.036.053-.037.053-.036.053-.037.052-.036.053-.037.052-.037.052-.037.053-.037.052-.038.052-.038.051-.037.052-.038.052-.038.051-.038.051-.039.052-.038.051-.039.051-.038.05-.039.051-.039.051-.04.05-.039.051-.039.05-.04.05-.04.05-.04.05-.04.049-.04.05-.04.049-.041.05-.041.049-.04.049-.041.049-.041.049-.042.049-.041.048-.041.049-.042.048-.042.048-.042.048-.042.048-.042.048-.042.048-.043.047-.042.048-.043.047-.043.047-.043.047-.043.047-.043.047-.044.046-.043.047-.044.046-.044.046-.044.046-.044.046-.044.046-.044.046-.045.045-.044.046-.045.045-.045.045-.045.045-.045.045-.045.045-.046.044-.045.045-.046.044-.046.044-.046.044-.046.044-.046.044-.046.043-.047.044-.046.043-.047.043-.047.043-.047.043-.047.043-.047.043-.047.042-.048.042-.047.043-.048.042-.048.042-.048.041-.048.042-.048.041-.048.042-.049.041-.048.041-.049.041-.049.04-.049.041-.049.04-.049.041-.049.04-.05.04-.049.04-.05.039-.05.04-.049.039-.05.04-.051.039-.05.039-.05.038-.051.039-.05.038-.051.039-.051.038-.051.038-.051.038-.051.038-.051.037-.052.038-.051.037-.052.037-.052.037-.052.037-.051.036-.053.037-.052.036-.052.036-.053.036-.052.036-.053.036-.052.035-.053.036-.053.035-.053.035-.054.035-.053.035-.053.034-.054.034-.054.035-.053.034-.054.034-.054.034-.054.033-.054.034-.055.033-.054.033-.055.033-.054.033-.055.032-.055.033-.055.032-.055.032-.055.032-.055.032-.055.032-.056.031-.055.031-.056.031-.056.031-.055.031-.056.031-.056.03-.057.031-.056.03-.056.03-.057.029-.056.03-.057.029-.057.03-.056.029-.057.029-.057.029-.057.028-.058.029-.057.028-.057.028-.058.028-.058.027-.057.028-.058.027-.058.028-.058.027-.058.026-.058.027-.059.027-.058.026-.058.026-.059.026-.059.026-.058.025-.059.026-.059.025-.059.025-.059.025-.059.025-.06.024-.059.025-.059.024-.06.024-.06.023-.059.024-.06.024-.06.023-.06.023-.06.023-.06.022-.061.023-.06.022-.06.023-.061.022-.06.021-.061.022-.061.021-.061.022-.061.021-.061.02-.061.021-.061.021-.061.02-.062.02-.061.02-.062.02-.061.019-.062.02-.062.019-.061.019-.062.019-.062.018-.062.019-.063.018-.062.018-.062.018-.062.017-.063.018-.062.017-.063.017-.063.017-.063.017-.062.016-.063.016-.063.017-.063.015-.064.016-.063.016-.063.015-.063.015-.064.015-.063.015-.064.014-.064.015-.063.014-.064.014-.064.013-.064.014-.064.013-.064.013-.064.013-.064.013-.065.013-.064.012-.065.012-.064.012-.065.012-.064.011-.065.012-.065.011-.065.011-.065.01-.065.011-.065.01-.065.01-.065.01-.065.01-.065.009-.066.01-.065.009-.066.008-.065.009-.066.009-.066.008-.065.008-.066.008-.066.007-.066.008-.066.007-.066.007-.066.007-.066.006-.067.007-.066.006-.066.006-.067.005-.066.006-.067.005-.066.005-.067.005-.067.005-.066.004-.067.005-.067.004-.067.003-.067.004-.067.003-.067.004-.067.002-.067.003-.068.003-.067.002-.067.002-.068.002-.067.002-.068.001-.067.001-.068.001-.068.001-.067.001-.068v-.272l-.001-.068-.001-.067-.001-.068-.001-.068-.001-.067-.002-.068-.002-.067-.002-.068-.002-.067-.003-.067-.003-.068-.002-.067-.004-.067-.003-.067-.004-.067-.003-.067-.004-.067-.005-.067-.004-.067-.005-.066-.005-.067-.005-.067-.005-.066-.006-.067-.005-.066-.006-.067-.006-.066-.007-.066-.006-.067-.007-.066-.007-.066-.007-.066-.008-.066-.007-.066-.008-.066-.008-.066-.008-.065-.009-.066-.009-.066-.008-.065-.009-.066-.01-.065-.009-.066-.01-.065-.01-.065-.01-.065-.01-.065-.011-.065-.01-.065-.011-.065-.011-.065-.012-.065-.011-.065-.012-.064-.012-.065-.012-.064-.012-.065-.013-.064-.013-.065-.013-.064-.013-.064-.013-.064-.014-.064-.013-.064-.014-.064-.014-.064-.015-.063-.014-.064-.015-.064-.015-.063-.015-.064-.015-.063-.016-.063-.016-.063-.015-.064-.017-.063-.016-.063-.016-.063-.017-.062-.017-.063-.017-.063-.017-.063-.018-.062-.017-.063-.018-.062-.018-.062-.018-.062-.019-.063-.018-.062-.019-.062-.019-.062-.019-.061-.02-.062-.019-.062-.02-.061-.02-.062-.02-.061-.02-.062-.021-.061-.021-.061-.02-.061-.021-.061-.022-.061-.021-.061-.022-.061-.021-.061-.022-.06-.023-.061-.022-.06-.023-.06-.022-.061-.023-.06-.023-.06-.023-.06-.024-.06-.024-.06-.023-.059-.024-.06-.024-.06-.025-.059-.024-.059-.025-.06-.025-.059-.025-.059-.025-.059-.026-.059-.025-.059-.026-.058-.026-.059-.026-.059-.026-.058-.027-.058-.027-.059-.026-.058-.027-.058-.028-.058-.027-.058-.028-.058-.027-.057-.028-.058-.028-.058-.028-.057-.029-.057-.028-.058-.029-.057-.029-.057-.029-.057-.03-.056-.029-.057-.03-.057-.029-.056-.03-.057-.03-.056-.031-.056-.03-.057-.031-.056-.031-.056-.031-.055-.031-.056-.031-.056-.031-.055-.032-.056-.032-.055-.032-.055-.032-.055-.032-.055-.033-.055-.032-.055-.033-.055-.033-.054-.033-.055-.033-.054-.034-.055-.033-.054-.034-.054-.034-.054-.034-.054-.035-.053-.034-.054-.034-.054-.035-.053-.035-.053-.035-.054-.035-.053-.036-.053-.035-.053-.036-.052-.036-.053-.036-.052-.036-.053-.036-.052-.037-.052-.036-.053-.037-.051-.037-.052-.037-.052-.037-.052-.038-.051-.037-.052-.038-.051-.038-.051-.038-.051-.038-.051-.039-.051-.038-.051-.039-.05-.038-.051-.039-.05-.039-.05-.04-.051-.039-.05-.04-.049-.039-.05-.04-.05-.04-.049-.04-.05-.041-.049-.04-.049-.041-.049-.04-.049-.041-.049-.041-.049-.041-.048-.042-.049-.041-.048-.042-.048-.041-.048-.042-.048-.042-.048-.043-.048-.042-.047-.042-.048-.043-.047-.043-.047-.043-.047-.043-.047-.043-.047-.043-.047-.044-.046-.043-.047-.044-.046-.044-.046-.044-.046-.044-.046-.044-.046-.045-.046-.044-.045-.045-.046-.045-.045-.045-.045-.045-.045-.045-.045-.046-.045-.045-.044-.046-.045-.046-.044-.046-.044-.046-.044-.046-.044-.046-.044-.047-.044-.046-.043-.047-.044-.047-.043-.047-.043-.047-.043-.047-.043-.048-.043-.047-.042-.048-.043-.048-.042-.048-.042-.048-.042-.048-.042-.048-.042-.049-.042-.048-.041-.049-.041-.049-.042-.049-.041L51.42 19l-.049-.04-.05-.041-.049-.041-.05-.04-.049-.04-.05-.04-.05-.04-.05-.04-.05-.04-.051-.039-.05-.039-.051-.04-.051-.039-.05-.039-.051-.038-.051-.039-.052-.038-.051-.039-.051-.038-.052-.038-.052-.038-.051-.037-.052-.038-.052-.038-.053-.037-.052-.037-.052-.037-.053-.037-.052-.036-.053-.037-.053-.036-.053-.037-.053-.036-.053-.036-.054-.035-.053-.036-.054-.035-.053-.036-.054-.035-.054-.035-.054-.035-.054-.035-.054-.034-.055-.034-.054-.035-.055-.034-.055-.034-.054-.033-.055-.034-.055-.034-.055-.033-.056-.033-.055-.033-.055-.033-.056-.032-.056-.033-.056-.032-.055-.032-.056-.032-.057-.032-.056-.032-.056-.032-.057-.031-.056-.031-.057-.031-.056-.031-.057-.031-.057-.03-.057-.031-.058-.03-.057-.03-.057-.03-.058-.03-.057-.029-.058-.03-.058-.029-.058-.029-.058-.029-.058-.029-.058-.028-.058-.029-.059-.028-.058-.028-.059-.028-.058-.028-.059-.027-.059-.028-.059-.027-.059-.027-.059-.027-.06-.027-.059-.026-.059-.027-.06-.026-.06-.026-.059-.026-.06-.026-.06-.025-.06-.025-.06-.026-.061-.025-.06-.024-.06-.025-.061-.025-.06-.024-.061-.024-.061-.024-.061-.024-.061-.023-.061-.024-.061-.023-.061-.023-.062-.023-.061-.023-.061-.022-.062-.023-.062-.022-.062-.022-.061-.022-.062-.021-.062-.022-.063-.021-.062-.021-.062-.021-.062-.021-.063-.02-.062-.021-.063-.02-.063-.02-.063-.02-.062-.019-.063-.02-.064-.019-.063-.019-.063-.019-.063-.019-.064-.018-.063-.019-.064-.018-.063-.018-.064-.018-.064-.017-.064-.018-.064-.017-.064-.017-.064-.017-.064-.017-.064-.016-.064-.016-.065-.016-.064-.016-.065-.016-.065-.016-.064-.015-.065-.015-.065-.015-.065-.015-.065-.014-.065-.015-.065-.014-.066-.014-.065-.014-.065-.013-.066-.014-.065-.013-.066-.013-.066-.013-.065-.013-.066-.012-.066-.012-.066-.012-.066-.012-.066-.012-.066-.011-.067-.011-.066-.012-.066-.01-.067-.011-.066-.011-.067-.01-.067-.01-.066-.01-.067-.009-.067-.01-.067-.009-.067-.009-.067-.009-.067-.009-.067-.008-.068-.008-.067-.008-.067-.008-.068-.008-.067-.007-.068-.008-.067-.007-.068-.006-.068-.007-.068-.007-.068-.006-.067-.006-.068-.006-.069-.005-.068-.006-.068-.005-.068-.005-.068-.004-.069-.005-.068-.004-.069-.004-.068-.004-.069-.004-.068-.004-.069-.003-.069-.003-.069-.003-.068-.003-.069-.002-.069-.002-.069-.002-.069-.002-.07-.002-.069-.001-.069-.001-.069-.001-.07-.001-.069-.001h-.278l-.069.001-.07.001-.069.001-.069.001-.069.001-.07.002-.069.002-.069.002-.069.002-.069.002-.068.003-.069.003-.069.003-.069.003-.068.004-.069.004-.068.004-.069.004-.068.004-.069.005-.068.004-.068.005-.068.005-.068.006-.069.005-.068.006-.067.006-.068.006-.068.007-.068.007-.068.006-.067.007-.068.008-.067.007-.068.008-.067.008-.067.008-.068.008-.067.008-.067.009-.067.009-.067.009-.067.009-.067.01-.067.009-.066.01-.067.01-.067.01-.066.011-.067.011-.066.01-.066.012-.067.011-.066.011-.066.012-.066.012-.066.012-.066.012-.066.012-.065.013-.066.013-.066.013-.065.013-.066.014-.065.013-.065.014-.066.014-.065.014-.065.015-.065.014-.065.015-.065.015-.065.015-.064.015-.065.016-.065.016-.064.016-.065.016-.064.016-.064.016-.064.017-.064.017-.064.017-.064.017-.064.018-.064.017-.064.018-.063.018-.064.018-.063.019-.064.018-.063.019-.063.019-.063.019-.064.019-.063.02-.062.019-.063.02-.063.02-.063.02-.062.021-.063.02-.062.021-.062.021-.062.021-.063.021-.062.022-.062.021-.061.022-.062.022-.062.022-.062.023-.061.022-.061.023-.062.023-.061.023-.061.023-.061.024-.061.023-.061.024-.061.024-.061.024-.06.024-.061.025-.06.025-.06.024-.061.025-.06.026-.06.025-.06.025-.06.026-.059.026-.06.026-.06.026-.059.027-.059.026-.06.027-.059.027-.059.027-.059.027-.059.028-.059.027-.058.028-.059.028-.058.028-.059.028-.058.029-.058.028-.058.029-.058.029-.058.029-.058.029-.058.03-.057.029-.058.03-.057.03-.057.03-.058.03-.057.031-.057.03-.057.031-.056.031-.057.031-.056.031-.057.031-.056.032-.056.032-.057.032-.056.032-.055.032-.056.032-.056.033-.056.032-.055.033-.055.033-.056.033-.055.033-.055.034-.055.034-.054.033-.055.034-.055.034-.054.035-.055.034-.054.034-.054.035-.054.035-.054.035-.054.035-.053.036-.054.035-.053.036-.054.035-.053.036-.053.036-.053.037-.053.036-.053.037-.052.036-.053.037-.052.037-.052.037-.053.037-.052.038-.052.038-.051.037-.052.038-.052.038-.051.038-.051.039-.052.038-.051.039-.051.038-.05.039-.051.039-.051.04-.05.039-.051.039-.05.04-.05.04-.05.04-.05.04-.049.04-.05.04-.049.041-.05.041-.049.04-.049.041-.049.041-.049.042-.049.041-.048.041-.049.042-.048.042-.048.042-.048.042-.048.042-.048.042-.048.043-.047.042-.048.043-.047.043-.047.043-.047.043-.047.043-.047.044-.046.043-.047.044-.046.044-.046.044-.046.044-.046.044-.046.044-.046.045-.045.044-.046.045-.045.045-.045.045-.045.045-.045.045-.045.046-.044.045-.045.046-.044.046-.044.046-.044.046-.044.046-.044.046-.043.047-.044.046-.043.047-.043.047-.043.047-.043.047-.043.047-.043.047-.042.048-.042.047-.043.048-.042.048-.042.048-.041.048-.042.048-.041.048-.042.049-.041.048-.041.049-.041.049-.04.049-.041.049-.04.049-.041.049-.04.05-.04.049-.04.05-.039.05-.04.049-.039.05-.04.051-.039.05-.039.05-.038.051-.039.05-.038.051-.039.051-.038.051-.038.051-.038.051-.038.051-.037.052-.038.051-.037.052-.037.052-.037.052-.037.051-.036.053-.037.052-.036.052-.036.053-.036.052-.036.053-.036.052-.035.053-.036.053-.035.053-.035.054-.035.053-.035.053-.034.054-.034.054-.035.053-.034.054-.034.054-.034.054-.033.054-.034.055-.033.054-.033.055-.033.054-.033.055-.032.055-.033.055-.032.055-.032.055-.032.055-.032.055-.032.056-.031.055-.031.056-.031.056-.031.055-.031.056-.031.056-.03.057-.031.056-.03.056-.03.057-.029.056-.03.057-.029.057-.03.056-.029.057-.029.057-.029.057-.028.058-.029.057-.028.057-.028.058-.028.058-.027.057-.028.058-.027.058-.028.058-.027.058-.026.058-.027.059-.027.058-.026.058-.026.059-.026.059-.026.058-.025.059-.026.059-.025.059-.025.059-.025.059-.025.06-.024.059-.025.059-.024.06-.024.06-.023.059-.024.06-.024.06-.023.06-.023.06-.023.06-.022.061-.023.06-.022.06-.023.061-.022.06-.021.061-.022.061-.021.061-.022.061-.021.061-.02.061-.021.061-.021.061-.02.062-.02.061-.02.062-.02.061-.019.062-.02.062-.019.061-.019.062-.019.062-.018.062-.019.063-.018.062-.018.062-.018.062-.017.063-.018.062-.017.063-.017.063-.017.063-.017.062-.016.063-.016.063-.017.063-.015.064-.016.063-.016.063-.015.063-.015.064-.015.063-.015.064-.014.064-.015.063-.014.064-.014.064-.013.064-.014.064-.013.064-.013.064-.013.064-.013.065-.013.064-.012.065-.012.064-.012.065-.012.064-.011.065-.012.065-.011.065-.011.065-.01.065-.011.065-.01.065-.01.065-.01.065-.01.065-.009.066-.01.065-.009.066-.008.065-.009.066-.009.066-.008.065-.008.066-.008.066-.007.066-.008.066-.007.066-.007.066-.007.066-.006.067-.007.066-.006.066-.006.067-.005.066-.006.067-.005.066-.005.067-.005.067-.005.066-.004.067-.005.067-.004.067-.003.067-.004.067-.003.067-.004.067-.002.067-.003.068-.003.067-.002.067-.002.068-.002.067-.002.068-.001.067-.001.068-.001.068-.001.067-.001.068V35.068zm1.008-.133v-.064l.001-.065v-.065l.001-.064.002-.065.001-.064.002-.065.001-.064.002-.064.002-.065.003-.064.002-.064.003-.064.003-.064.004-.064.003-.064.004-.064.003-.064.004-.063.005-.064.004-.064.005-.063.005-.064.005-.063.005-.064.005-.063.006-.064.006-.063.006-.063.006-.063.007-.063.006-.063.007-.063.007-.063.008-.063.007-.063.008-.063.008-.062.008-.063.008-.062.008-.063.009-.062.009-.063.009-.062.009-.062.01-.062.009-.062.01-.062.01-.062.01-.062.011-.062.01-.062.011-.062.011-.061.011-.062.012-.062.011-.061.012-.061.012-.062.012-.061.012-.061.013-.061.012-.061.013-.061.013-.061.014-.061.013-.061.014-.061.014-.06.014-.061.014-.061.014-.06.015-.06.015-.061.015-.06.015-.06.015-.06.016-.06.015-.06.016-.06.016-.06.017-.06.016-.059.017-.06.016-.059.017-.06.018-.059.017-.059.018-.06.017-.059.018-.059.018-.059.018-.059.019-.059.019-.058.018-.059.019-.059.019-.058.02-.059.019-.058.02-.058.02-.058.02-.059.02-.058.021-.058.02-.057.021-.058.021-.058.021-.058.021-.057.022-.058.021-.057.022-.057.022-.058.022-.057.023-.057.022-.057.023-.057.023-.057.023-.056.023-.057.023-.057.024-.056.024-.056.024-.057.024-.056.024-.056.024-.056.025-.056.024-.056.025-.056.025-.056.026-.055.025-.056.026-.055.025-.056.026-.055.026-.055.027-.055.026-.055.027-.055.026-.055.027-.054.027-.055.028-.055.027-.054.028-.054.027-.055.028-.054.028-.054.028-.054.029-.054.028-.054.029-.053.029-.054.029-.053.029-.054.03-.053.029-.053.03-.053.03-.053.029-.053.031-.053.03-.053.03-.053.031-.052.031-.053.031-.052.031-.052.031-.052.031-.052.032-.052.032-.052.032-.052.032-.051.032-.052.032-.051.033-.052.032-.051.033-.051.033-.051.033-.051.033-.051.034-.051.033-.05.034-.051.034-.05.034-.05.034-.051.034-.05.035-.05.035-.05.034-.049.035-.05.035-.05.036-.049.035-.049.035-.05.036-.049.036-.049.036-.049.036-.048.036-.049.037-.049.036-.048.037-.048.037-.049.037-.048.037-.048.037-.048.037-.047.038-.048.038-.048.037-.047.038-.048.039-.047.038-.047.038-.047.039-.047.038-.046.039-.047.039-.047.039-.046.04-.046.039-.047.04-.046.039-.046.04-.045.04-.046.04-.046.04-.045.041-.046.04-.045.041-.045.04-.045.041-.045.041-.045.042-.044.041-.045.041-.044.042-.044.042-.045.041-.044.042-.043.043-.044.042-.044.042-.043.043-.044.042-.043.043-.043.043-.043.043-.043.043-.043.043-.043.044-.042.043-.043.044-.042.044-.042.044-.042.044-.042.044-.042.044-.041.045-.042.044-.041.045-.042.045-.041.045-.041.045-.041.045-.04.045-.041.046-.04.046-.041.045-.04.046-.04.046-.04.046-.04.046-.04.047-.039.046-.039.047-.04.046-.039.047-.039.047-.039.047-.039.047-.038.047-.039.048-.038.047-.038.048-.038.048-.038.048-.038.048-.038.048-.037.048-.037.048-.038.049-.037.048-.037.049-.037.049-.036.049-.037.049-.036.049-.036.049-.037.05-.035.049-.036.05-.036.05-.036.049-.035.05-.035.05-.035.051-.035.05-.035.05-.035.051-.034.05-.035.051-.034.051-.034.051-.034.051-.034.051-.034.051-.033.052-.033.051-.034.052-.033.052-.033.051-.032.052-.033.052-.033.052-.032.053-.032.052-.032.053-.032.052-.032.053-.031.052-.032.053-.031.053-.031.053-.031.054-.031.053-.031.053-.03.054-.031.053-.03.054-.03.054-.03.054-.03.054-.029.054-.03.054-.029.054-.029.055-.029.054-.029.055-.028.054-.029.055-.028.055-.029.055-.028.055-.027.055-.028.056-.028.055-.027.055-.027.056-.027.056-.027.055-.027.056-.027.056-.026.056-.026.056-.027.056-.026.057-.025.056-.026.057-.025.056-.026.057-.025.057-.025.056-.025.057-.024.057-.025.058-.024.057-.024.057-.024.057-.024.058-.024.057-.023.058-.024.058-.023.058-.023.058-.023.058-.022.058-.023.058-.022.058-.022.058-.022.059-.022.058-.022.059-.021.059-.021.059-.022.058-.021.059-.02.059-.021.059-.02.06-.021.059-.02.059-.02.06-.019.059-.02.06-.02.059-.019.06-.019.06-.019.06-.018.06-.019.06-.018.06-.019.06-.018.061-.017.06-.018.061-.018.06-.017.061-.017.061-.017.06-.017.061-.016.061-.017.061-.016.061-.016.061-.016.062-.016.061-.015.061-.015.062-.016.061-.015.062-.014.061-.015.062-.014.062-.015.062-.014.062-.014.062-.013.062-.014.062-.013.062-.013.063-.013.062-.013.063-.013.062-.012.063-.012.062-.012.063-.012.063-.012.063-.011.063-.012.063-.011.063-.011.063-.01.063-.011.063-.01.064-.01.063-.01.063-.01.064-.01.064-.009.063-.009.064-.009.064-.009.064-.009.064-.008.063-.009.065-.008.064-.008.064-.007.064-.008.064-.007.065-.007.064-.007.064-.007.065-.006.065-.006.064-.007.065-.006.065-.005.065-.006.064-.005.065-.005.065-.005.065-.005.066-.004.065-.005.065-.004.065-.004.066-.004.065-.003.065-.004.066-.003.065-.003.066-.002.066-.003.065-.002.066-.002.066-.002.066-.002.066-.002.066-.001.066-.001.066-.001.066-.001h.066l.067-.001h.132l.067.001h.066l.066.001.066.001.066.001.066.001.066.002.066.002.066.002.066.002.065.002.066.003.066.002.065.003.066.003.065.004.065.003.066.004.065.004.065.004.065.005.066.004.065.005.065.005.065.005.064.005.065.006.065.005.065.006.064.007.065.006.065.006.064.007.064.007.065.007.064.007.064.008.064.007.064.008.065.008.063.009.064.008.064.009.064.009.064.009.063.009.064.009.064.01.063.01.063.01.064.01.063.01.063.011.063.01.063.011.063.011.063.012.063.011.063.012.063.012.062.012.063.012.062.012.063.013.062.013.063.013.062.013.062.013.062.014.062.013.062.014.062.014.062.015.062.014.061.015.062.014.061.015.062.016.061.015.061.015.062.016.061.016.061.016.061.016.061.017.061.016.06.017.061.017.061.017.06.017.061.018.06.018.061.017.06.018.06.019.06.018.06.019.06.018.06.019.06.019.059.019.06.02.059.02.06.019.059.02.059.02.06.021.059.02.059.021.059.02.058.021.059.022.059.021.059.021.058.022.058.022.059.022.058.022.058.022.058.023.058.022.058.023.058.023.058.023.058.024.057.023.058.024.057.024.057.024.057.024.058.024.057.025.057.024.056.025.057.025.057.025.056.026.057.025.056.026.057.025.056.026.056.027.056.026.056.026.056.027.055.027.056.027.056.027.055.027.055.027.056.028.055.028.055.027.055.028.055.029.055.028.054.029.055.028.054.029.055.029.054.029.054.029.054.03.054.029.054.03.054.03.054.03.053.03.054.031.053.03.053.031.054.031.053.031.053.031.053.031.052.032.053.031.052.032.053.032.052.032.053.032.052.032.052.033.052.033.051.032.052.033.052.033.051.034.052.033.051.033.051.034.051.034.051.034.051.034.051.034.05.035.051.034.05.035.05.035.051.035.05.035.05.035.049.035.05.036.05.036.049.035.05.036.049.037.049.036.049.036.049.037.049.036.049.037.048.037.049.037.048.038.048.037.048.037.048.038.048.038.048.038.048.038.047.038.048.038.047.039.047.038.047.039.047.039.047.039.046.039.047.04.046.039.047.039.046.04.046.04.046.04.046.04.046.04.045.041.046.04.045.041.045.04.045.041.045.041.045.041.045.042.044.041.045.042.044.041.044.042.044.042.044.042.044.042.044.042.043.043.044.042.043.043.043.043.043.043.043.043.043.043.042.043.043.044.042.043.042.044.043.044.042.043.041.044.042.045.042.044.041.044.041.045.042.044.041.045.041.045.04.045.041.045.04.045.041.046.04.045.04.046.04.046.04.045.039.046.04.046.039.047.04.046.039.046.039.047.039.047.038.046.039.047.038.047.038.047.039.047.038.048.037.047.038.048.038.047.037.048.037.048.037.048.037.048.037.049.037.048.036.048.037.049.036.049.036.048.036.049.036.049.036.049.035.05.035.049.036.049.035.05.035.05.034.049.035.05.034.05.035.05.034.051.034.05.034.05.034.051.033.05.034.051.033.051.033.051.033.051.033.051.032.051.033.052.032.051.032.052.032.051.032.052.032.052.032.052.031.052.031.052.031.052.031.052.031.053.031.052.03.053.03.053.031.053.029.053.03.053.03.053.029.053.03.053.029.054.029.053.029.054.029.053.028.054.029.054.028.054.028.054.028.054.027.055.028.054.027.054.028.055.027.055.027.054.026.055.027.055.026.055.027.055.026.055.026.055.025.056.026.055.025.056.026.055.025.056.025.056.024.056.025.056.024.056.024.056.024.056.024.057.024.056.024.056.023.057.023.057.023.056.023.057.023.057.022.057.023.057.022.057.022.058.022.057.021.057.022.058.021.057.021.058.021.058.021.058.02.057.021.058.02.058.02.059.02.058.02.058.019.058.02.059.019.058.019.059.018.059.019.058.019.059.018.059.018.059.018.059.018.059.017.06.017.059.018.059.017.06.016.059.017.06.016.059.017.06.016.06.016.06.015.06.016.06.015.06.015.06.015.06.015.061.015.06.014.06.014.061.014.061.014.06.014.061.013.061.014.061.013.061.013.061.012.061.013.061.012.061.012.061.012.062.012.061.011.061.012.062.011.062.011.061.011.062.01.062.011.062.01.062.01.061.01.063.009.062.01.062.009.062.009.062.009.063.009.062.008.063.008.062.008.063.008.062.008.063.007.063.008.063.007.063.007.063.006.063.007.063.006.063.006.063.006.063.006.064.005.063.005.064.005.063.005.064.005.063.004.064.005.064.004.063.003.064.004.064.003.064.004.064.003.064.003.064.002.064.003.064.002.065.002.064.001.064.002.065.001.064.002.065.001.064v.065l.001.065v.258l-.001.065v.065l-.001.064-.002.065-.001.064-.002.065-.001.064-.002.064-.002.065-.003.064-.002.064-.003.064-.003.064-.004.064-.003.064-.004.064-.003.064-.004.063-.005.064-.004.064-.005.063-.005.064-.005.063-.005.064-.005.063-.006.064-.006.063-.006.063-.006.063-.007.063-.006.063-.007.063-.007.063-.008.063-.007.063-.008.063-.008.062-.008.063-.008.062-.008.063-.009.062-.009.063-.009.062-.009.062-.01.062-.009.062-.01.063-.01.061-.01.062-.011.062-.01.062-.011.062-.011.061-.011.062-.012.062-.011.061-.012.061-.012.062-.012.061-.012.061-.013.061-.012.061-.013.061-.013.061-.014.061-.013.061-.014.061-.014.06-.014.061-.014.061-.014.06-.015.06-.015.061-.015.06-.015.06-.015.06-.016.06-.015.06-.016.06-.016.06-.017.06-.016.059-.017.06-.016.059-.017.06-.018.059-.017.059-.017.06-.018.059-.018.059-.018.059-.018.059-.019.059-.019.058-.018.059-.019.059-.019.058-.02.059-.019.058-.02.058-.02.058-.02.059-.02.058-.021.058-.02.057-.021.058-.021.058-.021.058-.021.057-.022.058-.021.057-.022.057-.022.058-.022.057-.023.057-.022.057-.023.057-.023.057-.023.056-.023.057-.023.057-.024.056-.024.057-.024.056-.024.056-.024.056-.024.056-.025.056-.024.056-.025.056-.025.056-.026.055-.025.056-.026.055-.025.056-.026.055-.026.055-.027.055-.026.055-.027.055-.026.055-.027.054-.027.055-.028.055-.027.054-.028.054-.027.055-.028.054-.028.054-.028.054-.029.054-.028.054-.029.053-.029.054-.029.053-.029.054-.03.053-.029.053-.03.053-.03.053-.029.053-.031.053-.03.053-.03.053-.031.052-.031.053-.031.052-.031.052-.031.052-.031.052-.032.052-.032.052-.032.052-.032.051-.032.052-.032.051-.033.052-.032.051-.033.051-.033.051-.033.051-.033.051-.034.051-.033.05-.034.051-.034.05-.034.05-.034.051-.035.05-.034.05-.035.05-.034.049-.035.05-.035.05-.036.049-.035.049-.035.05-.036.049-.036.049-.036.049-.036.048-.036.049-.037.049-.036.048-.037.048-.037.049-.037.048-.037.048-.037.048-.037.048-.038.047-.038.048-.037.047-.038.048-.039.047-.038.047-.038.047-.039.047-.038.046-.039.047-.039.047-.039.046-.04.046-.039.047-.04.046-.039.046-.04.045-.04.046-.04.046-.04.045-.041.046-.04.045-.041.045-.04.045-.041.045-.041.045-.042.044-.041.045-.041.044-.042.044-.042.045-.041.044-.042.043-.043.044-.042.044-.042.043-.043.044-.042.043-.043.043-.043.043-.043.043-.043.043-.043.043-.044.042-.043.043-.044.042-.044.042-.044.042-.044.042-.044.042-.044.041-.045.042-.044.041-.045.042-.045.041-.045.041-.045.041-.045.04-.045.041-.046.04-.045.041-.046.04-.046.04-.046.04-.046.04-.046.04-.047.039-.046.039-.047.04-.046.039-.047.039-.047.039-.047.039-.047.038-.047.039-.048.038-.047.038-.048.038-.048.038-.048.038-.048.038-.048.037-.048.037-.048.038-.049.037-.048.037-.049.037-.049.036-.049.037-.049.036-.049.036-.049.037-.05.036-.049.035-.05.036-.05.036-.049.035-.05.035-.05.035-.051.035-.05.035-.05.035-.051.034-.05.035-.051.034-.051.034-.051.034-.051.034-.051.034-.051.033-.052.033-.051.034-.052.033-.052.033-.051.032-.052.033-.052.033-.052.032-.053.032-.052.032-.053.032-.052.032-.053.031-.052.032-.053.031-.053.031-.053.031-.054.031-.053.031-.053.03-.054.031-.053.03-.054.03-.054.03-.054.03-.054.029-.054.03-.054.029-.054.029-.055.029-.054.029-.055.028-.054.029-.055.028-.055.029-.055.028-.055.027-.055.028-.056.028-.055.027-.055.027-.056.027-.056.027-.055.027-.056.027-.056.026-.056.026-.056.027-.056.026-.057.025-.056.026-.057.025-.056.026-.057.025-.057.025-.056.025-.057.024-.057.025-.058.024-.057.024-.057.024-.057.024-.058.024-.057.023-.058.024-.058.023-.058.023-.058.023-.058.022-.058.023-.058.022-.058.022-.058.022-.059.022-.058.022-.059.021-.059.021-.059.022-.058.021-.059.02-.059.021-.059.02-.06.021-.059.02-.059.02-.06.019-.059.02-.06.02-.059.019-.06.019-.06.019-.06.018-.06.019-.06.018-.06.019-.06.018-.061.017-.06.018-.061.018-.06.017-.061.017-.061.017-.06.017-.061.016-.061.017-.061.016-.061.016-.061.016-.062.016-.061.015-.061.015-.062.016-.061.015-.062.014-.061.015-.062.014-.062.015-.062.014-.062.014-.062.013-.062.014-.062.013-.062.013-.063.013-.062.013-.063.013-.062.012-.063.012-.062.012-.063.012-.063.012-.063.011-.063.012-.063.011-.063.011-.063.01-.063.011-.063.01-.064.01-.063.01-.063.01-.064.01-.064.009-.063.009-.064.009-.064.009-.064.009-.063.008-.064.009-.065.008-.064.008-.064.007-.064.008-.064.007-.065.007-.064.007-.064.007-.065.006-.065.006-.064.007-.065.006-.065.005-.065.006-.064.005-.065.005-.065.005-.065.005-.066.004-.065.005-.065.004-.065.004-.066.004-.065.003-.065.004-.066.003-.065.003-.066.002-.066.003-.066.002-.065.002-.066.002-.066.002-.066.002-.066.001-.066.001-.066.001-.066.001h-.066l-.067.001h-.132l-.067-.001h-.066l-.066-.001-.066-.001-.066-.001-.066-.001-.066-.002-.066-.002-.066-.002-.065-.002-.066-.002-.066-.003-.066-.002-.065-.003-.066-.003-.065-.004-.065-.003-.066-.004-.065-.004-.065-.004-.065-.005-.066-.004-.065-.005-.065-.005-.065-.005-.064-.005-.065-.006-.065-.005-.065-.006-.064-.007-.065-.006-.065-.006-.064-.007-.064-.007-.065-.007-.064-.007-.064-.008-.064-.007-.064-.008-.065-.008-.064-.009-.063-.008-.064-.009-.064-.009-.064-.009-.063-.009-.064-.009-.064-.01-.063-.01-.063-.01-.064-.01-.063-.01-.063-.011-.063-.01-.063-.011-.063-.011-.063-.012-.063-.011-.063-.012-.063-.012-.062-.012-.063-.012-.062-.012-.063-.013-.062-.013-.063-.013-.062-.013-.062-.013-.062-.014-.062-.013-.062-.014-.062-.014-.062-.015-.062-.014-.061-.015-.062-.014-.061-.015-.062-.016-.061-.015-.061-.015-.062-.016-.061-.016-.061-.016-.061-.016-.061-.017-.061-.016-.06-.017-.061-.017-.061-.017-.06-.017-.061-.018-.06-.018-.061-.017-.06-.018-.06-.019-.06-.018-.06-.019-.06-.018-.06-.019-.06-.019-.059-.019-.06-.02-.059-.02-.06-.019-.059-.02-.059-.02-.06-.021-.059-.02-.059-.021-.059-.02-.058-.021-.059-.022-.059-.021-.059-.021-.058-.022-.059-.022-.058-.022-.058-.022-.058-.022-.058-.023-.058-.022-.058-.023-.058-.023-.058-.023-.058-.024-.057-.023-.058-.024-.057-.024-.057-.024-.057-.024-.058-.024-.057-.025-.057-.024-.056-.025-.057-.025-.057-.025-.056-.026-.057-.025-.056-.026-.057-.025-.056-.026-.056-.027-.056-.026-.056-.026-.056-.027-.055-.027-.056-.027-.056-.027-.055-.027-.055-.027-.056-.028-.055-.028-.055-.027-.055-.028-.055-.029-.055-.028-.054-.029-.055-.028-.054-.029-.055-.029-.054-.029-.054-.029-.054-.03-.054-.029-.054-.03-.054-.03-.054-.03-.053-.03-.054-.031-.053-.03-.053-.031-.054-.031-.053-.031-.053-.031-.053-.031-.052-.032-.053-.031-.052-.032-.053-.032-.052-.032-.053-.032-.052-.032-.052-.033-.052-.033-.051-.032-.052-.033-.052-.033-.051-.034-.052-.033-.051-.033-.051-.034-.051-.034-.051-.034-.051-.034-.051-.034-.05-.035-.051-.034-.05-.035-.05-.035-.051-.035-.05-.035-.05-.035-.049-.035-.05-.036-.05-.036-.049-.035-.05-.036-.049-.037-.049-.036-.049-.036-.049-.037-.049-.036-.049-.037-.048-.037-.049-.037-.048-.038-.048-.037-.048-.037-.048-.038-.048-.038-.048-.038-.048-.038-.047-.038-.048-.038-.047-.039-.047-.038-.047-.039-.047-.039-.047-.039-.046-.039-.047-.04-.046-.039-.047-.039-.046-.04-.046-.04-.046-.04-.046-.04-.046-.04-.045-.041-.046-.04-.045-.041-.045-.04-.045-.041-.045-.041-.045-.041-.045-.042-.044-.041-.045-.042-.044-.041-.044-.042-.044-.042-.044-.042-.044-.042-.044-.042-.043-.043-.044-.042-.043-.043-.043-.043-.043-.043-.043-.043-.043-.043-.042-.043-.043-.044-.042-.043-.042-.044-.043-.044-.042-.043-.041-.044-.042-.045-.042-.044-.041-.044-.041-.045-.042-.044-.041-.045-.041-.045-.04-.045-.041-.045-.04-.045-.041-.046-.04-.045-.04-.046-.04-.046-.04-.045-.039-.046-.04-.046-.039-.047-.04-.046-.039-.046-.039-.047-.039-.047-.038-.046-.039-.047-.038-.047-.038-.047-.039-.047-.038-.048-.037-.047-.038-.048-.038-.048-.037-.047-.037-.048-.037-.048-.037-.048-.037-.049-.037-.048-.036-.048-.037-.049-.036-.049-.036-.048-.036-.049-.036-.049-.036-.049-.035-.05-.035-.049-.036-.049-.035-.05-.035-.05-.034-.049-.035-.05-.035-.05-.034-.05-.034-.051-.034-.05-.034-.05-.034-.051-.033-.05-.034-.051-.033-.051-.033-.051-.033-.051-.033-.051-.032-.051-.033-.052-.032-.051-.032-.052-.032-.051-.032-.052-.032-.052-.032-.052-.031-.052-.031-.052-.031-.052-.031-.052-.031-.053-.031-.052-.03-.053-.03-.053-.031-.053-.029-.053-.03-.053-.03-.053-.029-.053-.03-.053-.029-.054-.029-.053-.029-.054-.029-.053-.028-.054-.029-.054-.028-.054-.028-.054-.028-.054-.027-.055-.028-.054-.027-.054-.028-.055-.027-.055-.027-.054-.026-.055-.027-.055-.026-.055-.027-.055-.026-.055-.026-.055-.025-.056-.026-.055-.025-.056-.026-.055-.025-.056-.025-.056-.024-.056-.025-.056-.024-.056-.024-.056-.024-.056-.024-.057-.024-.056-.024-.056-.023-.057-.023-.057-.023-.056-.023-.057-.023-.057-.022-.057-.023-.057-.022-.057-.022-.058-.022-.057-.021-.057-.022-.058-.021-.057-.021-.058-.021-.058-.021-.058-.02-.057-.021-.058-.02-.058-.02-.059-.02-.058-.02-.058-.019-.058-.02-.059-.019-.058-.019-.059-.018-.059-.019-.058-.019-.059-.018-.059-.018-.059-.018-.059-.017-.059-.018-.06-.017-.059-.018-.059-.017-.06-.016-.059-.017-.06-.016-.059-.017-.06-.016-.06-.016-.06-.015-.06-.016-.06-.015-.06-.015-.06-.015-.06-.015-.061-.015-.06-.014-.06-.014-.061-.014-.061-.014-.06-.014-.061-.013-.061-.014-.061-.013-.061-.013-.061-.012-.061-.013-.061-.012-.061-.012-.061-.012-.062-.012-.061-.011-.061-.012-.062-.011-.062-.011-.061-.011-.062-.01-.062-.011-.062-.01-.062-.01-.062-.01-.062-.009-.062-.01-.062-.009-.062-.009-.062-.009-.063-.009-.062-.008-.063-.008-.062-.008-.063-.008-.062-.008-.063-.007-.063-.008-.063-.007-.063-.007-.063-.006-.063-.007-.063-.006-.063-.006-.063-.006-.063-.006-.064-.005-.063-.005-.064-.005-.063-.005-.064-.005-.063-.004-.064-.005-.064-.004-.063-.003-.064-.004-.064-.003-.064-.004-.064-.003-.064-.003-.064-.002-.064-.003-.064-.002-.065-.002-.064-.001-.064-.002-.065-.001-.064-.002-.065-.001-.064v-.065l-.001-.065v-.194z" fill="url(#d)"/></g><path d="M110.592 160.224l-21.408 35.338h44.069l17.342-35.439-40.003.101z" fill="url(#e)" transform="translate(32 32)"/><path d="M103.757 119.803c-1.872 0-3.444-.336-4.716-1.008-1.272-.672-2.604-1.608-3.996-2.808-1.008-.816-1.86-1.428-2.556-1.836a4.278 4.278 0 0 0-2.196-.612c-1.44 0-2.64.504-3.6 1.512s-1.608 2.376-1.944 4.104h-7.056c.624-4.368 2.112-7.752 4.464-10.152 2.352-2.4 5.064-3.6 8.136-3.6 1.872 0 3.444.336 4.716 1.008 1.272.672 2.604 1.608 3.996 2.808 1.008.816 1.86 1.428 2.556 1.836a4.278 4.278 0 0 0 2.196.612c1.44 0 2.628-.492 3.564-1.476.936-.984 1.572-2.364 1.908-4.14h7.056c-.624 4.368-2.1 7.752-4.428 10.152-2.328 2.4-5.028 3.6-8.1 3.6z" fill="#fff" fill-opacity=".882" fill-rule="nonzero"/><defs><linearGradient id="b" x2="1" gradientUnits="userSpaceOnUse" gradientTransform="matrix(104 0 0 95 43 83.5)"><stop offset="0" stop-color="#12283a"/><stop offset="1" stop-color="#462a16"/></linearGradient><linearGradient id="d" x2="1" gradientUnits="userSpaceOnUse" gradientTransform="matrix(43 0 0 42 16 35)"><stop offset="0" stop-color="#f2d024"/><stop offset="1" stop-color="#f66d9b"/></linearGradient><linearGradient id="e" x2="1" gradientUnits="userSpaceOnUse" gradientTransform="matrix(61.4116 0 0 35.4394 89.184 177.842)"><stop offset="0" stop-opacity=".102"/><stop offset="1" stop-color="#fff" stop-opacity="0"/></linearGradient></defs></svg>