<svg xmlns="http://www.w3.org/2000/svg" xmlns:xlink="http://www.w3.org/1999/xlink" width="128" height="128"><defs><linearGradient id="G"><stop offset="0" stop-color="#fff" stop-opacity=".025"/><stop offset=".5" stop-color="#fff"/><stop offset="1" stop-color="#fff" stop-opacity=".209"/></linearGradient><linearGradient id="y"><stop offset="0" stop-color="#3689e6"/><stop offset=".088" stop-color="#8cd5ff"/><stop offset=".5" stop-color="#3d97e7"/><stop offset=".911" stop-color="#8cd5ff"/><stop offset="1" stop-color="#3689e6"/></linearGradient><linearGradient id="w"><stop offset="0" stop-color="#aaa"/><stop offset=".489" stop-color="#fafafa"/><stop offset="1" stop-color="#b0b0b0"/></linearGradient><linearGradient id="x"><stop offset="0" stop-color="#eaeaea"/><stop offset="1" stop-color="#d4d4d4"/></linearGradient><linearGradient id="p"><stop offset="0" stop-color="#e1e1e1"/><stop offset=".415" stop-color="#dbdbdb"/><stop offset=".436" stop-color="#fff"/><stop offset=".457" stop-color="#dadada"/><stop offset="1" stop-color="#d4d4d4"/></linearGradient><linearGradient id="s"><stop offset="0" stop-color="#fff"/><stop offset="1" stop-color="#fff" stop-opacity=".168"/></linearGradient><linearGradient id="r"><stop offset="0" stop-color="#fafafa"/><stop offset="1" stop-color="#abacae"/></linearGradient><linearGradient id="q"><stop offset="0" stop-color="#8cd5ff"/><stop offset="1" stop-color="#3689e6"/></linearGradient><linearGradient id="v"><stop offset="0" stop-color="#333"/><stop offset="1" stop-color="#666"/></linearGradient><linearGradient id="u"><stop offset="0" stop-color="#fff" stop-opacity=".783"/><stop offset="1" stop-color="#fff" stop-opacity=".392"/></linearGradient><linearGradient id="a"><stop offset="0" stop-color="#fff"/><stop offset="1" stop-color="#ebebeb"/></linearGradient><linearGradient id="b"><stop offset="0" stop-color="#fff"/><stop offset=".038" stop-color="#fff" stop-opacity=".235"/><stop offset=".967" stop-color="#fff" stop-opacity=".157"/><stop offset="1" stop-color="#fff" stop-opacity=".392"/></linearGradient><linearGradient id="c"><stop offset="0" stop-color="#55c1ec"/><stop offset="1" stop-color="#3689e6"/></linearGradient><linearGradient id="t"><stop offset="0" stop-color="#fafafa"/><stop offset="1" stop-color="#e1e1e1"/></linearGradient><radialGradient cx="4.993" cy="43.5" r="2.5" fx="4.993" fy="43.5" id="I" xlink:href="#d" gradientUnits="userSpaceOnUse" gradientTransform="matrix(2.00378 0 0 1.4 27.988 -17.4)"/><linearGradient id="d"><stop offset="0" stop-color="#181818"/><stop offset="1" stop-color="#181818" stop-opacity="0"/></linearGradient><radialGradient cx="4.993" cy="43.5" r="2.5" fx="4.993" fy="43.5" id="J" xlink:href="#e" gradientUnits="userSpaceOnUse" gradientTransform="matrix(2.00378 0 0 1.4 -20.012 -104.4)"/><linearGradient id="e"><stop offset="0" stop-color="#181818"/><stop offset="1" stop-color="#181818" stop-opacity="0"/></linearGradient><linearGradient x1="25.058" y1="47.028" x2="25.058" y2="39.999" id="K" xlink:href="#f" gradientUnits="userSpaceOnUse"/><linearGradient id="f"><stop offset="0" stop-color="#181818" stop-opacity="0"/><stop offset=".5" stop-color="#181818"/><stop offset="1" stop-color="#181818" stop-opacity="0"/></linearGradient><linearGradient id="g"><stop offset="0"/><stop offset="1" stop-opacity="0"/></linearGradient><radialGradient cx="-4.029" cy="93.468" r="35.338" fx="-4.029" fy="93.468" id="H" xlink:href="#g" gradientUnits="userSpaceOnUse" gradientTransform="matrix(1.5564 0 0 .16979 70.27 38.132)"/><linearGradient id="i"><stop offset="0" stop-color="#fff"/><stop offset=".508" stop-color="#fff" stop-opacity=".235"/><stop offset=".835" stop-color="#fff" stop-opacity=".157"/><stop offset="1" stop-color="#fff" stop-opacity=".392"/></linearGradient><linearGradient id="h"><stop offset="0" stop-color="#e9e9e9"/><stop offset="1" stop-color="#fff"/></linearGradient><linearGradient id="j"><stop offset="0" stop-color="#fafafa"/><stop offset="1" stop-color="#e1e1e1"/></linearGradient><linearGradient id="m"><stop offset="0" stop-color="#181818" stop-opacity="0"/><stop offset=".5" stop-color="#181818"/><stop offset="1" stop-color="#181818" stop-opacity="0"/></linearGradient><linearGradient id="n"><stop offset="0" stop-color="#181818"/><stop offset="1" stop-color="#181818" stop-opacity="0"/></linearGradient><linearGradient id="o"><stop offset="0" stop-color="#181818"/><stop offset="1" stop-color="#181818" stop-opacity="0"/></linearGradient><linearGradient id="k"><stop offset="0" stop-color="#fff"/><stop offset=".063" stop-color="#fff" stop-opacity=".235"/><stop offset=".951" stop-color="#fff" stop-opacity=".157"/><stop offset="1" stop-color="#fff" stop-opacity=".392"/></linearGradient><linearGradient id="l"><stop offset="0" stop-color="#55c1ec"/><stop offset="1" stop-color="#3689e6"/></linearGradient><linearGradient xlink:href="#t" id="ac" gradientUnits="userSpaceOnUse" gradientTransform="translate(-140 -2)" x1="153" y1="26" x2="255" y2="56"/><linearGradient xlink:href="#u" id="ad" gradientUnits="userSpaceOnUse" gradientTransform="matrix(2.72973 0 0 .78378 -1.514 20.206)" x1="24.023" y1="5.112" x2="24" y2="42.262"/><linearGradient xlink:href="#v" id="ae" gradientUnits="userSpaceOnUse" gradientTransform="matrix(.66667 0 0 .9 30 4.4)" x1="92" y1="34" x2="92" y2="44"/><linearGradient xlink:href="#v" id="af" gradientUnits="userSpaceOnUse" gradientTransform="matrix(.66667 0 0 .9 30 4.4)" x1="92" y1="34" x2="92" y2="44"/><linearGradient xlink:href="#v" id="ag" gradientUnits="userSpaceOnUse" gradientTransform="matrix(.66667 0 0 .9 30 4.4)" x1="92" y1="34" x2="92" y2="44"/><linearGradient xlink:href="#v" id="ah" gradientUnits="userSpaceOnUse" gradientTransform="matrix(.66667 0 0 .9 30 4.4)" x1="92" y1="34" x2="92" y2="44"/><linearGradient xlink:href="#x" id="ab" x1="24.938" y1="44.266" x2="109.1" y2="54.566" gradientUnits="userSpaceOnUse"/><linearGradient xlink:href="#x" id="L" gradientUnits="userSpaceOnUse" x1="24.938" y1="44.266" x2="109.1" y2="54.566"/><linearGradient xlink:href="#t" id="M" gradientUnits="userSpaceOnUse" gradientTransform="translate(-140 -2)" x1="153" y1="26" x2="255" y2="56"/><linearGradient xlink:href="#u" id="N" gradientUnits="userSpaceOnUse" gradientTransform="matrix(2.72973 0 0 .78378 -1.514 20.206)" x1="24.023" y1="5.112" x2="24" y2="42.262"/><linearGradient xlink:href="#v" id="O" gradientUnits="userSpaceOnUse" gradientTransform="matrix(.66667 0 0 .9 30 4.4)" x1="92" y1="34" x2="92" y2="44"/><linearGradient xlink:href="#v" id="P" gradientUnits="userSpaceOnUse" gradientTransform="matrix(.66667 0 0 .9 30 4.4)" x1="92" y1="34" x2="92" y2="44"/><linearGradient xlink:href="#v" id="Q" gradientUnits="userSpaceOnUse" gradientTransform="matrix(.66667 0 0 .9 30 4.4)" x1="92" y1="34" x2="92" y2="44"/><linearGradient xlink:href="#v" id="R" gradientUnits="userSpaceOnUse" gradientTransform="matrix(.66667 0 0 .9 30 4.4)" x1="92" y1="34" x2="92" y2="44"/><linearGradient xlink:href="#x" id="T" gradientUnits="userSpaceOnUse" x1="24.938" y1="44.266" x2="109.1" y2="54.566"/><linearGradient xlink:href="#t" id="U" gradientUnits="userSpaceOnUse" gradientTransform="translate(-140 -2)" x1="153" y1="26" x2="255" y2="56"/><linearGradient xlink:href="#u" id="V" gradientUnits="userSpaceOnUse" gradientTransform="matrix(2.72973 0 0 .78378 -1.514 20.206)" x1="24.023" y1="5.112" x2="24" y2="42.262"/><linearGradient xlink:href="#v" id="W" gradientUnits="userSpaceOnUse" gradientTransform="matrix(.66667 0 0 .9 30 4.4)" x1="92" y1="34" x2="92" y2="44"/><linearGradient xlink:href="#v" id="X" gradientUnits="userSpaceOnUse" gradientTransform="matrix(.66667 0 0 .9 30 4.4)" x1="92" y1="34" x2="92" y2="44"/><linearGradient xlink:href="#v" id="Y" gradientUnits="userSpaceOnUse" gradientTransform="matrix(.66667 0 0 .9 30 4.4)" x1="92" y1="34" x2="92" y2="44"/><linearGradient xlink:href="#v" id="Z" gradientUnits="userSpaceOnUse" gradientTransform="matrix(.66667 0 0 .9 30 4.4)" x1="92" y1="34" x2="92" y2="44"/><linearGradient xlink:href="#y" id="aa" x1="20" y1="-12.5" x2="108" y2="-12.5" gradientUnits="userSpaceOnUse" gradientTransform="matrix(1 0 0 6 0 58)"/><linearGradient xlink:href="#y" id="S" gradientUnits="userSpaceOnUse" gradientTransform="matrix(1 0 0 6 0 93)" x1="20" y1="-12.5" x2="108" y2="-12.5"/><linearGradient id="C"><stop offset="0" stop-color="#c00"/><stop offset="1" stop-color="#c00" stop-opacity="0"/></linearGradient><linearGradient id="z"><stop offset="0" stop-color="#fff"/><stop offset=".056" stop-color="#fff" stop-opacity=".235"/><stop offset=".944" stop-color="#fff" stop-opacity=".157"/><stop offset="1" stop-color="#fff" stop-opacity=".392"/></linearGradient><linearGradient id="B"><stop offset="0" stop-color="#505050"/><stop offset=".262" stop-color="#2b2b2b"/><stop offset=".705" stop-color="#0a0a0a"/><stop offset="1"/></linearGradient><linearGradient id="A"><stop offset="0" stop-color="#667885"/><stop offset="1" stop-color="#485a6c"/></linearGradient><linearGradient id="F"><stop offset="0" stop-color="#f4f4f4"/><stop offset="1" stop-color="#dbdbdb"/></linearGradient><linearGradient id="E"><stop offset="0" stop-color="#fff"/><stop offset=".012" stop-color="#fff" stop-opacity=".235"/><stop offset=".988" stop-color="#fff" stop-opacity=".157"/><stop offset="1" stop-color="#fff" stop-opacity=".392"/></linearGradient><linearGradient id="D"><stop offset="0" stop-opacity=".318"/><stop offset="1" stop-opacity=".24"/></linearGradient><filter id="ai" x="-.24" width="1.48" y="-.72" height="2.44" color-interpolation-filters="sRGB"><feGaussianBlur stdDeviation="1.5"/></filter><filter id="ak" x="-.24" width="1.48" y="-.72" height="2.44" color-interpolation-filters="sRGB"><feGaussianBlur stdDeviation="1.5"/></filter><linearGradient xlink:href="#G" id="aj" x1="31" y1="49.5" x2="38" y2="49.5" gradientUnits="userSpaceOnUse"/><linearGradient xlink:href="#G" id="al" x1="89" y1="84.5" x2="96" y2="84.5" gradientUnits="userSpaceOnUse"/></defs><g transform="translate(0 64)"><path d="M119 54.002a55 6 0 0 1-110 0 55 6 0 1 1 110 0z" style="marker:none" color="#000" overflow="visible" opacity=".2" fill="url(#H)" enable-background="accumulate"/><g opacity=".4"><path fill="url(#I)" d="M38 40h5v7h-5z" transform="matrix(2.8421 0 0 .71429 -4.21 23.43)"/><path transform="matrix(-2.8421 0 0 -.71429 -4.21 23.43)" fill="url(#J)" d="M-10-47h5v7h-5z"/><path fill="url(#K)" d="M10 40h28v7H10z" transform="matrix(2.8421 0 0 .71429 -4.21 23.43)"/></g><text x="927.574" y="-31.008" style="line-height:0%" font-weight="400" font-size="12.666" font-family="Bitstream Vera Sans" opacity=".8"/><text x="951.535" y="-71.75" style="line-height:0%" font-weight="400" font-size="12.666" font-family="Bitstream Vera Sans" opacity=".8"/><text x="-519.023" y="-101.828" style="line-height:0%" font-weight="400" font-size="12.666" font-family="Bitstream Vera Sans" opacity=".8"/><text x="-2342.709" y="643.726" style="line-height:0%" font-weight="400" font-size="12.666" font-family="Bitstream Vera Sans" opacity=".8"/><text x="-404.532" y="-487.149" style="line-height:0%" font-weight="400" font-size="12.666" font-family="Bitstream Vera Sans" opacity=".8"/><text x="403.07" y="-900.619" style="line-height:0%" font-weight="400" font-size="12.666" font-family="Bitstream Vera Sans" opacity=".8"/><text x="427.031" y="-941.361" style="line-height:0%" font-weight="400" font-size="12.666" font-family="Bitstream Vera Sans" opacity=".8"/><text x="-1064.432" y="-948.57" style="line-height:0%" font-weight="400" font-size="12.666" font-family="Bitstream Vera Sans" opacity=".8"/><text x="396.111" y="-1221.805" style="line-height:0%" font-weight="400" font-size="12.666" font-family="Bitstream Vera Sans" opacity=".8"/><text x="1882.234" y="-595.113" style="line-height:0%" font-weight="400" font-size="12.666" font-family="Bitstream Vera Sans" opacity=".8"/><text x="1906.195" y="-635.855" style="line-height:0%" font-weight="400" font-size="12.666" font-family="Bitstream Vera Sans" opacity=".8"/><text x="414.732" y="-643.065" style="line-height:0%" font-weight="400" font-size="12.666" font-family="Bitstream Vera Sans" opacity=".8"/><text x="1875.275" y="-916.299" style="line-height:0%" font-weight="400" font-size="12.666" font-family="Bitstream Vera Sans" opacity=".8"/><text x="-523.084" y="-691.156" style="line-height:0%" font-weight="400" font-size="12.666" font-family="Bitstream Vera Sans" opacity=".8"/><text x="-2346.77" y="54.397" style="line-height:0%" font-weight="400" font-size="12.666" font-family="Bitstream Vera Sans" opacity=".8"/><text x="-632.015" y="147.269" style="line-height:0%" font-weight="400" font-size="12.666" font-family="Bitstream Vera Sans" opacity=".8"/><text x="477.01" y="-31.913" style="line-height:0%" font-weight="400" font-size="12.666" font-family="Bitstream Vera Sans" opacity=".8"/><text x="500.971" y="-72.654" style="line-height:0%" font-weight="400" font-size="12.666" font-family="Bitstream Vera Sans" opacity=".8"/><text x="-990.493" y="-79.864" style="line-height:0%" font-weight="400" font-size="12.666" font-family="Bitstream Vera Sans" opacity=".8"/><text x="470.05" y="-353.098" style="line-height:0%" font-weight="400" font-size="12.666" font-family="Bitstream Vera Sans" opacity=".8"/><text x="-557.684" y="-82.579" style="line-height:0%" font-weight="400" font-size="12.666" font-family="Bitstream Vera Sans" opacity=".8"/><text x="-2381.37" y="662.975" style="line-height:0%" font-weight="400" font-size="12.666" font-family="Bitstream Vera Sans" opacity=".8"/><text x="-406.591" y="-944.109" style="line-height:0%" font-weight="400" font-size="12.666" font-family="Bitstream Vera Sans" opacity=".8"/><text x="401.011" y="-1357.579" style="line-height:0%" font-weight="400" font-size="12.666" font-family="Bitstream Vera Sans" opacity=".8"/><text x="424.972" y="-1398.321" style="line-height:0%" font-weight="400" font-size="12.666" font-family="Bitstream Vera Sans" opacity=".8"/><text x="-1066.491" y="-1405.531" style="line-height:0%" font-weight="400" font-size="12.666" font-family="Bitstream Vera Sans" opacity=".8"/><text x="394.051" y="-1678.765" style="line-height:0%" font-weight="400" font-size="12.666" font-family="Bitstream Vera Sans" opacity=".8"/><text x="1880.175" y="-1052.074" style="line-height:0%" font-weight="400" font-size="12.666" font-family="Bitstream Vera Sans" opacity=".8"/><text x="1904.136" y="-1092.815" style="line-height:0%" font-weight="400" font-size="12.666" font-family="Bitstream Vera Sans" opacity=".8"/><text x="412.673" y="-1100.025" style="line-height:0%" font-weight="400" font-size="12.666" font-family="Bitstream Vera Sans" opacity=".8"/><text x="1873.215" y="-1373.259" style="line-height:0%" font-weight="400" font-size="12.666" font-family="Bitstream Vera Sans" opacity=".8"/><text x="-525.144" y="-1148.117" style="line-height:0%" font-weight="400" font-size="12.666" font-family="Bitstream Vera Sans" opacity=".8"/><text x="-2348.83" y="-402.563" style="line-height:0%" font-weight="400" font-size="12.666" font-family="Bitstream Vera Sans" opacity=".8"/><text x="-634.074" y="-309.691" style="line-height:0%" font-weight="400" font-size="12.666" font-family="Bitstream Vera Sans" opacity=".8"/><text x="205.94" y="-68.777" style="line-height:0%" font-weight="400" font-size="12.666" font-family="Bitstream Vera Sans" opacity=".8"/><text x="229.901" y="-109.519" style="line-height:0%" font-weight="400" font-size="12.666" font-family="Bitstream Vera Sans" opacity=".8"/><text x="-1039.915" y="-303.547" style="line-height:0%" font-weight="400" font-size="12.666" font-family="Bitstream Vera Sans" opacity=".8"/><text x="-232.313" y="-717.017" style="line-height:0%" font-weight="400" font-size="12.666" font-family="Bitstream Vera Sans" opacity=".8"/><text x="-208.352" y="-757.759" style="line-height:0%" font-weight="400" font-size="12.666" font-family="Bitstream Vera Sans" opacity=".8"/><text x="-1699.815" y="-764.969" style="line-height:0%" font-weight="400" font-size="12.666" font-family="Bitstream Vera Sans" opacity=".8"/><text x="-239.273" y="-1038.203" style="line-height:0%" font-weight="400" font-size="12.666" font-family="Bitstream Vera Sans" opacity=".8"/><text x="1246.851" y="-411.512" style="line-height:0%" font-weight="400" font-size="12.666" font-family="Bitstream Vera Sans" opacity=".8"/><text x="1270.812" y="-452.253" style="line-height:0%" font-weight="400" font-size="12.666" font-family="Bitstream Vera Sans" opacity=".8"/><text x="-220.652" y="-459.463" style="line-height:0%" font-weight="400" font-size="12.666" font-family="Bitstream Vera Sans" opacity=".8"/><text x="1239.891" y="-732.697" style="line-height:0%" font-weight="400" font-size="12.666" font-family="Bitstream Vera Sans" opacity=".8"/><text x="-1158.468" y="-507.555" style="line-height:0%" font-weight="400" font-size="12.666" font-family="Bitstream Vera Sans" opacity=".8"/><text x="-2982.154" y="237.999" style="line-height:0%" font-weight="400" font-size="12.666" font-family="Bitstream Vera Sans" opacity=".8"/><text x="-664.274" y="1159.415" style="line-height:0%" font-weight="400" font-size="14" font-family="Bitstream Vera Sans" opacity=".8" transform="matrix(.90475 0 0 .90475 -666.397 -718.108)"/><text x="927.574" y="-23.77" style="line-height:0%" font-weight="400" font-size="12.666" font-family="Bitstream Vera Sans" opacity=".8"/><text x="951.535" y="-64.512" style="line-height:0%" font-weight="400" font-size="12.666" font-family="Bitstream Vera Sans" opacity=".8"/><text x="-519.023" y="-94.59" style="line-height:0%" font-weight="400" font-size="12.666" font-family="Bitstream Vera Sans" opacity=".8"/><text x="-2342.709" y="650.964" style="line-height:0%" font-weight="400" font-size="12.666" font-family="Bitstream Vera Sans" opacity=".8"/><text x="-404.532" y="-479.911" style="line-height:0%" font-weight="400" font-size="12.666" font-family="Bitstream Vera Sans" opacity=".8"/><text x="403.07" y="-893.381" style="line-height:0%" font-weight="400" font-size="12.666" font-family="Bitstream Vera Sans" opacity=".8"/><text x="427.031" y="-934.123" style="line-height:0%" font-weight="400" font-size="12.666" font-family="Bitstream Vera Sans" opacity=".8"/><text x="-1064.432" y="-941.332" style="line-height:0%" font-weight="400" font-size="12.666" font-family="Bitstream Vera Sans" opacity=".8"/><text x="396.111" y="-1214.567" style="line-height:0%" font-weight="400" font-size="12.666" font-family="Bitstream Vera Sans" opacity=".8"/><text x="1882.234" y="-587.875" style="line-height:0%" font-weight="400" font-size="12.666" font-family="Bitstream Vera Sans" opacity=".8"/><text x="1906.195" y="-628.617" style="line-height:0%" font-weight="400" font-size="12.666" font-family="Bitstream Vera Sans" opacity=".8"/><text x="414.732" y="-635.827" style="line-height:0%" font-weight="400" font-size="12.666" font-family="Bitstream Vera Sans" opacity=".8"/><text x="1875.275" y="-909.061" style="line-height:0%" font-weight="400" font-size="12.666" font-family="Bitstream Vera Sans" opacity=".8"/><text x="-523.084" y="-683.918" style="line-height:0%" font-weight="400" font-size="12.666" font-family="Bitstream Vera Sans" opacity=".8"/><text x="-2346.77" y="61.635" style="line-height:0%" font-weight="400" font-size="12.666" font-family="Bitstream Vera Sans" opacity=".8"/><text x="-632.015" y="154.507" style="line-height:0%" font-weight="400" font-size="12.666" font-family="Bitstream Vera Sans" opacity=".8"/><text x="477.01" y="-24.675" style="line-height:0%" font-weight="400" font-size="12.666" font-family="Bitstream Vera Sans" opacity=".8"/><text x="500.971" y="-65.416" style="line-height:0%" font-weight="400" font-size="12.666" font-family="Bitstream Vera Sans" opacity=".8"/><text x="-990.493" y="-72.626" style="line-height:0%" font-weight="400" font-size="12.666" font-family="Bitstream Vera Sans" opacity=".8"/><text x="470.05" y="-345.86" style="line-height:0%" font-weight="400" font-size="12.666" font-family="Bitstream Vera Sans" opacity=".8"/><text x="-557.684" y="-75.341" style="line-height:0%" font-weight="400" font-size="12.666" font-family="Bitstream Vera Sans" opacity=".8"/><text x="-2381.37" y="670.213" style="line-height:0%" font-weight="400" font-size="12.666" font-family="Bitstream Vera Sans" opacity=".8"/><text x="-406.591" y="-936.871" style="line-height:0%" font-weight="400" font-size="12.666" font-family="Bitstream Vera Sans" opacity=".8"/><text x="401.011" y="-1350.341" style="line-height:0%" font-weight="400" font-size="12.666" font-family="Bitstream Vera Sans" opacity=".8"/><text x="424.972" y="-1391.083" style="line-height:0%" font-weight="400" font-size="12.666" font-family="Bitstream Vera Sans" opacity=".8"/><text x="-1066.491" y="-1398.293" style="line-height:0%" font-weight="400" font-size="12.666" font-family="Bitstream Vera Sans" opacity=".8"/><text x="394.051" y="-1671.527" style="line-height:0%" font-weight="400" font-size="12.666" font-family="Bitstream Vera Sans" opacity=".8"/><text x="1880.175" y="-1044.836" style="line-height:0%" font-weight="400" font-size="12.666" font-family="Bitstream Vera Sans" opacity=".8"/><text x="1904.136" y="-1085.578" style="line-height:0%" font-weight="400" font-size="12.666" font-family="Bitstream Vera Sans" opacity=".8"/><text x="412.673" y="-1092.787" style="line-height:0%" font-weight="400" font-size="12.666" font-family="Bitstream Vera Sans" opacity=".8"/><text x="1873.215" y="-1366.022" style="line-height:0%" font-weight="400" font-size="12.666" font-family="Bitstream Vera Sans" opacity=".8"/><text x="-525.144" y="-1140.879" style="line-height:0%" font-weight="400" font-size="12.666" font-family="Bitstream Vera Sans" opacity=".8"/><text x="-2348.83" y="-395.325" style="line-height:0%" font-weight="400" font-size="12.666" font-family="Bitstream Vera Sans" opacity=".8"/><text x="-634.074" y="-302.453" style="line-height:0%" font-weight="400" font-size="12.666" font-family="Bitstream Vera Sans" opacity=".8"/><text x="205.94" y="-61.539" style="line-height:0%" font-weight="400" font-size="12.666" font-family="Bitstream Vera Sans" opacity=".8"/><text x="229.901" y="-102.281" style="line-height:0%" font-weight="400" font-size="12.666" font-family="Bitstream Vera Sans" opacity=".8"/><text x="-1039.915" y="-296.309" style="line-height:0%" font-weight="400" font-size="12.666" font-family="Bitstream Vera Sans" opacity=".8"/><text x="-232.313" y="-709.779" style="line-height:0%" font-weight="400" font-size="12.666" font-family="Bitstream Vera Sans" opacity=".8"/><text x="-208.352" y="-750.521" style="line-height:0%" font-weight="400" font-size="12.666" font-family="Bitstream Vera Sans" opacity=".8"/><text x="-1699.815" y="-757.731" style="line-height:0%" font-weight="400" font-size="12.666" font-family="Bitstream Vera Sans" opacity=".8"/><text x="-239.273" y="-1030.965" style="line-height:0%" font-weight="400" font-size="12.666" font-family="Bitstream Vera Sans" opacity=".8"/><text x="1246.851" y="-404.274" style="line-height:0%" font-weight="400" font-size="12.666" font-family="Bitstream Vera Sans" opacity=".8"/><text x="1270.812" y="-445.015" style="line-height:0%" font-weight="400" font-size="12.666" font-family="Bitstream Vera Sans" opacity=".8"/><text x="-220.652" y="-452.225" style="line-height:0%" font-weight="400" font-size="12.666" font-family="Bitstream Vera Sans" opacity=".8"/><text x="1239.891" y="-725.459" style="line-height:0%" font-weight="400" font-size="12.666" font-family="Bitstream Vera Sans" opacity=".8"/><text x="-1158.468" y="-500.317" style="line-height:0%" font-weight="400" font-size="12.666" font-family="Bitstream Vera Sans" opacity=".8"/><text x="-2982.154" y="245.237" style="line-height:0%" font-weight="400" font-size="12.666" font-family="Bitstream Vera Sans" opacity=".8"/><text x="-664.274" y="1159.415" style="line-height:0%" font-weight="400" font-size="14" font-family="Bitstream Vera Sans" opacity=".8" transform="matrix(.90475 0 0 .90475 -666.397 -710.87)"/><text x="486.252" y="-403.046" style="line-height:0%;-inkscape-font-specification:'Droid Sans'" font-weight="400" font-size="12.666" font-family="Droid Sans"/><text x="951.436" y="-885.091" style="line-height:0%" font-weight="400" font-size="12.666" font-family="Bitstream Vera Sans" opacity=".8"/><text x="-872.25" y="-139.537" style="line-height:0%" font-weight="400" font-size="12.666" font-family="Bitstream Vera Sans" opacity=".8"/><text x="1678.516" y="-1170.086" style="line-height:0%" font-weight="400" font-size="12.666" font-family="Bitstream Vera Sans" opacity=".8"/><text x="1702.477" y="-1210.828" style="line-height:0%" font-weight="400" font-size="12.666" font-family="Bitstream Vera Sans" opacity=".8"/><text x="211.014" y="-1218.038" style="line-height:0%" font-weight="400" font-size="12.666" font-family="Bitstream Vera Sans" opacity=".8"/><text x="1671.556" y="-1491.272" style="line-height:0%" font-weight="400" font-size="12.666" font-family="Bitstream Vera Sans" opacity=".8"/><path d="M24.938 44.266c.256-.154.765-.266.765-.266h75.781s.919.05 1.438.313c.52.261 1.064.829 1.064.829L114.226 57H14l10.213-12.07s.468-.511.725-.664z" style="marker:none" color="#000" overflow="visible" fill="url(#L)" enable-background="accumulate" transform="translate(.009 -31)"/><path d="M17.5 24h93a4.49 4.49 0 0 1 4.5 4.5v21a4.49 4.49 0 0 1-4.5 4.5h-93a4.49 4.49 0 0 1-4.5-4.5v-21a4.49 4.49 0 0 1 4.5-4.5z" style="marker:none" color="#000" overflow="visible" fill="url(#M)" enable-background="accumulate" transform="translate(.009)"/><path d="M17.5 24.516h93c2.216 0 4 1.784 4 4v21c0 2.216-1.784 4-4 4h-93c-2.216 0-4-1.784-4-4v-21c0-2.216 1.784-4 4-4z" fill="none" stroke="url(#N)" stroke-linecap="round" stroke-linejoin="round" transform="translate(.009)"/><path d="M26.016 12.496l75.253.013c1.776 0 2.573.709 3.235 1.473l9.25 10.68c.88.957 1.735 1.653 1.755 5.216V49.5c0 2.77-2.23 5-5 5h-93c-2.77 0-5-2.23-5-5V30.01c-.12-2.96.964-4.41 2.234-5.625l8.35-9.895c.916-1.084 1.545-1.995 2.923-1.994z" style="marker:none" color="#000" overflow="visible" opacity=".3" fill="none" stroke="#000" enable-background="accumulate"/><path style="marker:none" d="M20.009 31a1 1 0 0 1-2 0 1 1 0 1 1 2 0z" color="#000" overflow="visible" fill="#fff" fill-rule="evenodd" stroke-width=".338" enable-background="accumulate"/><path style="marker:none" d="M20.009 30a1 1 0 0 1-2 0 1 1 0 1 1 2 0z" color="#000" overflow="visible" opacity=".3" fill-rule="evenodd" stroke-width=".338" enable-background="accumulate"/><path style="marker:none" d="M110.009 31a1 1 0 0 1-2 0 1 1 0 1 1 2 0z" color="#000" overflow="visible" opacity=".8" fill="#fff" fill-rule="evenodd" stroke-width=".338" enable-background="accumulate"/><path style="marker:none" d="M110.009 30a1 1 0 0 1-2 0 1 1 0 1 1 2 0z" color="#000" overflow="visible" opacity=".3" fill-rule="evenodd" stroke-width=".338" enable-background="accumulate"/><path style="marker:none" d="M20.009 49a1 1 0 0 1-2 0 1 1 0 1 1 2 0z" color="#000" overflow="visible" fill="#fff" fill-rule="evenodd" stroke-width=".338" enable-background="accumulate"/><path style="marker:none" d="M20.009 48a1 1 0 0 1-2 0 1 1 0 1 1 2 0z" color="#000" overflow="visible" opacity=".3" fill-rule="evenodd" stroke-width=".338" enable-background="accumulate"/><path style="marker:none" d="M110.009 49a1 1 0 0 1-2 0 1 1 0 1 1 2 0z" color="#000" overflow="visible" opacity=".8" fill="#fff" fill-rule="evenodd" stroke-width=".338" enable-background="accumulate"/><path style="marker:none" d="M110.009 48a1 1 0 0 1-2 0 1 1 0 1 1 2 0z" color="#000" overflow="visible" opacity=".3" fill-rule="evenodd" stroke-width=".338" enable-background="accumulate"/><g stroke-width="1.414" stroke-opacity=".783"><path d="M90 35h2v9h-2z" fill="url(#O)" transform="matrix(.5 0 0 1 45.009 0)"/><path d="M90.009 44h1v1h-1z" opacity=".9" fill="#fff"/></g><g stroke-width="1.414" stroke-opacity=".783"><path d="M90 35h2v9h-2z" fill="url(#P)" transform="matrix(.5 0 0 1 48.009 0)"/><path d="M93.009 44h1v1h-1z" opacity=".9" fill="#fff"/></g><g stroke-width="1.414" stroke-opacity=".783"><path d="M90 35h2v9h-2z" fill="url(#Q)" transform="matrix(.5 0 0 1 51.009 0)"/><path d="M96.009 44h1v1h-1z" opacity=".9" fill="#fff"/></g><g stroke-width="1.414" stroke-opacity=".783"><path d="M90 35h2v9h-2z" fill="url(#R)" transform="matrix(.5 0 0 1 42.009 0)"/><path d="M87.009 44h1v1h-1z" opacity=".9" fill="#fff"/></g><g transform="translate(.009 62)"><circle r="2" cy="-24" cx="27" fill="#fff"/><circle cx="27" cy="-23" r="2" fill="#8cd5ff"/><path d="M28.936-23.504A2 2 0 0 1 27-22a2 2 0 0 1-1.936-1.496A2 2 0 0 0 25-23a2 2 0 0 0 2 2 2 2 0 0 0 2-2 2 2 0 0 0-.064-.504z" fill="#64baff"/></g><g transform="translate(6.009 62)"><circle cx="27" cy="-24" r="2" fill="#fff"/><circle r="2" cy="-23" cx="27" fill="#8cd5ff"/><path d="M28.936-23.504A2 2 0 0 1 27-22a2 2 0 0 1-1.936-1.496A2 2 0 0 0 25-23a2 2 0 0 0 2 2 2 2 0 0 0 2-2 2 2 0 0 0-.064-.504z" fill="#64baff"/></g><g transform="translate(12.009 62)"><circle r="2" cy="-24" cx="27" fill="#fff"/><circle cx="27" cy="-23" r="2" fill="#9bdb4d"/><path d="M28.936-23.504A2 2 0 0 1 27-22a2 2 0 0 1-1.936-1.496A2 2 0 0 0 25-23a2 2 0 0 0 2 2 2 2 0 0 0 2-2 2 2 0 0 0-.064-.504z" fill="#68b723"/></g><rect width="90" height="8" x="19" y="14" rx="2" ry="2" opacity=".4" fill="#104785"/><rect ry="1" rx="1" y="15" x="20" height="6" width="88" fill="url(#S)"/><g><path style="marker:none" d="M24.938 44.266c.256-.154.765-.266.765-.266h75.781s.919.05 1.438.313c.52.261 1.064.829 1.064.829L114.226 57H14l10.213-12.07s.468-.511.725-.664z" color="#000" overflow="visible" fill="url(#T)" enable-background="accumulate" transform="translate(.009 -66)"/><path style="marker:none" d="M17.5 24h93a4.49 4.49 0 0 1 4.5 4.5v21a4.49 4.49 0 0 1-4.5 4.5h-93a4.49 4.49 0 0 1-4.5-4.5v-21a4.49 4.49 0 0 1 4.5-4.5z" color="#000" overflow="visible" fill="url(#U)" enable-background="accumulate" transform="translate(.009 -35)"/><path d="M17.5 24.516h93c2.216 0 4 1.784 4 4v21c0 2.216-1.784 4-4 4h-93c-2.216 0-4-1.784-4-4v-21c0-2.216 1.784-4 4-4z" fill="none" stroke="url(#V)" stroke-linecap="round" stroke-linejoin="round" transform="translate(.009 -35)"/><path style="marker:none" d="M26.016-22.504l75.253.013c1.776 0 2.573.709 3.235 1.473l9.25 10.68c.88.957 1.735 1.653 1.755 5.216V14.5c0 2.77-2.23 5-5 5h-93c-2.77 0-5-2.23-5-5V-4.99c-.12-2.96.964-4.41 2.234-5.625l8.35-9.895c.916-1.084 1.545-1.995 2.923-1.994z" color="#000" overflow="visible" opacity=".3" fill="none" stroke="#000" enable-background="accumulate"/><path d="M20.009-4a1 1 0 0 1-2 0 1 1 0 1 1 2 0z" style="marker:none" color="#000" overflow="visible" fill="#fff" fill-rule="evenodd" stroke-width=".338" enable-background="accumulate"/><path d="M20.009-5a1 1 0 0 1-2 0 1 1 0 1 1 2 0z" style="marker:none" color="#000" overflow="visible" opacity=".3" fill-rule="evenodd" stroke-width=".338" enable-background="accumulate"/><path d="M110.009-4a1 1 0 0 1-2 0 1 1 0 1 1 2 0z" style="marker:none" color="#000" overflow="visible" opacity=".8" fill="#fff" fill-rule="evenodd" stroke-width=".338" enable-background="accumulate"/><path d="M110.009-5a1 1 0 0 1-2 0 1 1 0 1 1 2 0z" style="marker:none" color="#000" overflow="visible" opacity=".3" fill-rule="evenodd" stroke-width=".338" enable-background="accumulate"/><path d="M20.009 14a1 1 0 0 1-2 0 1 1 0 1 1 2 0z" style="marker:none" color="#000" overflow="visible" fill="#fff" fill-rule="evenodd" stroke-width=".338" enable-background="accumulate"/><path d="M20.009 13a1 1 0 0 1-2 0 1 1 0 1 1 2 0z" style="marker:none" color="#000" overflow="visible" opacity=".3" fill-rule="evenodd" stroke-width=".338" enable-background="accumulate"/><path d="M110.009 14a1 1 0 0 1-2 0 1 1 0 1 1 2 0z" style="marker:none" color="#000" overflow="visible" opacity=".8" fill="#fff" fill-rule="evenodd" stroke-width=".338" enable-background="accumulate"/><path d="M110.009 13a1 1 0 0 1-2 0 1 1 0 1 1 2 0z" style="marker:none" color="#000" overflow="visible" opacity=".3" fill-rule="evenodd" stroke-width=".338" enable-background="accumulate"/><g stroke-width="1.414" stroke-opacity=".783"><path d="M90 35h2v9h-2z" fill="url(#W)" transform="matrix(.5 0 0 1 45.009 -35)"/><path d="M90.009 9h1v1h-1z" opacity=".9" fill="#fff"/></g><g stroke-width="1.414" stroke-opacity=".783"><path d="M90 35h2v9h-2z" fill="url(#X)" transform="matrix(.5 0 0 1 48.009 -35)"/><path d="M93.009 9h1v1h-1z" opacity=".9" fill="#fff"/></g><g stroke-width="1.414" stroke-opacity=".783"><path d="M90 35h2v9h-2z" fill="url(#Y)" transform="matrix(.5 0 0 1 51.009 -35)"/><path d="M96.009 9h1v1h-1z" opacity=".9" fill="#fff"/></g><g stroke-width="1.414" stroke-opacity=".783"><path d="M90 35h2v9h-2z" fill="url(#Z)" transform="matrix(.5 0 0 1 42.009 -35)"/><path d="M87.009 9h1v1h-1z" opacity=".9" fill="#fff"/></g><g transform="translate(.009 27)"><circle cx="27" cy="-24" r="2" fill="#fff"/><circle r="2" cy="-23" cx="27" fill="#8cd5ff"/><path d="M28.936-23.504A2 2 0 0 1 27-22a2 2 0 0 1-1.936-1.496A2 2 0 0 0 25-23a2 2 0 0 0 2 2 2 2 0 0 0 2-2 2 2 0 0 0-.064-.504z" fill="#64baff"/></g><g transform="translate(6.009 27)"><circle r="2" cy="-24" cx="27" fill="#fff"/><circle cx="27" cy="-23" r="2" fill="#8cd5ff"/><path d="M28.936-23.504A2 2 0 0 1 27-22a2 2 0 0 1-1.936-1.496A2 2 0 0 0 25-23a2 2 0 0 0 2 2 2 2 0 0 0 2-2 2 2 0 0 0-.064-.504z" fill="#64baff"/></g><g transform="translate(12.009 27)"><circle cx="27" cy="-24" r="2" fill="#fff"/><circle r="2" cy="-23" cx="27" fill="#9bdb4d"/><path d="M28.936-23.504A2 2 0 0 1 27-22a2 2 0 0 1-1.936-1.496A2 2 0 0 0 25-23a2 2 0 0 0 2 2 2 2 0 0 0 2-2 2 2 0 0 0-.064-.504z" fill="#68b723"/></g></g><rect ry="2" rx="2" y="-21" x="19" height="8" width="90" opacity=".4" fill="#104785"/><rect width="88" height="6" x="20" y="-20" rx="1" ry="1" fill="url(#aa)"/><g><path style="marker:none" d="M24.938 44.266c.256-.154.765-.266.765-.266h75.781s.919.05 1.438.313c.52.261 1.064.829 1.064.829L114.226 57H14l10.213-12.07s.468-.511.725-.664z" color="#000" overflow="visible" fill="url(#ab)" enable-background="accumulate" transform="translate(.009 -101)"/><path style="marker:none" d="M17.5 24h93a4.49 4.49 0 0 1 4.5 4.5v21a4.49 4.49 0 0 1-4.5 4.5h-93a4.49 4.49 0 0 1-4.5-4.5v-21a4.49 4.49 0 0 1 4.5-4.5z" color="#000" overflow="visible" fill="url(#ac)" enable-background="accumulate" transform="translate(.009 -70)"/><path d="M17.5 24.516h93c2.216 0 4 1.784 4 4v21c0 2.216-1.784 4-4 4h-93c-2.216 0-4-1.784-4-4v-21c0-2.216 1.784-4 4-4z" fill="none" stroke="url(#ad)" stroke-linecap="round" stroke-linejoin="round" transform="translate(.009 -70)"/><path style="marker:none" d="M26.016-57.504l75.253.013c1.776 0 2.573.709 3.235 1.473l9.25 10.68c.88.957 1.735 1.653 1.755 5.216V-20.5c0 2.77-2.23 5-5 5h-93c-2.77 0-5-2.23-5-5v-19.49c-.12-2.96.964-4.41 2.234-5.625l8.35-9.895c.916-1.084 1.545-1.995 2.923-1.994z" color="#000" overflow="visible" opacity=".3" fill="none" stroke="#000" enable-background="accumulate"/><path d="M20.009-39a1 1 0 0 1-2 0 1 1 0 1 1 2 0z" style="marker:none" color="#000" overflow="visible" fill="#fff" fill-rule="evenodd" stroke-width=".338" enable-background="accumulate"/><path d="M20.009-40a1 1 0 0 1-2 0 1 1 0 1 1 2 0z" style="marker:none" color="#000" overflow="visible" opacity=".3" fill-rule="evenodd" stroke-width=".338" enable-background="accumulate"/><path d="M110.009-39a1 1 0 0 1-2 0 1 1 0 1 1 2 0z" style="marker:none" color="#000" overflow="visible" opacity=".8" fill="#fff" fill-rule="evenodd" stroke-width=".338" enable-background="accumulate"/><path d="M110.009-40a1 1 0 0 1-2 0 1 1 0 1 1 2 0z" style="marker:none" color="#000" overflow="visible" opacity=".3" fill-rule="evenodd" stroke-width=".338" enable-background="accumulate"/><path d="M20.009-21a1 1 0 0 1-2 0 1 1 0 1 1 2 0z" style="marker:none" color="#000" overflow="visible" fill="#fff" fill-rule="evenodd" stroke-width=".338" enable-background="accumulate"/><path d="M20.009-22a1 1 0 0 1-2 0 1 1 0 1 1 2 0z" style="marker:none" color="#000" overflow="visible" opacity=".3" fill-rule="evenodd" stroke-width=".338" enable-background="accumulate"/><path d="M110.009-21a1 1 0 0 1-2 0 1 1 0 1 1 2 0z" style="marker:none" color="#000" overflow="visible" opacity=".8" fill="#fff" fill-rule="evenodd" stroke-width=".338" enable-background="accumulate"/><path d="M110.009-22a1 1 0 0 1-2 0 1 1 0 1 1 2 0z" style="marker:none" color="#000" overflow="visible" opacity=".3" fill-rule="evenodd" stroke-width=".338" enable-background="accumulate"/><g stroke-width="1.414" stroke-opacity=".783"><path d="M90 35h2v9h-2z" fill="url(#ae)" transform="matrix(.5 0 0 1 45.009 -70)"/><path d="M90.009-26h1v1h-1z" opacity=".9" fill="#fff"/></g><g stroke-width="1.414" stroke-opacity=".783"><path d="M90 35h2v9h-2z" fill="url(#af)" transform="matrix(.5 0 0 1 48.009 -70)"/><path d="M93.009-26h1v1h-1z" opacity=".9" fill="#fff"/></g><g stroke-width="1.414" stroke-opacity=".783"><path d="M90 35h2v9h-2z" fill="url(#ag)" transform="matrix(.5 0 0 1 51.009 -70)"/><path d="M96.009-26h1v1h-1z" opacity=".9" fill="#fff"/></g><g stroke-width="1.414" stroke-opacity=".783"><path d="M90 35h2v9h-2z" fill="url(#ah)" transform="matrix(.5 0 0 1 42.009 -70)"/><path d="M87.009-26h1v1h-1z" opacity=".9" fill="#fff"/></g><g transform="translate(.009 -8)"><circle cx="27" cy="-24" r="2" fill="#fff"/><circle r="2" cy="-23" cx="27" fill="#8cd5ff"/><path d="M28.936-23.504A2 2 0 0 1 27-22a2 2 0 0 1-1.936-1.496A2 2 0 0 0 25-23a2 2 0 0 0 2 2 2 2 0 0 0 2-2 2 2 0 0 0-.064-.504z" fill="#64baff"/></g><g transform="translate(6.009 -8)"><circle r="2" cy="-24" cx="27" fill="#fff"/><circle cx="27" cy="-23" r="2" fill="#8cd5ff"/><path d="M28.936-23.504A2 2 0 0 1 27-22a2 2 0 0 1-1.936-1.496A2 2 0 0 0 25-23a2 2 0 0 0 2 2 2 2 0 0 0 2-2 2 2 0 0 0-.064-.504z" fill="#64baff"/></g><g transform="translate(12.009 -8)"><circle cx="27" cy="-24" r="2" fill="#fff"/><circle r="2" cy="-23" cx="27" fill="#9bdb4d"/><path d="M28.936-23.504A2 2 0 0 1 27-22a2 2 0 0 1-1.936-1.496A2 2 0 0 0 25-23a2 2 0 0 0 2 2 2 2 0 0 0 2-2 2 2 0 0 0-.064-.504z" fill="#68b723"/></g></g></g><path opacity=".8" fill="#8cd5ff" filter="url(#ai)" d="M27 47h15v5H27z"/><path fill="url(#aj)" d="M31 49h7v1h-7z"/><path opacity=".8" fill="#8cd5ff" filter="url(#ak)" d="M85 82h15v5H85z"/><path fill="url(#al)" d="M89 84h7v1h-7z"/></svg>