<svg xmlns="http://www.w3.org/2000/svg" xmlns:xlink="http://www.w3.org/1999/xlink" id="svg2" width="128" height="128" viewBox="0 0 128 128"><defs id="defs6"><linearGradient id="linearGradient833"><stop offset="0" id="stop829" stop-color="#f8232b"/><stop offset="1" id="stop831" stop-color="#f95756"/></linearGradient><linearGradient id="linearGradient823"><stop offset="0" id="stop819" stop-color="#bf282e"/><stop offset="1" id="stop821" stop-color="#f95756"/></linearGradient><linearGradient xlink:href="#linearGradient823" id="linearGradient825" x1="-741.832" y1="959.047" x2="-741.832" y2="93.836" gradientUnits="userSpaceOnUse" gradientTransform="matrix(.13668 0 0 .13668 162.312 -5.99)"/><linearGradient xlink:href="#linearGradient833" id="linearGradient835" x1="-738.764" y1="931.434" x2="-738.764" y2="152.131" gradientUnits="userSpaceOnUse" gradientTransform="matrix(.13668 0 0 .13668 162.312 -5.99)"/><linearGradient id="linearGradient3820-7-2-8-6"><stop offset="0" id="stop3822-2-6-5-0" stop-color="#3d3d3d"/><stop offset=".5" id="stop3864-8-7-4-1" stop-color="#686868" stop-opacity=".498"/><stop offset="1" id="stop3824-1-2-6-7" stop-color="#686868" stop-opacity="0"/></linearGradient><linearGradient id="linearGradient4806"><stop id="stop4808" offset="0" stop-color="#fff"/><stop id="stop4810" offset=".424" stop-color="#fff" stop-opacity=".235"/><stop id="stop4812" offset=".821" stop-color="#fff" stop-opacity=".157"/><stop id="stop4814" offset="1" stop-color="#fff" stop-opacity=".392"/></linearGradient><linearGradient y2="40.496" x2="71.204" y1="15.369" x1="71.204" gradientTransform="translate(-236.033 -50.036) scale(4.16388)" gradientUnits="userSpaceOnUse" id="linearGradient3118" xlink:href="#linearGradient4806"/><radialGradient r="62.769" fy="186.171" fx="99.157" cy="186.171" cx="99.157" gradientTransform="matrix(.68694 0 0 .21462 -4.022 68.573)" gradientUnits="userSpaceOnUse" id="radialGradient3163" xlink:href="#linearGradient3820-7-2-8-6"/><radialGradient gradientTransform="scale(92.32008 46.86186) rotate(90 9.4 1.28)" gradientUnits="userSpaceOnUse" xlink:href="#linearGradient2867-449-88-871-390-598-476-591-434-148-57-177-3-8-8-9" id="radialGradient5521-1" fy="9.957" fx="6.93" r="12.672" cy="9.957" cx="7.461"/><linearGradient id="linearGradient2867-449-88-871-390-598-476-591-434-148-57-177-3-8-8-9"><stop id="stop3750-8-9-0" offset="0" stop-color="#90dbec"/><stop id="stop3752-3-2-2" offset=".262" stop-color="#42baea"/><stop id="stop3754-7-2-2" offset=".705" stop-color="#3689e6"/><stop id="stop3756-9-3-05" offset="1" stop-color="#2b63a0"/></linearGradient><linearGradient id="linearGradient1225"><stop offset="0" id="stop1221" stop-color="#f37329"/><stop offset="1" id="stop1223" stop-color="#e95420"/></linearGradient><linearGradient y2="40.496" x2="71.204" y1="15.369" x1="71.204" gradientTransform="translate(-237.9 -51.83) scale(4.16388)" gradientUnits="userSpaceOnUse" id="linearGradient3118-2" xlink:href="#linearGradient4806"/><radialGradient r="62.769" fy="186.171" fx="99.157" cy="186.171" cx="99.157" gradientTransform="matrix(.75814 0 0 .23686 -10.03 66.656)" gradientUnits="userSpaceOnUse" id="radialGradient3163-9" xlink:href="#linearGradient3820-7-2-8-6"/><linearGradient xlink:href="#linearGradient1225" id="linearGradient1227" x1="64.5" y1="13.998" x2="64.5" y2="118.048" gradientUnits="userSpaceOnUse"/></defs><circle id="path817" cx="63.592" cy="64.286" r="61.38" fill="url(#linearGradient825)" stroke-width=".787" stroke-linecap="round" stroke-linejoin="round"/><circle r="55.09" cy="64.286" cx="63.592" id="circle827" fill="url(#linearGradient835)" stroke-width=".706" stroke-linecap="round" stroke-linejoin="round"/><path class="st7" d="M93.464 55.425v.473c-1.395 5.435-2.557 11.342-3.952 17.486-.232.945-.93 1.654-1.627 1.654a204.431 204.431 0 0 1-24.177 1.418c-8.136 0-16.273-.473-24.177-1.418-.93 0-1.627-.71-1.86-1.654-1.394-6.144-2.557-12.051-3.951-17.486v-.473c-1.628-.236-2.79-1.654-2.79-3.308 0-2.127 1.627-4.253 3.72-4.726 2.092-.472 3.719 1.182 3.719 3.545 0 1.417-.465 2.599-1.395 3.544 1.627 1.654 3.255 3.544 4.882 5.435 1.162 1.418 3.022 2.363 4.882 2.363 2.092 0 4.184-1.182 5.58-3.308 2.789-4.49 5.578-9.216 8.368-13.942-.697-.945-1.162-2.126-1.162-3.308 0-2.6 1.627-4.962 3.952-4.962 2.092 0 3.952 2.363 3.952 4.962 0 1.182-.465 2.363-1.163 3.308 2.79 4.726 5.58 9.452 8.37 13.942 1.394 2.126 3.254 3.544 5.578 3.544 1.86 0 3.487-.709 4.882-2.127 1.628-1.89 3.255-3.78 5.115-5.434-.93-.946-1.395-2.127-1.395-3.545 0-2.363 1.627-4.017 3.72-3.544 2.092.472 3.719 2.599 3.719 4.726-.233 1.181-1.163 2.363-2.79 2.835zm-4.417 25.993c0-1.182-.697-1.89-1.86-1.654-15.575 2.363-31.848 2.363-47.423 0-.93-.237-1.86.709-1.86 1.654v4.962c0 1.181.697 2.363 1.86 2.6a100.561 100.561 0 0 0 47.424 0c.93-.237 1.86-1.419 1.86-2.6v-4.962z" id="path927" fill="none" stroke-width="4" stroke="#000" stroke-opacity=".081"/><style id="style3">.st0{fill:url(#SVGID_1_)}.st1{fill:url(#SVGID_2_)}.st2{fill:url(#SVGID_3_)}.st3{fill:url(#SVGID_4_)}.st4{fill:url(#SVGID_5_)}.st5{fill:url(#SVGID_6_)}.st6{opacity:.29}.st7{fill:url(#SVGID_7_)}</style><path id="path925" d="M93.464 55.425v.473c-1.395 5.435-2.557 11.342-3.952 17.486-.232.945-.93 1.654-1.627 1.654a204.431 204.431 0 0 1-24.177 1.418c-8.136 0-16.273-.473-24.177-1.418-.93 0-1.627-.71-1.86-1.654-1.394-6.144-2.557-12.051-3.951-17.486v-.473c-1.628-.236-2.79-1.654-2.79-3.308 0-2.127 1.627-4.253 3.72-4.726 2.092-.472 3.719 1.182 3.719 3.545 0 1.417-.465 2.599-1.395 3.544 1.627 1.654 3.255 3.544 4.882 5.435 1.162 1.418 3.022 2.363 4.882 2.363 2.092 0 4.184-1.182 5.58-3.308 2.789-4.49 5.578-9.216 8.368-13.942-.697-.945-1.162-2.126-1.162-3.308 0-2.6 1.627-4.962 3.952-4.962 2.092 0 3.952 2.363 3.952 4.962 0 1.182-.465 2.363-1.163 3.308 2.79 4.726 5.58 9.452 8.37 13.942 1.394 2.126 3.254 3.544 5.578 3.544 1.86 0 3.487-.709 4.882-2.127 1.628-1.89 3.255-3.78 5.115-5.434-.93-.946-1.395-2.127-1.395-3.545 0-2.363 1.627-4.017 3.72-3.544 2.092.472 3.719 2.599 3.719 4.726-.233 1.181-1.163 2.363-2.79 2.835zm-4.417 25.993c0-1.182-.697-1.89-1.86-1.654-15.575 2.363-31.848 2.363-47.423 0-.93-.237-1.86.709-1.86 1.654v4.962c0 1.181.697 2.363 1.86 2.6a100.561 100.561 0 0 0 47.424 0c.93-.237 1.86-1.419 1.86-2.6v-4.962z" class="st7" fill="none" stroke-width="2" stroke="#000" stroke-opacity=".081"/><path class="st7" d="M93.464 55.425v.473c-1.395 5.435-2.557 11.342-3.952 17.486-.232.945-.93 1.654-1.627 1.654a204.431 204.431 0 0 1-24.177 1.418c-8.136 0-16.273-.473-24.177-1.418-.93 0-1.627-.71-1.86-1.654-1.394-6.144-2.557-12.051-3.951-17.486v-.473c-1.628-.236-2.79-1.654-2.79-3.308 0-2.127 1.627-4.253 3.72-4.726 2.092-.472 3.719 1.182 3.719 3.545 0 1.417-.465 2.599-1.395 3.544 1.627 1.654 3.255 3.544 4.882 5.435 1.162 1.418 3.022 2.363 4.882 2.363 2.092 0 4.184-1.182 5.58-3.308 2.789-4.49 5.578-9.216 8.368-13.942-.697-.945-1.162-2.126-1.162-3.308 0-2.6 1.627-4.962 3.952-4.962 2.092 0 3.952 2.363 3.952 4.962 0 1.182-.465 2.363-1.163 3.308 2.79 4.726 5.58 9.452 8.37 13.942 1.394 2.126 3.254 3.544 5.578 3.544 1.86 0 3.487-.709 4.882-2.127 1.628-1.89 3.255-3.78 5.115-5.434-.93-.946-1.395-2.127-1.395-3.545 0-2.363 1.627-4.017 3.72-3.544 2.092.472 3.719 2.599 3.719 4.726-.233 1.181-1.163 2.363-2.79 2.835zm-4.417 25.993c0-1.182-.697-1.89-1.86-1.654-15.575 2.363-31.848 2.363-47.423 0-.93-.237-1.86.709-1.86 1.654v4.962c0 1.181.697 2.363 1.86 2.6a100.561 100.561 0 0 0 47.424 0c.93-.237 1.86-1.419 1.86-2.6v-4.962z" id="path87-1" fill="#fff" stroke-width="1.104"/></svg>