<svg xmlns="http://www.w3.org/2000/svg" viewBox="0 0 128 128" xmlns:xlink="http://www.w3.org/1999/xlink"><defs><radialGradient id="b" gradientUnits="userSpaceOnUse" cy="93.468" cx="-4.029" gradientTransform="matrix(1.1885 0 0 .09904 204.79 154.24)" r="35.338"><stop offset="0"/><stop stop-opacity="0" offset="1"/></radialGradient><radialGradient id="c" xlink:href="#a" gradientUnits="userSpaceOnUse" cy="43.5" cx="4.993" gradientTransform="matrix(1.4101 0 0 1.4 -23.656 -104.4)" r="2.5"/><linearGradient id="a"><stop stop-color="#181818" offset="0"/><stop stop-color="#181818" stop-opacity="0" offset="1"/></linearGradient><linearGradient id="d" y2="39.999" gradientUnits="userSpaceOnUse" x2="25.058" gradientTransform="matrix(.32672 0 0 1 13.344 0)" y1="47.028" x1="25.058"><stop stop-color="#181818" stop-opacity="0" offset="0"/><stop stop-color="#181818" offset=".5"/><stop stop-color="#181818" stop-opacity="0" offset="1"/></linearGradient><radialGradient id="e" xlink:href="#a" gradientUnits="userSpaceOnUse" cy="43.5" cx="4.993" gradientTransform="matrix(1.4101 0 0 1.4 18.714 -104.4)" r="2.5"/><linearGradient id="f" y2="25.901" gradientUnits="userSpaceOnUse" x2="-77.819" gradientTransform="matrix(1.0041 0 0 -1 254.14 301)" y1="129" x1="-150"><stop stop-color="#640f0f" offset="0"/><stop stop-color="#ff4f4f" offset=".122"/><stop stop-color="#f30000" offset="1"/></linearGradient><linearGradient id="g" y2="220.29" gradientUnits="userSpaceOnUse" x2="-108.19" gradientTransform="matrix(1.0041 0 0 -1 254.14 301)" y1="91.544" x1="-70.518"><stop stop-color="#ff7a55" offset="0"/><stop stop-color="#ffb484" offset="1"/></linearGradient><linearGradient id="h" y2="252.6" gradientUnits="userSpaceOnUse" x2="174" y1="118" x1="94"><stop stop-color="#fff" offset="0"/><stop stop-color="#fff" stop-opacity=".137" offset=".138"/><stop stop-color="#fff" stop-opacity=".098" offset=".88"/><stop stop-color="#fff" stop-opacity=".596" offset="1"/></linearGradient></defs><path opacity=".1" d="M242 163.5a42 3.5 0 0 1-84 0 42 3.5 0 1 1 84 0z" fill="url(#b)" color="#000" transform="translate(-135 -45)"/><g opacity=".4"><path transform="matrix(-2.84202 0 0 -.71428 26.79 87.43)" fill="url(#c)" d="M-16.611-47h3.518v7h-3.518z"/><path fill="url(#d)" d="M16.611 40h9.148v7h-9.148z" transform="matrix(2.84202 0 0 .71428 26.79 87.43)"/><path transform="matrix(2.84202 0 0 -.71428 26.79 87.43)" fill="url(#e)" d="M25.759-47h3.518v7h-3.518z"/></g><g color="#000"><path d="M125.96 160.72l-34.084 33.095m.71.751l57.534 62.43h64.596l-88.762-96.278" fill="url(#f)" transform="matrix(.52939 0 0 .53642 -9.8 -19.364)"/><g stroke-opacity=".4" stroke-width="1.877"><path d="M150.12 65h64.596l-88.762 96-33.282 33.69L61.355 161z" stroke="#f33500" fill="url(#g)" transform="matrix(.52939 0 0 .53642 -9.8 -19.364)"/><path d="M150.96 67l-86.8 94 86.8 94h59.2l-86.77-94.13L210.16 67z" stroke="url(#h)" fill="none" transform="matrix(.52939 0 0 .53642 -9.8 -19.364)"/><path d="M93.167 195.21l56.956 61.792h64.596l-88.762-96.278" stroke="#950804" fill="none" transform="matrix(.52939 0 0 .53642 -9.8 -19.364)"/></g></g></svg>