<svg xmlns="http://www.w3.org/2000/svg" xmlns:xlink="http://www.w3.org/1999/xlink" width="128" height="128" viewBox="0 0 128 128"><defs><linearGradient id="c"><stop offset="0" stop-color="#f1f9fc"/><stop offset="1" stop-color="#c1d4d8"/></linearGradient><linearGradient id="b"><stop offset="0" stop-color="#40e9dc"/><stop offset="1" stop-color="#9be940" stop-opacity="0"/></linearGradient><linearGradient id="a"><stop offset="0" stop-color="#f2b336"/><stop offset=".494" stop-color="#fc7e4b"/><stop offset="1" stop-color="#df364a"/></linearGradient><linearGradient xlink:href="#a" id="e" x1="506.835" y1="466.926" x2="600.028" y2="451.65" gradientUnits="userSpaceOnUse" gradientTransform="matrix(.98994 0 0 .98994 -483.65 -383.707)"/><linearGradient xlink:href="#b" id="f" x1="552.634" y1="500.263" x2="556.324" y2="460.34" gradientUnits="userSpaceOnUse" gradientTransform="matrix(.98994 0 0 .98994 -483.65 -383.707)"/><linearGradient xlink:href="#c" id="d" x1="1704.569" y1="148.892" x2="1723.315" y2="249.18" gradientUnits="userSpaceOnUse" gradientTransform="translate(-840.041 -16.038) scale(.52386)"/></defs><path d="M5.944 44.942l101.682-29.226-1.74-5.566c-1.2-3.456-4.512-7.13-13.482-4.176l-82.11 23.138c-4.249 1.348-7.28 4.727-6.437 8.959z" fill="#f3fbfe"/><path d="M107.626 15.716l-.13 2.87-92.027 26.139-9.525.217z" fill="#5b6263"/><path d="M88.142 7.41l-13.308 3.827 19.006 8.48s.063 1.447.164 2.701l13.491-3.832.131-2.87zm-29.27 8.22L45 19.455l19.832 8.656a97 97 0 0 0 .085 2.568l13.871-3.939-.17-2.717zm-28.964 8.176l-13.09 3.74 19.374 8.791s-.21 1.242-.12 2.537L50.27 34.84l.143-2.684zM4.48 33.594c-.687 1.318-.95 2.832-.623 4.477l2.087 6.871 9.525-.217 5.882-1.67-1.054-2.244z" opacity=".892" fill="#191d21" fill-opacity=".974"/><path d="M98.126 4.894c-1.59.017-3.48.342-5.722 1.08l-82.11 23.138c-4.248 1.348-7.28 4.727-6.437 8.959l2.087 6.871 9.525-.217 92.026-26.139.131-2.87-1.74-5.567c-.9-2.59-2.988-5.306-7.76-5.255z" fill="none"/><path d="M6.282 46.856l102.856-16.679c.822-.15 1.35.425 1.522 1.631l11.133 71.412c.641 3.734-2.75 6.846-7.306 7.568l-90.461 13.917c-3.019.32-6.254-2.144-6.785-5.567z" fill="#5d636b" stroke-width=".524"/><path d="M5.944 44.942L108.8 28.263c.823-.15 1.352.425 1.522 1.631l11.134 71.412c.641 3.734-2.75 6.847-7.306 7.568L23.688 122.79c-3.018.32-6.254-2.143-6.784-5.567z" fill="url(#d)" stroke-width=".524"/><path d="M109.22 46.623l-4.551.719h-.01L17.05 61.18l-4.557.72.72 4.55v.008l6.277 39.743 1.297 8.211a4.603 4.603 0 0 0 5.277 3.838l87.61-13.838a4.603 4.603 0 0 0 3.837-5.276l-1.297-8.213-6.278-39.743z" fill="url(#e)" stroke-width="3.741" stroke-linecap="round" stroke-linejoin="round"/><path d="M109.22 46.623l-4.551.719h-.01L17.05 61.18l-4.557.72.72 4.55v.008l6.277 39.743 1.297 8.211a4.603 4.603 0 0 0 5.277 3.838l87.61-13.838a4.603 4.603 0 0 0 3.837-5.276l-1.297-8.213-6.278-39.743z" fill="url(#f)" stroke-width="3.741" stroke-linecap="round" stroke-linejoin="round"/><path d="M108.964 44.9l-4.551.72h-.01L16.794 59.458l-4.557.72.272 1.72 4.54-.718 87.608-13.838h.01l4.551-.72.717 4.558 6.279 39.742 1.075 6.808c-.01-.106-.017-.21-.034-.317L115.96 89.2l-6.278-39.742z" fill="#73694d" stroke-width="3.741" stroke-linecap="round" stroke-linejoin="round"/><path d="M109.22 46.622l-4.551.72h-.01L17.05 61.18l-4.557.72.72 4.55v.009L19.49 106.2l1.298 8.211a4.603 4.603 0 0 0 5.276 3.838l87.61-13.837a4.603 4.603 0 0 0 3.838-5.277l-1.298-8.214-6.278-39.742zm-.906.94l.704 4.418 6.157 38.534 1.273 7.963c.391 2.449-1.287 4.73-3.764 5.117l-85.937 13.417c-2.476.387-4.783-1.273-5.175-3.721l-1.273-7.962-6.158-38.534v-.008l-.706-4.413 4.47-.697L103.84 48.26h.01z" fill="#060a01" fill-opacity=".117" stroke-width="3.741" stroke-linecap="round" stroke-linejoin="round"/><path d="M109.542 28.37l-13.554 2.057c-.492.615-11.932 15.623-11.932 15.623l14.393-2.215 11.226-15.375a1.025 1.025 0 0 0-.133-.09zm-30.037 4.763l-11.479 1.743-2.318.376c-.529.663-11.912 15.595-11.912 15.595l14.392-2.214zM49.86 37.931l-10.55 1.6-3.258.529c-.542.682-11.902 15.585-11.902 15.585l14.393-2.214zm-29.858 4.732l-14.057 2.28L8.063 58.92c1.617-2.282 10.365-14.606 11.939-16.258z" fill="#191d21" fill-opacity=".92" stroke-width=".524"/><path style="isolation:isolate" d="M45.42 67.464l6.16 37.609 5.19-4.766.624 3.813 5.19-4.765.625 3.813L88.8 79.666 57.048 65.56l.625 3.814-6.44-2.861.625 3.813z" fill="#fff" fill-opacity=".517" stroke-width=".382" stroke-linejoin="round" stroke-opacity=".535"/></svg>