<svg xmlns="http://www.w3.org/2000/svg" xmlns:xlink="http://www.w3.org/1999/xlink" width="128" height="128" viewBox="0 0 33.866667 33.866668"><defs><linearGradient id="a"><stop offset="0" stop-color="#dbe1e1"/><stop offset="1" stop-color="#c2c6c6"/></linearGradient><linearGradient xlink:href="#a" id="b" x1="5.15" y1="7.099" x2="28.199" y2="28.948" gradientUnits="userSpaceOnUse"/></defs><g transform="translate(.27 -.118)"><path d="M4.395 3.634a2.92 2.92 0 0 0-2.91 2.91v22.932a2.92 2.92 0 0 0 2.91 2.91h23.364a2.92 2.92 0 0 0 2.91-2.91V6.544a2.92 2.92 0 0 0-2.91-2.91z" fill-opacity=".241" stroke-width="1.005"/><path d="M4.312 3.532c-1.61 0-2.93 1.32-2.93 2.931v23.094c0 1.61 1.32 2.93 2.93 2.93h23.53c1.61 0 2.93-1.32 2.93-2.93V6.463c0-1.61-1.32-2.93-2.93-2.93z" fill-opacity=".199" stroke-width="1.012"/><path d="M4.23 3.431a2.962 2.962 0 0 0-2.951 2.951v23.256a2.962 2.962 0 0 0 2.95 2.95h23.695a2.962 2.962 0 0 0 2.95-2.95V6.382a2.962 2.962 0 0 0-2.95-2.951z" fill-opacity=".11" stroke-width="1.02"/><path d="M4.137 3.317A2.985 2.985 0 0 0 1.163 6.29v23.438a2.985 2.985 0 0 0 2.974 2.974h23.88a2.985 2.985 0 0 0 2.973-2.974V6.29a2.985 2.985 0 0 0-2.974-2.974z" fill-opacity=".063" stroke-width="1.027"/><path d="M4.034 3.19a3.01 3.01 0 0 0-3 3v23.64c0 1.648 1.352 3 3 3h24.085c1.649 0 3-1.352 3-3V6.19c0-1.648-1.351-3-3-3z" fill-opacity=".031" stroke-width="1.036"/><rect y="12.218" x="11.626" width="9.221" ry="2.144" height="10.29" opacity=".824" fill="none" filter="url(#a)"/><path d="M4.42 3.64a2.905 2.905 0 0 0-2.895 2.895v22.81A2.905 2.905 0 0 0 4.42 32.24h23.24a2.905 2.905 0 0 0 2.895-2.895V6.535A2.905 2.905 0 0 0 27.66 3.64z" fill="#fff"/><path d="M5.09 5.026H26.99a2.14 2.14 0 0 1 2.144 2.144v21.373a2.14 2.14 0 0 1-2.144 2.144H5.089a2.14 2.14 0 0 1-2.144-2.144V7.17A2.14 2.14 0 0 1 5.09 5.026z" fill="url(#b)" stroke-width=".529" stroke-linecap="round" stroke-linejoin="round" paint-order="fill markers stroke"/><g><path d="M21.59 3.64a6.337 6.337 0 0 0-.691 2.862 6.337 6.337 0 0 0 6.337 6.338 6.337 6.337 0 0 0 3.319-.945v-5.36A2.905 2.905 0 0 0 27.66 3.64z" fill-opacity=".026"/><path d="M22.214 3.64a5.828 5.828 0 0 0-.692 2.748 5.828 5.828 0 0 0 5.828 5.828 5.828 5.828 0 0 0 3.205-.963V6.534A2.905 2.905 0 0 0 27.66 3.64z" fill-opacity=".283"/><path d="M22.015 3.64a6.007 6.007 0 0 0-.672 2.748 6.007 6.007 0 0 0 6.007 6.008 6.007 6.007 0 0 0 3.205-.93V6.534A2.905 2.905 0 0 0 27.66 3.64z" fill-opacity=".157"/><path d="M21.775 3.64a6.223 6.223 0 0 0-.648 2.748 6.223 6.223 0 0 0 6.223 6.223 6.223 6.223 0 0 0 3.205-.896v-5.18A2.905 2.905 0 0 0 27.66 3.64z" fill-opacity=".089"/><path d="M21.775 3.64a6.223 6.223 0 0 0-.648 2.748 6.223 6.223 0 0 0 6.223 6.223 6.223 6.223 0 0 0 3.205-.896v-5.18A2.905 2.905 0 0 0 27.66 3.64z" fill-opacity=".052"/></g><circle r="5.469" cy="6.46" cx="27.242" fill="#df4b41" stroke="#b73329" stroke-width=".373"/><g transform="translate(0 -263.133)" fill="none"><path d="M.134 263.324H33.81v33.81H.134z"/><rect y="267.523" x="2.276" width="27.496" ry="2.141" height="27.068"/></g></g></svg>