<svg xmlns="http://www.w3.org/2000/svg" xmlns:xlink="http://www.w3.org/1999/xlink" width="128" height="128" viewBox="0 0 128 128"><defs><linearGradient id="j"><stop offset="0" stop-color="#d1d1d1"/><stop offset="1" stop-color="#d1d1d1" stop-opacity="0"/></linearGradient><linearGradient id="i"><stop offset="0" stop-color="#d9d9d9"/><stop offset="1" stop-color="#4c4c4c" stop-opacity="0"/></linearGradient><linearGradient id="h"><stop offset="0" stop-color="#4c4c4c"/><stop offset="1" stop-color="#242424"/></linearGradient><linearGradient id="g"><stop offset="0" stop-color="#010101"/><stop offset="1" stop-color="#383838"/></linearGradient><linearGradient id="f"><stop offset="0" stop-color="#5c5c5c"/><stop offset="1" stop-color="#353535"/></linearGradient><linearGradient id="e"><stop offset="0" stop-color="#171919"/><stop offset="1" stop-color="#171919" stop-opacity="0"/></linearGradient><linearGradient id="d"><stop offset="0" stop-color="#252525"/><stop offset="1" stop-color="#060606"/></linearGradient><linearGradient id="c"><stop offset="0" stop-color="#f9f9f9"/><stop offset=".533" stop-color="#c9c9c9"/><stop offset="1" stop-color="#878787"/></linearGradient><linearGradient id="b"><stop offset="0" stop-color="#fcfcfc"/><stop offset="1" stop-color="#f2f2f2"/></linearGradient><linearGradient id="a"><stop offset="0"/><stop offset=".956" stop-color="#202020"/><stop offset=".977" stop-color="#212121" stop-opacity=".576"/><stop offset="1" stop-color="#242424" stop-opacity="0"/></linearGradient><radialGradient xlink:href="#a" id="k" cx="-466.441" cy="527.186" fx="-466.441" fy="527.186" r="496.814" gradientUnits="userSpaceOnUse" gradientTransform="matrix(.95658 0 0 .95902 -102.695 -922.124)"/><linearGradient xlink:href="#b" id="l" x1="-513.947" y1="92.874" x2="-519.385" y2="915.131" gradientUnits="userSpaceOnUse" gradientTransform="translate(0 -896)"/><linearGradient xlink:href="#c" id="m" gradientUnits="userSpaceOnUse" x1="-764.995" y1="459.518" x2="-731.995" y2="459.518" gradientTransform="translate(0 -896)"/><linearGradient xlink:href="#d" id="w" x1="377.382" y1="455.958" x2="377.382" y2="561.097" gradientUnits="userSpaceOnUse"/><radialGradient xlink:href="#e" id="x" cx="591.764" cy="783.344" fx="591.764" fy="783.344" r="36.817" gradientUnits="userSpaceOnUse" gradientTransform="matrix(1.11094 0 0 1.09553 -62.287 -65.95)"/><linearGradient xlink:href="#f" id="y" x1="585.053" y1="755.06" x2="600.394" y2="818.34" gradientUnits="userSpaceOnUse"/><linearGradient xlink:href="#g" id="s" x1="535.41" y1="671.076" x2="827.649" y2="671.076" gradientUnits="userSpaceOnUse"/><linearGradient xlink:href="#h" id="t" x1="535.41" y1="671.076" x2="827.648" y2="671.076" gradientUnits="userSpaceOnUse"/><radialGradient xlink:href="#i" id="u" cx="697.615" cy="691.109" fx="697.615" fy="691.109" r="55.61" gradientTransform="matrix(1.97931 0 0 .62792 -758.841 322.028)" gradientUnits="userSpaceOnUse"/><radialGradient xlink:href="#j" id="v" cx="1177.574" cy="694.297" fx="1177.574" fy="694.297" r="113.486" gradientTransform="matrix(1 0 0 .30159 0 484.906)" gradientUnits="userSpaceOnUse"/><linearGradient xlink:href="#g" id="o" gradientUnits="userSpaceOnUse" x1="535.41" y1="671.076" x2="827.649" y2="671.076"/><linearGradient xlink:href="#h" id="p" gradientUnits="userSpaceOnUse" x1="535.41" y1="671.076" x2="827.648" y2="671.076"/><radialGradient xlink:href="#i" id="q" gradientUnits="userSpaceOnUse" gradientTransform="matrix(1.97931 0 0 .62792 -758.841 322.028)" cx="697.615" cy="691.109" fx="697.615" fy="691.109" r="55.61"/><radialGradient xlink:href="#j" id="r" gradientUnits="userSpaceOnUse" gradientTransform="matrix(1 0 0 .30159 0 484.906)" cx="1177.574" cy="694.297" fx="1177.574" fy="694.297" r="113.486"/><linearGradient xlink:href="#c" id="n" gradientUnits="userSpaceOnUse" x1="-756.317" y1="459.518" x2="-731.995" y2="459.518" gradientTransform="matrix(-1 0 0 1 -1094.534 -896)"/></defs><g transform="matrix(.12681 0 0 .12681 134.088 117.287)"><path d="M30.373-416.542A579.254 544.542 0 0 1-548.583 128a579.254 544.542 0 0 1-579.552-543.981 579.254 544.542 0 0 1 578.358-545.103 579.254 544.542 0 0 1 580.149 543.42l-579.253 1.122z" opacity=".275" fill="url(#k)" stroke-width="7.292" stroke-linecap="round" stroke-linejoin="round" paint-order="fill markers stroke"/><circle r="462.102" cy="-416.542" cx="-548.881" fill="url(#l)" stroke-width="6" stroke-linecap="round" stroke-linejoin="round" paint-order="fill markers stroke"/><path d="M-725.72 10.384a462.102 462.102 0 0 1 0-853.853z" opacity=".12" fill="url(#m)" stroke-width="6" stroke-linecap="round" stroke-linejoin="round" paint-order="fill markers stroke"/><path d="M-368.814 10.384a462.102 462.102 0 0 0 0-853.853z" opacity=".048" fill="url(#n)" stroke-width="6" stroke-linecap="round" stroke-linejoin="round" paint-order="fill markers stroke"/><g transform="matrix(-1 0 0 1 519.152 -927.012)"><path d="M1369.633 420.903l29.81.476-.635 177.37c-15.211 3.363-27.42-.28-40.653-1.534z" fill="#252525" stroke="#202020" stroke-width="4"/><path d="M536.177 627.042c64.3-50.618 192.706-49.419 291.472-66.731l-16.875 220.138c-102.407 8.675-173.048-24.2-275.364-70.567z" fill="url(#o)" transform="translate(566.173 -160.606)"/><path d="M827.648 560.31c-98.766 17.313-227.17 16.115-291.47 66.733l-.037 3.953c64.399-50.351 188.698-51.103 287.289-68.385l-16.108 213.62c-102.394 8.674-169.58-24.194-271.873-70.551l-.039 4.2c102.316 46.368 172.958 79.245 275.365 70.57z" fill="url(#p)" transform="translate(566.173 -160.606)"/><ellipse cx="1177.574" cy="694.297" rx="113.486" ry="34.226" transform="rotate(-7.852)" opacity=".073" fill="url(#r)" stroke-width="6.263" stroke-linecap="round" stroke-linejoin="round"/></g><g transform="translate(-1616.914 -927.012)"><path d="M1369.633 420.903l29.81.476-.635 177.37c-15.211 3.363-27.42-.28-40.653-1.534z" fill="#252525" stroke="#202020" stroke-width="4"/><path d="M536.177 627.042c64.3-50.618 192.706-49.419 291.472-66.731l-16.875 220.138c-102.407 8.675-173.048-24.2-275.364-70.567z" fill="url(#s)" transform="translate(566.173 -160.606)"/><path d="M827.648 560.31c-98.766 17.313-227.17 16.115-291.47 66.733l-.037 3.953c64.399-50.351 188.698-51.103 287.289-68.385l-16.108 213.62c-102.394 8.674-169.58-24.194-271.873-70.551l-.039 4.2c102.316 46.368 172.958 79.245 275.365 70.57z" fill="url(#t)" transform="translate(566.173 -160.606)"/><ellipse transform="rotate(-7.852)" ry="34.226" rx="113.486" cy="694.297" cx="1177.574" opacity=".073" fill="url(#v)" stroke-width="6.263" stroke-linecap="round" stroke-linejoin="round"/></g><g stroke-width="6" stroke-linecap="round" stroke-linejoin="round"><path d="M350.482 453.712h38.454c11.02 0 20.214 8.877 19.892 19.892-.753 25.709-1.265 51.054 0 73.737.613 11.003-8.872 19.892-19.892 19.892h-38.454c-11.02 0-20.53-8.89-19.892-19.892 1.373-23.664 1.689-48.032 0-73.737-.722-10.996 8.872-19.892 19.892-19.892z" fill="url(#w)" paint-order="fill markers stroke" transform="translate(-918.444 -926.245)"/><path d="M-567.962-472.532c-11.02 0-20.615 8.894-19.892 19.89 1.688 25.705 1.373 50.075 0 73.739-.638 11.001 8.872 19.89 19.892 19.89h38.454c11.02 0 20.505-8.887 19.892-19.89-1.264-22.683-.753-48.03 0-73.739.323-11.015-8.872-19.89-19.892-19.89zm1.055 3.115h36.344c10.415 0 19.104 8.39 18.799 18.8-.712 24.298-1.195 48.253 0 69.69.58 10.4-8.384 18.8-18.8 18.8h-36.343c-10.415 0-19.402-8.402-18.799-18.8 1.298-22.365 1.596-45.395 0-69.69-.682-10.392 8.384-18.8 18.8-18.8z" fill="#252525" paint-order="fill markers stroke"/></g><g transform="translate(-1144.385 -924.403)" stroke-linecap="round" stroke-linejoin="round"><ellipse cy="792.231" cx="595.126" rx="40.902" ry="40.335" opacity=".63" fill="url(#x)" stroke-width="7.432" paint-order="fill markers stroke"/><circle cx="595.12" cy="786.7" r="33.462" fill="url(#y)" stroke-width="6.123" paint-order="fill markers stroke"/><path d="M595.121 753.238a33.462 33.462 0 0 0-33.463 33.461 33.462 33.462 0 0 0 .09 2.42 33.462 33.462 0 0 1 33.373-31.662 33.462 33.462 0 0 1 33.371 31.041 33.462 33.462 0 0 0 .09-1.799 33.462 33.462 0 0 0-33.46-33.46z" fill="#fff" fill-opacity=".302" stroke-width="6.123" paint-order="fill markers stroke"/><path d="M586.97 775.386a2.972 2.972 0 0 0-2.972 2.973 2.972 2.972 0 0 0 2.973 2.973 2.972 2.972 0 0 0 2.972-2.973 2.972 2.972 0 0 0-2.972-2.973zm16.684 0a2.972 2.972 0 0 0-2.972 2.973 2.972 2.972 0 0 0 2.972 2.973 2.972 2.972 0 0 0 2.971-2.973 2.972 2.972 0 0 0-2.97-2.973zm-17.066 16.684a2.972 2.972 0 0 0-2.973 2.97 2.972 2.972 0 0 0 2.973 2.973 2.972 2.972 0 0 0 2.97-2.972 2.972 2.972 0 0 0-2.97-2.971zm17.066 0a2.972 2.972 0 0 0-2.972 2.97 2.972 2.972 0 0 0 2.972 2.973 2.972 2.972 0 0 0 2.971-2.972 2.972 2.972 0 0 0-2.97-2.971z" opacity=".473" stroke-width="6" paint-order="fill markers stroke"/><path d="M586.97 778.454h16.971v16.97h-16.97z" fill="none" stroke="#c3c3c3" stroke-width="1.5"/></g><g fill="none" stroke="#000" stroke-linecap="round" stroke-linejoin="bevel" stroke-opacity=".042"><path d="M-874.67-527.306l1.652 21.559-7.274.117.637 177.369c7.32 1.618 13.942 1.609 20.32 1.03l1.54 20.064a384.75 384.75 0 0 0 28.015 1.367h.002c54.567.636 100.964-11.042 150.484-30.041a836.762 836.762 0 0 0 16.639-6.598c4.196-1.714 8.435-3.488 12.7-5.293 4.262-1.804 8.55-3.64 12.894-5.53 15.755-6.854 32.153-14.285 49.363-22.087 1.33 9.3 9.932 16.34 19.736 16.34h38.455c9.762 0 18.312-6.977 19.713-16.217 4.464 2.024 8.943 4.053 13.293 6.02 21.57 9.75 41.813 18.77 61.395 26.767 8.392 3.428 16.662 6.667 24.863 9.696 13.67 5.047 27.145 9.509 40.672 13.277 2.705.753 5.412 1.478 8.123 2.176h.002c.535.137 1.072.26 1.607.396 15.741 3.98 31.625 7.005 48.034 8.881a345.183 345.183 0 0 0 25.92 1.977h.001c1.47.057 2.943.104 4.422.142H-281.376c4.413.113 8.875.145 13.393.092h.002a369.91 369.91 0 0 0 13.818-.418c4.668-.227 9.397-.542 14.198-.95l1.539-20.064c6.378.58 13 .59 20.32-1.029l.637-177.369-7.274-.117 1.653-21.559h-.002c-24.692 4.328-51.235 7.5-78.166 10.614-13.466 1.556-27.03 3.098-40.506 4.763-6.739.833-13.455 1.695-20.127 2.606-16.681 2.277-33.084 4.855-48.852 8-12.614 2.515-24.821 5.394-36.44 8.773a310.091 310.091 0 0 0-12.812 4.02 258.617 258.617 0 0 0-12.256 4.486 210.308 210.308 0 0 0-15.377 6.781 177.488 177.488 0 0 0-7.238 3.762 159.186 159.186 0 0 0-6.912 4.027c-1.124.694-2.235 1.4-3.33 2.118a136.18 136.18 0 0 0-6.965 4.882c-3.411-6.01-10-10.056-17.434-10.056h-38.455c-7.455 0-14.255 4.074-17.652 10.113a132.855 132.855 0 0 0-3.799-2.752 143.722 143.722 0 0 0-6.57-4.305 159.26 159.26 0 0 0-6.914-4.027 177.39 177.39 0 0 0-7.236-3.762 204.412 204.412 0 0 0-11.426-5.176 243.534 243.534 0 0 0-12.057-4.65h-.002c-1.373-.49-2.755-.97-4.148-1.441a300.86 300.86 0 0 0-8.485-2.729 340.013 340.013 0 0 0-8.71-2.535h-.003c-10.292-2.85-21.017-5.328-32.054-7.53-15.768-3.144-32.171-5.722-48.852-8a1588.696 1588.696 0 0 0-20.127-2.605c-13.476-1.665-27.04-3.207-40.506-4.763-10.1-1.168-20.145-2.345-30.058-3.586-3.305-.414-6.593-.835-9.866-1.266-13.088-1.723-25.896-3.598-38.242-5.762h-.002z" stroke-width="5"/><path d="M-874.67-527.306l1.652 21.559-7.274.117.637 177.369c7.32 1.618 13.942 1.609 20.32 1.03l1.54 20.064a384.75 384.75 0 0 0 28.015 1.367h.002c54.567.636 100.964-11.042 150.484-30.041a836.762 836.762 0 0 0 16.639-6.598c4.196-1.714 8.435-3.488 12.7-5.293 4.262-1.804 8.55-3.64 12.894-5.53 15.755-6.854 32.153-14.285 49.363-22.087 1.33 9.3 9.932 16.34 19.736 16.34h38.455c9.762 0 18.312-6.977 19.713-16.217 4.464 2.024 8.943 4.053 13.293 6.02 21.57 9.75 41.813 18.77 61.395 26.767 8.392 3.428 16.662 6.667 24.863 9.696 13.67 5.047 27.145 9.509 40.672 13.277 2.705.753 5.412 1.478 8.123 2.176h.002c.535.137 1.072.26 1.607.396 15.741 3.98 31.625 7.005 48.034 8.881a345.183 345.183 0 0 0 25.92 1.977h.001c1.47.057 2.943.104 4.422.142H-281.376c4.413.113 8.875.145 13.393.092h.002a369.91 369.91 0 0 0 13.818-.418c4.668-.227 9.397-.542 14.198-.95l1.539-20.064c6.378.58 13 .59 20.32-1.029l.637-177.369-7.274-.117 1.653-21.559h-.002c-24.692 4.328-51.235 7.5-78.166 10.614-13.466 1.556-27.03 3.098-40.506 4.763-6.739.833-13.455 1.695-20.127 2.606-16.681 2.277-33.084 4.855-48.852 8-12.614 2.515-24.821 5.394-36.44 8.773a310.091 310.091 0 0 0-12.812 4.02 258.617 258.617 0 0 0-12.256 4.486 210.308 210.308 0 0 0-15.377 6.781 177.488 177.488 0 0 0-7.238 3.762 159.186 159.186 0 0 0-6.912 4.027c-1.124.694-2.235 1.4-3.33 2.118a136.18 136.18 0 0 0-6.965 4.882c-3.411-6.01-10-10.056-17.434-10.056h-38.455c-7.455 0-14.255 4.074-17.652 10.113a132.855 132.855 0 0 0-3.799-2.752 143.722 143.722 0 0 0-6.57-4.305 159.26 159.26 0 0 0-6.914-4.027 177.39 177.39 0 0 0-7.236-3.762 204.412 204.412 0 0 0-11.426-5.176 243.534 243.534 0 0 0-12.057-4.65h-.002c-1.373-.49-2.755-.97-4.148-1.441a300.86 300.86 0 0 0-8.485-2.729 340.013 340.013 0 0 0-8.71-2.535h-.003c-10.292-2.85-21.017-5.328-32.054-7.53-15.768-3.144-32.171-5.722-48.852-8a1588.696 1588.696 0 0 0-20.127-2.605c-13.476-1.665-27.04-3.207-40.506-4.763-10.1-1.168-20.145-2.345-30.058-3.586-3.305-.414-6.593-.835-9.866-1.266-13.088-1.723-25.896-3.598-38.242-5.762h-.002z" stroke-width="10"/><path d="M-874.67-527.306l1.652 21.559-7.274.117.637 177.369c7.32 1.618 13.942 1.609 20.32 1.03l1.54 20.064a384.75 384.75 0 0 0 28.015 1.367h.002c54.567.636 100.964-11.042 150.484-30.041a836.762 836.762 0 0 0 16.639-6.598c4.196-1.714 8.435-3.488 12.7-5.293 4.262-1.804 8.55-3.64 12.894-5.53 15.755-6.854 32.153-14.285 49.363-22.087 1.33 9.3 9.932 16.34 19.736 16.34h38.455c9.762 0 18.312-6.977 19.713-16.217 4.464 2.024 8.943 4.053 13.293 6.02 21.57 9.75 41.813 18.77 61.395 26.767 8.392 3.428 16.662 6.667 24.863 9.696 13.67 5.047 27.145 9.509 40.672 13.277 2.705.753 5.412 1.478 8.123 2.176h.002c.535.137 1.072.26 1.607.396 15.741 3.98 31.625 7.005 48.034 8.881a345.183 345.183 0 0 0 25.92 1.977h.001c1.47.057 2.943.104 4.422.142H-281.376c4.413.113 8.875.145 13.393.092h.002a369.91 369.91 0 0 0 13.818-.418c4.668-.227 9.397-.542 14.198-.95l1.539-20.064c6.378.58 13 .59 20.32-1.029l.637-177.369-7.274-.117 1.653-21.559h-.002c-24.692 4.328-51.235 7.5-78.166 10.614-13.466 1.556-27.03 3.098-40.506 4.763-6.739.833-13.455 1.695-20.127 2.606-16.681 2.277-33.084 4.855-48.852 8-12.614 2.515-24.821 5.394-36.44 8.773a310.091 310.091 0 0 0-12.812 4.02 258.617 258.617 0 0 0-12.256 4.486 210.308 210.308 0 0 0-15.377 6.781 177.488 177.488 0 0 0-7.238 3.762 159.186 159.186 0 0 0-6.912 4.027c-1.124.694-2.235 1.4-3.33 2.118a136.18 136.18 0 0 0-6.965 4.882c-3.411-6.01-10-10.056-17.434-10.056h-38.455c-7.455 0-14.255 4.074-17.652 10.113a132.855 132.855 0 0 0-3.799-2.752 143.722 143.722 0 0 0-6.57-4.305 159.26 159.26 0 0 0-6.914-4.027 177.39 177.39 0 0 0-7.236-3.762 204.412 204.412 0 0 0-11.426-5.176 243.534 243.534 0 0 0-12.057-4.65h-.002c-1.373-.49-2.755-.97-4.148-1.441a300.86 300.86 0 0 0-8.485-2.729 340.013 340.013 0 0 0-8.71-2.535h-.003c-10.292-2.85-21.017-5.328-32.054-7.53-15.768-3.144-32.171-5.722-48.852-8a1588.696 1588.696 0 0 0-20.127-2.605c-13.476-1.665-27.04-3.207-40.506-4.763-10.1-1.168-20.145-2.345-30.058-3.586-3.305-.414-6.593-.835-9.866-1.266-13.088-1.723-25.896-3.598-38.242-5.762h-.002z" stroke-width="15"/><path d="M-874.67-527.306l1.652 21.559-7.274.117.637 177.369c7.32 1.618 13.942 1.609 20.32 1.03l1.54 20.064a384.75 384.75 0 0 0 28.015 1.367h.002c54.567.636 100.964-11.042 150.484-30.041a836.762 836.762 0 0 0 16.639-6.598c4.196-1.714 8.435-3.488 12.7-5.293 4.262-1.804 8.55-3.64 12.894-5.53 15.755-6.854 32.153-14.285 49.363-22.087 1.33 9.3 9.932 16.34 19.736 16.34h38.455c9.762 0 18.312-6.977 19.713-16.217 4.464 2.024 8.943 4.053 13.293 6.02 21.57 9.75 41.813 18.77 61.395 26.767 8.392 3.428 16.662 6.667 24.863 9.696 13.67 5.047 27.145 9.509 40.672 13.277 2.705.753 5.412 1.478 8.123 2.176h.002c.535.137 1.072.26 1.607.396 15.741 3.98 31.625 7.005 48.034 8.881a345.183 345.183 0 0 0 25.92 1.977h.001c1.47.057 2.943.104 4.422.142H-281.376c4.413.113 8.875.145 13.393.092h.002a369.91 369.91 0 0 0 13.818-.418c4.668-.227 9.397-.542 14.198-.95l1.539-20.064c6.378.58 13 .59 20.32-1.029l.637-177.369-7.274-.117 1.653-21.559h-.002c-24.692 4.328-51.235 7.5-78.166 10.614-13.466 1.556-27.03 3.098-40.506 4.763-6.739.833-13.455 1.695-20.127 2.606-16.681 2.277-33.084 4.855-48.852 8-12.614 2.515-24.821 5.394-36.44 8.773a310.091 310.091 0 0 0-12.812 4.02 258.617 258.617 0 0 0-12.256 4.486 210.308 210.308 0 0 0-15.377 6.781 177.488 177.488 0 0 0-7.238 3.762 159.186 159.186 0 0 0-6.912 4.027c-1.124.694-2.235 1.4-3.33 2.118a136.18 136.18 0 0 0-6.965 4.882c-3.411-6.01-10-10.056-17.434-10.056h-38.455c-7.455 0-14.255 4.074-17.652 10.113a132.855 132.855 0 0 0-3.799-2.752 143.722 143.722 0 0 0-6.57-4.305 159.26 159.26 0 0 0-6.914-4.027 177.39 177.39 0 0 0-7.236-3.762 204.412 204.412 0 0 0-11.426-5.176 243.534 243.534 0 0 0-12.057-4.65h-.002c-1.373-.49-2.755-.97-4.148-1.441a300.86 300.86 0 0 0-8.485-2.729 340.013 340.013 0 0 0-8.71-2.535h-.003c-10.292-2.85-21.017-5.328-32.054-7.53-15.768-3.144-32.171-5.722-48.852-8a1588.696 1588.696 0 0 0-20.127-2.605c-13.476-1.665-27.04-3.207-40.506-4.763-10.1-1.168-20.145-2.345-30.058-3.586-3.305-.414-6.593-.835-9.866-1.266-13.088-1.723-25.896-3.598-38.242-5.762h-.002z" stroke-width="20"/><path d="M-874.67-527.306l1.652 21.559-7.274.117.637 177.369c7.32 1.618 13.942 1.609 20.32 1.03l1.54 20.064a384.75 384.75 0 0 0 28.015 1.367h.002c54.567.636 100.964-11.042 150.484-30.041a836.762 836.762 0 0 0 16.639-6.598c4.196-1.714 8.435-3.488 12.7-5.293 4.262-1.804 8.55-3.64 12.894-5.53 15.755-6.854 32.153-14.285 49.363-22.087 1.33 9.3 9.932 16.34 19.736 16.34h38.455c9.762 0 18.312-6.977 19.713-16.217 4.464 2.024 8.943 4.053 13.293 6.02 21.57 9.75 41.813 18.77 61.395 26.767 8.392 3.428 16.662 6.667 24.863 9.696 13.67 5.047 27.145 9.509 40.672 13.277 2.705.753 5.412 1.478 8.123 2.176h.002c.535.137 1.072.26 1.607.396 15.741 3.98 31.625 7.005 48.034 8.881a345.183 345.183 0 0 0 25.92 1.977h.001c1.47.057 2.943.104 4.422.142H-281.376c4.413.113 8.875.145 13.393.092h.002a369.91 369.91 0 0 0 13.818-.418c4.668-.227 9.397-.542 14.198-.95l1.539-20.064c6.378.58 13 .59 20.32-1.029l.637-177.369-7.274-.117 1.653-21.559h-.002c-24.692 4.328-51.235 7.5-78.166 10.614-13.466 1.556-27.03 3.098-40.506 4.763-6.739.833-13.455 1.695-20.127 2.606-16.681 2.277-33.084 4.855-48.852 8-12.614 2.515-24.821 5.394-36.44 8.773a310.091 310.091 0 0 0-12.812 4.02 258.617 258.617 0 0 0-12.256 4.486 210.308 210.308 0 0 0-15.377 6.781 177.488 177.488 0 0 0-7.238 3.762 159.186 159.186 0 0 0-6.912 4.027c-1.124.694-2.235 1.4-3.33 2.118a136.18 136.18 0 0 0-6.965 4.882c-3.411-6.01-10-10.056-17.434-10.056h-38.455c-7.455 0-14.255 4.074-17.652 10.113a132.855 132.855 0 0 0-3.799-2.752 143.722 143.722 0 0 0-6.57-4.305 159.26 159.26 0 0 0-6.914-4.027 177.39 177.39 0 0 0-7.236-3.762 204.412 204.412 0 0 0-11.426-5.176 243.534 243.534 0 0 0-12.057-4.65h-.002c-1.373-.49-2.755-.97-4.148-1.441a300.86 300.86 0 0 0-8.485-2.729 340.013 340.013 0 0 0-8.71-2.535h-.003c-10.292-2.85-21.017-5.328-32.054-7.53-15.768-3.144-32.171-5.722-48.852-8a1588.696 1588.696 0 0 0-20.127-2.605c-13.476-1.665-27.04-3.207-40.506-4.763-10.1-1.168-20.145-2.345-30.058-3.586-3.305-.414-6.593-.835-9.866-1.266-13.088-1.723-25.896-3.598-38.242-5.762h-.002z" stroke-width="25"/><path d="M-874.67-527.306l1.652 21.559-7.274.117.637 177.369c7.32 1.618 13.942 1.609 20.32 1.03l1.54 20.064a384.75 384.75 0 0 0 28.015 1.367h.002c54.567.636 100.964-11.042 150.484-30.041a836.762 836.762 0 0 0 16.639-6.598c4.196-1.714 8.435-3.488 12.7-5.293 4.262-1.804 8.55-3.64 12.894-5.53 15.755-6.854 32.153-14.285 49.363-22.087 1.33 9.3 9.932 16.34 19.736 16.34h38.455c9.762 0 18.312-6.977 19.713-16.217 4.464 2.024 8.943 4.053 13.293 6.02 21.57 9.75 41.813 18.77 61.395 26.767 8.392 3.428 16.662 6.667 24.863 9.696 13.67 5.047 27.145 9.509 40.672 13.277 2.705.753 5.412 1.478 8.123 2.176h.002c.535.137 1.072.26 1.607.396 15.741 3.98 31.625 7.005 48.034 8.881a345.183 345.183 0 0 0 25.92 1.977h.001c1.47.057 2.943.104 4.422.142H-281.376c4.413.113 8.875.145 13.393.092h.002a369.91 369.91 0 0 0 13.818-.418c4.668-.227 9.397-.542 14.198-.95l1.539-20.064c6.378.58 13 .59 20.32-1.029l.637-177.369-7.274-.117 1.653-21.559h-.002c-24.692 4.328-51.235 7.5-78.166 10.614-13.466 1.556-27.03 3.098-40.506 4.763-6.739.833-13.455 1.695-20.127 2.606-16.681 2.277-33.084 4.855-48.852 8-12.614 2.515-24.821 5.394-36.44 8.773a310.091 310.091 0 0 0-12.812 4.02 258.617 258.617 0 0 0-12.256 4.486 210.308 210.308 0 0 0-15.377 6.781 177.488 177.488 0 0 0-7.238 3.762 159.186 159.186 0 0 0-6.912 4.027c-1.124.694-2.235 1.4-3.33 2.118a136.18 136.18 0 0 0-6.965 4.882c-3.411-6.01-10-10.056-17.434-10.056h-38.455c-7.455 0-14.255 4.074-17.652 10.113a132.855 132.855 0 0 0-3.799-2.752 143.722 143.722 0 0 0-6.57-4.305 159.26 159.26 0 0 0-6.914-4.027 177.39 177.39 0 0 0-7.236-3.762 204.412 204.412 0 0 0-11.426-5.176 243.534 243.534 0 0 0-12.057-4.65h-.002c-1.373-.49-2.755-.97-4.148-1.441a300.86 300.86 0 0 0-8.485-2.729 340.013 340.013 0 0 0-8.71-2.535h-.003c-10.292-2.85-21.017-5.328-32.054-7.53-15.768-3.144-32.171-5.722-48.852-8a1588.696 1588.696 0 0 0-20.127-2.605c-13.476-1.665-27.04-3.207-40.506-4.763-10.1-1.168-20.145-2.345-30.058-3.586-3.305-.414-6.593-.835-9.866-1.266-13.088-1.723-25.896-3.598-38.242-5.762h-.002z" stroke-width="30"/><path d="M-874.67-527.306l1.652 21.559-7.274.117.637 177.369c7.32 1.618 13.942 1.609 20.32 1.03l1.54 20.064a384.75 384.75 0 0 0 28.015 1.367h.002c54.567.636 100.964-11.042 150.484-30.041a836.762 836.762 0 0 0 16.639-6.598c4.196-1.714 8.435-3.488 12.7-5.293 4.262-1.804 8.55-3.64 12.894-5.53 15.755-6.854 32.153-14.285 49.363-22.087 1.33 9.3 9.932 16.34 19.736 16.34h38.455c9.762 0 18.312-6.977 19.713-16.217 4.464 2.024 8.943 4.053 13.293 6.02 21.57 9.75 41.813 18.77 61.395 26.767 8.392 3.428 16.662 6.667 24.863 9.696 13.67 5.047 27.145 9.509 40.672 13.277 2.705.753 5.412 1.478 8.123 2.176h.002c.535.137 1.072.26 1.607.396 15.741 3.98 31.625 7.005 48.034 8.881a345.183 345.183 0 0 0 25.92 1.977h.001c1.47.057 2.943.104 4.422.142H-281.376c4.413.113 8.875.145 13.393.092h.002a369.91 369.91 0 0 0 13.818-.418c4.668-.227 9.397-.542 14.198-.95l1.539-20.064c6.378.58 13 .59 20.32-1.029l.637-177.369-7.274-.117 1.653-21.559h-.002c-24.692 4.328-51.235 7.5-78.166 10.614-13.466 1.556-27.03 3.098-40.506 4.763-6.739.833-13.455 1.695-20.127 2.606-16.681 2.277-33.084 4.855-48.852 8-12.614 2.515-24.821 5.394-36.44 8.773a310.091 310.091 0 0 0-12.812 4.02 258.617 258.617 0 0 0-12.256 4.486 210.308 210.308 0 0 0-15.377 6.781 177.488 177.488 0 0 0-7.238 3.762 159.186 159.186 0 0 0-6.912 4.027c-1.124.694-2.235 1.4-3.33 2.118a136.18 136.18 0 0 0-6.965 4.882c-3.411-6.01-10-10.056-17.434-10.056h-38.455c-7.455 0-14.255 4.074-17.652 10.113a132.855 132.855 0 0 0-3.799-2.752 143.722 143.722 0 0 0-6.57-4.305 159.26 159.26 0 0 0-6.914-4.027 177.39 177.39 0 0 0-7.236-3.762 204.412 204.412 0 0 0-11.426-5.176 243.534 243.534 0 0 0-12.057-4.65h-.002c-1.373-.49-2.755-.97-4.148-1.441a300.86 300.86 0 0 0-8.485-2.729 340.013 340.013 0 0 0-8.71-2.535h-.003c-10.292-2.85-21.017-5.328-32.054-7.53-15.768-3.144-32.171-5.722-48.852-8a1588.696 1588.696 0 0 0-20.127-2.605c-13.476-1.665-27.04-3.207-40.506-4.763-10.1-1.168-20.145-2.345-30.058-3.586-3.305-.414-6.593-.835-9.866-1.266-13.088-1.723-25.896-3.598-38.242-5.762h-.002z" stroke-width="40"/><path d="M-874.67-527.306l1.652 21.559-7.274.117.637 177.369c7.32 1.618 13.942 1.609 20.32 1.03l1.54 20.064a384.75 384.75 0 0 0 28.015 1.367h.002c54.567.636 100.964-11.042 150.484-30.041a836.762 836.762 0 0 0 16.639-6.598c4.196-1.714 8.435-3.488 12.7-5.293 4.262-1.804 8.55-3.64 12.894-5.53 15.755-6.854 32.153-14.285 49.363-22.087 1.33 9.3 9.932 16.34 19.736 16.34h38.455c9.762 0 18.312-6.977 19.713-16.217 4.464 2.024 8.943 4.053 13.293 6.02 21.57 9.75 41.813 18.77 61.395 26.767 8.392 3.428 16.662 6.667 24.863 9.696 13.67 5.047 27.145 9.509 40.672 13.277 2.705.753 5.412 1.478 8.123 2.176h.002c.535.137 1.072.26 1.607.396 15.741 3.98 31.625 7.005 48.034 8.881a345.183 345.183 0 0 0 25.92 1.977h.001c1.47.057 2.943.104 4.422.142H-281.376c4.413.113 8.875.145 13.393.092h.002a369.91 369.91 0 0 0 13.818-.418c4.668-.227 9.397-.542 14.198-.95l1.539-20.064c6.378.58 13 .59 20.32-1.029l.637-177.369-7.274-.117 1.653-21.559h-.002c-24.692 4.328-51.235 7.5-78.166 10.614-13.466 1.556-27.03 3.098-40.506 4.763-6.739.833-13.455 1.695-20.127 2.606-16.681 2.277-33.084 4.855-48.852 8-12.614 2.515-24.821 5.394-36.44 8.773a310.091 310.091 0 0 0-12.812 4.02 258.617 258.617 0 0 0-12.256 4.486 210.308 210.308 0 0 0-15.377 6.781 177.488 177.488 0 0 0-7.238 3.762 159.186 159.186 0 0 0-6.912 4.027c-1.124.694-2.235 1.4-3.33 2.118a136.18 136.18 0 0 0-6.965 4.882c-3.411-6.01-10-10.056-17.434-10.056h-38.455c-7.455 0-14.255 4.074-17.652 10.113a132.855 132.855 0 0 0-3.799-2.752 143.722 143.722 0 0 0-6.57-4.305 159.26 159.26 0 0 0-6.914-4.027 177.39 177.39 0 0 0-7.236-3.762 204.412 204.412 0 0 0-11.426-5.176 243.534 243.534 0 0 0-12.057-4.65h-.002c-1.373-.49-2.755-.97-4.148-1.441a300.86 300.86 0 0 0-8.485-2.729 340.013 340.013 0 0 0-8.71-2.535h-.003c-10.292-2.85-21.017-5.328-32.054-7.53-15.768-3.144-32.171-5.722-48.852-8a1588.696 1588.696 0 0 0-20.127-2.605c-13.476-1.665-27.04-3.207-40.506-4.763-10.1-1.168-20.145-2.345-30.058-3.586-3.305-.414-6.593-.835-9.866-1.266-13.088-1.723-25.896-3.598-38.242-5.762h-.002z" stroke-width="55"/></g></g></svg>