<svg xmlns="http://www.w3.org/2000/svg" xmlns:xlink="http://www.w3.org/1999/xlink" width="128" height="128" viewBox="0 0 256 256"><defs><linearGradient id="N"><stop offset="0" stop-color="#d0d0d0"/><stop offset="1" stop-color="#fcfcfc"/></linearGradient><linearGradient id="O"><stop offset="0" stop-color="#e3e3e3"/><stop offset="1" stop-color="#efefef"/></linearGradient><linearGradient id="M"><stop offset="0" stop-color="#644e40"/><stop offset="1" stop-color="#69563f"/></linearGradient><linearGradient id="L"><stop offset="0" stop-color="#decab3"/><stop offset="1" stop-color="#fff" stop-opacity="0"/></linearGradient><linearGradient id="K"><stop offset="0" stop-color="#b2b2b2"/><stop offset="1" stop-color="#6a6a6a"/></linearGradient><linearGradient id="J"><stop offset="0" stop-color="#e6e6e6"/><stop offset="1" stop-color="#f9f9f9"/></linearGradient><linearGradient id="I"><stop offset="0" stop-color="#731800"/><stop offset="1" stop-color="#390008"/></linearGradient><linearGradient id="H"><stop offset="0" stop-color="#634d52"/><stop offset=".218" stop-color="#4a2839"/><stop offset=".477" stop-color="#633839"/><stop offset=".817" stop-color="#844d4a"/><stop offset="1" stop-color="#844d4a"/></linearGradient><linearGradient id="G"><stop offset="0" stop-color="#fffbef"/><stop offset=".157" stop-color="#fff3cf"/><stop offset=".489" stop-color="#ffcd2d"/><stop offset=".817" stop-color="#f79e29"/><stop offset="1" stop-color="#ff8a01"/></linearGradient><linearGradient id="F"><stop offset="0" stop-color="#6c3a23"/><stop offset="1" stop-color="#6c3922"/></linearGradient><linearGradient id="E"><stop offset="0" stop-color="#ad7531"/><stop offset=".968" stop-color="#b5864a"/><stop offset="1" stop-color="#bd8e6b"/></linearGradient><linearGradient id="D"><stop offset="0" stop-color="#eeca93"/><stop offset=".188" stop-color="#de9642"/><stop offset=".841" stop-color="#efb673"/><stop offset="1" stop-color="#efc39c"/></linearGradient><linearGradient id="B"><stop offset="0" stop-color="#943c00"/><stop offset="1" stop-color="#ce6300"/></linearGradient><linearGradient id="C"><stop offset="0" stop-color="#e76900"/><stop offset="1" stop-color="#ad3a00"/></linearGradient><linearGradient id="A"><stop offset="0" stop-color="#fffbef"/><stop offset=".453" stop-color="#ffcd2d"/><stop offset=".711" stop-color="#f79e29"/><stop offset="1" stop-color="#ff8a01"/></linearGradient><linearGradient id="z"><stop offset="0" stop-opacity="0"/><stop offset=".899" stop-opacity="0"/><stop offset="1" stop-opacity=".5"/></linearGradient><linearGradient id="y"><stop offset="0" stop-color="#f7f3f7"/><stop offset=".6" stop-color="#f7eff7"/><stop offset="1" stop-color="#cec3ce"/></linearGradient><linearGradient id="h"><stop offset="0" stop-color="#ded3d6"/><stop offset="1" stop-color="#efebef"/></linearGradient><linearGradient id="g"><stop offset="0" stop-color="#ffe7f7"/><stop offset="1" stop-color="#ffc3ef"/></linearGradient><linearGradient id="f"><stop offset="0" stop-color="#c16d16"/><stop offset="1" stop-color="#ff8e31"/></linearGradient><linearGradient id="e"><stop offset="0" stop-color="#92948f" stop-opacity="0"/><stop offset=".428" stop-color="#9b9e98"/><stop offset="1" stop-color="#939690" stop-opacity="0"/></linearGradient><linearGradient id="d"><stop offset="0" stop-color="#fff" stop-opacity="0"/><stop offset=".459" stop-color="#fff"/><stop offset="1" stop-color="#fff" stop-opacity="0"/></linearGradient><linearGradient id="c"><stop offset="0"/><stop offset=".061" stop-color="#1a1a1a"/><stop offset=".165" stop-color="#333"/><stop offset=".554" stop-color="#4d4d4d"/><stop offset="1" stop-color="#999"/></linearGradient><linearGradient id="b"><stop offset="0" stop-color="#1a1a1a"/><stop offset="1" stop-color="gray"/></linearGradient><linearGradient id="a"><stop offset="0" stop-color="#333"/><stop offset="1" stop-color="#e0e0dd" stop-opacity="0"/></linearGradient><linearGradient id="i"><stop offset="0" stop-color="#fff"/><stop offset="1" stop-color="#fff" stop-opacity="0"/></linearGradient><linearGradient id="j"><stop offset="0" stop-color="#fff"/><stop offset="1" stop-color="#fff" stop-opacity="0"/></linearGradient><linearGradient x1="45.448" y1="92.54" x2="45.448" y2="7.017" id="k" gradientUnits="userSpaceOnUse" gradientTransform="matrix(1.00587 0 0 .99417 100 0)"><stop offset="0"/><stop offset="1" stop-opacity=".588"/></linearGradient><linearGradient id="l"><stop offset="0" stop-color="#fff"/><stop offset="1" stop-color="#fff" stop-opacity="0"/></linearGradient><linearGradient x1="45.448" y1="92.54" x2="45.448" y2="7.017" id="m" gradientUnits="userSpaceOnUse" gradientTransform="matrix(1.00587 0 0 .99417 100 0)"><stop offset="0"/><stop offset="1" stop-opacity=".588"/></linearGradient><linearGradient id="n"><stop offset="0" stop-color="#fff"/><stop offset="1" stop-color="#fff" stop-opacity="0"/></linearGradient><linearGradient id="o"><stop offset="0" stop-color="#e88d01" stop-opacity=".184"/><stop offset=".5" stop-color="#e58907" stop-opacity=".411"/><stop offset=".75" stop-color="#e48a0a" stop-opacity=".682"/><stop offset="1" stop-color="#e4870a"/></linearGradient><linearGradient id="p"><stop offset="0" stop-color="#f0a801" stop-opacity=".186"/><stop offset=".5" stop-color="#f0a801" stop-opacity=".357"/><stop offset=".75" stop-color="#e8a301" stop-opacity=".837"/><stop offset="1" stop-color="#e09201"/></linearGradient><linearGradient id="q"><stop offset="0" stop-color="#fff"/><stop offset="1" stop-color="#fff" stop-opacity="0"/></linearGradient><linearGradient id="r"><stop offset="0" stop-color="#f0bf39"/><stop offset="1" stop-color="#f8e699"/></linearGradient><linearGradient id="s"><stop offset="0" stop-opacity=".471"/><stop offset=".118" stop-opacity=".392"/><stop offset=".238" stop-opacity=".294"/><stop offset="1" stop-opacity=".157"/></linearGradient><linearGradient id="t"><stop offset="0" stop-color="#fff" stop-opacity=".078"/><stop offset=".25" stop-color="#fff" stop-opacity=".314"/><stop offset=".6" stop-color="#fff" stop-opacity="0"/><stop offset="1" stop-color="#fff" stop-opacity="0"/></linearGradient><linearGradient id="u"><stop offset="0" stop-color="#fff" stop-opacity=".13"/><stop offset=".118" stop-color="#424242" stop-opacity=".282"/><stop offset=".238" stop-color="#2f2f2f" stop-opacity=".305"/><stop offset="1" stop-opacity=".351"/></linearGradient><linearGradient id="v"><stop offset="0" stop-opacity=".471"/><stop offset=".118" stop-opacity=".392"/><stop offset=".238" stop-opacity=".294"/><stop offset="1" stop-opacity=".157"/></linearGradient><linearGradient id="w"><stop offset="0" stop-color="#fff" stop-opacity=".078"/><stop offset=".25" stop-color="#fff" stop-opacity=".314"/><stop offset=".6" stop-color="#fff" stop-opacity="0"/><stop offset="1" stop-color="#fff" stop-opacity="0"/></linearGradient><linearGradient id="x"><stop offset="0" stop-color="#fff" stop-opacity=".13"/><stop offset=".118" stop-color="#424242" stop-opacity=".282"/><stop offset=".238" stop-color="#2f2f2f" stop-opacity=".305"/><stop offset="1" stop-opacity=".351"/></linearGradient><linearGradient xlink:href="#J" id="P" x1="76" y1="1044.362" x2="38" y2="957.862" gradientUnits="userSpaceOnUse" gradientTransform="translate(1 48)"/><linearGradient xlink:href="#K" id="Q" gradientUnits="userSpaceOnUse" x1="49.569" y1="1030.053" x2="51.952" y2="968.574" gradientTransform="translate(1 48)"/><linearGradient xlink:href="#N" id="S" gradientUnits="userSpaceOnUse" gradientTransform="scale(.477 -.477) rotate(30 2678.236 -2327.596)" x1="734.684" y1="-1005.693" x2="450.427" y2="-1060.14"/><linearGradient xlink:href="#O" id="R" gradientUnits="userSpaceOnUse" x1="564.389" y1="929.209" x2="462.094" y2="913.755" gradientTransform="scale(.477) rotate(-30 2678.236 2327.596)"/></defs><g transform="matrix(2.79775 0 0 2.79775 -8.09 -2818.047)"><rect ry="10.595" rx="10.595" y="1008.862" x="4.5" height="89" width="89" opacity=".05"/><g transform="translate(1 48)"><rect ry="10.476" rx="10.476" y="961.362" x="4" height="88" width="88" opacity=".05"/><rect width="87" height="87" x="4.5" y="961.862" rx="10.357" ry="10.357" opacity=".05"/><rect ry="10.238" rx="10.238" y="962.362" x="5" height="86" width="86" opacity=".1"/><rect width="85" height="85" x="5.5" y="962.862" rx="10.119" ry="10.119" opacity=".1"/><rect ry="10" rx="10" y="963.362" x="6" height="84" width="84" opacity=".3"/></g><rect ry="10" rx="10" y="1010.362" x="7" height="84" width="84" fill="url(#P)"/><rect ry="8.571" rx="8.571" y="1016.362" x="13" height="72" width="72" fill="url(#Q)" stroke-opacity=".353"/><path d="M83.094 1023.55l-63.938 36.906c-1.763 1.018-2.986 4.112-1.968 5.875l12.687 22.031h46.563A8.537 8.537 0 0 0 85 1079.8v-50.875a8.463 8.463 0 0 0-1.906-5.375z" opacity=".05"/><path d="M83.094 1022.55l-63.938 36.906c-1.763 1.018-2.986 4.112-1.968 5.875l13.28 23.031h45.97A8.537 8.537 0 0 0 85 1079.8v-51.875a8.463 8.463 0 0 0-1.906-5.375z" opacity=".05"/><path d="M83.094 1021.55l-63.938 36.906c-1.763 1.018-2.986 4.112-1.968 5.875l13.843 24.031h45.407A8.537 8.537 0 0 0 85 1079.8v-52.875a8.463 8.463 0 0 0-1.906-5.375z" opacity=".05"/><path d="M83.094 1020.55l-63.938 36.906c-1.763 1.018-2.986 4.112-1.968 5.875l14.437 25.031h44.813A8.537 8.537 0 0 0 85 1079.8v-53.875a8.463 8.463 0 0 0-1.906-5.375z" opacity=".05"/><path d="M83.094 1019.55l-63.938 36.906c-1.763 1.018-2.986 4.112-1.968 5.875l15 26.031h44.25A8.537 8.537 0 0 0 85 1079.8v-54.875a8.463 8.463 0 0 0-1.906-5.375z" opacity=".1"/><path d="M83.563 1020.175l-64.22 37.093a3.553 3.553 0 0 0-1.312 4.875l15.125 26.22h43.282A8.537 8.537 0 0 0 85 1079.8v-54.875a8.51 8.51 0 0 0-1.438-4.75z" fill="url(#R)"/><path d="M85 1035.487l-61.781 35.656.25.407L85 1036.018z" opacity=".3"/><path d="M85 1036.018l-61.531 35.532 9.718 16.812h43.25A8.537 8.537 0 0 0 85 1079.8z" fill="url(#S)"/><path d="M85 1034.925l-62 35.812.219.406L85 1035.487z" opacity=".15"/><circle r="3.651" cy="932.519" cx="-507.056" transform="rotate(-30)" fill="#ff6052" stroke="#e14c45" stroke-width=".449"/><circle r="3.651" cy="932.519" cx="-494.829" transform="rotate(-30)" fill="#ffbe04" stroke="#f0b10e" stroke-width=".449"/><circle r="3.652" cy="932.518" cx="-482.685" transform="rotate(-30)" fill="#14ce36" stroke="#09b63a" stroke-width=".449"/><path d="M21.557 1016.362A8.529 8.529 0 0 0 13 1024.92v54.885a8.529 8.529 0 0 0 8.557 8.557h54.886a8.529 8.529 0 0 0 8.557-8.557v-54.885a8.529 8.529 0 0 0-8.557-8.558zm.923 1.18h53.04c4.593 0 8.3 3.707 8.3 8.3v53.04c0 4.594-3.707 8.3-8.3 8.3H22.48a8.287 8.287 0 0 1-8.3-8.3v-53.04c0-4.593 3.707-8.3 8.3-8.3z" opacity=".05"/><path d="M21.557 1016.362A8.529 8.529 0 0 0 13 1024.92v54.885a8.529 8.529 0 0 0 8.557 8.557h54.886a8.529 8.529 0 0 0 8.557-8.557v-54.885a8.529 8.529 0 0 0-8.557-8.558zm1.808 2.36h51.27a7.983 7.983 0 0 1 8.004 8.005v51.27a7.983 7.983 0 0 1-8.004 8.005h-51.27a7.983 7.983 0 0 1-8.004-8.005v-51.27a7.983 7.983 0 0 1 8.004-8.004z" opacity=".05"/><path d="M21.557 1016.362A8.529 8.529 0 0 0 13 1024.92v54.885a8.529 8.529 0 0 0 8.557 8.557h54.886a8.529 8.529 0 0 0 8.557-8.557v-54.885a8.529 8.529 0 0 0-8.557-8.558zm.48.59h53.926a8.44 8.44 0 0 1 8.447 8.447v53.926a8.44 8.44 0 0 1-8.447 8.447H22.037a8.44 8.44 0 0 1-8.447-8.447V1025.4a8.44 8.44 0 0 1 8.447-8.447z" opacity=".05"/><path d="M21.557 1016.362A8.529 8.529 0 0 0 13 1024.92v54.885a8.529 8.529 0 0 0 8.557 8.557h54.886a8.529 8.529 0 0 0 8.557-8.557v-54.885a8.529 8.529 0 0 0-8.557-8.558zm1.365 1.77h52.156a8.135 8.135 0 0 1 8.152 8.152v52.156a8.135 8.135 0 0 1-8.152 8.152H22.922a8.135 8.135 0 0 1-8.152-8.152v-52.156a8.135 8.135 0 0 1 8.152-8.151z" opacity=".05"/><path d="M83.563 1020.175l-64.22 37.093a3.538 3.538 0 0 0-1.405 4.657 3.55 3.55 0 0 1 1.656-4.032l64.219-37.093c.226.34.416.691.593 1.062-.228-.595-.494-1.164-.844-1.687z" opacity=".5" fill="#fff"/></g></svg>