<svg xmlns="http://www.w3.org/2000/svg" xmlns:xlink="http://www.w3.org/1999/xlink" height="48" viewBox="0 0 47.999999 47.999999" width="48"><defs><linearGradient id="V"><stop offset="0" stop-color="#fff" stop-opacity=".099"/><stop offset="1" stop-color="#fff" stop-opacity=".277"/></linearGradient><linearGradient id="U"><stop offset="0" stop-color="#a7a7a7"/><stop offset=".512" stop-color="#7d7d7d"/><stop offset=".904" stop-color="#ccc"/><stop offset="1" stop-color="#919191" stop-opacity=".502"/></linearGradient><linearGradient id="T"><stop offset="0" stop-opacity="0"/><stop offset="1" stop-color="#919191" stop-opacity=".502"/></linearGradient><linearGradient id="R"><stop offset="0" stop-opacity=".047"/><stop offset="1" stop-opacity=".266"/></linearGradient><linearGradient id="N"><stop offset="0" stop-color="#fff"/><stop offset="1" stop-color="#fff" stop-opacity="0"/></linearGradient><linearGradient id="B"><stop offset="0" stop-color="#a7a7a7"/><stop offset="1" stop-color="#2a2a2a"/></linearGradient><linearGradient id="A"><stop offset="0" stop-color="#111"/><stop offset=".436" stop-color="#494949"/><stop offset="1" stop-color="#939393"/></linearGradient><linearGradient id="t"><stop offset="0" stop-color="#c0f5a5"/><stop offset="1" stop-color="#f7f7f9"/></linearGradient><linearGradient id="s"><stop offset="0"/><stop offset="1" stop-color="#3e383e"/></linearGradient><linearGradient id="r"><stop offset="0" stop-color="#ff9a00"/><stop offset="1" stop-color="#fdca00"/></linearGradient><linearGradient id="q"><stop offset="0" stop-color="#adcff7"/><stop offset="1" stop-color="#efefff"/></linearGradient><linearGradient id="p"><stop offset="0" stop-color="#c6bede"/><stop offset="1" stop-color="#f7e7ff"/></linearGradient><linearGradient id="n"><stop offset="0" stop-color="#a69fc6"/><stop offset="1" stop-color="#fffbff"/></linearGradient><linearGradient id="o"><stop offset="0" stop-color="#5228ad"/><stop offset=".696" stop-color="#4f28a7"/><stop offset=".849" stop-color="#4b289f"/><stop offset="1" stop-color="#4a289c"/></linearGradient><linearGradient id="m"><stop offset="0" stop-color="#fff"/><stop offset=".714" stop-color="#fff"/><stop offset="1"/></linearGradient><linearGradient id="l"><stop offset="0"/><stop offset="1" stop-color="#211821"/></linearGradient><linearGradient id="k"><stop offset="0" stop-color="#ded3d6"/><stop offset="1" stop-color="#f7ebef"/></linearGradient><linearGradient id="j"><stop offset="0" stop-color="#ded3d6"/><stop offset="1" stop-color="#efebef"/></linearGradient><linearGradient id="g"><stop offset="0" stop-color="#ffe7f7"/><stop offset="1" stop-color="#ffc3ef"/></linearGradient><linearGradient id="i"><stop offset="0" stop-color="#943410"/><stop offset="1" stop-color="#dc7952"/></linearGradient><linearGradient id="h"><stop offset="0" stop-color="#a53810"/><stop offset="1" stop-color="#e75911"/></linearGradient><linearGradient id="f"><stop offset="0" stop-color="#c16d16"/><stop offset="1" stop-color="#ff8e31"/></linearGradient><linearGradient id="e"><stop offset="0" stop-color="#92948f" stop-opacity="0"/><stop offset=".428" stop-color="#9b9e98"/><stop offset="1" stop-color="#939690" stop-opacity="0"/></linearGradient><linearGradient id="d"><stop offset="0" stop-color="#fff" stop-opacity="0"/><stop offset=".459" stop-color="#fff"/><stop offset="1" stop-color="#fff" stop-opacity="0"/></linearGradient><linearGradient id="c"><stop offset="0"/><stop offset=".061" stop-color="#1a1a1a"/><stop offset=".165" stop-color="#333"/><stop offset=".554" stop-color="#4d4d4d"/><stop offset="1" stop-color="#999"/></linearGradient><linearGradient id="b"><stop offset="0" stop-color="#1a1a1a"/><stop offset="1" stop-color="gray"/></linearGradient><linearGradient id="a"><stop offset="0" stop-color="#333"/><stop offset="1" stop-color="#e0e0dd" stop-opacity="0"/></linearGradient><linearGradient id="u"><stop offset="0" stop-color="#2a2a2a"/><stop offset="1" stop-color="#1a1a1a"/></linearGradient><linearGradient id="v"><stop offset="0" stop-color="#c7cbc4"/><stop offset=".198" stop-color="#828480"/><stop offset=".635" stop-color="#fff"/><stop offset="1" stop-color="#c1c4be"/></linearGradient><linearGradient id="w"><stop offset="0" stop-color="gray"/><stop offset="1" stop-color="#101010"/></linearGradient><linearGradient id="x"><stop offset="0" stop-color="#010101"/><stop offset="1" stop-color="#101213"/></linearGradient><linearGradient id="y"><stop offset="0" stop-color="#d7d9d5"/><stop offset="1" stop-color="#fff"/></linearGradient><linearGradient id="z"><stop offset="0" stop-color="#fff"/><stop offset="1" stop-color="#b3b3b3"/></linearGradient><linearGradient id="C"><stop offset="0"/><stop offset="1" stop-opacity="0"/></linearGradient><linearGradient id="D"><stop offset="0" stop-color="#ed5012"/><stop offset="1" stop-color="#bc3f0e"/></linearGradient><radialGradient id="E" gradientUnits="userSpaceOnUse" cy="9.81" cx="-514.13" gradientTransform="translate(338.17 67.963) scale(.5424)" r="145.95"><stop offset="0" stop-color="#ed8246"/><stop offset=".683" stop-color="#ee6d2e"/><stop offset=".701" stop-color="#ef783d"/><stop offset="1" stop-color="#f07f48"/></radialGradient><linearGradient id="F"><stop offset="0" stop-color="#e55016"/><stop offset="1" stop-color="#c44c1c"/></linearGradient><linearGradient id="G"><stop offset="0" stop-color="#ed9666"/><stop offset="1" stop-color="#ed9666" stop-opacity="0"/></linearGradient><linearGradient id="H"><stop offset="0" stop-color="#d64912"/><stop offset="1" stop-color="#d64912" stop-opacity="0"/></linearGradient><linearGradient id="I"><stop offset="0" stop-color="#e89c59"/><stop offset="1" stop-color="#e89c59" stop-opacity="0"/></linearGradient><linearGradient id="J"><stop offset="0" stop-color="#520"/><stop offset="1" stop-color="#520" stop-opacity="0"/></linearGradient><linearGradient id="K"><stop offset="0" stop-color="#f07e51"/><stop offset="1" stop-color="#ec5d24"/></linearGradient><linearGradient id="L"><stop offset="0" stop-color="#ef7545"/><stop offset="1" stop-color="#eb5114"/></linearGradient><linearGradient id="M"><stop offset="0" stop-color="#612d15"/><stop offset="1" stop-color="#8a3f1e" stop-opacity="0"/></linearGradient><linearGradient id="O"><stop offset="0" stop-color="#e1e1e1"/><stop offset="1" stop-color="#fff"/></linearGradient><radialGradient id="P" gradientUnits="userSpaceOnUse" cy="9.81" cx="-514.13" gradientTransform="translate(338.17 67.963) scale(.5424)" r="145.95"><stop offset="0" stop-color="#ed8347"/><stop offset="1" stop-color="#e85913"/></radialGradient><linearGradient id="Q"><stop offset="0" stop-color="#de4814"/><stop offset="1" stop-color="#ff6000"/></linearGradient><linearGradient xlink:href="#S" id="Y" gradientUnits="userSpaceOnUse" gradientTransform="matrix(.2782 0 0 .55649 35.118 -19.934)" x1="45.878" y1="34.792" x2="46.015" y2="47.577"/><linearGradient id="S"><stop offset="0" stop-color="#4b4b4b"/><stop offset=".125" stop-color="#fff"/><stop offset=".306"/><stop offset=".359" stop-color="#fff"/><stop offset=".654" stop-color="#fff"/><stop offset=".731"/><stop offset=".931" stop-color="#fff"/><stop offset="1" stop-color="#505050"/></linearGradient><linearGradient xlink:href="#S" id="X" gradientUnits="userSpaceOnUse" gradientTransform="matrix(.19768 .19574 -.38774 .39917 35.876 9.276)" x1="45.878" y1="34.792" x2="45.869" y2="42.694"/><linearGradient xlink:href="#T" id="aa" x1="8.57" y1="18.196" x2="28.333" y2="31.765" gradientUnits="userSpaceOnUse"/><linearGradient xlink:href="#U" id="Z" x1="11.592" y1="14.007" x2="28.333" y2="31.765" gradientUnits="userSpaceOnUse"/><linearGradient xlink:href="#V" id="W" x1="20.562" y1="20.382" x2="17.967" y2="15.009" gradientUnits="userSpaceOnUse"/></defs><g transform="matrix(-1.37265 0 0 1.37265 55.787 -12.915)"><path d="M20.04 12.009c-6.162 0-11.95 5.282-11.95 11.445s5.65 11.72 11.813 11.72S31.53 29.71 31.53 23.546s-5.328-11.537-11.49-11.537zm-.137.588c5.43 0 9.802 4.739 9.802 10.17a9.78 9.78 0 0 1-9.802 9.802 9.78 9.78 0 0 1-9.803-9.803c0-5.43 4.372-10.169 9.803-10.169z" opacity=".421" fill-opacity=".208" stroke-width=".2"/><path d="M20.016 14.328a6.878 6.878 0 0 0-1.912.186c-6.231 1.534-8.42 7.086-6.534 9.125 1.538 1.662 2.953-1.52 7.278-2.56 4.324-1.039 6.717 2.078 8.057.29 2.021-2.697-2.396-6.867-6.89-7.041zm7.36 8.893c-.634-.055-1.303.44-1.559 1.16-.292.824.019 1.76.723 2.01.703.25 1.534-.28 1.827-1.104.292-.823-.019-1.757-.723-2.008a1.074 1.074 0 0 0-.268-.058z" fill="url(#W)" stroke-width=".59" stroke-miterlimit="0" stroke-opacity=".192"/><path d="M30.13 30.783l2.002 1.895-3.168 3.218-1.937-1.918z" fill="url(#X)" stroke-width=".59" stroke-miterlimit="0" stroke-opacity=".192"/><rect ry=".637" y="-.643" x="45.81" height="7.018" width="9.074" transform="matrix(.71057 .70363 -.69676 .7173 0 0)" fill="url(#Y)" stroke-width=".59" stroke-miterlimit="0" stroke-opacity=".192"/><path d="M38.192 36.929l.843.826c.172.17.215.597.003.815l-4.099 4.218c-.17.176-.593.183-.79-.01l-.891-.881c2.107-1.999 3.633-3.406 4.934-4.968z" fill-opacity=".427" stroke-width=".59" stroke-miterlimit="0"/><path d="M33.107 31.881l.76.739c-1.997 1.658-3.169 2.834-4.906 5.016l-.726-.714c-.047-.046-.07-.205-.031-.244l4.748-4.807c.04-.04.108-.035.155.01z" fill-opacity=".494" stroke-width=".59" stroke-miterlimit="0"/><path d="M19.75 10.933A12.518 12.518 0 0 0 7.203 23.478c0 6.95 5.595 12.546 12.545 12.546s12.546-5.596 12.546-12.546c0-6.95-5.596-12.545-12.546-12.545zm0 .973c6.41 0 11.571 5.161 11.571 11.572A11.547 11.547 0 0 1 19.75 35.05 11.547 11.547 0 0 1 8.177 23.478c0-6.41 5.161-11.572 11.572-11.572z" fill="url(#Z)" stroke="url(#aa)" stroke-width=".147"/></g><g transform="rotate(30 27.212 25.532)" color="#000" fill="#fff" fill-opacity=".492" stroke-width=".618" stroke-linecap="round"><ellipse ry="6.704" rx="3.254" cy="23.787" cx="23.957" style="isolation:auto;mix-blend-mode:normal;marker:none" transform="rotate(-4.538)" overflow="visible"/><ellipse ry="1.056" rx=".92" cy="13.191" cx="27.877" style="isolation:auto;mix-blend-mode:normal;marker:none" overflow="visible"/><ellipse ry="1.737" rx="2.043" cy="14.825" cx="20.487" style="isolation:auto;mix-blend-mode:normal;marker:none" overflow="visible"/><ellipse style="isolation:auto;mix-blend-mode:normal;marker:none" cx="24.539" cy="12.85" rx=".92" ry="1.056" overflow="visible"/><ellipse ry="1.056" rx=".92" cy="15.506" cx="29.852" style="isolation:auto;mix-blend-mode:normal;marker:none" overflow="visible"/></g></svg>