<svg xmlns="http://www.w3.org/2000/svg" xmlns:xlink="http://www.w3.org/1999/xlink" height="48" viewBox="0 0 48 48" width="48"><defs><linearGradient id="l"><stop offset="0" stop-color="#fff"/><stop offset=".519" stop-color="#a6a6a6"/><stop offset="1" stop-color="#cfcfcf"/></linearGradient><linearGradient id="q"><stop offset="0" stop-color="#87e6ff" stop-opacity="0"/><stop offset=".237" stop-color="#8edaff"/><stop offset=".647" stop-color="#b697ff"/><stop offset="1" stop-color="#ff2cb7"/></linearGradient><linearGradient id="p"><stop offset="0" stop-color="#232323"/><stop offset="1" stop-color="#232323" stop-opacity=".461"/></linearGradient><linearGradient id="o"><stop offset="0" stop-color="#151515"/><stop offset=".771" stop-color="#101010"/><stop offset="1" stop-color="#131313" stop-opacity=".608"/></linearGradient><linearGradient id="n"><stop offset="0" stop-color="#fff" stop-opacity=".047"/><stop offset="1" stop-color="#fff" stop-opacity=".272"/></linearGradient><linearGradient id="m"><stop offset="0" stop-color="#fff"/><stop offset="1" stop-color="#848484"/></linearGradient><linearGradient id="k"><stop offset="0" stop-color="#e6e6e6" stop-opacity=".749"/><stop offset="1" stop-color="#e6e6e6" stop-opacity="0"/></linearGradient><linearGradient id="j"><stop offset="0" stop-color="#fff"/><stop offset=".48" stop-color="#7f7f7f" stop-opacity="0"/><stop offset="1" stop-color="#f0f0f0"/></linearGradient><linearGradient id="i"><stop offset="0" stop-color="#ebebeb"/><stop offset=".541" stop-color="#b2b2b2"/><stop offset="1" stop-color="#ebebeb"/></linearGradient><linearGradient id="h"><stop offset="0" stop-color="#87e6ff" stop-opacity="0"/><stop offset=".237" stop-color="#8edaff"/><stop offset=".647" stop-color="#b697ff"/><stop offset="1" stop-color="#f72cff"/></linearGradient><linearGradient id="g"><stop offset="0" stop-color="#fff"/><stop offset=".48" stop-color="#cbcbcb"/><stop offset="1" stop-color="#f0f0f0"/></linearGradient><linearGradient id="f"><stop offset="0" stop-color="#1b171e"/><stop offset="1" stop-color="#515667"/></linearGradient><linearGradient id="e"><stop offset="0"/><stop offset="1" stop-opacity="0"/></linearGradient><linearGradient id="d"><stop offset="0" stop-color="#176875"/><stop offset="1" stop-color="#186a77"/></linearGradient><linearGradient id="b"><stop offset="0" stop-color="#b6b6b6"/><stop offset=".482" stop-color="#fff"/><stop offset="1" stop-color="#cfcfcf"/></linearGradient><linearGradient id="a"><stop offset="0" stop-color="#165dc2"/><stop offset="1" stop-color="#1680c2"/></linearGradient><linearGradient id="c"><stop offset="0" stop-color="#d0611f"/><stop offset="1" stop-color="#f77a2c"/></linearGradient><linearGradient xlink:href="#f" id="r" x1="24.267" y1="45.92" x2="24.267" y2="2.027" gradientUnits="userSpaceOnUse"/><linearGradient xlink:href="#g" id="w" x1="32.373" y1="33.92" x2="13.6" y2="16" gradientUnits="userSpaceOnUse" gradientTransform="matrix(.92368 0 0 .92368 1.834 1.854)"/><linearGradient xlink:href="#h" id="u" x1="13.414" y1="31.413" x2="31.439" y2="13.6" gradientUnits="userSpaceOnUse" gradientTransform="matrix(.92368 0 0 .92368 1.834 1.854)"/><linearGradient xlink:href="#i" id="z" x1="22.776" y1="22.776" x2="24.689" y2="25.013" gradientUnits="userSpaceOnUse" gradientTransform="translate(-13.664 -13.644) scale(1.56943)"/><linearGradient xlink:href="#j" id="x" gradientUnits="userSpaceOnUse" x1="33.173" y1="16.213" x2="13.76" y2="31.413" gradientTransform="translate(3.016 3.036) scale(.87441)"/><linearGradient xlink:href="#k" id="B" x1="3.019" y1="17.345" x2="3.019" y2="16.873" gradientUnits="userSpaceOnUse" gradientTransform="translate(-.759 -5.4) scale(1.31011)"/><linearGradient xlink:href="#k" id="C" gradientUnits="userSpaceOnUse" gradientTransform="translate(1.32 -5.4) scale(1.31011)" x1="3.019" y1="17.345" x2="3.019" y2="16.873"/><linearGradient xlink:href="#k" id="D" gradientUnits="userSpaceOnUse" gradientTransform="translate(3.399 -5.4) scale(1.31011)" x1="3.019" y1="17.345" x2="3.019" y2="16.873"/><linearGradient xlink:href="#k" id="E" gradientUnits="userSpaceOnUse" gradientTransform="translate(-.759 -2.346) scale(1.31011)" x1="3.019" y1="17.345" x2="3.019" y2="16.873"/><linearGradient xlink:href="#k" id="F" gradientUnits="userSpaceOnUse" gradientTransform="translate(1.32 -2.346) scale(1.31011)" x1="3.019" y1="17.345" x2="3.019" y2="16.873"/><linearGradient xlink:href="#k" id="G" gradientUnits="userSpaceOnUse" gradientTransform="translate(3.399 -2.346) scale(1.31011)" x1="3.019" y1="17.345" x2="3.019" y2="16.873"/><linearGradient xlink:href="#k" id="H" gradientUnits="userSpaceOnUse" gradientTransform="translate(-.759 .86) scale(1.31011)" x1="3.019" y1="17.345" x2="3.019" y2="16.873"/><linearGradient xlink:href="#k" id="I" gradientUnits="userSpaceOnUse" gradientTransform="translate(1.32 .86) scale(1.31011)" x1="3.019" y1="17.345" x2="3.019" y2="16.873"/><linearGradient xlink:href="#k" id="J" gradientUnits="userSpaceOnUse" gradientTransform="translate(3.399 .86) scale(1.31011)" x1="3.019" y1="17.345" x2="3.019" y2="16.873"/><linearGradient xlink:href="#k" id="K" gradientUnits="userSpaceOnUse" gradientTransform="translate(-.759 -5.4) scale(1.31011)" x1="3.019" y1="17.345" x2="3.019" y2="16.873"/><linearGradient xlink:href="#k" id="L" gradientUnits="userSpaceOnUse" gradientTransform="translate(1.32 -5.4) scale(1.31011)" x1="3.019" y1="17.345" x2="3.019" y2="16.873"/><linearGradient xlink:href="#k" id="M" gradientUnits="userSpaceOnUse" gradientTransform="translate(3.399 -5.4) scale(1.31011)" x1="3.019" y1="17.345" x2="3.019" y2="16.873"/><linearGradient xlink:href="#k" id="N" gradientUnits="userSpaceOnUse" gradientTransform="translate(-.759 -2.346) scale(1.31011)" x1="3.019" y1="17.345" x2="3.019" y2="16.873"/><linearGradient xlink:href="#k" id="O" gradientUnits="userSpaceOnUse" gradientTransform="translate(1.32 -2.346) scale(1.31011)" x1="3.019" y1="17.345" x2="3.019" y2="16.873"/><linearGradient xlink:href="#k" id="P" gradientUnits="userSpaceOnUse" gradientTransform="translate(3.399 -2.346) scale(1.31011)" x1="3.019" y1="17.345" x2="3.019" y2="16.873"/><linearGradient xlink:href="#k" id="Q" gradientUnits="userSpaceOnUse" gradientTransform="translate(-.759 .86) scale(1.31011)" x1="3.019" y1="17.345" x2="3.019" y2="16.873"/><linearGradient xlink:href="#k" id="R" gradientUnits="userSpaceOnUse" gradientTransform="translate(1.32 .86) scale(1.31011)" x1="3.019" y1="17.345" x2="3.019" y2="16.873"/><linearGradient xlink:href="#k" id="S" gradientUnits="userSpaceOnUse" gradientTransform="translate(3.399 .86) scale(1.31011)" x1="3.019" y1="17.345" x2="3.019" y2="16.873"/><linearGradient xlink:href="#k" id="T" gradientUnits="userSpaceOnUse" gradientTransform="translate(-.759 -5.4) scale(1.31011)" x1="3.019" y1="17.345" x2="3.019" y2="16.873"/><linearGradient xlink:href="#k" id="U" gradientUnits="userSpaceOnUse" gradientTransform="translate(1.32 -5.4) scale(1.31011)" x1="3.019" y1="17.345" x2="3.019" y2="16.873"/><linearGradient xlink:href="#k" id="V" gradientUnits="userSpaceOnUse" gradientTransform="translate(3.399 -5.4) scale(1.31011)" x1="3.019" y1="17.345" x2="3.019" y2="16.873"/><linearGradient xlink:href="#k" id="W" gradientUnits="userSpaceOnUse" gradientTransform="translate(-.759 -2.346) scale(1.31011)" x1="3.019" y1="17.345" x2="3.019" y2="16.873"/><linearGradient xlink:href="#k" id="X" gradientUnits="userSpaceOnUse" gradientTransform="translate(1.32 -2.346) scale(1.31011)" x1="3.019" y1="17.345" x2="3.019" y2="16.873"/><linearGradient xlink:href="#k" id="Y" gradientUnits="userSpaceOnUse" gradientTransform="translate(3.399 -2.346) scale(1.31011)" x1="3.019" y1="17.345" x2="3.019" y2="16.873"/><linearGradient xlink:href="#k" id="Z" gradientUnits="userSpaceOnUse" gradientTransform="translate(-.759 .86) scale(1.31011)" x1="3.019" y1="17.345" x2="3.019" y2="16.873"/><linearGradient xlink:href="#k" id="aa" gradientUnits="userSpaceOnUse" gradientTransform="translate(1.32 .86) scale(1.31011)" x1="3.019" y1="17.345" x2="3.019" y2="16.873"/><linearGradient xlink:href="#k" id="ab" gradientUnits="userSpaceOnUse" gradientTransform="translate(3.399 .86) scale(1.31011)" x1="3.019" y1="17.345" x2="3.019" y2="16.873"/><linearGradient xlink:href="#k" id="ac" gradientUnits="userSpaceOnUse" gradientTransform="translate(-.759 -5.4) scale(1.31011)" x1="3.019" y1="17.345" x2="3.019" y2="16.873"/><linearGradient xlink:href="#k" id="ad" gradientUnits="userSpaceOnUse" gradientTransform="translate(1.32 -5.4) scale(1.31011)" x1="3.019" y1="17.345" x2="3.019" y2="16.873"/><linearGradient xlink:href="#k" id="ae" gradientUnits="userSpaceOnUse" gradientTransform="translate(3.399 -5.4) scale(1.31011)" x1="3.019" y1="17.345" x2="3.019" y2="16.873"/><linearGradient xlink:href="#k" id="af" gradientUnits="userSpaceOnUse" gradientTransform="translate(-.759 -2.346) scale(1.31011)" x1="3.019" y1="17.345" x2="3.019" y2="16.873"/><linearGradient xlink:href="#k" id="ag" gradientUnits="userSpaceOnUse" gradientTransform="translate(1.32 -2.346) scale(1.31011)" x1="3.019" y1="17.345" x2="3.019" y2="16.873"/><linearGradient xlink:href="#k" id="ah" gradientUnits="userSpaceOnUse" gradientTransform="translate(3.399 -2.346) scale(1.31011)" x1="3.019" y1="17.345" x2="3.019" y2="16.873"/><linearGradient xlink:href="#k" id="ai" gradientUnits="userSpaceOnUse" gradientTransform="translate(-.759 .86) scale(1.31011)" x1="3.019" y1="17.345" x2="3.019" y2="16.873"/><linearGradient xlink:href="#k" id="aj" gradientUnits="userSpaceOnUse" gradientTransform="translate(1.32 .86) scale(1.31011)" x1="3.019" y1="17.345" x2="3.019" y2="16.873"/><linearGradient xlink:href="#k" id="ak" gradientUnits="userSpaceOnUse" gradientTransform="translate(3.399 .86) scale(1.31011)" x1="3.019" y1="17.345" x2="3.019" y2="16.873"/><linearGradient xlink:href="#k" id="al" gradientUnits="userSpaceOnUse" gradientTransform="matrix(1.21533 0 0 1.55816 3.316 -9.247)" x1="2.66" y1="15.532" x2="2.66" y2="14.901"/><linearGradient xlink:href="#k" id="am" gradientUnits="userSpaceOnUse" gradientTransform="matrix(1.21533 0 0 1.55816 3.316 12.4)" x1="2.66" y1="15.532" x2="2.66" y2="14.901"/><linearGradient xlink:href="#k" id="an" gradientUnits="userSpaceOnUse" gradientTransform="matrix(1.21533 0 0 1.55816 40.84 -9.247)" x1="2.66" y1="15.532" x2="2.66" y2="14.901"/><linearGradient xlink:href="#k" id="ao" gradientUnits="userSpaceOnUse" gradientTransform="matrix(1.21533 0 0 1.55816 40.84 12.4)" x1="2.66" y1="15.532" x2="2.66" y2="14.901"/><filter id="v" x="-.06" width="1.12" y="-.06" height="1.12" color-interpolation-filters="sRGB"><feGaussianBlur stdDeviation=".647"/></filter><linearGradient xlink:href="#l" id="ap" x1="14.133" y1="-4.56" x2="16.48" y2="-4.56" gradientUnits="userSpaceOnUse" gradientTransform="matrix(.61364 0 0 1.60031 2.047 10.044)"/><linearGradient xlink:href="#m" id="aq" gradientUnits="userSpaceOnUse" gradientTransform="matrix(1.43182 0 0 .6348 -10.423 3.881)" x1="14.133" y1="-4.56" x2="16.48" y2="-4.56"/><linearGradient xlink:href="#n" id="s" gradientUnits="userSpaceOnUse" x1="16.987" y1="19.12" x2="7.093" y2="9.227" gradientTransform="translate(0 .08)"/><radialGradient xlink:href="#o" id="t" cx="24.002" cy="24.022" fx="24.002" fy="24.022" r="15.581" gradientUnits="userSpaceOnUse" gradientTransform="matrix(.9948 0 0 .9948 .123 .103)"/><radialGradient xlink:href="#p" id="y" cx="24.002" cy="24.022" fx="24.002" fy="24.022" r="5.308" gradientUnits="userSpaceOnUse" gradientTransform="matrix(1.77367 0 0 1.37177 -18.57 -8.93)"/><linearGradient xlink:href="#q" id="A" gradientUnits="userSpaceOnUse" gradientTransform="matrix(.92368 0 0 .92368 1.832 1.832)" x1="13.414" y1="31.413" x2="31.439" y2="13.6"/></defs><rect ry="6.139" y="3.707" x="1.491" height="42.826" width="45.018" style="isolation:auto;mix-blend-mode:normal;marker:none" color="#000" overflow="visible" fill-opacity=".157" stroke-width=".438" stroke-opacity=".445" enable-background="accumulate"/><rect style="isolation:auto;mix-blend-mode:normal;marker:none" width="44" height="41.92" x="2" y="4.08" ry="6" color="#000" overflow="visible" fill="url(#r)" stroke-width=".438" stroke-opacity=".445" enable-background="accumulate"/><rect ry="6" y="4.16" x="2" height="41.92" width="44" style="isolation:auto;mix-blend-mode:normal;marker:none" color="#000" overflow="visible" fill="url(#s)" stroke-width=".438" stroke-opacity=".445" enable-background="accumulate"/><circle r="15.5" cy="24" cx="24" style="isolation:auto;mix-blend-mode:normal;marker:none" color="#000" overflow="visible" fill="url(#t)" stroke-width=".438" stroke-opacity=".445" enable-background="accumulate"/><circle style="isolation:auto;mix-blend-mode:normal;marker:none" cx="24.002" cy="24.022" r="12.944" color="#000" overflow="visible" opacity=".5" fill="none" stroke="url(#u)" stroke-width=".959" filter="url(#v)" enable-background="accumulate"/><circle style="isolation:auto;mix-blend-mode:normal;marker:none" cx="24.002" cy="24.022" r="12.008" color="#000" overflow="visible" fill="url(#w)" stroke-width=".438" stroke-opacity=".445" enable-background="accumulate"/><circle r="11.367" cy="24.022" cx="24.002" style="isolation:auto;mix-blend-mode:normal;marker:none" color="#000" overflow="visible" fill="url(#x)" stroke-width=".438" stroke-opacity=".445" enable-background="accumulate"/><circle style="isolation:auto;mix-blend-mode:normal;marker:none" cx="24.002" cy="24.022" r="5.308" color="#000" overflow="visible" fill="url(#y)" stroke-width=".438" stroke-opacity=".445" enable-background="accumulate"/><path d="M22.42 21.118v5.809l5.006-2.891z" fill="url(#z)" fill-rule="evenodd"/><circle r="12.944" cy="24" cx="24" style="isolation:auto;mix-blend-mode:normal;marker:none" color="#000" overflow="visible" fill="none" stroke="url(#A)" stroke-width=".959" enable-background="accumulate"/><g transform="translate(.107)" color="#000" stroke-width=".183"><circle r=".658" cy="16.665" cx="3.197" style="isolation:auto;mix-blend-mode:normal;marker:none" overflow="visible" stroke="url(#B)" enable-background="accumulate"/><circle style="isolation:auto;mix-blend-mode:normal;marker:none" cx="5.276" cy="16.665" r=".658" overflow="visible" stroke="url(#C)" enable-background="accumulate"/><circle r=".658" cy="16.665" cx="7.355" style="isolation:auto;mix-blend-mode:normal;marker:none" overflow="visible" stroke="url(#D)" enable-background="accumulate"/></g><g transform="translate(.107 .075)" color="#000" stroke-width=".183"><circle style="isolation:auto;mix-blend-mode:normal;marker:none" cx="3.197" cy="19.72" r=".658" overflow="visible" stroke="url(#E)" enable-background="accumulate"/><circle r=".658" cy="19.72" cx="5.276" style="isolation:auto;mix-blend-mode:normal;marker:none" overflow="visible" stroke="url(#F)" enable-background="accumulate"/><circle style="isolation:auto;mix-blend-mode:normal;marker:none" cx="7.355" cy="19.72" r=".658" overflow="visible" stroke="url(#G)" enable-background="accumulate"/></g><g transform="translate(.107)" color="#000" stroke-width=".183"><circle r=".658" cy="22.926" cx="3.197" style="isolation:auto;mix-blend-mode:normal;marker:none" overflow="visible" stroke="url(#H)" enable-background="accumulate"/><circle style="isolation:auto;mix-blend-mode:normal;marker:none" cx="5.276" cy="22.926" r=".658" overflow="visible" stroke="url(#I)" enable-background="accumulate"/><circle r=".658" cy="22.926" cx="7.355" style="isolation:auto;mix-blend-mode:normal;marker:none" overflow="visible" stroke="url(#J)" enable-background="accumulate"/></g><g transform="translate(.107 9.73)" color="#000" stroke-width=".183"><circle style="isolation:auto;mix-blend-mode:normal;marker:none" cx="3.197" cy="16.665" r=".658" overflow="visible" stroke="url(#K)" enable-background="accumulate"/><circle r=".658" cy="16.665" cx="5.276" style="isolation:auto;mix-blend-mode:normal;marker:none" overflow="visible" stroke="url(#L)" enable-background="accumulate"/><circle style="isolation:auto;mix-blend-mode:normal;marker:none" cx="7.355" cy="16.665" r=".658" overflow="visible" stroke="url(#M)" enable-background="accumulate"/></g><g transform="translate(.107 9.805)" color="#000" stroke-width=".183"><circle r=".658" cy="19.72" cx="3.197" style="isolation:auto;mix-blend-mode:normal;marker:none" overflow="visible" stroke="url(#N)" enable-background="accumulate"/><circle style="isolation:auto;mix-blend-mode:normal;marker:none" cx="5.276" cy="19.72" r=".658" overflow="visible" stroke="url(#O)" enable-background="accumulate"/><circle r=".658" cy="19.72" cx="7.355" style="isolation:auto;mix-blend-mode:normal;marker:none" overflow="visible" stroke="url(#P)" enable-background="accumulate"/></g><g transform="translate(.107 9.73)" color="#000" stroke-width=".183"><circle style="isolation:auto;mix-blend-mode:normal;marker:none" cx="3.197" cy="22.926" r=".658" overflow="visible" stroke="url(#Q)" enable-background="accumulate"/><circle r=".658" cy="22.926" cx="5.276" style="isolation:auto;mix-blend-mode:normal;marker:none" overflow="visible" stroke="url(#R)" enable-background="accumulate"/><circle style="isolation:auto;mix-blend-mode:normal;marker:none" cx="7.355" cy="22.926" r=".658" overflow="visible" stroke="url(#S)" enable-background="accumulate"/></g><g transform="translate(37.333)" color="#000" stroke-width=".183"><circle style="isolation:auto;mix-blend-mode:normal;marker:none" cx="3.197" cy="16.665" r=".658" overflow="visible" stroke="url(#T)" enable-background="accumulate"/><circle r=".658" cy="16.665" cx="5.276" style="isolation:auto;mix-blend-mode:normal;marker:none" overflow="visible" stroke="url(#U)" enable-background="accumulate"/><circle style="isolation:auto;mix-blend-mode:normal;marker:none" cx="7.355" cy="16.665" r=".658" overflow="visible" stroke="url(#V)" enable-background="accumulate"/></g><g transform="translate(37.333 .075)" color="#000" stroke-width=".183"><circle r=".658" cy="19.72" cx="3.197" style="isolation:auto;mix-blend-mode:normal;marker:none" overflow="visible" stroke="url(#W)" enable-background="accumulate"/><circle style="isolation:auto;mix-blend-mode:normal;marker:none" cx="5.276" cy="19.72" r=".658" overflow="visible" stroke="url(#X)" enable-background="accumulate"/><circle r=".658" cy="19.72" cx="7.355" style="isolation:auto;mix-blend-mode:normal;marker:none" overflow="visible" stroke="url(#Y)" enable-background="accumulate"/></g><g transform="translate(37.333)" color="#000" stroke-width=".183"><circle style="isolation:auto;mix-blend-mode:normal;marker:none" cx="3.197" cy="22.926" r=".658" overflow="visible" stroke="url(#Z)" enable-background="accumulate"/><circle r=".658" cy="22.926" cx="5.276" style="isolation:auto;mix-blend-mode:normal;marker:none" overflow="visible" stroke="url(#aa)" enable-background="accumulate"/><circle style="isolation:auto;mix-blend-mode:normal;marker:none" cx="7.355" cy="22.926" r=".658" overflow="visible" stroke="url(#ab)" enable-background="accumulate"/></g><g transform="translate(37.333 9.73)" color="#000" stroke-width=".183"><circle r=".658" cy="16.665" cx="3.197" style="isolation:auto;mix-blend-mode:normal;marker:none" overflow="visible" stroke="url(#ac)" enable-background="accumulate"/><circle style="isolation:auto;mix-blend-mode:normal;marker:none" cx="5.276" cy="16.665" r=".658" overflow="visible" stroke="url(#ad)" enable-background="accumulate"/><circle r=".658" cy="16.665" cx="7.355" style="isolation:auto;mix-blend-mode:normal;marker:none" overflow="visible" stroke="url(#ae)" enable-background="accumulate"/></g><g transform="translate(37.333 9.805)" color="#000" stroke-width=".183"><circle style="isolation:auto;mix-blend-mode:normal;marker:none" cx="3.197" cy="19.72" r=".658" overflow="visible" stroke="url(#af)" enable-background="accumulate"/><circle r=".658" cy="19.72" cx="5.276" style="isolation:auto;mix-blend-mode:normal;marker:none" overflow="visible" stroke="url(#ag)" enable-background="accumulate"/><circle style="isolation:auto;mix-blend-mode:normal;marker:none" cx="7.355" cy="19.72" r=".658" overflow="visible" stroke="url(#ah)" enable-background="accumulate"/></g><g transform="translate(37.333 9.73)" color="#000" stroke-width=".183"><circle r=".658" cy="22.926" cx="3.197" style="isolation:auto;mix-blend-mode:normal;marker:none" overflow="visible" stroke="url(#ai)" enable-background="accumulate"/><circle style="isolation:auto;mix-blend-mode:normal;marker:none" cx="5.276" cy="22.926" r=".658" overflow="visible" stroke="url(#aj)" enable-background="accumulate"/><circle r=".658" cy="22.926" cx="7.355" style="isolation:auto;mix-blend-mode:normal;marker:none" overflow="visible" stroke="url(#ak)" enable-background="accumulate"/></g><g style="line-height:0%" font-family="sans-serif" letter-spacing="0" word-spacing="0" fill="#888" font-size="3.496"><path d="M20.267 42.862v-.684h-.563v-.284h.904v1.095q-.2.141-.44.215-.24.071-.514.071-.597 0-.935-.348-.336-.35-.336-.973 0-.625.336-.973.338-.35.935-.35.25 0 .473.062.225.061.415.18v.368q-.191-.162-.406-.244-.215-.082-.453-.082-.467 0-.703.26-.234.262-.234.78 0 .515.234.776.236.26.703.26.183 0 .326-.03.144-.032.258-.099zM22.334 41.608q-.053-.031-.116-.045-.061-.015-.137-.015-.266 0-.41.174-.14.172-.14.497v1.007h-.317v-1.912h.316v.297q.1-.174.258-.258.159-.085.386-.085.032 0 .071.005.04.003.087.012zM23.536 42.265q-.38 0-.528.087-.147.087-.147.297 0 .167.11.266.11.097.3.097.261 0 .418-.184.16-.186.16-.493v-.07zm.626-.13v1.09h-.314v-.29q-.107.175-.268.258-.16.082-.392.082-.294 0-.468-.164-.173-.165-.173-.442 0-.322.215-.486.217-.164.646-.164h.44v-.03q0-.217-.143-.335-.142-.12-.4-.12-.164 0-.319.04-.155.039-.299.117v-.29q.173-.066.335-.099.162-.034.316-.034.414 0 .62.215.204.215.204.652zM26.069 41.604V40.57h.314v2.656h-.314v-.287q-.1.17-.251.254-.15.082-.362.082-.347 0-.565-.276-.217-.277-.217-.727 0-.451.217-.728.218-.276.565-.276.212 0 .362.084.152.082.25.252zm-1.07.668q0 .346.141.544.144.196.393.196.249 0 .392-.196.144-.198.144-.544 0-.347-.144-.543-.143-.198-.392-.198-.25 0-.393.198-.141.196-.141.543zM27.03 41.314h.314v1.912h-.314zm0-.744h.314v.398h-.314zM28.74 41.534q-.253 0-.4.198-.146.197-.146.54t.145.54q.147.197.401.197.251 0 .398-.198.147-.198.147-.54 0-.339-.147-.537-.147-.2-.398-.2zm0-.266q.41 0 .644.266.233.267.233.738 0 .469-.233.737-.234.266-.644.266-.411 0-.645-.266-.232-.268-.232-.737 0-.471.232-.738.234-.266.645-.266z" style="line-height:10"/></g><rect style="isolation:auto;mix-blend-mode:normal;marker:none" width="5.807" height=".807" x="2.192" y="14.077" ry=".404" color="#000" overflow="visible" stroke="url(#al)" stroke-width=".193" enable-background="accumulate"/><rect ry=".404" y="35.723" x="2.192" height=".807" width="5.807" style="isolation:auto;mix-blend-mode:normal;marker:none" color="#000" overflow="visible" stroke="url(#am)" stroke-width=".193" enable-background="accumulate"/><rect ry=".404" y="14.077" x="39.716" height=".807" width="5.807" style="isolation:auto;mix-blend-mode:normal;marker:none" color="#000" overflow="visible" stroke="url(#an)" stroke-width=".193" enable-background="accumulate"/><rect style="isolation:auto;mix-blend-mode:normal;marker:none" width="5.807" height=".807" x="39.716" y="35.723" ry=".404" color="#000" overflow="visible" stroke="url(#ao)" stroke-width=".193" enable-background="accumulate"/><circle style="isolation:auto;mix-blend-mode:normal;marker:none" cx="38.5" cy="41.5" r="1.22" color="#000" overflow="visible" fill="#2dcdfe" stroke="#a0ddf0" stroke-width=".56" stroke-opacity=".309" enable-background="accumulate"/><rect style="isolation:auto;mix-blend-mode:normal;marker:none" width="1.44" height="2.475" x="10.72" y="1.509" ry="0" color="#000" overflow="visible" fill="url(#ap)" stroke-width=".72" stroke-opacity=".309" enable-background="accumulate"/><rect ry="0" y=".496" x="9.813" height=".982" width="3.36" style="isolation:auto;mix-blend-mode:normal;marker:none" color="#000" overflow="visible" fill="url(#aq)" stroke-width=".72" stroke-opacity=".309" enable-background="accumulate"/><rect style="isolation:auto;mix-blend-mode:normal;marker:none" width="44" height="41.92" x="2" y="4.16" ry="6" color="#000" overflow="visible" fill="none" stroke="#e1eaed" stroke-width=".438" stroke-opacity=".529" enable-background="accumulate"/></svg>