<svg xmlns="http://www.w3.org/2000/svg" xmlns:xlink="http://www.w3.org/1999/xlink" height="136.533" viewBox="0 0 136.53333 136.53333" width="136.533"><defs><linearGradient id="a"><stop offset="0" stop-color="#5d6cf5"/><stop offset=".277" stop-color="#669ddc"/><stop offset=".555" stop-color="#72bce7"/><stop offset=".805" stop-color="#b4dfae"/><stop offset="1" stop-color="#f7daac"/></linearGradient><linearGradient xlink:href="#a" id="d" gradientUnits="userSpaceOnUse" x1="92.724" y1="134.692" x2="49.227" y2="7.876"/></defs><linearGradient id="c"><stop offset="0" stop-color="#9760ef"/><stop offset="1" stop-color="#c054f2" stop-opacity="0"/></linearGradient><linearGradient id="b"><stop offset="0" stop-color="#17c7e7"/><stop offset="1" stop-color="#c054f2" stop-opacity="0"/></linearGradient><path style="line-height:normal;font-variant-ligatures:normal;font-variant-position:normal;font-variant-caps:normal;font-variant-numeric:normal;font-variant-alternates:normal;font-feature-settings:normal;text-indent:0;text-align:start;text-decoration-line:none;text-decoration-style:solid;text-decoration-color:#000;text-transform:none;text-orientation:mixed;shape-padding:0;isolation:auto;mix-blend-mode:normal" d="M68.113 2.217c-36.98 0-67.023 30.042-67.023 67.021 0 36.98 30.044 67.022 67.023 67.022 36.98 0 67.022-30.042 67.022-67.022 0-36.98-30.042-67.021-67.022-67.021z" color="#000" font-weight="400" font-family="sans-serif" white-space="normal" overflow="visible" fill="url(#d)" stroke-width="6"/><path style="line-height:normal;font-variant-ligatures:normal;font-variant-position:normal;font-variant-caps:normal;font-variant-numeric:normal;font-variant-alternates:normal;font-feature-settings:normal;text-indent:0;text-align:start;text-decoration-line:none;text-decoration-style:solid;text-decoration-color:#000;text-transform:none;text-orientation:mixed;shape-padding:0;isolation:auto;mix-blend-mode:normal" d="M82.224 26.738c-5.913.123-23.013 6.986-22.954 13.301l-.104 1.566c-.084 15.266 6.254 27.323 6.006 42.516-.606.959-1.352 1.45-2.381 1.725-12.43-15.062-23.81 15.048-9.846 20.008C93.34 125.317 73.006 71.997 72.672 52.61c5.483-3.509 14.86-2.486 17.23-7.377 12.728-13.292 6.67-11.011-4.898-12.61 6.612-4.951 4.613-5.064-2.78-5.886zm-.22 7.625c.94.008 1.832.083 2.637.227h.004c1.374.258 2.304.982 2.978 2.027.676 1.048 1.05 2.435 1.111 3.854.061 1.418-.192 2.86-.67 3.974-.477 1.115-1.159 1.852-1.845 2.106a1 1 0 0 0-.14.064c-1.973 1.106-4.681 1.41-7.429 1.813-2.747.403-5.592.917-7.664 2.908a1 1 0 0 0-.306.684c-.503 13.35-.214 26.697-.35 40-.304 5.976-1.749 8.977-4.375 10.554-2.617 1.572-6.807 1.776-12.668 1.303-6.307-1.237-7.942-10.85-2.51-14.125a1 1 0 0 0 .157-.115c1.896-1.719 4.767-1.585 7.83-1.516 1.531.035 3.081.047 4.543-.344 1.461-.39 2.845-1.26 3.732-2.812a1 1 0 0 0 .13-.479c.257-15.387.151-27.5.235-42.869a1 1 0 0 0-.002-.07c-.058-.907.295-1.755 1.076-2.621.782-.867 1.99-1.695 3.444-2.385 2.908-1.38 6.788-2.204 10.082-2.178z" color="#000" font-weight="400" font-family="sans-serif" white-space="normal" overflow="visible" fill-opacity=".065" stroke-width="2" stroke-linecap="round" stroke-linejoin="round" paint-order="fill markers stroke"/><path d="M68.111 9.717A59.522 59.522 0 0 0 8.59 69.238a59.522 59.522 0 0 0 59.523 59.522 59.522 59.522 0 0 0 59.522-59.522A59.522 59.522 0 0 0 68.11 9.717zm13.9 23.646c.99.008 1.938.087 2.81.242 6.596 1.229 5.921 12.338 1.745 13.883-4.46 2.501-11.298 1.12-14.886 4.569-.502 13.318-.213 26.665-.35 39.996-.618 12.28-6.277 13.79-18.197 12.818-7.25-1.381-9.116-12.21-2.871-15.975 4.542-4.115 12.888.858 15.908-4.427.255-15.374.15-27.481.234-42.858-.314-4.878 8.683-8.303 15.608-8.248z" fill="#fff" stroke-width="2" stroke-linecap="round" stroke-linejoin="round" paint-order="fill markers stroke"/></svg>