<svg xmlns="http://www.w3.org/2000/svg" height="128" width="128"><linearGradient id="a" gradientUnits="userSpaceOnUse" x1="64.828" x2="64.828" y1="927.266" y2="1049.85"><stop offset="0" stop-color="#fff"/><stop offset="1" stop-color="#d7d7d7"/></linearGradient><linearGradient id="b" gradientUnits="userSpaceOnUse" x1="69.197" x2="69.197" y1="934.995" y2="1050.603"><stop offset="0" stop-color="#0177c2"/><stop offset="1" stop-color="#60407b"/></linearGradient><radialGradient id="c" cx="511.5" cy="540.862" gradientTransform="matrix(.06706 -.00614 .00713 .07788 25.194 950.025)" gradientUnits="userSpaceOnUse" r="470.5"><stop offset="0" stop-color="#153972"/><stop offset="1" stop-color="#23bfb4" stop-opacity="0"/></radialGradient><filter id="e" color-interpolation-filters="sRGB" height="1.067" width="1.063" x="-.031" y="-.033"><feGaussianBlur stdDeviation=".733"/></filter><filter id="d" color-interpolation-filters="sRGB" height="1.293" width="1.293" x="-.146" y="-.146"><feGaussianBlur stdDeviation="6.913"/></filter><g transform="translate(0 -924.362)"><circle cx="63.417" cy="988.945" r="61.417" fill="url(#a)"/><circle cx="63.357" cy="989.006" r="56.66" fill="url(#b)"/><circle cx="63.357" cy="989.006" r="56.66" fill="url(#c)" filter="url(#d)"/><g opacity=".583" filter="url(#e)" transform="matrix(1.38869 0 0 1.38869 -97.695 -350.787)"><path d="M115.143 966.2c.456-6.25.837-18.75 1.367-18.75.58 0 .911 12.24 1.367 18.36 2.995 3.288 9.338 9.51 8.985 9.863-.34.34-7.813-6.315-11.72-9.472zM87.007 962.455H99.92l-6.407 11.097z"/><path d="M116.795 938.404c-14.408 0-26.156 11.799-26.156 26.312 0 .423.011.864.031 1.281l4.969-1.28c0-11.802 9.44-21.282 21.156-21.282s21.156 9.48 21.156 21.281c0 11.802-9.44 21.344-21.156 21.344-5.898 0-11.195-2.439-15.031-6.344 0 0-.68-.694-1.091-1.088-.755-.72-1.362-.463-1.878-.047-.605.484-1.132.895-1.719 1.448-.483.397-.763 1.057-.312 1.594 4.805 5.771 11.998 9.468 20.031 9.468 14.408 0 26.125-11.861 26.125-26.375 0-14.513-11.717-26.312-26.125-26.312z"/></g><g fill="#fff"><path d="M62.203 990.963c.633-8.679 1.163-26.038 1.898-26.038.805 0 1.266 16.997 1.899 25.496 4.159 4.565 12.968 13.206 12.476 13.697-.472.472-10.849-8.77-16.273-13.155zM23.131 985.761h17.932l-8.897 15.41z"/><path d="M64.497 952.362c-20.008 0-36.322 16.385-36.322 36.54 0 .587.016 1.199.043 1.78l6.9-1.78c0-16.388 13.11-29.553 29.38-29.553 16.269 0 29.379 13.165 29.379 29.553s-13.11 29.64-29.38 29.64c-8.19 0-15.546-3.387-20.873-8.81 0 0-.943-.964-1.516-1.51-1.048-1-1.89-.644-2.608-.066-.839.671-1.57 1.243-2.386 2.01-.671.552-1.06 1.468-.434 2.213 6.673 8.016 16.662 13.15 27.817 13.15 20.009 0 36.28-16.473 36.28-36.627 0-20.155-16.271-36.54-36.28-36.54z"/></g></g></svg>