<svg xmlns="http://www.w3.org/2000/svg" height="64" viewBox="0 0 63.999999 63.999999" width="64"><defs><linearGradient id="S"><stop offset="0" stop-color="#fff" stop-opacity=".183"/><stop offset="1" stop-color="#fff" stop-opacity="0"/></linearGradient><linearGradient id="R"><stop offset="0" stop-opacity=".047"/><stop offset="1" stop-opacity=".266"/></linearGradient><linearGradient id="N"><stop offset="0" stop-color="#fff"/><stop offset="1" stop-color="#fff" stop-opacity="0"/></linearGradient><linearGradient id="B"><stop offset="0" stop-color="#a7a7a7"/><stop offset="1" stop-color="#2a2a2a"/></linearGradient><linearGradient id="A"><stop offset="0" stop-color="#111"/><stop offset=".436" stop-color="#494949"/><stop offset="1" stop-color="#939393"/></linearGradient><linearGradient id="t"><stop offset="0" stop-color="#c0f5a5"/><stop offset="1" stop-color="#f7f7f9"/></linearGradient><linearGradient id="s"><stop offset="0"/><stop offset="1" stop-color="#3e383e"/></linearGradient><linearGradient id="r"><stop offset="0" stop-color="#ff9a00"/><stop offset="1" stop-color="#fdca00"/></linearGradient><linearGradient id="q"><stop offset="0" stop-color="#adcff7"/><stop offset="1" stop-color="#efefff"/></linearGradient><linearGradient id="p"><stop offset="0" stop-color="#c6bede"/><stop offset="1" stop-color="#f7e7ff"/></linearGradient><linearGradient id="n"><stop offset="0" stop-color="#a69fc6"/><stop offset="1" stop-color="#fffbff"/></linearGradient><linearGradient id="o"><stop offset="0" stop-color="#5228ad"/><stop offset=".696" stop-color="#4f28a7"/><stop offset=".849" stop-color="#4b289f"/><stop offset="1" stop-color="#4a289c"/></linearGradient><linearGradient id="m"><stop offset="0" stop-color="#fff"/><stop offset=".714" stop-color="#fff"/><stop offset="1"/></linearGradient><linearGradient id="l"><stop offset="0"/><stop offset="1" stop-color="#211821"/></linearGradient><linearGradient id="k"><stop offset="0" stop-color="#ded3d6"/><stop offset="1" stop-color="#f7ebef"/></linearGradient><linearGradient id="j"><stop offset="0" stop-color="#ded3d6"/><stop offset="1" stop-color="#efebef"/></linearGradient><linearGradient id="g"><stop offset="0" stop-color="#ffe7f7"/><stop offset="1" stop-color="#ffc3ef"/></linearGradient><linearGradient id="i"><stop offset="0" stop-color="#943410"/><stop offset="1" stop-color="#dc7952"/></linearGradient><linearGradient id="h"><stop offset="0" stop-color="#a53810"/><stop offset="1" stop-color="#e75911"/></linearGradient><linearGradient id="f"><stop offset="0" stop-color="#c16d16"/><stop offset="1" stop-color="#ff8e31"/></linearGradient><linearGradient id="e"><stop offset="0" stop-color="#92948f" stop-opacity="0"/><stop offset=".428" stop-color="#9b9e98"/><stop offset="1" stop-color="#939690" stop-opacity="0"/></linearGradient><linearGradient id="d"><stop offset="0" stop-color="#fff" stop-opacity="0"/><stop offset=".459" stop-color="#fff"/><stop offset="1" stop-color="#fff" stop-opacity="0"/></linearGradient><linearGradient id="c"><stop offset="0"/><stop offset=".061" stop-color="#1a1a1a"/><stop offset=".165" stop-color="#333"/><stop offset=".554" stop-color="#4d4d4d"/><stop offset="1" stop-color="#999"/></linearGradient><linearGradient id="b"><stop offset="0" stop-color="#1a1a1a"/><stop offset="1" stop-color="gray"/></linearGradient><linearGradient id="a"><stop offset="0" stop-color="#333"/><stop offset="1" stop-color="#e0e0dd" stop-opacity="0"/></linearGradient><linearGradient id="u"><stop offset="0" stop-color="#2a2a2a"/><stop offset="1" stop-color="#1a1a1a"/></linearGradient><linearGradient id="v"><stop offset="0" stop-color="#c7cbc4"/><stop offset=".198" stop-color="#828480"/><stop offset=".635" stop-color="#fff"/><stop offset="1" stop-color="#c1c4be"/></linearGradient><linearGradient id="w"><stop offset="0" stop-color="gray"/><stop offset="1" stop-color="#101010"/></linearGradient><linearGradient id="x"><stop offset="0" stop-color="#010101"/><stop offset="1" stop-color="#101213"/></linearGradient><linearGradient id="y"><stop offset="0" stop-color="#d7d9d5"/><stop offset="1" stop-color="#fff"/></linearGradient><linearGradient id="z"><stop offset="0" stop-color="#fff"/><stop offset="1" stop-color="#b3b3b3"/></linearGradient><linearGradient id="C"><stop offset="0"/><stop offset="1" stop-opacity="0"/></linearGradient><linearGradient id="D"><stop offset="0" stop-color="#ed5012"/><stop offset="1" stop-color="#bc3f0e"/></linearGradient><radialGradient id="E" gradientUnits="userSpaceOnUse" cy="9.81" cx="-514.13" gradientTransform="translate(338.17 67.963) scale(.5424)" r="145.95"><stop offset="0" stop-color="#ed8246"/><stop offset=".683" stop-color="#ee6d2e"/><stop offset=".701" stop-color="#ef783d"/><stop offset="1" stop-color="#f07f48"/></radialGradient><linearGradient id="F"><stop offset="0" stop-color="#e55016"/><stop offset="1" stop-color="#c44c1c"/></linearGradient><linearGradient id="G"><stop offset="0" stop-color="#ed9666"/><stop offset="1" stop-color="#ed9666" stop-opacity="0"/></linearGradient><linearGradient id="H"><stop offset="0" stop-color="#d64912"/><stop offset="1" stop-color="#d64912" stop-opacity="0"/></linearGradient><linearGradient id="I"><stop offset="0" stop-color="#e89c59"/><stop offset="1" stop-color="#e89c59" stop-opacity="0"/></linearGradient><linearGradient id="J"><stop offset="0" stop-color="#520"/><stop offset="1" stop-color="#520" stop-opacity="0"/></linearGradient><linearGradient id="K"><stop offset="0" stop-color="#f07e51"/><stop offset="1" stop-color="#ec5d24"/></linearGradient><linearGradient id="L"><stop offset="0" stop-color="#ef7545"/><stop offset="1" stop-color="#eb5114"/></linearGradient><linearGradient id="M"><stop offset="0" stop-color="#612d15"/><stop offset="1" stop-color="#8a3f1e" stop-opacity="0"/></linearGradient><linearGradient id="O"><stop offset="0" stop-color="#e1e1e1"/><stop offset="1" stop-color="#fff"/></linearGradient><radialGradient id="P" gradientUnits="userSpaceOnUse" cy="9.81" cx="-514.13" gradientTransform="translate(338.17 67.963) scale(.5424)" r="145.95"><stop offset="0" stop-color="#ed8347"/><stop offset="1" stop-color="#e85913"/></radialGradient><linearGradient id="Q"><stop offset="0" stop-color="#de4814"/><stop offset="1" stop-color="#ff6000"/></linearGradient><linearGradient id="T"><stop offset="0" stop-color="#787878"/><stop offset=".35" stop-color="#bebebe"/><stop offset=".494" stop-color="#c8c8c8"/><stop offset=".589" stop-color="#e6e6e6"/><stop offset="1" stop-color="#8c8c8c"/></linearGradient><linearGradient id="U"><stop offset="0" stop-color="#464646"/><stop offset=".35" stop-color="#8c8c8c"/><stop offset=".51" stop-color="#969696"/><stop offset=".62" stop-color="#aaa"/><stop offset="1" stop-color="#646464"/></linearGradient></defs><path d="M11 10h51v39l-8 8H3V17z" fill-opacity=".084" stroke-width=".236" stroke-linecap="round" stroke-linejoin="round"/><path d="M12 11h49v37l-8 8H4V18z" fill="#26d03a" stroke-width=".236" stroke-linecap="round" stroke-linejoin="round"/><path d="M25.611 20.94c-7.477 0-9.747 4.472-9.747 12.474 0 8.106 2.235 12.23 9.747 12.23.769 0 1.679-.07 2.133-.21l3.108 5.1 3.6-1.676-2.934-4.716c2.795-1.852 3.808-5.312 3.808-10.728 0-8.037-2.237-12.474-9.715-12.474zm14.58 1.781v5.067h-2.236v3.25h2.237v8.107c0 5.031 1.223 6.498 5.171 6.498 1.223 0 3.564-.454 3.564-.454l-.175-3.04s-1.887.106-2.865.106c-1.817 0-1.921-.91-1.921-3.53v-7.686h4.821v-3.25h-4.821V22.72h-3.774zm-14.58 1.607c4.612 0 5.697 3.146 5.697 9.086 0 6.114-1.05 8.84-5.697 8.84s-5.73-2.83-5.73-8.84c0-5.94 1.118-9.086 5.73-9.086z" style="line-height:125%;-inkscape-font-specification:'Titillium Semi-Bold'" font-weight="600" font-family="Titillium" letter-spacing="0" word-spacing="0" fill-opacity=".253" stroke-width=".118"/><path style="line-height:125%;-inkscape-font-specification:'Titillium Semi-Bold'" d="M25.611 19.94c-7.477 0-9.747 4.472-9.747 12.474 0 8.106 2.235 12.23 9.747 12.23.769 0 1.679-.07 2.133-.21l3.108 5.1 3.6-1.676-2.934-4.716c2.795-1.852 3.808-5.312 3.808-10.728 0-8.037-2.237-12.474-9.715-12.474zm14.58 1.781v5.067h-2.236v3.25h2.237v8.107c0 5.031 1.223 6.498 5.171 6.498 1.223 0 3.564-.454 3.564-.454l-.175-3.04s-1.887.106-2.865.106c-1.817 0-1.921-.91-1.921-3.53v-7.686h4.821v-3.25h-4.821V21.72h-3.774zm-14.58 1.607c4.612 0 5.697 3.146 5.697 9.086 0 6.114-1.05 8.84-5.697 8.84s-5.73-2.83-5.73-8.84c0-5.94 1.118-9.086 5.73-9.086z" font-weight="600" font-family="Titillium" letter-spacing="0" word-spacing="0" fill="#fff" stroke-width=".118"/><path d="M61 47l-8 8H4v1h49l8-8z" fill="#f3ff56" fill-opacity=".184" stroke-width=".236" stroke-linecap="round" stroke-linejoin="round"/><path d="M61.894 19.768A14.154 14.154 0 0 1 47.74 33.922a14.154 14.154 0 0 1-14.154-14.154A14.154 14.154 0 0 1 47.74 5.614a14.154 14.154 0 0 1 14.154 14.154z" fill-opacity=".184" stroke-width=".118"/><path d="M61.894 18.768A14.154 14.154 0 0 1 47.74 32.922a14.154 14.154 0 0 1-14.154-14.154A14.154 14.154 0 0 1 47.74 4.614a14.154 14.154 0 0 1 14.154 14.154z" fill="#ef2e8f" stroke-width=".118"/><path d="M41.131 23.957v3.95h3.95l8.87-8.868L50 15.089zm16.314-8.4a1.047 1.047 0 0 0 0-1.494l-2.47-2.469a1.047 1.047 0 0 0-1.493 0l-2.064 2.077 3.95 3.95z" fill-opacity=".226" stroke-width=".139"/><path d="M41.131 22.957v3.95h3.95l8.87-8.868L50 14.089zm16.314-8.4a1.047 1.047 0 0 0 0-1.494l-2.47-2.469a1.047 1.047 0 0 0-1.493 0l-2.064 2.077 3.95 3.95z" fill="#fff" stroke-width=".139"/><text y="39.752" x="6.678" style="line-height:1000%;-inkscape-font-specification:Raleway" font-weight="400" font-size="16" font-family="Raleway" letter-spacing="0" word-spacing="0" opacity=".236" fill="#151515" stroke="#000" transform="translate(0 12.8)"><tspan y="39.752" x="6.678">4</tspan></text><text style="line-height:1000%;-inkscape-font-specification:Raleway" x="6.678" y="38.752" font-weight="400" font-size="16" font-family="Raleway" letter-spacing="0" word-spacing="0" fill="#fff" stroke="#fff" transform="translate(0 12.8)"><tspan x="6.678" y="38.752">4</tspan></text></svg>