<svg xmlns="http://www.w3.org/2000/svg" xmlns:xlink="http://www.w3.org/1999/xlink" width="1024" height="1024" viewBox="0 0 270.93333 270.93334"><defs><linearGradient id="c"><stop offset="0" stop-color="#fff"/><stop offset="1" stop-color="#c7d0fe" stop-opacity=".976"/></linearGradient><linearGradient id="d"><stop offset="0" stop-color="#fff"/><stop offset="1" stop-color="#fff"/></linearGradient><filter id="i" x="-.012" width="1.023" y="-.012" height="1.025" color-interpolation-filters="sRGB"><feGaussianBlur stdDeviation="1.136"/></filter><linearGradient id="a"><stop offset="0" stop-color="#8c9eff"/><stop offset="1" stop-color="#7289da"/></linearGradient><linearGradient gradientTransform="matrix(.26458 0 0 .26458 -243.417 -85.058)" xlink:href="#a" id="e" x1="568.019" y1="141.936" x2="837.191" y2="1146.498" gradientUnits="userSpaceOnUse"/><linearGradient gradientTransform="matrix(.26458 0 0 .26458 -31.75 -69.183)" xlink:href="#a" id="f" x1="500" y1="24" x2="500" y2="1004" gradientUnits="userSpaceOnUse"/><filter id="g" color-interpolation-filters="sRGB"><feFlood flood-opacity=".498" flood-color="#000" result="flood"/><feComposite in="flood" in2="SourceGraphic" operator="out" result="composite1"/><feGaussianBlur in="composite1" stdDeviation="3" result="blur"/><feOffset dy="3" result="offset"/><feComposite in="offset" in2="SourceGraphic" operator="in" result="composite2"/></filter><linearGradient xlink:href="#b" id="h" x1="540.143" y1="29.77" x2="540.143" y2="652.934" gradientUnits="userSpaceOnUse" gradientTransform="translate(-31.062 -75.962) scale(.26324)"/><linearGradient id="b"><stop offset="0" stop-color="#fff" stop-opacity=".588"/><stop offset="1" stop-color="#fff" stop-opacity="0"/></linearGradient><linearGradient xlink:href="#c" id="j" gradientUnits="userSpaceOnUse" gradientTransform="matrix(.91429 0 0 .91429 11.611 8.554)" x1="137.583" y1="90.625" x2="137.583" y2="233.5"/><linearGradient xlink:href="#d" id="l" x1="137.583" y1="95.917" x2="137.583" y2="217.625" gradientUnits="userSpaceOnUse" gradientTransform="translate(301.182 13.134)"/><filter id="m" color-interpolation-filters="sRGB"><feFlood flood-opacity=".294" flood-color="#000" result="flood"/><feComposite in="flood" in2="SourceGraphic" operator="in" result="composite1"/><feGaussianBlur in="composite1" stdDeviation="3" result="blur"/><feOffset dy="2" result="offset"/><feComposite in="offset" in2="SourceGraphic" operator="out" result="composite2"/></filter><linearGradient xlink:href="#d" id="n" gradientUnits="userSpaceOnUse" x1="137.583" y1="95.917" x2="137.583" y2="217.625" gradientTransform="translate(301.182 13.134)"/><filter id="k" color-interpolation-filters="sRGB"><feFlood flood-opacity=".196" flood-color="#000" result="flood"/><feComposite in="flood" in2="SourceGraphic" operator="in" result="composite1"/><feGaussianBlur in="composite1" stdDeviation="3" result="blur"/><feOffset dy="2" result="offset"/><feComposite in="offset" in2="SourceGraphic" operator="out" result="composite2"/></filter></defs><g transform="translate(0 -26.067)"><g transform="translate(31.75 95.25)"><path d="M15.875 175.292l-50.08-13.42-50.082-13.419 36.662-36.661 36.662-36.662 13.419 50.08z" transform="rotate(15 124.354 999.273)" fill="url(#e)" fill-rule="evenodd" stroke-width="3" stroke-linejoin="round" stroke-opacity="0" paint-order="stroke fill markers"/><circle r="129.646" cy="66.283" cx="103.717" fill="url(#f)" fill-rule="evenodd" stroke-width="7" stroke-linejoin="round" stroke-opacity="0" paint-order="stroke fill markers"/><circle r="115" cy="66.283" cx="103.717" opacity=".1" fill-rule="evenodd" stroke-width="6.209" stroke-linejoin="round" stroke-opacity="0" paint-order="stroke fill markers"/><circle cx="103.717" cy="66.283" r="105.833" opacity=".2" fill-rule="evenodd" stroke-width="5.714" stroke-linejoin="round" stroke-opacity="0" paint-order="stroke fill markers"/><g transform="matrix(.26458 0 0 .26458 -.533 -107.81)" fill="none"><circle cx="512" cy="540.362" r="175" stroke-width="50" stroke-linecap="square" paint-order="stroke markers fill"/><circle r="125" cy="825.612" cx="226.028" stroke-width="35.714" stroke-linecap="square" paint-order="stroke markers fill"/><path d="M360 452.362l-235 300 180 170 315-245z"/></g><circle transform="matrix(.26458 0 0 .26458 -25.93 -63.363)" r="400" cy="490" cx="490" opacity=".2" fill-rule="evenodd" stroke-width="21.597" stroke-linejoin="round" stroke-opacity="0" paint-order="stroke fill markers" filter="url(#g)"/><circle style="marker:none" cx="103.717" cy="66.283" r="128.988" color="#000" overflow="visible" fill="none" stroke="url(#h)" stroke-width="1.316" enable-background="accumulate"/></g><rect width="235.957" height="218.391" x="17.488" y="52.338" rx="11.296" transform="matrix(.9864 0 0 .9864 1020.003 1.957)" opacity=".2" fill="none" fill-rule="evenodd" stroke="#fff" stroke-width="3" stroke-linejoin="round" paint-order="stroke fill markers" filter="url(#i)"/><path d="M193.649 112.605s-16.677-13.054-36.364-14.545l-1.775 3.552c17.797 4.36 25.964 10.593 34.502 18.266-14.716-7.513-29.236-14.546-54.545-14.546-25.31 0-39.83 7.033-54.546 14.546 8.538-7.673 18.255-14.604 34.502-18.266l-1.774-3.552c-20.655 1.945-36.364 14.545-36.364 14.545s-18.622 27.004-21.818 80c18.763 21.648 47.272 21.818 47.272 21.818l5.964-7.941c-10.124-3.52-21.542-9.8-31.418-21.15 11.774 8.91 29.545 18.182 58.182 18.182 28.636 0 46.407-9.272 58.181-18.181-9.872 11.349-21.29 17.629-31.418 21.149l5.964 7.941s28.51-.17 47.273-21.818c-3.197-52.996-21.818-80-21.818-80zM111.83 178.06c-7.032 0-12.727-6.51-12.727-14.546s5.695-14.545 12.727-14.545c7.033 0 12.728 6.509 12.728 14.545 0 8.037-5.695 14.546-12.728 14.546zm47.273 0c-7.033 0-12.727-6.51-12.727-14.546s5.694-14.545 12.727-14.545 12.727 6.509 12.727 14.545c0 8.037-5.694 14.546-12.727 14.546z" fill="url(#j)" stroke-width="2.743" paint-order="stroke fill markers" filter="url(#k)"/><path d="M193.649 112.605s-16.677-13.054-36.364-14.545l-1.775 3.552c17.797 4.36 25.964 10.593 34.502 18.266-14.716-7.513-29.236-14.546-54.545-14.546-25.31 0-39.83 7.033-54.546 14.546 8.538-7.673 18.255-14.604 34.502-18.266l-1.774-3.552c-20.655 1.945-36.364 14.545-36.364 14.545s-18.622 27.004-21.818 80c18.763 21.648 47.272 21.818 47.272 21.818l5.964-7.941c-10.124-3.52-21.542-9.8-31.418-21.15 11.774 8.91 29.545 18.182 58.182 18.182 28.636 0 46.407-9.272 58.181-18.181-9.872 11.349-21.29 17.629-31.418 21.149l5.964 7.941s28.51-.17 47.273-21.818c-3.197-52.996-21.818-80-21.818-80zM111.83 178.06c-7.032 0-12.727-6.51-12.727-14.546s5.695-14.545 12.727-14.545c7.033 0 12.728 6.509 12.728 14.545 0 8.037-5.695 14.546-12.728 14.546zm47.273 0c-7.033 0-12.727-6.51-12.727-14.546s5.694-14.545 12.727-14.545 12.727 6.509 12.727 14.545c0 8.037-5.694 14.546-12.727 14.546z" fill="url(#j)" stroke-width="2.743" paint-order="stroke fill markers"/><path d="M413.708 108.362s-21.973 1.511-36.343 13.048a1.608 1.608 0 0 0-.218.107c-2.492 2.305-4.362 5.884-6.685 11.002-2.32 5.121-4.773 11.716-7.009 19.087-4.466 14.767-8.09 32.885-8.09 49.933a3.351 3.351 0 0 0 .432 1.726c5.039 8.855 14.315 14.208 22.97 17.58 8.656 3.368 16.648 4.717 20.707 4.852a3.46 3.46 0 0 0 2.912-1.401l8.414-11.648c6.778 1.605 14.732 2.696 23.94 2.696 9.207 0 17.162-1.09 23.943-2.696l8.41 11.648a3.466 3.466 0 0 0 2.913 1.4c4.058-.138 12.05-1.483 20.706-4.852 8.655-3.371 17.928-8.724 22.97-17.579a3.351 3.351 0 0 0 .432-1.725c0-17.052-3.624-35.17-8.09-49.934-2.236-7.37-4.693-13.966-7.008-19.087-2.32-5.122-4.193-8.697-6.689-11.002a1.608 1.608 0 0 0-.214-.103c-14.37-11.548-36.342-13.052-36.342-13.052a3.534 3.534 0 0 0-.755 0 3.451 3.451 0 0 0-2.696 2.05s-1.174 2.574-1.943 6.253c-6.726-1.077-12.389-1.401-15.636-1.401-3.248 0-8.91.324-15.637 1.4-.77-3.678-1.943-6.253-1.943-6.253a3.458 3.458 0 0 0-3.45-2.05zm-2.157 7.44c.255.7.431 1.363.65 2.157-7.78 1.808-16.3 4.762-24.269 9.708a3.465 3.465 0 0 0-2.115 3.099 3.494 3.494 0 0 0 1.957 3.195 3.468 3.468 0 0 0 3.72-.472c15.988-9.905 36.329-11.323 43.245-11.323 6.916 0 27.256 1.415 43.245 11.323a3.468 3.468 0 0 0 3.72.472 3.492 3.492 0 0 0 1.957-3.195 3.465 3.465 0 0 0-2.12-3.1c-7.964-4.948-16.485-7.902-24.26-9.707.214-.794.39-1.456.646-2.157 3.934.483 19.236 2.55 29.654 10.784.677.622 3.023 4.073 5.177 8.845 2.16 4.773 4.424 10.985 6.581 18.118 4.203 13.912 7.602 31.074 7.765 46.803-3.924 6.35-11.285 11.068-18.874 14.022-6.902 2.681-13.345 3.882-16.717 4.203l-5.822-7.868a85.758 85.758 0 0 0 7.979-3.023c8.71-3.83 13.373-7.872 13.373-7.872a3.475 3.475 0 0 0-4.635-5.177s-3.613 3.303-11.54 6.795c-2.913 1.277-6.443 2.547-10.464 3.665a3.474 3.474 0 0 0-2.588.756c-6.43 1.563-14.073 2.588-23.077 2.588-9.073 0-16.73-1.118-23.188-2.695a3.437 3.437 0 0 0-2.477-.542 77.931 77.931 0 0 1-10.464-3.772c-7.927-3.492-11.54-6.795-11.54-6.795a3.437 3.437 0 0 0-2.91-.862 3.448 3.448 0 1 0-1.725 6.04s4.663 4.044 13.373 7.871a85.43 85.43 0 0 0 7.979 3.02l-5.822 7.875c-3.372-.324-9.815-1.525-16.717-4.21-7.592-2.95-14.95-7.668-18.874-14.018.162-15.73 3.562-32.892 7.765-46.803 2.157-7.133 4.424-13.345 6.581-18.118 2.154-4.773 4.5-8.224 5.177-8.845 10.418-8.234 25.72-10.298 29.654-10.784zm.756 40.874c-8.8 0-15.53 7.993-15.53 17.255 0 9.263 6.73 17.255 15.53 17.255 8.8 0 15.53-7.992 15.53-17.255 0-9.262-6.73-17.255-15.53-17.255zm44.863 0c-8.8 0-15.53 7.993-15.53 17.255 0 9.263 6.73 17.255 15.53 17.255 8.8 0 15.53-7.992 15.53-17.255 0-9.262-6.73-17.255-15.53-17.255zm-44.863 6.902c4.542 0 8.628 4.37 8.628 10.353 0 5.984-4.086 10.353-8.628 10.353-4.541 0-8.628-4.369-8.628-10.353s4.087-10.353 8.628-10.353zm44.863 0c4.542 0 8.628 4.37 8.628 10.353 0 5.984-4.086 10.353-8.628 10.353-4.541 0-8.627-4.369-8.627-10.353s4.086-10.353 8.627-10.353z" opacity=".95" fill="url(#l)" stroke-width="3.451" filter="url(#m)"/><path d="M413.708 108.362s-21.973 1.511-36.343 13.048a1.608 1.608 0 0 0-.218.107c-2.492 2.305-4.362 5.884-6.685 11.002-2.32 5.121-4.773 11.716-7.009 19.087-4.466 14.767-8.09 32.885-8.09 49.933a3.351 3.351 0 0 0 .432 1.726c5.039 8.855 14.315 14.208 22.97 17.58 8.656 3.368 16.648 4.717 20.707 4.852a3.46 3.46 0 0 0 2.912-1.401l8.414-11.648c6.778 1.605 14.732 2.696 23.94 2.696 9.207 0 17.162-1.09 23.943-2.696l8.41 11.648a3.466 3.466 0 0 0 2.913 1.4c4.058-.138 12.05-1.483 20.706-4.852 8.655-3.371 17.928-8.724 22.97-17.579a3.351 3.351 0 0 0 .432-1.725c0-17.052-3.624-35.17-8.09-49.934-2.236-7.37-4.693-13.966-7.008-19.087-2.32-5.122-4.193-8.697-6.689-11.002a1.608 1.608 0 0 0-.214-.103c-14.37-11.548-36.342-13.052-36.342-13.052a3.534 3.534 0 0 0-.755 0 3.451 3.451 0 0 0-2.696 2.05s-1.174 2.574-1.943 6.253c-6.726-1.077-12.389-1.401-15.636-1.401-3.248 0-8.91.324-15.637 1.4-.77-3.678-1.943-6.253-1.943-6.253a3.458 3.458 0 0 0-3.45-2.05zm-2.157 7.44c.255.7.431 1.363.65 2.157-7.78 1.808-16.3 4.762-24.269 9.708a3.465 3.465 0 0 0-2.115 3.099 3.494 3.494 0 0 0 1.957 3.195 3.468 3.468 0 0 0 3.72-.472c15.988-9.905 36.329-11.323 43.245-11.323 6.916 0 27.256 1.415 43.245 11.323a3.468 3.468 0 0 0 3.72.472 3.492 3.492 0 0 0 1.957-3.195 3.465 3.465 0 0 0-2.12-3.1c-7.964-4.948-16.485-7.902-24.26-9.707.214-.794.39-1.456.646-2.157 3.934.483 19.236 2.55 29.654 10.784.677.622 3.023 4.073 5.177 8.845 2.16 4.773 4.424 10.985 6.581 18.118 4.203 13.912 7.602 31.074 7.765 46.803-3.924 6.35-11.285 11.068-18.874 14.022-6.902 2.681-13.345 3.882-16.717 4.203l-5.822-7.868a85.758 85.758 0 0 0 7.979-3.023c8.71-3.83 13.373-7.872 13.373-7.872a3.475 3.475 0 0 0-4.635-5.177s-3.613 3.303-11.54 6.795c-2.913 1.277-6.443 2.547-10.464 3.665a3.474 3.474 0 0 0-2.588.756c-6.43 1.563-14.073 2.588-23.077 2.588-9.073 0-16.73-1.118-23.188-2.695a3.437 3.437 0 0 0-2.477-.542 77.931 77.931 0 0 1-10.464-3.772c-7.927-3.492-11.54-6.795-11.54-6.795a3.437 3.437 0 0 0-2.91-.862 3.448 3.448 0 1 0-1.725 6.04s4.663 4.044 13.373 7.871a85.43 85.43 0 0 0 7.979 3.02l-5.822 7.875c-3.372-.324-9.815-1.525-16.717-4.21-7.592-2.95-14.95-7.668-18.874-14.018.162-15.73 3.562-32.892 7.765-46.803 2.157-7.133 4.424-13.345 6.581-18.118 2.154-4.773 4.5-8.224 5.177-8.845 10.418-8.234 25.72-10.298 29.654-10.784zm.756 40.874c-8.8 0-15.53 7.993-15.53 17.255 0 9.263 6.73 17.255 15.53 17.255 8.8 0 15.53-7.992 15.53-17.255 0-9.262-6.73-17.255-15.53-17.255zm44.863 0c-8.8 0-15.53 7.993-15.53 17.255 0 9.263 6.73 17.255 15.53 17.255 8.8 0 15.53-7.992 15.53-17.255 0-9.262-6.73-17.255-15.53-17.255zm-44.863 6.902c4.542 0 8.628 4.37 8.628 10.353 0 5.984-4.086 10.353-8.628 10.353-4.541 0-8.628-4.369-8.628-10.353s4.087-10.353 8.628-10.353zm44.863 0c4.542 0 8.628 4.37 8.628 10.353 0 5.984-4.086 10.353-8.628 10.353-4.541 0-8.627-4.369-8.627-10.353s4.086-10.353 8.627-10.353z" opacity=".95" fill="url(#n)" stroke-width="3.451"/></g></svg>