<svg xmlns="http://www.w3.org/2000/svg" xmlns:xlink="http://www.w3.org/1999/xlink" height="48" viewBox="0 0 48 48" width="48"><defs><linearGradient id="l"><stop offset="0" stop-color="#8dd4d4"/><stop offset="1" stop-color="#0b6b85"/></linearGradient><linearGradient id="k"><stop offset="0" stop-color="#c21007"/><stop offset="1" stop-color="#f91c09"/></linearGradient><linearGradient id="j"><stop offset="0" stop-color="#d51418"/><stop offset="1" stop-color="#ff5341"/></linearGradient><linearGradient id="i"><stop offset="0" stop-color="#090909"/><stop offset="1" stop-color="#5b5b5b"/></linearGradient><linearGradient id="h"><stop offset="0" stop-color="#ff2937"/><stop offset=".508" stop-color="#b60009"/><stop offset="1" stop-color="#fa3e39"/></linearGradient><linearGradient id="g"><stop offset="0" stop-color="#e6e5e0"/><stop offset=".175" stop-color="#e9e6e0"/><stop offset=".475" stop-color="#6b5c53"/><stop offset=".566" stop-color="#7e7168"/><stop offset=".816" stop-color="#faf5e6"/><stop offset="1" stop-color="#a49594"/></linearGradient><linearGradient id="f"><stop offset="0" stop-color="#ef302e"/><stop offset=".158" stop-color="#ee2d2d"/><stop offset=".495" stop-color="#b10219"/><stop offset=".729" stop-color="#e82829"/><stop offset=".835" stop-color="#fe4c46"/><stop offset="1" stop-color="#e52530"/></linearGradient><linearGradient id="e"><stop offset="0"/><stop offset="1" stop-opacity="0"/></linearGradient><linearGradient id="d"><stop offset="0" stop-color="#176875"/><stop offset="1" stop-color="#186a77"/></linearGradient><linearGradient id="b"><stop offset="0" stop-color="#b6b6b6"/><stop offset=".482" stop-color="#fff"/><stop offset="1" stop-color="#cfcfcf"/></linearGradient><linearGradient id="a"><stop offset="0" stop-color="#165dc2"/><stop offset="1" stop-color="#1680c2"/></linearGradient><linearGradient id="c"><stop offset="0" stop-color="#d0611f"/><stop offset="1" stop-color="#f77a2c"/></linearGradient><linearGradient xlink:href="#f" id="t" x1="33.6" y1="24.32" x2="23.333" y2="14.573" gradientUnits="userSpaceOnUse" gradientTransform="matrix(1.10502 0 0 1.10502 -.72 -3.705)"/><filter id="x" x="-.109" width="1.218" y="-.167" height="1.335" color-interpolation-filters="sRGB"><feGaussianBlur stdDeviation=".068"/></filter><filter id="r" x="-.036" width="1.071" y="-.036" height="1.073" color-interpolation-filters="sRGB"><feGaussianBlur stdDeviation=".092"/></filter><filter id="p" x="-.024" width="1.048" y="-.024" height="1.048" color-interpolation-filters="sRGB"><feGaussianBlur stdDeviation=".137"/></filter><linearGradient xlink:href="#g" id="u" x1="26.12" y1="29.982" x2="17.722" y2="21.881" gradientUnits="userSpaceOnUse" gradientTransform="matrix(1.10502 0 0 1.10502 -.72 -3.705)"/><linearGradient xlink:href="#h" id="v" x1="19.844" y1="29.063" x2="18.375" y2="27.563" gradientUnits="userSpaceOnUse" gradientTransform="matrix(1.32356 0 0 1.32356 -5.065 -9.673)"/><linearGradient xlink:href="#i" id="s" x1="17.781" y1="29.438" x2="16.563" y2="30.813" gradientUnits="userSpaceOnUse" gradientTransform="matrix(1.10502 0 0 1.10502 -.72 -3.705)"/><filter id="y" x="-.11" width="1.22" y="-.164" height="1.327" color-interpolation-filters="sRGB"><feGaussianBlur stdDeviation=".068"/></filter><linearGradient xlink:href="#j" id="q" x1="16.25" y1="23.938" x2="10.75" y2="22.313" gradientUnits="userSpaceOnUse" gradientTransform="matrix(1.10502 0 0 1.10502 -.72 -3.705)"/><linearGradient xlink:href="#k" id="o" gradientUnits="userSpaceOnUse" x1="16.25" y1="23.938" x2="10.75" y2="22.313" gradientTransform="scale(1.10502 -1.10502) rotate(81.632 49.117 2.225)"/><linearGradient xlink:href="#l" id="n" x1="24.484" y1="44.73" x2="24.13" y2="2.038" gradientUnits="userSpaceOnUse"/><filter id="w" x="-.117" width="1.234" y="-.183" height="1.365" color-interpolation-filters="sRGB"><feGaussianBlur stdDeviation=".075"/></filter><filter id="m" x="-.012" width="1.024" y="-.012" height="1.024" color-interpolation-filters="sRGB"><feGaussianBlur stdDeviation=".225"/></filter></defs><circle r="22.5" cy="24" cx="24" style="isolation:auto;mix-blend-mode:normal;marker:none" color="#000" overflow="visible" fill-opacity=".157" stroke-width=".5" stroke-opacity=".702" enable-background="accumulate" filter="url(#m)"/><circle style="isolation:auto;mix-blend-mode:normal;marker:none" cx="24" cy="24" r="22" color="#000" overflow="visible" fill="url(#n)" stroke-width=".5" stroke-opacity=".702" enable-background="accumulate"/><path d="M21.03 33.471a15.026 15.026 0 0 0-2.707-3.83 15.032 15.032 0 0 0-3.753-2.813c1.695-4.678 3.106-10.144 7.627-14.546C29.38 5.291 36.554 5.257 42.96 5.74c.306 6.42-.269 12.87-7.45 19.862-4.654 4.632-9.496 6.196-14.48 7.87z" fill="#090909" fill-opacity=".157"/><path fill="none" d="M28.345 35.163h25.713v25.713H28.345z"/><path d="M22.927 28.653c.214 5.332.122 6.215-.983 11.608 1.505-.443 4.98-3.03 6.306-4.044 5.412-4.551 4.352-8.08 2.195-13.312l-7.518 5.748" fill="url(#o)"/><path d="M5.04 42.43c2.904-13.14 9.861-13.665 9.861-13.665l1.902 1.902.018.018 1.902 1.902s-.299 6.731-13.44 9.635l-.028.03.005-.024-.023.005-.197.197" transform="matrix(1.10502 0 0 1.10502 -.72 -3.705)" fill="#ffc37f" filter="url(#p)"/><path d="M6.902 41.13c2.773-12.549 9.417-13.05 9.417-13.05l1.816 1.817.017.017 1.817 1.816s-.286 6.429-12.835 9.202l-.028.028.005-.023-.022.006-.187.187" fill="#ffdfaa"/><path d="M9.01 38.935c2.397-11.185 7.682-9.805 7.682-9.805l1.186 1.186.011.012s1.22.688 1.186 1.185c-.43 6.17-10.066 7.422-10.066 7.422" fill="#ffefb1"/><path d="M18.211 25.239c-5.243-.987-6.13-1.024-11.627-.716.658-1.425 3.723-4.487 4.919-5.651 5.29-4.692 8.627-3.13 13.489-.234l-6.78 6.601" fill="url(#q)"/><path d="M11.694 35.76c1.481-6.913 4.748-6.06 4.748-6.06l.733.733.007.007s.754.425.733.733c-.266 3.812-6.221 4.587-6.221 4.587" transform="matrix(1.10502 0 0 1.10502 -.72 -3.705)" fill="#fff" fill-opacity=".88" filter="url(#r)"/><path d="M19.81 32.993s-.31-1.654-1.578-3.033c-1.339-1.455-3.03-1.755-3.03-1.755l.585-1.92 6.681 6.1" fill="url(#s)"/><path d="M21.661 32.86a14.595 14.595 0 0 0-2.629-3.722 14.6 14.6 0 0 0-3.646-2.732c1.647-4.543 3.276-9.19 7.667-13.465 6.975-6.791 12.67-7.53 19.335-6.4.915 4.513-2.824 14.715-8.347 19.598-3.502 3.095-12.38 6.72-12.38 6.72z" fill="url(#t)"/><path d="M27.69 30.075s-4.89-5.906-9.92-9.678l.956-1.918s8.817 6.879 10.963 10.598" fill="url(#u)"/><path d="M21.6 28.192c-2.198 2.14-4.464 3.619-5.928 3.984.404-1.455 1.944-3.68 4.142-5.82 2.198-2.14 4.464-3.62 5.928-3.985-.404 1.455-1.944 3.681-4.142 5.82" fill="url(#v)" stroke="#000" stroke-width=".265" stroke-opacity=".178"/><ellipse style="isolation:auto;mix-blend-mode:normal;marker:none" cx="37.712" cy="9.496" rx=".754" ry=".49" transform="matrix(1.58063 .04462 .12376 .61187 -19.818 -.727)" color="#000" overflow="visible" fill="#f5c1c6" fill-opacity=".754" stroke-linecap="square" filter="url(#w)" enable-background="accumulate"/><ellipse transform="matrix(1.41569 -.99647 .3539 .58327 -26.75 43.2)" ry=".49" rx=".754" cy="9.496" cx="37.712" style="isolation:auto;mix-blend-mode:normal;marker:none" color="#000" overflow="visible" fill="#ebec94" fill-opacity=".738" stroke-linecap="square" filter="url(#x)" enable-background="accumulate"/><ellipse style="isolation:auto;mix-blend-mode:normal;marker:none" cx="37.712" cy="9.496" rx=".754" ry=".49" transform="matrix(.5814 -.4638 .1668 .241 4.51 27.904)" color="#000" overflow="visible" fill="#f3f4c0" fill-opacity=".67" stroke-linecap="square" filter="url(#x)" enable-background="accumulate"/><ellipse transform="matrix(.77283 -.14768 .1271 .90404 -12.966 25.662)" ry=".49" rx=".754" cy="9.496" cx="37.712" style="isolation:auto;mix-blend-mode:normal;marker:none" color="#000" overflow="visible" fill="#fff" fill-opacity=".414" stroke-linecap="square" filter="url(#y)" enable-background="accumulate"/><ellipse style="isolation:auto;mix-blend-mode:normal;marker:none" cx="37.712" cy="9.496" rx=".754" ry=".49" transform="matrix(.39247 -.075 .06454 .4591 1.973 27.146)" color="#000" overflow="visible" fill="#fff" fill-opacity=".754" stroke-linecap="square" filter="url(#y)" enable-background="accumulate"/><ellipse style="isolation:auto;mix-blend-mode:normal;marker:none" cx="37.712" cy="9.496" rx=".754" ry=".49" transform="matrix(1.8234 -1.27668 .45584 .7473 -41.568 66.493)" color="#000" overflow="visible" fill="#ebec94" fill-opacity=".738" stroke-linecap="square" filter="url(#x)" enable-background="accumulate"/><ellipse transform="matrix(.5814 -.4638 .1668 .241 6.476 41.82)" ry=".49" rx=".754" cy="9.496" cx="37.712" style="isolation:auto;mix-blend-mode:normal;marker:none" color="#000" overflow="visible" fill="#f3f4c0" fill-opacity=".67" stroke-linecap="square" filter="url(#x)" enable-background="accumulate"/></svg>