<svg xmlns="http://www.w3.org/2000/svg" xmlns:xlink="http://www.w3.org/1999/xlink" width="170.667" height="170.667" viewBox="0 0 170.66667 170.66667"><defs><linearGradient id="e"><stop offset="0" stop-color="#68ff7a"/><stop offset=".695" stop-color="#0fe1ff" stop-opacity=".536"/><stop offset="1" stop-color="#0ffff0" stop-opacity="0"/></linearGradient><linearGradient id="d"><stop offset="0" stop-color="#7507eb"/><stop offset="1" stop-color="#7507eb" stop-opacity="0"/></linearGradient><linearGradient id="c"><stop offset="0" stop-color="#eaebf2"/><stop offset=".222" stop-color="#f5f5f8"/><stop offset=".757" stop-color="#cbcdd5"/><stop offset=".897" stop-color="#e2e3e7"/><stop offset="1" stop-color="#b9bbc5"/></linearGradient><linearGradient id="b"><stop offset="0" stop-color="#0d0f13"/><stop offset=".119" stop-color="#2c2f33"/><stop offset=".239" stop-color="#4f5458"/><stop offset=".413" stop-color="#131924"/><stop offset=".776" stop-color="#0d1013"/><stop offset=".91" stop-color="#868686" stop-opacity=".92"/><stop offset="1" stop-color="#2c2e33"/></linearGradient><linearGradient id="a"><stop offset="0" stop-color="#448eff"/><stop offset="1" stop-color="#5eacff"/></linearGradient><linearGradient xlink:href="#a" id="g" x1="102.271" y1="146.505" x2="89.998" y2="253.89" gradientUnits="userSpaceOnUse" gradientTransform="translate(-244.939 .511)"/><linearGradient xlink:href="#b" id="j" x1="-42.954" y1="110.327" x2="-30.426" y2="110.327" gradientUnits="userSpaceOnUse" gradientTransform="translate(-14.096 118.48)"/><linearGradient xlink:href="#c" id="k" x1="165.053" y1="35.245" x2="176.523" y2="39.464" gradientUnits="userSpaceOnUse" gradientTransform="rotate(.55 -10689.419 -28688.12)"/><linearGradient xlink:href="#a" id="f" gradientUnits="userSpaceOnUse" gradientTransform="rotate(-12.246 -29.567 1379.795)" x1="102.271" y1="146.505" x2="89.998" y2="253.89"/><linearGradient xlink:href="#d" id="h" gradientUnits="userSpaceOnUse" x1="227.342" y1="208.517" x2="33.52" y2="237.772"/><linearGradient xlink:href="#e" id="i" gradientUnits="userSpaceOnUse" x1="-94.011" y1="98.718" x2="-200.412" y2="138.092"/><linearGradient xlink:href="#d" id="l" gradientUnits="userSpaceOnUse" x1="227.342" y1="208.517" x2="33.52" y2="237.772" gradientTransform="translate(-240.336 -80.283)"/></defs><g transform="translate(241.537 -104.136)"><path d="M-234.514 152.723l5.796 112.29 157.646-19.828-23.438-111.6z" fill="url(#f)"/><path style="line-height:normal;font-variant-ligatures:normal;font-variant-position:normal;font-variant-caps:normal;font-variant-numeric:normal;font-variant-alternates:normal;font-feature-settings:normal;text-indent:0;text-align:start;text-decoration-line:none;text-decoration-style:solid;text-decoration-color:#000;text-transform:none;text-orientation:mixed;shape-padding:0;isolation:auto;mix-blend-mode:normal" d="M-228.458 155.485l.077 1.764c-.586.078-1.475.2-2.047.275.36.065 1.072.075 2.061.038l4.142 94.476-.893.258.9-.11.308 7.05-2.108.84 2.133-.263.063 1.411 1-.043c-.03-.341-.065-.992-.098-1.49a519550.716 519550.716 0 0 0 121.701-15.073c12.69-1.573 19.75-2.45 21.82-2.71.208 1.1.585 2.162 1.583 2.89l-.611-3.01 1.4-.174-.129-.992-1.47.184-1.361-6.702 2.401-.603-2.463.302-17.456-85.942c-.159-2.41-.433-4.59-1.139-6.646.676-.089 1.693-.227 2.348-.314-.392-.089-1.303-.09-2.48-.047a14.22 14.22 0 0 0-1.377-2.779l.565 2.825c-16.486.833-88.784 11.06-128.284 16.28-.193-1.07-.388-1.703-.586-1.695zm.649 2.04c15.184-.722 88.154-10.89 128.306-16.195l18.495 92.592-140.19 17.245-2.11.608c-1-23.988-2.608-82.65-4.501-94.25zm7.572 3.477c-.005-.024.046.347.094.819l.04.427-1.488.203.135.992 1.446-.196c.015.161.025.259.04.433.094 1.047.21 2.417.321 3.733l-2.995.447.147.99 2.933-.438.052.599c.197 2.347.265 3.208.382 4.641l-1.471.238.16.988 1.392-.224.157 1.899.996-.08-.162-1.978 30.685-4.945-.08-.493.49-.098-.37-1.852c.777.12 1.302.417 1.717.816.744.715 1.191 1.925 1.765 3.259.573 1.334 1.32 2.805 2.875 3.746 1.048.635 2.42.988 4.236.982.072.474.127.862.199 1.338.51 3.388.793 5.226 1.015 6.674l-.334.053.156.987.328-.053.19 1.25.988-.152-.19-1.254 30.87-4.926-.08-.494.496-.074-2.392-16.131-.493.073-.083-.491-30.82 5.136c-.016-.13-.053-.405-.055-.432l-.998.05c.005.097.043.372.065.547l-1.221.203.164.985 1.184-.197c.074.54.157 1.136.265 1.885.145 1 .343 2.315.524 3.528-1.479-.02-2.501-.325-3.237-.77-1.147-.695-1.73-1.788-2.274-3.054-.544-1.266-1-2.691-2.103-3.75-.725-.698-1.727-1.147-3.058-1.252l-1.413-7.092-.49.096-.068-.495-29.506 4.014-.037-.391c-.048-.479-.068-.731-.112-.931zm1.22 2.11l29.081-3.959 1.28 6.426c-.418.02-.855.059-1.33.14a.75.75 0 0 0-.075.015.75.75 0 0 0 .328 1.464c.52-.09.968-.133 1.372-.146l.318 1.594-30.098 4.848c-.117-1.438-.18-2.256-.374-4.566l-.058-.663 23.139-3.441-.147-.99-23.077 3.432c-.11-1.294-.223-2.644-.316-3.677l-.044-.478zm42.253 5.726l30.356-5.06 2.245 15.14-30.376 4.846c-.222-1.451-.504-3.283-1.014-6.667-.065-.436-.116-.79-.182-1.226.61-.043 1.255-.114 1.96-.233a.75.75 0 0 0 .28-.101 1.539 1.636 77.754 0 0-.077.868 1.539 1.636 77.754 0 0 1.925 1.153 1.539 1.636 77.754 0 0 1.27-1.85v-.005a1.539 1.636 77.754 0 0-1.929-1.152 1.539 1.636 77.754 0 0-.834.455.75.75 0 0 0-.884-.847c-.712.12-1.347.19-1.931.227-.188-1.257-.392-2.612-.54-3.642-.11-.76-.195-1.366-.269-1.907zm-11.927 11.346l.172 1.632-31.444 5.256.083.493-.495.078 2.995 19.166-1.567.208.133.99 1.588-.212.178 1.14.988-.154-.175-1.117 32.84-4.382-.132-.993-1.809.24-2.09-19.881 1.012-.17-.165-.987-.952.158-.165-1.569zm55.34-11.404l-.975.22.39 1.734-2.352.397.166.985 2.406-.406 5.216 23.185c-1.637.78-2.771 1.758-3.535 2.864-1.168 1.69-1.481 3.577-1.768 5.31-.286 1.732-.553 3.306-1.407 4.546-.854 1.24-2.31 2.265-5.313 2.834a.75.75 0 1 0 .28 1.472c3.25-.616 5.169-1.858 6.269-3.455 1.1-1.596 1.366-3.429 1.651-5.153.285-1.724.581-3.345 1.52-4.703.568-.822 1.386-1.579 2.64-2.221l3.748 16.662-1.423.213.147.99 1.496-.224.346 1.536.975-.22-.33-1.465c1.926-.286 6.841-1.014 13.888-2.073 4.155-.624 8.369-1.261 11.668-1.77 2.379-.365 3.393-.538 4.467-.719l.47 2.254.98-.204-.462-2.208c.118-.022.672-.104.74-.119l-.212-.977c-.047.01-.629.098-.732.117l-8.875-42.471-.49.102-.082-.493-31.105 5.248zm-85.96 19.196l30.897-5.164 2.088 19.851-30.063 4.013zm47.877-8.987a1.539 1.636 77.754 0 0-1.267 1.852 1.539 1.636 77.754 0 0 1.925 1.153 1.539 1.636 77.754 0 0 1.27-1.85v-.005a1.539 1.636 77.754 0 0-1.929-1.15zm38.705-7.446l30.577-5.157 8.766 41.954c-1.044.175-2.042.345-4.415.71-3.296.508-7.51 1.145-11.663 1.769-7.083 1.064-12.077 1.805-13.96 2.084l-3.81-16.94a15.876 15.876 0 0 1 2.002-.635 1.539 1.636 77.754 0 0 1.705.646 1.539 1.636 77.754 0 0 1.271-1.851v-.004a1.539 1.636 77.754 0 0-1.93-1.15 1.539 1.636 77.754 0 0-1.125.845.75.75 0 0 0-.151.021c-.774.19-1.467.413-2.104.659zm6.237 8.236a1.539 1.636 77.754 0 0-1.267 1.852 1.539 1.636 77.754 0 0 1.925 1.153 1.539 1.636 77.754 0 0 1.27-1.849l-.002-.006a1.539 1.636 77.754 0 0-1.926-1.15zm-47.39 25.181c-.003-.011.024.133.05.32.025.186.06.441.1.755l.066.526c-.286.047-.722.118-.963.159-.921.154-1.444.241-1.628.28l.212.978c.037-.008.663-.12 1.582-.273l.92-.154.122.987c.103.837.242 2.006.363 3.007l-.67.088.129.99.662-.085.182 1.497c-3.986 1.471-5.183 4.02-6.457 6.209-.996 1.71-2.078 3.282-4.866 4.463l-1.08-8.155.921-.138-.148-.99-.905.135-.183-1.38-.99.132.184 1.397-30.453 4.545-.078-1.272-.998.063.083 1.359-2.14.318.148.99 2.054-.306.28 4.59-2.192.397.178.985 2.075-.377.882 14.435-1.644.177.106.994 1.6-.171.165 2.716.999-.061-.169-2.764 32.171-3.465.226 1.704.991-.131-.223-1.68 1.48-.16-.108-.996-1.503.163-1.53-11.538c3.395-1.38 4.875-3.354 5.964-5.224 1.291-2.216 2.044-4.143 5.344-5.433l.03.248c.441 3.687.653 5.484.87 7.312l-1.558.238.153.988 1.522-.233.246 2.064.994-.116-.25-2.1 35.087-5.372-.15-.988-35.055 5.366c-.217-1.837-.426-3.608-.865-7.277l-.056-.46c.118-.036.21-.079.335-.114a.75.75 0 0 0-.36-1.455.75.75 0 0 0-.051.013l-.109.034-.158-1.307 28.39-3.714-.131-.99-28.378 3.712c-.12-.998-.26-2.163-.363-2.999l-.127-1.027 1.77-.295c2.99-.492 6.891-1.13 10.766-1.763 7.75-1.265 15.388-2.508 15.388-2.508l-.16-.987s-7.639 1.241-15.388 2.507c-3.875.633-7.778 1.273-10.768 1.765-.703.116-1.143.19-1.734.289l-.06-.489c-.04-.316-.075-.573-.102-.765-.026-.192-.04-.294-.061-.394zm-42.789 16.295l30.523-4.557 1.109 8.368c-.898.31-1.908.594-3.15.83a.75.75 0 1 0 .28 1.473c1.157-.219 2.17-.487 3.07-.792l1.495 11.29-32.1 3.46-.886-14.506 27.904-5.057-.177-.983-27.79 5.034zm48.175-7.846a1.539 1.636 77.754 0 0-1.267 1.852 1.539 1.636 77.754 0 0 1.925 1.153 1.539 1.636 77.754 0 0 1.27-1.851v-.004a1.539 1.636 77.754 0 0-1.929-1.15zm-54.802 38.666l138.924-16.867 3.449-.867.785 3.93c.365.701.459 1.662.585 2.648-2.038.256-9.114 1.136-21.787 2.707a517933.87 517933.87 0 0 1-51.115 6.333c-36.88 4.569-70.34 8.888-70.517 8.91a441.914 441.914 0 0 1-.324-6.794z" color="#000" font-weight="400" font-family="sans-serif" white-space="normal" overflow="visible" fill="#fff"/><path d="M-151.418 141.365l-67.416 9.215-11.998 73.451 1.377 26.662 67.098 5.973 89.6-11.268.052-7.984-19.193-91.396z" fill="#1a1a1a" fill-opacity=".327" stroke-width="1.026"/><path d="M-214.513 137.684l-18.153 110.964 158.264 14.062.767-114.032z" fill="url(#g)"/><path d="M-209.18 141.668l-.299 1.74c-.59-.048-1.484-.118-2.058-.166.337.14 1.031.301 2.005.475l-15.992 93.205-.928.063.903.084-1.194 6.955-2.238.373 2.14.195-.237 1.393.986.17c.042-.34.147-.984.22-1.477 2.906.264 35.288 3.206 70.835 6.432l51.294 4.652c12.735 1.154 19.82 1.795 21.899 1.98-.03 1.12.112 2.237.934 3.16l.04-3.072 1.407.127.084-.996-1.477-.133.092-6.838 2.475-.08-2.471-.226 1.17-87.69c.356-2.388.55-4.577.297-6.736.679.056 1.702.137 2.361.191-.364-.17-1.255-.364-2.414-.572a14.22 14.22 0 0 0-.756-3.008l-.047 2.881c-16.287-2.683-89.11-8.023-128.818-11.3.039-1.088-.018-1.748-.213-1.782zm.201 2.131c14.992 2.515 88.458 8.057 128.822 11.389l-1.566 94.408-140.658-12.883-2.192.147c4.113-23.655 14.984-81.322 15.594-93.061zm6.662 5.004c0-.024-.028.349-.082.82l-.05.426-1.499-.117-.078.998 1.455.115c-.02.161-.03.258-.052.432-.13 1.043-.309 2.407-.479 3.717l-3.021-.2-.067.998 2.96.196c-.029.213-.049.382-.077.595-.306 2.336-.421 3.192-.611 4.618l-1.489-.08-.052 1 1.408.076-.25 1.888.99.133.262-1.967 31.035 1.676.027-.498.5.008.032-1.889c.732.283 1.182.684 1.503 1.163.576.856.756 2.133 1.034 3.558.277 1.425.696 3.022 2.015 4.272.89.841 2.155 1.478 3.932 1.857l-.09 1.35c-.22 3.42-.333 5.275-.424 6.738l-.338-.02-.056.998.332.018-.08 1.262.998.06.08-1.265 31.213 1.734.027-.5.5.033 1.084-16.271-.498-.033.023-.498-31.209-1.518c.013-.13.035-.407.04-.434l-.987-.164c-.016.097-.036.374-.052.55l-1.237-.061-.049.998 1.2.058c-.042.544-.088 1.143-.141 1.899-.07 1.007-.156 2.334-.236 3.558-1.441-.334-2.376-.848-3-1.44-.974-.921-1.311-2.114-1.575-3.466-.263-1.352-.406-2.842-1.26-4.111-.56-.835-1.444-1.487-2.722-1.871l.123-7.23-.5-.01.04-.499-29.686-2.336.047-.39c.054-.478.087-.73.087-.934zm.744 2.32l29.26 2.301-.111 6.55c-.413-.069-.849-.123-1.33-.144a.75.75 0 0 0-.076-.002.75.75 0 0 0 .01 1.5c.526.023.973.076 1.37.149l-.027 1.625-30.441-1.647c.191-1.43.302-2.243.603-4.54l.084-.661 23.342 1.545.067-.998-23.28-1.541c.167-1.288.342-2.632.471-3.66l.059-.477zm40.079 14.559l30.738 1.494-1.018 15.271-30.713-1.707c.091-1.465.204-3.315.424-6.73.028-.44.054-.798.082-1.236.606.087 1.25.154 1.965.187a.75.75 0 0 0 .295-.039 1.636 1.539 0 0 0-.26.832 1.636 1.539 0 0 0 1.637 1.535 1.636 1.539 0 0 0 1.635-1.539v-.004a1.636 1.539 0 0 0-1.641-1.535 1.636 1.539 0 0 0-.912.268.75.75 0 0 0-.684-1.016c-.722-.033-1.356-.1-1.935-.188.083-1.268.171-2.635.244-3.673.054-.766.1-1.376.142-1.92zm-14.063 8.558l-.178 1.631-31.843-1.533-.024.5-.5-.03-1.139 19.366-1.576-.129-.08.996 1.598.13-.069 1.151.999.059.066-1.129 33.021 2.684.082-.998-1.818-.149 2.174-19.873 1.025.049.049-1-.965-.047.172-1.568zm56.5.594l-1 .008.014 1.777-2.383-.11-.047.997 2.438.113.18 23.764c-1.767.415-3.082 1.13-4.063 2.049-1.5 1.403-2.207 3.182-2.854 4.814-.647 1.633-1.242 3.115-2.34 4.145-1.097 1.03-2.737 1.723-5.793 1.643a.75.75 0 1 0-.039 1.498c3.308.087 5.446-.72 6.86-2.047 1.413-1.327 2.062-3.061 2.707-4.686.644-1.625 1.277-3.146 2.482-4.273.73-.683 1.69-1.25 3.05-1.612l.13 17.079-1.436-.094-.066.998s1.38.09 1.51.1l.011 1.574 1-.008-.011-1.502c1.942.129 6.9.46 14.011.92 4.193.27 8.446.542 11.778.746 2.402.146 3.43.193 4.517.244l-.017 2.303 1 .008.017-2.256c.12.004.678.04.748.04v-1c-.048 0-.635-.037-.74-.04l.336-43.387-.5-.004.023-.5-31.51-1.469zm-88.076.526l31.289 1.507-2.17 19.842-30.23-2.455zm48.693 1.373a1.636 1.539 0 0 0-1.63 1.54 1.636 1.539 0 0 0 1.636 1.536 1.636 1.539 0 0 0 1.635-1.54v-.003a1.636 1.539 0 0 0-1.64-1.534zm39.405.933l30.974 1.445-.332 42.86c-1.057-.05-2.07-.096-4.465-.242-3.33-.204-7.581-.475-11.773-.746-7.148-.463-12.185-.798-14.084-.924l-.131-17.364c.62-.104 1.317-.169 2.092-.195a1.636 1.539 0 0 0 1.529.992 1.636 1.539 0 0 0 1.635-1.539v-.004a1.636 1.539 0 0 0-1.64-1.533 1.636 1.539 0 0 0-1.28.588.75.75 0 0 0-.152-.012c-.797.021-1.522.093-2.196.198zm4.347 9.371a1.636 1.539 0 0 0-1.63 1.541 1.636 1.539 0 0 0 1.636 1.535 1.636 1.539 0 0 0 1.633-1.537v-.006a1.636 1.539 0 0 0-1.639-1.533zm-51.652 14.557c0-.012-.005.134-.02.322a86.88 86.88 0 0 1-.062.76l-.047.527-.975-.049c-.932-.044-1.462-.07-1.65-.07v1c.038 0 .672.024 1.603.069l.932.044-.09.99c-.077.84-.189 2.012-.283 3.016l-.674-.056-.084.996.666.056-.14 1.502c-4.207.592-5.918 2.83-7.627 4.698-1.336 1.46-2.726 2.767-5.701 3.33l.673-8.2.93.061.065-.998-.913-.06.114-1.387-.996-.082-.116 1.404-30.724-2.017.193-1.26-.988-.15-.207 1.345-2.158-.142-.067.998 2.072.136-.699 4.545-2.226-.076-.035 1 2.107.072-2.2 14.293-1.644-.175-.107.994 1.6.172-.415 2.689.989.152.422-2.736 32.173 3.437-.14 1.713.996.082.139-1.69 1.48.16.105-.997-1.503-.16.953-11.6c3.61-.629 5.474-2.243 6.935-3.84 1.732-1.892 2.877-3.615 6.375-4.175l-.023.248c-.35 3.697-.525 5.498-.701 7.33l-1.573-.098-.06.998 1.537.096-.197 2.068.996.098.2-2.106 35.429 2.194.062-.998-35.394-2.192c.177-1.841.348-3.615.697-7.295l.043-.46c.123-.011.223-.033.351-.042a.75.75 0 0 0-.043-1.498.75.75 0 0 0-.052.002l-.114.01.123-1.31 28.532 2.392.082-.996-28.52-2.39c.094-1.001.205-2.17.281-3.008l.094-1.031c.608.03 1.065.05 1.793.087 3.025.153 6.974.358 10.895.561 7.841.407 15.57.813 15.57.813l.053-.999s-7.729-.407-15.57-.814c-3.922-.203-7.871-.406-10.897-.559l-1.756-.085.045-.49c.027-.318.048-.577.062-.77.015-.194.024-.296.024-.399zm-45.272 6.848l30.795 2.021-.691 8.412c-.943.112-1.99.176-3.254.143a.75.75 0 1 0-.04 1.5 22.798 22.798 0 0 0 3.169-.123l-.934 11.35-32.103-3.428 2.21-14.364 28.342.977.036-.998-28.225-.975zm48.743 2.55a1.636 1.539 0 0 0-1.631 1.541 1.636 1.539 0 0 0 1.636 1.536 1.636 1.539 0 0 0 1.635-1.54v-.004a1.636 1.539 0 0 0-1.64-1.533zm-61.756 26.162l139.34 12.985 3.554-.115-.066 4.005c.208.764.096 1.723.01 2.713a25838.7 25838.7 0 0 1-21.866-1.976l-51.295-4.653c-37.01-3.358-70.625-6.234-70.802-6.25.26-1.659.652-3.985 1.125-6.709z" style="line-height:normal;font-variant-ligatures:normal;font-variant-position:normal;font-variant-caps:normal;font-variant-numeric:normal;font-variant-alternates:normal;font-feature-settings:normal;text-indent:0;text-align:start;text-decoration-line:none;text-decoration-style:solid;text-decoration-color:#000;text-transform:none;text-orientation:mixed;shape-padding:0;isolation:auto;mix-blend-mode:normal" color="#000" font-weight="400" font-family="sans-serif" white-space="normal" overflow="visible" fill="#fff"/><path d="M32.727 264.756c33.173-10.218 52.744-24.54 107.895-28.125 30.47-10.738 14.63-46.533-9.204-44.487-59.05-3.68-92.453 11.293-138.066 17.386z" fill="url(#h)" transform="translate(-240.336 -80.283)"/><path d="M-124.88 111.295c-38.782-.302-66.41 7.509-96.458 13.559l2.504 25.726 118.682-12.506c5.649-3.406 10.96-6.999 15.306-11.129-3.85-8.952-13.107-16.025-24.072-15.084a293.064 293.064 0 0 0-15.963-.566z" opacity=".731" fill="url(#i)"/><g stroke-width="1.5" stroke-linecap="round" stroke-linejoin="round" stroke-opacity=".593"><path d="M-84.61 136.136a12.294 8.136 0 0 1-12.284 8.135 12.294 8.136 0 0 1-12.304-8.122A12.294 8.136 0 0 1-96.934 128a12.294 8.136 0 0 1 12.324 8.11" opacity=".731" fill="#ffc40f" fill-opacity="0" paint-order="fill markers stroke"/><path d="M-85.418 136.226a12.432 7.684 0 0 1-12.422 7.684 12.432 7.684 0 0 1-12.442-7.672 12.432 7.684 0 0 1 12.402-7.696 12.432 7.684 0 0 1 12.462 7.66" opacity=".731" fill="#ffc40f" fill-opacity=".099" paint-order="fill markers stroke"/><path d="M-84.875 133.876a12.432 7.684 0 0 1-12.423 7.683 12.432 7.684 0 0 1-12.442-7.67 12.432 7.684 0 0 1 12.402-7.697 12.432 7.684 0 0 1 12.463 7.659" opacity=".731" fill="#ffc40f" fill-opacity=".099" paint-order="fill markers stroke"/><path d="M-83.79 138.034a12.432 7.684 0 0 1-12.423 7.684 12.432 7.684 0 0 1-12.442-7.672 12.432 7.684 0 0 1 12.402-7.696 12.432 7.684 0 0 1 12.462 7.66" opacity=".731" fill="#ffc40f" fill-opacity=".099" paint-order="fill markers stroke"/><path d="M-88.31 133.514a12.432 7.684 0 0 1-12.423 7.684 12.432 7.684 0 0 1-12.442-7.671 12.432 7.684 0 0 1 12.402-7.696 12.432 7.684 0 0 1 12.462 7.658" opacity=".731" fill="#ffc40f" fill-opacity=".099" paint-order="fill markers stroke"/><path d="M-91.203 137.853a12.432 7.684 0 0 1-12.422 7.684 12.432 7.684 0 0 1-12.443-7.671 12.432 7.684 0 0 1 12.402-7.696 12.432 7.684 0 0 1 12.463 7.658" opacity=".731" fill="#ffc40f" fill-opacity=".099" paint-order="fill markers stroke"/><path d="M-89.034 142.192a12.432 7.684 0 0 1-12.422 7.684 12.432 7.684 0 0 1-12.442-7.671 12.432 7.684 0 0 1 12.402-7.696 12.432 7.684 0 0 1 12.462 7.658" opacity=".731" fill="#ffc40f" fill-opacity=".099" paint-order="fill markers stroke"/><path d="M-88.31 133.514a12.432 7.684 0 0 1-12.423 7.684 12.432 7.684 0 0 1-12.442-7.671 12.432 7.684 0 0 1 12.402-7.696 12.432 7.684 0 0 1 12.462 7.658" opacity=".731" fill="#ffc40f" fill-opacity=".099" paint-order="fill markers stroke"/><path d="M-85.237 141.83a12.432 7.684 0 0 1-12.422 7.684 12.432 7.684 0 0 1-12.443-7.671 12.432 7.684 0 0 1 12.403-7.696 12.432 7.684 0 0 1 12.462 7.659" opacity=".731" fill="#ffc40f" fill-opacity=".099" paint-order="fill markers stroke"/><path d="M-85.237 141.83a12.432 7.684 0 0 1-12.422 7.684 12.432 7.684 0 0 1-12.443-7.671 12.432 7.684 0 0 1 12.403-7.696 12.432 7.684 0 0 1 12.462 7.659" opacity=".731" fill="#ff720f" fill-opacity=".099" paint-order="fill markers stroke"/><path d="M-89.034 142.192a12.432 7.684 0 0 1-12.422 7.684 12.432 7.684 0 0 1-12.442-7.671 12.432 7.684 0 0 1 12.402-7.696 12.432 7.684 0 0 1 12.462 7.658" opacity=".731" fill="#ff720f" fill-opacity=".099" paint-order="fill markers stroke"/><path d="M-89.034 144.723a12.432 7.684 0 0 1-12.422 7.684 12.432 7.684 0 0 1-12.442-7.671 12.432 7.684 0 0 1 12.402-7.696 12.432 7.684 0 0 1 12.462 7.658" opacity=".731" fill="#ff720f" fill-opacity=".099" paint-order="fill markers stroke"/><path d="M-89.847 147.073a12.432 7.684 0 0 1-12.422 7.684 12.432 7.684 0 0 1-12.443-7.671 12.432 7.684 0 0 1 12.402-7.696 12.432 7.684 0 0 1 12.463 7.659" opacity=".731" fill="#ff720f" fill-opacity=".099" paint-order="fill markers stroke"/><path d="M-85.056 132.068a12.432 7.684 0 0 1-12.423 7.683 12.432 7.684 0 0 1-12.442-7.67 12.432 7.684 0 0 1 12.402-7.697 12.432 7.684 0 0 1 12.463 7.659" opacity=".731" fill="#ff720f" fill-opacity=".099" paint-order="fill markers stroke"/></g><rect transform="rotate(20.202)" ry="2.961" rx="6.087" y="150.571" x="-57.05" height="156.474" width="12.897" fill="url(#j)" stroke-width=".2" stroke-linecap="round" stroke-linejoin="round" stroke-opacity=".593" paint-order="fill markers stroke"/><path d="M-99.738 123.478l.676.256c3.153 1.195 5.212 3.388 4.643 4.926l-12.515 33.815c-3.383-2.252-6.669-4.616-12.06-4.57l12.514-33.815c.57-1.538 3.588-1.807 6.742-.612z" fill="url(#k)" stroke-width=".2" stroke-linecap="round" stroke-linejoin="round" stroke-opacity=".593" paint-order="fill markers stroke"/><g fill="#fff" stroke-width="1.5" stroke-linecap="round" stroke-linejoin="round" stroke-opacity=".593"><path d="M-173.53 134.947c.263-.263-8.117-5.139-7.745-5.139.372 0-8.008 4.876-7.745 5.139.263.262 5.138-8.117 5.138-7.745 0 .371-4.875-8.008-5.138-7.745-.263.262 8.117 5.138 7.745 5.138-.372 0 8.008-4.876 7.745-5.138-.263-.263-5.138 8.116-5.138 7.745 0-.372 4.875 8.007 5.138 7.745z" opacity=".731" paint-order="fill markers stroke"/><path d="M-176.434 127.082c-.004-.14-3.05 2.019-2.953 1.917.097-.102-1.91 3.047-1.769 3.043.141-.003-2.018-3.05-1.916-2.952.102.097-3.047-1.91-3.044-1.769.004.14 3.05-2.019 2.953-1.917-.097.102 1.91-3.047 1.769-3.043-.141.003 2.018 3.05 1.916 2.952-.102-.097 3.047 1.91 3.044 1.77z" opacity=".731" paint-order="fill markers stroke"/></g><g fill="#fff" stroke-width="1.5" stroke-linecap="round" stroke-linejoin="round" stroke-opacity=".593"><path d="M-148.985 157.446c.263-.263-8.117-5.138-7.745-5.138.372 0-8.008 4.875-7.745 5.138.263.263 5.138-8.117 5.138-7.745 0 .372-4.875-8.008-5.138-7.745-.263.263 8.117 5.138 7.745 5.138-.372 0 8.008-4.875 7.745-5.138-.263-.263-5.138 8.117-5.138 7.745 0-.372 4.875 8.008 5.138 7.745z" opacity=".731" paint-order="fill markers stroke"/><path d="M-151.89 149.582c-.003-.141-3.049 2.018-2.952 1.916.097-.102-1.91 3.047-1.769 3.044.141-.003-2.018-3.05-1.916-2.953.102.097-3.047-1.91-3.044-1.768.004.14 3.05-2.019 2.953-1.917-.097.102 1.91-3.047 1.769-3.044-.141.004 2.018 3.05 1.916 2.953-.102-.097 3.047 1.91 3.044 1.769z" opacity=".731" paint-order="fill markers stroke"/></g><g fill="#fff" stroke-width="1.5" stroke-linecap="round" stroke-linejoin="round" stroke-opacity=".593"><path d="M-145.404 132.391c.202-.21-6.243-4.121-5.957-4.121.286 0-6.159 3.91-5.956 4.121.202.21 3.951-6.51 3.951-6.212 0 .298-3.75-6.423-3.951-6.212-.203.21 6.242 4.121 5.956 4.121-.286 0 6.159-3.91 5.957-4.121-.202-.211-3.952 6.51-3.952 6.212 0-.298 3.75 6.423 3.952 6.212z" opacity=".731" paint-order="fill markers stroke"/><path d="M-147.638 126.083c-.002-.113-2.345 1.62-2.27 1.537.074-.081-1.47 2.444-1.36 2.442.107-.003-1.553-2.447-1.475-2.369.078.078-2.344-1.531-2.34-1.418.002.113 2.345-1.62 2.27-1.538-.075.082 1.469-2.444 1.36-2.44-.108.002 1.553 2.445 1.474 2.367-.078-.077 2.344 1.532 2.341 1.42z" opacity=".731" paint-order="fill markers stroke"/></g><g fill="#fff" stroke-width="1.5" stroke-linecap="round" stroke-linejoin="round" stroke-opacity=".593"><path d="M-124.439 151.822c.203-.21-6.242-4.12-5.956-4.12.286 0-6.16 3.91-5.957 4.12.202.211 3.952-6.51 3.952-6.212 0 .299-3.75-6.423-3.952-6.212-.202.211 6.243 4.122 5.957 4.122-.286 0 6.159-3.91 5.956-4.122-.202-.21-3.951 6.51-3.951 6.212 0-.298 3.75 6.423 3.951 6.212z" opacity=".731" paint-order="fill markers stroke"/><path d="M-126.672 145.515c-.003-.113-2.346 1.619-2.271 1.537.075-.082-1.469 2.444-1.36 2.441.108-.003-1.553-2.446-1.474-2.368.078.078-2.344-1.532-2.341-1.419.002.113 2.345-1.619 2.27-1.537-.074.082 1.47-2.444 1.36-2.441-.107.002 1.553 2.446 1.475 2.368-.079-.078 2.343 1.531 2.34 1.419z" opacity=".731" paint-order="fill markers stroke"/></g><g fill="#fff" stroke-width="1.5" stroke-linecap="round" stroke-linejoin="round" stroke-opacity=".593"><path d="M-116.036 131.153c.138-.137-4.235-2.682-4.041-2.682.194 0-4.18 2.545-4.042 2.682.137.137 2.681-4.236 2.681-4.042 0 .194-2.544-4.179-2.68-4.041-.138.137 4.235 2.68 4.04 2.68-.193 0 4.18-2.543 4.042-2.68-.137-.138-2.681 4.235-2.681 4.041 0-.194 2.544 4.179 2.681 4.042z" opacity=".731" paint-order="fill markers stroke"/><path d="M-117.551 127.049c-.002-.074-1.592 1.053-1.541 1 .05-.053-.996 1.59-.923 1.588.074-.001-1.053-1.591-1-1.54.053.05-1.59-.997-1.588-.923.001.073 1.591-1.054 1.54-1-.05.053.997-1.59.923-1.589-.073.002 1.054 1.592 1 1.54-.053-.05 1.59.997 1.589.924z" opacity=".731" paint-order="fill markers stroke"/></g><g fill="#fff" stroke-width="1.5" stroke-linecap="round" stroke-linejoin="round" stroke-opacity=".593"><path d="M-97.128 145.32c.137-.138-4.236-2.682-4.042-2.682.194 0-4.179 2.544-4.042 2.681.137.137 2.682-4.235 2.682-4.041 0 .194-2.545-4.18-2.682-4.042-.137.137 4.236 2.681 4.042 2.681-.194 0 4.179-2.544 4.042-2.681-.138-.137-2.682 4.236-2.682 4.042 0-.194 2.544 4.178 2.682 4.041z" opacity=".731" paint-order="fill markers stroke"/><path d="M-98.644 141.215c-.002-.073-1.591 1.054-1.54 1 .05-.053-.997 1.59-.924 1.589.074-.002-1.053-1.592-1-1.541.053.05-1.59-.997-1.588-.923.002.073 1.591-1.054 1.54-1-.05.053.997-1.59.924-1.589-.074.002 1.053 1.592 1 1.541-.054-.05 1.59.997 1.588.923z" opacity=".731" paint-order="fill markers stroke"/></g><g fill="#fff" stroke-width="1.5" stroke-linecap="round" stroke-linejoin="round" stroke-opacity=".593"><path d="M-94.81 130.165c.089-.088-2.72-1.722-2.596-1.722.125 0-2.685 1.634-2.596 1.722.088.088 1.722-2.721 1.722-2.596 0 .124-1.634-2.685-1.722-2.597-.089.088 2.72 1.723 2.596 1.723-.125 0 2.685-1.635 2.596-1.723-.088-.088-1.722 2.721-1.722 2.597 0-.125 1.634 2.684 1.722 2.596z" opacity=".731" paint-order="fill markers stroke"/><path d="M-95.783 127.529c-.001-.048-1.023.676-.99.642.033-.034-.64 1.022-.593 1.02.047 0-.677-1.022-.642-.99.034.033-1.022-.64-1.02-.592 0 .047 1.022-.677.989-.643-.032.034.64-1.021.593-1.02-.047.001.677 1.022.643.99-.035-.033 1.021.64 1.02.593z" opacity=".731" paint-order="fill markers stroke"/></g><g fill="#fff" stroke-width="1.5" stroke-linecap="round" stroke-linejoin="round" stroke-opacity=".593"><path d="M-91.203 137.828c.088-.088-2.721-1.722-2.597-1.722.125 0-2.684 1.634-2.596 1.722.088.088 1.723-2.72 1.723-2.596 0 .124-1.635-2.685-1.723-2.597-.088.089 2.721 1.723 2.596 1.723-.124 0 2.685-1.634 2.597-1.723-.088-.088-1.723 2.721-1.723 2.597 0-.125 1.635 2.684 1.723 2.596z" opacity=".731" paint-order="fill markers stroke"/><path d="M-92.177 135.192c0-.047-1.022.677-.99.642.033-.034-.64 1.022-.593 1.02.048 0-.676-1.022-.642-.99.034.033-1.022-.64-1.02-.592 0 .047 1.022-.677.99-.643-.033.035.64-1.021.592-1.02-.047.001.677 1.022.643.99-.034-.033 1.021.64 1.02.593z" opacity=".731" paint-order="fill markers stroke"/></g><g fill="#fff" stroke-width="1.5" stroke-linecap="round" stroke-linejoin="round" stroke-opacity=".593"><path d="M-82.787 130.395c.088-.088-2.721-1.722-2.597-1.722.125 0-2.684 1.634-2.596 1.722.088.088 1.722-2.72 1.722-2.596 0 .125-1.634-2.685-1.722-2.597-.088.089 2.72 1.723 2.596 1.723-.124 0 2.685-1.634 2.597-1.723-.089-.088-1.723 2.722-1.723 2.597s1.634 2.684 1.723 2.596z" opacity=".731" paint-order="fill markers stroke"/><path d="M-83.761 127.759c-.001-.047-1.022.677-.99.642.033-.034-.64 1.022-.593 1.02.047 0-.677-1.022-.642-.99.034.033-1.022-.64-1.02-.592 0 .047 1.022-.677.99-.643-.033.035.64-1.021.592-1.02-.047.001.677 1.022.643.99-.035-.033 1.021.64 1.02.593z" opacity=".731" paint-order="fill markers stroke"/></g><g fill="#fff" stroke-width="1.5" stroke-linecap="round" stroke-linejoin="round" stroke-opacity=".593"><path d="M-101.227 133.017c.063-.063-1.964-1.243-1.874-1.243.09 0-1.938 1.18-1.874 1.243.063.064 1.243-1.963 1.243-1.873 0 .09-1.18-1.938-1.243-1.874-.064.063 1.964 1.243 1.874 1.243-.09 0 1.937-1.18 1.874-1.243-.064-.064-1.244 1.963-1.244 1.874 0-.09 1.18 1.937 1.244 1.873z" opacity=".731" paint-order="fill markers stroke"/><path d="M-101.93 131.115c-.001-.034-.738.488-.715.463.024-.024-.462.738-.427.737.034-.001-.489-.738-.464-.715.025.024-.737-.462-.737-.428.001.034.738-.488.715-.463-.024.024.462-.738.428-.737-.034.001.488.738.463.715-.024-.024.738.462.737.428z" opacity=".731" paint-order="fill markers stroke"/></g><g fill="#fff" stroke-width="1.5" stroke-linecap="round" stroke-linejoin="round" stroke-opacity=".593"><path d="M-105.566 124.61c.063-.063-1.964-1.243-1.874-1.243.09 0-1.938 1.18-1.874 1.244.063.063 1.243-1.964 1.243-1.874 0 .09-1.18-1.938-1.243-1.874-.064.064 1.964 1.243 1.874 1.243-.09 0 1.937-1.18 1.874-1.243-.064-.064-1.244 1.964-1.244 1.874 0-.09 1.18 1.937 1.244 1.874z" opacity=".731" paint-order="fill markers stroke"/><path d="M-106.27 122.708c0-.034-.737.488-.714.464.024-.025-.461.737-.427.736.034 0-.489-.738-.464-.714.025.023-.737-.462-.737-.428.001.034.738-.489.715-.464-.024.025.462-.737.428-.736-.034 0 .488.737.463.714-.024-.024.738.462.737.428z" opacity=".731" paint-order="fill markers stroke"/></g><g fill="#fff" stroke-width="1.5" stroke-linecap="round" stroke-linejoin="round" stroke-opacity=".593"><path d="M-90.56 124.159c.063-.064-1.965-1.244-1.875-1.244.09 0-1.937 1.18-1.874 1.244.064.063 1.244-1.964 1.244-1.874 0 .09-1.18-1.938-1.244-1.874-.063.064 1.964 1.243 1.874 1.243-.09 0 1.938-1.18 1.874-1.243-.063-.064-1.243 1.964-1.243 1.874 0-.09 1.18 1.937 1.243 1.874z" opacity=".731" paint-order="fill markers stroke"/><path d="M-91.263 122.256c-.001-.034-.738.488-.715.464.024-.025-.462.737-.428.736.034 0-.488-.738-.463-.714.024.023-.738-.462-.737-.428.001.034.738-.489.715-.464-.024.025.461-.737.427-.736-.034 0 .489.737.464.714-.025-.024.737.462.737.428z" opacity=".731" paint-order="fill markers stroke"/></g><g fill="#fff" stroke-width="1.5" stroke-linecap="round" stroke-linejoin="round" stroke-opacity=".593"><path d="M-109.708 146.882c.137-.138-4.236-2.682-4.042-2.682.194 0-4.178 2.544-4.041 2.682.137.137 2.681-4.236 2.681-4.042 0 .194-2.544-4.179-2.681-4.042-.137.138 4.235 2.682 4.041 2.682-.194 0 4.18-2.544 4.042-2.682-.137-.137-2.681 4.236-2.681 4.042 0-.194 2.544 4.179 2.681 4.042z" opacity=".731" paint-order="fill markers stroke"/><path d="M-111.223 142.778c-.002-.074-1.592 1.053-1.541 1 .05-.053-.997 1.59-.923 1.588.073-.002-1.054-1.591-1-1.54.053.05-1.59-.997-1.589-.924.002.074 1.592-1.053 1.541-1-.05.053.997-1.59.923-1.588-.073.002 1.053 1.591 1 1.54-.053-.05 1.59.997 1.589.924z" opacity=".731" paint-order="fill markers stroke"/></g><g fill="#fff" fill-opacity=".205" stroke-linecap="round" stroke-linejoin="round" stroke-opacity=".593"><path d="M-93.353 139.564a11.3 13.379 26.065 0 1-16.02 7.057 11.3 13.379 26.065 0 1-4.29-16.968 11.3 13.379 26.065 0 1 16.014-7.084 11.3 13.379 26.065 0 1 4.315 16.956" opacity=".731" stroke-width="1.5" paint-order="fill markers stroke"/><path d="M-92.348 139.86a12.281 14.541 26.065 0 1-17.413 7.67 12.281 14.541 26.065 0 1-4.662-18.442 12.281 14.541 26.065 0 1 17.405-7.7 12.281 14.541 26.065 0 1 4.69 18.43" opacity=".731" stroke-width="1.63" paint-order="fill markers stroke"/><path d="M-91.515 140.424a13.319 15.77 26.065 0 1-18.883 8.318 13.319 15.77 26.065 0 1-5.056-19.999 13.319 15.77 26.065 0 1 18.875-8.35 13.319 15.77 26.065 0 1 5.087 19.986" opacity=".731" stroke-width="1.768" paint-order="fill markers stroke"/></g><path d="M-103.107 122.74c-1.705-.078-3.018.388-3.373 1.35l-12.514 33.814c.602-.005 1.174.025 1.726.076 3.947-.483 8.08-.912 12.465-1.263l10.383-28.057c.57-1.538-1.49-3.73-4.643-4.926l-.675-.255c-1.183-.449-2.347-.692-3.37-.739z" fill="url(#l)" opacity=".081"/></g></svg>