<svg xmlns="http://www.w3.org/2000/svg" xmlns:xlink="http://www.w3.org/1999/xlink" height="48" viewBox="0 0 48 48" width="48"><defs><linearGradient id="f"><stop offset="0" stop-color="#770302"/><stop offset="1" stop-color="#e81818"/></linearGradient><linearGradient id="e"><stop offset="0"/><stop offset="1" stop-opacity="0"/></linearGradient><linearGradient id="d"><stop offset="0" stop-color="#176875"/><stop offset="1" stop-color="#186a77"/></linearGradient><linearGradient id="b"><stop offset="0" stop-color="#b6b6b6"/><stop offset=".482" stop-color="#fff"/><stop offset="1" stop-color="#cfcfcf"/></linearGradient><linearGradient id="a"><stop offset="0" stop-color="#165dc2"/><stop offset="1" stop-color="#1680c2"/></linearGradient><linearGradient id="c"><stop offset="0" stop-color="#d0611f"/><stop offset="1" stop-color="#f77a2c"/></linearGradient><linearGradient xlink:href="#b" id="h" x1="20.802" y1="48.629" x2="21.421" y2="13.003" gradientUnits="userSpaceOnUse" gradientTransform="translate(1.611 3.14) scale(.89902)"/><linearGradient xlink:href="#f" id="g" x1="23.08" y1="45.285" x2="23.08" y2="3.801" gradientUnits="userSpaceOnUse" gradientTransform="translate(-1.848 -1.848) scale(1.07698)"/></defs><path d="M105.237 26.524c-.9-.888-2.898-1.358-5.938-1.398-2.058-.023-4.535.159-7.14.523-1.167-.673-2.37-1.405-3.313-2.287-2.539-2.371-4.658-5.662-5.979-9.28.087-.338.16-.635.228-.938 0 0 1.43-8.123 1.051-10.87a3.174 3.174 0 0 0-.185-.778l-.124-.32C83.447.28 82.685-.67 81.49-.618l-.702-.022h-.019c-1.333 0-2.42.681-2.705 1.7-.867 3.197.027 7.98 1.649 14.174l-.415 1.01c-1.161 2.83-2.616 5.68-3.9 8.194l-.167.328a137.627 137.627 0 0 1-3.686 6.787l-1.147.606c-.084.044-2.05 1.084-2.51 1.363-3.912 2.335-6.503 4.986-6.933 7.09-.137.671-.035 1.53.66 1.928l1.11.558c.481.241.988.363 1.508.363 2.786 0 6.02-3.47 10.475-11.245 5.144-1.675 11-3.066 16.133-3.834 3.911 2.202 8.722 3.732 11.758 3.732.54 0 1.004-.051 1.382-.151.582-.155 1.073-.487 1.372-.937.59-.887.709-2.108.549-3.358-.048-.371-.344-.83-.665-1.143zM63.63 41.346c.508-1.389 2.52-4.134 5.492-6.57.187-.152.648-.584 1.07-.985-3.11 4.96-5.192 6.936-6.562 7.555zM81.24.795c.895 0 1.405 2.257 1.447 4.373.042 2.116-.453 3.601-1.066 4.7-.509-1.627-.755-4.191-.755-5.868 0 0-.037-3.205.374-3.205zm-5.253 28.898a188.592 188.592 0 0 0 1.936-3.543c1.617-3.057 2.637-5.45 3.398-7.416 1.512 2.752 3.395 5.09 5.61 6.965.276.233.568.468.876.703-4.503.89-8.394 1.974-11.82 3.29zm28.386-.254c-.274.172-1.06.27-1.565.27-1.63 0-3.648-.745-6.476-1.957a40.695 40.695 0 0 1 2.976-.122c1.636 0 2.12-.007 3.72.401 1.6.408 1.62 1.237 1.345 1.408z" fill="#d80027" stroke-width="1.4"/><g transform="matrix(.95721 0 0 .95721 .977 1.027)"><rect style="isolation:auto;mix-blend-mode:normal;marker:none" width="47.715" height="47.715" x=".143" y=".143" ry="4.998" color="#000" overflow="visible" fill-opacity=".082" stroke-width="1.25" stroke-linecap="square"/><rect ry="4.837" y=".911" x=".911" height="46.178" width="46.178" style="isolation:auto;mix-blend-mode:normal;marker:none" color="#000" overflow="visible" fill="url(#g)" stroke-width="1.209" stroke-linecap="square"/><path d="M19.418 8.96c.018 3.663 1.06 7.129 1.781 10.689-2.161 5.28-4.851 10.323-7.654 15.286-.765.553-5.342 2.645-.564 1.172-1.02 2.4-2.52 3.55-3.457 4.868-1.12 1.45-3.514 3.297-4.643 3.3 1.707 1.284 4.456-.88 5.714-2.336 1.934-2.27 3.463-4.842 4.954-7.413a96.076 96.076 0 0 1 15.35-3.65c3.592 1.888 7.53 3.646 11.68 3.385 2.174-.656 1.92-4.526-.521-4.662-2.259-.555-4.63-.403-6.93-.272-1.867.41-4.079.491-5.487-1.036-3.242-2.468-5.56-6.107-6.816-9.926.37-1.733.784-4.221.85-5.81-1.514 4.5-1.792 4.775-2.476-.328-1.183-7.467 2.224-8.268 2.375 1.207 1.69-10.062-3.809-9.824-4.156-4.474zm2.525 12.2c1.748 3.51 4.27 6.643 7.518 8.87-.696.297-2.13.417-3.046.683a64.236 64.236 0 0 0-10.695 3.273c2.36-4.13 4.627-8.331 6.223-12.826zM38.6 30.19c1.757-.008 3.83.073 5.153 1.372.915 1.914-1.792 1.967-2.986 1.772-1.828-.232-3.476-1.107-5.171-1.767-3.121-1.573 1.43-1.275 2.641-1.365l.363-.012zM13.56 35.44c-3.24.976-9.008 4.14-9.576 7.29-.194 1.622 2.666 2.646.912.284.001-2.458 5.921-5.923 8.664-7.574z" fill-opacity=".275" stroke-width=".675"/><path d="M19.418 7.835c.018 3.663 1.06 7.129 1.781 10.689-2.161 5.28-4.851 10.323-7.654 15.286-.765.553-5.342 2.644-.564 1.172-1.02 2.4-2.52 3.55-3.457 4.868-1.12 1.45-3.514 3.297-4.643 3.3 1.707 1.284 4.456-.88 5.714-2.336 1.934-2.27 3.463-4.842 4.954-7.413a96.076 96.076 0 0 1 15.35-3.65c3.592 1.888 7.53 3.646 11.68 3.385 2.174-.656 1.92-4.526-.521-4.662-2.259-.555-4.63-.404-6.93-.272-1.867.41-4.079.491-5.487-1.036-3.242-2.469-5.56-6.107-6.816-9.926.37-1.733.784-4.222.85-5.81-1.514 4.5-1.792 4.775-2.476-.328-1.183-7.467 2.224-8.268 2.375 1.207 1.69-10.062-3.809-9.825-4.156-4.474zm2.525 12.2c1.748 3.51 4.27 6.643 7.518 8.87-.696.297-2.13.417-3.046.683a64.236 64.236 0 0 0-10.695 3.273c2.36-4.13 4.627-8.331 6.223-12.826zm16.657 9.03c1.757-.008 3.83.073 5.153 1.371.915 1.914-1.792 1.968-2.986 1.773-1.828-.233-3.476-1.107-5.171-1.767-3.121-1.574 1.43-1.275 2.641-1.365l.363-.012zm-25.04 5.249c-3.24.976-9.008 4.14-9.576 7.29-.194 1.621 2.666 2.646.912.284.001-2.458 5.921-5.923 8.664-7.574z" fill="url(#h)" stroke-width=".675"/><path style="isolation:auto;mix-blend-mode:normal;marker:none" d="M.912 41.127v1.125a4.826 4.826 0 0 0 4.837 4.837H42.25a4.826 4.826 0 0 0 4.837-4.837v-1.125a4.826 4.826 0 0 1-4.837 4.837H5.75a4.826 4.826 0 0 1-4.837-4.837z" color="#000" overflow="visible" fill="#fff" fill-opacity=".154" stroke-width="1.209" stroke-linecap="square"/></g></svg>