<svg xmlns="http://www.w3.org/2000/svg" xmlns:xlink="http://www.w3.org/1999/xlink" height="48" viewBox="0 0 48 48" width="48"><defs><linearGradient x2="0" gradientUnits="userSpaceOnUse" y2="226.25" y1="221.062" id="k" xlink:href="#a" gradientTransform="matrix(.95758 0 0 -1 -290.205 264.25)"/><linearGradient x2="36" gradientUnits="userSpaceOnUse" x1="12" id="g" xlink:href="#b" gradientTransform="matrix(.5 0 0 2 12 -25)"/><linearGradient gradientUnits="userSpaceOnUse" x2="10.548" y2="30" x1="10.5" y1="24" id="h" xlink:href="#c"/><linearGradient id="a"><stop offset="0" stop-opacity=".1"/><stop offset="1" stop-opacity="0"/></linearGradient><linearGradient id="c"><stop offset="0" stop-color="#ccc"/><stop offset="1" stop-color="#fff"/></linearGradient><linearGradient id="d"><stop offset="0" stop-color="#ccc"/><stop offset="1" stop-color="#fff"/></linearGradient><linearGradient x2="0" gradientUnits="userSpaceOnUse" y2="224.438" y1="236.125" id="j" xlink:href="#d" gradientTransform="matrix(1.42686 0 0 1.42698 -483.94 -304.644)"/><linearGradient id="b"><stop offset="0" stop-color="#028ccc"/><stop offset="1" stop-color="#03a9f4"/></linearGradient><radialGradient gradientUnits="userSpaceOnUse" r="10.625" id="f" xlink:href="#e" gradientTransform="matrix(-2.25882 0 0 .32941 165.459 42.976)" cy="4.625" cx="62.625"/><radialGradient gradientUnits="userSpaceOnUse" r="10.625" id="e" gradientTransform="matrix(5.77506 0 0 2.00858 -297.663 30.796)" cy="4.625" cx="62.625"><stop offset="0" stop-opacity=".15"/><stop offset="1" stop-opacity="0"/></radialGradient><filter height="1.288" y="-.144" width="1.288" x="-.144" id="i" color-interpolation-filters="sRGB"><feGaussianBlur stdDeviation=".96"/></filter></defs><path d="M0 44.5C0 46.433 10.745 48 24 48s24-1.567 24-3.5S37.255 41 24 41 0 42.567 0 44.5z" fill="url(#f)" fill-rule="evenodd"/><rect transform="scale(-1 1)" height="40" rx="1.939" y="4" x="-44" width="40" fill="#ccc"/><rect transform="rotate(-90)" ry="1.915" height="39.5" rx="1.891" y="4.25" x="-43" width="39" fill="#eee"/><g fill-rule="evenodd"><rect transform="matrix(0 1 1 0 0 0)" height="24" rx="2.059" y="11" x="18" width="12" fill="url(#g)"/><path d="M33.281 17.5c1.236 0 2.219.983 2.219 2.219v8.562a2.206 2.206 0 0 1-2.219 2.219H12.72a2.206 2.206 0 0 1-2.219-2.219V19.72c0-1.236.983-2.219 2.219-2.219H33.28zm-.343.5H13.061A2.06 2.06 0 0 0 11 20.063v7.875A2.06 2.06 0 0 0 13.063 30h19.874A2.06 2.06 0 0 0 35 27.937v-7.875A2.06 2.06 0 0 0 32.937 18z" fill="url(#h)"/></g><circle r="8" cx="-31" cy="24" transform="scale(-1 1)" stroke-width="1.5" stroke-linecap="round" opacity=".16" filter="url(#i)"/><ellipse transform="scale(-1 1)" ry="7" rx="7" cy="24" cx="-31" fill="#eee" stroke="url(#j)" stroke-width="2" stroke-linecap="round"/><path d="M6.165 43c-1.06 0-1.915-.892-1.915-2v-5c0 1.108.854 2 1.915 2h35.67c1.06 0 1.915-.892 1.915-2v5c0 1.108-.854 2-1.915 2H6.165z" fill="url(#k)"/></svg>