<svg xmlns="http://www.w3.org/2000/svg" xmlns:xlink="http://www.w3.org/1999/xlink" height="128" viewBox="0 0 128 128" width="128"><defs><linearGradient xlink:href="#a" id="d" gradientUnits="userSpaceOnUse" x1="61.883" y1="143.581" x2="61.116" y2="36.197" gradientTransform="matrix(.62485 0 0 .62485 20.612 27.184)"/><linearGradient xlink:href="#b" id="e" gradientUnits="userSpaceOnUse" x1="142.421" y1="143.006" x2="142.421" y2="33.32" gradientTransform="matrix(.62485 0 0 .62485 20.659 27.173)"/><linearGradient xlink:href="#c" id="f" gradientUnits="userSpaceOnUse" x1="87.093" y1="21.048" x2="88.83" y2="174.454"/></defs><linearGradient id="a" gradientUnits="userSpaceOnUse" x1="61.883" x2="61.116" y1="143.581" y2="36.197"><stop offset="0" stop-color="#1f76f4"/><stop offset="1" stop-color="#1acffc"/></linearGradient><linearGradient id="b" gradientUnits="userSpaceOnUse" x1="142.421" x2="142.421" y1="143.006" y2="33.32"><stop offset="0" stop-color="#dce8f4"/><stop offset="1" stop-color="#f6f7f7"/></linearGradient><linearGradient id="c" gradientUnits="userSpaceOnUse" x1="87.093" x2="88.83" y1="21.048" y2="174.454"><stop offset="0" stop-color="#fff" stop-opacity=".509"/><stop offset="1" stop-color="#fff" stop-opacity="0"/></linearGradient><g transform="matrix(1.3439 0 0 1.3439 -45.714 -44.429)"><g transform="translate(-115.612)" fill="none" stroke="#000" stroke-linecap="round" stroke-linejoin="round" stroke-opacity=".004"><rect height="80.999" ry="5.512" width="85.792" x="153.803" y="41.055" stroke-width=".1"/><rect y="41.055" x="153.803" width="85.792" ry="5.512" height="80.999" stroke-width=".2"/><rect height="80.999" ry="5.512" width="85.792" x="153.803" y="41.055" stroke-width=".3"/><rect y="41.055" x="153.803" width="85.792" ry="5.512" height="80.999" stroke-width=".4"/><rect height="80.999" ry="5.512" width="85.792" x="153.803" y="41.055" stroke-width=".5"/><rect y="41.055" x="153.803" width="85.792" ry="5.512" height="80.999" stroke-width=".6"/><rect height="80.999" ry="5.512" width="85.792" x="153.803" y="41.055" stroke-width=".7"/><rect y="41.055" x="153.803" width="85.792" ry="5.512" height="80.999" stroke-width=".8"/><rect height="80.999" ry="5.512" width="85.792" x="153.803" y="41.055" stroke-width=".9"/><rect y="41.055" x="153.803" width="85.792" ry="5.512" height="80.999"/><rect height="80.999" ry="5.512" width="85.792" x="153.803" y="41.055" stroke-width="1.1"/><rect y="41.055" x="153.803" width="85.792" ry="5.512" height="80.999" stroke-width="1.2"/><rect height="80.999" ry="5.512" width="85.792" x="153.803" y="41.055" stroke-width="1.3"/><rect y="41.055" x="153.803" width="85.792" ry="5.512" height="80.999" stroke-width="1.4"/><rect height="80.999" ry="5.512" width="85.792" x="153.803" y="41.055" stroke-width="1.5"/><rect y="41.055" x="153.803" width="85.792" ry="5.512" height="80.999" stroke-width="1.6"/><rect height="80.999" ry="5.512" width="85.792" x="153.803" y="41.055" stroke-width="1.7"/><rect y="41.055" x="153.803" width="85.792" ry="5.512" height="80.999" stroke-width="1.8"/><rect height="80.999" ry="5.512" width="85.792" x="153.803" y="41.055" stroke-width="1.9"/><rect y="41.055" x="153.803" width="85.792" ry="5.512" height="80.999" stroke-width="2"/><rect height="80.999" ry="5.512" width="85.792" x="153.803" y="41.055" stroke-width="2.1"/><rect y="41.055" x="153.803" width="85.792" ry="5.512" height="80.999" stroke-width="2.2"/><rect height="80.999" ry="5.512" width="85.792" x="153.803" y="41.055" stroke-width="2.3"/><rect y="41.055" x="153.803" width="85.792" ry="5.512" height="80.999" stroke-width="2.4"/><rect height="80.999" ry="5.512" width="85.792" x="153.803" y="41.055" stroke-width="2.5"/><rect y="41.055" x="153.803" width="85.792" ry="5.512" height="80.999" stroke-width="2.6"/><rect height="80.999" ry="5.512" width="85.792" x="153.803" y="41.055" stroke-width="2.7"/><rect y="41.055" x="153.803" width="85.792" ry="5.512" height="80.999" stroke-width="2.8"/><rect height="80.999" ry="5.512" width="85.792" x="153.803" y="41.055" stroke-width="2.9"/><rect y="41.055" x="153.803" width="85.792" ry="5.512" height="80.999" stroke-width="3"/><rect height="80.999" ry="5.512" width="85.792" x="153.803" y="41.055" stroke-width="3.1"/><rect y="41.055" x="153.803" width="85.792" ry="5.512" height="80.999" stroke-width="3.2"/><rect height="80.999" ry="5.512" width="85.792" x="153.803" y="41.055" stroke-width="3.3"/><rect y="41.055" x="153.803" width="85.792" ry="5.512" height="80.999" stroke-width="3.4"/><rect height="80.999" ry="5.512" width="85.792" x="153.803" y="41.055" stroke-width="3.5"/><rect y="41.055" x="153.803" width="85.792" ry="5.512" height="80.999" stroke-width="3.6"/><rect height="80.999" ry="5.512" width="85.792" x="153.803" y="41.055" stroke-width="3.7"/><rect y="41.055" x="153.803" width="85.792" ry="5.512" height="80.999" stroke-width="3.8"/><rect height="80.999" ry="5.512" width="85.792" x="153.803" y="41.055" stroke-width="3.9"/><rect y="41.055" x="153.803" width="85.792" ry="5.512" height="80.999" stroke-width="4"/><rect height="80.999" ry="5.512" width="85.792" x="153.803" y="41.055" stroke-width="4.1"/><rect y="41.055" x="153.803" width="85.792" ry="5.512" height="80.999" stroke-width="4.2"/><rect height="80.999" ry="5.512" width="85.792" x="153.803" y="41.055" stroke-width="4.3"/><rect y="41.055" x="153.803" width="85.792" ry="5.512" height="80.999" stroke-width="4.4"/><rect height="80.999" ry="5.512" width="85.792" x="153.803" y="41.055" stroke-width="4.5"/><rect y="41.055" x="153.803" width="85.792" ry="5.512" height="80.999" stroke-width="4.6"/><rect height="80.999" ry="5.512" width="85.792" x="153.803" y="41.055" stroke-width="4.7"/><rect y="41.055" x="153.803" width="85.792" ry="5.512" height="80.999" stroke-width="4.8"/><rect height="80.999" ry="5.512" width="85.792" x="153.803" y="41.055" stroke-width="4.9"/><rect y="41.055" x="153.803" width="85.792" ry="5.512" height="80.999" stroke-width="5"/></g><rect height="80.999" ry="5.512" width="85.792" x="38.191" y="41.055" fill="url(#d)" stroke-width=".625"/><path d="M82.717 41.975c-8.029 13.08-8.666 27.382-8.82 38.5.025 1.782-.08 2.065 1.519 2.107l9.15.043c1.331.016 1.325.524 1.272 1.756-.565 13.303.93 25.466 3.02 37.674h29.613a5.496 5.496 0 0 0 5.16-3.58 5.57 5.57 0 0 0 .096-1.012V47.486a5.5 5.5 0 0 0-5.512-5.511z" fill-opacity=".05" stroke-width=".625"/><path d="M82.682 42.025c-8.029 13.08-8.666 27.383-8.82 38.5.025 1.783-.08 2.065 1.519 2.108l9.15.043c1.33.016 1.324.523 1.272 1.756-.565 13.284.925 25.433 3.01 37.623h29.658c2.324 0 4.3-1.427 5.113-3.453.07-.352.107-.715.107-1.088V47.537a5.5 5.5 0 0 0-5.511-5.512z" fill-opacity=".05" stroke-width=".625"/><path d="M82.643 42.072c-8.029 13.08-8.666 27.383-8.82 38.5.025 1.783-.08 2.065 1.519 2.108l9.15.043c1.33.016 1.324.523 1.272 1.756-.564 13.267.922 25.401 3.002 37.576h29.705a5.498 5.498 0 0 0 5.049-3.3 5.56 5.56 0 0 0 .132-1.194V47.584a5.5 5.5 0 0 0-5.511-5.512z" fill-opacity=".05" stroke-width=".625"/><path d="M82.604 42.111c-8.029 13.08-8.666 27.383-8.82 38.5.025 1.783-.08 2.065 1.519 2.108l9.15.043c1.33.016 1.324.523 1.272 1.756-.563 13.253.92 25.375 2.996 37.537h29.75a5.494 5.494 0 0 0 4.986-3.17c.098-.413.156-.842.156-1.285V47.623a5.5 5.5 0 0 0-5.511-5.512z" fill-opacity=".05" stroke-width=".625"/><path d="M82.564 42.154c-8.028 13.08-8.665 27.383-8.82 38.5.026 1.783-.079 2.065 1.52 2.108l9.15.043c1.33.016 1.324.523 1.272 1.756-.563 13.237.915 25.347 2.988 37.494h29.797a5.494 5.494 0 0 0 4.925-3.045c.112-.438.178-.894.178-1.367V47.666a5.5 5.5 0 0 0-5.512-5.512z" fill-opacity=".05" stroke-width=".625"/><path d="M82.514 42.201c-8.029 13.08-8.666 27.383-8.82 38.5.025 1.783-.082 2.065 1.517 2.108l9.152.043c1.33.016 1.324.523 1.272 1.755-.562 13.22.914 25.317 2.982 37.448h29.854a5.499 5.499 0 0 0 4.845-2.877l.002-.004c.132-.472.204-.969.204-1.485V47.715a5.501 5.501 0 0 0-5.512-5.514z" fill-opacity=".05" stroke-width=".625"/><path d="M82.463 42.275c-8.028 13.08-8.666 27.383-8.82 38.5.025 1.783-.082 2.065 1.517 2.108l9.153.043c1.33.016 1.324.523 1.271 1.756-.56 13.193.909 25.267 2.97 37.373h29.917a5.494 5.494 0 0 0 4.787-2.782 5.5 5.5 0 0 0 .213-1.51V47.79a5.501 5.501 0 0 0-5.512-5.514z" fill-opacity=".05" stroke-width=".625"/><path d="M82.408 42.357c-8.028 13.08-8.665 27.383-8.82 38.5.026 1.783-.081 2.065 1.517 2.108l9.153.043c1.33.016 1.324.523 1.271 1.756-.559 13.163.903 25.212 2.957 37.29h29.985a5.492 5.492 0 0 0 4.724-2.677 5.5 5.5 0 0 0 .221-1.531V47.87a5.501 5.501 0 0 0-5.512-5.514z" fill-opacity=".05" stroke-width=".625"/><path d="M82.287 42.537c-8.028 13.08-8.666 27.383-8.82 38.5.026 1.783-.081 2.065 1.517 2.108l9.153.043c1.33.016 1.324.523 1.271 1.755-.556 13.098.888 25.093 2.926 37.112h30.137c1.918 0 3.6-.971 4.586-2.45.15-.501.238-1.028.238-1.58V48.051a5.501 5.501 0 0 0-5.512-5.514z" fill-opacity=".05" stroke-width=".625"/><path d="M82.342 42.432c-8.029 13.08-8.666 27.382-8.82 38.5.025 1.782-.082 2.065 1.517 2.107l9.152.043c1.331.016 1.325.524 1.272 1.756-.558 13.136.896 25.163 2.943 37.217h30.065a5.493 5.493 0 0 0 4.633-2.526c.155-.51.246-1.047.246-1.61V47.946a5.501 5.501 0 0 0-5.512-5.513z" fill-opacity=".05" stroke-width=".625"/><path d="M82.205 42.646c-8.028 13.08-8.666 27.383-8.82 38.5.026 1.783-.081 2.066 1.517 2.108l9.153.043c1.33.016 1.324.523 1.271 1.756-.555 13.058.88 25.02 2.908 37.002h30.237c1.865 0 3.505-.92 4.502-2.33.151-.505.24-1.035.24-1.59V48.16a5.501 5.501 0 0 0-5.512-5.514z" fill-opacity=".05" stroke-width=".625"/><path d="M82.287 42.537c-8.028 13.08-8.666 27.383-8.82 38.5.026 1.783-.081 2.065 1.517 2.108l9.153.043c1.33.016 1.324.523 1.271 1.755-.556 13.098.888 25.093 2.926 37.112h30.137c1.918 0 3.6-.971 4.586-2.45.15-.501.238-1.028.238-1.58V48.051a5.501 5.501 0 0 0-5.512-5.514z" fill-opacity=".05" stroke-width=".625"/><path d="M82.756 41.928c-8.028 13.08-8.666 27.382-8.82 38.5.025 1.782-.082 2.065 1.517 2.107l9.152.043c1.331.016 1.325.524 1.272 1.756-.566 13.32.933 25.498 3.025 37.72h29.569a5.496 5.496 0 0 0 5.21-3.722c.051-.298.083-.603.083-.916V47.441a5.501 5.501 0 0 0-5.512-5.513z" fill-opacity=".05" stroke-width=".625"/><path d="M83.021 41.044c-8.028 13.08-8.667 27.383-8.821 38.5.026 1.783-.08 2.064 1.52 2.107l9.15.043c1.33.016 1.324.523 1.272 1.756-.58 13.636 1 26.077 3.171 38.593h29.205a5.5 5.5 0 0 0 5.512-5.511V46.556a5.5 5.5 0 0 0-5.512-5.512z" fill="url(#e)" stroke-width=".625"/><g transform="matrix(.62485 0 0 .62485 20.712 27.22)" stroke-linecap="round"><rect height="126.729" ry="8.821" width="134.468" x="29.549" y="23.648" fill="none" stroke="url(#f)" stroke-width="1.5"/><path d="M66.483 53.576A3.315 3.315 0 0 0 63.16 56.9v9.086a3.315 3.315 0 0 0 3.323 3.322 3.315 3.315 0 0 0 3.322-3.322v-9.086a3.315 3.315 0 0 0-3.322-3.323zm61.554 0a3.315 3.315 0 0 0-3.322 3.323v9.086a3.315 3.315 0 0 0 3.322 3.322 3.315 3.315 0 0 0 3.323-3.322v-9.086a3.315 3.315 0 0 0-3.323-3.323zm-71.054 49.672a2.5 2.5 0 0 0-1.754 4.18c11.302 12.802 27.809 17.942 43.634 17.375 15.826-.567 31.137-6.74 40.452-17.172a2.5 2.5 0 1 0-3.73-3.33c-8.134 9.109-22.275 14.982-36.9 15.506-14.624.524-29.566-4.2-39.708-15.688a2.5 2.5 0 0 0-1.994-.87z" fill="#1b1b1b" stroke="#fff" stroke-width=".015" stroke-opacity=".509"/></g></g></svg>