<svg xmlns="http://www.w3.org/2000/svg" xmlns:xlink="http://www.w3.org/1999/xlink" width="128" height="128" viewBox="0 0 128 128"><defs><linearGradient id="l"><stop offset="0" stop-color="#fda94d"/><stop offset="1" stop-color="#fd4dfc" stop-opacity=".835"/></linearGradient><linearGradient id="b"><stop offset="0" stop-color="#ff4965"/><stop offset="1" stop-color="#ff8b4f"/></linearGradient><linearGradient id="a"><stop offset="0" stop-color="#ff2f4c"/><stop offset="1" stop-color="#ff9969"/></linearGradient><linearGradient xlink:href="#a" id="n" x1="-741.832" y1="959.047" x2="-741.832" y2="93.836" gradientUnits="userSpaceOnUse" gradientTransform="matrix(.1342 0 0 .1342 160.367 -5.456)"/><linearGradient xlink:href="#b" id="o" x1="-738.764" y1="931.434" x2="-738.764" y2="152.131" gradientUnits="userSpaceOnUse" gradientTransform="matrix(.1342 0 0 .1342 160.367 -5.456)"/><linearGradient id="c"><stop offset="0"/><stop offset="1" stop-opacity="0"/></linearGradient><linearGradient id="d"><stop offset="0" stop-color="#fff"/><stop offset=".063" stop-color="#fff" stop-opacity=".235"/><stop offset=".951" stop-color="#fff" stop-opacity=".157"/><stop offset="1" stop-color="#fff" stop-opacity=".392"/></linearGradient><linearGradient id="e"><stop offset="0" stop-color="#919caf"/><stop offset=".262" stop-color="#68758e"/><stop offset=".705" stop-color="#485a6c"/><stop offset="1" stop-color="#444c5c"/></linearGradient><linearGradient id="f"><stop offset="0" stop-color="#181818"/><stop offset="1" stop-color="#181818" stop-opacity="0"/></linearGradient><linearGradient id="g"><stop offset="0" stop-color="#181818" stop-opacity="0"/><stop offset=".5" stop-color="#181818"/><stop offset="1" stop-color="#181818" stop-opacity="0"/></linearGradient><linearGradient id="h"><stop offset="0" stop-color="#95a3ab"/><stop offset=".262" stop-color="#8a715e"/><stop offset=".705" stop-color="#715344"/><stop offset="1" stop-color="#273445"/></linearGradient><linearGradient id="i"><stop offset="0" stop-color="#3889e9"/><stop offset="1" stop-color="#5ea5fb"/></linearGradient><linearGradient gradientUnits="userSpaceOnUse" gradientTransform="translate(-.081 -.48)" y2="533.28" y1="525.28" x2="416.65" x1="408.65" id="j"><stop offset="0" stop-opacity=".065"/><stop offset="1" stop-opacity="0"/></linearGradient><linearGradient gradientUnits="userSpaceOnUse" gradientTransform="translate(-826.36 -1107.5) scale(2.1429)" y2="517.8" y1="545.8" x2="399.57" x1="399.57" id="k"><stop offset="0" stop-color="#3889e9"/><stop offset="1" stop-color="#5ea5fb"/></linearGradient><linearGradient id="m"><stop offset="0" stop-color="#f60"/><stop offset="1" stop-opacity="0" stop-color="#f60"/></linearGradient><filter height="1.101" width="1.148" y="-.051" x="-.074" id="p" color-interpolation-filters="sRGB"><feGaussianBlur stdDeviation=".195"/></filter></defs><g transform="translate(-138.409 -15.5)" opacity=".445" fill="none" stroke="#000" stroke-linecap="round" stroke-linejoin="round" stroke-opacity=".031"><circle cx="202.159" cy="79.683" r="60.269" stroke-width=".5"/><circle r="60.269" cy="79.683" cx="202.159"/><circle cx="202.159" cy="79.683" r="60.269" stroke-width="1.5"/><circle r="60.269" cy="79.683" cx="202.159" stroke-width="2"/><circle cx="202.159" cy="79.683" r="60.269" stroke-width="2.5"/><circle r="60.269" cy="79.683" cx="202.159" stroke-width="3"/><circle cx="202.159" cy="79.683" r="60.269" stroke-width="3.5"/><circle r="60.269" cy="79.683" cx="202.159" stroke-width="4"/><circle cx="202.159" cy="79.683" r="60.269" stroke-width="4.5"/><circle r="60.269" cy="79.683" cx="202.159" stroke-width="5.5"/><circle cx="202.159" cy="79.683" r="60.269" stroke-width="6.5"/></g><circle cx="63.433" cy="63.547" r="60.269" fill="url(#n)" stroke-width=".773" stroke-linecap="round" stroke-linejoin="round"/><circle r="54.093" cy="63.547" cx="63.433" fill="url(#o)" stroke-width=".694" stroke-linecap="round" stroke-linejoin="round"/><path transform="matrix(7.53506 0 0 7.53506 -4.347 -3.279)" d="M11.133 6.37c-.016.08-.158.239-.238.239H8.517a.341.341 0 0 0-.317.317v.159a.34.34 0 0 0 .317.317h2.061c.159 0 .278.142.238.317a9.38 9.38 0 0 1-.238.793c-.079.198-.158.476-.475.476H8.517c-.238 0-.317.174-.476.396-.143.174-1.427 1.982-1.427 1.982v-5.47c0-.477.317-.873.872-.873h3.647c.159 0 .278.159.238.317zM7.486 4.23c-1.269 0-1.665.317-1.665 1.665v7.216c0 .317.119.396.198.396.08 0 .182-.087.278-.238.063-.095 2.458-3.489 2.458-3.489H10.3c.793 0 .872-.475 1.03-1.03.08-.397.556-2.22.793-3.33.159-.794-.079-1.19-.872-1.19z" opacity=".15" filter="url(#p)"/><path d="M79.54 44.72c-.12.602-1.19 1.8-1.793 1.8H59.83a2.57 2.57 0 0 0-2.389 2.389v1.198c0 1.19 1.19 2.389 2.389 2.389h15.53c1.198 0 2.094 1.07 1.793 2.388a70.679 70.679 0 0 1-1.794 5.976c-.595 1.491-1.19 3.586-3.579 3.586H59.83c-1.794 0-2.389 1.311-3.587 2.984-1.077 1.311-10.752 14.935-10.752 14.935V41.148c0-3.594 2.388-6.578 6.57-6.578h27.48c1.199 0 2.095 1.198 1.794 2.388zM52.06 28.593c-9.562 0-12.546 2.389-12.546 12.546v54.373c0 2.389.897 2.984 1.492 2.984.603 0 1.372-.655 2.095-1.793.475-.716 18.521-26.29 18.521-26.29h11.642c5.975 0 6.57-3.58 7.76-7.761.604-2.992 4.19-16.728 5.976-25.092 1.198-5.983-.595-8.967-6.57-8.967z" fill="#fff" stroke-width="3.78"/></svg>