<svg xmlns="http://www.w3.org/2000/svg" xmlns:xlink="http://www.w3.org/1999/xlink" width="128" height="128" viewBox="0 0 128 128"><defs><linearGradient id="a"><stop offset="0" stop-color="#0cbbff"/><stop offset="1" stop-color="#2452e6"/></linearGradient><linearGradient xlink:href="#a" id="b" x1="69.325" y1="24.413" x2="67.338" y2="125.935" gradientUnits="userSpaceOnUse" gradientTransform="matrix(.93526 0 0 .93526 .912 -.585)"/></defs><circle cx="64.614" cy="64.172" r="59.877" fill="url(#b)" stroke="#eee" stroke-width="5.612"/><path d="M28.504 35.834c-.8-.267-1.335.537-1.33 3.211.036 8.7.191 18.476.69 27.321 4.3-1.371 9.073-3.623 13.064-7.459-2.503-6.811-5.618-13.749-9.499-19.862-1.063-1.605-2.126-2.943-2.925-3.21zm72.22 0c-.799.268-1.868 1.606-2.932 3.211-3.88 6.113-6.99 13.05-9.492 19.862 3.992 3.836 8.764 6.088 13.065 7.46.498-8.846.654-18.622.69-27.322.005-2.674-.531-3.478-1.33-3.21zM51.076 56.762c-2.508 0-5.182 1.003-7.856 3.678-10.698 10.697-26.743 10.697-26.743 10.697 16.045 10.697 32.091 10.697 48.137 0 16.046 10.697 32.092 10.697 48.138 0 0 0-16.046 0-26.743-10.697-10.698-10.698-21.395 5.348-21.395 5.348s-6.017-9.026-13.538-9.026zm-21.973 23.24c.373 2.74.793 5.257 1.323 7.257.745 2.496.89 5.615 4.541 5.272h11.477c1.048 0 2.117-1.072 2.131-2.91-.189-2.057-.646-5.065-1.365-8.637-6.034 1.053-12.094.73-18.107-.982zm71.022 0c-6.013 1.713-12.073 2.035-18.107.982-.718 3.572-1.176 6.58-1.365 8.636.014 1.84 1.084 2.911 2.131 2.911h11.478c3.65.343 3.796-2.776 4.54-5.272.53-2 .95-4.518 1.323-7.257z" fill="#fff" stroke-width="3.566"/></svg>