<svg xmlns="http://www.w3.org/2000/svg" xmlns:xlink="http://www.w3.org/1999/xlink" height="136.533" viewBox="0 0 136.53333 136.53333" width="136.533"><defs><linearGradient id="b"><stop offset="0" stop-color="#23131c"/><stop offset="1" stop-color="#504553"/></linearGradient><linearGradient id="a"><stop offset="0" stop-color="#f1f1f1"/><stop offset="1" stop-color="#9ea19e"/></linearGradient><linearGradient xlink:href="#a" id="e" x1="73.909" y1="8.694" x2="79.909" y2="137.964" gradientUnits="userSpaceOnUse"/><linearGradient xlink:href="#b" id="f" x1="68.113" y1="119.965" x2="68.113" y2="8.781" gradientUnits="userSpaceOnUse"/></defs><linearGradient id="d"><stop offset="0" stop-color="#9760ef"/><stop offset="1" stop-color="#c054f2" stop-opacity="0"/></linearGradient><linearGradient id="c"><stop offset="0" stop-color="#17c7e7"/><stop offset="1" stop-color="#c054f2" stop-opacity="0"/></linearGradient><path style="line-height:normal;font-variant-ligatures:normal;font-variant-position:normal;font-variant-caps:normal;font-variant-numeric:normal;font-variant-alternates:normal;font-feature-settings:normal;text-indent:0;text-align:start;text-decoration-line:none;text-decoration-style:solid;text-decoration-color:#000;text-transform:none;text-orientation:mixed;shape-padding:0;isolation:auto;mix-blend-mode:normal" d="M68.113 2.217c-36.98 0-67.021 30.042-67.021 67.021 0 36.98 30.042 67.022 67.021 67.022 36.98 0 67.022-30.042 67.022-67.022 0-36.98-30.042-67.021-67.022-67.021z" color="#000" font-weight="400" font-family="sans-serif" white-space="normal" overflow="visible" fill="url(#e)" stroke-width="6"/><path d="M68.113 8.781c-33.39 0-60.457 27.068-60.457 60.457 0 33.39 27.068 60.458 60.457 60.457 33.39 0 60.458-27.067 60.457-60.457 0-33.39-27.067-60.457-60.457-60.457z" fill="url(#f)" stroke-width="3.8" stroke-linecap="round" stroke-linejoin="round" stroke-opacity=".053" paint-order="fill markers stroke"/><path d="M68.113 31.443a37.795 37.795 0 0 0-37.795 37.795 37.795 37.795 0 0 0 30.233 37.028c-.005-3.346-.007-6.522-.012-7.342-9.95 2.227-11.64-4.942-11.64-4.942-1.628-4.258-3.972-5.392-3.972-5.392-3.248-2.285.243-2.24.243-2.24 3.59.26 5.481 3.801 5.481 3.801 3.191 5.631 7.92 4.007 9.958 3.063.326-2.38.947-4.01 1.968-4.93-7.943-.93-15.251-4.093-15.251-18.215 0-4.023.35-7.314 2.639-9.888-.37-.933-1.601-4.68.347-9.752 3.42-.16 6.441 3.584 9.485 5.016 3.273-.953 7.13-1.352 10.095-1.325 2.998.028 6.99.49 9.748 1.325 2.302-1.616 5.82-5.225 9.56-5.097h.003c.383.019.572.081.572.081 1.952 5.073.721 8.82.355 9.752 2.292 2.574 2.546 5.865 2.546 9.888 0 14.158-7.797 17.277-15.764 18.189 1.283 1.138 2.555 3.387 2.555 6.824 0 1.716-.005 5.853-.012 10.165a37.795 37.795 0 0 0 26.453-36.009 37.795 37.795 0 0 0-37.795-37.795zm-7.562 74.823a37.795 37.795 0 0 0 3.266.502 37.795 37.795 0 0 1-3.266-.502zm18.724-.96a37.795 37.795 0 0 1-3.27.849 37.795 37.795 0 0 0 3.27-.85zm-3.854.978a37.795 37.795 0 0 1-2.808.436 37.795 37.795 0 0 0 2.808-.436zm-11.128.554a37.795 37.795 0 0 0 2.355.121 37.795 37.795 0 0 1-2.355-.121zm7.25.01a37.795 37.795 0 0 1-3.43.185 37.795 37.795 0 0 0 3.43-.184z" fill="#fff" stroke-width="1.89"/></svg>