<svg xmlns="http://www.w3.org/2000/svg" xmlns:xlink="http://www.w3.org/1999/xlink" width="128" height="128" viewBox="0 0 33.866666 33.866668"><defs><linearGradient id="h"><stop offset="0" stop-color="#006763"/><stop offset="1" stop-color="#00b39d"/></linearGradient><linearGradient id="g"><stop offset="0" stop-color="#fff"/><stop offset="1" stop-color="#f0f0f0"/></linearGradient><linearGradient id="f"><stop offset="0" stop-color="#19191b"/><stop offset="1" stop-color="#19191b" stop-opacity="0"/></linearGradient><linearGradient id="a"><stop offset="0" stop-color="#0068e0"/><stop offset="1" stop-color="#00acf4"/></linearGradient><filter id="b" width="100%" height="100%" x="0%" y="0%"><feColorMatrix in="SourceGraphic" values="0 0 0 0 1 0 0 0 0 1 0 0 0 0 1 0 0 0 1 0"/></filter><clipPath id="c"><path d="M0 0h384v384H0z"/></clipPath><clipPath id="d"><path d="M0 0h384v384H0z"/></clipPath><linearGradient y2="71.02" x2="84.091" y1="117.042" x1="122.341" gradientUnits="userSpaceOnUse" id="l" xlink:href="#e" gradientTransform="matrix(.26458 0 0 .26458 -73.214 269.229)"/><linearGradient id="e"><stop offset="0" stop-color="#d5dada"/><stop offset="1" stop-color="#f1f1f1"/></linearGradient><radialGradient xlink:href="#f" id="o" cx="-18.078" cy="290.316" fx="-18.078" fy="290.316" r="7.296" gradientTransform="matrix(-.61155 -.87112 .9409 -.6497 -258.593 462.13)" gradientUnits="userSpaceOnUse"/><linearGradient xlink:href="#e" id="p" x1="-16.155" y1="296.842" x2="-20.538" y2="284.163" gradientUnits="userSpaceOnUse" gradientTransform="translate(.12 .487)"/><linearGradient xlink:href="#g" id="m" x1="-39.014" y1="265.756" x2="-21.756" y2="285.733" gradientUnits="userSpaceOnUse"/><linearGradient xlink:href="#h" id="n" x1="-27.415" y1="293.269" x2="-28.241" y2="266.701" gradientUnits="userSpaceOnUse"/><filter y="0%" x="0%" height="100%" width="100%" id="i"><feColorMatrix values="0 0 0 0 1 0 0 0 0 1 0 0 0 0 1 0 0 0 1 0" in="SourceGraphic"/></filter><clipPath id="j"><path d="M0 0h384v384H0z"/></clipPath><clipPath id="k"><path d="M0 0h384v384H0z"/></clipPath><linearGradient xlink:href="#e" id="q" gradientUnits="userSpaceOnUse" gradientTransform="matrix(.26458 0 0 .26458 -114.234 271.806)" x1="122.341" y1="117.042" x2="84.091" y2="71.02"/></defs><g transform="translate(0 -263.133)"><g transform="rotate(-8.765 81.188 -141.781) scale(.98654)" opacity=".389" fill="none" stroke="#000" stroke-linecap="round" stroke-linejoin="round" stroke-opacity=".039"><rect width="25.83" height="29.567" x="-61.945" y="253.765" rx="1.442" ry="1.442" stroke-width=".15" paint-order="fill markers stroke"/><rect ry="1.442" rx="1.442" y="253.765" x="-61.945" height="29.567" width="25.83" stroke-width=".3" paint-order="fill markers stroke"/><rect width="25.83" height="29.567" x="-61.945" y="253.765" rx="1.442" ry="1.442" stroke-width=".45" paint-order="fill markers stroke"/><rect ry="1.442" rx="1.442" y="253.765" x="-61.945" height="29.567" width="25.83" stroke-width=".6" paint-order="fill markers stroke"/><rect width="25.83" height="29.567" x="-61.945" y="253.765" rx="1.442" ry="1.442" stroke-width=".85" paint-order="fill markers stroke"/><rect ry="1.442" rx="1.442" y="253.765" x="-61.945" height="29.567" width="25.83" paint-order="fill markers stroke"/></g><rect width="25.483" height="29.169" x="-40.457" y="264.375" rx="1.423" ry="1.423" transform="rotate(-8.764)" fill="url(#m)" stroke-width=".363" stroke-linecap="round" stroke-linejoin="round" stroke-opacity=".148" paint-order="fill markers stroke"/><rect transform="rotate(-8.764)" ry="1.423" rx="1.423" y="265.756" x="-39.014" height="26.092" width="22.702" fill="url(#n)" stroke-width=".363" stroke-linecap="round" stroke-linejoin="round" stroke-opacity=".148" paint-order="fill markers stroke"/><path d="M22.738 274.678a.353.353 0 0 0-.481-.13.357.357 0 0 0-.166.342c.006.043.012.085.045.11.453.813.775 1.719.922 2.709.594 4-1.896 7.766-5.696 8.836l-.548-3.69c.234-.078.45-.182.666-.287l.46 3.096a7.32 7.32 0 0 0 4.468-7.859 7.326 7.326 0 0 0-4.69-5.792.332.332 0 0 0-.443.225c-.022.047-.013.103-.005.16.02.127.107.23.214.271a6.645 6.645 0 0 1 4.247 5.25 6.643 6.643 0 0 1-3.262 6.742l-.407-2.743a1.05 1.05 0 0 0 .586-1.113 1.023 1.023 0 0 0-.657-.827c-.112-2.411 1.07-1.936.957-2.7l-.065-.438c-.168-1.131-3.33-4.433-4.574-4.335l-.226.034c-1.217.267-3.285 4.345-3.117 5.476l.065.439c.111.749 1.093-.033 1.7 2.305-.283.23-.43.598-.374.98.07.467.439.816.884.895l.407 2.743c-2.574-.6-4.666-2.718-5.08-5.503a6.645 6.645 0 0 1 2.54-6.258.345.345 0 0 0 .074-.473c-.061-.121-.2-.173-.326-.154a.388.388 0 0 0-.164.067 7.326 7.326 0 0 0-2.804 6.905c.508 3.421 3.293 5.926 6.59 6.232l-.46-3.096c.237.037.473.074.72.08l.548 3.69a7.98 7.98 0 0 1-7.924-9.675.342.342 0 0 0-.25-.41.397.397 0 0 0-.13-.01.352.352 0 0 0-.292.274 8.428 8.428 0 0 0-.117 3.11 8.664 8.664 0 0 0 9.5 7.346l-.644-4.34c.13-.005.356-.038.356-.038s.226-.034.351-.068l.644 4.34a8.664 8.664 0 0 0 6.957-9.789 8.922 8.922 0 0 0-.999-2.93zm-5.72 5.85a.702.702 0 0 1 .463-.286c.198-.03.38.03.526.138a.702.702 0 0 1 .286.464c.03.197-.03.38-.139.526a.702.702 0 0 1-.463.285.7.7 0 0 1-.526-.138.702.702 0 0 1-.286-.463.702.702 0 0 1 .139-.527zm-3.02 1.459a.702.702 0 0 1-.464.286.7.7 0 0 1-.526-.14.649.649 0 0 1-.286-.462.702.702 0 0 1 .14-.527.702.702 0 0 1 .462-.285c.198-.03.38.03.527.138a.702.702 0 0 1 .285.464c.016.2-.03.38-.138.526z" fill="#fff" stroke-width=".143"/><path d="M26.068 282.286a7.102 7.25 0 0 0-1.416.076 7.102 7.25 0 0 0-5.94 8.267 7.102 7.25 0 0 0 1.376 3.286l8.432-1.3a1.42 1.42 0 0 0 1.19-1.623l-1.257-8.151a7.102 7.25 0 0 0-2.385-.555z" opacity=".097" fill="#343434" fill-opacity=".205" stroke-width="2.697" stroke-linecap="round" stroke-linejoin="round" stroke-opacity=".038" paint-order="fill markers stroke"/><path d="M25.226 279.509a8.97 9.272 0 0 0-1.788.097 8.97 9.272 0 0 0-7.502 10.574 8.97 9.272 0 0 0 1.692 4.143l10.614-1.636a1.747 1.747 0 0 0 1.464-1.997l-1.625-10.54a8.97 9.272 0 0 0-2.855-.641z" fill="url(#o)" stroke-width=".907" stroke-linecap="round" stroke-linejoin="round" stroke-opacity=".038" paint-order="fill markers stroke"/><circle transform="rotate(-8.745)" r="7.154" cy="290.497" cx="-17.886" fill="url(#p)" stroke-width=".711" stroke-linecap="round" stroke-linejoin="round" stroke-opacity=".038" paint-order="fill markers stroke"/><path d="M21.902 285.007l.946.553a1.639 1.639 0 0 0 .783 1.863l-.02 3.211a1.62 1.62 0 1 0 1.301-.093l.019-2.992c.243-.078.465-.213.647-.392l1.897 1.11a1.62 1.62 0 1 0 .7-1.097l-2.111-1.235a1.639 1.639 0 0 0-2.391-1.398l-.754-.44z" fill="#333" stroke-width="7" stroke-linecap="round" stroke-linejoin="bevel" stroke-opacity=".059" paint-order="stroke fill markers"/></g></svg>