<svg xmlns="http://www.w3.org/2000/svg" style="isolation:isolate" viewBox="0 0 256 256" width="256" height="256"><g filter="url(#a)"><linearGradient id="b" x1=".51" y1="1.06" x2=".512" y2=".218" gradientTransform="matrix(244.648 0 0 228.339 6.343 13.28)" gradientUnits="userSpaceOnUse"><stop offset=".009" stop-color="#f5b93a"/><stop offset=".996" stop-color="#e99355"/><stop offset="1" stop-color="#e67f54"/></linearGradient><path d="M166.351 13.28c74.056 0 84.64 10.557 84.64 84.544v59.251c0 73.986-10.584 84.544-84.64 84.544H90.982c-74.056 0-84.639-10.558-84.639-84.544V97.824c0-73.987 10.583-84.544 84.639-84.544z" fill="url(#b)"/></g><defs><filter id="a" x="-200%" y="-200%" width="400%" height="400%" filterUnits="objectBoundingBox" color-interpolation-filters="sRGB"><feGaussianBlur in="SourceGraphic" stdDeviation="4.294"/><feOffset dy="4" result="pf_100_offsetBlur"/><feFlood flood-color="#000" flood-opacity=".4"/><feComposite in2="pf_100_offsetBlur" operator="in" result="pf_100_dropShadow"/><feBlend in="SourceGraphic" in2="pf_100_dropShadow"/></filter></defs><path d="M8.476 55.74C6.729 66.667 6.158 80.255 6.158 97.205v59.251c0 73.986 10.584 84.544 84.64 84.544h75.369c55.135 0 75.078-5.874 81.675-39.397L8.476 55.74z" fill="#FFF" opacity=".05"/><g opacity=".3"><linearGradient id="c" x1=".5" y1="1" x2=".018" y2="1" gradientTransform="matrix(181.196 0 0 198.29 42.103 28.855)" gradientUnits="userSpaceOnUse"><stop offset="0%" stop-opacity=".972" stop-color="#fff"/><stop offset="64.572%" stop-opacity=".916" stop-color="#fff"/><stop offset="100%" stop-opacity="0" stop-color="#fff"/></linearGradient><path d="M42.103 224.059a27.321 27.321 0 0 0 3.238 3.086h7.018v-17.094H42.103v14.008zm0-178.11h10.256V28.855h-7.018a27.321 27.321 0 0 0-3.238 3.086v14.008zm17.094 181.196h10.256v-17.094H59.197v17.094zm0-181.196h10.256V28.855H59.197v17.094zm17.094 181.196h10.256v-17.094H76.291v17.094zm0-181.196h10.256V28.855H76.291v17.094zm17.094 181.196h10.256v-17.094H93.385v17.094zm0-181.196h10.256V28.855H93.385v17.094zm17.094 181.196h10.256v-17.094h-10.256v17.094zm0-181.196h10.256V28.855h-10.256v17.094zm17.094 181.196h10.256v-17.094h-10.256v17.094zm0-181.196h10.256V28.855h-10.256v17.094zm17.094 181.196h10.256v-17.094h-10.256v17.094zm0-181.196h10.256V28.855h-10.256v17.094zm17.094 181.196h10.256v-17.094h-10.256v17.094zm0-181.196h10.256V28.855h-10.256v17.094zm17.094 181.196h10.256v-17.094h-10.256v17.094zm0-181.196h10.256V28.855h-10.256v17.094zm17.094 181.196h10.256v-17.094h-10.256v17.094zm0-181.196h10.256V28.855h-10.256v17.094zm17.094 181.196h7.018a27.321 27.321 0 0 0 3.238-3.086v-14.008h-10.256v17.094zm0-181.196h10.256V31.941a27.321 27.321 0 0 0-3.238-3.086h-7.018v17.094z" fill="url(#c)"/></g><g opacity=".2" filter="url(#d)"><linearGradient id="e" x1=".639" y1=".996" x2=".144" y2=".467" gradientTransform="matrix(145 0 0 107.9732 55.201 71.243)" gradientUnits="userSpaceOnUse"><stop offset="14.256%"/><stop offset="61.845%"/><stop offset="85.256%"/></linearGradient><path d="M183.587 179.213c6.479.081 10.832-1.374 13.066-4.054 2.346-2.793 3.548-7.375 3.548-13.742v-58.054c0-6.367-1.202-10.948-3.548-13.741-2.234-2.681-6.587-4.055-13.066-4.055h-15.386l-20.293-14.324-20.292 14.324H71.814c-6.478 0-10.831 1.374-13.065 4.055-2.346 2.793-3.548 7.374-3.548 13.741v58.054c0 6.367 1.202 10.949 3.548 13.742 2.234 2.68 6.587 4.054 13.065 4.054h111.773z" fill="url(#e)"/></g><defs><filter id="d" x="-200%" y="-200%" width="400%" height="400%" filterUnits="objectBoundingBox" color-interpolation-filters="sRGB"><feGaussianBlur stdDeviation="10.766"/></filter></defs><defs><filter id="f" x="-200%" y="-200%" width="400%" height="400%" filterUnits="objectBoundingBox" color-interpolation-filters="sRGB"><feGaussianBlur stdDeviation="1.346"/></filter></defs><path d="M183.587 179.213c6.479.081 10.832-1.374 13.066-4.054 2.346-2.793 3.548-7.375 3.548-13.742v-58.054c0-6.367-1.202-10.948-3.548-13.741-2.234-2.681-6.587-4.055-13.066-4.055h-15.386l-20.293-14.324-20.292 14.324H71.814c-6.478 0-10.831 1.374-13.065 4.055-2.346 2.793-3.548 7.374-3.548 13.741v58.054c0 6.367 1.202 10.949 3.548 13.742 2.234 2.68 6.587 4.054 13.065 4.054h111.773z" opacity=".1" filter="url(#f)"/><linearGradient id="g" x1=".369" y1=".225" x2=".364" y2=".573" gradientTransform="matrix(145 0 0 79.605 55.201 72.149)" gradientUnits="userSpaceOnUse"><stop offset="1.739%" stop-opacity=".996" stop-color="#f2d0dd"/><stop offset="98.696%" stop-color="#f7edf1"/></linearGradient><path d="M200.201 151.754v-47.485c0-6.367-1.202-10.948-3.547-13.74-2.234-2.681-6.588-4.055-13.067-4.055h-15.386l-20.292-14.325-20.293 14.325H71.814c-6.478 0-10.832 1.374-13.066 4.055-2.346 2.792-3.547 7.373-3.547 13.74v47.485h145z" fill="url(#g)"/><linearGradient id="h" x1=".639" y1=".99" x2=".639" y2=".033" gradientTransform="matrix(145 0 0 108.60806 55.201 72.149)" gradientUnits="userSpaceOnUse"><stop offset="2.174%" stop-color="#fcfafb"/><stop offset="100%" stop-color="#f0dfe5"/></linearGradient><path d="M183.587 180.754c6.479.081 10.832-1.448 13.066-4.129 2.346-2.793 3.548-7.374 3.548-13.741v-56.381l-32-20.03-20.293-14.324-20.292 14.324-72.415 54.987v21.424c0 6.367 1.202 10.948 3.548 13.741 2.234 2.681 6.586 4.129 13.065 4.129h111.773z" fill="url(#h)"/><g opacity=".1"><linearGradient id="i" x1=".388" y1=".635" x2=".286" y2=".534" gradientTransform="matrix(72.415 0 0 54.987 55.201 86.473)" gradientUnits="userSpaceOnUse"><stop offset="0%" stop-color="#f582ae"/><stop offset="100%" stop-opacity="0" stop-color="#83b9f5"/></linearGradient><path d="M55.201 141.46l72.415-54.987H71.814c-6.479 0-10.831 1.374-13.065 4.055-2.346 2.793-3.548 7.374-3.548 13.741v37.191z" fill="url(#i)"/></g><g opacity=".1"><linearGradient id="j" x1=".632" y1=".895" x2=".822" y2=".739" gradientTransform="matrix(32 0 0 20.18486 168.201 86.318)" gradientUnits="userSpaceOnUse"><stop offset="1.739%" stop-color="#f582ae"/><stop offset="100%" stop-opacity="0" stop-color="#83b9f5"/></linearGradient><path d="M200.201 106.503v-2.234c0-6.367-1.202-10.948-3.548-13.741-2.234-2.681-6.631-4.813-13.066-4.055h-15.386l32 20.03z" fill="url(#j)"/></g><path d="M171.201 151.754v-7.25h-87v7.25h87zm0-21.75v-7.25h-43.5v7.25h43.5z" fill="#e67f54"/><path d="M183.587 180.754c6.479.081 10.833-1.449 13.067-4.13 2.345-2.792 3.547-7.374 3.547-13.741v-1.812c0 6.367-1.202 10.948-3.547 13.741-2.234 2.68-6.588 4.21-13.067 4.129H71.814c-6.478 0-10.832-1.449-13.066-4.129-2.346-2.793-3.547-7.374-3.547-13.741v1.812c0 6.368 1.201 10.949 3.547 13.741 2.234 2.681 6.588 4.13 13.066 4.13h111.773z" fill="#FFF"/></svg>