<svg xmlns="http://www.w3.org/2000/svg" xmlns:xlink="http://www.w3.org/1999/xlink" height="48" viewBox="0 0 48 48" width="48"><defs><linearGradient id="g"><stop offset="0" stop-color="#7ca1f0"/><stop offset=".543" stop-color="#5eb6a7"/><stop offset="1" stop-color="#81b295"/></linearGradient><linearGradient id="f"><stop offset="0"/><stop offset="1" stop-opacity="0"/></linearGradient><linearGradient id="e"><stop offset="0" stop-color="#176875"/><stop offset="1" stop-color="#186a77"/></linearGradient><linearGradient id="d"><stop offset="0" stop-color="#fff"/><stop offset="1" stop-color="#fff"/></linearGradient><linearGradient id="b"><stop offset="0" stop-color="#b6b6b6"/><stop offset=".482" stop-color="#fff"/><stop offset="1" stop-color="#cfcfcf"/></linearGradient><linearGradient id="a"><stop offset="0" stop-color="#165dc2"/><stop offset="1" stop-color="#1680c2"/></linearGradient><linearGradient id="c"><stop offset="0" stop-color="#d0611f"/><stop offset="1" stop-color="#f77a2c"/></linearGradient><linearGradient xlink:href="#d" id="i" x1="23.28" y1="46.72" x2="23.28" y2="2.72" gradientUnits="userSpaceOnUse" gradientTransform="translate(.72 -.72)"/><filter id="h" x="-.024" width="1.048" y="-.024" height="1.048" color-interpolation-filters="sRGB"><feGaussianBlur stdDeviation=".46"/></filter><linearGradient xlink:href="#g" id="j" x1="9.199" y1="10.775" x2="37.694" y2="38.707" gradientUnits="userSpaceOnUse"/></defs><circle r="23" cy="24" cx="24" style="isolation:auto;mix-blend-mode:normal;marker:none" transform="translate(.601 .601) scale(.97494)" color="#000" overflow="visible" fill-opacity=".235" filter="url(#h)" enable-background="accumulate"/><circle style="isolation:auto;mix-blend-mode:normal;marker:none" cx="24" cy="24" r="22" color="#000" overflow="visible" fill="url(#i)" stroke-width=".5" stroke-opacity=".702" enable-background="accumulate"/><path fill="none" d="M28.345 35.163h25.713v25.713H28.345z"/><path style="isolation:auto;mix-blend-mode:normal;marker:none" d="M24 3.76C12.822 3.76 3.76 12.822 3.76 24c0 11.178 9.07 20.664 20.24 20.24 11.528-.437 20.452-9.326 20.24-20.24C44.024 12.824 35.178 3.76 24 3.76z" color="#000" overflow="visible" fill="url(#j)" stroke-width=".5" stroke-opacity=".702" enable-background="accumulate"/><title transform="matrix(.98598 0 0 .98598 26.745 9.564)">music</title><path d="M31.816 12.283c.795 0 1.44.645 1.44 1.44v14.861c0 3.658-3.166 4.83-4.802 4.83-4.777 0-4.709-5.678 0-5.763.99 0 2.852-.192 2.883-1.362 0 0 .257-5.415 0-6.113-.698-.11-11.195 3.154-11.526 3.558-.037.955 0 8.69 0 8.69 0 3.623-3.166 4.83-4.802 4.83-4.813 0-4.71-5.676 0-5.761.99 0 2.642-.262 2.88-1.106v-12.82c0-.63.42-1.187 1.02-1.382l12.487-3.841c.135-.045.27-.061.42-.061z" style="isolation:auto;mix-blend-mode:normal;marker:none" color="#000" overflow="visible" fill-opacity=".235" stroke-width=".5" stroke-opacity=".702" enable-background="accumulate"/><path style="isolation:auto;mix-blend-mode:normal;marker:none" d="M31.816 11.59c.795 0 1.44.645 1.44 1.44V27.89c0 3.659-3.166 4.831-4.802 4.831-4.777 0-4.709-5.679 0-5.763.99 0 2.852-.192 2.883-1.362 0 0 .257-5.415 0-6.113-.698-.11-11.195 3.154-11.526 3.558-.037.955 0 8.69 0 8.69 0 3.622-3.166 4.83-4.802 4.83-4.813 0-4.71-5.677 0-5.762.99 0 2.642-.261 2.88-1.105V16.873c0-.63.42-1.186 1.02-1.381l12.487-3.842c.135-.045.27-.06.42-.06z" color="#000" overflow="visible" fill="#fff" stroke-width=".5" stroke-opacity=".702" enable-background="accumulate"/><path d="M24 4C12.954 4 4 12.954 4 24s8.962 20.419 20 20c11.392-.432 20.209-9.215 20-20-.214-11.044-8.954-20-20-20z" style="isolation:auto;mix-blend-mode:normal;marker:none" color="#000" overflow="visible" fill="none" stroke="#000" stroke-width=".494" stroke-opacity=".235" enable-background="accumulate"/></svg>