<svg xmlns="http://www.w3.org/2000/svg" xmlns:xlink="http://www.w3.org/1999/xlink" height="136.533" viewBox="0 0 136.53333 136.53333" width="136.533"><defs><linearGradient id="a"><stop offset="0" stop-color="#3b88bf"/><stop offset="1" stop-color="#2f0f71"/></linearGradient><linearGradient xlink:href="#a" id="b" x1="71.355" y1="128.533" x2="68.287" y2="15.141" gradientUnits="userSpaceOnUse"/></defs><linearGradient id="h" gradientUnits="userSpaceOnUse" x1="7.232" x2="126.698" y1="101.273" y2="101.273"><stop offset="0" stop-color="#fc3a83"/><stop offset="1" stop-color="#a42cc3"/></linearGradient><linearGradient id="d" gradientUnits="userSpaceOnUse" x1="94.868" x2="66.52" y1="67.153" y2="133.973"><stop offset="0" stop-color="#18cad9"/><stop offset="1" stop-color="#41d1e6"/></linearGradient><linearGradient id="e" gradientUnits="userSpaceOnUse" x1="99.811" x2="44.749" y1="117.83" y2="35.1"><stop offset="0" stop-color="#0fb19d"/><stop offset="1" stop-color="#995086" stop-opacity="0"/></linearGradient><filter id="j" color-interpolation-filters="sRGB" height="1.099" width="1.032" x="-.016" y="-.049"><feGaussianBlur stdDeviation=".766"/></filter><linearGradient id="g" gradientUnits="userSpaceOnUse" x1="82.551" x2="75.522" y1="129.673" y2="61.341"><stop offset="0" stop-color="#01b7e9"/><stop offset="1" stop-color="#4272e9"/></linearGradient><linearGradient id="f" gradientUnits="userSpaceOnUse" x1="-16.505" x2="51.187" y1="117.835" y2="44.291"><stop offset="0" stop-color="#d97482"/><stop offset="1" stop-color="#d97482" stop-opacity="0"/></linearGradient><linearGradient id="c" gradientUnits="userSpaceOnUse" x1="63.305" x2="57.453" y1="113.217" y2="53.855"><stop offset="0" stop-color="#48cdf9"/><stop offset="1" stop-color="#48cdf9" stop-opacity="0"/></linearGradient><linearGradient id="k" gradientUnits="userSpaceOnUse" x1="78.895" x2="88.41" y1="34.123" y2="80.816"><stop offset="0" stop-color="#69f8e8"/><stop offset="1" stop-color="#69f8e8" stop-opacity="0"/></linearGradient><linearGradient id="i" gradientUnits="userSpaceOnUse" x1="39.413" x2="30.621" y1="67.226" y2="94.277"><stop offset="0" stop-color="#ff68f2"/><stop offset="1" stop-color="#ffe2fc" stop-opacity="0"/></linearGradient><circle cx="68.953" cy="68.366" fill="url(#b)" r="64.022" stroke="#eee" stroke-width="6"/><circle cx="68.953" cy="68.366" r="64.022" fill="url(#c)"/><path d="M13.295 96.034c39.147-23.113 78.295-41.398 117.442-19.67-8.57 67.073-93.452 74.456-117.442 19.67z" fill="url(#d)"/><circle cx="68.953" cy="68.366" r="64.022" fill="url(#e)"/><path d="M6.911 70.779c35.186-16.307 73.347 20.939 110.53 40.588C77.403 157.076 5.126 132.73 6.912 70.78z" fill="#8d18d9" fill-opacity=".7"/><circle cx="68.953" cy="68.366" r="64.022" fill="url(#f)"/><path d="M13.295 96.034C73.507 37.14 102.22 59.532 129.27 86.216c-29.615 75.15-105.3 47.858-115.975 9.818z" fill="url(#g)"/><path d="M50.332 130.17c32.742-30.62 51.99-29.558 67.11-18.803 8.409-5.974 8.244-13.663 9.256-21.116-59.222 33.188-71.061-42.839-119.466-8.967 4.325 18.526 5.258 37.807 43.1 48.885z" fill="url(#h)" opacity=".625"/><path d="M10.628 95.014c38.998-17.637 77.306-42.863 120.109-18.65-9.939 58.664-88.988 82.836-120.109 18.65z" fill="#08cdb7" fill-opacity=".373"/><path d="M88.41 80.816c-14.712-.04-21.757 10.93-37.576 18.73 23.638 12.281 43.302 34.902 72.736 1.505a41.714 41.714 0 0 0 1.815-6.04C108.235 84.628 97.009 80.84 88.41 80.817zm35.16 20.235a40.375 40.375 0 0 1-3.082 6.3 77.276 77.276 0 0 0 5.1-8.658c-.678.817-1.35 1.6-2.018 2.358zm-3.082 6.3c-2.585 3.797-5.379 7.113-8.34 9.977 3.259-2.894 6.082-6.218 8.34-9.976zm-8.34 9.977c-11.872 10.547-29.492 15.4-46.418 14.813 16.064 1.994 32.946-1.777 46.418-14.813zM65.73 132.141c-18.816-2.337-36.495-12.573-46.232-25.086-.16.007-.315.018-.477.025 7.154 15.852 26.428 24.357 46.71 25.06zm-46.232-25.086c13.824-.645 23.618-3.702 31.336-7.508-7.285-3.785-14.946-6.593-23.389-6.469-4.477.066-9.174.954-14.15 2.955 1.328 3.77 3.452 7.487 6.203 11.022z" fill="#fff" fill-opacity=".468"/><path d="M50.332 130.17c32.742-30.62 51.99-29.558 67.11-18.803 8.409-5.974 8.244-13.663 9.256-21.116-59.222 33.188-71.061-42.839-119.466-8.967 4.325 18.526 5.258 37.807 43.1 48.885z" fill="url(#i)" opacity=".625"/><path d="M67.938 88.695c-4.946 3.442-10.173 7.434-17.104 10.852 7.665 3.982 14.913 9.045 22.21 12.94 18.123-10.832 31.035-9.432 41.749-2.87 2.834-2.321 5.751-5.133 8.777-8.566a41.714 41.714 0 0 0 1.815-6.04 213.44 213.44 0 0 0-3.676-2.173c-23.801 11.397-39.64 4.578-53.772-4.143zm55.632 12.356a40.375 40.375 0 0 1-3.082 6.3 77.276 77.276 0 0 0 4.992-8.455l.026-.107c-.65.78-1.295 1.535-1.936 2.262zm-3.082 6.3a67.906 67.906 0 0 1-2.869 3.88c.183-.133.347-.27.522-.405a41.107 41.107 0 0 0 2.347-3.474zm-69.654-7.804c-7.285-3.785-14.946-6.593-23.389-6.469-4.477.066-9.174.954-14.15 2.955 1.328 3.77 3.452 7.486 6.203 11.022 13.824-.645 23.618-3.702 31.336-7.508zm-31.336 7.508c-.16.007-.315.018-.477.025 5.313 11.772 17.317 19.483 31.448 22.965.417-.39.823-.756 1.236-1.135-13.27-4.467-24.947-12.525-32.207-21.855z" fill="#fff" fill-opacity=".821" opacity=".649"/><path d="M13.295 96.033C47.082 70.84 77.767 31.685 129.27 86.216" fill="none" filter="url(#j)" stroke="#edfcfd" stroke-width=".5"/><path d="M13.295 96.034C73.507 37.14 102.22 59.532 129.27 86.216c-29.615 75.15-105.3 47.858-115.975 9.818z" fill="#cbf4ff" fill-opacity=".323"/><path d="M10.628 95.014c38.998-17.637 77.306-42.863 120.109-18.65-9.939 58.664-88.988 82.836-120.109 18.65z" fill="url(#k)"/><circle cx="68.953" cy="68.366" fill="none" r="64.022" stroke="#eee" stroke-width="6"/></svg>