<svg xmlns="http://www.w3.org/2000/svg" xmlns:xlink="http://www.w3.org/1999/xlink" height="48" viewBox="0 0 48 48" width="48"><defs><linearGradient id="h"><stop offset="0" stop-opacity=".005"/><stop offset="1" stop-opacity=".215"/></linearGradient><linearGradient id="g"><stop offset="0" stop-color="#fff" stop-opacity=".188"/><stop offset="1" stop-color="#fff" stop-opacity=".356"/></linearGradient><linearGradient id="e"><stop offset="0" stop-color="#c3c3c3"/><stop offset="1" stop-color="#fff"/></linearGradient><linearGradient id="d"><stop offset="0" stop-color="#cacaca"/><stop offset=".479" stop-color="#fafafa"/><stop offset="1" stop-color="#bebebe"/></linearGradient><linearGradient id="c"><stop offset="0" stop-color="#737373"/><stop offset="1" stop-color="#919191"/></linearGradient><linearGradient id="b"><stop offset="0" stop-color="#c8c8c8"/><stop offset="1" stop-color="#bebebe"/></linearGradient><linearGradient id="f"><stop offset="0" stop-color="#afafaf"/><stop offset="1" stop-color="#f5f5f5"/></linearGradient><linearGradient id="a"><stop offset="0" stop-color="#858585"/><stop offset="1" stop-color="#a8a8a8"/></linearGradient><linearGradient xlink:href="#a" id="q" gradientUnits="userSpaceOnUse" x1="-26.73" y1="58.686" x2="-26.73" y2="22.726"/><filter id="k" x="-.124" width="1.247" y="-.124" height="1.247" color-interpolation-filters="sRGB"><feGaussianBlur stdDeviation="1.622"/></filter><linearGradient xlink:href="#b" id="n" gradientUnits="userSpaceOnUse" gradientTransform="matrix(0 -.86933 -.86933 0 44.794 44.934)" x1="42.827" y1="25.333" x2="38.187" y2="25.333"/><linearGradient xlink:href="#c" id="o" gradientUnits="userSpaceOnUse" gradientTransform="matrix(0 .86933 -.86933 0 44.748 2.65)" x1="44.422" y1="25.517" x2="38.187" y2="25.333"/><linearGradient xlink:href="#d" id="p" x1="38.08" y1="24.453" x2="10" y2="24.453" gradientUnits="userSpaceOnUse"/><radialGradient xlink:href="#e" id="m" cx="10.598" cy="24.111" fx="10.598" fy="24.111" r="8.693" gradientTransform="matrix(2.39264 0 0 2.35583 -15.598 -32.587)" gradientUnits="userSpaceOnUse"/><radialGradient xlink:href="#f" id="l" cx="38.614" cy="24.299" fx="38.614" fy="24.299" r="8.693" gradientTransform="matrix(.58282 0 0 2 15.255 -24.01)" gradientUnits="userSpaceOnUse"/><linearGradient xlink:href="#g" id="j" x1="23.547" y1="2.394" x2="23.547" y2="45.547" gradientUnits="userSpaceOnUse" gradientTransform="matrix(1.08735 0 0 1.08735 -2.096 -2.096)"/><linearGradient xlink:href="#h" id="i" x1="24.52" y1="46.613" x2="24.52" y2=".747" gradientUnits="userSpaceOnUse"/></defs><g color="#000" stroke-linecap="round"><rect ry="2.371" rx="0" y="1" x="1" height="46" width="46" style="isolation:auto;mix-blend-mode:normal;marker:none" overflow="visible" fill="url(#i)" stroke-width=".6" stroke-opacity=".236" paint-order="stroke fill markers" enable-background="accumulate"/><rect style="isolation:auto;mix-blend-mode:normal;marker:none" width="45.565" height="45.565" x="1.217" y="1.217" rx="0" ry="1.947" overflow="visible" fill="none" stroke="url(#j)" stroke-width=".435" paint-order="stroke fill markers" enable-background="accumulate"/><rect style="isolation:auto;mix-blend-mode:normal;marker:none" width="46" height="46" x="1" y="1" rx="2.08" ry="1.92" overflow="visible" fill="url(#i)" stroke-width=".6" stroke-opacity=".236" paint-order="stroke fill markers" enable-background="accumulate"/></g><g fill-rule="evenodd"><path d="M41.387 6.613v34.774L24 24z" fill="url(#l)"/><path d="M6.613 6.613v34.774L24 24z" fill="url(#m)"/><path d="M41.387 6.613H6.613L24 24z" fill="url(#n)"/><path d="M41.387 41.387H6.613L24 24z" fill="url(#o)"/></g><rect style="isolation:auto;mix-blend-mode:normal;marker:none" width="28" height="28" x="10" y="10" rx="0" ry="1.383" color="#000" overflow="visible" fill="url(#p)" stroke="#050505" stroke-width=".6" stroke-linecap="round" stroke-opacity=".183" paint-order="stroke fill markers" enable-background="accumulate"/><g><g style="line-height:0%"><path d="M17.64 14.026l-2.337 6.336h4.682zm-.972-1.697h1.953l4.853 12.733h-1.791l-1.16-3.267h-5.74l-1.16 3.267h-1.816z" style="line-height:23.4421711" font-size="17.466" font-weight="400" font-family="sans-serif" letter-spacing="0" word-spacing="0" fill-opacity=".41" stroke="#000" stroke-width=".349" stroke-opacity=".3"/></g><g style="line-height:0%"><path d="M34.19 29.917q-1 0-1.385.23-.386.228-.386.78 0 .44.287.7.292.255.79.255.686 0 1.098-.484.418-.49.418-1.297v-.184zm1.647-.34v2.866h-.825v-.763q-.283.458-.705.678-.421.215-1.031.215-.772 0-1.23-.43-.452-.436-.452-1.162 0-.848.565-1.279.57-.43 1.695-.43h1.158v-.081q0-.57-.377-.88-.373-.313-1.05-.313-.43 0-.839.103-.408.103-.785.31v-.763q.453-.175.88-.26.426-.09.83-.09 1.09 0 1.628.565.538.565.538 1.714z" style="line-height:4.83567286" font-size="9.186" font-weight="400" font-family="sans-serif" letter-spacing="0" word-spacing="0" fill="#676767" fill-opacity=".67" stroke-width=".155" stroke-opacity=".3"/></g><rect style="isolation:auto;mix-blend-mode:normal;marker:none" width="12" height="1" x="18" y="35" rx="0" ry="1" color="#000" overflow="visible" fill-opacity=".314" stroke-width=".618" stroke-linecap="round" stroke-opacity=".771" enable-background="accumulate"/></g></svg>