<svg xmlns="http://www.w3.org/2000/svg" xmlns:xlink="http://www.w3.org/1999/xlink" width="48" height="48" viewBox="0 0 48 48.000002"><defs><linearGradient id="e"><stop offset="0" stop-color="#cbedff"/><stop offset="1" stop-color="#496883"/></linearGradient><linearGradient xlink:href="#a" id="i" x1="62.631" y1="33.504" x2="47.059" y2="20.6" gradientUnits="userSpaceOnUse" gradientTransform="matrix(1.02909 0 0 1.02909 -21.727 -2.108)"/><linearGradient id="a"><stop offset="0" stop-color="#ad96cd"/><stop offset="1" stop-color="#d2e4fa" stop-opacity="0"/></linearGradient><linearGradient xlink:href="#b" id="h" x1="22.768" y1="34.653" x2="47.059" y2="20.6" gradientUnits="userSpaceOnUse" gradientTransform="matrix(1.02909 0 0 1.02909 -21.692 -2.173)"/><linearGradient id="b"><stop offset="0" stop-color="#549cbe"/><stop offset="1" stop-color="#d2e4fa" stop-opacity="0"/></linearGradient><linearGradient xlink:href="#c" id="g" x1="47.34" y1="34.742" x2="47.059" y2="20.6" gradientUnits="userSpaceOnUse" gradientTransform="matrix(1.02909 0 0 1.02909 -21.727 -2.213)"/><linearGradient id="c"><stop offset="0" stop-color="#041520" stop-opacity=".894"/><stop offset="1" stop-color="#d2e4fa" stop-opacity="0"/></linearGradient><radialGradient xlink:href="#d" id="f" cx="-10.43" cy=".916" fx="-10.43" fy=".916" r="22.045" gradientTransform="matrix(-.59247 .54465 -.46075 -.5012 16.722 11.721)" gradientUnits="userSpaceOnUse"/><linearGradient id="d"><stop offset="0" stop-color="#9ab9d8"/><stop offset="1" stop-color="#415bab"/></linearGradient><linearGradient xlink:href="#e" id="j" x1="26.251" y1="28.024" x2="25.986" y2="13.705" gradientUnits="userSpaceOnUse" gradientTransform="matrix(1.41704 0 0 1.41704 -10.506 -7.304)"/></defs><ellipse cx="24.4" cy="41.921" rx="16.151" ry="1.001" fill-opacity=".177" stroke-width=".59" stroke-miterlimit="0" stroke-opacity=".112"/><path d="M25.932 3.853c-4.69.005-8.94 2.529-10.86 6.448a5.717 5.717 0 0 0-.92-.08c-2.988 0-5.41 2.29-5.41 5.115 0 .417.056.832.164 1.236-4.477.71-7.658 4.106-7.658 8.703a8.577 8.577 0 0 0 8.597 8.595h27.632c4.762 0 9.247-6.654 9.142-11.415-.09-4.102-5.047-9.509-8.892-9.143-.796-5.411-5.834-9.452-11.795-9.459z" fill="url(#f)" stroke-width=".59" stroke-miterlimit="0" stroke-opacity=".112"/><path d="M25.828 5.006c-4.69.005-8.94 2.528-10.86 6.448a5.717 5.717 0 0 0-.92-.08c-2.99 0-5.411 2.29-5.411 5.115.001.417.056.832.164 1.236-4.477.71-7.657 4.106-7.657 8.703a8.577 8.577 0 0 0 8.596 8.595h27.633c4.762 0 9.246-6.654 9.14-11.415-.09-4.102-5.046-9.509-8.891-9.143-.795-5.411-5.834-9.452-11.794-9.459z" fill="#d2e4fa" stroke-width=".59" stroke-miterlimit="0" stroke-opacity=".112"/><path d="M25.932 4.797c-4.69.004-8.94 2.528-10.86 6.447a5.717 5.717 0 0 0-.92-.08c-2.988 0-5.41 2.29-5.41 5.115 0 .417.056.832.164 1.236-4.477.71-7.658 4.106-7.658 8.703a8.577 8.577 0 0 0 8.597 8.595h27.632c4.762 0 9.247-6.654 9.142-11.414-.09-4.102-5.047-9.51-8.892-9.144-.796-5.411-5.834-9.452-11.795-9.458z" fill="url(#g)" stroke-width=".59" stroke-miterlimit="0" stroke-opacity=".112"/><path d="M25.967 4.837c-4.69.004-8.94 2.528-10.86 6.448a5.716 5.716 0 0 0-.92-.08c-2.989 0-5.41 2.29-5.41 5.114 0 .417.056.832.164 1.237-4.477.71-7.658 4.106-7.658 8.703a8.577 8.577 0 0 0 8.597 8.594h27.632c4.762 0 9.246-6.654 9.141-11.414-.09-4.102-5.046-9.51-8.892-9.144-.795-5.41-5.833-9.451-11.794-9.458z" fill="url(#h)" stroke-width=".59" stroke-miterlimit="0" stroke-opacity=".112"/><path d="M25.932 4.901c-4.69.005-8.94 2.529-10.86 6.448a5.717 5.717 0 0 0-.92-.08c-2.988 0-5.41 2.29-5.41 5.115 0 .417.056.832.164 1.236-4.477.71-7.658 4.106-7.658 8.703a8.577 8.577 0 0 0 8.597 8.595h27.632c4.762 0 9.247-6.654 9.142-11.415-.09-4.102-5.047-9.509-8.892-9.143-.796-5.411-5.834-9.452-11.795-9.459z" fill="url(#i)" stroke-width=".59" stroke-miterlimit="0" stroke-opacity=".112"/><g stroke-linejoin="round"><circle cx="25.441" cy="22.137" r="10.27" fill="url(#j)"/><path d="M23.301 15.207h4.1v2.594l-1.141 2.075 1.141 2.179v7.262h-4.1v-5.546l1.469-1.52-1.469-2.535z" fill="#1d3142"/><path style="line-height:normal;text-indent:0;text-align:start;text-decoration-line:none;text-decoration-style:solid;text-decoration-color:#000;text-transform:none;block-progression:tb;isolation:auto;mix-blend-mode:normal" d="M60.458 6.708c-4.468 0-8.102 3.634-8.102 8.102s3.634 8.102 8.102 8.102 8.101-3.634 8.101-8.102-3.633-8.102-8.101-8.102zm0 1.354a6.74 6.74 0 0 1 6.748 6.748 6.74 6.74 0 0 1-6.748 6.748 6.74 6.74 0 0 1-6.748-6.748 6.74 6.74 0 0 1 6.748-6.748z" color="#000" font-weight="400" font-family="sans-serif" white-space="normal" overflow="visible" fill="#dedede" stroke="#363636" stroke-width=".5" stroke-opacity=".838"/></g><g><path style="line-height:normal;text-indent:0;text-align:start;text-decoration-line:none;text-decoration-style:solid;text-decoration-color:#000;text-transform:none;block-progression:tb;isolation:auto;mix-blend-mode:normal" d="M64.478 24.39c-1.689 0-2.687 1.54-2.687 3.453v7.679c-1.731.976-3.265 2.76-3.265 4.79 0 3.064 2.66 5.579 5.9 5.579s5.901-2.515 5.901-5.578c0-2.004-1.4-3.768-3.094-4.752l-.037-2.15-1.498-1.052-.037-.983 1.023-.672-.036-.672-.987-.672.037-.81s.538-.54 1.461-1.19c.134-1.542-.992-2.97-2.68-2.97zm-.052 14.556c.951 0 1.703.71 1.703 1.609s-.752 1.609-1.703 1.609c-.95 0-1.701-.71-1.701-1.61 0-.898.75-1.608 1.701-1.608z" color="#000" font-weight="400" font-family="sans-serif" white-space="normal" overflow="visible" fill="#1d3142" stroke-linejoin="round"/></g></svg>