<svg xmlns="http://www.w3.org/2000/svg" xmlns:xlink="http://www.w3.org/1999/xlink" width="48" height="48"><defs><linearGradient id="c"><stop offset="0" stop-color="#ffcc06"/><stop offset="1" stop-color="#fff834"/></linearGradient><linearGradient id="b"><stop offset="0" stop-color="#276ad6"/><stop offset="1" stop-color="#41aaff"/></linearGradient><linearGradient id="a"><stop offset="0" stop-color="#11aa43"/><stop offset="1" stop-color="#65ff5d"/></linearGradient><linearGradient xlink:href="#a" id="e" x1="410.696" y1="562.85" x2="411.235" y2="524.569" gradientUnits="userSpaceOnUse" gradientTransform="translate(.9 -.3)"/><linearGradient xlink:href="#b" id="f" x1="429.01" y1="563.952" x2="429.463" y2="551.515" gradientUnits="userSpaceOnUse" gradientTransform="matrix(1.00263 0 0 1.00263 -1.085 -2.187)"/><linearGradient xlink:href="#c" id="d" x1="413.167" y1="539.225" x2="412.858" y2="530.618" gradientUnits="userSpaceOnUse"/></defs><path d="M406.289 530.499h5.753l5.243 9.255h-5.729z" fill="url(#d)" stroke="none" transform="matrix(2.9558 0 0 2.94668 -1185.391 -1559.821)" stroke-opacity=".8"/><path d="M411.79 563.885l14.919-25.794s-4.29-7.604-6.507-11.385c-.293-.5-.707-1.314-1.085-1.9-.317-.491-.52-.882-.52-.882s-.046-.04-.07 0c-4.966 8.688-14.897 26.187-14.897 26.187l8.16 13.774z" fill="url(#e)" stroke-opacity=".8" transform="matrix(1.03589 0 0 1.03589 -417.983 -539.32)"/><path d="M411.715 563.863h29.687l8.565-13.663-30.324-.031-7.928 13.694z" fill="url(#f)" stroke-opacity=".8" transform="matrix(1.03589 0 0 1.03589 -417.983 -539.32)"/></svg>