<svg xmlns="http://www.w3.org/2000/svg" xmlns:xlink="http://www.w3.org/1999/xlink" height="48" viewBox="0 0 48 48" width="48"><defs><linearGradient id="e"><stop offset="0"/><stop offset="1" stop-opacity="0"/></linearGradient><linearGradient id="d"><stop offset="0" stop-color="#176875"/><stop offset="1" stop-color="#186a77"/></linearGradient><linearGradient id="b"><stop offset="0" stop-color="#b6b6b6"/><stop offset=".482" stop-color="#fff"/><stop offset="1" stop-color="#cfcfcf"/></linearGradient><linearGradient id="a"><stop offset="0" stop-color="#165dc2"/><stop offset="1" stop-color="#1680c2"/></linearGradient><linearGradient id="c"><stop offset="0" stop-color="#d0611f"/><stop offset="1" stop-color="#f77a2c"/></linearGradient><filter id="y" x="-.071" width="1.142" y="-.052" height="1.104" color-interpolation-filters="sRGB"><feGaussianBlur stdDeviation="1.895"/></filter><linearGradient xlink:href="#f" id="z" x1="255.442" y1="1039.988" x2="254.912" y2="1000.743" gradientUnits="userSpaceOnUse"/><linearGradient id="f"><stop offset="0" stop-color="#cfd1d5"/><stop offset="1" stop-color="#f5f7f7"/></linearGradient><linearGradient xlink:href="#g" id="A" x1="257.033" y1="1035.392" x2="258.448" y2="1004.809" gradientUnits="userSpaceOnUse"/><linearGradient id="g"><stop offset="0" stop-color="#ebe9ea"/><stop offset="1" stop-color="#ebe9ea"/></linearGradient><linearGradient xlink:href="#h" id="B" gradientUnits="userSpaceOnUse" x1="324.688" y1="970.175" x2="324.688" y2="965.8" gradientTransform="matrix(-1 0 0 1 621.896 0)"/><linearGradient id="h"><stop offset="0" stop-color="#272c41"/><stop offset=".443" stop-color="#596379"/><stop offset=".6" stop-color="#586278"/><stop offset="1" stop-color="#4b647b"/></linearGradient><linearGradient xlink:href="#i" id="C" gradientUnits="userSpaceOnUse" x1="313" y1="1034.362" x2="313.5" y2="964.362" gradientTransform="matrix(-1 0 0 1 621.896 0)"/><linearGradient id="i"><stop offset="0" stop-color="#d9e5ee"/><stop offset="1" stop-color="#f0f3f6"/></linearGradient><linearGradient xlink:href="#j" id="D" gradientUnits="userSpaceOnUse" x1="314.181" y1="24.923" x2="302.664" y2="15.011" gradientTransform="matrix(-1 0 0 1 621.896 956.362)"/><linearGradient id="j"><stop offset="0" stop-color="#a8bdca"/><stop offset="1" stop-color="#a8bdca" stop-opacity="0"/></linearGradient><linearGradient xlink:href="#k" id="E" x1="352.316" y1="1045.114" x2="292.389" y2="1053.423" gradientUnits="userSpaceOnUse"/><linearGradient id="k"><stop offset="0" stop-color="#38404d"/><stop offset="1" stop-color="#374154"/></linearGradient><linearGradient xlink:href="#l" id="F" x1="249.785" y1="1029.028" x2="251.2" y2="1008.521" gradientUnits="userSpaceOnUse"/><linearGradient id="l"><stop offset="0" stop-color="#222424"/><stop offset="1" stop-color="#8f959d"/></linearGradient><linearGradient xlink:href="#m" id="G" x1="253.321" y1="1028.144" x2="253.321" y2="1011.704" gradientUnits="userSpaceOnUse"/><linearGradient id="m"><stop offset="0" stop-color="#747474"/><stop offset="1" stop-color="#fafafa"/></linearGradient><linearGradient xlink:href="#n" id="H" x1="256.625" y1="1024.987" x2="256.625" y2="1015.862" gradientUnits="userSpaceOnUse"/><linearGradient id="n"><stop offset="0" stop-color="#2e2e2e"/><stop offset="1" stop-color="#9d9d9d"/></linearGradient><linearGradient xlink:href="#h" id="I" x1="324.688" y1="970.175" x2="324.688" y2="965.8" gradientUnits="userSpaceOnUse"/><linearGradient xlink:href="#i" id="J" x1="313" y1="1034.362" x2="313.5" y2="964.362" gradientUnits="userSpaceOnUse"/><linearGradient xlink:href="#j" id="K" x1="314.181" y1="24.923" x2="302.664" y2="15.011" gradientUnits="userSpaceOnUse"/><linearGradient xlink:href="#o" id="x" x1="22.321" y1="1088.615" x2="22.321" y2="1059.358" gradientUnits="userSpaceOnUse"/><linearGradient id="o"><stop offset="0" stop-color="#0079e6"/><stop offset="1" stop-color="#3699ed"/></linearGradient><linearGradient x1="12.938" y1="8.438" x2="15.25" y2="19.813" id="w" xlink:href="#p" gradientUnits="userSpaceOnUse" gradientTransform="matrix(1.031 0 0 1.25715 43.323 20.739)"/><linearGradient id="p"><stop offset="0" stop-color="#fff" stop-opacity=".183"/><stop offset="1" stop-color="#fff" stop-opacity="0"/></linearGradient><linearGradient x1="15.574" y1="46.971" x2="23.578" y2="46.971" id="v" xlink:href="#p" gradientUnits="userSpaceOnUse" gradientTransform="matrix(1.06904 0 0 .93122 42.771 17.961)" spreadMethod="reflect"/><linearGradient x1="361.106" y1="87.05" x2="361.106" y2="94.396" id="t" xlink:href="#q" gradientUnits="userSpaceOnUse" gradientTransform="matrix(.91573 0 0 .93148 -260.008 -25.623)"/><linearGradient id="q"><stop offset="0" stop-color="#787878"/><stop offset=".35" stop-color="#bebebe"/><stop offset=".494" stop-color="#c8c8c8"/><stop offset=".589" stop-color="#e6e6e6"/><stop offset="1" stop-color="#8c8c8c"/></linearGradient><linearGradient x1="61.969" y1="35.944" x2="61.969" y2="43.378" id="u" xlink:href="#r" gradientUnits="userSpaceOnUse" gradientTransform="matrix(.91903 0 0 .93134 10.997 21.887)"/><linearGradient id="r"><stop offset="0" stop-color="#464646"/><stop offset=".35" stop-color="#8c8c8c"/><stop offset=".51" stop-color="#969696"/><stop offset=".62" stop-color="#aaa"/><stop offset="1" stop-color="#646464"/></linearGradient><radialGradient cx="6.703" cy="73.616" r="7.228" fx="6.703" fy="73.616" id="s" xlink:href="#e" gradientUnits="userSpaceOnUse" gradientTransform="matrix(1.80359 0 0 .17053 56.47 50.898)"/></defs><g transform="translate(-42.977 -16.91)"><path d="M81.595 63.452c0 .68-5.837 1.232-13.037 1.232-7.2 0-13.037-.552-13.037-1.232 0-.681 5.837-1.233 13.037-1.233 7.2 0 13.037.552 13.037 1.233z" style="marker:none" overflow="visible" opacity=".3" fill="url(#s)" stroke-width=".8"/><path d="M62.334 54.717s.13 3.965-.52 4.89c-.65.924-1.943.935-1.943.935-.83.097-.836 1.859 0 1.859h16.212c.837 0 .83-1.763 0-1.86 0 0-1.293-.014-1.943-.934-.65-.925-.52-4.89-.52-4.89H62.334z" style="marker:none" overflow="visible" fill="url(#t)" stroke="url(#u)" stroke-width=".465" stroke-linecap="round" stroke-linejoin="round" stroke-dashoffset=".5" enable-background="new"/><path d="M59.955 61.702h16.044" fill="none" stroke="url(#v)" stroke-width=".698" stroke-linecap="square"/><rect width="44" height="30.73" rx=".978" ry=".931" x="45.977" y="23.987" fill="#e7e7e7" stroke-width=".5" stroke-linecap="round" stroke-linejoin="round" stroke-dashoffset=".5"/><path fill="#404a50" fill-rule="evenodd" enable-background="new" d="M48.422 26.432h39.111v25.841H48.422z"/><path d="M46.416 24.51h43.302v10.058L46.239 49.997z" opacity=".666" fill="url(#w)"/><path d="M-20.154 1054.815h57.096v37.028h-57.084z" fill="url(#x)" transform="matrix(.69842 0 0 .69842 62.499 -710.268)"/></g><path transform="matrix(.4837 0 0 .4837 .783 -461.646)" d="M56.662 960.259c-.974-.12-3.111.754-3.142.767h-.002c-2.596 0-5.823 1.078-8.305 2.842l.012-.012c-.053.037-.107.072-.159.11a6.463 6.463 0 0 0-.894.789c-1.981 2.071-3.18 5.739-2.799 10.13v.002c.302 3.463 2.295 7.873 3.273 9.862.327.663.54 1.056.54 1.056l4.718 7.71.494-.387 1.153-.899s-3.943-5.026-6.887-11.281c-2.256-4.793-2.722-10.3.12-14.38.55-.793 1.237-1.43 1.976-1.956l.008-.006c.682-.484 1.413-.86 2.132-1.162.26-.108.514-.199.768-.287.294-.103.577-.197.855-.276.242-.067.486-.139.71-.19.185-.044.353-.077.523-.11.177-.035.355-.07.512-.096a14.829 14.829 0 0 1 1.24-.15l2.242.767s1.08.454 1.62-.681c.539-1.136.283-1.532-.37-2.043a.68.68 0 0 0-.338-.12zm-5.111 31.97l-1.969 1.547c7.002 9.007 9.688 11.676 10.588 19.69.798 7.102.366 19.745-2.256 24.812-6.062 11.716-17.21 7.362-21.883.322-3.794-5.716-.881-16.041.946-21.687 1.826-5.646 5.841-11.958 4.476-18.381-1.03-4.85-4.667-8.32-7.701-10.25a9.113 9.113 0 0 0 .475-2.877 9.113 9.113 0 0 0-9.114-9.113A9.113 9.113 0 0 0 16 985.405a9.113 9.113 0 0 0 9.113 9.113 9.113 9.113 0 0 0 7.485-3.918c1.771 1.123 3.294 2.518 5.343 5.645 3.222 5.736-.71 10.147-4.757 23.244-1.545 4.998-4.244 17.746 3.705 24.33s17.813 4.737 22.63-3.373c4.818-8.11 3.386-26.16 3.272-29.68-.114-3.52 1.703-6.359 1.703-6.359l6.99-10.838-.08-.062 4.711-7.702s3.413-6.303 3.815-10.92c.409-4.705-.999-8.58-3.237-10.55-.149-.132-.3-.255-.457-.37l-.158-.11c.006.004.012.012.018.017-2.484-1.767-5.713-2.845-8.31-2.846h-.003c-.035-.014-2.832-1.158-3.48-.65-.653.51-.909.91-.37 2.045.54 1.135 1.618.681 1.618.681l2.244-.767a13.613 13.613 0 0 1 1.23.148c.159.026.341.062.522.098.173.034.343.068.533.113.157.037.332.088.498.133.373.1.76.224 1.164.37.218.077.435.153.656.245.724.303 1.458.682 2.145 1.17.739.525 1.425 1.163 1.976 1.955 2.842 4.08 2.374 9.588.118 14.381-2.942 6.249-6.875 11.268-6.883 11.277l-.05-.039s-5.21 7.507-7.083 10.233c-1.874 2.725-3.293 0-3.293 0l-7.598-10.33-.18.14z" opacity=".3" filter="url(#y)"/><g transform="matrix(.2197 0 0 .2197 -43.598 -211.042)"><circle cx="257.298" cy="1020.277" r="20.064" fill="url(#z)"/><circle r="19.064" cy="1020.277" cx="257.298" fill="url(#A)"/><g fill-rule="evenodd"><path d="M302.084 966.612v2.875l-4.938 1.688s-2.375 1-3.562-1.5c-1.188-2.5-.625-3.375.812-4.5 1.438-1.125 7.688 1.437 7.688 1.437z" fill="url(#B)" transform="translate(49.182)"/><path d="M302.052 969.482c.477.004 13.307.802 19.24 9.321 6.256 8.983 5.228 21.111.26 31.663-6.481 13.77-15.158 24.837-15.158 24.837l3.624 2.829 10.386-16.97s7.513-13.878 8.397-24.043c.96-11.05-2.626-20.023-8.132-24.041-5.506-4.019-12.787-6.475-18.611-6.475z" fill="url(#C)" transform="translate(49.182)"/><path d="M302.055 967.83c2.627.284 9.63 2.358 14.886 6.669-6.323-4.494-14.509-5.015-14.888-5.018zm18.265 5.003c.116.082.236.16.35.244 5.506 4.019 9.092 12.993 8.13 24.043-.883 10.165-8.396 24.041-8.396 24.041l-10.386 16.97-1.09-.849 10.383-16.965s7.512-13.876 8.396-24.04c.916-10.54-2.309-19.18-7.387-23.444z" fill="url(#D)" transform="translate(49.182)"/></g><path d="M311.171 1038.706l4.729-3.712 16.725 22.743s3.125 6 7.25 0 15.594-22.531 15.594-22.531l3.922 3.047-15.391 23.86s-4 6.25-3.75 14 3.404 47.49-7.203 65.345c-10.606 17.854-32.322 21.92-49.823 7.424-17.5-14.495-11.56-42.56-8.16-53.563 8.911-28.835 17.571-38.546 10.478-51.174-6.717-10.253-10.838-12.082-18.079-16.001-10.826-5.86-3.712-7.248 3.005-4.596 6.718 2.651 19.8 11.49 22.805 25.632 3.005 14.142-5.836 28.034-9.857 40.464-4.021 12.43-10.431 35.166-2.078 47.751 10.287 15.5 34.827 25.083 48.174-.71 5.772-11.155 6.723-38.99 4.966-54.626-1.981-17.643-7.891-23.523-23.307-43.353z" fill="url(#E)" fill-rule="evenodd" stroke-width="2"/><circle r="12.816" cy="1020.277" cx="257.298" fill="url(#F)"/><circle cx="257.298" cy="1020.277" r="9.634" fill="url(#G)"/><circle cx="257.298" cy="1020.277" r="8.043" opacity=".3" fill="#3a3a3a"/><circle r="7.159" cy="1020.277" cx="257.298" opacity=".99" fill="url(#H)"/><path d="M319.813 966.612v2.875l4.937 1.688s2.375 1 3.563-1.5c1.187-2.5.625-3.375-.813-4.5s-7.688 1.437-7.688 1.437z" fill="url(#I)" fill-rule="evenodd"/><path d="M319.844 969.482c-.477.004-13.306.802-19.24 9.321-6.256 8.983-5.228 21.111-.26 31.663 6.482 13.77 15.158 24.837 15.158 24.837l-3.624 2.829-10.385-16.97s-7.513-13.878-8.397-24.043c-.961-11.05 2.625-20.023 8.131-24.041 5.507-4.019 12.787-6.475 18.612-6.475z" fill="url(#J)" fill-rule="evenodd"/><path d="M319.842 11.469c-2.627.283-9.63 2.357-14.887 6.668 6.323-4.494 14.51-5.015 14.889-5.018zm-18.266 5.002c-.116.082-.235.16-.35.244-5.506 4.018-9.091 12.993-8.13 24.043.884 10.164 8.396 24.04 8.396 24.04L311.88 81.77l1.09-.85-10.383-16.965s-7.513-13.876-8.397-24.04c-.916-10.54 2.31-19.18 7.387-23.444z" transform="translate(0 956.362)" fill="url(#K)" fill-rule="evenodd"/></g></svg>