<svg xmlns="http://www.w3.org/2000/svg" xmlns:xlink="http://www.w3.org/1999/xlink" width="1024" height="1024"><defs><linearGradient id="d"><stop offset="0" stop-color="#fff"/><stop offset="1" stop-color="#d7d7d7"/></linearGradient><linearGradient id="a"><stop offset="0" stop-color="#db8451"/><stop offset="1" stop-color="#c85c29"/></linearGradient><linearGradient id="b"><stop offset="0"/><stop offset="1" stop-opacity="0"/></linearGradient><linearGradient id="c"><stop offset="0" stop-color="#51b9db"/><stop offset="1" stop-color="#2fabd4"/></linearGradient><linearGradient xlink:href="#d" id="j" x1="540" y1="212.362" x2="540" y2="872.362" gradientUnits="userSpaceOnUse" gradientTransform="matrix(.9961 0 0 .9961 2.17 .233)"/><linearGradient xlink:href="#e" id="l" x1="500" y1="312.362" x2="500" y2="752.362" gradientUnits="userSpaceOnUse" gradientTransform="matrix(1.18563 0 0 1.18558 -83.27 -84.862)"/><linearGradient xlink:href="#d" id="i" gradientUnits="userSpaceOnUse" gradientTransform="matrix(1.28788 0 0 1.28788 -147.173 -157.987)" x1="540" y1="212.362" x2="540" y2="872.362"/><linearGradient xlink:href="#f" id="h" x1="520" y1="52.362" x2="520" y2="1052.362" gradientUnits="userSpaceOnUse" gradientTransform="matrix(1.04553 0 0 1.04553 -22.79 -25.123)"/><linearGradient id="f"><stop offset="0" stop-color="#4df183"/><stop offset="1" stop-color="#31d044"/></linearGradient><linearGradient id="e"><stop offset="0" stop-color="#f6f7f7"/><stop offset="1" stop-color="#dce7f0"/></linearGradient><linearGradient xlink:href="#g" id="o" x1="540.143" y1="29.77" x2="540.143" y2="1054.974" gradientUnits="userSpaceOnUse" gradientTransform="matrix(.99492 0 0 .99492 2.599 2.743)"/><linearGradient id="g"><stop offset="0" stop-color="#fff" stop-opacity=".588"/><stop offset="1" stop-color="#fff" stop-opacity="0"/></linearGradient><filter id="k" color-interpolation-filters="sRGB"><feFlood flood-opacity=".294" flood-color="#000" result="flood"/><feComposite in="flood" in2="SourceGraphic" operator="in" result="composite1"/><feGaussianBlur in="composite1" stdDeviation="3" result="blur"/><feOffset dy="3" result="offset"/><feComposite in="offset" in2="SourceGraphic" operator="out" result="composite2"/></filter><filter id="m" color-interpolation-filters="sRGB"><feFlood flood-opacity=".294" flood-color="#000" result="flood"/><feComposite in="flood" in2="SourceGraphic" operator="in" result="composite1"/><feGaussianBlur in="composite1" stdDeviation="3" result="blur"/><feOffset dy="3" result="offset"/><feComposite in="offset" in2="SourceGraphic" operator="out" result="composite2"/></filter><linearGradient xlink:href="#e" id="n" gradientUnits="userSpaceOnUse" gradientTransform="matrix(1.18563 0 0 1.18558 -83.27 -84.862)" x1="500" y1="312.362" x2="500" y2="752.362"/></defs><g transform="translate(0 -28.362)"><circle style="marker:none" cx="512" cy="540.362" r="490" color="#000" overflow="visible" fill="url(#h)" stroke-width="44.758" enable-background="accumulate"/><circle cy="540.362" cx="512" r="425" opacity=".15" fill="url(#i)" stroke-width="38.636" stroke-linecap="square" stroke-miterlimit="10" paint-order="stroke markers fill"/><circle cx="512" cy="540.362" r="328.711" opacity=".3" fill="url(#j)" stroke-width="29.883" stroke-linecap="square" stroke-miterlimit="10" paint-order="stroke markers fill"/><circle r="328.711" cy="540.362" cx="512" opacity=".3" fill="url(#j)" stroke-width="29.883" stroke-linecap="square" stroke-miterlimit="10" paint-order="stroke markers fill" filter="url(#k)"/><path d="M512.01 284.362C370.668 284.362 256 398.88 256 540.228c0 141.482 114.667 256.134 256.01 256.134C653.43 796.362 768 681.71 768 540.228c.001-141.348-114.57-255.866-255.99-255.866zm18.244 398.311c-5.946 5.291-12.837 7.95-20.643 7.95-8.077 0-15.122-2.611-21.135-7.844-6.023-5.224-9.04-12.538-9.04-21.935 0-8.336 2.92-15.352 8.741-21.038 5.822-5.686 12.963-8.53 21.434-8.53 8.336 0 15.353 2.844 21.048 8.53 5.687 5.686 8.54 12.701 8.54 21.038-.011 9.262-2.99 16.539-8.945 21.83zm74.14-183.799c-4.567 8.471-9.993 15.776-16.286 21.935-6.274 6.158-17.56 16.508-33.847 31.06-4.492 4.106-8.105 7.71-10.813 10.812-2.708 3.114-4.732 5.956-6.053 8.539-1.33 2.582-2.351 5.166-3.074 7.748-.724 2.572-1.812 7.112-3.287 13.597-2.505 13.762-10.379 20.642-23.612 20.642-6.881 0-12.663-2.245-17.376-6.746-4.694-4.5-7.036-11.178-7.036-20.044 0-11.112 1.725-20.74 5.166-28.882 3.422-8.144 8-15.285 13.686-21.443 5.695-6.158 13.366-13.463 23.033-21.934 8.471-7.411 14.591-13 18.36-16.77a56.755 56.755 0 0 0 9.521-12.604c2.593-4.636 3.865-9.657 3.865-15.082 0-10.59-3.922-19.515-11.805-26.79-7.874-7.277-18.032-10.92-30.474-10.92-14.562 0-25.279 3.672-32.16 11.015-6.882 7.344-12.693 18.156-17.464 32.449-4.51 14.957-13.049 22.434-25.607 22.434-7.411 0-13.665-2.611-18.764-7.835-5.088-5.224-7.633-10.88-7.633-16.97 0-12.568 4.039-25.308 12.106-38.212 8.076-12.904 19.853-23.592 35.34-32.053 15.477-8.471 33.548-12.712 54.182-12.712 19.188 0 36.121 3.546 50.809 10.63 14.687 7.073 26.04 16.701 34.049 28.882 8 12.171 12.008 25.403 12.008 39.696.019 11.228-2.265 21.087-6.833 29.558z" fill="url(#l)" stroke-width="1.186" filter="url(#m)" opacity=".5"/><path d="M512.01 284.362C370.668 284.362 256 398.88 256 540.228c0 141.482 114.667 256.134 256.01 256.134C653.43 796.362 768 681.71 768 540.228c.001-141.348-114.57-255.866-255.99-255.866zm18.244 398.311c-5.946 5.291-12.837 7.95-20.643 7.95-8.077 0-15.122-2.611-21.135-7.844-6.023-5.224-9.04-12.538-9.04-21.935 0-8.336 2.92-15.352 8.741-21.038 5.822-5.686 12.963-8.53 21.434-8.53 8.336 0 15.353 2.844 21.048 8.53 5.687 5.686 8.54 12.701 8.54 21.038-.011 9.262-2.99 16.539-8.945 21.83zm74.14-183.799c-4.567 8.471-9.993 15.776-16.286 21.935-6.274 6.158-17.56 16.508-33.847 31.06-4.492 4.106-8.105 7.71-10.813 10.812-2.708 3.114-4.732 5.956-6.053 8.539-1.33 2.582-2.351 5.166-3.074 7.748-.724 2.572-1.812 7.112-3.287 13.597-2.505 13.762-10.379 20.642-23.612 20.642-6.881 0-12.663-2.245-17.376-6.746-4.694-4.5-7.036-11.178-7.036-20.044 0-11.112 1.725-20.74 5.166-28.882 3.422-8.144 8-15.285 13.686-21.443 5.695-6.158 13.366-13.463 23.033-21.934 8.471-7.411 14.591-13 18.36-16.77a56.755 56.755 0 0 0 9.521-12.604c2.593-4.636 3.865-9.657 3.865-15.082 0-10.59-3.922-19.515-11.805-26.79-7.874-7.277-18.032-10.92-30.474-10.92-14.562 0-25.279 3.672-32.16 11.015-6.882 7.344-12.693 18.156-17.464 32.449-4.51 14.957-13.049 22.434-25.607 22.434-7.411 0-13.665-2.611-18.764-7.835-5.088-5.224-7.633-10.88-7.633-16.97 0-12.568 4.039-25.308 12.106-38.212 8.076-12.904 19.853-23.592 35.34-32.053 15.477-8.471 33.548-12.712 54.182-12.712 19.188 0 36.121 3.546 50.809 10.63 14.687 7.073 26.04 16.701 34.049 28.882 8 12.171 12.008 25.403 12.008 39.696.019 11.228-2.265 21.087-6.833 29.558z" fill="url(#n)" stroke-width="1.186"/><circle r="487.513" cy="540.362" cx="512" style="marker:none" color="#000" overflow="visible" fill="none" stroke="url(#o)" stroke-width="4.975" enable-background="accumulate"/></g></svg>