<svg xmlns="http://www.w3.org/2000/svg" xmlns:xlink="http://www.w3.org/1999/xlink" height="48" viewBox="0 0 48 48" width="48"><defs><linearGradient id="c"><stop offset="0" stop-color="#b6b6b6"/><stop offset=".482" stop-color="#fff"/><stop offset="1" stop-color="#cfcfcf"/></linearGradient><linearGradient id="b"><stop offset="0" stop-color="#165dc2"/><stop offset="1" stop-color="#1680c2"/></linearGradient><linearGradient id="a"><stop offset="0" stop-color="#858585"/><stop offset="1" stop-color="#a8a8a8"/></linearGradient><linearGradient xlink:href="#a" id="j" gradientUnits="userSpaceOnUse" x1="-26.73" y1="58.686" x2="-26.73" y2="22.726"/><linearGradient gradientTransform="matrix(1.18504 0 0 1.18286 -5.49 -67.011)" xlink:href="#d" id="i" x1="23.848" y1="61.644" x2="23.848" y2="72.554" gradientUnits="userSpaceOnUse"/><linearGradient id="d"><stop offset="0" stop-color="#4d4d4d"/><stop offset="1" stop-color="#9d9d9d"/></linearGradient><linearGradient xlink:href="#e" id="h" x1="24.101" y1="56.932" x2="24.101" y2="94.762" gradientUnits="userSpaceOnUse" gradientTransform="matrix(.96158 0 0 .9598 -.128 -50.095)"/><linearGradient id="e"><stop offset="0" stop-color="#a3a3a3"/><stop offset=".411" stop-color="#fff"/><stop offset=".807" stop-color="#fff"/><stop offset="1" stop-color="#b4b4b4"/></linearGradient><linearGradient xlink:href="#f" id="g" x1="23.799" y1="91.293" x2="24.007" y2="60.438" gradientUnits="userSpaceOnUse" gradientTransform="matrix(1.12342 0 0 1.18286 -4.011 -65.242)"/><linearGradient id="f"><stop offset="0" stop-color="#6b6666"/><stop offset="1" stop-color="#646464" stop-opacity="0"/></linearGradient></defs><path d="M22.946 4.052c-6.995 0-12.665 5.055-12.665 11.291 0 3.582 1.13 13.84 3.843 21.928 2.288 2.019 5.434 3.266 8.908 3.266 3.227 0 6.17-1.077 8.406-2.848 2.853-8.148 4.173-18.702 4.173-22.346 0-6.236-5.67-11.291-12.665-11.291z" style="isolation:auto;mix-blend-mode:normal" color="#000" overflow="visible" fill-opacity=".25" stroke-width=".226"/><path d="M22.946 43.107c-6.287 0-11.383-5.055-11.383-11.291 0-3.582 1.016-13.84 3.454-21.928a11.393 11.393 0 0 1 8.007-3.267c2.9 0 5.544 1.078 7.554 2.849 2.564 8.148 3.751 18.702 3.751 22.346 0 6.236-5.097 11.291-11.383 11.291z" style="isolation:auto;mix-blend-mode:normal" color="#000" overflow="visible" fill="url(#g)" stroke-width=".226"/><path style="isolation:auto;mix-blend-mode:normal" d="M22.946 4.545c-6.632 0-12.007 5.056-12.007 11.292 0 3.581 1.072 13.84 3.643 21.927 2.17 2.02 5.152 3.267 8.446 3.267 3.059 0 5.849-1.077 7.969-2.848 2.704-8.148 3.956-18.703 3.956-22.346 0-6.236-5.376-11.292-12.007-11.292z" color="#000" overflow="visible" fill="url(#h)" stroke-width=".226"/><path d="M22.946 4.54c-5.237 0-9.48 5.057-9.48 11.294 0 3.583.846 13.845 2.876 21.935 1.713 2.02 4.068 3.267 6.669 3.267 2.415 0 4.618-1.077 6.292-2.849 2.135-8.15 3.124-18.708 3.124-22.353 0-6.237-4.245-11.294-9.481-11.294z" style="isolation:auto;mix-blend-mode:normal" color="#000" overflow="visible" fill="none" stroke="#696969" stroke-width=".478"/><path d="M22.946 6.786V4.338" fill="none" fill-rule="evenodd" stroke="#4b4b4b" stroke-width=".478"/><rect style="isolation:auto;mix-blend-mode:normal" width="5.268" height="14.085" x="20.312" y="5.107" ry="1.869" color="#000" overflow="visible" fill="url(#i)" stroke-width=".225"/><text style="line-height:0%" x="-34.826" y="23.972" transform="rotate(-90)" font-weight="400" font-size="4.053" font-family="sans-serif" letter-spacing="0" word-spacing="0" fill="#6f6f6f"><tspan x="-34.826" y="23.972">rapoo</tspan></text><g color="#000" font-weight="400" font-family="sans-serif" white-space="normal" fill="#a1d0d9" fill-rule="evenodd" stroke-width=".994"><path d="M23.61 8.599l-.14.294.46.438-.444.422.14.294.679-.643.068-.07-.084-.09-.112-.107-.013-.027-.008.007zM22.281 8.599l.142.294-.461.438.445.422-.141.294-.679-.643-.068-.07.084-.09.112-.107.013-.027.008.007z" style="line-height:normal;text-indent:0;text-align:start;text-decoration-line:none;text-decoration-style:solid;text-decoration-color:#000;text-transform:none;block-progression:tb;isolation:auto;mix-blend-mode:normal" overflow="visible"/></g></svg>