<svg xmlns="http://www.w3.org/2000/svg" xmlns:xlink="http://www.w3.org/1999/xlink" width="128" height="128" viewBox="0 0 33.866666 33.866666"><defs><linearGradient id="c"><stop offset="0" stop-color="#1b1d38"/><stop offset="1" stop-color="#1e1338"/></linearGradient><linearGradient id="b"><stop offset="0" stop-color="#6b74e5"/><stop offset="1" stop-color="#f0a2fb" stop-opacity=".973"/></linearGradient><linearGradient id="a"><stop offset="0" stop-opacity=".453"/><stop offset="1" stop-color="#fff" stop-opacity=".795"/></linearGradient><linearGradient xlink:href="#a" id="g" x1="16.953" y1="265.729" x2="16.953" y2="293.87" gradientUnits="userSpaceOnUse" gradientTransform="translate(-.328 .397)"/><linearGradient xlink:href="#b" id="f" x1="38.002" y1="232.73" x2="95.607" y2="232.73" gradientUnits="userSpaceOnUse" gradientTransform="translate(-1.24 1.498)"/><linearGradient xlink:href="#c" id="e" x1="9.255" y1="290.45" x2="24.928" y2="267.389" gradientUnits="userSpaceOnUse" gradientTransform="matrix(1.02227 0 0 1.02227 -.713 -5.83)"/><linearGradient xlink:href="#b" id="d" x1="1.559" y1="279.67" x2="32.964" y2="279.67" gradientUnits="userSpaceOnUse" gradientTransform="matrix(1.0045 0 0 1.0045 -.406 -.862)"/></defs><g transform="translate(0 -263.133)"><circle r="16.488" cy="280.067" cx="16.933" style="isolation:auto;mix-blend-mode:normal;marker:none" color="#000" overflow="visible" fill-opacity=".068" stroke-width=".571" stroke-linecap="round" stroke-linejoin="round" paint-order="stroke fill markers"/><circle r="15.773" cy="280.067" cx="16.933" style="isolation:auto;mix-blend-mode:normal;marker:none" color="#000" display="block" overflow="visible" fill="url(#d)" stroke-width=".547" stroke-linecap="round" stroke-linejoin="round" paint-order="stroke fill markers"/><circle style="isolation:auto;mix-blend-mode:normal;marker:none" cx="16.933" cy="280.067" r="15.23" color="#000" overflow="visible" fill="url(#e)" stroke-width=".528" stroke-linecap="round" stroke-linejoin="round" paint-order="stroke fill markers"/><g stroke="#f7f7f7"><path d="M83.128 283.245c-.773-.14-1.866-1.04-2.843-2.342-.27-.36-1.06-1.487-1.752-2.503-2.075-3.042-3.217-4.46-4.577-5.68-3.504-3.144-7.562-3.489-12.247-1.04-1.832.958-3.566 2.198-6.947 4.965-3.112 2.546-4.652 3.635-5.913 4.18-1.035.448-1.579.555-2.567.508-1.06-.05-1.522-.212-2.095-.734-1.05-.955-1.332-2.738-1.071-6.753l.184-2.852c.055-.857-.002-.976-.255-.534a3.712 3.712 0 0 1-.444.575c-.279.293-.318.308-.818.308-.646 0-1.367-.18-2.002-.501-1.633-.825-1.938-2.446-.786-4.178.165-.248.746-.986 1.291-1.64 1.601-1.924 2.264-3.028 2.65-4.416.152-.544.177-.855.18-2.232.004-1.838-.056-2.204-.708-4.308-.645-2.083-.749-2.702-.75-4.473-.001-1.305.024-1.609.176-2.165.338-1.229.794-2.02 2.467-4.276 2.523-3.403 3.755-5.715 4.639-8.704.663-2.243.776-2.936 1.153-7.054.637-6.958.959-13.802.96-20.393 0-6.003-.236-9.332-.797-11.223-.03-.101-.021-.184.02-.184.042 0 .476.26.965.578 3.732 2.43 9.027 7.244 13.76 12.511 4.664 5.19 8.92 10.88 12.535 16.76.284.461.634.938.777 1.06 1.865 1.576 5.253.033 6.152-2.802.168-.531.181-.725.175-2.585-.007-2.155-.1-2.963-.496-4.334-.243-.841-.52-1.398-.91-1.83-.384-.425-.773-.62-1.454-.728-.99-.159-1.552-.401-2.998-1.295-2.478-1.532-3.219-1.669-5.666-1.047-.977.249-1.302.298-1.82.275-.868-.038-1.215-.281-1.668-1.169-.311-.611-.328-.68-.328-1.392 0-.677.024-.791.244-1.19.636-1.148 2.356-2.073 4.907-2.64.417-.094.793-.205.837-.248.05-.05-.074-.234-.339-.508-1.907-1.967-3.574-4.73-4.908-8.13-1.716-4.375-1.55-6.154.675-7.254.56-.277.694-.31 1.254-.31.556 0 .665.026.967.235.503.349.991 1.133 1.844 2.965.42.903.921 1.909 1.112 2.235.722 1.234 1.901 2.599 2.086 2.414.04-.04-.093-.709-.307-1.54-.89-3.458-1.112-5.182-.968-7.55.069-1.129.13-1.573.262-1.924.37-.984 1.276-1.387 2.745-1.222 1.88.21 2.451 1.154 3.179 5.248.347 1.955.47 2.506.746 3.365.32.995.928 2.052 1.179 2.052.065 0 .119-.015.119-.032 0-.15 1.037-3.88 1.237-4.448.387-1.104.927-2.088 1.472-2.683 1.246-1.36 3.5-1.794 4.546-.875.91.798.848 2.272-.195 4.632-.882 1.995-1.135 2.931-1.205 4.472-.06 1.28.064 2.204.62 4.638.611 2.683.697 3.64.456 5.121-.335 2.066-.996 3.206-2.619 4.514-1.216.98-1.635 1.449-2.025 2.264-.545 1.141-.594 1.614-.574 5.62.027 5.405-.139 6.418-1.353 8.295-1.666 2.576-2.24 6.379-1.473 9.772.123.543.443 1.464.869 2.497 3.31 8.033 5.23 15.622 5.947 23.507.45 4.956.317 10.361-.338 13.736-.489 2.52-1.414 4.438-2.6 5.393-.794.64-2.043 1.1-3.232 1.188-.308.023-.67.052-.805.066-.136.013-.376 0-.534-.029zm2.418-2.846c1.733-.59 2.364-3.753 2.631-13.2.24-8.471-2.26-18.699-7.43-30.406-.86-1.948-2.87-6.042-3.849-7.838-1.002-1.838-2.615-4.58-2.885-4.904l-.216-.258-.82.096c-1.053.124-1.12.15-1.06.42.332 1.515.377 1.847.378 2.81.003 2.758-.968 5.126-2.907 7.092a11.008 11.008 0 0 1-3.094 2.252c-3.203 1.603-6.748 1.71-9.632.29-1.305-.643-2.285-1.445-3.21-2.629l-.255-.327-.423.287c-.314.213-.444.362-.501.575-.105.39-1.334 6.184-2.176 10.258-2.273 11-3.665 19.217-4.282 25.277-.106 1.037-.147 2.141-.148 3.98-.002 2.764.052 3.198.49 3.946.253.43.559.562 1.173.505 1.328-.125 2.5-.924 6.044-4.119 2.64-2.378 3.856-3.362 5.463-4.417 2.187-1.435 4.159-2.26 6.344-2.654 1.01-.183 2.97-.186 3.96-.007 2.62.473 5.017 1.874 7.341 4.292 1.282 1.333 2.226 2.557 4.217 5.468 1.367 1.998 1.958 2.749 2.445 3.102.321.232.376.244 1.172.244.559 0 .965-.045 1.23-.135zM45.33 255.196c.026-.124.215-1.186.422-2.36.207-1.173.561-3.075.788-4.226.451-2.288.516-3.05.29-3.395-.229-.349-.447-.277-1.04.343-1.065 1.114-1.974 3.159-2.103 4.735-.069.827.171 1.86.827 3.569.303.79.569 1.463.59 1.497.08.129.181.055.226-.163zm17.324-19.48c.875-.15 2.773-.74 3.406-1.057.338-.17.843-.48 1.121-.69.7-.527 1.665-1.578 1.934-2.109.541-1.067 1.09-2.616 1.218-3.44.122-.782.051-2.503-.13-3.158-.448-1.623-1.503-2.86-3.118-3.658-2.11-1.044-4.472-1.134-6.965-.266-1.754.61-3.349 1.592-4.57 2.812-.898.899-1.44 1.717-1.77 2.672-.196.567-.227.784-.228 1.6-.006 4.928 4.03 8.162 9.102 7.294z" fill="none" stroke="url(#f)" stroke-width="3.082" stroke-opacity=".853" transform="matrix(.26475 0 0 .26475 -.753 218.45)"/><path d="M16.388 278.691a1.257 1.275 0 0 1-1.257 1.275 1.257 1.275 0 0 1-1.257-1.275 1.257 1.275 0 0 1 1.257-1.275 1.257 1.275 0 0 1 1.257 1.275z" style="isolation:auto;mix-blend-mode:normal;marker:none" color="#000" overflow="visible" fill="#fff" stroke-width=".34814625"/><path d="M18.723 277.328l-.227.027c-.29.034-.309.041-.293.116.092.421.105.514.105.781 0 .767-.267 1.425-.803 1.971a3.04 3.04 0 0 1-.854.626c-.885.446-1.863.475-2.66.08a2.44 2.44 0 0 1-.886-.73l-.07-.09-.118.08c-.086.058-.122.1-.138.159a217.12 217.12 0 0 0-.6 2.85c-.629 3.058-1.013 5.342-1.183 7.026-.03.288-.04.595-.041 1.106 0 .768.014.889.135 1.097.07.12.154.156.324.14.367-.035.69-.256 1.67-1.144.728-.662 1.064-.935 1.508-1.228.604-.399 1.148-.628 1.752-.738.278-.05.82-.052 1.093-.002.723.132 1.385.521 2.027 1.193.354.37.615.71 1.165 1.52.377.555.54.764.675.862.088.065.104.068.323.068.155 0 .267-.013.34-.038.479-.164.653-1.043.726-3.669.067-2.354-.623-5.196-2.051-8.45a40.882 40.882 0 0 0-1.063-2.178c-.277-.511-.722-1.273-.797-1.363z" style="isolation:auto;mix-blend-mode:normal;marker:none" color="#000" overflow="visible" fill="#f3f3f3" fill-opacity=".989" stroke-width=".067776"/><path d="M15.616 276.47a2.473 2.315 0 0 0-2.474 2.314 2.473 2.315 0 0 0 2.474 2.315 2.473 2.315 0 0 0 2.473-2.315 2.473 2.315 0 0 0-2.473-2.315zm-.91 1.159a.18.18 0 0 1 .107.024c.15.099-.037.39-.345.536-.157.075-.257.081-.318.02-.055-.055-.054-.093.002-.209.092-.191.372-.365.554-.371z" fill="#f85ad2" stroke-width=".0217095"/><path d="M15.616 276.47a2.473 2.315 0 0 0-2.474 2.314 2.473 2.315 0 0 0 2.474 2.315 2.473 2.315 0 0 0 2.473-2.315 2.473 2.315 0 0 0-2.473-2.315zm.381.45c.358 0 .727.089.938.222.084.053.1.077.132.19.09.327.102.804.027 1.16-.04.189-.182.554-.278.715-.053.09-.12.154-.267.261-.28.202-.395.308-.565.516-.122.149-.175.195-.281.246-.151.072-.417.158-.608.195-.178.035-.6.046-.77.02-.17-.026-.26-.082-.436-.276-.344-.374-.53-1.054-.424-1.55.134-.633.853-1.284 1.736-1.571.299-.098.5-.13.796-.129z" fill="#9611f6" stroke="none" stroke-width=".082"/><path d="M21.255 293.44c-.205-.036-.494-.275-.753-.62-.071-.095-.28-.393-.464-.662-.549-.805-.851-1.18-1.211-1.504-.928-.832-2.002-.923-3.243-.275-.485.254-.944.582-1.839 1.314-.824.675-1.232.963-1.566 1.107-.274.119-.417.147-.68.135-.28-.014-.402-.057-.554-.195-.278-.253-.352-.725-.283-1.788l.048-.755c.015-.227 0-.258-.067-.141a.983.983 0 0 1-.118.152c-.073.078-.084.082-.216.082-.171 0-.362-.048-.53-.133-.433-.218-.513-.648-.208-1.106.043-.066.197-.261.341-.434.424-.51.6-.802.702-1.17.04-.143.047-.226.048-.59 0-.487-.015-.584-.188-1.141-.17-.551-.198-.715-.198-1.184 0-.346.006-.426.046-.573.09-.326.21-.535.653-1.132.668-.901.995-1.514 1.229-2.305.175-.594.205-.777.305-1.867.168-1.843.254-3.655.254-5.4 0-1.589-.062-2.47-.211-2.97-.008-.028-.006-.05.005-.05s.126.07.256.153c.988.644 2.39 1.918 3.643 3.313a30.914 30.914 0 0 1 3.319 4.437c.075.122.167.248.205.28.494.418 1.391.01 1.629-.741.044-.14.048-.192.046-.685-.002-.57-.026-.784-.131-1.147-.064-.223-.138-.37-.241-.484-.102-.113-.205-.165-.385-.193-.262-.042-.41-.106-.794-.343-.656-.406-.852-.442-1.5-.277-.258.066-.345.079-.481.073-.23-.01-.322-.075-.442-.31-.083-.162-.087-.18-.087-.369 0-.179.006-.209.065-.314.168-.304.623-.55 1.299-.7.11-.024.21-.054.221-.065.013-.013-.02-.062-.09-.135-.504-.52-.946-1.252-1.299-2.152-.454-1.159-.41-1.63.179-1.92a.561.561 0 0 1 .332-.083c.147 0 .176.007.256.062.133.093.262.3.488.785.112.24.244.506.295.592.19.327.503.688.552.64.01-.011-.025-.188-.082-.408-.235-.916-.294-1.372-.256-2 .018-.298.034-.416.07-.509.098-.26.337-.367.726-.323.498.056.65.305.842 1.39.092.517.124.663.198.89.084.263.245.543.312.543.017 0 .031-.004.031-.008 0-.04.275-1.027.328-1.178.102-.292.245-.553.39-.71.33-.36.926-.475 1.203-.232.24.212.224.602-.052 1.227-.233.528-.3.776-.319 1.184-.015.339.017.583.164 1.227.162.71.185.964.121 1.356-.088.547-.264.85-.693 1.195-.322.26-.433.384-.536.6-.145.302-.158.427-.152 1.488.007 1.43-.037 1.699-.359 2.196-.44.682-.592 1.689-.39 2.587.033.144.118.388.23.661.877 2.127 1.385 4.136 1.575 6.224.12 1.312.084 2.743-.09 3.636-.129.667-.374 1.175-.688 1.428-.21.17-.54.291-.856.315l-.213.017c-.036.004-.1 0-.14-.007zm.64-.753c.46-.156.626-.993.697-3.495.063-2.242-.598-4.95-1.967-8.05-.228-.515-.76-1.6-1.02-2.075-.265-.486-.692-1.212-.763-1.298l-.057-.068-.217.025c-.28.033-.297.04-.281.111.088.401.1.49.1.744 0 .73-.256 1.357-.77 1.878-.255.26-.497.435-.819.596-.848.425-1.786.453-2.55.077a2.335 2.335 0 0 1-.85-.696l-.067-.087-.112.076c-.083.057-.118.096-.133.152a205.94 205.94 0 0 0-.576 2.716c-.602 2.913-.97 5.088-1.134 6.692-.028.275-.039.567-.039 1.054 0 .732.014.847.13 1.045.067.114.148.149.31.134.352-.033.662-.245 1.6-1.09.7-.63 1.021-.891 1.447-1.17.579-.38 1.1-.599 1.68-.703a3.85 3.85 0 0 1 1.048-.002c.693.125 1.328.496 1.944 1.136.339.353.589.678 1.116 1.448.362.53.518.728.647.821.085.062.1.065.31.065.149 0 .256-.012.326-.036zm-10.647-6.672c.006-.033.057-.314.111-.625.055-.31.149-.814.209-1.119.12-.606.137-.807.077-.899-.06-.092-.119-.073-.276.091-.282.295-.522.836-.557 1.254-.018.219.046.492.22.944.08.21.15.388.156.397.02.034.048.014.06-.043zm4.586-5.158c.232-.04.734-.195.902-.28.09-.045.223-.127.297-.182.185-.14.44-.418.512-.559.143-.282.288-.692.322-.91.033-.207.014-.663-.034-.836-.119-.43-.398-.758-.826-.969-.559-.276-1.184-.3-1.844-.07a3.218 3.218 0 0 0-1.21.744c-.237.238-.38.455-.468.708-.052.15-.06.207-.06.423-.002 1.305 1.067 2.161 2.41 1.931z" fill="#16172b" stroke="none" stroke-width=".082"/></g></g></svg>