<svg xmlns="http://www.w3.org/2000/svg" xmlns:xlink="http://www.w3.org/1999/xlink" width="48" height="48"><defs><linearGradient id="a"><stop offset="0" stop-color="#2b95f3"/><stop offset="1" stop-color="#57aa8c"/></linearGradient><linearGradient id="b"><stop offset="0" stop-color="#303238"/><stop offset="1" stop-color="#363640"/></linearGradient><linearGradient id="c"><stop offset="0" stop-color="#08f"/><stop offset="1" stop-color="#02c3ff"/></linearGradient><linearGradient gradientTransform="matrix(.0711 0 0 .0611 397.37 503.169)" gradientUnits="userSpaceOnUse" y2="43.029" x2="-137.808" y1="615.852" x1="340.339" id="d" xlink:href="#a"/><linearGradient y2="1038.352" x2="8.115" y1="1050.466" x1="8.167" gradientUnits="userSpaceOnUse" id="e" xlink:href="#b" gradientTransform="matrix(3.28571 0 0 3.28571 382.286 -2907.678)"/></defs><g transform="translate(-384.571 -499.798)"><rect width="22.374" height="34.963" x="397.656" y="506.848" ry=".619" fill="url(#d)" fill-rule="evenodd" stroke-width=".531" stroke-linecap="round"/><path d="M405.372 517.634a1.076 1.073 0 0 0-1.076 1.074 1.076 1.073 0 0 0 1.076 1.072 1.076 1.073 0 0 0 1.076-1.072 1.076 1.073 0 0 0-1.076-1.074zm6.1 0l-2.041 2.035 3.14 3.129-3.252 3.69 2.153 1.876 5.023-5.722zm-7.533 5.008a1.794 1.788 0 0 0-1.795 1.789 1.794 1.788 0 0 0 1.795 1.787 1.794 1.788 0 0 0 1.793-1.787 1.794 1.788 0 0 0-1.793-1.79zm3.228 5.008a2.153 2.146 0 0 0-2.152 2.146 2.153 2.146 0 0 0 2.152 2.147 2.153 2.146 0 0 0 2.152-2.147 2.153 2.146 0 0 0-2.152-2.146z" style="marker:none" color="#000" overflow="visible" fill-opacity=".168" stroke-width="1.003"/><path d="M419.754 500.798h-22.366a1.845 1.845 0 0 0-1.844 1.845v42.31c0 1.019.826 1.845 1.844 1.845h22.366a1.845 1.845 0 0 0 1.845-1.845v-42.31a1.845 1.845 0 0 0-1.845-1.845zm-.268 38.698h-21.83V508.1h21.83z" fill="url(#e)" stroke-width="3.286"/><ellipse cx="408.571" cy="543.423" rx="1.928" ry="1.928" fill="#fff" fill-opacity=".351" fill-rule="evenodd" stroke-width=".528" stroke-linecap="round"/><path style="marker:none" d="M404.624 516.644a1.076 1.073 0 0 0-1.076 1.074 1.076 1.073 0 0 0 1.076 1.072 1.076 1.073 0 0 0 1.076-1.072 1.076 1.073 0 0 0-1.076-1.074zm6.1 0l-2.041 2.035 3.14 3.129-3.252 3.69 2.153 1.876 5.023-5.722zm-7.533 5.008a1.794 1.788 0 0 0-1.795 1.789 1.794 1.788 0 0 0 1.795 1.787 1.794 1.788 0 0 0 1.793-1.787 1.794 1.788 0 0 0-1.793-1.79zm3.228 5.007a2.153 2.146 0 0 0-2.152 2.147 2.153 2.146 0 0 0 2.152 2.146 2.153 2.146 0 0 0 2.152-2.146 2.153 2.146 0 0 0-2.152-2.147z" color="#000" overflow="visible" fill="#f4f4f4" stroke-width="1.003"/><path d="M397.657 507.1v1h21.83v-1zm-2.113 36.854v1c0 1.019.825 1.844 1.844 1.844h22.367a1.843 1.843 0 0 0 1.844-1.844v-1a1.843 1.843 0 0 1-1.844 1.844h-22.367a1.843 1.843 0 0 1-1.844-1.844z" fill="#0c0c0c" fill-opacity=".162" stroke-width="3.286"/><path d="M397.388 500.798a1.843 1.843 0 0 0-1.844 1.844v7.754l2.113-.873V508.1h3.436l17.662-7.303z" fill="#fff" fill-opacity=".089" stroke-width="3.286"/><path d="M408.571 541.495a1.928 1.928 0 0 0-1.927 1.928 1.928 1.928 0 0 0 .008.16 1.928 1.928 0 0 1 1.92-1.793 1.928 1.928 0 0 1 1.92 1.77 1.928 1.928 0 0 0 .007-.137 1.928 1.928 0 0 0-1.928-1.928z" fill-opacity=".686" fill-rule="evenodd" stroke-width=".528" stroke-linecap="round"/><rect style="isolation:auto;mix-blend-mode:normal;marker:none" width="8" height="1" x="404.571" y="502.798" ry=".5" color="#000" display="block" overflow="visible" fill="#fff" fill-opacity=".152" stroke-width=".545" paint-order="fill markers stroke"/><circle style="isolation:auto;mix-blend-mode:normal;marker:none" cx="403.071" cy="503.298" r=".5" color="#000" display="block" overflow="visible" fill="#fff" fill-opacity=".319" stroke-width=".545" paint-order="fill markers stroke"/></g></svg>