<svg xmlns="http://www.w3.org/2000/svg" xmlns:xlink="http://www.w3.org/1999/xlink" width="64" height="64" viewBox="0 0 64 64"><defs><linearGradient id="a"><stop offset="0" stop-color="#ec2261"/><stop offset="1" stop-color="#f35093"/></linearGradient><linearGradient xlink:href="#a" id="b" x1="6.428" y1="49.773" x2="56.407" y2="6.168" gradientUnits="userSpaceOnUse"/></defs><circle r="28" cx="32" cy="32.001" fill="url(#b)"/><path d="M26.68 5.4a28 28 0 0 0-2.137.485c-.898.25-1.787.541-2.656.88a27.935 27.935 0 0 0-4.973 2.53 27.99 27.99 0 0 0-4.37 3.469c-.087.09-.174.182-.259.274.534 3.66 3.167 8.06 6.016 11.574a16 16 0 0 0-2.301 8.4 16 16 0 0 0 .035.992C11.846 31.717 7.58 28.14 5.609 23.918c-.103.27-.206.54-.3.812-.276.89-.503 1.794-.688 2.707a27.935 27.935 0 0 0-.418 2.762c-.09.898-.134 1.797-.137 2.7a28 28 0 0 0 1.582 7.495c3.41 1.134 8.176 1.046 12.383.38a16 16 0 0 0 6.883 6.561c-3.537 2.158-7.95 3.879-12.09 4.032a28 28 0 0 0 13.527 7.062c2.21-2.45 4.102-6.01 5.414-9.43a16 16 0 0 0 .235.02 16 16 0 0 0 8.886-2.71c.097 3.915-.549 8.306-2.254 11.874a28 28 0 0 0 12.77-6.992c-.937-3.3-3.221-6.972-5.672-9.992a16 16 0 0 0 2.268-8 16 16 0 0 0-.035-1.058c3.942 2.143 7.935 5.443 10.05 9.34a28 28 0 0 0 1.93-9.211c-.01-.357-.01-.714-.035-1.07a27.931 27.931 0 0 0-.336-2.774 27.957 27.957 0 0 0-.555-2.457c-4.155-1.48-9.1-1.222-13.074-.574a16 16 0 0 0-6.87-6.527c4.08-2.502 9.339-4.433 14.003-4.028-.324-.39-.66-.769-1.004-1.14a27.899 27.899 0 0 0-2.039-1.906 27.93 27.93 0 0 0-2.226-1.688 28.014 28.014 0 0 0-2.383-1.465 27.971 27.971 0 0 0-5.145-2.172 28.405 28.405 0 0 0-1.003-.257c-2.904 2.295-5.4 6.776-7.016 11a16 16 0 0 0-.26-.2 16 16 0 0 0-8.847 2.68c-.12-4.781.845-10.292 3.527-14.122z" opacity=".2"/><path d="M26.68 4.401a28 28 0 0 0-2.137.484c-.898.25-1.787.542-2.656.88a27.88 27.88 0 0 0-4.973 2.53 27.99 27.99 0 0 0-4.37 3.47c-.087.09-.174.181-.259.273.534 3.66 3.167 8.06 6.016 11.574a16 16 0 0 0-2.301 8.4 16 16 0 0 0 .035.992C11.846 30.717 7.58 27.14 5.609 22.918c-.103.27-.206.54-.3.812-.276.89-.503 1.794-.688 2.707a27.935 27.935 0 0 0-.152 10.305c.146.823.33 1.638.55 2.445 3.433 1.368 8.547 1.294 13.012.586a16 16 0 0 0 6.883 6.562c-4.074 2.486-9.31 4.396-13.953 3.993.324.39.66.769 1.004 1.14a28.013 28.013 0 0 0 11.792 7.234c.337.092.676.174 1.016.254C27.664 56.67 30.149 52.21 31.765 48a16 16 0 0 0 .234.02 16 16 0 0 0 8.887-2.71c.118 4.777-.844 10.282-3.523 14.109a27.978 27.978 0 0 0 2.136-.48 28.043 28.043 0 0 0 12-6.883c.086-.09.173-.182.258-.274-.534-3.664-3.175-8.067-6.027-11.582a16 16 0 0 0 2.268-8.2 16 16 0 0 0-.035-1.058c4.202 2.285 8.49 5.875 10.468 10.113.103-.27.202-.54.297-.813a27.96 27.96 0 0 0 1.11-5.472c.092-.928.136-1.86.136-2.793 0-.66-.02-1.318-.066-1.977a27.931 27.931 0 0 0-.336-2.773 27.957 27.957 0 0 0-.555-2.457c-4.155-1.48-9.101-1.222-13.074-.574a16 16 0 0 0-6.871-6.527c4.08-2.502 9.34-4.433 14.004-4.028-.324-.39-.66-.769-1.004-1.14a27.898 27.898 0 0 0-2.04-1.906 27.93 27.93 0 0 0-2.226-1.688 28.014 28.014 0 0 0-2.382-1.465 27.971 27.971 0 0 0-5.145-2.172 28.405 28.405 0 0 0-1.004-.257c-2.903 2.295-5.399 6.776-7.015 11a16 16 0 0 0-.26 0 16 16 0 0 0-8.848 2.679c-.12-4.78.846-10.29 3.528-14.12z" fill="#fff"/><circle style="isolation:auto;mix-blend-mode:normal;marker:none" cx="32" cy="32" r="11.571" color="#000" overflow="visible" opacity=".8" fill="#6393f5" fill-opacity=".141" stroke-width="15.123" stroke-linecap="round" stroke-linejoin="round" stroke-opacity=".157" paint-order="stroke markers fill"/><path style="isolation:auto;mix-blend-mode:normal;marker:none;font-variant-east_asian:normal" d="M43.55 31.414A11.571 11.571 0 0 1 32 42.572a11.571 11.571 0 0 1-11.55-10.986 11.571 11.571 0 0 0-.022.414A11.571 11.571 0 0 0 32 43.572 11.571 11.571 0 0 0 43.572 32a11.571 11.571 0 0 0-.021-.586z" color="#000" display="block" overflow="visible" opacity=".8" fill="#a431a1" fill-opacity=".162" stroke-width="15.123" stroke-linecap="round" stroke-linejoin="round" stroke-opacity=".157" paint-order="stroke markers fill"/><path d="M26.888 24a.865.865 0 0 0-.888.873v14.252a.868.868 0 0 0 1.301.756l6.132-3.563 6.133-3.563a.876.876 0 0 0 0-1.512l-6.133-3.563-6.132-3.563a.862.862 0 0 0-.413-.118z" fill="#ea317d"/><path d="M32 3.973v.029A28 28 0 0 0 4 32a28 28 0 0 0 .018.492A28 28 0 0 1 32 5v-.027a28 28 0 0 1 27.975 27.482 28 28 0 0 0 .025-.482 28 28 0 0 0-28-28z" opacity=".2" fill="#fff"/><path d="M26.887 24a.864.864 0 0 0-.887.873v1a.864.864 0 0 1 1.3-.756l6.134 3.563 6.132 3.562c.116.067.2.159.27.258a.873.873 0 0 0-.27-1.258l-6.132-3.562-6.133-3.563a.863.863 0 0 0-.414-.117z" fill-opacity=".205"/><path style="line-height:normal;font-variant-ligatures:normal;font-variant-position:normal;font-variant-caps:normal;font-variant-numeric:normal;font-variant-alternates:normal;font-feature-settings:normal;text-indent:0;text-align:start;text-decoration-line:none;text-decoration-style:solid;text-decoration-color:#000;text-transform:none;text-orientation:mixed;shape-padding:0;isolation:auto;mix-blend-mode:normal;marker:none" d="M32 3.749C16.428 3.749 3.749 16.428 3.749 32c0 15.572 12.679 28.251 28.251 28.251 15.572 0 28.251-12.679 28.251-28.251C60.251 16.428 47.572 3.749 32 3.749zm0 5.12c12.806 0 23.131 10.325 23.131 23.131 0 12.806-10.325 23.131-23.131 23.131C19.194 55.131 8.869 44.806 8.869 32 8.869 19.194 19.194 8.869 32 8.869z" color="#000" font-weight="400" font-family="sans-serif" white-space="normal" overflow="visible" fill-opacity=".152" stroke-width="4.999" stroke-linecap="round" stroke-linejoin="round" paint-order="stroke fill markers"/><path d="M26.888 24a.865.865 0 0 0-.888.873l-.05 6.631c3.643-5.572 6.729 3.764 13.616-.26l-6.133-3.564-6.132-3.563a.862.862 0 0 0-.413-.118z" fill="#fff" fill-opacity=".23"/><path d="M43.55 32.572A11.571 11.571 0 0 0 32 21.414 11.571 11.571 0 0 0 20.45 32.4a11.571 11.571 0 0 1-.022-.414A11.571 11.571 0 0 1 32 20.414a11.571 11.571 0 0 1 11.572 11.572 11.571 11.571 0 0 1-.021.586z" style="isolation:auto;mix-blend-mode:normal;marker:none" color="#000" display="block" overflow="visible" opacity=".8" fill="#a431a1" fill-opacity=".162" stroke-width="15.123" stroke-linecap="round" stroke-linejoin="round" stroke-opacity=".157" paint-order="stroke markers fill"/></svg>