<svg xmlns="http://www.w3.org/2000/svg" height="136.533" viewBox="0 0 136.53333 136.53333" width="136.533"><filter id="a" color-interpolation-filters="sRGB" height="1.031" width="1.031" x="-.016" y="-.016"><feGaussianBlur stdDeviation=".799"/></filter><linearGradient id="c" gradientUnits="userSpaceOnUse" x1="243.151" x2="242.797" y1="62.73" y2="122.127"><stop offset="0" stop-color="#f9f9f9"/><stop offset="1" stop-color="#d6d6d6"/></linearGradient><filter id="b" color-interpolation-filters="sRGB" height="1.166" width="1.166" x="-.083" y="-.083"><feGaussianBlur stdDeviation="2.11"/></filter><g transform="matrix(.97108 0 0 .97108 -148.42 53.599)"><rect fill="#5d5d5d" filter="url(#a)" height="109.128" rx="4.827" transform="rotate(-9.219)" width="107.46" x="159.551" y="-8.17"/><rect fill="#fff" height="109.128" rx="4.827" transform="rotate(-9.219)" width="107.46" x="159.551" y="-8.17"/><path d="M162.667-27.183l94.218-16.599 16.365 93.516-93.984 17.3z" fill="#8dcc5d"/><path d="M262.102-13.967c-28.797 4.7-68.073 12.447-94.143 16.822l11.307 64.18 93.984-17.3z" fill="#e9e3d3"/><path d="M256.098-43.643l-24.621 4.338v17.518c0 .83.669 1.5 1.5 1.5h28.02l-4.089-23.356z" fill="#f5cbd2"/><path d="M238.64-40.566l-13.523 2.38 3.393 16.748L165.7-9.973l2.099 11.914L231.37-8.64l12.139 63.85.578-.105 11.816-2.176-11.777-63.78 17.975-3.115-2.247-12.842-18.101 3.102z" fill="#fff"/><path d="M234.5-19.234c-.374 0-.738.024-1.084.058-1.356.134-2.737.448-4.469.836L166.102-7.69l1.214 6.893 62.971-10.672.09-.02c.437-.097.84-.185 1.209-.263 2.484-.283 2.51-.254 2.842 2.01.05.296.101.613.156.955l.006.037 11.486 63.486 6.883-1.267-11.475-63.43c-.276-1.738-.493-3.121-.882-4.434-.395-1.332-1.091-2.88-2.62-3.884-1.146-.753-2.361-.958-3.482-.955z" fill="#4ac7fd"/><path d="M234.5-19.734a11.6 11.6 0 0 0-1.133.06c-1.364.135-2.75.453-4.424.828l-.011.002h-.002L166.016-8.182l.173.985 62.754-10.635v.004l.014-.002c1.785-.4 3.167-.715 4.508-.848h.002c1.339-.132 2.848-.099 4.242.817 1.39.912 2.034 2.329 2.414 3.609.377 1.27.592 2.64.87 4.38 0 .008.002.011.003.018l.008.043v.002l11.463 63.37.984-.182-11.46-63.348-.008-.043-.004-.029-.002-.008h-.002c-.276-1.73-.492-3.137-.893-4.488-.41-1.384-1.157-3.065-2.824-4.16-1.247-.82-2.571-1.039-3.758-1.037zm-1.47 7.357c-.403.002-.879.058-1.5.129l-.024.002-.024.004c-.371.078-.776.167-1.214.265l-.075.018-62.962 10.67.171.984 62.98-10.674.102-.021h.002c.426-.095.816-.182 1.176-.258.607-.069 1.066-.117 1.373-.119.311-.002.44.046.49.082.051.036.112.112.186.377.073.265.138.683.22 1.248l.003.006v.006c.05.294.102.609.156.949v.002l.008.041 11.486 63.492.983-.18-11.483-63.48-.006-.031v-.002a90.935 90.935 0 0 0-.156-.947v-.002c-.083-.566-.144-1.002-.246-1.37-.102-.368-.265-.705-.572-.923-.308-.219-.672-.27-1.075-.268z" fill="#3884d7"/><path d="M167.799 1.941L231.37-8.64l12.139 63.85-64.244 11.826z" fill="#e4dfce"/><path d="M170.105 16.421c9.694-2.47 19.89-1.13 30.427 1.738 13.532 3.683 30.753 23.642 41.935 19.533l1.043 17.517-13.347 1.251c-13.197-5.706-22.17-15.944-31.557-21.59-8.192-4.928-16.357-3.378-25.618-2.6" fill="#fadf31" stroke="#edc570"/><path d="M183.924 6.465l.604 5.01 33.929-6.11L216.86.494c-4.888 3.911-10.823 3.817-17.017 2.735-4.394 4.507-10.315 3.275-15.92 3.237z" fill="#e55259"/><path d="M184.528 11.475l33.929-6.11c.121 4.424 1.031 8.934-.855 13.137-2.115 6.331-7.39 8.835-12.727 11.264-3.68.23-6.816-.516-9.765-1.597l-6.482-4.474-1.439-2.717-1.526-2.702-.785-3.095z" fill="#498dfd"/><path d="M183.924 6.465c5.142.17 10.083 1.886 15.919-3.237 5.761 1.257 11.486 1.64 17.017-2.735 7.77 18.77-6.716 28.559-12.193 29.135-4.764.502-20.761-.274-20.743-23.163zM184.528 11.475l33.929-6.11" fill="none" stroke="#fff"/><text x="34.773" y="71.479" font-weight="700" font-size="15.848" font-family="Source Sans Pro" letter-spacing="0" word-spacing="0" fill="#fff" stroke-width=".792" transform="rotate(-9.473 -177.188 -900.333)"><tspan x="34.773" y="71.479">280</tspan></text><circle cx="246.959" cy="95.293" fill="#222" filter="url(#b)" opacity=".513" r="30.582" transform="matrix(.93757 -.19128 .18138 .98873 10.146 -.33)"/><path transform="rotate(-10.949)" d="M275.324 93.843a29.345 29.345 0 0 1-29.345 29.345 29.345 29.345 0 0 1-29.345-29.345 29.345 29.345 0 0 1 29.345-29.345 29.345 29.345 0 0 1 29.345 29.345z" fill="url(#c)"/><path d="M263.776 68.415l-8.932-21.144 9.333-1.806z" fill="#a6a6a6"/><path d="M254.876 22.412l-.402 22.95 9.334-1.806z" fill="#df0000"/></g></svg>