<svg xmlns="http://www.w3.org/2000/svg" xmlns:xlink="http://www.w3.org/1999/xlink" width="48" height="48"><defs><linearGradient id="e"><stop offset="0" stop-color="#e9c7fb"/><stop offset="1" stop-color="#fff"/></linearGradient><linearGradient id="d"><stop offset="0"/><stop offset="1" stop-opacity="0"/></linearGradient><linearGradient id="a"><stop offset="0" stop-color="#432b4d"/><stop offset="1" stop-color="#b154d8"/></linearGradient><linearGradient id="c"><stop offset="0" stop-color="#432b4d"/><stop offset="1" stop-color="#b154d8"/></linearGradient><linearGradient id="b"><stop offset="0" stop-color="#432b4d"/><stop offset="1" stop-color="#913bb5"/></linearGradient><linearGradient xlink:href="#a" id="f" x1="30.573" y1="42.531" x2="16.567" y2="-1.758" gradientUnits="userSpaceOnUse" gradientTransform="matrix(1.00127 0 0 1 -.005 0)"/><linearGradient xlink:href="#b" id="h" gradientUnits="userSpaceOnUse" gradientTransform="matrix(.70089 0 0 -.7 8.196 39.8)" x1="30.573" y1="42.531" x2="22.038" y2="4.186"/><linearGradient xlink:href="#c" id="j" x1="25.944" y1="29.012" x2="22.774" y2="14.793" gradientUnits="userSpaceOnUse" gradientTransform="translate(1)"/><linearGradient xlink:href="#d" id="g" x1="18.77" y1="11.731" x2="37.082" y2="30.043" gradientUnits="userSpaceOnUse"/><linearGradient xlink:href="#e" id="i" x1="27.627" y1="34.47" x2="17.833" y2="10.836" gradientUnits="userSpaceOnUse"/></defs><path d="M24 3.49A20.465 20.465 0 0 0 3.49 24 20.465 20.465 0 0 0 24 44.51 20.465 20.465 0 0 0 44.51 24 20.465 20.465 0 0 0 24 3.49z" fill-opacity=".084" stroke-width="1.025"/><path d="M24 4C12.92 4 4 12.92 4 24s8.92 20 20 20 20-8.92 20-20S35.08 4 24 4z" fill="url(#f)"/><path d="M31.18 12.668L14.844 30.387l.191 2.502 11.008 11.007A19.951 19.951 0 0 0 44 24c0-.675-.035-1.342-.1-2l-9.027-9.027-3.693-.305z" opacity=".4" fill="url(#g)" stroke-linejoin="bevel"/><path d="M25 37c-7.756 0-14-6.244-14-14S17.244 9 25 9s14 6.244 14 14-6.244 14-14 14z" fill="url(#h)"/><path d="M24 13c-6.074 0-11 4.924-11 11 0 6.074 4.925 11 11 11 6.076 0 11-4.925 11-11 0-6.076-4.924-11-11-11z" fill="url(#i)" fill-rule="evenodd"/><path d="M21 18l10 6.077L21.035 30 21 18z" fill="url(#j)" fill-rule="evenodd"/><path d="M4.012 23.5c-.004.167-.012.332-.012.5 0 11.08 8.92 20 20 20s20-8.92 20-20c0-.168-.008-.333-.012-.5A19.952 19.952 0 0 1 24 43 19.952 19.952 0 0 1 4.012 23.5z" opacity=".15"/><path d="M21 18l.004 1.002 9.164 5.568.832-.494L21 18z" fill-opacity=".247" fill-rule="evenodd"/></svg>