<svg xmlns="http://www.w3.org/2000/svg" xmlns:xlink="http://www.w3.org/1999/xlink" width="48" height="48"><defs><linearGradient x1="526.917" y1="812.362" x2="527.75" y2="812.362" id="K" xlink:href="#a" gradientUnits="userSpaceOnUse" gradientTransform="matrix(1.2 0 0 1.2 -673.3 -1013.335)"/><linearGradient id="a"><stop offset="0" stop-color="#fff"/><stop offset="1" stop-color="#fff" stop-opacity="0"/></linearGradient><linearGradient x1="526.917" y1="812.362" x2="527.75" y2="812.362" id="J" xlink:href="#b" gradientUnits="userSpaceOnUse" gradientTransform="matrix(1.2 0 0 1.2 -664.3 -1013.335)"/><linearGradient id="b"><stop offset="0" stop-color="#fff"/><stop offset="1" stop-color="#fff" stop-opacity="0"/></linearGradient><linearGradient x1="526.917" y1="812.362" x2="527.75" y2="812.362" id="I" xlink:href="#c" gradientUnits="userSpaceOnUse" gradientTransform="matrix(1.2 0 0 1.2 -655.3 -1013.335)"/><linearGradient id="c"><stop offset="0" stop-color="#fff"/><stop offset="1" stop-color="#fff" stop-opacity="0"/></linearGradient><linearGradient x1="526.917" y1="812.362" x2="527.75" y2="812.362" id="H" xlink:href="#d" gradientUnits="userSpaceOnUse" gradientTransform="matrix(1.2 0 0 1.2 -646.3 -1013.335)"/><linearGradient id="d"><stop offset="0" stop-color="#fff"/><stop offset="1" stop-color="#fff" stop-opacity="0"/></linearGradient><linearGradient x1="24" y1="6.033" x2="24" y2="42.033" id="G" xlink:href="#e" gradientUnits="userSpaceOnUse" gradientTransform="matrix(-1 0 0 1 48 .967)"/><linearGradient id="e"><stop offset="0" stop-color="#fff"/><stop offset=".013" stop-color="#fff" stop-opacity=".235"/><stop offset=".989" stop-color="#fff" stop-opacity=".157"/><stop offset="1" stop-color="#fff" stop-opacity=".392"/></linearGradient><linearGradient x1="526.917" y1="812.362" x2="527.75" y2="812.362" id="F" xlink:href="#f" gradientUnits="userSpaceOnUse" gradientTransform="matrix(1.2 0 0 1.2 -673.3 -965.335)"/><linearGradient id="f"><stop offset="0" stop-color="#fff"/><stop offset="1" stop-color="#fff" stop-opacity="0"/></linearGradient><linearGradient x1="526.917" y1="812.362" x2="527.75" y2="812.362" id="E" xlink:href="#g" gradientUnits="userSpaceOnUse" gradientTransform="matrix(1.2 0 0 1.2 -664.3 -965.335)"/><linearGradient id="g"><stop offset="0" stop-color="#fff"/><stop offset="1" stop-color="#fff" stop-opacity="0"/></linearGradient><linearGradient x1="526.917" y1="812.362" x2="527.75" y2="812.362" id="D" xlink:href="#h" gradientUnits="userSpaceOnUse" gradientTransform="matrix(1.2 0 0 1.2 -655.3 -965.335)"/><linearGradient id="h"><stop offset="0" stop-color="#fff"/><stop offset="1" stop-color="#fff" stop-opacity="0"/></linearGradient><linearGradient x1="24" y1="5.571" x2="24" y2="42.429" id="C" xlink:href="#i" gradientUnits="userSpaceOnUse" gradientTransform="translate(0 .967)"/><linearGradient id="i"><stop offset="0" stop-color="#fff"/><stop offset=".033" stop-color="#fff" stop-opacity=".235"/><stop offset=".97" stop-color="#fff" stop-opacity=".157"/><stop offset="1" stop-color="#fff" stop-opacity=".392"/></linearGradient><linearGradient x1="526.917" y1="812.362" x2="527.75" y2="812.362" id="B" xlink:href="#j" gradientUnits="userSpaceOnUse" gradientTransform="matrix(1.2 0 0 1.2 -646.3 -965.335)"/><linearGradient id="j"><stop offset="0" stop-color="#fff"/><stop offset="1" stop-color="#fff" stop-opacity="0"/></linearGradient><linearGradient x1="24" y1="6.033" x2="24" y2="42.033" id="A" xlink:href="#k" gradientUnits="userSpaceOnUse" gradientTransform="translate(0 .967)"/><linearGradient id="k"><stop offset="0" stop-color="#fff"/><stop offset=".013" stop-color="#fff" stop-opacity=".235"/><stop offset=".989" stop-color="#fff" stop-opacity=".157"/><stop offset="1" stop-color="#fff" stop-opacity=".392"/></linearGradient><linearGradient x1="612.705" y1="477.737" x2="612.705" y2="422.656" id="z" xlink:href="#l" gradientUnits="userSpaceOnUse"/><linearGradient id="l"><stop offset="0" stop-color="#791235"/><stop offset="1" stop-color="#dd3b27"/></linearGradient><linearGradient x1="612.705" y1="479.705" x2="612.705" y2="422.656" id="y" xlink:href="#m" gradientUnits="userSpaceOnUse"/><linearGradient id="m"><stop offset="0" stop-color="#791235"/><stop offset="1" stop-color="#dd3b27"/></linearGradient><linearGradient x1="612.705" y1="481.672" x2="612.705" y2="422.656" id="x" xlink:href="#n" gradientUnits="userSpaceOnUse"/><linearGradient id="n"><stop offset="0" stop-color="#791235"/><stop offset="1" stop-color="#dd3b27"/></linearGradient><radialGradient cx="4.993" cy="43.5" r="2.5" fx="4.993" fy="43.5" id="u" xlink:href="#o" gradientUnits="userSpaceOnUse" gradientTransform="matrix(2.00378 0 0 1.4 27.988 -17.4)"/><linearGradient id="o"><stop offset="0" stop-color="#181818"/><stop offset="1" stop-color="#181818" stop-opacity="0"/></linearGradient><radialGradient cx="4.993" cy="43.5" r="2.5" fx="4.993" fy="43.5" id="v" xlink:href="#p" gradientUnits="userSpaceOnUse" gradientTransform="matrix(2.00378 0 0 1.4 -20.012 -104.4)"/><linearGradient id="p"><stop offset="0" stop-color="#181818"/><stop offset="1" stop-color="#181818" stop-opacity="0"/></linearGradient><linearGradient x1="25.058" y1="47.028" x2="25.058" y2="39.999" id="w" xlink:href="#q" gradientUnits="userSpaceOnUse"/><linearGradient id="q"><stop offset="0" stop-color="#181818" stop-opacity="0"/><stop offset=".5" stop-color="#181818"/><stop offset="1" stop-color="#181818" stop-opacity="0"/></linearGradient><linearGradient id="r"><stop offset="0" stop-color="#f89b7e"/><stop offset=".262" stop-color="#e35d4f"/><stop offset=".661" stop-color="#c6262e"/><stop offset="1" stop-color="#690b2c"/></linearGradient><radialGradient cx="7.496" cy="8.45" r="20" fx="7.496" fy="8.45" id="s" xlink:href="#r" gradientUnits="userSpaceOnUse" gradientTransform="matrix(0 2.33054 -2.73418 0 47.247 -11.36)"/><linearGradient x1="24" y1="44" x2="24" y2="3.899" id="t" xlink:href="#l" gradientUnits="userSpaceOnUse" gradientTransform="matrix(1.10595 0 0 .99724 -2.4 1.04)"/></defs><path style="marker:none" color="#000" fill="url(#s)" stroke="url(#t)" stroke-linecap="round" stroke-linejoin="round" overflow="visible" d="M14.5 5.5h19v39h-19z"/><g opacity=".4"><path fill="url(#u)" d="M38 40h5v7h-5z" transform="matrix(1.1579 0 0 .57143 -3.79 19.143)"/><path transform="matrix(-1.1579 0 0 -.57143 -3.79 19.143)" fill="url(#v)" d="M-10-47h5v7h-5z"/><path fill="url(#w)" d="M10 40h28v7H10z" transform="matrix(1.1579 0 0 .57143 -3.79 19.143)"/></g><path d="M599.781 442.156a7.055 7.055 0 0 0-7.218 7.063v25.562a7.055 7.055 0 0 0 10.593 6.094l22.125-12.781a7.055 7.055 0 0 0 0-12.188l-22.125-12.781a7.055 7.055 0 0 0-3.375-.969z" transform="matrix(.49668 0 0 .50834 -279.316 -209.853)" opacity=".05" fill="url(#x)" fill-rule="evenodd"/><path d="M599.219 444.063a5.163 5.163 0 0 0-4.75 5.156v25.562a5.163 5.163 0 0 0 7.75 4.469l22.125-12.781a5.163 5.163 0 0 0 0-8.938l-22.125-12.781a5.163 5.163 0 0 0-3-.688z" transform="matrix(.49668 0 0 .50834 -279.316 -209.853)" opacity=".1" fill="url(#y)" fill-rule="evenodd"/><path d="M599.406 446.219a3.002 3.002 0 0 0-2.781 3v25.562a3.002 3.002 0 0 0 4.5 2.594l22.125-12.781a3.002 3.002 0 0 0 0-5.188l-22.125-12.781a3.002 3.002 0 0 0-1.719-.406z" transform="matrix(.49668 0 0 .50834 -279.316 -209.853)" opacity=".2" fill="url(#z)" fill-rule="evenodd"/><path d="M5.611 5.5A1.11 1.11 0 0 0 4.5 6.614v36.772A1.11 1.11 0 0 0 5.611 44.5H14.5v-39zm1.889 4h4v4h-4zm0 9h4v4h-4zm0 9h4v4h-4zm0 9h4v4h-4z" style="marker:none" color="#000" fill-opacity=".784" stroke="#000" stroke-linecap="round" overflow="visible"/><path d="M5.5 6.5v37h8v-37z" style="marker:none" opacity=".4" color="#000" fill="none" stroke="url(#A)" stroke-linecap="round" overflow="visible"/><rect width="6" height="6" rx="1" ry="1" x="-14.5" y="6.5" transform="rotate(-90)" opacity=".15" fill="none" stroke="url(#B)" stroke-linejoin="round"/><path opacity=".4" d="M7 9h5v5H7z"/><path style="marker:none" opacity=".5" color="#000" fill="none" stroke="url(#C)" stroke-linecap="round" overflow="visible" d="M15.5 6.5h17v37h-17z"/><path d="M599.618 474.787v-25.574L621.765 462z" transform="matrix(.49668 0 0 .50834 -279.316 -209.853)" fill="#fafafa" fill-rule="evenodd" stroke="#fff" stroke-width="1.99" stroke-linejoin="round"/><rect width="6" height="6" rx="1" ry="1" x="-23.5" y="6.5" transform="rotate(-90)" opacity=".15" fill="none" stroke="url(#D)" stroke-linejoin="round"/><path opacity=".4" d="M7 18h5v5H7z"/><rect width="6" height="6" rx="1" ry="1" x="-32.5" y="6.5" transform="rotate(-90)" opacity=".15" fill="none" stroke="url(#E)" stroke-linejoin="round"/><path opacity=".4" d="M7 27h5v5H7z"/><rect width="6" height="6" rx="1" ry="1" x="-41.5" y="6.5" transform="rotate(-90)" opacity=".15" fill="none" stroke="url(#F)" stroke-linejoin="round"/><path opacity=".4" d="M7 36h5v5H7z"/><path d="M42.389 5.5A1.11 1.11 0 0 1 43.5 6.614v36.772a1.11 1.11 0 0 1-1.111 1.114H33.5v-39zm-1.889 4h-4v4h4zm0 9h-4v4h4zm0 9h-4v4h4zm0 9h-4v4h4z" style="marker:none" color="#000" fill-opacity=".784" stroke="#000" stroke-linecap="round" overflow="visible"/><path d="M42.5 6.5v37h-8v-37z" style="marker:none" opacity=".4" color="#000" fill="none" stroke="url(#G)" stroke-linecap="round" overflow="visible"/><rect width="6" height="6" rx="1" ry="1" x="-14.5" y="-41.5" transform="matrix(0 -1 -1 0 0 0)" opacity=".15" fill="none" stroke="url(#H)" stroke-linejoin="round"/><path opacity=".4" d="M41 9h-5v5h5z"/><rect width="6" height="6" rx="1" ry="1" x="-23.5" y="-41.5" transform="matrix(0 -1 -1 0 0 0)" opacity=".15" fill="none" stroke="url(#I)" stroke-linejoin="round"/><path opacity=".4" d="M41 18h-5v5h5z"/><rect width="6" height="6" rx="1" ry="1" x="-32.5" y="-41.5" transform="matrix(0 -1 -1 0 0 0)" opacity=".15" fill="none" stroke="url(#J)" stroke-linejoin="round"/><path opacity=".4" d="M41 27h-5v5h5z"/><rect width="6" height="6" rx="1" ry="1" x="-41.5" y="-41.5" transform="matrix(0 -1 -1 0 0 0)" opacity=".15" fill="none" stroke="url(#K)" stroke-linejoin="round"/><path opacity=".4" d="M41 36h-5v5h5z"/></svg>