<svg xmlns="http://www.w3.org/2000/svg" xmlns:xlink="http://www.w3.org/1999/xlink" width="48" height="48"><defs><linearGradient x1="167.983" y1="8.508" x2="167.983" y2="54.78" id="l" xlink:href="#a" gradientUnits="userSpaceOnUse" gradientTransform="matrix(.7109 0 0 .7109 -91.335 2.14)"/><linearGradient id="a"><stop offset="0" stop-color="#fff5ef"/><stop offset="1" stop-color="#fef8dd"/></linearGradient><linearGradient x1="24" y1="5" x2="24" y2="43" id="k" xlink:href="#b" gradientUnits="userSpaceOnUse" gradientTransform="translate(0 1)"/><linearGradient id="b"><stop offset="0" stop-color="#fff"/><stop offset=".063" stop-color="#fff" stop-opacity=".235"/><stop offset=".951" stop-color="#fff" stop-opacity=".157"/><stop offset="1" stop-color="#fff" stop-opacity=".392"/></linearGradient><radialGradient cx="6.73" cy="9.957" r="12.672" fx="6.2" fy="9.957" id="j" xlink:href="#c" gradientUnits="userSpaceOnUse" gradientTransform="matrix(0 9.49755 -11.65996 0 140.93 -79.161)"/><linearGradient id="c"><stop offset="0" stop-color="#ffcd7d"/><stop offset=".262" stop-color="#fc8f36"/><stop offset=".705" stop-color="#e23a0e"/><stop offset="1" stop-color="#ac441f"/></linearGradient><radialGradient cx="4.993" cy="43.5" r="2.5" fx="4.993" fy="43.5" id="g" xlink:href="#d" gradientUnits="userSpaceOnUse" gradientTransform="matrix(2.00378 0 0 1.4 27.988 -17.4)"/><linearGradient id="d"><stop offset="0" stop-color="#181818"/><stop offset="1" stop-color="#181818" stop-opacity="0"/></linearGradient><radialGradient cx="4.993" cy="43.5" r="2.5" fx="4.993" fy="43.5" id="h" xlink:href="#e" gradientUnits="userSpaceOnUse" gradientTransform="matrix(2.00378 0 0 1.4 -20.012 -104.4)"/><linearGradient id="e"><stop offset="0" stop-color="#181818"/><stop offset="1" stop-color="#181818" stop-opacity="0"/></linearGradient><linearGradient id="f"><stop offset="0" stop-color="#181818" stop-opacity="0"/><stop offset=".5" stop-color="#181818"/><stop offset="1" stop-color="#181818" stop-opacity="0"/></linearGradient><linearGradient x1="25.058" y1="47.028" x2="25.058" y2="39.999" id="i" xlink:href="#f" gradientUnits="userSpaceOnUse"/></defs><g opacity=".6"><path fill="url(#g)" d="M38 40h5v7h-5z" transform="matrix(1.1579 0 0 .64286 -3.79 16.036)"/><path transform="matrix(-1.1579 0 0 -.64286 -3.79 16.036)" fill="url(#h)" d="M-10-47h5v7h-5z"/><path fill="url(#i)" d="M10 40h28v7H10z" transform="matrix(1.1579 0 0 .64286 -3.79 16.036)"/></g><rect width="39" height="39" rx="2" ry="2" x="4.5" y="5.5" style="marker:none" color="#000" fill="url(#j)" overflow="visible"/><rect width="37" height="37" rx="1" ry="1" x="5.5" y="6.5" opacity=".5" fill="none" stroke="url(#k)" stroke-linecap="round" stroke-linejoin="round"/><rect width="39" height="39" rx="2" ry="2" x="4.5" y="5.5" style="marker:none" opacity=".4" color="#000" fill="none" stroke="#640000" stroke-linecap="round" stroke-linejoin="round" overflow="visible"/><path d="M24.906 9.281c-.377 0-.75.054-1.094.25a1.595 1.595 0 0 0-.687.844c-.208.613-.094 1.027-.094 1.313v19.75h-.062c-3.648-.192-7.515 2.349-7.906 6.25-.002.01 0 .02 0 .03-.224 1.674.533 3.172 1.687 4.157 1.146.978 2.701 1.516 4.25 1.281.021-.003.041.004.063 0 .003 0-.003-.03 0-.031 3.64-.429 6.275-3.922 5.875-7.531-.005-.043.006-.083 0-.125.007-4.89-.016-9.78 0-14.657 2.018 1.386 3.696 3.366 3.812 5.72.148 2.142-.511 4.318-1.312 6.5a.98.98 0 0 0 1.656.968c2.935-3.614 3.914-8.852 1.875-13.188-.01-.023-.022-.04-.031-.062-1.127-2.608-3.353-4.065-4.407-5.906a.98.98 0 0 0 0-.031c-.845-1.338-1.496-2.816-1.687-4.313a.98.98 0 0 0-.094-.313 1.711 1.711 0 0 0-.938-.812c-.34-.112-.61-.096-.812-.094h-.094z" style="marker:none" opacity=".15" color="#000" fill="#ae2109" overflow="visible"/><path d="M24.899 10.25c-1.085 0-.892.717-.892 1.448l-.014 20.76s-.61-.052-1.027-.052c-3.162-.193-6.616 2.1-6.932 5.408-.373 2.63 2.407 4.795 4.885 4.386 3.123-.332 5.446-3.483 5.04-6.594.008-5.479-.019-10.964.012-16.438.213-.244.648.275.872.3 2.511 1.486 4.733 3.937 4.883 6.989.165 2.384-.557 4.718-1.37 6.928 2.722-3.35 3.594-8.238 1.702-12.196-.967-2.298-3.15-3.713-4.37-5.847-.902-1.426-1.588-3.018-1.803-4.702-.176-.35-.54-.394-.885-.39z" style="marker:none" opacity=".3" color="#000" fill="#ae2109" overflow="visible"/><path d="M24.899 9.25c-1.085 0-.892.717-.892 1.448l-.014 20.76s-.61-.052-1.027-.052c-3.162-.193-6.616 2.1-6.932 5.408-.373 2.63 2.407 4.795 4.885 4.386 3.123-.332 5.446-3.483 5.04-6.594.008-5.479-.019-10.964.012-16.438.213-.244.648.275.872.3 2.511 1.486 4.733 3.937 4.883 6.989.165 2.384-.557 4.718-1.37 6.928 2.722-3.35 3.594-8.238 1.702-12.196-.967-2.298-3.15-3.713-4.37-5.847-.902-1.426-1.588-3.018-1.803-4.702-.176-.35-.54-.394-.885-.39z" fill="url(#l)"/></svg>