<svg xmlns="http://www.w3.org/2000/svg" xmlns:xlink="http://www.w3.org/1999/xlink" height="48" viewBox="0 0 47.999999 47.999999" width="48"><defs><linearGradient id="aa"><stop offset="0" stop-color="#fff" stop-opacity=".309"/><stop offset="1" stop-color="#fff" stop-opacity="0"/></linearGradient><linearGradient id="Z"><stop offset="0" stop-color="#bfbfbf"/><stop offset="1" stop-color="#898a8a" stop-opacity="0"/></linearGradient><linearGradient id="Y"><stop offset="0" stop-color="#0c528e"/><stop offset="1" stop-color="#5fb19b"/></linearGradient><linearGradient id="X"><stop offset="0" stop-color="#e0e0e0"/><stop offset="1" stop-color="#939595" stop-opacity=".98"/></linearGradient><linearGradient id="S"><stop offset="0" stop-color="#fff" stop-opacity=".183"/><stop offset="1" stop-color="#fff" stop-opacity="0"/></linearGradient><linearGradient id="V"><stop offset="0" stop-color="#0079e6"/><stop offset="1" stop-color="#3699ed"/></linearGradient><linearGradient id="R"><stop offset="0" stop-opacity=".047"/><stop offset="1" stop-opacity=".266"/></linearGradient><linearGradient id="N"><stop offset="0" stop-color="#fff"/><stop offset="1" stop-color="#fff" stop-opacity="0"/></linearGradient><linearGradient id="B"><stop offset="0" stop-color="#a7a7a7"/><stop offset="1" stop-color="#2a2a2a"/></linearGradient><linearGradient id="A"><stop offset="0" stop-color="#111"/><stop offset=".436" stop-color="#494949"/><stop offset="1" stop-color="#939393"/></linearGradient><linearGradient id="t"><stop offset="0" stop-color="#c0f5a5"/><stop offset="1" stop-color="#f7f7f9"/></linearGradient><linearGradient id="s"><stop offset="0"/><stop offset="1" stop-color="#3e383e"/></linearGradient><linearGradient id="r"><stop offset="0" stop-color="#ff9a00"/><stop offset="1" stop-color="#fdca00"/></linearGradient><linearGradient id="q"><stop offset="0" stop-color="#adcff7"/><stop offset="1" stop-color="#efefff"/></linearGradient><linearGradient id="p"><stop offset="0" stop-color="#c6bede"/><stop offset="1" stop-color="#f7e7ff"/></linearGradient><linearGradient id="n"><stop offset="0" stop-color="#a69fc6"/><stop offset="1" stop-color="#fffbff"/></linearGradient><linearGradient id="o"><stop offset="0" stop-color="#5228ad"/><stop offset=".696" stop-color="#4f28a7"/><stop offset=".849" stop-color="#4b289f"/><stop offset="1" stop-color="#4a289c"/></linearGradient><linearGradient id="m"><stop offset="0" stop-color="#fff"/><stop offset=".714" stop-color="#fff"/><stop offset="1"/></linearGradient><linearGradient id="l"><stop offset="0"/><stop offset="1" stop-color="#211821"/></linearGradient><linearGradient id="k"><stop offset="0" stop-color="#ded3d6"/><stop offset="1" stop-color="#f7ebef"/></linearGradient><linearGradient id="j"><stop offset="0" stop-color="#ded3d6"/><stop offset="1" stop-color="#efebef"/></linearGradient><linearGradient id="g"><stop offset="0" stop-color="#ffe7f7"/><stop offset="1" stop-color="#ffc3ef"/></linearGradient><linearGradient id="i"><stop offset="0" stop-color="#943410"/><stop offset="1" stop-color="#dc7952"/></linearGradient><linearGradient id="h"><stop offset="0" stop-color="#a53810"/><stop offset="1" stop-color="#e75911"/></linearGradient><linearGradient id="f"><stop offset="0" stop-color="#c16d16"/><stop offset="1" stop-color="#ff8e31"/></linearGradient><linearGradient id="e"><stop offset="0" stop-color="#92948f" stop-opacity="0"/><stop offset=".428" stop-color="#9b9e98"/><stop offset="1" stop-color="#939690" stop-opacity="0"/></linearGradient><linearGradient id="d"><stop offset="0" stop-color="#fff" stop-opacity="0"/><stop offset=".459" stop-color="#fff"/><stop offset="1" stop-color="#fff" stop-opacity="0"/></linearGradient><linearGradient id="c"><stop offset="0"/><stop offset=".061" stop-color="#1a1a1a"/><stop offset=".165" stop-color="#333"/><stop offset=".554" stop-color="#4d4d4d"/><stop offset="1" stop-color="#999"/></linearGradient><linearGradient id="b"><stop offset="0" stop-color="#1a1a1a"/><stop offset="1" stop-color="gray"/></linearGradient><linearGradient id="a"><stop offset="0" stop-color="#333"/><stop offset="1" stop-color="#e0e0dd" stop-opacity="0"/></linearGradient><linearGradient id="u"><stop offset="0" stop-color="#2a2a2a"/><stop offset="1" stop-color="#1a1a1a"/></linearGradient><linearGradient id="v"><stop offset="0" stop-color="#c7cbc4"/><stop offset=".198" stop-color="#828480"/><stop offset=".635" stop-color="#fff"/><stop offset="1" stop-color="#c1c4be"/></linearGradient><linearGradient id="w"><stop offset="0" stop-color="gray"/><stop offset="1" stop-color="#101010"/></linearGradient><linearGradient id="x"><stop offset="0" stop-color="#010101"/><stop offset="1" stop-color="#101213"/></linearGradient><linearGradient id="y"><stop offset="0" stop-color="#d7d9d5"/><stop offset="1" stop-color="#fff"/></linearGradient><linearGradient id="z"><stop offset="0" stop-color="#fff"/><stop offset="1" stop-color="#b3b3b3"/></linearGradient><linearGradient id="C"><stop offset="0"/><stop offset="1" stop-opacity="0"/></linearGradient><linearGradient id="D"><stop offset="0" stop-color="#ed5012"/><stop offset="1" stop-color="#bc3f0e"/></linearGradient><radialGradient id="E" gradientUnits="userSpaceOnUse" cy="9.81" cx="-514.13" gradientTransform="translate(338.17 67.963) scale(.5424)" r="145.95"><stop offset="0" stop-color="#ed8246"/><stop offset=".683" stop-color="#ee6d2e"/><stop offset=".701" stop-color="#ef783d"/><stop offset="1" stop-color="#f07f48"/></radialGradient><linearGradient id="F"><stop offset="0" stop-color="#e55016"/><stop offset="1" stop-color="#c44c1c"/></linearGradient><linearGradient id="G"><stop offset="0" stop-color="#ed9666"/><stop offset="1" stop-color="#ed9666" stop-opacity="0"/></linearGradient><linearGradient id="H"><stop offset="0" stop-color="#d64912"/><stop offset="1" stop-color="#d64912" stop-opacity="0"/></linearGradient><linearGradient id="I"><stop offset="0" stop-color="#e89c59"/><stop offset="1" stop-color="#e89c59" stop-opacity="0"/></linearGradient><linearGradient id="J"><stop offset="0" stop-color="#520"/><stop offset="1" stop-color="#520" stop-opacity="0"/></linearGradient><linearGradient id="K"><stop offset="0" stop-color="#f07e51"/><stop offset="1" stop-color="#ec5d24"/></linearGradient><linearGradient id="L"><stop offset="0" stop-color="#ef7545"/><stop offset="1" stop-color="#eb5114"/></linearGradient><linearGradient id="M"><stop offset="0" stop-color="#612d15"/><stop offset="1" stop-color="#8a3f1e" stop-opacity="0"/></linearGradient><linearGradient id="O"><stop offset="0" stop-color="#e1e1e1"/><stop offset="1" stop-color="#fff"/></linearGradient><radialGradient id="P" gradientUnits="userSpaceOnUse" cy="9.81" cx="-514.13" gradientTransform="translate(338.17 67.963) scale(.5424)" r="145.95"><stop offset="0" stop-color="#ed8347"/><stop offset="1" stop-color="#e85913"/></radialGradient><linearGradient id="Q"><stop offset="0" stop-color="#de4814"/><stop offset="1" stop-color="#ff6000"/></linearGradient><linearGradient id="T"><stop offset="0" stop-color="#787878"/><stop offset=".35" stop-color="#bebebe"/><stop offset=".494" stop-color="#c8c8c8"/><stop offset=".589" stop-color="#e6e6e6"/><stop offset="1" stop-color="#8c8c8c"/></linearGradient><linearGradient id="U"><stop offset="0" stop-color="#464646"/><stop offset=".35" stop-color="#8c8c8c"/><stop offset=".51" stop-color="#969696"/><stop offset=".62" stop-color="#aaa"/><stop offset="1" stop-color="#646464"/></linearGradient><linearGradient gradientTransform="translate(1.909 572.614) scale(.45458)" gradientUnits="userSpaceOnUse" y2="971.215" x2="56.151" y1="1042.581" x1="56.151" id="af" xlink:href="#W"/><linearGradient id="W"><stop offset="0" stop-color="#dfe6df"/><stop offset="1" stop-color="#fefefe"/></linearGradient><linearGradient xlink:href="#X" id="ab" x1="23.779" y1="46.027" x2="23.779" y2="6.271" gradientUnits="userSpaceOnUse" gradientTransform="matrix(.99459 0 0 1.00977 .13 -.266)"/><linearGradient xlink:href="#Y" id="ac" x1="10.43" y1="43.068" x2="38.891" y2="13.193" gradientUnits="userSpaceOnUse" gradientTransform="matrix(.96493 0 0 .96493 .842 .954)"/><linearGradient xlink:href="#Z" id="ag" x1="18.303" y1="17.832" x2="18.303" y2="22.745" gradientUnits="userSpaceOnUse" gradientTransform="matrix(.96493 0 0 .96493 1.342 -1.296)"/><linearGradient xlink:href="#aa" id="ad" x1="17.75" y1="11.45" x2="35" y2="42.45" gradientUnits="userSpaceOnUse"/><filter id="ae" x="-.012" width="1.024" y="-.012" height="1.024" color-interpolation-filters="sRGB"><feGaussianBlur stdDeviation=".191"/></filter><mask maskUnits="userSpaceOnUse" id="ah"><path style="isolation:auto;mix-blend-mode:normal;marker:none" color="#000" overflow="visible" fill="#efefef" stroke-width="2" stroke-linecap="square" stroke-dasharray="2,12" stroke-opacity=".435" enable-background="accumulate" d="M4.5 4.438h40.125v29.563H4.5z"/></mask></defs><g transform="translate(0 -3.2)"><circle style="isolation:auto;mix-blend-mode:normal" cx="24" cy="27.2" r="21.035" color="#000" overflow="visible" fill="url(#ab)" stroke="#fff" stroke-width="1.93" enable-background="accumulate"/><circle r="21.035" cy="27.2" cx="24" style="isolation:auto;mix-blend-mode:normal" color="#000" overflow="visible" fill="url(#ac)" stroke-width="2" enable-background="accumulate"/><path style="isolation:auto;mix-blend-mode:normal" d="M13.124 9.634c10.06-5.808 22.926-2.361 28.734 7.7 5.81 10.06 2.362 22.926-7.699 28.734z" color="#000" overflow="visible" fill="url(#ad)" stroke-width="2" enable-background="accumulate"/><g transform="matrix(.66494 0 0 .66494 8.222 -657.744)"><circle cx="23.729" cy="1030.533" r="19.092" fill-opacity=".314" filter="url(#ae)"/><circle r="19.092" cy="1029.179" cx="23.729" fill="url(#af)"/></g><circle style="isolation:auto;mix-blend-mode:normal" cx="18.916" cy="19.435" r="1.88" color="#000" overflow="visible" fill="url(#ag)" stroke-width=".104" enable-background="accumulate"/><circle style="isolation:auto;mix-blend-mode:normal" cx="24" cy="27.2" r="20.771" color="#000" overflow="visible" fill="none" stroke="#000" stroke-width=".501" stroke-linecap="square" stroke-opacity=".435" enable-background="accumulate"/><g style="line-height:0%" font-family="sans-serif" letter-spacing="0" word-spacing="0" fill="#fff" fill-opacity=".471" font-size="3.75"><path d="M19.703 42.003v.39q-.187-.174-.4-.26-.21-.086-.448-.086-.469 0-.718.287-.25.286-.25.828 0 .54.25.828.249.285.718.285.238 0 .448-.086.213-.086.4-.26v.387q-.195.132-.412.197-.217.066-.458.066-.621 0-.978-.379-.357-.38-.357-1.038 0-.66.357-1.038.357-.38.978-.38.245 0 .461.065.218.064.409.194zM21.057 42.712q-.27 0-.428.212-.157.21-.157.579 0 .368.155.58.158.21.43.21.27 0 .427-.212.158-.212.158-.578 0-.365-.158-.577-.157-.214-.427-.214zm0-.286q.44 0 .69.286.252.285.252.79 0 .504-.251.792-.251.285-.69.285-.442 0-.693-.285-.249-.288-.249-.791 0-.506.25-.791.25-.286.691-.286zM24.26 43.288v1.238h-.337V43.3q0-.29-.113-.435-.114-.145-.341-.145-.273 0-.43.174-.158.174-.158.474v1.16h-.339v-2.052h.34v.32q.12-.186.283-.277.165-.092.38-.092.352 0 .534.22.181.218.181.642zM25.269 41.893v.582h.694v.262h-.694v1.114q0 .25.068.322.07.071.28.071h.346v.282h-.346q-.39 0-.539-.144-.148-.147-.148-.531v-1.114h-.247v-.262h.247v-.582zM27.596 42.79q-.057-.033-.124-.047-.066-.017-.147-.017-.285 0-.44.187-.151.185-.151.533v1.08h-.339v-2.05h.339v.318q.106-.187.276-.276.17-.092.414-.092.035 0 .077.006.042.003.093.012zM28.667 42.712q-.27 0-.428.212-.158.21-.158.579 0 .368.156.58.158.21.43.21.27 0 .427-.212.157-.212.157-.578 0-.365-.157-.577-.157-.214-.427-.214zm0-.286q.44 0 .69.286.252.285.252.79 0 .504-.251.792-.251.285-.69.285-.442 0-.693-.285-.249-.288-.249-.791 0-.506.25-.791.25-.286.691-.286zM30.165 41.677h.337v2.85h-.337z" style="line-height:10"/></g><g style="line-height:0%" font-family="sans-serif" letter-spacing="0" word-spacing="0" fill="#fff" fill-opacity=".392" font-size="3.75"><path d="M1.977 45.597h.551l.698 1.86.701-1.86h.551v2.733h-.36v-2.4l-.705 1.875H3.04l-.705-1.875v2.4h-.359zM5.2 46.28h.337v2.05H5.2zm0-.799h.337v.427H5.2zM7.945 47.092v1.238h-.337v-1.227q0-.29-.114-.435-.113-.145-.34-.145-.273 0-.43.174-.158.174-.158.474v1.16h-.339V46.28h.339v.318q.12-.185.284-.276.164-.092.379-.092.353 0 .534.22.182.218.182.642z" style="line-height:10"/></g><g style="line-height:0%" font-family="sans-serif" letter-spacing="0" word-spacing="0" fill="#fff" fill-opacity=".392" font-size="3.75"><path d="M38.54 45.784h.55l.699 1.86.7-1.86h.552v2.734h-.36v-2.4l-.706 1.874h-.371l-.705-1.875v2.4h-.36zM42.694 47.487q-.408 0-.565.093-.158.094-.158.319 0 .18.117.286.12.104.323.104.28 0 .448-.198.17-.2.17-.529v-.075zm.672-.14v1.17h-.337v-.31q-.115.186-.287.276-.172.088-.421.088-.315 0-.502-.176-.185-.178-.185-.474 0-.346.23-.522.233-.176.693-.176h.472v-.033q0-.232-.153-.359-.152-.128-.429-.128-.176 0-.342.042-.167.042-.32.127v-.312q.184-.071.358-.106.174-.036.339-.036.445 0 .665.23.22.231.22.7zM45.767 46.467l-.742.998.78 1.053h-.397l-.597-.806-.597.806h-.397l.796-1.073-.728-.978h.397l.544.73.544-.73z" style="line-height:10"/></g><path style="isolation:auto;mix-blend-mode:normal;marker:none" d="M28.886 8.659L27.42 13.65c.122.034.244.069.365.105l1.432-5zm-14.21 1.64l-.304.165 2.428 4.753c.109-.066.218-.13.327-.193zm25.716 7.39l-4.537 2.61c.062.11.122.22.18.333l4.522-2.638zM5.52 21.782l-.098.332 5.246 1.769c.032-.121.067-.242.102-.362zm31.426 8.67c-.034.122-.07.242-.108.363l5.22 1.357.097-.332zm-24.883 2.837l-5.04 2.737.165.305 5.055-2.71c-.061-.11-.122-.22-.18-.332z" color="#000" overflow="visible" fill="#fff" fill-opacity=".476" stroke-width="2" stroke-linecap="square" stroke-dasharray="2,12" stroke-opacity=".435" enable-background="accumulate"/><path style="isolation:auto;mix-blend-mode:normal;marker:none" mask="url(#ah)" d="M23.758 8.021l-.112 2.051c.126.002.25.006.375.012l.028-2.06zm2.04.1l-.372 2.02c.124.018.25.039.373.06l.289-2.04zm-3.837.027l-.287.036.178 2.056c.124-.019.248-.035.373-.05zm-2.004.39l-.281.071.437 2.018c.12-.035.242-.069.364-.1zm10.012.66l-.86 1.898c.117.047.233.096.348.146l.781-1.933zM17.975 9.2l-.27.11.72 1.945c.114-.054.228-.104.343-.154zm13.886.887L30.7 11.932c.11.061.215.126.322.191l1.094-1.887zm1.711 1.117l-1.386 1.68c.1.075.196.15.294.228l1.325-1.73zm-19.176.049l-.232.174 1.232 1.717c.095-.084.191-.166.288-.247zm20.768 1.305l-1.672 1.53c.086.092.17.186.252.28l1.625-1.601zm-22.316.023l-.207.205 1.441 1.543c.083-.095.166-.187.252-.28zm23.685 1.496l-1.853 1.307c.073.101.144.205.215.308l1.816-1.384zm-25.207.195l-.178.229 1.688 1.43c.072-.103.144-.204.219-.305zM10.19 15.97l-.146.25 1.855 1.205c.058-.112.117-.222.178-.332zm28.461 1.65l-2.224.805c.043.118.087.236.127.355l2.207-.89zm-29.398.217l-.111.27 2.107.972c.043-.118.087-.235.133-.351zm30.139 1.934l-2.412.57c.033.12.064.24.093.361l2.393-.65zm.412 1.998l-2.465.257c.017.124.033.249.047.373l2.457-.343zm-31.631.05l-.04.287 2.397.399c.006-.126.014-.252.024-.377zm29.187 1.946c-.002.125-.004.251-.01.377l2.63.002v-.29zm-29.338.093v.29l2.426.087c-.01-.125-.019-.25-.025-.375zm29.26 1.614c-.018.124-.037.25-.058.373l2.605.338.04-.287zm-26.635.129l-2.488.345.04.287 2.501-.261a13.48 13.48 0 0 1-.053-.371zm.313 1.69l-2.424.66.074.28 2.452-.578c-.035-.12-.07-.242-.102-.363zm25.416 1.474c-.049.115-.1.228-.152.341l2.525 1.06.111-.27zm-24.684.357l-2.45.99.109.27 2.496-.918a13.376 13.376 0 0 1-.155-.342zm23.877 1.143c-.062.109-.124.218-.19.326l2.433 1.441.146-.25zm-22.744.82l-2.387 1.463.13.26 2.406-1.463zm21.852.607c-.076.1-.152.199-.23.297l2.228 1.739.178-.229zm-21.192.325L11.29 33.69l.178.23 2.265-1.618c-.083-.095-.167-.19-.248-.287zm19.897 1.109c-.092.086-.187.17-.281.254l2.052 2.039.207-.205zm-18.787.168l-1.963 1.94.205.208 2.041-1.896c-.095-.083-.19-.167-.283-.252zm17.545.955c-.103.073-.205.146-.309.217l1.774 2.281.232-.174zm-16.211.107l-1.733 2.262.233.178 1.799-2.211c-.1-.075-.201-.15-.3-.229zm14.795.815l-.159.1-.17.084 1.47 2.556.253-.144zm-13.407.13l-1.431 2.464.254.148 1.5-2.422a13.35 13.35 0 0 1-.323-.19zm11.926.638l-.168.076-.18.062 1.131 2.723.27-.11zm-10.387.07l-1.093 2.683.27.112 1.177-2.662a13.517 13.517 0 0 1-.354-.133zm8.8.476c-.12.035-.243.067-.364.098l.752 2.88.281-.071zm-7.225.082l-.74 2.801.279.076.828-2.79a13.529 13.529 0 0 1-.367-.087zm5.6.282c-.124.019-.246.035-.37.05l.38 2.954.286-.036zm-3.71.068l-.408 2.924.29.039.493-2.924a13.47 13.47 0 0 1-.375-.039zm2.04.1c-.126.005-.252.008-.378.01l-.03 2.95.29.003z" transform="translate(0 3.2)" color="#000" overflow="visible" fill="#fff" fill-opacity=".351" stroke-width="2" stroke-linecap="square" stroke-dasharray="2,12" stroke-opacity=".435" enable-background="accumulate"/><g color="#000" fill="#fff" fill-opacity=".392" stroke-width="2" stroke-linecap="square" stroke-dasharray="2,12" stroke-opacity=".435"><path style="isolation:auto;mix-blend-mode:normal;marker:none" overflow="visible" enable-background="accumulate" d="M1.75 49.876h6.844v.469H1.75z"/><path style="isolation:auto;mix-blend-mode:normal;marker:none" overflow="visible" enable-background="accumulate" d="M8.219 50.013l2.762-2.762.331.331-2.762 2.762z"/></g><g color="#000" fill="#fff" fill-opacity=".392" stroke-width="2" stroke-linecap="square" stroke-dasharray="2,12" stroke-opacity=".435"><path style="isolation:auto;mix-blend-mode:normal;marker:none" overflow="visible" enable-background="accumulate" d="M45.939 49.876H38.28v.469h7.658z"/><path style="isolation:auto;mix-blend-mode:normal;marker:none" overflow="visible" enable-background="accumulate" d="M38.656 50.013l-2.762-2.762-.331.331 2.762 2.762z"/></g></g></svg>