<svg xmlns="http://www.w3.org/2000/svg" xmlns:xlink="http://www.w3.org/1999/xlink" width="48" height="48"><defs><linearGradient id="I"><stop offset="0" stop-color="#dfe6df"/><stop offset="1" stop-color="#fefefe"/></linearGradient><linearGradient id="H"><stop offset="0" stop-color="#1753ce"/><stop offset=".335" stop-color="#3181ca"/><stop offset="1" stop-color="#32a3ce"/></linearGradient><linearGradient id="F"><stop offset="0" stop-color="#126af0"/><stop offset=".335" stop-color="#1494f0"/><stop offset="1" stop-color="#13cdfc"/></linearGradient><linearGradient id="G"><stop offset="0" stop-color="#77d9f7"/><stop offset=".335" stop-color="#4497eb"/><stop offset="1" stop-color="#a9dcf8"/></linearGradient><linearGradient id="E"><stop offset="0" stop-color="#f7f8f8"/><stop offset=".475" stop-color="#e5e6e6"/><stop offset="1" stop-color="#e4e4e4"/></linearGradient><linearGradient id="D"><stop offset="0" stop-color="#f7f8f8"/><stop offset="1" stop-color="#d6d6d6"/></linearGradient><linearGradient id="C"><stop offset="0" stop-color="#f7f3f7"/><stop offset=".535" stop-color="#eae3ec"/><stop offset="1" stop-color="#d6ccdb"/></linearGradient><linearGradient id="B"><stop offset="0" stop-color="#f7f3f7"/><stop offset=".6" stop-color="#f7eff7"/><stop offset="1" stop-color="#cec3ce"/></linearGradient><linearGradient id="A"><stop offset="0" stop-color="#f7efff"/><stop offset="1" stop-color="#c6bac6"/></linearGradient><linearGradient id="z"><stop offset="0" stop-color="#c6bace"/><stop offset="1" stop-color="#f7f3f7"/></linearGradient><linearGradient id="y"><stop offset="0" stop-color="#d2d2d2"/><stop offset="1" stop-color="#fff"/></linearGradient><linearGradient id="h"><stop offset="0" stop-color="#ded3d6"/><stop offset="1" stop-color="#efebef"/></linearGradient><linearGradient id="g"><stop offset="0" stop-color="#ffe7f7"/><stop offset="1" stop-color="#ffc3ef"/></linearGradient><linearGradient id="f"><stop offset="0" stop-color="#c16d16"/><stop offset="1" stop-color="#ff8e31"/></linearGradient><linearGradient id="e"><stop offset="0" stop-color="#92948f" stop-opacity="0"/><stop offset=".428" stop-color="#9b9e98"/><stop offset="1" stop-color="#939690" stop-opacity="0"/></linearGradient><linearGradient id="d"><stop offset="0" stop-color="#fff" stop-opacity="0"/><stop offset=".459" stop-color="#fff"/><stop offset="1" stop-color="#fff" stop-opacity="0"/></linearGradient><linearGradient id="c"><stop offset="0"/><stop offset=".061" stop-color="#1a1a1a"/><stop offset=".165" stop-color="#333"/><stop offset=".554" stop-color="#4d4d4d"/><stop offset="1" stop-color="#999"/></linearGradient><linearGradient id="b"><stop offset="0" stop-color="#1a1a1a"/><stop offset="1" stop-color="gray"/></linearGradient><linearGradient id="a"><stop offset="0" stop-color="#333"/><stop offset="1" stop-color="#e0e0dd" stop-opacity="0"/></linearGradient><linearGradient id="i"><stop offset="0" stop-color="#fff"/><stop offset="1" stop-color="#fff" stop-opacity="0"/></linearGradient><linearGradient id="j"><stop offset="0" stop-color="#fff"/><stop offset="1" stop-color="#fff" stop-opacity="0"/></linearGradient><linearGradient x1="45.448" y1="92.54" x2="45.448" y2="7.017" id="k" gradientUnits="userSpaceOnUse" gradientTransform="matrix(1.00587 0 0 .99417 100 0)"><stop offset="0"/><stop offset="1" stop-opacity=".588"/></linearGradient><linearGradient id="l"><stop offset="0" stop-color="#fff"/><stop offset="1" stop-color="#fff" stop-opacity="0"/></linearGradient><linearGradient x1="45.448" y1="92.54" x2="45.448" y2="7.017" id="m" gradientUnits="userSpaceOnUse" gradientTransform="matrix(1.00587 0 0 .99417 100 0)"><stop offset="0"/><stop offset="1" stop-opacity=".588"/></linearGradient><linearGradient id="n"><stop offset="0" stop-color="#fff"/><stop offset="1" stop-color="#fff" stop-opacity="0"/></linearGradient><linearGradient id="o"><stop offset="0" stop-color="#e88d01" stop-opacity=".184"/><stop offset=".5" stop-color="#e58907" stop-opacity=".411"/><stop offset=".75" stop-color="#e48a0a" stop-opacity=".682"/><stop offset="1" stop-color="#e4870a"/></linearGradient><linearGradient id="p"><stop offset="0" stop-color="#f0a801" stop-opacity=".186"/><stop offset=".5" stop-color="#f0a801" stop-opacity=".357"/><stop offset=".75" stop-color="#e8a301" stop-opacity=".837"/><stop offset="1" stop-color="#e09201"/></linearGradient><linearGradient id="q"><stop offset="0" stop-color="#fff"/><stop offset="1" stop-color="#fff" stop-opacity="0"/></linearGradient><linearGradient id="r"><stop offset="0" stop-color="#f0bf39"/><stop offset="1" stop-color="#f8e699"/></linearGradient><linearGradient id="s"><stop offset="0" stop-opacity=".471"/><stop offset=".118" stop-opacity=".392"/><stop offset=".238" stop-opacity=".294"/><stop offset="1" stop-opacity=".157"/></linearGradient><linearGradient id="t"><stop offset="0" stop-color="#fff" stop-opacity=".078"/><stop offset=".25" stop-color="#fff" stop-opacity=".314"/><stop offset=".6" stop-color="#fff" stop-opacity="0"/><stop offset="1" stop-color="#fff" stop-opacity="0"/></linearGradient><linearGradient id="u"><stop offset="0" stop-color="#fff" stop-opacity=".13"/><stop offset=".118" stop-color="#424242" stop-opacity=".282"/><stop offset=".238" stop-color="#2f2f2f" stop-opacity=".305"/><stop offset="1" stop-opacity=".351"/></linearGradient><linearGradient id="v"><stop offset="0" stop-opacity=".471"/><stop offset=".118" stop-opacity=".392"/><stop offset=".238" stop-opacity=".294"/><stop offset="1" stop-opacity=".157"/></linearGradient><linearGradient id="w"><stop offset="0" stop-color="#fff" stop-opacity=".078"/><stop offset=".25" stop-color="#fff" stop-opacity=".314"/><stop offset=".6" stop-color="#fff" stop-opacity="0"/><stop offset="1" stop-color="#fff" stop-opacity="0"/></linearGradient><linearGradient id="x"><stop offset="0" stop-color="#fff" stop-opacity=".13"/><stop offset=".118" stop-color="#424242" stop-opacity=".282"/><stop offset=".238" stop-color="#2f2f2f" stop-opacity=".305"/><stop offset="1" stop-opacity=".351"/></linearGradient><linearGradient xlink:href="#F" id="K" x1="50.72" y1="70.384" x2="36.631" y2="27.093" gradientUnits="userSpaceOnUse" gradientTransform="translate(1.909 1007.359) scale(.45458)"/><linearGradient xlink:href="#H" id="L" x1="48.091" y1="1028.725" x2="48.091" y2="985.615" gradientUnits="userSpaceOnUse" gradientTransform="translate(1.909 572.16) scale(.45458)"/><linearGradient xlink:href="#I" id="J" x1="56.151" y1="1042.581" x2="56.151" y2="971.215" gradientUnits="userSpaceOnUse" gradientTransform="translate(1.909 572.614) scale(.45458)"/></defs><g transform="matrix(.98868 0 0 .98868 .04 -992.483)"><rect ry="20.229" rx="20.229" y="1009.404" x="3.5" height="40.458" width="40.458" opacity=".05"/><g transform="translate(1.909 572.614) scale(.45458)"><rect ry="44" rx="44" y="961.362" x="4" height="88" width="88" opacity=".05"/><rect width="87" height="87" x="4.5" y="961.862" rx="43.5" ry="43.5" opacity=".05"/><rect ry="43" rx="43" y="962.362" x="5" height="86" width="86" opacity=".1"/><rect width="85" height="85" x="5.5" y="962.862" rx="42.5" ry="42.5" opacity=".1"/><rect ry="42" rx="42" y="963.362" x="6" height="84" width="84" opacity=".3"/></g><circle r="19.092" cy="1029.179" cx="23.729" fill="url(#J)"/><path d="M23.743 1018.311a21.677 21.677 0 0 0-15.37 6.365l2.003 2.017c7.378-7.37 19.345-7.376 26.72 0l1.99-2.017a21.612 21.612 0 0 0-15.343-6.365zm0 6.151a15.57 15.57 0 0 0-11.038 4.56l2.017 2.003a12.726 12.726 0 0 1 18.013 0l2.018-2.003a15.506 15.506 0 0 0-11.01-4.56zm-.483 5.669a9.913 9.913 0 0 0-6.549 2.897l2.003 2.003a7.097 7.097 0 0 1 10.03 0l2.002-2.003a9.857 9.857 0 0 0-7.003-2.897c-.159 0-.324-.01-.483 0zm.469 5.81c-1.05 0-2.097.392-2.898 1.193l2.898 2.912 2.898-2.912a4.075 4.075 0 0 0-2.898-1.193z" fill="url(#K)"/><path d="M23.737 1020.751a18.852 18.852 0 0 0-13.361 5.53l-1.77-1.784c-.078.075-.157.145-.233.221l2.003 2.017c7.378-7.37 19.345-7.375 26.72 0l1.99-2.017c-.077-.076-.156-.146-.232-.22l-1.758 1.783a18.83 18.83 0 0 0-13.36-5.53zm-.008 6.127a12.697 12.697 0 0 0-9.007 3.736l-1.783-1.77c-.078.073-.157.145-.234.221l2.017 2.003a12.726 12.726 0 0 1 18.013 0l2.017-2.003c-.076-.076-.155-.148-.233-.222l-1.784 1.77a12.697 12.697 0 0 0-9.006-3.735zm0 5.667a7.07 7.07 0 0 0-5.015 2.075l-1.77-1.77c-.078.072-.156.145-.233.221l2.003 2.003a7.097 7.097 0 0 1 10.03 0l2.002-2.003c-.076-.076-.155-.148-.233-.221l-1.77 1.77a7.07 7.07 0 0 0-5.014-2.075zm-2.66 4.417c-.08.069-.162.138-.238.215l2.898 2.912 2.898-2.912a4.293 4.293 0 0 0-.238-.215l-2.66 2.672-2.66-2.672z" fill="url(#L)"/><path d="M23.743 1018.311a21.677 21.677 0 0 0-15.37 6.365l.255.255a21.675 21.675 0 0 1 15.115-6.122c5.45 0 10.878 2.045 15.087 6.122l.255-.256a21.612 21.612 0 0 0-15.342-6.364zm0 6.151a15.57 15.57 0 0 0-11.038 4.56l.256.256a15.569 15.569 0 0 1 10.782-4.318c3.88 0 7.745 1.44 10.754 4.318l.256-.256a15.506 15.506 0 0 0-11.01-4.56zm-.483 5.669a9.913 9.913 0 0 0-6.549 2.897l.256.256a9.923 9.923 0 0 1 6.293-2.656c.159-.01.324 0 .483 0a9.85 9.85 0 0 1 6.748 2.656l.255-.256a9.857 9.857 0 0 0-7.003-2.897c-.159 0-.324-.01-.483 0zm.469 5.81c-1.05 0-2.097.392-2.898 1.193l.256.256a4.082 4.082 0 0 1 2.642-.952c.94 0 1.881.31 2.642.952l.256-.256a4.075 4.075 0 0 0-2.898-1.193z" opacity=".3" fill="#fff"/></g></svg>