<svg xmlns="http://www.w3.org/2000/svg" xmlns:xlink="http://www.w3.org/1999/xlink" width="128" height="128" viewBox="0 0 128 128"><defs><linearGradient id="b"><stop offset="0" stop-color="#1174f7"/><stop offset="1" stop-color="#02bffd"/></linearGradient><linearGradient id="a"><stop offset="0" stop-color="#012fcc"/><stop offset="1" stop-color="#01c2fe"/></linearGradient><linearGradient xlink:href="#a" id="c" x1="-741.832" y1="959.047" x2="-741.832" y2="93.836" gradientUnits="userSpaceOnUse" gradientTransform="matrix(.13668 0 0 .13668 162.312 -5.99)"/><linearGradient xlink:href="#b" id="d" x1="-738.764" y1="931.434" x2="-738.764" y2="152.131" gradientUnits="userSpaceOnUse" gradientTransform="matrix(.13668 0 0 .13668 162.312 -5.99)"/></defs><circle cx="63.592" cy="64.286" r="61.38" fill="url(#c)" stroke-width=".787" stroke-linecap="round" stroke-linejoin="round"/><circle r="55.09" cy="64.286" cx="63.592" fill="url(#d)" stroke-width=".706" stroke-linecap="round" stroke-linejoin="round"/><g fill="none" stroke="#000" stroke-opacity=".067"><path style="line-height:normal;text-indent:0;text-align:start;text-decoration-line:none;text-decoration-style:solid;text-decoration-color:#000;text-transform:none;isolation:auto;mix-blend-mode:normal" d="M63.65 46.99c-7.876 0-14.551 5.34-16.62 12.574-1.798-3.837-5.695-6.525-10.183-6.525-6.173 0-11.246 5.074-11.246 11.246 0 6.172 5.073 11.249 11.246 11.249 4.488 0 8.385-2.69 10.183-6.528 2.069 7.235 8.744 12.576 16.62 12.576 7.817 0 14.459-5.26 16.58-12.414 1.832 3.75 5.68 6.366 10.105 6.366 6.172 0 11.248-5.077 11.248-11.249 0-6.172-5.076-11.246-11.248-11.246-4.425 0-8.273 2.613-10.104 6.363-2.122-7.152-8.764-12.411-16.581-12.411zm0 6.603a10.644 10.644 0 0 1 10.695 10.692c0 5.945-4.75 10.695-10.695 10.695a10.644 10.644 0 0 1-10.693-10.695A10.642 10.642 0 0 1 63.65 53.593zM36.847 59.64c2.605 0 4.646 2.04 4.646 4.644 0 2.605-2.041 4.647-4.646 4.647s-4.645-2.042-4.645-4.647c0-2.605 2.04-4.644 4.645-4.644zm53.488 0c2.604 0 4.646 2.04 4.646 4.644 0 2.605-2.042 4.647-4.646 4.647-2.605 0-4.645-2.042-4.645-4.647 0-2.605 2.04-4.644 4.645-4.644z" color="#000" font-weight="400" font-family="sans-serif" white-space="normal" overflow="visible" stroke-width="3.71330124" stroke-miterlimit="10"/></g><g fill="#fff"><path d="M63.65 46.99c-7.876 0-14.551 5.34-16.62 12.574-1.798-3.837-5.695-6.525-10.183-6.525-6.173 0-11.246 5.074-11.246 11.246 0 6.172 5.073 11.249 11.246 11.249 4.488 0 8.385-2.69 10.183-6.528 2.069 7.235 8.744 12.576 16.62 12.576 7.817 0 14.459-5.26 16.58-12.414 1.832 3.75 5.68 6.366 10.105 6.366 6.172 0 11.248-5.077 11.248-11.249 0-6.172-5.076-11.246-11.248-11.246-4.425 0-8.273 2.613-10.104 6.363-2.122-7.152-8.764-12.411-16.581-12.411zm0 6.603a10.644 10.644 0 0 1 10.695 10.692c0 5.945-4.75 10.695-10.695 10.695a10.644 10.644 0 0 1-10.693-10.695A10.642 10.642 0 0 1 63.65 53.593zM36.847 59.64c2.605 0 4.646 2.04 4.646 4.644 0 2.605-2.041 4.647-4.646 4.647s-4.645-2.042-4.645-4.647c0-2.605 2.04-4.644 4.645-4.644zm53.488 0c2.604 0 4.646 2.04 4.646 4.644 0 2.605-2.042 4.647-4.646 4.647-2.605 0-4.645-2.042-4.645-4.647 0-2.605 2.04-4.644 4.645-4.644z" style="line-height:normal;text-indent:0;text-align:start;text-decoration-line:none;text-decoration-style:solid;text-decoration-color:#000;text-transform:none;isolation:auto;mix-blend-mode:normal" color="#000" font-weight="400" font-family="sans-serif" white-space="normal" overflow="visible" stroke-width="5.566" stroke-miterlimit="10"/></g></svg>