<svg xmlns="http://www.w3.org/2000/svg" xmlns:xlink="http://www.w3.org/1999/xlink" width="128" height="128" viewBox="0 0 166.4 166.4"><defs><linearGradient id="e"><stop offset="0" stop-color="#a2c201"/><stop offset="1" stop-color="#4a930e"/></linearGradient><linearGradient id="n"><stop offset="0" stop-color="#567c12"/><stop offset=".517" stop-color="#73ae09"/><stop offset="1" stop-color="#557a14"/></linearGradient><linearGradient id="d"><stop offset="0" stop-color="#b38846"/><stop offset="1" stop-color="#a57c48"/></linearGradient><linearGradient id="m"><stop offset="0"/><stop offset="1" stop-opacity="0"/></linearGradient><linearGradient id="f"><stop offset="0" stop-color="#bc8b3c"/><stop offset="1" stop-color="#ac7c3e"/></linearGradient><linearGradient id="c"><stop offset="0" stop-color="#51b9db"/><stop offset="1" stop-color="#2fabd4"/></linearGradient><linearGradient id="a"><stop offset="0" stop-color="#db8451"/><stop offset="1" stop-color="#c85c29"/></linearGradient><linearGradient id="b"><stop offset="0"/><stop offset="1" stop-opacity="0"/></linearGradient><linearGradient xlink:href="#d" id="C" x1="-232.727" y1="590.316" x2="-229.374" y2="607.54" gradientUnits="userSpaceOnUse" gradientTransform="scale(5.31232) rotate(-8.45 -2237.96 -881.046)"/><linearGradient xlink:href="#e" id="F" gradientUnits="userSpaceOnUse" gradientTransform="matrix(.83558 -.12413 .12413 .83558 -122.565 953.651)" x1="-187.357" y1="603.809" x2="-187.357" y2="709.168"/><linearGradient xlink:href="#f" id="h" gradientUnits="userSpaceOnUse" gradientTransform="translate(0 852.362)" x1="-187.357" y1="603.809" x2="-187.357" y2="709.168"/><clipPath id="G"><path style="marker:none" d="M-229.076 1455.911v105.79c0 .888.712 2.563 1.457 2.563.09-.837-.484-1.58.627-2.564h71.881a8.77 8.77 0 0 0 8.789-8.789v-88.21a8.77 8.77 0 0 0-8.79-8.79h-25.605z" color="#000" overflow="visible" fill="url(#g)" stroke-width="4.815" stroke-linecap="round" enable-background="accumulate"/></clipPath><linearGradient xlink:href="#f" id="g" gradientUnits="userSpaceOnUse" gradientTransform="translate(0 852.362)" x1="-187.357" y1="603.809" x2="-187.357" y2="709.168"/><clipPath id="J"><path style="marker:none" d="M-229.076 1455.911v105.79c0 .888.712 2.563 1.457 2.563.09-.837-.484-1.58.627-2.564h71.881a8.77 8.77 0 0 0 8.789-8.789v-88.21a8.77 8.77 0 0 0-8.79-8.79h-25.605z" color="#000" overflow="visible" fill="url(#g)" stroke-width="4.815" stroke-linecap="round" enable-background="accumulate"/></clipPath><linearGradient xlink:href="#f" id="i" gradientUnits="userSpaceOnUse" gradientTransform="translate(0 852.362)" x1="-187.357" y1="603.809" x2="-187.357" y2="709.168"/><clipPath id="H"><path style="marker:none" d="M-229.076 1455.911v105.79c0 .888.712 2.563 1.457 2.563.09-.837-.484-1.58.627-2.564h71.881a8.77 8.77 0 0 0 8.789-8.789v-88.21a8.77 8.77 0 0 0-8.79-8.79h-25.605z" color="#000" overflow="visible" fill="url(#j)" stroke-width="4.815" stroke-linecap="round" enable-background="accumulate"/></clipPath><linearGradient xlink:href="#f" id="j" gradientUnits="userSpaceOnUse" gradientTransform="translate(0 852.362)" x1="-187.357" y1="603.809" x2="-187.357" y2="709.168"/><filter id="I" x="-.542" width="2.083" y="-.003" height="1.006" color-interpolation-filters="sRGB"><feGaussianBlur stdDeviation=".14"/></filter><filter id="K" x="-.575" width="2.151" y="-.013" height="1.026" color-interpolation-filters="sRGB"><feGaussianBlur stdDeviation=".568"/></filter><clipPath id="E"><path style="marker:none" d="M-229.076 1455.911v105.79c0 .888.712 2.563 1.457 2.563.09-.837-.484-1.58.627-2.564h71.881a8.77 8.77 0 0 0 8.789-8.789v-88.21a8.77 8.77 0 0 0-8.79-8.79h-25.605z" color="#000" overflow="visible" fill="url(#k)" stroke-width="4.815" stroke-linecap="round" enable-background="accumulate"/></clipPath><linearGradient xlink:href="#f" id="k" gradientUnits="userSpaceOnUse" gradientTransform="translate(0 852.362)" x1="-187.357" y1="603.809" x2="-187.357" y2="709.168"/><clipPath id="D"><path style="marker:none" d="M-229.076 1455.911v105.79c0 .888.712 2.563 1.457 2.563.09-.837-.484-1.58.627-2.564h71.881a8.77 8.77 0 0 0 8.789-8.789v-88.21a8.77 8.77 0 0 0-8.79-8.79h-25.605z" color="#000" overflow="visible" fill="url(#l)" stroke-width="4.815" stroke-linecap="round" enable-background="accumulate"/></clipPath><linearGradient xlink:href="#f" id="l" gradientUnits="userSpaceOnUse" gradientTransform="translate(0 852.362)" x1="-187.357" y1="603.809" x2="-187.357" y2="709.168"/><linearGradient xlink:href="#m" id="B" x1="-148.998" y1="1486.071" x2="-146.601" y2="1487.58" gradientUnits="userSpaceOnUse" gradientTransform="matrix(5.31231 0 0 5.31231 1080.668 -6225.11)"/><linearGradient xlink:href="#m" id="A" x1="-148.998" y1="1486.071" x2="-146.601" y2="1487.58" gradientUnits="userSpaceOnUse" gradientTransform="matrix(5.31231 0 0 5.31231 1096.832 -6113.142)"/><linearGradient xlink:href="#m" id="z" x1="-148.998" y1="1486.071" x2="-146.601" y2="1487.58" gradientUnits="userSpaceOnUse" gradientTransform="matrix(5.31231 0 0 5.31231 1112.625 -6001.759)"/><linearGradient xlink:href="#n" id="L" gradientUnits="userSpaceOnUse" x1="-290.092" y1="1540.578" x2="-280.647" y2="1539.234" gradientTransform="matrix(.76404 0 0 .76404 -11.99 351.952)"/><linearGradient y2="709.168" x2="-187.357" y1="603.809" x1="-187.357" gradientTransform="translate(0 852.362)" gradientUnits="userSpaceOnUse" id="o" xlink:href="#f"/><linearGradient id="r"><stop offset="0" stop-color="#0eb474"/><stop offset="1" stop-color="#0eb474" stop-opacity="0"/></linearGradient><linearGradient id="p"><stop offset="0" stop-color="#7db257"/><stop offset="1" stop-color="#7db257" stop-opacity="0"/></linearGradient><linearGradient xlink:href="#p" id="q" x1="502.835" y1="546.635" x2="316.055" y2="356.662" gradientUnits="userSpaceOnUse"/><linearGradient id="t"><stop offset="0" stop-color="#e6e6e6"/><stop offset="1" stop-color="#f5f5f5"/></linearGradient><linearGradient id="s"><stop offset="0" stop-color="#fff"/><stop offset="1" stop-color="#fff" stop-opacity="0"/></linearGradient><linearGradient id="v"><stop offset="0" stop-color="#f05517"/><stop offset="1" stop-color="#f37340"/></linearGradient><linearGradient gradientTransform="matrix(1.00587 0 0 .99417 100 0)" gradientUnits="userSpaceOnUse" id="u" y2="7.017" x2="45.448" y1="92.54" x1="45.448"><stop offset="0"/><stop offset="1" stop-opacity=".588"/></linearGradient><filter id="w" width="100%" height="100%" x="0%" y="0%"><feColorMatrix in="SourceGraphic" values="0 0 0 0 1 0 0 0 0 1 0 0 0 0 1 0 0 0 1 0"/></filter><clipPath id="x"><path d="M0 0h384v384H0z"/></clipPath><clipPath id="y"><path d="M0 0h384v384H0z"/></clipPath></defs><g transform="matrix(1.59774 0 0 1.59774 400.325 -2356.04)"><path d="M-224.41 1576.746l2.868.138 57.214-8.5c4.76-.705 7.212-3.962 6.473-11l-67.398 16.789s.33 2.127.604 2.321c.275.192.24.253.24.253z" fill="#2c572b" fill-rule="evenodd"/><path d="M-224.666 1572.91c-.622 2.036-1.662 2.992-.332 2.8l58.851-8.532c3.553-.515 5.19-1.994 5.457-4.33.269-2.34-13.638.109-13.638.109-16.848 2.811-33.46 7.496-50.338 9.965z" fill="#f5f5f5" fill-rule="evenodd"/><rect transform="rotate(-8.449)" rx="2.533" ry="2.533" y="1497.865" x="-387.547" height="20.379" width="7.35" style="marker:none" color="#000" overflow="visible" fill="#dd9201" fill-opacity=".947" stroke-width=".106" stroke-linecap="round" enable-background="accumulate"/><path d="M-156.32 1539.293l-3.784 6.342-.71-5.305z" opacity=".35" fill="url(#z)" fill-rule="evenodd" stroke-width=".626"/><rect transform="rotate(-8.449)" rx="2.429" ry="2.429" y="1480.019" x="-387.547" height="20.379" width="7.35" style="marker:none" color="#000" overflow="visible" fill="#bdfdda" stroke-width=".106" stroke-linecap="round" enable-background="accumulate"/><path d="M-158.832 1521.58l-3.783 6.345-.711-5.305z" opacity=".35" fill="url(#A)" fill-rule="evenodd" stroke-width=".626"/><rect transform="rotate(-8.449)" rx="3.675" ry="3.675" y="1462.069" x="-387.547" height="20.379" width="7.35" style="marker:none" color="#000" overflow="visible" fill="#bdeff9" stroke-width=".106" stroke-linecap="round" enable-background="accumulate"/><path d="M-161.402 1503.774l-3.784 6.345-.71-5.303z" opacity=".35" fill="url(#B)" fill-rule="evenodd" stroke-width=".626"/><rect transform="rotate(-8.449)" rx="3.675" ry="3.675" y="1444.543" x="-387.547" height="20.379" width="7.35" style="marker:none" color="#000" overflow="visible" fill="#dddedd" stroke-width=".106" stroke-linecap="round" enable-background="accumulate"/><path style="marker:none" d="M-161.15 1502.86c-.118 1.044-.948 1.922-2.086 2.087l-2.52.37a2.431 2.431 0 0 1-2.595-1.36c.33 1.108 1.447 1.833 2.66 1.652l2.479-.368c1.222-.183 2.082-1.213 2.063-2.38zM-158.564 1520.194c-.12 1.043-.95 1.92-2.087 2.086l-2.521.37a2.429 2.429 0 0 1-2.594-1.36c.33 1.11 1.447 1.834 2.66 1.653l2.478-.368c1.222-.189 2.082-1.213 2.064-2.381zM-155.923 1537.952c-.12 1.041-.95 1.921-2.087 2.088l-2.52.368a2.431 2.431 0 0 1-2.595-1.36c.331 1.108 1.447 1.83 2.66 1.651l2.479-.37c1.222-.176 2.082-1.21 2.063-2.377zM-153.302 1555.606c-.12 1.042-.95 1.92-2.087 2.086l-2.52.37c-1.122.166-2.16-.421-2.595-1.36.33 1.108 1.447 1.832 2.66 1.651l2.479-.368c1.222-.18 2.082-1.214 2.063-2.379z" color="#000" overflow="visible" opacity=".556" stroke-width=".106" stroke-linecap="round" enable-background="accumulate"/><path d="M-239.06 1486.402l13.43 87.991c.11.742.614 2.457 1.236 2.366-.028-.712-.6-1.262.206-2.222l38.667-5.744 2.138-.316 19.258-2.862a7.408 7.408 0 0 0 6.253-8.435l-10.95-73.708a7.405 7.405 0 0 0-8.434-6.25l-19.258 2.857-2.138.32-40.408 6.003z" style="marker:none" color="#000" overflow="visible" fill="url(#C)" stroke-width="4.815" stroke-linecap="round" enable-background="accumulate"/><path transform="matrix(.83558 -.12413 .12413 .83558 -228.365 241.432)" clip-path="url(#D)" style="marker:none" color="#000" overflow="visible" opacity=".169" fill="#fff" stroke-width="4.815" stroke-linecap="round" enable-background="accumulate" d="M-228.656 1455.425h4.875v105.855h-4.875z"/><path transform="matrix(.83558 -.12413 .12413 .83558 -228.365 241.432)" clip-path="url(#E)" d="M-223.269 1457.004h67.264c2.474 0 9.634 1.06 9.634 9.634s3.889-11.137 3.889-11.137l-23.865-2.74-57.099 2.298z" opacity=".08" fill="#fff" fill-rule="evenodd"/><path d="M-239.06 1486.4l13.43 87.993c.11.743.614 2.458 1.236 2.365-.029-.71-.6-1.26.206-2.22l38.667-5.744 2.138-.318 19.257-2.86a7.409 7.409 0 0 0 6.253-8.435l-10.949-73.708a7.409 7.409 0 0 0-8.435-6.253l-19.257 2.86-2.138.318z" style="marker:none" color="#000" overflow="visible" fill="url(#F)" stroke-width="4.815" stroke-linecap="round" enable-background="accumulate"/><path style="marker:none" d="M-176.498 1477.146a7.57 7.57 0 0 0-.758.074l-19.258 2.86-2.139.319-40.407 6.002.171 1.155 40.236-5.977 2.14-.317 19.257-2.86a7.409 7.409 0 0 1 8.435 6.252l10.95 73.707c.025.176.036.351.05.526a7.48 7.48 0 0 0-.05-1.707l-10.95-73.706a7.409 7.409 0 0 0-7.677-6.328zm-47.998 99.068a1.286 1.286 0 0 0-.116.52.495.495 0 0 0 .218.025 2.436 2.436 0 0 0-.102-.545z" color="#000" overflow="visible" fill="#bbd64d" stroke-width="4.815" stroke-linecap="round" enable-background="accumulate"/><path transform="matrix(.83558 -.12413 .12413 .83558 -228.365 241.432)" clip-path="url(#G)" style="marker:none" color="#000" overflow="visible" fill="#9b6b27" stroke-width="4.815" stroke-linecap="round" enable-background="accumulate" d="M-224.837 1456.958h2.279V1561.5h-2.279z"/><path transform="matrix(.83558 -.12413 .12413 .83558 -228.365 241.432)" clip-path="url(#H)" style="marker:none" color="#000" overflow="visible" opacity=".479" fill="#7c561f" stroke-width="4.815" stroke-linecap="round" filter="url(#I)" enable-background="accumulate" d="M-228.006 1457.013h.495v103.623h-.495z"/><path transform="matrix(.18132 -.02693 .12251 .8247 -371.624 278.905)" clip-path="url(#J)" style="marker:none" color="#000" overflow="visible" opacity=".479" fill="#7c561f" stroke-width="4.815" stroke-linecap="round" filter="url(#K)" enable-background="accumulate" d="M-225.835 1457.019h3.277V1561.5h-3.277z"/><path style="marker:none" d="M-224.597 1575.38c-17.306 2.248-8.653 1.124 0 0zm66.542-19.431a7.404 7.404 0 0 1-6.267 8.289l-19.258 2.86-2.139.318-38.665 5.745c-.8.95-.249 1.5-.21 2.2.037-.244.143-.51.405-.822l38.667-5.745 2.14-.318 19.257-2.86a7.409 7.409 0 0 0 6.253-8.436z" color="#000" overflow="visible" fill="#367b0e" stroke-width="4.815" stroke-linecap="round" enable-background="accumulate"/><path d="M-179.467 1483.46c-1.007-.062-.9.591 1.858 2.307l-1.473.85c-.117.055-.405-.095-.453-.178a.353.353 0 0 0-.482-.13l-.326.189a.35.35 0 0 0-.128.48l1.398 2.425a.352.352 0 0 0 .482.129l.325-.19a.35.35 0 0 0 .13-.48c-.063-.108-.001-.44.07-.481l1.474-.852.084 2.55c.061.657.987.656 1.08.17l.625-3.753 1.386-.8c.483-.278.646-.89.367-1.374l-.01-.019a1.006 1.006 0 0 0-1.376-.368l-1.385.799c-1.406-.747-2.862-1.227-3.646-1.275zm-4.354.074l-4.882.812.033.199.631 3.787 4.882-.814-.664-3.984zm-.332.464l.53 3.188-4.084.68-.53-3.188 4.084-.68zm-16.099.485l-3.993.852s-.052 3.47-.06 4.112a1.41 1.41 0 0 0-.53-.103c-.66 0-1.195.443-1.195.99 0 .547.535.99 1.195.99.657 0 1.19-.44 1.195-.984v-.01l.034-3.265 2.52-.574.038 2.268a1.404 1.404 0 0 0-.399-.057c-.66 0-1.195.443-1.195.99 0 .547.536.99 1.195.99.656 0 1.19-.439 1.195-.982v-5.217zm13.076.435a.515.515 0 0 0-.087.007.515.515 0 0 0-.425.592.515.515 0 0 0 .593.423.515.515 0 0 0 .424-.593.515.515 0 0 0-.505-.429zm2.79.143l-.498.698-.647-.2-.5.697-.646-.2-.698 1.346 3.287-.548-.297-1.793zm-8.447 3.142l-.31.05a.118.118 0 0 0-.099.138l.096.59a2.336 2.336 0 0 0-.609.272l-.378-.464a.118.118 0 0 0-.167-.017l-.245.199a.118.118 0 0 0-.016.166l.377.466a2.336 2.336 0 0 0-.39.539l-.559-.213a.122.122 0 0 0-.154.068l-.113.294a.12.12 0 0 0 .07.154l.558.213a2.336 2.336 0 0 0-.067.661l-.591.096a.118.118 0 0 0-.099.136l.05.312a.12.12 0 0 0 .136.098l.593-.095a2.336 2.336 0 0 0 .272.607l-.466.378a.12.12 0 0 0-.017.169l.198.243a.12.12 0 0 0 .169.019l.464-.378a2.336 2.336 0 0 0 .54.39l-.214.558a.12.12 0 0 0 .07.155l.294.112a.12.12 0 0 0 .152-.07l.213-.557a2.336 2.336 0 0 0 .663.066l.095.592a.12.12 0 0 0 .137.098l.31-.05a.12.12 0 0 0 .1-.136l-.096-.593a2.336 2.336 0 0 0 .608-.271l.378.465a.119.119 0 0 0 .167.018l.244-.199a.118.118 0 0 0 .018-.167l-.378-.465a2.336 2.336 0 0 0 .389-.539l.56.213a.12.12 0 0 0 .153-.068l.113-.294a.12.12 0 0 0-.07-.155l-.557-.213a2.336 2.336 0 0 0 .066-.662l.591-.096a.119.119 0 0 0 .099-.136l-.05-.31a.12.12 0 0 0-.136-.099l-.591.094a2.336 2.336 0 0 0-.273-.607l.465-.378a.118.118 0 0 0 .018-.167l-.199-.245a.12.12 0 0 0-.168-.016l-.464.379a2.336 2.336 0 0 0-.54-.391l.214-.56a.12.12 0 0 0-.07-.154l-.293-.111a.121.121 0 0 0-.154.067l-.213.557a2.336 2.336 0 0 0-.662-.066l-.096-.59a.12.12 0 0 0-.136-.1zm-22.705 1.562a2.373 2.373 0 0 0-.453.029v.001a2.373 2.373 0 0 0-1.967 2.718 2.373 2.373 0 0 0 2.72 1.967 2.373 2.373 0 0 0 .263-.06c.063 0 .123 0 .186-.013l1.985-.318a1.621 1.621 0 0 0 1.346-1.862 1.622 1.622 0 0 0-1.863-1.348l-.256.041a2.373 2.373 0 0 0-1.96-1.155zm23.084.16a1.301 1.301 0 0 1 1.232 1.094 1.301 1.301 0 0 1-1.079 1.492 1.301 1.301 0 0 1-1.49-1.079 1.301 1.301 0 0 1 1.078-1.49 1.301 1.301 0 0 1 .26-.016zm-31.77 2.119c-.732.019-1.408.104-2.05.297a7.25 7.25 0 0 0-.569.196l-.001-.004c-1.282.483-2.215 1.171-2.564 1.544-.615.656-.426 1.133-.426 1.133s1.662-.682 2.155-.828c-.181-.236-.169-.396.04-.496a6.006 6.006 0 0 1 2.295-.854c.655-.16.777.237.777.237l2.288-.553c-.092-.339-.294-.628-1.193-.67a14.314 14.314 0 0 0-.752-.002zm2.034.979s-1.737.38-2.333.54c.25.645 1.227.476 1.87.227.642-.248.463-.767.463-.767zm-2.468.709l-.286.073s.005.036.102.214c.102.19-.124.215-.124.215l-.87.3-.872.299s-.194.12-.23-.092c-.034-.2-.051-.232-.051-.232l-.272.117s.34 1.567-.062 2.499c-1.053 2.157.525 1.786.525 1.786l1.314-.452 1.785-.613 1.312-.451s1.473-.68-.685-1.733c-.89-.488-1.586-1.93-1.586-1.93zm49.483.427a3.248 3.248 0 0 0-3.246 3.248 3.248 3.248 0 0 0 3.246 3.249 3.248 3.248 0 0 0 3.249-3.249 3.248 3.248 0 0 0-3.249-3.248zm.928.421a2.977 2.977 0 0 1 2.05 2.827 2.977 2.977 0 0 1-.09.716h-.876c-.27 0-.272 0-.272-.27v-.543c0-.27.001-.27-.27-.27h-2.436c-.27 0-.27.001-.27-.27 0-.27 0-.272.28-.272h.532c.27 0 .27 0 .27-.27v-.426c0-.116 0-.116.126-.116h.686c.27 0 .27 0 .27-.27v-.836zm-50.342.43l.162.468-.47.162-.161-.47.469-.16zm-.738.254l.16.468-.468.163-.162-.47.47-.161zm-.739.252l.162.47-.47.161-.16-.469.468-.162zm1.72.197l.162.47-.47.161-.163-.469.47-.162zm21.49.21l-.05.041c-.135.12-.329.24-.56.352l-.096.046-.113-.078a1.088 1.088 0 0 0-.362-.177 1.422 1.422 0 0 0-.874.07c-.239.106-.487.31-.588.483a1.438 1.438 0 0 0-.165 1.016l.04.17.01.04-.173.027c-.363.053-.785.012-1.228-.121-.43-.13-.833-.337-1.3-.67l-.192-.139-.018.065a1.83 1.83 0 0 0-.031.19c-.064.515.118.925.56 1.26.159.12.162.136.028.158a.839.839 0 0 1-.27-.015 3.98 3.98 0 0 0-.183-.029c-.005.001-.001.035.01.078.15.536.477.845 1.024.964.15.034.16.06.046.116a.875.875 0 0 1-.364.085c-.052 0-.1-.002-.101.01-.01.013.104.168.186.25.224.228.617.383.969.382.054 0 .118-.01.145 0 .076 0 .06.046-.051.16-.273.28-.607.469-1.068.606l-.324.078-.25.054.048.031c.11.075.593.19.925.22.279.022.59.023.83 0 .415-.04.902-.169 1.247-.33a3.51 3.51 0 0 0 1.406-1.194c.568-.81.813-1.837.663-2.778l-.026-.16.127-.153c.07-.085.167-.212.215-.282.083-.123.19-.317.178-.327a1.244 1.244 0 0 0-.156.081c-.223.128-.435.199-.457.156-.004-.008.023-.054.06-.102.166-.214.206-.28.245-.405a.808.808 0 0 0 .038-.176v-.053zm-22.23.045l.163.468-.47.163-.161-.47.469-.161zm-.737.254l.16.469-.468.162-.162-.47.47-.161zm47.88.098l1.802 1.803c-.27.54.812 1.354 1.082 1.083l.45 1.122a2.977 2.977 0 0 1-.566.057 2.977 2.977 0 0 1-2.976-2.978 2.977 2.977 0 0 1 .208-1.087zm-46.162.097l.162.47-.468.163-.163-.47.47-.163zm-.737.255l.16.47-.468.16-.162-.468.47-.162zm-.74.254l.163.47-.47.16-.16-.468.468-.162zm31.37.23a.105.105 0 0 0-.015.002.105.105 0 0 0-.005.001l-3.156.509a1.243 1.243 0 0 0-.693.34.789.789 0 0 0-.224.437c-.009-.026-.02-.04-.027-.08l.024.147c-.002.04-.004.082.002.122l.01.056c.006.042.02.08.034.117l.61 3.799a.952.952 0 0 0 1.094.79l2.387-.384.932-.15-.144-.943-.509-3.158a.105.105 0 0 0-.106-.157c-.201.032-.39 0-.53-.07-.138-.072-.222-.18-.243-.305l-.042-.267c-.02-.126.027-.25.136-.362a.863.863 0 0 1 .479-.234.105.105 0 0 0-.015-.21zm-.619.312c-.138.146-.222.333-.19.529l.042.267c.032.195.17.346.347.442l-2.524.407a1.065 1.065 0 0 1-.634-.085c-.168-.086-.274-.217-.299-.372l-.01-.055c-.024-.155.037-.31.17-.445.131-.135.333-.243.573-.281l2.525-.407zm9.653.59a1.676 1.676 0 0 0-.336.022l-4.049.65a1.649 1.649 0 0 0-1.368 1.895l.342 2.13c.145.905.989 1.515 1.894 1.37l4.047-.65a1.651 1.651 0 0 0 1.372-1.896l-.342-2.13a1.65 1.65 0 0 0-1.56-1.39zm-3.328 1.87l2.584.985-2.144 1.745-.44-2.73zm-7.258.019v.001c.28-.045.529.013.717.153.188.14.315.356.36.628.039.278-.15.773-.478.836a.428.428 0 0 1-.219-.024c-.05-.022-.081-.07-.11-.12-.069.106-.163.2-.276.218a.363.363 0 0 1-.283-.07.458.458 0 0 1-.15-.289.747.747 0 0 1 .079-.465c.075-.14.2-.255.365-.282.076-.012.14.035.2.084l.015-.098.268-.043-.027.615c-.008.086.006.143.026.17.019.027.044.037.098.029.064-.01.128-.06.172-.148a.592.592 0 0 0 .044-.358.71.71 0 0 0-.24-.451c-.128-.104-.306-.152-.542-.114-.43.069-.793.5-.7 1.074.04.246.147.414.297.515.149.101.34.134.543.101a.85.85 0 0 0 .372-.162l.035-.027.138.223-.027.022a1.04 1.04 0 0 1-.499.218c-.264.043-.524 0-.732-.138-.209-.138-.361-.372-.414-.697-.117-.729.34-1.3.968-1.401zm.06.864c-.073.012-.126.07-.16.148a.496.496 0 0 0-.032.256c.01.062.032.101.054.12.023.02.05.028.09.021.043-.01.092-.046.149-.143l.006-.35c-.038-.04-.065-.058-.108-.052zm-30.49 3.225c.126.555-.176 1.792.632 2.776-.126-.555.731-1.918-.632-2.776zm52.162.057c-.733.019-1.408.102-2.05.296a7.25 7.25 0 0 0-.569.197l-.002-.004c-1.281.483-2.214 1.171-2.563 1.543-.615.657-.426 1.134-.426 1.134s1.662-.682 2.155-.828c-.182-.236-.169-.396.04-.496 1.14-.725 2.293-.854 2.293-.854.655-.16.779.237.779.237l2.288-.553c-.092-.339-.294-.628-1.193-.67a14.313 14.313 0 0 0-.752-.002zm-50.925.245c.127.555-.05 2.349.631 2.778-.126-.556.051-2.35-.63-2.778zm12.286.586a.105.105 0 0 0-.014.002l-3.158.51a1.243 1.243 0 0 0-.693.34.785.785 0 0 0-.224.435c-.009-.026-.02-.04-.027-.08l.024.149a.611.611 0 0 0 .003.12l.01.058c.007.042.02.078.035.116l.61 3.8a.95.95 0 0 0 1.092.79l2.387-.385.934-.15-.146-.942-.507-3.16a.105.105 0 0 0-.108-.155.88.88 0 0 1-.528-.07c-.138-.072-.224-.18-.244-.305l-.043-.267c-.02-.126.027-.253.136-.364.11-.112.28-.2.48-.232a.105.105 0 0 0-.019-.21zm40.673.148s-1.737.38-2.333.54c.249.645 1.227.476 1.869.227.642-.248.464-.767.464-.767zm-51.595.124c.126.555-.43.682.378 1.667-.126-.555.304-1.238-.378-1.667zm10.307.04c-.138.146-.22.333-.189.529l.043.267c.031.195.17.346.346.442l-2.525.405c-.24.039-.465 0-.632-.083-.168-.086-.276-.217-.3-.372l-.01-.055c-.025-.155.036-.312.168-.447s.336-.241.576-.28v-.001l2.523-.405zm-13.767.163c.127.556-.176 1.793.506 2.222-.127-.555.176-1.793-.506-2.222zm52.587.382l-.286.073s.005.035.102.214c.102.19-.126.215-.126.215l-.869.3-.87.299s-.196.118-.231-.094c-.035-.2-.051-.23-.051-.23l-.272.117s.34 1.566-.062 2.498c-1.053 2.158.525 1.787.525 1.787l1.314-.452 1.783-.613 1.314-.453s1.473-.677-.685-1.73c-.89-.489-1.586-1.931-1.586-1.931zm.068 1.277l.163.47-.47.161-.161-.47.468-.16zm-48.135.234l-4.998 1.136.633 2.776a1.704 1.704 0 0 0 2.043 1.288l1.667-.379a1.7 1.7 0 0 0 1.316-1.811c.34-.142.614-.33.804-.555.28-.33.386-.735.302-1.106-.084-.37-.357-.69-.752-.866-.262-.117-.58-.166-.939-.15l-.076-.333zm47.396.019l.163.47-.47.162-.161-.47.468-.162zm-24.233.014a2.134 2.134 0 0 0-.422.026l-.137.022-5.07.815a2.068 2.068 0 0 0-1.73 2.366l.006.04c.003.02.01.037.013.057.002.02.003.04.007.06a2.217 2.217 0 0 0 2.545 1.841c.387-.062.732-.22 1.019-.445l2.806-.451c.343.123.722.165 1.108.103a2.217 2.217 0 0 0 1.84-2.546c-.003-.02-.009-.039-.012-.059l-.007-.058-.005-.04a2.062 2.062 0 0 0-1.96-1.73zm23.496.24l.162.47-.47.161-.16-.469.468-.162zm-38.345.15l.002.001c.28-.045.528.011.717.151.188.14.314.356.357.628.04.279-.147.775-.475.837a.428.428 0 0 1-.22-.023c-.049-.022-.08-.07-.109-.12-.069.106-.164.2-.278.218a.363.363 0 0 1-.283-.07.458.458 0 0 1-.15-.29.752.752 0 0 1 .079-.466.52.52 0 0 1 .367-.282c.076-.012.138.037.198.086l.015-.1.268-.043-.027.617c-.008.086.006.143.026.17.02.027.045.035.1.027.064-.01.128-.06.171-.148a.587.587 0 0 0 .043-.356.713.713 0 0 0-.24-.453c-.128-.103-.306-.152-.542-.114-.43.069-.792.503-.7 1.076.04.246.15.412.298.513.15.101.341.136.544.103a.846.846 0 0 0 .37-.163l.037-.027.136.224-.027.02c-.146.118-.31.19-.497.22a1.02 1.02 0 0 1-.734-.139c-.208-.138-.361-.37-.413-.696-.118-.729.338-1.3.967-1.401zm40.065.047l.16.47-.469.161-.162-.469.47-.162zm-24.512.169a.492.492 0 0 1 .515.413.492.492 0 0 1-.408.564.492.492 0 0 1-.563-.408.492.492 0 0 1 .407-.563.492.492 0 0 1 .05-.006zm23.773.086l.162.468-.47.162-.163-.47.47-.16zm-47.435.171c.234 0 .432.042.58.108.256.114.385.287.427.472.043.185 0 .397-.18.61a1.473 1.473 0 0 1-.477.349l-.35-1.539zm46.697.081l.16.47-.468.163-.162-.47.47-.163zm1.718.197l.162.47-.47.161-.16-.469.468-.162zm-40.247.112v.001c-.072.012-.124.07-.157.148a.497.497 0 0 0-.033.256c.01.062.032.1.055.12.023.02.048.028.088.021.043-.01.092-.047.149-.143l.006-.353c-.038-.039-.065-.056-.108-.05zm14.466.063a.492.492 0 0 1 .05 0 .492.492 0 0 1 .465.413.492.492 0 0 1-.407.564.492.492 0 0 1-.564-.406.492.492 0 0 1 .407-.565.492.492 0 0 1 .05-.006zm25.042.08l.162.47-.469.16-.162-.468.47-.162zm-.737.254l.162.469-.47.162-.163-.47.47-.161zm-25.752.157h.001c.025 0 .05 0 .076.013a.2.2 0 0 1 .116.257l-.352.925a.2.2 0 0 1-.372-.141l.353-.925c.029-.078.1-.126.178-.129zm17.431.086l-.369 1.348.452-.072.769 4.787c-.191-.212-.44-.375-.674-.517-.195-.119-.384-.225-.521-.329-.138-.103-.216-.2-.23-.29-.041-.241-.06-.394-.091-.61a.656.656 0 1 0-.197.018c.031.22.048.376.09.625.029.172.156.3.31.416.154.116.345.223.537.34.378.23.748.495.863.885l.1.626a.716.716 0 1 0 .928.566.715.715 0 0 0-.732-.6l-.1-.627h.001l-.003-.01-.15-.942h.002c-.065-.408.11-.685.369-.972.259-.287.6-.568.8-.96h.002c.023-.049.02-.082.02-.127 0-.044-.006-.094-.012-.153a7.129 7.129 0 0 0-.057-.392 12.865 12.865 0 0 0-.07-.378l-.017-.09.49-.077-.172-1.073-1.07.173.172 1.071.384-.062.018.094c.02.104.047.238.07.374.023.135.042.271.054.38.006.053.01.1.01.135 0 .024-.005.045-.005.046-.178.34-.495.609-.765.909a1.92 1.92 0 0 0-.327.47l-.6-3.736.468-.075-.747-1.171zm-14.746.016a.492.492 0 0 1 .05 0 .492.492 0 0 1 .465.413.492.492 0 0 1-.408.564.492.492 0 0 1-.563-.407.492.492 0 0 1 .407-.564.492.492 0 0 1 .05-.006zm-6.65.046a.416.416 0 0 1 .478.345l.043.273.275-.043a.415.415 0 0 1 .477.345.415.415 0 0 1-.345.477l-.274.044.043.274a.415.415 0 0 1-.345.476.415.415 0 0 1-.476-.344l-.045-.274-.273.043a.416.416 0 1 1-.132-.821l.273-.045-.044-.273a.415.415 0 0 1 .345-.477zm2.48.09c.026 0 .052 0 .078.013a.2.2 0 0 1 .116.258l-.353.925a.2.2 0 0 1-.371-.142l.352-.925c.03-.078.1-.126.178-.128zm11.236.083l-2.278.308a.288.288 0 0 0-.246.325l.076.569.286-.04-.078-.57 2.278-.306.078.57.284-.04-.078-.57a.287.287 0 0 0-.322-.246zm-8.094.493a.492.492 0 0 1 .515.413.492.492 0 0 1-.407.564.492.492 0 0 1-.564-.408.492.492 0 0 1 .407-.564.492.492 0 0 1 .049-.005zm9.101.53l-3.984.54a.287.287 0 0 0-.246.324l.192 1.423a.286.286 0 0 0 .323.245l.569-.076.154 1.14a.287.287 0 0 0 .324.244l2.277-.307a.288.288 0 0 0 .247-.324l-.155-1.138.57-.078a.287.287 0 0 0 .246-.322l-.193-1.424a.288.288 0 0 0-.324-.246zm-.245.325a.287.287 0 1 1 .077.568.287.287 0 0 1-.077-.568zm23.458.723l-3.994.85s-.052 3.472-.06 4.114a1.41 1.41 0 0 0-.53-.103c-.66 0-1.194.443-1.194.99 0 .547.535.99 1.195.99.656 0 1.19-.44 1.195-.984v-.01l.033-3.265 2.52-.573.04 2.267a1.415 1.415 0 0 0-.4-.057c-.66 0-1.195.443-1.195.99 0 .547.535.99 1.195.99.656 0 1.19-.438 1.195-.982v-5.217zm-23.912.208l.27 1.993-2.279.308-.268-1.993 2.277-.308zm-26.657 3.099c-2.07.432-3.319 1.466-4.125 3.194l-.412.065-1.38 1.909 1.604-.51-.015.424.94.607.4-.148-.066 1.697 1.381-1.908-.067-.412c2.223-1.73 1.971-3.679 1.74-4.918zm-1.325 1.3a.625.625 0 0 1 .655.524.625.625 0 0 1-.518.717.625.625 0 0 1-.715-.518.625.625 0 0 1 .516-.715.625.625 0 0 1 .062-.008zm28.546 3.536a2.373 2.373 0 0 0-.453.028v.002a2.373 2.373 0 0 0-1.967 2.717 2.373 2.373 0 0 0 2.72 1.968 2.373 2.373 0 0 0 .263-.06c.062 0 .123-.001.186-.013l1.984-.318a1.621 1.621 0 0 0 1.346-1.863 1.622 1.622 0 0 0-1.862-1.347l-.256.041a2.373 2.373 0 0 0-1.96-1.155zm14.032.688l-4.882.812.034.2.63 3.785 4.883-.812-.665-3.985zm-45.877.127a.7.7 0 0 0-.2.016c-.442.12-.707.667-.539.845.094-.075.004-.213.302-.216-.283.01-.043.496-.059.683.336-.144.481-.09.606-.433.037.289.054.135-.03.341 0 0 .435-.277.51-.503.069-.212-.107-.658-.107-.658s-.26-.067-.483-.075zm45.545.338l.53 3.188-4.083.68-.531-3.189 4.084-.679zm-36.871.828l-3.994.852s-.052 3.472-.06 4.114a1.411 1.411 0 0 0-.53-.104c-.66 0-1.195.443-1.195.99 0 .546.536.99 1.195.99.657 0 1.19-.439 1.196-.982v-.012l.033-3.265 2.52-.572.04 2.267a1.416 1.416 0 0 0-.4-.058c-.66 0-1.195.443-1.195.99 0 .546.535.99 1.195.99.655 0 1.19-.439 1.195-.982v-5.218zm33.849.09a.515.515 0 0 0-.088.007.515.515 0 0 0-.424.593.515.515 0 0 0 .593.424.515.515 0 0 0 .424-.592.515.515 0 0 0-.505-.431zm2.79.144l-.499.698-.647-.199-.499.696-.646-.199-.698 1.345 3.286-.547-.297-1.794zm6.932 4.52l-.002.001.002.002v-.003zm0 .003l-.369 1.347.45-.071.77 4.786c-.19-.212-.44-.374-.673-.516-.195-.12-.384-.226-.521-.33-.138-.103-.217-.201-.232-.292-.04-.24-.059-.393-.09-.61a.655.655 0 1 0-.196.02c.031.22.048.375.09.624.029.172.154.302.309.418.154.116.345.223.537.34.378.23.747.493.863.883l.101.627a.716.716 0 1 0 .196-.035l-.1-.627-.002-.01-.152-.94h.003c-.066-.409.111-.685.37-.972.259-.288.6-.568.8-.96v-.002h.003c.022-.049.017-.082.017-.127 0-.044-.004-.094-.01-.153a13.298 13.298 0 0 0-.127-.77l-.017-.088.49-.08-.172-1.07-1.071.171.173 1.072.383-.062.019.095c.02.104.046.236.068.372a6.9 6.9 0 0 1 .056.381c.006.054.01.101.01.135 0 .024-.005.044-.005.045-.178.34-.496.609-.766.909a1.928 1.928 0 0 0-.328.472l-.6-3.736.468-.077-.745-1.17zm-9.557 1.51c.126.555-.177 1.793.63 2.777-.126-.555.733-1.92-.63-2.778zm1.236.303c.127.555-.049 2.347.633 2.776-.127-.555.049-2.347-.633-2.776zm1.364.858c.126.555-.429.681.38 1.665-.127-.555.301-1.236-.38-1.665zm-3.458.202c.126.555-.177 1.793.505 2.222-.126-.556.176-1.793-.505-2.222zm-31.019.86a3.248 3.248 0 1 0 .003 6.496 3.248 3.248 0 0 0-.003-6.496zm-9.473.065l-.31.05a.118.118 0 0 0-.098.137l.095.591a2.336 2.336 0 0 0-.609.272l-.378-.464a.118.118 0 0 0-.167-.017l-.244.198a.118.118 0 0 0-.016.167l.376.466a2.336 2.336 0 0 0-.39.539l-.558-.213a.122.122 0 0 0-.155.068l-.11.294a.117.117 0 0 0 .067.152l.558.213a2.336 2.336 0 0 0-.066.663l-.592.095a.118.118 0 0 0-.098.137l.05.312a.12.12 0 0 0 .136.098l.593-.095a2.336 2.336 0 0 0 .271.607l-.465.378a.12.12 0 0 0-.016.169l.197.243a.12.12 0 0 0 .168.017l.464-.377a2.336 2.336 0 0 0 .54.39l-.214.56a.12.12 0 0 0 .07.153l.294.112a.12.12 0 0 0 .154-.069l.212-.558a2.336 2.336 0 0 0 .662.067l.096.591a.12.12 0 0 0 .136.099l.31-.05a.12.12 0 0 0 .1-.136l-.095-.593a2.336 2.336 0 0 0 .607-.272l.378.466a.12.12 0 0 0 .169.018l.243-.2a.12.12 0 0 0 .017-.168l-.378-.464a2.336 2.336 0 0 0 .39-.538l.56.213a.12.12 0 0 0 .153-.069l.113-.294a.12.12 0 0 0-.07-.154l-.558-.213a2.336 2.336 0 0 0 .068-.662l.59-.096a.119.119 0 0 0 .098-.136l-.049-.31a.12.12 0 0 0-.137-.099l-.59.094a2.336 2.336 0 0 0-.272-.607l.464-.378a.118.118 0 0 0 .017-.167l-.199-.245a.119.119 0 0 0-.166-.016l-.466.377a2.336 2.336 0 0 0-.539-.39l.213-.559a.119.119 0 0 0-.068-.154l-.294-.111a.121.121 0 0 0-.154.066l-.213.558a2.336 2.336 0 0 0-.663-.067l-.095-.59a.12.12 0 0 0-.137-.1zm10.401.356a2.978 2.978 0 0 1 2.05 2.827 2.973 2.973 0 0 1-.09.715h-.876c-.27 0-.272 0-.272-.27v-.542c0-.27 0-.27-.27-.27h-2.436c-.27 0-.27 0-.27-.27 0-.271 0-.272.28-.272h.532c.27 0 .27 0 .27-.27v-.426c0-.116 0-.116.125-.116h.687c.27 0 .27 0 .27-.27v-.836zm34.61.612l-4.998 1.136.631 2.778a1.705 1.705 0 0 0 2.046 1.287l1.665-.38a1.7 1.7 0 0 0 1.317-1.812c.34-.142.613-.33.803-.554.28-.33.388-.734.303-1.105-.084-.37-.357-.69-.751-.866-.263-.117-.583-.167-.941-.152l-.075-.332zm-44.631.754a1.301 1.301 0 0 1 1.231 1.094 1.301 1.301 0 0 1-1.077 1.49 1.301 1.301 0 0 1-1.492-1.077 1.301 1.301 0 0 1 1.079-1.49 1.301 1.301 0 0 1 .259-.017zm44.835.143c.234 0 .431.04.58.107.255.114.387.287.429.472.042.185-.002.398-.183.612a1.471 1.471 0 0 1-.477.346l-.35-1.537zm-38.51.23l1.802 1.803c-.27.541.811 1.355 1.082 1.084l.45 1.122a2.985 2.985 0 0 1-.566.057 2.977 2.977 0 0 1-2.768-4.065zm11.184 6.105l-.31.05a.118.118 0 0 0-.098.137l.095.591c-.215.061-.42.153-.609.272l-.378-.464a.117.117 0 0 0-.167-.017l-.244.198a.118.118 0 0 0-.016.167l.376.466c-.154.16-.286.341-.389.539l-.56-.213a.122.122 0 0 0-.153.068l-.113.294a.12.12 0 0 0 .07.154l.557.213a2.336 2.336 0 0 0-.066.661l-.592.095a.118.118 0 0 0-.098.137l.05.312a.12.12 0 0 0 .136.098l.593-.095c.06.214.152.418.271.607l-.465.378a.12.12 0 0 0-.018.169l.199.243a.12.12 0 0 0 .168.019l.464-.378c.161.154.343.286.54.389l-.214.56a.12.12 0 0 0 .07.153l.294.113a.12.12 0 0 0 .153-.07l.213-.557c.216.054.44.075.662.066l.096.591a.12.12 0 0 0 .136.099l.31-.048a.12.12 0 0 0 .1-.136l-.095-.593a2.33 2.33 0 0 0 .607-.272l.378.466a.119.119 0 0 0 .167.016l.245-.199a.118.118 0 0 0 .017-.167l-.378-.465c.155-.16.286-.342.39-.54l.559.214a.121.121 0 0 0 .154-.067l.113-.294a.12.12 0 0 0-.07-.154l-.558-.213c.054-.217.076-.44.067-.663l.591-.095a.119.119 0 0 0 .099-.137l-.05-.31a.12.12 0 0 0-.136-.1l-.592.096a2.338 2.338 0 0 0-.273-.608l.466-.378a.118.118 0 0 0 .017-.167l-.198-.244a.12.12 0 0 0-.169-.016l-.464.376a2.33 2.33 0 0 0-.54-.389l.214-.56a.12.12 0 0 0-.07-.153l-.292-.113a.123.123 0 0 0-.154.068l-.213.558a2.347 2.347 0 0 0-.663-.067l-.095-.591a.12.12 0 0 0-.137-.1zm-10.046 1.333v.002a1.714 1.714 0 0 0-.422.024l-.136.022-5.071.815a2.068 2.068 0 0 0-1.73 2.366l.007.038c.003.02.01.04.013.06.002.02.002.04.006.06a2.215 2.215 0 0 0 2.544 1.84c.387-.062.734-.22 1.02-.445l2.807-.451c.343.123.721.165 1.108.103a2.217 2.217 0 0 0 1.84-2.546c-.003-.02-.009-.039-.013-.059l-.006-.059-.006-.04a2.06 2.06 0 0 0-1.961-1.73zm50.555.059l-.049.043c-.136.12-.33.24-.56.351l-.096.046-.115-.078a1.081 1.081 0 0 0-.36-.176 1.421 1.421 0 0 0-.874.068c-.24.105-.488.31-.588.483a1.442 1.442 0 0 0-.166 1.017l.04.17.01.04-.172.027c-.363.054-.786.011-1.229-.122-.43-.13-.832-.338-1.3-.67l-.193-.138-.016.066c-.01.036-.026.12-.034.189-.063.515.12.924.563 1.258.158.12.162.137.027.16a.849.849 0 0 1-.272-.017 3.01 3.01 0 0 0-.182-.027c-.005.001 0 .035.012.078.149.537.477.845 1.024.965.149.033.16.06.046.116a.873.873 0 0 1-.364.082c-.053 0-.1 0-.102.012-.01.014.103.169.184.25.224.228.62.383.971.382.054 0 .117-.012.143-.002.077 0 .063.047-.049.161-.273.28-.608.47-1.07.607-.04.011-.185.044-.322.076l-.25.056.047.032c.11.075.595.187.926.217.28.022.59.023.83 0l.001.002c.415-.04.902-.17 1.246-.332.57-.269 1.03-.66 1.405-1.194.568-.808.815-1.834.664-2.776l-.025-.159.127-.155c.07-.085.167-.212.214-.282.084-.123.19-.317.178-.327a1.243 1.243 0 0 0-.155.081c-.224.128-.436.199-.458.156-.004-.008.022-.052.059-.1.166-.214.206-.28.245-.406a.844.844 0 0 0 .04-.178v-.052zm-40.129.33a1.3 1.3 0 1 1-.106 2.6 1.3 1.3 0 0 1 .106-2.6zm-9.722.218a.492.492 0 1 1-.048.005h.048v-.005zm-1.027.706v.005h.05a.492.492 0 1 1-.1.006c.017 0 .033-.011.05-.011zm-1.448.496c.026 0 .052-.001.078.012a.197.197 0 0 1 .115.256l-.353.927a.197.197 0 0 1-.256.114.197.197 0 0 1-.115-.256l.353-.926c.03-.078.1-.125.178-.127zm2.686.097v.004h.048a.492.492 0 1 1-.097.007c.016 0 .032-.011.049-.011zm-6.65.05a.413.413 0 0 1 .476.344l.045.273.273-.043a.417.417 0 0 1 .133.823l-.275.043.045.275a.415.415 0 0 1-.345.477.415.415 0 0 1-.477-.345l-.044-.273-.275.043a.415.415 0 0 1-.477-.345.415.415 0 0 1 .345-.477l.275-.045-.045-.273a.415.415 0 0 1 .345-.477zm2.48.09c.025 0 .052 0 .078.014a.2.2 0 0 1 .116.257l-.355.925a.198.198 0 0 1-.255.114.197.197 0 0 1-.115-.255l.353-.925c.03-.078.1-.127.178-.13zm3.142.576a.492.492 0 1 1-.05.005h.05v-.005zm35.996.502l-.31.051a.118.118 0 0 0-.099.137l.096.591a2.336 2.336 0 0 0-.61.272l-.377-.464a.118.118 0 0 0-.167-.018l-.245.199a.118.118 0 0 0-.016.167l.377.464a2.336 2.336 0 0 0-.39.54l-.559-.213a.122.122 0 0 0-.154.069l-.113.292a.12.12 0 0 0 .07.154l.558.213a2.336 2.336 0 0 0-.067.663l-.591.095a.118.118 0 0 0-.099.137l.05.31a.12.12 0 0 0 .136.1l.593-.096a2.336 2.336 0 0 0 .272.607l-.466.379a.12.12 0 0 0-.017.168l.198.243a.12.12 0 0 0 .169.018l.464-.378a2.336 2.336 0 0 0 .54.389l-.214.56a.12.12 0 0 0 .07.155l.294.111c.061.024.129-.01.152-.068l.213-.558a2.336 2.336 0 0 0 .663.067l.095.591a.12.12 0 0 0 .137.099l.31-.05a.121.121 0 0 0 .1-.138l-.096-.591a2.336 2.336 0 0 0 .608-.272l.378.466a.12.12 0 0 0 .168.017l.243-.198a.12.12 0 0 0 .018-.169l-.378-.464a2.336 2.336 0 0 0 .389-.539l.56.213a.12.12 0 0 0 .153-.07l.113-.292a.12.12 0 0 0-.07-.154l-.557-.213a2.336 2.336 0 0 0 .066-.663l.591-.095a.119.119 0 0 0 .099-.137l-.05-.31a.12.12 0 0 0-.136-.1l-.591.096a2.336 2.336 0 0 0-.273-.608l.465-.378a.118.118 0 0 0 .018-.167l-.199-.244a.12.12 0 0 0-.168-.018l-.464.378a2.336 2.336 0 0 0-.54-.389l.214-.56a.12.12 0 0 0-.07-.153l-.293-.113a.122.122 0 0 0-.154.068l-.213.558a2.336 2.336 0 0 0-.662-.067l-.096-.591a.12.12 0 0 0-.136-.099zm-11.097 1.313c-2.07.432-3.32 1.466-4.126 3.194l-.411.065-1.381 1.909 1.605-.51-.016.424.94.607.4-.148-.066 1.698 1.381-1.909-.067-.412c2.223-1.729 1.971-3.678 1.74-4.918zm11.476.41a1.301 1.301 0 0 1 1.232 1.093 1.301 1.301 0 0 1-1.077 1.491 1.301 1.301 0 0 1-1.493-1.077 1.301 1.301 0 0 1 1.08-1.491 1.301 1.301 0 0 1 .258-.016zm-12.802.89a.625.625 0 0 1 .655.524.625.625 0 0 1-.518.717.625.625 0 0 1-.715-.518.625.625 0 0 1 .516-.715.625.625 0 0 1 .062-.008zm-28.786 2.048c-.4.015-.277.883.914 3.112h-1.702c-.128-.011-.302-.285-.302-.381a.353.353 0 0 0-.353-.353h-.376a.351.351 0 0 0-.352.353v2.798c0 .195.157.353.352.353h.376a.353.353 0 0 0 .353-.353c0-.125.22-.382.302-.381h1.702l-1.203 2.25c-.275.599.527 1.06.852.686l2.415-2.936h1.6c.558 0 1.008-.45 1.008-1.008v-.02c0-.558-.45-1.008-1.007-1.008h-1.6c-1.086-1.736-2.464-3.13-2.979-3.112zm17.473.094a.105.105 0 0 0-.014.002.105.105 0 0 0-.005.001l-3.156.509a1.243 1.243 0 0 0-.693.34.789.789 0 0 0-.224.437c-.009-.026-.02-.042-.027-.081l.024.148c-.002.04-.005.081.001.122l.01.056c.007.042.02.08.035.117l.61 3.798a.952.952 0 0 0 1.093.79l2.387-.383.933-.15-.144-.943-.509-3.158a.105.105 0 0 0-.106-.157c-.201.032-.39 0-.53-.07-.138-.072-.223-.18-.243-.305l-.043-.267c-.02-.126.028-.251.137-.362a.863.863 0 0 1 .478-.234.105.105 0 0 0-.014-.21zm-.618.312c-.138.146-.222.333-.19.529l.042.267c.031.195.17.346.346.442l-2.523.405c-.24.039-.467 0-.634-.083-.168-.086-.274-.217-.299-.372l-.01-.055c-.024-.155.037-.31.169-.445s.334-.243.574-.282v-.001l2.525-.405zm18.254 1.438a2.373 2.373 0 0 0-.452.028v.002a2.373 2.373 0 0 0-1.968 2.717 2.373 2.373 0 0 0 2.72 1.968 2.373 2.373 0 0 0 .263-.06c.063 0 .123-.001.186-.013l1.985-.318a1.621 1.621 0 0 0 1.346-1.863 1.621 1.621 0 0 0-1.863-1.346l-.256.04a2.373 2.373 0 0 0-1.96-1.155zm-9.622.46a.7.7 0 0 0-.2.015c-.442.12-.707.667-.539.845.095-.075.004-.213.302-.216-.283.01-.042.496-.059.684.336-.144.482-.091.606-.434.037.289.054.135-.03.341 0 0 .436-.276.51-.503.069-.212-.107-.658-.107-.658s-.26-.067-.483-.075zm-9.565.58v.002c.28-.045.528.013.717.153.188.139.315.356.359.628.04.278-.149.773-.477.835a.428.428 0 0 1-.22-.023c-.049-.022-.08-.07-.109-.12-.069.106-.163.2-.276.218a.363.363 0 0 1-.283-.07.458.458 0 0 1-.151-.289.752.752 0 0 1 .08-.467c.075-.14.2-.255.365-.281.076-.012.14.036.2.085l.014-.098.269-.043-.027.615c-.008.086.006.143.025.17.02.027.044.037.099.029.064-.01.128-.062.171-.15a.586.586 0 0 0 .045-.356.713.713 0 0 0-.24-.453c-.128-.103-.306-.15-.542-.113-.43.07-.793.502-.7 1.075.039.246.147.412.296.513.15.101.341.136.544.103a.85.85 0 0 0 .372-.162l.035-.027.138.223-.027.022a1.04 1.04 0 0 1-.499.218c-.265.043-.524 0-.733-.139-.208-.138-.36-.37-.413-.696-.117-.729.339-1.3.968-1.401zm34.507.039l-4.882.812.033.199.631 3.786 4.882-.812-.664-3.985zm-.332.464l.53 3.188-4.084.68-.53-3.188 4.084-.68zm-34.116.36v.002c-.072.012-.126.07-.16.148a.496.496 0 0 0-.03.256c.01.062.03.1.053.12.023.02.05.028.09.021.043-.01.092-.047.149-.143l.006-.35c-.038-.04-.066-.06-.108-.053zm31.093.56a.515.515 0 0 0-.087.006.515.515 0 0 0-.424.593.515.515 0 0 0 .592.423.515.515 0 0 0 .425-.593.515.515 0 0 0-.506-.429zm2.79.143l-.498.698-.647-.2-.499.697-.647-.2-.697 1.346 3.288-.548-.3-1.793zm8.975 2.72l-3.994.852s-.052 3.473-.06 4.115a1.411 1.411 0 0 0-.53-.105c-.66 0-1.194.443-1.194.99 0 .547.535.99 1.195.99.656 0 1.19-.438 1.195-.982v-.011l.033-3.266 2.52-.572.04 2.268a1.416 1.416 0 0 0-.4-.06c-.66 0-1.195.445-1.195.992 0 .547.535.99 1.195.99.656 0 1.19-.438 1.195-.982v-5.218zm-27.022.787a3.248 3.248 0 0 0-3.248 3.249 3.248 3.248 0 0 0 3.248 3.248 3.248 3.248 0 0 0 3.248-3.248 3.248 3.248 0 0 0-3.248-3.249zm.928.421a2.977 2.977 0 0 1 2.05 2.828 2.977 2.977 0 0 1-.092.715h-.876c-.27 0-.27 0-.27-.27v-.542c0-.271 0-.27-.27-.27h-2.436c-.271 0-.272-.001-.272-.272s0-.27.28-.27h.532c.27 0 .272 0 .272-.27v-.427c0-.116 0-.116.125-.116h.687c.27 0 .27.001.27-.27v-.836zm8.751 1.345l-.31.05a.118.118 0 0 0-.098.137l.095.592a2.336 2.336 0 0 0-.608.271l-.379-.464a.118.118 0 0 0-.167-.017l-.244.198a.118.118 0 0 0-.016.167l.377.464a2.336 2.336 0 0 0-.39.54l-.56-.212a.122.122 0 0 0-.153.068l-.112.292a.12.12 0 0 0 .069.155l.558.212a2.336 2.336 0 0 0-.067.663l-.591.096a.118.118 0 0 0-.099.136l.05.31a.12.12 0 0 0 .136.1l.593-.095a2.336 2.336 0 0 0 .272.607l-.466.378a.12.12 0 0 0-.018.169l.2.243a.12.12 0 0 0 .168.017l.464-.378a2.336 2.336 0 0 0 .54.39l-.215.56a.12.12 0 0 0 .07.154l.294.112a.12.12 0 0 0 .153-.069l.213-.557a2.336 2.336 0 0 0 .662.066l.096.591a.12.12 0 0 0 .136.099l.31-.05a.12.12 0 0 0 .1-.138l-.095-.59a2.336 2.336 0 0 0 .607-.272l.378.465a.12.12 0 0 0 .169.018l.243-.199a.12.12 0 0 0 .017-.168l-.378-.464a2.336 2.336 0 0 0 .39-.54l.56.214a.12.12 0 0 0 .153-.07l.113-.293a.12.12 0 0 0-.07-.154l-.558-.213a2.336 2.336 0 0 0 .067-.662l.591-.096a.119.119 0 0 0 .099-.136l-.05-.31a.12.12 0 0 0-.136-.1l-.591.095a2.336 2.336 0 0 0-.274-.607l.466-.378a.118.118 0 0 0 .017-.167l-.198-.245a.12.12 0 0 0-.169-.017l-.464.378a2.336 2.336 0 0 0-.539-.39l.213-.559a.119.119 0 0 0-.068-.154l-.294-.113a.122.122 0 0 0-.154.068l-.213.558a2.336 2.336 0 0 0-.663-.066l-.095-.592a.12.12 0 0 0-.137-.098zm-12.448.396l1.803 1.802c-.271.541.811 1.353 1.082 1.082l.45 1.123a2.977 2.977 0 0 1-.566.058 2.977 2.977 0 0 1-2.978-2.978 2.977 2.977 0 0 1 .21-1.087zm-17.34.123a2.118 2.118 0 0 0-.422.026l-.136.022-5.071.815a2.068 2.068 0 0 0-1.73 2.367l.007.038c.003.02.01.039.013.059.002.02.002.04.006.06a2.215 2.215 0 0 0 2.544 1.84c.387-.062.734-.22 1.02-.445l2.807-.451c.343.124.721.165 1.108.103a2.217 2.217 0 0 0 1.84-2.546c-.003-.02-.01-.038-.013-.058l-.006-.06-.006-.039a2.062 2.062 0 0 0-1.961-1.73zm.704.606a.492.492 0 0 1 .514.413.492.492 0 0 1-.406.564.492.492 0 0 1-.565-.408.492.492 0 0 1 .409-.564.492.492 0 0 1 .048-.005zm29.464.597a1.301 1.301 0 0 1 1.232 1.094 1.301 1.301 0 0 1-1.078 1.49 1.301 1.301 0 0 1-1.492-1.077 1.301 1.301 0 0 1 1.08-1.49 1.301 1.301 0 0 1 .258-.017zm-30.491.113a.492.492 0 0 1 .05 0 .492.492 0 0 1 .465.413.492.492 0 0 1-.409.565.492.492 0 0 1-.564-.409.492.492 0 0 1 .409-.562.492.492 0 0 1 .049-.007zm-1.448.491c.026 0 .052 0 .078.013a.197.197 0 0 1 .115.256l-.353.926a.197.197 0 0 1-.256.115.197.197 0 0 1-.115-.256l.353-.927c.03-.078.1-.124.178-.127zm2.686.102a.492.492 0 0 1 .048 0 .492.492 0 0 1 .465.413.492.492 0 0 1-.407.564.492.492 0 0 1-.564-.406.492.492 0 0 1 .409-.565.492.492 0 0 1 .049-.006zm-6.65.046a.415.415 0 0 1 .476.345l.045.273.273-.044a.417.417 0 0 1 .133.823l-.275.043.045.275a.415.415 0 0 1-.345.477.415.415 0 0 1-.477-.345l-.044-.274-.275.043a.415.415 0 0 1-.477-.345.415.415 0 0 1 .345-.476l.275-.045-.045-.273a.415.415 0 0 1 .345-.477zm2.48.09c.025 0 .052 0 .078.013a.2.2 0 0 1 .116.258l-.355.925a.198.198 0 0 1-.255.114.197.197 0 0 1-.115-.256l.353-.925c.03-.078.1-.126.178-.128zm16.035.128l-3.994.85s-.052 3.472-.06 4.114a1.41 1.41 0 0 0-.53-.103c-.66 0-1.195.443-1.195.99 0 .547.536.99 1.195.99.657 0 1.19-.44 1.195-.984v-.01l.034-3.265 2.52-.573.04 2.267a1.415 1.415 0 0 0-.4-.057c-.66 0-1.196.443-1.196.99 0 .547.536.99 1.196.99.655 0 1.19-.438 1.195-.982v-5.217zm-12.893.448a.492.492 0 0 1 .513.413.492.492 0 0 1-.407.564.492.492 0 0 1-.564-.408.492.492 0 0 1 .408-.564.492.492 0 0 1 .05-.005zm-11.722 1.758l-.369 1.349.452-.073.769 4.788c-.191-.212-.44-.374-.674-.517-.195-.119-.383-.225-.521-.329-.138-.103-.217-.202-.232-.292-.04-.24-.058-.394-.09-.61a.655.655 0 1 0-.196.019c.031.22.049.375.09.624.029.172.156.3.31.417.154.116.344.225.536.341.378.23.75.494.864.884l.1.626a.716.716 0 1 0 .196-.035l-.1-.626-.002-.011-.15-.94c-.065-.41.112-.686.371-.973.259-.288.6-.568.801-.96h.002c.022-.05.02-.082.019-.127 0-.044-.006-.095-.011-.153a13.297 13.297 0 0 0-.127-.77l-.018-.088.49-.08-.172-1.07-1.07.17.172 1.072.383-.062.019.094c.02.104.046.238.068.373.023.136.044.274.056.382.006.054.01.1.01.135 0 .024-.005.043-.005.044-.178.34-.496.61-.766.91a1.928 1.928 0 0 0-.328.471l-.6-3.737.468-.075-.745-1.171zm10.13 3.095l-2.278.309a.288.288 0 0 0-.246.324l.078.569.284-.04-.076-.569 2.277-.308.076.569.285-.038-.076-.57a.288.288 0 0 0-.325-.246zm1.009 1.024l-3.986.538a.288.288 0 0 0-.246.325l.192 1.422a.288.288 0 0 0 .324.246l.569-.076.154 1.14a.286.286 0 0 0 .323.244l2.277-.308a.287.287 0 0 0 .246-.323l-.154-1.14.57-.076a.287.287 0 0 0 .245-.322l-.192-1.424a.287.287 0 0 0-.322-.246zm-.247.322a.288.288 0 0 1 .076.57.288.288 0 0 1-.076-.57zm-.454.932l.27 1.992-2.277.309-.27-1.993 2.277-.308z" fill-opacity=".095" stroke-width="6.092" stroke-linecap="round" stroke-linejoin="round" paint-order="fill markers stroke"/><path d="M-212.793 1517.636l3.592-.57a.373.373 0 0 0 .31-.428s-.526-3.033-.66-3.88l-.003-.018c-.11-.694-.058-1.325.123-1.871l.083-.246c-.011 0-.028.018-.035.03l-5.896 7.942a.198.198 0 0 0-.016.048c.13-.098.313-.224.34-.24.565-.37 1.275-.633 2.161-.774m27.815-5.172c-.524-1.466-1.544-2.062-2.416-2.227-.936-.178-2.784-.216-5.076-.121-1.853.072-3.982.426-5.266.67-.318-1.021-1.214-1.857-2.098-2.06-2.355-.525-5.743.229-6.584.612-.665.298-1.38.819-1.71 1.494-.225.455-.33 1.008-.214 1.736.065.409.23 1.379.379 2.241.15.874.284 1.639.284 1.639.122.772-.41 1.498-1.191 1.64l-3.592.569c-.767.122-1.334.34-1.744.609a2.508 2.508 0 0 0-.88.955c-.381.714-.337 1.51-.21 2.31 0 0 .107.642.467 1.89.294.967 2.454 7.65 3.805 9.561.526.75.841 1.044 1.676 1.278 1.85.459 5.946.648 7.835.588 1.895-.063 3.133.25 3.6-1.286.006 0 .087-.38.192-.933.316-1.896.142-3.512-.042-4.671-.018-.115.158-.148.176-.028.13.819.43 3.736 2.763 4.164.925.168 2.775.153 4.649.073 1.695-.078 3.002.38 3.672 4.603.407 2.57-.085 2.997-2.932 3.448-2.313.366-3.183.568-3.471-1.25-.234-1.472 1.265-1.54 2.35-1.712.483-.078.074-.378-.069-1.282-.142-.898.344-1.511-.198-1.436-3.772.494-5.973.94-5.236 5.589.67 4.222 2.43 4.746 7.767 3.9 4.182-.662 5.638-1.039 6.525-6.608.175-1.1.5-4.425.148-9.87-.224-3.436-2.46-13.568-3.359-16.083m-5.496 12.464a7.562 7.562 0 0 0-1.474.327c-.023-1.068.206-2.415 1.743-2.6 1.72-.216 2.211 1.344 2.388 2.423-.772-.204-1.686-.268-2.663-.15m0 0" fill="#fff" stroke-width="1.624"/><path d="M-239.094 1486.36l5.535-.857 13.05 88.317c-1.544.615-3.752.932-4.83 1.955z" fill="url(#L)" stroke-width=".814"/></g></svg>