<svg xmlns="http://www.w3.org/2000/svg" height="128" viewBox="0 0 128 128" width="128"><linearGradient id="a" gradientUnits="userSpaceOnUse" x1="51.458" x2="51.659" y1="23.679" y2="118.361"><stop offset="0" stop-color="#22e491"/><stop offset="1" stop-color="#89deeb"/></linearGradient><path d="M290.993-9.666c9.278-27.329 35.15-46.994 65.615-46.994 30.629 0 56.616 19.878 65.763 47.437M276.146 43.47c48.02 84.933 142.144 51.634 160.199.5" fill="none"/><path d="M7.09 18.956a3.141 3.141 0 0 0-.295.058l.132.901a3.141 3.141 0 0 1 .296-.058 3.141 3.141 0 0 1 3.46 2.203 3.141 3.141 0 0 0-.029-.452 3.141 3.141 0 0 0-3.563-2.652zM97.998 5.634a3.141 3.141 0 0 0-2.653 3.563 3.141 3.141 0 0 0 .103.45 3.141 3.141 0 0 1 2.682-3.112 3.141 3.141 0 0 1 .191-.022l-.132-.9a3.141 3.141 0 0 0-.191.02zM8.255 26.898a3.141 3.141 0 0 0-.296.059l.132.9a3.141 3.141 0 0 1 .296-.058 3.141 3.141 0 0 1 3.46 2.203 3.141 3.141 0 0 0-.029-.452 3.141 3.141 0 0 0-3.563-2.652zM99.16 13.576a3.141 3.141 0 0 0-2.653 3.564 3.141 3.141 0 0 0 .103.449 3.141 3.141 0 0 1 2.682-3.112 3.141 3.141 0 0 1 .191-.021l-.132-.901a3.141 3.141 0 0 0-.191.021zM9.419 34.84a3.141 3.141 0 0 0-.297.059l.132.9a3.141 3.141 0 0 1 .297-.058 3.141 3.141 0 0 1 3.46 2.203 3.141 3.141 0 0 0-.03-.452A3.141 3.141 0 0 0 9.42 34.84zm90.905-13.322a3.141 3.141 0 0 0-2.652 3.564 3.141 3.141 0 0 0 .103.449 3.141 3.141 0 0 1 2.681-3.112 3.141 3.141 0 0 1 .192-.021l-.132-.901a3.141 3.141 0 0 0-.192.021zM10.582 42.783a3.141 3.141 0 0 0-.296.058l.132.901a3.141 3.141 0 0 1 .296-.058 3.141 3.141 0 0 1 3.46 2.202 3.141 3.141 0 0 0-.028-.452 3.141 3.141 0 0 0-3.564-2.651zm90.906-13.322a3.141 3.141 0 0 0-2.652 3.563 3.141 3.141 0 0 0 .103.449 3.141 3.141 0 0 1 2.681-3.111 3.141 3.141 0 0 1 .192-.022l-.132-.9a3.141 3.141 0 0 0-.192.02zM11.746 50.725a3.141 3.141 0 0 0-.296.058l.132.901a3.141 3.141 0 0 1 .296-.058 3.141 3.141 0 0 1 3.46 2.203 3.141 3.141 0 0 0-.028-.452 3.141 3.141 0 0 0-3.564-2.652zm90.906-13.322A3.141 3.141 0 0 0 100 40.966a3.141 3.141 0 0 0 .103.45 3.141 3.141 0 0 1 2.681-3.112 3.141 3.141 0 0 1 .192-.022l-.132-.9a3.141 3.141 0 0 0-.192.02zM12.91 58.666a3.141 3.141 0 0 0-.296.059l.132.901a3.141 3.141 0 0 1 .296-.059 3.141 3.141 0 0 1 3.46 2.204 3.141 3.141 0 0 0-.029-.452 3.141 3.141 0 0 0-3.563-2.653zm90.906-13.321a3.141 3.141 0 0 0-2.652 3.563 3.141 3.141 0 0 0 .102.45 3.141 3.141 0 0 1 2.682-3.112 3.141 3.141 0 0 1 .192-.022l-.132-.9a3.141 3.141 0 0 0-.192.02zM14.074 66.61a3.141 3.141 0 0 0-.296.058l.132.9a3.141 3.141 0 0 1 .296-.058 3.141 3.141 0 0 1 3.46 2.203 3.141 3.141 0 0 0-.029-.451 3.141 3.141 0 0 0-3.563-2.652zm90.906-13.322a3.141 3.141 0 0 0-2.652 3.563 3.141 3.141 0 0 0 .102.449 3.141 3.141 0 0 1 2.682-3.112 3.141 3.141 0 0 1 .192-.021l-.132-.901a3.141 3.141 0 0 0-.192.022zM15.238 74.552a3.141 3.141 0 0 0-.296.058l.132.9a3.141 3.141 0 0 1 .296-.058 3.141 3.141 0 0 1 3.46 2.203 3.141 3.141 0 0 0-.029-.451 3.141 3.141 0 0 0-3.563-2.652zm90.906-13.322a3.141 3.141 0 0 0-2.653 3.563 3.141 3.141 0 0 0 .103.449 3.141 3.141 0 0 1 2.682-3.112 3.141 3.141 0 0 1 .191-.021l-.132-.9a3.141 3.141 0 0 0-.191.02zM16.402 82.494a3.141 3.141 0 0 0-.296.059l.132.9a3.141 3.141 0 0 1 .296-.058 3.141 3.141 0 0 1 3.46 2.203 3.141 3.141 0 0 0-.029-.452 3.141 3.141 0 0 0-3.563-2.652zm90.906-13.322a3.141 3.141 0 0 0-2.653 3.563 3.141 3.141 0 0 0 .103.45 3.141 3.141 0 0 1 2.682-3.112 3.141 3.141 0 0 1 .191-.022l-.132-.9a3.141 3.141 0 0 0-.191.021zM17.566 90.436a3.141 3.141 0 0 0-.296.059l.132.9a3.141 3.141 0 0 1 .296-.059 3.141 3.141 0 0 1 3.46 2.204 3.141 3.141 0 0 0-.029-.452 3.141 3.141 0 0 0-3.563-2.652zm90.906-13.322a3.141 3.141 0 0 0-2.653 3.564 3.141 3.141 0 0 0 .103.449 3.141 3.141 0 0 1 2.682-3.112 3.141 3.141 0 0 1 .191-.022l-.132-.9a3.141 3.141 0 0 0-.191.021zM18.73 98.378a3.141 3.141 0 0 0-.297.059l.132.9a3.141 3.141 0 0 1 .297-.059 3.141 3.141 0 0 1 3.46 2.204 3.141 3.141 0 0 0-.029-.452 3.141 3.141 0 0 0-3.563-2.652zm90.905-13.322a3.141 3.141 0 0 0-2.652 3.564 3.141 3.141 0 0 0 .103.449 3.141 3.141 0 0 1 2.681-3.112 3.141 3.141 0 0 1 .192-.022l-.132-.9a3.141 3.141 0 0 0-.192.021zm-89.741 21.265a3.141 3.141 0 0 0-.297.058l.132.9a3.141 3.141 0 0 1 .297-.058 3.141 3.141 0 0 1 3.46 2.203 3.141 3.141 0 0 0-.03-.451 3.141 3.141 0 0 0-3.562-2.652zm90.905-13.322a3.141 3.141 0 0 0-2.652 3.563 3.141 3.141 0 0 0 .103.449 3.141 3.141 0 0 1 2.681-3.112 3.141 3.141 0 0 1 .192-.021l-.132-.9a3.141 3.141 0 0 0-.192.02zm-89.742 21.264a3.141 3.141 0 0 0-.296.058l.132.9a3.141 3.141 0 0 1 .296-.058 3.141 3.141 0 0 1 3.46 2.203 3.141 3.141 0 0 0-.028-.451 3.141 3.141 0 0 0-3.564-2.652zm90.906-13.322a3.141 3.141 0 0 0-2.652 3.563 3.141 3.141 0 0 0 .103.45 3.141 3.141 0 0 1 2.681-3.113 3.141 3.141 0 0 1 .192-.021l-.132-.9a3.141 3.141 0 0 0-.192.02zm-89.742 21.264a3.141 3.141 0 0 0-.296.059l.132.9a3.141 3.141 0 0 1 .296-.059 3.141 3.141 0 0 1 3.564 2.652 3.141 3.141 0 0 1 .027.333l1.977-.29a2.754 2.754 0 0 1-.12-.492 2.754 2.754 0 0 1-.026-.407l-1.963.288a3.141 3.141 0 0 0-.027-.332 3.141 3.141 0 0 0-3.564-2.652zm90.906-13.322a3.141 3.141 0 0 0-2.652 3.563 3.141 3.141 0 0 0 .066.327l-1.733.254a2.754 2.754 0 0 1 .09.396 2.754 2.754 0 0 1 .026.506l1.749-.256a3.141 3.141 0 0 1-.066-.326 3.141 3.141 0 0 1 2.652-3.563 3.141 3.141 0 0 1 .192-.022l-.132-.9a3.141 3.141 0 0 0-.192.021zm-83.133 12.4a2.754 2.754 0 0 0-2.326 3.124 2.754 2.754 0 0 0 .107.443 2.754 2.754 0 0 1 2.35-2.666 2.754 2.754 0 0 1 3.019 1.87 2.754 2.754 0 0 0-.026-.445 2.754 2.754 0 0 0-3.124-2.326zm7.565-1.108a2.754 2.754 0 0 0-2.326 3.124 2.754 2.754 0 0 0 .107.443 2.754 2.754 0 0 1 2.351-2.667 2.754 2.754 0 0 1 3.018 1.871 2.754 2.754 0 0 0-.026-.446 2.754 2.754 0 0 0-3.124-2.325zm7.565-1.109a2.754 2.754 0 0 0-2.326 3.124 2.754 2.754 0 0 0 .106.443 2.754 2.754 0 0 1 2.352-2.667 2.754 2.754 0 0 1 3.017 1.871 2.754 2.754 0 0 0-.025-.445 2.754 2.754 0 0 0-3.124-2.326zm7.565-1.109a2.754 2.754 0 0 0-2.326 3.125 2.754 2.754 0 0 0 .106.443 2.754 2.754 0 0 1 2.352-2.667 2.754 2.754 0 0 1 3.017 1.87 2.754 2.754 0 0 0-.025-.445 2.754 2.754 0 0 0-3.124-2.326zm7.564-1.108a2.754 2.754 0 0 0-2.325 3.124 2.754 2.754 0 0 0 .106.443 2.754 2.754 0 0 1 2.351-2.667 2.754 2.754 0 0 1 3.018 1.871 2.754 2.754 0 0 0-.025-.445 2.754 2.754 0 0 0-3.125-2.326zm7.565-1.109a2.754 2.754 0 0 0-2.325 3.125 2.754 2.754 0 0 0 .106.442 2.754 2.754 0 0 1 2.351-2.666 2.754 2.754 0 0 1 3.018 1.87 2.754 2.754 0 0 0-.025-.445 2.754 2.754 0 0 0-3.125-2.326zm7.565-1.108a2.754 2.754 0 0 0-2.325 3.124 2.754 2.754 0 0 0 .106.443 2.754 2.754 0 0 1 2.351-2.667 2.754 2.754 0 0 1 3.018 1.871 2.754 2.754 0 0 0-.025-.446 2.754 2.754 0 0 0-3.125-2.325zm7.565-1.109a2.754 2.754 0 0 0-2.326 3.124 2.754 2.754 0 0 0 .107.443 2.754 2.754 0 0 1 2.35-2.666 2.754 2.754 0 0 1 3.019 1.87 2.754 2.754 0 0 0-.026-.445 2.754 2.754 0 0 0-3.124-2.326zm7.565-1.109a2.754 2.754 0 0 0-2.326 3.125 2.754 2.754 0 0 0 .107.443 2.754 2.754 0 0 1 2.351-2.667 2.754 2.754 0 0 1 3.018 1.87 2.754 2.754 0 0 0-.026-.445 2.754 2.754 0 0 0-3.124-2.326zm7.565-1.108a2.754 2.754 0 0 0-2.326 3.124 2.754 2.754 0 0 0 .106.443 2.754 2.754 0 0 1 2.352-2.667 2.754 2.754 0 0 1 3.017 1.871 2.754 2.754 0 0 0-.025-.445 2.754 2.754 0 0 0-3.124-2.326zm7.565-1.109a2.754 2.754 0 0 0-2.326 3.125 2.754 2.754 0 0 0 .106.443 2.754 2.754 0 0 1 2.352-2.667 2.754 2.754 0 0 1 3.017 1.87 2.754 2.754 0 0 0-.025-.445 2.754 2.754 0 0 0-3.124-2.326zm-72.484 13.915a2.754 2.754 0 0 1 .091.397 2.754 2.754 0 0 1 .025.506l2.211-.324a2.754 2.754 0 0 1-.12-.492 2.754 2.754 0 0 1-.026-.406zm7.565-1.108a2.754 2.754 0 0 1 .091.397 2.754 2.754 0 0 1 .026.506l2.21-.324a2.754 2.754 0 0 1-.121-.492 2.754 2.754 0 0 1-.025-.407zm7.565-1.109a2.754 2.754 0 0 1 .09.397 2.754 2.754 0 0 1 .026.506l2.21-.324a2.754 2.754 0 0 1-.12-.492 2.754 2.754 0 0 1-.025-.406zm7.565-1.108a2.754 2.754 0 0 1 .09.397 2.754 2.754 0 0 1 .026.505l2.21-.324a2.754 2.754 0 0 1-.12-.491 2.754 2.754 0 0 1-.026-.407zm7.564-1.109a2.754 2.754 0 0 1 .091.397 2.754 2.754 0 0 1 .026.506l2.21-.324a2.754 2.754 0 0 1-.12-.492 2.754 2.754 0 0 1-.026-.407zm7.565-1.108a2.754 2.754 0 0 1 .092.396 2.754 2.754 0 0 1 .025.506l2.21-.324a2.754 2.754 0 0 1-.12-.492 2.754 2.754 0 0 1-.026-.406zm7.565-1.11a2.754 2.754 0 0 1 .092.398 2.754 2.754 0 0 1 .025.506l2.21-.324a2.754 2.754 0 0 1-.12-.492 2.754 2.754 0 0 1-.026-.407zm7.565-1.108a2.754 2.754 0 0 1 .091.397 2.754 2.754 0 0 1 .026.506l2.21-.324a2.754 2.754 0 0 1-.12-.492 2.754 2.754 0 0 1-.026-.406zm7.565-1.108a2.754 2.754 0 0 1 .091.397 2.754 2.754 0 0 1 .026.505l2.21-.323a2.754 2.754 0 0 1-.121-.492 2.754 2.754 0 0 1-.025-.407zm7.565-1.109a2.754 2.754 0 0 1 .09.397 2.754 2.754 0 0 1 .026.506l2.21-.324a2.754 2.754 0 0 1-.12-.492 2.754 2.754 0 0 1-.025-.406z" fill-opacity=".144" stroke-width=".284"/><path d="M7.09 18.956a3.141 3.141 0 0 0-.295.058l.164 1.125a3.141 3.141 0 0 1 .297-.059 3.141 3.141 0 0 1 3.427 2.096 3.141 3.141 0 0 0-.029-.568 3.141 3.141 0 0 0-3.563-2.652zM97.998 5.634a3.141 3.141 0 0 0-2.653 3.563 3.141 3.141 0 0 0 .136.558 3.141 3.141 0 0 1 2.681-2.997 3.141 3.141 0 0 1 .192-.02l-.165-1.126a3.141 3.141 0 0 0-.191.022zM8.255 26.898a3.141 3.141 0 0 0-.296.059l.164 1.124a3.141 3.141 0 0 1 .296-.058 3.141 3.141 0 0 1 3.428 2.095 3.141 3.141 0 0 0-.029-.568 3.141 3.141 0 0 0-3.563-2.652zM99.16 13.576a3.141 3.141 0 0 0-2.653 3.564 3.141 3.141 0 0 0 .136.557 3.141 3.141 0 0 1 2.681-2.996 3.141 3.141 0 0 1 .192-.021l-.165-1.125a3.141 3.141 0 0 0-.191.021zM9.419 34.84a3.141 3.141 0 0 0-.297.059l.165 1.124a3.141 3.141 0 0 1 .296-.058 3.141 3.141 0 0 1 3.428 2.095 3.141 3.141 0 0 0-.03-.568A3.141 3.141 0 0 0 9.42 34.84zm90.905-13.322a3.141 3.141 0 0 0-2.652 3.564 3.141 3.141 0 0 0 .136.557 3.141 3.141 0 0 1 2.681-2.996 3.141 3.141 0 0 1 .192-.021l-.165-1.125a3.141 3.141 0 0 0-.192.021zM10.582 42.783a3.141 3.141 0 0 0-.296.058l.165 1.125a3.141 3.141 0 0 1 .296-.058 3.141 3.141 0 0 1 3.428 2.095 3.141 3.141 0 0 0-.03-.569 3.141 3.141 0 0 0-3.563-2.651zm90.906-13.322a3.141 3.141 0 0 0-2.652 3.563 3.141 3.141 0 0 0 .136.557 3.141 3.141 0 0 1 2.681-2.996 3.141 3.141 0 0 1 .192-.02l-.165-1.126a3.141 3.141 0 0 0-.192.022zM11.746 50.725a3.141 3.141 0 0 0-.296.058l.165 1.125a3.141 3.141 0 0 1 .296-.059 3.141 3.141 0 0 1 3.427 2.096 3.141 3.141 0 0 0-.028-.568 3.141 3.141 0 0 0-3.564-2.652zm90.906-13.322A3.141 3.141 0 0 0 100 40.966a3.141 3.141 0 0 0 .136.558 3.141 3.141 0 0 1 2.681-2.997 3.141 3.141 0 0 1 .192-.02l-.165-1.126a3.141 3.141 0 0 0-.192.022zM12.91 58.666a3.141 3.141 0 0 0-.296.059l.165 1.125a3.141 3.141 0 0 1 .296-.059 3.141 3.141 0 0 1 3.427 2.096 3.141 3.141 0 0 0-.029-.568 3.141 3.141 0 0 0-3.563-2.653zm90.906-13.321a3.141 3.141 0 0 0-2.652 3.563 3.141 3.141 0 0 0 .136.558 3.141 3.141 0 0 1 2.68-2.997 3.141 3.141 0 0 1 .192-.021l-.164-1.125a3.141 3.141 0 0 0-.192.022zM14.074 66.61a3.141 3.141 0 0 0-.296.058l.165 1.125a3.141 3.141 0 0 1 .296-.059 3.141 3.141 0 0 1 3.427 2.095 3.141 3.141 0 0 0-.029-.567 3.141 3.141 0 0 0-3.563-2.652zm90.906-13.322a3.141 3.141 0 0 0-2.652 3.563 3.141 3.141 0 0 0 .136.557 3.141 3.141 0 0 1 2.68-2.996 3.141 3.141 0 0 1 .192-.021l-.164-1.125a3.141 3.141 0 0 0-.192.022zM15.238 74.552a3.141 3.141 0 0 0-.296.058l.165 1.125a3.141 3.141 0 0 1 .296-.059 3.141 3.141 0 0 1 3.427 2.095 3.141 3.141 0 0 0-.029-.567 3.141 3.141 0 0 0-3.563-2.652zm90.906-13.322a3.141 3.141 0 0 0-2.653 3.563 3.141 3.141 0 0 0 .136.557 3.141 3.141 0 0 1 2.682-2.996 3.141 3.141 0 0 1 .191-.02l-.165-1.126a3.141 3.141 0 0 0-.191.022zM16.402 82.494a3.141 3.141 0 0 0-.296.059l.165 1.124a3.141 3.141 0 0 1 .296-.058 3.141 3.141 0 0 1 3.427 2.095 3.141 3.141 0 0 0-.029-.568 3.141 3.141 0 0 0-3.563-2.652zm90.906-13.322a3.141 3.141 0 0 0-2.653 3.563 3.141 3.141 0 0 0 .136.557 3.141 3.141 0 0 1 2.682-2.995 3.141 3.141 0 0 1 .191-.021l-.165-1.125a3.141 3.141 0 0 0-.191.021zM17.566 90.436a3.141 3.141 0 0 0-.296.059l.164 1.124a3.141 3.141 0 0 1 .297-.058 3.141 3.141 0 0 1 3.427 2.095 3.141 3.141 0 0 0-.029-.568 3.141 3.141 0 0 0-3.563-2.652zm90.906-13.322a3.141 3.141 0 0 0-2.653 3.564 3.141 3.141 0 0 0 .136.557 3.141 3.141 0 0 1 2.681-2.996 3.141 3.141 0 0 1 .192-.021l-.165-1.125a3.141 3.141 0 0 0-.191.021zM18.73 98.378a3.141 3.141 0 0 0-.297.059l.165 1.124a3.141 3.141 0 0 1 .296-.058 3.141 3.141 0 0 1 3.428 2.095 3.141 3.141 0 0 0-.029-.568 3.141 3.141 0 0 0-3.563-2.652zm90.905-13.322a3.141 3.141 0 0 0-2.652 3.564 3.141 3.141 0 0 0 .136.557 3.141 3.141 0 0 1 2.681-2.996 3.141 3.141 0 0 1 .192-.021l-.165-1.125a3.141 3.141 0 0 0-.192.021zm-89.741 21.265a3.141 3.141 0 0 0-.297.058l.165 1.125a3.141 3.141 0 0 1 .296-.059 3.141 3.141 0 0 1 3.428 2.095 3.141 3.141 0 0 0-.03-.567 3.141 3.141 0 0 0-3.562-2.652zm90.905-13.322a3.141 3.141 0 0 0-2.652 3.563 3.141 3.141 0 0 0 .136.557 3.141 3.141 0 0 1 2.681-2.996 3.141 3.141 0 0 1 .192-.02l-.165-1.126a3.141 3.141 0 0 0-.192.022zm-89.742 21.264a3.141 3.141 0 0 0-.296.058l.165 1.125a3.141 3.141 0 0 1 .296-.059 3.141 3.141 0 0 1 3.427 2.095 3.141 3.141 0 0 0-.028-.567 3.141 3.141 0 0 0-3.564-2.652zm90.906-13.322a3.141 3.141 0 0 0-2.652 3.563 3.141 3.141 0 0 0 .136.557 3.141 3.141 0 0 1 2.681-2.996 3.141 3.141 0 0 1 .192-.02l-.165-1.125a3.141 3.141 0 0 0-.192.02zm-89.742 21.264a3.141 3.141 0 0 0-.296.059l.165 1.124a3.141 3.141 0 0 1 .296-.058 3.141 3.141 0 0 1 3.563 2.652 3.141 3.141 0 0 1 .028.332l1.977-.29a2.754 2.754 0 0 1-.12-.492 2.754 2.754 0 0 1 2.325-3.124 2.754 2.754 0 0 1 3.124 2.325 2.754 2.754 0 0 1 .025.506l2.211-.324a2.754 2.754 0 0 1-.12-.492 2.754 2.754 0 0 1 2.325-3.124 2.754 2.754 0 0 1 3.124 2.326 2.754 2.754 0 0 1 .025.506l2.21-.324a2.754 2.754 0 0 1-.12-.492 2.754 2.754 0 0 1 2.325-3.124 2.754 2.754 0 0 1 3.125 2.325 2.754 2.754 0 0 1 .025.506l2.21-.324a2.754 2.754 0 0 1-.12-.492 2.754 2.754 0 0 1 2.325-3.124 2.754 2.754 0 0 1 3.125 2.326 2.754 2.754 0 0 1 .025.506l2.21-.324a2.754 2.754 0 0 1-.12-.492 2.754 2.754 0 0 1 2.325-3.125 2.754 2.754 0 0 1 3.124 2.326 2.754 2.754 0 0 1 .026.506l2.21-.324a2.754 2.754 0 0 1-.12-.492 2.754 2.754 0 0 1 2.325-3.124 2.754 2.754 0 0 1 3.124 2.326 2.754 2.754 0 0 1 .026.505l2.21-.324a2.754 2.754 0 0 1-.12-.491 2.754 2.754 0 0 1 2.325-3.125 2.754 2.754 0 0 1 3.125 2.326 2.754 2.754 0 0 1 .025.506l2.21-.324a2.754 2.754 0 0 1-.12-.492 2.754 2.754 0 0 1 2.325-3.124 2.754 2.754 0 0 1 3.124 2.325 2.754 2.754 0 0 1 .025.506l2.211-.324a2.754 2.754 0 0 1-.12-.492 2.754 2.754 0 0 1 2.325-3.124 2.754 2.754 0 0 1 3.124 2.326 2.754 2.754 0 0 1 .025.506l2.21-.324a2.754 2.754 0 0 1-.12-.492 2.754 2.754 0 0 1 2.325-3.124 2.754 2.754 0 0 1 3.125 2.325 2.754 2.754 0 0 1 .025.506l2.21-.324a2.754 2.754 0 0 1-.12-.492 2.754 2.754 0 0 1 2.326-3.124 2.754 2.754 0 0 1 3.124 2.326 2.754 2.754 0 0 1 .025.505l1.749-.256a3.141 3.141 0 0 1-.067-.326 3.141 3.141 0 0 1 2.653-3.563 3.141 3.141 0 0 1 .192-.021l-.165-1.125a3.141 3.141 0 0 0-.192.021 3.141 3.141 0 0 0-2.652 3.563 3.141 3.141 0 0 0 .066.327l-1.749.256a2.754 2.754 0 0 0-.025-.506 2.754 2.754 0 0 0-3.124-2.326 2.754 2.754 0 0 0-2.326 3.125 2.754 2.754 0 0 0 .121.491l-2.21.324a2.754 2.754 0 0 0-.026-.505 2.754 2.754 0 0 0-3.124-2.326 2.754 2.754 0 0 0-2.326 3.124 2.754 2.754 0 0 0 .12.492l-2.21.324a2.754 2.754 0 0 0-.025-.506 2.754 2.754 0 0 0-3.124-2.326 2.754 2.754 0 0 0-2.326 3.125 2.754 2.754 0 0 0 .121.492l-2.21.324a2.754 2.754 0 0 0-.026-.506 2.754 2.754 0 0 0-3.124-2.326 2.754 2.754 0 0 0-2.326 3.124 2.754 2.754 0 0 0 .121.492l-2.21.324a2.754 2.754 0 0 0-.025-.506 2.754 2.754 0 0 0-3.125-2.325 2.754 2.754 0 0 0-2.325 3.124 2.754 2.754 0 0 0 .12.492l-2.21.324a2.754 2.754 0 0 0-.025-.506 2.754 2.754 0 0 0-3.125-2.326 2.754 2.754 0 0 0-2.325 3.125 2.754 2.754 0 0 0 .12.491l-2.21.324a2.754 2.754 0 0 0-.025-.505 2.754 2.754 0 0 0-3.125-2.326 2.754 2.754 0 0 0-2.325 3.124 2.754 2.754 0 0 0 .12.492l-2.21.324a2.754 2.754 0 0 0-.025-.506 2.754 2.754 0 0 0-3.124-2.326 2.754 2.754 0 0 0-2.326 3.125 2.754 2.754 0 0 0 .12.492l-2.21.324a2.754 2.754 0 0 0-.025-.506 2.754 2.754 0 0 0-3.124-2.326 2.754 2.754 0 0 0-2.326 3.124 2.754 2.754 0 0 0 .12.492l-2.21.324a2.754 2.754 0 0 0-.025-.506 2.754 2.754 0 0 0-3.124-2.325 2.754 2.754 0 0 0-2.326 3.124 2.754 2.754 0 0 0 .121.492l-2.21.324a2.754 2.754 0 0 0-.026-.506 2.754 2.754 0 0 0-3.124-2.326 2.754 2.754 0 0 0-2.326 3.124 2.754 2.754 0 0 0 .121.492l-1.977.29a3.141 3.141 0 0 0-.027-.332 3.141 3.141 0 0 0-3.564-2.652z" fill-opacity=".141" stroke-width=".284"/><path d="M7.09 18.956a3.141 3.141 0 0 0-.295.058l.197 1.349a3.141 3.141 0 0 1 .296-.059 3.141 3.141 0 0 1 3.388 1.992 3.141 3.141 0 0 0-.022-.688 3.141 3.141 0 0 0-3.563-2.652zM97.998 5.634a3.141 3.141 0 0 0-2.653 3.563 3.141 3.141 0 0 0 .176.66 3.141 3.141 0 0 1 2.674-2.874 3.141 3.141 0 0 1 .192-.022l-.198-1.349a3.141 3.141 0 0 0-.191.022zM8.255 26.898a3.141 3.141 0 0 0-.296.059l.197 1.348a3.141 3.141 0 0 1 .296-.058 3.141 3.141 0 0 1 3.388 1.992 3.141 3.141 0 0 0-.022-.689 3.141 3.141 0 0 0-3.563-2.652zM99.16 13.576a3.141 3.141 0 0 0-2.653 3.564 3.141 3.141 0 0 0 .176.66 3.141 3.141 0 0 1 2.674-2.875 3.141 3.141 0 0 1 .192-.021l-.198-1.349a3.141 3.141 0 0 0-.191.021zM9.419 34.84a3.141 3.141 0 0 0-.297.059l.198 1.348a3.141 3.141 0 0 1 .296-.058 3.141 3.141 0 0 1 3.388 1.992 3.141 3.141 0 0 0-.022-.689 3.141 3.141 0 0 0-3.563-2.652zm90.905-13.322a3.141 3.141 0 0 0-2.652 3.564 3.141 3.141 0 0 0 .176.66 3.141 3.141 0 0 1 2.674-2.875 3.141 3.141 0 0 1 .192-.021l-.198-1.35a3.141 3.141 0 0 0-.192.022zM10.582 42.783a3.141 3.141 0 0 0-.296.058l.198 1.349a3.141 3.141 0 0 1 .296-.059 3.141 3.141 0 0 1 3.388 1.992 3.141 3.141 0 0 0-.022-.689 3.141 3.141 0 0 0-3.564-2.651zm90.906-13.322a3.141 3.141 0 0 0-2.652 3.563 3.141 3.141 0 0 0 .176.66 3.141 3.141 0 0 1 2.674-2.874 3.141 3.141 0 0 1 .192-.022l-.198-1.349a3.141 3.141 0 0 0-.192.022zM11.746 50.725a3.141 3.141 0 0 0-.296.058l.198 1.349a3.141 3.141 0 0 1 .296-.059 3.141 3.141 0 0 1 3.387 1.992 3.141 3.141 0 0 0-.021-.688 3.141 3.141 0 0 0-3.564-2.652zm90.906-13.322A3.141 3.141 0 0 0 100 40.966a3.141 3.141 0 0 0 .176.66 3.141 3.141 0 0 1 2.674-2.874 3.141 3.141 0 0 1 .191-.022l-.197-1.349a3.141 3.141 0 0 0-.192.022zM12.91 58.666a3.141 3.141 0 0 0-.296.059l.198 1.349a3.141 3.141 0 0 1 .296-.059 3.141 3.141 0 0 1 3.387 1.992 3.141 3.141 0 0 0-.022-.688 3.141 3.141 0 0 0-3.563-2.653zm90.906-13.321a3.141 3.141 0 0 0-2.652 3.563 3.141 3.141 0 0 0 .175.66 3.141 3.141 0 0 1 2.675-2.874 3.141 3.141 0 0 1 .191-.022l-.197-1.349a3.141 3.141 0 0 0-.192.022zM14.074 66.61a3.141 3.141 0 0 0-.296.058l.198 1.348a3.141 3.141 0 0 1 .296-.058 3.141 3.141 0 0 1 3.387 1.992 3.141 3.141 0 0 0-.022-.688 3.141 3.141 0 0 0-3.563-2.652zm90.906-13.322a3.141 3.141 0 0 0-2.652 3.563 3.141 3.141 0 0 0 .175.66 3.141 3.141 0 0 1 2.675-2.875 3.141 3.141 0 0 1 .191-.021l-.197-1.349a3.141 3.141 0 0 0-.192.022zM15.238 74.552a3.141 3.141 0 0 0-.296.058l.197 1.348a3.141 3.141 0 0 1 .297-.058 3.141 3.141 0 0 1 3.387 1.992 3.141 3.141 0 0 0-.022-.688 3.141 3.141 0 0 0-3.563-2.652zm90.906-13.322a3.141 3.141 0 0 0-2.653 3.563 3.141 3.141 0 0 0 .176.66 3.141 3.141 0 0 1 2.674-2.875 3.141 3.141 0 0 1 .192-.021l-.198-1.349a3.141 3.141 0 0 0-.191.022zM16.402 82.494a3.141 3.141 0 0 0-.296.059l.197 1.348a3.141 3.141 0 0 1 .296-.059 3.141 3.141 0 0 1 3.388 1.992 3.141 3.141 0 0 0-.022-.688 3.141 3.141 0 0 0-3.563-2.652zm90.906-13.322a3.141 3.141 0 0 0-2.653 3.563 3.141 3.141 0 0 0 .176.66 3.141 3.141 0 0 1 2.674-2.874 3.141 3.141 0 0 1 .192-.022l-.198-1.348a3.141 3.141 0 0 0-.191.021zM17.566 90.436a3.141 3.141 0 0 0-.296.059l.197 1.348a3.141 3.141 0 0 1 .296-.059 3.141 3.141 0 0 1 3.388 1.992 3.141 3.141 0 0 0-.022-.688 3.141 3.141 0 0 0-3.563-2.652zm90.906-13.322a3.141 3.141 0 0 0-2.653 3.564 3.141 3.141 0 0 0 .176.66 3.141 3.141 0 0 1 2.674-2.875 3.141 3.141 0 0 1 .192-.022l-.198-1.348a3.141 3.141 0 0 0-.191.021zM18.73 98.378a3.141 3.141 0 0 0-.297.059l.198 1.348a3.141 3.141 0 0 1 .296-.059 3.141 3.141 0 0 1 3.388 1.992 3.141 3.141 0 0 0-.022-.688 3.141 3.141 0 0 0-3.563-2.652zm90.905-13.322a3.141 3.141 0 0 0-2.652 3.564 3.141 3.141 0 0 0 .176.66 3.141 3.141 0 0 1 2.674-2.875 3.141 3.141 0 0 1 .192-.022l-.198-1.348a3.141 3.141 0 0 0-.192.021zm-89.741 21.265a3.141 3.141 0 0 0-.297.058l.198 1.348a3.141 3.141 0 0 1 .296-.058 3.141 3.141 0 0 1 3.388 1.992 3.141 3.141 0 0 0-.022-.688 3.141 3.141 0 0 0-3.563-2.652zm90.905-13.322a3.141 3.141 0 0 0-2.652 3.563 3.141 3.141 0 0 0 .176.66 3.141 3.141 0 0 1 2.674-2.875 3.141 3.141 0 0 1 .192-.021l-.198-1.349a3.141 3.141 0 0 0-.192.022zm-89.742 21.264a3.141 3.141 0 0 0-.296.058l.198 1.348a3.141 3.141 0 0 1 .296-.058 3.141 3.141 0 0 1 3.387 1.992 3.141 3.141 0 0 0-.021-.688 3.141 3.141 0 0 0-3.564-2.652zm90.906-13.322a3.141 3.141 0 0 0-2.652 3.563 3.141 3.141 0 0 0 .176.66 3.141 3.141 0 0 1 2.674-2.875 3.141 3.141 0 0 1 .191-.021l-.197-1.348a3.141 3.141 0 0 0-.192.02zm-89.742 21.264a3.141 3.141 0 0 0-.296.059l.198 1.348a3.141 3.141 0 0 1 .296-.059 3.141 3.141 0 0 1 3.563 2.652 3.141 3.141 0 0 1 .028.332l1.977-.29a2.754 2.754 0 0 1-.121-.491 2.754 2.754 0 0 1 2.326-3.125 2.754 2.754 0 0 1 3.124 2.326 2.754 2.754 0 0 1 .025.506l2.21-.324a2.754 2.754 0 0 1-.12-.492 2.754 2.754 0 0 1 2.326-3.124 2.754 2.754 0 0 1 3.124 2.325 2.754 2.754 0 0 1 .025.506l2.21-.324a2.754 2.754 0 0 1-.12-.491 2.754 2.754 0 0 1 2.325-3.125 2.754 2.754 0 0 1 3.124 2.326 2.754 2.754 0 0 1 .026.506l2.21-.324a2.754 2.754 0 0 1-.12-.492 2.754 2.754 0 0 1 2.325-3.124 2.754 2.754 0 0 1 3.125 2.325 2.754 2.754 0 0 1 .025.506l2.21-.324a2.754 2.754 0 0 1-.12-.492 2.754 2.754 0 0 1 2.325-3.124 2.754 2.754 0 0 1 3.124 2.326 2.754 2.754 0 0 1 .025.506l2.211-.324a2.754 2.754 0 0 1-.12-.492 2.754 2.754 0 0 1 2.325-3.125 2.754 2.754 0 0 1 3.124 2.326 2.754 2.754 0 0 1 .026.506l2.21-.324a2.754 2.754 0 0 1-.12-.492 2.754 2.754 0 0 1 2.325-3.124 2.754 2.754 0 0 1 3.124 2.325 2.754 2.754 0 0 1 .026.506l2.21-.324a2.754 2.754 0 0 1-.121-.491 2.754 2.754 0 0 1 2.326-3.125 2.754 2.754 0 0 1 3.124 2.326 2.754 2.754 0 0 1 .025.506l2.21-.324a2.754 2.754 0 0 1-.12-.492 2.754 2.754 0 0 1 2.326-3.124 2.754 2.754 0 0 1 3.124 2.325 2.754 2.754 0 0 1 .025.506l2.21-.324a2.754 2.754 0 0 1-.12-.492 2.754 2.754 0 0 1 2.325-3.124 2.754 2.754 0 0 1 3.124 2.326 2.754 2.754 0 0 1 .026.506l2.21-.324a2.754 2.754 0 0 1-.12-.492 2.754 2.754 0 0 1 2.325-3.124 2.754 2.754 0 0 1 3.125 2.325 2.754 2.754 0 0 1 .025.506l1.749-.256a3.141 3.141 0 0 1-.067-.327 3.141 3.141 0 0 1 2.653-3.562 3.141 3.141 0 0 1 .191-.022l-.197-1.348a3.141 3.141 0 0 0-.192.021 3.141 3.141 0 0 0-2.652 3.563 3.141 3.141 0 0 0 .066.326l-1.749.257a2.754 2.754 0 0 0-.025-.506 2.754 2.754 0 0 0-3.124-2.326 2.754 2.754 0 0 0-2.326 3.125 2.754 2.754 0 0 0 .121.491l-2.21.324a2.754 2.754 0 0 0-.026-.505 2.754 2.754 0 0 0-3.124-2.326 2.754 2.754 0 0 0-2.326 3.124 2.754 2.754 0 0 0 .12.492l-2.21.324a2.754 2.754 0 0 0-.025-.506 2.754 2.754 0 0 0-3.124-2.326 2.754 2.754 0 0 0-2.326 3.125 2.754 2.754 0 0 0 .121.492l-2.21.324a2.754 2.754 0 0 0-.026-.506 2.754 2.754 0 0 0-3.124-2.326 2.754 2.754 0 0 0-2.326 3.124 2.754 2.754 0 0 0 .121.492l-2.21.324a2.754 2.754 0 0 0-.025-.506 2.754 2.754 0 0 0-3.125-2.325 2.754 2.754 0 0 0-2.325 3.124 2.754 2.754 0 0 0 .12.492l-2.21.324a2.754 2.754 0 0 0-.025-.506 2.754 2.754 0 0 0-3.125-2.326 2.754 2.754 0 0 0-2.325 3.124 2.754 2.754 0 0 0 .12.492l-2.21.324a2.754 2.754 0 0 0-.025-.506 2.754 2.754 0 0 0-3.125-2.325 2.754 2.754 0 0 0-2.325 3.124 2.754 2.754 0 0 0 .12.492l-2.21.324a2.754 2.754 0 0 0-.025-.506 2.754 2.754 0 0 0-3.124-2.326 2.754 2.754 0 0 0-2.326 3.125 2.754 2.754 0 0 0 .12.491l-2.21.324a2.754 2.754 0 0 0-.025-.505 2.754 2.754 0 0 0-3.124-2.326 2.754 2.754 0 0 0-2.326 3.124 2.754 2.754 0 0 0 .12.492l-2.21.324a2.754 2.754 0 0 0-.025-.506 2.754 2.754 0 0 0-3.124-2.326 2.754 2.754 0 0 0-2.326 3.125 2.754 2.754 0 0 0 .121.492l-2.21.324a2.754 2.754 0 0 0-.026-.506 2.754 2.754 0 0 0-3.124-2.326 2.754 2.754 0 0 0-2.326 3.124 2.754 2.754 0 0 0 .121.492l-1.977.29a3.141 3.141 0 0 0-.027-.332 3.141 3.141 0 0 0-3.564-2.652z" fill-opacity=".129" stroke-width=".284"/><path d="M7.09 18.956a3.141 3.141 0 0 0-.295.058l.257 1.759a3.141 3.141 0 0 1 .296-.059 3.141 3.141 0 0 1 3.306 1.792 3.141 3.141 0 0 0 0-.898 3.141 3.141 0 0 0-3.563-2.652zM97.998 5.634a3.141 3.141 0 0 0-2.653 3.563 3.141 3.141 0 0 0 .258.86 3.141 3.141 0 0 1 2.652-2.665 3.141 3.141 0 0 1 .192-.021l-.258-1.759a3.141 3.141 0 0 0-.191.022zM7.959 26.957l.257 1.758a3.141 3.141 0 0 1 .296-.058 3.141 3.141 0 0 1 3.306 1.792 3.141 3.141 0 0 0 0-.899 3.141 3.141 0 0 0-3.267-2.68 3.141 3.141 0 0 1-.292.06 3.141 3.141 0 0 1-.3.027zm90.91-13.32a3.141 3.141 0 0 0-2.36 3.503 3.141 3.141 0 0 0 .256.86 3.141 3.141 0 0 1 2.653-2.665 3.141 3.141 0 0 1 .192-.021l-.256-1.743a3.141 3.141 0 0 1-.189.037 3.141 3.141 0 0 1-.296.029zM9.122 34.899l.258 1.758a3.141 3.141 0 0 1 .296-.058 3.141 3.141 0 0 1 3.306 1.792 3.141 3.141 0 0 0 0-.899 3.141 3.141 0 0 0-3.263-2.68 3.141 3.141 0 0 1-.296.06 3.141 3.141 0 0 1-.3.027zm90.907-13.32a3.141 3.141 0 0 0-2.357 3.503 3.141 3.141 0 0 0 .257.86 3.141 3.141 0 0 1 2.653-2.665 3.141 3.141 0 0 1 .192-.021l-.256-1.743a3.141 3.141 0 0 1-.189.038 3.141 3.141 0 0 1-.3.029zM10.286 42.842l.258 1.759a3.141 3.141 0 0 1 .296-.058 3.141 3.141 0 0 1 3.306 1.791 3.141 3.141 0 0 0 0-.899 3.141 3.141 0 0 0-3.267-2.68 3.141 3.141 0 0 1-.292.06 3.141 3.141 0 0 1-.3.027zm90.91-13.32a3.141 3.141 0 0 0-2.36 3.503 3.141 3.141 0 0 0 .258.86 3.141 3.141 0 0 1 2.652-2.665 3.141 3.141 0 0 1 .192-.02l-.256-1.744a3.141 3.141 0 0 1-.189.038 3.141 3.141 0 0 1-.297.028zM11.45 50.783l.258 1.759a3.141 3.141 0 0 1 .296-.059 3.141 3.141 0 0 1 3.305 1.792 3.141 3.141 0 0 0 0-.898 3.141 3.141 0 0 0-3.266-2.68 3.141 3.141 0 0 1-.292.06 3.141 3.141 0 0 1-.3.026zm90.91-13.32a3.141 3.141 0 0 0-2.36 3.503 3.141 3.141 0 0 0 .257.86 3.141 3.141 0 0 1 2.653-2.665 3.141 3.141 0 0 1 .191-.02l-.255-1.744a3.141 3.141 0 0 1-.19.038 3.141 3.141 0 0 1-.296.028zM12.614 58.726l.258 1.758a3.141 3.141 0 0 1 .296-.059 3.141 3.141 0 0 1 3.305 1.792 3.141 3.141 0 0 0 0-.898 3.141 3.141 0 0 0-3.263-2.68 3.141 3.141 0 0 1-.295.06 3.141 3.141 0 0 1-.3.027zm90.907-13.32a3.141 3.141 0 0 0-2.357 3.502 3.141 3.141 0 0 0 .257.86 3.141 3.141 0 0 1 2.653-2.664 3.141 3.141 0 0 1 .191-.022l-.255-1.742a3.141 3.141 0 0 1-.19.037 3.141 3.141 0 0 1-.3.03zM13.778 66.668l.258 1.759a3.141 3.141 0 0 1 .296-.059 3.141 3.141 0 0 1 3.305 1.792 3.141 3.141 0 0 0 0-.898 3.141 3.141 0 0 0-3.266-2.68 3.141 3.141 0 0 1-.292.059 3.141 3.141 0 0 1-.301.027zm90.91-13.32a3.141 3.141 0 0 0-2.36 3.503 3.141 3.141 0 0 0 .257.86 3.141 3.141 0 0 1 2.653-2.664 3.141 3.141 0 0 1 .191-.022l-.255-1.743a3.141 3.141 0 0 1-.19.037 3.141 3.141 0 0 1-.296.029zm-89.15 21.175a3.141 3.141 0 0 1-.295.061 3.141 3.141 0 0 1-.301.027l.258 1.758a3.141 3.141 0 0 1 .296-.059 3.141 3.141 0 0 1 3.305 1.792 3.141 3.141 0 0 0 0-.898 3.141 3.141 0 0 0-3.263-2.681zm90.31-13.232a3.141 3.141 0 0 0-2.357 3.502 3.141 3.141 0 0 0 .258.86 3.141 3.141 0 0 1 2.653-2.665 3.141 3.141 0 0 1 .191-.02l-.255-1.743a3.141 3.141 0 0 1-.19.037 3.141 3.141 0 0 1-.3.029zM16.106 82.553l.257 1.758a3.141 3.141 0 0 1 .297-.058 3.141 3.141 0 0 1 3.305 1.792 3.141 3.141 0 0 0 0-.899 3.141 3.141 0 0 0-3.266-2.68 3.141 3.141 0 0 1-.292.06 3.141 3.141 0 0 1-.301.027zm90.91-13.32a3.141 3.141 0 0 0-2.36 3.502 3.141 3.141 0 0 0 .257.86 3.141 3.141 0 0 1 2.653-2.664 3.141 3.141 0 0 1 .191-.021l-.255-1.743a3.141 3.141 0 0 1-.19.037 3.141 3.141 0 0 1-.296.028zM17.27 90.494l.257 1.758a3.141 3.141 0 0 1 .296-.058 3.141 3.141 0 0 1 3.306 1.792 3.141 3.141 0 0 0 0-.898 3.141 3.141 0 0 0-3.267-2.681 3.141 3.141 0 0 1-.292.06 3.141 3.141 0 0 1-.3.027zm90.91-13.32a3.141 3.141 0 0 0-2.36 3.503 3.141 3.141 0 0 0 .256.86 3.141 3.141 0 0 1 2.653-2.665 3.141 3.141 0 0 1 .192-.021l-.255-1.743a3.141 3.141 0 0 1-.19.037 3.141 3.141 0 0 1-.297.028zM19.03 98.348a3.141 3.141 0 0 1-.296.061 3.141 3.141 0 0 1-.3.027l.257 1.758a3.141 3.141 0 0 1 .296-.058 3.141 3.141 0 0 1 3.306 1.791 3.141 3.141 0 0 0 0-.897 3.141 3.141 0 0 0-3.263-2.682zm90.31-13.232a3.141 3.141 0 0 0-2.357 3.503 3.141 3.141 0 0 0 .257.86 3.141 3.141 0 0 1 2.653-2.665 3.141 3.141 0 0 1 .192-.021l-.255-1.743a3.141 3.141 0 0 1-.19.038 3.141 3.141 0 0 1-.3.028zM19.597 106.38l.258 1.759a3.141 3.141 0 0 1 .296-.059 3.141 3.141 0 0 1 3.306 1.792 3.141 3.141 0 0 0 0-.898 3.141 3.141 0 0 0-3.267-2.68 3.141 3.141 0 0 1-.292.06 3.141 3.141 0 0 1-.3.026zm90.91-13.32a3.141 3.141 0 0 0-2.36 3.503 3.141 3.141 0 0 0 .258.86 3.141 3.141 0 0 1 2.652-2.664 3.141 3.141 0 0 1 .192-.022l-.256-1.742a3.141 3.141 0 0 1-.189.037 3.141 3.141 0 0 1-.297.028zM20.76 114.32l.258 1.759a3.141 3.141 0 0 1 .296-.059 3.141 3.141 0 0 1 3.305 1.792 3.141 3.141 0 0 0 0-.898 3.141 3.141 0 0 0-3.263-2.681 3.141 3.141 0 0 1-.295.06 3.141 3.141 0 0 1-.3.027zm90.91-13.32a3.141 3.141 0 0 0-2.36 3.503 3.141 3.141 0 0 0 .257.86 3.141 3.141 0 0 1 2.653-2.664 3.141 3.141 0 0 1 .192-.022l-.256-1.743a3.141 3.141 0 0 1-.189.038 3.141 3.141 0 0 1-.297.028zm-89.746 21.263l.258 1.758a3.141 3.141 0 0 1 .296-.058 3.141 3.141 0 0 1 3.563 2.652 3.141 3.141 0 0 1 .028.332l1.977-.29a2.754 2.754 0 0 1-.121-.492 2.754 2.754 0 0 1 2.326-3.124 2.754 2.754 0 0 1 3.124 2.326 2.754 2.754 0 0 1 .025.505l2.211-.324a2.754 2.754 0 0 1-.12-.491 2.754 2.754 0 0 1 2.325-3.125 2.754 2.754 0 0 1 3.124 2.326 2.754 2.754 0 0 1 .025.506l2.21-.324a2.754 2.754 0 0 1-.12-.492 2.754 2.754 0 0 1 2.325-3.124 2.754 2.754 0 0 1 3.125 2.325 2.754 2.754 0 0 1 .025.506l2.21-.324a2.754 2.754 0 0 1-.12-.491 2.754 2.754 0 0 1 2.325-3.125 2.754 2.754 0 0 1 3.125 2.326 2.754 2.754 0 0 1 .025.506l2.21-.324a2.754 2.754 0 0 1-.12-.492 2.754 2.754 0 0 1 2.325-3.124 2.754 2.754 0 0 1 3.124 2.325 2.754 2.754 0 0 1 .026.506l2.21-.324a2.754 2.754 0 0 1-.12-.492 2.754 2.754 0 0 1 2.325-3.124 2.754 2.754 0 0 1 3.124 2.326 2.754 2.754 0 0 1 .026.506l2.21-.324a2.754 2.754 0 0 1-.12-.492 2.754 2.754 0 0 1 2.325-3.125 2.754 2.754 0 0 1 3.124 2.326 2.754 2.754 0 0 1 .026.506l2.21-.324a2.754 2.754 0 0 1-.12-.492 2.754 2.754 0 0 1 2.325-3.124 2.754 2.754 0 0 1 3.124 2.326 2.754 2.754 0 0 1 .025.505l2.211-.324a2.754 2.754 0 0 1-.12-.491 2.754 2.754 0 0 1 2.325-3.125 2.754 2.754 0 0 1 3.124 2.326 2.754 2.754 0 0 1 .025.506l2.21-.324a2.754 2.754 0 0 1-.12-.492 2.754 2.754 0 0 1 2.325-3.124 2.754 2.754 0 0 1 3.125 2.325 2.754 2.754 0 0 1 .025.506l2.21-.324a2.754 2.754 0 0 1-.12-.492 2.754 2.754 0 0 1 2.325-3.124 2.754 2.754 0 0 1 3.125 2.326 2.754 2.754 0 0 1 .025.506l1.749-.257a3.141 3.141 0 0 1-.067-.326 3.141 3.141 0 0 1 2.653-3.563 3.141 3.141 0 0 1 .192-.021l-.256-1.743a3.141 3.141 0 0 1-.19.037 3.141 3.141 0 0 1-.296.028 3.141 3.141 0 0 0-2.36 3.503 3.141 3.141 0 0 0 .066.327l-1.749.256a2.754 2.754 0 0 0-.025-.506 2.754 2.754 0 0 0-3.124-2.325 2.754 2.754 0 0 0-2.326 3.124 2.754 2.754 0 0 0 .12.492l-2.21.324a2.754 2.754 0 0 0-.025-.506 2.754 2.754 0 0 0-3.124-2.326 2.754 2.754 0 0 0-2.326 3.124 2.754 2.754 0 0 0 .12.492l-2.21.324a2.754 2.754 0 0 0-.025-.506 2.754 2.754 0 0 0-3.124-2.325 2.754 2.754 0 0 0-2.326 3.124 2.754 2.754 0 0 0 .121.492l-2.21.324a2.754 2.754 0 0 0-.026-.506 2.754 2.754 0 0 0-3.124-2.326 2.754 2.754 0 0 0-2.326 3.125 2.754 2.754 0 0 0 .121.491l-2.21.324a2.754 2.754 0 0 0-.025-.506 2.754 2.754 0 0 0-3.125-2.325 2.754 2.754 0 0 0-2.325 3.124 2.754 2.754 0 0 0 .12.492l-2.21.324a2.754 2.754 0 0 0-.025-.506 2.754 2.754 0 0 0-3.125-2.326 2.754 2.754 0 0 0-2.325 3.125 2.754 2.754 0 0 0 .12.492l-2.21.324a2.754 2.754 0 0 0-.026-.506 2.754 2.754 0 0 0-3.124-2.326 2.754 2.754 0 0 0-2.325 3.124 2.754 2.754 0 0 0 .12.492l-2.21.324a2.754 2.754 0 0 0-.025-.506 2.754 2.754 0 0 0-3.124-2.325 2.754 2.754 0 0 0-2.326 3.124 2.754 2.754 0 0 0 .12.492l-2.21.324a2.754 2.754 0 0 0-.025-.506 2.754 2.754 0 0 0-3.124-2.326 2.754 2.754 0 0 0-2.326 3.125 2.754 2.754 0 0 0 .12.491l-2.21.324a2.754 2.754 0 0 0-.025-.506 2.754 2.754 0 0 0-3.124-2.325 2.754 2.754 0 0 0-2.326 3.124 2.754 2.754 0 0 0 .121.492l-2.21.324a2.754 2.754 0 0 0-.026-.506 2.754 2.754 0 0 0-3.124-2.326 2.754 2.754 0 0 0-2.326 3.125 2.754 2.754 0 0 0 .121.492l-1.977.29a3.141 3.141 0 0 0-.027-.333 3.141 3.141 0 0 0-3.267-2.68 3.141 3.141 0 0 1-.292.06 3.141 3.141 0 0 1-.3.027z" fill-opacity=".11" stroke-width=".284"/><path d="M7.186 14.148c-.6.088-1.08.163-1.08.168l.748 5.102a3.141 3.141 0 0 1 .296-.059 3.141 3.141 0 0 1 3.563 2.653 3.141 3.141 0 0 1-2.652 3.563 3.141 3.141 0 0 1-.301.027l.258 1.758a3.141 3.141 0 0 1 .296-.058 3.141 3.141 0 0 1 3.563 2.652 3.141 3.141 0 0 1-2.652 3.564 3.141 3.141 0 0 1-.301.026l.257 1.758a3.141 3.141 0 0 1 .297-.058 3.141 3.141 0 0 1 3.563 2.652 3.141 3.141 0 0 1-2.653 3.564 3.141 3.141 0 0 1-.3.026l.257 1.759a3.141 3.141 0 0 1 .297-.059 3.141 3.141 0 0 1 3.563 2.652 3.141 3.141 0 0 1-2.653 3.564 3.141 3.141 0 0 1-.3.026l.257 1.759a3.141 3.141 0 0 1 .296-.059 3.141 3.141 0 0 1 3.564 2.653 3.141 3.141 0 0 1-2.653 3.563 3.141 3.141 0 0 1-.3.027l.257 1.758a3.141 3.141 0 0 1 .296-.059 3.141 3.141 0 0 1 3.564 2.653 3.141 3.141 0 0 1-2.653 3.563 3.141 3.141 0 0 1-.3.027l.257 1.758a3.141 3.141 0 0 1 .296-.058 3.141 3.141 0 0 1 3.564 2.652 3.141 3.141 0 0 1-2.653 3.564 3.141 3.141 0 0 1-.3.026L15 75.013a3.141 3.141 0 0 1 .296-.058 3.141 3.141 0 0 1 3.563 2.652 3.141 3.141 0 0 1-2.652 3.564 3.141 3.141 0 0 1-.3.026l.257 1.759a3.141 3.141 0 0 1 .296-.059 3.141 3.141 0 0 1 3.563 2.652 3.141 3.141 0 0 1-2.652 3.564 3.141 3.141 0 0 1-.301.026l.258 1.759a3.141 3.141 0 0 1 .296-.059 3.141 3.141 0 0 1 3.563 2.653 3.141 3.141 0 0 1-2.652 3.563 3.141 3.141 0 0 1-.301.027l.258 1.758a3.141 3.141 0 0 1 .296-.059 3.141 3.141 0 0 1 3.563 2.653 3.141 3.141 0 0 1-2.652 3.563 3.141 3.141 0 0 1-.301.027l.257 1.759a3.141 3.141 0 0 1 .297-.059 3.141 3.141 0 0 1 3.563 2.652 3.141 3.141 0 0 1-2.653 3.563 3.141 3.141 0 0 1-.3.027l.257 1.759a3.141 3.141 0 0 1 .296-.059 3.141 3.141 0 0 1 3.564 2.653 3.141 3.141 0 0 1-2.653 3.563 3.141 3.141 0 0 1-.3.027l.257 1.758a3.141 3.141 0 0 1 .296-.058 3.141 3.141 0 0 1 3.564 2.652 3.141 3.141 0 0 1 .027.332l1.977-.29a2.754 2.754 0 0 1-.12-.492 2.754 2.754 0 0 1 2.325-3.124 2.754 2.754 0 0 1 3.124 2.325 2.754 2.754 0 0 1 .026.506l2.21-.324a2.754 2.754 0 0 1-.12-.492 2.754 2.754 0 0 1 2.325-3.124 2.754 2.754 0 0 1 3.124 2.326 2.754 2.754 0 0 1 .026.506l2.21-.324a2.754 2.754 0 0 1-.121-.492 2.754 2.754 0 0 1 2.326-3.124 2.754 2.754 0 0 1 3.124 2.325 2.754 2.754 0 0 1 .025.506l2.211-.324a2.754 2.754 0 0 1-.12-.492 2.754 2.754 0 0 1 2.325-3.124 2.754 2.754 0 0 1 3.124 2.326 2.754 2.754 0 0 1 .025.506l2.21-.324a2.754 2.754 0 0 1-.12-.492 2.754 2.754 0 0 1 2.325-3.125 2.754 2.754 0 0 1 3.125 2.326 2.754 2.754 0 0 1 .025.506l2.21-.324a2.754 2.754 0 0 1-.12-.492 2.754 2.754 0 0 1 2.325-3.124 2.754 2.754 0 0 1 3.125 2.326 2.754 2.754 0 0 1 .025.505l2.21-.324a2.754 2.754 0 0 1-.12-.491 2.754 2.754 0 0 1 2.325-3.125 2.754 2.754 0 0 1 3.125 2.326 2.754 2.754 0 0 1 .025.506l2.21-.324a2.754 2.754 0 0 1-.12-.492 2.754 2.754 0 0 1 2.325-3.124 2.754 2.754 0 0 1 3.124 2.325 2.754 2.754 0 0 1 .026.506l2.21-.324a2.754 2.754 0 0 1-.12-.492 2.754 2.754 0 0 1 2.325-3.124 2.754 2.754 0 0 1 3.124 2.326 2.754 2.754 0 0 1 .026.506l2.21-.324a2.754 2.754 0 0 1-.121-.492 2.754 2.754 0 0 1 2.326-3.124 2.754 2.754 0 0 1 3.124 2.325 2.754 2.754 0 0 1 .025.506l2.211-.324a2.754 2.754 0 0 1-.12-.492 2.754 2.754 0 0 1 2.325-3.124 2.754 2.754 0 0 1 3.124 2.326 2.754 2.754 0 0 1 .025.505l1.75-.256a3.141 3.141 0 0 1-.067-.326 3.141 3.141 0 0 1 2.652-3.563 3.141 3.141 0 0 1 .192-.021l-.256-1.743a3.141 3.141 0 0 1-.189.037 3.141 3.141 0 0 1-3.563-2.652 3.141 3.141 0 0 1 2.652-3.564 3.141 3.141 0 0 1 .192-.02l-.255-1.744a3.141 3.141 0 0 1-.19.038 3.141 3.141 0 0 1-3.563-2.652 3.141 3.141 0 0 1 2.652-3.564 3.141 3.141 0 0 1 .192-.02l-.255-1.744a3.141 3.141 0 0 1-.19.038 3.141 3.141 0 0 1-3.563-2.653 3.141 3.141 0 0 1 2.653-3.563 3.141 3.141 0 0 1 .191-.021l-.255-1.743a3.141 3.141 0 0 1-.19.038 3.141 3.141 0 0 1-3.563-2.653 3.141 3.141 0 0 1 2.653-3.563 3.141 3.141 0 0 1 .191-.021l-.255-1.743a3.141 3.141 0 0 1-.19.037 3.141 3.141 0 0 1-3.563-2.652 3.141 3.141 0 0 1 2.653-3.563 3.141 3.141 0 0 1 .191-.021l-.255-1.743a3.141 3.141 0 0 1-.19.037 3.141 3.141 0 0 1-3.563-2.652 3.141 3.141 0 0 1 2.653-3.564 3.141 3.141 0 0 1 .191-.02l-.255-1.743a3.141 3.141 0 0 1-.19.037 3.141 3.141 0 0 1-3.562-2.652 3.141 3.141 0 0 1 2.652-3.564 3.141 3.141 0 0 1 .192-.02l-.256-1.744a3.141 3.141 0 0 1-.189.038 3.141 3.141 0 0 1-3.563-2.653 3.141 3.141 0 0 1 2.652-3.563 3.141 3.141 0 0 1 .192-.021l-.256-1.743a3.141 3.141 0 0 1-.189.038 3.141 3.141 0 0 1-3.563-2.653 3.141 3.141 0 0 1 2.652-3.563 3.141 3.141 0 0 1 .192-.021l-.256-1.743a3.141 3.141 0 0 1-.189.037 3.141 3.141 0 0 1-3.563-2.652 3.141 3.141 0 0 1 2.652-3.563 3.141 3.141 0 0 1 .192-.021l-.255-1.743a3.141 3.141 0 0 1-.19.037 3.141 3.141 0 0 1-3.563-2.652 3.141 3.141 0 0 1 2.652-3.564 3.141 3.141 0 0 1 .192-.02l-.255-1.743a3.141 3.141 0 0 1-.19.037 3.141 3.141 0 0 1-3.563-2.652 3.141 3.141 0 0 1 2.653-3.564 3.141 3.141 0 0 1 .191-.02l-.255-1.744a3.141 3.141 0 0 1-.19.038A3.141 3.141 0 0 1 95.404 9.6a3.141 3.141 0 0 1 2.653-3.563 3.141 3.141 0 0 1 .191-.021L97.501.923c0-.005-.484.06-1.083.149z" fill-opacity=".156" stroke-width=".284"/><path d="M7.09 18.956a3.141 3.141 0 0 0-.295.058l.095.653a3.141 3.141 0 0 1 .296-.059 3.141 3.141 0 0 1 3.498 2.339 3.141 3.141 0 0 0-.03-.339 3.141 3.141 0 0 0-3.563-2.653zM97.998 5.634a3.141 3.141 0 0 0-2.653 3.563 3.141 3.141 0 0 0 .066.314 3.141 3.141 0 0 1 2.682-3.225 3.141 3.141 0 0 1 .192-.02l-.096-.654a3.141 3.141 0 0 0-.191.022zM8.255 26.898a3.141 3.141 0 0 0-.296.059l.095.652a3.141 3.141 0 0 1 .296-.058 3.141 3.141 0 0 1 3.498 2.339 3.141 3.141 0 0 0-.03-.34 3.141 3.141 0 0 0-3.563-2.652zM99.16 13.576a3.141 3.141 0 0 0-2.653 3.564 3.141 3.141 0 0 0 .066.313 3.141 3.141 0 0 1 2.682-3.224 3.141 3.141 0 0 1 .192-.021l-.096-.653a3.141 3.141 0 0 0-.191.021zM9.419 34.84a3.141 3.141 0 0 0-.297.059l.096.652a3.141 3.141 0 0 1 .296-.058 3.141 3.141 0 0 1 3.498 2.339 3.141 3.141 0 0 0-.03-.34 3.141 3.141 0 0 0-3.563-2.652zm90.905-13.322a3.141 3.141 0 0 0-2.652 3.564 3.141 3.141 0 0 0 .066.313 3.141 3.141 0 0 1 2.682-3.224 3.141 3.141 0 0 1 .192-.021l-.096-.653a3.141 3.141 0 0 0-.192.021zM10.582 42.783a3.141 3.141 0 0 0-.296.058l.096.653a3.141 3.141 0 0 1 .296-.059 3.141 3.141 0 0 1 3.498 2.339 3.141 3.141 0 0 0-.03-.34 3.141 3.141 0 0 0-3.564-2.651zm90.906-13.322a3.141 3.141 0 0 0-2.652 3.563 3.141 3.141 0 0 0 .065.313 3.141 3.141 0 0 1 2.683-3.223 3.141 3.141 0 0 1 .192-.022l-.096-.653a3.141 3.141 0 0 0-.192.022zM11.746 50.725a3.141 3.141 0 0 0-.296.058l.096.653a3.141 3.141 0 0 1 .296-.059 3.141 3.141 0 0 1 3.498 2.339 3.141 3.141 0 0 0-.03-.339 3.141 3.141 0 0 0-3.564-2.652zm90.906-13.322A3.141 3.141 0 0 0 100 40.966a3.141 3.141 0 0 0 .065.314 3.141 3.141 0 0 1 2.683-3.225 3.141 3.141 0 0 1 .191-.02l-.095-.654a3.141 3.141 0 0 0-.192.022zM12.91 58.666a3.141 3.141 0 0 0-.296.059l.096.653a3.141 3.141 0 0 1 .296-.059 3.141 3.141 0 0 1 3.498 2.339 3.141 3.141 0 0 0-.03-.34 3.141 3.141 0 0 0-3.564-2.652zm90.906-13.321a3.141 3.141 0 0 0-2.652 3.563 3.141 3.141 0 0 0 .065.314 3.141 3.141 0 0 1 2.683-3.225 3.141 3.141 0 0 1 .191-.02l-.095-.654a3.141 3.141 0 0 0-.192.022zM14.074 66.61a3.141 3.141 0 0 0-.296.058l.096.652a3.141 3.141 0 0 1 .296-.058 3.141 3.141 0 0 1 3.497 2.339 3.141 3.141 0 0 0-.03-.339 3.141 3.141 0 0 0-3.563-2.652zm90.906-13.322a3.141 3.141 0 0 0-2.652 3.563 3.141 3.141 0 0 0 .065.313 3.141 3.141 0 0 1 2.683-3.224 3.141 3.141 0 0 1 .191-.021l-.095-.653a3.141 3.141 0 0 0-.192.022zM15.238 74.552a3.141 3.141 0 0 0-.296.058l.095.652a3.141 3.141 0 0 1 .297-.058 3.141 3.141 0 0 1 3.497 2.338 3.141 3.141 0 0 0-.03-.338 3.141 3.141 0 0 0-3.563-2.652zm90.906-13.322a3.141 3.141 0 0 0-2.653 3.563 3.141 3.141 0 0 0 .066.313 3.141 3.141 0 0 1 2.682-3.224 3.141 3.141 0 0 1 .192-.021l-.096-.653a3.141 3.141 0 0 0-.191.022zM16.402 82.494a3.141 3.141 0 0 0-.296.059l.095.652a3.141 3.141 0 0 1 .296-.059 3.141 3.141 0 0 1 3.498 2.339 3.141 3.141 0 0 0-.03-.339 3.141 3.141 0 0 0-3.563-2.652zm90.906-13.322a3.141 3.141 0 0 0-2.653 3.563 3.141 3.141 0 0 0 .066.313 3.141 3.141 0 0 1 2.682-3.224 3.141 3.141 0 0 1 .192-.02l-.096-.653a3.141 3.141 0 0 0-.191.021zM17.566 90.436a3.141 3.141 0 0 0-.296.059l.095.652a3.141 3.141 0 0 1 .296-.059 3.141 3.141 0 0 1 3.498 2.339 3.141 3.141 0 0 0-.03-.339 3.141 3.141 0 0 0-3.563-2.652zm90.906-13.322a3.141 3.141 0 0 0-2.653 3.564 3.141 3.141 0 0 0 .066.313 3.141 3.141 0 0 1 2.682-3.225 3.141 3.141 0 0 1 .192-.02l-.096-.653a3.141 3.141 0 0 0-.191.021zM18.73 98.378a3.141 3.141 0 0 0-.297.059l.096.652a3.141 3.141 0 0 1 .296-.059 3.141 3.141 0 0 1 3.498 2.339 3.141 3.141 0 0 0-.03-.339 3.141 3.141 0 0 0-3.563-2.652zm90.905-13.322a3.141 3.141 0 0 0-2.652 3.564 3.141 3.141 0 0 0 .066.313 3.141 3.141 0 0 1 2.682-3.225 3.141 3.141 0 0 1 .192-.02l-.096-.653a3.141 3.141 0 0 0-.192.021zm-89.741 21.265a3.141 3.141 0 0 0-.297.058l.096.652a3.141 3.141 0 0 1 .296-.058 3.141 3.141 0 0 1 3.498 2.338 3.141 3.141 0 0 0-.03-.338 3.141 3.141 0 0 0-3.563-2.653zm90.905-13.322a3.141 3.141 0 0 0-2.652 3.563 3.141 3.141 0 0 0 .065.313 3.141 3.141 0 0 1 2.683-3.224 3.141 3.141 0 0 1 .192-.021l-.096-.653a3.141 3.141 0 0 0-.192.022zm-89.742 21.264a3.141 3.141 0 0 0-.296.058l.096.652a3.141 3.141 0 0 1 .296-.058 3.141 3.141 0 0 1 3.498 2.338 3.141 3.141 0 0 0-.03-.338 3.141 3.141 0 0 0-3.564-2.652zm90.906-13.322a3.141 3.141 0 0 0-2.652 3.563 3.141 3.141 0 0 0 .065.313 3.141 3.141 0 0 1 2.683-3.224 3.141 3.141 0 0 1 .191-.021l-.095-.652a3.141 3.141 0 0 0-.192.02zm-89.742 21.264a3.141 3.141 0 0 0-.296.059l.096.652a3.141 3.141 0 0 1 .296-.059 3.141 3.141 0 0 1 3.495 2.33 3.141 3.141 0 0 0-.027-.33 3.141 3.141 0 0 0-3.564-2.652zm90.906-13.322a3.141 3.141 0 0 0-2.652 3.563 3.141 3.141 0 0 0 .065.323 3.141 3.141 0 0 1 2.683-3.234 3.141 3.141 0 0 1 .191-.02l-.095-.653a3.141 3.141 0 0 0-.192.021zm-83.133 12.4a2.754 2.754 0 0 0-2.326 3.124 2.754 2.754 0 0 0 .07.316 2.754 2.754 0 0 1 2.351-2.788 2.754 2.754 0 0 1 3.054 2.005 2.754 2.754 0 0 0-.025-.331 2.754 2.754 0 0 0-3.124-2.326zm7.565-1.108a2.754 2.754 0 0 0-2.326 3.124 2.754 2.754 0 0 0 .07.316 2.754 2.754 0 0 1 2.352-2.788 2.754 2.754 0 0 1 3.053 2.004 2.754 2.754 0 0 0-.025-.33 2.754 2.754 0 0 0-3.124-2.326zm7.565-1.109a2.754 2.754 0 0 0-2.326 3.124 2.754 2.754 0 0 0 .07.316 2.754 2.754 0 0 1 2.351-2.788 2.754 2.754 0 0 1 3.054 2.005 2.754 2.754 0 0 0-.025-.331 2.754 2.754 0 0 0-3.124-2.326zm7.565-1.109a2.754 2.754 0 0 0-2.326 3.125 2.754 2.754 0 0 0 .07.316 2.754 2.754 0 0 1 2.351-2.788 2.754 2.754 0 0 1 3.054 2.004 2.754 2.754 0 0 0-.025-.33 2.754 2.754 0 0 0-3.124-2.327zm7.564-1.108a2.754 2.754 0 0 0-2.325 3.124 2.754 2.754 0 0 0 .07.316 2.754 2.754 0 0 1 2.35-2.788 2.754 2.754 0 0 1 3.054 2.004 2.754 2.754 0 0 0-.025-.33 2.754 2.754 0 0 0-3.124-2.326zm7.565-1.109a2.754 2.754 0 0 0-2.325 3.125 2.754 2.754 0 0 0 .07.315 2.754 2.754 0 0 1 2.35-2.788 2.754 2.754 0 0 1 3.055 2.005 2.754 2.754 0 0 0-.025-.331 2.754 2.754 0 0 0-3.125-2.326zm7.565-1.108a2.754 2.754 0 0 0-2.325 3.124 2.754 2.754 0 0 0 .07.316 2.754 2.754 0 0 1 2.351-2.788 2.754 2.754 0 0 1 3.054 2.004 2.754 2.754 0 0 0-.025-.33 2.754 2.754 0 0 0-3.125-2.326zm7.565-1.109a2.754 2.754 0 0 0-2.326 3.124 2.754 2.754 0 0 0 .07.316 2.754 2.754 0 0 1 2.352-2.788 2.754 2.754 0 0 1 3.053 2.005 2.754 2.754 0 0 0-.025-.331 2.754 2.754 0 0 0-3.124-2.326zm7.565-1.109a2.754 2.754 0 0 0-2.326 3.125 2.754 2.754 0 0 0 .07.316 2.754 2.754 0 0 1 2.352-2.788 2.754 2.754 0 0 1 3.053 2.004 2.754 2.754 0 0 0-.025-.33 2.754 2.754 0 0 0-3.124-2.327zm7.565-1.108a2.754 2.754 0 0 0-2.326 3.124 2.754 2.754 0 0 0 .07.316 2.754 2.754 0 0 1 2.351-2.788 2.754 2.754 0 0 1 3.054 2.004 2.754 2.754 0 0 0-.025-.33 2.754 2.754 0 0 0-3.124-2.326zm7.565-1.109a2.754 2.754 0 0 0-2.326 3.125 2.754 2.754 0 0 0 .07.315 2.754 2.754 0 0 1 2.351-2.788 2.754 2.754 0 0 1 3.054 2.005 2.754 2.754 0 0 0-.025-.331 2.754 2.754 0 0 0-3.124-2.326zm-79.83 14.992a3.141 3.141 0 0 1 .067.32 3.141 3.141 0 0 1 .028.332l1.977-.29a2.754 2.754 0 0 1-.121-.491 2.754 2.754 0 0 1-.015-.155zm7.373-1.08a2.754 2.754 0 0 1 .028.152 2.754 2.754 0 0 1 .025.506l2.21-.324a2.754 2.754 0 0 1-.12-.492 2.754 2.754 0 0 1-.015-.154zm7.565-1.11a2.754 2.754 0 0 1 .028.153 2.754 2.754 0 0 1 .025.506l2.21-.324a2.754 2.754 0 0 1-.12-.492 2.754 2.754 0 0 1-.015-.154zm7.564-1.108a2.754 2.754 0 0 1 .028.153 2.754 2.754 0 0 1 .026.506l2.21-.324a2.754 2.754 0 0 1-.12-.492 2.754 2.754 0 0 1-.015-.155zm7.566-1.108a2.754 2.754 0 0 1 .028.152 2.754 2.754 0 0 1 .025.506l2.21-.324a2.754 2.754 0 0 1-.12-.492 2.754 2.754 0 0 1-.016-.154zm7.564-1.109a2.754 2.754 0 0 1 .028.153 2.754 2.754 0 0 1 .025.506l2.211-.324a2.754 2.754 0 0 1-.12-.492 2.754 2.754 0 0 1-.016-.155zm7.565-1.108a2.754 2.754 0 0 1 .028.152 2.754 2.754 0 0 1 .025.506l2.211-.324a2.754 2.754 0 0 1-.12-.492 2.754 2.754 0 0 1-.015-.154zm7.565-1.11a2.754 2.754 0 0 1 .028.153 2.754 2.754 0 0 1 .026.506l2.21-.324a2.754 2.754 0 0 1-.121-.491 2.754 2.754 0 0 1-.015-.155zm7.565-1.108a2.754 2.754 0 0 1 .028.153 2.754 2.754 0 0 1 .025.506l2.21-.324a2.754 2.754 0 0 1-.12-.492 2.754 2.754 0 0 1-.015-.154zm7.565-1.108a2.754 2.754 0 0 1 .028.152 2.754 2.754 0 0 1 .025.506l2.21-.324a2.754 2.754 0 0 1-.12-.492 2.754 2.754 0 0 1-.015-.154zm7.565-1.109a2.754 2.754 0 0 1 .028.153 2.754 2.754 0 0 1 .025.506l2.21-.324a2.754 2.754 0 0 1-.12-.492 2.754 2.754 0 0 1-.015-.155zm7.565-1.108a2.754 2.754 0 0 1 .028.152 2.754 2.754 0 0 1 .025.506l1.749-.256a3.141 3.141 0 0 1-.067-.327 3.141 3.141 0 0 1-.03-.325z" fill-opacity=".133" stroke-width=".284"/><path d="M7.127 13.744c-.6.088-1.08.163-1.08.169l.748 5.101a3.141 3.141 0 0 1 .296-.058 3.141 3.141 0 0 1 3.563 2.652 3.141 3.141 0 0 1-2.652 3.564 3.141 3.141 0 0 1-.301.026l.257 1.759a3.141 3.141 0 0 1 .297-.059 3.141 3.141 0 0 1 3.563 2.653 3.141 3.141 0 0 1-2.652 3.563 3.141 3.141 0 0 1-.301.027l.257 1.758a3.141 3.141 0 0 1 .296-.059 3.141 3.141 0 0 1 3.564 2.653 3.141 3.141 0 0 1-2.653 3.563 3.141 3.141 0 0 1-.3.027l.257 1.758a3.141 3.141 0 0 1 .296-.058 3.141 3.141 0 0 1 3.564 2.652 3.141 3.141 0 0 1-2.653 3.563 3.141 3.141 0 0 1-.3.027l.257 1.758a3.141 3.141 0 0 1 .296-.058 3.141 3.141 0 0 1 3.564 2.652 3.141 3.141 0 0 1-2.653 3.564 3.141 3.141 0 0 1-.3.026l.257 1.758a3.141 3.141 0 0 1 .296-.058 3.141 3.141 0 0 1 3.563 2.652 3.141 3.141 0 0 1-2.652 3.564 3.141 3.141 0 0 1-.3.026l.257 1.759a3.141 3.141 0 0 1 .296-.059 3.141 3.141 0 0 1 3.563 2.653 3.141 3.141 0 0 1-2.652 3.563 3.141 3.141 0 0 1-.3.027l.257 1.758a3.141 3.141 0 0 1 .296-.059 3.141 3.141 0 0 1 3.563 2.653 3.141 3.141 0 0 1-2.652 3.563 3.141 3.141 0 0 1-.301.027l.258 1.758a3.141 3.141 0 0 1 .296-.058 3.141 3.141 0 0 1 3.563 2.652 3.141 3.141 0 0 1-2.652 3.563 3.141 3.141 0 0 1-.301.027l.258 1.758a3.141 3.141 0 0 1 .296-.058 3.141 3.141 0 0 1 3.563 2.652 3.141 3.141 0 0 1-2.652 3.564 3.141 3.141 0 0 1-.301.026l.257 1.758a3.141 3.141 0 0 1 .297-.058 3.141 3.141 0 0 1 3.563 2.652 3.141 3.141 0 0 1-2.653 3.564 3.141 3.141 0 0 1-.3.026l.257 1.759a3.141 3.141 0 0 1 .296-.059 3.141 3.141 0 0 1 3.564 2.653 3.141 3.141 0 0 1-2.653 3.563 3.141 3.141 0 0 1-.3.026l.257 1.759a3.141 3.141 0 0 1 .296-.059 3.141 3.141 0 0 1 3.564 2.653 3.141 3.141 0 0 1-2.653 3.563 3.141 3.141 0 0 1-.3.027l.257 1.759a3.141 3.141 0 0 1 .296-.059 3.141 3.141 0 0 1 3.563 2.652 3.141 3.141 0 0 1 .028.332l1.977-.29a2.754 2.754 0 0 1-.12-.491 2.754 2.754 0 0 1 2.325-3.125 2.754 2.754 0 0 1 3.124 2.326 2.754 2.754 0 0 1 .025.506l2.211-.324a2.754 2.754 0 0 1-.12-.492 2.754 2.754 0 0 1 2.325-3.124 2.754 2.754 0 0 1 3.124 2.325 2.754 2.754 0 0 1 .026.506l2.21-.324a2.754 2.754 0 0 1-.121-.492 2.754 2.754 0 0 1 2.325-3.124 2.754 2.754 0 0 1 3.125 2.326 2.754 2.754 0 0 1 .025.506l2.21-.324a2.754 2.754 0 0 1-.12-.492 2.754 2.754 0 0 1 2.326-3.125 2.754 2.754 0 0 1 3.124 2.326 2.754 2.754 0 0 1 .025.506l2.21-.324a2.754 2.754 0 0 1-.12-.492 2.754 2.754 0 0 1 2.325-3.124 2.754 2.754 0 0 1 3.124 2.326 2.754 2.754 0 0 1 .026.505l2.21-.324a2.754 2.754 0 0 1-.12-.491 2.754 2.754 0 0 1 2.325-3.125 2.754 2.754 0 0 1 3.125 2.326 2.754 2.754 0 0 1 .025.506l2.21-.324a2.754 2.754 0 0 1-.12-.492 2.754 2.754 0 0 1 2.325-3.124 2.754 2.754 0 0 1 3.125 2.325 2.754 2.754 0 0 1 .025.506l2.21-.324a2.754 2.754 0 0 1-.12-.492 2.754 2.754 0 0 1 2.325-3.124 2.754 2.754 0 0 1 3.124 2.326 2.754 2.754 0 0 1 .025.506l2.211-.324a2.754 2.754 0 0 1-.12-.492 2.754 2.754 0 0 1 2.325-3.124 2.754 2.754 0 0 1 3.124 2.325 2.754 2.754 0 0 1 .026.506l2.21-.324a2.754 2.754 0 0 1-.121-.492 2.754 2.754 0 0 1 2.326-3.124 2.754 2.754 0 0 1 3.124 2.326 2.754 2.754 0 0 1 .025.505l2.21-.324a2.754 2.754 0 0 1-.12-.491 2.754 2.754 0 0 1 2.326-3.125 2.754 2.754 0 0 1 3.124 2.326 2.754 2.754 0 0 1 .025.506l1.749-.256a3.141 3.141 0 0 1-.066-.327 3.141 3.141 0 0 1 2.652-3.563 3.141 3.141 0 0 1 .192-.021l-.256-1.743a3.141 3.141 0 0 1-.189.038 3.141 3.141 0 0 1-3.563-2.653 3.141 3.141 0 0 1 2.652-3.563 3.141 3.141 0 0 1 .192-.022l-.256-1.742a3.141 3.141 0 0 1-.189.037 3.141 3.141 0 0 1-3.563-2.652A3.141 3.141 0 0 1 110.799 93a3.141 3.141 0 0 1 .192-.021l-.256-1.743a3.141 3.141 0 0 1-.189.037 3.141 3.141 0 0 1-3.563-2.652 3.141 3.141 0 0 1 2.652-3.564 3.141 3.141 0 0 1 .192-.021l-.255-1.742a3.141 3.141 0 0 1-.19.037 3.141 3.141 0 0 1-3.563-2.652 3.141 3.141 0 0 1 2.652-3.564 3.141 3.141 0 0 1 .192-.021l-.255-1.743a3.141 3.141 0 0 1-.19.038 3.141 3.141 0 0 1-3.563-2.653 3.141 3.141 0 0 1 2.653-3.563 3.141 3.141 0 0 1 .191-.021l-.255-1.743a3.141 3.141 0 0 1-.19.038 3.141 3.141 0 0 1-3.563-2.653 3.141 3.141 0 0 1 2.653-3.563 3.141 3.141 0 0 1 .191-.022l-.255-1.742a3.141 3.141 0 0 1-.19.038 3.141 3.141 0 0 1-3.563-2.653 3.141 3.141 0 0 1 2.653-3.563 3.141 3.141 0 0 1 .191-.022l-.255-1.742a3.141 3.141 0 0 1-.19.037 3.141 3.141 0 0 1-3.563-2.652 3.141 3.141 0 0 1 2.653-3.564 3.141 3.141 0 0 1 .192-.021l-.256-1.742a3.141 3.141 0 0 1-.189.037A3.141 3.141 0 0 1 100 40.967a3.141 3.141 0 0 1 2.652-3.564 3.141 3.141 0 0 1 .192-.021l-.256-1.743a3.141 3.141 0 0 1-.189.038 3.141 3.141 0 0 1-3.563-2.653 3.141 3.141 0 0 1 2.652-3.563 3.141 3.141 0 0 1 .192-.021l-.256-1.743a3.141 3.141 0 0 1-.189.038 3.141 3.141 0 0 1-3.563-2.653 3.141 3.141 0 0 1 2.652-3.563 3.141 3.141 0 0 1 .192-.022l-.255-1.742a3.141 3.141 0 0 1-.19.038 3.141 3.141 0 0 1-3.563-2.653 3.141 3.141 0 0 1 2.652-3.563 3.141 3.141 0 0 1 .192-.022l-.255-1.742a3.141 3.141 0 0 1-.19.037 3.141 3.141 0 0 1-3.563-2.653 3.141 3.141 0 0 1 2.653-3.563 3.141 3.141 0 0 1 .191-.021L97.442.519c-.001-.005-.484.061-1.083.149z" fill="#fff" stroke-width=".284"/><rect height="94.683" rx="1.093" ry=".01" transform="rotate(-8.337)" width="74.58" x="12.861" y="23.779" stroke-width=".284" fill="url(#a)"/><path d="M64.363 81.734c-1.027-4.769-.325-4.307-14.021-9.223-7.23-2.595-10.5-3.446-10.894-2.834-.376.582-.082 2.144.88 4.675l1.445 3.8 10.86 3.925c5.974 2.159 11.25 3.864 11.726 3.79.599-.095.6-1.366.004-4.133zm24.966-2.826c.984-1.169.158-4.478-1.31-5.243-2.105-1.097-21.69-8.203-22.266-8.08-.303.066-.124 2.1.397 4.522l.949 4.402 6.892 2.452c12.345 4.392 13.188 4.499 15.338 1.947zm-1.844-13.802c-.187-1.976-.732-4.054-1.21-4.618-1.205-1.42-23.347-9.514-24.086-8.805-.653.629.306 5.41 1.549 7.724.527.982 4.386 2.732 12.012 5.45 6.18 2.2 11.424 3.966 11.655 3.923.23-.044.267-1.697.08-3.674zm-26.152 2.565l-.945-4.387-11.725-4.334c-6.449-2.384-11.97-4.1-12.267-3.813-.98.942 1.034 8.405 2.47 9.154 2.522 1.314 21.693 8.032 22.547 7.9.608-.094.584-1.44-.08-4.52zm23.045-17.555l-.935-4.34-11.276-4.192c-6.202-2.306-11.819-4.096-12.482-3.977-1.014.181-1.07.838-.348 4.144.472 2.16 1.185 4.262 1.586 4.669 1.037 1.053 22.976 8.794 23.749 8.38.352-.189.22-2.296-.294-4.684zm-25.01 7.13c.317-2.04-1.02-6.917-2.145-7.824-1.84-1.484-18.923-7.252-20.483-6.916-1.881.405-3.12 3.583-2.314 5.936.53 1.549 2.346 2.44 12.225 5.997 6.381 2.298 11.812 4.133 12.069 4.078.256-.056.548-.628.648-1.272z" fill="#fff" fill-opacity=".995" stroke-width="3.041"/><path d="M88.703 68.305C72.59 70.666 61.436 85.65 63.797 101.764c2.362 16.113 17.346 27.266 33.46 24.905 16.113-2.361 27.266-17.345 24.905-33.458-2.361-16.114-17.345-27.268-33.459-24.906zm.083.562c15.81-2.317 30.497 8.617 32.813 24.426 2.317 15.81-8.616 30.497-24.425 32.814-15.81 2.316-30.497-8.616-32.814-24.426-2.317-15.81 8.616-30.497 24.426-32.814zm.14.957c-15.274 2.239-25.847 16.443-23.609 31.717 2.238 15.274 16.442 25.847 31.717 23.608 15.274-2.238 25.847-16.441 23.608-31.716-2.238-15.274-16.441-25.847-31.716-23.609zm.083.563c14.97-2.194 28.877 8.159 31.07 23.129 2.195 14.97-8.157 28.877-23.128 31.07-14.97 2.195-28.878-8.157-31.071-23.127-2.194-14.97 8.158-28.878 23.129-31.072zm-2.84 3.82a1.92 1.92 0 0 0-.224.052c-1.374.407-1.753 1.848-1.299 3.382.437 1.475 1.539 2.525 2.898 2.122 1.36-.403 1.711-1.883 1.274-3.359-.454-1.533-1.528-2.389-2.649-2.197zm8.952-.803l-.724 5.395.601.08.328-2.442 2.164.29.088-.653-2.164-.29.22-1.646 2.458.33.087-.654zm-8.833 1.452c.813-.133 1.583.54 1.932 1.718.377 1.272.03 2.291-.863 2.556-.894.265-1.74-.4-2.115-1.666-.383-1.293-.04-2.297.883-2.57.054-.016.109-.029.163-.038zm-5.481 1.717l-.536.284 2.541 4.813 2.534-1.338-.307-.584-1.999 1.055zm20.588-1.87l-2.129 5.01.558.237.913-2.15 1.347.573c.502.213.626.562.353 1.204-.225.53-.405 1.072-.443 1.295l.684.29.048-.111c-.118-.19-.12-.281.004-.591l.357-.92c.208-.587.19-.833-.095-1.152.562-.14.839-.385 1.079-.95.373-.88.1-1.555-.772-1.926zm.312.816l1.38.587c.496.21.625.586.388 1.144-.252.593-.636.76-1.208.517l-1.284-.545zm-25.63 4.494l-.456.4 3.588 4.093 2.154-1.888-.434-.496-1.7 1.488zm-2.713 2.855l-1.837 2.675 4.487 3.081 1.863-2.712-.544-.373-1.519 2.212-1.487-1.021 1.377-2.006-.544-.374-1.377 2.007-1.369-.94 1.494-2.175zm34.39-4.23c-.696.103-1.394.559-1.97 1.25-.984 1.183-1.245 2.682-.155 3.59 1.09.906 2.516.377 3.5-.806 1.091-1.311 1.151-2.78.19-3.58-.482-.402-1.023-.535-1.565-.455zm.039.646c.395-.06.774.04 1.097.31.7.581.606 1.666-.233 2.674-.849 1.02-1.89 1.299-2.606.702-.717-.596-.632-1.67.211-2.684.486-.583 1.023-.924 1.53-1.002zm-17.109 2.537c-8.648 1.268-14.637 9.313-13.37 17.961 1.267 8.649 9.313 14.638 17.962 13.37s14.637-9.312 13.37-17.961c-1.268-8.649-9.313-14.637-17.962-13.37zm.083.563c8.344-1.223 16.093 4.545 17.316 12.89 1.222 8.344-4.545 16.093-12.89 17.316-8.344 1.223-16.094-4.545-17.316-12.89-1.223-8.345 4.545-16.093 12.89-17.316zm.184 1.255c-7.645 1.12-12.94 8.232-11.819 15.877 1.12 7.645 8.233 12.939 15.877 11.819 7.645-1.12 12.939-8.233 11.818-15.878-1.12-7.644-8.232-12.938-15.876-11.818zm.082.563c7.34-1.076 14.156 3.997 15.232 11.338 1.075 7.34-3.998 14.156-11.338 15.232-7.34 1.076-14.157-3.998-15.232-11.339-1.076-7.34 3.997-14.155 11.338-15.231zM69.861 88.8l-.194.574 2.134.72-.744 2.205-2.134-.719-.193.574 5.157 1.74.194-.574-2.399-.81.744-2.205 2.399.81.194-.575zm43.36-5.55l-4.598 2.914.313.492 3.01-1.907.883-.56-3.22 3.53.317.5 4.581-1.396-1.184.75-2.715 1.722.304.48 4.598-2.914-.459-.724-4.587 1.4 3.22-3.557zm-18.412 4.564c-2.486.793-2.68 2.378-2.552 4.057 2.026-.6 2.846-1.981 2.552-4.057zm.394 3.893c-.661.125-1.395.458-2.237 1.097-.326.192-.68.276-1.086.16-7.59-1.923-6.477 7.494-2.026 11.311.786.644 2.195.902 3.538-.268.398-.372 1.372-.435 1.981-.147.639.307 1.793.374 2.6-.214.654-.486 1.048-1.489 1.372-2.255.275-.658.516-1.432.535-2.161-3.484-1.835-3.107-4.09-1.24-6.506-.962-.609-1.936-1.186-3.158-1.058a3.43 3.43 0 0 0-.279.041zm-25.612 9.138c-.6.088-1.081.163-1.08.169l.077.527c0 .005.484-.06 1.083-.149l.199-.029c.599-.088 1.08-.163 1.08-.168l-.077-.528c-.001-.005-.484.061-1.083.149zm3.704-.543c-.599.088-1.08.163-1.08.169l.077.527c.001.005.484-.06 1.083-.149l.2-.029c.598-.088 1.08-.163 1.08-.168l-.078-.528c0-.005-.484.061-1.083.149zm39.258-5.753c-.6.088-1.081.163-1.08.169l.077.527c0 .006.484-.06 1.083-.149l.2-.029a30.16 30.16 0 0 0 1.08-.168l-.078-.528c0-.005-.484.061-1.083.15zm3.705-.543c-.6.088-1.082.163-1.08.169l.077.527c0 .006.484-.06 1.083-.148l.199-.03c.599-.087 1.08-.163 1.08-.168l-.077-.527c-.001-.006-.484.06-1.084.148zM76.03 107.783c-.604.119-1.25.46-1.886 1.019-1.447 1.271-1.795 2.72-.903 3.735.358.407.845.645 1.387.668.53.023.977-.114 1.8-.616l-.424-.483c-1.043.607-1.706.535-2.18-.004-.66-.751-.387-1.768.753-2.77 1.152-1.013 2.249-1.167 2.92-.403.452.514.497 1.096-.035 1.83l.424.482c.835-.945.856-1.995.145-2.803-.52-.592-1.225-.807-2.001-.654zm34.704-3.925l-.241.72 5.092 3.65.217-.65-1.488-1.043.625-1.866 1.806.094.23-.687zm.693.663l2.747.147-.484 1.447zm-2.207 2.628l-.361.55 5.012 3.277.36-.552zm-27.88 4.656l-5.104 3.633.543.416 1.47-1.07 1.563 1.197-.676 1.678.576.441 2.23-5.833zm-.25.902l-1.03 2.551-1.21-.928zm26.832-3.613l-.461.447 3.387 3.487-5.164-1.761-.562.546 4.172 4.295.46-.448-3.387-3.487 5.194 1.732.533-.517zm-23.566 4.78l-2.498 5.44 2.865 1.315.303-.659-2.259-1.037 2.196-4.782zm18.992-.754c-.209.037-.427.12-.655.247l-1.985 1.114 2.932 5.221.581-.327-1.257-2.24 1.403-.787c.524-.294.91-.167 1.287.502.31.553.66 1.073.829 1.256l.712-.4-.065-.117c-.244-.025-.325-.085-.512-.4l-.56-.93c-.371-.576-.598-.725-1.067-.691.256-.584.228-.99-.102-1.579-.386-.687-.917-.98-1.541-.87zm-14.725 2.41l-1.397 5.823.64.154 1.398-5.823zm14.814-1.717c.35-.055.643.133.888.57.347.617.234 1.063-.362 1.398l-1.338.751-.996-1.774 1.44-.808c.129-.073.251-.118.368-.137zm-12.378 2.224l-.172 5.986.667.019.078-2.71 2.4.07.021-.725-2.4-.07.052-1.825 2.726.078.02-.725zm6.55-.7c-.082.011-.165.026-.249.047-1.53.377-2.02 1.941-1.599 3.65.405 1.643 1.563 2.853 3.077 2.48 1.514-.374 1.976-1.983 1.57-3.627-.42-1.707-1.557-2.703-2.798-2.55zm.098.72c.9-.105 1.712.673 2.036 1.986.35 1.417-.083 2.52-1.08 2.766-.995.245-1.89-.53-2.238-1.939-.355-1.441.072-2.526 1.1-2.78.061-.015.122-.025.182-.032z" fill="#435871" fill-opacity=".798" stroke-width=".284"/></svg>