<svg xmlns="http://www.w3.org/2000/svg" xmlns:xlink="http://www.w3.org/1999/xlink" height="128" viewBox="0 0 128 128" width="128"><defs><linearGradient id="b"><stop offset="0" stop-color="#fff"/><stop offset="1" stop-color="#eae9e9"/></linearGradient><linearGradient id="c"><stop offset="0" stop-color="#010204"/><stop offset=".888" stop-color="#201721"/><stop offset="1" stop-color="#2e1538"/></linearGradient><linearGradient id="a"><stop offset="0" stop-color="#cfe6ec"/><stop offset="1" stop-color="#747472"/></linearGradient><linearGradient xlink:href="#a" id="d" gradientUnits="userSpaceOnUse" x1="68.619" y1="7.411" x2="68.619" y2="123.616"/><radialGradient xlink:href="#c" id="e" cx="64.614" cy="64.171" fx="64.614" fy="64.171" r="57.029" gradientUnits="userSpaceOnUse"/></defs><path style="line-height:normal;text-indent:0;text-align:start;text-decoration-line:none;text-decoration-style:solid;text-decoration-color:#000;text-transform:none;block-progression:tb;isolation:auto;mix-blend-mode:normal" d="M64.613 1.488c-34.585 0-62.681 28.098-62.681 62.684 0 34.585 28.096 62.682 62.681 62.682 34.586 0 62.684-28.097 62.684-62.682 0-34.586-28.098-62.684-62.684-62.684z" color="#000" font-weight="400" font-family="sans-serif" white-space="normal" overflow="visible" fill="url(#d)" stroke-width="5.612"/><circle cy="64.171" cx="64.614" r="57.029" fill="url(#e)" stroke-width="5.612"/><path d="M104.012 33.699c-4.748-5.856-11.95-9.635-19.475-10.182-12.9-1.238-25.786 7.755-29.131 20.26 3.407 6.18 3.06 14.159-.796 20.058-5.03 8.24-16.469 11.502-25.094 7.175-8.82-3.923-13.54-14.851-10.35-23.96.068-.208.138-.415.209-.622-2.698 7.041-2.37 15.17.92 21.96 5.377 11.79 19.608 18.453 32.11 15.099 3.65-6.041 10.732-9.73 17.77-9.34 9.648.235 18.194 8.51 18.759 18.144 1.014 9.598-6.09 19.15-15.575 20.942-.215.046-.429.09-.644.132 7.447-1.184 14.322-5.533 18.559-11.778 7.523-10.55 6.178-26.208-2.978-35.356-2.976-.06-5.893-.859-8.512-2.232-.092-.048-.183-.095-.274-.144-.022-.011-.04-.023-.062-.033a19.623 19.623 0 0 1-3.7-2.605c-.011-.01-.024-.019-.034-.032-.11-.097-.218-.198-.326-.3a19.238 19.238 0 0 1-4.066-5.374c-1.77-3.246-2.433-6.941-2.13-10.564.013-.16.029-.322.045-.482l.028-.254a19.82 19.82 0 0 1 1.896-6.483c.098-.202.2-.402.304-.602.007-.009.011-.021.017-.03 1.45-2.752 3.532-5.163 6.175-6.903 2.933-2.132 6.432-3.27 9.993-3.47a19.873 19.873 0 0 1 6.843.77c.203.06.405.122.606.187.037.013.078.024.116.037 3.2 1.05 6.131 2.895 8.365 5.492.043.05.088.097.13.147l.304.342z" fill="#fff" fill-opacity=".068" stroke-width=".248"/><path d="M65.434 23.903c-6.34.172-12.551 3.046-16.768 7.79-7.43 7.979-8.024 21.187-1.388 29.822 5.871.89 11.02 5.206 12.985 10.801 2.926 7.577-.752 16.885-8.057 20.428-7.135 3.88-16.848 1.437-21.296-5.356-.105-.152-.207-.305-.31-.458 3.321 5.407 8.917 9.349 15.134 10.629 10.625 2.446 22.36-3.645 26.521-13.71-2.165-5.529-1.002-12.146 2.862-16.645 5.097-6.322 14.997-7.791 21.718-3.236 6.928 4.237 9.669 13.871 6.009 21.121-.08.167-.16.332-.242.497 3.023-5.578 3.639-12.395 1.638-18.42-3.193-10.425-14.335-17.543-25.131-16.114-1.563 1.956-3.59 3.495-5.848 4.54-.079.037-.157.074-.237.11l-.053.024a16.51 16.51 0 0 1-3.634 1.137c-.012.002-.025.006-.038.006-.122.024-.245.044-.367.064a16.185 16.185 0 0 1-5.67-.036c-3.074-.48-5.88-1.93-8.144-3.987-.101-.09-.2-.184-.3-.277l-.154-.148a16.676 16.676 0 0 1-3.358-4.586c-.085-.168-.166-.339-.246-.51-.003-.01-.01-.019-.012-.028-1.095-2.376-1.639-5.001-1.447-7.656.077-3.05 1.11-5.97 2.799-8.45a16.72 16.72 0 0 1 4.018-4.173c.143-.106.289-.209.435-.31.027-.018.056-.04.084-.058 2.34-1.599 5.072-2.612 7.95-2.773.054-.003.11-.01.164-.012l.384-.028z" fill="#fff" stroke-width=".208"/><path d="M121.56 61.84a57.03 57.03 0 0 1-56.947 55.36A57.03 57.03 0 0 1 7.668 62.51a57.03 57.03 0 0 0-.082 1.662 57.03 57.03 0 0 0 57.027 57.027 57.03 57.03 0 0 0 57.032-57.027 57.03 57.03 0 0 0-.084-2.332z" fill="#fff" fill-opacity=".204" stroke-width="5.612"/><path d="M121.56 66.2a57.03 57.03 0 0 0-56.947-55.36A57.03 57.03 0 0 0 7.668 65.53a57.03 57.03 0 0 1-.082-1.663A57.03 57.03 0 0 1 64.613 6.84a57.03 57.03 0 0 1 57.032 57.027 57.03 57.03 0 0 1-.084 2.332z" fill-opacity=".99" stroke-width="5.612"/><path d="M65.75 28.476c-5.558.15-11.004 2.67-14.701 6.83-6.515 6.995-7.035 18.575-1.217 26.146 5.148.78 9.663 4.564 11.385 9.47 2.565 6.642-.66 14.803-7.064 17.91-6.255 3.401-14.771 1.26-18.671-4.697-.092-.133-.181-.267-.271-.401 2.911 4.74 7.817 8.196 13.267 9.318 9.316 2.145 19.604-3.195 23.253-12.019-1.898-4.848-.879-10.65 2.508-14.594 4.47-5.542 13.15-6.83 19.042-2.837 6.074 3.715 8.476 12.162 5.268 18.518l-.212.436c2.65-4.891 3.19-10.868 1.436-16.15-2.8-9.14-12.568-15.38-22.033-14.128-1.37 1.716-3.148 3.064-5.128 3.98-.069.033-.137.066-.207.097l-.047.021a14.475 14.475 0 0 1-3.186.997c-.01.002-.021.005-.033.005a14.19 14.19 0 0 1-5.293.024c-2.695-.42-5.156-1.691-7.14-3.495-.089-.08-.176-.161-.262-.243-.046-.043-.092-.086-.136-.13a14.62 14.62 0 0 1-2.944-4.02 15.419 15.419 0 0 1-.216-.448c-.003-.008-.008-.016-.01-.024-.96-2.083-1.437-4.385-1.27-6.712.069-2.674.974-5.233 2.455-7.408a14.66 14.66 0 0 1 3.523-3.66c.125-.092.253-.182.381-.27l.074-.052c2.051-1.401 4.446-2.29 6.969-2.431.049-.003.096-.008.145-.01l.336-.025z" fill="#583a61" fill-opacity=".23" stroke-width=".183"/></svg>