<svg xmlns="http://www.w3.org/2000/svg" height="48" viewBox="0 0 44.999999 44.999999" width="48"><defs><linearGradient id="e"><stop offset="0"/><stop offset="1" stop-opacity="0"/></linearGradient><linearGradient id="d"><stop offset="0" stop-color="#176875"/><stop offset="1" stop-color="#186a77"/></linearGradient><linearGradient id="b"><stop offset="0" stop-color="#b6b6b6"/><stop offset=".482" stop-color="#fff"/><stop offset="1" stop-color="#cfcfcf"/></linearGradient><linearGradient id="a"><stop offset="0" stop-color="#165dc2"/><stop offset="1" stop-color="#1680c2"/></linearGradient><linearGradient id="c"><stop offset="0" stop-color="#d0611f"/><stop offset="1" stop-color="#f77a2c"/></linearGradient><filter id="f" x="-.013" width="1.027" y="-.011" height="1.022" color-interpolation-filters="sRGB"><feGaussianBlur stdDeviation=".17"/></filter></defs><g transform="translate(0 -3)" color="#000"><path d="M37.5 21.576s1.768 22.674-2.828 22.674c-3.775 0-.6-9.375-4.672-9.375-5.77 0-1.333 9.375-7.5 9.375-4.888 0-2.19-9.375-6.722-9.375-4.312 0-1.845 9.375-5.237 9.375-4.675 0-2.692-15.475-2.692-22.674 0-8.188 6.638-14.826 14.825-14.826 8.188 0 14.826 6.638 14.826 14.826z" style="isolation:auto;mix-blend-mode:normal;marker:none" display="block" overflow="visible" fill="none" stroke="#000" stroke-width=".937" stroke-opacity=".147" enable-background="accumulate" filter="url(#f)"/><path style="isolation:auto;mix-blend-mode:normal;marker:none" d="M37.5 21.576s1.768 22.674-2.828 22.674c-3.775 0-.6-9.375-4.672-9.375-5.77 0-1.333 9.375-7.5 9.375-4.888 0-2.19-9.375-6.722-9.375-4.312 0-1.845 9.375-5.237 9.375-4.675 0-2.692-15.475-2.692-22.674 0-8.188 6.638-14.826 14.825-14.826 8.188 0 14.826 6.638 14.826 14.826z" display="block" overflow="visible" fill="#4cd798" fill-opacity=".963" stroke-width=".094" stroke-opacity=".52" enable-background="accumulate"/><circle style="isolation:auto;mix-blend-mode:normal;marker:none" cx="29.063" cy="21.75" r="3.75" display="block" overflow="visible" fill="#e0f8ea" stroke-width=".094" stroke-opacity=".52" enable-background="accumulate"/><circle r="3.75" cy="21.75" cx="15.938" style="isolation:auto;mix-blend-mode:normal;marker:none" display="block" overflow="visible" fill="#e0f8ea" stroke-width=".094" stroke-opacity=".52" enable-background="accumulate"/><circle r="1.406" cy="21.281" cx="30.469" style="isolation:auto;mix-blend-mode:normal;marker:none" display="block" overflow="visible" fill="#020905" stroke-width=".069" stroke-opacity=".52" enable-background="accumulate"/><circle style="isolation:auto;mix-blend-mode:normal;marker:none" cx="17.344" cy="21.281" r="1.406" display="block" overflow="visible" fill="#020905" stroke-width=".069" stroke-opacity=".52" enable-background="accumulate"/></g></svg>