<svg xmlns="http://www.w3.org/2000/svg" xmlns:xlink="http://www.w3.org/1999/xlink" height="128" viewBox="0 0 128 128" width="128"><defs><linearGradient id="e"><stop offset="0"/><stop offset="1" stop-opacity="0"/></linearGradient><linearGradient id="d"><stop offset="0" stop-color="#176875"/><stop offset="1" stop-color="#186a77"/></linearGradient><linearGradient id="b"><stop offset="0" stop-color="#b6b6b6"/><stop offset=".482" stop-color="#fff"/><stop offset="1" stop-color="#cfcfcf"/></linearGradient><linearGradient id="a"><stop offset="0" stop-color="#165dc2"/><stop offset="1" stop-color="#1680c2"/></linearGradient><linearGradient id="c"><stop offset="0" stop-color="#d0611f"/><stop offset="1" stop-color="#f77a2c"/></linearGradient><linearGradient xlink:href="#f" id="o" x1="22.321" y1="1088.615" x2="22.321" y2="1059.358" gradientUnits="userSpaceOnUse" gradientTransform="matrix(1.90477 0 0 1.90477 49.058 -2074.01)"/><linearGradient id="f"><stop offset="0" stop-color="#0079e6"/><stop offset="1" stop-color="#3699ed"/></linearGradient><linearGradient x1="12.938" y1="8.438" x2="15.25" y2="19.813" id="n" xlink:href="#g" gradientUnits="userSpaceOnUse" gradientTransform="matrix(2.8118 0 0 3.42858 -3.238 -80.355)"/><linearGradient id="g"><stop offset="0" stop-color="#fff" stop-opacity=".183"/><stop offset="1" stop-color="#fff" stop-opacity="0"/></linearGradient><linearGradient x1="15.689" y1="46.435" x2="23.578" y2="46.971" id="l" xlink:href="#g" gradientUnits="userSpaceOnUse" gradientTransform="matrix(2.91557 0 0 2.5397 -4.744 -87.93)" spreadMethod="reflect"/><linearGradient x1="361.106" y1="87.05" x2="361.106" y2="94.396" id="k" xlink:href="#h" gradientUnits="userSpaceOnUse" gradientTransform="matrix(2.49745 0 0 2.5404 -830.506 -206.797)"/><linearGradient id="h"><stop offset="0" stop-color="#787878"/><stop offset=".35" stop-color="#bebebe"/><stop offset=".494" stop-color="#c8c8c8"/><stop offset=".589" stop-color="#e6e6e6"/><stop offset="1" stop-color="#8c8c8c"/></linearGradient><linearGradient id="i"><stop offset="0" stop-color="#464646"/><stop offset=".35" stop-color="#8c8c8c"/><stop offset=".51" stop-color="#969696"/><stop offset=".62" stop-color="#aaa"/><stop offset="1" stop-color="#646464"/></linearGradient><radialGradient cx="6.703" cy="73.616" r="7.228" fx="6.703" fy="73.616" id="j" xlink:href="#e" gradientUnits="userSpaceOnUse" gradientTransform="matrix(4.91888 0 0 .46507 32.614 3.897)"/><linearGradient xlink:href="#i" id="m" gradientUnits="userSpaceOnUse" gradientTransform="matrix(2.50645 0 0 2.54003 -91.4 -77.224)" x1="61.969" y1="35.944" x2="61.969" y2="43.378"/></defs><path d="M5.711 7.055H122.29c1.502 0 2.711 1.16 2.711 2.602v80.839c0 1.441-1.21 2.601-2.711 2.601H5.71C4.21 93.097 3 91.937 3 90.496V9.656c0-1.44 1.21-2.6 2.711-2.6z" fill-opacity=".079" stroke-width="1.392" stroke-linecap="round" stroke-linejoin="round" stroke-dashoffset=".5"/><path style="marker:none" d="M101.14 38.134c0 1.857-15.919 3.362-35.556 3.362-19.637 0-35.556-1.505-35.556-3.362 0-1.856 15.92-3.362 35.556-3.362 19.637 0 35.556 1.506 35.556 3.362z" overflow="visible" opacity=".3" fill="url(#j)" stroke-width="2.182" transform="translate(0 80)"/><path style="marker:none" d="M48.61 11.312s.354 11.815-1.418 14.335c-1.772 2.521-5.299 2.551-5.299 2.551-2.263.266-2.282 5.07 0 5.07h44.214c2.282 0 2.263-4.808 0-5.07 0 0-3.527-.04-5.3-2.55-1.771-2.521-1.416-14.336-1.416-14.336z" overflow="visible" fill="url(#k)" stroke-width="1.267" stroke-linecap="round" stroke-linejoin="round" stroke-dashoffset=".5" transform="translate(0 80)"/><path style="line-height:normal;font-variant-ligatures:normal;font-variant-position:normal;font-variant-caps:normal;font-variant-numeric:normal;font-variant-alternates:normal;font-feature-settings:normal;text-indent:0;text-align:start;text-decoration-line:none;text-decoration-style:solid;text-decoration-color:#000;text-transform:none;text-orientation:mixed;shape-padding:0;isolation:auto;mix-blend-mode:normal" d="M41.168 30.408v1.906h45.664v-1.906H42.121z" color="#000" font-weight="400" font-family="sans-serif" white-space="normal" overflow="visible" fill="url(#l)" stroke-width="1.905" stroke-linecap="square" transform="translate(0 80)"/><path style="line-height:normal;font-variant-ligatures:normal;font-variant-position:normal;font-variant-caps:normal;font-variant-numeric:normal;font-variant-alternates:normal;font-feature-settings:normal;text-indent:0;text-align:start;text-decoration-line:none;text-decoration-style:solid;text-decoration-color:#000;text-transform:none;text-orientation:mixed;shape-padding:0;isolation:auto;mix-blend-mode:normal;marker:none" d="M48.61 9.678a.634.634 0 0 0-.633.654s.086 4.684-.045 7.674c-.066 1.495-.187 3.066-.397 4.396-.21 1.33-.546 2.434-.861 2.881-1.546 2.2-4.785 2.281-4.785 2.281a.634.634 0 0 0-.07.004c-.786.093-1.392.604-1.749 1.215-.356.612-.514 1.335-.515 2.049-.002.714.15 1.427.52 2.018.368.59 1.025 1.052 1.818 1.052h44.214c.793 0 1.45-.464 1.819-1.054.368-.59.52-1.303.52-2.018-.002-.714-.16-1.437-.516-2.049-.357-.611-.965-1.122-1.75-1.213a.614.614 0 0 0-.067-.004s-3.241-.093-4.787-2.283c-.314-.448-.651-1.55-.861-2.879-.21-1.33-.33-2.901-.397-4.396-.131-2.99-.045-7.674-.045-7.674a.634.634 0 0 0-.632-.654zm.626 1.267h29.526c-.015.52-.08 4.415.039 7.117.067 1.524.19 3.13.412 4.538.222 1.406.505 2.599 1.076 3.412l.002.002c1.999 2.832 5.809 2.818 5.809 2.818l-.067-.004c.346.04.59.228.803.592.212.364.34.892.342 1.412 0 .52-.13 1.027-.328 1.346-.2.319-.395.457-.743.457H41.893c-.349 0-.544-.138-.743-.457-.199-.319-.329-.824-.328-1.344.001-.52.13-1.048.342-1.412.212-.364.457-.553.803-.594l-.069.004s3.814.022 5.813-2.82c.571-.813.854-2.006 1.076-3.412.222-1.407.343-3.014.41-4.537.12-2.703.054-6.597.04-7.118z" color="#000" font-weight="400" font-family="sans-serif" white-space="normal" overflow="visible" fill="url(#m)" stroke-width="1.267" stroke-linecap="round" stroke-linejoin="round" stroke-dashoffset=".5" transform="translate(0 80)"/><path d="M6.667 8h114.666C122.811 8 124 9.133 124 10.54v78.92c0 1.407-1.19 2.54-2.667 2.54H6.667C5.189 92 4 90.867 4 89.46V10.54C4 9.133 5.19 8 6.667 8z" fill="#e7e7e7" stroke-width="1.364" stroke-linecap="round" stroke-linejoin="round" stroke-dashoffset=".5"/><path d="M10.666 15.17h106.668v70.477H10.666z" fill="#404a50" fill-rule="evenodd" stroke-width="2.727"/><path d="M8-68h112v25L8-2z" opacity=".666" fill="url(#n)" stroke-width="2.727" transform="translate(0 80)"/><path d="M8-68h112V8H8z" fill="url(#o)" stroke-width="1.905" transform="translate(0 80)"/><path style="isolation:auto;mix-blend-mode:normal;marker:none" d="M15.6 48h96.8c1.994 0 3.6 1.606 3.6 3.6v28.8c0 1.994-1.606 3.6-3.6 3.6H15.6a3.592 3.592 0 0 1-3.6-3.6V51.6c0-1.994 1.606-3.6 3.6-3.6z" color="#000" overflow="visible" fill="#fff" fill-opacity=".542" stroke-width="8.985" stroke-linecap="square" stroke-dashoffset="20" stroke-opacity=".963"/><path style="isolation:auto;mix-blend-mode:normal;marker:none" d="M16.792 53h4.416C22.2 53 23 53.8 23 54.792v4.416C23 60.2 22.2 61 21.208 61h-4.416C15.8 61 15 60.2 15 59.208v-4.416C15 53.8 15.8 53 16.792 53z" color="#000" display="block" overflow="visible" fill="#192582" fill-opacity=".326" stroke-width="2.52" stroke-linecap="square" stroke-dashoffset="20" stroke-opacity=".963"/><path style="isolation:auto;mix-blend-mode:normal;marker:none" d="M16.792 52h4.416C22.2 52 23 52.8 23 53.792v4.416C23 59.2 22.2 60 21.208 60h-4.416C15.8 60 15 59.2 15 58.208v-4.416C15 52.8 15.8 52 16.792 52z" color="#000" display="block" overflow="visible" fill="#fff" fill-opacity=".979" stroke-width="2.52" stroke-linecap="square" stroke-dashoffset="20" stroke-opacity=".963"/><path style="isolation:auto;mix-blend-mode:normal;marker:none" d="M16.792 63h4.416C22.2 63 23 63.8 23 64.792v4.416C23 70.2 22.2 71 21.208 71h-4.416C15.8 71 15 70.2 15 69.208v-4.416C15 63.8 15.8 63 16.792 63z" color="#000" display="block" overflow="visible" fill="#192582" fill-opacity=".326" stroke-width="2.52" stroke-linecap="square" stroke-dashoffset="20" stroke-opacity=".963"/><path style="isolation:auto;mix-blend-mode:normal;marker:none" d="M16.792 62h4.416C22.2 62 23 62.8 23 63.792v4.416C23 69.2 22.2 70 21.208 70h-4.416C15.8 70 15 69.2 15 68.208v-4.416C15 62.8 15.8 62 16.792 62z" color="#000" display="block" overflow="visible" fill="#fff" fill-opacity=".979" stroke-width="2.52" stroke-linecap="square" stroke-dashoffset="20" stroke-opacity=".963"/><path style="isolation:auto;mix-blend-mode:normal;marker:none" d="M16.792 73h4.416C22.2 73 23 73.8 23 74.792v4.416C23 80.2 22.2 81 21.208 81h-4.416C15.8 81 15 80.2 15 79.208v-4.416C15 73.8 15.8 73 16.792 73z" color="#000" display="block" overflow="visible" fill="#192582" fill-opacity=".326" stroke-width="2.52" stroke-linecap="square" stroke-dashoffset="20" stroke-opacity=".963"/><path style="isolation:auto;mix-blend-mode:normal;marker:none" d="M16.792 72h4.416C22.2 72 23 72.8 23 73.792v4.416C23 79.2 22.2 80 21.208 80h-4.416C15.8 80 15 79.2 15 78.208v-4.416C15 72.8 15.8 72 16.792 72z" color="#000" display="block" overflow="visible" fill="#fff" fill-opacity=".979" stroke-width="2.52" stroke-linecap="square" stroke-dashoffset="20" stroke-opacity=".963"/><path style="isolation:auto;mix-blend-mode:normal;marker:none" d="M26.792 53h4.416C32.2 53 33 53.8 33 54.792v4.416C33 60.2 32.2 61 31.208 61h-4.416C25.8 61 25 60.2 25 59.208v-4.416C25 53.8 25.8 53 26.792 53z" color="#000" display="block" overflow="visible" fill="#192582" fill-opacity=".326" stroke-width="2.52" stroke-linecap="square" stroke-dashoffset="20" stroke-opacity=".963"/><path style="isolation:auto;mix-blend-mode:normal;marker:none" d="M26.792 52h4.416C32.2 52 33 52.8 33 53.792v4.416C33 59.2 32.2 60 31.208 60h-4.416C25.8 60 25 59.2 25 58.208v-4.416C25 52.8 25.8 52 26.792 52z" color="#000" display="block" overflow="visible" fill="#fff" fill-opacity=".979" stroke-width="2.52" stroke-linecap="square" stroke-dashoffset="20" stroke-opacity=".963"/><path style="isolation:auto;mix-blend-mode:normal;marker:none" d="M26.792 63h4.416C32.2 63 33 63.8 33 64.792v4.416C33 70.2 32.2 71 31.208 71h-4.416C25.8 71 25 70.2 25 69.208v-4.416C25 63.8 25.8 63 26.792 63z" color="#000" display="block" overflow="visible" fill="#192582" fill-opacity=".326" stroke-width="2.52" stroke-linecap="square" stroke-dashoffset="20" stroke-opacity=".963"/><path style="isolation:auto;mix-blend-mode:normal;marker:none" d="M26.792 62h4.416C32.2 62 33 62.8 33 63.792v4.416C33 69.2 32.2 70 31.208 70h-4.416C25.8 70 25 69.2 25 68.208v-4.416C25 62.8 25.8 62 26.792 62z" color="#000" display="block" overflow="visible" fill="#fff" fill-opacity=".979" stroke-width="2.52" stroke-linecap="square" stroke-dashoffset="20" stroke-opacity=".963"/><path style="isolation:auto;mix-blend-mode:normal;marker:none" d="M26.792 73h74.416c.993 0 1.792.8 1.792 1.792v4.416c0 .993-.8 1.792-1.792 1.792H26.792C25.8 81 25 80.2 25 79.208v-4.416C25 73.8 25.8 73 26.792 73z" color="#000" display="block" overflow="visible" fill="#192582" fill-opacity=".326" stroke-width="7.868" stroke-linecap="square" stroke-dashoffset="20" stroke-opacity=".963"/><path style="isolation:auto;mix-blend-mode:normal;marker:none" d="M26.792 72h74.416c.993 0 1.792.8 1.792 1.792v4.416c0 .993-.8 1.792-1.792 1.792H26.792C25.8 80 25 79.2 25 78.208v-4.416C25 72.8 25.8 72 26.792 72z" color="#000" display="block" overflow="visible" fill="#fff" fill-opacity=".979" stroke-width="7.868" stroke-linecap="square" stroke-dashoffset="20" stroke-opacity=".963"/><path style="isolation:auto;mix-blend-mode:normal;marker:none" d="M36.792 53h4.416C42.2 53 43 53.8 43 54.792v4.416C43 60.2 42.2 61 41.208 61h-4.416C35.8 61 35 60.2 35 59.208v-4.416C35 53.8 35.8 53 36.792 53z" color="#000" display="block" overflow="visible" fill="#192582" fill-opacity=".326" stroke-width="2.52" stroke-linecap="square" stroke-dashoffset="20" stroke-opacity=".963"/><path style="isolation:auto;mix-blend-mode:normal;marker:none" d="M36.792 52h4.416C42.2 52 43 52.8 43 53.792v4.416C43 59.2 42.2 60 41.208 60h-4.416C35.8 60 35 59.2 35 58.208v-4.416C35 52.8 35.8 52 36.792 52z" color="#000" display="block" overflow="visible" fill="#fff" fill-opacity=".979" stroke-width="2.52" stroke-linecap="square" stroke-dashoffset="20" stroke-opacity=".963"/><path style="isolation:auto;mix-blend-mode:normal;marker:none" d="M36.792 63h4.416C42.2 63 43 63.8 43 64.792v4.416C43 70.2 42.2 71 41.208 71h-4.416C35.8 71 35 70.2 35 69.208v-4.416C35 63.8 35.8 63 36.792 63z" color="#000" display="block" overflow="visible" fill="#192582" fill-opacity=".326" stroke-width="2.52" stroke-linecap="square" stroke-dashoffset="20" stroke-opacity=".963"/><path style="isolation:auto;mix-blend-mode:normal;marker:none" d="M36.792 62h4.416C42.2 62 43 62.8 43 63.792v4.416C43 69.2 42.2 70 41.208 70h-4.416C35.8 70 35 69.2 35 68.208v-4.416C35 62.8 35.8 62 36.792 62z" color="#000" display="block" overflow="visible" fill="#fff" fill-opacity=".979" stroke-width="2.52" stroke-linecap="square" stroke-dashoffset="20" stroke-opacity=".963"/><path style="isolation:auto;mix-blend-mode:normal;marker:none" d="M46.792 53h4.416C52.2 53 53 53.8 53 54.792v4.416C53 60.2 52.2 61 51.208 61h-4.416C45.8 61 45 60.2 45 59.208v-4.416C45 53.8 45.8 53 46.792 53z" color="#000" display="block" overflow="visible" fill="#192582" fill-opacity=".326" stroke-width="2.52" stroke-linecap="square" stroke-dashoffset="20" stroke-opacity=".963"/><path style="isolation:auto;mix-blend-mode:normal;marker:none" d="M46.792 52h4.416C52.2 52 53 52.8 53 53.792v4.416C53 59.2 52.2 60 51.208 60h-4.416C45.8 60 45 59.2 45 58.208v-4.416C45 52.8 45.8 52 46.792 52z" color="#000" display="block" overflow="visible" fill="#fff" fill-opacity=".979" stroke-width="2.52" stroke-linecap="square" stroke-dashoffset="20" stroke-opacity=".963"/><path style="isolation:auto;mix-blend-mode:normal;marker:none" d="M46.792 63h4.416C52.2 63 53 63.8 53 64.792v4.416C53 70.2 52.2 71 51.208 71h-4.416C45.8 71 45 70.2 45 69.208v-4.416C45 63.8 45.8 63 46.792 63z" color="#000" display="block" overflow="visible" fill="#192582" fill-opacity=".326" stroke-width="2.52" stroke-linecap="square" stroke-dashoffset="20" stroke-opacity=".963"/><path style="isolation:auto;mix-blend-mode:normal;marker:none" d="M46.792 62h4.416C52.2 62 53 62.8 53 63.792v4.416C53 69.2 52.2 70 51.208 70h-4.416C45.8 70 45 69.2 45 68.208v-4.416C45 62.8 45.8 62 46.792 62z" color="#000" display="block" overflow="visible" fill="#fff" fill-opacity=".979" stroke-width="2.52" stroke-linecap="square" stroke-dashoffset="20" stroke-opacity=".963"/><path style="isolation:auto;mix-blend-mode:normal;marker:none" d="M56.792 53h4.416C62.2 53 63 53.8 63 54.792v4.416C63 60.2 62.2 61 61.208 61h-4.416C55.8 61 55 60.2 55 59.208v-4.416C55 53.8 55.8 53 56.792 53z" color="#000" display="block" overflow="visible" fill="#192582" fill-opacity=".326" stroke-width="2.52" stroke-linecap="square" stroke-dashoffset="20" stroke-opacity=".963"/><path style="isolation:auto;mix-blend-mode:normal;marker:none" d="M56.792 52h4.416C62.2 52 63 52.8 63 53.792v4.416C63 59.2 62.2 60 61.208 60h-4.416C55.8 60 55 59.2 55 58.208v-4.416C55 52.8 55.8 52 56.792 52z" color="#000" display="block" overflow="visible" fill="#fff" fill-opacity=".979" stroke-width="2.52" stroke-linecap="square" stroke-dashoffset="20" stroke-opacity=".963"/><path style="isolation:auto;mix-blend-mode:normal;marker:none" d="M56.792 63h4.416C62.2 63 63 63.8 63 64.792v4.416C63 70.2 62.2 71 61.208 71h-4.416C55.8 71 55 70.2 55 69.208v-4.416C55 63.8 55.8 63 56.792 63z" color="#000" display="block" overflow="visible" fill="#192582" fill-opacity=".326" stroke-width="2.52" stroke-linecap="square" stroke-dashoffset="20" stroke-opacity=".963"/><path style="isolation:auto;mix-blend-mode:normal;marker:none" d="M56.792 62h4.416C62.2 62 63 62.8 63 63.792v4.416C63 69.2 62.2 70 61.208 70h-4.416C55.8 70 55 69.2 55 68.208v-4.416C55 62.8 55.8 62 56.792 62z" color="#000" display="block" overflow="visible" fill="#fff" fill-opacity=".979" stroke-width="2.52" stroke-linecap="square" stroke-dashoffset="20" stroke-opacity=".963"/><path style="isolation:auto;mix-blend-mode:normal;marker:none" d="M66.792 53h4.416C72.2 53 73 53.8 73 54.792v4.416C73 60.2 72.2 61 71.208 61h-4.416C65.8 61 65 60.2 65 59.208v-4.416C65 53.8 65.8 53 66.792 53z" color="#000" display="block" overflow="visible" fill="#192582" fill-opacity=".326" stroke-width="2.52" stroke-linecap="square" stroke-dashoffset="20" stroke-opacity=".963"/><path style="isolation:auto;mix-blend-mode:normal;marker:none" d="M66.792 52h4.416C72.2 52 73 52.8 73 53.792v4.416C73 59.2 72.2 60 71.208 60h-4.416C65.8 60 65 59.2 65 58.208v-4.416C65 52.8 65.8 52 66.792 52z" color="#000" display="block" overflow="visible" fill="#fff" fill-opacity=".979" stroke-width="2.52" stroke-linecap="square" stroke-dashoffset="20" stroke-opacity=".963"/><path style="isolation:auto;mix-blend-mode:normal;marker:none" d="M66.792 63h4.416C72.2 63 73 63.8 73 64.792v4.416C73 70.2 72.2 71 71.208 71h-4.416C65.8 71 65 70.2 65 69.208v-4.416C65 63.8 65.8 63 66.792 63z" color="#000" display="block" overflow="visible" fill="#192582" fill-opacity=".326" stroke-width="2.52" stroke-linecap="square" stroke-dashoffset="20" stroke-opacity=".963"/><path style="isolation:auto;mix-blend-mode:normal;marker:none" d="M66.792 62h4.416C72.2 62 73 62.8 73 63.792v4.416C73 69.2 72.2 70 71.208 70h-4.416C65.8 70 65 69.2 65 68.208v-4.416C65 62.8 65.8 62 66.792 62z" color="#000" display="block" overflow="visible" fill="#fff" fill-opacity=".979" stroke-width="2.52" stroke-linecap="square" stroke-dashoffset="20" stroke-opacity=".963"/><path style="isolation:auto;mix-blend-mode:normal;marker:none" d="M76.792 53h4.416C82.2 53 83 53.8 83 54.792v4.416C83 60.2 82.2 61 81.208 61h-4.416C75.8 61 75 60.2 75 59.208v-4.416C75 53.8 75.8 53 76.792 53z" color="#000" display="block" overflow="visible" fill="#192582" fill-opacity=".326" stroke-width="2.52" stroke-linecap="square" stroke-dashoffset="20" stroke-opacity=".963"/><path style="isolation:auto;mix-blend-mode:normal;marker:none" d="M76.792 52h4.416C82.2 52 83 52.8 83 53.792v4.416C83 59.2 82.2 60 81.208 60h-4.416C75.8 60 75 59.2 75 58.208v-4.416C75 52.8 75.8 52 76.792 52z" color="#000" display="block" overflow="visible" fill="#fff" fill-opacity=".979" stroke-width="2.52" stroke-linecap="square" stroke-dashoffset="20" stroke-opacity=".963"/><path style="isolation:auto;mix-blend-mode:normal;marker:none" d="M76.792 63h4.416C82.2 63 83 63.8 83 64.792v4.416C83 70.2 82.2 71 81.208 71h-4.416C75.8 71 75 70.2 75 69.208v-4.416C75 63.8 75.8 63 76.792 63z" color="#000" display="block" overflow="visible" fill="#192582" fill-opacity=".326" stroke-width="2.52" stroke-linecap="square" stroke-dashoffset="20" stroke-opacity=".963"/><path style="isolation:auto;mix-blend-mode:normal;marker:none" d="M76.792 62h4.416C82.2 62 83 62.8 83 63.792v4.416C83 69.2 82.2 70 81.208 70h-4.416C75.8 70 75 69.2 75 68.208v-4.416C75 62.8 75.8 62 76.792 62z" color="#000" display="block" overflow="visible" fill="#fff" fill-opacity=".979" stroke-width="2.52" stroke-linecap="square" stroke-dashoffset="20" stroke-opacity=".963"/><path style="isolation:auto;mix-blend-mode:normal;marker:none" d="M86.792 53h4.416C92.2 53 93 53.8 93 54.792v4.416C93 60.2 92.2 61 91.208 61h-4.416C85.8 61 85 60.2 85 59.208v-4.416C85 53.8 85.8 53 86.792 53z" color="#000" display="block" overflow="visible" fill="#192582" fill-opacity=".326" stroke-width="2.52" stroke-linecap="square" stroke-dashoffset="20" stroke-opacity=".963"/><path style="isolation:auto;mix-blend-mode:normal;marker:none" d="M86.792 52h4.416C92.2 52 93 52.8 93 53.792v4.416C93 59.2 92.2 60 91.208 60h-4.416C85.8 60 85 59.2 85 58.208v-4.416C85 52.8 85.8 52 86.792 52z" color="#000" display="block" overflow="visible" fill="#fff" fill-opacity=".979" stroke-width="2.52" stroke-linecap="square" stroke-dashoffset="20" stroke-opacity=".963"/><path style="isolation:auto;mix-blend-mode:normal;marker:none" d="M86.792 63h4.416C92.2 63 93 63.8 93 64.792v4.416C93 70.2 92.2 71 91.208 71h-4.416C85.8 71 85 70.2 85 69.208v-4.416C85 63.8 85.8 63 86.792 63z" color="#000" display="block" overflow="visible" fill="#192582" fill-opacity=".326" stroke-width="2.52" stroke-linecap="square" stroke-dashoffset="20" stroke-opacity=".963"/><path style="isolation:auto;mix-blend-mode:normal;marker:none" d="M86.792 62h4.416C92.2 62 93 62.8 93 63.792v4.416C93 69.2 92.2 70 91.208 70h-4.416C85.8 70 85 69.2 85 68.208v-4.416C85 62.8 85.8 62 86.792 62z" color="#000" display="block" overflow="visible" fill="#fff" fill-opacity=".979" stroke-width="2.52" stroke-linecap="square" stroke-dashoffset="20" stroke-opacity=".963"/><path style="isolation:auto;mix-blend-mode:normal;marker:none" d="M96.792 53h4.416c.993 0 1.792.8 1.792 1.792v4.416c0 .993-.8 1.792-1.792 1.792h-4.416C95.8 61 95 60.2 95 59.208v-4.416C95 53.8 95.8 53 96.792 53z" color="#000" display="block" overflow="visible" fill="#192582" fill-opacity=".326" stroke-width="2.52" stroke-linecap="square" stroke-dashoffset="20" stroke-opacity=".963"/><path style="isolation:auto;mix-blend-mode:normal;marker:none" d="M96.792 52h4.416c.993 0 1.792.8 1.792 1.792v4.416c0 .993-.8 1.792-1.792 1.792h-4.416C95.8 60 95 59.2 95 58.208v-4.416C95 52.8 95.8 52 96.792 52z" color="#000" display="block" overflow="visible" fill="#fff" fill-opacity=".979" stroke-width="2.52" stroke-linecap="square" stroke-dashoffset="20" stroke-opacity=".963"/><path style="isolation:auto;mix-blend-mode:normal;marker:none" d="M96.792 63h4.416c.993 0 1.792.8 1.792 1.792v4.416c0 .993-.8 1.792-1.792 1.792h-4.416C95.8 71 95 70.2 95 69.208v-4.416C95 63.8 95.8 63 96.792 63z" color="#000" display="block" overflow="visible" fill="#192582" fill-opacity=".326" stroke-width="2.52" stroke-linecap="square" stroke-dashoffset="20" stroke-opacity=".963"/><path style="isolation:auto;mix-blend-mode:normal;marker:none" d="M96.792 62h4.416c.993 0 1.792.8 1.792 1.792v4.416c0 .993-.8 1.792-1.792 1.792h-4.416C95.8 70 95 69.2 95 68.208v-4.416C95 62.8 95.8 62 96.792 62z" color="#000" display="block" overflow="visible" fill="#fff" fill-opacity=".979" stroke-width="2.52" stroke-linecap="square" stroke-dashoffset="20" stroke-opacity=".963"/><path style="isolation:auto;mix-blend-mode:normal;marker:none" d="M106.792 53h4.416c.993 0 1.792.8 1.792 1.792v4.416c0 .993-.8 1.792-1.792 1.792h-4.416c-.993 0-1.792-.8-1.792-1.792v-4.416c0-.993.8-1.792 1.792-1.792z" color="#000" display="block" overflow="visible" fill="#192582" fill-opacity=".326" stroke-width="2.52" stroke-linecap="square" stroke-dashoffset="20" stroke-opacity=".963"/><path style="isolation:auto;mix-blend-mode:normal;marker:none" d="M106.792 52h4.416c.993 0 1.792.8 1.792 1.792v4.416c0 .993-.8 1.792-1.792 1.792h-4.416c-.993 0-1.792-.8-1.792-1.792v-4.416c0-.993.8-1.792 1.792-1.792z" color="#000" display="block" overflow="visible" fill="#fff" fill-opacity=".979" stroke-width="2.52" stroke-linecap="square" stroke-dashoffset="20" stroke-opacity=".963"/><path style="isolation:auto;mix-blend-mode:normal;marker:none" d="M106.792 63h4.416c.993 0 1.792.8 1.792 1.792v4.416c0 .993-.8 1.792-1.792 1.792h-4.416c-.993 0-1.792-.8-1.792-1.792v-4.416c0-.993.8-1.792 1.792-1.792z" color="#000" display="block" overflow="visible" fill="#192582" fill-opacity=".326" stroke-width="2.52" stroke-linecap="square" stroke-dashoffset="20" stroke-opacity=".963"/><path style="isolation:auto;mix-blend-mode:normal;marker:none" d="M106.792 62h4.416c.993 0 1.792.8 1.792 1.792v4.416c0 .993-.8 1.792-1.792 1.792h-4.416c-.993 0-1.792-.8-1.792-1.792v-4.416c0-.993.8-1.792 1.792-1.792z" color="#000" display="block" overflow="visible" fill="#fff" fill-opacity=".979" stroke-width="2.52" stroke-linecap="square" stroke-dashoffset="20" stroke-opacity=".963"/><path style="isolation:auto;mix-blend-mode:normal;marker:none" d="M106.792 73h4.416c.993 0 1.792.8 1.792 1.792v4.416c0 .993-.8 1.792-1.792 1.792h-4.416c-.993 0-1.792-.8-1.792-1.792v-4.416c0-.993.8-1.792 1.792-1.792z" color="#000" display="block" overflow="visible" fill="#192582" fill-opacity=".326" stroke-width="2.52" stroke-linecap="square" stroke-dashoffset="20" stroke-opacity=".963"/><path style="isolation:auto;mix-blend-mode:normal;marker:none" d="M106.792 72h4.416c.993 0 1.792.8 1.792 1.792v4.416c0 .993-.8 1.792-1.792 1.792h-4.416c-.993 0-1.792-.8-1.792-1.792v-4.416c0-.993.8-1.792 1.792-1.792z" color="#000" display="block" overflow="visible" fill="#fff" fill-opacity=".979" stroke-width="2.52" stroke-linecap="square" stroke-dashoffset="20" stroke-opacity=".963"/></svg>