<svg xmlns="http://www.w3.org/2000/svg" xmlns:xlink="http://www.w3.org/1999/xlink" width="128" height="128"><defs><linearGradient id="a"><stop offset="0" stop-color="#f55656"/><stop offset="1" stop-color="#d21847"/></linearGradient><linearGradient id="i"><stop offset="0"/><stop offset="1" stop-opacity="0"/></linearGradient><linearGradient id="c"><stop offset="0" stop-color="#bc8b3c"/><stop offset="1" stop-color="#ac7c3e"/></linearGradient><linearGradient xlink:href="#a" id="m" x1="-187.357" y1="603.809" x2="-187.357" y2="709.168" gradientUnits="userSpaceOnUse" gradientTransform="scale(1.02256) rotate(-8.45 1539.89 -903.614)"/><clipPath id="p"><path style="marker:none" d="M-229.076 1455.911v105.79c0 .888.712 2.563 1.457 2.563.09-.837-.484-1.58.627-2.564h71.881a8.77 8.77 0 0 0 8.789-8.789v-88.21a8.77 8.77 0 0 0-8.79-8.79h-73.965z" color="#000" overflow="visible" fill="url(#b)" stroke-width="4.815" stroke-linecap="round"/></clipPath><linearGradient xlink:href="#c" id="b" gradientUnits="userSpaceOnUse" gradientTransform="translate(0 852.362)" x1="-187.357" y1="603.809" x2="-187.357" y2="709.168"/><clipPath id="r"><path style="marker:none" d="M-229.076 1455.911v105.79c0 .888.712 2.563 1.457 2.563.09-.837-.484-1.58.627-2.564h71.881a8.77 8.77 0 0 0 8.789-8.789v-88.21a8.77 8.77 0 0 0-8.79-8.79h-25.605z" color="#000" overflow="visible" fill="url(#d)" stroke-width="4.815" stroke-linecap="round"/></clipPath><linearGradient xlink:href="#c" id="d" gradientUnits="userSpaceOnUse" gradientTransform="translate(0 852.362)" x1="-187.357" y1="603.809" x2="-187.357" y2="709.168"/><clipPath id="q"><path d="M-229.17 1455.897l-.159 106.018c0 .889.965 2.35 1.71 2.35.09-.838-.484-1.582.627-2.565h71.881a8.77 8.77 0 0 0 8.789-8.789v-88.21a8.77 8.77 0 0 0-8.79-8.79h-25.605z" style="marker:none" color="#000" overflow="visible" fill="url(#e)" stroke-width="4.815" stroke-linecap="round"/></clipPath><linearGradient xlink:href="#c" id="e" gradientUnits="userSpaceOnUse" gradientTransform="translate(0 852.362)" x1="-187.357" y1="603.809" x2="-187.357" y2="709.168"/><linearGradient xlink:href="#c" id="f" gradientUnits="userSpaceOnUse" gradientTransform="translate(0 852.362)" x1="-187.357" y1="603.809" x2="-187.357" y2="709.168"/><clipPath id="o"><path style="marker:none" d="M-229.076 1455.911v105.79c0 .888.712 2.563 1.457 2.563.09-.837-.484-1.58.627-2.564h71.881a8.77 8.77 0 0 0 8.789-8.789v-88.21a8.77 8.77 0 0 0-8.79-8.79h-73.965z" color="#000" overflow="visible" fill="url(#g)" stroke-width="4.815" stroke-linecap="round"/></clipPath><linearGradient xlink:href="#c" id="g" gradientUnits="userSpaceOnUse" gradientTransform="translate(0 852.362)" x1="-187.357" y1="603.809" x2="-187.357" y2="709.168"/><clipPath id="n"><path style="marker:none" d="M-229.076 1455.911v105.79c0 .888.712 2.563 1.457 2.563.09-.837-.44-1.447.67-2.43l46.232-.134h25.606a8.77 8.77 0 0 0 8.789-8.789v-88.21a8.77 8.77 0 0 0-8.79-8.79h-25.605z" color="#000" overflow="visible" fill="url(#h)" stroke-width="4.815" stroke-linecap="round"/></clipPath><linearGradient xlink:href="#c" id="h" gradientUnits="userSpaceOnUse" gradientTransform="translate(0 852.362)" x1="-187.357" y1="603.809" x2="-187.357" y2="709.168"/><linearGradient xlink:href="#i" id="l" x1="-148.998" y1="1486.071" x2="-146.601" y2="1487.58" gradientUnits="userSpaceOnUse" gradientTransform="matrix(1.02256 0 0 1.02256 253.337 -630.879)"/><linearGradient xlink:href="#i" id="k" x1="-148.998" y1="1486.071" x2="-146.601" y2="1487.58" gradientUnits="userSpaceOnUse" gradientTransform="matrix(1.02256 0 0 1.02256 256.449 -609.326)"/><linearGradient xlink:href="#i" id="j" x1="-148.998" y1="1486.071" x2="-146.601" y2="1487.58" gradientUnits="userSpaceOnUse" gradientTransform="matrix(1.02256 0 0 1.02256 259.489 -587.886)"/></defs><g transform="translate(0 -852.362)"><path d="M88.138 853.6a9.386 9.386 0 0 0-.94.092l-23.862 3.544-2.649.394-50.065 7.437 16.27 109.524c.136.92 1.132 2.545 1.903 2.43l-.002-.013 3.534.162 70.89-10.53c5.617-.834 8.632-4.546 8.115-12.435l2.975-.441.014-.004c.2-.03.394-.08.577-.144l.014-.006c.176-.063.341-.143.498-.234.032-.019.06-.042.092-.062.13-.083.255-.172.37-.272.03-.026.055-.057.084-.084.103-.098.2-.2.288-.31.035-.044.065-.09.098-.136.07-.1.135-.199.192-.306.034-.063.062-.128.092-.194a2.876 2.876 0 0 0 .222-.821c.01-.09.02-.178.022-.268 0-.037.008-.073.008-.11-.002.019-.01.037-.012.056 0-.142.003-.285-.018-.43l-2.855-19.212c-.071-.477-.268-.899-.536-1.263.014-.039.02-.08.032-.12.024-.077.046-.154.064-.234.023-.103.038-.208.05-.314.008-.076.016-.15.018-.228 0-.043.01-.084.01-.128-.002.022-.01.043-.012.064 0-.144.002-.287-.02-.433l-2.855-19.214a2.822 2.822 0 0 0-.586-1.332c.018-.045.03-.092.046-.138a2.832 2.832 0 0 0 .146-.851c0-.033.008-.064.008-.096-.002.016-.008.031-.01.048 0-.139.003-.277-.018-.418l-2.855-19.212a2.846 2.846 0 0 0-.406-1.1c.102-.37.13-.768.07-1.171l-2.855-19.212c-.237-1.596-1.752-2.685-3.396-2.441l-2.88.428-.36-2.421a9.178 9.178 0 0 0-9.51-7.84z" fill-opacity=".184" fill-rule="evenodd" stroke-width="1.047"/><path d="M29.58 975.59l3.471.158 69.257-10.288c5.76-.856 8.73-4.799 7.835-13.32l-81.584 20.326s.4 2.573.732 2.81c.332.236.288.313.288.313z" fill="#3b0c0c" fill-rule="evenodd" stroke-width="1.023"/><rect style="marker:none" width="8.897" height="24.668" x="-34.064" y="934.492" ry="2.846" rx="2.932" transform="rotate(-8.45)" color="#000" overflow="visible" fill="#dd9201" stroke-width=".108" stroke-linecap="round"/><path d="M112 930.25l-4.58 7.68-.86-6.42z" opacity=".35" fill="url(#j)" fill-rule="evenodd" stroke-width=".64"/><rect style="marker:none" width="8.897" height="24.668" x="-34.064" y="912.891" ry="2.846" rx="2.932" transform="rotate(-8.45)" color="#000" overflow="visible" fill="#05d562" stroke-width=".108" stroke-linecap="round"/><path d="M108.96 908.81l-4.58 7.68-.86-6.42z" opacity=".35" fill="url(#k)" fill-rule="evenodd" stroke-width=".64"/><rect style="marker:none" width="8.897" height="24.668" x="-34.064" y="891.162" ry="2.846" rx="2.932" transform="rotate(-8.45)" color="#000" overflow="visible" fill="#15bfe3" stroke-width=".108" stroke-linecap="round"/><path d="M105.85 887.256l-4.58 7.68-.86-6.42z" opacity=".35" fill="url(#l)" fill-rule="evenodd" stroke-width=".64"/><rect style="marker:none" width="8.897" height="24.668" x="-34.064" y="869.944" ry="2.846" rx="2.932" transform="rotate(-8.45)" color="#000" overflow="visible" fill="#dddedd" stroke-width=".108" stroke-linecap="round"/><path d="M106.156 886.15c-.145 1.262-1.15 2.325-2.527 2.526l-3.05.447c-1.358.198-2.615-.51-3.14-1.647.4 1.343 1.75 2.219 3.22 2l3-.446c1.478-.22 2.52-1.466 2.497-2.88z" style="marker:none" color="#000" overflow="visible" opacity=".556" stroke-width=".068" stroke-linecap="round"/><path d="M109.284 907.133c-.144 1.262-1.149 2.325-2.526 2.526l-3.051.446c-1.358.198-2.615-.509-3.14-1.646.4 1.342 1.751 2.218 3.22 2l3-.446c1.48-.22 2.52-1.467 2.497-2.88zM112.482 928.628c-.144 1.262-1.15 2.325-2.526 2.526l-3.052.446c-1.357.199-2.614-.509-3.14-1.646.4 1.342 1.752 2.218 3.22 2l3-.446c1.48-.22 2.52-1.467 2.498-2.88zM115.654 949.997c-.144 1.262-1.149 2.325-2.526 2.526l-3.051.446c-1.358.199-2.615-.509-3.14-1.646.4 1.342 1.751 2.218 3.22 2l3-.446c1.479-.22 2.52-1.467 2.497-2.88z" style="marker:none" color="#000" overflow="visible" opacity=".556" stroke-width=".108" stroke-linecap="round"/><path style="marker:none" d="M28.736 972.956c.096.904.11 2.758.863 2.646-.035-.86-.727-1.526.25-2.688l46.805-6.953 2.588-.384 23.31-3.463a8.968 8.968 0 0 0 7.57-10.21l-13.254-89.222a8.968 8.968 0 0 0-10.21-7.57l-23.311 3.464-2.588.384c-14.148 2.099-28.03 4.198-42.348 6.296-1.854 24.68 7.043 76.694 10.325 107.7z" color="#000" overflow="visible" fill="url(#m)" stroke-width="4.924" stroke-linecap="round"/><path transform="matrix(1.01146 -.15025 .15025 1.01146 24.792 -640.786)" style="marker:none" clip-path="url(#n)" d="M-228.656 1455.425h4.875l.084 106.248-3.252.16-.497 1.002-.863-.044z" color="#000" overflow="visible" fill="#3e3e3e" stroke-width="4.815" stroke-linecap="round"/><path d="M-223.269 1457.004h67.264c2.474 0 9.634 1.06 9.634 9.634s3.889-11.137 3.889-11.137l-23.865-2.74-57.099 2.298z" clip-path="url(#o)" transform="matrix(1.01146 -.15025 .15025 1.01146 24.792 -640.786)" opacity=".08" fill="#fff" fill-rule="evenodd"/><path transform="matrix(1.01146 -.15025 .15025 1.01146 24.792 -640.786)" style="marker:none" clip-path="url(#q)" d="M-231.224 1454.53h3.712l-.107 109.734-3.605-.708z" color="#000" overflow="visible" fill="#303030" stroke-width="4.815" stroke-linecap="round"/><path transform="matrix(1.01146 -.15025 .15025 1.01146 24.792 -640.786)" style="marker:none" clip-path="url(#r)" d="M-224.929 1455.434h2.37l.059 106.424-2.428-.04z" color="#000" overflow="visible" fill="#4a4a4a" stroke-width="4.815" stroke-linecap="round"/><path style="line-height:1000%;-inkscape-font-specification:Raleway;font-variant-ligatures:normal;font-variant-position:normal;font-variant-caps:normal;font-variant-numeric:normal;font-variant-alternates:normal;font-feature-settings:normal;text-indent:0;text-align:start;text-decoration-line:none;text-decoration-style:solid;text-decoration-color:#000;text-transform:none;text-orientation:mixed;shape-padding:0;isolation:auto;mix-blend-mode:normal" d="M44.24 890.976l7.034 45.941 1.857-.284 14.333-2.195c3.291-.504 6.232-1.496 8.774-3.003l.005-.003.007-.005c2.542-1.535 4.654-3.473 6.275-5.786 1.652-2.354 2.782-5.038 3.386-7.99l.002-.005.001-.004c.6-3.005.622-6.22.103-9.614-.471-3.076-1.385-5.927-2.743-8.521-1.33-2.65-3.103-4.909-5.295-6.716h-.004c-2.176-1.833-4.772-3.146-7.709-3.93-2.97-.81-6.262-.91-9.836-.363zm9.012 6.198l8.312-1.273c2.367-.362 4.441-.273 6.267.218l.015.006.016.004c1.854.465 3.422 1.262 4.786 2.415l.01.009.01.01c1.415 1.162 2.583 2.625 3.52 4.452l.002.004.001.006c.93 1.788 1.585 3.848 1.947 6.21.355 2.322.35 4.487 0 6.521l-.002.01-.002.013c-.316 1.976-.958 3.721-1.926 5.294-.957 1.506-2.236 2.788-3.906 3.874-1.59 1.01-3.563 1.72-5.971 2.09l-8.312 1.272z" color="#000" font-weight="400" font-size="60.164" font-family="Raleway" letter-spacing="0" word-spacing="0" white-space="normal" overflow="visible" fill-opacity=".379" stroke-width="3.76"/><path style="line-height:1000%;-inkscape-font-specification:Raleway;font-variant-ligatures:normal;font-variant-position:normal;font-variant-caps:normal;font-variant-numeric:normal;font-variant-alternates:normal;font-feature-settings:normal;text-indent:0;text-align:start;text-decoration-line:none;text-decoration-style:solid;text-decoration-color:#000;text-transform:none;text-orientation:mixed;shape-padding:0;isolation:auto;mix-blend-mode:normal" d="M64.33 888.16c-1.259.019-2.56.132-3.9.337l-16.19 2.478.3 1.956 15.89-2.434c3.574-.547 6.865-.447 9.836.363 2.936.785 5.532 2.097 7.709 3.93l.004.002c2.191 1.807 3.964 4.065 5.294 6.715 1.36 2.594 2.274 5.446 2.745 8.521.188 1.23.301 2.433.345 3.614a30.2 30.2 0 0 0-.345-5.614c-.471-3.075-1.386-5.927-2.745-8.521-1.33-2.65-3.103-4.908-5.294-6.715l-.004-.002c-2.177-1.833-4.773-3.145-7.71-3.93-1.856-.506-3.837-.734-5.935-.7zm-10.78 10.968l-.298.045 4.768 31.136 8.31-1.273c2.409-.369 4.382-1.079 5.973-2.09 1.67-1.086 2.947-2.367 3.904-3.873.968-1.572 1.612-3.318 1.928-5.295l.002-.012.002-.01c.228-1.329.292-2.72.222-4.17a18.45 18.45 0 0 1-.222 2.17l-.002.01-.002.012c-.316 1.977-.96 3.723-1.928 5.295-.957 1.506-2.234 2.787-3.904 3.873-1.591 1.011-3.564 1.721-5.973 2.09l-8.31 1.273z" color="#000" font-weight="400" font-size="60.164" font-family="Raleway" letter-spacing="0" word-spacing="0" white-space="normal" overflow="visible" fill-opacity=".253" stroke-width="3.76"/></g></svg>