<svg xmlns:osb="http://www.openswatchbook.org/uri/2009/osb" xmlns="http://www.w3.org/2000/svg" xmlns:xlink="http://www.w3.org/1999/xlink" height="128" viewBox="0 0 128 128" width="128"><defs><linearGradient id="d"><stop offset="0" stop-color="#3fc0be"/><stop offset="1" stop-color="#469e94"/></linearGradient><linearGradient id="c"><stop offset="0" stop-color="#4b8318"/><stop offset="1" stop-color="#9ccb62"/></linearGradient><linearGradient id="b"><stop offset="0" stop-color="#d7e136"/><stop offset="1" stop-color="#e5ec7c"/></linearGradient><linearGradient id="a" osb:paint="solid"><stop offset="0" stop-color="#e1e96a"/></linearGradient><linearGradient xlink:href="#b" id="g" x1="112" y1="112" x2="60" y2="28" gradientUnits="userSpaceOnUse" gradientTransform="matrix(1.04065 0 0 1.04065 -4.216 -8.144)"/><linearGradient xlink:href="#c" id="e" x1="12" y1="104" x2="88" y2="24" gradientUnits="userSpaceOnUse" gradientTransform="matrix(1.04065 0 0 1.04065 -4.216 -8.144)"/><linearGradient xlink:href="#d" id="f" x1="56" y1="120" x2="56" y2="5.939" gradientUnits="userSpaceOnUse" gradientTransform="matrix(1.04065 0 0 1.04065 -4.216 -8.144)"/></defs><path d="M54.061 4.978L27.004 8.304v33.138L2.028 46.767v55.399l52.033 20.813 26.016-9.407 23.935 6.407 23.935-8.447v-8.326l-24.975-5.366V47.767l-23.935-6.325V9.344z" fill="#070b02" fill-opacity=".158" fill-rule="evenodd" stroke-width="1.393"/><path d="M54.061 7.06l-24.976 3.325v33.138L4.11 48.848v51.236l49.951 20.813 23.935-9.406 23.935 6.406 23.935-8.447v-8.325l-24.976-5.366V49.85l-23.935-6.326V11.426z" fill="#395c23" fill-rule="evenodd" stroke-width="1.393"/><path d="M29.085 10.385v33.138l23.935 6.325V15.751zM53.02 49.848V78.57l24.976 5.905v-29.22zm-48.91-1v51.236l49.951 20.813V91.881l-23.935-7.406v-29.22zm73.886 53.277v9.366l23.935 6.406v-9.365z" fill="url(#e)" fill-rule="evenodd" stroke-width="1.393"/><path d="M54.061 7.06l-24.976 3.325 23.935 5.366 23.935-4.325zm22.894 36.463L53.02 49.848l24.976 5.407 22.894-5.407zM53.02 49.848l-23.935-6.325L4.11 48.848l26.016 6.407zm0 28.722l-22.894 5.905 23.935 7.406 23.935-7.406zm47.87 17.19l-22.894 6.365 23.935 6.407 23.935-7.407z" fill="url(#f)" fill-rule="evenodd" stroke-width="1.393" stroke-opacity=".7"/><path d="M76.955 11.426L53.02 15.75v34.097l23.935-6.325zM53.02 49.848l-22.894 5.407v29.22L53.02 78.57zm47.87 0l-22.894 5.407v29.22L54.061 91.88v29.016l23.935-9.406v-9.366l22.894-6.366zm24.976 51.277l-23.935 7.407v9.365l23.935-8.447z" fill="url(#g)" fill-rule="evenodd" stroke-width="1.393"/><path d="M41.478 18.926l.095 7.069-4.087 2.705 5.136 10.677-2.514-9.409 4.538-1.315zm24.024 38.008l.096 7.069-4.088 2.705 5.134 10.68-2.514-9.411 4.54-1.315zm-49.535 3.295l.096 7.069-4.087 2.705 5.136 10.679-2.514-9.41 4.54-1.316z" fill="none" fill-opacity=".889" fill-rule="evenodd" stroke="#000" stroke-width="2.196" stroke-linecap="round" stroke-linejoin="round" stroke-opacity=".116"/><path d="M41.478 18.926l.095 7.069-4.087 2.705 5.136 10.677-2.514-9.409 4.538-1.315zm24.024 38.008l.096 7.069-4.088 2.705 5.134 10.68-2.514-9.411 4.54-1.315zm-49.535 3.295l.096 7.069-4.087 2.705 5.136 10.679-2.514-9.41 4.54-1.316z" fill="#fff" fill-opacity=".889" fill-rule="evenodd" stroke-width=".219"/></svg>