<svg xmlns="http://www.w3.org/2000/svg" xmlns:xlink="http://www.w3.org/1999/xlink" width="96" height="96"><defs><linearGradient id="u"><stop offset="0" stop-color="#fff"/><stop offset="1" stop-color="#b5b2b5"/></linearGradient><linearGradient id="s"><stop offset="0" stop-color="#313439"/><stop offset="1" stop-color="#525152"/></linearGradient><linearGradient id="t"><stop offset="0" stop-color="#313439"/><stop offset="1" stop-color="#bbb8c4"/></linearGradient><linearGradient id="q"><stop offset="0" stop-color="#ada6ad"/><stop offset="1" stop-color="#ded7de"/></linearGradient><linearGradient id="p"><stop offset="0" stop-color="#ada6ad"/><stop offset="1" stop-color="#ded7de"/></linearGradient><linearGradient id="n"><stop offset="0" stop-color="#a5a6ad"/><stop offset="1" stop-color="#ded7de"/></linearGradient><linearGradient id="o"><stop offset="0" stop-color="#a5a6ad"/><stop offset="1" stop-color="#ded7de"/></linearGradient><linearGradient id="m"><stop offset="0" stop-color="#a5a6ad"/><stop offset="1" stop-color="#ded7de"/></linearGradient><linearGradient id="j"><stop offset="0" stop-color="#d6f3f7"/><stop offset=".435" stop-color="#95d3df"/><stop offset="1" stop-color="#184d80"/></linearGradient><linearGradient id="l"><stop offset="0" stop-color="#080008"/><stop offset="1" stop-color="#221f26"/></linearGradient><linearGradient id="k"><stop offset="0" stop-color="#000008"/><stop offset="1" stop-color="#211d21"/></linearGradient><linearGradient id="r"><stop offset="0" stop-color="#122026"/><stop offset="1" stop-color="#6b6d73"/></linearGradient><linearGradient id="g"><stop offset="0" stop-color="#de005a"/><stop offset="1" stop-color="#a30444"/></linearGradient><linearGradient id="h"><stop offset="0" stop-color="#ffe7f7"/><stop offset="1" stop-color="#ffc3ef"/></linearGradient><linearGradient id="f"><stop offset="0" stop-color="#c16d16"/><stop offset="1" stop-color="#ff8e31"/></linearGradient><linearGradient id="e"><stop offset="0" stop-color="#92948f" stop-opacity="0"/><stop offset=".428" stop-color="#9b9e98"/><stop offset="1" stop-color="#939690" stop-opacity="0"/></linearGradient><linearGradient id="d"><stop offset="0" stop-color="#fff" stop-opacity="0"/><stop offset=".459" stop-color="#fff"/><stop offset="1" stop-color="#fff" stop-opacity="0"/></linearGradient><linearGradient id="c"><stop offset="0"/><stop offset=".061" stop-color="#1a1a1a"/><stop offset=".165" stop-color="#333"/><stop offset=".554" stop-color="#4d4d4d"/><stop offset="1" stop-color="#999"/></linearGradient><linearGradient id="b"><stop offset="0" stop-color="#1a1a1a"/><stop offset="1" stop-color="gray"/></linearGradient><linearGradient id="a"><stop offset="0" stop-color="#333"/><stop offset="1" stop-color="#e0e0dd" stop-opacity="0"/></linearGradient><linearGradient id="i"><stop offset="0" stop-color="#104d7b"/><stop offset=".612" stop-color="#5ab2d6"/><stop offset="1" stop-color="#d6ebf7"/></linearGradient><linearGradient xlink:href="#i" id="w" gradientUnits="userSpaceOnUse" x1="83.325" y1="996.961" x2="55.423" y2="1043.389"/><linearGradient xlink:href="#j" id="v" gradientUnits="userSpaceOnUse" x1="12.851" y1="1044.125" x2="69.694" y2="989.642"/><linearGradient xlink:href="#k" id="z" x1="52.891" y1="995.124" x2="52.891" y2="980.244" gradientUnits="userSpaceOnUse" gradientTransform="matrix(1 0 0 .9375 0 60.21)"/><linearGradient xlink:href="#l" id="y" x1="49.087" y1="22.098" x2="49.087" y2="7.789" gradientUnits="userSpaceOnUse" gradientTransform="translate(0 -1)"/><linearGradient xlink:href="#m" id="D" x1="64.483" y1="994.038" x2="64.483" y2="980.267" gradientUnits="userSpaceOnUse" gradientTransform="translate(0 -957.362)"/><linearGradient xlink:href="#n" id="C" x1="64.483" y1="994.038" x2="64.483" y2="980.267" gradientUnits="userSpaceOnUse" gradientTransform="translate(0 -957.362)"/><linearGradient xlink:href="#o" id="E" x1="64.483" y1="994.038" x2="64.483" y2="980.267" gradientUnits="userSpaceOnUse" gradientTransform="translate(0 -957.362)"/><linearGradient xlink:href="#p" id="B" x1="40.574" y1="978.823" x2="40.574" y2="962.158" gradientUnits="userSpaceOnUse" gradientTransform="translate(0 -957.362)"/><linearGradient xlink:href="#q" id="A" gradientUnits="userSpaceOnUse" gradientTransform="translate(0 -957.362)" x1="40.574" y1="978.823" x2="40.574" y2="962.158"/><linearGradient xlink:href="#r" id="x" gradientUnits="userSpaceOnUse" gradientTransform="translate(0 -957.362)" x1="58.101" y1="978.898" x2="58.101" y2="962.472"/><linearGradient xlink:href="#s" id="G" x1="14.128" y1="36.045" x2="14.128" y2="11.586" gradientUnits="userSpaceOnUse"/><linearGradient xlink:href="#t" id="F" gradientUnits="userSpaceOnUse" x1="11.955" y1="29.718" x2="11.955" y2="2.513"/><radialGradient xlink:href="#u" id="H" cx="-3.76" cy="21.906" fx="-3.76" fy="21.906" r="3.906" gradientUnits="userSpaceOnUse" gradientTransform="matrix(.72131 -.68852 .69048 .72336 -16.173 3.471)"/></defs><g transform="translate(0 -956.362)"><g transform="translate(0 -1)"><rect ry="10.595" rx="10.595" y="961.862" x="3.5" height="89" width="89" opacity=".05"/><rect width="88" height="88" x="4" y="962.362" rx="10.476" ry="10.476" opacity=".05"/><rect ry="10.357" rx="10.357" y="962.862" x="4.5" height="87" width="87" opacity=".05"/><rect width="86" height="86" x="5" y="963.362" rx="10.238" ry="10.238" opacity=".1"/><rect ry="10.119" rx="10.119" y="963.862" x="5.5" height="85" width="85" opacity=".1"/><rect width="84" height="84" x="6" y="964.362" rx="10" ry="10" opacity=".3"/></g><rect ry="10" rx="10" y="962.362" x="6" height="84" width="84" fill="url(#v)"/><rect width="82" height="82" x="7" y="963.362" rx="9.762" ry="9.762" fill="url(#w)"/><path d="M16 6C10.46 6 6 10.46 6 16v21h84V16c0-5.54-4.46-10-10-10H16z" transform="translate(0 956.362)" fill="url(#x)"/><path d="M16.75 7A9.72 9.72 0 0 0 7 16.75V22h82v-5.25A9.72 9.72 0 0 0 79.25 7h-62.5z" transform="translate(0 956.362)" fill="url(#y)"/><rect ry="0" rx="0" y="978.362" x="7" height="15" width="82" fill="url(#z)"/><path d="M21.344 6l15.968 16h15.782L37 6H21.344z" transform="translate(0 956.362)" fill="url(#A)"/><path d="M52.063 6l16 16h15.78L67.72 6H52.063z" transform="translate(0 956.362)" fill="url(#B)"/><rect width="84" height="1" x="6" y="977.362" rx="0" ry="0" opacity=".1"/><path d="M68.063 22L53.03 37h15.657l15.156-15H68.063z" transform="translate(0 956.362)" fill="url(#C)"/><path d="M37.313 22l-15 15h15.656l15.125-15H37.312z" transform="translate(0 956.362)" fill="url(#D)"/><rect ry="0" rx="0" y="978.362" x="6" height="1" width="84" opacity=".1" fill="#fff"/><path d="M90 31.531L84.531 37H90v-5.469z" transform="translate(0 956.362)" fill="url(#E)"/><g transform="translate(0 1)"><rect width="84" height="3" x="6" y="992.362" rx="0" ry="0" opacity=".1"/><rect ry="0" rx="0" y="992.362" x="6" height="2" width="84" opacity=".1"/><rect width="84" height="1" x="6" y="992.362" rx="0" ry="0" opacity=".1"/></g><path d="M8.719 9.188C7.049 10.973 6 13.35 6 16v21h15.5V21.937L8.719 9.188z" transform="translate(0 956.362)" fill="url(#F)"/><path d="M9 10.844a9.655 9.655 0 0 0-2 5.906V37h13.5V22.344L9 10.844z" transform="translate(0 956.362)" fill="url(#G)"/><rect ry="0" rx="0" y="992.362" x="6" height="1" width="84" opacity=".1"/><path d="M17.656 982.061a3.906 3.906 0 1 1-7.812 0 3.906 3.906 0 0 1 7.812 0z" opacity=".2"/><path d="M17.656 981.06a3.906 3.906 0 1 1-7.812 0 3.906 3.906 0 0 1 7.812 0z" opacity=".2"/><path d="M.256 23.443a3.906 3.906 0 1 1-7.813 0 3.906 3.906 0 0 1 7.813 0z" transform="translate(17.4 956.618)" fill="url(#H)"/></g></svg>