<svg xmlns="http://www.w3.org/2000/svg" xmlns:xlink="http://www.w3.org/1999/xlink" width="1024" height="1024" viewBox="0 0 270.93333 270.93334"><defs><linearGradient id="b"><stop offset="0" stop-color="#f3f2f3"/><stop offset="1" stop-color="#dcdadc"/></linearGradient><linearGradient id="a"><stop offset="0" stop-color="#fdfdfd"/><stop offset="1" stop-color="#fff"/></linearGradient><linearGradient xlink:href="#a" id="d" x1="132.292" y1="101.208" x2="132.292" y2="270.542" gradientUnits="userSpaceOnUse" gradientTransform="translate(-46.424 29.557)"/><filter id="f" x="-.012" width="1.023" y="-.012" height="1.025" color-interpolation-filters="sRGB"><feGaussianBlur stdDeviation="1.12"/></filter><linearGradient xlink:href="#b" id="e" gradientUnits="userSpaceOnUse" x1="132.292" y1="48.292" x2="132.292" y2="132.958" gradientTransform="rotate(-15 135.467 161.533)"/><linearGradient xlink:href="#c" id="h" x1="516.812" y1="274.862" x2="516.812" y2="814.862" gradientUnits="userSpaceOnUse" gradientTransform="translate(-201.612 -235.662)"/><linearGradient id="c"><stop offset="0" stop-color="#f6f7f7"/><stop offset="1" stop-color="#dce7f0"/></linearGradient><filter id="i" color-interpolation-filters="sRGB"><feFlood flood-opacity=".294" flood-color="#000" result="flood"/><feComposite in="flood" in2="SourceGraphic" operator="in" result="composite1"/><feGaussianBlur in="composite1" stdDeviation="3" result="blur"/><feOffset dy="3" result="offset"/><feComposite in="SourceGraphic" in2="offset" result="composite2"/></filter><linearGradient xlink:href="#c" id="j" gradientUnits="userSpaceOnUse" gradientTransform="matrix(.15166 0 0 .15166 134.93 161.024)" x1="522.464" y1="263.946" x2="522.464" y2="837.386"/><filter id="k" color-interpolation-filters="sRGB"><feFlood flood-opacity=".196" flood-color="#000" result="flood"/><feComposite in="flood" in2="SourceGraphic" operator="in" result="composite1"/><feGaussianBlur in="composite1" stdDeviation="1" result="blur"/><feOffset dy="1" result="offset"/><feComposite in="offset" in2="SourceGraphic" operator="out" result="composite2"/></filter><filter id="g" color-interpolation-filters="sRGB"><feFlood flood-opacity=".588" flood-color="#1BE9FF" result="flood"/><feComposite in="flood" in2="SourceGraphic" operator="out" result="composite1"/><feGaussianBlur in="composite1" stdDeviation="6" result="blur"/><feOffset dy="3" result="offset"/><feComposite in="offset" in2="SourceGraphic" operator="in" result="composite2"/></filter></defs><g transform="scale(.93184 -.93184) rotate(-75 -59.565 1.621)" fill-rule="evenodd" stroke-linejoin="round"><rect width="238.125" height="220.398" x="-30.02" y="80.892" rx="11.4" transform="rotate(-15)" fill="url(#d)" stroke-width="20.832" stroke-opacity="0" paint-order="stroke markers fill"/><path d="M2.95 82.954a11.375 11.375 0 0 0-8.06 13.962l11.327 42.275L236.23 77.56 224.9 35.285a11.375 11.375 0 0 0-13.962-8.06z" fill="url(#e)" stroke-width="20.832" stroke-opacity="0" paint-order="stroke markers fill"/><rect rx="11.135" y="53.894" x="19.169" height="215.28" width="232.595" transform="rotate(-15 135.467 161.533)" opacity=".2" fill="none" stroke="#fff" stroke-width="6.405" stroke-linecap="round" paint-order="markers fill stroke" filter="url(#f)"/><circle cx="105.45" cy="4.834" r="13.414" transform="scale(1 -1) rotate(-75)" fill="#f55" stroke-width="3.803" stroke-opacity="0" paint-order="stroke fill markers"/><circle transform="scale(1 -1) rotate(-75)" r="13.414" cy="49.612" cx="105.527" fill="#0cf" stroke-width="3.803" stroke-opacity="0" paint-order="stroke fill markers"/><rect width="136.29" height="17.036" x="147.932" y="-4.089" transform="scale(1 -1) rotate(-75)" rx="8.585" opacity=".3" fill="#333" stroke="#fff" stroke-width="1.136" stroke-linecap="round" stroke-opacity=".089" paint-order="stroke fill markers"/><rect transform="scale(1 -1) rotate(-75)" y="41.341" x="147.932" height="17.036" width="136.29" rx="8.585" opacity=".3" fill="#333" stroke="#fff" stroke-width="1.136" stroke-linecap="round" stroke-opacity=".089" paint-order="stroke fill markers"/><circle cx="270.632" cy="174.735" r="42.591" transform="scale(1 -1) rotate(-75)" fill="#0cf" stroke="#fff" stroke-width="1.136" stroke-linecap="round" stroke-opacity=".089" paint-order="stroke fill markers"/><circle transform="scale(1 -1) rotate(-75)" r="42.591" cy="174.735" cx="270.632" fill="#0cf" stroke="#fff" stroke-width="1.136" stroke-linecap="round" stroke-opacity=".089" paint-order="stroke fill markers" filter="url(#g)"/></g><path d="M307.2 51.2c-141.376 0-256 114.624-256 256s114.624 256 256 256 256-114.624 256-256-114.624-256-256-256zm0 480c-123.5 0-224-100.5-224-224s100.5-224 224-224 224 100.5 224 224-100.5 224-224 224zm79.188-314.5L273.264 329.824l-45.252-45.248c-12.5-12.5-32.78-12.5-45.252 0-12.5 12.5-12.5 32.78 0 45.252l67.876 67.876c12.468 12.5 32.752 12.5 45.252 0L431.64 261.952c12.5-12.5 12.5-32.78 0-45.252-12.472-12.5-32.752-12.5-45.252 0z" transform="matrix(.1292 0 0 .1292 -176.918 84.188)" fill="url(#h)" stroke-width="4" filter="url(#i)"/><path d="M241.78 224.103c.036.19.026.13.005.004l-.005-.004zm-14.238 4.105a4.84 4.84 0 0 0-3.433 1.422l-17.157 17.157-6.863-6.862a4.852 4.852 0 0 0-6.863 0 4.852 4.852 0 0 0 0 6.863l10.294 10.294a4.852 4.852 0 0 0 6.863 0l20.589-20.589a4.852 4.852 0 0 0 0-6.863 4.83 4.83 0 0 0-3.43-1.422z" fill="url(#j)" stroke-width=".607" filter="url(#k)" transform="translate(0 -26.067)"/><path d="M241.78 224.103c.036.19.026.13.005.004l-.005-.004zm-14.238 4.105a4.84 4.84 0 0 0-3.433 1.422l-17.157 17.157-6.863-6.862a4.852 4.852 0 0 0-6.863 0 4.852 4.852 0 0 0 0 6.863l10.294 10.294a4.852 4.852 0 0 0 6.863 0l20.589-20.589a4.852 4.852 0 0 0 0-6.863 4.83 4.83 0 0 0-3.43-1.422z" fill="url(#j)" stroke-width=".607" transform="translate(0 -26.067)"/></svg>