<svg xmlns="http://www.w3.org/2000/svg" xmlns:xlink="http://www.w3.org/1999/xlink" width="1024" height="1024"><defs><linearGradient id="c"><stop offset="0" stop-color="#369"/><stop offset="1" stop-color="#25507b"/></linearGradient><linearGradient id="a"><stop offset="0" stop-color="#fff"/><stop offset="1" stop-color="#d7d7d7"/></linearGradient><linearGradient xlink:href="#a" id="f" x1="102.298" y1="-.427" x2="102.298" y2="199.165" gradientUnits="userSpaceOnUse" gradientTransform="matrix(5.1 0 0 5.1 2 30.362)"/><linearGradient id="b"><stop offset="0" stop-color="#333"/><stop offset="1" stop-color="#2f4065"/></linearGradient><linearGradient xlink:href="#c" id="g" gradientUnits="userSpaceOnUse" x1="99.036" y1="-.505" x2="99.036" y2="199.84" gradientTransform="matrix(4.61714 0 0 4.61714 45.796 78.158)"/><linearGradient id="d"><stop offset="0" stop-color="#fff"/><stop offset="1" stop-color="#d7d7d7"/></linearGradient><linearGradient id="e" gradientUnits="userSpaceOnUse" x1="403.125" y1="211.25" x2="403.125" y2="396.25"><stop stop-color="#5a1aa9" offset="0"/><stop stop-color="#c063d5" offset="1"/></linearGradient><filter id="i" x="-.042" width="1.084" y="-.031" height="1.063" color-interpolation-filters="sRGB"><feGaussianBlur stdDeviation="2.428"/></filter><linearGradient xlink:href="#d" id="j" gradientUnits="userSpaceOnUse" x1="403.703" y1="139.024" x2="402.71" y2="463.071"/><linearGradient xlink:href="#e" id="k" x1="402.71" y1="316.419" x2="402.71" y2="341.923" gradientUnits="userSpaceOnUse"/><linearGradient xlink:href="#e" id="h" x1="396.334" y1="137.885" x2="396.334" y2="463.071" gradientUnits="userSpaceOnUse"/></defs><g transform="translate(0 -28.362)"><circle style="marker:none" cx="512" cy="540.362" r="510" color="#000" overflow="visible" fill="url(#f)" stroke-width="46.585" enable-background="accumulate"/><circle style="marker:none" cx="507.51" cy="539.872" r="461.714" color="#000" overflow="visible" fill="url(#g)" stroke-width="46.585" enable-background="accumulate"/><path class="shp1" d="M400 450c82.84 0 150-67.16 150-150s-67.16-150-150-150-150 67.16-150 150 67.16 150 150 150z" fill="url(#h)" transform="matrix(3.13667 0 0 3.13667 -743.167 -400.138)"/><path d="M377.4 377.558c0 12.08-9.77 21.88-21.82 21.88-5.27 0-10.11-1.87-13.88-4.99 4.18-2.02 7.06-6.3 7.06-11.26 0-6.9-5.6-12.5-12.5-12.5-.86 0-1.69.09-2.5.25v-86.82c0-38.48 31.13-69.68 69.52-69.68h.63c38.16 0 68.68 30.8 68.58 68.88v.61c-.01.21-.01.41-.02.61-1.39 37.4-32.25 68.01-68.88 68.01-12.05 0-21.82-9.79-21.82-21.87 0-12.08 9.77-21.87 21.82-21.87 12.85 0 24.64-11.67 25.25-25.75-.05-13.86-11.02-24.88-24.93-24.88h-.63c-14.29 0-25.87 11.61-25.87 25.93zm51.44-93.88l.02-1.23c0 .2-.01.41-.02.61 0 .2 0 .41-.01.61zm43.66-.36l-.02 1.23c0-.21.01-.41.01-.61.01-.2.01-.41.01-.61z" class="shp2" fill="#0b030d" filter="url(#i)" opacity=".3" transform="matrix(3.13667 0 0 3.13667 -743.167 -400.138)"/><path class="shp2" d="M377.4 374.37c0 12.08-9.77 21.88-21.82 21.88-5.27 0-10.11-1.87-13.88-4.99 4.18-2.02 7.06-6.3 7.06-11.26 0-6.9-5.6-12.5-12.5-12.5-.86 0-1.69.09-2.5.25v-86.82c0-38.48 31.13-69.68 69.52-69.68h.63c38.16 0 68.68 30.8 68.58 68.88v.61c-.01.21-.01.41-.02.61-1.39 37.4-32.25 68.01-68.88 68.01-12.05 0-21.82-9.79-21.82-21.87 0-12.08 9.77-21.87 21.82-21.87 12.85 0 24.64-11.67 25.25-25.75-.05-13.86-11.02-24.88-24.93-24.88h-.63c-14.29 0-25.87 11.61-25.87 25.93zm51.44-93.88l.02-1.23c0 .2-.01.41-.02.61 0 .2 0 .41-.01.61zm43.66-.36l-.02 1.23c0-.21.01-.41.01-.61.01-.2.01-.41.01-.61z" fill="url(#j)" transform="matrix(3.13667 0 0 3.13667 -743.167 -400.138)"/><path class="shp3" d="M403.75 341.25c7.59 0 13.75-6.16 13.75-13.75s-6.16-13.75-13.75-13.75S390 319.91 390 327.5s6.16 13.75 13.75 13.75z" fill="url(#k)" transform="matrix(3.13667 0 0 3.13667 -743.167 -400.138)"/></g></svg>