<svg xmlns="http://www.w3.org/2000/svg" xmlns:xlink="http://www.w3.org/1999/xlink" width="128" height="128" viewBox="0 0 33.866665 33.866665"><defs><linearGradient id="d"><stop offset="0" stop-color="#909299"/><stop offset="1" stop-color="#b5b7bf"/></linearGradient><linearGradient id="e"><stop offset="0" stop-color="#9c9da5"/><stop offset="1" stop-color="#84848c"/></linearGradient><linearGradient id="c"><stop offset="0" stop-color="#fff"/><stop offset="1" stop-color="#dedede"/></linearGradient><linearGradient id="b"><stop offset="0" stop-color="#919699"/><stop offset="1" stop-color="#3d4043"/></linearGradient><linearGradient id="a"><stop offset="0" stop-color="#36383b"/><stop offset="1" stop-color="#17181a"/></linearGradient><radialGradient xlink:href="#a" id="j" gradientUnits="userSpaceOnUse" gradientTransform="matrix(.26492 .05739 -.05989 .27646 -75.315 205.342)" cx="399.855" cy="191.954" fx="399.855" fy="191.954" r="49.762"/><radialGradient xlink:href="#b" id="i" cx="451.887" cy="300.023" fx="451.887" fy="300.023" r="20.151" gradientTransform="matrix(.33225 .0529 -.0591 .37115 -114.596 146.816)" gradientUnits="userSpaceOnUse"/><linearGradient xlink:href="#c" id="h" x1="422.655" y1="-296.757" x2="567.483" y2="-251.701" gradientUnits="userSpaceOnUse" gradientTransform="matrix(.19503 0 0 .19503 156.418 174.72)"/><radialGradient xlink:href="#d" id="f" cx="403.361" cy="327.998" fx="403.361" fy="327.998" r="33.477" gradientTransform="matrix(.17456 .03752 -.05022 .23366 -45.665 196.455)" gradientUnits="userSpaceOnUse"/><radialGradient xlink:href="#e" id="g" cx="426.873" cy="312.58" fx="426.873" fy="312.58" r="50.458" gradientTransform="matrix(.1579 .0247 -.04314 .27583 -41.057 189.408)" gradientUnits="userSpaceOnUse"/></defs><g transform="translate(-3.823 -262.58)"><path d="M17.281 263.9a17.762 8.88 59.304 0 0-2.662.658 17.762 8.88 59.304 0 0-2.48 3.738c-.54 1.349-1.538 4.603-1.683 9.498-.004.124-.004.248-.006.373l-2.525 1.705s-3.826 2.667-.77 8.678c3.359 6.61 8.162 4.938 8.162 4.938l3.087-1.59c.082.041.16.084.244.125 4.657 2.296 8.087 3.183 9.931 3.525a17.762 8.88 59.304 0 0 1.286.192l.147.014a17.762 8.88 59.304 0 0 .09.007l.02.002-.001-.003a17.762 8.88 59.304 0 0 2.632-.657 17.762 8.88 59.304 0 0-1.43-19.806A17.762 8.88 59.304 0 0 17.28 263.9z" opacity=".25" stroke-width=".2"/><path d="M11.179 277.145l-3.254 2.198s-3.827 2.667-.771 8.678c3.36 6.609 8.164 4.938 8.164 4.938l3.71-1.913z" fill="url(#f)" stroke="gray" stroke-width=".2"/><path d="M11.282 277.042s-.7.214-1.156.956c-.457.743-1.496 2.744-.212 6.683 1.23 3.398 5.349 8.322 9.246 6.719.4-.371-7.878-14.358-7.878-14.358z" fill="#1f1f1f" stroke-width=".052"/><path d="M12.482 267.06c-.048-.097-1.828 3.54-2.026 10.205-.156 5.24.818 10.593 8.192 14.229 7.187 3.543 11.475 3.739 11.475 3.739z" fill="url(#g)" stroke="#4d4d4d" stroke-width=".2"/><ellipse transform="rotate(59.304)" ry="8.881" rx="17.762" cy="122.635" cx="252.368" fill="#4d4d4d" fill-rule="evenodd" stroke-width=".063"/><ellipse cx="252.259" cy="122.211" rx="17.762" ry="8.881" transform="rotate(59.304)" fill="url(#h)" fill-rule="evenodd" stroke="gray" stroke-width=".2"/><path d="M20.828 287.415a6.01 3.479 59.348 0 0 .08-.003 6.01 3.479 59.348 0 0 .356-.067 6.01 3.479 59.348 0 0 .237-.08 6.01 3.479 59.348 0 0 .31-.159 6.01 3.479 59.348 0 0 .279-.21 6.01 3.479 59.348 0 0 .245-.259 6.01 3.479 59.348 0 0 .209-.306 6.01 3.479 59.348 0 0 .17-.35 6.01 3.479 59.348 0 0 .131-.39 6.01 3.479 59.348 0 0 .089-.425 6.01 3.479 59.348 0 0 .047-.458 6.01 3.479 59.348 0 0 .004-.486 6.01 3.479 59.348 0 0-.039-.508 6.01 3.479 59.348 0 0-.08-.526 6.01 3.479 59.348 0 0-.123-.538 6.01 3.479 59.348 0 0-.163-.544 6.01 3.479 59.348 0 0-.202-.547 6.01 3.479 59.348 0 0-.238-.542 6.01 3.479 59.348 0 0-.19-.378 6.01 3.479 59.348 0 0-.295-.523 6.01 3.479 59.348 0 0-.325-.505 6.01 3.479 59.348 0 0-.35-.48 6.01 3.479 59.348 0 0-.374-.453 6.01 3.479 59.348 0 0-.393-.42 6.01 3.479 59.348 0 0-.408-.383 6.01 3.479 59.348 0 0-.419-.342 6.01 3.479 59.348 0 0-.425-.298 6.01 3.479 59.348 0 0-.428-.25 6.01 3.479 59.348 0 0-.427-.201 6.01 3.479 59.348 0 0-.42-.15 6.01 3.479 59.348 0 0-.41-.095 6.01 3.479 59.348 0 0-.396-.042 6.01 3.479 59.348 0 0-.378.013 6.01 3.479 59.348 0 0-.355.067 6.01 3.479 59.348 0 0-.237.08 6.01 3.479 59.348 0 0-.31.159 6.01 3.479 59.348 0 0-.279.21 6.01 3.479 59.348 0 0-.193.203 15.345 6.985 60.434 0 0 2.275 5.155 15.345 6.985 60.434 0 0 3.425 5.031z" fill="url(#i)" fill-rule="evenodd" stroke="#333" stroke-width=".068"/><path d="M17.667 265.524a15.345 6.985 60.434 0 0-1.393.347 15.345 6.985 60.434 0 0-1.145 11.358 6.01 3.479 59.348 0 1 .192-.203 6.01 3.479 59.348 0 1 .279-.21 6.01 3.479 59.348 0 1 .31-.159 6.01 3.479 59.348 0 1 .237-.08 6.01 3.479 59.348 0 1 .355-.067 6.01 3.479 59.348 0 1 .378-.013 6.01 3.479 59.348 0 1 .396.042 6.01 3.479 59.348 0 1 .41.096 6.01 3.479 59.348 0 1 .42.149 6.01 3.479 59.348 0 1 .427.2 6.01 3.479 59.348 0 1 .428.251 6.01 3.479 59.348 0 1 .425.298 6.01 3.479 59.348 0 1 .42.342 6.01 3.479 59.348 0 1 .407.383 6.01 3.479 59.348 0 1 .393.42 6.01 3.479 59.348 0 1 .373.453 6.01 3.479 59.348 0 1 .351.48 6.01 3.479 59.348 0 1 .325.505 6.01 3.479 59.348 0 1 .295.523 6.01 3.479 59.348 0 1 .19.378 6.01 3.479 59.348 0 1 .238.543 6.01 3.479 59.348 0 1 .202.546 6.01 3.479 59.348 0 1 .163.545 6.01 3.479 59.348 0 1 .122.537 6.01 3.479 59.348 0 1 .081.526 6.01 3.479 59.348 0 1 .039.508 6.01 3.479 59.348 0 1-.004.486 6.01 3.479 59.348 0 1-.047.458 6.01 3.479 59.348 0 1-.089.426 6.01 3.479 59.348 0 1-.13.39 6.01 3.479 59.348 0 1-.171.35 6.01 3.479 59.348 0 1-.209.305 6.01 3.479 59.348 0 1-.245.26 6.01 3.479 59.348 0 1-.279.21 6.01 3.479 59.348 0 1-.31.158 6.01 3.479 59.348 0 1-.237.08 6.01 3.479 59.348 0 1-.355.068 6.01 3.479 59.348 0 1-.081.003 15.345 6.985 60.434 0 0 10.25 5.327 15.345 6.985 60.434 0 0-1.098-16.49l-.033-.06a15.345 6.985 60.434 0 0-12.28-10.67z" fill="url(#j)" fill-rule="evenodd" stroke-width=".068"/></g></svg>