<svg xmlns="http://www.w3.org/2000/svg" xmlns:xlink="http://www.w3.org/1999/xlink" height="48" viewBox="0 0 47.999999 47.999999" width="48"><defs><linearGradient id="af"><stop offset="0" stop-color="#fff" stop-opacity=".56"/><stop offset="1" stop-color="#fff" stop-opacity="0"/></linearGradient><linearGradient id="ae"><stop offset="0" stop-color="#0a3bfe"/><stop offset="1" stop-color="#00e0ff" stop-opacity=".021"/></linearGradient><linearGradient id="ad"><stop offset="0" stop-color="#fee90a"/><stop offset="1" stop-color="#fff200" stop-opacity=".098"/></linearGradient><linearGradient id="ab"><stop offset="0" stop-color="#fff" stop-opacity=".895"/><stop offset="1" stop-color="#4ceb96" stop-opacity="0"/></linearGradient><linearGradient id="aa"><stop offset="0" stop-color="#7ffe0a"/><stop offset="1" stop-color="#4ceb96" stop-opacity="0"/></linearGradient><linearGradient id="W"><stop offset="0" stop-color="#ff0012"/><stop offset="1" stop-color="#fff800" stop-opacity="0"/></linearGradient><linearGradient id="Y"><stop offset="0" stop-color="#fe210a"/><stop offset="1" stop-color="#f23500" stop-opacity="0"/></linearGradient><linearGradient id="Z"><stop offset="0" stop-color="#fedb0a"/><stop offset="1" stop-color="#d6f200" stop-opacity="0"/></linearGradient><linearGradient id="X"><stop offset="0" stop-color="#0a39fe"/><stop offset="1" stop-color="#0075f2" stop-opacity=".026"/></linearGradient><linearGradient id="V"><stop offset="0" stop-color="#7400c1"/><stop offset="1" stop-color="#fd27ff" stop-opacity=".204"/></linearGradient><linearGradient id="S"><stop offset="0" stop-color="#fff" stop-opacity=".183"/><stop offset="1" stop-color="#fff" stop-opacity="0"/></linearGradient><linearGradient id="R"><stop offset="0" stop-opacity=".047"/><stop offset="1" stop-opacity=".266"/></linearGradient><linearGradient id="N"><stop offset="0" stop-color="#fff"/><stop offset="1" stop-color="#fff" stop-opacity="0"/></linearGradient><linearGradient id="B"><stop offset="0" stop-color="#a7a7a7"/><stop offset="1" stop-color="#2a2a2a"/></linearGradient><linearGradient id="A"><stop offset="0" stop-color="#111"/><stop offset=".436" stop-color="#494949"/><stop offset="1" stop-color="#939393"/></linearGradient><linearGradient id="t"><stop offset="0" stop-color="#c0f5a5"/><stop offset="1" stop-color="#f7f7f9"/></linearGradient><linearGradient id="s"><stop offset="0"/><stop offset="1" stop-color="#3e383e"/></linearGradient><linearGradient id="r"><stop offset="0" stop-color="#ff9a00"/><stop offset="1" stop-color="#fdca00"/></linearGradient><linearGradient id="q"><stop offset="0" stop-color="#adcff7"/><stop offset="1" stop-color="#efefff"/></linearGradient><linearGradient id="p"><stop offset="0" stop-color="#c6bede"/><stop offset="1" stop-color="#f7e7ff"/></linearGradient><linearGradient id="n"><stop offset="0" stop-color="#a69fc6"/><stop offset="1" stop-color="#fffbff"/></linearGradient><linearGradient id="o"><stop offset="0" stop-color="#5228ad"/><stop offset=".696" stop-color="#4f28a7"/><stop offset=".849" stop-color="#4b289f"/><stop offset="1" stop-color="#4a289c"/></linearGradient><linearGradient id="m"><stop offset="0" stop-color="#fff"/><stop offset=".714" stop-color="#fff"/><stop offset="1"/></linearGradient><linearGradient id="l"><stop offset="0"/><stop offset="1" stop-color="#211821"/></linearGradient><linearGradient id="k"><stop offset="0" stop-color="#ded3d6"/><stop offset="1" stop-color="#f7ebef"/></linearGradient><linearGradient id="j"><stop offset="0" stop-color="#ded3d6"/><stop offset="1" stop-color="#efebef"/></linearGradient><linearGradient id="g"><stop offset="0" stop-color="#ffe7f7"/><stop offset="1" stop-color="#ffc3ef"/></linearGradient><linearGradient id="i"><stop offset="0" stop-color="#943410"/><stop offset="1" stop-color="#dc7952"/></linearGradient><linearGradient id="h"><stop offset="0" stop-color="#a53810"/><stop offset="1" stop-color="#e75911"/></linearGradient><linearGradient id="f"><stop offset="0" stop-color="#c16d16"/><stop offset="1" stop-color="#ff8e31"/></linearGradient><linearGradient id="e"><stop offset="0" stop-color="#92948f" stop-opacity="0"/><stop offset=".428" stop-color="#9b9e98"/><stop offset="1" stop-color="#939690" stop-opacity="0"/></linearGradient><linearGradient id="d"><stop offset="0" stop-color="#fff" stop-opacity="0"/><stop offset=".459" stop-color="#fff"/><stop offset="1" stop-color="#fff" stop-opacity="0"/></linearGradient><linearGradient id="c"><stop offset="0"/><stop offset=".061" stop-color="#1a1a1a"/><stop offset=".165" stop-color="#333"/><stop offset=".554" stop-color="#4d4d4d"/><stop offset="1" stop-color="#999"/></linearGradient><linearGradient id="b"><stop offset="0" stop-color="#1a1a1a"/><stop offset="1" stop-color="gray"/></linearGradient><linearGradient id="a"><stop offset="0" stop-color="#333"/><stop offset="1" stop-color="#e0e0dd" stop-opacity="0"/></linearGradient><linearGradient id="u"><stop offset="0" stop-color="#2a2a2a"/><stop offset="1" stop-color="#1a1a1a"/></linearGradient><linearGradient id="v"><stop offset="0" stop-color="#c7cbc4"/><stop offset=".198" stop-color="#828480"/><stop offset=".635" stop-color="#fff"/><stop offset="1" stop-color="#c1c4be"/></linearGradient><linearGradient id="w"><stop offset="0" stop-color="gray"/><stop offset="1" stop-color="#101010"/></linearGradient><linearGradient id="x"><stop offset="0" stop-color="#010101"/><stop offset="1" stop-color="#101213"/></linearGradient><linearGradient id="y"><stop offset="0" stop-color="#d7d9d5"/><stop offset="1" stop-color="#fff"/></linearGradient><linearGradient id="z"><stop offset="0" stop-color="#fff"/><stop offset="1" stop-color="#b3b3b3"/></linearGradient><linearGradient id="C"><stop offset="0"/><stop offset="1" stop-opacity="0"/></linearGradient><linearGradient id="D"><stop offset="0" stop-color="#ed5012"/><stop offset="1" stop-color="#bc3f0e"/></linearGradient><radialGradient id="E" gradientUnits="userSpaceOnUse" cy="9.81" cx="-514.13" gradientTransform="translate(338.17 67.963) scale(.5424)" r="145.95"><stop offset="0" stop-color="#ed8246"/><stop offset=".683" stop-color="#ee6d2e"/><stop offset=".701" stop-color="#ef783d"/><stop offset="1" stop-color="#f07f48"/></radialGradient><linearGradient id="F"><stop offset="0" stop-color="#e55016"/><stop offset="1" stop-color="#c44c1c"/></linearGradient><linearGradient id="G"><stop offset="0" stop-color="#ed9666"/><stop offset="1" stop-color="#ed9666" stop-opacity="0"/></linearGradient><linearGradient id="H"><stop offset="0" stop-color="#d64912"/><stop offset="1" stop-color="#d64912" stop-opacity="0"/></linearGradient><linearGradient id="I"><stop offset="0" stop-color="#e89c59"/><stop offset="1" stop-color="#e89c59" stop-opacity="0"/></linearGradient><linearGradient id="J"><stop offset="0" stop-color="#520"/><stop offset="1" stop-color="#520" stop-opacity="0"/></linearGradient><linearGradient id="K"><stop offset="0" stop-color="#f07e51"/><stop offset="1" stop-color="#ec5d24"/></linearGradient><linearGradient id="L"><stop offset="0" stop-color="#ef7545"/><stop offset="1" stop-color="#eb5114"/></linearGradient><linearGradient id="M"><stop offset="0" stop-color="#612d15"/><stop offset="1" stop-color="#8a3f1e" stop-opacity="0"/></linearGradient><linearGradient id="O"><stop offset="0" stop-color="#e1e1e1"/><stop offset="1" stop-color="#fff"/></linearGradient><radialGradient id="P" gradientUnits="userSpaceOnUse" cy="9.81" cx="-514.13" gradientTransform="translate(338.17 67.963) scale(.5424)" r="145.95"><stop offset="0" stop-color="#ed8347"/><stop offset="1" stop-color="#e85913"/></radialGradient><linearGradient id="Q"><stop offset="0" stop-color="#de4814"/><stop offset="1" stop-color="#ff6000"/></linearGradient><linearGradient id="T"><stop offset="0" stop-color="#787878"/><stop offset=".35" stop-color="#bebebe"/><stop offset=".494" stop-color="#c8c8c8"/><stop offset=".589" stop-color="#e6e6e6"/><stop offset="1" stop-color="#8c8c8c"/></linearGradient><linearGradient id="U"><stop offset="0" stop-color="#464646"/><stop offset=".35" stop-color="#8c8c8c"/><stop offset=".51" stop-color="#969696"/><stop offset=".62" stop-color="#aaa"/><stop offset="1" stop-color="#646464"/></linearGradient><filter id="an" x="-.233" width="1.466" y="-.21" height="1.42" color-interpolation-filters="sRGB"><feGaussianBlur stdDeviation=".874"/></filter><linearGradient xlink:href="#V" id="ah" x1="24.125" y1="4.45" x2="24.125" y2="39.45" gradientUnits="userSpaceOnUse" gradientTransform="matrix(.99967 0 0 .99967 .133 -3.69)"/><filter id="ao" x="-.163" width="1.326" y="-.135" height="1.27" color-interpolation-filters="sRGB"><feGaussianBlur stdDeviation="1.665"/></filter><filter id="ar" x="-.013" width="1.027" y="-.011" height="1.022" color-interpolation-filters="sRGB"><feGaussianBlur stdDeviation=".135"/></filter><linearGradient xlink:href="#W" id="aq" x1="34.625" y1="39.5" x2="25.25" y2="25" gradientUnits="userSpaceOnUse"/><linearGradient id="ac"><stop offset="0" stop-color="#ecf900"/><stop offset="1" stop-color="#f7ff00" stop-opacity=".098"/></linearGradient><radialGradient xlink:href="#X" id="ai" cx="5.854" cy="26.787" fx="5.854" fy="26.787" r="19" gradientTransform="matrix(1.13778 0 0 1.21012 -1.655 -9.415)" gradientUnits="userSpaceOnUse"/><radialGradient xlink:href="#Y" id="ak" cx="43.375" cy="29.885" fx="43.375" fy="29.885" r="19" gradientTransform="matrix(.99967 0 0 1.21012 .008 -9.415)" gradientUnits="userSpaceOnUse"/><radialGradient xlink:href="#Z" id="aj" cx="28.25" cy="45.684" fx="28.25" fy="45.684" r="19" gradientTransform="matrix(.99967 0 0 1.21012 .008 -9.415)" gradientUnits="userSpaceOnUse"/><radialGradient xlink:href="#aa" id="al" gradientUnits="userSpaceOnUse" gradientTransform="matrix(.99967 0 0 1.21012 .008 -9.415)" cx="9.125" cy="37.526" fx="9.125" fy="37.526" r="19"/><radialGradient xlink:href="#ab" id="am" gradientUnits="userSpaceOnUse" gradientTransform="matrix(.94327 -.15691 .06477 .38936 -1.074 31.96)" cx="31.901" cy="46.007" fx="31.901" fy="46.007" r="19"/><radialGradient xlink:href="#ac" id="ap" cx="21.375" cy="35.751" fx="21.375" fy="35.751" r="12.9" gradientTransform="matrix(.99967 0 0 1.19952 .508 -.265)" gradientUnits="userSpaceOnUse"/><linearGradient xlink:href="#ad" id="as" gradientUnits="userSpaceOnUse" gradientTransform="matrix(.99967 0 0 .99967 -9.114 2.007)" x1="21.376" y1="40.501" x2="27.75" y2="32.25"/><filter id="ag" x="-.027" width="1.053" y="-.022" height="1.044" color-interpolation-filters="sRGB"><feGaussianBlur stdDeviation=".42"/></filter><linearGradient xlink:href="#ae" id="at" gradientUnits="userSpaceOnUse" gradientTransform="matrix(.99967 0 0 .99967 -7.989 -7.493)" x1="18.875" y1="23.245" x2="29.125" y2="26.248"/><linearGradient xlink:href="#af" id="au" x1="11.871" y1="37.629" x2="16.748" y2="33.753" gradientUnits="userSpaceOnUse" gradientTransform="matrix(1.31206 0 0 1.31206 -3.497 -11.833)"/></defs><g transform="matrix(.95833 0 0 .95833 1 1)" color="#000" stroke-linecap="round"><path d="M43 31.7c0 10.493-8.507 19-19 19s-19-8.507-19-19 19-27 19-27 19 16.507 19 27z" style="isolation:auto;mix-blend-mode:normal;marker:none" transform="matrix(.99967 0 0 .99967 .008 -3.69)" overflow="visible" fill="#030303" fill-opacity=".314" stroke-width=".099" filter="url(#ag)" enable-background="accumulate"/><path style="isolation:auto;mix-blend-mode:normal;marker:none" d="M42.994 27.499c0 10.49-8.504 18.994-18.994 18.994S5.006 37.989 5.006 27.499 24 .508 24 .508s18.994 16.5 18.994 26.99z" overflow="visible" fill="#fff" fill-opacity=".733" stroke-width=".099" enable-background="accumulate"/><path d="M43.119 27.499c0 10.49-8.504 18.994-18.994 18.994S5.131 37.989 5.131 27.499 24.125.508 24.125.508s18.994 16.5 18.994 26.99z" style="isolation:auto;mix-blend-mode:normal;marker:none" overflow="visible" fill="url(#ah)" stroke-width=".099" enable-background="accumulate"/><path style="isolation:auto;mix-blend-mode:normal;marker:none" d="M42.994 27.499c0 10.49-8.504 18.994-18.994 18.994S5.006 37.989 5.006 27.499 24 .508 24 .508s18.994 16.5 18.994 26.99z" overflow="visible" fill="url(#ai)" stroke-width=".099" enable-background="accumulate"/><path d="M42.994 27.499c0 10.49-8.504 18.994-18.994 18.994S5.006 37.989 5.006 27.499 24 .508 24 .508s18.994 16.5 18.994 26.99z" style="isolation:auto;mix-blend-mode:normal;marker:none" overflow="visible" fill="url(#aj)" stroke-width=".099" enable-background="accumulate"/><path style="isolation:auto;mix-blend-mode:normal;marker:none" d="M42.994 27.499c0 10.49-8.504 18.994-18.994 18.994S5.006 37.989 5.006 27.499 24 .508 24 .508s18.994 16.5 18.994 26.99z" overflow="visible" fill="url(#ak)" stroke-width=".099" enable-background="accumulate"/><path d="M42.994 27.499c0 10.49-8.504 18.994-18.994 18.994S5.006 37.989 5.006 27.499 24 .508 24 .508s18.994 16.5 18.994 26.99z" style="isolation:auto;mix-blend-mode:normal;marker:none" overflow="visible" fill="url(#al)" stroke-width=".099" enable-background="accumulate"/><path style="isolation:auto;mix-blend-mode:normal;marker:none" d="M42.994 27.499c0 10.49-8.504 18.994-18.994 18.994S5.006 37.989 5.006 27.499 24 .508 24 .508s18.994 16.5 18.994 26.99z" overflow="visible" fill="url(#am)" stroke-width=".099" enable-background="accumulate"/><ellipse transform="matrix(.99967 0 0 .99967 .008 -.492)" ry="5" rx="4.5" cy="23" cx="17.375" style="isolation:auto;mix-blend-mode:normal;marker:none" overflow="visible" fill="#fff" fill-opacity=".188" stroke-width=".099" filter="url(#an)" enable-background="accumulate"/><path transform="matrix(.99967 0 0 .99967 .008 -.492)" d="M36.25 26.579c0 6.765-5.485 12.25-12.25 12.25s-12.25-5.485-12.25-12.25C11.75 19.813 24 9.17 24 9.17S36.25 19.813 36.25 26.58z" style="isolation:auto;mix-blend-mode:normal;marker:none" overflow="visible" opacity=".355" fill="#fff" fill-opacity=".503" stroke-width=".099" filter="url(#ao)" enable-background="accumulate"/><path d="M34.746 30.952c0 6.763-5.482 12.246-12.245 12.246-6.764 0-12.246-5.483-12.246-12.246 0-6.764 12.246-17.402 12.246-17.402s12.245 10.638 12.245 17.402z" style="isolation:auto;mix-blend-mode:normal;marker:none" overflow="visible" opacity=".543" fill="url(#ap)" stroke-width=".099" enable-background="accumulate"/><path transform="matrix(.99967 0 0 .99967 .008 -.492)" style="isolation:auto;mix-blend-mode:normal;marker:none" d="M41 29.954c0 6.765-5.485 12.25-12.25 12.25S16.5 36.719 16.5 29.954c0-6.766 12.25-17.408 12.25-17.408S41 23.188 41 29.954z" overflow="visible" opacity=".218" fill="url(#aq)" stroke-width=".099" filter="url(#ar)" enable-background="accumulate"/><path d="M30.873 31.701c0 6.764-5.483 12.246-12.246 12.246-6.763 0-12.246-5.482-12.246-12.246 0-6.763 12.246-17.402 12.246-17.402s12.246 10.64 12.246 17.402z" style="isolation:auto;mix-blend-mode:normal;marker:none" overflow="visible" opacity=".399" fill="url(#as)" stroke-width=".099" enable-background="accumulate"/><ellipse ry="13.378" rx="11.254" cy="22.298" cx="27.292" style="isolation:auto;mix-blend-mode:normal;marker:none" overflow="visible" fill="#fff" fill-opacity=".105" stroke-width=".099" enable-background="accumulate"/><path style="isolation:auto;mix-blend-mode:normal;marker:none" d="M31.998 22.201c0 6.764-5.483 12.246-12.246 12.246-6.763 0-12.246-5.482-12.246-12.246C7.506 15.438 19.752 4.8 19.752 4.8s12.246 10.64 12.246 17.402z" overflow="visible" opacity=".399" fill="url(#at)" stroke-width=".099" enable-background="accumulate"/><circle style="isolation:auto;mix-blend-mode:normal;marker:none" cx="14.375" cy="34.75" r="5.25" overflow="visible" fill="url(#au)" stroke-width=".099" enable-background="accumulate"/><path d="M42.994 27.565c0 10.49-8.504 18.993-18.994 18.993S5.006 38.055 5.006 27.565C5.006 17.075 24 .574 24 .574s18.994 16.5 18.994 26.99z" style="isolation:auto;mix-blend-mode:normal;marker:none" overflow="visible" fill="none" stroke="#fff" stroke-width=".299" stroke-opacity=".44" enable-background="accumulate"/></g></svg>