<svg xmlns="http://www.w3.org/2000/svg" id="Layer_8" viewBox="0 0 128 128" width="128" height="128"><style id="style2">.st0{fill:url(#SVGID_1_)}.st1{fill:url(#SVGID_2_)}.st2{fill:url(#SVGID_3_)}.st3{fill:url(#SVGID_4_)}.st4{display:none}.st5{fill:#fff;stroke:#000;stroke-miterlimit:10}.st6{fill:url(#SVGID_5_)}.st7{fill:url(#SVGID_6_)}.st8{fill:url(#SVGID_7_)}.st9{fill:url(#SVGID_8_)}.st10{fill:url(#SVGID_9_)}.st11{fill:url(#SVGID_10_)}.st12{fill:url(#SVGID_11_)}.st13{fill:url(#SVGID_12_)}.st14{fill:url(#SVGID_13_)}.st15{fill:url(#SVGID_14_)}.st16{fill:url(#SVGID_15_)}.st17{opacity:.5;fill:url(#SVGID_16_)}.st18,.st19{opacity:.5;fill:url(#SVGID_17_)}.st19{fill:url(#SVGID_18_)}.st20{fill:url(#SVGID_19_)}.st21{fill:url(#SVGID_20_)}.st22{fill:url(#SVGID_21_)}.st23{fill:url(#SVGID_22_)}.st24{fill:url(#SVGID_23_)}.st25{fill:url(#SVGID_24_)}.st26{fill:url(#SVGID_25_)}.st27{fill:url(#SVGID_26_)}.st28{fill:url(#SVGID_27_)}</style><g id="g1472" transform="matrix(.1287 0 0 .1287 -1.072 -1.787)"><g id="Layer_12"><radialGradient gradientUnits="userSpaceOnUse" gradientTransform="matrix(.9979 -.06552 .03252 .4954 -30.3 518.389)" r="81.495" cy="963.872" cx="488.234" id="SVGID_1_"><stop id="stop4" offset=".317" stop-color="#727375"/><stop id="stop6" offset=".521" stop-color="#727375"/><stop id="stop8" offset=".724" stop-color="#747576"/><stop id="stop10" offset=".797" stop-color="#7b7c7b"/><stop id="stop12" offset=".85" stop-color="#868784"/><stop id="stop14" offset=".892" stop-color="#979890"/><stop id="stop16" offset=".927" stop-color="#adaea0"/><stop id="stop18" offset=".934" stop-color="#b2b3a4"/><stop id="stop20" offset=".974" stop-color="#b0b1a3"/><stop id="stop22" offset="1" stop-color="#9da5b0"/></radialGradient><path id="path25" d="M450 956.4s3.3 42.5 52.4 40.8c49.1-1.7 60.2-17.7 60.2-17.7s8.8-10.5 6.6-23.2c-2.2-12.7-119.2.1-119.2.1z" class="st0" fill="url(#SVGID_1_)"/><radialGradient gradientUnits="userSpaceOnUse" gradientTransform="matrix(-.9826 .186 -.1329 -.702 1176.535 1505.544)" r="82.471" cy="942.513" cx="530.282" id="SVGID_2_"><stop id="stop27" offset=".521" stop-color="#727375" stop-opacity="0"/><stop id="stop29" offset=".724" stop-color="#747576" stop-opacity=".197"/><stop id="stop31" offset=".797" stop-color="#7b7c7b" stop-opacity=".268"/><stop id="stop33" offset=".85" stop-color="#868784" stop-opacity=".318"/><stop id="stop35" offset=".892" stop-color="#979890" stop-opacity=".359"/><stop id="stop37" offset=".927" stop-color="#adaea0" stop-opacity=".394"/><stop id="stop39" offset=".934" stop-color="#b2b3a4" stop-opacity=".4"/><stop id="stop41" offset=".974" stop-color="#b0b1a3" stop-opacity=".6"/><stop id="stop43" offset="1" stop-color="#b2b3a4"/></radialGradient><path id="path46" d="M450 956.4s3.3 42.5 52.4 40.8c49.1-1.7 60.2-17.7 60.2-17.7s8.8-10.5 6.6-23.2c-2.2-12.7-119.2.1-119.2.1z" class="st1" fill="url(#SVGID_2_)"/><radialGradient gradientUnits="userSpaceOnUse" gradientTransform="matrix(-.8848 .466 -.2036 -.3865 1238.263 1088.004)" r="30.148" cy="970.277" cx="552.171" id="SVGID_3_"><stop id="stop48" offset="0" stop-color="#8b8986"/><stop id="stop50" offset=".717" stop-color="#8b8986" stop-opacity="0"/></radialGradient><path id="path53" d="M450 956.4s3.3 42.5 52.4 40.8c49.1-1.7 60.2-17.7 60.2-17.7s8.8-10.5 6.6-23.2c-2.2-12.7-119.2.1-119.2.1z" class="st2" fill="url(#SVGID_3_)"/><radialGradient gradientUnits="userSpaceOnUse" gradientTransform="matrix(.01973 .9998 -2.2362 .04414 2636.603 399.353)" r="28.923" cy="954.239" cx="512.87" id="SVGID_4_"><stop id="stop55" offset="0" stop-opacity=".4"/><stop id="stop57" offset=".209" stop-color="#131313" stop-opacity=".316"/><stop id="stop59" offset=".631" stop-color="#434445" stop-opacity=".147"/><stop id="stop61" offset="1" stop-color="#727375" stop-opacity="0"/></radialGradient><path id="path64" d="M450 956.4s3.3 42.5 52.4 40.8c49.1-1.7 60.2-17.7 60.2-17.7s8.8-10.5 6.6-23.2c-2.2-12.7-119.2.1-119.2.1z" class="st3" fill="url(#SVGID_4_)"/></g><g id="Layer_5"><linearGradient y2="493.138" x2="511.499" y1="47.659" x1="511.499" gradientUnits="userSpaceOnUse" id="SVGID_5_"><stop id="stop70" offset="0" stop-color="#fffb6c"/><stop id="stop72" offset=".223" stop-color="#fef669"/><stop id="stop74" offset=".492" stop-color="#fae761"/><stop id="stop76" offset=".786" stop-color="#f3cf53"/><stop id="stop78" offset="1" stop-color="#edb847"/></linearGradient><path id="path81" d="M511.5 509.5c219 2 207.9-28.6 209.1-27.8 39.5-47.3 63.3-108.1 63.3-174.5 0-150.4-121.9-272.4-272.4-272.4-150.5 0-272.4 122-272.4 272.4 0 66.4 23.8 127.3 63.3 174.5 1.2-.8-9.9 29.8 209.1 27.8z" class="st6" fill="url(#SVGID_5_)"/><radialGradient gradientUnits="userSpaceOnUse" r="244.564" cy="297.182" cx="511.499" id="SVGID_6_"><stop id="stop83" offset="0" stop-color="#fffef8"/><stop id="stop85" offset=".168" stop-color="#fffde5"/><stop id="stop87" offset=".506" stop-color="#fef9b5"/><stop id="stop89" offset=".542" stop-color="#fef9b0"/><stop id="stop91" offset=".722" stop-color="#fef8ae"/><stop id="stop93" offset=".814" stop-color="#fef6a6"/><stop id="stop95" offset=".885" stop-color="#fdf299"/><stop id="stop97" offset=".946" stop-color="#fcec86"/><stop id="stop99" offset="1" stop-color="#fbe56e"/></radialGradient><path id="path102" d="M511.5 499.4c209.7 1.9 199-27.4 200.1-26.6 37.8-45.2 60.6-103.5 60.6-167.1 0-144-116.7-260.7-260.7-260.7S250.8 161.7 250.8 305.7c0 63.6 22.8 121.8 60.6 167.1 1.1-.8-9.6 28.5 200.1 26.6z" class="st7" fill="url(#SVGID_6_)"/><linearGradient y2="452.526" x2="511.499" y1="489.54" x1="511.499" gradientUnits="userSpaceOnUse" id="SVGID_7_"><stop id="stop104" offset="0" stop-color="#fce46e" stop-opacity=".6"/><stop id="stop106" offset="1" stop-color="#fbe56e" stop-opacity="0"/></linearGradient><path id="path109" d="M511.5 499.4c209.7 1.9 199-27.4 200.1-26.6 37.8-45.2 60.6-103.5 60.6-167.1 0-144-116.7-260.7-260.7-260.7S250.8 161.7 250.8 305.7c0 63.6 22.8 121.8 60.6 167.1 1.1-.8-9.6 28.5 200.1 26.6z" class="st8" fill="url(#SVGID_7_)"/></g><g id="Layer_6"><linearGradient y2="897.497" x2="617.053" y1="897.497" x1="398.736" gradientUnits="userSpaceOnUse" id="SVGID_8_"><stop id="stop112" offset="0" stop-color="#999795"/><stop id="stop114" offset=".149" stop-color="#9b9a98"/><stop id="stop116" offset=".257" stop-color="#a3a2a1"/><stop id="stop118" offset=".351" stop-color="#b1b1b1"/><stop id="stop120" offset=".424" stop-color="#c0c2c3"/><stop id="stop122" offset=".51" stop-color="#c0c2c3"/><stop id="stop124" offset=".594" stop-color="#c0c2c3"/><stop id="stop126" offset=".727" stop-color="#aeafae"/><stop id="stop128" offset=".887" stop-color="#9f9d9c"/><stop id="stop130" offset="1" stop-color="#999795"/></linearGradient><path id="path133" d="M405.6 835.4s-19.4 13.4 2.3 30.3c-22 15.2 0 31.8 0 31.8s-25.8 20.5 7.1 35.6c22 25.3 35.6 23 35.6 23s50 20.3 123 .1C612 945 610 920.8 610 920.8s26.8-12.9 8.8-38.4c15.4-18.9 0-32.8 0-32.8s8.9-8.9 6.8-16.7c-2.1-7.9-220 2.5-220 2.5z" class="st9" fill="url(#SVGID_8_)"/></g><g id="Layer_22"><linearGradient y2="940.95" x2="550.745" y1="930.648" x1="589.662" gradientUnits="userSpaceOnUse" id="SVGID_9_"><stop id="stop136" offset=".283" stop-color="#a4a197"/><stop id="stop138" offset=".87" stop-color="#a9a7a3" stop-opacity=".426"/><stop id="stop140" offset=".984" stop-color="#aaa8a6" stop-opacity=".314"/><stop id="stop142" offset="1" stop-color="#aaa8a6" stop-opacity=".3"/></linearGradient><path id="path145" d="M600.2 923.8s-27.4 13.1-47.4 13.9c-20.1.7 8.4 2.6 8.4 2.6s39-5.5 39-10.9v-5.6z" class="st10" fill="url(#SVGID_9_)"/><linearGradient y2="937.381" x2="481.422" y1="934.461" x1="429.239" gradientUnits="userSpaceOnUse" id="SVGID_10_"><stop id="stop147" offset=".056" stop-color="#a4a197"/><stop id="stop149" offset="1" stop-color="#aaa8a6" stop-opacity=".3"/></linearGradient><path id="path152" d="M416.1 928.6s24.1 10.4 59.5 10c35.4-.4-15 7.3-54.7-1.8-14.7-10.5-4.8-8.2-4.8-8.2z" class="st11" fill="url(#SVGID_10_)"/></g><g id="Layer_21"><linearGradient y2="927.029" x2="599.684" y1="964.241" x1="562.237" gradientUnits="userSpaceOnUse" id="SVGID_11_"><stop id="stop155" offset=".056" stop-color="#fefefe" stop-opacity="0"/><stop id="stop157" offset=".432" stop-color="#ccd5e0" stop-opacity=".399"/><stop id="stop159" offset=".809" stop-color="#a1b1c5" stop-opacity=".798"/><stop id="stop161" offset="1" stop-color="#90a3bb"/></linearGradient><path id="path164" d="M595.6 915.8s-2.1 27.6-26.2 37.1c-24.1 9.5 10.8 4.1 22.1-4.4 8.7-5.6 17.9-13.7 18.4-26.7s-14.3-6-14.3-6z" class="st12" fill="url(#SVGID_11_)"/></g><g id="Layer_17"><linearGradient y2="869.026" x2="544.4" y1="839.908" x1="622.959" gradientUnits="userSpaceOnUse" id="SVGID_12_"><stop id="stop167" offset="0" stop-color="#95aac3"/><stop id="stop169" offset=".369" stop-color="#bfdae6"/><stop id="stop171" offset=".454" stop-color="#d0dee4" stop-opacity=".912"/><stop id="stop173" offset=".55" stop-color="#dae0e3" stop-opacity=".811"/><stop id="stop175" offset=".657" stop-color="#dee1e3" stop-opacity=".7"/><stop id="stop177" offset="1" stop-color="#e0e2e3" stop-opacity="0"/></linearGradient><path id="path180" d="M544.9 865.7c28 1.3 47.8-8.6 49.4-9.6-10.2 10.3-39.7 17.9-39.7 17.9s46.1-3.6 63.4-22.5c8.2-9.5 9.4-17.8 6.4-20.2-12-9.6-93.1 30.6-79.5 34.4z" class="st13" fill="url(#SVGID_12_)"/></g><g id="Layer_18"><linearGradient y2="914.362" x2="592.721" y1="914.362" x1="398.315" gradientUnits="userSpaceOnUse" id="SVGID_13_"><stop id="stop183" offset="0" stop-color="#90a3bb"/><stop id="stop185" offset=".069" stop-color="#92a6bd"/><stop id="stop187" offset=".12" stop-color="#9aafc4"/><stop id="stop189" offset=".164" stop-color="#a7bfcf"/><stop id="stop191" offset=".204" stop-color="#b9d5df"/><stop id="stop193" offset=".242" stop-color="#d1f2f4"/><stop id="stop195" offset=".244" stop-color="#d2f3f5"/><stop id="stop197" offset=".305" stop-color="#d8f4f6"/><stop id="stop199" offset=".385" stop-color="#e8f9fa"/><stop id="stop201" offset=".46" stop-color="#fefefe"/><stop id="stop203" offset=".944" stop-color="#fefefe" stop-opacity="0"/></linearGradient><path id="path206" d="M425.1 890.2s8.8.5 8.3 5.4-15.6 2.5-15.6 2.5 11.3 12.1 13.8 16.4c2.5 4.3 60 15 84.3 11.6 24.2-3.3 62.3-6.5 67-11.5 4.6-5 20.1 5-.6 6.1-20.7 1.2-90.6 18.9-131.4 10.6-40.8-8.3-29.7 8.8-29.7 8.8s-2.9-4-6.2-7.2c-22.9-10.2-19-25.2-7.1-35.6 9.3-14.1 17.2-7.1 17.2-7.1z" class="st14" fill="url(#SVGID_13_)"/></g><g id="Layer_20"><linearGradient y2="951.504" x2="592.417" y1="951.504" x1="433.249" gradientUnits="userSpaceOnUse" id="SVGID_14_"><stop id="stop209" offset=".036" stop-color="#fefefe" stop-opacity="0"/><stop id="stop211" offset=".46" stop-color="#fefefe"/><stop id="stop213" offset=".944" stop-color="#fefefe" stop-opacity="0"/></linearGradient><path id="path216" d="M435.1 945.5s22.6 17.7 75.6 15.2c53-2.6 66.3-9.6 76.6-19.6 10.3-10 4.4 7.7-13.1 13.5s-39 11-65.1 10.3c-26.1-.7-73.8-10-75.4-15.4-1.6-5.4 1.4-4 1.4-4z" class="st15" fill="url(#SVGID_14_)"/></g><g id="Layer_14"><linearGradient y2="863.803" x2="456.817" y1="850.448" x1="400.28" gradientUnits="userSpaceOnUse" id="SVGID_15_"><stop id="stop219" offset="0" stop-color="#93a6bb"/><stop id="stop221" offset=".369" stop-color="#a2b7c8"/><stop id="stop223" offset=".69" stop-color="#abc0cf"/><stop id="stop225" offset=".705" stop-color="#aec2cf" stop-opacity=".977"/><stop id="stop227" offset=".815" stop-color="#c0cbce" stop-opacity=".815"/><stop id="stop229" offset=".894" stop-color="#c7cfce" stop-opacity=".7"/><stop id="stop231" offset=".902" stop-color="#c8cfce" stop-opacity=".661"/><stop id="stop233" offset=".999" stop-color="#cdd2ce" stop-opacity=".2"/></linearGradient><path id="path236" d="M415.3 838.4s-11.1 8.1 4.6 12.4c15.7 4.3 38.7 5.5 38.7 5.5s4.4 5-2.7 4.2c-7.1-.9-36.2-3.5-36.2-3.5s-10.3 0-1.5 5.6 14.2 9.3 14.2 9.3 4.9 6-2.5 3-14.1-4.8-26.1-12.8c-6.4-8-11-14.6 1.7-26.8 9.3-1.1 9.8 3.1 9.8 3.1z" class="st16" fill="url(#SVGID_15_)"/></g><g id="Layer_16"><linearGradient y2="879.824" x2="547.215" y1="879.824" x1="436.233" gradientUnits="userSpaceOnUse" id="SVGID_16_"><stop id="stop239" offset="0" stop-color="#484a4c"/><stop id="stop241" offset="1" stop-color="#484a4c" stop-opacity="0"/></linearGradient><path id="path244" d="M436.2 876.9s26.2 11.4 111 2.6c-52.8 3.3-111-2.6-111-2.6z" class="st17" opacity=".5" fill="url(#SVGID_16_)"/><linearGradient y2="876.299" x2="434.682" y1="863.528" x1="585.22" gradientUnits="userSpaceOnUse" id="SVGID_17_"><stop id="stop246" offset="0" stop-color="#484a4c"/><stop id="stop248" offset="1" stop-color="#484a4c" stop-opacity="0"/></linearGradient><path id="path251" d="M473.9 870s92.2 2.3 120.4-14c-34.5 30.8-120.4 14-120.4 14z" class="st18" opacity=".5" fill="url(#SVGID_17_)"/><linearGradient y2="901.122" x2="583.716" y1="901.122" x1="453.758" gradientUnits="userSpaceOnUse" id="SVGID_18_"><stop id="stop253" offset="0" stop-color="#484a4c" stop-opacity="0"/><stop id="stop255" offset="1" stop-color="#484a4c"/></linearGradient><path id="path258" d="M583.7 893.6s-70.6 14.7-130 6.8c.1.1 55.1 22.4 130-6.8z" class="st19" opacity=".5" fill="url(#SVGID_18_)"/></g><g id="Layer_19"><linearGradient y2="921.85" x2="540.562" y1="900.35" x1="618.619" gradientUnits="userSpaceOnUse" id="SVGID_19_"><stop id="stop261" offset="0" stop-color="#90a3bb"/><stop id="stop263" offset=".078" stop-color="#99aec3"/><stop id="stop265" offset=".215" stop-color="#b0cad7"/><stop id="stop267" offset=".374" stop-color="#d2f3f5"/><stop id="stop269" offset="1" stop-color="#d2f3f5" stop-opacity="0"/></linearGradient><path id="path272" d="M596.3 891.2s2.9 7.5-9.1 10.4c-12 2.9-18.7 9.1-22.8 9.1-4.2 0-28.7 6.2-28.7 6.2s-9.1 5.4 6.2 6.2c15.4.8 54.7-6.2 54.7-6.2s7.6 1.8 2.2 6.3c-5.4 4.5 17.3-2.4 22-12.5 7.4-7.9 3.8-20.2-2.1-28.4-5.8-2.1-22.4 8.9-22.4 8.9z" class="st20" fill="url(#SVGID_19_)"/></g><g id="Layer_15"><linearGradient y2="879.066" x2="625.528" y1="879.066" x1="398.062" gradientUnits="userSpaceOnUse" id="SVGID_20_"><stop id="stop275" offset="0" stop-color="#9cb1c7"/><stop id="stop277" offset=".022" stop-color="#a0b6cb"/><stop id="stop279" offset=".049" stop-color="#adc5d7"/><stop id="stop281" offset=".078" stop-color="#c2ddea"/><stop id="stop283" offset=".087" stop-color="#c9e5f1"/><stop id="stop285" offset=".235" stop-color="#c9e5f1"/><stop id="stop287" offset=".286" stop-color="#d9ebf3"/><stop id="stop289" offset=".357" stop-color="#e9f1f5"/><stop id="stop291" offset=".439" stop-color="#f2f5f6"/><stop id="stop293" offset=".554" stop-color="#f5f6f6"/><stop id="stop295" offset=".604" stop-color="#e9f1f5"/><stop id="stop297" offset=".72" stop-color="#d2e8f2"/><stop id="stop299" offset=".792" stop-color="#c9e5f1"/><stop id="stop301" offset="1" stop-color="#9cb1c7"/></linearGradient><path id="path304" d="M407.8 865.8s16 8.8 18.1 11.3c2.1 2.5 4.1 5.7 3.3 8-.8 2.3 44.8 9.2 65.8 8.5 21-.7 83.6-12.9 84.6-14.6 1-1.7-6.3-3.5-1.4-5.9 4.9-2.4 36.3-13.2 40.6-23.6 5.5 5.2 12 18.7 0 32.8-1.4.9-22.9 14.9-45.4 17.9l27.4-13.3s-85.3 9.8-130.7 8.1c-45.4-1.7-56.8-11.3-55.4.5 11.7 6.2 19.1 13.1 19.1 13.1s-18.7-3-24.8-9.8c-7.8-7.5-19.5-20.4-1.2-33z" class="st21" fill="url(#SVGID_20_)"/></g><g id="Layer_13"><linearGradient y2="846.513" x2="621.772" y1="846.513" x1="405.229" gradientUnits="userSpaceOnUse" id="SVGID_21_"><stop id="stop307" offset="0" stop-color="#fff" stop-opacity="0"/><stop id="stop309" offset=".005" stop-color="#e3e4e4" stop-opacity=".032"/><stop id="stop311" offset=".013" stop-color="#bfc0c0" stop-opacity=".083"/><stop id="stop313" offset=".022" stop-color="#9fa0a1" stop-opacity=".14"/><stop id="stop315" offset=".032" stop-color="#838586" stop-opacity=".202"/><stop id="stop317" offset=".043" stop-color="#6d6f71" stop-opacity=".273"/><stop id="stop319" offset=".056" stop-color="#5c5e60" stop-opacity=".356"/><stop id="stop321" offset=".072" stop-color="#515354" stop-opacity=".458"/><stop id="stop323" offset=".094" stop-color="#4a4c4e" stop-opacity=".602"/><stop id="stop325" offset=".156" stop-color="#484a4c"/><stop id="stop327" offset=".205" stop-color="#484a4c"/><stop id="stop329" offset=".501" stop-color="#484a4c"/><stop id="stop331" offset=".805" stop-color="#484a4c"/><stop id="stop333" offset=".883" stop-color="#4a4c4e" stop-opacity=".602"/><stop id="stop335" offset=".911" stop-color="#515354" stop-opacity=".458"/><stop id="stop337" offset=".931" stop-color="#5c5e60" stop-opacity=".356"/><stop id="stop339" offset=".947" stop-color="#6d6f71" stop-opacity=".273"/><stop id="stop341" offset=".961" stop-color="#838586" stop-opacity=".202"/><stop id="stop343" offset=".973" stop-color="#9fa0a1" stop-opacity=".14"/><stop id="stop345" offset=".984" stop-color="#bfc0c0" stop-opacity=".083"/><stop id="stop347" offset=".994" stop-color="#e3e4e4" stop-opacity=".032"/><stop id="stop349" offset="1" stop-color="#fff" stop-opacity="0"/></linearGradient><path id="path352" d="M621.8 833.2s-15.6 26.9-121.7 26.5c-106.1-.4-94.5-22.6-94.5-22.6z" class="st22" fill="url(#SVGID_21_)"/></g><g id="Layer_4"><linearGradient y2="840.479" x2="511.499" y1="513.842" x1="511.499" gradientUnits="userSpaceOnUse" id="SVGID_22_"><stop id="stop355" offset="0" stop-color="#dfe0e4"/><stop id="stop357" offset=".111" stop-color="#dfe0e4"/><stop id="stop359" offset=".227" stop-color="#e7e8ec"/><stop id="stop361" offset=".442" stop-color="#f0f0f4"/><stop id="stop363" offset=".815" stop-color="#f2f2f6"/></linearGradient><path id="path366" d="M718.5 480.5s12 31-207 29c-219 2-207-29-207-29s-15 7 0 18 71 243 54 291c15 8 30 32 30 32s3 2-3 4 36 22 126 22 132-20 126-22-3-4-3-4 15-24 30-32c-17-48 39-280 54-291s0-18 0-18z" class="st23" fill="url(#SVGID_22_)"/></g><g id="Layer_4_copy"><radialGradient gradientUnits="userSpaceOnUse" gradientTransform="matrix(-.00165 -1 .5695 -.00094 28.773 1351.632)" r="421.87" cy="842.89" cx="507.95" id="SVGID_23_"><stop id="stop369" offset="0" stop-color="#f3f3f7" stop-opacity=".03"/><stop id="stop371" offset="1" stop-color="#d7d8dc"/></radialGradient><path id="path374" d="M718.5 480.5s12 31-207 29c-219 2-207-29-207-29s-15 7 0 18 71 243 54 291c15 8 30 32 30 32s3 2-3 4 36 22 126 22 132-20 126-22-3-4-3-4 15-24 30-32c-17-48 39-280 54-291s0-18 0-18z" class="st24" fill="url(#SVGID_23_)"/></g><g id="Layer_7"><linearGradient y2="644.017" x2="641.864" y1="651.215" x1="720.016" gradientUnits="userSpaceOnUse" id="SVGID_24_"><stop id="stop377" offset=".162" stop-color="#d0d4db"/><stop id="stop379" offset=".978" stop-color="#d0d4db" stop-opacity=".026"/><stop id="stop381" offset="1" stop-color="#d0d4db" stop-opacity="0"/></linearGradient><path id="path384" d="M684.3 499s-71.9 267.1-44.9 315.3c7.3-7.2 15-20.7 25.1-24.9-11.5-61.6 29-245.5 54-291 .8-3.2 6.7-3.5 6.7-9.6 1-4.1-6.7-8.4-6.7-8.4s2.1 6.4-12 11.8c-11.6 5.4-22.2 6.8-22.2 6.8z" class="st25" fill="url(#SVGID_24_)"/></g><g id="Layer_9"><linearGradient y2="811.868" x2="629.79" y1="532.049" x1="667.845" gradientUnits="userSpaceOnUse" id="SVGID_25_"><stop id="stop387" offset="0" stop-color="#dfe1e6" stop-opacity=".7"/><stop id="stop389" offset="1" stop-color="#dfe1e6" stop-opacity="0"/></linearGradient><path id="path392" d="M676.1 501.6s-79.3 244.1-38.5 319.8l5.2-6.6c-27-66.4 44.6-315.7 44.6-315.7z" class="st26" fill="url(#SVGID_25_)"/></g><g id="Layer_4_copy_2"><radialGradient gradientUnits="userSpaceOnUse" gradientTransform="matrix(.00471 1 -8.741 .0412 4839.67 -15.425)" r="115.955" cy="497.594" cx="492.521" id="SVGID_26_"><stop id="stop395" offset="0" stop-color="#fdfeff"/><stop id="stop397" offset=".059" stop-color="#fdfeff"/><stop id="stop399" offset=".069" stop-color="#fdfeff"/><stop id="stop401" offset=".136" stop-color="#fbfcfd" stop-opacity=".891"/><stop id="stop403" offset=".162" stop-color="#f4f5f7" stop-opacity=".849"/><stop id="stop405" offset=".18" stop-color="#e8e9eb" stop-opacity=".819"/><stop id="stop407" offset=".192" stop-color="#dcdde0" stop-opacity=".8"/><stop id="stop409" offset=".295" stop-color="#dddee1" stop-opacity="0"/><stop id="stop411" offset="1" stop-color="#dfe0e4" stop-opacity="0"/></radialGradient><path id="path414" d="M718.5 480.5s12 31-207 29c-219 2-207-29-207-29s-15 7 0 18c2.4 1.8 14.4 39.3 18.6 51.1 49.1 20.8 150.8 11.3 350.5-29 17.9-3.6 25.5-17.7 45-22.1 14.9-11-.1-18-.1-18z" class="st27" fill="url(#SVGID_26_)"/></g><g id="Layer_11"><linearGradient y2="635.09" x2="357.681" y1="636.249" x1="348.404" gradientUnits="userSpaceOnUse" id="SVGID_27_"><stop id="stop417" offset="0" stop-color="#dde9f3" stop-opacity=".6"/><stop id="stop419" offset=".019" stop-color="#dde9f3" stop-opacity=".586"/><stop id="stop421" offset=".135" stop-color="#dde9f3" stop-opacity=".5"/></linearGradient><path id="path424" d="M304.5 480.5s-15 7 0 18 71 243 54 291c2.7 1.5 5.5 3.4 8.1 5.7 0 0 0-.1.1-.1 20.6-55.8-42.3-289.5-49.9-294.2-5.4-3.3-7.2-9.5-7.9-12.9-5.6-4.3-4.4-7.5-4.4-7.5z" class="st28" fill="url(#SVGID_27_)"/></g></g></svg>