<svg xmlns="http://www.w3.org/2000/svg" xmlns:xlink="http://www.w3.org/1999/xlink" height="128" viewBox="0 0 128 128" width="128"><defs><linearGradient id="c"><stop offset="0" stop-color="#b0b0b0"/><stop offset=".086" stop-color="#fcfcfc"/><stop offset=".416" stop-color="#b5b5b5"/><stop offset=".644" stop-color="#fff"/><stop offset="1" stop-color="#fff"/></linearGradient><linearGradient id="b"><stop offset="0" stop-color="#fb3737"/><stop offset="1" stop-color="#d01111" stop-opacity=".574"/></linearGradient><linearGradient id="a"><stop offset="0" stop-color="#424349"/><stop offset="1" stop-color="#27272a"/></linearGradient><linearGradient xlink:href="#a" id="d" x1="24.535" y1="7.996" x2="24.705" y2="38.25" gradientUnits="userSpaceOnUse" gradientTransform="translate(-4.426 -85.425) scale(2.84145)"/><linearGradient xlink:href="#b" id="e" x1="-21.096" y1="58.687" x2="28.809" y2="58.687" gradientUnits="userSpaceOnUse"/><linearGradient xlink:href="#c" id="f" x1="68.43" y1="45.537" x2="68.43" y2="-69.545" gradientUnits="userSpaceOnUse"/></defs><g transform="translate(0 76.8)" color="#000"><path style="isolation:auto;mix-blend-mode:normal;marker:none" d="M128-12.8a64 64 0 0 1-64 64 64 64 0 0 1-64-64 64 64 0 0 1 64-64 64 64 0 0 1 64 64z" display="block" overflow="visible" fill-opacity=".116" stroke-width="2.778"/><path style="isolation:auto;mix-blend-mode:normal;marker:none" d="M123.344-12.8A59.344 59.344 0 0 1 64 46.544 59.344 59.344 0 0 1 4.656-12.8 59.344 59.344 0 0 1 64-72.144 59.344 59.344 0 0 1 123.344-12.8z" overflow="visible" fill="url(#d)" stroke-width="3.307"/><path style="isolation:auto;mix-blend-mode:normal;marker:none" d="M65.872-16.752L95.28-46.16c1.086-1.086 2.397-1.524 2.94-.98.543.543.106 1.854-.98 2.94L67.832-14.792c-1.086 1.086-2.398 1.523-2.94.98-.544-.543-.106-1.854.98-2.94z" overflow="visible" fill="#fff" stroke-width="1.714" stroke-linecap="round"/><path style="isolation:auto;mix-blend-mode:normal;marker:none" d="M35.467-20.991l21.425 5.74c2.967.795 5.036 2.63 4.638 4.114-.397 1.483-3.106 2.038-6.073 1.243l-21.425-5.741c-2.968-.795-5.037-2.63-4.64-4.114.398-1.483 3.107-2.038 6.075-1.242z" overflow="visible" fill-opacity=".628" stroke-width="1.714" stroke-linecap="round"/><path style="isolation:auto;mix-blend-mode:normal;marker:none" d="M36.202-22.952l21.425 5.74c2.967.796 5.036 2.63 4.639 4.114-.398 1.484-3.107 2.038-6.074 1.243l-21.425-5.74c-2.968-.796-5.036-2.63-4.639-4.114.398-1.484 3.107-2.038 6.074-1.243z" overflow="visible" fill="#fff" stroke-width="1.714" stroke-linecap="round"/><path transform="rotate(-75.084) skewX(-.009)" style="isolation:auto;mix-blend-mode:normal;marker:none" d="M-19.71 57.993h47.133c.768 0 1.386.31 1.386.694 0 .384-.618.693-1.386.693H-19.71c-.768 0-1.386-.31-1.386-.693 0-.384.618-.694 1.386-.694z" overflow="visible" fill="url(#e)" stroke-width="1.714" stroke-linecap="round"/><path style="isolation:auto;mix-blend-mode:normal;marker:none" d="M69.545-12.8A5.545 5.545 0 0 1 64-7.255a5.545 5.545 0 0 1-5.545-5.545A5.545 5.545 0 0 1 64-18.345a5.545 5.545 0 0 1 5.545 5.545z" overflow="visible" fill="#fff" stroke-width="1.714" stroke-linecap="round"/><circle style="isolation:auto;mix-blend-mode:normal;marker:none" cx="64" cy="-12.8" r="2.359" overflow="visible" fill="#3c3c50" fill-opacity=".632" stroke-width="1.714" stroke-linecap="round"/><path d="M100.037-52.465l-1.18 2.852c.8.757 1.572 1.532 2.316 2.335l2.83-1.173a53.243 53.243 0 0 0-3.966-4.014zM66.519-66.327a53.252 53.252 0 0 0-5.64.034l1.173 2.83a50.322 50.322 0 0 1 3.289-.017zm-39.005 14.26a53.212 53.212 0 0 0-3.717 3.813l2.847 1.178c.672-.732 1.334-1.473 2.043-2.16zm90.05 37.256l-2.83 1.174c.016.987-.044 1.978-.086 2.97l2.852 1.18a53.22 53.22 0 0 0 .064-5.324zm-107.133.28a53.247 53.247 0 0 0 .073 4.854l2.83-1.174a50.259 50.259 0 0 1-.05-2.5zm89.85 37.174a50.24 50.24 0 0 1-1.802 1.733l1.174 2.83a53.25 53.25 0 0 0 3.48-3.383zm-72.714-.132l-2.83 1.174a53.25 53.25 0 0 0 3.226 3.18l1.18-2.852c-.528-.5-1.073-.982-1.576-1.502zm37.269 15.42c-.725.011-1.452-.027-2.18-.046l-1.177 2.847c1.516.07 3.025.086 4.53.028l-1.173-2.83z" style="line-height:normal;text-indent:0;text-align:start;text-decoration-line:none;text-decoration-style:solid;text-decoration-color:#000;text-transform:none;isolation:auto;mix-blend-mode:normal;marker:none" font-weight="400" font-family="sans-serif" white-space="normal" display="block" overflow="visible" fill="#c9d8dd" fill-opacity=".484" stroke-width="2.909"/><path style="isolation:auto;mix-blend-mode:normal;marker:none" d="M121.76-12.423A57.8 56.917 0 0 0 64-68.546 57.8 56.917 0 0 0 6.24-12.753a57.8 56.917 0 0 1-.04-.794A57.8 56.917 0 0 1 64-70.464a57.8 56.917 0 0 1 57.8 56.917 57.8 56.917 0 0 1-.04 1.124z" overflow="visible" fill="#0b0b0b" stroke-width="3.196"/><path style="line-height:normal;font-variant-ligatures:normal;font-variant-position:normal;font-variant-caps:normal;font-variant-numeric:normal;font-variant-alternates:normal;font-feature-settings:normal;text-indent:0;text-align:start;text-decoration-line:none;text-decoration-style:solid;text-decoration-color:#000;text-transform:none;text-orientation:mixed;shape-padding:0;isolation:auto;mix-blend-mode:normal;marker:none" d="M64-73.797c-33.668 0-60.998 27.328-60.998 60.996 0 33.668 27.33 60.998 60.998 60.998s60.998-27.33 60.998-60.998S97.668-73.797 64-73.797zm0 3.307c31.88 0 57.69 25.808 57.69 57.69 0 31.88-25.81 57.69-57.69 57.69S6.31 19.08 6.31-12.8c0-31.882 25.81-57.69 57.69-57.69z" font-weight="400" font-family="sans-serif" white-space="normal" overflow="visible" fill="url(#f)" stroke-width="3.307"/></g></svg>