<svg xmlns="http://www.w3.org/2000/svg" xmlns:xlink="http://www.w3.org/1999/xlink" height="51.2" viewBox="0 0 48 48" width="51.2"><defs><linearGradient id="a"><stop offset="0" stop-color="#858585"/><stop offset="1" stop-color="#a8a8a8"/></linearGradient><linearGradient xlink:href="#a" id="G" gradientUnits="userSpaceOnUse" x1="-26.73" y1="58.686" x2="-26.73" y2="22.726"/><linearGradient id="C"><stop offset="0" stop-color="#a7a7a7"/><stop offset="1" stop-color="#2a2a2a"/></linearGradient><linearGradient id="B"><stop offset="0" stop-color="#111"/><stop offset=".436" stop-color="#494949"/><stop offset="1" stop-color="#939393"/></linearGradient><linearGradient id="u"><stop offset="0" stop-color="#c0f5a5"/><stop offset="1" stop-color="#f7f7f9"/></linearGradient><linearGradient id="t"><stop offset="0"/><stop offset="1" stop-color="#3e383e"/></linearGradient><linearGradient id="s"><stop offset="0" stop-color="#ff9a00"/><stop offset="1" stop-color="#fdca00"/></linearGradient><linearGradient id="r"><stop offset="0" stop-color="#adcff7"/><stop offset="1" stop-color="#efefff"/></linearGradient><linearGradient id="q"><stop offset="0" stop-color="#c6bede"/><stop offset="1" stop-color="#f7e7ff"/></linearGradient><linearGradient id="o"><stop offset="0" stop-color="#a69fc6"/><stop offset="1" stop-color="#fffbff"/></linearGradient><linearGradient id="p"><stop offset="0" stop-color="#5228ad"/><stop offset=".696" stop-color="#4f28a7"/><stop offset=".849" stop-color="#4b289f"/><stop offset="1" stop-color="#4a289c"/></linearGradient><linearGradient id="n"><stop offset="0" stop-color="#fff"/><stop offset=".714" stop-color="#fff"/><stop offset="1"/></linearGradient><linearGradient id="m"><stop offset="0"/><stop offset="1" stop-color="#211821"/></linearGradient><linearGradient id="l"><stop offset="0" stop-color="#ded3d6"/><stop offset="1" stop-color="#f7ebef"/></linearGradient><linearGradient id="k"><stop offset="0" stop-color="#ded3d6"/><stop offset="1" stop-color="#efebef"/></linearGradient><linearGradient id="h"><stop offset="0" stop-color="#ffe7f7"/><stop offset="1" stop-color="#ffc3ef"/></linearGradient><linearGradient id="j"><stop offset="0" stop-color="#943410"/><stop offset="1" stop-color="#dc7952"/></linearGradient><linearGradient id="i"><stop offset="0" stop-color="#a53810"/><stop offset="1" stop-color="#e75911"/></linearGradient><linearGradient id="g"><stop offset="0" stop-color="#c16d16"/><stop offset="1" stop-color="#ff8e31"/></linearGradient><linearGradient id="f"><stop offset="0" stop-color="#92948f" stop-opacity="0"/><stop offset=".428" stop-color="#9b9e98"/><stop offset="1" stop-color="#939690" stop-opacity="0"/></linearGradient><linearGradient id="e"><stop offset="0" stop-color="#fff" stop-opacity="0"/><stop offset=".459" stop-color="#fff"/><stop offset="1" stop-color="#fff" stop-opacity="0"/></linearGradient><linearGradient id="d"><stop offset="0"/><stop offset=".061" stop-color="#1a1a1a"/><stop offset=".165" stop-color="#333"/><stop offset=".554" stop-color="#4d4d4d"/><stop offset="1" stop-color="#999"/></linearGradient><linearGradient id="c"><stop offset="0" stop-color="#1a1a1a"/><stop offset="1" stop-color="gray"/></linearGradient><linearGradient id="b"><stop offset="0" stop-color="#333"/><stop offset="1" stop-color="#e0e0dd" stop-opacity="0"/></linearGradient><linearGradient id="v"><stop offset="0" stop-color="#2a2a2a"/><stop offset="1" stop-color="#1a1a1a"/></linearGradient><linearGradient id="w"><stop offset="0" stop-color="#c7cbc4"/><stop offset=".198" stop-color="#828480"/><stop offset=".635" stop-color="#fff"/><stop offset="1" stop-color="#c1c4be"/></linearGradient><linearGradient id="x"><stop offset="0" stop-color="gray"/><stop offset="1" stop-color="#101010"/></linearGradient><linearGradient id="y"><stop offset="0" stop-color="#010101"/><stop offset="1" stop-color="#101213"/></linearGradient><linearGradient id="z"><stop offset="0" stop-color="#d7d9d5"/><stop offset="1" stop-color="#fff"/></linearGradient><linearGradient id="A"><stop offset="0" stop-color="#fff"/><stop offset="1" stop-color="#b3b3b3"/></linearGradient><linearGradient xlink:href="#D" id="F" gradientUnits="userSpaceOnUse" gradientTransform="translate(59.595 -22.496) scale(.69923)" x1="-40.986" y1="85.244" x2="-40.986" y2="40.074"/><linearGradient id="D"><stop offset="0" stop-color="#cde5fb"/><stop offset="1" stop-color="#f5fdff"/></linearGradient><filter id="E" x="-.068" width="1.135" y="-.077" height="1.154" color-interpolation-filters="sRGB"><feGaussianBlur stdDeviation="1.117"/></filter></defs><path d="M24 5.14c-10.956 0-19.841 7.292-19.841 16.275 0 8.982 8.885 16.254 19.841 16.254 1.285 0 2.537-.094 3.752-.282.585-.172 1.18-.092 1.603.033 2.193 1.343 4.575 2.48 6.69 2.534-1.171-1.441-2.094-2.547-2.02-3.99.071-.467.4-.721.85-.956 5.395-2.906 8.966-7.904 8.966-13.592 0-8.983-8.885-16.274-19.841-16.274z" transform="matrix(1.09027 0 0 1.09027 -2.166 -2.035)" fill="#0f1a22" fill-opacity=".21" filter="url(#E)"/><path d="M24 3.79c-11.945 0-21.632 7.95-21.632 17.744 0 9.793 9.687 17.72 21.632 17.72 1.4 0 2.766-.102 4.09-.307.639-.188 1.288-.1 1.749.037 2.39 1.464 4.987 2.703 7.293 2.763-1.277-1.572-2.282-2.778-2.202-4.352.078-.508.437-.786.927-1.04 5.882-3.17 9.775-8.619 9.775-14.82C45.632 11.74 35.945 3.79 24 3.79z" fill="url(#F)" stroke="#0f598b" stroke-width="1.194" stroke-opacity=".452"/><g fill="#1d76b0" stroke-width=".617" stroke-opacity=".285"><path d="M13.182 18.3a3.151 3.151 0 1 0 .002 6.303 3.151 3.151 0 0 0-.002-6.303zM24.007 18.3a3.151 3.151 0 1 0 .001 6.303 3.151 3.151 0 0 0-.001-6.303zM34.818 18.3a3.151 3.151 0 1 0 .001 6.303 3.151 3.151 0 0 0-.001-6.303z"/></g><g transform="translate(-1.875 1.812)" color="#000" stroke-width=".618" stroke-linecap="round" stroke-opacity=".771"><circle style="isolation:auto;mix-blend-mode:normal;marker:none" cx="10.312" cy="7.35" r="8.438" overflow="visible" fill-opacity=".471" enable-background="accumulate"/><circle r="8.438" cy="6.579" cx="10.312" style="isolation:auto;mix-blend-mode:normal;marker:none" overflow="visible" fill="#3682ca" enable-background="accumulate"/></g><g style="line-height:0%;-inkscape-font-specification:'Bitstream Vera Sans'"><path d="M7.162 12.057q0-.318.316-.54.316-.222.79-.222.457 0 .781.222t.324.54q0 .312-.324.534-.324.221-.781.221-.474 0-.79-.215-.316-.222-.316-.54zm.033-7.892H9.34L8.775 8.83v1.431H7.752V8.83z" style="line-height:10;-inkscape-font-specification:'DejaVu Serif'" font-size="14.075" font-family="DejaVu Serif" font-weight="400" letter-spacing="0" word-spacing="0" fill="#fff" stroke-width=".937"/></g></svg>