<svg xmlns="http://www.w3.org/2000/svg" xmlns:xlink="http://www.w3.org/1999/xlink" height="48" viewBox="0 0 47.999999 47.999999" width="48"><defs><linearGradient id="W"><stop offset="0" stop-color="#bababa" stop-opacity=".957"/><stop offset=".17" stop-color="#fff" stop-opacity=".827"/><stop offset="1" stop-color="#fff"/></linearGradient><linearGradient id="S"><stop offset="0" stop-color="#fff" stop-opacity=".183"/><stop offset="1" stop-color="#fff" stop-opacity="0"/></linearGradient><linearGradient id="R"><stop offset="0" stop-opacity=".047"/><stop offset="1" stop-opacity=".266"/></linearGradient><linearGradient id="N"><stop offset="0" stop-color="#fff"/><stop offset="1" stop-color="#fff" stop-opacity="0"/></linearGradient><linearGradient id="B"><stop offset="0" stop-color="#a7a7a7"/><stop offset="1" stop-color="#2a2a2a"/></linearGradient><linearGradient id="A"><stop offset="0" stop-color="#111"/><stop offset=".436" stop-color="#494949"/><stop offset="1" stop-color="#939393"/></linearGradient><linearGradient id="t"><stop offset="0" stop-color="#c0f5a5"/><stop offset="1" stop-color="#f7f7f9"/></linearGradient><linearGradient id="s"><stop offset="0"/><stop offset="1" stop-color="#3e383e"/></linearGradient><linearGradient id="r"><stop offset="0" stop-color="#ff9a00"/><stop offset="1" stop-color="#fdca00"/></linearGradient><linearGradient id="q"><stop offset="0" stop-color="#adcff7"/><stop offset="1" stop-color="#efefff"/></linearGradient><linearGradient id="p"><stop offset="0" stop-color="#c6bede"/><stop offset="1" stop-color="#f7e7ff"/></linearGradient><linearGradient id="n"><stop offset="0" stop-color="#a69fc6"/><stop offset="1" stop-color="#fffbff"/></linearGradient><linearGradient id="o"><stop offset="0" stop-color="#5228ad"/><stop offset=".696" stop-color="#4f28a7"/><stop offset=".849" stop-color="#4b289f"/><stop offset="1" stop-color="#4a289c"/></linearGradient><linearGradient id="m"><stop offset="0" stop-color="#fff"/><stop offset=".714" stop-color="#fff"/><stop offset="1"/></linearGradient><linearGradient id="l"><stop offset="0"/><stop offset="1" stop-color="#211821"/></linearGradient><linearGradient id="k"><stop offset="0" stop-color="#ded3d6"/><stop offset="1" stop-color="#f7ebef"/></linearGradient><linearGradient id="j"><stop offset="0" stop-color="#ded3d6"/><stop offset="1" stop-color="#efebef"/></linearGradient><linearGradient id="g"><stop offset="0" stop-color="#ffe7f7"/><stop offset="1" stop-color="#ffc3ef"/></linearGradient><linearGradient id="i"><stop offset="0" stop-color="#943410"/><stop offset="1" stop-color="#dc7952"/></linearGradient><linearGradient id="h"><stop offset="0" stop-color="#a53810"/><stop offset="1" stop-color="#e75911"/></linearGradient><linearGradient id="f"><stop offset="0" stop-color="#c16d16"/><stop offset="1" stop-color="#ff8e31"/></linearGradient><linearGradient id="e"><stop offset="0" stop-color="#92948f" stop-opacity="0"/><stop offset=".428" stop-color="#9b9e98"/><stop offset="1" stop-color="#939690" stop-opacity="0"/></linearGradient><linearGradient id="d"><stop offset="0" stop-color="#fff" stop-opacity="0"/><stop offset=".459" stop-color="#fff"/><stop offset="1" stop-color="#fff" stop-opacity="0"/></linearGradient><linearGradient id="c"><stop offset="0"/><stop offset=".061" stop-color="#1a1a1a"/><stop offset=".165" stop-color="#333"/><stop offset=".554" stop-color="#4d4d4d"/><stop offset="1" stop-color="#999"/></linearGradient><linearGradient id="b"><stop offset="0" stop-color="#1a1a1a"/><stop offset="1" stop-color="gray"/></linearGradient><linearGradient id="a"><stop offset="0" stop-color="#333"/><stop offset="1" stop-color="#e0e0dd" stop-opacity="0"/></linearGradient><linearGradient id="u"><stop offset="0" stop-color="#2a2a2a"/><stop offset="1" stop-color="#1a1a1a"/></linearGradient><linearGradient id="v"><stop offset="0" stop-color="#c7cbc4"/><stop offset=".198" stop-color="#828480"/><stop offset=".635" stop-color="#fff"/><stop offset="1" stop-color="#c1c4be"/></linearGradient><linearGradient id="w"><stop offset="0" stop-color="gray"/><stop offset="1" stop-color="#101010"/></linearGradient><linearGradient id="x"><stop offset="0" stop-color="#010101"/><stop offset="1" stop-color="#101213"/></linearGradient><linearGradient id="y"><stop offset="0" stop-color="#d7d9d5"/><stop offset="1" stop-color="#fff"/></linearGradient><linearGradient id="z"><stop offset="0" stop-color="#fff"/><stop offset="1" stop-color="#b3b3b3"/></linearGradient><linearGradient id="C"><stop offset="0"/><stop offset="1" stop-opacity="0"/></linearGradient><linearGradient id="D"><stop offset="0" stop-color="#ed5012"/><stop offset="1" stop-color="#bc3f0e"/></linearGradient><radialGradient id="E" gradientUnits="userSpaceOnUse" cy="9.81" cx="-514.13" gradientTransform="translate(338.17 67.963) scale(.5424)" r="145.95"><stop offset="0" stop-color="#ed8246"/><stop offset=".683" stop-color="#ee6d2e"/><stop offset=".701" stop-color="#ef783d"/><stop offset="1" stop-color="#f07f48"/></radialGradient><linearGradient id="F"><stop offset="0" stop-color="#e55016"/><stop offset="1" stop-color="#c44c1c"/></linearGradient><linearGradient id="G"><stop offset="0" stop-color="#ed9666"/><stop offset="1" stop-color="#ed9666" stop-opacity="0"/></linearGradient><linearGradient id="H"><stop offset="0" stop-color="#d64912"/><stop offset="1" stop-color="#d64912" stop-opacity="0"/></linearGradient><linearGradient id="I"><stop offset="0" stop-color="#e89c59"/><stop offset="1" stop-color="#e89c59" stop-opacity="0"/></linearGradient><linearGradient id="J"><stop offset="0" stop-color="#520"/><stop offset="1" stop-color="#520" stop-opacity="0"/></linearGradient><linearGradient id="K"><stop offset="0" stop-color="#f07e51"/><stop offset="1" stop-color="#ec5d24"/></linearGradient><linearGradient id="L"><stop offset="0" stop-color="#ef7545"/><stop offset="1" stop-color="#eb5114"/></linearGradient><linearGradient id="M"><stop offset="0" stop-color="#612d15"/><stop offset="1" stop-color="#8a3f1e" stop-opacity="0"/></linearGradient><linearGradient id="O"><stop offset="0" stop-color="#e1e1e1"/><stop offset="1" stop-color="#fff"/></linearGradient><radialGradient id="P" gradientUnits="userSpaceOnUse" cy="9.81" cx="-514.13" gradientTransform="translate(338.17 67.963) scale(.5424)" r="145.95"><stop offset="0" stop-color="#ed8347"/><stop offset="1" stop-color="#e85913"/></radialGradient><linearGradient id="Q"><stop offset="0" stop-color="#de4814"/><stop offset="1" stop-color="#ff6000"/></linearGradient><linearGradient id="T"><stop offset="0" stop-color="#787878"/><stop offset=".35" stop-color="#bebebe"/><stop offset=".494" stop-color="#c8c8c8"/><stop offset=".589" stop-color="#e6e6e6"/><stop offset="1" stop-color="#8c8c8c"/></linearGradient><linearGradient id="U"><stop offset="0" stop-color="#464646"/><stop offset=".35" stop-color="#8c8c8c"/><stop offset=".51" stop-color="#969696"/><stop offset=".62" stop-color="#aaa"/><stop offset="1" stop-color="#646464"/></linearGradient><linearGradient xlink:href="#V" id="Y" x1="-23.835" y1="47.253" x2="-23.835" y2="57.711" gradientUnits="userSpaceOnUse" gradientTransform="matrix(1.36056 0 0 1.35806 57.334 -33.059)"/><linearGradient id="V"><stop offset="0" stop-color="silver"/><stop offset=".252" stop-color="#fff"/><stop offset="1" stop-color="#fff"/></linearGradient><linearGradient xlink:href="#R" id="X" x1="-25.776" y1="42.342" x2="-25.776" y2="47.096" gradientUnits="userSpaceOnUse" gradientTransform="matrix(1.25007 0 0 1.24777 55.57 -28.155)"/><linearGradient xlink:href="#W" id="Z" x1="23.75" y1="11.188" x2="23.75" y2="2.875" gradientUnits="userSpaceOnUse"/></defs><path style="isolation:auto;mix-blend-mode:normal" d="M3.722 11.8h40.55c.648 0 1.011.593 1.17 1.289l2.41 10.56v12.489c0 .714-.575 1.29-1.29 1.29H1.433c-.715 0-1.168-.586-1.29-1.29V23.649l2.41-10.56c.159-.696.522-1.29 1.17-1.29z" color="#000" overflow="visible" fill="#d7d7d7" stroke="#828282" stroke-width=".289"/><path style="isolation:auto;mix-blend-mode:normal" d="M12.64 11.964h22.714l1.568 11.753v7.117h-25.85v-7.117z" color="#000" overflow="visible" fill="#a6a6a6" stroke="#938e8e" stroke-width=".326"/><rect style="isolation:auto;mix-blend-mode:normal" width="47.825" height="6.438" x=".003" y="24.112" rx="0" ry="0" color="#000" overflow="visible" fill="url(#X)" stroke-width="2.577" stroke-opacity=".201"/><rect style="isolation:auto;mix-blend-mode:normal" width="26.186" height="6.694" x="10.904" y="30.77" rx="0" ry="0" color="#000" overflow="visible" fill="#3f3f3f" stroke-width="2.577" stroke-opacity=".201"/><path style="isolation:auto;mix-blend-mode:normal" d="M38.346 14.127h5.406l.478 1.702c-.172.034-6.055 0-6.055 0z" color="#000" overflow="visible" fill="#484848" fill-opacity=".529" stroke-width="2.577" stroke-opacity=".201"/><path style="isolation:auto;mix-blend-mode:normal" d="M14.774 30.706h18.458l1.832 14.585H12.942z" color="#000" overflow="visible" fill="url(#Y)" stroke="#828282" stroke-width=".326"/><path d="M13.305 3.06v5.356h-2.204v3.252h25.804V8.416H34.7V3.06H13.305z" style="isolation:auto;mix-blend-mode:normal" color="#000" overflow="visible" fill="#383838" fill-opacity=".812" stroke-width="2.577" stroke-opacity=".201"/><rect ry="0" rx="0" y="2.683" x="14.205" height="8.946" width="19.596" style="isolation:auto;mix-blend-mode:normal" color="#000" overflow="visible" fill="url(#Z)" stroke="#828282" stroke-width=".274"/><g style="line-height:0%" font-weight="400" font-size="10.23" font-family="sans-serif" letter-spacing="0" word-spacing="0" fill="#a0a0a0"><path d="M31.29 42.504l-.398 1.077h.797l-.4-1.077zm-.166-.289h.333l.826 2.164h-.305l-.198-.555h-.977l-.197.555h-.31l.828-2.164zM33.333 43.575c-.213 0-.361.024-.443.073-.082.048-.123.131-.123.248 0 .094.03.168.091.224a.37.37 0 0 0 .252.081.438.438 0 0 0 .352-.154.614.614 0 0 0 .133-.414v-.058zm.525-.11v.915h-.263v-.243a.58.58 0 0 1-.225.216.72.72 0 0 1-.33.068.55.55 0 0 1-.392-.137.49.49 0 0 1-.145-.37c0-.18.06-.317.18-.408.122-.092.302-.137.542-.137h.37v-.026a.342.342 0 0 0-.12-.28.506.506 0 0 0-.336-.1 1.091 1.091 0 0 0-.519.131v-.243c.097-.037.19-.065.281-.083.091-.02.18-.029.265-.029.232 0 .406.06.52.18.115.12.172.303.172.547z"/></g><rect style="isolation:auto;mix-blend-mode:normal" width="47.678" height=".319" x=".131" y="23.571" rx="0" ry=".319" color="#000" overflow="visible" fill="#fff" fill-opacity=".529" stroke-width=".225"/><rect ry=".321" rx="0" y="30.455" x=".12" height=".321" width="47.883" style="isolation:auto;mix-blend-mode:normal" color="#000" overflow="visible" fill="#fff" fill-opacity=".235" stroke-width=".225"/><path style="isolation:auto;mix-blend-mode:normal;marker:none" color="#000" overflow="visible" fill="#ccc" fill-opacity=".812" stroke-width=".369" stroke-linecap="round" stroke-opacity=".44" d="M17.315 33.663H30.49v.682H17.315zM16.701 35.943h11.471v.745H16.701zM15.951 38.285h8.744v.823h-8.744zM15.065 40.706H32.74v.915H15.065z"/></svg>