<svg xmlns="http://www.w3.org/2000/svg" xmlns:xlink="http://www.w3.org/1999/xlink" height="48" viewBox="0 0 47.999999 47.999999" width="48"><defs><linearGradient id="R"><stop offset="0" stop-opacity=".047"/><stop offset="1" stop-opacity=".266"/></linearGradient><linearGradient id="N"><stop offset="0" stop-color="#fff"/><stop offset="1" stop-color="#fff" stop-opacity="0"/></linearGradient><linearGradient id="B"><stop offset="0" stop-color="#a7a7a7"/><stop offset="1" stop-color="#2a2a2a"/></linearGradient><linearGradient id="A"><stop offset="0" stop-color="#111"/><stop offset=".436" stop-color="#494949"/><stop offset="1" stop-color="#939393"/></linearGradient><linearGradient id="t"><stop offset="0" stop-color="#c0f5a5"/><stop offset="1" stop-color="#f7f7f9"/></linearGradient><linearGradient id="s"><stop offset="0"/><stop offset="1" stop-color="#3e383e"/></linearGradient><linearGradient id="r"><stop offset="0" stop-color="#ff9a00"/><stop offset="1" stop-color="#fdca00"/></linearGradient><linearGradient id="q"><stop offset="0" stop-color="#adcff7"/><stop offset="1" stop-color="#efefff"/></linearGradient><linearGradient id="p"><stop offset="0" stop-color="#c6bede"/><stop offset="1" stop-color="#f7e7ff"/></linearGradient><linearGradient id="n"><stop offset="0" stop-color="#a69fc6"/><stop offset="1" stop-color="#fffbff"/></linearGradient><linearGradient id="o"><stop offset="0" stop-color="#5228ad"/><stop offset=".696" stop-color="#4f28a7"/><stop offset=".849" stop-color="#4b289f"/><stop offset="1" stop-color="#4a289c"/></linearGradient><linearGradient id="m"><stop offset="0" stop-color="#fff"/><stop offset=".714" stop-color="#fff"/><stop offset="1"/></linearGradient><linearGradient id="l"><stop offset="0"/><stop offset="1" stop-color="#211821"/></linearGradient><linearGradient id="k"><stop offset="0" stop-color="#ded3d6"/><stop offset="1" stop-color="#f7ebef"/></linearGradient><linearGradient id="j"><stop offset="0" stop-color="#ded3d6"/><stop offset="1" stop-color="#efebef"/></linearGradient><linearGradient id="g"><stop offset="0" stop-color="#ffe7f7"/><stop offset="1" stop-color="#ffc3ef"/></linearGradient><linearGradient id="i"><stop offset="0" stop-color="#943410"/><stop offset="1" stop-color="#dc7952"/></linearGradient><linearGradient id="h"><stop offset="0" stop-color="#a53810"/><stop offset="1" stop-color="#e75911"/></linearGradient><linearGradient id="f"><stop offset="0" stop-color="#c16d16"/><stop offset="1" stop-color="#ff8e31"/></linearGradient><linearGradient id="e"><stop offset="0" stop-color="#92948f" stop-opacity="0"/><stop offset=".428" stop-color="#9b9e98"/><stop offset="1" stop-color="#939690" stop-opacity="0"/></linearGradient><linearGradient id="d"><stop offset="0" stop-color="#fff" stop-opacity="0"/><stop offset=".459" stop-color="#fff"/><stop offset="1" stop-color="#fff" stop-opacity="0"/></linearGradient><linearGradient id="c"><stop offset="0"/><stop offset=".061" stop-color="#1a1a1a"/><stop offset=".165" stop-color="#333"/><stop offset=".554" stop-color="#4d4d4d"/><stop offset="1" stop-color="#999"/></linearGradient><linearGradient id="b"><stop offset="0" stop-color="#1a1a1a"/><stop offset="1" stop-color="gray"/></linearGradient><linearGradient id="a"><stop offset="0" stop-color="#333"/><stop offset="1" stop-color="#e0e0dd" stop-opacity="0"/></linearGradient><linearGradient id="u"><stop offset="0" stop-color="#2a2a2a"/><stop offset="1" stop-color="#1a1a1a"/></linearGradient><linearGradient id="v"><stop offset="0" stop-color="#c7cbc4"/><stop offset=".198" stop-color="#828480"/><stop offset=".635" stop-color="#fff"/><stop offset="1" stop-color="#c1c4be"/></linearGradient><linearGradient id="w"><stop offset="0" stop-color="gray"/><stop offset="1" stop-color="#101010"/></linearGradient><linearGradient id="x"><stop offset="0" stop-color="#010101"/><stop offset="1" stop-color="#101213"/></linearGradient><linearGradient id="y"><stop offset="0" stop-color="#d7d9d5"/><stop offset="1" stop-color="#fff"/></linearGradient><linearGradient id="z"><stop offset="0" stop-color="#fff"/><stop offset="1" stop-color="#b3b3b3"/></linearGradient><linearGradient id="C"><stop offset="0"/><stop offset="1" stop-opacity="0"/></linearGradient><linearGradient id="D"><stop offset="0" stop-color="#ed5012"/><stop offset="1" stop-color="#bc3f0e"/></linearGradient><radialGradient id="E" gradientUnits="userSpaceOnUse" cy="9.81" cx="-514.13" gradientTransform="translate(338.17 67.963) scale(.5424)" r="145.95"><stop offset="0" stop-color="#ed8246"/><stop offset=".683" stop-color="#ee6d2e"/><stop offset=".701" stop-color="#ef783d"/><stop offset="1" stop-color="#f07f48"/></radialGradient><linearGradient id="F"><stop offset="0" stop-color="#e55016"/><stop offset="1" stop-color="#c44c1c"/></linearGradient><linearGradient id="G"><stop offset="0" stop-color="#ed9666"/><stop offset="1" stop-color="#ed9666" stop-opacity="0"/></linearGradient><linearGradient id="H"><stop offset="0" stop-color="#d64912"/><stop offset="1" stop-color="#d64912" stop-opacity="0"/></linearGradient><linearGradient id="I"><stop offset="0" stop-color="#e89c59"/><stop offset="1" stop-color="#e89c59" stop-opacity="0"/></linearGradient><linearGradient id="J"><stop offset="0" stop-color="#520"/><stop offset="1" stop-color="#520" stop-opacity="0"/></linearGradient><linearGradient id="K"><stop offset="0" stop-color="#f07e51"/><stop offset="1" stop-color="#ec5d24"/></linearGradient><linearGradient id="L"><stop offset="0" stop-color="#ef7545"/><stop offset="1" stop-color="#eb5114"/></linearGradient><linearGradient id="M"><stop offset="0" stop-color="#612d15"/><stop offset="1" stop-color="#8a3f1e" stop-opacity="0"/></linearGradient><linearGradient id="O"><stop offset="0" stop-color="#e1e1e1"/><stop offset="1" stop-color="#fff"/></linearGradient><radialGradient id="P" gradientUnits="userSpaceOnUse" cy="9.81" cx="-514.13" gradientTransform="translate(338.17 67.963) scale(.5424)" r="145.95"><stop offset="0" stop-color="#ed8347"/><stop offset="1" stop-color="#e85913"/></radialGradient><linearGradient id="Q"><stop offset="0" stop-color="#de4814"/><stop offset="1" stop-color="#ff6000"/></linearGradient><linearGradient gradientTransform="matrix(1.5385 0 0 1.5385 -24.054 -14.306)" xlink:href="#S" id="U" x1="47.261" y1="59.781" x2="47.261" y2="18.908" gradientUnits="userSpaceOnUse"/><linearGradient id="S"><stop offset="0" stop-color="#8a0bff"/><stop offset="1" stop-color="#e030ff"/></linearGradient><filter id="T" x="-.019" width="1.038" y="-.033" height="1.066" color-interpolation-filters="sRGB"><feGaussianBlur stdDeviation="1.197"/></filter></defs><path transform="translate(0 1.64) scale(.30285)" d="M79.247 30.55c-14.939 0-28.929 1.98-41.973 5.937-12.94 4.042-24.408 9.45-34.402 16.018v51.026c4.664 4.062 10.015 7.405 16.054 9.905 6.087 2.447 12.616 3.673 19.587 3.673 6.972 0 13.477-1.226 19.515-3.673 6.088-2.5 11.463-5.843 16.127-9.905a8.375 8.375 0 0 1 2.294-1.343c.87-.334 1.802-.5 2.798-.5a7.65 7.65 0 0 1 2.788.5 8.33 8.33 0 0 1 2.304 1.343c4.663 4.062 10.015 7.405 16.054 9.905 6.087 2.447 12.616 3.673 19.587 3.673s13.477-1.226 19.515-3.673c6.088-2.5 11.463-5.843 16.127-9.905V52.505c-9.994-6.568-21.513-11.976-34.558-16.018-12.94-3.957-26.879-5.937-41.817-5.937zM43.605 66.348c4.98 0 9.626.835 13.94 2.512 4.348 1.712 8.187 3.96 11.518 6.743-3.33 2.782-7.17 5.03-11.519 6.742-4.313 1.677-8.96 2.516-13.939 2.516-4.98 0-9.644-.839-13.992-2.516-4.313-1.712-8.135-3.96-11.466-6.742 3.331-2.783 7.153-5.03 11.466-6.743 4.348-1.677 9.013-2.512 13.992-2.512zm71.284 0c4.979 0 9.626.835 13.939 2.512 4.348 1.712 8.188 3.96 11.519 6.743-3.331 2.782-7.171 5.03-11.52 6.742-4.312 1.677-8.959 2.516-13.938 2.516-4.98 0-9.644-.839-13.993-2.516-4.313-1.712-8.134-3.96-11.466-6.742 3.332-2.783 7.153-5.03 11.466-6.743 4.349-1.677 9.013-2.512 13.993-2.512z" style="line-height:125%;-inkscape-font-specification:Ubuntu;text-align:center" font-weight="400" font-size="14.463" font-family="Ubuntu" letter-spacing="0" word-spacing="0" text-anchor="middle" opacity=".727" fill="#300040" filter="url(#T)"/><path style="line-height:125%;-inkscape-font-specification:Ubuntu;text-align:center" d="M45.179 13.387c-13.542 0-26.223 1.794-38.048 5.381-11.73 3.664-22.125 8.567-31.185 14.52v46.254c4.228 3.682 9.08 6.713 14.553 8.979 5.518 2.218 11.436 3.33 17.756 3.33 6.319 0 12.216-1.112 17.69-3.33 5.518-2.266 10.39-5.297 14.618-8.979a7.592 7.592 0 0 1 2.08-1.217 7.014 7.014 0 0 1 2.536-.454c.902 0 1.745.151 2.527.454a7.55 7.55 0 0 1 2.088 1.217c4.228 3.682 9.079 6.713 14.553 8.979 5.518 2.218 11.436 3.33 17.756 3.33 6.319 0 12.216-1.112 17.69-3.33 5.518-2.266 10.39-5.297 14.618-8.979V33.288c-9.06-5.953-19.501-10.856-31.326-14.52-11.73-3.587-24.365-5.381-37.906-5.381zM12.87 45.837c4.514 0 8.726.757 12.636 2.277 3.941 1.552 7.422 3.59 10.442 6.112-3.02 2.522-6.5 4.56-10.442 6.112-3.91 1.52-8.122 2.28-12.636 2.28-4.514 0-8.742-.76-12.683-2.28-3.91-1.552-7.375-3.59-10.394-6.112 3.02-2.523 6.484-4.56 10.394-6.112 3.941-1.52 8.17-2.278 12.683-2.278zm64.617 0c4.514 0 8.726.757 12.636 2.277 3.941 1.552 7.422 3.59 10.442 6.112-3.02 2.522-6.5 4.56-10.442 6.112-3.91 1.52-8.122 2.28-12.636 2.28-4.514 0-8.742-.76-12.683-2.28-3.91-1.552-7.375-3.59-10.394-6.112 3.02-2.523 6.484-4.56 10.394-6.112 3.941-1.52 8.17-2.278 12.683-2.278z" font-weight="400" font-size="14.463" font-family="Ubuntu" letter-spacing="0" word-spacing="0" text-anchor="middle" fill="url(#U)" stroke="#000" stroke-width=".906" stroke-opacity=".319" transform="matrix(.3341 0 0 .3341 8.906 6.42)"/><path d="M5.203 15.087l8.56 3.339-.019-6.394z" opacity=".676" fill="#ce28ff" stroke-width=".3"/><path d="M9.695 20.152l4.069-1.726-10.407-2.383z" opacity=".676" fill="#b124e6" stroke-width=".3"/><path d="M18.351 22.898l-1.796-11.423-2.791 6.95z" opacity=".676" fill="#c525ff" stroke-width=".3"/><path d="M22.394 10.93l2.958 11.318 5.344-10.862z" opacity=".676" fill="#9627b9" stroke-width=".3"/><path d="M25.352 22.248l4.747-1.233.597-9.63z" opacity=".676" fill="#ce4eff" stroke-width=".3"/><path d="M30.099 21.015l6.565-8.324-5.968-1.305z" opacity=".676" fill="#a824cb" stroke-width=".3"/><path d="M18.351 22.898l7.001-.65-5.72-11.16z" opacity=".676" fill="#a424d7" stroke-width=".3"/><path d="M30.099 21.015l13.835-5.35-7.27-2.974z" opacity=".676" fill="#d948ca" stroke-width=".3"/><path d="M9.695 20.152l8.656 2.746-4.587-4.472z" opacity=".676" fill="none" stroke-width=".3"/><path d="M3.357 16.043l2.139 8.494 4.2-4.385z" opacity=".676" fill="#bb20ff" stroke-width=".3"/><path d="M25.352 22.248l1.732 2.29 3.015-3.523z" opacity=".676" fill="#b41dff" stroke-width=".3"/><path d="M8.01 26.157l-4.211 8.9 6.483-8.063z" opacity=".676" fill="#a03cee" stroke-width=".3"/><path d="M38.342 22.259l5.592-6.595-13.835 5.35z" opacity=".676" fill="#a02fd0" stroke-width=".3"/><path d="M42.504 24.537l4.626-6.995-3.196-1.878z" opacity=".676" fill="#cc4dff" stroke-width=".3"/><path d="M16.243 29.532l9.11-7.284-7.005 3.93z" opacity=".676" fill="#a215ff" stroke-width=".3"/><path d="M34.968 33.405l5.667 3.137-2.333-9.714z" opacity=".676" fill="#8312ec" stroke-width=".3"/><path d="M.87 32.995l7.14-6.838-2.514-1.62z" opacity=".676" fill="#b64efe" stroke-width=".3"/><path d="M31.749 36.463l3.22-3.058-.175-6.064z" opacity=".676" fill="#8b0cff" stroke-width=".3"/><path d="M20.2 34.659l5.152-12.411-9.109 7.284z" opacity=".676" fill="#9018eb" stroke-width=".3"/><path d="M20.2 34.659l3.8-2.222.144-7.278z" opacity=".676" fill="#b855fb" stroke-width=".3"/><path d="M31.115 26.777l-1.694 5.58 5.373-5.016z" opacity=".676" fill="#9912ff" stroke-width=".3"/><path d="M13.206 27.341l-1.542 9.766 4.252-.552z" opacity=".676" fill="#8818ef" stroke-width=".3"/><path d="M3.799 35.058l7.865 2.05-.629-6.64z" opacity=".676" fill="#9c31ff" stroke-width=".3"/><path d="M40.635 36.542l6.495-3.547-4.626-8.458z" opacity=".676" fill="#910eff" stroke-width=".3"/><path d="M24 32.437L29.287 26l-2.203-1.463z" opacity=".676" fill="#9b12ff" stroke-width=".3"/><path d="M.87 17.542v15.453l4.626-8.458z" opacity=".676" fill="#b848f9" stroke-width=".3"/><path d="M25.542 32.995l3.879-.638L29.287 26z" opacity=".676" fill="#871ae0" stroke-width=".3"/><path d="M27.879 34.71l3.87 1.753-2.328-4.106z" opacity=".676" fill="#8a0bff" stroke-width=".3"/><path d="M11.035 30.468l2.17-3.127-2.923-.347z" opacity=".676" fill="#9b12ff" stroke-width=".3"/><path d="M14.282 31.001l4.198 4.593-2.237-6.062z" opacity=".676" fill="#711dbb" stroke-width=".3"/><path d="M24 32.437l3.879 2.274-3.735-9.552z" opacity=".676" fill="#5e019d" stroke-width=".3"/></svg>