<svg xmlns="http://www.w3.org/2000/svg" xmlns:xlink="http://www.w3.org/1999/xlink" width="128" height="128" viewBox="0 0 33.866666 33.866668"><defs><linearGradient id="h"><stop offset="0" stop-color="#005d7e"/><stop offset="1" stop-color="#00b6ca"/></linearGradient><linearGradient id="g"><stop offset="0" stop-color="#fff"/><stop offset="1" stop-color="#f0f0f0"/></linearGradient><linearGradient id="f"><stop offset="0" stop-color="#19191b"/><stop offset="1" stop-color="#19191b" stop-opacity="0"/></linearGradient><linearGradient id="a"><stop offset="0" stop-color="#0068e0"/><stop offset="1" stop-color="#00acf4"/></linearGradient><filter id="b" width="100%" height="100%" x="0%" y="0%"><feColorMatrix in="SourceGraphic" values="0 0 0 0 1 0 0 0 0 1 0 0 0 0 1 0 0 0 1 0"/></filter><clipPath id="c"><path d="M0 0h384v384H0z"/></clipPath><clipPath id="d"><path d="M0 0h384v384H0z"/></clipPath><linearGradient y2="71.02" x2="84.091" y1="117.042" x1="122.341" gradientUnits="userSpaceOnUse" id="l" xlink:href="#e" gradientTransform="matrix(.26458 0 0 .26458 -73.214 269.229)"/><linearGradient id="e"><stop offset="0" stop-color="#d5dada"/><stop offset="1" stop-color="#f1f1f1"/></linearGradient><radialGradient xlink:href="#f" id="o" cx="-18.078" cy="290.316" fx="-18.078" fy="290.316" r="7.296" gradientTransform="matrix(-.61155 -.87112 .9409 -.6497 -258.593 462.13)" gradientUnits="userSpaceOnUse"/><linearGradient xlink:href="#e" id="p" x1="-16.155" y1="296.842" x2="-20.538" y2="284.163" gradientUnits="userSpaceOnUse" gradientTransform="translate(.12 .487)"/><linearGradient xlink:href="#g" id="m" x1="-39.014" y1="265.756" x2="-21.756" y2="285.733" gradientUnits="userSpaceOnUse"/><linearGradient xlink:href="#h" id="n" x1="-27.415" y1="293.269" x2="-28.241" y2="266.701" gradientUnits="userSpaceOnUse"/><filter y="0%" x="0%" height="100%" width="100%" id="i"><feColorMatrix values="0 0 0 0 1 0 0 0 0 1 0 0 0 0 1 0 0 0 1 0" in="SourceGraphic"/></filter><clipPath id="j"><path d="M0 0h384v384H0z"/></clipPath><clipPath id="k"><path d="M0 0h384v384H0z"/></clipPath><linearGradient xlink:href="#e" id="q" gradientUnits="userSpaceOnUse" gradientTransform="matrix(.26458 0 0 .26458 -114.234 271.806)" x1="122.341" y1="117.042" x2="84.091" y2="71.02"/></defs><g transform="translate(0 -263.133)"><g transform="rotate(-8.765 81.188 -141.781) scale(.98654)" opacity=".389" fill="none" stroke="#000" stroke-linecap="round" stroke-linejoin="round" stroke-opacity=".039"><rect width="25.83" height="29.567" x="-61.945" y="253.765" rx="1.442" ry="1.442" stroke-width=".15" paint-order="fill markers stroke"/><rect ry="1.442" rx="1.442" y="253.765" x="-61.945" height="29.567" width="25.83" stroke-width=".3" paint-order="fill markers stroke"/><rect width="25.83" height="29.567" x="-61.945" y="253.765" rx="1.442" ry="1.442" stroke-width=".45" paint-order="fill markers stroke"/><rect ry="1.442" rx="1.442" y="253.765" x="-61.945" height="29.567" width="25.83" stroke-width=".6" paint-order="fill markers stroke"/><rect width="25.83" height="29.567" x="-61.945" y="253.765" rx="1.442" ry="1.442" stroke-width=".85" paint-order="fill markers stroke"/><rect ry="1.442" rx="1.442" y="253.765" x="-61.945" height="29.567" width="25.83" paint-order="fill markers stroke"/></g><rect width="25.483" height="29.169" x="-40.457" y="264.375" rx="1.423" ry="1.423" transform="rotate(-8.764)" fill="url(#m)" stroke-width=".363" stroke-linecap="round" stroke-linejoin="round" stroke-opacity=".148" paint-order="fill markers stroke"/><rect transform="rotate(-8.764)" ry="1.423" rx="1.423" y="265.756" x="-39.014" height="26.092" width="22.702" fill="url(#n)" stroke-width=".363" stroke-linecap="round" stroke-linejoin="round" stroke-opacity=".148" paint-order="fill markers stroke"/><path d="M26.068 282.286a7.102 7.25 0 0 0-1.416.076 7.102 7.25 0 0 0-5.94 8.267 7.102 7.25 0 0 0 1.376 3.286l8.432-1.3a1.42 1.42 0 0 0 1.19-1.623l-1.257-8.151a7.102 7.25 0 0 0-2.385-.555z" opacity=".097" fill="#343434" fill-opacity=".205" stroke-width="2.697" stroke-linecap="round" stroke-linejoin="round" stroke-opacity=".038" paint-order="fill markers stroke"/><path d="M10.672 271.472a9.35 9.35 0 0 0-3.423 12.772 9.35 9.35 0 0 0 8.518 4.658c-1.971-.035-3.791-1.024-5.07-3.232a8.01 8.01 0 0 1-.827-6.121 8.057 8.057 0 0 1 3.792-4.925l.702 1.216a6.665 6.665 0 0 0-3.137 4.07 6.614 6.614 0 0 0 .683 5.054c1.645 2.838 4.574 3.96 7.44 2.889a3.592 3.592 0 0 1-1.67.074c-3.536-.28-6.113-2.95-6.127-6.35-.006-1.617.641-3.16 1.823-4.346a6.282 6.282 0 0 1 4.471-1.873l.001 1.406a4.883 4.883 0 0 0-3.477 1.46c-.916.917-1.415 2.107-1.412 3.348.01 2.65 2.042 4.735 4.834 4.955 3.439.27 4.902-1.217 5.448-2.014-.775.644-1.441 1.062-3.714 1.461-1.948.344-3.32-.337-3.7-.555a.769.769 0 0 1-.056-.034l-.025-.013h.002c-.008-.006-.03-.018-.03-.02v-.004a4.352 4.352 0 0 1-1.49-1.525 4.38 4.38 0 0 1 2.653-6.423 4.35 4.35 0 0 1 3.321.439l.041.025-.743 1.191a2.957 2.957 0 0 0-2.255-.297 2.962 2.962 0 0 0-1.806 1.384 2.978 2.978 0 0 0 1.089 4.06c0 .001-.19-.113.008.005.198.118 1.213.655 2.746.385 2.528-.445 3.954-1.375 4.932-2.088a9.35 9.35 0 0 0-.769-7.61 9.35 9.35 0 0 0-12.773-3.422zm13.054 12.233c-.066.132-.153.286-.234.434a9.35 9.35 0 0 0 .234-.434zm-4.561 4.398a9.35 9.35 0 0 0 .55-.28c-.182.101-.366.193-.55.28zm1.524-.866c-.092.058-.183.12-.278.174-.218.14-.437.272-.658.395a9.35 9.35 0 0 0 .27-.138 9.35 9.35 0 0 0 .666-.431z" fill="#fff" fill-opacity=".996" stroke-width=".868"/><path d="M25.226 279.509a8.97 9.272 0 0 0-1.788.097 8.97 9.272 0 0 0-7.502 10.574 8.97 9.272 0 0 0 1.692 4.143l10.614-1.636a1.747 1.747 0 0 0 1.464-1.997l-1.625-10.54a8.97 9.272 0 0 0-2.855-.641z" fill="url(#o)" stroke-width=".907" stroke-linecap="round" stroke-linejoin="round" stroke-opacity=".038" paint-order="fill markers stroke"/><circle transform="rotate(-8.745)" r="7.154" cy="290.497" cx="-17.886" fill="url(#p)" stroke-width=".711" stroke-linecap="round" stroke-linejoin="round" stroke-opacity=".038" paint-order="fill markers stroke"/><path d="M24.678 287.123v3.282h-1.49l3.304 3.608 3.304-3.608h-1.49v-3.282z" fill="#333" stroke-width=".398" stroke-linecap="square" paint-order="fill markers stroke"/></g></svg>