<svg xmlns="http://www.w3.org/2000/svg" xmlns:xlink="http://www.w3.org/1999/xlink" width="128" height="128" viewBox="0 0 33.866666 33.866666"><defs><linearGradient id="a"><stop offset="0" stop-color="#4d974d"/><stop offset="1" stop-color="#83b529"/></linearGradient><linearGradient xlink:href="#a" id="b" x1="12.456" y1="288.045" x2="24.2" y2="270.498" gradientUnits="userSpaceOnUse" gradientTransform="translate(-1.579 -25.328) scale(1.09323)"/></defs><g transform="translate(0 -263.133)"><path d="M14.477 296.994c-2.033-.066-3.736-.227-4.275-.406-.207-.069-.268-.181-.137-.251.215-.115 1.04-.242 2.164-.332 1.39-.11 2.344-.14 4.704-.14s3.315.03 4.704.14c1.124.09 1.95.217 2.165.332.13.07.07.182-.137.25-.998.332-5.433.528-9.188.407z" fill-opacity=".232" stroke-width=".035"/><path style="isolation:auto;mix-blend-mode:normal;marker:none" d="M16.948 264.069c-.052.001-1.815 1.71-2.48 2.403-2.64 2.756-4.441 5.185-5.67 7.649-.581 1.168-1.046 2.403-1.258 3.35a1.778 1.778 0 0 1-.103.347c-.02.026-.15.124-.29.217-.437.29-.794.744-.989 1.259a4.225 4.225 0 0 1-.117.275c-.006-.005-.01-.007-.013.001a10.2 10.2 0 0 0-.959 1.218c-.712 1.085-1.175 2.307-1.395 3.682-.097.604-.097 2.23 0 2.835.17 1.069.512 2.112.971 2.968.219.407.44.764.485.782.017.007.031.058.031.114l.002.003c.03.266.109.535.215.713.095.159.102.198.104.638.004.515.06.784.244 1.191.37.815 1.124 1.4 2.01 1.56.37.067.411.069.585.02.46-.127.74-.8.504-1.214-.1-.176-.345-.337-.608-.399-.474-.112-.585-.154-.762-.294-.27-.214-.4-.494-.4-.864 0-.22.019-.32.09-.463a1.125 1.125 0 0 1 1.016-.638c.283.001.46.068.729.273.308.235.423.28.714.28.364.002.56-.106.703-.387a.823.823 0 0 0 .014-.77c-.208-.441-.908-.854-1.66-.981-.315-.054-.42-.056-.767-.016-.355.04-.415.039-.518-.015a2.502 2.502 0 0 0-.52-.16c-.11-.022-.137-.065-.32-.436a7.436 7.436 0 0 1-.773-3.323c0-.881.124-1.616.417-2.467.16-.466.505-1.207.562-1.207.02 0 .023-.02.007-.047l-.008-.033c.019.016.038.034.057.047l.4.269c.142.094.265.178.273.187.009.008.082.282.164.607a12.26 12.26 0 0 0 1.54 3.625c.439.694.842 1.2 1.518 1.906.331.346.385.421.444.619.081.272.306.7.54 1.03.22.31.842.953 1.208 1.248.304.247 1 .723 1.342.917.465.265 1.243.527 1.867.628.466.076 1.416.05 1.88-.052.661-.145 1.582-.51 1.858-.736.066-.054.287-.207.49-.34 1.064-.695 2.036-1.789 2.296-2.581.052-.16.14-.267.572-.696a11.129 11.129 0 0 0 2.367-3.407c.358-.791.591-1.514.88-2.729.01-.04.177-.191.343-.324.216-.162.297-.205.335-.173.086.072.414.782.57 1.235.295.858.419 1.59.419 2.474a7.436 7.436 0 0 1-.773 3.322l-.2.406a2.978 2.978 0 0 0-.63.172c-.159.07-.197.073-.55.032a2.062 2.062 0 0 0-.746.017c-.752.128-1.45.54-1.66.981a.824.824 0 0 0 .015.771c.142.281.338.389.702.388.292-.001.407-.046.715-.28.27-.206.446-.273.729-.274.432-.002.822.243 1.016.638.07.143.09.242.09.463 0 .37-.13.65-.4.864-.177.14-.288.182-.762.294-.263.062-.51.223-.609.399-.227.402.018 1.037.464 1.201a.808.808 0 0 0 .351.032c1.01-.105 1.829-.663 2.25-1.534.219-.454.275-.71.278-1.275.003-.452.01-.502.105-.693.062-.125.125-.332.168-.522a.637.637 0 0 1 .046-.153c.037-.03.352-.553.52-.862.443-.817.8-1.912.97-2.97.096-.604.096-2.23 0-2.834-.299-1.87-1.1-3.561-2.275-4.806a1.613 1.613 0 0 1-.263-.418c-.1-.24-.224-.452-.37-.642a2.435 2.435 0 0 0-.566-.546 2.507 2.507 0 0 1-.268-.206 7.092 7.092 0 0 1-.164-.583c-.893-3.492-3.49-7.595-7.086-11.195-.877-.88-2.146-2.006-2.253-2.005z" color="#000" display="block" overflow="visible" fill="none" stroke="#000" stroke-width="1.64" stroke-linecap="square" stroke-dashoffset="20" stroke-opacity=".094"/><circle style="isolation:auto;mix-blend-mode:normal;marker:none" cx="16.951" cy="279.283" r="5.208" color="#000" display="block" overflow="visible" fill="#eaf7ea" stroke-width=".562" stroke-linecap="square" stroke-dashoffset="20" stroke-opacity=".905"/><path d="M16.691 282.25a3.182 3.182 0 0 1-2.595-2.39c-.087-.353-.084-1.07.005-1.414a3.159 3.159 0 0 1 1.314-1.875c.567-.376 1.045-.52 1.725-.52.68 0 1.157.144 1.724.52a3.184 3.184 0 0 1 1.32 1.884c.083.34.082 1.066-.001 1.408-.277 1.13-1.16 2.033-2.268 2.316-.337.086-.912.12-1.224.07zm-.79-3.721c.139-.293.436-.553.78-.682.202-.077.212-.112.097-.349a.833.833 0 0 0-.556-.42c-.559-.135-1.115.417-.977.968.06.234.168.401.332.513.182.124.254.117.324-.03z" fill="#10534f" fill-opacity=".411" stroke-width=".037"/><path d="M16.712 280.472c-.393-.128-.768-.509-.886-.9-.055-.184-.074-.601-.032-.71.017-.046.078-.06.253-.061.49-.001.86-.326.92-.804l.023-.189.266.001c.21.001.31.024.476.105.264.13.522.389.655.659.09.185.102.251.102.584 0 .335-.01.397-.105.59-.135.273-.38.52-.651.652-.173.084-.273.106-.534.114a1.622 1.622 0 0 1-.487-.042z" fill="#125218" stroke-width=".037"/><path d="M26.45 277.852c.014.019.135.111.269.206.419.296.726.686.936 1.189.058.14.173.322.263.417 1.176 1.245 1.976 2.936 2.275 4.807.096.604.096 2.23 0 2.834-.17 1.057-.527 2.152-.97 2.969-.168.31-.483.833-.52.862a.974.974 0 0 0-.067.244c-.378.426-1.368-.158-1.686-1.725l.175-.026.206-.42a7.436 7.436 0 0 0 .773-3.321c0-.884-.124-1.616-.42-2.475-.155-.453-.483-1.163-.57-1.235-.04-.033-.117.007-.354.187-.169.127-.404.432-.308-.459.183-.634-.014-4.073-.001-4.054zm-19.7 4.315c.015.026.012.047-.008.047-.057 0-.402.74-.562 1.206a7.161 7.161 0 0 0-.417 2.468c0 1.166.258 2.274.773 3.322.207.42.207.421.363.446.556.755-1.216 2.485-1.738 1.513 0-.056-.014-.107-.03-.114-.046-.018-.267-.374-.486-.782-.459-.856-.8-1.9-.97-2.968-.097-.604-.097-2.23 0-2.834.219-1.376.681-2.597 1.394-3.683.245-.373.624-.858.959-1.218.053-.16.705 2.57.721 2.597z" fill="#888960" stroke-width=".037"/><path d="M7.736 295.275a2.744 2.744 0 0 1-2.01-1.56c-.185-.408-.24-.677-.243-1.192-.003-.44-.01-.479-.105-.638-.133-.223-.226-.592-.23-.918-.004-.301.1-.562.334-.836.253-.295.695-.523 1.035-.533.182-.005.68.116.859.209.103.053.163.055.518.014.347-.04.452-.037.768.016.752.127 1.45.54 1.659.98.123.261.118.51-.014.772-.142.28-.339.389-.703.387-.291 0-.406-.046-.714-.28-.27-.206-.446-.272-.73-.274a1.125 1.125 0 0 0-1.016.638c-.07.143-.09.242-.09.463 0 .37.13.65.401.865.177.14.288.182.762.294.263.062.509.223.608.398.235.415-.044 1.087-.504 1.215-.173.049-.216.047-.585-.02zm17.769.005c-.446-.164-.69-.8-.463-1.201.1-.176.345-.337.608-.399.474-.111.585-.154.761-.294.271-.214.401-.494.401-.864 0-.22-.02-.32-.09-.463a1.123 1.123 0 0 0-1.016-.638c-.283 0-.46.068-.73.273-.307.235-.422.28-.713.28-.365.002-.561-.106-.703-.387a.824.824 0 0 1-.014-.771c.208-.44.907-.853 1.66-.98.313-.053.423-.056.746-.018.352.04.39.038.549-.032.212-.093.644-.194.814-.19.278.009.665.183.916.41.237.216.464.658.478.929.009.177-.112.656-.22.875-.095.191-.103.24-.105.693-.003.565-.059.82-.278 1.275-.421.87-1.24 1.43-2.25 1.534a.81.81 0 0 1-.351-.032zm-8.29-2.468c-2.325.042-5.344-1.364-6.078-3.42-.059-.198-.113-.273-.444-.62-.676-.705-1.08-1.21-1.519-1.904a12.262 12.262 0 0 1-1.538-3.626 9.29 9.29 0 0 0-.165-.607 7.944 7.944 0 0 0-.272-.187l-.401-.27c-.304-.204-.64-.767-.774-1.294-.097-.38-.105-1.07-.016-1.24.033-.062.1-.22.15-.351.195-.516.551-.97.988-1.26.14-.093.271-.19.29-.216.02-.026.066-.183.104-.348.212-.947.676-2.182 1.258-3.35 1.228-2.463 3.03-4.893 5.67-7.649.665-.693 2.428-2.401 2.48-2.403.107 0 1.376 1.127 2.253 2.006 3.596 3.6 6.193 7.703 7.086 11.195.077.302.15.564.164.583.013.018.134.111.268.206.438.309.699.65.978 1.273.15.337.157.37.174.81.016.414.007.491-.083.806-.054.191-.156.449-.225.573-.139.248-.42.618-.47.618-.074 0-.639.462-.656.537-.289 1.215-.522 1.938-.88 2.729a11.13 11.13 0 0 1-2.367 3.407c-.431.429-.52.536-.572.696-2.28 2.152-3.292 3.267-5.404 3.306zm.303-10.038c.558-.07.96-.205 1.465-.492.335-.19.88-.69 1.117-1.024.515-.726.762-1.662.66-2.503a3.589 3.589 0 0 0-1.114-2.246 3.534 3.534 0 0 0-1.645-.919c-.318-.084-.452-.098-.899-.098s-.58.014-.9.098a3.534 3.534 0 0 0-1.644.92 3.589 3.589 0 0 0-1.114 2.245c-.102.841.145 1.777.66 2.503.236.333.782.834 1.117 1.024.759.43 1.507.591 2.297.492z" fill="url(#b)" stroke-width=".037"/><path d="M16.904 293.268c-4.595.008-5.82-4.022-5.82-4.022s2.404 2.7 5.756 2.662c3.351-.037 5.934-2.695 5.934-2.695s-1.274 4.047-5.87 4.055zm-11.499-1.397c-.15-.256-.212-.492-.219-.83-.005-.27.007-.325.117-.549.229-.465.69-.793 1.19-.844.218-.022.623.064.853.181.158.08.158.081.065.118-.327.13-.65.303-.855.458a2.789 2.789 0 0 0-.929 1.35c-.037.124-.08.24-.094.257-.015.017-.072-.046-.128-.141zm22.853-.065c-.072-.28-.309-.729-.524-.993a2.834 2.834 0 0 0-1.222-.84l-.187-.066.206-.096c.249-.115.664-.192.865-.16.6.096 1.113.572 1.24 1.151.053.247.054.217-.018.55-.054.252-.23.646-.287.646-.013 0-.046-.086-.073-.192zm-11.603-4.253c-.051-.05-.06-.212-.06-1.197 0-.984.009-1.146.06-1.197.042-.042.133-.059.321-.059.441 0 .407-.105.407 1.256s.034 1.256-.407 1.256c-.188 0-.279-.016-.321-.059zm-.94-.173l-.29-.073-.141-.035v-1.063c0-.935.007-1.066.06-1.086.086-.034.588-.027.643.008.037.023.045.28.038 1.152-.011 1.266.013 1.178-.31 1.097zm2.253-.015c-.012-.032-.022-.538-.022-1.123 0-1.23-.032-1.142.407-1.142.4 0 .38-.056.38 1.102 0 .73-.012.998-.047 1.041-.026.032-.178.086-.338.12-.357.075-.352.075-.38 0zm-3.64-.729c-.143-.08-.283-.175-.309-.21-.033-.046-.047-.234-.047-.637 0-.684.002-.689.355-.689.385 0 .357-.07.357.866 0 .634-.01.82-.047.818a1.774 1.774 0 0 1-.308-.148zm4.93-.67c0-.935-.029-.866.356-.866.356 0 .356 0 .356.727 0 .43-.014.626-.047.668-.046.059-.545.292-.625.292-.028 0-.04-.257-.04-.82zm-2.582-2.558c-1.726-.18-3.213-1.444-3.66-3.11a4.227 4.227 0 0 1 1.102-4.124 4.227 4.227 0 0 1 4.123-1.102 4.3 4.3 0 0 1 2.984 2.984 4.249 4.249 0 0 1-1.1 4.124 4.315 4.315 0 0 1-1.95 1.119c-.26.066-.972.159-1.124.147-.034-.001-.203-.02-.375-.038zm1.345-.705a3.775 3.775 0 0 0 2.668-2.645c.07-.253.082-.398.082-.919 0-.737-.059-1.008-.348-1.593a3.626 3.626 0 0 0-1.78-1.745c-.532-.25-.852-.314-1.541-.314s-1.01.065-1.542.314a3.626 3.626 0 0 0-1.78 1.745c-.288.585-.347.856-.347 1.593 0 .713.058.995.313 1.53.2.419.383.687.686 1.006.52.548 1.238.939 1.995 1.085.393.076 1.193.048 1.594-.057zm-10.8-.04c-.505-.335-.782-.638-1.003-1.097-.253-.526-.335-.927-.308-1.497.011-.246.041-.484.067-.529.025-.045.104-.226.176-.404.15-.37.453-.823.704-1.05.226-.203.63-.471.663-.438.015.014-.004.22-.04.457a13.609 13.609 0 0 0 .038 4.235c.096.589.098.586-.297.324zm19.207-.2l.084-.647c.157-1.19.1-3.042-.123-3.929-.032-.124.035-.115.255.037.467.32.76.695 1.033 1.318.164.374.18.438.199.827.034.68-.16 1.339-.546 1.85-.141.187-.805.732-.891.732-.02 0 .032-.143-.011-.189z" fill="#10534f" stroke-width=".037"/><path d="M16.67 286.356v-1.18h.638V287.536h-.638zm.545 0v-1.087h-.45l-.01 1.05c-.006.576-.002 1.07.009 1.098.013.034.082.046.235.038l.216-.012zm-1.5.968l-.31-.069-.084-.02v-2.06h.675v1.085c0 .597-.013 1.092-.028 1.1a.924.924 0 0 1-.253-.036zm.169-1.062v-1.012h-.452l.01.964.01.963.188.044c.103.025.2.047.216.05.015 0 .028-.452.028-1.009zm2.157 1.096c-.011-.012-.02-.507-.02-1.102v-1.08h.637v2.06l-.103.023-.298.072c-.107.026-.204.038-.216.027zm.402-.164l.141-.035-.01-.945-.01-.945h-.45l-.01.955c-.005.526-.002.976.007 1 .017.044.044.042.332-.03zm-4.134-.627l-.244-.137-.01-.627-.01-.628h.602v.769c0 .592-.011.767-.047.764a1.607 1.607 0 0 1-.29-.14zm.254-.651l-.01-.647h-.413l-.01.534-.01.535.177.112a.82.82 0 0 0 .227.112c.04 0 .047-.129.04-.646zm4.732.032v-.773h.6v1.307l-.213.097a2.564 2.564 0 0 1-.3.12l-.087.021zm.414.52l.113-.058-.01-.57-.01-.571h-.413l-.01.617c-.006.34-.002.639.008.665.02.052.104.03.322-.083zm-3.266-3.128a4.758 4.758 0 0 1-1.689-.678c-.33-.222-.857-.744-1.085-1.074a4.82 4.82 0 0 1-.624-1.345c-.095-.343-.103-.427-.104-1.047 0-.719.037-.969.22-1.454a4.288 4.288 0 0 1 2.893-2.64c.346-.097.424-.105 1.067-.105.644 0 .72.007 1.068.105a5.1 5.1 0 0 1 1.366.637c.328.232.79.698 1.016 1.025.258.374.503.9.626 1.344.095.347.103.428.103 1.069s-.007.722-.103 1.068a4.23 4.23 0 0 1-1.143 1.937c-.386.376-.68.581-1.15.803-.581.276-.95.358-1.67.374-.341.007-.697-.001-.791-.019zm1.378-.585a3.663 3.663 0 0 0 1.835-.963c.817-.784 1.177-1.687 1.129-2.83-.042-.992-.398-1.774-1.129-2.476a3.567 3.567 0 0 0-2.554-1.02c-.99 0-1.847.342-2.554 1.02-.77.74-1.14 1.605-1.138 2.666.001 1.03.38 1.913 1.132 2.634a3.706 3.706 0 0 0 1.817.966c.349.075 1.105.076 1.462.001z" fill="#23715d" stroke-width=".037"/><path d="M16.948 264.068c-.052.001-1.815 1.71-2.48 2.403-2.64 2.756-4.442 5.185-5.67 7.65-.582 1.167-1.046 2.402-1.259 3.349a1.778 1.778 0 0 1-.102.347 2.21 2.21 0 0 1-.29.217c-.438.29-.794.744-.989 1.26-.05.13-.117.288-.15.35-.06.113-.072.454-.048.782a.644.644 0 0 1 .048-.203c.033-.062.1-.22.15-.351.195-.515.551-.97.988-1.26.14-.093.271-.19.29-.216.02-.026.066-.183.103-.348.213-.947.677-2.182 1.26-3.35 1.227-2.463 3.028-4.893 5.67-7.649.664-.693 2.427-2.401 2.479-2.402.107-.001 1.376 1.126 2.254 2.005 3.596 3.6 6.192 7.703 7.085 11.195.077.302.15.564.164.583.013.018.133.11.268.206.437.309.699.649.978 1.273.134.302.153.374.168.698.014-.118.014-.243.006-.467-.017-.44-.024-.472-.174-.81-.28-.624-.54-.964-.978-1.273a2.503 2.503 0 0 1-.268-.206 7.1 7.1 0 0 1-.164-.582c-.893-3.493-3.49-7.596-7.085-11.196-.878-.879-2.147-2.006-2.254-2.005zm10.367 25.53c-.17-.006-.602.095-.814.189-.159.07-.197.072-.55.031a2.062 2.062 0 0 0-.745.018c-.753.127-1.452.54-1.66.98a.81.81 0 0 0-.029.662c.01-.028.016-.055.029-.083.208-.44.907-.853 1.66-.98.313-.053.423-.056.746-.018.352.04.39.038.549-.032.212-.094.645-.194.814-.19.278.009.665.182.916.41.176.16.347.447.428.694.032-.139.054-.27.05-.344-.013-.27-.241-.713-.478-.928-.251-.228-.638-.4-.916-.41zm-20.798 0c-.34.01-.781.237-1.035.533-.234.274-.338.534-.335.836.002.102.015.208.032.313.045-.196.14-.38.303-.57.254-.296.695-.523 1.035-.533.182-.005.679.115.859.208.103.053.164.055.518.014.347-.04.452-.037.768.016.752.127 1.45.54 1.659.981.013.028.019.055.029.083a.811.811 0 0 0-.03-.661c-.207-.44-.906-.854-1.658-.981-.316-.054-.421-.056-.768-.016-.354.04-.415.039-.518-.015-.18-.093-.677-.213-.86-.208zm20.266 3.2a.993.993 0 0 1-.372.588c-.176.14-.287.183-.761.295-.263.062-.51.223-.609.398-.108.191-.106.434-.03.655.01-.025.017-.052.03-.076.1-.176.346-.337.609-.399.474-.112.585-.155.761-.294.271-.214.4-.494.4-.865 0-.132-.008-.22-.028-.301zm-19.699.002c-.02.08-.03.169-.03.301 0 .37.13.65.401.865.177.14.288.182.762.294.263.062.509.223.608.398.013.023.019.05.029.073.075-.22.078-.462-.029-.651-.1-.176-.345-.336-.608-.398-.474-.112-.585-.155-.762-.295a.994.994 0 0 1-.37-.587z" fill="#fff" fill-opacity=".368" stroke-width=".037"/></g></svg>