<svg xmlns="http://www.w3.org/2000/svg" xmlns:xlink="http://www.w3.org/1999/xlink" width="128" height="128" viewBox="0 0 128 128"><defs><linearGradient id="u"><stop offset="0" stop-color="#fff"/><stop offset="1" stop-color="#fff" stop-opacity="0"/></linearGradient><linearGradient id="t"><stop offset="0" stop-color="#fff" stop-opacity=".494"/><stop offset="1" stop-color="#a4a4a4"/></linearGradient><linearGradient id="q"><stop offset="0" stop-color="#4f6d9f" stop-opacity="0"/><stop offset=".478" stop-color="#4f6d9f" stop-opacity=".522"/><stop offset="1" stop-color="#4f6d9f" stop-opacity="0"/></linearGradient><linearGradient id="p"><stop offset="0"/><stop offset="1" stop-opacity="0"/></linearGradient><linearGradient id="o"><stop offset="0"/><stop offset="1" stop-opacity="0"/></linearGradient><linearGradient id="n"><stop offset="0" stop-color="#22282f" stop-opacity="0"/><stop offset=".276" stop-color="#22282f" stop-opacity=".718"/><stop offset=".491" stop-color="#0e1114"/><stop offset=".716" stop-color="#22282f" stop-opacity=".841"/><stop offset="1" stop-color="#22282f" stop-opacity="0"/></linearGradient><linearGradient id="m"><stop offset="0" stop-color="#22282f"/><stop offset="1" stop-color="#394350" stop-opacity="0"/></linearGradient><linearGradient id="l"><stop offset="0" stop-color="#e2e9f7"/><stop offset="1" stop-color="#8a93ba"/></linearGradient><linearGradient id="k"><stop offset="0" stop-color="#919fca"/><stop offset=".117" stop-color="#697eaa"/><stop offset=".184" stop-color="#b4bfd2"/><stop offset=".258" stop-color="#6c83aa"/><stop offset=".301" stop-color="#8fa2bf"/><stop offset=".399" stop-color="#6c7da8"/><stop offset=".514" stop-color="#b7c1d7"/><stop offset="1" stop-color="#c2d2eb"/></linearGradient><linearGradient id="j"><stop offset="0" stop-color="#edf3fd"/><stop offset="1" stop-color="#4c659e"/></linearGradient><linearGradient id="i"><stop offset="0" stop-color="#aab1cb"/><stop offset="1" stop-color="#545f7b"/></linearGradient><linearGradient id="h"><stop offset="0" stop-color="#0e1328"/><stop offset=".087" stop-color="#222739"/><stop offset=".272" stop-color="#55576b"/><stop offset=".444" stop-color="#4e5065"/><stop offset=".73" stop-color="#1e1d2f"/><stop offset=".949" stop-color="#181626"/><stop offset="1" stop-color="#282633"/></linearGradient><linearGradient id="g"><stop offset="0" stop-color="#7c7784"/><stop offset=".106" stop-color="#8f9cc8"/><stop offset=".183" stop-color="#899bc6"/><stop offset=".372" stop-color="#7c92ce"/><stop offset=".498" stop-color="#a3bdf5"/><stop offset=".641" stop-color="#6277ab"/><stop offset=".746" stop-color="#5b7196"/><stop offset=".846" stop-color="#393b55"/><stop offset=".879" stop-color="#393f4d"/><stop offset=".977" stop-color="#4f5454"/><stop offset="1" stop-color="#6c605a"/></linearGradient><linearGradient id="f"><stop offset="0" stop-color="#19419d"/><stop offset=".288" stop-color="#3db6ff"/><stop offset=".521" stop-color="#123df4"/><stop offset=".59" stop-color="#122fd7"/><stop offset=".778" stop-color="#0b1dad"/><stop offset=".941" stop-color="#071d9b"/><stop offset="1" stop-color="#3958bb"/></linearGradient><linearGradient id="e"><stop offset="0" stop-color="#747474"/><stop offset="1" stop-color="#b9b9bb"/></linearGradient><linearGradient id="d"><stop offset="0" stop-color="#f1f1f1"/><stop offset="1" stop-color="#fff"/></linearGradient><linearGradient id="c"><stop offset="0" stop-color="#483831" stop-opacity=".791"/><stop offset=".099" stop-color="#7b5344" stop-opacity=".401"/><stop offset=".231" stop-color="#fff" stop-opacity=".456"/><stop offset=".637" stop-color="#fff" stop-opacity=".143"/><stop offset="1" stop-color="#433430" stop-opacity=".198"/></linearGradient><linearGradient id="b"><stop offset="0" stop-color="#251c19" stop-opacity=".429"/><stop offset="1" stop-color="#7d6055" stop-opacity=".181"/></linearGradient><linearGradient id="a"><stop offset="0" stop-color="#1ba6d9"/><stop offset="1" stop-color="#6af1fa"/></linearGradient><linearGradient xlink:href="#a" id="x" x1="977.094" y1="341.021" x2="946.664" y2="50.099" gradientUnits="userSpaceOnUse" gradientTransform="matrix(.24313 0 0 .24313 -183.393 -4.327)"/><linearGradient xlink:href="#b" id="z" x1="808.044" y1="294.135" x2="811.996" y2="293.798" gradientUnits="userSpaceOnUse" gradientTransform="matrix(.24313 0 0 .24313 -183.393 -4.327)"/><linearGradient xlink:href="#c" id="A" x1="791.575" y1="293.939" x2="808.42" y2="292.495" gradientUnits="userSpaceOnUse" gradientTransform="matrix(.24313 0 0 .24313 -183.393 -4.327)"/><linearGradient xlink:href="#d" id="y" x1="852.586" y1="413.469" x2="1174.662" y2="511.532" gradientUnits="userSpaceOnUse" gradientTransform="matrix(.24313 0 0 .24313 -183.393 -4.327)"/><linearGradient xlink:href="#e" id="v" x1="231.914" y1="648.15" x2="630.316" y2="603.204" gradientUnits="userSpaceOnUse" gradientTransform="matrix(.24313 0 0 .24313 -38.162 -33.49)"/><linearGradient xlink:href="#f" id="I" x1="464.174" y1="281.653" x2="506.26" y2="307.656" gradientUnits="userSpaceOnUse" gradientTransform="matrix(.24313 0 0 .24313 -38.727 -6.053)"/><linearGradient xlink:href="#g" id="H" x1="419.748" y1="355.004" x2="461.533" y2="382.176" gradientUnits="userSpaceOnUse" gradientTransform="matrix(.24313 0 0 .24313 -38.659 -5.984)"/><linearGradient xlink:href="#h" id="G" x1="475.659" y1="419.149" x2="508.092" y2="438.507" gradientUnits="userSpaceOnUse" gradientTransform="matrix(.24313 0 0 .24313 -56.08 -12.658)"/><linearGradient xlink:href="#i" id="F" x1="440.003" y1="436.355" x2="437.151" y2="440.603" gradientUnits="userSpaceOnUse" gradientTransform="matrix(.24313 0 0 .24313 -47.247 -5.994)"/><linearGradient xlink:href="#j" id="D" x1="467.307" y1="536.168" x2="484.667" y2="546.858" gradientUnits="userSpaceOnUse" gradientTransform="matrix(.24313 0 0 .24313 -60.505 -22.914)"/><linearGradient xlink:href="#k" id="L" x1="645.763" y1="150.39" x2="657.611" y2="156.973" gradientUnits="userSpaceOnUse" gradientTransform="matrix(.24313 0 0 .24313 -63.164 -8.562)"/><linearGradient xlink:href="#l" id="K" x1="649.136" y1="144.296" x2="652.121" y2="146.039" gradientUnits="userSpaceOnUse" gradientTransform="matrix(.24313 0 0 .24313 -63.058 -8.386)"/><linearGradient xlink:href="#m" id="J" x1="850.969" y1="144.181" x2="860.916" y2="150.719" gradientUnits="userSpaceOnUse" gradientTransform="matrix(.24313 0 0 .24313 -111.715 -7.108)"/><linearGradient xlink:href="#n" id="B" x1="990.776" y1="271.637" x2="1069.474" y2="272.576" gradientUnits="userSpaceOnUse" gradientTransform="scale(.24313) rotate(31.846 676.158 -947.622)"/><radialGradient xlink:href="#o" id="C" cx="1258.451" cy="-96.689" fx="1258.451" fy="-96.689" r="21.996" gradientTransform="matrix(.24313 0 0 .39853 -208.482 117.17)" gradientUnits="userSpaceOnUse"/><radialGradient xlink:href="#p" id="w" cx="1155.826" cy="-623.105" fx="1155.826" fy="-623.105" r="50.855" gradientTransform="matrix(.20351 -.00234 .02408 .4641 -122.367 257.394)" gradientUnits="userSpaceOnUse"/><linearGradient xlink:href="#q" id="M" x1="364.042" y1="463.431" x2="377.621" y2="458.809" gradientUnits="userSpaceOnUse" gradientTransform="matrix(.24313 0 0 .24313 -39.05 -6.027)"/><linearGradient id="r"><stop offset="0"/><stop offset="1" stop-color="#363636"/></linearGradient><linearGradient id="s"><stop offset="0" stop-color="#c30000"/><stop offset="1" stop-color="#f12300"/></linearGradient><linearGradient xlink:href="#t" id="E" x1="1288.687" y1="27.426" x2="1371.668" y2="467.077" gradientUnits="userSpaceOnUse" gradientTransform="matrix(.24313 0 0 .24313 -232.12 -4.327)"/><linearGradient xlink:href="#u" id="N" x1="48.819" y1="84.228" x2="56.34" y2="13.153" gradientUnits="userSpaceOnUse"/></defs><path d="M14.052 123.381c.058 1.229 1.151 1.96 1.83 2.379 2.56 1.554 4.412 1.162 6.457.894l90.8-10.034c1.364-.062 2.903-.41 2.731-2.285l-.546-4.967-99.84 10.828z" fill="url(#v)" stroke-width=".243"/><path d="M16.284 121.912c-.259 1.15.495 2.882 2.67 3.283l3.241-.24-2.98-4.309a30.24 30.24 0 0 0-2.93 1.266z" fill="#0b0b0b" fill-opacity=".456" stroke-width=".243"/><path d="M18.075 121.912c-.258 1.15.495 2.882 2.67 3.283l92.725-10.145.843-.562 1.686-4.307c-32.641 3.91-81.109 3.3-97.924 11.731z" fill="#f5f5f5" stroke-width=".243"/><path d="M4.498 13.375c1.135-.485 2.383-.82 4.075-.562l.14.422 1.405-.281.14-.527 92.726-9.589c1.91-.257 2.88.253 3.063 2.33l12.83 102.7c.14 1.918-.538 2.767-2.125 2.869l-99.89 11.38c-2.026.26-2.13.515-2.81 1.264z" fill="#747474" stroke-width=".243"/><path d="M111.292-30.574A12.364 27.755 0 0 1 98.938-2.82a12.364 27.755 0 0 1-12.375-27.71 12.364 27.755 0 0 1 12.335-27.8 12.364 27.755 0 0 1 12.394 27.665" transform="matrix(.8516 .5242 -.63885 .76933 0 0)" opacity=".399" fill="url(#w)" stroke-width="0" stroke-linecap="round" stroke-linejoin="round" paint-order="fill markers stroke"/><path d="M4.498 12.392c1.135-.485 2.383-.82 4.075-.562l.14.422 1.405-.281.14-.527 92.726-9.589c1.91-.258 2.88.253 3.063 2.33l12.83 102.699c.14 1.919-.538 2.768-2.125 2.87l-99.89 10.677c-2.026.26-2.13 1.218-2.81 1.967z" fill="url(#x)" stroke-width=".243"/><path d="M115.759 81.926L17.395 92.938c-.352.07-.644.096-.646.348v.198l-1.291.15c-1.407-.473-2.665-.197-3.878.3l2.472 28.464c.61-.864 1.273-1.78 2.81-1.967l99.89-10.678c1.586-.101 2.265-.95 2.125-2.87z" fill="url(#y)" stroke-width=".243"/><text style="line-height:125%;-inkscape-font-specification:'Source Sans Pro Bold'" x="15.336" y="106.188" transform="matrix(.97988 -.10156 .0985 1.01033 0 0)" font-weight="700" font-size="11.124" font-family="Source Sans Pro" letter-spacing="0" word-spacing="0" fill="#3bb2f6" stroke-width=".278"><tspan x="15.336" y="106.188">Scribus</tspan></text><text style="line-height:125%;-inkscape-font-specification:'Source Sans Pro Bold'" x="14.778" y="117.343" transform="rotate(-5.646)" font-weight="700" font-size="9.725" font-family="Source Sans Pro" letter-spacing="0" word-spacing="0" fill="#535353" fill-opacity=".742" stroke-width=".243"><tspan x="14.778" y="117.343">Books Editor</tspan></text><path d="M8.573 11.83l9.151 108.748 1.06-.057-8.666-108.55z" fill="url(#z)" stroke-width=".243"/><path style="line-height:normal;font-variant-ligatures:normal;font-variant-position:normal;font-variant-caps:normal;font-variant-numeric:normal;font-variant-alternates:normal;font-feature-settings:normal;text-indent:0;text-align:start;text-decoration-line:none;text-decoration-style:solid;text-decoration-color:#000;text-transform:none;text-orientation:mixed;shape-padding:0;isolation:auto;mix-blend-mode:normal" d="M10.75 11.329l-.685.13L18.8 120.536l.786-.03z" color="#000" font-weight="400" font-family="sans-serif" white-space="normal" overflow="visible" fill="#fff" fill-opacity=".302" stroke-width=".389"/><path d="M4.498 12.392c1.135-.485 2.383-.82 4.075-.562l.14.422 9.083 108.08-.934.099c-2.368.274-2.314 1.194-2.81 1.967z" fill="url(#A)" stroke-width=".243" stroke-opacity=".302"/><path d="M107.477 15.633l-62.85 101.185a2.59 2.59 0 0 0-.295.677l17.74-1.897L110.272 38z" opacity=".399" fill="url(#B)" stroke-width="0" stroke-linecap="round" stroke-linejoin="round" paint-order="fill markers stroke"/><path d="M102.837 78.635a5.348 8.766 0 0 1-5.344 8.766 5.348 8.766 0 0 1-5.352-8.752 5.348 8.766 0 0 1 5.335-8.78 5.348 8.766 0 0 1 5.36 8.738" transform="rotate(27.17)" opacity=".399" fill="url(#C)" stroke-width="0" stroke-linecap="round" stroke-linejoin="round" paint-order="fill markers stroke"/><path d="M55.542 98.753c-2.212 2.842-4.425 5.682-7.254 8.199-.295.196-.268.375-.283.723.197 3.503-.054 6.172-.302 9.338l3.484-6.318c-1.191-2.826 1.125-2.993 1.811-2.67.986.465 1.307 2.51-1.2 2.91l-3.597 6.328c2.533-1.835 5.136-3.042 7.762-4.04.173-.057.819-.405.843-.772.346-3.337 4.252-11.028 4.672-10.642z" fill="url(#D)" stroke-width=".243"/><path style="line-height:normal;font-variant-ligatures:normal;font-variant-position:normal;font-variant-caps:normal;font-variant-numeric:normal;font-variant-alternates:normal;font-feature-settings:normal;text-indent:0;text-align:start;text-decoration-line:none;text-decoration-style:solid;text-decoration-color:#000;text-transform:none;text-orientation:mixed;shape-padding:0;isolation:auto;mix-blend-mode:normal" d="M55.542 98.753c-2.212 2.841-4.426 5.682-7.254 8.199-.296.196-.269.375-.283.723.196 3.503-.054 6.172-.302 9.338l3.483-6.318c-1.19-2.826 1.126-2.993 1.812-2.67.986.465 1.307 2.51-1.2 2.91l-3.597 6.328c2.533-1.836 5.136-3.042 7.763-4.04.172-.057.818-.405.842-.772.34-3.281 4.122-10.772 4.648-10.655zm5.912 3.043l.024.013a.057.057 0 0 0-.024-.013zm-5.813-2.582l5.183 2.669c-.155.2-.322.442-.518.77-.44.735-.982 1.771-1.522 2.926-1.08 2.31-2.156 5.055-2.34 6.835v.014c.002-.022-.07.12-.222.235a2.302 2.302 0 0 1-.373.216l-.007.002-.007.002c-2.204.837-4.402 1.85-6.562 3.235l2.771-4.875c1.219-.254 1.893-.932 2.024-1.675.14-.783-.247-1.559-.913-1.873-.254-.12-.565-.168-.912-.15a2.032 2.032 0 0 0-1.059.333 1.615 1.615 0 0 0-.672 1.108c-.068.455.032 1.01.284 1.667l-2.612 4.736c.192-2.476.347-4.829.188-7.704.007-.18.012-.295.022-.33.01-.034-.003-.033.098-.1l.022-.014.019-.017c2.78-2.473 4.956-5.247 7.108-8.01z" color="#000" font-weight="400" font-family="sans-serif" white-space="normal" overflow="visible" fill="#08092d" fill-opacity=".225" stroke-width=".729"/><path style="line-height:normal;font-variant-ligatures:normal;font-variant-position:normal;font-variant-caps:normal;font-variant-numeric:normal;font-variant-alternates:normal;font-feature-settings:normal;text-indent:0;text-align:start;text-decoration-line:none;text-decoration-style:solid;text-decoration-color:#000;text-transform:none;text-orientation:mixed;shape-padding:0;isolation:auto;mix-blend-mode:normal" d="M10.834 12.118l92.236-9.539.012-.001c.218-.03.415-.046.59-.051.176-.005.331 0 .467.017.272.031.468.102.604.197.27.19.495.576.578 1.508v.013l12.828 102.68c.062.863-.076 1.361-.27 1.619-.196.259-.504.422-1.174.465h-.016l-99.913 10.68-.008.002c-1.007.129-1.668.47-2.142.878l-.574 1.812c.68-.75.784-1.707 2.81-1.967l99.89-10.678c1.587-.101 2.265-.95 2.125-2.87L106.047 4.185c-.16-1.816-.924-2.435-2.39-2.388-.21.006-.434.027-.673.06l-92.726 9.588z" color="#000" font-weight="400" font-family="sans-serif" white-space="normal" overflow="visible" fill="url(#E)" fill-opacity=".973" stroke-width="1.459"/><path d="M54.681 97.015l-.236.82c-.077.379.28.78.671 1.017l6.197 3.775c.352.215.974.312 1.216.013l.497-.584z" fill="url(#F)" stroke-width=".243"/><path d="M62.622 81.589c-2.457 6.853-5.338 10.766-7.993 15.197-.113.224-.01.367.14.492 2.644 1.684 5.107 3.441 8.184 4.952.208.111.385-.223.456-.386 2.423-5.687 5.489-10.444 9.594-13.699-3.46-3.11-6.92-4.924-10.38-6.556z" fill="url(#G)" stroke-width=".243"/><path d="M62.627 81.59l-.014.024c-.069.191-.139.372-.208.558 3.43 1.908 6.762 4.164 10.105 6.382.164-.137.326-.276.493-.409-3.458-3.109-6.917-4.922-10.376-6.554z" fill-opacity=".225" stroke-width=".243"/><path d="M64.112 79.154l-1.49 2.435c3.526 1.953 6.947 4.279 10.381 6.556l1.435-2.387c-3.325-2.552-6.737-4.845-10.326-6.604z" fill="url(#H)" stroke-width=".243"/><path d="M112.168 8.739c-1.372.02-2.958.503-3.598 1.274C97.882 21.147 92.114 33.686 83.908 45.53c-.312.36-.564.91-.15 1.463L64.113 79.156c3.758 2.02 7.067 4.297 10.326 6.603l19.53-32.482.103.063c.291.118.816.02 1.124-.386 7.86-12.551 15.937-26.674 20.426-38.967.718-2.052-.762-4.477-1.825-4.972-.427-.199-1.006-.285-1.63-.276z" fill="url(#I)" stroke-width=".243"/><path d="M83.757 46.992a1.06 1.06 0 0 1-.201-.44c4.92-.337 8.392 3.214 11.248 6.722-.261.127-.545.14-.732.065-1.995-3.054-6.046-6.77-10.315-6.347z" fill="#272727" fill-opacity=".33" stroke-width=".243"/><path d="M105.887 16.38l.507.952-18.18 27.915-4.306.282 15.78-25.813 3.902-3.904z" fill="url(#J)" stroke-width=".243"/><path d="M104.385 15.117l-1.136-.134c-.688-.168-1.328.274-1.833.592-.473.3-.867.64-1.154 1.032-2.289 2.34-3.514 4.893-5.215 7.351-2.155 3.452-4.516 8.027-7.104 13.362l-3.775 7.004c-.6 1.208-.101 1.215.745.844l7.451-12.815 6.706-11.276 4.52-5.265z" fill="url(#K)" stroke-width=".243"/><path d="M105.544 17.22l-3.875.104 2.143-1.826 1.405.526z" fill="#62748f" stroke-width=".243"/><path d="M105.544 17.22l-1.265-1.335c-5.93 5.53-7.52 10.26-9.78 14.55-2.446 4.647-4.454 9.07-8.413 14.672-.588.725-1.698.652-2.178.422 12.472-19.313 11.262-21.948 19-29.908 1.374-1.413 2.613.373 2.979.76z" fill="url(#L)" stroke-width=".243"/><path d="M52.972 101.99c-1.24 1.504-2.549 2.972-4.021 4.354l1.952 2.538c.277-1.068 1.604-1.088 2.095-.857.182.086.342.226.465.4l.072-.02z" fill="url(#M)" stroke-width=".243"/><path d="M101.479 2.012L29.23 9.482C15.292 44.67 37.731 69.7 52.295 86.684c-10.988-56.95 39.725-41.18 49.184-84.672z" fill="url(#N)"/></svg>