<svg xmlns="http://www.w3.org/2000/svg" xmlns:xlink="http://www.w3.org/1999/xlink" height="128" image-rendering="optimizeSpeed" viewBox="0 0 128 128" width="128"><defs><linearGradient id="a"><stop offset="0" stop-color="#79e2f1"/><stop offset="1" stop-color="#0a58e0"/></linearGradient><linearGradient xlink:href="#a" id="s" x1="558.428" y1="75.093" x2="549.06" y2="986.841" gradientUnits="userSpaceOnUse"/><linearGradient id="j"><stop offset="0"/><stop offset="1" stop-opacity="0"/></linearGradient><linearGradient id="p"><stop offset="0" stop-color="#c6376d"/><stop offset="1" stop-color="#c6376d" stop-opacity="0"/></linearGradient><linearGradient y2="-43.843" x2="-653.299" y1="416.957" x1="-177.999" gradientUnits="userSpaceOnUse" id="c" xlink:href="#b"/><linearGradient id="b"><stop offset="0" stop-color="#e14e70"/><stop offset="1" stop-color="#e14e70" stop-opacity="0"/></linearGradient><linearGradient id="d"><stop offset="0" stop-color="#008dff"/><stop offset="1" stop-color="#008dff" stop-opacity="0"/></linearGradient><linearGradient id="e"><stop offset="0" stop-color="#f2a558"/><stop offset="1" stop-color="#f2a558" stop-opacity="0"/></linearGradient><linearGradient id="f"><stop offset="0" stop-color="#fd84af"/><stop offset="1" stop-color="#ec538c"/></linearGradient><linearGradient id="h"><stop offset="0"/><stop offset="1" stop-color="#fff" stop-opacity=".2"/></linearGradient><linearGradient id="i"><stop offset="0" stop-color="#fff"/><stop offset="1" stop-color="#fff" stop-opacity="0"/></linearGradient><linearGradient gradientTransform="matrix(1.00587 0 0 .99417 100 0)" gradientUnits="userSpaceOnUse" id="g" y2="7.017" x2="45.448" y1="92.54" x1="45.448"><stop offset="0"/><stop offset="1" stop-opacity=".588"/></linearGradient><linearGradient id="l"><stop offset="0" stop-color="#b4b4b4"/><stop offset="1" stop-color="#e6e6e6"/></linearGradient><linearGradient id="k"><stop offset="0" stop-color="#5a5361"/><stop offset="1" stop-color="#1e1e1e"/></linearGradient><linearGradient gradientTransform="matrix(82 0 0 -82 14489.971 47794.699)" y2="581.436" x2="-175.667" y1="582.198" x1="-175.667" gradientUnits="userSpaceOnUse" id="n"><stop offset="0" stop-color="#81b4e0"/><stop offset="1" stop-color="#0c5a94"/></linearGradient><linearGradient y2="48.085" x2="78.466" y1="56.301" x1="64.478" gradientUnits="userSpaceOnUse" id="o"><stop offset="0" stop-color="#2d7787"/><stop offset=".657" stop-color="#3c9fb4"/><stop offset="1" stop-color="#64bacc"/></linearGradient><linearGradient id="m" gradientUnits="userSpaceOnUse" x1="64.478" y1="56.301" x2="78.466" y2="48.085"><stop offset="0" stop-color="#b4b4b4"/><stop offset="1" stop-color="#dcdcdc"/></linearGradient></defs><linearGradient id="q"><stop offset="0" stop-color="#fff"/><stop offset="1" stop-color="#d7d7d7"/></linearGradient><linearGradient id="r" gradientUnits="userSpaceOnUse" x1="520" x2="520" xlink:href="#q" y1="4" y2="1024"/><path d="M986.739 315.986q-9.329-22.617-21.044-44.311a453.285 453.285 0 0 0-13.993-24.299c-21.207-34.386-47.078-66.874-77.614-97.41C774.128 50.006 653.397 0 512 0S249.925 50.007 149.966 149.966 0 370.603 0 512s50.007 262.129 149.966 362.088C249.926 974.048 370.603 1024 512 1024s262.129-49.953 362.088-149.912c55.051-55.105 94.97-116.502 119.702-184.135C1013.912 634.793 1024 575.512 1024 512c0-48.705-5.912-94.97-17.79-138.793a658.942 658.942 0 0 0-4.23-14.753 500.22 500.22 0 0 0-15.241-42.468z" fill="url(#r)" stroke-width="1.085" transform="matrix(.11959 0 0 .11959 2 3.544)"/><path d="M969.7 392c-1.1-4.35-2.35-9-3.65-13.6-2.5-8.75-5.35-17.6-8.45-26.35-6.45-18.25-14.15-36.05-23.15-53.65-3.8-7.4-7.95-14.95-12.3-22.4h-.025q-30.601-52.01-76.325-97.75C753.65 86.1 642.35 40 512 40S270.4 86.1 178.25 178.25 40 381.65 40 512s46.1 241.65 138.25 333.8c68.05 68.05 146.5 110.95 234.9 128.65C445.1 980.85 477.9 984 512 984c130.35 0 241.65-46.05 333.8-138.2 48.6-48.6 84.4-102.5 107.35-161.8 17-43.95 27-90.8 29.95-140.75.6-10.2.9-20.65.9-31.25 0-41.75-4.7-81.6-14.3-120z" fill="url(#s)" transform="matrix(.11959 0 0 .11959 2 3.544)"/><g opacity=".189" fill="none" stroke="#000" stroke-opacity=".084"><path d="M80.745 36.185c-.597.004-1.221.02-1.868.05-9.019.397-17.623 2.494-21.961 5.353-1.946 1.282-2.634 2.151-3.375 4.265-1.251 3.571-2.028 9.48-2.051 15.6-.008 2.102.028 3.925.08 4.052.052.127.15.23.217.23.068 0 .652-.637 1.3-1.416 6.433-7.747 19.75-17.748 31.586-23.722 3.134-1.581 3.808-2.157 3.494-2.983-.352-.924-3.239-1.462-7.422-1.43zm-32.03 10.628c-.736-.003-2.678 1.17-4.208 2.599-3.673 3.43-5.484 8.41-4.813 13.236.179 1.286.54 2.093 1.53 3.417 1.968 2.63 6.74 6.463 10.485 8.42 1.179.616 1.468.702 1.608.477.043-.07-.188-1.033-.514-2.14-2.68-9.107-3.637-14.925-3.68-22.395-.013-2.37-.065-3.431-.172-3.538-.051-.051-.132-.076-.237-.076zm24.17 4.322c-.362.004-.699.082-1.339.236-2.46.594-5.406 2.256-8.887 5.014-1.154.915-3.277 2.9-3.923 3.668-.773.92-.712 1.195.266 1.194 8.617-.009 12.538.243 17.672 1.134 2.616.455 4.751.968 7.726 1.856 1.079.322 2.057.558 2.174.525.118-.033.246-.268.285-.525.117-.769-.893-3.81-1.745-5.257-2.391-4.06-6.244-6.801-10.739-7.642-.74-.138-1.127-.207-1.49-.203zm-5.617 11.01c-.674.01-.717.268-.269.924 4.86 7.116 6.861 10.498 9.015 15.242 1.099 2.418 1.877 4.471 2.819 7.43.34 1.072.697 2.014.79 2.092.094.08.36.052.594-.06.701-.337 2.646-2.884 3.362-4.402 2.007-4.263 2.103-8.991.266-13.178-.605-1.38-.644-1.436-1.62-2.32-1.877-1.698-4.908-3.196-9.149-4.52-1.406-.438-4.241-1.075-5.24-1.175a5.146 5.146 0 0 0-.568-.032zm-32.521 1.483c-.844 0-1.375 4.327-.873 7.114a15.507 15.507 0 0 0 5.994 9.679c1.235.922 1.824 1.204 2.994 1.434 3.043.598 8.662-.13 13.62-1.766 1.644-.543 2.488-.96 2.41-1.191-.024-.075-1.312-.724-2.862-1.442-8.339-3.868-14.225-7.633-19.804-12.669-.707-.637-1.372-1.16-1.48-1.16zm34.848 5.796c-.188-.01-.324.221-.456.692-2.335 8.295-3.643 12-5.896 16.698-1.15 2.395-2.223 4.31-3.887 6.931-.603.95-1.096 1.828-1.096 1.95 0 .122.191.308.428.416.708.321 3.91.177 5.533-.25 4.557-1.198 8.243-4.16 10.273-8.257.67-1.35.687-1.415.738-2.731.097-2.53-.701-5.816-2.41-9.916-.566-1.36-1.899-3.942-2.462-4.772-.338-.497-.577-.75-.765-.76zm-3.407 7.246c-.15 0-1.063.363-2.027.806-9.396 4.323-14.865 5.984-24.345 7.393l-1.12.166.02.425c.04.888 1.79 2.865 3.784 4.272a15.98 15.98 0 0 0 7.13 2.816c1.972.277 4.622.054 6.546-.548 2.123-.666 4.279-2.895 6.658-6.883 1.716-2.877 3.365-6.522 3.545-7.833.077-.562.06-.614-.19-.614z"/><path d="M80.745 36.185c-.597.004-1.221.02-1.868.05-9.019.397-17.623 2.494-21.961 5.353-1.946 1.282-2.634 2.151-3.375 4.265-1.251 3.571-2.028 9.48-2.051 15.6-.008 2.102.028 3.925.08 4.052.052.127.15.23.217.23.068 0 .652-.637 1.3-1.416 6.433-7.747 19.75-17.748 31.586-23.722 3.134-1.581 3.808-2.157 3.494-2.983-.352-.924-3.239-1.462-7.422-1.43zm-32.03 10.628c-.736-.003-2.678 1.17-4.208 2.599-3.673 3.43-5.484 8.41-4.813 13.236.179 1.286.54 2.093 1.53 3.417 1.968 2.63 6.74 6.463 10.485 8.42 1.179.616 1.468.702 1.608.477.043-.07-.188-1.033-.514-2.14-2.68-9.107-3.637-14.925-3.68-22.395-.013-2.37-.065-3.431-.172-3.538-.051-.051-.132-.076-.237-.076zm24.17 4.322c-.362.004-.699.082-1.339.236-2.46.594-5.406 2.256-8.887 5.014-1.154.915-3.277 2.9-3.923 3.668-.773.92-.712 1.195.266 1.194 8.617-.009 12.538.243 17.672 1.134 2.616.455 4.751.968 7.726 1.856 1.079.322 2.057.558 2.174.525.118-.033.246-.268.285-.525.117-.769-.893-3.81-1.745-5.257-2.391-4.06-6.244-6.801-10.739-7.642-.74-.138-1.127-.207-1.49-.203zm-5.617 11.01c-.674.01-.717.268-.269.924 4.86 7.116 6.861 10.498 9.015 15.242 1.099 2.418 1.877 4.471 2.819 7.43.34 1.072.697 2.014.79 2.092.094.08.36.052.594-.06.701-.337 2.646-2.884 3.362-4.402 2.007-4.263 2.103-8.991.266-13.178-.605-1.38-.644-1.436-1.62-2.32-1.877-1.698-4.908-3.196-9.149-4.52-1.406-.438-4.241-1.075-5.24-1.175a5.146 5.146 0 0 0-.568-.032zm-32.521 1.483c-.844 0-1.375 4.327-.873 7.114a15.507 15.507 0 0 0 5.994 9.679c1.235.922 1.824 1.204 2.994 1.434 3.043.598 8.662-.13 13.62-1.766 1.644-.543 2.488-.96 2.41-1.191-.024-.075-1.312-.724-2.862-1.442-8.339-3.868-14.225-7.633-19.804-12.669-.707-.637-1.372-1.16-1.48-1.16zm34.848 5.796c-.188-.01-.324.221-.456.692-2.335 8.295-3.643 12-5.896 16.698-1.15 2.395-2.223 4.31-3.887 6.931-.603.95-1.096 1.828-1.096 1.95 0 .122.191.308.428.416.708.321 3.91.177 5.533-.25 4.557-1.198 8.243-4.16 10.273-8.257.67-1.35.687-1.415.738-2.731.097-2.53-.701-5.816-2.41-9.916-.566-1.36-1.899-3.942-2.462-4.772-.338-.497-.577-.75-.765-.76zm-3.407 7.246c-.15 0-1.063.363-2.027.806-9.396 4.323-14.865 5.984-24.345 7.393l-1.12.166.02.425c.04.888 1.79 2.865 3.784 4.272a15.98 15.98 0 0 0 7.13 2.816c1.972.277 4.622.054 6.546-.548 2.123-.666 4.279-2.895 6.658-6.883 1.716-2.877 3.365-6.522 3.545-7.833.077-.562.06-.614-.19-.614z" stroke-width="1.7"/><path d="M80.745 36.185c-.597.004-1.221.02-1.868.05-9.019.397-17.623 2.494-21.961 5.353-1.946 1.282-2.634 2.151-3.375 4.265-1.251 3.571-2.028 9.48-2.051 15.6-.008 2.102.028 3.925.08 4.052.052.127.15.23.217.23.068 0 .652-.637 1.3-1.416 6.433-7.747 19.75-17.748 31.586-23.722 3.134-1.581 3.808-2.157 3.494-2.983-.352-.924-3.239-1.462-7.422-1.43zm-32.03 10.628c-.736-.003-2.678 1.17-4.208 2.599-3.673 3.43-5.484 8.41-4.813 13.236.179 1.286.54 2.093 1.53 3.417 1.968 2.63 6.74 6.463 10.485 8.42 1.179.616 1.468.702 1.608.477.043-.07-.188-1.033-.514-2.14-2.68-9.107-3.637-14.925-3.68-22.395-.013-2.37-.065-3.431-.172-3.538-.051-.051-.132-.076-.237-.076zm24.17 4.322c-.362.004-.699.082-1.339.236-2.46.594-5.406 2.256-8.887 5.014-1.154.915-3.277 2.9-3.923 3.668-.773.92-.712 1.195.266 1.194 8.617-.009 12.538.243 17.672 1.134 2.616.455 4.751.968 7.726 1.856 1.079.322 2.057.558 2.174.525.118-.033.246-.268.285-.525.117-.769-.893-3.81-1.745-5.257-2.391-4.06-6.244-6.801-10.739-7.642-.74-.138-1.127-.207-1.49-.203zm-5.617 11.01c-.674.01-.717.268-.269.924 4.86 7.116 6.861 10.498 9.015 15.242 1.099 2.418 1.877 4.471 2.819 7.43.34 1.072.697 2.014.79 2.092.094.08.36.052.594-.06.701-.337 2.646-2.884 3.362-4.402 2.007-4.263 2.103-8.991.266-13.178-.605-1.38-.644-1.436-1.62-2.32-1.877-1.698-4.908-3.196-9.149-4.52-1.406-.438-4.241-1.075-5.24-1.175a5.146 5.146 0 0 0-.568-.032zm-32.521 1.483c-.844 0-1.375 4.327-.873 7.114a15.507 15.507 0 0 0 5.994 9.679c1.235.922 1.824 1.204 2.994 1.434 3.043.598 8.662-.13 13.62-1.766 1.644-.543 2.488-.96 2.41-1.191-.024-.075-1.312-.724-2.862-1.442-8.339-3.868-14.225-7.633-19.804-12.669-.707-.637-1.372-1.16-1.48-1.16zm34.848 5.796c-.188-.01-.324.221-.456.692-2.335 8.295-3.643 12-5.896 16.698-1.15 2.395-2.223 4.31-3.887 6.931-.603.95-1.096 1.828-1.096 1.95 0 .122.191.308.428.416.708.321 3.91.177 5.533-.25 4.557-1.198 8.243-4.16 10.273-8.257.67-1.35.687-1.415.738-2.731.097-2.53-.701-5.816-2.41-9.916-.566-1.36-1.899-3.942-2.462-4.772-.338-.497-.577-.75-.765-.76zm-3.407 7.246c-.15 0-1.063.363-2.027.806-9.396 4.323-14.865 5.984-24.345 7.393l-1.12.166.02.425c.04.888 1.79 2.865 3.784 4.272a15.98 15.98 0 0 0 7.13 2.816c1.972.277 4.622.054 6.546-.548 2.123-.666 4.279-2.895 6.658-6.883 1.716-2.877 3.365-6.522 3.545-7.833.077-.562.06-.614-.19-.614z" stroke-width="2.4"/></g><path d="M80.745 36.185c-.597.004-1.221.02-1.868.05-9.019.397-17.623 2.494-21.961 5.353-1.946 1.282-2.634 2.151-3.375 4.265-1.251 3.571-2.028 9.48-2.051 15.6-.008 2.102.028 3.925.08 4.052.052.127.15.23.217.23.068 0 .652-.637 1.3-1.416 6.433-7.747 19.75-17.748 31.586-23.722 3.134-1.581 3.808-2.157 3.494-2.983-.352-.924-3.239-1.462-7.422-1.43zm-32.03 10.628c-.736-.003-2.678 1.17-4.208 2.599-3.673 3.43-5.484 8.41-4.813 13.236.179 1.286.54 2.093 1.53 3.417 1.968 2.63 6.74 6.463 10.485 8.42 1.179.616 1.468.702 1.608.477.043-.07-.188-1.033-.514-2.14-2.68-9.107-3.637-14.925-3.68-22.395-.013-2.37-.065-3.431-.172-3.538-.051-.051-.132-.076-.237-.076zm24.17 4.322c-.362.004-.699.082-1.339.236-2.46.594-5.406 2.256-8.887 5.014-1.154.915-3.277 2.9-3.923 3.668-.773.92-.712 1.195.266 1.194 8.617-.009 12.538.243 17.672 1.134 2.616.455 4.751.968 7.726 1.856 1.079.322 2.057.558 2.174.525.118-.033.246-.268.285-.525.117-.769-.893-3.81-1.745-5.257-2.391-4.06-6.244-6.801-10.739-7.642-.74-.138-1.127-.207-1.49-.203zm-5.617 11.01c-.674.01-.717.268-.269.924 4.86 7.116 6.861 10.498 9.015 15.242 1.099 2.418 1.877 4.471 2.819 7.43.34 1.072.697 2.014.79 2.092.094.08.36.052.594-.06.701-.337 2.646-2.884 3.362-4.402 2.007-4.263 2.103-8.991.266-13.178-.605-1.38-.644-1.436-1.62-2.32-1.877-1.698-4.908-3.196-9.149-4.52-1.406-.438-4.241-1.075-5.24-1.175a5.146 5.146 0 0 0-.568-.032zm-32.521 1.483c-.844 0-1.375 4.327-.873 7.114a15.507 15.507 0 0 0 5.994 9.679c1.235.922 1.824 1.204 2.994 1.434 3.043.598 8.662-.13 13.62-1.766 1.644-.543 2.488-.96 2.41-1.191-.024-.075-1.312-.724-2.862-1.442-8.339-3.868-14.225-7.633-19.804-12.669-.707-.637-1.372-1.16-1.48-1.16zm34.848 5.796c-.188-.01-.324.221-.456.692-2.335 8.295-3.643 12-5.896 16.698-1.15 2.395-2.223 4.31-3.887 6.931-.603.95-1.096 1.828-1.096 1.95 0 .122.191.308.428.416.708.321 3.91.177 5.533-.25 4.557-1.198 8.243-4.16 10.273-8.257.67-1.35.687-1.415.738-2.731.097-2.53-.701-5.816-2.41-9.916-.566-1.36-1.899-3.942-2.462-4.772-.338-.497-.577-.75-.765-.76zm-3.407 7.246c-.15 0-1.063.363-2.027.806-9.396 4.323-14.865 5.984-24.345 7.393l-1.12.166.02.425c.04.888 1.79 2.865 3.784 4.272a15.98 15.98 0 0 0 7.13 2.816c1.972.277 4.622.054 6.546-.548 2.123-.666 4.279-2.895 6.658-6.883 1.716-2.877 3.365-6.522 3.545-7.833.077-.562.06-.614-.19-.614z" fill="#fff" stroke-width=".228"/></svg>