<svg height="128" viewBox="0 0 128 128" width="128" xmlns="http://www.w3.org/2000/svg"><linearGradient id="a" gradientUnits="userSpaceOnUse" x1="65.748" x2="63.89" y1="22.247" y2="117.197"><stop offset="0" stop-color="#0cbbff"/><stop offset="1" stop-color="#2452e6"/></linearGradient><circle cx="64.614" cy="64.172" fill="url(#a)" r="59.877" stroke="#fff" stroke-width="5.612"/><path d="M81.897 122.306c9.017-12.392 12.406-23.47 10.757-33.833-2.224-13.98-12.172-22.638-20.045-30.077-7.873-7.438-13.93-13.772-15.433-20.222-1.504-6.45-.081-15.797 13.763-32.697L44.944 7.81c-7.52 13.062-9.638 24.641-7.247 34.902 3.27 14.031 13.344 22.819 21.178 30.22s13.172 13.305 14.027 18.682c.856 5.378-1.322 14.25-16.867 30.23 8.411 3.658 17.06 3.354 25.862.461z" fill="#fff"/></svg>