<svg xmlns="http://www.w3.org/2000/svg" xmlns:xlink="http://www.w3.org/1999/xlink" width="1024" height="1024"><defs><linearGradient id="a"><stop offset="0" stop-color="#fff"/><stop offset="1" stop-color="#d7d7d7"/></linearGradient><linearGradient id="e"><stop offset="0" stop-color="#fff"/><stop offset="1" stop-color="#d7d7d7"/></linearGradient><linearGradient id="d"><stop offset="0" stop-color="#f4fbfc"/><stop offset="1" stop-color="#d6d6d6"/></linearGradient><linearGradient xlink:href="#a" id="f" x1="102.298" y1="-.427" x2="102.298" y2="199.165" gradientUnits="userSpaceOnUse" gradientTransform="matrix(5.1 0 0 5.1 2 30.362)"/><linearGradient id="b"><stop offset="0" stop-color="#00b6ff"/><stop offset="1" stop-color="#0194cf"/></linearGradient><linearGradient xlink:href="#c" id="g" gradientUnits="userSpaceOnUse" x1="99.036" y1="-.505" x2="99.036" y2="199.84" gradientTransform="translate(42.84 72.198) scale(4.68662)"/><linearGradient xlink:href="#e" id="i" x1="13.784" y1=".403" x2="13.784" y2="23.336" gradientUnits="userSpaceOnUse" gradientTransform="matrix(5.12 0 0 5.12 29.82 -127.64)"/><filter id="h" x="-.035" width="1.069" y="-.037" height="1.075" color-interpolation-filters="sRGB"><feGaussianBlur stdDeviation="1.782"/></filter><linearGradient gradientUnits="userSpaceOnUse" id="c" x1="1.012" x2=".122" y1="1" y2=".063" gradientTransform="translate(0 -28.362)"><stop offset="0" stop-color="#0596ff"/><stop offset="1" stop-color="#0255c9"/></linearGradient></defs><g transform="translate(0 -28.362)"><circle style="marker:none" cx="512" cy="540.362" r="510" color="#000" overflow="visible" fill="url(#f)" stroke-width="46.585" enable-background="accumulate"/><circle style="marker:none" cx="511.502" cy="540.86" r="468.662" color="#000" overflow="visible" fill="url(#g)" stroke-width="42.809" enable-background="accumulate"/><g transform="matrix(5.21212 0 0 5.21212 30.023 907.498)" opacity=".2" filter="url(#h)"><path d="M147.728-58.551a29.004 29.004 0 0 1 3.994 8.064 29.928 29.928 0 0 1 1.387 9.067c0 4.48-.906 8.69-2.698 12.631a33.536 33.536 0 0 1-7.424 10.41c-3.154 2.98-6.825 5.32-11.044 7.019-4.219 1.7-8.658 2.534-13.378 2.534-6.723 0-12.754-1.587-18.105-4.756-1.485.205-2.98.353-4.49.466a66.82 66.82 0 0 1-4.516.143c-7.854 0-15.227-1.408-22.123-4.214-6.882-2.82-12.908-6.65-18.1-11.53-5.176-4.859-9.256-10.588-12.195-17.147-2.965-6.558-4.445-13.568-4.445-21.017 0-1.444.072-2.816.226-4.086.138-1.27.327-2.565.522-3.86-3.686-5.115-5.52-10.61-5.52-16.502 0-4.383.907-8.525 2.704-12.421 1.792-3.892 4.25-7.276 7.404-10.148 3.153-2.878 6.845-5.14 11.038-6.8 4.204-1.659 8.663-2.467 13.384-2.467 3.4 0 6.59.399 9.62 1.213 3.031.824 5.868 1.971 8.484 3.471 1.48-.21 2.995-.358 4.49-.476a74.648 74.648 0 0 1 4.511-.148c7.88 0 15.278 1.372 22.195 4.1 6.902 2.71 12.944 6.462 18.135 11.224 5.192 4.782 9.283 10.317 12.253 16.614 2.959 6.308 4.439 13.077 4.439 20.286.005 2.657-.241 5.437-.748 8.33zm-29.163 16.394c2.426-3.195 3.625-6.948 3.625-11.259 0-3.394-.676-6.246-2.007-8.56-1.388-2.304-3.344-4.235-5.868-5.776-2.32-1.495-5.335-2.82-9.027-4.009-3.712-.932-7.649-1.843-11.811-2.775l-4.562-1.04c-1.224-.26-2.197-.48-2.929-.68a21.84 21.84 0 0 1-2.283-.681 36.466 36.466 0 0 1-2.11-.83c-1.393-.583-2.56-1.377-3.487-2.309-.716-.803-1.075-1.884-1.075-3.225 0-1.961 1.168-3.712 3.487-5.264 2.626-1.448 5.837-2.145 9.651-2.099 4.408 0 7.506.65 9.252 1.956 2.11 1.546 3.763 3.451 4.946 5.699 1.029 1.648 2.073 2.877 3.154 3.686 1.029.789 2.457 1.214 4.254 1.27 2.023 0 3.697-.67 5.105-2.023 1.377-1.26 2.038-2.677 2.002-4.275 0-1.848-.522-3.666-1.546-5.417-1.014-1.643-2.719-3.394-5.069-5.253a30.479 30.479 0 0 0-3.901-2.201c-1.414-.676-3-1.27-4.726-1.772a42.036 42.036 0 0 0-5.709-1.126c-2.007-.251-4.198-.369-6.625-.369-6.114 0-11.27.748-15.468 2.243-4.51 1.556-7.926 3.696-10.24 6.471-2.314 2.642-3.471 5.817-3.471 9.523 0 3.902 1.121 7.076 3.333 9.524 2.227 2.647 5.243 4.649 9.057 6.005 3.625 1.45 8.259 2.72 13.942 3.815 2.125.502 3.983.927 5.627 1.25 1.618.317 3.087.68 4.372 1.074 2.422.66 4.388 1.767 5.888 3.339 1.603 1.361 2.407 3.112 2.407 5.273 0 2.985-1.465 5.402-4.357 7.245-2.734 1.89-6.431 2.821-11.085 2.754-3.728 0-6.426-.43-8.136-1.3-2.125-.968-3.691-2.196-4.72-3.66-1.306-1.67-2.35-3.523-3.19-5.525-.732-1.9-1.72-3.333-3.01-4.301-1.204-.978-2.612-1.464-4.266-1.464-2.11 0-3.85.588-5.227 1.746-1.378 1.315-2.038 2.856-2.007 4.587 0 3.016 1.116 6.031 3.328 9.052 2.196 3.108 5.017 5.535 8.453 7.28 5.033 2.602 11.356 3.918 18.954 3.969 6.2 0 11.725-.922 16.533-2.76 4.72-2.094 8.243-4.69 10.542-7.808z" stroke-width="5.12"/></g><path d="M147.728-58.551a29.004 29.004 0 0 1 3.994 8.064 29.928 29.928 0 0 1 1.387 9.067c0 4.48-.906 8.69-2.698 12.631a33.536 33.536 0 0 1-7.424 10.41c-3.154 2.98-6.825 5.32-11.044 7.019-4.219 1.7-8.658 2.534-13.378 2.534-6.723 0-12.754-1.587-18.105-4.756-1.485.205-2.98.353-4.49.466a66.82 66.82 0 0 1-4.516.143c-7.854 0-15.227-1.408-22.123-4.214-6.882-2.82-12.908-6.65-18.1-11.53-5.176-4.859-9.256-10.588-12.195-17.147-2.965-6.558-4.445-13.568-4.445-21.017 0-1.444.072-2.816.226-4.086.138-1.27.327-2.565.522-3.86-3.686-5.115-5.52-10.61-5.52-16.502 0-4.383.907-8.525 2.704-12.421 1.792-3.892 4.25-7.276 7.404-10.148 3.153-2.878 6.845-5.14 11.038-6.8 4.204-1.659 8.663-2.467 13.384-2.467 3.4 0 6.59.399 9.62 1.213 3.031.824 5.868 1.971 8.484 3.471 1.48-.21 2.995-.358 4.49-.476a74.648 74.648 0 0 1 4.511-.148c7.88 0 15.278 1.372 22.195 4.1 6.902 2.71 12.944 6.462 18.135 11.224 5.192 4.782 9.283 10.317 12.253 16.614 2.959 6.308 4.439 13.077 4.439 20.286.005 2.657-.241 5.437-.748 8.33zm-29.163 16.394c2.426-3.195 3.625-6.948 3.625-11.259 0-3.394-.676-6.246-2.007-8.56-1.388-2.304-3.344-4.235-5.868-5.776-2.32-1.495-5.335-2.82-9.027-4.009-3.712-.932-7.649-1.843-11.811-2.775l-4.562-1.04c-1.224-.26-2.197-.48-2.929-.68a21.84 21.84 0 0 1-2.283-.681 36.466 36.466 0 0 1-2.11-.83c-1.393-.583-2.56-1.377-3.487-2.309-.716-.803-1.075-1.884-1.075-3.225 0-1.961 1.168-3.712 3.487-5.264 2.626-1.448 5.837-2.145 9.651-2.099 4.408 0 7.506.65 9.252 1.956 2.11 1.546 3.763 3.451 4.946 5.699 1.029 1.648 2.073 2.877 3.154 3.686 1.029.789 2.457 1.214 4.254 1.27 2.023 0 3.697-.67 5.105-2.023 1.377-1.26 2.038-2.677 2.002-4.275 0-1.848-.522-3.666-1.546-5.417-1.014-1.643-2.719-3.394-5.069-5.253a30.479 30.479 0 0 0-3.901-2.201c-1.414-.676-3-1.27-4.726-1.772a42.036 42.036 0 0 0-5.709-1.126c-2.007-.251-4.198-.369-6.625-.369-6.114 0-11.27.748-15.468 2.243-4.51 1.556-7.926 3.696-10.24 6.471-2.314 2.642-3.471 5.817-3.471 9.523 0 3.902 1.121 7.076 3.333 9.524 2.227 2.647 5.243 4.649 9.057 6.005 3.625 1.45 8.259 2.72 13.942 3.815 2.125.502 3.983.927 5.627 1.25 1.618.317 3.087.68 4.372 1.074 2.422.66 4.388 1.767 5.888 3.339 1.603 1.361 2.407 3.112 2.407 5.273 0 2.985-1.465 5.402-4.357 7.245-2.734 1.89-6.431 2.821-11.085 2.754-3.728 0-6.426-.43-8.136-1.3-2.125-.968-3.691-2.196-4.72-3.66-1.306-1.67-2.35-3.523-3.19-5.525-.732-1.9-1.72-3.333-3.01-4.301-1.204-.978-2.612-1.464-4.266-1.464-2.11 0-3.85.588-5.227 1.746-1.378 1.315-2.038 2.856-2.007 4.587 0 3.016 1.116 6.031 3.328 9.052 2.196 3.108 5.017 5.535 8.453 7.28 5.033 2.602 11.356 3.918 18.954 3.969 6.2 0 11.725-.922 16.533-2.76 4.72-2.094 8.243-4.69 10.542-7.808z" fill="url(#i)" stroke-width="5.12" transform="matrix(5.21212 0 0 5.21212 30.023 897.537)"/></g></svg>