<svg xmlns="http://www.w3.org/2000/svg" xmlns:xlink="http://www.w3.org/1999/xlink" width="128" height="128" viewBox="0 0 128 128"><defs><linearGradient id="b"><stop offset="0" stop-color="#1174f7"/><stop offset="1" stop-color="#02bffd"/></linearGradient><linearGradient id="a"><stop offset="0" stop-color="#012fcc"/><stop offset="1" stop-color="#01c2fe"/></linearGradient><linearGradient xlink:href="#a" id="c" x1="-741.832" y1="959.047" x2="-741.832" y2="93.836" gradientUnits="userSpaceOnUse" gradientTransform="matrix(.13668 0 0 .13668 162.312 -5.99)"/><linearGradient xlink:href="#b" id="d" x1="-738.764" y1="931.434" x2="-738.764" y2="152.131" gradientUnits="userSpaceOnUse" gradientTransform="matrix(.13668 0 0 .13668 162.312 -5.99)"/></defs><circle cx="63.592" cy="64.286" r="61.38" fill="url(#c)" stroke-width=".787" stroke-linecap="round" stroke-linejoin="round"/><circle r="55.09" cy="64.286" cx="63.592" fill="url(#d)" stroke-width=".706" stroke-linecap="round" stroke-linejoin="round"/><g fill="none" stroke="#000" stroke-linecap="round" stroke-linejoin="round" stroke-opacity=".012" opacity=".401"><path d="M56.934 27.934c-1.068 0-1.309.046-2.013.392-1.021.501-1.883 1.365-2.337 2.34-.481 1.034-.568 2.618-.198 3.592.141.37 1.43 2.699 2.864 5.175 1.435 2.477 2.612 4.596 2.616 4.71.004.113-3.531 6.334-7.856 13.824l-7.864 13.619-7.14.039-7.138.039-.808.376c-1.051.491-1.97 1.406-2.445 2.435-.321.697-.38.996-.38 1.966 0 .971.056 1.265.377 1.95.637 1.367 1.898 2.42 3.289 2.747.281.067 10.618.125 23.325.133l22.82.014.256-.284c.216-.24.255-.488.249-1.581-.019-3.316-1.932-6.482-4.55-7.53-.489-.197-1.533-.232-8.637-.292l-8.08-.069 2.306-3.969c14.352-24.696 18.987-32.734 19.207-33.302.202-.525.248-.91.204-1.75-.098-1.904-1.045-3.35-2.738-4.182-.704-.345-.945-.392-2.01-.392-1.053 0-1.322.05-2.058.39-1.167.54-1.873 1.369-3.314 3.896-.66 1.158-1.243 2.105-1.294 2.105-.051 0-.631-.945-1.289-2.1-1.448-2.546-2.05-3.258-3.253-3.85-.813-.4-1.01-.441-2.11-.441zm13.833 18.91c-.285-.01-1.023.716-1.535 1.509-1.776 2.747-2.484 8.398-1.496 11.942.188.672 2.518 4.805 10.125 17.962 5.435 9.399 10.088 17.319 10.342 17.6 1.36 1.511 3.609 1.954 5.533 1.09 1.817-.815 2.952-2.75 2.783-4.746-.041-.49-.197-1.165-.346-1.498-.15-.333-1.414-2.573-2.81-4.978l-2.538-4.373 4.246-.067 4.245-.068.808-.376c1.051-.491 1.97-1.406 2.445-2.435.321-.697.379-.996.38-1.965 0-.972-.056-1.266-.376-1.951-.49-1.051-1.406-1.97-2.435-2.446l-.822-.38-7.067-.04-7.067-.038-7.128-12.369c-3.92-6.803-7.2-12.37-7.287-12.373zm-33.67 36.659c-.764.002-1.41.068-1.68.206-.288.148-.803.91-1.996 2.958-2.399 4.115-2.58 4.526-2.577 5.845.005 2.086 1.14 3.734 3.126 4.535.906.366 2.789.285 3.72-.16 1.243-.593 1.823-1.364 4.447-5.914l2.444-4.239-.216-.385c-.576-1.025-2.296-2.042-4.291-2.537-.82-.204-1.996-.31-2.977-.31z" stroke-width=".1"/><path d="M56.934 27.934c-1.068 0-1.309.046-2.013.392-1.021.501-1.883 1.365-2.337 2.34-.481 1.034-.568 2.618-.198 3.592.141.37 1.43 2.699 2.864 5.175 1.435 2.477 2.612 4.596 2.616 4.71.004.113-3.531 6.334-7.856 13.824l-7.864 13.619-7.14.039-7.138.039-.808.376c-1.051.491-1.97 1.406-2.445 2.435-.321.697-.38.996-.38 1.966 0 .971.056 1.265.377 1.95.637 1.367 1.898 2.42 3.289 2.747.281.067 10.618.125 23.325.133l22.82.014.256-.284c.216-.24.255-.488.249-1.581-.019-3.316-1.932-6.482-4.55-7.53-.489-.197-1.533-.232-8.637-.292l-8.08-.069 2.306-3.969c14.352-24.696 18.987-32.734 19.207-33.302.202-.525.248-.91.204-1.75-.098-1.904-1.045-3.35-2.738-4.182-.704-.345-.945-.392-2.01-.392-1.053 0-1.322.05-2.058.39-1.167.54-1.873 1.369-3.314 3.896-.66 1.158-1.243 2.105-1.294 2.105-.051 0-.631-.945-1.289-2.1-1.448-2.546-2.05-3.258-3.253-3.85-.813-.4-1.01-.441-2.11-.441zm13.833 18.91c-.285-.01-1.023.716-1.535 1.509-1.776 2.747-2.484 8.398-1.496 11.942.188.672 2.518 4.805 10.125 17.962 5.435 9.399 10.088 17.319 10.342 17.6 1.36 1.511 3.609 1.954 5.533 1.09 1.817-.815 2.952-2.75 2.783-4.746-.041-.49-.197-1.165-.346-1.498-.15-.333-1.414-2.573-2.81-4.978l-2.538-4.373 4.246-.067 4.245-.068.808-.376c1.051-.491 1.97-1.406 2.445-2.435.321-.697.379-.996.38-1.965 0-.972-.056-1.266-.376-1.951-.49-1.051-1.406-1.97-2.435-2.446l-.822-.38-7.067-.04-7.067-.038-7.128-12.369c-3.92-6.803-7.2-12.37-7.287-12.373zm-33.67 36.659c-.764.002-1.41.068-1.68.206-.288.148-.803.91-1.996 2.958-2.399 4.115-2.58 4.526-2.577 5.845.005 2.086 1.14 3.734 3.126 4.535.906.366 2.789.285 3.72-.16 1.243-.593 1.823-1.364 4.447-5.914l2.444-4.239-.216-.385c-.576-1.025-2.296-2.042-4.291-2.537-.82-.204-1.996-.31-2.977-.31z" stroke-width=".2"/><path d="M56.934 27.934c-1.068 0-1.309.046-2.013.392-1.021.501-1.883 1.365-2.337 2.34-.481 1.034-.568 2.618-.198 3.592.141.37 1.43 2.699 2.864 5.175 1.435 2.477 2.612 4.596 2.616 4.71.004.113-3.531 6.334-7.856 13.824l-7.864 13.619-7.14.039-7.138.039-.808.376c-1.051.491-1.97 1.406-2.445 2.435-.321.697-.38.996-.38 1.966 0 .971.056 1.265.377 1.95.637 1.367 1.898 2.42 3.289 2.747.281.067 10.618.125 23.325.133l22.82.014.256-.284c.216-.24.255-.488.249-1.581-.019-3.316-1.932-6.482-4.55-7.53-.489-.197-1.533-.232-8.637-.292l-8.08-.069 2.306-3.969c14.352-24.696 18.987-32.734 19.207-33.302.202-.525.248-.91.204-1.75-.098-1.904-1.045-3.35-2.738-4.182-.704-.345-.945-.392-2.01-.392-1.053 0-1.322.05-2.058.39-1.167.54-1.873 1.369-3.314 3.896-.66 1.158-1.243 2.105-1.294 2.105-.051 0-.631-.945-1.289-2.1-1.448-2.546-2.05-3.258-3.253-3.85-.813-.4-1.01-.441-2.11-.441zm13.833 18.91c-.285-.01-1.023.716-1.535 1.509-1.776 2.747-2.484 8.398-1.496 11.942.188.672 2.518 4.805 10.125 17.962 5.435 9.399 10.088 17.319 10.342 17.6 1.36 1.511 3.609 1.954 5.533 1.09 1.817-.815 2.952-2.75 2.783-4.746-.041-.49-.197-1.165-.346-1.498-.15-.333-1.414-2.573-2.81-4.978l-2.538-4.373 4.246-.067 4.245-.068.808-.376c1.051-.491 1.97-1.406 2.445-2.435.321-.697.379-.996.38-1.965 0-.972-.056-1.266-.376-1.951-.49-1.051-1.406-1.97-2.435-2.446l-.822-.38-7.067-.04-7.067-.038-7.128-12.369c-3.92-6.803-7.2-12.37-7.287-12.373zm-33.67 36.659c-.764.002-1.41.068-1.68.206-.288.148-.803.91-1.996 2.958-2.399 4.115-2.58 4.526-2.577 5.845.005 2.086 1.14 3.734 3.126 4.535.906.366 2.789.285 3.72-.16 1.243-.593 1.823-1.364 4.447-5.914l2.444-4.239-.216-.385c-.576-1.025-2.296-2.042-4.291-2.537-.82-.204-1.996-.31-2.977-.31z" stroke-width=".3"/><path d="M56.934 27.934c-1.068 0-1.309.046-2.013.392-1.021.501-1.883 1.365-2.337 2.34-.481 1.034-.568 2.618-.198 3.592.141.37 1.43 2.699 2.864 5.175 1.435 2.477 2.612 4.596 2.616 4.71.004.113-3.531 6.334-7.856 13.824l-7.864 13.619-7.14.039-7.138.039-.808.376c-1.051.491-1.97 1.406-2.445 2.435-.321.697-.38.996-.38 1.966 0 .971.056 1.265.377 1.95.637 1.367 1.898 2.42 3.289 2.747.281.067 10.618.125 23.325.133l22.82.014.256-.284c.216-.24.255-.488.249-1.581-.019-3.316-1.932-6.482-4.55-7.53-.489-.197-1.533-.232-8.637-.292l-8.08-.069 2.306-3.969c14.352-24.696 18.987-32.734 19.207-33.302.202-.525.248-.91.204-1.75-.098-1.904-1.045-3.35-2.738-4.182-.704-.345-.945-.392-2.01-.392-1.053 0-1.322.05-2.058.39-1.167.54-1.873 1.369-3.314 3.896-.66 1.158-1.243 2.105-1.294 2.105-.051 0-.631-.945-1.289-2.1-1.448-2.546-2.05-3.258-3.253-3.85-.813-.4-1.01-.441-2.11-.441zm13.833 18.91c-.285-.01-1.023.716-1.535 1.509-1.776 2.747-2.484 8.398-1.496 11.942.188.672 2.518 4.805 10.125 17.962 5.435 9.399 10.088 17.319 10.342 17.6 1.36 1.511 3.609 1.954 5.533 1.09 1.817-.815 2.952-2.75 2.783-4.746-.041-.49-.197-1.165-.346-1.498-.15-.333-1.414-2.573-2.81-4.978l-2.538-4.373 4.246-.067 4.245-.068.808-.376c1.051-.491 1.97-1.406 2.445-2.435.321-.697.379-.996.38-1.965 0-.972-.056-1.266-.376-1.951-.49-1.051-1.406-1.97-2.435-2.446l-.822-.38-7.067-.04-7.067-.038-7.128-12.369c-3.92-6.803-7.2-12.37-7.287-12.373zm-33.67 36.659c-.764.002-1.41.068-1.68.206-.288.148-.803.91-1.996 2.958-2.399 4.115-2.58 4.526-2.577 5.845.005 2.086 1.14 3.734 3.126 4.535.906.366 2.789.285 3.72-.16 1.243-.593 1.823-1.364 4.447-5.914l2.444-4.239-.216-.385c-.576-1.025-2.296-2.042-4.291-2.537-.82-.204-1.996-.31-2.977-.31z" stroke-width=".4"/><path d="M56.934 27.934c-1.068 0-1.309.046-2.013.392-1.021.501-1.883 1.365-2.337 2.34-.481 1.034-.568 2.618-.198 3.592.141.37 1.43 2.699 2.864 5.175 1.435 2.477 2.612 4.596 2.616 4.71.004.113-3.531 6.334-7.856 13.824l-7.864 13.619-7.14.039-7.138.039-.808.376c-1.051.491-1.97 1.406-2.445 2.435-.321.697-.38.996-.38 1.966 0 .971.056 1.265.377 1.95.637 1.367 1.898 2.42 3.289 2.747.281.067 10.618.125 23.325.133l22.82.014.256-.284c.216-.24.255-.488.249-1.581-.019-3.316-1.932-6.482-4.55-7.53-.489-.197-1.533-.232-8.637-.292l-8.08-.069 2.306-3.969c14.352-24.696 18.987-32.734 19.207-33.302.202-.525.248-.91.204-1.75-.098-1.904-1.045-3.35-2.738-4.182-.704-.345-.945-.392-2.01-.392-1.053 0-1.322.05-2.058.39-1.167.54-1.873 1.369-3.314 3.896-.66 1.158-1.243 2.105-1.294 2.105-.051 0-.631-.945-1.289-2.1-1.448-2.546-2.05-3.258-3.253-3.85-.813-.4-1.01-.441-2.11-.441zm13.833 18.91c-.285-.01-1.023.716-1.535 1.509-1.776 2.747-2.484 8.398-1.496 11.942.188.672 2.518 4.805 10.125 17.962 5.435 9.399 10.088 17.319 10.342 17.6 1.36 1.511 3.609 1.954 5.533 1.09 1.817-.815 2.952-2.75 2.783-4.746-.041-.49-.197-1.165-.346-1.498-.15-.333-1.414-2.573-2.81-4.978l-2.538-4.373 4.246-.067 4.245-.068.808-.376c1.051-.491 1.97-1.406 2.445-2.435.321-.697.379-.996.38-1.965 0-.972-.056-1.266-.376-1.951-.49-1.051-1.406-1.97-2.435-2.446l-.822-.38-7.067-.04-7.067-.038-7.128-12.369c-3.92-6.803-7.2-12.37-7.287-12.373zm-33.67 36.659c-.764.002-1.41.068-1.68.206-.288.148-.803.91-1.996 2.958-2.399 4.115-2.58 4.526-2.577 5.845.005 2.086 1.14 3.734 3.126 4.535.906.366 2.789.285 3.72-.16 1.243-.593 1.823-1.364 4.447-5.914l2.444-4.239-.216-.385c-.576-1.025-2.296-2.042-4.291-2.537-.82-.204-1.996-.31-2.977-.31z" stroke-width=".6"/><path d="M56.934 27.934c-1.068 0-1.309.046-2.013.392-1.021.501-1.883 1.365-2.337 2.34-.481 1.034-.568 2.618-.198 3.592.141.37 1.43 2.699 2.864 5.175 1.435 2.477 2.612 4.596 2.616 4.71.004.113-3.531 6.334-7.856 13.824l-7.864 13.619-7.14.039-7.138.039-.808.376c-1.051.491-1.97 1.406-2.445 2.435-.321.697-.38.996-.38 1.966 0 .971.056 1.265.377 1.95.637 1.367 1.898 2.42 3.289 2.747.281.067 10.618.125 23.325.133l22.82.014.256-.284c.216-.24.255-.488.249-1.581-.019-3.316-1.932-6.482-4.55-7.53-.489-.197-1.533-.232-8.637-.292l-8.08-.069 2.306-3.969c14.352-24.696 18.987-32.734 19.207-33.302.202-.525.248-.91.204-1.75-.098-1.904-1.045-3.35-2.738-4.182-.704-.345-.945-.392-2.01-.392-1.053 0-1.322.05-2.058.39-1.167.54-1.873 1.369-3.314 3.896-.66 1.158-1.243 2.105-1.294 2.105-.051 0-.631-.945-1.289-2.1-1.448-2.546-2.05-3.258-3.253-3.85-.813-.4-1.01-.441-2.11-.441zm13.833 18.91c-.285-.01-1.023.716-1.535 1.509-1.776 2.747-2.484 8.398-1.496 11.942.188.672 2.518 4.805 10.125 17.962 5.435 9.399 10.088 17.319 10.342 17.6 1.36 1.511 3.609 1.954 5.533 1.09 1.817-.815 2.952-2.75 2.783-4.746-.041-.49-.197-1.165-.346-1.498-.15-.333-1.414-2.573-2.81-4.978l-2.538-4.373 4.246-.067 4.245-.068.808-.376c1.051-.491 1.97-1.406 2.445-2.435.321-.697.379-.996.38-1.965 0-.972-.056-1.266-.376-1.951-.49-1.051-1.406-1.97-2.435-2.446l-.822-.38-7.067-.04-7.067-.038-7.128-12.369c-3.92-6.803-7.2-12.37-7.287-12.373zm-33.67 36.659c-.764.002-1.41.068-1.68.206-.288.148-.803.91-1.996 2.958-2.399 4.115-2.58 4.526-2.577 5.845.005 2.086 1.14 3.734 3.126 4.535.906.366 2.789.285 3.72-.16 1.243-.593 1.823-1.364 4.447-5.914l2.444-4.239-.216-.385c-.576-1.025-2.296-2.042-4.291-2.537-.82-.204-1.996-.31-2.977-.31z" stroke-width=".8"/><path d="M56.934 27.934c-1.068 0-1.309.046-2.013.392-1.021.501-1.883 1.365-2.337 2.34-.481 1.034-.568 2.618-.198 3.592.141.37 1.43 2.699 2.864 5.175 1.435 2.477 2.612 4.596 2.616 4.71.004.113-3.531 6.334-7.856 13.824l-7.864 13.619-7.14.039-7.138.039-.808.376c-1.051.491-1.97 1.406-2.445 2.435-.321.697-.38.996-.38 1.966 0 .971.056 1.265.377 1.95.637 1.367 1.898 2.42 3.289 2.747.281.067 10.618.125 23.325.133l22.82.014.256-.284c.216-.24.255-.488.249-1.581-.019-3.316-1.932-6.482-4.55-7.53-.489-.197-1.533-.232-8.637-.292l-8.08-.069 2.306-3.969c14.352-24.696 18.987-32.734 19.207-33.302.202-.525.248-.91.204-1.75-.098-1.904-1.045-3.35-2.738-4.182-.704-.345-.945-.392-2.01-.392-1.053 0-1.322.05-2.058.39-1.167.54-1.873 1.369-3.314 3.896-.66 1.158-1.243 2.105-1.294 2.105-.051 0-.631-.945-1.289-2.1-1.448-2.546-2.05-3.258-3.253-3.85-.813-.4-1.01-.441-2.11-.441zm13.833 18.91c-.285-.01-1.023.716-1.535 1.509-1.776 2.747-2.484 8.398-1.496 11.942.188.672 2.518 4.805 10.125 17.962 5.435 9.399 10.088 17.319 10.342 17.6 1.36 1.511 3.609 1.954 5.533 1.09 1.817-.815 2.952-2.75 2.783-4.746-.041-.49-.197-1.165-.346-1.498-.15-.333-1.414-2.573-2.81-4.978l-2.538-4.373 4.246-.067 4.245-.068.808-.376c1.051-.491 1.97-1.406 2.445-2.435.321-.697.379-.996.38-1.965 0-.972-.056-1.266-.376-1.951-.49-1.051-1.406-1.97-2.435-2.446l-.822-.38-7.067-.04-7.067-.038-7.128-12.369c-3.92-6.803-7.2-12.37-7.287-12.373zm-33.67 36.659c-.764.002-1.41.068-1.68.206-.288.148-.803.91-1.996 2.958-2.399 4.115-2.58 4.526-2.577 5.845.005 2.086 1.14 3.734 3.126 4.535.906.366 2.789.285 3.72-.16 1.243-.593 1.823-1.364 4.447-5.914l2.444-4.239-.216-.385c-.576-1.025-2.296-2.042-4.291-2.537-.82-.204-1.996-.31-2.977-.31z"/><path d="M56.934 27.934c-1.068 0-1.309.046-2.013.392-1.021.501-1.883 1.365-2.337 2.34-.481 1.034-.568 2.618-.198 3.592.141.37 1.43 2.699 2.864 5.175 1.435 2.477 2.612 4.596 2.616 4.71.004.113-3.531 6.334-7.856 13.824l-7.864 13.619-7.14.039-7.138.039-.808.376c-1.051.491-1.97 1.406-2.445 2.435-.321.697-.38.996-.38 1.966 0 .971.056 1.265.377 1.95.637 1.367 1.898 2.42 3.289 2.747.281.067 10.618.125 23.325.133l22.82.014.256-.284c.216-.24.255-.488.249-1.581-.019-3.316-1.932-6.482-4.55-7.53-.489-.197-1.533-.232-8.637-.292l-8.08-.069 2.306-3.969c14.352-24.696 18.987-32.734 19.207-33.302.202-.525.248-.91.204-1.75-.098-1.904-1.045-3.35-2.738-4.182-.704-.345-.945-.392-2.01-.392-1.053 0-1.322.05-2.058.39-1.167.54-1.873 1.369-3.314 3.896-.66 1.158-1.243 2.105-1.294 2.105-.051 0-.631-.945-1.289-2.1-1.448-2.546-2.05-3.258-3.253-3.85-.813-.4-1.01-.441-2.11-.441zm13.833 18.91c-.285-.01-1.023.716-1.535 1.509-1.776 2.747-2.484 8.398-1.496 11.942.188.672 2.518 4.805 10.125 17.962 5.435 9.399 10.088 17.319 10.342 17.6 1.36 1.511 3.609 1.954 5.533 1.09 1.817-.815 2.952-2.75 2.783-4.746-.041-.49-.197-1.165-.346-1.498-.15-.333-1.414-2.573-2.81-4.978l-2.538-4.373 4.246-.067 4.245-.068.808-.376c1.051-.491 1.97-1.406 2.445-2.435.321-.697.379-.996.38-1.965 0-.972-.056-1.266-.376-1.951-.49-1.051-1.406-1.97-2.435-2.446l-.822-.38-7.067-.04-7.067-.038-7.128-12.369c-3.92-6.803-7.2-12.37-7.287-12.373zm-33.67 36.659c-.764.002-1.41.068-1.68.206-.288.148-.803.91-1.996 2.958-2.399 4.115-2.58 4.526-2.577 5.845.005 2.086 1.14 3.734 3.126 4.535.906.366 2.789.285 3.72-.16 1.243-.593 1.823-1.364 4.447-5.914l2.444-4.239-.216-.385c-.576-1.025-2.296-2.042-4.291-2.537-.82-.204-1.996-.31-2.977-.31z" stroke-width="1.2"/><path d="M56.934 27.934c-1.068 0-1.309.046-2.013.392-1.021.501-1.883 1.365-2.337 2.34-.481 1.034-.568 2.618-.198 3.592.141.37 1.43 2.699 2.864 5.175 1.435 2.477 2.612 4.596 2.616 4.71.004.113-3.531 6.334-7.856 13.824l-7.864 13.619-7.14.039-7.138.039-.808.376c-1.051.491-1.97 1.406-2.445 2.435-.321.697-.38.996-.38 1.966 0 .971.056 1.265.377 1.95.637 1.367 1.898 2.42 3.289 2.747.281.067 10.618.125 23.325.133l22.82.014.256-.284c.216-.24.255-.488.249-1.581-.019-3.316-1.932-6.482-4.55-7.53-.489-.197-1.533-.232-8.637-.292l-8.08-.069 2.306-3.969c14.352-24.696 18.987-32.734 19.207-33.302.202-.525.248-.91.204-1.75-.098-1.904-1.045-3.35-2.738-4.182-.704-.345-.945-.392-2.01-.392-1.053 0-1.322.05-2.058.39-1.167.54-1.873 1.369-3.314 3.896-.66 1.158-1.243 2.105-1.294 2.105-.051 0-.631-.945-1.289-2.1-1.448-2.546-2.05-3.258-3.253-3.85-.813-.4-1.01-.441-2.11-.441zm13.833 18.91c-.285-.01-1.023.716-1.535 1.509-1.776 2.747-2.484 8.398-1.496 11.942.188.672 2.518 4.805 10.125 17.962 5.435 9.399 10.088 17.319 10.342 17.6 1.36 1.511 3.609 1.954 5.533 1.09 1.817-.815 2.952-2.75 2.783-4.746-.041-.49-.197-1.165-.346-1.498-.15-.333-1.414-2.573-2.81-4.978l-2.538-4.373 4.246-.067 4.245-.068.808-.376c1.051-.491 1.97-1.406 2.445-2.435.321-.697.379-.996.38-1.965 0-.972-.056-1.266-.376-1.951-.49-1.051-1.406-1.97-2.435-2.446l-.822-.38-7.067-.04-7.067-.038-7.128-12.369c-3.92-6.803-7.2-12.37-7.287-12.373zm-33.67 36.659c-.764.002-1.41.068-1.68.206-.288.148-.803.91-1.996 2.958-2.399 4.115-2.58 4.526-2.577 5.845.005 2.086 1.14 3.734 3.126 4.535.906.366 2.789.285 3.72-.16 1.243-.593 1.823-1.364 4.447-5.914l2.444-4.239-.216-.385c-.576-1.025-2.296-2.042-4.291-2.537-.82-.204-1.996-.31-2.977-.31z" stroke-width="1.6"/><path d="M56.934 27.934c-1.068 0-1.309.046-2.013.392-1.021.501-1.883 1.365-2.337 2.34-.481 1.034-.568 2.618-.198 3.592.141.37 1.43 2.699 2.864 5.175 1.435 2.477 2.612 4.596 2.616 4.71.004.113-3.531 6.334-7.856 13.824l-7.864 13.619-7.14.039-7.138.039-.808.376c-1.051.491-1.97 1.406-2.445 2.435-.321.697-.38.996-.38 1.966 0 .971.056 1.265.377 1.95.637 1.367 1.898 2.42 3.289 2.747.281.067 10.618.125 23.325.133l22.82.014.256-.284c.216-.24.255-.488.249-1.581-.019-3.316-1.932-6.482-4.55-7.53-.489-.197-1.533-.232-8.637-.292l-8.08-.069 2.306-3.969c14.352-24.696 18.987-32.734 19.207-33.302.202-.525.248-.91.204-1.75-.098-1.904-1.045-3.35-2.738-4.182-.704-.345-.945-.392-2.01-.392-1.053 0-1.322.05-2.058.39-1.167.54-1.873 1.369-3.314 3.896-.66 1.158-1.243 2.105-1.294 2.105-.051 0-.631-.945-1.289-2.1-1.448-2.546-2.05-3.258-3.253-3.85-.813-.4-1.01-.441-2.11-.441zm13.833 18.91c-.285-.01-1.023.716-1.535 1.509-1.776 2.747-2.484 8.398-1.496 11.942.188.672 2.518 4.805 10.125 17.962 5.435 9.399 10.088 17.319 10.342 17.6 1.36 1.511 3.609 1.954 5.533 1.09 1.817-.815 2.952-2.75 2.783-4.746-.041-.49-.197-1.165-.346-1.498-.15-.333-1.414-2.573-2.81-4.978l-2.538-4.373 4.246-.067 4.245-.068.808-.376c1.051-.491 1.97-1.406 2.445-2.435.321-.697.379-.996.38-1.965 0-.972-.056-1.266-.376-1.951-.49-1.051-1.406-1.97-2.435-2.446l-.822-.38-7.067-.04-7.067-.038-7.128-12.369c-3.92-6.803-7.2-12.37-7.287-12.373zm-33.67 36.659c-.764.002-1.41.068-1.68.206-.288.148-.803.91-1.996 2.958-2.399 4.115-2.58 4.526-2.577 5.845.005 2.086 1.14 3.734 3.126 4.535.906.366 2.789.285 3.72-.16 1.243-.593 1.823-1.364 4.447-5.914l2.444-4.239-.216-.385c-.576-1.025-2.296-2.042-4.291-2.537-.82-.204-1.996-.31-2.977-.31z" stroke-width="2"/><path d="M56.934 27.934c-1.068 0-1.309.046-2.013.392-1.021.501-1.883 1.365-2.337 2.34-.481 1.034-.568 2.618-.198 3.592.141.37 1.43 2.699 2.864 5.175 1.435 2.477 2.612 4.596 2.616 4.71.004.113-3.531 6.334-7.856 13.824l-7.864 13.619-7.14.039-7.138.039-.808.376c-1.051.491-1.97 1.406-2.445 2.435-.321.697-.38.996-.38 1.966 0 .971.056 1.265.377 1.95.637 1.367 1.898 2.42 3.289 2.747.281.067 10.618.125 23.325.133l22.82.014.256-.284c.216-.24.255-.488.249-1.581-.019-3.316-1.932-6.482-4.55-7.53-.489-.197-1.533-.232-8.637-.292l-8.08-.069 2.306-3.969c14.352-24.696 18.987-32.734 19.207-33.302.202-.525.248-.91.204-1.75-.098-1.904-1.045-3.35-2.738-4.182-.704-.345-.945-.392-2.01-.392-1.053 0-1.322.05-2.058.39-1.167.54-1.873 1.369-3.314 3.896-.66 1.158-1.243 2.105-1.294 2.105-.051 0-.631-.945-1.289-2.1-1.448-2.546-2.05-3.258-3.253-3.85-.813-.4-1.01-.441-2.11-.441zm13.833 18.91c-.285-.01-1.023.716-1.535 1.509-1.776 2.747-2.484 8.398-1.496 11.942.188.672 2.518 4.805 10.125 17.962 5.435 9.399 10.088 17.319 10.342 17.6 1.36 1.511 3.609 1.954 5.533 1.09 1.817-.815 2.952-2.75 2.783-4.746-.041-.49-.197-1.165-.346-1.498-.15-.333-1.414-2.573-2.81-4.978l-2.538-4.373 4.246-.067 4.245-.068.808-.376c1.051-.491 1.97-1.406 2.445-2.435.321-.697.379-.996.38-1.965 0-.972-.056-1.266-.376-1.951-.49-1.051-1.406-1.97-2.435-2.446l-.822-.38-7.067-.04-7.067-.038-7.128-12.369c-3.92-6.803-7.2-12.37-7.287-12.373zm-33.67 36.659c-.764.002-1.41.068-1.68.206-.288.148-.803.91-1.996 2.958-2.399 4.115-2.58 4.526-2.577 5.845.005 2.086 1.14 3.734 3.126 4.535.906.366 2.789.285 3.72-.16 1.243-.593 1.823-1.364 4.447-5.914l2.444-4.239-.216-.385c-.576-1.025-2.296-2.042-4.291-2.537-.82-.204-1.996-.31-2.977-.31z" stroke-width="2.4"/><path d="M56.934 27.934c-1.068 0-1.309.046-2.013.392-1.021.501-1.883 1.365-2.337 2.34-.481 1.034-.568 2.618-.198 3.592.141.37 1.43 2.699 2.864 5.175 1.435 2.477 2.612 4.596 2.616 4.71.004.113-3.531 6.334-7.856 13.824l-7.864 13.619-7.14.039-7.138.039-.808.376c-1.051.491-1.97 1.406-2.445 2.435-.321.697-.38.996-.38 1.966 0 .971.056 1.265.377 1.95.637 1.367 1.898 2.42 3.289 2.747.281.067 10.618.125 23.325.133l22.82.014.256-.284c.216-.24.255-.488.249-1.581-.019-3.316-1.932-6.482-4.55-7.53-.489-.197-1.533-.232-8.637-.292l-8.08-.069 2.306-3.969c14.352-24.696 18.987-32.734 19.207-33.302.202-.525.248-.91.204-1.75-.098-1.904-1.045-3.35-2.738-4.182-.704-.345-.945-.392-2.01-.392-1.053 0-1.322.05-2.058.39-1.167.54-1.873 1.369-3.314 3.896-.66 1.158-1.243 2.105-1.294 2.105-.051 0-.631-.945-1.289-2.1-1.448-2.546-2.05-3.258-3.253-3.85-.813-.4-1.01-.441-2.11-.441zm13.833 18.91c-.285-.01-1.023.716-1.535 1.509-1.776 2.747-2.484 8.398-1.496 11.942.188.672 2.518 4.805 10.125 17.962 5.435 9.399 10.088 17.319 10.342 17.6 1.36 1.511 3.609 1.954 5.533 1.09 1.817-.815 2.952-2.75 2.783-4.746-.041-.49-.197-1.165-.346-1.498-.15-.333-1.414-2.573-2.81-4.978l-2.538-4.373 4.246-.067 4.245-.068.808-.376c1.051-.491 1.97-1.406 2.445-2.435.321-.697.379-.996.38-1.965 0-.972-.056-1.266-.376-1.951-.49-1.051-1.406-1.97-2.435-2.446l-.822-.38-7.067-.04-7.067-.038-7.128-12.369c-3.92-6.803-7.2-12.37-7.287-12.373zm-33.67 36.659c-.764.002-1.41.068-1.68.206-.288.148-.803.91-1.996 2.958-2.399 4.115-2.58 4.526-2.577 5.845.005 2.086 1.14 3.734 3.126 4.535.906.366 2.789.285 3.72-.16 1.243-.593 1.823-1.364 4.447-5.914l2.444-4.239-.216-.385c-.576-1.025-2.296-2.042-4.291-2.537-.82-.204-1.996-.31-2.977-.31z" stroke-width="2.8"/><path d="M56.934 27.934c-1.068 0-1.309.046-2.013.392-1.021.501-1.883 1.365-2.337 2.34-.481 1.034-.568 2.618-.198 3.592.141.37 1.43 2.699 2.864 5.175 1.435 2.477 2.612 4.596 2.616 4.71.004.113-3.531 6.334-7.856 13.824l-7.864 13.619-7.14.039-7.138.039-.808.376c-1.051.491-1.97 1.406-2.445 2.435-.321.697-.38.996-.38 1.966 0 .971.056 1.265.377 1.95.637 1.367 1.898 2.42 3.289 2.747.281.067 10.618.125 23.325.133l22.82.014.256-.284c.216-.24.255-.488.249-1.581-.019-3.316-1.932-6.482-4.55-7.53-.489-.197-1.533-.232-8.637-.292l-8.08-.069 2.306-3.969c14.352-24.696 18.987-32.734 19.207-33.302.202-.525.248-.91.204-1.75-.098-1.904-1.045-3.35-2.738-4.182-.704-.345-.945-.392-2.01-.392-1.053 0-1.322.05-2.058.39-1.167.54-1.873 1.369-3.314 3.896-.66 1.158-1.243 2.105-1.294 2.105-.051 0-.631-.945-1.289-2.1-1.448-2.546-2.05-3.258-3.253-3.85-.813-.4-1.01-.441-2.11-.441zm13.833 18.91c-.285-.01-1.023.716-1.535 1.509-1.776 2.747-2.484 8.398-1.496 11.942.188.672 2.518 4.805 10.125 17.962 5.435 9.399 10.088 17.319 10.342 17.6 1.36 1.511 3.609 1.954 5.533 1.09 1.817-.815 2.952-2.75 2.783-4.746-.041-.49-.197-1.165-.346-1.498-.15-.333-1.414-2.573-2.81-4.978l-2.538-4.373 4.246-.067 4.245-.068.808-.376c1.051-.491 1.97-1.406 2.445-2.435.321-.697.379-.996.38-1.965 0-.972-.056-1.266-.376-1.951-.49-1.051-1.406-1.97-2.435-2.446l-.822-.38-7.067-.04-7.067-.038-7.128-12.369c-3.92-6.803-7.2-12.37-7.287-12.373zm-33.67 36.659c-.764.002-1.41.068-1.68.206-.288.148-.803.91-1.996 2.958-2.399 4.115-2.58 4.526-2.577 5.845.005 2.086 1.14 3.734 3.126 4.535.906.366 2.789.285 3.72-.16 1.243-.593 1.823-1.364 4.447-5.914l2.444-4.239-.216-.385c-.576-1.025-2.296-2.042-4.291-2.537-.82-.204-1.996-.31-2.977-.31z" stroke-width="3.2"/><path d="M56.934 27.934c-1.068 0-1.309.046-2.013.392-1.021.501-1.883 1.365-2.337 2.34-.481 1.034-.568 2.618-.198 3.592.141.37 1.43 2.699 2.864 5.175 1.435 2.477 2.612 4.596 2.616 4.71.004.113-3.531 6.334-7.856 13.824l-7.864 13.619-7.14.039-7.138.039-.808.376c-1.051.491-1.97 1.406-2.445 2.435-.321.697-.38.996-.38 1.966 0 .971.056 1.265.377 1.95.637 1.367 1.898 2.42 3.289 2.747.281.067 10.618.125 23.325.133l22.82.014.256-.284c.216-.24.255-.488.249-1.581-.019-3.316-1.932-6.482-4.55-7.53-.489-.197-1.533-.232-8.637-.292l-8.08-.069 2.306-3.969c14.352-24.696 18.987-32.734 19.207-33.302.202-.525.248-.91.204-1.75-.098-1.904-1.045-3.35-2.738-4.182-.704-.345-.945-.392-2.01-.392-1.053 0-1.322.05-2.058.39-1.167.54-1.873 1.369-3.314 3.896-.66 1.158-1.243 2.105-1.294 2.105-.051 0-.631-.945-1.289-2.1-1.448-2.546-2.05-3.258-3.253-3.85-.813-.4-1.01-.441-2.11-.441zm13.833 18.91c-.285-.01-1.023.716-1.535 1.509-1.776 2.747-2.484 8.398-1.496 11.942.188.672 2.518 4.805 10.125 17.962 5.435 9.399 10.088 17.319 10.342 17.6 1.36 1.511 3.609 1.954 5.533 1.09 1.817-.815 2.952-2.75 2.783-4.746-.041-.49-.197-1.165-.346-1.498-.15-.333-1.414-2.573-2.81-4.978l-2.538-4.373 4.246-.067 4.245-.068.808-.376c1.051-.491 1.97-1.406 2.445-2.435.321-.697.379-.996.38-1.965 0-.972-.056-1.266-.376-1.951-.49-1.051-1.406-1.97-2.435-2.446l-.822-.38-7.067-.04-7.067-.038-7.128-12.369c-3.92-6.803-7.2-12.37-7.287-12.373zm-33.67 36.659c-.764.002-1.41.068-1.68.206-.288.148-.803.91-1.996 2.958-2.399 4.115-2.58 4.526-2.577 5.845.005 2.086 1.14 3.734 3.126 4.535.906.366 2.789.285 3.72-.16 1.243-.593 1.823-1.364 4.447-5.914l2.444-4.239-.216-.385c-.576-1.025-2.296-2.042-4.291-2.537-.82-.204-1.996-.31-2.977-.31z" stroke-width="3.8"/><path d="M56.934 27.934c-1.068 0-1.309.046-2.013.392-1.021.501-1.883 1.365-2.337 2.34-.481 1.034-.568 2.618-.198 3.592.141.37 1.43 2.699 2.864 5.175 1.435 2.477 2.612 4.596 2.616 4.71.004.113-3.531 6.334-7.856 13.824l-7.864 13.619-7.14.039-7.138.039-.808.376c-1.051.491-1.97 1.406-2.445 2.435-.321.697-.38.996-.38 1.966 0 .971.056 1.265.377 1.95.637 1.367 1.898 2.42 3.289 2.747.281.067 10.618.125 23.325.133l22.82.014.256-.284c.216-.24.255-.488.249-1.581-.019-3.316-1.932-6.482-4.55-7.53-.489-.197-1.533-.232-8.637-.292l-8.08-.069 2.306-3.969c14.352-24.696 18.987-32.734 19.207-33.302.202-.525.248-.91.204-1.75-.098-1.904-1.045-3.35-2.738-4.182-.704-.345-.945-.392-2.01-.392-1.053 0-1.322.05-2.058.39-1.167.54-1.873 1.369-3.314 3.896-.66 1.158-1.243 2.105-1.294 2.105-.051 0-.631-.945-1.289-2.1-1.448-2.546-2.05-3.258-3.253-3.85-.813-.4-1.01-.441-2.11-.441zm13.833 18.91c-.285-.01-1.023.716-1.535 1.509-1.776 2.747-2.484 8.398-1.496 11.942.188.672 2.518 4.805 10.125 17.962 5.435 9.399 10.088 17.319 10.342 17.6 1.36 1.511 3.609 1.954 5.533 1.09 1.817-.815 2.952-2.75 2.783-4.746-.041-.49-.197-1.165-.346-1.498-.15-.333-1.414-2.573-2.81-4.978l-2.538-4.373 4.246-.067 4.245-.068.808-.376c1.051-.491 1.97-1.406 2.445-2.435.321-.697.379-.996.38-1.965 0-.972-.056-1.266-.376-1.951-.49-1.051-1.406-1.97-2.435-2.446l-.822-.38-7.067-.04-7.067-.038-7.128-12.369c-3.92-6.803-7.2-12.37-7.287-12.373zm-33.67 36.659c-.764.002-1.41.068-1.68.206-.288.148-.803.91-1.996 2.958-2.399 4.115-2.58 4.526-2.577 5.845.005 2.086 1.14 3.734 3.126 4.535.906.366 2.789.285 3.72-.16 1.243-.593 1.823-1.364 4.447-5.914l2.444-4.239-.216-.385c-.576-1.025-2.296-2.042-4.291-2.537-.82-.204-1.996-.31-2.977-.31z" stroke-width="4.4"/><path d="M56.934 27.934c-1.068 0-1.309.046-2.013.392-1.021.501-1.883 1.365-2.337 2.34-.481 1.034-.568 2.618-.198 3.592.141.37 1.43 2.699 2.864 5.175 1.435 2.477 2.612 4.596 2.616 4.71.004.113-3.531 6.334-7.856 13.824l-7.864 13.619-7.14.039-7.138.039-.808.376c-1.051.491-1.97 1.406-2.445 2.435-.321.697-.38.996-.38 1.966 0 .971.056 1.265.377 1.95.637 1.367 1.898 2.42 3.289 2.747.281.067 10.618.125 23.325.133l22.82.014.256-.284c.216-.24.255-.488.249-1.581-.019-3.316-1.932-6.482-4.55-7.53-.489-.197-1.533-.232-8.637-.292l-8.08-.069 2.306-3.969c14.352-24.696 18.987-32.734 19.207-33.302.202-.525.248-.91.204-1.75-.098-1.904-1.045-3.35-2.738-4.182-.704-.345-.945-.392-2.01-.392-1.053 0-1.322.05-2.058.39-1.167.54-1.873 1.369-3.314 3.896-.66 1.158-1.243 2.105-1.294 2.105-.051 0-.631-.945-1.289-2.1-1.448-2.546-2.05-3.258-3.253-3.85-.813-.4-1.01-.441-2.11-.441zm13.833 18.91c-.285-.01-1.023.716-1.535 1.509-1.776 2.747-2.484 8.398-1.496 11.942.188.672 2.518 4.805 10.125 17.962 5.435 9.399 10.088 17.319 10.342 17.6 1.36 1.511 3.609 1.954 5.533 1.09 1.817-.815 2.952-2.75 2.783-4.746-.041-.49-.197-1.165-.346-1.498-.15-.333-1.414-2.573-2.81-4.978l-2.538-4.373 4.246-.067 4.245-.068.808-.376c1.051-.491 1.97-1.406 2.445-2.435.321-.697.379-.996.38-1.965 0-.972-.056-1.266-.376-1.951-.49-1.051-1.406-1.97-2.435-2.446l-.822-.38-7.067-.04-7.067-.038-7.128-12.369c-3.92-6.803-7.2-12.37-7.287-12.373zm-33.67 36.659c-.764.002-1.41.068-1.68.206-.288.148-.803.91-1.996 2.958-2.399 4.115-2.58 4.526-2.577 5.845.005 2.086 1.14 3.734 3.126 4.535.906.366 2.789.285 3.72-.16 1.243-.593 1.823-1.364 4.447-5.914l2.444-4.239-.216-.385c-.576-1.025-2.296-2.042-4.291-2.537-.82-.204-1.996-.31-2.977-.31z" stroke-width="5"/><path d="M56.934 27.934c-1.068 0-1.309.046-2.013.392-1.021.501-1.883 1.365-2.337 2.34-.481 1.034-.568 2.618-.198 3.592.141.37 1.43 2.699 2.864 5.175 1.435 2.477 2.612 4.596 2.616 4.71.004.113-3.531 6.334-7.856 13.824l-7.864 13.619-7.14.039-7.138.039-.808.376c-1.051.491-1.97 1.406-2.445 2.435-.321.697-.38.996-.38 1.966 0 .971.056 1.265.377 1.95.637 1.367 1.898 2.42 3.289 2.747.281.067 10.618.125 23.325.133l22.82.014.256-.284c.216-.24.255-.488.249-1.581-.019-3.316-1.932-6.482-4.55-7.53-.489-.197-1.533-.232-8.637-.292l-8.08-.069 2.306-3.969c14.352-24.696 18.987-32.734 19.207-33.302.202-.525.248-.91.204-1.75-.098-1.904-1.045-3.35-2.738-4.182-.704-.345-.945-.392-2.01-.392-1.053 0-1.322.05-2.058.39-1.167.54-1.873 1.369-3.314 3.896-.66 1.158-1.243 2.105-1.294 2.105-.051 0-.631-.945-1.289-2.1-1.448-2.546-2.05-3.258-3.253-3.85-.813-.4-1.01-.441-2.11-.441zm13.833 18.91c-.285-.01-1.023.716-1.535 1.509-1.776 2.747-2.484 8.398-1.496 11.942.188.672 2.518 4.805 10.125 17.962 5.435 9.399 10.088 17.319 10.342 17.6 1.36 1.511 3.609 1.954 5.533 1.09 1.817-.815 2.952-2.75 2.783-4.746-.041-.49-.197-1.165-.346-1.498-.15-.333-1.414-2.573-2.81-4.978l-2.538-4.373 4.246-.067 4.245-.068.808-.376c1.051-.491 1.97-1.406 2.445-2.435.321-.697.379-.996.38-1.965 0-.972-.056-1.266-.376-1.951-.49-1.051-1.406-1.97-2.435-2.446l-.822-.38-7.067-.04-7.067-.038-7.128-12.369c-3.92-6.803-7.2-12.37-7.287-12.373zm-33.67 36.659c-.764.002-1.41.068-1.68.206-.288.148-.803.91-1.996 2.958-2.399 4.115-2.58 4.526-2.577 5.845.005 2.086 1.14 3.734 3.126 4.535.906.366 2.789.285 3.72-.16 1.243-.593 1.823-1.364 4.447-5.914l2.444-4.239-.216-.385c-.576-1.025-2.296-2.042-4.291-2.537-.82-.204-1.996-.31-2.977-.31z" stroke-width="5.6"/><path d="M56.934 27.934c-1.068 0-1.309.046-2.013.392-1.021.501-1.883 1.365-2.337 2.34-.481 1.034-.568 2.618-.198 3.592.141.37 1.43 2.699 2.864 5.175 1.435 2.477 2.612 4.596 2.616 4.71.004.113-3.531 6.334-7.856 13.824l-7.864 13.619-7.14.039-7.138.039-.808.376c-1.051.491-1.97 1.406-2.445 2.435-.321.697-.38.996-.38 1.966 0 .971.056 1.265.377 1.95.637 1.367 1.898 2.42 3.289 2.747.281.067 10.618.125 23.325.133l22.82.014.256-.284c.216-.24.255-.488.249-1.581-.019-3.316-1.932-6.482-4.55-7.53-.489-.197-1.533-.232-8.637-.292l-8.08-.069 2.306-3.969c14.352-24.696 18.987-32.734 19.207-33.302.202-.525.248-.91.204-1.75-.098-1.904-1.045-3.35-2.738-4.182-.704-.345-.945-.392-2.01-.392-1.053 0-1.322.05-2.058.39-1.167.54-1.873 1.369-3.314 3.896-.66 1.158-1.243 2.105-1.294 2.105-.051 0-.631-.945-1.289-2.1-1.448-2.546-2.05-3.258-3.253-3.85-.813-.4-1.01-.441-2.11-.441zm13.833 18.91c-.285-.01-1.023.716-1.535 1.509-1.776 2.747-2.484 8.398-1.496 11.942.188.672 2.518 4.805 10.125 17.962 5.435 9.399 10.088 17.319 10.342 17.6 1.36 1.511 3.609 1.954 5.533 1.09 1.817-.815 2.952-2.75 2.783-4.746-.041-.49-.197-1.165-.346-1.498-.15-.333-1.414-2.573-2.81-4.978l-2.538-4.373 4.246-.067 4.245-.068.808-.376c1.051-.491 1.97-1.406 2.445-2.435.321-.697.379-.996.38-1.965 0-.972-.056-1.266-.376-1.951-.49-1.051-1.406-1.97-2.435-2.446l-.822-.38-7.067-.04-7.067-.038-7.128-12.369c-3.92-6.803-7.2-12.37-7.287-12.373zm-33.67 36.659c-.764.002-1.41.068-1.68.206-.288.148-.803.91-1.996 2.958-2.399 4.115-2.58 4.526-2.577 5.845.005 2.086 1.14 3.734 3.126 4.535.906.366 2.789.285 3.72-.16 1.243-.593 1.823-1.364 4.447-5.914l2.444-4.239-.216-.385c-.576-1.025-2.296-2.042-4.291-2.537-.82-.204-1.996-.31-2.977-.31z" stroke-width="6"/><path d="M56.934 27.934c-1.068 0-1.309.046-2.013.392-1.021.501-1.883 1.365-2.337 2.34-.481 1.034-.568 2.618-.198 3.592.141.37 1.43 2.699 2.864 5.175 1.435 2.477 2.612 4.596 2.616 4.71.004.113-3.531 6.334-7.856 13.824l-7.864 13.619-7.14.039-7.138.039-.808.376c-1.051.491-1.97 1.406-2.445 2.435-.321.697-.38.996-.38 1.966 0 .971.056 1.265.377 1.95.637 1.367 1.898 2.42 3.289 2.747.281.067 10.618.125 23.325.133l22.82.014.256-.284c.216-.24.255-.488.249-1.581-.019-3.316-1.932-6.482-4.55-7.53-.489-.197-1.533-.232-8.637-.292l-8.08-.069 2.306-3.969c14.352-24.696 18.987-32.734 19.207-33.302.202-.525.248-.91.204-1.75-.098-1.904-1.045-3.35-2.738-4.182-.704-.345-.945-.392-2.01-.392-1.053 0-1.322.05-2.058.39-1.167.54-1.873 1.369-3.314 3.896-.66 1.158-1.243 2.105-1.294 2.105-.051 0-.631-.945-1.289-2.1-1.448-2.546-2.05-3.258-3.253-3.85-.813-.4-1.01-.441-2.11-.441zm13.833 18.91c-.285-.01-1.023.716-1.535 1.509-1.776 2.747-2.484 8.398-1.496 11.942.188.672 2.518 4.805 10.125 17.962 5.435 9.399 10.088 17.319 10.342 17.6 1.36 1.511 3.609 1.954 5.533 1.09 1.817-.815 2.952-2.75 2.783-4.746-.041-.49-.197-1.165-.346-1.498-.15-.333-1.414-2.573-2.81-4.978l-2.538-4.373 4.246-.067 4.245-.068.808-.376c1.051-.491 1.97-1.406 2.445-2.435.321-.697.379-.996.38-1.965 0-.972-.056-1.266-.376-1.951-.49-1.051-1.406-1.97-2.435-2.446l-.822-.38-7.067-.04-7.067-.038-7.128-12.369c-3.92-6.803-7.2-12.37-7.287-12.373zm-33.67 36.659c-.764.002-1.41.068-1.68.206-.288.148-.803.91-1.996 2.958-2.399 4.115-2.58 4.526-2.577 5.845.005 2.086 1.14 3.734 3.126 4.535.906.366 2.789.285 3.72-.16 1.243-.593 1.823-1.364 4.447-5.914l2.444-4.239-.216-.385c-.576-1.025-2.296-2.042-4.291-2.537-.82-.204-1.996-.31-2.977-.31z" stroke-width="6.8"/><path d="M56.934 27.934c-1.068 0-1.309.046-2.013.392-1.021.501-1.883 1.365-2.337 2.34-.481 1.034-.568 2.618-.198 3.592.141.37 1.43 2.699 2.864 5.175 1.435 2.477 2.612 4.596 2.616 4.71.004.113-3.531 6.334-7.856 13.824l-7.864 13.619-7.14.039-7.138.039-.808.376c-1.051.491-1.97 1.406-2.445 2.435-.321.697-.38.996-.38 1.966 0 .971.056 1.265.377 1.95.637 1.367 1.898 2.42 3.289 2.747.281.067 10.618.125 23.325.133l22.82.014.256-.284c.216-.24.255-.488.249-1.581-.019-3.316-1.932-6.482-4.55-7.53-.489-.197-1.533-.232-8.637-.292l-8.08-.069 2.306-3.969c14.352-24.696 18.987-32.734 19.207-33.302.202-.525.248-.91.204-1.75-.098-1.904-1.045-3.35-2.738-4.182-.704-.345-.945-.392-2.01-.392-1.053 0-1.322.05-2.058.39-1.167.54-1.873 1.369-3.314 3.896-.66 1.158-1.243 2.105-1.294 2.105-.051 0-.631-.945-1.289-2.1-1.448-2.546-2.05-3.258-3.253-3.85-.813-.4-1.01-.441-2.11-.441zm13.833 18.91c-.285-.01-1.023.716-1.535 1.509-1.776 2.747-2.484 8.398-1.496 11.942.188.672 2.518 4.805 10.125 17.962 5.435 9.399 10.088 17.319 10.342 17.6 1.36 1.511 3.609 1.954 5.533 1.09 1.817-.815 2.952-2.75 2.783-4.746-.041-.49-.197-1.165-.346-1.498-.15-.333-1.414-2.573-2.81-4.978l-2.538-4.373 4.246-.067 4.245-.068.808-.376c1.051-.491 1.97-1.406 2.445-2.435.321-.697.379-.996.38-1.965 0-.972-.056-1.266-.376-1.951-.49-1.051-1.406-1.97-2.435-2.446l-.822-.38-7.067-.04-7.067-.038-7.128-12.369c-3.92-6.803-7.2-12.37-7.287-12.373zm-33.67 36.659c-.764.002-1.41.068-1.68.206-.288.148-.803.91-1.996 2.958-2.399 4.115-2.58 4.526-2.577 5.845.005 2.086 1.14 3.734 3.126 4.535.906.366 2.789.285 3.72-.16 1.243-.593 1.823-1.364 4.447-5.914l2.444-4.239-.216-.385c-.576-1.025-2.296-2.042-4.291-2.537-.82-.204-1.996-.31-2.977-.31z" stroke-width="7.6"/><path d="M56.934 27.934c-1.068 0-1.309.046-2.013.392-1.021.501-1.883 1.365-2.337 2.34-.481 1.034-.568 2.618-.198 3.592.141.37 1.43 2.699 2.864 5.175 1.435 2.477 2.612 4.596 2.616 4.71.004.113-3.531 6.334-7.856 13.824l-7.864 13.619-7.14.039-7.138.039-.808.376c-1.051.491-1.97 1.406-2.445 2.435-.321.697-.38.996-.38 1.966 0 .971.056 1.265.377 1.95.637 1.367 1.898 2.42 3.289 2.747.281.067 10.618.125 23.325.133l22.82.014.256-.284c.216-.24.255-.488.249-1.581-.019-3.316-1.932-6.482-4.55-7.53-.489-.197-1.533-.232-8.637-.292l-8.08-.069 2.306-3.969c14.352-24.696 18.987-32.734 19.207-33.302.202-.525.248-.91.204-1.75-.098-1.904-1.045-3.35-2.738-4.182-.704-.345-.945-.392-2.01-.392-1.053 0-1.322.05-2.058.39-1.167.54-1.873 1.369-3.314 3.896-.66 1.158-1.243 2.105-1.294 2.105-.051 0-.631-.945-1.289-2.1-1.448-2.546-2.05-3.258-3.253-3.85-.813-.4-1.01-.441-2.11-.441zm13.833 18.91c-.285-.01-1.023.716-1.535 1.509-1.776 2.747-2.484 8.398-1.496 11.942.188.672 2.518 4.805 10.125 17.962 5.435 9.399 10.088 17.319 10.342 17.6 1.36 1.511 3.609 1.954 5.533 1.09 1.817-.815 2.952-2.75 2.783-4.746-.041-.49-.197-1.165-.346-1.498-.15-.333-1.414-2.573-2.81-4.978l-2.538-4.373 4.246-.067 4.245-.068.808-.376c1.051-.491 1.97-1.406 2.445-2.435.321-.697.379-.996.38-1.965 0-.972-.056-1.266-.376-1.951-.49-1.051-1.406-1.97-2.435-2.446l-.822-.38-7.067-.04-7.067-.038-7.128-12.369c-3.92-6.803-7.2-12.37-7.287-12.373zm-33.67 36.659c-.764.002-1.41.068-1.68.206-.288.148-.803.91-1.996 2.958-2.399 4.115-2.58 4.526-2.577 5.845.005 2.086 1.14 3.734 3.126 4.535.906.366 2.789.285 3.72-.16 1.243-.593 1.823-1.364 4.447-5.914l2.444-4.239-.216-.385c-.576-1.025-2.296-2.042-4.291-2.537-.82-.204-1.996-.31-2.977-.31z" stroke-width="8.4"/><path d="M56.934 27.934c-1.068 0-1.309.046-2.013.392-1.021.501-1.883 1.365-2.337 2.34-.481 1.034-.568 2.618-.198 3.592.141.37 1.43 2.699 2.864 5.175 1.435 2.477 2.612 4.596 2.616 4.71.004.113-3.531 6.334-7.856 13.824l-7.864 13.619-7.14.039-7.138.039-.808.376c-1.051.491-1.97 1.406-2.445 2.435-.321.697-.38.996-.38 1.966 0 .971.056 1.265.377 1.95.637 1.367 1.898 2.42 3.289 2.747.281.067 10.618.125 23.325.133l22.82.014.256-.284c.216-.24.255-.488.249-1.581-.019-3.316-1.932-6.482-4.55-7.53-.489-.197-1.533-.232-8.637-.292l-8.08-.069 2.306-3.969c14.352-24.696 18.987-32.734 19.207-33.302.202-.525.248-.91.204-1.75-.098-1.904-1.045-3.35-2.738-4.182-.704-.345-.945-.392-2.01-.392-1.053 0-1.322.05-2.058.39-1.167.54-1.873 1.369-3.314 3.896-.66 1.158-1.243 2.105-1.294 2.105-.051 0-.631-.945-1.289-2.1-1.448-2.546-2.05-3.258-3.253-3.85-.813-.4-1.01-.441-2.11-.441zm13.833 18.91c-.285-.01-1.023.716-1.535 1.509-1.776 2.747-2.484 8.398-1.496 11.942.188.672 2.518 4.805 10.125 17.962 5.435 9.399 10.088 17.319 10.342 17.6 1.36 1.511 3.609 1.954 5.533 1.09 1.817-.815 2.952-2.75 2.783-4.746-.041-.49-.197-1.165-.346-1.498-.15-.333-1.414-2.573-2.81-4.978l-2.538-4.373 4.246-.067 4.245-.068.808-.376c1.051-.491 1.97-1.406 2.445-2.435.321-.697.379-.996.38-1.965 0-.972-.056-1.266-.376-1.951-.49-1.051-1.406-1.97-2.435-2.446l-.822-.38-7.067-.04-7.067-.038-7.128-12.369c-3.92-6.803-7.2-12.37-7.287-12.373zm-33.67 36.659c-.764.002-1.41.068-1.68.206-.288.148-.803.91-1.996 2.958-2.399 4.115-2.58 4.526-2.577 5.845.005 2.086 1.14 3.734 3.126 4.535.906.366 2.789.285 3.72-.16 1.243-.593 1.823-1.364 4.447-5.914l2.444-4.239-.216-.385c-.576-1.025-2.296-2.042-4.291-2.537-.82-.204-1.996-.31-2.977-.31z" stroke-width="9.2"/><path d="M56.934 27.934c-1.068 0-1.309.046-2.013.392-1.021.501-1.883 1.365-2.337 2.34-.481 1.034-.568 2.618-.198 3.592.141.37 1.43 2.699 2.864 5.175 1.435 2.477 2.612 4.596 2.616 4.71.004.113-3.531 6.334-7.856 13.824l-7.864 13.619-7.14.039-7.138.039-.808.376c-1.051.491-1.97 1.406-2.445 2.435-.321.697-.38.996-.38 1.966 0 .971.056 1.265.377 1.95.637 1.367 1.898 2.42 3.289 2.747.281.067 10.618.125 23.325.133l22.82.014.256-.284c.216-.24.255-.488.249-1.581-.019-3.316-1.932-6.482-4.55-7.53-.489-.197-1.533-.232-8.637-.292l-8.08-.069 2.306-3.969c14.352-24.696 18.987-32.734 19.207-33.302.202-.525.248-.91.204-1.75-.098-1.904-1.045-3.35-2.738-4.182-.704-.345-.945-.392-2.01-.392-1.053 0-1.322.05-2.058.39-1.167.54-1.873 1.369-3.314 3.896-.66 1.158-1.243 2.105-1.294 2.105-.051 0-.631-.945-1.289-2.1-1.448-2.546-2.05-3.258-3.253-3.85-.813-.4-1.01-.441-2.11-.441zm13.833 18.91c-.285-.01-1.023.716-1.535 1.509-1.776 2.747-2.484 8.398-1.496 11.942.188.672 2.518 4.805 10.125 17.962 5.435 9.399 10.088 17.319 10.342 17.6 1.36 1.511 3.609 1.954 5.533 1.09 1.817-.815 2.952-2.75 2.783-4.746-.041-.49-.197-1.165-.346-1.498-.15-.333-1.414-2.573-2.81-4.978l-2.538-4.373 4.246-.067 4.245-.068.808-.376c1.051-.491 1.97-1.406 2.445-2.435.321-.697.379-.996.38-1.965 0-.972-.056-1.266-.376-1.951-.49-1.051-1.406-1.97-2.435-2.446l-.822-.38-7.067-.04-7.067-.038-7.128-12.369c-3.92-6.803-7.2-12.37-7.287-12.373zm-33.67 36.659c-.764.002-1.41.068-1.68.206-.288.148-.803.91-1.996 2.958-2.399 4.115-2.58 4.526-2.577 5.845.005 2.086 1.14 3.734 3.126 4.535.906.366 2.789.285 3.72-.16 1.243-.593 1.823-1.364 4.447-5.914l2.444-4.239-.216-.385c-.576-1.025-2.296-2.042-4.291-2.537-.82-.204-1.996-.31-2.977-.31z" stroke-width="10.4"/><path d="M56.934 27.934c-1.068 0-1.309.046-2.013.392-1.021.501-1.883 1.365-2.337 2.34-.481 1.034-.568 2.618-.198 3.592.141.37 1.43 2.699 2.864 5.175 1.435 2.477 2.612 4.596 2.616 4.71.004.113-3.531 6.334-7.856 13.824l-7.864 13.619-7.14.039-7.138.039-.808.376c-1.051.491-1.97 1.406-2.445 2.435-.321.697-.38.996-.38 1.966 0 .971.056 1.265.377 1.95.637 1.367 1.898 2.42 3.289 2.747.281.067 10.618.125 23.325.133l22.82.014.256-.284c.216-.24.255-.488.249-1.581-.019-3.316-1.932-6.482-4.55-7.53-.489-.197-1.533-.232-8.637-.292l-8.08-.069 2.306-3.969c14.352-24.696 18.987-32.734 19.207-33.302.202-.525.248-.91.204-1.75-.098-1.904-1.045-3.35-2.738-4.182-.704-.345-.945-.392-2.01-.392-1.053 0-1.322.05-2.058.39-1.167.54-1.873 1.369-3.314 3.896-.66 1.158-1.243 2.105-1.294 2.105-.051 0-.631-.945-1.289-2.1-1.448-2.546-2.05-3.258-3.253-3.85-.813-.4-1.01-.441-2.11-.441zm13.833 18.91c-.285-.01-1.023.716-1.535 1.509-1.776 2.747-2.484 8.398-1.496 11.942.188.672 2.518 4.805 10.125 17.962 5.435 9.399 10.088 17.319 10.342 17.6 1.36 1.511 3.609 1.954 5.533 1.09 1.817-.815 2.952-2.75 2.783-4.746-.041-.49-.197-1.165-.346-1.498-.15-.333-1.414-2.573-2.81-4.978l-2.538-4.373 4.246-.067 4.245-.068.808-.376c1.051-.491 1.97-1.406 2.445-2.435.321-.697.379-.996.38-1.965 0-.972-.056-1.266-.376-1.951-.49-1.051-1.406-1.97-2.435-2.446l-.822-.38-7.067-.04-7.067-.038-7.128-12.369c-3.92-6.803-7.2-12.37-7.287-12.373zm-33.67 36.659c-.764.002-1.41.068-1.68.206-.288.148-.803.91-1.996 2.958-2.399 4.115-2.58 4.526-2.577 5.845.005 2.086 1.14 3.734 3.126 4.535.906.366 2.789.285 3.72-.16 1.243-.593 1.823-1.364 4.447-5.914l2.444-4.239-.216-.385c-.576-1.025-2.296-2.042-4.291-2.537-.82-.204-1.996-.31-2.977-.31z" stroke-width="11.6"/></g><path d="M56.934 27.934c-1.068 0-1.309.046-2.013.392-1.021.501-1.883 1.365-2.337 2.34-.481 1.034-.568 2.618-.198 3.592.141.37 1.43 2.699 2.864 5.175 1.435 2.477 2.612 4.596 2.616 4.71.004.113-3.531 6.334-7.856 13.824l-7.864 13.619-7.14.039-7.138.039-.808.376c-1.051.491-1.97 1.406-2.445 2.435-.321.697-.38.996-.38 1.966 0 .971.056 1.265.377 1.95.637 1.367 1.898 2.42 3.289 2.747.281.067 10.618.125 23.325.133l22.82.014.256-.284c.216-.24.255-.488.249-1.581-.02-3.316-1.932-6.482-4.55-7.53-.489-.197-1.533-.232-8.637-.292l-8.08-.069 2.306-3.969c14.352-24.696 18.987-32.734 19.207-33.302.202-.525.248-.91.204-1.75-.098-1.904-1.045-3.35-2.738-4.182-.704-.345-.945-.392-2.01-.392-1.053 0-1.322.05-2.058.39-1.167.54-1.873 1.369-3.314 3.896-.66 1.158-1.243 2.105-1.294 2.105-.051 0-.631-.945-1.289-2.1-1.448-2.546-2.05-3.258-3.253-3.85-.813-.4-1.01-.441-2.11-.441zm13.833 18.91c-.285-.01-1.023.716-1.535 1.509-1.776 2.747-2.484 8.398-1.496 11.942.188.672 2.518 4.805 10.125 17.962 5.435 9.399 10.088 17.319 10.342 17.6 1.36 1.511 3.609 1.954 5.533 1.09 1.817-.815 2.952-2.75 2.783-4.746-.041-.49-.197-1.165-.346-1.498-.15-.333-1.414-2.573-2.81-4.978l-2.538-4.373 4.246-.067 4.245-.068.808-.376c1.051-.491 1.97-1.406 2.445-2.435.321-.697.379-.996.38-1.965 0-.972-.056-1.266-.376-1.951-.49-1.051-1.406-1.97-2.435-2.446l-.822-.38-7.067-.04-7.067-.038-7.128-12.369c-3.92-6.803-7.2-12.37-7.287-12.373zm-33.67 36.659c-.764.002-1.41.068-1.68.206-.288.148-.803.91-1.996 2.958-2.399 4.115-2.58 4.526-2.577 5.845.005 2.086 1.14 3.734 3.126 4.535.906.366 2.789.285 3.72-.16 1.243-.593 1.823-1.364 4.447-5.914l2.444-4.239-.216-.385c-.576-1.025-2.296-2.042-4.291-2.537-.82-.204-1.996-.31-2.977-.31z" fill="#fff" stroke-width=".108" stroke-linecap="round" stroke-linejoin="round"/></svg>