<svg xmlns="http://www.w3.org/2000/svg" xmlns:xlink="http://www.w3.org/1999/xlink" width="128" height="128" viewBox="0 0 33.866666 33.866668"><defs><linearGradient id="f"><stop offset="0" stop-color="#fff"/><stop offset="1" stop-color="#f0f0f0"/></linearGradient><linearGradient id="a"><stop offset="0" stop-color="#c077d5"/><stop offset="1" stop-color="#a1d5ea"/></linearGradient><filter id="b" width="100%" height="100%" x="0%" y="0%"><feColorMatrix in="SourceGraphic" values="0 0 0 0 1 0 0 0 0 1 0 0 0 0 1 0 0 0 1 0"/></filter><clipPath id="c"><path d="M0 0h384v384H0z"/></clipPath><clipPath id="d"><path d="M0 0h384v384H0z"/></clipPath><linearGradient y2="71.02" x2="84.091" y1="117.042" x1="122.341" gradientUnits="userSpaceOnUse" id="g" xlink:href="#e" gradientTransform="matrix(.26458 0 0 .26458 -73.214 269.229)"/><linearGradient id="e"><stop offset="0" stop-color="#d5dada"/><stop offset="1" stop-color="#f1f1f1"/></linearGradient><linearGradient xlink:href="#f" id="h" x1="-39.014" y1="265.756" x2="-21.756" y2="285.733" gradientUnits="userSpaceOnUse" gradientTransform="translate(1.779 .417)"/><linearGradient xlink:href="#a" id="i" x1="-27.415" y1="293.269" x2="-28.241" y2="266.701" gradientUnits="userSpaceOnUse" gradientTransform="translate(1.779 .417)"/></defs><g transform="translate(0 -263.133)"><g transform="rotate(-8.765 83.023 -153.596) scale(.98654)" opacity=".389" fill="none" stroke="#000" stroke-linecap="round" stroke-linejoin="round" stroke-opacity=".039"><rect width="25.83" height="29.567" x="-61.945" y="253.765" rx="1.442" ry="1.442" stroke-width=".15" paint-order="fill markers stroke"/><rect ry="1.442" rx="1.442" y="253.765" x="-61.945" height="29.567" width="25.83" stroke-width=".3" paint-order="fill markers stroke"/><rect width="25.83" height="29.567" x="-61.945" y="253.765" rx="1.442" ry="1.442" stroke-width=".45" paint-order="fill markers stroke"/><rect ry="1.442" rx="1.442" y="253.765" x="-61.945" height="29.567" width="25.83" stroke-width=".6" paint-order="fill markers stroke"/><rect width="25.83" height="29.567" x="-61.945" y="253.765" rx="1.442" ry="1.442" stroke-width=".85" paint-order="fill markers stroke"/><rect ry="1.442" rx="1.442" y="253.765" x="-61.945" height="29.567" width="25.83" paint-order="fill markers stroke"/></g><rect width="25.483" height="29.169" x="-38.678" y="264.792" rx="1.423" ry="1.423" transform="rotate(-8.764)" fill="url(#h)" stroke-width=".363" stroke-linecap="round" stroke-linejoin="round" stroke-opacity=".148" paint-order="fill markers stroke"/><rect transform="rotate(-8.764)" ry="1.423" rx="1.423" y="266.173" x="-37.236" height="26.092" width="22.702" fill="url(#i)" stroke-width=".363" stroke-linecap="round" stroke-linejoin="round" stroke-opacity=".148" paint-order="fill markers stroke"/><path d="M16.7 282.167c-.022-.205-.242-.335-.471-.251l-3.899 1.422c-.23.084-.359-.062-.28-.262l3.86-12.307c.075-.2.143-.196.144.014l1.29 7.143c.003.205.174.27.403.186l3.908-1.426c.23-.083.378.05.31.252l-3.883 12.31c-.066.204-.14.2-.16-.009m-1.223-7.072" fill="#3d103d" fill-opacity=".246" fill-rule="evenodd" stroke-width=".803"/><path d="M16.667 281.657c-.016-.171-.175-.28-.342-.21l-2.834 1.188c-.167.07-.26-.052-.203-.22l2.805-10.278c.055-.166.104-.163.105.012l.937 5.966c.003.171.126.225.293.155l2.841-1.19c.167-.07.274.04.226.21l-2.823 10.28c-.048.172-.102.168-.117-.006m-.889-5.908" fill="#fff" fill-rule="evenodd" stroke-width=".626"/></g></svg>