<svg xmlns="http://www.w3.org/2000/svg" xmlns:xlink="http://www.w3.org/1999/xlink" width="64" height="64"><defs><linearGradient x1="24" y1="5" x2="24" y2="43" id="r" xlink:href="#a" gradientUnits="userSpaceOnUse" gradientTransform="matrix(1.43243 0 0 1.43628 -2.378 -2.47)"/><linearGradient id="a"><stop offset="0" stop-color="#fff"/><stop offset=".063" stop-color="#fff" stop-opacity=".235"/><stop offset=".951" stop-color="#fff" stop-opacity=".157"/><stop offset="1" stop-color="#fff" stop-opacity=".392"/></linearGradient><radialGradient cx="4.993" cy="43.5" r="2.5" fx="4.993" fy="43.5" id="m" xlink:href="#b" gradientUnits="userSpaceOnUse" gradientTransform="matrix(2.00378 0 0 1.4 27.988 -17.4)"/><linearGradient id="b"><stop offset="0" stop-color="#181818"/><stop offset="1" stop-color="#181818" stop-opacity="0"/></linearGradient><radialGradient cx="4.993" cy="43.5" r="2.5" fx="4.993" fy="43.5" id="n" xlink:href="#c" gradientUnits="userSpaceOnUse" gradientTransform="matrix(2.00378 0 0 1.4 -20.012 -104.4)"/><linearGradient id="c"><stop offset="0" stop-color="#181818"/><stop offset="1" stop-color="#181818" stop-opacity="0"/></linearGradient><linearGradient x1="25.058" y1="47.028" x2="25.058" y2="39.999" id="o" xlink:href="#d" gradientUnits="userSpaceOnUse"/><linearGradient id="d"><stop offset="0" stop-color="#181818" stop-opacity="0"/><stop offset=".5" stop-color="#181818"/><stop offset="1" stop-color="#181818" stop-opacity="0"/></linearGradient><linearGradient id="f"><stop offset="0" stop-color="#fff"/><stop offset="1" stop-color="#fff" stop-opacity="0"/></linearGradient><linearGradient id="g"><stop offset="0" stop-color="#fff"/><stop offset=".058" stop-color="#fff" stop-opacity=".235"/><stop offset=".995" stop-color="#fff" stop-opacity=".157"/><stop offset="1" stop-color="#fff" stop-opacity=".392"/></linearGradient><linearGradient id="e"><stop offset="0" stop-color="#8e9192"/><stop offset="1" stop-color="#e4e7e9"/></linearGradient><linearGradient id="h"><stop offset="0" stop-color="#454545"/><stop offset=".262" stop-color="#3a3a3a"/><stop offset=".705" stop-color="#2b2b2b"/><stop offset="1" stop-color="#202020"/></linearGradient><linearGradient id="i"><stop offset="0"/><stop offset="1" stop-color="#252525"/></linearGradient><linearGradient x1="16.626" y1="15.298" x2="20.055" y2="24.628" id="w" xlink:href="#f" gradientUnits="userSpaceOnUse" gradientTransform="matrix(1.17234 0 0 1.84341 3.809 -5.53)"/><linearGradient x1="23.818" y1="3.724" x2="24" y2="41.906" id="v" xlink:href="#g" gradientUnits="userSpaceOnUse" gradientTransform="matrix(1.21622 0 0 1.21622 2.81 2.81)"/><radialGradient cx="7.496" cy="8.45" r="20" fx="7.496" fy="8.45" id="s" xlink:href="#h" gradientUnits="userSpaceOnUse" gradientTransform="matrix(0 2.81637 -2.97939 0 57.175 -11.909)"/><linearGradient x1="24" y1="44" x2="24" y2="3.899" id="t" xlink:href="#i" gradientUnits="userSpaceOnUse" gradientTransform="matrix(1.20513 0 0 1.20513 3.077 3.077)"/><linearGradient x1="-110.577" y1="-10.23" x2="-97.48" y2="-19.026" id="p" xlink:href="#j" gradientUnits="userSpaceOnUse" gradientTransform="matrix(1.03868 0 0 1.01606 161.5 23.442)" spreadMethod="reflect"/><linearGradient id="j"><stop offset="0" stop-color="#8e9192"/><stop offset="1" stop-color="#e4e7e9"/></linearGradient><linearGradient x1="-9.274" y1="20.057" x2="-9.274" y2="44.229" id="q" xlink:href="#k" gradientUnits="userSpaceOnUse" gradientTransform="matrix(2.26867 0 0 2.35043 55.857 -43.446)"/><linearGradient id="k"><stop offset="0" stop-color="#878787"/><stop offset="1" stop-color="#414545"/></linearGradient><linearGradient gradientTransform="matrix(.1086 -.40769 .40767 .10866 3.599 38.13)" xlink:href="#l" id="u" x1="-21.096" y1="58.687" x2="28.809" y2="58.687" gradientUnits="userSpaceOnUse"/><linearGradient id="l"><stop offset="0" stop-color="#fb3737"/><stop offset="1" stop-color="#d01111" stop-opacity=".574"/></linearGradient></defs><g opacity=".4"><path fill="url(#m)" d="M38 40h5v7h-5z" transform="matrix(1.57895 0 0 .71429 -5.895 28.429)"/><path transform="matrix(-1.57895 0 0 -.71429 -5.895 28.429)" fill="url(#n)" d="M-10-47h5v7h-5z"/><path fill="url(#o)" d="M10 40h28v7H10z" transform="matrix(1.57895 0 0 .71429 -5.895 28.429)"/></g><rect style="marker:none" y="4.5" x="4.5" ry="4" rx="4" height="55" width="55" color="#000" overflow="visible" fill="url(#p)" stroke="url(#q)"/><rect y="5.429" x="5.5" ry="3" rx="3" height="53.142" width="53" opacity=".8" fill="none" stroke="url(#r)" stroke-linecap="round" stroke-linejoin="round"/><rect style="marker:none" y="8.5" x="8.5" ry="1" rx="1" height="47" width="47" color="#000" overflow="visible" fill="url(#s)" stroke="url(#t)" stroke-linecap="round" stroke-linejoin="round"/><g transform="translate(1.36 -.291)" color="#000"><path d="M31.39 31.063l12.408-12.408c.458-.458 1.012-.642 1.24-.413.23.229.046.782-.413 1.24L32.218 31.89c-.458.458-1.012.642-1.24.413-.23-.229-.046-.782.413-1.24z" style="isolation:auto;mix-blend-mode:normal;marker:none" overflow="visible" fill="#fff" stroke-width=".723" stroke-linecap="round"/><path d="M18.563 29.274l9.039 2.422c1.252.336 2.125 1.11 1.957 1.736-.168.626-1.31.86-2.563.524l-9.039-2.422c-1.252-.336-2.125-1.11-1.957-1.736.168-.625 1.31-.86 2.563-.524z" style="isolation:auto;mix-blend-mode:normal;marker:none" overflow="visible" fill-opacity=".628" stroke-width=".723" stroke-linecap="round"/><path d="M18.873 28.447l9.04 2.422c1.251.335 2.124 1.11 1.956 1.735-.167.626-1.31.86-2.562.525l-9.04-2.422c-1.252-.336-2.124-1.11-1.957-1.736.168-.626 1.31-.86 2.563-.524z" style="isolation:auto;mix-blend-mode:normal;marker:none" overflow="visible" fill="#fff" stroke-width=".723" stroke-linecap="round"/><path d="M25.101 52.468l5.119-19.216c.083-.313.276-.531.433-.49.156.042.215.328.132.64l-5.119 19.216c-.083.313-.276.532-.433.49-.157-.042-.215-.327-.132-.64z" style="isolation:auto;mix-blend-mode:normal;marker:none" overflow="visible" fill="url(#u)" stroke-width=".723" stroke-linecap="round"/><path d="M32.94 32.73a2.34 2.34 0 0 1-2.339 2.34 2.34 2.34 0 0 1-2.34-2.34 2.34 2.34 0 0 1 2.34-2.34 2.34 2.34 0 0 1 2.34 2.34z" style="isolation:auto;mix-blend-mode:normal;marker:none" overflow="visible" fill="#fff" stroke-width=".723" stroke-linecap="round"/><circle r=".995" cy="32.73" cx="30.601" style="isolation:auto;mix-blend-mode:normal;marker:none" overflow="visible" fill="#3c3c50" fill-opacity=".632" stroke-width=".723" stroke-linecap="round"/><path style="line-height:normal;text-indent:0;text-align:start;text-decoration-line:none;text-decoration-style:solid;text-decoration-color:#000;text-transform:none;isolation:auto;mix-blend-mode:normal;marker:none" d="M45.805 15.995l-.498 1.203c.338.32.664.647.977.986l1.194-.495a22.464 22.464 0 0 0-1.673-1.694zm-14.141-5.848a22.47 22.47 0 0 0-2.38.014l.495 1.194c.462-.018.924-.02 1.388-.007zm-16.457 6.016a22.45 22.45 0 0 0-1.568 1.609l1.201.497c.284-.309.563-.622.862-.912zM53.2 31.882l-1.194.495c.007.417-.019.835-.036 1.253l1.203.498c.046-.752.056-1.5.027-2.246zM8 32c-.022.686-.01 1.368.03 2.048l1.194-.496a21.206 21.206 0 0 1-.02-1.054zm37.908 15.684c-.246.252-.502.492-.76.731l.495 1.194c.51-.453 1-.927 1.469-1.428zm-30.678-.056l-1.194.495c.432.466.887.912 1.36 1.342l.499-1.203c-.223-.21-.453-.414-.665-.634zm15.724 6.506c-.306.005-.613-.011-.92-.02l-.497 1.202c.64.03 1.277.036 1.912.011l-.495-1.193z" font-weight="400" font-family="sans-serif" white-space="normal" overflow="visible" fill="#c9d8dd" fill-opacity=".484" stroke-width="1.227"/></g><rect y="9.5" x="9.5" ry=".143" rx=".143" height="45" width="45" opacity=".5" fill="none" stroke="url(#v)" stroke-linecap="round" stroke-linejoin="round"/><g color="#000"><path style="marker:none" overflow="visible" opacity=".5" d="M57.5 36v1H56v-1zM57.5 34v1H56v-1zM57.5 32v1H56v-1zM57.5 30v1H56v-1zM57.5 28v1H56v-1z"/></g><g color="#000"><path style="marker:none" overflow="visible" opacity=".5" d="M8 36v1H6.5v-1zM8 34v1H6.5v-1zM8 32v1H6.5v-1zM8 30v1H6.5v-1zM8 28v1H6.5v-1z"/></g><g color="#000"><path style="marker:none" overflow="visible" opacity=".5" d="M28 57.5h-1V56h1zM30 57.5h-1V56h1zM32 57.5h-1V56h1zM34 57.5h-1V56h1zM36 57.5h-1V56h1z"/></g><g color="#000"><path style="marker:none" overflow="visible" opacity=".5" d="M28 8.025h-1v-1.5h1zM30 8.025h-1v-1.5h1zM32 8.025h-1v-1.5h1zM34 8.025h-1v-1.5h1zM36 8.025h-1v-1.5h1z"/></g><path d="M8.934 5C7.968 5 5 6.293 5 7.55L5.018 39C6.571 38.966 57.821 26.467 59 25.866V8.038C59 7.078 56.408 5 55.573 5z" opacity=".15" fill="url(#w)" fill-rule="evenodd"/></svg>