<svg xmlns="http://www.w3.org/2000/svg" xmlns:xlink="http://www.w3.org/1999/xlink" height="48" viewBox="0 0 48 48" width="48"><defs><linearGradient id="j"><stop offset="0" stop-color="#ebeeed"/><stop offset="1" stop-color="#9facaa"/></linearGradient><linearGradient id="i"><stop offset="0" stop-color="#323a3c"/><stop offset="1" stop-color="#4b585b"/></linearGradient><linearGradient id="h"><stop offset="0" stop-color="#343d3f"/><stop offset="1" stop-color="#566568"/></linearGradient><linearGradient id="g"><stop offset="0" stop-opacity=".157"/><stop offset="1" stop-opacity="0"/></linearGradient><linearGradient id="f"><stop offset="0" stop-color="#1fa0ec"/><stop offset="1" stop-color="#34b4bf"/></linearGradient><linearGradient id="e"><stop offset="0" stop-opacity=".298"/><stop offset="1" stop-opacity="0"/></linearGradient><linearGradient id="d"><stop offset="0" stop-color="#8ba6a6"/><stop offset="1" stop-color="#ced9d9"/></linearGradient><linearGradient id="c"><stop offset="0" stop-color="#8ba6a6"/><stop offset="1" stop-color="#ced9d9"/></linearGradient><linearGradient id="b"><stop offset="0" stop-color="#b6b6b6"/><stop offset=".482" stop-color="#fff"/><stop offset="1" stop-color="#cfcfcf"/></linearGradient><linearGradient id="a"><stop offset="0" stop-color="#165dc2"/><stop offset="1" stop-color="#1680c2"/></linearGradient><linearGradient xlink:href="#c" id="w" x1="21.996" y1="13.405" x2="17.126" y2="13.405" gradientUnits="userSpaceOnUse"/><linearGradient xlink:href="#d" id="v" x1="25.871" y1="13.229" x2="28.284" y2="13.229" gradientUnits="userSpaceOnUse"/><filter id="r" x="-.019" width="1.037" y="-.016" height="1.033" color-interpolation-filters="sRGB"><feGaussianBlur stdDeviation=".093"/></filter><filter id="s" x="-.019" width="1.037" y="-.016" height="1.033" color-interpolation-filters="sRGB"><feGaussianBlur stdDeviation=".093"/></filter><filter id="k" x="-.021" width="1.042" y="-.028" height="1.056" color-interpolation-filters="sRGB"><feGaussianBlur stdDeviation=".411"/></filter><filter id="l" x="-.017" width="1.034" y="-.009" height="1.019" color-interpolation-filters="sRGB"><feGaussianBlur stdDeviation=".134"/></filter><filter id="m" x="-.017" width="1.034" y="-.009" height="1.019" color-interpolation-filters="sRGB"><feGaussianBlur stdDeviation=".135"/></filter><linearGradient xlink:href="#e" id="q" x1="23.834" y1="20.621" x2="25.522" y2="20.621" gradientUnits="userSpaceOnUse"/><linearGradient xlink:href="#f" id="n" x1="23.834" y1="43.248" x2="23.834" y2="10.288" gradientUnits="userSpaceOnUse"/><linearGradient xlink:href="#g" id="p" gradientUnits="userSpaceOnUse" x1="18.932" y1="29.068" x2="20.379" y2="28.615"/><linearGradient xlink:href="#g" id="o" gradientUnits="userSpaceOnUse" x1="18.932" y1="29.068" x2="20.379" y2="28.615" gradientTransform="matrix(-1 0 0 1 48.533 0)"/><linearGradient xlink:href="#h" id="u" x1="28.533" y1="17.173" x2="34.027" y2="4.693" gradientUnits="userSpaceOnUse"/><linearGradient xlink:href="#i" id="t" x1="19.787" y1="17.547" x2="16.107" y2="7.413" gradientUnits="userSpaceOnUse"/><linearGradient xlink:href="#j" id="x" x1="24.107" y1="14.347" x2="24.107" y2="12.16" gradientUnits="userSpaceOnUse"/></defs><g fill-rule="evenodd"><path d="M24 45.105l23.36-28.213.107-1.92L35.84 9.96l-23.787-.214L.64 15.08l.107 2.026z" fill-opacity=".361" filter="url(#k)"/><path d="M24 44.427l23.36-28.214.107-1.92L35.84 9.28l-23.787-.213L.64 14.4l.107 2.027z" fill="#b1bbbb"/><path d="M47.36 16.213l.107-1.92L35.84 9.28l-1.29 1.844zM.747 16.427L.64 14.4l12.318-5.748 1.505 2.155z" fill-opacity=".157"/></g><g fill-rule="evenodd"><path d="M23.667 44l-11.52-32.48-.107-2.347-5.013 4.374-2.24 3.413 5.333 2.133L7.4 20.64z" fill-opacity=".314" filter="url(#l)"/><path d="M24.675 44l11.52-32.48.107-2.347 5.226 4.267 2.134 3.307-5.44 2.346 2.72 1.547z" fill-opacity=".314" filter="url(#m)"/><path d="M23.893 44l-11.52-32.48-.106-2.347-5.014 4.374-2.24 3.413 5.334 2.133-2.72 1.547zM24.373 44l11.52-32.48L36 9.173l5.227 4.267 2.133 3.307-5.44 2.346 2.72 1.547z" fill="#e5ebeb"/></g><g fill-rule="evenodd"><path d="M24.053 44L12.267 11.307v-2.08h24l-.32 2.4z" fill="url(#n)"/><path d="M24.48 44l11.787-32.693v-2.08h-24l.32 2.4z" fill="url(#o)"/><path d="M24.053 44L12.267 11.307v-2.08h24l-.32 2.4z" fill="url(#p)"/></g><g fill-rule="evenodd"><path d="M13.867 4.587L34.4 4.48l1.653 4.747-12 16.213-11.84-16.427z" fill="#2f3739"/><path d="M34.4 4.48l-10.416.053v20.81l.069.096 12-16.212L34.4 4.48z" fill="url(#q)"/></g><g fill-rule="evenodd"><path d="M13.84 4.56L24 11.733 34.347 4.48z" fill="#1b1f23"/><path d="M13.84 4.56L24 11.733 34.347 4.48z" fill="#2f353c"/><path d="M14.36 4.775l9.75 7.059 9.774-7.113z" fill="none" stroke="#fff" stroke-width=".307" stroke-opacity=".372"/></g><g fill-rule="evenodd"><path d="M13.867 5.265l-1.6 4.427 7.573 9.28 4.427-6.56z" fill-opacity=".545" filter="url(#r)"/><path d="M34.347 5.265l1.6 4.427-7.574 9.28-4.426-6.56z" fill-opacity=".545" filter="url(#s)"/><path d="M13.867 4.587l-1.6 4.426 7.573 9.28 4.427-6.56z" fill="url(#t)"/><path d="M34.347 4.587l1.6 4.426-7.574 9.28-4.426-6.56z" fill="url(#u)"/><path d="M35.801 8.606l-7.428 9.101-4.156-6.16-.27.186 4.426 6.56 7.575-9.279-.147-.408z" fill="#b5c0c3" fill-opacity=".225"/><path d="M12.412 8.606l7.428 9.101 4.156-6.16.27.186-4.426 6.56-7.574-9.279.146-.408z" fill="#b5c0c3" fill-opacity=".225"/></g><path d="M25.013 12.373l5.92-2.186V16l-5.973-1.973z" fill="url(#v)" fill-rule="evenodd"/><path d="M22.88 12.373l-5.92-2.186V16l5.973-1.973z" fill="url(#w)" fill-rule="evenodd"/><rect style="isolation:auto;mix-blend-mode:normal;marker:none" width="3.467" height="2.667" x="22.453" y="11.84" rx="0" ry="0" color="#000" overflow="visible" fill="url(#x)" stroke="#000" stroke-width=".4" stroke-linecap="round" stroke-opacity=".304" paint-order="stroke fill markers" enable-background="accumulate"/><path style="isolation:auto;mix-blend-mode:normal;marker:none" d="M28.389 12.15l-.971.973H25.92v.475h1.498l.865.865.219-.22-.795-.796v-.176l.902-.9-.22-.22zM19.9 12.15l.971.973h1.498v.475h-1.498l-.865.865-.219-.22.795-.796v-.176l-.902-.9.22-.22z" color="#000" overflow="visible" fill="#293f45" fill-opacity=".393" stroke-width=".4" stroke-linecap="round" stroke-opacity=".304" paint-order="stroke fill markers" enable-background="accumulate"/></svg>