<svg xmlns="http://www.w3.org/2000/svg" xmlns:xlink="http://www.w3.org/1999/xlink" width="1024" height="1024"><defs><linearGradient id="g"><stop offset="0" stop-color="#111"/><stop offset="1" stop-color="#333"/></linearGradient><linearGradient id="c"><stop offset="0" stop-color="#003dc0"/><stop offset=".323" stop-color="#2867df"/><stop offset=".726" stop-color="#246ced" stop-opacity="0"/><stop offset="1" stop-color="#5191ff"/></linearGradient><linearGradient id="f"><stop offset="0" stop-color="#111"/><stop offset="1" stop-color="#3b3b3b"/></linearGradient><linearGradient id="e"><stop offset="0" stop-color="#fff"/><stop offset="1" stop-color="#c7d7e7"/></linearGradient><linearGradient id="d"><stop offset="0" stop-color="#f4fbfc"/><stop offset="1" stop-color="#d6d6d6"/></linearGradient><linearGradient xlink:href="#a" id="h" x1="102.298" y1="-.427" x2="102.298" y2="199.165" gradientUnits="userSpaceOnUse" gradientTransform="matrix(4.9 0 0 4.9 22 50.362)"/><linearGradient id="b"><stop offset="0" stop-color="#003dc0"/><stop offset=".323" stop-color="#2867df"/><stop offset=".726" stop-color="#246ced"/><stop offset="1" stop-color="#5191ff"/></linearGradient><linearGradient xlink:href="#c" id="i" gradientUnits="userSpaceOnUse" x1="97.556" y1="21.679" x2="97.556" y2="242.72" gradientTransform="matrix(4.705 0 0 4.705 41.5 69.862)"/><linearGradient id="a" y2="293.1" gradientUnits="userSpaceOnUse" x2="3135.1" y1="728.3" x1="3135.1"><stop stop-color="#096fd2" offset="0"/><stop stop-color="#0e8ee9" offset="1"/></linearGradient><linearGradient xlink:href="#e" id="m" x1="494.685" y1="65.526" x2="494.685" y2="1015.053" gradientUnits="userSpaceOnUse" gradientTransform="matrix(1.07422 0 0 1.07422 -25.153 -44.216)"/><filter id="l" x="-.024" width="1.048" y="-.07" height="1.14" color-interpolation-filters="sRGB"><feGaussianBlur stdDeviation="5.552"/></filter><linearGradient xlink:href="#f" id="j" x1="520" y1="152.362" x2="520" y2="932.362" gradientUnits="userSpaceOnUse"/><linearGradient xlink:href="#g" id="k" gradientUnits="userSpaceOnUse" x1="520" y1="152.362" x2="520" y2="932.362" gradientTransform="matrix(1.10938 0 0 1.10938 -51.973 -67.15)"/></defs><g transform="translate(0 -28.362)"><circle style="marker:none" cx="512" cy="540.362" r="490" color="#000" overflow="visible" fill="url(#h)" stroke-width="44.758" enable-background="accumulate"/><circle style="marker:none" cx="512" cy="540.362" r="470.5" color="#000" overflow="visible" fill="url(#i)" stroke-width="42.977" enable-background="accumulate"/><circle r="384" cy="547.617" cx="508.37" style="marker:none" color="#000" overflow="visible" fill="url(#j)" stroke-width="35.076" enable-background="accumulate"/><circle style="marker:none" cx="512" cy="540.362" r="426" color="#000" overflow="visible" opacity=".5" fill="url(#k)" stroke-width="38.912" enable-background="accumulate"/><path class="cls-1" d="M787 556.516l-205.626-95.071 16.52 60.917H426.106l16.52-60.917L237 556.587l205.767 95.071-16.52-60.917h171.787l-16.52 60.917L787 556.587" opacity=".2" stroke-width=".701" filter="url(#l)"/><path d="M787 540.327l-205.626-95.071 16.52 60.917H426.106l16.52-60.917L237 540.397l205.767 95.072-16.52-60.917h171.787l-16.52 60.917L787 540.397" class="cls-1" fill="url(#m)" stroke-width=".701"/></g></svg>