<svg xmlns="http://www.w3.org/2000/svg" xmlns:xlink="http://www.w3.org/1999/xlink" width="128" height="128" viewBox="0 0 128 128"><defs><linearGradient id="a"><stop offset="0" stop-color="#bcf18c"/><stop offset="1" stop-color="#66c446"/></linearGradient><linearGradient id="j"><stop offset="0" stop-color="#d2ffa9"/><stop offset="1" stop-color="#54e822"/></linearGradient><linearGradient xlink:href="#a" id="k" x1="69.325" y1="24.413" x2="67.338" y2="125.935" gradientUnits="userSpaceOnUse" gradientTransform="matrix(.93526 0 0 .93526 .912 -.585)"/><linearGradient gradientTransform="scale(1.00587 .99417)" gradientUnits="userSpaceOnUse" id="i" y2="7.017" x2="45.448" y1="92.54" x1="45.448"><stop offset="0"/><stop offset="1" stop-opacity=".588"/></linearGradient><linearGradient id="d"><stop offset="0" stop-color="#0eb474"/><stop offset="1" stop-color="#0eb474" stop-opacity="0"/></linearGradient><linearGradient id="b"><stop offset="0" stop-color="#7db257"/><stop offset="1" stop-color="#7db257" stop-opacity="0"/></linearGradient><linearGradient gradientUnits="userSpaceOnUse" y2="356.662" x2="316.055" y1="546.635" x1="502.835" id="c" xlink:href="#b"/><linearGradient id="f"><stop offset="0" stop-color="#e6e6e6"/><stop offset="1" stop-color="#f5f5f5"/></linearGradient><linearGradient id="e"><stop offset="0" stop-color="#fff"/><stop offset="1" stop-color="#fff" stop-opacity="0"/></linearGradient><linearGradient id="h"><stop offset="0" stop-color="#f05517"/><stop offset="1" stop-color="#f37340"/></linearGradient><linearGradient x1="45.448" y1="92.54" x2="45.448" y2="7.017" id="g" gradientUnits="userSpaceOnUse" gradientTransform="matrix(1.00587 0 0 .99417 100 0)"><stop offset="0"/><stop offset="1" stop-opacity=".588"/></linearGradient><filter id="l" x="-.266" width="1.533" y="-.266" height="1.533" color-interpolation-filters="sRGB"><feGaussianBlur stdDeviation="7.453"/></filter><filter id="n" color-interpolation-filters="sRGB"><feGaussianBlur stdDeviation="1.71"/></filter><filter id="p" color-interpolation-filters="sRGB"><feGaussianBlur stdDeviation="1.71"/></filter><linearGradient y2="7.017" x2="45.448" y1="92.54" x1="45.448" gradientTransform="scale(1.00587 .99417)" gradientUnits="userSpaceOnUse" id="o" xlink:href="#i"/><linearGradient xlink:href="#i" id="m" gradientUnits="userSpaceOnUse" gradientTransform="scale(1.00587 .99417)" x1="45.448" y1="92.54" x2="45.448" y2="7.017"/><linearGradient xlink:href="#a" id="q" x1="25.842" y1="7.515" x2="30.071" y2="24.429" gradientUnits="userSpaceOnUse"/><linearGradient xlink:href="#j" id="r" gradientUnits="userSpaceOnUse" x1="18.5" y1="24.986" x2="31" y2="24.986"/><linearGradient xlink:href="#j" id="s" gradientUnits="userSpaceOnUse" x1="24.355" y1="-.85" x2="24.773" y2="45.339"/></defs><circle cx="64.614" cy="64.172" r="59.877" fill="url(#k)" stroke="#fff" stroke-width="5.612"/><path d="M41.17 30.599v5.318a7.05 7.05 0 0 0-6.594 7.019h-3.534v6.247h3.534v11.865h-3.534v6.247h3.534V79.16h-3.534v6.248h3.534a7.05 7.05 0 0 0 6.594 7.018v5.32h6.248v-5.302H61.49v5.301h6.247v-5.3h14.073v5.3h6.247v-5.319a7.05 7.05 0 0 0 6.594-7.018h3.534v-6.248h-3.533V67.295h3.533v-6.247h-3.533V49.183h3.533v-6.247h-3.534a7.05 7.05 0 0 0-6.594-7.019V30.6h-6.247V35.9H67.738v-5.301h-6.247V35.9H47.418v-5.301zm7.339 23.065c2.17 0 3.806.58 4.91 1.739 1.112 1.16 1.688 2.876 1.725 5.149l-.042.084h-3.844c.056-1.337-.126-2.3-.547-2.89-.421-.589-1.155-.884-2.202-.884-.898 0-1.586.351-2.063 1.053-.477.701-.715 1.763-.715 3.184v6.13c0 1.441.252 2.512.758 3.214.514.701 1.262 1.051 2.244 1.051.963 0 1.632-.275 2.007-.827.383-.561.55-1.516.504-2.862h3.844l.042.084c.019 2.244-.514 3.938-1.599 5.079-1.085 1.14-2.684 1.711-4.798 1.711s-3.802-.645-5.065-1.936c-1.262-1.3-1.894-3.137-1.894-5.513v-6.103c0-2.366.608-4.2 1.824-5.5 1.225-1.309 2.862-1.963 4.91-1.963zm9.034.294h7.099c2.039 0 3.647.603 4.826 1.81 1.178 1.206 1.768 2.787 1.768 4.742 0 1.964-.595 3.549-1.782 4.755-1.179 1.198-2.782 1.797-4.812 1.797h-3.1v7.322h-3.999zm16.05 0h3.984v13.903c0 1.244.257 2.16.772 2.75.514.59 1.239.883 2.174.883.963 0 1.697-.28 2.202-.841.505-.561.758-1.492.758-2.792V53.958h3.97v13.903c0 2.179-.64 3.863-1.922 5.05-1.272 1.179-2.941 1.768-5.008 1.768s-3.742-.594-5.023-1.781c-1.272-1.188-1.908-2.867-1.908-5.037zm-12.051 3.199v6.706h3.1c.851 0 1.5-.314 1.95-.94.449-.627.673-1.422.673-2.385 0-.973-.224-1.777-.673-2.413-.44-.645-1.09-.968-1.95-.968z" fill-opacity=".45" stroke-width="6.247" filter="url(#l)" opacity=".594"/><path d="M41.17 30.599v5.318a7.05 7.05 0 0 0-6.594 7.019h-3.534v6.247h3.534v11.865h-3.534v6.247h3.534V79.16h-3.534v6.248h3.534a7.05 7.05 0 0 0 6.594 7.018v5.32h6.248v-5.302H61.49v5.301h6.247v-5.3h14.073v5.3h6.247v-5.319a7.05 7.05 0 0 0 6.594-7.018h3.534v-6.248h-3.533V67.295h3.533v-6.247h-3.533V49.183h3.533v-6.247h-3.534a7.05 7.05 0 0 0-6.594-7.019V30.6h-6.247V35.9H67.738v-5.301h-6.247V35.9H47.418v-5.301z" fill="#fff" stroke-width="6.247"/><g stroke-width="2" stroke-linecap="round" stroke-linejoin="round"><path d="M-23.318 54.297v3.512a5.25 5.25 0 0 0-3 4.738 5.25 5.25 0 1 0 10.5 0 5.25 5.25 0 0 0-3-4.737v-3.513z" fill="#fff" fill-opacity=".369"/><path d="M-21.818 43.797c-.83 0-1.5.669-1.5 1.5v12.512a5.25 5.25 0 0 0-3 4.738 5.25 5.25 0 0 0 5.25 5.25 5.25 5.25 0 0 0 5.25-5.25 5.25 5.25 0 0 0-3-4.737V45.297c0-.831-.669-1.5-1.5-1.5z" fill="none" stroke="#fff"/></g><g transform="matrix(1.55628 0 0 1.55628 26.096 27.312)" stroke="url(#q)" fill="none" stroke-width="2" stroke-linecap="round" stroke-linejoin="round"><path d="M22.5 23.486v3.512a5.25 5.25 0 0 0-3 4.738 5.25 5.25 0 1 0 10.5 0A5.25 5.25 0 0 0 27 27v-3.514z" stroke="url(#r)"/><path d="M24 12.986c-.831 0-1.5.67-1.5 1.5v12.512a5.25 5.25 0 0 0-3 4.738 5.25 5.25 0 0 0 5.25 5.25 5.25 5.25 0 0 0 5.25-5.25A5.25 5.25 0 0 0 27 27V14.486c0-.83-.669-1.5-1.5-1.5z" stroke="url(#s)"/></g></svg>