<svg xmlns="http://www.w3.org/2000/svg" xmlns:xlink="http://www.w3.org/1999/xlink" height="136.533" viewBox="0 0 136.53333 136.53333" width="136.533"><defs><linearGradient id="b"><stop offset="0" stop-color="#65c5ee"/><stop offset=".7" stop-color="#23a2fc" stop-opacity=".933"/><stop offset="1" stop-color="#007bd8" stop-opacity=".922"/></linearGradient><linearGradient id="a"><stop offset="0" stop-color="#f1f1f1"/><stop offset="1" stop-color="#d9dad9"/></linearGradient><linearGradient xlink:href="#a" id="e" x1="73.909" y1="8.694" x2="79.909" y2="137.964" gradientUnits="userSpaceOnUse"/><linearGradient xlink:href="#b" id="f" x1="65.799" y1="12.253" x2="65.799" y2="128.827" gradientUnits="userSpaceOnUse"/></defs><linearGradient id="d"><stop offset="0" stop-color="#9760ef"/><stop offset="1" stop-color="#c054f2" stop-opacity="0"/></linearGradient><linearGradient id="c"><stop offset="0" stop-color="#17c7e7"/><stop offset="1" stop-color="#c054f2" stop-opacity="0"/></linearGradient><path style="line-height:normal;font-variant-ligatures:normal;font-variant-position:normal;font-variant-caps:normal;font-variant-numeric:normal;font-variant-alternates:normal;font-feature-settings:normal;text-indent:0;text-align:start;text-decoration-line:none;text-decoration-style:solid;text-decoration-color:#000;text-transform:none;text-orientation:mixed;shape-padding:0;isolation:auto;mix-blend-mode:normal" d="M68.113 2.217c-36.98 0-67.021 30.042-67.021 67.021 0 36.98 30.042 67.022 67.021 67.022 36.98 0 67.022-30.042 67.022-67.022 0-36.98-30.042-67.021-67.022-67.021z" color="#000" font-weight="400" font-family="sans-serif" white-space="normal" overflow="visible" fill="url(#e)" stroke-width="6"/><path d="M128.28 69.238a60.167 60.167 0 0 1-60.118 60.167 60.167 60.167 0 0 1-60.216-60.07A60.167 60.167 0 0 1 67.968 9.071a60.167 60.167 0 0 1 60.312 59.973" fill="url(#f)" stroke-width="9.322" stroke-linecap="round" stroke-linejoin="round" paint-order="fill markers stroke"/><path d="M99.633 49.694a25.825 25.825 0 0 1-7.425 2.036 12.986 12.986 0 0 0 5.684-7.15 26.071 26.071 0 0 1-8.217 3.14 12.895 12.895 0 0 0-9.439-4.085c-7.142 0-12.932 5.79-12.932 12.929 0 1.012.114 2 .334 2.946C56.892 58.97 47.363 53.822 40.986 46a12.834 12.834 0 0 0-1.75 6.5c0 4.486 2.285 8.445 5.752 10.761a12.934 12.934 0 0 1-5.858-1.623v.162c0 6.263 4.46 11.49 10.372 12.68a13.097 13.097 0 0 1-3.407.453c-.835 0-1.643-.082-2.435-.24 1.647 5.14 6.421 8.88 12.078 8.982a25.946 25.946 0 0 1-16.06 5.526c-1.044 0-2.072-.063-3.085-.177a36.554 36.554 0 0 0 19.823 5.819c23.789 0 36.792-19.705 36.792-36.793l-.043-1.674a25.824 25.824 0 0 0 6.468-6.681z" fill="#fff" stroke-width=".445"/></svg>