<svg xmlns="http://www.w3.org/2000/svg" xmlns:xlink="http://www.w3.org/1999/xlink" width="170.667" height="170.667" viewBox="0 0 170.66667 170.66667"><defs><linearGradient id="a"><stop offset="0" stop-color="#333"/><stop offset="1" stop-color="#565656"/></linearGradient><linearGradient xlink:href="#a" id="b" x1="310.452" y1="39.028" x2="310.452" y2="156.903" gradientUnits="userSpaceOnUse" gradientTransform="translate(-182.96)"/></defs><path d="M43.703 25.629c-.305.01-.595.031-.87.068-5.665.77-13.969 2.902-15.34 7.67-2.452-.7-3.557-1.558-5.369.512l-2.302 4.092c-2.549 4.489-3.484 9.227-2.436 14.27.347 1.473.398 2.812.242 4.456.007 2.813.467 5.4 1.172 7.864 0 0 .701 1.596.602 2.24-.1.644-.858 1.34-.858 1.34s-.573 4.25-.511 6.136c.062 1.887.767 5.114.767 5.114 1.078 6.701 1.242 7.914 3.58 8.437l2.81 2.3.194 5.942c.054 1.663.144 2.5 1.414 3.733l2.996 3.877v1.533l-2.828.3c-.93.255-1.037.609-1.787 1.766l-3.81 7.123L.36 122.811v37.177l92.074.196.256-37.073c-9.004-4.823-20.33-6.078-26.555-15.177-.38-1.684-.143-2.529-2.049-2.383-1.483-.078-1.721.095-1.357-1.479.435-2.914 2.163-2.26 3.371-5.582 2.802-4.577-.276-8.551 2.9-10.625 1.942-.312 5.503-.95 5.282-16.912l-1.28-3.324-.255-2.557 1.023-3.324V50.242c.763-6.114-5.038-14.294-9.973-18.664l-7.925-3.324s-7.604-2.77-12.17-2.625z" fill="#2e2e2e"/><path d="M49.39 159.928l.767-20.198c.304-2.525 2.967-7.07 11.505-10.483l37.086-14.845 3.81-7.122c.75-1.158.856-1.513 1.787-1.767l2.828-.3v-1.534l-2.996-3.876c-1.27-1.234-1.361-2.07-1.415-3.732l-.192-5.943-2.812-2.3c-2.339-.524-2.502-1.736-3.58-8.438 0 0-.705-3.227-.767-5.114-.062-1.887.512-6.136.512-6.136s.758-.696.858-1.34c.1-.644-.603-2.24-.603-2.24-.705-2.463-1.165-5.05-1.172-7.862.156-1.644.104-2.985-.242-4.459-1.048-5.042-.111-9.78 2.437-14.269l2.301-4.09c1.812-2.07 2.917-1.213 5.37-.512 1.37-4.768 9.675-6.9 15.34-7.67 4.389-.596 13.04 2.557 13.04 2.557l7.926 3.323c4.935 4.37 10.734 12.55 9.971 18.665v11.505l-1.023 3.324.256 2.557 1.278 3.324c.222 15.962-3.339 16.6-5.28 16.912-3.177 2.074-.099 6.049-2.901 10.626-1.209 3.322-2.936 2.666-3.371 5.58-.364 1.574-.126 1.402 1.358 1.48 1.906-.145 1.67.698 2.05 2.382 6.225 9.099 17.549 10.354 26.553 15.178l-.256 37.073z" fill="url(#b)"/></svg>