<svg xmlns="http://www.w3.org/2000/svg" xmlns:xlink="http://www.w3.org/1999/xlink" height="128" viewBox="0 0 128 128" width="128"><defs><linearGradient id="a"><stop offset="0" stop-color="#df5a81"/><stop offset="1" stop-color="#e40000" stop-opacity=".962"/></linearGradient><linearGradient xlink:href="#a" id="d" x1="27.271" y1="14.217" x2="108.135" y2="126.51" gradientUnits="userSpaceOnUse" gradientTransform="translate(0 -8.533)"/></defs><linearGradient id="c"><stop offset="0" stop-color="#9760ef"/><stop offset="1" stop-color="#c054f2" stop-opacity="0"/></linearGradient><linearGradient id="b"><stop offset="0" stop-color="#17c7e7"/><stop offset="1" stop-color="#c054f2" stop-opacity="0"/></linearGradient><path d="M68.113-6.317c-36.98 0-67.023 30.043-67.023 67.022 0 36.98 30.044 67.021 67.023 67.021 36.98 0 67.022-30.042 67.022-67.021 0-36.98-30.042-67.022-67.022-67.022z" style="line-height:normal;font-variant-ligatures:normal;font-variant-position:normal;font-variant-caps:normal;font-variant-numeric:normal;font-variant-alternates:normal;font-feature-settings:normal;text-indent:0;text-align:start;text-decoration-line:none;text-decoration-style:solid;text-decoration-color:#000;text-transform:none;text-orientation:mixed;shape-padding:0;isolation:auto;mix-blend-mode:normal" color="#000" font-weight="400" font-family="sans-serif" white-space="normal" overflow="visible" fill="url(#d)" stroke-width="6" transform="matrix(.9298 0 0 .9298 1.304 7.738)"/><path d="M29.885 46.505L58.918 97.8s1.571 2.746 5.528 2.746c3.954 0 5.528-2.746 5.528-2.746s20.18-30.907 28.411-47.394c.828-1.655 1.719-3.329 2.094-5.145.255-1.233.377-2.554.083-3.779-.358-1.493-1.05-3.02-2.177-4.061-1.302-1.203-3.11-1.941-4.87-2.124-1.893-.2-3.912.255-5.608 1.14-1.191.628-2.249 1.63-2.915 2.805-.661 1.163-.83 2.574-.905 3.91-.05.918.13 1.843.319 2.742.064.308.17.608.275.903.269.752.636 1.466.91 2.215.228.617.545 1.222.617 1.877.116 1.055.089 2.182-.3 3.168-1.896 4.798-5.156 9.412-9.465 12.23-1.785 1.166-4.07 1.458-6.2 1.55-2.43.102-5.228-.09-7.2-1.161-1.97-1.072-2.898-2.932-4.133-4.573-5.67-7.524-14.938-24.005-14.938-24.005s-4.028-7.122-11.278-2.804c-7.246 4.32-2.818 11.217-2.818 11.217z" fill="none" fill-rule="evenodd" stroke="#000" stroke-width="2.6778528" stroke-opacity=".057"/><path d="M29.885 46.505L58.918 97.8s1.571 2.746 5.528 2.746c3.954 0 5.528-2.746 5.528-2.746s20.18-30.907 28.411-47.394c.828-1.655 1.719-3.329 2.094-5.145.255-1.233.377-2.554.083-3.779-.358-1.493-1.05-3.02-2.177-4.061-1.302-1.203-3.11-1.941-4.87-2.124-1.893-.2-3.912.255-5.608 1.14-1.191.628-2.249 1.63-2.915 2.805-.661 1.163-.83 2.574-.905 3.91-.05.918.13 1.843.319 2.742.064.308.17.608.275.903.269.752.636 1.466.91 2.215.228.617.545 1.222.617 1.877.116 1.055.089 2.182-.3 3.168-1.896 4.798-5.156 9.412-9.465 12.23-1.785 1.166-4.07 1.458-6.2 1.55-2.43.102-5.228-.09-7.2-1.161-1.97-1.072-2.898-2.932-4.133-4.573-5.67-7.524-14.938-24.005-14.938-24.005s-4.028-7.122-11.278-2.804c-7.246 4.32-2.818 11.217-2.818 11.217z" fill="none" fill-rule="evenodd" stroke="#000" stroke-width="4.64905" stroke-opacity=".034"/><path d="M64.634 8.839c-30.565 0-55.343 24.778-55.343 55.343 0 30.566 24.779 55.345 55.345 55.344 30.565 0 55.343-24.779 55.344-55.344 0-30.566-24.78-55.344-55.346-55.343zM37.515 33.91c4.192.181 6.458 4.187 6.458 4.187s9.268 16.48 14.937 24.005c1.236 1.64 2.162 3.5 4.133 4.573 1.972 1.071 4.772 1.263 7.2 1.16 2.13-.092 4.416-.383 6.2-1.55 4.31-2.817 7.568-7.43 9.464-12.228.389-.986.418-2.114.302-3.17-.073-.654-.39-1.259-.618-1.875-.275-.75-.64-1.463-.91-2.216a6.774 6.774 0 0 1-.276-.902c-.188-.9-.37-1.825-.32-2.744.076-1.336.246-2.745.907-3.908a7.34 7.34 0 0 1 2.915-2.806c1.696-.886 3.714-1.34 5.608-1.14 1.76.183 3.568.922 4.87 2.124 1.127 1.041 1.82 2.567 2.178 4.06.294 1.225.171 2.547-.084 3.78-.375 1.816-1.266 3.49-2.094 5.145C90.153 66.892 69.973 97.8 69.973 97.8s-1.574 2.746-5.528 2.746c-3.956 0-5.528-2.746-5.528-2.746L29.884 46.505l-.007.005s-4.43-6.895 2.817-11.215c1.812-1.08 3.424-1.445 4.821-1.384z" fill="#fff" stroke-width="2" stroke-linecap="round" stroke-linejoin="round" paint-order="fill markers stroke"/></svg>