<svg xmlns="http://www.w3.org/2000/svg" xmlns:xlink="http://www.w3.org/1999/xlink" width="128" height="128" viewBox="0 0 128 128"><defs><linearGradient id="j"><stop offset="0" stop-color="#9e0f00"/><stop offset=".2" stop-color="#970e00" stop-opacity=".953"/><stop offset=".514" stop-color="#cf1200" stop-opacity=".98"/><stop offset=".648" stop-color="#d81300" stop-opacity=".988"/><stop offset=".84" stop-color="#dd1400" stop-opacity=".992"/><stop offset="1" stop-color="#e41500"/></linearGradient><linearGradient id="i"><stop offset="0"/><stop offset="1" stop-opacity="0"/></linearGradient><linearGradient id="h"><stop offset="0"/><stop offset="1" stop-opacity="0"/></linearGradient><linearGradient id="g"><stop offset="0"/><stop offset="1" stop-opacity="0"/></linearGradient><linearGradient id="f"><stop offset="0"/><stop offset="1" stop-opacity="0"/></linearGradient><linearGradient id="e"><stop offset="0"/><stop offset="1" stop-opacity="0"/></linearGradient><linearGradient id="d"><stop offset="0"/><stop offset="1" stop-opacity="0"/></linearGradient><linearGradient id="c"><stop offset="0" stop-color="#595854"/><stop offset=".774" stop-color="#4a4944"/><stop offset=".91" stop-color="#3d3c38"/><stop offset="1" stop-color="#272725"/></linearGradient><linearGradient id="b"><stop offset="0" stop-color="#1d79ca"/><stop offset=".188" stop-color="#2a8fde"/><stop offset=".245" stop-color="#2d93e2"/><stop offset=".359" stop-color="#329bea"/><stop offset=".47" stop-color="#36a2f0"/><stop offset=".515" stop-color="#39a6f4"/><stop offset=".565" stop-color="#3ba9f7"/><stop offset=".609" stop-color="#3ba9f7" stop-opacity=".965"/><stop offset=".665" stop-color="#3ba9f7" stop-opacity=".871"/><stop offset="1" stop-color="#3ba9f7" stop-opacity=".446"/></linearGradient><linearGradient id="a"><stop offset="0" stop-color="#fff" stop-opacity="0"/><stop offset=".289" stop-color="#fff" stop-opacity=".835"/><stop offset=".5" stop-color="#fff"/><stop offset=".75" stop-color="#fff" stop-opacity=".834"/><stop offset="1" stop-color="#fff" stop-opacity="0"/></linearGradient><linearGradient xlink:href="#a" id="x" x1="305.662" y1="79.373" x2="497.803" y2="79.373" gradientUnits="userSpaceOnUse" gradientTransform="matrix(1 0 0 1.21761 0 -145.055)"/><linearGradient xlink:href="#b" id="w" gradientUnits="userSpaceOnUse" x1="407.919" y1="220.226" x2="407.919" y2="85.447" gradientTransform="translate(0 -128)"/><linearGradient xlink:href="#c" id="q" gradientUnits="userSpaceOnUse" gradientTransform="translate(127.774 -128)" x1="277.343" y1="16.454" x2="277.343" y2="86.485"/><linearGradient xlink:href="#d" id="y" x1="394.307" y1="92.667" x2="394.307" y2="75.334" gradientUnits="userSpaceOnUse" gradientTransform="translate(0 -128)"/><linearGradient xlink:href="#e" id="s" x1="417.154" y1="62.873" x2="423.552" y2="62.784" gradientUnits="userSpaceOnUse"/><radialGradient xlink:href="#f" id="v" cx="418.13" cy="45.528" fx="418.13" fy="45.528" r="5.861" gradientTransform="matrix(.84532 -.01618 .01627 .85038 64.098 11.893)" gradientUnits="userSpaceOnUse"/><linearGradient xlink:href="#g" id="t" x1="-43.955" y1="376.133" x2="-38.899" y2="376.133" gradientUnits="userSpaceOnUse"/><linearGradient xlink:href="#h" id="r" x1="334.355" y1="62.873" x2="327.402" y2="62.873" gradientUnits="userSpaceOnUse"/><radialGradient xlink:href="#i" id="u" cx="334.608" cy="45.008" fx="334.608" fy="45.008" r="5.815" gradientTransform="matrix(1.23914 0 0 .81995 -80.017 6.783)" gradientUnits="userSpaceOnUse"/><linearGradient xlink:href="#h" id="l" gradientUnits="userSpaceOnUse" x1="334.355" y1="62.873" x2="327.402" y2="62.873" gradientTransform="translate(17.162 -25.743)"/><linearGradient xlink:href="#e" id="m" gradientUnits="userSpaceOnUse" x1="417.154" y1="62.873" x2="423.552" y2="62.784" gradientTransform="translate(58.119 -19.928)"/><linearGradient xlink:href="#g" id="n" gradientUnits="userSpaceOnUse" x1="-43.955" y1="376.133" x2="-38.899" y2="376.133" gradientTransform="translate(25.743 17.162)"/><radialGradient xlink:href="#i" id="o" gradientUnits="userSpaceOnUse" gradientTransform="matrix(1.23914 0 0 .81995 -62.855 -18.96)" cx="334.608" cy="45.008" fx="334.608" fy="45.008" r="5.815"/><radialGradient xlink:href="#f" id="p" gradientUnits="userSpaceOnUse" gradientTransform="matrix(1.95617 0 0 1.85353 -334.353 -58.898)" cx="411.282" cy="44.594" fx="411.282" fy="44.594" r="5.861"/><linearGradient xlink:href="#j" id="k" x1="255.106" y1="96" x2="273.341" y2="96" gradientUnits="userSpaceOnUse" gradientTransform="translate(236.374 -127.368)"/></defs><g transform="matrix(.54037 0 0 .54037 -152.493 64.697)"><rect ry="1.966" rx="1.966" y="-49.603" x="491.481" height="36.469" width="18.235" fill="url(#k)" stroke-width="1.5" stroke-linecap="round" stroke-linejoin="round"/><path d="M316.018-97.506a10.332 10.332 0 0 0-10.356 10.353V66.722c0 1.511 1.08 2.457 2.659 3.203l89.665 42.48a8.62 8.62 0 0 0 4.157.843 8.61 8.61 0 0 0 3.353-.842l89.648-42.413c1.646-.814 2.659-1.76 2.659-3.27V-87.154a10.33 10.33 0 0 0-10.354-10.353z" fill="#3796e0" stroke-width="15" stroke-linecap="round" stroke-linejoin="round"/><g transform="translate(0 -128)"><rect ry="0" rx="0" y="17.944" x="343.047" height="38.373" width="8.722" opacity=".347" fill="url(#l)" stroke-width="1.5" stroke-linecap="round" stroke-linejoin="round"/><rect width="8.722" height="54.462" x="475.272" y="23.759" rx="0" ry="0" opacity=".347" fill="url(#m)" stroke-width="1.5" stroke-linecap="round" stroke-linejoin="round"/><rect transform="rotate(-90)" ry="0" rx="0" y="350.786" x="-18.212" height="119.401" width="8.722" opacity=".347" fill="url(#n)" stroke-width="1.5" stroke-linecap="round" stroke-linejoin="round"/><path d="M350.786 9.49h-8.37l.631 8.454 7.743.003-.018-6.712z" opacity=".409" fill="url(#o)"/><path d="M470.053 11.181l.133 12.578h13.809l.759-7.64z" opacity=".529" fill="url(#p)"/></g><path d="M350.763-111.926a3.028 3.028 0 0 0-3.036 3.033v64.47a3.03 3.03 0 0 0 3.036 3.034h118.066a9.082 9.082 0 0 0 9.102-9.101v-52.334a9.082 9.082 0 0 0-9.102-9.102h-70.031z" fill="url(#q)" stroke-width="15" stroke-linecap="round" stroke-linejoin="round"/><path d="M445.934-111.926v63.662a3.028 3.028 0 0 0 3.033 3.035h4.48a3.028 3.028 0 0 0 3.033-3.035v-63.662z" fill="#302f2c" stroke-width="15" stroke-linecap="round" stroke-linejoin="round"/><rect width="146.732" height="93.968" x="330.905" y="-49.633" rx="0" ry="0" fill="#fff" stroke-width="15" stroke-linecap="round" stroke-linejoin="round"/><g transform="translate(0 -128)" opacity=".347"><rect width="8.722" height="38.373" x="325.885" y="43.687" rx="0" ry="0" fill="url(#r)" stroke-width="1.5" stroke-linecap="round" stroke-linejoin="round"/><rect ry="0" rx="0" y="43.687" x="417.154" height="38.373" width="8.722" fill="url(#s)" stroke-width="1.5" stroke-linecap="round" stroke-linejoin="round"/><rect width="8.722" height="85.018" x="-43.955" y="333.624" rx="0" ry="0" transform="rotate(-90)" fill="url(#t)" stroke-width="1.5" stroke-linecap="round" stroke-linejoin="round"/><path d="M333.624 35.233h-8.37l.631 8.454 7.743.003-.018-6.712z" fill="url(#u)"/><path d="M418.634 37.177l.006 6.51h7.236l.759-7.64z" fill="url(#v)"/></g><path d="M351.07-111.926v70.537h1.5v-70.537z" style="line-height:normal;font-variant-ligatures:normal;font-variant-position:normal;font-variant-caps:normal;font-variant-numeric:normal;font-variant-alternates:normal;font-feature-settings:normal;text-indent:0;text-align:start;text-decoration-line:none;text-decoration-style:solid;text-decoration-color:#000;text-transform:none;text-orientation:mixed;shape-padding:0;isolation:auto;mix-blend-mode:normal" color="#000" font-weight="400" font-family="sans-serif" white-space="normal" overflow="visible" fill-opacity=".321" stroke-width="1.5"/><rect ry="2.727" rx="2.727" y="-86.704" x="330.905" height="131.039" width="90.101" fill="#fff" stroke-width="15" stroke-linecap="round" stroke-linejoin="round"/><path d="M305.662-49.627V66.723c0 1.51 1.08 2.457 2.658 3.203l89.666 42.48a8.62 8.62 0 0 0 4.157.842 8.61 8.61 0 0 0 3.353-.842l89.649-42.414c1.646-.813 2.658-1.759 2.658-3.27V-49.626z" fill="#3ba9f7" fill-opacity=".839"/><path d="M305.662-49.627V66.723c0 1.51 1.08 2.457 2.658 3.203l89.666 42.48a8.62 8.62 0 0 0 4.157.842 8.61 8.61 0 0 0 3.353-.842l89.649-42.414c1.646-.813 2.658-1.759 2.658-3.27V-49.626z" fill="url(#w)"/><path d="M305.662-49.627v2h192.14v-2z" opacity=".423" fill="url(#x)" stroke-width=".868"/><path d="M334.987-81.74v32.108h82.166V-81.74z" fill="#eec13e"/><path d="M344.294-81.74l.574 12.198c5.08-1.19 9.85 3.188 9.736 6.936 2.445-2.254 4.969-2.366 7.573-1.192 3.057-.53 5.526-5.909 1.086-7.064-1.653-2.902 2.788-1.273 3.613.127 1.619-.44.53-2.938 3.203-2.107 4.074-.669-2.733-1.88.373-3.594-.78-2.509 3.788-6.32 4.86-2.133 3.816-.898 3.18 2.545 3.433 5.299-4.289-1.328-7.594 1.948-7.318 5.91-2.034 2.658 5.863 6.567 2.843 8.836-4.538-1.469-7.877 3.257-4.816 7.058-.986.215-1.853.96-2.443 1.834h50.142v-11.857a5.592 5.592 0 0 0-.799-1.572l-35.207-12.674c-.416-1.631-.078-4.092-.236-6.006z" fill="#f89908"/><path d="M334.987-81.74v32.108h18.7c.35-.489.187-1.026-.333-1.609-.429-1.244-1.728-1.654-2.953-1.695-1.662.128-4.06-.672-4.88 1.297-1.18.009-1.251-3.028-3.042-3.262-.92-1.728 1.257-1.403 2.235-2.059 1.175-1.11 1.927-2.748 1.097-4.271.162-1.102.567-2.977 1.698-3.496 2.222-.244 2.322-3.255 1.013-4.598-1.346-.788-.684-2.01.7-1.98 1.481.304 1.299-.847 1.332-1.95-.195-1.56.312-2.992 2.162-2.414 1.112.275.72-.913 1.123-.976 1.714.647 3.53.68 4.797-.918.072-1.102.338-1.824 1.379-2.504l2.837.322c1.444.565 2.039-1.138 2.973-1.931l-.04-.065z" fill="#d65b13"/><path d="M337.8-81.74l-.194.886-.57 2.908 2.467-1.58c.934.081 1.88.099 2.806.219.378.073.748.386 1.135.218a27.45 27.45 0 0 0 3.155-.927c.729.025 1.41.388 1.453 1.187.116.481.306.895.845.912l2.551.729 2.276-1.01c.42-.759 1.074-1.383 2.007-1.162.903-.097 1.853.109 2.72-.215.638-.408 1.112-1.019 1.593-1.594l-.756-.572z" fill="#b62113"/><path d="M381.052-81.74c-.34 1.306-.664 2.639-1.325 3.796-.47.463-1.331.705-1.535 1.318.023.91-.443 1.92.205 2.7.26 1.108 1.716.892 2.22 1.8.736.536.332 1.452.38 2.217-.07.728.698 1.224 1.047 1.809.542.314.912 1.273 1.584 1.1.657-.168 1.43-.555 1.496.435.58 1.579 1.664 2.864 2.65 4.2.644-.818-.247-2.15-.767-2.999-.494-.698-.92-1.42-.922-2.3.389.142 1.251.49 1.633.925.649 1.348 2.224 1.85 3.043 3.047.27.965.82 1.904.914 2.887-.344.562 1.298.999 1.275.44.294-.974.401-1.981.545-2.983.529-.356.884-1.195 1.627-.955.83-.04 1.467.016.629.785-1.29 1.95-2.887 3.675-4.035 5.718-.424.533-.434 1.242-.635 1.87-.635-.058-1.464-.604-1.723.277-.493.656-.137 1.582-.244 2.36a21.616 21.616 0 0 1-.19 3.661h1.999c.292-.826.589-1.648.338-2.544.468-1.384 1.607-2.475 1.703-3.985.754-1.196 1.825-2.332 2.029-3.879a60.336 60.336 0 0 0 1.541-2.058c1.006 1.584 1.917 3.275 3.307 4.558 1.008.871.917 1.685-.1 2.39-.572.597-1.127 1.205-1.687 1.811.028.61.778 1.392.142 1.844-.513.646-1.244 1.167-1.68 1.863h2.538c.575-1.703 1.278-3.398 2.457-4.785.321-.956 1.07-.065 1.66.149.538.41 1.05 1.091 1.535.228a10.985 10.985 0 0 1 3.031-2.2c1.461-.917 2.81-2.05 4.28-2.927l5.136-.879V-81.74z" fill="#e25e11"/><path d="M387.577-81.74v2.235l1.162 1.967.537 2.682 4.201 4.289 3.575-.178 3.396.805 2.324 2.592 3.487 1.162 5.81.625 4.649.18.435.048V-81.74z" fill="#f58a31"/><path d="M391.31-75.64l-2.034.784c.553 1.39 1.727 2.616 1.735 4.158-.19.967.127 1.527 1.09 1.57.733.378.18 1.831.585 2.588.502.986 2.214.89 2.436 2.237 1.677.873 2.318-.934 2.557-2.24-.155-1.33 1.067-2.13 2.185-1.376.9-.003 1.87-.432 1.965.815.308 1.278 1.384 2.09 1.943 3.222.476 1.045.707 2.913 2.153 2.83 1-.04 2.542-.719 2.1.944.364 1.358-.64 3.89 1.464 3.764.954.448 1.362 1.874 2.615 1.017 1.09-.242 1.891-1.19 3.055-1.185.646-.177 1.325-.195 1.994-.246v-11.87c-1.28-.242-2.556-.509-3.832-.777-.58.734-.694 2.358-1.912 1.883l-4.435-.451c-.676.607-1.395 2.116-1.926.6-.554-1.214-.296-2.648-.598-3.944.032-1.151-.965-.877-1.687-.668-.523.198-1.332.006-1.487.703-.367 1.937-2.276 1.196-3.715 1.27-1.429-.044-1.233-2.378-1.87-3.45-1.16-.91-2.935-1.934-4.382-2.177z" fill="#b93608"/><path d="M305.662-76.693v27.066h192.14c.014-9.58-1.665-15.61 0-22.865v-4.201z" fill="url(#y)"/></g></svg>