<svg xmlns="http://www.w3.org/2000/svg" width="128" height="128" viewBox="0 0 33.866 33.866"><defs><linearGradient id="d" x1="-112.45" x2="-112.42" y1="271.04" y2="265.14" gradientUnits="userSpaceOnUse"><stop stop-color="#0094eb" offset="0"/><stop stop-color="#06cfeb" offset="1"/></linearGradient><linearGradient id="i" x1="7.04" x2="5.767" y1="286.24" y2="293.71" gradientUnits="userSpaceOnUse"><stop stop-color="#29f2ff" offset="0"/><stop stop-color="#16d5fb" offset="1"/></linearGradient><linearGradient id="j" x1="32.799" x2="27.072" y1="42.111" y2="39.572" gradientUnits="userSpaceOnUse"><stop stop-color="#19dafc" offset="0"/><stop stop-color="#17c2f9" offset="1"/></linearGradient><linearGradient id="h" x1="8.998" x2="10.294" y1="289.45" y2="291.56" gradientUnits="userSpaceOnUse"><stop stop-color="#059af2" offset="0"/><stop stop-color="#0598f3" stop-opacity="0" offset="1"/></linearGradient><linearGradient id="f" x1="11.571" x2="11.096" y1="293.43" y2="289.55" gradientUnits="userSpaceOnUse"><stop stop-color="#0bc3fc" offset="0"/><stop stop-color="#0dd4fe" offset="1"/></linearGradient><linearGradient id="g" x1="11.607" x2="11.217" y1="294.76" y2="291.42" gradientUnits="userSpaceOnUse"><stop stop-color="#09a7f8" offset="0"/><stop stop-color="#0fbffb" offset="1"/></linearGradient><linearGradient id="e" x1="11.713" x2="14.149" y1="291.6" y2="286.73" gradientUnits="userSpaceOnUse"><stop stop-color="#3a7aec" offset="0"/><stop stop-color="#7892f2" offset="1"/></linearGradient><linearGradient id="k" x1="5.25" x2="5.564" y1="287.3" y2="285.59" gradientUnits="userSpaceOnUse"><stop stop-color="#08e3ff" offset="0"/><stop stop-color="#5cfbfc" offset="1"/></linearGradient><linearGradient id="m" x1="10.855" x2="11.759" y1="283.68" y2="282.57" gradientUnits="userSpaceOnUse"><stop stop-color="#6ee8fe" offset="0"/><stop stop-color="#a3f0fe" offset="1"/></linearGradient><linearGradient id="n" x1="30.379" x2="45.719" y1="24.664" y2="24.664" gradientUnits="userSpaceOnUse"><stop stop-color="#b6fdfe" offset="0"/><stop stop-color="#cafefe" offset="1"/></linearGradient><linearGradient id="o" x1="38.878" x2="41.802" y1="24.172" y2="27.079" gradientUnits="userSpaceOnUse"><stop stop-color="#abe7f8" offset="0"/><stop stop-color="#bef6fd" offset="1"/></linearGradient><radialGradient id="l" cx="8.66" cy="283.81" r="1.504" gradientTransform="matrix(1.9106 .07806 -.04715 1.154 5.453 -44.482)" gradientUnits="userSpaceOnUse"><stop stop-color="#8df5fe" offset="0"/><stop stop-color="#46eaff" offset="1"/></radialGradient><linearGradient id="b" x1="8.372" x2="8.325" y1="281.26" y2="295.34" gradientUnits="userSpaceOnUse"><stop stop-color="#f1f1f1" offset="0"/><stop stop-color="#fff" offset="1"/></linearGradient><filter id="a" x="-.036" y="-.036" width="1.072" height="1.072" color-interpolation-filters="sRGB"><feGaussianBlur stdDeviation=".238"/></filter><filter id="c" x="-.056" y="-.065" width="1.112" height="1.129" color-interpolation-filters="sRGB"><feGaussianBlur stdDeviation=".327"/></filter></defs><g transform="matrix(1.99079 0 0 1.99079 .042 -557.44)"><circle cx="8.467" cy="288.53" r="7.938" opacity=".25" filter="url(#a)"/><circle cx="8.467" cy="288.53" r="7.938" fill="url(#b)"/><g transform="translate(1.246 37.569) scale(.86977)" opacity=".15" filter="url(#c)"><path d="M2.322 285.98c.68-.285 1.655.027 1.947.703l2.627 6.067c.293.676-.192 1.354-.87 1.64-.68.286-1.593-.005-1.888-.68l-2.556-5.83c-.296-.675.061-1.614.74-1.9zM14.627 285.98c-.679-.286-1.654.027-1.947.703l-2.627 6.067c-.293.676.18 1.449.86 1.734.678.286 1.603-.099 1.899-.774l2.556-5.83c.295-.675-.062-1.614-.741-1.9z"/><path d="M9.479 286.92c.748.973 1.31 2.108 1.726 2.824.417.715.488.866.805 1.451.317.586 1.03 1.065 1.758.334-.065.167-.639 1.58-.928 2.164-.192.39-.318.524-.658.717-.641.362-1.618.138-1.992-.496l-3.23-5.474c1.153-.695 1.324-.837 2.519-1.52z"/><path d="M7.521 287.46c.833.981 2.83 4.553 3.175 5.016.346.462.981.958 1.623.596.34-.192.506-.374.788-.704a20.147 20.147 0 0 0 .683-.837c-.066.166-.657 1.576-.946 2.161-.192.39-.318.524-.658.716-.642.363-1.619.14-1.993-.495l-3.23-5.474c.231-.382.313-.513.558-.979z"/><path d="M9.479 286.92c.748.973 1.31 2.108 1.726 2.824.417.715.488.866.805 1.451.317.586 1.03 1.065 1.758.334-.065.167-.639 1.58-.928 2.164-.192.39-.318.524-.658.717-.641.362-1.618.138-1.992-.496l-3.23-5.474c1.153-.695 1.324-.837 2.519-1.52z"/><path d="M9.717 285.33c-.802.16-1.795.971-2.244 1.555-.749.973-1.31 2.108-1.726 2.824-.417.715-.488.866-.805 1.451-.318.586-1.048 1.068-1.776.337.065.166.656 1.576.945 2.161.193.39.319.524.659.716.641.363 1.618.139 1.992-.495l3.23-5.474a7.168 7.168 0 0 1 1.05-1.347c.544-.548 1.235-.866 1.013-1.22-.476-.76-1.536-.669-2.338-.508z"/><path d="M11.812 285.873a1.026 1.026 0 0 0-.151 0c-.72.054-1.638.801-1.993 1.22-.833.981-3.063 4.887-3.409 5.35-.346.462-.981.958-1.622.596-.34-.193-.506-.374-.789-.704-.227-.265-.48-.575-.677-.833l-.005-.004c.065.166.657 1.576.946 2.161.192.39.318.524.658.716.641.362 1.618.139 1.993-.496l3.229-5.473a7.164 7.164 0 0 1 1.05-1.347c.493-.496 1.105-.805 1.05-1.122a.95.95 0 0 0-.28-.064zM5.801 287.44c-.456-.165-.829-.494-.88-1.114-.051-.619.317-1.063.743-1.042.425.022.57.378.472.71-.1.331-.2.457-.262.686-.062.23-.064.47-.073.76zM7 286.19c-.386-.658-.283-1.404-.06-1.954.225-.55.764-1.16 1.362-1.32.598-.16 1.142-.074 1.387.535.244.608-.286 1.36-.92 1.536-.633.176-1.218.516-1.77 1.203z"/><circle cx="11.342" cy="283.14" r=".677"/><path d="M10.683 285.22c-.329 0-.666.05-.966.111-.378.076-.796.298-1.182.57-.265.33-.461.725-.49 1.18-.079.914.556 1.114 1.107.644.085-.072.132-.132.182-.188.238-.22 1.67-.774 2.585-1.244.154-.158.23-.303.136-.454-.298-.475-.823-.618-1.372-.618z"/><path d="M11.812 285.873a1.024 1.024 0 0 0-.151 0c-.72.054-1.638.801-1.993 1.22-.094.11-.207.261-.33.436.254.385.708.444 1.162.149a7.18 7.18 0 0 1 .543-.619c.492-.496 1.104-.805 1.05-1.122a.95.95 0 0 0-.281-.064z"/></g><g transform="translate(1.095 37.207) scale(.86977)"><path transform="matrix(.92176 -.38775 .4003 .91639 0 0)" d="M-112.36 264.53c.737 0 1.505.666 1.503 1.403l-.022 6.612c-.002.736-.717 1.173-1.454 1.173s-1.457-.621-1.458-1.358l-.008-6.366c-.001-.737.702-1.464 1.439-1.464z" fill="url(#d)"/><path d="M14.627 285.98c-.679-.286-1.654.027-1.947.703l-2.627 6.067c-.293.676.18 1.449.86 1.734.678.286 1.603-.099 1.899-.774l2.556-5.83c.295-.675-.062-1.614-.741-1.9z" fill="url(#e)"/><path d="M9.479 286.92c.748.973 1.31 2.108 1.726 2.824.417.715.488.866.805 1.451.317.586 1.03 1.065 1.758.334-.065.167-.639 1.58-.928 2.164-.192.39-.318.524-.658.717-.641.362-1.618.138-1.992-.496l-3.23-5.474c1.153-.695 1.324-.837 2.519-1.52z" fill="url(#f)"/><path d="M7.521 287.46c.833.981 2.83 4.553 3.175 5.016.346.462.981.958 1.623.596.34-.192.506-.374.788-.704a20.147 20.147 0 0 0 .683-.837c-.066.166-.657 1.576-.946 2.161-.192.39-.318.524-.658.716-.642.363-1.619.14-1.993-.495l-3.23-5.474c.231-.382.313-.513.558-.979z" fill="url(#g)"/><path d="M9.479 286.92c.748.973 1.31 2.108 1.726 2.824.417.715.488.866.805 1.451.317.586 1.03 1.065 1.758.334-.065.167-.639 1.58-.928 2.164-.192.39-.318.524-.658.717-.641.362-1.618.138-1.992-.496l-3.23-5.474c1.153-.695 1.324-.837 2.519-1.52z" fill="url(#h)"/><path d="M9.711 285.37c-.802.16-1.789.93-2.238 1.514-.749.972-1.31 2.108-1.726 2.823-.417.716-.488.866-.805 1.452-.318.585-1.048 1.068-1.776.337.065.166.656 1.576.945 2.161.193.39.319.524.659.716.641.362 1.618.139 1.992-.496l3.23-5.473a7.168 7.168 0 0 1 1.05-1.347c.544-.548 1.199-.852.977-1.206-.477-.76-1.475-.652-2.277-.491z" fill="url(#i)"/><path transform="translate(0 280.07) scale(.26458)" d="M44.643 21.932a3.877 3.877 0 0 0-.57.002c-2.72.204-6.19 3.027-7.533 4.61-3.148 3.708-11.577 18.472-12.883 20.22-1.307 1.748-3.709 3.621-6.133 2.252-1.285-.726-1.912-1.414-2.98-2.66-.858-1.001-1.817-2.174-2.56-3.149l-.018-.016c.248.63 2.482 5.958 3.574 8.17.727 1.473 1.203 1.98 2.488 2.705 2.424 1.37 6.117.525 7.532-1.873l12.205-20.688c.707-1.199 1.983-3.181 3.903-5.117 1.862-1.877 4.119-2.96 3.912-4.157-.321-.126-.546-.272-.936-.3z" fill="url(#j)"/><path d="M5.801 287.44c-.456-.165-.829-.494-.88-1.114-.051-.619.317-1.063.743-1.042.425.022.57.378.472.71-.1.331-.2.457-.262.686-.062.23-.064.47-.073.76z" fill="url(#k)"/><path d="M7 286.19c-.386-.658-.283-1.404-.06-1.954.225-.55.764-1.16 1.362-1.32.598-.16 1.142-.074 1.387.535.244.608-.286 1.36-.92 1.536-.633.176-1.218.516-1.77 1.203z" fill="url(#l)"/><circle cx="11.342" cy="283.14" r=".677" fill="url(#m)"/><path transform="translate(0 280.07) scale(.26458)" d="M40.379 19.467c-1.243-.001-2.518.19-3.654.418-1.427.286-3.009 1.124-4.465 2.152-1.004 1.25-1.745 2.742-1.856 4.46-.296 3.455 2.104 4.213 4.188 2.437.319-.272.498-.501.687-.713.898-.833 6.312-2.926 9.768-4.7.585-.598.873-1.146.516-1.716-1.126-1.797-3.112-2.336-5.184-2.338z" fill="url(#n)"/><path transform="translate(0 280.07) scale(.26458)" d="M44.643 21.932a3.87 3.87 0 0 0-.57.002c-2.72.204-6.19 3.027-7.534 4.61-.353.416-.779.987-1.248 1.648.964 1.455 2.68 1.677 4.395.562.592-.75 1.26-1.54 2.05-2.338 1.862-1.876 4.174-3.042 3.968-4.24a3.59 3.59 0 0 0-1.06-.244z" fill="url(#o)"/></g></g></svg>