<svg xmlns="http://www.w3.org/2000/svg" xmlns:xlink="http://www.w3.org/1999/xlink" width="64" height="64" viewBox="0 0 64 64"><title>wps-office-wppmain</title><defs><linearGradient id="b"><stop offset="0" stop-color="#1a67d9"/><stop offset="1" stop-color="#5f98ec" stop-opacity=".973"/></linearGradient><linearGradient id="a"><stop offset="0" stop-color="#fff"/><stop offset=".274" stop-color="#fff" stop-opacity=".864"/><stop offset=".505" stop-color="#fff" stop-opacity=".471"/><stop offset=".693" stop-color="#fff"/><stop offset="1" stop-color="#fff" stop-opacity=".974"/></linearGradient><linearGradient xlink:href="#a" id="d" x1="25.351" y1="42.487" x2="47.097" y2="21.904" gradientUnits="userSpaceOnUse"/><linearGradient xlink:href="#b" id="c" x1="28.284" y1="-5.515" x2="7.464" y2="-5.695" gradientUnits="userSpaceOnUse"/></defs><g fill="none" fill-rule="evenodd"><path d="M5.085 47.797l.192-31.872L32.69.157 59.914 16.26l-.192 31.872-27.415 15.768z" style="isolation:auto;mix-blend-mode:normal;marker:none" color="#000" display="block" overflow="visible" fill="#0b4385" fill-opacity=".963" fill-rule="nonzero" stroke-width="14.222" stroke-linecap="round" stroke-linejoin="round" stroke-opacity=".157" paint-order="stroke markers fill"/><path style="isolation:auto;mix-blend-mode:normal;marker:none" d="M23.607 5.042l-12.65-.186L4.795-6.192l6.486-10.861 12.649.186L30.092-5.82z" transform="rotate(89.506 14.527 2.832) scale(2.47983)" color="#000" display="block" overflow="visible" fill="url(#c)" fill-rule="nonzero" stroke-width="14.222" stroke-linecap="round" stroke-linejoin="round" stroke-opacity=".157" paint-order="stroke markers fill"/><path d="M24.951 47.219c-.535-.327-1.558-2.276-6.237-11.893-3.825-7.86-5.597-11.723-5.597-12.198 0-.912.51-1.66 1.325-1.944.886-.31 11.082-.304 12.217.006 1.637.447 2.113 1.026 4.073 4.954l1.833 3.674-.71 1.439c-.425.862-.826 1.415-1 1.38-.16-.033-1.228-1.822-2.374-3.974-1.146-2.153-2.217-4-2.38-4.102-.388-.246-8.659-.251-8.81-.006-.095.154 8.426 18.027 8.747 18.348.22.22.835-.868 5.744-10.16 3.239-6.132 5.433-10.047 5.9-10.528 1.095-1.127 1.932-1.26 7.912-1.26 5.52 0 6.291.109 6.854.968.714 1.088.539 1.529-5.206 13.122-3.047 6.149-5.765 11.438-6.04 11.753-.93 1.063-2.345 1.048-3.327-.035-.304-.336-1.462-2.402-2.572-4.591l-2.018-3.98.632-1.209c.348-.664.774-1.207.947-1.207.182 0 1.17 1.473 2.347 3.501 1.118 1.926 2.129 3.534 2.247 3.573.264.088 9.326-18.01 9.156-18.286-.195-.316-8.263-.252-8.675.07-.188.146-2.9 5.112-6.025 11.035-3.444 6.528-5.93 11-6.312 11.356-.75.698-1.71.768-2.65.194z" fill="#000" fill-opacity=".199" stroke-width=".213"/><path d="M24.021 45.94c-.536-.327-1.558-2.276-6.238-11.894-3.824-7.86-5.596-11.722-5.596-12.197 0-.913.51-1.66 1.325-1.944.886-.31 11.082-.304 12.216.006 1.638.447 2.114 1.026 4.074 4.954l1.833 3.674-.71 1.439c-.425.861-.826 1.415-1 1.38-.16-.034-1.228-1.822-2.374-3.975-1.146-2.153-2.217-3.998-2.38-4.102-.388-.245-8.66-.25-8.81-.005-.096.154 8.426 18.027 8.747 18.348.22.22.835-.868 5.743-10.16 3.24-6.132 5.434-10.048 5.901-10.529 1.095-1.126 1.932-1.26 7.912-1.26 5.519 0 6.291.11 6.854.968.713 1.09.538 1.53-5.206 13.123-3.047 6.149-5.766 11.438-6.041 11.753-.929 1.062-2.344 1.047-3.326-.035-.305-.336-1.462-2.402-2.572-4.591l-2.018-3.981.632-1.208c.347-.664.773-1.208.946-1.208.183 0 1.17 1.474 2.348 3.502 1.117 1.926 2.129 3.533 2.247 3.573.264.088 9.326-18.01 9.156-18.286-.196-.316-8.263-.252-8.675.069-.189.147-2.9 5.113-6.025 11.036-3.444 6.528-5.93 11-6.312 11.356-.75.697-1.71.768-2.65.194z" fill="url(#d)" stroke-width=".213"/><path style="isolation:auto;mix-blend-mode:normal;marker:none" d="M32.69.038L5.428 15.558l-.19 31.37.011.007.18-29.34L32.69 2.074 59.75 17.92l.011-2.03z" color="#000" display="block" overflow="visible" fill="#8aa8cb" fill-opacity=".534" fill-rule="nonzero" stroke-width="35.269" stroke-linecap="round" stroke-linejoin="round" stroke-opacity=".157" paint-order="stroke markers fill"/></g></svg>