<svg xmlns="http://www.w3.org/2000/svg" xmlns:xlink="http://www.w3.org/1999/xlink" height="64" viewBox="0 0 64 64" width="64"><defs><linearGradient id="a"><stop offset="0" stop-color="#242c55"/><stop offset="1" stop-color="#663767"/></linearGradient><linearGradient xlink:href="#a" id="b" x1="5.997" y1="1046.005" x2="26.933" y2="1027.213" gradientUnits="userSpaceOnUse"/></defs><path d="M18.033 8c-4.574-.001-8.64 3.087-10.165 6.842-1.526 3.757-.763 8.81 2.52 12l6.126 6.125-6.087 6.094c-2.182 2.095-3.568 5.43-3.416 8.423.153 2.993 1.459 5.449 3.256 7.247 1.798 1.799 4.252 3.105 7.244 3.257 2.991.154 6.325-1.234 8.42-3.416l6.09-6.09 6.189 6.195c2.112 2.122 5.408 3.439 8.357 3.269 2.95-.17 5.382-1.466 7.166-3.25 1.784-1.783 3.079-4.21 3.252-7.161.172-2.947-1.137-6.246-3.252-8.361h-.008l-6.196-6.2 6.118-6.12c3.327-3.23 4.062-8.374 2.465-12.149-1.596-3.774-5.8-6.833-10.433-6.693a10.98 10.98 0 0 0-7.54 3.327l-6.118 6.121-6.122-6.125a10.974 10.974 0 0 0-7.859-3.327z" color="#000" stroke-linecap="round" stroke-linejoin="round" opacity=".2" stroke-width="8"/><path d="M8.998 1023.785c-2.294 0-4.333 1.547-5.098 3.43-.765 1.883-.383 4.416 1.264 6.015l3.072 3.07-3.053 3.055c-1.094 1.05-1.79 2.723-1.713 4.223.077 1.5.732 2.731 1.633 3.633.902.901 2.133 1.556 3.633 1.633 1.5.077 3.172-.62 4.223-1.713l3.054-3.053 3.104 3.105c1.06 1.064 2.712 1.724 4.191 1.64 1.48-.086 2.7-.736 3.594-1.63.895-.894 1.544-2.11 1.63-3.59.087-1.477-.57-3.13-1.63-4.191h-.004l-3.107-3.107 3.068-3.069c1.668-1.619 2.037-4.198 1.236-6.09-.8-1.892-2.909-3.425-5.232-3.355a5.508 5.508 0 0 0-3.781 1.668l-3.069 3.068-3.07-3.07a5.505 5.505 0 0 0-3.941-1.668z" fill="url(#b)" transform="matrix(1.99395 0 0 1.99486 .092 -2035.309)" stroke-linecap="round" stroke-linejoin="round" stroke-width="8"/><g fill="none" stroke="#000" stroke-width="3" stroke-linecap="round" stroke-linejoin="round"><path d="M18.03 19.043l28 28M46.03 19.043l-28 28" opacity=".2" stroke-width="6"/></g><path d="M18 14.813a3 3 0 0 0-2.094 5.152L27.79 31.844 15.91 43.723a3 3 0 1 0 4.242 4.242l11.88-11.879 11.874 11.879a3.001 3.001 0 1 0 4.246-4.242l-11.879-11.88 11.88-11.878a3 3 0 0 0-2.18-5.152 3 3 0 0 0-2.063.91L32.031 27.602l-11.879-11.88a3 3 0 0 0-2.152-.91z" fill="#fff" stroke-width="3" stroke-linecap="round" stroke-linejoin="round"/><path d="M18.033 7C13.46 7 9.394 10.087 7.87 13.842c-.566 1.394-.816 2.967-.74 4.557.048-1.244.293-2.456.74-3.557C9.394 11.087 13.46 7.999 18.033 8l.008.008a10.976 10.976 0 0 1 7.86 3.328l6.12 6.125 6.118-6.121a10.984 10.984 0 0 1 7.54-3.328c4.634-.14 8.838 2.918 10.434 6.693.479 1.132.743 2.388.795 3.678.075-1.636-.193-3.255-.795-4.678-1.596-3.775-5.8-6.833-10.433-6.693a10.984 10.984 0 0 0-7.541 3.328L32.02 16.46l-6.12-6.125a10.976 10.976 0 0 0-7.86-3.328L18.033 7zm-2.02 25.467l-5.585 5.594c-2.182 2.095-3.569 5.43-3.416 8.423.002.037.01.071.011.108.13-2.746 1.437-5.642 3.405-7.531l6.086-6.094-.5-.5zm32.016.008l-.5.5 6.196 6.199h.007c1.887 1.887 3.124 4.712 3.248 7.393.001-.011.004-.021.004-.032.173-2.947-1.136-6.245-3.252-8.361h-.007l-5.696-5.7z" stroke-width="15.955" stroke-linecap="round" stroke-linejoin="round" fill="#fff" opacity=".2"/></svg>