<svg xmlns="http://www.w3.org/2000/svg" xmlns:xlink="http://www.w3.org/1999/xlink" width="128" height="128" viewBox="0 0 33.866666 33.866668"><defs><linearGradient id="f"><stop offset="0" stop-color="#fff"/><stop offset="1" stop-color="#f4f4f4"/></linearGradient><linearGradient id="a"><stop offset="0" stop-color="#0068e0"/><stop offset="1" stop-color="#00acf4"/></linearGradient><filter id="b" width="100%" height="100%" x="0%" y="0%"><feColorMatrix in="SourceGraphic" values="0 0 0 0 1 0 0 0 0 1 0 0 0 0 1 0 0 0 1 0"/></filter><clipPath id="c"><path d="M0 0h384v384H0z"/></clipPath><clipPath id="d"><path d="M0 0h384v384H0z"/></clipPath><linearGradient y2="71.02" x2="84.091" y1="117.042" x1="122.341" gradientUnits="userSpaceOnUse" id="j" xlink:href="#e" gradientTransform="matrix(.26458 0 0 .26458 -73.214 269.229)"/><linearGradient id="e"><stop offset="0" stop-color="#d5dada"/><stop offset="1" stop-color="#f1f1f1"/></linearGradient><linearGradient xlink:href="#f" id="k" x1="-33.316" y1="267.258" x2="-21.756" y2="285.733" gradientUnits="userSpaceOnUse"/><filter y="0%" x="0%" height="100%" width="100%" id="g"><feColorMatrix values="0 0 0 0 1 0 0 0 0 1 0 0 0 0 1 0 0 0 1 0" in="SourceGraphic"/></filter><clipPath id="h"><path d="M0 0h384v384H0z"/></clipPath><clipPath id="i"><path d="M0 0h384v384H0z"/></clipPath><linearGradient xlink:href="#e" id="l" gradientUnits="userSpaceOnUse" gradientTransform="matrix(.26458 0 0 .26458 -114.234 271.806)" x1="122.341" y1="117.042" x2="84.091" y2="71.02"/></defs><g transform="translate(0 -263.133)" stroke-linecap="round" stroke-linejoin="round"><g transform="rotate(-8.765 81.188 -141.781) scale(.98654)" opacity=".389" fill="none" stroke="#000" stroke-opacity=".039"><rect width="25.83" height="29.567" x="-61.945" y="253.765" rx="1.442" ry="1.442" stroke-width=".15" paint-order="fill markers stroke"/><rect ry="1.442" rx="1.442" y="253.765" x="-61.945" height="29.567" width="25.83" stroke-width=".3" paint-order="fill markers stroke"/><rect width="25.83" height="29.567" x="-61.945" y="253.765" rx="1.442" ry="1.442" stroke-width=".45" paint-order="fill markers stroke"/><rect ry="1.442" rx="1.442" y="253.765" x="-61.945" height="29.567" width="25.83" stroke-width=".6" paint-order="fill markers stroke"/><rect width="25.83" height="29.567" x="-61.945" y="253.765" rx="1.442" ry="1.442" stroke-width=".85" paint-order="fill markers stroke"/><rect ry="1.442" rx="1.442" y="253.765" x="-61.945" height="29.567" width="25.83" paint-order="fill markers stroke"/></g><rect width="25.483" height="29.169" x="-40.457" y="264.375" rx="1.423" ry="1.423" transform="rotate(-8.764)" fill="url(#k)" stroke-width=".363" stroke-opacity=".148" paint-order="fill markers stroke"/><path d="M9.485 282.502l3.856 3.316 8.946-11.413" fill="none" stroke="#16c1e0" stroke-width="3"/></g></svg>