<svg xmlns="http://www.w3.org/2000/svg" xmlns:xlink="http://www.w3.org/1999/xlink" width="136.533" height="136.533" viewBox="0 0 136.53333 136.53333"><defs><linearGradient id="b"><stop offset="0" stop-color="#097bff"/><stop offset="1" stop-color="#479cff"/></linearGradient><linearGradient id="a"><stop offset="0" stop-color="#f5f5f5"/><stop offset="1" stop-color="#ebeae6"/></linearGradient><linearGradient xlink:href="#a" id="d" x1="30.858" y1="16.587" x2="116.883" y2="116.384" gradientUnits="userSpaceOnUse"/><linearGradient xlink:href="#b" id="c" x1="99.703" y1="125.93" x2="60.766" y2="16.877" gradientUnits="userSpaceOnUse"/></defs><circle cx="68.953" cy="68.366" r="64.022" fill="url(#c)" stroke="url(#d)" stroke-width="6"/><g fill="none" stroke="#000" stroke-opacity=".038"><path d="M35.663 48.345V78.89a8.312 8.312 0 0 0 8.33 8.33h38.875V56.676a8.312 8.312 0 0 0-8.33-8.33H35.663zm66.643 0l-16.661 9.719v19.438l16.66 9.718V48.345z"/><path d="M35.663 48.345V78.89a8.312 8.312 0 0 0 8.33 8.33h38.875V56.676a8.312 8.312 0 0 0-8.33-8.33H35.663zm66.643 0l-16.661 9.719v19.438l16.66 9.718V48.345z" stroke-width="2"/><path d="M35.663 48.345V78.89a8.312 8.312 0 0 0 8.33 8.33h38.875V56.676a8.312 8.312 0 0 0-8.33-8.33H35.663zm66.643 0l-16.661 9.719v19.438l16.66 9.718V48.345z" stroke-width="3"/></g><path d="M35.632 48.928v30.545a8.312 8.312 0 0 0 8.33 8.33h38.875V57.26a8.312 8.312 0 0 0-8.33-8.33H35.632zm66.643 0l-16.661 9.72v19.437l16.66 9.718V48.928z" fill="#fff"/></svg>