<svg xmlns="http://www.w3.org/2000/svg" xmlns:xlink="http://www.w3.org/1999/xlink" height="24" viewBox="0 0 24 24" width="24"><title>Template icons dark</title><defs><linearGradient id="c"><stop offset="0" stop-color="#24303f"/><stop offset="1" stop-color="#304155"/></linearGradient><linearGradient id="b"><stop offset="0" stop-color="#5a41e2"/><stop offset="1" stop-color="#4c9ce0" stop-opacity=".945"/></linearGradient><linearGradient id="a"><stop offset="0" stop-color="#fffefe"/><stop offset="1" stop-color="#fff" stop-opacity=".855"/></linearGradient><linearGradient gradientTransform="matrix(.27273 0 0 .27273 -87.636 -87.636)" xlink:href="#c" id="d" x1="171.402" y1="199.004" x2="171.402" y2="116" gradientUnits="userSpaceOnUse"/></defs><path style="isolation:auto;mix-blend-mode:normal;marker:none" d="M-52.688-56h17.375A3.305 3.305 0 0 1-32-52.687v17.374A3.305 3.305 0 0 1-35.313-32h-17.375A3.305 3.305 0 0 1-56-35.313v-17.374A3.305 3.305 0 0 1-52.688-56z" color="#000" display="block" overflow="visible" fill="url(#d)" paint-order="fill markers stroke" transform="translate(56 56)"/><path d="M17.57 16.982c-1.758.942-3.67 1.396-5.41 1.396-2.577 0-5.074-.892-7.093-2.372-.177-.13-.307.098-.16.266 1.872 2.129 4.343 3.409 7.09 3.409 1.959 0 4.233-.777 5.802-2.237.26-.24.037-.604-.228-.462zM18 18.4c-.059.145.066.205.198.094.857-.717 1.078-2.218.903-2.435-.174-.215-1.672-.4-2.586.242-.14.098-.116.235.04.215.515-.061 1.66-.2 1.864.063.205.263-.227 1.34-.42 1.821z" clip-rule="evenodd" fill="#ff9802" fill-opacity=".984" fill-rule="evenodd"/><path d="M13.253 10.777c0 .789.019 1.444-.378 2.145-.321.57-.833.92-1.4.92-.776 0-1.23-.59-1.23-1.466 0-1.723 1.546-2.037 3.009-2.037v.438zm2.04 4.932a.415.415 0 0 1-.477.048c-.674-.559-.793-.817-1.161-1.348-1.11 1.13-1.896 1.47-3.334 1.47-1.703 0-3.029-1.05-3.029-3.153 0-1.641.89-2.758 2.157-3.305 1.098-.482 2.631-.57 3.804-.7v-.263c0-.482.038-1.051-.245-1.468-.247-.371-.72-.525-1.137-.525-.77 0-1.457.395-1.625 1.214-.035.182-.167.363-.352.372l-1.959-.213c-.166-.036-.35-.17-.302-.422.45-2.379 2.599-3.097 4.523-3.097.983 0 2.27.263 3.045 1.008.985.919.891 2.145.891 3.48v3.151c0 .948.394 1.364.763 1.875.13.184.158.403-.006.537-.414.346-1.149.984-1.551 1.344z" clip-rule="evenodd" fill="#fff" fill-opacity=".984" fill-rule="evenodd"/></svg>