<svg xmlns="http://www.w3.org/2000/svg" xmlns:xlink="http://www.w3.org/1999/xlink" height="24" viewBox="0 0 24 24" width="24"><title>Template icons dark</title><defs><linearGradient id="d"><stop offset="0" stop-color="#f772b7"/><stop offset="1" stop-color="#f70342"/></linearGradient><linearGradient id="c"><stop offset="0" stop-color="#f7f7f7"/><stop offset="1" stop-color="#e8e8e8"/></linearGradient><linearGradient id="a"><stop offset="0" stop-color="#dedede"/><stop offset="1" stop-color="#fff" stop-opacity=".974"/></linearGradient><linearGradient id="b"><stop offset="0" stop-color="#ff1781"/><stop offset="1" stop-color="#0b65ff"/></linearGradient><linearGradient gradientTransform="matrix(.20577 0 0 .20577 -76.923 -76.923)" xlink:href="#b" id="f" x1="160.333" y1="155.19" x2="160.333" y2="204.115" gradientUnits="userSpaceOnUse"/><linearGradient xlink:href="#c" id="g" gradientUnits="userSpaceOnUse" x1="272" y1="298" x2="272" y2="237.102" gradientTransform="translate(-94.658 -95.174) scale(.18556)"/><radialGradient xlink:href="#d" id="e" cx="160" cy="160" fx="160" fy="160" r="38.047" gradientTransform="matrix(.23875 0 0 .3187 -82.2 -94.991)" gradientUnits="userSpaceOnUse"/></defs><g transform="translate(56 56)"><path style="isolation:auto;mix-blend-mode:normal;marker:none" d="M-32-44l-7.507 1.535 5.215 5.881-6.931-3.397.931 7.981L-44-39.032-47.708-32l.931-7.981-6.931 3.397 5.215-5.881L-56-44l7.507-1.535-5.215-5.881 6.931 3.397-.931-7.981L-44-48.968-40.292-56l-.931 7.981 6.931-3.397-5.215 5.881z" color="#000" overflow="visible" fill-opacity=".267"/><path style="isolation:auto;mix-blend-mode:normal;marker:none" d="M-32.6-44l-7.132 1.458 4.954 5.587-6.584-3.227.885 7.581L-44-39.28l-3.523 6.68.885-7.581-6.584 3.227 4.954-5.587L-55.4-44l7.13-1.458-4.953-5.587 6.584 3.227-.885-7.581L-44-48.72l3.523-6.68-.885 7.581 6.584-3.227-4.954 5.587z" color="#000" display="block" overflow="visible" fill="#fff" fill-opacity=".984"/><path style="isolation:auto;mix-blend-mode:normal;marker:none" d="M-34.842-44A9.158 9.158 0 0 1-44-34.842 9.158 9.158 0 0 1-53.158-44 9.158 9.158 0 0 1-44-53.158 9.158 9.158 0 0 1-34.842-44z" color="#000" overflow="visible" fill="url(#e)" stroke="#fff" stroke-width=".51"/><path style="isolation:auto;mix-blend-mode:normal;marker:none" d="M-34.842-44A9.158 9.158 0 0 1-44-34.842 9.158 9.158 0 0 1-53.158-44 9.158 9.158 0 0 1-44-53.158 9.158 9.158 0 0 1-34.842-44z" color="#000" overflow="visible" opacity=".284" fill="url(#f)" stroke="#fff" stroke-width=".51"/><path style="isolation:auto;mix-blend-mode:normal;marker:none" d="M-35.093-44.326A8.911 9.158 0 0 1-44-35.253a8.911 9.158 0 0 1-8.907-9.038 8.911 9.158 0 0 0-.004.085A8.911 9.158 0 0 0-44-35.048a8.911 9.158 0 0 0 8.911-9.158 8.911 9.158 0 0 0-.004-.12z" color="#000" overflow="visible" fill-opacity=".297"/><path d="M-35.052-43.615A8.953 9.158 0 0 0-44-52.688a8.953 9.158 0 0 0-8.948 9.038 8.953 9.158 0 0 1-.005-.085A8.953 9.158 0 0 1-44-52.894a8.953 9.158 0 0 1 8.953 9.159 8.953 9.158 0 0 1-.005.12z" style="isolation:auto;mix-blend-mode:normal;marker:none" color="#000" overflow="visible" fill="#242424" fill-opacity=".471"/><path style="line-height:1000%;-inkscape-font-specification:Sagar" d="M-43.844-51.914c-.726 0-1.332.127-1.804.422-.459.288-.758.729-.758 1.224v.02l.084.783 1.758 7.692h.577a2.05 2.05 0 0 0-2.024 2.042c0 1.126.921 2.047 2.047 2.047 1.126 0 2.047-.92 2.047-2.047a2.05 2.05 0 0 0-2.024-2.042h.637l1.782-7.712v-.683c0-.53-.275-1.01-.73-1.307-.445-.297-.987-.439-1.592-.439z" font-weight="400" font-family="Sagar" letter-spacing="0" word-spacing="0" fill-opacity=".136" paint-order="stroke fill markers"/><path style="line-height:1000%;-inkscape-font-specification:Sagar" d="M-43.905-51.498c-.682 0-1.217.121-1.605.364-.388.243-.582.545-.582.906l.08.74 1.686 7.379h.662l1.705-7.379v-.64c0-.42-.187-.752-.562-.995-.374-.25-.836-.375-1.384-.375zm-.12 10.135a1.672 1.672 0 0 0-1.672 1.672 1.672 1.672 0 0 0 1.672 1.671 1.672 1.672 0 0 0 1.671-1.671 1.672 1.672 0 0 0-1.671-1.672z" font-weight="400" font-family="Sagar" letter-spacing="0" word-spacing="0" fill="url(#g)" paint-order="stroke fill markers"/><circle style="isolation:auto;mix-blend-mode:normal;marker:none" cx="-44" cy="-44" r="9.883" color="#000" overflow="visible" fill-opacity=".157"/></g></svg>