<svg xmlns="http://www.w3.org/2000/svg" xmlns:xlink="http://www.w3.org/1999/xlink" height="24" viewBox="0 0 24 24" width="24"><title>Template icons dark</title><defs><linearGradient id="n"><stop offset="0" stop-color="#cacaca" stop-opacity="0"/><stop offset=".565" stop-color="#fff" stop-opacity=".422"/><stop offset="1" stop-color="#cacaca" stop-opacity="0"/></linearGradient><linearGradient id="o"><stop offset="0" stop-color="#fff" stop-opacity=".656"/><stop offset="1" stop-color="#fff" stop-opacity=".047"/></linearGradient><linearGradient id="p"><stop offset="0" stop-opacity=".26"/><stop offset="1" stop-color="#f0f0f0" stop-opacity="0"/></linearGradient><linearGradient id="m"><stop offset="0" stop-color="#fff" stop-opacity=".458"/><stop offset="1" stop-color="#fff" stop-opacity=".255"/></linearGradient><linearGradient id="l"><stop offset="0" stop-opacity=".146"/><stop offset=".494" stop-opacity=".506"/><stop offset="1" stop-opacity=".057"/></linearGradient><linearGradient id="k"><stop offset="0" stop-opacity=".156"/><stop offset="1" stop-color="#f0f0f0" stop-opacity="0"/></linearGradient><linearGradient id="a"><stop offset="0" stop-color="#58c19a"/><stop offset="1" stop-color="#38899d"/></linearGradient><linearGradient id="j"><stop offset="0" stop-opacity=".26"/><stop offset="1" stop-opacity="0"/></linearGradient><linearGradient id="g"><stop offset="0" stop-color="#afacd0"/><stop offset="1" stop-color="#eee"/></linearGradient><linearGradient id="i"><stop offset="0" stop-color="#cacaca" stop-opacity="0"/><stop offset=".583" stop-color="#fff" stop-opacity=".422"/><stop offset="1" stop-color="#cacaca" stop-opacity="0"/></linearGradient><linearGradient id="h"><stop offset="0" stop-color="#ececec"/><stop offset=".489" stop-color="#cacaca" stop-opacity=".459"/><stop offset="1" stop-color="#ececec"/></linearGradient><linearGradient id="c"><stop offset="0" stop-color="#bebebe"/><stop offset=".489" stop-color="#aeaeae" stop-opacity=".459"/><stop offset="1" stop-color="#bebebe"/></linearGradient><linearGradient id="b"><stop offset="0" stop-color="#dfdfdf"/><stop offset=".489" stop-color="silver" stop-opacity=".459"/><stop offset="1" stop-color="#dfdfdf"/></linearGradient><linearGradient id="d"><stop offset="0" stop-color="#444"/><stop offset="1" stop-color="#ececec"/></linearGradient><linearGradient id="e"><stop offset="0" stop-color="#a7a7a7"/><stop offset="1" stop-color="#eee"/></linearGradient><linearGradient id="f"><stop offset="0" stop-color="#a7a7a7"/><stop offset=".505" stop-color="#5b5b5b"/><stop offset="1" stop-color="#303030"/></linearGradient><linearGradient xlink:href="#n" id="r" gradientUnits="userSpaceOnUse" x1="140.347" y1="191.371" x2="177.871" y2="191.371"/><linearGradient xlink:href="#p" id="u" gradientUnits="userSpaceOnUse" x1="160" y1="171.465" x2="160" y2="119"/><linearGradient xlink:href="#o" id="v" gradientUnits="userSpaceOnUse" x1="160" y1="175.786" x2="160" y2="150"/><linearGradient xlink:href="#a" id="q" gradientUnits="userSpaceOnUse" gradientTransform="matrix(1.60037 0 0 1.61052 -82.378 -81.273)" x1="23.981" y1="11.967" x2="23.981" y2="32.33"/><linearGradient xlink:href="#i" id="s" gradientUnits="userSpaceOnUse" gradientTransform="translate(-5 -403)" x1="143.757" y1="216.607" x2="181.264" y2="216.607"/><linearGradient xlink:href="#i" id="t" gradientUnits="userSpaceOnUse" gradientTransform="translate(4 -324)" x1="134.54" y1="191.129" x2="179.142" y2="191.129"/><linearGradient xlink:href="#c" id="x" gradientUnits="userSpaceOnUse" gradientTransform="matrix(.32771 0 0 .24329 -69.875 -52.669)" x1="160.971" y1="127.717" x2="167.448" y2="127.591"/><linearGradient xlink:href="#b" id="w" gradientUnits="userSpaceOnUse" x1="155.296" y1="153.204" x2="165.174" y2="153.204"/></defs><path style="isolation:auto;mix-blend-mode:normal;marker:none" d="M6 0h12.005C21.511 0 23 1.494 23 5v15c0 3.506-1.494 4-5 4H6c-3.506 0-5-1.494-5-5V5c0-3.506 1.494-5 5-5z" color="#000" display="block" overflow="visible" fill-opacity=".083" paint-order="fill markers stroke"/><path style="isolation:auto;mix-blend-mode:normal;marker:none" d="M-50-55.02h12c3.352 0 4 .668 4 4.02v14c0 3.352-1.648 4-5 4h-11c-3.352 0-4-.648-4-4v-14c0-3.352.648-4.02 4-4.02z" color="#000" display="block" overflow="visible" fill="url(#q)" paint-order="fill markers stroke" transform="translate(56 56)"/><path d="M15 .956h1V12c0 1.432-1.924 3-4 3s-4-1.568-4-3V.957z" style="isolation:auto;mix-blend-mode:normal;marker:none" color="#000" overflow="visible" fill-opacity=".167" paint-order="fill markers stroke"/><path style="isolation:auto;mix-blend-mode:normal;marker:none" d="M15 .938v12.061c0 1-2 3-3 3s-3-2-3-3V.938z" color="#000" overflow="visible" fill-opacity=".557" paint-order="fill markers stroke"/><path d="M11.96 10.7c-.93 0-1.532.756-1.68 1.67l-1.331 4.889c-.265 1.637 1.343 2.994 3.011 2.994 1.668 0 3.276-1.357 3.011-2.994l-1.33-4.889c-.148-.914-.75-1.67-1.68-1.67zm0 1.382c.446 0 .807.36.807.802a.805.805 0 0 1-.807.803.805.805 0 0 1-.807-.803c0-.443.362-.802.807-.802zm0 2.869a1.96 1.96 0 0 1 1.965 1.955 1.96 1.96 0 0 1-1.965 1.954 1.96 1.96 0 0 1-1.966-1.954c0-1.08.88-1.955 1.966-1.955z" style="isolation:auto;mix-blend-mode:normal;marker:none" color="#000" display="block" overflow="visible" fill-opacity=".313" paint-order="fill markers stroke"/><path style="isolation:auto;mix-blend-mode:normal;marker:none" d="M11.96 10.993c-1.13 0-1.86.92-2.04 2.028l-.615 3.839c-.233 1.443 1.185 2.64 2.655 2.64 1.47 0 2.888-1.197 2.655-2.64L14 13.02c-.18-1.109-.91-2.028-2.04-2.028zm0 1.068c.546 0 .99.44.99.984a.987.987 0 0 1-.99.984.987.987 0 0 1-.99-.984c.001-.544.444-.984.99-.984zm0 3.098c.935 0 1.693.754 1.692 1.684 0 .93-.757 1.682-1.692 1.683a1.688 1.688 0 0 1-1.693-1.683c0-.93.758-1.684 1.693-1.684z" color="#000" overflow="visible" fill="#e7e7e7" paint-order="fill markers stroke"/><path style="isolation:auto;mix-blend-mode:normal;marker:none" d="M7 1h1v11H7zM16 1h1v11h-1z" color="#000" display="block" overflow="visible" fill="#e7e7e7" fill-opacity=".234" paint-order="fill markers stroke"/><g color="#000"><path d="M6 .98C2.648.98 2 1.648 2 5v.667C2 2.315 2.648 2 6 2h12c3.352 0 4 .315 4 3.667V5c0-3.352-.648-4.02-4-4.02z" style="isolation:auto;mix-blend-mode:normal;marker:none" display="block" overflow="visible" fill="#fff" fill-opacity=".505" paint-order="fill markers stroke"/><path style="isolation:auto;mix-blend-mode:normal;marker:none" d="M151 175h16.5v1.5H151z" display="block" overflow="visible" fill="url(#r)" paint-order="fill markers stroke" transform="translate(-94.667 -94.667) scale(.66667)"/><path transform="rotate(90 0 -94.667) scale(.66667)" style="isolation:auto;mix-blend-mode:normal;marker:none" d="M149.5-175H172v1.5h-22.5z" display="block" overflow="visible" fill="url(#s)" paint-order="fill markers stroke"/><path transform="rotate(90 0 -94.667) scale(.66667)" style="isolation:auto;mix-blend-mode:normal;marker:none" d="M151-146.5h19.5v1.5H151z" display="block" overflow="visible" fill="url(#t)" paint-order="fill markers stroke"/><path d="M151 143.47h18c5.028 0 6 1.002 6 6.03v3l-15 12-15-12v-3c0-5.028.972-6.03 6-6.03z" style="isolation:auto;mix-blend-mode:normal;marker:none" display="block" overflow="visible" fill="url(#u)" paint-order="fill markers stroke" transform="translate(-94.667 -94.667) scale(.66667)"/><path style="line-height:normal;font-variant-ligatures:normal;font-variant-position:normal;font-variant-caps:normal;font-variant-numeric:normal;font-variant-alternates:normal;font-feature-settings:normal;text-indent:0;text-align:start;text-decoration-line:none;text-decoration-style:solid;text-decoration-color:#000;text-transform:none;text-orientation:mixed;shape-padding:0;isolation:auto;mix-blend-mode:normal" d="M175 152.5l-15 12-15-12v1.5l15 12 15-12z" font-weight="400" font-family="sans-serif" white-space="normal" overflow="visible" fill="url(#v)" fill-rule="evenodd" transform="translate(-94.667 -94.667) scale(.66667)"/></g><path style="isolation:auto;mix-blend-mode:normal;marker:none" d="M-16-26v1h2v-1h-2v-1h-2v1zm0 1h-2v1h2zm0 1v1h2v-1zm0 1h-2v1h2zm0 1v1h2v-1zm0 1h-2v1h2zm0 1v1h2v-1zm0 1h-2v1h2zm0 1v1h2v-1zm0 1h-2v1h2z" transform="matrix(1 0 0 1 28 28)" color="#000" overflow="visible" fill="url(#x)" paint-order="fill markers stroke"/></svg>