<svg xmlns="http://www.w3.org/2000/svg" xmlns:xlink="http://www.w3.org/1999/xlink" height="24" viewBox="0 0 24 24" width="24"><title>Template icons dark</title><defs><linearGradient id="b"><stop offset="0" stop-color="#ff053c"/><stop offset="1" stop-color="#0b31ff" stop-opacity=".974"/></linearGradient><linearGradient id="a"><stop offset="0" stop-color="#20c686"/><stop offset="1" stop-color="#259d68"/></linearGradient><linearGradient xlink:href="#a" id="c" x1="24.535" y1="7.996" x2="24.705" y2="38.25" gradientUnits="userSpaceOnUse" gradientTransform="matrix(.5441 0 0 .5441 -57.103 -57.907)"/><linearGradient gradientTransform="matrix(.25532 0 0 .25532 -84.851 -84.851)" xlink:href="#b" id="d" x1="122" y1="183" x2="196" y2="142" gradientUnits="userSpaceOnUse"/></defs><g transform="translate(56 56)"><circle style="isolation:auto;mix-blend-mode:normal;marker:none" cx="-44" cy="-44" r="12" color="#000" display="block" overflow="visible" fill-opacity=".157"/><circle style="isolation:auto;mix-blend-mode:normal;marker:none" cx="-44" cy="-44" r="11.364" color="#000" overflow="visible" fill="url(#c)" stroke="#fff" stroke-width=".633"/><circle r="11.364" cy="-44" cx="-44" style="isolation:auto;mix-blend-mode:normal;marker:none" color="#000" overflow="visible" opacity=".109" fill="url(#d)" stroke="#fff" stroke-width=".633"/><path d="M-41.117-35.397c-1.286-.213-2.956-1.686-4.481-3.95a21.747 21.747 0 0 1-1.722-3.086c-.085-.193-.117-.24-.143-.211-.052.055-.424.864-.62 1.348-.33.814-.562 1.59-.696 2.322-.085.468-.092 1.377-.013 1.658.184.654.584.926 1.207.821.45-.075.994-.321 1.571-.71.256-.173.324-.206.423-.207.152 0 .265.082.318.232.035.1.035.128-.001.223-.035.091-.095.145-.365.329-.374.253-1.014.58-1.34.685-.858.274-1.524.173-1.994-.301-.432-.435-.617-1.139-.56-2.12.074-1.277.636-3.02 1.523-4.73l.223-.429-.168-.454c-.161-.436-.48-1.444-.48-1.52 0-.054-.097-.043-.523.062-.978.24-1.704.546-2.225.937-1.024.769-.753 1.635.782 2.499.244.137.3.211.3.394 0 .096-.017.135-.096.213-.167.168-.324.133-.842-.188-.749-.465-1.222-.994-1.39-1.552a1.858 1.858 0 0 1 0-.819c.089-.298.238-.536.507-.806.603-.606 1.602-1.072 2.973-1.384.279-.064.343-.088.333-.124a8.63 8.63 0 0 1-.071-.354c-.186-1-.192-2.146-.014-2.782.206-.733.578-1.17 1.17-1.373.243-.083.727-.07 1.06.029.334.099.749.303 1.115.549.437.293.566.416.584.557.043.325-.293.5-.567.296-.86-.64-1.474-.883-1.965-.78-.358.076-.631.443-.769 1.034-.055.235-.062.346-.062.93 0 .663.009.77.13 1.465l.06.35.144-.018c.658-.08 1.226-.135 1.575-.153l.416-.023.064-.083c.702-.902 1.721-1.954 2.494-2.575 1.48-1.187 2.75-1.6 3.622-1.176.494.238.805.727.926 1.45.08.472.017 1.589-.106 1.904-.042.108-.178.187-.325.187a.27.27 0 0 1-.212-.083c-.084-.075-.092-.096-.092-.247 0-.09.025-.349.053-.574.084-.655.026-1.26-.152-1.61a1.067 1.067 0 0 0-.418-.427c-.115-.057-.174-.066-.443-.065-.283.001-.339.01-.618.106-.863.294-1.853 1.002-2.915 2.085-.203.208-.507.536-.677.73l-.307.353.267.007c3.743.088 6.898.948 8.385 2.284.335.3.623.749.707 1.098.042.177.043.521.001.705-.153.68-.9 1.348-1.99 1.78-.171.068-.208.073-.3.045a.34.34 0 0 1-.252-.327c0-.18.087-.266.398-.396.676-.284 1.2-.682 1.4-1.062.069-.132.08-.183.08-.392 0-.217-.01-.258-.095-.423-.121-.234-.52-.634-.85-.853-1.627-1.076-4.69-1.774-7.783-1.774h-.51l-.193.261c-.288.391-.912 1.341-1.16 1.766l-.22.375.151.345c1.51 3.465 3.854 6.39 5.583 6.968.376.126.66.132.89.02.43-.211.656-.758.69-1.674.058-1.53-.493-3.644-1.52-5.835-.107-.227-.17-.4-.17-.462a.33.33 0 0 1 .342-.329c.17.002.244.07.373.34.833 1.743 1.389 3.49 1.596 5.017.07.514.07 1.56.001 1.934-.111.597-.308 1.028-.61 1.331-.369.37-.846.511-1.411.417zm-5.976-9.302c.105-.17.31-.485.456-.697.145-.213.264-.396.264-.407 0-.036-1.334.1-1.375.14-.024.024.056.321.234.868.129.397.164.478.193.446.02-.022.122-.18.228-.35zm2.847 2.533a.961.961 0 0 1-.667-.951.906.906 0 0 1 .193-.58c.346-.472 1.053-.525 1.479-.112.488.474.344 1.32-.275 1.603a1.074 1.074 0 0 1-.73.04z" fill-opacity=".438"/><path d="M-41.117-36.297c-1.286-.214-2.956-1.686-4.481-3.95a21.747 21.747 0 0 1-1.722-3.086c-.085-.193-.117-.24-.143-.212-.052.056-.424.865-.62 1.349-.33.814-.562 1.59-.696 2.321-.085.47-.092 1.377-.013 1.659.184.654.584.925 1.207.821.45-.075.994-.322 1.571-.71.256-.174.324-.206.423-.207.152-.001.265.082.318.232.035.1.035.128-.001.223-.035.091-.095.145-.365.329-.374.253-1.014.58-1.34.684-.858.274-1.524.174-1.994-.3-.432-.435-.617-1.139-.56-2.12.074-1.277.636-3.021 1.523-4.73l.223-.429-.168-.455c-.161-.435-.48-1.443-.48-1.518 0-.056-.097-.044-.523.06-.978.241-1.704.547-2.225.938-1.024.769-.753 1.635.782 2.498.244.138.3.212.3.395 0 .095-.017.135-.096.213-.167.168-.324.133-.842-.188-.749-.465-1.222-.994-1.39-1.552a1.858 1.858 0 0 1 0-.819c.089-.298.238-.536.507-.806.603-.606 1.602-1.072 2.973-1.385.279-.063.343-.087.333-.123a8.63 8.63 0 0 1-.071-.355c-.186-1-.192-2.146-.014-2.781.206-.733.578-1.17 1.17-1.373.243-.083.727-.07 1.06.029.334.099.749.303 1.115.549.437.293.566.416.584.557.043.325-.293.5-.567.296-.86-.64-1.474-.883-1.965-.78-.358.076-.631.443-.769 1.034-.055.235-.062.346-.062.93 0 .663.009.77.13 1.465l.06.35.144-.018a26.72 26.72 0 0 1 1.575-.154l.416-.022.064-.083c.702-.902 1.721-1.955 2.494-2.575 1.48-1.187 2.75-1.6 3.622-1.177.494.24.805.728.926 1.45.08.472.017 1.59-.106 1.904-.042.11-.178.187-.325.188a.27.27 0 0 1-.212-.083c-.084-.075-.092-.096-.092-.247 0-.09.025-.349.053-.574.084-.655.026-1.26-.152-1.61a1.067 1.067 0 0 0-.418-.428c-.115-.056-.174-.065-.443-.064-.283.001-.339.01-.618.106-.863.294-1.853 1.002-2.915 2.085-.203.207-.507.536-.677.73l-.307.353.267.006c3.743.09 6.898.949 8.385 2.285.335.3.623.749.707 1.098.042.177.043.521.001.705-.153.68-.9 1.348-1.99 1.78-.171.067-.208.073-.3.045a.34.34 0 0 1-.252-.327c0-.18.087-.266.398-.396.676-.284 1.2-.682 1.4-1.062.069-.132.08-.183.08-.392 0-.217-.01-.258-.095-.424-.121-.234-.52-.634-.85-.852-1.627-1.076-4.69-1.774-7.783-1.774h-.51l-.193.261c-.287.39-.912 1.34-1.16 1.766l-.22.375.151.345c1.51 3.465 3.854 6.39 5.583 6.968.376.125.66.132.89.019.43-.21.656-.757.69-1.673.058-1.53-.493-3.644-1.52-5.835-.107-.227-.17-.4-.17-.462a.33.33 0 0 1 .342-.329c.17.002.244.07.373.34.833 1.743 1.389 3.489 1.596 5.017.07.514.07 1.56.001 1.934-.111.597-.308 1.028-.61 1.331-.369.37-.846.51-1.411.417zm-5.976-9.302c.105-.171.31-.485.456-.698.145-.212.264-.395.264-.406 0-.036-1.334.099-1.375.14-.024.024.056.321.234.867.129.398.164.478.193.447.02-.022.122-.18.228-.35zm2.847 2.533a.961.961 0 0 1-.667-.952.906.906 0 0 1 .193-.58c.346-.471 1.053-.525 1.479-.112.488.475.344 1.321-.275 1.604a1.074 1.074 0 0 1-.73.04z" fill="#fff" stroke="#fff" stroke-width=".412"/></g></svg>