<svg xmlns="http://www.w3.org/2000/svg" xmlns:xlink="http://www.w3.org/1999/xlink" height="24" viewBox="0 0 24 24" width="24"><title>Template icons dark</title><defs><linearGradient id="f"><stop offset="0" stop-color="#0a34ff" stop-opacity="0"/><stop offset="1" stop-color="#ffff0d" stop-opacity=".24"/></linearGradient><linearGradient id="c"><stop offset="0" stop-color="#fff" stop-opacity=".427"/><stop offset=".423" stop-color="#fbfcfe"/><stop offset="1" stop-color="#fff" stop-opacity=".49"/></linearGradient><linearGradient id="e"><stop offset="0" stop-color="#cdcdcd"/><stop offset="1" stop-color="#fff"/></linearGradient><linearGradient id="d"><stop offset="0" stop-color="#fff" stop-opacity=".427"/><stop offset=".423" stop-color="#fafcfe"/><stop offset="1" stop-color="#fff" stop-opacity=".49"/></linearGradient><linearGradient id="b"><stop offset="0" stop-color="#fff" stop-opacity=".266"/><stop offset="1" stop-color="#fff"/></linearGradient><linearGradient id="a"><stop offset="0" stop-color="#0a34ff"/><stop offset="1" stop-color="#f044ee"/></linearGradient><linearGradient gradientTransform="matrix(.26087 0 0 .26087 -85.74 -85.74)" xlink:href="#e" id="h" x1="161.772" y1="204" x2="161.772" y2="113" gradientUnits="userSpaceOnUse"/><linearGradient xlink:href="#a" id="g" x1="22.9" y1="46.6" x2="22.9" y2="-10.331" gradientUnits="userSpaceOnUse" gradientTransform="translate(-57.128 -58.878) scale(.58345)"/></defs><path style="isolation:auto;mix-blend-mode:normal;marker:none" d="M-32-44a12 12 0 0 1-12 12 12 12 0 0 1-12-12 12 12 0 0 1 12-12 12 12 0 0 1 12 12z" color="#000" display="block" overflow="visible" fill="url(#g)" transform="translate(56 56)"/><path d="M.793 16.295c6.883.341 5.078-9.244 11.036-9.244 6.486 0 3.883 9.23 11.378 9.244" fill="none" stroke="#090909" stroke-width="1.067" stroke-opacity=".302"/><path style="line-height:normal;font-variant-ligatures:normal;font-variant-position:normal;font-variant-caps:normal;font-variant-numeric:normal;font-variant-alternates:normal;font-feature-settings:normal;text-indent:0;text-align:start;text-decoration-line:none;text-decoration-style:solid;text-decoration-color:#000;text-transform:none;text-orientation:mixed;shape-padding:0;isolation:auto;mix-blend-mode:normal" d="M11.83 5.72c-1.633 0-2.825.7-3.673 1.677-.848.976-1.405 2.203-1.978 3.373-.573 1.17-1.16 2.277-1.963 3.043-.803.765-1.798 1.232-3.397 1.153l-.052 1.065c1.843.092 3.204-.511 4.185-1.447.98-.935 1.604-2.16 2.185-3.345.58-1.184 1.12-2.332 1.825-3.143.704-.81 1.52-1.308 2.867-1.309 1.495 0 2.36.491 3.065 1.268.705.777 1.212 1.883 1.764 3.045s1.153 2.382 2.153 3.334c1.001.953 2.412 1.594 4.395 1.598l.002-1.067c-1.764-.003-2.84-.52-3.661-1.303-.822-.782-1.38-1.872-1.926-3.02-.545-1.147-1.071-2.35-1.937-3.303-.865-.954-2.107-1.618-3.855-1.618z" color="#000" font-weight="400" font-family="sans-serif" white-space="normal" overflow="visible" fill="#fff" fill-opacity=".948" fill-rule="evenodd"/><path style="isolation:auto;mix-blend-mode:normal;marker:none" d="M23.223 12.472A11.223 11.223 0 0 1 12 23.695 11.223 11.223 0 0 1 .777 12.472 11.223 11.223 0 0 1 12 1.25a11.223 11.223 0 0 1 11.223 11.223z" color="#000" overflow="visible" fill="none" stroke="#050505" stroke-width=".448" stroke-linejoin="round" stroke-opacity=".458"/><path style="isolation:auto;mix-blend-mode:normal;marker:none" d="M-32.52-44A11.48 11.48 0 0 1-44-32.52 11.48 11.48 0 0 1-55.48-44 11.48 11.48 0 0 1-44-55.48 11.48 11.48 0 0 1-32.52-44z" color="#000" overflow="visible" fill="none" stroke="url(#h)" stroke-width="1.041" stroke-linejoin="round" transform="translate(56 56)"/></svg>