<svg xmlns="http://www.w3.org/2000/svg" xmlns:xlink="http://www.w3.org/1999/xlink" height="24" viewBox="0 0 24 24" width="24"><title>Template icons dark</title><defs><linearGradient xlink:href="#a" id="h" gradientUnits="userSpaceOnUse" x1="213.205" y1="166" x2="213.205" y2="261.881" gradientTransform="matrix(.08512 0 0 .08512 -58.753 -59.1)"/><linearGradient id="a"><stop offset="0" stop-color="#fbfbfb"/><stop offset="1" stop-color="#cfcfcf"/></linearGradient><linearGradient xlink:href="#b" id="g" gradientUnits="userSpaceOnUse" gradientTransform="matrix(.49772 0 0 .49772 -55.729 -55.748)" x1="2.133" y1="1.425" x2="45.917" y2="45.208"/><linearGradient id="b"><stop offset="0" stop-color="#ff8545"/><stop offset=".525" stop-color="#f47200"/><stop offset="1" stop-color="#ffa04d"/></linearGradient><linearGradient id="c"><stop offset="0" stop-color="#2c60d3" stop-opacity=".609"/><stop offset="1" stop-color="#2c60d3" stop-opacity="0"/></linearGradient><linearGradient id="d"><stop offset="0" stop-opacity=".289"/><stop offset="1" stop-color="#c1c1c1" stop-opacity="0"/></linearGradient><linearGradient id="e"><stop offset="0" stop-color="#da6607" stop-opacity=".355"/><stop offset="1" stop-color="#fff" stop-opacity=".243"/></linearGradient><linearGradient id="f"><stop offset="0" stop-color="#763704"/><stop offset="1" stop-color="#763704" stop-opacity="0"/></linearGradient></defs><path d="M-44.634-54.102c-.354 0-.71.136-.98.408a1.385 1.385 0 0 0 0 1.962l3.854 3.855h-10.05c-.769 0-1.388.62-1.388 1.388 0 .769.619 1.388 1.388 1.388 1.445-.004 3.494-.005 5.456-.004l-7.11 7.11a1.385 1.385 0 0 0 0 1.963 1.385 1.385 0 0 0 1.962 0c1.043-1.05 2.538-2.546 3.956-3.962A6.938 6.938 0 0 0-40.68-34a6.938 6.938 0 0 0 6.938-6.938 6.938 6.938 0 0 0-2.377-5.223c-.514-.512-5.128-5.114-7.534-7.533a1.383 1.383 0 0 0-.98-.408zm4.036 11.513a1.62 1.62 0 1 1 0 3.239 1.62 1.62 0 0 1 0-3.24z" fill="url(#g)" transform="translate(56 56)"/><path d="M-40.604-45.133a4.163 4.163 0 0 0-4.163 4.163 4.163 4.163 0 0 0 4.163 4.163 4.163 4.163 0 0 0 4.163-4.163 4.163 4.163 0 0 0-4.163-4.163zm0 2.535a1.628 1.628 0 0 1 1.628 1.628 1.628 1.628 0 0 1-1.628 1.628 1.628 1.628 0 0 1-1.628-1.628 1.628 1.628 0 0 1 1.628-1.628z" fill="url(#h)" transform="translate(56 56)"/></svg>