<svg xmlns="http://www.w3.org/2000/svg" height="24" viewBox="0 0 24 24" width="24"><title>Template icons dark</title><defs><linearGradient id="q"><stop offset="0" stop-color="#c3c3c3"/><stop offset=".5" stop-color="#fff"/><stop offset="1" stop-color="#fff"/></linearGradient><linearGradient id="r"><stop offset="0" stop-color="#bababa" stop-opacity=".957"/><stop offset=".5" stop-color="#fff" stop-opacity=".827"/><stop offset="1" stop-color="#fff"/></linearGradient><linearGradient id="p"><stop offset="0" stop-opacity=".203"/><stop offset="1" stop-opacity="0"/></linearGradient><linearGradient id="o"><stop offset="0"/><stop offset="1" stop-opacity="0"/></linearGradient><linearGradient id="n"><stop offset="0" stop-color="#c6c6c6"/><stop offset="1" stop-color="#d2d2d2"/></linearGradient><linearGradient id="m"><stop offset="0" stop-color="#374359"/><stop offset="1" stop-color="#202733" stop-opacity=".953"/></linearGradient><linearGradient id="l"><stop offset="0" stop-color="#252525"/><stop offset="1" stop-color="#3d3d3d"/></linearGradient><linearGradient id="k"><stop offset="0" stop-opacity=".214"/><stop offset="1" stop-color="#fff"/></linearGradient><linearGradient id="j"><stop offset="0" stop-color="#bababa"/><stop offset="1" stop-color="#c9cbc9"/></linearGradient><linearGradient id="i"><stop offset="0" stop-opacity=".417"/><stop offset="1" stop-opacity="0"/></linearGradient><linearGradient id="h"><stop offset="0" stop-color="#fff"/><stop offset="1" stop-opacity=".792"/></linearGradient><linearGradient id="g"><stop offset="0" stop-color="#a6afb1"/><stop offset="1" stop-color="#c7cdcd"/></linearGradient><linearGradient id="d"><stop offset="0" stop-opacity=".125"/><stop offset="1" stop-color="#4bd865" stop-opacity="0"/></linearGradient><linearGradient id="c"><stop offset="0" stop-color="#80e493"/><stop offset="1" stop-color="#4bd865"/></linearGradient><linearGradient id="b"><stop offset="0" stop-color="#fff"/><stop offset="1" stop-color="#dadada"/></linearGradient><linearGradient id="e"><stop offset="0" stop-color="#bababa" stop-opacity=".957"/><stop offset=".17" stop-color="#fff" stop-opacity=".827"/><stop offset="1" stop-color="#fff"/></linearGradient><linearGradient id="f"><stop offset="0" stop-color="#c3c3c3"/><stop offset=".252" stop-color="#fff"/><stop offset="1" stop-color="#fff"/></linearGradient><linearGradient id="a"><stop offset="0" stop-color="#dadada"/><stop offset="1" stop-color="#fff"/></linearGradient></defs><g color="#000"><path d="M7 1v6H0v11h3l2-2h14l2.055 2H24V7h-7V1z" style="isolation:auto;mix-blend-mode:normal;marker:none" overflow="visible" fill-opacity=".122" paint-order="fill markers stroke"/><path style="isolation:auto;mix-blend-mode:normal;marker:none" d="M1 8v9h2l1-1h16l1 1h2V8zm15 1h1v1h1V9h3v2h-5zM5 10a1 1 0 0 1 1 1 1 1 0 0 1-1 1 1 1 0 0 1-1-1 1 1 0 0 1 1-1zm11 3h3v1h1v-1h1v2h-5z" display="block" overflow="visible" fill="#fff" fill-opacity=".776" paint-order="fill markers stroke"/><path d="M8 2h8v5H8zM6 17l-4.063 5H22l-4-5zm1 1h10v1H7zm-2 2h14.055L19 21H5z" style="isolation:auto;mix-blend-mode:normal;marker:none" overflow="visible" fill="#fff" fill-opacity=".776" paint-order="fill markers stroke"/></g></svg>