<svg xmlns="http://www.w3.org/2000/svg" xmlns:xlink="http://www.w3.org/1999/xlink" height="24" viewBox="0 0 24 24" width="24" enable-background="new"><title>Template icons dark</title><defs><linearGradient id="d"><stop offset="0" stop-color="#d4d4d4"/><stop offset="1" stop-color="#fbfbfb"/></linearGradient><linearGradient id="a"><stop offset="0" stop-color="#9a9a9a" stop-opacity=".973"/><stop offset="1" stop-color="#f4f4f4"/></linearGradient><linearGradient id="b"><stop offset="0" stop-color="#825cf4"/><stop offset="1" stop-color="#3958ef"/></linearGradient><linearGradient id="c"><stop offset="0" stop-color="#eaf2f7"/><stop offset="1" stop-color="#99b4c0"/></linearGradient><linearGradient gradientTransform="translate(-107.004 -107.235) scale(.23163)" xlink:href="#d" id="h" x1="276.22" y1="292" x2="276.22" y2="276.22" gradientUnits="userSpaceOnUse"/><linearGradient gradientTransform="matrix(.4746 0 0 .4746 -55.39 -57.534)" xlink:href="#b" id="g" x1="23.375" y1="41.2" x2="23.375" y2="13.95" gradientUnits="userSpaceOnUse"/><linearGradient xlink:href="#b" id="f" gradientUnits="userSpaceOnUse" x1="23.375" y1="41.2" x2="23.375" y2="13.95" gradientTransform="matrix(.4746 0 0 .4746 -47.788 -63.925)"/><filter id="e" x="-.021" width="1.042" y="-.028" height="1.055" color-interpolation-filters="sRGB"><feGaussianBlur stdDeviation=".423"/></filter></defs><g color="#000" transform="translate(56 56)"><rect style="isolation:auto;mix-blend-mode:normal;marker:none" width="44" height="30" x="-3.249" y="17.533" rx="0" ry="1.515" transform="scale(.4746) rotate(-9.77 -767.547 622.156)" overflow="visible" fill-opacity=".157" filter="url(#e)" enable-background="accumulate"/><rect transform="rotate(-9.77)" ry=".719" rx="0" y="-58.563" x="-46.23" height="14.238" width="20.883" style="isolation:auto;mix-blend-mode:normal;marker:none" overflow="visible" fill="#fff" stroke="#000" stroke-width=".246" stroke-opacity=".157" enable-background="accumulate"/><rect transform="rotate(-9.09)" style="isolation:auto;mix-blend-mode:normal;marker:none" width="19.933" height="13.289" x="-46.364" y="-57.66" ry="0" overflow="visible" fill="url(#f)" enable-background="accumulate"/><rect style="isolation:auto;mix-blend-mode:normal;marker:none" width="20.883" height="14.238" x="-54.441" y="-51.744" rx="0" ry=".719" overflow="visible" fill="#fff" stroke="#000" stroke-width=".246" stroke-opacity=".157" enable-background="accumulate"/><rect ry="0" y="-51.269" x="-53.967" height="13.289" width="19.933" style="isolation:auto;mix-blend-mode:normal;marker:none" overflow="visible" fill="url(#g)" enable-background="accumulate"/><path style="isolation:auto;mix-blend-mode:normal;marker:none" d="M-44.88-51.182c-.122 0-.19.097-.22.209l-.466 1.709c-.361.108-.707.25-1.034.427l-1.539-.885c-.1-.058-.216-.078-.303.008l-1.259 1.259c-.086.086-.066.201-.008.301l.87 1.522c-.187.336-.34.69-.453 1.058l-1.681.453c-.112.03-.208.099-.208.22v1.781c0 .122.096.19.208.22l1.644.448c.11.387.263.762.454 1.116l-.847 1.474c-.058.1-.078.217.008.304l1.26 1.259c.085.086.2.066.3.008l1.455-.833c.361.2.745.36 1.142.476l.436 1.621c.03.112.099.208.22.208h1.781c.122 0 .19-.096.22-.208l.442-1.622c.392-.116.77-.275 1.126-.474l1.47.845c.1.058.217.078.304-.008l1.259-1.26c.086-.085.066-.201.008-.302l-.853-1.488c.185-.347.333-.713.44-1.091l1.677-.453c.112-.03.208-.098.208-.22v-1.78c0-.122-.096-.19-.208-.22l-1.705-.464-.01-.03a5.462 5.462 0 0 0-.42-1.007l.884-1.538c.058-.1.078-.216-.008-.302l-1.259-1.26c-.086-.085-.202-.066-.303-.008l-1.535.88a5.464 5.464 0 0 0-1.035-.432l-.462-1.712c-.03-.112-.098-.208-.22-.208h-1.78zm.88 5.792c.773 0 1.39.617 1.39 1.39 0 .772-.617 1.39-1.39 1.39-.772 0-1.39-.618-1.39-1.39 0-.773.618-1.39 1.39-1.39z" overflow="visible" fill-opacity=".141" paint-order="fill markers stroke" enable-background="accumulate"/><path d="M-44.792-50.456c-.11 0-.17.087-.198.187l-.418 1.537a4.911 4.911 0 0 0-.93.384l-1.383-.796c-.09-.052-.195-.07-.272.007l-1.132 1.132c-.077.078-.06.18-.007.271l.782 1.368c-.169.302-.305.62-.407.951l-1.512.407c-.1.027-.187.089-.187.199v1.6c0 .11.087.17.187.198l1.479.402c.099.349.236.686.408 1.004l-.762 1.325c-.052.09-.07.195.007.273l1.132 1.132c.077.077.18.06.27.007l1.309-.749c.325.18.669.325 1.026.429l.392 1.457c.027.1.089.187.198.187h1.601c.11 0 .17-.087.197-.187l.398-1.459a4.969 4.969 0 0 0 1.012-.426l1.322.76c.09.052.195.07.273-.007l1.132-1.132c.077-.078.059-.182.007-.272l-.767-1.338c.167-.312.3-.641.397-.981l1.507-.407c.1-.027.187-.088.187-.198v-1.6c0-.11-.087-.171-.187-.199l-1.533-.416-.01-.026a4.911 4.911 0 0 0-.377-.906l.795-1.382c.052-.09.07-.195-.007-.272l-1.132-1.132c-.077-.078-.182-.06-.272-.008l-1.38.79a4.912 4.912 0 0 0-.93-.387l-.416-1.54c-.027-.1-.088-.186-.197-.186h-1.601zm.792 4.51c1.082 0 1.946.864 1.946 1.946A1.938 1.938 0 0 1-44-42.054 1.939 1.939 0 0 1-45.946-44c0-1.082.865-1.946 1.946-1.946z" style="isolation:auto;mix-blend-mode:normal;marker:none" overflow="visible" fill="url(#h)" paint-order="fill markers stroke" enable-background="accumulate"/></g></svg>