<svg xmlns="http://www.w3.org/2000/svg" xmlns:xlink="http://www.w3.org/1999/xlink" height="24" viewBox="0 0 24 24" width="24"><title>Template icons dark</title><defs><linearGradient id="g"><stop offset="0" stop-color="#1f97cf"/><stop offset="1" stop-color="#50b5e4"/></linearGradient><linearGradient id="f"><stop offset="0" stop-color="#62c8f7"/><stop offset="1" stop-color="#0ca3e8"/></linearGradient><linearGradient id="a"><stop offset="0" stop-color="#7ed6fb"/><stop offset="1" stop-color="#90ddfc"/></linearGradient><linearGradient id="b"><stop offset="0" stop-color="#7ed6fb"/><stop offset="1" stop-color="#8edcfc"/></linearGradient><linearGradient id="c"><stop offset="0" stop-color="#62c8f7"/><stop offset="1" stop-color="#36aaf2"/></linearGradient><linearGradient id="d"><stop offset="0" stop-color="#7ed6fb"/><stop offset="1" stop-color="#8fdcfc"/></linearGradient><linearGradient id="e"><stop offset="0" stop-color="#1581ce"/><stop offset="1" stop-color="#32a9e0"/></linearGradient><linearGradient y2="880.934" x2="165.724" y1="880.934" x1="138.929" gradientTransform="matrix(.3758 0 0 .3758 -106.598 -381.22)" gradientUnits="userSpaceOnUse" id="h" xlink:href="#a"/><linearGradient gradientTransform="matrix(.3758 0 0 .3758 -62.04 -421.48)" gradientUnits="userSpaceOnUse" y2="988.557" x2="56.624" y1="986.071" x1="70.711" id="i" xlink:href="#b"/><linearGradient gradientTransform="matrix(.3758 0 0 .3758 -62.04 -421.48)" gradientUnits="userSpaceOnUse" y2="1020.598" x2="57.452" y1="1022.255" x1="54.138" id="j" xlink:href="#c"/><linearGradient gradientTransform="matrix(.3758 0 0 .3758 -62.04 -421.48)" gradientUnits="userSpaceOnUse" y2="1008.997" x2="58.281" y1="1009.273" x1="72.644" id="k" xlink:href="#d"/><linearGradient gradientTransform="matrix(.3758 0 0 .3758 -62.04 -421.48)" gradientUnits="userSpaceOnUse" y2="1022.675" x2="44.922" y1="1020.149" x1="38.672" id="l" xlink:href="#e"/><linearGradient gradientTransform="matrix(.3758 0 0 .3758 -62.04 -421.48)" gradientUnits="userSpaceOnUse" y2="1009.393" x2="40.234" y1="1010.175" x1="23.438" id="m" xlink:href="#d"/></defs><path d="M7.238 1.487L.278 5.795l4.728 3.901L.28 13.598l4.728 2.926v1.56l6.976 4.343-.031-8.356.034 8.35 6.91-4.336v-1.519l4.824-2.99-4.762-3.874-.06.038v-.035l.013-.009-6.959-4.307-6.945 4.307L11.96 5.38l-.008.006 6.974 4.316 4.761-3.873-6.993-4.336-4.732 3.885z" fill="none" stroke="#000" stroke-width=".326" stroke-opacity=".209"/><path d="M11.952 5.39l6.959 4.306-6.912 4.336-6.993-4.336z" fill="#7ed6fb"/><path d="M-55.721-50.205l6.959-4.308 4.726 3.891-6.958 4.318z" fill="url(#h)" transform="translate(56 56)"/><path d="M-44.047-50.614l6.974 4.316 4.761-3.873-6.993-4.336z" fill="url(#i)" transform="translate(56 56)"/><path d="M11.952 5.39v7.39L5.04 17.118l-.034-7.42z" fill="#0ca4eb"/><path d="M11.952 5.39v7.39l6.912 4.337.033-7.42z" fill="#1c89bc"/><path d="M-37.103-46.304v8.389l-6.911 4.336-.034-8.417z" fill="url(#j)" transform="translate(56 56)"/><path d="M-44-41.99l6.958-4.308 4.762 3.873-6.993 4.336z" fill="url(#k)" transform="translate(56 56)"/><path d="M-50.994-46.304v8.389l6.977 4.342-.031-8.423z" fill="url(#l)" transform="translate(56 56)"/><path d="M-55.721-42.402l6.959 4.308 4.761-3.874-6.993-4.336z" fill="url(#m)" transform="translate(56 56)"/></svg>