<svg xmlns="http://www.w3.org/2000/svg" xmlns:xlink="http://www.w3.org/1999/xlink" height="24" viewBox="0 0 24 24" width="24"><title>Template icons dark</title><defs><linearGradient id="d"><stop offset="0" stop-color="#e6e223" stop-opacity="0"/><stop offset="1" stop-color="#f99500" stop-opacity=".598"/></linearGradient><linearGradient id="c"><stop offset="0" stop-color="#cdcdcd"/><stop offset="1" stop-color="#fff"/></linearGradient><linearGradient id="b"><stop offset="0" stop-color="#fff" stop-opacity=".427"/><stop offset=".423" stop-color="#fafcfe"/><stop offset="1" stop-color="#fff" stop-opacity=".49"/></linearGradient><linearGradient id="a"><stop offset="0" stop-color="#322461"/><stop offset="1" stop-color="#6d2fd8"/></linearGradient><linearGradient xlink:href="#a" id="e" x1="37.702" y1="34.889" x2="-2.538" y2="12.087" gradientUnits="userSpaceOnUse" gradientTransform="matrix(.55914 0 0 .55914 -56.58 -58.258)"/><linearGradient xlink:href="#d" id="f" gradientUnits="userSpaceOnUse" gradientTransform="matrix(.55914 0 0 .55914 -56.58 -58.258)" x1="25.908" y1="26.373" x2="3.094" y2="26.373"/><linearGradient gradientTransform="matrix(.25 0 0 .25 -84 -84)" xlink:href="#c" id="g" x1="161.772" y1="204" x2="161.772" y2="113" gradientUnits="userSpaceOnUse"/></defs><g color="#000"><path style="isolation:auto;mix-blend-mode:normal;marker:none" d="M24 12a12 12 0 0 1-12 12A12 12 0 0 1 0 12 12 12 0 0 1 12 0a12 12 0 0 1 12 12z" display="block" overflow="visible" fill-opacity=".058"/><path style="isolation:auto;mix-blend-mode:normal;marker:none" d="M-32.5-44A11.5 11.5 0 0 1-44-32.5 11.5 11.5 0 0 1-55.5-44 11.5 11.5 0 0 1-44-55.5 11.5 11.5 0 0 1-32.5-44z" display="block" overflow="visible" fill="url(#e)" transform="translate(56 56)"/><path d="M-32.5-44A11.5 11.5 0 0 1-44-32.5 11.5 11.5 0 0 1-55.5-44 11.5 11.5 0 0 1-44-55.5 11.5 11.5 0 0 1-32.5-44z" style="isolation:auto;mix-blend-mode:normal;marker:none" overflow="visible" fill="url(#f)" transform="translate(56 56)"/><path style="isolation:auto;mix-blend-mode:normal;marker:none" d="M1.845 7h20.312v2H1.845zM1.5 11h21v2h-21zM1.845 15h20.312v2H1.845z" display="block" overflow="visible" fill="#fff" fill-opacity=".574" paint-order="fill markers stroke"/><path style="isolation:auto;mix-blend-mode:normal;marker:none" d="M22.521 12.28A10.521 10.521 0 0 1 12 22.802 10.521 10.521 0 0 1 1.479 12.28 10.521 10.521 0 0 1 12 1.76 10.521 10.521 0 0 1 22.521 12.28z" overflow="visible" fill="none" stroke="#050505" stroke-width=".42" stroke-linejoin="round" stroke-opacity=".458"/><path style="isolation:auto;mix-blend-mode:normal;marker:none" d="M-32.999-44A11.001 11.001 0 0 1-44-32.999 11.001 11.001 0 0 1-55.001-44 11.001 11.001 0 0 1-44-55.001 11.001 11.001 0 0 1-32.999-44z" overflow="visible" fill="none" stroke="url(#g)" stroke-width=".997" stroke-linejoin="round" transform="translate(56 56)"/></g></svg>