<svg xmlns="http://www.w3.org/2000/svg" height="24" viewBox="0 0 24 24" width="24"><title>Template icons dark</title><defs><linearGradient id="j"><stop offset="0" stop-color="#030303" stop-opacity=".151"/><stop offset="1" stop-color="#030303" stop-opacity=".161"/></linearGradient><linearGradient id="h"><stop offset="0" stop-color="#030303" stop-opacity=".203"/><stop offset="1" stop-color="#030303" stop-opacity=".161"/></linearGradient><linearGradient id="i"><stop offset="0" stop-opacity="0"/><stop offset="1" stop-opacity=".094"/></linearGradient><linearGradient id="g"><stop offset="0" stop-opacity="0"/><stop offset="1" stop-opacity=".052"/></linearGradient><linearGradient id="f"><stop offset="0" stop-color="#e6e6e6"/><stop offset="1" stop-color="#fff"/></linearGradient><linearGradient id="e"><stop offset="0" stop-color="#030303" stop-opacity=".135"/><stop offset=".402" stop-color="#030303" stop-opacity=".25"/><stop offset="1" stop-color="#030303" stop-opacity="0"/></linearGradient><linearGradient id="d"><stop offset="0" stop-opacity=".078"/><stop offset="1" stop-opacity="0"/></linearGradient><linearGradient id="c"><stop offset="0" stop-color="#fff"/><stop offset="1" stop-color="#e7e7e7"/></linearGradient><linearGradient id="b"><stop offset="0" stop-color="#030303" stop-opacity=".078"/><stop offset="1" stop-color="#030303" stop-opacity=".161"/></linearGradient><linearGradient id="a"><stop offset="0" stop-color="#030303" stop-opacity=".182"/><stop offset="1" stop-color="#030303" stop-opacity="0"/></linearGradient></defs><path d="M1 4h22v15H1z" style="isolation:auto;mix-blend-mode:normal;marker:none" color="#000" overflow="visible" fill-opacity=".078" paint-order="fill markers stroke"/><path style="isolation:auto;mix-blend-mode:normal;marker:none" d="M2 5h20v13H2z" color="#000" overflow="visible" fill="#d2d2d2" paint-order="fill markers stroke"/><path style="isolation:auto;mix-blend-mode:normal;marker:none" d="M2.042 18.042h20l-10-9.008z" color="#000" overflow="visible" fill-opacity=".177" paint-order="fill markers stroke"/><path d="M2.042 18.042h20l-10-7.008z" style="isolation:auto;mix-blend-mode:normal;marker:none" color="#000" overflow="visible" fill="#fff" fill-opacity=".99" paint-order="fill markers stroke"/><path d="M2.042 5.034h20l-10 10.008z" style="isolation:auto;mix-blend-mode:normal;marker:none" color="#000" overflow="visible" fill-opacity=".313" paint-order="fill markers stroke"/><path style="isolation:auto;mix-blend-mode:normal;marker:none" d="M2.042 5.034h20l-10 8.008z" color="#000" overflow="visible" fill="#fff" fill-opacity=".99" paint-order="fill markers stroke"/><path d="M6.77 5.033l-4.728.001V6.49l.183-.365v-.082h4.18zm5.818 0l-2.182.001-.364 1.008h2.18zm7.818 0l-4.182.001-.364 1.008h4.18zm1.638 1.009l-.982.364-.001 3.356.983-.366zM3.024 11.58l-.98.363-.002 2.182.983-.365zm19.02 1.454l-.982.364-.001 3.182.983-.365zM2.588 17.07l-.364.964h4.18l.365-.964zm7.818 0l-.364.964h2.18l.366-.964zm5.818 0l-.364.964h3.18l.366-.964z" opacity=".523" fill="#5477b0" fill-rule="evenodd"/><path d="M9.678 5.033l-2.181.001-.364 1.008h2.18zm5.819 0l-2.182.001-.364 1.008h2.18zm6.545 0l-.909.001-.364 1.008h.908zM3.025 6.67l-.981.363-.002 4.182.983-.365zm19.019 3.454l-.982.364-.001 2.182.983-.365zM3.024 14.49l-.98.363-.002 3.182.983-1.147zm19.02 2.454l-.982-.418v.544l.071.001-.364.964h1.273zm-14.547.127l-.364.964h2.182l.363-.964zm5.818 0l-.364.964h2.182l.364-.964z" opacity=".523" fill="#b05457" fill-rule="evenodd"/></svg>