<svg xmlns="http://www.w3.org/2000/svg" xmlns:xlink="http://www.w3.org/1999/xlink" height="24" viewBox="0 0 24 24" width="24"><title>Template icons dark</title><defs><linearGradient id="d"><stop offset="0" stop-color="#fff" stop-opacity=".456"/><stop offset="1" stop-color="#fff" stop-opacity="0"/></linearGradient><linearGradient id="c"><stop offset="0" stop-color="#c7c7c7"/><stop offset="1" stop-color="#fff" stop-opacity=".989"/></linearGradient><linearGradient id="b"><stop offset="0" stop-color="#a61f23"/><stop offset="1" stop-color="#ff4955"/></linearGradient><linearGradient id="a"><stop offset="0" stop-color="#88c1df"/><stop offset="1" stop-color="#f0f5f8"/></linearGradient><linearGradient xlink:href="#b" id="h" gradientUnits="userSpaceOnUse" gradientTransform="matrix(.49219 0 0 .49219 -122.627 -122.69)" x1="165.921" y1="192" x2="159" y2="147.661"/><linearGradient xlink:href="#a" id="e" x1="170" y1="186" x2="170" y2="118" gradientUnits="userSpaceOnUse" gradientTransform="matrix(.2603 0 0 .2603 -86.008 -86.265)"/><radialGradient xlink:href="#d" id="g" gradientUnits="userSpaceOnUse" gradientTransform="matrix(.14694 0 0 .11374 -68.738 -63.59)" cx="105.669" cy="162.232" fx="105.669" fy="162.232" r="45.374"/><radialGradient xlink:href="#d" id="f" cx="191" cy="155.342" fx="191" fy="155.342" r="45.374" gradientTransform="matrix(.19523 0 0 .15112 -73.84 -69.654)" gradientUnits="userSpaceOnUse"/></defs><path d="M12.243.387a6.788 6.788 0 0 0-6.494 4.82 6.788 6.788 0 0 0-5.577 6.676 6.788 6.788 0 0 0 2.743 5.44 5.141 5.141 0 0 0 3.477 1.348h11.014c.952 0 1.84-.26 2.604-.705a6.788 6.788 0 0 0 3.783-6.083 6.788 6.788 0 0 0-5.016-6.545A6.788 6.788 0 0 0 12.243.387z" style="isolation:auto;mix-blend-mode:normal;marker:none" color="#000" display="block" overflow="visible" fill="none" stroke="#000" stroke-width=".378" stroke-linecap="round" stroke-opacity=".066" paint-order="markers stroke fill"/><path style="isolation:auto;mix-blend-mode:normal;marker:none" d="M-43.757-55.874a6.788 6.788 0 0 0-6.494 4.82 6.788 6.788 0 0 0-5.577 6.676 6.788 6.788 0 0 0 2.743 5.442 5.141 5.141 0 0 0 3.477 1.346h11.014c.952 0 1.84-.259 2.604-.705a6.788 6.788 0 0 0 3.783-6.083 6.788 6.788 0 0 0-5.016-6.544 6.788 6.788 0 0 0-6.534-4.952z" color="#000" overflow="visible" fill="url(#e)" paint-order="markers stroke fill" transform="translate(56 56)"/><path style="isolation:auto;mix-blend-mode:normal;marker:none" d="M.185 11.347a6.788 6.788 0 0 0-.013.275 6.788 6.788 0 0 0 2.743 5.442 5.141 5.141 0 0 0 3.477 1.346h11.014c.952 0 1.84-.259 2.604-.705a6.788 6.788 0 0 0 3.783-6.083 6.788 6.788 0 0 0-.012-.247 6.788 6.788 0 0 1-3.771 5.81 5.148 5.148 0 0 1-2.604.705H6.392a5.141 5.141 0 0 1-3.477-1.347 6.788 6.788 0 0 1-2.73-5.196z" color="#000" overflow="visible" fill="#365a83" fill-opacity=".22" paint-order="markers stroke fill"/><path d="M-43.757-55.874a6.788 6.788 0 0 0-6.494 4.82 6.788 6.788 0 0 0-5.577 6.676 6.788 6.788 0 0 0 2.743 5.442 5.141 5.141 0 0 0 3.477 1.346h11.014c.952 0 1.84-.259 2.604-.705a6.788 6.788 0 0 0 3.783-6.083 6.788 6.788 0 0 0-5.016-6.544 6.788 6.788 0 0 0-6.534-4.952z" style="isolation:auto;mix-blend-mode:normal;marker:none" color="#000" overflow="visible" fill="url(#f)" paint-order="markers stroke fill" transform="translate(56 56)"/><path style="isolation:auto;mix-blend-mode:normal;marker:none" d="M-43.757-55.874a6.788 6.788 0 0 0-6.494 4.82 6.788 6.788 0 0 0-5.577 6.676 6.788 6.788 0 0 0 2.743 5.442 5.141 5.141 0 0 0 3.477 1.346h11.014c.952 0 1.84-.259 2.604-.705a6.788 6.788 0 0 0 3.783-6.083 6.788 6.788 0 0 0-5.016-6.544 6.788 6.788 0 0 0-6.534-4.952z" color="#000" overflow="visible" fill="url(#g)" paint-order="markers stroke fill" transform="translate(56 56)"/><path d="M12.214 4.892a1.49 1.49 0 0 0-1.142.558l-7.056 9.359c-.26.529-.055 1.058.685 1.058h5.145l1.693 6.898c.024.65.263 1.177.591 1.177.328 0 .568-.527.592-1.177l1.693-6.898h5.18c.736 0 .736-1 .547-1.251l-6.838-9.164a1.346 1.346 0 0 0-1.09-.56z" style="isolation:auto;mix-blend-mode:normal;marker:none" color="#000" overflow="visible" fill-opacity=".176" paint-order="markers stroke fill"/><path style="isolation:auto;mix-blend-mode:normal;marker:none" d="M-43.786-52.166a1.49 1.49 0 0 0-1.142.557l-7.056 9.36c-.26.529-.055 1.058.685 1.058h5.145l1.693 6.897c.024.651.263 1.178.591 1.178.328 0 .568-.527.592-1.178l1.693-6.897h5.18c.736 0 .736-1.001.547-1.251l-6.838-9.165a1.346 1.346 0 0 0-1.09-.56z" color="#000" overflow="visible" fill="url(#h)" paint-order="markers stroke fill" transform="translate(56 56)"/><path d="M15.687 9.227h-4.892l.255-1.195h2.982l.274-1.285H10.02L8.67 13.11h1.295l.593-2.78h3.106L10.965 13l.474.84c.219-.146.575-.164.82-.164.439 0 .867.146 1.314.146.41 0 .829-.028 1.513-.356l.239-1.122c-.465.192-1.154.374-1.752.374-.246 0-.474-.054-.711-.09l2.616-2.545.21-.857z" fill="#fff"/></svg>