<svg xmlns="http://www.w3.org/2000/svg" xmlns:xlink="http://www.w3.org/1999/xlink" height="24" viewBox="0 0 24 24" width="24"><title>Template icons dark</title><defs><linearGradient id="j"><stop offset="0" stop-color="#fff" stop-opacity=".194"/><stop offset=".043" stop-color="#fff" stop-opacity=".183"/><stop offset=".11" stop-color="#fff" stop-opacity=".262"/><stop offset=".139" stop-color="#fff" stop-opacity=".12"/><stop offset=".473" stop-color="#fff" stop-opacity=".136"/><stop offset=".517" stop-color="#fff" stop-opacity=".288"/><stop offset=".553" stop-color="#fff" stop-opacity=".173"/><stop offset="1" stop-color="#fff" stop-opacity=".11"/></linearGradient><linearGradient id="f"><stop offset="0" stop-opacity=".529"/><stop offset="1" stop-color="#6a062f" stop-opacity="0"/></linearGradient><linearGradient id="h"><stop offset="0" stop-opacity=".56"/><stop offset="1" stop-color="#6a062f" stop-opacity="0"/></linearGradient><linearGradient id="i"><stop offset="0" stop-opacity=".529"/><stop offset="1" stop-color="#6a062f" stop-opacity="0"/></linearGradient><linearGradient id="g"><stop offset="0" stop-opacity=".445"/><stop offset="1" stop-color="#6a062f" stop-opacity="0"/></linearGradient><linearGradient id="b"><stop offset="0" stop-color="#cfdde2"/><stop offset="1" stop-color="#90a1b1"/></linearGradient><linearGradient id="c"><stop offset="0" stop-color="#eaf2f7"/><stop offset="1" stop-color="#99b4c0"/></linearGradient><linearGradient id="d"><stop offset="0" stop-color="#f95e86"/><stop offset="1" stop-color="#613ef5"/></linearGradient><linearGradient id="a"><stop offset="0" stop-color="#7a0b1c"/><stop offset="1" stop-color="#e82895"/></linearGradient><linearGradient id="e"><stop offset="0" stop-color="#fff" stop-opacity="0"/><stop offset=".48" stop-color="#fff"/><stop offset="1" stop-color="#f5f6f6" stop-opacity="0"/></linearGradient><linearGradient xlink:href="#b" id="k" gradientUnits="userSpaceOnUse" gradientTransform="translate(-68.842 -69.14) scale(.17197)" x1="161.702" y1="118.898" x2="161.702" y2="197.932"/></defs><g color="#000"><path style="isolation:auto;mix-blend-mode:normal;marker:none" d="M13.724 6.636c-.131 0-.205.104-.237.224l-.504 1.854c-.345.123-.797.295-1.101.454l-1.669-.96c-.108-.062-.233-.084-.326.01L8.53 9.573c-.093.093-.071.217-.01.325l.938 1.64a5.955 5.955 0 0 0-.488 1.14l-1.812.488c-.12.032-.224.106-.224.237v1.92c0 .131.104.203.224.236l1.773.483c.118.417.282.82.489 1.203l-.914 1.588c-.062.108-.084.234.01.327l1.356 1.357c.093.093.217.07.325.009l1.568-.898c.39.217.802.389 1.23.513l.47 1.747c.033.12.106.224.238.224h1.919c.131 0 .203-.104.236-.224l.476-1.748c.422-.125.83-.296 1.214-.51l1.585.91c.108.063.233.084.326-.009l1.357-1.357c.093-.092.071-.218.01-.326l-.92-1.603c.2-.375.36-.769.475-1.177l1.807-.488c.12-.032.224-.105.224-.236v-1.92c0-.13-.104-.204-.224-.237l-1.837-.498a5.955 5.955 0 0 0-.469-1.112l.958-1.663c.062-.108.084-.234-.01-.326l-1.356-1.357c-.093-.093-.218-.072-.327-.01l-1.667.955c-.367-.15-.752-.337-1.095-.448l-.506-1.869c-.032-.12-.104-.224-.236-.224h-1.919zm.95 4.915a2.83 2.83 0 1 1 0 5.662 2.83 2.83 0 0 1 0-5.662z" overflow="visible" fill="none" stroke="#000" stroke-width=".494" stroke-opacity=".168" paint-order="fill markers stroke"/><path d="M-42.276-49.364c-.131 0-.205.104-.237.224l-.504 1.854c-.345.123-.797.295-1.101.454l-1.669-.96c-.108-.062-.233-.084-.326.01l-1.357 1.356c-.093.093-.071.217-.01.325l.938 1.64a5.955 5.955 0 0 0-.488 1.14l-1.812.488c-.12.032-.224.106-.224.237v1.92c0 .131.104.203.224.236l1.773.483c.118.417.282.82.489 1.203l-.914 1.588c-.062.108-.084.234.01.327l1.356 1.357c.093.093.217.07.325.009l1.568-.898c.39.217.802.389 1.23.513l.47 1.747c.033.12.106.224.238.224h1.919c.131 0 .203-.104.236-.224l.476-1.748c.422-.125.83-.296 1.214-.51l1.585.91c.108.063.233.084.326-.009l1.357-1.357c.093-.092.071-.218.01-.326l-.92-1.603c.2-.375.36-.769.475-1.177l1.807-.488c.12-.032.224-.105.224-.236v-1.92c0-.13-.104-.204-.224-.237l-1.837-.498a5.955 5.955 0 0 0-.469-1.112l.958-1.663c.062-.108.084-.234-.01-.326l-1.356-1.357c-.093-.093-.218-.072-.327-.01l-1.667.955c-.367-.15-.752-.337-1.095-.448l-.506-1.869c-.032-.12-.104-.224-.236-.224h-1.919zm.95 4.915a2.83 2.83 0 1 1 0 5.662 2.83 2.83 0 0 1 0-5.662z" style="isolation:auto;mix-blend-mode:normal;marker:none" overflow="visible" fill="url(#k)" paint-order="fill markers stroke" transform="translate(56 56)"/><path style="isolation:auto;mix-blend-mode:normal;marker:none" d="M1 0v22h6v-8h4V8H7V6h7V0z" overflow="visible" fill-opacity=".178" fill-rule="evenodd" paint-order="markers fill stroke"/><path d="M2 1l.102 20H6v-8h4l.079-4H6V5h7V1z" style="isolation:auto;mix-blend-mode:normal;marker:none" overflow="visible" fill="#f00e55" fill-rule="evenodd" paint-order="markers fill stroke"/></g></svg>