<svg xmlns="http://www.w3.org/2000/svg" xmlns:xlink="http://www.w3.org/1999/xlink" width="24" viewBox="0 0 24 24" height="24"><title>Template icons dark</title><defs><linearGradient id="b"><stop offset="0" stop-color="#d6c8ee"/><stop offset="1" stop-color="#aad1f7"/></linearGradient><linearGradient id="a"><stop offset="0" stop-color="#5d8afc"/><stop offset="1" stop-color="#aa88d1"/></linearGradient><linearGradient gradientTransform="matrix(.2647 0 0 .2647 -86.245 -86.391)" xlink:href="#a" id="i" x1="188.825" y1="190.844" x2="130.018" y2="127.876" gradientUnits="userSpaceOnUse"/><radialGradient gradientTransform="matrix(.06522 -.0039 .00381 .06372 -97.9 -56.391)" gradientUnits="userSpaceOnUse" id="c" r="776.623" fy="3474.059" fx="3838.903" cy="3474.059" cx="3838.903"><stop offset="0%" stop-color="#444367"/><stop offset="44.511%" stop-color="#29253B"/><stop offset="1" stop-color="#1f2032"/></radialGradient><radialGradient gradientTransform="matrix(.06522 -.0039 .00381 .06372 -97.9 -56.391)" gradientUnits="userSpaceOnUse" id="d" r="776.623" fy="3474.059" fx="3838.903" cy="3474.059" cx="3838.903"><stop offset="0%" stop-color="#444367"/><stop offset="44.511%" stop-color="#29253B"/><stop offset="1" stop-color="#1f2032"/></radialGradient><radialGradient gradientTransform="matrix(.06522 -.0039 .00381 .06372 -97.9 -56.391)" gradientUnits="userSpaceOnUse" id="e" r="776.623" fy="3474.059" fx="3838.903" cy="3474.059" cx="3838.903"><stop offset="0%" stop-color="#444367"/><stop offset="44.511%" stop-color="#29253B"/><stop offset="1" stop-color="#1f2032"/></radialGradient><radialGradient gradientTransform="matrix(.06522 -.0039 .00381 .06372 -97.9 -56.391)" gradientUnits="userSpaceOnUse" id="f" r="776.623" fy="3474.059" fx="3838.903" cy="3474.059" cx="3838.903"><stop offset="0%" stop-color="#444367"/><stop offset="44.511%" stop-color="#29253B"/><stop offset="1" stop-color="#1f2032"/></radialGradient><radialGradient gradientTransform="matrix(.06522 -.0039 .00381 .06372 -97.9 -56.391)" gradientUnits="userSpaceOnUse" id="g" r="776.623" fy="3474.059" fx="3838.903" cy="3474.059" cx="3838.903"><stop offset="0%" stop-color="#444367"/><stop offset="44.511%" stop-color="#29253B"/><stop offset="1" stop-color="#1f2032"/></radialGradient><radialGradient xlink:href="#d" id="h" cx="-42.07" cy="-46.399" fx="-42.07" fy="-46.399" r="10.424" gradientTransform="matrix(1.62421 0 0 1.42922 26.143 19.623)" gradientUnits="userSpaceOnUse"/></defs><path style="isolation:auto;mix-blend-mode:normal;marker:none" d="M-43.982-32.522c-1.148 0-9.367-4.745-9.94-5.74-.574-.993-.574-10.483 0-11.477.573-.994 8.792-5.74 9.94-5.74 1.148 0 9.366 4.746 9.94 5.74.574.994.574 10.484 0 11.478-.574.994-8.792 5.739-9.94 5.739z" color="#000" overflow="visible" fill="url(#h)" stroke="url(#i)" stroke-width="1.043" transform="translate(56 56)"/><path d="M1.91 12.542V6.164L12.018.328l10.108 5.836z" style="isolation:auto;mix-blend-mode:normal;marker:none" color="#000" overflow="visible" fill="#fff" fill-opacity=".089"/><path style="line-height:1000%;-inkscape-font-specification:orya" d="M15.091 15.847v-3.109h-2.559v-1.287h4.11v4.97q-.907.644-2 .977-1.094.326-2.334.326-2.714 0-4.25-1.582-1.527-1.59-1.527-4.42 0-2.838 1.527-4.42 1.536-1.59 4.25-1.59 1.132 0 2.148.28 1.023.279 1.884.822V8.48q-.869-.737-1.846-1.109Q13.517 7 12.44 7q-2.124 0-3.194 1.186-1.063 1.187-1.063 3.536 0 2.342 1.063 3.528 1.07 1.187 3.194 1.187.83 0 1.481-.14.652-.147 1.171-.45z" font-weight="400" font-family="orya" letter-spacing="0" word-spacing="0" fill="#cacaf0"/></svg>