<svg xmlns="http://www.w3.org/2000/svg" height="24" viewBox="0 0 24 24" width="24"><title>Template icons dark</title><defs><linearGradient id="a"><stop offset="0" stop-color="#4ceb78"/><stop offset="1" stop-color="#2ec43e"/></linearGradient><linearGradient id="b"><stop offset="0" stop-color="#e12850"/><stop offset="1" stop-color="#ff2e62"/></linearGradient><linearGradient id="c"><stop offset="0" stop-color="#ffa300"/><stop offset="1" stop-color="#ffcf46"/></linearGradient></defs><g fill-rule="evenodd"><path d="M13.026 1.035c-6.638 0-12.02 5.374-12.02 12.003 0 5.99 4.372 10.971 10.975 10.96C18.619 23.986 24 18.624 24 11.994c0-2.882-1.018-5.528-2.714-7.597-2.204-2.69-4.509-3.362-8.26-3.362zm-1.118 7.51a3.463 3.463 0 0 1 3.466 3.46c0 1.911-1.85 3.731-3.763 3.731-1.914 0-4.034-1.82-4.034-3.73 0-1.912 2.499-3.705 4.331-3.461z" fill="#ffc130"/><path d="M12.022 0C7.588 0 3.717 2.4 1.634 5.969l7.51 8.075a3.339 3.339 0 0 1-.66-2.03 3.46 3.46 0 0 1 3.195-3.447l11.172-1.764A12.001 12.001 0 0 0 12.021 0z" fill="#ef2b58"/><path d="M1.33 17.488c2.026 3.94 5.9 6.392 10.062 6.502l2.872-9.403c-.218.194-.46.367-.732.507a3.466 3.466 0 0 1-4.53-1.263l-6.56-9.07A11.965 11.965 0 0 0 1.33 17.488z" fill="#3cd65a"/><path d="M2.403 4.68l6.277 6.146s-.27.796-.195 1.648c.038.438.446 1.243.446 1.243zM22.85 6.815l-8.371 2.818s-.612-.603-1.123-.804c-.835-.327-1.448-.284-1.448-.284zM11.394 24l.948-8.524s.7-.134 1.02-.281c.33-.151.903-.607.903-.607z" fill-opacity=".298"/></g></svg>