<svg xmlns="http://www.w3.org/2000/svg" xmlns:xlink="http://www.w3.org/1999/xlink" height="24" viewBox="0 0 24 24" width="24"><title>Template icons dark</title><defs><linearGradient id="j"><stop offset="0" stop-color="#fff" stop-opacity=".852"/><stop offset="1" stop-color="#fff" stop-opacity="0"/></linearGradient><linearGradient id="i"><stop offset="0" stop-color="#fff" stop-opacity=".56"/><stop offset="1" stop-color="#fff" stop-opacity="0"/></linearGradient><linearGradient id="h"><stop offset="0" stop-color="#28263e"/><stop offset="1" stop-color="#494b5a"/></linearGradient><linearGradient id="g"><stop offset="0" stop-color="#4abecb"/><stop offset=".505" stop-color="#60d9b6" stop-opacity=".989"/><stop offset="1" stop-color="#dff48b" stop-opacity=".973"/></linearGradient><linearGradient id="f"><stop offset="0" stop-color="#2aa591"/><stop offset="1" stop-color="#2498e4"/></linearGradient><linearGradient id="a"><stop offset="0" stop-color="#2a0ff3" stop-opacity=".132"/><stop offset=".521" stop-color="#3bf963" stop-opacity=".291"/><stop offset="1" stop-color="#ef4cff" stop-opacity=".297"/></linearGradient><linearGradient id="b"><stop offset="0" stop-color="#fff"/><stop offset="1" stop-color="#fff" stop-opacity="0"/></linearGradient><linearGradient id="c"><stop offset="0"/><stop offset="1" stop-opacity="0"/></linearGradient><linearGradient id="d"><stop offset="0" stop-color="#babdb6"/><stop offset="1" stop-color="#fff"/></linearGradient><linearGradient id="e"><stop offset="0" stop-color="#888a85"/><stop offset="1" stop-color="#555753"/></linearGradient><linearGradient xlink:href="#g" id="l" x1="167.206" y1="193.417" x2="165.746" y2="132.007" gradientUnits="userSpaceOnUse" gradientTransform="rotate(-45 -102.364 98.771) scale(.2467)"/><linearGradient gradientTransform="scale(.30481) rotate(-45 -357.163 376.02)" xlink:href="#h" id="k" x1="153.065" y1="190.903" x2="153.065" y2="125.679" gradientUnits="userSpaceOnUse"/></defs><g color="#000"><path style="isolation:auto;mix-blend-mode:normal;marker:none" d="M17.316 2.004l5.986 10.37-5.74 9.94H6.086l-5.74-9.94L6.38 2.003z" display="block" overflow="visible" fill="none" stroke="#000" stroke-width=".6" stroke-opacity=".33" paint-order="fill markers stroke"/><path style="isolation:auto;mix-blend-mode:normal;marker:none" d="M-38.684-53.996l5.986 10.37-5.74 9.94h-11.477l-5.74-9.94 6.034-10.37z" display="block" overflow="visible" fill="url(#k)" paint-order="fill markers stroke" transform="translate(56 56)"/><path style="isolation:auto;mix-blend-mode:normal;marker:none" d="M.561 9.35l.55-4.033a.508.508 0 0 1 .573-.435l4.033.55c.28.038.435.573.149.79L1.282 9.715c-.285.208-.759-.085-.72-.365z" display="block" overflow="visible" fill-opacity=".297" paint-order="fill markers stroke"/><path d="M-48.965-51.92l-4.501 8.293 4.645 8.046h9.29l4.644-8.046-4.535-8.292zm2.206 4.01h4.95l2.476 4.287-2.475 4.288h-4.951l-2.476-4.288z" style="isolation:auto;mix-blend-mode:normal;marker:none" display="block" overflow="visible" fill="url(#l)" paint-order="fill markers stroke" transform="translate(56 56)"/><path d="M12.717 10.552l1.066 1.847-1.066 1.847h-2.133L9.517 12.4l1.067-1.847z" style="isolation:auto;mix-blend-mode:normal;marker:none" display="block" overflow="visible" fill-opacity=".467" paint-order="fill markers stroke"/><path d="M.497 8.846l.55-4.033a.508.508 0 0 1 .573-.436l4.033.55c.28.038.435.573.149.79L1.218 9.212c-.286.207-.759-.086-.72-.365z" style="isolation:auto;mix-blend-mode:normal;marker:none" display="block" overflow="visible" fill="#d0ec8c" paint-order="fill markers stroke"/><path d="M5.853 18.445l-4.058.753a.515.515 0 0 1-.6-.413L.44 14.727c-.052-.28.413-.601.714-.395l4.82 3.303c.291.209.16.758-.122.81z" style="isolation:auto;mix-blend-mode:normal;marker:none" display="block" overflow="visible" fill-opacity=".379" paint-order="fill markers stroke"/><path style="isolation:auto;mix-blend-mode:normal;marker:none" d="M5.862 17.922l-4.058.753a.515.515 0 0 1-.601-.413L.45 14.205c-.053-.281.413-.602.713-.395l4.821 3.302c.291.209.16.758-.122.81z" display="block" overflow="visible" fill="#7bddab" paint-order="fill markers stroke"/><path d="M15.858 20.838l-3.592 2.466a.544.544 0 0 1-.757-.141L9.043 19.57c-.17-.248.14-.757.52-.686l6.067 1.12c.37.077.477.663.228.834z" style="isolation:auto;mix-blend-mode:normal;marker:none" display="block" overflow="visible" fill-opacity=".593" paint-order="fill markers stroke"/><path style="isolation:auto;mix-blend-mode:normal;marker:none" d="M16 20.077l-3.593 2.466a.544.544 0 0 1-.757-.14L9.184 18.81c-.17-.25.141-.758.52-.687l6.067 1.12c.37.077.478.664.229.834z" display="block" overflow="visible" fill="#fff" paint-order="fill markers stroke"/><path d="M14.571 14.571l-.691 2.58a.333.333 0 0 1-.409.236l-2.58-.692c-.178-.047-.236-.408-.031-.526l3.272-1.895c.203-.112.487.118.439.297z" style="isolation:auto;mix-blend-mode:normal;marker:none" display="block" overflow="visible" fill="#fefdf8" paint-order="fill markers stroke"/><path style="isolation:auto;mix-blend-mode:normal;marker:none" d="M8.99 2.265L12.236.39a.468.468 0 0 1 .64.172l1.875 3.247c.13.225-.172.64-.492.554L9.13 2.996c-.312-.09-.365-.601-.14-.731z" display="block" overflow="visible" fill-opacity=".264" paint-order="fill markers stroke"/><path d="M8.8 1.938L12.049.063a.468.468 0 0 1 .64.172l1.875 3.247c.13.225-.172.64-.492.555l-5.13-1.368c-.312-.09-.365-.601-.14-.731z" style="isolation:auto;mix-blend-mode:normal;marker:none" display="block" overflow="visible" fill="#b6e895" paint-order="fill markers stroke"/><path d="M18.244 3.133l4.524 2.612c.314.18.42.579.24.892l-2.613 4.524c-.18.314-.892.24-1.011-.207L17.46 3.812c-.108-.44.47-.86.784-.679z" style="isolation:auto;mix-blend-mode:normal;marker:none" display="block" overflow="visible" fill-opacity=".264" paint-order="fill markers stroke"/><path style="isolation:auto;mix-blend-mode:normal;marker:none" d="M18.507 2.678l4.524 2.612c.314.18.42.578.24.892l-2.613 4.524c-.18.313-.892.239-1.011-.207l-1.924-7.143c-.108-.44.47-.86.784-.678z" display="block" overflow="visible" fill="#60d7b5" paint-order="fill markers stroke"/><path style="isolation:auto;mix-blend-mode:normal;marker:none" d="M12 12v1h-1v-1z" display="block" overflow="visible" fill="#bde993" fill-opacity=".648" paint-order="fill markers stroke"/></g></svg>