<svg xmlns="http://www.w3.org/2000/svg" xmlns:xlink="http://www.w3.org/1999/xlink" height="24" viewBox="0 0 24 24" width="24"><title>Template icons dark</title><defs><linearGradient id="h"><stop offset="0" stop-color="#2b364a"/><stop offset="1" stop-color="#3a4964"/></linearGradient><linearGradient id="g"><stop offset="0" stop-color="#fff"/><stop offset="1" stop-color="#e1eef4"/></linearGradient><linearGradient id="f"><stop offset="0" stop-color="#fff"/><stop offset="1" stop-color="#dfdfdf" stop-opacity=".984"/></linearGradient><linearGradient id="e"><stop offset="0" stop-color="#009fe8" stop-opacity=".995"/><stop offset="1" stop-color="#0b7ac5" stop-opacity=".995"/></linearGradient><linearGradient id="d"><stop offset="0" stop-color="#d6dee0"/><stop offset="1" stop-color="#fff" stop-opacity=".474"/></linearGradient><linearGradient id="c"><stop offset="0" stop-color="#403d60" stop-opacity=".396"/><stop offset="1" stop-opacity=".073"/></linearGradient><linearGradient id="a"><stop offset="0" stop-color="#c9cfd1"/><stop offset="1" stop-color="#fff"/></linearGradient><linearGradient id="b"><stop offset="0" stop-color="#dce1e8"/><stop offset="1" stop-color="#fff"/></linearGradient><linearGradient xlink:href="#b" id="m" gradientUnits="userSpaceOnUse" gradientTransform="matrix(.61256 0 0 .61256 303.74 90.374)" x1="-578.647" y1="-204.784" x2="-578.647" y2="-214.622"/><linearGradient xlink:href="#f" id="l" x1="180" y1="177" x2="180" y2="183.78" gradientUnits="userSpaceOnUse" gradientTransform="matrix(.2849 0 0 .2849 -90.306 -88.459)"/><linearGradient gradientTransform="matrix(.2849 0 0 .2849 -90.306 -89.029)" xlink:href="#h" id="k" x1="181" y1="140" x2="198" y2="122.126" gradientUnits="userSpaceOnUse"/><linearGradient gradientTransform="matrix(.2849 0 0 .2849 -90.306 -89.029)" xlink:href="#e" id="j" x1="200.559" y1="193" x2="125" y2="123.315" gradientUnits="userSpaceOnUse"/><linearGradient gradientTransform="matrix(.2849 0 0 .2849 -90.306 -89.029)" xlink:href="#g" id="i" x1="133" y1="181" x2="191.252" y2="127" gradientUnits="userSpaceOnUse"/></defs><path style="isolation:auto;mix-blend-mode:normal;marker:none" d="M.044.038v23.589h24v-8.793l-1.935-1.71h-.005V7.713l1.075-.855V1.301H16.69l-.854.83h-5.129L9.284.04V.038z" color="#000" display="block" overflow="visible" fill="#03070a" fill-opacity=".095"/><path style="isolation:auto;mix-blend-mode:normal;marker:none" d="M-54.408-52.984h19.44v18.94h-19.44z" color="#000" display="block" overflow="visible" fill="url(#i)" transform="translate(56 56)"/><path style="isolation:auto;mix-blend-mode:normal;marker:none" d="M-55.037-54.976v22.013h22.103v-8.203h-13.782v-13.81z" color="#000" overflow="visible" fill="url(#j)" transform="translate(56 56)"/><path d="M15.989 2.997v5.045h5.045l1.007-.615-5.35-5.459z" style="isolation:auto;mix-blend-mode:normal;marker:none" color="#000" display="block" overflow="visible" fill="#445575"/><path style="isolation:auto;mix-blend-mode:normal;marker:none" d="M15.989 2.997v5.045l3.266-3.428-2.564-2.646z" color="#000" display="block" overflow="visible" fill="#778bb0"/><path style="isolation:auto;mix-blend-mode:normal;marker:none" d="M-39.309-54.032v5.459h5.35v-5.459z" color="#000" display="block" overflow="visible" fill="url(#k)" transform="translate(56 56)"/><path d="M9.282 1.024l1.426 1.951V13.41l-1.424 1.424z" fill="#6bafdf" fill-rule="evenodd"/><path d="M23.066 14.834l-2.032-1.424H10.708l-1.424 1.424z" fill="#055fb0" fill-rule="evenodd"/><path style="isolation:auto;mix-blend-mode:normal;marker:none" d="M18 3h3v3h-3.063z" color="#000" display="block" overflow="visible" fill="#fff" fill-opacity=".468"/><path style="isolation:auto;mix-blend-mode:normal;marker:none" d="M-43.268-38.317h8.489c.174 0 .314.14.314.314v1.651c0 .174-.14.314-.314.314h-8.49a.313.313 0 0 1-.313-.314v-1.65c0-.175.14-.315.314-.315z" color="#000" display="block" overflow="visible" fill="url(#l)" transform="translate(56 56)"/><path style="isolation:auto;mix-blend-mode:normal;marker:none" d="M2 1h6v12H2z" color="#000" display="block" overflow="visible" fill="#07113c" fill-opacity=".289"/><path d="M-47.632-37.943a3.229 3.229 0 1 1-6.458 0 3.229 3.229 0 0 1 6.458 0z" fill="url(#m)" transform="translate(56 56)"/><path d="M8.221 18.057a3.082 3.082 0 1 1-6.164 0 3.082 3.082 0 0 1 6.164 0z" fill="none" stroke="#fff" stroke-width=".294" stroke-miterlimit="4.6" stroke-opacity=".237"/></svg>