<svg xmlns="http://www.w3.org/2000/svg" xmlns:xlink="http://www.w3.org/1999/xlink" height="24" viewBox="0 0 24 24" width="24"><title>Template icons dark</title><defs><linearGradient id="e"><stop offset="0" stop-color="#6e685c"/><stop offset="1" stop-color="#7f6a7f"/></linearGradient><linearGradient id="d"><stop offset="0" stop-opacity=".022"/><stop offset="1" stop-color="#111" stop-opacity=".551"/></linearGradient><linearGradient id="c"><stop offset="0" stop-color="#262532"/><stop offset="1" stop-color="#39343d"/></linearGradient><linearGradient id="b"><stop offset="0" stop-color="#f75100"/><stop offset="1" stop-color="#ffae11"/></linearGradient><linearGradient id="a"><stop offset="0" stop-color="#23211d"/><stop offset="1" stop-color="#3f474b"/></linearGradient><linearGradient gradientTransform="matrix(.27427 0 0 .27427 -87.883 -87.944)" xlink:href="#b" id="g" x1="160" y1="182.114" x2="160" y2="138" gradientUnits="userSpaceOnUse"/><linearGradient gradientTransform="matrix(.24125 0 0 .24125 -82.6 -82.6)" xlink:href="#c" id="f" gradientUnits="userSpaceOnUse" x1="165.575" y1="196.64" x2="165.575" y2="124"/></defs><g color="#000"><path d="M24 12c0 .84-5.272 9.972-6 10.392-.727.42-11.273.42-12 0-.728-.42-6-9.552-6-10.392 0-.84 5.272-9.972 6-10.392.727-.42 11.273-.42 12 0 .728.42 6 9.552 6 10.392z" style="isolation:auto;mix-blend-mode:normal;marker:none" overflow="visible" fill-opacity=".423" paint-order="fill markers stroke"/><path style="isolation:auto;mix-blend-mode:normal;marker:none" d="M-32.661-44c0 .794-4.982 9.423-5.67 9.82-.687.396-10.651.396-11.338 0-.688-.397-5.67-9.026-5.67-9.82 0-.794 4.982-9.423 5.67-9.82.687-.396 10.65-.396 11.338 0 .688.397 5.67 9.026 5.67 9.82z" display="block" overflow="visible" fill="url(#f)" paint-order="fill markers stroke" transform="translate(56 56)"/><path style="isolation:auto;mix-blend-mode:normal;marker:none" d="M22 12c0 .7-4.394 8.31-5 8.66-.606.35-9.394.35-10 0-.606-.35-5-7.96-5-8.66 0-.7 4.394-8.31 5-8.66.606-.35 9.394-.35 10 0 .606.35 5 7.96 5 8.66z" display="block" overflow="visible" fill="#f6f5f4" fill-opacity=".099" paint-order="fill markers stroke"/><path style="line-height:normal;font-variant-ligatures:normal;font-variant-position:normal;font-variant-caps:normal;font-variant-numeric:normal;font-variant-alternates:normal;font-feature-settings:normal;text-indent:0;text-align:start;text-decoration-line:none;text-decoration-style:solid;text-decoration-color:#000;text-transform:none;text-orientation:mixed;shape-padding:0;isolation:auto;mix-blend-mode:normal;marker:none" d="M-44-51.188c-.866 0-1.732.015-2.422.047-.345.016-.645.036-.892.062a4.185 4.185 0 0 0-.342.048c-.108.021-.19.016-.407.137-.216.122-.253.194-.326.274-.072.081-.14.166-.214.263-.147.195-.314.438-.501.72-.374.564-.82 1.284-1.253 2.013a51.525 51.525 0 0 0-1.168 2.06c-.159.298-.292.56-.392.781-.05.11-.092.21-.128.311-.036.101-.081.168-.081.411 0 .243.045.31.081.411.036.101.078.2.128.311.1.222.233.484.392.782.316.596.735 1.33 1.168 2.06.277.465.552.91.817 1.33l-1.129 3.608 2.832-1.57c.07.021.122.027.181.038.108.02.218.035.342.048.247.026.547.046.892.062.69.032 1.555.047 2.422.047.866 0 1.731-.015 2.421-.047a15.5 15.5 0 0 0 .893-.062c.124-.013.234-.028.342-.048.108-.02.19-.015.407-.137.216-.121.253-.193.326-.274.072-.08.14-.166.214-.263.147-.195.314-.437.5-.72.375-.564.82-1.284 1.254-2.013.433-.728.852-1.463 1.168-2.06.158-.297.29-.56.391-.78.05-.111.093-.21.129-.312.036-.101.081-.168.081-.41 0-.244-.045-.31-.081-.412a3.897 3.897 0 0 0-.129-.31c-.1-.222-.233-.484-.39-.782a51.525 51.525 0 0 0-1.17-2.06 51.775 51.775 0 0 0-1.252-2.013 14.604 14.604 0 0 0-.501-.72 3.963 3.963 0 0 0-.214-.263c-.073-.08-.11-.152-.326-.274-.217-.121-.299-.116-.407-.137a4.176 4.176 0 0 0-.342-.048 15.51 15.51 0 0 0-.893-.062A55.154 55.154 0 0 0-44-51.188zm0 1.621c.846 0 1.693.016 2.342.046.094.004.144.011.23.016l-2.586 3.85-2.618-3.846c.104-.007.17-.014.29-.02.649-.03 1.496-.046 2.342-.046zm4.088 1.416a56.497 56.497 0 0 1 1.953 3.33c.15.28.27.522.347.691l.029.07c-.011.025-.015.037-.03.068-.076.17-.197.411-.346.692a54.407 54.407 0 0 1-2.066 3.505l-2.768-4.067zm-8.206.046l2.893 4.25-2.739 4.079a54.194 54.194 0 0 1-2.077-3.524c-.15-.28-.27-.523-.347-.692l-.029-.069.029-.069c.077-.17.198-.411.347-.691.297-.561.708-1.282 1.13-1.993.27-.453.537-.886.793-1.29zm4.115 6.044l2.355 3.46h-.01c-.649.03-1.496.046-2.342.046-.84 0-1.68-.015-2.328-.045z" font-weight="400" font-family="sans-serif" white-space="normal" display="block" overflow="visible" fill="url(#g)" paint-order="fill markers stroke" transform="translate(56 56)"/></g></svg>