<svg xmlns="http://www.w3.org/2000/svg" xmlns:xlink="http://www.w3.org/1999/xlink" height="24" viewBox="0 0 24 24" width="24"><title>Template icons dark</title><defs><linearGradient id="d"><stop offset="0" stop-color="#0a34ff" stop-opacity="0"/><stop offset="1" stop-color="#ffff0d" stop-opacity=".24"/></linearGradient><linearGradient id="c"><stop offset="0" stop-color="#cdcdcd"/><stop offset="1" stop-color="#fff"/></linearGradient><linearGradient id="b"><stop offset="0" stop-color="#fff" stop-opacity=".427"/><stop offset=".423" stop-color="#fafcfe"/><stop offset="1" stop-color="#fff" stop-opacity=".49"/></linearGradient><linearGradient id="a"><stop offset="0" stop-color="#0796d6"/><stop offset="1" stop-color="#4987ce"/></linearGradient><linearGradient gradientTransform="matrix(.26087 0 0 .26087 -85.74 -85.74)" xlink:href="#c" id="f" x1="161.772" y1="204" x2="161.772" y2="113" gradientUnits="userSpaceOnUse"/><linearGradient xlink:href="#a" id="e" x1="22.9" y1="46.6" x2="22.9" y2="-10.331" gradientUnits="userSpaceOnUse" gradientTransform="translate(-57.128 -58.878) scale(.58345)"/></defs><g color="#000"><path style="isolation:auto;mix-blend-mode:normal;marker:none" d="M-32-44a12 12 0 0 1-12 12 12 12 0 0 1-12-12 12 12 0 0 1 12-12 12 12 0 0 1 12 12z" display="block" overflow="visible" fill="url(#e)" transform="translate(56 56)"/><path style="isolation:auto;mix-blend-mode:normal;marker:none" d="M8.958 1.288l-2.1 5.773-3.57 9.807h2.376L8.7 8.535h1.786L7.45 16.868h2.376l2.829-7.774c.407-1.118-.234-2.033-1.422-2.033H9.235L11.443.994c-.737-.078-1.937.087-2.485.294zm6.225 5.773l-3.67 10.088h-.002l-2.06 5.658c.744.18 1.504.282 2.268.307l2.272-6.246h3.154c.554 0 1.161-.425 1.35-.945l2.487-6.83c.406-1.117-.234-2.032-1.423-2.032zm1.849 1.468h1.786l-2.5 6.86H14.53z" display="block" overflow="visible" fill="#fff"/><path style="isolation:auto;mix-blend-mode:normal;marker:none" d="M23.223 12.472A11.223 11.223 0 0 1 12 23.695 11.223 11.223 0 0 1 .777 12.472 11.223 11.223 0 0 1 12 1.25a11.223 11.223 0 0 1 11.223 11.223z" overflow="visible" fill="none" stroke="#050505" stroke-width=".448" stroke-linejoin="round" stroke-opacity=".458"/><path style="isolation:auto;mix-blend-mode:normal;marker:none" d="M-32.52-44A11.48 11.48 0 0 1-44-32.52 11.48 11.48 0 0 1-55.48-44 11.48 11.48 0 0 1-44-55.48 11.48 11.48 0 0 1-32.52-44z" overflow="visible" fill="none" stroke="url(#f)" stroke-width="1.041" stroke-linejoin="round" transform="translate(56 56)"/></g></svg>