<svg xmlns="http://www.w3.org/2000/svg" xmlns:xlink="http://www.w3.org/1999/xlink" height="24" viewBox="0 0 24 24" width="24"><title>Template icons dark</title><defs><linearGradient id="a"><stop offset="0" stop-color="#4d77d3"/><stop offset=".453" stop-color="#767294"/><stop offset="1" stop-color="#a6659c"/></linearGradient><linearGradient id="b"><stop offset="0" stop-color="#0b1528"/><stop offset="1" stop-color="#473d49"/></linearGradient><linearGradient xlink:href="#a" id="d" x1="53.271" y1="55.429" x2="-10.45" y2="-7.238" gradientUnits="userSpaceOnUse" gradientTransform="matrix(.3178 0 0 .32455 -51.528 -51.556)"/><linearGradient xlink:href="#b" id="c" x1="26.4" y1="60.613" x2="26.4" y2="-12.187" gradientUnits="userSpaceOnUse" gradientTransform="matrix(.2967 0 0 .29485 -51.104 -51.06)"/></defs><g color="#000" transform="translate(56 56)"><rect style="isolation:auto;mix-blend-mode:normal;marker:none" width="23.912" height="21.912" x="-55.956" y="-54.956" ry="1.179" overflow="visible" fill="url(#c)" stroke="#000" stroke-width=".088" stroke-opacity=".471"/><rect style="isolation:auto;mix-blend-mode:normal;marker:none" width="23" height="21" x="-55.5" y="-54.5" ry=".787" overflow="visible" fill="none" stroke="url(#d)"/><path style="isolation:auto;mix-blend-mode:normal;marker:none" d="M-52-51.181h1.58v3.95H-52z" display="block" overflow="visible" fill="#94d59b"/><path style="isolation:auto;mix-blend-mode:normal;marker:none" d="M-53.185-51.971h1.58l-.012.396-1.173-.002v4.74l1.173.003v.394h-1.568z" display="block" overflow="visible" fill="#fff" fill-opacity=".247"/><path style="isolation:auto;mix-blend-mode:normal;marker:none" d="M-49.63-51.181h1.58v3.95h-1.58zM-47.26-51.181h1.58v3.95h-1.58z" display="block" overflow="visible" fill="#94d59b"/><path style="isolation:auto;mix-blend-mode:normal;marker:none" d="M-44.89-51.181h1.581v3.95h-1.58z" display="block" overflow="visible" fill="#94ccd5"/><path style="isolation:auto;mix-blend-mode:normal;marker:none" d="M-42.519-51.181h1.58v3.95h-1.58z" display="block" overflow="visible" fill="#d594c7"/><path style="isolation:auto;mix-blend-mode:normal;marker:none" d="M-52-43.675h1.58v3.95H-52z" display="block" overflow="visible" fill="#94d59b"/><path d="M-53.185-44.465h1.58l-.012.396-1.173-.002v4.74l1.173.003v.393h-1.568z" style="isolation:auto;mix-blend-mode:normal;marker:none" display="block" overflow="visible" fill="#fff" fill-opacity=".247"/><path style="isolation:auto;mix-blend-mode:normal;marker:none" d="M-49.63-43.675h1.58v3.95h-1.58z" display="block" overflow="visible" fill="#94ccd5"/><path style="isolation:auto;mix-blend-mode:normal;marker:none" d="M-47.26-43.675h1.58v3.95h-1.58z" display="block" overflow="visible" fill="#d594c7"/></g></svg>