<svg xmlns="http://www.w3.org/2000/svg" height="24" viewBox="0 0 24 24" width="24"><title>Template icons dark</title><defs><linearGradient id="a"><stop offset="0" stop-color="#3b173b"/><stop offset="1" stop-color="#1c2d4c"/></linearGradient></defs><path d="M11.937 1L.969 15.3l11 7.7 11-7.7z" fill="#535363" fill-rule="evenodd"/><path d="M12 1L1 15.3 12 23l11-7.7zm0 20.51l9.44-6.76L18.844 12l-2.599 1.097-2.598-2.438L11.047 12l-3.4-2.75-5.028 5.5z" fill="#dcdee0" fill-rule="evenodd"/><path d="M16 15.496c-.023.17-10.499-3.851-10.499-3.851L7.648 9.25 11 12l2.646-1.341L12 1l10.969 14.3z" fill-opacity=".24" fill-rule="evenodd"/><path style="isolation:auto;mix-blend-mode:normal;marker:none" d="M.63 14.488h1.26v1.26H.63zM11.34 22.109h1.26v1.26h-1.26zM22.3 14.74h1.26V16H22.3zM11.4.092h1.26v1.26H11.4z" color="#000" display="block" overflow="visible" fill="#dedede" paint-order="fill markers stroke"/><path d="M4.41 4.41L12.118.744" fill-opacity=".215" fill-rule="evenodd" stroke="#eed3fc" stroke-width=".367"/><path style="isolation:auto;mix-blend-mode:normal;marker:none" d="M4.754 4.662a.71.71 0 0 1-.71.71.71.71 0 0 1-.71-.71.71.71 0 0 1 .71-.71.71.71 0 0 1 .71.71zM21 4a.71.71 0 0 1-.71.71.71.71 0 0 1-.71-.71.71.71 0 0 1 .71-.71A.71.71 0 0 1 21 4z" color="#000" display="block" overflow="visible" fill="none" stroke="#fefbfb" stroke-width=".254" stroke-linecap="round" paint-order="fill markers stroke"/><path d="M12.339 1l8.001 2.974" fill-opacity=".215" fill-rule="evenodd" stroke="#eed3fc" stroke-width=".367"/></svg>