<svg xmlns="http://www.w3.org/2000/svg" height="24" viewBox="0 0 24 24" width="24" enable-background="new"><title>Template icons dark</title><defs><filter id="d" x="-.012" width="1.024" y="-.012" height="1.024" color-interpolation-filters="sRGB"><feGaussianBlur stdDeviation=".23"/></filter><linearGradient id="a"><stop offset="0" stop-color="#99c7d1"/><stop offset="1" stop-color="#e4eff7"/></linearGradient><linearGradient id="b"><stop offset="0" stop-color="#4378aa"/><stop offset="1" stop-color="#3797ca"/></linearGradient><linearGradient id="c"><stop offset="0" stop-color="#649ad2"/><stop offset="1" stop-color="#87c7e0"/></linearGradient></defs><g fill-rule="evenodd"><path style="isolation:auto;mix-blend-mode:normal;marker:none" d="M160.063 137.063c-12.703 0-23 10.297-23 23s10.297 23 23 23 23-10.297 23-23-10.297-23-23-23zm-.077 16.434a6.586 6.586 0 1 1 0 13.173 6.586 6.586 0 0 1 0-13.173z" transform="translate(-69.554 -69.554) scale(.50951)" color="#000" overflow="visible" fill-opacity=".235" filter="url(#d)" enable-background="accumulate"/><path d="M12 1.345C5.528 1.345 1.3 5.528 1.3 12c0 6.472 4.228 11.719 10.7 11.719 6.472 0 11.719-5.247 11.719-11.719a11.67 11.67 0 0 0-2.646-7.418C18.923 1.957 15.658 1.345 12 1.345zm-.04 7.31a3.356 3.356 0 0 1 3.356 3.355c0 1.854-1.594 3.461-3.447 3.461-1.893.197-3.558-.901-3.631-3.644-.062-2.314 2.498-3.5 3.723-3.172z" fill="#d7ebf4"/><path d="M12 .281C7.676.281 3.902 2.625 1.871 6.11l7.372 7.87a3.241 3.241 0 0 1-.638-1.969 3.354 3.354 0 0 1 3.093-3.342l10.905-1.745c-.404-.84-.901-1.672-1.485-2.386C18.968 1.912 15.658.281 12 .281z" fill="#3d88ba"/><path d="M1.575 17.355c1.975 3.846 5.784 6.133 9.811 6.348l2.816-9.198c-.21.19-.445.357-.709.492a3.354 3.354 0 0 1-4.386-1.225L2.66 4.929a11.695 11.695 0 0 0-1.085 12.426z" style="isolation:auto;mix-blend-mode:normal" color="#000" overflow="visible" fill="#6fa8d6" enable-background="accumulate"/><path d="M2.622 4.85l6.153 6.11s-.255.78-.154 1.464c.098.664.416 1.238.416 1.238zM22.556 6.934l-8.08 2.839s-.56-.573-1.056-.788c-.91-.394-1.568-.339-1.568-.339zM11.387 23.712l.793-8.348s.566-.002 1.375-.393c.239-.116.648-.465.648-.465z" fill-opacity=".11"/></g></svg>