<svg xmlns:osb="http://www.openswatchbook.org/uri/2009/osb" xmlns="http://www.w3.org/2000/svg" height="24" viewBox="0 0 24 24" width="24"><title>Template icons dark</title><defs><linearGradient id="h" osb:paint="solid"><stop offset="0" stop-color="#65748c"/></linearGradient><linearGradient id="g" osb:paint="solid"><stop offset="0" stop-opacity=".196"/></linearGradient><linearGradient id="f" osb:paint="solid"><stop offset="0" stop-color="#fff" stop-opacity=".782"/></linearGradient><linearGradient id="e" osb:paint="solid"><stop offset="0" stop-opacity=".078"/></linearGradient><linearGradient id="d" osb:paint="solid"><stop offset="0" stop-opacity=".157"/></linearGradient><linearGradient id="b"><stop offset="0" stop-color="#fff"/><stop offset="1" stop-color="#dfdfdf"/></linearGradient><linearGradient id="a"><stop offset="0" stop-color="#f0f0f0"/><stop offset="1" stop-color="#fff"/></linearGradient><linearGradient id="c"><stop offset="0" stop-opacity="0"/><stop offset="1" stop-opacity=".102"/></linearGradient></defs><g style="marker:none" fill="#f8f8f8" stroke="#000" stroke-width="1.358" stroke-opacity=".146" paint-order="stroke markers fill"><g style="marker:none" paint-order="stroke markers fill"><g style="marker:none" stroke-width="1.678" paint-order="stroke markers fill"><g style="marker:none" stroke-width=".84" paint-order="stroke markers fill"><path style="marker:none" d="M408.638 531.204l-5.244 6.733c-.984 1.262-.708 3.51.55 4.497 1.259.986 3.5.71 4.484-.552l5.244-6.733.655-.842c.656-.841.472-2.34-.367-2.998-.839-.657-2.333-.473-2.989.368l-.655.842-3.933 5.05-.656.841c-.328.42-.236 1.17.184 1.5.42.328 1.166.236 1.494-.185l4.589-5.891.839.657-4.589 5.892c-.655.841-2.15 1.025-2.989.368-.839-.658-1.022-2.157-.367-2.998l.656-.842 4.588-5.891c.984-1.263 3.225-1.539 4.484-.552 1.258.986 1.534 3.235.55 4.497l-.655.842-5.244 6.732c-1.311 1.684-4.3 2.052-5.978.737s-2.045-4.314-.734-5.997l5.244-6.733z" paint-order="stroke markers fill" transform="matrix(1.20647 0 0 1.20275 -481.057 -634.259)" stroke-width="1.069"/></g></g></g></g></svg>