<svg xmlns:osb="http://www.openswatchbook.org/uri/2009/osb" xmlns="http://www.w3.org/2000/svg" xmlns:xlink="http://www.w3.org/1999/xlink" height="24" viewBox="0 0 24 24" width="24" id="svg2"><title id="title4675">Template icons dark</title><defs id="defs22"><linearGradient id="linearGradient7995"><stop id="stop7991" offset="0" stop-color="#fff" stop-opacity=".057"/><stop id="stop7993" offset="1" stop-color="#fff" stop-opacity=".635"/></linearGradient><linearGradient id="linearGradient9793"><stop offset="0" id="stop9789" stop-color="#fff" stop-opacity=".464"/><stop offset="1" id="stop9791" stop-color="#f6f6f6" stop-opacity=".219"/></linearGradient><linearGradient id="linearGradient9499"><stop offset="0" id="stop9495" stop-opacity=".297"/><stop offset="1" id="stop9497" stop-opacity=".078"/></linearGradient><linearGradient id="linearGradient9422" osb:paint="solid"><stop offset="0" id="stop9420" stop-color="#ffe22c"/></linearGradient><linearGradient id="linearGradient9052"><stop offset="0" id="stop9048" stop-opacity=".411"/><stop offset="1" id="stop9050" stop-opacity=".516"/></linearGradient><linearGradient id="linearGradient7827"><stop id="stop7823" offset="0" stop-color="#f4d437"/><stop id="stop7825" offset="1" stop-color="#f2a200"/></linearGradient><linearGradient xlink:href="#linearGradient7827" id="linearGradient7785" x1="160" y1="137" x2="160" y2="188" gradientUnits="userSpaceOnUse"/><linearGradient gradientTransform="translate(-35.934 -35.408) scale(.7191)" xlink:href="#linearGradient7827" id="linearGradient7785-2" x1="160" y1="137" x2="160" y2="188" gradientUnits="userSpaceOnUse"/><linearGradient xlink:href="#linearGradient9052" id="linearGradient9054" x1="160" y1="119" x2="160" y2="201.575" gradientUnits="userSpaceOnUse"/><linearGradient xlink:href="#linearGradient9422" id="linearGradient9424" x1="172" y1="128" x2="194" y2="128" gradientUnits="userSpaceOnUse"/><linearGradient xlink:href="#linearGradient9499" id="linearGradient9501" x1="160" y1="204" x2="160" y2="119" gradientUnits="userSpaceOnUse"/><linearGradient xlink:href="#linearGradient9499" id="linearGradient9719" gradientUnits="userSpaceOnUse" x1="75.591" y1="110.653" x2="75.591" y2="48"/><linearGradient xlink:href="#linearGradient9499" id="linearGradient9730" gradientUnits="userSpaceOnUse" x1="21" y1="47.457" x2="21" y2="2"/><linearGradient xlink:href="#linearGradient9793" id="linearGradient9795" x1="-64" y1="-57" x2="-64" y2="-71" gradientUnits="userSpaceOnUse"/><linearGradient xlink:href="#linearGradient9793" id="linearGradient9834" gradientUnits="userSpaceOnUse" x1="-44.031" y1="-34" x2="-44.031" y2="-54"/><linearGradient gradientTransform="translate(100 98)" xlink:href="#linearGradient9052" id="linearGradient9054-3" x1="160" y1="119" x2="160" y2="201.575" gradientUnits="userSpaceOnUse"/><linearGradient xlink:href="#linearGradient7995" id="linearGradient8964" gradientUnits="userSpaceOnUse" x1="192.576" y1="117.256" x2="192.576" y2="136.349"/><linearGradient xlink:href="#linearGradient7827" id="linearGradient9991" gradientUnits="userSpaceOnUse" x1="273.449" y1="218.045" x2="273.449" y2="328"/><linearGradient xlink:href="#linearGradient9499" id="linearGradient10016" gradientUnits="userSpaceOnUse" x1="272" y1="328.693" x2="272" y2="214.425"/><linearGradient xlink:href="#linearGradient7827" id="linearGradient8207" gradientUnits="userSpaceOnUse" gradientTransform="translate(-35.934 -35.408) scale(.7191)" x1="86.127" y1="50.629" x2="86.127" y2="112.39"/><linearGradient xlink:href="#linearGradient7827" id="linearGradient8285" gradientUnits="userSpaceOnUse" gradientTransform="translate(-35.934 -35.408) scale(.7191)" x1="28.947" y1="7.52" x2="28.947" y2="46.457"/><linearGradient xlink:href="#linearGradient7827" id="linearGradient8287" gradientUnits="userSpaceOnUse" gradientTransform="translate(-35.934 -35.408) scale(.7191)" x1="-11.217" y1="-25.855" x2="-11.217" y2="1.957"/><linearGradient xlink:href="#linearGradient7827" id="linearGradient7872" gradientUnits="userSpaceOnUse" gradientTransform="translate(-35.934 -35.408) scale(.7191)" x1="160" y1="137" x2="160" y2="188"/><linearGradient gradientTransform="translate(-128 -119)" xlink:href="#linearGradient9052" id="linearGradient9054-2" x1="160" y1="119" x2="160" y2="201.575" gradientUnits="userSpaceOnUse"/><linearGradient xlink:href="#linearGradient9052" id="linearGradient7937" gradientUnits="userSpaceOnUse" x1="79.843" y1="50.497" x2="79.843" y2="108"/><style id="style51071-8">.str0{stroke:#1f1a17;stroke-width:3}.fil0{fill:none}</style><style id="style2031-6">.str0{stroke:#1f1a17;stroke-width:.0762}.fil0,.fil1{fill:none}.fil1{fill-rule:nonzero}</style><style id="style5368-2">.str0,.str1{stroke:#000;stroke-width:63}.str1{stroke:#09098f}.fil5{fill:none}.fil1,.fil2{fill:#000}.fil3{fill:#4d66cc}.fil0{fill:#576ecd}.fil4{fill:#89a1d4}</style><style id="style51071">.str0{stroke:#1f1a17;stroke-width:3}.fil0{fill:none}</style><style id="style2031">.str0{stroke:#1f1a17;stroke-width:.0762}.fil0,.fil1{fill:none}.fil1{fill-rule:nonzero}</style><style id="style5368">.str0,.str1{stroke:#000;stroke-width:63}.str1{stroke:#09098f}.fil5{fill:none}.fil1,.fil2{fill:#000}.fil3{fill:#4d66cc}.fil0{fill:#576ecd}.fil4{fill:#89a1d4}</style><symbol id="icon-object-group" viewBox="0 0 32 28"><title id="title15141">object-group</title><path d="M32 6h-2v16h2v6h-6v-2H6v2H0v-6h2V6H0V0h6v2h20V0h6v6zm-4-4v2h2V2h-2zM2 2v2h2V2H2zm2 24v-2H2v2h2zm22-2v-2h2V6h-2V4H6v2H4v16h2v2h20zm4 2v-2h-2v2h2zM20 10h6v12H12v-4H6V6h14v4zM8 16h10V8H8v8zm16 4v-8h-4v6h-6v2h10z" id="path15143"/></symbol></defs><g id="layer2" transform="translate(56 56)"><g id="layer8"><path style="marker:none" d="M-45-55l10 10v-10z" id="path9157-4" fill-opacity=".118" fill-rule="evenodd" stroke-width="1.5" paint-order="fill markers stroke"/><path id="path9009-5-3" d="M-42-54l6 6v-6z" fill="url(#linearGradient9424)" fill-rule="evenodd"/><path style="isolation:auto;mix-blend-mode:normal;marker:none" d="M-45-54l9 9v11h-16v-20z" id="rect7756-7-0" color="#000" display="block" overflow="visible" fill="url(#linearGradient8287)" stroke-width=".145" paint-order="fill markers stroke"/><path style="line-height:normal;font-variant-ligatures:normal;font-variant-position:normal;font-variant-caps:normal;font-variant-numeric:normal;font-variant-alternates:normal;font-feature-settings:normal;text-indent:0;text-align:start;text-decoration-line:none;text-decoration-style:solid;text-decoration-color:#000;text-transform:none;text-orientation:mixed;shape-padding:0;isolation:auto;mix-blend-mode:normal;marker:none" d="M-51.96-54L-52-34h16v-11l-9-9zm6.929 1L-37-45v10h-14v-18z" id="path9151-7" color="#000" font-weight="400" font-family="sans-serif" white-space="normal" display="block" overflow="visible" fill="url(#linearGradient9834)" stroke-width=".201" paint-order="fill markers stroke"/><path id="path9155-8" d="M-53-55v22h18v-12l-10-10zm8 1l9 9v11h-16l.04-20z" style="line-height:normal;font-variant-ligatures:normal;font-variant-position:normal;font-variant-caps:normal;font-variant-numeric:normal;font-variant-alternates:normal;font-feature-settings:normal;text-indent:0;text-align:start;text-decoration-line:none;text-decoration-style:solid;text-decoration-color:#000;text-transform:none;text-orientation:mixed;shape-padding:0;isolation:auto;mix-blend-mode:normal;marker:none" color="#000" font-weight="400" font-family="sans-serif" white-space="normal" display="block" overflow="visible" fill-opacity=".118" stroke-width="1.5" paint-order="fill markers stroke"/><path id="path8050" d="M-38-45h-1v5h1v3h-3v-1h-6v1h-3v-3h1v-5h-1v-3h3v1h6v-1zm-2-2v1h1zm-9 0v1h1v-1zm1 9v-1h-1v1zm0-7v5h1v1h6v-1h.984l.016-5h-1v-1h-6v1zm9 7v-1h-1l-.016 1z" fill="#642009" fill-opacity=".464" stroke-width="1.563"/><path d="M-38-46h-1v5h1v3h-3v-1h-6v1h-3v-3h1v-5h-1v-3h3v1h6v-1zm-2-2v1h1zm-9 0v1h1v-1zm1 9v-1h-1v1zm0-7v5h1v1h6v-1h.984l.016-5h-1v-1h-6v1zm9 7v-1h-1l-.016 1z" id="path30419-3-7-3-0-6" fill="#fefefe" stroke-width="1.563"/></g></g></svg>