<svg xmlns="http://www.w3.org/2000/svg" xmlns:xlink="http://www.w3.org/1999/xlink" height="24" viewBox="0 0 24 24" width="24"><title>Template icons dark</title><defs><linearGradient id="a"><stop offset="0" stop-color="#fff" stop-opacity=".427"/><stop offset=".423" stop-color="#fafcfe"/><stop offset="1" stop-color="#fff" stop-opacity=".49"/></linearGradient><linearGradient id="d"><stop offset="0" stop-color="#fe54ba"/><stop offset="1" stop-color="#722f98" stop-opacity=".995"/></linearGradient><linearGradient id="b"><stop offset="0" stop-color="#6a1262" stop-opacity=".611"/><stop offset="1" stop-color="#d75dea" stop-opacity=".979"/></linearGradient><linearGradient id="e"><stop offset="0" stop-color="#fff" stop-opacity=".179"/><stop offset="1" stop-color="#fff" stop-opacity=".795"/></linearGradient><linearGradient id="c"><stop offset="0" stop-color="#fff" stop-opacity=".526"/><stop offset=".446" stop-color="#fff" stop-opacity=".737"/><stop offset=".476" stop-color="#fff"/><stop offset=".503" stop-color="#fff" stop-opacity=".718"/><stop offset="1" stop-color="#fff" stop-opacity=".495"/></linearGradient><linearGradient xlink:href="#d" id="f" gradientUnits="userSpaceOnUse" x1="16.791" y1="294.048" x2="16.839" y2="271.451"/><linearGradient xlink:href="#b" id="j" gradientUnits="userSpaceOnUse" x1="16.907" y1="265.033" x2="17.034" y2="278.562"/><linearGradient gradientTransform="matrix(.74489 0 0 .74489 -56.596 -253.166)" xlink:href="#c" id="m" x1="7.403" y1="282" x2="27.388" y2="282.145" gradientUnits="userSpaceOnUse"/><linearGradient xlink:href="#d" id="g" gradientUnits="userSpaceOnUse" x1="16.791" y1="294.048" x2="16.839" y2="271.451"/><linearGradient xlink:href="#d" id="h" gradientUnits="userSpaceOnUse" x1="16.791" y1="294.048" x2="16.839" y2="271.451"/><linearGradient xlink:href="#d" id="i" gradientUnits="userSpaceOnUse" x1="16.791" y1="294.048" x2="16.839" y2="271.451"/><linearGradient xlink:href="#d" id="k" gradientUnits="userSpaceOnUse" x1="16.791" y1="294.048" x2="16.839" y2="271.451"/><linearGradient xlink:href="#d" id="l" gradientUnits="userSpaceOnUse" x1="16.791" y1="294.048" x2="16.839" y2="271.451"/></defs><g transform="matrix(.74489 0 0 .74489 -.596 -197.166)" style="isolation:auto;mix-blend-mode:normal;marker:none" color="#000" overflow="visible" fill="url(#f)" stroke-width=".265" stroke-opacity=".984"><path d="M2.483 267.972v16.009l14.463-1.73v-17.562z" fill="url(#g)"/><path d="M2.483 283.98l14.45 12.929 14.46-12.94-14.447-1.719z" fill="url(#h)" fill-rule="evenodd" stroke-linejoin="round"/><path d="M16.946 264.69l14.448 3.277v16.003l-14.448-1.72z" fill="url(#i)" fill-rule="evenodd" stroke-linejoin="round"/><path d="M2.483 267.972l14.45 11.329 14.46-11.334-14.447-3.278z" fill="url(#j)"/><path d="M16.932 279.3v17.609l14.462-12.94v-16.002z" fill="url(#k)" fill-rule="evenodd" stroke-linejoin="round"/><path d="M2.483 267.972l14.45 11.329v17.608l-14.45-12.928z" fill="url(#l)" fill-rule="evenodd" stroke-linejoin="round"/></g><path d="M3.127 4.048v11.987l.927.838V6.06l7.963 5.973 7.963-5.973v10.809l.927-.833V4.048l-8.89 6.668z" fill="#3f2c48" fill-opacity=".347" fill-rule="evenodd" stroke-width=".264"/><path d="M-51.946-39.13v-10.81l7.963 5.972 7.963-5.972v10.81L-40-35.557v-6.42l-3.982 3.982-3.981-3.981v6.419z" fill="url(#m)" fill-rule="evenodd" stroke-width=".236" transform="translate(56 56)"/><path style="line-height:normal;font-variant-ligatures:normal;font-variant-position:normal;font-variant-caps:normal;font-variant-numeric:normal;font-variant-alternates:normal;font-feature-settings:normal;text-indent:0;text-align:start;text-decoration-line:none;text-decoration-style:solid;text-decoration-color:#000;text-transform:none;text-orientation:mixed;shape-padding:0;isolation:auto;mix-blend-mode:normal" d="M8.154 20.543V14.31l3.863 3.863 3.864-3.863v6.233l.236-.212v-6.593l-4.1 4.1-4.1-4.1v6.592zM4.172 6.296l7.845 5.883 7.846-5.883v10.683l.235-.186V5.823l-8.081 6.06-8.08-6.06v10.943l.235.212z" color="#000" font-weight="400" font-family="sans-serif" white-space="normal" overflow="visible" fill="#fff" fill-rule="evenodd" stroke-width=".236"/></svg>