<svg xmlns="http://www.w3.org/2000/svg" xmlns:xlink="http://www.w3.org/1999/xlink" height="24" viewBox="0 0 24 24" width="24"><title>Template icons dark</title><defs><linearGradient id="k"><stop offset="0" stop-color="#4c4553"/><stop offset="1" stop-color="#3b3144" stop-opacity=".969"/></linearGradient><linearGradient id="j"><stop offset="0" stop-color="#3d3743"/><stop offset="1" stop-color="#2f2736" stop-opacity=".969"/></linearGradient><linearGradient id="d"><stop offset="0" stop-color="#f87c32"/><stop offset="1" stop-color="#fdab5a" stop-opacity=".996"/></linearGradient><linearGradient id="i"><stop offset="0" stop-color="#fff" stop-opacity=".125"/><stop offset="1" stop-color="#fff" stop-opacity="0"/></linearGradient><linearGradient id="h"><stop offset="0" stop-color="#fff" stop-opacity=".198"/><stop offset="1" stop-color="#fff" stop-opacity="0"/></linearGradient><linearGradient id="g"><stop offset="0" stop-color="#2c3749"/><stop offset="1" stop-color="#3d3c63"/></linearGradient><linearGradient id="f"><stop offset="0" stop-opacity=".129"/><stop offset=".347" stop-color="#4f4f4f" stop-opacity="0"/><stop offset=".765" stop-color="#8d8d8d" stop-opacity="0"/><stop offset="1" stop-color="#fff" stop-opacity=".104"/></linearGradient><linearGradient id="o"><stop offset="0" stop-opacity=".057"/><stop offset=".909" stop-color="#fff" stop-opacity=".02"/><stop offset="1" stop-color="#fff" stop-opacity=".536"/></linearGradient><linearGradient id="e"><stop offset="0" stop-color="#ff994a"/><stop offset="1" stop-color="#ffb555"/></linearGradient><linearGradient id="n"><stop offset="0" stop-opacity="0"/><stop offset=".887" stop-opacity=".078"/><stop offset="1" stop-color="#fff" stop-opacity=".464"/></linearGradient><linearGradient id="m"><stop offset="0" stop-opacity="0"/><stop offset=".887" stop-opacity=".078"/><stop offset="1" stop-opacity=".188"/></linearGradient><linearGradient id="l"><stop offset="0" stop-opacity=".057"/><stop offset=".909" stop-opacity=".021"/><stop offset="1" stop-opacity=".505"/></linearGradient><linearGradient id="c"><stop offset="0" stop-color="#f88232"/><stop offset="1" stop-color="#fdc85a" stop-opacity=".995"/></linearGradient><linearGradient id="b"><stop offset="0" stop-color="#ed7837" stop-opacity=".974"/><stop offset="1" stop-color="#e45a2a"/></linearGradient><linearGradient id="a"><stop offset="0" stop-color="#403a47"/><stop offset="1" stop-color="#2c2533" stop-opacity=".971"/></linearGradient><linearGradient xlink:href="#k" id="p" x1="158.551" y1="120" x2="158.551" y2="196.51" gradientUnits="userSpaceOnUse" gradientTransform="matrix(.26465 0 0 .26465 -86.731 -86.742)"/><linearGradient gradientTransform="matrix(.2582 0 0 .2582 -85.7 -85.71)" xlink:href="#e" id="q" x1="161.189" y1="172.735" x2="162.769" y2="145.544" gradientUnits="userSpaceOnUse"/><linearGradient xlink:href="#b" id="r" x1="159.873" y1="151.837" x2="159.873" y2="167.94" gradientUnits="userSpaceOnUse" gradientTransform="matrix(.35859 0 0 .35859 -101.76 -101.771)"/><linearGradient xlink:href="#c" id="s" gradientUnits="userSpaceOnUse" gradientTransform="rotate(166.032 -35.57 -41.184) scale(.23983)" x1="-95.591" y1="-143.575" x2="-67.254" y2="-126.208"/><linearGradient xlink:href="#c" id="t" gradientUnits="userSpaceOnUse" gradientTransform="matrix(-.09839 -.07568 .07568 -.09839 -44.4 -68.005)" x1="-112.967" y1="-156.148" x2="-80.17" y2="-124.045"/><linearGradient xlink:href="#c" id="u" gradientUnits="userSpaceOnUse" gradientTransform="scale(-.2582) rotate(7.591 -2401.335 2179.42)" x1="-112.967" y1="-156.148" x2="-80.17" y2="-124.045"/><linearGradient xlink:href="#c" id="v" gradientUnits="userSpaceOnUse" gradientTransform="scale(.2582) rotate(74.668 75.116 -431.898)" x1="295.286" y1="-123.22" x2="267.135" y2="-118.871"/><linearGradient xlink:href="#d" id="w" gradientUnits="userSpaceOnUse" gradientTransform="scale(.2582) rotate(-41.817 -551.517 345.564)" x1="104.202" y1="237.968" x2="124.46" y2="214.022"/><linearGradient xlink:href="#c" id="x" gradientUnits="userSpaceOnUse" gradientTransform="rotate(-96.838 -40.321 -25.644) scale(.18252)" x1="-101.254" y1="-148.008" x2="-84.616" y2="-106.562"/><linearGradient gradientTransform="matrix(.3355 0 0 .34793 -100.042 -101.522)" xlink:href="#g" id="y" x1="188" y1="191" x2="188" y2="177" gradientUnits="userSpaceOnUse"/></defs><path style="isolation:auto;mix-blend-mode:normal;marker:none" d="M23.22 11.603a11.607 11.607 0 0 1-11.607 11.606A11.607 11.607 0 0 1 .007 11.603 11.607 11.607 0 0 1 11.613-.004 11.607 11.607 0 0 1 23.22 11.603z" color="#000" display="block" overflow="visible" fill="#191520" stroke-width=".025" stroke-miterlimit="4.6" paint-order="fill markers stroke"/><path style="isolation:auto;mix-blend-mode:normal;marker:none" d="M-33.738-44.397a10.649 10.649 0 0 1-10.649 10.649 10.649 10.649 0 0 1-10.648-10.65 10.649 10.649 0 0 1 10.648-10.648 10.649 10.649 0 0 1 10.65 10.649z" color="#000" display="block" overflow="visible" fill="url(#p)" stroke-width=".022" stroke-miterlimit="4.6" paint-order="fill markers stroke" transform="translate(56 56)"/><path style="isolation:auto;mix-blend-mode:normal;marker:none" d="M-40.872-44.397a3.514 3.514 0 0 1-2.736 3.427 3.514 3.514 0 0 1-3.948-1.909 3.514 3.514 0 0 1 .987-4.272l2.182 2.754z" color="#000" display="block" overflow="visible" fill="none" fill-opacity=".943" stroke="url(#q)" stroke-width="1.22" stroke-miterlimit="4.6" paint-order="fill markers stroke" transform="translate(56 56)"/><path style="isolation:auto;mix-blend-mode:normal;marker:none" d="M-42.145-44.397a2.241 2.241 0 0 1-2.242 2.241 2.241 2.241 0 0 1-2.24-2.241 2.241 2.241 0 0 1 2.24-2.241 2.241 2.241 0 0 1 2.242 2.24z" color="#000" display="block" overflow="visible" fill="none" fill-opacity=".943" stroke="url(#r)" stroke-width="1.366" stroke-miterlimit="4.6" paint-order="fill markers stroke" transform="translate(56 56)"/><path style="isolation:auto;mix-blend-mode:normal;marker:none" d="M-54.108-41.896a10.077 10.077 0 0 1 .467-6.282l9.313 3.85z" color="#000" display="block" overflow="visible" fill="url(#s)" stroke-width="7.015" stroke-miterlimit="4.6" paint-order="fill markers stroke" transform="translate(56 56)"/><path style="isolation:auto;mix-blend-mode:normal;marker:none" d="M-48.483-47.627a5.216 5.216 0 0 1 4.785-1.995l-.65 5.175z" color="#000" display="block" overflow="visible" fill="url(#t)" stroke-width="3.63" stroke-miterlimit="4.6" paint-order="fill markers stroke" transform="translate(56 56)"/><path style="isolation:auto;mix-blend-mode:normal;marker:none" d="M-55.084-45.879a10.85 10.85 0 0 1 6.549-8.567l4.205 10z" color="#000" display="block" overflow="visible" fill="url(#u)" stroke-width="7.552" stroke-miterlimit="4.6" paint-order="fill markers stroke" transform="translate(56 56)"/><path style="isolation:auto;mix-blend-mode:normal;marker:none" d="M-42.251-36.892a7.87 7.87 0 0 1-7.575-1.954l5.494-5.636z" color="#000" display="block" overflow="visible" fill="url(#v)" stroke-width="7.552" stroke-miterlimit="4.6" paint-order="fill markers stroke" transform="translate(56 56)"/><path style="isolation:auto;mix-blend-mode:normal;marker:none" d="M.824 11.57a10.85 10.85 0 0 1 .09-1.41l10.76 1.384z" color="#000" display="block" overflow="visible" fill-opacity=".219" stroke-width="7.552" stroke-miterlimit="4.6" paint-order="fill markers stroke"/><path style="isolation:auto;mix-blend-mode:normal;marker:none" d="M-35.157-52.687a12.394 12.394 0 0 1 3.138 8.952l-12.374-.688z" color="#000" display="block" overflow="visible" fill="url(#w)" stroke-width="7.552" stroke-miterlimit="4.6" paint-order="fill markers stroke" transform="translate(56 56)"/><path style="isolation:auto;mix-blend-mode:normal;marker:none" d="M17.181 6.594a7.465 7.465 0 0 1 1.89 5.392l-7.453-.415z" color="#000" display="block" overflow="visible" fill="#fef6f0" fill-opacity=".422" stroke-width=".129" stroke-miterlimit="4.6" stroke-opacity=".307" paint-order="fill markers stroke"/><path style="isolation:auto;mix-blend-mode:normal;marker:none" d="M11.446 3.824c.105 0 .43.048.534.053l-.315 7.68z" color="#000" display="block" overflow="visible" fill-opacity=".672" stroke-width="5.35" stroke-miterlimit="4.6" paint-order="fill markers stroke"/><path style="isolation:auto;mix-blend-mode:normal;marker:none" d="M-44.05-52.103a7.67 7.67 0 0 1 4.828 1.965l-5.133 5.699z" color="#000" display="block" overflow="visible" fill="url(#x)" stroke-width="5.338" stroke-miterlimit="4.6" paint-order="fill markers stroke" transform="translate(56 56)"/><path style="isolation:auto;mix-blend-mode:normal;marker:none" d="M23.981 12.266a12.394 12.394 0 0 1-.114 1.123l-12.26-1.812z" color="#000" display="block" overflow="visible" fill="#141414" fill-opacity=".463" stroke-width="7.552" stroke-miterlimit="4.6" paint-order="fill markers stroke"/><path style="isolation:auto;mix-blend-mode:normal;marker:none" d="M13.685 11.603a2.072 2.072 0 0 1-2.072 2.072 2.072 2.072 0 0 1-2.071-2.072 2.072 2.072 0 0 1 2.071-2.072 2.072 2.072 0 0 1 2.072 2.072z" color="#000" display="block" overflow="visible" fill="#37313e" stroke-width=".043" stroke-miterlimit="4.6" stroke-opacity=".344" paint-order="fill markers stroke"/><path style="isolation:auto;mix-blend-mode:normal;marker:none" d="M12.612 11.603a.998.998 0 0 1-.999.998.998.998 0 0 1-.998-.998.998.998 0 0 1 .998-.999.998.998 0 0 1 .999.999z" color="#000" display="block" overflow="visible" fill="#fff" fill-opacity=".943" stroke-width=".021" stroke-miterlimit="4.6" stroke-opacity=".344" paint-order="fill markers stroke"/><path style="isolation:auto;mix-blend-mode:normal;marker:none" d="M15 16h9v7h-9z" color="#000" display="block" overflow="visible" fill-opacity=".552" stroke-width="1.967" stroke-miterlimit="4.6" paint-order="fill markers stroke"/><path style="isolation:auto;mix-blend-mode:normal;marker:none" d="M-42-41h9v7h-9z" color="#000" display="block" overflow="visible" fill="url(#y)" stroke-width="1.967" stroke-miterlimit="4.6" paint-order="fill markers stroke" transform="translate(56 56)"/><path style="line-height:1000%" d="M20.41 18.808q-.283 0-.445.24-.16.242-.16.671 0 .423.16.667.162.241.446.241.276 0 .436-.24.162-.245.162-.668 0-.426-.162-.667-.16-.244-.436-.244zm0-.413q.515 0 .817.358.303.358.303.966 0 .609-.306.967-.303.354-.813.354-.521 0-.824-.354-.302-.358-.302-.967 0-.611.302-.966.306-.358.824-.358zm-3.358-1.982q-.28 0-.442.244-.16.241-.16.664 0 .43.16.67.16.241.442.241.284 0 .443-.24.163-.241.163-.67 0-.42-.163-.665-.163-.244-.443-.244zM19.991 16h.52l-3.039 5.04h-.52zm-2.939 0q.515 0 .82.358.306.355.306.963 0 .615-.306.97-.302.354-.82.354-.517 0-.82-.354-.299-.358-.299-.97 0-.605.303-.963.302-.358.816-.358z" font-family="sans-serif" letter-spacing="0" word-spacing="0" fill="#fff" stroke-width=".417"/></svg>