<svg xmlns="http://www.w3.org/2000/svg" xmlns:xlink="http://www.w3.org/1999/xlink" height="24" viewBox="0 0 24 24" width="24"><title>Template icons dark</title><defs><linearGradient id="e"><stop offset="0" stop-color="#ff2a0b"/><stop offset=".496" stop-color="#110200" stop-opacity=".453"/><stop offset=".532" stop-opacity=".13"/><stop offset=".617" stop-color="#ffcdc5" stop-opacity=".106"/><stop offset=".702" stop-color="#ffd2cb" stop-opacity=".161"/><stop offset=".778" stop-color="#ffe2dd" stop-opacity="0"/><stop offset=".872" stop-color="#fff" stop-opacity=".109"/><stop offset=".936" stop-color="#fff" stop-opacity=".078"/><stop offset="1" stop-opacity=".354"/></linearGradient><linearGradient id="d"><stop offset="0" stop-opacity="0"/><stop offset=".497" stop-opacity="0"/><stop offset=".749" stop-opacity=".271"/><stop offset="1" stop-opacity="0"/></linearGradient><linearGradient id="b"><stop offset="0" stop-color="#c5c5c5"/><stop offset="1" stop-color="#f4f4f4"/></linearGradient><linearGradient id="a"><stop offset="0" stop-color="#cd3a00"/><stop offset="1" stop-color="#cf6e53"/></linearGradient><linearGradient id="c"><stop offset="0" stop-color="#fff" stop-opacity="0"/><stop offset=".657" stop-color="#fff" stop-opacity="0"/><stop offset=".829" stop-color="#fff8f4" stop-opacity=".26"/><stop offset="1" stop-color="#fff" stop-opacity="0"/></linearGradient><linearGradient gradientTransform="matrix(.25 0 0 .25 -84 -84)" xlink:href="#b" id="g" x1="170" y1="201.251" x2="170" y2="119" gradientUnits="userSpaceOnUse"/><linearGradient gradientTransform="matrix(.25 0 0 .25 -84 -84)" xlink:href="#a" id="f" x1="160" y1="205" x2="160" y2="113" gradientUnits="userSpaceOnUse"/><radialGradient gradientTransform="matrix(.25 0 0 .25 -84 -84)" xlink:href="#e" id="h" cx="160" cy="160" fx="160" fy="160" r="47" gradientUnits="userSpaceOnUse"/></defs><path style="font-variant-east_asian:normal" d="M4.112.75c-1.103 0-1.025 1.649-1.726 2.305C1.814 3.591.51 3.25.415 4.34.298 5.694.397 8.234.759 8.937L8.537 1.25s-3.42-.5-4.425-.5zm15.535 0c-1.005 0-4.424.5-4.424.5L23 8.937c.363-.703.462-3.243.344-4.598-.094-1.089-1.399-.748-1.971-1.284C20.673 2.4 20.75.75 19.647.75zM.76 15.244c-.362.702-.461 3.243-.344 4.597.094 1.09 1.399.748 1.971 1.284.7.656.623 2.305 1.726 2.305 1.005 0 4.425-.5 4.425-.5zm22.241 0l-7.777 7.686s3.42.5 4.424.5c1.103 0 1.026-1.649 1.726-2.305.572-.536 1.877-.195 1.971-1.284.118-1.354.019-3.895-.344-4.597z" fill="none" fill-rule="evenodd" stroke="#d7afaf" stroke-width=".217"/><path d="M12 0C5.373 0 0 5.373 0 12s5.373 12 12 12 12-5.373 12-12S18.627 0 12 0zm0 6.5a5.5 5.5 0 1 1 0 11 5.5 5.5 0 0 1 0-11z" style="isolation:auto;mix-blend-mode:normal;marker:none" color="#000" display="block" overflow="visible" fill-opacity=".052" stroke-width=".261" stroke-opacity=".37" paint-order="fill markers stroke"/><path style="isolation:auto;mix-blend-mode:normal;marker:none" d="M-44-55.75A11.75 11.75 0 0 0-55.75-44 11.75 11.75 0 0 0-44-32.25 11.75 11.75 0 0 0-32.25-44 11.75 11.75 0 0 0-44-55.75zm0 6A5.75 5.75 0 0 1-38.25-44 5.75 5.75 0 0 1-44-38.25 5.75 5.75 0 0 1-49.75-44 5.75 5.75 0 0 1-44-49.75z" color="#000" display="block" overflow="visible" fill="url(#f)" stroke-width=".255" stroke-opacity=".37" paint-order="fill markers stroke" transform="translate(56 56)"/><path style="isolation:auto;mix-blend-mode:normal;marker:none" d="M-49.958-54.126a11.804 11.804 0 0 0-4.168 4.168l4.78 4.045a5.685 5.685 0 0 1 3.433-3.435zm11.916 0l-4.045 4.78a5.685 5.685 0 0 1 3.435 3.433l4.778-4.045a11.804 11.804 0 0 0-4.168-4.168zm-11.305 12.04l-4.78 4.044a11.804 11.804 0 0 0 4.169 4.168l4.044-4.78a5.685 5.685 0 0 1-3.433-3.432zm10.693 0a5.685 5.685 0 0 1-3.432 3.433l4.044 4.78a11.804 11.804 0 0 0 4.168-4.169z" color="#000" overflow="visible" fill="url(#g)" stroke-width=".302" stroke-opacity=".391" paint-order="fill markers stroke" transform="translate(56 56)"/><path d="M-44-55.75A11.75 11.75 0 0 0-55.75-44 11.75 11.75 0 0 0-44-32.25 11.75 11.75 0 0 0-32.25-44 11.75 11.75 0 0 0-44-55.75zm0 6A5.75 5.75 0 0 1-38.25-44 5.75 5.75 0 0 1-44-38.25 5.75 5.75 0 0 1-49.75-44 5.75 5.75 0 0 1-44-49.75z" style="isolation:auto;mix-blend-mode:normal;marker:none" color="#000" overflow="visible" fill="url(#h)" stroke-width=".255" stroke-opacity=".37" paint-order="fill markers stroke" transform="translate(56 56)"/></svg>