<svg xmlns="http://www.w3.org/2000/svg" xmlns:xlink="http://www.w3.org/1999/xlink" height="24" viewBox="0 0 24 24" width="24"><title>Template icons dark</title><defs><linearGradient id="a"><stop offset="0" stop-color="#003783"/><stop offset="1" stop-color="#69e5ff"/></linearGradient><linearGradient xlink:href="#a" id="b" gradientUnits="userSpaceOnUse" x1="120" y1="120" x2="203.055" y2="204"/></defs><path style="isolation:auto;mix-blend-mode:normal;marker:none" d="M1 1h22l.03 22h-22z" color="#000" display="block" overflow="visible" fill-opacity=".141" stroke-width=".667" stroke-opacity=".079" paint-order="fill markers stroke"/><path style="isolation:auto;mix-blend-mode:normal;marker:none" d="M2 2h20.002v20.002H2z" color="#000" display="block" overflow="visible" fill="#a3acc3" stroke-width=".75" stroke-opacity=".079" paint-order="fill markers stroke"/><path style="isolation:auto;mix-blend-mode:normal;marker:none" d="M9 8h7v7H9z" color="#000" display="block" overflow="visible" fill="#79859c" stroke-width=".75" stroke-opacity=".079" paint-order="fill markers stroke"/><path style="isolation:auto;mix-blend-mode:normal;marker:none" d="M9 2h7v6H9z" color="#000" display="block" overflow="visible" fill="#696e82" stroke-width=".75" stroke-opacity=".079" paint-order="fill markers stroke"/><path style="isolation:auto;mix-blend-mode:normal;marker:none" d="M2 2h7v6H2z" color="#000" display="block" overflow="visible" fill="#565a68" stroke-width=".75" stroke-opacity=".079" paint-order="fill markers stroke"/><path style="isolation:auto;mix-blend-mode:normal;marker:none" d="M2 8h7v7H2z" color="#000" display="block" overflow="visible" fill="#777a8b" stroke-width=".75" stroke-opacity=".079" paint-order="fill markers stroke"/><path style="isolation:auto;mix-blend-mode:normal;marker:none" d="M16 8h5.998v7H16z" color="#000" display="block" overflow="visible" fill="#8d98b6" stroke-width=".75" stroke-opacity=".079" paint-order="fill markers stroke"/><path style="isolation:auto;mix-blend-mode:normal;marker:none" d="M16 2h5.998v6H16z" color="#000" display="block" overflow="visible" fill="#7a8399" stroke-width=".75" stroke-opacity=".079" paint-order="fill markers stroke"/><path style="isolation:auto;mix-blend-mode:normal;marker:none" d="M9 15h7v6.998H9z" color="#000" display="block" overflow="visible" fill="#9098b0" stroke-width=".75" stroke-opacity=".079" paint-order="fill markers stroke"/><path style="isolation:auto;mix-blend-mode:normal;marker:none" d="M2 15h7v6.998H2z" color="#000" display="block" overflow="visible" fill="#818da2" stroke-width=".75" stroke-opacity=".079" paint-order="fill markers stroke"/><path style="isolation:auto;mix-blend-mode:normal;marker:none" d="M2 21h20.002v.998H2z" color="#000" display="block" overflow="visible" fill="#fff" fill-opacity=".257" stroke-width=".074" stroke-opacity=".079" paint-order="fill markers stroke"/><path style="line-height:1000%" d="M18.352 3.198c-.633 0-1.132.195-1.496.583-.364.387-.547.916-.547 1.589 0 .67.183 1.2.547 1.589.364.387.863.58 1.496.58a2.306 2.306 0 0 0 1.331-.404v-.59c-.19.177-.394.309-.61.397a1.796 1.796 0 0 1-.687.132c-.478 0-.845-.146-1.099-.438-.254-.293-.38-.715-.38-1.266 0-.553.126-.975.38-1.266.254-.294.62-.44 1.099-.44.243 0 .471.043.686.131.217.088.42.22.611.398v-.597a2.206 2.206 0 0 0-.625-.297c-.22-.067-.456-.1-.706-.1zM5.11 3.274L3.512 7.458h.597l.381-1.074h1.886l.381 1.074h.588L5.751 3.274zm5.325 0v4.184h1.502c.469 0 .83-.102 1.084-.306.254-.203.381-.492.381-.866 0-.284-.077-.52-.232-.709a1.092 1.092 0 0 0-.647-.375c.231-.038.407-.132.527-.283.12-.152.179-.355.179-.611 0-.33-.117-.586-.35-.765-.234-.18-.567-.269-.998-.269zm.566.465h.838c.276 0 .482.053.616.157.137.105.205.262.205.473 0 .213-.068.372-.205.477-.134.102-.34.154-.616.154H11zm-5.571.093l.77 2.082H4.661zM11 5.46h.908c.304 0 .53.062.675.187.148.124.222.316.222.578 0 .26-.074.453-.222.58-.146.125-.37.187-.675.187H11zm-5.89 5.187c-.169 0-.342.019-.52.056-.177.036-.36.09-.549.163v.476a2.077 2.077 0 0 1 1.015-.258c.282 0 .5.066.656.197.157.129.235.311.235.548v.051h-.723c-.469 0-.822.09-1.06.269-.234.18-.352.446-.352.799 0 .302.094.544.283.726.19.179.446.269.768.269.254 0 .469-.045.644-.135.176-.091.322-.232.44-.423v.476h.516v-1.79c0-.479-.112-.835-.337-1.07-.224-.236-.563-.354-1.017-.354zm.324 1.637h.513v.114c0 .337-.087.607-.26.81a.857.857 0 0 1-.687.303c-.208 0-.372-.053-.493-.16a.561.561 0 0 1-.18-.437c0-.23.08-.392.241-.487.16-.096.45-.143.866-.143zm-.494 4.133a.363.363 0 0 0-.287.122.49.49 0 0 0-.106.332h.26v-.012c0-.062.013-.111.041-.146a.14.14 0 0 1 .116-.051c.017 0 .036.003.057.012.022.007.05.02.085.04l.118.068a.943.943 0 0 0 .168.073.514.514 0 0 0 .133.016c.116 0 .21-.04.28-.122a.505.505 0 0 0 .112-.332h-.26v.012a.22.22 0 0 1-.04.139.132.132 0 0 1-.109.052.201.201 0 0 1-.066-.012.54.54 0 0 1-.083-.04l-.119-.062a.531.531 0 0 0-.3-.09zm.089.548l-.438.551h.288l.345-.369.344.37h.289l-.438-.552zm.214.79c-.35 0-.627.112-.833.336-.204.223-.307.525-.307.905 0 .368.108.66.324.876.217.216.512.324.882.324.148 0 .294-.015.438-.046.144-.03.284-.075.421-.133v-.36a1.888 1.888 0 0 1-.41.16 1.67 1.67 0 0 1-.426.055c-.253 0-.451-.068-.594-.205-.141-.139-.22-.34-.236-.602h1.755v-.187c0-.346-.09-.619-.273-.82-.182-.202-.429-.303-.741-.303zm.004.324c.188 0 .339.062.452.187.115.124.174.29.177.5l-1.362.002c.02-.219.093-.388.22-.508a.72.72 0 0 1 .513-.181z" font-family="sans-serif" letter-spacing="0" word-spacing="0" fill="#fefefe" stroke-width=".359"/></svg>