<svg xmlns="http://www.w3.org/2000/svg" xmlns:xlink="http://www.w3.org/1999/xlink" height="24" viewBox="0 0 24 24" width="24"><title>Template icons dark</title><defs><linearGradient id="h"><stop offset="0" stop-color="#2aa591"/><stop offset="1" stop-color="#2498e4"/></linearGradient><linearGradient id="g"><stop offset="0" stop-color="#eeda60"/><stop offset="1" stop-color="#db9918"/></linearGradient><linearGradient id="b"><stop offset="0" stop-color="#2a0ff3" stop-opacity=".132"/><stop offset=".521" stop-color="#3bf963" stop-opacity=".291"/><stop offset="1" stop-color="#ef4cff" stop-opacity=".297"/></linearGradient><linearGradient id="a"><stop offset="0" stop-color="#e1e3e7"/><stop offset=".21" stop-color="#dee1e4"/><stop offset=".38" stop-color="#f1f2f3"/><stop offset=".67" stop-color="#c2c6cd"/><stop offset="1" stop-color="#d7dadf"/></linearGradient><linearGradient id="c"><stop offset="0" stop-color="#fff"/><stop offset="1" stop-color="#fff" stop-opacity="0"/></linearGradient><linearGradient id="d"><stop offset="0"/><stop offset="1" stop-opacity="0"/></linearGradient><linearGradient id="e"><stop offset="0" stop-color="#babdb6"/><stop offset="1" stop-color="#fff"/></linearGradient><linearGradient id="f"><stop offset="0" stop-color="#888a85"/><stop offset="1" stop-color="#555753"/></linearGradient><linearGradient xlink:href="#a" id="i" gradientUnits="userSpaceOnUse" x1="9.586" y1="4.485" x2="37.77" y2="43.886" gradientTransform="matrix(.66667 0 0 .66667 -59.833 -60)"/></defs><g transform="translate(56 56)"><path d="M-54-56v24h8v-4h4v4h8v-24z" fill-opacity=".235" stroke-width=".667" stroke-opacity=".24"/><path d="M-53-55v22h6v-3h6v3h6v-22z" fill="#4e565a" stroke-width="1.526" stroke-opacity=".24"/><path d="M-52-54v20h4v-3h8v3h4v-20z" fill="url(#i)" stroke-width=".667" stroke-opacity=".24"/><path style="isolation:auto;mix-blend-mode:normal;marker:none" d="M-47-37h6v2h-6z" color="#000" display="block" overflow="visible" fill="#dbb518" stroke-width=".227" stroke-linecap="round" stroke-linejoin="round" stroke-opacity=".964"/><path style="isolation:auto;mix-blend-mode:normal;marker:none" d="M-48-37h8v1h-8z" color="#000" display="block" overflow="visible" fill-opacity=".33" stroke-width=".114" stroke-linecap="round" stroke-linejoin="round" stroke-opacity=".964"/><path style="isolation:auto;mix-blend-mode:normal;marker:none" d="M-44.663-51.042c-.09 0-.14.073-.162.157l-.323 1.214a4.06 4.06 0 0 0-.844.357l-1.076-.625c-.074-.043-.16-.058-.223.007l-.93.943c-.064.065-.05.153-.007.228l.626 1.105a4.173 4.173 0 0 0-.336.836l-1.215.336c-.083.023-.155.073-.155.164v1.334c0 .092.072.143.155.166l1.243.34c.084.275.196.541.335.793l-.643 1.14c-.043.075-.058.161.005.226l.932.943c.064.065.15.05.224.007l1.145-.668c.209.111.519.23.755.315l.346 1.29c.022.084.072.155.162.155h1.317c.09 0 .14-.071.163-.155l.347-1.3c.235-.077.5-.207.751-.311l1.144.663c.074.043.16.058.224-.006l.93-.944c.065-.064.05-.152.008-.227l-.658-1.156c.133-.246.24-.505.322-.773l1.26-.347c.082-.023.154-.073.154-.165v-1.335c0-.091-.072-.142-.154-.164l-1.24-.34a4.173 4.173 0 0 0-.325-.817l.63-1.116c.043-.075.058-.162-.006-.227l-.93-.943c-.065-.065-.15-.05-.225-.007l-1.087.634a4.058 4.058 0 0 0-.833-.355l-.327-1.216c-.022-.083-.072-.156-.162-.156zm.667 3.408c1.072 0 1.942.881 1.942 1.969 0 1.087-.87 1.968-1.942 1.968-1.073 0-1.943-.881-1.943-1.968 0-1.088.87-1.97 1.943-1.97z" color="#000" overflow="visible" fill="#656c76" stroke-width=".18" stroke-opacity=".808" paint-order="fill markers stroke"/><rect width="1" height="1" x="-38.016" y="-36" rx=".667" ry=".667" fill="#454545" stroke-width=".667" stroke-opacity=".643"/><rect width="1" height="1" x="-51" y="-36" rx=".667" ry=".667" fill="#454545" stroke-width=".667" stroke-opacity=".643"/><rect width="1.035" height="1.035" x="-51" y="-44" rx=".69" ry=".69" fill="#454545" stroke-width=".69" stroke-opacity=".643"/><rect width="1" height="1" x="-38" y="-44" rx=".667" ry=".667" fill="#454545" stroke-width=".667" stroke-opacity=".643"/><rect width="1" height="1" x="-38" y="-53" rx=".667" ry=".667" fill="#454545" stroke-width=".667" stroke-opacity=".643"/><rect width="1" height="1" x="-51" y="-53" rx=".667" ry=".667" fill="#454545" stroke-width=".667" stroke-opacity=".643"/></g></svg>