<svg xmlns="http://www.w3.org/2000/svg" xmlns:xlink="http://www.w3.org/1999/xlink" height="24" viewBox="0 0 24 24" width="24" id="svg2"><title id="title4675">Template icons dark</title><defs id="defs22"><linearGradient id="linearGradient11855"><stop offset="0" id="stop11851" stop-opacity=".471"/><stop offset="1" id="stop11853" stop-opacity=".398"/></linearGradient><linearGradient id="linearGradient11845"><stop offset="0" id="stop11841" stop-opacity=".283"/><stop offset="1" id="stop11843" stop-color="#96d4fd" stop-opacity=".492"/></linearGradient><linearGradient id="linearGradient1272"><stop offset="0" id="stop1268" stop-color="#d4e4ef"/><stop offset="1" id="stop1270" stop-color="#c5b3cb"/></linearGradient><linearGradient id="linearGradient1264"><stop offset="0" id="stop1260" stop-color="#6c69e5" stop-opacity=".263"/><stop offset="1" id="stop1262" stop-color="#f3c6f8" stop-opacity=".272"/></linearGradient><linearGradient id="linearGradient1176"><stop offset="0" id="stop1172" stop-color="#5ca5ff"/><stop offset="1" id="stop1174" stop-color="#eb81ff"/></linearGradient><linearGradient id="linearGradient1151"><stop offset="0" id="stop1147" stop-color="#2395e4" stop-opacity=".979"/><stop offset="1" id="stop1149" stop-color="#40d0f0" stop-opacity=".984"/></linearGradient><linearGradient id="linearGradient1109"><stop offset="0" id="stop1105" stop-color="#d9dce8" stop-opacity=".99"/><stop offset="1" id="stop1107" stop-color="#ebf3ef" stop-opacity=".99"/></linearGradient><linearGradient id="linearGradient1064"><stop offset="0" id="stop1060" stop-color="#191c24"/><stop offset="1" id="stop1062" stop-color="#656177"/></linearGradient><linearGradient xlink:href="#linearGradient1064" id="linearGradient1066" x1="125" y1="203" x2="195" y2="117.567" gradientUnits="userSpaceOnUse"/><linearGradient xlink:href="#linearGradient1109" id="linearGradient1111" x1="194" y1="193.493" x2="194" y2="175.102" gradientUnits="userSpaceOnUse"/><linearGradient xlink:href="#linearGradient1064" id="linearGradient1165" gradientUnits="userSpaceOnUse" x1="125" y1="203" x2="195" y2="117.567"/><linearGradient xlink:href="#linearGradient1176" id="linearGradient1178" x1="129" y1="200" x2="191.567" y2="121" gradientUnits="userSpaceOnUse"/><linearGradient xlink:href="#linearGradient1151" id="linearGradient1185" gradientUnits="userSpaceOnUse" x1="144" y1="200" x2="179.567" y2="133" gradientTransform="matrix(1 0 0 1.01389 0 -1.833)"/><linearGradient xlink:href="#linearGradient1264" id="linearGradient1266" x1="128" y1="118" x2="193" y2="118" gradientUnits="userSpaceOnUse"/><linearGradient xlink:href="#linearGradient1272" id="linearGradient1274" x1="132.528" y1="193" x2="189" y2="122" gradientUnits="userSpaceOnUse"/><linearGradient xlink:href="#linearGradient1064" id="linearGradient1279" gradientUnits="userSpaceOnUse" x1="125" y1="203" x2="195" y2="117.567"/><linearGradient xlink:href="#linearGradient11845" id="linearGradient11847" x1="155" y1="196.575" x2="158.173" y2="206" gradientUnits="userSpaceOnUse"/><linearGradient xlink:href="#linearGradient11855" id="linearGradient11857" x1="159" y1="196" x2="159" y2="200" gradientUnits="userSpaceOnUse"/><linearGradient gradientTransform="matrix(1.33333 0 0 1.33333 58.138 57.825)" xlink:href="#linearGradient1272" id="linearGradient1274-3" x1="132.528" y1="193" x2="189" y2="122" gradientUnits="userSpaceOnUse"/><linearGradient gradientTransform="matrix(1.33333 0 0 1.33333 58.138 57.825)" xlink:href="#linearGradient1064" id="linearGradient1165-5" gradientUnits="userSpaceOnUse" x1="125" y1="203" x2="195" y2="117.567"/><linearGradient gradientTransform="matrix(1.33333 0 0 1.33333 58.138 57.825)" xlink:href="#linearGradient1264" id="linearGradient1266-6" x1="128" y1="118" x2="193" y2="118" gradientUnits="userSpaceOnUse"/><linearGradient gradientTransform="matrix(1.33333 0 0 1.33333 58.138 57.825)" xlink:href="#linearGradient1176" id="linearGradient1178-1" x1="129" y1="200" x2="191.567" y2="121" gradientUnits="userSpaceOnUse"/><linearGradient xlink:href="#linearGradient1151" id="linearGradient1185-0" gradientUnits="userSpaceOnUse" x1="144" y1="200" x2="179.567" y2="133" gradientTransform="matrix(1.33333 0 0 1.35185 58.138 55.381)"/><linearGradient gradientTransform="matrix(1.33333 0 0 1.33333 58.138 57.825)" xlink:href="#linearGradient11855" id="linearGradient11857-6" x1="159" y1="196" x2="159" y2="200" gradientUnits="userSpaceOnUse"/><linearGradient gradientTransform="matrix(1.33333 0 0 1.33333 58.138 57.825)" xlink:href="#linearGradient11845" id="linearGradient11847-1" x1="155" y1="196.575" x2="158.173" y2="206" gradientUnits="userSpaceOnUse"/><linearGradient xlink:href="#linearGradient11855" id="linearGradient1417" gradientUnits="userSpaceOnUse" gradientTransform="matrix(1.33333 0 0 1.33333 58.138 57.825)" x1="159" y1="196" x2="159" y2="200"/><linearGradient xlink:href="#linearGradient1064" id="linearGradient1419" gradientUnits="userSpaceOnUse" x1="125" y1="203" x2="195" y2="117.567"/><linearGradient xlink:href="#linearGradient1109" id="linearGradient1421" gradientUnits="userSpaceOnUse" x1="194" y1="193.493" x2="194" y2="175.102"/><linearGradient xlink:href="#linearGradient1064" id="linearGradient1423" gradientUnits="userSpaceOnUse" x1="125" y1="203" x2="195" y2="117.567"/><linearGradient gradientTransform="matrix(.67667 0 0 .67667 -28.242 -28.112)" xlink:href="#linearGradient1272" id="linearGradient1274-4" x1="132.528" y1="193" x2="189" y2="122" gradientUnits="userSpaceOnUse"/><linearGradient gradientTransform="matrix(.67667 0 0 .67667 -28.242 -28.112)" xlink:href="#linearGradient1064" id="linearGradient1165-54" gradientUnits="userSpaceOnUse" x1="125" y1="203" x2="195" y2="117.567"/><linearGradient gradientTransform="matrix(.67667 0 0 .67667 -28.242 -28.112)" xlink:href="#linearGradient1264" id="linearGradient1266-4" x1="128" y1="118" x2="193" y2="118" gradientUnits="userSpaceOnUse"/><linearGradient gradientTransform="matrix(.67667 0 0 .67667 -28.242 -28.112)" xlink:href="#linearGradient1176" id="linearGradient1178-7" x1="129" y1="200" x2="191.567" y2="121" gradientUnits="userSpaceOnUse"/><linearGradient xlink:href="#linearGradient1151" id="linearGradient1185-8" gradientUnits="userSpaceOnUse" x1="144" y1="200" x2="179.567" y2="133" gradientTransform="matrix(.67667 0 0 .68606 -28.242 -29.352)"/><linearGradient gradientTransform="matrix(.67667 0 0 .67667 -28.242 -28.112)" xlink:href="#linearGradient11855" id="linearGradient11857-4" x1="159" y1="196" x2="159" y2="200" gradientUnits="userSpaceOnUse"/><linearGradient gradientTransform="matrix(.67667 0 0 .67667 -28.242 -28.112)" xlink:href="#linearGradient11845" id="linearGradient11847-0" x1="155" y1="196.575" x2="158.173" y2="206" gradientUnits="userSpaceOnUse"/><linearGradient xlink:href="#linearGradient11855" id="linearGradient1575" gradientUnits="userSpaceOnUse" gradientTransform="matrix(.67667 0 0 .67667 -28.242 -28.112)" x1="159" y1="196" x2="159" y2="200"/><linearGradient xlink:href="#linearGradient1064" id="linearGradient1577" gradientUnits="userSpaceOnUse" x1="125" y1="203" x2="195" y2="117.567"/><linearGradient xlink:href="#linearGradient1109" id="linearGradient1579" gradientUnits="userSpaceOnUse" x1="194" y1="193.493" x2="194" y2="175.102"/><linearGradient xlink:href="#linearGradient1064" id="linearGradient1581" gradientUnits="userSpaceOnUse" x1="125" y1="203" x2="195" y2="117.567"/><linearGradient gradientTransform="matrix(.5 0 0 .5 -56.025 -55.557)" xlink:href="#linearGradient1272" id="linearGradient1274-9" x1="132.528" y1="193" x2="189" y2="122" gradientUnits="userSpaceOnUse"/><linearGradient gradientTransform="matrix(.5 0 0 .5 -56.025 -55.557)" xlink:href="#linearGradient1064" id="linearGradient1165-0" gradientUnits="userSpaceOnUse" x1="125" y1="203" x2="195" y2="117.567"/><linearGradient gradientTransform="matrix(.5 0 0 .5 -56.025 -55.557)" xlink:href="#linearGradient1264" id="linearGradient1266-5" x1="128" y1="118" x2="193" y2="118" gradientUnits="userSpaceOnUse"/><linearGradient xlink:href="#linearGradient1151" id="linearGradient1185-5" gradientUnits="userSpaceOnUse" x1="144" y1="200" x2="179.567" y2="133" gradientTransform="matrix(.5 0 0 .50694 -56.025 -56.474)"/><linearGradient xlink:href="#linearGradient11855" id="linearGradient1733" gradientUnits="userSpaceOnUse" gradientTransform="matrix(.5 0 0 .5 -56.025 -55.557)" x1="159" y1="196" x2="159" y2="200"/><linearGradient xlink:href="#linearGradient1064" id="linearGradient1735" gradientUnits="userSpaceOnUse" x1="125" y1="203" x2="195" y2="117.567"/><linearGradient xlink:href="#linearGradient1109" id="linearGradient1737" gradientUnits="userSpaceOnUse" x1="194" y1="193.493" x2="194" y2="175.102"/><linearGradient xlink:href="#linearGradient1064" id="linearGradient1739" gradientUnits="userSpaceOnUse" x1="125" y1="203" x2="195" y2="117.567"/><linearGradient gradientTransform="matrix(.33833 0 0 .33833 -69.748 -70.527)" xlink:href="#linearGradient1272" id="linearGradient1274-9-2" x1="132.528" y1="193" x2="189" y2="122" gradientUnits="userSpaceOnUse"/><linearGradient gradientTransform="matrix(.33833 0 0 .33833 -69.748 -70.527)" xlink:href="#linearGradient1064" id="linearGradient1165-0-0" gradientUnits="userSpaceOnUse" x1="125" y1="203" x2="195" y2="117.567"/><linearGradient gradientTransform="matrix(.33833 0 0 .33833 -69.748 -70.527)" xlink:href="#linearGradient1264" id="linearGradient1266-5-4" x1="128" y1="118" x2="193" y2="118" gradientUnits="userSpaceOnUse"/><linearGradient xlink:href="#linearGradient1151" id="linearGradient1185-5-2" gradientUnits="userSpaceOnUse" x1="144" y1="200" x2="179.567" y2="133" gradientTransform="matrix(.33833 0 0 .34303 -69.748 -71.147)"/><linearGradient xlink:href="#linearGradient11855" id="linearGradient1733-1" gradientUnits="userSpaceOnUse" gradientTransform="matrix(.33833 0 0 .33833 -69.748 -70.527)" x1="159" y1="196" x2="159" y2="200"/><linearGradient xlink:href="#linearGradient1064" id="linearGradient1939" gradientUnits="userSpaceOnUse" x1="125" y1="203" x2="195" y2="117.567"/><linearGradient xlink:href="#linearGradient1109" id="linearGradient1941" gradientUnits="userSpaceOnUse" x1="194" y1="193.493" x2="194" y2="175.102"/><linearGradient xlink:href="#linearGradient1064" id="linearGradient1943" gradientUnits="userSpaceOnUse" x1="125" y1="203" x2="195" y2="117.567"/><linearGradient xlink:href="#linearGradient11855" id="linearGradient1733-1-1" gradientUnits="userSpaceOnUse" gradientTransform="translate(-85.264 -85.19) scale(.25506)" x1="159" y1="196" x2="159" y2="200"/><linearGradient xlink:href="#linearGradient1151" id="linearGradient1185-5-2-6" gradientUnits="userSpaceOnUse" x1="144" y1="200" x2="179.567" y2="133" gradientTransform="matrix(.25506 0 0 .2586 -85.264 -85.657)"/><linearGradient gradientTransform="translate(-85.264 -85.19) scale(.25506)" xlink:href="#linearGradient1264" id="linearGradient1266-5-4-3" x1="128" y1="118" x2="193" y2="118" gradientUnits="userSpaceOnUse"/><linearGradient gradientTransform="translate(-85.264 -85.19) scale(.25506)" xlink:href="#linearGradient1064" id="linearGradient1165-0-0-5" gradientUnits="userSpaceOnUse" x1="125" y1="203" x2="195" y2="117.567"/><linearGradient gradientTransform="translate(-85.264 -85.19) scale(.25506)" xlink:href="#linearGradient1272" id="linearGradient1274-9-2-6" x1="132.528" y1="193" x2="189" y2="122" gradientUnits="userSpaceOnUse"/><linearGradient xlink:href="#linearGradient1151" id="linearGradient1185-5-2-6-8" gradientUnits="userSpaceOnUse" x1="144" y1="200" x2="179.567" y2="133" gradientTransform="matrix(.16911 0 0 .17146 -90.921 -91.584)"/><linearGradient gradientTransform="matrix(.16911 0 0 .16911 -90.921 -91.274)" xlink:href="#linearGradient1064" id="linearGradient1165-0-0-5-4" gradientUnits="userSpaceOnUse" x1="125" y1="203" x2="195" y2="117.567"/><linearGradient gradientTransform="matrix(.16911 0 0 .16911 -90.921 -91.274)" xlink:href="#linearGradient1272" id="linearGradient1274-9-2-6-6" x1="132.528" y1="193" x2="189" y2="122" gradientUnits="userSpaceOnUse"/><style id="style51071-8">.str0{stroke:#1f1a17;stroke-width:3}.fil0{fill:none}</style><style id="style2031-6">.str0{stroke:#1f1a17;stroke-width:.0762}.fil0,.fil1{fill:none}.fil1{fill-rule:nonzero}</style><style id="style5368-2">.str0,.str1{stroke:#000;stroke-width:63}.str1{stroke:#09098f}.fil5{fill:none}.fil1,.fil2{fill:#000}.fil3{fill:#4d66cc}.fil0{fill:#576ecd}.fil4{fill:#89a1d4}</style><style id="style51071">.str0{stroke:#1f1a17;stroke-width:3}.fil0{fill:none}</style><style id="style2031">.str0{stroke:#1f1a17;stroke-width:.0762}.fil0,.fil1{fill:none}.fil1{fill-rule:nonzero}</style><style id="style5368">.str0,.str1{stroke:#000;stroke-width:63}.str1{stroke:#09098f}.fil5{fill:none}.fil1,.fil2{fill:#000}.fil3{fill:#4d66cc}.fil0{fill:#576ecd}.fil4{fill:#89a1d4}</style></defs><g id="layer2" transform="translate(56 56)"><g id="layer8"><path style="isolation:auto;mix-blend-mode:normal;marker:none" d="M-53.891-55.857h18.874v22.955H-53.89z" id="rect1160-3-8-0" color="#000" overflow="visible" fill="#00010a" fill-opacity=".173" stroke-width=".255" stroke-opacity="0"/><path style="isolation:auto;mix-blend-mode:normal;marker:none" d="M-51.596-53.562h14.284v18.365h-14.284z" id="rect1187-0-0-0" color="#000" overflow="visible" fill="url(#linearGradient1274-9-2-6)" stroke-width=".255" stroke-opacity="0"/><path style="isolation:auto;mix-blend-mode:normal;marker:none" d="M-53.636-55.602v22.445h18.364v-22.445zm2.04 2.04h14.284v18.365h-14.284z" id="rect1029-4-2-4" color="#000" overflow="visible" fill="url(#linearGradient1165-0-0-5)" stroke-width=".255" stroke-opacity="0"/><path style="isolation:auto;mix-blend-mode:normal;marker:none" d="M-51.596-35.197v-18.365l-1.02-1.02v20.405z" id="path1244-44-1-6" color="#000" overflow="visible" fill="#8b86b5" fill-opacity=".435" stroke-width=".255" stroke-opacity="0"/><path id="path1250-4-0-2" d="M-37.312-35.197h-14.284l-1.02 1.02h16.324z" style="isolation:auto;mix-blend-mode:normal;marker:none" color="#000" overflow="visible" fill="#d4cfff" fill-opacity=".366" stroke-width=".255" stroke-opacity="0"/><path id="path1246-76-5-6" d="M-37.312-35.197v-18.365l1.02-1.02v20.405z" style="isolation:auto;mix-blend-mode:normal;marker:none" color="#000" overflow="visible" fill-opacity=".099" stroke-width=".255" stroke-opacity="0"/><path id="path1258-1-1-5" d="M-36.292-54.582h-16.324l-1.02-1.02h18.364z" style="isolation:auto;mix-blend-mode:normal;marker:none" color="#000" overflow="visible" fill="url(#linearGradient1266-5-4-3)" stroke-width=".255" stroke-opacity="0"/><path style="isolation:auto;mix-blend-mode:normal;marker:none" d="M-49.56-50.733h10.211c.28 0 .506.226.506.506v.012c0 .28-.225.506-.506.506h-10.21a.505.505 0 0 1-.506-.506v-.012c0-.28.225-.506.506-.506z" id="rect1276-5-0-6" color="#000" display="block" overflow="visible" fill="#2d2d2d" fill-opacity=".995" stroke-width=".103"/><path style="isolation:auto;mix-blend-mode:normal;marker:none" d="M-49.045-50.22h9.182s.51.509.51 1.02v13.01l.51.993-.255 1.02 1.892 2.156h-14.323l1.719-2.156-.255-1.02.51-.96v-13.037c0-.505.51-1.025.51-1.025z" id="rect1145-9-8-9" color="#000" overflow="visible" fill="url(#linearGradient1185-5-2-6)" stroke-width=".167" stroke-opacity=".262" paint-order="stroke fill markers"/><path style="isolation:auto;mix-blend-mode:normal;marker:none" d="M-40.795-39.512a.437.437 0 0 1-.14-.08c-.22-.09-.45-.156-.656-.283-.071-.01-.14-.029-.19-.089-.037-.01-.068-.035-.105-.046a.467.467 0 0 1-.265-.17c-.04-.027-.084-.052-.123-.083a.167.167 0 0 1-.092-.121c-.018-.079-.042-.157-.063-.235-.028-.078-.03-.161-.046-.242-.01-.045-.02-.085-.07-.098a.098.098 0 0 0-.045-.01c-.031 0-.062.012-.092.018a.225.225 0 0 1-.049.006c-.06 0-.095-.034-.107-.113-.01-.07-.029-.142-.032-.211-.008-.156-.03-.322.117-.436a6.22 6.22 0 0 0 .402-1.103c.023-.086.063-.158.175-.161.067-.002.122-.05.144-.123.066-.223.129-.448.23-.658.032-.153.107-.296.114-.455-.002-.032.007-.064.004-.096l-.018-.034-.017-.012c.003-.068.008-.137.006-.204-.003-.096-.049-.174-.14-.199-.085-.022-.1-.07-.095-.146.019-.3.036-.6.053-.9l-.003-.027v-.018c-.009-.091-.016-.182-.027-.273-.024-.217-.047-.436-.159-.628a2.17 2.17 0 0 0-.896-.852c-.32-.165-.667-.247-1.017-.318a2.497 2.497 0 0 0-.5-.052c-.527 0-1.006.184-1.438.558l.004.015a.43.43 0 0 0-.15.164 1.314 1.314 0 0 1-.268.33c-.188.178-.291.385-.26.649l-.021.012-.024.033c-.045.214.012.427.011.64.052.181.053.368.068.553.008.101-.02.17-.116.205-.123.044-.173.144-.189.265a.943.943 0 0 0 .014.377c.048.177.098.352.154.526.089.146.143.31.175.475.02.11.066.172.16.207.078.029.12.083.137.163.028.129.075.25.114.375.045.102.119.192.12.31l.008.036c.214.346.329.709.188 1.116a.093.093 0 0 1-.07.034c-.05 0-.098-.038-.147-.039h-.038c-.055 0-.1.008-.114.083-.055.176-.085.36-.14.537a.328.328 0 0 1-.17.214c-.198.102-.4.195-.615.256-.142.103-.315.134-.474.194a5.24 5.24 0 0 1-.535.161c2.142 1.325 5.633 1.13 7.318.003z" id="path1043-21-0-7" color="#000" overflow="visible" fill="#eff9ff" stroke-width=".152" stroke-opacity="0"/><path style="isolation:auto;mix-blend-mode:normal;marker:none" d="M-50.065-35.197h11.222l-.255 1.02H-49.81z" id="rect11836-3-1-1" color="#000" display="block" overflow="visible" fill="url(#linearGradient1733-1-1)" stroke-width=".102"/><g id="g11818-78-6-2" transform="matrix(.1571 0 0 .1571 -72.625 -65.705)" color="#000"><g id="g11788-5-4-8" transform="translate(0 1.686)"><path style="isolation:auto;mix-blend-mode:normal;marker:none" d="M119.492 126h.425c3.601 0 6.5 2.899 6.5 6.5s-2.899 6.5-6.5 6.5h-.425a6.486 6.486 0 0 1-6.5-6.5c0-3.601 2.9-6.5 6.5-6.5z" id="rect11775-4-6-2" display="block" overflow="visible" fill="#343441" stroke-width=".4"/><path style="isolation:auto;mix-blend-mode:normal;marker:none" d="M124.157 132.5a4.453 4.453 0 0 1-4.452 4.453 4.453 4.453 0 0 1-4.453-4.453 4.453 4.453 0 0 1 4.453-4.453 4.453 4.453 0 0 1 4.452 4.453z" id="circle11777-18-2-9" display="block" overflow="visible" fill="#fbfbfb" stroke-width=".524"/></g><g transform="translate(0 27.694)" id="g11796-5-5-9"><path style="isolation:auto;mix-blend-mode:normal;marker:none" d="M119.492 126h.425c3.601 0 6.5 2.899 6.5 6.5s-2.899 6.5-6.5 6.5h-.425a6.486 6.486 0 0 1-6.5-6.5c0-3.601 2.9-6.5 6.5-6.5z" id="rect11792-7-8-6" display="block" overflow="visible" fill="#343441" stroke-width=".4"/><path style="isolation:auto;mix-blend-mode:normal;marker:none" d="M124.157 132.5a4.453 4.453 0 0 1-4.452 4.453 4.453 4.453 0 0 1-4.453-4.453 4.453 4.453 0 0 1 4.453-4.453 4.453 4.453 0 0 1 4.452 4.453z" id="circle11794-53-6-0" display="block" overflow="visible" fill="#fbfbfb" stroke-width=".524"/></g><g id="g11804-8-2-2" transform="translate(0 53.7)"><path style="isolation:auto;mix-blend-mode:normal;marker:none" d="M119.492 126h.425c3.601 0 6.5 2.899 6.5 6.5s-2.899 6.5-6.5 6.5h-.425a6.486 6.486 0 0 1-6.5-6.5c0-3.601 2.9-6.5 6.5-6.5z" id="rect11800-1-8-7" display="block" overflow="visible" fill="#343441" stroke-width=".4"/><path style="isolation:auto;mix-blend-mode:normal;marker:none" d="M124.157 132.5a4.453 4.453 0 0 1-4.452 4.453 4.453 4.453 0 0 1-4.453-4.453 4.453 4.453 0 0 1 4.453-4.453 4.453 4.453 0 0 1 4.452 4.453z" id="circle11802-8-4-6" display="block" overflow="visible" fill="#fbfbfb" stroke-width=".524"/></g><g id="g11826-96-7-1" transform="translate(0 -24.32)"><path style="isolation:auto;mix-blend-mode:normal;marker:none" d="M119.492 126h.425c3.601 0 6.5 2.899 6.5 6.5s-2.899 6.5-6.5 6.5h-.425a6.486 6.486 0 0 1-6.5-6.5c0-3.601 2.9-6.5 6.5-6.5z" id="rect11822-3-2-3" display="block" overflow="visible" fill="#343441" stroke-width=".4"/><path style="isolation:auto;mix-blend-mode:normal;marker:none" d="M124.157 132.5a4.453 4.453 0 0 1-4.452 4.453 4.453 4.453 0 0 1-4.453-4.453 4.453 4.453 0 0 1 4.453-4.453 4.453 4.453 0 0 1 4.452 4.453z" id="circle11824-3-4-2" display="block" overflow="visible" fill="#fbfbfb" stroke-width=".524"/></g><g transform="translate(0 -50.328)" id="g11834-3-0-1"><path style="isolation:auto;mix-blend-mode:normal;marker:none" d="M119.492 126h.425c3.601 0 6.5 2.899 6.5 6.5s-2.899 6.5-6.5 6.5h-.425a6.486 6.486 0 0 1-6.5-6.5c0-3.601 2.9-6.5 6.5-6.5z" id="rect11830-6-6-5" display="block" overflow="visible" fill="#343441" stroke-width=".4"/><path style="isolation:auto;mix-blend-mode:normal;marker:none" d="M124.157 132.5a4.453 4.453 0 0 1-4.452 4.453 4.453 4.453 0 0 1-4.453-4.453 4.453 4.453 0 0 1 4.453-4.453 4.453 4.453 0 0 1 4.452 4.453z" id="circle11832-0-2-9" display="block" overflow="visible" fill="#fbfbfb" stroke-width=".524"/></g></g></g></g></svg>