<svg xmlns:osb="http://www.openswatchbook.org/uri/2009/osb" xmlns="http://www.w3.org/2000/svg" xmlns:xlink="http://www.w3.org/1999/xlink" height="24" viewBox="0 0 24 24" width="24"><title>Template icons dark</title><defs><linearGradient id="e"><stop offset="0" stop-color="#a2f2e6"/><stop offset="1" stop-color="#77d6f5"/></linearGradient><linearGradient id="d"><stop offset="0" stop-color="#2384a9"/><stop offset="1" stop-color="#25ada9" stop-opacity=".953"/></linearGradient><linearGradient id="c" osb:paint="solid"><stop offset="0" stop-opacity=".134"/></linearGradient><linearGradient id="b" osb:paint="solid"><stop offset="0" stop-color="#fff" stop-opacity=".028"/></linearGradient><linearGradient id="a"><stop offset="0" stop-opacity=".036"/><stop offset="1" stop-color="#afe4ff" stop-opacity=".042"/></linearGradient><linearGradient xlink:href="#e" id="k" x1="142" y1="130" x2="187" y2="140" gradientUnits="userSpaceOnUse" gradientTransform="translate(-131.817 -115.82) scale(.54546)"/><linearGradient xlink:href="#c" id="j" gradientUnits="userSpaceOnUse" gradientTransform="translate(-102.19 -103.272) scale(.36363)" x1="124" y1="154.5" x2="196" y2="154.5"/><linearGradient xlink:href="#b" id="i" gradientUnits="userSpaceOnUse" gradientTransform="translate(-102.19 -103.272) scale(.36363)" x1="124" y1="155.5" x2="196" y2="155.5"/><linearGradient xlink:href="#b" id="h" gradientUnits="userSpaceOnUse" x1="124" y1="155.5" x2="196" y2="155.5" gradientTransform="translate(-95.19 -102.908) scale(.36363)"/><linearGradient xlink:href="#c" id="g" gradientUnits="userSpaceOnUse" x1="124" y1="154.5" x2="196" y2="154.5" gradientTransform="translate(-95.19 -102.908) scale(.36363)"/><linearGradient gradientTransform="translate(-102.19 -102.18) scale(.36363)" xlink:href="#d" id="f" x1="183.083" y1="188.737" x2="165.135" y2="176.5" gradientUnits="userSpaceOnUse"/></defs><path style="isolation:auto;mix-blend-mode:normal;marker:none" d="M4 0h16c1.612 0 3 1.388 3 3v18c0 1.612-1.388 3-3 3H4c-1.612 0-3-1.388-3-3V3c0-1.612 1.388-3 3-3z" color="#000" overflow="visible" fill-opacity=".141" stroke-width=".803" stroke-miterlimit="0" paint-order="fill markers stroke"/><path style="isolation:auto;mix-blend-mode:normal;marker:none" d="M5 1h14c1.612 0 3 1.388 3 3v16c0 1.612-1.388 3-3 3H5c-1.612 0-3-1.388-3-3V4c0-1.612 1.388-3 3-3z" color="#000" overflow="visible" fill="#31353f" stroke-width=".803" stroke-miterlimit="0" paint-order="fill markers stroke"/><path style="isolation:auto;mix-blend-mode:normal;marker:none" d="M2 10h20v10c0 1.612-1.388 3-3 3H5c-1.612 0-3-1.388-3-3z" color="#000" overflow="visible" fill="#333842" stroke-width=".93" stroke-miterlimit="0" paint-order="fill markers stroke"/><path style="isolation:auto;mix-blend-mode:normal;marker:none" d="M-43-39v6h6c1.612 0 3-1.292 3-3v-3z" color="#000" overflow="visible" fill="url(#f)" stroke-width=".93" stroke-miterlimit="0" paint-order="fill markers stroke" transform="translate(56 56)"/><path style="isolation:auto;mix-blend-mode:normal;marker:none" d="M19 1c1.603 0 3 1.397 3 3v6H2V4c0-1.603 1.397-2.98 3-3z" color="#000" overflow="visible" fill-opacity=".198" stroke-width=".803" stroke-miterlimit="0" paint-order="fill markers stroke"/><path d="M2 10v1h20v-1z" style="marker:none" fill="#d7fde9" fill-opacity=".047" stroke-width=".684" paint-order="fill markers stroke"/><path d="M-45-46v13h1v-13z" fill="url(#g)" stroke-width=".684" transform="translate(56 56)"/><path d="M-44-46v13h1v-13z" fill="url(#h)" stroke-width=".684" transform="translate(56 56)"/><path d="M-54-40v1h20v-1z" fill="url(#i)" stroke-width=".684" transform="translate(56 56)"/><path d="M-54-41v1h20v-1z" fill="url(#j)" stroke-width=".684" transform="translate(56 56)"/><path style="line-height:1.25;-inkscape-font-specification:'Liberation Sans';text-align:center" d="M7 12v1H6v1h1v1h1v-1h1v-1H8v-1zm8 1v1h4v-1z" font-weight="400" font-size="2.853" font-family="Liberation Sans" letter-spacing="0" word-spacing="0" text-anchor="middle" fill="#95e7d0" fill-opacity=".698" stroke-width=".889"/><path d="M15 18v1h4v-1zm0 2v1h4v-1z" style="line-height:1.25;-inkscape-font-specification:'Liberation Sans';text-align:center" font-weight="400" font-size="2.853" font-family="Liberation Sans" letter-spacing="0" word-spacing="0" text-anchor="middle" fill="#ecf8fd" fill-opacity=".849" stroke-width=".889"/><path style="line-height:normal;font-variant-ligatures:normal;font-variant-position:normal;font-variant-caps:normal;font-variant-numeric:normal;font-variant-alternates:normal;font-feature-settings:normal;text-indent:0;text-align:start;text-decoration-line:none;text-decoration-style:solid;text-decoration-color:#000;text-transform:none;text-orientation:mixed;shape-padding:0;isolation:auto;mix-blend-mode:normal;marker:none" d="M5 1C3.395 1 2 2.395 2 4v16c0 1.605 1.395 3 3 3h14c1.605 0 3-1.395 3-3V4c0-1.605-1.395-3-3-3zm0 1h14c1.215 0 2 .785 2 2v16c0 1.215-.785 2-2 2H5c-1.215 0-2-.785-2-2V4c0-1.215.785-2 2-2z" color="#000" font-weight="400" font-family="sans-serif" white-space="normal" overflow="visible" fill="#fff" fill-opacity=".073" stroke-width=".727" stroke-miterlimit="0" paint-order="fill markers stroke"/><path style="line-height:1.25;-inkscape-font-specification:'Liberation Sans';text-align:center" d="M-49-52v1h2l-1 1 1 1h-2v1h3v-1l-1-1 1-1v-1zm7 0h-1v1h1v3h1v-4zm4 0l-2 2v1h2v1h1v-4zm0 1v1.008L-39-50zm-7 2v1h1v-1z" font-weight="400" font-size="2.853" font-family="Liberation Sans" letter-spacing="0" word-spacing="0" text-anchor="middle" fill="url(#k)" stroke-width=".545" transform="translate(56 56)"/><path style="isolation:auto;mix-blend-mode:normal;marker:none" d="M6 19h1v-1H6zm1 0v1h1v-1zm1 0h1v-1H8zm0 1v1h1v-1zm-1 0H6v1h1z" color="#000" overflow="visible" fill="#77b2ae" stroke-width=".545" paint-order="fill markers stroke"/></svg>