<svg xmlns="http://www.w3.org/2000/svg" xmlns:xlink="http://www.w3.org/1999/xlink" height="24" viewBox="0 0 24 24" width="24"><title>Template icons dark</title><defs><linearGradient id="a"><stop offset="0" stop-color="#4b587a"/><stop offset="1" stop-color="#7a6982"/></linearGradient><linearGradient id="c"><stop offset="0" stop-color="#3e4453"/><stop offset="1" stop-color="#222630"/></linearGradient><linearGradient id="b"><stop offset="0" stop-color="#d4a8cf"/><stop offset="1" stop-color="#80c4e1" stop-opacity=".99"/></linearGradient><linearGradient id="d"><stop offset="0" stop-color="#9a9a9a" stop-opacity=".973"/><stop offset="1" stop-color="#f4f4f4"/></linearGradient><linearGradient xlink:href="#b" id="e" x1="4.995" y1="6.196" x2="40.265" y2="45.14" gradientUnits="userSpaceOnUse" gradientTransform="matrix(.54222 0 0 .54235 -55.61 -57.735)"/><linearGradient xlink:href="#c" id="f" gradientUnits="userSpaceOnUse" gradientTransform="matrix(.48469 0 0 .53597 -30.013 -38.63)" x1="-26.746" y1="-29.715" x2="-26.746" y2="10.031"/><linearGradient xlink:href="#d" id="g" gradientUnits="userSpaceOnUse" gradientTransform="matrix(.8931 0 0 .8931 -62.462 -52.134)" x1="20.942" y1="20.603" x2="20.942" y2="-3.389"/><linearGradient xlink:href="#a" id="h" gradientUnits="userSpaceOnUse" gradientTransform="matrix(.92153 0 0 .92153 14.613 13.752)" x1="191.407" y1="201.023" x2="181.641" y2="174.894"/></defs><g color="#000"><path style="isolation:auto;mix-blend-mode:normal;marker:none" d="M2 0h20v24H2z" display="block" overflow="visible" fill-opacity=".088" stroke-width=".11" stroke-opacity=".52"/><path d="M-53-55v22h18v-22zm1 1h16v20h-16z" style="line-height:normal;font-variant-ligatures:normal;font-variant-position:normal;font-variant-caps:normal;font-variant-numeric:normal;font-variant-alternates:normal;font-feature-settings:normal;text-indent:0;text-align:start;text-decoration-line:none;text-decoration-style:solid;text-decoration-color:#000;text-transform:none;text-orientation:mixed;shape-padding:0;isolation:auto;mix-blend-mode:normal;marker:none" font-weight="400" font-family="sans-serif" white-space="normal" overflow="visible" fill="url(#e)" fill-opacity=".52" stroke-width=".267" transform="translate(56 56)"/><path d="M-52-54h16v20h-16z" style="isolation:auto;mix-blend-mode:normal;marker:none" display="block" overflow="visible" fill="url(#f)" stroke-width=".102" stroke-opacity=".52" transform="translate(56 56)"/><path style="isolation:auto;mix-blend-mode:normal;marker:none" d="M-44-32l-10-6.882V-50l10-6 10 6v11.055z" overflow="visible" fill="url(#g)" stroke-width=".397" stroke-linejoin="round" stroke-opacity=".424" transform="translate(56 56)"/><path style="isolation:auto;mix-blend-mode:normal;marker:none" d="M12 0L2 6v1l10-6 10 6V6z" display="block" overflow="visible" fill="#fff" stroke-width=".397" stroke-linejoin="round" stroke-opacity=".424"/><g opacity=".8"><path style="isolation:auto;mix-blend-mode:normal;marker:none" display="block" overflow="visible" fill="#869eb6" stroke-width="2.584" d="M9 6h2v1H9z"/><path style="isolation:auto;mix-blend-mode:normal;marker:none" display="block" overflow="visible" fill="#8e9f81" stroke-width="2.971" d="M12 6h3v1h-3z"/><path style="isolation:auto;mix-blend-mode:normal;marker:none" display="block" overflow="visible" fill="#987f95" stroke-width="2.584" d="M9 8h2v1H9z"/><path style="isolation:auto;mix-blend-mode:normal;marker:none" display="block" overflow="visible" fill="#9d875f" stroke-width="3.431" d="M12 8h3v1h-3z"/><path style="isolation:auto;mix-blend-mode:normal;marker:none" display="block" overflow="visible" fill="#987f95" stroke-width="1.989" d="M9 12h2v1H9z"/><path style="isolation:auto;mix-blend-mode:normal;marker:none" display="block" overflow="visible" fill="#68798d" stroke-width="2.801" d="M12 12h3v1h-3z"/><path style="isolation:auto;mix-blend-mode:normal;marker:none" display="block" overflow="visible" fill="#b36b75" stroke-width="1.531" d="M9 14h2v1H9z"/><path style="isolation:auto;mix-blend-mode:normal;marker:none" display="block" overflow="visible" fill="#9a6151" stroke-width="1.866" d="M12 14h2v1h-2z"/><path style="isolation:auto;mix-blend-mode:normal;marker:none" display="block" overflow="visible" fill="#a66f71" stroke-width="2.285" d="M9 16h3v1H9z"/><path style="isolation:auto;mix-blend-mode:normal;marker:none" display="block" overflow="visible" fill="#59758c" stroke-width="2.62" d="M13 16h3v1h-3z"/><path style="isolation:auto;mix-blend-mode:normal;marker:none" display="block" overflow="visible" fill="#4d854d" stroke-width="1.646" d="M16 12h2v1h-2z"/><path style="isolation:auto;mix-blend-mode:normal;marker:none" display="block" overflow="visible" fill="#b36b75" stroke-width="1.897" d="M16 6h2v1h-2z"/><path style="isolation:auto;mix-blend-mode:normal;marker:none" display="block" overflow="visible" fill="#454b58" stroke-width="2.093" d="M6 6h1v1H6zM6 8h1v1H6z"/><path style="isolation:auto;mix-blend-mode:normal;marker:none" display="block" overflow="visible" fill="#454b58" stroke-width="3.139" d="M6 10h1v1H6zM6 12h1v1H6zM6 14h1v1H6zM6 16h1v1H6z"/></g></g></svg>