<svg xmlns="http://www.w3.org/2000/svg" xmlns:xlink="http://www.w3.org/1999/xlink" height="24" viewBox="0 0 24 24" width="24"><title>Template icons dark</title><defs><linearGradient id="f"><stop offset="0" stop-color="#647780"/><stop offset="1" stop-color="#fff"/></linearGradient><linearGradient id="e"><stop offset="0" stop-opacity=".135"/><stop offset="1" stop-opacity="0"/></linearGradient><linearGradient id="d"><stop offset="0" stop-color="#391f3c" stop-opacity=".059"/><stop offset="1" stop-color="#391f3c" stop-opacity="0"/></linearGradient><linearGradient id="c"><stop offset="0" stop-color="#d8d8d8"/><stop offset="1" stop-color="#fff" stop-opacity=".995"/></linearGradient><linearGradient id="a"><stop offset="0" stop-color="#626262"/><stop offset="1" stop-color="#626262" stop-opacity="0"/></linearGradient><linearGradient id="b"><stop offset="0" stop-color="#69c2b7"/><stop offset="1" stop-color="#64a5b5"/></linearGradient><linearGradient xlink:href="#b" id="g" gradientUnits="userSpaceOnUse" gradientTransform="matrix(.32773 0 0 .32773 -96.455 -95.494)" x1="164" y1="143.615" x2="164" y2="180"/></defs><path d="M23 19v1c0 1.726-2.274 4-4 4H5c-1.726 0-4-2.274-4-4v-1z" style="isolation:auto;mix-blend-mode:normal;marker:none" color="#000" display="block" overflow="visible" fill="#cacaca" stroke-width=".75"/><path style="isolation:auto;mix-blend-mode:normal;marker:none" d="M5.04 0H19.5C21.226 0 23 2.274 23 4v16c0 1.726-2.274 3-4 3H5c-1.726 0-4-1.274-4-3V4.04C1 2.312 3.313 0 5.04 0z" color="#000" display="block" overflow="visible" fill="#fff" fill-opacity=".974" stroke-width=".75"/><path style="isolation:auto;mix-blend-mode:normal;marker:none" d="M6 0C2 0 1 3 1 5h22c0-3-1.522-5-4-5z" color="#000" display="block" overflow="visible" fill="#585154" fill-opacity=".172" stroke-width=".159" stroke-opacity=".583"/><path style="line-height:1000%;-inkscape-font-specification:Roboto" d="M-48.644-48.495c-1.04 0-1.9.307-2.578.92-.672.609-1.008 1.374-1.008 2.298h1.48c0-.603.19-1.086.57-1.449.383-.368.896-.552 1.536-.552 1.361 0 2.041.682 2.041 2.049 0 .608-.2 1.091-.6 1.449-.4.357-.95.542-1.649.552h-1.112v1.209h1.112c.785.01 1.385.198 1.801.56.417.363.624.883.624 1.561 0 .7-.188 1.236-.567 1.61-.38.373-.926.56-1.642.56-.672 0-1.209-.185-1.609-.553-.4-.368-.6-.86-.6-1.473h-1.489c0 .971.342 1.754 1.025 2.346.688.592 1.58.888 2.673.888 1.094 0 1.983-.306 2.666-.92.683-.614 1.025-1.444 1.025-2.49 0-.678-.176-1.252-.528-1.721-.347-.47-.841-.806-1.482-1.008a2.95 2.95 0 0 0 1.337-1.065c.331-.475.497-.966.497-1.473 0-1.036-.313-1.844-.937-2.426-.624-.581-1.487-.872-2.586-.872zm9.374 0c-1.264 0-2.193.416-2.785 1.249-.593.832-.889 2.105-.889 3.818v1.977c.022 1.639.33 2.871.928 3.699.598.821 1.519 1.232 2.762 1.232 1.26 0 2.186-.421 2.778-1.264.593-.844.889-2.133.889-3.867v-1.921c-.016-1.676-.32-2.914-.913-3.715-.592-.805-1.516-1.208-2.77-1.208zm0 1.217c.763 0 1.321.288 1.674.864.352.57.528 1.483.528 2.738v2.426c-.016 1.216-.203 2.107-.56 2.673-.353.566-.895.848-1.626.848-.741 0-1.296-.298-1.665-.896-.362-.603-.544-1.534-.544-2.794v-2.37c.01-1.184.19-2.062.536-2.633.347-.57.9-.856 1.657-.856z" font-weight="400" font-family="Roboto" letter-spacing="0" word-spacing="0" fill="url(#g)" stroke-width="1.025" transform="translate(56 56)"/><path style="isolation:auto;mix-blend-mode:normal;marker:none" color="#000" display="block" overflow="visible" fill="#fff" fill-opacity=".797" stroke-width="2" d="M7.059 2h2v2h-2zM15 2h2v2h-2z"/></svg>