<svg xmlns="http://www.w3.org/2000/svg" xmlns:xlink="http://www.w3.org/1999/xlink" height="24" viewBox="0 0 24 24" width="24"><title>Template icons dark</title><defs><linearGradient id="k"><stop offset="0" stop-color="#3d353d"/><stop offset="1" stop-color="#3b464e"/></linearGradient><linearGradient id="j"><stop offset="0" stop-color="#6a618d"/><stop offset="1" stop-color="#5f81b6"/></linearGradient><linearGradient id="i"><stop offset="0" stop-color="#6e6492"/><stop offset="1" stop-color="#6688ba"/></linearGradient><linearGradient id="h"><stop offset="0" stop-color="#fff" stop-opacity=".368"/><stop offset="1" stop-color="#fff" stop-opacity=".289"/></linearGradient><linearGradient id="g"><stop offset="0" stop-color="#dedede"/><stop offset="1" stop-color="#cfcfcf"/></linearGradient><linearGradient id="e"><stop offset="0" stop-color="#093adc" stop-opacity=".325"/><stop offset=".514" stop-color="#621fed" stop-opacity=".099"/><stop offset="1" stop-color="#b707ff" stop-opacity=".45"/></linearGradient><linearGradient id="f"><stop offset="0" stop-color="#093adc" stop-opacity=".55"/><stop offset=".511" stop-color="#611fed" stop-opacity=".183"/><stop offset="1" stop-color="#b707ff" stop-opacity=".33"/></linearGradient><linearGradient id="d"><stop offset="0" stop-color="#fff" stop-opacity=".322"/><stop offset="1" stop-color="#fff" stop-opacity=".217"/></linearGradient><linearGradient id="a"><stop offset="0" stop-color="#9081c4"/><stop offset="1" stop-color="#8baddf"/></linearGradient><linearGradient id="b"><stop offset="0" stop-color="#9751de"/><stop offset="1" stop-color="#3c87f8"/></linearGradient><linearGradient id="c"><stop offset="0" stop-color="#eaf03f" stop-opacity=".422"/><stop offset="1" stop-color="#4e79e6" stop-opacity=".416"/></linearGradient><linearGradient xlink:href="#i" id="v" gradientUnits="userSpaceOnUse" gradientTransform="matrix(2.27654 0 0 2.19117 10.15 67.527)" x1="-28.178" y1="-55.006" x2="-19.854" y2="-47.305"/><linearGradient x1=".297" y1="-.219" x2=".827" y2=".252" gradientUnits="userSpaceOnUse" gradientTransform="scale(36.36815) rotate(18.09 -11.34 17.011)" id="l"><stop offset="0" stop-color="#cdc9c1"/><stop offset=".181" stop-color="#f4f3f1"/><stop offset=".492" stop-color="#b8b8b8"/><stop offset=".931" stop-color="#efeeeb"/><stop offset="1" stop-color="#fff"/></linearGradient><linearGradient x2="1" gradientUnits="userSpaceOnUse" gradientTransform="scale(-25.52501 25.52501) rotate(21.485 -18.377 -13.86)" id="m"><stop offset="0" stop-color="#888c8f"/><stop offset=".062" stop-color="#888c8f"/><stop offset=".677" stop-color="#fff"/><stop offset=".971" stop-color="#c5c7c6"/><stop offset="1" stop-color="#c5c7c6"/></linearGradient><linearGradient x1=".204" y1=".178" x2=".988" y2="-.108" gradientUnits="userSpaceOnUse" gradientTransform="scale(69.4056) rotate(-71.943 2.912 -.084)" id="n"><stop offset="0" stop-color="#a1a5a7"/><stop offset=".052" stop-color="#aeb1b3"/><stop offset=".178" stop-color="#d9dbdc"/><stop offset=".499" stop-color="#dcdfdf"/><stop offset=".677" stop-color="#fff"/><stop offset=".971" stop-color="#c5c7c6"/><stop offset="1" stop-color="#c5c7c6"/></linearGradient><linearGradient x1=".292" y1="-.05" x2=".949" y2="-.086" gradientUnits="userSpaceOnUse" gradientTransform="scale(36.36778 -36.36778) rotate(-68.481 -1.174 -5.63)" id="o"><stop offset="0" stop-color="#dcd9d4"/><stop offset=".019" stop-color="#dedcd7"/><stop offset=".402" stop-color="#c7d2d5"/><stop offset=".882" stop-color="#fbfbfa"/><stop offset="1" stop-color="#a7a093"/></linearGradient><linearGradient x2="1" gradientUnits="userSpaceOnUse" gradientTransform="scale(37.65896) rotate(-88.059 4.182 .033)" id="p"><stop offset="0" stop-color="#888c8f"/><stop offset=".062" stop-color="#888c8f"/><stop offset=".677" stop-color="#fff"/><stop offset=".971" stop-color="#c5c7c6"/><stop offset="1" stop-color="#c5c7c6"/></linearGradient><linearGradient x1="-.006" y1=".936" x2="1.249" y2="-.572" gradientUnits="userSpaceOnUse" gradientTransform="rotate(-88.059 163.826 7.503) scale(35.6457)" id="q"><stop offset="0" stop-color="#636869"/><stop offset=".119" stop-color="#a4a8aa"/><stop offset=".177" stop-color="#c6c9ca"/><stop offset=".265" stop-color="#b7babb"/><stop offset=".501" stop-color="#d8d8d8"/><stop offset=".642" stop-color="#cfd0d0"/><stop offset=".73" stop-color="#c9d9d9"/><stop offset=".84" stop-color="#cbcccc"/><stop offset=".971" stop-color="#dadbdb"/><stop offset="1" stop-color="#dbdddc"/></linearGradient><linearGradient xlink:href="#p" id="r" gradientUnits="userSpaceOnUse" gradientTransform="rotate(-86.571 -46.575 2.46) scale(9.34778)" x2="1"/><linearGradient xlink:href="#q" id="s" gradientUnits="userSpaceOnUse" gradientTransform="scale(8.84805) rotate(-86.571 -5.086 .458)" x1="-.006" y1=".936" x2="1.249" y2="-.572"/><linearGradient xlink:href="#m" id="t" gradientUnits="userSpaceOnUse" gradientTransform="scale(-6.33587 6.33587) rotate(19.997 24.434 15.712)" x2="1"/><linearGradient xlink:href="#n" id="u" gradientUnits="userSpaceOnUse" gradientTransform="scale(17.228) rotate(-70.454 -2.906 .898)" x1=".204" y1=".178" x2=".988" y2="-.108"/></defs><g transform="translate(56 56)"><path style="isolation:auto;mix-blend-mode:normal;marker:none" d="M-33-54l-22 .044V-34h22zm-1.1 18.889h-19.8V-52.89h19.8z" color="#000" overflow="visible" fill-opacity=".121" stroke-width="1.374" stroke-opacity=".344" paint-order="fill markers stroke"/><path d="M-50.65-56l4.343 9.559-9.693-4.93 1.584 2.28s.637 1.063 1.273 1.471c.622.4 2.292 1.382 2.292 1.382l6.154 3.341.065.144s.909.56 1.06.725c.54.586 1.106 2.144 1.26 2.924.05.245-.008.952-.012 1.003a3.045 3.045 0 0 0-1.44.819 3.088 3.088 0 0 0 .048 4.369 3.097 3.097 0 0 0 2.051.89 3.064 3.064 0 0 0 2.572-.89c1.193-1.211 1.17-3.168-.05-4.368a3.136 3.136 0 0 0-.183-.164l-1.68-3.447 3.043 1.652c.05.064.1.129.156.19 1.145 1.272 3.1 1.38 4.363.242a3.064 3.064 0 0 0 1-2.534c0-.742-.26-1.488-.798-2.084a3.09 3.09 0 0 0-4.362-.24c-.434.39-.726.879-.882 1.401-.05.002-.76.028-1.002-.03-.773-.19-2.304-.825-2.866-1.39-.008-.007-.02-.024-.029-.035l-3.365-6.91s-.908-1.71-1.28-2.35c-.38-.653-1.413-1.337-1.413-1.337zm15.247 12.504c.61.034 1.208.3 1.65.792.364.403.563.894.607 1.395a2.364 2.364 0 0 1-.78 1.723 2.386 2.386 0 0 1-3.726-.708l-.152-.372a2.394 2.394 0 0 1-.099-.495 2.363 2.363 0 0 1 2.5-2.335zm-5.926 6.023c.027 0 .055.003.083.004.166.022.33.062.49.12l.366.169a2.387 2.387 0 0 1 .542 3.752 2.363 2.363 0 0 1-1.76.704 2.39 2.39 0 0 1-1.364-.667 2.386 2.386 0 0 1-.037-3.375 2.364 2.364 0 0 1 1.68-.707z" fill="#1e1d1d" fill-opacity=".473" stroke-width=".026"/><path d="M-39.435-42.9c-.74-.16-2.21-.726-2.759-1.249-.154-.147-.67-1.02-.67-1.02l-12.494-5.951 1.562 2.13s.633.994 1.247 1.366c.602.365 2.214 1.257 2.214 1.257l13.343 6.802-1.462-3.331s-.741.049-.98-.003" fill="url(#r)" stroke-width=".024"/><path d="M-50.278-46.478c-.012-.007-1.613-.893-2.206-1.253-.583-.353-1.2-1.317-1.206-1.327l-1.272-1.735 12.009 5.72c.106.178.523.872.673 1.015.553.528 2.038 1.111 2.818 1.281.208.045.717.023.929.011l1.286 2.93-13.031-6.642" fill="url(#s)" stroke-width=".024"/><path d="M-34.065-40.22a2.27 2.27 0 0 1-3.208-.094 2.27 2.27 0 0 1 .073-3.209 2.27 2.27 0 0 1 3.209.094 2.269 2.269 0 0 1-.074 3.209zm-3.597-3.789a2.938 2.938 0 0 0-.095 4.154 2.94 2.94 0 0 0 4.155.122 2.939 2.939 0 0 0 .094-4.155 2.938 2.938 0 0 0-4.154-.12" fill="#6c6a6a" stroke-width=".024"/><path d="M-34.08-40.46a2.27 2.27 0 0 1-3.209-.094 2.27 2.27 0 0 1 .074-3.209 2.27 2.27 0 0 1 3.208.093 2.27 2.27 0 0 1-.073 3.21zm-3.597-3.79a2.938 2.938 0 0 0-.095 4.155 2.94 2.94 0 0 0 4.154.122 2.94 2.94 0 0 0 .094-4.155 2.938 2.938 0 0 0-4.153-.121" fill="#fff" stroke="#7d7569" stroke-width=".052"/><path d="M-41.454-43.63l-1.047-.607-3.245-2.304-.823-.387 1.29 3.126 4.904 2.504z" fill-opacity=".253" fill-rule="evenodd" stroke-width=".261"/><path d="M-42.04-39.795c-.167-.738-.744-2.205-1.27-2.749-.15-.153-1.027-.663-1.027-.663l-6.048-12.446 2.141 1.546s1 .624 1.377 1.236c.37.598 1.275 2.203 1.275 2.203l6.906 13.29-3.343-1.436s.043-.741-.011-.98" fill="url(#t)" stroke-width=".024"/><path d="M-41.899-38.894c.01-.212.028-.722-.019-.929-.176-.778-.77-2.26-1.303-2.808-.143-.149-.841-.56-1.02-.665l-5.814-11.964 1.738 1.254c.017.011.986.621 1.344 1.2.363.59 1.262 2.184 1.271 2.2l6.743 12.975-2.94-1.263" fill="url(#u)" stroke-width=".024"/><path d="M-42.527-34.347a2.27 2.27 0 0 1-.119-3.208 2.27 2.27 0 0 1 3.209-.098 2.27 2.27 0 0 1 .119 3.207 2.27 2.27 0 0 1-3.21.099zm-.455.486a2.938 2.938 0 0 0 4.154-.127 2.939 2.939 0 0 0-.154-4.152 2.938 2.938 0 0 0-4.153.127 2.938 2.938 0 0 0 .153 4.152" fill="#6c6a6a" stroke-width=".024"/><path d="M-42.767-34.36a2.27 2.27 0 0 1-.119-3.209 2.27 2.27 0 0 1 3.208-.098c.92.859.972 2.294.12 3.208a2.27 2.27 0 0 1-3.21.098zm-.455.486a2.938 2.938 0 0 0 4.154-.127 2.939 2.939 0 0 0-.155-4.153 2.938 2.938 0 0 0-4.152.127 2.937 2.937 0 0 0 .153 4.153" fill="#fff" stroke="#7d7569" stroke-width=".052"/><path d="M-42.96-44.333a.601.601 0 1 1-1.188.178.601.601 0 0 1 1.189-.178" fill="#9e9e9e" stroke="#000" stroke-width=".106" stroke-opacity=".577"/><path d="M-43.396-43.86l-.123-.82-.167.023.123.824.167-.027" fill="#373636" stroke-width=".024"/><rect style="isolation:auto;mix-blend-mode:normal;marker:none" width="20" height="18" x="-54" y="-53" ry="0" color="#000" overflow="visible" fill="url(#v)" stroke-width="2.233" stroke-opacity=".344" paint-order="fill markers stroke"/><path style="isolation:auto;mix-blend-mode:normal;marker:none" color="#000" overflow="visible" fill="none" stroke="#000" stroke-width=".5" stroke-linecap="square" stroke-dasharray="2,2" stroke-dashoffset="5" stroke-opacity=".5" paint-order="markers stroke fill" d="M-51.446-50.07h14.892v13.324h-14.892z"/><path style="isolation:auto;mix-blend-mode:normal;marker:none" color="#000" overflow="visible" fill="none" stroke="#fff" stroke-width=".5" stroke-linecap="square" stroke-dasharray="2,2" stroke-dashoffset="5" stroke-opacity=".879" paint-order="markers stroke fill" d="M-51.446-50.662h14.892v13.324h-14.892z"/></g></svg>