<svg xmlns="http://www.w3.org/2000/svg" xmlns:xlink="http://www.w3.org/1999/xlink" height="24" viewBox="0 0 24 24" width="24"><title>Template icons dark</title><defs><linearGradient id="c"><stop offset="0" stop-color="#8298a2"/><stop offset="1" stop-color="#c3d5dc" stop-opacity=".984"/></linearGradient><linearGradient id="d"><stop offset="0" stop-color="#889da6"/><stop offset="1" stop-color="#b9cdd5" stop-opacity=".984"/></linearGradient><linearGradient id="e"><stop offset="0" stop-color="#758d98"/><stop offset="1" stop-color="#acc5ce" stop-opacity=".984"/></linearGradient><linearGradient id="b"><stop offset="0" stop-color="#e0eef7"/><stop offset="1" stop-color="#909b9c"/></linearGradient><linearGradient id="a"><stop offset="0" stop-color="#98aab2"/><stop offset="1" stop-color="#d3e0e5" stop-opacity=".984"/></linearGradient><linearGradient xlink:href="#a" id="h" gradientUnits="userSpaceOnUse" x1="141.165" y1="190.299" x2="186.52" y2="128" gradientTransform="translate(-83.654 -83.754) scale(.24817)"/><linearGradient xlink:href="#d" id="g" gradientUnits="userSpaceOnUse" x1="141.165" y1="190.299" x2="186.52" y2="128" gradientTransform="translate(-83.654 -83.754) scale(.24817)"/><linearGradient xlink:href="#b" id="f" gradientUnits="userSpaceOnUse" gradientTransform="translate(-83.654 -84.003) scale(.24817)" x1="161" y1="199" x2="161" y2="195.016"/></defs><path style="isolation:auto;mix-blend-mode:normal;marker:none" d="M20.433 1.82a1.03 1.03 0 0 0-.206-.02H3.88a1.01 1.01 0 0 0-1.013 1.012v18.48c0 .48.388.868.869.868h16.638c.48 0 .868-.387.868-.868V3.705v-.892a1.01 1.01 0 0 0-.809-.992z" color="#000" overflow="visible" fill-opacity=".104" stroke-width=".194"/><path style="isolation:auto;mix-blend-mode:normal;marker:none" d="M3.964 3.09h16.18c.468 0 .844.376.844.843v17.103a.842.842 0 0 1-.844.844H3.964a.842.842 0 0 1-.844-.844V3.933c0-.467.377-.844.844-.844z" color="#000" overflow="visible" fill="#59686e" stroke-width=".189"/><path style="isolation:auto;mix-blend-mode:normal;marker:none" d="M4.177 3.698h15.434c.449 0 .81.361.81.81v16.314c0 .449-.361.81-.81.81H4.177a.808.808 0 0 1-.81-.81V4.508c0-.449.362-.81.81-.81z" color="#000" display="block" overflow="visible" fill-opacity=".225" stroke-width=".18"/><path style="isolation:auto;mix-blend-mode:normal;marker:none" d="M-51.823-52.55h15.434c.449 0 .81.361.81.81v16.314c0 .448-.361.81-.81.81h-15.434a.808.808 0 0 1-.81-.81V-51.74c0-.449.362-.81.81-.81z" color="#000" display="block" overflow="visible" fill="url(#f)" stroke-width=".18" transform="translate(56 56)"/><path style="isolation:auto;mix-blend-mode:normal;marker:none" d="M-51.896-53.92h15.899c.545 0 .985.44.985.986v16.324c0 .546-.44.985-.985.985h-15.899c-.545 0-.985.658-.985.504v-17.813c0-.546.44-.985.985-.985z" color="#000" overflow="visible" fill="url(#g)" stroke-width=".189" transform="translate(56 56)"/><path style="line-height:1000%;-inkscape-font-specification:'Nimbus Roman, '" d="M16.028 13.504v-3.98h-.394c-.19 1.355-.48 1.595-1.888 1.63H11.26v-3.81c.017-.514.068-.566.549-.583h2.333c1.99.034 2.333.275 2.608 1.802h.429l-.052-2.454h-9.11v.326c1.252.086 1.458.309 1.493 1.544v7.43c-.018 1.457-.19 1.646-1.493 1.732v.326h4.804v-.326c-1.304-.052-1.544-.292-1.561-1.544v-3.74h2.487c1.407.017 1.682.257 1.888 1.647z" font-weight="400" font-family="Nimbus Roman" letter-spacing="0" word-spacing="0" fill-opacity=".385" stroke="#000" stroke-width="1.072" stroke-opacity=".396"/><path style="line-height:1000%;-inkscape-font-specification:'Nimbus Roman, '" d="M16.073 12.971v-3.98h-.395c-.188 1.355-.48 1.596-1.887 1.63h-2.488V6.812c.018-.515.069-.566.55-.583h2.333c1.99.034 2.333.274 2.608 1.801h.428l-.051-2.453h-9.11v.326c1.252.086 1.458.309 1.492 1.544v7.429c-.017 1.458-.188 1.647-1.492 1.733v.326h4.804v-.326c-1.304-.052-1.544-.292-1.562-1.545v-3.74h2.488c1.407.017 1.682.258 1.887 1.647z" font-weight="400" font-family="Nimbus Roman" letter-spacing="0" word-spacing="0" fill="#fdfefe" stroke="#fff" stroke-width=".572"/><path style="isolation:auto;mix-blend-mode:normal;marker:none" d="M20.988 19.142c0 .546-.44.985-.985.985H4.104c-.545 0-.985.658-.985.504v.248c0 .154.44-.504.985-.504h15.899c.545 0 .985-.439.985-.985z" color="#000" overflow="visible" fill-opacity=".434" stroke-width=".189"/></svg>