<svg xmlns="http://www.w3.org/2000/svg" xmlns:xlink="http://www.w3.org/1999/xlink" height="24" viewBox="0 0 24 24" width="24"><title>Template icons dark</title><defs><linearGradient id="c"><stop offset="0" stop-color="#35b8ff"/><stop offset="1" stop-color="#ffd578"/></linearGradient><linearGradient id="b"><stop offset="0" stop-opacity=".031"/><stop offset="1" stop-opacity=".266"/></linearGradient><linearGradient id="a"><stop offset="0" stop-color="#fff" stop-opacity="0"/><stop offset="1" stop-color="#e1f0f2" stop-opacity=".803"/></linearGradient><linearGradient xlink:href="#c" id="d" x1="184.536" y1="195.531" x2="131.031" y2="127.468" gradientUnits="userSpaceOnUse" gradientTransform="matrix(.25532 0 0 .25532 -84.85 -84.853)"/><linearGradient xlink:href="#a" id="e" gradientUnits="userSpaceOnUse" gradientTransform="rotate(-4.609 -1045.547 1041.923) scale(.24998)" x1="136.2" y1="136.006" x2="125.785" y2="189.342"/><linearGradient xlink:href="#b" id="f" gradientUnits="userSpaceOnUse" gradientTransform="rotate(-115.722 -28.384 24.38) scale(.24998)" x1="177.255" y1="146.351" x2="140.341" y2="120.537"/><linearGradient xlink:href="#a" id="g" gradientUnits="userSpaceOnUse" gradientTransform="rotate(-4.609 -1045.547 1041.923) scale(.24998)" x1="139.777" y1="191.473" x2="200.801" y2="178.153"/><linearGradient xlink:href="#b" id="h" gradientUnits="userSpaceOnUse" x1="177.255" y1="146.351" x2="140.341" y2="120.537" gradientTransform="rotate(122.479 21.043 -25.047) scale(.24998)"/><linearGradient xlink:href="#a" id="i" x1="193.184" y1="160.635" x2="155.531" y2="117.469" gradientUnits="userSpaceOnUse" gradientTransform="rotate(-4.609 -1045.547 1041.923) scale(.24998)"/><linearGradient xlink:href="#b" id="j" x1="177.255" y1="146.351" x2="140.341" y2="120.537" gradientUnits="userSpaceOnUse" gradientTransform="translate(-83.996 -83.998) scale(.24998)"/></defs><g color="#000"><path style="isolation:auto;mix-blend-mode:normal;marker:none" d="M-43.999-56c-6.627 0-12 5.372-12 11.999 0 6.626 5.373 11.999 12 11.999S-32-37.375-32-44.002C-32-50.627-37.372-56-43.999-56zm0 8.652a3.346 3.346 0 1 1 0 6.693 3.346 3.346 0 0 1 0-6.693z" display="block" overflow="visible" fill="url(#d)" stroke-width="2.998" paint-order="fill markers stroke" transform="translate(56 56)"/><path style="isolation:auto;mix-blend-mode:normal;marker:none" d="M-54.339-37.909a11.999 11.999 0 0 0 4.27 4.257 10.5 10.5 0 0 1-.295-.463c-2.753-4.684 1.365-10.402 4.181-12.418.151-.13.314-.248.486-.35.163-.094.334-.175.51-.24l-4.9-7.214c-5.711 3.362-7.614 10.718-4.252 16.428z" overflow="visible" fill="url(#e)" stroke-width="2.998" paint-order="fill markers stroke" transform="translate(56 56)"/><path style="isolation:auto;mix-blend-mode:normal;marker:none" d="M-50.384-33.862c.221.151.448.297.68.434-.102-.152-.2-.307-.295-.464-2.336-4 1.065-9.375 2.959-11.496.307-.704.866-1.157.866-1.157-2.821 2.009-6.954 7.711-4.214 12.403.094.157.192.312.294.464-.099-.059-.193-.123-.29-.184z" overflow="visible" fill="url(#f)" stroke-width="2.998" paint-order="fill markers stroke" transform="translate(56 56)"/><path d="M-33.406-38.359a11.999 11.999 0 0 0 1.403-5.863c-.076.166-.156.33-.24.493-2.56 4.793-9.586 4.263-12.775 2.913a3.346 3.346 0 0 1-.552-.232 3.347 3.347 0 0 1-.472-.31l-3.596 7.946c5.849 3.116 13.116.902 16.232-4.947z" style="isolation:auto;mix-blend-mode:normal;marker:none" overflow="visible" fill="url(#g)" stroke-width="2.998" paint-order="fill markers stroke" transform="translate(56 56)"/><path d="M-32.017-43.897c.012-.268.017-.537.01-.806a10.52 10.52 0 0 1-.239.495c-2.168 4.093-8.529 4.027-11.329 3.535-.76.11-1.44-.127-1.44-.127 3.194 1.34 10.22 1.855 12.763-2.946.084-.162.163-.327.238-.494.003.115-.002.229-.003.343z" style="isolation:auto;mix-blend-mode:normal;marker:none" overflow="visible" fill="url(#h)" stroke-width="2.998" paint-order="fill markers stroke" transform="translate(56 56)"/><path style="isolation:auto;mix-blend-mode:normal;marker:none" d="M-44.96-55.964a11.999 11.999 0 0 0-5.693 1.984c.18-.026.363-.047.545-.064 5.416-.432 8.76 5.769 9.344 9.183.052.193.086.39.103.59.014.187.012.376-.006.564l8.632-1.26c-.533-6.606-6.32-11.53-12.925-10.997z" overflow="visible" fill="url(#i)" stroke-width="2.998" paint-order="fill markers stroke" transform="translate(56 56)"/><path style="isolation:auto;mix-blend-mode:normal;marker:none" d="M-50.362-54.162c-.233.134-.462.275-.686.425.181-.026.364-.048.546-.064 4.618-.37 7.984 5.03 9.072 7.657.502.582.666 1.283.666 1.283-.584-3.414-3.928-9.616-9.344-9.183a10.51 10.51 0 0 0-.545.064c.095-.064.194-.12.291-.182z" overflow="visible" fill="url(#j)" stroke-width="2.998" paint-order="fill markers stroke" transform="translate(56 56)"/><path style="isolation:auto;mix-blend-mode:normal;marker:none" d="M15.323 11.976a3.317 3.317 0 1 1-6.635 0 3.317 3.317 0 0 1 6.635 0z" display="block" overflow="visible" fill-opacity=".083" stroke-width="3.062" paint-order="fill markers stroke"/></g></svg>