<svg xmlns="http://www.w3.org/2000/svg" xmlns:xlink="http://www.w3.org/1999/xlink" height="24" viewBox="0 0 24 24" width="24"><title>Template icons dark</title><defs><linearGradient id="j"><stop offset="0" stop-color="#0292e2"/><stop offset=".556" stop-color="#0283cb"/><stop offset=".59" stop-color="#0297e9"/><stop offset="1" stop-color="#41bafd"/></linearGradient><linearGradient id="c"><stop offset="0" stop-color="#fff" stop-opacity=".307"/><stop offset=".7" stop-color="#fff" stop-opacity=".214"/><stop offset="1" stop-color="#fff" stop-opacity=".188"/><stop offset="1" stop-color="#fff" stop-opacity="0"/></linearGradient><linearGradient id="h"><stop offset="0" stop-color="#fff" stop-opacity=".25"/><stop offset=".7" stop-color="#fff" stop-opacity=".214"/><stop offset="1" stop-color="#fff" stop-opacity=".188"/><stop offset="1" stop-color="#fff" stop-opacity="0"/></linearGradient><linearGradient id="i"><stop offset="0" stop-color="#fff" stop-opacity=".271"/><stop offset=".7" stop-color="#fff" stop-opacity=".214"/><stop offset="1" stop-color="#fff" stop-opacity=".188"/><stop offset="1" stop-color="#fff" stop-opacity="0"/></linearGradient><linearGradient id="f"><stop offset="0" stop-color="#0292e2"/><stop offset="1" stop-color="#029bf0"/></linearGradient><linearGradient id="e"><stop offset="0"/><stop offset="1" stop-opacity=".078"/></linearGradient><linearGradient id="d"><stop offset="0" stop-color="#00628a"/><stop offset=".632" stop-color="#00668f"/><stop offset="1" stop-color="#005172"/></linearGradient><linearGradient id="a"><stop offset="0" stop-color="#fff"/><stop offset=".134" stop-color="#e9f5fa"/><stop offset=".301" stop-color="#dff2fa"/><stop offset=".422" stop-color="#b5e2f4"/><stop offset="1" stop-color="#22affd"/></linearGradient><linearGradient id="b"><stop offset="0" stop-color="#fff" stop-opacity=".313"/><stop offset="1" stop-color="#fff" stop-opacity="0"/></linearGradient><linearGradient id="g"><stop offset="0" stop-color="#fff" stop-opacity=".313"/><stop offset=".7" stop-color="#fff" stop-opacity=".214"/><stop offset="1" stop-color="#fff" stop-opacity=".188"/><stop offset="1" stop-color="#fff" stop-opacity="0"/></linearGradient><linearGradient xlink:href="#a" id="n" x1="24" y1="37.929" x2="24" y2="1.669" gradientUnits="userSpaceOnUse" gradientTransform="matrix(.50288 0 0 .50288 -56.069 -55.198)"/><linearGradient gradientTransform="matrix(.56949 0 0 .56949 -57.667 -59.288)" xlink:href="#i" id="m" x1="24.03" y1="40.729" x2="24.03" y2="31.155" gradientUnits="userSpaceOnUse"/><linearGradient gradientTransform="translate(-87.62 -87.074) scale(.27263)" xlink:href="#d" id="l" x1="165" y1="115" x2="165" y2="119.646" gradientUnits="userSpaceOnUse"/><linearGradient gradientTransform="translate(-87.62 -87.074) scale(.27263)" xlink:href="#f" id="k" x1="132.78" y1="129" x2="197" y2="194" gradientUnits="userSpaceOnUse"/></defs><path d="M-33-54v20c0 .45-1.25 2-2 2h-18c-.45 0-2.029-1.552-2-2v-20z" fill="url(#k)" stroke-width=".145" stroke-opacity=".196" transform="translate(56 56)"/><path d="M-52.998-55.998h17.996L-33-54h-22z" fill="url(#l)" stroke-width=".144" stroke-opacity=".196" transform="translate(56 56)"/><path d="M-33-54v20c0 .45-1.25 2-2 2h-18c-.75 0-2.016-1.76-2-2v-20z" fill="url(#m)" stroke-width=".145" stroke-opacity=".196" transform="translate(56 56)"/><path d="M10 2v13H5l6.969 6L19 15h-5V2z" fill-opacity=".25" stroke-width=".352" stroke-linecap="round" stroke-opacity=".771"/><path d="M-46-54v12h-5l7 6 7-6h-5v-12z" fill="url(#n)" stroke-width=".352" stroke-linecap="round" stroke-opacity=".771" transform="translate(56 56)"/><path d="M7.488 2.778a1.026 1.026 0 1 0 0 2.053 1.026 1.026 0 0 0 0-2.053zm8.989 0a1.026 1.026 0 1 0 0 2.053 1.026 1.026 0 0 0 0-2.053z" fill="#25231d" fill-opacity=".583" stroke-width=".423"/><path d="M7.065 4.653s.52 5.11 5.08 5.11c4.58 0 4.686-4.984 4.686-4.984-.323-.304-.56-.274-.835-.1 0 0-.434 4.224-3.852 4.224-3.573 0-4.143-4.2-4.143-4.2-.267-.432-.724-.34-.936-.05z" fill-opacity=".318" fill-rule="evenodd" stroke-width=".583" stroke-linecap="round" stroke-opacity=".333"/><path d="M7.065 3.835s.52 5.11 5.08 5.11c4.58 0 4.686-4.984 4.686-4.984-.323-.304-.56-.274-.835-.1 0 0-.434 4.224-3.852 4.224-3.573 0-4.143-4.2-4.143-4.2-.267-.432-.724-.34-.936-.05z" fill="#fffffc" fill-rule="evenodd" stroke="#000" stroke-width=".22560350999999998" stroke-linecap="round" stroke-opacity=".333"/></svg>