<svg xmlns="http://www.w3.org/2000/svg" xmlns:xlink="http://www.w3.org/1999/xlink" height="24" viewBox="0 0 24 24" width="24"><title>Template icons dark</title><defs><linearGradient id="h"><stop offset="0" stop-color="#e1140e"/><stop offset="1" stop-color="#951318"/></linearGradient><linearGradient id="g" gradientTransform="matrix(0 -100 -100 0 96 146)" gradientUnits="userSpaceOnUse" x2="1"><stop offset="0" stop-color="#fff"/><stop offset="1" stop-color="#c7c7c7"/></linearGradient><linearGradient id="b"><stop offset="0" stop-color="#c6120c"/><stop offset="1" stop-color="#490306"/></linearGradient><linearGradient id="f"><stop offset="0" stop-opacity=".736"/><stop offset="1" stop-opacity="0"/></linearGradient><linearGradient id="e"><stop offset="0" stop-opacity=".742"/><stop offset="1" stop-opacity="0"/></linearGradient><linearGradient id="d"><stop offset="0" stop-color="#8c1919"/><stop offset="1" stop-color="#ff3030"/></linearGradient><linearGradient id="i"><stop offset="0" stop-color="#fff"/><stop offset="1" stop-color="#dac7b4"/></linearGradient><linearGradient id="c"><stop offset="0" stop-color="#362c2d" stop-opacity=".374"/><stop offset="1" stop-opacity="0"/></linearGradient><linearGradient id="a"><stop offset="0" stop-color="#2c2e31"/><stop offset="1" stop-color="#40464d"/></linearGradient><linearGradient xlink:href="#g" id="u" gradientUnits="userSpaceOnUse" x1="177.323" y1="176" x2="177.323" y2="200" gradientTransform="matrix(.31277 0 0 .31277 -93.967 -91.62)"/><linearGradient xlink:href="#h" id="t" gradientUnits="userSpaceOnUse" x1="173.088" y1="180.647" x2="173.088" y2="200" gradientTransform="matrix(.31277 0 0 .31277 -93.967 -91.62)"/><linearGradient xlink:href="#b" id="n" x1="-567.013" y1="546.542" x2="-567.013" y2="541.888" gradientUnits="userSpaceOnUse" gradientTransform="matrix(.23904 0 0 .23904 91.398 -173.862)"/><linearGradient xlink:href="#a" id="m" x1="-553.436" y1="535.695" x2="-538.458" y2="525.571" gradientUnits="userSpaceOnUse" gradientTransform="matrix(.23904 0 0 .23904 91.398 -173.862)"/><linearGradient xlink:href="#a" id="l" x1="-591.369" y1="535.056" x2="-580.187" y2="522.822" gradientUnits="userSpaceOnUse" gradientTransform="matrix(.23904 0 0 .23904 91.398 -173.862)"/><linearGradient xlink:href="#c" id="k" x1="166" y1="152" x2="166" y2="146" gradientUnits="userSpaceOnUse" gradientTransform="translate(-122.826 -112.597) scale(.47952)"/><linearGradient xlink:href="#g" id="o" gradientUnits="userSpaceOnUse" gradientTransform="matrix(.31277 0 0 .31277 -93.967 -91.62)" x1="177.323" y1="176" x2="177.323" y2="200"/><linearGradient xlink:href="#g" id="p" gradientUnits="userSpaceOnUse" gradientTransform="matrix(.31277 0 0 .31277 -93.967 -91.62)" x1="177.323" y1="176" x2="177.323" y2="200"/><linearGradient xlink:href="#h" id="q" gradientUnits="userSpaceOnUse" gradientTransform="matrix(.31277 0 0 .31277 -93.967 -91.62)" x1="173.088" y1="180.647" x2="173.088" y2="200"/><linearGradient xlink:href="#h" id="r" gradientUnits="userSpaceOnUse" gradientTransform="matrix(.31277 0 0 .31277 -93.967 -91.62)" x1="173.088" y1="180.647" x2="173.088" y2="200"/><linearGradient xlink:href="#g" id="s" gradientUnits="userSpaceOnUse" gradientTransform="matrix(.31277 0 0 .31277 -93.967 -91.62)" x1="177.323" y1="176" x2="177.323" y2="200"/><radialGradient xlink:href="#i" id="j" cx="167.805" cy="136.668" fx="167.805" fy="136.668" r="20.669" gradientTransform="matrix(.47952 0 0 .39626 -122.826 -101.286)" gradientUnits="userSpaceOnUse"/></defs><path d="M-52.577-41.872c4.397 4.125 13.776 2.732 17.247.142 1.517-1.468.995-3.582-.38-4.091 4.031-8.95-9.78-14.542-12.68-4.38-1.703-3.176-8.137-.03-4.116 4.12-1.99.32-2.565 3.372-.071 4.21z" fill="url(#j)" fill-rule="evenodd" stroke-width=".219" transform="translate(56 56)"/><path d="M-52.577-41.872c4.397 4.125 13.776 2.732 17.247.142 1.517-1.468.995-3.582-.38-4.091 4.031-8.95-9.78-14.542-12.68-4.38-1.703-3.176-8.137-.03-4.116 4.12-1.99.32-2.565 3.372-.071 4.21z" fill="url(#k)" fill-rule="evenodd" stroke-width=".219" transform="translate(56 56)"/><path d="M-46.984-45.964a1.488 1.488 0 1 1-2.976 0 1.488 1.488 0 0 1 2.976 0z" fill="url(#l)" stroke-width=".143" stroke-linecap="round" stroke-linejoin="round" transform="translate(56 56)"/><path d="M-37.917-45.812a1.488 1.488 0 1 1-2.975 0 1.488 1.488 0 0 1 2.975 0z" fill="url(#m)" stroke-width=".143" stroke-linecap="round" stroke-linejoin="round" transform="translate(56 56)"/><path d="M-41.7-44.105c-.352 2.704-4.268 2.548-4.442-.033-.03-.254.023-.232.269-.233l3.856-.022c.338-.03.344.006.318.288z" opacity=".848" fill="url(#n)" fill-rule="evenodd" stroke-width=".229" transform="translate(56 56)"/><path d="M-47.323-32.14h2.143l-.303-7.82c-.004-1.176-2.052-1.544-2.353-.282z" fill="url(#o)" fill-rule="evenodd" stroke-width=".199" transform="translate(56 56)"/><path d="M-41.093-32.14h-1.932l.168-7.879c.005-1.176 2.052-1.544 2.353-.282z" fill="url(#p)" fill-rule="evenodd" stroke-width=".199" transform="translate(56 56)"/><path d="M-45.325-32.14h2.3l.179-7.607c-.015-1.689-2.634-1.695-2.642-.027z" fill="url(#q)" fill-rule="evenodd" stroke-width=".199" transform="translate(56 56)"/><path d="M-39.058-32.14h-2.17l.603-8.21c.032-1.175 2.135-1.498 2.416-.23z" fill="url(#r)" fill-rule="evenodd" stroke-width=".199" transform="translate(56 56)"/><path d="M-37.402-32.14h-1.79l.993-8.63c.09-1.173 2.139-1.392 2.347-.111z" fill="url(#s)" fill-rule="evenodd" stroke-width=".199" transform="translate(56 56)"/><path d="M-49.214-32.14h2.143l-.761-8.15c-.032-1.176-2.135-1.498-2.416-.23z" fill="url(#t)" fill-rule="evenodd" stroke-width=".199" transform="translate(56 56)"/><path d="M-50.996-32.14h1.89l-1.152-8.57c-.09-1.174-2.139-1.393-2.347-.112z" fill="url(#u)" fill-rule="evenodd" stroke-width=".199" transform="translate(56 56)"/></svg>