<svg xmlns="http://www.w3.org/2000/svg" xmlns:xlink="http://www.w3.org/1999/xlink" height="24" viewBox="0 0 24 24" width="24"><title>Template icons dark</title><defs><linearGradient id="j"><stop offset="0" stop-color="#078cd0" stop-opacity=".781"/><stop offset=".774" stop-color="#5946dd" stop-opacity=".584"/><stop offset="1" stop-color="#ca39f1" stop-opacity=".669"/></linearGradient><linearGradient id="i"><stop offset="0" stop-color="#078cd0" stop-opacity=".698"/><stop offset=".774" stop-color="#5946dd" stop-opacity=".443"/><stop offset="1" stop-color="#ca39f1" stop-opacity=".302"/></linearGradient><linearGradient id="c"><stop offset="0" stop-color="#d1f8fc" stop-opacity=".084"/><stop offset=".501" stop-color="#fff" stop-opacity=".039"/><stop offset="1" stop-color="#b6f3fa" stop-opacity=".096"/></linearGradient><linearGradient id="b"><stop offset="0" stop-color="#777"/><stop offset="1" stop-color="#595959"/></linearGradient><linearGradient id="h"><stop offset="0" stop-color="#fff" stop-opacity=".528"/><stop offset=".561" stop-color="#fff" stop-opacity=".522"/><stop offset="1" stop-color="#fff" stop-opacity="0"/></linearGradient><linearGradient id="f"><stop offset="0" stop-color="#fff" stop-opacity=".663"/><stop offset=".561" stop-color="#fff" stop-opacity=".522"/><stop offset="1" stop-color="#fff" stop-opacity="0"/></linearGradient><linearGradient id="g"><stop offset="0" stop-color="#fff"/><stop offset=".561" stop-color="#fff" stop-opacity=".522"/><stop offset="1" stop-color="#fff" stop-opacity="0"/></linearGradient><linearGradient id="e"><stop offset="0" stop-color="#4fb9ef" stop-opacity=".459"/><stop offset=".836" stop-color="#1f1cec" stop-opacity=".315"/><stop offset=".888" stop-color="#d039f1" stop-opacity=".376"/><stop offset="1" stop-color="#ca39f1" stop-opacity=".302"/></linearGradient><linearGradient id="d"><stop offset="0" stop-color="#393939"/><stop offset="1" stop-color="#181818"/></linearGradient><linearGradient id="a"><stop offset="0" stop-color="#efefef"/><stop offset="1" stop-color="#cacaca"/></linearGradient><linearGradient xlink:href="#a" id="k" x1="160" y1="133.669" x2="160" y2="186.583" gradientUnits="userSpaceOnUse" gradientTransform="matrix(.25028 0 0 .25 -84.057 -84.251)"/><radialGradient xlink:href="#j" id="m" cx="-226.274" cy=".459" fx="-226.274" fy=".459" r="15.999" gradientUnits="userSpaceOnUse" gradientTransform="matrix(.27148 -.27148 .27183 .27183 17.319 -105.616)"/><radialGradient gradientTransform="matrix(.25 0 0 .25 -84 -84.251)" xlink:href="#d" id="l" cx="160" cy="160" fx="160" fy="160" r="33" gradientUnits="userSpaceOnUse"/></defs><g color="#000" transform="translate(56 56)"><rect style="isolation:auto;mix-blend-mode:normal;marker:none" width="24" height="16" x="-56" y="-52" ry="1.036" display="block" overflow="visible" fill-opacity=".131" stroke-width=".205" paint-order="fill markers stroke"/><rect style="isolation:auto;mix-blend-mode:normal;marker:none" width="22" height="14" x="-55" y="-51" ry="1" display="block" overflow="visible" fill="url(#k)" stroke-width=".5" stroke-opacity=".344" paint-order="fill markers stroke"/><path style="isolation:auto;mix-blend-mode:normal;marker:none" d="M-35.438-44A8.562 8.562 0 0 1-44-35.439a8.562 8.562 0 0 1-8.562-8.563A8.562 8.562 0 0 1-44-52.563 8.562 8.562 0 0 1-35.438-44z" overflow="visible" fill-opacity=".23" stroke-width=".453" paint-order="fill markers stroke"/><path style="isolation:auto;mix-blend-mode:normal;marker:none" d="M-36-44.25a8 8 0 0 1-8 7.999 8 8 0 0 1-8-8 8 8 0 0 1 8-8 8 8 0 0 1 8 8z" overflow="visible" fill="url(#l)" stroke="#f2f2f2" stroke-width=".501" paint-order="fill markers stroke"/><path style="line-height:normal;font-variant-ligatures:normal;font-variant-position:normal;font-variant-caps:normal;font-variant-numeric:normal;font-variant-alternates:normal;font-feature-settings:normal;text-indent:0;text-align:start;text-decoration-line:none;text-decoration-style:solid;text-decoration-color:#000;text-transform:none;text-orientation:mixed;shape-padding:0;isolation:auto;mix-blend-mode:normal;marker:none" d="M-44-52.588c-4.6 0-8.337 3.737-8.337 8.337 0 4.601 3.736 8.338 8.337 8.338 4.6 0 8.337-3.737 8.337-8.338 0-4.6-3.736-8.337-8.337-8.337zm0 .868a7.324 7.324 0 0 1 7.329 7.33c0 4.051-3.124 7.745-7.329 7.745s-7.329-3.694-7.329-7.746A7.324 7.324 0 0 1-44-51.72z" font-weight="400" font-family="sans-serif" white-space="normal" overflow="visible" fill="#fff" paint-order="fill markers stroke"/><path style="isolation:auto;mix-blend-mode:normal;marker:none" d="M-39.56-39.844a6.322 6.322 0 0 1-8.94-.018l4.48-4.462z" overflow="visible" fill="#c7e8fb" fill-opacity=".157" stroke-width=".396" paint-order="fill markers stroke"/><path style="isolation:auto;mix-blend-mode:normal;marker:none" d="M-48.343-48.423a6.154 6.154 0 0 1 8.703.017L-44-44.063z" overflow="visible" fill="url(#m)" stroke-width=".385" paint-order="fill markers stroke"/><path style="isolation:auto;mix-blend-mode:normal;marker:none" d="M-43.5-43.465a.515.348 0 0 1-.515.348.515.348 0 0 1-.516-.348.515.348 0 0 1 .516-.348.515.348 0 0 1 .515.348z" overflow="visible" fill="#c7e8fb" fill-opacity=".382" stroke-width=".071" paint-order="fill markers stroke"/><path style="isolation:auto;mix-blend-mode:normal;marker:none" d="M-43.1-45.36a.9.733 0 0 1-.9.734.9.733 0 0 1-.9-.733.9.733 0 0 1 .9-.733.9.733 0 0 1 .9.733z" overflow="visible" fill="#ecf7fe" fill-opacity=".438" stroke-width=".071" paint-order="fill markers stroke"/><circle style="isolation:auto;mix-blend-mode:normal;marker:none" cx="-44" cy="-44.251" r="3" overflow="visible" fill="none" fill-opacity=".459" stroke="#8e8e8e" stroke-width="1.256" paint-order="fill markers stroke"/><circle style="isolation:auto;mix-blend-mode:normal;marker:none" cx="-53" cy="-48.58" r=".75" overflow="visible" fill="#e33535" stroke-width=".384" paint-order="fill markers stroke"/></g></svg>