<svg xmlns="http://www.w3.org/2000/svg" xmlns:xlink="http://www.w3.org/1999/xlink" height="24" viewBox="0 0 24 24" width="24"><title>Template icons dark</title><defs><linearGradient id="b"><stop offset="0" stop-color="#212121"/><stop offset="1" stop-color="#282828"/></linearGradient><linearGradient id="a"><stop offset="0" stop-color="#8683ee"/><stop offset="1" stop-color="#1ed7b6"/></linearGradient><linearGradient xlink:href="#a" id="d" x1="4.376" y1="5.854" x2="42.128" y2="43.605" gradientUnits="userSpaceOnUse" gradientTransform="matrix(.55064 0 0 .55064 -57.26 -58.074)"/><linearGradient xlink:href="#a" id="c" x1="183.831" y1="182.717" x2="134.463" y2="144.519" gradientUnits="userSpaceOnUse" gradientTransform="matrix(.25838 0 0 .25838 -85.341 -85.341)"/></defs><g transform="translate(56 56)"><circle style="isolation:auto;mix-blend-mode:normal;marker:none" cx="-44" cy="-44" r="12" color="#000" display="block" overflow="visible" fill-opacity=".078" stroke-width=".521"/><circle style="isolation:auto;mix-blend-mode:normal;marker:none" cx="-44" cy="-44" r="11.5" color="#000" overflow="visible" fill="#303030" stroke-width=".641"/><circle r="11.5" cy="-44" cx="-44" style="isolation:auto;mix-blend-mode:normal;marker:none" color="#000" overflow="visible" opacity=".119" fill="url(#c)" stroke-width=".641"/><path style="line-height:normal;font-variant-ligatures:normal;font-variant-position:normal;font-variant-caps:normal;font-variant-numeric:normal;font-variant-alternates:normal;font-feature-settings:normal;text-indent:0;text-align:start;text-decoration-line:none;text-decoration-style:solid;text-decoration-color:#000;text-transform:none;text-orientation:mixed;shape-padding:0;isolation:auto;mix-blend-mode:normal;marker:none" d="M-44-55.5c-6.348 0-11.5 5.152-11.5 11.5s5.152 11.5 11.5 11.5 11.5-5.152 11.5-11.5-5.152-11.5-11.5-11.5zm0 .625A10.87 10.87 0 0 1-33.125-44 10.87 10.87 0 0 1-44-33.125 10.87 10.87 0 0 1-54.875-44 10.87 10.87 0 0 1-44-54.875z" color="#000" font-weight="400" font-family="sans-serif" white-space="normal" overflow="visible" fill="url(#d)" stroke-width=".641"/><path d="M-37.608-48.656l-6.778 6.478 6.778 6.478.008-3.08-3.397-3.398 3.395-3.395z" fill="#7f91e9" fill-rule="evenodd" stroke-width="3.192"/><path d="M-50.11-52.15l6.778 6.18-6.778 6.178.005-3.095 3.384-3.084-3.376-3.076z" fill="#25c9bb" fill-rule="evenodd" stroke-width="3.192"/></g></svg>