<svg xmlns="http://www.w3.org/2000/svg" xmlns:xlink="http://www.w3.org/1999/xlink" height="24" viewBox="0 0 24 24" width="24"><title>Template icons dark</title><defs><linearGradient id="e"><stop offset="0" stop-color="#242a34"/><stop offset="1" stop-color="#443f4c"/></linearGradient><linearGradient id="d"><stop offset="0" stop-color="#b1e3f2"/><stop offset="1"/></linearGradient><linearGradient id="f"><stop offset="0" stop-color="#aea6b6"/><stop offset="1" stop-color="#e4e4e4"/></linearGradient><linearGradient id="c"><stop offset="0" stop-color="#2d3840"/><stop offset="1" stop-color="#5f5777"/></linearGradient><linearGradient id="b"><stop offset="0" stop-color="#e8c2ee"/><stop offset="1" stop-color="#98d1e8"/></linearGradient><linearGradient id="a"><stop offset="0" stop-color="#50b4ce"/><stop offset="1" stop-color="#df2fb9" stop-opacity=".974"/></linearGradient><linearGradient id="g"><stop offset="0" stop-color="#e8c2ee"/><stop offset="1" stop-color="#98d1e8"/></linearGradient><linearGradient xlink:href="#f" id="h" gradientUnits="userSpaceOnUse" gradientTransform="matrix(.2341 0 0 .23398 -81.443 -81.698)" x1="151.033" y1="198.284" x2="151.033" y2="118.162"/><linearGradient xlink:href="#a" id="i" x1="120.752" y1="131.244" x2="191.98" y2="189.032" gradientUnits="userSpaceOnUse" gradientTransform="matrix(0 -.23644 .23644 0 -81.811 -8.15)"/><linearGradient xlink:href="#c" id="j" x1="119.039" y1="133.562" x2="178.802" y2="193.325" gradientUnits="userSpaceOnUse" gradientTransform="rotate(-90 -44.97 36.497) scale(.2343)"/><linearGradient xlink:href="#g" id="k" x1="151" y1="147" x2="151" y2="171.95" gradientUnits="userSpaceOnUse" gradientTransform="matrix(.19956 0 0 .19956 -74.307 -76.002)"/></defs><g color="#000"><path style="isolation:auto;mix-blend-mode:normal;marker:none" d="M8.244 23.702C5.42 18.81 2.824 14.104 0 9.212c2.249-3.894 1.733-2.939 3.497-5.995h16.975c1.69 2.926 1.546 2.595 3.51 5.996-2.845 4.927-5.4 9.562-8.244 14.489z" overflow="visible" fill="#000808" fill-opacity=".147" stroke-width=".131" stroke-opacity="0"/><path d="M-47.413-32.851c-2.666-4.618-5.362-9.242-8.028-13.86 2.123-3.677 1.742-2.708 3.408-5.593h16.048c1.595 2.762 1.55 2.382 3.404 5.593-2.685 4.652-5.338 9.208-8.024 13.86z" style="isolation:auto;mix-blend-mode:normal;marker:none" overflow="visible" fill="url(#h)" stroke="url(#linearGradient1010)" stroke-width=".275" transform="translate(56 56)"/><path d="M15.756.489c2.824 4.89 5.42 9.598 8.244 14.489-2.249 3.894-1.733 2.94-3.498 5.995H3.527c-1.689-2.926-1.546-2.595-3.509-5.995 2.845-4.927 5.4-9.562 8.244-14.49z" style="isolation:auto;mix-blend-mode:normal;marker:none" overflow="visible" fill="#000808" fill-opacity=".147" stroke-width=".131" stroke-opacity="0"/><path style="isolation:auto;mix-blend-mode:normal;marker:none" d="M-40.578-54.987c2.672 4.63 5.375 9.266 8.048 13.895-2.129 3.686-1.747 2.715-3.417 5.607h-16.089c-1.598-2.77-1.554-2.388-3.412-5.607 2.692-4.663 5.352-9.231 8.044-13.895z" overflow="visible" fill="url(#i)" stroke-width=".124" stroke-opacity="0" transform="translate(56 56)"/><path d="M-40.885-54.527c2.56 4.433 5.324 8.945 7.884 13.379-2.039 3.53-1.746 2.486-3.345 5.256h-15.29c-1.532-2.652-1.566-2.173-3.346-5.256 2.579-4.466 5.306-8.913 7.885-13.38z" style="isolation:auto;mix-blend-mode:normal;marker:none" overflow="visible" fill="url(#j)" stroke-width=".119" stroke-opacity="0" transform="translate(56 56)"/><path style="isolation:auto;mix-blend-mode:normal;marker:none" d="M18.825 12.175a6.934 6.934 0 0 1-6.934 6.934 6.934 6.934 0 0 1-6.935-6.934 6.934 6.934 0 0 1 6.935-6.935 6.934 6.934 0 0 1 6.934 6.935z" overflow="visible" fill="#202020" fill-opacity=".995" stroke-width=".259"/><path style="isolation:auto;mix-blend-mode:normal;marker:none" d="M-39.222-44.244l-3.754 2.167-3.754 2.167v-8.669l3.754 2.167z" overflow="visible" fill="url(#k)" stroke-width=".1" stroke-opacity="0" transform="translate(56 56)"/></g></svg>