<svg xmlns="http://www.w3.org/2000/svg" xmlns:xlink="http://www.w3.org/1999/xlink" height="24" viewBox="0 0 24 24" width="24"><title>Template icons dark</title><defs><linearGradient id="c"><stop offset="0" stop-color="#8e8eb4"/><stop offset="1" stop-color="#fdfdfe"/></linearGradient><linearGradient id="b"><stop offset="0" stop-color="#9d9eb3"/><stop offset="1" stop-color="#bcbcbc"/></linearGradient><linearGradient id="a"><stop offset="0" stop-color="#530559"/><stop offset="1" stop-color="#8108f2"/></linearGradient><linearGradient xlink:href="#a" id="f" x1="-252.036" y1="73.11" x2="-193.17" y2="102.89" gradientUnits="userSpaceOnUse" gradientTransform="matrix(-.10127 -.22954 .20017 -.15124 -84.172 -84.203)"/><linearGradient gradientTransform="translate(-83.954 -84.203) scale(.25088)" xlink:href="#c" id="e" x1="160.004" y1="206.598" x2="160.004" y2="197.991" gradientUnits="userSpaceOnUse"/><linearGradient gradientTransform="translate(-83.954 -84.203) scale(.25088)" xlink:href="#b" id="d" x1="160.098" y1="193.342" x2="160.098" y2="197.786" gradientUnits="userSpaceOnUse"/></defs><path style="isolation:auto;mix-blend-mode:normal;marker:none" d="M8.67 19.98L6.62 21.408l-1.843 2.54 14.578.02-1.511-2.535-2.375-1.436z" color="#000" fill-opacity=".184" fill-rule="evenodd" stroke-width=".215" stroke-linejoin="round"/><path style="isolation:auto;mix-blend-mode:normal;marker:none" d="M-48.979-34.551l10.4.024-2.201-1.238-6.3-.014z" color="#000" fill="url(#d)" fill-rule="evenodd" stroke-width=".199" stroke-linejoin="round" transform="translate(56 56)"/><path style="isolation:auto;mix-blend-mode:normal;marker:none" d="M-50.687-32.275l1.708-2.276 10.4.024 1.4 2.271z" color="#000" fill="url(#e)" fill-rule="evenodd" stroke-width=".199" stroke-linejoin="round" transform="translate(56 56)"/><path style="isolation:auto;mix-blend-mode:normal;marker:none" d="M.929 6.12C3.903 2.189 7.954-.027 12.183-.031c4.228-.005 8.282 2.2 11.262 6.127L12.197 19.852z" color="#000" display="block" overflow="visible" fill-opacity=".195" stroke-width=".732" stroke-linecap="square" stroke-opacity=".279"/><path style="isolation:auto;mix-blend-mode:normal;marker:none" d="M-54.073-49.505a18.907 14.447 90 0 1 10.256-5.608 18.907 14.447 90 0 1 10.264 5.584l-10.251 13.323z" color="#000" display="block" overflow="visible" fill="url(#f)" stroke-width=".667" stroke-linecap="square" stroke-opacity=".279" transform="translate(56 56)"/><path d="M11.147 4.583v5.01h.419V8.9c.133.224.315.407.549.548.238.142.498.214.782.214.238 0 .46-.048.666-.145.21-.1.392-.233.543-.398a1.953 1.953 0 0 0 .487-1.303c0-.234-.04-.46-.118-.68a1.836 1.836 0 0 0-.322-.597 1.523 1.523 0 0 0-.508-.426 1.405 1.405 0 0 0-.672-.158c-.298 0-.558.076-.782.227-.225.146-.418.34-.578.583V4.583zm-3.603.136L5.505 9.593h.516l.624-1.523h2.19l.631 1.523h.508L7.95 4.72zm.2.564l.98 2.409H6.749zm10.023.672c-.266 0-.509.048-.728.144a1.729 1.729 0 0 0-.934.982c-.087.224-.13.462-.13.714 0 .256.043.496.13.72.092.224.218.423.378.597.16.17.35.305.57.405.219.096.46.145.72.145.17 0 .332-.023.487-.069.16-.041.305-.1.433-.178.133-.082.247-.177.343-.282.097-.11.17-.228.22-.356l-.46-.138a.636.636 0 0 1-.144.233c-.069.073-.151.14-.247.2a1.386 1.386 0 0 1-.652.178c-.179 0-.349-.037-.509-.11a1.428 1.428 0 0 1-.41-.31 1.572 1.572 0 0 1-.385-1.036c0-.205.032-.396.096-.57a1.332 1.332 0 0 1 .687-.747c.16-.073.33-.11.514-.11.22 0 .418.053.597.158.183.1.325.242.426.425l.452-.143a1.455 1.455 0 0 0-.57-.618 1.65 1.65 0 0 0-.884-.234zm-4.924.412c.187 0 .359.041.514.124.16.078.296.185.405.322.115.133.202.286.261.46.064.174.097.355.097.543 0 .183-.035.361-.104.535-.064.17-.155.322-.274.46-.115.132-.255.24-.42.322-.16.078-.338.117-.534.117-.12 0-.245-.023-.378-.069a1.367 1.367 0 0 1-.652-.46.805.805 0 0 1-.145-.35V7.26c.055-.119.124-.231.207-.336.082-.11.176-.206.281-.289a1.268 1.268 0 0 1 .742-.267z" style="line-height:1000%;-inkscape-font-specification:Raleway" font-weight="400" font-family="Raleway" letter-spacing="0" word-spacing="0" fill="#fefefd" fill-opacity=".995" stroke-width=".322"/></svg>