<svg xmlns="http://www.w3.org/2000/svg" xmlns:xlink="http://www.w3.org/1999/xlink" height="24" viewBox="0 0 24 24" width="24"><title>Template icons dark</title><defs><linearGradient id="h"><stop offset="0" stop-color="#53b679"/><stop offset="1" stop-color="#189189"/></linearGradient><linearGradient id="g"><stop offset="0" stop-color="#58c27e"/><stop offset=".194" stop-color="#d5db7e"/><stop offset=".681" stop-color="#fdb63d" stop-opacity=".989"/><stop offset="1" stop-color="#d66026"/></linearGradient><linearGradient id="f"><stop offset="0" stop-color="#18b378"/><stop offset="1" stop-color="#5bc981"/></linearGradient><linearGradient id="e"><stop offset="0" stop-color="#5ccb82"/><stop offset="1" stop-color="#479c6c"/></linearGradient><linearGradient id="d"><stop offset="0" stop-color="#097b8c"/><stop offset="1" stop-color="#27a787"/></linearGradient><linearGradient id="c"><stop offset="0" stop-color="#242d3c"/><stop offset="1" stop-color="#374160"/></linearGradient><linearGradient id="a"><stop offset="0" stop-color="#d78383"/><stop offset="1" stop-color="#fefefe"/></linearGradient><linearGradient id="b"><stop offset="0" stop-color="#2c2c2c"/><stop offset="1" stop-color="#4c4c4c"/></linearGradient><linearGradient gradientTransform="rotate(-30 -158.6 155.546) scale(.25167)" xlink:href="#c" id="i" x1="127.52" y1="180.599" x2="204.29" y2="154.964" gradientUnits="userSpaceOnUse"/><linearGradient gradientTransform="rotate(-30 -158.6 155.546) scale(.25167)" xlink:href="#h" id="j" x1="140.881" y1="187.394" x2="176.248" y2="126.137" gradientUnits="userSpaceOnUse"/><linearGradient xlink:href="#d" id="k" gradientUnits="userSpaceOnUse" gradientTransform="matrix(.25398 0 0 .25398 -84.648 -84.326)" x1="160.063" y1="176" x2="160.063" y2="196"/><linearGradient gradientTransform="matrix(.25398 0 0 .25398 -84.652 -84.358)" xlink:href="#f" id="l" x1="160.882" y1="204.887" x2="160.882" y2="180.705" gradientUnits="userSpaceOnUse"/><linearGradient xlink:href="#e" id="m" x1="160" y1="180" x2="160" y2="171.339" gradientUnits="userSpaceOnUse" gradientTransform="matrix(.25398 0 0 .25398 -84.652 -84.144)"/><linearGradient xlink:href="#g" id="n" x1="182.69" y1="179.28" x2="182.956" y2="140.009" gradientUnits="userSpaceOnUse" gradientTransform="matrix(.15604 0 0 .25398 -66.026 -84.527)"/><linearGradient xlink:href="#g" id="o" gradientUnits="userSpaceOnUse" gradientTransform="matrix(.1117 0 0 .18182 -66.985 -72.042)" x1="182.69" y1="179.28" x2="182.956" y2="140.009"/></defs><g color="#000" stroke-linecap="square"><path style="isolation:auto;mix-blend-mode:normal;marker:none" d="M-53.657-41.147c-.557 0-.812.276-1.005.58l-1.037 1.631a.182.182 0 0 0-.01.193.385.385 0 0 0 .01.2l1.037 3.18c.193.592.448 1.131 1.005 1.131h19.282c.558 0 .812-.539 1.006-1.131l1.036-3.18a.386.386 0 0 0 .01-.2.181.181 0 0 0-.01-.193l-1.036-1.63c-.194-.305-.448-.581-1.006-.581z" overflow="visible" fill-opacity=".1" stroke-width=".461" filter="url(#filter5140)" transform="translate(56 56)"/><path style="isolation:auto;mix-blend-mode:normal;marker:none" d="M-33.458-49.817v12.318H-54.573v-12.318l10.557-6.095z" overflow="visible" fill-opacity=".153" stroke-width=".46" filter="url(#filter5140)" transform="translate(56 56)"/><path style="isolation:auto;mix-blend-mode:normal;marker:none" d="M-34.112-49.44v11.628H-53.92v-11.627l9.903-5.718z" overflow="visible" fill="url(#i)" stroke="url(#j)" stroke-width=".508" filter="url(#filter5140)" transform="translate(56 56)"/><path style="isolation:auto;mix-blend-mode:normal;marker:none" d="M-53.59-39.626h19.148c.553 0 1.79.501 1.605 1.056l-.991 2.968c-.185.553-.43 1.056-.963 1.056h-18.45c-.533 0-.777-.503-.962-1.056l-.992-2.968c-.185-.555 1.053-1.056 1.606-1.056z" display="block" overflow="visible" fill="url(#k)" stroke-width=".435" filter="url(#filter5140)" transform="translate(56 56)"/><path d="M-49.729-39.658h11.427c1.807 0 .92.788.542 1.61l-2.078 4.526c-.369.802-.678 1.61-1.519 1.61h-5.318c-.84 0-1.15-.808-1.518-1.61l-2.078-4.526c-.378-.821-1.265-1.61.542-1.61z" style="isolation:auto;mix-blend-mode:normal;marker:none" overflow="visible" fill-opacity=".253" stroke-width=".461" filter="url(#filter5140)" transform="translate(56 56)"/><path style="isolation:auto;mix-blend-mode:normal;marker:none" d="M-49.58-39.658h11.128c1.76 0 .896.724.528 1.478l-2.024 4.155c-.359.737-.66 1.479-1.478 1.479h-5.179c-.819 0-1.12-.742-1.478-1.479l-2.024-4.155c-.368-.754-1.232-1.478.528-1.478z" overflow="visible" fill="url(#l)" stroke-width=".435" filter="url(#filter5140)" transform="translate(56 56)"/><path d="M-54.139-38.396h20.247c.585 0 1.24-.257 1.055-.541l-.991-1.523c-.185-.284-.43-.542-.963-.542h-18.45c-.533 0-.777.258-.962.542l-.992 1.523c-.185.284.471.541 1.056.541z" style="isolation:auto;mix-blend-mode:normal;marker:none" display="block" overflow="visible" fill="url(#m)" stroke-width=".312" filter="url(#filter5140)" transform="translate(56 56)"/><path style="isolation:auto;mix-blend-mode:normal;marker:none" d="M-41.482-47.748l-2.465-.034 4.043-5.02 3.774 5.054h-2.185s-.315 4.097.254 6.068c.57 1.97 2.032 2.872 2.032 2.872h-3.93s-1.138-1.103-1.572-3.21c-.434-2.105.049-5.73.049-5.73z" overflow="visible" fill="url(#n)" stroke-width=".398" filter="url(#filter5140)" transform="translate(56 56)"/><path d="M-49.414-45.713l-1.765-.025 2.895-3.594 2.701 3.619h-1.564s-.225 2.932.182 4.343c.407 1.411 1.455 2.057 1.455 2.057h-2.813s-.816-.79-1.126-2.298c-.311-1.507.035-4.102.035-4.102z" style="isolation:auto;mix-blend-mode:normal;marker:none" display="block" overflow="visible" fill="url(#o)" stroke-width=".285" filter="url(#filter5140)" transform="translate(56 56)"/><path transform="scale(.04774) rotate(-30 704.644 123.823)" d="M205.438 160l-22.719 39.35h-45.438L114.56 160l22.72-39.35h45.438z" style="isolation:auto;mix-blend-mode:normal;marker:none" overflow="visible" fill-opacity=".358" stroke-width="2.018" filter="url(#filter5140)"/></g></svg>