<svg xmlns="http://www.w3.org/2000/svg" xmlns:xlink="http://www.w3.org/1999/xlink" height="24" viewBox="0 0 24 24" width="24" enable-background="new"><title>Template icons dark</title><defs><linearGradient id="a"><stop offset="0" stop-color="#9a9a9a" stop-opacity=".973"/><stop offset="1" stop-color="#f4f4f4"/></linearGradient><linearGradient id="b"><stop offset="0" stop-color="#f598f8"/><stop offset="1" stop-color="#398bef"/></linearGradient><linearGradient xlink:href="#b" id="d" gradientUnits="userSpaceOnUse" x1="23.375" y1="41.2" x2="23.375" y2="13.95" gradientTransform="matrix(.4746 0 0 .4746 -47.788 -63.925)"/><linearGradient gradientTransform="matrix(.4746 0 0 .4746 -55.39 -57.534)" xlink:href="#b" id="e" x1="23.375" y1="41.2" x2="23.375" y2="13.95" gradientUnits="userSpaceOnUse"/><filter id="c" x="-.021" width="1.042" y="-.028" height="1.055" color-interpolation-filters="sRGB"><feGaussianBlur stdDeviation=".423"/></filter></defs><g color="#000" transform="translate(56 56)"><rect style="isolation:auto;mix-blend-mode:normal;marker:none" width="44" height="30" x="-3.249" y="17.533" rx="0" ry="1.515" transform="scale(.4746) rotate(-9.77 -767.548 622.156)" overflow="visible" fill-opacity=".157" stroke-width=".518" stroke-opacity=".157" filter="url(#c)" enable-background="accumulate"/><rect transform="rotate(-9.77)" ry=".719" rx="0" y="-58.563" x="-46.23" height="14.238" width="20.883" style="isolation:auto;mix-blend-mode:normal;marker:none" overflow="visible" fill="#fff" stroke="#000" stroke-width=".246" stroke-opacity=".157" enable-background="accumulate"/><rect transform="rotate(-9.09)" style="isolation:auto;mix-blend-mode:normal;marker:none" width="19.933" height="13.289" x="-46.364" y="-57.66" ry="0" overflow="visible" fill="url(#d)" stroke-width=".436" enable-background="accumulate"/><rect style="isolation:auto;mix-blend-mode:normal;marker:none" width="20.883" height="14.238" x="-54.441" y="-51.744" rx="0" ry=".719" overflow="visible" fill="#fff" stroke="#000" stroke-width=".246" stroke-opacity=".157" enable-background="accumulate"/><rect ry="0" y="-51.269" x="-53.967" height="13.289" width="19.933" style="isolation:auto;mix-blend-mode:normal;marker:none" overflow="visible" fill="url(#e)" stroke-width=".436" enable-background="accumulate"/><path d="M-40.33-45.596l6.297 4.59v3.025l-17.3-.03z" style="isolation:auto;mix-blend-mode:normal;marker:none" overflow="visible" fill="#fff" stroke-width=".436" enable-background="accumulate"/><path style="isolation:auto;mix-blend-mode:normal;marker:none" d="M-47.979-43.966l5.671 5.28 8.275.705h-19.934z" overflow="visible" fill="#fff" fill-opacity=".34" stroke-width=".436" enable-background="accumulate"/><path style="isolation:auto;mix-blend-mode:normal;marker:none" d="M-45.962-50.893l.111.318-.337-.009.33.062-.176.289.219-.255.162.297-.112-.318.338.009-.33-.063.176-.288-.219.255zm3.78.223l.11.316-.337-.007.33.061-.176.29.219-.257.162.297-.111-.317.338.009-.332-.062.177-.289-.22.256zm3.711.444l.112.318-.338-.009.33.062-.176.289.22-.255.16.297-.11-.318.337.008-.33-.062.176-.288-.219.255zm2.045.067l.113.317-.338-.009.33.063-.177.288.22-.255.16.297-.11-.317.337.008-.33-.062.176-.288-.219.255zm-15.204.247l.316.9-.959-.023.939.176-.501.819.622-.725.46.843-.318-.901.96.024-.939-.176.501-.819-.622.725zm4.712.664l.112.317-.338-.007.33.061-.176.288.22-.255.16.297-.11-.317.337.009-.33-.063.176-.288-.219.255zm4.238.583l-2.272 2.146c-.73.44-.203.693.105.066l2.199-2.179zm.146 1.14l-2.273 2.147c-.655.654-.15.514.106.065l2.198-2.178z" display="block" overflow="visible" fill="#fff" fill-opacity=".335" stroke-width=".297" enable-background="accumulate"/></g></svg>