<svg xmlns="http://www.w3.org/2000/svg" xmlns:xlink="http://www.w3.org/1999/xlink" height="24" viewBox="0 0 24 24" width="24"><title>Template icons dark</title><defs><linearGradient id="i"><stop offset="0" stop-color="#078cd0" stop-opacity=".781"/><stop offset=".774" stop-color="#5946dd" stop-opacity=".584"/><stop offset="1" stop-color="#ca39f1" stop-opacity=".669"/></linearGradient><linearGradient id="h"><stop offset="0" stop-color="#078cd0" stop-opacity=".698"/><stop offset=".774" stop-color="#5946dd" stop-opacity=".443"/><stop offset="1" stop-color="#ca39f1" stop-opacity=".302"/></linearGradient><linearGradient id="b"><stop offset="0" stop-color="#d1f8fc" stop-opacity=".084"/><stop offset=".501" stop-color="#fff" stop-opacity=".039"/><stop offset="1" stop-color="#b6f3fa" stop-opacity=".096"/></linearGradient><linearGradient id="a"><stop offset="0" stop-color="#777"/><stop offset="1" stop-color="#595959"/></linearGradient><linearGradient id="g"><stop offset="0" stop-color="#fff" stop-opacity=".528"/><stop offset=".561" stop-color="#fff" stop-opacity=".522"/><stop offset="1" stop-color="#fff" stop-opacity="0"/></linearGradient><linearGradient id="e"><stop offset="0" stop-color="#fff" stop-opacity=".663"/><stop offset=".561" stop-color="#fff" stop-opacity=".522"/><stop offset="1" stop-color="#fff" stop-opacity="0"/></linearGradient><linearGradient id="f"><stop offset="0" stop-color="#fff"/><stop offset=".561" stop-color="#fff" stop-opacity=".522"/><stop offset="1" stop-color="#fff" stop-opacity="0"/></linearGradient><linearGradient id="d"><stop offset="0" stop-color="#4fb9ef" stop-opacity=".459"/><stop offset=".836" stop-color="#1f1cec" stop-opacity=".315"/><stop offset=".888" stop-color="#d039f1" stop-opacity=".376"/><stop offset="1" stop-color="#ca39f1" stop-opacity=".302"/></linearGradient><linearGradient id="c"><stop offset="0" stop-color="#393939"/><stop offset="1" stop-color="#181818"/></linearGradient><radialGradient xlink:href="#i" id="k" cx="-226.274" cy=".459" fx="-226.274" fy=".459" r="15.999" gradientUnits="userSpaceOnUse" gradientTransform="matrix(.34241 -.34241 .34286 .34286 33.34 -121.712)"/><radialGradient gradientTransform="matrix(.31533 0 0 .31533 -94.452 -94.765)" xlink:href="#c" id="j" cx="160" cy="160" fx="160" fy="160" r="33" gradientUnits="userSpaceOnUse"/></defs><g color="#000" transform="translate(56 56)"><path style="isolation:auto;mix-blend-mode:normal;marker:none" d="M-39.35-50.231l3.707-3.707a1.245 1.245 0 0 1 1.764 0 1.245 1.245 0 0 1 0 1.765l-3.706 3.706a1.245 1.245 0 0 1-1.764 0 1.245 1.245 0 0 1 0-1.764z" display="block" overflow="visible" fill="#fff" stroke-width=".122" stroke-linecap="round" stroke-linejoin="round" paint-order="stroke fill markers"/><path style="isolation:auto;mix-blend-mode:normal;marker:none" d="M-33.2-43.997a10.8 10.8 0 0 1-10.8 10.8 10.8 10.8 0 0 1-10.8-10.8 10.8 10.8 0 0 1 10.8-10.8 10.8 10.8 0 0 1 10.8 10.8z" overflow="visible" fill-opacity=".23" stroke-width=".572" paint-order="fill markers stroke"/><path style="isolation:auto;mix-blend-mode:normal;marker:none" d="M-33.91-44.313A10.09 10.09 0 0 1-44-34.223a10.09 10.09 0 0 1-10.09-10.09A10.09 10.09 0 0 1-44-54.403a10.09 10.09 0 0 1 10.09 10.09z" overflow="visible" fill="url(#j)" stroke="#f2f2f2" stroke-width=".632" paint-order="fill markers stroke"/><path style="line-height:normal;font-variant-ligatures:normal;font-variant-position:normal;font-variant-caps:normal;font-variant-numeric:normal;font-variant-alternates:normal;font-feature-settings:normal;text-indent:0;text-align:start;text-decoration-line:none;text-decoration-style:solid;text-decoration-color:#000;text-transform:none;text-orientation:mixed;shape-padding:0;isolation:auto;mix-blend-mode:normal;marker:none" d="M-44-54.829c-5.803 0-10.516 4.714-10.516 10.516 0 5.803 4.713 10.516 10.516 10.516s10.516-4.713 10.516-10.516c0-5.802-4.713-10.516-10.516-10.516zm0 1.096a9.238 9.238 0 0 1 9.244 9.244c0 5.11-3.94 9.77-9.244 9.77s-9.244-4.66-9.244-9.77A9.238 9.238 0 0 1-44-53.733z" font-weight="400" font-family="sans-serif" white-space="normal" overflow="visible" fill="#fff" stroke-width="1.261" paint-order="fill markers stroke"/><path style="isolation:auto;mix-blend-mode:normal;marker:none" d="M-38.4-38.755a7.974 7.974 0 0 1-11.276-.023l5.65-5.627z" overflow="visible" fill="#c7e8fb" fill-opacity=".157" stroke-width=".499" paint-order="fill markers stroke"/><path style="isolation:auto;mix-blend-mode:normal;marker:none" d="M-49.477-49.575a7.762 7.762 0 0 1 10.976.022L-44-44.076z" overflow="visible" fill="url(#k)" stroke-width=".486" paint-order="fill markers stroke"/><path style="isolation:auto;mix-blend-mode:normal;marker:none" d="M-43.37-43.322a.65.439 0 0 1-.65.44.65.439 0 0 1-.65-.44.65.439 0 0 1 .65-.439.65.439 0 0 1 .65.44z" overflow="visible" fill="#c7e8fb" fill-opacity=".382" stroke-width=".089" paint-order="fill markers stroke"/><path style="isolation:auto;mix-blend-mode:normal;marker:none" d="M-42.864-45.711a1.136.925 0 0 1-1.136.924 1.136.925 0 0 1-1.136-.924A1.136.925 0 0 1-44-46.636a1.136.925 0 0 1 1.136.925z" overflow="visible" fill="#ecf7fe" fill-opacity=".438" stroke-width=".089" paint-order="fill markers stroke"/><circle style="isolation:auto;mix-blend-mode:normal;marker:none" cx="-34.813" cy="-53.016" r=".767" overflow="visible" fill="#e33535" stroke-width=".384" paint-order="fill markers stroke"/><circle style="isolation:auto;mix-blend-mode:normal;marker:none" cx="-44" cy="-44.313" r="3.784" overflow="visible" fill="none" fill-opacity=".459" stroke="#8e8e8e" stroke-width="1.584" paint-order="fill markers stroke"/></g></svg>