<svg xmlns:osb="http://www.openswatchbook.org/uri/2009/osb" xmlns="http://www.w3.org/2000/svg" xmlns:xlink="http://www.w3.org/1999/xlink" height="24" viewBox="0 0 24 24" width="24"><title>Template icons dark</title><defs><linearGradient id="a"><stop offset="0" stop-color="#665e8f"/><stop offset="1" stop-color="#343b41"/></linearGradient><linearGradient id="b"><stop offset="0" stop-color="#383d60"/><stop offset="1" stop-color="#242e42"/></linearGradient><linearGradient xlink:href="#a" id="h" gradientUnits="userSpaceOnUse" x1="-54.181" y1="-49" x2="-37" y2="-37"/><linearGradient id="d"><stop offset="0" stop-opacity=".204"/><stop offset="1" stop-opacity="0"/></linearGradient><linearGradient id="e" osb:paint="solid"><stop offset="0" stop-color="#8ca1a8" stop-opacity=".424"/></linearGradient><linearGradient id="f" osb:paint="solid"><stop offset="0" stop-color="#ff4ca1"/></linearGradient><linearGradient id="c"><stop offset="0" stop-color="#dce1e8"/><stop offset="1" stop-color="#fff"/></linearGradient><linearGradient id="g"><stop offset="0" stop-color="#383d60"/><stop offset="1" stop-color="#242e42"/></linearGradient><linearGradient xlink:href="#c" id="j" gradientUnits="userSpaceOnUse" gradientTransform="matrix(.54285 0 0 .54285 -50.862 -48.712)" x1="17.92" y1="19.84" x2="17.92" y2="11.307"/><linearGradient xlink:href="#f" id="i" gradientUnits="userSpaceOnUse" gradientTransform="matrix(.21801 0 0 .21927 -49.911 -268.628)"/><linearGradient xlink:href="#e" id="k" gradientUnits="userSpaceOnUse" gradientTransform="matrix(.27252 0 0 .27252 -6.74 -25.916)" x1="-49.096" y1="1041.18" x2="-9.096" y2="1041.18"/><linearGradient xlink:href="#c" id="l" gradientUnits="userSpaceOnUse" gradientTransform="matrix(.54285 0 0 .54285 267.414 66.715)" x1="-578.647" y1="-204.784" x2="-578.647" y2="-214.622"/></defs><path style="isolation:auto;mix-blend-mode:normal;marker:none" d="M12 20.246l-7.215-3.092V7.877L12 3.754l7.215 4.123v9.277z" color="#000" display="block" overflow="visible" fill="#29324a" stroke-width=".018"/><path style="isolation:auto;mix-blend-mode:normal;marker:none" d="M-44.031-54L-53-49l-.118 11 9.087 4L-35-37.945V-49zm.031 2l7 4v9l-7 3-7-3v-9z" color="#000" display="block" overflow="visible" fill="url(#h)" stroke-width=".022" transform="translate(56 56)"/><path d="M-47.377-42.342h6.54a2.04 2.04 0 0 1 2.044 2.044 2.04 2.04 0 0 1-2.044 2.044h-6.54a2.04 2.04 0 0 1-2.044-2.044 2.04 2.04 0 0 1 2.044-2.044z" fill="url(#i)" stroke-width=".246" transform="translate(56 56)"/><path d="M-38.248-40.298a2.861 2.861 0 0 1-2.861 2.861 2.861 2.861 0 0 1-2.862-2.861 2.861 2.861 0 0 1 2.862-2.862 2.861 2.861 0 0 1 2.861 2.862z" fill="url(#j)" stroke-width=".113" stroke-miterlimit="4.6" transform="translate(56 56)"/><path d="M-47.105-49.044h6.54A2.04 2.04 0 0 1-38.52-47a2.04 2.04 0 0 1-2.044 2.044h-6.54A2.04 2.04 0 0 1-49.149-47a2.04 2.04 0 0 1 2.043-2.044z" fill="url(#k)" stroke-width=".274" transform="translate(56 56)"/><path d="M-43.97-47a2.861 2.861 0 0 1-2.862 2.861A2.861 2.861 0 0 1-49.693-47a2.861 2.861 0 0 1 2.861-2.861A2.861 2.861 0 0 1-43.971-47z" fill="url(#l)" stroke-width=".113" stroke-miterlimit="4.6" transform="translate(56 56)"/></svg>