<svg xmlns="http://www.w3.org/2000/svg" xmlns:xlink="http://www.w3.org/1999/xlink" height="24" viewBox="0 0 24 24" width="24"><title>Template icons dark</title><defs><linearGradient id="d"><stop offset="0" stop-color="#fff" stop-opacity=".763"/><stop offset="1" stop-color="#fff" stop-opacity=".632"/></linearGradient><linearGradient id="c"><stop offset="0" stop-color="#fff"/><stop offset="1" stop-color="#fff" stop-opacity=".637"/></linearGradient><linearGradient id="b"><stop offset="0" stop-color="#ff053c"/><stop offset="1" stop-color="#0b31ff" stop-opacity=".974"/></linearGradient><linearGradient id="a"><stop offset="0" stop-color="#1ed760"/><stop offset="1" stop-color="#1ed760"/></linearGradient><linearGradient xlink:href="#a" id="e" x1="24.535" y1="7.996" x2="24.705" y2="38.25" gradientUnits="userSpaceOnUse" gradientTransform="matrix(.55064 0 0 .55064 -57.26 -58.074)"/><linearGradient xlink:href="#b" id="f" x1="122" y1="183" x2="196" y2="142" gradientUnits="userSpaceOnUse" gradientTransform="matrix(.25838 0 0 .25838 -85.341 -85.341)"/><linearGradient gradientTransform="matrix(.25 0 0 .25 -84 -84)" xlink:href="#c" id="h" x1="160.063" y1="147" x2="158.323" y2="181" gradientUnits="userSpaceOnUse"/><linearGradient gradientTransform="matrix(.25 0 0 .25 -84 -84)" xlink:href="#d" id="g" x1="172" y1="119" x2="148.724" y2="201.638" gradientUnits="userSpaceOnUse"/></defs><g color="#000" transform="translate(56 56)"><circle style="isolation:auto;mix-blend-mode:normal;marker:none" cx="-44" cy="-44" r="12" display="block" overflow="visible" fill-opacity=".078" stroke-width=".521"/><circle style="isolation:auto;mix-blend-mode:normal;marker:none" cx="-44" cy="-44" r="11.5" overflow="visible" fill="url(#e)" stroke-width=".641"/><circle r="11.5" cy="-44" cx="-44" style="isolation:auto;mix-blend-mode:normal;marker:none" overflow="visible" opacity=".109" fill="url(#f)" stroke-width=".641"/><circle style="isolation:auto;mix-blend-mode:normal;marker:none" cx="-44" cy="-44" r="11.188" overflow="visible" fill="none" stroke="url(#g)" stroke-width=".625"/><path style="line-height:normal;font-variant-ligatures:normal;font-variant-position:normal;font-variant-caps:normal;font-variant-numeric:normal;font-variant-alternates:normal;font-feature-settings:normal;text-indent:0;text-align:start;text-decoration-line:none;text-decoration-style:solid;text-decoration-color:#000;text-transform:none;text-orientation:mixed;shape-padding:0;isolation:auto;mix-blend-mode:normal" d="M-45.329-49.35c-1.894.001-3.762.25-5.512.718a1.062 1.062 0 1 0 .547 2.051c4.18-1.114 9.182-.825 13.27 1.33a1.062 1.062 0 1 0 .99-1.879c-2.902-1.529-6.137-2.22-9.295-2.22zm-.125 3.906a17.451 17.451 0 0 0-4.71.614.914.914 0 1 0 .49 1.761c3.356-.935 8.065-.683 11.243 1.31a.914.914 0 1 0 .972-1.55c-2.364-1.481-5.236-2.124-7.995-2.135zm.204 3.694c-1.614-.025-3.162.214-4.586.53a.708.708 0 1 0 .307 1.383c3.114-.692 6.528-.965 9.983 1.096a.708.708 0 1 0 .725-1.216c-2.17-1.295-4.354-1.762-6.429-1.793z" font-weight="400" font-family="sans-serif" white-space="normal" overflow="visible" fill-opacity=".147" stroke-width="2.123"/><path d="M-45.329-49.6c-1.894.001-3.762.25-5.512.718a1.062 1.062 0 1 0 .547 2.051c4.18-1.114 9.182-.825 13.27 1.33a1.062 1.062 0 1 0 .99-1.879c-2.902-1.529-6.137-2.22-9.295-2.22zm-.125 3.906a17.451 17.451 0 0 0-4.71.614.914.914 0 1 0 .49 1.761c3.356-.935 8.065-.683 11.243 1.31a.914.914 0 1 0 .972-1.55c-2.364-1.481-5.236-2.124-7.995-2.135zM-45.25-42c-1.614-.025-3.162.214-4.586.53a.708.708 0 1 0 .307 1.383c3.114-.692 6.528-.965 9.983 1.096a.708.708 0 1 0 .725-1.216c-2.17-1.295-4.354-1.762-6.429-1.793z" style="line-height:normal;font-variant-ligatures:normal;font-variant-position:normal;font-variant-caps:normal;font-variant-numeric:normal;font-variant-alternates:normal;font-feature-settings:normal;text-indent:0;text-align:start;text-decoration-line:none;text-decoration-style:solid;text-decoration-color:#000;text-transform:none;text-orientation:mixed;shape-padding:0;isolation:auto;mix-blend-mode:normal" font-weight="400" font-family="sans-serif" white-space="normal" overflow="visible" fill="url(#h)" stroke-width="2.123"/></g></svg>