<svg xmlns="http://www.w3.org/2000/svg" xmlns:xlink="http://www.w3.org/1999/xlink" height="24" viewBox="0 0 24 24" width="24"><title>Template icons dark</title><defs><linearGradient id="b"><stop offset="0" stop-color="#aed5f8"/><stop offset="1" stop-color="#f7cbff"/></linearGradient><linearGradient id="c"><stop offset="0" stop-color="#5a9fdb"/><stop offset="1" stop-color="#e47ff5"/></linearGradient><linearGradient id="a"><stop offset="0" stop-color="#1d273b"/><stop offset="1" stop-color="#342b38"/></linearGradient><linearGradient xlink:href="#a" id="d" gradientUnits="userSpaceOnUse" gradientTransform="matrix(.5336 0 0 -.5336 -56.422 -30.81)" x1="14.633" y1="41.796" x2="34.842" y2="6.78"/><linearGradient xlink:href="#c" id="e" gradientUnits="userSpaceOnUse" gradientTransform="translate(-84.832 -84.832) scale(.2552)" x1="113" y1="160" x2="207" y2="160"/><linearGradient xlink:href="#b" id="f" gradientUnits="userSpaceOnUse" gradientTransform="matrix(.29647 0 0 .29647 -86.885 -95.786)" x1="112.037" y1="174.404" x2="175.498" y2="174.404"/></defs><g color="#000"><path style="isolation:auto;mix-blend-mode:normal;marker:none" d="M-44-32.26c-6.483 0-11.74-5.257-11.74-11.74 0-6.483 5.257-11.74 11.74-11.74 6.483 0 11.74 5.257 11.74 11.74 0 6.483-5.257 11.74-11.74 11.74z" overflow="visible" fill="url(#d)" stroke="url(#e)" stroke-width=".521" transform="translate(56 56.063)"/><path style="isolation:auto;mix-blend-mode:normal;marker:none" d="M-39.666-52.994c-1.363-.073-2.604.544-3.444 1.453a4.6 4.6 0 0 0-.281.335l-7.757 10.181-4.582-2.601s.015.925.153 1.594c.171.833.386 1.603.386 1.603l2.703 1.46c-.303.968-.1 2.071.752 2.923 1.142 1.142 2.735 1.12 3.85.271l11.31-8.615c1.845-1.405 2.629-4.549.181-6.997-1.077-1.077-2.211-1.55-3.271-1.607zm.063 1.728a3.237 3.237 0 1 1-2.337.948 3.237 3.237 0 0 1 2.337-.948zm-.055 1.112a2.086 2.086 0 1 0 0 4.172 2.086 2.086 0 0 0 0-4.172zm-9.426 9.665a1.87 1.87 0 1 1-1.847 2.295l1.35.672a1.221 1.221 0 0 0 1.03-2.211l-1.252-.623a1.87 1.87 0 0 1 .719-.133z" overflow="visible" fill="url(#f)" stroke-width=".296" transform="translate(56 56.063)"/></g></svg>