<svg xmlns="http://www.w3.org/2000/svg" xmlns:xlink="http://www.w3.org/1999/xlink" height="24" viewBox="0 0 24 24" width="24"><title>Template icons dark</title><defs><linearGradient id="a"><stop offset="0" stop-color="#eadfec"/><stop offset="1" stop-color="#c0dde6"/></linearGradient><linearGradient id="b"><stop offset="0" stop-color="#3e4453"/><stop offset="1" stop-color="#222630"/></linearGradient><linearGradient id="c"><stop offset="0" stop-color="#abd6e5"/><stop offset="1" stop-color="#f7e2f7"/></linearGradient><linearGradient xlink:href="#a" id="f" gradientUnits="userSpaceOnUse" gradientTransform="translate(-57.408 -58.499) scale(.59443)" x1="17.302" y1="14.341" x2="30.113" y2="34.354"/><linearGradient xlink:href="#b" id="d" gradientUnits="userSpaceOnUse" gradientTransform="matrix(.56209 0 0 .56209 -57.536 -58.366)" x1="24.535" y1="7.996" x2="24.766" y2="38.006"/><linearGradient xlink:href="#c" id="e" gradientUnits="userSpaceOnUse" gradientTransform="matrix(.55853 0 0 .55853 -57.405 -59.192)" x1="36.062" y1="47.638" x2="13.188" y2="8.325"/></defs><g transform="translate(56 56)"><circle r="11.739" cy="-44" cx="-44" style="isolation:auto;mix-blend-mode:normal;marker:none" color="#000" overflow="visible" fill="url(#d)" stroke="url(#e)" stroke-width=".522"/><path style="isolation:auto;mix-blend-mode:normal;marker:none" color="#000" display="block" overflow="visible" fill="#869eb6" stroke-width="1.303" d="M-48.598-50.13h3.065v1.533h-3.065z"/><path style="isolation:auto;mix-blend-mode:normal;marker:none" color="#000" display="block" overflow="visible" fill="#8e9f81" stroke-width=".988" d="M-45.826-50h1.565v1.043h-1.565z"/><path style="isolation:auto;mix-blend-mode:normal;marker:none" color="#000" display="block" overflow="visible" fill="#86b1d6" fill-opacity=".357" stroke-width="1.491" d="M-46.299-47.152H-44v1.619h-2.299z"/><path style="isolation:auto;mix-blend-mode:normal;marker:none" color="#000" display="block" overflow="visible" fill="#88885e" fill-opacity=".495" stroke-width="1.45" d="M-43.234-47.065h2.299v1.533h-2.299z"/><path style="isolation:auto;mix-blend-mode:normal;marker:none" color="#000" display="block" overflow="visible" fill="#987f95" fill-opacity=".676" stroke-width="1.153" d="M-48.699-40.935h2.4v1.533h-2.4z"/><path style="isolation:auto;mix-blend-mode:normal;marker:none" color="#000" display="block" overflow="visible" fill="#68798d" fill-opacity=".764" stroke-width="1.675" d="M-45.533-40.935h3.065v1.533h-3.065z"/><path style="isolation:auto;mix-blend-mode:normal;marker:none" color="#000" overflow="visible" fill="#606d78" stroke-width="1.456" d="M-41.701-40.935h3.832v1.533h-3.832z"/><path style="isolation:auto;mix-blend-mode:normal;marker:none" color="#000" display="block" overflow="visible" fill="#53c290" stroke-width="1.303" d="M-48.598-37.87h3.065v1.533h-3.065z"/><path style="isolation:auto;mix-blend-mode:normal;marker:none" color="#000" display="block" overflow="visible" fill="#e675d2" stroke-width="1.45" d="M-44.766-37.87h2.299v1.533h-2.299z"/><path style="isolation:auto;mix-blend-mode:normal;marker:none" color="#000" display="block" overflow="visible" fill="#8f6094" stroke-width="1.085" d="M-40.168-47.065h2.299v1.533h-2.299z"/><path style="isolation:auto;mix-blend-mode:normal;marker:none" color="#000" display="block" overflow="visible" fill="#575f70" stroke-width="1.533" d="M-50.897-50.13h1.533v1.533h-1.533zM-50.897-47.065h1.533v1.533h-1.533zM-50.897-44h1.533v1.533h-1.533z"/><path style="isolation:auto;mix-blend-mode:normal;marker:none" color="#000" display="block" overflow="visible" fill="#575f70" stroke-width="1.531" d="M-50.897-40.931h1.533v1.529h-1.533z"/><path style="isolation:auto;mix-blend-mode:normal;marker:none" color="#000" display="block" overflow="visible" fill="#575f70" stroke-width="1.533" d="M-50.897-37.87h1.533v1.533h-1.533z"/><path style="isolation:auto;mix-blend-mode:normal;marker:none" color="#000" display="block" overflow="visible" fill="#9176e2" stroke-width="1.128" d="M-48.598-52.429h2.299v1.533h-2.299z"/><path style="isolation:auto;mix-blend-mode:normal;marker:none" color="#000" display="block" overflow="visible" fill="#57bdff" fill-opacity=".824" stroke-width="1.45" d="M-45.533-52.429h2.299v1.533h-2.299z"/><path style="isolation:auto;mix-blend-mode:normal;marker:none" color="#000" display="block" overflow="visible" fill="#575f70" stroke-width="1.533" d="M-50.897-52.429h1.533v1.533h-1.533z"/><path d="M-41.512-40.342q0-.828-.63-1.281-.618-.464-2.175-.795-1.545-.331-2.462-.795-.905-.464-1.347-1.104-.43-.64-.43-1.524 0-1.468 1.236-2.484 1.248-1.016 3.18-1.016 2.032 0 3.29 1.049 1.27 1.049 1.27 2.683h-2.054q0-.84-.717-1.446-.707-.608-1.789-.608-1.115 0-1.745.486-.629.486-.629 1.27 0 .74.585 1.115.585.376 2.11.718 1.534.342 2.483.817.95.475 1.403 1.148.463.663.463 1.623 0 1.601-1.28 2.573-1.281.96-3.324.96-1.435 0-2.54-.507-1.103-.508-1.733-1.414-.618-.916-.618-1.976h2.043q.055 1.027.817 1.634.772.596 2.031.596 1.16 0 1.855-.463.707-.475.707-1.26z" style="line-height:10;-inkscape-font-specification:Roboto" font-weight="400" font-size="83.863" font-family="Roboto" letter-spacing="0" word-spacing="0" fill-opacity=".385" stroke-width="1.099" stroke-opacity=".194"/><path style="line-height:10;-inkscape-font-specification:Roboto" d="M-41.512-41.375q0-.828-.63-1.28-.618-.464-2.175-.796-1.545-.33-2.462-.795-.905-.463-1.347-1.104-.43-.64-.43-1.523 0-1.469 1.236-2.485 1.248-1.016 3.18-1.016 2.032 0 3.29 1.05 1.27 1.048 1.27 2.682h-2.054q0-.839-.717-1.446-.707-.607-1.789-.607-1.115 0-1.745.486-.629.485-.629 1.27 0 .74.585 1.115t2.11.717q1.534.342 2.483.817.95.475 1.403 1.149.463.662.463 1.623 0 1.6-1.28 2.572-1.281.96-3.324.96-1.435 0-2.54-.507-1.103-.508-1.733-1.413-.618-.917-.618-1.977h2.043q.055 1.027.817 1.634.772.597 2.031.597 1.16 0 1.855-.464.707-.475.707-1.259z" font-weight="400" font-size="83.863" font-family="Roboto" letter-spacing="0" word-spacing="0" fill="url(#f)" stroke-width="1.099" stroke-opacity=".194"/></g></svg>