<svg xmlns="http://www.w3.org/2000/svg" xmlns:xlink="http://www.w3.org/1999/xlink" height="24" viewBox="0 0 24 24" width="24"><title>Template icons dark</title><defs><linearGradient id="d"><stop offset="0" stop-color="#443791"/><stop offset="1" stop-color="#915cb8"/></linearGradient><linearGradient id="c"><stop offset="0" stop-color="#fff"/><stop offset="1" stop-color="#d2d2d2"/></linearGradient><linearGradient id="b"><stop offset="0" stop-color="#5a41e2"/><stop offset="1" stop-color="#4c9ce0" stop-opacity=".945"/></linearGradient><linearGradient id="a"><stop offset="0" stop-color="#fffefe"/><stop offset="1" stop-color="#fff" stop-opacity=".855"/></linearGradient><linearGradient gradientTransform="matrix(.26374 0 0 .26374 -86.198 -86.204)" xlink:href="#c" id="f" x1="160.425" y1="131.905" x2="160.425" y2="202" gradientUnits="userSpaceOnUse"/><linearGradient gradientTransform="scale(.26374) rotate(-45 -557.97 231.094)" xlink:href="#d" id="e" x1="12.131" y1="258.452" x2="12.131" y2="181.283" gradientUnits="userSpaceOnUse"/></defs><path style="isolation:auto;mix-blend-mode:normal;marker:none" d="M.46 10.89L10.89.46a1.565 1.565 0 0 1 2.22 0l10.43 10.43a1.565 1.565 0 0 1 0 2.22L13.11 23.54a1.565 1.565 0 0 1-2.22 0L.46 13.11a1.565 1.565 0 0 1 0-2.22z" color="#000" overflow="visible" fill="#040307" fill-opacity=".1" stroke-width=".099" stroke-opacity=".104" paint-order="fill markers stroke"/><path style="isolation:auto;mix-blend-mode:normal;marker:none" d="M-55.095-45.067l10.028-10.028c.591-.591 1.543-.591 2.134 0l10.028 10.028c.591.591.591 1.543 0 2.134l-10.028 10.028c-.591.591-1.543.591-2.134 0l-10.028-10.028a1.505 1.505 0 0 1 0-2.134z" color="#000" overflow="visible" fill="url(#e)" stroke-width=".096" stroke-opacity=".104" paint-order="fill markers stroke" transform="translate(56 56)"/><path d="M9.154 2.617l-.264.264 2.694 2.694a1.79 1.79 0 0 1 1.843.43c.283.283.447.638.5 1.005a1.79 1.79 0 0 0-2.344-1.962zm1.236 3.85c-.028.181-.03.364-.003.545.022-.147.058-.293.116-.432zm3.553.955a1.805 1.805 0 0 1-.09.438l2.597 2.596a1.792 1.792 0 0 1 2.359 1.431 1.79 1.79 0 0 0-2.36-1.959zm1.322 3.936a1.795 1.795 0 0 0-.001.53 1.78 1.78 0 0 1 .11-.42zM.42 11.735c-.084.469.055.97.417 1.332l10.097 10.096c.588.589 1.543.589 2.133 0l10.096-10.096c.362-.362.5-.862.417-1.33-.052.294-.19.575-.417.802L13.067 22.636a1.508 1.508 0 0 1-2.133 0L.837 12.538a1.5 1.5 0 0 1-.417-.804zm11.06 3.102a1.793 1.793 0 0 0-1.092 1.924 1.781 1.781 0 0 1 1.091-1.396zm1.475.053v.527a1.784 1.784 0 0 1 .979 1.345 1.79 1.79 0 0 0-.98-1.872z" fill="#fff" fill-opacity=".668" stroke-width=".255"/><path style="line-height:normal;font-variant-ligatures:normal;font-variant-position:normal;font-variant-caps:normal;font-variant-numeric:normal;font-variant-alternates:normal;font-feature-settings:normal;text-indent:0;text-align:start;text-decoration-line:none;text-decoration-style:solid;text-decoration-color:#000;text-transform:none;text-orientation:mixed;shape-padding:0;isolation:auto;mix-blend-mode:normal" d="M11.55 5.721l.075-.025a1.664 1.664 0 0 1 2.108 2.122l-.027.075 2.71 2.71.075-.027a1.663 1.663 0 0 1 1.723.396 1.665 1.665 0 0 1 0 2.358 1.667 1.667 0 1 1-2.722-1.814l.033-.078-2.7-2.7.002 6.759.071.035a1.665 1.665 0 0 1 .441 2.674 1.666 1.666 0 0 1-2.357 0 1.666 1.666 0 0 1 .546-2.723l.079-.033-.002-6.601-.079-.033a1.667 1.667 0 0 1-.906-2.187l.033-.078L7.961 3.87l-.166.188 2.567 2.562a1.915 1.915 0 0 0 .437 2.012c.163.164.355.275.551.367l.002 6.3a1.902 1.902 0 0 0-.55.368 1.924 1.924 0 0 0 0 2.718c.75.75 1.969.75 2.718 0 .75-.75.75-1.968 0-2.718a1.895 1.895 0 0 0-.438-.313l-.001-6 2.154 2.154c-.24.678-.1 1.46.44 2.002.751.75 1.97.75 2.72 0 .75-.75.749-1.968-.001-2.718a1.911 1.911 0 0 0-1.9-.473L13.99 7.816a1.912 1.912 0 0 0-.473-1.9 1.91 1.91 0 0 0-1.889-.477c-.901-.86-2.62-2.616-2.62-2.616l-.17.174z" color="#000" font-weight="400" font-family="sans-serif" white-space="normal" overflow="visible" fill-opacity="0" stroke="#000" stroke-width=".36" stroke-opacity=".142"/><path d="M-32.837-45.067l-10.096-10.095a1.509 1.509 0 0 0-2.133 0l-2.044 2.043 2.694 2.694a1.79 1.79 0 0 1 2.269 2.284l2.597 2.597a1.795 1.795 0 1 1-1.075 1.012l-2.422-2.422.002 6.372a1.795 1.795 0 1 1-1.475-.053l-.002-6.43a1.795 1.795 0 0 1-.975-2.354l-2.656-2.657-7.01 7.01a1.509 1.509 0 0 0 0 2.133l10.097 10.096c.588.589 1.543.59 2.133 0l10.096-10.096a1.51 1.51 0 0 0 0-2.134z" fill="url(#f)" stroke-width=".255" transform="translate(56 56)"/></svg>