<svg xmlns="http://www.w3.org/2000/svg" xmlns:xlink="http://www.w3.org/1999/xlink" height="24" viewBox="0 0 24 24" width="24"><title>Template icons dark</title><defs><linearGradient id="d"><stop offset="0" stop-color="#4e98d9"/><stop offset="1" stop-color="#ce18ec"/></linearGradient><linearGradient id="c"><stop offset="0" stop-color="#3489d3"/><stop offset="1" stop-color="#dd5ff2"/></linearGradient><linearGradient id="a"><stop offset="0" stop-color="#5a9fdb"/><stop offset="1" stop-color="#e47ff5"/></linearGradient><linearGradient id="b"><stop offset="0" stop-color="#d1d6da"/><stop offset="1" stop-color="#fff"/></linearGradient><linearGradient xlink:href="#c" id="f" gradientUnits="userSpaceOnUse" gradientTransform="scale(.44321) rotate(45 86.895 -250.246)" x1="76.324" y1="-11.358" x2="40.503" y2="-11.358"/><linearGradient xlink:href="#b" id="e" gradientUnits="userSpaceOnUse" gradientTransform="matrix(.54545 0 0 .54545 -56.698 -57.484)" x1="22.978" y1="39.178" x2="22.978" y2="21.425"/></defs><path style="isolation:auto;mix-blend-mode:normal;marker:none" d="M-44-56c-6.627 0-12 5.373-12 12s5.373 12 12 12 12-5.373 12-12-5.373-12-12-12z" color="#000" overflow="visible" fill="url(#e)" stroke-width=".273" stroke-opacity=".702" transform="translate(56 56.063)"/><path d="M-40.24-47.76l-1.88 1.88h5.015v-5.015l-1.88 1.88a7.09 7.09 0 0 0-10.03 0 7.041 7.041 0 0 0-1.892 3.448h1.83a5.255 5.255 0 0 1 1.316-2.194 5.317 5.317 0 0 1 7.522 0zm3.147 5.327h-1.83a5.255 5.255 0 0 1-1.316 2.194 5.317 5.317 0 0 1-7.522 0l1.88-1.88h-5.014v5.014l1.88-1.88a7.09 7.09 0 0 0 10.03 0 7.042 7.042 0 0 0 1.892-3.448z" style="marker:none" fill="url(#f)" stroke-width=".674" stroke-opacity=".073" transform="translate(56 56.063)"/></svg>