<svg xmlns="http://www.w3.org/2000/svg" xmlns:xlink="http://www.w3.org/1999/xlink" height="24" viewBox="0 0 24 24" width="24"><title>Template icons dark</title><defs><linearGradient id="a"><stop offset="0" stop-color="#fff" stop-opacity=".105"/><stop offset="1" stop-color="#fff" stop-opacity=".414"/></linearGradient><linearGradient id="b"><stop offset="0" stop-color="#4b4b4b"/><stop offset=".125" stop-color="#fff"/><stop offset=".306" stop-color="#5c5c5c"/><stop offset=".455" stop-color="#fff"/><stop offset=".55" stop-color="#fff"/><stop offset=".731" stop-color="#626262"/><stop offset=".931" stop-color="#fff"/><stop offset="1" stop-color="#505050"/></linearGradient><linearGradient id="c"><stop offset="0" stop-color="#fcfcfc"/><stop offset=".512" stop-color="#7c7c7c"/><stop offset=".904" stop-color="#fcfcfc"/><stop offset="1" stop-color="#b5b5b5"/></linearGradient><linearGradient id="d"><stop offset="0" stop-opacity="0"/><stop offset="1" stop-color="#919191" stop-opacity=".502"/></linearGradient><linearGradient id="e"><stop offset="0" stop-color="#15b5ff"/><stop offset="1" stop-color="#1385ff"/></linearGradient><linearGradient id="f"><stop offset="0" stop-color="#42ec81"/><stop offset="1" stop-color="#3add5c"/></linearGradient><linearGradient id="g"><stop offset="0" stop-color="#ff8300"/><stop offset="1" stop-color="#ff5b00"/></linearGradient><linearGradient id="h"><stop offset="0" stop-color="#f72424" stop-opacity=".066"/><stop offset="1" stop-color="#f72424" stop-opacity=".118"/></linearGradient><linearGradient xlink:href="#c" id="i" x1="11.592" y1="14.007" x2="28.333" y2="31.765" gradientUnits="userSpaceOnUse" gradientTransform="matrix(.7484 0 0 .7484 -61.336 -64.127)"/><linearGradient xlink:href="#d" id="j" x1="8.57" y1="18.196" x2="28.333" y2="31.765" gradientUnits="userSpaceOnUse" gradientTransform="matrix(.7484 0 0 .7484 -61.336 -64.127)"/><linearGradient xlink:href="#b" id="l" gradientUnits="userSpaceOnUse" gradientTransform="matrix(.5671 .56157 -1.11238 1.14519 196.997 109.169)" x1="45.878" y1="34.792" x2="45.869" y2="42.694"/><linearGradient xlink:href="#b" id="m" gradientUnits="userSpaceOnUse" gradientTransform="matrix(.7981 0 0 1.5965 225.755 -64.719)" x1="45.878" y1="34.792" x2="46.015" y2="47.577"/><linearGradient xlink:href="#a" id="k" x1="20.54" y1="20.256" x2="17.967" y2="15.009" gradientUnits="userSpaceOnUse" gradientTransform="matrix(.57514 0 0 .57514 -57.662 -60.642)"/></defs><path style="font-variant-east_asian:normal" d="M9.662.659C5.05.659.719 4.814.719 9.426c0 4.613 4.228 8.772 8.84 8.772s8.703-4.09 8.703-8.703c0-4.612-3.988-8.836-8.6-8.836zM9.559 2.05c4.064 0 7.336 2.796 7.336 6.86a7.32 7.32 0 0 1-7.336 7.337 7.32 7.32 0 0 1-7.336-7.336c0-4.065 3.272-6.86 7.336-6.86z" fill="#050505" fill-opacity=".13" stroke-width=".748"/><path d="M-46.556-55.945a9.369 9.369 0 0 0-9.39 9.39 9.369 9.369 0 0 0 9.39 9.388 9.369 9.369 0 0 0 9.39-9.389 9.369 9.369 0 0 0-9.39-9.389zm0 .97a8.4 8.4 0 0 1 8.419 8.42 8.4 8.4 0 0 1-8.419 8.418 8.4 8.4 0 0 1-8.419-8.419 8.4 8.4 0 0 1 8.419-8.418z" fill="url(#i)" stroke="url(#j)" stroke-width=".11" transform="translate(56 56)"/><path d="M-46.15-52.402c-.37-.014-.74.019-1.1.108-3.584.881-4.843 4.075-3.758 5.248.884.955 1.698-.874 4.186-1.472 2.487-.598 3.863 1.194 4.634.166 1.162-1.551-1.379-3.95-3.963-4.05zm4.233 5.115c-.365-.032-.75.253-.897.667-.168.474.01 1.012.415 1.156.405.144.883-.161 1.051-.635.169-.473-.01-1.01-.415-1.154a.619.619 0 0 0-.154-.034z" fill="url(#k)" stroke-width=".339" stroke-miterlimit="0" stroke-opacity=".192" transform="translate(56 56)"/><g stroke-width="1.693" stroke-miterlimit="0"><path d="M180.51 170.87l5.744 5.435-9.088 9.234-5.558-5.503z" fill="url(#l)" stroke-opacity=".192" transform="matrix(.26087 0 0 .26087 -29.877 -29.663)"/><path d="M258.257-9.374h22.38c1.012 0 1.826.815 1.826 1.827V8.935a1.823 1.823 0 0 1-1.826 1.826h-22.38a1.823 1.823 0 0 1-1.827-1.826V-7.547c0-1.012.815-1.827 1.827-1.827z" transform="matrix(.18537 .18355 -.18176 .18712 -29.877 -29.663)" fill="url(#m)" stroke-opacity=".192"/><path d="M22.843 19.107l1.034 1.022c.13.127.161.447.003.61l-3.068 3.157c-.127.132-.444.138-.591-.008l-1.071-1.063c1.577-1.496 2.72-2.549 3.693-3.718z" fill-opacity=".578"/></g></svg>