<svg xmlns="http://www.w3.org/2000/svg" xmlns:xlink="http://www.w3.org/1999/xlink" height="24" viewBox="0 0 24 24" width="24"><title>Template icons dark</title><defs><linearGradient id="l"><stop offset="0" stop-color="#5d6687"/><stop offset="1" stop-color="#e6e6e6"/></linearGradient><linearGradient id="k"><stop offset="0" stop-opacity=".286"/><stop offset="1" stop-opacity=".083"/></linearGradient><linearGradient id="a"><stop offset="0" stop-color="#fff" stop-opacity=".161"/><stop offset="1" stop-color="#fff" stop-opacity=".708"/></linearGradient><linearGradient id="b"><stop offset="0" stop-color="#4b4b4b"/><stop offset=".125" stop-color="#fff"/><stop offset=".306" stop-color="#747474"/><stop offset=".47" stop-color="#fff"/><stop offset=".539" stop-color="#fff"/><stop offset=".731" stop-color="#646464"/><stop offset=".931" stop-color="#fff"/><stop offset="1" stop-color="#505050"/></linearGradient><linearGradient id="c"><stop offset="0" stop-color="#fcfcfc"/><stop offset=".512" stop-color="#7c7c7c"/><stop offset=".904" stop-color="#fcfcfc"/><stop offset="1" stop-color="#b5b5b5"/></linearGradient><linearGradient id="d"><stop offset="0" stop-opacity="0"/><stop offset="1" stop-color="#919191" stop-opacity=".502"/></linearGradient><linearGradient id="e"><stop offset="0" stop-color="#15b5ff"/><stop offset="1" stop-color="#1385ff"/></linearGradient><linearGradient id="f"><stop offset="0" stop-color="#42ec81"/><stop offset="1" stop-color="#3add5c"/></linearGradient><linearGradient id="g"><stop offset="0" stop-color="#ff8300"/><stop offset="1" stop-color="#ff5b00"/></linearGradient><linearGradient id="h"><stop offset="0" stop-color="#f72424" stop-opacity=".066"/><stop offset="1" stop-color="#f72424" stop-opacity=".118"/></linearGradient><linearGradient id="i"><stop offset="0" stop-color="#6a7395"/><stop offset="1" stop-color="#d3d3d3"/></linearGradient><linearGradient id="j"><stop offset="0" stop-color="#b1b1b1"/><stop offset="1" stop-color="#7d809b"/></linearGradient><linearGradient xlink:href="#c" id="o" x1="11.592" y1="14.007" x2="28.333" y2="31.765" gradientUnits="userSpaceOnUse" gradientTransform="matrix(.7484 0 0 .7484 -61.336 -64.127)"/><linearGradient xlink:href="#d" id="p" x1="8.57" y1="18.196" x2="28.333" y2="31.765" gradientUnits="userSpaceOnUse" gradientTransform="matrix(.7484 0 0 .7484 -61.336 -64.127)"/><linearGradient xlink:href="#l" id="m" gradientUnits="userSpaceOnUse" x1="23.844" y1="46.356" x2="23.844" y2="2.313" gradientTransform="translate(-56.211 -56.21) scale(.4023)"/><linearGradient xlink:href="#j" id="n" gradientUnits="userSpaceOnUse" x1="26.05" y1="46.063" x2="26.05" y2="1.813" gradientTransform="translate(-56.211 -56.21) scale(.4023)"/><linearGradient xlink:href="#b" id="q" gradientUnits="userSpaceOnUse" gradientTransform="matrix(.5671 .56157 -1.11238 1.14519 196.997 109.169)" x1="45.878" y1="34.792" x2="45.869" y2="42.694"/><linearGradient xlink:href="#b" id="r" gradientUnits="userSpaceOnUse" gradientTransform="matrix(.7981 0 0 1.5965 225.755 -64.719)" x1="45.878" y1="34.792" x2="46.015" y2="47.577"/></defs><path style="isolation:auto;mix-blend-mode:normal;marker:none" d="M18.123 9.467a8.87 8.87 0 0 1-8.87 8.87 8.87 8.87 0 0 1-8.869-8.87 8.87 8.87 0 0 1 8.87-8.87 8.87 8.87 0 0 1 8.87 8.87z" color="#000" display="block" overflow="visible" fill-opacity=".813" stroke-width=".13" stroke-opacity=".391" paint-order="fill markers stroke"/><path d="M-47.641-55.406c-.15 0-.234.119-.272.256l-.379 2.795.012.002c-.395.116-.777.27-1.141.463l-2.236-1.719c-.123-.071-.267-.095-.373.01l-1.552 1.553c-.106.106-.081.248-.01.371l1.685 2.216a6.108 6.108 0 0 0-.5 1.17l-2.743.352c-.138.037-.257.121-.257.272v2.195c0 .15.12.232.257.27l2.702.361c.122.429.29.843.502 1.234l-1.663 2.15c-.071.123-.096.267.01.373l1.552 1.552c.107.106.248.081.372.01l2.134-1.64c.4.222.823.399 1.261.527l.343 2.671c.037.138.121.257.271.257h2.195c.15 0 .233-.119.27-.257l.347-2.673c.433-.128.85-.303 1.245-.524l2.154 1.656c.123.071.267.096.373-.01l1.552-1.552c.106-.106.081-.25.01-.373l-1.67-2.167c.205-.383.368-.788.487-1.206l2.741-.365c.138-.037.257-.12.257-.27v-2.195c0-.15-.12-.234-.257-.272l-2.772-.365a6.108 6.108 0 0 0-.48-1.14l1.711-2.238c.071-.124.096-.267-.01-.374l-1.552-1.552c-.107-.106-.25-.08-.373-.01l-2.24 1.712.009.013a6.108 6.108 0 0 0-1.139-.472l.006-.001-.374-2.81c-.037-.137-.12-.256-.27-.256h-2.195zm1.086 6.906a1.944 1.944 0 1 1 0 3.887 1.944 1.944 0 0 1 0-3.887z" style="isolation:auto;mix-blend-mode:normal;marker:none" color="#000" overflow="visible" opacity=".851" fill="url(#m)" stroke="url(#n)" stroke-width=".282" stroke-linecap="round" paint-order="stroke fill markers" transform="translate(56 56)"/><path d="M9.662.659C5.05.659.719 4.814.719 9.426c0 4.613 4.228 8.772 8.84 8.772s8.703-4.09 8.703-8.703c0-4.612-3.988-8.836-8.6-8.836zM9.559 2.05c4.064 0 7.336 2.796 7.336 6.86a7.32 7.32 0 0 1-7.336 7.337 7.32 7.32 0 0 1-7.336-7.336c0-4.065 3.272-6.86 7.336-6.86z" fill="#050505" fill-opacity=".219" stroke-width=".15"/><path d="M-46.556-55.945a9.369 9.369 0 0 0-9.39 9.39 9.369 9.369 0 0 0 9.39 9.388 9.369 9.369 0 0 0 9.39-9.389 9.369 9.369 0 0 0-9.39-9.389zm0 .97a8.4 8.4 0 0 1 8.419 8.42 8.4 8.4 0 0 1-8.419 8.418 8.4 8.4 0 0 1-8.419-8.419 8.4 8.4 0 0 1 8.419-8.418z" fill="url(#o)" stroke="url(#p)" stroke-width=".11" transform="translate(56 56)"/><g stroke-width="1.693" stroke-miterlimit="0"><path d="M180.51 170.87l5.744 5.435-9.088 9.234-5.558-5.503z" fill="url(#q)" stroke-opacity=".192" transform="matrix(.26087 0 0 .26087 -29.877 -29.663)"/><path d="M258.257-9.374h22.38c1.012 0 1.826.815 1.826 1.827V8.935a1.823 1.823 0 0 1-1.826 1.826h-22.38a1.823 1.823 0 0 1-1.827-1.826V-7.547c0-1.012.815-1.827 1.827-1.827z" transform="matrix(.18537 .18355 -.18176 .18712 -29.877 -29.663)" fill="url(#r)" stroke-opacity=".192"/><path d="M22.843 19.107l1.034 1.022c.13.127.161.447.003.61l-3.068 3.157c-.127.132-.444.138-.591-.008l-1.071-1.063c1.577-1.496 2.72-2.549 3.693-3.718z" fill-opacity=".578"/></g></svg>