<svg xmlns="http://www.w3.org/2000/svg" xmlns:xlink="http://www.w3.org/1999/xlink" height="24" viewBox="0 0 24 24" width="24"><title>Template icons dark</title><defs><linearGradient id="d"><stop offset="0" stop-color="#e7747f"/><stop offset=".151" stop-color="#8c2f37"/><stop offset=".491" stop-color="#882d2d"/><stop offset=".873" stop-color="#cf5763"/><stop offset="1" stop-color="#f83044"/></linearGradient><linearGradient id="g"><stop offset="0" stop-color="#fff" stop-opacity=".115"/><stop offset=".555" stop-color="#fff" stop-opacity=".681"/><stop offset="1" stop-color="#fff" stop-opacity="0"/></linearGradient><linearGradient id="h"><stop offset="0" stop-color="#fff" stop-opacity=".073"/><stop offset=".555" stop-color="#fff" stop-opacity=".681"/><stop offset="1" stop-color="#fff" stop-opacity=".068"/></linearGradient><linearGradient id="f"><stop offset="0" stop-color="#463f54"/><stop offset=".192" stop-color="#413a4f"/><stop offset=".345" stop-color="#615876"/><stop offset=".499" stop-color="#3e384c"/><stop offset="1" stop-color="#343142"/></linearGradient><linearGradient id="e"><stop offset="0" stop-color="#b3b3b3"/><stop offset=".246" stop-color="#828282"/><stop offset=".543" stop-color="silver"/><stop offset=".824" stop-color="#fff"/><stop offset="1" stop-color="#8e8e8e"/></linearGradient><linearGradient id="c"><stop offset="0" stop-color="#fafafa"/><stop offset=".178" stop-color="#efe1f2"/><stop offset=".226" stop-color="#d5d6d8"/><stop offset=".705" stop-color="#7d8089"/><stop offset=".745" stop-color="#a6d6c0"/><stop offset=".796" stop-color="#657060"/><stop offset=".871" stop-color="#b3b2b7"/><stop offset=".961" stop-color="#fff"/><stop offset="1" stop-color="#cbcace"/></linearGradient><linearGradient id="b"><stop offset="0" stop-color="#4d4e55"/><stop offset="1" stop-color="#717171"/></linearGradient><linearGradient id="a"><stop offset="0" stop-color="#c2bac6"/><stop offset="1" stop-color="#fff"/></linearGradient><linearGradient xlink:href="#c" id="p" x1="159.898" y1="180" x2="159.898" y2="124" gradientUnits="userSpaceOnUse" gradientTransform="matrix(.29575 0 0 .29575 -91.313 -91.934)"/><linearGradient xlink:href="#d" id="o" x1="161" y1="133.852" x2="161" y2="126" gradientUnits="userSpaceOnUse" gradientTransform="matrix(.29575 0 0 .29575 -91.313 -91.934)"/><linearGradient xlink:href="#f" id="n" x1="160.063" y1="188" x2="160.063" y2="161.929" gradientUnits="userSpaceOnUse" gradientTransform="matrix(.2485 0 0 .2485 -83.717 -85.422)"/><linearGradient xlink:href="#e" id="m" x1="161" y1="132.669" x2="161" y2="126.984" gradientUnits="userSpaceOnUse" gradientTransform="matrix(.29575 0 0 .29575 -91.313 -91.934)"/><linearGradient xlink:href="#a" id="l" x1="160.063" y1="194.079" x2="160.063" y2="148.724" gradientUnits="userSpaceOnUse" gradientTransform="matrix(.29575 0 0 .29575 -91.313 -92.418)"/><linearGradient gradientTransform="matrix(.2485 0 0 .2485 -83.717 -84.056)" xlink:href="#g" id="k" x1="131" y1="202.811" x2="116.008" y2="189" gradientUnits="userSpaceOnUse"/><linearGradient gradientTransform="matrix(.2485 0 0 .2485 -83.717 -84.04)" xlink:href="#h" id="j" gradientUnits="userSpaceOnUse" x1="204.717" y1="191" x2="190" y2="204"/><linearGradient xlink:href="#b" id="i" gradientUnits="userSpaceOnUse" x1="160.063" y1="194.079" x2="160.063" y2="148.724" gradientTransform="translate(-94.584 -94.034) scale(.31617)"/></defs><path d="M-49.922-48.253l12.53-.006c.988 0 1.535.72 1.774 1.68l3.004 12.065c.325 1.306-1.052 2.514-2.398 2.514h-17.892c-1.346 0-2.7-1.208-2.375-2.514l3.004-12.065c.24-.96 1.508-1.601 2.093-1.652z" style="isolation:auto;mix-blend-mode:normal;marker:none" color="#000" overflow="visible" fill="url(#i)" stroke-width=".158" stroke-opacity="0" transform="translate(56 56)"/><path d="M-50.01-48.86l12.617-.001c.99 0 1.526.723 1.775 1.68l3.004 11.568c.338 1.302-1.052 2.514-2.398 2.514h-17.892c-1.346 0-2.713-1.212-2.375-2.514l3.004-11.568c.25-.957 1.276-1.68 2.265-1.68z" style="isolation:auto;mix-blend-mode:normal;marker:none" color="#000" display="block" overflow="visible" fill="url(#j)" stroke-width=".158" stroke-opacity="0" transform="translate(56 56)"/><path style="isolation:auto;mix-blend-mode:normal;marker:none" d="M-50.111-48.876h12.718c.99 0 1.525.723 1.775 1.68l3.09 11.845c.34 1.302-1.138 2.236-2.484 2.236h-17.892c-1.346 0-2.713-1.211-2.375-2.514l3.004-11.567c.25-.958 1.174-1.68 2.164-1.68z" color="#000" display="block" overflow="visible" fill="url(#k)" stroke-width=".158" stroke-opacity="0" transform="translate(56 56)"/><path style="isolation:auto;mix-blend-mode:normal;marker:none" d="M-49.922-48.886L-38-48.892c.925 0 1.611.434 1.844 1.33l2.81 10.82c.317 1.218-1.014 2.272-2.273 2.272h-16.655c-1.26 0-2.59-1.054-2.273-2.273l2.81-10.82c.233-.895.89-1.322 1.815-1.323z" color="#000" display="block" overflow="visible" fill="url(#l)" stroke-width=".148" stroke-opacity="0" transform="translate(56 56)"/><path style="isolation:auto;mix-blend-mode:normal;marker:none" d="M-50.916-54.36H-37c.497 0 .497 1.74 0 1.74h-13.916c-.497 0-.497-1.74 0-1.74z" color="#000" display="block" overflow="visible" fill="url(#m)" stroke-width=".1" stroke-opacity="0" transform="translate(56 56)"/><path d="M-40.727-44.172h-1.243l.994 3.479h2.927l-5.893 3.498-5.87-3.498h2.872l.994-3.479h-1.242l3.23-1.49z" style="isolation:auto;mix-blend-mode:normal;marker:none" color="#000" display="block" overflow="visible" fill="url(#n)" stroke-width=".052" stroke-opacity="0" transform="translate(56 56)"/><path style="isolation:auto;mix-blend-mode:normal;marker:none" d="M-48.182-54.609l8.205.004c.492 0 1.751.013 1.983.245.251.251.23 1.51 0 1.74-.24.24-1.49.248-1.988.248h-8.2c-.497 0-1.491 0-1.74-.249-.248-.248-.248-1.49 0-1.74.232-.23 1.243-.248 1.74-.248z" color="#000" display="block" overflow="visible" fill="url(#o)" stroke-width=".1" stroke-opacity="0" transform="translate(56 56)"/><path style="isolation:auto;mix-blend-mode:normal;marker:none" d="M-46.691-55.354c-.291 0-.85.388-.85.98v2.07c0 .775 1.182.94 1.182 1.672l.165 8.945h4.473l.094-8.945c.008-.732 1.183-.897 1.183-1.672v-2.07c0-.592-.485-.98-.78-.98z" color="#000" display="block" overflow="visible" fill="url(#p)" stroke-width=".097" stroke-opacity="0" transform="translate(56 56)"/><path style="isolation:auto;mix-blend-mode:normal;marker:none" d="M1.432 19.27c-.202 1.167.956 2.706 2.173 2.706h16.637c1.218 0 2.635-1.54 2.433-2.706-.17.936-1.393 1.752-2.433 1.752H3.605c-1.04 0-2.003-.816-2.173-1.752z" color="#000" display="block" overflow="visible" fill="#eaeaea" stroke-width=".148" stroke-opacity="0"/><path style="line-height:1000%;-inkscape-font-specification:'Serto Kharput'" d="M10 7h4v1h-1.401v2.5h-1.136V8H10z" font-weight="400" font-family="Serto Kharput" letter-spacing="0" word-spacing="0" fill="#282828" stroke-width=".5"/></svg>