<svg xmlns="http://www.w3.org/2000/svg" xmlns:xlink="http://www.w3.org/1999/xlink" height="24" viewBox="0 0 24 24" width="24"><title>Template icons dark</title><defs><linearGradient id="c"><stop offset="0" stop-color="#fff" stop-opacity="0"/><stop offset=".457" stop-color="#fff"/><stop offset="1" stop-color="#fff" stop-opacity="0"/></linearGradient><linearGradient id="d"><stop offset="0" stop-color="#fff" stop-opacity=".549"/><stop offset="1" stop-color="#fff" stop-opacity="0"/></linearGradient><linearGradient id="a"><stop offset="0" stop-color="#344961"/><stop offset="1" stop-color="#2d9580"/></linearGradient><linearGradient id="b"><stop offset="0" stop-color="#eff0c8" stop-opacity=".396"/><stop offset=".16" stop-color="#71cbd7" stop-opacity=".02"/><stop offset=".8" stop-color="#91dfcb" stop-opacity=".275"/><stop offset="1" stop-color="#6beed0" stop-opacity=".627"/></linearGradient><linearGradient xlink:href="#a" id="e" x1="36.516" y1="40.131" x2="9.579" y2="9.429" gradientUnits="userSpaceOnUse" gradientTransform="matrix(.56653 0 0 .5539 -57.639 -57.323)"/><linearGradient xlink:href="#b" id="f" gradientUnits="userSpaceOnUse" gradientTransform="matrix(.63824 0 0 .6417 -59.198 -58.947)" x1="22.144" y1="41.149" x2="22.144" y2="5.178"/></defs><g color="#000" transform="translate(56 56)"><rect style="isolation:auto;mix-blend-mode:normal;marker:none" width="24" height="22" x="-56" y="-55" ry="3" display="block" overflow="visible" fill-opacity=".148" stroke-width=".168" stroke-opacity=".471"/><rect ry="2.102" y="-54" x="-55" height="20" width="22" style="isolation:auto;mix-blend-mode:normal;marker:none" display="block" overflow="visible" fill="url(#e)" stroke-width=".167" stroke-opacity=".471"/><rect style="isolation:auto;mix-blend-mode:normal;marker:none" width="22" height="20" x="-55" y="-54" ry="2.102" display="block" overflow="visible" fill="url(#f)" stroke-width=".302"/><path d="M-44.995-51.36a.266.266 0 0 0-.263.245l-.718 9.081-.057-.162a.266.266 0 0 0-.251-.177h-1.81c-.141-.217-.28-.42-.429-.553-.184-.165-.399-.271-.628-.268-.23.004-.439.116-.618.28-.146.134-.279.332-.415.54h-4c-.354 0-.354.533 0 .533h4.129c.093 0 .18-.049.228-.129.154-.256.298-.441.417-.551.12-.11.203-.14.267-.14.064-.002.145.023.266.131.121.108.268.296.427.56.048.08.135.13.228.13h1.75l.413 1.157c.097.27.493.217.516-.068L-45-47.64l.658 8.711c.023.298.444.338.522.05l.796-2.962h1.869c.119 0 .224-.08.256-.195.35-1.25 1.005-1.783 1.578-1.783.573 0 1.227.53 1.578 1.783a.266.266 0 0 0 .256.195h1.661a.772.772 0 1 0 .012-.532h-1.493c-.408-1.253-1.17-1.979-2.015-1.978-.845 0-1.605.727-2.013 1.978h-1.893a.266.266 0 0 0-.256.197l-.445 1.653-.8-10.59a.266.266 0 0 0-.267-.246z" style="line-height:normal;font-variant-ligatures:normal;font-variant-position:normal;font-variant-caps:normal;font-variant-numeric:normal;font-variant-alternates:normal;font-feature-settings:normal;text-indent:0;text-align:start;text-decoration-line:none;text-decoration-style:solid;text-decoration-color:#000;text-transform:none;text-orientation:mixed;shape-padding:0;isolation:auto;mix-blend-mode:normal" font-weight="400" font-family="sans-serif" white-space="normal" overflow="visible" fill="none" stroke="#fff" stroke-width="1.539" stroke-linecap="round" stroke-linejoin="round" stroke-opacity=".17"/><path style="line-height:normal;font-variant-ligatures:normal;font-variant-position:normal;font-variant-caps:normal;font-variant-numeric:normal;font-variant-alternates:normal;font-feature-settings:normal;text-indent:0;text-align:start;text-decoration-line:none;text-decoration-style:solid;text-decoration-color:#000;text-transform:none;text-orientation:mixed;shape-padding:0;isolation:auto;mix-blend-mode:normal" d="M-44.995-51.36a.266.266 0 0 0-.263.245l-.718 9.081-.057-.162a.266.266 0 0 0-.251-.177h-1.81c-.141-.217-.28-.42-.429-.553-.184-.165-.399-.271-.628-.268-.23.004-.439.116-.618.28-.146.134-.279.332-.415.54h-4c-.354 0-.354.533 0 .533h4.129c.093 0 .18-.049.228-.129.154-.256.298-.441.417-.551.12-.11.203-.14.267-.14.064-.002.145.023.266.131.121.108.268.296.427.56.048.08.135.13.228.13h1.75l.413 1.157c.097.27.493.217.516-.068L-45-47.64l.658 8.711c.023.298.444.338.522.05l.796-2.962h1.869c.119 0 .224-.08.256-.195.35-1.25 1.005-1.783 1.578-1.783.573 0 1.227.53 1.578 1.783a.266.266 0 0 0 .256.195h1.661a.772.772 0 1 0 .012-.532h-1.493c-.408-1.253-1.17-1.979-2.015-1.978-.845 0-1.605.727-2.013 1.978h-1.893a.266.266 0 0 0-.256.197l-.445 1.653-.8-10.59a.266.266 0 0 0-.267-.246z" font-weight="400" font-family="sans-serif" white-space="normal" overflow="visible" fill="#fcfffe" stroke-width=".532" stroke-linecap="round" stroke-linejoin="round"/></g></svg>