<svg xmlns="http://www.w3.org/2000/svg" xmlns:xlink="http://www.w3.org/1999/xlink" height="24" viewBox="0 0 24 24" width="24"><title>Template icons dark</title><defs><linearGradient id="d"><stop offset="0" stop-color="#fff" stop-opacity=".802"/><stop offset=".502" stop-color="#fff" stop-opacity=".945"/><stop offset="1" stop-color="#fff" stop-opacity=".692"/></linearGradient><linearGradient id="c"><stop offset="0" stop-color="#fff" stop-opacity=".632"/><stop offset=".448" stop-color="#fff" stop-opacity=".94"/><stop offset="1" stop-color="#fff" stop-opacity=".61"/></linearGradient><linearGradient id="b"><stop offset="0" stop-color="#d1d1d1"/><stop offset="1" stop-color="#fff" stop-opacity=".989"/></linearGradient><linearGradient id="a"><stop offset="0" stop-color="#0086f7"/><stop offset="1" stop-color="#60cdff"/></linearGradient><linearGradient xlink:href="#a" id="e" gradientUnits="userSpaceOnUse" gradientTransform="matrix(2.2 0 0 2.2 -96.8 -103.84)" x1="25" y1="45.7" x2="25" y2="8.075"/><linearGradient gradientTransform="translate(-84.76 -85.476) scale(.25475)" xlink:href="#b" id="f" x1="157.89" y1="194.158" x2="157.89" y2="132" gradientUnits="userSpaceOnUse"/></defs><path d="M-51.875-56h15.75A4.116 4.116 0 0 1-32-51.875v15.75A4.116 4.116 0 0 1-36.125-32h-15.75A4.116 4.116 0 0 1-56-36.125v-15.75A4.116 4.116 0 0 1-51.875-56z" fill="url(#e)" stroke-width="1.804" stroke-linejoin="round" stroke-opacity=".131" transform="translate(56 56)"/><path d="M0 18.875v1S0 24 4.415 24h15.29C23.677 24 24 19.875 24 19.875v-1C24 20.669 22.535 23 19.705 23H4.415C2.13 23 0 21.623 0 18.875z" fill="#fff" fill-opacity=".219" stroke-width="1.804" stroke-linejoin="round" stroke-opacity=".131"/><path d="M1.89 10.657h3.657l2.151 8.174L10.709 7l2.582 8.389L15.657 7l2.366 8.389h4.087" fill="none" fill-rule="evenodd" stroke="#000" stroke-width="1.462" stroke-opacity=".275"/><path d="M-54.11-47.082h3.657l2.151 8.174 3.011-11.831 2.582 8.389 2.366-8.389 2.366 8.389h4.087" fill="none" fill-rule="evenodd" stroke="url(#f)" stroke-width="1.495" transform="translate(56 56)"/></svg>