<svg xmlns="http://www.w3.org/2000/svg" xmlns:xlink="http://www.w3.org/1999/xlink" height="24" viewBox="0 0 24 24" width="24"><title>Template icons dark</title><defs><linearGradient id="a"><stop offset="0" stop-color="#56aff6"/><stop offset="1" stop-color="#2196f3"/></linearGradient><linearGradient xlink:href="#a" id="b" gradientUnits="userSpaceOnUse" x1="-53" y1="-43" x2="-35" y2="-44"/></defs><g fill-rule="evenodd"><path d="M19 1.447L8.468 8.468l-3.51-3.51-3.511 3.51v7.021L4.957 19l3.511-3.51L19 22.51 22.51 19V4.958zm0 3.51V19l-7.021-7.021zM4.958 8.469l3.51 3.51-3.51 3.556z" fill-opacity=".224" stroke-width=".047"/><path d="M-38.021-53.021l-9 6-3-3-3 3v6l3 3 3-3 9 6 3-3v-12zm0 3v12l-6-6zm-12 3l3 3-3 3.038z" fill="url(#b)" stroke-width=".027" transform="translate(56 56)"/></g></svg>