<svg xmlns="http://www.w3.org/2000/svg" xmlns:xlink="http://www.w3.org/1999/xlink" height="24" viewBox="0 0 24 24" width="24"><title>Template icons dark</title><defs><linearGradient id="d"><stop offset="0" stop-color="#1cdbff" stop-opacity=".143"/><stop offset="1" stop-color="#c34c74" stop-opacity="0"/></linearGradient><linearGradient id="c"><stop offset="0" stop-color="#d663eb" stop-opacity=".423"/><stop offset="1" stop-color="#c34c74" stop-opacity="0"/></linearGradient><linearGradient id="g"><stop offset="0" stop-color="#97176b"/><stop offset="1" stop-color="#69104b"/></linearGradient><linearGradient id="b"><stop offset="0" stop-color="#8ab0c4"/><stop offset="1" stop-color="#fcf6f8"/></linearGradient><linearGradient id="a"><stop offset="0" stop-color="#d8eaf3"/><stop offset="1" stop-color="#fff" stop-opacity=".945"/></linearGradient><linearGradient id="e"><stop offset="0" stop-color="#eeeeec"/><stop offset="1" stop-color="#d3d7cf"/></linearGradient><linearGradient id="f"><stop offset="0" stop-color="#2e3436"/><stop offset="1"/></linearGradient><linearGradient xlink:href="#b" id="h" x1="160" y1="196" x2="160" y2="110.592" gradientUnits="userSpaceOnUse" gradientTransform="matrix(.22695 0 0 .22695 -80.567 -80.567)"/><linearGradient xlink:href="#f" id="j" gradientUnits="userSpaceOnUse" gradientTransform="scale(1.94673) rotate(30 -52.286 194.21)" x1="9.697" y1="24.661" x2="33.232" y2="24.661"/><linearGradient xlink:href="#f" id="k" gradientUnits="userSpaceOnUse" gradientTransform="scale(1.94673) rotate(30 -52.286 194.21)" x1="19.5" y1="28.5" x2="23.5" y2="28.5"/><linearGradient xlink:href="#e" id="l" gradientUnits="userSpaceOnUse" gradientTransform="scale(1.94673) rotate(30 -52.286 194.21)" x1="20" y1="12" x2="23" y2="12"/><radialGradient xlink:href="#g" id="i" gradientUnits="userSpaceOnUse" gradientTransform="matrix(.71407 .04969 -.02487 .35737 -156.867 -107.398)" cx="168.187" cy="156.788" fx="168.187" fy="156.788" r="29.345"/></defs><g transform="translate(56 56)"><circle style="isolation:auto;mix-blend-mode:normal;marker:none" cx="-44.255" cy="-44.255" r="11.745" color="#000" overflow="visible" fill-opacity=".121" stroke-width=".259" stroke-opacity=".995"/><circle r="11.489" cy="-44.255" cx="-44.255" style="isolation:auto;mix-blend-mode:normal;marker:none" color="#000" display="block" overflow="visible" fill="url(#h)" stroke-width=".194" stroke-opacity=".995"/><path d="M-43.119-46.422c-6.446 2.62-9.302 3.456-11.848 5.385 1.643 4.534 5.57 7.823 10.254 7.955 6.88-.32 11.377-4.904 11.495-11.177a11.119 11.119 0 0 0-1.44-5.46c.007.017.018.032.025.05-7.296 3.497-6.37 3.224-8.486 3.247z" style="isolation:auto;mix-blend-mode:normal;marker:none" color="#000" overflow="visible" fill="url(#i)" stroke-width=".238" stroke-opacity=".995"/><path d="M-41.78-46.482c-.733 1.27-8.855 10.005-13.107 5.592-3.431-8.557 10.81-5.558 13.108-5.592z" style="isolation:auto;mix-blend-mode:normal;marker:none" color="#000" display="block" overflow="visible" fill="#b14abf" stroke-width=".345" stroke-opacity=".995"/><path style="isolation:auto;mix-blend-mode:normal;marker:none" d="M-41.854-46.38c.483-.844 6.393-7.164 7.42-2.951-.084 4.476-6.196 3.22-7.42 2.95z" color="#000" display="block" overflow="visible" fill="#ef53b7" stroke-width=".246" stroke-opacity=".995"/><path style="isolation:auto;mix-blend-mode:normal;marker:none" d="M-47.006-39.757c-.151.153-2.486-1.48-2.697-1.447-.21.034-1.936 2.324-2.126 2.225-.19-.099.614-2.866.517-3.06-.097-.193-2.767-1.157-2.734-1.372.033-.215 2.866-.29 3.016-.444.151-.154.226-3.04.437-3.073.21-.034 1.157 2.686 1.347 2.785.19.098 2.907-.72 3.004-.527.097.194-2.15 1.951-2.184 2.166-.034.214 1.57 2.593 1.42 2.747z" color="#000" display="block" overflow="visible" fill-opacity=".302" stroke-width=".223"/><path d="M-47.006-41.214c-.151.154-2.486-1.48-2.697-1.446-.21.034-1.936 2.323-2.126 2.225-.19-.1.614-2.866.517-3.06-.097-.194-2.767-1.158-2.734-1.372.033-.215 2.866-.291 3.016-.445.151-.153.226-3.038.437-3.072.21-.034 1.157 2.686 1.347 2.785.19.098 2.907-.72 3.004-.527.097.193-2.15 1.95-2.184 2.165-.034.215 1.57 2.594 1.42 2.747z" style="isolation:auto;mix-blend-mode:normal;marker:none" color="#000" display="block" overflow="visible" fill="#fefefe" stroke-width=".223"/><g transform="translate(-92.51 -89.14) scale(.28662)" stroke-width="1.947"><path d="M202.923 129.8l-36.988 64.065c-.538.93.536 2.557 2.398 3.632 1.863 1.075 3.808 1.192 4.346.261l36.988-64.065z" fill="url(#j)" stroke="url(#k)" stroke-linejoin="round"/><path d="M202.923 129.8l-9.734 16.859c-.537.93.536 2.557 2.399 3.632 1.862 1.076 3.807 1.192 4.345.261l9.734-16.859z" fill="url(#l)" stroke="#babdb6" stroke-linejoin="round"/><ellipse transform="rotate(30)" cx="244.53" cy="10.948" rx="3.893" ry="1.947" fill="#d3d7cf" stroke="#babdb6"/></g></g></svg>