<svg xmlns="http://www.w3.org/2000/svg" xmlns:xlink="http://www.w3.org/1999/xlink" height="24" viewBox="0 0 24 24" width="24"><title>Template icons dark</title><defs><linearGradient id="e"><stop offset="0" stop-color="#1cdbff" stop-opacity=".143"/><stop offset="1" stop-color="#c34c74" stop-opacity="0"/></linearGradient><linearGradient id="d"><stop offset="0" stop-color="#d663eb" stop-opacity=".423"/><stop offset="1" stop-color="#c34c74" stop-opacity="0"/></linearGradient><linearGradient id="f"><stop offset="0" stop-color="#97176b"/><stop offset="1" stop-color="#69104b"/></linearGradient><linearGradient id="b"><stop offset="0" stop-color="#8ab0c4"/><stop offset="1" stop-color="#fcf6f8"/></linearGradient><linearGradient id="a"><stop offset="0" stop-color="#d8eaf3"/><stop offset="1" stop-color="#fff" stop-opacity=".945"/></linearGradient><linearGradient id="c"><stop offset="0" stop-color="#30d9eb"/><stop offset="1" stop-color="#5393e4"/></linearGradient><linearGradient xlink:href="#b" id="g" x1="160" y1="196" x2="160" y2="110.592" gradientUnits="userSpaceOnUse" gradientTransform="matrix(.23188 0 0 .23188 -81.1 -81.1)"/><radialGradient xlink:href="#f" id="h" gradientUnits="userSpaceOnUse" gradientTransform="matrix(.72959 .05077 -.0254 .36514 -159.06 -108.516)" cx="168.187" cy="156.788" fx="168.187" fy="156.788" r="29.345"/></defs><g color="#000" stroke-opacity=".995" transform="translate(56 56)"><circle style="isolation:auto;mix-blend-mode:normal;marker:none" cx="-44" cy="-44" r="12" overflow="visible" fill-opacity=".121" stroke-width=".264"/><circle r="11.739" cy="-44" cx="-44" style="isolation:auto;mix-blend-mode:normal;marker:none" display="block" overflow="visible" fill="url(#g)" stroke-width=".199"/><path d="M-42.839-46.213c-6.586 2.677-9.504 3.53-12.106 5.502 1.68 4.632 5.692 7.992 10.477 8.127 7.03-.327 11.625-5.01 11.745-11.42a11.36 11.36 0 0 0-1.471-5.579c.007.018.018.033.025.051-7.454 3.574-6.509 3.295-8.67 3.319z" style="isolation:auto;mix-blend-mode:normal;marker:none" overflow="visible" fill="url(#h)" stroke-width=".243"/><path d="M-41.47-46.276c-.75 1.298-9.049 10.224-13.393 5.715-3.505-8.744 11.045-5.68 13.393-5.715z" style="isolation:auto;mix-blend-mode:normal;marker:none" display="block" overflow="visible" fill="#b14abf" stroke-width=".352"/><path style="isolation:auto;mix-blend-mode:normal;marker:none" d="M-41.546-46.171c.493-.862 6.532-7.32 7.58-3.015-.086 4.573-6.33 3.29-7.58 3.015z" display="block" overflow="visible" fill="#ef53b7" stroke-width=".251"/></g></svg>