<svg xmlns="http://www.w3.org/2000/svg" xmlns:xlink="http://www.w3.org/1999/xlink" height="24" viewBox="0 0 24 24" width="24"><title>Template icons dark</title><defs><linearGradient id="a"><stop offset="0" stop-color="#4d77d3"/><stop offset=".453" stop-color="#767294"/><stop offset="1" stop-color="#a6659c"/></linearGradient><linearGradient id="b"><stop offset="0" stop-color="#0b1528"/><stop offset="1" stop-color="#473d49"/></linearGradient><linearGradient xlink:href="#a" id="d" x1="53.271" y1="55.429" x2="-10.45" y2="-7.238" gradientUnits="userSpaceOnUse" gradientTransform="matrix(.3178 0 0 .32455 -51.528 -51.556)"/><linearGradient xlink:href="#b" id="c" x1="26.4" y1="60.613" x2="26.4" y2="-12.187" gradientUnits="userSpaceOnUse" gradientTransform="matrix(.2967 0 0 .29485 -51.104 -51.06)"/></defs><g transform="translate(56 56)"><rect style="isolation:auto;mix-blend-mode:normal;marker:none" width="23.912" height="21.912" x="-55.956" y="-54.956" ry="1.179" color="#000" overflow="visible" fill="url(#c)" stroke="#000" stroke-width=".088" stroke-opacity=".471"/><rect style="isolation:auto;mix-blend-mode:normal;marker:none" width="23" height="21" x="-55.5" y="-54.5" ry=".787" color="#000" overflow="visible" fill="none" stroke="url(#d)"/><rect style="isolation:auto;mix-blend-mode:normal;marker:none" width="8" height="2" x="-46" y="-46" ry="0" color="#000" overflow="visible" fill="#8affca" fill-opacity=".984" stroke-width=".471"/><path style="line-height:10;-inkscape-font-specification:'Ubuntu Mono'" d="M-50.626-45.442q.411 0 .685-.057.285-.069.445-.183.16-.125.228-.285.069-.171.069-.365 0-.285-.137-.48-.137-.204-.377-.353-.228-.16-.525-.274-.296-.125-.616-.24-.308-.113-.616-.25-.296-.137-.536-.331-.228-.205-.377-.48-.148-.284-.148-.695 0-.73.434-1.187.433-.456 1.255-.582v-1.175h.844v1.141q.456.023.833.114.388.08.616.171l-.194.799q-.24-.091-.605-.183-.365-.102-.924-.102-.616 0-.947.228-.32.228-.32.662 0 .24.092.4.103.159.285.284.183.126.422.228.251.103.56.217.387.149.752.32.365.16.64.388.273.228.433.547.17.32.17.765 0 .673-.444 1.14-.445.468-1.37.582v1.312h-.843v-1.277q-.72-.023-1.164-.16-.445-.137-.662-.263l.251-.787q.308.149.73.285.423.126 1.061.126z" font-weight="400" font-size="10.102" font-family="Ubuntu Mono" letter-spacing="0" word-spacing="0" fill="#8affca" fill-opacity=".984" stroke-width="1.129"/></g></svg>