<svg xmlns:osb="http://www.openswatchbook.org/uri/2009/osb" xmlns="http://www.w3.org/2000/svg" xmlns:xlink="http://www.w3.org/1999/xlink" height="64" viewBox="0 0 64 64" width="64"><title>Template icons dark</title><defs><linearGradient id="e"><stop offset="0" stop-color="#a2f2e6"/><stop offset="1" stop-color="#77d6f5"/></linearGradient><linearGradient id="d"><stop offset="0" stop-color="#2384a9"/><stop offset="1" stop-color="#25ada9" stop-opacity=".953"/></linearGradient><linearGradient id="c" osb:paint="solid"><stop offset="0" stop-opacity=".134"/></linearGradient><linearGradient id="b" osb:paint="solid"><stop offset="0" stop-color="#fff" stop-opacity=".028"/></linearGradient><linearGradient id="a"><stop offset="0" stop-opacity=".036"/><stop offset="1" stop-color="#afe4ff" stop-opacity=".042"/></linearGradient><linearGradient xlink:href="#e" id="g" x1="142" y1="130" x2="187" y2="140" gradientUnits="userSpaceOnUse" gradientTransform="matrix(.72728 0 0 .72728 -36.743 -37.092)"/><linearGradient xlink:href="#c" id="r" gradientUnits="userSpaceOnUse" x1="124" y1="154.5" x2="196" y2="154.5"/><linearGradient xlink:href="#b" id="q" gradientUnits="userSpaceOnUse" x1="124" y1="155.5" x2="196" y2="155.5"/><linearGradient gradientTransform="matrix(.72728 0 0 .72728 -36.743 -36.364)" xlink:href="#d" id="f" x1="191.627" y1="198" x2="186" y2="177" gradientUnits="userSpaceOnUse"/><linearGradient xlink:href="#c" id="h" gradientUnits="userSpaceOnUse" gradientTransform="translate(0 -1)" x1="124" y1="154.5" x2="196" y2="154.5"/><linearGradient xlink:href="#c" id="i" gradientUnits="userSpaceOnUse" x1="124" y1="154.5" x2="196" y2="154.5"/><linearGradient xlink:href="#b" id="j" gradientUnits="userSpaceOnUse" x1="124" y1="155.5" x2="196" y2="155.5"/><linearGradient xlink:href="#c" id="k" gradientUnits="userSpaceOnUse" x1="124" y1="154.5" x2="196" y2="154.5"/><linearGradient xlink:href="#b" id="l" gradientUnits="userSpaceOnUse" x1="124" y1="155.5" x2="196" y2="155.5"/><linearGradient xlink:href="#c" id="m" gradientUnits="userSpaceOnUse" x1="124" y1="154.5" x2="196" y2="154.5"/><linearGradient xlink:href="#b" id="n" gradientUnits="userSpaceOnUse" x1="124" y1="155.5" x2="196" y2="155.5"/><linearGradient xlink:href="#b" id="o" gradientUnits="userSpaceOnUse" gradientTransform="translate(0 -1)" x1="124" y1="155.5" x2="196" y2="155.5"/><linearGradient xlink:href="#c" id="p" gradientUnits="userSpaceOnUse" gradientTransform="translate(0 -1)" x1="124" y1="154.5" x2="196" y2="154.5"/><linearGradient xlink:href="#b" id="s" gradientUnits="userSpaceOnUse" gradientTransform="translate(0 -14)" x1="124" y1="155.5" x2="196" y2="155.5"/></defs><path style="isolation:auto;mix-blend-mode:normal;marker:none" d="M10.016 0H53c3.223 0 6 2.777 6 6v52c0 3.223-2.777 6-6 6H9.803a5.805 5.805 0 0 1-5.818-5.818L4 6c.001-3.223 2.792-6 6.016-6z" color="#000" overflow="visible" fill-opacity=".151" paint-order="fill markers stroke"/><path style="isolation:auto;mix-blend-mode:normal;marker:none" d="M11 1h41c3.223 0 6 2.777 6 6v50c0 3.223-2.777 6-6 6H11c-3.223 0-6-2.777-6-6V7c0-3.223 2.777-6 6-6z" color="#000" display="block" overflow="visible" fill="#31353f" paint-order="fill markers stroke"/><path style="isolation:auto;mix-blend-mode:normal;marker:none" d="M5 25h53v32c0 3.223-2.777 6-6 6H11c-3.223 0-6-2.777-6-6z" color="#000" overflow="visible" fill="#333842" paint-order="fill markers stroke"/><path style="isolation:auto;mix-blend-mode:normal;marker:none" d="M95 92v19h5c3.223 0 6-2.777 6-6V92z" color="#000" display="block" overflow="visible" fill="url(#f)" paint-order="fill markers stroke" transform="translate(-48 -48)"/><path style="isolation:auto;mix-blend-mode:normal;marker:none" d="M11 1h41c3.37 0 6 2.837 6 7v17H5V7c0-3.206 2.794-6 6-6z" color="#000" display="block" overflow="visible" fill-opacity=".198" paint-order="fill markers stroke"/><path style="line-height:1.25;-inkscape-font-specification:'Liberation Sans';text-align:center" d="M52 28v1h-1v1h1v1h1v-1h1v-1h-1v-1zm-1 10v1h3v-1z" font-weight="400" font-size="2.853" font-family="Liberation Sans" letter-spacing="0" word-spacing="0" text-anchor="middle" fill="#95e7c8" fill-opacity=".698"/><path d="M51 51v1h3v-1zm0 2v1h3v-1z" style="line-height:1.25;-inkscape-font-specification:'Liberation Sans';text-align:center" font-weight="400" font-size="2.853" font-family="Liberation Sans" letter-spacing="0" word-spacing="0" text-anchor="middle" fill="#ecf8fd" fill-opacity=".849"/><path style="isolation:auto;mix-blend-mode:normal;marker:none" d="M5 56.273V57c0 3.223 2.777 6 6 6h41c3.223 0 6-2.777 6-6v-.727C58 59.496 55.223 62 52 62H11c-3.223 0-6-2.504-6-5.727z" color="#000" overflow="visible" fill="#fff" fill-opacity=".104" paint-order="fill markers stroke"/><path style="line-height:1000%;-inkscape-font-specification:'Roboto Mono for Powerline'" d="M68.848 57.326c-.382 0-.73.061-1.045.182-.31.118-.578.28-.801.489a2.176 2.176 0 0 0-.523.727 2.183 2.183 0 0 0-.182.887h1.057c0-.216.036-.411.108-.586a1.32 1.32 0 0 1 .301-.449c.133-.125.29-.22.472-.284.185-.068.39-.102.613-.102.474 0 .834.123 1.08.37.246.242.37.604.37 1.085 0 .208-.037.4-.109.574a1.216 1.216 0 0 1-.318.448 1.465 1.465 0 0 1-.511.296c-.201.072-.434.108-.7.108h-.75v.852h.75c.262 0 .5.03.717.091.22.06.405.153.557.278.155.125.274.283.357.472.088.186.131.407.131.665 0 .261-.038.488-.113.682-.072.189-.177.348-.313.477a1.314 1.314 0 0 1-.494.29c-.193.06-.41.09-.648.09-.239 0-.456-.034-.653-.102a1.422 1.422 0 0 1-.495-.29 1.296 1.296 0 0 1-.318-.454 1.562 1.562 0 0 1-.108-.591H66.23c0 .364.068.688.204.972a2.2 2.2 0 0 0 .563.721c.235.197.511.347.83.45.322.101.664.152 1.028.152a3.25 3.25 0 0 0 1.034-.159c.322-.11.6-.267.835-.471.235-.209.419-.462.551-.762.133-.299.2-.642.2-1.028 0-.19-.023-.38-.069-.574a1.7 1.7 0 0 0-.227-.551 1.74 1.74 0 0 0-.432-.472 2.141 2.141 0 0 0-.67-.34c.223-.095.414-.213.573-.353a1.965 1.965 0 0 0 .625-.955c.05-.17.074-.335.074-.494 0-.382-.06-.72-.182-1.011a1.998 1.998 0 0 0-.51-.733 2.15 2.15 0 0 0-.79-.443 3.201 3.201 0 0 0-1.018-.154zm12.205.114l-3.13 1.205v.96l2.164-.824v6.932h1.051V57.44zm6.068 0l-3.704 5.733v.62h3.772v1.92h1.051v-1.92h1.154v-.859H88.24V57.44zm6.432 0l-3.13 1.205v.96l2.164-.824v6.932h1.051V57.44zm3.716 0l-.415 4.125.841.216c.095-.083.186-.157.273-.222a1.497 1.497 0 0 1 .63-.267c.13-.026.28-.04.455-.04.265 0 .5.048.705.143.204.094.376.225.517.392.14.163.246.356.318.58.075.223.113.463.113.72 0 .285-.034.543-.102.774-.064.23-.163.43-.295.596-.13.163-.29.29-.483.38-.193.088-.415.132-.665.132-.443 0-.807-.122-1.091-.364-.28-.243-.453-.599-.517-1.068h-1c.038.382.13.717.278 1.005.152.288.343.527.574.716.235.19.502.332.801.426.3.095.618.142.955.142.44 0 .822-.068 1.148-.204.325-.14.594-.332.806-.574.216-.246.377-.538.483-.875.106-.337.16-.703.16-1.097 0-.416-.057-.795-.17-1.136a2.461 2.461 0 0 0-.49-.87 2.166 2.166 0 0 0-.772-.562 2.541 2.541 0 0 0-1.029-.199c-.299 0-.562.036-.79.108a2.922 2.922 0 0 0-.585.25l.233-2.204h3.358V57.44zm-10.08 1.398v4.096h-2.608l2.438-3.778zm-12.33 5.38a.946.946 0 0 0-.357.063.686.686 0 0 0-.256.176.767.767 0 0 0-.16.256.966.966 0 0 0-.05.318c0 .11.017.214.05.313.039.094.092.178.16.25a.662.662 0 0 0 .256.164.944.944 0 0 0 .358.063c.136 0 .255-.021.358-.063a.658.658 0 0 0 .261-.164.671.671 0 0 0 .16-.25.863.863 0 0 0 .056-.313.88.88 0 0 0-.057-.318.664.664 0 0 0-.159-.256.678.678 0 0 0-.261-.176.944.944 0 0 0-.358-.062z" font-weight="400" font-family="Roboto Mono for Powerline" letter-spacing="0" word-spacing="0" fill="url(#g)" transform="translate(-48 -48)"/><path d="M11 1h41c3.37 0 6 2.76 6 7v1C38.575 10.874 11.33-4.07 5 24V7c0-3.206 2.794-6 6-6z" style="isolation:auto;mix-blend-mode:normal;marker:none" color="#000" overflow="visible" fill="#fff" fill-opacity=".031" paint-order="fill markers stroke"/><path d="M5 7.727V7c0-3.223 2.777-6 6-6h41.047C55.271 1 58 3.777 58 7v.727C58 4.504 55.223 2 52 2H11C7.777 2 5 4.504 5 7.727z" style="isolation:auto;mix-blend-mode:normal;marker:none" color="#000" overflow="visible" fill="#fff" fill-opacity=".146" paint-order="fill markers stroke"/><path style="line-height:1.25;-inkscape-font-specification:'Liberation Sans';text-align:center" d="M38 27v2.5h2v.5h-2v1h3v-4zm-14 0v1l1 1-1 1v1h3v-1l-1-1 1-1v-1zm-14 0v1h2l-1.5 3H12l2-4zm30 1.5h-1V28h1zm-15-.74h1v.565h-1zm0 1.826h1v1h-1zM38 36v4h3v-2.5h-2V37h2v-1zm-26 0l-2 2v1h2v1h1v-4zm12 0v2.5h2v.5h-2v1h3v-2.5h-2V37h2v-1zm-12 1v1.008L11 38zm28 1.5v.5h-1v-.5zm1 8.5v-1h-3v1h2l-1 1 1 1h-2v1h3v-1l-1-1zm-17 .601h1V47h1v1l-2 1v1h3v-1l-1 .016L27 48v-2h-3v1.6zM12 46l-1 .66V47h1v2.5h-1v.5h3v-.5h-1V46zm11 11h2v-2h-2zm4-2l-3 5h1l3-5zm-16 4h3v-4h-3zm2-3v2h-1v-2zm26 0v2h2v-2zm-12 4h2v-2h-2z" font-weight="400" font-size="2.853" font-family="Liberation Sans" letter-spacing="0" word-spacing="0" text-anchor="middle" fill="#95d3e7" fill-opacity=".698"/><path style="isolation:auto;mix-blend-mode:normal;marker:none" d="M5 7l1-2v54l-1-3zM58 7l-1-2v54l1-3z" color="#000" display="block" overflow="visible" fill="#f6f6f6" fill-opacity=".047" paint-order="fill markers stroke"/><path d="M5 24v1h53v-1.016z" style="marker:none" fill="#d7fde9" fill-opacity=".115" paint-order="fill markers stroke"/><path d="M123.396 162v1.375h72.875V162z" fill="url(#h)" transform="matrix(.72728 0 0 .72728 -84.743 -85.819)"/><path d="M139.896 152.375v50.875h1.375v-50.875z" fill="url(#i)" transform="matrix(.72728 0 0 .72728 -84.743 -85.819)"/><path d="M141.271 152.375v50.875h1.375v-50.875z" fill="url(#j)" transform="matrix(.72728 0 0 .72728 -84.743 -85.819)"/><path d="M160.521 152.375v50.875h1.375v-50.875z" fill="url(#k)" transform="matrix(.72728 0 0 .72728 -84.743 -85.819)"/><path d="M161.896 152.375v50.875h1.375v-50.875z" fill="url(#l)" transform="matrix(.72728 0 0 .72728 -84.743 -85.819)"/><path d="M179.77 152.375v50.875h1.376v-50.875z" fill="url(#m)" transform="matrix(.72728 0 0 .72728 -84.743 -85.819)"/><path d="M181.146 152.375v50.875h1.375v-50.875z" fill="url(#n)" transform="matrix(.72728 0 0 .72728 -84.743 -85.819)"/><path d="M123.396 177.125v1.375h72.875v-1.375z" fill="url(#o)" transform="matrix(.72728 0 0 .72728 -84.743 -85.819)"/><path d="M123.396 175.75v1.375h72.875v-1.375z" fill="url(#p)" transform="matrix(.72728 0 0 .72728 -84.743 -85.819)"/><path d="M123.396 189.5v1.375h56.375V189.5z" fill="url(#q)" transform="matrix(.72728 0 0 .72728 -84.743 -85.819)"/><path d="M123.396 188.125v1.375h56.375v-1.375z" fill="url(#r)" transform="matrix(.72728 0 0 .72728 -84.743 -85.819)"/><path d="M123.396 163.375v1.375h72.875v-1.375z" fill="url(#s)" transform="matrix(.72728 0 0 .72728 -84.743 -85.819)"/></svg>