<svg xmlns="http://www.w3.org/2000/svg" xmlns:xlink="http://www.w3.org/1999/xlink" height="64" viewBox="0 0 64 64" width="64"><title>Template icons dark</title><defs><linearGradient id="c"><stop offset="0" stop-color="#24303f"/><stop offset="1" stop-color="#304155"/></linearGradient><linearGradient id="b"><stop offset="0" stop-color="#5a41e2"/><stop offset="1" stop-color="#4c9ce0" stop-opacity=".945"/></linearGradient><linearGradient id="a"><stop offset="0" stop-color="#fffefe"/><stop offset="1" stop-color="#fff" stop-opacity=".855"/></linearGradient><linearGradient gradientTransform="matrix(.70455 0 0 .70455 -32.727 -32.727)" xlink:href="#c" id="d" x1="171.402" y1="199.004" x2="171.402" y2="116" gradientUnits="userSpaceOnUse"/></defs><path style="isolation:auto;mix-blend-mode:normal;marker:none" d="M11.833 3h40.334A8.814 8.814 0 0 1 61 11.833v40.334A8.814 8.814 0 0 1 52.167 61H11.833A8.814 8.814 0 0 1 3 52.167V11.833A8.814 8.814 0 0 1 11.833 3z" color="#000" display="block" overflow="visible" fill-opacity=".126" paint-order="fill markers stroke"/><path style="isolation:auto;mix-blend-mode:normal;marker:none" d="M60.557 52h38.886A8.539 8.539 0 0 1 108 60.557v38.886A8.539 8.539 0 0 1 99.443 108H60.557A8.539 8.539 0 0 1 52 99.443V60.557A8.539 8.539 0 0 1 60.557 52z" color="#000" display="block" overflow="visible" fill="url(#d)" paint-order="fill markers stroke" transform="translate(-48 -48)"/><path style="isolation:auto;mix-blend-mode:normal;marker:none" d="M4.022 50.74v.703c0 4.724 3.87 8.527 8.598 8.527h38.76c4.727 0 8.63-3.803 8.63-8.527v-.702c0 4.724-3.903 8.3-8.63 8.3H12.62c-4.727 0-8.598-3.576-8.598-8.3z" color="#000" display="block" overflow="visible" fill="#f2f2f8" fill-opacity=".153" paint-order="fill markers stroke"/><path d="M48.124 46.42c-5.091 2.726-10.625 4.04-15.66 4.04-7.461 0-14.687-2.58-20.53-6.866-.513-.374-.89.285-.465.77 5.42 6.163 12.572 9.868 20.52 9.868 5.671 0 12.254-2.25 16.796-6.473.753-.699.108-1.751-.66-1.34zm1.241 4.105c-.168.42.193.593.575.272 2.48-2.075 3.121-6.421 2.614-7.047-.504-.623-4.84-1.16-7.485.698-.408.285-.337.68.115.624 1.491-.177 4.808-.578 5.397.182.59.76-.658 3.88-1.216 5.27z" clip-rule="evenodd" fill="#ff9802" fill-opacity=".984" fill-rule="evenodd"/><path d="M35.628 28.461c0 2.283.054 4.18-1.095 6.209-.93 1.65-2.41 2.664-4.05 2.664-2.25 0-3.56-1.712-3.56-4.246 0-4.988 4.473-5.896 8.707-5.896v1.27zm5.902 14.275c-.387.35-.948.373-1.38.137-1.949-1.615-2.293-2.364-3.36-3.901-3.213 3.273-5.488 4.255-9.651 4.255-4.928 0-8.765-3.04-8.765-9.124 0-4.752 2.577-7.983 6.244-9.567 3.177-1.397 7.614-1.651 11.008-2.029v-.76c0-1.395.111-3.042-.71-4.25-.713-1.072-2.082-1.519-3.288-1.519-2.232 0-4.219 1.145-4.706 3.515-.1.528-.483 1.05-1.017 1.078l-5.67-.617c-.48-.104-1.016-.493-.875-1.223 1.304-6.884 7.521-8.963 13.09-8.963 2.848 0 6.572.76 8.816 2.916 2.849 2.66 2.578 6.21 2.578 10.075v9.12c0 2.744 1.142 3.947 2.209 5.427.378.532.457 1.167-.019 1.554a229.452 229.452 0 0 0-4.489 3.89z" clip-rule="evenodd" fill="#fff" fill-opacity=".984" fill-rule="evenodd"/></svg>