<svg xmlns="http://www.w3.org/2000/svg" xmlns:xlink="http://www.w3.org/1999/xlink" height="64" viewBox="0 0 64 64" width="64"><title>Template icons dark</title><defs><linearGradient id="n"><stop offset="0" stop-color="#cacaca" stop-opacity="0"/><stop offset=".565" stop-color="#fff" stop-opacity=".422"/><stop offset="1" stop-color="#cacaca" stop-opacity="0"/></linearGradient><linearGradient id="o"><stop offset="0" stop-color="#fff" stop-opacity=".656"/><stop offset="1" stop-color="#fff" stop-opacity=".047"/></linearGradient><linearGradient id="p"><stop offset="0" stop-opacity=".26"/><stop offset="1" stop-color="#f0f0f0" stop-opacity="0"/></linearGradient><linearGradient id="m"><stop offset="0" stop-color="#fff" stop-opacity=".458"/><stop offset="1" stop-color="#fff" stop-opacity=".255"/></linearGradient><linearGradient id="l"><stop offset="0" stop-opacity=".146"/><stop offset=".494" stop-opacity=".506"/><stop offset="1" stop-opacity=".057"/></linearGradient><linearGradient id="k"><stop offset="0" stop-opacity=".156"/><stop offset="1" stop-color="#f0f0f0" stop-opacity="0"/></linearGradient><linearGradient id="a"><stop offset="0" stop-color="#58c19a"/><stop offset="1" stop-color="#38899d"/></linearGradient><linearGradient id="j"><stop offset="0" stop-opacity=".26"/><stop offset="1" stop-opacity="0"/></linearGradient><linearGradient id="g"><stop offset="0" stop-color="#afacd0"/><stop offset="1" stop-color="#eee"/></linearGradient><linearGradient id="i"><stop offset="0" stop-color="#cacaca" stop-opacity="0"/><stop offset=".583" stop-color="#fff" stop-opacity=".422"/><stop offset="1" stop-color="#cacaca" stop-opacity="0"/></linearGradient><linearGradient id="h"><stop offset="0" stop-color="#ececec"/><stop offset=".489" stop-color="#cacaca" stop-opacity=".459"/><stop offset="1" stop-color="#ececec"/></linearGradient><linearGradient id="c"><stop offset="0" stop-color="#bebebe"/><stop offset=".489" stop-color="#aeaeae" stop-opacity=".459"/><stop offset="1" stop-color="#bebebe"/></linearGradient><linearGradient id="b"><stop offset="0" stop-color="#dfdfdf"/><stop offset=".489" stop-color="silver" stop-opacity=".459"/><stop offset="1" stop-color="#dfdfdf"/></linearGradient><linearGradient id="d"><stop offset="0" stop-color="#444"/><stop offset="1" stop-color="#ececec"/></linearGradient><linearGradient id="e"><stop offset="0" stop-color="#a7a7a7"/><stop offset="1" stop-color="#eee"/></linearGradient><linearGradient id="f"><stop offset="0" stop-color="#a7a7a7"/><stop offset=".505" stop-color="#5b5b5b"/><stop offset="1" stop-color="#303030"/></linearGradient><linearGradient xlink:href="#a" id="q" gradientUnits="userSpaceOnUse" gradientTransform="matrix(1.60037 0 0 1.61052 41.622 42.727)" x1="24.117" y1="4.931" x2="23.981" y2="42.599"/><linearGradient gradientTransform="translate(-26.667 -26.667) scale(.66667)" xlink:href="#l" id="r" x1="150" y1="143" x2="170" y2="143" gradientUnits="userSpaceOnUse"/><linearGradient xlink:href="#g" id="A" x1="160.167" y1="110.428" x2="160.167" y2="94.122" gradientUnits="userSpaceOnUse" gradientTransform="matrix(.84789 0 0 .84296 23.882 13.537)"/><linearGradient xlink:href="#i" id="t" gradientUnits="userSpaceOnUse" x1="130" y1="203" x2="188.937" y2="203"/><linearGradient xlink:href="#i" id="u" gradientUnits="userSpaceOnUse" gradientTransform="translate(-5 -403)" x1="130.484" y1="203" x2="188.937" y2="203"/><linearGradient xlink:href="#i" id="v" gradientUnits="userSpaceOnUse" gradientTransform="translate(4 -324)" x1="129.344" y1="203.297" x2="188.937" y2="203"/><linearGradient xlink:href="#k" id="w" gradientUnits="userSpaceOnUse" x1="160" y1="171.465" x2="160" y2="119"/><linearGradient xlink:href="#m" id="x" gradientUnits="userSpaceOnUse" x1="160" y1="175.786" x2="160" y2="150"/><linearGradient xlink:href="#d" id="y" gradientUnits="userSpaceOnUse" gradientTransform="matrix(1.07772 0 0 .90037 -12.594 9.605)" x1="158.822" y1="98.639" x2="158.822" y2="88.728"/><linearGradient xlink:href="#j" id="z" gradientUnits="userSpaceOnUse" x1="158.642" y1="108.024" x2="158.982" y2="94.594"/><linearGradient xlink:href="#f" id="B" gradientUnits="userSpaceOnUse" gradientTransform="matrix(.75437 0 0 .75437 38.724 23.007)" x1="158.671" y1="97.368" x2="158.671" y2="90.163"/><linearGradient xlink:href="#b" id="s" gradientUnits="userSpaceOnUse" gradientTransform="matrix(.68729 0 0 .49587 -30.469 4.237)" x1="155.296" y1="153.204" x2="165.174" y2="153.204"/></defs><g color="#000"><path style="isolation:auto;mix-blend-mode:normal;marker:none" d="M11 2h42.005C56.511 2 60 5.494 60 9v47c0 3.506-3.494 6-7 6H11c-3.506 0-7-3.494-7-7V9c0-3.506 3.494-7 7-7z" display="block" overflow="visible" fill-opacity=".151" paint-order="fill markers stroke"/><path style="isolation:auto;mix-blend-mode:normal;marker:none" d="M59 51h42c3.352 0 6 2.648 6 6v46c0 3.352-3.648 6-7 6H59c-3.352 0-6-2.648-6-6V57c0-3.352 2.648-6 6-6z" display="block" overflow="visible" fill="url(#q)" paint-order="fill markers stroke" transform="translate(-48 -48)"/><path style="isolation:auto;mix-blend-mode:normal;marker:none" d="M37.016 3L37 32c-.001 2.216-1.75 5-5 5-3.328 0-5-2.784-5-5V3z" overflow="visible" fill-opacity=".848" paint-order="fill markers stroke"/><path style="line-height:normal;font-variant-ligatures:normal;font-variant-position:normal;font-variant-caps:normal;font-variant-numeric:normal;font-variant-alternates:normal;font-feature-settings:normal;text-indent:0;text-align:start;text-decoration-line:none;text-decoration-style:solid;text-decoration-color:#000;text-transform:none;text-orientation:mixed;shape-padding:0;isolation:auto;mix-blend-mode:normal;marker:none" d="M24 3v30c2.613 9.312 14.175 7.806 16 0V3zm1 0h14v30c-2.216 8.764-13 6.813-14 0z" font-weight="400" font-family="sans-serif" white-space="normal" display="block" overflow="visible" fill="#fff" fill-opacity=".177" paint-order="fill markers stroke"/><path d="M87 51v30c0 2.473-3.414 6-7 6s-7-3.527-7-6V51z" style="isolation:auto;mix-blend-mode:normal;marker:none" display="block" overflow="visible" fill="url(#r)" paint-order="fill markers stroke" transform="translate(-48 -48)"/><path style="isolation:auto;mix-blend-mode:normal;marker:none" d="M79 51v1h2v1h3v-2zm2 2h-2v-1h-3v3h3v-1h2zm0 1v1h-2v.953h-3v3h3v-1h2V57h3v-3zm0 3.953v1h-2v1h2v1h3v-3zm0 3h-2v-1h-3v3h3v-1h2zm0 1v1h-2v1h2v1h3v-3zM79 56h2v.953h-2zm-3 8.047v3h3v-1h2v-1h-2v-1zm5 2v1h-2V68h-3v3h3v-1h2v-.953h3v-3zM81 70v1h-2v1h2v1h3v-3zm0 3h-2v-1h-3v3h3v-1h2zm0 1v1h-2v1h2v1h3v-3zm0 3h-2v-1h-3v3h3v-1h2zm-2-8.953h2V69h-2z" display="block" overflow="visible" fill="url(#s)" paint-order="fill markers stroke" transform="translate(-48 -48)"/><path d="M11 3C7.648 3 5 5.648 5 9v.667C5 6.315 7.648 4 11 4h42c3.352 0 6 2.315 6 5.667V9c0-3.352-2.648-6-6-6z" style="isolation:auto;mix-blend-mode:normal;marker:none" display="block" overflow="visible" fill="#fff" fill-opacity=".505" paint-order="fill markers stroke"/><path style="isolation:auto;mix-blend-mode:normal;marker:none" d="M130 202h60v1.5h-60z" display="block" overflow="visible" fill="url(#t)" paint-order="fill markers stroke" transform="translate(-74.667 -74.667) scale(.66667)"/><path transform="rotate(90 0 -74.667) scale(.66667)" style="isolation:auto;mix-blend-mode:normal;marker:none" d="M125.5-200.5H187v1.5h-61.5z" display="block" overflow="visible" fill="url(#u)" paint-order="fill markers stroke"/><path transform="rotate(90 0 -74.667) scale(.66667)" style="isolation:auto;mix-blend-mode:normal;marker:none" d="M133-121h61.5v1.5H133z" display="block" overflow="visible" fill="url(#v)" paint-order="fill markers stroke"/><path d="M128.5 116.5h63c5.027 0 9 3.973 9 9v18L160 175l-40.5-31.5v-18c0-5.027 3.973-9 9-9z" style="isolation:auto;mix-blend-mode:normal;marker:none" display="block" overflow="visible" fill="url(#w)" paint-order="fill markers stroke" transform="translate(-74.667 -74.667) scale(.66667)"/><path style="line-height:normal;font-variant-ligatures:normal;font-variant-position:normal;font-variant-caps:normal;font-variant-numeric:normal;font-variant-alternates:normal;font-feature-settings:normal;text-indent:0;text-align:start;text-decoration-line:none;text-decoration-style:solid;text-decoration-color:#000;text-transform:none;text-orientation:mixed;shape-padding:0;isolation:auto;mix-blend-mode:normal" d="M200.5 143.5L160 175l-40.5-31.5v1.5l40.5 31.5 40.5-31.5z" font-weight="400" font-family="sans-serif" white-space="normal" overflow="visible" fill="url(#x)" fill-rule="evenodd" transform="translate(-74.667 -74.667) scale(.66667)"/><g transform="translate(-166.373 -83.242) scale(1.25196)"><path d="M158.45 89.573c1.956 0 3.947 1.353 3.53 2.95l-.927 3.555c-.307 1.177-1.161 2.175-2.603 2.175-1.442 0-2.296-.998-2.603-2.175l-.928-3.555c-.416-1.597 1.575-2.95 3.53-2.95z" style="isolation:auto;mix-blend-mode:normal;marker:none" display="block" overflow="visible" fill="url(#y)" stroke="#2c2c2c" stroke-width=".373" paint-order="fill markers stroke"/><path style="isolation:auto;mix-blend-mode:normal;marker:none" d="M158.45 92.937c-1.546 0-2.545 1.257-2.79 2.774l-1.47 7.331c-.375 2.316 1.9 4.235 4.26 4.235s4.634-1.919 4.26-4.235l-1.47-7.331c-.246-1.517-1.245-2.774-2.79-2.774zm0 .844c1.089 0 1.972.878 1.972 1.961a1.968 1.968 0 0 1-1.972 1.963c-1.09 0-1.974-.88-1.973-1.963 0-1.083.883-1.96 1.973-1.961zm0 6.322c1.765 0 2.84 1.352 2.84 2.912a2.833 2.833 0 0 1-2.84 2.824 2.833 2.833 0 0 1-2.842-2.824c0-1.56 1.076-2.913 2.841-2.912z" display="block" overflow="visible" fill="url(#z)" paint-order="fill markers stroke"/><path d="M158.45 93.223c-1.378 0-2.269 1.12-2.488 2.472l-1.185 6.794c-.324 1.998 1.638 3.652 3.673 3.652 2.034 0 3.996-1.654 3.673-3.652l-1.186-6.794c-.219-1.352-1.11-2.472-2.487-2.472zm0 .752c.97 0 1.758.783 1.758 1.748 0 .967-.787 1.75-1.758 1.75-.972 0-1.76-.783-1.76-1.75.001-.965.788-1.748 1.76-1.748zm0 5.843a2.656 2.656 0 0 1 2.662 2.648 2.656 2.656 0 0 1-2.663 2.647 2.656 2.656 0 0 1-2.664-2.647 2.656 2.656 0 0 1 2.664-2.648z" style="isolation:auto;mix-blend-mode:normal;marker:none" display="block" overflow="visible" fill="url(#A)" stroke="#646464" stroke-width=".128" stroke-opacity=".995" paint-order="fill markers stroke"/><rect ry=".754" y="90.896" x="157.695" height="6.035" width="1.509" style="isolation:auto;mix-blend-mode:normal;marker:none" display="block" overflow="visible" fill="url(#B)" paint-order="fill markers stroke"/></g></g></svg>