<svg xmlns="http://www.w3.org/2000/svg" xmlns:xlink="http://www.w3.org/1999/xlink" height="64" viewBox="0 0 64 64" width="64"><title>Template icons dark</title><defs><linearGradient id="f"><stop offset="0" stop-color="#0a34ff" stop-opacity="0"/><stop offset="1" stop-color="#ffff0d" stop-opacity=".24"/></linearGradient><linearGradient id="c"><stop offset="0" stop-color="#fff" stop-opacity=".427"/><stop offset=".423" stop-color="#fbfcfe"/><stop offset="1" stop-color="#fff" stop-opacity=".49"/></linearGradient><linearGradient id="e"><stop offset="0" stop-color="#cdcdcd"/><stop offset="1" stop-color="#fff"/></linearGradient><linearGradient id="d"><stop offset="0" stop-color="#fff" stop-opacity=".427"/><stop offset=".423" stop-color="#fafcfe"/><stop offset="1" stop-color="#fff" stop-opacity=".49"/></linearGradient><linearGradient id="b"><stop offset="0" stop-color="#fff" stop-opacity=".266"/><stop offset="1" stop-color="#fff"/></linearGradient><linearGradient id="a"><stop offset="0" stop-color="#0a34ff"/><stop offset="1" stop-color="#f044ee"/></linearGradient><linearGradient xlink:href="#a" id="g" x1="22.9" y1="46.6" x2="22.9" y2="-10.331" gradientUnits="userSpaceOnUse" gradientTransform="matrix(1.49104 0 0 1.49104 46.452 41.978)"/><linearGradient xlink:href="#f" id="h" gradientUnits="userSpaceOnUse" gradientTransform="matrix(1.49104 0 0 1.49104 46.452 41.978)" x1="15.346" y1="25.106" x2="29.288" y2="40.737"/><linearGradient gradientTransform="matrix(.66667 0 0 .66667 -26.667 -26.667)" xlink:href="#c" id="j" x1="152" y1="178.131" x2="152" y2="128" gradientUnits="userSpaceOnUse"/><linearGradient gradientTransform="matrix(.66667 0 0 .66667 -26.667 -26.667)" xlink:href="#b" id="k" x1="160" y1="174" x2="160" y2="137" gradientUnits="userSpaceOnUse"/><linearGradient gradientTransform="matrix(.66667 0 0 .66667 -26.667 -26.667)" xlink:href="#e" id="l" x1="161.772" y1="204" x2="161.772" y2="113" gradientUnits="userSpaceOnUse"/><linearGradient xlink:href="#c" id="i" gradientUnits="userSpaceOnUse" gradientTransform="matrix(.66667 0 0 .66667 -26.667 -26.667)" x1="152" y1="178.131" x2="152" y2="128"/></defs><path style="isolation:auto;mix-blend-mode:normal;marker:none" d="M64 32a32 32 0 0 1-32 32A32 32 0 0 1 0 32 32 32 0 0 1 32 0a32 32 0 0 1 32 32z" color="#000" display="block" overflow="visible" fill-opacity=".058"/><path style="isolation:auto;mix-blend-mode:normal;marker:none" d="M110.667 80A30.667 30.667 0 0 1 80 110.667 30.667 30.667 0 0 1 49.333 80 30.667 30.667 0 0 1 80 49.333 30.667 30.667 0 0 1 110.667 80z" color="#000" display="block" overflow="visible" fill="url(#g)" transform="translate(-48 -48)"/><path d="M110.667 80A30.667 30.667 0 0 1 80 110.667 30.667 30.667 0 0 1 49.333 80 30.667 30.667 0 0 1 80 49.333 30.667 30.667 0 0 1 110.667 80z" style="isolation:auto;mix-blend-mode:normal;marker:none" color="#000" display="block" overflow="visible" fill="url(#h)" transform="translate(-48 -48)"/><path d="M52.196 82.15l4.762 9.174 1.709-13.014 2.284 13.156L62.01 73.9l2.003 18.49 1.7-20.41.68 19.627 1.302-22.613 1.337 20.337 1.273-22.257 1.593 24.604 1.15-28.444 2.318 31.573 1.346-35.627 1.416 40.96L80 54.915" fill="none" stroke="url(#i)" stroke-width=".476" stroke-opacity=".283" transform="translate(-48 -48)"/><path d="M107.662 81.084l-4.62 10.24-1.709-13.085-2.284 13.227-.917-17.422-2.145 18.346-1.7-20.409-.68 19.627-1.302-22.613-1.337 20.337-1.273-22.257-1.593 24.604-1.15-28.444-2.318 31.573-1.346-35.627-1.416 40.96L80 54.915" fill="none" stroke="url(#j)" stroke-width=".476" stroke-opacity=".283" transform="translate(-48 -48)"/><path d="M3.982 42.738c17.21.853 12.696-23.111 27.591-23.111 16.214 0 9.707 23.075 28.445 23.11" fill="none" stroke="#090909" stroke-width="2.667" stroke-opacity=".22"/><path style="line-height:normal;font-variant-ligatures:normal;font-variant-position:normal;font-variant-caps:normal;font-variant-numeric:normal;font-variant-alternates:normal;font-feature-settings:normal;text-indent:0;text-align:start;text-decoration-line:none;text-decoration-style:solid;text-decoration-color:#000;text-transform:none;text-orientation:mixed;shape-padding:0;isolation:auto;mix-blend-mode:normal" d="M79.573 64.302c-4.081 0-7.06 1.75-9.181 4.19-2.12 2.44-3.51 5.509-4.944 8.432-1.433 2.924-2.901 5.692-4.909 7.607-2.007 1.915-4.494 3.083-8.49 2.884l-.132 2.663c4.607.229 8.01-1.278 10.462-3.617s4.012-5.402 5.463-8.363c1.452-2.961 2.802-5.83 4.563-7.857 1.76-2.026 3.802-3.272 7.168-3.272 3.737 0 5.9 1.226 7.663 3.169 1.762 1.943 3.029 4.708 4.409 7.612s2.882 5.955 5.384 8.336c2.502 2.381 6.028 3.984 10.987 3.993l.005-2.666c-4.411-.009-7.1-1.303-9.154-3.258-2.055-1.956-3.451-4.68-4.814-7.55-1.362-2.868-2.679-5.874-4.842-8.259-2.164-2.385-5.269-4.044-9.638-4.044z" color="#000" font-weight="400" font-family="sans-serif" white-space="normal" overflow="visible" fill="url(#k)" fill-rule="evenodd" transform="translate(-48 -48)"/><path d="M31.573 18.302c-4.081 0-6.495 2.073-8.615 4.514-2.12 2.44-2.944 5.185-4.378 8.108-1.433 2.924-3.548 5.693-5.556 7.607-2.007 1.915-4.979 3.083-8.976 2.884l-.131.663c4.607.229 8.01-1.278 10.462-3.617s4.012-5.402 5.463-8.363c1.452-2.961 2.802-5.83 4.563-7.857 1.76-2.026 3.802-3.272 7.168-3.272 3.737 0 5.9 1.226 7.663 3.169 1.762 1.943 3.029 4.708 4.409 7.612s2.882 5.955 5.384 8.336c2.502 2.381 6.028 3.984 10.987 3.993l.005-.666c-4.411-.009-7.423-1.303-9.478-3.258-2.054-1.956-3.774-4.114-5.137-6.983-1.363-2.87-2.922-6.44-5.085-8.826-2.163-2.385-4.379-4.044-8.748-4.044z" style="line-height:normal;font-variant-ligatures:normal;font-variant-position:normal;font-variant-caps:normal;font-variant-numeric:normal;font-variant-alternates:normal;font-feature-settings:normal;text-indent:0;text-align:start;text-decoration-line:none;text-decoration-style:solid;text-decoration-color:#000;text-transform:none;text-orientation:mixed;shape-padding:0;isolation:auto;mix-blend-mode:normal" color="#000" font-weight="400" font-family="sans-serif" white-space="normal" overflow="visible" fill="#fff" fill-opacity=".734" fill-rule="evenodd"/><path style="isolation:auto;mix-blend-mode:normal;marker:none" d="M60.057 32.748A28.057 28.057 0 0 1 32 60.805 28.057 28.057 0 0 1 3.943 32.748 28.057 28.057 0 0 1 32 4.69a28.057 28.057 0 0 1 28.057 28.058z" color="#000" overflow="visible" fill="none" stroke="#050505" stroke-width="1.119" stroke-linejoin="round" stroke-opacity=".458"/><path style="isolation:auto;mix-blend-mode:normal;marker:none" d="M60.057 31.838A28.057 28.057 0 0 1 32 59.895 28.057 28.057 0 0 1 3.943 31.838 28.057 28.057 0 0 1 32 3.781a28.057 28.057 0 0 1 28.057 28.057z" color="#000" overflow="visible" fill="none" stroke="#fff" stroke-width="1.119" stroke-linejoin="round"/><path style="isolation:auto;mix-blend-mode:normal;marker:none" d="M109.337 80A29.337 29.337 0 0 1 80 109.337 29.337 29.337 0 0 1 50.663 80 29.337 29.337 0 0 1 80 50.663 29.337 29.337 0 0 1 109.337 80z" color="#000" overflow="visible" fill="none" stroke="url(#l)" stroke-width="2.66" stroke-linejoin="round" transform="translate(-48 -48)"/></svg>