<svg xmlns="http://www.w3.org/2000/svg" xmlns:xlink="http://www.w3.org/1999/xlink" height="64" viewBox="0 0 64 64" width="64" enable-background="new"><title>Template icons dark</title><defs><linearGradient id="a"><stop offset="0" stop-color="#fbfbfb"/><stop offset="1" stop-color="#cfcfcf"/></linearGradient><linearGradient id="b"><stop offset="0" stop-color="#ff8545"/><stop offset=".525" stop-color="#f47200"/><stop offset="1" stop-color="#ffa04d"/></linearGradient><linearGradient id="c"><stop offset="0" stop-color="#2c60d3" stop-opacity=".609"/><stop offset="1" stop-color="#2c60d3" stop-opacity="0"/></linearGradient><linearGradient id="d"><stop offset="0" stop-opacity=".289"/><stop offset="1" stop-color="#c1c1c1" stop-opacity="0"/></linearGradient><linearGradient id="e"><stop offset="0" stop-color="#da6607" stop-opacity=".355"/><stop offset="1" stop-color="#fff" stop-opacity=".243"/></linearGradient><linearGradient id="f"><stop offset="0" stop-color="#763704"/><stop offset="1" stop-color="#763704" stop-opacity="0"/></linearGradient><linearGradient xlink:href="#b" id="h" gradientUnits="userSpaceOnUse" gradientTransform="matrix(1.3925 0 0 1.3925 46.455 47.434)" x1="2.133" y1="1.425" x2="45.917" y2="45.208"/><linearGradient xlink:href="#a" id="i" gradientUnits="userSpaceOnUse" x1="213.205" y1="166" x2="213.205" y2="261.881" gradientTransform="matrix(.23816 0 0 .23816 37.994 38.058)"/><linearGradient xlink:href="#c" id="q" x1="214" y1="191.323" x2="214" y2="237.518" gradientUnits="userSpaceOnUse" gradientTransform="matrix(.25156 0 0 .25156 35.135 35.201)"/><linearGradient xlink:href="#d" id="j" x1="164.302" y1="206.353" x2="230" y2="226.22" gradientUnits="userSpaceOnUse" gradientTransform="matrix(.23816 0 0 .23816 38.035 38.22)"/><linearGradient xlink:href="#d" id="k" gradientUnits="userSpaceOnUse" x1="164.302" y1="206.353" x2="230" y2="226.22" gradientTransform="matrix(-.1684 -.1684 .1684 -.1684 88.59 160.793)"/><linearGradient xlink:href="#d" id="l" gradientUnits="userSpaceOnUse" gradientTransform="matrix(-.1684 .1684 -.1684 -.1684 160.596 88.919)" x1="164.302" y1="206.353" x2="230" y2="226.22"/><linearGradient gradientTransform="matrix(.24374 0 0 .24374 37.302 37.363)" xlink:href="#e" id="m" x1="153.638" y1="72" x2="250.772" y2="141.165" gradientUnits="userSpaceOnUse"/><linearGradient xlink:href="#f" id="n" x1="196" y1="124.126" x2="156.079" y2="62" gradientUnits="userSpaceOnUse" gradientTransform="matrix(.2297 0 0 .2297 39.752 39.83)"/><linearGradient xlink:href="#f" id="o" gradientUnits="userSpaceOnUse" x1="196" y1="124.126" x2="156.079" y2="62" gradientTransform="rotate(-45 116.613 21.237) scale(.22969)"/><linearGradient xlink:href="#f" id="p" gradientUnits="userSpaceOnUse" gradientTransform="rotate(-90 88.47 48.696) scale(.22969)" x1="196" y1="124.126" x2="156.079" y2="62"/><filter id="g" x="-.012" width="1.024" y="-.012" height="1.024" color-interpolation-filters="sRGB"><feGaussianBlur stdDeviation="1.246"/></filter></defs><g transform="translate(-48 -48)"><path d="M164.152 51.022a17.143 17.143 0 0 0-12.16 5.053 17.16 17.16 0 0 0 0 24.32l47.776 47.777H75.214a17.158 17.158 0 0 0-17.196 17.197 17.158 17.158 0 0 0 17.196 17.196c17.905-.05 43.299-.056 67.617-.05l-88.122 88.122a17.16 17.16 0 0 0 0 24.32 17.16 17.16 0 0 0 24.321 0c12.934-13.007 31.462-31.543 49.032-49.103 5.84 42.532 42.157 74.24 85.088 74.288 47.488 0 85.985-38.497 85.985-85.985a85.985 85.985 0 0 0-29.466-64.717c-6.366-6.35-63.542-63.38-93.359-93.365a17.138 17.138 0 0 0-12.158-5.053zm50.009 142.676c11.083 0 20.068 8.984 20.068 20.068 0 11.083-8.985 20.068-20.068 20.068-11.083 0-20.068-8.985-20.068-20.068 0-11.084 8.985-20.068 20.068-20.068z" transform="matrix(.2297 0 0 .2297 39.752 39.83)" fill-opacity=".203" filter="url(#g)" enable-background="new"/><path d="M77.496 52.04a3.87 3.87 0 0 0-2.745 1.14 3.874 3.874 0 0 0 0 5.49l10.786 10.786H57.418a3.874 3.874 0 0 0-3.882 3.882 3.874 3.874 0 0 0 3.882 3.882c4.042-.01 9.775-.012 15.265-.01L52.789 97.102a3.874 3.874 0 0 0 0 5.49 3.874 3.874 0 0 0 5.49 0c2.92-2.936 7.103-7.12 11.07-11.085 1.318 9.602 9.517 16.76 19.209 16.771 10.72 0 19.412-8.69 19.412-19.411a19.41 19.41 0 0 0-6.653-14.61A9694.118 9694.118 0 0 1 80.241 53.18a3.87 3.87 0 0 0-2.745-1.14zm11.29 32.209a4.53 4.53 0 1 1 0 9.061 4.53 4.53 0 0 1 0-9.061z" fill="url(#h)" enable-background="new"/><path d="M88.77 73.88a14.914 14.914 0 0 0-14.913 14.914 14.914 14.914 0 0 0 14.913 14.914 14.914 14.914 0 0 0 14.913-14.914A14.914 14.914 0 0 0 88.77 73.881zm0 9.081a5.833 5.833 0 0 1 5.833 5.833 5.833 5.833 0 0 1-5.833 5.833 5.833 5.833 0 0 1-5.833-5.833 5.833 5.833 0 0 1 5.833-5.833z" fill-opacity=".099" enable-background="new"/><path d="M88.77 77.133a11.647 11.647 0 0 0-11.647 11.646 11.647 11.647 0 0 0 11.647 11.647 11.647 11.647 0 0 0 11.647-11.647A11.647 11.647 0 0 0 88.77 77.133zm0 7.091a4.555 4.555 0 0 1 4.555 4.555 4.555 4.555 0 0 1-4.555 4.556 4.555 4.555 0 0 1-4.555-4.556 4.555 4.555 0 0 1 4.555-4.555z" fill="url(#i)" enable-background="new"/><path d="M77.422 52.193a3.87 3.87 0 0 0-2.745 1.14A3.87 3.87 0 0 0 73.54 56.2a3.87 3.87 0 0 1 1.138-2.624 3.87 3.87 0 0 1 5.49 0 9707.488 9707.488 0 0 0 21.077 21.078 19.412 19.412 0 0 1 6.647 14.51 19.412 19.412 0 0 0 .005-.142 19.412 19.412 0 0 0-6.652-14.61c-1.437-1.434-14.345-14.309-21.076-21.078a3.87 3.87 0 0 0-2.745-1.141zM57.345 69.61a3.874 3.874 0 0 0-3.88 4.003 3.873 3.873 0 0 1 3.88-3.76h28.118l-.243-.243zm15.022 7.996L52.715 97.257a3.87 3.87 0 0 0-1.137 2.867 3.87 3.87 0 0 1 1.137-2.624L72.61 77.606h-.242z" opacity=".884" fill="#f5eece" fill-opacity=".672" enable-background="new"/><path d="M73.665 55.92a3.87 3.87 0 0 0 1.138 2.866l10.543 10.543h.242L74.803 58.543a3.869 3.869 0 0 1-1.138-2.624zM53.59 73.331a3.874 3.874 0 0 0 3.88 4.004c3.981-.011 9.606-.012 15.021-.011l.243-.243c-5.49 0-11.223 0-15.265.011a3.873 3.873 0 0 1-3.879-3.76zm54.425 15.552a19.412 19.412 0 0 1-19.407 19.268A19.412 19.412 0 0 1 69.4 91.382c-3.966 3.964-8.149 8.148-11.069 11.085a3.874 3.874 0 0 1-5.49 0 3.869 3.869 0 0 1-1.138-2.624 3.87 3.87 0 0 0 1.138 2.866 3.874 3.874 0 0 0 5.49 0c2.92-2.936 7.103-7.12 11.07-11.085a19.412 19.412 0 0 0 19.208 16.77 19.412 19.412 0 0 0 19.412-19.41 19.412 19.412 0 0 0-.005-.1z" fill-opacity=".552" enable-background="new"/><path d="M88.77 77.133a11.647 11.647 0 0 0-11.647 11.646 11.647 11.647 0 0 0 .01.279 11.647 11.647 0 0 1 11.637-11.45 11.647 11.647 0 0 1 11.637 11.368 11.647 11.647 0 0 0 .01-.197A11.647 11.647 0 0 0 88.77 77.133z" fill-opacity=".573" enable-background="new"/><path d="M88.716 100.48a11.647 11.647 0 0 0 11.646-11.646 11.647 11.647 0 0 0-.01-.278 11.647 11.647 0 0 1-11.637 11.449 11.647 11.647 0 0 1-11.637-11.367 11.647 11.647 0 0 0-.01.196 11.647 11.647 0 0 0 11.647 11.647z" fill="#f4f4f4" enable-background="new"/><path d="M88.811 77.54a11.647 11.647 0 0 0-11.647 11.646 11.647 11.647 0 0 0 .876 4.416l7.088-7.088a4.555 4.555 0 0 1 3.683-1.883 4.555 4.555 0 0 1 4.555 4.555 4.555 4.555 0 0 1-1.12 2.987l5.017 5.017a11.647 11.647 0 0 0 3.195-8.004A11.647 11.647 0 0 0 88.81 77.54z" fill="url(#j)" enable-background="new"/><path d="M80.488 97.086a11.647 11.647 0 0 0 16.472 0 11.647 11.647 0 0 0 2.503-3.742H89.439a4.555 4.555 0 0 1-3.936-1.273 4.555 4.555 0 0 1 0-6.442 4.555 4.555 0 0 1 2.904-1.32v-7.095a11.647 11.647 0 0 0-7.919 3.4 11.647 11.647 0 0 0 0 16.472z" fill="url(#k)" enable-background="new"/><path d="M96.889 97.02a11.647 11.647 0 0 0 0-16.47 11.647 11.647 0 0 0-3.742-2.503V88.07a4.555 4.555 0 0 1-1.273 3.935 4.555 4.555 0 0 1-6.442 0 4.555 4.555 0 0 1-1.32-2.904h-7.095a11.647 11.647 0 0 0 3.4 7.919 11.647 11.647 0 0 0 16.472 0z" fill="url(#l)" enable-background="new"/><path d="M88.77 73.88a14.886 14.886 0 0 0-14.886 14.887 14.886 14.886 0 0 0 .014.378A14.886 14.886 0 0 1 88.77 74.528a14.886 14.886 0 0 1 14.873 14.507 14.886 14.886 0 0 0 .013-.268A14.886 14.886 0 0 0 88.77 73.88z" fill-opacity=".484" enable-background="new"/><path d="M88.719 104.152a14.862 14.862 0 0 0 14.862-14.862 14.862 14.862 0 0 0-.013-.378 14.862 14.862 0 0 1-14.849 14.594A14.862 14.862 0 0 1 73.87 89.023a14.862 14.862 0 0 0-.013.267 14.862 14.862 0 0 0 14.862 14.862z" fill="#fff" fill-opacity=".38" enable-background="new"/><path d="M77.496 52.04a3.87 3.87 0 0 0-2.745 1.14 3.874 3.874 0 0 0 0 5.49l10.786 10.786-8.04-17.417z" fill="url(#n)" enable-background="new"/><path d="M54.46 70.623a3.87 3.87 0 0 0-1.134 2.747 3.874 3.874 0 0 0 3.882 3.883h15.254l-18.001-6.63z" fill="url(#o)" enable-background="new"/><path d="M51.983 99.422c0 .992.38 1.985 1.14 2.745a3.874 3.874 0 0 0 5.491 0L69.4 91.381l-17.417 8.041z" fill="url(#p)" enable-background="new"/><circle style="isolation:auto;mix-blend-mode:normal;marker:none" cx="88.773" cy="88.793" r="5.962" color="#000" display="block" overflow="visible" fill="url(#q)" paint-order="fill markers stroke" enable-background="accumulate"/><circle r="9.447" cy="88.793" cx="88.773" style="isolation:auto;mix-blend-mode:normal;marker:none" color="#000" display="block" overflow="visible" fill="none" stroke="#f4f4f4" stroke-width=".131" paint-order="fill markers stroke" enable-background="accumulate"/><circle style="isolation:auto;mix-blend-mode:normal;marker:none" cx="88.773" cy="88.793" r="7.756" color="#000" display="block" overflow="visible" fill="none" stroke="#f4f4f4" stroke-width=".108" paint-order="fill markers stroke" enable-background="accumulate"/></g></svg>