<svg xmlns="http://www.w3.org/2000/svg" xmlns:xlink="http://www.w3.org/1999/xlink" height="64" viewBox="0 0 64 64" width="64" enable-background="new"><title>Template icons dark</title><defs><filter id="d" x="-.012" width="1.024" y="-.012" height="1.024" color-interpolation-filters="sRGB"><feGaussianBlur stdDeviation=".23"/></filter><linearGradient id="a"><stop offset="0" stop-color="#99c7d1"/><stop offset="1" stop-color="#e4eff7"/></linearGradient><linearGradient id="b"><stop offset="0" stop-color="#4378aa"/><stop offset="1" stop-color="#3797ca"/></linearGradient><linearGradient id="c"><stop offset="0" stop-color="#649ad2"/><stop offset="1" stop-color="#87c7e0"/></linearGradient><linearGradient gradientTransform="matrix(1.31624 0 0 1.31624 48.41 48.41)" xlink:href="#a" id="e" x1="35.701" y1="39.195" x2="34.577" y2="20.219" gradientUnits="userSpaceOnUse"/><linearGradient gradientTransform="matrix(1.31624 0 0 1.31624 48.41 48.41)" xlink:href="#b" id="f" x1="22.716" y1="14.943" x2="26.34" y2="-.083" gradientUnits="userSpaceOnUse"/><linearGradient gradientTransform="matrix(1.31624 0 0 1.31624 48.41 48.41)" xlink:href="#c" id="g" gradientUnits="userSpaceOnUse" x1="8.805" y1="34.505" x2="11.844" y2="20.459"/></defs><g transform="translate(-48 -48)"><circle r="31.008" cy="80" cx="80" style="isolation:auto;mix-blend-mode:normal;marker:none" color="#000" display="block" overflow="visible" opacity=".6" fill="none" stroke="#000" stroke-width="1.984" stroke-opacity=".123" paint-order="fill markers stroke" enable-background="accumulate"/><circle style="isolation:auto;mix-blend-mode:normal;marker:none" cx="79.906" cy="80.094" r="7.094" color="#000" display="block" overflow="visible" fill="#4690eb" fill-opacity=".215" paint-order="fill markers stroke" enable-background="accumulate"/><path style="isolation:auto;mix-blend-mode:normal;marker:none" d="M160.063 137.063c-12.703 0-23 10.297-23 23s10.297 23 23 23 23-10.297 23-23-10.297-23-23-23zm-.077 16.434a6.586 6.586 0 1 1 0 13.173 6.586 6.586 0 0 1 0-13.173z" transform="matrix(1.31624 0 0 1.31624 -130.68 -130.68)" color="#000" overflow="visible" fill-opacity=".235" fill-rule="evenodd" filter="url(#d)" enable-background="accumulate"/><path d="M80 52.475C63.28 52.475 52.359 63.28 52.359 80S63.28 110.273 80 110.273 110.273 96.72 110.273 80a30.149 30.149 0 0 0-6.835-19.163c-5.552-6.782-13.99-8.362-23.438-8.362zm-.102 18.883a8.67 8.67 0 0 1 8.67 8.669c0 4.788-4.119 8.94-8.907 8.94-4.89.508-9.19-2.329-9.38-9.414-.16-5.977 6.455-9.042 9.617-8.195z" fill="url(#e)" fill-rule="evenodd"/><path d="M80 49.727c-11.17 0-20.919 6.054-26.165 15.054l19.043 20.332c-1.591-2.112-1.649-4.322-1.649-5.086 0-4.56 3.521-8.29 7.992-8.636l28.171-4.507c-1.045-2.17-2.328-4.319-3.838-6.163C98.002 53.94 89.45 49.727 80 49.727z" fill="url(#f)" fill-rule="evenodd"/><path d="M53.07 93.834c5.102 9.935 14.94 15.842 25.344 16.398l7.273-23.76c-.543.488-1.149.92-1.83 1.27-4.055 2.083-8.981.654-11.332-3.164L55.872 61.732a30.3 30.3 0 0 0-3.626 6.177c-3.497 8.037-3.493 17.52.823 25.925z" style="isolation:auto;mix-blend-mode:normal" color="#000" overflow="visible" fill="url(#g)" fill-rule="evenodd" enable-background="accumulate"/><path style="font-variant-east_asian:normal" d="M55.773 61.532l15.896 15.782s-.659 2.012-.398 3.78c.252 1.715 1.076 3.2 1.076 3.2zM107.27 66.914l-20.875 7.332s-1.445-1.48-2.727-2.035c-2.35-1.017-4.05-.875-4.05-.875zM78.417 110.257l2.047-21.568s1.463-.005 3.552-1.014c.618-.299 1.674-1.2 1.674-1.2z" fill-opacity=".11" fill-rule="evenodd"/></g></svg>