<svg xmlns="http://www.w3.org/2000/svg" xmlns:xlink="http://www.w3.org/1999/xlink" height="64" viewBox="0 0 64 64" width="64"><title>Template icons dark</title><defs><linearGradient id="a"><stop offset="0" stop-color="#ba0049"/><stop offset="1" stop-color="#ff1edc"/></linearGradient><linearGradient id="b"><stop offset="0" stop-color="#00c640"/><stop offset="1" stop-color="#3bcfd5"/></linearGradient><linearGradient id="c"><stop offset="0" stop-color="#118fff"/><stop offset="1" stop-color="#00f5ab"/></linearGradient><linearGradient xlink:href="#a" id="d" gradientUnits="userSpaceOnUse" gradientTransform="translate(45.406 40.801) scale(1.53752)" x1="40.461" y1="43.461" x2="24.042" y2="10.5"/><linearGradient xlink:href="#b" id="e" x1="34.931" y1="44.25" x2="8.627" y2="40.5" gradientUnits="userSpaceOnUse" gradientTransform="translate(45.406 40.801) scale(1.53752)"/><linearGradient xlink:href="#c" id="f" gradientUnits="userSpaceOnUse" gradientTransform="translate(45.406 40.801) scale(1.53752)" x1="19.466" y1="20.754" x2="8.839" y2="39.161"/></defs><g fill-rule="evenodd"><path d="M34.241 50l-11.574-4.656 10.635-8.677zM32.042 0L10.667 42.667 0 64h64z" fill-opacity=".174"/><path d="M80 49.961l30.27 60.54H84.324z" fill="url(#d)" transform="translate(-48 -48)"/><path d="M49.73 110.501l10.09-20.18 50.45 20.18z" fill="url(#e)" transform="translate(-48 -48)"/><path d="M1.73 62.501l10.09-20.18 19.412 7.778z" fill-opacity=".325"/><path d="M80 49.961l-30.27 60.54 32.511-29.15z" fill="url(#f)" transform="translate(-48 -48)"/><path d="M1.73 62.501l18.73-16.76 26.058 10.47z" fill-opacity=".174"/><path d="M34.784 40.648L62.27 62.501 35.56 51.817z" fill-opacity=".261"/><path d="M32 1.961l-3.046 36.075 5.287-4.685z" fill-opacity=".236"/><path d="M32 1.961L16.953 48.85 34.24 33.35zM33.623 23.65L62.27 62.5 35.56 51.817z" fill-opacity=".174"/><path d="M32 1.961l1.167 32.324 1.074-.934zM35.477 49.766L62.27 62.5 35.56 51.817zM1.73 62.501l18.73-16.76 1.907.776z" fill-opacity=".157"/></g></svg>