<svg xmlns="http://www.w3.org/2000/svg" xmlns:xlink="http://www.w3.org/1999/xlink" height="64" viewBox="0 0 64 64" width="64"><title>Template icons dark</title><defs><linearGradient id="b"><stop offset="0" stop-color="#7da2db"/><stop offset=".399" stop-color="#555dbb"/><stop offset="1" stop-color="#b985b0"/></linearGradient><linearGradient id="a"><stop offset="0" stop-color="#0b1528"/><stop offset="1" stop-color="#473d49"/></linearGradient><linearGradient xlink:href="#a" id="c" gradientUnits="userSpaceOnUse" gradientTransform="matrix(1.06869 0 0 1.03163 21.04 18.935)" x1="152.009" y1="127.834" x2="152.009" y2="94.362"/><linearGradient xlink:href="#b" id="d" gradientUnits="userSpaceOnUse" gradientTransform="matrix(.96343 0 0 .9241 5.851 9.732)" x1="182.897" y1="164.201" x2="118.957" y2="112.508"/><linearGradient xlink:href="#a" id="e" gradientUnits="userSpaceOnUse" gradientTransform="matrix(1.06869 0 0 1.03163 21.04 18.373)" x1="152.009" y1="127.834" x2="152.009" y2="94.362"/><linearGradient xlink:href="#b" id="f" gradientUnits="userSpaceOnUse" gradientTransform="matrix(.96343 0 0 .9241 5.851 9.17)" x1="207.943" y1="158.722" x2="132.898" y2="114"/></defs><g transform="translate(-48 -48)"><rect style="isolation:auto;mix-blend-mode:normal;marker:none" width="62" height="11" x="49" y="75" ry="0" color="#000" overflow="visible" fill="#070c12" fill-opacity=".157"/><g transform="matrix(.69565 0 0 .69565 -31.305 2.087)"><rect ry="2.437" y="113.438" x="114" height="40.25" width="92" style="marker:none" fill="url(#c)"/><rect style="marker:none" width="90.562" height="38.812" x="114.719" y="114.156" ry="1.038" fill="none" stroke="url(#d)" stroke-width="1.437"/><rect ry="0" y="140.75" x="141.313" height="5.75" width="18.687" style="isolation:auto;mix-blend-mode:normal;marker:none" color="#000" overflow="visible" fill="#d8e6ff"/><path style="line-height:10;-inkscape-font-specification:'Ubuntu Mono';isolation:auto;mix-blend-mode:normal;marker:none" d="M128.697 140.345q1.047 0 1.745-.143.727-.171 1.134-.458.407-.314.581-.715.175-.43.175-.916 0-.715-.349-1.202-.349-.515-.96-.887-.581-.4-1.337-.687-.756-.315-1.57-.6-.786-.287-1.571-.63-.756-.344-1.367-.83-.581-.515-.96-1.202-.378-.716-.378-1.746 0-1.832 1.106-2.976 1.105-1.145 3.198-1.46v-2.947h2.152v2.861q1.164.058 2.123.287.989.2 1.57.429l-.494 2.003q-.61-.229-1.541-.458-.93-.257-2.356-.257-1.57 0-2.413.572-.815.572-.815 1.66 0 .6.233 1.001.262.401.727.716.465.315 1.076.572.64.258 1.425.544.989.372 1.92.801.93.401 1.628.973.698.573 1.105 1.374.436.801.436 1.917 0 1.689-1.134 2.862-1.134 1.174-3.49 1.46v3.291h-2.152v-3.205q-1.832-.057-2.966-.4-1.134-.344-1.686-.66l.64-1.974q.784.372 1.86.716 1.076.314 2.705.314z" color="#000" font-weight="400" font-size="28.848" font-family="Ubuntu Mono" letter-spacing="0" word-spacing="0" fill="#fff" fill-opacity=".984"/></g><g transform="matrix(.69565 0 0 .69565 -31.305 -28.522)"><rect style="marker:none" width="92" height="40.25" x="114" y="112.875" ry="1.875" fill="url(#e)"/><rect ry=".454" y="113.594" x="114.719" height="38.812" width="90.562" style="marker:none" fill="none" stroke="url(#f)" stroke-width="1.437"/><rect style="isolation:auto;mix-blend-mode:normal;marker:none" width="18.687" height="5.75" x="141.313" y="140.188" ry="0" color="#000" overflow="visible" fill="#d8e6ff"/><path d="M128.697 140.345q1.047 0 1.745-.143.727-.171 1.134-.458.407-.314.581-.715.175-.43.175-.916 0-.715-.349-1.202-.349-.515-.96-.887-.581-.4-1.337-.687-.756-.315-1.57-.6-.786-.287-1.571-.63-.756-.344-1.367-.83-.581-.515-.96-1.202-.378-.716-.378-1.746 0-1.832 1.106-2.976 1.105-1.145 3.198-1.46v-2.947h2.152v2.861q1.164.058 2.123.287.989.2 1.57.429l-.494 2.003q-.61-.229-1.541-.458-.93-.257-2.356-.257-1.57 0-2.413.572-.815.572-.815 1.66 0 .6.233 1.001.262.401.727.716.465.315 1.076.572.64.258 1.425.544.989.372 1.92.801.93.401 1.628.973.698.573 1.105 1.374.436.801.436 1.917 0 1.689-1.134 2.862-1.134 1.174-3.49 1.46v3.291h-2.152v-3.205q-1.832-.057-2.966-.4-1.134-.344-1.686-.66l.64-1.974q.784.372 1.86.716 1.076.314 2.705.314z" style="line-height:10;-inkscape-font-specification:'Ubuntu Mono';isolation:auto;mix-blend-mode:normal;marker:none" color="#000" font-weight="400" font-size="28.848" font-family="Ubuntu Mono" letter-spacing="0" word-spacing="0" fill="#fff" fill-opacity=".984"/></g></g></svg>