<svg xmlns="http://www.w3.org/2000/svg" xmlns:xlink="http://www.w3.org/1999/xlink" height="64" viewBox="0 0 64 64" width="64"><title>Template icons dark</title><defs><linearGradient id="q"><stop offset="0" stop-color="#c3c3c3"/><stop offset=".5" stop-color="#fff"/><stop offset="1" stop-color="#fff"/></linearGradient><linearGradient id="r"><stop offset="0" stop-color="#bababa" stop-opacity=".957"/><stop offset=".5" stop-color="#fff" stop-opacity=".827"/><stop offset="1" stop-color="#fff"/></linearGradient><linearGradient id="p"><stop offset="0" stop-opacity=".203"/><stop offset="1" stop-opacity="0"/></linearGradient><linearGradient id="o"><stop offset="0"/><stop offset="1" stop-opacity="0"/></linearGradient><linearGradient id="n"><stop offset="0" stop-color="#c6c6c6"/><stop offset="1" stop-color="#d2d2d2"/></linearGradient><linearGradient id="m"><stop offset="0" stop-color="#374359"/><stop offset="1" stop-color="#202733" stop-opacity=".953"/></linearGradient><linearGradient id="l"><stop offset="0" stop-color="#252525"/><stop offset="1" stop-color="#3d3d3d"/></linearGradient><linearGradient id="k"><stop offset="0" stop-opacity=".214"/><stop offset="1" stop-color="#fff"/></linearGradient><linearGradient id="j"><stop offset="0" stop-color="#bababa"/><stop offset="1" stop-color="#c9cbc9"/></linearGradient><linearGradient id="i"><stop offset="0" stop-opacity=".417"/><stop offset="1" stop-opacity="0"/></linearGradient><linearGradient id="h"><stop offset="0" stop-color="#fff"/><stop offset="1" stop-opacity=".792"/></linearGradient><linearGradient id="g"><stop offset="0" stop-color="#a6afb1"/><stop offset="1" stop-color="#c7cdcd"/></linearGradient><linearGradient id="d"><stop offset="0" stop-opacity=".125"/><stop offset="1" stop-color="#4bd865" stop-opacity="0"/></linearGradient><linearGradient id="c"><stop offset="0" stop-color="#80e493"/><stop offset="1" stop-color="#4bd865"/></linearGradient><linearGradient id="b"><stop offset="0" stop-color="#fff"/><stop offset="1" stop-color="#dadada"/></linearGradient><linearGradient id="e"><stop offset="0" stop-color="#bababa" stop-opacity=".957"/><stop offset=".17" stop-color="#fff" stop-opacity=".827"/><stop offset="1" stop-color="#fff"/></linearGradient><linearGradient id="f"><stop offset="0" stop-color="#c3c3c3"/><stop offset=".252" stop-color="#fff"/><stop offset="1" stop-color="#fff"/></linearGradient><linearGradient id="a"><stop offset="0" stop-color="#dadada"/><stop offset="1" stop-color="#fff"/></linearGradient><linearGradient xlink:href="#a" id="E" gradientUnits="userSpaceOnUse" gradientTransform="matrix(-.41608 0 0 .41608 110.783 74.523)" x1="17.92" y1="19.84" x2="17.92" y2="11.307"/><linearGradient xlink:href="#n" id="C" gradientUnits="userSpaceOnUse" gradientTransform="matrix(-.43918 0 0 .44583 181.693 12.634)" x1="186.244" y1="149" x2="186.244" y2="159.943"/><linearGradient xlink:href="#p" id="D" x1="193" y1="150.033" x2="193" y2="158" gradientUnits="userSpaceOnUse" gradientTransform="matrix(.67003 0 0 .67003 -26.678 -22.158)"/><linearGradient xlink:href="#f" id="B" x1="-23.835" y1="47.253" x2="-23.835" y2="57.711" gradientUnits="userSpaceOnUse" gradientTransform="matrix(1.66778 0 0 1.6647 121.633 11.855)"/><linearGradient gradientTransform="matrix(.67003 0 0 .67003 -26.678 -24.838)" xlink:href="#l" id="A" x1="164.79" y1="170.337" x2="164.79" y2="181.809" gradientUnits="userSpaceOnUse"/><linearGradient xlink:href="#k" id="z" x1="128" y1="141.741" x2="128" y2="146.399" gradientUnits="userSpaceOnUse" gradientTransform="matrix(.67003 0 0 .67003 -26.678 -22.158)"/><linearGradient xlink:href="#i" id="y" gradientUnits="userSpaceOnUse" x1="160" y1="168" x2="160" y2="171" gradientTransform="matrix(.67003 0 0 .67003 -32.038 -26.178)"/><linearGradient gradientTransform="matrix(1.25091 0 0 1.25091 50.443 52.297)" xlink:href="#e" id="x" x1="23.75" y1="11.188" x2="23.75" y2="2.875" gradientUnits="userSpaceOnUse"/><linearGradient gradientTransform="matrix(.67003 0 0 .67003 -26.678 -24.838)" xlink:href="#m" id="w" x1="160.584" y1="120.75" x2="160.584" y2="137.129" gradientUnits="userSpaceOnUse"/><linearGradient xlink:href="#a" id="v" gradientUnits="userSpaceOnUse" gradientTransform="matrix(.41608 0 0 .41608 90.472 66.483)" x1="17.92" y1="19.84" x2="17.92" y2="11.307"/><linearGradient xlink:href="#c" id="t" x1="186.244" y1="149" x2="186.244" y2="159.943" gradientUnits="userSpaceOnUse" gradientTransform="matrix(.43918 0 0 .44583 19.561 4.594)"/><linearGradient xlink:href="#o" id="u" x1="195" y1="140" x2="195" y2="147.803" gradientUnits="userSpaceOnUse" gradientTransform="matrix(.67003 0 0 .67003 -26.678 -23.498)"/><linearGradient xlink:href="#b" id="s" x1="163" y1="146.121" x2="163" y2="179.803" gradientUnits="userSpaceOnUse" gradientTransform="matrix(.67003 0 0 .7191 -26.678 -38.36)"/></defs><g transform="translate(-48 -48)"><path d="M67.796 54.34v.67h-1.34v7.256h-2.68l-.005 4.051H51.045l-.67.67v26.77l.67.67h6.089l5.302-6.03h36.181l5.387 6.03h6.126l.548-.68V67.672l-1.34-1.356h-12.06v-4.051h-2.68V55.01h-1.34v-.67z" style="isolation:auto;mix-blend-mode:normal;marker:none" color="#000" overflow="visible" fill-opacity=".182" paint-order="fill markers stroke"/><path d="M51.045 67.657l.67-.67h57.623l.67.67v25.43l-.67.67h-4.69l-5.36-6.03H61.765l-5.365 6.03h-4.686l-.67-.67z" style="isolation:auto;mix-blend-mode:normal;marker:none" color="#000" display="block" overflow="visible" fill="url(#s)" paint-order="fill markers stroke"/><path d="M97.947 70.337h5.36c2.01 0 2.68 1.31 2.68 2.65 0 1.34-.67 2.68-2.627 2.68h-5.413c-2.01 0-2.68-1.242-2.68-2.68 0-1.44.67-2.65 2.68-2.65z" fill="url(#t)" stroke="url(#u)" stroke-width=".335" stroke-miterlimit="4.6" stroke-opacity=".161"/><path d="M100.172 73.282a2.193 2.193 0 0 1-4.386 0c0-1.212.982-2.163 2.193-2.163s2.193.951 2.193 2.163z" fill-opacity=".202"/><path d="M100.14 72.932a2.193 2.193 0 0 1-4.386 0c0-1.211.982-2.162 2.193-2.162 1.212 0 2.193.95 2.193 2.162z" fill="url(#v)" stroke="#19b796" stroke-width=".166" stroke-miterlimit="4.6" stroke-opacity=".283"/><path style="isolation:auto;mix-blend-mode:normal" d="M67.126 55.748v7.183l-2.68.005v4.051h32.161v-4.051h-2.68V55.68z" color="#000" overflow="visible" fill="url(#w)"/><path d="M68.466 55.01h24.121v11.977h-24.12z" style="isolation:auto;mix-blend-mode:normal" color="#000" overflow="visible" fill="url(#x)"/><path style="line-height:normal;font-variant-ligatures:normal;font-variant-position:normal;font-variant-caps:normal;font-variant-numeric:normal;font-variant-alternates:normal;font-feature-settings:normal;text-indent:0;text-align:start;text-decoration-line:none;text-decoration-style:solid;text-decoration-color:#000;text-transform:none;text-orientation:mixed;shape-padding:0;isolation:auto;mix-blend-mode:normal;marker:none" d="M99.287 87.727l5.36 6.057 4.69-.027.67-.67v-25.43l-.67-.67H51.716l-.67.67v25.43l.67.67h4.69l5.36-6.03v-.67l-5.36 6.03h-4.02l-.67-.67v-24.09l.67-.67h56.283l.67.67v24.09l-.67.67h-4.02l-5.36-6.03z" color="#000" font-weight="400" font-family="sans-serif" white-space="normal" display="block" overflow="visible" fill="#fff" fill-opacity=".823" paint-order="fill markers stroke"/><path d="M63.106 86.387h34.841c.782 0 1.34.558 1.34 1.34s-.558 1.34-1.34 1.34H63.106c-.782 0-1.34-.558-1.34-1.34s.558-1.34 1.34-1.34z" style="isolation:auto;mix-blend-mode:normal;marker:none" color="#000" display="block" overflow="visible" fill="url(#y)" paint-order="fill markers stroke"/><path d="M60.426 74.326a1.34 1.34 0 1 1-2.68 0 1.34 1.34 0 0 1 2.68 0z" style="isolation:auto;mix-blend-mode:normal;marker:none" color="#000" display="block" overflow="visible" fill="#2db887" fill-opacity=".578" stroke="url(#z)" stroke-width=".268" paint-order="fill markers stroke"/><path d="M63.106 89.067h35.59l5.282 7.37H57.746z" style="isolation:auto;mix-blend-mode:normal" color="#000" overflow="visible" fill="url(#A)"/><path d="M65.116 89.737h30.821l8.463 15.476H57.324z" style="isolation:auto;mix-blend-mode:normal" color="#000" overflow="visible" fill="url(#B)" stroke="#828282" stroke-width=".4"/><path style="isolation:auto;mix-blend-mode:normal;marker:none" d="M71.212 91.747l-.066.67h17.42v-.67zm-.074 2.01l-.044.67H83.1v-.67zm.049 2.01l-.04.67h10.688v-.67zm-.051 2.01l.007.67h10.054v-.67zm-.696 2.01l.032.67h10.096v-.67zm-.634 2.01v.67h10.72v-.67z" color="#000" overflow="visible" fill="#ccc" fill-opacity=".812"/><path d="M89.566 102.7c-1.446-.063-2.793-.613-3.73-1.522a4.337 4.337 0 0 1-.925-1.304 3.757 3.757 0 0 1-.225-2.391c.368-1.474 1.61-2.678 3.308-3.208a6.45 6.45 0 0 1 2.883-.187c.818.14 1.523.415 2.228.867.267.171.4.293.497.459.095.162.107.252.049.38-.096.213-.426.377-.806.4-.22.015-.369-.006-.567-.078-.14-.05-.161-.067-.32-.245a3.166 3.166 0 0 0-.62-.56 2.713 2.713 0 0 0-1.73-.51c-1.983.128-3.203 2.535-2.429 4.788.417 1.21 1.3 2.085 2.363 2.34a2.414 2.414 0 0 0 1.707-.2c.36-.181.702-.47.952-.803.2-.269.296-.358.487-.452.157-.078.169-.081.412-.097.235-.015.259-.013.404.035.19.062.365.169.436.265a.261.261 0 0 1 .055.18c0 .138-.078.246-.344.477-.782.675-1.702 1.1-2.784 1.284a8.472 8.472 0 0 1-1.301.082zm-.337-3.092c-.09-.032-.155-.09-.16-.145-.007-.062.132-.07.187-.01.077.082.317.055.308-.036-.005-.047-.053-.064-.257-.089-.168-.02-.236-.069-.246-.18-.006-.066.005-.098.051-.149.053-.057.075-.066.207-.082.122-.014.163-.01.229.017.077.033.14.1.144.155.005.049-.135.042-.194-.01-.038-.033-.072-.044-.134-.04-.104.007-.13.023-.124.077.005.047.053.066.244.091.166.022.25.08.259.177.013.144-.093.226-.312.24a.654.654 0 0 1-.202-.016zm1.538-.1c-.09-.031-.155-.09-.161-.144-.007-.062.132-.07.188-.01.076.082.316.054.308-.036-.005-.048-.054-.065-.258-.09-.168-.02-.235-.068-.245-.179-.006-.067.004-.098.05-.15.054-.057.075-.065.208-.081.122-.014.162-.011.228.017.078.033.14.099.145.154.005.05-.136.043-.194-.009-.039-.034-.072-.044-.134-.04-.104.007-.13.022-.124.077.004.047.052.065.243.09.167.023.25.08.26.177.013.144-.094.226-.312.24a.654.654 0 0 1-.202-.016zm-.683-.082c-.02-.123-.035-.151-.167-.314-.08-.098-.14-.185-.136-.194.006-.009.05-.018.1-.021.09-.005.092-.004.171.111.044.065.09.117.1.116.012 0 .046-.058.076-.127.055-.125.056-.126.146-.132.05-.003.096 0 .103.008.007.008-.037.102-.097.209-.1.178-.11.207-.107.331l.004.137-.085.005-.086.005zm1.508-.221c-.017-.176-.034-.266-.054-.28a.275.275 0 0 0-.127-.014c-.093.006-.097.004-.102-.05l-.006-.056.34-.022.339-.022.005.056c.006.054 0 .057-.092.063-.053.004-.108.017-.122.03-.017.017-.017.107 0 .283l.024.26-.09.004-.091.005zm.535-.114l-.032-.338.294-.019.294-.019.005.056.006.055-.195.019c-.157.014-.2.024-.217.052-.016.025-.014.043.006.066.022.024.07.03.208.029.173-.002.18 0 .183.045.005.045-.001.047-.163.063-.188.018-.225.037-.218.11.007.082.045.094.262.08l.199-.013.005.056.006.056-.306.02-.305.02zm.746-.05l-.032-.338.13-.003.13-.003.077.199c.042.11.086.2.098.2.013.002.04-.091.061-.207l.039-.21.128-.014.129-.014.031.339.032.338-.079.005-.08.005-.015-.164c-.023-.24-.052-.247-.095-.024l-.037.188-.09.005-.09.005-.072-.18c-.085-.215-.112-.204-.09.035l.015.164-.08.005-.078.005-.032-.338zm.925-.68a.447.447 0 0 1-.207-.164.537.537 0 0 1-.04-.167.329.329 0 0 1 .136-.312c.083-.06.31-.084.421-.045.086.03.186.13.165.165-.025.04-.158.031-.214-.014-.062-.05-.176-.052-.248-.003-.058.04-.084.189-.049.284.047.126.153.17.28.116.064-.028.1-.08.073-.11-.008-.009-.044-.014-.08-.012-.06.004-.068-.003-.073-.052l-.005-.056.17-.011.17-.011.016.178c.016.173.015.178-.035.182a.144.144 0 0 1-.079-.016c-.019-.013-.045-.009-.093.016a.564.564 0 0 1-.308.031zm-4.791-.03l-.032-.338.24-.016c.233-.015.24-.014.31.035.061.044.072.064.08.157.01.092.003.113-.05.165-.052.05-.079.06-.183.067a.366.366 0 0 0-.146.032c-.014.013-.021.069-.016.124l.01.099-.09.005-.091.005zm.387-.081c.032-.032.011-.12-.035-.144-.054-.028-.13-.024-.163.008s-.023.135.016.162c.032.023.148.005.182-.027zm.359.032l-.032-.338.273-.018c.272-.017.274-.017.345.033.083.06.103.156.05.245-.026.044-.027.064-.003.097.016.023.04.094.054.159l.026.117-.098.001h-.098l-.024-.099c-.029-.117-.043-.13-.154-.137-.122-.01-.15.023-.137.156l.01.11-.09.005-.09.005zm.412-.083c.043-.017.055-.035.05-.08-.006-.062-.068-.09-.186-.082-.078.005-.113.039-.107.102.002.026.017.058.033.07.036.024.133.02.21-.01zm.402.03l-.032-.338.09-.005.091-.005.032.338.032.337-.09.005-.091.005zm.34-.023l-.033-.339h.097l.096-.001.151.183c.083.101.16.178.17.172.01-.006.01-.095.001-.198l-.017-.186.08-.005.078-.005.032.338.032.339H91.5c-.094 0-.095 0-.239-.177-.08-.097-.154-.175-.166-.173-.013.003-.018.085-.011.192l.01.188-.078.005-.078.005zm1.002.015c-.017-.176-.034-.265-.054-.28a.275.275 0 0 0-.127-.014c-.093.006-.097.004-.102-.05l-.006-.056.34-.022.339-.022.005.056c.006.054 0 .057-.092.063-.053.004-.108.017-.122.03-.017.017-.017.107 0 .284l.024.258-.09.005-.091.005zm.535-.114l-.032-.337.09-.005.09-.005.033.337.031.338-.09.005-.09.005zm.339-.023l-.032-.339h.193l.151.183c.083.1.16.178.17.171.01-.006.01-.095.001-.197l-.017-.187.079-.005.079-.005.032.339.032.338h-.095c-.093.001-.095 0-.238-.176-.08-.098-.154-.176-.167-.173-.012.003-.017.085-.01.192l.01.188-.078.005-.078.005zm-3.705-.392c-.115-.043-.14-.103-.168-.393l-.025-.264.088-.005.088-.005.032.25c.035.279.053.311.173.303.12-.008.131-.042.114-.321l-.016-.251.089-.006.088-.005.025.264c.027.293.013.354-.097.41a.713.713 0 0 1-.391.025zm.653-.373l-.032-.338.096-.001h.097l.15.183c.084.1.16.178.17.172.011-.006.012-.096.002-.198l-.017-.187.079-.004.079-.005.032.339.032.338h-.095c-.094.001-.095 0-.238-.176-.08-.098-.154-.176-.167-.174-.012.003-.017.086-.01.192l.01.189-.078.005-.079.005zm.814-.051l-.032-.338.09-.005.091-.006.032.338.031.338-.09.005-.09.005zm.315.303c-.007-.008.031-.083.086-.166a.83.83 0 0 0 .095-.175.863.863 0 0 0-.116-.157 1.26 1.26 0 0 1-.116-.148c-.001-.008.043-.017.1-.02.093-.006.104-.002.159.065.032.039.069.07.081.07.012-.001.04-.034.061-.075.035-.067.048-.074.146-.086.058-.007.107-.005.108.004a.99.99 0 0 1-.087.158.726.726 0 0 0-.087.166c.001.013.06.087.129.165.071.08.12.149.109.159-.01.01-.058.017-.106.017-.077 0-.096-.01-.149-.077-.033-.042-.072-.075-.086-.074-.015.001-.051.042-.08.09-.05.08-.061.089-.144.094-.05.003-.096 0-.103-.009z" fill-opacity=".208"/><path d="M90.053 102.33a3.894 3.894 0 0 1-2.244-.747 4.06 4.06 0 0 1-1.581-4.294c.086-.34.257-.746.432-1.027.42-.676.99-1.172 1.7-1.48.43-.185.728-.255 1.229-.286a3.36 3.36 0 0 1 .957.052c.269.05.761.22 1.024.35.434.218.922.602 1.249.984.247.288.25.309.093.32a1.52 1.52 0 0 1-.548-.046c-.16-.053-.228-.052-.355-.202-.402-.475-.887-.844-1.433-1.014-.558-.175-1.145-.19-1.676.016-.824.32-1.473 1.058-1.773 2.018a3.959 3.959 0 0 0-.162 1.666c.055.587.272 1.103.53 1.589.105.199.417.65.559.808.934 1.041 2.12 1.197 3.245.633.345-.173.735-.52.968-.845.158-.22.245-.282.388-.368.176-.105.516-.107.636-.088.08.012-.322.607-.634.909-.506.49-1.097.81-1.782.963a5.196 5.196 0 0 1-.822.09z" fill-opacity=".208"/><path d="M103.308 78.347h-5.36c-2.01 0-2.68 1.34-2.68 2.68s.67 2.68 2.627 2.68h5.413c2.01 0 2.68-1.242 2.68-2.68 0-1.439-.67-2.68-2.68-2.68z" fill="url(#C)" stroke="url(#D)" stroke-width=".335" stroke-miterlimit="4.6"/><path d="M101.082 81.322a2.193 2.193 0 1 0 4.387 0 2.193 2.193 0 0 0-4.386 0z" fill-opacity=".202"/><path d="M101.114 80.972a2.193 2.193 0 1 0 4.387 0 2.193 2.193 0 0 0-4.387 0z" fill="url(#E)" stroke="#19b796" stroke-width=".166" stroke-miterlimit="4.6" stroke-opacity=".283"/><circle cy="68.631" cx="52.72" style="isolation:auto;mix-blend-mode:normal;marker:none" r=".335" color="#000" display="block" overflow="visible" fill="#a7a7a7" fill-opacity=".552" paint-order="fill markers stroke"/><circle cy="92.082" cx="52.72" style="isolation:auto;mix-blend-mode:normal;marker:none" r=".335" color="#000" display="block" overflow="visible" fill="#a7a7a7" fill-opacity=".552" paint-order="fill markers stroke"/><circle cy="68.631" cx="108.333" style="isolation:auto;mix-blend-mode:normal;marker:none" r=".335" color="#000" display="block" overflow="visible" fill="#a7a7a7" fill-opacity=".552" paint-order="fill markers stroke"/><circle cy="92.082" cx="108.333" style="isolation:auto;mix-blend-mode:normal;marker:none" r=".335" color="#000" display="block" overflow="visible" fill="#a7a7a7" fill-opacity=".552" paint-order="fill markers stroke"/></g></svg>