<svg xmlns="http://www.w3.org/2000/svg" xmlns:xlink="http://www.w3.org/1999/xlink" height="64" viewBox="0 0 64 64" width="64"><title>Template icons dark</title><defs><linearGradient id="k"><stop offset="0" stop-color="#3d353d"/><stop offset="1" stop-color="#3b464e"/></linearGradient><linearGradient id="j"><stop offset="0" stop-color="#6a618d"/><stop offset="1" stop-color="#5f81b6"/></linearGradient><linearGradient id="i"><stop offset="0" stop-color="#6e6492"/><stop offset="1" stop-color="#6688ba"/></linearGradient><linearGradient id="h"><stop offset="0" stop-color="#fff" stop-opacity=".368"/><stop offset="1" stop-color="#fff" stop-opacity=".289"/></linearGradient><linearGradient id="g"><stop offset="0" stop-color="#dedede"/><stop offset="1" stop-color="#cfcfcf"/></linearGradient><linearGradient id="e"><stop offset="0" stop-color="#093adc" stop-opacity=".325"/><stop offset=".514" stop-color="#621fed" stop-opacity=".099"/><stop offset="1" stop-color="#b707ff" stop-opacity=".45"/></linearGradient><linearGradient id="f"><stop offset="0" stop-color="#093adc" stop-opacity=".55"/><stop offset=".511" stop-color="#611fed" stop-opacity=".183"/><stop offset="1" stop-color="#b707ff" stop-opacity=".33"/></linearGradient><linearGradient id="d"><stop offset="0" stop-color="#fff" stop-opacity=".322"/><stop offset="1" stop-color="#fff" stop-opacity=".217"/></linearGradient><linearGradient id="a"><stop offset="0" stop-color="#9081c4"/><stop offset="1" stop-color="#8baddf"/></linearGradient><linearGradient id="b"><stop offset="0" stop-color="#9751de"/><stop offset="1" stop-color="#3c87f8"/></linearGradient><linearGradient id="c"><stop offset="0" stop-color="#eaf03f" stop-opacity=".422"/><stop offset="1" stop-color="#4e79e6" stop-opacity=".416"/></linearGradient><linearGradient xlink:href="#b" id="r" x1="212.945" y1="123.216" x2="298.799" y2="196.784" gradientUnits="userSpaceOnUse" gradientTransform="matrix(.6628 0 0 .63543 -89.608 -22.94)"/><linearGradient xlink:href="#c" id="s" gradientUnits="userSpaceOnUse" gradientTransform="matrix(.6628 0 0 .63543 -89.608 -22.94)" x1="295.139" y1="128.574" x2="216.105" y2="194.162"/><linearGradient x2="1" gradientUnits="userSpaceOnUse" gradientTransform="scale(37.65896) rotate(-88.059 4.182 .033)" id="t"><stop offset="0" stop-color="#888c8f"/><stop offset=".062" stop-color="#888c8f"/><stop offset=".677" stop-color="#fff"/><stop offset=".971" stop-color="#c5c7c6"/><stop offset="1" stop-color="#c5c7c6"/></linearGradient><linearGradient x1="-.006" y1=".936" x2="1.249" y2="-.572" gradientUnits="userSpaceOnUse" gradientTransform="rotate(-88.059 163.826 7.503) scale(35.6457)" id="u"><stop offset="0" stop-color="#636869"/><stop offset=".119" stop-color="#a4a8aa"/><stop offset=".177" stop-color="#c6c9ca"/><stop offset=".265" stop-color="#b7babb"/><stop offset=".501" stop-color="#d8d8d8"/><stop offset=".642" stop-color="#cfd0d0"/><stop offset=".73" stop-color="#c9d9d9"/><stop offset=".84" stop-color="#cbcccc"/><stop offset=".971" stop-color="#dadbdb"/><stop offset="1" stop-color="#dbdddc"/></linearGradient><linearGradient x1=".297" y1="-.219" x2=".827" y2=".252" gradientUnits="userSpaceOnUse" gradientTransform="scale(36.36815) rotate(18.09 -11.34 17.011)" id="l"><stop offset="0" stop-color="#cdc9c1"/><stop offset=".181" stop-color="#f4f3f1"/><stop offset=".492" stop-color="#b8b8b8"/><stop offset=".931" stop-color="#efeeeb"/><stop offset="1" stop-color="#fff"/></linearGradient><linearGradient x2="1" gradientUnits="userSpaceOnUse" gradientTransform="scale(-25.52501 25.52501) rotate(21.485 -18.377 -13.86)" id="m"><stop offset="0" stop-color="#888c8f"/><stop offset=".062" stop-color="#888c8f"/><stop offset=".677" stop-color="#fff"/><stop offset=".971" stop-color="#c5c7c6"/><stop offset="1" stop-color="#c5c7c6"/></linearGradient><linearGradient x1=".204" y1=".178" x2=".988" y2="-.108" gradientUnits="userSpaceOnUse" gradientTransform="scale(69.4056) rotate(-71.943 2.912 -.084)" id="n"><stop offset="0" stop-color="#a1a5a7"/><stop offset=".052" stop-color="#aeb1b3"/><stop offset=".178" stop-color="#d9dbdc"/><stop offset=".499" stop-color="#dcdfdf"/><stop offset=".677" stop-color="#fff"/><stop offset=".971" stop-color="#c5c7c6"/><stop offset="1" stop-color="#c5c7c6"/></linearGradient><linearGradient x1=".292" y1="-.05" x2=".949" y2="-.086" gradientUnits="userSpaceOnUse" gradientTransform="scale(36.36778 -36.36778) rotate(-68.481 -1.174 -5.63)" id="o"><stop offset="0" stop-color="#dcd9d4"/><stop offset=".019" stop-color="#dedcd7"/><stop offset=".402" stop-color="#c7d2d5"/><stop offset=".882" stop-color="#fbfbfa"/><stop offset="1" stop-color="#a7a093"/></linearGradient><linearGradient x2="1" gradientUnits="userSpaceOnUse" gradientTransform="scale(37.65896) rotate(-88.059 4.182 .033)" id="p"><stop offset="0" stop-color="#888c8f"/><stop offset=".062" stop-color="#888c8f"/><stop offset=".677" stop-color="#fff"/><stop offset=".971" stop-color="#c5c7c6"/><stop offset="1" stop-color="#c5c7c6"/></linearGradient><linearGradient x1="-.006" y1=".936" x2="1.249" y2="-.572" gradientUnits="userSpaceOnUse" gradientTransform="rotate(-88.059 163.826 7.503) scale(35.6457)" id="q"><stop offset="0" stop-color="#636869"/><stop offset=".119" stop-color="#a4a8aa"/><stop offset=".177" stop-color="#c6c9ca"/><stop offset=".265" stop-color="#b7babb"/><stop offset=".501" stop-color="#d8d8d8"/><stop offset=".642" stop-color="#cfd0d0"/><stop offset=".73" stop-color="#c9d9d9"/><stop offset=".84" stop-color="#cbcccc"/><stop offset=".971" stop-color="#dadbdb"/><stop offset="1" stop-color="#dbdddc"/></linearGradient></defs><g transform="translate(-48 -48)"><rect ry="0" y="55" x="51" height="50" width="58" style="isolation:auto;mix-blend-mode:normal;marker:none" color="#000" display="block" overflow="visible" fill-opacity=".157" paint-order="fill markers stroke"/><path style="isolation:auto;mix-blend-mode:normal;marker:none" color="#000" display="block" overflow="visible" fill="url(#r)" paint-order="fill markers stroke" d="M52 56h56v48H52z"/><path style="isolation:auto;mix-blend-mode:normal;marker:none" color="#000" display="block" overflow="visible" fill="url(#s)" paint-order="fill markers stroke" d="M52 56h56v48H52z"/><path style="isolation:auto;mix-blend-mode:normal;marker:none" color="#000" display="block" overflow="visible" fill="none" stroke="#000" stroke-linecap="square" stroke-dasharray="6,6" stroke-dashoffset="10" stroke-opacity=".225" paint-order="markers stroke fill" d="M54.5 60.5h51v41h-51z"/><path style="isolation:auto;mix-blend-mode:normal;marker:none" color="#000" display="block" overflow="visible" fill="none" stroke="#e5e6e7" stroke-linecap="square" stroke-dasharray="6,6" stroke-dashoffset="10" paint-order="markers stroke fill" d="M54.5 59.5h51v41h-51z"/><path d="M62.268 48l11.58 25.489L48 60.342l4.224 6.082s1.7 2.834 3.395 3.923c1.658 1.066 6.113 3.684 6.113 3.684l16.41 8.91.174.383s2.422 1.494 2.828 1.934c1.437 1.562 2.946 5.717 3.36 7.798.13.652-.024 2.54-.035 2.674a8.12 8.12 0 0 0-3.837 2.184c-3.185 3.234-3.126 8.45.127 11.65a8.26 8.26 0 0 0 5.47 2.373c2.448.303 4.998-.482 6.856-2.37 3.182-3.232 3.122-8.45-.13-11.65a8.366 8.366 0 0 0-.49-.436l-4.479-9.194 8.114 4.405c.133.172.266.344.415.508 3.055 3.39 8.266 3.68 11.636.644 1.97-1.775 2.865-4.292 2.666-6.755a8.257 8.257 0 0 0-2.127-5.558c-3.055-3.39-8.262-3.68-11.633-.643a8.125 8.125 0 0 0-2.351 3.739c-.133.005-2.028.075-2.673-.083-2.062-.504-6.145-2.197-7.642-3.703-.02-.02-.053-.065-.078-.095L75.339 62.32s-2.42-4.564-3.412-6.268c-1.013-1.742-3.769-3.565-3.769-3.565zm40.66 33.345a6.387 6.387 0 0 1 4.401 2.11 6.373 6.373 0 0 1 1.617 3.72 6.304 6.304 0 0 1-2.083 4.596c-2.603 2.346-6.625 2.123-8.985-.497-.387-.43-.698-.9-.949-1.39l-.406-.994a6.385 6.385 0 0 1-.263-1.32 6.305 6.305 0 0 1 6.667-6.225zm-15.806 16.06c.074 0 .148.007.223.01.443.06.88.167 1.306.321l.976.45c.478.27.932.601 1.343 1.006 2.514 2.475 2.558 6.503.101 9a6.302 6.302 0 0 1-4.69 1.877 6.375 6.375 0 0 1-3.64-1.78c-2.513-2.473-2.557-6.5-.098-9a6.304 6.304 0 0 1 4.48-1.884z" fill="#1e1d1d" fill-opacity=".473"/><path d="M178.47 163.07c-2.997-.57-8.982-2.694-11.242-4.743-.637-.575-2.81-4.04-2.81-4.04l-50.936-22.658 6.514 8.412s2.651 3.94 5.165 5.375c2.46 1.406 9.047 4.83 9.047 4.83l54.45 25.998-6.238-13.263s-2.98.273-3.95.09" fill="url(#t)" transform="rotate(1.491 1067.65 -903.813) scale(.66194)"/><path d="M134.425 149.791c-.05-.026-6.59-3.428-9.013-4.813-2.385-1.362-4.972-5.18-4.997-5.219l-5.307-6.854 48.964 21.782c.445.702 2.2 3.456 2.817 4.014 2.281 2.068 8.326 4.262 11.485 4.865.84.16 2.887.018 3.74-.051l5.485 11.665-53.174-25.389" fill="url(#u)" transform="rotate(1.491 1067.65 -903.813) scale(.66194)"/><path d="M106.496 90.08c-2.417 2.294-6.247 2.182-8.556-.25-2.31-2.433-2.222-6.263.195-8.558 2.418-2.296 6.247-2.183 8.556.25 2.31 2.432 2.223 6.261-.195 8.558zm-9.593-10.105c-3.128 2.97-3.241 7.931-.253 11.079 2.989 3.148 7.95 3.295 11.079.325 3.13-2.971 3.24-7.933.25-11.08-2.988-3.149-7.946-3.295-11.076-.324" fill="#6c6a6a"/><path d="M200.289 172.333c-3.56 3.56-9.348 3.54-12.931-.042-3.583-3.583-3.602-9.37-.042-12.93 3.563-3.563 9.35-3.545 12.933.038 3.584 3.583 3.602 9.37.04 12.934zm-14.883-14.883c-4.608 4.608-4.584 12.104.052 16.74 4.637 4.637 12.136 4.664 16.744.056 4.61-4.61 4.581-12.107-.056-16.744-4.636-4.636-12.13-4.662-16.74-.052" fill="url(#l)" stroke="#7d7569" stroke-width=".21" transform="rotate(1.491 1067.65 -903.813) scale(.66194)"/><path d="M86.79 80.984l-2.792-1.616-8.655-6.145-2.194-1.031 3.442 8.336 13.077 6.677z" fill-opacity=".253" fill-rule="evenodd"/><path d="M168.302 175.846c-.75-2.956-3.226-8.805-5.405-10.938-.614-.602-4.201-2.565-4.201-2.565l-25.663-49.49 8.787 6.002s4.09 2.41 5.675 4.834c1.55 2.371 5.362 8.74 5.362 8.74l29.205 52.8-13.612-5.433s.095-2.992-.148-3.95" fill="url(#m)" transform="rotate(1.491 1067.65 -903.813) scale(.66194)"/><path d="M168.964 179.458c.018-.856.037-2.91-.173-3.737-.79-3.117-3.341-9.02-5.541-11.174-.595-.583-3.448-2.17-4.177-2.573l-24.668-47.573 7.13 4.87c.068.043 4.037 2.398 5.538 4.693 1.525 2.336 5.313 8.66 5.35 8.726l28.513 51.547-11.972-4.779" fill="url(#n)" transform="rotate(1.491 1067.65 -903.813) scale(.66194)"/><path d="M83.928 105.74c-2.45-2.29-2.592-6.118-.316-8.555 2.276-2.434 6.106-2.55 8.557-.261 2.45 2.29 2.592 6.12.317 8.554-2.277 2.436-6.107 2.554-8.558.262zm-1.212 1.298c3.171 2.965 8.13 2.816 11.078-.338 2.945-3.152 2.76-8.111-.412-11.075-3.171-2.964-8.13-2.811-11.075.34-2.947 3.154-2.762 8.11.409 11.073" fill="#6c6a6a"/><path d="M165.94 197.807c-3.791-3.363-4.155-9.141-.812-12.908 3.34-3.765 9.12-4.094 12.91-.732 3.792 3.364 4.154 9.14.815 12.906-3.342 3.77-9.122 4.096-12.912.734zm-1.78 2.007c4.907 4.352 12.39 3.934 16.717-.946 4.324-4.877 3.85-12.358-1.057-16.71-4.906-4.351-12.387-3.927-16.712.948-4.329 4.878-3.853 12.357 1.053 16.708" fill="url(#o)" stroke="#7d7569" stroke-width=".21" transform="rotate(1.491 1067.65 -903.813) scale(.66194)"/><path d="M82.776 79.111a1.603 1.603 0 1 1-3.17.475 1.603 1.603 0 0 1 3.17-.475" fill="#9e9e9e" stroke="#000" stroke-width=".28397226" stroke-opacity=".577"/><path d="M81.612 80.372l-.328-2.187h-.002l-.444.062.33 2.197.444-.073" fill="#373636"/></g></svg>