<svg xmlns="http://www.w3.org/2000/svg" xmlns:xlink="http://www.w3.org/1999/xlink" height="64" viewBox="0 0 64 64" width="64" enable-background="new"><title>Template icons dark</title><defs><linearGradient id="d"><stop offset="0" stop-color="#d4d4d4"/><stop offset="1" stop-color="#fbfbfb"/></linearGradient><linearGradient id="a"><stop offset="0" stop-color="#9a9a9a" stop-opacity=".973"/><stop offset="1" stop-color="#f4f4f4"/></linearGradient><linearGradient id="b"><stop offset="0" stop-color="#825cf4"/><stop offset="1" stop-color="#3958ef"/></linearGradient><linearGradient id="c"><stop offset="0" stop-color="#eaf2f7"/><stop offset="1" stop-color="#99b4c0"/></linearGradient><linearGradient gradientTransform="matrix(.5 0 0 .5 -56 -57.5)" xlink:href="#d" id="h" x1="276.22" y1="292" x2="276.22" y2="276.22" gradientUnits="userSpaceOnUse"/><linearGradient gradientTransform="translate(49.626 43.91) scale(1.2656)" xlink:href="#b" id="g" x1="23.375" y1="41.2" x2="23.375" y2="13.95" gradientUnits="userSpaceOnUse"/><linearGradient xlink:href="#b" id="f" gradientUnits="userSpaceOnUse" x1="23.375" y1="41.2" x2="23.375" y2="13.95" gradientTransform="translate(36.246 55.564) scale(1.2656)"/><filter id="e" x="-.021" width="1.042" y="-.028" height="1.055" color-interpolation-filters="sRGB"><feGaussianBlur stdDeviation=".423"/></filter></defs><g color="#000" transform="translate(-48 -48)"><rect style="isolation:auto;mix-blend-mode:normal;marker:none" width="44" height="30" x="-3.249" y="17.533" rx="0" ry="1.515" transform="rotate(-9.77 281.688 -268.365) scale(1.2656)" overflow="visible" fill-opacity=".157" filter="url(#e)" enable-background="accumulate"/><rect transform="rotate(-9.77)" ry="1.918" rx="0" y="71.789" x="37.704" height="37.968" width="55.686" style="isolation:auto;mix-blend-mode:normal;marker:none" overflow="visible" fill="#fff" stroke="#000" stroke-width=".656" stroke-opacity=".157" enable-background="accumulate"/><rect transform="rotate(-9.09)" style="isolation:auto;mix-blend-mode:normal;marker:none" width="53.155" height="35.437" x="40.042" y="72.27" ry="0" overflow="visible" fill="url(#f)" enable-background="accumulate"/><rect style="isolation:auto;mix-blend-mode:normal;marker:none" width="55.686" height="37.968" x="52.157" y="59.349" rx="0" ry="1.918" overflow="visible" fill="#fff" stroke="#000" stroke-width=".656" stroke-opacity=".157" enable-background="accumulate"/><rect ry="0" y="60.615" x="53.422" height="35.437" width="53.155" style="isolation:auto;mix-blend-mode:normal;marker:none" overflow="visible" fill="url(#g)" enable-background="accumulate"/><path style="isolation:auto;mix-blend-mode:normal;marker:none" d="M74.768 61.62l.297.846-.9-.023.882.166-.471.769.583-.68.432.792-.297-.847.901.024-.883-.167.472-.768-.583.68zm10.078.594l.297.843-.9-.02.88.164-.47.77.584-.682.432.792-.297-.847.901.024-.882-.164.471-.771-.586.682zm9.899 1.184l.297.847-.901-.024.882.167-.47.768.585-.68.43.792-.297-.846.9.02-.88-.163.47-.769-.584.68zm5.453.178l.3.846-.902-.024.88.167-.47.768.585-.68.43.792-.297-.846.901.023-.88-.166.469-.768-.584.68zm-40.544.658l.843 2.401-2.557-.062 2.503.469-1.336 2.185 1.659-1.933 1.224 2.248-.847-2.404 2.56.065-2.502-.469 1.335-2.185-1.658 1.933zm12.565 1.771l.3.847-.902-.021.88.164-.471.768.586-.68.43.792-.297-.846.9.023-.88-.167.47-.768-.584.68zM83.52 67.56l-6.06 5.724c-1.945 1.174-.54 1.846.281.174l5.862-5.81zm.388 3.042l-6.06 5.724c-1.749 1.744-.4 1.371.281.174l5.862-5.81z" display="block" overflow="visible" fill="#fff" fill-opacity=".335" enable-background="accumulate"/><path style="isolation:auto;mix-blend-mode:normal;marker:none" d="M78.1 63.498c-.264 0-.41.209-.476.45l-1.004 3.689c-.78.233-1.528.54-2.232.921l-3.321-1.91c-.217-.125-.469-.168-.655.018l-2.718 2.718c-.186.186-.142.433-.018.65l1.878 3.285a11.92 11.92 0 0 0-.977 2.284l-3.63.978c-.24.064-.45.212-.45.475v3.845c0 .263.21.407.45.473l3.55.967c.238.837.567 1.645.98 2.41l-1.83 3.182c-.124.217-.167.469.019.655l2.718 2.718c.186.186.433.142.65.018l3.14-1.799c.78.434 1.607.78 2.464 1.029l.943 3.498c.064.241.212.45.475.45h3.845c.263 0 .407-.209.473-.45l.954-3.501c.846-.25 1.661-.594 2.431-1.023l3.174 1.825c.217.124.469.167.655-.019l2.718-2.718c.186-.186.142-.436.018-.653l-1.842-3.212c.4-.749.72-1.54.952-2.356l3.618-.978c.241-.065.45-.21.45-.473v-3.845c0-.263-.209-.41-.45-.475l-3.68-.999c-.006-.022-.016-.042-.023-.064a11.792 11.792 0 0 0-.906-2.175l1.91-3.32c.124-.216.167-.466-.019-.652l-2.717-2.718c-.187-.186-.437-.144-.654-.02l-3.313 1.9a11.795 11.795 0 0 0-2.235-.931l-.998-3.697c-.065-.241-.21-.449-.473-.449h-3.845zM80 76c1.668 0 3 1.332 3 3 0 1.666-1.332 3-3 3-1.666 0-3-1.334-3-3 0-1.668 1.334-3 3-3z" overflow="visible" fill-opacity=".141" paint-order="fill markers stroke" enable-background="accumulate"/><path d="M78.291 65.064c-.236 0-.368.188-.427.404l-.903 3.317c-.7.21-1.373.486-2.006.828l-2.986-1.718c-.194-.112-.42-.15-.588.017l-2.444 2.443c-.167.167-.127.39-.016.585l1.689 2.953c-.364.652-.658 1.34-.88 2.053l-3.262.879c-.216.058-.404.191-.404.428v3.456c0 .236.188.366.404.425l3.191.87c.214.752.51 1.479.882 2.166l-1.646 2.86c-.112.195-.15.422.017.59l2.443 2.443c.167.167.39.127.585.016l2.823-1.617c.701.39 1.444.7 2.215.924l.847 3.146c.058.216.191.404.428.404h3.456c.236 0 .366-.188.425-.404l.858-3.148c.76-.225 1.493-.534 2.185-.92l2.854 1.64c.194.113.42.151.588-.016l2.444-2.443c.167-.167.127-.392.016-.587l-1.656-2.888c.36-.673.647-1.384.856-2.118l3.253-.88c.216-.058.404-.188.404-.425v-3.456c0-.236-.188-.368-.404-.427l-3.309-.898c-.006-.02-.015-.038-.02-.057a10.601 10.601 0 0 0-.815-1.956l1.717-2.984c.112-.194.15-.42-.017-.587l-2.443-2.443c-.167-.168-.392-.13-.587-.018l-2.98 1.707a10.603 10.603 0 0 0-2.008-.836l-.897-3.324c-.059-.216-.19-.403-.426-.403h-3.456zm1.71 9.735c2.335 0 4.2 1.865 4.2 4.2a4.183 4.183 0 0 1-4.2 4.202A4.185 4.185 0 0 1 75.8 79c0-2.335 1.868-4.2 4.202-4.2z" style="isolation:auto;mix-blend-mode:normal;marker:none" overflow="visible" fill="url(#h)" paint-order="fill markers stroke" enable-background="accumulate"/></g></svg>