<svg xmlns="http://www.w3.org/2000/svg" xmlns:xlink="http://www.w3.org/1999/xlink" height="64" viewBox="0 0 64 64" width="64"><title>Template icons dark</title><defs><linearGradient id="d"><stop offset="0" stop-color="#e6e223" stop-opacity="0"/><stop offset="1" stop-color="#f99500" stop-opacity=".598"/></linearGradient><linearGradient id="c"><stop offset="0" stop-color="#cdcdcd"/><stop offset="1" stop-color="#fff"/></linearGradient><linearGradient id="b"><stop offset="0" stop-color="#fff" stop-opacity=".427"/><stop offset=".423" stop-color="#fafcfe"/><stop offset="1" stop-color="#fff" stop-opacity=".49"/></linearGradient><linearGradient id="a"><stop offset="0" stop-color="#322461"/><stop offset="1" stop-color="#6d2fd8"/></linearGradient><linearGradient xlink:href="#a" id="e" x1="37.702" y1="34.889" x2="-2.538" y2="12.087" gradientUnits="userSpaceOnUse" gradientTransform="matrix(1.49104 0 0 1.49104 46.452 41.978)"/><linearGradient xlink:href="#d" id="f" gradientUnits="userSpaceOnUse" gradientTransform="matrix(1.49104 0 0 1.49104 46.452 41.978)" x1="25.908" y1="26.373" x2="3.094" y2="26.373"/><linearGradient gradientTransform="matrix(.66667 0 0 .66667 -26.667 -26.667)" xlink:href="#c" id="g" x1="161.772" y1="204" x2="161.772" y2="113" gradientUnits="userSpaceOnUse"/></defs><g color="#000"><path style="isolation:auto;mix-blend-mode:normal;marker:none" d="M64 32a32 32 0 0 1-32 32A32 32 0 0 1 0 32 32 32 0 0 1 32 0a32 32 0 0 1 32 32z" display="block" overflow="visible" fill-opacity=".058"/><path style="isolation:auto;mix-blend-mode:normal;marker:none" d="M110.667 80A30.667 30.667 0 0 1 80 110.667 30.667 30.667 0 0 1 49.333 80 30.667 30.667 0 0 1 80 49.333 30.667 30.667 0 0 1 110.667 80z" display="block" overflow="visible" fill="url(#e)" transform="translate(-48 -48)"/><path d="M110.667 80A30.667 30.667 0 0 1 80 110.667 30.667 30.667 0 0 1 49.333 80 30.667 30.667 0 0 1 80 49.333 30.667 30.667 0 0 1 110.667 80z" style="isolation:auto;mix-blend-mode:normal;marker:none" overflow="visible" fill="url(#f)" transform="translate(-48 -48)"/><path style="isolation:auto;mix-blend-mode:normal;marker:none" d="M4 19h55.759v6H4z" display="block" overflow="visible" fill="#fff" fill-opacity=".442" paint-order="fill markers stroke"/><path style="isolation:auto;mix-blend-mode:normal;marker:none" d="M4 24h55.759v1H4z" display="block" overflow="visible" fill="#fff" fill-opacity=".821" paint-order="fill markers stroke"/><path style="isolation:auto;mix-blend-mode:normal;marker:none" d="M4 25h55.759v1H4z" display="block" overflow="visible" fill-opacity=".179" paint-order="fill markers stroke"/><path style="isolation:auto;mix-blend-mode:normal;marker:none" d="M4 29h55.759v6H4z" display="block" overflow="visible" fill="#fff" fill-opacity=".442" paint-order="fill markers stroke"/><path style="isolation:auto;mix-blend-mode:normal;marker:none" d="M4 34h55.759v1H4z" display="block" overflow="visible" fill="#fff" fill-opacity=".821" paint-order="fill markers stroke"/><path style="isolation:auto;mix-blend-mode:normal;marker:none" d="M4 35h55.759v1H4z" display="block" overflow="visible" fill-opacity=".179" paint-order="fill markers stroke"/><path style="isolation:auto;mix-blend-mode:normal;marker:none" d="M5.12 39H59v6H5.12z" display="block" overflow="visible" fill="#fff" fill-opacity=".442" paint-order="fill markers stroke"/><path style="isolation:auto;mix-blend-mode:normal;marker:none" d="M5 44h53v1H5z" display="block" overflow="visible" fill="#fff" fill-opacity=".821" paint-order="fill markers stroke"/><path style="isolation:auto;mix-blend-mode:normal;marker:none" d="M6 45h52v1H6z" display="block" overflow="visible" fill-opacity=".179" paint-order="fill markers stroke"/><path style="isolation:auto;mix-blend-mode:normal;marker:none" d="M60.057 32.748A28.057 28.057 0 0 1 32 60.805 28.057 28.057 0 0 1 3.943 32.748 28.057 28.057 0 0 1 32 4.69a28.057 28.057 0 0 1 28.057 28.058z" overflow="visible" fill="none" stroke="#050505" stroke-width="1.119" stroke-linejoin="round" stroke-opacity=".458"/><path style="isolation:auto;mix-blend-mode:normal;marker:none" d="M60.057 31.838A28.057 28.057 0 0 1 32 59.895 28.057 28.057 0 0 1 3.943 31.838 28.057 28.057 0 0 1 32 3.781a28.057 28.057 0 0 1 28.057 28.057z" overflow="visible" fill="none" stroke="#fff" stroke-width="1.119" stroke-linejoin="round"/><path style="isolation:auto;mix-blend-mode:normal;marker:none" d="M109.337 80A29.337 29.337 0 0 1 80 109.337 29.337 29.337 0 0 1 50.663 80 29.337 29.337 0 0 1 80 50.663 29.337 29.337 0 0 1 109.337 80z" overflow="visible" fill="none" stroke="url(#g)" stroke-width="2.66" stroke-linejoin="round" transform="translate(-48 -48)"/></g></svg>