<svg xmlns="http://www.w3.org/2000/svg" xmlns:xlink="http://www.w3.org/1999/xlink" height="64" viewBox="0 0 64 64" width="64"><title>Template icons dark</title><defs><linearGradient id="c"><stop offset="0" stop-color="#efefef" stop-opacity=".478"/><stop offset="1" stop-color="#efefef" stop-opacity="0"/></linearGradient><linearGradient id="b"><stop offset="0" stop-color="#ff053c"/><stop offset="1" stop-color="#0b31ff" stop-opacity=".974"/></linearGradient><linearGradient id="a"><stop offset="0" stop-color="#86dceb"/><stop offset="1" stop-color="#4bb7df"/></linearGradient><linearGradient xlink:href="#c" id="f" x1="160.849" y1="166.43" x2="160.849" y2="155.944" gradientUnits="userSpaceOnUse" gradientTransform="translate(-42.896 -42.896) scale(.7681)"/><linearGradient gradientTransform="translate(-28.936 -28.936) scale(.68085)" xlink:href="#b" id="e" x1="122" y1="183" x2="196" y2="142" gradientUnits="userSpaceOnUse"/><linearGradient xlink:href="#a" id="d" x1="24.535" y1="7.996" x2="24.705" y2="38.25" gradientUnits="userSpaceOnUse" gradientTransform="matrix(1.45095 0 0 1.45095 45.059 42.915)"/></defs><g color="#000" transform="translate(-48 -48)"><circle style="isolation:auto;mix-blend-mode:normal;marker:none" cx="80" cy="80" r="32" display="block" overflow="visible" fill-opacity=".157"/><circle style="isolation:auto;mix-blend-mode:normal;marker:none" cx="80" cy="80" r="30.303" overflow="visible" fill="url(#d)" stroke="#fff" stroke-width="1.689"/><circle r="30.303" cy="80" cx="80" style="isolation:auto;mix-blend-mode:normal;marker:none" overflow="visible" opacity=".109" fill="url(#e)" stroke="#fff" stroke-width="1.689"/><circle r="5.818" cy="80" cx="80" style="isolation:auto;mix-blend-mode:normal;marker:none" overflow="visible" fill="url(#f)"/><circle style="isolation:auto;mix-blend-mode:normal;marker:none" cx="80" cy="80" r="25.066" overflow="visible" fill="none" stroke="#fff" stroke-width=".892" stroke-dasharray=".89191489,3.56765957" stroke-opacity=".368"/><circle style="isolation:auto;mix-blend-mode:normal;marker:none" cx="80" cy="80" r="3.219" overflow="visible" fill="#fff" paint-order="markers stroke fill"/><circle style="isolation:auto;mix-blend-mode:normal;marker:none" cx="80.712" cy="60.397" r="2.792" overflow="visible" fill="#fff" fill-opacity=".989" paint-order="markers stroke fill"/><circle r="1.38" cy="60.397" cx="80.712" style="isolation:auto;mix-blend-mode:normal;marker:none" overflow="visible" fill="#77c5e8" paint-order="markers stroke fill"/><circle style="isolation:auto;mix-blend-mode:normal;marker:none" cx="62.721" cy="87.924" r="2.792" overflow="visible" fill="#fff" fill-opacity=".989" paint-order="markers stroke fill"/><circle r="1.38" cy="87.924" cx="62.721" style="isolation:auto;mix-blend-mode:normal;marker:none" overflow="visible" fill="#64add5" paint-order="markers stroke fill"/><circle style="isolation:auto;mix-blend-mode:normal;marker:none" cx="96.833" cy="89.586" r="2.792" overflow="visible" fill="#fff" fill-opacity=".989" paint-order="markers stroke fill"/><circle r="1.38" cy="89.586" cx="96.833" style="isolation:auto;mix-blend-mode:normal;marker:none" overflow="visible" fill="#54afe0" paint-order="markers stroke fill"/><path style="isolation:auto;mix-blend-mode:normal;marker:none" d="M109.472 78.92A29.486 30.303 0 0 1 80 108.941a29.486 30.303 0 0 1-29.472-29.904 29.486 30.303 0 0 0-.014.282A29.486 30.303 0 0 0 80 109.622a29.486 30.303 0 0 0 29.486-30.303 29.486 30.303 0 0 0-.014-.399z" overflow="visible" fill-opacity=".297"/><path d="M109.608 81.274A29.622 30.303 0 0 0 80 51.254a29.622 30.303 0 0 0-29.608 29.903 29.622 30.303 0 0 1-.015-.282A29.622 30.303 0 0 1 80 50.572a29.622 30.303 0 0 1 29.623 30.303 29.622 30.303 0 0 1-.015.4z" style="isolation:auto;mix-blend-mode:normal;marker:none" overflow="visible" fill="#242424" fill-opacity=".471"/><path style="isolation:auto;mix-blend-mode:normal;marker:none" d="M94.873 90.803a19.187 9.66 26.792 0 1-18.74-2.163 19.187 9.66 26.792 0 1-13.567-13.683 19.187 9.66 26.792 0 1 9.324-7.332" overflow="visible" fill="none" stroke="#fff" stroke-width="1.205" stroke-linecap="round" stroke-miterlimit="3.7" stroke-opacity=".984" paint-order="markers stroke fill"/><path style="isolation:auto;mix-blend-mode:normal;marker:none" d="M62.842 85.483a19.187 9.66-29.658 0 1 11.935-13.747 19.187 9.66-29.658 0 1 18.272-4.11 19.187 9.66-29.658 0 1 2.827 10.426" overflow="visible" fill="none" stroke="#fff" stroke-width="1.205" stroke-linecap="round" stroke-miterlimit="3.7" stroke-opacity=".984" paint-order="markers stroke fill"/><path style="isolation:auto;mix-blend-mode:normal;marker:none" d="M83.213 61.505a9.66 19.187 1.017 0 1 6.545 17.886 9.66 19.187 1.017 0 1-6.618 18.47 9.66 19.187 1.017 0 1-10.768-6.101" overflow="visible" fill="none" stroke="#fff" stroke-width="1.205" stroke-linecap="round" stroke-miterlimit="3.7" stroke-opacity=".984" paint-order="markers stroke fill"/></g></svg>