<svg xmlns="http://www.w3.org/2000/svg" xmlns:xlink="http://www.w3.org/1999/xlink" height="64" viewBox="0 0 64 64" width="64" enable-background="new"><title>Template icons dark</title><defs><linearGradient id="a"><stop offset="0" stop-color="#9a9a9a" stop-opacity=".973"/><stop offset="1" stop-color="#f4f4f4"/></linearGradient><linearGradient id="b"><stop offset="0" stop-color="#f598f8"/><stop offset="1" stop-color="#398bef"/></linearGradient><linearGradient xlink:href="#b" id="d" gradientUnits="userSpaceOnUse" x1="23.375" y1="41.2" x2="23.375" y2="13.95" gradientTransform="translate(36.246 55.564) scale(1.2656)"/><linearGradient gradientTransform="translate(49.626 43.91) scale(1.2656)" xlink:href="#b" id="e" x1="23.375" y1="41.2" x2="23.375" y2="13.95" gradientUnits="userSpaceOnUse"/><filter id="c" x="-.021" width="1.042" y="-.028" height="1.055" color-interpolation-filters="sRGB"><feGaussianBlur stdDeviation=".423"/></filter></defs><g color="#000" transform="translate(-48 -48)"><rect style="isolation:auto;mix-blend-mode:normal;marker:none" width="44" height="30" x="-3.249" y="17.533" rx="0" ry="1.515" transform="rotate(-9.77 281.69 -268.364) scale(1.2656)" overflow="visible" fill-opacity=".157" filter="url(#c)" enable-background="accumulate"/><rect transform="rotate(-9.77)" ry="1.918" rx="0" y="71.789" x="37.704" height="37.968" width="55.686" style="isolation:auto;mix-blend-mode:normal;marker:none" overflow="visible" fill="#fff" stroke="#000" stroke-width=".656" stroke-opacity=".157" enable-background="accumulate"/><rect transform="rotate(-9.09)" style="isolation:auto;mix-blend-mode:normal;marker:none" width="53.155" height="35.437" x="40.042" y="72.27" ry="0" overflow="visible" fill="url(#d)" enable-background="accumulate"/><rect style="isolation:auto;mix-blend-mode:normal;marker:none" width="55.686" height="37.968" x="52.157" y="59.349" rx="0" ry="1.918" overflow="visible" fill="#fff" stroke="#000" stroke-width=".656" stroke-opacity=".157" enable-background="accumulate"/><rect ry="0" y="60.615" x="53.422" height="35.437" width="53.155" style="isolation:auto;mix-blend-mode:normal;marker:none" overflow="visible" fill="url(#e)" enable-background="accumulate"/><path d="M89.785 75.745l16.793 12.239v8.068l-46.135-.084z" style="isolation:auto;mix-blend-mode:normal;marker:none" overflow="visible" fill="#fff" enable-background="accumulate"/><path style="isolation:auto;mix-blend-mode:normal;marker:none" d="M69.39 80.092l15.122 14.077 22.066 1.883H53.422z" overflow="visible" fill="#fff" fill-opacity=".34" enable-background="accumulate"/><path style="isolation:auto;mix-blend-mode:normal;marker:none" d="M74.768 61.62l.297.846-.9-.023.882.166-.471.769.583-.68.432.792-.297-.847.901.024-.883-.167.472-.768-.583.68zm10.078.594l.297.843-.9-.02.88.164-.47.77.584-.682.432.792-.297-.847.901.024-.882-.164.471-.771-.586.682zm9.899 1.184l.297.847-.901-.024.882.167-.47.768.585-.68.43.792-.297-.846.9.02-.88-.163.47-.769-.584.68zm5.453.178l.3.846-.902-.024.88.167-.47.768.585-.68.43.792-.297-.846.901.023-.88-.166.469-.768-.584.68zm-40.544.658l.843 2.401-2.557-.062 2.503.469-1.336 2.185 1.659-1.933 1.224 2.248-.847-2.404 2.56.065-2.502-.469 1.335-2.185-1.658 1.933zm12.565 1.771l.3.847-.902-.021.88.164-.471.768.586-.68.43.792-.297-.846.9.023-.88-.167.47-.768-.584.68zM83.52 67.56l-6.06 5.724c-1.945 1.174-.54 1.846.281.174l5.862-5.81zm.388 3.042l-6.06 5.724c-1.749 1.744-.4 1.371.281.174l5.862-5.81z" display="block" overflow="visible" fill="#fff" fill-opacity=".335" enable-background="accumulate"/></g></svg>