<svg xmlns="http://www.w3.org/2000/svg" xmlns:xlink="http://www.w3.org/1999/xlink" height="64" viewBox="0 0 64 64" width="64"><title>Template icons dark</title><defs><linearGradient id="j"><stop offset="0" stop-color="#030303" stop-opacity=".151"/><stop offset="1" stop-color="#030303" stop-opacity=".161"/></linearGradient><linearGradient id="h"><stop offset="0" stop-color="#030303" stop-opacity=".203"/><stop offset="1" stop-color="#030303" stop-opacity=".161"/></linearGradient><linearGradient id="i"><stop offset="0" stop-opacity="0"/><stop offset="1" stop-opacity=".094"/></linearGradient><linearGradient id="g"><stop offset="0" stop-opacity="0"/><stop offset="1" stop-opacity=".052"/></linearGradient><linearGradient id="f"><stop offset="0" stop-color="#e6e6e6"/><stop offset="1" stop-color="#fff"/></linearGradient><linearGradient id="e"><stop offset="0" stop-color="#030303" stop-opacity=".135"/><stop offset=".402" stop-color="#030303" stop-opacity=".25"/><stop offset="1" stop-color="#030303" stop-opacity="0"/></linearGradient><linearGradient id="d"><stop offset="0" stop-opacity=".078"/><stop offset="1" stop-opacity="0"/></linearGradient><linearGradient id="c"><stop offset="0" stop-color="#fff"/><stop offset="1" stop-color="#e7e7e7"/></linearGradient><linearGradient id="b"><stop offset="0" stop-color="#030303" stop-opacity=".078"/><stop offset="1" stop-color="#030303" stop-opacity=".161"/></linearGradient><linearGradient id="a"><stop offset="0" stop-color="#030303" stop-opacity=".182"/><stop offset="1" stop-color="#030303" stop-opacity="0"/></linearGradient><linearGradient xlink:href="#b" id="k" gradientUnits="userSpaceOnUse" x1="160" y1="162" x2="160" y2="124" gradientTransform="matrix(.70374 0 0 -.6909 -32.634 189.89)"/><linearGradient gradientTransform="matrix(.70374 0 0 .6909 -32.634 -31.89)" xlink:href="#f" id="l" x1="161" y1="187.457" x2="161" y2="165" gradientUnits="userSpaceOnUse"/><linearGradient gradientTransform="matrix(.70374 0 0 .6909 -32.634 -31.89)" xlink:href="#g" id="m" x1="160.063" y1="184" x2="160.063" y2="166.009" gradientUnits="userSpaceOnUse"/><linearGradient gradientTransform="matrix(.70374 0 0 .6909 -32.634 -31.89)" xlink:href="#b" id="o" gradientUnits="userSpaceOnUse" x1="160" y1="162" x2="160" y2="124"/><linearGradient gradientTransform="matrix(.70374 0 0 .6909 -32.634 -31.89)" xlink:href="#c" id="p" x1="160.063" y1="163" x2="160.063" y2="136" gradientUnits="userSpaceOnUse"/><linearGradient gradientTransform="matrix(.70374 0 0 .6909 -32.634 -31.89)" xlink:href="#d" id="q" x1="160.126" y1="160" x2="160.126" y2="136" gradientUnits="userSpaceOnUse"/><linearGradient gradientTransform="matrix(.70374 0 0 .6909 -32.634 -31.89)" xlink:href="#e" id="r" x1="146" y1="146" x2="177.071" y2="146" gradientUnits="userSpaceOnUse"/><linearGradient xlink:href="#b" id="n" gradientUnits="userSpaceOnUse" gradientTransform="matrix(.70374 0 0 .6909 -32.634 -31.89)" x1="160" y1="162" x2="160" y2="124"/></defs><path style="isolation:auto;mix-blend-mode:normal;marker:none" d="M0 11h64v40H0z" color="#000" display="block" overflow="visible" fill-opacity=".115" paint-order="fill markers stroke"/><path style="isolation:auto;mix-blend-mode:normal;marker:none" d="M1 12h61.929v38H1z" color="#000" overflow="visible" fill="#f2f2f2" paint-order="fill markers stroke"/><path style="isolation:auto;mix-blend-mode:normal;marker:none" d="M49 98h61.929v-1.398l-1.407-3.438-26.734-17.267s-1.965-1.388-2.824-1.388c-.964 0-2.809 1.378-2.809 1.378L50.407 93.164 49 96.618z" color="#000" overflow="visible" fill="url(#k)" paint-order="fill markers stroke" transform="translate(-48 -48)"/><path d="M49 98h61.929l-1.407-4.836-26.734-15.885s-1.965-1.388-2.824-1.388c-.964 0-2.809 1.377-2.809 1.377L50.407 93.164z" style="isolation:auto;mix-blend-mode:normal;marker:none" color="#000" display="block" overflow="visible" fill="url(#l)" paint-order="fill markers stroke" transform="translate(-48 -48)"/><path style="isolation:auto;mix-blend-mode:normal;marker:none" d="M51.815 96.618h56.299l-1.407-3.454-23.919-13.121s-1.965-1.388-2.824-1.388c-.964 0-2.809 1.377-2.809 1.377L53.222 93.164z" color="#000" overflow="visible" fill="url(#m)" paint-order="fill markers stroke" transform="translate(-48 -48)"/><path d="M49 60h61.929v1.398l-1.408 3.438-26.733 17.958s-1.965 1.388-2.824 1.388c-.964 0-2.809-1.378-2.809-1.378L50.407 64.836 49 61.382z" style="isolation:auto;mix-blend-mode:normal;marker:none" color="#000" display="block" overflow="visible" fill="url(#n)" paint-order="fill markers stroke" transform="translate(-48 -48)"/><path style="isolation:auto;mix-blend-mode:normal;marker:none" d="M49 60h61.929v1.398l-1.408 3.438-26.733 16.576S80.823 82.8 79.964 82.8c-.964 0-2.809-1.378-2.809-1.378L50.407 64.836 49 61.382z" color="#000" display="block" overflow="visible" fill="url(#o)" paint-order="fill markers stroke" transform="translate(-48 -48)"/><path style="isolation:auto;mix-blend-mode:normal;marker:none" d="M49 60h61.929l-1.408 4.836-26.733 15.885s-1.965 1.388-2.824 1.388c-.964 0-2.809-1.377-2.809-1.377L50.407 64.836z" color="#000" display="block" overflow="visible" fill="url(#p)" paint-order="fill markers stroke" transform="translate(-48 -48)"/><path d="M51.815 61.382h56.299l-1.407 3.454-23.919 13.121s-1.965 1.388-2.824 1.388c-.964 0-2.809-1.377-2.809-1.377L53.222 64.836z" style="isolation:auto;mix-blend-mode:normal;marker:none" color="#000" overflow="visible" fill="url(#q)" paint-order="fill markers stroke" transform="translate(-48 -48)"/><path d="M73.983 65.162c-2.647 0-4.797 2.111-4.797 4.71 0 2.597 2.15 4.709 4.797 4.709a4.817 4.817 0 0 0 3.993-2.106v.494s2.65-.613 4.003-.69c1.188-.068 2.019 1.344 3.596 1.422.95.047 2.619-1.961 3.533-1.892 1.049.08 1.944 1.253 2.758 1.455 1.327.327 2.296-.295 2.296-.295v-.68s-.912.588-2.275.46c-.796-.076-1.747-1.542-2.76-1.619-.927-.07-2.61 1.938-3.572 1.89-1.555-.075-2.36-1.487-3.532-1.422-1.307.074-3.695.613-3.914.663.168-.28.309-.577.416-.89.237-.054 2.571-.586 3.859-.66 1.187-.067 2.02 1.347 3.597 1.424.949.047 2.617-1.962 3.53-1.893 1.05.08 1.945 1.255 2.76 1.456 1.326.328 2.295-.295 2.295-.295v-.68s-.912.587-2.275.458c-.796-.075-1.747-1.54-2.76-1.618-.927-.07-2.61 1.938-3.572 1.891-1.555-.076-2.36-1.488-3.531-1.422-1.22.068-3.242.515-3.72.622.044-.255.072-.516.072-.783 0-.133-.01-.264-.021-.394.317-.072 2.542-.576 3.803-.648 1.188-.068 2.019 1.345 3.596 1.423.95.046 2.617-1.962 3.531-1.892 1.05.08 1.946 1.253 2.76 1.454 1.327.328 2.294-.294 2.294-.294v-.68s-.911.588-2.275.459c-.796-.075-1.745-1.541-2.758-1.618-.927-.07-2.612 1.938-3.574 1.89-1.554-.076-2.36-1.488-3.531-1.422-1.323.074-3.787.634-3.95.67a4.625 4.625 0 0 0-.51-1.281c.432-.098 2.492-.56 3.714-.629 1.187-.068 2.018 1.345 3.595 1.422.95.047 2.618-1.96 3.531-1.892 1.05.08 1.946 1.254 2.76 1.455 1.327.328 2.294-.294 2.294-.294v-.68s-.911.587-2.275.459c-.796-.076-1.745-1.541-2.758-1.618-.927-.07-2.611 1.937-3.574 1.89-1.554-.076-2.36-1.488-3.53-1.422-1.368.077-4.049.69-4.049.69v.182a4.815 4.815 0 0 0-3.87-1.94zm0 .437c2.406 0 4.351 1.91 4.351 4.272 0 2.363-1.945 4.272-4.351 4.272-2.407 0-4.352-1.91-4.352-4.272s1.945-4.272 4.352-4.272zm-.077.233a.423.423 0 0 0-.428.42c0 .232.192.42.428.42a.423.423 0 0 0 .427-.42.423.423 0 0 0-.427-.42zm.077 1.095c-1.655 0-3 1.32-3 2.944 0 1.625 1.345 2.945 3 2.945s2.999-1.32 2.999-2.945c0-1.625-1.344-2.944-3-2.944zm0 .272c1.505 0 2.721 1.195 2.721 2.672 0 1.478-1.216 2.672-2.721 2.672-1.505 0-2.722-1.194-2.722-2.672 0-1.477 1.217-2.672 2.722-2.672zm1.377 1.82a.698.698 0 0 0-.542.223c-.134.148-.202.346-.202.595 0 .25.068.446.202.594a.7.7 0 0 0 .542.223.694.694 0 0 0 .539-.223c.134-.148.202-.345.202-.594s-.068-.447-.202-.595a.692.692 0 0 0-.54-.222zm-3.51.029v1.575h1.034v-.18h-.816v-.57h.764v-.18h-.764v-.466h.797v-.18zm1.195 0l.612 1.575h.246l.612-1.575h-.226l-.51 1.325-.507-1.325zm2.315.144c.157 0 .282.058.374.173.092.115.139.273.139.472 0 .199-.047.355-.14.47a.452.452 0 0 1-.373.173.46.46 0 0 1-.377-.173c-.092-.115-.137-.271-.137-.47 0-.199.045-.357.137-.472a.46.46 0 0 1 .377-.173zm2.403.33a.423.423 0 0 0-.427.42c0 .232.19.42.427.42a.423.423 0 0 0 .427-.42.423.423 0 0 0-.427-.42zm-7.443.012a.423.423 0 0 0-.426.42c0 .23.19.418.426.419a.423.423 0 0 0 .427-.42.423.423 0 0 0-.427-.42zm3.88 3.54a.423.423 0 0 0-.428.42c0 .232.192.42.428.42a.423.423 0 0 0 .426-.42c0-.231-.19-.419-.426-.42z" style="line-height:normal;font-variant-ligatures:normal;font-variant-position:normal;font-variant-caps:normal;font-variant-numeric:normal;font-variant-alternates:normal;font-feature-settings:normal;text-indent:0;text-align:start;text-decoration-line:none;text-decoration-style:solid;text-decoration-color:#000;text-transform:none;text-orientation:mixed;shape-padding:0;isolation:auto;mix-blend-mode:normal;marker:none" color="#000" font-weight="400" font-family="sans-serif" white-space="normal" overflow="visible" fill="url(#r)" paint-order="fill markers stroke" transform="translate(-48 -48)"/><path d="M11.556 11.995L1 12v5.527l.953-1.387v-3.144h8.19zm22.52 0L25.63 12l-1.408.996h8.44zm22.52 0L48.15 12l-1.407.996h8.44zm6.338 1.001l-.886 1.077-.005 8.29.892-1.387zM1.954 29.273l-.949 1.382L1 38.945l.953-1.387zm60.98 5.527l-.886 1.382-.005 8.29.892-1.387zM3.111 49.065L1.704 50h8.44l1.412-.935zm22.52 0L24.223 50h8.44l1.413-.935zm22.52 0L46.742 50h8.44l1.412-.935z" fill="#5477b0" fill-rule="evenodd"/><path d="M22.816 11.995L14.37 12l-1.407.996h8.439zm22.52 0L36.89 12l-1.408.996h8.44zm17.593 0L59.41 12l-1.407.996h3.513zM1.953 18.218L1.005 19.6 1 27.89l.953-1.386zm60.981 5.527l-.886 1.382-.005 8.291.892-1.387zM1.954 40.327l-.949 1.382L1 49.999l.953-1.63zm60.98 5.527l-.886 1.382-.004 1.825-2.633.004-1.408.935h4.926zm-48.563 3.21L12.964 50h8.444l1.408-.935zm22.52 0L35.483 50h8.445l1.408-.935z" fill="#b05457" fill-rule="evenodd"/></svg>