<svg xmlns="http://www.w3.org/2000/svg" xmlns:xlink="http://www.w3.org/1999/xlink" height="64" viewBox="0 0 64 64" width="64"><title>Template icons dark</title><defs><linearGradient id="d"><stop offset="0" stop-color="#fff" stop-opacity=".456"/><stop offset="1" stop-color="#fff" stop-opacity="0"/></linearGradient><linearGradient id="c"><stop offset="0" stop-color="#c7c7c7"/><stop offset="1" stop-color="#fff" stop-opacity=".989"/></linearGradient><linearGradient id="b"><stop offset="0" stop-color="#a61f23"/><stop offset="1" stop-color="#ff4955"/></linearGradient><linearGradient id="a"><stop offset="0" stop-color="#88c1df"/><stop offset="1" stop-color="#f0f5f8"/></linearGradient><linearGradient xlink:href="#b" id="h" gradientUnits="userSpaceOnUse" gradientTransform="matrix(1.31252 0 0 1.31252 -129.595 -129.69)" x1="165.921" y1="192" x2="159" y2="147.661"/><linearGradient xlink:href="#a" id="e" x1="170" y1="186" x2="170" y2="118" gradientUnits="userSpaceOnUse" gradientTransform="matrix(.69412 0 0 .69412 -31.945 -32.554)"/><radialGradient xlink:href="#d" id="g" gradientUnits="userSpaceOnUse" gradientTransform="matrix(.39184 0 0 .3033 14.11 27.912)" cx="105.669" cy="162.232" fx="105.669" fy="162.232" r="45.374"/><radialGradient xlink:href="#d" id="f" cx="191" cy="155.342" fx="191" fy="155.342" r="45.374" gradientTransform="matrix(.5206 0 0 .40298 .503 11.742)" gradientUnits="userSpaceOnUse"/></defs><path d="M32.727 1.183a18.101 18.101 0 0 0-17.32 12.855A18.101 18.101 0 0 0 .538 31.84a18.101 18.101 0 0 0 7.315 14.51 13.71 13.71 0 0 0 9.27 3.592H46.496c2.54 0 4.905-.692 6.943-1.88a18.101 18.101 0 0 0 10.09-16.222 18.101 18.101 0 0 0-13.379-17.452A18.101 18.101 0 0 0 32.727 1.183z" style="isolation:auto;mix-blend-mode:normal;marker:none" color="#000" display="block" overflow="visible" fill="none" stroke="#000" stroke-width="1.009" stroke-linecap="round" stroke-opacity=".066" paint-order="markers stroke fill"/><path style="isolation:auto;mix-blend-mode:normal;marker:none" d="M80.727 48.49a18.101 18.101 0 0 0-17.32 12.854 18.101 18.101 0 0 0-14.87 17.802 18.101 18.101 0 0 0 7.315 14.51 13.71 13.71 0 0 0 9.27 3.591H94.496c2.54 0 4.905-.691 6.943-1.88a18.101 18.101 0 0 0 10.09-16.221 18.101 18.101 0 0 0-13.379-17.452 18.101 18.101 0 0 0-17.422-13.205z" color="#000" overflow="visible" fill="url(#e)" paint-order="markers stroke fill" transform="translate(-48 -48)"/><path style="isolation:auto;mix-blend-mode:normal;marker:none" d="M.57 30.413a18.101 18.101 0 0 0-.033.733 18.101 18.101 0 0 0 7.315 14.51 13.71 13.71 0 0 0 9.27 3.591H46.496c2.54 0 4.905-.691 6.943-1.88a18.101 18.101 0 0 0 10.09-16.221 18.101 18.101 0 0 0-.035-.659A18.101 18.101 0 0 1 53.438 45.98a13.727 13.727 0 0 1-6.943 1.88H17.123a13.71 13.71 0 0 1-9.27-3.591A18.101 18.101 0 0 1 .57 30.413z" color="#000" overflow="visible" fill="#365a83" fill-opacity=".22" paint-order="markers stroke fill"/><path d="M80.727 48.49a18.101 18.101 0 0 0-17.32 12.854 18.101 18.101 0 0 0-14.87 17.802 18.101 18.101 0 0 0 7.315 14.51 13.71 13.71 0 0 0 9.27 3.591H94.496c2.54 0 4.905-.691 6.943-1.88a18.101 18.101 0 0 0 10.09-16.221 18.101 18.101 0 0 0-13.379-17.452 18.101 18.101 0 0 0-17.422-13.205z" style="isolation:auto;mix-blend-mode:normal;marker:none" color="#000" overflow="visible" fill="url(#f)" paint-order="markers stroke fill" transform="translate(-48 -48)"/><path style="isolation:auto;mix-blend-mode:normal;marker:none" d="M80.727 48.49a18.101 18.101 0 0 0-17.32 12.854 18.101 18.101 0 0 0-14.87 17.802 18.101 18.101 0 0 0 7.315 14.51 13.71 13.71 0 0 0 9.27 3.591H94.496c2.54 0 4.905-.691 6.943-1.88a18.101 18.101 0 0 0 10.09-16.221 18.101 18.101 0 0 0-13.379-17.452 18.101 18.101 0 0 0-17.422-13.205z" color="#000" overflow="visible" fill="url(#g)" paint-order="markers stroke fill" transform="translate(-48 -48)"/><path d="M32.648 13.198c-1.098 0-2.22.496-3.045 1.487L10.786 39.644c-.69 1.41-.144 2.822 1.828 2.822h13.72l4.514 18.393c.064 1.735.703 3.14 1.577 3.14s1.514-1.405 1.578-3.14l4.516-18.393h13.814c1.963 0 1.962-2.67 1.456-3.338L35.555 14.69c-.736-.993-1.81-1.491-2.907-1.492z" style="isolation:auto;mix-blend-mode:normal;marker:none" color="#000" overflow="visible" fill-opacity=".176" paint-order="markers stroke fill"/><path style="isolation:auto;mix-blend-mode:normal;marker:none" d="M80.648 58.376c-1.098 0-2.22.496-3.045 1.487L58.786 84.822c-.69 1.41-.144 2.822 1.828 2.822h13.72l4.514 18.393c.064 1.735.703 3.14 1.577 3.14s1.514-1.405 1.578-3.14l4.516-18.393h13.814c1.963 0 1.962-2.67 1.456-3.338-6.078-8.146-12.156-16.29-18.234-24.438-.736-.993-1.81-1.491-2.907-1.492z" color="#000" overflow="visible" fill="url(#h)" paint-order="markers stroke fill" transform="translate(-48 -48)"/><path style="isolation:auto;mix-blend-mode:normal;marker:none" d="M54.026 36.99c-.124.854-.595 1.692-1.694 1.692H38.518l-4.515 18.39c-.064 1.736-.704 3.141-1.578 3.141-.874 0-1.513-1.405-1.578-3.14l-4.513-18.391h-13.72c-1.19 0-1.852-.518-2.045-1.235-.27 1.173.367 2.198 2.045 2.198h13.72l4.513 18.391c.065 1.735.704 3.14 1.578 3.14.874 0 1.514-1.405 1.578-3.14l4.515-18.391h13.814c1.535 0 1.863-1.624 1.694-2.655z" color="#000" overflow="visible" fill="#5d0a0a" fill-opacity=".434" paint-order="markers stroke fill"/><path style="isolation:auto;mix-blend-mode:normal;marker:none" d="M32.648 10.377c-1.098 0-2.219.496-3.045 1.487L10.787 36.822c-.283.578-.346 1.15-.2 1.631.047-.175.113-.351.2-.529l18.816-24.958c.826-.991 1.947-1.487 3.045-1.487 1.098 0 2.171.498 2.907 1.491 6.078 8.147 12.156 16.29 18.234 24.438.102.135.177.366.226.628.12-.698.006-1.424-.226-1.73L35.555 11.869c-.736-.993-1.81-1.491-2.907-1.492z" color="#000" overflow="visible" fill="red" fill-opacity=".363" paint-order="markers stroke fill"/><path d="M39.296 26.27h-9.399l.49-2.295h5.729l.525-2.47h-8.233l-2.593 12.228h2.487l1.14-5.343h5.966l-5.185 5.133.911 1.611c.42-.28 1.104-.315 1.577-.315.84 0 1.664.28 2.522.28.787 0 1.593-.052 2.907-.683l.459-2.155c-.894.368-2.216.718-3.366.718-.473 0-.91-.105-1.366-.175l5.026-4.887.403-1.647z" fill-opacity=".286"/><path d="M39.296 25.553h-9.399l.49-2.295h5.729l.525-2.47h-8.233l-2.593 12.228h2.487l1.14-5.343h5.966l-5.185 5.133.911 1.612c.42-.28 1.104-.316 1.577-.316.84 0 1.664.28 2.522.28.787 0 1.593-.052 2.907-.683l.459-2.154c-.894.367-2.216.718-3.366.718-.473 0-.91-.105-1.366-.175l5.026-4.888.403-1.647z" fill="#fff"/></svg>