<svg xmlns="http://www.w3.org/2000/svg" xmlns:xlink="http://www.w3.org/1999/xlink" height="64" viewBox="0 0 64 64" width="64"><title>Template icons dark</title><defs><linearGradient id="c"><stop offset="0" stop-color="#fff" stop-opacity=".172"/><stop offset="1" stop-opacity="0"/></linearGradient><linearGradient id="b"><stop offset="0" stop-color="#730216" stop-opacity=".781"/><stop offset="1" stop-color="#d9042a" stop-opacity=".027"/></linearGradient><linearGradient id="a"><stop offset="0" stop-color="#d40e0e"/><stop offset="1" stop-color="#910404" stop-opacity=".965"/></linearGradient><linearGradient gradientTransform="translate(-28.926 -28.914) scale(.67421)" xlink:href="#c" id="f" x1="160" y1="197.921" x2="160" y2="120" gradientUnits="userSpaceOnUse"/><linearGradient xlink:href="#b" id="e" gradientUnits="userSpaceOnUse" x1="198.319" y1="122.536" x2="175.155" y2="144.161" gradientTransform="translate(-28.914 -186.821) scale(.67421)"/><linearGradient gradientTransform="translate(-28.926 -28.914) scale(.67421)" xlink:href="#a" id="d" x1="160.855" y1="121.51" x2="160.855" y2="200.855" gradientUnits="userSpaceOnUse"/></defs><path style="isolation:auto;mix-blend-mode:normal;marker:none" color="#000" display="block" overflow="visible" fill-opacity=".078" paint-order="fill markers stroke" d="M2.631 2.643H58.59v56.634H2.631z"/><path style="isolation:auto;mix-blend-mode:normal;marker:none" color="#000" display="block" overflow="visible" fill-opacity=".078" paint-order="fill markers stroke" d="M3.305 3.317H58.59v55.285H3.305z"/><path style="isolation:auto;mix-blend-mode:normal;marker:none" color="#000" overflow="visible" fill="url(#d)" paint-order="fill markers stroke" d="M51.979 51.991h53.937v53.937H51.979z" transform="translate(-48 -48)"/><path style="isolation:auto;mix-blend-mode:normal;marker:none" transform="rotate(90 0 -48)" color="#000" display="block" overflow="visible" fill="url(#e)" paint-order="fill markers stroke" d="M51.991-105.916h53.937v53.937H51.991z"/><path d="M21.509 37.701v4.72c3.624.302 8.2-1.086 10.787-8.765h5.394v-4.72h-3.371c1.584-1.955 3.802-3.57 6.068-4.045v-4.719c-8.236.821-9.291 5.499-11.462 9.439-2.98 5.527-4.756 6.608-7.416 8.09z" fill-opacity=".151" fill-rule="evenodd"/><path d="M21.509 37.027v4.72c3.624.302 8.2-1.086 10.787-8.765h5.394v-4.72h-3.371c1.584-1.955 3.802-3.57 6.068-4.045v-4.72c-8.236.822-9.291 5.5-11.462 9.44-2.98 5.527-4.756 6.607-7.416 8.09z" fill="#fefefe" fill-rule="evenodd"/><path style="line-height:1000%;-inkscape-font-specification:'sans-serif Bold'" d="M30.948 40.398v.303h.516v1.253h.402v-1.253h.515v-.303zm1.64 0v1.556h.38v-1.137l.358.839h.255l.359-.84v1.138h.379v-1.556h-.51l-.356.834-.355-.834z" font-weight="700" font-family="sans-serif" letter-spacing="0" word-spacing="0" fill="#fff"/><path style="line-height:normal;font-variant-ligatures:normal;font-variant-position:normal;font-variant-caps:normal;font-variant-numeric:normal;font-variant-alternates:normal;font-feature-settings:normal;text-indent:0;text-align:start;text-decoration-line:none;text-decoration-style:solid;text-decoration-color:#000;text-transform:none;text-orientation:mixed;shape-padding:0;isolation:auto;mix-blend-mode:normal;marker:none" d="M105.916 51.99H51.979v53.938h53.937zm-.674.675v52.589H52.653V52.665z" color="#000" font-weight="400" font-family="sans-serif" white-space="normal" overflow="visible" fill="url(#f)" paint-order="fill markers stroke" transform="translate(-48 -48)"/><path d="M55.657 53.526a2.82 2.82 0 0 0-2.816-2.815 2.82 2.82 0 0 0-2.815 2.815 2.82 2.82 0 0 0 2.815 2.816 2.82 2.82 0 0 0 2.816-2.816zm5.63-1.198v2.441c0 .165-.132.363-.308.396l-2.035.308a6.237 6.237 0 0 1-.429 1c.374.54.77 1.024 1.177 1.518.066.077.11.176.11.276 0 .099-.033.176-.1.252-.263.352-1.748 1.969-2.122 1.969a.561.561 0 0 1-.286-.1l-1.517-1.187c-.319.165-.66.309-1.001.418-.076.671-.143 1.386-.319 2.046a.403.403 0 0 1-.395.308H51.62c-.198 0-.374-.143-.395-.33l-.309-2.024c-.34-.11-.67-.242-.99-.406l-1.55 1.176a.397.397 0 0 1-.55-.022c-.583-.527-1.353-1.21-1.815-1.847a.426.426 0 0 1 .012-.505c.373-.506.78-.99 1.155-1.507a5.857 5.857 0 0 1-.452-1.09l-2.012-.296a.4.4 0 0 1-.319-.396v-2.441c0-.165.132-.364.297-.396l2.046-.308c.11-.352.252-.682.428-1.012a26.497 26.497 0 0 0-1.176-1.517.403.403 0 0 1-.11-.264c0-.1.044-.176.1-.253.263-.363 1.747-1.968 2.122-1.968.099 0 .198.044.286.11l1.517 1.176c.319-.164.66-.308 1-.418.077-.67.144-1.386.32-2.045a.403.403 0 0 1 .395-.309h2.442c.198 0 .373.143.395.33l.309 2.024c.34.11.67.242.99.407l1.56-1.177a.374.374 0 0 1 .265-.1c.099 0 .198.045.275.11.583.54 1.353 1.221 1.814 1.87a.376.376 0 0 1 .077.242c0 .1-.033.176-.088.253-.374.506-.78.99-1.155 1.507.187.352.34.715.451 1.077l2.013.309a.4.4 0 0 1 .318.395z" fill-opacity=".271"/><path d="M55.019 52.888a2.82 2.82 0 0 0-2.816-2.815 2.82 2.82 0 0 0-2.815 2.815 2.82 2.82 0 0 0 2.815 2.816 2.82 2.82 0 0 0 2.816-2.816zm5.63-1.198v2.441c0 .165-.131.364-.308.396l-2.035.308a6.236 6.236 0 0 1-.428 1.001c.373.54.77 1.023 1.176 1.518.067.076.11.175.11.275 0 .099-.033.176-.099.252-.264.352-1.748 1.97-2.123 1.97a.561.561 0 0 1-.286-.1l-1.517-1.187c-.319.164-.66.308-1 .418-.077.67-.144 1.385-.32 2.045a.403.403 0 0 1-.395.308h-2.442c-.197 0-.373-.143-.395-.33l-.309-2.023c-.34-.11-.67-.243-.99-.407l-1.55 1.177a.397.397 0 0 1-.55-.022c-.583-.528-1.353-1.21-1.814-1.848a.426.426 0 0 1 .01-.505c.375-.506.781-.99 1.156-1.507a5.857 5.857 0 0 1-.451-1.089l-2.013-.297a.4.4 0 0 1-.318-.396v-2.441c0-.165.131-.363.297-.396l2.045-.308c.11-.352.253-.682.429-1.011a26.504 26.504 0 0 0-1.177-1.518.403.403 0 0 1-.11-.264c0-.1.045-.176.1-.253.263-.363 1.748-1.968 2.122-1.968.1 0 .198.044.286.11l1.517 1.176c.319-.164.66-.308 1.001-.418.077-.67.143-1.386.319-2.045a.403.403 0 0 1 .395-.308h2.442c.198 0 .374.142.395.33l.309 2.023c.34.11.67.242.99.407l1.561-1.177a.374.374 0 0 1 .264-.099c.1 0 .198.045.275.11.583.539 1.353 1.22 1.815 1.87a.376.376 0 0 1 .076.241c0 .1-.033.176-.088.253-.373.506-.78.99-1.155 1.507.188.352.341.715.451 1.077l2.013.309a.4.4 0 0 1 .319.395z" fill="#fbfbfb"/></svg>