<svg xmlns="http://www.w3.org/2000/svg" xmlns:xlink="http://www.w3.org/1999/xlink" width="64" viewBox="0 0 64 64" height="64"><title>Template icons dark</title><defs><linearGradient id="b"><stop offset="0" stop-color="#d6c8ee"/><stop offset="1" stop-color="#aad1f7"/></linearGradient><linearGradient id="a"><stop offset="0" stop-color="#5d8afc"/><stop offset="1" stop-color="#aa88d1"/></linearGradient><linearGradient gradientTransform="matrix(.67656 0 0 .67656 -28.024 -28.35)" xlink:href="#a" id="h" x1="188.825" y1="190.844" x2="130.018" y2="127.876" gradientUnits="userSpaceOnUse"/><linearGradient gradientTransform="matrix(.67656 0 0 .67656 -28.024 -28.35)" xlink:href="#b" id="j" x1="144.509" y1="142.827" x2="172.287" y2="176.313" gradientUnits="userSpaceOnUse"/><radialGradient gradientTransform="matrix(.06522 -.0039 .00381 .06372 -97.9 -56.391)" gradientUnits="userSpaceOnUse" id="c" r="776.623" fy="3474.059" fx="3838.903" cy="3474.059" cx="3838.903"><stop offset="0%" stop-color="#444367"/><stop offset="44.511%" stop-color="#29253B"/><stop offset="1" stop-color="#1f2032"/></radialGradient><radialGradient gradientTransform="matrix(.06522 -.0039 .00381 .06372 -97.9 -56.391)" gradientUnits="userSpaceOnUse" id="d" r="776.623" fy="3474.059" fx="3838.903" cy="3474.059" cx="3838.903"><stop offset="0%" stop-color="#444367"/><stop offset="44.511%" stop-color="#29253B"/><stop offset="1" stop-color="#1f2032"/></radialGradient><radialGradient xlink:href="#e" id="i" gradientUnits="userSpaceOnUse" gradientTransform="matrix(.04451 -.00266 .0026 .04349 -96.003 -67.38)" cx="3838.903" cy="3474.059" fx="3838.903" fy="3474.059" r="776.623"/><radialGradient gradientTransform="matrix(.06522 -.0039 .00381 .06372 -97.9 -56.391)" gradientUnits="userSpaceOnUse" id="e" r="776.623" fy="3474.059" fx="3838.903" cy="3474.059" cx="3838.903"><stop offset="0%" stop-color="#444367"/><stop offset="44.511%" stop-color="#29253B"/><stop offset="1" stop-color="#1f2032"/></radialGradient><radialGradient gradientTransform="matrix(.06522 -.0039 .00381 .06372 -97.9 -56.391)" gradientUnits="userSpaceOnUse" id="f" r="776.623" fy="3474.059" fx="3838.903" cy="3474.059" cx="3838.903"><stop offset="0%" stop-color="#444367"/><stop offset="44.511%" stop-color="#29253B"/><stop offset="1" stop-color="#1f2032"/></radialGradient><radialGradient gradientTransform="matrix(.06522 -.0039 .00381 .06372 -97.9 -56.391)" gradientUnits="userSpaceOnUse" id="g" r="776.623" fy="3474.059" fx="3838.903" cy="3474.059" cx="3838.903"><stop offset="0%" stop-color="#444367"/><stop offset="44.511%" stop-color="#29253B"/><stop offset="1" stop-color="#1f2032"/></radialGradient></defs><path d="M31.999 64c-3.2 0-26.113-13.229-27.713-16-1.6-2.771-1.6-29.229 0-32 1.6-2.772 24.513-16 27.713-16 3.2 0 26.113 13.228 27.713 16 1.6 2.771 1.6 29.229 0 32-1.6 2.771-24.513 16-27.713 16z" style="isolation:auto;mix-blend-mode:normal;marker:none" color="#000" overflow="visible" fill-opacity=".26"/><path style="isolation:auto;mix-blend-mode:normal;marker:none" d="M79.999 109.338c-2.934 0-23.94-12.128-25.408-14.67-1.467-2.54-1.467-26.797 0-29.337C56.058 62.79 77.065 50.66 80 50.66c2.934 0 23.94 12.129 25.408 14.67 1.467 2.54 1.467 26.797 0 29.338-1.467 2.54-22.474 14.669-25.408 14.669z" color="#000" overflow="visible" fill-opacity=".26" stroke="url(#h)" stroke-width="2.58" transform="translate(-48 -48)"/><path style="isolation:auto;mix-blend-mode:normal;marker:none" d="M105.835 94.916l-25.836 14.917-25.836-14.917V65.083l25.836-14.916 25.836 14.916z" color="#000" overflow="visible" fill="url(#i)" transform="translate(-48 -48)"/><path style="line-height:normal;font-variant-ligatures:normal;font-variant-position:normal;font-variant-caps:normal;font-variant-numeric:normal;font-variant-alternates:normal;font-feature-settings:normal;text-indent:0;text-align:start;text-decoration-line:none;text-decoration-style:solid;text-decoration-color:#000;text-transform:none;text-orientation:mixed;shape-padding:0;isolation:auto;mix-blend-mode:normal;marker:none" d="M32.226 7.826l-20.594 11.89v23.782l20.594 11.89 20.595-11.89V19.717zm0 2.079l18.796 10.85v21.703L32.226 53.31 13.431 42.458V20.755z" color="#000" font-weight="400" font-family="sans-serif" white-space="normal" overflow="visible" fill="#5ddffc" fill-opacity=".057"/><path d="M6.163 33.385V17.083L31.999 2.167l25.836 14.916z" style="isolation:auto;mix-blend-mode:normal;marker:none" color="#000" overflow="visible" fill="#fff" fill-opacity=".031"/><path d="M39.459 43.398V35.8h-6.252v-3.145h10.04V44.8q-2.216 1.572-4.887 2.387-2.671.795-5.702.795-6.63 0-10.382-3.864-3.732-3.884-3.732-10.799 0-6.933 3.732-10.798 3.751-3.883 10.382-3.883 2.766 0 5.248.682 2.5.682 4.603 2.008V25.4Q40.387 23.6 38 22.69q-2.387-.909-5.02-.909-5.19 0-7.805 2.899-2.595 2.898-2.595 8.638 0 5.722 2.595 8.62 2.614 2.899 7.805 2.899 2.027 0 3.618-.341 1.592-.36 2.86-1.1z" style="line-height:1000%;-inkscape-font-specification:orya" font-weight="400" font-family="orya" letter-spacing="0" word-spacing="0" fill-opacity=".479"/><path style="line-height:1000%;-inkscape-font-specification:orya" d="M87.459 89.368v-7.596h-6.252v-3.145h10.04V90.77q-2.216 1.572-4.887 2.387-2.671.796-5.702.796-6.63 0-10.382-3.865-3.732-3.884-3.732-10.798 0-6.934 3.732-10.798 3.751-3.884 10.382-3.884 2.766 0 5.248.682 2.5.682 4.603 2.008v4.073q-2.122-1.8-4.509-2.709-2.387-.91-5.02-.91-5.19 0-7.805 2.9-2.595 2.898-2.595 8.638 0 5.721 2.595 8.62 2.614 2.898 7.805 2.898 2.027 0 3.618-.341 1.592-.36 2.86-1.099z" font-weight="400" font-family="orya" letter-spacing="0" word-spacing="0" fill="url(#j)" transform="translate(-48 -48)"/><path style="isolation:auto;mix-blend-mode:normal;marker:none" d="M31.999 2.166L6.163 17.084v.676L31.999 2.843 57.835 17.76v-.676z" color="#000" overflow="visible" fill-opacity=".297"/><path d="M31.999 61.854L6.163 46.937v-.677l25.836 14.918L57.835 46.26v.677z" style="isolation:auto;mix-blend-mode:normal;marker:none" color="#000" overflow="visible" fill="#fff" fill-opacity=".099"/></svg>