<svg xmlns="http://www.w3.org/2000/svg" xmlns:xlink="http://www.w3.org/1999/xlink" height="64" viewBox="0 0 64 64" width="64" enable-background="new"><title>Template icons dark</title><defs><linearGradient id="a"><stop offset="0" stop-color="#4ceb78"/><stop offset="1" stop-color="#2ec43e"/></linearGradient><linearGradient id="b"><stop offset="0" stop-color="#e12850"/><stop offset="1" stop-color="#ff2e62"/></linearGradient><linearGradient id="c"><stop offset="0" stop-color="#ffa300"/><stop offset="1" stop-color="#ffcf46"/></linearGradient><linearGradient gradientTransform="matrix(1.31624 0 0 1.31624 48.41 48.41)" xlink:href="#c" id="e" x1="35.701" y1="42.121" x2="34.87" y2="22.552" gradientUnits="userSpaceOnUse"/><linearGradient gradientTransform="matrix(1.31624 0 0 1.31624 48.41 48.41)" xlink:href="#b" id="f" x1="34.652" y1="5.549" x2="17.711" y2="15.435" gradientUnits="userSpaceOnUse"/><linearGradient gradientTransform="matrix(1.31624 0 0 1.31624 48.41 48.41)" xlink:href="#a" id="g" x1="10.999" y1="19.741" x2="10.556" y2="37.184" gradientUnits="userSpaceOnUse"/><filter id="d" x="-.012" width="1.024" y="-.012" height="1.024" color-interpolation-filters="sRGB"/></defs><g transform="translate(-48 -48)"><circle style="isolation:auto;mix-blend-mode:normal;marker:none" cx="80" cy="80" r="30.219" color="#000" display="block" overflow="visible" fill="none" stroke="#000" stroke-width="3.562" stroke-opacity=".115" paint-order="fill markers stroke" enable-background="accumulate"/><path style="isolation:auto;mix-blend-mode:normal;marker:none" d="M159.552 136.448c-12.703 0-23 10.297-23 23s10.297 23 23 23 23-10.297 23-23-10.297-23-23-23zm-.138 16.597a6.424 6.424 0 1 1 0 12.847 6.424 6.424 0 0 1 0-12.847z" transform="matrix(1.31624 0 0 1.31624 -130.008 -129.871)" color="#000" overflow="visible" fill-opacity=".235" filter="url(#d)" enable-background="accumulate"/><path style="font-variant-east_asian:normal" d="M79.882 87.113a7.15 7.15 0 1 0 0-14.3 7.15 7.15 0 0 0 0 14.3z" fill="#4690eb" fill-opacity=".335" fill-rule="evenodd"/><path d="M82.632 52.36c-16.72 0-30.273 13.553-30.273 30.272 0 15.106 11.01 27.67 27.641 27.641 16.72-.03 30.273-13.553 30.273-30.273a30.149 30.149 0 0 0-6.835-19.163c-5.552-6.782-11.357-8.478-20.806-8.478zM79.818 71.3a8.728 8.728 0 0 1 8.728 8.727c0 4.82-4.658 9.41-9.478 9.41-4.82 0-10.16-4.59-10.16-9.41s6.294-9.341 10.91-8.728z" fill="url(#e)" fill-rule="evenodd"/><path d="M80 49.727c-11.17 0-20.919 6.054-26.165 15.054L72.75 85.148c-1.602-2.126-1.66-4.351-1.66-5.12 0-4.59 3.545-8.346 8.046-8.694l28.14-4.45a30.3 30.3 0 0 0-3.838-6.047c-5.552-6.782-13.99-11.11-23.438-11.11z" fill="url(#f)" fill-rule="evenodd"/><path d="M53.07 93.834c5.102 9.935 14.858 16.121 25.344 16.398l7.232-23.716a8.71 8.71 0 0 1-1.842 1.279c-4.083 2.097-9.043.658-11.409-3.186L55.872 61.732a30.3 30.3 0 0 0-3.626 6.177c-3.497 8.037-3.493 17.52.823 25.925z" fill="url(#g)" fill-rule="evenodd"/><path d="M55.773 61.532l15.81 15.5s-.68 2.006-.493 4.154c.096 1.107 1.125 3.137 1.125 3.137zM107.27 66.914l-21.082 7.108s-1.54-1.521-2.828-2.027c-2.103-.825-3.646-.718-3.646-.718zM78.417 110.257l2.389-21.497s1.763-.339 2.57-.71c.83-.382 2.273-1.53 2.273-1.53z" fill-opacity=".147" fill-rule="evenodd"/></g></svg>