<svg xmlns="http://www.w3.org/2000/svg" xmlns:xlink="http://www.w3.org/1999/xlink" height="64" viewBox="0 0 64 64" width="64"><title>Template icons dark</title><defs><linearGradient id="j"><stop offset="0" stop-color="#fff" stop-opacity=".852"/><stop offset="1" stop-color="#fff" stop-opacity="0"/></linearGradient><linearGradient id="i"><stop offset="0" stop-color="#fff" stop-opacity=".56"/><stop offset="1" stop-color="#fff" stop-opacity="0"/></linearGradient><linearGradient id="h"><stop offset="0" stop-color="#28263e"/><stop offset="1" stop-color="#494b5a"/></linearGradient><linearGradient id="g"><stop offset="0" stop-color="#4abecb"/><stop offset=".505" stop-color="#60d9b6" stop-opacity=".989"/><stop offset="1" stop-color="#dff48b" stop-opacity=".973"/></linearGradient><linearGradient id="f"><stop offset="0" stop-color="#2aa591"/><stop offset="1" stop-color="#2498e4"/></linearGradient><linearGradient id="a"><stop offset="0" stop-color="#2a0ff3" stop-opacity=".132"/><stop offset=".521" stop-color="#3bf963" stop-opacity=".291"/><stop offset="1" stop-color="#ef4cff" stop-opacity=".297"/></linearGradient><linearGradient id="b"><stop offset="0" stop-color="#fff"/><stop offset="1" stop-color="#fff" stop-opacity="0"/></linearGradient><linearGradient id="c"><stop offset="0"/><stop offset="1" stop-opacity="0"/></linearGradient><linearGradient id="d"><stop offset="0" stop-color="#babdb6"/><stop offset="1" stop-color="#fff"/></linearGradient><linearGradient id="e"><stop offset="0" stop-color="#888a85"/><stop offset="1" stop-color="#555753"/></linearGradient><linearGradient xlink:href="#g" id="l" x1="167.206" y1="193.417" x2="165.746" y2="132.007" gradientUnits="userSpaceOnUse" gradientTransform="scale(.6359) rotate(-45 103.27 182.58)"/><linearGradient xlink:href="#h" id="k" x1="153.065" y1="190.903" x2="153.065" y2="125.679" gradientUnits="userSpaceOnUse"/><radialGradient xlink:href="#j" id="m" cx="160.296" cy="160.027" fx="160.296" fy="160.027" r="13.624" gradientTransform="matrix(.33106 0 0 .36415 26.922 21.736)" gradientUnits="userSpaceOnUse"/></defs><g color="#000" transform="translate(-48 -48)"><path d="M95.37 54.369l14.793 25.623-14.794 25.623H65.783L50.989 79.992l14.794-25.623z" style="isolation:auto;mix-blend-mode:normal;marker:none" display="block" overflow="visible" fill="none" stroke="#000" stroke-width="1.5415434" stroke-opacity=".17" paint-order="fill markers stroke"/><path transform="scale(.7857) rotate(-45 62.241 199.75)" style="isolation:auto;mix-blend-mode:normal;marker:none" d="M196.511 148.741l-9.884 36.886-36.373 9.746-26.627-26.627 9.746-36.373 36.89-9.886z" display="block" overflow="visible" fill="url(#k)" paint-order="fill markers stroke"/><path style="isolation:auto;mix-blend-mode:normal;marker:none" d="M65.783 105.727L50.989 80.104l.193-.334 14.6 25.289H95.37l14.6-25.289.194.334-14.794 25.623z" display="block" overflow="visible" fill-opacity=".544" paint-order="fill markers stroke"/><path d="M65.992 54.004L50.99 79.992l.193.334 14.6-25.289H95.37l14.6 25.29.194-.335L95.16 54.007z" style="isolation:auto;mix-blend-mode:normal;marker:none" display="block" overflow="visible" fill="#bcecf6" fill-opacity=".154" paint-order="fill markers stroke"/><path style="isolation:auto;mix-blend-mode:normal;marker:none" d="M68.603 59.923L56.63 80.66l11.972 20.738h23.946l11.972-20.738L92.55 59.923zm5.315 9.696H86.68l6.38 11.052-6.38 11.051H73.918l-6.38-11.051z" overflow="visible" fill-opacity=".418" paint-order="fill markers stroke"/><path style="isolation:auto;mix-blend-mode:normal;marker:none" d="M51.545 72.2l1.418-10.396c.098-.72.756-1.22 1.476-1.123L64.835 62.1c.72.098 1.122 1.477.384 2.038L53.402 73.14c-.735.536-1.955-.22-1.857-.94z" display="block" overflow="visible" fill-opacity=".297" paint-order="fill markers stroke"/><path d="M68.028 59.021L56.63 79.991l11.972 20.739h23.946l11.972-20.738-11.545-20.99zm5.89 9.93H86.68l6.38 11.051-6.38 11.052H73.918l-6.38-11.052z" style="isolation:auto;mix-blend-mode:normal;marker:none" display="block" overflow="visible" fill="url(#l)" paint-order="fill markers stroke"/><path d="M82.879 75.296l2.749 4.762-2.75 4.762H77.38l-2.75-4.762 2.75-4.762z" style="isolation:auto;mix-blend-mode:normal;marker:none" display="block" overflow="visible" fill-opacity=".467" paint-order="fill markers stroke"/><path d="M83.113 74.221l-6.262.008c-.254 0-.444.181-.535.382-.09.2-.102.448.058.608l3.126 3.127a.676.676 0 0 0 .955 0l2.887-2.887.24-.239c.02-.022.017-.053.032-.077l.004.002v-.011a.567.567 0 0 0 .023-.523c-.09-.201-.276-.385-.527-.39zm-.004.246c.132.002.246.105.307.243.06.137.048.28-.008.336l-3.103 2.787a.508.508 0 0 1-.724 0l-3.034-2.787c-.058-.053-.068-.199-.007-.335.061-.136.175-.237.31-.237h.002zm1.608 1.792a.43.43 0 0 0-.29.123l-3.126 3.126a.676.676 0 0 0 0 .955l2.886 2.887h.001l.239.24c.021.02.053.017.077.032l-.002.003.011.001a.567.567 0 0 0 .523.023c.201-.09.385-.276.39-.527l-.008-6.262c0-.255-.181-.445-.382-.535a.702.702 0 0 0-.32-.066zm-9.454.049a.708.708 0 0 0-.32.064c-.201.089-.384.274-.389.526v.001l.007 6.262c0 .254.181.444.382.535.201.09.45.103.61-.058l3.126-3.126a.677.677 0 0 0 0-.956l-2.887-2.886-.24-.24c-.02-.02-.052-.016-.076-.032v-.003h-.01c-.064-.04-.127-.083-.203-.087zm9.475.2a.44.44 0 0 1 .198.04c.135.061.237.175.237.312l.007 6.257c-.003.132-.106.246-.243.307-.137.06-.28.048-.337-.008l-2.875-3.062c-.202-.202-.204-.506 0-.725l2.875-3.074c.028-.029.079-.045.138-.048zm-9.497.048c.06.003.11.02.138.048l2.81 3.084c.203.202.2.507 0 .723l-2.81 3.054c-.054.058-.2.069-.335.007-.136-.061-.237-.175-.237-.311l-.008-6.259c.003-.131.106-.245.243-.306a.451.451 0 0 1 .199-.04zm4.764 4.92a.674.674 0 0 0-.478.199L76.64 84.56l-.239.239c-.021.022-.017.053-.033.077l-.002-.001-.001.009a.567.567 0 0 0-.023.524c.09.202.275.385.526.39h.002l6.261-.008c.255 0 .445-.18.535-.382.09-.2.103-.448-.057-.608l-3.127-3.126a.674.674 0 0 0-.477-.198zm0 .569c.11 0 .222.065.333.164l3.097 2.765c.06.053.07.2.008.335-.061.136-.175.237-.312.237l-6.258.008c-.131-.003-.245-.106-.306-.243-.06-.138-.742.687-.675.62l3.722-3.722a.637.637 0 0 1 .391-.164z" style="line-height:normal;font-variant-ligatures:normal;font-variant-position:normal;font-variant-caps:normal;font-variant-numeric:normal;font-variant-alternates:normal;font-feature-settings:normal;text-indent:0;text-align:start;text-decoration-line:none;text-decoration-style:solid;text-decoration-color:#000;text-transform:none;text-orientation:mixed;shape-padding:0;isolation:auto;mix-blend-mode:normal;marker:none" font-weight="400" font-family="sans-serif" white-space="normal" display="block" overflow="visible" fill="url(#m)" paint-order="fill markers stroke"/><path d="M68.028 59.021L56.63 79.991l.193.335 11.779-20.403h23.946l11.78 20.403.192-.334-11.545-20.99zm-.298 21.316l-.193.334 6.38 11.051H86.68l6.38-11.051-.193-.334-6.187 10.717H73.918z" style="isolation:auto;mix-blend-mode:normal;marker:none" display="block" overflow="visible" fill="#f7fdd4" fill-opacity=".918" paint-order="fill markers stroke"/><path d="M51.38 70.898l1.417-10.395c.099-.72.757-1.22 1.477-1.123l10.396 1.418c.72.098 1.122 1.477.384 2.038l-11.817 9.003c-.735.536-1.955-.22-1.857-.94z" style="isolation:auto;mix-blend-mode:normal;marker:none" display="block" overflow="visible" fill="#d0ec8c" paint-order="fill markers stroke"/><path style="isolation:auto;mix-blend-mode:normal;marker:none" d="M88.548 101.732l-4.28 7.415a1.068 1.068 0 0 1-1.463.392l-7.414-4.281c-.514-.297-.392-1.462.339-1.658l11.706-3.152c.72-.178 1.409.77 1.112 1.284z" display="block" overflow="visible" fill-opacity=".379" paint-order="fill markers stroke"/><path d="M88.108 100.837l-4.281 7.415a1.068 1.068 0 0 1-1.462.392l-7.415-4.281c-.514-.297-.392-1.462.34-1.658l11.706-3.152c.72-.178 1.408.77 1.112 1.284z" style="isolation:auto;mix-blend-mode:normal;marker:none" display="block" overflow="visible" fill="#53c9c1" paint-order="fill markers stroke"/><path d="M65.186 95.642l-10.46 1.942a1.327 1.327 0 0 1-1.55-1.065l-1.941-10.46c-.134-.724 1.065-1.55 1.84-1.018l12.427 8.514c.75.537.409 1.953-.316 2.087z" style="isolation:auto;mix-blend-mode:normal;marker:none" display="block" overflow="visible" fill-opacity=".379" paint-order="fill markers stroke"/><path style="isolation:auto;mix-blend-mode:normal;marker:none" d="M65.209 94.295l-10.46 1.941a1.327 1.327 0 0 1-1.55-1.064l-1.941-10.46c-.135-.724 1.064-1.55 1.84-1.018l12.426 8.514c.75.537.41 1.952-.315 2.087z" display="block" overflow="visible" fill="#7bddab" paint-order="fill markers stroke"/><path d="M84.414 96.615l-4.39 3.013a.664.664 0 0 1-.925-.172l-3.012-4.39c-.209-.304.172-.925.634-.839l7.413 1.37c.452.093.584.81.28 1.018z" style="isolation:auto;mix-blend-mode:normal;marker:none" display="block" overflow="visible" fill-opacity=".308" paint-order="fill markers stroke"/><path style="isolation:auto;mix-blend-mode:normal;marker:none" d="M84.587 95.686l-4.39 3.012a.664.664 0 0 1-.925-.172l-3.012-4.389c-.21-.304.172-.925.634-.84l7.413 1.37c.452.094.584.81.28 1.019z" display="block" overflow="visible" fill="#fff289" paint-order="fill markers stroke"/><path style="isolation:auto;mix-blend-mode:normal;marker:none" d="M83.862 87.999l-.93 3.472a.448.448 0 0 1-.55.317l-3.473-.93c-.24-.064-.317-.55-.042-.71l4.404-2.55c.273-.15.655.16.59.4z" display="block" overflow="visible" fill-opacity=".247" paint-order="fill markers stroke"/><path d="M83.549 87.046l-.93 3.472a.448.448 0 0 1-.55.318l-3.473-.93c-.24-.065-.317-.55-.042-.71l4.404-2.55c.273-.15.655.16.59.4z" style="isolation:auto;mix-blend-mode:normal;marker:none" display="block" overflow="visible" fill="#ebda8c" paint-order="fill markers stroke"/><path style="isolation:auto;mix-blend-mode:normal;marker:none" d="M80.775 84.8l-2.285.86a.305.305 0 0 1-.393-.179l-.86-2.285c-.06-.159.179-.394.375-.304l3.15 1.423c.192.092.172.425.013.485z" display="block" overflow="visible" fill="#f8f1b8" paint-order="fill markers stroke"/><path style="isolation:auto;mix-blend-mode:normal;marker:none" d="M73.27 53.936l8.37-4.833a1.206 1.206 0 0 1 1.651.442l4.833 8.37c.334.58-.442 1.65-1.268 1.43l-13.223-3.526c-.805-.233-.942-1.549-.363-1.883z" display="block" overflow="visible" fill-opacity=".264" paint-order="fill markers stroke"/><path d="M72.784 53.093l8.37-4.833a1.206 1.206 0 0 1 1.65.442l4.833 8.37c.335.58-.442 1.651-1.267 1.43l-13.224-3.526c-.805-.233-.942-1.548-.362-1.883z" style="isolation:auto;mix-blend-mode:normal;marker:none" display="block" overflow="visible" fill="#b6e895" paint-order="fill markers stroke"/><path d="M97.126 56.173l11.662 6.733a1.68 1.68 0 0 1 .616 2.3l-6.733 11.661c-.467.808-2.3.616-2.608-.533l-4.957-18.412c-.28-1.133 1.212-2.215 2.02-1.749z" style="isolation:auto;mix-blend-mode:normal;marker:none" display="block" overflow="visible" fill-opacity=".264" paint-order="fill markers stroke"/><path style="isolation:auto;mix-blend-mode:normal;marker:none" d="M97.803 55l11.662 6.732a1.68 1.68 0 0 1 .616 2.3l-6.733 11.661c-.466.808-2.299.616-2.607-.533l-4.958-18.412c-.279-1.133 1.213-2.215 2.02-1.749z" display="block" overflow="visible" fill="#60d7b5" paint-order="fill markers stroke"/><path d="M75.043 102.82c-.506.358-.543 1.284-.093 1.543l.031.019c-.044-.441.17-.97.642-1.098l11.707-3.153c.31-.076.61.062.831.279-.094-.48-.62-.992-1.165-.857l-11.707 3.152a.77.77 0 0 0-.246.115z" style="isolation:auto;mix-blend-mode:normal;marker:none" display="block" overflow="visible" fill="#fbfefd" fill-opacity=".379" paint-order="fill markers stroke"/><path d="M52.464 83.526c-.657.042-1.307.642-1.206 1.186l.054.288c.23-.59 1.146-1.076 1.786-.637l12.426 8.514c.202.145.32.355.377.586.105-.453.016-.973-.377-1.255l-12.426-8.513a.99.99 0 0 0-.634-.169z" style="isolation:auto;mix-blend-mode:normal;marker:none" display="block" overflow="visible" fill="#fff" fill-opacity=".874" paint-order="fill markers stroke"/><path d="M97.473 54.894c-.823-.09-1.934.863-1.69 1.855l.021.078c.226-.877 1.335-1.542 1.999-1.16l11.663 6.734c.434.25.708.665.801 1.119a1.672 1.672 0 0 0-.801-1.788L97.803 55a.838.838 0 0 0-.33-.105z" style="isolation:auto;mix-blend-mode:normal;marker:none" display="block" overflow="visible" fill="#fff" fill-opacity=".544" paint-order="fill markers stroke"/><circle r=".968" cy="79.987" cx="80.007" style="isolation:auto;mix-blend-mode:normal;marker:none" display="block" overflow="visible" fill="#bde993" paint-order="fill markers stroke"/></g></svg>