<svg xmlns="http://www.w3.org/2000/svg" xmlns:xlink="http://www.w3.org/1999/xlink" height="64" viewBox="0 0 64 64" width="64"><title>Template icons dark</title><defs><linearGradient id="c"><stop offset="0" stop-color="#5299dc"/><stop offset="1" stop-color="#287bc8"/></linearGradient><linearGradient id="b"><stop offset="0" stop-color="#ebebeb"/><stop offset="1" stop-color="#a0afbe"/></linearGradient><linearGradient id="a"><stop offset="0" stop-color="#003783"/><stop offset="1" stop-color="#69e5ff"/></linearGradient><linearGradient xlink:href="#a" id="d" gradientUnits="userSpaceOnUse" x1="120" y1="120" x2="203.055" y2="204"/><linearGradient gradientTransform="translate(-29 -29) scale(.66667)" xlink:href="#c" id="f" x1="181.918" y1="190.647" x2="170.052" y2="165.317" gradientUnits="userSpaceOnUse"/><linearGradient gradientTransform="translate(-29 -29) scale(.66667)" xlink:href="#b" id="e" x1="155.098" y1="157.153" x2="197.653" y2="195.477" gradientUnits="userSpaceOnUse"/></defs><g color="#000"><path style="isolation:auto;mix-blend-mode:normal;marker:none" d="M5 5h50v50H5z" display="block" overflow="visible" fill-opacity=".141" paint-order="fill markers stroke"/><path style="isolation:auto;mix-blend-mode:normal;marker:none" d="M6 6h48.005v48.005H6z" display="block" overflow="visible" fill="#2268ab" paint-order="fill markers stroke"/><path style="isolation:auto;mix-blend-mode:normal;marker:none" d="M22 22h16v16H22z" display="block" overflow="visible" fill="#3d8dd8" paint-order="fill markers stroke"/><path style="isolation:auto;mix-blend-mode:normal;marker:none" d="M22 6h16v16H22z" display="block" overflow="visible" fill="#2777c4" paint-order="fill markers stroke"/><path style="isolation:auto;mix-blend-mode:normal;marker:none" d="M6 6h16v16H6z" display="block" overflow="visible" fill="#1f609e" paint-order="fill markers stroke"/><path style="isolation:auto;mix-blend-mode:normal;marker:none" d="M6 22h16v16H6z" display="block" overflow="visible" fill="#3b83c8" paint-order="fill markers stroke"/><path style="isolation:auto;mix-blend-mode:normal;marker:none" d="M38 22h15.995v16H38z" display="block" overflow="visible" fill="#63a3e0" paint-order="fill markers stroke"/><path style="isolation:auto;mix-blend-mode:normal;marker:none" d="M38 6h15.995v16H38z" display="block" overflow="visible" fill="#3b8bd8" paint-order="fill markers stroke"/><path style="isolation:auto;mix-blend-mode:normal;marker:none" d="M22 38h16v15.995H22z" display="block" overflow="visible" fill="#61a2e0" paint-order="fill markers stroke"/><path style="isolation:auto;mix-blend-mode:normal;marker:none" d="M6 38h16v15.995H6z" display="block" overflow="visible" fill="#4893db" paint-order="fill markers stroke"/><path style="isolation:auto;mix-blend-mode:normal;marker:none" d="M6 53h48.005v.995H6z" display="block" overflow="visible" fill="#fff" fill-opacity=".257" paint-order="fill markers stroke"/><path d="M42.334 24.913a17.42 17.42 0 0 0-.568.02c-.032-.004-.06-.018-.094-.018H25.63a.694.694 0 0 0-.695.695v16.315a17.42 17.42 0 0 0-.02.409 17.42 17.42 0 0 0 17.42 17.42 17.42 17.42 0 0 0 17.42-17.42 17.42 17.42 0 0 0-17.42-17.42z" style="isolation:auto;mix-blend-mode:normal;marker:none" overflow="visible" fill-opacity=".152" paint-order="fill markers stroke"/><path d="M90.334 73.667a16.667 16.667 0 0 0-.543.02c-.031-.005-.058-.019-.09-.019H74.35a.664.664 0 0 0-.665.665v15.61a16.667 16.667 0 0 0-.02.39A16.667 16.667 0 0 0 90.335 107 16.667 16.667 0 0 0 107 90.334a16.667 16.667 0 0 0-16.666-16.667z" style="isolation:auto;mix-blend-mode:normal;marker:none" overflow="visible" fill="url(#e)" paint-order="fill markers stroke" transform="translate(-48 -48)"/><path d="M98.903 90.334a8.57 8.57 0 0 1-8.57 8.569 8.57 8.57 0 0 1-8.569-8.57 8.57 8.57 0 0 1 8.57-8.569 8.57 8.57 0 0 1 8.569 8.57z" style="isolation:auto;mix-blend-mode:normal;marker:none" overflow="visible" fill="url(#f)" paint-order="fill markers stroke" transform="translate(-48 -48)"/><path d="M42.334 33.764a8.57 8.57 0 0 0-8.57 8.57 8.57 8.57 0 0 0 .013.395 8.57 8.57 0 0 1 8.557-8.298 8.57 8.57 0 0 1 8.556 8.173 8.57 8.57 0 0 0 .013-.27 8.57 8.57 0 0 0-8.57-8.57z" style="isolation:auto;mix-blend-mode:normal;marker:none" overflow="visible" fill-opacity=".215" paint-order="fill markers stroke"/><path style="isolation:auto;mix-blend-mode:normal;marker:none" d="M42.334 51.574a8.57 8.57 0 0 1-8.57-8.569 8.57 8.57 0 0 1 .013-.395 8.57 8.57 0 0 0 8.557 8.298 8.57 8.57 0 0 0 8.556-8.173 8.57 8.57 0 0 1 .013.27 8.57 8.57 0 0 1-8.57 8.57z" overflow="visible" fill="#fff" fill-opacity=".597" paint-order="fill markers stroke"/><path d="M25.684 42a16.667 16.667 0 0 0-.017.334A16.667 16.667 0 0 0 42.334 59 16.667 16.667 0 0 0 59 42.334a16.667 16.667 0 0 0-.014-.277 16.667 16.667 0 0 1-16.652 16.277A16.667 16.667 0 0 1 25.684 42z" style="isolation:auto;mix-blend-mode:normal;marker:none" overflow="visible" fill="#fff" fill-opacity=".492" paint-order="fill markers stroke"/><path d="M42 39v3h-3v1h3l.063 3H43v-3h3l.063-1H43v-3z" style="isolation:auto;mix-blend-mode:normal;marker:none" overflow="visible" fill="#fff" fill-opacity=".293" paint-order="fill markers stroke"/></g></svg>