<svg xmlns="http://www.w3.org/2000/svg" xmlns:xlink="http://www.w3.org/1999/xlink" height="64" viewBox="0 0 64 64" width="64"><title>Template icons dark</title><defs><linearGradient id="h"><stop offset="0" stop-color="#2b364a"/><stop offset="1" stop-color="#3a4964"/></linearGradient><linearGradient id="g"><stop offset="0" stop-color="#fff"/><stop offset="1" stop-color="#e1eef4"/></linearGradient><linearGradient id="f"><stop offset="0" stop-color="#fff"/><stop offset="1" stop-color="#dfdfdf" stop-opacity=".984"/></linearGradient><linearGradient id="e"><stop offset="0" stop-color="#009fe8" stop-opacity=".995"/><stop offset="1" stop-color="#0b7ac5" stop-opacity=".995"/></linearGradient><linearGradient id="d"><stop offset="0" stop-color="#d6dee0"/><stop offset="1" stop-color="#fff" stop-opacity=".474"/></linearGradient><linearGradient id="c"><stop offset="0" stop-color="#403d60" stop-opacity=".396"/><stop offset="1" stop-opacity=".073"/></linearGradient><linearGradient id="a"><stop offset="0" stop-color="#c9cfd1"/><stop offset="1" stop-color="#fff"/></linearGradient><linearGradient id="b"><stop offset="0" stop-color="#dce1e8"/><stop offset="1" stop-color="#fff"/></linearGradient><linearGradient xlink:href="#b" id="m" gradientUnits="userSpaceOnUse" gradientTransform="matrix(1.4549 0 0 1.4549 906.338 399.544)" x1="-578.647" y1="-204.784" x2="-578.647" y2="-214.622"/><linearGradient xlink:href="#f" id="l" x1="180" y1="177" x2="180" y2="183.78" gradientUnits="userSpaceOnUse" gradientTransform="translate(-29.555 -25.2) scale(.67666)"/><linearGradient gradientTransform="translate(-29.555 -26.554) scale(.67666)" xlink:href="#h" id="k" x1="181" y1="140" x2="198" y2="122.126" gradientUnits="userSpaceOnUse"/><linearGradient gradientTransform="translate(-29.555 -26.554) scale(.67666)" xlink:href="#e" id="j" x1="200.559" y1="193" x2="125" y2="123.315" gradientUnits="userSpaceOnUse"/><linearGradient gradientTransform="translate(-29.555 -26.554) scale(.67666)" xlink:href="#g" id="i" x1="133" y1="181" x2="191.252" y2="127" gradientUnits="userSpaceOnUse"/></defs><path style="isolation:auto;mix-blend-mode:normal;marker:none" d="M4.027 3.982v56.026H61.03V39.125l-4.596-4.06h-.01V22.208l2.551-2.03V6.983H43.567l-2.03 1.968h-12.18L25.974 3.99v-.008z" color="#000" display="block" overflow="visible" fill="#03070a" fill-opacity=".095"/><path style="isolation:auto;mix-blend-mode:normal;marker:none" d="M55.704 58.028h47.366v46.013H55.704z" color="#000" display="block" overflow="visible" fill="url(#i)" transform="translate(-48 -48)"/><path style="isolation:auto;mix-blend-mode:normal;marker:none" d="M53.991 53.03v53.942h54V87.125H73.975V53.03z" color="#000" overflow="visible" fill="url(#j)" transform="translate(-48 -48)"/><path d="M17.854 5.03h.676v28.008l.677.707v25.227h-.677V33.73l-.676-.692z" style="isolation:auto;mix-blend-mode:normal;marker:none" color="#000" display="block" overflow="visible" fill-opacity=".121"/><path style="isolation:auto;mix-blend-mode:normal;marker:none" d="M13.117 5.03h.677V32.98l-.677.766v25.227h-.677V33.7l.677-.663z" color="#000" display="block" overflow="visible" fill-opacity=".095"/><path d="M41.537 10.028v13.533H55.07l2.03-2.03L43.567 7.998z" style="isolation:auto;mix-blend-mode:normal;marker:none" color="#000" display="block" overflow="visible" fill="#445575"/><path style="isolation:auto;mix-blend-mode:normal;marker:none" d="M41.537 10.028v13.533l8.12-8.71-6.09-6.853z" color="#000" display="block" overflow="visible" fill="#778bb0"/><path style="isolation:auto;mix-blend-mode:normal;marker:none" d="M91.567 55.998v13.533H105.1V55.998z" color="#000" display="block" overflow="visible" fill="url(#k)" transform="translate(-48 -48)"/><path d="M25.968 5.03l3.389 4.998v25.713l-3.383 3.384z" fill="#6bafdf" fill-rule="evenodd"/><path d="M59.992 39.125L55.07 35.74H29.357l-3.383 3.384z" fill="#055fb0" fill-rule="evenodd"/><path style="isolation:auto;mix-blend-mode:normal;marker:none" d="M47.627 12.058h5.413v5.413h-5.413z" color="#000" display="block" overflow="visible" fill="#fff" fill-opacity=".947"/><path style="isolation:auto;mix-blend-mode:normal;marker:none" d="M34.163 46.568h20.161c.413 0 .746.333.746.746v3.921a.744.744 0 0 1-.746.746H34.163a.744.744 0 0 1-.746-.746v-3.921c0-.413.332-.746.746-.746z" color="#000" display="block" overflow="visible" fill-opacity=".216"/><path style="isolation:auto;mix-blend-mode:normal;marker:none" d="M82.163 93.891h20.161c.413 0 .746.333.746.746v3.922a.744.744 0 0 1-.746.745H82.163a.744.744 0 0 1-.746-.745v-3.922c0-.413.332-.746.746-.746z" color="#000" display="block" overflow="visible" fill="url(#l)" transform="translate(-48 -48)"/><path d="M46.334 46.9c-.234 0-.45.048-.65.139a1.631 1.631 0 0 0-.865.899 1.867 1.867 0 0 0 0 1.33c.085.21.198.39.34.545.145.155.314.277.507.365.196.089.405.133.626.133.357 0 .669-.134.937-.403v.38h.54v-1.73h-1.217v.48h.677v.235c-.262.307-.556.46-.881.46a.938.938 0 0 1-.398-.085c-.12-.06-.224-.141-.312-.242a1.13 1.13 0 0 1-.21-.354 1.296 1.296 0 0 1-.074-.446 1.238 1.238 0 0 1 .26-.791.942.942 0 0 1 .303-.245c.12-.06.251-.091.393-.091a.97.97 0 0 1 .498.133.902.902 0 0 1 .36.383l.487-.36a1.284 1.284 0 0 0-.511-.535 1.563 1.563 0 0 0-.81-.2zm-11.523.025l1.36 3.362h.55l.582-1.412.582 1.412h.55l1.37-3.362h-.712l-.952 2.614-.426-1.076.573-1.529h-.606l-.379 1.113-.38-1.113h-.6l.563 1.53-.416 1.075-.958-2.614zm5.338 0v3.362h.654v-3.362zm1.35 0v3.362h1.223c.252 0 .48-.04.682-.118.205-.082.38-.195.525-.34a1.48 1.48 0 0 0 .331-.53 1.96 1.96 0 0 0 .119-.698c0-.23-.035-.447-.105-.65a1.486 1.486 0 0 0-.312-.534 1.476 1.476 0 0 0-.52-.36 1.805 1.805 0 0 0-.72-.132zm6.827 0v3.362h2.336v-.572H48.98v-.877h1.417v-.53H48.98v-.81h1.638v-.573zm2.565 0v.573h1.075v2.79h.65v-2.79h1.074v-.573zm-8.739.573h.57c.158 0 .298.027.421.08a.855.855 0 0 1 .317.227 1 1 0 0 1 .195.351c.044.136.065.284.065.445 0 .158-.021.306-.065.441-.044.136-.11.253-.195.355a.861.861 0 0 1-.312.232 1.007 1.007 0 0 1-.426.086h-.57z" style="line-height:1000%;-inkscape-font-specification:'Raleway Bold'" font-weight="700" font-family="Raleway" letter-spacing="0" word-spacing="0" fill="#8489b6" fill-opacity=".984"/><path d="M45.618 10.05h9.43v9.43h-9.43z" style="isolation:auto;mix-blend-mode:normal;marker:none" color="#000" display="block" overflow="visible" fill="none" stroke="#fff" stroke-width=".351" stroke-linecap="round" stroke-dasharray=".3508371,1.4033484" stroke-opacity=".663"/><path style="isolation:auto;mix-blend-mode:normal;marker:none" d="M9.057 5.03H22.59v28.681H9.057z" color="#000" display="block" overflow="visible" fill="#07113c" fill-opacity=".289"/><path style="line-height:normal;font-variant-ligatures:normal;font-variant-position:normal;font-variant-caps:normal;font-variant-numeric:normal;font-variant-alternates:normal;font-feature-settings:normal;text-indent:0;text-align:start;text-decoration-line:none;text-decoration-style:solid;text-decoration-color:#000;text-transform:none;text-orientation:mixed;shape-padding:0;isolation:auto;mix-blend-mode:normal;marker:none" d="M9.057 5.03v28.681H22.59V5.031zm.677 0h12.18v28.005H9.734z" color="#000" font-weight="400" font-family="sans-serif" white-space="normal" display="block" overflow="visible" fill-opacity=".132"/><path d="M7.73 47.509a8.4 8.4 0 1 0 16.799 0 8.4 8.4 0 0 0-16.799 0z" fill-opacity=".157"/><path d="M71.798 94.778a7.669 7.669 0 1 1-15.338 0 7.669 7.669 0 0 1 15.338 0z" fill="url(#m)" transform="translate(-48 -48)"/><path d="M23.45 46.778a7.32 7.32 0 1 1-14.64 0 7.32 7.32 0 0 1 14.64 0z" fill="none" stroke="#fff" stroke-width=".697" stroke-miterlimit="4.6" stroke-opacity=".237"/><path style="isolation:auto;mix-blend-mode:normal;marker:none" d="M12.953 42.74l-.957.957 2.87 2.87-2.87 2.871.957.957 2.87-2.87 2.871 2.87.957-.957-2.87-2.87 2.87-2.87-.957-.957-2.87 2.87z" color="#000" display="block" overflow="visible" fill="#6162b1" fill-opacity=".379"/><path d="M30.71 10.705v4.06h1.353v-2.707h1.354v-1.353zm0 20.3v4.06h3.383V33.71h-2.03v-2.706zm22.33 1.353v1.353h-2.03v1.354h3.383v-2.707z" fill="#576d95" fill-rule="evenodd"/><path d="M38.83 10.028v16.24l16.24-.01V23.56H41.537V10.028z" fill="#fff" fill-rule="evenodd"/><path d="M48.98 13.412h2.707v2.706H48.98z" style="isolation:auto;mix-blend-mode:normal;marker:none" color="#000" display="block" overflow="visible" fill="none" stroke="#63b5ff" stroke-width=".338"/><path style="isolation:auto;mix-blend-mode:normal;marker:none" d="M37.477 28.975h10.016c.75 0 1.354.603 1.354 1.353a1.35 1.35 0 0 1-1.354 1.353H37.477a1.35 1.35 0 0 1-1.354-1.353c0-.75.604-1.353 1.354-1.353z" color="#000" display="block" overflow="visible" fill="#93afd5" fill-opacity=".668"/><path d="M33.637 16.118l-.43.431 1.292 1.293-1.293 1.293.431.431 1.293-1.293 1.293 1.293.43-.431-1.292-1.293 1.293-1.293-.431-.43-1.293 1.292zM33.637 21.945l-.43.431 1.292 1.293-1.293 1.293.431.431L34.93 24.1l1.293 1.293.43-.43-1.292-1.294 1.293-1.293-.431-.43-1.293 1.292z" style="isolation:auto;mix-blend-mode:normal;marker:none" color="#000" display="block" overflow="visible" fill="#3f4ec6" fill-opacity=".668"/><path style="isolation:auto;mix-blend-mode:normal;marker:none" d="M36.171 29.99a1.35 1.35 0 0 0-.048.338c0 .75.604 1.353 1.354 1.353h10.016a1.35 1.35 0 0 0 1.354-1.353c0-.118-.02-.23-.048-.338a1.346 1.346 0 0 1-1.306 1.015H37.477a1.346 1.346 0 0 1-1.306-1.015z" color="#000" display="block" overflow="visible" fill-opacity=".137"/><path d="M36.171 29.996a1.35 1.35 0 0 1-.048-.339c0-.75.604-1.353 1.354-1.353h10.016c.75 0 1.354.604 1.354 1.353 0 .118-.02.23-.048.339a1.346 1.346 0 0 0-1.306-1.015H37.477c-.632 0-1.156.43-1.306 1.015z" style="isolation:auto;mix-blend-mode:normal;marker:none" color="#000" display="block" overflow="visible" fill="#fff" fill-opacity=".684"/></svg>