<svg xmlns="http://www.w3.org/2000/svg" xmlns:xlink="http://www.w3.org/1999/xlink" height="64" viewBox="0 0 64 64" width="64"><title>Template icons dark</title><defs><linearGradient id="c"><stop offset="0" stop-color="#db4ca1"/><stop offset="1" stop-color="#8e3592" stop-opacity=".996"/></linearGradient><linearGradient id="f"><stop offset="0" stop-color="#23acff"/><stop offset="1" stop-color="#7647d8" stop-opacity=".996"/></linearGradient><linearGradient id="e"><stop offset="0" stop-color="#08ffe8"/><stop offset="1" stop-color="#8abdec"/></linearGradient><linearGradient id="a"><stop offset="0" stop-color="#fff" stop-opacity=".427"/><stop offset=".423" stop-color="#fafcfe"/><stop offset="1" stop-color="#fff" stop-opacity=".49"/></linearGradient><linearGradient id="b"><stop offset="0" stop-color="#fe50b8"/><stop offset="1" stop-color="#722f98" stop-opacity=".995"/></linearGradient><linearGradient id="d"><stop offset="0" stop-color="#fff" stop-opacity=".179"/><stop offset="1" stop-color="#fff" stop-opacity=".795"/></linearGradient><linearGradient xlink:href="#b" id="h" gradientUnits="userSpaceOnUse" gradientTransform="translate(0 .338)" x1="16.791" y1="294.048" x2="16.839" y2="271.451"/><linearGradient xlink:href="#b" id="i" gradientUnits="userSpaceOnUse" gradientTransform="translate(0 .338)" x1="16.791" y1="294.048" x2="16.839" y2="271.451"/><linearGradient xlink:href="#b" id="j" gradientUnits="userSpaceOnUse" gradientTransform="translate(0 .338)" x1="16.791" y1="294.048" x2="16.839" y2="271.451"/><linearGradient xlink:href="#f" id="k" gradientUnits="userSpaceOnUse" gradientTransform="translate(0 .338)" x1="16.967" y1="277.049" x2="16.967" y2="264.621"/><linearGradient xlink:href="#e" id="l" gradientUnits="userSpaceOnUse" gradientTransform="translate(0 .338)" x1="17.244" y1="286.28" x2="30.792" y2="276.804"/><linearGradient xlink:href="#c" id="m" gradientUnits="userSpaceOnUse" gradientTransform="translate(0 .338)" x1="16.791" y1="294.048" x2="3.857" y2="275.45"/><linearGradient xlink:href="#b" id="g" gradientUnits="userSpaceOnUse" x1="16.791" y1="294.048" x2="16.839" y2="271.451"/><linearGradient xlink:href="#d" id="o" gradientUnits="userSpaceOnUse" gradientTransform="translate(0 .338)" x1="16.721" y1="296.202" x2="17.087" y2="265.977"/><linearGradient xlink:href="#d" id="p" gradientUnits="userSpaceOnUse" gradientTransform="translate(0 .338)" x1="16.721" y1="296.202" x2="17.087" y2="265.977"/><linearGradient xlink:href="#d" id="q" gradientUnits="userSpaceOnUse" gradientTransform="translate(0 .338)" x1="16.721" y1="296.202" x2="17.087" y2="265.977"/><linearGradient xlink:href="#d" id="r" gradientUnits="userSpaceOnUse" gradientTransform="translate(0 .338)" x1="16.721" y1="296.202" x2="17.087" y2="265.977"/><linearGradient xlink:href="#d" id="n" gradientUnits="userSpaceOnUse" x1="16.721" y1="296.202" x2="17.087" y2="265.977"/></defs><g transform="matrix(1.9995 0 0 1.9995 -2.322 -528.28)" style="isolation:auto;mix-blend-mode:normal;marker:none" color="#000" overflow="visible" fill="url(#g)" stroke-width=".265" stroke-opacity=".984"><path d="M2.483 268.31v16.01l14.463-5.115v-14.178z" fill="url(#h)"/><path d="M2.483 284.32l14.45 11.235 14.46-11.247-14.447-5.103z" fill="url(#i)" fill-rule="evenodd"/><path d="M16.946 265.027l14.448 3.278v16.003l-14.448-5.103z" fill="url(#j)" fill-rule="evenodd"/><path d="M2.483 268.31l14.45 7.945 14.46-7.95-14.447-3.278z" fill="url(#k)"/><path d="M16.932 276.255v19.3l14.462-11.247v-16.003z" fill="url(#l)" fill-rule="evenodd"/><path d="M2.483 268.31l14.45 7.945v19.3L2.482 284.32z" fill="url(#m)" fill-rule="evenodd"/></g><g transform="matrix(1.9995 0 0 1.9995 -2.322 -528.28)" style="isolation:auto;mix-blend-mode:normal;marker:none" color="#000" overflow="visible" fill="none" stroke="url(#n)" stroke-width=".265" stroke-opacity=".142"><path d="M2.483 284.32l14.45 11.235 14.46-11.247-14.447-5.267z" stroke="url(#o)" stroke-linejoin="round"/><path d="M2.483 268.31l14.45 7.781 14.46-7.786-14.447-3.278z" stroke="url(#p)"/><path d="M16.932 276.091v19.464l14.462-11.247v-16.003z" stroke="url(#q)" stroke-linejoin="round"/><path d="M2.483 268.31l14.45 7.781v19.464L2.482 284.32z" stroke="url(#r)" stroke-linejoin="round"/></g><path style="line-height:1000%;-inkscape-font-specification:Raleway" d="M12.9 26.138l-.012.983 2.284 1.669-.131 10.282.633.461.132-10.282 2.284 1.668.013-.983zm11.313 8.277l-3.615 3.977.083-6.536-.631-.46-.144 11.247.632.46.044-3.46 1.238-1.322 2.385 7.459.695.506-2.675-8.326 2.683-3.038zM8.845 23.47c-.427-.312-.824-.44-1.189-.387-.365.043-.683.231-.954.567-.272.325-.488.779-.647 1.356-.153.582-.234 1.247-.244 1.998-.009.719.056 1.478.198 2.275.142.787.342 1.548.6 2.28.264.737.575 1.403.932 1.994.363.596.762 1.053 1.195 1.369.777.568 1.47.489 2.08-.23l-.02 1.653.532.388.071-5.538-1.96-1.43-.01.857 1.426 1.04-.024 1.874c-.315.431-.643.677-.984.738-.334.055-.686-.052-1.053-.32-.343-.25-.662-.61-.954-1.08a8.594 8.594 0 0 1-.744-1.568 11.834 11.834 0 0 1-.496-1.883 10.647 10.647 0 0 1-.157-1.94c.007-.604.069-1.146.184-1.628.116-.491.276-.882.48-1.171.211-.295.459-.471.745-.53.292-.053.617.052.972.312.428.312.807.754 1.14 1.328.333.574.6 1.285.802 2.136l.494-.216c-.097-.434-.22-.854-.366-1.26a7.056 7.056 0 0 0-.515-1.16 5.767 5.767 0 0 0-.679-1.007 4.6 4.6 0 0 0-.855-.817z" font-weight="400" font-family="Raleway" letter-spacing="0" word-spacing="0" opacity=".446" fill="#fff" stroke="#fff" stroke-width=".752"/></svg>