<svg xmlns="http://www.w3.org/2000/svg" xmlns:xlink="http://www.w3.org/1999/xlink" height="64" viewBox="0 0 64 64" width="64"><title>Template icons dark</title><defs><linearGradient id="g"><stop offset="0" stop-color="#1d6e99"/><stop offset="1" stop-color="#f93000"/></linearGradient><linearGradient id="f"><stop offset="0" stop-color="#492f46" stop-opacity=".71"/><stop offset="1" stop-color="#3c3543" stop-opacity=".368"/></linearGradient><linearGradient id="h"><stop offset="0" stop-opacity=".511"/><stop offset="1" stop-opacity=".269"/></linearGradient><linearGradient id="a"><stop offset="0" stop-color="#313131" stop-opacity=".51"/><stop offset=".6" stop-color="#dfdfdf" stop-opacity=".761"/><stop offset="1" stop-color="#fff"/></linearGradient><linearGradient id="b"><stop offset="0" stop-color="#bcbcbc"/><stop offset="1" stop-color="#fff"/></linearGradient><linearGradient id="c"><stop offset="0" stop-color="#eee"/><stop offset=".413" stop-color="#a2a2a2"/><stop offset=".495" stop-color="#707070"/><stop offset=".53" stop-color="#838383"/><stop offset="1" stop-color="#d2d2d2"/></linearGradient><linearGradient id="d"><stop offset="0" stop-color="#353d5a" stop-opacity=".813"/><stop offset="1" stop-color="#a33284" stop-opacity=".588"/></linearGradient><linearGradient id="e"><stop offset="0" stop-color="#54546a"/><stop offset="1" stop-color="#5a6480"/></linearGradient><linearGradient xlink:href="#e" id="i" gradientUnits="userSpaceOnUse" gradientTransform="translate(22.317 -1105.786) scale(1.18115)" x1="49.679" y1="1012.168" x2="28.449" y2="1012.168"/><linearGradient xlink:href="#g" id="j" gradientUnits="userSpaceOnUse" gradientTransform="translate(22.309 -1105.741) scale(1.18115)" x1="55.554" y1="1018.555" x2="6.881" y2="979.09"/><linearGradient xlink:href="#b" id="k" x1="48.24" y1="22.745" x2="48.24" y2="-17.955" gradientUnits="userSpaceOnUse" gradientTransform="translate(45.908 75.852) scale(.7089)"/><linearGradient xlink:href="#a" id="l" gradientUnits="userSpaceOnUse" gradientTransform="matrix(.58589 0 0 .58589 51.755 -510.88)" x1="48.843" y1="994.453" x2="48.843" y2="1014.97"/><linearGradient xlink:href="#d" id="m" gradientUnits="userSpaceOnUse" gradientTransform="translate(22.317 -1105.786) scale(1.18115)" x1="50.104" y1="1012.168" x2="73.355" y2="1012.168"/><linearGradient xlink:href="#c" id="n" x1="43.116" y1="25.526" x2="1.463" y2="25.526" gradientUnits="userSpaceOnUse" gradientTransform="translate(48.634 44.525) scale(1.39117)"/></defs><path d="M31.567 1.346C21.07 1.536 2.755 8.838 2.755 13.69l-.11 18.348c0 12.63 20.797 30.328 29.143 30.617h.258c8.346-.29 29.18-17.988 29.18-30.617l-.184-18.348c0-4.852-18.278-12.158-28.775-12.343-.135-.002-.31 0-.442 0h-.258z" fill="none" stroke="#000" stroke-width="2.69" stroke-opacity=".115"/><path d="M79.566 49.29c-10.517.19-28.864 7.506-28.864 12.366l-.11 18.381c0 12.653 20.835 30.383 29.196 30.673h.258c8.361-.29 29.234-18.02 29.234-30.673l-.185-18.381c0-4.862-18.311-12.18-28.827-12.365-.136-.003-.31 0-.443 0-.089 0-.17-.002-.259 0z" fill="url(#i)" transform="translate(-48 -48)"/><path d="M79.558 49.335C69.04 49.524 50.693 56.84 50.693 61.7l-.11 18.382c0 12.652 20.835 30.383 29.196 30.673h.259c8.36-.29 29.233-18.02 29.233-30.673l-.184-18.382c0-4.861-18.312-12.18-28.828-12.365-.135-.003-.31 0-.443 0h-.258z" fill="url(#j)" transform="translate(-48 -48)"/><path d="M31.567 1.29C21.05 1.48 2.703 8.796 2.703 13.656l-.111 18.383c0 5.31 3.675 11.513 8.553 16.948A56.073 52.7 0 0 1 60.87 12.684C58.755 7.877 42.103 1.464 32.268 1.29c-.136-.003-.31 0-.443 0-.089 0-.17-.002-.258 0z" fill="#a3eaf1" fill-opacity=".187"/><path style="isolation:auto;mix-blend-mode:normal;marker:none" d="M46.951 14.578c7.98 7.98.7 3.745.7 15.03 0 11.286 7.28 7.052-.7 15.031-7.98 7.98-3.745.7-15.03.7-11.286 0-7.051 7.28-15.031-.7s-.7-3.745-.7-15.03c0-11.286-7.28-7.051.7-15.031s3.745-.7 15.03-.7c11.286 0 7.051-7.28 15.031.7z" color="#000" overflow="visible" fill="none" stroke="#000" stroke-linecap="square" stroke-miterlimit="3.7" stroke-opacity=".286" paint-order="markers stroke fill"/><path style="isolation:auto;mix-blend-mode:normal;marker:none" d="M46.951 14.578c7.98 7.98.7 3.745.7 15.03 0 11.286 7.28 7.052-.7 15.031-7.98 7.98-3.745.7-15.03.7-11.286 0-7.051 7.28-15.031-.7s-.7-3.745-.7-15.03c0-11.286-7.28-7.051.7-15.031s3.745-.7 15.03-.7c11.286 0 7.051-7.28 15.031.7z" color="#000" overflow="visible" fill="#d5d5d5" paint-order="markers stroke fill"/><path d="M31.935 14.214A16.437 16.437 0 0 1 48.41 30.688a16.437 16.437 0 0 1-16.474 16.473 16.437 16.437 0 0 1-16.473-16.473 16.437 16.437 0 0 1 16.473-16.474z" fill-opacity=".357"/><path d="M79.935 61.506A16.437 16.437 0 0 1 96.41 77.979a16.437 16.437 0 0 1-16.474 16.474 16.437 16.437 0 0 1-16.473-16.474 16.437 16.437 0 0 1 16.473-16.473z" fill="url(#k)" transform="translate(-48 -48)"/><path style="isolation:auto;mix-blend-mode:normal;marker:none" d="M86.486 78a6.55 6.55 0 0 1-6.55 6.55 6.55 6.55 0 0 1-6.55-6.55 6.55 6.55 0 0 1 6.55-6.55 6.55 6.55 0 0 1 6.55 6.55z" color="#000" overflow="visible" fill="url(#l)" transform="translate(-48 -48)"/><path style="isolation:auto;mix-blend-mode:normal;marker:none" d="M30 20h5v12l-2 2 2 2v3h-5V27l1-2-1-2z" color="#000" overflow="visible" fill="#494949"/><path d="M79.989 49.29v61.42H80.045c8.361-.29 29.234-18.02 29.234-30.673l-.183-18.382c0-4.861-18.313-12.18-28.83-12.365h-.277z" opacity=".439" fill="url(#m)" transform="translate(-48 -48)"/><path d="M79.575 49.985c-10.28.185-28.212 7.336-28.212 12.086l-.108 17.965c0 12.367 20.364 29.696 28.536 29.98h.253c8.172-.284 28.572-17.613 28.572-29.98l-.18-17.965c0-4.752-17.898-11.905-28.176-12.086-.132-.003-.303 0-.433 0h-.252z" fill="none" stroke="url(#n)" stroke-width="2.634" transform="translate(-48 -48)"/><path style="line-height:normal;font-variant-ligatures:normal;font-variant-position:normal;font-variant-caps:normal;font-variant-numeric:normal;font-variant-alternates:normal;font-feature-settings:normal;text-indent:0;text-align:start;text-decoration-line:none;text-decoration-style:solid;text-decoration-color:#000;text-transform:none;text-orientation:mixed;shape-padding:0;isolation:auto;mix-blend-mode:normal" d="M31.558 1.335l.017 1.967-.013-1.967h-.004zm.035 1.967l-.023.002.005.665-.007-.665c-4.847.093-11.823 1.883-17.448 4.228-2.817 1.174-5.309 2.49-7.02 3.737-1.71 1.245-2.42 2.443-2.42 2.802v.004l-.108 17.962c0 .022.004.045.004.067l.104-17.363v-.004c0-.359.71-1.556 2.42-2.802 1.711-1.245 4.203-2.562 7.02-3.737 5.634-2.348 12.625-4.14 17.473-4.229H31.828c.145 0 .312-.002.41 0 4.847.085 11.83 1.877 17.457 4.227 2.813 1.174 5.3 2.492 7.007 3.738 1.707 1.246 2.417 2.442 2.417 2.803v.007l.174 17.4c0-.035.005-.071.005-.106l-.18-17.96v-.007c0-.361-.709-1.558-2.416-2.804-1.707-1.246-4.194-2.563-7.008-3.738-5.626-2.35-12.61-4.141-17.457-4.227-.097-.002-.264 0-.41 0h-.234z" color="#000" font-weight="400" font-family="sans-serif" white-space="normal" overflow="visible" fill="#060606" fill-opacity=".451"/><path d="M31.935 13.505A16.438 16.438 0 0 0 15.462 29.98c0 .112.007.222.009.334a16.433 16.433 0 0 1 16.464-16.14c9.015 0 16.288 7.17 16.465 16.14.002-.112.01-.222.01-.334a16.438 16.438 0 0 0-16.475-16.474z" fill="#fff" fill-opacity=".758"/></svg>