<svg xmlns="http://www.w3.org/2000/svg" xmlns:xlink="http://www.w3.org/1999/xlink" height="64" viewBox="0 0 64 64" width="64"><title>Template icons dark</title><defs><linearGradient id="e"><stop offset="0" stop-color="#6e685c"/><stop offset="1" stop-color="#7f6a7f"/></linearGradient><linearGradient id="d"><stop offset="0" stop-opacity=".022"/><stop offset="1" stop-color="#111" stop-opacity=".551"/></linearGradient><linearGradient id="c"><stop offset="0" stop-color="#262532"/><stop offset="1" stop-color="#39343d"/></linearGradient><linearGradient id="b"><stop offset="0" stop-color="#f75100"/><stop offset="1" stop-color="#ffae11"/></linearGradient><linearGradient id="a"><stop offset="0" stop-color="#23211d"/><stop offset="1" stop-color="#3f474b"/></linearGradient><linearGradient gradientTransform="translate(-26.667 -26.667) scale(.66667)" xlink:href="#c" id="f" gradientUnits="userSpaceOnUse" x1="165.575" y1="196.64" x2="165.575" y2="124"/><linearGradient gradientTransform="translate(-26.667 -26.667) scale(.66667)" xlink:href="#b" id="g" x1="160" y1="182.114" x2="160" y2="138" gradientUnits="userSpaceOnUse"/><linearGradient xlink:href="#d" id="h" gradientUnits="userSpaceOnUse" gradientTransform="matrix(-.66667 0 0 .66667 186.652 -26.667)" x1="162.536" y1="165" x2="171.252" y2="173"/><linearGradient xlink:href="#d" id="i" gradientUnits="userSpaceOnUse" x1="157.441" y1="165" x2="152.504" y2="178" gradientTransform="matrix(-.66667 0 0 .66667 186.652 -26.667)"/><linearGradient xlink:href="#d" id="j" gradientUnits="userSpaceOnUse" x1="157.441" y1="165" x2="152.504" y2="178" gradientTransform="matrix(.66667 0 0 -.66667 -26.667 187.614)"/><linearGradient xlink:href="#d" id="k" gradientUnits="userSpaceOnUse" gradientTransform="translate(186.652 187.614) scale(.66667)" x1="157.441" y1="165" x2="152.504" y2="178"/></defs><path d="M64 32c0 2.24-14.06 26.593-16 27.713-1.94 1.12-30.06 1.12-32 0C14.06 58.593 0 34.24 0 32 0 29.76 14.06 5.407 16 4.287c1.94-1.12 30.06-1.12 32 0C49.94 5.407 64 29.76 64 32z" style="isolation:auto;mix-blend-mode:normal;marker:none" color="#000" display="block" overflow="visible" fill-opacity=".423" paint-order="fill markers stroke"/><path style="isolation:auto;mix-blend-mode:normal;marker:none" d="M111.334 80c0 2.193-13.768 26.039-15.667 27.136-1.9 1.096-29.434 1.096-31.334 0-1.9-1.097-15.667-24.943-15.667-27.136 0-2.193 13.768-26.039 15.667-27.136 1.9-1.096 29.434-1.096 31.334 0 1.9 1.097 15.667 24.943 15.667 27.136z" color="#000" display="block" overflow="visible" fill="url(#f)" paint-order="fill markers stroke" transform="translate(-48 -48)"/><path d="M58.667 32c0 1.867-11.717 22.16-13.334 23.094-1.616.934-25.05.934-26.666 0C17.05 54.161 5.333 33.867 5.333 32c0-1.867 11.717-22.16 13.334-23.094 1.616-.934 25.05-.934 26.666 0C46.95 9.839 58.667 30.133 58.667 32z" style="isolation:auto;mix-blend-mode:normal;marker:none" color="#000" display="block" overflow="visible" fill="#f6f5f4" fill-opacity=".099" paint-order="fill markers stroke"/><path style="isolation:auto;mix-blend-mode:normal;marker:none" d="M55.333 32c0 1.633-10.252 19.39-11.666 20.207-1.415.817-21.92.817-23.334 0C18.92 51.391 8.666 33.633 8.666 32c0-1.633 10.253-19.39 11.667-20.207 1.415-.817 21.92-.817 23.334 0C45.08 12.609 55.333 30.367 55.333 32z" color="#000" display="block" overflow="visible" fill="#f6f5f4" fill-opacity=".099" paint-order="fill markers stroke"/><path d="M32 4.041c-7.359 0-14.717.275-15.667.823C14.433 5.961.666 29.807.666 32c0 .08.024.198.06.333.935-3.58 13.777-25.745 15.607-26.802 1.9-1.097 29.434-1.097 31.334 0 1.83 1.057 14.672 23.222 15.608 26.802.035-.135.059-.253.059-.333 0-2.193-13.768-26.039-15.667-27.136-.95-.548-8.308-.823-15.667-.823z" style="isolation:auto;mix-blend-mode:normal;marker:none" color="#000" overflow="visible" fill="#f5deb2" fill-opacity=".247" paint-order="fill markers stroke"/><path style="line-height:normal;font-variant-ligatures:normal;font-variant-position:normal;font-variant-caps:normal;font-variant-numeric:normal;font-variant-alternates:normal;font-feature-settings:normal;text-indent:0;text-align:start;text-decoration-line:none;text-decoration-style:solid;text-decoration-color:#000;text-transform:none;text-orientation:mixed;shape-padding:0;isolation:auto;mix-blend-mode:normal;marker:none" d="M32 16.009c-2.106 0-4.209.037-5.887.115-.839.038-1.567.087-2.17.15-.3.033-.567.068-.83.118-.263.05-.461.036-.988.332-.527.295-.617.47-.793.667a9.63 9.63 0 0 0-.52.639 35.49 35.49 0 0 0-1.218 1.749 125.827 125.827 0 0 0-3.046 4.893 125.242 125.242 0 0 0-2.84 5.006 35.229 35.229 0 0 0-.952 1.9c-.121.27-.224.51-.31.757-.088.246-.199.408-.199.998 0 .591.111.753.198.999.087.246.19.488.311.757.244.537.567 1.174.952 1.9.77 1.449 1.787 3.235 2.84 5.006a143.8 143.8 0 0 0 2.003 3.262l-2.784 8.073 7.044-3.112c.104.021.202.038.302.057.263.05.53.085.83.117.603.064 1.331.112 2.17.151 1.678.078 3.78.115 5.887.115 2.106 0 4.208-.037 5.885-.115a37.683 37.683 0 0 0 2.171-.151c.3-.032.568-.067.83-.117.264-.05.462-.037.99-.332.526-.296.616-.47.792-.667.176-.196.34-.402.52-.64.357-.473.764-1.062 1.218-1.748a125.836 125.836 0 0 0 3.046-4.893 125.25 125.25 0 0 0 2.84-5.007c.385-.725.707-1.362.95-1.9a9.47 9.47 0 0 0 .313-.756c.087-.246.198-.408.198-.999 0-.59-.111-.752-.198-.998a9.468 9.468 0 0 0-.313-.757 35.108 35.108 0 0 0-.95-1.9 125.25 125.25 0 0 0-2.84-5.006 125.853 125.853 0 0 0-3.046-4.893 35.498 35.498 0 0 0-1.218-1.75 9.633 9.633 0 0 0-.52-.638c-.176-.196-.266-.372-.793-.667-.527-.296-.725-.282-.988-.332-.263-.05-.53-.085-.831-.117a37.678 37.678 0 0 0-2.17-.151c-1.678-.078-3.78-.115-5.886-.115zm0 3.941c2.056 0 4.116.038 5.694.111.228.01.35.027.556.04l-6.285 9.356-6.363-9.348c.253-.015.415-.034.704-.048 1.578-.073 3.638-.11 5.694-.11zm9.938 3.44a137.34 137.34 0 0 1 1.998 3.252 122.497 122.497 0 0 1 2.749 4.842c.362.682.656 1.27.842 1.681.035.077.044.105.07.168-.026.063-.035.091-.07.168-.186.411-.48 1-.842 1.681a122.497 122.497 0 0 1-2.749 4.843 132.267 132.267 0 0 1-2.272 3.678l-6.73-9.887zm-19.948.114l7.033 10.332-6.658 9.911a131.739 131.739 0 0 1-2.301-3.722 122.497 122.497 0 0 1-2.749-4.843 32.365 32.365 0 0 1-.842-1.68c-.035-.078-.044-.106-.07-.169.026-.063.035-.09.07-.168.186-.41.48-.999.842-1.68.724-1.364 1.72-3.114 2.749-4.843a138.923 138.923 0 0 1 1.926-3.138zm10.002 14.691l5.724 8.41h-.022c-1.578.074-3.638.111-5.694.111-2.042 0-4.085-.037-5.659-.11z" color="#000" font-weight="400" font-family="sans-serif" white-space="normal" display="block" overflow="visible" fill-opacity=".214" paint-order="fill markers stroke"/><path style="line-height:normal;font-variant-ligatures:normal;font-variant-position:normal;font-variant-caps:normal;font-variant-numeric:normal;font-variant-alternates:normal;font-feature-settings:normal;text-indent:0;text-align:start;text-decoration-line:none;text-decoration-style:solid;text-decoration-color:#000;text-transform:none;text-orientation:mixed;shape-padding:0;isolation:auto;mix-blend-mode:normal;marker:none" d="M80 62.676c-2.106 0-4.209.037-5.887.114-.839.04-1.567.087-2.17.151-.3.032-.567.068-.83.117-.263.05-.461.037-.988.333-.527.295-.617.47-.793.666a9.63 9.63 0 0 0-.52.64 35.49 35.49 0 0 0-1.218 1.748 125.827 125.827 0 0 0-3.046 4.893 125.242 125.242 0 0 0-2.84 5.007 35.23 35.23 0 0 0-.952 1.9c-.121.269-.224.51-.31.756-.088.246-.199.408-.199.999 0 .59.111.753.198.999.087.246.19.487.311.756.244.538.567 1.175.952 1.9.77 1.45 1.787 3.236 2.84 5.007a144.12 144.12 0 0 0 1.986 3.234l-2.744 8.77 6.884-3.814c.168.05.296.062.44.09.262.05.53.085.83.117.602.064 1.33.112 2.17.15 1.677.078 3.78.115 5.886.115 2.106 0 4.208-.037 5.885-.114a37.683 37.683 0 0 0 2.171-.151c.3-.032.568-.068.83-.117.264-.05.462-.037.989-.333.527-.295.617-.47.793-.666.176-.196.34-.403.52-.64.357-.473.764-1.062 1.218-1.748a125.836 125.836 0 0 0 3.046-4.893 125.249 125.249 0 0 0 2.84-5.007c.385-.725.707-1.362.95-1.9a9.47 9.47 0 0 0 .313-.756c.087-.246.198-.408.198-.999 0-.59-.111-.753-.198-.999a9.468 9.468 0 0 0-.313-.756 35.11 35.11 0 0 0-.95-1.9 125.25 125.25 0 0 0-2.84-5.007 125.852 125.852 0 0 0-3.046-4.893 35.498 35.498 0 0 0-1.218-1.748 9.632 9.632 0 0 0-.52-.64c-.176-.196-.266-.371-.793-.666-.527-.296-.725-.283-.988-.333-.263-.05-.53-.085-.831-.117a37.678 37.678 0 0 0-2.17-.15c-1.678-.078-3.78-.115-5.886-.115zm0 3.941c2.056 0 4.116.038 5.694.11.228.011.35.028.556.04l-6.285 9.357-6.363-9.348c.253-.016.415-.035.704-.048 1.578-.073 3.638-.11 5.694-.11zm9.938 3.44a137.343 137.343 0 0 1 1.998 3.252 122.496 122.496 0 0 1 2.749 4.842c.362.682.656 1.27.842 1.681.035.077.044.105.07.168-.026.063-.035.09-.07.168-.186.411-.48 1-.842 1.681a122.497 122.497 0 0 1-2.749 4.842 132.267 132.267 0 0 1-2.272 3.679l-6.73-9.887zm-19.948.114l7.033 10.332-6.658 9.911a131.739 131.739 0 0 1-2.301-3.723 122.497 122.497 0 0 1-2.749-4.842 32.365 32.365 0 0 1-.842-1.681c-.035-.077-.044-.105-.07-.168.026-.063.035-.09.07-.168.186-.411.48-1 .842-1.681.724-1.363 1.72-3.114 2.749-4.842a138.923 138.923 0 0 1 1.926-3.138zm10.002 14.691l5.724 8.409-.022.001c-1.578.073-3.638.11-5.694.11-2.042 0-4.085-.037-5.659-.108z" color="#000" font-weight="400" font-family="sans-serif" white-space="normal" display="block" overflow="visible" fill="url(#g)" paint-order="fill markers stroke" transform="translate(-48 -48)"/><path d="M70.365 90.414l9.627-5.552-2.969-4.36z" fill="url(#h)" fill-rule="evenodd" transform="translate(-48 -48)"/><path d="M89.664 90.37l-9.672-5.508 2.969-4.36z" fill="url(#i)" fill-rule="evenodd" transform="translate(-48 -48)"/><path d="M69.99 70.17l9.975 5.954-2.942 4.379z" fill="url(#j)" fill-rule="evenodd" transform="translate(-48 -48)"/><path d="M90 70.084l-10.035 6.04 2.969 4.36z" fill="url(#k)" fill-rule="evenodd" transform="translate(-48 -48)"/><path style="line-height:normal;font-variant-ligatures:normal;font-variant-position:normal;font-variant-caps:normal;font-variant-numeric:normal;font-variant-alternates:normal;font-feature-settings:normal;text-indent:0;text-align:start;text-decoration-line:none;text-decoration-style:solid;text-decoration-color:#000;text-transform:none;text-orientation:mixed;shape-padding:0;isolation:auto;mix-blend-mode:normal;marker:none" d="M32 14.676c-2.106 0-4.209.037-5.887.114-.839.04-1.567.087-2.17.151-.3.032-.567.068-.83.117-.263.05-.461.037-.988.333-.527.295-.617.47-.793.666a9.63 9.63 0 0 0-.52.64 35.49 35.49 0 0 0-1.218 1.748 125.827 125.827 0 0 0-3.046 4.893 125.242 125.242 0 0 0-2.84 5.007 35.23 35.23 0 0 0-.952 1.9c-.121.269-.224.51-.31.756-.088.246-.199.408-.199.999 0 .133.008.238.017.333.034-.328.114-.474.181-.665.087-.246.19-.488.311-.757.244-.537.567-1.174.952-1.9.77-1.449 1.787-3.235 2.84-5.006a125.827 125.827 0 0 1 3.046-4.893 35.49 35.49 0 0 1 1.218-1.749 9.63 9.63 0 0 1 .52-.64c.176-.195.266-.37.793-.666.527-.295.725-.282.988-.332.263-.05.53-.085.831-.117a37.63 37.63 0 0 1 2.17-.151c1.677-.078 3.78-.115 5.886-.115 2.106 0 4.208.037 5.885.115.84.039 1.57.087 2.171.151.3.032.568.067.83.117.264.05.462.037.99.332.526.296.616.47.792.667.176.196.34.402.52.64a35.5 35.5 0 0 1 1.218 1.748 125.86 125.86 0 0 1 3.046 4.893 125.25 125.25 0 0 1 2.84 5.007c.385.725.707 1.362.95 1.9.122.268.226.51.313.756.067.19.147.337.18.665.01-.095.018-.2.018-.333 0-.59-.111-.753-.198-.999a9.469 9.469 0 0 0-.313-.756 35.11 35.11 0 0 0-.95-1.9c-.77-1.45-1.787-3.236-2.84-5.007a125.86 125.86 0 0 0-3.046-4.893 35.5 35.5 0 0 0-1.218-1.748 9.633 9.633 0 0 0-.52-.64c-.176-.196-.266-.371-.793-.666-.527-.296-.725-.283-.988-.333-.263-.05-.53-.085-.831-.117a37.678 37.678 0 0 0-2.17-.15c-1.678-.078-3.78-.115-5.886-.115zm5.823 4.728l-5.858 8.72-5.93-8.711-.433.03 6.363 9.347 6.285-9.357c-.159-.009-.282-.02-.427-.03zm-21.267 12.93c-.02.043-.065.124-.083.165-.035.077-.044.105-.07.168.026.063.035.09.07.168.186.41.48.999.842 1.68.724 1.364 1.72 3.115 2.749 4.843a131.739 131.739 0 0 0 2.3 3.723l6.66-9.912-.226-.33-6.433 9.575a131.73 131.73 0 0 1-2.301-3.723 122.497 122.497 0 0 1-2.749-4.842 32.292 32.292 0 0 1-.76-1.516zm30.888 0c-.187.4-.433.9-.759 1.515a122.497 122.497 0 0 1-2.749 4.842 132.267 132.267 0 0 1-2.272 3.679l-6.505-9.556-.225.336 6.73 9.887c.716-1.118 1.49-2.364 2.272-3.679a122.497 122.497 0 0 0 2.749-4.842c.362-.682.656-1.27.842-1.681.035-.077.044-.105.07-.168-.026-.063-.035-.091-.07-.168-.018-.04-.062-.122-.083-.166zM18.42 44.375l-2.63 8.29.185-.112 2.559-7.991c-.037-.06-.076-.128-.114-.187zm18.852.91c-1.52.061-3.379.097-5.272.097-1.873 0-3.708-.036-5.22-.096l-.439.653c1.574.072 3.617.11 5.659.11 2.056 0 4.116-.038 5.694-.111l.022-.001z" color="#000" font-weight="400" font-family="sans-serif" white-space="normal" display="block" overflow="visible" fill="#f5edb2" fill-opacity=".385" paint-order="fill markers stroke"/><path style="isolation:auto;mix-blend-mode:normal;marker:none" d="M32 35.333c-.153 0-.62-1.948-.728-2.056-.108-.108-2.057-.576-2.057-.729 0-.152 1.949-.62 2.057-.728.108-.108.575-2.057.728-2.057.153 0 .62 1.949.728 2.057.108.108 2.057.576 2.057.728 0 .153-1.949.62-2.057.729-.108.108-.575 2.056-.728 2.056z" color="#000" overflow="visible" fill-opacity=".198" paint-order="fill markers stroke"/></svg>