<svg xmlns="http://www.w3.org/2000/svg" xmlns:xlink="http://www.w3.org/1999/xlink" height="64" viewBox="0 0 64 64" width="64"><title>Template icons dark</title><defs><linearGradient id="d"><stop offset="0" stop-color="#0a34ff" stop-opacity="0"/><stop offset="1" stop-color="#ffff0d" stop-opacity=".24"/></linearGradient><linearGradient id="c"><stop offset="0" stop-color="#cdcdcd"/><stop offset="1" stop-color="#fff"/></linearGradient><linearGradient id="b"><stop offset="0" stop-color="#fff" stop-opacity=".427"/><stop offset=".423" stop-color="#fafcfe"/><stop offset="1" stop-color="#fff" stop-opacity=".49"/></linearGradient><linearGradient id="a"><stop offset="0" stop-color="#0796d6"/><stop offset="1" stop-color="#4987ce"/></linearGradient><linearGradient xlink:href="#a" id="e" x1="22.9" y1="46.6" x2="22.9" y2="-10.331" gradientUnits="userSpaceOnUse" gradientTransform="matrix(1.49104 0 0 1.49104 46.452 41.978)"/><linearGradient xlink:href="#d" id="f" gradientUnits="userSpaceOnUse" gradientTransform="matrix(1.49104 0 0 1.49104 46.452 41.978)" x1="15.346" y1="25.106" x2="29.288" y2="40.737"/><linearGradient gradientTransform="matrix(.66667 0 0 .66667 -26.667 -26.667)" xlink:href="#c" id="g" x1="161.772" y1="204" x2="161.772" y2="113" gradientUnits="userSpaceOnUse"/></defs><g color="#000"><path style="isolation:auto;mix-blend-mode:normal;marker:none" d="M64 32a32 32 0 0 1-32 32A32 32 0 0 1 0 32 32 32 0 0 1 32 0a32 32 0 0 1 32 32z" display="block" overflow="visible" fill-opacity=".058"/><path style="isolation:auto;mix-blend-mode:normal;marker:none" d="M110.667 80A30.667 30.667 0 0 1 80 110.667 30.667 30.667 0 0 1 49.333 80 30.667 30.667 0 0 1 80 49.333 30.667 30.667 0 0 1 110.667 80z" display="block" overflow="visible" fill="url(#e)" transform="translate(-48 -48)"/><path d="M110.667 80A30.667 30.667 0 0 1 80 110.667 30.667 30.667 0 0 1 49.333 80 30.667 30.667 0 0 1 80 49.333 30.667 30.667 0 0 1 110.667 80z" style="isolation:auto;mix-blend-mode:normal;marker:none" display="block" overflow="visible" fill="url(#f)" transform="translate(-48 -48)"/><path d="M24.308 4.48L18.99 19.094h-.001L9.953 43.919h6.016l7.684-21.096h4.522L20.491 43.92h6.013l7.16-19.68c1.031-2.83-.59-5.145-3.599-5.145h-5.057l5.59-15.358c-1.867-.199-4.904.221-6.29.744zm15.757 14.614l-9.292 25.534h-.005l-5.212 14.324c1.882.454 3.805.714 5.74.776l5.752-15.81h7.983c1.401 0 2.94-1.077 3.419-2.393l6.293-17.286c1.03-2.83-.591-5.145-3.603-5.145zm4.68 3.714h4.52l-6.33 17.368h-4.52z" style="isolation:auto;mix-blend-mode:normal;marker:none" display="block" overflow="visible" fill-opacity=".194"/><path style="isolation:auto;mix-blend-mode:normal;marker:none" d="M23.232 4.066L17.916 18.68h-.002L8.878 43.505h6.016l7.684-21.096H27.1l-7.685 21.096h6.013l7.162-19.68c1.03-2.83-.591-5.145-3.6-5.145h-5.057l5.59-15.358c-1.868-.199-4.904.221-6.29.744zM38.99 18.68l-9.292 25.534h-.004L24.48 58.538c1.882.454 3.806.714 5.74.776l5.753-15.81h7.983c1.401 0 2.939-1.077 3.418-2.393l6.293-17.286c1.03-2.83-.59-5.145-3.602-5.145zm4.68 3.714h4.52L41.86 39.762h-4.52z" display="block" overflow="visible" fill="#fff"/><path style="isolation:auto;mix-blend-mode:normal;marker:none" d="M60.057 32.748A28.057 28.057 0 0 1 32 60.805 28.057 28.057 0 0 1 3.943 32.748 28.057 28.057 0 0 1 32 4.69a28.057 28.057 0 0 1 28.057 28.058z" overflow="visible" fill="none" stroke="#050505" stroke-width="1.119" stroke-linejoin="round" stroke-opacity=".458"/><path style="isolation:auto;mix-blend-mode:normal;marker:none" d="M60.057 31.838A28.057 28.057 0 0 1 32 59.895 28.057 28.057 0 0 1 3.943 31.838 28.057 28.057 0 0 1 32 3.781a28.057 28.057 0 0 1 28.057 28.057z" overflow="visible" fill="none" stroke="#fff" stroke-width="1.119" stroke-linejoin="round"/><path style="isolation:auto;mix-blend-mode:normal;marker:none" d="M109.337 80A29.337 29.337 0 0 1 80 109.337 29.337 29.337 0 0 1 50.663 80 29.337 29.337 0 0 1 80 50.663 29.337 29.337 0 0 1 109.337 80z" overflow="visible" fill="none" stroke="url(#g)" stroke-width="2.66" stroke-linejoin="round" transform="translate(-48 -48)"/></g></svg>