<svg xmlns="http://www.w3.org/2000/svg" xmlns:xlink="http://www.w3.org/1999/xlink" height="64" viewBox="0 0 64 64" width="64"><title>Template icons dark</title><defs><linearGradient id="a"><stop offset="0" stop-color="#4d77d3"/><stop offset=".453" stop-color="#767294"/><stop offset="1" stop-color="#a6659c"/></linearGradient><linearGradient id="b"><stop offset="0" stop-color="#0b1528"/><stop offset="1" stop-color="#473d49"/></linearGradient><linearGradient xlink:href="#b" id="c" x1="26.4" y1="60.613" x2="26.4" y2="-12.187" gradientUnits="userSpaceOnUse" gradientTransform="matrix(.74178 0 0 .72369 62.24 62.674)"/><linearGradient xlink:href="#a" id="d" x1="53.271" y1="55.429" x2="-10.45" y2="-7.238" gradientUnits="userSpaceOnUse" gradientTransform="matrix(.80172 0 0 .80399 61.007 61.283)"/></defs><g color="#000" transform="translate(-48 -48)"><rect ry="3.014" y="52" x="49" height="56" width="62" style="isolation:auto;mix-blend-mode:normal;marker:none" overflow="visible" fill-opacity=".077"/><rect style="isolation:auto;mix-blend-mode:normal;marker:none" width="59.782" height="53.782" x="50.109" y="53.109" ry="2.895" overflow="visible" fill="url(#c)" stroke="#000" stroke-width=".218" stroke-opacity=".471"/><rect style="isolation:auto;mix-blend-mode:normal;marker:none" width="58.023" height="52.023" x="50.988" y="53.988" ry="1.949" overflow="visible" fill="none" stroke="url(#d)" stroke-width="1.977"/><path style="isolation:auto;mix-blend-mode:normal;marker:none" d="M60 60.667h5.333V74H60z" display="block" overflow="visible" fill="#94d59b"/><path style="isolation:auto;mix-blend-mode:normal;marker:none" d="M56 58h5.333l-.042 1.336-3.958-.005v15.998l3.958.008v1.33H56z" display="block" overflow="visible" fill="#fff" fill-opacity=".247"/><path style="isolation:auto;mix-blend-mode:normal;marker:none" d="M68 60.667h5.333V74H68zM76 60.667h5.333V74H76z" display="block" overflow="visible" fill="#94d59b"/><path style="isolation:auto;mix-blend-mode:normal;marker:none" d="M84 60.667h5.333V74H84z" display="block" overflow="visible" fill="#94ccd5"/><path style="isolation:auto;mix-blend-mode:normal;marker:none" d="M92 60.667h5.333V74H92z" display="block" overflow="visible" fill="#d594c7"/><path style="isolation:auto;mix-blend-mode:normal;marker:none" d="M60 86h5.333v13.333H60z" display="block" overflow="visible" fill="#94d59b"/><path d="M56 83.333h5.333l-.042 1.336-3.958-.005v15.998l3.958.008V102H56z" style="isolation:auto;mix-blend-mode:normal;marker:none" display="block" overflow="visible" fill="#fff" fill-opacity=".247"/><path style="isolation:auto;mix-blend-mode:normal;marker:none" d="M68 86h5.333v13.333H68z" display="block" overflow="visible" fill="#94ccd5"/><path style="isolation:auto;mix-blend-mode:normal;marker:none" d="M76 86h5.333v13.333H76z" display="block" overflow="visible" fill="#d594c7"/></g></svg>