<svg xmlns="http://www.w3.org/2000/svg" xmlns:xlink="http://www.w3.org/1999/xlink" height="64" viewBox="0 0 64 64" width="64"><title>Template icons dark</title><defs><linearGradient id="a"><stop offset="0" stop-color="#3b173b"/><stop offset="1" stop-color="#1c2d4c"/></linearGradient><linearGradient gradientTransform="matrix(1.33333 0 0 1.33333 48.003 46.995)" xlink:href="#a" id="b" x1="2" y1="35.339" x2="46" y2="35.339" gradientUnits="userSpaceOnUse"/></defs><path d="M33.106 4.062c-1.754.377-6.233 9.347-6.233 9.347s-5.455 8.06-10.458 9.752c-4.42 1.494-13.745 7.834-13.745 7.834l29.333 26.667 29.333-26.667c-17.263-12.597-17.14-10.811-28.23-26.933z" fill="#535363"/><path d="M14.566 24.58c1.337 1.126 3.949-.2 3.73 2.271.269 1.378.704 4.71 2.565 2.578.763-1.992 3.341-2.209 3.698.148.748 1.285.972 3.846 2.869 2.331 1.788-.379 3.81-2.306 5.514-.813 1.562.598 2.98 2.673 4.723 2.018 1.799-1.067 2.87-3.492 5.263-3.386 2.062-.086 3.957 1.406 4.458 3.398 1.074 1.831 3.15 3.402 5.353 3.37 1.794-.43 6.316-3.016 7.69-4.36C53.771 27.681 41.761 19.9 31.901 4.721c-1.287 1.608-2.706 3.797-3.862 5.636-1.134 1.89-1.699 4.117-3.357 5.644-4.088 4.816-5.405 6.782-10.117 8.578z" fill-opacity=".319"/><path d="M15.474 23.439c1.337 1.127 3.948-.198 3.73 2.272.268 1.378.704 4.71 2.565 2.577.762-1.991 3.341-2.208 3.697.149.748 1.284.973 3.846 2.87 2.33 1.787-.378 3.81-2.306 5.514-.812 1.562.598 2.98 2.673 4.723 2.018 1.799-1.068 2.87-3.492 5.263-3.387 2.061-.085 3.957 1.407 4.458 3.398 1.074 1.832 3.15 3.402 5.352 3.372 1.795-.432 6.317-3.017 7.69-4.361C54.68 26.54 42.67 18.76 32.81 3.58c-1.287 1.607-2.706 3.797-3.863 5.636-1.133 1.89-1.698 4.117-3.356 5.644-4.088 4.816-5.405 6.781-10.117 8.578z" fill="#f0f0ef"/><path d="M34.267 14.805c-.808 1.419-2.258 2.409-3.004 3.815 1.201.922 3.08 1.62 3.526 3.395-1.479.642-1.856 2.481-1.318 3.875.01 1.832-1.888 2.777-3.21 3.658-.835.817-3.113 3.083-2.652 4.323 2.803 1.915 7.007-1.822 10.155-.501 1.473 1.407-5.906 4.477-8.592 8.594 3.518.96 10.337.003 9.928 2.264-7.097 5.434-7.097 13.434-7.097 13.434l29.333-26.667c-11.254-8-18.666-12.856-28.23-26.933 1.584 4.383 2.055 8.63 1.16 10.743z" fill-opacity=".215"/><path d="M14.048 37.628l-.04.023.044-.01z" fill="#545374"/><path d="M50.67 78.995l29.333 26.667 29.333-26.667-29.333 32z" fill="url(#b)" fill-rule="evenodd" transform="translate(-48 -48)"/><path d="M19.187 13.574l13.728-10.15" fill-opacity=".215" fill-rule="evenodd" stroke="#a782ec" stroke-width=".533"/><path style="isolation:auto;mix-blend-mode:normal;marker:none" d="M20.578 13.411a1.42 1.42 0 0 1-1.42 1.421 1.42 1.42 0 0 1-1.42-1.42 1.42 1.42 0 0 1 1.42-1.421 1.42 1.42 0 0 1 1.42 1.42zM50.1 9.428a1.42 1.42 0 0 1-1.42 1.42 1.42 1.42 0 0 1-1.421-1.42 1.42 1.42 0 0 1 1.42-1.42 1.42 1.42 0 0 1 1.421 1.42z" color="#000" display="block" overflow="visible" fill="none" stroke="#fefbfb" stroke-width=".508" stroke-linecap="round" paint-order="fill markers stroke"/><path d="M32.976 3.632L48.98 9.58" fill-opacity=".215" fill-rule="evenodd" stroke="#a782ec" stroke-width=".533"/><path d="M33.106 4.062c-1.754.377-6.233 9.347-6.233 9.347s-5.455 8.06-10.458 9.752c-4.42 1.494-13.745 7.834-13.745 7.834l29.333 26.667 29.333-26.667c-17.263-12.597-17.14-10.811-28.23-26.933z" fill="none" stroke="#fc4f4f" stroke-width=".437" stroke-opacity=".916"/><path style="isolation:auto;mix-blend-mode:normal;marker:none" d="M1.523 29.614h2.52v2.52h-2.52zM30.732 55.735h2.52v2.52h-2.52zM59.94 29.534h2.52v2.52h-2.52zM31.588 1.987h2.52v2.52h-2.52z" color="#000" display="block" overflow="visible" fill="#dedede" paint-order="fill markers stroke"/></svg>