<svg xmlns:osb="http://www.openswatchbook.org/uri/2009/osb" xmlns="http://www.w3.org/2000/svg" xmlns:xlink="http://www.w3.org/1999/xlink" height="64" viewBox="0 0 64 64" width="64"><title>Template icons dark</title><defs><linearGradient id="h"><stop offset="0" stop-color="#d6dee0"/><stop offset="1" stop-color="#fff" stop-opacity=".474"/></linearGradient><linearGradient id="g"><stop offset="0" stop-color="#403d60" stop-opacity=".396"/><stop offset="1" stop-opacity=".073"/></linearGradient><linearGradient id="f"><stop offset="0" stop-color="#c3ced1"/><stop offset="1" stop-color="#f6f6f6"/></linearGradient><linearGradient id="a"><stop offset="0" stop-color="#c9cfd1"/><stop offset="1" stop-color="#fff"/></linearGradient><linearGradient id="b" osb:paint="solid"><stop offset="0" stop-color="#2d393e" stop-opacity=".117"/></linearGradient><linearGradient id="c"><stop offset="0" stop-opacity=".204"/><stop offset="1" stop-opacity="0"/></linearGradient><linearGradient id="d"><stop offset="0" stop-color="#dce1e8"/><stop offset="1" stop-color="#fff"/></linearGradient><linearGradient id="e" osb:paint="solid"><stop offset="0" stop-color="#bc33d3"/></linearGradient><linearGradient gradientTransform="matrix(.68885 0 0 .68885 -30.217 -30.213)" xlink:href="#f" id="i" x1="162.551" y1="202.929" x2="162.551" y2="116" gradientUnits="userSpaceOnUse"/><linearGradient xlink:href="#e" id="j" gradientUnits="userSpaceOnUse" gradientTransform="matrix(.70888 0 0 .71295 61.343 -647.949)"/><linearGradient xlink:href="#c" id="k" gradientUnits="userSpaceOnUse" gradientTransform="matrix(.9253 0 0 .73686 -874.465 -178.08)" x1="1031.269" y1="365.654" x2="1031.269" y2="380.159"/><linearGradient xlink:href="#d" id="n" gradientUnits="userSpaceOnUse" gradientTransform="matrix(1.7651 0 0 1.7651 58.252 67.117)" x1="17.92" y1="19.84" x2="17.92" y2="11.307"/><linearGradient xlink:href="#b" id="l" gradientUnits="userSpaceOnUse" gradientTransform="matrix(.8861 0 0 .8861 201.719 134.241)" x1="-49.096" y1="1041.18" x2="-9.096" y2="1041.18"/><linearGradient xlink:href="#c" id="m" gradientUnits="userSpaceOnUse" gradientTransform="matrix(.9253 0 0 .91581 -873.579 -273.062)" x1="1031.269" y1="365.654" x2="1031.269" y2="380.159"/><linearGradient xlink:href="#d" id="o" gradientUnits="userSpaceOnUse" gradientTransform="matrix(1.7651 0 0 1.7651 1093.14 435.433)" x1="-578.647" y1="-204.784" x2="-578.647" y2="-214.622"/></defs><g transform="translate(-48 -48)"><path style="isolation:auto;mix-blend-mode:normal;marker:none" d="M56.294 51.004h47.408c2.933 0 5.41 2.363 5.294 5.294v47.408a5.282 5.282 0 0 1-5.294 5.294H56.294A5.282 5.282 0 0 1 51 103.706V56.298c0-2.933 2.363-5.41 5.294-5.294z" color="#000" overflow="visible" fill-opacity=".109" paint-order="fill markers stroke"/><path d="M57 52h46c2.933 0 5 2.067 5 5v45.69c0 2.932-2.067 5.31-5 5.31H57c-2.933 0-5-2.378-5-5.31V57c0-2.933 2.067-5 5-5z" style="isolation:auto;mix-blend-mode:normal;marker:none" color="#000" overflow="visible" fill="url(#i)" paint-order="fill markers stroke"/><path d="M52 102v.689c0 2.933 2.067 5.311 5 5.311h46c2.932-.054 5-2.378 5-5.311V102c0 2.933-2.07 4.891-5 5H57c-2.933 0-5-2.067-5-5z" style="isolation:auto;mix-blend-mode:normal;marker:none" color="#000" overflow="visible" fill="#fff" fill-opacity=".542" paint-order="fill markers stroke"/><path d="M69.147 86.921h23.378c4.047 0 7.305 3.37 7.305 7.555s-3.258 7.555-7.305 7.555H69.147c-4.047 0-7.305-3.37-7.305-7.555s3.258-7.555 7.305-7.555z" fill="#fff" fill-opacity=".365"/><path d="M69.584 87.83H90.85a6.631 6.631 0 0 1 6.646 6.646 6.631 6.631 0 0 1-6.646 6.646H69.584a6.631 6.631 0 0 1-6.646-6.646 6.631 6.631 0 0 1 6.646-6.646z" fill="url(#j)"/><path style="line-height:normal;font-variant-ligatures:normal;font-variant-position:normal;font-variant-caps:normal;font-variant-numeric:normal;font-variant-alternates:normal;font-feature-settings:normal;text-indent:0;text-align:start;text-decoration-line:none;text-decoration-style:solid;text-decoration-color:#000;text-transform:none;text-orientation:mixed;shape-padding:0;isolation:auto;mix-blend-mode:normal" d="M69.539 87.843a6.57 6.57 0 0 0-6.577 6.576v.102a6.572 6.572 0 0 0 6.577 6.578h21.398a6.572 6.572 0 0 0 6.576-6.578v-.102a6.57 6.57 0 0 0-6.576-6.576zm0 .886h21.398c3.16 0 5.69 2.53 5.69 5.69v.102a5.669 5.669 0 0 1-5.69 5.692H69.539a5.669 5.669 0 0 1-5.69-5.692v-.102c0-3.16 2.529-5.69 5.69-5.69z" color="#000" font-weight="400" font-family="sans-serif" white-space="normal" overflow="visible" fill="url(#k)"/><path d="M68.581 58.13H92.1c4.071 0 7.35 3.37 7.35 7.555S96.17 73.24 92.1 73.24H68.58c-4.071 0-7.35-3.37-7.35-7.555s3.279-7.555 7.35-7.555z" fill="#fff" fill-opacity=".583"/><path d="M70.47 59.04h21.266a6.631 6.631 0 0 1 6.646 6.645 6.631 6.631 0 0 1-6.646 6.646H70.47a6.631 6.631 0 0 1-6.646-6.646 6.631 6.631 0 0 1 6.646-6.646z" fill="url(#l)"/><path style="line-height:normal;font-variant-ligatures:normal;font-variant-position:normal;font-variant-caps:normal;font-variant-numeric:normal;font-variant-alternates:normal;font-feature-settings:normal;text-indent:0;text-align:start;text-decoration-line:none;text-decoration-style:solid;text-decoration-color:#000;text-transform:none;text-orientation:mixed;shape-padding:0;isolation:auto;mix-blend-mode:normal" d="M70.425 59.051a6.57 6.57 0 0 0-6.577 6.577v.102a6.572 6.572 0 0 0 6.577 6.578h21.398a6.572 6.572 0 0 0 6.576-6.578v-.102a6.57 6.57 0 0 0-6.576-6.577zm0 .887h21.398c3.16 0 5.69 2.529 5.69 5.69v.102a5.669 5.669 0 0 1-5.69 5.692H70.425a5.669 5.669 0 0 1-5.69-5.692v-.102c0-3.161 2.529-5.69 5.69-5.69z" color="#000" font-weight="400" font-family="sans-serif" white-space="normal" overflow="visible" fill="url(#m)"/><path d="M57.01 55.014a1.979 1.979 0 1 0 0 3.957 1.979 1.979 0 0 0 0-3.957zm46.004.042a1.986 1.986 0 1 0 0 3.972 1.986 1.986 0 0 0 0-3.972zm-46.006 45.572a1.992 1.992 0 1 0 0 3.985 1.992 1.992 0 0 0 0-3.985zm45.992-.037a2 2 0 1 0 0 3.999 2 2 0 0 0 0-3.999z" style="isolation:auto;mix-blend-mode:normal;marker:none" color="#000" overflow="visible" fill-opacity=".188" paint-order="fill markers stroke"/><path d="M58.986 102.845a1.992 1.992 0 0 0-1.978-1.784c-1.013 0-1.864.76-1.979 1.767a2.003 2.003 0 0 1-.013-.206 1.992 1.992 0 1 1 3.97.223zm46-.029a2 2 0 0 0-1.986-1.79 2 2 0 0 0-1.986 1.772 2 2 0 1 1 3.973.018zm-46.01-45.6a1.979 1.979 0 0 0-1.966-1.773 1.979 1.979 0 0 0-1.965 1.755 1.989 1.989 0 0 1-.013-.205 1.979 1.979 0 1 1 3.944.222zm46.01.05a1.986 1.986 0 0 0-1.972-1.779c-1.01 0-1.859.758-1.973 1.761a1.986 1.986 0 1 1 3.946.017z" style="isolation:auto;mix-blend-mode:normal;marker:none" color="#000" overflow="visible" fill-opacity=".318" paint-order="fill markers stroke"/><path style="isolation:auto;mix-blend-mode:normal;marker:none" d="M58.976 57.17a1.979 1.979 0 0 1-1.966 1.773 1.979 1.979 0 0 1-1.965-1.755 1.989 1.989 0 0 0-.013.205 1.979 1.979 0 1 0 3.944-.222zm46.01.051A1.986 1.986 0 0 1 103.014 59a1.986 1.986 0 0 1-1.973-1.761 1.986 1.986 0 1 0 3.946-.017zm-46 45.58a1.992 1.992 0 0 1-1.978 1.784 1.992 1.992 0 0 1-1.979-1.767 2.003 2.003 0 0 0-.013.206 1.992 1.992 0 1 0 3.97-.223zm46-.03a2 2 0 0 1-1.986 1.79 2 2 0 0 1-1.986-1.772 2 2 0 1 0 3.973-.018z" color="#000" overflow="visible" fill="#fff" fill-opacity=".922" paint-order="fill markers stroke"/><path style="isolation:auto;mix-blend-mode:normal;marker:none" d="M52 80h56v1H52z" color="#000" display="block" overflow="visible" fill-opacity=".172" paint-order="fill markers stroke"/><path style="isolation:auto;mix-blend-mode:normal;marker:none" d="M52 81h56v1H52z" color="#000" display="block" overflow="visible" fill="#fff" fill-opacity=".667" paint-order="fill markers stroke"/><circle r="10.19" cy="95.362" cx="89.964" fill-opacity=".157"/><circle cx="89.964" cy="94.476" r="9.304" fill="url(#n)"/><circle r="8.881" cy="94.476" cx="89.964" fill="none" stroke="#fff" stroke-width=".846" stroke-miterlimit="4.6" stroke-opacity=".237"/><circle cx="-71.356" cy="66.571" r="10.19" transform="scale(-1 1)" fill-opacity=".157"/><circle cx="71.356" cy="65.685" r="9.304" fill="url(#o)"/><circle r="8.881" cy="65.685" cx="71.356" fill="none" stroke="#fff" stroke-width=".846" stroke-miterlimit="4.6" stroke-opacity=".237"/></g></svg>