<svg xmlns:osb="http://www.openswatchbook.org/uri/2009/osb" xmlns="http://www.w3.org/2000/svg" xmlns:xlink="http://www.w3.org/1999/xlink" height="64" viewBox="0 0 64 64" width="64" id="svg2"><title id="title4675">Template icons dark</title><defs id="defs22"><linearGradient id="linearGradient9793"><stop offset="0" id="stop9789" stop-color="#fff" stop-opacity=".464"/><stop offset="1" id="stop9791" stop-color="#f6f6f6" stop-opacity=".219"/></linearGradient><linearGradient id="linearGradient9499"><stop offset="0" id="stop9495" stop-opacity=".297"/><stop offset="1" id="stop9497" stop-opacity=".078"/></linearGradient><linearGradient id="linearGradient9422" osb:paint="solid"><stop offset="0" id="stop9420" stop-color="#ff8300"/></linearGradient><linearGradient id="linearGradient9052"><stop offset="0" id="stop9048" stop-opacity=".411"/><stop offset="1" id="stop9050" stop-opacity=".516"/></linearGradient><linearGradient id="linearGradient7833"><stop offset="0" id="stop7829" stop-color="#fff" stop-opacity=".057"/><stop offset="1" id="stop7831" stop-color="#fff" stop-opacity=".13"/></linearGradient><linearGradient id="linearGradient7827"><stop id="stop7823" offset="0" stop-color="#ff8300"/><stop id="stop7825" offset="1" stop-color="#ff5b00"/></linearGradient><linearGradient xlink:href="#linearGradient7827" id="linearGradient7785" x1="160" y1="137" x2="160" y2="188" gradientUnits="userSpaceOnUse"/><linearGradient gradientTransform="translate(-35.934 -35.408) scale(.7191)" xlink:href="#linearGradient7827" id="linearGradient7785-2" x1="160" y1="137" x2="160" y2="188" gradientUnits="userSpaceOnUse"/><linearGradient xlink:href="#linearGradient9052" id="linearGradient9054" x1="160" y1="119" x2="160" y2="201.575" gradientUnits="userSpaceOnUse"/><linearGradient xlink:href="#linearGradient9422" id="linearGradient9424" x1="172" y1="128" x2="194" y2="128" gradientUnits="userSpaceOnUse"/><linearGradient xlink:href="#linearGradient9499" id="linearGradient9501" x1="160" y1="204" x2="160" y2="119" gradientUnits="userSpaceOnUse"/><linearGradient xlink:href="#linearGradient9499" id="linearGradient9719" gradientUnits="userSpaceOnUse" x1="75.591" y1="110.653" x2="75.591" y2="48"/><linearGradient xlink:href="#linearGradient9499" id="linearGradient9730" gradientUnits="userSpaceOnUse" x1="21" y1="47.457" x2="21" y2="2"/><linearGradient xlink:href="#linearGradient9793" id="linearGradient9795" x1="-64" y1="-57" x2="-64" y2="-71" gradientUnits="userSpaceOnUse"/><linearGradient xlink:href="#linearGradient9793" id="linearGradient9834" gradientUnits="userSpaceOnUse" x1="-44.031" y1="-34" x2="-44.031" y2="-54"/><linearGradient gradientTransform="translate(100 98)" xlink:href="#linearGradient9052" id="linearGradient9054-3" x1="160" y1="119" x2="160" y2="201.575" gradientUnits="userSpaceOnUse"/><linearGradient xlink:href="#linearGradient7833" id="linearGradient8964" gradientUnits="userSpaceOnUse" x1="178" y1="117" x2="192.559" y2="135.911"/><linearGradient xlink:href="#linearGradient7827" id="linearGradient9991" gradientUnits="userSpaceOnUse" x1="273.449" y1="218.045" x2="273.449" y2="328"/><linearGradient xlink:href="#linearGradient9499" id="linearGradient10016" gradientUnits="userSpaceOnUse" x1="272" y1="328.693" x2="272" y2="214.425"/><linearGradient xlink:href="#linearGradient9422" id="linearGradient7860" gradientUnits="userSpaceOnUse" x1="172" y1="128" x2="194" y2="128" gradientTransform="translate(30)"/><linearGradient xlink:href="#linearGradient7827" id="linearGradient7862" gradientUnits="userSpaceOnUse" gradientTransform="translate(-5.934 -35.408) scale(.7191)" x1="-12.202" y1="7.761" x2="-12.202" y2="46.718"/><linearGradient id="linearGradient9422-6" osb:paint="solid"><stop offset="0" id="stop9420-0" stop-color="#a3bfcf"/></linearGradient><linearGradient id="linearGradient7827-6"><stop id="stop7823-2" offset="0" stop-color="#a3bfcf"/><stop id="stop7825-6" offset="1" stop-color="#6d8aa9"/></linearGradient><linearGradient xlink:href="#linearGradient7827" id="linearGradient7862-0" gradientUnits="userSpaceOnUse" gradientTransform="translate(-9.934 -5.408) scale(.7191)" x1="160" y1="137" x2="160" y2="188"/><linearGradient xlink:href="#linearGradient9422" id="linearGradient7860-9" gradientUnits="userSpaceOnUse" x1="172" y1="128" x2="194" y2="128" gradientTransform="translate(13 30)"/><linearGradient gradientTransform="translate(-90.934 -84.408) scale(.7191)" xlink:href="#linearGradient7827" id="linearGradient7785-2-9" x1="160" y1="137" x2="160" y2="188" gradientUnits="userSpaceOnUse"/><linearGradient xlink:href="#linearGradient7827" id="linearGradient7969" gradientUnits="userSpaceOnUse" gradientTransform="translate(-35.934 -35.408) scale(.7191)" x1="81.813" y1="54.801" x2="81.813" y2="110.426"/><linearGradient xlink:href="#linearGradient9052" id="linearGradient7937" gradientUnits="userSpaceOnUse" x1="79.843" y1="50.497" x2="79.843" y2="108"/><style id="style51071-8">.str0{stroke:#1f1a17;stroke-width:3}.fil0{fill:none}</style><style id="style2031-6">.str0{stroke:#1f1a17;stroke-width:.0762}.fil0,.fil1{fill:none}.fil1{fill-rule:nonzero}</style><style id="style5368-2">.str0,.str1{stroke:#000;stroke-width:63}.str1{stroke:#09098f}.fil5{fill:none}.fil1,.fil2{fill:#000}.fil3{fill:#4d66cc}.fil0{fill:#576ecd}.fil4{fill:#89a1d4}</style><style id="style51071">.str0{stroke:#1f1a17;stroke-width:3}.fil0{fill:none}</style><style id="style2031">.str0{stroke:#1f1a17;stroke-width:.0762}.fil0,.fil1{fill:none}.fil1{fill-rule:nonzero}</style><style id="style5368">.str0,.str1{stroke:#000;stroke-width:63}.str1{stroke:#09098f}.fil5{fill:none}.fil1,.fil2{fill:#000}.fil3{fill:#4d66cc}.fil0{fill:#576ecd}.fil4{fill:#89a1d4}</style></defs><g id="g7907" transform="translate(-48 -48)"><g id="g7905"><path id="path7759-9" d="M57 48h22c.717 0 2.258.258 3 1l22 22c.72.72.983 1.24 1 2v36c0 2-1 3-3 3H56.945C55 112 54 111 54 109V51c0-2 1-3 3-3z" style="isolation:auto;mix-blend-mode:normal;marker:none" color="#000" display="block" overflow="visible" fill-opacity=".125" stroke-width=".156" paint-order="fill markers stroke"/><path style="isolation:auto;mix-blend-mode:normal;marker:none" d="M58.016 49h19.992c.722 0 2.257.265 2.992 1l22 21c.72.72 1 1.271 1 2v35c0 2-1 3-3 3H58.016C56 111 55 110 55 108V52c0-2 1-3 3.016-3z" id="rect7756-2" color="#000" display="block" overflow="visible" fill="url(#linearGradient7785-2)" stroke-width=".145" paint-order="fill markers stroke"/><path style="line-height:normal;font-variant-ligatures:normal;font-variant-position:normal;font-variant-caps:normal;font-variant-numeric:normal;font-variant-alternates:normal;font-feature-settings:normal;text-indent:0;text-align:start;text-decoration-line:none;text-decoration-style:solid;text-decoration-color:#000;text-transform:none;text-orientation:mixed;shape-padding:0;isolation:auto;mix-blend-mode:normal;marker:none" d="M55 52v55.913C55 110 56 111 58 111h43c2 0 3-1 3-3V72.989c0-.718-.223-1.236-1.017-2.006L81 50c-.738-.716-2.27-1-3-1H58.016C56 49 55 50 55 52zm2-1h22l23 22v36H57z" id="path7787-2" color="#000" font-weight="400" font-family="sans-serif" white-space="normal" overflow="visible" fill="url(#linearGradient9719)" stroke-width=".201" paint-order="fill markers stroke"/><path style="marker:none" d="M102 48H86l19 19V51c0-2-1-3-3-3z" id="path7763-8" fill-opacity=".125" fill-rule="evenodd" stroke-width=".156" paint-order="fill markers stroke"/><path id="path7761-9" d="M101 49H88l15.945 16L104 52c0-2-1-3-3-3z" fill="url(#linearGradient9424)" fill-rule="evenodd"/><path style="line-height:normal;font-variant-ligatures:normal;font-variant-position:normal;font-variant-caps:normal;font-variant-numeric:normal;font-variant-alternates:normal;font-feature-settings:normal;text-indent:0;text-align:start;text-decoration-line:none;text-decoration-style:solid;text-decoration-color:#000;text-transform:none;text-orientation:mixed;shape-padding:0;isolation:auto;mix-blend-mode:normal" d="M88 49l15.945 16L104 52c0-2-1-2.953-3-2.953zm2 1h13v13z" id="path7797-7" color="#000" font-weight="400" font-family="sans-serif" white-space="normal" overflow="visible" fill="#fff" fill-opacity=".157" fill-rule="evenodd"/><path style="isolation:auto;mix-blend-mode:normal;marker:none" d="M96 83a16 16 0 0 1-9.877 14.782 16 16 0 0 1-17.437-3.468 16 16 0 0 1-3.468-17.437A16 16 0 0 1 80 67v16z" id="path7841-6-7-5" color="#000" display="block" overflow="visible" fill="#7d1005" fill-opacity=".198" stroke-width=".377" stroke-opacity=".964" paint-order="fill markers stroke"/><path style="isolation:auto;mix-blend-mode:normal;marker:none" d="M95 83a15 15 0 0 1-9.26 13.858 15 15 0 0 1-16.347-3.251 15 15 0 0 1-3.251-16.347A15 15 0 0 1 80 68v15z" id="path7837-2-5-6" color="#000" display="block" overflow="visible" fill="#fff" stroke-width=".353" stroke-opacity=".964" paint-order="fill markers stroke"/><path style="isolation:auto;mix-blend-mode:normal;marker:none" d="M80 68a15 15 0 0 1 15 15H80z" id="path7839-9-3-2" color="#000" display="block" overflow="visible" fill="#fff" fill-opacity=".354" stroke-width=".353" stroke-opacity=".964" paint-order="fill markers stroke"/><path id="path8019-2" d="M57 51v58h45V73L79.063 51zm1 1h21.063L101 73v35H58z" style="line-height:normal;font-variant-ligatures:normal;font-variant-position:normal;font-variant-caps:normal;font-variant-numeric:normal;font-variant-alternates:normal;font-feature-settings:normal;text-indent:0;text-align:start;text-decoration-line:none;text-decoration-style:solid;text-decoration-color:#000;text-transform:none;text-orientation:mixed;shape-padding:0;isolation:auto;mix-blend-mode:normal" color="#000" font-weight="400" font-family="sans-serif" white-space="normal" overflow="visible" fill="#fff" fill-opacity=".157" fill-rule="evenodd"/><path style="line-height:normal;font-variant-ligatures:normal;font-variant-position:normal;font-variant-caps:normal;font-variant-numeric:normal;font-variant-alternates:normal;font-feature-settings:normal;text-indent:0;text-align:start;text-decoration-line:none;text-decoration-style:solid;text-decoration-color:#000;text-transform:none;text-orientation:mixed;shape-padding:0;isolation:auto;mix-blend-mode:normal" d="M56 50v60h47V73L79 50zm1 1h21.803L102 73v36H57z" id="path7898" color="#000" font-weight="400" font-family="sans-serif" white-space="normal" overflow="visible" opacity=".398" fill="url(#linearGradient7937)" fill-rule="evenodd"/></g></g></svg>