<svg xmlns:osb="http://www.openswatchbook.org/uri/2009/osb" xmlns="http://www.w3.org/2000/svg" xmlns:xlink="http://www.w3.org/1999/xlink" height="64" viewBox="0 0 64 64" width="64" id="svg2"><title id="title4675">Template icons dark</title><defs id="defs22"><linearGradient id="linearGradient9052"><stop offset="0" id="stop9048" stop-opacity=".411"/><stop offset="1" id="stop9050" stop-opacity=".516"/></linearGradient><linearGradient id="linearGradient9046"><stop id="stop9042" offset="0" stop-color="#efefef"/><stop id="stop9044" offset="1" stop-color="#adadad"/></linearGradient><linearGradient id="linearGradient7841"><stop offset="0" id="stop7837" stop-color="#00a500"/><stop offset="1" id="stop7839" stop-color="#00a51a"/></linearGradient><linearGradient id="linearGradient7833"><stop offset="0" id="stop7829" stop-color="#fff" stop-opacity=".057"/><stop offset="1" id="stop7831" stop-color="#fff" stop-opacity=".13"/></linearGradient><linearGradient id="linearGradient7827"><stop id="stop7823" offset="0" stop-color="#f7f7f7"/><stop id="stop7825" offset="1" stop-color="#e2e2e2"/></linearGradient><linearGradient id="linearGradient7819"><stop offset="0" id="stop7815" stop-color="#e3e3e3"/><stop offset="1" id="stop7817" stop-color="#939393"/></linearGradient><linearGradient xlink:href="#linearGradient7827" id="linearGradient7785" x1="160" y1="137" x2="160" y2="188" gradientUnits="userSpaceOnUse"/><linearGradient xlink:href="#linearGradient9046" id="linearGradient7821" x1="160.063" y1="120" x2="160.063" y2="204" gradientUnits="userSpaceOnUse"/><linearGradient xlink:href="#linearGradient7833" id="linearGradient7835" x1="178" y1="117" x2="193" y2="136" gradientUnits="userSpaceOnUse"/><linearGradient xlink:href="#linearGradient7841" id="linearGradient7843" x1="171.402" y1="117.454" x2="193" y2="136" gradientUnits="userSpaceOnUse"/><linearGradient gradientTransform="translate(-35.934 -35.408) scale(.7191)" xlink:href="#linearGradient7827" id="linearGradient7785-2" x1="160" y1="137" x2="160" y2="188" gradientUnits="userSpaceOnUse"/><linearGradient gradientTransform="translate(-35.934 -35.408) scale(.7191)" xlink:href="#linearGradient7819" id="linearGradient7821-8" x1="160.063" y1="118.739" x2="160.063" y2="204" gradientUnits="userSpaceOnUse"/><linearGradient gradientTransform="translate(-35.934 -35.408) scale(.7191)" xlink:href="#linearGradient7841" id="linearGradient7843-2" x1="171.402" y1="117.454" x2="193.205" y2="136.848" gradientUnits="userSpaceOnUse"/><linearGradient gradientTransform="translate(-35.934 -35.408) scale(.7191)" xlink:href="#linearGradient7833" id="linearGradient7835-3" x1="178" y1="117" x2="193.205" y2="136.848" gradientUnits="userSpaceOnUse"/><linearGradient gradientTransform="matrix(1.34831 0 0 1.34831 55.37 56.159)" xlink:href="#linearGradient7827" id="linearGradient7785-29" x1="160" y1="137" x2="160" y2="188" gradientUnits="userSpaceOnUse"/><linearGradient gradientTransform="matrix(1.34831 0 0 1.34831 55.37 56.159)" xlink:href="#linearGradient7819" id="linearGradient7821-9" x1="159.708" y1="120.211" x2="160.063" y2="204" gradientUnits="userSpaceOnUse"/><linearGradient xlink:href="#linearGradient7841" id="linearGradient8962" gradientUnits="userSpaceOnUse" x1="171.402" y1="117.454" x2="193" y2="136"/><linearGradient xlink:href="#linearGradient9052" id="linearGradient9054" x1="160" y1="119" x2="160" y2="201.575" gradientUnits="userSpaceOnUse"/><linearGradient xlink:href="#linearGradient7819" id="linearGradient9397" gradientUnits="userSpaceOnUse" gradientTransform="translate(-35.934 -35.408) scale(.7191)" x1="79.174" y1="52.02" x2="79.174" y2="110.426"/><linearGradient gradientTransform="translate(100 98)" xlink:href="#linearGradient9052" id="linearGradient9054-3" x1="160" y1="119" x2="160" y2="201.575" gradientUnits="userSpaceOnUse"/><linearGradient xlink:href="#linearGradient9052" id="linearGradient7937" gradientUnits="userSpaceOnUse" x1="79.843" y1="50.497" x2="79.843" y2="108"/><linearGradient gradientTransform="translate(-90.934 -84.408) scale(.7191)" xlink:href="#linearGradient7827" id="linearGradient7785-2-7" x1="160" y1="137" x2="160" y2="188" gradientUnits="userSpaceOnUse"/><linearGradient xlink:href="#linearGradient7827" id="linearGradient7867" gradientUnits="userSpaceOnUse" gradientTransform="translate(-35.934 -35.408) scale(.7191)" x1="79.623" y1="54.801" x2="79.623" y2="108.504"/><linearGradient id="linearGradient9422" osb:paint="solid"><stop offset="0" id="stop9420" stop-color="#a3bfcf"/></linearGradient><linearGradient id="linearGradient7827-6"><stop id="stop7823-2" offset="0" stop-color="#a3bfcf"/><stop id="stop7825-9" offset="1" stop-color="#6d8aa9"/></linearGradient><style id="style51071-8">.str0{stroke:#1f1a17;stroke-width:3}.fil0{fill:none}</style><style id="style2031-6">.str0{stroke:#1f1a17;stroke-width:.0762}.fil0,.fil1{fill:none}.fil1{fill-rule:nonzero}</style><style id="style5368-2">.str0,.str1{stroke:#000;stroke-width:63}.str1{stroke:#09098f}.fil5{fill:none}.fil1,.fil2{fill:#000}.fil3{fill:#4d66cc}.fil0{fill:#576ecd}.fil4{fill:#89a1d4}</style><style id="style51071">.str0{stroke:#1f1a17;stroke-width:3}.fil0{fill:none}</style><style id="style2031">.str0{stroke:#1f1a17;stroke-width:.0762}.fil0,.fil1{fill:none}.fil1{fill-rule:nonzero}</style><style id="style5368">.str0,.str1{stroke:#000;stroke-width:63}.str1{stroke:#09098f}.fil5{fill:none}.fil1,.fil2{fill:#000}.fil3{fill:#4d66cc}.fil0{fill:#576ecd}.fil4{fill:#89a1d4}</style></defs><g id="g7907" transform="translate(-48 -48)"><g id="g7905"><path id="path7759-9" d="M57 48h22c.717 0 2.258.258 3 1l22 22c.72.72.983 1.24 1 2v36c0 2-1 3-3 3H56.945C55 112 54 111 54 109V51c0-2 1-3 3-3z" style="isolation:auto;mix-blend-mode:normal;marker:none" color="#000" display="block" overflow="visible" fill-opacity=".125" stroke-width=".156" paint-order="fill markers stroke"/><path style="isolation:auto;mix-blend-mode:normal;marker:none" d="M58.016 49h19.992c.722 0 2.257.265 2.992 1l22 21c.72.72 1 1.271 1 2v35c0 2-1 3-3 3H58.016C56 111 55 110 55 108V52c0-2 1-3 3.016-3z" id="rect7756-2" color="#000" display="block" overflow="visible" fill="url(#linearGradient7785-2)" stroke-width=".145" paint-order="fill markers stroke"/><path style="line-height:normal;font-variant-ligatures:normal;font-variant-position:normal;font-variant-caps:normal;font-variant-numeric:normal;font-variant-alternates:normal;font-feature-settings:normal;text-indent:0;text-align:start;text-decoration-line:none;text-decoration-style:solid;text-decoration-color:#000;text-transform:none;text-orientation:mixed;shape-padding:0;isolation:auto;mix-blend-mode:normal;marker:none" d="M55 52v55.913C55 110 56 111 58 111h43c2 0 3-1 3-3V72.989c0-.718-.223-1.236-1.017-2.006L81 50c-.738-.716-2.27-1-3-1H58.016C56 49 55 50 55 52zm2-1h22l23 22v36H57z" id="path7787-2" color="#000" font-weight="400" font-family="sans-serif" white-space="normal" overflow="visible" fill="url(#linearGradient7821-8)" stroke-width="1.438" paint-order="fill markers stroke"/><path style="marker:none" d="M102 48H86l19 19V51c0-2-1-3-3-3z" id="path7763-8" fill-opacity=".125" fill-rule="evenodd" stroke-width=".156" paint-order="fill markers stroke"/><path id="path7761-9" d="M101 49H88l15.945 16L104 52c0-2-1-3-3-3z" fill="url(#linearGradient7843-2)" fill-rule="evenodd" stroke-width=".719"/><path style="line-height:normal;font-variant-ligatures:normal;font-variant-position:normal;font-variant-caps:normal;font-variant-numeric:normal;font-variant-alternates:normal;font-feature-settings:normal;text-indent:0;text-align:start;text-decoration-line:none;text-decoration-style:solid;text-decoration-color:#000;text-transform:none;text-orientation:mixed;shape-padding:0;isolation:auto;mix-blend-mode:normal" d="M88 49l15.945 16L104 52c0-2-1-2.953-3-2.953zm2 1h13v13z" id="path7797-7" color="#000" font-weight="400" font-family="sans-serif" white-space="normal" overflow="visible" fill="url(#linearGradient7835-3)" fill-rule="evenodd" stroke-width="1.438"/><path id="path8762-3" d="M85.604 78.516c-.893 0-1.402.58-1.402 1.62v.232h-.593v.483h.593v3.163h.629V80.85h1.465v3.163h.63V80.85h.93v-.483h-.93v-.33c0-.655.278-1.04.78-1.04.233 0 .382.038.524.09l.06-.466a1.896 1.896 0 0 0-.592-.106c-.892 0-1.402.58-1.402 1.62v.232h-1.465v-.33c0-.655.278-1.04.78-1.04.233 0 .383.038.525.09l.06-.466a1.896 1.896 0 0 0-.592-.106zm-18.054.075v5.423h.982l.023-.43h.015c.315.354.63.505 1.148.505.975 0 1.62-.882 1.62-1.981 0-1.062-.578-1.845-1.576-1.845-.532 0-.847.158-1.192.505h-.015V78.59zm13.232.24c-1.35 0-2.46.989-2.46 2.63 0 1.642 1.11 2.628 2.46 2.628 1.35 0 2.459-.986 2.459-2.628 0-1.641-1.11-2.63-2.459-2.63zm-14.465.032a.578.578 0 0 0-.576.58c0 .323.254.58.576.58a.58.58 0 0 0 0-1.16zm-4.4.044v5.107h3.291v-.776H62.92v-4.33zm26.983.144a.388.388 0 0 0-.39.391c0 .219.172.393.39.393.217 0 .39-.174.39-.393a.388.388 0 0 0-.39-.391zm-8.118.293c1.005 0 1.769.754 1.769 2.117s-.764 2.116-1.769 2.116-1.77-.753-1.77-2.116.765-2.117 1.77-2.117zm-6.75.92c-.48.03-.936.323-1.146.73h-.015l-.022-.655h-.983v3.675h1.005v-1.386c0-.738.135-1.001.367-1.167.203-.143.443-.204.773-.219zm2.184 0c-1.155 0-1.897.798-1.897 2.01 0 1.183.764 1.815 1.897 1.815.532 0 .907-.084 1.26-.242l-.105-.753c-.33.136-.668.22-1.027.22-.608 0-.998-.28-1.036-.851h2.378c.03-.136.045-.348.045-.506 0-.911-.555-1.694-1.515-1.694zm15.62.029c-1.124 0-1.971.685-1.971 1.965 0 1.205.764 1.831 1.777 1.831.45 0 .772-.053 1.14-.211l-.06-.483a2.365 2.365 0 0 1-.967.211c-.728 0-1.23-.458-1.23-1.43 0-.918.547-1.4 1.26-1.4.374 0 .705.09.975.217l.06-.48a2.288 2.288 0 0 0-.983-.22zm3.134 0c-1.012 0-1.754.843-1.754 1.965 0 1.235.742 1.831 1.754 1.831.45 0 .788-.068 1.14-.211l-.06-.483a2.462 2.462 0 0 1-.99.211c-.727 0-1.2-.444-1.215-1.273h2.527c.015-.135.023-.248.023-.361 0-.934-.488-1.679-1.425-1.679zm-29.154.046v3.675h1.004v-3.675zm22.77.03v3.645h.63v-3.646zm6.332.406c.555 0 .855.46.855 1.062h-1.897c.09-.64.442-1.062 1.042-1.062zm-25.539.264c.6 0 .9.429.9 1.13 0 .692-.291 1.144-.884 1.144-.517 0-.84-.407-.84-1.055v-.165c0-.633.284-1.054.824-1.054zm6.732 0c.435 0 .637.353.652.73h-1.417c.075-.422.368-.73.765-.73z" style="-inkscape-font-specification:Vegur" font-weight="400" font-size="67.562" font-family="Vegur" fill-opacity=".203" stroke-width=".111"/><path style="-inkscape-font-specification:Vegur" d="M67.539 78.44v5.423h.983l.023-.43h.014c.315.354.63.506 1.148.506.975 0 1.62-.882 1.62-1.982 0-1.062-.578-1.844-1.575-1.844-.533 0-.848.158-1.193.504h-.014v-2.176zm-1.233.272a.578.578 0 0 0-.576.58c0 .323.254.58.576.58a.58.58 0 0 0 0-1.16zm-4.4.046v5.105h3.291v-.775H62.91v-4.33zm12.117 1.355c-.48.03-.938.323-1.148.73h-.014l-.023-.655h-.983v3.675h1.006v-1.386c0-.738.134-1 .367-1.166.202-.143.443-.204.773-.22zm2.182 0c-1.155 0-1.897.799-1.897 2.01 0 1.183.765 1.815 1.897 1.815.533 0 .907-.083 1.26-.241l-.105-.753c-.33.135-.667.219-1.027.219-.608 0-.998-.279-1.035-.851h2.378c.03-.136.044-.347.044-.505 0-.912-.555-1.694-1.515-1.694zm-10.4.075v3.675h1.004v-3.675zm3.565.7c.6 0 .9.43.9 1.13 0 .692-.293 1.145-.885 1.145-.518 0-.84-.408-.84-1.055v-.166c0-.632.285-1.054.825-1.054zm6.73 0c.435 0 .637.354.652.73h-1.417c.075-.421.368-.73.765-.73z" id="path3245-2-6" font-weight="400" font-size="67.562" font-family="Vegur" fill="#18a303" stroke-width=".111"/><path style="-inkscape-font-specification:Vegur" d="M85.593 78.365c-.892 0-1.402.581-1.402 1.62v.233h-.593v.482h.593v3.163h.63V80.7h1.464v3.163h.63V80.7h.93v-.482h-.93v-.33c0-.656.278-1.04.78-1.04.233 0 .382.037.525.09l.06-.466a1.897 1.897 0 0 0-.593-.107c-.892 0-1.402.581-1.402 1.62v.233h-1.464v-.33c0-.656.278-1.04.78-1.04.233 0 .382.037.524.09l.06-.466a1.898 1.898 0 0 0-.592-.107zm-4.822.318c-1.35 0-2.46.986-2.46 2.628 0 1.641 1.11 2.628 2.46 2.628 1.35 0 2.459-.987 2.459-2.628 0-1.642-1.109-2.628-2.459-2.628zm8.118.217a.388.388 0 0 0-.39.392.39.39 0 1 0 .781 0 .389.389 0 0 0-.391-.392zm-8.118.295c1.005 0 1.77.753 1.77 2.116s-.765 2.115-1.77 2.115-1.77-.752-1.77-2.115c0-1.363.765-2.116 1.77-2.116zm11.055.948c-1.125 0-1.972.685-1.972 1.965 0 1.205.765 1.83 1.777 1.83.45 0 .773-.052 1.14-.21l-.06-.483a2.365 2.365 0 0 1-.967.211c-.727 0-1.23-.459-1.23-1.43 0-.919.547-1.4 1.26-1.4.375 0 .706.089.975.217l.06-.481a2.288 2.288 0 0 0-.983-.22zm3.133 0c-1.012 0-1.754.843-1.754 1.965 0 1.235.742 1.83 1.754 1.83.45 0 .788-.067 1.14-.21l-.059-.483a2.462 2.462 0 0 1-.99.211c-.728 0-1.2-.445-1.216-1.273h2.529c.015-.136.021-.247.021-.36 0-.934-.487-1.68-1.425-1.68zm-6.385.075v3.645h.63v-3.645zm6.333.407c.555 0 .855.46.855 1.062h-1.897c.09-.64.442-1.062 1.042-1.062z" id="path3255-0-1" font-weight="400" font-size="67.562" font-family="Vegur" stroke-width=".111"/><path id="path8019-2" d="M57 51v58h45V73L79.063 51zm1 1h21.063L101 73v35H58z" style="line-height:normal;font-variant-ligatures:normal;font-variant-position:normal;font-variant-caps:normal;font-variant-numeric:normal;font-variant-alternates:normal;font-feature-settings:normal;text-indent:0;text-align:start;text-decoration-line:none;text-decoration-style:solid;text-decoration-color:#000;text-transform:none;text-orientation:mixed;shape-padding:0;isolation:auto;mix-blend-mode:normal" color="#000" font-weight="400" font-family="sans-serif" white-space="normal" overflow="visible" fill="#fff" fill-opacity=".99" fill-rule="evenodd"/><path style="line-height:normal;font-variant-ligatures:normal;font-variant-position:normal;font-variant-caps:normal;font-variant-numeric:normal;font-variant-alternates:normal;font-feature-settings:normal;text-indent:0;text-align:start;text-decoration-line:none;text-decoration-style:solid;text-decoration-color:#000;text-transform:none;text-orientation:mixed;shape-padding:0;isolation:auto;mix-blend-mode:normal" d="M56 50v60h47V73L79 50zm1 1h21.803L102 73v36H57z" id="path7898" color="#000" font-weight="400" font-family="sans-serif" white-space="normal" overflow="visible" opacity=".398" fill="url(#linearGradient7937)" fill-rule="evenodd"/></g></g></svg>