<svg xmlns="http://www.w3.org/2000/svg" xmlns:xlink="http://www.w3.org/1999/xlink" height="64" viewBox="0 0 64 64" width="64"><title>Template icons dark</title><defs><linearGradient id="a"><stop offset="0" stop-color="#fff" stop-opacity=".427"/><stop offset=".423" stop-color="#fafcfe"/><stop offset="1" stop-color="#fff" stop-opacity=".49"/></linearGradient><linearGradient id="d"><stop offset="0" stop-color="#fe54ba"/><stop offset="1" stop-color="#722f98" stop-opacity=".995"/></linearGradient><linearGradient id="b"><stop offset="0" stop-color="#6a1262" stop-opacity=".611"/><stop offset="1" stop-color="#d75dea" stop-opacity=".979"/></linearGradient><linearGradient id="e"><stop offset="0" stop-color="#fff" stop-opacity=".179"/><stop offset="1" stop-color="#fff" stop-opacity=".795"/></linearGradient><linearGradient id="c"><stop offset="0" stop-color="#fff" stop-opacity=".526"/><stop offset=".446" stop-color="#fff" stop-opacity=".737"/><stop offset=".476" stop-color="#fff"/><stop offset=".503" stop-color="#fff" stop-opacity=".718"/><stop offset="1" stop-color="#fff" stop-opacity=".495"/></linearGradient><linearGradient gradientTransform="matrix(1.96996 0 0 1.96996 46.61 -473.158)" xlink:href="#c" id="r" x1="7.403" y1="282" x2="27.388" y2="282.145" gradientUnits="userSpaceOnUse"/><linearGradient xlink:href="#e" id="m" gradientUnits="userSpaceOnUse" x1="16.721" y1="296.202" x2="17.087" y2="265.977"/><linearGradient xlink:href="#d" id="f" gradientUnits="userSpaceOnUse" x1="16.791" y1="294.048" x2="16.839" y2="271.451"/><linearGradient xlink:href="#b" id="j" gradientUnits="userSpaceOnUse" x1="16.907" y1="265.033" x2="17.034" y2="278.562"/><linearGradient xlink:href="#d" id="g" gradientUnits="userSpaceOnUse" x1="16.791" y1="294.048" x2="16.839" y2="271.451"/><linearGradient xlink:href="#d" id="h" gradientUnits="userSpaceOnUse" x1="16.791" y1="294.048" x2="16.839" y2="271.451"/><linearGradient xlink:href="#d" id="i" gradientUnits="userSpaceOnUse" x1="16.791" y1="294.048" x2="16.839" y2="271.451"/><linearGradient xlink:href="#d" id="k" gradientUnits="userSpaceOnUse" x1="16.791" y1="294.048" x2="16.839" y2="271.451"/><linearGradient xlink:href="#d" id="l" gradientUnits="userSpaceOnUse" x1="16.791" y1="294.048" x2="16.839" y2="271.451"/><linearGradient xlink:href="#e" id="n" gradientUnits="userSpaceOnUse" x1="16.721" y1="296.202" x2="17.087" y2="265.977"/><linearGradient xlink:href="#e" id="o" gradientUnits="userSpaceOnUse" x1="16.721" y1="296.202" x2="17.087" y2="265.977"/><linearGradient xlink:href="#e" id="p" gradientUnits="userSpaceOnUse" x1="16.721" y1="296.202" x2="17.087" y2="265.977"/><linearGradient xlink:href="#e" id="q" gradientUnits="userSpaceOnUse" x1="16.721" y1="296.202" x2="17.087" y2="265.977"/></defs><g transform="matrix(1.96996 0 0 1.96996 -1.39 -521.158)" style="isolation:auto;mix-blend-mode:normal;marker:none" color="#000" overflow="visible" fill="url(#f)" stroke-width=".265" stroke-opacity=".984"><path d="M2.483 267.972v16.009l14.463-1.73v-17.562z" fill="url(#g)"/><path d="M2.483 283.98l14.45 12.929 14.46-12.94-14.447-1.719z" fill="url(#h)" fill-rule="evenodd" stroke-linejoin="round"/><path d="M16.946 264.69l14.448 3.277v16.003l-14.448-1.72z" fill="url(#i)" fill-rule="evenodd" stroke-linejoin="round"/><path d="M2.483 267.972l14.45 11.329 14.46-11.334-14.447-3.278z" fill="url(#j)"/><path d="M16.932 279.3v17.609l14.462-12.94v-16.002z" fill="url(#k)" fill-rule="evenodd" stroke-linejoin="round"/><path d="M2.483 267.972l14.45 11.329v17.608l-14.45-12.928z" fill="url(#l)" fill-rule="evenodd" stroke-linejoin="round"/></g><g transform="matrix(1.96996 0 0 1.96996 -1.39 -521.158)" style="isolation:auto;mix-blend-mode:normal;marker:none" color="#000" overflow="visible" fill="none" stroke="url(#m)" stroke-width=".265" stroke-opacity=".142"><path d="M2.483 283.98l14.45 12.929 14.46-12.94-14.447-1.882z" fill-rule="evenodd" stroke="url(#n)" stroke-linejoin="round"/><path d="M2.483 267.972l14.45 11.165 14.46-11.17-14.447-3.278z" stroke="url(#o)"/><path d="M16.932 279.137v17.772l14.462-12.94v-16.002z" fill-rule="evenodd" stroke="url(#p)" stroke-linejoin="round"/><path d="M2.483 267.972l14.45 11.165v17.772l-14.45-12.928z" fill-rule="evenodd" stroke="url(#q)" stroke-linejoin="round"/></g><path d="M8.455 10.98v31.7l2.451 2.219v-28.6l21.06 15.796L53.026 16.3v28.585l2.45-2.203V10.98l-23.51 17.633z" fill="#3f2c48" fill-opacity=".347" fill-rule="evenodd" stroke-width=".698"/><path d="M58.906 92.892V64.3l21.06 15.795 21.06-15.795v28.592l-10.53 9.444V85.36l-10.53 10.53-10.53-10.53v16.976z" fill="url(#r)" fill-rule="evenodd" stroke-width=".625" transform="translate(-48 -48)"/><path style="line-height:normal;font-variant-ligatures:normal;font-variant-position:normal;font-variant-caps:normal;font-variant-numeric:normal;font-variant-alternates:normal;font-feature-settings:normal;text-indent:0;text-align:start;text-decoration-line:none;text-decoration-style:solid;text-decoration-color:#000;text-transform:none;text-orientation:mixed;shape-padding:0;isolation:auto;mix-blend-mode:normal" d="M21.75 54.605V38.117l10.215 10.216 10.219-10.216v16.485l.624-.561-.001-17.436-10.842 10.843-10.843-10.843.001 17.434zm-10.531-37.68l20.746 15.56 20.75-15.56v28.254l.623-.494v-29.01L31.965 31.702l-21.37-16.029v28.942l.624.56z" color="#000" font-weight="400" font-family="sans-serif" white-space="normal" overflow="visible" fill="#fff" fill-rule="evenodd" stroke-width=".625"/></svg>