<svg xmlns="http://www.w3.org/2000/svg" xmlns:xlink="http://www.w3.org/1999/xlink" height="64" viewBox="0 0 64 64" width="64"><title>Template icons dark</title><defs><linearGradient id="j"><stop offset="0" stop-color="#078cd0" stop-opacity=".781"/><stop offset=".774" stop-color="#5946dd" stop-opacity=".584"/><stop offset="1" stop-color="#ca39f1" stop-opacity=".669"/></linearGradient><linearGradient id="i"><stop offset="0" stop-color="#078cd0" stop-opacity=".698"/><stop offset=".774" stop-color="#5946dd" stop-opacity=".443"/><stop offset="1" stop-color="#ca39f1" stop-opacity=".302"/></linearGradient><linearGradient id="c"><stop offset="0" stop-color="#d1f8fc" stop-opacity=".084"/><stop offset=".501" stop-color="#fff" stop-opacity=".039"/><stop offset="1" stop-color="#b6f3fa" stop-opacity=".096"/></linearGradient><linearGradient id="b"><stop offset="0" stop-color="#777"/><stop offset="1" stop-color="#595959"/></linearGradient><linearGradient id="h"><stop offset="0" stop-color="#fff" stop-opacity=".528"/><stop offset=".561" stop-color="#fff" stop-opacity=".522"/><stop offset="1" stop-color="#fff" stop-opacity="0"/></linearGradient><linearGradient id="f"><stop offset="0" stop-color="#fff" stop-opacity=".663"/><stop offset=".561" stop-color="#fff" stop-opacity=".522"/><stop offset="1" stop-color="#fff" stop-opacity="0"/></linearGradient><linearGradient id="g"><stop offset="0" stop-color="#fff"/><stop offset=".561" stop-color="#fff" stop-opacity=".522"/><stop offset="1" stop-color="#fff" stop-opacity="0"/></linearGradient><linearGradient id="e"><stop offset="0" stop-color="#4fb9ef" stop-opacity=".459"/><stop offset=".836" stop-color="#1f1cec" stop-opacity=".315"/><stop offset=".888" stop-color="#d039f1" stop-opacity=".376"/><stop offset="1" stop-color="#ca39f1" stop-opacity=".302"/></linearGradient><linearGradient id="d"><stop offset="0" stop-color="#393939"/><stop offset="1" stop-color="#181818"/></linearGradient><linearGradient id="a"><stop offset="0" stop-color="#efefef"/><stop offset="1" stop-color="#cacaca"/></linearGradient><linearGradient gradientTransform="rotate(45.116 19.587 -45.773) scale(.66667)" xlink:href="#c" id="n" x1="228.437" y1="20.042" x2="246.784" y2="1.62" gradientUnits="userSpaceOnUse"/><linearGradient gradientTransform="translate(-26.667 -27.35) scale(.66667)" xlink:href="#b" id="m" x1="158.033" y1="188.223" x2="158.033" y2="130.744" gradientUnits="userSpaceOnUse"/><linearGradient xlink:href="#a" id="k" x1="160" y1="133.669" x2="160" y2="186.583" gradientUnits="userSpaceOnUse" gradientTransform="matrix(.6674 0 0 .66667 -26.818 -27.35)"/><radialGradient xlink:href="#f" id="q" gradientUnits="userSpaceOnUse" gradientTransform="matrix(.51445 0 0 .41882 -2.429 11.945)" cx="160.366" cy="156" fx="160.366" fy="156" r="2.546"/><radialGradient xlink:href="#h" id="p" gradientUnits="userSpaceOnUse" gradientTransform="matrix(.33636 .0261 -.04151 .24398 32.928 36.774)" cx="160.02" cy="162.319" fx="160.02" fy="162.319" r="2.546"/><radialGradient xlink:href="#e" id="o" cx="-226.274" cy=".459" fx="-226.274" fy=".459" r="15.999" gradientUnits="userSpaceOnUse" gradientTransform="matrix(.76932 -.76932 .77033 .77033 253.76 -95.034)"/><radialGradient gradientTransform="translate(-26.667 -27.35) scale(.66667)" xlink:href="#d" id="l" cx="160" cy="160" fx="160" fy="160" r="33" gradientUnits="userSpaceOnUse"/></defs><g color="#000" transform="translate(-48 -48)"><rect style="isolation:auto;mix-blend-mode:normal;marker:none" width="64" height="39" x="48" y="60" ry="2.762" display="block" overflow="visible" fill-opacity=".131" stroke-width=".547" paint-order="fill markers stroke"/><rect style="isolation:auto;mix-blend-mode:normal;marker:none" width="62" height="37" x="49" y="61" ry="2.667" display="block" overflow="visible" fill="url(#k)" stroke-width="1.333" stroke-opacity=".344" paint-order="fill markers stroke"/><path style="isolation:auto;mix-blend-mode:normal;marker:none" d="M49 94.773v.667c0 1.477 1.245 2.56 2.722 2.56h56.51c1.477 0 2.768-1.118 2.768-2.596v-.667c0 1.478-1.291 2.263-2.768 2.263h-56.51C50.245 97 49 96.25 49 94.773z" display="block" overflow="visible" fill="#eee" stroke-width="1.332" stroke-opacity=".344" paint-order="fill markers stroke"/><path style="isolation:auto;mix-blend-mode:normal;marker:none" d="M102.832 79.983A22.832 22.832 0 0 1 80 102.816a22.832 22.832 0 0 1-22.832-22.833A22.832 22.832 0 0 1 80 57.151a22.832 22.832 0 0 1 22.832 22.832z" overflow="visible" fill-opacity=".23" stroke-width="1.209" paint-order="fill markers stroke"/><path style="isolation:auto;mix-blend-mode:normal;marker:none" d="M101.332 79.316A21.332 21.332 0 0 1 80 100.65a21.332 21.332 0 0 1-21.332-21.333A21.332 21.332 0 0 1 80 57.984a21.332 21.332 0 0 1 21.332 21.332z" overflow="visible" fill="url(#l)" stroke="#f2f2f2" stroke-width="1.336" paint-order="fill markers stroke"/><path style="line-height:normal;font-variant-ligatures:normal;font-variant-position:normal;font-variant-caps:normal;font-variant-numeric:normal;font-variant-alternates:normal;font-feature-settings:normal;text-indent:0;text-align:start;text-decoration-line:none;text-decoration-style:solid;text-decoration-color:#000;text-transform:none;text-orientation:mixed;shape-padding:0;isolation:auto;mix-blend-mode:normal;marker:none" d="M80 58.559c-11.452 0-20.758 9.306-20.758 20.757 0 11.452 9.306 20.758 20.758 20.758s20.758-9.306 20.758-20.758c0-11.451-9.306-20.757-20.758-20.757zm0 2.165c10.281 0 18.593 8.311 18.593 18.592C98.593 89.598 90.28 97.91 80 97.91s-18.593-8.311-18.593-18.593c0-10.28 8.312-18.592 18.593-18.592z" font-weight="400" font-family="sans-serif" white-space="normal" overflow="visible" fill="url(#m)" stroke-width="2.165" paint-order="fill markers stroke"/><path style="line-height:normal;font-variant-ligatures:normal;font-variant-position:normal;font-variant-caps:normal;font-variant-numeric:normal;font-variant-alternates:normal;font-feature-settings:normal;text-indent:0;text-align:start;text-decoration-line:none;text-decoration-style:solid;text-decoration-color:#000;text-transform:none;text-orientation:mixed;shape-padding:0;isolation:auto;mix-blend-mode:normal;marker:none" d="M80 57.083c-12.268 0-22.233 9.965-22.233 22.233 0 12.269 9.965 22.234 22.233 22.234s22.233-9.965 22.233-22.234c0-12.268-9.965-22.233-22.233-22.233zm0 1.802c11.295 0 20.431 9.137 20.431 20.431 0 11.295-9.136 20.432-20.431 20.432-11.295 0-20.431-9.137-20.431-20.432 0-11.294 9.136-20.43 20.431-20.43z" font-weight="400" font-family="sans-serif" white-space="normal" overflow="visible" fill="#fff" stroke-width="1.802" paint-order="fill markers stroke"/><path style="isolation:auto;mix-blend-mode:normal;marker:none" d="M92.35 91.576a17.577 17.577 0 0 1-24.858-.05l12.454-12.404z" overflow="visible" fill="url(#n)" stroke-width="1.101" paint-order="fill markers stroke"/><path style="isolation:auto;mix-blend-mode:normal;marker:none" d="M67.685 67.042a17.439 17.439 0 0 1 24.662.05L79.991 79.398z" overflow="visible" fill="url(#o)" stroke-width="1.092" paint-order="fill markers stroke"/><path style="isolation:auto;mix-blend-mode:normal;marker:none" d="M80.843 80.513a.884.597 0 0 1-.884.597.884.597 0 0 1-.883-.597.884.597 0 0 1 .883-.597.884.597 0 0 1 .884.597z" overflow="visible" fill="url(#p)" stroke-width=".121" paint-order="fill markers stroke"/><path style="isolation:auto;mix-blend-mode:normal;marker:none" d="M81.382 77.28a1.31 1.066 0 0 1-1.31 1.067 1.31 1.066 0 0 1-1.31-1.066 1.31 1.066 0 0 1 1.31-1.066 1.31 1.066 0 0 1 1.31 1.066z" overflow="visible" fill="url(#q)" stroke-width=".103" paint-order="fill markers stroke"/><path style="isolation:auto;mix-blend-mode:normal;marker:none" d="M54.635 63.379a1.302 1.302 0 0 0-1.302 1.302 1.302 1.302 0 0 0 .005.102 1.302 1.302 0 0 1 1.297-1.201 1.302 1.302 0 0 1 1.297 1.2 1.302 1.302 0 0 0 .006-.101 1.302 1.302 0 0 0-1.303-1.302z" overflow="visible" fill-opacity=".506" stroke-width=".667" paint-order="fill markers stroke"/><circle style="isolation:auto;mix-blend-mode:normal;marker:none" cx="80" cy="79.316" r="4.809" overflow="visible" fill="none" fill-opacity=".459" stroke="#8e8e8e" stroke-width="1.599" paint-order="fill markers stroke"/><circle r="5.666" cy="79.316" cx="80" style="isolation:auto;mix-blend-mode:normal;marker:none" overflow="visible" fill="#030303" fill-opacity=".459" stroke="#969696" stroke-width=".601" paint-order="fill markers stroke"/><circle style="isolation:auto;mix-blend-mode:normal;marker:none" cx="80" cy="79.316" r="15.69" overflow="visible" fill="none" fill-opacity=".459" stroke="#fff" stroke-width=".154" stroke-opacity=".237" paint-order="fill markers stroke"/><circle r="9.657" cy="79.316" cx="80" style="isolation:auto;mix-blend-mode:normal;marker:none" overflow="visible" fill="none" fill-opacity=".459" stroke="#fff" stroke-width=".067" stroke-opacity=".376" paint-order="fill markers stroke"/><circle style="isolation:auto;mix-blend-mode:normal;marker:none" cx="54.635" cy="64.681" r="1.302" overflow="visible" fill="#ea6565" stroke-width=".667" paint-order="fill markers stroke"/></g></svg>