<svg xmlns="http://www.w3.org/2000/svg" xmlns:xlink="http://www.w3.org/1999/xlink" height="64" viewBox="0 0 64 64" width="64"><title>Template icons dark</title><defs><linearGradient id="h"><stop offset="0" stop-color="#2aa591"/><stop offset="1" stop-color="#2498e4"/></linearGradient><linearGradient id="g"><stop offset="0" stop-color="#eeda60"/><stop offset="1" stop-color="#db9918"/></linearGradient><linearGradient id="b"><stop offset="0" stop-color="#2a0ff3" stop-opacity=".132"/><stop offset=".521" stop-color="#3bf963" stop-opacity=".291"/><stop offset="1" stop-color="#ef4cff" stop-opacity=".297"/></linearGradient><linearGradient id="a"><stop offset="0" stop-color="#e1e3e7"/><stop offset=".21" stop-color="#dee1e4"/><stop offset=".38" stop-color="#f1f2f3"/><stop offset=".67" stop-color="#c2c6cd"/><stop offset="1" stop-color="#d7dadf"/></linearGradient><linearGradient id="c"><stop offset="0" stop-color="#fff"/><stop offset="1" stop-color="#fff" stop-opacity="0"/></linearGradient><linearGradient id="d"><stop offset="0"/><stop offset="1" stop-opacity="0"/></linearGradient><linearGradient id="e"><stop offset="0" stop-color="#babdb6"/><stop offset="1" stop-color="#fff"/></linearGradient><linearGradient id="f"><stop offset="0" stop-color="#888a85"/><stop offset="1" stop-color="#555753"/></linearGradient><linearGradient gradientTransform="matrix(1.526 0 0 1.526 43.635 43.422)" xlink:href="#a" id="i" x1="9.196" y1="4.43" x2="37.228" y2="44" gradientUnits="userSpaceOnUse"/></defs><path d="M9 2v60h11l2-2h21l2 2h10V2z" fill-opacity=".104" stroke-width="1.594" stroke-opacity=".24"/><path d="M10 3v58.12L20 61l4-4.984L41 56l4 5h9V3z" fill="#565e66" stroke-width="1.526" stroke-opacity=".24"/><path d="M59 52l.087 56H68l4-3.984L89 104l4 4h8V52z" fill="url(#i)" stroke-width="1.526" stroke-opacity=".24" transform="translate(-48 -48)"/><path d="M24 56.016l-2.396 2.99L43.406 59 41 56z" fill="#6c7587" fill-rule="evenodd" stroke-width="1.526"/><path style="isolation:auto;mix-blend-mode:normal;marker:none" d="M23.984 56L24 59h1v-3zM27 56l-.016 3H28v-3zm3 0v3h1v-3zm4 0v3h1v-3zm3 0v3h1v-3zm3 0v3h1v-3z" color="#000" display="block" overflow="visible" fill="#eeda60" stroke-width=".198" stroke-linecap="round" stroke-linejoin="round" stroke-opacity=".964"/><path d="M24 56.016L22.397 58H42.6L41 56z" fill-opacity=".247" fill-rule="evenodd" stroke-width="1.072"/><path style="isolation:auto;mix-blend-mode:normal;marker:none" d="M20 14h24l.032 34H20z" color="#000" display="block" overflow="visible" fill-opacity=".22" stroke-width=".396" stroke-linecap="round" stroke-linejoin="round" stroke-opacity=".964"/><path style="isolation:auto;mix-blend-mode:normal;marker:none" d="M20 48h24.031L44 49H20z" color="#000" overflow="visible" fill="#fff" fill-opacity=".5" stroke-width=".727" stroke-linecap="square" stroke-dasharray="1.45455186,1.45455186" stroke-dashoffset="9.739" paint-order="markers stroke fill"/><path d="M14.365 32c.808 0 1.458.65 1.458 1.457 0 .808-.65 1.457-1.458 1.457-.807 0-1.457-.65-1.457-1.457S13.558 32 14.365 32zM14.365 55.15c.808 0 1.458.65 1.458 1.457s-.65 1.457-1.458 1.457c-.807 0-1.457-.65-1.457-1.457 0-.808.65-1.458 1.457-1.458zM49.458 6.027c.807 0 1.457.65 1.457 1.458 0 .807-.65 1.457-1.457 1.457-.808 0-1.457-.65-1.457-1.457 0-.808.65-1.458 1.457-1.458zM49.458 32c.807 0 1.457.65 1.457 1.457 0 .808-.65 1.457-1.457 1.457-.808 0-1.457-.65-1.457-1.457S48.65 32 49.458 32zM49.458 55.15c.807 0 1.457.65 1.457 1.457s-.65 1.457-1.457 1.457c-.808 0-1.457-.65-1.457-1.457 0-.808.65-1.458 1.457-1.458zM14.365 6.027c.808 0 1.458.65 1.458 1.458 0 .807-.65 1.457-1.458 1.457-.807 0-1.457-.65-1.457-1.457 0-.808.65-1.458 1.457-1.458z" fill="#737373" stroke-width="1.943" stroke-opacity=".643"/><path d="M14.365 6.027c-.807 0-1.457.65-1.457 1.458 0 .071.011.139.021.207a1.45 1.45 0 0 1 2.872 0c.01-.068.022-.136.022-.207 0-.807-.65-1.458-1.458-1.458zm35.093 0c-.808 0-1.458.65-1.458 1.458 0 .071.012.139.022.207a1.45 1.45 0 0 1 2.872 0c.01-.068.021-.136.021-.207 0-.807-.65-1.458-1.457-1.458zM14.365 32c-.807 0-1.457.65-1.457 1.457 0 .071.011.14.021.208a1.45 1.45 0 0 1 2.872 0c.01-.069.022-.137.022-.208 0-.807-.65-1.457-1.458-1.457zm35.093 0C48.65 32 48 32.65 48 33.457c0 .071.012.14.022.208a1.45 1.45 0 0 1 2.872 0c.01-.069.021-.137.021-.208 0-.807-.65-1.457-1.457-1.457zM14.365 55.15c-.807 0-1.457.65-1.457 1.457 0 .07.011.139.021.207a1.45 1.45 0 0 1 2.872 0c.01-.068.022-.136.022-.207 0-.808-.65-1.458-1.458-1.458zm35.093 0c-.808 0-1.458.65-1.458 1.457 0 .07.012.139.022.207a1.45 1.45 0 0 1 2.872 0c.01-.068.021-.136.021-.207 0-.808-.65-1.458-1.457-1.458z" fill-opacity=".462" stroke-width="1.943" stroke-opacity=".643"/><path style="isolation:auto;mix-blend-mode:normal;marker:none" d="M14.365 6.755a.727.727 0 1 0 0 1.454.727.727 0 0 0 0-1.454zm35.093 0a.727.727 0 1 0 0 1.454.727.727 0 0 0 0-1.454zM14.365 32.727a.727.727 0 1 0 0 1.455.727.727 0 0 0 0-1.455zm35.093 0a.727.727 0 1 0 0 1.455.727.727 0 0 0 0-1.455zm-35.093 23.15a.727.727 0 1 0 0 1.454.727.727 0 0 0 0-1.454zm35.093.027a.727.727 0 1 0 0 1.454.727.727 0 0 0 0-1.454z" color="#000" display="block" overflow="visible" fill="#fff" fill-opacity=".275" stroke-width=".276" stroke-opacity=".28" paint-order="fill markers stroke"/><path style="isolation:auto;mix-blend-mode:normal;marker:none" d="M33.24 18.7c-6.216 0-10.13 4.475-10.13 10.021a10.043 10.043 0 0 0 1.65 5.509 5.687 5.687 0 0 0-4.351 5.521 5.687 5.687 0 1 0 11.373 0 5.689 5.689 0 0 0-.116-1.11c.492.078.99.119 1.488.123 5.547 0 10.043-4.496 10.043-10.043 0-5.546-4.152-10.021-9.957-10.021z" color="#000" display="block" overflow="visible" fill="#fff" fill-opacity=".324" stroke="#000" stroke-width=".558" stroke-opacity=".28" paint-order="fill markers stroke"/><path style="isolation:auto;mix-blend-mode:normal;marker:none" d="M32.235 20.774c-.138 0-.215.11-.25.237l-.497 1.845a6.297 6.297 0 0 0-1.3.543l-1.656-.949c-.114-.065-.245-.088-.343.01l-1.434 1.433c-.098.099-.075.231-.01.346l.965 1.679c-.218.403-.392.83-.517 1.27l-1.872.51c-.128.035-.238.112-.238.25v2.028c0 .139.11.217.238.251l1.914.516c.13.418.303.823.516 1.206l-.99 1.731c-.065.115-.09.246.008.344l1.435 1.433c.098.099.231.076.345.01l1.763-1.014c.322.169.8.35 1.163.479l.533 1.96c.035.127.111.236.25.236h2.028c.14 0 .216-.109.25-.236l.535-1.976c.362-.117.769-.313 1.157-.473l1.762 1.009c.114.065.247.088.345-.01l1.433-1.434c.098-.098.076-.23.01-.345l-1.013-1.757c.204-.374.371-.767.496-1.175l1.94-.527c.127-.034.238-.11.238-.25v-2.028c0-.139-.11-.216-.238-.25l-1.909-.516a6.29 6.29 0 0 0-.501-1.242l.971-1.695c.066-.114.089-.247-.01-.345l-1.433-1.433c-.098-.099-.23-.076-.345-.01l-1.675.963a6.295 6.295 0 0 0-1.282-.54l-.503-1.847c-.035-.127-.111-.237-.25-.237zm1.027 5.178a2.992 2.992 0 1 1 0 5.983 2.992 2.992 0 0 1 0-5.983zm-7.898 9.769c-.073 0-.115.057-.133.123l-.26.966a3.296 3.296 0 0 0-.68.284l-.866-.495c-.06-.035-.13-.047-.18.004l-.75.751c-.052.052-.04.121-.007.18l.506.879a3.296 3.296 0 0 0-.27.666l-.98.267c-.066.018-.123.058-.123.13v1.062c0 .072.057.112.123.13l1.002.27c.067.22.158.43.27.631l-.519.908c-.034.06-.046.127.006.179l.75.751c.051.051.12.039.18.004l.923-.53c.169.087.418.183.608.25l.28 1.026c.018.067.058.124.131.124h1.061c.073 0 .113-.057.13-.124l.28-1.034c.19-.061.404-.164.607-.247l.922.528c.06.035.129.046.18-.005l.75-.75c.052-.052.04-.121.006-.18l-.53-.921c.107-.196.193-.402.259-.615l1.015-.276c.067-.018.125-.058.125-.13v-1.063c0-.073-.058-.113-.125-.13l-.998-.27a3.295 3.295 0 0 0-.263-.651l.509-.887c.034-.06.045-.129-.006-.18l-.75-.75c-.052-.051-.121-.04-.18-.006l-.877.504a3.298 3.298 0 0 0-.672-.282l-.263-.968c-.018-.066-.058-.123-.13-.123zm.537 2.71a1.565 1.565 0 1 1 0 3.13 1.565 1.565 0 0 1 0-3.13z" color="#000" overflow="visible" fill="#656c76" stroke="#f7f2f8" stroke-width=".276" stroke-opacity=".808" paint-order="fill markers stroke"/><path style="isolation:auto;mix-blend-mode:normal;marker:none" color="#000" display="block" overflow="visible" fill-opacity=".286" stroke-width=".727" stroke-linecap="square" stroke-dasharray="1.45455186,1.45455186" stroke-dashoffset="9.739" paint-order="markers stroke fill" d="M20 14h24v1H20z"/></svg>