<svg xmlns="http://www.w3.org/2000/svg" xmlns:xlink="http://www.w3.org/1999/xlink" height="64" viewBox="0 0 64 64" width="64"><title>Template icons dark</title><defs><linearGradient id="k"><stop offset="0" stop-color="#4c4553"/><stop offset="1" stop-color="#3b3144" stop-opacity=".969"/></linearGradient><linearGradient id="j"><stop offset="0" stop-color="#3d3743"/><stop offset="1" stop-color="#2f2736" stop-opacity=".969"/></linearGradient><linearGradient id="d"><stop offset="0" stop-color="#f87c32"/><stop offset="1" stop-color="#fdab5a" stop-opacity=".996"/></linearGradient><linearGradient id="i"><stop offset="0" stop-color="#fff" stop-opacity=".125"/><stop offset="1" stop-color="#fff" stop-opacity="0"/></linearGradient><linearGradient id="h"><stop offset="0" stop-color="#fff" stop-opacity=".198"/><stop offset="1" stop-color="#fff" stop-opacity="0"/></linearGradient><linearGradient id="g"><stop offset="0" stop-color="#2c3749"/><stop offset="1" stop-color="#3d3c63"/></linearGradient><linearGradient id="f"><stop offset="0" stop-opacity=".129"/><stop offset=".347" stop-color="#4f4f4f" stop-opacity="0"/><stop offset=".765" stop-color="#8d8d8d" stop-opacity="0"/><stop offset="1" stop-color="#fff" stop-opacity=".104"/></linearGradient><linearGradient id="o"><stop offset="0" stop-opacity=".057"/><stop offset=".909" stop-color="#fff" stop-opacity=".02"/><stop offset="1" stop-color="#fff" stop-opacity=".536"/></linearGradient><linearGradient id="e"><stop offset="0" stop-color="#ff994a"/><stop offset="1" stop-color="#ffb555"/></linearGradient><linearGradient id="n"><stop offset="0" stop-opacity="0"/><stop offset=".887" stop-opacity=".078"/><stop offset="1" stop-color="#fff" stop-opacity=".464"/></linearGradient><linearGradient id="m"><stop offset="0" stop-opacity="0"/><stop offset=".887" stop-opacity=".078"/><stop offset="1" stop-opacity=".188"/></linearGradient><linearGradient id="l"><stop offset="0" stop-opacity=".057"/><stop offset=".909" stop-opacity=".021"/><stop offset="1" stop-opacity=".505"/></linearGradient><linearGradient id="c"><stop offset="0" stop-color="#f88232"/><stop offset="1" stop-color="#fdc85a" stop-opacity=".995"/></linearGradient><linearGradient id="b"><stop offset="0" stop-color="#ed7837" stop-opacity=".974"/><stop offset="1" stop-color="#e45a2a"/></linearGradient><linearGradient id="a"><stop offset="0" stop-color="#403a47"/><stop offset="1" stop-color="#2c2533" stop-opacity=".971"/></linearGradient><linearGradient xlink:href="#i" id="F" gradientUnits="userSpaceOnUse" gradientTransform="matrix(.7178 0 0 .7178 -35.873 -34.826)" x1="158.559" y1="119" x2="158.559" y2="151"/><linearGradient xlink:href="#h" id="E" x1="158.559" y1="119" x2="158.559" y2="151" gradientUnits="userSpaceOnUse" gradientTransform="translate(-30.49 -29.442) scale(.68416)"/><linearGradient xlink:href="#f" id="D" x1="187.697" y1="190.626" x2="187.697" y2="176.858" gradientUnits="userSpaceOnUse" gradientTransform="matrix(.71406 0 0 .70922 -35.867 -33.846)"/><linearGradient gradientTransform="matrix(.68837 0 0 .68837 -31.162 -30.115)" xlink:href="#g" id="C" x1="188" y1="191" x2="188" y2="177" gradientUnits="userSpaceOnUse"/><linearGradient xlink:href="#c" id="z" gradientUnits="userSpaceOnUse" gradientTransform="rotate(-96.838 79.168 -56.705) scale(.48659)" x1="-101.254" y1="-148.008" x2="-84.616" y2="-106.562"/><linearGradient xlink:href="#d" id="w" gradientUnits="userSpaceOnUse" gradientTransform="matrix(.51302 -.45898 .45898 .51302 -58.002 5.845)" x1="104.202" y1="237.968" x2="124.46" y2="214.022"/><linearGradient xlink:href="#c" id="v" gradientUnits="userSpaceOnUse" gradientTransform="scale(.68837) rotate(74.668 29.51 -99.9)" x1="295.286" y1="-123.22" x2="267.135" y2="-118.871"/><linearGradient xlink:href="#c" id="u" gradientUnits="userSpaceOnUse" gradientTransform="scale(-.68837) rotate(7.591 -372.627 -124.93)" x1="-112.967" y1="-156.148" x2="-80.17" y2="-124.045"/><linearGradient xlink:href="#c" id="t" gradientUnits="userSpaceOnUse" gradientTransform="matrix(-.2623 -.20175 .20175 -.2623 78.94 17.086)" x1="-112.967" y1="-156.148" x2="-80.17" y2="-124.045"/><linearGradient xlink:href="#c" id="s" gradientUnits="userSpaceOnUse" gradientTransform="rotate(166.031 -8.325 1.484) scale(.63938)" x1="-95.591" y1="-143.575" x2="-67.254" y2="-126.208"/><linearGradient xlink:href="#b" id="r" x1="159.873" y1="151.837" x2="159.873" y2="167.94" gradientUnits="userSpaceOnUse" gradientTransform="matrix(.95598 0 0 .95598 -73.98 -72.933)"/><linearGradient gradientTransform="matrix(.68837 0 0 .68837 -31.162 -30.115)" xlink:href="#e" id="q" x1="161.189" y1="172.735" x2="162.769" y2="145.544" gradientUnits="userSpaceOnUse"/><linearGradient xlink:href="#a" id="p" x1="158.551" y1="120" x2="158.551" y2="196.51" gradientUnits="userSpaceOnUse" gradientTransform="matrix(.71854 0 0 .71854 -35.99 -34.942)"/><radialGradient xlink:href="#o" id="B" gradientUnits="userSpaceOnUse" gradientTransform="matrix(-1.02895 -.67765 .7767 -1.17935 2.153 -203.405)" cx="-176.577" cy="-137.64" fx="-176.577" fy="-137.64" r="15.364"/><radialGradient xlink:href="#n" id="A" gradientUnits="userSpaceOnUse" gradientTransform="matrix(.6632 -.1929 .25712 .884 18.999 -114.071)" cx="24.007" cy="220.792" fx="24.007" fy="220.792" r="18.085"/><radialGradient xlink:href="#m" id="y" gradientUnits="userSpaceOnUse" gradientTransform="matrix(.65457 -.19038 .25377 .8725 19.774 -111.527)" cx="24.007" cy="220.792" fx="24.007" fy="220.792" r="18.085"/><radialGradient xlink:href="#l" id="x" cx="-176.577" cy="-137.64" fx="-176.577" fy="-137.64" r="15.364" gradientTransform="matrix(-1.01366 -.66759 .76516 -1.16183 3.301 -199.193)" gradientUnits="userSpaceOnUse"/></defs><g transform="translate(-48 -48)"><circle r="30.977" cy="80.023" cx="78.977" style="isolation:auto;mix-blend-mode:normal;marker:none" color="#000" display="block" overflow="visible" fill-opacity=".104" stroke-width=".065" stroke-miterlimit="4.6" paint-order="fill markers stroke"/><path style="isolation:auto;mix-blend-mode:normal;marker:none" d="M109.265 80.023a30.288 30.288 0 0 1-30.289 30.289 30.288 30.288 0 0 1-30.288-30.289 30.288 30.288 0 0 1 30.288-30.288 30.288 30.288 0 0 1 30.289 30.288z" color="#000" display="block" overflow="visible" fill="#191520" stroke-width=".064" stroke-miterlimit="4.6" paint-order="fill markers stroke"/><path style="isolation:auto;mix-blend-mode:normal;marker:none" d="M107.888 80.023a28.911 28.911 0 0 1-28.912 28.912 28.911 28.911 0 0 1-28.91-28.912 28.911 28.911 0 0 1 28.91-28.91 28.911 28.911 0 0 1 28.912 28.91z" color="#000" display="block" overflow="visible" fill="url(#p)" stroke-width=".061" stroke-miterlimit="4.6" paint-order="fill markers stroke"/><path style="isolation:auto;mix-blend-mode:normal;marker:none" d="M105.955 80.023a26.978 26.978 0 0 1-26.979 26.979 26.978 26.978 0 0 1-26.978-26.979 26.978 26.978 0 0 1 26.978-26.978 26.978 26.978 0 0 1 26.979 26.978z" color="#000" display="block" overflow="visible" fill="none" stroke="#000" stroke-width="3.822" stroke-miterlimit="4.6" stroke-opacity=".109" paint-order="fill markers stroke"/><path style="isolation:auto;mix-blend-mode:normal;marker:none" d="M101.917 80.023a22.94 22.94 0 0 1-22.94 22.941 22.94 22.94 0 0 1-22.941-22.94 22.94 22.94 0 0 1 22.94-22.941 22.94 22.94 0 0 1 22.941 22.94z" color="#000" display="block" overflow="visible" fill="none" stroke="#000" stroke-width="5.101" stroke-miterlimit="4.6" stroke-opacity=".125" paint-order="fill markers stroke"/><path style="isolation:auto;mix-blend-mode:normal;marker:none" d="M97.457 80.023a18.48 18.48 0 0 1-18.48 18.481 18.48 18.48 0 0 1-18.481-18.48 18.48 18.48 0 0 1 18.48-18.481 18.48 18.48 0 0 1 18.481 18.48z" color="#000" display="block" overflow="visible" fill="none" stroke="#000" stroke-width="4.409" stroke-miterlimit="4.6" stroke-opacity=".089" paint-order="fill markers stroke"/><path style="isolation:auto;mix-blend-mode:normal;marker:none" d="M104.628 80.023a25.651 25.651 0 0 1-25.652 25.652 25.651 25.651 0 0 1-25.65-25.652 25.651 25.651 0 0 1 25.65-25.65 25.651 25.651 0 0 1 25.652 25.65z" color="#000" display="block" overflow="visible" fill="none" stroke="#fbfbfb" stroke-width=".343" stroke-miterlimit="4.6" stroke-opacity=".099" paint-order="fill markers stroke"/><path style="isolation:auto;mix-blend-mode:normal;marker:none" d="M99.855 80.023a20.878 20.878 0 0 1-20.879 20.879 20.878 20.878 0 0 1-20.878-20.879 20.878 20.878 0 0 1 20.878-20.878 20.878 20.878 0 0 1 20.879 20.878z" color="#000" display="block" overflow="visible" fill="none" stroke="#fbfbfb" stroke-width=".315" stroke-miterlimit="4.6" stroke-opacity=".12" paint-order="fill markers stroke"/><path style="isolation:auto;mix-blend-mode:normal;marker:none" d="M95.567 80.023a16.59 16.59 0 0 1-16.59 16.591 16.59 16.59 0 0 1-16.591-16.59 16.59 16.59 0 0 1 16.59-16.591 16.59 16.59 0 0 1 16.591 16.59z" color="#000" display="block" overflow="visible" fill="none" stroke="#fbfbfb" stroke-width=".344" stroke-miterlimit="4.6" stroke-opacity=".141" paint-order="fill markers stroke"/><path style="isolation:auto;mix-blend-mode:normal;marker:none" d="M88.346 80.023a9.37 9.37 0 0 1-7.294 9.137 9.37 9.37 0 0 1-10.525-5.088 9.37 9.37 0 0 1 2.63-11.391l5.82 7.342z" color="#000" display="block" overflow="visible" fill="none" fill-opacity=".943" stroke="url(#q)" stroke-width="3.252" stroke-miterlimit="4.6" paint-order="fill markers stroke"/><path style="isolation:auto;mix-blend-mode:normal;marker:none" d="M84.952 80.533a5.975 5.975 0 0 1-5.976 5.976 5.975 5.975 0 0 1-5.975-5.976 5.975 5.975 0 0 1 5.975-5.975 5.975 5.975 0 0 1 5.976 5.975z" color="#000" display="block" overflow="visible" fill="none" fill-opacity=".943" stroke="#000" stroke-width="3.641" stroke-miterlimit="4.6" stroke-opacity=".354" paint-order="fill markers stroke"/><path style="isolation:auto;mix-blend-mode:normal;marker:none" d="M95.154 80.023a16.178 16.178 0 0 1-16.178 16.178A16.178 16.178 0 0 1 62.8 80.023a16.178 16.178 0 0 1 16.177-16.177 16.178 16.178 0 0 1 16.178 16.177z" color="#000" display="block" overflow="visible" fill="none" stroke="#000" stroke-width=".336" stroke-miterlimit="4.6" stroke-opacity=".344" paint-order="fill markers stroke"/><path style="isolation:auto;mix-blend-mode:normal;marker:none" d="M84.952 80.023A5.975 5.975 0 0 1 78.976 86a5.975 5.975 0 0 1-5.975-5.976 5.975 5.975 0 0 1 5.975-5.975 5.975 5.975 0 0 1 5.976 5.975z" color="#000" display="block" overflow="visible" fill="none" fill-opacity=".943" stroke="url(#r)" stroke-width="3.641" stroke-miterlimit="4.6" paint-order="fill markers stroke"/><path style="isolation:auto;mix-blend-mode:normal;marker:none" d="M53.06 86.693a26.866 26.866 0 0 1 1.244-16.75L79.13 80.208z" color="#000" display="block" overflow="visible" fill="url(#s)" stroke-width="18.701" stroke-miterlimit="4.6" paint-order="fill markers stroke"/><path style="isolation:auto;mix-blend-mode:normal;marker:none" d="M68.056 71.412a13.904 13.904 0 0 1 12.756-5.318L79.077 79.89z" color="#000" display="block" overflow="visible" fill="url(#t)" stroke-width="9.679" stroke-miterlimit="4.6" paint-order="fill markers stroke"/><path style="isolation:auto;mix-blend-mode:normal;marker:none" d="M50.458 76.074a28.924 28.924 0 0 1 17.458-22.842l11.212 26.663z" color="#000" display="block" overflow="visible" fill="url(#u)" stroke-width="20.133" stroke-miterlimit="4.6" paint-order="fill markers stroke"/><path style="isolation:auto;mix-blend-mode:normal;marker:none" d="M84.669 100.033a20.981 20.981 0 0 1-20.193-5.21L79.12 79.798z" color="#000" display="block" overflow="visible" fill="url(#v)" stroke-width="20.133" stroke-miterlimit="4.6" paint-order="fill markers stroke"/><path style="isolation:auto;mix-blend-mode:normal;marker:none" d="M50.213 79.934a28.924 28.924 0 0 1 .237-3.758l28.687 3.69z" color="#000" display="block" overflow="visible" fill-opacity=".219" stroke-width="20.133" stroke-miterlimit="4.6" paint-order="fill markers stroke"/><path style="isolation:auto;mix-blend-mode:normal;marker:none" d="M103.583 57.924a33.042 33.042 0 0 1 8.366 23.865l-32.99-1.834z" color="#000" display="block" overflow="visible" fill="url(#w)" stroke-width="20.133" stroke-miterlimit="4.6" paint-order="fill markers stroke"/><path style="isolation:auto;mix-blend-mode:normal;marker:none" d="M93.82 66.67a19.901 19.901 0 0 1 5.039 14.374L78.988 79.94z" color="#000" display="block" overflow="visible" fill="#fef6f0" fill-opacity=".422" stroke-width=".344" stroke-miterlimit="4.6" stroke-opacity=".307" paint-order="fill markers stroke"/><path style="isolation:auto;mix-blend-mode:normal;marker:none" d="M58.63 77.163a20.68 20.68 0 0 1 12.482-16.33l8.016 19.062z" color="#000" display="block" overflow="visible" fill="none" stroke="url(#x)" stroke-width=".344" stroke-miterlimit="4.6" paint-order="fill markers stroke"/><path style="isolation:auto;mix-blend-mode:normal;marker:none" d="M97.834 63.08a25.27 25.27 0 0 1 6.398 18.253L79.001 79.93z" color="#000" display="block" overflow="visible" fill="none" stroke="url(#y)" stroke-width=".349" stroke-miterlimit="4.6" paint-order="fill markers stroke"/><path style="isolation:auto;mix-blend-mode:normal;marker:none" d="M79.117 59.408a20.492 20.492 0 0 1 .838.018L79.114 79.9z" color="#000" display="block" overflow="visible" fill-opacity=".198" stroke-width="14.264" stroke-miterlimit="4.6" paint-order="fill markers stroke"/><path style="isolation:auto;mix-blend-mode:normal;marker:none" d="M79.874 59.481a20.446 20.446 0 0 1 12.87 5.238L79.06 79.91z" color="#000" display="block" overflow="visible" fill="url(#z)" stroke-width="14.232" stroke-miterlimit="4.6" paint-order="fill markers stroke"/><path style="isolation:auto;mix-blend-mode:normal;marker:none" d="M98.088 62.838a25.603 25.603 0 0 1 6.483 18.493l-25.564-1.422z" color="#000" display="block" overflow="visible" fill="none" stroke="url(#A)" stroke-width=".354" stroke-miterlimit="4.6" paint-order="fill markers stroke"/><path style="isolation:auto;mix-blend-mode:normal;marker:none" d="M111.949 81.792a33.042 33.042 0 0 1-.304 2.992l-32.687-4.83z" color="#000" display="block" overflow="visible" fill="#141414" fill-opacity=".463" stroke-width="20.133" stroke-miterlimit="4.6" paint-order="fill markers stroke"/><path style="isolation:auto;mix-blend-mode:normal;marker:none" d="M84.5 80.023a5.523 5.523 0 0 1-5.524 5.524 5.523 5.523 0 0 1-5.523-5.524 5.523 5.523 0 0 1 5.523-5.523 5.523 5.523 0 0 1 5.524 5.523z" color="#000" display="block" overflow="visible" fill="#37313e" stroke-width=".115" stroke-miterlimit="4.6" stroke-opacity=".344" paint-order="fill markers stroke"/><path style="isolation:auto;mix-blend-mode:normal;marker:none" d="M82.815 80.023a3.839 3.839 0 0 1-3.839 3.84 3.839 3.839 0 0 1-3.838-3.84 3.839 3.839 0 0 1 3.838-3.838 3.839 3.839 0 0 1 3.839 3.838z" color="#000" display="block" overflow="visible" fill-opacity=".198" stroke-width=".08" stroke-miterlimit="4.6" stroke-opacity=".344" paint-order="fill markers stroke"/><path style="isolation:auto;mix-blend-mode:normal;marker:none" d="M81.638 80.023a2.662 2.662 0 0 1-2.662 2.662 2.662 2.662 0 0 1-2.661-2.662 2.662 2.662 0 0 1 2.661-2.661 2.662 2.662 0 0 1 2.662 2.661z" color="#000" display="block" overflow="visible" fill="#fff" fill-opacity=".943" stroke-width=".055" stroke-miterlimit="4.6" stroke-opacity=".344" paint-order="fill markers stroke"/><path style="isolation:auto;mix-blend-mode:normal;marker:none" d="M84.249 80.023a5.272 5.272 0 0 1-5.273 5.273 5.272 5.272 0 0 1-5.272-5.273 5.272 5.272 0 0 1 5.272-5.272 5.272 5.272 0 0 1 5.273 5.272z" color="#000" display="block" overflow="visible" fill="none" stroke="#000" stroke-width=".447" stroke-miterlimit="4.6" stroke-opacity=".526" paint-order="fill markers stroke"/><path style="isolation:auto;mix-blend-mode:normal;marker:none" d="M58.317 77.118a20.991 20.991 0 0 1 12.67-16.576l8.137 19.35z" color="#000" display="block" overflow="visible" fill="none" stroke="url(#B)" stroke-width=".349" stroke-miterlimit="4.6" paint-order="fill markers stroke"/><path style="isolation:auto;mix-blend-mode:normal;marker:none" d="M88.614 91.037h19.274v12.391H88.614z" color="#000" display="block" overflow="visible" fill-opacity=".427" stroke-width="3.962" stroke-miterlimit="4.6" paint-order="fill markers stroke"/><path style="isolation:auto;mix-blend-mode:normal;marker:none" d="M87.925 90.349H107.2v12.39H87.925z" color="#000" display="block" overflow="visible" fill="url(#C)" stroke-width="3.962" stroke-miterlimit="4.6" paint-order="fill markers stroke"/><path style="line-height:normal;font-variant-ligatures:normal;font-variant-position:normal;font-variant-caps:normal;font-variant-numeric:normal;font-variant-alternates:normal;font-feature-settings:normal;text-indent:0;text-align:start;text-decoration-line:none;text-decoration-style:solid;text-decoration-color:#000;text-transform:none;text-orientation:mixed;shape-padding:0;isolation:auto;mix-blend-mode:normal;marker:none" d="M87.925 90.349v12.391H107.2V90.349zm.689.688h17.897v10.97l-17.897.044z" color="#000" font-weight="400" font-family="sans-serif" white-space="normal" display="block" overflow="visible" fill="url(#D)" stroke-width=".356" stroke-miterlimit="4.6" paint-order="fill markers stroke"/><path d="M107.711 80.023a28.735 28.735 0 0 1-28.735 28.735 28.735 28.735 0 0 1-28.734-28.735A28.735 28.735 0 0 1 78.976 51.29a28.735 28.735 0 0 1 28.735 28.734z" style="isolation:auto;mix-blend-mode:normal;marker:none" color="#000" display="block" overflow="visible" fill="none" stroke="url(#E)" stroke-width=".342" stroke-miterlimit="4.6" paint-order="fill markers stroke"/><path style="isolation:auto;mix-blend-mode:normal;marker:none" d="M109.124 80.023a30.148 30.148 0 0 1-30.148 30.148A30.148 30.148 0 0 1 48.83 80.023a30.148 30.148 0 0 1 30.147-30.147 30.148 30.148 0 0 1 30.148 30.147z" color="#000" display="block" overflow="visible" fill="none" stroke="url(#F)" stroke-width=".359" stroke-miterlimit="4.6" paint-order="fill markers stroke"/><path d="M100.256 97.82q-.468 0-.737.399-.264.398-.264 1.107 0 .7.264 1.103.269.398.737.398.457 0 .72-.398.27-.403.27-1.103 0-.704-.27-1.102-.263-.403-.72-.403zm0-.682q.85 0 1.35.591.5.592.5 1.597 0 1.006-.506 1.598-.5.586-1.344.586-.86 0-1.36-.586-.501-.592-.501-1.598 0-1.01.5-1.597.506-.591 1.36-.591zm-5.55-3.276q-.463 0-.732.404-.263.398-.263 1.097 0 .71.263 1.108.264.398.732.398.468 0 .731-.398.27-.398.27-1.108 0-.694-.27-1.097-.269-.404-.731-.404zm4.856-.682h.86l-5.022 8.33h-.86zm-4.856 0q.85 0 1.355.591.506.586.506 1.592 0 1.016-.506 1.603-.5.586-1.355.586t-1.355-.586q-.495-.592-.495-1.603 0-1 .5-1.592.5-.591 1.35-.591z" style="line-height:1000%" font-size="16" font-family="sans-serif" letter-spacing="0" word-spacing="0" fill-opacity=".396"/><path d="M100.256 97.132q-.468 0-.737.398-.264.398-.264 1.108 0 .7.264 1.103.269.397.737.397.457 0 .72-.397.27-.404.27-1.103 0-.704-.27-1.102-.263-.404-.72-.404zm0-.683q.85 0 1.35.592.5.591.5 1.597t-.506 1.597q-.5.586-1.344.586-.86 0-1.36-.586-.501-.591-.501-1.597 0-1.011.5-1.597.506-.592 1.36-.592zm-5.55-3.275q-.463 0-.732.403-.263.398-.263 1.098 0 .71.263 1.107.264.398.732.398.468 0 .731-.398.27-.398.27-1.107 0-.694-.27-1.098-.269-.403-.731-.403zm4.856-.683h.86l-5.022 8.33h-.86zm-4.856 0q.85 0 1.355.592.506.586.506 1.592 0 1.016-.506 1.602-.5.586-1.355.586t-1.355-.586q-.495-.591-.495-1.602 0-1 .5-1.592.5-.592 1.35-.592z" style="line-height:1000%" font-size="16" font-family="sans-serif" letter-spacing="0" word-spacing="0" fill="#fff"/></g></svg>