<svg xmlns="http://www.w3.org/2000/svg" xmlns:xlink="http://www.w3.org/1999/xlink" height="64" viewBox="0 0 64 64" width="64"><title>Template icons dark</title><defs><linearGradient id="e"><stop offset="0" stop-color="#ff2a0b"/><stop offset=".496" stop-color="#110200" stop-opacity=".453"/><stop offset=".532" stop-opacity=".13"/><stop offset=".617" stop-color="#ffcdc5" stop-opacity=".106"/><stop offset=".702" stop-color="#ffd2cb" stop-opacity=".161"/><stop offset=".778" stop-color="#ffe2dd" stop-opacity="0"/><stop offset=".872" stop-color="#fff" stop-opacity=".109"/><stop offset=".936" stop-color="#fff" stop-opacity=".078"/><stop offset="1" stop-opacity=".354"/></linearGradient><linearGradient id="d"><stop offset="0" stop-opacity="0"/><stop offset=".497" stop-opacity="0"/><stop offset=".749" stop-opacity=".271"/><stop offset="1" stop-opacity="0"/></linearGradient><linearGradient id="b"><stop offset="0" stop-color="#c5c5c5"/><stop offset="1" stop-color="#f4f4f4"/></linearGradient><linearGradient id="a"><stop offset="0" stop-color="#cd3a00"/><stop offset="1" stop-color="#cf6e53"/></linearGradient><linearGradient id="c"><stop offset="0" stop-color="#fff" stop-opacity="0"/><stop offset=".657" stop-color="#fff" stop-opacity="0"/><stop offset=".829" stop-color="#fff8f4" stop-opacity=".26"/><stop offset="1" stop-color="#fff" stop-opacity="0"/></linearGradient><linearGradient gradientTransform="matrix(.66667 0 0 .66667 -26.558 -26.743)" xlink:href="#b" id="g" x1="170" y1="201.251" x2="170" y2="119" gradientUnits="userSpaceOnUse"/><linearGradient gradientTransform="matrix(.66667 0 0 .66667 -26.558 -26.743)" xlink:href="#a" id="f" x1="160" y1="205" x2="160" y2="113" gradientUnits="userSpaceOnUse"/><radialGradient gradientTransform="matrix(.66667 0 0 .66667 -26.558 -26.743)" xlink:href="#e" id="h" cx="160" cy="160" fx="160" fy="160" r="47" gradientUnits="userSpaceOnUse"/></defs><path d="M11.074 1.923c-2.94 0-2.734 4.397-4.602 6.147-1.526 1.43-5.005.52-5.256 3.425-.313 3.611-.05 10.386.918 12.259l20.74-20.497s-9.12-1.334-11.8-1.334zm41.428 0c-2.68 0-11.8 1.334-11.8 1.334l20.74 20.497c.968-1.873 1.231-8.648.918-12.26C62.11 8.59 58.63 9.5 57.104 8.07c-1.868-1.75-1.662-6.147-4.602-6.147zM2.134 40.573c-.967 1.873-1.23 8.648-.918 12.259.251 2.905 3.73 1.995 5.256 3.424 1.868 1.75 1.662 6.148 4.602 6.148 2.68 0 11.8-1.334 11.8-1.334zm59.308 0L40.702 61.07s9.12 1.334 11.8 1.334c2.94 0 2.734-4.398 4.602-6.148 1.526-1.43 5.005-.519 5.256-3.424.313-3.611.05-10.386-.918-12.26z" fill="none" fill-rule="evenodd" stroke="#fff" stroke-width=".867"/><path d="M11.074 1.923c-2.94 0-2.734 4.397-4.602 6.147-1.526 1.43-5.005.52-5.256 3.425-.313 3.611-.05 10.386.918 12.259l20.74-20.497s-9.12-1.334-11.8-1.334zm41.428 0c-2.68 0-11.8 1.334-11.8 1.334l20.74 20.497c.968-1.873 1.231-8.648.918-12.26C62.11 8.59 58.63 9.5 57.104 8.07c-1.868-1.75-1.662-6.147-4.602-6.147zM2.134 40.573c-.967 1.873-1.23 8.648-.918 12.259.251 2.905 3.73 1.995 5.256 3.424 1.868 1.75 1.662 6.148 4.602 6.148 2.68 0 11.8-1.334 11.8-1.334zm59.308 0L40.702 61.07s9.12 1.334 11.8 1.334c2.94 0 2.734-4.398 4.602-6.148 1.526-1.43 5.005-.519 5.256-3.424.313-3.611.05-10.386-.918-12.26z" fill="none" fill-rule="evenodd" stroke="#9c8456" stroke-width=".867" stroke-dasharray="1.7333333,.86666665"/><path d="M32.11-.077c-17.674 0-32 14.327-32 32 0 17.673 14.326 32 32 32 17.672 0 32-14.327 32-32 0-17.673-14.328-32-32-32zm0 17.334c8.1 0 14.666 6.566 14.666 14.666 0 8.1-6.567 14.667-14.667 14.667s-14.667-6.567-14.667-14.667S24.01 17.257 32.11 17.257z" style="isolation:auto;mix-blend-mode:normal;marker:none" color="#000" display="block" overflow="visible" fill-opacity=".052" stroke-width=".696" stroke-opacity=".37" paint-order="fill markers stroke"/><path style="isolation:auto;mix-blend-mode:normal;marker:none" d="M80.11 48.59a31.333 31.333 0 0 0-31.334 31.333 31.333 31.333 0 0 0 31.333 31.334 31.333 31.333 0 0 0 31.333-31.334A31.333 31.333 0 0 0 80.11 48.59zm0 16a15.333 15.333 0 0 1 15.332 15.333A15.333 15.333 0 0 1 80.11 95.257a15.333 15.333 0 0 1-15.333-15.334A15.333 15.333 0 0 1 80.109 64.59z" color="#000" display="block" overflow="visible" fill="url(#f)" stroke-width=".681" stroke-opacity=".37" paint-order="fill markers stroke" transform="translate(-48 -48)"/><path style="isolation:auto;mix-blend-mode:normal;marker:none" d="M64.222 52.92a31.477 31.477 0 0 0-11.117 11.116l12.748 10.787a15.16 15.16 0 0 1 9.155-9.16zm31.774 0L85.209 65.666a15.16 15.16 0 0 1 9.16 9.155l12.744-10.786A31.478 31.478 0 0 0 95.996 52.92zM65.85 85.026L53.105 95.81a31.478 31.478 0 0 0 11.116 11.117l10.785-12.749a15.16 15.16 0 0 1-9.156-9.15zm28.514 0a15.16 15.16 0 0 1-9.15 9.155l10.782 12.745a31.478 31.478 0 0 0 11.117-11.116z" color="#000" overflow="visible" fill="url(#g)" stroke="#441201" stroke-width=".806" stroke-opacity=".391" paint-order="fill markers stroke" transform="translate(-48 -48)"/><path d="M80.11 48.59a31.333 31.333 0 0 0-31.334 31.333 31.333 31.333 0 0 0 31.333 31.334 31.333 31.333 0 0 0 31.333-31.334A31.333 31.333 0 0 0 80.11 48.59zm0 16a15.333 15.333 0 0 1 15.332 15.333A15.333 15.333 0 0 1 80.11 95.257a15.333 15.333 0 0 1-15.333-15.334A15.333 15.333 0 0 1 80.109 64.59z" style="isolation:auto;mix-blend-mode:normal;marker:none" color="#000" overflow="visible" fill="url(#h)" stroke-width=".681" stroke-opacity=".37" paint-order="fill markers stroke" transform="translate(-48 -48)"/><path d="M16.875 4.59l10.83 12.667zm30.394 0L36.44 17.257zm-42.567 12l12.666 10.83zm12.666 19.944L4.702 47.364zm29.408 0l12.666 10.83zM27.704 46.697l-10.83 12.666zm8.736 0l10.83 12.666z" fill="none" fill-rule="evenodd" stroke="#fff" stroke-width=".667" stroke-opacity=".214"/><path style="line-height:1000%;-inkscape-font-specification:Z003" d="M55.868 15.681a.114.114 0 0 0-.102.041c-.038.045-.062.134-.069.258-.008.133-.012.215-.016.247a6.424 6.424 0 0 0-.14-.181c-.01-.01-.035-.008-.046.005-.015.02-.06.24-.091.448l.04.052a3.18 3.18 0 0 1 .031-.104c.013-.05.017-.06.03-.074.018-.023.048-.02.082.007.068.056.463.567.781 1.009l-.052.071.014.107.055-.063.114-.135.101-.12c.013-.015.034-.04.071-.09v-.097l-.185.202-.164-.208c-.032-.042-.066-.082-.1-.126l-.064-.087a.52.52 0 0 0 .084-.083c.086-.105.093-.133.091-.382a.447.447 0 0 0-.038-.224 1.218 1.218 0 0 0-.296-.412.252.252 0 0 0-.132-.061zm-.96.079a.414.414 0 0 0-.082.076c-.062.076-.081.158-.074.319.006.144.018.19.066.27.033.053.152.22.22.307l.48.624c.01.01.02.022.032.031.059.048.142.063.167.032l.01-.011.005-.005c.015-.007.023-.101.049-.524l-.041-.034c-.01.058-.01.058-.026.182-.011.083-.022.127-.04.148-.015.019-.05.015-.076-.006l-.018-.014-.017-.014a12.061 12.061 0 0 1-.541-.704c-.22-.304-.237-.347-.17-.43a.422.422 0 0 1 .09-.083zm.97.14a.186.186 0 0 1 .09.046c.086.07.172.185.235.316.072.145.075.254.011.332a.38.38 0 0 1-.16.11l-.05-.063-.105-.134-.1-.13-.056-.071c.013-.247.03-.334.07-.383.016-.019.039-.026.066-.022zm-1.826.905a.28.28 0 0 0-.081.074.27.27 0 0 0-.044.068c-.023.06-.027.219-.009.37a.63.63 0 0 0 .137.338l.142.202.045.065-.33.403-.054-.078a16.686 16.686 0 0 1-.211-.291 4.649 4.649 0 0 0-.058-.073l-.002-.125c-.044.047-.072.08-.093.107-.153.186-.223.34-.232.505a.421.421 0 0 0 .162.379c.03.025.052.037.107.063l.069-.181a.537.537 0 0 1-.147-.086c-.105-.086-.144-.192-.116-.296.02-.063.05-.112.145-.228.07.105.078.114.277.385l.044.058.016.128.044-.046c.278.38.295.463.129.666a1.38 1.38 0 0 1-.087.097l.05.19a.74.74 0 0 0 .185-.248c.03-.072.033-.229.012-.411-.022-.186-.029-.202-.175-.426.178-.247.23-.318.315-.426.032.043.052.072.062.083l.125.176c.21.284.211.284.236.304.02.017.055.014.074-.009a.296.296 0 0 0 .033-.061c.028-.06.047-.095.178-.332l-.018-.073a2.08 2.08 0 0 1-.137.188c-.031.038-.069.046-.101.02-.059-.049-.059-.049-.43-.557-.323-.468-.324-.468-.34-.52-.023-.066-.015-.114.028-.167a.318.318 0 0 1 .101-.084zm.716.19a.141.141 0 0 0-.093.057.28.28 0 0 0-.06.143.88.88 0 0 0-.005.287c.028.144.183.38.337.506.111.091.23.09.309-.006.091-.112.126-.325.097-.587l-.054-.046c.005.257-.014.377-.074.45-.04.049-.103.06-.163.033a.491.491 0 0 1-.114-.078c.016-.132.022-.216.03-.396.009-.168-.023-.258-.108-.327a.138.138 0 0 0-.102-.036zm-.027.182a.13.13 0 0 1 .068.032c.094.077.11.182.075.483-.178-.2-.264-.413-.195-.496a.057.057 0 0 1 .052-.02z" font-weight="400" font-family="Z003" letter-spacing="0" word-spacing="0" fill-opacity=".443" stroke-width=".153"/><path style="isolation:auto;mix-blend-mode:normal;marker:none" d="M50.41 8.151a.998.998 0 0 0-.702.307.998.998 0 0 0 .025 1.414l4.319 4.166a.998.998 0 0 0 1.414-.026.998.998 0 0 0-.026-1.414l-4.318-4.166a.997.997 0 0 0-.712-.281zm-36.606.438a.996.996 0 0 0-.713.282l-4.317 4.165a.998.998 0 0 0-.026 1.414.998.998 0 0 0 1.414.025l4.317-4.166a.998.998 0 0 0-.675-1.72zm32.64 3.528a.997.997 0 0 0-.702.307.998.998 0 0 0 .027 1.415l4.322 4.16a.998.998 0 0 0 1.414-.026.998.998 0 0 0-.026-1.414l-4.323-4.162a.996.996 0 0 0-.712-.28zm-28.401.24a.996.996 0 0 0-.713.281l-4.317 4.167a.996.996 0 0 0-.026 1.412.998.998 0 0 0 1.414.027l4.317-4.166a.998.998 0 0 0 .026-1.414.998.998 0 0 0-.701-.307zm24.274 3.724a.994.994 0 0 0-.7.307.998.998 0 0 0 .026 1.414l4.323 4.16a.998.998 0 0 0 1.414-.026.998.998 0 0 0-.026-1.414l-4.323-4.161a.999.999 0 0 0-.714-.28zm-20.31.564a.995.995 0 0 0-.713.28l-4.319 4.166a.998.998 0 0 0-.025 1.414.998.998 0 0 0 1.414.025l4.318-4.165a.998.998 0 0 0-.676-1.72zM46.352 40.99a.997.997 0 0 0-.713.28l-4.319 4.166a.998.998 0 0 0-.024 1.414.998.998 0 0 0 1.414.026l4.317-4.165a.998.998 0 0 0 .025-1.414.995.995 0 0 0-.7-.307zm-28.62.162a.997.997 0 0 0-.702.306.998.998 0 0 0 .025 1.414l4.319 4.166a.998.998 0 0 0 1.414-.026.998.998 0 0 0-.025-1.414l-4.319-4.164a.997.997 0 0 0-.712-.282zm-3.966 3.965a.997.997 0 0 0-.702.307.998.998 0 0 0 .027 1.415L17.414 51a.998.998 0 0 0 1.414-.027.998.998 0 0 0-.026-1.414l-4.323-4.162a.996.996 0 0 0-.712-.28zm36.548.16a.995.995 0 0 0-.712.28l-4.318 4.167a.998.998 0 0 0-.026 1.414.998.998 0 0 0 1.414.025l4.319-4.166a.998.998 0 0 0 .025-1.414.997.997 0 0 0-.702-.306zm4.216 3.716a.997.997 0 0 0-.71.284l-4.299 4.186a.998.998 0 0 0-.018 1.414.998.998 0 0 0 1.414.02l4.298-4.188a.998.998 0 0 0-.685-1.716zm-44.89.088a.997.997 0 0 0-.701.307.998.998 0 0 0 .027 1.414l4.322 4.162a.998.998 0 0 0 1.414-.028.998.998 0 0 0-.026-1.414l-4.323-4.161a.996.996 0 0 0-.712-.28z" color="#000" display="block" overflow="visible" fill-opacity=".12" stroke-width=".867" paint-order="fill markers stroke"/></svg>