<svg xmlns="http://www.w3.org/2000/svg" xmlns:xlink="http://www.w3.org/1999/xlink" height="64" viewBox="0 0 64 64" width="64"><title>Template icons dark</title><defs><linearGradient id="j"><stop offset="0" stop-color="#fff" stop-opacity=".194"/><stop offset=".043" stop-color="#fff" stop-opacity=".183"/><stop offset=".11" stop-color="#fff" stop-opacity=".262"/><stop offset=".139" stop-color="#fff" stop-opacity=".12"/><stop offset=".473" stop-color="#fff" stop-opacity=".136"/><stop offset=".517" stop-color="#fff" stop-opacity=".288"/><stop offset=".553" stop-color="#fff" stop-opacity=".173"/><stop offset="1" stop-color="#fff" stop-opacity=".11"/></linearGradient><linearGradient id="f"><stop offset="0" stop-opacity=".529"/><stop offset="1" stop-color="#6a062f" stop-opacity="0"/></linearGradient><linearGradient id="h"><stop offset="0" stop-opacity=".56"/><stop offset="1" stop-color="#6a062f" stop-opacity="0"/></linearGradient><linearGradient id="i"><stop offset="0" stop-opacity=".529"/><stop offset="1" stop-color="#6a062f" stop-opacity="0"/></linearGradient><linearGradient id="g"><stop offset="0" stop-opacity=".445"/><stop offset="1" stop-color="#6a062f" stop-opacity="0"/></linearGradient><linearGradient id="b"><stop offset="0" stop-color="#cfdde2"/><stop offset="1" stop-color="#90a1b1"/></linearGradient><linearGradient id="c"><stop offset="0" stop-color="#eaf2f7"/><stop offset="1" stop-color="#99b4c0"/></linearGradient><linearGradient id="d"><stop offset="0" stop-color="#f95e86"/><stop offset="1" stop-color="#613ef5"/></linearGradient><linearGradient id="a"><stop offset="0" stop-color="#7a0b1c"/><stop offset="1" stop-color="#e82895"/></linearGradient><linearGradient id="e"><stop offset="0" stop-color="#fff" stop-opacity="0"/><stop offset=".48" stop-color="#fff"/><stop offset="1" stop-color="#f5f6f6" stop-opacity="0"/></linearGradient><linearGradient xlink:href="#b" id="k" gradientUnits="userSpaceOnUse" gradientTransform="matrix(.6891 0 0 .6891 63.744 60.744)" x1="161.702" y1="118.898" x2="161.702" y2="197.932"/><linearGradient xlink:href="#c" id="l" gradientUnits="userSpaceOnUse" gradientTransform="matrix(.6891 0 0 .6891 63.744 60.744)" x1="168.352" y1="125.665" x2="168.352" y2="190.817"/><linearGradient xlink:href="#d" id="m" gradientUnits="userSpaceOnUse" gradientTransform="matrix(.66493 0 0 .66493 62.281 57.154)" x1="10.43" y1="43.068" x2="38.891" y2="13.193"/><linearGradient xlink:href="#d" id="n" gradientUnits="userSpaceOnUse" gradientTransform="matrix(.64773 0 0 .64773 70.418 67.605)" x1="142.933" y1="141.101" x2="170.722" y2="184.329"/><linearGradient xlink:href="#e" id="o" gradientUnits="userSpaceOnUse" gradientTransform="matrix(.32036 0 0 .48424 122.857 112.282)" x1="146.804" y1="139.479" x2="174.466" y2="139.479"/><linearGradient xlink:href="#e" id="p" gradientUnits="userSpaceOnUse" gradientTransform="matrix(.29664 0 0 .48424 126.31 92.35)" x1="146.804" y1="139.479" x2="174.466" y2="139.479"/><linearGradient xlink:href="#a" id="q" gradientUnits="userSpaceOnUse" x1="140.465" y1="191" x2="133.606" y2="140"/><linearGradient xlink:href="#i" id="r" gradientUnits="userSpaceOnUse" x1="144" y1="151.559" x2="154.394" y2="163"/><linearGradient xlink:href="#h" id="s" gradientUnits="userSpaceOnUse" x1="148" y1="136" x2="167.134" y2="118"/><linearGradient xlink:href="#f" id="t" gradientUnits="userSpaceOnUse" x1="138" y1="183" x2="142" y2="202.472"/><linearGradient xlink:href="#j" id="u" gradientUnits="userSpaceOnUse" x1="145.677" y1="123" x2="127" y2="195"/><linearGradient xlink:href="#f" id="v" gradientUnits="userSpaceOnUse" x1="136.449" y1="161" x2="107.15" y2="117"/></defs><g color="#000"><path d="M36.231 18.083c-.346 0-.54.274-.626.59l-1.328 4.89c-.908.324-2.1.776-2.903 1.196l-4.4-2.532c-.284-.164-.615-.22-.86.025l-3.577 3.577c-.245.245-.188.572-.025.857l2.473 4.322a15.701 15.701 0 0 0-1.287 3.008l-4.777 1.287c-.317.085-.591.28-.591.626v5.06c0 .346.274.536.59.622l4.673 1.273a15.7 15.7 0 0 0 1.29 3.172l-2.41 4.19c-.163.284-.22.615.025.86l3.578 3.577c.245.245.571.188.857.025l4.133-2.368a15.7 15.7 0 0 0 3.242 1.354l1.241 4.605c.086.318.28.591.626.591h5.06c.347 0 .537-.274.623-.59l1.256-4.61a15.7 15.7 0 0 0 3.2-1.346l4.178 2.402c.285.164.616.22.86-.024l3.578-3.578c.245-.245.188-.575.025-.86l-2.424-4.228a15.7 15.7 0 0 0 1.252-3.102l4.763-1.287c.318-.085.591-.276.591-.622v-5.06c0-.347-.274-.54-.59-.626l-4.844-1.315a15.7 15.7 0 0 0-1.235-2.93l2.525-4.386c.164-.285.22-.615-.024-.86L51.39 22.29c-.245-.245-.575-.187-.86-.024l-4.396 2.518c-.969-.398-1.983-.89-2.888-1.183l-1.333-4.927c-.085-.317-.276-.59-.622-.59h-5.06zm2.506 12.96a7.464 7.464 0 1 1 0 14.928 7.464 7.464 0 0 1 0-14.928z" style="isolation:auto;mix-blend-mode:normal;marker:none" overflow="visible" fill="none" stroke="#000" stroke-width="1.3034583800000001" stroke-opacity=".168" paint-order="fill markers stroke"/><path style="isolation:auto;mix-blend-mode:normal;marker:none" d="M170.197 139.99c-.526 0-.82.417-.951.899l-2.02 7.43c-1.379.492-3.19 1.18-4.411 1.818l-6.686-3.848c-.433-.249-.935-.335-1.308.038l-5.437 5.437c-.372.372-.285.868-.037 1.302l3.758 6.569a23.863 23.863 0 0 0-1.956 4.57l-7.26 1.956c-.482.13-.898.425-.898.952v7.69c0 .526.416.815.898.946l7.1 1.935a23.862 23.862 0 0 0 1.962 4.82l-3.662 6.367c-.25.433-.335.936.037 1.308l5.437 5.437c.372.372.869.285 1.302.037l6.282-3.598a23.861 23.861 0 0 0 4.927 2.057l1.887 7c.13.481.425.897.951.897h7.69c.527 0 .816-.416.947-.898l1.908-7.005a23.862 23.862 0 0 0 4.863-2.046l6.351 3.651c.433.25.935.335 1.308-.037l5.437-5.437c.372-.372.285-.874.037-1.307l-3.683-6.426c.8-1.5 1.438-3.08 1.903-4.714l7.238-1.956c.483-.13.899-.42.899-.946v-7.69c0-.527-.417-.82-.899-.952l-7.36-1.998a23.862 23.862 0 0 0-1.877-4.454l3.837-6.665c.25-.432.335-.935-.037-1.307l-5.437-5.437c-.372-.372-.874-.285-1.307-.037l-6.681 3.826c-1.473-.604-3.014-1.35-4.39-1.796l-2.025-7.489c-.13-.482-.42-.898-.946-.898h-7.69zm3.808 19.698c6.264 0 11.343 5.078 11.343 11.343 0 6.264-5.079 11.343-11.343 11.343-6.265 0-11.344-5.079-11.344-11.343 0-6.265 5.079-11.343 11.344-11.343z" overflow="visible" fill="url(#k)" stroke-width="1.29" stroke-opacity=".141" paint-order="fill markers stroke" transform="matrix(.65798 0 0 .65798 -75.756 -74.029)"/><path style="line-height:normal;text-indent:0;text-align:start;text-decoration-line:none;text-decoration-style:solid;text-decoration-color:#000;text-transform:none;isolation:auto;mix-blend-mode:normal;marker:none" d="M38.736 22.385c-8.86 0-16.104 7.239-16.104 16.099s7.244 16.104 16.104 16.104 16.1-7.244 16.1-16.104-7.24-16.1-16.1-16.1zm0 3.416c7.05 0 12.683 5.633 12.683 12.682 0 7.05-5.633 12.69-12.682 12.69-7.05 0-12.69-5.64-12.69-12.69s5.64-12.682 12.69-12.682z" font-weight="400" font-family="sans-serif" white-space="normal" overflow="visible" fill-opacity=".173" stroke-width="2.27" stroke-opacity=".141" paint-order="fill markers stroke"/><path d="M174.004 147.27c-13.058 0-23.735 10.668-23.735 23.726s10.677 23.735 23.735 23.735 23.727-10.677 23.727-23.735-10.669-23.727-23.727-23.727zm0 5.033a18.607 18.607 0 0 1 18.692 18.692c0 10.39-8.302 18.702-18.691 18.702a18.624 18.624 0 0 1-18.702-18.702c0-10.39 8.312-18.692 18.702-18.692z" style="line-height:normal;text-indent:0;text-align:start;text-decoration-line:none;text-decoration-style:solid;text-decoration-color:#000;text-transform:none;isolation:auto;mix-blend-mode:normal;marker:none" font-weight="400" font-family="sans-serif" white-space="normal" overflow="visible" fill="url(#l)" stroke-width="2.201" stroke-opacity=".141" paint-order="fill markers stroke" transform="matrix(.65798 0 0 .65798 -75.756 -74.029)"/><path d="M174.003 152.297c-10.29 0-18.706 8.409-18.706 18.7 0 10.29 8.415 18.706 18.706 18.706s18.7-8.415 18.7-18.706-8.409-18.7-18.7-18.7zm.001 4.72a13.95 13.95 0 0 1 14.014 14.014c0 7.79-6.224 14.021-14.014 14.021a13.964 13.964 0 0 1-14.021-14.021c0-7.79 6.232-14.014 14.021-14.014z" style="line-height:normal;text-indent:0;text-align:start;text-decoration-line:none;text-decoration-style:solid;text-decoration-color:#000;text-transform:none;isolation:auto;mix-blend-mode:normal;marker:none" font-weight="400" font-family="sans-serif" white-space="normal" overflow="visible" fill="url(#m)" stroke-width="1.378" paint-order="fill markers stroke" transform="matrix(.65798 0 0 .65798 -75.756 -74.029)"/><path style="line-height:normal;text-indent:0;text-align:start;text-decoration-line:none;text-decoration-style:solid;text-decoration-color:#000;text-transform:none;isolation:auto;mix-blend-mode:normal;marker:none" d="M174.003 152.297c-10.29 0-18.706 8.409-18.706 18.7 0 10.29 8.415 18.706 18.706 18.706s18.7-8.415 18.7-18.706-8.409-18.7-18.7-18.7zm0 10.367a8.33 8.33 0 0 1 8.368 8.368 8.334 8.334 0 0 1-8.368 8.373 8.338 8.338 0 0 1-8.373-8.373 8.334 8.334 0 0 1 8.373-8.368z" font-weight="400" font-family="sans-serif" white-space="normal" overflow="visible" fill="url(#n)" stroke-width="1.735" stroke-opacity=".141" paint-order="fill markers stroke" transform="matrix(.65798 0 0 .65798 -75.756 -74.029)"/><path style="line-height:normal;text-indent:0;text-align:start;text-decoration-line:none;text-decoration-style:solid;text-decoration-color:#000;text-transform:none;isolation:auto;mix-blend-mode:normal;marker:none" d="M38.735 26.18c-6.771 0-12.307 5.533-12.307 12.305 0 .076.004.15.005.227.122-6.668 5.607-12.078 12.302-12.078 6.696 0 12.177 5.41 12.3 12.078 0-.076.004-.151.004-.227 0-6.772-5.532-12.304-12.304-12.304z" font-weight="400" font-family="sans-serif" white-space="normal" overflow="visible" fill-opacity=".283" stroke-width="1.735" stroke-opacity=".141" paint-order="fill markers stroke"/><path style="isolation:auto;mix-blend-mode:normal;marker:none" d="M36.232 18.083c-.347 0-.54.274-.626.59l-1.33 4.89c-.907.324-2.099.776-2.902 1.196l-4.4-2.532c-.284-.164-.615-.22-.86.025l-3.578 3.577c-.183.184-.196.414-.123.638a.559.559 0 0 1 .123-.185l3.578-3.576c.245-.245.576-.19.86-.025l4.4 2.532c.803-.42 1.995-.873 2.902-1.197l1.33-4.889c.086-.317.28-.59.626-.59h5.06c.346 0 .537.274.623.59l1.331 4.928c.906.293 1.92.784 2.89 1.182l4.395-2.518c.285-.163.615-.22.86.025l3.578 3.577c.058.058.097.12.124.186.073-.224.06-.456-.124-.639L51.39 22.29c-.245-.245-.575-.188-.86-.024l-4.396 2.517c-.969-.398-1.983-.888-2.889-1.181l-1.331-4.928c-.086-.317-.277-.591-.623-.591zM24.86 31.245a15.697 15.697 0 0 0-1.163 2.771l-4.777 1.287c-.318.085-.591.28-.591.626v.453c0-.346.273-.54.59-.626l4.778-1.286a15.7 15.7 0 0 1 1.287-3.008zm27.73.107l-.123.215a15.7 15.7 0 0 1 1.234 2.93l4.845 1.315c.317.086.59.28.59.626v-.453c0-.346-.273-.54-.59-.626l-4.845-1.315c-.285-.93-.66-1.83-1.11-2.692zm-27.83 14.916l-2.288 3.977c-.125.218-.186.463-.099.675a1.18 1.18 0 0 1 .1-.221l2.41-4.19c-.044-.079-.082-.16-.123-.24zm27.891 0c-.04.08-.079.162-.121.242l2.424 4.228c.04.071.074.145.099.22.087-.212.025-.456-.1-.674z" overflow="visible" fill="#fff" fill-opacity=".675" stroke-width="1.29" stroke-opacity=".141" paint-order="fill markers stroke"/><path style="line-height:normal;text-indent:0;text-align:start;text-decoration-line:none;text-decoration-style:solid;text-decoration-color:#000;text-transform:none;isolation:auto;mix-blend-mode:normal;marker:none" d="M38.735 32.812c-3.61 0-6.56 2.95-6.56 6.559 0 3.61 2.95 6.561 6.56 6.561 3.61 0 6.56-2.951 6.56-6.561s-2.95-6.56-6.56-6.56zm0 1.358a4.597 4.597 0 0 1 4.618 4.618 4.599 4.599 0 0 1-4.618 4.62 4.601 4.601 0 0 1-4.62-4.62 4.599 4.599 0 0 1 4.62-4.618z" font-weight="400" font-family="sans-serif" white-space="normal" overflow="visible" fill-opacity=".168" stroke-width=".972" stroke-opacity=".141" paint-order="fill markers stroke"/><path d="M38.762 31.249c-4.01 0-7.288 3.276-7.288 7.285 0 4.01 3.278 7.289 7.288 7.289s7.285-3.279 7.285-7.289-3.276-7.285-7.285-7.285zm0 1.652a5.586 5.586 0 0 1 5.612 5.612 5.588 5.588 0 0 1-5.612 5.614 5.591 5.591 0 0 1-5.614-5.614 5.588 5.588 0 0 1 5.614-5.612z" style="line-height:normal;text-indent:0;text-align:start;text-decoration-line:none;text-decoration-style:solid;text-decoration-color:#000;text-transform:none;isolation:auto;mix-blend-mode:normal;marker:none" font-weight="400" font-family="sans-serif" white-space="normal" overflow="visible" fill="#b1c7d0" stroke-width="1.407" stroke-opacity=".141" paint-order="fill markers stroke"/><path style="line-height:normal;text-indent:0;text-align:start;text-decoration-line:none;text-decoration-style:solid;text-decoration-color:#000;text-transform:none;isolation:auto;mix-blend-mode:normal;marker:none" d="M38.767 44.137a5.588 5.588 0 0 1-5.614-5.611c0-.077.008-.151.011-.227.119 3.011 2.56 5.097 5.603 5.097 3.043 0 5.481-2.086 5.6-5.097.003.076.011.15.011.227a5.585 5.585 0 0 1-5.61 5.61z" font-weight="400" font-family="sans-serif" white-space="normal" overflow="visible" fill="#718085" stroke-width="1.407" stroke-opacity=".141" paint-order="fill markers stroke"/><path style="line-height:normal;text-indent:0;text-align:start;text-decoration-line:none;text-decoration-style:solid;text-decoration-color:#000;text-transform:none;isolation:auto;mix-blend-mode:normal;marker:none" d="M38.762 30.987c-4.183 0-7.29 3.417-7.29 7.6 0 .058.003.115.005.173.092-4.104 3.16-7.427 7.285-7.427s7.218 4.003 7.31 8.106c.002-.058.005-.115.005-.173 0-4.182-3.132-8.279-7.315-8.279zm-5.314 8.444c-.003.042-.01.083-.01.125 0 1.714 2.827 4.552 5.324 4.552 2.498 0 5.376-2.838 5.376-4.552 0-.042-.007-.083-.01-.125-.103 1.655-2.93 4.314-5.366 4.314-2.436 0-5.211-2.659-5.314-4.314z" font-weight="400" font-family="sans-serif" white-space="normal" overflow="visible" fill="#fff" fill-opacity=".691" stroke-width="1.126" stroke-opacity=".141" paint-order="fill markers stroke"/><path style="isolation:auto;mix-blend-mode:normal;marker:none" overflow="visible" fill="url(#o)" stroke-width=".788" paint-order="fill markers stroke" d="M169.887 179.472h8.862v.705h-8.862z" transform="matrix(.65798 0 0 .65798 -75.756 -74.029)"/><path style="isolation:auto;mix-blend-mode:normal;marker:none" overflow="visible" fill="url(#p)" stroke-width=".758" paint-order="fill markers stroke" d="M169.857 159.54h8.206v.705h-8.206z" transform="matrix(.65798 0 0 .65798 -75.756 -74.029)"/></g><g fill-rule="evenodd"><path d="M5.176 5.587v51.981H15.72l-.016-21.713H26.89V25.327H15.704v-9.212h18.424V5.587z" style="isolation:auto;mix-blend-mode:normal;marker:none" color="#000" overflow="visible" fill="none" stroke="#000" stroke-width="1.31596" stroke-linecap="square" stroke-linejoin="bevel" stroke-opacity=".267" paint-order="markers fill stroke"/><path style="isolation:auto;mix-blend-mode:normal;marker:none" d="M124 120v79h16.024L140 166h17v-16h-17v-14h28v-16z" color="#000" overflow="visible" fill="url(#q)" stroke-width="4.457" stroke-linecap="square" stroke-linejoin="bevel" paint-order="markers fill stroke" transform="matrix(.65798 0 0 .65798 -75.756 -74.029)"/><path d="M16.377 56.91l-.015-21.713h11.186V24.669H16.362v-9.212h18.424V4.93H5.834v.658h28.952v9.87H16.362v9.87h11.186v9.87H16.362v21.729L5.834 56.91z" style="line-height:normal;font-variant-ligatures:normal;font-variant-position:normal;font-variant-caps:normal;font-variant-numeric:normal;font-variant-alternates:normal;font-feature-settings:normal;text-indent:0;text-align:start;text-decoration-line:none;text-decoration-style:solid;text-decoration-color:#000;text-transform:none;text-orientation:mixed;shape-padding:0;isolation:auto;mix-blend-mode:normal;marker:none" color="#000" font-weight="400" font-family="sans-serif" white-space="normal" overflow="visible" fill="#fff" fill-opacity=".419" stroke-linecap="square" stroke-linejoin="bevel" paint-order="markers fill stroke"/><path d="M141 166h16v-16h-13z" fill="url(#r)" transform="matrix(.65798 0 0 .65798 -75.756 -74.029)"/><path d="M168 136h-21l3-16h18z" fill="url(#s)" transform="matrix(.65798 0 0 .65798 -75.756 -74.029)"/><path d="M140 170.236L134 199h6z" fill="url(#t)" transform="matrix(.65798 0 0 .65798 -75.756 -74.029)"/><path d="M137 120l-13 79h1l13-79zm12 0l-3 16h1l3-16zm-6 30l-3 16h1l3-16zm-3 19l-7 30h1l6-28.764z" style="line-height:normal;font-variant-ligatures:normal;font-variant-position:normal;font-variant-caps:normal;font-variant-numeric:normal;font-variant-alternates:normal;font-feature-settings:normal;text-indent:0;text-align:start;text-decoration-line:none;text-decoration-style:solid;text-decoration-color:#000;text-transform:none;text-orientation:mixed;shape-padding:0;isolation:auto;mix-blend-mode:normal" color="#000" font-weight="400" font-family="sans-serif" white-space="normal" overflow="visible" fill="url(#u)" stroke-width=".6" transform="matrix(.65798 0 0 .65798 -75.756 -74.029)"/><path d="M124 120v79l13-79z" fill="url(#v)" transform="matrix(.65798 0 0 .65798 -75.756 -74.029)"/></g></svg>