<svg xmlns="http://www.w3.org/2000/svg" xmlns:xlink="http://www.w3.org/1999/xlink" height="64" viewBox="0 0 64 64" width="64"><title>Template icons dark</title><defs><linearGradient id="a"><stop offset="0" stop-color="#4b587a"/><stop offset="1" stop-color="#7a6982"/></linearGradient><linearGradient id="c"><stop offset="0" stop-color="#3e4453"/><stop offset="1" stop-color="#222630"/></linearGradient><linearGradient id="b"><stop offset="0" stop-color="#d4a8cf"/><stop offset="1" stop-color="#80c4e1" stop-opacity=".99"/></linearGradient><linearGradient id="d"><stop offset="0" stop-color="#9a9a9a" stop-opacity=".973"/><stop offset="1" stop-color="#f4f4f4"/></linearGradient><linearGradient xlink:href="#b" id="e" x1="4.995" y1="6.196" x2="40.265" y2="45.14" gradientUnits="userSpaceOnUse" gradientTransform="matrix(1.35553 0 0 1.35587 50.974 45.662)"/><linearGradient xlink:href="#c" id="f" gradientUnits="userSpaceOnUse" gradientTransform="matrix(1.2117 0 0 1.33992 114.968 93.425)" x1="-26.746" y1="-29.715" x2="-26.746" y2="10.031"/><linearGradient xlink:href="#d" id="g" gradientUnits="userSpaceOnUse" gradientTransform="translate(33.846 59.666) scale(2.2327)" x1="20.942" y1="20.603" x2="20.942" y2="-3.389"/><linearGradient xlink:href="#a" id="h" gradientUnits="userSpaceOnUse" gradientTransform="matrix(.92153 0 0 .92153 14.613 13.752)" x1="191.407" y1="201.023" x2="181.641" y2="174.894"/></defs><g color="#000"><path style="isolation:auto;mix-blend-mode:normal;marker:none" d="M8 4h48v56H8z" display="block" overflow="visible" fill-opacity=".088" stroke-width=".275" stroke-opacity=".52"/><path d="M57 53v54h46V53zm1.016 1H102v52H58z" style="line-height:normal;font-variant-ligatures:normal;font-variant-position:normal;font-variant-caps:normal;font-variant-numeric:normal;font-variant-alternates:normal;font-feature-settings:normal;text-indent:0;text-align:start;text-decoration-line:none;text-decoration-style:solid;text-decoration-color:#000;text-transform:none;text-orientation:mixed;shape-padding:0;isolation:auto;mix-blend-mode:normal;marker:none" font-weight="400" font-family="sans-serif" white-space="normal" overflow="visible" fill="url(#e)" fill-opacity=".52" stroke-width=".667" transform="translate(-48 -48)"/><path d="M58.016 54H102v52H58z" style="isolation:auto;mix-blend-mode:normal;marker:none" display="block" overflow="visible" fill="url(#f)" stroke-width=".254" stroke-opacity=".52" transform="translate(-48 -48)"/><path style="isolation:auto;mix-blend-mode:normal;marker:none" d="M32 62L7 47V16L32 2l25 14v31z" overflow="visible" fill-opacity=".253" stroke-width=".992" stroke-linejoin="round" stroke-opacity=".424"/><path style="isolation:auto;mix-blend-mode:normal;marker:none" d="M80 108L55 94V65l25-14 25 14v29z" overflow="visible" fill="url(#g)" stroke-width=".992" stroke-linejoin="round" stroke-opacity=".424" transform="translate(-48 -48)"/><path style="isolation:auto;mix-blend-mode:normal;marker:none" d="M32 3L7 17v1L32 4l25 14v-1z" display="block" overflow="visible" fill="#fff" stroke-width=".992" stroke-linejoin="round" stroke-opacity=".424"/><g opacity=".8"><path style="isolation:auto;mix-blend-mode:normal;marker:none" display="block" overflow="visible" fill="#869eb6" stroke-width="1.989" d="M23 16h6v3.001h-6z"/><path style="isolation:auto;mix-blend-mode:normal;marker:none" display="block" overflow="visible" fill="#8e9f81" stroke-width="1.981" d="M30 16h4v3.001h-4z"/><path style="isolation:auto;mix-blend-mode:normal;marker:none" display="block" overflow="visible" fill="#9e9e86" stroke-width="1.989" d="M23 20h6v3h-6z"/><path style="isolation:auto;mix-blend-mode:normal;marker:none" display="block" overflow="visible" fill="#86b1d6" stroke-width="1.981" d="M30 20h4v3h-4z"/><path style="isolation:auto;mix-blend-mode:normal;marker:none" display="block" overflow="visible" fill="#88885e" stroke-width="1.981" d="M35 20h4.001v3h-4z"/><path style="isolation:auto;mix-blend-mode:normal;marker:none" display="block" overflow="visible" fill="#987f95" stroke-width="1.989" d="M23 24h6v3.001h-6z"/><path style="isolation:auto;mix-blend-mode:normal;marker:none" display="block" overflow="visible" fill="#9d875f" stroke-width="1.981" d="M30 24h4v3.001h-4z"/><path style="isolation:auto;mix-blend-mode:normal;marker:none" display="block" overflow="visible" fill="#987f95" stroke-width="1.989" d="M23 32h6v3.001h-6z"/><path style="isolation:auto;mix-blend-mode:normal;marker:none" display="block" overflow="visible" fill="#68798d" stroke-width="2.557" d="M30 32h7v3.001h-7z"/><path style="isolation:auto;mix-blend-mode:normal;marker:none" display="block" overflow="visible" fill="#606d78" stroke-width="1.989" d="M38 32h6.031v3.001H38z"/><path style="isolation:auto;mix-blend-mode:normal;marker:none" display="block" overflow="visible" fill="#b29d71" stroke-width="1.975" d="M45 32h4.999v3.001h-5z"/><path style="isolation:auto;mix-blend-mode:normal;marker:none" display="block" overflow="visible" fill="#b36b75" stroke-width="1.989" d="M23 40h6v3h-6z"/><path style="isolation:auto;mix-blend-mode:normal;marker:none" display="block" overflow="visible" fill="#b47f70" stroke-width="1.979" d="M30 40.006h3.999V43h-4z"/><path style="isolation:auto;mix-blend-mode:normal;marker:none" display="block" overflow="visible" fill="#a66f71" stroke-width="2.086" d="M23 44h7v3h-7z"/><path style="isolation:auto;mix-blend-mode:normal;marker:none" display="block" overflow="visible" fill="#59758c" stroke-width="2.139" d="M31 44h5v3h-5z"/><path style="isolation:auto;mix-blend-mode:normal;marker:none" display="block" overflow="visible" fill="#5e6974" stroke-width="1.973" d="M35 40h4.001v3h-4z"/><path style="isolation:auto;mix-blend-mode:normal;marker:none" display="block" overflow="visible" fill="#4d854d" stroke-width="2.016" d="M40 40h6v3h-6z"/><path style="isolation:auto;mix-blend-mode:normal;marker:none" display="block" overflow="visible" fill="#b36b75" stroke-width="2" d="M35 16h6v3.001h-6z"/><path style="isolation:auto;mix-blend-mode:normal;marker:none" display="block" overflow="visible" fill="#c09d58" stroke-width="1.912" d="M42 16h7v3.001h-7z"/><path style="isolation:auto;mix-blend-mode:normal;marker:none" display="block" overflow="visible" fill="#575f70" stroke-width="2.093" d="M17 16h3v3.001h-3zM17 20h3v3h-3zM17 24h3v3.001h-3zM17 28h3v3h-3zM17 32h3v3.001h-3zM17 36h3v3h-3zM17 40h3v3h-3zM17 44h3v3h-3z"/></g></g></svg>