<svg xmlns="http://www.w3.org/2000/svg" xmlns:xlink="http://www.w3.org/1999/xlink" height="64" viewBox="0 0 64 64" width="64"><title>Template icons dark</title><defs><linearGradient id="c"><stop offset="0" stop-color="#8298a2"/><stop offset="1" stop-color="#c3d5dc" stop-opacity=".984"/></linearGradient><linearGradient id="d"><stop offset="0" stop-color="#889da6"/><stop offset="1" stop-color="#b9cdd5" stop-opacity=".984"/></linearGradient><linearGradient id="e"><stop offset="0" stop-color="#758d98"/><stop offset="1" stop-color="#acc5ce" stop-opacity=".984"/></linearGradient><linearGradient id="b"><stop offset="0" stop-color="#e0eef7"/><stop offset="1" stop-color="#909b9c"/></linearGradient><linearGradient id="a"><stop offset="0" stop-color="#98aab2"/><stop offset="1" stop-color="#d3e0e5" stop-opacity=".984"/></linearGradient><linearGradient xlink:href="#a" id="h" gradientUnits="userSpaceOnUse" x1="141.165" y1="190.299" x2="186.52" y2="128" gradientTransform="scale(.66179) rotate(-15 -8.757 288.893)"/><linearGradient xlink:href="#a" id="g" gradientUnits="userSpaceOnUse" x1="141.165" y1="190.299" x2="186.52" y2="128" gradientTransform="scale(.66179) rotate(-15 -8.757 288.893)"/><linearGradient xlink:href="#b" id="f" gradientUnits="userSpaceOnUse" gradientTransform="scale(.66179) rotate(-15 -12.555 289.393)" x1="161" y1="199" x2="161" y2="195.016"/></defs><path style="isolation:auto;mix-blend-mode:normal;marker:none" d="M46.592.005c-.179.01-.361.04-.542.088L3.939 11.376a2.694 2.694 0 0 0-1.91 3.308L13.967 59.24l.529 1.971.176.658c0 .003.002.003.003.006l.11.407a2.311 2.311 0 0 0 2.836 1.637l42.856-11.484a2.31 2.31 0 0 0 1.637-2.834L49.977 4.3l-.008-.02-.61-2.278A2.693 2.693 0 0 0 46.591.005z" color="#000" overflow="visible" fill-opacity=".104" stroke-width=".518"/><path style="isolation:auto;mix-blend-mode:normal;marker:none" d="M5.05 14.639L46.724 3.472a2.246 2.246 0 0 1 2.757 1.591l11.804 44.052a2.246 2.246 0 0 1-1.592 2.757L18.018 63.04a2.246 2.246 0 0 1-2.757-1.591L3.457 17.396a2.246 2.246 0 0 1 1.592-2.757z" color="#000" overflow="visible" fill="#59686e" stroke-width=".504"/><path style="isolation:auto;mix-blend-mode:normal;marker:none" d="M6.019 16.06L45.772 5.408a2.155 2.155 0 0 1 2.645 1.527l11.26 42.02a2.155 2.155 0 0 1-1.527 2.646L18.396 62.253a2.155 2.155 0 0 1-2.645-1.527L4.49 18.705A2.155 2.155 0 0 1 6.02 16.06z" color="#000" display="block" overflow="visible" fill-opacity=".225" stroke-width=".481"/><path style="isolation:auto;mix-blend-mode:normal;marker:none" d="M53.847 63.42l39.754-10.652a2.155 2.155 0 0 1 2.645 1.528l11.26 42.02a2.155 2.155 0 0 1-1.528 2.646l-39.753 10.652a2.155 2.155 0 0 1-2.645-1.527L52.32 66.066a2.155 2.155 0 0 1 1.527-2.646z" color="#000" display="block" overflow="visible" fill="url(#f)" stroke-width=".481" transform="translate(-48 -48)"/><path style="isolation:auto;mix-blend-mode:normal;marker:none" d="M52.714 59.945l40.951-10.973a2.62 2.62 0 0 1 3.217 1.857l11.267 42.049a2.62 2.62 0 0 1-1.857 3.216L65.34 107.067c-1.405.377-2.083 2.374-2.189 1.978L50.857 63.161a2.62 2.62 0 0 1 1.857-3.216z" color="#000" overflow="visible" fill="url(#g)" stroke-width=".504" transform="translate(-48 -48)"/><path style="line-height:1000%;-inkscape-font-specification:'Nimbus Roman, '" d="M40.554 32.558L38.39 24.48l-.801.215c.354 2.853-.107 3.5-2.944 4.334l-5.048 1.353-2.071-7.73c-.245-1.054-.169-1.186.797-1.482l4.735-1.269c4.057-1.012 4.884-.711 6.272 2.238l.87-.233-1.439-4.951-18.487 4.954.177.661c2.588-.507 3.127-.166 3.869 2.322l4.04 15.076c.757 2.968.512 3.445-2.088 4.328l.178.661 9.748-2.612-.177-.661c-2.674.604-3.292.247-4.008-2.285l-2.034-7.59 5.049-1.353c2.864-.73 3.552-.392 4.725 2.317z" font-weight="400" font-family="Nimbus Roman" letter-spacing="0" word-spacing="0" fill-opacity=".236" stroke-width="2.253"/><path style="line-height:1000%;-inkscape-font-specification:'Nimbus Roman, '" d="M40.355 31.453l-2.164-8.077-.8.214c.353 2.853-.108 3.5-2.944 4.334l-5.049 1.353-2.07-7.73c-.246-1.053-.17-1.186.796-1.482l4.735-1.269c4.058-1.012 4.885-.711 6.272 2.238l.87-.233-1.438-4.95-18.488 4.953.178.661c2.588-.507 3.127-.166 3.868 2.322l4.04 15.076c.758 2.969.512 3.445-2.087 4.328l.177.661L36 41.24l-.177-.661c-2.674.604-3.293.247-4.008-2.285l-2.034-7.59 5.048-1.353c2.865-.73 3.552-.392 4.726 2.317z" font-weight="400" font-family="Nimbus Roman" letter-spacing="0" word-spacing="0" fill="#fdfefe" stroke-width="2.253"/><path style="isolation:auto;mix-blend-mode:normal;marker:none" d="M5.85 13.545a.66.66 0 0 1 .81.468l11.476 42.829a.66.66 0 0 1-.468.81.66.66 0 0 1-.81-.468L5.38 14.356a.66.66 0 0 1 .468-.811z" color="#000" display="block" overflow="visible" fill="#0c0f10" fill-opacity=".192" stroke-width=".504"/><path style="isolation:auto;mix-blend-mode:normal;marker:none" d="M59.977 44.239a2.62 2.62 0 0 1-1.857 3.216L17.17 58.428c-1.406.377-2.084 2.374-2.19 1.978l.171.64c.106.395.784-1.602 2.19-1.979l40.95-10.972a2.62 2.62 0 0 0 1.858-3.217z" color="#000" overflow="visible" fill-opacity=".434" stroke-width=".504"/></svg>