<svg xmlns="http://www.w3.org/2000/svg" xmlns:xlink="http://www.w3.org/1999/xlink" height="64" viewBox="0 0 64 64" width="64"><title>Template icons dark</title><defs><linearGradient id="f"><stop offset="0" stop-color="#647780"/><stop offset="1" stop-color="#fff"/></linearGradient><linearGradient id="e"><stop offset="0" stop-opacity=".135"/><stop offset="1" stop-opacity="0"/></linearGradient><linearGradient id="d"><stop offset="0" stop-color="#391f3c" stop-opacity=".059"/><stop offset="1" stop-color="#391f3c" stop-opacity="0"/></linearGradient><linearGradient id="c"><stop offset="0" stop-color="#d8d8d8"/><stop offset="1" stop-color="#fff" stop-opacity=".995"/></linearGradient><linearGradient id="a"><stop offset="0" stop-color="#626262"/><stop offset="1" stop-color="#626262" stop-opacity="0"/></linearGradient><linearGradient id="b"><stop offset="0" stop-color="#69c2b7"/><stop offset="1" stop-color="#64a5b5"/></linearGradient><linearGradient gradientTransform="matrix(.68889 0 0 .68889 -30.222 -30.91)" xlink:href="#d" id="h" x1="160.063" y1="136" x2="160.063" y2="118.488" gradientUnits="userSpaceOnUse"/><linearGradient gradientTransform="matrix(.68889 0 0 .68889 -30.222 -30.91)" xlink:href="#c" id="g" x1="196" y1="196" x2="160" y2="160" gradientUnits="userSpaceOnUse"/><linearGradient xlink:href="#e" id="i" gradientUnits="userSpaceOnUse" x1="162" y1="188.703" x2="162" y2="145"/><linearGradient xlink:href="#f" id="j" gradientUnits="userSpaceOnUse" x1="174" y1="144.177" x2="174" y2="189.118"/><linearGradient xlink:href="#b" id="k" gradientUnits="userSpaceOnUse" gradientTransform="translate(-20.706 -15.965) scale(1.12927)" x1="164" y1="143.615" x2="164" y2="180"/></defs><path style="isolation:auto;mix-blend-mode:normal;marker:none" d="M7 1h49c3.053 0 6 1.947 6 5v52c0 3.053-1.947 5-5 5H7c-3.053 0-5-1.947-5-5V6c0-3.053 1.947-5 5-5z" color="#000" overflow="visible" fill-opacity=".078" stroke-width=".413" stroke-opacity=".583"/><path d="M61.04 52.489V58c0 2.29-1.75 4-4.04 4H7c-2.29 0-4-1.71-4-4v-5.511z" style="isolation:auto;mix-blend-mode:normal;marker:none" color="#000" display="block" overflow="visible" fill="#696969" stroke-width=".395" stroke-opacity=".583"/><path style="isolation:auto;mix-blend-mode:normal;marker:none" d="M61.04 50.462v5.511c0 2.29-1.75 4-4.04 4H7c-2.29 0-4.01-1.71-4-4v-5.511z" color="#000" display="block" overflow="visible" fill="#a5a5a5" stroke-width=".395" stroke-opacity=".583"/><path style="isolation:auto;mix-blend-mode:normal;marker:none" d="M55 50h50c2.29 0 3.998 1.71 4 4l.04 48c.001 2.29-1.75 4-4.04 4H55c-2.29 0-4-1.71-4-4V54c0-2.29 1.71-4 4-4z" color="#000" display="block" overflow="visible" fill="url(#g)" stroke-width=".395" stroke-opacity=".583" transform="translate(-48 -48)"/><path style="isolation:auto;mix-blend-mode:normal;marker:none" d="M55 50c-2.29 0-4.017 1.71-4 4v9h58v-9c0-2.29-1.71-4-4-4zm16.733 4.511a2.756 2.756 0 1 1 0 5.511 2.756 2.756 0 0 1 0-5.51zm16.534 0a2.756 2.756 0 1 1 0 5.511 2.756 2.756 0 0 1 0-5.51z" color="#000" display="block" overflow="visible" fill="url(#h)" stroke-width=".395" stroke-opacity=".583" transform="translate(-48 -48)"/><path style="line-height:1000%" d="M49.164 52.716v2.313h.643c.447 0 .776-.094.987-.281.21-.187.316-.48.316-.879 0-.396-.105-.687-.315-.873-.21-.187-.54-.28-.988-.28zm.314.257h.378c.319 0 .552.072.7.217.148.144.223.37.223.68 0 .311-.075.54-.223.684-.148.145-.381.217-.7.217h-.378zm2.724.279c-.093 0-.188.01-.286.03-.098.02-.199.05-.303.09v.263a1.144 1.144 0 0 1 .561-.141c.156 0 .276.035.362.108.087.07.13.173.13.304v.028h-.399c-.26 0-.455.049-.587.148-.13.1-.195.246-.195.441 0 .168.053.301.158.401.105.1.246.15.424.15.14 0 .259-.025.356-.074a.628.628 0 0 0 .244-.235v.264h.285v-.99c0-.265-.063-.462-.187-.592-.124-.13-.312-.195-.563-.195zm1.133.042L54.038 55l-.051.13c-.053.139-.101.226-.144.263a.273.273 0 0 1-.183.056h-.169v.239h.23c.127 0 .23-.032.306-.095.076-.063.155-.198.235-.405l.762-1.895h-.301l-.543 1.357-.542-1.357zm-.952.862h.284v.065a.664.664 0 0 1-.144.446.474.474 0 0 1-.38.168.4.4 0 0 1-.273-.088.312.312 0 0 1-.1-.243c0-.127.045-.216.134-.269.089-.052.248-.08.479-.08z" font-family="sans-serif" letter-spacing="0" word-spacing="0" fill="#3ca0a0" fill-opacity=".568" stroke-width=".288"/><path style="line-height:1000%" d="M33.31 16.557v2.834h.334v-2.834zm-3.455.115v2.53c0 .235-.034.398-.1.49-.067.09-.181.137-.344.137h-.115v.31h.14c.277 0 .476-.075.6-.223.125-.148.187-.386.187-.714v-2.53zm1.051.68v1.235c0 .28.062.493.183.639.122.146.299.218.533.218.142 0 .267-.03.374-.089a.832.832 0 0 0 .284-.277v.314h.335v-2.04h-.335v1.156c0 .199-.053.356-.159.472a.548.548 0 0 1-.428.173c-.15 0-.264-.048-.339-.144-.075-.097-.113-.242-.113-.436v-1.221zm3.197 0l.825 2.007-.06.152c-.061.163-.118.267-.169.311a.32.32 0 0 1-.215.065h-.197v.28h.268a.55.55 0 0 0 .36-.11c.09-.075.183-.233.278-.476l.896-2.23h-.355l-.638 1.596-.638-1.595z" font-family="sans-serif" letter-spacing="0" word-spacing="0" fill-opacity=".516" stroke-width=".233"/><path style="isolation:auto;mix-blend-mode:normal;marker:none" d="M3 53.311V54c0 2.29 1.71 4 4 4h50c2.29 0 4.04-1.71 4.04-4v-.689c0 2.29-1.75 4-4.04 4H7c-2.29 0-4-1.71-4-4z" color="#000" overflow="visible" fill="#fff" fill-opacity=".495" stroke-width=".395" stroke-opacity=".583"/><path d="M3 55.24v.69c0 2.29 1.71 4 4 4h50c2.29 0 4.04-1.71 4.04-4v-.69c0 2.29-1.75 4-4.04 4H7c-2.29 0-4-1.71-4-4z" style="isolation:auto;mix-blend-mode:normal;marker:none" color="#000" overflow="visible" fill="#fff" fill-opacity=".208" stroke-width=".395" stroke-opacity=".583"/><path style="isolation:auto;mix-blend-mode:normal;marker:none" d="M3 57.311V58c0 2.29 1.71 4 4 4h50c2.29 0 4.04-1.71 4.04-4v-.689c0 2.29-1.75 4-4.04 4H7c-2.29 0-4-1.71-4-4z" color="#000" display="block" overflow="visible" fill="#fff" fill-opacity=".099" stroke-width=".395" stroke-opacity=".583"/><g color="#000" stroke-width="1.2" stroke-opacity=".583"><path d="M23.733 6.511a2.756 2.756 0 0 0-2.755 2.756 2.756 2.756 0 0 0 2.755 2.755 2.756 2.756 0 0 0 2.756-2.755 2.756 2.756 0 0 0-2.756-2.756zm16.534 0a2.756 2.756 0 0 0-2.756 2.756 2.756 2.756 0 0 0 2.756 2.755 2.756 2.756 0 0 0 2.755-2.755 2.756 2.756 0 0 0-2.755-2.756z" style="isolation:auto;mix-blend-mode:normal;marker:none" display="block" overflow="visible" fill="#fff" fill-opacity=".927"/><path d="M23.733 6.511a2.756 2.756 0 0 0-2.755 2.756 2.756 2.756 0 0 0 .024.348A2.756 2.756 0 0 1 23.733 7.2a2.756 2.756 0 0 1 2.732 2.407 2.756 2.756 0 0 0 .024-.34 2.756 2.756 0 0 0-2.756-2.756zm16.534 0a2.756 2.756 0 0 0-2.756 2.756 2.756 2.756 0 0 0 .024.348A2.756 2.756 0 0 1 40.267 7.2a2.756 2.756 0 0 1 2.731 2.407 2.756 2.756 0 0 0 .024-.34 2.756 2.756 0 0 0-2.755-2.756z" style="isolation:auto;mix-blend-mode:normal;marker:none" display="block" overflow="visible" fill-opacity=".401"/><path style="isolation:auto;mix-blend-mode:normal;marker:none" d="M23.733 12.013a2.756 2.756 0 0 1-2.755-2.756 2.756 2.756 0 0 1 .024-.348 2.756 2.756 0 0 0 2.731 2.415 2.756 2.756 0 0 0 2.732-2.407 2.756 2.756 0 0 1 .024.34 2.756 2.756 0 0 1-2.756 2.756zm16.534 0a2.756 2.756 0 0 1-2.756-2.756 2.756 2.756 0 0 1 .024-.348 2.756 2.756 0 0 0 2.732 2.415 2.756 2.756 0 0 0 2.731-2.407 2.756 2.756 0 0 1 .024.34 2.756 2.756 0 0 1-2.755 2.756z" display="block" overflow="visible" fill="#e6e6e6" fill-opacity=".292"/></g><g font-weight="400" font-family="Roboto" letter-spacing="0" word-spacing="0"><path style="line-height:1000%;-inkscape-font-specification:Roboto;font-variant-ligatures:normal;font-variant-position:normal;font-variant-caps:normal;font-variant-numeric:normal;font-variant-alternates:normal;font-feature-settings:normal;text-indent:0;text-align:start;text-decoration-line:none;text-decoration-style:solid;text-decoration-color:#000;text-transform:none;text-orientation:mixed;shape-padding:0;isolation:auto;mix-blend-mode:normal" d="M144.04 144.346c-3.934 0-7.399 1.212-10.067 3.629-2.646 2.394-4.055 5.615-4.055 9.224v1.766h8.633v-1.766c0-1.708.46-2.804 1.414-3.717.97-.93 2.206-1.414 4.074-1.414 2.05 0 3.269.487 4.025 1.246.757.76 1.245 1.989 1.245 4.05 0 1.708-.473 2.777-1.48 3.677-1.006.898-2.42 1.423-4.534 1.455h-5.57v7.695h5.588c2.425.036 4.031.603 5.056 1.497 1.024.892 1.545 2.072 1.545 4.046 0 2.091-.517 3.388-1.43 4.287-.91.897-2.258 1.422-4.416 1.422-1.994 0-3.333-.502-4.35-1.437-1.019-.938-1.5-2.045-1.5-3.776v-1.765h-8.66v1.765c0 3.761 1.426 7.064 4.141 9.418l.002.002.002.002c2.723 2.343 6.277 3.489 10.365 3.489 4.1 0 7.662-1.196 10.364-3.623 2.725-2.448 4.117-5.904 4.117-9.893 0-2.637-.712-5.037-2.166-6.98l-.002-.002c-.76-1.027-1.717-1.872-2.8-2.58a11.62 11.62 0 0 0 2.339-2.512c1.305-1.877 2.021-3.949 2.021-6.076 0-3.923-1.253-7.288-3.787-9.649-2.53-2.357-6.016-3.48-10.115-3.48zm32.3 0c-4.746 0-8.652 1.692-11.037 5.045-2.373 3.334-3.389 8.073-3.389 14.18v6.824l.002.011c.076 5.856 1.153 10.465 3.531 13.756l.002.002.002.002c2.403 3.303 6.272 4.975 10.946 4.975 4.733 0 8.636-1.72 11.015-5.108 2.369-3.371 3.383-8.162 3.383-14.34v-6.637c-.057-5.976-1.104-10.6-3.488-13.826l-.002-.002c-2.394-3.254-6.267-4.883-10.965-4.883zm0 7.722c2.186 0 3.342.632 4.26 2.133l.002.004.002.004c.91 1.476 1.556 4.35 1.556 8.506v8.336c-.053 4.024-.723 6.817-1.656 8.293l-.004.006-.002.004c-.924 1.483-2.037 2.09-4.102 2.09-2.079 0-3.238-.64-4.228-2.242-.968-1.615-1.621-4.544-1.621-8.707v-8.149c.035-3.912.673-6.662 1.592-8.174.899-1.48 2.033-2.103 4.2-2.103z" color="#000" white-space="normal" overflow="visible" fill="url(#i)" stroke="url(#j)" stroke-width=".6" stroke-opacity=".448" transform="matrix(.69382 0 0 .69382 -79.203 -79.36)"/><path d="M144.04 145.982c-3.586 0-6.547 1.057-8.883 3.171-2.317 2.097-3.473 4.735-3.473 7.916h5.101c0-2.078.653-3.74 1.959-4.991 1.324-1.269 3.089-1.903 5.295-1.903 4.69 0 7.034 2.352 7.034 7.06 0 2.096-.69 3.761-2.069 4.993-1.379 1.232-3.272 1.867-5.681 1.904h-3.834v4.164h3.834c2.703.037 4.772.682 6.206 1.932 1.435 1.25 2.15 3.042 2.15 5.377 0 2.41-.65 4.258-1.956 5.545-1.305 1.287-3.19 1.93-5.655 1.93-2.317 0-4.166-.635-5.545-1.903-1.379-1.27-2.069-2.96-2.069-5.075h-5.13c0 3.346 1.177 6.042 3.531 8.083 2.372 2.041 5.443 3.061 9.213 3.061 3.77 0 6.83-1.056 9.184-3.171 2.354-2.115 3.531-4.976 3.531-8.58 0-2.335-.606-4.313-1.82-5.93-1.194-1.62-2.896-2.776-5.103-3.475 1.95-.809 3.486-2.033 4.608-3.67 1.14-1.637 1.709-3.328 1.709-5.075 0-3.567-1.075-6.353-3.227-8.357-2.151-2.004-5.122-3.006-8.91-3.006zm32.3 0c-4.358 0-7.557 1.434-9.598 4.303-2.041 2.869-3.062 7.253-3.062 13.156v6.813c.074 5.646 1.139 9.894 3.199 12.744 2.06 2.832 5.232 4.248 9.517 4.248 4.34 0 7.53-1.452 9.572-4.358 2.041-2.905 3.061-7.347 3.061-13.324v-6.619c-.055-5.774-1.104-10.04-3.145-12.8-2.04-2.776-5.222-4.163-9.543-4.163zm0 4.193c2.63 0 4.552.991 5.766 2.977 1.214 1.968 1.82 5.112 1.82 9.434v8.359c-.056 4.192-.698 7.263-1.93 9.213-1.214 1.949-3.081 2.922-5.6 2.922-2.556 0-4.468-1.028-5.737-3.088-1.25-2.078-1.877-5.287-1.877-9.627V162.2c.037-4.083.653-7.107 1.848-9.074 1.196-1.968 3.1-2.951 5.71-2.951z" style="line-height:1000%;-inkscape-font-specification:Roboto" fill="url(#k)" stroke-width="3.531" transform="matrix(.69382 0 0 .69382 -79.203 -79.36)"/><path style="line-height:1000%;-inkscape-font-specification:Roboto" d="M20.734 24.14c-1.532 0-2.756.44-3.674 1.32-.906.868-1.36 2.021-1.36 3.463h-3.506a8.538 8.538 0 0 0-.033.694h3.54c0-1.442.453-2.595 1.359-3.462.918-.88 2.142-1.322 3.673-1.322 3.12 0 4.74 1.506 4.868 4.51.005-.101.012-.2.012-.305 0-3.266-1.626-4.899-4.88-4.899zm22.41 0c-1.811 0-3.131.682-3.96 2.047-.83 1.365-1.258 3.463-1.284 6.296v.694c.026-2.833.454-4.931 1.283-6.296.83-1.365 2.15-2.048 3.961-2.048 1.825 0 3.158.689 4 2.067.843 1.365 1.264 3.547 1.264 6.545v-.694c0-2.998-.421-5.18-1.263-6.545-.843-1.378-2.176-2.067-4-2.067zm-14.002 5.31c-.066 1.094-.456 2.155-1.174 3.186-.778 1.136-1.844 1.985-3.196 2.546.281.09.547.193.805.304a6.895 6.895 0 0 0 2.391-2.156c.791-1.136 1.187-2.309 1.187-3.52 0-.124-.01-.24-.013-.36zm-11.566 7.262v.694h2.66c1.876.026 3.312.474 4.307 1.342.925.806 1.413 1.942 1.478 3.4.005-.12.014-.239.014-.364 0-1.62-.497-2.863-1.492-3.73-.995-.868-2.431-1.316-4.307-1.342zm34.372.881c0 4.147-.707 7.229-2.123 9.245-1.416 2.015-3.63 3.023-6.641 3.023-2.973 0-5.175-.983-6.604-2.948-1.429-1.977-2.169-4.925-2.22-8.842v.694c.051 3.917.791 6.865 2.22 8.842 1.43 1.965 3.63 2.948 6.604 2.948 3.01 0 5.225-1.008 6.641-3.024 1.416-2.016 2.123-5.098 2.123-9.244zm-22.385 4.416c-.064 2.357-.872 4.244-2.437 5.651-1.634 1.467-3.757 2.2-6.372 2.2-2.616 0-4.746-.706-6.392-2.123-1.467-1.271-2.27-2.912-2.42-4.915h-.03c0 2.322.817 4.193 2.45 5.61 1.646 1.415 3.776 2.123 6.392 2.123 2.615 0 4.738-.734 6.372-2.201 1.633-1.467 2.45-3.452 2.45-5.953 0-.133-.007-.262-.013-.392z" fill-opacity=".151" stroke-width="3.531"/></g></svg>