<svg xmlns="http://www.w3.org/2000/svg" xmlns:xlink="http://www.w3.org/1999/xlink" height="64" viewBox="0 0 64 64" width="64"><title>Template icons dark</title><defs><linearGradient id="j"><stop offset="0" stop-color="#aa70ce"/><stop offset="1" stop-color="#e2268d"/></linearGradient><linearGradient id="i"><stop offset="0" stop-color="#fff" stop-opacity=".225"/><stop offset="1" stop-color="#fff" stop-opacity=".093"/></linearGradient><linearGradient id="a"><stop offset="0" stop-color="#fff" stop-opacity=".105"/><stop offset="1" stop-color="#fff" stop-opacity=".414"/></linearGradient><linearGradient id="b"><stop offset="0" stop-color="#4b4b4b"/><stop offset=".139" stop-color="#ddd"/><stop offset=".303" stop-color="#838383"/><stop offset=".455" stop-color="#fff"/><stop offset=".522" stop-color="#fff"/><stop offset=".731" stop-color="#5f5f5f"/><stop offset=".931" stop-color="#fff"/><stop offset="1" stop-color="#505050"/></linearGradient><linearGradient id="c"><stop offset="0" stop-color="#fcfcfc"/><stop offset=".512" stop-color="#7c7c7c"/><stop offset=".904" stop-color="#fcfcfc"/><stop offset="1" stop-color="#b5b5b5"/></linearGradient><linearGradient id="d"><stop offset="0" stop-opacity="0"/><stop offset="1" stop-color="#919191" stop-opacity=".502"/></linearGradient><linearGradient id="e"><stop offset="0" stop-color="#15b5ff"/><stop offset="1" stop-color="#1385ff"/></linearGradient><linearGradient id="f"><stop offset="0" stop-color="#42ec81"/><stop offset="1" stop-color="#3add5c"/></linearGradient><linearGradient id="g"><stop offset="0" stop-color="#ff8300"/><stop offset="1" stop-color="#ff5b00"/></linearGradient><linearGradient id="h"><stop offset="0" stop-color="#f72424" stop-opacity=".066"/><stop offset="1" stop-color="#f72424" stop-opacity=".118"/></linearGradient><linearGradient xlink:href="#c" id="p" x1="11.592" y1="14.007" x2="28.333" y2="31.765" gradientUnits="userSpaceOnUse" gradientTransform="matrix(1.99577 0 0 1.99577 33.803 26.323)"/><linearGradient xlink:href="#d" id="q" x1="8.57" y1="18.196" x2="28.333" y2="31.765" gradientUnits="userSpaceOnUse" gradientTransform="matrix(1.99577 0 0 1.99577 33.803 26.323)"/><linearGradient xlink:href="#a" id="o" x1="20.54" y1="20.256" x2="17.967" y2="15.009" gradientUnits="userSpaceOnUse" gradientTransform="matrix(1.99577 0 0 1.99577 33.803 26.323)"/><linearGradient xlink:href="#b" id="m" gradientUnits="userSpaceOnUse" gradientTransform="matrix(.5671 .56157 -1.11238 1.14519 196.997 109.169)" x1="45.878" y1="34.792" x2="45.869" y2="42.694"/><linearGradient xlink:href="#b" id="n" gradientUnits="userSpaceOnUse" gradientTransform="matrix(.7981 0 0 1.5965 225.755 -64.719)" x1="45.878" y1="34.792" x2="46.015" y2="47.577"/><linearGradient xlink:href="#j" id="k" x1="151.346" y1="136.33" x2="151.346" y2="165" gradientUnits="userSpaceOnUse"/><linearGradient xlink:href="#i" id="l" gradientUnits="userSpaceOnUse" gradientTransform="translate(2 2)" x1="149.661" y1="137.417" x2="149.661" y2="161"/></defs><g stroke-opacity=".209"><path style="isolation:auto;mix-blend-mode:normal;marker:none" d="M13 13h24v24H13z" color="#000" display="block" overflow="visible" fill-opacity=".143" stroke-width=".444" paint-order="fill markers stroke"/><path d="M132.844 133.47v33h33v-33zm4.5 4.5h24l.047 22.5h-24.047z" style="isolation:auto;mix-blend-mode:normal;marker:none" color="#000" display="block" overflow="visible" fill="url(#k)" stroke-width=".418" paint-order="fill markers stroke" transform="translate(-74.562 -74.98) scale(.66666)"/><path d="M137.344 137.97h24l.047 22.5h-24.047z" style="isolation:auto;mix-blend-mode:normal;marker:none" color="#000" display="block" overflow="visible" fill="url(#l)" stroke-width=".312" paint-order="fill markers stroke" transform="translate(-74.562 -74.98) scale(.66666)"/><path d="M16.182 22.543l9.951 12.578L49.302 8.708 26.133 28.082z" fill-opacity=".247" fill-rule="evenodd" stroke-width="1.32"/><path d="M16.049 20.461L26 33.04 49.915 7.523 26 26z" fill="#fff" fill-rule="evenodd" stroke-width="1.32"/><path style="isolation:auto;mix-blend-mode:normal;marker:none" d="M14 35h22v1H14z" color="#000" display="block" overflow="visible" fill-opacity=".253" stroke-width=".312" paint-order="fill markers stroke"/><path style="isolation:auto;mix-blend-mode:normal;marker:none" d="M17 17h16v1H17z" color="#000" display="block" overflow="visible" fill-opacity=".456" stroke-width=".064" paint-order="fill markers stroke"/><path d="M17 32h16.03L33 33H17z" style="isolation:auto;mix-blend-mode:normal;marker:none" color="#000" display="block" overflow="visible" fill="#fff" fill-opacity=".11" stroke-width=".064" paint-order="fill markers stroke"/></g><g stroke-miterlimit="0"><path d="M180.51 170.87l5.744 5.435-9.088 9.234-5.558-5.503z" fill="url(#m)" stroke-width="1.693" stroke-opacity=".192" transform="matrix(.69566 0 0 .69566 -79.639 -79.108)"/><path d="M258.257-9.374h22.38c1.012 0 1.826.815 1.826 1.827V8.935a1.823 1.823 0 0 1-1.826 1.826h-22.38a1.823 1.823 0 0 1-1.827-1.826V-7.547c0-1.012.815-1.827 1.827-1.827z" transform="matrix(.49431 .48948 -.4847 .499 -79.639 -79.108)" fill="url(#n)" stroke-width="1.693" stroke-opacity=".192"/><path d="M62.025 52.025l1.682 1.648c.345.338.43 1.193.007 1.628l-8.181 8.418c-.34.35-1.184.365-1.577-.023l-1.78-1.757c4.206-3.988 7.252-6.797 9.849-9.914zM51.877 41.95l1.515 1.474c-3.985 3.31-6.323 5.658-9.79 10.01l-1.45-1.424c-.093-.092-.14-.407-.062-.486l9.478-9.594c.078-.08.215-.07.309.02z" fill="#570000" fill-opacity=".563" stroke-width="3.174"/></g><path d="M25.798 1.752C13.5 1.752 1.95 12.832 1.95 25.132c0 12.3 11.274 23.391 23.574 23.391 12.3 0 23.208-10.908 23.208-23.208 0-12.3-10.634-23.563-22.934-23.563zm-.274 1.712c10.838 0 19.563 9.458 19.563 20.296a19.52 19.52 0 0 1-19.563 19.563A19.52 19.52 0 0 1 5.96 23.76c0-10.838 8.725-20.296 19.563-20.296z" fill="#050505" fill-opacity=".13" stroke-width=".748"/><path d="M73.749 54.919a13.726 13.726 0 0 0-3.815.371c-12.436 3.06-16.806 14.143-13.04 18.211 3.068 3.317 5.893-3.032 14.524-5.107 8.631-2.076 13.407 4.145 16.08.577 4.035-5.383-4.782-13.705-13.75-14.052zm14.69 17.747c-1.266-.11-2.6.88-3.111 2.317-.584 1.643.036 3.51 1.441 4.009 1.405.5 3.063-.559 3.647-2.202.584-1.643-.037-3.507-1.442-4.006a2.146 2.146 0 0 0-.535-.118z" fill="url(#o)" stroke-width="1.178" stroke-miterlimit="0" stroke-opacity=".192" transform="translate(-48 -48)"/><path d="M73.217 48.142A24.983 24.983 0 0 0 48.18 73.18a24.983 24.983 0 0 0 25.038 25.038A24.983 24.983 0 0 0 98.255 73.18a24.983 24.983 0 0 0-25.038-25.038zm0 1.943A23.045 23.045 0 0 1 96.313 73.18a23.045 23.045 0 0 1-23.096 23.095A23.045 23.045 0 0 1 50.122 73.18a23.045 23.045 0 0 1 23.095-23.095z" fill="url(#p)" stroke="url(#q)" stroke-width=".293" transform="translate(-48 -48)"/></svg>