<svg xmlns="http://www.w3.org/2000/svg" xmlns:xlink="http://www.w3.org/1999/xlink" height="64" viewBox="0 0 64 64" width="64"><title>Template icons dark</title><defs><linearGradient id="h"><stop offset="0" stop-color="#e1140e"/><stop offset="1" stop-color="#951318"/></linearGradient><linearGradient id="g" gradientTransform="matrix(0 -100 -100 0 96 146)" gradientUnits="userSpaceOnUse" x2="1"><stop offset="0" stop-color="#fff"/><stop offset="1" stop-color="#c7c7c7"/></linearGradient><linearGradient id="b"><stop offset="0" stop-color="#c6120c"/><stop offset="1" stop-color="#490306"/></linearGradient><linearGradient id="f"><stop offset="0" stop-opacity=".736"/><stop offset="1" stop-opacity="0"/></linearGradient><linearGradient id="e"><stop offset="0" stop-opacity=".742"/><stop offset="1" stop-opacity="0"/></linearGradient><linearGradient id="d"><stop offset="0" stop-color="#8c1919"/><stop offset="1" stop-color="#ff3030"/></linearGradient><linearGradient id="i"><stop offset="0" stop-color="#fff"/><stop offset="1" stop-color="#dac7b4"/></linearGradient><linearGradient id="c"><stop offset="0" stop-color="#362c2d" stop-opacity=".374"/><stop offset="1" stop-opacity="0"/></linearGradient><linearGradient id="a"><stop offset="0" stop-color="#2c2e31"/><stop offset="1" stop-color="#40464d"/></linearGradient><linearGradient xlink:href="#g" id="u" gradientUnits="userSpaceOnUse" x1="177.323" y1="176" x2="177.323" y2="200" gradientTransform="matrix(.7149 0 0 .7149 -34.017 -33.093)"/><linearGradient xlink:href="#h" id="t" gradientUnits="userSpaceOnUse" x1="173.088" y1="180.647" x2="173.088" y2="200" gradientTransform="matrix(.7149 0 0 .7149 -34.017 -33.093)"/><linearGradient xlink:href="#b" id="n" x1="-567.013" y1="546.542" x2="-567.013" y2="541.888" gradientUnits="userSpaceOnUse" gradientTransform="translate(389.672 -221.071) scale(.54636)"/><linearGradient xlink:href="#a" id="m" x1="-553.436" y1="535.695" x2="-538.458" y2="525.571" gradientUnits="userSpaceOnUse" gradientTransform="translate(389.672 -221.071) scale(.54636)"/><linearGradient xlink:href="#a" id="l" x1="-591.369" y1="535.056" x2="-580.187" y2="522.822" gradientUnits="userSpaceOnUse" gradientTransform="translate(389.672 -221.071) scale(.54636)"/><linearGradient xlink:href="#c" id="k" x1="166" y1="152" x2="166" y2="146" gradientUnits="userSpaceOnUse" gradientTransform="translate(-99.98 -81.04) scale(1.09604)"/><linearGradient xlink:href="#g" id="o" gradientUnits="userSpaceOnUse" gradientTransform="matrix(.7149 0 0 .7149 -34.017 -33.093)" x1="177.323" y1="176" x2="177.323" y2="200"/><linearGradient xlink:href="#g" id="p" gradientUnits="userSpaceOnUse" gradientTransform="matrix(.7149 0 0 .7149 -34.017 -33.093)" x1="177.323" y1="176" x2="177.323" y2="200"/><linearGradient xlink:href="#h" id="q" gradientUnits="userSpaceOnUse" gradientTransform="matrix(.7149 0 0 .7149 -34.017 -33.093)" x1="173.088" y1="180.647" x2="173.088" y2="200"/><linearGradient xlink:href="#h" id="r" gradientUnits="userSpaceOnUse" gradientTransform="matrix(.7149 0 0 .7149 -34.017 -33.093)" x1="173.088" y1="180.647" x2="173.088" y2="200"/><linearGradient xlink:href="#g" id="s" gradientUnits="userSpaceOnUse" gradientTransform="matrix(.7149 0 0 .7149 -34.017 -33.093)" x1="177.323" y1="176" x2="177.323" y2="200"/><radialGradient xlink:href="#i" id="j" cx="167.805" cy="136.668" fx="167.805" fy="136.668" r="20.669" gradientTransform="matrix(1.09604 0 0 .90573 -99.98 -55.185)" gradientUnits="userSpaceOnUse"/></defs><path d="M11.517 33.183c10.593 9.938 33.189 6.583 41.552.342 3.654-3.535 2.395-8.628-.916-9.856 9.71-21.564-23.561-35.035-30.548-10.553-4.104-7.65-19.604-.071-9.917 9.929-4.795.77-6.18 8.122-.171 10.138z" fill-opacity=".099" fill-rule="evenodd" stroke-width=".528"/><path style="isolation:auto;mix-blend-mode:normal;marker:none" d="M55.003 62.48a23.449 1.53 0 0 1-23.449 1.53 23.449 1.53 0 0 1-23.448-1.53 23.449 1.53 0 0 1 23.448-1.53 23.449 1.53 0 0 1 23.45 1.53z" color="#000" display="block" overflow="visible" fill-opacity=".17" stroke-width=".418" paint-order="fill markers stroke"/><path d="M60.589 80.617c10.05 9.428 31.487 6.245 39.422.324 3.467-3.354 2.272-8.186-.869-9.351 9.213-20.458-22.354-33.24-28.982-10.012-3.894-7.258-18.6-.067-9.41 9.42-4.549.73-5.862 7.706-.161 9.619z" fill="url(#j)" fill-rule="evenodd" stroke-width=".501" transform="translate(-48 -48)"/><path d="M60.589 80.617c10.05 9.428 31.487 6.245 39.422.324 3.467-3.354 2.272-8.186-.869-9.351 9.213-20.458-22.354-33.24-28.982-10.012-3.894-7.258-18.6-.067-9.41 9.42-4.549.73-5.862 7.706-.161 9.619z" fill="url(#k)" fill-rule="evenodd" stroke-width=".501" transform="translate(-48 -48)"/><path d="M73.372 71.263a3.4 3.4 0 1 1-6.8 0 3.4 3.4 0 0 1 6.8 0z" fill="url(#l)" stroke-width=".328" stroke-linecap="round" stroke-linejoin="round" transform="translate(-48 -48)"/><path d="M94.097 71.612a3.4 3.4 0 1 1-6.8 0 3.4 3.4 0 0 1 6.8 0z" fill="url(#m)" stroke-width=".328" stroke-linecap="round" stroke-linejoin="round" transform="translate(-48 -48)"/><path d="M85.452 75.514c-.806 6.179-9.757 5.823-10.155-.077-.07-.58.052-.53.615-.533l8.814-.049c.772-.071.785.012.726.659z" opacity=".848" fill="url(#n)" fill-rule="evenodd" stroke-width=".523" transform="translate(-48 -48)"/><path d="M45.165 22.214a1.07 1.07 0 1 1-2.14 0 1.07 1.07 0 0 1 2.14 0zM23.986 22.214a1.07 1.07 0 1 1-2.14 0 1.07 1.07 0 0 1 2.14 0z" fill="#fefefe" stroke-width=".103" stroke-linecap="round" stroke-linejoin="round"/><path d="M72.598 110.693h4.898l-.693-25.704c-.01-2.69-4.69-3.531-5.378-.647z" fill="url(#o)" fill-rule="evenodd" stroke-width=".456" transform="translate(-48 -48)"/><path d="M49.976 62.48a18.422 1.202 0 0 1-18.422 1.202 18.422 1.202 0 0 1-18.422-1.202 18.422 1.202 0 0 1 18.422-1.202 18.422 1.202 0 0 1 18.422 1.202z" style="isolation:auto;mix-blend-mode:normal;marker:none" color="#000" display="block" overflow="visible" fill-opacity=".17" stroke-width=".328" paint-order="fill markers stroke"/><path d="M86.838 110.693H82.42l.385-25.84c.01-2.69 4.69-3.53 5.378-.646z" fill="url(#p)" fill-rule="evenodd" stroke-width=".456" transform="translate(-48 -48)"/><path d="M77.165 110.693h5.256l.409-25.218c-.034-3.862-6.02-3.875-6.037-.063z" fill="url(#q)" fill-rule="evenodd" stroke-width=".456" transform="translate(-48 -48)"/><path d="M91.49 110.693h-4.96l1.377-26.596c.073-2.688 4.88-3.425 5.523-.526z" fill="url(#r)" fill-rule="evenodd" stroke-width=".456" transform="translate(-48 -48)"/><path d="M95.274 110.693h-4.092l2.27-27.558c.207-2.68 4.889-3.182 5.364-.254z" fill="url(#s)" fill-rule="evenodd" stroke-width=".456" transform="translate(-48 -48)"/><path d="M68.276 110.693h4.898l-1.74-26.46c-.073-2.688-4.88-3.425-5.523-.526z" fill="url(#t)" fill-rule="evenodd" stroke-width=".456" transform="translate(-48 -48)"/><path d="M64.201 110.693h4.32L65.889 83.27c-.206-2.681-4.888-3.182-5.363-.255z" fill="url(#u)" fill-rule="evenodd" stroke-width=".456" transform="translate(-48 -48)"/></svg>