<svg xmlns="http://www.w3.org/2000/svg" xmlns:xlink="http://www.w3.org/1999/xlink" height="64" viewBox="0 0 64 64" width="64"><title>Template icons dark</title><defs><linearGradient id="b"><stop offset="0" stop-color="#cfdde2"/><stop offset="1" stop-color="#90a1b1"/></linearGradient><linearGradient id="g"><stop offset="0" stop-color="#fff" stop-opacity="0"/><stop offset=".48" stop-color="#fff"/><stop offset="1" stop-color="#f5f6f6" stop-opacity="0"/></linearGradient><linearGradient id="e"><stop offset="0" stop-color="#eaf2f7"/><stop offset="1" stop-color="#99b4c0"/></linearGradient><linearGradient id="f"><stop offset="0" stop-color="#c1dae3"/><stop offset="1" stop-color="#8a98b4"/></linearGradient><linearGradient id="d"><stop offset="0" stop-color="#d2d2d2"/><stop offset="1" stop-color="#939393"/></linearGradient><linearGradient id="c"><stop offset="0" stop-color="#671e1e"/><stop offset="1" stop-color="#d04044"/></linearGradient><linearGradient id="a"><stop offset="0" stop-color="#0c528e"/><stop offset="1" stop-color="#5fb19b"/></linearGradient><linearGradient xlink:href="#g" id="m" x1="146.804" y1="139.479" x2="174.466" y2="139.479" gradientUnits="userSpaceOnUse" gradientTransform="matrix(.29664 0 0 .48424 32.31 -1.65)"/><linearGradient xlink:href="#g" id="l" gradientUnits="userSpaceOnUse" gradientTransform="matrix(.32036 0 0 .48424 28.857 21.282)" x1="146.804" y1="139.479" x2="174.466" y2="139.479"/><linearGradient xlink:href="#c" id="k" gradientUnits="userSpaceOnUse" gradientTransform="matrix(.64773 0 0 .64773 -23.582 -23.395)" x1="162.588" y1="185.95" x2="162.588" y2="134.436"/><linearGradient xlink:href="#a" id="j" x1="10.43" y1="43.068" x2="38.891" y2="13.193" gradientUnits="userSpaceOnUse" gradientTransform="matrix(.66493 0 0 .66493 -31.719 -33.846)"/><linearGradient gradientTransform="matrix(.6891 0 0 .6891 -30.256 -30.256)" xlink:href="#e" id="i" x1="168.352" y1="125.665" x2="168.352" y2="190.817" gradientUnits="userSpaceOnUse"/><linearGradient gradientTransform="matrix(.6891 0 0 .6891 -30.256 -30.256)" xlink:href="#b" id="h" x1="161.702" y1="118.898" x2="161.702" y2="197.932" gradientUnits="userSpaceOnUse"/></defs><g color="#000"><path style="isolation:auto;mix-blend-mode:normal;marker:none" d="M28.197.99c-.526 0-.82.417-.951.899l-2.02 7.43c-1.379.492-3.19 1.18-4.411 1.818L14.129 7.29c-.433-.249-.935-.335-1.308.038l-5.437 5.437c-.372.372-.285.868-.037 1.302l3.758 6.569a23.862 23.862 0 0 0-1.956 4.57l-7.26 1.956c-.482.13-.898.425-.898.952v7.69c0 .526.416.815.898.946l7.1 1.935a23.862 23.862 0 0 0 1.962 4.82l-3.662 6.367c-.25.433-.335.936.037 1.308l5.437 5.437c.372.372.869.285 1.302.037l6.282-3.598a23.861 23.861 0 0 0 4.927 2.057l1.887 7c.13.481.425.897.951.897h7.69c.527 0 .816-.416.947-.898l1.908-7.005a23.862 23.862 0 0 0 4.863-2.046l6.351 3.651c.433.25.935.335 1.308-.037l5.437-5.437c.372-.372.285-.874.037-1.307l-3.683-6.426c.8-1.499 1.438-3.08 1.903-4.714l7.238-1.956c.483-.13.899-.42.899-.946v-7.69c0-.527-.417-.82-.899-.952l-7.36-1.998a23.861 23.861 0 0 0-1.877-4.454l3.837-6.665c.25-.432.335-.935-.037-1.307l-5.437-5.437c-.372-.372-.874-.285-1.307-.037l-6.681 3.826c-1.473-.604-3.014-1.35-4.39-1.796l-2.025-7.489c-.13-.482-.42-.898-.946-.898h-7.69zm3.808 19.698c6.264 0 11.343 5.078 11.343 11.343 0 6.264-5.079 11.343-11.343 11.343-6.265 0-11.344-5.079-11.344-11.343 0-6.265 5.079-11.343 11.344-11.343z" overflow="visible" fill="none" stroke="#000" stroke-width="1.981" stroke-opacity=".168" paint-order="fill markers stroke"/><path d="M76.197 48.99c-.526 0-.82.417-.951.899l-2.02 7.43c-1.379.492-3.19 1.18-4.411 1.818l-6.686-3.848c-.433-.249-.935-.335-1.308.038l-5.437 5.437c-.372.372-.285.868-.037 1.302l3.758 6.569a23.862 23.862 0 0 0-1.956 4.57l-7.26 1.956c-.482.13-.898.425-.898.952v7.69c0 .526.416.815.898.946l7.1 1.935a23.862 23.862 0 0 0 1.962 4.82l-3.662 6.367c-.25.433-.335.936.037 1.308l5.437 5.437c.372.372.869.285 1.302.037l6.282-3.598a23.861 23.861 0 0 0 4.927 2.057l1.887 7c.13.481.425.897.951.897h7.69c.527 0 .816-.416.947-.898l1.908-7.005a23.862 23.862 0 0 0 4.863-2.046l6.351 3.651c.433.25.935.335 1.308-.037l5.437-5.437c.372-.372.285-.874.037-1.307l-3.683-6.426c.8-1.499 1.438-3.08 1.903-4.714l7.238-1.956c.483-.13.899-.42.899-.946v-7.69c0-.527-.417-.82-.899-.952l-7.36-1.998a23.861 23.861 0 0 0-1.877-4.454l3.837-6.665c.25-.432.335-.935-.037-1.307l-5.437-5.437c-.372-.372-.874-.285-1.307-.037l-6.681 3.826c-1.473-.604-3.014-1.35-4.39-1.796l-2.025-7.489c-.13-.482-.42-.898-.946-.898h-7.69zm3.808 19.698c6.264 0 11.343 5.078 11.343 11.343 0 6.264-5.079 11.343-11.343 11.343-6.265 0-11.344-5.079-11.344-11.343 0-6.265 5.079-11.343 11.344-11.343z" style="isolation:auto;mix-blend-mode:normal;marker:none" overflow="visible" fill="url(#h)" stroke-width="1.29" stroke-opacity=".141" paint-order="fill markers stroke" transform="translate(-48 -48)"/><path d="M32.004 7.529C18.54 7.529 7.528 18.53 7.528 31.996c0 13.465 11.01 24.476 24.476 24.476s24.468-11.01 24.468-24.476S45.47 7.529 32.004 7.529zm0 5.19A19.188 19.188 0 0 1 51.28 31.996c0 10.714-8.561 19.285-19.275 19.285a19.205 19.205 0 0 1-19.286-19.285c0-10.714 8.572-19.275 19.286-19.275z" style="line-height:normal;text-indent:0;text-align:start;text-decoration-line:none;text-decoration-style:solid;text-decoration-color:#000;text-transform:none;isolation:auto;mix-blend-mode:normal;marker:none" font-weight="400" font-family="sans-serif" white-space="normal" overflow="visible" fill-opacity=".173" stroke-width="2.27" stroke-opacity=".141" paint-order="fill markers stroke"/><path style="line-height:normal;text-indent:0;text-align:start;text-decoration-line:none;text-decoration-style:solid;text-decoration-color:#000;text-transform:none;isolation:auto;mix-blend-mode:normal;marker:none" d="M80.004 56.27c-13.058 0-23.735 10.668-23.735 23.726s10.677 23.735 23.735 23.735 23.727-10.677 23.727-23.735-10.669-23.727-23.727-23.727zm0 5.033a18.607 18.607 0 0 1 18.692 18.692c0 10.39-8.302 18.702-18.691 18.702a18.624 18.624 0 0 1-18.702-18.702c0-10.39 8.312-18.692 18.702-18.692z" font-weight="400" font-family="sans-serif" white-space="normal" overflow="visible" fill="url(#i)" stroke-width="2.201" stroke-opacity=".141" paint-order="fill markers stroke" transform="translate(-48 -48)"/><path style="line-height:normal;text-indent:0;text-align:start;text-decoration-line:none;text-decoration-style:solid;text-decoration-color:#000;text-transform:none;isolation:auto;mix-blend-mode:normal;marker:none" d="M80.003 61.297c-10.29 0-18.706 8.409-18.706 18.7 0 10.29 8.415 18.706 18.706 18.706s18.7-8.415 18.7-18.706-8.409-18.7-18.7-18.7zm.002 4.72A13.95 13.95 0 0 1 94.019 80.03c0 7.79-6.225 14.021-14.014 14.021a13.964 13.964 0 0 1-14.022-14.021c0-7.79 6.232-14.014 14.022-14.014z" font-weight="400" font-family="sans-serif" white-space="normal" overflow="visible" fill="url(#j)" stroke-width="1.378" paint-order="fill markers stroke" transform="translate(-48 -48)"/><path d="M80.003 61.297c-10.29 0-18.706 8.409-18.706 18.7 0 10.29 8.415 18.706 18.706 18.706s18.7-8.415 18.7-18.706-8.409-18.7-18.7-18.7zm.002 4.72A13.95 13.95 0 0 1 94.019 80.03c0 7.79-6.225 14.021-14.014 14.021a13.964 13.964 0 0 1-14.022-14.021c0-7.79 6.232-14.014 14.022-14.014z" style="line-height:normal;text-indent:0;text-align:start;text-decoration-line:none;text-decoration-style:solid;text-decoration-color:#000;text-transform:none;isolation:auto;mix-blend-mode:normal;marker:none" font-weight="400" font-family="sans-serif" white-space="normal" overflow="visible" fill="url(#k)" stroke-width="1.735" stroke-opacity=".141" paint-order="fill markers stroke" transform="translate(-48 -48)"/><path d="M32.003 13.297c-10.291 0-18.706 8.41-18.706 18.7 0 .116.007.23.008.345.186-10.133 8.522-18.355 18.698-18.355 10.175 0 18.506 8.222 18.691 18.355.003-.115.008-.23.008-.345 0-10.29-8.408-18.7-18.7-18.7z" style="line-height:normal;text-indent:0;text-align:start;text-decoration-line:none;text-decoration-style:solid;text-decoration-color:#000;text-transform:none;isolation:auto;mix-blend-mode:normal;marker:none" font-weight="400" font-family="sans-serif" white-space="normal" overflow="visible" fill-opacity=".283" stroke-width="1.735" stroke-opacity=".141" paint-order="fill markers stroke"/><path d="M28.198.99c-.526 0-.82.416-.952.898l-2.02 7.431c-1.379.492-3.19 1.18-4.412 1.818L14.13 7.29c-.433-.249-.936-.334-1.308.038l-5.437 5.436c-.28.28-.3.63-.187.97a.85.85 0 0 1 .187-.28l5.437-5.437c.372-.372.875-.287 1.308-.038l6.685 3.848c1.221-.639 3.033-1.326 4.412-1.818l2.02-7.43c.131-.482.426-.898.952-.898h7.69c.527 0 .817.417.946.899l2.025 7.488c1.375.446 2.917 1.191 4.39 1.796l6.681-3.827c.433-.248.935-.334 1.307.038l5.437 5.437a.85.85 0 0 1 .189.283c.111-.34.09-.693-.189-.972l-5.437-5.437c-.372-.372-.874-.286-1.307-.038l-6.681 3.827c-1.473-.605-3.015-1.35-4.39-1.796L36.834 1.89c-.13-.483-.42-.9-.946-.9zM10.917 20.996a23.857 23.857 0 0 0-1.768 4.21l-7.26 1.957c-.483.13-.898.425-.898.951v.69c0-.527.415-.823.897-.952l7.261-1.956a23.86 23.86 0 0 1 1.956-4.57zm42.144.162l-.187.326a23.86 23.86 0 0 1 1.876 4.454l7.362 1.998c.482.131.897.426.897.952v-.69c0-.525-.415-.82-.897-.95l-7.362-2a23.854 23.854 0 0 0-1.69-4.09zm-42.296 22.67L7.288 49.87c-.19.33-.283.702-.15 1.025.037-.114.088-.228.15-.336l3.662-6.366c-.065-.121-.122-.246-.185-.368zm42.388 0c-.062.121-.12.246-.184.367l3.684 6.425c.062.108.113.221.15.335.132-.323.04-.693-.15-1.024z" style="isolation:auto;mix-blend-mode:normal;marker:none" overflow="visible" fill="#fff" fill-opacity=".675" stroke-width="1.29" stroke-opacity=".141" paint-order="fill markers stroke"/><path d="M32.004 18.918c-7.94 0-14.431 6.486-14.431 14.425 0 7.94 6.492 14.43 14.43 14.43 7.94 0 14.426-6.49 14.426-14.43 0-7.939-6.486-14.425-14.425-14.425zm-.002 5.93a8.49 8.49 0 0 1 8.528 8.528 8.493 8.493 0 0 1-8.528 8.533 8.497 8.497 0 0 1-8.533-8.533 8.493 8.493 0 0 1 8.533-8.528z" style="line-height:normal;text-indent:0;text-align:start;text-decoration-line:none;text-decoration-style:solid;text-decoration-color:#000;text-transform:none;isolation:auto;mix-blend-mode:normal;marker:none" font-weight="400" font-family="sans-serif" white-space="normal" overflow="visible" fill-opacity=".168" stroke-width="1.407" stroke-opacity=".141" paint-order="fill markers stroke"/><path style="line-height:normal;text-indent:0;text-align:start;text-decoration-line:none;text-decoration-style:solid;text-decoration-color:#000;text-transform:none;isolation:auto;mix-blend-mode:normal;marker:none" d="M32.044 17.647c-7.94 0-14.43 6.486-14.43 14.425 0 7.94 6.49 14.43 14.43 14.43 7.939 0 14.425-6.49 14.425-14.43 0-7.939-6.486-14.425-14.425-14.425zm0 5.865a8.49 8.49 0 0 1 8.528 8.528 8.493 8.493 0 0 1-8.528 8.532 8.497 8.497 0 0 1-8.532-8.532 8.493 8.493 0 0 1 8.532-8.528z" font-weight="400" font-family="sans-serif" white-space="normal" overflow="visible" fill="#b1c7d0" stroke-width="1.407" stroke-opacity=".141" paint-order="fill markers stroke"/><path d="M32.051 40.587a8.493 8.493 0 0 1-8.533-8.528c0-.116.013-.229.018-.344.18 4.576 3.892 7.746 8.515 7.746 4.624 0 8.33-3.17 8.51-7.746.005.115.018.228.018.344a8.489 8.489 0 0 1-8.528 8.528z" style="line-height:normal;text-indent:0;text-align:start;text-decoration-line:none;text-decoration-style:solid;text-decoration-color:#000;text-transform:none;isolation:auto;mix-blend-mode:normal;marker:none" font-weight="400" font-family="sans-serif" white-space="normal" overflow="visible" fill="#718085" stroke-width="1.407" stroke-opacity=".141" paint-order="fill markers stroke"/><path d="M32.043 17.647c-7.939 0-14.43 6.486-14.43 14.425 0 .11.006.218.008.327.176-7.788 6.593-14.096 14.422-14.096 7.83 0 14.241 6.308 14.417 14.096.003-.109.01-.217.01-.327 0-7.94-6.488-14.425-14.427-14.425zM23.53 32.385c-.005.115-.018.228-.018.344a8.497 8.497 0 0 0 8.533 8.532 8.492 8.492 0 0 0 8.528-8.532c0-.116-.013-.229-.017-.344a8.483 8.483 0 0 1-8.51 8.187 8.488 8.488 0 0 1-8.516-8.187z" style="line-height:normal;text-indent:0;text-align:start;text-decoration-line:none;text-decoration-style:solid;text-decoration-color:#000;text-transform:none;isolation:auto;mix-blend-mode:normal;marker:none" font-weight="400" font-family="sans-serif" white-space="normal" overflow="visible" fill="#fff" fill-opacity=".691" stroke-width="1.407" stroke-opacity=".141" paint-order="fill markers stroke"/><path style="isolation:auto;mix-blend-mode:normal;marker:none" display="block" overflow="visible" fill="url(#l)" stroke-width=".788" paint-order="fill markers stroke" d="M75.887 88.472h8.862v.705h-8.862z" transform="translate(-48 -48)"/><path style="isolation:auto;mix-blend-mode:normal;marker:none" display="block" overflow="visible" fill="url(#m)" stroke-width=".758" paint-order="fill markers stroke" d="M75.857 65.54h8.206v.705h-8.206z" transform="translate(-48 -48)"/></g></svg>