<svg xmlns="http://www.w3.org/2000/svg" xmlns:xlink="http://www.w3.org/1999/xlink" height="64" viewBox="0 0 64 64" width="64"><title>Template icons dark</title><defs><linearGradient id="b"><stop offset="0" stop-color="#212121"/><stop offset="1" stop-color="#282828"/></linearGradient><linearGradient id="a"><stop offset="0" stop-color="#8683ee"/><stop offset="1" stop-color="#1ed7b6"/></linearGradient><linearGradient xlink:href="#a" id="d" x1="4.376" y1="5.854" x2="42.128" y2="43.605" gradientUnits="userSpaceOnUse" gradientTransform="matrix(1.46836 0 0 1.46836 44.64 42.47)"/><linearGradient xlink:href="#a" id="c" x1="183.831" y1="182.717" x2="134.463" y2="144.519" gradientUnits="userSpaceOnUse" gradientTransform="translate(-30.243 -30.243) scale(.68902)"/></defs><g transform="translate(-48 -48)"><circle style="isolation:auto;mix-blend-mode:normal;marker:none" cx="80" cy="80" r="32" color="#000" display="block" overflow="visible" fill-opacity=".078" stroke-width="1.389"/><circle style="isolation:auto;mix-blend-mode:normal;marker:none" cx="80" cy="80" r="30.667" color="#000" overflow="visible" fill="#303030" stroke-width="1.709"/><circle r="30.667" cy="80" cx="80" style="isolation:auto;mix-blend-mode:normal;marker:none" color="#000" overflow="visible" opacity=".119" fill="url(#c)" stroke-width="1.709"/><path style="line-height:normal;font-variant-ligatures:normal;font-variant-position:normal;font-variant-caps:normal;font-variant-numeric:normal;font-variant-alternates:normal;font-feature-settings:normal;text-indent:0;text-align:start;text-decoration-line:none;text-decoration-style:solid;text-decoration-color:#000;text-transform:none;text-orientation:mixed;shape-padding:0;isolation:auto;mix-blend-mode:normal;marker:none" d="M80 49.333c-16.927 0-30.667 13.74-30.667 30.667S63.073 110.667 80 110.667 110.667 96.927 110.667 80 96.927 49.333 80 49.333zM80 51c16.026 0 29 12.974 29 29s-12.974 29-29 29-29-12.974-29-29 12.974-29 29-29z" color="#000" font-weight="400" font-family="sans-serif" white-space="normal" overflow="visible" fill="url(#d)" stroke-width="1.709"/><path d="M65.04 58.534l.035 8.273 9.002 8.202-9.022 8.224-.015 8.253 18.073-16.477zM97.044 69.18L78.971 86.456l18.073 17.274.024-8.214-9.06-9.06 9.053-9.054z" fill-opacity=".147" fill-rule="evenodd" stroke-width="4.805"/><path d="M97.045 67.584L78.97 84.859l18.074 17.274.023-8.214-9.06-9.06 9.054-9.054z" fill="#7f91e9" fill-rule="evenodd" stroke-width="8.511"/><path d="M63.707 58.27L81.78 74.744 63.707 91.221l.014-8.252 9.023-8.224-9.002-8.202z" fill="#25c9bb" fill-rule="evenodd" stroke-width="8.511"/><path d="M80 51c-16.007 0-29 12.993-29 29 0 16.007 12.993 29 29 29 16.007 0 29-12.993 29-29 0-16.007-12.993-29-29-29zm0 1.576c15.155 0 27.424 12.269 27.424 27.424S95.155 107.424 80 107.424 52.576 95.155 52.576 80 64.845 52.576 80 52.576z" style="line-height:normal;font-variant-ligatures:normal;font-variant-position:normal;font-variant-caps:normal;font-variant-numeric:normal;font-variant-alternates:normal;font-feature-settings:normal;text-indent:0;text-align:start;text-decoration-line:none;text-decoration-style:solid;text-decoration-color:#000;text-transform:none;text-orientation:mixed;shape-padding:0;isolation:auto;mix-blend-mode:normal;marker:none" color="#000" font-weight="400" font-family="sans-serif" white-space="normal" overflow="visible" fill-opacity=".179" stroke-width="1.616"/><path d="M101.046 76.516l-8.73 8.342 8.73 8.344.01-3.968-4.375-4.376 4.372-4.372zM105.224 80l-5.082 4.858 5.082 4.86.008-2.312-2.548-2.548 2.545-2.545z" fill="#7f91e9" fill-opacity=".118" fill-rule="evenodd" stroke-width="4.111"/><path d="M58.501 66.516l-.007 3.97 4.372 4.372-4.375 4.376.01 3.968 8.73-8.344zM54.323 70l-.005 2.313 2.547 2.545-2.549 2.548.007 2.311 5.083-4.859z" fill="#25c9bb" fill-opacity=".118" fill-rule="evenodd" stroke-width="4.111"/></g></svg>