<svg xmlns="http://www.w3.org/2000/svg" xmlns:xlink="http://www.w3.org/1999/xlink" height="64" viewBox="0 0 64 64" width="64"><title>Template icons dark</title><defs><linearGradient id="e"><stop offset="0" stop-color="#242a34"/><stop offset="1" stop-color="#443f4c"/></linearGradient><linearGradient id="d"><stop offset="0" stop-color="#b1e3f2"/><stop offset="1"/></linearGradient><linearGradient id="f"><stop offset="0" stop-color="#aea6b6"/><stop offset="1" stop-color="#e4e4e4"/></linearGradient><linearGradient id="c"><stop offset="0" stop-color="#2d3840"/><stop offset="1" stop-color="#5f5777"/></linearGradient><linearGradient id="b"><stop offset="0" stop-color="#e8c2ee"/><stop offset="1" stop-color="#98d1e8"/></linearGradient><linearGradient id="a"><stop offset="0" stop-color="#50b4ce"/><stop offset="1" stop-color="#df2fb9" stop-opacity=".974"/></linearGradient><linearGradient id="g"><stop offset="0" stop-color="#e8c2ee"/><stop offset="1" stop-color="#98d1e8"/></linearGradient><linearGradient xlink:href="#f" id="h" gradientUnits="userSpaceOnUse" gradientTransform="matrix(.64135 0 0 .64101 -22.382 -23.507)" x1="154.325" y1="239.481" x2="153.538" y2="177.822"/><linearGradient xlink:href="#f" id="i" gradientUnits="userSpaceOnUse" gradientTransform="matrix(.64135 0 0 .64101 -22.382 -23.507)" x1="151.033" y1="198.284" x2="151.033" y2="118.162"/><linearGradient xlink:href="#a" id="j" x1="120.752" y1="131.244" x2="191.98" y2="189.032" gradientUnits="userSpaceOnUse" gradientTransform="matrix(0 -.64614 .64614 0 -23.132 177.74)"/><linearGradient xlink:href="#c" id="k" x1="119.039" y1="133.562" x2="178.802" y2="193.325" gradientUnits="userSpaceOnUse" gradientTransform="matrix(0 -.6533 .6533 0 -24.276 178.82)"/><linearGradient xlink:href="#e" id="l" x1="159.097" y1="188.196" x2="159.097" y2="134.451" gradientUnits="userSpaceOnUse" gradientTransform="translate(-26.366 -27.53) scale(.66616)"/><linearGradient xlink:href="#d" id="m" x1="159.057" y1="187.825" x2="159.057" y2="132.319" gradientUnits="userSpaceOnUse" gradientTransform="translate(-26.424 -26.423) scale(.66616)"/><linearGradient xlink:href="#g" id="n" x1="151" y1="147" x2="151" y2="171.95" gradientUnits="userSpaceOnUse" gradientTransform="matrix(.3842 0 0 .3842 21.914 18.021)"/></defs><g color="#000"><path style="isolation:auto;mix-blend-mode:normal;marker:none" d="M22.18 62.98C14.648 49.939 7.725 37.387.195 24.344c5.996-10.385 4.622-7.84 9.326-15.987H54.79c4.504 7.801 4.122 6.92 9.358 15.987-7.586 13.14-14.398 25.499-21.984 38.638z" overflow="visible" fill="#000808" fill-opacity=".147" stroke-width=".351" stroke-opacity="0"/><path d="M70.845 110.315c-7.304-12.651-14.69-25.32-21.993-37.972 5.816-10.073 4.773-7.418 9.336-15.321h43.967c4.369 7.567 4.248 6.526 9.326 15.321-7.357 12.745-14.625 25.228-21.983 37.972z" style="isolation:auto;mix-blend-mode:normal;marker:none" overflow="visible" fill="url(#h)" stroke="url(#linearGradient1010)" stroke-width=".754" transform="translate(-48 -48)"/><path style="isolation:auto;mix-blend-mode:normal;marker:none" d="M71.512 109.648c-7.138-12.362-14.846-24.942-21.984-37.305 5.684-9.843 4.868-6.932 9.327-14.655h42.634c4.269 7.394 4.364 6.06 9.326 14.655-7.19 12.454-14.793 24.852-21.983 37.305z" overflow="visible" fill="url(#i)" stroke="url(#linearGradient1010)" stroke-width=".754" transform="translate(-48 -48)"/><path d="M42.213 1.079c7.53 13.043 14.453 25.594 21.983 38.637-5.996 10.386-4.622 7.84-9.326 15.988H9.602C5.098 47.903 5.48 48.784.244 39.716 7.83 26.577 14.642 14.218 22.228 1.08z" style="isolation:auto;mix-blend-mode:normal;marker:none" overflow="visible" fill="#000808" fill-opacity=".147" stroke-width=".351" stroke-opacity="0"/><path style="isolation:auto;mix-blend-mode:normal;marker:none" d="M89.546 49.745c7.305 12.651 14.69 25.32 21.994 37.971-5.816 10.074-4.773 7.419-9.336 15.322H58.237c-4.369-7.567-4.248-6.526-9.326-15.322 7.357-12.744 14.625-25.227 21.983-37.97z" overflow="visible" fill="url(#j)" stroke-width=".34" stroke-opacity="0" transform="translate(-48 -48)"/><path d="M88.88 50.411c7.138 12.362 14.846 24.943 21.984 37.305-5.684 9.844-4.868 6.933-9.327 14.656H58.903c-4.27-7.394-4.364-6.06-9.326-14.656 7.19-12.453 14.793-24.852 21.983-37.305z" style="isolation:auto;mix-blend-mode:normal;marker:none" overflow="visible" fill="url(#k)" stroke-width=".332" stroke-opacity="0" transform="translate(-48 -48)"/><path style="isolation:auto;mix-blend-mode:normal;marker:none" d="M98.398 80.242a18.492 18.492 0 0 1-18.493 18.492 18.492 18.492 0 0 1-18.492-18.492A18.492 18.492 0 0 1 79.905 61.75a18.492 18.492 0 0 1 18.493 18.492z" overflow="visible" fill="url(#l)" stroke-width=".69" transform="translate(-48 -48)"/><path style="line-height:normal;font-variant-ligatures:normal;font-variant-position:normal;font-variant-caps:normal;font-variant-numeric:normal;font-variant-alternates:normal;font-feature-settings:normal;text-indent:0;text-align:start;text-decoration-line:none;text-decoration-style:solid;text-decoration-color:#000;text-transform:none;text-orientation:mixed;shape-padding:0;isolation:auto;mix-blend-mode:normal;marker:none" d="M79.905 61.227c-10.495 0-19.014 8.52-19.014 19.014 0 10.496 8.519 19.015 19.014 19.015 10.496 0 19.015-8.52 19.015-19.015 0-10.495-8.52-19.014-19.015-19.014zm0 1c9.956 0 18.015 8.06 18.015 18.014 0 9.956-8.06 18.015-18.015 18.015S61.89 90.196 61.89 80.241s8.06-18.015 18.015-18.015z" font-weight="400" font-family="sans-serif" white-space="normal" display="block" overflow="visible" opacity=".996" fill="url(#m)" stroke-width=".999" transform="translate(-48 -48)"/><path d="M41.462 31.978l-7.227 4.172-7.227 4.173v-16.69l7.227 4.172z" style="isolation:auto;mix-blend-mode:normal;marker:none" overflow="visible" fill-opacity=".288" stroke-width=".192" stroke-opacity="0"/><path style="isolation:auto;mix-blend-mode:normal;marker:none" d="M89.462 79.164l-7.227 4.172-7.227 4.173v-16.69l7.227 4.173z" overflow="visible" fill="url(#n)" stroke-width=".192" stroke-opacity="0" transform="translate(-48 -48)"/><path style="isolation:auto;mix-blend-mode:normal;marker:none" d="M27.008 22.819v16.69l7.227-4.173 7.227-4.172-.474-.273-6.37 3.677-7.226 4.172V23.041z" overflow="visible" fill="#feeaeb" stroke-width=".192" stroke-opacity="0"/></g></svg>