<svg xmlns="http://www.w3.org/2000/svg" xmlns:xlink="http://www.w3.org/1999/xlink" height="64" viewBox="0 0 64 64" width="64"><title>Template icons dark</title><defs><linearGradient id="c"><stop offset="0" stop-color="#8e8eb4"/><stop offset="1" stop-color="#fdfdfe"/></linearGradient><linearGradient id="b"><stop offset="0" stop-color="#9d9eb3"/><stop offset="1" stop-color="#bcbcbc"/></linearGradient><linearGradient id="a"><stop offset="0" stop-color="#530559"/><stop offset="1" stop-color="#8108f2"/></linearGradient><linearGradient xlink:href="#a" id="f" x1="-252.036" y1="73.11" x2="-193.17" y2="102.89" gradientUnits="userSpaceOnUse" gradientTransform="matrix(-.27004 -.6121 .53379 -.40331 -27.759 -27.078)"/><linearGradient gradientTransform="translate(-27.178 -27.078) scale(.66902)" xlink:href="#c" id="e" x1="160.004" y1="206.598" x2="160.004" y2="197.991" gradientUnits="userSpaceOnUse"/><linearGradient gradientTransform="translate(-27.178 -27.078) scale(.66902)" xlink:href="#b" id="d" x1="160.098" y1="193.342" x2="160.098" y2="197.786" gradientUnits="userSpaceOnUse"/></defs><path style="isolation:auto;mix-blend-mode:normal;marker:none" d="M22.487 53.413l-5.463 3.803-4.915 6.772 38.874.057-4.03-6.761-6.333-3.829z" color="#000" fill-opacity=".184" fill-rule="evenodd" stroke-width=".573" stroke-linejoin="round"/><path style="isolation:auto;mix-blend-mode:normal;marker:none" d="M66.09 105.328l27.732.064-5.868-3.3-16.802-.039z" color="#000" fill="url(#d)" fill-rule="evenodd" stroke-width=".531" stroke-linejoin="round" transform="translate(-48 -48)"/><path style="isolation:auto;mix-blend-mode:normal;marker:none" d="M61.536 111.397l4.554-6.069 27.732.064 3.733 6.057z" color="#000" fill="url(#e)" fill-rule="evenodd" stroke-width=".531" stroke-linejoin="round" transform="translate(-48 -48)"/><path style="isolation:auto;mix-blend-mode:normal;marker:none" d="M1.844 16.453C9.775 5.965 20.579.057 31.854.044c11.276-.013 22.088 5.87 30.033 16.34L31.89 53.07z" color="#000" display="block" overflow="visible" fill-opacity=".195" stroke-width="1.952" stroke-linecap="square" stroke-opacity=".279"/><path style="isolation:auto;mix-blend-mode:normal;marker:none" d="M52.505 65.45a50.418 38.526 90 0 1 27.35-14.954 50.418 38.526 90 0 1 27.371 14.892l-27.337 35.526z" color="#000" display="block" overflow="visible" fill="url(#f)" stroke-width="1.779" stroke-linecap="square" stroke-opacity=".279" transform="translate(-48 -48)"/><path style="isolation:auto;mix-blend-mode:normal;marker:none" d="M31.855 2.496A38.526 50.418 0 0 0 4.505 17.45l.537.695a38.526 50.418 0 0 1 26.813-14.31 38.526 50.418 0 0 1 26.837 14.247l.534-.695a38.526 50.418 0 0 0-27.371-14.89z" color="#000" display="block" overflow="visible" fill="#fff" fill-opacity=".137" stroke-width="1.779" stroke-linecap="square" stroke-opacity=".279"/><path d="M29.746 13.86v10.384h.868v-1.437c.275.465.654.844 1.138 1.138a3.106 3.106 0 0 0 1.62.442c.493 0 .953-.1 1.38-.3a3.642 3.642 0 0 0 1.126-.825c.313-.351.557-.759.737-1.223a4.191 4.191 0 0 0 .029-2.886 3.806 3.806 0 0 0-.669-1.238 3.156 3.156 0 0 0-1.051-.883 2.911 2.911 0 0 0-1.395-.328c-.616 0-1.155.158-1.62.471a4.156 4.156 0 0 0-1.197 1.209V13.86zm-6.284.284l-4.226 10.1h1.068l1.295-3.157h4.537l1.309 3.157h1.052l-4.195-10.1zm.412 1.168l2.034 4.992H21.81zm17.852 1.392c-.55 0-1.053.1-1.508.3a3.583 3.583 0 0 0-1.935 2.034 4.06 4.06 0 0 0-.271 1.48c0 .531.091 1.027.271 1.492.19.465.451.877.783 1.237.332.351.725.632 1.18.84.456.2.954.3 1.495.3.35 0 .686-.048 1.008-.143.332-.085.632-.207.898-.368a3.35 3.35 0 0 0 .711-.586c.2-.227.35-.472.454-.737l-.951-.286c-.057.17-.158.331-.3.483-.142.152-.313.29-.512.414-.199.114-.417.203-.654.269a2.51 2.51 0 0 1-1.751-.129 2.959 2.959 0 0 1-.852-.64 3.093 3.093 0 0 1-.583-.966 3.258 3.258 0 0 1-.214-1.18c0-.427.067-.822.2-1.182.142-.36.331-.668.568-.924.247-.265.532-.474.855-.625a2.532 2.532 0 0 1 1.066-.229c.455 0 .867.11 1.237.328.38.21.674.502.883.88l.937-.297a3.014 3.014 0 0 0-1.18-1.28c-.522-.322-1.133-.485-1.835-.485zm-8.466.854c.39 0 .744.086 1.066.257.332.161.613.384.84.669.237.275.417.591.54.952.133.36.2.736.2 1.125 0 .38-.072.748-.214 1.109-.133.35-.322.667-.569.952a2.764 2.764 0 0 1-.868.668 2.503 2.503 0 0 1-1.109.243c-.246 0-.508-.048-.783-.143a3.322 3.322 0 0 1-.754-.383 2.833 2.833 0 0 1-.597-.569 1.669 1.669 0 0 1-.3-.725v-2.306c.114-.247.258-.48.428-.697.171-.228.365-.427.583-.597.218-.171.456-.303.712-.398a2.17 2.17 0 0 1 .825-.157z" style="line-height:1000%;-inkscape-font-specification:Raleway" font-weight="400" font-family="Raleway" letter-spacing="0" word-spacing="0" fill="#fefefd" fill-opacity=".995" stroke-width=".667"/><path d="M17.218 6.43v5.858h1.465V7.894h4.394V6.43zm23.436 0v1.464h4.394v4.394h1.465V6.43zM17.218 28.527v5.859h5.86V32.92h-4.395v-4.394zm27.83 0v4.394h-4.394v1.465h5.859v-5.859z" fill="#fefefe" fill-rule="evenodd" stroke-width=".366"/><path style="isolation:auto;mix-blend-mode:normal;marker:none" d="M10.207 19.373h43.317v5.858H10.207z" color="#000" display="block" overflow="visible" fill="#ff2e97" fill-opacity=".116" stroke-width=".165"/><path style="isolation:auto;mix-blend-mode:normal;marker:none" d="M8.204 19.373h47.323v2.929H8.204z" color="#000" display="block" overflow="visible" fill="#ff2e97" fill-opacity=".389" stroke-width=".122"/><path style="isolation:auto;mix-blend-mode:normal;marker:none" d="M6.946 19.373h49.84v.758H6.945z" color="#000" display="block" overflow="visible" fill="#ff2e97" stroke-width=".064"/></svg>