<svg xmlns="http://www.w3.org/2000/svg" xmlns:xlink="http://www.w3.org/1999/xlink" height="64" viewBox="0 0 64 64" width="64"><title>Template icons dark</title><defs><linearGradient id="h"><stop offset="0" stop-color="#53b679"/><stop offset="1" stop-color="#189189"/></linearGradient><linearGradient id="g"><stop offset="0" stop-color="#58c27e"/><stop offset=".194" stop-color="#d5db7e"/><stop offset=".681" stop-color="#fdb63d" stop-opacity=".989"/><stop offset="1" stop-color="#d66026"/></linearGradient><linearGradient id="f"><stop offset="0" stop-color="#18b378"/><stop offset="1" stop-color="#5bc981"/></linearGradient><linearGradient id="e"><stop offset="0" stop-color="#5ccb82"/><stop offset="1" stop-color="#479c6c"/></linearGradient><linearGradient id="d"><stop offset="0" stop-color="#097b8c"/><stop offset="1" stop-color="#27a787"/></linearGradient><linearGradient id="c"><stop offset="0" stop-color="#242d3c"/><stop offset="1" stop-color="#374160"/></linearGradient><linearGradient id="a"><stop offset="0" stop-color="#d78383"/><stop offset="1" stop-color="#fefefe"/></linearGradient><linearGradient id="b"><stop offset="0" stop-color="#2c2c2c"/><stop offset="1" stop-color="#4c4c4c"/></linearGradient><linearGradient gradientTransform="scale(.67052) rotate(-30 65.047 215.383)" xlink:href="#c" id="i" x1="127.52" y1="180.599" x2="204.29" y2="154.964" gradientUnits="userSpaceOnUse"/><linearGradient gradientTransform="scale(.67052) rotate(-30 65.047 215.383)" xlink:href="#h" id="j" x1="140.881" y1="187.394" x2="176.248" y2="126.137" gradientUnits="userSpaceOnUse"/><linearGradient xlink:href="#d" id="k" gradientUnits="userSpaceOnUse" gradientTransform="translate(-28.071 -27.758) scale(.67667)" x1="160.063" y1="176" x2="160.063" y2="196"/><linearGradient gradientTransform="translate(-28.082 -27.843) scale(.67667)" xlink:href="#f" id="l" x1="160.882" y1="204.887" x2="160.882" y2="180.705" gradientUnits="userSpaceOnUse"/><linearGradient xlink:href="#e" id="m" x1="160" y1="180" x2="160" y2="171.339" gradientUnits="userSpaceOnUse" gradientTransform="translate(-28.082 -27.272) scale(.67667)"/><linearGradient xlink:href="#g" id="n" x1="182.69" y1="179.28" x2="182.956" y2="140.009" gradientUnits="userSpaceOnUse" gradientTransform="matrix(.41573 0 0 .67667 21.543 -28.292)"/><linearGradient xlink:href="#g" id="o" gradientUnits="userSpaceOnUse" gradientTransform="matrix(.29761 0 0 .48441 18.989 4.97)" x1="182.69" y1="179.28" x2="182.956" y2="140.009"/></defs><g color="#000" stroke-linecap="square"><path style="isolation:auto;mix-blend-mode:normal;marker:none" d="M54.499 87.283c-1.484 0-2.164.736-2.678 1.546l-2.763 4.346a.484.484 0 0 0-.025.512c-.036.176-.034.354.025.536l2.763 8.47c.514 1.578 1.194 3.014 2.678 3.014h51.373c1.484 0 2.163-1.436 2.678-3.014l2.762-8.47c.06-.182.061-.361.025-.537a.483.483 0 0 0-.025-.511l-2.762-4.346c-.515-.81-1.194-1.546-2.678-1.546z" overflow="visible" fill-opacity=".1" stroke-width="1.228" filter="url(#filter5140)" transform="translate(-48 -48)"/><path style="isolation:auto;mix-blend-mode:normal;marker:none" d="M108.314 64.184v32.819H52.057V64.184l28.128-16.24z" overflow="visible" fill-opacity=".153" stroke-width="1.226" filter="url(#filter5140)" transform="translate(-48 -48)"/><path style="isolation:auto;mix-blend-mode:normal;marker:none" d="M106.57 65.19v30.98H53.8V65.19l26.385-15.233z" overflow="visible" fill="url(#i)" stroke="url(#j)" stroke-width="1.353" filter="url(#filter5140)" transform="translate(-48 -48)"/><path style="isolation:auto;mix-blend-mode:normal;marker:none" d="M54.679 91.336h51.013c1.474 0 4.771 1.335 4.277 2.813l-2.642 7.907c-.493 1.474-1.144 2.814-2.564 2.814H55.607c-1.42 0-2.07-1.34-2.563-2.814L50.4 94.15c-.494-1.478 2.804-2.813 4.278-2.813z" display="block" overflow="visible" fill="url(#k)" stroke-width="1.16" filter="url(#filter5140)" transform="translate(-48 -48)"/><path style="isolation:auto;mix-blend-mode:normal;marker:none" d="M50.458 93.76l-.057.088c-.494.758 1.255 1.443 2.814 1.443h53.94c1.56 0 3.308-.685 2.814-1.443l-.057-.087c-.398.489-1.623.853-2.756.853H53.215c-1.134 0-2.358-.364-2.757-.853z" display="block" overflow="visible" fill="#19b4b6" stroke-width=".831" filter="url(#filter5140)" transform="translate(-48 -48)"/><path d="M64.963 91.25h30.444c4.814 0 2.45 2.1 1.445 4.29l-5.538 12.058c-.98 2.136-1.804 4.29-4.044 4.29H73.1c-2.24 0-3.063-2.154-4.044-4.29L63.519 95.54c-1.006-2.19-3.37-4.29 1.444-4.29z" style="isolation:auto;mix-blend-mode:normal;marker:none" overflow="visible" fill-opacity=".253" stroke-width="1.227" filter="url(#filter5140)" transform="translate(-48 -48)"/><path style="isolation:auto;mix-blend-mode:normal;marker:none" d="M65.362 91.25h29.646c4.688 0 2.386 1.928 1.407 3.94l-5.393 11.069c-.955 1.962-1.756 3.939-3.938 3.939H73.286c-2.182 0-2.983-1.977-3.938-3.939l-5.392-11.07c-.98-2.01-3.282-3.938 1.406-3.938z" overflow="visible" fill="url(#l)" stroke-width="1.16" filter="url(#filter5140)" transform="translate(-48 -48)"/><path d="M53.214 94.614h53.942c1.559 0 3.307-.685 2.813-1.443l-2.642-4.057c-.493-.756-1.144-1.443-2.564-1.443H55.607c-1.42 0-2.07.687-2.563 1.443L50.4 93.17c-.494.758 1.255 1.443 2.813 1.443z" style="isolation:auto;mix-blend-mode:normal;marker:none" display="block" overflow="visible" fill="url(#m)" stroke-width=".831" filter="url(#filter5140)" transform="translate(-48 -48)"/><path d="M85.61 70.545l-7.508-.09 12.995-15.399 12.054 15.489h-5.779s-1.91 9.89-.405 15.104c1.504 5.213 3.22 7.238 3.22 7.238l-8.923.359s-3.917-2.47-5.065-8.04c-1.149-5.57-.588-14.661-.588-14.661z" style="isolation:auto;mix-blend-mode:normal;marker:none" overflow="visible" fill-opacity=".479" stroke-width="1.053" filter="url(#filter5140)" transform="translate(-48 -48)"/><path style="isolation:auto;mix-blend-mode:normal;marker:none" d="M86.935 69.696l-6.568-.09L91.14 56.23l10.055 13.466h-5.82s-.84 10.916.676 16.167c1.516 5.25 5.413 7.652 5.413 7.652H90.995s-3.034-2.94-4.19-8.55c-1.158-5.61.13-15.269.13-15.269z" overflow="visible" fill="url(#n)" stroke-width="1.061" filter="url(#filter5140)" transform="translate(-48 -48)"/><path style="isolation:auto;mix-blend-mode:normal;marker:none" d="M64.785 75.53l-5.355-.064 9.268-10.983 8.596 11.046h-4.12s-1.363 7.054-.29 10.772 2.296 5.162 2.296 5.162l-6.363.256s-2.794-1.761-3.613-5.733c-.819-3.973-.42-10.457-.42-10.457z" overflow="visible" fill-opacity=".479" stroke-width=".751" filter="url(#filter5140)" transform="translate(-48 -48)"/><path d="M65.802 75.117l-4.702-.064 7.712-9.576 7.198 9.64h-4.167s-.6 7.814.485 11.573c1.085 3.76 3.875 5.478 3.875 5.478h-7.495s-2.172-2.104-3-6.12c-.828-4.017.094-10.93.094-10.93z" style="isolation:auto;mix-blend-mode:normal;marker:none" display="block" overflow="visible" fill="url(#o)" stroke-width=".759" filter="url(#filter5140)" transform="translate(-48 -48)"/><path transform="rotate(-29.999 89.205 15.125) scale(.12718)" d="M205.438 160l-22.719 39.35h-45.438L114.56 160l22.72-39.35h45.438z" style="isolation:auto;mix-blend-mode:normal;marker:none" overflow="visible" fill-opacity=".237" stroke-width="2.018" filter="url(#filter5140)"/><path style="isolation:auto;mix-blend-mode:normal;marker:none" d="M80.185 96.298l-5.005 2.89v.677l5.005-2.89 5.005 2.89v-.676z" overflow="visible" fill-opacity=".237" stroke-width=".257" filter="url(#filter5140)" transform="translate(-48 -48)"/><path style="isolation:auto;mix-blend-mode:normal;marker:none" d="M75.18 104.967v.676l5.005 2.89 5.005-2.89v-.676l-5.005 2.89z" overflow="visible" fill="#f4f4f4" fill-opacity=".237" stroke-width=".257" filter="url(#filter5140)" transform="translate(-48 -48)"/></g></svg>