<svg xmlns="http://www.w3.org/2000/svg" xmlns:xlink="http://www.w3.org/1999/xlink" height="64" viewBox="0 0 64 64" width="64"><title>Template icons dark</title><defs><linearGradient id="i"><stop offset="0" stop-color="#078cd0" stop-opacity=".781"/><stop offset=".774" stop-color="#5946dd" stop-opacity=".584"/><stop offset="1" stop-color="#ca39f1" stop-opacity=".669"/></linearGradient><linearGradient id="h"><stop offset="0" stop-color="#078cd0" stop-opacity=".698"/><stop offset=".774" stop-color="#5946dd" stop-opacity=".443"/><stop offset="1" stop-color="#ca39f1" stop-opacity=".302"/></linearGradient><linearGradient id="b"><stop offset="0" stop-color="#d1f8fc" stop-opacity=".084"/><stop offset=".501" stop-color="#fff" stop-opacity=".039"/><stop offset="1" stop-color="#b6f3fa" stop-opacity=".096"/></linearGradient><linearGradient id="a"><stop offset="0" stop-color="#777"/><stop offset="1" stop-color="#595959"/></linearGradient><linearGradient id="g"><stop offset="0" stop-color="#fff" stop-opacity=".528"/><stop offset=".561" stop-color="#fff" stop-opacity=".522"/><stop offset="1" stop-color="#fff" stop-opacity="0"/></linearGradient><linearGradient id="e"><stop offset="0" stop-color="#fff" stop-opacity=".663"/><stop offset=".561" stop-color="#fff" stop-opacity=".522"/><stop offset="1" stop-color="#fff" stop-opacity="0"/></linearGradient><linearGradient id="f"><stop offset="0" stop-color="#fff"/><stop offset=".561" stop-color="#fff" stop-opacity=".522"/><stop offset="1" stop-color="#fff" stop-opacity="0"/></linearGradient><linearGradient id="d"><stop offset="0" stop-color="#4fb9ef" stop-opacity=".459"/><stop offset=".836" stop-color="#1f1cec" stop-opacity=".315"/><stop offset=".888" stop-color="#d039f1" stop-opacity=".376"/><stop offset="1" stop-color="#ca39f1" stop-opacity=".302"/></linearGradient><linearGradient id="c"><stop offset="0" stop-color="#393939"/><stop offset="1" stop-color="#181818"/></linearGradient><linearGradient xlink:href="#a" id="k" x1="158.033" y1="188.223" x2="158.033" y2="130.744" gradientUnits="userSpaceOnUse" gradientTransform="matrix(.87467 0 0 .87467 -59.872 -60.747)"/><linearGradient xlink:href="#b" id="l" x1="228.437" y1="20.042" x2="246.784" y2="1.62" gradientUnits="userSpaceOnUse" gradientTransform="scale(.87467) rotate(45.116 49.37 -117.117)"/><radialGradient xlink:href="#c" id="j" cx="160" cy="160" fx="160" fy="160" r="33" gradientUnits="userSpaceOnUse" gradientTransform="matrix(.87467 0 0 .87467 -59.872 -60.747)"/><radialGradient xlink:href="#d" id="m" cx="-226.274" cy=".459" fx="-226.274" fy=".459" r="15.999" gradientUnits="userSpaceOnUse" gradientTransform="matrix(1.00935 -1.00935 1.01066 1.01066 308.046 -149.547)"/><radialGradient xlink:href="#g" id="n" gradientUnits="userSpaceOnUse" gradientTransform="matrix(.4413 .03425 -.05447 .3201 18.316 23.384)" cx="160.02" cy="162.319" fx="160.02" fy="162.319" r="2.546"/><radialGradient xlink:href="#e" id="o" gradientUnits="userSpaceOnUse" gradientTransform="matrix(.67496 0 0 .5495 -28.071 -9.192)" cx="160.366" cy="156" fx="160.366" fy="156" r="2.546"/></defs><g color="#000" transform="translate(-48 -48)"><path style="isolation:auto;mix-blend-mode:normal;marker:none" d="M91.056 63.715l9.888-9.89a3.321 3.321 0 0 1 4.707 0 3.321 3.321 0 0 1 0 4.708l-9.888 9.889a3.321 3.321 0 0 1-4.707 0 3.321 3.321 0 0 1 0-4.707z" display="block" overflow="visible" fill="#fff" stroke-width=".324" stroke-linecap="round" stroke-linejoin="round" paint-order="stroke fill markers"/><path style="isolation:auto;mix-blend-mode:normal;marker:none" d="M110.03 80.074a29.956 29.956 0 0 1-29.955 29.956 29.956 29.956 0 0 1-29.956-29.956 29.956 29.956 0 0 1 29.956-29.956 29.956 29.956 0 0 1 29.956 29.956z" overflow="visible" fill-opacity=".23" stroke-width="1.586" paint-order="fill markers stroke"/><path style="isolation:auto;mix-blend-mode:normal;marker:none" d="M108.062 79.2a27.988 27.988 0 0 1-27.987 27.987A27.988 27.988 0 0 1 52.087 79.2a27.988 27.988 0 0 1 27.988-27.987 27.988 27.988 0 0 1 27.987 27.987z" overflow="visible" fill="url(#j)" stroke="#f2f2f2" stroke-width="1.752" paint-order="fill markers stroke"/><path style="line-height:normal;font-variant-ligatures:normal;font-variant-position:normal;font-variant-caps:normal;font-variant-numeric:normal;font-variant-alternates:normal;font-feature-settings:normal;text-indent:0;text-align:start;text-decoration-line:none;text-decoration-style:solid;text-decoration-color:#000;text-transform:none;text-orientation:mixed;shape-padding:0;isolation:auto;mix-blend-mode:normal;marker:none" d="M80.075 51.965c-15.025 0-27.235 12.21-27.235 27.234 0 15.025 12.21 27.235 27.235 27.235 15.024 0 27.234-12.21 27.234-27.235 0-15.024-12.21-27.234-27.234-27.234zm0 2.841c13.489 0 24.393 10.904 24.393 24.393 0 13.49-10.904 24.394-24.393 24.394-13.49 0-24.394-10.905-24.394-24.394 0-13.489 10.905-24.393 24.394-24.393z" font-weight="400" font-family="sans-serif" white-space="normal" overflow="visible" fill="url(#k)" stroke-width="2.841" paint-order="fill markers stroke"/><path style="line-height:normal;font-variant-ligatures:normal;font-variant-position:normal;font-variant-caps:normal;font-variant-numeric:normal;font-variant-alternates:normal;font-feature-settings:normal;text-indent:0;text-align:start;text-decoration-line:none;text-decoration-style:solid;text-decoration-color:#000;text-transform:none;text-orientation:mixed;shape-padding:0;isolation:auto;mix-blend-mode:normal;marker:none" d="M80.075 50.03c-16.096 0-29.17 13.073-29.17 29.17 0 16.095 13.074 29.17 29.17 29.17 16.096 0 29.17-13.075 29.17-29.17 0-16.097-13.074-29.17-29.17-29.17zm0 2.364c14.818 0 26.805 11.987 26.805 26.805 0 14.819-11.987 26.806-26.805 26.806-14.819 0-26.806-11.987-26.806-26.806 0-14.818 11.987-26.805 26.806-26.805z" font-weight="400" font-family="sans-serif" white-space="normal" overflow="visible" fill="#fff" stroke-width="2.364" paint-order="fill markers stroke"/><path style="isolation:auto;mix-blend-mode:normal;marker:none" d="M96.277 95.284a23.061 23.061 0 0 1-32.613-.067l16.34-16.273z" overflow="visible" fill="url(#l)" stroke-width="1.444" paint-order="fill markers stroke"/><path style="isolation:auto;mix-blend-mode:normal;marker:none" d="M63.918 63.095a22.88 22.88 0 0 1 32.356.066l-16.21 16.146z" overflow="visible" fill="url(#m)" stroke-width="1.433" paint-order="fill markers stroke"/><path style="isolation:auto;mix-blend-mode:normal;marker:none" d="M81.18 80.769a1.16.783 0 0 1-1.159.783 1.16.783 0 0 1-1.16-.783 1.16.783 0 0 1 1.16-.783 1.16.783 0 0 1 1.16.783z" overflow="visible" fill="url(#n)" stroke-width=".159" paint-order="fill markers stroke"/><path style="isolation:auto;mix-blend-mode:normal;marker:none" d="M81.887 76.529a1.718 1.399 0 0 1-1.718 1.399 1.718 1.399 0 0 1-1.718-1.4 1.718 1.399 0 0 1 1.718-1.398 1.718 1.399 0 0 1 1.718 1.399z" overflow="visible" fill="url(#o)" stroke-width=".135" paint-order="fill markers stroke"/><circle style="isolation:auto;mix-blend-mode:normal;marker:none" cx="80.075" cy="79.199" r="6.31" overflow="visible" fill="none" fill-opacity=".459" stroke="#8e8e8e" stroke-width="2.097" paint-order="fill markers stroke"/><circle r="7.434" cy="79.199" cx="80.075" style="isolation:auto;mix-blend-mode:normal;marker:none" overflow="visible" fill="#030303" fill-opacity=".459" stroke="#969696" stroke-width=".789" paint-order="fill markers stroke"/><circle style="isolation:auto;mix-blend-mode:normal;marker:none" cx="80.075" cy="79.199" r="20.585" overflow="visible" fill="none" fill-opacity=".459" stroke="#fff" stroke-width=".201" stroke-opacity=".237" paint-order="fill markers stroke"/><circle r="12.671" cy="79.199" cx="80.075" style="isolation:auto;mix-blend-mode:normal;marker:none" overflow="visible" fill="none" fill-opacity=".459" stroke="#fff" stroke-width=".087" stroke-opacity=".376" paint-order="fill markers stroke"/><g transform="matrix(1.05535 0 0 1.05535 -25.637 -89.166)"><circle r="1.953" cy="138.047" cx="121.953" style="isolation:auto;mix-blend-mode:normal;marker:none" overflow="visible" fill="#ea6565" paint-order="fill markers stroke"/><path d="M121.953 136.094a1.953 1.953 0 0 0-1.953 1.953 1.953 1.953 0 0 0 .008.152 1.953 1.953 0 0 1 1.945-1.8 1.953 1.953 0 0 1 1.946 1.8 1.953 1.953 0 0 0 .008-.152 1.953 1.953 0 0 0-1.954-1.953z" style="isolation:auto;mix-blend-mode:normal;marker:none" overflow="visible" fill-opacity=".506" paint-order="fill markers stroke"/></g></g></svg>