<svg xmlns:osb="http://www.openswatchbook.org/uri/2009/osb" xmlns="http://www.w3.org/2000/svg" xmlns:xlink="http://www.w3.org/1999/xlink" height="64" viewBox="0 0 64 64" width="64"><title>Template icons dark</title><defs><linearGradient id="a"><stop offset="0" stop-color="#665e8f"/><stop offset="1" stop-color="#343b41"/></linearGradient><linearGradient id="b"><stop offset="0" stop-color="#383d60"/><stop offset="1" stop-color="#242e42"/></linearGradient><linearGradient id="d"><stop offset="0" stop-opacity=".204"/><stop offset="1" stop-opacity="0"/></linearGradient><linearGradient id="e" osb:paint="solid"><stop offset="0" stop-color="#8ca1a8" stop-opacity=".424"/></linearGradient><linearGradient id="f" osb:paint="solid"><stop offset="0" stop-color="#ff4ca1"/></linearGradient><linearGradient id="c"><stop offset="0" stop-color="#dce1e8"/><stop offset="1" stop-color="#fff"/></linearGradient><linearGradient id="g"><stop offset="0" stop-color="#383d60"/><stop offset="1" stop-color="#242e42"/></linearGradient><linearGradient xlink:href="#c" id="o" gradientUnits="userSpaceOnUse" gradientTransform="translate(782.073 329.29) scale(1.22316)" x1="-578.647" y1="-204.784" x2="-578.647" y2="-214.622"/><linearGradient xlink:href="#d" id="n" gradientUnits="userSpaceOnUse" gradientTransform="matrix(.6412 0 0 .63463 -580.798 -161.673)" x1="1031.269" y1="365.654" x2="1031.269" y2="380.159"/><linearGradient xlink:href="#e" id="m" gradientUnits="userSpaceOnUse" gradientTransform="matrix(.61403 0 0 .61403 164.347 120.575)" x1="-49.096" y1="1041.18" x2="-9.096" y2="1041.18"/><linearGradient xlink:href="#c" id="l" gradientUnits="userSpaceOnUse" gradientTransform="translate(64.93 69.209) scale(1.22316)" x1="17.92" y1="19.84" x2="17.92" y2="11.307"/><linearGradient xlink:href="#d" id="k" gradientUnits="userSpaceOnUse" gradientTransform="matrix(.6412 0 0 .51062 -581.412 -100.704)" x1="1031.269" y1="365.654" x2="1031.269" y2="380.159"/><linearGradient xlink:href="#f" id="j" gradientUnits="userSpaceOnUse" gradientTransform="matrix(.49123 0 0 .49405 67.072 -426.308)"/><linearGradient xlink:href="#g" id="i" gradientUnits="userSpaceOnUse" x1="115.452" y1="160" x2="204.026" y2="160.174"/><linearGradient xlink:href="#a" id="h" gradientUnits="userSpaceOnUse" x1="99.818" y1="164.367" x2="220.995" y2="164.367"/></defs><g transform="translate(-48 -48)"><path style="isolation:auto;mix-blend-mode:normal;marker:none" d="M80 112.098l-27.712-16v-32l27.713-16 27.713 16v32z" color="#000" display="block" overflow="visible" fill-opacity=".018" stroke-width=".09"/><path style="isolation:auto;mix-blend-mode:normal;marker:none" d="M53.67 95.3v1.295L80 111.797l26.33-15.202V95.3L80 110.502z" color="#000" overflow="visible" fill="#131a20" fill-opacity=".092" stroke-width=".06"/><path style="isolation:auto;mix-blend-mode:normal;marker:none" d="M192.612 192.612l-44.549 11.936-32.611-32.611 11.936-44.549 44.549-11.936 32.611 32.611z" transform="scale(.65925) rotate(45 187.151 94.097)" color="#000" display="block" overflow="visible" fill="url(#h)" stroke-width=".068"/><path transform="rotate(45 87.366 76.95) scale(.5274)" d="M192.612 192.612l-44.549 11.936-32.611-32.611 11.936-44.549 44.549-11.936 32.611 32.611z" style="isolation:auto;mix-blend-mode:normal;marker:none" color="#000" display="block" overflow="visible" fill="url(#i)" stroke-width=".068"/><path style="isolation:auto;mix-blend-mode:normal;marker:none" d="M58.936 92.26V67.935L80 55.774l21.065 12.162z" color="#000" overflow="visible" fill="#fff" fill-opacity=".058" stroke-width=".036"/><path style="isolation:auto;mix-blend-mode:normal;marker:none" d="M80 55.774L58.936 67.936v3.238L80 59.01l21.065 12.163v-3.238z" color="#000" display="block" overflow="visible" fill-opacity=".466" stroke-width=".036"/><path style="isolation:auto;mix-blend-mode:normal;marker:none" d="M58.936 92.263v1.005L80 105.43l21.065-12.162v-1.005L80 104.425z" color="#000" display="block" overflow="visible" fill="#faf8fb" fill-opacity=".24" stroke-width=".036"/><path style="isolation:auto;mix-blend-mode:normal;marker:none" d="M80 49.693L53.67 64.895v.648L80 50.34l26.33 15.203v-.648z" color="#000" display="block" overflow="visible" fill="#fff" fill-opacity=".267" stroke-width=".045"/><path d="M72.48 82.933h16.2c2.804 0 5.062 2.335 5.062 5.235 0 2.9-2.258 5.235-5.062 5.235h-16.2c-2.805 0-5.063-2.335-5.063-5.235 0-2.9 2.258-5.235 5.063-5.235z" fill="#fff" fill-opacity=".189" stroke-width=".691"/><path d="M72.782 83.563h14.737a4.595 4.595 0 0 1 4.605 4.605 4.595 4.595 0 0 1-4.605 4.605H72.782a4.595 4.595 0 0 1-4.605-4.605 4.595 4.595 0 0 1 4.605-4.605z" fill="url(#j)" stroke-width=".554"/><path style="line-height:normal;font-variant-ligatures:normal;font-variant-position:normal;font-variant-caps:normal;font-variant-numeric:normal;font-variant-alternates:normal;font-feature-settings:normal;text-indent:0;text-align:start;text-decoration-line:none;text-decoration-style:solid;text-decoration-color:#000;text-transform:none;text-orientation:mixed;shape-padding:0;isolation:auto;mix-blend-mode:normal" d="M72.751 83.571a4.553 4.553 0 0 0-4.557 4.558v.07a4.554 4.554 0 0 0 4.557 4.559h14.828a4.554 4.554 0 0 0 4.557-4.559v-.07a4.553 4.553 0 0 0-4.557-4.558zm0 .614h14.828a3.927 3.927 0 0 1 3.943 3.944v.07a3.928 3.928 0 0 1-3.943 3.945H72.751a3.928 3.928 0 0 1-3.943-3.945v-.07a3.927 3.927 0 0 1 3.943-3.944z" color="#000" font-weight="400" font-family="sans-serif" white-space="normal" overflow="visible" fill="url(#k)" stroke-width=".551"/><path d="M93.966 88.782a7.061 7.061 0 0 1-7.061 7.061 7.061 7.061 0 0 1-7.062-7.06 7.061 7.061 0 0 1 7.062-7.062 7.061 7.061 0 0 1 7.061 7.061z" fill-opacity=".157" stroke-width=".294" stroke-miterlimit="4.6" stroke-opacity=".197"/><path d="M93.352 88.168a6.447 6.447 0 0 1-6.447 6.447 6.447 6.447 0 0 1-6.448-6.447 6.447 6.447 0 0 1 6.448-6.447 6.447 6.447 0 0 1 6.447 6.447z" fill="url(#l)" stroke-width=".256" stroke-miterlimit="4.6"/><path d="M73.396 68.462h14.737a4.595 4.595 0 0 1 4.605 4.605 4.595 4.595 0 0 1-4.605 4.606H73.396a4.595 4.595 0 0 1-4.605-4.606 4.595 4.595 0 0 1 4.605-4.605z" fill="url(#m)" stroke-width=".618"/><path style="line-height:normal;font-variant-ligatures:normal;font-variant-position:normal;font-variant-caps:normal;font-variant-numeric:normal;font-variant-alternates:normal;font-feature-settings:normal;text-indent:0;text-align:start;text-decoration-line:none;text-decoration-style:solid;text-decoration-color:#000;text-transform:none;text-orientation:mixed;shape-padding:0;isolation:auto;mix-blend-mode:normal" d="M73.365 68.47a4.553 4.553 0 0 0-4.557 4.558v.07a4.554 4.554 0 0 0 4.557 4.56h14.828a4.554 4.554 0 0 0 4.557-4.56v-.07a4.553 4.553 0 0 0-4.557-4.557zm0 .615h14.828a3.927 3.927 0 0 1 3.943 3.943v.07a3.928 3.928 0 0 1-3.943 3.945H73.365a3.928 3.928 0 0 1-3.943-3.944v-.071a3.927 3.927 0 0 1 3.943-3.943z" color="#000" font-weight="400" font-family="sans-serif" white-space="normal" overflow="visible" fill="url(#n)" stroke-width=".614"/><path d="M80.933 73.286a7.061 7.061 0 0 1-7.061 7.061 7.061 7.061 0 0 1-7.062-7.061 7.061 7.061 0 0 1 7.062-7.062 7.061 7.061 0 0 1 7.061 7.062z" fill-opacity=".157" stroke-width=".294" stroke-miterlimit="4.6" stroke-opacity=".197"/><path d="M80.458 73.067a6.447 6.447 0 0 1-6.448 6.448 6.447 6.447 0 0 1-6.447-6.448 6.447 6.447 0 0 1 6.447-6.447 6.447 6.447 0 0 1 6.448 6.447z" fill="url(#o)" stroke-width=".256" stroke-miterlimit="4.6"/><circle style="isolation:auto;mix-blend-mode:normal;marker:none" cx="103.65" cy="67.06" r="1.267" color="#000" display="block" overflow="visible" fill="#fdfeff" fill-opacity=".198" stroke-width=".323" stroke-linejoin="round"/><circle style="isolation:auto;mix-blend-mode:normal;marker:none" cx="56.288" cy="66.67" r="1.267" color="#000" display="block" overflow="visible" fill="#fdfeff" fill-opacity=".198" stroke-width=".323" stroke-linejoin="round"/><circle r="1.267" cy="94.087" cx="56.288" style="isolation:auto;mix-blend-mode:normal;marker:none" color="#000" display="block" overflow="visible" fill="#fdfeff" fill-opacity=".198" stroke-width=".323" stroke-linejoin="round"/><circle style="isolation:auto;mix-blend-mode:normal;marker:none" cx="80.066" cy="107.665" r="1.267" color="#000" overflow="visible" fill="#fdfeff" fill-opacity=".198" stroke-width=".323" stroke-linejoin="round"/><circle r="1.267" cy="94.152" cx="103.26" style="isolation:auto;mix-blend-mode:normal;marker:none" color="#000" display="block" overflow="visible" fill="#fdfeff" fill-opacity=".198" stroke-width=".323" stroke-linejoin="round"/><circle r="1.267" cy="53.221" cx="80.001" style="isolation:auto;mix-blend-mode:normal;marker:none" color="#000" display="block" overflow="visible" fill="#fdfeff" fill-opacity=".198" stroke-width=".323" stroke-linejoin="round"/><circle r="6.154" cy="88.168" cx="86.905" fill="none" stroke="#fff" stroke-width=".586" stroke-miterlimit="4.6" stroke-opacity=".237"/><circle r="6.154" cy="73.067" cx="74.01" fill="none" stroke="#fff" stroke-width=".586" stroke-miterlimit="4.6" stroke-opacity=".237"/></g></svg>