<svg xmlns="http://www.w3.org/2000/svg" xmlns:xlink="http://www.w3.org/1999/xlink" height="64" viewBox="0 0 64 64" width="64"><title>Template icons dark</title><defs><linearGradient id="d"><stop offset="0" stop-color="#fff" stop-opacity=".763"/><stop offset="1" stop-color="#fff" stop-opacity=".632"/></linearGradient><linearGradient id="c"><stop offset="0" stop-color="#fff"/><stop offset="1" stop-color="#fff" stop-opacity=".637"/></linearGradient><linearGradient id="b"><stop offset="0" stop-color="#ff053c"/><stop offset="1" stop-color="#0b31ff" stop-opacity=".974"/></linearGradient><linearGradient id="a"><stop offset="0" stop-color="#1ed760"/><stop offset="1" stop-color="#1ed760"/></linearGradient><linearGradient xlink:href="#a" id="e" x1="24.535" y1="7.996" x2="24.705" y2="38.25" gradientUnits="userSpaceOnUse" gradientTransform="matrix(1.46836 0 0 1.46836 44.64 42.47)"/><linearGradient xlink:href="#b" id="f" x1="122" y1="183" x2="196" y2="142" gradientUnits="userSpaceOnUse" gradientTransform="translate(-30.243 -30.243) scale(.68902)"/><linearGradient gradientTransform="matrix(.66667 0 0 .66667 -26.667 -26.667)" xlink:href="#c" id="h" x1="160.063" y1="147" x2="158.323" y2="181" gradientUnits="userSpaceOnUse"/><linearGradient gradientTransform="matrix(.66667 0 0 .66667 -26.667 -26.667)" xlink:href="#d" id="g" x1="172" y1="119" x2="148.724" y2="201.638" gradientUnits="userSpaceOnUse"/></defs><g color="#000" transform="translate(-48 -48)"><circle style="isolation:auto;mix-blend-mode:normal;marker:none" cx="80" cy="80" r="32" display="block" overflow="visible" fill-opacity=".078" stroke-width="1.389"/><circle style="isolation:auto;mix-blend-mode:normal;marker:none" cx="80" cy="80" r="30.667" overflow="visible" fill="url(#e)" stroke-width="1.709"/><circle r="30.667" cy="80" cx="80" style="isolation:auto;mix-blend-mode:normal;marker:none" overflow="visible" opacity=".109" fill="url(#f)" stroke-width="1.709"/><circle style="isolation:auto;mix-blend-mode:normal;marker:none" cx="80" cy="80" r="29.833" overflow="visible" fill="none" stroke="url(#g)" stroke-width="1.667"/><path style="line-height:normal;font-variant-ligatures:normal;font-variant-position:normal;font-variant-caps:normal;font-variant-numeric:normal;font-variant-alternates:normal;font-feature-settings:normal;text-indent:0;text-align:start;text-decoration-line:none;text-decoration-style:solid;text-decoration-color:#000;text-transform:none;text-orientation:mixed;shape-padding:0;isolation:auto;mix-blend-mode:normal" d="M76.457 65.736a57.338 57.338 0 0 0-14.7 1.911 2.832 2.832 0 1 0 1.46 5.471c11.144-2.971 24.485-2.2 35.385 3.545a2.832 2.832 0 1 0 2.64-5.01c-7.737-4.077-16.364-5.92-24.785-5.917zm-.333 10.412c-4.415-.018-8.721.568-12.561 1.638a2.438 2.438 0 1 0 1.308 4.697c8.949-2.494 21.505-1.823 29.98 3.492a2.438 2.438 0 1 0 2.592-4.13c-6.303-3.953-13.962-5.665-21.32-5.697zM76.667 86c-4.303-.065-8.432.571-12.23 1.415a1.888 1.888 0 1 0 .818 3.685c8.304-1.845 17.409-2.573 26.621 2.925a1.888 1.888 0 1 0 1.935-3.242C88.022 87.328 82.2 86.084 76.667 86z" font-weight="400" font-family="sans-serif" white-space="normal" overflow="visible" fill-opacity=".147" stroke-width="5.663"/><path d="M76.457 65.069a57.338 57.338 0 0 0-14.7 1.911 2.832 2.832 0 1 0 1.46 5.472c11.144-2.972 24.485-2.2 35.385 3.544a2.832 2.832 0 1 0 2.64-5.009c-7.737-4.078-16.364-5.92-24.785-5.918zm-.333 10.413c-4.415-.019-8.721.568-12.561 1.638a2.438 2.438 0 1 0 1.308 4.696c8.949-2.493 21.505-1.822 29.98 3.493a2.438 2.438 0 1 0 2.592-4.13c-6.303-3.953-13.962-5.666-21.32-5.697zm.543 9.851c-4.303-.065-8.432.571-12.23 1.416a1.888 1.888 0 1 0 .818 3.685c8.304-1.846 17.409-2.574 26.621 2.924a1.888 1.888 0 1 0 1.935-3.242c-5.789-3.455-11.612-4.699-17.144-4.783z" style="line-height:normal;font-variant-ligatures:normal;font-variant-position:normal;font-variant-caps:normal;font-variant-numeric:normal;font-variant-alternates:normal;font-feature-settings:normal;text-indent:0;text-align:start;text-decoration-line:none;text-decoration-style:solid;text-decoration-color:#000;text-transform:none;text-orientation:mixed;shape-padding:0;isolation:auto;mix-blend-mode:normal" font-weight="400" font-family="sans-serif" white-space="normal" overflow="visible" fill="url(#h)" stroke-width="5.663"/></g></svg>