<svg xmlns="http://www.w3.org/2000/svg" xmlns:xlink="http://www.w3.org/1999/xlink" height="64" viewBox="0 0 64 64" width="64"><title>Template icons dark</title><defs><linearGradient id="b"><stop offset="0" stop-color="#aed5f8"/><stop offset="1" stop-color="#f7cbff"/></linearGradient><linearGradient id="c"><stop offset="0" stop-color="#5a9fdb"/><stop offset="1" stop-color="#e47ff5"/></linearGradient><linearGradient id="a"><stop offset="0" stop-color="#1d273b"/><stop offset="1" stop-color="#342b38"/></linearGradient><linearGradient xlink:href="#a" id="d" gradientUnits="userSpaceOnUse" gradientTransform="matrix(1.39394 0 0 -1.39394 47.55 114.458)" x1="14.633" y1="41.796" x2="34.842" y2="6.78"/><linearGradient gradientTransform="matrix(.66667 0 0 .66667 -26.667 -26.667)" xlink:href="#c" id="e" x1="113" y1="160" x2="207" y2="160" gradientUnits="userSpaceOnUse"/><linearGradient xlink:href="#b" id="f" x1="112.037" y1="174.404" x2="175.498" y2="174.404" gradientUnits="userSpaceOnUse" gradientTransform="matrix(.75764 0 0 .75764 -29.596 -52.341)"/></defs><g color="#000"><path style="isolation:auto;mix-blend-mode:normal;marker:none" d="M32 0A32.001 32.001 0 0 0 0 32a32.001 32.001 0 0 0 32 32 32.001 32.001 0 0 0 32-32A32.001 32.001 0 0 0 32 0zm0 23.884A8.117 8.117 0 0 1 40.116 32 8.117 8.117 0 0 1 32 40.116 8.117 8.117 0 0 1 23.884 32 8.117 8.117 0 0 1 32 23.884z" overflow="visible" fill-opacity=".12" stroke-width="1.391"/><path style="isolation:auto;mix-blend-mode:normal;marker:none" d="M80 110.667c-16.937 0-30.667-13.73-30.667-30.667S63.063 49.333 80 49.333 110.667 63.063 110.667 80 96.937 110.667 80 110.667z" overflow="visible" fill="url(#d)" stroke="url(#e)" stroke-width="1.333" transform="translate(-48 -48)"/><path d="M43.873 9.814c-3.483-.186-6.654 1.39-8.8 3.712-.254.276-.495.561-.72.856l-19.82 26.02-11.712-6.65s.038 2.367.39 4.076c.44 2.128.989 4.097.989 4.097l6.908 3.73c-.776 2.475-.256 5.293 1.92 7.47 2.918 2.918 6.991 2.864 9.841.693l28.903-22.016c4.714-3.591 6.717-11.625.462-17.88-2.753-2.753-5.652-3.964-8.361-4.108zm.163 4.415a8.273 8.273 0 1 1-5.973 2.422h.002a8.273 8.273 0 0 1 5.97-2.422zm-.14 2.841a5.331 5.331 0 1 0-.001 10.663 5.331 5.331 0 0 0 0-10.663zm-24.091 24.7a4.78 4.78 0 1 1-3.45 8.16 4.78 4.78 0 0 1-1.27-2.295l3.45 1.718a3.12 3.12 0 0 0 2.633-5.651l-3.2-1.59a4.78 4.78 0 0 1 1.837-.341z" style="isolation:auto;mix-blend-mode:normal;marker:none" display="block" overflow="visible" fill-opacity=".319" stroke-width=".758"/><path style="isolation:auto;mix-blend-mode:normal;marker:none" d="M91.075 57.015c-3.483-.186-6.654 1.39-8.8 3.713-.255.275-.495.56-.72.855l-19.821 26.02-11.712-6.648s.039 2.366.391 4.075c.44 2.127.989 4.096.989 4.096l6.908 3.73c-.777 2.476-.256 5.294 1.92 7.47 2.918 2.918 6.99 2.864 9.84.693l28.904-22.016c4.713-3.59 6.717-11.625.461-17.88-2.752-2.752-5.651-3.963-8.36-4.108zm.163 4.416a8.273 8.273 0 1 1-5.973 2.422h.001a8.273 8.273 0 0 1 5.971-2.422zm-.14 2.841a5.331 5.331 0 1 0-.001 10.663 5.331 5.331 0 0 0 0-10.663zm-24.092 24.7a4.78 4.78 0 1 1-3.449 8.16 4.78 4.78 0 0 1-1.27-2.295l3.45 1.718a3.12 3.12 0 0 0 2.632-5.651l-3.199-1.591a4.78 4.78 0 0 1 1.836-.34z" display="block" overflow="visible" fill="url(#f)" stroke-width=".758" transform="translate(-48 -48)"/></g></svg>