<svg xmlns="http://www.w3.org/2000/svg" xmlns:xlink="http://www.w3.org/1999/xlink" height="64" viewBox="0 0 64 64" width="64"><title>Template icons dark</title><defs><linearGradient id="a"><stop offset="0" stop-color="#eadfec"/><stop offset="1" stop-color="#c0dde6"/></linearGradient><linearGradient id="b"><stop offset="0" stop-color="#3e4453"/><stop offset="1" stop-color="#222630"/></linearGradient><linearGradient id="c"><stop offset="0" stop-color="#abd6e5"/><stop offset="1" stop-color="#f7e2f7"/></linearGradient><linearGradient xlink:href="#a" id="g" gradientUnits="userSpaceOnUse" gradientTransform="matrix(1.55142 0 0 1.55142 45.006 42.159)" x1="17.302" y1="14.341" x2="30.113" y2="34.354"/><linearGradient xlink:href="#c" id="f" x1="36.062" y1="47.638" x2="13.188" y2="8.325" gradientUnits="userSpaceOnUse" gradientTransform="matrix(1.45772 0 0 1.45772 45.015 40.35)"/><linearGradient xlink:href="#b" id="d" x1="24.535" y1="7.996" x2="24.766" y2="38.006" gradientUnits="userSpaceOnUse" gradientTransform="matrix(1.467 0 0 1.467 44.672 42.505)"/><linearGradient xlink:href="#c" id="e" gradientUnits="userSpaceOnUse" gradientTransform="matrix(1.45772 0 0 1.45772 45.015 40.35)" x1="36.062" y1="47.638" x2="13.188" y2="8.325"/></defs><g transform="translate(-48 -48)"><circle r="32" cy="80" cx="80" style="isolation:auto;mix-blend-mode:normal;marker:none" color="#000" display="block" overflow="visible" fill-opacity=".115" stroke-width="1.232"/><circle r="30.638" cy="80" cx="80" style="isolation:auto;mix-blend-mode:normal;marker:none" color="#000" overflow="visible" fill="url(#d)" stroke="url(#e)" stroke-width="1.362"/><circle style="isolation:auto;mix-blend-mode:normal;marker:none" cx="80" cy="80" r="30.638" color="#000" display="block" overflow="visible" fill="none" stroke="url(#f)" stroke-width="1.362"/><g opacity=".5" color="#000"><path style="isolation:auto;mix-blend-mode:normal;marker:none" display="block" overflow="visible" fill="#869eb6" stroke-width="2.12" d="M68 64h7.024v3H68z"/><path style="isolation:auto;mix-blend-mode:normal;marker:none" display="block" overflow="visible" fill="#8e9f81" stroke-width="1.981" d="M75.234 64.34h4.085v2.724h-4.085z"/><path style="isolation:auto;mix-blend-mode:normal;marker:none" display="block" overflow="visible" fill="#9e9e86" stroke-width="2.12" d="M68 69h7.024v3H68z"/><path style="isolation:auto;mix-blend-mode:normal;marker:none" display="block" overflow="visible" fill="#86b1d6" fill-opacity=".357" stroke-width="2.057" d="M76 69h4v3h-4z"/><path style="isolation:auto;mix-blend-mode:normal;marker:none" display="block" overflow="visible" fill="#88885e" fill-opacity=".495" stroke-width="2.057" d="M81 69h4v3h-4z"/><path style="isolation:auto;mix-blend-mode:normal;marker:none" display="block" overflow="visible" fill="#987f95" stroke-width="2.12" d="M68 74h7.024v3H68z"/><path style="isolation:auto;mix-blend-mode:normal;marker:none" display="block" overflow="visible" fill="#9d875f" fill-opacity=".687" stroke-width="2.3" d="M76 74h5v3h-5z"/><path style="isolation:auto;mix-blend-mode:normal;marker:none" display="block" overflow="visible" fill="#987f95" fill-opacity=".676" stroke-width="2.117" d="M68 84h7v3h-7z"/><path style="isolation:auto;mix-blend-mode:normal;marker:none" display="block" overflow="visible" fill="#68798d" fill-opacity=".764" stroke-width="2.684" d="M76 84h6.81v3H76z"/><path style="isolation:auto;mix-blend-mode:normal;marker:none" display="block" overflow="visible" fill="#606d78" stroke-width="2.117" d="M84 84h7v3h-7z"/><path style="isolation:auto;mix-blend-mode:normal;marker:none" display="block" overflow="visible" fill="#8f6094" stroke-width="2.056" d="M92 84h5v3h-5z"/><path style="isolation:auto;mix-blend-mode:normal;marker:none" display="block" overflow="visible" fill="#b36b75" stroke-width="2.12" d="M68 89h7.024v3H68z"/><path style="isolation:auto;mix-blend-mode:normal;marker:none" display="block" overflow="visible" fill="#b47f70" stroke-width="1.938" d="M76 89h4v2.663h-4z"/><path style="isolation:auto;mix-blend-mode:normal;marker:none" display="block" overflow="visible" fill="#53c290" stroke-width="2.263" d="M68 96h8v3h-8z"/><path style="isolation:auto;mix-blend-mode:normal;marker:none" display="block" overflow="visible" fill="#e675d2" stroke-width="2.3" d="M77 96h5v3h-5z"/><path style="isolation:auto;mix-blend-mode:normal;marker:none" display="block" overflow="visible" fill="#5e6974" stroke-width="2.057" d="M81 89h4v3h-4z"/><path style="isolation:auto;mix-blend-mode:normal;marker:none" display="block" overflow="visible" fill="#4d854d" stroke-width="2.016" d="M84.766 90.894h6.127v2.723h-6.127z"/><path style="isolation:auto;mix-blend-mode:normal;marker:none" display="block" overflow="visible" fill="#b36b75" stroke-width="2" d="M80 64.34h6.809v2.724h-6.81z"/><path style="isolation:auto;mix-blend-mode:normal;marker:none" display="block" overflow="visible" fill="#8f6094" stroke-width="1.912" d="M87.49 64.34h6.809v2.724h-6.81z"/><path style="isolation:auto;mix-blend-mode:normal;marker:none" display="block" overflow="visible" fill="#575f70" stroke-width="2.306" d="M62 64h3.001v3h-3zM62 69h3.001v3h-3zM62 74h3.001v3h-3zM62 79h3.001v3h-3zM62 84h3.001v3h-3zM62 89h3.001v3h-3zM62 96h3.001v3h-3z"/><path style="isolation:auto;mix-blend-mode:normal;marker:none" display="block" overflow="visible" fill="#9176e2" stroke-width="2.117" d="M68 59h7v3h-7z"/><path style="isolation:auto;mix-blend-mode:normal;marker:none" display="block" overflow="visible" fill="#57bdff" fill-opacity=".824" stroke-width="2.057" d="M76 59h4v3h-4z"/><path style="isolation:auto;mix-blend-mode:normal;marker:none" display="block" overflow="visible" fill="#575f70" stroke-width="2.306" d="M62 59h3.001v3h-3z"/></g><path d="M86.493 88.213q0-2.161-1.643-3.342-1.613-1.21-5.677-2.075-4.034-.865-6.426-2.075-2.363-1.21-3.516-2.882-1.123-1.671-1.123-3.977 0-3.832 3.227-6.484 3.256-2.65 8.3-2.65 5.302 0 8.587 2.737 3.314 2.737 3.314 7.002h-5.36q0-2.19-1.873-3.775-1.844-1.585-4.668-1.585-2.911 0-4.554 1.268-1.642 1.268-1.642 3.314 0 1.931 1.527 2.91 1.527.98 5.504 1.874 4.006.893 6.484 2.133 2.478 1.239 3.66 2.997 1.21 1.729 1.21 4.236 0 4.178-3.343 6.714-3.342 2.507-8.674 2.507-3.746 0-6.628-1.325-2.881-1.326-4.524-3.689-1.614-2.392-1.614-5.158h5.332q.144 2.68 2.132 4.265 2.017 1.556 5.302 1.556 3.026 0 4.842-1.21 1.844-1.24 1.844-3.286z" style="line-height:10;-inkscape-font-specification:Roboto" font-weight="400" font-size="83.863" font-family="Roboto" letter-spacing="0" word-spacing="0" fill-opacity=".489" stroke-width="2.868" stroke-opacity=".194"/><path style="line-height:10;-inkscape-font-specification:Roboto" d="M86.493 86.852q0-2.162-1.643-3.343-1.613-1.21-5.677-2.075-4.034-.865-6.426-2.075-2.363-1.21-3.516-2.882-1.123-1.671-1.123-3.976 0-3.833 3.227-6.484 3.256-2.651 8.3-2.651 5.302 0 8.587 2.737 3.314 2.738 3.314 7.003h-5.36q0-2.19-1.873-3.775-1.844-1.585-4.668-1.585-2.911 0-4.554 1.268-1.642 1.268-1.642 3.314 0 1.93 1.527 2.91 1.527.98 5.504 1.873 4.006.894 6.484 2.133 2.478 1.239 3.66 2.997 1.21 1.729 1.21 4.236 0 4.178-3.343 6.714Q85.14 95.7 79.807 95.7q-3.746 0-6.628-1.326-2.881-1.326-4.524-3.689-1.614-2.392-1.614-5.158h5.332q.144 2.68 2.132 4.265 2.017 1.556 5.302 1.556 3.026 0 4.842-1.21 1.844-1.24 1.844-3.285z" font-weight="400" font-size="83.863" font-family="Roboto" letter-spacing="0" word-spacing="0" fill="url(#g)" stroke-width="2.868" stroke-opacity=".194"/><path style="isolation:auto;mix-blend-mode:normal;marker:none" d="M80 50.001A29.999 29.999 0 0 0 50.001 80a29.999 29.999 0 0 0 .015.4A29.999 29.999 0 0 1 80 50.682a29.999 29.999 0 0 1 29.984 29.6 29.999 29.999 0 0 0 .015-.282A29.999 29.999 0 0 0 80 50.001z" color="#000" overflow="visible" fill-opacity=".236" stroke-width="1.333"/><path d="M80 109.962a29.999 29.999 0 0 1-29.999-29.998 29.999 29.999 0 0 1 .015-.4A29.999 29.999 0 0 0 80 109.28a29.999 29.999 0 0 0 29.984-29.6 29.999 29.999 0 0 1 .015.283A29.999 29.999 0 0 1 80 109.962z" style="isolation:auto;mix-blend-mode:normal;marker:none" color="#000" overflow="visible" fill="#fff" fill-opacity=".967" stroke-width="1.333"/></g></svg>