<svg xmlns="http://www.w3.org/2000/svg" xmlns:xlink="http://www.w3.org/1999/xlink" height="64" viewBox="0 0 64 64" width="64"><title>Template icons dark</title><defs><linearGradient id="j"><stop offset="0" stop-color="#0292e2"/><stop offset=".556" stop-color="#0283cb"/><stop offset=".59" stop-color="#0297e9"/><stop offset="1" stop-color="#41bafd"/></linearGradient><linearGradient id="c"><stop offset="0" stop-color="#fff" stop-opacity=".307"/><stop offset=".7" stop-color="#fff" stop-opacity=".214"/><stop offset="1" stop-color="#fff" stop-opacity=".188"/><stop offset="1" stop-color="#fff" stop-opacity="0"/></linearGradient><linearGradient id="h"><stop offset="0" stop-color="#fff" stop-opacity=".25"/><stop offset=".7" stop-color="#fff" stop-opacity=".214"/><stop offset="1" stop-color="#fff" stop-opacity=".188"/><stop offset="1" stop-color="#fff" stop-opacity="0"/></linearGradient><linearGradient id="i"><stop offset="0" stop-color="#fff" stop-opacity=".271"/><stop offset=".7" stop-color="#fff" stop-opacity=".214"/><stop offset="1" stop-color="#fff" stop-opacity=".188"/><stop offset="1" stop-color="#fff" stop-opacity="0"/></linearGradient><linearGradient id="f"><stop offset="0" stop-color="#0292e2"/><stop offset="1" stop-color="#029bf0"/></linearGradient><linearGradient id="e"><stop offset="0"/><stop offset="1" stop-opacity=".078"/></linearGradient><linearGradient id="d"><stop offset="0" stop-color="#00628a"/><stop offset=".632" stop-color="#00668f"/><stop offset="1" stop-color="#005172"/></linearGradient><linearGradient id="a"><stop offset="0" stop-color="#fff"/><stop offset=".134" stop-color="#e9f5fa"/><stop offset=".301" stop-color="#dff2fa"/><stop offset=".422" stop-color="#b5e2f4"/><stop offset="1" stop-color="#22affd"/></linearGradient><linearGradient id="b"><stop offset="0" stop-color="#fff" stop-opacity=".313"/><stop offset="1" stop-color="#fff" stop-opacity="0"/></linearGradient><linearGradient id="g"><stop offset="0" stop-color="#fff" stop-opacity=".313"/><stop offset=".7" stop-color="#fff" stop-opacity=".214"/><stop offset="1" stop-color="#fff" stop-opacity=".188"/><stop offset="1" stop-color="#fff" stop-opacity="0"/></linearGradient><linearGradient xlink:href="#a" id="o" x1="24" y1="38.535" x2="24" y2="1.669" gradientUnits="userSpaceOnUse" gradientTransform="matrix(1.29952 0 0 1.29952 48.812 51.06)"/><linearGradient gradientTransform="matrix(1.47165 0 0 1.47165 44.68 40.491)" xlink:href="#b" id="n" x1="24.75" y1="47.202" x2="24.75" y2="46.372" gradientUnits="userSpaceOnUse"/><linearGradient gradientTransform="matrix(1.47165 0 0 1.47165 44.68 40.491)" xlink:href="#h" id="m" x1="24.03" y1="40.729" x2="24.03" y2="31.155" gradientUnits="userSpaceOnUse"/><linearGradient gradientTransform="matrix(.70452 0 0 .70452 -32.724 -31.315)" xlink:href="#d" id="l" x1="165" y1="115" x2="165" y2="119.646" gradientUnits="userSpaceOnUse"/><linearGradient gradientTransform="matrix(.70452 0 0 .70452 -32.724 -31.315)" xlink:href="#f" id="k" x1="132.78" y1="129" x2="197" y2="194" gradientUnits="userSpaceOnUse"/><linearGradient xlink:href="#e" id="p" gradientUnits="userSpaceOnUse" x1="161" y1="124" x2="161" y2="126" gradientTransform="matrix(.70452 0 0 .70452 47.275 48.685)"/></defs><path d="M62 5v33l1 22c.064 1.408-1.591 3-3 3H4c-1.41 0-3.064-1.592-3-3l1-22V5l6-3 1-1h46l1 1z" fill="#030303" fill-opacity=".13" stroke-width=".374" stroke-opacity=".196"/><path d="M109 53v33l1 22c.053 1.16-.84 2-2 2H52c-1.16 0-2.053-.84-2-2l1-22V53z" fill="url(#k)" stroke-width=".375" stroke-opacity=".196" transform="translate(-48 -48)"/><path d="M57 50h46l1 1 5 2H51l5-2z" fill="url(#l)" stroke-width=".372" stroke-opacity=".196" transform="translate(-48 -48)"/><path d="M109 53v33l1 22c.053 1.16-.84 2-2 2H52c-1.16 0-2.053-.84-2-2l1-22V53z" fill="url(#m)" stroke-width=".375" stroke-opacity=".196" transform="translate(-48 -48)"/><path d="M109.785 103l.215 5c.05 1.16-.84 2-2 2H52c-1.16 0-1.968-.84-2-2l.087-5z" fill="url(#n)" stroke-width=".375" stroke-opacity=".196" transform="translate(-48 -48)"/><path d="M26 6v33H15l17 15 17-15H38V6z" fill-opacity=".307" stroke-width=".91" stroke-linecap="round" stroke-opacity=".771"/><path d="M74 53v33H63l17 15 17-15H86V53z" fill="url(#o)" stroke-width=".91" stroke-linecap="round" stroke-opacity=".771" transform="translate(-48 -48)"/><path style="line-height:normal;font-variant-ligatures:normal;font-variant-position:normal;font-variant-caps:normal;font-variant-numeric:normal;font-variant-alternates:normal;font-feature-settings:normal;text-indent:0;text-align:start;text-decoration-line:none;text-decoration-style:solid;text-decoration-color:#000;text-transform:none;text-orientation:mixed;shape-padding:0;isolation:auto;mix-blend-mode:normal" d="M9 2L8 3 3 5h58l-5-2-1-1zm0 1h46l1 1 5 1H4l4-1z" color="#000" font-weight="400" font-family="sans-serif" white-space="normal" overflow="visible" fill="#92e3fa" fill-opacity=".13" stroke-width=".705"/><path d="M148.338 136.166a2.652 2.652 0 0 0-2.651 2.652 2.652 2.652 0 0 0 2.651 2.652 2.652 2.652 0 0 0 2.653-2.652 2.652 2.652 0 0 0-2.653-2.652zm23.229 0a2.652 2.652 0 0 0-2.653 2.652 2.652 2.652 0 0 0 2.653 2.652 2.652 2.652 0 0 0 2.651-2.652 2.652 2.652 0 0 0-2.651-2.652z" fill="#2d2615" fill-opacity=".464" stroke="url(#p)" stroke-width=".423" transform="translate(-127.999 -128)"/><path d="M19.245 13.01s1.344 13.208 13.127 13.208c11.836 0 12.11-12.88 12.11-12.88-.833-.786-1.446-.71-2.157-.262 0 0-1.122 10.919-9.953 10.919-9.233 0-10.708-10.853-10.708-10.853-.69-1.118-1.87-.878-2.419-.131z" fill-opacity=".198" fill-rule="evenodd" stroke-width=".583" stroke-linecap="round" stroke-opacity=".333"/><path d="M19.245 10.897s1.344 13.207 13.127 13.207c11.836 0 12.11-12.88 12.11-12.88-.833-.785-1.446-.709-2.157-.261 0 0-1.122 10.918-9.953 10.918-9.233 0-10.708-10.853-10.708-10.853-.69-1.117-1.87-.878-2.419-.13z" fill="#fffffc" fill-rule="evenodd" stroke="#000" stroke-width=".583" stroke-linecap="round" stroke-opacity=".333"/><path d="M42.955 11.016l-.336.319.894 2.017.335-.32zM20.067 13.25l-.195.523 2.302.856.194-.523zm21.766 2.293l-.546.11.484 2.407.546-.11zM22.097 17.86l-.043.555 2.448.19.043-.555zm16.611 1.683l-.472 2.41.548.107.47-2.41zm-10.015 1.753l-2.392.548.123.543 2.395-.548zm5.653.707L32.3 23.361l.31.465 2.044-1.358z" opacity=".57" fill="#7c6555" fill-opacity=".974" stroke-width=".875" stroke-linecap="round" stroke-opacity=".729"/><path style="isolation:auto;mix-blend-mode:normal;marker:none" color="#000" overflow="visible" fill="#fff" fill-opacity=".182" stroke-width=".913" d="M3 5h58v1H3z"/></svg>