<svg xmlns="http://www.w3.org/2000/svg" xmlns:xlink="http://www.w3.org/1999/xlink" height="64" viewBox="0 0 64 64" width="64"><title>Template icons dark</title><defs><linearGradient id="d"><stop offset="0" stop-color="#443791"/><stop offset="1" stop-color="#915cb8"/></linearGradient><linearGradient id="c"><stop offset="0" stop-color="#fff"/><stop offset="1" stop-color="#d2d2d2"/></linearGradient><linearGradient id="b"><stop offset="0" stop-color="#5a41e2"/><stop offset="1" stop-color="#4c9ce0" stop-opacity=".945"/></linearGradient><linearGradient id="a"><stop offset="0" stop-color="#fffefe"/><stop offset="1" stop-color="#fff" stop-opacity=".855"/></linearGradient><linearGradient gradientTransform="rotate(-45 -48.35 20.094) scale(.67666)" xlink:href="#d" id="e" x1="12.131" y1="258.452" x2="12.131" y2="181.283" gradientUnits="userSpaceOnUse"/><linearGradient gradientTransform="translate(-28.37 -28.304) scale(.67666)" xlink:href="#c" id="f" x1="160.425" y1="131.905" x2="160.425" y2="202" gradientUnits="userSpaceOnUse"/></defs><path style="isolation:auto;mix-blend-mode:normal;marker:none" d="M2.29 29.133l26.76-26.76a4.016 4.016 0 0 1 5.692 0l26.76 26.76a4.016 4.016 0 0 1 0 5.692l-26.76 26.76a4.016 4.016 0 0 1-5.692 0L2.29 34.824a4.016 4.016 0 0 1 0-5.692z" color="#000" overflow="visible" fill="#040307" fill-opacity=".1" stroke-width=".255" stroke-opacity=".104" paint-order="fill markers stroke"/><path style="isolation:auto;mix-blend-mode:normal;marker:none" d="M51.43 77.242l25.73-25.73a3.862 3.862 0 0 1 5.473 0l25.73 25.73a3.862 3.862 0 0 1 0 5.473l-25.73 25.73a3.862 3.862 0 0 1-5.473 0l-25.73-25.73a3.862 3.862 0 0 1 0-5.473z" color="#000" overflow="visible" fill="url(#e)" stroke-width=".245" stroke-opacity=".104" paint-order="fill markers stroke" transform="translate(-48 -48)"/><path d="M24.594 7.906l-.677.677 6.912 6.912a4.593 4.593 0 0 1 4.728 1.103 4.561 4.561 0 0 1 1.286 2.577 4.58 4.58 0 0 0-1.286-3.93 4.593 4.593 0 0 0-4.728-1.104zm3.172 9.878a4.616 4.616 0 0 0-.008 1.397c.055-.377.148-.751.297-1.108zm9.115 2.449c-.032.38-.106.758-.231 1.123l6.663 6.661a4.597 4.597 0 0 1 6.052 3.673 4.597 4.597 0 0 0-6.052-5.026zm3.391 10.098c-.067.452-.07.91-.003 1.361.055-.367.143-.73.286-1.078zM2.185 31.3a3.864 3.864 0 0 0 1.072 3.417L29.16 60.618a3.87 3.87 0 0 0 5.473.001l25.903-25.903a3.863 3.863 0 0 0 1.07-3.413 3.845 3.845 0 0 1-1.07 2.06L34.633 59.266a3.87 3.87 0 0 1-5.473 0L3.257 33.362a3.848 3.848 0 0 1-1.072-2.064zm28.375 7.96a4.6 4.6 0 0 0-2.8 4.936 4.6 4.6 0 0 1 2.8-3.583zm3.786.134v1.354a4.578 4.578 0 0 1 2.511 3.45 4.592 4.592 0 0 0-2.511-4.804z" fill="#fff" fill-opacity=".668" stroke-width=".654"/><path style="line-height:normal;font-variant-ligatures:normal;font-variant-position:normal;font-variant-caps:normal;font-variant-numeric:normal;font-variant-alternates:normal;font-feature-settings:normal;text-indent:0;text-align:start;text-decoration-line:none;text-decoration-style:solid;text-decoration-color:#000;text-transform:none;text-orientation:mixed;shape-padding:0;isolation:auto;mix-blend-mode:normal" d="M30.742 15.87l.192-.066a4.264 4.264 0 0 1 4.391 1.026 4.269 4.269 0 0 1 1.017 4.419l-.068.193 6.952 6.952.193-.068a4.267 4.267 0 0 1 4.42 1.017 4.272 4.272 0 0 1 .002 6.049 4.274 4.274 0 0 1-6.052-.002 4.277 4.277 0 0 1-.931-4.652l.083-.2-6.927-6.927.005 17.34.182.089a4.273 4.273 0 0 1 1.133 6.86 4.273 4.273 0 0 1-6.05-.001 4.273 4.273 0 0 1 0-6.05 4.272 4.272 0 0 1 1.4-.935l.204-.083-.004-16.938-.204-.083a4.277 4.277 0 0 1-2.323-5.61l.084-.202-6.908-6.88-.424.483 6.586 6.574c-.631 1.744-.276 3.767 1.12 5.163h.002v.002c.417.418.908.703 1.412.94l.005 16.165c-.506.237-.998.526-1.413.941a4.936 4.936 0 0 0 .001 6.974 4.937 4.937 0 0 0 6.974.002 4.936 4.936 0 0 0-.001-6.974c-.337-.337-.725-.585-1.122-.804l-.004-15.394 5.528 5.527c-.619 1.738-.258 3.747 1.13 5.136a4.937 4.937 0 0 0 6.975.001h.002a4.936 4.936 0 0 0-.003-6.974c-1.32-1.322-3.202-1.708-4.877-1.214l-6.423-6.42c.495-1.676.108-3.557-1.213-4.879-1.313-1.313-3.178-1.703-4.846-1.222-2.313-2.206-6.72-6.711-6.72-6.711l-.44.447z" color="#000" font-weight="400" font-family="sans-serif" white-space="normal" overflow="visible" fill-opacity="0" stroke="#000" stroke-width=".924" stroke-opacity=".142"/><path d="M108.536 77.241l-25.902-25.9a3.871 3.871 0 0 0-5.474-.001l-5.242 5.243 6.912 6.912a4.599 4.599 0 0 1 5.82 5.86l6.663 6.663a4.604 4.604 0 1 1-1.755 7.604 4.607 4.607 0 0 1-1.002-5.008L82.342 72.4l.004 16.346a4.605 4.605 0 0 1 1.219 7.384 4.605 4.605 0 1 1-5.004-7.519l-.005-16.499a4.606 4.606 0 0 1-2.501-6.04L69.24 59.26 51.256 77.243a3.871 3.871 0 0 0 .001 5.474l25.903 25.901a3.87 3.87 0 0 0 5.473.002l25.903-25.903a3.873 3.873 0 0 0 0-5.475z" fill="url(#f)" stroke-width=".654" transform="translate(-48 -48)"/><path style="isolation:auto;mix-blend-mode:normal;marker:none" d="M32.237 18.344a1.511 1.511 0 0 0-1.512 1.512 1.511 1.511 0 0 0 1.512 1.51 1.511 1.511 0 0 0 1.51-1.51 1.511 1.511 0 0 0-1.51-1.512zm12.708 12.571a1.511 1.511 0 0 0-1.512 1.512 1.511 1.511 0 0 0 1.512 1.51 1.511 1.511 0 0 0 1.51-1.51 1.511 1.511 0 0 0-1.51-1.512zM32.1 43.143a1.511 1.511 0 0 0-1.512 1.512 1.511 1.511 0 0 0 1.512 1.51 1.511 1.511 0 0 0 1.51-1.51 1.511 1.511 0 0 0-1.51-1.512z" color="#000" overflow="visible" fill="#fff" fill-opacity=".363" stroke-width=".551" stroke-opacity=".142"/></svg>