<svg xmlns:osb="http://www.openswatchbook.org/uri/2009/osb" xmlns="http://www.w3.org/2000/svg" xmlns:xlink="http://www.w3.org/1999/xlink" height="64" viewBox="0 0 64 64" width="64"><title>Template icons dark</title><defs><linearGradient id="i" osb:paint="solid"><stop offset="0"/></linearGradient><linearGradient id="g" osb:paint="solid"><stop offset="0" stop-color="#fff" stop-opacity=".079"/></linearGradient><linearGradient id="f" osb:paint="solid"><stop offset="0" stop-color="#c0aa8a"/></linearGradient><linearGradient id="c" osb:paint="solid"><stop offset="0" stop-opacity=".079"/></linearGradient><linearGradient id="e"><stop offset="0" stop-color="#e5d3b9" stop-opacity=".449"/><stop offset="1" stop-color="#e5d3b9" stop-opacity=".876"/></linearGradient><linearGradient id="a"><stop offset="0" stop-color="#e5d3b9"/><stop offset="1" stop-color="#e5d3b9"/></linearGradient><linearGradient id="b" osb:paint="solid"><stop offset="0" stop-color="#c0aa8a"/></linearGradient><linearGradient id="d"><stop offset="0" stop-opacity="0"/><stop offset=".25" stop-opacity=".091"/><stop offset="1" stop-opacity="0"/></linearGradient><linearGradient xlink:href="#c" id="j" gradientUnits="userSpaceOnUse" gradientTransform="matrix(1.01967 0 0 1.03029 -57.938 -69.829)" x1="64.666" y1="133.777" x2="88.203" y2="133.777"/><linearGradient gradientTransform="matrix(.66667 0 0 .66667 -26.674 -26.667)" xlink:href="#b" id="k" x1="116" y1="160" x2="204" y2="160" gradientUnits="userSpaceOnUse"/><linearGradient xlink:href="#d" id="l" gradientUnits="userSpaceOnUse" x1="13" y1="17" x2="13" y2="11" gradientTransform="matrix(1.3232 0 0 1.32502 47.799 46.216)"/><linearGradient xlink:href="#a" id="m" gradientUnits="userSpaceOnUse" x1="87.674" y1="59" x2="87.674" y2="106" gradientTransform="translate(.326)"/><linearGradient xlink:href="#g" id="n" x1="2" y1="12.617" x2="46" y2="12.617" gradientUnits="userSpaceOnUse"/><linearGradient id="h" osb:paint="solid"><stop offset="0" stop-color="#fff"/></linearGradient></defs><path style="marker:none" d="M53 52c-2 0-3 1-3 3l-.007 49c0 2 1.007 3 3.007 3h54c2 0 3-1 3-3V61c0-2-1-3-3-3H83l-8-6z" fill="url(#j)" stroke-width=".205" paint-order="fill markers stroke" transform="translate(-48 -48)"/><path d="M54 53c-2 0-3 1-3 3v47c0 2 1 3 3 3h52c2 0 3-1 3-3V62c0-1.333-1.667-3-3-3H83l-8-6z" fill="url(#k)" stroke-width=".116" transform="translate(-48 -48)"/><path d="M54 53c-2 0-3 1-3 3v47c0 2 1 3 3 3h52c2 0 3-1 3-3V62c0-1.333-1.667-3-3-3H83l-8-6z" fill="url(#l)" stroke-width=".116" transform="translate(-48 -48)"/><path style="marker:none" d="M106 59c1.333 0 3 1.66 3 3v41c0 2-1 3-3 3H54c-2 0-3-1-3-3V69c0-1.333 1.667-3 3-3h21l8-7z" fill="url(#m)" stroke-width="1.205" paint-order="fill markers stroke" transform="translate(-48 -48)"/><path d="M54 53c-2 0-3 1-3 3.183C51 54 52 54 54 54h21l7 5h1l-8-6zM83 59l-8 7H54c-1.333 0-3 1.667-3 3 0-1.333 1.667-2 3-2h21.024L83 60h23c1.333 0 3 .667 3 2 0-1.333-1.667-3-3-3z" fill="url(#n)" stroke-width=".4" transform="translate(-48 -48)"/><path d="M8 8h17s2 0 2 2-2 2-2 2l-17 .032S6 12 6 10s2-2 2-2z" style="isolation:auto;mix-blend-mode:normal;marker:none" color="#000" display="block" overflow="visible" fill-opacity=".078" stroke-width=".119" paint-order="fill markers stroke"/><path d="M8 8s-2 0-2 2c0-1 2-1.5 2-1.5h17s2 .5 2 1.5c0-2-2-2-2-2z" style="isolation:auto;mix-blend-mode:normal;marker:none" color="#000" display="block" overflow="visible" fill-opacity=".157" stroke-width=".107" paint-order="fill markers stroke"/><path style="isolation:auto;mix-blend-mode:normal;marker:none" d="M73 60s2.012 0 2-2c0 1-2 1.5-2 1.5H56s-2-.5-2-1.5c0 2 2 2.031 2 2.031z" color="#000" display="block" overflow="visible" opacity=".689" fill="url(#n)" stroke-width=".4" paint-order="fill markers stroke" transform="translate(-48 -48)"/></svg>