<svg xmlns="http://www.w3.org/2000/svg" xmlns:xlink="http://www.w3.org/1999/xlink" height="64" viewBox="0 0 64 64" width="64"><title>Template icons dark</title><defs><linearGradient id="d"><stop offset="0" stop-color="#4e98d9"/><stop offset="1" stop-color="#ce18ec"/></linearGradient><linearGradient id="c"><stop offset="0" stop-color="#3489d3"/><stop offset="1" stop-color="#dd5ff2"/></linearGradient><linearGradient id="a"><stop offset="0" stop-color="#5a9fdb"/><stop offset="1" stop-color="#e47ff5"/></linearGradient><linearGradient id="b"><stop offset="0" stop-color="#d1d6da"/><stop offset="1" stop-color="#fff"/></linearGradient><linearGradient xlink:href="#a" id="f" gradientUnits="userSpaceOnUse" gradientTransform="scale(1.14497) rotate(45 -32.71 38.504)" x1="76.324" y1="-11.358" x2="40.503" y2="-11.358"/><linearGradient xlink:href="#b" id="e" gradientUnits="userSpaceOnUse" gradientTransform="matrix(1.36364 0 0 1.36364 48.255 46.29)" x1="22.978" y1="39.178" x2="22.978" y2="21.425"/></defs><path style="isolation:auto;mix-blend-mode:normal;marker:none" d="M32 1A31.001 31.001 0 0 0 1 32a31.001 31.001 0 0 0 31 31 31.001 31.001 0 0 0 31-31A31.001 31.001 0 0 0 32 1zm0 23.137A7.863 7.863 0 0 1 39.863 32 7.863 7.863 0 0 1 32 39.863 7.863 7.863 0 0 1 24.137 32 7.863 7.863 0 0 1 32 24.137z" color="#000" overflow="visible" fill-opacity=".12" stroke-width="1.348"/><path style="isolation:auto;mix-blend-mode:normal;marker:none" d="M80 50c-16.569 0-30 13.431-30 30 0 16.569 13.431 30 30 30 16.569 0 30-13.431 30-30 0-16.569-13.431-30-30-30z" color="#000" overflow="visible" fill="url(#e)" stroke-width=".682" stroke-opacity=".702" transform="translate(-48 -48)"/><path style="isolation:auto;mix-blend-mode:normal;marker:none" d="M2 31.838c-.001.109-.009.216-.009.326 0 16.573 13.435 30.009 30.009 30.009 16.574 0 30.01-13.436 30.01-30.01 0-.109-.009-.216-.01-.325C61.824 48.26 48.464 61.52 32 61.52S2.176 48.26 2 31.838z" color="#000" overflow="visible" fill="#fff" stroke-width=".682" stroke-opacity=".702"/><path d="M89.715 70.285l-4.857 4.857h12.954V62.188l-4.858 4.858c-7.157-7.157-18.75-7.157-25.908 0a18.19 18.19 0 0 0-4.89 8.906h4.728a13.576 13.576 0 0 1 3.4-5.667c5.368-5.368 14.064-5.368 19.431 0zm8.129 13.763h-4.728a13.576 13.576 0 0 1-3.4 5.667c-5.368 5.368-14.064 5.368-19.431 0l4.857-4.857H62.188v12.954l4.858-4.858c7.157 7.157 18.75 7.157 25.908 0a18.19 18.19 0 0 0 4.89-8.906z" style="marker:none" fill="url(#f)" stroke-width="1.742" stroke-opacity=".073" transform="translate(-48 -48)"/><path style="marker:none" d="M32 13.679a18.262 18.262 0 0 0-12.954 5.367c-2.543 2.542-4.153 5.644-4.89 8.906h.172c.798-3.019 2.348-5.877 4.718-8.247 7.157-7.157 18.751-7.157 25.908 0l4.857-4.857v-.66l-4.857 4.858A18.262 18.262 0 0 0 32 13.679zm9.377 8.944l-4.52 4.52h.66l4.199-4.2c-.11-.11-.226-.214-.339-.32zm3.738 13.425a13.577 13.577 0 0 1-3.4 5.668c-5.256 5.257-13.703 5.36-19.092.32l-.339.34c5.368 5.367 14.064 5.367 19.432 0a13.577 13.577 0 0 0 3.4-5.669h4.556c.058-.22.121-.438.171-.66zm-30.926.81v.66h12.294l.66-.66z" fill-opacity=".276" stroke-width="1.742" stroke-opacity=".073"/><path style="marker:none" d="M32 18.258a13.698 13.698 0 0 0-9.716 4.026 13.577 13.577 0 0 0-3.4 5.668h-4.556c-.058.22-.121.439-.171.66h4.728a13.577 13.577 0 0 1 3.4-5.668c5.256-5.257 13.703-5.361 19.092-.321l.339-.339A13.698 13.698 0 0 0 32 18.258zm5.517 8.884l-.66.66h12.954v-.66zm12.155 9.565c-.798 3.02-2.348 5.878-4.718 8.247-7.157 7.157-18.751 7.157-25.908 0l-4.857 4.857v.66l4.857-4.857c7.157 7.157 18.751 7.157 25.908 0 2.543-2.542 4.153-5.644 4.89-8.907zm-23.19.81l-4.198 4.199c.11.11.226.214.339.32l4.52-4.519z" fill="#fff" stroke-width="1.742" stroke-opacity=".073"/><path d="M32 5.304C17.256 5.304 5.304 17.256 5.304 32c0 14.744 11.952 26.696 26.696 26.696 14.744 0 26.696-11.952 26.696-26.696C58.696 17.256 46.744 5.304 32 5.304z" style="isolation:auto;mix-blend-mode:normal;marker:none" color="#000" overflow="visible" fill="none" stroke="#000" stroke-width=".607" stroke-dasharray=".60712867,1.82138601" stroke-opacity=".13"/><path style="isolation:auto;mix-blend-mode:normal;marker:none" d="M32 3.326C16.164 3.326 3.326 16.164 3.326 32S16.164 60.674 32 60.674 60.674 47.836 60.674 32 47.836 3.326 32 3.326z" color="#000" overflow="visible" fill="none" stroke="#000" stroke-width=".652" stroke-dasharray=".6523297,1.95698912" stroke-opacity=".104"/></svg>