<svg xmlns="http://www.w3.org/2000/svg" xmlns:xlink="http://www.w3.org/1999/xlink" height="64" viewBox="0 0 64 64" width="64"><title>Template icons dark</title><defs><linearGradient id="d"><stop offset="0" stop-color="#e7747f"/><stop offset=".151" stop-color="#8c2f37"/><stop offset=".491" stop-color="#882d2d"/><stop offset=".873" stop-color="#cf5763"/><stop offset="1" stop-color="#f83044"/></linearGradient><linearGradient id="g"><stop offset="0" stop-color="#fff" stop-opacity=".115"/><stop offset=".555" stop-color="#fff" stop-opacity=".681"/><stop offset="1" stop-color="#fff" stop-opacity="0"/></linearGradient><linearGradient id="h"><stop offset="0" stop-color="#fff" stop-opacity=".073"/><stop offset=".555" stop-color="#fff" stop-opacity=".681"/><stop offset="1" stop-color="#fff" stop-opacity=".068"/></linearGradient><linearGradient id="f"><stop offset="0" stop-color="#463f54"/><stop offset=".192" stop-color="#413a4f"/><stop offset=".345" stop-color="#615876"/><stop offset=".499" stop-color="#3e384c"/><stop offset="1" stop-color="#343142"/></linearGradient><linearGradient id="e"><stop offset="0" stop-color="#b3b3b3"/><stop offset=".246" stop-color="#828282"/><stop offset=".543" stop-color="silver"/><stop offset=".824" stop-color="#fff"/><stop offset="1" stop-color="#8e8e8e"/></linearGradient><linearGradient id="c"><stop offset="0" stop-color="#fafafa"/><stop offset=".178" stop-color="#efe1f2"/><stop offset=".226" stop-color="#d5d6d8"/><stop offset=".705" stop-color="#7d8089"/><stop offset=".745" stop-color="#a6d6c0"/><stop offset=".796" stop-color="#657060"/><stop offset=".871" stop-color="#b3b2b7"/><stop offset=".961" stop-color="#fff"/><stop offset="1" stop-color="#cbcace"/></linearGradient><linearGradient id="b"><stop offset="0" stop-color="#4d4e55"/><stop offset="1" stop-color="#717171"/></linearGradient><linearGradient id="a"><stop offset="0" stop-color="#c2bac6"/><stop offset="1" stop-color="#fff"/></linearGradient><linearGradient xlink:href="#c" id="p" x1="159.898" y1="180" x2="159.898" y2="124" gradientUnits="userSpaceOnUse" gradientTransform="translate(-47.03 -48.805) scale(.79344)"/><linearGradient xlink:href="#d" id="o" x1="161" y1="133.852" x2="161" y2="126" gradientUnits="userSpaceOnUse" gradientTransform="translate(-47.03 -48.805) scale(.79344)"/><linearGradient xlink:href="#f" id="n" x1="160.063" y1="188" x2="160.063" y2="161.929" gradientUnits="userSpaceOnUse" gradientTransform="translate(-26.65 -31.332) scale(.66666)"/><linearGradient xlink:href="#e" id="m" x1="161" y1="132.669" x2="161" y2="126.984" gradientUnits="userSpaceOnUse" gradientTransform="translate(-47.03 -48.805) scale(.79344)"/><linearGradient xlink:href="#a" id="l" x1="160.063" y1="194.079" x2="160.063" y2="148.724" gradientUnits="userSpaceOnUse" gradientTransform="translate(-47.03 -50.392) scale(.79344)"/><linearGradient gradientTransform="translate(-26.65 -27.999) scale(.66666)" xlink:href="#g" id="k" x1="131" y1="202.811" x2="116.008" y2="189" gradientUnits="userSpaceOnUse"/><linearGradient gradientTransform="translate(-26.65 -27.999) scale(.66666)" xlink:href="#h" id="j" gradientUnits="userSpaceOnUse" x1="204.717" y1="191" x2="190" y2="204"/><linearGradient xlink:href="#b" id="i" gradientUnits="userSpaceOnUse" x1="160.063" y1="194.079" x2="160.063" y2="148.724" gradientTransform="translate(-55.805 -56.427) scale(.84823)"/></defs><g transform="translate(-48 -48)"><path style="isolation:auto;mix-blend-mode:normal;marker:none" d="M62.647 66.098h34.798c2.63 0 4.034 2.237 4.749 4.79l9.225 32.952c.999 3.567-3.01 6.837-6.737 6.826l-49.283-.145c-3.726-.011-7.725-3.114-6.726-6.68l9.225-32.953c.715-2.553 2.118-4.79 4.749-4.79z" color="#000" display="block" overflow="visible" fill-opacity=".131" stroke-width=".424" stroke-opacity="0"/><path d="M62.493 66.098h35.105c2.654 0 4.15 2.215 4.79 4.79l8.06 32.367c.873 3.504-2.822 6.745-6.433 6.745h-48c-3.61 0-7.245-3.24-6.372-6.745l8.06-32.367c.641-2.575 2.137-4.79 4.79-4.79z" style="isolation:auto;mix-blend-mode:normal;marker:none" color="#000" overflow="visible" fill="url(#i)" stroke-width=".424" stroke-opacity="0"/><path d="M62.493 66.098h35.105c2.654 0 4.124 2.222 4.79 4.79l8.06 31.033c.908 3.496-2.822 6.745-6.433 6.745h-48c-3.61 0-7.28-3.25-6.372-6.745l8.06-31.033c.667-2.568 2.137-4.79 4.79-4.79z" style="isolation:auto;mix-blend-mode:normal;marker:none" color="#000" display="block" overflow="visible" fill="url(#j)" stroke-width=".424" stroke-opacity="0"/><path style="isolation:auto;mix-blend-mode:normal;marker:none" d="M62.493 66.098h35.105c2.654 0 4.12 2.222 4.79 4.79l8.294 31.778c.911 3.495-3.056 6-6.667 6h-48c-3.61 0-7.28-3.25-6.372-6.745l8.06-31.033c.667-2.568 2.137-4.79 4.79-4.79z" color="#000" display="block" overflow="visible" fill="url(#k)" stroke-width=".424" stroke-opacity="0"/><path style="isolation:auto;mix-blend-mode:normal;marker:none" d="M64.015 65.333h32c2.483 0 4.307 2.21 4.93 4.613l7.54 29.029c.849 3.27-2.72 6.098-6.098 6.098H57.705c-3.378 0-6.947-2.828-6.098-6.098l7.54-29.029c.623-2.402 2.386-4.613 4.868-4.613z" color="#000" display="block" overflow="visible" fill="url(#l)" stroke-width=".397" stroke-opacity="0"/><path style="isolation:auto;mix-blend-mode:normal;marker:none" d="M61.349 52h37.333c1.333 0 1.333 4.667 0 4.667H61.349c-1.334 0-1.334-4.667 0-4.667z" color="#000" display="block" overflow="visible" fill="url(#m)" stroke-width=".267" stroke-opacity="0"/><path d="M88.682 79.333h-3.333l2.666 9.334h7.853l-15.81 9.385-15.749-9.385h7.706l2.667-9.334h-3.333l8.666-4z" style="isolation:auto;mix-blend-mode:normal;marker:none" color="#000" display="block" overflow="visible" fill="url(#n)" stroke-width=".14" stroke-opacity="0"/><path d="M88.682 79.333h1.333l-4.666-2.666.691 1.447z" fill="#a89cac" fill-opacity=".974" fill-rule="evenodd" stroke-width=".667"/><path style="isolation:auto;mix-blend-mode:normal;marker:none" d="M68.682 51.334l22.013.009c1.32 0 4.698.036 5.32.657.675.675.616 4.051 0 4.667-.644.644-4 .667-5.333.667h-22c-1.333 0-4 0-4.667-.667-.666-.667-.666-4 0-4.667.622-.621 3.334-.666 4.667-.666z" color="#000" display="block" overflow="visible" fill="url(#o)" stroke-width=".267" stroke-opacity="0"/><path d="M71.349 79.333h-1.334l4.667-2.666-.692 1.447z" fill="#a89cac" fill-opacity=".974" fill-rule="evenodd" stroke-width=".667"/><path style="isolation:auto;mix-blend-mode:normal;marker:none" d="M72.682 49.334c-.78 0-2.282 1.041-2.282 2.628v5.554c0 2.08 3.173 2.523 3.173 4.485L74.015 86h12l.253-24c.021-1.961 3.174-2.405 3.174-4.484v-5.554c0-1.587-1.3-2.628-2.094-2.628z" color="#000" display="block" overflow="visible" fill="url(#p)" stroke-width=".262" stroke-opacity="0"/><path style="line-height:1000%;-inkscape-font-specification:'Serto Kharput'" d="M76.682 65.333h6.667v1.334h-2.667v4.666h-1.333v-4.666h-2.667z" font-weight="400" font-family="Serto Kharput" letter-spacing="0" word-spacing="0" fill="#282828" stroke-width=".667"/><path style="isolation:auto;mix-blend-mode:normal;marker:none" d="M51.55 99.3c-.541 3.129 2.565 6.033 5.83 6.033h44.635c3.265 0 7.068-2.904 6.527-6.034-.456 2.512-3.738 4.7-6.527 4.7H57.38c-2.788 0-5.375-2.188-5.83-4.7z" color="#000" display="block" overflow="visible" fill="#fefdff" stroke-width=".397" stroke-opacity="0"/><path style="line-height:normal;font-variant-ligatures:normal;font-variant-position:normal;font-variant-caps:normal;font-variant-numeric:normal;font-variant-alternates:normal;font-feature-settings:normal;text-indent:0;text-align:start;text-decoration-line:none;text-decoration-style:solid;text-decoration-color:#000;text-transform:none;text-orientation:mixed;shape-padding:0;isolation:auto;mix-blend-mode:normal;marker:none" d="M74.015 49.334c-.183 0-.309.109-.527.267a3.148 3.148 0 0 0-.651.655c-.413.547-.746 1.294-.746 2.097v5.491c0 1.056.67 1.7 1.318 2.309.648.609 1.274 1.183 1.27 2.123v23.717h10.483V62.278c0-.94.626-1.517 1.274-2.127.647-.61 1.315-1.252 1.315-2.307v-5.49c0-.803-.33-1.55-.741-2.097a3.127 3.127 0 0 0-.651-.656c-.219-.158-.43-.252-.616-.252zm0 0l11.728.015c.138 0 .332.21.538.358.205.148.424.365.622.63.397.528.715 1.25.715 2.016v5.491c0 1-.627 1.602-1.273 2.21-.647.61-1.314 1.224-1.314 2.224v23.715H74.812V62.278c.004-1-.665-1.614-1.312-2.223-.648-.609-1.276-1.211-1.276-2.211v-5.49c0-.767.32-1.489.718-2.018.2-.264.419-.48.624-.629.205-.148.314-.374.45-.373z" color="#000" font-weight="400" font-family="sans-serif" white-space="normal" overflow="visible" fill="#44464f" stroke-width=".133"/><path style="line-height:normal;font-variant-ligatures:normal;font-variant-position:normal;font-variant-caps:normal;font-variant-numeric:normal;font-variant-alternates:normal;font-feature-settings:normal;text-indent:0;text-align:start;text-decoration-line:none;text-decoration-style:solid;text-decoration-color:#000;text-transform:none;text-orientation:mixed;shape-padding:0;isolation:auto;mix-blend-mode:normal;marker:none" d="M76.015 49.334c-.144 0-.419.115-.571.274-.153.16-.31.384-.453.658a4.614 4.614 0 0 0-.515 2.087v5.491c0 1.047.463 1.69.913 2.3.45.609.886 1.183.88 2.132v23.717h7.303V62.278c0-.95.436-1.526.885-2.136.448-.61.908-1.251.908-2.298v-5.49c0-.798-.226-1.54-.511-2.088a2.874 2.874 0 0 0-.452-.658c-.153-.159-.241-.274-.387-.274zm0 0h8c.078 0 .15.219.292.366.14.146.292.362.43.627.275.53.497 1.255.497 2.026v5.491c0 1.008-.436 1.611-.884 2.22-.448.609-.909 1.223-.909 2.214v23.715h-7.039V62.278c.005-.99-.457-1.605-.906-2.214-.45-.609-.887-1.212-.887-2.22v-5.49c0-.773.222-1.498.499-2.027.138-.265.29-.48.43-.627.142-.147.401-.366.477-.366z" color="#000" font-weight="400" font-family="sans-serif" white-space="normal" overflow="visible" fill="#44464f" stroke-width=".133"/><path d="M62.015 52h.667c-.667.667-.667 4 0 4.667h-.667c-1.333 0-1.333-4.667 0-4.667zM97.911 52h-.666c.666.667.666 4 0 4.667h.666c1.334 0 1.334-4.667 0-4.667z" style="isolation:auto;mix-blend-mode:normal;marker:none" color="#000" display="block" overflow="visible" fill-opacity=".288" stroke-width=".267" stroke-opacity="0"/><path d="M73.349 83.333L72.767 86l-.752 2.667H64.31c.08 0 2.265 1.35 2.265 1.35l5.44-.017zm13.007 0L88.016 90l5.593.008s2.18-1.341 2.259-1.341h-7.853L87.264 86z" fill="#bab1bd" fill-opacity=".974" fill-rule="evenodd" stroke-width=".667"/><path d="M66.575 90.017C66.682 90 80.015 96 80.015 96l13.594-5.992L80.057 98z" fill-opacity=".183" fill-rule="evenodd" stroke-width=".667"/><path d="M51.488 99.987c-.54 3.129 2.627 6.013 5.892 6.013h44.635c3.265 0 7.207-2.87 6.667-6-.667 3.333-3.878 5.333-6.667 5.333H57.38c-2.788 0-5.954-2.343-5.892-5.346z" style="isolation:auto;mix-blend-mode:normal;marker:none" color="#000" display="block" overflow="visible" fill-opacity=".199" stroke-width=".397" stroke-opacity="0"/><circle style="isolation:auto;mix-blend-mode:normal;marker:none" cx="79.995" cy="67.597" r=".379" color="#000" display="block" overflow="visible" fill="#4dfb84" fill-opacity=".979" stroke="#4dfb84" stroke-width="1.032" stroke-opacity=".387"/><circle r=".379" cy="66.048" cx="80.015" style="isolation:auto;mix-blend-mode:normal;marker:none" color="#000" display="block" overflow="visible" fill="#4dfb84" fill-opacity=".979" stroke="#4dfb84" stroke-width="1.032" stroke-opacity=".387"/><circle r=".379" cy="68.941" cx="80.015" style="isolation:auto;mix-blend-mode:normal;marker:none" color="#000" display="block" overflow="visible" fill="#4dfb84" fill-opacity=".979" stroke="#4dfb84" stroke-width="1.032" stroke-opacity=".387"/><circle style="isolation:auto;mix-blend-mode:normal;marker:none" cx="80.015" cy="70.284" r=".379" color="#000" display="block" overflow="visible" fill="#4dfb84" fill-opacity=".979" stroke="#4dfb84" stroke-width="1.032" stroke-opacity=".387"/><circle style="isolation:auto;mix-blend-mode:normal;marker:none" cx="78.337" cy="66.048" r=".379" color="#000" display="block" overflow="visible" fill="#4dfb84" fill-opacity=".979" stroke="#4dfb84" stroke-width="1.032" stroke-opacity=".387"/><circle r=".379" cy="66.048" cx="81.836" style="isolation:auto;mix-blend-mode:normal;marker:none" color="#000" display="block" overflow="visible" fill="#4dfb84" fill-opacity=".979" stroke="#4dfb84" stroke-width="1.032" stroke-opacity=".387"/></g></svg>