<svg xmlns="http://www.w3.org/2000/svg" xmlns:xlink="http://www.w3.org/1999/xlink" height="64" viewBox="0 0 64 64" width="64"><title>Template icons dark</title><defs><linearGradient id="c"><stop offset="0" stop-color="#fff" stop-opacity="0"/><stop offset=".457" stop-color="#fff"/><stop offset="1" stop-color="#fff" stop-opacity="0"/></linearGradient><linearGradient id="d"><stop offset="0" stop-color="#fff" stop-opacity=".549"/><stop offset="1" stop-color="#fff" stop-opacity="0"/></linearGradient><linearGradient id="a"><stop offset="0" stop-color="#344961"/><stop offset="1" stop-color="#2d9580"/></linearGradient><linearGradient id="b"><stop offset="0" stop-color="#eff0c8" stop-opacity=".396"/><stop offset=".16" stop-color="#71cbd7" stop-opacity=".02"/><stop offset=".8" stop-color="#91dfcb" stop-opacity=".275"/><stop offset="1" stop-color="#6beed0" stop-opacity=".627"/></linearGradient><linearGradient xlink:href="#a" id="e" x1="36.516" y1="40.131" x2="9.579" y2="9.429" gradientUnits="userSpaceOnUse" gradientTransform="matrix(1.50364 0 0 1.48238 43.755 44.344)"/><linearGradient xlink:href="#b" id="f" gradientUnits="userSpaceOnUse" gradientTransform="matrix(1.70808 0 0 1.71735 39.28 39.998)" x1="22.144" y1="41.149" x2="22.144" y2="5.178"/><linearGradient xlink:href="#c" id="g" gradientUnits="userSpaceOnUse" x1="971.579" y1="-1.255" x2="1037.237" y2="-1.255"/><linearGradient xlink:href="#c" id="h" gradientUnits="userSpaceOnUse" x1="971.579" y1="-1.255" x2="1037.237" y2="-1.255"/><radialGradient xlink:href="#d" id="i" cx="195.968" cy="168" fx="195.968" fy="168" r="12.579" gradientUnits="userSpaceOnUse" gradientTransform="matrix(.1717 0 0 .72738 70.483 -36.932)"/><radialGradient xlink:href="#d" id="j" gradientUnits="userSpaceOnUse" gradientTransform="matrix(.10825 0 0 .67172 64.195 -215.123)" cx="195.968" cy="168" fx="195.968" fy="168" r="12.579"/></defs><g transform="translate(-48 -48)"><path style="isolation:auto;mix-blend-mode:normal;marker:none" d="M54 49h52c2.986 0 6 3.014 6 6v50c0 2.986-3.014 6-6 6H54c-2.986 0-6-3.014-6-6V55c0-2.986 3.014-6 6-6z" color="#000" overflow="visible" fill-opacity=".148" stroke-width=".445" stroke-opacity=".471"/><path style="isolation:auto;mix-blend-mode:normal;marker:none" d="M54 50h52c2.986 0 5 2.34 5 5.326V104c0 2.986-2.014 6-5 6H54c-2.986 0-5-3.014-5-6V55.326C49 52.341 51.014 50 54 50z" color="#000" overflow="visible" fill="url(#e)" stroke-width=".445" stroke-opacity=".471"/><path d="M77.292 60.304a.712.712 0 0 0-.705.656L74.666 85.26l-.154-.434a.712.712 0 0 0-.671-.473h-4.843c-.378-.58-.748-1.124-1.148-1.48-.493-.44-1.067-.726-1.681-.716-.614.01-1.174.308-1.656.75-.388.356-.745.886-1.109 1.446H52.701c-.95 0-.95 1.424 0 1.424h11.048c.25 0 .482-.13.61-.344.414-.686.797-1.182 1.118-1.477.32-.294.543-.373.714-.376.172-.003.387.065.71.354.325.29.717.79 1.144 1.499.129.214.36.345.61.344h4.684l1.104 3.099c.259.722 1.319.581 1.38-.183L77.28 70.26l1.76 23.313c.062.797 1.189.903 1.398.131l2.131-7.925h5c.32 0 .6-.213.686-.52.936-3.35 2.689-4.773 4.223-4.774 1.535-.001 3.285 1.417 4.224 4.773.086.308.366.521.685.521h4.445a2.066 2.066 0 0 0 1.951 1.4 2.066 2.066 0 1 0-1.92-2.824H97.87c-1.093-3.353-3.13-5.296-5.393-5.294-2.263.002-4.296 1.947-5.387 5.294h-5.066a.712.712 0 0 0-.686.527l-1.191 4.425-2.14-28.344a.712.712 0 0 0-.714-.658z" style="line-height:normal;font-variant-ligatures:normal;font-variant-position:normal;font-variant-caps:normal;font-variant-numeric:normal;font-variant-alternates:normal;font-feature-settings:normal;text-indent:0;text-align:start;text-decoration-line:none;text-decoration-style:solid;text-decoration-color:#000;text-transform:none;text-orientation:mixed;shape-padding:0;isolation:auto;mix-blend-mode:normal" color="#000" font-weight="400" font-family="sans-serif" white-space="normal" overflow="visible" fill="none" stroke="#fff" stroke-width="4.119" stroke-linecap="round" stroke-linejoin="round" stroke-opacity=".17"/><path style="line-height:normal;font-variant-ligatures:normal;font-variant-position:normal;font-variant-caps:normal;font-variant-numeric:normal;font-variant-alternates:normal;font-feature-settings:normal;text-indent:0;text-align:start;text-decoration-line:none;text-decoration-style:solid;text-decoration-color:#000;text-transform:none;text-orientation:mixed;shape-padding:0;isolation:auto;mix-blend-mode:normal" d="M77.292 60.304a.712.712 0 0 0-.705.656L74.666 85.26l-.154-.434a.712.712 0 0 0-.671-.473h-4.843c-.378-.58-.748-1.124-1.148-1.48-.493-.44-1.067-.726-1.681-.716-.614.01-1.174.308-1.656.75-.388.356-.745.886-1.109 1.446H52.701c-.95 0-.95 1.424 0 1.424h11.048c.25 0 .482-.13.61-.344.414-.686.797-1.182 1.118-1.477.32-.294.543-.373.714-.376.172-.003.387.065.71.354.325.29.717.79 1.144 1.499.129.214.36.345.61.344h4.684l1.104 3.099c.259.722 1.319.581 1.38-.183L77.28 70.26l1.76 23.313c.062.797 1.189.903 1.398.131l2.131-7.925h5c.32 0 .6-.213.686-.52.936-3.35 2.689-4.773 4.223-4.774 1.535-.001 3.285 1.417 4.224 4.773.086.308.366.521.685.521h4.445a2.066 2.066 0 0 0 1.951 1.4 2.066 2.066 0 1 0-1.92-2.824H97.87c-1.093-3.353-3.13-5.296-5.393-5.294-2.263.002-4.296 1.947-5.387 5.294h-5.066a.712.712 0 0 0-.686.527l-1.191 4.425-2.14-28.344a.712.712 0 0 0-.714-.658z" color="#000" font-weight="400" font-family="sans-serif" white-space="normal" overflow="visible" fill="#fcfffe" stroke-width="1.424" stroke-linecap="round" stroke-linejoin="round"/><path d="M54 110c-2.986 0-5-3.014-5-6v-.674c0 2.986 2.014 5.674 5 5.674h52c2.986 0 5-2.688 5-5.674V104c0 2.986-2.014 6-5 6z" style="isolation:auto;mix-blend-mode:normal;marker:none" color="#000" overflow="visible" fill="#fff" fill-opacity=".401" stroke-width=".445" stroke-opacity=".471"/><path style="isolation:auto;mix-blend-mode:normal;marker:none" d="M54 50h52c2.986 0 5 2.34 5 5.326V104c0 2.986-2.014 6-5 6H54c-2.986 0-5-3.014-5-6V55.326C49 52.341 51.014 50 54 50z" color="#000" overflow="visible" fill="url(#f)" stroke-width=".808"/><path d="M54 50h52c2.986 0 5 2.34 5 5.326V104c0 2.986-2.014 6-5 6H54c-2.986 0-5-3.014-5-6V55.326C49 52.341 51.014 50 54 50z" style="isolation:auto;mix-blend-mode:normal;marker:none" color="#000" overflow="visible" fill="none" stroke-width=".808"/><path style="isolation:auto;mix-blend-mode:normal;marker:none" d="M54 50c-2.986 0-5 2.34-5 5.326V56c0-2.986 2.014-5 5-5h52c2.986 0 5 2.014 5 5v-.674c0-2.985-2.014-5.326-5-5.326z" color="#000" overflow="visible" fill="#fff" fill-opacity=".566" stroke-width=".445" stroke-opacity=".471"/><path opacity=".2" fill="#fff" fill-opacity=".577" stroke-width=".984" d="M56 50v60h-1V50zM62 50v60h-1V50zM69 50v60h-1V50zM75.024 50v60H74V50zM81 50v60h-1V50zM87 50v60h-1V50zM93 50v60h-.969V50zM99 50v60h-1V50zM105 50v60h-1V50z"/><path opacity=".2" fill="#fff" fill-opacity=".577" d="M111 56H49v-1h62zM111 62H49v-1h62zM111 68H49v-1h62zM111 74H49v-1h62zM111 80H49v-1h62zM111 86H49v-1h62zM111 92H49v-1h62zM111 98H49v-1h62zM111 104H49v-1h62z"/><path transform="matrix(0 .79003 -.70186 0 48.267 -713.3)" opacity=".728" fill="url(#g)" stroke-width=".915" d="M971.226-2.469h64.554v1.425h-64.554z"/><path transform="matrix(0 .79003 -.70186 0 48.267 -713.3)" opacity=".728" fill="url(#h)" stroke-width=".915" d="M972.491-89.38h64.746v1.262h-64.746z"/><ellipse style="isolation:auto;mix-blend-mode:normal;marker:none" cx="103.909" cy="85.268" rx="2.875" ry="10.681" color="#000" display="block" overflow="visible" opacity=".993" fill="url(#i)" stroke-width="2.341"/><ellipse ry="9.863" rx="1.813" cy="-102.275" cx="85.268" style="isolation:auto;mix-blend-mode:normal;marker:none" transform="rotate(90)" color="#000" display="block" overflow="visible" opacity=".993" fill="url(#j)" stroke-width="1.786"/></g></svg>