<svg xmlns="http://www.w3.org/2000/svg" xmlns:xlink="http://www.w3.org/1999/xlink" height="64" viewBox="0 0 64 64" width="64"><title>Template icons dark</title><defs><linearGradient id="d"><stop offset="0" stop-color="#fff" stop-opacity=".802"/><stop offset=".502" stop-color="#fff" stop-opacity=".945"/><stop offset="1" stop-color="#fff" stop-opacity=".692"/></linearGradient><linearGradient id="c"><stop offset="0" stop-color="#fff" stop-opacity=".632"/><stop offset=".448" stop-color="#fff" stop-opacity=".94"/><stop offset="1" stop-color="#fff" stop-opacity=".61"/></linearGradient><linearGradient id="b"><stop offset="0" stop-color="#d1d1d1"/><stop offset="1" stop-color="#fff" stop-opacity=".989"/></linearGradient><linearGradient id="a"><stop offset="0" stop-color="#0086f7"/><stop offset="1" stop-color="#60cdff"/></linearGradient><linearGradient xlink:href="#a" id="e" x1="25" y1="45.7" x2="25" y2="8.075" gradientUnits="userSpaceOnUse" gradientTransform="matrix(2.2 0 0 2.2 27.2 20.16)"/><linearGradient gradientTransform="matrix(.65999 0 0 .65999 -25.598 -25.598)" xlink:href="#d" id="g" x1="173.291" y1="203.528" x2="136" y2="117.102" gradientUnits="userSpaceOnUse"/><linearGradient gradientTransform="matrix(.65999 0 0 .65999 -25.598 -25.598)" xlink:href="#b" id="f" x1="157.89" y1="194.158" x2="157.89" y2="132" gradientUnits="userSpaceOnUse"/></defs><path d="M6.219 2H57.78A4.21 4.21 0 0 1 62 6.219V57.78A4.21 4.21 0 0 1 57.781 62H6.22A4.21 4.21 0 0 1 2 57.781V6.22A4.21 4.21 0 0 1 6.219 2z" fill-opacity=".078" stroke-width="1.845" stroke-linejoin="round" stroke-opacity=".131"/><path d="M55.125 51h49.75A4.116 4.116 0 0 1 109 55.125v49.75a4.116 4.116 0 0 1-4.125 4.125h-49.75A4.116 4.116 0 0 1 51 104.875v-49.75A4.116 4.116 0 0 1 55.125 51z" fill="url(#e)" stroke-width="1.804" stroke-linejoin="round" stroke-opacity=".131" transform="translate(-48 -48)"/><path d="M3 55.875v1S4.84 61 7.125 61h49.75C59.16 61 61 56.875 61 56.875v-1A4.116 4.116 0 0 1 56.875 60H7.125A4.116 4.116 0 0 1 3 55.875z" fill="#fff" fill-opacity=".219" stroke-width="1.804" stroke-linejoin="round" stroke-opacity=".131"/><path d="M5.809 27.85h9.473l5.573 21.176 7.801-30.65 6.688 21.734 6.13-21.734 6.13 21.734h10.588" fill="none" fill-rule="evenodd" stroke="#000" stroke-width="3.344" stroke-opacity=".275"/><path d="M53.809 73.87h9.473l5.573 21.176 7.801-30.65 6.688 21.734 6.13-21.733 6.13 21.733h10.588" fill="none" fill-rule="evenodd" stroke="url(#f)" stroke-width="3.344" transform="translate(-48 -48)"/><path style="line-height:normal;font-variant-ligatures:normal;font-variant-position:normal;font-variant-caps:normal;font-variant-numeric:normal;font-variant-alternates:normal;font-feature-settings:normal;text-indent:0;text-align:start;text-decoration-line:none;text-decoration-style:solid;text-decoration-color:#000;text-transform:none;text-orientation:mixed;shape-padding:0;isolation:auto;mix-blend-mode:normal" d="M53.6 50.96c-1.395 0-2.64 1.23-2.64 2.64v52.8c0 1.73 1.643 2.64 2.64 2.64h52.8c1.08 0 2.64-1.029 2.64-2.64V53.6c0-1.55-1.419-2.64-2.64-2.64zm0 1.32h52.8c.66 0 1.32.66 1.32 1.32v52.8c0 .66-.66 1.32-1.32 1.32H53.6c-.66 0-1.32-.66-1.32-1.32V53.6c0-.66.645-1.32 1.32-1.32z" color="#000" font-weight="400" font-family="sans-serif" white-space="normal" overflow="visible" opacity=".654" fill="url(#g)" stroke-width="1.3" stroke-linejoin="round" transform="translate(-48 -48)"/></svg>