<svg xmlns="http://www.w3.org/2000/svg" height="64" viewBox="0 0 64 64" width="64" enable-background="new"><title>Template icons dark</title><defs><linearGradient id="a"><stop offset="0" stop-color="#56aff6"/><stop offset="1" stop-color="#2196f3"/></linearGradient><clipPath id="c"><path d="M592-212L272 101.043V-116l-48 24v240l48 24 432-336z" fill="#1565c0" fill-rule="evenodd" enable-background="new"/></clipPath><filter id="b" x="-.024" width="1.048" y="-.024" height="1.048" color-interpolation-filters="sRGB"><feGaussianBlur stdDeviation="4.8"/></filter><filter id="d" x="-.054" width="1.108" y="-.068" height="1.135" color-interpolation-filters="sRGB"><feGaussianBlur stdDeviation="10.8"/></filter></defs><g fill-rule="evenodd"><path d="M152-216L-44.402-23.867-168-120l-48 24v240l48 24 123.598-96.133L152 264l112-48v-384zm0 135.111V128.89L17.143 24zm-320 31.846L-93.334 24-168 97.043z" transform="matrix(.12092 0 0 .12092 29.118 29.418)" opacity=".1" filter="url(#b)" enable-background="new"/><path d="M152-216L-44.402-23.867-168-120l-48 24v240l48 24 123.598-96.133L152 264l112-48v-384zm0 135.111V128.89L17.143 24zm-320 31.846L-93.334 24-168 97.043z" transform="matrix(.12092 0 0 .12092 29.118 29.418)" opacity=".2" filter="url(#b)" enable-background="new"/><path d="M47.497 2.817L23.749 26.049 8.804 14.425 3 17.327v29.02l5.804 2.901 14.945-11.624 23.748 23.232 13.542-5.804V8.621zm0 16.337v25.365L31.19 31.837zm-38.693 3.85l9.028 8.833-9.028 8.832z" opacity=".2" stroke-width=".121" enable-background="new"/><path d="M3 46.105v-29.02l5.804-2.902v34.824z" fill="#1976d2" stroke-width=".121" enable-background="new"/><path d="M47.497 2.575L3 46.105l5.804 2.902L61.039 8.379z" fill="#1565c0" stroke-width=".121" enable-background="new"/><path transform="matrix(.12092 0 0 .12092 -24.085 28.21)" d="M592 272L224-88l48-24 432 336z" clip-path="url(#c)" opacity=".2" filter="url(#d)" enable-background="new"/><path d="M47.497 2.575L3 46.105l.164.081 44.333-43.37 13.342 5.719.2-.156z" opacity=".2" fill="#fff" stroke-width=".121" enable-background="new"/><path d="M47.497 60.614L3 17.084l5.804-2.901L61.039 54.81z" fill="#1e88e5" stroke-width=".121" enable-background="new"/><path d="M8.804 14.183L3 17.085l.164.16 5.64-2.82 52.035 40.471.2-.086z" opacity=".2" fill="#fff" stroke-width=".121" enable-background="new"/><path d="M61.04 54.81V8.38L47.496 2.575v58.04z" fill="#2196f3" stroke-width=".121" enable-background="new"/><path d="M47.497 2.575v.242L61.039 8.62v-.242z" opacity=".2" fill="#fff" stroke-width=".121" enable-background="new"/></g></svg>