<svg xmlns="http://www.w3.org/2000/svg" xmlns:xlink="http://www.w3.org/1999/xlink" height="64" viewBox="0 0 64 64" width="64"><title>Template icons dark</title><defs><linearGradient id="e"><stop offset="0" stop-color="#1cdbff" stop-opacity=".143"/><stop offset="1" stop-color="#c34c74" stop-opacity="0"/></linearGradient><linearGradient id="d"><stop offset="0" stop-color="#d663eb" stop-opacity=".423"/><stop offset="1" stop-color="#c34c74" stop-opacity="0"/></linearGradient><linearGradient id="f"><stop offset="0" stop-color="#97176b"/><stop offset="1" stop-color="#69104b"/></linearGradient><linearGradient id="b"><stop offset="0" stop-color="#8ab0c4"/><stop offset="1" stop-color="#fcf6f8"/></linearGradient><linearGradient id="a"><stop offset="0" stop-color="#d8eaf3"/><stop offset="1" stop-color="#fff" stop-opacity=".945"/></linearGradient><linearGradient id="c"><stop offset="0" stop-color="#30d9eb"/><stop offset="1" stop-color="#5393e4"/></linearGradient><linearGradient xlink:href="#e" id="i" gradientUnits="userSpaceOnUse" gradientTransform="matrix(.61834 0 0 .61834 -18.935 -18.935)" x1="115.424" y1="153.693" x2="151.567" y2="164.5"/><linearGradient xlink:href="#d" id="h" gradientUnits="userSpaceOnUse" gradientTransform="matrix(.61834 0 0 .61834 -18.935 -18.935)" x1="191.501" y1="140.476" x2="137.499" y2="161.382"/><linearGradient xlink:href="#b" id="g" x1="160" y1="196" x2="160" y2="110.592" gradientUnits="userSpaceOnUse" gradientTransform="matrix(.61834 0 0 .61834 -18.935 -18.935)"/><radialGradient xlink:href="#f" id="j" gradientUnits="userSpaceOnUse" gradientTransform="matrix(1.94557 .13538 -.06775 .9737 -226.827 -92.042)" cx="168.187" cy="156.788" fx="168.187" fy="156.788" r="29.345"/></defs><g color="#000" transform="translate(-48 -48)"><circle style="isolation:auto;mix-blend-mode:normal;marker:none" cx="80" cy="80" r="32" overflow="visible" fill-opacity=".121" stroke-width=".705" stroke-opacity=".995"/><circle r="31.304" cy="80" cx="80" style="isolation:auto;mix-blend-mode:normal;marker:none" display="block" overflow="visible" fill="url(#g)" stroke-width=".53" stroke-opacity=".995"/><circle style="isolation:auto;mix-blend-mode:normal;marker:none" cx="80" cy="80" r="31.304" display="block" overflow="visible" fill="url(#h)" stroke-width=".53" stroke-opacity=".995"/><circle r="31.304" cy="80" cx="80" style="isolation:auto;mix-blend-mode:normal;marker:none" display="block" overflow="visible" fill="url(#i)" stroke-width=".53" stroke-opacity=".995"/><path d="M83.097 74.098C65.534 81.236 57.75 83.513 50.815 88.77c4.476 12.353 15.176 21.313 27.938 21.673 18.745-.872 30.999-13.362 31.32-30.453a30.292 30.292 0 0 0-3.925-14.877c.02.047.05.088.07.136-19.878 9.53-17.359 8.785-23.121 8.849z" style="isolation:auto;mix-blend-mode:normal;marker:none" overflow="visible" fill="url(#j)" stroke-width=".649" stroke-opacity=".995"/><path d="M86.746 73.932c-1.998 3.461-24.129 27.261-35.715 15.238-9.347-23.316 29.453-15.145 35.715-15.238z" style="isolation:auto;mix-blend-mode:normal;marker:none" display="block" overflow="visible" fill="#b14abf" stroke-width=".939" stroke-opacity=".995"/><path style="isolation:auto;mix-blend-mode:normal;marker:none" d="M86.544 74.21c1.315-2.297 17.419-19.519 20.213-8.04-.228 12.196-16.878 8.772-20.213 8.04z" display="block" overflow="visible" fill="#ef53b7" stroke-width=".67" stroke-opacity=".995"/><ellipse style="isolation:auto;mix-blend-mode:normal;marker:none" cx="8.179" cy="86.578" rx="11.441" ry="3.242" transform="rotate(-40.62)" display="block" overflow="visible" fill="#fff" fill-opacity=".286" stroke-width=".499"/><ellipse transform="rotate(25.023)" ry="1.259" rx="4.442" cy="11.097" cx="107.594" style="isolation:auto;mix-blend-mode:normal;marker:none" display="block" overflow="visible" fill="#fff" fill-opacity=".159" stroke-width=".194"/><ellipse transform="rotate(-40.62)" ry="3.501" rx="12.355" cy="138.842" cx="7.879" style="isolation:auto;mix-blend-mode:normal;marker:none" display="block" overflow="visible" fill="#fff" fill-opacity=".066" stroke-width=".539"/></g></svg>