<svg xmlns="http://www.w3.org/2000/svg" xmlns:xlink="http://www.w3.org/1999/xlink" height="64" viewBox="0 0 64 64" width="64" enable-background="new"><title>Template icons dark</title><defs><linearGradient id="d"><stop offset="0" stop-color="#1cdbff" stop-opacity=".143"/><stop offset="1" stop-color="#c34c74" stop-opacity="0"/></linearGradient><linearGradient id="c"><stop offset="0" stop-color="#d663eb" stop-opacity=".423"/><stop offset="1" stop-color="#c34c74" stop-opacity="0"/></linearGradient><linearGradient id="g"><stop offset="0" stop-color="#97176b"/><stop offset="1" stop-color="#69104b"/></linearGradient><linearGradient id="b"><stop offset="0" stop-color="#8ab0c4"/><stop offset="1" stop-color="#fcf6f8"/></linearGradient><linearGradient id="a"><stop offset="0" stop-color="#d8eaf3"/><stop offset="1" stop-color="#fff" stop-opacity=".945"/></linearGradient><linearGradient id="e"><stop offset="0" stop-color="#eeeeec"/><stop offset="1" stop-color="#d3d7cf"/></linearGradient><linearGradient id="f"><stop offset="0" stop-color="#2e3436"/><stop offset="1"/></linearGradient><linearGradient xlink:href="#b" id="h" x1="160" y1="196" x2="160" y2="110.592" gradientUnits="userSpaceOnUse" gradientTransform="matrix(.6052 0 0 .6052 -17.511 -17.512)"/><linearGradient xlink:href="#c" id="i" gradientUnits="userSpaceOnUse" gradientTransform="matrix(.6052 0 0 .6052 -17.511 -17.512)" x1="191.501" y1="140.476" x2="137.499" y2="161.382"/><linearGradient xlink:href="#d" id="j" gradientUnits="userSpaceOnUse" gradientTransform="matrix(.6052 0 0 .6052 -17.511 -17.512)" x1="115.424" y1="153.693" x2="151.567" y2="164.5"/><linearGradient xlink:href="#f" id="m" gradientUnits="userSpaceOnUse" gradientTransform="scale(1.94673) rotate(30 -52.286 194.21)" x1="9.697" y1="24.661" x2="33.232" y2="24.661"/><linearGradient xlink:href="#f" id="n" gradientUnits="userSpaceOnUse" gradientTransform="scale(1.94673) rotate(30 -52.286 194.21)" x1="19.5" y1="28.5" x2="23.5" y2="28.5"/><linearGradient xlink:href="#e" id="o" gradientUnits="userSpaceOnUse" gradientTransform="scale(1.94673) rotate(30 -52.286 194.21)" x1="20" y1="12" x2="23" y2="12"/><radialGradient xlink:href="#g" id="k" gradientUnits="userSpaceOnUse" gradientTransform="matrix(1.9042 .1325 -.06631 .95299 -220.982 -89.064)" cx="168.187" cy="156.788" fx="168.187" fy="156.788" r="29.345"/><filter id="l" x="-.072" width="1.144" y="-.101" height="1.201" color-interpolation-filters="sRGB"><feGaussianBlur stdDeviation="2.003"/></filter></defs><g transform="translate(-48 -48)"><circle style="isolation:auto;mix-blend-mode:normal;marker:none" cx="79.319" cy="79.319" r="31.319" color="#000" overflow="visible" fill-opacity=".121" stroke-width=".69" stroke-opacity=".995" enable-background="accumulate"/><circle r="30.639" cy="79.319" cx="79.319" style="isolation:auto;mix-blend-mode:normal;marker:none" color="#000" display="block" overflow="visible" fill="url(#h)" stroke-width=".518" stroke-opacity=".995" enable-background="accumulate"/><circle style="isolation:auto;mix-blend-mode:normal;marker:none" cx="79.319" cy="79.319" r="30.639" color="#000" display="block" overflow="visible" fill="url(#i)" stroke-width=".518" stroke-opacity=".995" enable-background="accumulate"/><circle r="30.639" cy="79.319" cx="79.319" style="isolation:auto;mix-blend-mode:normal;marker:none" color="#000" display="block" overflow="visible" fill="url(#j)" stroke-width=".518" stroke-opacity=".995" enable-background="accumulate"/><path d="M82.35 73.542c-17.189 6.987-24.806 9.215-31.595 14.36 4.381 12.09 14.854 20.86 27.344 21.213 18.346-.854 30.34-13.078 30.653-29.806a29.649 29.649 0 0 0-3.84-14.56c.02.045.049.086.067.133-19.455 9.327-16.989 8.598-22.629 8.66z" style="isolation:auto;mix-blend-mode:normal;marker:none" color="#000" overflow="visible" fill="url(#k)" stroke-width=".635" stroke-opacity=".995" enable-background="accumulate"/><path d="M85.922 73.38c-1.956 3.387-23.616 26.682-34.955 14.914-9.149-22.82 28.826-14.823 34.955-14.914z" style="isolation:auto;mix-blend-mode:normal;marker:none" color="#000" display="block" overflow="visible" fill="#b14abf" stroke-width=".919" stroke-opacity=".995" enable-background="accumulate"/><path style="isolation:auto;mix-blend-mode:normal;marker:none" d="M85.724 73.652c1.288-2.249 17.048-19.104 19.783-7.869-.223 11.937-16.519 8.585-19.783 7.87z" color="#000" display="block" overflow="visible" fill="#ef53b7" stroke-width=".656" stroke-opacity=".995" enable-background="accumulate"/><path d="M118.34 60.137c2.35-3.237-.452-9.099-3.718-11.407-2.2-1.554-5.42-.239-8.075.204-5.174.861-10.825 1.56-15.01 4.723-9.027 6.82-11.691 19.436-18.644 28.361-2.888 3.707-4.855 9.887-9.527 10.39-2.635.285-4.84-2.512-6.498-4.579-2.363-2.947-4.37-6.684-4.359-10.461.017-5.214 3.061-10.17 6.11-14.399 1.638-2.271 3.938-4.055 6.3-5.558 4.068-2.586 8.618-4.476 13.262-5.766 4.584-1.273 9.493-.893 14.148-1.873 5.617-1.181 10.811-4.37 16.534-4.81 2.864-.22 6.555-.957 8.544 1.114 2.316 2.412.73 6.652.895 9.991.067 1.355-.925 3.115.038 4.07z" transform="matrix(.68086 0 0 .68086 25.364 25.422)" fill="#fefefe" fill-opacity=".632" fill-rule="evenodd" stroke-width=".861" filter="url(#l)"/><path d="M97.711 59.737c-.196.082-1.748-2.284-1.955-2.333-.208-.049-2.653 1.375-2.792 1.214-.139-.162 1.632-2.368 1.615-2.58-.018-.213-2.128-2.098-2.017-2.28.11-.183 2.756.82 2.953.738.196-.083 1.337-2.672 1.545-2.623.207.049.071 2.875.21 3.036.14.162 2.955.447 2.972.66.018.212-2.712.956-2.823 1.138-.11.182.489 2.948.292 3.03z" style="isolation:auto;mix-blend-mode:normal;marker:none" color="#000" display="block" overflow="visible" fill-opacity=".379" stroke-width=".372" enable-background="accumulate"/><path style="isolation:auto;mix-blend-mode:normal;marker:none" d="M98.06 58.922c-.196.082-1.747-2.285-1.955-2.333-.207-.05-2.652 1.375-2.791 1.214-.14-.162 1.632-2.369 1.614-2.581-.017-.212-2.128-2.098-2.017-2.28.11-.182 2.757.82 2.953.738.197-.082 1.338-2.672 1.545-2.623.208.05.072 2.876.21 3.037.14.162 2.955.447 2.973.659.017.212-2.713.956-2.823 1.139-.111.182.488 2.947.291 3.03z" color="#000" display="block" overflow="visible" fill="#fefefe" stroke-width=".372" enable-background="accumulate"/><path style="isolation:auto;mix-blend-mode:normal;marker:none" d="M70.964 87.204c-.354.353-5.822-3.404-6.315-3.325-.493.078-4.533 5.34-4.978 5.113-.445-.227 1.437-6.588 1.21-7.033-.226-.445-6.48-2.66-6.4-3.154.077-.494 6.709-.669 7.062-1.022.353-.353.528-6.985 1.022-7.063.493-.078 2.71 6.175 3.154 6.402.445.226 6.806-1.656 7.033-1.211.227.445-5.035 4.484-5.113 4.978-.078.493 3.678 5.961 3.325 6.315z" color="#000" display="block" overflow="visible" fill-opacity=".302" stroke-width=".594" enable-background="accumulate"/><path d="M70.964 86.523c-.354.353-5.822-3.403-6.315-3.325-.493.078-4.533 5.34-4.978 5.113-.445-.227 1.437-6.588 1.21-7.033-.226-.445-6.48-2.66-6.4-3.154.077-.494 6.709-.669 7.062-1.022.353-.353.528-6.985 1.022-7.063.493-.078 2.71 6.175 3.154 6.402.445.226 6.806-1.656 7.033-1.211.227.445-5.035 4.485-5.113 4.978-.078.493 3.678 5.961 3.325 6.315z" style="isolation:auto;mix-blend-mode:normal;marker:none" color="#000" display="block" overflow="visible" fill="#fefefe" stroke-width=".594" enable-background="accumulate"/><path style="isolation:auto;mix-blend-mode:normal;marker:none" d="M82.992 64.115c-.191.198-3.243-1.822-3.514-1.775-.271.048-2.45 2.989-2.697 2.868-.248-.121.73-3.647.601-3.89-.13-.244-3.6-1.407-3.56-1.68.038-.273 3.694-.432 3.885-.63.192-.199.226-3.858.497-3.906.272-.048 1.553 3.38 1.8 3.501.248.121 3.74-.977 3.868-.734.13.243-2.735 2.521-2.773 2.794-.039.273 2.085 3.254 1.893 3.452z" color="#000" display="block" overflow="visible" fill-opacity=".247" stroke-width=".372" enable-background="accumulate"/><path d="M82.992 63.434c-.191.198-3.243-1.822-3.514-1.774-.271.047-2.45 2.988-2.697 2.867-.248-.12.73-3.647.601-3.89-.13-.244-3.6-1.407-3.56-1.68.038-.273 3.694-.432 3.885-.63.192-.198.226-3.858.497-3.906.272-.047 1.553 3.38 1.8 3.501.248.121 3.74-.977 3.868-.734.13.244-2.735 2.521-2.773 2.794-.039.273 2.085 3.254 1.893 3.452z" style="isolation:auto;mix-blend-mode:normal;marker:none" color="#000" display="block" overflow="visible" fill="#fefefe" stroke-width=".372" enable-background="accumulate"/><ellipse style="isolation:auto;mix-blend-mode:normal;marker:none" cx="8.116" cy="86.176" rx="11.198" ry="3.173" transform="rotate(-40.62)" color="#000" display="block" overflow="visible" fill="#fff" fill-opacity=".286" stroke-width=".489" enable-background="accumulate"/><ellipse transform="rotate(25.023)" ry="1.232" rx="4.347" cy="11.354" cx="106.662" style="isolation:auto;mix-blend-mode:normal;marker:none" color="#000" display="block" overflow="visible" fill="#fff" fill-opacity=".159" stroke-width=".19" enable-background="accumulate"/><ellipse transform="rotate(-40.62)" ry="3.427" rx="12.093" cy="137.328" cx="7.822" style="isolation:auto;mix-blend-mode:normal;marker:none" color="#000" display="block" overflow="visible" fill="#fff" fill-opacity=".066" stroke-width=".528" enable-background="accumulate"/><g transform="matrix(.76433 0 0 .76433 -49.36 -40.376)" stroke-width="1.947"><path d="M202.923 129.8l-36.988 64.065c-.538.93.536 2.557 2.398 3.632 1.863 1.075 3.808 1.192 4.346.261l36.988-64.065z" fill="url(#m)" stroke="url(#n)" stroke-linejoin="round"/><path d="M202.923 129.8l-9.734 16.859c-.537.93.536 2.557 2.399 3.632 1.862 1.076 3.807 1.192 4.345.261l9.734-16.859z" fill="url(#o)" stroke="#babdb6" stroke-linejoin="round"/><ellipse transform="rotate(30)" cx="244.53" cy="10.948" rx="3.893" ry="1.947" fill="#d3d7cf" stroke="#babdb6"/></g></g></svg>