<svg xmlns="http://www.w3.org/2000/svg" xmlns:xlink="http://www.w3.org/1999/xlink" height="64" viewBox="0 0 64 64" width="64"><title>Template icons dark</title><defs><linearGradient id="a"><stop offset="0" stop-color="#4d77d3"/><stop offset=".453" stop-color="#767294"/><stop offset="1" stop-color="#a6659c"/></linearGradient><linearGradient id="b"><stop offset="0" stop-color="#0b1528"/><stop offset="1" stop-color="#473d49"/></linearGradient><linearGradient xlink:href="#b" id="c" x1="26.4" y1="60.613" x2="26.4" y2="-12.187" gradientUnits="userSpaceOnUse" gradientTransform="matrix(.74178 0 0 .72369 62.24 62.674)"/><linearGradient xlink:href="#a" id="d" x1="53.271" y1="55.429" x2="-10.45" y2="-7.238" gradientUnits="userSpaceOnUse" gradientTransform="matrix(.80172 0 0 .80399 60.52 60.795)"/></defs><g transform="translate(-48 -48)"><rect ry="2" y="52" x="49" height="56" width="62" style="isolation:auto;mix-blend-mode:normal;marker:none" color="#000" overflow="visible" fill-opacity=".077" stroke-width=".228" stroke-opacity=".471"/><rect style="isolation:auto;mix-blend-mode:normal;marker:none" width="60" height="54" x="50.109" y="53.109" ry="3" color="#000" overflow="visible" fill="url(#c)" stroke-width=".218" stroke-opacity=".471"/><rect style="isolation:auto;mix-blend-mode:normal;marker:none" width="59" height="53" x="50.5" y="53.5" ry="2" color="#000" overflow="visible" fill="none" stroke="url(#d)"/><rect style="isolation:auto;mix-blend-mode:normal;marker:none" width="16" height="3" x="67" y="71" ry="0" color="#000" overflow="visible" fill="#8affca" fill-opacity=".984" stroke-width=".816"/><path style="line-height:10;-inkscape-font-specification:'Ubuntu Mono'" d="M59.564 70.851q.663 0 1.105-.092.46-.11.718-.294.258-.203.368-.46.11-.277.11-.59 0-.46-.22-.773-.221-.332-.608-.571-.368-.258-.847-.442-.479-.203-.995-.387-.497-.184-.994-.405-.479-.221-.866-.534-.368-.332-.607-.774-.24-.46-.24-1.123 0-1.178.7-1.915.7-.737 2.026-.94v-1.896h1.362v1.842q.737.036 1.345.184.626.129.994.276l-.313 1.289q-.387-.147-.976-.295-.59-.165-1.491-.165-.995 0-1.529.368-.516.368-.516 1.068 0 .387.148.644.165.258.46.46.295.203.681.37.406.165.903.35.626.238 1.215.515.59.257 1.031.626.442.368.7.884.276.515.276 1.233 0 1.087-.718 1.842-.718.755-2.21.94v2.117h-1.362V72.14q-1.16-.036-1.879-.257-.718-.221-1.068-.424l.405-1.27q.498.239 1.179.46.681.202 1.713.202z" font-weight="400" font-size="10.102" font-family="Ubuntu Mono" letter-spacing="0" word-spacing="0" fill="#8affca" fill-opacity=".984" stroke-width="1.823"/></g></svg>