<svg xmlns="http://www.w3.org/2000/svg" xmlns:xlink="http://www.w3.org/1999/xlink" height="96" viewBox="0 0 96 96" width="96"><title>Template icons dark</title><defs><linearGradient id="c"><stop offset="0" stop-color="#24303f"/><stop offset="1" stop-color="#304155"/></linearGradient><linearGradient id="b"><stop offset="0" stop-color="#5a41e2"/><stop offset="1" stop-color="#4c9ce0" stop-opacity=".945"/></linearGradient><linearGradient id="a"><stop offset="0" stop-color="#fffefe"/><stop offset="1" stop-color="#fff" stop-opacity=".855"/></linearGradient><linearGradient xlink:href="#c" id="d" x1="171.402" y1="199.004" x2="171.402" y2="116" gradientUnits="userSpaceOnUse"/></defs><path style="isolation:auto;mix-blend-mode:normal;marker:none" d="M15.422 3h65.156C87.46 3 93 8.54 93 15.422v65.156C93 87.46 87.46 93 80.578 93H15.422A12.395 12.395 0 0 1 3 80.578V15.422C3 8.54 8.54 3 15.422 3z" color="#000" display="block" overflow="visible" fill-opacity=".126" paint-order="fill markers stroke"/><path style="isolation:auto;mix-blend-mode:normal;marker:none" d="M128.146 116h63.708A12.12 12.12 0 0 1 204 128.146v63.708A12.12 12.12 0 0 1 191.854 204h-63.708A12.12 12.12 0 0 1 116 191.854v-63.708A12.12 12.12 0 0 1 128.146 116z" color="#000" display="block" overflow="visible" fill="url(#d)" paint-order="fill markers stroke" transform="translate(-112 -112)"/><path style="isolation:auto;mix-blend-mode:normal;marker:none" d="M4 78.854v1A12.12 12.12 0 0 0 16.147 92h63.707A12.12 12.12 0 0 0 92 79.854v-1A12.12 12.12 0 0 1 79.854 91H16.147A12.12 12.12 0 0 1 4 78.854z" color="#000" display="block" overflow="visible" fill="#f2f2f8" fill-opacity=".153" paint-order="fill markers stroke"/><path d="M69.031 66.808c-6.64 3.557-13.858 5.27-20.426 5.27-9.732 0-19.156-3.366-26.778-8.956-.669-.488-1.162.373-.606 1.006 7.068 8.037 16.398 12.87 26.765 12.87 7.397 0 15.983-2.934 21.908-8.443.981-.911.14-2.284-.863-1.747zm1.62 5.355c-.22.548.25.773.749.355 3.235-2.707 4.071-8.376 3.41-9.193-.658-.811-6.313-1.512-9.763.911-.532.373-.44.887.15.815 1.945-.232 6.27-.754 7.039.237.77.99-.858 5.06-1.586 6.875z" clip-rule="evenodd" fill="#ff9802" fill-opacity=".984" fill-rule="evenodd"/><path d="M52.732 43.384c0 2.978.07 5.452-1.428 8.098-1.213 2.153-3.144 3.475-5.283 3.475-2.933 0-4.644-2.233-4.644-5.539 0-6.505 5.836-7.689 11.357-7.689v1.655zm7.699 18.62c-.505.456-1.237.485-1.8.178-2.542-2.107-2.992-3.083-4.384-5.089-4.19 4.27-7.158 5.551-12.587 5.551-6.428 0-11.433-3.965-11.433-11.901 0-6.199 3.361-10.413 8.144-12.48 4.144-1.821 9.932-2.152 14.359-2.645v-.99c0-1.82.145-3.969-.926-5.544-.93-1.4-2.716-1.982-4.29-1.982-2.911 0-5.502 1.493-6.137 4.584-.13.689-.63 1.37-1.327 1.407l-7.397-.805c-.626-.135-1.324-.643-1.14-1.595 1.7-8.98 9.81-11.691 17.075-11.691 3.714 0 8.571.99 11.497 3.804 3.717 3.47 3.364 8.1 3.364 13.14v11.897c0 3.579 1.489 5.147 2.88 7.078.494.693.598 1.522-.023 2.027a299.285 299.285 0 0 0-5.856 5.073z" clip-rule="evenodd" fill="#fff" fill-opacity=".984" fill-rule="evenodd"/></svg>