<svg xmlns="http://www.w3.org/2000/svg" xmlns:xlink="http://www.w3.org/1999/xlink" height="96" viewBox="0 0 96 96" width="96"><title>Template icons dark</title><defs><linearGradient id="b"><stop offset="0" stop-color="#ff053c"/><stop offset="1" stop-color="#0b31ff" stop-opacity=".974"/></linearGradient><linearGradient xlink:href="#a" id="c" x1="24.535" y1="7.996" x2="24.705" y2="38.25" gradientUnits="userSpaceOnUse" gradientTransform="matrix(2.13109 0 0 2.13109 108.68 105.531)"/><linearGradient id="a"><stop offset="0" stop-color="#20c686"/><stop offset="1" stop-color="#259d68"/></linearGradient><linearGradient xlink:href="#b" id="d" x1="122" y1="183" x2="196" y2="142" gradientUnits="userSpaceOnUse"/></defs><g transform="translate(-112 -112)"><circle style="isolation:auto;mix-blend-mode:normal;marker:none" cx="160" cy="160" r="47" color="#000" display="block" overflow="visible" fill-opacity=".157"/><circle style="isolation:auto;mix-blend-mode:normal;marker:none" cx="160" cy="160" r="44.508" color="#000" overflow="visible" fill="url(#c)" stroke="#fff" stroke-width="2.48"/><circle r="44.508" cy="160" cx="160" style="isolation:auto;mix-blend-mode:normal;marker:none" color="#000" overflow="visible" opacity=".109" fill="url(#d)" stroke="#fff" stroke-width="2.48"/><circle r="7.574" cy="160" cx="160" style="isolation:auto;mix-blend-mode:normal;marker:none" color="#000" overflow="visible" fill="#efefef" fill-opacity=".214"/><circle style="isolation:auto;mix-blend-mode:normal;marker:none" cx="160" cy="160" r="36.619" color="#000" overflow="visible" fill="none" stroke="#fff" stroke-width="1.146" stroke-dasharray="1.14576798,9.16614386" stroke-opacity=".292"/><path d="M171.293 192.17c-5.037-.837-11.58-6.603-17.552-15.472-2.506-3.72-5.07-8.315-6.743-12.085-.336-.756-.459-.938-.56-.83-.203.218-1.662 3.388-2.43 5.283-1.292 3.187-2.203 6.226-2.725 9.092-.334 1.836-.363 5.393-.052 6.496.722 2.56 2.287 3.625 4.729 3.215 1.76-.295 3.89-1.259 6.152-2.783 1.004-.677 1.268-.806 1.656-.808.594-.004 1.037.32 1.245.907.138.39.137.503-.004.875-.136.357-.37.569-1.43 1.287-1.464.993-3.968 2.272-5.25 2.682-3.356 1.074-5.967.68-7.808-1.177-1.689-1.703-2.416-4.46-2.192-8.303.292-5.003 2.49-11.832 5.966-18.527l.871-1.678-.658-1.781c-.63-1.704-1.876-5.656-1.876-5.949 0-.216-.381-.172-2.052.24-3.829.941-6.673 2.14-8.714 3.671-4.01 3.01-2.948 6.404 3.062 9.785.957.538 1.178.828 1.178 1.545 0 .374-.07.528-.376.835-.657.657-1.27.52-3.298-.738-2.934-1.82-4.79-3.891-5.443-6.076-.239-.798-.24-2.405-.001-3.208.347-1.17.93-2.1 1.984-3.159 2.36-2.374 6.274-4.197 11.643-5.422 1.093-.25 1.346-.343 1.305-.482-.028-.095-.153-.72-.278-1.39-.73-3.916-.752-8.405-.054-10.895.805-2.871 2.262-4.58 4.584-5.377.949-.326 2.847-.274 4.148.112 1.31.39 2.934 1.19 4.37 2.152 1.71 1.147 2.215 1.628 2.288 2.182.166 1.274-1.15 1.96-2.223 1.16-3.368-2.507-5.772-3.461-7.698-3.055-1.4.296-2.47 1.735-3.01 4.048-.214.92-.243 1.357-.244 3.645-.001 2.597.036 3.014.51 5.737l.238 1.368.562-.068c2.578-.311 4.8-.528 6.17-.602l1.626-.087.254-.326c2.746-3.531 6.74-7.655 9.767-10.084 5.797-4.65 10.768-6.266 14.188-4.61 1.931.936 3.152 2.849 3.626 5.68.309 1.849.065 6.224-.416 7.457-.167.426-.7.733-1.274.733-.361 0-.55-.073-.83-.322-.33-.295-.36-.378-.358-.968 0-.355.094-1.367.207-2.25.326-2.564.102-4.935-.598-6.306-.34-.666-1.034-1.377-1.635-1.673-.451-.222-.683-.256-1.738-.253-1.107.004-1.324.041-2.417.414-3.382 1.153-7.258 3.926-11.418 8.169a80.572 80.572 0 0 0-2.65 2.858l-1.206 1.382 1.048.025c14.66.348 27.016 3.714 32.84 8.948 1.311 1.178 2.44 2.933 2.769 4.301.166.694.17 2.04.006 2.762-.602 2.661-3.527 5.277-7.793 6.968-.674.267-.816.289-1.18.18-.597-.18-.984-.683-.984-1.282 0-.704.339-1.041 1.557-1.552 2.649-1.111 4.704-2.669 5.484-4.158.27-.517.312-.718.311-1.535 0-.85-.035-1.01-.37-1.66-.473-.916-2.036-2.483-3.332-3.34-6.368-4.212-18.367-6.946-30.481-6.946h-1.999l-.753 1.023c-1.126 1.53-3.571 5.25-4.544 6.915l-.858 1.468.59 1.353c5.913 13.571 15.093 25.03 21.865 27.29 1.472.492 2.586.516 3.486.076 1.685-.825 2.568-2.965 2.703-6.554.226-5.992-1.931-14.273-5.955-22.854-.418-.89-.668-1.569-.668-1.81 0-.726.596-1.297 1.343-1.286.664.008.955.275 1.46 1.333 3.264 6.825 5.44 13.663 6.251 19.648.273 2.013.275 6.109.004 7.573-.434 2.341-1.208 4.028-2.39 5.216-1.442 1.447-3.313 2-5.526 1.632zm-23.409-36.433a86.108 86.108 0 0 1 1.787-2.732c.57-.834 1.036-1.55 1.036-1.59 0-.143-5.227.386-5.385.544-.095.095.218 1.26.914 3.4.506 1.556.643 1.872.757 1.747.077-.084.478-.7.891-1.37zm11.152 9.922c-1.662-.594-2.633-1.98-2.61-3.728.012-.915.22-1.542.754-2.271 1.356-1.847 4.124-2.057 5.791-.44 1.914 1.858 1.348 5.173-1.074 6.282-.833.381-2.046.448-2.861.157z" fill-opacity=".235"/><path d="M171.293 190.17c-5.037-.837-11.58-6.603-17.552-15.472-2.506-3.72-5.07-8.315-6.743-12.085-.336-.756-.459-.938-.56-.83-.203.218-1.662 3.388-2.43 5.283-1.292 3.187-2.203 6.226-2.725 9.092-.334 1.836-.363 5.393-.052 6.496.722 2.56 2.287 3.625 4.729 3.215 1.76-.295 3.89-1.259 6.152-2.783 1.004-.677 1.268-.806 1.656-.808.594-.004 1.037.32 1.245.907.138.39.137.503-.004.875-.136.357-.37.569-1.43 1.287-1.464.993-3.968 2.272-5.25 2.682-3.356 1.074-5.967.68-7.808-1.177-1.689-1.703-2.416-4.46-2.192-8.303.292-5.003 2.49-11.832 5.966-18.527l.871-1.678-.658-1.781c-.63-1.704-1.876-5.656-1.876-5.949 0-.216-.381-.172-2.052.24-3.829.941-6.673 2.14-8.714 3.671-4.01 3.01-2.948 6.404 3.062 9.785.957.538 1.178.828 1.178 1.545 0 .374-.07.528-.376.835-.657.657-1.27.52-3.298-.738-2.934-1.82-4.79-3.891-5.443-6.076-.239-.798-.24-2.405-.001-3.208.347-1.17.93-2.1 1.984-3.159 2.36-2.374 6.274-4.197 11.643-5.422 1.093-.25 1.346-.343 1.305-.482-.028-.095-.153-.72-.278-1.39-.73-3.916-.752-8.405-.054-10.895.805-2.871 2.262-4.58 4.584-5.377.949-.326 2.847-.274 4.148.112 1.31.39 2.934 1.19 4.37 2.152 1.71 1.147 2.215 1.628 2.288 2.182.166 1.274-1.15 1.96-2.223 1.16-3.368-2.507-5.772-3.461-7.698-3.055-1.4.296-2.47 1.735-3.01 4.048-.214.92-.243 1.357-.244 3.645-.001 2.597.036 3.014.51 5.737l.238 1.368.562-.068c2.578-.311 4.8-.528 6.17-.602l1.626-.087.254-.326c2.746-3.531 6.74-7.655 9.767-10.084 5.797-4.65 10.768-6.266 14.188-4.61 1.931.936 3.152 2.849 3.626 5.68.309 1.849.065 6.224-.416 7.457-.167.426-.7.733-1.274.733-.361 0-.55-.073-.83-.322-.33-.295-.36-.378-.358-.968 0-.355.094-1.367.207-2.25.326-2.564.102-4.935-.598-6.306-.34-.666-1.034-1.377-1.635-1.673-.451-.222-.683-.256-1.738-.253-1.107.004-1.324.041-2.417.414-3.382 1.153-7.258 3.926-11.418 8.169a80.572 80.572 0 0 0-2.65 2.858l-1.206 1.382 1.048.025c14.66.348 27.016 3.714 32.84 8.948 1.311 1.178 2.44 2.933 2.769 4.301.166.694.17 2.04.006 2.762-.602 2.661-3.527 5.277-7.793 6.968-.674.267-.816.289-1.18.18-.597-.18-.984-.683-.984-1.282 0-.704.339-1.041 1.557-1.552 2.649-1.111 4.704-2.669 5.484-4.158.27-.517.312-.718.311-1.535 0-.85-.035-1.01-.37-1.66-.473-.916-2.036-2.483-3.332-3.34-6.368-4.212-18.367-6.946-30.481-6.946h-1.999l-.753 1.023c-1.126 1.53-3.571 5.25-4.544 6.915l-.858 1.468.59 1.353c5.913 13.571 15.093 25.03 21.865 27.29 1.472.492 2.586.516 3.486.076 1.685-.825 2.568-2.965 2.703-6.554.226-5.992-1.931-14.273-5.955-22.854-.418-.89-.668-1.569-.668-1.81 0-.726.596-1.297 1.343-1.286.664.008.955.275 1.46 1.333 3.264 6.825 5.44 13.663 6.251 19.648.273 2.013.275 6.109.004 7.573-.434 2.341-1.208 4.028-2.39 5.216-1.442 1.447-3.313 2-5.526 1.632zm-23.409-36.433a86.108 86.108 0 0 1 1.787-2.732c.57-.834 1.036-1.55 1.036-1.59 0-.143-5.227.386-5.385.544-.095.095.218 1.26.914 3.4.506 1.556.643 1.872.757 1.747.077-.084.478-.7.891-1.37zm11.152 9.922c-1.662-.594-2.633-1.98-2.61-3.728.012-.915.22-1.542.754-2.271 1.356-1.847 4.124-2.057 5.791-.44 1.914 1.858 1.348 5.173-1.074 6.282-.833.381-2.046.448-2.861.157z" fill="#fff" stroke="#fff" stroke-width=".44"/><path style="isolation:auto;mix-blend-mode:normal;marker:none" d="M203.287 158.414A43.307 44.508 0 0 1 160 202.508a43.307 44.508 0 0 1-43.287-43.922 43.307 44.508 0 0 0-.02.414A43.307 44.508 0 0 0 160 203.508 43.307 44.508 0 0 0 203.308 159a43.307 44.508 0 0 0-.021-.586z" color="#000" overflow="visible" fill-opacity=".297"/><path d="M203.487 161.872A43.508 44.508 0 0 0 160 117.778a43.508 44.508 0 0 0-43.487 43.922 43.508 44.508 0 0 1-.021-.414A43.508 44.508 0 0 1 160 116.778a43.508 44.508 0 0 1 43.508 44.508 43.508 44.508 0 0 1-.02.586z" style="isolation:auto;mix-blend-mode:normal;marker:none" color="#000" overflow="visible" fill="#242424" fill-opacity=".471"/></g></svg>