<svg xmlns="http://www.w3.org/2000/svg" xmlns:xlink="http://www.w3.org/1999/xlink" height="96" viewBox="0 0 96 96" width="96"><title>Template icons dark</title><defs><linearGradient id="c"><stop offset="0" stop-color="#dbdbdb"/><stop offset="1" stop-color="#fff"/></linearGradient><linearGradient xlink:href="#a" id="f" x1="31" y1="38.2" x2="31" y2="16.075" gradientUnits="userSpaceOnUse" gradientTransform="translate(112.435 106.516) scale(1.98448)"/><linearGradient id="a"><stop offset="0" stop-color="#343434"/><stop offset="1" stop-color="#585858"/></linearGradient><linearGradient xlink:href="#b" id="d" x1="25" y1="45.7" x2="25" y2="8.075" gradientUnits="userSpaceOnUse" gradientTransform="matrix(2.2 0 0 2.2 107.2 100.16)"/><linearGradient id="b"><stop offset="0" stop-color="#0086f7"/><stop offset="1" stop-color="#60cdff"/></linearGradient><linearGradient xlink:href="#c" id="e" x1="164.959" y1="189.342" x2="164.959" y2="137.236" gradientUnits="userSpaceOnUse" gradientTransform="matrix(1.01537 0 0 1.01537 -2.459 -2.459)"/></defs><path d="M7.219 3H88.78A4.21 4.21 0 0 1 93 7.219V88.78A4.21 4.21 0 0 1 88.781 93H7.22A4.21 4.21 0 0 1 3 88.781V7.22A4.21 4.21 0 0 1 7.219 3z" fill-opacity=".078"/><path d="M120.125 116h79.75a4.116 4.116 0 0 1 4.125 4.125v79.75a4.116 4.116 0 0 1-4.125 4.125h-79.75a4.116 4.116 0 0 1-4.125-4.125v-79.75a4.116 4.116 0 0 1 4.125-4.125z" fill="url(#d)" transform="translate(-112 -112)"/><path d="M4 86.875v1A4.116 4.116 0 0 0 8.125 92h79.75A4.116 4.116 0 0 0 92 87.875v-1A4.116 4.116 0 0 1 87.875 91H8.125A4.116 4.116 0 0 1 4 86.875z" fill="#fff" fill-opacity=".219"/><path d="M16.318 14h63.364A3.31 3.31 0 0 1 83 17.318v63.364A3.31 3.31 0 0 1 79.682 84H16.318A3.31 3.31 0 0 1 13 80.682V17.318A3.31 3.31 0 0 1 16.318 14z" fill-opacity=".385"/><path d="M128.318 125h63.364a3.31 3.31 0 0 1 3.318 3.318v63.364a3.31 3.31 0 0 1-3.318 3.318h-63.364a3.31 3.31 0 0 1-3.318-3.318v-63.364a3.31 3.31 0 0 1 3.318-3.318z" fill="url(#e)" transform="translate(-112 -112)"/><path d="M13 78.659v1.015a3.31 3.31 0 0 0 3.318 3.318h63.364A3.31 3.31 0 0 0 83 79.674v-1.015a3.31 3.31 0 0 1-3.318 3.317H16.318A3.31 3.31 0 0 1 13 78.66z" fill="#f8f8f8"/><path d="M135 135.992v49.134l21-.126v-11h-10v-28h10v-10zm29 .008v10h10v28h-10v11h21v-49z" fill="url(#f)" transform="translate(-112 -112)"/><path d="M23 23.992v1L44 25v-1zM52 24v1h21v-1zM34 62v1h10v-1zm18 0v1h10v-1z" fill-opacity=".51"/><path d="M34 34v1h10v-1zm18 0v1h10v-1zm-8 39l-21 .127v1L44 74zm8 0v1h21v-1z" fill="#fff" fill-opacity=".948"/></svg>