<svg xmlns="http://www.w3.org/2000/svg" xmlns:xlink="http://www.w3.org/1999/xlink" height="96" viewBox="0 0 96 96" width="96" enable-background="new"><title>Template icons dark</title><defs><filter id="d" x="-.012" width="1.024" y="-.012" height="1.024" color-interpolation-filters="sRGB"><feGaussianBlur stdDeviation=".23"/></filter><linearGradient gradientTransform="matrix(1.99558 0 0 1.99558 112.106 112.106)" xlink:href="#a" id="e" x1="38.031" y1="40.335" x2="34.022" y2="21.617" gradientUnits="userSpaceOnUse"/><linearGradient id="a"><stop offset="0" stop-color="#99c7d1"/><stop offset="1" stop-color="#e4eff7"/></linearGradient><linearGradient gradientTransform="matrix(1.99558 0 0 1.99558 112.106 112.106)" xlink:href="#b" id="f" x1="22.716" y1="14.943" x2="26.34" y2="-.083" gradientUnits="userSpaceOnUse"/><linearGradient id="b"><stop offset="0" stop-color="#4378aa"/><stop offset="1" stop-color="#3797ca"/></linearGradient><linearGradient gradientTransform="matrix(1.99558 0 0 1.99558 112.106 112.106)" xlink:href="#c" id="g" gradientUnits="userSpaceOnUse" x1="9.969" y1="38.031" x2="9.969" y2="19.439"/><linearGradient id="c"><stop offset="0" stop-color="#649ad2"/><stop offset="1" stop-color="#87c7e0"/></linearGradient></defs><g transform="translate(-112 -112)"><circle r="46.512" cy="160" cx="160" style="isolation:auto;mix-blend-mode:normal;marker:none" color="#000" display="block" overflow="visible" opacity=".6" fill="none" stroke="#000" stroke-width="2.975" stroke-opacity=".123" paint-order="fill markers stroke" enable-background="accumulate"/><circle style="isolation:auto;mix-blend-mode:normal;marker:none" cx="160" cy="160" r="10.664" color="#000" display="block" overflow="visible" fill="#4690eb" fill-opacity=".215" paint-order="fill markers stroke" enable-background="accumulate"/><path style="isolation:auto;mix-blend-mode:normal;marker:none" d="M160.063 137.063c-12.703 0-23 10.297-23 23s10.297 23 23 23 23-10.297 23-23-10.297-23-23-23zm-.077 16.434a6.586 6.586 0 1 1 0 13.173 6.586 6.586 0 0 1 0-13.173z" transform="matrix(1.99558 0 0 1.99558 -159.42 -159.42)" color="#000" overflow="visible" fill-opacity=".235" fill-rule="evenodd" filter="url(#d)" enable-background="accumulate"/><path d="M160 118.27c-25.349 0-41.907 16.381-41.907 41.73 0 25.349 16.558 45.898 41.907 45.898 25.349 0 45.898-20.549 45.898-45.898a45.71 45.71 0 0 0-10.363-29.053c-8.418-10.283-21.21-12.678-35.535-12.678zm-.154 28.627c7.259 0 13.143 5.884 13.143 13.144 0 7.259-6.244 13.554-13.503 13.554-7.413.77-13.934-3.53-14.221-14.273-.243-9.062 9.786-13.709 14.58-12.425z" fill="url(#e)" fill-rule="evenodd"/><path d="M160 114.102c-16.934 0-31.715 9.178-39.67 22.824l28.872 30.825c-2.413-3.2-2.5-6.551-2.5-7.71 0-6.913 5.34-12.568 12.117-13.093l42.711-6.834c-1.584-3.288-3.53-6.548-5.819-9.343-8.417-10.283-21.386-16.67-35.711-16.67z" fill="url(#f)" fill-rule="evenodd"/><path d="M119.17 180.974c7.735 15.064 22.653 24.02 38.425 24.862l11.028-36.024a13.118 13.118 0 0 1-2.774 1.926c-6.149 3.158-13.618.991-17.181-4.798l-25.25-34.636a45.94 45.94 0 0 0-5.496 9.364c-5.302 12.185-5.296 26.563 1.248 39.306z" style="isolation:auto;mix-blend-mode:normal" color="#000" overflow="visible" fill="url(#g)" fill-rule="evenodd" enable-background="accumulate"/><path d="M123.269 132l24.1 23.927s-.999 3.051-.604 5.733c.383 2.6 1.631 4.85 1.631 4.85zM201.346 140.16l-31.65 11.116s-2.191-2.244-4.135-3.085c-3.562-1.542-6.14-1.327-6.14-1.327zM157.6 205.874l3.104-32.7s2.217-.009 5.385-1.538c.937-.453 2.538-1.82 2.538-1.82z" fill-opacity=".11" fill-rule="evenodd"/></g></svg>