<svg xmlns="http://www.w3.org/2000/svg" xmlns:xlink="http://www.w3.org/1999/xlink" height="96" viewBox="0 0 96 96" width="96"><title>Template icons dark</title><defs><linearGradient xlink:href="#a" id="d" gradientUnits="userSpaceOnUse" gradientTransform="translate(108.109 101.202) scale(2.30628)" x1="40.461" y1="43.461" x2="24.042" y2="10.5"/><linearGradient id="a"><stop offset="0" stop-color="#ba0049"/><stop offset="1" stop-color="#ff1edc"/></linearGradient><linearGradient xlink:href="#b" id="e" x1="34.931" y1="44.25" x2="8.627" y2="40.5" gradientUnits="userSpaceOnUse" gradientTransform="translate(108.109 101.202) scale(2.30628)"/><linearGradient id="b"><stop offset="0" stop-color="#00c640"/><stop offset="1" stop-color="#3bcfd5"/></linearGradient><linearGradient xlink:href="#c" id="f" gradientUnits="userSpaceOnUse" gradientTransform="translate(108.109 101.202) scale(2.30628)" x1="19.466" y1="20.754" x2="8.839" y2="39.161"/><linearGradient id="c"><stop offset="0" stop-color="#118fff"/><stop offset="1" stop-color="#00f5ab"/></linearGradient></defs><g fill-rule="evenodd"><path d="M51.362 75L34 68.016 49.953 55zM48.063 0L16 64 0 96h96z" fill-opacity=".174"/><path d="M160 114.942l45.405 90.81h-38.919z" fill="url(#d)" transform="translate(-112 -112)"/><path d="M114.595 205.751l15.135-30.27 75.675 30.27z" fill="url(#e)" transform="translate(-112 -112)"/><path d="M2.595 93.751l15.135-30.27 29.118 11.667z" fill-opacity=".325"/><path d="M160 114.942l-45.405 90.81 48.766-43.725z" fill="url(#f)" transform="translate(-112 -112)"/><path d="M2.595 93.751l28.094-25.14 39.087 15.707z" fill-opacity=".174"/><path d="M52.177 60.972l41.228 32.78-40.063-16.026z" fill-opacity=".261"/><path d="M48 2.942l-4.569 54.112 7.93-7.027z" fill-opacity=".236"/><path d="M48 2.942L25.43 73.275 51.36 50.027zM50.434 35.474L93.405 93.75 53.342 77.726z" fill-opacity=".174"/><path d="M48 2.942l1.75 48.485 1.611-1.4zM53.215 74.649l40.19 19.102-40.063-16.025zM2.595 93.751l28.094-25.14 2.862 1.164z" fill-opacity=".157"/></g></svg>