<svg xmlns="http://www.w3.org/2000/svg" height="96" viewBox="0 0 96 96" width="96" enable-background="new"><title>Template icons dark</title><defs><linearGradient id="a"><stop offset="0" stop-color="#56aff6"/><stop offset="1" stop-color="#2196f3"/></linearGradient><clipPath id="c"><path d="M592-212L272 101.043V-116l-48 24v240l48 24 432-336z" fill="#1565c0" fill-rule="evenodd" enable-background="new"/></clipPath><filter id="b" x="-.024" width="1.048" y="-.024" height="1.048" color-interpolation-filters="sRGB"><feGaussianBlur stdDeviation="4.8"/></filter><filter id="d" x="-.054" width="1.108" y="-.068" height="1.135" color-interpolation-filters="sRGB"><feGaussianBlur stdDeviation="10.8"/></filter></defs><g fill-rule="evenodd"><path d="M152-216L-44.402-23.867-168-120l-48 24v240l48 24 123.598-96.133L152 264l112-48v-384zm0 135.111V128.89L17.143 24zm-320 31.846L-93.334 24-168 97.043z" transform="matrix(.18333 0 0 .18333 43.6 43.753)" opacity=".1" filter="url(#b)" enable-background="new"/><path d="M152-216L-44.402-23.867-168-120l-48 24v240l48 24 123.598-96.133L152 264l112-48v-384zm0 135.111V128.89L17.143 24zm-320 31.846L-93.334 24-168 97.043z" transform="matrix(.18333 0 0 .18333 43.6 43.753)" opacity=".2" filter="url(#b)" enable-background="new"/><path d="M71.467 3.42L35.46 38.644 12.8 21.02 4 25.42v44l8.8 4.4 22.66-17.625L71.467 91.42 92 82.62v-70.4zm0 24.77v38.46L46.743 47.42zM12.8 34.03l13.689 13.39L12.8 60.812z" opacity=".2" enable-background="new"/><path d="M4 69.053v-44l8.8-4.4v52.8z" fill="#1976d2" enable-background="new"/><path d="M71.467 3.053L4 69.053l8.8 4.4 79.2-61.6z" fill="#1565c0" enable-background="new"/><path transform="matrix(.18333 0 0 .18333 -37.067 41.92)" d="M592 272L224-88l48-24 432 336z" clip-path="url(#c)" opacity=".2" filter="url(#d)" enable-background="new"/><path d="M71.467 3.053L4 69.053l.248.124L71.467 3.42l20.229 8.67.304-.237z" opacity=".2" fill="#fff" enable-background="new"/><path d="M71.467 91.053L4 25.053l8.8-4.4 79.2 61.6z" fill="#1e88e5" enable-background="new"/><path d="M12.8 20.653l-8.8 4.4.248.243L12.8 21.02l78.896 61.363.304-.13z" opacity=".2" fill="#fff" enable-background="new"/><path d="M92 82.253v-70.4l-20.533-8.8v88z" fill="#2196f3" enable-background="new"/><path d="M71.467 3.053v.367L92 12.22v-.367z" opacity=".2" fill="#fff" enable-background="new"/></g></svg>