<svg xmlns="http://www.w3.org/2000/svg" xmlns:xlink="http://www.w3.org/1999/xlink" height="96" viewBox="0 0 96 96" width="96"><title>Template icons dark</title><defs><linearGradient id="k"><stop offset="0" stop-color="#3d353d"/><stop offset="1" stop-color="#3b464e"/></linearGradient><linearGradient id="j"><stop offset="0" stop-color="#6a618d"/><stop offset="1" stop-color="#5f81b6"/></linearGradient><linearGradient id="i"><stop offset="0" stop-color="#6e6492"/><stop offset="1" stop-color="#6688ba"/></linearGradient><linearGradient id="h"><stop offset="0" stop-color="#fff" stop-opacity=".368"/><stop offset="1" stop-color="#fff" stop-opacity=".289"/></linearGradient><linearGradient id="g"><stop offset="0" stop-color="#dedede"/><stop offset="1" stop-color="#cfcfcf"/></linearGradient><linearGradient id="e"><stop offset="0" stop-color="#093adc" stop-opacity=".325"/><stop offset=".514" stop-color="#621fed" stop-opacity=".099"/><stop offset="1" stop-color="#b707ff" stop-opacity=".45"/></linearGradient><linearGradient id="f"><stop offset="0" stop-color="#093adc" stop-opacity=".55"/><stop offset=".511" stop-color="#611fed" stop-opacity=".183"/><stop offset="1" stop-color="#b707ff" stop-opacity=".33"/></linearGradient><linearGradient id="d"><stop offset="0" stop-color="#fff" stop-opacity=".322"/><stop offset="1" stop-color="#fff" stop-opacity=".217"/></linearGradient><linearGradient id="a"><stop offset="0" stop-color="#9081c4"/><stop offset="1" stop-color="#8baddf"/></linearGradient><linearGradient id="b"><stop offset="0" stop-color="#9751de"/><stop offset="1" stop-color="#3c87f8"/></linearGradient><linearGradient id="c"><stop offset="0" stop-color="#eaf03f" stop-opacity=".422"/><stop offset="1" stop-color="#4e79e6" stop-opacity=".416"/></linearGradient><linearGradient xlink:href="#b" id="r" x1="212.945" y1="123.216" x2="298.799" y2="196.784" gradientUnits="userSpaceOnUse" gradientTransform="matrix(1.02084 0 0 .97869 -101.383 3.41)"/><linearGradient xlink:href="#c" id="s" gradientUnits="userSpaceOnUse" gradientTransform="matrix(1.02084 0 0 .97869 -101.383 3.41)" x1="295.139" y1="128.574" x2="216.105" y2="194.162"/><linearGradient x2="1" gradientUnits="userSpaceOnUse" gradientTransform="scale(37.65896) rotate(-88.059 4.182 .033)" id="t"><stop offset="0" stop-color="#888c8f"/><stop offset=".062" stop-color="#888c8f"/><stop offset=".677" stop-color="#fff"/><stop offset=".971" stop-color="#c5c7c6"/><stop offset="1" stop-color="#c5c7c6"/></linearGradient><linearGradient x1="-.006" y1=".936" x2="1.249" y2="-.572" gradientUnits="userSpaceOnUse" gradientTransform="rotate(-88.059 163.826 7.503) scale(35.6457)" id="u"><stop offset="0" stop-color="#636869"/><stop offset=".119" stop-color="#a4a8aa"/><stop offset=".177" stop-color="#c6c9ca"/><stop offset=".265" stop-color="#b7babb"/><stop offset=".501" stop-color="#d8d8d8"/><stop offset=".642" stop-color="#cfd0d0"/><stop offset=".73" stop-color="#c9d9d9"/><stop offset=".84" stop-color="#cbcccc"/><stop offset=".971" stop-color="#dadbdb"/><stop offset="1" stop-color="#dbdddc"/></linearGradient><linearGradient x1=".297" y1="-.219" x2=".827" y2=".252" gradientUnits="userSpaceOnUse" gradientTransform="scale(36.36815) rotate(18.09 -11.34 17.011)" id="v"><stop offset="0" stop-color="#cdc9c1"/><stop offset=".181" stop-color="#f4f3f1"/><stop offset=".492" stop-color="#b8b8b8"/><stop offset=".931" stop-color="#efeeeb"/><stop offset="1" stop-color="#fff"/></linearGradient><linearGradient x2="1" gradientUnits="userSpaceOnUse" gradientTransform="scale(-25.52501 25.52501) rotate(21.485 -18.377 -13.86)" id="w"><stop offset="0" stop-color="#888c8f"/><stop offset=".062" stop-color="#888c8f"/><stop offset=".677" stop-color="#fff"/><stop offset=".971" stop-color="#c5c7c6"/><stop offset="1" stop-color="#c5c7c6"/></linearGradient><linearGradient x1=".204" y1=".178" x2=".988" y2="-.108" gradientUnits="userSpaceOnUse" gradientTransform="scale(69.4056) rotate(-71.943 2.912 -.084)" id="x"><stop offset="0" stop-color="#a1a5a7"/><stop offset=".052" stop-color="#aeb1b3"/><stop offset=".178" stop-color="#d9dbdc"/><stop offset=".499" stop-color="#dcdfdf"/><stop offset=".677" stop-color="#fff"/><stop offset=".971" stop-color="#c5c7c6"/><stop offset="1" stop-color="#c5c7c6"/></linearGradient><linearGradient x1=".292" y1="-.05" x2=".949" y2="-.086" gradientUnits="userSpaceOnUse" gradientTransform="scale(36.36778 -36.36778) rotate(-68.481 -1.174 -5.63)" id="y"><stop offset="0" stop-color="#dcd9d4"/><stop offset=".019" stop-color="#dedcd7"/><stop offset=".402" stop-color="#c7d2d5"/><stop offset=".882" stop-color="#fbfbfa"/><stop offset="1" stop-color="#a7a093"/></linearGradient><linearGradient x1=".297" y1="-.219" x2=".827" y2=".252" gradientUnits="userSpaceOnUse" gradientTransform="scale(36.36815) rotate(18.09 -11.34 17.011)" id="l"><stop offset="0" stop-color="#cdc9c1"/><stop offset=".181" stop-color="#f4f3f1"/><stop offset=".492" stop-color="#b8b8b8"/><stop offset=".931" stop-color="#efeeeb"/><stop offset="1" stop-color="#fff"/></linearGradient><linearGradient x2="1" gradientUnits="userSpaceOnUse" gradientTransform="scale(-25.52501 25.52501) rotate(21.485 -18.377 -13.86)" id="m"><stop offset="0" stop-color="#888c8f"/><stop offset=".062" stop-color="#888c8f"/><stop offset=".677" stop-color="#fff"/><stop offset=".971" stop-color="#c5c7c6"/><stop offset="1" stop-color="#c5c7c6"/></linearGradient><linearGradient x1=".204" y1=".178" x2=".988" y2="-.108" gradientUnits="userSpaceOnUse" gradientTransform="scale(69.4056) rotate(-71.943 2.912 -.084)" id="n"><stop offset="0" stop-color="#a1a5a7"/><stop offset=".052" stop-color="#aeb1b3"/><stop offset=".178" stop-color="#d9dbdc"/><stop offset=".499" stop-color="#dcdfdf"/><stop offset=".677" stop-color="#fff"/><stop offset=".971" stop-color="#c5c7c6"/><stop offset="1" stop-color="#c5c7c6"/></linearGradient><linearGradient x1=".292" y1="-.05" x2=".949" y2="-.086" gradientUnits="userSpaceOnUse" gradientTransform="scale(36.36778 -36.36778) rotate(-68.481 -1.174 -5.63)" id="o"><stop offset="0" stop-color="#dcd9d4"/><stop offset=".019" stop-color="#dedcd7"/><stop offset=".402" stop-color="#c7d2d5"/><stop offset=".882" stop-color="#fbfbfa"/><stop offset="1" stop-color="#a7a093"/></linearGradient><linearGradient x2="1" gradientUnits="userSpaceOnUse" gradientTransform="scale(37.65896) rotate(-88.059 4.182 .033)" id="p"><stop offset="0" stop-color="#888c8f"/><stop offset=".062" stop-color="#888c8f"/><stop offset=".677" stop-color="#fff"/><stop offset=".971" stop-color="#c5c7c6"/><stop offset="1" stop-color="#c5c7c6"/></linearGradient><linearGradient x1="-.006" y1=".936" x2="1.249" y2="-.572" gradientUnits="userSpaceOnUse" gradientTransform="rotate(-88.059 163.826 7.503) scale(35.6457)" id="q"><stop offset="0" stop-color="#636869"/><stop offset=".119" stop-color="#a4a8aa"/><stop offset=".177" stop-color="#c6c9ca"/><stop offset=".265" stop-color="#b7babb"/><stop offset=".501" stop-color="#d8d8d8"/><stop offset=".642" stop-color="#cfd0d0"/><stop offset=".73" stop-color="#c9d9d9"/><stop offset=".84" stop-color="#cbcccc"/><stop offset=".971" stop-color="#dadbdb"/><stop offset="1" stop-color="#dbdddc"/></linearGradient></defs><g transform="translate(-112 -112)"><rect ry="0" y="123" x="115" height="74" width="90" style="isolation:auto;mix-blend-mode:normal;marker:none" color="#000" display="block" overflow="visible" fill-opacity=".078" paint-order="fill markers stroke"/><rect style="isolation:auto;mix-blend-mode:normal;marker:none" width="92" height="76" x="114" y="122" ry="0" color="#000" overflow="visible" fill-opacity=".078" paint-order="fill markers stroke"/><path style="isolation:auto;mix-blend-mode:normal;marker:none" color="#000" overflow="visible" fill="url(#r)" paint-order="fill markers stroke" d="M116 124h88v72h-88z"/><path style="isolation:auto;mix-blend-mode:normal;marker:none" color="#000" overflow="visible" fill="url(#s)" paint-order="fill markers stroke" d="M116 124h88v72h-88z"/><path style="isolation:auto;mix-blend-mode:normal;marker:none" color="#000" display="block" overflow="visible" fill="none" stroke="#000" stroke-linecap="square" stroke-dasharray="6,6" stroke-dashoffset="10" stroke-opacity=".242" paint-order="markers stroke fill" d="M120.5 129.5h79v63h-79z"/><path style="isolation:auto;mix-blend-mode:normal;marker:none" color="#000" display="block" overflow="visible" fill="none" stroke="#e5e6e7" stroke-linecap="square" stroke-dasharray="6,6" stroke-dashoffset="10" paint-order="markers stroke fill" d="M120.5 128.5h79v63h-79z"/><path d="M133.28 112.142l17.37 38.233-38.771-19.72 6.335 9.123s2.55 4.251 5.093 5.885c2.488 1.599 9.17 5.526 9.17 5.526l24.615 13.366.26.573s3.634 2.241 4.242 2.902c2.156 2.342 4.42 8.575 5.04 11.697.195.977-.035 3.808-.052 4.01a12.181 12.181 0 0 0-5.755 3.276c-4.778 4.85-4.689 12.674.19 17.476a12.39 12.39 0 0 0 8.204 3.558c3.673.455 7.498-.723 10.285-3.555 4.773-4.847 4.683-12.673-.196-17.476a12.548 12.548 0 0 0-.733-.653l-6.719-13.791 12.17 6.607c.2.26.4.517.622.763 4.583 5.086 12.4 5.52 17.454.966 2.955-2.663 4.298-6.438 4-10.133a12.386 12.386 0 0 0-3.19-8.337c-4.583-5.085-12.394-5.52-17.45-.964a12.188 12.188 0 0 0-3.527 5.608c-.199.008-3.041.112-4.009-.123-3.093-.757-9.218-3.296-11.464-5.556-.03-.03-.08-.098-.116-.142l-13.461-27.637s-3.63-6.846-5.118-9.402c-1.52-2.614-5.653-5.348-5.653-5.348zm60.99 50.017a9.58 9.58 0 0 1 6.602 3.167 9.56 9.56 0 0 1 2.425 5.578 9.456 9.456 0 0 1-3.124 6.895c-3.904 3.518-9.937 3.184-13.478-.746a9.62 9.62 0 0 1-1.422-2.086l-.61-1.49a9.578 9.578 0 0 1-.394-1.981 9.453 9.453 0 0 1 3.122-6.914 9.458 9.458 0 0 1 6.878-2.423zm-23.708 24.09c.11 0 .222.011.333.015.665.09 1.322.251 1.96.482l1.463.674a9.609 9.609 0 0 1 2.015 1.51c3.77 3.712 3.837 9.754.152 13.5-1.924 1.954-4.488 2.887-7.036 2.816a9.563 9.563 0 0 1-5.459-2.67c-3.77-3.71-3.836-9.752-.148-13.5a9.456 9.456 0 0 1 6.72-2.826z" fill="#1e1d1d" fill-opacity=".473"/><path d="M178.47 163.07c-2.997-.57-8.982-2.694-11.242-4.743-.637-.575-2.81-4.04-2.81-4.04l-50.936-22.658 6.514 8.412s2.651 3.94 5.165 5.375c2.46 1.406 9.047 4.83 9.047 4.83l54.45 25.998-6.238-13.263s-2.98.273-3.95.09" fill="url(#t)" transform="scale(.9929) rotate(1.489 76.977 200.748)"/><path d="M134.425 149.791c-.05-.026-6.59-3.428-9.013-4.813-2.385-1.362-4.972-5.18-4.997-5.219l-5.307-6.854 48.964 21.782c.445.702 2.2 3.456 2.817 4.014 2.281 2.068 8.326 4.262 11.485 4.865.84.16 2.887.018 3.74-.051l5.485 11.665-53.174-25.389" fill="url(#u)" transform="scale(.9929) rotate(1.489 76.977 200.748)"/><path d="M199.622 175.261c-3.626 3.442-9.37 3.274-12.834-.375-3.464-3.648-3.333-9.394.292-12.835 3.628-3.445 9.371-3.275 12.835.373 3.464 3.65 3.335 9.393-.293 12.837zm-14.389-15.156c-4.693 4.455-4.862 11.896-.38 16.618 4.483 4.721 11.926 4.942 16.619.487 4.694-4.457 4.859-11.899.376-16.62-4.483-4.722-11.92-4.941-16.615-.485" fill="#6c6a6a"/><path d="M200.289 172.333c-3.56 3.56-9.348 3.54-12.931-.042-3.583-3.583-3.602-9.37-.042-12.93 3.563-3.563 9.35-3.545 12.933.038 3.584 3.583 3.602 9.37.04 12.934zm-14.883-14.883c-4.608 4.608-4.584 12.104.052 16.74 4.637 4.637 12.136 4.664 16.744.056 4.61-4.61 4.581-12.107-.056-16.744-4.636-4.636-12.13-4.662-16.74-.052" fill="url(#v)" stroke="#7d7569" stroke-width=".21" transform="scale(.9929) rotate(1.489 76.977 200.748)"/><path d="M170.064 161.618l-4.188-2.425-12.983-9.217-3.29-1.546 5.162 12.503 19.616 10.016z" fill-opacity=".253" fill-rule="evenodd"/><path d="M168.302 175.846c-.75-2.956-3.226-8.805-5.405-10.938-.614-.602-4.201-2.565-4.201-2.565l-25.663-49.49 8.787 6.002s4.09 2.41 5.675 4.834c1.55 2.371 5.362 8.74 5.362 8.74l29.205 52.8-13.612-5.433s.095-2.992-.148-3.95" fill="url(#w)" transform="scale(.9929) rotate(1.489 76.977 200.748)"/><path d="M168.964 179.458c.018-.856.037-2.91-.173-3.737-.79-3.117-3.341-9.02-5.541-11.174-.595-.583-3.448-2.17-4.177-2.573l-24.668-47.573 7.13 4.87c.068.043 4.037 2.398 5.538 4.693 1.525 2.336 5.313 8.66 5.35 8.726l28.513 51.547-11.972-4.779" fill="url(#x)" transform="scale(.9929) rotate(1.489 76.977 200.748)"/><path d="M165.77 198.753c-3.675-3.435-3.888-9.179-.474-12.833 3.414-3.651 9.159-3.826 12.835-.392 3.675 3.435 3.89 9.18.476 12.831-3.415 3.654-9.16 3.83-12.836.394zm-1.818 1.946c4.757 4.447 12.196 4.224 16.617-.507 4.418-4.727 4.14-12.167-.617-16.612-4.758-4.446-12.195-4.218-16.613.51-4.42 4.73-4.144 12.163.613 16.609" fill="#6c6a6a"/><path d="M165.94 197.807c-3.791-3.363-4.155-9.141-.812-12.908 3.34-3.765 9.12-4.094 12.91-.732 3.792 3.364 4.154 9.14.815 12.906-3.342 3.77-9.122 4.096-12.912.734zm-1.78 2.007c4.907 4.352 12.39 3.934 16.717-.946 4.324-4.877 3.85-12.358-1.057-16.71-4.906-4.351-12.387-3.927-16.712.948-4.329 4.878-3.853 12.357 1.053 16.708" fill="url(#y)" stroke="#7d7569" stroke-width=".21" transform="scale(.9929) rotate(1.489 76.977 200.748)"/><path d="M164.042 158.81a2.405 2.405 0 1 1-4.756.711 2.405 2.405 0 0 1 4.756-.712" fill="#9e9e9e" stroke="#000" stroke-width=".42595838999999996" stroke-opacity=".577"/><path d="M162.296 160.7l-.491-3.281h-.003l-.666.093.493 3.295.668-.108" fill="#373636"/></g></svg>