<svg xmlns="http://www.w3.org/2000/svg" xmlns:xlink="http://www.w3.org/1999/xlink" height="96" viewBox="0 0 96 96" width="96" enable-background="new"><title>Template icons dark</title><defs><linearGradient id="d"><stop offset="0" stop-color="#d4d4d4"/><stop offset="1" stop-color="#fbfbfb"/></linearGradient><linearGradient id="a"><stop offset="0" stop-color="#9a9a9a" stop-opacity=".973"/><stop offset="1" stop-color="#f4f4f4"/></linearGradient><linearGradient id="b"><stop offset="0" stop-color="#825cf4"/><stop offset="1" stop-color="#3958ef"/></linearGradient><linearGradient id="c"><stop offset="0" stop-color="#eaf2f7"/><stop offset="1" stop-color="#99b4c0"/></linearGradient><linearGradient gradientTransform="matrix(.75 0 0 .75 -43.999 -46.524)" xlink:href="#d" id="h" x1="276.22" y1="292" x2="276.22" y2="276.22" gradientUnits="userSpaceOnUse"/><linearGradient gradientTransform="matrix(1.89839 0 0 1.89839 114.438 105.588)" xlink:href="#b" id="g" x1="23.375" y1="41.2" x2="23.375" y2="13.95" gradientUnits="userSpaceOnUse"/><linearGradient xlink:href="#b" id="f" gradientUnits="userSpaceOnUse" x1="23.375" y1="41.2" x2="23.375" y2="13.95" gradientTransform="matrix(1.89839 0 0 1.89839 87.59 128.891)"/><filter id="e" x="-.021" width="1.042" y="-.028" height="1.055" color-interpolation-filters="sRGB"><feGaussianBlur stdDeviation=".423"/></filter></defs><g color="#000" transform="translate(-112 -112)"><rect style="isolation:auto;mix-blend-mode:normal;marker:none" width="44" height="30" x="-3.249" y="17.533" rx="0" ry="1.515" transform="rotate(-9.77 674.934 -616.688) scale(1.89839)" overflow="visible" fill-opacity=".157" filter="url(#e)" enable-background="accumulate"/><rect transform="rotate(-9.77)" ry="2.876" rx="0" y="153.62" x="89.234" height="56.952" width="83.529" style="isolation:auto;mix-blend-mode:normal;marker:none" overflow="visible" fill="#fff" stroke="#000" stroke-width=".983" stroke-opacity=".157" enable-background="accumulate"/><rect transform="rotate(-9.09)" style="isolation:auto;mix-blend-mode:normal;marker:none" width="79.732" height="53.155" x="93.285" y="153.95" ry="0" overflow="visible" fill="url(#f)" enable-background="accumulate"/><rect style="isolation:auto;mix-blend-mode:normal;marker:none" width="83.529" height="56.952" x="118.235" y="128.749" rx="0" ry="2.876" overflow="visible" fill="#fff" stroke="#000" stroke-width=".983" stroke-opacity=".157" enable-background="accumulate"/><rect ry="0" y="130.647" x="120.134" height="53.155" width="79.732" style="isolation:auto;mix-blend-mode:normal;marker:none" overflow="visible" fill="url(#g)" enable-background="accumulate"/><path style="isolation:auto;mix-blend-mode:normal;marker:none" d="M152.152 132.154l.445 1.27-1.351-.035 1.324.25-.707 1.152.875-1.02.648 1.188-.445-1.27 1.352.036-1.325-.25.708-1.153-.875 1.02zm15.117.89l.445 1.266-1.351-.03 1.32.245-.703 1.157.875-1.024.649 1.188-.446-1.27 1.352.035-1.324-.246.707-1.156-.88 1.023zm14.848 1.778l.445 1.27-1.351-.035 1.324.25-.707 1.152.879-1.02.644 1.188-.445-1.27 1.351.032-1.32-.247.703-1.152-.875 1.02zm8.18.266l.449 1.27-1.352-.036 1.32.25-.707 1.153.88-1.02.644 1.187-.446-1.269 1.352.035-1.32-.25.703-1.152-.875 1.02zm-60.817.988l1.266 3.602-3.836-.094 3.754.703-2.004 3.277 2.488-2.898 1.836 3.37-1.27-3.604 3.84.097-3.753-.703 2.004-3.277-2.489 2.898zm18.848 2.656l.45 1.27-1.352-.031 1.32.246-.707 1.152.879-1.02.644 1.188-.445-1.27 1.351.036-1.32-.25.703-1.153-.875 1.02zm16.953 2.332l-9.09 8.586c-2.918 1.762-.81 2.77.422.262l8.793-8.715zm.582 4.563l-9.09 8.586c-2.623 2.616-.599 2.057.422.261l8.793-8.714z" display="block" overflow="visible" fill="#fff" fill-opacity=".335" enable-background="accumulate"/><path style="isolation:auto;mix-blend-mode:normal;marker:none" d="M157.149 134.971c-.395 0-.616.314-.714.675l-1.506 5.534c-1.17.35-2.29.81-3.347 1.382l-4.982-2.866c-.325-.187-.703-.252-.982.027l-4.077 4.077c-.279.279-.213.65-.027.975l2.818 4.928a17.88 17.88 0 0 0-1.467 3.426l-5.444 1.466c-.361.098-.674.32-.674.714v5.766c0 .395.313.612.674.71l5.325 1.45c.357 1.256.85 2.469 1.47 3.616l-2.745 4.773c-.187.325-.252.703.027.982l4.077 4.077c.28.279.65.213.976.027l4.71-2.698c1.17.65 2.41 1.168 3.696 1.543l1.414 5.248c.097.361.319.674.713.674h5.767c.394 0 .611-.313.71-.674l1.43-5.252a17.896 17.896 0 0 0 3.647-1.535l4.762 2.737c.324.187.702.252.981-.027l4.077-4.077c.28-.28.214-.655.027-.98l-2.762-4.818c.6-1.124 1.079-2.31 1.427-3.535l5.428-1.467c.362-.097.675-.315.675-.71v-5.766c0-.394-.314-.615-.675-.713l-5.52-1.498c-.01-.033-.025-.063-.035-.096a17.688 17.688 0 0 0-1.359-3.263l2.865-4.979c.186-.324.251-.7-.028-.98l-4.077-4.076c-.279-.28-.654-.215-.98-.03l-4.97 2.85a17.692 17.692 0 0 0-3.351-1.397l-1.498-5.545c-.097-.362-.315-.673-.71-.673h-5.766zM160 153.724c2.5 0 4.499 1.999 4.499 4.5a4.48 4.48 0 0 1-4.5 4.5c-2.5 0-4.5-2-4.5-4.5 0-2.501 2-4.5 4.5-4.5z" overflow="visible" fill-opacity=".141" paint-order="fill markers stroke" enable-background="accumulate"/><path d="M157.437 137.32c-.355 0-.553.282-.642.607l-1.353 4.975c-1.052.314-2.06.729-3.01 1.242l-4.479-2.576c-.291-.168-.631-.227-.882.024l-3.665 3.665c-.25.251-.192.585-.025.877l2.533 4.43c-.545.978-.987 2.01-1.318 3.08l-4.894 1.318c-.325.087-.606.287-.606.642v5.183c0 .355.282.55.606.638l4.787 1.305a16.09 16.09 0 0 0 1.322 3.25l-2.468 4.29c-.168.292-.226.632.024.883l3.665 3.665c.251.251.585.192.878.025l4.234-2.426a16.094 16.094 0 0 0 3.322 1.387l1.271 4.718c.088.325.287.606.642.606h5.184c.354 0 .55-.281.638-.606l1.286-4.722c1.14-.337 2.24-.8 3.279-1.38l4.28 2.461c.292.168.631.227.882-.024l3.665-3.665c.251-.251.192-.589.025-.88l-2.484-4.332c.54-1.01.97-2.076 1.283-3.178l4.88-1.319c.325-.087.606-.283.606-.638v-5.183c0-.355-.281-.554-.606-.642l-4.962-1.347c-.01-.029-.023-.056-.032-.086a15.903 15.903 0 0 0-1.222-2.933l2.576-4.476c.168-.291.226-.63-.025-.88l-3.665-3.665c-.25-.251-.588-.194-.88-.027l-4.469 2.561c-.95-.518-1.96-.936-3.013-1.255l-1.346-4.985c-.088-.325-.284-.605-.638-.605h-5.184zM160 151.924c3.502 0 6.3 2.798 6.3 6.3a6.274 6.274 0 0 1-6.3 6.303 6.277 6.277 0 0 1-6.303-6.303c0-3.502 2.802-6.3 6.303-6.3z" style="isolation:auto;mix-blend-mode:normal;marker:none" overflow="visible" fill="url(#h)" paint-order="fill markers stroke" enable-background="accumulate"/></g></svg>