<svg xmlns="http://www.w3.org/2000/svg" xmlns:xlink="http://www.w3.org/1999/xlink" height="96" viewBox="0 0 96 96" width="96"><title>Template icons dark</title><defs><linearGradient id="g"><stop offset="0" stop-color="#1f97cf"/><stop offset="1" stop-color="#50b5e4"/></linearGradient><linearGradient id="f"><stop offset="0" stop-color="#62c8f7"/><stop offset="1" stop-color="#0ca3e8"/></linearGradient><linearGradient y2="880.934" x2="165.724" y1="880.934" x1="138.929" gradientTransform="translate(-80.35 -1134.5) scale(1.44283)" gradientUnits="userSpaceOnUse" id="h" xlink:href="#a"/><linearGradient id="a"><stop offset="0" stop-color="#7ed6fb"/><stop offset="1" stop-color="#90ddfc"/></linearGradient><linearGradient gradientTransform="translate(90.728 -1289.078) scale(1.44283)" gradientUnits="userSpaceOnUse" y2="988.557" x2="56.624" y1="986.071" x1="70.711" id="i" xlink:href="#b"/><linearGradient id="b"><stop offset="0" stop-color="#7ed6fb"/><stop offset="1" stop-color="#8edcfc"/></linearGradient><linearGradient gradientTransform="translate(90.728 -1289.078) scale(1.44283)" gradientUnits="userSpaceOnUse" y2="1020.598" x2="57.452" y1="1022.255" x1="54.138" id="l" xlink:href="#c"/><linearGradient id="c"><stop offset="0" stop-color="#62c8f7"/><stop offset="1" stop-color="#36aaf2"/></linearGradient><linearGradient gradientTransform="translate(90.728 -1289.078) scale(1.44283)" gradientUnits="userSpaceOnUse" y2="1008.997" x2="58.281" y1="1009.273" x1="72.644" id="m" xlink:href="#d"/><linearGradient id="d"><stop offset="0" stop-color="#7ed6fb"/><stop offset="1" stop-color="#8fdcfc"/></linearGradient><linearGradient gradientTransform="translate(90.728 -1289.078) scale(1.44283)" gradientUnits="userSpaceOnUse" y2="1022.675" x2="44.922" y1="1020.149" x1="38.672" id="n" xlink:href="#e"/><linearGradient id="e"><stop offset="0" stop-color="#1581ce"/><stop offset="1" stop-color="#32a9e0"/></linearGradient><linearGradient gradientTransform="translate(90.728 -1289.078) scale(1.44283)" gradientUnits="userSpaceOnUse" y2="1009.393" x2="40.234" y1="1010.175" x1="23.438" id="o" xlink:href="#d"/><linearGradient xlink:href="#f" id="j" x1="148" y1="148" x2="150.614" y2="169.512" gradientUnits="userSpaceOnUse"/><linearGradient xlink:href="#g" id="k" x1="167.78" y1="164" x2="169.512" y2="143.055" gradientUnits="userSpaceOnUse"/></defs><path d="M29.703 7.852L2.984 24.389l18.15 14.98-18.15 14.98 18.153 11.235v5.99l26.785 16.672-.121-32.08.004-.002.127 32.059 26.535-16.649v-5.83l18.518-11.482L74.7 39.39l-.232.144V39.4l.05-.03-26.716-16.538-26.666 16.537 26.7-16.572-.03.023 26.775 16.57 18.281-14.869-26.85-16.648-18.167 14.914z" fill="none" stroke="#000" stroke-width="1.25" stroke-opacity=".209"/><path d="M47.802 22.832L74.52 39.369 47.984 56.017 21.135 39.369z" fill="#7ed6fb"/><path d="M114.984 136.389l26.718-16.538 18.145 14.939-26.712 16.58z" fill="url(#h)" transform="translate(-112 -112)"/><path d="M159.806 134.82l26.775 16.571 18.282-14.87-26.849-16.648z" fill="url(#i)" transform="translate(-112 -112)"/><path d="M159.802 134.832l-.001 28.38-26.536 16.647-.129-28.49z" fill="url(#j)" transform="translate(-112 -112)"/><path d="M159.802 134.832v28.38l26.537 16.647.129-28.49z" fill="url(#k)" transform="translate(-112 -112)"/><path d="M186.469 151.37l-.001 32.205-26.536 16.647-.13-32.315z" fill="url(#l)" transform="translate(-112 -112)"/><path d="M159.984 167.93l26.718-16.539 18.282 14.871-26.85 16.648z" fill="url(#m)" transform="translate(-112 -112)"/><path d="M133.135 151.37l.001 32.205 26.786 16.67-.121-32.338z" fill="url(#n)" transform="translate(-112 -112)"/><path d="M114.984 166.35l26.718 16.537 18.282-14.87-26.849-16.648z" fill="url(#o)" transform="translate(-112 -112)"/></svg>