<svg xmlns="http://www.w3.org/2000/svg" xmlns:xlink="http://www.w3.org/1999/xlink" height="96" viewBox="0 0 96 96" width="96"><title>Template icons dark</title><defs><linearGradient id="d"><stop offset="0" stop-color="#e6e223" stop-opacity="0"/><stop offset="1" stop-color="#f99500" stop-opacity=".598"/></linearGradient><linearGradient id="c"><stop offset="0" stop-color="#cdcdcd"/><stop offset="1" stop-color="#fff"/></linearGradient><linearGradient id="b"><stop offset="0" stop-color="#fff" stop-opacity=".427"/><stop offset=".423" stop-color="#fafcfe"/><stop offset="1" stop-color="#fff" stop-opacity=".49"/></linearGradient><linearGradient xlink:href="#a" id="e" x1="37.702" y1="34.889" x2="-2.538" y2="12.087" gradientUnits="userSpaceOnUse" gradientTransform="matrix(2.23656 0 0 2.23656 109.677 102.968)"/><linearGradient id="a"><stop offset="0" stop-color="#322461"/><stop offset="1" stop-color="#6d2fd8"/></linearGradient><linearGradient xlink:href="#c" id="g" x1="161.772" y1="204" x2="161.772" y2="113" gradientUnits="userSpaceOnUse"/><linearGradient xlink:href="#d" id="f" gradientUnits="userSpaceOnUse" gradientTransform="matrix(2.23656 0 0 2.23656 109.677 102.968)" x1="25.908" y1="26.373" x2="3.094" y2="26.373"/></defs><g color="#000"><path style="isolation:auto;mix-blend-mode:normal;marker:none" d="M96 48a48 48 0 0 1-48 48A48 48 0 0 1 0 48 48 48 0 0 1 48 0a48 48 0 0 1 48 48z" display="block" overflow="visible" fill-opacity=".058"/><path style="isolation:auto;mix-blend-mode:normal;marker:none" d="M206 160a46 46 0 0 1-46 46 46 46 0 0 1-46-46 46 46 0 0 1 46-46 46 46 0 0 1 46 46z" display="block" overflow="visible" fill="url(#e)" transform="translate(-112 -112)"/><path d="M206 160a46 46 0 0 1-46 46 46 46 0 0 1-46-46 46 46 0 0 1 46-46 46 46 0 0 1 46 46z" style="isolation:auto;mix-blend-mode:normal;marker:none" overflow="visible" fill="url(#f)" transform="translate(-112 -112)"/><path style="isolation:auto;mix-blend-mode:normal;marker:none" d="M6 29h83.638v8H6z" display="block" overflow="visible" fill="#fff" fill-opacity=".442" paint-order="fill markers stroke"/><path style="isolation:auto;mix-blend-mode:normal;marker:none" d="M6 36h83.638v1H6z" display="block" overflow="visible" fill="#fff" fill-opacity=".821" paint-order="fill markers stroke"/><path style="isolation:auto;mix-blend-mode:normal;marker:none" d="M6 37h83.638v1H6z" display="block" overflow="visible" fill-opacity=".179" paint-order="fill markers stroke"/><path style="isolation:auto;mix-blend-mode:normal;marker:none" d="M6 44h83.638v8H6z" display="block" overflow="visible" fill="#fff" fill-opacity=".442" paint-order="fill markers stroke"/><path style="isolation:auto;mix-blend-mode:normal;marker:none" d="M6 51h83.638v1H6z" display="block" overflow="visible" fill="#fff" fill-opacity=".821" paint-order="fill markers stroke"/><path style="isolation:auto;mix-blend-mode:normal;marker:none" d="M6 52h83.638v1H6z" display="block" overflow="visible" fill-opacity=".179" paint-order="fill markers stroke"/><path style="isolation:auto;mix-blend-mode:normal;marker:none" d="M6 59h83.638v8H6z" display="block" overflow="visible" fill="#fff" fill-opacity=".442" paint-order="fill markers stroke"/><path style="isolation:auto;mix-blend-mode:normal;marker:none" d="M6 66h83.638v1H6z" display="block" overflow="visible" fill="#fff" fill-opacity=".821" paint-order="fill markers stroke"/><path style="isolation:auto;mix-blend-mode:normal;marker:none" d="M6 67h83.638v1H6z" display="block" overflow="visible" fill-opacity=".179" paint-order="fill markers stroke"/><path style="isolation:auto;mix-blend-mode:normal;marker:none" d="M90.086 49.121A42.086 42.086 0 0 1 48 91.207 42.086 42.086 0 0 1 5.914 49.121 42.086 42.086 0 0 1 48 7.036 42.086 42.086 0 0 1 90.086 49.12z" overflow="visible" fill="none" stroke="#050505" stroke-width="1.679" stroke-linejoin="round" stroke-opacity=".458"/><path style="isolation:auto;mix-blend-mode:normal;marker:none" d="M90.086 47.757A42.086 42.086 0 0 1 48 89.843 42.086 42.086 0 0 1 5.914 47.757 42.086 42.086 0 0 1 48 5.672a42.086 42.086 0 0 1 42.086 42.085z" overflow="visible" fill="none" stroke="#fff" stroke-width="1.679" stroke-linejoin="round"/><path style="isolation:auto;mix-blend-mode:normal;marker:none" d="M204.005 160A44.005 44.005 0 0 1 160 204.005 44.005 44.005 0 0 1 115.995 160 44.005 44.005 0 0 1 160 115.995 44.005 44.005 0 0 1 204.005 160z" overflow="visible" fill="none" stroke="url(#g)" stroke-width="3.99" stroke-linejoin="round" transform="translate(-112 -112)"/></g></svg>