<svg xmlns="http://www.w3.org/2000/svg" xmlns:xlink="http://www.w3.org/1999/xlink" height="96" viewBox="0 0 96 96" width="96"><title>Template icons dark</title><defs><linearGradient id="c"><stop offset="0" stop-color="#efefef" stop-opacity=".478"/><stop offset="1" stop-color="#efefef" stop-opacity="0"/></linearGradient><linearGradient id="b"><stop offset="0" stop-color="#ff053c"/><stop offset="1" stop-color="#0b31ff" stop-opacity=".974"/></linearGradient><linearGradient xlink:href="#a" id="d" x1="24.535" y1="7.996" x2="24.705" y2="38.25" gradientUnits="userSpaceOnUse" gradientTransform="matrix(2.13109 0 0 2.13109 108.68 105.531)"/><linearGradient id="a"><stop offset="0" stop-color="#86dceb"/><stop offset="1" stop-color="#4bb7df"/></linearGradient><linearGradient xlink:href="#b" id="e" x1="122" y1="183" x2="196" y2="142" gradientUnits="userSpaceOnUse"/><linearGradient xlink:href="#c" id="f" x1="160.849" y1="166.43" x2="160.849" y2="155.944" gradientUnits="userSpaceOnUse" gradientTransform="matrix(1.12815 0 0 1.12815 -20.504 -20.504)"/></defs><g color="#000" transform="translate(-112 -112)"><circle style="isolation:auto;mix-blend-mode:normal;marker:none" cx="160" cy="160" r="47" display="block" overflow="visible" fill-opacity=".157"/><circle style="isolation:auto;mix-blend-mode:normal;marker:none" cx="160" cy="160" r="44.508" overflow="visible" fill="url(#d)" stroke="#fff" stroke-width="2.48"/><circle r="44.508" cy="160" cx="160" style="isolation:auto;mix-blend-mode:normal;marker:none" overflow="visible" opacity=".109" fill="url(#e)" stroke="#fff" stroke-width="2.48"/><circle r="8.545" cy="160" cx="160" style="isolation:auto;mix-blend-mode:normal;marker:none" overflow="visible" fill="url(#f)"/><circle style="isolation:auto;mix-blend-mode:normal;marker:none" cx="160" cy="160" r="36.815" overflow="visible" fill="none" stroke="#fff" stroke-width="1.31" stroke-dasharray="1.31,5.24" stroke-opacity=".368"/><circle style="isolation:auto;mix-blend-mode:normal;marker:none" cx="160" cy="160" r="4.728" overflow="visible" fill="#fff" paint-order="markers stroke fill"/><circle style="isolation:auto;mix-blend-mode:normal;marker:none" cx="161.045" cy="131.208" r="4.101" overflow="visible" fill="#fff" fill-opacity=".989" paint-order="markers stroke fill"/><circle r="2.026" cy="131.208" cx="161.045" style="isolation:auto;mix-blend-mode:normal;marker:none" overflow="visible" fill="#77c5e8" paint-order="markers stroke fill"/><circle style="isolation:auto;mix-blend-mode:normal;marker:none" cx="134.622" cy="171.639" r="4.101" overflow="visible" fill="#fff" fill-opacity=".989" paint-order="markers stroke fill"/><circle r="2.026" cy="171.639" cx="134.622" style="isolation:auto;mix-blend-mode:normal;marker:none" overflow="visible" fill="#64add5" paint-order="markers stroke fill"/><circle style="isolation:auto;mix-blend-mode:normal;marker:none" cx="184.724" cy="174.08" r="4.101" overflow="visible" fill="#fff" fill-opacity=".989" paint-order="markers stroke fill"/><circle r="2.026" cy="174.08" cx="184.724" style="isolation:auto;mix-blend-mode:normal;marker:none" overflow="visible" fill="#54afe0" paint-order="markers stroke fill"/><path style="isolation:auto;mix-blend-mode:normal;marker:none" d="M203.287 158.414A43.307 44.508 0 0 1 160 202.508a43.307 44.508 0 0 1-43.287-43.922 43.307 44.508 0 0 0-.02.414A43.307 44.508 0 0 0 160 203.508 43.307 44.508 0 0 0 203.308 159a43.307 44.508 0 0 0-.021-.586z" overflow="visible" fill-opacity=".297"/><path d="M203.487 161.872A43.508 44.508 0 0 0 160 117.778a43.508 44.508 0 0 0-43.487 43.922 43.508 44.508 0 0 1-.021-.414A43.508 44.508 0 0 1 160 116.778a43.508 44.508 0 0 1 43.508 44.508 43.508 44.508 0 0 1-.02.586z" style="isolation:auto;mix-blend-mode:normal;marker:none" overflow="visible" fill="#242424" fill-opacity=".471"/><path style="isolation:auto;mix-blend-mode:normal;marker:none" d="M181.844 175.868a28.181 14.189 26.792 0 1-27.523-3.178 28.181 14.189 26.792 0 1-19.927-20.097 28.181 14.189 26.792 0 1 13.694-10.768" overflow="visible" fill="none" stroke="#fff" stroke-width="1.769" stroke-linecap="round" stroke-miterlimit="3.7" stroke-opacity=".984" paint-order="markers stroke fill"/><path style="isolation:auto;mix-blend-mode:normal;marker:none" d="M134.799 168.053a28.181 14.189-29.658 0 1 17.53-20.19 28.181 14.189-29.658 0 1 26.837-6.038 28.181 14.189-29.658 0 1 4.152 15.314" overflow="visible" fill="none" stroke="#fff" stroke-width="1.769" stroke-linecap="round" stroke-miterlimit="3.7" stroke-opacity=".984" paint-order="markers stroke fill"/><path style="isolation:auto;mix-blend-mode:normal;marker:none" d="M164.718 132.835a14.189 28.181 1.017 0 1 9.614 26.27 14.189 28.181 1.017 0 1-9.72 27.129 14.189 28.181 1.017 0 1-15.815-8.962" overflow="visible" fill="none" stroke="#fff" stroke-width="1.769" stroke-linecap="round" stroke-miterlimit="3.7" stroke-opacity=".984" paint-order="markers stroke fill"/></g></svg>