<svg xmlns="http://www.w3.org/2000/svg" xmlns:xlink="http://www.w3.org/1999/xlink" height="96" viewBox="0 0 96 96" width="96" enable-background="new"><title>Template icons dark</title><defs><linearGradient id="a"><stop offset="0" stop-color="#9a9a9a" stop-opacity=".973"/><stop offset="1" stop-color="#f4f4f4"/></linearGradient><linearGradient id="b"><stop offset="0" stop-color="#f598f8"/><stop offset="1" stop-color="#398bef"/></linearGradient><linearGradient xlink:href="#b" id="d" gradientUnits="userSpaceOnUse" x1="23.375" y1="41.2" x2="23.375" y2="13.95" gradientTransform="matrix(1.89841 0 0 1.89841 87.546 129.163)"/><linearGradient gradientTransform="matrix(1.89841 0 0 1.89841 114.438 105.863)" xlink:href="#b" id="e" x1="23.375" y1="41.2" x2="23.375" y2="13.95" gradientUnits="userSpaceOnUse"/><filter id="c" x="-.021" width="1.042" y="-.028" height="1.055" color-interpolation-filters="sRGB"><feGaussianBlur stdDeviation=".423"/></filter></defs><g color="#000" transform="translate(-112 -112)"><rect style="isolation:auto;mix-blend-mode:normal;marker:none" width="44" height="30" x="-3.249" y="17.533" rx="0" ry="1.515" transform="scale(1.89841) rotate(-9.77 356.37 -324.772)" overflow="visible" fill-opacity=".157" filter="url(#c)" enable-background="accumulate"/><rect transform="rotate(-9.77)" ry="2.876" rx="0" y="153.891" x="89.187" height="56.952" width="83.53" style="isolation:auto;mix-blend-mode:normal;marker:none" overflow="visible" fill="#fff" stroke="#000" stroke-width=".983" stroke-opacity=".157" enable-background="accumulate"/><rect transform="rotate(-9.09)" style="isolation:auto;mix-blend-mode:normal;marker:none" width="79.733" height="53.156" x="93.242" y="154.222" ry="0" overflow="visible" fill="url(#d)" enable-background="accumulate"/><rect style="isolation:auto;mix-blend-mode:normal;marker:none" width="83.53" height="56.952" x="118.235" y="129.024" rx="0" ry="2.876" overflow="visible" fill="#fff" stroke="#000" stroke-width=".983" stroke-opacity=".157" enable-background="accumulate"/><rect ry="0" y="130.922" x="120.133" height="53.156" width="79.733" style="isolation:auto;mix-blend-mode:normal;marker:none" overflow="visible" fill="url(#e)" enable-background="accumulate"/><path d="M174.677 153.618l25.19 18.358v12.102l-69.202-.125z" style="isolation:auto;mix-blend-mode:normal;marker:none" overflow="visible" fill="#fff" enable-background="accumulate"/><path style="isolation:auto;mix-blend-mode:normal;marker:none" d="M144.086 160.137l22.682 21.116 33.099 2.825h-79.734z" overflow="visible" fill="#fff" fill-opacity=".34" enable-background="accumulate"/><path style="isolation:auto;mix-blend-mode:normal;marker:none" d="M152.152 132.43l.446 1.269-1.352-.035 1.324.25-.707 1.152.875-1.02.649 1.188-.446-1.27 1.352.036-1.324-.25.707-1.153-.875 1.02zm15.118.89l.445 1.266-1.352-.031 1.32.246-.702 1.156.875-1.024.648 1.188-.445-1.27 1.351.036-1.324-.246.707-1.157-.879 1.024zm14.847 1.777l.446 1.27-1.352-.035 1.324.25-.707 1.152.88-1.02.644 1.188-.446-1.27 1.352.032-1.32-.246.703-1.153-.875 1.02zm8.18.266l.45 1.27-1.352-.036 1.32.25-.707 1.153.879-1.02.644 1.188-.445-1.27 1.352.035-1.32-.25.703-1.152-.875 1.02zm-60.817.988l1.266 3.602-3.836-.094 3.754.703-2.004 3.278 2.488-2.899 1.836 3.371-1.27-3.605 3.84.097-3.753-.703 2.004-3.277-2.489 2.898zm18.848 2.657l.45 1.27-1.352-.032 1.32.246-.707 1.152.879-1.02.644 1.188-.445-1.27 1.352.036-1.32-.25.702-1.152-.875 1.02zm16.953 2.332l-9.09 8.586c-2.918 1.761-.81 2.77.422.261l8.793-8.714zm.582 4.562l-9.09 8.586c-2.622 2.617-.598 2.058.422.262l8.793-8.715z" display="block" overflow="visible" fill="#fff" fill-opacity=".335" enable-background="accumulate"/></g></svg>