<svg xmlns="http://www.w3.org/2000/svg" xmlns:xlink="http://www.w3.org/1999/xlink" height="96" viewBox="0 0 96 96" width="96"><title>Template icons dark</title><defs><linearGradient id="j"><stop offset="0" stop-color="#030303" stop-opacity=".151"/><stop offset="1" stop-color="#030303" stop-opacity=".161"/></linearGradient><linearGradient id="h"><stop offset="0" stop-color="#030303" stop-opacity=".203"/><stop offset="1" stop-color="#030303" stop-opacity=".161"/></linearGradient><linearGradient id="i"><stop offset="0" stop-opacity="0"/><stop offset="1" stop-opacity=".094"/></linearGradient><linearGradient id="g"><stop offset="0" stop-opacity="0"/><stop offset="1" stop-opacity=".052"/></linearGradient><linearGradient id="f"><stop offset="0" stop-color="#e6e6e6"/><stop offset="1" stop-color="#fff"/></linearGradient><linearGradient id="e"><stop offset="0" stop-color="#030303" stop-opacity=".135"/><stop offset=".402" stop-color="#030303" stop-opacity=".25"/><stop offset="1" stop-color="#030303" stop-opacity="0"/></linearGradient><linearGradient id="d"><stop offset="0" stop-opacity=".078"/><stop offset="1" stop-opacity="0"/></linearGradient><linearGradient id="c"><stop offset="0" stop-color="#fff"/><stop offset="1" stop-color="#e7e7e7"/></linearGradient><linearGradient id="b"><stop offset="0" stop-color="#030303" stop-opacity=".078"/><stop offset="1" stop-color="#030303" stop-opacity=".161"/></linearGradient><linearGradient id="a"><stop offset="0" stop-color="#030303" stop-opacity=".182"/><stop offset="1" stop-color="#030303" stop-opacity="0"/></linearGradient><linearGradient xlink:href="#b" id="o" gradientUnits="userSpaceOnUse" x1="160" y1="162" x2="160" y2="124"/><linearGradient xlink:href="#b" id="k" gradientUnits="userSpaceOnUse" x1="160" y1="162" x2="160" y2="124" gradientTransform="matrix(1 0 0 -1 0 321)"/><linearGradient xlink:href="#c" id="p" x1="160.063" y1="163" x2="160.063" y2="136" gradientUnits="userSpaceOnUse"/><linearGradient xlink:href="#d" id="q" x1="160.126" y1="160" x2="160.126" y2="136" gradientUnits="userSpaceOnUse"/><linearGradient xlink:href="#e" id="r" x1="146" y1="146" x2="177.071" y2="146" gradientUnits="userSpaceOnUse"/><linearGradient xlink:href="#b" id="n" gradientUnits="userSpaceOnUse" x1="160" y1="162" x2="160" y2="124"/><linearGradient xlink:href="#f" id="l" x1="161" y1="187.457" x2="161" y2="165" gradientUnits="userSpaceOnUse"/><linearGradient xlink:href="#g" id="m" x1="160.063" y1="184" x2="160.063" y2="166.009" gradientUnits="userSpaceOnUse"/></defs><path style="isolation:auto;mix-blend-mode:normal;marker:none" d="M3 20h90v57H3z" color="#000" display="block" overflow="visible" fill-opacity=".115" paint-order="fill markers stroke"/><path style="isolation:auto;mix-blend-mode:normal;marker:none" d="M4 21h88v55H4z" color="#000" overflow="visible" fill="#f2f2f2" paint-order="fill markers stroke"/><path style="isolation:auto;mix-blend-mode:normal;marker:none" d="M116 188h88v-2.024L202 181l-37.988-24.99S161.22 154 160 154c-1.37 0-3.992 1.994-3.992 1.994L118 181l-2 5z" color="#000" overflow="visible" fill="url(#k)" paint-order="fill markers stroke" transform="translate(-112 -112)"/><path d="M116 188h88l-2-7-37.988-22.99S161.22 156 160 156c-1.37 0-3.992 1.994-3.992 1.994L118 181z" style="isolation:auto;mix-blend-mode:normal;marker:none" color="#000" display="block" overflow="visible" fill="url(#l)" paint-order="fill markers stroke" transform="translate(-112 -112)"/><path style="isolation:auto;mix-blend-mode:normal;marker:none" d="M120 186h80l-2-5-33.988-18.99S161.22 160 160 160c-1.37 0-3.992 1.994-3.992 1.994L122 181z" color="#000" overflow="visible" fill="url(#m)" paint-order="fill markers stroke" transform="translate(-112 -112)"/><path d="M116 133h88v2.024L202 140l-37.988 25.99S161.22 168 160 168c-1.37 0-3.992-1.994-3.992-1.994L118 140l-2-5z" style="isolation:auto;mix-blend-mode:normal;marker:none" color="#000" display="block" overflow="visible" fill="url(#n)" paint-order="fill markers stroke" transform="translate(-112 -112)"/><path style="isolation:auto;mix-blend-mode:normal;marker:none" d="M116 133h88v2.024L202 140l-37.988 23.99S161.22 166 160 166c-1.37 0-3.992-1.994-3.992-1.994L118 140l-2-5z" color="#000" display="block" overflow="visible" fill="url(#o)" paint-order="fill markers stroke" transform="translate(-112 -112)"/><path style="isolation:auto;mix-blend-mode:normal;marker:none" d="M116 133h88l-2 7-37.988 22.99S161.22 165 160 165c-1.37 0-3.992-1.994-3.992-1.994L118 140z" color="#000" display="block" overflow="visible" fill="url(#p)" paint-order="fill markers stroke" transform="translate(-112 -112)"/><path d="M120 135h80l-2 5-33.988 18.99S161.22 161 160 161c-1.37 0-3.992-1.994-3.992-1.994L122 140z" style="isolation:auto;mix-blend-mode:normal;marker:none" color="#000" overflow="visible" fill="url(#q)" paint-order="fill markers stroke" transform="translate(-112 -112)"/><path d="M151.5 140.47a6.822 6.822 0 0 0-6.816 6.817 6.822 6.822 0 0 0 6.816 6.817 6.81 6.81 0 0 0 5.674-3.047v.714s3.766-.888 5.69-1c1.687-.098 2.867 1.947 5.109 2.06 1.349.067 3.72-2.84 5.02-2.74 1.49.116 2.762 1.815 3.92 2.106 1.885.475 3.26-.426 3.26-.426v-.984s-1.294.85-3.232.664c-1.13-.109-2.481-2.23-3.921-2.342-1.318-.102-3.709 2.805-5.077 2.737-2.208-.11-3.353-2.154-5.017-2.059-1.857.106-5.252.887-5.563.96.24-.405.44-.835.592-1.288.337-.079 3.653-.849 5.482-.955 1.688-.098 2.87 1.948 5.112 2.06 1.349.068 3.719-2.84 5.017-2.74 1.492.116 2.763 1.816 3.92 2.108 1.886.474 3.262-.428 3.262-.428v-.984s-1.295.85-3.232.664c-1.132-.11-2.482-2.23-3.922-2.342-1.317-.102-3.709 2.804-5.076 2.736-2.209-.11-3.354-2.154-5.018-2.058-1.732.099-4.607.745-5.285.9.062-.37.101-.746.101-1.133 0-.193-.013-.381-.029-.57.451-.105 3.612-.833 5.404-.938 1.688-.098 2.868 1.946 5.11 2.059 1.349.068 3.719-2.839 5.017-2.738 1.492.115 2.765 1.814 3.922 2.105 1.886.475 3.26-.426 3.26-.426v-.984s-1.295.85-3.232.664c-1.132-.109-2.48-2.23-3.92-2.342-1.317-.102-3.71 2.805-5.078 2.737-2.21-.11-3.354-2.154-5.018-2.06-1.88.108-5.381.918-5.613.972a6.766 6.766 0 0 0-.725-1.856c.615-.142 3.542-.809 5.277-.91 1.688-.098 2.868 1.946 5.11 2.059 1.349.067 3.719-2.84 5.017-2.739 1.492.116 2.765 1.815 3.922 2.106 1.886.474 3.26-.426 3.26-.426v-.984s-1.295.85-3.232.664c-1.132-.11-2.48-2.23-3.92-2.342-1.317-.102-3.71 2.804-5.078 2.736-2.21-.11-3.354-2.153-5.018-2.058-1.943.11-5.752 1-5.752 1v.261a6.802 6.802 0 0 0-5.5-2.806zm0 .634a6.178 6.178 0 0 1 6.184 6.183 6.178 6.178 0 0 1-6.184 6.184 6.178 6.178 0 0 1-6.184-6.184 6.178 6.178 0 0 1 6.184-6.183zm-.11.337a.607.607 0 0 0-.607.608.607.607 0 0 0 .608.607.607.607 0 0 0 .607-.607.607.607 0 0 0-.607-.608zm.11 1.584a4.264 4.264 0 0 0-4.262 4.262 4.264 4.264 0 0 0 4.262 4.262 4.264 4.264 0 0 0 4.262-4.262 4.264 4.264 0 0 0-4.262-4.262zm0 .395a3.864 3.864 0 0 1 3.867 3.867 3.864 3.864 0 0 1-3.867 3.867 3.864 3.864 0 0 1-3.867-3.867 3.864 3.864 0 0 1 3.867-3.867zm1.957 2.635c-.32 0-.577.107-.77.322-.19.214-.287.501-.287.861s.096.646.287.86c.193.213.45.322.77.322s.574-.109.766-.322c.191-.215.287-.5.287-.86s-.096-.647-.287-.861c-.192-.215-.446-.322-.766-.322zm-4.986.04v2.28h1.468v-.26h-1.16v-.826h1.086v-.26h-1.086v-.674h1.133v-.26zm1.697 0l.87 2.28h.349l.869-2.28h-.32l-.725 1.919-.72-1.918zm3.289.21c.224 0 .401.083.531.25.132.167.198.395.198.683 0 .287-.066.513-.198.68a.638.638 0 0 1-.531.25.648.648 0 0 1-.535-.25c-.131-.167-.195-.393-.195-.68 0-.288.064-.516.195-.683a.648.648 0 0 1 .535-.25zm3.414.478a.607.607 0 0 0-.605.608.607.607 0 0 0 .605.607.607.607 0 0 0 .608-.607.607.607 0 0 0-.608-.608zm-10.576.016a.607.607 0 0 0-.606.607.607.607 0 0 0 .606.608.607.607 0 0 0 .607-.608.607.607 0 0 0-.607-.607zm5.514 5.125a.607.607 0 0 0-.608.607.607.607 0 0 0 .608.608.607.607 0 0 0 .605-.608.607.607 0 0 0-.605-.607z" style="line-height:normal;font-variant-ligatures:normal;font-variant-position:normal;font-variant-caps:normal;font-variant-numeric:normal;font-variant-alternates:normal;font-feature-settings:normal;text-indent:0;text-align:start;text-decoration-line:none;text-decoration-style:solid;text-decoration-color:#000;text-transform:none;text-orientation:mixed;shape-padding:0;isolation:auto;mix-blend-mode:normal;marker:none" color="#000" font-weight="400" font-family="sans-serif" white-space="normal" overflow="visible" fill="url(#r)" paint-order="fill markers stroke" transform="translate(-112 -112)"/><path d="M19 20.992L4 21v8l1.008-2.008V22h11.984zm32 0L39 21l-2 1h11.992zm32 0L71 21l-2 1h11.992zM92.008 22l-1 2L91 36l1.008-2.008zm-87 24l-1 2L4 60l1.008-2.008zm87 8l-1 2L91 68l1.008-2.008zM7 75l-2 1h11.992L19 75zm32 0l-2 1h11.992L51 75zm32 0l-2 1h11.992L83 75z" fill="#5477b0" fill-rule="evenodd"/><path d="M35 20.992L23 21l-2 1h11.992zm32 0L55 21l-2 1h11.992zm25 0L87 21l-2 1h4.992zM5.008 30l-1 2L4 44l1.008-2.008zm87 8l-1 2L91 52l1.008-2.008zm-87 24l-1 2L4 76l1.008-2.008zm87 8l-1 2-.006 2.994L87 75l-2 1h7zM23 75l-2 1h12l2-1zm32 0l-2 1h12l2-1z" fill="#b05457" fill-rule="evenodd"/></svg>