<svg xmlns="http://www.w3.org/2000/svg" xmlns:xlink="http://www.w3.org/1999/xlink" height="96" viewBox="0 0 96 96" width="96"><title>Template icons dark</title><defs><linearGradient id="d"><stop offset="0" stop-color="#fff" stop-opacity=".456"/><stop offset="1" stop-color="#fff" stop-opacity="0"/></linearGradient><linearGradient id="c"><stop offset="0" stop-color="#c7c7c7"/><stop offset="1" stop-color="#fff" stop-opacity=".989"/></linearGradient><linearGradient id="b"><stop offset="0" stop-color="#a61f23"/><stop offset="1" stop-color="#ff4955"/></linearGradient><linearGradient id="a"><stop offset="0" stop-color="#88c1df"/><stop offset="1" stop-color="#f0f5f8"/></linearGradient><linearGradient xlink:href="#a" id="e" x1="170" y1="186" x2="170" y2="118" gradientUnits="userSpaceOnUse" gradientTransform="translate(-1 -1)"/><linearGradient xlink:href="#b" id="h" gradientUnits="userSpaceOnUse" gradientTransform="matrix(1.8909 0 0 1.8909 -141.682 -140.94)" x1="165.921" y1="192" x2="159" y2="147.661"/><radialGradient xlink:href="#d" id="f" cx="191" cy="155.342" fx="191" fy="155.342" r="45.374" gradientTransform="matrix(.75002 0 0 .58056 45.746 62.815)" gradientUnits="userSpaceOnUse"/><radialGradient xlink:href="#d" id="g" gradientUnits="userSpaceOnUse" gradientTransform="matrix(.56451 0 0 .43696 65.349 86.11)" cx="105.669" cy="162.232" fx="105.669" fy="162.232" r="45.374"/></defs><path d="M49.322 4.756a26.077 26.077 0 0 0-24.95 18.52A26.077 26.077 0 0 0 2.946 48.921a26.077 26.077 0 0 0 10.54 20.904A19.752 19.752 0 0 0 26.841 75h42.317c3.657 0 7.065-.997 10.001-2.709a26.077 26.077 0 0 0 14.535-23.37A26.077 26.077 0 0 0 74.422 23.78a26.077 26.077 0 0 0-25.1-19.023z" style="isolation:auto;mix-blend-mode:normal;marker:none" color="#000" display="block" overflow="visible" fill="none" stroke="#000" stroke-width="1.454" stroke-linecap="round" stroke-opacity=".066" paint-order="markers stroke fill"/><path style="isolation:auto;mix-blend-mode:normal;marker:none" d="M161.322 115.756a26.077 26.077 0 0 0-24.95 18.52 26.077 26.077 0 0 0-21.425 25.646 26.077 26.077 0 0 0 10.54 20.904A19.752 19.752 0 0 0 138.841 186h42.317c3.657 0 7.065-.997 10.001-2.709a26.077 26.077 0 0 0 14.535-23.37 26.077 26.077 0 0 0-19.273-25.142 26.077 26.077 0 0 0-25.1-19.023z" color="#000" overflow="visible" fill="url(#e)" paint-order="markers stroke fill" transform="translate(-112 -112)"/><path style="isolation:auto;mix-blend-mode:normal;marker:none" d="M2.996 46.865a26.077 26.077 0 0 0-.049 1.057 26.077 26.077 0 0 0 10.54 20.904A19.752 19.752 0 0 0 26.841 74h42.317c3.657 0 7.065-.997 10.001-2.709a26.077 26.077 0 0 0 14.535-23.37 26.077 26.077 0 0 0-.048-.948A26.077 26.077 0 0 1 79.16 69.29 19.776 19.776 0 0 1 69.158 72H26.842c-5.161 0-9.833-1.967-13.356-5.174a26.077 26.077 0 0 1-10.49-19.96z" color="#000" overflow="visible" fill="#365a83" fill-opacity=".22" paint-order="markers stroke fill"/><path d="M161.322 115.756a26.077 26.077 0 0 0-24.95 18.52 26.077 26.077 0 0 0-21.425 25.646 26.077 26.077 0 0 0 10.54 20.904A19.752 19.752 0 0 0 138.841 186h42.317c3.657 0 7.065-.997 10.001-2.709a26.077 26.077 0 0 0 14.535-23.37 26.077 26.077 0 0 0-19.273-25.142 26.077 26.077 0 0 0-25.1-19.023z" style="isolation:auto;mix-blend-mode:normal;marker:none" color="#000" overflow="visible" fill="url(#f)" paint-order="markers stroke fill" transform="translate(-112 -112)"/><path style="isolation:auto;mix-blend-mode:normal;marker:none" d="M161.322 115.756a26.077 26.077 0 0 0-24.95 18.52 26.077 26.077 0 0 0-21.425 25.646 26.077 26.077 0 0 0 10.54 20.904A19.752 19.752 0 0 0 138.841 186h42.317c3.657 0 7.065-.997 10.001-2.709a26.077 26.077 0 0 0 14.535-23.37 26.077 26.077 0 0 0-19.273-25.142 26.077 26.077 0 0 0-25.1-19.023z" color="#000" overflow="visible" fill="url(#g)" paint-order="markers stroke fill" transform="translate(-112 -112)"/><path d="M49.209 22.065c-1.582 0-3.198.715-4.388 2.143L17.714 60.164c-.995 2.033-.21 4.066 2.633 4.066h19.766l6.502 26.498c.092 2.5 1.013 4.524 2.273 4.524 1.259 0 2.18-2.024 2.273-4.524l6.505-26.498H77.57c2.827 0 2.825-3.847 2.097-4.808-8.756-11.737-17.513-23.47-26.27-35.207-1.06-1.43-2.606-2.149-4.187-2.15z" style="isolation:auto;mix-blend-mode:normal;marker:none" color="#000" overflow="visible" fill-opacity=".176" paint-order="markers stroke fill"/><path style="isolation:auto;mix-blend-mode:normal;marker:none" d="M161.209 130c-1.582 0-3.198.714-4.388 2.142l-27.107 35.957c-.995 2.032-.21 4.066 2.633 4.066h19.766l6.502 26.498c.092 2.5 1.013 4.524 2.273 4.524 1.259 0 2.18-2.024 2.273-4.524l6.505-26.498h19.903c2.827 0 2.825-3.847 2.097-4.809l-26.27-35.207c-1.06-1.43-2.606-2.148-4.187-2.149z" color="#000" overflow="visible" fill="url(#h)" paint-order="markers stroke fill" transform="translate(-112 -112)"/><path style="isolation:auto;mix-blend-mode:normal;marker:none" d="M80.007 56.34c-.178 1.231-.857 2.438-2.44 2.438H57.666l-6.505 26.496c-.092 2.5-1.014 4.524-2.273 4.524-1.26 0-2.18-2.025-2.273-4.524l-6.503-26.496H20.347c-1.714 0-2.668-.746-2.947-1.778-.388 1.69.53 3.166 2.947 3.166h19.765l6.503 26.496c.092 2.5 1.014 4.524 2.273 4.524 1.26 0 2.18-2.025 2.273-4.524l6.505-26.496h19.901c2.211 0 2.684-2.34 2.44-3.825z" color="#000" overflow="visible" fill="#5d0a0a" fill-opacity=".434" paint-order="markers stroke fill"/><path style="isolation:auto;mix-blend-mode:normal;marker:none" d="M49.209 18.001c-1.581 0-3.197.715-4.387 2.143L17.714 56.099c-.407.833-.497 1.657-.288 2.35a4.27 4.27 0 0 1 .288-.762L44.822 21.73c1.19-1.428 2.806-2.143 4.387-2.142 1.581 0 3.128.717 4.188 2.148l26.268 35.206c.148.195.255.528.326.905.174-1.005.009-2.052-.326-2.493L53.397 20.15c-1.06-1.431-2.607-2.148-4.188-2.149z" color="#000" overflow="visible" fill="red" fill-opacity=".363" paint-order="markers stroke fill"/><path d="M58.786 40.897h-13.54l.706-3.306h8.253l.757-3.559H43.1L39.364 51.65h3.584l1.64-7.698h8.597l-7.47 7.395 1.313 2.321c.605-.403 1.59-.454 2.271-.454 1.212 0 2.398.404 3.634.404 1.134 0 2.294-.076 4.187-.984l.662-3.104c-1.287.53-3.192 1.034-4.849 1.034-.68 0-1.312-.151-1.968-.252l7.24-7.042.581-2.372z" fill-opacity=".286"/><path d="M58.786 39.865h-13.54l.706-3.306h8.253L54.962 33H43.1l-3.736 17.616h3.584l1.64-7.698h8.597l-7.47 7.395 1.313 2.322c.605-.404 1.59-.454 2.271-.454 1.212 0 2.398.404 3.634.404 1.134 0 2.294-.076 4.187-.985l.662-3.104c-1.287.53-3.192 1.035-4.849 1.035-.68 0-1.312-.152-1.968-.252l7.24-7.042.581-2.373z" fill="#fff"/></svg>