<svg xmlns="http://www.w3.org/2000/svg" xmlns:xlink="http://www.w3.org/1999/xlink" height="96" viewBox="0 0 96 96" width="96"><title>Template icons dark</title><defs><linearGradient id="c"><stop offset="0" stop-color="#fff" stop-opacity=".172"/><stop offset="1" stop-opacity="0"/></linearGradient><linearGradient id="b"><stop offset="0" stop-color="#730216" stop-opacity=".781"/><stop offset="1" stop-color="#d9042a" stop-opacity=".027"/></linearGradient><linearGradient id="a"><stop offset="0" stop-color="#d40e0e"/><stop offset="1" stop-color="#910404" stop-opacity=".965"/></linearGradient><linearGradient xlink:href="#a" id="d" x1="160.855" y1="121.51" x2="160.855" y2="200.855" gradientUnits="userSpaceOnUse"/><linearGradient xlink:href="#b" id="e" gradientUnits="userSpaceOnUse" x1="198.319" y1="122.536" x2="175.155" y2="144.161" gradientTransform="translate(0 -320)"/><linearGradient xlink:href="#c" id="f" x1="160" y1="197.921" x2="160" y2="120" gradientUnits="userSpaceOnUse"/></defs><path style="isolation:auto;mix-blend-mode:normal;marker:none" color="#000" display="block" overflow="visible" fill-opacity=".078" paint-order="fill markers stroke" d="M6 6h83v84H6z"/><path style="isolation:auto;mix-blend-mode:normal;marker:none" color="#000" display="block" overflow="visible" fill-opacity=".078" paint-order="fill markers stroke" d="M7 7h82v82H7z"/><path style="isolation:auto;mix-blend-mode:normal;marker:none" color="#000" overflow="visible" fill="url(#d)" paint-order="fill markers stroke" d="M120 120h80v80h-80z" transform="translate(-112 -112)"/><path style="isolation:auto;mix-blend-mode:normal;marker:none" transform="rotate(90 0 -112)" color="#000" display="block" overflow="visible" fill="url(#e)" paint-order="fill markers stroke" d="M120-200h80v80h-80z"/><path d="M34 58v7c5.376.448 12.163-1.61 16-13h8v-7h-5c2.35-2.9 5.64-5.296 9-6v-7c-12.216 1.218-13.78 8.156-17 14-4.42 8.199-7.054 9.8-11 12z" fill-opacity=".151" fill-rule="evenodd"/><path d="M34 57v7c5.376.448 12.163-1.61 16-13h8v-7h-5c2.35-2.9 5.64-5.296 9-6v-7c-12.216 1.218-13.78 8.156-17 14-4.42 8.199-7.054 9.8-11 12z" fill="#fefefe" fill-rule="evenodd"/><path style="line-height:1000%;-inkscape-font-specification:'sans-serif Bold'" d="M48 62v.45h.766v1.858h.596V62.45h.765V62zm2.433 0v2.308h.564V62.62l.531 1.244h.378l.532-1.244v1.687H53V62h-.756l-.528 1.236L51.19 62z" font-weight="700" font-family="sans-serif" letter-spacing="0" word-spacing="0" fill="#fff"/><path style="line-height:normal;font-variant-ligatures:normal;font-variant-position:normal;font-variant-caps:normal;font-variant-numeric:normal;font-variant-alternates:normal;font-feature-settings:normal;text-indent:0;text-align:start;text-decoration-line:none;text-decoration-style:solid;text-decoration-color:#000;text-transform:none;text-orientation:mixed;shape-padding:0;isolation:auto;mix-blend-mode:normal;marker:none" d="M200 120h-80v80h80zm-1 1v78h-78v-78z" color="#000" font-weight="400" font-family="sans-serif" white-space="normal" overflow="visible" fill="url(#f)" paint-order="fill markers stroke" transform="translate(-112 -112)"/><path d="M84.649 81.471c0-2.3-1.876-4.175-4.176-4.175a4.184 4.184 0 0 0-4.176 4.175c0 2.3 1.876 4.176 4.176 4.176 2.3 0 4.176-1.876 4.176-4.176zM93 79.694v3.621c0 .244-.195.539-.457.587l-3.018.457a9.25 9.25 0 0 1-.636 1.485c.554.8 1.142 1.516 1.746 2.25a.64.64 0 0 1 .162.409c0 .147-.049.26-.147.374-.391.522-2.593 2.92-3.148 2.92-.147 0-.294-.066-.424-.147l-2.25-1.761c-.474.244-.98.457-1.485.62-.114.995-.212 2.056-.473 3.034a.598.598 0 0 1-.587.457h-3.621c-.294 0-.555-.212-.587-.49l-.457-3a9.59 9.59 0 0 1-1.468-.604l-2.3 1.745a.589.589 0 0 1-.816-.032c-.864-.783-2.006-1.795-2.691-2.74a.632.632 0 0 1 .017-.75c.554-.75 1.157-1.468 1.713-2.235a8.687 8.687 0 0 1-.67-1.615l-2.984-.44a.595.595 0 0 1-.473-.588V79.63c0-.244.195-.539.44-.587l3.034-.457a8.57 8.57 0 0 1 .636-1.5 39.3 39.3 0 0 0-1.745-2.25.598.598 0 0 1-.163-.392c0-.148.066-.261.147-.375.391-.539 2.593-2.92 3.148-2.92.147 0 .294.066.424.163l2.25 1.745c.474-.244.98-.457 1.485-.62.114-.995.212-2.056.473-3.034a.598.598 0 0 1 .587-.457h3.621c.294 0 .555.212.587.49l.457 3.001c.505.163.995.36 1.468.603l2.316-1.745a.555.555 0 0 1 .392-.147c.147 0 .293.066.408.163.864.8 2.006 1.81 2.691 2.772a.557.557 0 0 1 .114.36c0 .147-.05.26-.13.374-.555.75-1.158 1.468-1.714 2.235.278.522.506 1.061.67 1.599l2.984.457c.278.049.473.31.473.587z" fill-opacity=".271"/><path d="M83.703 80.525c0-2.3-1.876-4.175-4.176-4.175a4.184 4.184 0 0 0-4.176 4.175c0 2.3 1.876 4.176 4.176 4.176 2.3 0 4.176-1.876 4.176-4.176zm8.351-1.777v3.621c0 .244-.195.539-.457.587l-3.018.457a9.25 9.25 0 0 1-.636 1.485c.554.8 1.142 1.516 1.746 2.25a.64.64 0 0 1 .162.408c0 .148-.049.261-.147.375-.391.522-2.593 2.92-3.148 2.92-.147 0-.294-.066-.424-.147l-2.25-1.761c-.474.244-.98.457-1.485.62-.114.995-.212 2.056-.473 3.034a.598.598 0 0 1-.587.457h-3.621c-.294 0-.555-.212-.587-.49l-.457-3.001a9.59 9.59 0 0 1-1.468-.603l-2.3 1.745a.588.588 0 0 1-.816-.032c-.864-.783-2.006-1.795-2.691-2.74a.632.632 0 0 1 .017-.75c.554-.75 1.157-1.468 1.713-2.235a8.688 8.688 0 0 1-.67-1.615l-2.984-.44a.595.595 0 0 1-.473-.588v-3.621c0-.244.195-.539.44-.587l3.034-.457a8.57 8.57 0 0 1 .636-1.5 39.313 39.313 0 0 0-1.745-2.251.598.598 0 0 1-.163-.391c0-.148.066-.261.147-.375.391-.539 2.593-2.92 3.148-2.92.147 0 .294.066.424.163l2.25 1.745c.474-.244.98-.457 1.485-.62.114-.995.212-2.056.473-3.034a.598.598 0 0 1 .587-.457h3.621c.294 0 .555.212.587.49l.457 3.001c.505.163.995.36 1.468.603l2.316-1.745a.555.555 0 0 1 .392-.147c.147 0 .293.066.408.163.864.8 2.006 1.81 2.691 2.772a.557.557 0 0 1 .114.36c0 .147-.05.26-.13.374-.555.75-1.158 1.468-1.714 2.235.278.522.506 1.06.67 1.599l2.984.457c.278.049.473.31.473.587z" fill="#fbfbfb"/></svg>