<svg xmlns="http://www.w3.org/2000/svg" xmlns:xlink="http://www.w3.org/1999/xlink" height="96" viewBox="0 0 96 96" width="96"><title>Template icons dark</title><defs><linearGradient id="j"><stop offset="0" stop-color="#fff" stop-opacity=".194"/><stop offset=".043" stop-color="#fff" stop-opacity=".183"/><stop offset=".11" stop-color="#fff" stop-opacity=".262"/><stop offset=".139" stop-color="#fff" stop-opacity=".12"/><stop offset=".473" stop-color="#fff" stop-opacity=".136"/><stop offset=".517" stop-color="#fff" stop-opacity=".288"/><stop offset=".553" stop-color="#fff" stop-opacity=".173"/><stop offset="1" stop-color="#fff" stop-opacity=".11"/></linearGradient><linearGradient id="f"><stop offset="0" stop-opacity=".529"/><stop offset="1" stop-color="#6a062f" stop-opacity="0"/></linearGradient><linearGradient id="h"><stop offset="0" stop-opacity=".56"/><stop offset="1" stop-color="#6a062f" stop-opacity="0"/></linearGradient><linearGradient id="i"><stop offset="0" stop-opacity=".529"/><stop offset="1" stop-color="#6a062f" stop-opacity="0"/></linearGradient><linearGradient id="g"><stop offset="0" stop-opacity=".445"/><stop offset="1" stop-color="#6a062f" stop-opacity="0"/></linearGradient><linearGradient xlink:href="#a" id="q" x1="140.465" y1="191" x2="133.606" y2="140" gradientUnits="userSpaceOnUse"/><linearGradient gradientTransform="matrix(.6891 0 0 .6891 63.744 60.744)" xlink:href="#b" id="k" x1="161.702" y1="118.898" x2="161.702" y2="197.932" gradientUnits="userSpaceOnUse"/><linearGradient id="b"><stop offset="0" stop-color="#cfdde2"/><stop offset="1" stop-color="#90a1b1"/></linearGradient><linearGradient gradientTransform="matrix(.6891 0 0 .6891 63.744 60.744)" xlink:href="#c" id="l" x1="168.352" y1="125.665" x2="168.352" y2="190.817" gradientUnits="userSpaceOnUse"/><linearGradient id="c"><stop offset="0" stop-color="#eaf2f7"/><stop offset="1" stop-color="#99b4c0"/></linearGradient><linearGradient xlink:href="#d" id="m" x1="10.43" y1="43.068" x2="38.891" y2="13.193" gradientUnits="userSpaceOnUse" gradientTransform="matrix(.66493 0 0 .66493 62.281 57.154)"/><linearGradient id="d"><stop offset="0" stop-color="#f95e86"/><stop offset="1" stop-color="#613ef5"/></linearGradient><linearGradient xlink:href="#d" id="n" gradientUnits="userSpaceOnUse" gradientTransform="matrix(.64773 0 0 .64773 70.418 67.605)" x1="142.933" y1="141.101" x2="170.722" y2="184.329"/><linearGradient id="a"><stop offset="0" stop-color="#7a0b1c"/><stop offset="1" stop-color="#e82895"/></linearGradient><linearGradient xlink:href="#e" id="o" gradientUnits="userSpaceOnUse" gradientTransform="matrix(.32036 0 0 .48424 122.857 112.282)" x1="146.804" y1="139.479" x2="174.466" y2="139.479"/><linearGradient id="e"><stop offset="0" stop-color="#fff" stop-opacity="0"/><stop offset=".48" stop-color="#fff"/><stop offset="1" stop-color="#f5f6f6" stop-opacity="0"/></linearGradient><linearGradient xlink:href="#e" id="p" x1="146.804" y1="139.479" x2="174.466" y2="139.479" gradientUnits="userSpaceOnUse" gradientTransform="matrix(.29664 0 0 .48424 126.31 92.35)"/><linearGradient xlink:href="#f" id="t" x1="138" y1="183" x2="142" y2="202.472" gradientUnits="userSpaceOnUse"/><linearGradient xlink:href="#h" id="s" gradientUnits="userSpaceOnUse" x1="148" y1="136" x2="167.134" y2="118"/><linearGradient xlink:href="#i" id="r" gradientUnits="userSpaceOnUse" x1="144" y1="151.559" x2="154.394" y2="163"/><linearGradient xlink:href="#f" id="v" gradientUnits="userSpaceOnUse" x1="136.449" y1="161" x2="107.15" y2="117"/><linearGradient xlink:href="#j" id="u" x1="145.677" y1="123" x2="127" y2="195" gradientUnits="userSpaceOnUse"/></defs><g color="#000"><path d="M58.197 27.99c-.526 0-.82.417-.951.899l-2.02 7.43c-1.379.492-3.19 1.18-4.411 1.818l-6.686-3.848c-.433-.249-.935-.335-1.308.038l-5.437 5.437c-.372.372-.285.868-.037 1.302l3.758 6.569a23.863 23.863 0 0 0-1.956 4.57l-7.26 1.956c-.482.13-.898.425-.898.952v7.69c0 .526.416.815.898.946l7.1 1.935a23.862 23.862 0 0 0 1.962 4.82l-3.662 6.367c-.25.433-.335.936.037 1.308l5.437 5.437c.372.372.869.285 1.302.037l6.282-3.598a23.861 23.861 0 0 0 4.927 2.057l1.887 7c.13.481.425.897.951.897h7.69c.527 0 .816-.416.947-.898l1.908-7.005a23.862 23.862 0 0 0 4.863-2.046l6.351 3.651c.433.25.935.335 1.308-.037l5.437-5.437c.372-.372.285-.874.037-1.307l-3.683-6.426c.8-1.5 1.438-3.08 1.903-4.714l7.238-1.956c.483-.13.899-.42.899-.946v-7.69c0-.527-.417-.82-.899-.952l-7.36-1.998a23.862 23.862 0 0 0-1.877-4.454l3.837-6.665c.25-.432.335-.935-.037-1.307l-5.437-5.437c-.372-.372-.874-.285-1.307-.037l-6.681 3.826c-1.473-.604-3.014-1.35-4.39-1.796l-2.025-7.489c-.13-.482-.42-.898-.946-.898h-7.69zm3.808 19.698c6.264 0 11.343 5.078 11.343 11.343 0 6.264-5.079 11.343-11.343 11.343-6.265 0-11.344-5.079-11.344-11.343 0-6.265 5.079-11.343 11.344-11.343z" style="isolation:auto;mix-blend-mode:normal;marker:none" overflow="visible" fill="none" stroke="#000" stroke-width="1.981" stroke-opacity=".168" paint-order="fill markers stroke"/><path style="isolation:auto;mix-blend-mode:normal;marker:none" d="M170.197 139.99c-.526 0-.82.417-.951.899l-2.02 7.43c-1.379.492-3.19 1.18-4.411 1.818l-6.686-3.848c-.433-.249-.935-.335-1.308.038l-5.437 5.437c-.372.372-.285.868-.037 1.302l3.758 6.569a23.863 23.863 0 0 0-1.956 4.57l-7.26 1.956c-.482.13-.898.425-.898.952v7.69c0 .526.416.815.898.946l7.1 1.935a23.862 23.862 0 0 0 1.962 4.82l-3.662 6.367c-.25.433-.335.936.037 1.308l5.437 5.437c.372.372.869.285 1.302.037l6.282-3.598a23.861 23.861 0 0 0 4.927 2.057l1.887 7c.13.481.425.897.951.897h7.69c.527 0 .816-.416.947-.898l1.908-7.005a23.862 23.862 0 0 0 4.863-2.046l6.351 3.651c.433.25.935.335 1.308-.037l5.437-5.437c.372-.372.285-.874.037-1.307l-3.683-6.426c.8-1.5 1.438-3.08 1.903-4.714l7.238-1.956c.483-.13.899-.42.899-.946v-7.69c0-.527-.417-.82-.899-.952l-7.36-1.998a23.862 23.862 0 0 0-1.877-4.454l3.837-6.665c.25-.432.335-.935-.037-1.307l-5.437-5.437c-.372-.372-.874-.285-1.307-.037l-6.681 3.826c-1.473-.604-3.014-1.35-4.39-1.796l-2.025-7.489c-.13-.482-.42-.898-.946-.898h-7.69zm3.808 19.698c6.264 0 11.343 5.078 11.343 11.343 0 6.264-5.079 11.343-11.343 11.343-6.265 0-11.344-5.079-11.344-11.343 0-6.265 5.079-11.343 11.344-11.343z" overflow="visible" fill="url(#k)" paint-order="fill markers stroke" transform="translate(-112 -112)"/><path style="line-height:normal;text-indent:0;text-align:start;text-decoration-line:none;text-decoration-style:solid;text-decoration-color:#000;text-transform:none;isolation:auto;mix-blend-mode:normal;marker:none" d="M62.004 34.529c-13.465 0-24.475 11.001-24.475 24.467 0 13.465 11.01 24.476 24.475 24.476 13.466 0 24.468-11.01 24.468-24.476S75.47 34.529 62.004 34.529zm.001 5.19A19.188 19.188 0 0 1 81.28 58.996c0 10.714-8.561 19.285-19.275 19.285A19.205 19.205 0 0 1 42.72 58.995c0-10.714 8.571-19.275 19.285-19.275z" font-weight="400" font-family="sans-serif" white-space="normal" overflow="visible" fill-opacity=".173" paint-order="fill markers stroke"/><path d="M174.004 147.27c-13.058 0-23.735 10.668-23.735 23.726s10.677 23.735 23.735 23.735 23.727-10.677 23.727-23.735-10.669-23.727-23.727-23.727zm0 5.033a18.607 18.607 0 0 1 18.692 18.692c0 10.39-8.302 18.702-18.691 18.702a18.624 18.624 0 0 1-18.702-18.702c0-10.39 8.312-18.692 18.702-18.692z" style="line-height:normal;text-indent:0;text-align:start;text-decoration-line:none;text-decoration-style:solid;text-decoration-color:#000;text-transform:none;isolation:auto;mix-blend-mode:normal;marker:none" font-weight="400" font-family="sans-serif" white-space="normal" overflow="visible" fill="url(#l)" paint-order="fill markers stroke" transform="translate(-112 -112)"/><path d="M174.003 152.297c-10.29 0-18.706 8.409-18.706 18.7 0 10.29 8.415 18.706 18.706 18.706s18.7-8.415 18.7-18.706-8.409-18.7-18.7-18.7zm.001 4.72a13.95 13.95 0 0 1 14.014 14.014c0 7.79-6.224 14.021-14.014 14.021a13.964 13.964 0 0 1-14.021-14.021c0-7.79 6.232-14.014 14.021-14.014z" style="line-height:normal;text-indent:0;text-align:start;text-decoration-line:none;text-decoration-style:solid;text-decoration-color:#000;text-transform:none;isolation:auto;mix-blend-mode:normal;marker:none" font-weight="400" font-family="sans-serif" white-space="normal" overflow="visible" fill="url(#m)" paint-order="fill markers stroke" transform="translate(-112 -112)"/><path style="line-height:normal;text-indent:0;text-align:start;text-decoration-line:none;text-decoration-style:solid;text-decoration-color:#000;text-transform:none;isolation:auto;mix-blend-mode:normal;marker:none" d="M174.003 152.297c-10.29 0-18.706 8.409-18.706 18.7 0 10.29 8.415 18.706 18.706 18.706s18.7-8.415 18.7-18.706-8.409-18.7-18.7-18.7zm0 10.367a8.33 8.33 0 0 1 8.368 8.368 8.334 8.334 0 0 1-8.368 8.373 8.338 8.338 0 0 1-8.373-8.373 8.334 8.334 0 0 1 8.373-8.368z" font-weight="400" font-family="sans-serif" white-space="normal" overflow="visible" fill="url(#n)" paint-order="fill markers stroke" transform="translate(-112 -112)"/><path style="line-height:normal;text-indent:0;text-align:start;text-decoration-line:none;text-decoration-style:solid;text-decoration-color:#000;text-transform:none;isolation:auto;mix-blend-mode:normal;marker:none" d="M62.003 40.297c-10.291 0-18.705 8.41-18.705 18.7 0 .116.006.23.008.345.185-10.133 8.521-18.355 18.697-18.355 10.175 0 18.506 8.222 18.691 18.355.002-.115.008-.23.008-.345 0-10.29-8.408-18.7-18.7-18.7z" font-weight="400" font-family="sans-serif" white-space="normal" overflow="visible" fill-opacity=".283" paint-order="fill markers stroke"/><path style="isolation:auto;mix-blend-mode:normal;marker:none" d="M58.198 27.99c-.526 0-.82.416-.952.898l-2.02 7.431c-1.379.492-3.19 1.18-4.412 1.818L44.13 34.29c-.432-.249-.936-.334-1.308.038l-5.437 5.436c-.28.28-.3.63-.187.97a.85.85 0 0 1 .187-.28l5.437-5.437c.372-.372.876-.287 1.308-.038l6.685 3.848c1.221-.639 3.033-1.326 4.412-1.818l2.02-7.43c.131-.482.426-.898.952-.898h7.69c.527 0 .817.417.947.899l2.024 7.488c1.375.446 2.917 1.191 4.39 1.796l6.681-3.827c.433-.248.935-.334 1.307.038l5.437 5.437a.849.849 0 0 1 .189.283c.111-.34.09-.693-.189-.972l-5.437-5.437c-.372-.372-.874-.286-1.307-.038l-6.681 3.827c-1.473-.605-3.015-1.35-4.39-1.796l-2.024-7.488c-.13-.483-.42-.9-.947-.9zM40.917 47.996a23.857 23.857 0 0 0-1.768 4.21l-7.26 1.957c-.483.13-.898.425-.898.951v.69c0-.527.415-.823.897-.952l7.261-1.956a23.86 23.86 0 0 1 1.956-4.57zm42.144.162l-.187.326a23.86 23.86 0 0 1 1.876 4.454l7.362 1.998c.482.131.897.426.897.952v-.69c0-.525-.415-.82-.897-.95l-7.362-2a23.854 23.854 0 0 0-1.69-4.09zm-42.296 22.67l-3.477 6.044c-.19.33-.283.702-.15 1.025.037-.114.088-.228.15-.336l3.662-6.366c-.065-.121-.122-.246-.185-.368zm42.388 0c-.062.121-.12.246-.184.367l3.684 6.425c.062.108.113.221.15.335.132-.323.04-.693-.15-1.024z" overflow="visible" fill="#fff" fill-opacity=".675" paint-order="fill markers stroke"/><path style="line-height:normal;text-indent:0;text-align:start;text-decoration-line:none;text-decoration-style:solid;text-decoration-color:#000;text-transform:none;isolation:auto;mix-blend-mode:normal;marker:none" d="M62.003 50.376c-5.486 0-9.972 4.482-9.972 9.968s4.486 9.972 9.972 9.972 9.968-4.486 9.968-9.972-4.482-9.968-9.968-9.968zm0 2.063a6.986 6.986 0 0 1 7.017 7.018 6.99 6.99 0 0 1-7.018 7.022 6.993 6.993 0 0 1-7.021-7.022 6.99 6.99 0 0 1 7.021-7.018z" font-weight="400" font-family="sans-serif" white-space="normal" overflow="visible" fill-opacity=".168" paint-order="fill markers stroke"/><path d="M62.043 48c-6.094 0-11.077 4.979-11.077 11.073 0 6.093 4.983 11.076 11.077 11.076s11.073-4.983 11.073-11.076c0-6.094-4.98-11.073-11.073-11.073zm.001 2.512a8.49 8.49 0 0 1 8.528 8.528 8.493 8.493 0 0 1-8.528 8.532 8.497 8.497 0 0 1-8.533-8.532 8.493 8.493 0 0 1 8.533-8.528z" style="line-height:normal;text-indent:0;text-align:start;text-decoration-line:none;text-decoration-style:solid;text-decoration-color:#000;text-transform:none;isolation:auto;mix-blend-mode:normal;marker:none" font-weight="400" font-family="sans-serif" white-space="normal" overflow="visible" fill="#b1c7d0" paint-order="fill markers stroke"/><path style="line-height:normal;text-indent:0;text-align:start;text-decoration-line:none;text-decoration-style:solid;text-decoration-color:#000;text-transform:none;isolation:auto;mix-blend-mode:normal;marker:none" d="M62.051 67.587a8.493 8.493 0 0 1-8.533-8.528c0-.116.013-.229.018-.344.18 4.576 3.892 7.746 8.515 7.746 4.624 0 8.33-3.17 8.51-7.746.005.115.018.228.018.344a8.489 8.489 0 0 1-8.528 8.528z" font-weight="400" font-family="sans-serif" white-space="normal" overflow="visible" fill="#718085" paint-order="fill markers stroke"/><path style="line-height:normal;text-indent:0;text-align:start;text-decoration-line:none;text-decoration-style:solid;text-decoration-color:#000;text-transform:none;isolation:auto;mix-blend-mode:normal;marker:none" d="M62.043 47.602c-6.357 0-11.078 5.194-11.078 11.55 0 .088.004.175.006.263.141-6.237 4.803-11.288 11.072-11.288 6.269 0 10.97 6.084 11.11 12.32.003-.087.008-.174.008-.262 0-6.357-4.76-12.583-11.118-12.583zm-8.076 12.834c-.004.063-.015.125-.015.19 0 2.604 4.296 6.917 8.092 6.917 3.796 0 8.17-4.313 8.17-6.918 0-.064-.012-.126-.015-.19-.157 2.516-4.453 6.556-8.155 6.556-3.702 0-7.92-4.04-8.077-6.555z" font-weight="400" font-family="sans-serif" white-space="normal" overflow="visible" fill="#fff" fill-opacity=".691" paint-order="fill markers stroke"/><path style="isolation:auto;mix-blend-mode:normal;marker:none" overflow="visible" fill="url(#o)" paint-order="fill markers stroke" d="M169.887 179.472h8.862v.705h-8.862z" transform="translate(-112 -112)"/><path style="isolation:auto;mix-blend-mode:normal;marker:none" overflow="visible" fill="url(#p)" paint-order="fill markers stroke" d="M169.857 159.54h8.206v.705h-8.206z" transform="translate(-112 -112)"/></g><path d="M11 9v79h16.024L27 55h17V39H27V25h28V9z" style="isolation:auto;mix-blend-mode:normal;marker:none" color="#000" overflow="visible" fill="none" stroke="#000" stroke-width="2" stroke-linecap="square" stroke-linejoin="bevel" stroke-opacity=".267" paint-order="markers fill stroke"/><path style="isolation:auto;mix-blend-mode:normal;marker:none" d="M124 120v79h16.024L140 166h17v-16h-17v-14h28v-16z" color="#000" overflow="visible" fill="url(#q)" fill-rule="evenodd" paint-order="markers fill stroke" transform="translate(-112 -112)"/><path d="M28.023 87L28 54h17V38H28V24h28V8H12v1h44v15H28v15h17v15H28v33.024L12 87z" style="line-height:normal;font-variant-ligatures:normal;font-variant-position:normal;font-variant-caps:normal;font-variant-numeric:normal;font-variant-alternates:normal;font-feature-settings:normal;text-indent:0;text-align:start;text-decoration-line:none;text-decoration-style:solid;text-decoration-color:#000;text-transform:none;text-orientation:mixed;shape-padding:0;isolation:auto;mix-blend-mode:normal;marker:none" color="#000" font-weight="400" font-family="sans-serif" white-space="normal" overflow="visible" fill="#fff" fill-opacity=".419" fill-rule="evenodd" paint-order="markers fill stroke"/><path d="M141 166h16v-16h-13z" fill="url(#r)" fill-rule="evenodd" transform="translate(-112 -112)"/><path d="M168 136h-21l3-16h18z" fill="url(#s)" fill-rule="evenodd" transform="translate(-112 -112)"/><path d="M140 170.236L134 199h6z" fill="url(#t)" fill-rule="evenodd" transform="translate(-112 -112)"/><path d="M137 120l-13 79h1l13-79zm12 0l-3 16h1l3-16zm-6 30l-3 16h1l3-16zm-3 19l-7 30h1l6-28.764z" style="line-height:normal;font-variant-ligatures:normal;font-variant-position:normal;font-variant-caps:normal;font-variant-numeric:normal;font-variant-alternates:normal;font-feature-settings:normal;text-indent:0;text-align:start;text-decoration-line:none;text-decoration-style:solid;text-decoration-color:#000;text-transform:none;text-orientation:mixed;shape-padding:0;isolation:auto;mix-blend-mode:normal" color="#000" font-weight="400" font-family="sans-serif" white-space="normal" overflow="visible" fill="url(#u)" fill-rule="evenodd" transform="translate(-112 -112)"/><path d="M124 120v79l13-79z" fill="url(#v)" fill-rule="evenodd" transform="translate(-112 -112)"/></svg>