<svg xmlns="http://www.w3.org/2000/svg" xmlns:xlink="http://www.w3.org/1999/xlink" width="96" viewBox="0 0 96 96" height="96"><title>Template icons dark</title><defs><linearGradient id="b"><stop offset="0" stop-color="#d6c8ee"/><stop offset="1" stop-color="#aad1f7"/></linearGradient><linearGradient id="a"><stop offset="0" stop-color="#5d8afc"/><stop offset="1" stop-color="#aa88d1"/></linearGradient><linearGradient xlink:href="#a" id="h" x1="188.825" y1="190.844" x2="130.018" y2="127.876" gradientUnits="userSpaceOnUse" gradientTransform="translate(.356)"/><linearGradient xlink:href="#b" id="j" x1="144.509" y1="142.827" x2="172.287" y2="176.313" gradientUnits="userSpaceOnUse" gradientTransform="translate(.356)"/><radialGradient gradientTransform="matrix(.06522 -.0039 .00381 .06372 -97.9 -56.391)" gradientUnits="userSpaceOnUse" id="c" r="776.623" fy="3474.059" fx="3838.903" cy="3474.059" cx="3838.903"><stop offset="0%" stop-color="#444367"/><stop offset="44.511%" stop-color="#29253B"/><stop offset="1" stop-color="#1f2032"/></radialGradient><radialGradient xlink:href="#c" id="i" gradientUnits="userSpaceOnUse" gradientTransform="matrix(.06579 -.00394 .00385 .06428 -100.121 -57.687)" cx="3838.903" cy="3474.059" fx="3838.903" fy="3474.059" r="776.623"/><radialGradient gradientTransform="matrix(.06522 -.0039 .00381 .06372 -97.9 -56.391)" gradientUnits="userSpaceOnUse" id="d" r="776.623" fy="3474.059" fx="3838.903" cy="3474.059" cx="3838.903"><stop offset="0%" stop-color="#444367"/><stop offset="44.511%" stop-color="#29253B"/><stop offset="1" stop-color="#1f2032"/></radialGradient><radialGradient gradientTransform="matrix(.06522 -.0039 .00381 .06372 -97.9 -56.391)" gradientUnits="userSpaceOnUse" id="e" r="776.623" fy="3474.059" fx="3838.903" cy="3474.059" cx="3838.903"><stop offset="0%" stop-color="#444367"/><stop offset="44.511%" stop-color="#29253B"/><stop offset="1" stop-color="#1f2032"/></radialGradient><radialGradient gradientTransform="matrix(.06522 -.0039 .00381 .06372 -97.9 -56.391)" gradientUnits="userSpaceOnUse" id="f" r="776.623" fy="3474.059" fx="3838.903" cy="3474.059" cx="3838.903"><stop offset="0%" stop-color="#444367"/><stop offset="44.511%" stop-color="#29253B"/><stop offset="1" stop-color="#1f2032"/></radialGradient><radialGradient gradientTransform="matrix(.06522 -.0039 .00381 .06372 -97.9 -56.391)" gradientUnits="userSpaceOnUse" id="g" r="776.623" fy="3474.059" fx="3838.903" cy="3474.059" cx="3838.903"><stop offset="0%" stop-color="#444367"/><stop offset="44.511%" stop-color="#29253B"/><stop offset="1" stop-color="#1f2032"/></radialGradient></defs><path d="M48.02 95.446c-4.73 0-38.597-19.553-40.962-23.649-2.365-4.096-2.365-43.202 0-47.298C9.423 20.403 43.29.85 48.02.85c4.73 0 38.596 19.553 40.961 23.65 2.365 4.095 2.365 43.201 0 47.297-2.365 4.096-36.232 23.65-40.961 23.65z" style="isolation:auto;mix-blend-mode:normal;marker:none" color="#000" overflow="visible" fill-opacity=".26"/><path style="isolation:auto;mix-blend-mode:normal;marker:none" d="M160.02 203.512c-4.337 0-35.386-17.927-37.554-21.682-2.168-3.755-2.168-39.608 0-43.364 2.168-3.755 33.217-21.681 37.554-21.681 4.336 0 35.385 17.926 37.554 21.681 2.168 3.756 2.168 39.609 0 43.364-2.169 3.755-33.218 21.682-37.554 21.682z" color="#000" overflow="visible" fill-opacity=".26" stroke="url(#h)" stroke-width="3.813" transform="translate(-112 -112)"/><path style="isolation:auto;mix-blend-mode:normal;marker:none" d="M198.207 182.196l-38.187 22.047-38.187-22.047V138.1l38.187-22.048 38.187 22.048z" color="#000" overflow="visible" fill="url(#i)" transform="translate(-112 -112)"/><path style="line-height:normal;font-variant-ligatures:normal;font-variant-position:normal;font-variant-caps:normal;font-variant-numeric:normal;font-variant-alternates:normal;font-feature-settings:normal;text-indent:0;text-align:start;text-decoration-line:none;text-decoration-style:solid;text-decoration-color:#000;text-transform:none;text-orientation:mixed;shape-padding:0;isolation:auto;mix-blend-mode:normal;marker:none" d="M48.356 12.419l-30.44 17.574v35.15l30.44 17.573 30.44-17.573v-35.15zm0 3.071l27.78 16.039v32.077l-27.78 16.04-27.78-16.04V31.53z" color="#000" font-weight="400" font-family="sans-serif" white-space="normal" overflow="visible" fill="#5ddffc" fill-opacity=".057"/><path d="M9.833 50.196V26.1L48.02 4.053l38.187 22.048z" style="isolation:auto;mix-blend-mode:normal;marker:none" color="#000" overflow="visible" fill="#fff" fill-opacity=".031"/><path d="M59.046 64.995V53.767h-9.24v-4.648h14.84v17.948q-3.276 2.324-7.224 3.528-3.948 1.176-8.428 1.176-9.8 0-15.345-5.712-5.516-5.74-5.516-15.96 0-10.248 5.516-15.96 5.544-5.74 15.345-5.74 4.088 0 7.756 1.007 3.696 1.008 6.804 2.968v6.02q-3.136-2.66-6.664-4.004-3.528-1.344-7.42-1.344-7.672 0-11.537 4.284-3.836 4.285-3.836 12.769 0 8.456 3.836 12.74 3.865 4.284 11.537 4.284 2.996 0 5.348-.504 2.352-.532 4.228-1.624z" style="line-height:1000%;-inkscape-font-specification:orya" font-weight="400" font-family="orya" letter-spacing="0" word-spacing="0" fill-opacity=".479"/><path style="line-height:1000%;-inkscape-font-specification:orya" d="M171.046 173.995v-11.228h-9.24v-4.648h14.84v17.948q-3.276 2.324-7.224 3.528-3.948 1.176-8.428 1.176-9.8 0-15.345-5.712-5.516-5.74-5.516-15.96 0-10.248 5.516-15.96 5.544-5.74 15.345-5.74 4.088 0 7.756 1.007 3.696 1.008 6.804 2.968v6.02q-3.136-2.66-6.664-4.004-3.528-1.344-7.42-1.344-7.673 0-11.537 4.284-3.836 4.285-3.836 12.769 0 8.456 3.836 12.74 3.864 4.284 11.537 4.284 2.996 0 5.348-.504 2.352-.532 4.228-1.624z" font-weight="400" font-family="orya" letter-spacing="0" word-spacing="0" fill="url(#j)" transform="translate(-112 -112)"/><path style="isolation:auto;mix-blend-mode:normal;marker:none" d="M48.02 4.053L9.832 26.102v1L48.02 5.052l38.187 22.05v-1z" color="#000" overflow="visible" fill-opacity=".297"/><path d="M48.02 92.275L9.832 70.225v-1l38.188 22.05 38.187-22.05v1z" style="isolation:auto;mix-blend-mode:normal;marker:none" color="#000" overflow="visible" fill="#fff" fill-opacity=".099"/></svg>