<svg xmlns:osb="http://www.openswatchbook.org/uri/2009/osb" xmlns="http://www.w3.org/2000/svg" xmlns:xlink="http://www.w3.org/1999/xlink" height="96" viewBox="0 0 96 96" width="96"><title>Template icons dark</title><defs><linearGradient id="h"><stop offset="0" stop-color="#d6dee0"/><stop offset="1" stop-color="#fff" stop-opacity=".474"/></linearGradient><linearGradient id="g"><stop offset="0" stop-color="#403d60" stop-opacity=".396"/><stop offset="1" stop-opacity=".073"/></linearGradient><linearGradient id="f"><stop offset="0" stop-color="#c3ced1"/><stop offset="1" stop-color="#f6f6f6"/></linearGradient><linearGradient id="a"><stop offset="0" stop-color="#c9cfd1"/><stop offset="1" stop-color="#fff"/></linearGradient><linearGradient xlink:href="#b" id="l" gradientUnits="userSpaceOnUse" gradientTransform="translate(312.641 226.928) scale(1.11711)" x1="-49.096" y1="1041.18" x2="-9.096" y2="1041.18"/><linearGradient id="b" osb:paint="solid"><stop offset="0" stop-color="#2d393e" stop-opacity=".117"/></linearGradient><linearGradient xlink:href="#c" id="m" gradientUnits="userSpaceOnUse" gradientTransform="matrix(1.16655 0 0 1.15458 -1043 -286.565)" x1="1031.269" y1="365.654" x2="1031.269" y2="380.159"/><linearGradient id="c"><stop offset="0" stop-opacity=".204"/><stop offset="1" stop-opacity="0"/></linearGradient><linearGradient xlink:href="#d" id="o" gradientUnits="userSpaceOnUse" gradientTransform="matrix(2.2253 0 0 2.2253 1436.468 606.645)" x1="-578.647" y1="-204.784" x2="-578.647" y2="-214.622"/><linearGradient id="d"><stop offset="0" stop-color="#dce1e8"/><stop offset="1" stop-color="#fff"/></linearGradient><linearGradient xlink:href="#e" id="j" gradientUnits="userSpaceOnUse" gradientTransform="matrix(.89369 0 0 .89883 135.668 -754.154)"/><linearGradient id="e" osb:paint="solid"><stop offset="0" stop-color="#33d351"/></linearGradient><linearGradient xlink:href="#c" id="k" gradientUnits="userSpaceOnUse" gradientTransform="matrix(1.16655 0 0 .92897 -1044.118 -161.784)" x1="1031.269" y1="365.654" x2="1031.269" y2="380.159"/><linearGradient xlink:href="#f" id="i" x1="162.551" y1="202.929" x2="162.551" y2="116" gradientUnits="userSpaceOnUse"/><linearGradient xlink:href="#d" id="n" gradientUnits="userSpaceOnUse" gradientTransform="matrix(2.2253 0 0 2.2253 131.77 147.34)" x1="17.92" y1="19.84" x2="17.92" y2="11.307"/></defs><g transform="translate(-112 -112)"><path d="M126.685 119h66.63c4.257 0 7.853 3.43 7.685 7.685v66.63a7.668 7.668 0 0 1-7.685 7.685h-66.63a7.668 7.668 0 0 1-7.685-7.685v-66.63c0-4.257 3.43-7.854 7.685-7.685z" style="isolation:auto;mix-blend-mode:normal;marker:none" color="#000" overflow="visible" fill-opacity=".151" paint-order="fill markers stroke"/><path style="isolation:auto;mix-blend-mode:normal;marker:none" d="M127.685 120h64.63a7.668 7.668 0 0 1 7.685 7.685v64.63a7.668 7.668 0 0 1-7.685 7.685h-64.63a7.668 7.668 0 0 1-7.685-7.685v-64.63a7.668 7.668 0 0 1 7.685-7.685z" color="#000" overflow="visible" fill="url(#i)" paint-order="fill markers stroke"/><path style="isolation:auto;mix-blend-mode:normal;marker:none" d="M120 191.314v1s3.433 7.477 7.686 7.686H192.314a7.67 7.67 0 0 0 7.686-7.686v-1c0 4.258-3.433 7.477-7.686 7.686h-64.628a7.67 7.67 0 0 1-7.686-7.686z" color="#000" overflow="visible" fill="#fff" fill-opacity=".542" paint-order="fill markers stroke"/><path d="M145.506 172.307h29.473c5.102 0 9.21 4.248 9.21 9.525 0 5.276-4.108 9.524-9.21 9.524h-29.473c-5.102 0-9.21-4.248-9.21-9.524 0-5.277 4.108-9.525 9.21-9.525z" fill="#fff" fill-opacity=".365"/><path d="M146.056 173.453h26.811a8.36 8.36 0 0 1 8.379 8.379 8.36 8.36 0 0 1-8.379 8.378h-26.81a8.36 8.36 0 0 1-8.379-8.378 8.36 8.36 0 0 1 8.378-8.379z" fill="url(#j)"/><path d="M146 173.469a8.284 8.284 0 0 0-8.291 8.29v.13a8.286 8.286 0 0 0 8.291 8.293h26.977a8.286 8.286 0 0 0 8.29-8.294v-.128a8.284 8.284 0 0 0-8.29-8.291zm0 1.117h26.977a7.145 7.145 0 0 1 7.173 7.174v.128a7.146 7.146 0 0 1-7.173 7.177H146a7.147 7.147 0 0 1-7.174-7.177v-.128a7.145 7.145 0 0 1 7.174-7.174z" style="line-height:normal;font-variant-ligatures:normal;font-variant-position:normal;font-variant-caps:normal;font-variant-numeric:normal;font-variant-alternates:normal;font-feature-settings:normal;text-indent:0;text-align:start;text-decoration-line:none;text-decoration-style:solid;text-decoration-color:#000;text-transform:none;text-orientation:mixed;shape-padding:0;isolation:auto;mix-blend-mode:normal" color="#000" font-weight="400" font-family="sans-serif" white-space="normal" overflow="visible" fill="url(#k)"/><path d="M144.793 130.974h29.65c5.133 0 9.265 4.248 9.265 9.524 0 5.277-4.132 9.525-9.265 9.525h-29.65c-5.133 0-9.266-4.248-9.266-9.525 0-5.276 4.133-9.524 9.266-9.524z" fill="#fff" fill-opacity=".583"/><path d="M147.174 132.12h26.81a8.36 8.36 0 0 1 8.379 8.378 8.36 8.36 0 0 1-8.379 8.379h-26.81a8.36 8.36 0 0 1-8.379-8.379 8.36 8.36 0 0 1 8.379-8.378z" fill="url(#l)"/><path d="M147.117 132.136a8.284 8.284 0 0 0-8.291 8.29v.13a8.286 8.286 0 0 0 8.291 8.293h26.977a8.286 8.286 0 0 0 8.29-8.294v-.128a8.284 8.284 0 0 0-8.29-8.291zm0 1.117h26.977a7.145 7.145 0 0 1 7.174 7.174v.128a7.146 7.146 0 0 1-7.174 7.176h-26.977a7.147 7.147 0 0 1-7.174-7.176v-.128a7.145 7.145 0 0 1 7.174-7.174z" style="line-height:normal;font-variant-ligatures:normal;font-variant-position:normal;font-variant-caps:normal;font-variant-numeric:normal;font-variant-alternates:normal;font-feature-settings:normal;text-indent:0;text-align:start;text-decoration-line:none;text-decoration-style:solid;text-decoration-color:#000;text-transform:none;text-orientation:mixed;shape-padding:0;isolation:auto;mix-blend-mode:normal" color="#000" font-weight="400" font-family="sans-serif" white-space="normal" overflow="visible" fill="url(#m)"/><path style="isolation:auto;mix-blend-mode:normal;marker:none" d="M126 124a2 2 0 1 0 0 4 2 2 0 0 0 0-4zm68 0a2 2 0 1 0 0 4 2 2 0 0 0 0-4zm-68 68a2 2 0 1 0 0 4 2 2 0 0 0 0-4zm68 0a2 2 0 1 0 0 4 2 2 0 0 0 0-4z" color="#000" overflow="visible" fill-opacity=".188" paint-order="fill markers stroke"/><path style="isolation:auto;mix-blend-mode:normal;marker:none" d="M127.986 194.226a2 2 0 0 0-1.986-1.792 2 2 0 0 0-1.986 1.774A2.046 2.046 0 0 1 124 194a2 2 0 1 1 3.986.225zm68 0a2 2 0 0 0-1.986-1.792 2 2 0 0 0-1.986 1.774A2.046 2.046 0 0 1 192 194a2 2 0 1 1 3.986.225zm-68-68a2 2 0 0 0-1.986-1.792 2 2 0 0 0-1.986 1.774A2.046 2.046 0 0 1 124 126a2 2 0 1 1 3.986.225zm68 0a2 2 0 0 0-1.986-1.792 2 2 0 0 0-1.986 1.774A2.046 2.046 0 0 1 192 126a2 2 0 1 1 3.986.225z" color="#000" overflow="visible" fill-opacity=".318" paint-order="fill markers stroke"/><path d="M127.986 126.18a2 2 0 0 1-1.986 1.792 2 2 0 0 1-1.986-1.774 2.046 2.046 0 0 0-.014.207 2 2 0 1 0 3.986-.224zm68 0a2 2 0 0 1-1.986 1.792 2 2 0 0 1-1.986-1.774 2.046 2.046 0 0 0-.014.207 2 2 0 1 0 3.986-.224zm-68 68a2 2 0 0 1-1.986 1.792 2 2 0 0 1-1.986-1.774 2.046 2.046 0 0 0-.014.207 2 2 0 1 0 3.986-.224zm68 0a2 2 0 0 1-1.986 1.792 2 2 0 0 1-1.986-1.774 2.046 2.046 0 0 0-.014.207 2 2 0 1 0 3.986-.224z" style="isolation:auto;mix-blend-mode:normal;marker:none" color="#000" overflow="visible" fill="#fff" fill-opacity=".922" paint-order="fill markers stroke"/><path style="isolation:auto;mix-blend-mode:normal;marker:none" d="M120 160h80v1h-80z" color="#000" display="block" overflow="visible" fill-opacity=".115" paint-order="fill markers stroke"/><path style="isolation:auto;mix-blend-mode:normal;marker:none" d="M120 161h80v1h-80z" color="#000" display="block" overflow="visible" fill="#fff" fill-opacity=".724" paint-order="fill markers stroke"/><circle cx="171.75" cy="182.949" r="12.847" fill-opacity=".157"/><circle r="11.73" cy="181.832" cx="171.75" fill="url(#n)"/><circle cx="171.75" cy="181.832" r="11.197" fill="none" stroke="#fff" stroke-width="1.066" stroke-miterlimit="4.6" stroke-opacity=".237"/><circle transform="scale(-1 1)" r="12.847" cy="141.616" cx="-148.291" fill-opacity=".157"/><circle r="11.73" cy="140.498" cx="148.291" fill="url(#o)"/><circle cx="148.291" cy="140.498" r="11.197" fill="none" stroke="#fff" stroke-width="1.066" stroke-miterlimit="4.6" stroke-opacity=".237"/></g></svg>