<svg xmlns="http://www.w3.org/2000/svg" xmlns:xlink="http://www.w3.org/1999/xlink" height="96" viewBox="0 0 96 96" width="96"><title>Template icons dark</title><defs><linearGradient id="c"><stop offset="0" stop-color="#5299dc"/><stop offset="1" stop-color="#287bc8"/></linearGradient><linearGradient id="b"><stop offset="0" stop-color="#ebebeb"/><stop offset="1" stop-color="#a0afbe"/></linearGradient><linearGradient id="a"><stop offset="0" stop-color="#003783"/><stop offset="1" stop-color="#69e5ff"/></linearGradient><linearGradient xlink:href="#a" id="d" gradientUnits="userSpaceOnUse" x1="120" y1="120" x2="203.055" y2="204"/><linearGradient xlink:href="#b" id="e" x1="155.098" y1="157.153" x2="197.653" y2="195.477" gradientUnits="userSpaceOnUse"/><linearGradient xlink:href="#c" id="f" x1="181.918" y1="190.647" x2="170.052" y2="165.317" gradientUnits="userSpaceOnUse"/></defs><g color="#000"><path style="isolation:auto;mix-blend-mode:normal;marker:none" d="M11 11h74v74H11z" display="block" overflow="visible" fill-opacity=".141" paint-order="fill markers stroke"/><path style="isolation:auto;mix-blend-mode:normal;marker:none" d="M12 12h72.014v72.014H12z" display="block" overflow="visible" fill="#2268ab" paint-order="fill markers stroke"/><path style="isolation:auto;mix-blend-mode:normal;marker:none" d="M36 36h24v24H36z" display="block" overflow="visible" fill="#3d8dd8" paint-order="fill markers stroke"/><path style="isolation:auto;mix-blend-mode:normal;marker:none" d="M36 12h24v24H36z" display="block" overflow="visible" fill="#2777c4" paint-order="fill markers stroke"/><path style="isolation:auto;mix-blend-mode:normal;marker:none" d="M12 12h24v24H12z" display="block" overflow="visible" fill="#1f609e" paint-order="fill markers stroke"/><path style="isolation:auto;mix-blend-mode:normal;marker:none" d="M12 36h24v24H12z" display="block" overflow="visible" fill="#3b83c8" paint-order="fill markers stroke"/><path style="isolation:auto;mix-blend-mode:normal;marker:none" d="M60 36h24v24H60z" display="block" overflow="visible" fill="#63a3e0" paint-order="fill markers stroke"/><path style="isolation:auto;mix-blend-mode:normal;marker:none" d="M60 12h24v24H60z" display="block" overflow="visible" fill="#3b8bd8" paint-order="fill markers stroke"/><path style="isolation:auto;mix-blend-mode:normal;marker:none" d="M36 60h24v24H36z" display="block" overflow="visible" fill="#61a2e0" paint-order="fill markers stroke"/><path style="isolation:auto;mix-blend-mode:normal;marker:none" d="M12 60h24v24H12z" display="block" overflow="visible" fill="#4893db" paint-order="fill markers stroke"/><path style="isolation:auto;mix-blend-mode:normal;marker:none" d="M12 83.052h72.014V84H12z" display="block" overflow="visible" fill="#fff" fill-opacity=".257" paint-order="fill markers stroke"/><path style="isolation:auto;mix-blend-mode:normal;marker:none" d="M67 40.87a26.13 26.13 0 0 0-.851.03c-.048-.007-.091-.028-.141-.028H41.943a1.04 1.04 0 0 0-1.043 1.043v24.473a26.13 26.13 0 0 0-.03.612A26.13 26.13 0 0 0 67 93.13 26.13 26.13 0 0 0 93.13 67 26.13 26.13 0 0 0 67 40.87z" display="block" overflow="visible" fill-opacity=".152" paint-order="fill markers stroke"/><path style="isolation:auto;mix-blend-mode:normal;marker:none" d="M179 154a25 25 0 0 0-.814.03c-.046-.007-.087-.028-.135-.028h-23.024a.996.996 0 0 0-.998.998v23.414A25 25 0 0 0 154 179a25 25 0 0 0 25 25 25 25 0 0 0 25-25 25 25 0 0 0-25-25z" display="block" overflow="visible" fill="url(#e)" paint-order="fill markers stroke" transform="translate(-112 -112)"/><path style="isolation:auto;mix-blend-mode:normal;marker:none" d="M191.854 179A12.854 12.854 0 0 1 179 191.854 12.854 12.854 0 0 1 166.146 179 12.854 12.854 0 0 1 179 166.146 12.854 12.854 0 0 1 191.854 179z" display="block" overflow="visible" fill="url(#f)" paint-order="fill markers stroke" transform="translate(-112 -112)"/><path style="isolation:auto;mix-blend-mode:normal;marker:none" d="M67 54.146A12.854 12.854 0 0 0 54.147 67a12.854 12.854 0 0 0 .019.594A12.854 12.854 0 0 1 67 55.146a12.854 12.854 0 0 1 12.834 12.26 12.854 12.854 0 0 0 .02-.406A12.854 12.854 0 0 0 67 54.146z" display="block" overflow="visible" fill-opacity=".215" paint-order="fill markers stroke"/><path d="M67 80.861a12.854 12.854 0 0 1-12.853-12.853 12.854 12.854 0 0 1 .019-.594A12.854 12.854 0 0 0 67 79.861a12.854 12.854 0 0 0 12.834-12.26 12.854 12.854 0 0 1 .02.407A12.854 12.854 0 0 1 67 80.86z" style="isolation:auto;mix-blend-mode:normal;marker:none" display="block" overflow="visible" fill="#fff" fill-opacity=".597" paint-order="fill markers stroke"/><path style="isolation:auto;mix-blend-mode:normal;marker:none" d="M42.025 66.5A25 25 0 0 0 42 67a25 25 0 0 0 25 25 25 25 0 0 0 25-25 25 25 0 0 0-.021-.414A25 25 0 0 1 67 91a25 25 0 0 1-24.975-24.5z" display="block" overflow="visible" fill="#fff" fill-opacity=".492" paint-order="fill markers stroke"/><path style="isolation:auto;mix-blend-mode:normal;marker:none" d="M66 63v4h-4v1h4v4h1l-.04-4H71v-1l-3.995.067L66.96 63z" display="block" overflow="visible" fill="#fff" fill-opacity=".293" paint-order="fill markers stroke"/></g></svg>