<svg xmlns="http://www.w3.org/2000/svg" xmlns:xlink="http://www.w3.org/1999/xlink" height="96" viewBox="0 0 96 96" width="96"><title>Template icons dark</title><defs><linearGradient id="h"><stop offset="0" stop-color="#2b364a"/><stop offset="1" stop-color="#3a4964"/></linearGradient><linearGradient id="g"><stop offset="0" stop-color="#fff"/><stop offset="1" stop-color="#e1eef4"/></linearGradient><linearGradient id="f"><stop offset="0" stop-color="#fff"/><stop offset="1" stop-color="#dfdfdf" stop-opacity=".984"/></linearGradient><linearGradient id="e"><stop offset="0" stop-color="#009fe8" stop-opacity=".995"/><stop offset="1" stop-color="#0b7ac5" stop-opacity=".995"/></linearGradient><linearGradient id="d"><stop offset="0" stop-color="#d6dee0"/><stop offset="1" stop-color="#fff" stop-opacity=".474"/></linearGradient><linearGradient id="c"><stop offset="0" stop-color="#403d60" stop-opacity=".396"/><stop offset="1" stop-opacity=".073"/></linearGradient><linearGradient id="a"><stop offset="0" stop-color="#c9cfd1"/><stop offset="1" stop-color="#fff"/></linearGradient><linearGradient id="b"><stop offset="0" stop-color="#dce1e8"/><stop offset="1" stop-color="#fff"/></linearGradient><linearGradient xlink:href="#e" id="j" x1="200.559" y1="193" x2="125" y2="123.315" gradientUnits="userSpaceOnUse"/><linearGradient xlink:href="#f" id="l" x1="180" y1="177" x2="180" y2="183.78" gradientUnits="userSpaceOnUse" gradientTransform="translate(0 2)"/><linearGradient xlink:href="#g" id="i" x1="133" y1="181" x2="191.252" y2="127" gradientUnits="userSpaceOnUse"/><linearGradient xlink:href="#h" id="k" x1="181" y1="140" x2="198" y2="122.126" gradientUnits="userSpaceOnUse"/><linearGradient xlink:href="#b" id="m" gradientUnits="userSpaceOnUse" gradientTransform="matrix(2.15011 0 0 2.15011 1383.108 629.709)" x1="-578.647" y1="-204.784" x2="-578.647" y2="-214.622"/></defs><path style="isolation:auto;mix-blend-mode:normal;marker:none" d="M9 4v83h84V56l-6.984-6H86V31l3-3V8H67l-3 3H46l-5-6.988V4z" color="#000" display="block" overflow="visible" fill="#03070a" fill-opacity=".095"/><path style="isolation:auto;mix-blend-mode:normal;marker:none" d="M126 125h70v68h-70z" color="#000" display="block" overflow="visible" fill="url(#i)" transform="translate(-112 -112)"/><path style="isolation:auto;mix-blend-mode:normal;marker:none" d="M123 118v79h80v-29h-50v-50z" color="#000" overflow="visible" fill="url(#j)" transform="translate(-112 -112)"/><path d="M29 6h1v41.005l1 1.044v37.385h-1V48.028l-1-1.023z" style="isolation:auto;mix-blend-mode:normal;marker:none" color="#000" display="block" overflow="visible" fill-opacity=".121"/><path style="isolation:auto;mix-blend-mode:normal;marker:none" d="M22 6h1v40.917l-1 1.132v37.385h-1v-37.45l1-.98z" color="#000" display="block" overflow="visible" fill-opacity=".095"/><path d="M64 13v20h20l3-3-20-20z" style="isolation:auto;mix-blend-mode:normal;marker:none" color="#000" display="block" overflow="visible" fill="#445575"/><path style="isolation:auto;mix-blend-mode:normal;marker:none" d="M64 13v20l12-12.874L67 10z" color="#000" display="block" overflow="visible" fill="#778bb0"/><path style="isolation:auto;mix-blend-mode:normal;marker:none" d="M179 122v20h20v-20z" color="#000" display="block" overflow="visible" fill="url(#k)" transform="translate(-112 -112)"/><path d="M40.992 6L46 13v38l-5 5z" fill="#6bafdf" fill-rule="evenodd"/><path d="M91 56l-7-5H46l-5 5z" fill="#055fb0" fill-rule="evenodd"/><path style="isolation:auto;mix-blend-mode:normal;marker:none" d="M73 16h8v8h-8z" color="#000" display="block" overflow="visible" fill="#fff" fill-opacity=".947"/><path style="isolation:auto;mix-blend-mode:normal;marker:none" d="M53.102 67h29.796A1.1 1.1 0 0 1 84 68.102v5.796A1.1 1.1 0 0 1 82.898 75H53.102A1.1 1.1 0 0 1 52 73.898v-5.796A1.1 1.1 0 0 1 53.102 67z" color="#000" display="block" overflow="visible" fill-opacity=".216"/><path style="isolation:auto;mix-blend-mode:normal;marker:none" d="M165.102 178h29.796a1.1 1.1 0 0 1 1.102 1.102v5.796a1.1 1.1 0 0 1-1.102 1.102h-29.796a1.1 1.1 0 0 1-1.102-1.102v-5.796a1.1 1.1 0 0 1 1.102-1.102z" color="#000" display="block" overflow="visible" fill="url(#l)" transform="translate(-112 -112)"/><path d="M71.09 67.491c-.346 0-.666.07-.96.205-.294.131-.55.309-.77.538a2.525 2.525 0 0 0-.692 1.75c0 .359.061.695.182 1.007.126.308.293.576.503.805.215.229.465.409.75.54.289.13.597.196.924.196.527 0 .99-.199 1.386-.595v.56h.798v-2.555h-1.799v.708h1v.348c-.386.453-.821.68-1.302.68-.21 0-.406-.042-.588-.126a1.497 1.497 0 0 1-.461-.358 1.67 1.67 0 0 1-.309-.523 1.915 1.915 0 0 1-.11-.66c0-.224.03-.435.096-.636.07-.2.167-.379.288-.533.126-.154.275-.273.448-.362.177-.088.37-.133.58-.133.267 0 .512.065.736.196.229.13.407.32.533.567l.72-.533a1.897 1.897 0 0 0-.757-.79c-.331-.197-.73-.296-1.197-.296zm-17.03.037l2.01 4.969h.813l.86-2.087.86 2.087h.812l2.025-4.97h-1.052l-1.406 3.863-.63-1.589.846-2.26h-.894l-.56 1.645-.561-1.644h-.888l.833 2.26-.616 1.588-1.416-3.862zm7.89 0v4.969h.965v-4.97zm1.994 0v4.969h1.807c.374 0 .71-.059 1.008-.175a2.28 2.28 0 0 0 .777-.503c.215-.22.377-.48.489-.784.117-.308.175-.653.175-1.03 0-.341-.052-.661-.154-.96a2.195 2.195 0 0 0-.461-.79 2.181 2.181 0 0 0-.77-.531 2.667 2.667 0 0 0-1.064-.196zm10.09 0v4.969h3.452v-.846H75v-1.296h2.094v-.784H75v-1.197h2.421v-.846zm3.79 0v.846h1.59v4.123h.959v-4.123h1.588v-.846zm-12.914.846h.841c.234 0 .441.04.623.12.187.08.342.19.468.334.126.145.223.319.288.52.066.2.097.418.097.656 0 .234-.031.452-.097.653-.065.2-.162.374-.288.523-.121.145-.274.26-.461.344a1.488 1.488 0 0 1-.63.127h-.841z" style="line-height:1000%;-inkscape-font-specification:'Raleway Bold'" font-weight="700" font-family="Raleway" letter-spacing="0" word-spacing="0" fill="#8489b6" fill-opacity=".984"/><path d="M70.032 13.032h13.937v13.936H70.032z" style="isolation:auto;mix-blend-mode:normal;marker:none" color="#000" display="block" overflow="visible" fill="none" stroke="#fff" stroke-width=".518" stroke-linecap="round" stroke-dasharray=".51848358,2.07393432" stroke-opacity=".663"/><path style="isolation:auto;mix-blend-mode:normal;marker:none" d="M16 6h20v42H16z" color="#000" display="block" overflow="visible" fill="#07113c" fill-opacity=".289"/><path style="line-height:normal;font-variant-ligatures:normal;font-variant-position:normal;font-variant-caps:normal;font-variant-numeric:normal;font-variant-alternates:normal;font-feature-settings:normal;text-indent:0;text-align:start;text-decoration-line:none;text-decoration-style:solid;text-decoration-color:#000;text-transform:none;text-orientation:mixed;shape-padding:0;isolation:auto;mix-blend-mode:normal;marker:none" d="M16 6v42h20V6zm1 0h18v41H17z" color="#000" font-weight="400" font-family="sans-serif" white-space="normal" display="block" overflow="visible" fill-opacity=".132"/><path d="M14.04 68.39a12.413 12.413 0 0 0 12.412 12.413A12.413 12.413 0 0 0 38.865 68.39a12.413 12.413 0 0 0-12.413-12.412A12.413 12.413 0 0 0 14.039 68.39z" fill-opacity=".157"/><path d="M149.785 179.311a11.333 11.333 0 0 1-11.333 11.333 11.333 11.333 0 0 1-11.334-11.333 11.333 11.333 0 0 1 11.334-11.333 11.333 11.333 0 0 1 11.333 11.333z" fill="url(#m)" transform="translate(-112 -112)"/><path d="M37.27 67.311A10.818 10.818 0 0 1 26.452 78.13a10.818 10.818 0 0 1-10.818-10.818 10.818 10.818 0 0 1 10.818-10.818A10.818 10.818 0 0 1 37.27 67.31z" fill="none" stroke="#fff" stroke-width="1.03" stroke-miterlimit="4.6" stroke-opacity=".237"/><path style="isolation:auto;mix-blend-mode:normal;marker:none" d="M21.758 61.344l-1.414 1.414L24.586 67l-4.242 4.242 1.414 1.414L26 68.414l4.242 4.242 1.414-1.414L27.414 67l4.242-4.242-1.414-1.414L26 65.586z" color="#000" display="block" overflow="visible" fill="#6162b1" fill-opacity=".379"/><path d="M48 14v6h2v-4h2v-2zm0 30v6h5v-2h-3v-4zm33 2v2h-3v2h5v-4z" fill="#576d95" fill-rule="evenodd"/><path d="M60 13v24l24-.016V33H64V13z" fill="#fff" fill-rule="evenodd"/><path d="M75 18h4v4h-4z" style="isolation:auto;mix-blend-mode:normal;marker:none" color="#000" display="block" overflow="visible" fill="none" stroke="#63b5ff" stroke-width=".5"/><path style="isolation:auto;mix-blend-mode:normal;marker:none" d="M58 41h14.803c1.108 0 2 .892 2 2s-.892 2-2 2H58c-1.108 0-2-.892-2-2s.892-2 2-2z" color="#000" display="block" overflow="visible" fill="#93afd5" fill-opacity=".668"/><path d="M52.325 22l-.636.637 1.91 1.91-1.91 1.911.636.637 1.911-1.91 1.911 1.91.637-.637-1.91-1.91 1.91-1.911-.637-.637-1.91 1.91zM52.325 30.612l-.636.637 1.91 1.91-1.91 1.911.636.637 1.911-1.91 1.911 1.91.637-.637-1.91-1.91 1.91-1.911-.637-.637-1.91 1.91z" style="isolation:auto;mix-blend-mode:normal;marker:none" color="#000" display="block" overflow="visible" fill="#3f4ec6" fill-opacity=".668"/><path style="isolation:auto;mix-blend-mode:normal;marker:none" d="M56.07 42.5c-.04.16-.07.326-.07.5 0 1.108.892 2 2 2h14.803c1.108 0 2-.892 2-2 0-.174-.03-.34-.07-.5a1.99 1.99 0 0 1-1.93 1.5H58a1.99 1.99 0 0 1-1.93-1.5z" color="#000" display="block" overflow="visible" fill-opacity=".137"/><path d="M56.07 42.509a1.996 1.996 0 0 1-.07-.5c0-1.108.892-2 2-2h14.803c1.108 0 2 .892 2 2 0 .174-.03.34-.07.5a1.99 1.99 0 0 0-1.93-1.5H58a1.99 1.99 0 0 0-1.93 1.5z" style="isolation:auto;mix-blend-mode:normal;marker:none" color="#000" display="block" overflow="visible" fill="#fff" fill-opacity=".684"/></svg>