<svg xmlns="http://www.w3.org/2000/svg" xmlns:xlink="http://www.w3.org/1999/xlink" height="96" viewBox="0 0 96 96" width="96"><title>Template icons dark</title><defs><linearGradient id="c"><stop offset="0" stop-color="#db4ca1"/><stop offset="1" stop-color="#8e3592" stop-opacity=".996"/></linearGradient><linearGradient id="f"><stop offset="0" stop-color="#23acff"/><stop offset="1" stop-color="#7647d8" stop-opacity=".996"/></linearGradient><linearGradient id="e"><stop offset="0" stop-color="#08ffe8"/><stop offset="1" stop-color="#8abdec"/></linearGradient><linearGradient id="a"><stop offset="0" stop-color="#fff" stop-opacity=".427"/><stop offset=".423" stop-color="#fafcfe"/><stop offset="1" stop-color="#fff" stop-opacity=".49"/></linearGradient><linearGradient id="b"><stop offset="0" stop-color="#fe50b8"/><stop offset="1" stop-color="#722f98" stop-opacity=".995"/></linearGradient><linearGradient id="d"><stop offset="0" stop-color="#fff" stop-opacity=".179"/><stop offset="1" stop-color="#fff" stop-opacity=".795"/></linearGradient><linearGradient xlink:href="#b" id="h" gradientUnits="userSpaceOnUse" x1="16.791" y1="294.048" x2="16.839" y2="271.451" gradientTransform="translate(0 .338)"/><linearGradient xlink:href="#b" id="i" gradientUnits="userSpaceOnUse" x1="16.791" y1="294.048" x2="16.839" y2="271.451" gradientTransform="translate(0 .338)"/><linearGradient xlink:href="#b" id="j" gradientUnits="userSpaceOnUse" x1="16.791" y1="294.048" x2="16.839" y2="271.451" gradientTransform="translate(0 .338)"/><linearGradient xlink:href="#c" id="m" gradientUnits="userSpaceOnUse" x1="16.791" y1="294.048" x2="3.857" y2="275.45" gradientTransform="translate(0 .338)"/><linearGradient xlink:href="#b" id="g" gradientUnits="userSpaceOnUse" x1="16.791" y1="294.048" x2="16.839" y2="271.451"/><linearGradient xlink:href="#d" id="o" gradientUnits="userSpaceOnUse" x1="16.721" y1="296.202" x2="17.087" y2="265.977" gradientTransform="translate(0 .338)"/><linearGradient xlink:href="#d" id="p" gradientUnits="userSpaceOnUse" x1="16.721" y1="296.202" x2="17.087" y2="265.977" gradientTransform="translate(0 .338)"/><linearGradient xlink:href="#d" id="q" gradientUnits="userSpaceOnUse" x1="16.721" y1="296.202" x2="17.087" y2="265.977" gradientTransform="translate(0 .338)"/><linearGradient xlink:href="#d" id="r" gradientUnits="userSpaceOnUse" x1="16.721" y1="296.202" x2="17.087" y2="265.977" gradientTransform="translate(0 .338)"/><linearGradient xlink:href="#d" id="n" gradientUnits="userSpaceOnUse" x1="16.721" y1="296.202" x2="17.087" y2="265.977"/><linearGradient xlink:href="#e" id="l" x1="17.244" y1="286.28" x2="30.792" y2="276.804" gradientUnits="userSpaceOnUse" gradientTransform="translate(0 .338)"/><linearGradient xlink:href="#f" id="k" x1="16.967" y1="277.049" x2="16.967" y2="264.621" gradientUnits="userSpaceOnUse" gradientTransform="translate(0 .338)"/></defs><g transform="matrix(2.95497 0 0 2.95497 -2.075 -781.947)" style="isolation:auto;mix-blend-mode:normal;marker:none" color="#000" overflow="visible" fill="url(#g)" stroke-width=".265" stroke-opacity=".984"><path d="M2.483 268.31v16.01l14.463-5.115v-14.178z" fill="url(#h)"/><path d="M2.483 284.32l14.45 11.235 14.46-11.247-14.447-5.103z" fill="url(#i)" fill-rule="evenodd"/><path d="M16.946 265.027l14.448 3.278v16.003l-14.448-5.103z" fill="url(#j)" fill-rule="evenodd"/><path d="M2.483 268.31l14.45 7.945 14.46-7.95-14.447-3.278z" fill="url(#k)"/><path d="M16.932 276.255v19.3l14.462-11.247v-16.003z" fill="url(#l)" fill-rule="evenodd"/><path d="M2.483 268.31l14.45 7.945v19.3L2.482 284.32z" fill="url(#m)" fill-rule="evenodd"/></g><g transform="matrix(2.95497 0 0 2.95497 -2.075 -781.947)" style="isolation:auto;mix-blend-mode:normal;marker:none" color="#000" overflow="visible" fill="none" stroke="url(#n)" stroke-width=".265" stroke-opacity=".142"><path d="M2.483 284.32l14.45 11.235 14.46-11.247-14.447-5.267z" stroke="url(#o)" stroke-linejoin="round"/><path d="M2.483 268.31l14.45 7.781 14.46-7.786-14.447-3.278z" stroke="url(#p)"/><path d="M16.932 276.091v19.464l14.462-11.247v-16.003z" stroke="url(#q)" stroke-linejoin="round"/><path d="M2.483 268.31l14.45 7.781v19.464L2.482 284.32z" stroke="url(#r)" stroke-linejoin="round"/></g><path style="line-height:1000%;-inkscape-font-specification:Raleway" d="M20.421 37.399l-.018 1.453 3.376 2.466-.194 15.195.936.682L24.715 42l3.376 2.465.019-1.453zM37.14 49.63l-5.343 5.878.124-9.66-.934-.68-.212 16.622.933.68.066-5.113 1.83-1.954 3.524 11.022 1.027.75-3.952-12.307 3.965-4.489zM14.429 33.456c-.632-.461-1.218-.65-1.758-.571-.54.063-1.01.341-1.41.838-.402.48-.72 1.15-.956 2.003-.227.86-.346 1.843-.36 2.952a17.914 17.914 0 0 0 .292 3.363c.21 1.162.505 2.287.887 3.37.39 1.089.85 2.072 1.377 2.947.536.88 1.126 1.555 1.766 2.022 1.148.84 2.172.723 3.075-.339l-.032 2.442.788.574.105-8.185-2.896-2.113-.016 1.266 2.108 1.539-.035 2.767c-.467.638-.95 1.002-1.454 1.091-.495.082-1.014-.076-1.557-.472-.507-.37-.978-.903-1.41-1.596a12.7 12.7 0 0 1-1.1-2.318 17.488 17.488 0 0 1-.732-2.783 15.734 15.734 0 0 1-.233-2.867c.011-.891.102-1.693.273-2.405.171-.726.408-1.304.71-1.731.31-.436.677-.696 1.1-.783.432-.079.911.077 1.436.46.632.462 1.193 1.116 1.685 1.964.492.848.887 1.898 1.185 3.157l.731-.32a15.412 15.412 0 0 0-.542-1.862 10.428 10.428 0 0 0-.76-1.714 8.523 8.523 0 0 0-1.004-1.488 6.799 6.799 0 0 0-1.264-1.208z" font-weight="400" font-family="Raleway" letter-spacing="0" word-spacing="0" opacity=".446" fill="#fff" stroke="#fff" stroke-width="1.111"/></svg>