<svg xmlns="http://www.w3.org/2000/svg" xmlns:xlink="http://www.w3.org/1999/xlink" height="96" viewBox="0 0 96 96" width="96"><title>Template icons dark</title><defs><linearGradient id="g"><stop offset="0" stop-color="#1d6e99"/><stop offset="1" stop-color="#f93000"/></linearGradient><linearGradient id="f"><stop offset="0" stop-color="#492f46" stop-opacity=".71"/><stop offset="1" stop-color="#3c3543" stop-opacity=".368"/></linearGradient><linearGradient id="h"><stop offset="0" stop-opacity=".511"/><stop offset="1" stop-opacity=".269"/></linearGradient><linearGradient xlink:href="#a" id="l" gradientUnits="userSpaceOnUse" gradientTransform="matrix(.87883 0 0 .87883 117.73 -726.327)" x1="48.843" y1="994.453" x2="48.843" y2="1014.97"/><linearGradient id="a"><stop offset="0" stop-color="#313131" stop-opacity=".51"/><stop offset=".6" stop-color="#dfdfdf" stop-opacity=".761"/><stop offset="1" stop-color="#fff"/></linearGradient><linearGradient xlink:href="#b" id="k" x1="48.24" y1="22.745" x2="48.24" y2="-17.955" gradientUnits="userSpaceOnUse" gradientTransform="matrix(1.06336 0 0 1.06336 108.959 153.778)"/><linearGradient id="b"><stop offset="0" stop-color="#bcbcbc"/><stop offset="1" stop-color="#fff"/></linearGradient><linearGradient xlink:href="#c" id="n" x1="43.116" y1="25.526" x2="1.463" y2="25.526" gradientUnits="userSpaceOnUse" gradientTransform="translate(113.048 106.787) scale(2.08677)"/><linearGradient id="c"><stop offset="0" stop-color="#eee"/><stop offset=".413" stop-color="#a2a2a2"/><stop offset=".495" stop-color="#707070"/><stop offset=".53" stop-color="#838383"/><stop offset="1" stop-color="#d2d2d2"/></linearGradient><linearGradient xlink:href="#d" id="m" gradientUnits="userSpaceOnUse" gradientTransform="matrix(1.77174 0 0 1.77174 73.572 -1618.69)" x1="50.104" y1="1012.168" x2="73.355" y2="1012.168"/><linearGradient id="d"><stop offset="0" stop-color="#353d5a" stop-opacity=".813"/><stop offset="1" stop-color="#a33284" stop-opacity=".588"/></linearGradient><linearGradient xlink:href="#e" id="i" gradientUnits="userSpaceOnUse" gradientTransform="matrix(1.77174 0 0 1.77174 73.572 -1618.69)" x1="49.679" y1="1012.168" x2="28.449" y2="1012.168"/><linearGradient id="e"><stop offset="0" stop-color="#54546a"/><stop offset="1" stop-color="#5a6480"/></linearGradient><linearGradient xlink:href="#g" id="j" gradientUnits="userSpaceOnUse" gradientTransform="matrix(1.77174 0 0 1.77174 73.56 -1618.623)" x1="55.554" y1="1018.555" x2="6.881" y2="979.09"/></defs><path d="M47.447 2.02C31.7 2.301 4.23 13.256 4.23 20.532l-.166 27.522C4.064 67 35.26 93.547 47.779 93.981h.387c12.519-.434 43.77-26.981 43.77-45.926l-.276-27.522c0-7.278-27.418-18.236-43.162-18.514-.203-.004-.465 0-.664 0-.132 0-.255-.002-.387 0z" fill="none" stroke="#000" stroke-width="4.035" stroke-opacity=".115"/><path d="M159.446 113.935c-15.776.284-43.296 11.258-43.296 18.548l-.167 27.573c0 18.979 31.254 45.575 43.796 46.01h.387c12.542-.435 43.85-27.031 43.85-46.01l-.276-27.573c0-7.292-27.468-18.27-43.242-18.548-.203-.004-.465 0-.664 0-.133 0-.256-.002-.388 0z" fill="url(#i)" transform="translate(-112 -112)"/><path d="M159.433 114.002c-15.775.284-43.296 11.258-43.296 18.548l-.166 27.572c0 18.98 31.253 45.575 43.795 46.01h.387c12.542-.435 43.85-27.03 43.85-46.01l-.276-27.572c0-7.292-27.468-18.27-43.241-18.548-.204-.004-.465 0-.665 0-.133 0-.256-.002-.387 0z" fill="url(#j)" transform="translate(-112 -112)"/><path d="M47.447 1.936C31.671 2.219 4.15 13.193 4.15 20.482l-.166 27.575c0 7.966 5.513 17.27 12.83 25.422A84.11 79.05 0 0 1 91.4 19.025c-3.17-7.21-28.149-16.83-42.902-17.09-.203-.003-.465 0-.664 0h-.387z" fill="#a3eaf1" fill-opacity=".187"/><path style="isolation:auto;mix-blend-mode:normal;marker:none" d="M70.524 21.867c11.97 11.97 1.049 5.618 1.049 22.546 0 16.928 10.92 10.576-1.05 22.546-11.969 11.97-5.617 1.049-22.545 1.049S37.4 78.928 25.43 66.959c-11.97-11.97-1.048-5.618-1.048-22.546 0-16.928-10.921-10.577 1.048-22.546 11.97-11.97 5.619-1.05 22.547-1.05s10.576-10.92 22.546 1.05z" color="#000" overflow="visible" fill="none" stroke="#000" stroke-width="1.5" stroke-linecap="square" stroke-miterlimit="3.7" stroke-opacity=".286" paint-order="markers stroke fill"/><path style="isolation:auto;mix-blend-mode:normal;marker:none" d="M70.524 21.867c11.97 11.97 1.049 5.618 1.049 22.546 0 16.928 10.92 10.576-1.05 22.546-11.969 11.97-5.617 1.049-22.545 1.049S37.4 78.928 25.43 66.959c-11.97-11.97-1.048-5.618-1.048-22.546 0-16.928-10.921-10.577 1.048-22.546 11.97-11.97 5.619-1.05 22.547-1.05s10.576-10.92 22.546 1.05z" color="#000" overflow="visible" fill="#d5d5d5" paint-order="markers stroke fill"/><path d="M48 21.321c13.69 0 24.71 11.021 24.71 24.71 0 13.69-11.02 24.711-24.71 24.711a24.656 24.656 0 0 1-24.71-24.71c0-13.69 11.02-24.71 24.71-24.71z" fill-opacity=".357"/><path d="M160 132.258c13.69 0 24.71 11.02 24.71 24.71 0 13.69-11.02 24.71-24.71 24.71a24.656 24.656 0 0 1-24.71-24.71c0-13.69 11.02-24.71 24.71-24.71z" fill="url(#k)" transform="translate(-112 -112)"/><path style="isolation:auto;mix-blend-mode:normal;marker:none" d="M169.825 157a9.825 9.825 0 0 1-9.825 9.825 9.825 9.825 0 0 1-9.825-9.825 9.825 9.825 0 0 1 9.825-9.826 9.825 9.825 0 0 1 9.825 9.826z" color="#000" overflow="visible" fill="url(#l)" transform="translate(-112 -112)"/><path style="isolation:auto;mix-blend-mode:normal;marker:none" d="M45 31h7l-.094 17L50 52l2 3v4h-7V41l2-4-2-3z" color="#000" overflow="visible" fill="#494949"/><path d="M45.486 31.5l6.024-.005L51.423 48l-2.017 4 2.05 3.235.07 3.224-6.02.016L45.522 41l2.055-4.05-2.071-3.145z" style="isolation:auto;mix-blend-mode:normal;marker:none" color="#000" overflow="visible" fill="none" stroke="#000" stroke-linecap="round" stroke-opacity=".407"/><path d="M160.08 113.934v92.132H160.164c12.542-.435 43.852-27.032 43.852-46.01l-.275-27.574c0-7.292-27.47-18.27-43.244-18.548-.128-.002-.272 0-.417 0z" opacity=".439" fill="url(#m)" transform="translate(-112 -112)"/><path d="M159.459 114.977c-15.42.277-42.317 11.003-42.317 18.128l-.163 26.95c0 18.549 30.547 44.543 42.805 44.968h.378c12.258-.425 42.859-26.42 42.859-44.969l-.271-26.949c0-7.126-26.846-17.856-42.263-18.128-.199-.004-.454 0-.65 0-.13 0-.25-.002-.378 0z" fill="none" stroke="url(#n)" stroke-width="3.951" transform="translate(-112 -112)"/><path style="line-height:normal;font-variant-ligatures:normal;font-variant-position:normal;font-variant-caps:normal;font-variant-numeric:normal;font-variant-alternates:normal;font-feature-settings:normal;text-indent:0;text-align:start;text-decoration-line:none;text-decoration-style:solid;text-decoration-color:#000;text-transform:none;text-orientation:mixed;shape-padding:0;isolation:auto;mix-blend-mode:normal" d="M47.434 2.002l.025 2.951-.02-2.951h-.005zm.052 2.951l-.035.002.008.998-.01-.998c-7.27.14-17.735 2.825-26.172 6.342-4.226 1.762-7.963 3.737-10.529 5.605-2.566 1.869-3.63 3.665-3.63 4.204v.006l-.163 26.943c0 .033.006.068.006.101l.156-26.044v-.006c0-.539 1.065-2.335 3.631-4.204 2.566-1.868 6.303-3.843 10.53-5.605 8.45-3.523 18.936-6.211 26.208-6.344h.352c.219 0 .47-.003.615 0 7.271.128 17.746 2.816 26.186 6.34 4.22 1.762 7.95 3.739 10.512 5.607 2.56 1.87 3.625 3.664 3.625 4.206v.01l.261 26.1c0-.053.008-.107.008-.16l-.27-26.94v-.01c0-.542-1.063-2.337-3.624-4.206-2.56-1.868-6.292-3.845-10.512-5.607-8.44-3.524-18.915-6.212-26.185-6.34-.146-.003-.397 0-.616 0H47.487z" color="#000" font-weight="400" font-family="sans-serif" white-space="normal" overflow="visible" fill="#060606" fill-opacity=".451"/><path d="M48 20.258a24.657 24.657 0 0 0-24.71 24.71c0 .168.01.334.013.5.265-13.455 11.175-24.21 24.697-24.21 13.522 0 24.432 10.755 24.697 24.21.003-.166.014-.332.014-.5a24.657 24.657 0 0 0-24.71-24.71z" fill="#fff" fill-opacity=".758"/></svg>