<svg xmlns="http://www.w3.org/2000/svg" xmlns:xlink="http://www.w3.org/1999/xlink" height="96" viewBox="0 0 96 96" width="96"><title>Template icons dark</title><defs><linearGradient id="d"><stop offset="0" stop-color="#0a34ff" stop-opacity="0"/><stop offset="1" stop-color="#ffff0d" stop-opacity=".24"/></linearGradient><linearGradient id="c"><stop offset="0" stop-color="#cdcdcd"/><stop offset="1" stop-color="#fff"/></linearGradient><linearGradient id="b"><stop offset="0" stop-color="#fff" stop-opacity=".427"/><stop offset=".423" stop-color="#fafcfe"/><stop offset="1" stop-color="#fff" stop-opacity=".49"/></linearGradient><linearGradient xlink:href="#a" id="e" x1="22.9" y1="46.6" x2="22.9" y2="-10.331" gradientUnits="userSpaceOnUse" gradientTransform="matrix(2.23656 0 0 2.23656 109.677 102.968)"/><linearGradient id="a"><stop offset="0" stop-color="#0796d6"/><stop offset="1" stop-color="#4987ce"/></linearGradient><linearGradient xlink:href="#c" id="g" x1="161.772" y1="204" x2="161.772" y2="113" gradientUnits="userSpaceOnUse"/><linearGradient xlink:href="#d" id="f" gradientUnits="userSpaceOnUse" gradientTransform="matrix(2.23656 0 0 2.23656 109.677 102.968)" x1="15.346" y1="25.106" x2="29.288" y2="40.737"/></defs><g color="#000"><path style="isolation:auto;mix-blend-mode:normal;marker:none" d="M96 48a48 48 0 0 1-48 48A48 48 0 0 1 0 48 48 48 0 0 1 48 0a48 48 0 0 1 48 48z" display="block" overflow="visible" fill-opacity=".058"/><path style="isolation:auto;mix-blend-mode:normal;marker:none" d="M206 160a46 46 0 0 1-46 46 46 46 0 0 1-46-46 46 46 0 0 1 46-46 46 46 0 0 1 46 46z" display="block" overflow="visible" fill="url(#e)" transform="translate(-112 -112)"/><path d="M206 160a46 46 0 0 1-46 46 46 46 0 0 1-46-46 46 46 0 0 1 46-46 46 46 0 0 1 46 46z" style="isolation:auto;mix-blend-mode:normal;marker:none" display="block" overflow="visible" fill="url(#f)" transform="translate(-112 -112)"/><path d="M38.164 9.731l-7.679 21.11h-.002L17.43 66.697h8.69l11.1-30.471h6.53l-11.1 30.47 8.686.003L51.68 38.272c1.489-4.088-.853-7.432-5.199-7.432h-7.305L47.25 8.656c-2.697-.286-7.082.32-9.085 1.075zm22.76 21.11L47.503 67.722h-.006l-7.53 20.69a41 41 0 0 0 8.291 1.12l8.309-22.835h11.531c2.024 0 4.245-1.556 4.938-3.457l9.09-24.97c1.487-4.087-.854-7.43-5.204-7.43zm6.76 5.364h6.53L65.07 61.291h-6.53z" style="isolation:auto;mix-blend-mode:normal;marker:none" display="block" overflow="visible" fill-opacity=".194"/><path style="isolation:auto;mix-blend-mode:normal;marker:none" d="M36.611 9.133l-7.68 21.11h-.001L15.877 66.1h8.69l11.099-30.471h6.531l-11.1 30.47 8.686.003 10.344-28.428c1.489-4.088-.853-7.432-5.2-7.432h-7.304l8.073-22.184c-2.696-.286-7.082.32-9.085 1.075zm22.76 21.11L45.95 67.124h-.006l-7.529 20.69a41 41 0 0 0 8.291 1.12L55.014 66.1h11.53c2.025 0 4.246-1.556 4.938-3.457l9.09-24.97c1.487-4.087-.853-7.43-5.203-7.43zm6.76 5.364h6.53l-9.143 25.086h-6.53z" display="block" overflow="visible" fill="#fff"/><path style="isolation:auto;mix-blend-mode:normal;marker:none" d="M90.086 49.121A42.086 42.086 0 0 1 48 91.207 42.086 42.086 0 0 1 5.914 49.121 42.086 42.086 0 0 1 48 7.036 42.086 42.086 0 0 1 90.086 49.12z" overflow="visible" fill="none" stroke="#050505" stroke-width="1.679" stroke-linejoin="round" stroke-opacity=".458"/><path style="isolation:auto;mix-blend-mode:normal;marker:none" d="M90.086 47.757A42.086 42.086 0 0 1 48 89.843 42.086 42.086 0 0 1 5.914 47.757 42.086 42.086 0 0 1 48 5.672a42.086 42.086 0 0 1 42.086 42.085z" overflow="visible" fill="none" stroke="#fff" stroke-width="1.679" stroke-linejoin="round"/><path style="isolation:auto;mix-blend-mode:normal;marker:none" d="M204.005 160A44.005 44.005 0 0 1 160 204.005 44.005 44.005 0 0 1 115.995 160 44.005 44.005 0 0 1 160 115.995 44.005 44.005 0 0 1 204.005 160z" overflow="visible" fill="none" stroke="url(#g)" stroke-width="3.99" stroke-linejoin="round" transform="translate(-112 -112)"/></g></svg>