<svg xmlns="http://www.w3.org/2000/svg" xmlns:xlink="http://www.w3.org/1999/xlink" height="96" viewBox="0 0 96 96" width="96"><title>Template icons dark</title><defs><linearGradient xlink:href="#a" id="d" x1="53.271" y1="55.429" x2="-10.45" y2="-7.238" gradientUnits="userSpaceOnUse" gradientTransform="matrix(1.21591 0 0 1.23635 131.195 131.217)"/><linearGradient id="a"><stop offset="0" stop-color="#4d77d3"/><stop offset=".453" stop-color="#767294"/><stop offset="1" stop-color="#a6659c"/></linearGradient><linearGradient xlink:href="#b" id="c" x1="26.4" y1="60.613" x2="26.4" y2="-12.187" gradientUnits="userSpaceOnUse" gradientTransform="matrix(1.09192 0 0 1.07648 133.857 134.227)"/><linearGradient id="b"><stop offset="0" stop-color="#0b1528"/><stop offset="1" stop-color="#473d49"/></linearGradient></defs><g color="#000" transform="translate(-112 -112)"><rect ry="4.629" y="117" x="113" height="86" width="94" style="isolation:auto;mix-blend-mode:normal;marker:none" overflow="visible" fill-opacity=".077"/><rect style="isolation:auto;mix-blend-mode:normal;marker:none" width="88" height="80" x="116" y="120" ry="4.306" overflow="visible" fill="url(#c)" stroke="#000" stroke-width=".323" stroke-opacity=".471"/><rect style="isolation:auto;mix-blend-mode:normal;marker:none" width="88" height="80" x="116" y="120" ry="3.989" overflow="visible" fill="none" stroke="url(#d)" stroke-width="2"/><path style="isolation:auto;mix-blend-mode:normal;marker:none" d="M130 132h8v20h-8z" display="block" overflow="visible" fill="#94d59b"/><path style="isolation:auto;mix-blend-mode:normal;marker:none" d="M124 128h8l-.063 2.004-5.937-.008v23.998l5.937.012V156H124z" display="block" overflow="visible" fill="#fff" fill-opacity=".247"/><path style="isolation:auto;mix-blend-mode:normal;marker:none" d="M142 132h8v20h-8zM154 132h8v20h-8z" display="block" overflow="visible" fill="#94d59b"/><path style="isolation:auto;mix-blend-mode:normal;marker:none" d="M166 132h8v20h-8z" display="block" overflow="visible" fill="#94ccd5"/><path style="isolation:auto;mix-blend-mode:normal;marker:none" d="M178 132h8v20h-8z" display="block" overflow="visible" fill="#d594c7"/><path style="isolation:auto;mix-blend-mode:normal;marker:none" d="M130 170h8v20h-8z" display="block" overflow="visible" fill="#94d59b"/><path d="M124 166h8l-.063 2.004-5.937-.008v23.998l5.937.012V194H124z" style="isolation:auto;mix-blend-mode:normal;marker:none" display="block" overflow="visible" fill="#fff" fill-opacity=".247"/><path style="isolation:auto;mix-blend-mode:normal;marker:none" d="M142 170h8v20h-8z" display="block" overflow="visible" fill="#94ccd5"/><path style="isolation:auto;mix-blend-mode:normal;marker:none" d="M154 170h8v20h-8z" display="block" overflow="visible" fill="#d594c7"/></g></svg>