<svg xmlns="http://www.w3.org/2000/svg" xmlns:xlink="http://www.w3.org/1999/xlink" height="96" viewBox="0 0 96 96" width="96"><title>Template icons dark</title><defs><linearGradient id="a"><stop offset="0" stop-color="#3b173b"/><stop offset="1" stop-color="#1c2d4c"/></linearGradient><linearGradient gradientTransform="matrix(2 0 0 2 112.009 109.99)" xlink:href="#a" id="b" x1="2" y1="35.339" x2="46" y2="35.339" gradientUnits="userSpaceOnUse"/></defs><path d="M49.663 5.59c-2.63.566-9.348 14.022-9.348 14.022s-8.184 12.09-15.688 14.627c-6.63 2.242-20.618 11.752-20.618 11.752l44 40 44-40C66.114 27.096 66.297 29.774 49.663 5.59z" fill="#535363"/><path d="M21.853 36.367c2.005 1.69 5.923-.297 5.597 3.408.401 2.067 1.054 7.065 3.846 3.866 1.144-2.987 5.012-3.313 5.546.223 1.122 1.927 1.46 5.77 4.304 3.497 2.682-.569 5.715-3.46 8.272-1.22 2.342.897 4.469 4.01 7.084 3.027 2.698-1.601 4.305-5.238 7.894-5.08 3.093-.128 5.936 2.11 6.687 5.097 1.611 2.748 4.725 5.103 8.03 5.057 2.69-.647 9.474-4.525 11.534-6.54-9.984-6.682-28-18.354-42.79-41.122-1.93 2.411-4.059 5.695-5.793 8.454-1.7 2.836-2.548 6.176-5.035 8.467-6.132 7.223-8.107 10.171-15.176 12.866z" fill-opacity=".319"/><path d="M23.215 34.657c2.005 1.69 5.923-.298 5.596 3.408.402 2.067 1.055 7.064 3.847 3.866 1.143-2.988 5.012-3.313 5.546.222 1.122 1.927 1.46 5.77 4.304 3.497 2.682-.569 5.715-3.46 8.271-1.22 2.343.898 4.47 4.01 7.084 3.027 2.699-1.6 4.305-5.238 7.895-5.08 3.093-.128 5.936 2.11 6.687 5.098 1.611 2.747 4.725 5.103 8.03 5.057 2.69-.648 9.474-4.526 11.534-6.541-9.984-6.681-28-18.353-42.79-41.122-1.93 2.412-4.059 5.696-5.794 8.454-1.7 2.836-2.547 6.176-5.034 8.467-6.133 7.224-8.107 10.172-15.176 12.867z" fill="#f0f0ef"/><path d="M51.405 21.706c-1.211 2.128-3.387 3.613-4.506 5.723 1.802 1.382 4.62 2.43 5.29 5.091-2.219.964-2.785 3.722-1.977 5.814.014 2.747-2.833 4.164-4.817 5.486-1.252 1.226-4.669 4.625-3.977 6.484 4.204 2.873 10.511-2.732 15.232-.75 2.21 2.11-8.859 6.715-12.887 12.89 5.276 1.44 15.505.005 14.892 3.396-10.646 8.15-10.646 20.15-10.646 20.15l44-40c-16.882-12-28-19.283-42.346-40.4 2.376 6.576 3.083 12.947 1.742 16.116z" fill-opacity=".215"/><path d="M21.076 55.94l-.06.035.066-.014z" fill="#545374"/><path d="M116.009 157.99l44 40 44-40-44 48z" fill="url(#b)" fill-rule="evenodd" transform="translate(-112 -112)"/><path d="M28.786 19.86l20.59-15.226" fill-opacity=".215" fill-rule="evenodd" stroke="#a782ec" stroke-width=".8"/><path style="isolation:auto;mix-blend-mode:normal;marker:none" d="M30.872 19.615a2.131 2.131 0 0 1-2.13 2.132 2.131 2.131 0 0 1-2.132-2.132 2.131 2.131 0 0 1 2.131-2.13 2.131 2.131 0 0 1 2.131 2.13zM75.154 13.64a2.131 2.131 0 0 1-2.13 2.131 2.131 2.131 0 0 1-2.132-2.13 2.131 2.131 0 0 1 2.131-2.132 2.131 2.131 0 0 1 2.131 2.131z" color="#000" display="block" overflow="visible" fill="none" stroke="#fefbfb" stroke-width=".762" stroke-linecap="round" paint-order="fill markers stroke"/><path d="M49.469 4.947l24.004 8.922" fill-opacity=".215" fill-rule="evenodd" stroke="#a782ec" stroke-width=".8"/><path d="M49.663 5.59c-2.63.566-9.348 14.022-9.348 14.022s-8.184 12.09-15.688 14.627c-6.63 2.242-20.618 11.752-20.618 11.752l44 40 44-40C66.114 27.096 66.297 29.774 49.663 5.59z" fill="none" stroke="#fc4f4f" stroke-width=".656" stroke-opacity=".916"/><path style="isolation:auto;mix-blend-mode:normal;marker:none" d="M2.288 43.92h3.78v3.78h-3.78zM46.103 83.1h3.78v3.78h-3.78zM89.915 43.8h3.78v3.78h-3.78zM47.387 2.479h3.78v3.78h-3.78z" color="#000" display="block" overflow="visible" fill="#dedede" paint-order="fill markers stroke"/></svg>