<svg xmlns="http://www.w3.org/2000/svg" xmlns:xlink="http://www.w3.org/1999/xlink" height="96" viewBox="0 0 96 96" width="96"><title>Template icons dark</title><defs><linearGradient id="e"><stop offset="0" stop-color="#6e685c"/><stop offset="1" stop-color="#7f6a7f"/></linearGradient><linearGradient id="d"><stop offset="0" stop-opacity=".022"/><stop offset="1" stop-color="#111" stop-opacity=".551"/></linearGradient><linearGradient id="c"><stop offset="0" stop-color="#262532"/><stop offset="1" stop-color="#39343d"/></linearGradient><linearGradient id="b"><stop offset="0" stop-color="#92e96f"/><stop offset="1" stop-color="#11ffec"/></linearGradient><linearGradient id="a"><stop offset="0" stop-color="#23211d"/><stop offset="1" stop-color="#3f474b"/></linearGradient><linearGradient xlink:href="#b" id="g" x1="160" y1="182.114" x2="160" y2="138" gradientUnits="userSpaceOnUse"/><linearGradient xlink:href="#d" id="i" gradientUnits="userSpaceOnUse" x1="157.441" y1="165" x2="152.504" y2="178" gradientTransform="matrix(-1 0 0 1 319.977 0)"/><linearGradient xlink:href="#d" id="j" gradientUnits="userSpaceOnUse" x1="157.441" y1="165" x2="152.504" y2="178" gradientTransform="matrix(1 0 0 -1 0 321.42)"/><linearGradient xlink:href="#d" id="k" gradientUnits="userSpaceOnUse" gradientTransform="rotate(-180 159.988 160.71)" x1="157.441" y1="165" x2="152.504" y2="178"/><linearGradient xlink:href="#d" id="h" gradientUnits="userSpaceOnUse" gradientTransform="matrix(-1 0 0 1 319.977 0)" x1="162.536" y1="165" x2="171.252" y2="173"/><linearGradient xlink:href="#c" id="f" gradientUnits="userSpaceOnUse" x1="165.575" y1="196.64" x2="165.575" y2="124"/></defs><path d="M96 48c0 3.36-21.09 39.89-24 41.57-2.91 1.68-45.09 1.68-48 0C21.09 87.89 0 51.36 0 48 0 44.64 21.09 8.11 24 6.43c2.91-1.68 45.09-1.68 48 0C74.91 8.11 96 44.64 96 48z" style="isolation:auto;mix-blend-mode:normal;marker:none" color="#000" display="block" overflow="visible" fill-opacity=".423" paint-order="fill markers stroke"/><path style="isolation:auto;mix-blend-mode:normal;marker:none" d="M207 160c0 3.29-20.65 39.058-23.5 40.703-2.85 1.645-44.15 1.645-47 0C133.65 199.058 113 163.29 113 160c0-3.29 20.65-39.058 23.5-40.703 2.85-1.645 44.15-1.645 47 0C186.35 120.942 207 156.71 207 160z" color="#000" display="block" overflow="visible" fill="url(#f)" paint-order="fill markers stroke" transform="translate(-112 -112)"/><path d="M88 48c0 2.8-17.575 33.241-20 34.641-2.425 1.4-37.575 1.4-40 0C25.575 81.241 8 50.8 8 48c0-2.8 17.575-33.241 20-34.641 2.425-1.4 37.575-1.4 40 0C70.425 14.759 88 45.2 88 48z" style="isolation:auto;mix-blend-mode:normal;marker:none" color="#000" display="block" overflow="visible" fill="#f6f5f4" fill-opacity=".099" paint-order="fill markers stroke"/><path style="isolation:auto;mix-blend-mode:normal;marker:none" d="M83 48c0 2.45-15.378 29.086-17.5 30.31-2.122 1.226-32.878 1.226-35 0C28.378 77.087 13 50.45 13 48c0-2.45 15.378-29.086 17.5-30.31 2.122-1.226 32.878-1.226 35 0C67.622 18.913 83 45.55 83 48z" color="#000" display="block" overflow="visible" fill="#f6f5f4" fill-opacity=".099" paint-order="fill markers stroke"/><path d="M48 6.063c-11.038 0-22.075.411-23.5 1.234C21.65 8.942 1 44.71 1 48c0 .12.035.296.088.5C2.492 43.13 21.755 9.882 24.5 8.297c2.85-1.645 44.15-1.645 47 0C74.245 9.882 93.508 43.13 94.912 48.5A2.23 2.23 0 0 0 95 48c0-3.29-20.65-39.058-23.5-40.703-1.425-.823-12.462-1.234-23.5-1.234z" style="isolation:auto;mix-blend-mode:normal;marker:none" color="#000" overflow="visible" fill="#f5deb2" fill-opacity=".247" paint-order="fill markers stroke"/><path style="line-height:normal;font-variant-ligatures:normal;font-variant-position:normal;font-variant-caps:normal;font-variant-numeric:normal;font-variant-alternates:normal;font-feature-settings:normal;text-indent:0;text-align:start;text-decoration-line:none;text-decoration-style:solid;text-decoration-color:#000;text-transform:none;text-orientation:mixed;shape-padding:0;isolation:auto;mix-blend-mode:normal;marker:none" d="M48 24.014c-3.16 0-6.313.055-8.83.172-1.258.058-2.351.13-3.254.226-.451.048-.852.101-1.246.176-.394.075-.692.055-1.482.498s-.926.706-1.19 1c-.264.294-.51.603-.78.959a53.235 53.235 0 0 0-1.827 2.623c-1.363 2.058-2.99 4.683-4.569 7.34-1.58 2.656-3.105 5.335-4.26 7.51a52.843 52.843 0 0 0-1.427 2.85c-.183.403-.337.765-.467 1.134-.13.369-.297.612-.297 1.498s.167 1.13.297 1.498c.13.369.284.731.467 1.135.365.807.85 1.762 1.428 2.85 1.154 2.174 2.68 4.853 4.26 7.51 1.018 1.712 2.029 3.348 3.003 4.892l-4.175 12.11 10.566-4.669c.156.032.302.057.453.086.394.075.795.128 1.246.176.903.096 1.996.168 3.254.226 2.517.117 5.67.172 8.83.172s6.311-.055 8.828-.172a56.525 56.525 0 0 0 3.256-.226c.451-.048.852-.101 1.246-.176.394-.075.692-.055 1.483-.498.79-.443.925-.706 1.189-1 .264-.294.51-.604.78-.959a53.241 53.241 0 0 0 1.827-2.623c1.363-2.058 2.99-4.683 4.569-7.34 1.58-2.656 3.105-5.335 4.26-7.51a52.657 52.657 0 0 0 1.425-2.85c.183-.403.339-.765.47-1.134.13-.369.296-.612.296-1.498s-.167-1.13-.297-1.498c-.13-.369-.286-.731-.469-1.135a52.665 52.665 0 0 0-1.425-2.85c-1.155-2.174-2.68-4.853-4.26-7.51-1.58-2.656-3.206-5.281-4.569-7.34a53.248 53.248 0 0 0-1.828-2.622 14.449 14.449 0 0 0-.779-.96c-.264-.293-.4-.556-1.19-1-.79-.442-1.088-.422-1.482-.497a15.245 15.245 0 0 0-1.246-.176 56.515 56.515 0 0 0-3.256-.226c-2.517-.117-5.669-.172-8.828-.172zm0 5.912c3.084 0 6.174.056 8.541.166.343.016.524.04.834.058l-9.428 14.036-9.545-14.022c.38-.023.623-.052 1.057-.072 2.367-.11 5.457-.166 8.541-.166zm14.906 5.16a206.014 206.014 0 0 1 2.998 4.877c1.542 2.593 3.038 5.219 4.123 7.264a48.548 48.548 0 0 1 1.264 2.521c.052.116.065.157.106.252-.04.095-.054.136-.106.252-.28.617-.72 1.499-1.264 2.521-1.085 2.045-2.58 4.671-4.123 7.264a198.398 198.398 0 0 1-3.408 5.518L52.4 50.725zm-29.922.17l10.551 15.498-9.988 14.867a197.603 197.603 0 0 1-3.451-5.584c-1.542-2.593-3.038-5.219-4.123-7.264a48.548 48.548 0 0 1-1.264-2.521c-.052-.116-.065-.157-.105-.252.04-.095.053-.136.105-.252.28-.617.72-1.499 1.264-2.521 1.085-2.045 2.58-4.671 4.123-7.264.983-1.654 1.957-3.23 2.888-4.707zm15.004 22.037l8.586 12.613a.88.88 0 0 0-.033.002c-2.367.11-5.457.166-8.541.166-3.063 0-6.128-.056-8.488-.164z" color="#000" font-weight="400" font-family="sans-serif" white-space="normal" display="block" overflow="visible" fill-opacity=".214" paint-order="fill markers stroke"/><path style="line-height:normal;font-variant-ligatures:normal;font-variant-position:normal;font-variant-caps:normal;font-variant-numeric:normal;font-variant-alternates:normal;font-feature-settings:normal;text-indent:0;text-align:start;text-decoration-line:none;text-decoration-style:solid;text-decoration-color:#000;text-transform:none;text-orientation:mixed;shape-padding:0;isolation:auto;mix-blend-mode:normal;marker:none" d="M160 134.014c-3.16 0-6.313.055-8.83.172-1.258.058-2.352.13-3.254.226-.451.048-.852.101-1.246.176-.394.075-.692.055-1.482.498s-.926.706-1.19 1c-.264.294-.51.603-.78.959a53.235 53.235 0 0 0-1.827 2.623c-1.363 2.058-2.99 4.683-4.569 7.34-1.58 2.656-3.105 5.335-4.26 7.51a52.843 52.843 0 0 0-1.427 2.85c-.183.403-.337.765-.467 1.134-.13.369-.297.612-.297 1.498s.167 1.13.297 1.498c.13.369.284.731.467 1.135.365.807.85 1.762 1.428 2.85 1.154 2.174 2.68 4.853 4.26 7.51 1.009 1.697 2.011 3.319 2.978 4.85L135.686 191l10.326-5.723c.252.075.444.094.658.135.394.075.795.128 1.246.176.902.096 1.996.168 3.254.226 2.517.117 5.67.172 8.83.172s6.311-.055 8.828-.172a56.525 56.525 0 0 0 3.256-.226c.451-.048.852-.101 1.246-.176.394-.075.692-.055 1.483-.498.79-.443.925-.706 1.189-1 .264-.294.51-.603.78-.959a53.241 53.241 0 0 0 1.827-2.623c1.363-2.058 2.99-4.683 4.569-7.34 1.58-2.656 3.105-5.335 4.26-7.51a52.657 52.657 0 0 0 1.425-2.85c.183-.403.339-.765.469-1.134.13-.369.297-.612.297-1.498s-.167-1.13-.297-1.498c-.13-.369-.286-.731-.469-1.135a52.665 52.665 0 0 0-1.425-2.85c-1.155-2.174-2.68-4.853-4.26-7.51-1.58-2.656-3.206-5.281-4.569-7.339a53.248 53.248 0 0 0-1.828-2.623 14.449 14.449 0 0 0-.779-.96c-.264-.293-.4-.556-1.19-1-.79-.442-1.088-.422-1.482-.497a15.245 15.245 0 0 0-1.246-.176 56.515 56.515 0 0 0-3.256-.226c-2.517-.117-5.669-.172-8.828-.172zm0 5.912c3.084 0 6.174.056 8.541.166.343.016.524.04.834.058l-9.428 14.036-9.545-14.022c.38-.023.623-.052 1.057-.072 2.367-.11 5.457-.166 8.541-.166zm14.906 5.16a206.014 206.014 0 0 1 2.998 4.877c1.542 2.593 3.038 5.219 4.123 7.264a48.548 48.548 0 0 1 1.264 2.521c.052.116.065.157.105.252-.04.095-.053.136-.105.252-.28.617-.72 1.499-1.264 2.521-1.085 2.045-2.58 4.671-4.123 7.264a198.398 198.398 0 0 1-3.408 5.518l-10.096-14.83zm-29.922.17l10.551 15.498-9.988 14.867a197.603 197.603 0 0 1-3.451-5.584c-1.542-2.593-3.038-5.219-4.123-7.264a48.548 48.548 0 0 1-1.264-2.521c-.052-.116-.065-.157-.105-.252.04-.095.053-.136.105-.252.28-.617.72-1.499 1.264-2.521 1.085-2.045 2.58-4.671 4.123-7.264.983-1.654 1.957-3.23 2.888-4.707zm15.004 22.037l8.586 12.613a.88.88 0 0 0-.033.002c-2.367.11-5.457.166-8.541.166-3.063 0-6.128-.056-8.488-.164z" color="#000" font-weight="400" font-family="sans-serif" white-space="normal" display="block" overflow="visible" fill="url(#g)" paint-order="fill markers stroke" transform="translate(-112 -112)"/><path d="M145.547 175.621l14.441-8.328-4.453-6.54z" fill="url(#h)" fill-rule="evenodd" transform="translate(-112 -112)"/><path d="M174.496 175.555l-14.508-8.262 4.453-6.54z" fill="url(#i)" fill-rule="evenodd" transform="translate(-112 -112)"/><path d="M144.984 145.256l14.963 8.93-4.412 6.568z" fill="url(#j)" fill-rule="evenodd" transform="translate(-112 -112)"/><path d="M175 145.126l-15.053 9.06 4.453 6.539z" fill="url(#k)" fill-rule="evenodd" transform="translate(-112 -112)"/><path style="line-height:normal;font-variant-ligatures:normal;font-variant-position:normal;font-variant-caps:normal;font-variant-numeric:normal;font-variant-alternates:normal;font-feature-settings:normal;text-indent:0;text-align:start;text-decoration-line:none;text-decoration-style:solid;text-decoration-color:#000;text-transform:none;text-orientation:mixed;shape-padding:0;isolation:auto;mix-blend-mode:normal;marker:none" d="M48 22.014c-3.16 0-6.313.055-8.83.172-1.258.058-2.351.13-3.254.226-.451.048-.852.101-1.246.176-.394.075-.692.055-1.482.498s-.926.706-1.19 1c-.264.294-.51.603-.78.959a53.235 53.235 0 0 0-1.827 2.623c-1.363 2.058-2.99 4.683-4.569 7.34-1.58 2.656-3.105 5.335-4.26 7.51a52.843 52.843 0 0 0-1.427 2.85c-.183.403-.337.765-.467 1.134-.13.369-.297.612-.297 1.498 0 .199.011.357.026.5.05-.493.17-.712.271-.998.13-.369.284-.731.467-1.135.365-.807.85-1.762 1.428-2.85 1.154-2.174 2.68-4.853 4.26-7.51 1.579-2.656 3.205-5.281 4.568-7.339a53.235 53.235 0 0 1 1.828-2.623c.268-.356.515-.665.78-.96.263-.293.398-.556 1.189-1 .79-.442 1.088-.422 1.482-.497.394-.075.795-.128 1.246-.176a56.444 56.444 0 0 1 3.254-.226c2.517-.117 5.67-.172 8.83-.172s6.311.055 8.828.172c1.259.058 2.354.13 3.256.226.451.048.852.101 1.246.176.394.075.692.055 1.483.498.79.443.925.706 1.189 1 .264.294.51.603.78.959.536.71 1.146 1.594 1.827 2.623 1.363 2.058 2.99 4.683 4.569 7.34 1.58 2.656 3.105 5.335 4.26 7.51a52.665 52.665 0 0 1 1.425 2.85c.183.403.339.765.47 1.134.1.286.22.505.27.998.015-.143.026-.301.026-.5 0-.886-.167-1.13-.297-1.498-.13-.369-.286-.731-.469-1.135a52.665 52.665 0 0 0-1.425-2.85c-1.155-2.174-2.68-4.853-4.26-7.51-1.58-2.656-3.206-5.281-4.569-7.339a53.248 53.248 0 0 0-1.828-2.623 14.449 14.449 0 0 0-.779-.96c-.264-.293-.4-.556-1.19-1-.79-.442-1.088-.422-1.482-.497a15.245 15.245 0 0 0-1.246-.176 56.515 56.515 0 0 0-3.256-.226c-2.517-.117-5.669-.172-8.828-.172zm8.734 7.091l-8.787 13.08-8.894-13.066c-.207.015-.417.03-.65.045l9.544 14.022 9.428-14.036c-.238-.014-.423-.03-.64-.045zM24.834 48.5c-.03.066-.097.187-.125.248-.052.116-.065.157-.105.252.04.095.053.136.105.252.28.617.72 1.499 1.264 2.521 1.085 2.045 2.58 4.671 4.123 7.264a197.603 197.603 0 0 0 3.45 5.584l9.99-14.867-.339-.496-9.65 14.363a197.603 197.603 0 0 1-3.451-5.584c-1.542-2.593-3.038-5.219-4.123-7.264a48.438 48.438 0 0 1-1.139-2.273zm46.332 0c-.28.602-.65 1.352-1.139 2.273-1.085 2.045-2.58 4.671-4.123 7.264a198.398 198.398 0 0 1-3.408 5.518L52.738 49.22l-.338.504 10.096 14.83a198.398 198.398 0 0 0 3.408-5.518c1.542-2.593 3.038-5.219 4.123-7.264a48.548 48.548 0 0 0 1.264-2.521c.052-.116.065-.157.106-.252-.04-.095-.054-.136-.106-.252-.027-.06-.094-.182-.125-.248zM27.631 66.564L23.686 79l.277-.17L27.8 66.844c-.056-.088-.114-.191-.17-.28zm28.277 1.364c-2.28.093-5.068.146-7.908.146-2.81 0-5.562-.053-7.83-.144l-.658.98c2.36.108 5.425.164 8.488.164 3.084 0 6.174-.056 8.541-.166.014 0 .02 0 .033-.002z" color="#000" font-weight="400" font-family="sans-serif" white-space="normal" display="block" overflow="visible" fill="#f5edb2" fill-opacity=".385" paint-order="fill markers stroke"/><path style="isolation:auto;mix-blend-mode:normal;marker:none" d="M48 53c-.23 0-.93-2.923-1.092-3.085-.162-.162-3.086-.863-3.086-1.093 0-.229 2.924-.93 3.086-1.092.162-.162.863-3.085 1.092-3.085.23 0 .93 2.923 1.092 3.085.162.162 3.086.863 3.086 1.092 0 .23-2.924.93-3.086 1.093C48.93 50.077 48.23 53 48 53z" color="#000" overflow="visible" fill-opacity=".198" paint-order="fill markers stroke"/></svg>