<svg xmlns:osb="http://www.openswatchbook.org/uri/2009/osb" xmlns="http://www.w3.org/2000/svg" xmlns:xlink="http://www.w3.org/1999/xlink" height="96" viewBox="0 0 96 96" width="96"><title>Template icons dark</title><defs><linearGradient id="h" osb:paint="solid"><stop offset="0" stop-color="#65748c"/></linearGradient><linearGradient id="g" osb:paint="solid"><stop offset="0" stop-opacity=".196"/></linearGradient><linearGradient id="f" osb:paint="solid"><stop offset="0" stop-color="#fff" stop-opacity=".782"/></linearGradient><linearGradient id="e" osb:paint="solid"><stop offset="0" stop-opacity=".078"/></linearGradient><linearGradient id="d" osb:paint="solid"><stop offset="0" stop-opacity=".157"/></linearGradient><linearGradient id="b"><stop offset="0" stop-color="#fff"/><stop offset="1" stop-color="#dfdfdf"/></linearGradient><linearGradient id="a"><stop offset="0" stop-color="#f0f0f0"/><stop offset="1" stop-color="#fff"/></linearGradient><linearGradient xlink:href="#a" id="k" gradientUnits="userSpaceOnUse" gradientTransform="matrix(2.19434 0 0 2.19615 107.378 109.173)" x1="24.117" y1="4.931" x2="24.058" y2="42.556"/><linearGradient xlink:href="#b" id="q" gradientUnits="userSpaceOnUse" gradientTransform="matrix(2.50782 0 0 2.19615 97.007 108.932)" x1="33.094" y1="10.504" x2="29.904" y2="14.147"/><linearGradient xlink:href="#c" id="n" gradientUnits="userSpaceOnUse" gradientTransform="matrix(2.19434 0 0 2.19615 107.378 109.173)" x1="23.981" y1="23.144" x2="45.855" y2="1.287"/><linearGradient xlink:href="#c" id="m" gradientUnits="userSpaceOnUse" gradientTransform="matrix(2.19434 0 0 2.19615 107.378 109.173)" x1="23.981" y1="23.144" x2="2.106" y2="45"/><linearGradient xlink:href="#c" id="l" gradientUnits="userSpaceOnUse" gradientTransform="matrix(2.19434 0 0 2.19615 107.378 109.173)" x1="23.981" y1="23.144" x2="45.855" y2="45"/><linearGradient id="c"><stop offset="0" stop-opacity="0"/><stop offset="1" stop-opacity=".102"/></linearGradient><linearGradient xlink:href="#c" id="o" gradientUnits="userSpaceOnUse" gradientTransform="matrix(2.19434 0 0 2.19615 107.378 109.173)" x1="23.981" y1="23.144" x2="2.106" y2="1.287"/><linearGradient xlink:href="#d" id="j" x1="126" y1="161.5" x2="194" y2="161.5" gradientUnits="userSpaceOnUse"/><linearGradient xlink:href="#e" id="i" x1="125" y1="161.5" x2="195" y2="161.5" gradientUnits="userSpaceOnUse"/><linearGradient xlink:href="#f" id="r" x1="127" y1="120.5" x2="169" y2="120.5" gradientUnits="userSpaceOnUse"/><linearGradient xlink:href="#g" id="p" x1="166" y1="133.472" x2="193" y2="133.472" gradientUnits="userSpaceOnUse"/><linearGradient xlink:href="#h" id="y" gradientUnits="userSpaceOnUse" x1="-53" y1="-43.5" x2="-35" y2="-43.5"/><linearGradient xlink:href="#h" id="x" gradientUnits="userSpaceOnUse" x1="-53" y1="-43.5" x2="-35" y2="-43.5"/><linearGradient xlink:href="#h" id="w" gradientUnits="userSpaceOnUse" x1="-53" y1="-43.5" x2="-35" y2="-43.5"/><linearGradient xlink:href="#h" id="v" gradientUnits="userSpaceOnUse" x1="-53" y1="-43.5" x2="-35" y2="-43.5"/><linearGradient xlink:href="#h" id="u" gradientUnits="userSpaceOnUse" x1="-53" y1="-43.5" x2="-35" y2="-43.5"/><linearGradient xlink:href="#h" id="t" gradientUnits="userSpaceOnUse" x1="-53" y1="-43.5" x2="-35" y2="-43.5"/><linearGradient xlink:href="#h" id="B" gradientUnits="userSpaceOnUse" x1="-53" y1="-43.5" x2="-35" y2="-43.5"/><linearGradient xlink:href="#h" id="A" gradientUnits="userSpaceOnUse" x1="-53" y1="-43.5" x2="-35" y2="-43.5"/><linearGradient xlink:href="#h" id="J" gradientUnits="userSpaceOnUse" x1="-53" y1="-43.5" x2="-35" y2="-43.5"/><linearGradient xlink:href="#h" id="I" gradientUnits="userSpaceOnUse" x1="-53" y1="-43.5" x2="-35" y2="-43.5"/><linearGradient xlink:href="#h" id="H" gradientUnits="userSpaceOnUse" x1="-53" y1="-43.5" x2="-35" y2="-43.5"/><linearGradient xlink:href="#h" id="G" gradientUnits="userSpaceOnUse" x1="-53" y1="-43.5" x2="-35" y2="-43.5"/><linearGradient xlink:href="#h" id="F" gradientUnits="userSpaceOnUse" x1="-53" y1="-43.5" x2="-35" y2="-43.5"/><linearGradient xlink:href="#h" id="E" gradientUnits="userSpaceOnUse" x1="-53" y1="-43.5" x2="-35" y2="-43.5"/><linearGradient xlink:href="#h" id="L" gradientUnits="userSpaceOnUse" x1="-53" y1="-43.5" x2="-35" y2="-43.5"/><linearGradient xlink:href="#h" id="Q" gradientUnits="userSpaceOnUse" x1="-53" y1="-43.5" x2="-35" y2="-43.5"/><linearGradient xlink:href="#h" id="P" gradientUnits="userSpaceOnUse" x1="-53" y1="-43.5" x2="-35" y2="-43.5"/><linearGradient xlink:href="#h" id="O" gradientUnits="userSpaceOnUse" x1="-53" y1="-43.5" x2="-35" y2="-43.5"/><linearGradient xlink:href="#h" id="N" gradientUnits="userSpaceOnUse" x1="-53" y1="-43.5" x2="-35" y2="-43.5"/><linearGradient xlink:href="#h" id="M" gradientUnits="userSpaceOnUse" x1="-53" y1="-43.5" x2="-35" y2="-43.5"/><linearGradient xlink:href="#h" id="K" gradientUnits="userSpaceOnUse" x1="-53" y1="-43.5" x2="-35" y2="-43.5"/><linearGradient xlink:href="#h" id="D" gradientUnits="userSpaceOnUse" x1="-53" y1="-43.5" x2="-35" y2="-43.5"/><linearGradient xlink:href="#h" id="C" gradientUnits="userSpaceOnUse" x1="-53" y1="-43.5" x2="-35" y2="-43.5"/><linearGradient xlink:href="#h" id="z" gradientUnits="userSpaceOnUse" x1="-53" y1="-43.5" x2="-35" y2="-43.5"/><linearGradient xlink:href="#h" id="s" gradientUnits="userSpaceOnUse" x1="-53" y1="-43.5" x2="-35" y2="-43.5"/></defs><path d="M125 118h44l26 26v61h-70z" style="isolation:auto;mix-blend-mode:normal;marker:none" color="#000" overflow="visible" fill="url(#i)" paint-order="fill markers stroke" transform="translate(-112 -112)"/><path style="isolation:auto;mix-blend-mode:normal;marker:none" d="M126 119h43l25 25v60h-68v-85z" color="#000" overflow="visible" fill="url(#j)" paint-order="fill markers stroke" transform="translate(-112 -112)"/><path d="M127 120h42l24 24v59h-66v-83z" style="isolation:auto;mix-blend-mode:normal;marker:none" color="#000" overflow="visible" fill="url(#k)" paint-order="fill markers stroke" transform="translate(-112 -112)"/><path style="isolation:auto;mix-blend-mode:normal;marker:none" d="M127 120h42l24 24v59h-66z" color="#000" overflow="visible" fill="url(#l)" paint-order="fill markers stroke" transform="translate(-112 -112)"/><path d="M127 120h42l24 24v59h-66z" style="isolation:auto;mix-blend-mode:normal;marker:none" color="#000" overflow="visible" fill="url(#m)" paint-order="fill markers stroke" transform="translate(-112 -112)"/><path style="isolation:auto;mix-blend-mode:normal;marker:none" d="M127 120h42l24 24v59h-66z" color="#000" overflow="visible" fill="url(#n)" paint-order="fill markers stroke" transform="translate(-112 -112)"/><path d="M127 120h42l24 24v59h-66z" style="isolation:auto;mix-blend-mode:normal;marker:none" color="#000" overflow="visible" fill="url(#o)" paint-order="fill markers stroke" transform="translate(-112 -112)"/><path d="M169 120l24 24-27 2.945z" fill="url(#p)" fill-rule="evenodd" transform="translate(-112 -112)"/><path d="M169 120l24 24h-24z" fill="url(#q)" fill-rule="evenodd" transform="translate(-112 -112)"/><path style="isolation:auto;mix-blend-mode:normal;marker:none" color="#000" display="block" overflow="visible" fill="url(#r)" paint-order="fill markers stroke" d="M127 120h42v1h-42z" transform="translate(-112 -112)"/><g transform="translate(18.637 -3.932) scale(1.80903)" style="marker:none" fill="url(#s)" stroke-width=".514" paint-order="fill markers stroke"><g transform="translate(-47.291)" style="marker:none" fill="url(#z)" paint-order="fill markers stroke"><g transform="matrix(.8091 0 0 .8091 36.38 10.004)" style="marker:none" fill="url(#D)" stroke-width=".635" paint-order="fill markers stroke"><g style="marker:none" transform="matrix(1.99877 0 0 1.99877 18.097 -2059.514)" fill="url(#K)" stroke-width=".318" paint-order="fill markers stroke"><path style="marker:none" d="M408.996 530.996l-5.244 6.733c-.983 1.263-.708 3.511.55 4.498 1.259.986 3.5.71 4.484-.553l5.244-6.732.655-.842c.656-.842.472-2.34-.367-2.998-.839-.658-2.333-.474-2.989.368l-.655.842-3.933 5.05-.656.84c-.327.422-.236 1.171.184 1.5.42.329 1.167.237 1.494-.184l4.589-5.891.839.657-4.589 5.891c-.655.842-2.15 1.026-2.989.368-.839-.657-1.022-2.156-.367-2.998l.656-.841 4.588-5.892c.984-1.262 3.225-1.538 4.484-.552 1.258.987 1.534 3.235.55 4.498l-.655.841-5.244 6.733c-1.311 1.683-4.3 2.051-5.978.736-1.678-1.315-2.045-4.313-.734-5.996l5.244-6.733z" fill="url(#Q)" paint-order="fill markers stroke" transform="matrix(.78637 0 0 .78395 -313.948 623.62)" stroke-width=".405"/></g></g></g></g></svg>