<svg xmlns:osb="http://www.openswatchbook.org/uri/2009/osb" xmlns="http://www.w3.org/2000/svg" xmlns:xlink="http://www.w3.org/1999/xlink" height="96" viewBox="0 0 96 96" width="96" id="svg2"><title id="title4675">Template icons dark</title><defs id="defs22"><linearGradient id="linearGradient9052"><stop offset="0" id="stop9048" stop-opacity=".411"/><stop offset="1" id="stop9050" stop-opacity=".516"/></linearGradient><linearGradient id="linearGradient9046"><stop id="stop9042" offset="0" stop-color="#efefef"/><stop id="stop9044" offset="1" stop-color="#adadad"/></linearGradient><linearGradient id="linearGradient7841"><stop offset="0" id="stop7837" stop-color="#00a500"/><stop offset="1" id="stop7839" stop-color="#00a51a"/></linearGradient><linearGradient id="linearGradient7833"><stop offset="0" id="stop7829" stop-color="#fff" stop-opacity=".057"/><stop offset="1" id="stop7831" stop-color="#fff" stop-opacity=".13"/></linearGradient><linearGradient id="linearGradient7827"><stop id="stop7823" offset="0" stop-color="#f7f7f7"/><stop id="stop7825" offset="1" stop-color="#e2e2e2"/></linearGradient><linearGradient id="linearGradient7819"><stop offset="0" id="stop7815" stop-color="#e3e3e3"/><stop offset="1" id="stop7817" stop-color="#939393"/></linearGradient><linearGradient xlink:href="#linearGradient7827" id="linearGradient7785" x1="160" y1="137" x2="160" y2="188" gradientUnits="userSpaceOnUse"/><linearGradient xlink:href="#linearGradient9046" id="linearGradient7821" x1="160.063" y1="120" x2="160.063" y2="204" gradientUnits="userSpaceOnUse"/><linearGradient xlink:href="#linearGradient7833" id="linearGradient7835" x1="178" y1="117" x2="193" y2="136" gradientUnits="userSpaceOnUse"/><linearGradient xlink:href="#linearGradient7841" id="linearGradient7843" x1="171.402" y1="117.454" x2="193" y2="136" gradientUnits="userSpaceOnUse"/><linearGradient gradientTransform="translate(-35.934 -35.408) scale(.7191)" xlink:href="#linearGradient7827" id="linearGradient7785-2" x1="160" y1="137" x2="160" y2="188" gradientUnits="userSpaceOnUse"/><linearGradient gradientTransform="translate(-35.934 -35.408) scale(.7191)" xlink:href="#linearGradient7819" id="linearGradient7821-8" x1="160.063" y1="118.739" x2="160.063" y2="204" gradientUnits="userSpaceOnUse"/><linearGradient gradientTransform="translate(-35.934 -35.408) scale(.7191)" xlink:href="#linearGradient7841" id="linearGradient7843-2" x1="171.402" y1="117.454" x2="193.205" y2="136.848" gradientUnits="userSpaceOnUse"/><linearGradient gradientTransform="translate(-35.934 -35.408) scale(.7191)" xlink:href="#linearGradient7833" id="linearGradient7835-3" x1="178" y1="117" x2="193.205" y2="136.848" gradientUnits="userSpaceOnUse"/><linearGradient gradientTransform="matrix(1.34831 0 0 1.34831 55.37 56.159)" xlink:href="#linearGradient7827" id="linearGradient7785-29" x1="160" y1="137" x2="160" y2="188" gradientUnits="userSpaceOnUse"/><linearGradient gradientTransform="matrix(1.34831 0 0 1.34831 55.37 56.159)" xlink:href="#linearGradient7819" id="linearGradient7821-9" x1="159.708" y1="120.211" x2="160.063" y2="204" gradientUnits="userSpaceOnUse"/><linearGradient xlink:href="#linearGradient7841" id="linearGradient8962" gradientUnits="userSpaceOnUse" x1="171.402" y1="117.454" x2="193" y2="136"/><linearGradient xlink:href="#linearGradient9052" id="linearGradient9054" x1="160" y1="119" x2="160" y2="201.575" gradientUnits="userSpaceOnUse"/><linearGradient xlink:href="#linearGradient7819" id="linearGradient9397" gradientUnits="userSpaceOnUse" gradientTransform="translate(-35.934 -35.408) scale(.7191)" x1="79.174" y1="52.02" x2="79.174" y2="110.426"/><linearGradient gradientTransform="translate(100 98)" xlink:href="#linearGradient9052" id="linearGradient9054-3" x1="160" y1="119" x2="160" y2="201.575" gradientUnits="userSpaceOnUse"/><linearGradient xlink:href="#linearGradient9052" id="linearGradient7937" gradientUnits="userSpaceOnUse" x1="79.843" y1="50.497" x2="79.843" y2="108"/><linearGradient gradientTransform="translate(-90.934 -84.408) scale(.7191)" xlink:href="#linearGradient7827" id="linearGradient7785-2-7" x1="160" y1="137" x2="160" y2="188" gradientUnits="userSpaceOnUse"/><linearGradient xlink:href="#linearGradient7827" id="linearGradient7867" gradientUnits="userSpaceOnUse" gradientTransform="translate(-35.934 -35.408) scale(.7191)" x1="79.623" y1="54.801" x2="79.623" y2="108.504"/><linearGradient id="linearGradient9422" osb:paint="solid"><stop offset="0" id="stop9420" stop-color="#a3bfcf"/></linearGradient><linearGradient id="linearGradient7827-6"><stop id="stop7823-2" offset="0" stop-color="#a3bfcf"/><stop id="stop7825-9" offset="1" stop-color="#6d8aa9"/></linearGradient><style id="style51071-8">.str0{stroke:#1f1a17;stroke-width:3}.fil0{fill:none}</style><style id="style2031-6">.str0{stroke:#1f1a17;stroke-width:.0762}.fil0,.fil1{fill:none}.fil1{fill-rule:nonzero}</style><style id="style5368-2">.str0,.str1{stroke:#000;stroke-width:63}.str1{stroke:#09098f}.fil5{fill:none}.fil1,.fil2{fill:#000}.fil3{fill:#4d66cc}.fil0{fill:#576ecd}.fil4{fill:#89a1d4}</style><style id="style51071">.str0{stroke:#1f1a17;stroke-width:3}.fil0{fill:none}</style><style id="style2031">.str0{stroke:#1f1a17;stroke-width:.0762}.fil0,.fil1{fill:none}.fil1{fill-rule:nonzero}</style><style id="style5368">.str0,.str1{stroke:#000;stroke-width:63}.str1{stroke:#09098f}.fil5{fill:none}.fil1,.fil2{fill:#000}.fil3{fill:#4d66cc}.fil0{fill:#576ecd}.fil4{fill:#89a1d4}</style></defs><g id="g8840" transform="translate(-112 -112)"><g id="g8838"><g id="g9013" fill-rule="evenodd"><path id="path9007" d="M192.01 116H169l26 26v-22.965c0-2.035-1-3.035-2.99-3.035z" style="marker:none" fill-opacity=".157" stroke-width=".217" paint-order="fill markers stroke"/><path d="M191.009 117H172l22 22v-18.985c0-2.015-1-3.015-2.991-3.015z" id="path9009" fill="url(#linearGradient7843)"/><path id="path9011" d="M172 117l22 22v-19.007c0-1.993-1-2.993-3.035-2.993zm3 1h18v18z" style="line-height:normal;font-variant-ligatures:normal;font-variant-position:normal;font-variant-caps:normal;font-variant-numeric:normal;font-variant-alternates:normal;font-feature-settings:normal;text-indent:0;text-align:start;text-decoration-line:none;text-decoration-style:solid;text-decoration-color:#000;text-transform:none;text-orientation:mixed;shape-padding:0;isolation:auto;mix-blend-mode:normal" color="#000" font-weight="400" font-family="sans-serif" white-space="normal" overflow="visible" fill="url(#linearGradient7835)" stroke-width="2"/></g><path id="path7759" d="M127.994 116h32.009c.997 0 1.998 0 3.03 1.032L193 147c1 1 2 2 2.023 3.056l-.022 51.954c0 1.99-1.001 2.99-3.04 2.99h-63.955C126 205 125 204 125 202.013v-83.006c0-2.007 1-3.007 2.994-3.007z" style="isolation:auto;mix-blend-mode:normal;marker:none" color="#000" display="block" overflow="visible" fill-opacity=".157" stroke-width=".217" paint-order="fill markers stroke"/><path style="isolation:auto;mix-blend-mode:normal;marker:none" d="M129 117h29.995c1.005 0 1.983-.022 3.005 1l30.999 30.03C194 149.03 194 150 194 151.013v49.964c0 2.023-1 3.023-2.97 3.023H129c-2 0-3-1-3-2.98V120c0-2.019 1-3 3-3z" id="rect7756" color="#000" display="block" overflow="visible" fill="url(#linearGradient7785)" stroke-width=".201" paint-order="fill markers stroke"/><path style="line-height:normal;font-variant-ligatures:normal;font-variant-position:normal;font-variant-caps:normal;font-variant-numeric:normal;font-variant-alternates:normal;font-feature-settings:normal;text-indent:0;text-align:start;text-decoration-line:none;text-decoration-style:solid;text-decoration-color:#000;text-transform:none;text-orientation:mixed;shape-padding:0;isolation:auto;mix-blend-mode:normal;marker:none" d="M126 120.008V201c0 2 1 3 3 3h62.002c1.998 0 2.998-1 2.998-3.005v-49.997c0-.998.079-1.922-1.025-2.991L162 118c-1.026-.995-2-1-3.016-1h-29.97C127 117 126 118 126 120.008zm3-.008h31.063L191 150v51h-62z" id="path7787" color="#000" font-weight="400" font-family="sans-serif" white-space="normal" overflow="visible" fill="url(#linearGradient7821)" stroke-width="2" paint-order="fill markers stroke"/><path style="line-height:normal;font-variant-ligatures:normal;font-variant-position:normal;font-variant-caps:normal;font-variant-numeric:normal;font-variant-alternates:normal;font-feature-settings:normal;text-indent:0;text-align:start;text-decoration-line:none;text-decoration-style:solid;text-decoration-color:#000;text-transform:none;text-orientation:mixed;shape-padding:0;isolation:auto;mix-blend-mode:normal" d="M128 119v83h64v-52l-32-31zm1 1h31l31 30v51h-62z" id="path8968" color="#000" font-weight="400" font-family="sans-serif" white-space="normal" overflow="visible" opacity=".398" fill="url(#linearGradient9054)" fill-rule="evenodd"/><path id="path3245-2" d="M143.846 158.475v7.54h1.366l.032-.598h.02c.439.492.878.703 1.597.703 1.356 0 2.253-1.226 2.253-2.755 0-1.477-.804-2.565-2.191-2.565-.74 0-1.178.22-1.658.701h-.02v-3.026zm-1.714.377a.804.804 0 0 0-.802.806c0 .45.353.807.802.807a.807.807 0 0 0 0-1.613zm-6.12.064v7.1h4.578v-1.08h-3.182v-6.02zm16.851 1.884c-.667.042-1.304.45-1.596 1.015h-.02l-.032-.91h-1.367v5.11h1.398v-1.927c0-1.026.187-1.392.51-1.622.282-.2.617-.284 1.076-.305zm3.034 0c-1.606 0-2.637 1.11-2.637 2.796 0 1.644 1.062 2.524 2.637 2.524.74 0 1.262-.117 1.752-.336l-.146-1.047a3.719 3.719 0 0 1-1.428.304c-.845 0-1.387-.387-1.44-1.183h3.307a3.76 3.76 0 0 0 .062-.703c0-1.267-.772-2.355-2.107-2.355zm-14.462.105v5.11h1.396v-5.11zm4.957.973c.834 0 1.25.597 1.25 1.57 0 .964-.406 1.593-1.23 1.593-.72 0-1.168-.567-1.168-1.467v-.23c0-.88.397-1.466 1.148-1.466zm9.36 0c.604 0 .885.492.906 1.016h-1.97c.104-.587.51-1.016 1.063-1.016z" style="-inkscape-font-specification:Vegur" font-weight="400" font-size="67.562" font-family="Vegur" fill="#18a303" stroke-width=".155"/><path id="path3255-0" d="M168.952 158.37c-1.24 0-1.95.807-1.95 2.252v.324h-.824v.671h.825v4.398h.876v-4.398h2.036v4.398h.877v-4.398h1.291v-.671h-1.291v-.46c0-.91.385-1.445 1.084-1.445.323 0 .53.052.729.125l.084-.648a2.64 2.64 0 0 0-.825-.148c-1.24 0-1.95.807-1.95 2.252v.324h-2.035v-.46c0-.91.386-1.445 1.084-1.445.324 0 .531.052.73.125l.083-.648a2.64 2.64 0 0 0-.824-.148zm-6.705.441c-1.877 0-3.42 1.372-3.42 3.655 0 2.282 1.543 3.654 3.42 3.654s3.419-1.372 3.419-3.654c0-2.283-1.542-3.655-3.419-3.655zm11.289.303a.54.54 0 0 0-.542.544.542.542 0 1 0 1.086 0 .54.54 0 0 0-.544-.544zm-11.289.41c1.397 0 2.46 1.046 2.46 2.942 0 1.895-1.063 2.942-2.46 2.942s-2.462-1.047-2.462-2.942c0-1.896 1.065-2.943 2.462-2.943zm15.373 1.317c-1.564 0-2.742.953-2.742 2.733 0 1.676 1.063 2.546 2.471 2.546.626 0 1.074-.074 1.585-.293l-.082-.672a3.288 3.288 0 0 1-1.346.294c-1.012 0-1.71-.638-1.71-1.989 0-1.277.76-1.948 1.751-1.948.522 0 .982.125 1.357.303l.082-.67a3.182 3.182 0 0 0-1.366-.304zm4.357 0c-1.408 0-2.44 1.173-2.44 2.733 0 1.717 1.032 2.546 2.44 2.546.626 0 1.095-.094 1.585-.293l-.082-.672c-.386.189-.94.294-1.378.294-1.011 0-1.669-.618-1.69-1.77h3.517c.02-.189.03-.344.03-.501 0-1.299-.678-2.337-1.982-2.337zm-8.879.105v5.07h.877v-5.07zm8.806.566c.772 0 1.19.64 1.19 1.477h-2.638c.125-.89.614-1.477 1.448-1.477z" style="-inkscape-font-specification:Vegur" font-weight="400" font-size="67.562" font-family="Vegur" fill-opacity=".74" stroke-width=".155"/><path id="path8019" d="M129 120v81h62v-51l-30.937-30zm1 1h30.063L190 150v50h-60z" style="line-height:normal;font-variant-ligatures:normal;font-variant-position:normal;font-variant-caps:normal;font-variant-numeric:normal;font-variant-alternates:normal;font-feature-settings:normal;text-indent:0;text-align:start;text-decoration-line:none;text-decoration-style:solid;text-decoration-color:#000;text-transform:none;text-orientation:mixed;shape-padding:0;isolation:auto;mix-blend-mode:normal" color="#000" font-weight="400" font-family="sans-serif" white-space="normal" overflow="visible" fill="#fff" fill-opacity=".969" fill-rule="evenodd"/></g></g></svg>