<svg xmlns:osb="http://www.openswatchbook.org/uri/2009/osb" xmlns="http://www.w3.org/2000/svg" xmlns:xlink="http://www.w3.org/1999/xlink" height="96" viewBox="0 0 96 96" width="96" id="svg2"><title id="title4675">Template icons dark</title><defs id="defs22"><linearGradient id="linearGradient9793"><stop offset="0" id="stop9789" stop-color="#fff" stop-opacity=".464"/><stop offset="1" id="stop9791" stop-color="#f6f6f6" stop-opacity=".219"/></linearGradient><linearGradient id="linearGradient9499"><stop offset="0" id="stop9495" stop-opacity=".297"/><stop offset="1" id="stop9497" stop-opacity=".078"/></linearGradient><linearGradient id="linearGradient9422" osb:paint="solid"><stop offset="0" id="stop9420" stop-color="#42ec81"/></linearGradient><linearGradient id="linearGradient9052"><stop offset="0" id="stop9048" stop-opacity=".411"/><stop offset="1" id="stop9050" stop-opacity=".516"/></linearGradient><linearGradient id="linearGradient7833"><stop offset="0" id="stop7829" stop-color="#fff" stop-opacity=".057"/><stop offset="1" id="stop7831" stop-color="#fff" stop-opacity=".13"/></linearGradient><linearGradient id="linearGradient7827"><stop id="stop7823" offset="0" stop-color="#42ec81"/><stop id="stop7825" offset="1" stop-color="#3add5c"/></linearGradient><linearGradient xlink:href="#linearGradient7827" id="linearGradient7785" x1="160" y1="137" x2="160" y2="188" gradientUnits="userSpaceOnUse"/><linearGradient gradientTransform="translate(-35.934 -35.408) scale(.7191)" xlink:href="#linearGradient7827" id="linearGradient7785-2" x1="160" y1="137" x2="160" y2="188" gradientUnits="userSpaceOnUse"/><linearGradient gradientTransform="translate(-35.934 -35.408) scale(.7191)" xlink:href="#linearGradient7833" id="linearGradient7835-3" x1="178" y1="117" x2="193.205" y2="136.848" gradientUnits="userSpaceOnUse"/><linearGradient xlink:href="#linearGradient9052" id="linearGradient9054" x1="160" y1="119" x2="160" y2="201.575" gradientUnits="userSpaceOnUse"/><linearGradient xlink:href="#linearGradient9422" id="linearGradient9424" x1="172" y1="128" x2="194" y2="128" gradientUnits="userSpaceOnUse"/><linearGradient xlink:href="#linearGradient9499" id="linearGradient9501" x1="160" y1="204" x2="160" y2="119" gradientUnits="userSpaceOnUse"/><linearGradient xlink:href="#linearGradient9499" id="linearGradient9719" gradientUnits="userSpaceOnUse" x1="75.591" y1="110.653" x2="75.591" y2="48"/><linearGradient xlink:href="#linearGradient9499" id="linearGradient9730" gradientUnits="userSpaceOnUse" x1="21" y1="47.457" x2="21" y2="2"/><linearGradient xlink:href="#linearGradient9793" id="linearGradient9795" x1="-64" y1="-57" x2="-64" y2="-71" gradientUnits="userSpaceOnUse"/><linearGradient xlink:href="#linearGradient9793" id="linearGradient9834" gradientUnits="userSpaceOnUse" x1="-44.031" y1="-34" x2="-44.031" y2="-54"/><linearGradient gradientTransform="translate(100 98)" xlink:href="#linearGradient9052" id="linearGradient9054-3" x1="160" y1="119" x2="160" y2="201.575" gradientUnits="userSpaceOnUse"/><linearGradient xlink:href="#linearGradient7833" id="linearGradient8964" gradientUnits="userSpaceOnUse" x1="178" y1="117" x2="192.559" y2="135.911"/><linearGradient xlink:href="#linearGradient7827" id="linearGradient9991" gradientUnits="userSpaceOnUse" x1="273.449" y1="218.045" x2="273.449" y2="328"/><linearGradient xlink:href="#linearGradient9499" id="linearGradient10016" gradientUnits="userSpaceOnUse" x1="272" y1="328.693" x2="272" y2="214.425"/><linearGradient xlink:href="#linearGradient9052" id="linearGradient7937" gradientUnits="userSpaceOnUse" x1="79.843" y1="50.497" x2="79.843" y2="108"/><linearGradient xlink:href="#linearGradient9422" id="linearGradient7901" gradientUnits="userSpaceOnUse" x1="172" y1="128" x2="194" y2="128" gradientTransform="translate(30)"/><linearGradient id="linearGradient9422-3" osb:paint="solid"><stop offset="0" id="stop9420-5" stop-color="#a3bfcf"/></linearGradient><linearGradient id="linearGradient7827-6"><stop id="stop7823-2" offset="0" stop-color="#a3bfcf"/><stop id="stop7825-9" offset="1" stop-color="#6d8aa9"/></linearGradient><linearGradient xlink:href="#linearGradient7827" id="linearGradient7958" gradientUnits="userSpaceOnUse" gradientTransform="translate(-35.934 -35.408) scale(.7191)" x1="84.879" y1="54.801" x2="84.879" y2="107.36"/><linearGradient xlink:href="#linearGradient7827" id="linearGradient7958-3" gradientUnits="userSpaceOnUse" gradientTransform="translate(-43.934 -37.408) scale(.7191)" x1="84.879" y1="54.801" x2="84.879" y2="107.36"/><linearGradient xlink:href="#linearGradient7827" id="linearGradient7997" gradientUnits="userSpaceOnUse" gradientTransform="translate(-35.934 -35.408) scale(.7191)" x1="27.721" y1="7.52" x2="27.721" y2="46.457"/><linearGradient xlink:href="#linearGradient9422" id="linearGradient7901-2" gradientUnits="userSpaceOnUse" x1="172" y1="128" x2="194" y2="128" gradientTransform="translate(13 30)"/><style id="style51071-8">.str0{stroke:#1f1a17;stroke-width:3}.fil0{fill:none}</style><style id="style2031-6">.str0{stroke:#1f1a17;stroke-width:.0762}.fil0,.fil1{fill:none}.fil1{fill-rule:nonzero}</style><style id="style5368-2">.str0,.str1{stroke:#000;stroke-width:63}.str1{stroke:#09098f}.fil5{fill:none}.fil1,.fil2{fill:#000}.fil3{fill:#4d66cc}.fil0{fill:#576ecd}.fil4{fill:#89a1d4}</style><style id="style51071">.str0{stroke:#1f1a17;stroke-width:3}.fil0{fill:none}</style><style id="style2031">.str0{stroke:#1f1a17;stroke-width:.0762}.fil0,.fil1{fill:none}.fil1{fill-rule:nonzero}</style><style id="style5368">.str0,.str1{stroke:#000;stroke-width:63}.str1{stroke:#09098f}.fil5{fill:none}.fil1,.fil2{fill:#000}.fil3{fill:#4d66cc}.fil0{fill:#576ecd}.fil4{fill:#89a1d4}</style></defs><g id="g8840" transform="translate(-112 -112)"><g id="g8838"><g id="g9013" fill-rule="evenodd"><path id="path9007" d="M192.01 116H169l26 26v-22.965c0-2.035-1-3.035-2.99-3.035z" style="marker:none" fill-opacity=".157" stroke-width=".217" paint-order="fill markers stroke"/><path d="M191.009 117H172l22 22v-18.985c0-2.015-1-3.015-2.991-3.015z" id="path9009" fill="url(#linearGradient9424)"/><path id="path9011" d="M172 117l22 22v-19.007c0-1.993-1-2.993-3.035-2.993zm3 1h18v18z" style="line-height:normal;font-variant-ligatures:normal;font-variant-position:normal;font-variant-caps:normal;font-variant-numeric:normal;font-variant-alternates:normal;font-feature-settings:normal;text-indent:0;text-align:start;text-decoration-line:none;text-decoration-style:solid;text-decoration-color:#000;text-transform:none;text-orientation:mixed;shape-padding:0;isolation:auto;mix-blend-mode:normal" color="#000" font-weight="400" font-family="sans-serif" white-space="normal" overflow="visible" fill="#fff" fill-opacity=".235"/></g><path id="path7759" d="M127.994 116h32.009c.997 0 1.998 0 3.03 1.032L193 147c1 1 2 2 2.023 3.056l-.022 51.954c0 1.99-1.001 2.99-3.04 2.99h-63.955C126 205 125 204 125 202.013v-83.006c0-2.007 1-3.007 2.994-3.007z" style="isolation:auto;mix-blend-mode:normal;marker:none" color="#000" display="block" overflow="visible" fill-opacity=".157" stroke-width=".217" paint-order="fill markers stroke"/><path style="isolation:auto;mix-blend-mode:normal;marker:none" d="M129 117h29.995c1.005 0 1.983-.022 3.005 1l30.999 30.03C194 149.03 194 150 194 151.013v49.964c0 2.023-1 3.023-2.97 3.023H129c-2 0-3-1-3-2.98V120c0-2.019 1-3 3-3z" id="rect7756" color="#000" display="block" overflow="visible" fill="url(#linearGradient7785)" stroke-width=".201" paint-order="fill markers stroke"/><path style="line-height:normal;font-variant-ligatures:normal;font-variant-position:normal;font-variant-caps:normal;font-variant-numeric:normal;font-variant-alternates:normal;font-feature-settings:normal;text-indent:0;text-align:start;text-decoration-line:none;text-decoration-style:solid;text-decoration-color:#000;text-transform:none;text-orientation:mixed;shape-padding:0;isolation:auto;mix-blend-mode:normal;marker:none" d="M126 120.008V201c0 2 1 3 3 3h62.002c1.998 0 2.998-1 2.998-3.005v-49.997c0-.998.079-1.922-1.025-2.991L162 118c-1.026-.995-2-1-3.016-1h-29.97C127 117 126 118 126 120.008zm3-.008h31.063L191 150v51h-62z" id="path7787" color="#000" font-weight="400" font-family="sans-serif" white-space="normal" overflow="visible" fill="url(#linearGradient9501)" stroke-width=".201" paint-order="fill markers stroke"/><path style="line-height:normal;font-variant-ligatures:normal;font-variant-position:normal;font-variant-caps:normal;font-variant-numeric:normal;font-variant-alternates:normal;font-feature-settings:normal;text-indent:0;text-align:start;text-decoration-line:none;text-decoration-style:solid;text-decoration-color:#000;text-transform:none;text-orientation:mixed;shape-padding:0;isolation:auto;mix-blend-mode:normal" d="M128 119v83h64v-52l-32-31zm1 1h31l31 30v51h-62z" id="path8968" color="#000" font-weight="400" font-family="sans-serif" white-space="normal" overflow="visible" opacity=".398" fill="url(#linearGradient9054)" fill-rule="evenodd"/><path style="isolation:auto;mix-blend-mode:normal;marker:none" d="M141 185v-1c0-.554.446-1 1-1h8c.554 0 1 .446 1 1v1c0 .554-.446 1-1 1h-8c-.554 0-1-.446-1-1z" id="rect7802" color="#000" display="block" overflow="visible" fill-opacity=".208" stroke-width=".026"/><path style="isolation:auto;mix-blend-mode:normal;marker:none" d="M141 184v-18c0-.554.446-1 1-1h8c.554 0 1 .446 1 1v18c0 .554-.446 1-1 1h-8c-.554 0-1-.446-1-1z" id="rect7792-6" color="#000" display="block" overflow="visible" fill="#fff" fill-opacity=".979" stroke-width=".021"/><path style="isolation:auto;mix-blend-mode:normal;marker:none" d="M155 184.999V184a1 1 0 0 1 1.001-1.001H164a1 1 0 0 1 1.001 1.001V185a1 1 0 0 1-1.001 1.001H156a1 1 0 0 1-1.001-1.001z" id="rect8144" color="#000" display="block" overflow="visible" fill-opacity=".208" stroke-width=".026"/><path style="isolation:auto;mix-blend-mode:normal;marker:none" d="M155 184v-26c0-.554.446-1 1-1h8c.554 0 1 .446 1 1v26c0 .554-.446 1-1 1h-8c-.554 0-1-.446-1-1z" id="rect8146" color="#000" display="block" overflow="visible" fill="#fff" fill-opacity=".979" stroke-width=".021"/><path style="isolation:auto;mix-blend-mode:normal;marker:none" d="M170 185v-1c0-.554.446-1 1-1h8c.554 0 1 .446 1 1v1c0 .554-.446 1-1 1h-8c-.554 0-1-.446-1-1z" id="rect8148" color="#000" display="block" overflow="visible" fill-opacity=".208" stroke-width=".026"/><path style="isolation:auto;mix-blend-mode:normal;marker:none" d="M170 184v-34c0-.554.446-1 1-1h8c.554 0 1 .446 1 1v34c0 .554-.446 1-1 1h-8c-.554 0-1-.446-1-1z" id="rect8150" color="#000" display="block" overflow="visible" fill="#fafafa" stroke-width=".021"/><path id="path8019" d="M129 120v81h62v-51l-30.937-30zm1 1h30.063L190 150v50h-60z" style="line-height:normal;font-variant-ligatures:normal;font-variant-position:normal;font-variant-caps:normal;font-variant-numeric:normal;font-variant-alternates:normal;font-feature-settings:normal;text-indent:0;text-align:start;text-decoration-line:none;text-decoration-style:solid;text-decoration-color:#000;text-transform:none;text-orientation:mixed;shape-padding:0;isolation:auto;mix-blend-mode:normal" color="#000" font-weight="400" font-family="sans-serif" white-space="normal" overflow="visible" fill="#fff" fill-opacity=".251" fill-rule="evenodd"/></g></g></svg>