<svg xmlns:osb="http://www.openswatchbook.org/uri/2009/osb" xmlns="http://www.w3.org/2000/svg" xmlns:xlink="http://www.w3.org/1999/xlink" height="96" viewBox="0 0 96 96" width="96" id="svg2"><title id="title4675">Template icons dark</title><defs id="defs22"><linearGradient id="linearGradient7995"><stop id="stop7991" offset="0" stop-color="#fff" stop-opacity=".057"/><stop id="stop7993" offset="1" stop-color="#fff" stop-opacity=".635"/></linearGradient><linearGradient id="linearGradient9793"><stop offset="0" id="stop9789" stop-color="#fff" stop-opacity=".464"/><stop offset="1" id="stop9791" stop-color="#f6f6f6" stop-opacity=".219"/></linearGradient><linearGradient id="linearGradient9499"><stop offset="0" id="stop9495" stop-opacity=".297"/><stop offset="1" id="stop9497" stop-opacity=".078"/></linearGradient><linearGradient id="linearGradient9422" osb:paint="solid"><stop offset="0" id="stop9420" stop-color="#a3bfcf"/></linearGradient><linearGradient id="linearGradient9052"><stop offset="0" id="stop9048" stop-opacity=".411"/><stop offset="1" id="stop9050" stop-opacity=".516"/></linearGradient><linearGradient id="linearGradient7827"><stop id="stop7823" offset="0" stop-color="#a3bfcf"/><stop id="stop7825" offset="1" stop-color="#6d8aa9"/></linearGradient><linearGradient xlink:href="#linearGradient7827" id="linearGradient7785" x1="160" y1="137" x2="160" y2="188" gradientUnits="userSpaceOnUse"/><linearGradient gradientTransform="translate(-35.934 -35.408) scale(.7191)" xlink:href="#linearGradient7827" id="linearGradient7785-2" x1="160" y1="137" x2="160" y2="188" gradientUnits="userSpaceOnUse"/><linearGradient xlink:href="#linearGradient9052" id="linearGradient9054" x1="160" y1="119" x2="160" y2="201.575" gradientUnits="userSpaceOnUse"/><linearGradient xlink:href="#linearGradient9422" id="linearGradient9424" x1="172" y1="128" x2="194" y2="128" gradientUnits="userSpaceOnUse"/><linearGradient xlink:href="#linearGradient9499" id="linearGradient9501" x1="160" y1="204" x2="160" y2="119" gradientUnits="userSpaceOnUse"/><linearGradient xlink:href="#linearGradient9499" id="linearGradient9719" gradientUnits="userSpaceOnUse" x1="75.591" y1="110.653" x2="75.591" y2="48"/><linearGradient xlink:href="#linearGradient9499" id="linearGradient9730" gradientUnits="userSpaceOnUse" x1="21" y1="47.457" x2="21" y2="2"/><linearGradient xlink:href="#linearGradient9793" id="linearGradient9795" x1="-64" y1="-57" x2="-64" y2="-71" gradientUnits="userSpaceOnUse"/><linearGradient xlink:href="#linearGradient9793" id="linearGradient9834" gradientUnits="userSpaceOnUse" x1="-44.031" y1="-34" x2="-44.031" y2="-54"/><linearGradient gradientTransform="translate(100 98)" xlink:href="#linearGradient9052" id="linearGradient9054-3" x1="160" y1="119" x2="160" y2="201.575" gradientUnits="userSpaceOnUse"/><linearGradient xlink:href="#linearGradient7995" id="linearGradient8964" gradientUnits="userSpaceOnUse" x1="192.576" y1="117.256" x2="192.576" y2="136.349"/><linearGradient xlink:href="#linearGradient7827" id="linearGradient9991" gradientUnits="userSpaceOnUse" x1="273.449" y1="218.045" x2="273.449" y2="328"/><linearGradient xlink:href="#linearGradient9499" id="linearGradient10016" gradientUnits="userSpaceOnUse" x1="272" y1="328.693" x2="272" y2="214.425"/><linearGradient xlink:href="#linearGradient7827" id="linearGradient8207" gradientUnits="userSpaceOnUse" gradientTransform="translate(-35.934 -35.408) scale(.7191)" x1="86.127" y1="50.629" x2="86.127" y2="112.39"/><linearGradient xlink:href="#linearGradient7827" id="linearGradient8285" gradientUnits="userSpaceOnUse" gradientTransform="translate(-35.934 -35.408) scale(.7191)" x1="28.947" y1="7.52" x2="28.947" y2="46.457"/><linearGradient xlink:href="#linearGradient7827" id="linearGradient8287" gradientUnits="userSpaceOnUse" gradientTransform="translate(-35.934 -35.408) scale(.7191)" x1="-11.217" y1="-25.855" x2="-11.217" y2="1.957"/><linearGradient xlink:href="#linearGradient9052" id="linearGradient7937" gradientUnits="userSpaceOnUse" x1="79.843" y1="50.497" x2="79.843" y2="108"/><style id="style51071-8">.str0{stroke:#1f1a17;stroke-width:3}.fil0{fill:none}</style><style id="style2031-6">.str0{stroke:#1f1a17;stroke-width:.0762}.fil0,.fil1{fill:none}.fil1{fill-rule:nonzero}</style><style id="style5368-2">.str0,.str1{stroke:#000;stroke-width:63}.str1{stroke:#09098f}.fil5{fill:none}.fil1,.fil2{fill:#000}.fil3{fill:#4d66cc}.fil0{fill:#576ecd}.fil4{fill:#89a1d4}</style><style id="style51071">.str0{stroke:#1f1a17;stroke-width:3}.fil0{fill:none}</style><style id="style2031">.str0{stroke:#1f1a17;stroke-width:.0762}.fil0,.fil1{fill:none}.fil1{fill-rule:nonzero}</style><style id="style5368">.str0,.str1{stroke:#000;stroke-width:63}.str1{stroke:#09098f}.fil5{fill:none}.fil1,.fil2{fill:#000}.fil3{fill:#4d66cc}.fil0{fill:#576ecd}.fil4{fill:#89a1d4}</style></defs><g id="g8840" transform="translate(-112 -112)"><g id="g8838"><g id="g9013" fill-rule="evenodd"><path id="path9007" d="M192.01 116H169l26 26v-22.965c0-2.035-1-3.035-2.99-3.035z" style="marker:none" fill-opacity=".157" stroke-width=".217" paint-order="fill markers stroke"/><path d="M191.009 117H172l22 22v-18.985c0-2.015-1-3.015-2.991-3.015z" id="path9009" fill="url(#linearGradient9424)"/><path id="path9011" d="M172 117l22 22v-19.007c0-1.993-1-2.993-3.035-2.993zm3 1h18v18z" style="line-height:normal;font-variant-ligatures:normal;font-variant-position:normal;font-variant-caps:normal;font-variant-numeric:normal;font-variant-alternates:normal;font-feature-settings:normal;text-indent:0;text-align:start;text-decoration-line:none;text-decoration-style:solid;text-decoration-color:#000;text-transform:none;text-orientation:mixed;shape-padding:0;isolation:auto;mix-blend-mode:normal" color="#000" font-weight="400" font-family="sans-serif" white-space="normal" overflow="visible" fill="#fff" fill-opacity=".313"/></g><path id="path7759" d="M127.994 116h32.009c.997 0 1.998 0 3.03 1.032L193 147c1 1 2 2 2.023 3.056l-.022 51.954c0 1.99-1.001 2.99-3.04 2.99h-63.955C126 205 125 204 125 202.013v-83.006c0-2.007 1-3.007 2.994-3.007z" style="isolation:auto;mix-blend-mode:normal;marker:none" color="#000" display="block" overflow="visible" fill-opacity=".157" stroke-width=".217" paint-order="fill markers stroke"/><path style="isolation:auto;mix-blend-mode:normal;marker:none" d="M129 117h29.995c1.005 0 1.983-.022 3.005 1l30.999 30.03C194 149.03 194 150 194 151.013v49.964c0 2.023-1 3.023-2.97 3.023H129c-2 0-3-1-3-2.98V120c0-2.019 1-3 3-3z" id="rect7756" color="#000" display="block" overflow="visible" fill="url(#linearGradient7785)" stroke-width=".201" paint-order="fill markers stroke"/><path style="line-height:normal;font-variant-ligatures:normal;font-variant-position:normal;font-variant-caps:normal;font-variant-numeric:normal;font-variant-alternates:normal;font-feature-settings:normal;text-indent:0;text-align:start;text-decoration-line:none;text-decoration-style:solid;text-decoration-color:#000;text-transform:none;text-orientation:mixed;shape-padding:0;isolation:auto;mix-blend-mode:normal;marker:none" d="M126 120.008V201c0 2 1 3 3 3h62.002c1.998 0 2.998-1 2.998-3.005v-49.997c0-.998.079-1.922-1.025-2.991L162 118c-1.026-.995-2-1-3.016-1h-29.97C127 117 126 118 126 120.008zm3-.008h31.063L191 150v51h-62z" id="path7787" color="#000" font-weight="400" font-family="sans-serif" white-space="normal" overflow="visible" fill="url(#linearGradient9501)" stroke-width=".201" paint-order="fill markers stroke"/><path style="line-height:normal;font-variant-ligatures:normal;font-variant-position:normal;font-variant-caps:normal;font-variant-numeric:normal;font-variant-alternates:normal;font-feature-settings:normal;text-indent:0;text-align:start;text-decoration-line:none;text-decoration-style:solid;text-decoration-color:#000;text-transform:none;text-orientation:mixed;shape-padding:0;isolation:auto;mix-blend-mode:normal" d="M128 119v83h64v-52l-32-31zm1 1h31l31 30v51h-62z" id="path8968" color="#000" font-weight="400" font-family="sans-serif" white-space="normal" overflow="visible" opacity=".398" fill="url(#linearGradient9054)" fill-rule="evenodd"/><path id="path8019" d="M129 120v81h62v-51l-30.937-30zm1 1h30.063L190 150v50h-60z" style="line-height:normal;font-variant-ligatures:normal;font-variant-position:normal;font-variant-caps:normal;font-variant-numeric:normal;font-variant-alternates:normal;font-feature-settings:normal;text-indent:0;text-align:start;text-decoration-line:none;text-decoration-style:solid;text-decoration-color:#000;text-transform:none;text-orientation:mixed;shape-padding:0;isolation:auto;mix-blend-mode:normal" color="#000" font-weight="400" font-family="sans-serif" white-space="normal" overflow="visible" fill="#fff" fill-opacity=".235" fill-rule="evenodd"/><path id="path7869-6" d="M138 148h44.016L182 179h-44z" style="isolation:auto;mix-blend-mode:normal;marker:none" color="#000" display="block" overflow="visible" fill="#222c55" fill-opacity=".229" stroke-width=".265" stroke-opacity=".385"/><path id="path7875-2" d="M138 148v41h44l.016-41zm1 2h42v29h-42zm0 30h42v7h-42z" style="isolation:auto;mix-blend-mode:normal;marker:none" color="#000" overflow="visible" fill="#1a3e7b" fill-opacity=".51" stroke-width=".687"/><path style="isolation:auto;mix-blend-mode:normal;marker:none" d="M138 148v40h44l.016-40zm1 1h42v29h-42zm0 30h42v8h-42z" id="rect7853-9" color="#000" overflow="visible" fill="#fff" stroke-width=".287" stroke-opacity=".385"/><path id="path8086" d="M156 157l-7 13-4-8-3 4 1 1 2-2 4 9 8-15h20v1h1v-3zm6 4l-1 1 5 5-5 5 1 1 5-5 5 5 1-1-5-5 5-5-1-1-5 5z" style="marker:none" fill="#1a3e7b" fill-opacity=".51" fill-rule="evenodd" stroke-width=".687"/><path d="M156 156l-7 13-4-8-3 4 1 1 2-2 4 9 8-15h20v1h1v-3zm6 4l-1 1 5 5-5 5 1 1 5-5 5 5 1-1-5-5 5-5-1-1-5 5z" id="path7855-2" fill="#f8fafb" fill-rule="evenodd" stroke-width=".687"/><path id="path7895-7" d="M164.445 181.195c-.417 0-.696.061-.839.185-.14.122-.21.37-.21.74v.602c0 .25-.047.422-.137.52-.089.095-.252.143-.491.143h-.153v.358h.153c.237 0 .4.05.49.146.091.097.138.272.138.525v.6c0 .37.07.617.21.74.143.124.422.187.839.187h.156v-.362h-.17c-.237 0-.392-.037-.464-.11-.072-.074-.107-.229-.107-.465v-.622c0-.261-.037-.452-.113-.57-.075-.12-.206-.2-.392-.246.185-.042.314-.123.39-.242.077-.118.115-.31.115-.573v-.622c0-.236.035-.39.107-.464.072-.074.227-.11.463-.11h.17v-.36zm4.487 0v.36h.176c.234 0 .386.036.456.11.072.072.109.226.109.464v.622c0 .263.037.455.113.573.075.12.206.2.391.242-.185.045-.316.127-.391.246-.076.118-.113.309-.113.57v.622c0 .24-.037.395-.109.467-.07.072-.222.108-.456.108h-.176v.362h.158c.417 0 .695-.063.834-.186.14-.124.21-.371.21-.741v-.6c0-.253.046-.428.136-.525.09-.097.255-.146.492-.146h.156v-.358h-.156c-.237 0-.402-.048-.492-.144-.09-.097-.136-.27-.136-.519v-.603c0-.37-.07-.617-.21-.739-.14-.124-.417-.185-.834-.185zm-10.14.297v.798h-.338v.358h.338v1.527c0 .352.068.595.204.729.135.132.381.198.738.198h.475v-.386h-.475c-.193 0-.32-.033-.384-.098-.062-.065-.093-.214-.093-.443v-1.527h.952v-.358h-.952v-.799zm-7.163.73c-.345 0-.612.071-.8.216-.187.143-.28.348-.28.613 0 .217.063.39.19.515.128.124.334.215.62.275l.161.038c.287.062.472.127.556.194a.344.344 0 0 1 .127.289.357.357 0 0 1-.175.316c-.118.074-.285.11-.502.11-.163 0-.327-.022-.493-.065a2.556 2.556 0 0 1-.504-.202V185c.18.059.353.102.515.13.164.03.32.046.471.046.362 0 .646-.076.852-.228a.728.728 0 0 0 .311-.62c0-.23-.07-.408-.209-.536-.137-.129-.37-.229-.698-.299l-.158-.035c-.248-.055-.412-.113-.494-.173a.301.301 0 0 1-.123-.253c0-.141.056-.247.17-.317.116-.07.289-.105.518-.105a1.806 1.806 0 0 1 .843.2v-.436a2.048 2.048 0 0 0-.416-.114 2.93 2.93 0 0 0-.482-.038zm2.736 0c-.34 0-.616.136-.83.407-.213.272-.32.628-.32 1.07 0 .442.107.798.32 1.07.214.27.49.406.83.406a1.1 1.1 0 0 0 .533-.12.967.967 0 0 0 .369-.375v1.492h.461v-3.882h-.461v.427a.949.949 0 0 0-.37-.372 1.08 1.08 0 0 0-.532-.124zm3.709 0c-.223 0-.412.042-.568.126a.939.939 0 0 0-.378.38v-.438h-.464v2.812h.464v-1.481c0-.318.07-.562.208-.731.14-.171.341-.257.602-.257a.84.84 0 0 1 .202.023.58.58 0 0 1 .17.066l-.003-.475a1.562 1.562 0 0 0-.233-.025zm7.412.068l1 1.34-1.092 1.472h.544l.819-1.105.819 1.105h.544l-1.07-1.443 1.018-1.37h-.545l-.746 1.003-.746-1.002zm-11.008.32c.244 0 .438.096.578.29.14.193.21.459.21.799s-.07.607-.21.8a.678.678 0 0 1-.578.29.675.675 0 0 1-.577-.29c-.14-.193-.208-.46-.208-.8s.069-.606.208-.799a.674.674 0 0 1 .577-.29z" style="line-height:1000%;marker:none" font-family="sans-serif" letter-spacing="0" word-spacing="0" fill="#1a3e7b" fill-opacity=".51" stroke-width=".687"/><path style="line-height:1000%" d="M164.445 180.81c-.417 0-.696.062-.839.186-.14.122-.21.37-.21.74v.602c0 .25-.047.422-.137.519-.089.095-.252.144-.491.144h-.153v.358h.153c.237 0 .4.049.49.146.091.097.138.272.138.525v.6c0 .37.07.616.21.74.143.124.422.187.839.187h.156v-.363h-.17c-.237 0-.392-.036-.464-.11-.072-.073-.107-.228-.107-.464v-.622c0-.262-.037-.452-.113-.57-.075-.12-.206-.201-.392-.246.185-.042.314-.123.39-.242.077-.119.115-.31.115-.573v-.622c0-.236.035-.391.107-.465.072-.073.227-.11.463-.11h.17v-.36zm4.487 0v.36h.176c.234 0 .386.037.456.11.072.072.109.227.109.465v.622c0 .263.037.454.113.573.075.119.206.2.391.242-.185.045-.316.126-.391.245-.076.12-.113.31-.113.57v.623c0 .24-.037.395-.109.467-.07.072-.222.107-.456.107h-.176v.363h.158c.417 0 .695-.063.834-.187.14-.124.21-.37.21-.74v-.6c0-.253.046-.428.136-.525.09-.097.255-.146.492-.146h.156V183h-.156c-.237 0-.402-.049-.492-.144-.09-.097-.136-.27-.136-.52v-.602c0-.37-.07-.617-.21-.74-.14-.123-.417-.184-.834-.184zm-10.14.297v.799h-.338v.358h.338v1.527c0 .351.068.595.204.729.135.132.381.198.738.198h.475v-.386h-.475c-.193 0-.32-.033-.384-.098-.062-.066-.093-.214-.093-.443v-1.527h.952v-.358h-.952v-.799zm-7.163.73c-.345 0-.612.072-.8.216-.187.144-.28.349-.28.613 0 .218.063.39.19.516.128.124.334.215.62.275l.161.037c.287.062.472.128.556.195a.344.344 0 0 1 .127.288.357.357 0 0 1-.175.317c-.118.074-.285.11-.502.11-.163 0-.327-.022-.493-.066a2.555 2.555 0 0 1-.504-.2v.477c.18.058.353.101.515.13.164.03.32.046.471.046.362 0 .646-.076.852-.229a.728.728 0 0 0 .311-.62c0-.229-.07-.408-.209-.535-.137-.129-.37-.229-.698-.3l-.158-.034c-.248-.055-.412-.113-.494-.173a.301.301 0 0 1-.123-.254c0-.14.056-.246.17-.316.116-.07.289-.105.518-.105a1.806 1.806 0 0 1 .843.2v-.436a2.048 2.048 0 0 0-.416-.114 2.93 2.93 0 0 0-.482-.038zm2.736 0c-.34 0-.616.137-.83.408-.213.271-.32.628-.32 1.07 0 .441.107.798.32 1.069.214.271.49.407.83.407a1.1 1.1 0 0 0 .533-.121.967.967 0 0 0 .369-.375v1.493h.461v-3.882h-.461v.426a.949.949 0 0 0-.37-.371 1.08 1.08 0 0 0-.532-.124zm3.709 0c-.223 0-.412.043-.568.126a.939.939 0 0 0-.378.38v-.437h-.464v2.812h.464v-1.481c0-.318.07-.562.208-.732.14-.17.341-.256.602-.256a.84.84 0 0 1 .202.023.58.58 0 0 1 .17.066l-.003-.475a1.562 1.562 0 0 0-.233-.026zm7.412.069l1 1.34-1.092 1.472h.544l.819-1.106.819 1.106h.544l-1.07-1.444 1.018-1.368h-.545l-.746 1.002-.746-1.002zm-11.008.319c.244 0 .438.097.578.291.14.193.21.459.21.799s-.07.606-.21.8a.678.678 0 0 1-.578.29.675.675 0 0 1-.577-.29c-.14-.194-.208-.46-.208-.8s.069-.606.208-.799a.674.674 0 0 1 .577-.291z" id="path7912-0" font-family="sans-serif" letter-spacing="0" word-spacing="0" fill="#fcfcfd" stroke-width=".321"/><path style="isolation:auto;mix-blend-mode:normal;marker:none" id="rect7943-9" color="#000" display="block" overflow="visible" fill="none" fill-opacity=".229" stroke="#fff" stroke-width=".4" stroke-dasharray="2.4,2.4" d="M159.13 159.13h16.739v16.739H159.13z"/><path id="rect7945-3" style="isolation:auto;mix-blend-mode:normal;marker:none" color="#000" display="block" overflow="visible" fill="none" fill-opacity=".229" stroke="#fff" stroke-width=".4" stroke-dasharray="2.4,2.4" d="M141.14 154.14h13.719v21.719H141.14z"/></g></g></svg>