<svg xmlns:osb="http://www.openswatchbook.org/uri/2009/osb" xmlns="http://www.w3.org/2000/svg" xmlns:xlink="http://www.w3.org/1999/xlink" height="96" viewBox="0 0 96 96" width="96" id="svg2"><title id="title4675">Template icons dark</title><defs id="defs22"><linearGradient id="linearGradient7995"><stop id="stop7991" offset="0" stop-color="#fff" stop-opacity=".057"/><stop id="stop7993" offset="1" stop-color="#fff" stop-opacity=".635"/></linearGradient><linearGradient id="linearGradient9793"><stop offset="0" id="stop9789" stop-color="#fff" stop-opacity=".464"/><stop offset="1" id="stop9791" stop-color="#f6f6f6" stop-opacity=".219"/></linearGradient><linearGradient id="linearGradient9499"><stop offset="0" id="stop9495" stop-opacity=".297"/><stop offset="1" id="stop9497" stop-opacity=".078"/></linearGradient><linearGradient id="linearGradient9422" osb:paint="solid"><stop offset="0" id="stop9420" stop-color="#ffe22c"/></linearGradient><linearGradient id="linearGradient9052"><stop offset="0" id="stop9048" stop-opacity=".411"/><stop offset="1" id="stop9050" stop-opacity=".516"/></linearGradient><linearGradient id="linearGradient7827"><stop id="stop7823" offset="0" stop-color="#f4d437"/><stop id="stop7825" offset="1" stop-color="#f2a200"/></linearGradient><linearGradient xlink:href="#linearGradient7827" id="linearGradient7785" x1="160" y1="137" x2="160" y2="188" gradientUnits="userSpaceOnUse"/><linearGradient gradientTransform="translate(-35.934 -35.408) scale(.7191)" xlink:href="#linearGradient7827" id="linearGradient7785-2" x1="160" y1="137" x2="160" y2="188" gradientUnits="userSpaceOnUse"/><linearGradient xlink:href="#linearGradient9052" id="linearGradient9054" x1="160" y1="119" x2="160" y2="201.575" gradientUnits="userSpaceOnUse"/><linearGradient xlink:href="#linearGradient9422" id="linearGradient9424" x1="172" y1="128" x2="194" y2="128" gradientUnits="userSpaceOnUse"/><linearGradient xlink:href="#linearGradient9499" id="linearGradient9501" x1="160" y1="204" x2="160" y2="119" gradientUnits="userSpaceOnUse"/><linearGradient xlink:href="#linearGradient9499" id="linearGradient9719" gradientUnits="userSpaceOnUse" x1="75.591" y1="110.653" x2="75.591" y2="48"/><linearGradient xlink:href="#linearGradient9499" id="linearGradient9730" gradientUnits="userSpaceOnUse" x1="21" y1="47.457" x2="21" y2="2"/><linearGradient xlink:href="#linearGradient9793" id="linearGradient9795" x1="-64" y1="-57" x2="-64" y2="-71" gradientUnits="userSpaceOnUse"/><linearGradient xlink:href="#linearGradient9793" id="linearGradient9834" gradientUnits="userSpaceOnUse" x1="-44.031" y1="-34" x2="-44.031" y2="-54"/><linearGradient gradientTransform="translate(100 98)" xlink:href="#linearGradient9052" id="linearGradient9054-3" x1="160" y1="119" x2="160" y2="201.575" gradientUnits="userSpaceOnUse"/><linearGradient xlink:href="#linearGradient7995" id="linearGradient8964" gradientUnits="userSpaceOnUse" x1="192.576" y1="117.256" x2="192.576" y2="136.349"/><linearGradient xlink:href="#linearGradient7827" id="linearGradient9991" gradientUnits="userSpaceOnUse" x1="273.449" y1="218.045" x2="273.449" y2="328"/><linearGradient xlink:href="#linearGradient9499" id="linearGradient10016" gradientUnits="userSpaceOnUse" x1="272" y1="328.693" x2="272" y2="214.425"/><linearGradient xlink:href="#linearGradient7827" id="linearGradient8207" gradientUnits="userSpaceOnUse" gradientTransform="translate(-35.934 -35.408) scale(.7191)" x1="86.127" y1="50.629" x2="86.127" y2="112.39"/><linearGradient xlink:href="#linearGradient7827" id="linearGradient8285" gradientUnits="userSpaceOnUse" gradientTransform="translate(-35.934 -35.408) scale(.7191)" x1="28.947" y1="7.52" x2="28.947" y2="46.457"/><linearGradient xlink:href="#linearGradient7827" id="linearGradient8287" gradientUnits="userSpaceOnUse" gradientTransform="translate(-35.934 -35.408) scale(.7191)" x1="-11.217" y1="-25.855" x2="-11.217" y2="1.957"/><linearGradient xlink:href="#linearGradient7827" id="linearGradient7872" gradientUnits="userSpaceOnUse" gradientTransform="translate(-35.934 -35.408) scale(.7191)" x1="160" y1="137" x2="160" y2="188"/><linearGradient gradientTransform="translate(-128 -119)" xlink:href="#linearGradient9052" id="linearGradient9054-2" x1="160" y1="119" x2="160" y2="201.575" gradientUnits="userSpaceOnUse"/><linearGradient xlink:href="#linearGradient9052" id="linearGradient7937" gradientUnits="userSpaceOnUse" x1="79.843" y1="50.497" x2="79.843" y2="108"/><style id="style51071-8">.str0{stroke:#1f1a17;stroke-width:3}.fil0{fill:none}</style><style id="style2031-6">.str0{stroke:#1f1a17;stroke-width:.0762}.fil0,.fil1{fill:none}.fil1{fill-rule:nonzero}</style><style id="style5368-2">.str0,.str1{stroke:#000;stroke-width:63}.str1{stroke:#09098f}.fil5{fill:none}.fil1,.fil2{fill:#000}.fil3{fill:#4d66cc}.fil0{fill:#576ecd}.fil4{fill:#89a1d4}</style><style id="style51071">.str0{stroke:#1f1a17;stroke-width:3}.fil0{fill:none}</style><style id="style2031">.str0{stroke:#1f1a17;stroke-width:.0762}.fil0,.fil1{fill:none}.fil1{fill-rule:nonzero}</style><style id="style5368">.str0,.str1{stroke:#000;stroke-width:63}.str1{stroke:#09098f}.fil5{fill:none}.fil1,.fil2{fill:#000}.fil3{fill:#4d66cc}.fil0{fill:#576ecd}.fil4{fill:#89a1d4}</style><symbol id="icon-object-group" viewBox="0 0 32 28"><title id="title15141">object-group</title><path d="M32 6h-2v16h2v6h-6v-2H6v2H0v-6h2V6H0V0h6v2h20V0h6v6zm-4-4v2h2V2h-2zM2 2v2h2V2H2zm2 24v-2H2v2h2zm22-2v-2h2V6h-2V4H6v2H4v16h2v2h20zm4 2v-2h-2v2h2zM20 10h6v12H12v-4H6V6h14v4zM8 16h10V8H8v8zm16 4v-8h-4v6h-6v2h10z" id="path15143"/></symbol></defs><g id="g8840" transform="translate(-112 -112)"><g id="g8838"><g id="g9013" fill-rule="evenodd"><path id="path9007" d="M192.01 116H169l26 26v-22.965c0-2.035-1-3.035-2.99-3.035z" style="marker:none" fill-opacity=".157" stroke-width=".217" paint-order="fill markers stroke"/><path d="M191.009 117H172l22 22v-18.985c0-2.015-1-3.015-2.991-3.015z" id="path9009" fill="url(#linearGradient9424)"/><path id="path9011" d="M172 117l22 22v-19.007c0-1.993-1-2.993-3.035-2.993zm3 1h18v18z" style="line-height:normal;font-variant-ligatures:normal;font-variant-position:normal;font-variant-caps:normal;font-variant-numeric:normal;font-variant-alternates:normal;font-feature-settings:normal;text-indent:0;text-align:start;text-decoration-line:none;text-decoration-style:solid;text-decoration-color:#000;text-transform:none;text-orientation:mixed;shape-padding:0;isolation:auto;mix-blend-mode:normal" color="#000" font-weight="400" font-family="sans-serif" white-space="normal" overflow="visible" fill="#fff" fill-opacity=".313"/></g><path id="path7759" d="M127.994 116h32.009c.997 0 1.998 0 3.03 1.032L193 147c1 1 2 2 2.023 3.056l-.022 51.954c0 1.99-1.001 2.99-3.04 2.99h-63.955C126 205 125 204 125 202.013v-83.006c0-2.007 1-3.007 2.994-3.007z" style="isolation:auto;mix-blend-mode:normal;marker:none" color="#000" display="block" overflow="visible" fill-opacity=".157" stroke-width=".217" paint-order="fill markers stroke"/><path style="isolation:auto;mix-blend-mode:normal;marker:none" d="M129 117h29.995c1.005 0 1.983-.022 3.005 1l30.999 30.03C194 149.03 194 150 194 151.013v49.964c0 2.023-1 3.023-2.97 3.023H129c-2 0-3-1-3-2.98V120c0-2.019 1-3 3-3z" id="rect7756" color="#000" display="block" overflow="visible" fill="url(#linearGradient7785)" stroke-width=".201" paint-order="fill markers stroke"/><path style="line-height:normal;font-variant-ligatures:normal;font-variant-position:normal;font-variant-caps:normal;font-variant-numeric:normal;font-variant-alternates:normal;font-feature-settings:normal;text-indent:0;text-align:start;text-decoration-line:none;text-decoration-style:solid;text-decoration-color:#000;text-transform:none;text-orientation:mixed;shape-padding:0;isolation:auto;mix-blend-mode:normal;marker:none" d="M126 120.008V201c0 2 1 3 3 3h62.002c1.998 0 2.998-1 2.998-3.005v-49.997c0-.998.079-1.922-1.025-2.991L162 118c-1.026-.995-2-1-3.016-1h-29.97C127 117 126 118 126 120.008zm3-.008h31.063L191 150v51h-62z" id="path7787" color="#000" font-weight="400" font-family="sans-serif" white-space="normal" overflow="visible" fill="url(#linearGradient9501)" stroke-width=".201" paint-order="fill markers stroke"/><path style="line-height:normal;font-variant-ligatures:normal;font-variant-position:normal;font-variant-caps:normal;font-variant-numeric:normal;font-variant-alternates:normal;font-feature-settings:normal;text-indent:0;text-align:start;text-decoration-line:none;text-decoration-style:solid;text-decoration-color:#000;text-transform:none;text-orientation:mixed;shape-padding:0;isolation:auto;mix-blend-mode:normal" d="M128 119v83h64v-52l-32-31zm1 1h31l31 30v51h-62z" id="path8968" color="#000" font-weight="400" font-family="sans-serif" white-space="normal" overflow="visible" opacity=".398" fill="url(#linearGradient9054)" fill-rule="evenodd"/><path id="path8019" d="M129 120v81h62v-51l-30.937-30zm1 1h30.063L190 150v50h-60z" style="line-height:normal;font-variant-ligatures:normal;font-variant-position:normal;font-variant-caps:normal;font-variant-numeric:normal;font-variant-alternates:normal;font-feature-settings:normal;text-indent:0;text-align:start;text-decoration-line:none;text-decoration-style:solid;text-decoration-color:#000;text-transform:none;text-orientation:mixed;shape-padding:0;isolation:auto;mix-blend-mode:normal" color="#000" font-weight="400" font-family="sans-serif" white-space="normal" overflow="visible" fill="#fff" fill-opacity=".235" fill-rule="evenodd"/><path id="path7816" d="M183 154h-3v27h3v7h-7v-3h-32v3h-7v-7h3v-27h-3v-7h7v3h32v-3h7zm-5.93-6l-.07 5h5v-5zM138 148v5h5v-5zm5 39v-5h-5v5zm-2-33v27h3v3h32v-3h2.96l.04-27h-3v-3h-32v3zm41 33v-5h-5v5zm-16-31v7h9v16h-20v-5h-10v-18zm-19 16h17v-14h-17zm26 5v-12h-7v9.024l-9-.024v3z" fill="#642009" fill-opacity=".464" stroke-width="1.563"/><path d="M183 153h-3v27h3v7h-7v-3h-32v3h-7v-7h3v-27h-3v-7h7v3h32v-3h7zm-5.93-6l-.07 5h5v-5zM138 147v5h5v-5zm5 39v-5h-5v5zm-2-33v27h3v3h32v-3h2.96l.04-27h-3v-3h-32v3zm41 33v-5h-5v5zm-16-31v7h9v16h-20v-5h-10v-18zm-19 16h17v-14h-17zm26 5v-12h-7v9.024l-9-.024v3z" id="path30419" fill="#fefefe" stroke-width="1.563"/></g></g></svg>