<svg xmlns="http://www.w3.org/2000/svg" xmlns:xlink="http://www.w3.org/1999/xlink" height="96" viewBox="0 0 96 96" width="96"><title>Template icons dark</title><defs><linearGradient id="h"><stop offset="0" stop-color="#2aa591"/><stop offset="1" stop-color="#2498e4"/></linearGradient><linearGradient id="g"><stop offset="0" stop-color="#eeda60"/><stop offset="1" stop-color="#db9918"/></linearGradient><linearGradient id="b"><stop offset="0" stop-color="#2a0ff3" stop-opacity=".132"/><stop offset=".521" stop-color="#3bf963" stop-opacity=".291"/><stop offset="1" stop-color="#ef4cff" stop-opacity=".297"/></linearGradient><linearGradient gradientTransform="matrix(2.09824 0 0 2.09824 109.705 109.705)" xlink:href="#a" id="i" x1="9.196" y1="4.43" x2="37.228" y2="44" gradientUnits="userSpaceOnUse"/><linearGradient id="a"><stop offset="0" stop-color="#e1e3e7"/><stop offset=".21" stop-color="#dee1e4"/><stop offset=".38" stop-color="#f1f2f3"/><stop offset=".67" stop-color="#c2c6cd"/><stop offset="1" stop-color="#d7dadf"/></linearGradient><linearGradient id="c"><stop offset="0" stop-color="#fff"/><stop offset="1" stop-color="#fff" stop-opacity="0"/></linearGradient><linearGradient id="d"><stop offset="0"/><stop offset="1" stop-opacity="0"/></linearGradient><linearGradient id="e"><stop offset="0" stop-color="#babdb6"/><stop offset="1" stop-color="#fff"/></linearGradient><linearGradient id="f"><stop offset="0" stop-color="#888a85"/><stop offset="1" stop-color="#555753"/></linearGradient><linearGradient xlink:href="#g" id="j" x1="160.063" y1="200" x2="160" y2="196.534" gradientUnits="userSpaceOnUse"/></defs><path d="M14.047 4L14 92h17.055L34 89h28l3 3h17l.079-88z" fill-opacity=".104" stroke-width="2.191" stroke-opacity=".24"/><path d="M15 5v86h16.055L36 84h23.977L65 91h16V5z" fill="#565e66" stroke-width="2.098" stroke-opacity=".24"/><path d="M128 118v84h15l5.026-6h23.951l5.023 6h15v-84z" fill="url(#i)" stroke-width="2.098" stroke-opacity=".24" transform="translate(-112 -112)"/><path d="M36 84l-3.329 4h30.652l-3.346-4z" fill="#6c7587" fill-rule="evenodd" stroke-width="2.098"/><path style="isolation:auto;mix-blend-mode:normal;marker:none" d="M148 196v4h2v-4zm4.008 0v4h2.006v-4zm3.992 0v4h2v-4zm6 0v4h2v-4zm4 0v4.016l2-.016v-4zm4 0v4h2v-4z" color="#000" display="block" overflow="visible" fill="url(#j)" stroke-width=".273" stroke-linecap="round" stroke-linejoin="round" stroke-opacity=".964" transform="translate(-112 -112)"/><path d="M36 84l-1.68 2h27.33l-1.673-2z" fill-opacity=".247" fill-rule="evenodd" stroke-width="1.474"/><path style="isolation:auto;mix-blend-mode:normal;marker:none" d="M31 23h34v50H31z" color="#000" display="block" overflow="visible" fill-opacity=".22" stroke-width=".545" stroke-linecap="round" stroke-linejoin="round" stroke-opacity=".964"/><path style="isolation:auto;mix-blend-mode:normal;marker:none" d="M31 73h34v1H31z" color="#000" overflow="visible" fill="#fff" fill-opacity=".5" stroke-linecap="square" stroke-dasharray="2,2" stroke-dashoffset="9.739" paint-order="markers stroke fill"/><path d="M20 48a2 2 0 0 1 2.004 2.004A2 2 0 0 1 20 52.007a2 2 0 0 1-2.004-2.003A2 2 0 0 1 20 48zM20 84a2 2 0 0 1 2.004 2.004A2 2 0 0 1 20 88.007a2 2 0 0 1-2.004-2.003A2 2 0 0 1 20 84zM76 8a2 2 0 0 1 2.004 2.004A2 2 0 0 1 76 12.007a2 2 0 0 1-2.004-2.003A2 2 0 0 1 76 8zM76 48a2 2 0 0 1 2.004 2.004A2 2 0 0 1 76 52.007a2 2 0 0 1-2.004-2.003A2 2 0 0 1 76 48zM76 84a2 2 0 0 1 2.004 2.004A2 2 0 0 1 76 88.007a2 2 0 0 1-2.004-2.003A2 2 0 0 1 76 84zM20 8a2 2 0 0 1 2.004 2.004A2 2 0 0 1 20 12.007a2 2 0 0 1-2.004-2.003A2 2 0 0 1 20 8z" fill="#737373" stroke-width="2.672" stroke-opacity=".643"/><path d="M20 8a2 2 0 0 0-2.004 2.004c0 .098.016.191.03.285a1.993 1.993 0 0 1 3.949 0c.013-.094.029-.187.029-.285A2 2 0 0 0 20 8zm56 0a2 2 0 0 0-2.004 2.004c0 .098.016.191.03.285a1.993 1.993 0 0 1 3.949 0c.013-.094.029-.187.029-.285A2 2 0 0 0 76 8zM20 48a2 2 0 0 0-2.004 2.004c0 .098.016.191.03.285a1.993 1.993 0 0 1 3.949 0c.013-.094.029-.187.029-.285A2 2 0 0 0 20 48zm56 0a2 2 0 0 0-2.004 2.004c0 .098.016.191.03.285a1.993 1.993 0 0 1 3.949 0c.013-.094.029-.187.029-.285A2 2 0 0 0 76 48zM20 84a2 2 0 0 0-2.004 2.004c0 .098.016.191.03.285a1.993 1.993 0 0 1 3.949 0c.013-.094.029-.187.029-.285A2 2 0 0 0 20 84zm56 0a2 2 0 0 0-2.004 2.004c0 .098.016.191.03.285a1.993 1.993 0 0 1 3.949 0c.013-.094.029-.187.029-.285A2 2 0 0 0 76 84z" fill-opacity=".462" stroke-width="2.672" stroke-opacity=".643"/><path style="isolation:auto;mix-blend-mode:normal;marker:none" d="M20 9a1 1 0 0 0-1 1 1 1 0 0 0 1 1 1 1 0 0 0 1-1 1 1 0 0 0-1-1zm56 0a1 1 0 0 0-1 1 1 1 0 0 0 1 1 1 1 0 0 0 1-1 1 1 0 0 0-1-1zM20 49a1 1 0 0 0-1 1 1 1 0 0 0 1 1 1 1 0 0 0 1-1 1 1 0 0 0-1-1zm56 0a1 1 0 0 0-1 1 1 1 0 0 0 1 1 1 1 0 0 0 1-1 1 1 0 0 0-1-1zM20 85a1 1 0 0 0-1 1 1 1 0 0 0 1 1 1 1 0 0 0 1-1 1 1 0 0 0-1-1zm56 .037a1 1 0 0 0-1 1 1 1 0 0 0 1 1 1 1 0 0 0 1-1 1 1 0 0 0-1-1z" color="#000" display="block" overflow="visible" fill="#fff" fill-opacity=".275" stroke-width=".379" stroke-opacity=".28" paint-order="fill markers stroke"/><path style="isolation:auto;mix-blend-mode:normal;marker:none" d="M49.295 32.434a13.809 13.809 0 0 0-13.81 13.808 13.809 13.809 0 0 0 2.269 7.574 7.82 7.82 0 0 0-5.984 7.592 7.82 7.82 0 0 0 7.818 7.82 7.82 7.82 0 0 0 7.82-7.82 7.82 7.82 0 0 0-.16-1.527 13.809 13.809 0 0 0 2.047.17 13.809 13.809 0 0 0 13.809-13.809 13.809 13.809 0 0 0-13.809-13.808z" color="#000" display="block" overflow="visible" fill="#fff" fill-opacity=".324" stroke="#000" stroke-width=".354" stroke-opacity=".28" paint-order="fill markers stroke"/><path style="isolation:auto;mix-blend-mode:normal;marker:none" d="M48.031 35.314c-.19 0-.296.152-.343.327l-.684 2.537a8.658 8.658 0 0 0-1.787.746l-2.278-1.305c-.157-.09-.337-.121-.472.014l-1.97 1.97c-.136.135-.105.318-.015.475l1.327 2.309a8.652 8.652 0 0 0-.711 1.748l-2.575.701c-.174.047-.326.153-.326.344v2.787c0 .19.152.298.326.346l2.633.709a8.66 8.66 0 0 0 .71 1.658l-1.362 2.38c-.09.158-.123.338.012.473l1.972 1.97c.135.136.318.105.475.015l2.424-1.395c.442.232 1.1.48 1.6.658l.732 2.696c.047.174.153.324.343.324h2.79c.19 0 .296-.15.343-.324l.735-2.717c.498-.162 1.057-.431 1.591-.65l2.422 1.386c.158.09.34.121.475-.014l1.97-1.97c.136-.135.105-.318.014-.475l-1.392-2.416a8.66 8.66 0 0 0 .681-1.615l2.668-.725c.175-.047.327-.153.327-.343v-2.79c0-.19-.152-.296-.327-.343l-2.625-.71a8.648 8.648 0 0 0-.69-1.708l1.337-2.33c.09-.157.121-.34-.014-.475l-1.97-1.97c-.135-.136-.318-.105-.475-.014l-2.303 1.324a8.657 8.657 0 0 0-1.764-.742l-.69-2.54c-.048-.174-.154-.326-.345-.326zm1.412 7.12a4.114 4.114 0 1 1 0 8.227 4.114 4.114 0 0 1 0-8.227zm-10.86 13.432c-.1 0-.157.079-.182.17l-.357 1.328c-.326.095-.64.226-.936.39l-1.191-.68c-.083-.048-.178-.065-.248.005l-1.032 1.033c-.07.071-.055.166-.008.249l.696 1.207c-.157.29-.281.598-.372.916l-1.347.367c-.092.025-.17.08-.17.18v1.458c0 .1.078.155.17.18l1.377.371c.093.301.217.592.37.867l-.712 1.248c-.047.083-.063.176.008.247l1.031 1.033c.07.07.166.053.248.006l1.27-.73c.232.12.574.252.836.345l.385 1.41c.024.092.08.17.18.17h1.458c.1 0 .155-.078.18-.17l.385-1.422c.26-.084.554-.225.834-.34l1.267.727c.083.047.178.063.248-.008l1.032-1.031c.07-.07.055-.166.008-.248l-.73-1.266c.148-.269.266-.553.356-.846l1.397-.379c.091-.025.172-.08.172-.18v-1.46c0-.1-.08-.155-.172-.18l-1.373-.371a4.53 4.53 0 0 0-.362-.895l.7-1.218c.047-.083.062-.178-.008-.248l-1.032-1.032c-.07-.07-.166-.055-.248-.008l-1.205.694a4.535 4.535 0 0 0-.924-.389l-.36-1.33c-.026-.091-.08-.17-.18-.17zm.738 3.727a2.152 2.152 0 1 1 0 4.304 2.152 2.152 0 0 1 0-4.304z" color="#000" overflow="visible" fill="#656c76" stroke="#f7f2f8" stroke-width=".379" stroke-opacity=".808" paint-order="fill markers stroke"/><path style="isolation:auto;mix-blend-mode:normal;marker:none" color="#000" display="block" overflow="visible" fill-opacity=".286" stroke-linecap="square" stroke-dasharray="2,2" stroke-dashoffset="9.739" paint-order="markers stroke fill" d="M31 23h34v1H31z"/></svg>