<svg xmlns="http://www.w3.org/2000/svg" xmlns:xlink="http://www.w3.org/1999/xlink" height="96" viewBox="0 0 96 96" width="96"><title>Template icons dark</title><defs><linearGradient id="c"><stop offset="0" stop-color="#fff" stop-opacity="0"/><stop offset=".457" stop-color="#fff"/><stop offset="1" stop-color="#fff" stop-opacity="0"/></linearGradient><linearGradient id="d"><stop offset="0" stop-color="#fff" stop-opacity=".549"/><stop offset="1" stop-color="#fff" stop-opacity="0"/></linearGradient><linearGradient id="a"><stop offset="0" stop-color="#344961"/><stop offset="1" stop-color="#2d9580"/></linearGradient><linearGradient xlink:href="#a" id="e" x1="36.516" y1="40.131" x2="9.579" y2="9.429" gradientUnits="userSpaceOnUse" gradientTransform="matrix(2.23205 0 0 2.2005 106.494 107.251)"/><linearGradient xlink:href="#b" id="f" gradientUnits="userSpaceOnUse" gradientTransform="matrix(2.53552 0 0 2.54928 99.853 100.8)" x1="22.144" y1="41.149" x2="22.144" y2="5.178"/><linearGradient id="b"><stop offset="0" stop-color="#eff0c8" stop-opacity=".396"/><stop offset=".16" stop-color="#71cbd7" stop-opacity=".02"/><stop offset=".8" stop-color="#91dfcb" stop-opacity=".275"/><stop offset="1" stop-color="#6beed0" stop-opacity=".627"/></linearGradient><linearGradient xlink:href="#c" id="g" x1="971.579" y1="-1.255" x2="1037.237" y2="-1.255" gradientUnits="userSpaceOnUse"/><radialGradient xlink:href="#d" id="h" cx="195.968" cy="168" fx="195.968" fy="168" r="12.579" gradientUnits="userSpaceOnUse" gradientTransform="matrix(.25487 0 0 1.07975 146.17 -13.397)"/><radialGradient xlink:href="#d" id="i" gradientUnits="userSpaceOnUse" gradientTransform="matrix(.16068 0 0 .99712 136.718 -360.878)" cx="195.968" cy="168" fx="195.968" fy="168" r="12.579"/></defs><g transform="translate(-112 -112)"><path style="isolation:auto;mix-blend-mode:normal;marker:none" d="M121 113h78c4.432 0 8 3.568 8 8v78c0 4.432-3.568 8-8 8h-78c-4.432 0-8-3.568-8-8v-78c0-4.432 3.568-8 8-8z" color="#000" overflow="visible" fill-opacity=".148" stroke-width=".66" stroke-opacity=".471"/><path style="isolation:auto;mix-blend-mode:normal;marker:none" d="M122 114h76c4.432 0 8 3.568 8 8v76c0 4.432-3.568 8-8 8h-76c-4.432 0-8-3.568-8-8v-76c0-4.432 3.568-8 8-8z" color="#000" overflow="visible" fill="url(#e)" stroke-width=".66" stroke-opacity=".471"/><path d="M156.277 130.943a1.057 1.057 0 0 0-1.047.973l-2.851 36.074-.229-.644a1.057 1.057 0 0 0-.996-.703h-7.19c-.56-.86-1.109-1.668-1.702-2.198-.732-.653-1.585-1.077-2.496-1.062-.912.014-1.743.458-2.457 1.113-.577.529-1.107 1.316-1.647 2.147h-15.889a1.058 1.058 0 1 0 0 2.115h16.4a1.057 1.057 0 0 0 .907-.512c.613-1.018 1.182-1.755 1.658-2.191.477-.437.806-.555 1.06-.559.255-.004.575.096 1.056.525.48.43 1.063 1.173 1.697 2.225a1.057 1.057 0 0 0 .906.512h6.953l1.639 4.6a1.057 1.057 0 0 0 2.049-.272l2.162-27.365 2.613 34.605a1.057 1.057 0 0 0 2.074.195l3.164-11.763h7.422a1.057 1.057 0 0 0 1.018-.774c1.39-4.97 3.992-7.083 6.27-7.086 2.277-.002 4.876 2.104 6.269 7.086a1.057 1.057 0 0 0 1.017.774h6.598a3.066 3.066 0 0 0 2.897 2.076 3.066 3.066 0 0 0 3.066-3.066 3.066 3.066 0 0 0-3.066-3.067 3.066 3.066 0 0 0-2.85 1.942h-5.93c-1.623-4.978-4.647-7.861-8.006-7.858-3.358.003-6.376 2.89-7.996 7.858h-7.52a1.057 1.057 0 0 0-1.019.783l-1.767 6.568-3.176-42.074a1.057 1.057 0 0 0-1.06-.977z" style="line-height:normal;font-variant-ligatures:normal;font-variant-position:normal;font-variant-caps:normal;font-variant-numeric:normal;font-variant-alternates:normal;font-feature-settings:normal;text-indent:0;text-align:start;text-decoration-line:none;text-decoration-style:solid;text-decoration-color:#000;text-transform:none;text-orientation:mixed;shape-padding:0;isolation:auto;mix-blend-mode:normal" color="#000" font-weight="400" font-family="sans-serif" white-space="normal" overflow="visible" fill="none" stroke="#fff" stroke-width="6.114" stroke-linecap="round" stroke-linejoin="round" stroke-opacity=".17"/><path style="line-height:normal;font-variant-ligatures:normal;font-variant-position:normal;font-variant-caps:normal;font-variant-numeric:normal;font-variant-alternates:normal;font-feature-settings:normal;text-indent:0;text-align:start;text-decoration-line:none;text-decoration-style:solid;text-decoration-color:#000;text-transform:none;text-orientation:mixed;shape-padding:0;isolation:auto;mix-blend-mode:normal" d="M156.277 130.943a1.057 1.057 0 0 0-1.047.973l-2.851 36.074-.229-.644a1.057 1.057 0 0 0-.996-.703h-7.19c-.56-.86-1.109-1.668-1.702-2.198-.732-.653-1.585-1.077-2.496-1.062-.912.014-1.743.458-2.457 1.113-.577.529-1.107 1.316-1.647 2.147h-15.889a1.058 1.058 0 1 0 0 2.115h16.4a1.057 1.057 0 0 0 .907-.512c.613-1.018 1.182-1.755 1.658-2.191.477-.437.806-.555 1.06-.559.255-.004.575.096 1.056.525.48.43 1.063 1.173 1.697 2.225a1.057 1.057 0 0 0 .906.512h6.953l1.639 4.6a1.057 1.057 0 0 0 2.049-.272l2.162-27.365 2.613 34.605a1.057 1.057 0 0 0 2.074.195l3.164-11.763h7.422a1.057 1.057 0 0 0 1.018-.774c1.39-4.97 3.992-7.083 6.27-7.086 2.277-.002 4.876 2.104 6.269 7.086a1.057 1.057 0 0 0 1.017.774h6.598a3.066 3.066 0 0 0 2.897 2.076 3.066 3.066 0 0 0 3.066-3.066 3.066 3.066 0 0 0-3.066-3.067 3.066 3.066 0 0 0-2.85 1.942h-5.93c-1.623-4.978-4.647-7.861-8.006-7.858-3.358.003-6.376 2.89-7.996 7.858h-7.52a1.057 1.057 0 0 0-1.019.783l-1.767 6.568-3.176-42.074a1.057 1.057 0 0 0-1.06-.977z" color="#000" font-weight="400" font-family="sans-serif" white-space="normal" overflow="visible" fill="#fcfffe" stroke-width="2.114" stroke-linecap="round" stroke-linejoin="round"/><path d="M122 206c-4.432 0-8-3.568-8-8v-1c0 4.432 3.568 8 8 8h76c4.432 0 8-3.568 8-8v1c0 4.432-3.568 8-8 8z" style="isolation:auto;mix-blend-mode:normal;marker:none" color="#000" overflow="visible" fill="#fff" fill-opacity=".401" stroke-width=".66" stroke-opacity=".471"/><path style="isolation:auto;mix-blend-mode:normal;marker:none" d="M122 114h76c4.432 0 8 3.568 8 8v76c0 4.432-3.568 8-8 8h-76c-4.432 0-8-3.568-8-8v-76c0-4.432 3.568-8 8-8z" color="#000" overflow="visible" fill="url(#f)" stroke-width="1.199"/><path d="M122 114h76c4.432 0 8 3.568 8 8v76c0 4.432-3.568 8-8 8h-76c-4.432 0-8-3.568-8-8v-76c0-4.432 3.568-8 8-8z" style="isolation:auto;mix-blend-mode:normal;marker:none" color="#000" overflow="visible" fill="none" stroke-width="1.199"/><path style="isolation:auto;mix-blend-mode:normal;marker:none" d="M122 114c-4.432 0-8 3.568-8 8v1c0-4.432 3.568-8 8-8h76c4.432 0 8 3.568 8 8v-1c0-4.432-3.568-8-8-8z" color="#000" overflow="visible" fill="#fff" fill-opacity=".566" stroke-width=".66" stroke-opacity=".471"/><path opacity=".2" fill="#fff" fill-opacity=".577" d="M125 114v92h-1v-92zM134 114v92h-1v-92zM143 114v92h-1v-92zM152 114v92h-1v-92zM161 114v92h-1v-92zM170 114v92h-1v-92zM179 114v92h-1v-92zM188 114v92h-1v-92zM197 114v92h-1v-92z"/><path opacity=".2" fill="#fff" fill-opacity=".577" d="M206 124h-92v-1h92zM206 133h-92v-1h92zM206 142h-92v-1h92zM206 151h-92v-1h92zM206 160h-92v-1h92zM206 169h-92v-1h92zM206 178h-92v-1h92zM206 187h-92v-1h92zM206 196h-92v-1h92z"/><path transform="matrix(0 1.17275 -1.04186 0 113.192 -1017.417)" opacity=".728" fill="url(#g)" stroke-width=".915" d="M971.579-1.735h65.658v.96h-65.658zM971.579-89.078h65.658v.96h-65.658z"/><ellipse style="isolation:auto;mix-blend-mode:normal;marker:none" cx="195.789" cy="168" rx="4.268" ry="15.855" color="#000" display="block" overflow="visible" opacity=".993" fill="url(#h)" stroke-width="3.475"/><ellipse ry="14.641" rx="2.691" cy="-193.362" cx="168" style="isolation:auto;mix-blend-mode:normal;marker:none" transform="rotate(90)" color="#000" display="block" overflow="visible" opacity=".993" fill="url(#i)" stroke-width="2.652"/></g></svg>