<svg xmlns="http://www.w3.org/2000/svg" xmlns:xlink="http://www.w3.org/1999/xlink" height="96" viewBox="0 0 96 96" width="96"><title>Template icons dark</title><defs><linearGradient id="c"><stop offset="0" stop-color="#8298a2"/><stop offset="1" stop-color="#c3d5dc" stop-opacity=".984"/></linearGradient><linearGradient id="d"><stop offset="0" stop-color="#889da6"/><stop offset="1" stop-color="#b9cdd5" stop-opacity=".984"/></linearGradient><linearGradient id="e"><stop offset="0" stop-color="#758d98"/><stop offset="1" stop-color="#acc5ce" stop-opacity=".984"/></linearGradient><linearGradient id="b"><stop offset="0" stop-color="#e0eef7"/><stop offset="1" stop-color="#909b9c"/></linearGradient><linearGradient id="a"><stop offset="0" stop-color="#98aab2"/><stop offset="1" stop-color="#d3e0e5" stop-opacity=".984"/></linearGradient><linearGradient xlink:href="#a" id="h" gradientUnits="userSpaceOnUse" x1="141.165" y1="190.299" x2="186.52" y2="128" gradientTransform="scale(.99269) rotate(-15 164.404 156.133)"/><linearGradient xlink:href="#a" id="g" gradientUnits="userSpaceOnUse" x1="141.165" y1="190.299" x2="186.52" y2="128" gradientTransform="scale(.99269) rotate(-15 164.404 156.133)"/><linearGradient xlink:href="#b" id="f" gradientUnits="userSpaceOnUse" gradientTransform="scale(.99269) rotate(-15 160.606 156.633)" x1="161" y1="199" x2="161" y2="195.016"/></defs><path style="isolation:auto;mix-blend-mode:normal;marker:none" d="M69.856.007c-.269.016-.542.06-.813.132L5.875 17.064a4.041 4.041 0 0 0-2.864 4.961L20.918 88.86v.002l.793 2.956.265.986c0 .004.003.004.004.01l.164.61a3.467 3.467 0 0 0 4.254 2.456l64.285-17.226a3.464 3.464 0 0 0 2.456-4.252L74.933 6.451l-.011-.03-.917-3.417A4.04 4.04 0 0 0 69.856.007z" color="#000" overflow="visible" fill-opacity=".104" stroke-width=".777"/><path style="isolation:auto;mix-blend-mode:normal;marker:none" d="M7.541 21.958l62.515-16.75a3.37 3.37 0 0 1 4.135 2.387l17.706 66.078a3.37 3.37 0 0 1-2.388 4.136l-62.514 16.75a3.37 3.37 0 0 1-4.136-2.387L5.153 26.093a3.37 3.37 0 0 1 2.388-4.135z" color="#000" overflow="visible" fill="#59686e" stroke-width=".756"/><path style="isolation:auto;mix-blend-mode:normal;marker:none" d="M8.995 24.09L68.626 8.11a3.233 3.233 0 0 1 3.968 2.291l16.89 63.032a3.233 3.233 0 0 1-2.292 3.968L27.562 93.38a3.233 3.233 0 0 1-3.968-2.29L6.704 28.056a3.233 3.233 0 0 1 2.291-3.968z" color="#000" display="block" overflow="visible" fill-opacity=".225" stroke-width=".721"/><path style="isolation:auto;mix-blend-mode:normal;marker:none" d="M120.738 135.13l59.631-15.978a3.233 3.233 0 0 1 3.968 2.291l16.89 63.032a3.233 3.233 0 0 1-2.292 3.968l-59.63 15.978a3.233 3.233 0 0 1-3.968-2.29l-16.89-63.033a3.233 3.233 0 0 1 2.291-3.968z" color="#000" display="block" overflow="visible" fill="url(#f)" stroke-width=".721" transform="translate(-112 -112)"/><path style="isolation:auto;mix-blend-mode:normal;marker:none" d="M119.038 129.917l61.428-16.46a3.93 3.93 0 0 1 4.824 2.786l16.9 63.074a3.93 3.93 0 0 1-2.785 4.825L137.978 200.6c-2.108.565-3.125 3.56-3.284 2.968l-18.442-68.827a3.93 3.93 0 0 1 2.786-4.825z" color="#000" overflow="visible" fill="url(#g)" stroke-width=".756" transform="translate(-112 -112)"/><path style="line-height:1000%;-inkscape-font-specification:'Nimbus Roman, '" d="M60.799 48.837L57.552 36.72l-1.2.322c.53 4.28-.162 5.248-4.416 6.5l-7.573 2.03-3.107-11.595c-.367-1.58-.252-1.78 1.196-2.223l7.102-1.903c6.087-1.52 7.327-1.068 9.408 3.356l1.306-.35-2.158-7.426-27.732 7.43.266.993c3.883-.76 4.691-.25 5.803 3.483l6.06 22.614c1.137 4.453.768 5.167-3.13 6.492l.265.992 14.623-3.918-.266-.993c-4.01.907-4.938.372-6.012-3.426l-3.05-11.385 7.572-2.03c4.297-1.095 5.328-.588 7.089 3.475z" font-weight="400" font-family="Nimbus Roman" letter-spacing="0" word-spacing="0" fill-opacity=".236" stroke-width="3.379"/><path style="line-height:1000%;-inkscape-font-specification:'Nimbus Roman, '" d="M60.5 47.18l-3.246-12.117-1.2.322c.53 4.28-.162 5.249-4.416 6.501l-7.573 2.03L40.96 32.32c-.368-1.58-.253-1.78 1.195-2.223l7.103-1.904c6.086-1.518 7.326-1.067 9.407 3.357l1.306-.35-2.158-7.426-27.732 7.43.266.993c3.883-.76 4.691-.25 5.803 3.483l6.06 22.613c1.137 4.453.769 5.168-3.13 6.492l.265.993 14.623-3.919-.266-.992c-4.01.907-4.938.372-6.011-3.427l-3.051-11.385 7.573-2.029c4.296-1.095 5.328-.588 7.088 3.475z" font-weight="400" font-family="Nimbus Roman" letter-spacing="0" word-spacing="0" fill="#fdfefe" stroke-width="3.379"/><path style="isolation:auto;mix-blend-mode:normal;marker:none" d="M8.741 20.317a.99.99 0 0 1 1.216.702l17.214 64.244a.99.99 0 0 1-.702 1.216.99.99 0 0 1-1.216-.702L8.04 21.533a.99.99 0 0 1 .702-1.216z" color="#000" display="block" overflow="visible" fill="#0c0f10" fill-opacity=".192" stroke-width=".756"/><path style="isolation:auto;mix-blend-mode:normal;marker:none" d="M89.934 66.358a3.931 3.931 0 0 1-2.786 4.825l-61.427 16.46c-2.108.564-3.125 3.56-3.283 2.967l.257.959c.158.593 1.175-2.403 3.283-2.968l61.427-16.459a3.931 3.931 0 0 0 2.786-4.825z" color="#000" overflow="visible" fill-opacity=".434" stroke-width=".756"/></svg>