<svg xmlns="http://www.w3.org/2000/svg" xmlns:xlink="http://www.w3.org/1999/xlink" height="96" viewBox="0 0 96 96" width="96"><title>Template icons dark</title><defs><linearGradient id="j"><stop offset="0" stop-color="#078cd0" stop-opacity=".781"/><stop offset=".774" stop-color="#5946dd" stop-opacity=".584"/><stop offset="1" stop-color="#ca39f1" stop-opacity=".669"/></linearGradient><linearGradient id="i"><stop offset="0" stop-color="#078cd0" stop-opacity=".698"/><stop offset=".774" stop-color="#5946dd" stop-opacity=".443"/><stop offset="1" stop-color="#ca39f1" stop-opacity=".302"/></linearGradient><linearGradient id="c"><stop offset="0" stop-color="#d1f8fc" stop-opacity=".084"/><stop offset=".501" stop-color="#fff" stop-opacity=".039"/><stop offset="1" stop-color="#b6f3fa" stop-opacity=".096"/></linearGradient><linearGradient id="b"><stop offset="0" stop-color="#777"/><stop offset="1" stop-color="#595959"/></linearGradient><linearGradient id="h"><stop offset="0" stop-color="#fff" stop-opacity=".528"/><stop offset=".561" stop-color="#fff" stop-opacity=".522"/><stop offset="1" stop-color="#fff" stop-opacity="0"/></linearGradient><linearGradient id="f"><stop offset="0" stop-color="#fff" stop-opacity=".663"/><stop offset=".561" stop-color="#fff" stop-opacity=".522"/><stop offset="1" stop-color="#fff" stop-opacity="0"/></linearGradient><linearGradient id="g"><stop offset="0" stop-color="#fff"/><stop offset=".561" stop-color="#fff" stop-opacity=".522"/><stop offset="1" stop-color="#fff" stop-opacity="0"/></linearGradient><linearGradient id="e"><stop offset="0" stop-color="#4fb9ef" stop-opacity=".459"/><stop offset=".836" stop-color="#1f1cec" stop-opacity=".315"/><stop offset=".888" stop-color="#d039f1" stop-opacity=".376"/><stop offset="1" stop-color="#ca39f1" stop-opacity=".302"/></linearGradient><linearGradient id="d"><stop offset="0" stop-color="#393939"/><stop offset="1" stop-color="#181818"/></linearGradient><linearGradient id="a"><stop offset="0" stop-color="#efefef"/><stop offset="1" stop-color="#cacaca"/></linearGradient><linearGradient xlink:href="#a" id="k" x1="160" y1="133.669" x2="160" y2="186.583" gradientUnits="userSpaceOnUse" gradientTransform="matrix(1.00109 0 0 1 -.226 0)"/><linearGradient xlink:href="#b" id="m" x1="158.033" y1="188.223" x2="158.033" y2="130.744" gradientUnits="userSpaceOnUse"/><linearGradient xlink:href="#c" id="n" x1="228.437" y1="20.042" x2="246.784" y2="1.62" gradientUnits="userSpaceOnUse"/><radialGradient xlink:href="#d" id="l" cx="160" cy="160" fx="160" fy="160" r="33" gradientUnits="userSpaceOnUse"/><radialGradient xlink:href="#e" id="o" cx="-226.274" cy=".459" fx="-226.274" fy=".459" r="15.999" gradientUnits="userSpaceOnUse" gradientTransform="matrix(.00331 1.63197 -1.6341 .00332 -224.898 369.682)"/><radialGradient xlink:href="#h" id="p" gradientUnits="userSpaceOnUse" gradientTransform="matrix(.50454 .03916 -.06227 .36597 89.392 96.187)" cx="160.02" cy="162.319" fx="160.02" fy="162.319" r="2.546"/><radialGradient xlink:href="#f" id="q" gradientUnits="userSpaceOnUse" gradientTransform="matrix(.77167 0 0 .62823 36.358 58.943)" cx="160.366" cy="156" fx="160.366" fy="156" r="2.546"/></defs><g color="#000" transform="translate(-112 -112)"><rect style="isolation:auto;mix-blend-mode:normal;marker:none" width="96" height="58" x="112" y="131" ry="4.143" display="block" overflow="visible" fill-opacity=".131" stroke-width=".821" paint-order="fill markers stroke"/><rect style="isolation:auto;mix-blend-mode:normal;marker:none" width="94" height="56" x="113" y="132" ry="4" display="block" overflow="visible" fill="url(#k)" stroke-width="1.999" stroke-opacity=".344" paint-order="fill markers stroke"/><path style="isolation:auto;mix-blend-mode:normal;marker:none" d="M113.102 183v1c0 2.216 1.784 4 4 4H203c2.216 0 4-1.784 4-4v-1c0 2.216-1.784 4-4 4h-85.898c-2.216 0-4-1.784-4-4z" display="block" overflow="visible" fill="#eee" stroke-width="1.998" stroke-opacity=".344" paint-order="fill markers stroke"/><path style="isolation:auto;mix-blend-mode:normal;marker:none" d="M194.249 161A34.248 34.248 0 0 1 160 195.249 34.248 34.248 0 0 1 125.751 161 34.248 34.248 0 0 1 160 126.752 34.248 34.248 0 0 1 194.248 161z" overflow="visible" fill-opacity=".23" stroke-width="1.813" paint-order="fill markers stroke"/><path style="isolation:auto;mix-blend-mode:normal;marker:none" d="M191.998 160A31.998 31.998 0 0 1 160 191.998 31.998 31.998 0 0 1 128.002 160 31.998 31.998 0 0 1 160 128.002 31.998 31.998 0 0 1 191.998 160z" overflow="visible" fill="url(#l)" stroke="#f2f2f2" stroke-width="2.003" paint-order="fill markers stroke"/><path style="line-height:normal;font-variant-ligatures:normal;font-variant-position:normal;font-variant-caps:normal;font-variant-numeric:normal;font-variant-alternates:normal;font-feature-settings:normal;text-indent:0;text-align:start;text-decoration-line:none;text-decoration-style:solid;text-decoration-color:#000;text-transform:none;text-orientation:mixed;shape-padding:0;isolation:auto;mix-blend-mode:normal;marker:none" d="M160 128.863c-17.177 0-31.137 13.96-31.137 31.137s13.96 31.137 31.137 31.137 31.137-13.96 31.137-31.137-13.96-31.137-31.137-31.137zm0 3.248c15.422 0 27.889 12.467 27.889 27.889 0 15.422-12.467 27.889-27.889 27.889-15.422 0-27.889-12.467-27.889-27.889 0-15.422 12.467-27.889 27.889-27.889z" font-weight="400" font-family="sans-serif" white-space="normal" overflow="visible" fill="url(#m)" stroke-width="3.248" paint-order="fill markers stroke"/><path style="line-height:normal;font-variant-ligatures:normal;font-variant-position:normal;font-variant-caps:normal;font-variant-numeric:normal;font-variant-alternates:normal;font-feature-settings:normal;text-indent:0;text-align:start;text-decoration-line:none;text-decoration-style:solid;text-decoration-color:#000;text-transform:none;text-orientation:mixed;shape-padding:0;isolation:auto;mix-blend-mode:normal;marker:none" d="M160 126.65c-18.403 0-33.35 14.947-33.35 33.35 0 18.403 14.947 33.35 33.35 33.35 18.403 0 33.35-14.947 33.35-33.35 0-18.403-14.947-33.35-33.35-33.35zm0 2.704c16.942 0 30.646 13.704 30.646 30.646S176.942 190.646 160 190.646 129.354 176.942 129.354 160s13.704-30.646 30.646-30.646z" font-weight="400" font-family="sans-serif" white-space="normal" overflow="visible" fill="#fff" stroke-width="2.703" paint-order="fill markers stroke"/><path style="isolation:auto;mix-blend-mode:normal;marker:none" d="M252.375-.608a26.366 26.366 0 0 1-26.365 26.366V-.608z" transform="rotate(45.116)" overflow="visible" fill="url(#n)" stroke-width="1.651" paint-order="fill markers stroke"/><path transform="rotate(-134.884)" style="isolation:auto;mix-blend-mode:normal;marker:none" d="M-200.193.364a26.158 26.158 0 0 1-26.158 26.158V.364z" overflow="visible" fill="url(#o)" stroke-width="1.638" paint-order="fill markers stroke"/><path style="isolation:auto;mix-blend-mode:normal;marker:none" d="M161.264 161.794a1.325.895 0 0 1-1.325.896 1.325.895 0 0 1-1.325-.896 1.325.895 0 0 1 1.325-.895 1.325.895 0 0 1 1.325.895z" overflow="visible" fill="url(#p)" stroke-width=".182" paint-order="fill markers stroke"/><path style="isolation:auto;mix-blend-mode:normal;marker:none" d="M162.073 156.947a1.965 1.6 0 0 1-1.965 1.599 1.965 1.6 0 0 1-1.965-1.6 1.965 1.6 0 0 1 1.965-1.599 1.965 1.6 0 0 1 1.965 1.6z" overflow="visible" fill="url(#q)" stroke-width=".154" paint-order="fill markers stroke"/><path style="isolation:auto;mix-blend-mode:normal;marker:none" d="M121.953 136.094a1.953 1.953 0 0 0-1.953 1.953 1.953 1.953 0 0 0 .008.152 1.953 1.953 0 0 1 1.945-1.8 1.953 1.953 0 0 1 1.946 1.8 1.953 1.953 0 0 0 .008-.152 1.953 1.953 0 0 0-1.954-1.953z" overflow="visible" fill-opacity=".506" paint-order="fill markers stroke"/><circle style="isolation:auto;mix-blend-mode:normal;marker:none" cx="160" cy="160" r="7.214" overflow="visible" fill="none" fill-opacity=".459" stroke="#8e8e8e" stroke-width="2.398" paint-order="fill markers stroke"/><circle r="8.499" cy="160" cx="160" style="isolation:auto;mix-blend-mode:normal;marker:none" overflow="visible" fill="#030303" fill-opacity=".459" stroke="#969696" stroke-width=".902" paint-order="fill markers stroke"/><circle style="isolation:auto;mix-blend-mode:normal;marker:none" cx="160" cy="160" r="23.535" overflow="visible" fill="none" fill-opacity=".459" stroke="#fff" stroke-width=".23" stroke-opacity=".237" paint-order="fill markers stroke"/><circle r="14.486" cy="160" cx="160" style="isolation:auto;mix-blend-mode:normal;marker:none" overflow="visible" fill="none" fill-opacity=".459" stroke="#fff" stroke-width=".1" stroke-opacity=".376" paint-order="fill markers stroke"/><circle style="isolation:auto;mix-blend-mode:normal;marker:none" cx="121.953" cy="138.047" r="1.953" overflow="visible" fill="#ea6565" paint-order="fill markers stroke"/></g></svg>