<svg xmlns="http://www.w3.org/2000/svg" xmlns:xlink="http://www.w3.org/1999/xlink" height="96" viewBox="0 0 96 96" width="96"><title>Template icons dark</title><defs><linearGradient id="f"><stop offset="0" stop-color="#647780"/><stop offset="1" stop-color="#fff"/></linearGradient><linearGradient id="e"><stop offset="0" stop-opacity=".135"/><stop offset="1" stop-opacity="0"/></linearGradient><linearGradient id="d"><stop offset="0" stop-color="#391f3c" stop-opacity=".059"/><stop offset="1" stop-color="#391f3c" stop-opacity="0"/></linearGradient><linearGradient id="c"><stop offset="0" stop-color="#d8d8d8"/><stop offset="1" stop-color="#fff" stop-opacity=".995"/></linearGradient><linearGradient id="a"><stop offset="0" stop-color="#626262"/><stop offset="1" stop-color="#626262" stop-opacity="0"/></linearGradient><linearGradient id="b"><stop offset="0" stop-color="#69c2b7"/><stop offset="1" stop-color="#64a5b5"/></linearGradient><linearGradient xlink:href="#b" id="k" gradientUnits="userSpaceOnUse" x1="164" y1="143.615" x2="164" y2="180" gradientTransform="translate(-20.706 -15.965) scale(1.12927)"/><linearGradient xlink:href="#c" id="g" x1="196" y1="196" x2="160" y2="160" gradientUnits="userSpaceOnUse"/><linearGradient xlink:href="#d" id="h" x1="160.063" y1="136" x2="160.063" y2="118.488" gradientUnits="userSpaceOnUse"/><linearGradient xlink:href="#e" id="i" x1="162" y1="188.703" x2="162" y2="145" gradientUnits="userSpaceOnUse"/><linearGradient xlink:href="#f" id="j" x1="174" y1="144.177" x2="174" y2="189.118" gradientUnits="userSpaceOnUse"/></defs><path style="isolation:auto;mix-blend-mode:normal;marker:none" d="M12 5h72c4.432 0 7 2.568 7 7v74c0 4.432-2.568 7-7 7H12c-4.432 0-7-2.568-7-7V12c0-4.432 2.568-7 7-7z" color="#000" overflow="visible" fill-opacity=".102" stroke-width=".6" stroke-opacity=".583"/><path d="M90 78v8c0 3.324-2.676 6-6 6H12c-3.324 0-6-2.676-6-6v-8z" style="isolation:auto;mix-blend-mode:normal;marker:none" color="#000" display="block" overflow="visible" fill="#696969" stroke-width=".573" stroke-opacity=".583"/><path style="isolation:auto;mix-blend-mode:normal;marker:none" d="M90 76v8c0 3.324-2.676 6-6 6H12c-3.324 0-6-2.676-6-6v-8z" color="#000" display="block" overflow="visible" fill="#a5a5a5" stroke-width=".573" stroke-opacity=".583"/><path style="isolation:auto;mix-blend-mode:normal;marker:none" d="M124 118h72c3.324 0 6 2.676 6 6v69c0 3.324-2.676 6-6 6h-72c-3.324 0-6-2.676-6-6v-69c0-3.324 2.676-6 6-6z" color="#000" display="block" overflow="visible" fill="url(#g)" stroke-width=".573" stroke-opacity=".583" transform="translate(-112 -112)"/><path style="isolation:auto;mix-blend-mode:normal;marker:none" d="M124 118c-3.324 0-6 2.676-6 6v12h84v-12c0-3.324-2.676-6-6-6zm24 6a4 4 0 0 1 4 4 4 4 0 0 1-4 4 4 4 0 0 1-4-4 4 4 0 0 1 4-4zm24 0a4 4 0 0 1 4 4 4 4 0 0 1-4 4 4 4 0 0 1-4-4 4 4 0 0 1 4-4z" color="#000" display="block" overflow="visible" fill="url(#h)" stroke-width=".573" stroke-opacity=".583" transform="translate(-112 -112)"/><path style="line-height:1000%" d="M72.916 79.072v3.358h.934c.647 0 1.125-.137 1.431-.409.306-.27.46-.696.46-1.275 0-.576-.153-.998-.458-1.267-.304-.272-.783-.407-1.433-.407zm.455.373h.549c.463 0 .801.105 1.016.315.215.208.324.536.324.986 0 .453-.109.784-.324.994-.215.21-.553.315-1.016.315h-.549zm3.955.405c-.135 0-.273.015-.416.045a2.683 2.683 0 0 0-.44.13v.381a1.655 1.655 0 0 1 .815-.205c.227 0 .401.051.526.156A.54.54 0 0 1 78 80.8v.04h-.58c-.376 0-.661.072-.852.216-.189.144-.283.357-.283.64a.77.77 0 0 0 .229.582c.153.144.357.217.615.217.204 0 .377-.035.518-.107a.912.912 0 0 0 .353-.34v.383h.414v-1.438c0-.384-.091-.67-.271-.86-.18-.188-.452-.282-.817-.282zm1.645.06l1.02 2.479-.075.19c-.076.2-.146.326-.209.38a.396.396 0 0 1-.266.082h-.244v.346h.332a.678.678 0 0 0 .446-.137c.11-.092.225-.288.341-.588l1.106-2.752h-.438l-.787 1.97-.787-1.97zm-1.383 1.252H78v.094c0 .27-.07.485-.209.648a.688.688 0 0 1-.55.244.582.582 0 0 1-.397-.129.452.452 0 0 1-.145-.351c0-.185.065-.314.194-.39.129-.077.36-.116.695-.116z" font-family="sans-serif" letter-spacing="0" word-spacing="0" fill="#3ca0a0" fill-opacity=".568" stroke-width=".288"/><path style="line-height:1000%" d="M49.9 26.582v4.115h.487v-4.115zm-5.013.168v3.672c0 .342-.05.579-.147.71-.097.133-.262.2-.498.2h-.168v.45h.205c.4 0 .69-.108.87-.323.181-.215.271-.561.271-1.037V26.75zm1.525.986v1.793c0 .408.09.716.266.928.176.212.433.316.773.316.206 0 .388-.042.543-.128.157-.089.294-.223.412-.403v.455h.487v-2.96h-.487v1.677c0 .29-.077.518-.23.686-.152.167-.359.252-.621.252-.219 0-.383-.07-.492-.21-.11-.14-.165-.352-.165-.632v-1.774zm4.64 0l1.198 2.914-.086.221c-.09.236-.172.388-.246.451a.466.466 0 0 1-.312.094h-.286v.408h.39c.218 0 .392-.054.522-.162.131-.107.265-.337.403-.69l1.3-3.236h-.515l-.926 2.317-.926-2.317z" font-family="sans-serif" letter-spacing="0" word-spacing="0" fill-opacity=".516" stroke-width=".338"/><path style="isolation:auto;mix-blend-mode:normal;marker:none" d="M6 80v1c0 3.324 2.676 6 6 6h72c3.324 0 6-2.676 6-6v-1c0 3.324-2.676 6-6 6H12c-3.324 0-6-2.676-6-6z" color="#000" display="block" overflow="visible" fill="#fff" fill-opacity=".495" stroke-width=".573" stroke-opacity=".583"/><path d="M6 83v1c0 3.324 2.676 6 6 6h72c3.324 0 6-2.676 6-6v-1c0 3.324-2.676 6-6 6H12c-3.324 0-6-2.676-6-6z" style="isolation:auto;mix-blend-mode:normal;marker:none" color="#000" display="block" overflow="visible" fill="#fff" fill-opacity=".208" stroke-width=".573" stroke-opacity=".583"/><path style="isolation:auto;mix-blend-mode:normal;marker:none" d="M6 85v1c0 3.324 2.676 6 6 6h72c3.324 0 6-2.676 6-6v-1c0 3.324-2.676 6-6 6H12c-3.324 0-6-2.676-6-6z" color="#000" display="block" overflow="visible" fill="#fff" fill-opacity=".099" stroke-width=".573" stroke-opacity=".583"/><g color="#000" stroke-width="1.2" stroke-opacity=".583"><path d="M36 12a4 4 0 0 0-4 4 4 4 0 0 0 4 4 4 4 0 0 0 4-4 4 4 0 0 0-4-4zm24 0a4 4 0 0 0-4 4 4 4 0 0 0 4 4 4 4 0 0 0 4-4 4 4 0 0 0-4-4z" style="isolation:auto;mix-blend-mode:normal;marker:none" display="block" overflow="visible" fill="#fff" fill-opacity=".927"/><path d="M36 12a4 4 0 0 0-4 4 4 4 0 0 0 .035.506A4 4 0 0 1 36 13a4 4 0 0 1 3.965 3.494A4 4 0 0 0 40 16a4 4 0 0 0-4-4zm24 0a4 4 0 0 0-4 4 4 4 0 0 0 .035.506A4 4 0 0 1 60 13a4 4 0 0 1 3.965 3.494A4 4 0 0 0 64 16a4 4 0 0 0-4-4z" style="isolation:auto;mix-blend-mode:normal;marker:none" display="block" overflow="visible" fill-opacity=".401"/><path style="isolation:auto;mix-blend-mode:normal;marker:none" d="M36 19.987a4 4 0 0 1-4-4 4 4 0 0 1 .035-.506A4 4 0 0 0 36 18.987a4 4 0 0 0 3.965-3.495 4 4 0 0 1 .035.495 4 4 0 0 1-4 4zm24 0a4 4 0 0 1-4-4 4 4 0 0 1 .035-.506A4 4 0 0 0 60 18.987a4 4 0 0 0 3.965-3.495 4 4 0 0 1 .035.495 4 4 0 0 1-4 4z" display="block" overflow="visible" fill="#e6e6e6" fill-opacity=".292"/></g><g font-weight="400" font-family="Roboto" letter-spacing="0" word-spacing="0"><path style="line-height:1000%;-inkscape-font-specification:Roboto;font-variant-ligatures:normal;font-variant-position:normal;font-variant-caps:normal;font-variant-numeric:normal;font-variant-alternates:normal;font-feature-settings:normal;text-indent:0;text-align:start;text-decoration-line:none;text-decoration-style:solid;text-decoration-color:#000;text-transform:none;text-orientation:mixed;shape-padding:0;isolation:auto;mix-blend-mode:normal" d="M144.04 144.346c-3.934 0-7.399 1.212-10.067 3.629-2.646 2.394-4.055 5.615-4.055 9.224v1.766h8.633v-1.766c0-1.708.46-2.804 1.414-3.717.97-.93 2.206-1.414 4.074-1.414 2.05 0 3.269.487 4.025 1.246.757.76 1.245 1.989 1.245 4.05 0 1.708-.473 2.777-1.48 3.677-1.006.898-2.42 1.423-4.534 1.455h-5.57v7.695h5.588c2.425.036 4.031.603 5.056 1.497 1.024.892 1.545 2.072 1.545 4.046 0 2.091-.517 3.388-1.43 4.287-.91.897-2.258 1.422-4.416 1.422-1.994 0-3.333-.502-4.35-1.437-1.019-.938-1.5-2.045-1.5-3.776v-1.765h-8.66v1.765c0 3.761 1.426 7.064 4.141 9.418l.002.002.002.002c2.723 2.343 6.277 3.489 10.365 3.489 4.1 0 7.662-1.196 10.364-3.623 2.725-2.448 4.117-5.904 4.117-9.893 0-2.637-.712-5.037-2.166-6.98l-.002-.002c-.76-1.027-1.717-1.872-2.8-2.58a11.62 11.62 0 0 0 2.339-2.512c1.305-1.877 2.021-3.949 2.021-6.076 0-3.923-1.253-7.288-3.787-9.649-2.53-2.357-6.016-3.48-10.115-3.48zm32.3 0c-4.746 0-8.652 1.692-11.037 5.045-2.373 3.334-3.389 8.073-3.389 14.18v6.824l.002.011c.076 5.856 1.153 10.465 3.531 13.756l.002.002.002.002c2.403 3.303 6.272 4.975 10.946 4.975 4.733 0 8.636-1.72 11.015-5.108 2.369-3.371 3.383-8.162 3.383-14.34v-6.637c-.057-5.976-1.104-10.6-3.488-13.826l-.002-.002c-2.394-3.254-6.267-4.883-10.965-4.883zm0 7.722c2.186 0 3.342.632 4.26 2.133l.002.004.002.004c.91 1.476 1.556 4.35 1.556 8.506v8.336c-.053 4.024-.723 6.817-1.656 8.293l-.004.006-.002.004c-.924 1.483-2.037 2.09-4.102 2.09-2.079 0-3.238-.64-4.228-2.242-.968-1.615-1.621-4.544-1.621-8.707v-8.149c.035-3.912.673-6.662 1.592-8.174.899-1.48 2.033-2.103 4.2-2.103z" color="#000" white-space="normal" overflow="visible" fill="url(#i)" stroke="url(#j)" stroke-width=".6" stroke-opacity=".448" transform="translate(-112 -112)"/><path d="M144.04 145.982c-3.586 0-6.547 1.057-8.883 3.171-2.317 2.097-3.473 4.735-3.473 7.916h5.101c0-2.078.653-3.74 1.959-4.991 1.324-1.269 3.089-1.903 5.295-1.903 4.69 0 7.034 2.352 7.034 7.06 0 2.096-.69 3.761-2.069 4.993-1.379 1.232-3.272 1.867-5.681 1.904h-3.834v4.164h3.834c2.703.037 4.772.682 6.206 1.932 1.435 1.25 2.15 3.042 2.15 5.377 0 2.41-.65 4.258-1.956 5.545-1.305 1.287-3.19 1.93-5.655 1.93-2.317 0-4.166-.635-5.545-1.903-1.379-1.27-2.069-2.96-2.069-5.075h-5.13c0 3.346 1.177 6.042 3.531 8.083 2.372 2.041 5.443 3.061 9.213 3.061 3.77 0 6.83-1.056 9.184-3.171 2.354-2.115 3.531-4.976 3.531-8.58 0-2.335-.606-4.313-1.82-5.93-1.194-1.62-2.896-2.776-5.103-3.475 1.95-.809 3.486-2.033 4.608-3.67 1.14-1.637 1.709-3.328 1.709-5.075 0-3.567-1.075-6.353-3.227-8.357-2.151-2.004-5.122-3.006-8.91-3.006zm32.3 0c-4.358 0-7.557 1.434-9.598 4.303-2.041 2.869-3.062 7.253-3.062 13.156v6.813c.074 5.646 1.139 9.894 3.199 12.744 2.06 2.832 5.232 4.248 9.517 4.248 4.34 0 7.53-1.452 9.572-4.358 2.041-2.905 3.061-7.347 3.061-13.324v-6.619c-.055-5.774-1.104-10.04-3.145-12.8-2.04-2.776-5.222-4.163-9.543-4.163zm0 4.193c2.63 0 4.552.991 5.766 2.977 1.214 1.968 1.82 5.112 1.82 9.434v8.359c-.056 4.192-.698 7.263-1.93 9.213-1.214 1.949-3.081 2.922-5.6 2.922-2.556 0-4.468-1.028-5.737-3.088-1.25-2.078-1.877-5.287-1.877-9.627V162.2c.037-4.083.653-7.107 1.848-9.074 1.196-1.968 3.1-2.951 5.71-2.951z" style="line-height:1000%;-inkscape-font-specification:Roboto" fill="url(#k)" stroke-width="3.531" transform="translate(-112 -112)"/><path style="line-height:1000%;-inkscape-font-specification:Roboto" d="M32.04 37.174c-2.208 0-3.972.635-5.296 1.904-1.305 1.25-1.959 2.912-1.959 4.99h-5.054c-.027.329-.047.66-.047 1h5.101c0-2.078.654-3.74 1.96-4.99 1.323-1.269 3.087-1.904 5.294-1.904 4.497 0 6.832 2.17 7.016 6.5.007-.146.017-.29.017-.44 0-4.707-2.344-7.06-7.033-7.06zm32.3 0c-2.611 0-4.514.983-5.71 2.951-1.194 1.968-1.812 4.992-1.849 9.074v1c.037-4.082.655-7.106 1.85-9.074s3.098-2.951 5.709-2.951c2.63 0 4.552.992 5.766 2.978 1.213 1.968 1.82 5.113 1.82 9.434v-1c0-4.321-.607-7.466-1.82-9.434-1.214-1.986-3.136-2.978-5.766-2.978zm-20.182 7.654c-.095 1.576-.656 3.107-1.691 4.592-1.122 1.637-2.658 2.86-4.608 3.67.406.128.79.278 1.16.437a9.937 9.937 0 0 0 3.448-3.107c1.14-1.637 1.71-3.327 1.71-5.074 0-.177-.013-.345-.019-.518zm-16.67 10.467v1h3.834c2.703.037 4.773.683 6.207 1.934 1.334 1.162 2.038 2.8 2.131 4.9.007-.174.02-.344.02-.524 0-2.335-.716-4.126-2.15-5.376-1.435-1.25-3.505-1.897-6.208-1.934zm49.541 1.27c0 5.976-1.019 10.418-3.06 13.324-2.041 2.905-5.233 4.357-9.572 4.357-4.285 0-7.458-1.416-9.518-4.248-2.06-2.85-3.126-7.099-3.2-12.744v1c.074 5.645 1.14 9.894 3.2 12.744 2.06 2.832 5.233 4.248 9.518 4.248 4.34 0 7.53-1.452 9.572-4.357 2.041-2.906 3.06-7.348 3.06-13.325zM44.766 62.93c-.094 3.396-1.257 6.117-3.514 8.144-2.354 2.115-5.414 3.172-9.184 3.172-3.77 0-6.84-1.02-9.212-3.06-2.114-1.833-3.271-4.199-3.487-7.084h-.045c0 3.346 1.178 6.042 3.532 8.084 2.372 2.04 5.443 3.06 9.212 3.06 3.77 0 6.83-1.057 9.184-3.172 2.354-2.115 3.531-4.976 3.531-8.58 0-.192-.009-.377-.017-.564z" fill-opacity=".151" stroke-width="3.531"/></g></svg>