<svg xmlns="http://www.w3.org/2000/svg" xmlns:xlink="http://www.w3.org/1999/xlink" height="96" viewBox="0 0 96 96" width="96"><title>Template icons dark</title><defs><linearGradient id="b"><stop offset="0" stop-color="#cfdde2"/><stop offset="1" stop-color="#90a1b1"/></linearGradient><linearGradient id="g"><stop offset="0" stop-color="#fff" stop-opacity="0"/><stop offset=".48" stop-color="#fff"/><stop offset="1" stop-color="#f5f6f6" stop-opacity="0"/></linearGradient><linearGradient id="e"><stop offset="0" stop-color="#eaf2f7"/><stop offset="1" stop-color="#99b4c0"/></linearGradient><linearGradient id="f"><stop offset="0" stop-color="#c1dae3"/><stop offset="1" stop-color="#8a98b4"/></linearGradient><linearGradient id="d"><stop offset="0" stop-color="#d2d2d2"/><stop offset="1" stop-color="#939393"/></linearGradient><linearGradient id="c"><stop offset="0" stop-color="#671e1e"/><stop offset="1" stop-color="#d04044"/></linearGradient><linearGradient xlink:href="#a" id="j" x1="10.43" y1="43.068" x2="38.891" y2="13.193" gradientUnits="userSpaceOnUse" gradientTransform="matrix(.96493 0 0 .96493 -2.123 -5.21)"/><linearGradient id="a"><stop offset="0" stop-color="#0c528e"/><stop offset="1" stop-color="#5fb19b"/></linearGradient><linearGradient xlink:href="#e" id="i" x1="168.352" y1="125.665" x2="168.352" y2="190.817" gradientUnits="userSpaceOnUse"/><linearGradient xlink:href="#g" id="m" x1="146.804" y1="139.479" x2="174.466" y2="139.479" gradientUnits="userSpaceOnUse" gradientTransform="matrix(.43048 0 0 .70272 90.792 41.512)"/><linearGradient xlink:href="#g" id="l" gradientUnits="userSpaceOnUse" gradientTransform="matrix(.4649 0 0 .70272 85.782 74.79)" x1="146.804" y1="139.479" x2="174.466" y2="139.479"/><linearGradient xlink:href="#c" id="k" gradientUnits="userSpaceOnUse" gradientTransform="matrix(.93997 0 0 .93997 9.685 9.956)" x1="162.588" y1="185.95" x2="162.588" y2="134.436"/><linearGradient xlink:href="#b" id="h" gradientUnits="userSpaceOnUse" x1="161.702" y1="118.898" x2="161.702" y2="197.932"/></defs><g color="#000"><path d="M42.482 3c-.764 0-1.19.604-1.381 1.303l-2.93 10.783c-2.002.714-4.63 1.711-6.403 2.638l-9.702-5.584c-.628-.361-1.357-.486-1.898.054l-7.89 7.89c-.54.54-.414 1.261-.054 1.89l5.453 9.533a34.628 34.628 0 0 0-2.838 6.633L4.303 40.978c-.7.189-1.303.617-1.303 1.38v11.16c0 .765.604 1.184 1.303 1.374l10.305 2.807a34.627 34.627 0 0 0 2.846 6.996l-5.314 9.24c-.362.627-.486 1.357.054 1.897l7.89 7.89c.54.54 1.26.414 1.89.054l9.116-5.222a34.628 34.628 0 0 0 7.15 2.985l2.738 10.158c.188.7.616 1.303 1.38 1.303h11.16c.764 0 1.183-.604 1.373-1.303l2.77-10.166a34.629 34.629 0 0 0 7.056-2.97l9.217 5.3c.628.361 1.357.486 1.897-.055l7.89-7.89c.54-.54.415-1.268.055-1.897l-5.345-9.324a34.628 34.628 0 0 0 2.76-6.842l10.506-2.838c.7-.188 1.303-.609 1.303-1.373v-11.16c0-.764-.604-1.19-1.303-1.38l-10.683-2.9a34.628 34.628 0 0 0-2.722-6.464l5.568-9.671c.362-.628.487-1.358-.053-1.898l-7.89-7.89c-.54-.54-1.269-.414-1.898-.054l-9.695 5.553c-2.137-.877-4.374-1.96-6.37-2.607l-2.94-10.867c-.187-.7-.608-1.303-1.372-1.303h-11.16zm5.525 28.584c9.09 0 16.46 7.37 16.46 16.46 0 9.092-7.37 16.462-16.46 16.462-9.092 0-16.461-7.37-16.461-16.461 0-9.091 7.37-16.461 16.46-16.461z" style="isolation:auto;mix-blend-mode:normal;marker:none" overflow="visible" fill="none" stroke="#000" stroke-width="3" stroke-opacity=".168" paint-order="fill markers stroke"/><path style="isolation:auto;mix-blend-mode:normal;marker:none" d="M154.482 115c-.764 0-1.19.604-1.381 1.303l-2.93 10.783c-2.002.714-4.63 1.711-6.403 2.638l-9.702-5.584c-.628-.361-1.357-.486-1.898.054l-7.89 7.89c-.54.54-.414 1.261-.054 1.89l5.453 9.533a34.628 34.628 0 0 0-2.838 6.633l-10.536 2.838c-.7.189-1.303.617-1.303 1.38v11.16c0 .765.604 1.184 1.303 1.374l10.305 2.807a34.627 34.627 0 0 0 2.846 6.996l-5.314 9.24c-.362.627-.487 1.357.054 1.897l7.89 7.89c.54.54 1.26.414 1.89.054l9.116-5.222a34.628 34.628 0 0 0 7.15 2.985l2.738 10.158c.188.7.616 1.303 1.38 1.303h11.16c.764 0 1.183-.604 1.373-1.303l2.77-10.166a34.629 34.629 0 0 0 7.056-2.97l9.217 5.3c.628.361 1.357.486 1.897-.055l7.89-7.89c.54-.54.415-1.268.055-1.897l-5.345-9.324a34.628 34.628 0 0 0 2.76-6.842l10.506-2.838c.7-.188 1.303-.609 1.303-1.373v-11.16c0-.764-.604-1.19-1.303-1.38l-10.683-2.9a34.628 34.628 0 0 0-2.722-6.464l5.568-9.671c.362-.628.486-1.358-.054-1.898l-7.89-7.89c-.54-.54-1.268-.414-1.897-.054l-9.695 5.553c-2.137-.877-4.374-1.96-6.37-2.607l-2.94-10.867c-.188-.7-.608-1.303-1.372-1.303h-11.16zm5.525 28.584c9.09 0 16.46 7.37 16.46 16.46 0 9.092-7.37 16.462-16.46 16.462-9.092 0-16.461-7.37-16.461-16.461 0-9.091 7.37-16.461 16.46-16.461z" overflow="visible" fill="url(#h)" stroke-width="1.872" stroke-opacity=".141" paint-order="fill markers stroke" transform="translate(-112 -112)"/><path style="line-height:normal;text-indent:0;text-align:start;text-decoration-line:none;text-decoration-style:solid;text-decoration-color:#000;text-transform:none;isolation:auto;mix-blend-mode:normal;marker:none" d="M48.006 12.488c-19.54 0-35.518 15.965-35.518 35.506 0 19.54 15.977 35.518 35.518 35.518 19.54 0 35.506-15.978 35.506-35.518S67.547 12.488 48.006 12.488zm.001 7.533c15.548 0 27.971 12.424 27.971 27.971 0 15.548-12.423 27.987-27.97 27.987A27.87 27.87 0 0 1 20.02 47.992c0-15.547 12.438-27.97 27.986-27.97z" font-weight="400" font-family="sans-serif" white-space="normal" overflow="visible" fill-opacity=".173" stroke-width="3.294" stroke-opacity=".141" paint-order="fill markers stroke"/><path d="M160.006 125.563c-18.95 0-34.443 15.482-34.443 34.431 0 18.95 15.494 34.443 34.443 34.443 18.95 0 34.431-15.494 34.431-34.443 0-18.95-15.482-34.431-34.431-34.431zm0 7.305c15.078 0 27.126 12.047 27.126 27.125 0 15.077-12.048 27.139-27.125 27.139a27.027 27.027 0 0 1-27.14-27.14c0-15.077 12.063-27.124 27.14-27.124z" style="line-height:normal;text-indent:0;text-align:start;text-decoration-line:none;text-decoration-style:solid;text-decoration-color:#000;text-transform:none;isolation:auto;mix-blend-mode:normal;marker:none" font-weight="400" font-family="sans-serif" white-space="normal" overflow="visible" fill="url(#i)" stroke-width="3.194" stroke-opacity=".141" paint-order="fill markers stroke" transform="translate(-112 -112)"/><path d="M160.005 132.859c-14.935 0-27.146 12.202-27.146 27.136 0 14.935 12.211 27.146 27.146 27.146 14.934 0 27.136-12.211 27.136-27.146 0-14.934-12.202-27.136-27.136-27.136zm.002 6.849a20.245 20.245 0 0 1 20.337 20.337c0 11.304-9.033 20.348-20.337 20.348a20.264 20.264 0 0 1-20.348-20.348c0-11.305 9.043-20.337 20.348-20.337z" style="line-height:normal;text-indent:0;text-align:start;text-decoration-line:none;text-decoration-style:solid;text-decoration-color:#000;text-transform:none;isolation:auto;mix-blend-mode:normal;marker:none" font-weight="400" font-family="sans-serif" white-space="normal" overflow="visible" fill="url(#j)" stroke-width="2" paint-order="fill markers stroke" transform="translate(-112 -112)"/><path style="line-height:normal;text-indent:0;text-align:start;text-decoration-line:none;text-decoration-style:solid;text-decoration-color:#000;text-transform:none;isolation:auto;mix-blend-mode:normal;marker:none" d="M160.005 132.859c-14.935 0-27.146 12.202-27.146 27.136 0 14.935 12.211 27.146 27.146 27.146 14.934 0 27.136-12.211 27.136-27.146 0-14.934-12.202-27.136-27.136-27.136zm.002 6.849a20.245 20.245 0 0 1 20.337 20.337c0 11.304-9.033 20.348-20.337 20.348a20.264 20.264 0 0 1-20.348-20.348c0-11.305 9.043-20.337 20.348-20.337z" font-weight="400" font-family="sans-serif" white-space="normal" overflow="visible" fill="url(#k)" stroke-width="2.518" stroke-opacity=".141" paint-order="fill markers stroke" transform="translate(-112 -112)"/><path style="line-height:normal;text-indent:0;text-align:start;text-decoration-line:none;text-decoration-style:solid;text-decoration-color:#000;text-transform:none;isolation:auto;mix-blend-mode:normal;marker:none" d="M48.004 20.86c-14.934 0-27.145 12.202-27.145 27.136 0 .168.01.333.012.5.27-14.705 12.366-26.637 27.133-26.637s26.855 11.932 27.125 26.637c.003-.167.012-.332.012-.5 0-14.934-12.203-27.137-27.137-27.137z" font-weight="400" font-family="sans-serif" white-space="normal" overflow="visible" fill-opacity=".283" stroke-width="2.518" stroke-opacity=".141" paint-order="fill markers stroke"/><path style="isolation:auto;mix-blend-mode:normal;marker:none" d="M42.482 3c-.763 0-1.19.603-1.38 1.303L38.17 15.086c-2.001.714-4.63 1.711-6.402 2.639l-9.702-5.584c-.628-.362-1.358-.486-1.898.054l-7.89 7.889c-.406.405-.434.913-.272 1.406.059-.142.145-.28.271-.406l7.891-7.889c.54-.54 1.27-.416 1.898-.054l9.702 5.584c1.772-.928 4.4-1.925 6.402-2.64l2.932-10.782c.19-.7.617-1.303 1.38-1.303h11.16c.764 0 1.185.605 1.374 1.305l2.937 10.867c1.996.646 4.234 1.728 6.371 2.605l9.696-5.552c.629-.36 1.356-.486 1.896.054l7.89 7.89c.128.128.215.267.274.411.162-.495.131-1.006-.273-1.41l-7.89-7.89c-.541-.54-1.268-.415-1.897-.055l-9.696 5.552c-2.137-.877-4.375-1.959-6.37-2.605L55.015 4.305c-.189-.7-.61-1.305-1.373-1.305zM17.404 32.03a34.62 34.62 0 0 0-2.564 6.11L4.303 40.98c-.7.188-1.303.617-1.303 1.38v1c0-.763.603-1.192 1.303-1.38L14.84 39.14a34.626 34.626 0 0 1 2.838-6.633zm61.159.236l-.272.472a34.625 34.625 0 0 1 2.723 6.463l10.683 2.9c.7.19 1.303.618 1.303 1.381v-1c0-.763-.603-1.19-1.303-1.38l-10.683-2.9a34.614 34.614 0 0 0-2.451-5.936zm-61.38 32.896l-5.044 8.772c-.277.48-.41 1.02-.219 1.488.054-.166.128-.33.219-.488l5.314-9.239c-.095-.175-.178-.356-.27-.533zm61.514 0c-.09.177-.174.358-.267.533l5.345 9.325c.09.157.165.32.22.486.19-.469.056-1.006-.22-1.486z" overflow="visible" fill="#fff" fill-opacity=".675" stroke-width="1.872" stroke-opacity=".141" paint-order="fill markers stroke"/><path style="line-height:normal;text-indent:0;text-align:start;text-decoration-line:none;text-decoration-style:solid;text-decoration-color:#000;text-transform:none;isolation:auto;mix-blend-mode:normal;marker:none" d="M48.005 29.015c-11.52 0-20.941 9.413-20.941 20.934s9.42 20.941 20.941 20.941c11.521 0 20.934-9.42 20.934-20.94 0-11.522-9.413-20.935-20.934-20.935zm-.002 8.606A12.32 12.32 0 0 1 60.38 49.997a12.325 12.325 0 0 1-12.376 12.382 12.331 12.331 0 0 1-12.382-12.382A12.325 12.325 0 0 1 48.003 37.62z" font-weight="400" font-family="sans-serif" white-space="normal" overflow="visible" fill-opacity=".168" stroke-width="2.042" stroke-opacity=".141" paint-order="fill markers stroke"/><path d="M48.063 27.17c-11.52 0-20.94 9.414-20.94 20.935 0 11.52 9.42 20.94 20.94 20.94 11.521 0 20.934-9.42 20.934-20.94 0-11.521-9.413-20.934-20.934-20.934zm.001 8.512A12.32 12.32 0 0 1 60.44 48.058 12.325 12.325 0 0 1 48.064 60.44a12.331 12.331 0 0 1-12.382-12.382 12.325 12.325 0 0 1 12.382-12.376z" style="line-height:normal;text-indent:0;text-align:start;text-decoration-line:none;text-decoration-style:solid;text-decoration-color:#000;text-transform:none;isolation:auto;mix-blend-mode:normal;marker:none" font-weight="400" font-family="sans-serif" white-space="normal" overflow="visible" fill="#b1c7d0" stroke-width="2.042" stroke-opacity=".141" paint-order="fill markers stroke"/><path style="line-height:normal;text-indent:0;text-align:start;text-decoration-line:none;text-decoration-style:solid;text-decoration-color:#000;text-transform:none;isolation:auto;mix-blend-mode:normal;marker:none" d="M48.074 60.461a12.325 12.325 0 0 1-12.382-12.375c0-.169.018-.333.025-.5.261 6.641 5.648 11.241 12.357 11.241 6.71 0 12.089-4.6 12.35-11.24.007.166.025.33.025.5A12.319 12.319 0 0 1 48.074 60.46z" font-weight="400" font-family="sans-serif" white-space="normal" overflow="visible" fill="#718085" stroke-width="2.042" stroke-opacity=".141" paint-order="fill markers stroke"/><path style="line-height:normal;text-indent:0;text-align:start;text-decoration-line:none;text-decoration-style:solid;text-decoration-color:#000;text-transform:none;isolation:auto;mix-blend-mode:normal;marker:none" d="M48.063 27.171c-11.521 0-20.94 9.412-20.94 20.933 0 .16.008.317.01.476.257-11.303 9.568-20.457 20.93-20.457 11.361 0 20.666 9.154 20.921 20.457.004-.159.013-.316.013-.476 0-11.52-9.413-20.933-20.934-20.933zM35.707 48.56c-.007.167-.025.33-.025.5a12.33 12.33 0 0 0 12.382 12.38A12.323 12.323 0 0 0 60.44 49.06c0-.17-.018-.333-.025-.5-.261 6.641-5.64 11.88-12.35 11.88S35.968 55.2 35.707 48.56z" font-weight="400" font-family="sans-serif" white-space="normal" overflow="visible" fill="#fff" fill-opacity=".691" stroke-width="2.042" stroke-opacity=".141" paint-order="fill markers stroke"/><path style="isolation:auto;mix-blend-mode:normal;marker:none" overflow="visible" fill="url(#l)" stroke-width="1.143" paint-order="fill markers stroke" d="M154.031 172.294h12.86v1.023h-12.86z" transform="translate(-112 -112)"/><path style="isolation:auto;mix-blend-mode:normal;marker:none" overflow="visible" fill="url(#m)" stroke-width="1.1" paint-order="fill markers stroke" d="M153.988 139.016h11.908v1.023h-11.908z" transform="translate(-112 -112)"/></g></svg>