<svg xmlns="http://www.w3.org/2000/svg" xmlns:xlink="http://www.w3.org/1999/xlink" height="96" viewBox="0 0 96 96" width="96"><title>Template icons dark</title><defs><linearGradient id="k"><stop offset="0" stop-color="#4c4553"/><stop offset="1" stop-color="#3b3144" stop-opacity=".969"/></linearGradient><linearGradient id="j"><stop offset="0" stop-color="#3d3743"/><stop offset="1" stop-color="#2f2736" stop-opacity=".969"/></linearGradient><linearGradient id="d"><stop offset="0" stop-color="#f87c32"/><stop offset="1" stop-color="#fdab5a" stop-opacity=".996"/></linearGradient><linearGradient id="i"><stop offset="0" stop-color="#fff" stop-opacity=".125"/><stop offset="1" stop-color="#fff" stop-opacity="0"/></linearGradient><linearGradient id="h"><stop offset="0" stop-color="#fff" stop-opacity=".198"/><stop offset="1" stop-color="#fff" stop-opacity="0"/></linearGradient><linearGradient id="g"><stop offset="0" stop-color="#2c3749"/><stop offset="1" stop-color="#3d3c63"/></linearGradient><linearGradient id="f"><stop offset="0" stop-opacity=".129"/><stop offset=".347" stop-color="#4f4f4f" stop-opacity="0"/><stop offset=".765" stop-color="#8d8d8d" stop-opacity="0"/><stop offset="1" stop-color="#fff" stop-opacity=".104"/></linearGradient><linearGradient id="o"><stop offset="0" stop-opacity=".057"/><stop offset=".909" stop-color="#fff" stop-opacity=".02"/><stop offset="1" stop-color="#fff" stop-opacity=".536"/></linearGradient><linearGradient id="e"><stop offset="0" stop-color="#ff994a"/><stop offset="1" stop-color="#ffb555"/></linearGradient><linearGradient id="n"><stop offset="0" stop-opacity="0"/><stop offset=".887" stop-opacity=".078"/><stop offset="1" stop-color="#fff" stop-opacity=".464"/></linearGradient><linearGradient id="m"><stop offset="0" stop-opacity="0"/><stop offset=".887" stop-opacity=".078"/><stop offset="1" stop-opacity=".188"/></linearGradient><linearGradient id="l"><stop offset="0" stop-opacity=".057"/><stop offset=".909" stop-opacity=".021"/><stop offset="1" stop-opacity=".505"/></linearGradient><linearGradient id="c"><stop offset="0" stop-color="#f88232"/><stop offset="1" stop-color="#fdc85a" stop-opacity=".995"/></linearGradient><linearGradient id="b"><stop offset="0" stop-color="#ed7837" stop-opacity=".974"/><stop offset="1" stop-color="#e45a2a"/></linearGradient><linearGradient id="a"><stop offset="0" stop-color="#403a47"/><stop offset="1" stop-color="#2c2533" stop-opacity=".971"/></linearGradient><linearGradient xlink:href="#a" id="p" x1="158.551" y1="120" x2="158.551" y2="196.51" gradientUnits="userSpaceOnUse" gradientTransform="matrix(1.04383 0 0 1.04383 -7.013 -7.013)"/><linearGradient xlink:href="#b" id="r" x1="159.873" y1="151.837" x2="159.873" y2="167.94" gradientUnits="userSpaceOnUse" gradientTransform="matrix(1.38877 0 0 1.38877 -62.202 -62.202)"/><linearGradient xlink:href="#c" id="s" gradientUnits="userSpaceOnUse" gradientTransform="matrix(-.90137 .22421 -.22421 -.90137 21.96 50.916)" x1="-95.591" y1="-143.575" x2="-67.254" y2="-126.208"/><linearGradient xlink:href="#c" id="u" gradientUnits="userSpaceOnUse" gradientTransform="translate(-63.89 12.935)" x1="-112.967" y1="-156.148" x2="-80.17" y2="-124.045"/><linearGradient xlink:href="#c" id="v" gradientUnits="userSpaceOnUse" gradientTransform="translate(-63.89 12.935)" x1="295.286" y1="-123.22" x2="267.135" y2="-118.871"/><linearGradient xlink:href="#d" id="w" gradientUnits="userSpaceOnUse" gradientTransform="translate(-63.89 12.935)" x1="104.202" y1="237.968" x2="124.46" y2="214.022"/><linearGradient xlink:href="#e" id="q" x1="161.189" y1="172.735" x2="162.769" y2="145.544" gradientUnits="userSpaceOnUse"/><linearGradient xlink:href="#c" id="t" gradientUnits="userSpaceOnUse" gradientTransform="matrix(.48072 0 0 .48072 -168.588 43.164)" x1="-112.967" y1="-156.148" x2="-80.17" y2="-124.045"/><linearGradient xlink:href="#f" id="D" x1="187.697" y1="190.626" x2="187.697" y2="176.858" gradientUnits="userSpaceOnUse" gradientTransform="matrix(1.03733 0 0 1.0303 -6.834 -5.42)"/><linearGradient xlink:href="#g" id="C" x1="188" y1="191" x2="188" y2="177" gradientUnits="userSpaceOnUse"/><linearGradient xlink:href="#c" id="z" gradientUnits="userSpaceOnUse" gradientTransform="matrix(-.08416 -.70185 .70185 -.08416 255.76 65.755)" x1="-101.254" y1="-148.008" x2="-84.616" y2="-106.562"/><linearGradient xlink:href="#h" id="E" x1="158.559" y1="119" x2="158.559" y2="151" gradientUnits="userSpaceOnUse" gradientTransform="translate(.978 .978) scale(.99389)"/><linearGradient xlink:href="#i" id="F" gradientUnits="userSpaceOnUse" gradientTransform="matrix(1.04277 0 0 1.04277 -6.843 -6.843)" x1="158.559" y1="119" x2="158.559" y2="151"/><radialGradient xlink:href="#l" id="x" cx="-176.577" cy="-137.64" fx="-176.577" fy="-137.64" r="15.364" gradientTransform="matrix(1.58777 .76678 -.87886 1.81986 -17.179 250.083)" gradientUnits="userSpaceOnUse"/><radialGradient xlink:href="#n" id="A" gradientUnits="userSpaceOnUse" gradientTransform="matrix(.90487 .43354 -.57789 1.20613 135.629 -42.31)" cx="24.007" cy="220.792" fx="24.007" fy="220.792" r="18.085"/><radialGradient xlink:href="#m" id="y" gradientUnits="userSpaceOnUse" gradientTransform="matrix(.8931 .4279 -.57037 1.19044 134.003 -38.805)" cx="24.007" cy="220.792" fx="24.007" fy="220.792" r="18.085"/><radialGradient xlink:href="#o" id="B" gradientUnits="userSpaceOnUse" gradientTransform="matrix(1.61172 .77834 -.89211 1.8473 -14.718 255.928)" cx="-176.577" cy="-137.64" fx="-176.577" fy="-137.64" r="15.364"/></defs><g transform="translate(-112 -112)"><circle r="45" cy="160" cx="160" style="isolation:auto;mix-blend-mode:normal;marker:none" color="#000" display="block" overflow="visible" fill-opacity=".104" stroke-width=".095" stroke-miterlimit="4.6" paint-order="fill markers stroke"/><path style="isolation:auto;mix-blend-mode:normal;marker:none" d="M204 160a44 44 0 0 1-44 44 44 44 0 0 1-44-44 44 44 0 0 1 44-44 44 44 0 0 1 44 44z" color="#000" display="block" overflow="visible" fill="#191520" stroke-width=".093" stroke-miterlimit="4.6" paint-order="fill markers stroke"/><path style="isolation:auto;mix-blend-mode:normal;marker:none" d="M202 160a42 42 0 0 1-42 42 42 42 0 0 1-42-42 42 42 0 0 1 42-42 42 42 0 0 1 42 42z" color="#000" display="block" overflow="visible" fill="url(#p)" stroke-width=".089" stroke-miterlimit="4.6" paint-order="fill markers stroke"/><path style="isolation:auto;mix-blend-mode:normal;marker:none" d="M199.191 160A39.191 39.191 0 0 1 160 199.191 39.191 39.191 0 0 1 120.809 160 39.191 39.191 0 0 1 160 120.809 39.191 39.191 0 0 1 199.191 160z" color="#000" display="block" overflow="visible" fill="none" stroke="#000" stroke-width="5.552" stroke-miterlimit="4.6" stroke-opacity=".109" paint-order="fill markers stroke"/><path style="isolation:auto;mix-blend-mode:normal;marker:none" d="M193.326 160A33.326 33.326 0 0 1 160 193.326 33.326 33.326 0 0 1 126.674 160 33.326 33.326 0 0 1 160 126.674 33.326 33.326 0 0 1 193.326 160z" color="#000" display="block" overflow="visible" fill="none" stroke="#000" stroke-width="7.411" stroke-miterlimit="4.6" stroke-opacity=".125" paint-order="fill markers stroke"/><path style="isolation:auto;mix-blend-mode:normal;marker:none" d="M186.847 160A26.847 26.847 0 0 1 160 186.847 26.847 26.847 0 0 1 133.153 160 26.847 26.847 0 0 1 160 133.153 26.847 26.847 0 0 1 186.847 160z" color="#000" display="block" overflow="visible" fill="none" stroke="#000" stroke-width="6.404" stroke-miterlimit="4.6" stroke-opacity=".089" paint-order="fill markers stroke"/><path style="isolation:auto;mix-blend-mode:normal;marker:none" d="M197.264 160A37.264 37.264 0 0 1 160 197.264 37.264 37.264 0 0 1 122.736 160 37.264 37.264 0 0 1 160 122.736 37.264 37.264 0 0 1 197.264 160z" color="#000" display="block" overflow="visible" fill="none" stroke="#fbfbfb" stroke-width=".499" stroke-miterlimit="4.6" stroke-opacity=".099" paint-order="fill markers stroke"/><path style="isolation:auto;mix-blend-mode:normal;marker:none" d="M190.33 160A30.33 30.33 0 0 1 160 190.33 30.33 30.33 0 0 1 129.67 160 30.33 30.33 0 0 1 160 129.67 30.33 30.33 0 0 1 190.33 160z" color="#000" display="block" overflow="visible" fill="none" stroke="#fbfbfb" stroke-width=".457" stroke-miterlimit="4.6" stroke-opacity=".12" paint-order="fill markers stroke"/><path style="isolation:auto;mix-blend-mode:normal;marker:none" d="M184.101 160A24.101 24.101 0 0 1 160 184.101 24.101 24.101 0 0 1 135.899 160 24.101 24.101 0 0 1 160 135.899 24.101 24.101 0 0 1 184.101 160z" color="#000" display="block" overflow="visible" fill="none" stroke="#fbfbfb" stroke-width=".5" stroke-miterlimit="4.6" stroke-opacity=".141" paint-order="fill markers stroke"/><path style="isolation:auto;mix-blend-mode:normal;marker:none" d="M173.61 160a13.61 13.61 0 0 1-10.595 13.273 13.61 13.61 0 0 1-15.29-7.392 13.61 13.61 0 0 1 3.82-16.548L160 160z" color="#000" display="block" overflow="visible" fill="none" fill-opacity=".943" stroke="url(#q)" stroke-width="4.724" stroke-miterlimit="4.6" paint-order="fill markers stroke"/><path style="isolation:auto;mix-blend-mode:normal;marker:none" d="M168.68 160.74a8.68 8.68 0 0 1-8.68 8.681 8.68 8.68 0 0 1-8.68-8.68 8.68 8.68 0 0 1 8.68-8.681 8.68 8.68 0 0 1 8.68 8.68z" color="#000" display="block" overflow="visible" fill="none" fill-opacity=".943" stroke="#000" stroke-width="5.289" stroke-miterlimit="4.6" stroke-opacity=".354" paint-order="fill markers stroke"/><path style="isolation:auto;mix-blend-mode:normal;marker:none" d="M183.502 160A23.502 23.502 0 0 1 160 183.502 23.502 23.502 0 0 1 136.498 160 23.502 23.502 0 0 1 160 136.498 23.502 23.502 0 0 1 183.502 160z" color="#000" display="block" overflow="visible" fill="none" stroke="#000" stroke-width=".488" stroke-miterlimit="4.6" stroke-opacity=".344" paint-order="fill markers stroke"/><path style="isolation:auto;mix-blend-mode:normal;marker:none" d="M168.68 160a8.68 8.68 0 0 1-8.68 8.68 8.68 8.68 0 0 1-8.68-8.68 8.68 8.68 0 0 1 8.68-8.68 8.68 8.68 0 0 1 8.68 8.68z" color="#000" display="block" overflow="visible" fill="none" fill-opacity=".943" stroke="url(#r)" stroke-width="5.289" stroke-miterlimit="4.6" paint-order="fill markers stroke"/><path style="isolation:auto;mix-blend-mode:normal;marker:none" d="M122.351 169.688a39.028 39.028 0 0 1 1.806-24.33l36.068 14.91z" color="#000" display="block" overflow="visible" fill="url(#s)" stroke-width="27.167" stroke-miterlimit="4.6" paint-order="fill markers stroke"/><path transform="rotate(-142.434)" style="isolation:auto;mix-blend-mode:normal;marker:none" d="M-204.17-29.032a20.2 20.2 0 0 1-9.978 17.422l-10.222-17.422z" color="#000" display="block" overflow="visible" fill="url(#t)" stroke-width="14.06" stroke-miterlimit="4.6" paint-order="fill markers stroke"/><path transform="rotate(-172.409)" style="isolation:auto;mix-blend-mode:normal;marker:none" d="M-137.91-137.246a42.018 42.018 0 0 1-20.755 36.24l-21.263-36.24z" color="#000" display="block" overflow="visible" fill="url(#u)" stroke-width="29.248" stroke-miterlimit="4.6" paint-order="fill markers stroke"/><path transform="rotate(74.668)" style="isolation:auto;mix-blend-mode:normal;marker:none" d="M226.831-112.289a30.48 30.48 0 0 1-15.056 26.29l-15.424-26.29z" color="#000" display="block" overflow="visible" fill="url(#v)" stroke-width="29.248" stroke-miterlimit="4.6" paint-order="fill markers stroke"/><path style="isolation:auto;mix-blend-mode:normal;marker:none" d="M118.215 159.87a42.018 42.018 0 0 1 .343-5.46l41.675 5.36z" color="#000" display="block" overflow="visible" fill-opacity=".219" stroke-width="29.248" stroke-miterlimit="4.6" paint-order="fill markers stroke"/><path transform="rotate(-41.817)" style="isolation:auto;mix-blend-mode:normal;marker:none" d="M60.609 225.833a48 48 0 0 1-14.06 33.941l-33.94-33.94z" color="#000" display="block" overflow="visible" fill="url(#w)" stroke-width="29.248" stroke-miterlimit="4.6" paint-order="fill markers stroke"/><path style="isolation:auto;mix-blend-mode:normal;marker:none" d="M181.563 140.601a28.911 28.911 0 0 1 7.32 20.882l-28.866-1.605z" color="#000" display="block" overflow="visible" fill="#fef6f0" fill-opacity=".422" stroke-width=".5" stroke-miterlimit="4.6" stroke-opacity=".307" paint-order="fill markers stroke"/><path transform="rotate(-172.409)" style="isolation:auto;mix-blend-mode:normal;marker:none" d="M-149.887-137.246a30.04 30.04 0 0 1-14.84 25.91l-15.201-25.91z" color="#000" display="block" overflow="visible" fill="none" stroke="url(#x)" stroke-width=".5" stroke-miterlimit="4.6" paint-order="fill markers stroke"/><path transform="rotate(-41.817)" style="isolation:auto;mix-blend-mode:normal;marker:none" d="M49.39 225.848a36.71 36.71 0 0 1-10.753 25.958L12.68 225.848z" color="#000" display="block" overflow="visible" fill="none" stroke="url(#y)" stroke-width=".507" stroke-miterlimit="4.6" paint-order="fill markers stroke"/><path style="isolation:auto;mix-blend-mode:normal;marker:none" d="M160.204 130.052a29.769 29.769 0 0 1 1.217.025l-1.221 29.744z" color="#000" display="block" overflow="visible" fill-opacity=".198" stroke-width="20.722" stroke-miterlimit="4.6" paint-order="fill markers stroke"/><path style="isolation:auto;mix-blend-mode:normal;marker:none" d="M161.304 130.158A29.702 29.702 0 0 1 180 137.767l-19.878 22.069z" color="#000" display="block" overflow="visible" fill="url(#z)" stroke-width="20.675" stroke-miterlimit="4.6" paint-order="fill markers stroke"/><path transform="rotate(-41.817)" style="isolation:auto;mix-blend-mode:normal;marker:none" d="M49.9 225.83a37.195 37.195 0 0 1-10.894 26.301l-26.3-26.3z" color="#000" display="block" overflow="visible" fill="none" stroke="url(#A)" stroke-width=".514" stroke-miterlimit="4.6" paint-order="fill markers stroke"/><path style="isolation:auto;mix-blend-mode:normal;marker:none" d="M207.9 162.57a48 48 0 0 1-.442 4.346l-47.485-7.016z" color="#000" display="block" overflow="visible" fill="#141414" fill-opacity=".463" stroke-width="29.248" stroke-miterlimit="4.6" paint-order="fill markers stroke"/><path style="isolation:auto;mix-blend-mode:normal;marker:none" d="M168.024 160a8.024 8.024 0 0 1-8.024 8.024 8.024 8.024 0 0 1-8.024-8.024 8.024 8.024 0 0 1 8.024-8.024 8.024 8.024 0 0 1 8.024 8.024z" color="#000" display="block" overflow="visible" fill="#37313e" stroke-width=".166" stroke-miterlimit="4.6" stroke-opacity=".344" paint-order="fill markers stroke"/><path style="isolation:auto;mix-blend-mode:normal;marker:none" d="M165.576 160a5.576 5.576 0 0 1-5.576 5.576 5.576 5.576 0 0 1-5.576-5.576 5.576 5.576 0 0 1 5.576-5.576 5.576 5.576 0 0 1 5.576 5.576z" color="#000" display="block" overflow="visible" fill-opacity=".198" stroke-width=".116" stroke-miterlimit="4.6" stroke-opacity=".344" paint-order="fill markers stroke"/><path style="isolation:auto;mix-blend-mode:normal;marker:none" d="M163.867 160a3.867 3.867 0 0 1-3.867 3.867 3.867 3.867 0 0 1-3.867-3.867 3.867 3.867 0 0 1 3.867-3.867 3.867 3.867 0 0 1 3.867 3.867z" color="#000" display="block" overflow="visible" fill="#fff" fill-opacity=".943" stroke-width=".08" stroke-miterlimit="4.6" stroke-opacity=".344" paint-order="fill markers stroke"/><path style="isolation:auto;mix-blend-mode:normal;marker:none" d="M167.66 160a7.66 7.66 0 0 1-7.66 7.66 7.66 7.66 0 0 1-7.66-7.66 7.66 7.66 0 0 1 7.66-7.66 7.66 7.66 0 0 1 7.66 7.66z" color="#000" display="block" overflow="visible" fill="none" stroke="#000" stroke-width=".65" stroke-miterlimit="4.6" stroke-opacity=".526" paint-order="fill markers stroke"/><path transform="rotate(-172.409)" style="isolation:auto;mix-blend-mode:normal;marker:none" d="M-149.427-137.243a30.494 30.494 0 0 1-15.064 26.302l-15.43-26.302z" color="#000" display="block" overflow="visible" fill="none" stroke="url(#B)" stroke-width=".508" stroke-miterlimit="4.6" paint-order="fill markers stroke"/><path style="isolation:auto;mix-blend-mode:normal;marker:none" d="M174 176h28v18h-28z" color="#000" display="block" overflow="visible" fill-opacity=".427" stroke-width="5.756" stroke-miterlimit="4.6" paint-order="fill markers stroke"/><path style="isolation:auto;mix-blend-mode:normal;marker:none" d="M173 175h28v18h-28z" color="#000" display="block" overflow="visible" fill="url(#C)" stroke-width="5.756" stroke-miterlimit="4.6" paint-order="fill markers stroke"/><path style="line-height:normal;font-variant-ligatures:normal;font-variant-position:normal;font-variant-caps:normal;font-variant-numeric:normal;font-variant-alternates:normal;font-feature-settings:normal;text-indent:0;text-align:start;text-decoration-line:none;text-decoration-style:solid;text-decoration-color:#000;text-transform:none;text-orientation:mixed;shape-padding:0;isolation:auto;mix-blend-mode:normal;marker:none" d="M173 175v18h28v-18zm1 1h26v15.937L174 192z" color="#000" font-weight="400" font-family="sans-serif" white-space="normal" display="block" overflow="visible" fill="url(#D)" stroke-width=".517" stroke-miterlimit="4.6" paint-order="fill markers stroke"/><path d="M201.743 160A41.743 41.743 0 0 1 160 201.743 41.743 41.743 0 0 1 118.257 160 41.743 41.743 0 0 1 160 118.257 41.743 41.743 0 0 1 201.743 160z" style="isolation:auto;mix-blend-mode:normal;marker:none" color="#000" display="block" overflow="visible" fill="none" stroke="url(#E)" stroke-width=".497" stroke-miterlimit="4.6" paint-order="fill markers stroke"/><path style="isolation:auto;mix-blend-mode:normal;marker:none" d="M203.796 160A43.796 43.796 0 0 1 160 203.796 43.796 43.796 0 0 1 116.204 160 43.796 43.796 0 0 1 160 116.204 43.796 43.796 0 0 1 203.796 160z" color="#000" display="block" overflow="visible" fill="none" stroke="url(#F)" stroke-width=".521" stroke-miterlimit="4.6" paint-order="fill markers stroke"/><path d="M190.913 185.854q-.68 0-1.07.578-.383.578-.383 1.61 0 1.015.382 1.601.391.578 1.07.578.665 0 1.048-.578.39-.586.39-1.601 0-1.024-.39-1.602-.383-.586-1.047-.586zm0-.992q1.234 0 1.96.86.727.859.727 2.32 0 1.46-.734 2.32-.727.851-1.953.851-1.25 0-1.977-.851-.726-.86-.726-2.32 0-1.47.726-2.32.735-.86 1.977-.86zm-8.063-4.758q-.672 0-1.062.586-.383.578-.383 1.594 0 1.031.383 1.61.383.577 1.062.577.68 0 1.063-.578.39-.578.39-1.61 0-1.007-.39-1.593-.39-.586-1.063-.586zm7.055-.992h1.25l-7.297 12.101h-1.25zm-7.055 0q1.235 0 1.969.86.734.85.734 2.312 0 1.476-.734 2.328-.727.851-1.969.851t-1.969-.851q-.718-.86-.718-2.328 0-1.453.726-2.313.727-.86 1.961-.86z" style="line-height:1000%" font-size="16" font-family="sans-serif" letter-spacing="0" word-spacing="0" fill-opacity=".396"/><path d="M190.913 184.854q-.68 0-1.07.578-.383.578-.383 1.61 0 1.015.382 1.601.391.578 1.07.578.665 0 1.048-.578.39-.586.39-1.601 0-1.024-.39-1.602-.383-.586-1.047-.586zm0-.992q1.234 0 1.96.86.727.859.727 2.32 0 1.46-.734 2.32-.727.851-1.953.851-1.25 0-1.977-.851-.726-.86-.726-2.32 0-1.47.726-2.32.735-.86 1.977-.86zm-8.063-4.758q-.672 0-1.062.586-.383.578-.383 1.594 0 1.031.383 1.61.383.577 1.062.577.68 0 1.063-.578.39-.578.39-1.61 0-1.007-.39-1.593-.39-.586-1.063-.586zm7.055-.992h1.25l-7.297 12.101h-1.25zm-7.055 0q1.235 0 1.969.86.734.85.734 2.312 0 1.476-.734 2.328-.727.851-1.969.851t-1.969-.851q-.718-.86-.718-2.328 0-1.453.726-2.313.727-.86 1.961-.86z" style="line-height:1000%" font-size="16" font-family="sans-serif" letter-spacing="0" word-spacing="0" fill="#fff"/></g></svg>