<svg xmlns="http://www.w3.org/2000/svg" xmlns:xlink="http://www.w3.org/1999/xlink" height="96" viewBox="0 0 96 96" width="96" id="svg2"><title id="title4675">Template icons dark</title><defs id="defs22"><linearGradient id="linearGradient11855"><stop offset="0" id="stop11851" stop-opacity=".471"/><stop offset="1" id="stop11853" stop-opacity=".398"/></linearGradient><linearGradient id="linearGradient11845"><stop offset="0" id="stop11841" stop-opacity=".283"/><stop offset="1" id="stop11843" stop-color="#96d4fd" stop-opacity=".492"/></linearGradient><linearGradient id="linearGradient1272"><stop offset="0" id="stop1268" stop-color="#d4e4ef"/><stop offset="1" id="stop1270" stop-color="#c5b3cb"/></linearGradient><linearGradient id="linearGradient1264"><stop offset="0" id="stop1260" stop-color="#6c69e5" stop-opacity=".263"/><stop offset="1" id="stop1262" stop-color="#f3c6f8" stop-opacity=".272"/></linearGradient><linearGradient id="linearGradient1176"><stop offset="0" id="stop1172" stop-color="#5ca5ff"/><stop offset="1" id="stop1174" stop-color="#eb81ff"/></linearGradient><linearGradient id="linearGradient1151"><stop offset="0" id="stop1147" stop-color="#2395e4" stop-opacity=".979"/><stop offset="1" id="stop1149" stop-color="#40d0f0" stop-opacity=".984"/></linearGradient><linearGradient id="linearGradient1109"><stop offset="0" id="stop1105" stop-color="#d9dce8" stop-opacity=".99"/><stop offset="1" id="stop1107" stop-color="#ebf3ef" stop-opacity=".99"/></linearGradient><linearGradient id="linearGradient1064"><stop offset="0" id="stop1060" stop-color="#191c24"/><stop offset="1" id="stop1062" stop-color="#656177"/></linearGradient><linearGradient xlink:href="#linearGradient1064" id="linearGradient1066" x1="125" y1="203" x2="195" y2="117.567" gradientUnits="userSpaceOnUse"/><linearGradient xlink:href="#linearGradient1109" id="linearGradient1111" x1="194" y1="193.493" x2="194" y2="175.102" gradientUnits="userSpaceOnUse"/><linearGradient xlink:href="#linearGradient1064" id="linearGradient1165" gradientUnits="userSpaceOnUse" x1="125" y1="203" x2="195" y2="117.567"/><linearGradient xlink:href="#linearGradient1176" id="linearGradient1178" x1="129" y1="200" x2="191.567" y2="121" gradientUnits="userSpaceOnUse"/><linearGradient xlink:href="#linearGradient1151" id="linearGradient1185" gradientUnits="userSpaceOnUse" x1="144" y1="200" x2="179.567" y2="133" gradientTransform="matrix(1 0 0 1.01389 0 -1.833)"/><linearGradient xlink:href="#linearGradient1264" id="linearGradient1266" x1="128" y1="118" x2="193" y2="118" gradientUnits="userSpaceOnUse"/><linearGradient xlink:href="#linearGradient1272" id="linearGradient1274" x1="132.528" y1="193" x2="189" y2="122" gradientUnits="userSpaceOnUse"/><linearGradient xlink:href="#linearGradient1064" id="linearGradient1279" gradientUnits="userSpaceOnUse" x1="125" y1="203" x2="195" y2="117.567"/><linearGradient xlink:href="#linearGradient11845" id="linearGradient11847" x1="155" y1="196.575" x2="158.173" y2="206" gradientUnits="userSpaceOnUse"/><linearGradient xlink:href="#linearGradient11855" id="linearGradient11857" x1="159" y1="196" x2="159" y2="200" gradientUnits="userSpaceOnUse"/><linearGradient gradientTransform="matrix(1.33333 0 0 1.33333 58.138 57.825)" xlink:href="#linearGradient1272" id="linearGradient1274-3" x1="132.528" y1="193" x2="189" y2="122" gradientUnits="userSpaceOnUse"/><linearGradient gradientTransform="matrix(1.33333 0 0 1.33333 58.138 57.825)" xlink:href="#linearGradient1064" id="linearGradient1165-5" gradientUnits="userSpaceOnUse" x1="125" y1="203" x2="195" y2="117.567"/><linearGradient gradientTransform="matrix(1.33333 0 0 1.33333 58.138 57.825)" xlink:href="#linearGradient1264" id="linearGradient1266-6" x1="128" y1="118" x2="193" y2="118" gradientUnits="userSpaceOnUse"/><linearGradient gradientTransform="matrix(1.33333 0 0 1.33333 58.138 57.825)" xlink:href="#linearGradient1176" id="linearGradient1178-1" x1="129" y1="200" x2="191.567" y2="121" gradientUnits="userSpaceOnUse"/><linearGradient xlink:href="#linearGradient1151" id="linearGradient1185-0" gradientUnits="userSpaceOnUse" x1="144" y1="200" x2="179.567" y2="133" gradientTransform="matrix(1.33333 0 0 1.35185 58.138 55.381)"/><linearGradient gradientTransform="matrix(1.33333 0 0 1.33333 58.138 57.825)" xlink:href="#linearGradient11855" id="linearGradient11857-6" x1="159" y1="196" x2="159" y2="200" gradientUnits="userSpaceOnUse"/><linearGradient gradientTransform="matrix(1.33333 0 0 1.33333 58.138 57.825)" xlink:href="#linearGradient11845" id="linearGradient11847-1" x1="155" y1="196.575" x2="158.173" y2="206" gradientUnits="userSpaceOnUse"/><linearGradient xlink:href="#linearGradient11855" id="linearGradient1417" gradientUnits="userSpaceOnUse" gradientTransform="matrix(1.33333 0 0 1.33333 58.138 57.825)" x1="159" y1="196" x2="159" y2="200"/><linearGradient xlink:href="#linearGradient1064" id="linearGradient1419" gradientUnits="userSpaceOnUse" x1="125" y1="203" x2="195" y2="117.567"/><linearGradient xlink:href="#linearGradient1109" id="linearGradient1421" gradientUnits="userSpaceOnUse" x1="194" y1="193.493" x2="194" y2="175.102"/><linearGradient xlink:href="#linearGradient1064" id="linearGradient1423" gradientUnits="userSpaceOnUse" x1="125" y1="203" x2="195" y2="117.567"/><linearGradient gradientTransform="matrix(.67667 0 0 .67667 -28.242 -28.112)" xlink:href="#linearGradient1272" id="linearGradient1274-4" x1="132.528" y1="193" x2="189" y2="122" gradientUnits="userSpaceOnUse"/><linearGradient gradientTransform="matrix(.67667 0 0 .67667 -28.242 -28.112)" xlink:href="#linearGradient1064" id="linearGradient1165-54" gradientUnits="userSpaceOnUse" x1="125" y1="203" x2="195" y2="117.567"/><linearGradient gradientTransform="matrix(.67667 0 0 .67667 -28.242 -28.112)" xlink:href="#linearGradient1264" id="linearGradient1266-4" x1="128" y1="118" x2="193" y2="118" gradientUnits="userSpaceOnUse"/><linearGradient gradientTransform="matrix(.67667 0 0 .67667 -28.242 -28.112)" xlink:href="#linearGradient1176" id="linearGradient1178-7" x1="129" y1="200" x2="191.567" y2="121" gradientUnits="userSpaceOnUse"/><linearGradient xlink:href="#linearGradient1151" id="linearGradient1185-8" gradientUnits="userSpaceOnUse" x1="144" y1="200" x2="179.567" y2="133" gradientTransform="matrix(.67667 0 0 .68606 -28.242 -29.352)"/><linearGradient gradientTransform="matrix(.67667 0 0 .67667 -28.242 -28.112)" xlink:href="#linearGradient11855" id="linearGradient11857-4" x1="159" y1="196" x2="159" y2="200" gradientUnits="userSpaceOnUse"/><linearGradient gradientTransform="matrix(.67667 0 0 .67667 -28.242 -28.112)" xlink:href="#linearGradient11845" id="linearGradient11847-0" x1="155" y1="196.575" x2="158.173" y2="206" gradientUnits="userSpaceOnUse"/><linearGradient xlink:href="#linearGradient11855" id="linearGradient1575" gradientUnits="userSpaceOnUse" gradientTransform="matrix(.67667 0 0 .67667 -28.242 -28.112)" x1="159" y1="196" x2="159" y2="200"/><linearGradient xlink:href="#linearGradient1064" id="linearGradient1577" gradientUnits="userSpaceOnUse" x1="125" y1="203" x2="195" y2="117.567"/><linearGradient xlink:href="#linearGradient1109" id="linearGradient1579" gradientUnits="userSpaceOnUse" x1="194" y1="193.493" x2="194" y2="175.102"/><linearGradient xlink:href="#linearGradient1064" id="linearGradient1581" gradientUnits="userSpaceOnUse" x1="125" y1="203" x2="195" y2="117.567"/><linearGradient gradientTransform="matrix(.5 0 0 .5 -56.025 -55.557)" xlink:href="#linearGradient1272" id="linearGradient1274-9" x1="132.528" y1="193" x2="189" y2="122" gradientUnits="userSpaceOnUse"/><linearGradient gradientTransform="matrix(.5 0 0 .5 -56.025 -55.557)" xlink:href="#linearGradient1064" id="linearGradient1165-0" gradientUnits="userSpaceOnUse" x1="125" y1="203" x2="195" y2="117.567"/><linearGradient gradientTransform="matrix(.5 0 0 .5 -56.025 -55.557)" xlink:href="#linearGradient1264" id="linearGradient1266-5" x1="128" y1="118" x2="193" y2="118" gradientUnits="userSpaceOnUse"/><linearGradient xlink:href="#linearGradient1151" id="linearGradient1185-5" gradientUnits="userSpaceOnUse" x1="144" y1="200" x2="179.567" y2="133" gradientTransform="matrix(.5 0 0 .50694 -56.025 -56.474)"/><linearGradient xlink:href="#linearGradient11855" id="linearGradient1733" gradientUnits="userSpaceOnUse" gradientTransform="matrix(.5 0 0 .5 -56.025 -55.557)" x1="159" y1="196" x2="159" y2="200"/><linearGradient xlink:href="#linearGradient1064" id="linearGradient1735" gradientUnits="userSpaceOnUse" x1="125" y1="203" x2="195" y2="117.567"/><linearGradient xlink:href="#linearGradient1109" id="linearGradient1737" gradientUnits="userSpaceOnUse" x1="194" y1="193.493" x2="194" y2="175.102"/><linearGradient xlink:href="#linearGradient1064" id="linearGradient1739" gradientUnits="userSpaceOnUse" x1="125" y1="203" x2="195" y2="117.567"/><linearGradient gradientTransform="matrix(.33833 0 0 .33833 -69.748 -70.527)" xlink:href="#linearGradient1272" id="linearGradient1274-9-2" x1="132.528" y1="193" x2="189" y2="122" gradientUnits="userSpaceOnUse"/><linearGradient gradientTransform="matrix(.33833 0 0 .33833 -69.748 -70.527)" xlink:href="#linearGradient1064" id="linearGradient1165-0-0" gradientUnits="userSpaceOnUse" x1="125" y1="203" x2="195" y2="117.567"/><linearGradient gradientTransform="matrix(.33833 0 0 .33833 -69.748 -70.527)" xlink:href="#linearGradient1264" id="linearGradient1266-5-4" x1="128" y1="118" x2="193" y2="118" gradientUnits="userSpaceOnUse"/><linearGradient xlink:href="#linearGradient1151" id="linearGradient1185-5-2" gradientUnits="userSpaceOnUse" x1="144" y1="200" x2="179.567" y2="133" gradientTransform="matrix(.33833 0 0 .34303 -69.748 -71.147)"/><linearGradient xlink:href="#linearGradient11855" id="linearGradient1733-1" gradientUnits="userSpaceOnUse" gradientTransform="matrix(.33833 0 0 .33833 -69.748 -70.527)" x1="159" y1="196" x2="159" y2="200"/><linearGradient xlink:href="#linearGradient1064" id="linearGradient1939" gradientUnits="userSpaceOnUse" x1="125" y1="203" x2="195" y2="117.567"/><linearGradient xlink:href="#linearGradient1109" id="linearGradient1941" gradientUnits="userSpaceOnUse" x1="194" y1="193.493" x2="194" y2="175.102"/><linearGradient xlink:href="#linearGradient1064" id="linearGradient1943" gradientUnits="userSpaceOnUse" x1="125" y1="203" x2="195" y2="117.567"/><linearGradient xlink:href="#linearGradient11855" id="linearGradient1733-1-1" gradientUnits="userSpaceOnUse" gradientTransform="translate(-85.264 -85.19) scale(.25506)" x1="159" y1="196" x2="159" y2="200"/><linearGradient xlink:href="#linearGradient1151" id="linearGradient1185-5-2-6" gradientUnits="userSpaceOnUse" x1="144" y1="200" x2="179.567" y2="133" gradientTransform="matrix(.25506 0 0 .2586 -85.264 -85.657)"/><linearGradient gradientTransform="translate(-85.264 -85.19) scale(.25506)" xlink:href="#linearGradient1264" id="linearGradient1266-5-4-3" x1="128" y1="118" x2="193" y2="118" gradientUnits="userSpaceOnUse"/><linearGradient gradientTransform="translate(-85.264 -85.19) scale(.25506)" xlink:href="#linearGradient1064" id="linearGradient1165-0-0-5" gradientUnits="userSpaceOnUse" x1="125" y1="203" x2="195" y2="117.567"/><linearGradient gradientTransform="translate(-85.264 -85.19) scale(.25506)" xlink:href="#linearGradient1272" id="linearGradient1274-9-2-6" x1="132.528" y1="193" x2="189" y2="122" gradientUnits="userSpaceOnUse"/><linearGradient xlink:href="#linearGradient1151" id="linearGradient1185-5-2-6-8" gradientUnits="userSpaceOnUse" x1="144" y1="200" x2="179.567" y2="133" gradientTransform="matrix(.16911 0 0 .17146 -90.921 -91.584)"/><linearGradient gradientTransform="matrix(.16911 0 0 .16911 -90.921 -91.274)" xlink:href="#linearGradient1064" id="linearGradient1165-0-0-5-4" gradientUnits="userSpaceOnUse" x1="125" y1="203" x2="195" y2="117.567"/><linearGradient gradientTransform="matrix(.16911 0 0 .16911 -90.921 -91.274)" xlink:href="#linearGradient1272" id="linearGradient1274-9-2-6-6" x1="132.528" y1="193" x2="189" y2="122" gradientUnits="userSpaceOnUse"/><style id="style51071-8">.str0{stroke:#1f1a17;stroke-width:3}.fil0{fill:none}</style><style id="style2031-6">.str0{stroke:#1f1a17;stroke-width:.0762}.fil0,.fil1{fill:none}.fil1{fill-rule:nonzero}</style><style id="style5368-2">.str0,.str1{stroke:#000;stroke-width:63}.str1{stroke:#09098f}.fil5{fill:none}.fil1,.fil2{fill:#000}.fil3{fill:#4d66cc}.fil0{fill:#576ecd}.fil4{fill:#89a1d4}</style><style id="style51071">.str0{stroke:#1f1a17;stroke-width:3}.fil0{fill:none}</style><style id="style2031">.str0{stroke:#1f1a17;stroke-width:.0762}.fil0,.fil1{fill:none}.fil1{fill-rule:nonzero}</style><style id="style5368">.str0,.str1{stroke:#000;stroke-width:63}.str1{stroke:#09098f}.fil5{fill:none}.fil1,.fil2{fill:#000}.fil3{fill:#4d66cc}.fil0{fill:#576ecd}.fil4{fill:#89a1d4}</style></defs><g id="g8840" transform="translate(-112 -112)"><g id="g8838"><path style="isolation:auto;mix-blend-mode:normal;marker:none" d="M123 115h74v90h-74z" id="rect1160" color="#000" overflow="visible" fill="#00010a" fill-opacity=".173" stroke-opacity="0"/><path style="isolation:auto;mix-blend-mode:normal;marker:none" d="M132 124h56v72h-56z" id="rect1187" color="#000" overflow="visible" fill="url(#linearGradient1274)" stroke-opacity="0"/><path style="isolation:auto;mix-blend-mode:normal;marker:none" d="M124 116v88h72v-88zm8 8h56v72h-56z" id="rect1029" color="#000" overflow="visible" fill="url(#linearGradient1165)" stroke-opacity="0"/><path style="isolation:auto;mix-blend-mode:normal;marker:none" d="M132 196v-72l-4-4v80z" id="path1244" color="#000" overflow="visible" fill="#8b86b5" fill-opacity=".435" stroke-opacity="0"/><path id="path1250" d="M188 196h-56l-4 4h64z" style="isolation:auto;mix-blend-mode:normal;marker:none" color="#000" overflow="visible" fill="#d4cfff" fill-opacity=".366" stroke-opacity="0"/><path id="path1246" d="M188 196v-72l4-4v80z" style="isolation:auto;mix-blend-mode:normal;marker:none" color="#000" overflow="visible" fill-opacity=".099" stroke-opacity="0"/><path style="isolation:auto;mix-blend-mode:normal;marker:none" d="M188 124h-56l-4-4h64z" id="path1248" color="#000" overflow="visible" fill="#00010a" fill-opacity=".346" stroke-opacity="0"/><path id="path1258" d="M192 120h-64l-4-4h72z" style="isolation:auto;mix-blend-mode:normal;marker:none" color="#000" overflow="visible" fill="url(#linearGradient1266)" stroke-opacity="0"/><path style="isolation:auto;mix-blend-mode:normal;marker:none" d="M128 120h64v79.937h-64z" id="rect1170" color="#000" overflow="visible" fill="none" fill-opacity=".262" stroke="url(#linearGradient1178)" stroke-width=".5" stroke-opacity=".98" paint-order="stroke fill markers"/><path style="isolation:auto;mix-blend-mode:normal;marker:none" d="M139.985 133.986h40.03c1.1 0 1.985.885 1.985 1.985v.044a1.98 1.98 0 0 1-1.985 1.985h-40.03a1.98 1.98 0 0 1-1.985-1.985v-.044c0-1.1.885-1.985 1.985-1.985z" id="rect1276" color="#000" display="block" overflow="visible" fill="#2d2d2d" fill-opacity=".995" stroke-width=".403"/><path style="isolation:auto;mix-blend-mode:normal;marker:none" d="M142 136h36s2 1.99 2 3.995v52.116l2 3.889-1 4 7.102 7h-56.078l6.976-7-1-4 2-3.766v-52.213c0-1.98 2-4.021 2-4.021z" id="rect1145" color="#000" overflow="visible" fill="url(#linearGradient1185)" stroke-width=".655" stroke-opacity=".262" paint-order="stroke fill markers"/><path id="path1156" d="M172.577 178.348a1.501 1.501 0 0 1-.483-.275c-.756-.312-1.548-.537-2.253-.971-.246-.04-.483-.1-.652-.307-.129-.035-.236-.122-.364-.157a1.605 1.605 0 0 1-.908-.585c-.141-.094-.292-.178-.424-.286a.572.572 0 0 1-.318-.417c-.062-.27-.142-.539-.214-.807-.097-.27-.101-.554-.158-.832-.033-.155-.07-.29-.24-.338a.337.337 0 0 0-.155-.036c-.108 0-.213.043-.318.066a.783.783 0 0 1-.168.02c-.208.001-.327-.117-.367-.389-.034-.242-.1-.486-.111-.726-.026-.536-.106-1.104.401-1.498.592-1.214 1.028-2.486 1.382-3.792.08-.293.217-.541.602-.552.23-.005.42-.171.495-.424.227-.766.444-1.537.794-2.26.107-.527.365-1.016.387-1.565-.005-.11.025-.219.014-.327l-.061-.117-.058-.044c.01-.234.029-.468.02-.7-.01-.329-.166-.6-.48-.683-.292-.077-.345-.24-.328-.502.067-1.03.124-2.061.185-3.092l-.01-.096-.001-.062c-.03-.313-.057-.626-.092-.937-.083-.746-.161-1.499-.548-2.16a7.46 7.46 0 0 0-3.078-2.926c-1.1-.567-2.295-.85-3.497-1.093a8.58 8.58 0 0 0-1.721-.18c-1.809 0-3.457.633-4.94 1.917l.015.053c-.22.142-.392.331-.514.563-.233.44-.572.798-.922 1.132-.648.614-1.003 1.326-.898 2.232l-.071.042-.08.114c-.156.736.041 1.468.038 2.202.179.62.182 1.261.233 1.898.028.349-.067.585-.4.705-.423.15-.593.496-.649.91-.058.434-.07.866.047 1.298.165.606.338 1.208.53 1.805.306.504.492 1.066.602 1.633.072.376.228.592.55.713.268.098.415.283.473.56.094.441.257.86.39 1.29.154.348.408.658.41 1.065l.03.123c.737 1.19 1.13 2.436.647 3.836a.319.319 0 0 1-.242.117c-.169 0-.337-.13-.506-.134l-.129-.002c-.191 0-.342.03-.392.285-.191.608-.293 1.24-.483 1.848-.102.332-.269.574-.58.734-.685.35-1.378.67-2.115.88-.49.353-1.083.461-1.631.666-.601.225-1.22.396-1.84.555 7.362 4.553 19.362 3.883 25.153.01z" style="isolation:auto;mix-blend-mode:normal;marker:none" color="#000" overflow="visible" fill="#040a54" fill-opacity=".309" stroke-width=".523" stroke-opacity="0"/><path style="isolation:auto;mix-blend-mode:normal;marker:none" d="M172.577 177.335a1.501 1.501 0 0 1-.483-.276c-.756-.312-1.548-.537-2.253-.971-.246-.04-.483-.1-.652-.307-.129-.034-.236-.122-.364-.157a1.606 1.606 0 0 1-.908-.585c-.141-.094-.292-.178-.424-.286a.572.572 0 0 1-.318-.417c-.062-.27-.142-.539-.214-.806-.097-.27-.101-.555-.158-.833-.033-.155-.07-.29-.24-.338a.337.337 0 0 0-.155-.035c-.108 0-.213.043-.318.065a.783.783 0 0 1-.168.02c-.208.001-.327-.117-.367-.388-.034-.243-.1-.487-.111-.727-.026-.536-.106-1.104.401-1.498.592-1.214 1.028-2.486 1.382-3.791.08-.294.217-.542.602-.553.23-.005.42-.17.495-.424.227-.766.444-1.537.794-2.26.107-.527.365-1.016.387-1.565-.005-.11.025-.218.014-.327l-.061-.117-.058-.044c.01-.234.029-.468.02-.7-.01-.329-.166-.6-.48-.683-.292-.077-.345-.24-.328-.502.067-1.03.124-2.061.185-3.092l-.01-.096-.001-.061c-.03-.313-.057-.627-.092-.938-.083-.746-.161-1.499-.548-2.16a7.46 7.46 0 0 0-3.078-2.925c-1.1-.568-2.295-.85-3.497-1.094a8.58 8.58 0 0 0-1.721-.18c-1.809 0-3.457.633-4.94 1.917l.015.053c-.22.142-.392.331-.514.563-.233.44-.572.799-.922 1.132-.648.614-1.003 1.326-.898 2.233l-.071.041-.08.114c-.156.736.041 1.468.038 2.202.179.62.182 1.261.233 1.898.028.349-.067.585-.4.705-.423.15-.593.496-.649.91-.058.434-.07.866.047 1.298.165.606.338 1.208.53 1.805.306.504.492 1.066.602 1.633.072.376.228.592.55.713.268.098.415.284.473.56.094.441.257.86.39 1.29.154.348.408.658.41 1.066l.03.122c.737 1.19 1.13 2.436.647 3.836a.319.319 0 0 1-.242.117c-.169 0-.337-.13-.506-.134l-.129-.002c-.191 0-.342.03-.392.285-.191.608-.293 1.24-.483 1.848-.102.332-.269.574-.58.734-.685.35-1.378.67-2.115.88-.49.353-1.083.461-1.631.666-.601.225-1.22.396-1.84.555 7.362 4.553 19.362 3.883 25.153.01z" id="path1043" color="#000" overflow="visible" fill="#eff9ff" stroke-width=".523" stroke-opacity="0"/><path style="isolation:auto;mix-blend-mode:normal;marker:none" d="M138 196h44l-1 4h-42z" id="rect11836" color="#000" display="block" overflow="visible" fill="url(#linearGradient11857)" stroke-width=".4"/><path id="path11839" d="M139 200h42.102l7 7-56.102.024z" style="isolation:auto;mix-blend-mode:normal;marker:none" color="#000" display="block" overflow="visible" fill="url(#linearGradient11847)" stroke-width=".4"/><path id="path11849" d="M138 196h44l-.526-1h-42.939z" style="isolation:auto;mix-blend-mode:normal;marker:none" color="#000" display="block" overflow="visible" fill="#b7f4ea" fill-opacity=".592" stroke-width=".4"/><path id="path11859" d="M136 203l45.102-3H139z" style="isolation:auto;mix-blend-mode:normal;marker:none" color="#000" display="block" overflow="visible" fill="url(#linearGradient11857)" stroke-width=".4"/><path style="isolation:auto;mix-blend-mode:normal;marker:none" d="M142 136h36l1.458 2s-12.94-2-19.458-2c-6.519 0-19.449 2-19.449 2z" id="rect1152" color="#000" display="block" overflow="visible" fill-opacity=".361" stroke-width=".5" stroke-opacity="0"/><g id="g11818" transform="matrix(.61596 0 0 .61596 49.553 76.39)" color="#000"><g id="g11788" transform="translate(0 1.686)"><path style="isolation:auto;mix-blend-mode:normal;marker:none" d="M119.5 127h.425c3.601 0 6.5 2.899 6.5 6.5s-2.899 6.5-6.5 6.5h-.425a6.486 6.486 0 0 1-6.5-6.5c0-3.601 2.899-6.5 6.5-6.5z" id="rect11773" display="block" overflow="visible" fill-opacity=".288" stroke-width=".4"/><path style="isolation:auto;mix-blend-mode:normal;marker:none" d="M119.492 126h.425c3.601 0 6.5 2.899 6.5 6.5s-2.899 6.5-6.5 6.5h-.425a6.486 6.486 0 0 1-6.5-6.5c0-3.601 2.9-6.5 6.5-6.5z" id="rect11775" display="block" overflow="visible" fill="#343441" stroke-width=".4"/><path style="isolation:auto;mix-blend-mode:normal;marker:none" d="M124.157 132.5a4.453 4.453 0 0 1-4.452 4.453 4.453 4.453 0 0 1-4.453-4.453 4.453 4.453 0 0 1 4.453-4.453 4.453 4.453 0 0 1 4.452 4.453z" id="circle11777" display="block" overflow="visible" fill="#fbfbfb" stroke-width=".524"/></g><g transform="translate(0 27.694)" id="g11796"><path style="isolation:auto;mix-blend-mode:normal;marker:none" d="M119.5 127h.425c3.601 0 6.5 2.899 6.5 6.5s-2.899 6.5-6.5 6.5h-.425a6.486 6.486 0 0 1-6.5-6.5c0-3.601 2.899-6.5 6.5-6.5z" id="rect11790" display="block" overflow="visible" fill-opacity=".288" stroke-width=".4"/><path style="isolation:auto;mix-blend-mode:normal;marker:none" d="M119.492 126h.425c3.601 0 6.5 2.899 6.5 6.5s-2.899 6.5-6.5 6.5h-.425a6.486 6.486 0 0 1-6.5-6.5c0-3.601 2.9-6.5 6.5-6.5z" id="rect11792" display="block" overflow="visible" fill="#343441" stroke-width=".4"/><path style="isolation:auto;mix-blend-mode:normal;marker:none" d="M124.157 132.5a4.453 4.453 0 0 1-4.452 4.453 4.453 4.453 0 0 1-4.453-4.453 4.453 4.453 0 0 1 4.453-4.453 4.453 4.453 0 0 1 4.452 4.453z" id="circle11794" display="block" overflow="visible" fill="#fbfbfb" stroke-width=".524"/></g><g id="g11804" transform="translate(0 53.7)"><path style="isolation:auto;mix-blend-mode:normal;marker:none" d="M119.5 127h.425c3.601 0 6.5 2.899 6.5 6.5s-2.899 6.5-6.5 6.5h-.425a6.486 6.486 0 0 1-6.5-6.5c0-3.601 2.899-6.5 6.5-6.5z" id="rect11798" display="block" overflow="visible" fill-opacity=".288" stroke-width=".4"/><path style="isolation:auto;mix-blend-mode:normal;marker:none" d="M119.492 126h.425c3.601 0 6.5 2.899 6.5 6.5s-2.899 6.5-6.5 6.5h-.425a6.486 6.486 0 0 1-6.5-6.5c0-3.601 2.9-6.5 6.5-6.5z" id="rect11800" display="block" overflow="visible" fill="#343441" stroke-width=".4"/><path style="isolation:auto;mix-blend-mode:normal;marker:none" d="M124.157 132.5a4.453 4.453 0 0 1-4.452 4.453 4.453 4.453 0 0 1-4.453-4.453 4.453 4.453 0 0 1 4.453-4.453 4.453 4.453 0 0 1 4.452 4.453z" id="circle11802" display="block" overflow="visible" fill="#fbfbfb" stroke-width=".524"/></g><g id="g11826" transform="translate(0 -24.32)"><path style="isolation:auto;mix-blend-mode:normal;marker:none" d="M119.5 127h.425c3.601 0 6.5 2.899 6.5 6.5s-2.899 6.5-6.5 6.5h-.425a6.486 6.486 0 0 1-6.5-6.5c0-3.601 2.899-6.5 6.5-6.5z" id="rect11820" display="block" overflow="visible" fill-opacity=".288" stroke-width=".4"/><path style="isolation:auto;mix-blend-mode:normal;marker:none" d="M119.492 126h.425c3.601 0 6.5 2.899 6.5 6.5s-2.899 6.5-6.5 6.5h-.425a6.486 6.486 0 0 1-6.5-6.5c0-3.601 2.9-6.5 6.5-6.5z" id="rect11822" display="block" overflow="visible" fill="#343441" stroke-width=".4"/><path style="isolation:auto;mix-blend-mode:normal;marker:none" d="M124.157 132.5a4.453 4.453 0 0 1-4.452 4.453 4.453 4.453 0 0 1-4.453-4.453 4.453 4.453 0 0 1 4.453-4.453 4.453 4.453 0 0 1 4.452 4.453z" id="circle11824" display="block" overflow="visible" fill="#fbfbfb" stroke-width=".524"/></g><g transform="translate(0 -50.328)" id="g11834"><path style="isolation:auto;mix-blend-mode:normal;marker:none" d="M119.5 127h.425c3.601 0 6.5 2.899 6.5 6.5s-2.899 6.5-6.5 6.5h-.425a6.486 6.486 0 0 1-6.5-6.5c0-3.601 2.899-6.5 6.5-6.5z" id="rect11828" display="block" overflow="visible" fill-opacity=".288" stroke-width=".4"/><path style="isolation:auto;mix-blend-mode:normal;marker:none" d="M119.492 126h.425c3.601 0 6.5 2.899 6.5 6.5s-2.899 6.5-6.5 6.5h-.425a6.486 6.486 0 0 1-6.5-6.5c0-3.601 2.9-6.5 6.5-6.5z" id="rect11830" display="block" overflow="visible" fill="#343441" stroke-width=".4"/><path style="isolation:auto;mix-blend-mode:normal;marker:none" d="M124.157 132.5a4.453 4.453 0 0 1-4.452 4.453 4.453 4.453 0 0 1-4.453-4.453 4.453 4.453 0 0 1 4.453-4.453 4.453 4.453 0 0 1 4.452 4.453z" id="circle11832" display="block" overflow="visible" fill="#fbfbfb" stroke-width=".524"/></g></g><g id="g1058" transform="matrix(.67415 0 0 .67415 62.562 64.418)"><path style="isolation:auto;mix-blend-mode:normal;marker:none" d="M205 184.819a13 13 0 0 1-13 13 13 13 0 0 1-13-13 13 13 0 0 1 13-13 13 13 0 0 1 13 13z" id="path1046" color="#000" display="block" overflow="visible" fill="url(#linearGradient1279)" stroke="#000" stroke-width=".7" stroke-opacity=".262" paint-order="stroke fill markers"/><path style="isolation:auto;mix-blend-mode:normal;marker:none" d="M203 185.294a11 11 0 0 1-11 11 11 11 0 0 1-11-11 11 11 0 0 1 11-11 11 11 0 0 1 11 11z" id="circle1101" color="#000" display="block" overflow="visible" fill-opacity=".377" stroke-width=".846" stroke-opacity="0"/><path style="isolation:auto;mix-blend-mode:normal;marker:none" d="M203 184.819a11 11 0 0 1-11 11 11 11 0 0 1-11-11 11 11 0 0 1 11-11 11 11 0 0 1 11 11z" id="circle1136" color="#000" display="block" overflow="visible" fill="url(#linearGradient1111)" stroke-width=".846" stroke-opacity="0"/><path d="M189.852 185.029q0 1.238.615 1.948.614.701 1.688.701 1.065 0 1.672-.71.614-.71.614-1.94 0-1.212-.623-1.922-.624-.719-1.68-.719-1.048 0-1.671.71-.615.71-.615 1.932zm4.72 2.589q-.52.667-1.196.987-.667.312-1.559.312-1.489 0-2.424-1.074-.927-1.082-.927-2.814t.935-2.815q.936-1.082 2.416-1.082.892 0 1.568.329.675.32 1.186.978v-1.134h1.239v6.373q1.264-.19 1.974-1.151.719-.97.719-2.503 0-.927-.277-1.74-.269-.815-.823-1.507-.9-1.135-2.2-1.732-1.29-.607-2.814-.607-1.065 0-2.044.286-.978.277-1.81.831-1.36.884-2.13 2.321-.762 1.43-.762 3.1 0 1.377.494 2.581.502 1.204 1.446 2.122.91.9 2.104 1.368 1.195.476 2.555.476 1.117 0 2.19-.38 1.083-.373 1.984-1.074l.78.96q-1.083.84-2.365 1.282-1.273.45-2.59.45-1.601 0-3.021-.57-1.42-.564-2.53-1.646-1.108-1.083-1.688-2.503-.58-1.429-.58-3.065 0-1.577.589-3.005.589-1.43 1.68-2.512 1.117-1.1 2.58-1.68 1.464-.589 3.1-.589 1.837 0 3.404.754 1.576.753 2.641 2.139.65.848.988 1.844.346.996.346 2.061 0 2.278-1.377 3.594-1.377 1.316-3.802 1.368z" style="line-height:1000%;-inkscape-font-specification:font;marker:none" id="path1052" font-weight="400" font-family="font" letter-spacing="0" word-spacing="0" fill="url(#linearGradient1066)" stroke-opacity="0"/><path style="isolation:auto;mix-blend-mode:normal;marker:none" d="M192 173.818a11 11 0 0 0-11 11 11 11 0 0 0 .021.586A11 11 0 0 1 192 174.818a11 11 0 0 1 10.979 10.414 11 11 0 0 0 .021-.414 11 11 0 0 0-11-11z" id="circle1140" color="#000" display="block" overflow="visible" fill="#fff" stroke-width=".846" stroke-opacity="0"/></g><g id="use11751" transform="translate(85.488 130.623)" stroke="#000"><title id="title11765">Left Arrow</title></g></g></g></svg>