<svg xmlns="http://www.w3.org/2000/svg" xmlns:xlink="http://www.w3.org/1999/xlink" height="96" viewBox="0 0 96 96" width="96"><title>Template icons dark</title><defs><linearGradient id="a"><stop offset="0" stop-color="#003783"/><stop offset="1" stop-color="#69e5ff"/></linearGradient><linearGradient xlink:href="#a" id="b" gradientUnits="userSpaceOnUse" x1="120" y1="120" x2="203.055" y2="204"/></defs><path style="isolation:auto;mix-blend-mode:normal;marker:none" d="M11 11h74v74H11z" color="#000" display="block" overflow="visible" fill-opacity=".141" stroke-width="2.313" stroke-opacity=".079" paint-order="fill markers stroke"/><path style="isolation:auto;mix-blend-mode:normal;marker:none" d="M12 12h72.014v72.014H12z" color="#000" display="block" overflow="visible" fill="#5b5b5b" stroke-width="2.25" stroke-opacity=".079" paint-order="fill markers stroke"/><path style="isolation:auto;mix-blend-mode:normal;marker:none" d="M36 36h24v24H36z" color="#000" display="block" overflow="visible" fill="#79859c" stroke-width=".75" stroke-opacity=".079" paint-order="fill markers stroke"/><path style="isolation:auto;mix-blend-mode:normal;marker:none" d="M36 12h24v24H36z" color="#000" display="block" overflow="visible" fill="#696e82" stroke-width=".75" stroke-opacity=".079" paint-order="fill markers stroke"/><path style="isolation:auto;mix-blend-mode:normal;marker:none" d="M12 12h24v24H12z" color="#000" display="block" overflow="visible" fill="#565a68" stroke-width=".75" stroke-opacity=".079" paint-order="fill markers stroke"/><path style="isolation:auto;mix-blend-mode:normal;marker:none" d="M12 36h24v24H12z" color="#000" display="block" overflow="visible" fill="#777a8b" stroke-width=".75" stroke-opacity=".079" paint-order="fill markers stroke"/><path style="isolation:auto;mix-blend-mode:normal;marker:none" d="M60 36h24v24H60z" color="#000" display="block" overflow="visible" fill="#8d98b6" stroke-width=".75" stroke-opacity=".079" paint-order="fill markers stroke"/><path style="isolation:auto;mix-blend-mode:normal;marker:none" d="M60 12h24v24H60z" color="#000" display="block" overflow="visible" fill="#7a8399" stroke-width=".75" stroke-opacity=".079" paint-order="fill markers stroke"/><path style="isolation:auto;mix-blend-mode:normal;marker:none" d="M36 60h24v24H36z" color="#000" display="block" overflow="visible" fill="#9098b0" stroke-width=".75" stroke-opacity=".079" paint-order="fill markers stroke"/><path style="isolation:auto;mix-blend-mode:normal;marker:none" d="M12 60h24v24H12z" color="#000" display="block" overflow="visible" fill="#818da2" stroke-width=".75" stroke-opacity=".079" paint-order="fill markers stroke"/><path d="M60 60h24v24H60z" style="isolation:auto;mix-blend-mode:normal;marker:none" color="#000" display="block" overflow="visible" fill="#a3acc3" stroke-width=".75" stroke-opacity=".079" paint-order="fill markers stroke"/><path style="isolation:auto;mix-blend-mode:normal;marker:none" d="M12 83.052h72.014V84H12z" color="#000" display="block" overflow="visible" fill="#fff" fill-opacity=".257" stroke-width=".258" stroke-opacity=".079" paint-order="fill markers stroke"/><path style="line-height:1000%" d="M73.343 16.183c-2.374 0-4.242.727-5.608 2.184-1.365 1.449-2.048 3.434-2.048 5.955 0 2.513.683 4.499 2.048 5.955 1.366 1.45 3.234 2.174 5.608 2.174.924 0 1.799-.127 2.625-.38a8.642 8.642 0 0 0 2.363-1.134v-2.215c-.714.665-1.477 1.161-2.289 1.49a6.731 6.731 0 0 1-2.572.495c-1.793 0-3.165-.547-4.117-1.64-.953-1.098-1.428-2.68-1.428-4.745 0-2.073.475-3.654 1.428-4.746.952-1.1 2.324-1.65 4.117-1.65.91 0 1.767.164 2.572.493.812.33 1.575.827 2.29 1.493v-2.239a8.269 8.269 0 0 0-2.343-1.113 9.024 9.024 0 0 0-2.646-.377zm-49.633.283l-5.986 15.68h2.238l1.428-4.023h7.066l1.43 4.023h2.205l-5.977-15.68zm19.957 0v15.68h5.629c1.757 0 3.112-.381 4.064-1.145.953-.763 1.428-1.845 1.428-3.246 0-1.064-.29-1.949-.871-2.656-.574-.714-1.383-1.184-2.426-1.408.868-.14 1.527-.494 1.975-1.06.448-.568.672-1.33.672-2.29 0-1.239-.438-2.195-1.313-2.867-.875-.672-2.123-1.008-3.74-1.008zm2.121 1.744h3.14c1.037 0 1.807.196 2.311.588.511.392.766.983.766 1.774 0 .798-.255 1.393-.766 1.785-.504.385-1.274.578-2.31.578h-3.14zm-20.88.346l2.888 7.803H22.03zm20.88 6.102h3.402c1.142 0 1.986.234 2.532.703.553.462.83 1.184.83 2.164 0 .973-.277 1.698-.83 2.174-.546.469-1.39.703-2.532.703h-3.402zM23.71 44.099c-.63 0-1.278.071-1.943.211a12.57 12.57 0 0 0-2.059.61v1.785a7.785 7.785 0 0 1 1.838-.725 7.991 7.991 0 0 1 1.965-.242c1.057 0 1.876.246 2.457.736.588.483.883 1.168.883 2.057v.19h-2.71c-1.757 0-3.08.335-3.97 1.007-.882.672-1.322 1.67-1.322 2.994 0 1.134.353 2.042 1.06 2.72.714.673 1.673 1.009 2.877 1.009.952 0 1.758-.168 2.416-.504.658-.343 1.208-.872 1.649-1.586v1.785h1.931v-6.711c0-1.792-.42-3.13-1.26-4.012-.84-.882-2.11-1.324-3.812-1.324zm1.219 6.135h1.922v.43c0 1.26-.326 2.272-.977 3.035-.644.756-1.503 1.134-2.574 1.134-.777 0-1.393-.2-1.848-.6-.448-.405-.672-.952-.672-1.638 0-.861.3-1.469.903-1.826.602-.357 1.684-.535 3.246-.535zm-1.854 15.49c-.446 0-.804.153-1.074.46-.264.305-.397.72-.397 1.243h.973v-.047c0-.233.05-.415.154-.545a.525.525 0 0 1 .436-.193c.062 0 .133.014.21.045.084.026.19.076.32.148l.443.258c.27.14.48.23.63.272.156.041.322.062.499.062.435 0 .784-.153 1.048-.459.27-.31.41-.725.42-1.244h-.97v.047a.826.826 0 0 1-.157.52.494.494 0 0 1-.404.195.754.754 0 0 1-.25-.047 2.026 2.026 0 0 1-.31-.149l-.444-.232a2.715 2.715 0 0 0-.613-.271 1.991 1.991 0 0 0-.514-.063zm.334 2.053l-1.64 2.068h1.08l1.29-1.385 1.292 1.385h1.082l-1.64-2.068zm.801 2.963c-1.307 0-2.347.42-3.12 1.26-.767.834-1.15 1.966-1.15 3.392 0 1.38.404 2.472 1.213 3.281.814.81 1.917 1.213 3.307 1.213a7.9 7.9 0 0 0 1.64-.17 8.575 8.575 0 0 0 1.579-.498v-1.353c-.508.27-1.02.47-1.54.605a6.261 6.261 0 0 1-1.595.203c-.949 0-1.69-.256-2.225-.77-.529-.518-.824-1.27-.886-2.255h6.58v-.7c0-1.296-.341-2.32-1.026-3.072-.679-.757-1.605-1.136-2.777-1.136zm.016 1.213c.705 0 1.27.234 1.695.7.43.467.652 1.09.662 1.874l-5.104.008c.073-.82.348-1.453.825-1.904.482-.452 1.123-.678 1.922-.678z" font-family="sans-serif" letter-spacing="0" word-spacing="0" fill="#fefefe" stroke-width="1.344"/></svg>