<svg xmlns="http://www.w3.org/2000/svg" xmlns:xlink="http://www.w3.org/1999/xlink" height="96" viewBox="0 0 96 96" width="96"><title>Template icons dark</title><defs><linearGradient id="a"><stop offset="0" stop-color="#e9e9e9"/><stop offset="1" stop-color="#fff"/></linearGradient><linearGradient xlink:href="#a" id="b" x1="168" y1="201.741" x2="168" y2="114.331" gradientUnits="userSpaceOnUse"/></defs><path d="M43.747 92.948c-6.437-2.138-10.998-5.042-16.13-10.27-5.74-5.844-9.118-11.96-10.54-19.078-1.968-9.845 3.254-18.87 14.27-24.659 13.293-6.985 31.467-7.645 38.167-1.386 2.054 1.918 2.507 3.021 2.507 6.097 0 5.875-3.243 9.513-15.925 17.861-15.318 10.084-16.918 12.553-11.59 17.882 2.18 2.18 3.587 2.87 5.848 2.87 2.926 0 5.563-1.687 5.701-3.648.407-5.744 1.27-6.806 6.715-8.25 4.569-1.213 9.758-.437 10.861 1.623 1.26 2.355-1.762 9.913-5.511 13.785-6.994 7.224-16.128 9.912-24.373 7.173zM14.17 37.244c-4.608-4.609-4.966-10.632-.747-12.554 1.858-.847 2.403-.691 4.334 1.24 3.665 3.665 3.709 14.134.058 14.134-.453 0-2.094-1.27-3.645-2.82zm12.858-8.816c-1.704-1.884-3.96-7.195-3.96-9.324 0-2.705 3.242-6.049 5.865-6.049 3.151 0 4.435 1.748 4.91 6.682.541 5.641-1.039 10.199-3.536 10.199-1.053 0-2.528-.679-3.279-1.508zm35.522-.234c-4.003-2.333-3.436-13.06 1.015-19.204 6.245-8.622 21.96-9.527 21.96-1.265 0 5.6-8.092 16.446-14.634 19.612-3.976 1.925-6.129 2.146-8.34.857zm-20.08-5.222C37.74 15.22 40.64 5.46 47.672 5.46c3.311 0 4.937 2.063 4.937 6.265 0 6.499-3.653 13.992-6.822 13.992-.948 0-2.351-1.161-3.316-2.744z" fill="none" stroke="#000" stroke-width="2" stroke-opacity=".176"/><path d="M155.747 204.948c-6.437-2.138-10.998-5.042-16.13-10.27-5.74-5.844-9.118-11.96-10.54-19.078-1.969-9.845 3.254-18.87 14.27-24.659 13.293-6.985 31.467-7.645 38.167-1.386 2.054 1.918 2.507 3.021 2.507 6.097 0 5.875-3.243 9.513-15.925 17.861-15.318 10.084-16.918 12.553-11.59 17.882 2.18 2.18 3.587 2.87 5.848 2.87 2.926 0 5.563-1.687 5.701-3.648.406-5.744 1.27-6.806 6.715-8.25 4.569-1.213 9.758-.437 10.861 1.623 1.26 2.355-1.762 9.913-5.511 13.785-6.994 7.224-16.128 9.912-24.373 7.173zm-29.576-55.704c-4.608-4.608-4.966-10.632-.747-12.554 1.858-.847 2.403-.691 4.334 1.24 3.665 3.665 3.709 14.134.058 14.134-.453 0-2.094-1.27-3.645-2.82zm12.858-8.816c-1.704-1.884-3.96-7.195-3.96-9.324 0-2.705 3.242-6.049 5.865-6.049 3.151 0 4.435 1.748 4.909 6.682.542 5.641-1.038 10.199-3.535 10.199-1.053 0-2.528-.679-3.279-1.508zm35.522-.234c-4.003-2.333-3.436-13.06 1.015-19.204 6.245-8.622 21.96-9.527 21.96-1.265 0 5.6-8.092 16.446-14.634 19.612-3.976 1.925-6.129 2.146-8.34.857zm-20.08-5.222c-4.73-7.752-1.83-17.513 5.201-17.513 3.311 0 4.937 2.063 4.937 6.265 0 6.499-3.653 13.992-6.822 13.992-.948 0-2.351-1.161-3.316-2.744z" fill="url(#b)" stroke-width=".844" transform="translate(-112 -112)"/></svg>