<svg xmlns="http://www.w3.org/2000/svg" xmlns:xlink="http://www.w3.org/1999/xlink" height="96" viewBox="0 0 96 96" width="96"><title>Template icons dark</title><defs><linearGradient id="n"><stop offset="0" stop-color="#cacaca" stop-opacity="0"/><stop offset=".565" stop-color="#fff" stop-opacity=".422"/><stop offset="1" stop-color="#cacaca" stop-opacity="0"/></linearGradient><linearGradient id="o"><stop offset="0" stop-color="#fff" stop-opacity=".656"/><stop offset="1" stop-color="#fff" stop-opacity=".047"/></linearGradient><linearGradient id="p"><stop offset="0" stop-opacity=".26"/><stop offset="1" stop-color="#f0f0f0" stop-opacity="0"/></linearGradient><linearGradient id="m"><stop offset="0" stop-color="#fff" stop-opacity=".458"/><stop offset="1" stop-color="#fff" stop-opacity=".255"/></linearGradient><linearGradient id="l"><stop offset="0" stop-opacity=".146"/><stop offset=".494" stop-opacity=".506"/><stop offset="1" stop-opacity=".057"/></linearGradient><linearGradient id="k"><stop offset="0" stop-opacity=".156"/><stop offset="1" stop-color="#f0f0f0" stop-opacity="0"/></linearGradient><linearGradient id="a"><stop offset="0" stop-color="#58c19a"/><stop offset="1" stop-color="#38899d"/></linearGradient><linearGradient id="j"><stop offset="0" stop-opacity=".26"/><stop offset="1" stop-opacity="0"/></linearGradient><linearGradient id="g"><stop offset="0" stop-color="#afacd0"/><stop offset="1" stop-color="#eee"/></linearGradient><linearGradient id="i"><stop offset="0" stop-color="#cacaca" stop-opacity="0"/><stop offset=".583" stop-color="#fff" stop-opacity=".422"/><stop offset="1" stop-color="#cacaca" stop-opacity="0"/></linearGradient><linearGradient id="h"><stop offset="0" stop-color="#ececec"/><stop offset=".489" stop-color="#cacaca" stop-opacity=".459"/><stop offset="1" stop-color="#ececec"/></linearGradient><linearGradient id="c"><stop offset="0" stop-color="#bebebe"/><stop offset=".489" stop-color="#aeaeae" stop-opacity=".459"/><stop offset="1" stop-color="#bebebe"/></linearGradient><linearGradient xlink:href="#a" id="q" gradientUnits="userSpaceOnUse" gradientTransform="matrix(2.40055 0 0 2.41576 102.434 104.09)" x1="24.117" y1="4.931" x2="23.981" y2="42.599"/><linearGradient id="b"><stop offset="0" stop-color="#dfdfdf"/><stop offset=".489" stop-color="silver" stop-opacity=".459"/><stop offset="1" stop-color="#dfdfdf"/></linearGradient><linearGradient id="d"><stop offset="0" stop-color="#444"/><stop offset="1" stop-color="#ececec"/></linearGradient><linearGradient id="e"><stop offset="0" stop-color="#a7a7a7"/><stop offset="1" stop-color="#eee"/></linearGradient><linearGradient id="f"><stop offset="0" stop-color="#a7a7a7"/><stop offset=".505" stop-color="#5b5b5b"/><stop offset="1" stop-color="#303030"/></linearGradient><linearGradient xlink:href="#d" id="y" x1="158.822" y1="98.639" x2="158.822" y2="88.728" gradientUnits="userSpaceOnUse" gradientTransform="matrix(1.07772 0 0 .90037 -12.594 9.605)"/><linearGradient xlink:href="#g" id="A" x1="160.167" y1="110.428" x2="160.167" y2="94.122" gradientUnits="userSpaceOnUse" gradientTransform="matrix(.84789 0 0 .84296 23.882 13.537)"/><linearGradient xlink:href="#f" id="B" x1="158.671" y1="97.368" x2="158.671" y2="90.163" gradientUnits="userSpaceOnUse" gradientTransform="matrix(.75437 0 0 .75437 38.724 23.007)"/><linearGradient xlink:href="#h" id="s" gradientUnits="userSpaceOnUse" x1="155.296" y1="153.204" x2="165.174" y2="153.204" gradientTransform="matrix(1 0 0 .72149 -.296 26.565)"/><linearGradient xlink:href="#i" id="t" x1="129" y1="203" x2="188.937" y2="203" gradientUnits="userSpaceOnUse"/><linearGradient xlink:href="#i" id="u" gradientUnits="userSpaceOnUse" x1="129" y1="203" x2="188.937" y2="203" gradientTransform="translate(-5 -403)"/><linearGradient xlink:href="#i" id="v" gradientUnits="userSpaceOnUse" gradientTransform="translate(4 -324)" x1="129" y1="203" x2="188.937" y2="203"/><linearGradient xlink:href="#j" id="z" x1="158.642" y1="108.024" x2="158.982" y2="94.594" gradientUnits="userSpaceOnUse"/><linearGradient xlink:href="#k" id="w" x1="160" y1="171.465" x2="160" y2="119" gradientUnits="userSpaceOnUse"/><linearGradient xlink:href="#l" id="r" x1="150" y1="143" x2="170" y2="143" gradientUnits="userSpaceOnUse"/><linearGradient xlink:href="#m" id="x" x1="160" y1="176" x2="160" y2="150" gradientUnits="userSpaceOnUse"/></defs><g color="#000"><path style="isolation:auto;mix-blend-mode:normal;marker:none" d="M16.492 3h63.016A9.472 9.472 0 0 1 89 12.492v71.016A9.472 9.472 0 0 1 79.508 93H16.492A9.472 9.472 0 0 1 7 83.508V12.492A9.472 9.472 0 0 1 16.492 3z" display="block" overflow="visible" fill-opacity=".151" stroke-width=".952" paint-order="fill markers stroke"/><path style="isolation:auto;mix-blend-mode:normal;marker:none" d="M129.075 116h61.85a9.055 9.055 0 0 1 9.075 9.075v69.85a9.055 9.055 0 0 1-9.075 9.075h-61.85a9.055 9.055 0 0 1-9.075-9.075v-69.85a9.055 9.055 0 0 1 9.075-9.075z" display="block" overflow="visible" fill="url(#q)" stroke-width=".909" paint-order="fill markers stroke" transform="translate(-112 -112)"/><path style="isolation:auto;mix-blend-mode:normal;marker:none" d="M54 4v44.377c0 3.324-2.676 6-6 6s-6-2.676-6-6V4z" overflow="visible" fill-opacity=".848" stroke-width=".326" paint-order="fill markers stroke"/><path style="line-height:normal;font-variant-ligatures:normal;font-variant-position:normal;font-variant-caps:normal;font-variant-numeric:normal;font-variant-alternates:normal;font-feature-settings:normal;text-indent:0;text-align:start;text-decoration-line:none;text-decoration-style:solid;text-decoration-color:#000;text-transform:none;text-orientation:mixed;shape-padding:0;isolation:auto;mix-blend-mode:normal;marker:none" d="M37 4v46c3.689 13.366 21 9 22 0V4zm1-.016L58 4v46c-2.378 11.456-19 9.455-20 0z" font-weight="400" font-family="sans-serif" white-space="normal" display="block" overflow="visible" fill="#fff" fill-opacity=".177" stroke-width=".5" paint-order="fill markers stroke"/><path d="M170 116v46c0 3.71-4.622 8-10 8s-10-4.29-10-8v-46z" style="isolation:auto;mix-blend-mode:normal;marker:none" display="block" overflow="visible" fill="url(#r)" stroke-width=".5" stroke-dasharray="3,3" stroke-opacity=".667" paint-order="fill markers stroke" transform="translate(-112 -112)"/><path d="M155 116.105v1.743h4v-.721h6v-1.022h-6zm6 1.155v.72h-2v1.444h2v.72h4v-2.884zm0 2.885h-2v-.721h-4v2.885h4v-.721h2zm0 1.443v.72h-2v1.444h2v.723h4v-2.887zm0 2.887h-2v-.723h-4v2.887h4v-.723h2zm0 1.441v.723h-2v1.443h2v.72h4v-2.886zm0 2.887h-2v-.721h-4v2.885h4v-.72h2zm0 1.443v.72h-2v1.444h2v.72h4v-2.884zm0 2.885h-2v-.72h-4v2.886h4v-.723h2zm0 1.443v.723h-2v1.441h2v.723h4v-2.887zm0 2.887h-2v-.723h-4v2.887h4v-.72h2zm0 1.443v.721h-2v1.21h-4v2.886h4V143h2v-1.21h4v-2.886zm0 4.096v.72h-2v1.444h2v.723h4V143zm0 2.887h-2v-.723h-4v2.887h4v-.723h2zm0 1.441v.723h-2v1.443h2v.72h4v-2.886zm0 2.887h-2v-.72h-4v2.884h4v-.72h2zm0 1.443v.72h-2v1.444h2v.721h4v-2.885zm-2-10.59h2v.489h-2z" style="isolation:auto;mix-blend-mode:normal;marker:none" overflow="visible" fill="url(#s)" stroke-width=".556" stroke-opacity=".957" paint-order="fill markers stroke" transform="translate(-112 -112)"/><path d="M17.074 4A9.054 9.054 0 0 0 8 13.074v1A9.054 9.054 0 0 1 17.074 5h61.852A9.054 9.054 0 0 1 88 14.074v-1A9.054 9.054 0 0 0 78.926 4z" style="isolation:auto;mix-blend-mode:normal;marker:none" display="block" overflow="visible" fill="#fff" fill-opacity=".505" stroke-width=".909" paint-order="fill markers stroke"/><path style="isolation:auto;mix-blend-mode:normal;marker:none" d="M129 203h62v1h-62z" display="block" overflow="visible" fill="url(#t)" stroke-width=".829" paint-order="fill markers stroke" transform="translate(-112 -112)"/><path transform="rotate(90 0 -112)" style="isolation:auto;mix-blend-mode:normal;marker:none" d="M124-200h62v1h-62z" display="block" overflow="visible" fill="url(#u)" stroke-width=".829" paint-order="fill markers stroke"/><path transform="rotate(90 0 -112)" style="isolation:auto;mix-blend-mode:normal;marker:none" d="M133-121h62v1h-62z" display="block" overflow="visible" fill="url(#v)" stroke-width=".829" paint-order="fill markers stroke"/><path d="M129.075 116h61.85a9.055 9.055 0 0 1 9.075 9.075V144l-40 31-40-31.118v-18.807a9.055 9.055 0 0 1 9.075-9.075z" style="isolation:auto;mix-blend-mode:normal;marker:none" display="block" overflow="visible" fill="url(#w)" stroke-width=".909" paint-order="fill markers stroke" transform="translate(-112 -112)"/><path style="line-height:normal;font-variant-ligatures:normal;font-variant-position:normal;font-variant-caps:normal;font-variant-numeric:normal;font-variant-alternates:normal;font-feature-settings:normal;text-indent:0;text-align:start;text-decoration-line:none;text-decoration-style:solid;text-decoration-color:#000;text-transform:none;text-orientation:mixed;shape-padding:0;isolation:auto;mix-blend-mode:normal" d="M200 144l-40 31-40-31v1l40 31 40-31z" font-weight="400" font-family="sans-serif" white-space="normal" overflow="visible" fill="url(#x)" fill-rule="evenodd" transform="translate(-112 -112)"/><g transform="matrix(1.87793 0 0 1.87793 -249.558 -124.863)"><path d="M158.45 89.573c1.956 0 3.947 1.353 3.53 2.95l-.927 3.555c-.307 1.177-1.161 2.175-2.603 2.175-1.442 0-2.296-.998-2.603-2.175l-.928-3.555c-.416-1.597 1.575-2.95 3.53-2.95z" style="isolation:auto;mix-blend-mode:normal;marker:none" display="block" overflow="visible" fill="url(#y)" stroke="#2c2c2c" stroke-width=".373" paint-order="fill markers stroke"/><path style="isolation:auto;mix-blend-mode:normal;marker:none" d="M158.45 92.937c-1.546 0-2.545 1.257-2.79 2.774l-1.47 7.331c-.375 2.316 1.9 4.235 4.26 4.235s4.634-1.919 4.26-4.235l-1.47-7.331c-.246-1.517-1.245-2.774-2.79-2.774zm0 .844c1.089 0 1.972.878 1.972 1.961a1.968 1.968 0 0 1-1.972 1.963c-1.09 0-1.974-.88-1.973-1.963 0-1.083.883-1.96 1.973-1.961zm0 6.322c1.765 0 2.84 1.352 2.84 2.912a2.833 2.833 0 0 1-2.84 2.824 2.833 2.833 0 0 1-2.842-2.824c0-1.56 1.076-2.913 2.841-2.912z" display="block" overflow="visible" fill="url(#z)" stroke-width=".143" stroke-opacity=".995" paint-order="fill markers stroke"/><path d="M158.45 93.223c-1.378 0-2.269 1.12-2.488 2.472l-1.185 6.794c-.324 1.998 1.638 3.652 3.673 3.652 2.034 0 3.996-1.654 3.673-3.652l-1.186-6.794c-.219-1.352-1.11-2.472-2.487-2.472zm0 .752c.97 0 1.758.783 1.758 1.748 0 .967-.787 1.75-1.758 1.75-.972 0-1.76-.783-1.76-1.75.001-.965.788-1.748 1.76-1.748zm0 5.843a2.656 2.656 0 0 1 2.662 2.648 2.656 2.656 0 0 1-2.663 2.647 2.656 2.656 0 0 1-2.664-2.647 2.656 2.656 0 0 1 2.664-2.648z" style="isolation:auto;mix-blend-mode:normal;marker:none" display="block" overflow="visible" fill="url(#A)" stroke="#646464" stroke-width=".128" stroke-opacity=".995" paint-order="fill markers stroke"/><rect ry=".754" y="90.896" x="157.695" height="6.035" width="1.509" style="isolation:auto;mix-blend-mode:normal;marker:none" display="block" overflow="visible" fill="url(#B)" stroke-width=".623" paint-order="fill markers stroke"/></g></g></svg>