<svg xmlns="http://www.w3.org/2000/svg" xmlns:xlink="http://www.w3.org/1999/xlink" height="96" viewBox="0 0 96 96" width="96"><title>Template icons dark</title><defs><linearGradient id="c"><stop offset="0" stop-color="#35b8ff"/><stop offset="1" stop-color="#ffd578"/></linearGradient><linearGradient id="b"><stop offset="0" stop-opacity=".031"/><stop offset="1" stop-opacity=".266"/></linearGradient><linearGradient id="a"><stop offset="0" stop-color="#fff" stop-opacity="0"/><stop offset="1" stop-color="#e1f0f2" stop-opacity=".803"/></linearGradient><linearGradient xlink:href="#a" id="i" x1="193.184" y1="160.635" x2="155.531" y2="117.469" gradientUnits="userSpaceOnUse" gradientTransform="scale(.9383) rotate(-4.609 295.97 36.138)"/><linearGradient xlink:href="#a" id="g" gradientUnits="userSpaceOnUse" gradientTransform="scale(.9383) rotate(-4.609 295.97 36.138)" x1="139.777" y1="191.473" x2="200.801" y2="178.153"/><linearGradient xlink:href="#a" id="e" gradientUnits="userSpaceOnUse" gradientTransform="scale(.9383) rotate(-4.609 295.97 36.138)" x1="136.2" y1="136.006" x2="125.785" y2="189.342"/><linearGradient xlink:href="#b" id="j" x1="177.255" y1="146.351" x2="140.341" y2="120.537" gradientUnits="userSpaceOnUse" gradientTransform="matrix(.9383 0 0 .9383 9.872 9.874)"/><linearGradient xlink:href="#b" id="h" gradientUnits="userSpaceOnUse" x1="177.255" y1="146.351" x2="140.341" y2="120.537" gradientTransform="scale(-.9383) rotate(-57.521 -306.409 295.784)"/><linearGradient xlink:href="#b" id="f" gradientUnits="userSpaceOnUse" gradientTransform="scale(-.9383) rotate(64.278 257.767 -268.327)" x1="177.255" y1="146.351" x2="140.341" y2="120.537"/><linearGradient xlink:href="#c" id="d" x1="184.536" y1="195.531" x2="131.031" y2="127.468" gradientUnits="userSpaceOnUse" gradientTransform="matrix(.95833 0 0 .95833 6.667 6.667)"/></defs><g color="#000"><path d="M48 2C22.595 2 2 22.595 2 48s20.595 46 46 46 46-20.595 46-46S73.405 2 48 2zm-.127 33.397c6.821 0 12.35 5.53 12.35 12.35 0 6.821-5.529 12.35-12.35 12.35-6.82 0-12.35-5.529-12.35-12.35 0-6.82 5.53-12.35 12.35-12.35z" style="isolation:auto;mix-blend-mode:normal;marker:none" display="block" overflow="visible" fill-opacity=".141" stroke-width="11.492" paint-order="fill markers stroke"/><path style="isolation:auto;mix-blend-mode:normal;marker:none" d="M160 114.963c-24.874 0-45.038 20.164-45.038 45.038 0 24.874 20.164 45.038 45.038 45.038 24.874 0 45.038-20.164 45.038-45.038 0-24.874-20.164-45.038-45.038-45.038zm-.127 31.748c7.2 0 13.038 5.837 13.038 13.037 0 7.2-5.837 13.037-13.038 13.037-7.2 0-13.037-5.837-13.037-13.037 0-7.2 5.837-13.037 13.037-13.037z" display="block" overflow="visible" fill="url(#d)" stroke-width="11.252" paint-order="fill markers stroke" transform="translate(-112 -112)"/><path style="isolation:auto;mix-blend-mode:normal;marker:none" d="M121.19 182.869a45.038 45.038 0 0 0 16.027 15.977 39.409 39.409 0 0 1-1.108-1.738c-10.334-17.58 4.285-39.368 15.256-47.223.59-.51 1.223-.965 1.893-1.362.635-.369 1.3-.683 1.988-.94l-18.1-26.377c-21.433 12.622-28.577 40.23-15.955 61.663z" overflow="visible" fill="url(#e)" stroke-width="11.252" paint-order="fill markers stroke" transform="translate(-112 -112)"/><path style="isolation:auto;mix-blend-mode:normal;marker:none" d="M136.033 198.059a45.09 45.09 0 0 0 2.552 1.628 39.464 39.464 0 0 1-1.105-1.742c-8.77-15.015 3.168-35.337 10.545-43.599 1.197-2.744 3.377-4.506 3.377-4.506-10.993 7.824-25.67 29.559-15.384 47.168.352.59.721 1.17 1.104 1.74-.37-.219-.725-.46-1.089-.69z" overflow="visible" fill="url(#f)" stroke-width="11.252" paint-order="fill markers stroke" transform="translate(-112 -112)"/><path d="M199.762 181.18a45.038 45.038 0 0 0 5.265-22.008 39.405 39.405 0 0 1-.904 1.852c-9.603 17.99-35.795 16.393-48.221 11.134a13.037 13.037 0 0 1-2.15-.904 13.037 13.037 0 0 1-1.839-1.205l-13.078 29.7c21.952 11.697 49.23 3.384 60.927-18.568z" style="isolation:auto;mix-blend-mode:normal;marker:none" overflow="visible" fill="url(#g)" stroke-width="11.252" paint-order="fill markers stroke" transform="translate(-112 -112)"/><path d="M204.975 160.394c.045-1.006.062-2.016.04-3.027a39.469 39.469 0 0 1-.899 1.857c-8.14 15.366-31.68 15.408-42.59 13.492-2.963.43-5.609-.495-5.609-.495 12.443 5.22 38.627 6.76 48.174-11.26.315-.61.613-1.23.896-1.856.01.43-.01.86-.012 1.29z" style="isolation:auto;mix-blend-mode:normal;marker:none" overflow="visible" fill="url(#h)" stroke-width="11.252" paint-order="fill markers stroke" transform="translate(-112 -112)"/><path style="isolation:auto;mix-blend-mode:normal;marker:none" d="M156.394 115.101a45.038 45.038 0 0 0-21.37 7.445c.68-.098 1.362-.177 2.047-.24 20.328-1.622 33.13 20.792 35.407 34.092.202.752.335 1.521.4 2.297.054.733.047 1.468-.023 2.2l32.05-4.52c-1.998-24.794-23.718-43.273-48.511-41.274z" overflow="visible" fill="url(#i)" stroke-width="11.252" paint-order="fill markers stroke" transform="translate(-112 -112)"/><path style="isolation:auto;mix-blend-mode:normal;marker:none" d="M136.117 121.864a45.051 45.051 0 0 0-2.574 1.593 39.43 39.43 0 0 1 2.048-.24c17.334-1.384 30.05 17.951 34.293 28.183 1.953 2.269 2.594 4.998 2.594 4.998-2.278-13.3-15.08-35.715-35.408-34.092-.684.062-1.366.143-2.047.24.358-.239.73-.453 1.094-.682z" overflow="visible" fill="url(#j)" stroke-width="11.252" paint-order="fill markers stroke" transform="translate(-112 -112)"/><path style="isolation:auto;mix-blend-mode:normal;marker:none" d="M60.816 47.66c0 7.138-5.787 12.924-12.925 12.924-7.138 0-12.924-5.786-12.924-12.924s5.786-12.925 12.924-12.925 12.925 5.787 12.925 12.925z" overflow="visible" fill-opacity=".083" stroke-width="11.492" paint-order="fill markers stroke"/></g></svg>