<svg xmlns="http://www.w3.org/2000/svg" xmlns:xlink="http://www.w3.org/1999/xlink" height="96" viewBox="0 0 96 96" width="96"><title>Template icons dark</title><defs><linearGradient id="h"><stop offset="0" stop-color="#e1140e"/><stop offset="1" stop-color="#951318"/></linearGradient><linearGradient id="g" gradientTransform="matrix(0 -100 -100 0 96 146)" gradientUnits="userSpaceOnUse" x2="1"><stop offset="0" stop-color="#fff"/><stop offset="1" stop-color="#c7c7c7"/></linearGradient><linearGradient id="b"><stop offset="0" stop-color="#c6120c"/><stop offset="1" stop-color="#490306"/></linearGradient><linearGradient id="f"><stop offset="0" stop-opacity=".736"/><stop offset="1" stop-opacity="0"/></linearGradient><linearGradient id="e"><stop offset="0" stop-opacity=".742"/><stop offset="1" stop-opacity="0"/></linearGradient><linearGradient id="d"><stop offset="0" stop-color="#8c1919"/><stop offset="1" stop-color="#ff3030"/></linearGradient><linearGradient id="i"><stop offset="0" stop-color="#fff"/><stop offset="1" stop-color="#dac7b4"/></linearGradient><linearGradient id="c"><stop offset="0" stop-color="#362c2d" stop-opacity=".374"/><stop offset="1" stop-opacity="0"/></linearGradient><linearGradient xlink:href="#a" id="l" x1="-591.369" y1="535.056" x2="-580.187" y2="522.822" gradientUnits="userSpaceOnUse" gradientTransform="matrix(.76424 0 0 .76424 592.65 -261.94)"/><linearGradient id="a"><stop offset="0" stop-color="#2c2e31"/><stop offset="1" stop-color="#40464d"/></linearGradient><linearGradient xlink:href="#a" id="m" x1="-553.436" y1="535.695" x2="-538.458" y2="525.571" gradientUnits="userSpaceOnUse" gradientTransform="matrix(.76424 0 0 .76424 592.65 -261.94)"/><linearGradient xlink:href="#b" id="n" x1="-567.013" y1="546.542" x2="-567.013" y2="541.888" gradientUnits="userSpaceOnUse" gradientTransform="matrix(.76424 0 0 .76424 592.65 -261.94)"/><linearGradient xlink:href="#c" id="k" x1="166" y1="152" x2="166" y2="146" gradientUnits="userSpaceOnUse" gradientTransform="matrix(1.53313 0 0 1.53313 -92.268 -66.067)"/><linearGradient xlink:href="#f" id="v" gradientUnits="userSpaceOnUse" gradientTransform="matrix(.63805 0 0 .63805 428.49 -174.665)" x1="-438.571" y1="568.396" x2="-483.674" y2="527.219"/><linearGradient xlink:href="#g" id="o" x1="177.323" y1="176" x2="177.323" y2="200" gradientUnits="userSpaceOnUse" gradientTransform="translate(0 1)"/><linearGradient xlink:href="#h" id="q" x1="173.088" y1="180.647" x2="173.088" y2="200" gradientUnits="userSpaceOnUse" gradientTransform="translate(0 1)"/><linearGradient xlink:href="#g" id="u" gradientUnits="userSpaceOnUse" x1="177.323" y1="176" x2="177.323" y2="200" gradientTransform="translate(0 1)"/><linearGradient xlink:href="#h" id="t" gradientUnits="userSpaceOnUse" x1="173.088" y1="180.647" x2="173.088" y2="200" gradientTransform="translate(0 1)"/><linearGradient xlink:href="#g" id="s" gradientUnits="userSpaceOnUse" x1="177.323" y1="176" x2="177.323" y2="200" gradientTransform="translate(0 1)"/><linearGradient xlink:href="#h" id="r" gradientUnits="userSpaceOnUse" x1="173.088" y1="180.647" x2="173.088" y2="200" gradientTransform="translate(0 1)"/><linearGradient xlink:href="#g" id="p" gradientUnits="userSpaceOnUse" x1="177.323" y1="176" x2="177.323" y2="200" gradientTransform="translate(0 1)"/><radialGradient xlink:href="#i" id="j" cx="167.805" cy="136.668" fx="167.805" fy="136.668" r="20.669" gradientTransform="matrix(1.53313 0 0 1.26693 -92.268 -29.902)" gradientUnits="userSpaceOnUse"/></defs><path d="M18.833 48.848c14.819 13.9 46.424 9.208 58.122.479 5.112-4.946 3.351-12.07-1.28-13.788 13.583-30.162-32.957-49.006-42.73-14.76-5.741-10.7-27.423-.1-13.872 13.888-6.708 1.077-8.644 11.36-.24 14.181z" fill-opacity=".099" fill-rule="evenodd" stroke-width=".739"/><path style="isolation:auto;mix-blend-mode:normal;marker:none" d="M79.661 89.828a32.8 2.14 0 0 1-32.8 2.14 32.8 2.14 0 0 1-32.8-2.14 32.8 2.14 0 0 1 32.8-2.14 32.8 2.14 0 0 1 32.8 2.14z" color="#000" display="block" overflow="visible" fill-opacity=".17" stroke-width=".585" paint-order="fill markers stroke"/><path d="M132.333 160.056c14.058 13.188 44.044 8.736 55.143.454 4.85-4.692 3.179-11.451-1.215-13.081 12.887-28.616-31.268-46.494-40.54-14.004-5.447-10.152-26.017-.095-13.162 13.176-6.363 1.022-8.2 10.779-.226 13.455z" fill="url(#j)" fill-rule="evenodd" stroke-width=".701" transform="translate(-112 -112)"/><path d="M132.333 160.056c14.058 13.188 44.044 8.736 55.143.454 4.85-4.692 3.179-11.451-1.215-13.081 12.887-28.616-31.268-46.494-40.54-14.004-5.447-10.152-26.017-.095-13.162 13.176-6.363 1.022-8.2 10.779-.226 13.455z" fill="url(#k)" fill-rule="evenodd" stroke-width=".701" transform="translate(-112 -112)"/><path d="M150.214 146.972a4.756 4.756 0 1 1-9.513 0 4.756 4.756 0 0 1 9.513 0z" fill="url(#l)" stroke-width=".459" stroke-linecap="round" stroke-linejoin="round" transform="translate(-112 -112)"/><path d="M179.204 147.46a4.756 4.756 0 1 1-9.513 0 4.756 4.756 0 0 1 9.513 0z" fill="url(#m)" stroke-width=".459" stroke-linecap="round" stroke-linejoin="round" transform="translate(-112 -112)"/><path d="M167.11 152.918c-1.126 8.643-13.646 8.145-14.203-.107-.098-.812.072-.742.86-.746l12.328-.068c1.08-.1 1.1.017 1.015.92z" opacity=".848" fill="url(#n)" fill-rule="evenodd" stroke-width=".732" transform="translate(-112 -112)"/><path d="M65.9 33.505a1.497 1.497 0 1 1-2.994 0 1.497 1.497 0 0 1 2.994 0zM36.276 33.505a1.497 1.497 0 1 1-2.995 0 1.497 1.497 0 0 1 2.995 0z" fill="#fefefe" stroke-width=".144" stroke-linecap="round" stroke-linejoin="round"/><path d="M149.13 202.126h6.852l-.968-35.955c-.014-3.761-6.56-4.939-7.523-.904z" fill="url(#o)" fill-rule="evenodd" stroke-width=".637" transform="translate(-112 -112)"/><path d="M72.63 89.828a25.768 1.681 0 0 1-25.768 1.681 25.768 1.681 0 0 1-25.769-1.681 25.768 1.681 0 0 1 25.769-1.682 25.768 1.681 0 0 1 25.768 1.682z" style="isolation:auto;mix-blend-mode:normal;marker:none" color="#000" display="block" overflow="visible" fill-opacity=".17" stroke-width=".459" paint-order="fill markers stroke"/><path d="M169.05 202.126h-6.179l.54-36.145c.013-3.761 6.56-4.939 7.522-.904z" fill="url(#p)" fill-rule="evenodd" stroke-width=".637" transform="translate(-112 -112)"/><path d="M155.52 202.126h7.351l.572-35.275c-.047-5.401-8.42-5.42-8.444-.088z" fill="url(#q)" fill-rule="evenodd" stroke-width=".637" transform="translate(-112 -112)"/><path d="M175.556 202.126h-6.937l1.927-37.202c.102-3.76 6.824-4.791 7.725-.736z" fill="url(#r)" fill-rule="evenodd" stroke-width=".637" transform="translate(-112 -112)"/><path d="M180.85 202.126h-5.724l3.176-38.548c.29-3.75 6.838-4.45 7.503-.356z" fill="url(#s)" fill-rule="evenodd" stroke-width=".637" transform="translate(-112 -112)"/><path d="M143.085 202.126h6.852l-2.435-37.012c-.102-3.76-6.824-4.791-7.725-.736z" fill="url(#t)" fill-rule="evenodd" stroke-width=".637" transform="translate(-112 -112)"/><path d="M137.386 202.126h6.043l-3.683-38.358c-.29-3.75-6.838-4.45-7.503-.356z" fill="url(#u)" fill-rule="evenodd" stroke-width=".637" transform="translate(-112 -112)"/></svg>