<svg xmlns="http://www.w3.org/2000/svg" xmlns:xlink="http://www.w3.org/1999/xlink" height="96" viewBox="0 0 96 96" width="96"><title>Template icons dark</title><defs><linearGradient id="e"><stop offset="0" stop-color="#242a34"/><stop offset="1" stop-color="#443f4c"/></linearGradient><linearGradient id="d"><stop offset="0" stop-color="#b1e3f2"/><stop offset="1"/></linearGradient><linearGradient id="f"><stop offset="0" stop-color="#aea6b6"/><stop offset="1" stop-color="#e4e4e4"/></linearGradient><linearGradient id="c"><stop offset="0" stop-color="#2d3840"/><stop offset="1" stop-color="#5f5777"/></linearGradient><linearGradient id="b"><stop offset="0" stop-color="#e8c2ee"/><stop offset="1" stop-color="#98d1e8"/></linearGradient><linearGradient id="a"><stop offset="0" stop-color="#50b4ce"/><stop offset="1" stop-color="#df2fb9" stop-opacity=".974"/></linearGradient><linearGradient xlink:href="#a" id="j" x1="120.752" y1="131.244" x2="191.98" y2="189.032" gradientUnits="userSpaceOnUse" gradientTransform="matrix(0 -.96995 .96995 0 4.853 307.137)"/><linearGradient xlink:href="#b" id="n" x1="151" y1="147" x2="151" y2="171.95" gradientUnits="userSpaceOnUse" gradientTransform="matrix(.57675 0 0 .57675 72.475 67.378)"/><linearGradient xlink:href="#c" id="k" x1="119.039" y1="133.562" x2="178.802" y2="193.325" gradientUnits="userSpaceOnUse" gradientTransform="matrix(0 -.98068 .98068 0 3.137 308.76)"/><linearGradient xlink:href="#d" id="m" x1="159.057" y1="187.825" x2="159.057" y2="132.319" gradientUnits="userSpaceOnUse" gradientTransform="translate(-.088 .662)"/><linearGradient xlink:href="#e" id="l" x1="159.097" y1="188.196" x2="159.097" y2="134.451" gradientUnits="userSpaceOnUse" gradientTransform="translate(0 -1)"/><linearGradient xlink:href="#f" id="i" gradientUnits="userSpaceOnUse" gradientTransform="matrix(.96275 0 0 .96224 5.98 5.039)" x1="151.033" y1="198.284" x2="151.033" y2="118.162"/><linearGradient xlink:href="#f" id="h" gradientUnits="userSpaceOnUse" gradientTransform="matrix(.96275 0 0 .96224 5.98 5.039)" x1="154.325" y1="239.481" x2="153.538" y2="177.822"/><linearGradient id="g"><stop offset="0" stop-color="#e8c2ee"/><stop offset="1" stop-color="#98d1e8"/></linearGradient></defs><g color="#000"><path style="isolation:auto;mix-blend-mode:normal;marker:none" d="M32.927 94.923c-11.304-19.579-21.696-38.42-33-58 9.001-15.59 6.938-11.768 14-24H81.88c6.761 11.711 6.188 10.388 14.047 24-11.387 19.724-21.612 38.277-33 58z" overflow="visible" fill="#000808" fill-opacity=".147" stroke-width=".526" stroke-opacity="0"/><path d="M145.927 205.923c-10.964-18.99-22.051-38.009-33.016-57 8.731-15.122 7.167-11.136 14.016-23h66c6.558 11.36 6.377 9.797 14 23-11.045 19.13-21.955 37.87-33 57z" style="isolation:auto;mix-blend-mode:normal;marker:none" overflow="visible" fill="url(#h)" stroke="url(#linearGradient1010)" stroke-width="1.131" transform="translate(-112 -112)"/><path style="isolation:auto;mix-blend-mode:normal;marker:none" d="M146.927 204.923c-10.714-18.557-22.286-37.442-33-56 8.531-14.776 7.307-10.407 14-22h64c6.409 11.1 6.551 9.098 14 22-10.793 18.694-22.207 37.306-33 56z" overflow="visible" fill="url(#i)" stroke="url(#linearGradient1010)" stroke-width="1.131" transform="translate(-112 -112)"/><path d="M63 2c11.304 19.58 21.696 38.42 33 58-9.001 15.59-6.938 11.768-14 24H14.047C7.286 72.289 7.86 73.613 0 60 11.387 40.277 21.613 21.723 33 2z" style="isolation:auto;mix-blend-mode:normal;marker:none" overflow="visible" fill="#000808" fill-opacity=".147" stroke-width=".526" stroke-opacity="0"/><path style="isolation:auto;mix-blend-mode:normal;marker:none" d="M174 115c10.964 18.99 22.051 38.01 33.016 57-8.73 15.122-7.166 11.136-14.016 23h-66c-6.558-11.36-6.377-9.796-14-23 11.045-19.13 21.955-37.87 33-57z" overflow="visible" fill="url(#j)" stroke-width=".51" stroke-opacity="0" transform="translate(-112 -112)"/><path d="M173 116c10.714 18.557 22.286 37.443 33 56-8.531 14.777-7.307 10.407-14 22h-64c-6.409-11.1-6.551-9.098-14-22 10.793-18.694 22.207-37.306 33-56z" style="isolation:auto;mix-blend-mode:normal;marker:none" overflow="visible" fill="url(#k)" stroke-width=".499" stroke-opacity="0" transform="translate(-112 -112)"/><path style="isolation:auto;mix-blend-mode:normal;marker:none" d="M187.287 160.78a27.76 27.76 0 0 1-27.76 27.76 27.76 27.76 0 0 1-27.759-27.76 27.76 27.76 0 0 1 27.76-27.76 27.76 27.76 0 0 1 27.759 27.76z" overflow="visible" fill="url(#l)" stroke-width="1.036" transform="translate(-112 -112)"/><path style="line-height:normal;font-variant-ligatures:normal;font-variant-position:normal;font-variant-caps:normal;font-variant-numeric:normal;font-variant-alternates:normal;font-feature-settings:normal;text-indent:0;text-align:start;text-decoration-line:none;text-decoration-style:solid;text-decoration-color:#000;text-transform:none;text-orientation:mixed;shape-padding:0;isolation:auto;mix-blend-mode:normal;marker:none" d="M159.527 132.236c-15.755 0-28.543 12.788-28.543 28.543 0 15.755 12.788 28.543 28.543 28.543 15.755 0 28.543-12.788 28.543-28.543 0-15.755-12.788-28.543-28.543-28.543zm0 1.5c14.945 0 27.043 12.099 27.043 27.043 0 14.945-12.098 27.043-27.043 27.043-14.944 0-27.043-12.098-27.043-27.043 0-14.944 12.1-27.043 27.043-27.043z" font-weight="400" font-family="sans-serif" white-space="normal" display="block" overflow="visible" opacity=".996" fill="url(#m)" stroke-width="1.5" transform="translate(-112 -112)"/><path d="M61.873 48.383l-10.849 6.264-10.849 6.263V35.857l10.85 6.263z" style="isolation:auto;mix-blend-mode:normal;marker:none" overflow="visible" fill-opacity=".288" stroke-width=".288" stroke-opacity="0"/><path style="isolation:auto;mix-blend-mode:normal;marker:none" d="M173.873 159.162l-10.849 6.263-10.849 6.264v-25.054l10.849 6.263z" overflow="visible" fill="url(#n)" stroke-width=".288" stroke-opacity="0" transform="translate(-112 -112)"/><path style="isolation:auto;mix-blend-mode:normal;marker:none" d="M40.175 34.635V59.688l10.849-6.263 10.849-6.263-.71-.41-9.562 5.52-10.85 6.263V34.969z" overflow="visible" fill="#feeaeb" stroke-width=".288" stroke-opacity="0"/></g></svg>