<svg xmlns="http://www.w3.org/2000/svg" xmlns:xlink="http://www.w3.org/1999/xlink" height="96" viewBox="0 0 96 96" width="96"><title>Template icons dark</title><defs><linearGradient id="c"><stop offset="0" stop-color="#8e8eb4"/><stop offset="1" stop-color="#fdfdfe"/></linearGradient><linearGradient id="b"><stop offset="0" stop-color="#9d9eb3"/><stop offset="1" stop-color="#bcbcbc"/></linearGradient><linearGradient id="a"><stop offset="0" stop-color="#530559"/><stop offset="1" stop-color="#8108f2"/></linearGradient><linearGradient xlink:href="#a" id="f" x1="-252.036" y1="73.11" x2="-193.17" y2="102.89" gradientUnits="userSpaceOnUse" gradientTransform="translate(.538 -.816)"/><linearGradient xlink:href="#b" id="d" x1="160.098" y1="193.342" x2="160.098" y2="197.786" gradientUnits="userSpaceOnUse"/><linearGradient xlink:href="#c" id="e" x1="160.004" y1="206.598" x2="160.004" y2="197.991" gradientUnits="userSpaceOnUse"/></defs><path style="isolation:auto;mix-blend-mode:normal;marker:none" d="M33.982 80.057l-8.166 5.685-7.346 10.122 58.105.085-6.022-10.106-9.467-5.723z" color="#000" fill-opacity=".184" fill-rule="evenodd" stroke-width=".857" stroke-linejoin="round"/><path style="isolation:auto;mix-blend-mode:normal;marker:none" d="M139.41 197.91l41.451.094-8.77-4.932-25.115-.057z" color="#000" fill="url(#d)" fill-rule="evenodd" stroke-width=".794" stroke-linejoin="round" transform="translate(-112 -112)"/><path style="isolation:auto;mix-blend-mode:normal;marker:none" d="M132.603 206.98l6.807-9.07 41.451.094 5.58 9.054z" color="#000" fill="url(#e)" fill-rule="evenodd" stroke-width=".794" stroke-linejoin="round" transform="translate(-112 -112)"/><path style="isolation:auto;mix-blend-mode:normal;marker:none" d="M3.126 24.812C14.981 9.135 31.13.306 47.984.286 64.837.267 80.998 9.06 92.874 24.71L48.039 79.543z" color="#000" display="block" overflow="visible" fill-opacity=".195" stroke-width="2.957" stroke-linecap="square" stroke-opacity=".279"/><path transform="matrix(-.40364 -.91492 .79786 -.60284 -112 -112)" style="isolation:auto;mix-blend-mode:normal;marker:none" d="M-187.142 54.603a71.333 62.505 0 0 1-6.998 47.699 71.333 62.505 0 0 1-43.585 29.226l-18.222-60.431z" color="#000" display="block" overflow="visible" fill="url(#f)" stroke-width="2.695" stroke-linecap="square" stroke-opacity=".279"/><path style="isolation:auto;mix-blend-mode:normal;marker:none" d="M47.984 3.951a57.585 75.36 0 0 0-40.88 22.352l.802 1.039a57.585 75.36 0 0 1 40.078-21.39 57.585 75.36 0 0 1 40.114 21.296l.799-1.039A57.585 75.36 0 0 0 47.984 3.951z" color="#000" display="block" overflow="visible" fill="#fff" fill-opacity=".137" stroke-width="2.659" stroke-linecap="square" stroke-opacity=".279"/><path d="M44.832 20.938v15.52h1.298V34.31a4.88 4.88 0 0 0 1.7 1.7c.737.44 1.543.662 2.422.662.737 0 1.425-.15 2.063-.448a5.444 5.444 0 0 0 1.682-1.234A5.94 5.94 0 0 0 55.1 33.16a6.05 6.05 0 0 0 .405-2.208c0-.723-.122-1.425-.363-2.106a5.688 5.688 0 0 0-.999-1.85 4.717 4.717 0 0 0-1.572-1.319c-.61-.326-1.305-.49-2.084-.49-.921 0-1.728.236-2.422.704a6.212 6.212 0 0 0-1.79 1.807v-6.761zm-9.393.423l-6.316 15.097h1.596l1.935-4.72h6.783l1.956 4.72h1.572l-6.27-15.097zm.615 1.746l3.041 7.462h-6.124zm26.685 2.08c-.822 0-1.574.151-2.255.449-.68.297-1.268.71-1.764 1.234a5.49 5.49 0 0 0-1.127 1.807 6.068 6.068 0 0 0-.406 2.212c0 .794.137 1.535.406 2.23.283.694.674 1.31 1.17 1.85a5.632 5.632 0 0 0 1.764 1.255c.68.297 1.426.448 2.234.448.524 0 1.026-.072 1.508-.214.496-.127.944-.31 1.34-.55a5.007 5.007 0 0 0 1.064-.876c.297-.34.523-.705.68-1.102l-1.424-.427a1.971 1.971 0 0 1-.448.722 3.739 3.739 0 0 1-.764.619c-.298.17-.624.302-.978.402a3.753 3.753 0 0 1-2.618-.192 4.422 4.422 0 0 1-1.273-.957 4.623 4.623 0 0 1-.872-1.444 4.87 4.87 0 0 1-.32-1.764c0-.638.1-1.23.3-1.768a4.36 4.36 0 0 1 .85-1.38 4.127 4.127 0 0 1 1.276-.935 3.785 3.785 0 0 1 1.593-.342c.68 0 1.297.165 1.85.491a3.276 3.276 0 0 1 1.32 1.316l1.4-.444a4.506 4.506 0 0 0-1.764-1.914c-.78-.482-1.693-.725-2.742-.725zm-12.654 1.277a3.35 3.35 0 0 1 1.593.385c.496.24.916.574 1.256.999.354.411.623.884.807 1.423.199.538.299 1.1.299 1.682 0 .567-.108 1.119-.32 1.657a4.686 4.686 0 0 1-.85 1.423 4.132 4.132 0 0 1-1.298 1 3.742 3.742 0 0 1-1.658.362 3.6 3.6 0 0 1-1.17-.213 4.965 4.965 0 0 1-1.127-.573 4.235 4.235 0 0 1-.893-.85 2.495 2.495 0 0 1-.448-1.085v-3.446a5.28 5.28 0 0 1 .64-1.042c.255-.34.545-.638.871-.893.326-.255.681-.452 1.064-.594a3.243 3.243 0 0 1 1.234-.235z" style="line-height:1000%;-inkscape-font-specification:Raleway" font-weight="400" font-family="Raleway" letter-spacing="0" word-spacing="0" fill="#fefefd" fill-opacity=".995" stroke-width=".997"/><path d="M26.107 9.83v8.758h2.19V12.02h6.567V9.83zm35.029 0v2.19h6.568v6.568h2.19V9.83zm-35.03 33.03v8.757h8.758v-2.19h-6.568V42.86zm41.598 0v6.568h-6.568v2.189h8.757V42.86z" fill="#fefefe" fill-rule="evenodd" stroke-width=".547"/><path style="isolation:auto;mix-blend-mode:normal;marker:none" d="M15.627 29.176h64.746v8.758H15.627z" color="#000" display="block" overflow="visible" fill="#ff2e97" fill-opacity=".116" stroke-width=".246"/><path style="isolation:auto;mix-blend-mode:normal;marker:none" d="M12.632 29.176h70.736v4.38H12.632z" color="#000" display="block" overflow="visible" fill="#ff2e97" fill-opacity=".389" stroke-width=".182"/><path style="isolation:auto;mix-blend-mode:normal;marker:none" d="M10.752 29.176h74.496v1.134H10.752z" color="#000" display="block" overflow="visible" fill="#ff2e97" stroke-width=".095"/></svg>