<svg xmlns="http://www.w3.org/2000/svg" xmlns:xlink="http://www.w3.org/1999/xlink" height="96" viewBox="0 0 96 96" width="96"><title>Template icons dark</title><defs><linearGradient id="h"><stop offset="0" stop-color="#53b679"/><stop offset="1" stop-color="#189189"/></linearGradient><linearGradient id="g"><stop offset="0" stop-color="#58c27e"/><stop offset=".194" stop-color="#d5db7e"/><stop offset=".681" stop-color="#fdb63d" stop-opacity=".989"/><stop offset="1" stop-color="#d66026"/></linearGradient><linearGradient id="f"><stop offset="0" stop-color="#18b378"/><stop offset="1" stop-color="#5bc981"/></linearGradient><linearGradient id="e"><stop offset="0" stop-color="#5ccb82"/><stop offset="1" stop-color="#479c6c"/></linearGradient><linearGradient id="d"><stop offset="0" stop-color="#097b8c"/><stop offset="1" stop-color="#27a787"/></linearGradient><linearGradient id="c"><stop offset="0" stop-color="#242d3c"/><stop offset="1" stop-color="#374160"/></linearGradient><linearGradient id="a"><stop offset="0" stop-color="#d78383"/><stop offset="1" stop-color="#fefefe"/></linearGradient><linearGradient id="b"><stop offset="0" stop-color="#2c2c2c"/><stop offset="1" stop-color="#4c4c4c"/></linearGradient><linearGradient xlink:href="#c" id="i" x1="127.52" y1="180.599" x2="204.29" y2="154.964" gradientUnits="userSpaceOnUse"/><linearGradient xlink:href="#d" id="k" gradientUnits="userSpaceOnUse" gradientTransform="translate(.016 .126)" x1="160.063" y1="176" x2="160.063" y2="196"/><linearGradient xlink:href="#e" id="m" x1="160" y1="180" x2="160" y2="171.339" gradientUnits="userSpaceOnUse" gradientTransform="translate(0 .844)"/><linearGradient xlink:href="#f" id="l" x1="160.882" y1="204.887" x2="160.882" y2="180.705" gradientUnits="userSpaceOnUse"/><linearGradient xlink:href="#g" id="n" x1="182.69" y1="179.28" x2="182.956" y2="140.009" gradientUnits="userSpaceOnUse" gradientTransform="matrix(.61438 0 0 1 73.337 -.663)"/><linearGradient xlink:href="#g" id="o" gradientUnits="userSpaceOnUse" gradientTransform="matrix(.43982 0 0 .71588 69.562 48.491)" x1="182.69" y1="179.28" x2="182.956" y2="140.009"/><linearGradient xlink:href="#h" id="j" x1="140.881" y1="187.394" x2="176.248" y2="126.137" gradientUnits="userSpaceOnUse"/></defs><g color="#000" stroke-linecap="square"><path style="isolation:auto;mix-blend-mode:normal;marker:none" d="M122.04 170.136c-2.193 0-3.197 1.088-3.958 2.285L114 178.844a.715.715 0 0 0-.037.757c-.053.26-.05.523.037.79l4.082 12.518c.76 2.333 1.765 4.454 3.958 4.454h75.92c2.193 0 3.197-2.121 3.958-4.454L206 180.392c.088-.27.09-.533.037-.793a.714.714 0 0 0-.037-.755l-4.082-6.423c-.76-1.197-1.764-2.285-3.958-2.285z" overflow="visible" fill-opacity=".1" stroke-width="1.814" filter="url(#filter5140)" transform="translate(-112 -112)"/><path transform="scale(1.05637) rotate(-30 -111.056 316.494)" style="isolation:auto;mix-blend-mode:normal;marker:none" d="M205.438 160l-22.955 39.76-34.08-19.675-34.078-19.675 22.956-39.76h45.438z" overflow="visible" fill-opacity=".153" stroke-width="1.715" filter="url(#filter5140)"/><path transform="scale(.9909) rotate(-30 -103.953 312.393)" style="isolation:auto;mix-blend-mode:normal;marker:none" d="M205.438 160l-23.1 40.012-34.08-19.676-34.078-19.675 23.1-40.012h45.44z" overflow="visible" fill="url(#i)" stroke="url(#j)" stroke-width="2.018" filter="url(#filter5140)"/><path style="isolation:auto;mix-blend-mode:normal;marker:none" d="M122.306 176.126h75.388c2.178 0 7.052 1.973 6.322 4.157l-3.906 11.685c-.728 2.178-1.69 4.158-3.788 4.158h-72.644c-2.099 0-3.06-1.98-3.788-4.158l-3.906-11.685c-.73-2.184 4.144-4.157 6.322-4.157z" display="block" overflow="visible" fill="url(#k)" stroke-width="1.715" filter="url(#filter5140)" transform="translate(-112 -112)"/><path style="isolation:auto;mix-blend-mode:normal;marker:none" d="M116.068 179.709l-.084.129c-.73 1.12 1.855 2.133 4.159 2.133h79.714c2.304 0 4.889-1.012 4.159-2.133l-.084-.129c-.59.723-2.4 1.262-4.075 1.262h-79.714c-1.676 0-3.485-.539-4.075-1.262z" display="block" overflow="visible" fill="#19b4b6" stroke-width="1.228" filter="url(#filter5140)" transform="translate(-112 -112)"/><path d="M137.504 176h44.991c7.115 0 3.622 3.102 2.135 6.34l-8.183 17.818c-1.45 3.157-2.666 6.34-5.977 6.34h-20.94c-3.311 0-4.527-3.183-5.977-6.34l-8.183-17.818c-1.486-3.236-4.98-6.34 2.134-6.34z" style="isolation:auto;mix-blend-mode:normal;marker:none" overflow="visible" fill-opacity=".253" stroke-width="1.813" filter="url(#filter5140)" transform="translate(-112 -112)"/><path style="isolation:auto;mix-blend-mode:normal;marker:none" d="M138.094 176h43.811c6.929 0 3.527 2.848 2.08 5.82l-7.97 16.36c-1.412 2.898-2.595 5.82-5.82 5.82h-20.39c-3.225 0-4.409-2.922-5.82-5.82l-7.97-16.36c-1.446-2.97-4.849-5.82 2.08-5.82z" overflow="visible" fill="url(#l)" stroke-width="1.715" filter="url(#filter5140)" transform="translate(-112 -112)"/><path d="M120.142 180.97h79.716c2.303 0 4.888-1.012 4.158-2.133l-3.906-5.995c-.728-1.117-1.69-2.133-3.788-2.133h-72.644c-2.099 0-3.06 1.016-3.788 2.133l-3.906 5.995c-.73 1.12 1.854 2.133 4.158 2.133z" style="isolation:auto;mix-blend-mode:normal;marker:none" display="block" overflow="visible" fill="url(#m)" stroke-width="1.228" filter="url(#filter5140)" transform="translate(-112 -112)"/><path d="M168.018 145.4l-11.096-.131 19.204-22.758 17.813 22.89h-8.54s-2.823 14.616-.6 22.32c2.225 7.704 4.759 10.696 4.759 10.696l-13.185.531s-5.79-3.65-7.486-11.881c-1.697-8.23-.869-21.667-.869-21.667z" style="isolation:auto;mix-blend-mode:normal;marker:none" overflow="visible" fill-opacity=".479" stroke-width="1.556" filter="url(#filter5140)" transform="translate(-112 -112)"/><path style="isolation:auto;mix-blend-mode:normal;marker:none" d="M169.976 144.146l-9.707-.133 15.92-19.768 14.86 19.901h-8.602s-1.24 16.131 1 23.891c2.24 7.76 8 11.309 8 11.309h-15.471s-4.485-4.345-6.195-12.636c-1.709-8.29.195-22.564.195-22.564z" overflow="visible" fill="url(#n)" stroke-width="1.568" filter="url(#filter5140)" transform="translate(-112 -112)"/><path style="isolation:auto;mix-blend-mode:normal;marker:none" d="M137.241 152.766l-7.914-.094 13.696-16.23 12.705 16.324h-6.09s-2.014 10.425-.428 15.92c1.586 5.494 3.393 7.628 3.393 7.628l-9.403.378s-4.129-2.603-5.34-8.473c-1.21-5.87-.619-15.453-.619-15.453z" overflow="visible" fill-opacity=".479" stroke-width="1.11" filter="url(#filter5140)" transform="translate(-112 -112)"/><path d="M138.744 152.157l-6.949-.095 11.397-14.151 10.638 14.246h-6.158s-.888 11.548.716 17.103c1.603 5.555 5.727 8.096 5.727 8.096h-11.076s-3.21-3.11-4.434-9.046c-1.224-5.935.139-16.153.139-16.153z" style="isolation:auto;mix-blend-mode:normal;marker:none" display="block" overflow="visible" fill="url(#o)" stroke-width="1.122" filter="url(#filter5140)" transform="translate(-112 -112)"/><path transform="rotate(-29.999 132.202 21.58) scale(.18795)" d="M205.438 160l-22.719 39.35h-45.438L114.56 160l22.72-39.35h45.438z" style="isolation:auto;mix-blend-mode:normal;marker:none" overflow="visible" fill-opacity=".237" stroke-width="2.018" filter="url(#filter5140)"/><path style="isolation:auto;mix-blend-mode:normal;marker:none" d="M160 183.459l-7.396 4.271v1L160 184.46l7.396 4.271v-1z" overflow="visible" fill-opacity=".237" stroke-width=".379" filter="url(#filter5140)" transform="translate(-112 -112)"/><path style="isolation:auto;mix-blend-mode:normal;marker:none" d="M152.604 196.27v1L160 201.54l7.396-4.271v-1L160 200.54z" overflow="visible" fill="#f4f4f4" fill-opacity=".237" stroke-width=".379" filter="url(#filter5140)" transform="translate(-112 -112)"/></g></svg>