<svg xmlns="http://www.w3.org/2000/svg" xmlns:xlink="http://www.w3.org/1999/xlink" height="96" viewBox="0 0 96 96" width="96"><title>Template icons dark</title><defs><linearGradient id="i"><stop offset="0" stop-color="#078cd0" stop-opacity=".781"/><stop offset=".774" stop-color="#5946dd" stop-opacity=".584"/><stop offset="1" stop-color="#ca39f1" stop-opacity=".669"/></linearGradient><linearGradient id="h"><stop offset="0" stop-color="#078cd0" stop-opacity=".698"/><stop offset=".774" stop-color="#5946dd" stop-opacity=".443"/><stop offset="1" stop-color="#ca39f1" stop-opacity=".302"/></linearGradient><linearGradient id="b"><stop offset="0" stop-color="#d1f8fc" stop-opacity=".084"/><stop offset=".501" stop-color="#fff" stop-opacity=".039"/><stop offset="1" stop-color="#b6f3fa" stop-opacity=".096"/></linearGradient><linearGradient id="a"><stop offset="0" stop-color="#777"/><stop offset="1" stop-color="#595959"/></linearGradient><linearGradient id="g"><stop offset="0" stop-color="#fff" stop-opacity=".528"/><stop offset=".561" stop-color="#fff" stop-opacity=".522"/><stop offset="1" stop-color="#fff" stop-opacity="0"/></linearGradient><linearGradient id="e"><stop offset="0" stop-color="#fff" stop-opacity=".663"/><stop offset=".561" stop-color="#fff" stop-opacity=".522"/><stop offset="1" stop-color="#fff" stop-opacity="0"/></linearGradient><linearGradient id="f"><stop offset="0" stop-color="#fff"/><stop offset=".561" stop-color="#fff" stop-opacity=".522"/><stop offset="1" stop-color="#fff" stop-opacity="0"/></linearGradient><linearGradient id="d"><stop offset="0" stop-color="#4fb9ef" stop-opacity=".459"/><stop offset=".836" stop-color="#1f1cec" stop-opacity=".315"/><stop offset=".888" stop-color="#d039f1" stop-opacity=".376"/><stop offset="1" stop-color="#ca39f1" stop-opacity=".302"/></linearGradient><linearGradient id="c"><stop offset="0" stop-color="#393939"/><stop offset="1" stop-color="#181818"/></linearGradient><linearGradient xlink:href="#a" id="k" x1="158.033" y1="188.223" x2="158.033" y2="130.744" gradientUnits="userSpaceOnUse" gradientTransform="matrix(1.31393 0 0 1.31393 -50.228 -50.526)"/><linearGradient xlink:href="#b" id="l" x1="228.437" y1="20.042" x2="246.784" y2="1.62" gradientUnits="userSpaceOnUse" gradientTransform="matrix(.9272 .93097 -.93097 .9272 -50.228 -50.526)"/><radialGradient xlink:href="#c" id="j" cx="160" cy="160" fx="160" fy="160" r="33" gradientUnits="userSpaceOnUse" gradientTransform="matrix(1.31393 0 0 1.31393 -50.228 -50.526)"/><radialGradient xlink:href="#d" id="m" cx="-226.274" cy=".459" fx="-226.274" fy=".459" r="15.999" gradientUnits="userSpaceOnUse" gradientTransform="matrix(1.51624 -1.51624 1.51822 1.51822 502.46 -183.921)"/><radialGradient xlink:href="#g" id="n" gradientUnits="userSpaceOnUse" gradientTransform="matrix(.66292 .05146 -.08182 .48086 67.226 75.856)" cx="160.02" cy="162.319" fx="160.02" fy="162.319" r="2.546"/><radialGradient xlink:href="#e" id="o" gradientUnits="userSpaceOnUse" gradientTransform="matrix(1.01392 0 0 .82545 -2.457 26.92)" cx="160.366" cy="156" fx="160.366" fy="156" r="2.546"/></defs><g color="#000" transform="translate(-112 -112)"><path style="isolation:auto;mix-blend-mode:normal;marker:none" d="M176.496 136.44l14.854-14.854a4.99 4.99 0 0 1 7.072 0 4.99 4.99 0 0 1 0 7.07l-14.855 14.856a4.99 4.99 0 0 1-7.071 0 4.99 4.99 0 0 1 0-7.071z" display="block" overflow="visible" fill="#fff" stroke-width=".487" stroke-linecap="round" stroke-linejoin="round" paint-order="stroke fill markers"/><path style="isolation:auto;mix-blend-mode:normal;marker:none" d="M205 161.016a45 45 0 0 1-45 45 45 45 0 0 1-45-45 45 45 0 0 1 45-45 45 45 0 0 1 45 45z" overflow="visible" fill-opacity=".23" stroke-width="2.382" paint-order="fill markers stroke"/><path style="isolation:auto;mix-blend-mode:normal;marker:none" d="M202.043 159.702A42.043 42.043 0 0 1 160 201.745a42.043 42.043 0 0 1-42.043-42.043A42.043 42.043 0 0 1 160 117.659a42.043 42.043 0 0 1 42.043 42.043z" overflow="visible" fill="url(#j)" stroke="#f2f2f2" stroke-width="2.632" paint-order="fill markers stroke"/><path style="line-height:normal;font-variant-ligatures:normal;font-variant-position:normal;font-variant-caps:normal;font-variant-numeric:normal;font-variant-alternates:normal;font-feature-settings:normal;text-indent:0;text-align:start;text-decoration-line:none;text-decoration-style:solid;text-decoration-color:#000;text-transform:none;text-orientation:mixed;shape-padding:0;isolation:auto;mix-blend-mode:normal;marker:none" d="M160 118.79c-22.57 0-40.911 18.342-40.911 40.912S137.43 200.613 160 200.613s40.911-18.341 40.911-40.911S182.57 118.79 160 118.79zm0 4.268c20.263 0 36.644 16.38 36.644 36.644 0 20.263-16.38 36.644-36.644 36.644-20.263 0-36.644-16.38-36.644-36.644 0-20.263 16.38-36.644 36.644-36.644z" font-weight="400" font-family="sans-serif" white-space="normal" overflow="visible" fill="url(#k)" stroke-width="4.268" paint-order="fill markers stroke"/><path style="line-height:normal;font-variant-ligatures:normal;font-variant-position:normal;font-variant-caps:normal;font-variant-numeric:normal;font-variant-alternates:normal;font-feature-settings:normal;text-indent:0;text-align:start;text-decoration-line:none;text-decoration-style:solid;text-decoration-color:#000;text-transform:none;text-orientation:mixed;shape-padding:0;isolation:auto;mix-blend-mode:normal;marker:none" d="M160 115.883c-24.18 0-43.819 19.64-43.819 43.819 0 24.18 19.64 43.819 43.819 43.819 24.18 0 43.819-19.64 43.819-43.82 0-24.179-19.64-43.818-43.819-43.818zm0 3.552c22.26 0 40.267 18.007 40.267 40.267S182.26 199.969 160 199.969s-40.267-18.007-40.267-40.267S137.74 119.435 160 119.435z" font-weight="400" font-family="sans-serif" white-space="normal" overflow="visible" fill="#fff" stroke-width="3.552" paint-order="fill markers stroke"/><path style="isolation:auto;mix-blend-mode:normal;marker:none" d="M184.34 183.864a34.642 34.642 0 0 1-48.992-.1l24.545-24.446z" overflow="visible" fill="url(#l)" stroke-width="2.169" paint-order="fill markers stroke"/><path style="isolation:auto;mix-blend-mode:normal;marker:none" d="M135.729 135.51a34.37 34.37 0 0 1 48.606.1l-24.352 24.253z" overflow="visible" fill="url(#m)" stroke-width="2.152" paint-order="fill markers stroke"/><path style="isolation:auto;mix-blend-mode:normal;marker:none" d="M161.661 162.06a1.742 1.176 0 0 1-1.741 1.176 1.742 1.176 0 0 1-1.742-1.176 1.742 1.176 0 0 1 1.742-1.177 1.742 1.176 0 0 1 1.741 1.177z" overflow="visible" fill="url(#n)" stroke-width=".239" paint-order="fill markers stroke"/><path style="isolation:auto;mix-blend-mode:normal;marker:none" d="M162.723 155.69a2.581 2.102 0 0 1-2.581 2.101 2.581 2.102 0 0 1-2.582-2.101 2.581 2.102 0 0 1 2.582-2.102 2.581 2.102 0 0 1 2.581 2.102z" overflow="visible" fill="url(#o)" stroke-width=".202" paint-order="fill markers stroke"/><circle style="isolation:auto;mix-blend-mode:normal;marker:none" cx="160" cy="159.702" r="9.478" overflow="visible" fill="none" fill-opacity=".459" stroke="#8e8e8e" stroke-width="3.151" paint-order="fill markers stroke"/><circle r="11.168" cy="159.702" cx="160" style="isolation:auto;mix-blend-mode:normal;marker:none" overflow="visible" fill="#030303" fill-opacity=".459" stroke="#969696" stroke-width="1.185" paint-order="fill markers stroke"/><circle style="isolation:auto;mix-blend-mode:normal;marker:none" cx="160" cy="159.702" r="30.923" overflow="visible" fill="none" fill-opacity=".459" stroke="#fff" stroke-width=".303" stroke-opacity=".237" paint-order="fill markers stroke"/><circle r="19.034" cy="159.702" cx="160" style="isolation:auto;mix-blend-mode:normal;marker:none" overflow="visible" fill="none" fill-opacity=".459" stroke="#fff" stroke-width=".131" stroke-opacity=".376" paint-order="fill markers stroke"/><g transform="matrix(1.58536 0 0 1.58536 1.2 -93.217)"><circle r="1.953" cy="138.047" cx="121.953" style="isolation:auto;mix-blend-mode:normal;marker:none" overflow="visible" fill="#ea6565" paint-order="fill markers stroke"/><path d="M121.953 136.094a1.953 1.953 0 0 0-1.953 1.953 1.953 1.953 0 0 0 .008.152 1.953 1.953 0 0 1 1.945-1.8 1.953 1.953 0 0 1 1.946 1.8 1.953 1.953 0 0 0 .008-.152 1.953 1.953 0 0 0-1.954-1.953z" style="isolation:auto;mix-blend-mode:normal;marker:none" overflow="visible" fill-opacity=".506" paint-order="fill markers stroke"/></g></g></svg>