<svg xmlns:osb="http://www.openswatchbook.org/uri/2009/osb" xmlns="http://www.w3.org/2000/svg" xmlns:xlink="http://www.w3.org/1999/xlink" height="96" viewBox="0 0 96 96" width="96"><title>Template icons dark</title><defs><linearGradient id="a"><stop offset="0" stop-color="#665e8f"/><stop offset="1" stop-color="#343b41"/></linearGradient><linearGradient id="b"><stop offset="0" stop-color="#383d60"/><stop offset="1" stop-color="#242e42"/></linearGradient><linearGradient xlink:href="#a" id="h" x1="99.818" y1="164.367" x2="220.995" y2="164.367" gradientUnits="userSpaceOnUse"/><linearGradient xlink:href="#b" id="i" gradientUnits="userSpaceOnUse" x1="115.452" y1="160" x2="204.026" y2="160.174"/><linearGradient id="d"><stop offset="0" stop-opacity=".204"/><stop offset="1" stop-opacity="0"/></linearGradient><linearGradient id="e" osb:paint="solid"><stop offset="0" stop-color="#8ca1a8" stop-opacity=".424"/></linearGradient><linearGradient id="f" osb:paint="solid"><stop offset="0" stop-color="#ff4ca1"/></linearGradient><linearGradient xlink:href="#c" id="o" gradientUnits="userSpaceOnUse" gradientTransform="matrix(1.7651 0 0 1.7651 1173.14 518.433)" x1="-578.647" y1="-204.784" x2="-578.647" y2="-214.622"/><linearGradient id="c"><stop offset="0" stop-color="#dce1e8"/><stop offset="1" stop-color="#fff"/></linearGradient><linearGradient xlink:href="#d" id="n" gradientUnits="userSpaceOnUse" gradientTransform="matrix(.9253 0 0 .91581 -793.579 -190.062)" x1="1031.269" y1="365.654" x2="1031.269" y2="380.159"/><linearGradient xlink:href="#e" id="m" gradientUnits="userSpaceOnUse" gradientTransform="matrix(.8861 0 0 .8861 281.719 217.241)" x1="-49.096" y1="1041.18" x2="-9.096" y2="1041.18"/><linearGradient xlink:href="#c" id="l" gradientUnits="userSpaceOnUse" gradientTransform="matrix(1.7651 0 0 1.7651 138.252 143.117)" x1="17.92" y1="19.84" x2="17.92" y2="11.307"/><linearGradient xlink:href="#d" id="k" gradientUnits="userSpaceOnUse" gradientTransform="matrix(.9253 0 0 .73686 -794.465 -102.08)" x1="1031.269" y1="365.654" x2="1031.269" y2="380.159"/><linearGradient xlink:href="#f" id="j" gradientUnits="userSpaceOnUse" gradientTransform="matrix(.70888 0 0 .71295 141.343 -571.949)"/><linearGradient id="g"><stop offset="0" stop-color="#383d60"/><stop offset="1" stop-color="#242e42"/></linearGradient></defs><g transform="translate(-112 -112)"><path style="isolation:auto;mix-blend-mode:normal;marker:none" d="M160 205.009l-39.99-23.09v-46.178L160 112.65l39.993 23.09v46.178z" color="#000" display="block" overflow="visible" fill-opacity=".018" stroke-width=".09"/><path style="isolation:auto;mix-blend-mode:normal;marker:none" d="M122.003 180.768v1.868L160 204.575l37.997-21.939v-1.868L160 202.706z" color="#000" overflow="visible" fill="#131a20" fill-opacity=".092" stroke-width=".086"/><path style="isolation:auto;mix-blend-mode:normal;marker:none" d="M192.612 192.612l-44.549 11.936-32.611-32.611 11.936-44.549 44.549-11.936 32.611 32.611z" transform="rotate(45 148.122 164.921) scale(.95134)" color="#000" display="block" overflow="visible" fill="url(#h)" stroke-width=".068"/><path transform="rotate(45 96.152 186.447) scale(.76107)" d="M192.612 192.612l-44.549 11.936-32.611-32.611 11.936-44.549 44.549-11.936 32.611 32.611z" style="isolation:auto;mix-blend-mode:normal;marker:none" color="#000" display="block" overflow="visible" fill="url(#i)" stroke-width=".068"/><path style="isolation:auto;mix-blend-mode:normal;marker:none" d="M129.602 176.38v-35.1L160 123.73l30.398 17.55z" color="#000" overflow="visible" fill="#fff" fill-opacity=".058" stroke-width=".052"/><path style="isolation:auto;mix-blend-mode:normal;marker:none" d="M160 123.729l-30.398 17.551v4.672L160 128.4l30.398 17.55v-4.67z" color="#000" display="block" overflow="visible" fill-opacity=".466" stroke-width=".052"/><path style="isolation:auto;mix-blend-mode:normal;marker:none" d="M129.602 176.385v1.45L160 195.387l30.398-17.552v-1.45L160 193.936z" color="#000" display="block" overflow="visible" fill="#faf8fb" fill-opacity=".24" stroke-width=".052"/><path style="isolation:auto;mix-blend-mode:normal;marker:none" d="M160 114.953l-37.997 21.939v.934L160 115.888l37.997 21.938v-.934z" color="#000" display="block" overflow="visible" fill="#fff" fill-opacity=".267" stroke-width=".064"/><path d="M149.147 162.921h23.378c4.047 0 7.305 3.37 7.305 7.555s-3.258 7.555-7.305 7.555h-23.378c-4.047 0-7.305-3.37-7.305-7.555s3.258-7.555 7.305-7.555z" fill="#fff" fill-opacity=".189" stroke-width=".997"/><path d="M149.584 163.83h21.266a6.631 6.631 0 0 1 6.646 6.646 6.631 6.631 0 0 1-6.646 6.646h-21.266a6.631 6.631 0 0 1-6.646-6.646 6.631 6.631 0 0 1 6.646-6.646z" fill="url(#j)" stroke-width=".8"/><path style="line-height:normal;font-variant-ligatures:normal;font-variant-position:normal;font-variant-caps:normal;font-variant-numeric:normal;font-variant-alternates:normal;font-feature-settings:normal;text-indent:0;text-align:start;text-decoration-line:none;text-decoration-style:solid;text-decoration-color:#000;text-transform:none;text-orientation:mixed;shape-padding:0;isolation:auto;mix-blend-mode:normal" d="M149.539 163.843a6.57 6.57 0 0 0-6.577 6.576v.102a6.572 6.572 0 0 0 6.577 6.578h21.398a6.572 6.572 0 0 0 6.576-6.578v-.102a6.57 6.57 0 0 0-6.576-6.576zm0 .886h21.398c3.16 0 5.69 2.53 5.69 5.69v.102a5.669 5.669 0 0 1-5.69 5.692h-21.398a5.669 5.669 0 0 1-5.69-5.692v-.102c0-3.16 2.529-5.69 5.69-5.69z" color="#000" font-weight="400" font-family="sans-serif" white-space="normal" overflow="visible" fill="url(#k)" stroke-width=".795"/><path d="M180.154 171.362a10.19 10.19 0 0 1-10.19 10.19 10.19 10.19 0 0 1-10.19-10.19 10.19 10.19 0 0 1 10.19-10.19 10.19 10.19 0 0 1 10.19 10.19z" fill-opacity=".157" stroke-width=".425" stroke-miterlimit="4.6" stroke-opacity=".197"/><path d="M179.268 170.476a9.304 9.304 0 0 1-9.304 9.304 9.304 9.304 0 0 1-9.304-9.304 9.304 9.304 0 0 1 9.304-9.304 9.304 9.304 0 0 1 9.304 9.304z" fill="url(#l)" stroke-width=".369" stroke-miterlimit="4.6"/><path d="M150.47 142.04h21.266a6.631 6.631 0 0 1 6.646 6.645 6.631 6.631 0 0 1-6.646 6.646H150.47a6.631 6.631 0 0 1-6.646-6.646 6.631 6.631 0 0 1 6.646-6.646z" fill="url(#m)" stroke-width=".892"/><path style="line-height:normal;font-variant-ligatures:normal;font-variant-position:normal;font-variant-caps:normal;font-variant-numeric:normal;font-variant-alternates:normal;font-feature-settings:normal;text-indent:0;text-align:start;text-decoration-line:none;text-decoration-style:solid;text-decoration-color:#000;text-transform:none;text-orientation:mixed;shape-padding:0;isolation:auto;mix-blend-mode:normal" d="M150.425 142.051a6.57 6.57 0 0 0-6.577 6.577v.102a6.572 6.572 0 0 0 6.577 6.578h21.398a6.572 6.572 0 0 0 6.576-6.578v-.102a6.57 6.57 0 0 0-6.576-6.577zm0 .887h21.398c3.16 0 5.69 2.529 5.69 5.69v.102a5.669 5.669 0 0 1-5.69 5.692h-21.398a5.669 5.669 0 0 1-5.69-5.692v-.102c0-3.161 2.529-5.69 5.69-5.69z" color="#000" font-weight="400" font-family="sans-serif" white-space="normal" overflow="visible" fill="url(#n)" stroke-width=".886"/><path d="M161.346 149a10.19 10.19 0 0 1-10.19 10.19 10.19 10.19 0 0 1-10.19-10.19 10.19 10.19 0 0 1 10.19-10.19 10.19 10.19 0 0 1 10.19 10.19z" fill-opacity=".157" stroke-width=".425" stroke-miterlimit="4.6" stroke-opacity=".197"/><path d="M160.66 148.685a9.304 9.304 0 0 1-9.304 9.304 9.304 9.304 0 0 1-9.304-9.304 9.304 9.304 0 0 1 9.304-9.304 9.304 9.304 0 0 1 9.304 9.304z" fill="url(#o)" stroke-width=".369" stroke-miterlimit="4.6"/><circle style="isolation:auto;mix-blend-mode:normal;marker:none" cx="194.128" cy="140.015" r="1.828" color="#000" display="block" overflow="visible" fill="#fdfeff" fill-opacity=".198" stroke-width=".466" stroke-linejoin="round"/><circle style="isolation:auto;mix-blend-mode:normal;marker:none" cx="125.781" cy="139.453" r="1.828" color="#000" display="block" overflow="visible" fill="#fdfeff" fill-opacity=".198" stroke-width=".466" stroke-linejoin="round"/><circle r="1.828" cy="179.017" cx="125.781" style="isolation:auto;mix-blend-mode:normal;marker:none" color="#000" display="block" overflow="visible" fill="#fdfeff" fill-opacity=".198" stroke-width=".466" stroke-linejoin="round"/><circle style="isolation:auto;mix-blend-mode:normal;marker:none" cx="160.095" cy="198.612" r="1.828" color="#000" overflow="visible" fill="#fdfeff" fill-opacity=".198" stroke-width=".466" stroke-linejoin="round"/><circle r="1.828" cy="179.111" cx="193.566" style="isolation:auto;mix-blend-mode:normal;marker:none" color="#000" display="block" overflow="visible" fill="#fdfeff" fill-opacity=".198" stroke-width=".466" stroke-linejoin="round"/><circle r="1.828" cy="120.046" cx="160.001" style="isolation:auto;mix-blend-mode:normal;marker:none" color="#000" display="block" overflow="visible" fill="#fdfeff" fill-opacity=".198" stroke-width=".466" stroke-linejoin="round"/><circle r="8.881" cy="170.476" cx="169.964" fill="none" stroke="#fff" stroke-width=".846" stroke-miterlimit="4.6" stroke-opacity=".237"/><circle r="8.881" cy="148.685" cx="151.356" fill="none" stroke="#fff" stroke-width=".846" stroke-miterlimit="4.6" stroke-opacity=".237"/></g></svg>