<svg xmlns="http://www.w3.org/2000/svg" xmlns:xlink="http://www.w3.org/1999/xlink" height="96" viewBox="0 0 96 96" width="96"><title>Template icons dark</title><defs><linearGradient id="d"><stop offset="0" stop-color="#fff" stop-opacity=".763"/><stop offset="1" stop-color="#fff" stop-opacity=".632"/></linearGradient><linearGradient id="c"><stop offset="0" stop-color="#fff"/><stop offset="1" stop-color="#fff" stop-opacity=".637"/></linearGradient><linearGradient id="b"><stop offset="0" stop-color="#ff053c"/><stop offset="1" stop-color="#0b31ff" stop-opacity=".974"/></linearGradient><linearGradient xlink:href="#a" id="e" x1="24.535" y1="7.996" x2="24.705" y2="38.25" gradientUnits="userSpaceOnUse" gradientTransform="matrix(2.20254 0 0 2.20254 106.96 103.705)"/><linearGradient id="a"><stop offset="0" stop-color="#1ed760"/><stop offset="1" stop-color="#1ed760"/></linearGradient><linearGradient xlink:href="#b" id="f" x1="122" y1="183" x2="196" y2="142" gradientUnits="userSpaceOnUse" gradientTransform="translate(-5.365 -5.365) scale(1.03353)"/><linearGradient xlink:href="#c" id="h" x1="160.063" y1="147" x2="158.323" y2="181" gradientUnits="userSpaceOnUse"/><linearGradient xlink:href="#d" id="g" x1="172" y1="119" x2="148.724" y2="201.638" gradientUnits="userSpaceOnUse"/></defs><g color="#000" transform="translate(-112 -112)"><circle style="isolation:auto;mix-blend-mode:normal;marker:none" cx="160" cy="160" r="48" display="block" overflow="visible" fill-opacity=".078" stroke-width="2.083"/><circle style="isolation:auto;mix-blend-mode:normal;marker:none" cx="160" cy="160" r="46" overflow="visible" fill="url(#e)" stroke-width="2.564"/><circle r="46" cy="160" cx="160" style="isolation:auto;mix-blend-mode:normal;marker:none" overflow="visible" opacity=".109" fill="url(#f)" stroke-width="2.564"/><circle style="isolation:auto;mix-blend-mode:normal;marker:none" cx="160" cy="160" r="44.75" overflow="visible" fill="none" stroke="url(#g)" stroke-width="2.5"/><path style="line-height:normal;font-variant-ligatures:normal;font-variant-position:normal;font-variant-caps:normal;font-variant-numeric:normal;font-variant-alternates:normal;font-feature-settings:normal;text-indent:0;text-align:start;text-decoration-line:none;text-decoration-style:solid;text-decoration-color:#000;text-transform:none;text-orientation:mixed;shape-padding:0;isolation:auto;mix-blend-mode:normal" d="M154.686 138.604c-7.58.002-15.049 1-22.051 2.867a4.247 4.247 0 1 0 2.19 8.207c16.716-4.458 36.728-3.3 53.077 5.316a4.247 4.247 0 1 0 3.961-7.514c-11.606-6.116-24.546-8.88-37.177-8.876zm-.5 15.619c-6.622-.028-13.082.851-18.842 2.457a3.657 3.657 0 1 0 1.963 7.045c13.423-3.741 32.257-2.735 44.97 5.238a3.657 3.657 0 1 0 3.887-6.195c-9.455-5.93-20.942-8.499-31.978-8.545zM155 169c-6.455-.098-12.647.857-18.346 2.123a2.832 2.832 0 1 0 1.229 5.527c12.455-2.767 26.113-3.86 39.931 4.387a2.832 2.832 0 1 0 2.903-4.863c-8.684-5.182-17.418-7.048-25.717-7.174z" font-weight="400" font-family="sans-serif" white-space="normal" overflow="visible" fill-opacity=".147" stroke-width="8.494"/><path d="M154.686 137.604c-7.58.002-15.049 1-22.051 2.867a4.247 4.247 0 1 0 2.19 8.207c16.716-4.458 36.728-3.3 53.077 5.316a4.247 4.247 0 1 0 3.961-7.514c-11.606-6.116-24.546-8.88-37.177-8.876zm-.5 15.619c-6.622-.028-13.082.851-18.842 2.457a3.657 3.657 0 1 0 1.963 7.045c13.423-3.741 32.257-2.735 44.97 5.238a3.657 3.657 0 1 0 3.887-6.195c-9.455-5.93-20.942-8.499-31.978-8.545zM155 168c-6.455-.098-12.647.857-18.346 2.123a2.832 2.832 0 1 0 1.229 5.527c12.455-2.767 26.113-3.86 39.931 4.387a2.832 2.832 0 1 0 2.903-4.863c-8.684-5.182-17.418-7.048-25.717-7.174z" style="line-height:normal;font-variant-ligatures:normal;font-variant-position:normal;font-variant-caps:normal;font-variant-numeric:normal;font-variant-alternates:normal;font-feature-settings:normal;text-indent:0;text-align:start;text-decoration-line:none;text-decoration-style:solid;text-decoration-color:#000;text-transform:none;text-orientation:mixed;shape-padding:0;isolation:auto;mix-blend-mode:normal" font-weight="400" font-family="sans-serif" white-space="normal" overflow="visible" fill="url(#h)" stroke-width="8.494"/></g></svg>