<svg xmlns="http://www.w3.org/2000/svg" xmlns:xlink="http://www.w3.org/1999/xlink" height="96" viewBox="0 0 96 96" width="96"><title>Template icons dark</title><defs><linearGradient id="b"><stop offset="0" stop-color="#aed5f8"/><stop offset="1" stop-color="#f7cbff"/></linearGradient><linearGradient id="c"><stop offset="0" stop-color="#5a9fdb"/><stop offset="1" stop-color="#e47ff5"/></linearGradient><linearGradient id="a"><stop offset="0" stop-color="#1d273b"/><stop offset="1" stop-color="#342b38"/></linearGradient><linearGradient xlink:href="#a" id="d" gradientUnits="userSpaceOnUse" gradientTransform="matrix(2.0909 0 0 -2.0909 111.324 211.687)" x1="14.633" y1="41.796" x2="34.842" y2="6.78"/><linearGradient xlink:href="#b" id="f" x1="112.037" y1="174.404" x2="175.498" y2="174.404" gradientUnits="userSpaceOnUse" gradientTransform="matrix(1.13647 0 0 1.13647 -4.394 -38.512)"/><linearGradient xlink:href="#c" id="e" x1="113" y1="160" x2="207" y2="160" gradientUnits="userSpaceOnUse"/></defs><g color="#000"><path style="isolation:auto;mix-blend-mode:normal;marker:none" d="M48 0A48.002 48.002 0 0 0 0 48a48.002 48.002 0 0 0 48 48 48.002 48.002 0 0 0 48-48A48.002 48.002 0 0 0 48 0zm0 35.825A12.175 12.175 0 0 1 60.175 48 12.175 12.175 0 0 1 48 60.175 12.175 12.175 0 0 1 35.825 48 12.175 12.175 0 0 1 48 35.825z" overflow="visible" fill-opacity=".12" stroke-width="2.087"/><path style="isolation:auto;mix-blend-mode:normal;marker:none" d="M160 206c-25.405 0-46-20.595-46-46s20.595-46 46-46 46 20.595 46 46-20.595 46-46 46z" overflow="visible" fill="url(#d)" stroke="url(#e)" stroke-width="2" transform="translate(-112 -112)"/><path d="M65.81 14.72c-5.225-.279-9.98 2.086-13.2 5.57-.382.413-.743.84-1.08 1.283l-29.732 39.03L4.231 50.63s.058 3.55.587 6.113c.658 3.191 1.482 6.145 1.482 6.145l10.362 5.596c-1.165 3.712-.384 7.94 2.88 11.205 4.377 4.376 10.486 4.295 14.762 1.038l43.354-33.024c7.07-5.385 10.075-17.437.693-26.82-4.129-4.128-8.478-5.944-12.541-6.161zm.244 6.624a12.41 12.41 0 0 1 8.59 3.634c4.846 4.845 4.847 12.702.002 17.548-4.846 4.847-12.704 4.847-17.55 0-4.846-4.846-4.846-12.702 0-17.548h.001a12.41 12.41 0 0 1 8.957-3.634zm-.21 4.262a7.997 7.997 0 0 0-7.998 7.997 7.997 7.997 0 1 0 7.997-7.997zm-36.137 37.05a7.17 7.17 0 1 1-5.174 12.24 7.17 7.17 0 0 1-1.904-3.443l5.174 2.577a4.68 4.68 0 1 0 3.949-8.477l-4.8-2.386a7.17 7.17 0 0 1 2.755-.51z" style="isolation:auto;mix-blend-mode:normal;marker:none" display="block" overflow="visible" fill-opacity=".319" stroke-width="1.136"/><path style="isolation:auto;mix-blend-mode:normal;marker:none" d="M176.612 125.523c-5.225-.28-9.98 2.085-13.2 5.57-.382.412-.742.84-1.079 1.282l-29.732 39.03-17.567-9.973s.057 3.55.586 6.113c.658 3.19 1.482 6.145 1.482 6.145l10.362 5.595c-1.164 3.713-.384 7.94 2.881 11.205 4.377 4.377 10.486 4.296 14.761 1.039l43.355-33.024c7.07-5.386 10.075-17.437.692-26.82-4.128-4.129-8.477-5.945-12.541-6.162zm.244 6.623a12.41 12.41 0 0 1 8.59 3.634c4.847 4.846 4.848 12.702.003 17.549-4.847 4.847-12.705 4.847-17.551 0-4.846-4.846-4.846-12.703 0-17.549h.002a12.41 12.41 0 0 1 8.956-3.634zm-.21 4.262a7.997 7.997 0 0 0-7.998 7.998 7.997 7.997 0 1 0 7.998-7.998zm-36.136 37.05a7.17 7.17 0 1 1-5.174 12.24 7.17 7.17 0 0 1-1.905-3.443l5.174 2.577a4.68 4.68 0 1 0 3.949-8.477l-4.799-2.386a7.17 7.17 0 0 1 2.755-.51z" display="block" overflow="visible" fill="url(#f)" stroke-width="1.136" transform="translate(-112 -112)"/></g></svg>