<svg xmlns="http://www.w3.org/2000/svg" xmlns:xlink="http://www.w3.org/1999/xlink" height="96" viewBox="0 0 96 96" width="96"><title>Template icons dark</title><defs><linearGradient id="a"><stop offset="0" stop-color="#eadfec"/><stop offset="1" stop-color="#c0dde6"/></linearGradient><linearGradient xlink:href="#b" id="d" x1="24.535" y1="7.996" x2="24.766" y2="38.006" gradientUnits="userSpaceOnUse" gradientTransform="translate(108.112 104.929) scale(2.15466)"/><linearGradient id="b"><stop offset="0" stop-color="#3e4453"/><stop offset="1" stop-color="#222630"/></linearGradient><linearGradient xlink:href="#c" id="e" x1="36.062" y1="47.638" x2="13.188" y2="8.325" gradientUnits="userSpaceOnUse" gradientTransform="matrix(2.14102 0 0 2.14102 108.616 101.764)"/><linearGradient id="c"><stop offset="0" stop-color="#abd6e5"/><stop offset="1" stop-color="#f7e2f7"/></linearGradient><linearGradient xlink:href="#a" id="f" gradientUnits="userSpaceOnUse" gradientTransform="matrix(2.27865 0 0 2.27865 108.603 104.42)" x1="17.302" y1="14.341" x2="30.113" y2="34.354"/></defs><g transform="translate(-112 -112)"><circle r="47" cy="160" cx="160" style="isolation:auto;mix-blend-mode:normal;marker:none" color="#000" display="block" overflow="visible" fill-opacity=".115" stroke-width="1.81"/><circle r="45" cy="160" cx="160" style="isolation:auto;mix-blend-mode:normal;marker:none" color="#000" overflow="visible" fill="url(#d)" stroke="url(#e)" stroke-width="2"/><circle style="isolation:auto;mix-blend-mode:normal;marker:none" cx="160" cy="160" r="45" color="#000" display="block" overflow="visible" fill="none" stroke="url(#e)" stroke-width="2"/><g opacity=".5" color="#000"><path style="isolation:auto;mix-blend-mode:normal;marker:none" display="block" overflow="visible" fill="#869eb6" stroke-width="1.989" d="M142 137h10v4h-10z"/><path style="isolation:auto;mix-blend-mode:normal;marker:none" display="block" overflow="visible" fill="#8e9f81" stroke-width="1.981" d="M153 137h6v4h-6z"/><path style="isolation:auto;mix-blend-mode:normal;marker:none" display="block" overflow="visible" fill="#9e9e86" stroke-width="1.989" d="M142 144h10v4h-10z"/><path style="isolation:auto;mix-blend-mode:normal;marker:none" display="block" overflow="visible" fill="#86b1d6" fill-opacity=".357" stroke-width="1.981" d="M153 144h6v4h-6z"/><path style="isolation:auto;mix-blend-mode:normal;marker:none" display="block" overflow="visible" fill="#88885e" fill-opacity=".495" stroke-width="1.981" d="M160 144h6v4h-6z"/><path style="isolation:auto;mix-blend-mode:normal;marker:none" display="block" overflow="visible" fill="#987f95" stroke-width="1.989" d="M142 152h10v4h-10z"/><path style="isolation:auto;mix-blend-mode:normal;marker:none" display="block" overflow="visible" fill="#9d875f" fill-opacity=".687" stroke-width="1.981" d="M153 152h6v4h-6z"/><path style="isolation:auto;mix-blend-mode:normal;marker:none" display="block" overflow="visible" fill="#987f95" fill-opacity=".676" stroke-width="1.989" d="M142 164h10v4h-10z"/><path style="isolation:auto;mix-blend-mode:normal;marker:none" display="block" overflow="visible" fill="#68798d" fill-opacity=".764" stroke-width="2.557" d="M153 164h10v4h-10z"/><path style="isolation:auto;mix-blend-mode:normal;marker:none" display="block" overflow="visible" fill="#606d78" stroke-width="1.989" d="M164 164h10v4h-10z"/><path style="isolation:auto;mix-blend-mode:normal;marker:none" display="block" overflow="visible" fill="#8f6094" stroke-width="1.912" d="M175 164h7v4h-7z"/><path style="isolation:auto;mix-blend-mode:normal;marker:none" display="block" overflow="visible" fill="#b36b75" stroke-width="1.989" d="M142 176h10v4h-10z"/><path style="isolation:auto;mix-blend-mode:normal;marker:none" display="block" overflow="visible" fill="#b47f70" stroke-width="1.979" d="M153 176.008h6v3.993h-6z"/><path style="isolation:auto;mix-blend-mode:normal;marker:none" display="block" overflow="visible" fill="#53c290" stroke-width="2.086" d="M142 184h11v4h-11z"/><path style="isolation:auto;mix-blend-mode:normal;marker:none" display="block" overflow="visible" fill="#e675d2" stroke-width="2.139" d="M154 184h7.001v4h-7z"/><path style="isolation:auto;mix-blend-mode:normal;marker:none" display="block" overflow="visible" fill="#5e6974" stroke-width="1.973" d="M160 176h5.953v4H160z"/><path style="isolation:auto;mix-blend-mode:normal;marker:none" display="block" overflow="visible" fill="#4d854d" stroke-width="2.016" d="M167 176h9v4h-9z"/><path style="isolation:auto;mix-blend-mode:normal;marker:none" display="block" overflow="visible" fill="#b36b75" stroke-width="2" d="M160 137h10v4h-10z"/><path style="isolation:auto;mix-blend-mode:normal;marker:none" display="block" overflow="visible" fill="#8f6094" stroke-width="1.912" d="M171 137h10.001v4h-10z"/><path style="isolation:auto;mix-blend-mode:normal;marker:none" display="block" overflow="visible" fill="#575f70" stroke-width="2.093" d="M134 137h4v4h-4zM134 144h4v4h-4zM134 152h4v4h-4zM134 158h4v4h-4zM134 164h4v4h-4zM134 170h4v4h-4zM134 176h4v4h-4zM134 184h4v4h-4z"/><path style="isolation:auto;mix-blend-mode:normal;marker:none" display="block" overflow="visible" fill="#9176e2" stroke-width="1.989" d="M142 129h10v4h-10z"/><path style="isolation:auto;mix-blend-mode:normal;marker:none" display="block" overflow="visible" fill="#57bdff" fill-opacity=".824" stroke-width="1.981" d="M153 129h6v4h-6z"/><path style="isolation:auto;mix-blend-mode:normal;marker:none" display="block" overflow="visible" fill="#575f70" stroke-width="2.093" d="M134 129h4v4h-4z"/></g><path d="M169.537 172.063q0-3.174-2.413-4.91-2.37-1.777-8.338-3.047-5.926-1.27-9.439-3.047-3.47-1.778-5.163-4.233-1.651-2.455-1.651-5.84 0-5.63 4.74-9.524 4.783-3.894 12.19-3.894 7.788 0 12.613 4.021 4.868 4.02 4.868 10.285h-7.873q0-3.217-2.751-5.545-2.709-2.327-6.857-2.327-4.275 0-6.687 1.862-2.413 1.862-2.413 4.867 0 2.836 2.243 4.275 2.244 1.44 8.085 2.751 5.883 1.312 9.523 3.132 3.64 1.82 5.375 4.402 1.778 2.54 1.778 6.222 0 6.137-4.91 9.862-4.91 3.682-12.74 3.682-5.502 0-9.735-1.947-4.232-1.947-6.645-5.417-2.37-3.513-2.37-7.577h7.83q.212 3.937 3.132 6.264 2.963 2.286 7.788 2.286 4.444 0 7.11-1.778 2.71-1.82 2.71-4.825z" style="line-height:10;-inkscape-font-specification:Roboto" font-weight="400" font-size="83.863" font-family="Roboto" letter-spacing="0" word-spacing="0" fill-opacity=".489" stroke-width="4.213" stroke-opacity=".194"/><path style="line-height:10;-inkscape-font-specification:Roboto" d="M169.537 170.063q0-3.174-2.413-4.91-2.37-1.777-8.338-3.047-5.926-1.27-9.439-3.047-3.47-1.778-5.163-4.233-1.651-2.455-1.651-5.84 0-5.63 4.74-9.524 4.783-3.894 12.19-3.894 7.788 0 12.613 4.021 4.868 4.02 4.868 10.285h-7.873q0-3.217-2.751-5.545-2.709-2.327-6.857-2.327-4.275 0-6.687 1.862-2.413 1.862-2.413 4.867 0 2.836 2.243 4.275 2.244 1.44 8.085 2.751 5.883 1.312 9.523 3.132 3.64 1.82 5.375 4.402 1.778 2.54 1.778 6.222 0 6.137-4.91 9.862-4.91 3.682-12.74 3.682-5.502 0-9.735-1.947-4.232-1.947-6.645-5.417-2.37-3.513-2.37-7.577h7.83q.212 3.937 3.132 6.264 2.963 2.286 7.788 2.286 4.444 0 7.11-1.778 2.71-1.82 2.71-4.825z" font-weight="400" font-size="83.863" font-family="Roboto" letter-spacing="0" word-spacing="0" fill="url(#f)" stroke-width="4.213" stroke-opacity=".194"/><path style="isolation:auto;mix-blend-mode:normal;marker:none" d="M160 115.94A44.061 44.061 0 0 0 115.94 160a44.061 44.061 0 0 0 .02.588A44.061 44.061 0 0 1 160 116.939a44.061 44.061 0 0 1 44.04 43.475 44.061 44.061 0 0 0 .02-.414A44.061 44.061 0 0 0 160 115.94z" color="#000" overflow="visible" fill-opacity=".236" stroke-width="1.958"/><path d="M160 204.007a44.061 44.061 0 0 1-44.06-44.06 44.061 44.061 0 0 1 .02-.588A44.061 44.061 0 0 0 160 203.007a44.061 44.061 0 0 0 44.04-43.474 44.061 44.061 0 0 1 .02.414 44.061 44.061 0 0 1-44.06 44.06z" style="isolation:auto;mix-blend-mode:normal;marker:none" color="#000" overflow="visible" fill="#fff" fill-opacity=".967" stroke-width="1.958"/></g></svg>