<svg xmlns="http://www.w3.org/2000/svg" xmlns:xlink="http://www.w3.org/1999/xlink" height="96" viewBox="0 0 96 96" width="96"><title>Template icons dark</title><defs><linearGradient id="j"><stop offset="0" stop-color="#0292e2"/><stop offset=".556" stop-color="#0283cb"/><stop offset=".59" stop-color="#0297e9"/><stop offset="1" stop-color="#41bafd"/></linearGradient><linearGradient id="c"><stop offset="0" stop-color="#fff" stop-opacity=".307"/><stop offset=".7" stop-color="#fff" stop-opacity=".214"/><stop offset="1" stop-color="#fff" stop-opacity=".188"/><stop offset="1" stop-color="#fff" stop-opacity="0"/></linearGradient><linearGradient id="h"><stop offset="0" stop-color="#fff" stop-opacity=".25"/><stop offset=".7" stop-color="#fff" stop-opacity=".214"/><stop offset="1" stop-color="#fff" stop-opacity=".188"/><stop offset="1" stop-color="#fff" stop-opacity="0"/></linearGradient><linearGradient id="i"><stop offset="0" stop-color="#fff" stop-opacity=".271"/><stop offset=".7" stop-color="#fff" stop-opacity=".214"/><stop offset="1" stop-color="#fff" stop-opacity=".188"/><stop offset="1" stop-color="#fff" stop-opacity="0"/></linearGradient><linearGradient id="f"><stop offset="0" stop-color="#0292e2"/><stop offset="1" stop-color="#029bf0"/></linearGradient><linearGradient id="e"><stop offset="0"/><stop offset="1" stop-opacity=".078"/></linearGradient><linearGradient id="d"><stop offset="0" stop-color="#00628a"/><stop offset=".632" stop-color="#00668f"/><stop offset="1" stop-color="#005172"/></linearGradient><linearGradient xlink:href="#a" id="o" x1="24" y1="38.535" x2="24" y2="1.669" gradientUnits="userSpaceOnUse" gradientTransform="matrix(1.84454 0 0 1.84454 115.731 116.922)"/><linearGradient id="a"><stop offset="0" stop-color="#fff"/><stop offset=".134" stop-color="#e9f5fa"/><stop offset=".301" stop-color="#dff2fa"/><stop offset=".422" stop-color="#b5e2f4"/><stop offset="1" stop-color="#22affd"/></linearGradient><linearGradient gradientTransform="matrix(2.08887 0 0 2.08887 109.867 101.922)" xlink:href="#b" id="n" x1="24.75" y1="47.202" x2="24.75" y2="46.372" gradientUnits="userSpaceOnUse"/><linearGradient id="b"><stop offset="0" stop-color="#fff" stop-opacity=".313"/><stop offset="1" stop-color="#fff" stop-opacity="0"/></linearGradient><linearGradient gradientTransform="matrix(2.08887 0 0 2.08887 109.867 101.922)" xlink:href="#c" id="m" x1="24.03" y1="40.729" x2="24.03" y2="31.155" gradientUnits="userSpaceOnUse"/><linearGradient id="g"><stop offset="0" stop-color="#fff" stop-opacity=".313"/><stop offset=".7" stop-color="#fff" stop-opacity=".214"/><stop offset="1" stop-color="#fff" stop-opacity=".188"/><stop offset="1" stop-color="#fff" stop-opacity="0"/></linearGradient><linearGradient xlink:href="#d" id="l" x1="165" y1="115" x2="165" y2="119.646" gradientUnits="userSpaceOnUse"/><linearGradient xlink:href="#e" id="p" x1="161" y1="124" x2="161" y2="126" gradientUnits="userSpaceOnUse"/><linearGradient xlink:href="#f" id="k" x1="132.78" y1="129" x2="197" y2="194" gradientUnits="userSpaceOnUse"/></defs><path d="M91 8v47l1 31c.065 1.999-2 4-4 4H8c-2 0-4.064-2.001-4-4l1-31V7.976L14.047 4 16 2h64l2.079 2z" fill="#030303" fill-opacity=".13" stroke-width=".255" stroke-opacity=".196"/><path d="M202 120l.016 47 .984 31c.052 1.647-1.353 3-3 3h-80c-1.647 0-3.053-1.353-3-3l1-31v-47z" fill="url(#k)" stroke-width=".533" stroke-opacity=".196" transform="translate(-112 -112)"/><path d="M128 115h64l2 2 8 3h-84l8-3z" fill="url(#l)" stroke-width=".528" stroke-opacity=".196" transform="translate(-112 -112)"/><path d="M202 120l.016 47 .984 31c.052 1.647-1.353 3-3 3h-80c-1.647 0-3.053-1.353-3-3l1-31v-47z" fill="url(#m)" stroke-width=".533" stroke-opacity=".196" transform="translate(-112 -112)"/><path d="M202.76 191l.24 7c.057 1.646-1.353 3-3 3h-80c-1.647 0-3.054-1.353-3-3l.23-7z" fill="url(#n)" stroke-width=".533" stroke-opacity=".196" transform="translate(-112 -112)"/><path d="M38.992 9L39 56H24l24.063 21L72 56H57V9z" fill-opacity=".307" stroke-width="1.291" stroke-linecap="round" stroke-opacity=".771"/><path d="M150.992 120l.008 47h-15l24.063 21L184 167h-15v-47z" fill="url(#o)" stroke-width="1.291" stroke-linecap="round" stroke-opacity=".771" transform="translate(-112 -112)"/><path style="line-height:normal;font-variant-ligatures:normal;font-variant-position:normal;font-variant-caps:normal;font-variant-numeric:normal;font-variant-alternates:normal;font-feature-settings:normal;text-indent:0;text-align:start;text-decoration-line:none;text-decoration-style:solid;text-decoration-color:#000;text-transform:none;text-orientation:mixed;shape-padding:0;isolation:auto;mix-blend-mode:normal" d="M16 3l-2 2-8 3h84l-8-3-2-2zm0 1h64l1 1 8 3H8l7-3z" color="#000" font-weight="400" font-family="sans-serif" white-space="normal" overflow="visible" fill="#92e3fa" fill-opacity=".13"/><path d="M143.45 124.17a3.764 3.764 0 0 0-3.764 3.764 3.764 3.764 0 0 0 3.763 3.765 3.764 3.764 0 0 0 3.766-3.765 3.764 3.764 0 0 0-3.766-3.764zm32.97 0a3.764 3.764 0 0 0-3.766 3.764 3.764 3.764 0 0 0 3.766 3.765 3.764 3.764 0 0 0 3.764-3.765 3.764 3.764 0 0 0-3.764-3.764z" fill="#2d2615" fill-opacity=".464" stroke="url(#p)" stroke-width=".6" transform="translate(-112 -112)"/><path d="M29.895 19.047s1.908 18.746 18.634 18.746c16.8 0 17.188-18.282 17.188-18.282-1.183-1.115-2.052-1.006-3.062-.371 0 0-1.593 15.498-14.126 15.498-13.107 0-15.2-15.406-15.2-15.406-.98-1.585-2.656-1.246-3.434-.185z" fill-opacity=".198" fill-rule="evenodd" stroke-width=".828" stroke-linecap="round" stroke-opacity=".333"/><path d="M29.895 16.047s1.908 18.746 18.634 18.746c16.8 0 17.188-18.282 17.188-18.282-1.183-1.115-2.052-1.006-3.062-.371 0 0-1.593 15.498-14.126 15.498-13.107 0-15.2-15.406-15.2-15.406-.98-1.585-2.656-1.246-3.434-.185z" fill="#fffffc" fill-rule="evenodd" stroke="#000" stroke-width=".828" stroke-linecap="round" stroke-opacity=".333"/><path d="M63.549 16.215l-.477.453 1.27 2.863.474-.453zm-32.486 3.172l-.278.742 3.268 1.215.275-.742zm30.894 3.254l-.775.156.687 3.416.776-.154zM33.943 25.93l-.06.787 3.474.271.061-.789zm23.579 2.388l-.67 3.42.777.153.668-3.42zm-14.215 2.489l-3.397.777.176.771 3.398-.777zm8.023 1.004l-2.904 1.927.44.66 2.902-1.927z" opacity=".57" fill="#7c6555" fill-opacity=".974" stroke-width="1.241" stroke-linecap="round" stroke-opacity=".729"/><path style="isolation:auto;mix-blend-mode:normal;marker:none" color="#000" overflow="visible" fill="#fff" fill-opacity=".182" stroke-width="1.296" d="M6 8h84v1H6z"/></svg>