<svg xmlns="http://www.w3.org/2000/svg" xmlns:xlink="http://www.w3.org/1999/xlink" height="96" viewBox="0 0 96 96" width="96"><title>Template icons dark</title><defs><linearGradient id="d"><stop offset="0" stop-color="#443791"/><stop offset="1" stop-color="#915cb8"/></linearGradient><linearGradient id="c"><stop offset="0" stop-color="#fff"/><stop offset="1" stop-color="#d2d2d2"/></linearGradient><linearGradient id="b"><stop offset="0" stop-color="#5a41e2"/><stop offset="1" stop-color="#4c9ce0" stop-opacity=".945"/></linearGradient><linearGradient id="a"><stop offset="0" stop-color="#fffefe"/><stop offset="1" stop-color="#fff" stop-opacity=".855"/></linearGradient><linearGradient xlink:href="#c" id="f" x1="160.425" y1="131.905" x2="160.425" y2="202" gradientUnits="userSpaceOnUse"/><linearGradient xlink:href="#d" id="e" x1="12.131" y1="258.452" x2="12.131" y2="181.283" gradientUnits="userSpaceOnUse"/></defs><path style="isolation:auto;mix-blend-mode:normal;marker:none" d="M4.248 43.819L43.795 4.272a5.935 5.935 0 0 1 8.412 0L91.753 43.82a5.935 5.935 0 0 1 0 8.412L52.207 91.777a5.935 5.935 0 0 1-8.412 0L4.248 52.231a5.935 5.935 0 0 1 0-8.412z" color="#000" overflow="visible" fill="#040307" fill-opacity=".1" stroke-width=".377" stroke-opacity=".104" paint-order="fill markers stroke"/><path transform="rotate(-45 -191.196 79.196)" style="isolation:auto;mix-blend-mode:normal;marker:none" d="M-26.905 193.685H26.87c3.168 0 5.72 2.55 5.72 5.72v53.775c0 3.169-2.552 5.72-5.72 5.72h-53.776a5.707 5.707 0 0 1-5.72-5.72v-53.776c0-3.168 2.551-5.72 5.72-5.72z" color="#000" overflow="visible" fill="url(#e)" stroke-width=".363" stroke-opacity=".104" paint-order="fill markers stroke"/><path d="M37.209 12.45l-1 1 10.215 10.214a6.788 6.788 0 0 1 6.986 1.63 6.741 6.741 0 0 1 1.9 3.81c.307-2.057-.315-4.223-1.9-5.81a6.788 6.788 0 0 0-6.986-1.63zm4.688 14.597a6.822 6.822 0 0 0-.012 2.064c.082-.557.22-1.11.44-1.636zm13.47 3.619a6.821 6.821 0 0 1-.342 1.66l9.848 9.844a6.794 6.794 0 0 1 7.031 1.617 6.768 6.768 0 0 1 1.912 3.81 6.794 6.794 0 0 0-8.943-7.428zM60.38 45.59a6.816 6.816 0 0 0-.004 2.012c.08-.543.21-1.08.422-1.594zM4.092 47.02a5.71 5.71 0 0 0 1.584 5.05l38.281 38.28a5.72 5.72 0 0 0 8.088.002L90.326 52.07a5.71 5.71 0 0 0 1.582-5.045 5.683 5.683 0 0 1-1.582 3.045L52.045 88.352a5.719 5.719 0 0 1-8.088-.002L5.676 50.07a5.686 5.686 0 0 1-1.584-3.05zm41.933 11.763a6.799 6.799 0 0 0-2.228 1.487 6.78 6.78 0 0 0-1.91 5.808 6.753 6.753 0 0 1 1.91-3.808 6.799 6.799 0 0 1 2.228-1.487zm5.596.2v2a6.765 6.765 0 0 1 3.71 5.1 6.787 6.787 0 0 0-3.71-7.1z" fill="#fff" fill-opacity=".668" stroke-width=".966"/><path style="line-height:normal;font-variant-ligatures:normal;font-variant-position:normal;font-variant-caps:normal;font-variant-numeric:normal;font-variant-alternates:normal;font-feature-settings:normal;text-indent:0;text-align:start;text-decoration-line:none;text-decoration-style:solid;text-decoration-color:#000;text-transform:none;text-orientation:mixed;shape-padding:0;isolation:auto;mix-blend-mode:normal" d="M46.295 24.219l.283-.098a6.302 6.302 0 0 1 6.49 1.516 6.308 6.308 0 0 1 1.502 6.53l-.1.286 10.274 10.274.285-.1a6.306 6.306 0 0 1 6.532 1.502h.002a6.313 6.313 0 0 1 .002 8.94 6.316 6.316 0 0 1-8.944-.003 6.32 6.32 0 0 1-1.377-6.875l.123-.297-10.236-10.236.006 25.625.27.133a6.315 6.315 0 0 1 1.674 10.139 6.315 6.315 0 0 1-8.94-.002 6.315 6.315 0 0 1-.002-8.942 6.314 6.314 0 0 1 2.07-1.38l.301-.124-.006-25.03-.3-.124a6.32 6.32 0 0 1-3.434-8.291l.125-.299-10.21-10.166-.627.713 9.733 9.715c-.932 2.577-.408 5.566 1.656 7.63h.002v.003c.616.617 1.342 1.04 2.088 1.389l.006 23.89c-.747.35-1.474.778-2.088 1.39-2.842 2.842-2.84 7.46.002 10.307 2.841 2.842 7.465 2.843 10.307.002a7.295 7.295 0 0 0-.002-10.306c-.498-.498-1.072-.865-1.658-1.188l-.006-22.75 8.17 8.168c-.914 2.568-.381 5.538 1.67 7.59 2.845 2.843 7.465 2.845 10.308.002h.002c2.842-2.843 2.839-7.464-.004-10.307-1.951-1.953-4.732-2.523-7.207-1.794l-9.492-9.489c.73-2.476.16-5.255-1.793-7.209-1.94-1.941-4.697-2.517-7.162-1.806-3.418-3.26-9.932-9.918-9.932-9.918l-.649.66z" color="#000" font-weight="400" font-family="sans-serif" white-space="normal" overflow="visible" fill-opacity="0" stroke="#000" stroke-width="1.366" stroke-opacity=".142"/><path d="M202.325 155.98L164.046 117.7a5.72 5.72 0 0 0-8.089 0l-7.747 7.749 10.214 10.214a6.796 6.796 0 0 1 8.602 8.661l9.846 9.846a6.793 6.793 0 0 1 7.031 1.616 6.804 6.804 0 1 1-9.624 9.622c-2-2-2.494-4.94-1.481-7.401l-9.183-9.183.006 24.158a6.806 6.806 0 0 1 1.8 10.912 6.805 6.805 0 0 1-9.622-.002 6.806 6.806 0 0 1 2.227-11.109l-.006-24.383a6.806 6.806 0 0 1-3.697-8.926l-10.07-10.07-26.579 26.576a5.721 5.721 0 0 0 .002 8.09l38.281 38.279a5.719 5.719 0 0 0 8.088.002l38.28-38.28a5.723 5.723 0 0 0 0-8.092z" fill="url(#f)" stroke-width=".966" transform="translate(-112 -112)"/><path style="isolation:auto;mix-blend-mode:normal;marker:none" d="M48.504 27.875a2.233 2.233 0 0 0-2.234 2.234 2.233 2.233 0 0 0 2.234 2.233 2.233 2.233 0 0 0 2.232-2.233 2.233 2.233 0 0 0-2.232-2.234zm18.781 18.578a2.233 2.233 0 0 0-2.234 2.234 2.233 2.233 0 0 0 2.234 2.233 2.233 2.233 0 0 0 2.233-2.233 2.233 2.233 0 0 0-2.233-2.234zm-18.984 18.07a2.233 2.233 0 0 0-2.235 2.235 2.233 2.233 0 0 0 2.235 2.232 2.233 2.233 0 0 0 2.232-2.232 2.233 2.233 0 0 0-2.232-2.235z" color="#000" overflow="visible" fill="#fff" fill-opacity=".363" stroke-width=".815" stroke-opacity=".142"/></svg>