<svg xmlns="http://www.w3.org/2000/svg" xmlns:xlink="http://www.w3.org/1999/xlink" height="96" viewBox="0 0 96 96" width="96"><title>Template icons dark</title><defs><linearGradient id="d"><stop offset="0" stop-color="#4e98d9"/><stop offset="1" stop-color="#ce18ec"/></linearGradient><linearGradient id="c"><stop offset="0" stop-color="#3489d3"/><stop offset="1" stop-color="#dd5ff2"/></linearGradient><linearGradient xlink:href="#a" id="f" gradientUnits="userSpaceOnUse" gradientTransform="rotate(45 -84.153 132.922) scale(1.73592)" x1="76.324" y1="-11.358" x2="40.503" y2="-11.358"/><linearGradient id="a"><stop offset="0" stop-color="#5a9fdb"/><stop offset="1" stop-color="#e47ff5"/></linearGradient><linearGradient id="b"><stop offset="0" stop-color="#d1d6da"/><stop offset="1" stop-color="#fff"/></linearGradient><linearGradient xlink:href="#b" id="e" gradientUnits="userSpaceOnUse" gradientTransform="matrix(2.0909 0 0 2.0909 111.324 108.313)" x1="22.978" y1="39.178" x2="22.978" y2="21.425"/></defs><path style="isolation:auto;mix-blend-mode:normal;marker:none" d="M48 1A47.002 47.002 0 0 0 1 48a47.002 47.002 0 0 0 47 47 47.002 47.002 0 0 0 47-47A47.002 47.002 0 0 0 48 1zm0 35.079A11.921 11.921 0 0 1 59.921 48a11.921 11.921 0 0 1-11.92 11.921A11.921 11.921 0 0 1 36.078 48 11.921 11.921 0 0 1 48 36.079z" color="#000" overflow="visible" fill-opacity=".12" stroke-width="2.044"/><path style="isolation:auto;mix-blend-mode:normal;marker:none" d="M160 114c-25.405 0-46 20.595-46 46s20.595 46 46 46 46-20.595 46-46-20.595-46-46-46z" color="#000" overflow="visible" fill="url(#e)" stroke-width="1.045" stroke-opacity=".702" transform="translate(-112 -112)"/><path style="isolation:auto;mix-blend-mode:normal;marker:none" d="M2.014 47.5c-.002.167-.014.332-.014.5 0 25.405 20.595 46 46 46s46-20.595 46-46c0-.168-.012-.333-.014-.5C93.716 72.674 73.237 93 48 93S2.283 72.674 2.014 47.5z" color="#000" overflow="visible" fill="#eaeaea" stroke-width="1.045" stroke-opacity=".702"/><path d="M174.73 145.27l-7.365 7.365h19.64v-19.64l-7.365 7.365c-10.851-10.85-28.429-10.85-39.28 0-3.854 3.855-6.297 8.556-7.414 13.503h7.169a20.583 20.583 0 0 1 5.155-8.593c8.138-8.138 21.322-8.138 29.46 0zm12.324 20.867h-7.169a20.583 20.583 0 0 1-5.155 8.593c-8.138 8.138-21.322 8.138-29.46 0l7.365-7.365h-19.64v19.64l7.365-7.365c10.851 10.85 28.429 10.85 39.28 0 3.854-3.855 6.297-8.556 7.414-13.503z" style="marker:none" fill="url(#f)" stroke-width="2.642" stroke-opacity=".073" transform="translate(-112 -112)"/><path style="marker:none" d="M48 20.223a27.688 27.688 0 0 0-19.64 8.136c-3.855 3.855-6.296 8.558-7.413 13.504h.26c1.21-4.578 3.56-8.91 7.152-12.504 10.851-10.85 28.43-10.85 39.282 0l7.363-7.363v-1l-7.363 7.363A27.688 27.688 0 0 0 48 20.223zm14.217 13.56l-6.852 6.852h1l6.366-6.365c-.168-.168-.342-.326-.514-.487zm5.668 20.354a20.585 20.585 0 0 1-5.154 8.593c-7.97 7.97-20.778 8.129-28.948.487l-.513.513c8.138 8.139 21.322 8.139 29.46 0a20.585 20.585 0 0 0 5.155-8.593h6.908c.088-.333.184-.665.26-1zm-46.889 1.228v1h18.639l1-1z" fill-opacity=".276" stroke-width="2.642" stroke-opacity=".073"/><path style="marker:none" d="M48 27.166a20.767 20.767 0 0 0-14.73 6.104 20.585 20.585 0 0 0-5.155 8.593h-6.908c-.088.333-.184.665-.26 1h7.168a20.585 20.585 0 0 1 5.155-8.593c7.97-7.97 20.777-8.129 28.947-.487l.514-.513A20.767 20.767 0 0 0 48 27.166zm8.365 13.469l-1 1h19.639v-1zm18.428 14.502c-1.21 4.578-3.56 8.91-7.152 12.504-10.851 10.85-28.43 10.85-39.282 0l-7.363 7.363v1l7.363-7.363c10.851 10.85 28.43 10.85 39.282 0 3.854-3.855 6.295-8.558 7.412-13.504zm-35.158 1.228L33.27 62.73c.167.168.341.326.513.487l6.852-6.852z" fill="#fff" stroke-width="2.642" stroke-opacity=".073"/><path d="M48 7C25.356 7 7 25.356 7 48s18.356 41 41 41 41-18.356 41-41S70.644 7 48 7z" style="isolation:auto;mix-blend-mode:normal;marker:none" color="#000" overflow="visible" fill="none" stroke="#000" stroke-width=".932" stroke-dasharray=".93226189,2.79678567" stroke-opacity=".13"/><path style="isolation:auto;mix-blend-mode:normal;marker:none" d="M48 4C23.7 4 4 23.7 4 48s19.7 44 44 44 44-19.7 44-44S72.3 4 48 4z" color="#000" overflow="visible" fill="none" stroke="#000" stroke-width="1.001" stroke-dasharray="1.001,3.003" stroke-opacity=".104"/></svg>