<svg xmlns="http://www.w3.org/2000/svg" xmlns:xlink="http://www.w3.org/1999/xlink" height="96" viewBox="0 0 96 96" width="96"><title>Template icons dark</title><defs><linearGradient id="b"><stop offset="0" stop-color="#7da2db"/><stop offset=".399" stop-color="#555dbb"/><stop offset="1" stop-color="#b985b0"/></linearGradient><linearGradient xlink:href="#a" id="e" x1="152.009" y1="127.834" x2="152.009" y2="94.362" gradientUnits="userSpaceOnUse" gradientTransform="matrix(1.0687 0 0 1.02522 21.04 20.085)"/><linearGradient id="a"><stop offset="0" stop-color="#0b1528"/><stop offset="1" stop-color="#473d49"/></linearGradient><linearGradient xlink:href="#b" id="f" x1="183" y1="155" x2="132.898" y2="114" gradientUnits="userSpaceOnUse" gradientTransform="matrix(.96808 0 0 .92856 5.107 9.572)"/><linearGradient xlink:href="#a" id="c" gradientUnits="userSpaceOnUse" gradientTransform="matrix(1.0687 0 0 1.02522 21.04 20.085)" x1="152.009" y1="127.834" x2="152.009" y2="94.362"/><linearGradient xlink:href="#b" id="d" gradientUnits="userSpaceOnUse" gradientTransform="matrix(.96808 0 0 .92857 5.106 9.571)" x1="183" y1="155" x2="132.898" y2="114"/></defs><g transform="translate(-112 -112)"><rect style="isolation:auto;mix-blend-mode:normal;marker:none" width="90.039" height="16" x="115" y="152" ry="0" color="#000" overflow="visible" fill-opacity=".157" stroke-width="1.143"/><g transform="translate(0 48)"><rect ry="1.379" y="114" x="114" height="40" width="92" style="marker:none" fill="url(#c)" stroke-width=".965" stroke-opacity=".471"/><rect style="marker:none" width="91" height="39" x="114.5" y="114.5" ry=".428" fill="none" stroke="url(#d)"/><rect ry="0" y="142" x="142" height="5" width="18" style="isolation:auto;mix-blend-mode:normal;marker:none" color="#000" overflow="visible" fill="#d8e6ff" stroke-width="1.16" stroke-opacity=".272"/><path style="line-height:10;-inkscape-font-specification:'Ubuntu Mono';isolation:auto;mix-blend-mode:normal;marker:none" d="M128.697 141.783q1.047 0 1.745-.143.727-.172 1.134-.458.407-.315.581-.716.175-.429.175-.915 0-.716-.349-1.202-.349-.515-.96-.887-.581-.401-1.337-.687-.756-.315-1.57-.601-.786-.286-1.571-.63-.756-.343-1.367-.83-.581-.515-.96-1.202-.378-.715-.378-1.745 0-1.832 1.106-2.977 1.105-1.145 3.198-1.46v-2.947h2.152v2.862q1.164.057 2.123.286.989.2 1.57.43l-.494 2.003q-.61-.23-1.541-.458-.93-.258-2.356-.258-1.57 0-2.413.572-.815.573-.815 1.66 0 .601.233 1.002.262.4.727.715.465.315 1.076.573.64.257 1.425.544.989.372 1.92.8.93.402 1.628.974.698.572 1.105 1.374.436.8.436 1.917 0 1.688-1.134 2.862-1.134 1.173-3.49 1.46v3.29h-2.152v-3.205q-1.832-.057-2.966-.4-1.134-.344-1.686-.659l.64-1.974q.784.372 1.86.715 1.076.315 2.705.315z" color="#000" font-weight="400" font-size="28.848" font-family="Ubuntu Mono" letter-spacing="0" word-spacing="0" fill="#fff" fill-opacity=".984" stroke-width="1.118" stroke-opacity=".272"/></g><g transform="translate(0 4)"><rect style="marker:none" width="92" height="40" x="114" y="114" ry="1.379" fill="url(#e)" stroke-width=".965" stroke-opacity=".471"/><rect ry=".428" y="114.5" x="114.5" height="39" width="91" style="marker:none" fill="none" stroke="url(#f)"/><rect style="isolation:auto;mix-blend-mode:normal;marker:none" width="18" height="5" x="142" y="142" ry="0" color="#000" overflow="visible" fill="#d8e6ff" stroke-width="1.16" stroke-opacity=".272"/><path d="M128.697 141.783q1.047 0 1.745-.143.727-.172 1.134-.458.407-.315.581-.716.175-.429.175-.915 0-.716-.349-1.202-.349-.515-.96-.887-.581-.401-1.337-.687-.756-.315-1.57-.601-.786-.286-1.571-.63-.756-.343-1.367-.83-.581-.515-.96-1.202-.378-.715-.378-1.745 0-1.832 1.106-2.977 1.105-1.145 3.198-1.46v-2.947h2.152v2.862q1.164.057 2.123.286.989.2 1.57.43l-.494 2.003q-.61-.23-1.541-.458-.93-.258-2.356-.258-1.57 0-2.413.572-.815.573-.815 1.66 0 .601.233 1.002.262.4.727.715.465.315 1.076.573.64.257 1.425.544.989.372 1.92.8.93.402 1.628.974.698.572 1.105 1.374.436.8.436 1.917 0 1.688-1.134 2.862-1.134 1.173-3.49 1.46v3.29h-2.152v-3.205q-1.832-.057-2.966-.4-1.134-.344-1.686-.659l.64-1.974q.784.372 1.86.715 1.076.315 2.705.315z" style="line-height:10;-inkscape-font-specification:'Ubuntu Mono';isolation:auto;mix-blend-mode:normal;marker:none" color="#000" font-weight="400" font-size="28.848" font-family="Ubuntu Mono" letter-spacing="0" word-spacing="0" fill="#fff" fill-opacity=".984" stroke-width="1.118" stroke-opacity=".272"/></g></g></svg>