<svg xmlns="http://www.w3.org/2000/svg" xmlns:xlink="http://www.w3.org/1999/xlink" height="96" viewBox="0 0 96 96" width="96"><title>Template icons dark</title><defs><linearGradient id="l"><stop offset="0" stop-color="#5d6687"/><stop offset="1" stop-color="#e6e6e6"/></linearGradient><linearGradient id="k"><stop offset="0" stop-opacity=".286"/><stop offset="1" stop-opacity=".083"/></linearGradient><linearGradient xlink:href="#a" id="p" x1="20.54" y1="20.256" x2="17.967" y2="15.009" gradientUnits="userSpaceOnUse" gradientTransform="matrix(2.8689 0 0 2.8689 94.072 82.556)"/><linearGradient id="a"><stop offset="0" stop-color="#fff" stop-opacity=".161"/><stop offset="1" stop-color="#fff" stop-opacity=".708"/></linearGradient><linearGradient xlink:href="#b" id="s" gradientUnits="userSpaceOnUse" gradientTransform="matrix(.5671 .56157 -1.11238 1.14519 196.997 109.169)" x1="45.878" y1="34.792" x2="45.869" y2="42.694"/><linearGradient id="b"><stop offset="0" stop-color="#4b4b4b"/><stop offset=".125" stop-color="#fff"/><stop offset=".306" stop-color="#747474"/><stop offset=".47" stop-color="#fff"/><stop offset=".539" stop-color="#fff"/><stop offset=".731" stop-color="#646464"/><stop offset=".931" stop-color="#fff"/><stop offset="1" stop-color="#505050"/></linearGradient><linearGradient xlink:href="#b" id="t" gradientUnits="userSpaceOnUse" gradientTransform="matrix(.7981 0 0 1.5965 225.755 -64.719)" x1="45.878" y1="34.792" x2="46.015" y2="47.577"/><linearGradient xlink:href="#c" id="q" x1="11.592" y1="14.007" x2="28.333" y2="31.765" gradientUnits="userSpaceOnUse" gradientTransform="matrix(2.8689 0 0 2.8689 94.072 82.556)"/><linearGradient id="c"><stop offset="0" stop-color="#fcfcfc"/><stop offset=".512" stop-color="#7c7c7c"/><stop offset=".904" stop-color="#fcfcfc"/><stop offset="1" stop-color="#b5b5b5"/></linearGradient><linearGradient xlink:href="#d" id="r" x1="8.57" y1="18.196" x2="28.333" y2="31.765" gradientUnits="userSpaceOnUse" gradientTransform="matrix(2.8689 0 0 2.8689 94.072 82.556)"/><linearGradient id="d"><stop offset="0" stop-opacity="0"/><stop offset="1" stop-color="#919191" stop-opacity=".502"/></linearGradient><linearGradient id="e"><stop offset="0" stop-color="#15b5ff"/><stop offset="1" stop-color="#1385ff"/></linearGradient><linearGradient id="f"><stop offset="0" stop-color="#42ec81"/><stop offset="1" stop-color="#3add5c"/></linearGradient><linearGradient id="g"><stop offset="0" stop-color="#ff8300"/><stop offset="1" stop-color="#ff5b00"/></linearGradient><linearGradient id="h"><stop offset="0" stop-color="#f72424" stop-opacity=".066"/><stop offset="1" stop-color="#f72424" stop-opacity=".118"/></linearGradient><linearGradient xlink:href="#i" id="m" gradientUnits="userSpaceOnUse" x1="23.844" y1="46.356" x2="23.844" y2="2.313" gradientTransform="matrix(1.52345 0 0 1.52345 114.167 113.35)"/><linearGradient id="i"><stop offset="0" stop-color="#6a7395"/><stop offset="1" stop-color="#d3d3d3"/></linearGradient><linearGradient xlink:href="#j" id="n" gradientUnits="userSpaceOnUse" x1="26.05" y1="46.063" x2="26.05" y2="1.813" gradientTransform="matrix(1.52345 0 0 1.52345 114.167 113.35)"/><linearGradient id="j"><stop offset="0" stop-color="#b1b1b1"/><stop offset="1" stop-color="#7d809b"/></linearGradient><linearGradient xlink:href="#k" id="o" x1="24.468" y1="33.879" x2="24.468" y2="12.544" gradientUnits="userSpaceOnUse"/></defs><path style="isolation:auto;mix-blend-mode:normal;marker:none" d="M72 38a34 34 0 0 1-34 34A34 34 0 0 1 4 38 34 34 0 0 1 38 4a34 34 0 0 1 34 34z" color="#000" display="block" overflow="visible" fill-opacity=".813" stroke-width=".5" stroke-opacity=".391" paint-order="fill markers stroke"/><path d="M146.62 116.397c-.569 0-.887.45-1.028.97l-2.183 8.032.051.01a25.791 25.791 0 0 0-4.82 1.953l-7.226-4.159c-.467-.269-1.01-.362-1.413.04l-5.876 5.877c-.403.402-.309.939-.04 1.407l4.06 7.1a25.791 25.791 0 0 0-2.113 4.94l-7.847 2.115c-.521.14-.97.46-.97 1.028v8.312c0 .57.449.881.97 1.023l7.674 2.09a25.791 25.791 0 0 0 2.12 5.211l-3.958 6.882c-.269.468-.362 1.01.04 1.413l5.877 5.877c.402.402.939.308 1.407.04l6.79-3.89a25.791 25.791 0 0 0 5.325 2.224l2.04 7.565c.14.521.46.971 1.028.971h8.312c.57 0 .881-.45 1.023-.97l2.062-7.572a25.791 25.791 0 0 0 5.256-2.211l6.865 3.946c.468.27 1.01.362 1.413-.04l5.876-5.877c.403-.402.309-.944.04-1.413l-3.98-6.945a25.791 25.791 0 0 0 2.056-5.095l7.824-2.114c.521-.14.971-.454.971-1.023v-8.312c0-.569-.45-.887-.97-1.028l-7.957-2.16a25.791 25.791 0 0 0-2.028-4.814l4.148-7.203c.27-.468.362-1.011-.04-1.414l-5.877-5.876c-.402-.402-.945-.309-1.413-.04l-7.22 4.136.04.057a25.791 25.791 0 0 0-4.809-1.993l.023-.005-2.188-8.094c-.14-.521-.454-.971-1.023-.971h-8.312zm4.113 27.539a5.974 5.974 0 0 1 5.974 5.974 5.974 5.974 0 0 1-5.974 5.974 5.974 5.974 0 0 1-5.974-5.974 5.974 5.974 0 0 1 5.974-5.974z" style="isolation:auto;mix-blend-mode:normal;marker:none" color="#000" overflow="visible" opacity=".569" fill="url(#m)" stroke="url(#n)" stroke-width="1.066" stroke-linecap="round" paint-order="stroke fill markers" transform="translate(-112 -112)"/><path transform="matrix(1.42601 0 0 1.42601 4.506 3.688)" style="line-height:normal;text-indent:0;text-align:start;text-decoration-line:none;text-decoration-style:solid;text-decoration-color:#000;text-transform:none;isolation:auto;mix-blend-mode:normal;marker:none" d="M24.002 13.188c-5.95 0-10.814 4.86-10.814 10.81s4.864 10.814 10.814 10.814 10.81-4.864 10.81-10.814-4.86-10.81-10.81-10.81zm0 3.86a6.918 6.918 0 0 1 6.95 6.95 6.921 6.921 0 0 1-6.95 6.953 6.924 6.924 0 0 1-6.953-6.953c0-3.863 3.09-6.95 6.953-6.95z" color="#000" font-weight="400" font-family="sans-serif" white-space="normal" overflow="visible" opacity=".569" fill="url(#o)" stroke="#000" stroke-width=".351" stroke-linecap="round" stroke-opacity=".391" paint-order="stroke fill markers"/><path style="line-height:normal;text-indent:0;text-align:start;text-decoration-line:none;text-decoration-style:solid;text-decoration-color:#000;text-transform:none;isolation:auto;mix-blend-mode:normal;marker:none" d="M38.732 22.494c-8.484 0-15.421 6.932-15.421 15.416 0 .169.02.333.025.5.268-8.253 7.081-14.916 15.396-14.916 8.316 0 15.123 6.663 15.391 14.916.005-.167.025-.331.025-.5 0-8.484-6.931-15.416-15.416-15.416zM28.844 38.41c-.008.167-.026.331-.026.5a9.872 9.872 0 0 0 9.914 9.914 9.869 9.869 0 0 0 9.91-9.914c0-.169-.017-.333-.025-.5a9.857 9.857 0 0 1-9.885 9.414 9.86 9.86 0 0 1-9.888-9.414z" color="#000" font-weight="400" font-family="sans-serif" white-space="normal" overflow="visible" opacity=".569" fill-opacity=".401" stroke-width=".5" stroke-linecap="round" stroke-opacity=".391" paint-order="stroke fill markers"/><path d="M38.732 54.513c-8.484 0-15.421-6.932-15.421-15.416 0-.17.02-.333.025-.5.268 8.253 7.081 14.916 15.396 14.916 8.316 0 15.123-6.663 15.391-14.916.005.167.025.33.025.5 0 8.484-6.931 15.416-15.416 15.416zm-9.888-15.916c-.008-.167-.026-.332-.026-.5a9.872 9.872 0 0 1 9.914-9.914 9.869 9.869 0 0 1 9.91 9.914c0 .168-.017.333-.025.5a9.857 9.857 0 0 0-9.885-9.414 9.86 9.86 0 0 0-9.888 9.414z" style="line-height:normal;text-indent:0;text-align:start;text-decoration-line:none;text-decoration-style:solid;text-decoration-color:#000;text-transform:none;isolation:auto;mix-blend-mode:normal;marker:none" color="#000" font-weight="400" font-family="sans-serif" white-space="normal" overflow="visible" opacity=".569" fill="#fff" fill-opacity=".427" stroke-width=".5" stroke-linecap="round" stroke-opacity=".391" paint-order="stroke fill markers"/><path d="M39.565 4.234c-17.68 0-34.281 15.93-34.281 33.61S21.49 71.468 39.17 71.468c17.68 0 33.36-15.681 33.36-33.361S57.246 4.234 39.565 4.234zm-.394 2.463c15.58 0 28.122 13.594 28.122 29.174A28.06 28.06 0 0 1 39.17 63.993 28.06 28.06 0 0 1 11.049 35.87c0-15.58 12.542-29.174 28.122-29.174z" fill="#050505" fill-opacity=".276" stroke-width=".574"/><path d="M151.494 123.662a19.731 19.731 0 0 0-5.484.534c-17.877 4.399-24.158 20.33-18.745 26.178 4.411 4.768 8.472-4.358 20.879-7.342 12.407-2.983 19.272 5.959 23.115.83 5.8-7.738-6.875-19.7-19.765-20.2zm21.118 25.512c-1.821-.158-3.739 1.263-4.473 3.33-.84 2.361.052 5.045 2.072 5.763s4.402-.803 5.241-3.165c.84-2.362-.052-5.042-2.072-5.76a3.084 3.084 0 0 0-.768-.168z" fill="url(#p)" stroke-width="1.693" stroke-miterlimit="0" stroke-opacity=".192" transform="translate(-112 -112)"/><path d="M150.73 113.92c-19.94 0-35.992 16.053-35.992 35.992 0 19.94 16.052 35.992 35.992 35.992 19.94 0 35.992-16.052 35.992-35.992 0-19.939-16.053-35.991-35.992-35.991zm0 2.793c18.392 0 33.2 14.808 33.2 33.2 0 18.392-14.808 33.199-33.2 33.199-18.392 0-33.2-14.807-33.2-33.2 0-18.391 14.808-33.199 33.2-33.199z" fill="url(#q)" stroke="url(#r)" stroke-width=".421" transform="translate(-112 -112)"/><g stroke-width="1.693" stroke-miterlimit="0"><path d="M180.51 170.87l5.744 5.435-9.088 9.234-5.558-5.503z" fill="url(#s)" stroke-opacity=".192" transform="translate(-112 -112)"/><path d="M258.257-9.374h22.38c1.012 0 1.826.815 1.826 1.827V8.935a1.823 1.823 0 0 1-1.826 1.826h-22.38a1.823 1.823 0 0 1-1.827-1.826V-7.547c0-1.012.815-1.827 1.827-1.827z" transform="matrix(.71057 .70363 -.69676 .7173 -112 -112)" fill="url(#t)" stroke-opacity=".192"/><path d="M91.64 76.502l2.418 2.37c.496.485.618 1.713.01 2.339l-11.76 12.1c-.49.505-1.702.526-2.266-.032l-2.558-2.526c6.045-5.733 10.423-9.77 14.156-14.251z" fill-opacity=".427"/><path d="M77.053 62.02l2.177 2.119c-5.727 4.757-9.088 8.132-14.072 14.39l-2.084-2.049c-.134-.132-.202-.585-.09-.699L76.61 61.99c.112-.114.31-.1.444.03z" fill-opacity=".494"/></g></svg>