<svg xmlns="http://www.w3.org/2000/svg" xmlns:xlink="http://www.w3.org/1999/xlink" height="96" viewBox="0 0 96 96" width="96"><title>Template icons dark</title><defs><linearGradient id="d"><stop offset="0" stop-color="#e7747f"/><stop offset=".151" stop-color="#8c2f37"/><stop offset=".491" stop-color="#882d2d"/><stop offset=".873" stop-color="#cf5763"/><stop offset="1" stop-color="#f83044"/></linearGradient><linearGradient id="g"><stop offset="0" stop-color="#fff" stop-opacity=".115"/><stop offset=".555" stop-color="#fff" stop-opacity=".681"/><stop offset="1" stop-color="#fff" stop-opacity="0"/></linearGradient><linearGradient id="h"><stop offset="0" stop-color="#fff" stop-opacity=".073"/><stop offset=".555" stop-color="#fff" stop-opacity=".681"/><stop offset="1" stop-color="#fff" stop-opacity=".068"/></linearGradient><linearGradient id="f"><stop offset="0" stop-color="#463f54"/><stop offset=".192" stop-color="#413a4f"/><stop offset=".345" stop-color="#615876"/><stop offset=".499" stop-color="#3e384c"/><stop offset="1" stop-color="#343142"/></linearGradient><linearGradient id="e"><stop offset="0" stop-color="#b3b3b3"/><stop offset=".246" stop-color="#828282"/><stop offset=".543" stop-color="silver"/><stop offset=".824" stop-color="#fff"/><stop offset="1" stop-color="#8e8e8e"/></linearGradient><linearGradient id="c"><stop offset="0" stop-color="#fafafa"/><stop offset=".178" stop-color="#efe1f2"/><stop offset=".226" stop-color="#d5d6d8"/><stop offset=".705" stop-color="#7d8089"/><stop offset=".745" stop-color="#a6d6c0"/><stop offset=".796" stop-color="#657060"/><stop offset=".871" stop-color="#b3b2b7"/><stop offset=".961" stop-color="#fff"/><stop offset="1" stop-color="#cbcace"/></linearGradient><linearGradient id="b"><stop offset="0" stop-color="#4d4e55"/><stop offset="1" stop-color="#717171"/></linearGradient><linearGradient id="a"><stop offset="0" stop-color="#c2bac6"/><stop offset="1" stop-color="#fff"/></linearGradient><linearGradient xlink:href="#a" id="l" x1="160.063" y1="194.079" x2="160.063" y2="148.724" gradientUnits="userSpaceOnUse" gradientTransform="matrix(1.19017 0 0 1.19017 -30.57 -33.59)"/><linearGradient xlink:href="#b" id="i" gradientUnits="userSpaceOnUse" x1="160.063" y1="194.079" x2="160.063" y2="148.724" gradientTransform="translate(-43.732 -42.642) scale(1.27236)"/><linearGradient xlink:href="#c" id="p" x1="159.898" y1="180" x2="159.898" y2="124" gradientUnits="userSpaceOnUse" gradientTransform="matrix(1.19017 0 0 1.19017 -30.57 -31.21)"/><linearGradient xlink:href="#d" id="o" x1="161" y1="133.852" x2="161" y2="126" gradientUnits="userSpaceOnUse" gradientTransform="matrix(1.19017 0 0 1.19017 -30.57 -31.21)"/><linearGradient xlink:href="#e" id="m" x1="161" y1="132.669" x2="161" y2="126.984" gradientUnits="userSpaceOnUse" gradientTransform="matrix(1.19017 0 0 1.19017 -30.57 -31.21)"/><linearGradient xlink:href="#f" id="n" x1="160.063" y1="188" x2="160.063" y2="161.929" gradientUnits="userSpaceOnUse" gradientTransform="translate(0 -5)"/><linearGradient xlink:href="#g" id="k" x1="131" y1="202.811" x2="116.008" y2="189" gradientUnits="userSpaceOnUse"/><linearGradient xlink:href="#h" id="j" gradientUnits="userSpaceOnUse" x1="204.717" y1="191" x2="190" y2="204"/></defs><g transform="translate(-112 -112)"><path style="isolation:auto;mix-blend-mode:normal;marker:none" d="M133.947 141.146h52.198c3.946 0 6.051 3.357 7.123 7.186l13.838 49.43C208.604 203.11 202.59 208.015 197 208l-73.924-.218c-5.59-.017-11.588-4.67-10.09-10.02l13.838-49.43c1.072-3.83 3.177-7.186 7.123-7.186z" color="#000" display="block" overflow="visible" fill-opacity=".131" stroke-width=".636" stroke-opacity="0"/><path d="M133.717 141.146h52.658c3.98 0 6.224 3.323 7.186 7.186l12.09 48.55C206.96 202.14 201.417 207 196 207h-72c-5.417 0-10.868-4.86-9.559-10.117l12.09-48.55c.962-3.863 3.205-7.186 7.186-7.186z" style="isolation:auto;mix-blend-mode:normal;marker:none" color="#000" overflow="visible" fill="url(#i)" stroke-width=".636" stroke-opacity="0"/><path d="M133.717 141.146h52.658c3.98 0 6.185 3.333 7.186 7.186l12.09 46.55C207.012 200.126 201.417 205 196 205h-72c-5.417 0-10.92-4.874-9.559-10.118l12.09-46.55c1-3.853 3.205-7.186 7.186-7.186z" style="isolation:auto;mix-blend-mode:normal;marker:none" color="#000" display="block" overflow="visible" fill="url(#j)" stroke-width=".636" stroke-opacity="0"/><path style="isolation:auto;mix-blend-mode:normal;marker:none" d="M133.717 141.146h52.658c3.98 0 6.18 3.334 7.186 7.186L206 196c1.368 5.242-4.583 9-10 9h-72c-5.417 0-10.92-4.874-9.559-10.118l12.09-46.55c1-3.853 3.205-7.186 7.186-7.186z" color="#000" display="block" overflow="visible" fill="url(#k)" stroke-width=".636" stroke-opacity="0"/><path style="isolation:auto;mix-blend-mode:normal;marker:none" d="M136 140h48c3.724 0 6.46 3.315 7.396 6.92l11.309 43.543c1.274 4.904-4.08 9.146-9.147 9.146h-67.024c-5.067 0-10.42-4.242-9.147-9.146l11.309-43.543c.936-3.605 3.58-6.92 7.304-6.92z" color="#000" display="block" overflow="visible" fill="url(#l)" stroke-width=".595" stroke-opacity="0"/><path style="isolation:auto;mix-blend-mode:normal;marker:none" d="M132 120h56c2 0 2 7 0 7h-56c-2 0-2-7 0-7z" color="#000" display="block" overflow="visible" fill="url(#m)" stroke-width=".401" stroke-opacity="0"/><path d="M173 161h-5l4 14h11.78l-23.717 14.079L136.441 175H148l4-14h-5l13-6z" style="isolation:auto;mix-blend-mode:normal;marker:none" color="#000" display="block" overflow="visible" fill="url(#n)" stroke-width=".21" stroke-opacity="0"/><path d="M173 161h2l-7-4 1.037 2.171z" fill="#a89cac" fill-opacity=".974" fill-rule="evenodd"/><path style="isolation:auto;mix-blend-mode:normal;marker:none" d="M143 119l33.02.014c1.98 0 7.048.054 7.98.986 1.012 1.012.924 6.076 0 7-.966.966-6 1-8 1h-33c-2 0-6 0-7-1s-1-6 0-7c.932-.932 5-1 7-1z" color="#000" display="block" overflow="visible" fill="url(#o)" stroke-width=".401" stroke-opacity="0"/><path d="M147 161h-2l7-4-1.037 2.171z" fill="#a89cac" fill-opacity=".974" fill-rule="evenodd"/><path style="isolation:auto;mix-blend-mode:normal;marker:none" d="M149 116c-1.17 0-3.424 1.562-3.424 3.943v8.33c0 3.12 4.761 3.785 4.761 6.728L151 171h18l.38-35.999c.031-2.943 4.76-3.608 4.76-6.727v-8.331c0-2.38-1.95-3.943-3.14-3.943z" color="#000" display="block" overflow="visible" fill="url(#p)" stroke-width=".392" stroke-opacity="0"/><path style="line-height:1000%;-inkscape-font-specification:'Serto Kharput'" d="M155 140h10v2h-4v7h-2v-7h-4z" font-weight="400" font-family="Serto Kharput" letter-spacing="0" word-spacing="0" fill="#282828"/><path style="isolation:auto;mix-blend-mode:normal;marker:none" d="M117.3 190.95c-.81 4.693 3.85 9.05 8.747 9.05H193c4.898 0 10.602-4.357 9.791-9.05-.684 3.767-5.608 7.05-9.791 7.05h-66.953c-4.183 0-8.062-3.283-8.746-7.05z" color="#000" display="block" overflow="visible" fill="#fefdff" stroke-width=".595" stroke-opacity="0"/><path style="line-height:normal;font-variant-ligatures:normal;font-variant-position:normal;font-variant-caps:normal;font-variant-numeric:normal;font-variant-alternates:normal;font-feature-settings:normal;text-indent:0;text-align:start;text-decoration-line:none;text-decoration-style:solid;text-decoration-color:#000;text-transform:none;text-orientation:mixed;shape-padding:0;isolation:auto;mix-blend-mode:normal;marker:none" d="M151 116c-.274 0-.463.164-.791.4a4.721 4.721 0 0 0-.977.983c-.619.822-1.119 1.942-1.119 3.146v8.237c0 1.583 1.004 2.549 1.977 3.463.972.913 1.912 1.775 1.906 3.185v35.576h15.725v-35.574c0-1.41.939-2.275 1.91-3.19.97-.914 1.973-1.878 1.973-3.46v-8.237c0-1.204-.495-2.322-1.112-3.144a4.69 4.69 0 0 0-.976-.985c-.329-.236-.647-.377-.924-.377zm0 0l17.592.024c.207 0 .498.314.806.537.309.222.636.546.934.943.596.793 1.072 1.876 1.072 3.025v8.237c0 1.499-.94 2.403-1.91 3.316-.97.913-1.97 1.835-1.97 3.334v35.574h-15.329v-35.574c.006-1.5-.997-2.421-1.968-3.334-.972-.913-1.914-1.817-1.914-3.316v-8.237c0-1.149.48-2.232 1.078-3.025.299-.397.627-.721.935-.943.308-.223.471-.561.674-.561z" color="#000" font-weight="400" font-family="sans-serif" white-space="normal" overflow="visible" fill="#44464f" stroke-width=".199"/><path style="line-height:normal;font-variant-ligatures:normal;font-variant-position:normal;font-variant-caps:normal;font-variant-numeric:normal;font-variant-alternates:normal;font-feature-settings:normal;text-indent:0;text-align:start;text-decoration-line:none;text-decoration-style:solid;text-decoration-color:#000;text-transform:none;text-orientation:mixed;shape-padding:0;isolation:auto;mix-blend-mode:normal;marker:none" d="M154 116c-.217 0-.628.174-.857.412a4.352 4.352 0 0 0-.68.986 6.921 6.921 0 0 0-.772 3.131v8.237c0 1.57.695 2.535 1.37 3.449.674.914 1.328 1.775 1.32 3.2V170.99h10.955v-35.574c0-1.424.653-2.289 1.326-3.203.673-.914 1.363-1.877 1.363-3.447v-8.237c0-1.195-.34-2.31-.767-3.13a4.31 4.31 0 0 0-.678-.987c-.23-.239-.361-.412-.58-.412zm0 0h12c.117 0 .226.329.438.549.211.22.437.544.644.941a6.76 6.76 0 0 1 .746 3.04v8.236c0 1.512-.654 2.417-1.326 3.33-.672.913-1.363 1.835-1.363 3.32v35.574H154.58v-35.574c.008-1.486-.685-2.407-1.36-3.32-.673-.913-1.33-1.818-1.33-3.33v-8.237c0-1.157.334-2.245.749-3.039.207-.397.435-.721.646-.941.211-.22.601-.549.715-.549z" color="#000" font-weight="400" font-family="sans-serif" white-space="normal" overflow="visible" fill="#44464f" stroke-width=".199"/><path d="M133 120h1c-1 1-1 6 0 7h-1c-2 0-2-7 0-7zM186.844 120h-1c1 1 1 6 0 7h1c2 0 2-7 0-7z" style="isolation:auto;mix-blend-mode:normal;marker:none" color="#000" display="block" overflow="visible" fill-opacity=".288" stroke-width=".401" stroke-opacity="0"/><path d="M150 167l-.873 4-1.127 4h-11.559c.12 0 3.399 2.025 3.399 2.025L148 177zm19.512 0L172 177l8.39.012s3.27-2.012 3.39-2.012H172l-1.127-4z" fill="#bab1bd" fill-opacity=".974" fill-rule="evenodd"/><path d="M139.84 177.025C140 177 160 186 160 186l20.39-8.988L160.064 189z" fill-opacity=".183" fill-rule="evenodd"/><path d="M117.209 191.98c-.811 4.694 3.94 9.02 8.838 9.02H193c4.898 0 10.81-4.306 10-9-1 5-5.817 8-10 8h-66.953c-4.183 0-8.931-3.514-8.838-8.02z" style="isolation:auto;mix-blend-mode:normal;marker:none" color="#000" display="block" overflow="visible" fill-opacity=".199" stroke-width=".595" stroke-opacity="0"/><circle style="isolation:auto;mix-blend-mode:normal;marker:none" cx="159.969" cy="143.395" r=".569" color="#000" display="block" overflow="visible" fill="#4dfb84" fill-opacity=".979" stroke="#4dfb84" stroke-width="1.548" stroke-opacity=".387"/><circle r=".569" cy="141.072" cx="160" style="isolation:auto;mix-blend-mode:normal;marker:none" color="#000" display="block" overflow="visible" fill="#4dfb84" fill-opacity=".979" stroke="#4dfb84" stroke-width="1.548" stroke-opacity=".387"/><circle r=".569" cy="145.411" cx="160" style="isolation:auto;mix-blend-mode:normal;marker:none" color="#000" display="block" overflow="visible" fill="#4dfb84" fill-opacity=".979" stroke="#4dfb84" stroke-width="1.548" stroke-opacity=".387"/><circle style="isolation:auto;mix-blend-mode:normal;marker:none" cx="160" cy="147.426" r=".569" color="#000" display="block" overflow="visible" fill="#4dfb84" fill-opacity=".979" stroke="#4dfb84" stroke-width="1.548" stroke-opacity=".387"/><circle style="isolation:auto;mix-blend-mode:normal;marker:none" cx="157.483" cy="141.072" r=".569" color="#000" display="block" overflow="visible" fill="#4dfb84" fill-opacity=".979" stroke="#4dfb84" stroke-width="1.548" stroke-opacity=".387"/><circle r=".569" cy="141.072" cx="162.732" style="isolation:auto;mix-blend-mode:normal;marker:none" color="#000" display="block" overflow="visible" fill="#4dfb84" fill-opacity=".979" stroke="#4dfb84" stroke-width="1.548" stroke-opacity=".387"/></g></svg>