<svg xmlns="http://www.w3.org/2000/svg" xmlns:xlink="http://www.w3.org/1999/xlink" height="96" viewBox="0 0 96 96" width="96"><title>Template icons dark</title><defs><linearGradient id="d"><stop offset="0" stop-color="#fff" stop-opacity=".802"/><stop offset=".502" stop-color="#fff" stop-opacity=".945"/><stop offset="1" stop-color="#fff" stop-opacity=".692"/></linearGradient><linearGradient id="c"><stop offset="0" stop-color="#fff" stop-opacity=".632"/><stop offset=".448" stop-color="#fff" stop-opacity=".94"/><stop offset="1" stop-color="#fff" stop-opacity=".61"/></linearGradient><linearGradient id="b"><stop offset="0" stop-color="#d1d1d1"/><stop offset="1" stop-color="#fff" stop-opacity=".989"/></linearGradient><linearGradient xlink:href="#a" id="e" x1="25" y1="45.7" x2="25" y2="8.075" gradientUnits="userSpaceOnUse" gradientTransform="matrix(2.2 0 0 2.2 107.2 100.16)"/><linearGradient id="a"><stop offset="0" stop-color="#0086f7"/><stop offset="1" stop-color="#60cdff"/></linearGradient><linearGradient xlink:href="#b" id="f" x1="157.89" y1="194.158" x2="157.89" y2="132" gradientUnits="userSpaceOnUse"/><linearGradient xlink:href="#d" id="g" x1="173.291" y1="203.528" x2="136" y2="117.102" gradientUnits="userSpaceOnUse"/></defs><path d="M7.219 3H88.78A4.21 4.21 0 0 1 93 7.219V88.78A4.21 4.21 0 0 1 88.781 93H7.22A4.21 4.21 0 0 1 3 88.781V7.22A4.21 4.21 0 0 1 7.219 3z" fill-opacity=".078" stroke-width="1.845" stroke-linejoin="round" stroke-opacity=".131"/><path d="M120.125 116h79.75a4.116 4.116 0 0 1 4.125 4.125v79.75a4.116 4.116 0 0 1-4.125 4.125h-79.75a4.116 4.116 0 0 1-4.125-4.125v-79.75a4.116 4.116 0 0 1 4.125-4.125z" fill="url(#e)" stroke-width="1.804" stroke-linejoin="round" stroke-opacity=".131" transform="translate(-112 -112)"/><path d="M8.315 41.712H22.67l8.444 32.086 11.82-46.44 10.133 32.93 9.288-32.93 9.288 32.93h16.043" fill="none" fill-rule="evenodd" stroke="#000" stroke-width="5.066" stroke-opacity=".275"/><path d="M120.315 150.712h14.354l8.444 32.086 11.82-46.44 10.133 32.93 9.288-32.93 9.288 32.93h16.043" fill="none" fill-rule="evenodd" stroke="url(#f)" stroke-width="5.066" transform="translate(-112 -112)"/><path style="line-height:normal;font-variant-ligatures:normal;font-variant-position:normal;font-variant-caps:normal;font-variant-numeric:normal;font-variant-alternates:normal;font-feature-settings:normal;text-indent:0;text-align:start;text-decoration-line:none;text-decoration-style:solid;text-decoration-color:#000;text-transform:none;text-orientation:mixed;shape-padding:0;isolation:auto;mix-blend-mode:normal" d="M120 116c-2.114 0-4 1.864-4 4v80c0 2.621 2.488 4 4 4h80c1.638 0 4-1.558 4-4v-80c0-2.348-2.149-4-4-4zm0 2h80c1 0 2 1 2 2v80c0 1-1 2-2 2h-80c-1 0-2-1-2-2v-80c0-1 .977-2 2-2z" color="#000" font-weight="400" font-family="sans-serif" white-space="normal" overflow="visible" fill="url(#g)" stroke-width="1.97" stroke-linejoin="round" transform="translate(-112 -112)"/></svg>