<svg xmlns="http://www.w3.org/2000/svg" xmlns:xlink="http://www.w3.org/1999/xlink" height="96" viewBox="0 0 96 96" width="96" enable-background="new"><title>Template icons dark</title><defs><linearGradient id="d"><stop offset="0" stop-color="#1cdbff" stop-opacity=".143"/><stop offset="1" stop-color="#c34c74" stop-opacity="0"/></linearGradient><linearGradient id="c"><stop offset="0" stop-color="#d663eb" stop-opacity=".423"/><stop offset="1" stop-color="#c34c74" stop-opacity="0"/></linearGradient><linearGradient id="g"><stop offset="0" stop-color="#97176b"/><stop offset="1" stop-color="#69104b"/></linearGradient><linearGradient id="b"><stop offset="0" stop-color="#8ab0c4"/><stop offset="1" stop-color="#fcf6f8"/></linearGradient><linearGradient id="a"><stop offset="0" stop-color="#d8eaf3"/><stop offset="1" stop-color="#fff" stop-opacity=".945"/></linearGradient><linearGradient xlink:href="#b" id="h" x1="160" y1="196" x2="160" y2="110.592" gradientUnits="userSpaceOnUse" gradientTransform="matrix(.88887 0 0 .88887 17.781 17.781)"/><linearGradient xlink:href="#c" id="i" gradientUnits="userSpaceOnUse" gradientTransform="matrix(.88887 0 0 .88887 17.781 17.781)" x1="191.501" y1="140.476" x2="137.499" y2="161.382"/><linearGradient xlink:href="#d" id="j" gradientUnits="userSpaceOnUse" gradientTransform="matrix(.88887 0 0 .88887 17.781 17.781)" x1="115.424" y1="153.693" x2="151.567" y2="164.5"/><linearGradient xlink:href="#e" id="o" gradientUnits="userSpaceOnUse" gradientTransform="scale(1.94673) rotate(30 -52.286 194.21)" x1="20" y1="12" x2="23" y2="12"/><linearGradient id="e"><stop offset="0" stop-color="#eeeeec"/><stop offset="1" stop-color="#d3d7cf"/></linearGradient><linearGradient xlink:href="#f" id="m" gradientUnits="userSpaceOnUse" gradientTransform="scale(1.94673) rotate(30 -52.286 194.21)" x1="9.697" y1="24.661" x2="33.232" y2="24.661"/><linearGradient id="f"><stop offset="0" stop-color="#2e3436"/><stop offset="1"/></linearGradient><linearGradient xlink:href="#f" id="n" gradientUnits="userSpaceOnUse" gradientTransform="scale(1.94673) rotate(30 -52.286 194.21)" x1="19.5" y1="28.5" x2="23.5" y2="28.5"/><radialGradient xlink:href="#g" id="k" gradientUnits="userSpaceOnUse" gradientTransform="matrix(2.79676 .1946 -.0974 1.39969 -281.064 -87.31)" cx="168.187" cy="156.788" fx="168.187" fy="156.788" r="29.345"/><filter id="l" x="-.072" width="1.144" y="-.101" height="1.201" color-interpolation-filters="sRGB"><feGaussianBlur stdDeviation="2.003"/></filter></defs><g transform="translate(-112 -112)"><circle style="isolation:auto;mix-blend-mode:normal;marker:none" cx="160" cy="160" r="46" color="#000" overflow="visible" fill-opacity=".121" stroke-width="1.013" stroke-opacity=".995" enable-background="accumulate"/><circle r="45" cy="160" cx="160" style="isolation:auto;mix-blend-mode:normal;marker:none" color="#000" display="block" overflow="visible" fill="url(#h)" stroke-width=".761" stroke-opacity=".995" enable-background="accumulate"/><circle style="isolation:auto;mix-blend-mode:normal;marker:none" cx="160" cy="160" r="45" color="#000" display="block" overflow="visible" fill="url(#i)" stroke-width=".761" stroke-opacity=".995" enable-background="accumulate"/><circle r="45" cy="160" cx="160" style="isolation:auto;mix-blend-mode:normal;marker:none" color="#000" display="block" overflow="visible" fill="url(#j)" stroke-width=".761" stroke-opacity=".995" enable-background="accumulate"/><path d="M164.452 151.515c-25.247 10.262-36.434 13.535-46.406 21.091 6.435 17.758 21.817 30.638 40.161 31.156 26.946-1.253 44.561-19.208 45.022-43.776a43.549 43.549 0 0 0-5.641-21.386c.03.067.072.127.1.195-28.575 13.7-24.953 12.629-33.236 12.72z" style="isolation:auto;mix-blend-mode:normal;marker:none" color="#000" overflow="visible" fill="url(#k)" stroke-width=".932" stroke-opacity=".995" enable-background="accumulate"/><path d="M169.698 151.277c-2.873 4.975-34.686 39.189-51.34 21.905-13.437-33.516 42.338-21.772 51.34-21.905z" style="isolation:auto;mix-blend-mode:normal;marker:none" color="#000" display="block" overflow="visible" fill="#b14abf" stroke-width="1.35" stroke-opacity=".995" enable-background="accumulate"/><path style="isolation:auto;mix-blend-mode:normal;marker:none" d="M169.407 151.677c1.89-3.303 25.04-28.059 29.056-11.558-.327 17.533-24.262 12.61-29.056 11.558z" color="#000" display="block" overflow="visible" fill="#ef53b7" stroke-width=".964" stroke-opacity=".995" enable-background="accumulate"/><path d="M199.093 140.976c2.35-3.237-.452-9.099-3.718-11.407-2.2-1.554-5.42-.239-8.075.204-5.174.862-10.825 1.56-15.01 4.723-9.027 6.82-11.691 19.436-18.644 28.361-2.888 3.707-4.855 9.887-9.527 10.39-2.635.285-4.84-2.511-6.498-4.579-2.363-2.947-4.37-6.684-4.359-10.461.017-5.214 3.061-10.17 6.11-14.398 1.638-2.272 3.938-4.055 6.3-5.559 4.068-2.586 8.618-4.476 13.262-5.766 4.584-1.272 9.493-.893 14.148-1.873 5.617-1.181 10.811-4.37 16.534-4.81 2.864-.22 6.555-.957 8.544 1.114 2.316 2.412.73 6.652.895 9.991.067 1.355-.925 3.115.038 4.07z" fill="#fefefe" fill-opacity=".632" fill-rule="evenodd" stroke-width=".861" filter="url(#l)"/><path d="M187.012 131.24c-.288.12-2.567-3.356-2.871-3.427-.305-.072-3.896 2.02-4.1 1.783-.205-.238 2.397-3.479 2.371-3.79-.026-.313-3.125-3.082-2.963-3.35.163-.267 4.05 1.206 4.338 1.085.289-.12 1.964-3.924 2.269-3.852.304.071.105 4.223.31 4.46.203.237 4.338.656 4.364.967.026.312-3.984 1.405-4.146 1.673-.163.267.717 4.33.428 4.45z" style="isolation:auto;mix-blend-mode:normal;marker:none" color="#000" display="block" overflow="visible" fill-opacity=".379" stroke-width=".372" enable-background="accumulate"/><path style="isolation:auto;mix-blend-mode:normal;marker:none" d="M187.526 130.042c-.289.12-2.568-3.355-2.872-3.427-.305-.072-3.896 2.02-4.1 1.783-.204-.237 2.397-3.478 2.371-3.79-.026-.312-3.125-3.081-2.962-3.349.162-.267 4.048 1.206 4.337 1.085.289-.121 1.964-3.925 2.27-3.853.304.072.104 4.223.308 4.46.205.238 4.34.656 4.365.968.026.312-3.984 1.405-4.146 1.672-.163.268.717 4.33.429 4.45z" color="#000" display="block" overflow="visible" fill="#fefefe" stroke-width=".372" enable-background="accumulate"/><path style="isolation:auto;mix-blend-mode:normal;marker:none" d="M147.728 171.58c-.52.52-8.55-4.998-9.275-4.883-.725.115-6.658 7.844-7.312 7.51-.653-.333 2.112-9.676 1.779-10.33-.333-.653-9.517-3.907-9.402-4.632.114-.725 9.854-.982 10.373-1.5.519-.52.776-10.26 1.5-10.375.726-.114 3.98 9.07 4.634 9.403.654.333 9.996-2.432 10.33-1.779.333.654-7.396 6.587-7.51 7.312-.116.725 5.401 8.756 4.883 9.274z" color="#000" display="block" overflow="visible" fill-opacity=".302" stroke-width=".873" enable-background="accumulate"/><path d="M147.728 170.58c-.52.52-8.55-4.998-9.275-4.883-.725.115-6.658 7.844-7.312 7.51-.653-.333 2.112-9.676 1.779-10.33-.333-.653-9.517-3.907-9.402-4.632.114-.725 9.854-.982 10.373-1.5.519-.52.776-10.26 1.5-10.375.726-.114 3.98 9.07 4.634 9.403.654.333 9.996-2.432 10.33-1.779.333.654-7.396 6.587-7.51 7.312-.116.725 5.401 8.756 4.883 9.274z" style="isolation:auto;mix-blend-mode:normal;marker:none" color="#000" display="block" overflow="visible" fill="#fefefe" stroke-width=".873" enable-background="accumulate"/><path style="isolation:auto;mix-blend-mode:normal;marker:none" d="M165.395 137.669c-.282.291-4.763-2.676-5.162-2.606-.399.07-3.598 4.39-3.962 4.212-.364-.178 1.073-5.357.883-5.715-.19-.357-5.286-2.066-5.23-2.466.057-.401 5.427-.635 5.708-.926.282-.291.332-5.666.73-5.736.399-.07 2.28 4.965 2.644 5.142.364.178 5.491-1.436 5.681-1.078.19.357-4.017 3.703-4.073 4.104-.057.4 3.062 4.778 2.78 5.069z" color="#000" display="block" overflow="visible" fill-opacity=".247" stroke-width=".372" enable-background="accumulate"/><path d="M165.395 136.669c-.282.291-4.763-2.676-5.162-2.606-.399.07-3.598 4.39-3.962 4.212-.364-.178 1.073-5.357.883-5.715-.19-.357-5.286-2.066-5.23-2.466.057-.401 5.427-.635 5.708-.926.282-.291.332-5.666.73-5.736.399-.07 2.28 4.965 2.644 5.142.364.178 5.491-1.436 5.681-1.078.19.357-4.017 3.703-4.073 4.104-.057.4 3.062 4.778 2.78 5.069z" style="isolation:auto;mix-blend-mode:normal;marker:none" color="#000" display="block" overflow="visible" fill="#fefefe" stroke-width=".372" enable-background="accumulate"/><ellipse style="isolation:auto;mix-blend-mode:normal;marker:none" cx="16.619" cy="187.91" rx="16.447" ry="4.661" transform="rotate(-40.62)" color="#000" display="block" overflow="visible" fill="#fff" fill-opacity=".286" stroke-width=".718" enable-background="accumulate"/><ellipse transform="rotate(25.023)" ry="1.81" rx="6.385" cy="37.694" cx="214.477" style="isolation:auto;mix-blend-mode:normal;marker:none" color="#000" display="block" overflow="visible" fill="#fff" fill-opacity=".159" stroke-width=".279" enable-background="accumulate"/><ellipse transform="rotate(-40.62)" ry="5.033" rx="17.761" cy="263.039" cx="16.187" style="isolation:auto;mix-blend-mode:normal;marker:none" color="#000" display="block" overflow="visible" fill="#fff" fill-opacity=".066" stroke-width=".775" enable-background="accumulate"/><g transform="matrix(1.1226 0 0 1.1226 -28.998 -15.8)" stroke-width="1.947"><path d="M202.923 129.8l-36.988 64.065c-.538.93.536 2.557 2.398 3.632 1.863 1.075 3.808 1.192 4.346.261l36.988-64.065z" fill="url(#m)" stroke="url(#n)" stroke-linejoin="round"/><path d="M202.923 129.8l-9.734 16.859c-.537.93.536 2.557 2.399 3.632 1.862 1.076 3.807 1.192 4.345.261l9.734-16.859z" fill="url(#o)" stroke="#babdb6" stroke-linejoin="round"/><ellipse transform="rotate(30)" cx="244.53" cy="10.948" rx="3.893" ry="1.947" fill="#d3d7cf" stroke="#babdb6"/></g></g></svg>