<svg xmlns="http://www.w3.org/2000/svg" xmlns:xlink="http://www.w3.org/1999/xlink" height="96" viewBox="0 0 96 96" width="96"><title>Template icons dark</title><defs><linearGradient xlink:href="#a" id="d" x1="53.271" y1="55.429" x2="-10.45" y2="-7.238" gradientUnits="userSpaceOnUse" gradientTransform="matrix(1.21305 0 0 1.22967 129.869 130.09)"/><linearGradient id="a"><stop offset="0" stop-color="#4d77d3"/><stop offset=".453" stop-color="#767294"/><stop offset="1" stop-color="#a6659c"/></linearGradient><linearGradient xlink:href="#b" id="c" x1="26.4" y1="60.613" x2="26.4" y2="-12.187" gradientUnits="userSpaceOnUse" gradientTransform="matrix(1.08793 0 0 1.07215 133.792 134.17)"/><linearGradient id="b"><stop offset="0" stop-color="#0b1528"/><stop offset="1" stop-color="#473d49"/></linearGradient></defs><g transform="translate(-112 -112)"><rect ry="2" y="119" x="115" height="82" width="90" style="isolation:auto;mix-blend-mode:normal;marker:none" color="#000" overflow="visible" fill-opacity=".077" stroke-width=".344" stroke-opacity=".471"/><rect style="isolation:auto;mix-blend-mode:normal;marker:none" width="88" height="80" x="116" y="120" ry="3" color="#000" overflow="visible" fill="url(#c)" stroke-width=".322" stroke-opacity=".471"/><rect style="isolation:auto;mix-blend-mode:normal;marker:none" width="87" height="79" x="116.498" y="120.498" ry="2" color="#000" overflow="visible" fill="none" stroke="url(#d)"/><rect style="isolation:auto;mix-blend-mode:normal;marker:none" width="24" height="5" x="140" y="146" ry="0" color="#000" overflow="visible" fill="#8affca" fill-opacity=".984" stroke-width="1.291"/><path style="line-height:10;-inkscape-font-specification:'Ubuntu Mono'" d="M129.016 146.13q1.005 0 1.675-.14.698-.168 1.089-.447.39-.307.558-.698.168-.419.168-.893 0-.698-.335-1.173-.335-.503-.922-.866-.558-.39-1.284-.67-.726-.307-1.508-.586-.754-.28-1.507-.614-.726-.335-1.313-.81-.558-.502-.921-1.172-.363-.698-.363-1.704 0-1.786 1.061-2.903t3.071-1.424v-2.876h2.066v2.792q1.117.056 2.038.28.95.195 1.508.418l-.475 1.955q-.586-.224-1.48-.447-.893-.251-2.26-.251-1.509 0-2.318.558-.782.558-.782 1.62 0 .586.223.976.252.391.698.698.447.308 1.033.559.615.251 1.368.53.95.363 1.843.782.894.391 1.564.95.67.558 1.06 1.34.42.781.42 1.87 0 1.647-1.09 2.792-1.088 1.145-3.35 1.424v3.21h-2.066v-3.126q-1.759-.056-2.848-.391t-1.619-.642l.614-1.927q.754.363 1.787.698 1.033.307 2.597.307z" font-weight="400" font-size="10.102" font-family="Ubuntu Mono" letter-spacing="0" word-spacing="0" fill="#8affca" fill-opacity=".984" stroke-width="2.764"/></g></svg>