<svg xmlns="http://www.w3.org/2000/svg" xmlns:xlink="http://www.w3.org/1999/xlink" height="96" viewBox="0 0 96 96" width="96"><title>Template icons dark</title><defs><linearGradient id="A"><stop offset="0" stop-color="#e3ab74"/><stop offset="1" stop-color="#c89e75"/></linearGradient><linearGradient id="N"><stop offset="0" stop-opacity=".291"/><stop offset="1" stop-opacity="0"/></linearGradient><linearGradient id="q"><stop offset="0" stop-color="#6a5033"/><stop offset="1" stop-color="#bb905d"/></linearGradient><linearGradient id="x"><stop offset="0" stop-color="#739eff"/><stop offset="1" stop-color="#98e6f6"/></linearGradient><linearGradient id="r"><stop offset="0" stop-color="#967248" stop-opacity=".325"/><stop offset="1" stop-color="#bb905d"/></linearGradient><linearGradient id="p"><stop offset="0" stop-opacity="0"/><stop offset=".151" stop-opacity="0"/><stop offset=".416" stop-opacity=".319"/><stop offset=".703" stop-opacity=".082"/><stop offset="1" stop-opacity="0"/></linearGradient><linearGradient id="a"><stop offset="0"/><stop offset="1" stop-opacity="0"/></linearGradient><linearGradient id="b"><stop offset="0" stop-color="#fff" stop-opacity="0"/><stop offset=".245" stop-color="#fff"/><stop offset=".774" stop-color="#fff"/><stop offset="1" stop-color="#fff" stop-opacity="0"/></linearGradient><linearGradient id="c"><stop offset="0" stop-color="#fff"/><stop offset="1" stop-color="#fff" stop-opacity="0"/></linearGradient><linearGradient id="d"><stop offset="0" stop-color="#dac197"/><stop offset=".239" stop-color="#c1a581"/><stop offset=".276" stop-color="#dbc298"/><stop offset="1" stop-color="#a68b60"/></linearGradient><linearGradient x1="63.999" y1="3.1" x2="63.999" y2="122.899" id="e" gradientUnits="userSpaceOnUse"><stop offset="0" stop-color="#f6f6f6"/><stop offset="1" stop-color="#d2d2d2"/></linearGradient><linearGradient id="f"><stop offset="0" stop-color="#969696"/><stop offset="1" stop-color="#787878"/></linearGradient><linearGradient id="g"><stop offset="0" stop-color="#fff"/><stop offset="1" stop-color="#959595"/></linearGradient><linearGradient id="h"><stop offset="0" stop-color="#d3d7cf"/><stop offset=".183" stop-color="#babdb6"/><stop offset=".319" stop-color="#fff"/><stop offset=".876" stop-color="#babdb6"/><stop offset="1" stop-color="#eeeeec"/></linearGradient><linearGradient id="i"><stop offset="0" stop-color="#888a85"/><stop offset="1" stop-color="#555753"/></linearGradient><linearGradient id="j"><stop offset="0" stop-color="#babdb6"/><stop offset="1" stop-color="#fff"/></linearGradient><linearGradient id="k"><stop offset="0" stop-color="#edd563"/><stop offset="1" stop-color="#e08223"/></linearGradient><linearGradient id="l"><stop offset="0" stop-color="#bb5e12"/><stop offset="1" stop-color="#cd8033"/></linearGradient><linearGradient id="m"><stop offset="0" stop-color="#695337"/><stop offset="1" stop-color="#695337" stop-opacity="0"/></linearGradient><linearGradient id="n"><stop offset="0" stop-color="#c3a67d"/><stop offset=".239" stop-color="#a17d4f"/><stop offset=".276" stop-color="#bb9b71"/><stop offset="1" stop-color="#836945"/></linearGradient><linearGradient id="o"><stop offset="0" stop-opacity="0"/><stop offset=".5"/><stop offset="1" stop-opacity="0"/></linearGradient><linearGradient xlink:href="#p" id="ao" x1="160" y1="166.656" x2="160" y2="196.616" gradientUnits="userSpaceOnUse" gradientTransform="matrix(1 0 0 1.96875 0 -186.875)"/><linearGradient xlink:href="#q" id="am" x1="194.079" y1="154" x2="198.701" y2="163" gradientUnits="userSpaceOnUse" gradientTransform="translate(0 3)"/><linearGradient xlink:href="#r" id="an" gradientUnits="userSpaceOnUse" x1="194.079" y1="154" x2="198.701" y2="163" gradientTransform="matrix(-1 0 0 1 320 3)"/><linearGradient id="ab" y2="20.613" xlink:href="#s" spreadMethod="reflect" gradientUnits="userSpaceOnUse" x2="9.73" y1="17.886" x1="10.609" gradientTransform="rotate(180 89.638 85.44) scale(1.3333)"/><linearGradient id="s"><stop offset="0" stop-color="#fcd9cd"/><stop offset="1" stop-color="#fcd9cd" stop-opacity="0"/></linearGradient><linearGradient id="aa" y2="13.462" xlink:href="#t" spreadMethod="reflect" gradientUnits="userSpaceOnUse" x2="14.609" y1="16.188" x1="12.372" gradientTransform="rotate(180 89.638 85.44) scale(1.3333)"/><linearGradient id="t"><stop offset="0" stop-color="#ebeec7"/><stop offset="1" stop-color="#ebeec7" stop-opacity="0"/></linearGradient><linearGradient id="Z" y2="10.732" xlink:href="#u" spreadMethod="reflect" gradientUnits="userSpaceOnUse" x2="16.994" y1="13.046" x1="14.085" gradientTransform="rotate(180 89.638 85.44) scale(1.3333)"/><linearGradient id="u"><stop offset="0" stop-color="#c4ebdd"/><stop offset="1" stop-color="#c4ebdd" stop-opacity="0"/></linearGradient><linearGradient id="Y" y2="9.796" xlink:href="#v" spreadMethod="reflect" gradientUnits="userSpaceOnUse" x2="21.047" y1="11.2" x1="17.495" gradientTransform="rotate(180 89.638 85.44) scale(1.3333)"/><linearGradient id="v"><stop offset="0" stop-color="#c1cbe4"/><stop offset="1" stop-color="#c1cbe4" stop-opacity="0"/></linearGradient><linearGradient id="X" y2="9.862" xlink:href="#w" spreadMethod="reflect" gradientUnits="userSpaceOnUse" x2="24.274" y1="10.775" x1="20.58" gradientTransform="rotate(-178.379 90.39 84.629) scale(1.3333)"/><linearGradient id="w"><stop offset="0" stop-color="#e6cde2"/><stop offset="1" stop-color="#e6cde2" stop-opacity="0"/></linearGradient><linearGradient id="W" y2="54.698" xlink:href="#c" gradientUnits="userSpaceOnUse" x2="48.799" gradientTransform="translate(114.686 105.371) scale(1.3385)" y1="3.61" x1="10.502"/><linearGradient xlink:href="#s" id="V" gradientUnits="userSpaceOnUse" x1="10.609" y1="17.886" x2="9.73" y2="20.613" spreadMethod="reflect" gradientTransform="translate(115.276 106.894) scale(1.3333)"/><linearGradient xlink:href="#t" id="U" gradientUnits="userSpaceOnUse" x1="12.372" y1="16.188" x2="14.609" y2="13.462" spreadMethod="reflect" gradientTransform="translate(115.276 106.894) scale(1.3333)"/><linearGradient xlink:href="#u" id="T" gradientUnits="userSpaceOnUse" x1="14.085" y1="13.046" x2="16.994" y2="10.732" spreadMethod="reflect" gradientTransform="translate(115.276 106.894) scale(1.3333)"/><linearGradient xlink:href="#v" id="S" gradientUnits="userSpaceOnUse" x1="17.495" y1="11.2" x2="21.047" y2="9.796" spreadMethod="reflect" gradientTransform="translate(115.276 106.894) scale(1.3333)"/><linearGradient xlink:href="#w" id="R" gradientUnits="userSpaceOnUse" x1="20.58" y1="10.775" x2="24.274" y2="9.862" spreadMethod="reflect" gradientTransform="rotate(1.621 -3694.103 4166.568) scale(1.3333)"/><linearGradient id="Q" y2="45.962" xlink:href="#c" gradientUnits="userSpaceOnUse" x2="18.203" gradientTransform="translate(133.133 124.313) scale(.58088)" y1="4.038" x1="18.776"/><linearGradient id="E" y2="32.509" gradientUnits="userSpaceOnUse" x2="21.448" gradientTransform="translate(115.776 107.335) scale(1.3125)" y1="15.5" x1="21.448"><stop offset="0" stop-color="#aaa"/><stop offset="1" stop-color="#d4d4d4"/></linearGradient><linearGradient id="C" y2="14.203" gradientUnits="userSpaceOnUse" x2="35.391" gradientTransform="rotate(90 41.228 142.348) scale(1.5714)" y1="32.416" x1="12.274"><stop offset="0" stop-color="#dedbde"/><stop offset=".5" stop-color="#e6e6e6"/><stop offset="1" stop-color="#d2d2d2"/></linearGradient><linearGradient id="D" y2="45.033" gradientUnits="userSpaceOnUse" x2="-21.916" gradientTransform="translate(182.51 106.64) scale(1.3415)" y1="3" x1="-21.916"><stop offset="0" stop-color="#b4b4b4"/><stop offset="1" stop-color="#969696"/></linearGradient><linearGradient x2="1" gradientUnits="userSpaceOnUse" gradientTransform="scale(37.65896) rotate(-88.059 4.182 .033)" id="ae"><stop offset="0" stop-color="#888c8f"/><stop offset=".062" stop-color="#888c8f"/><stop offset=".677" stop-color="#fff"/><stop offset=".971" stop-color="#c5c7c6"/><stop offset="1" stop-color="#c5c7c6"/></linearGradient><linearGradient x1="-.006" y1=".936" x2="1.249" y2="-.572" gradientUnits="userSpaceOnUse" gradientTransform="rotate(-88.059 163.826 7.503) scale(35.6457)" id="af"><stop offset="0" stop-color="#636869"/><stop offset=".119" stop-color="#a4a8aa"/><stop offset=".177" stop-color="#c6c9ca"/><stop offset=".265" stop-color="#b7babb"/><stop offset=".501" stop-color="#d8d8d8"/><stop offset=".642" stop-color="#cfd0d0"/><stop offset=".73" stop-color="#c9d9d9"/><stop offset=".84" stop-color="#cbcccc"/><stop offset=".971" stop-color="#dadbdb"/><stop offset="1" stop-color="#dbdddc"/></linearGradient><linearGradient x1=".297" y1="-.219" x2=".827" y2=".252" gradientUnits="userSpaceOnUse" gradientTransform="scale(36.36815) rotate(18.09 -11.34 17.011)" id="ag"><stop offset="0" stop-color="#cdc9c1"/><stop offset=".181" stop-color="#f4f3f1"/><stop offset=".492" stop-color="#b8b8b8"/><stop offset=".931" stop-color="#efeeeb"/><stop offset="1" stop-color="#fff"/></linearGradient><linearGradient x2="1" gradientUnits="userSpaceOnUse" gradientTransform="scale(-25.52501 25.52501) rotate(21.485 -18.377 -13.86)" id="ah"><stop offset="0" stop-color="#888c8f"/><stop offset=".062" stop-color="#888c8f"/><stop offset=".677" stop-color="#fff"/><stop offset=".971" stop-color="#c5c7c6"/><stop offset="1" stop-color="#c5c7c6"/></linearGradient><linearGradient x1=".204" y1=".178" x2=".988" y2="-.108" gradientUnits="userSpaceOnUse" gradientTransform="scale(69.4056) rotate(-71.943 2.912 -.084)" id="ai"><stop offset="0" stop-color="#a1a5a7"/><stop offset=".052" stop-color="#aeb1b3"/><stop offset=".178" stop-color="#d9dbdc"/><stop offset=".499" stop-color="#dcdfdf"/><stop offset=".677" stop-color="#fff"/><stop offset=".971" stop-color="#c5c7c6"/><stop offset="1" stop-color="#c5c7c6"/></linearGradient><linearGradient x1=".292" y1="-.05" x2=".949" y2="-.086" gradientUnits="userSpaceOnUse" gradientTransform="scale(36.36778 -36.36778) rotate(-68.481 -1.174 -5.63)" id="aj"><stop offset="0" stop-color="#dcd9d4"/><stop offset=".019" stop-color="#dedcd7"/><stop offset=".402" stop-color="#c7d2d5"/><stop offset=".882" stop-color="#fbfbfa"/><stop offset="1" stop-color="#a7a093"/></linearGradient><linearGradient id="y"><stop offset="0" stop-color="#fff5ef"/><stop offset="1" stop-color="#fef8dd"/></linearGradient><linearGradient id="z"><stop offset="0" stop-color="#fff"/><stop offset=".063" stop-color="#fff" stop-opacity=".235"/><stop offset=".951" stop-color="#fff" stop-opacity=".157"/><stop offset="1" stop-color="#fff" stop-opacity=".392"/></linearGradient><linearGradient id="M"><stop offset="0" stop-color="#ff7d7d"/><stop offset=".262" stop-color="#fc6136"/><stop offset=".705" stop-color="#e21d0e"/><stop offset="1" stop-color="#ac1f1f"/></linearGradient><linearGradient x1="167.983" y1="8.508" x2="167.983" y2="54.78" id="ad" xlink:href="#y" gradientUnits="userSpaceOnUse" gradientTransform="scale(.41112) rotate(15 -882.675 1232.942)"/><linearGradient xlink:href="#A" id="al" x1="128.906" y1="195" x2="190.795" y2="153" gradientUnits="userSpaceOnUse"/><linearGradient id="B"><stop offset="0" stop-color="#ca81c4"/><stop offset="1" stop-color="#ce1748"/></linearGradient><linearGradient id="O" y2="41.181" gradientUnits="userSpaceOnUse" x2="25.208" gradientTransform="matrix(.92308 0 0 .9 134.545 121.35)" y1="28.5" x1="13.63"><stop offset="0" stop-color="#82fa32" stop-opacity=".841"/><stop offset="1" stop-color="#54be35" stop-opacity=".791"/></linearGradient><linearGradient xlink:href="#x" id="ac" gradientUnits="userSpaceOnUse" gradientTransform="translate(3.579 -15.939)" x1="211.886" y1="114.474" x2="230.317" y2="77.976"/><linearGradient id="F" y2="41.181" gradientUnits="userSpaceOnUse" x2="25.208" gradientTransform="matrix(.92308 0 0 .9 134.545 121.35)" y1="28.5" x1="13.63"><stop offset="0" stop-color="#82fa32" stop-opacity=".841"/><stop offset="1" stop-color="#54be35" stop-opacity=".791"/></linearGradient><linearGradient x2="1" gradientUnits="userSpaceOnUse" gradientTransform="scale(37.65896) rotate(-88.059 4.182 .033)" id="G"><stop offset="0" stop-color="#888c8f"/><stop offset=".062" stop-color="#888c8f"/><stop offset=".677" stop-color="#fff"/><stop offset=".971" stop-color="#c5c7c6"/><stop offset="1" stop-color="#c5c7c6"/></linearGradient><linearGradient x1="-.006" y1=".936" x2="1.249" y2="-.572" gradientUnits="userSpaceOnUse" gradientTransform="rotate(-88.059 163.826 7.503) scale(35.6457)" id="H"><stop offset="0" stop-color="#636869"/><stop offset=".119" stop-color="#a4a8aa"/><stop offset=".177" stop-color="#c6c9ca"/><stop offset=".265" stop-color="#b7babb"/><stop offset=".501" stop-color="#d8d8d8"/><stop offset=".642" stop-color="#cfd0d0"/><stop offset=".73" stop-color="#c9d9d9"/><stop offset=".84" stop-color="#cbcccc"/><stop offset=".971" stop-color="#dadbdb"/><stop offset="1" stop-color="#dbdddc"/></linearGradient><linearGradient x1=".297" y1="-.219" x2=".827" y2=".252" gradientUnits="userSpaceOnUse" gradientTransform="scale(36.36815) rotate(18.09 -11.34 17.011)" id="I"><stop offset="0" stop-color="#cdc9c1"/><stop offset=".181" stop-color="#f4f3f1"/><stop offset=".492" stop-color="#b8b8b8"/><stop offset=".931" stop-color="#efeeeb"/><stop offset="1" stop-color="#fff"/></linearGradient><linearGradient x2="1" gradientUnits="userSpaceOnUse" gradientTransform="scale(-25.52501 25.52501) rotate(21.485 -18.377 -13.86)" id="J"><stop offset="0" stop-color="#888c8f"/><stop offset=".062" stop-color="#888c8f"/><stop offset=".677" stop-color="#fff"/><stop offset=".971" stop-color="#c5c7c6"/><stop offset="1" stop-color="#c5c7c6"/></linearGradient><linearGradient x1=".204" y1=".178" x2=".988" y2="-.108" gradientUnits="userSpaceOnUse" gradientTransform="scale(69.4056) rotate(-71.943 2.912 -.084)" id="K"><stop offset="0" stop-color="#a1a5a7"/><stop offset=".052" stop-color="#aeb1b3"/><stop offset=".178" stop-color="#d9dbdc"/><stop offset=".499" stop-color="#dcdfdf"/><stop offset=".677" stop-color="#fff"/><stop offset=".971" stop-color="#c5c7c6"/><stop offset="1" stop-color="#c5c7c6"/></linearGradient><linearGradient x1=".292" y1="-.05" x2=".949" y2="-.086" gradientUnits="userSpaceOnUse" gradientTransform="scale(36.36778 -36.36778) rotate(-68.481 -1.174 -5.63)" id="L"><stop offset="0" stop-color="#dcd9d4"/><stop offset=".019" stop-color="#dedcd7"/><stop offset=".402" stop-color="#c7d2d5"/><stop offset=".882" stop-color="#fbfbfa"/><stop offset="1" stop-color="#a7a093"/></linearGradient><radialGradient xlink:href="#N" id="ak" cx="157.114" cy="228.185" fx="157.114" fy="228.185" r="37" gradientTransform="matrix(1.36689 0 0 .08394 -57.757 180.846)" gradientUnits="userSpaceOnUse"/><radialGradient id="P" gradientUnits="userSpaceOnUse" cy="15.064" cx="9.026" gradientTransform="matrix(1.2852 0 0 .95593 128.632 124.918)" r="18.259"><stop offset="0" stop-color="#fff"/><stop offset="1" stop-color="#fff" stop-opacity="0"/></radialGradient></defs><g stroke-linejoin="round"><path d="M138.699 133.5v27h36zm5 11l15 11h-15z" fill="url(#O)" fill-rule="evenodd" stroke="#535353" stroke-width=".646" stroke-opacity=".269" transform="scale(1.30205) rotate(-75 20.075 148.993)"/><path d="M79.757 41.72l2.515.674zm1.685-6.288l2.515.674zm3.37-12.577l2.515.674zm1.685-6.288l2.515.674zm-3.34 12.584l2.485.667z" fill="none" stroke="#2e2e2e" stroke-width=".49608104999999997" stroke-linecap="round" stroke-opacity=".236"/><path d="M139.7 135.5v24h32zm4.999 8.5l14.5 10.5c.546.395.374 2-.3 2h-14.612c-.723 0-1.588-.752-1.588-1.474v-9.707c0-.671 1.456-1.712 2-1.318z" opacity=".5" fill="none" stroke="url(#P)" transform="scale(1.30205) rotate(-75 20.075 148.993)"/></g><path d="M174.776 138.835a27.43 27.43 0 0 0-27.5-27.5 27.43 27.43 0 0 0-27.5 27.5 27.43 27.43 0 0 0 27.5 27.5 27.43 27.43 0 0 0 27.5-27.5zm-17 0c0 5.538-4.851 10.5-10.5 10.5-5.76 0-10.5-5.074-10.5-10.5 0-5.537 4.519-10.5 10.5-10.5 5.98 0 10.5 5.073 10.5 10.5z" fill="url(#C)" stroke="url(#D)" transform="matrix(.99492 0 0 .99492 -107.08 -102.552)"/><path d="M147.276 128.335c-5.796 0-10.5 4.704-10.5 10.5s4.704 10.5 10.5 10.5 10.5-4.704 10.5-10.5-4.704-10.5-10.5-10.5zm0 5.25a5.252 5.252 0 0 1 5.25 5.25 5.252 5.252 0 0 1-5.25 5.25 5.252 5.252 0 0 1-5.25-5.25 5.252 5.252 0 0 1 5.25-5.25z" fill="#fff" fill-opacity=".498" stroke="url(#E)" stroke-linejoin="round" transform="matrix(.99492 0 0 .99492 -107.08 -102.552)"/><path d="M147.276 127.335c-6.374 0-11.5 5.126-11.5 11.5s5.126 11.5 11.5 11.5 11.5-5.126 11.5-11.5-5.126-11.5-11.5-11.5z" opacity=".8" fill="none" stroke="url(#Q)" transform="matrix(.99492 0 0 .99492 -107.08 -102.552)"/><path d="M137.117 114.234l5.955 14.324a11.045 11.045 0 0 1 4.525-.83l.125.003.456-15.486c-3.918-.205-7.412.667-11.061 1.99z" opacity=".8" fill="url(#R)" stroke-width="1.333" transform="matrix(.99492 0 0 .99492 -107.08 -102.552)"/><path d="M131.437 117.435l9.24 12.48a11.058 11.058 0 0 1 4.191-1.9c.041-.01.08-.02.123-.027l-3.24-15.193c-3.852.748-7.092 2.474-10.314 4.64z" opacity=".8" fill="url(#S)" stroke-width="1.333" transform="matrix(.99492 0 0 .99492 -107.08 -102.552)"/><path d="M126.279 122.422l12.284 9.54a11.068 11.068 0 0 1 3.556-2.92c.037-.018.072-.037.11-.057l-7.133-13.757c-3.526 1.72-6.266 4.268-8.817 7.194z" opacity=".8" fill="url(#T)" stroke-width="1.333" transform="matrix(.99492 0 0 .99492 -107.08 -102.552)"/><path d="M122.786 128.325c9.566 2.99 10.466 9.374 17.036 2.339l-10.547-11.595c-2.962 2.575-4.782 5.77-6.49 9.256z" opacity=".8" fill="url(#U)" stroke-width="1.333" transform="matrix(.99492 0 0 .99492 -107.08 -102.552)"/><path d="M124.816 124.484c-1.578 2.336-2.544 4.849-3.367 7.525l15.118 3.966c.287-1.017.691-2.018 1.292-2.957l.083-.125-13.126-8.41z" opacity=".8" fill="url(#V)" stroke-width="1.333" transform="matrix(.99492 0 0 .99492 -107.08 -102.552)"/><path d="M147.276 112.335a26.432 26.432 0 0 0-26.5 26.5 26.432 26.432 0 0 0 26.5 26.5 26.432 26.432 0 0 0 26.5-26.5 26.432 26.432 0 0 0-26.5-26.5z" opacity=".4" fill="none" stroke="url(#W)" transform="matrix(.99492 0 0 .99492 -107.08 -102.552)"/><path d="M157.435 163.541l-5.955-14.324c-1.397.573-2.92.876-4.526.831l-.125-.004-.456 15.486c3.918.206 7.412-.667 11.062-1.99z" opacity=".8" fill="url(#X)" stroke-width="1.333" transform="matrix(.99492 0 0 .99492 -107.08 -102.552)"/><path d="M163.115 160.34l-9.241-12.48a11.058 11.058 0 0 1-4.191 1.9c-.041.01-.08.02-.123.028l3.24 15.192c3.852-.748 7.092-2.474 10.315-4.64z" opacity=".8" fill="url(#Y)" stroke-width="1.333" transform="matrix(.99492 0 0 .99492 -107.08 -102.552)"/><path d="M168.273 155.353l-12.285-9.54a11.068 11.068 0 0 1-3.556 2.92l-.11.057 7.133 13.757c3.526-1.72 6.266-4.268 8.818-7.194z" opacity=".8" fill="url(#Z)" stroke-width="1.333" transform="matrix(.99492 0 0 .99492 -107.08 -102.552)"/><path d="M171.765 149.45c-9.566-2.99-10.466-9.374-17.035-2.338l10.546 11.594c2.962-2.575 4.782-5.77 6.49-9.256z" opacity=".8" fill="url(#aa)" stroke-width="1.333" transform="matrix(.99492 0 0 .99492 -107.08 -102.552)"/><path d="M169.735 153.291c1.578-2.336 2.544-4.849 3.367-7.525l-15.118-3.966c-.287 1.017-.69 2.018-1.292 2.957l-.083.125 13.126 8.41z" opacity=".8" fill="url(#ab)" stroke-width="1.333" transform="matrix(.99492 0 0 .99492 -107.08 -102.552)"/><g><path transform="rotate(19.986 230.206 -330.74) scale(.89856)" style="isolation:auto;mix-blend-mode:normal;marker:none" color="#000" display="block" overflow="visible" fill="url(#ac)" stroke="#fff" stroke-width="2" paint-order="fill markers stroke" d="M198.873 57.46h35.906v39.685h-35.906z"/><path d="M65.156 21.518c-.544-.145-.544.24-.642.607l-2.799 10.419s-.3-.109-.509-.165c-1.56-.522-3.603.165-4.207 1.783-.54 1.27.564 2.73 1.863 2.858 1.612.254 3.202-1.016 3.416-2.632.74-2.749 1.465-5.506 2.217-8.25.14-.093.288.226.397.269 1.06 1.084 1.846 2.612 1.511 4.164-.238 1.22-.914 2.294-1.619 3.294 1.817-1.316 2.912-3.652 2.495-5.893-.177-1.283-1.082-2.288-1.408-3.523-.26-.837-.39-1.728-.272-2.602-.042-.2-.219-.27-.392-.315z" style="marker:none" color="#000" overflow="visible" fill="#0b0201" fill-opacity=".286" stroke-width=".578"/><path d="M182.692 132.564c-.606-.163-.606.267-.715.675l-3.115 11.594s-.333-.12-.566-.182c-1.737-.581-4.01.182-4.682 1.983-.601 1.414.627 3.039 2.073 3.181 1.794.282 3.563-1.13 3.802-2.93.824-3.058 1.63-6.126 2.467-9.18.156-.104.32.251.442.299 1.18 1.206 2.055 2.907 1.682 4.635-.265 1.356-1.017 2.552-1.802 3.665 2.022-1.464 3.24-4.064 2.776-6.558-.196-1.429-1.204-2.546-1.566-3.92-.29-.932-.435-1.924-.303-2.897-.046-.222-.244-.3-.436-.35z" fill="url(#ad)" stroke-width=".578" transform="translate(-99.18 -98.6) scale(.89856)"/></g><g><path d="M18.587.953l4.93 28.366L1.193 9.545l2.63 7.147s.958 3.26 2.364 4.782c1.375 1.49 5.131 5.25 5.131 5.25l14.028 13.115.074.425s2.024 2.114 2.313 2.657c1.027 1.926 1.453 6.452 1.327 8.63-.04.683-.681 2.522-.727 2.653a8.351 8.351 0 0 0-4.384 1.18c-4.007 2.395-5.298 7.601-2.889 11.63a8.494 8.494 0 0 0 4.83 3.775c2.359.936 5.1.814 7.438-.584 4.003-2.393 5.293-7.601 2.885-11.63a8.603 8.603 0 0 0-.374-.56l-2.079-10.31 6.935 6.484c.088.207.177.412.282.614 2.163 4.165 7.275 5.802 11.414 3.652 2.42-1.257 3.962-3.53 4.402-6.034a8.492 8.492 0 0 0-.678-6.082c-2.163-4.165-7.272-5.8-11.412-3.65a8.356 8.356 0 0 0-3.308 3.113c-.133-.03-2.037-.45-2.639-.774-1.921-1.036-5.548-3.777-6.648-5.664-.015-.025-.036-.078-.053-.114l-4.164-20.66s-1.228-5.17-1.773-7.122c-.558-1.996-2.83-4.524-2.83-4.524zm31.84 43.71a6.568 6.568 0 0 1 3.835 3.24 6.554 6.554 0 0 1 .647 4.12 6.483 6.483 0 0 1-3.263 4.036c-3.197 1.66-7.143.398-8.814-2.82a6.595 6.595 0 0 1-.584-1.63l-.147-1.094a6.566 6.566 0 0 1 .08-1.382 6.48 6.48 0 0 1 3.264-4.05 6.484 6.484 0 0 1 4.982-.42zM30.54 56.557c.074.019.146.045.219.067.425.175.834.394 1.218.658l.854.7c.406.393.772.84 1.077 1.348 1.861 3.114.863 7.135-2.229 8.984a6.48 6.48 0 0 1-5.154.655 6.556 6.556 0 0 1-3.162-2.713c-1.861-3.112-.863-7.133 2.231-8.983a6.483 6.483 0 0 1 4.946-.716z" fill="#1e1d1d" fill-opacity=".473" stroke-width=".103"/><path d="M178.47 163.07c-2.997-.57-8.982-2.694-11.242-4.743-.637-.575-2.81-4.04-2.81-4.04l-50.936-22.658 6.514 8.412s2.651 3.94 5.165 5.375c2.46 1.406 9.047 4.83 9.047 4.83l54.45 25.998-6.238-13.263s-2.98.273-3.95.09" fill="url(#ae)" stroke-width=".098" transform="rotate(16.063 319.75 -213.966) scale(.68073)"/><path d="M134.425 149.791c-.05-.026-6.59-3.428-9.013-4.813-2.385-1.362-4.972-5.18-4.997-5.219l-5.307-6.854 48.964 21.782c.445.702 2.2 3.456 2.817 4.014 2.281 2.068 8.326 4.262 11.485 4.865.84.16 2.887.018 3.74-.051l5.485 11.665-53.174-25.389" fill="url(#af)" stroke-width=".098" transform="rotate(16.063 319.75 -213.966) scale(.68073)"/><path d="M51.718 54.28c-3 1.658-6.782.556-8.45-2.463-1.67-3.019-.592-6.808 2.407-8.467 3.002-1.66 6.783-.556 8.452 2.463 1.67 3.019.593 6.807-2.409 8.467zM44.786 41.74c-3.883 2.147-5.279 7.054-3.119 10.96 2.16 3.907 7.06 5.337 10.942 3.19 3.884-2.146 5.277-7.056 3.117-10.962-2.16-3.907-7.057-5.335-10.94-3.188" fill="#6c6a6a" stroke-width=".098"/><path d="M200.289 172.333c-3.56 3.56-9.348 3.54-12.931-.042-3.583-3.583-3.602-9.37-.042-12.93 3.563-3.563 9.35-3.545 12.933.038 3.584 3.583 3.602 9.37.04 12.934zm-14.883-14.883c-4.608 4.608-4.584 12.104.052 16.74 4.637 4.637 12.136 4.664 16.744.056 4.61-4.61 4.581-12.107-.056-16.744-4.636-4.636-12.13-4.662-16.74-.052" fill="url(#ag)" stroke="#7d7569" stroke-width=".21" transform="rotate(16.063 319.75 -213.966) scale(.68073)"/><path d="M34.46 40.128l-2.361-2.332-7.025-8.355-1.916-1.594 1.268 9.187 11.288 10.03z" fill-opacity=".253" fill-rule="evenodd" stroke-width="1.05"/><path d="M168.302 175.846c-.75-2.956-3.226-8.805-5.405-10.938-.614-.602-4.201-2.565-4.201-2.565l-25.663-49.49 8.787 6.002s4.09 2.41 5.675 4.834c1.55 2.371 5.362 8.74 5.362 8.74l29.205 52.8-13.612-5.433s.095-2.992-.148-3.95" fill="url(#ah)" stroke-width=".098" transform="rotate(16.063 319.75 -213.966) scale(.68073)"/><path d="M168.964 179.458c.018-.856.037-2.91-.173-3.737-.79-3.117-3.341-9.02-5.541-11.174-.595-.583-3.448-2.17-4.177-2.573l-24.668-47.573 7.13 4.87c.068.043 4.037 2.398 5.538 4.693 1.525 2.336 5.313 8.66 5.35 8.726l28.513 51.547-11.972-4.779" fill="url(#ai)" stroke-width=".098" transform="rotate(16.063 319.75 -213.966) scale(.68073)"/><path d="M25.204 64.027c-1.846-2.913-.997-6.76 1.9-8.597 2.894-1.834 6.736-.958 8.583 1.954 1.846 2.914.997 6.762-1.898 8.597-2.896 1.835-6.738.96-8.585-1.954zm-1.542.978c2.39 3.772 7.364 4.906 11.113 2.53 3.747-2.374 4.846-7.359 2.456-11.13-2.39-3.77-7.364-4.901-11.11-2.527-3.75 2.376-4.849 7.356-2.46 11.127" fill="#6c6a6a" stroke-width=".098"/><path d="M165.94 197.807c-3.791-3.363-4.155-9.141-.812-12.908 3.34-3.765 9.12-4.094 12.91-.732 3.792 3.364 4.154 9.14.815 12.906-3.342 3.77-9.122 4.096-12.912.734zm-1.78 2.007c4.907 4.352 12.39 3.934 16.717-.946 4.324-4.877 3.85-12.358-1.057-16.71-4.906-4.351-12.387-3.927-16.712.948-4.329 4.878-3.853 12.357 1.053 16.708" fill="url(#aj)" stroke="#7d7569" stroke-width=".21" transform="rotate(16.063 319.75 -213.966) scale(.68073)"/><path d="M30.948 37.225a1.649 1.649 0 1 1-3.278-.348 1.649 1.649 0 0 1 3.278.348" fill="#9e9e9e" stroke="#000" stroke-width=".29203316999999995" stroke-opacity=".577"/><path d="M29.464 38.178l.24-2.261H29.7l-.457-.054-.241 2.272.461.043" fill="#373636" stroke-width=".097"/></g><path style="isolation:auto;mix-blend-mode:normal;marker:none" d="M120 166h80v37h-80z" color="#000" overflow="visible" fill="url(#ak)" stroke-width="1.702" paint-order="fill markers stroke" transform="translate(-112 -112)"/><path style="isolation:auto;mix-blend-mode:normal;marker:none" d="M124 151h72v48h-72z" color="#000" display="block" overflow="visible" fill="url(#al)" stroke-width="2.268" paint-order="fill markers stroke" transform="translate(-112 -112)"/><path style="isolation:auto;mix-blend-mode:normal;marker:none" d="M12 55v32h72V55h-1v31H13V55z" color="#000" display="block" overflow="visible" fill="#eac198" fill-opacity=".604" stroke-width="2.268" paint-order="fill markers stroke"/><path style="isolation:auto;mix-blend-mode:normal;marker:none" d="M196 151l12 15h-12z" color="#000" display="block" overflow="visible" fill="url(#am)" stroke-width="1.512" paint-order="fill markers stroke" transform="translate(-112 -112)"/><path d="M124 151l-12 15h12z" style="isolation:auto;mix-blend-mode:normal;marker:none" color="#000" display="block" overflow="visible" fill="url(#an)" stroke-width="1.512" paint-order="fill markers stroke" transform="translate(-112 -112)"/><path d="M123.937 136H196v63h-72.063z" style="isolation:auto;mix-blend-mode:normal;marker:none" color="#000" display="block" overflow="visible" fill="url(#ao)" stroke-width="2.372" paint-order="fill markers stroke" transform="translate(-112 -112)"/><path d="M11.937 39H84l7 16H4.937z" style="isolation:auto;mix-blend-mode:normal;marker:none" color="#000" display="block" overflow="visible" fill="#fece96" fill-opacity=".978" stroke-width="1.512" paint-order="fill markers stroke"/><path style="isolation:auto;mix-blend-mode:normal;marker:none" d="M6 56l84-.016L91 55H4.937z" color="#000" overflow="visible" fill="#f1bd81" stroke-width=".378" paint-order="fill markers stroke"/><path d="M0 53l11-14h1L0 54zM96 53L85 39h-1l12 15z" style="isolation:auto;mix-blend-mode:normal;marker:none" color="#000" display="block" overflow="visible" fill="#fccd95" stroke-width=".378" paint-order="fill markers stroke"/></svg>