<svg xmlns="http://www.w3.org/2000/svg" xmlns:xlink="http://www.w3.org/1999/xlink" height="16" viewBox="0 0 16 16" width="16"><title>Template icons dark</title><defs><linearGradient id="c"><stop offset="0" stop-color="#24303f"/><stop offset="1" stop-color="#304155"/></linearGradient><linearGradient id="b"><stop offset="0" stop-color="#5a41e2"/><stop offset="1" stop-color="#4c9ce0" stop-opacity=".945"/></linearGradient><linearGradient id="a"><stop offset="0" stop-color="#fffefe"/><stop offset="1" stop-color="#fff" stop-opacity=".855"/></linearGradient><linearGradient gradientTransform="matrix(.18182 0 0 .18182 -93.09 -93.09)" xlink:href="#c" id="d" x1="171.402" y1="199.004" x2="171.402" y2="116" gradientUnits="userSpaceOnUse"/></defs><path style="isolation:auto;mix-blend-mode:normal;marker:none" d="M-69.792-72h11.584c1.223 0 2.208.985 2.208 2.208v11.584A2.204 2.204 0 0 1-58.208-56h-11.584A2.204 2.204 0 0 1-72-58.208v-11.584c0-1.223.985-2.208 2.208-2.208z" color="#000" display="block" overflow="visible" fill="url(#d)" paint-order="fill markers stroke" transform="translate(72 72)"/><path d="M12.69 12.186c-1.504.805-3.137 1.193-4.624 1.193-2.202 0-4.335-.762-6.06-2.027-.151-.11-.263.084-.137.228 1.6 1.819 3.711 2.912 6.057 2.912 1.674 0 3.618-.664 4.959-1.91.222-.207.031-.517-.196-.396zm.366 1.212c-.05.124.057.175.17.08.732-.612.92-1.895.77-2.08-.148-.184-1.428-.342-2.209.206-.12.084-.1.2.034.185.44-.053 1.42-.171 1.593.053.175.224-.194 1.145-.358 1.556z" clip-rule="evenodd" fill="#ff9802" fill-opacity=".984" fill-rule="evenodd"/><path d="M8.833 6.784c0 .557.013 1.02-.267 1.514-.227.403-.588.65-.987.65-.549 0-.869-.417-.869-1.036 0-1.216 1.091-1.437 2.124-1.437v.31zm1.44 3.481a.293.293 0 0 1-.337.034c-.475-.394-.56-.577-.82-.952-.783.799-1.338 1.038-2.353 1.038-1.202 0-2.137-.741-2.137-2.225 0-1.159.628-1.947 1.522-2.333.775-.34 1.857-.403 2.685-.495v-.185c0-.34.027-.742-.173-1.036-.174-.262-.508-.37-.802-.37-.545 0-1.029.278-1.148.856-.024.129-.118.256-.248.263L5.08 4.71c-.117-.026-.247-.12-.213-.298.318-1.68 1.834-2.186 3.192-2.186.695 0 1.603.185 2.15.71.695.65.629 1.515.629 2.458v2.224c0 .669.278.962.539 1.323.092.13.111.285-.005.38-.292.244-.81.694-1.095.948z" clip-rule="evenodd" fill="#fff" fill-opacity=".984" fill-rule="evenodd"/></svg>