<svg xmlns="http://www.w3.org/2000/svg" xmlns:xlink="http://www.w3.org/1999/xlink" height="16" viewBox="0 0 16 16" width="16"><title>Template icons dark</title><defs><linearGradient id="d"><stop offset="0" stop-color="#f772b7"/><stop offset="1" stop-color="#f70342"/></linearGradient><linearGradient id="c"><stop offset="0" stop-color="#f7f7f7"/><stop offset="1" stop-color="#e8e8e8"/></linearGradient><linearGradient id="a"><stop offset="0" stop-color="#dedede"/><stop offset="1" stop-color="#fff" stop-opacity=".974"/></linearGradient><linearGradient id="b"><stop offset="0" stop-color="#ff1781"/><stop offset="1" stop-color="#0b65ff"/></linearGradient><linearGradient gradientTransform="matrix(.13718 0 0 .13718 -85.948 -85.948)" xlink:href="#b" id="f" x1="160.333" y1="155.19" x2="160.333" y2="204.115" gradientUnits="userSpaceOnUse"/><linearGradient xlink:href="#c" id="g" gradientUnits="userSpaceOnUse" x1="272" y1="298" x2="272" y2="237.102" gradientTransform="matrix(.1237 0 0 .1237 -97.772 -98.116)"/><radialGradient xlink:href="#d" id="e" cx="160" cy="160" fx="160" fy="160" r="38.047" gradientTransform="matrix(.15916 0 0 .21246 -89.466 -97.994)" gradientUnits="userSpaceOnUse"/></defs><g transform="translate(72 72)"><path style="isolation:auto;mix-blend-mode:normal;marker:none" d="M-56-64l-5.005 1.023 3.477 3.921-4.62-2.265.62 5.321L-64-60.688-66.472-56l.62-5.32-4.62 2.264 3.477-3.92L-72-64l5.005-1.023-3.477-3.921 4.62 2.265-.62-5.321L-64-67.312-61.528-72l-.62 5.32 4.62-2.264-3.477 3.92z" color="#000" overflow="visible" fill-opacity=".267"/><path style="isolation:auto;mix-blend-mode:normal;marker:none" d="M-56.4-64l-4.755.972 3.303 3.725-4.39-2.152.59 5.054L-64-60.854l-2.348 4.453.59-5.054-4.39 2.152 3.303-3.725L-71.6-64l4.754-.972-3.303-3.725 4.39 2.152-.59-5.054L-64-67.146l2.348-4.453-.59 5.054 4.39-2.152-3.303 3.725z" color="#000" display="block" overflow="visible" fill="#fff" fill-opacity=".984"/><path style="isolation:auto;mix-blend-mode:normal;marker:none" d="M-57.895-64A6.105 6.105 0 0 1-64-57.895 6.105 6.105 0 0 1-70.105-64 6.105 6.105 0 0 1-64-70.105 6.105 6.105 0 0 1-57.895-64z" color="#000" overflow="visible" fill="url(#e)" stroke="#fff" stroke-width=".34"/><path style="isolation:auto;mix-blend-mode:normal;marker:none" d="M-57.895-64A6.105 6.105 0 0 1-64-57.895 6.105 6.105 0 0 1-70.105-64 6.105 6.105 0 0 1-64-70.105 6.105 6.105 0 0 1-57.895-64z" color="#000" overflow="visible" opacity=".284" fill="url(#f)" stroke="#fff" stroke-width=".34"/><path style="isolation:auto;mix-blend-mode:normal;marker:none" d="M-58.062-64.218A5.94 6.105 0 0 1-64-58.168a5.94 6.105 0 0 1-5.938-6.026 5.94 6.105 0 0 0-.003.057A5.94 6.105 0 0 0-64-58.032a5.94 6.105 0 0 0 5.94-6.105 5.94 6.105 0 0 0-.002-.08z" color="#000" overflow="visible" fill-opacity=".297"/><path d="M-58.035-63.743A5.968 6.105 0 0 0-64-69.792a5.968 6.105 0 0 0-5.965 6.025 5.968 6.105 0 0 1-.003-.057A5.968 6.105 0 0 1-64-69.929a5.968 6.105 0 0 1 5.968 6.105 5.968 6.105 0 0 1-.003.08z" style="isolation:auto;mix-blend-mode:normal;marker:none" color="#000" overflow="visible" fill="#242424" fill-opacity=".471"/><path style="line-height:1000%;-inkscape-font-specification:Sagar" d="M-63.896-69.276c-.484 0-.888.084-1.203.282-.306.191-.505.485-.505.815v.014l.056.521 1.172 5.128h.385a1.367 1.367 0 0 0-1.35 1.362c0 .75.614 1.365 1.365 1.365.75 0 1.365-.614 1.365-1.365 0-.745-.606-1.353-1.35-1.362h.425l1.188-5.14v-.456c0-.354-.183-.674-.487-.872-.296-.197-.658-.292-1.06-.292z" font-weight="400" font-family="Sagar" letter-spacing="0" word-spacing="0" fill-opacity=".136" paint-order="stroke fill markers"/><path style="line-height:1000%;-inkscape-font-specification:Sagar" d="M-63.937-68.999c-.454 0-.811.081-1.07.243-.258.162-.388.363-.388.604l.054.493 1.124 4.92h.44l1.138-4.92v-.427c0-.28-.125-.5-.375-.663-.25-.167-.557-.25-.923-.25zm-.08 6.757a1.114 1.114 0 0 0-1.114 1.115 1.114 1.114 0 0 0 1.114 1.114 1.114 1.114 0 0 0 1.114-1.114 1.114 1.114 0 0 0-1.114-1.115z" font-weight="400" font-family="Sagar" letter-spacing="0" word-spacing="0" fill="url(#g)" paint-order="stroke fill markers"/><circle style="isolation:auto;mix-blend-mode:normal;marker:none" cx="-64" cy="-64" r="6.588" color="#000" overflow="visible" fill-opacity=".157"/></g></svg>