<svg xmlns="http://www.w3.org/2000/svg" height="16" viewBox="0 0 16 16" width="16"><title>Template icons dark</title><defs><linearGradient id="b"><stop offset="0" stop-color="#ff053c"/><stop offset="1" stop-color="#0b31ff" stop-opacity=".974"/></linearGradient><linearGradient id="a"><stop offset="0" stop-color="#20c686"/><stop offset="1" stop-color="#259d68"/></linearGradient></defs><g fill="#fff" transform="translate(56 72)"><path style="isolation:auto;mix-blend-mode:normal;marker:none" d="M-48-72a8 8 0 0 0-8 8 8 8 0 0 0 8 8 8 8 0 0 0 8-8 8 8 0 0 0-8-8zm0 .5a7.5 7.5 0 0 1 7.5 7.5 7.5 7.5 0 0 1-7.5 7.5 7.5 7.5 0 0 1-7.5-7.5 7.5 7.5 0 0 1 7.5-7.5z" color="#000" overflow="visible"/><path d="M-45.941-58.521c-.918-.153-2.111-1.204-3.2-2.82a15.528 15.528 0 0 1-1.23-2.204c-.06-.138-.083-.17-.102-.151-.037.04-.302.617-.442.963a8.488 8.488 0 0 0-.497 1.657c-.061.335-.066.984-.01 1.185.132.467.417.66.862.586.321-.054.71-.23 1.122-.508.183-.123.231-.146.302-.147.108 0 .189.058.227.166.025.07.025.091 0 .16-.026.064-.068.103-.262.234-.266.18-.723.414-.956.489-.612.195-1.089.124-1.424-.215-.308-.31-.44-.813-.4-1.514.053-.912.454-2.157 1.088-3.377l.159-.306-.12-.325c-.115-.31-.342-1.031-.342-1.085 0-.039-.07-.03-.374.044-.698.172-1.217.39-1.589.67-.731.548-.537 1.167.558 1.783.175.099.215.151.215.282 0 .068-.013.096-.069.152-.12.12-.231.095-.6-.134-.536-.332-.874-.71-.993-1.108a1.327 1.327 0 0 1 0-.585c.063-.213.17-.383.361-.576.43-.432 1.144-.765 2.123-.988.2-.046.245-.063.238-.088a6.247 6.247 0 0 1-.05-.253c-.134-.714-.138-1.533-.01-1.987.146-.523.412-.835.835-.98.173-.06.52-.05.756.02.239.071.535.217.797.393.312.209.404.296.417.398.03.232-.21.357-.405.211-.614-.457-1.052-.631-1.404-.557-.255.054-.45.316-.548.738-.04.168-.045.247-.045.664 0 .474.007.55.093 1.046l.044.25.102-.012c.47-.057.875-.097 1.125-.11l.296-.016.046-.06c.501-.643 1.23-1.395 1.781-1.838 1.057-.848 1.963-1.142 2.587-.84.352.17.575.519.66 1.035.057.337.013 1.135-.075 1.36-.03.077-.127.133-.232.133a.192.192 0 0 1-.151-.059c-.06-.053-.066-.068-.066-.176 0-.065.017-.25.038-.41.06-.468.018-.9-.11-1.15a.762.762 0 0 0-.297-.305c-.082-.04-.125-.047-.317-.046a1.01 1.01 0 0 0-.44.075c-.617.21-1.324.716-2.082 1.49a14.69 14.69 0 0 0-.484.52l-.22.253.192.004c2.672.064 4.925.678 5.987 1.632.239.215.445.534.505.784.03.126.03.372 0 .503-.109.486-.642.962-1.42 1.27-.123.05-.149.053-.215.033a.242.242 0 0 1-.18-.233c0-.128.062-.19.284-.283.483-.203.858-.487 1-.758.05-.094.057-.131.057-.28 0-.155-.007-.184-.068-.303-.086-.167-.37-.452-.607-.609C-44.28-65.5-46.469-66-48.677-66h-.364l-.138.187c-.205.279-.65.957-.828 1.26l-.157.268.108.247c1.078 2.474 2.752 4.563 3.986 4.975.268.09.472.094.636.014.307-.15.468-.54.493-1.195.04-1.093-.353-2.602-1.086-4.167-.076-.162-.122-.286-.122-.33 0-.132.109-.236.245-.234.12.001.174.05.266.243.595 1.244.992 2.49 1.14 3.582.05.367.05 1.114 0 1.38-.079.427-.22.735-.435.951-.263.264-.604.365-1.008.298zm-4.268-6.642c.075-.122.222-.346.326-.498.104-.152.189-.283.189-.29 0-.026-.953.07-.982.1-.017.016.04.229.167.619.092.284.117.341.138.318.014-.015.087-.127.162-.25zm2.033 1.809a.686.686 0 0 1-.476-.68.647.647 0 0 1 .138-.414.708.708 0 0 1 1.056-.08.711.711 0 0 1-.196 1.145.767.767 0 0 1-.522.029z" stroke="#fff" stroke-width=".4"/><circle r="7.5" cy="-64" cx="-48" style="isolation:auto;mix-blend-mode:normal;marker:none" color="#000" overflow="visible" fill-opacity=".132"/></g></svg>