<svg xmlns="http://www.w3.org/2000/svg" xmlns:xlink="http://www.w3.org/1999/xlink" height="16" viewBox="0 0 16 16" width="16"><title>Template icons dark</title><defs><linearGradient id="f"><stop offset="0" stop-color="#0a34ff" stop-opacity="0"/><stop offset="1" stop-color="#ffff0d" stop-opacity=".24"/></linearGradient><linearGradient id="c"><stop offset="0" stop-color="#fff" stop-opacity=".427"/><stop offset=".423" stop-color="#fbfcfe"/><stop offset="1" stop-color="#fff" stop-opacity=".49"/></linearGradient><linearGradient id="e"><stop offset="0" stop-color="#cdcdcd"/><stop offset="1" stop-color="#fff"/></linearGradient><linearGradient id="d"><stop offset="0" stop-color="#fff" stop-opacity=".427"/><stop offset=".423" stop-color="#fafcfe"/><stop offset="1" stop-color="#fff" stop-opacity=".49"/></linearGradient><linearGradient id="b"><stop offset="0" stop-color="#fff" stop-opacity=".266"/><stop offset="1" stop-color="#fff"/></linearGradient><linearGradient id="a"><stop offset="0" stop-color="#0a34ff"/><stop offset="1" stop-color="#f044ee"/></linearGradient><linearGradient xlink:href="#e" id="g" gradientUnits="userSpaceOnUse" gradientTransform="matrix(.17065 0 0 .17065 -75.304 -91.304)" x1="161.772" y1="204" x2="161.772" y2="113"/></defs><g color="#000"><path d="M16 8a8 8 0 0 1-8 8 8 8 0 0 1-8-8 8 8 0 0 1 8-8 8 8 0 0 1 8 8z" style="isolation:auto;mix-blend-mode:normal;marker:none" overflow="visible" fill="#fff" fill-opacity=".118"/><path d="M7.886 3.814c-1.088 0-1.883.466-2.448 1.117-.566.651-.936 1.47-1.319 2.249-.382.78-.773 1.518-1.309 2.028-.535.51-1.198.822-2.264.77l-.035.71c1.229.06 2.136-.341 2.79-.965.654-.624 1.07-1.44 1.457-2.23s.747-1.555 1.217-2.095c.47-.54 1.013-.873 1.911-.873.997 0 1.574.327 2.044.845s.807 1.255 1.175 2.03c.368.775.769 1.588 1.436 2.223.667.635 1.608 1.062 2.93 1.065l.001-.711c-1.176-.002-1.893-.348-2.44-.869-.549-.521-.921-1.248-1.284-2.013-.364-.765-.715-1.567-1.292-2.203-.577-.636-1.405-1.078-2.57-1.078z" style="line-height:normal;font-variant-ligatures:normal;font-variant-position:normal;font-variant-caps:normal;font-variant-numeric:normal;font-variant-alternates:normal;font-feature-settings:normal;text-indent:0;text-align:start;text-decoration-line:none;text-decoration-style:solid;text-decoration-color:#000;text-transform:none;text-orientation:mixed;shape-padding:0;isolation:auto;mix-blend-mode:normal" font-weight="400" font-family="sans-serif" white-space="normal" overflow="visible" fill="#fff" fill-opacity=".948" fill-rule="evenodd"/><path d="M-40.49-64A7.51 7.51 0 0 1-48-56.49 7.51 7.51 0 0 1-55.51-64 7.51 7.51 0 0 1-48-71.51 7.51 7.51 0 0 1-40.49-64z" style="isolation:auto;mix-blend-mode:normal;marker:none" overflow="visible" fill="none" stroke="url(#g)" stroke-width=".981" stroke-linejoin="round" transform="translate(56 72)"/></g></svg>