<svg xmlns="http://www.w3.org/2000/svg" height="16" viewBox="0 0 16 16" width="16"><title>Template icons dark</title><defs><linearGradient id="a"><stop offset="0" stop-color="#fbfbfb"/><stop offset="1" stop-color="#cfcfcf"/></linearGradient><linearGradient id="b"><stop offset="0" stop-color="#ff8545"/><stop offset=".525" stop-color="#f47200"/><stop offset="1" stop-color="#ffa04d"/></linearGradient><linearGradient id="c"><stop offset="0" stop-color="#2c60d3" stop-opacity=".609"/><stop offset="1" stop-color="#2c60d3" stop-opacity="0"/></linearGradient><linearGradient id="d"><stop offset="0" stop-opacity=".289"/><stop offset="1" stop-color="#c1c1c1" stop-opacity="0"/></linearGradient><linearGradient id="e"><stop offset="0" stop-color="#da6607" stop-opacity=".355"/><stop offset="1" stop-color="#fff" stop-opacity=".243"/></linearGradient><linearGradient id="f"><stop offset="0" stop-color="#763704"/><stop offset="1" stop-color="#763704" stop-opacity="0"/></linearGradient></defs><g transform="translate(72 72)"><path d="M-64.575-70.98a.962.962 0 0 0-.682.284.963.963 0 0 0 0 1.365l2.68 2.68h-6.989a.963.963 0 0 0-.965.966c0 .534.43.965.965.965 1.005-.003 2.43-.004 3.795-.003l-4.945 4.945a.963.963 0 0 0 0 1.365.963.963 0 0 0 1.364 0c.726-.73 1.766-1.77 2.752-2.756A4.825 4.825 0 0 0-61.825-57 4.825 4.825 0 0 0-57-61.825a4.825 4.825 0 0 0-1.654-3.632c-.357-.356-3.565-3.557-5.239-5.24a.962.962 0 0 0-.682-.283zm2.807 7.392a1.74 1.74 0 1 1 0 3.482 1.74 1.74 0 0 1 0-3.482z" fill="#ff7a3d"/><circle style="isolation:auto;mix-blend-mode:normal;marker:none" cx="-61.782" cy="-61.848" r="2.22" color="#000" display="block" overflow="visible" fill="none" stroke="#fff" stroke-opacity=".99" paint-order="fill markers stroke"/></g></svg>