<svg xmlns="http://www.w3.org/2000/svg" xmlns:xlink="http://www.w3.org/1999/xlink" height="16" viewBox="0 0 16 16" width="16"><title>Template icons dark</title><defs><linearGradient id="c"><stop offset="0" stop-color="#dbdbdb"/><stop offset="1" stop-color="#fff"/></linearGradient><linearGradient id="a"><stop offset="0" stop-color="#343434"/><stop offset="1" stop-color="#585858"/></linearGradient><linearGradient id="b"><stop offset="0" stop-color="#0086f7"/><stop offset="1" stop-color="#60cdff"/></linearGradient><linearGradient xlink:href="#b" id="d" gradientUnits="userSpaceOnUse" gradientTransform="matrix(2.2 0 0 2.2 -116.8 -123.84)" x1="25" y1="45.7" x2="25" y2="8.075"/><linearGradient xlink:href="#c" id="e" gradientUnits="userSpaceOnUse" gradientTransform="matrix(1.01537 0 0 1.01537 -226.459 -226.459)" x1="164.959" y1="189.342" x2="164.959" y2="137.236"/><linearGradient xlink:href="#a" id="f" gradientUnits="userSpaceOnUse" gradientTransform="translate(-111.565 -117.484) scale(1.98448)" x1="31" y1="38.2" x2="31" y2="16.075"/></defs><path d="M-68.875-72h9.75c2.285 0 3.125.84 3.125 3.125v9.75C-56-56.84-56.84-56-59.125-56h-9.75C-71.16-56-72-56.84-72-59.125v-9.75c0-2.285.84-3.125 3.125-3.125z" fill="url(#d)" transform="translate(72 72)"/><path d="M-67.682-70h7.364c1.838 0 2.318.48 2.318 2.318v7.364C-58-58.48-58.48-58-60.318-58h-7.364C-69.52-58-70-58.48-70-60.318v-7.364c0-1.838.48-2.318 2.318-2.318z" fill="url(#e)" transform="translate(72 72)"/><path d="M-69-69.008V-59h4v-2h-2v-6h2v-2zm6 .008v2h2v6h-2v2h4v-10z" fill="url(#f)" transform="translate(72 72)"/></svg>