<svg xmlns="http://www.w3.org/2000/svg" xmlns:xlink="http://www.w3.org/1999/xlink" height="16" viewBox="0 0 16 16" width="16"><title>Template icons dark</title><defs><linearGradient id="j"><stop offset="0" stop-color="#aa70ce"/><stop offset="1" stop-color="#e2268d"/></linearGradient><linearGradient id="i"><stop offset="0" stop-color="#fff" stop-opacity=".225"/><stop offset="1" stop-color="#fff" stop-opacity=".093"/></linearGradient><linearGradient id="a"><stop offset="0" stop-color="#fff" stop-opacity=".105"/><stop offset="1" stop-color="#fff" stop-opacity=".414"/></linearGradient><linearGradient id="b"><stop offset="0" stop-color="#4b4b4b"/><stop offset=".139" stop-color="#ddd"/><stop offset=".303" stop-color="#838383"/><stop offset=".455" stop-color="#fff"/><stop offset=".522" stop-color="#fff"/><stop offset=".731" stop-color="#5f5f5f"/><stop offset=".931" stop-color="#fff"/><stop offset="1" stop-color="#505050"/></linearGradient><linearGradient id="c"><stop offset="0" stop-color="#fcfcfc"/><stop offset=".512" stop-color="#7c7c7c"/><stop offset=".904" stop-color="#fcfcfc"/><stop offset="1" stop-color="#b5b5b5"/></linearGradient><linearGradient id="d"><stop offset="0" stop-opacity="0"/><stop offset="1" stop-color="#919191" stop-opacity=".502"/></linearGradient><linearGradient id="e"><stop offset="0" stop-color="#15b5ff"/><stop offset="1" stop-color="#1385ff"/></linearGradient><linearGradient id="f"><stop offset="0" stop-color="#42ec81"/><stop offset="1" stop-color="#3add5c"/></linearGradient><linearGradient id="g"><stop offset="0" stop-color="#ff8300"/><stop offset="1" stop-color="#ff5b00"/></linearGradient><linearGradient id="h"><stop offset="0" stop-color="#f72424" stop-opacity=".066"/><stop offset="1" stop-color="#f72424" stop-opacity=".118"/></linearGradient><linearGradient xlink:href="#d" id="n" x1="8.57" y1="18.196" x2="28.333" y2="31.765" gradientUnits="userSpaceOnUse" gradientTransform="matrix(.49893 0 0 .49893 -75.547 -77.405)"/><linearGradient xlink:href="#b" id="l" gradientUnits="userSpaceOnUse" gradientTransform="matrix(.5671 .56157 -1.11238 1.14519 196.997 109.169)" x1="45.878" y1="34.792" x2="45.869" y2="42.694"/><linearGradient xlink:href="#b" id="m" gradientUnits="userSpaceOnUse" gradientTransform="matrix(.7981 0 0 1.5965 225.755 -64.719)" x1="45.878" y1="34.792" x2="46.015" y2="47.577"/><linearGradient xlink:href="#j" id="k" x1="151.346" y1="136.33" x2="151.346" y2="165" gradientUnits="userSpaceOnUse"/></defs><path d="M128.667 127.615c-3.503 13.664-13.729 27.642 0 40.5 13.426 13.369 28.963 15.668 42.538 2.038 17.348-16.937 4.909-33.653-2.039-42.538-11.607-10.47-25.798-6.643-40.499 0z" style="isolation:auto;mix-blend-mode:normal;marker:none" color="#000" display="block" overflow="visible" fill="url(#k)" paint-order="fill markers stroke" transform="matrix(.19753 0 0 .19753 -23.416 -23.208)"/><path d="M2 4l4 5 8-9-8 6z" fill="#fff" fill-rule="evenodd"/><path d="M180.51 170.87l5.744 5.435-9.088 9.234-5.558-5.503z" fill="url(#l)" transform="matrix(.1739 0 0 .1739 -19.907 -19.763)"/><path d="M258.257-9.374h22.38c1.012 0 1.826.815 1.826 1.827V8.935a1.823 1.823 0 0 1-1.826 1.826h-22.38a1.823 1.823 0 0 1-1.827-1.826V-7.547c0-1.012.815-1.827 1.827-1.827z" transform="matrix(.12357 .12237 -.12117 .12475 -19.907 -19.763)" fill="url(#m)"/><path d="M-65.693-71.95a6.246 6.246 0 0 0-6.26 6.258 6.246 6.246 0 0 0 6.26 6.26 6.246 6.246 0 0 0 6.259-6.26 6.246 6.246 0 0 0-6.26-6.259zm0 .95a5.297 5.297 0 0 1 5.308 5.308 5.297 5.297 0 0 1-5.308 5.309 5.297 5.297 0 0 1-5.309-5.309A5.297 5.297 0 0 1-65.693-71z" fill="#d8e0e9" stroke="url(#n)" stroke-width=".073" transform="translate(72 72)"/></svg>