<svg xmlns="http://www.w3.org/2000/svg" xmlns:xlink="http://www.w3.org/1999/xlink" height="16" viewBox="0 0 16 16" width="16"><title>Template icons dark</title><defs><linearGradient id="c"><stop offset="0" stop-color="#5299dc"/><stop offset="1" stop-color="#287bc8"/></linearGradient><linearGradient id="b"><stop offset="0" stop-color="#ebebeb"/><stop offset="1" stop-color="#a0afbe"/></linearGradient><linearGradient id="a"><stop offset="0" stop-color="#003783"/><stop offset="1" stop-color="#69e5ff"/></linearGradient><linearGradient xlink:href="#a" id="d" gradientUnits="userSpaceOnUse" x1="120" y1="120" x2="203.055" y2="204"/><linearGradient xlink:href="#b" id="e" gradientUnits="userSpaceOnUse" gradientTransform="matrix(.21883 0 0 .21883 -100.626 -100.651)" x1="155.098" y1="157.153" x2="197.653" y2="195.477"/></defs><g color="#000"><path style="isolation:auto;mix-blend-mode:normal;marker:none" d="M0 0h15.001v15.001H0z" display="block" overflow="visible" fill="#2268ab" paint-order="fill markers stroke"/><path style="isolation:auto;mix-blend-mode:normal;marker:none" d="M5 5h5v5H5z" display="block" overflow="visible" fill="#3d8dd8" paint-order="fill markers stroke"/><path style="isolation:auto;mix-blend-mode:normal;marker:none" d="M5 0h5v5H5z" display="block" overflow="visible" fill="#2777c4" paint-order="fill markers stroke"/><path style="isolation:auto;mix-blend-mode:normal;marker:none" d="M0 0h5v5H0z" display="block" overflow="visible" fill="#1f609e" paint-order="fill markers stroke"/><path style="isolation:auto;mix-blend-mode:normal;marker:none" d="M0 5h5v5H0z" display="block" overflow="visible" fill="#3b83c8" paint-order="fill markers stroke"/><path style="isolation:auto;mix-blend-mode:normal;marker:none" d="M10 5h4.999v5H10z" display="block" overflow="visible" fill="#63a3e0" paint-order="fill markers stroke"/><path style="isolation:auto;mix-blend-mode:normal;marker:none" d="M10 0h4.999v5H10z" display="block" overflow="visible" fill="#3b8bd8" paint-order="fill markers stroke"/><path style="isolation:auto;mix-blend-mode:normal;marker:none" d="M5 10h5v4.999H5z" display="block" overflow="visible" fill="#61a2e0" paint-order="fill markers stroke"/><path style="isolation:auto;mix-blend-mode:normal;marker:none" d="M0 10h5v4.999H0z" display="block" overflow="visible" fill="#4893db" paint-order="fill markers stroke"/><path style="isolation:auto;mix-blend-mode:normal;marker:none" d="M-61.455-66.952a5.47 5.47 0 0 0-.179.007c-.01-.002-.019-.006-.03-.006H-66.7a.218.218 0 0 0-.219.218v5.124a5.47 5.47 0 0 0-.006.128 5.47 5.47 0 0 0 5.47 5.47 5.47 5.47 0 0 0 5.471-5.47 5.47 5.47 0 0 0-5.47-5.47z" overflow="visible" fill="url(#e)" paint-order="fill markers stroke" transform="translate(72 72)"/><path style="isolation:auto;mix-blend-mode:normal;marker:none" d="M13.357 10.519a2.813 2.813 0 0 1-2.812 2.813 2.813 2.813 0 0 1-2.813-2.813 2.813 2.813 0 0 1 2.813-2.813 2.813 2.813 0 0 1 2.812 2.813z" overflow="visible" fill="#297cca" paint-order="fill markers stroke"/><path style="isolation:auto;mix-blend-mode:normal;marker:none" d="M10 9v1H9v1h1v1h1v-1h1v-1h-1.04L11 9z" overflow="visible" fill="#fff" fill-opacity=".346" paint-order="fill markers stroke"/></g></svg>