<svg xmlns="http://www.w3.org/2000/svg" xmlns:xlink="http://www.w3.org/1999/xlink" height="16" viewBox="0 0 16 16" width="16"><title>Template icons dark</title><defs><linearGradient id="b"><stop offset="0" stop-color="#7da2db"/><stop offset=".399" stop-color="#555dbb"/><stop offset="1" stop-color="#b985b0"/></linearGradient><linearGradient id="a"><stop offset="0" stop-color="#0b1528"/><stop offset="1" stop-color="#473d49"/></linearGradient><linearGradient xlink:href="#a" id="e" gradientUnits="userSpaceOnUse" gradientTransform="matrix(1.06868 0 0 1.17899 21.006 4.762)" x1="152.009" y1="127.834" x2="152.009" y2="94.362"/><linearGradient xlink:href="#b" id="f" gradientUnits="userSpaceOnUse" gradientTransform="matrix(.91754 0 0 .95831 13.159 7.35)" x1="183" y1="155" x2="132.898" y2="114"/><linearGradient xlink:href="#a" id="c" gradientUnits="userSpaceOnUse" gradientTransform="matrix(1.06868 0 0 1.17899 21.006 4.762)" x1="152.009" y1="127.834" x2="152.009" y2="94.362"/><linearGradient xlink:href="#b" id="d" gradientUnits="userSpaceOnUse" gradientTransform="matrix(.91754 0 0 .95831 13.159 7.35)" x1="183" y1="155" x2="132.898" y2="114"/></defs><g transform="matrix(.17392 0 0 .17392 -19.82 -11.611)"><rect ry="0" y="112.763" x="113.965" height="45.999" width="91.999" style="marker:none" fill="url(#c)"/><rect style="marker:none" width="86.248" height="40.249" x="116.84" y="115.639" ry="0" opacity=".435" fill="none" stroke="url(#d)" stroke-width="5.75"/><rect ry="0" y="141.513" x="148.463" height="5.75" width="23" style="isolation:auto;mix-blend-mode:normal;marker:none" color="#000" overflow="visible" fill="#d8e6ff"/><path style="line-height:10;-inkscape-font-specification:'Ubuntu Mono';isolation:auto;mix-blend-mode:normal;marker:none" d="M134.258 143.38q1.392 0 2.32-.19.967-.229 1.508-.61.542-.418.774-.95.232-.572.232-1.219 0-.951-.464-1.598-.464-.685-1.276-1.18-.774-.533-1.78-.914-1.005-.418-2.088-.799-1.044-.38-2.088-.837-1.006-.457-1.818-1.104-.774-.685-1.276-1.599-.503-.951-.503-2.321 0-2.436 1.47-3.959 1.47-1.522 4.254-1.94v-3.921h2.862v3.806q1.547.076 2.823.38 1.315.267 2.088.572l-.657 2.664q-.812-.305-2.05-.61-1.237-.342-3.132-.342-2.089 0-3.21.762-1.083.76-1.083 2.207 0 .8.309 1.332.348.533.967.952.619.418 1.43.76.852.343 1.896.724 1.315.495 2.552 1.066 1.238.533 2.166 1.294.928.761 1.47 1.827.58 1.065.58 2.55 0 2.245-1.508 3.806-1.509 1.56-4.641 1.94v4.378h-2.862v-4.263q-2.437-.076-3.945-.533-1.508-.456-2.243-.875l.85-2.626q1.045.494 2.476.951 1.43.419 3.597.419z" color="#000" font-weight="400" font-size="28.848" font-family="Ubuntu Mono" letter-spacing="0" word-spacing="0" fill="#fff" fill-opacity=".984" stroke="#fff" stroke-width="1.486" stroke-opacity=".995"/></g><g transform="matrix(.17392 0 0 .17392 -19.82 -19.611)"><rect style="marker:none" width="91.999" height="45.999" x="113.965" y="112.763" ry="0" fill="url(#e)"/><rect ry="0" y="115.639" x="116.84" height="40.249" width="86.248" style="marker:none" opacity=".435" fill="none" stroke="url(#f)" stroke-width="5.75"/><rect style="isolation:auto;mix-blend-mode:normal;marker:none" width="23" height="5.75" x="148.463" y="141.513" ry="0" color="#000" overflow="visible" fill="#d8e6ff"/><path d="M134.258 143.38q1.392 0 2.32-.19.967-.229 1.508-.61.542-.418.774-.95.232-.572.232-1.219 0-.951-.464-1.598-.464-.685-1.276-1.18-.774-.533-1.78-.914-1.005-.418-2.088-.799-1.044-.38-2.088-.837-1.006-.457-1.818-1.104-.774-.685-1.276-1.599-.503-.951-.503-2.321 0-2.436 1.47-3.959 1.47-1.522 4.254-1.94v-3.921h2.862v3.806q1.547.076 2.823.38 1.315.267 2.088.572l-.657 2.664q-.812-.305-2.05-.61-1.237-.342-3.132-.342-2.089 0-3.21.762-1.083.76-1.083 2.207 0 .8.309 1.332.348.533.967.952.619.418 1.43.76.852.343 1.896.724 1.315.495 2.552 1.066 1.238.533 2.166 1.294.928.761 1.47 1.827.58 1.065.58 2.55 0 2.245-1.508 3.806-1.509 1.56-4.641 1.94v4.378h-2.862v-4.263q-2.437-.076-3.945-.533-1.508-.456-2.243-.875l.85-2.626q1.045.494 2.476.951 1.43.419 3.597.419z" style="line-height:10;-inkscape-font-specification:'Ubuntu Mono';isolation:auto;mix-blend-mode:normal;marker:none" color="#000" font-weight="400" font-size="28.848" font-family="Ubuntu Mono" letter-spacing="0" word-spacing="0" fill="#fff" fill-opacity=".984" stroke="#fff" stroke-width="1.486" stroke-opacity=".995"/></g></svg>