<svg xmlns="http://www.w3.org/2000/svg" xmlns:xlink="http://www.w3.org/1999/xlink" height="16" viewBox="0 0 16 16" width="16"><title>Template icons dark</title><defs><linearGradient id="k"><stop offset="0" stop-color="#3d353d"/><stop offset="1" stop-color="#3b464e"/></linearGradient><linearGradient id="j"><stop offset="0" stop-color="#6a618d"/><stop offset="1" stop-color="#5f81b6"/></linearGradient><linearGradient id="i"><stop offset="0" stop-color="#6e6492"/><stop offset="1" stop-color="#6688ba"/></linearGradient><linearGradient id="h"><stop offset="0" stop-color="#fff" stop-opacity=".368"/><stop offset="1" stop-color="#fff" stop-opacity=".289"/></linearGradient><linearGradient id="g"><stop offset="0" stop-color="#dedede"/><stop offset="1" stop-color="#cfcfcf"/></linearGradient><linearGradient id="e"><stop offset="0" stop-color="#093adc" stop-opacity=".325"/><stop offset=".514" stop-color="#621fed" stop-opacity=".099"/><stop offset="1" stop-color="#b707ff" stop-opacity=".45"/></linearGradient><linearGradient id="f"><stop offset="0" stop-color="#093adc" stop-opacity=".55"/><stop offset=".511" stop-color="#611fed" stop-opacity=".183"/><stop offset="1" stop-color="#b707ff" stop-opacity=".33"/></linearGradient><linearGradient id="d"><stop offset="0" stop-color="#fff" stop-opacity=".322"/><stop offset="1" stop-color="#fff" stop-opacity=".217"/></linearGradient><linearGradient id="a"><stop offset="0" stop-color="#9081c4"/><stop offset="1" stop-color="#8baddf"/></linearGradient><linearGradient id="b"><stop offset="0" stop-color="#9751de"/><stop offset="1" stop-color="#3c87f8"/></linearGradient><linearGradient id="c"><stop offset="0" stop-color="#eaf03f" stop-opacity=".422"/><stop offset="1" stop-color="#4e79e6" stop-opacity=".416"/></linearGradient><linearGradient xlink:href="#j" id="r" gradientUnits="userSpaceOnUse" gradientTransform="matrix(2.34158 0 0 2.2768 14.553 75.251)" x1="-36.714" y1="-64.003" x2="-30.619" y2="-58.6"/><linearGradient x1=".297" y1="-.219" x2=".827" y2=".252" gradientUnits="userSpaceOnUse" gradientTransform="scale(36.36815) rotate(18.09 -11.34 17.011)" id="l"><stop offset="0" stop-color="#cdc9c1"/><stop offset=".181" stop-color="#f4f3f1"/><stop offset=".492" stop-color="#b8b8b8"/><stop offset=".931" stop-color="#efeeeb"/><stop offset="1" stop-color="#fff"/></linearGradient><linearGradient x2="1" gradientUnits="userSpaceOnUse" gradientTransform="scale(-25.52501 25.52501) rotate(21.485 -18.377 -13.86)" id="m"><stop offset="0" stop-color="#888c8f"/><stop offset=".062" stop-color="#888c8f"/><stop offset=".677" stop-color="#fff"/><stop offset=".971" stop-color="#c5c7c6"/><stop offset="1" stop-color="#c5c7c6"/></linearGradient><linearGradient x1=".204" y1=".178" x2=".988" y2="-.108" gradientUnits="userSpaceOnUse" gradientTransform="scale(69.4056) rotate(-71.943 2.912 -.084)" id="n"><stop offset="0" stop-color="#a1a5a7"/><stop offset=".052" stop-color="#aeb1b3"/><stop offset=".178" stop-color="#d9dbdc"/><stop offset=".499" stop-color="#dcdfdf"/><stop offset=".677" stop-color="#fff"/><stop offset=".971" stop-color="#c5c7c6"/><stop offset="1" stop-color="#c5c7c6"/></linearGradient><linearGradient x1=".292" y1="-.05" x2=".949" y2="-.086" gradientUnits="userSpaceOnUse" gradientTransform="scale(36.36778 -36.36778) rotate(-68.481 -1.174 -5.63)" id="o"><stop offset="0" stop-color="#dcd9d4"/><stop offset=".019" stop-color="#dedcd7"/><stop offset=".402" stop-color="#c7d2d5"/><stop offset=".882" stop-color="#fbfbfa"/><stop offset="1" stop-color="#a7a093"/></linearGradient><linearGradient x2="1" gradientUnits="userSpaceOnUse" gradientTransform="scale(37.65896) rotate(-88.059 4.182 .033)" id="p"><stop offset="0" stop-color="#888c8f"/><stop offset=".062" stop-color="#888c8f"/><stop offset=".677" stop-color="#fff"/><stop offset=".971" stop-color="#c5c7c6"/><stop offset="1" stop-color="#c5c7c6"/></linearGradient><linearGradient x1="-.006" y1=".936" x2="1.249" y2="-.572" gradientUnits="userSpaceOnUse" gradientTransform="rotate(-88.059 163.826 7.503) scale(35.6457)" id="q"><stop offset="0" stop-color="#636869"/><stop offset=".119" stop-color="#a4a8aa"/><stop offset=".177" stop-color="#c6c9ca"/><stop offset=".265" stop-color="#b7babb"/><stop offset=".501" stop-color="#d8d8d8"/><stop offset=".642" stop-color="#cfd0d0"/><stop offset=".73" stop-color="#c9d9d9"/><stop offset=".84" stop-color="#cbcccc"/><stop offset=".971" stop-color="#dadbdb"/><stop offset="1" stop-color="#dbdddc"/></linearGradient><linearGradient xlink:href="#p" id="s" gradientUnits="userSpaceOnUse" gradientTransform="matrix(.3901 -6.50989 6.50989 .3901 -65.642 -63.9)" x2="1"/><linearGradient xlink:href="#q" id="t" gradientUnits="userSpaceOnUse" gradientTransform="scale(6.17292) rotate(-86.571 -10.635 .65)" x1="-.006" y1=".936" x2="1.249" y2="-.572"/><linearGradient xlink:href="#m" id="u" gradientUnits="userSpaceOnUse" gradientTransform="scale(-4.42028 4.42028) rotate(19.997 49.433 33.387)" x2="1"/><linearGradient xlink:href="#n" id="v" gradientUnits="userSpaceOnUse" gradientTransform="scale(12.01927) rotate(-70.454 -6.243 1.489)" x1=".204" y1=".178" x2=".988" y2="-.108"/></defs><g transform="translate(72 72)"><rect style="isolation:auto;mix-blend-mode:normal;marker:none" width="16" height="14" x="-72" y="-71" ry="0" color="#000" display="block" overflow="visible" fill="url(#r)" paint-order="fill markers stroke"/><path style="line-height:normal;font-variant-ligatures:normal;font-variant-position:normal;font-variant-caps:normal;font-variant-numeric:normal;font-variant-alternates:normal;font-feature-settings:normal;text-indent:0;text-align:start;text-decoration-line:none;text-decoration-style:solid;text-decoration-color:#000;text-transform:none;text-orientation:mixed;shape-padding:0;isolation:auto;mix-blend-mode:normal;marker:none" d="M-72-70.5v1.195h1V-70h.26v-1H-72zm2.009.5h.5-.046.5v-1h-.5.046-.5zm5.25 0h2v-1h-2zm3 0h3v-1h-3zm4 0H-57v1.26h1V-71h-1.74zm.741 2.76v1.5h1v-2h-1zm-15 1.48v1.5h1v-2h-1zm0 3v2.5h1v-3h-1zm15 3.52V-58h-.009v1H-56v-2.74h-1zm-15 .48V-57h1.74v-1H-71v-1.26h-1zm2.74 1.76H-67.694v-1H-69.26zm2.251 0h1.064v-1h-1.064zm8 0H-57.986v-1H-59.009z" color="#000" font-weight="400" font-family="sans-serif" white-space="normal" overflow="visible" fill="#b2bdc9" paint-order="markers stroke fill"/><path d="M-60.891-63.007c-.516-.113-1.543-.507-1.925-.872-.107-.102-.468-.712-.468-.712L-72-68.743l1.09 1.486s.441.694.87.954c.42.254 1.544.877 1.544.877l9.31 4.745-1.02-2.324s-.518.034-.685-.002" fill="url(#s)"/><path d="M-68.456-65.504a70.87 70.87 0 0 1-1.539-.874c-.406-.247-.837-.92-.841-.926l-.888-1.21 8.378 3.99c.074.124.365.609.47.708.386.369 1.422.776 1.966.894.145.031.5.016.648.008l.897 2.044-9.091-4.634" fill="url(#t)"/><path d="M-57.145-61.138c-.632.6-1.634.571-2.238-.065a1.583 1.583 0 0 1 .051-2.24 1.583 1.583 0 0 1 2.239.066 1.583 1.583 0 0 1-.052 2.239zm-2.51-2.643a2.05 2.05 0 0 0-.065 2.898 2.05 2.05 0 0 0 2.898.085 2.05 2.05 0 0 0 .066-2.899 2.05 2.05 0 0 0-2.898-.084" fill="#6c6a6a"/><path d="M-57.155-61.306c-.633.6-1.635.571-2.239-.065a1.583 1.583 0 0 1 .051-2.239 1.583 1.583 0 0 1 2.239.065 1.583 1.583 0 0 1-.051 2.24zm-2.648-2.788a2.25 2.25 0 0 0-.072 3.18 2.25 2.25 0 0 0 3.18.093 2.25 2.25 0 0 0 .072-3.18 2.249 2.249 0 0 0-3.18-.093" fill="#fff"/><path d="M-62.709-60.841c-.116-.515-.518-1.54-.886-1.918-.104-.107-.716-.463-.716-.463l-4.22-8.683 1.494 1.078s.698.436.96.863c.259.417.89 1.537.89 1.537l4.818 9.272-2.332-1.002s.03-.517-.008-.684" fill="url(#u)"/><path d="M-62.61-60.213c.007-.148.02-.504-.013-.648-.123-.543-.538-1.576-.91-1.96-.1-.103-.587-.39-.71-.463l-4.057-8.347 1.212.875c.012.008.688.433.938.838.253.41.88 1.523.887 1.534l4.704 9.052-2.051-.881" fill="url(#v)"/><path d="M-63.049-57.04c-.64-.6-.678-1.602-.082-2.24a1.584 1.584 0 0 1 2.238-.068c.641.6.679 1.602.083 2.239a1.583 1.583 0 0 1-2.239.068zm-.317.339a2.05 2.05 0 0 0 2.898-.089 2.05 2.05 0 0 0-.107-2.897 2.05 2.05 0 0 0-2.898.089 2.05 2.05 0 0 0 .107 2.897" fill="#6c6a6a"/><path d="M-63.216-57.05a1.583 1.583 0 0 1-.083-2.238 1.584 1.584 0 0 1 2.238-.07c.642.6.678 1.602.083 2.239a1.583 1.583 0 0 1-2.238.069zm-.422.451a2.204 2.204 0 0 0 3.115-.095 2.204 2.204 0 0 0-.115-3.115 2.203 2.203 0 0 0-3.115.096 2.203 2.203 0 0 0 .115 3.114" fill="#fff"/></g></svg>