<svg xmlns="http://www.w3.org/2000/svg" xmlns:xlink="http://www.w3.org/1999/xlink" height="16" viewBox="0 0 16 16" width="16"><title>Template icons dark</title><defs><linearGradient id="d"><stop offset="0" stop-color="#d4d4d4"/><stop offset="1" stop-color="#fbfbfb"/></linearGradient><linearGradient id="a"><stop offset="0" stop-color="#9a9a9a" stop-opacity=".973"/><stop offset="1" stop-color="#f4f4f4"/></linearGradient><linearGradient id="b"><stop offset="0" stop-color="#825cf4"/><stop offset="1" stop-color="#3958ef"/></linearGradient><linearGradient gradientTransform="matrix(.33333 0 0 .32143 -72 -73.243)" xlink:href="#b" id="e" x1="23.375" y1="41.2" x2="23.375" y2="13.95" gradientUnits="userSpaceOnUse"/><linearGradient id="c"><stop offset="0" stop-color="#eaf2f7"/><stop offset="1" stop-color="#99b4c0"/></linearGradient></defs><g color="#000" transform="translate(72 72)"><rect style="isolation:auto;mix-blend-mode:normal;marker:none" width="16" height="11" x="-72" y="-70" rx="0" ry="0" overflow="visible" fill="#fff"/><rect ry="0" y="-69" x="-71" height="9" width="14" style="isolation:auto;mix-blend-mode:normal;marker:none" overflow="visible" fill="url(#e)"/><path d="M-64.473-69.06c-.076 0-.12.062-.138.131l-.291 1.071a3.423 3.423 0 0 0-.648.268l-.964-.555c-.063-.036-.136-.049-.19.005l-.79.79c-.053.053-.04.125-.005.188l.546.954a3.46 3.46 0 0 0-.284.663l-1.054.284c-.07.018-.13.061-.13.138v1.116c0 .076.06.118.13.137l1.03.28c.07.244.165.478.285.7l-.531.924c-.036.063-.049.136.005.19l.79.789c.053.054.125.041.188.005l.912-.522c.226.126.466.226.715.299l.273 1.015c.02.07.062.13.139.13h1.115c.077 0 .119-.06.138-.13l.277-1.016c.245-.073.482-.172.706-.297l.92.53c.064.036.137.048.19-.006l.79-.789c.054-.054.041-.126.005-.19l-.534-.932c.116-.217.208-.447.276-.684l1.05-.284c.07-.018.13-.06.13-.137v-1.116c0-.076-.06-.119-.13-.138l-1.068-.29-.007-.018a3.423 3.423 0 0 0-.263-.632l.555-.963c.036-.063.048-.136-.006-.19l-.789-.789c-.054-.054-.126-.041-.19-.006l-.961.552a3.424 3.424 0 0 0-.649-.27l-.29-1.074c-.018-.07-.06-.13-.137-.13h-1.116zm.552 3.144a1.35 1.35 0 0 1 1.356 1.357 1.35 1.35 0 0 1-1.356 1.356 1.351 1.351 0 0 1-1.357-1.356 1.35 1.35 0 0 1 1.357-1.357z" style="isolation:auto;mix-blend-mode:normal;marker:none" overflow="visible" fill="#fbfbfb" paint-order="fill markers stroke"/></g></svg>