<svg xmlns="http://www.w3.org/2000/svg" xmlns:xlink="http://www.w3.org/1999/xlink" height="16" viewBox="0 0 16 16" width="16"><title>Template icons dark</title><defs><linearGradient id="g"><stop offset="0" stop-color="#1f97cf"/><stop offset="1" stop-color="#50b5e4"/></linearGradient><linearGradient id="f"><stop offset="0" stop-color="#62c8f7"/><stop offset="1" stop-color="#0ca3e8"/></linearGradient><linearGradient id="a"><stop offset="0" stop-color="#7ed6fb"/><stop offset="1" stop-color="#90ddfc"/></linearGradient><linearGradient id="b"><stop offset="0" stop-color="#7ed6fb"/><stop offset="1" stop-color="#8edcfc"/></linearGradient><linearGradient id="c"><stop offset="0" stop-color="#62c8f7"/><stop offset="1" stop-color="#36aaf2"/></linearGradient><linearGradient id="d"><stop offset="0" stop-color="#7ed6fb"/><stop offset="1" stop-color="#8fdcfc"/></linearGradient><linearGradient id="e"><stop offset="0" stop-color="#1581ce"/><stop offset="1" stop-color="#32a9e0"/></linearGradient><linearGradient y2="880.934" x2="165.724" y1="880.934" x1="138.929" gradientTransform="matrix(.25054 0 0 .25054 -105.733 -288.842)" gradientUnits="userSpaceOnUse" id="h" xlink:href="#a"/><linearGradient gradientTransform="matrix(.25054 0 0 .25054 -76.026 -315.684)" gradientUnits="userSpaceOnUse" y2="988.557" x2="56.624" y1="986.071" x1="70.711" id="i" xlink:href="#b"/><linearGradient gradientTransform="matrix(.25054 0 0 .25054 -76.026 -315.684)" gradientUnits="userSpaceOnUse" y2="1008.997" x2="58.281" y1="1009.273" x1="72.644" id="j" xlink:href="#d"/><linearGradient gradientTransform="matrix(.25054 0 0 .25054 -76.026 -315.684)" gradientUnits="userSpaceOnUse" y2="1009.393" x2="40.234" y1="1010.175" x1="23.438" id="k" xlink:href="#d"/></defs><path d="M4.825.968L.185 3.839l3.152 2.602-3.151 2.6 3.152 1.952v1.04l4.65 2.895-.02-5.57v-.001l.023 5.567 4.607-2.891V11.02l3.216-1.993-3.175-2.583-.04.025v-.023l.008-.005-4.639-2.872-4.63 2.872 4.636-2.878-.005.004 4.65 2.877 3.174-2.582L11.13.972l-3.154 2.59z" fill="none" stroke="#000" stroke-width=".217" stroke-opacity=".209"/><path d="M7.968 3.569l4.64 2.872L8 9.33l-4.662-2.89z" fill="#7ed6fb"/><path d="M-71.814-68.16l4.64-2.872 3.15 2.594-4.638 2.879z" fill="url(#h)" transform="translate(72 72)"/><path d="M-64.031-68.433l4.65 2.877 3.174-2.582-4.663-2.89z" fill="url(#i)" transform="translate(72 72)"/><path d="M7.968 3.569v4.928l-4.608 2.89-.022-4.946zM7.968 3.569v4.928l4.608 2.89.022-4.946z" fill="#17739f"/><path d="M12.599 6.44v5.593l-4.608 2.89-.023-5.61z" fill="#27b3f4"/><path d="M-64-62.684l4.64-2.872 3.174 2.583-4.663 2.89z" fill="url(#j)" transform="translate(72 72)"/><path d="M3.338 6.44v5.593l4.651 2.895-.021-5.616z" fill="#1f95e8"/><path d="M-71.814-62.958l4.64 2.871L-64-62.669l-4.662-2.89z" fill="url(#k)" transform="translate(72 72)"/></svg>