<svg xmlns="http://www.w3.org/2000/svg" xmlns:xlink="http://www.w3.org/1999/xlink" height="16" viewBox="0 0 16 16" width="16"><title>Template icons dark</title><defs><linearGradient id="d"><stop offset="0" stop-color="#e6e223" stop-opacity="0"/><stop offset="1" stop-color="#f99500" stop-opacity=".598"/></linearGradient><linearGradient id="c"><stop offset="0" stop-color="#cdcdcd"/><stop offset="1" stop-color="#fff"/></linearGradient><linearGradient id="b"><stop offset="0" stop-color="#fff" stop-opacity=".427"/><stop offset=".423" stop-color="#fafcfe"/><stop offset="1" stop-color="#fff" stop-opacity=".49"/></linearGradient><linearGradient id="a"><stop offset="0" stop-color="#322461"/><stop offset="1" stop-color="#6d2fd8"/></linearGradient><linearGradient xlink:href="#c" id="e" gradientUnits="userSpaceOnUse" gradientTransform="matrix(.17391 0 0 .17391 -75.826 -91.826)" x1="161.772" y1="204" x2="161.772" y2="113"/></defs><g color="#000"><path d="M16 8a8 8 0 0 1-8 8 8 8 0 0 1-8-8 8 8 0 0 1 8-8 8 8 0 0 1 8 8z" style="isolation:auto;mix-blend-mode:normal;marker:none" display="block" overflow="visible" fill="#fff" fill-opacity=".147"/><path d="M1.546 4h12.808l.822 2H.723zM.478 7h14.943v2H.478zM.724 10h14.453l-.823 2H1.546z" style="isolation:auto;mix-blend-mode:normal;marker:none" display="block" overflow="visible" fill="#fff" fill-opacity=".842" paint-order="fill markers stroke"/><path style="line-height:normal;font-variant-ligatures:normal;font-variant-position:normal;font-variant-caps:normal;font-variant-numeric:normal;font-variant-alternates:normal;font-feature-settings:normal;text-indent:0;text-align:start;text-decoration-line:none;text-decoration-style:solid;text-decoration-color:#000;text-transform:none;text-orientation:mixed;shape-padding:0;isolation:auto;mix-blend-mode:normal;marker:none" d="M-48-72c-4.414 0-8 3.586-8 8s3.586 8 8 8 8-3.586 8-8-3.586-8-8-8zm0 .693A7.302 7.302 0 0 1-40.693-64 7.302 7.302 0 0 1-48-56.693 7.302 7.302 0 0 1-55.307-64 7.302 7.302 0 0 1-48-71.307z" font-weight="400" font-family="sans-serif" white-space="normal" overflow="visible" fill="url(#e)" transform="translate(56 72)"/></g></svg>