<svg xmlns="http://www.w3.org/2000/svg" xmlns:xlink="http://www.w3.org/1999/xlink" height="16" viewBox="0 0 16 16" width="16"><title>Template icons dark</title><defs><linearGradient id="d"><stop offset="0" stop-color="#e6e223" stop-opacity="0"/><stop offset="1" stop-color="#f99500" stop-opacity=".598"/></linearGradient><linearGradient id="c"><stop offset="0" stop-color="#cdcdcd"/><stop offset="1" stop-color="#fff"/></linearGradient><linearGradient id="b"><stop offset="0" stop-color="#fff" stop-opacity=".427"/><stop offset=".423" stop-color="#fafcfe"/><stop offset="1" stop-color="#fff" stop-opacity=".49"/></linearGradient><linearGradient id="a"><stop offset="0" stop-color="#322461"/><stop offset="1" stop-color="#6d2fd8"/></linearGradient><linearGradient xlink:href="#a" id="e" x1="37.702" y1="34.889" x2="-2.538" y2="12.087" gradientUnits="userSpaceOnUse" gradientTransform="matrix(.37276 0 0 .37276 -72.387 -73.505)"/><linearGradient xlink:href="#d" id="f" gradientUnits="userSpaceOnUse" gradientTransform="matrix(.37276 0 0 .37276 -72.387 -73.505)" x1="25.908" y1="26.373" x2="3.094" y2="26.373"/><linearGradient gradientTransform="matrix(.16667 0 0 .16667 -90.667 -90.667)" xlink:href="#c" id="g" x1="161.772" y1="204" x2="161.772" y2="113" gradientUnits="userSpaceOnUse"/></defs><g color="#000"><path style="isolation:auto;mix-blend-mode:normal;marker:none" d="M16 8a8 8 0 0 1-8 8 8 8 0 0 1-8-8 8 8 0 0 1 8-8 8 8 0 0 1 8 8z" display="block" overflow="visible" fill-opacity=".058"/><path style="isolation:auto;mix-blend-mode:normal;marker:none" d="M-56.333-64A7.667 7.667 0 0 1-64-56.333 7.667 7.667 0 0 1-71.667-64 7.667 7.667 0 0 1-64-71.667 7.667 7.667 0 0 1-56.333-64z" display="block" overflow="visible" fill="url(#e)" transform="translate(72 72)"/><path d="M-56.333-64A7.667 7.667 0 0 1-64-56.333 7.667 7.667 0 0 1-71.667-64 7.667 7.667 0 0 1-64-71.667 7.667 7.667 0 0 1-56.333-64z" style="isolation:auto;mix-blend-mode:normal;marker:none" overflow="visible" fill="url(#f)" transform="translate(72 72)"/><path style="isolation:auto;mix-blend-mode:normal;marker:none" d="M2 4h12l.77 2H1.23zM1 7h14v2H1zM1.23 10h13.542L14 12H2z" display="block" overflow="visible" fill="#fff" fill-opacity=".842" paint-order="fill markers stroke"/><path style="isolation:auto;mix-blend-mode:normal;marker:none" d="M-56.666-64A7.334 7.334 0 0 1-64-56.666 7.334 7.334 0 0 1-71.334-64 7.334 7.334 0 0 1-64-71.334 7.334 7.334 0 0 1-56.666-64z" overflow="visible" fill="none" stroke="url(#g)" stroke-width=".665" stroke-linejoin="round" transform="translate(72 72)"/></g></svg>