<svg xmlns="http://www.w3.org/2000/svg" xmlns:xlink="http://www.w3.org/1999/xlink" height="16" viewBox="0 0 16 16" width="16"><title>Template icons dark</title><defs><linearGradient id="c"><stop offset="0" stop-color="#efefef" stop-opacity=".478"/><stop offset="1" stop-color="#efefef" stop-opacity="0"/></linearGradient><linearGradient id="b"><stop offset="0" stop-color="#ff053c"/><stop offset="1" stop-color="#0b31ff" stop-opacity=".974"/></linearGradient><linearGradient id="a"><stop offset="0" stop-color="#86dceb"/><stop offset="1" stop-color="#4bb7df"/></linearGradient><linearGradient gradientTransform="translate(-90.964 -90.964) scale(.16852)" xlink:href="#b" id="e" x1="122" y1="183" x2="196" y2="142" gradientUnits="userSpaceOnUse"/><linearGradient xlink:href="#a" id="d" x1="24.535" y1="7.996" x2="24.705" y2="38.25" gradientUnits="userSpaceOnUse" gradientTransform="matrix(.35914 0 0 .35914 -72.649 -73.18)"/></defs><g color="#000" transform="translate(72 72)"><circle style="isolation:auto;mix-blend-mode:normal;marker:none" cx="-64" cy="-64" r="7.501" overflow="visible" fill="url(#d)" stroke="#fff" stroke-width=".999"/><circle r="7.501" cy="-64" cx="-64" style="isolation:auto;mix-blend-mode:normal;marker:none" overflow="visible" opacity=".109" fill="url(#e)" stroke="#fff" stroke-width=".999"/><circle style="isolation:auto;mix-blend-mode:normal;marker:none" cx="-64.007" cy="-64.079" r="1.147" overflow="visible" fill="#fff" paint-order="markers stroke fill"/><path style="isolation:auto;mix-blend-mode:normal;marker:none" d="M-59.739-60.927a5.494 2.766 26.792 0 1-5.365-.62 5.494 2.766 26.792 0 1-3.885-3.918 5.494 2.766 26.792 0 1 2.67-2.099" overflow="visible" fill="none" stroke="#fff" stroke-width=".752" stroke-linecap="round" stroke-miterlimit="3.7" stroke-opacity=".984" paint-order="markers stroke fill"/><path style="isolation:auto;mix-blend-mode:normal;marker:none" d="M-68.91-62.45a5.494 2.766-29.658 0 1 3.417-3.937 5.494 2.766-29.658 0 1 5.232-1.177 5.494 2.766-29.658 0 1 .81 2.986" overflow="visible" fill="none" stroke="#fff" stroke-width=".752" stroke-linecap="round" stroke-miterlimit="3.7" stroke-opacity=".984" paint-order="markers stroke fill"/><path style="isolation:auto;mix-blend-mode:normal;marker:none" d="M-63.077-69.316a2.766 5.494 1.017 0 1 1.874 5.121 2.766 5.494 1.017 0 1-1.895 5.289 2.766 5.494 1.017 0 1-3.083-1.747" overflow="visible" fill="none" stroke="#fff" stroke-width=".752" stroke-linecap="round" stroke-miterlimit="3.7" stroke-opacity=".984" paint-order="markers stroke fill"/></g></svg>