<svg xmlns="http://www.w3.org/2000/svg" height="16" viewBox="0 0 16 16" width="16"><title>Template icons dark</title><defs><linearGradient id="j"><stop offset="0" stop-color="#030303" stop-opacity=".151"/><stop offset="1" stop-color="#030303" stop-opacity=".161"/></linearGradient><linearGradient id="h"><stop offset="0" stop-color="#030303" stop-opacity=".203"/><stop offset="1" stop-color="#030303" stop-opacity=".161"/></linearGradient><linearGradient id="i"><stop offset="0" stop-opacity="0"/><stop offset="1" stop-opacity=".094"/></linearGradient><linearGradient id="g"><stop offset="0" stop-opacity="0"/><stop offset="1" stop-opacity=".052"/></linearGradient><linearGradient id="f"><stop offset="0" stop-color="#e6e6e6"/><stop offset="1" stop-color="#fff"/></linearGradient><linearGradient id="e"><stop offset="0" stop-color="#030303" stop-opacity=".135"/><stop offset=".402" stop-color="#030303" stop-opacity=".25"/><stop offset="1" stop-color="#030303" stop-opacity="0"/></linearGradient><linearGradient id="d"><stop offset="0" stop-opacity=".078"/><stop offset="1" stop-opacity="0"/></linearGradient><linearGradient id="c"><stop offset="0" stop-color="#fff"/><stop offset="1" stop-color="#e7e7e7"/></linearGradient><linearGradient id="b"><stop offset="0" stop-color="#030303" stop-opacity=".078"/><stop offset="1" stop-color="#030303" stop-opacity=".161"/></linearGradient><linearGradient id="a"><stop offset="0" stop-color="#030303" stop-opacity=".182"/><stop offset="1" stop-color="#030303" stop-opacity="0"/></linearGradient></defs><path style="isolation:auto;mix-blend-mode:normal;marker:none" d="M0 2.992h16v10H0z" color="#000" overflow="visible" fill="#f2f2f2" fill-opacity=".688" paint-order="fill markers stroke"/><path style="isolation:auto;mix-blend-mode:normal;marker:none" d="M0 13h16L8 4.992z" color="#000" overflow="visible" fill-opacity=".177" paint-order="fill markers stroke"/><path d="M0 13h16L8 6.992z" style="isolation:auto;mix-blend-mode:normal;marker:none" color="#000" overflow="visible" fill="#fff" fill-opacity=".99" paint-order="fill markers stroke"/><path d="M0 2.992h16L8 11z" style="isolation:auto;mix-blend-mode:normal;marker:none" color="#000" overflow="visible" fill-opacity=".313" paint-order="fill markers stroke"/><path style="isolation:auto;mix-blend-mode:normal;marker:none" d="M0 2.992h16L8 9z" color="#000" overflow="visible" fill="#fff" fill-opacity=".99" paint-order="fill markers stroke"/><path d="M2.727 2.99L0 2.993v1.455l.183-.365V4h2.18zm5.818 0l-2.181.002L6 4h2.18zm5.819 0l-2.182.002L11.818 4h2.18zM16 4l-.98.363-.002 1.356.982-.365zM.983 7.538L0 7.9 0 10.083l.983-.365zM16 8.992l-.98.364-.002 2.182.982-.365zM.545 12.028l-.363.964h2.18l.365-.964zm5.819 0L6 12.992h2.18l.365-.964zm5.818 0l-.364.964h2.18l.366-.964z" opacity=".523" fill="#5477b0" fill-rule="evenodd"/><path d="M5.636 2.99l-2.181.002L3.09 4h2.18zm5.819 0l-2.182.002L8.909 4h2.18zm4.545 0l-.91.002L14.728 4h.908zM.983 4.629L0 4.992 0 7.174l.983-.365zM16 6.083l-.98.364-.002 2.181.982-.365zM.983 10.447L0 10.81 0 12.992l.983-1.147zM16 11.9l-.98-.418-.002.544h.072l-.364.965H16zm-12.546.127l-.364.964h2.182l.363-.964zm5.818 0l-.364.964h2.182l.364-.964z" opacity=".523" fill="#b05457" fill-rule="evenodd"/></svg>