<svg xmlns="http://www.w3.org/2000/svg" xmlns:xlink="http://www.w3.org/1999/xlink" height="16" viewBox="0 0 16 16" width="16"><title>Template icons dark</title><defs><linearGradient id="d"><stop offset="0" stop-color="#fff" stop-opacity=".456"/><stop offset="1" stop-color="#fff" stop-opacity="0"/></linearGradient><linearGradient id="c"><stop offset="0" stop-color="#c7c7c7"/><stop offset="1" stop-color="#fff" stop-opacity=".989"/></linearGradient><linearGradient id="b"><stop offset="0" stop-color="#a61f23"/><stop offset="1" stop-color="#ff4955"/></linearGradient><linearGradient id="a"><stop offset="0" stop-color="#88c1df"/><stop offset="1" stop-color="#f0f5f8"/></linearGradient><linearGradient xlink:href="#a" id="e" x1="170" y1="186" x2="170" y2="118" gradientUnits="userSpaceOnUse" gradientTransform="translate(-92.513 -91.863) scale(.17631)"/><linearGradient xlink:href="#b" id="f" gradientUnits="userSpaceOnUse" gradientTransform="translate(-105.164 -104.845) scale(.25781)" x1="165.921" y1="192" x2="159" y2="147.661"/></defs><g color="#000"><path style="isolation:auto;mix-blend-mode:normal;marker:none" d="M-63.894-71.277a4.598 4.598 0 0 0-4.399 3.265 4.598 4.598 0 0 0-3.777 4.522 4.598 4.598 0 0 0 1.858 3.686 3.483 3.483 0 0 0 2.355.912h7.461c.644 0 1.245-.176 1.763-.478a4.598 4.598 0 0 0 2.563-4.12 4.598 4.598 0 0 0-3.398-4.433 4.598 4.598 0 0 0-4.426-3.354z" overflow="visible" fill="url(#e)" paint-order="markers stroke fill" transform="translate(72 72)"/><path d="M8.133 5.523a.78.78 0 0 0-.598.292L3.84 10.717c-.136.278-.028.555.36.555h2.694l.887 3.613c.012.34.138.617.31.617.171 0 .297-.276.31-.617l.886-3.613H12c.385 0 .385-.525.286-.656l-3.582-4.8a.705.705 0 0 0-.57-.293z" style="isolation:auto;mix-blend-mode:normal;marker:none" overflow="visible" fill-opacity=".324" paint-order="markers stroke fill"/><path style="isolation:auto;mix-blend-mode:normal;marker:none" d="M-63.867-67.904a.78.78 0 0 0-.598.292l-3.696 4.902c-.136.277-.028.555.36.555h2.694l.887 3.613c.012.34.138.616.31.616.171 0 .297-.276.31-.616l.886-3.613H-60c.385 0 .385-.525.286-.656l-3.582-4.8a.705.705 0 0 0-.57-.293z" overflow="visible" fill="url(#f)" paint-order="markers stroke fill" transform="translate(72 72)"/></g></svg>