<svg xmlns="http://www.w3.org/2000/svg" xmlns:xlink="http://www.w3.org/1999/xlink" height="16" viewBox="0 0 16 16" width="16"><title>Template icons dark</title><defs><linearGradient id="j"><stop offset="0" stop-color="#fff" stop-opacity=".194"/><stop offset=".043" stop-color="#fff" stop-opacity=".183"/><stop offset=".11" stop-color="#fff" stop-opacity=".262"/><stop offset=".139" stop-color="#fff" stop-opacity=".12"/><stop offset=".473" stop-color="#fff" stop-opacity=".136"/><stop offset=".517" stop-color="#fff" stop-opacity=".288"/><stop offset=".553" stop-color="#fff" stop-opacity=".173"/><stop offset="1" stop-color="#fff" stop-opacity=".11"/></linearGradient><linearGradient id="f"><stop offset="0" stop-opacity=".529"/><stop offset="1" stop-color="#6a062f" stop-opacity="0"/></linearGradient><linearGradient id="h"><stop offset="0" stop-opacity=".56"/><stop offset="1" stop-color="#6a062f" stop-opacity="0"/></linearGradient><linearGradient id="i"><stop offset="0" stop-opacity=".529"/><stop offset="1" stop-color="#6a062f" stop-opacity="0"/></linearGradient><linearGradient id="g"><stop offset="0" stop-opacity=".445"/><stop offset="1" stop-color="#6a062f" stop-opacity="0"/></linearGradient><linearGradient id="b"><stop offset="0" stop-color="#cfdde2"/><stop offset="1" stop-color="#90a1b1"/></linearGradient><linearGradient id="c"><stop offset="0" stop-color="#eaf2f7"/><stop offset="1" stop-color="#99b4c0"/></linearGradient><linearGradient id="d"><stop offset="0" stop-color="#f95e86"/><stop offset="1" stop-color="#613ef5"/></linearGradient><linearGradient id="a"><stop offset="0" stop-color="#7a0b1c"/><stop offset="1" stop-color="#e82895"/></linearGradient><linearGradient id="e"><stop offset="0" stop-color="#fff" stop-opacity="0"/><stop offset=".48" stop-color="#fff"/><stop offset="1" stop-color="#f5f6f6" stop-opacity="0"/></linearGradient><linearGradient xlink:href="#b" id="k" gradientUnits="userSpaceOnUse" gradientTransform="matrix(.11815 0 0 .11815 -81.3 -80.715)" x1="161.702" y1="118.898" x2="161.702" y2="197.932"/></defs><g color="#000"><path d="M-63.05-67.128c-.09 0-.14.071-.162.154l-.346 1.274a6.64 6.64 0 0 0-.757.312l-1.146-.66c-.074-.043-.16-.057-.224.006l-.933.933c-.063.063-.048.148-.006.223l.644 1.126a4.091 4.091 0 0 0-.335.784l-1.245.335c-.082.022-.154.073-.154.163v1.319c0 .09.072.14.154.162l1.218.332c.081.287.194.564.336.826l-.628 1.092c-.043.074-.057.16.006.224l.933.932c.063.064.149.049.223.007l1.077-.617c.267.148.55.267.845.352l.323 1.2c.022.083.073.154.163.154h1.319c.09 0 .14-.071.162-.154l.327-1.2c.29-.086.57-.204.834-.351l1.089.626c.074.042.16.057.224-.007l.932-.932c.064-.064.05-.15.007-.224l-.632-1.102c.137-.257.247-.528.326-.808l1.242-.335c.082-.023.154-.072.154-.163v-1.318c0-.09-.072-.14-.154-.163l-1.263-.343a4.091 4.091 0 0 0-.321-.764l.658-1.142c.042-.074.057-.16-.007-.224l-.932-.933c-.064-.063-.15-.049-.224-.006l-1.145.656c-.253-.104-.517-.232-.753-.308l-.347-1.284c-.023-.083-.072-.154-.163-.154h-1.318zm.654 3.377a1.945 1.945 0 1 1 0 3.89 1.945 1.945 0 0 1 0-3.89z" style="isolation:auto;mix-blend-mode:normal;marker:none" overflow="visible" fill="url(#k)" paint-order="fill markers stroke" transform="translate(72 72)"/><path style="isolation:auto;mix-blend-mode:normal;marker:none" d="M2 2v14h3v-6h3V7H5V5h5l.07-3z" overflow="visible" fill-opacity=".372" fill-rule="evenodd" paint-order="markers fill stroke"/><path d="M1 1v14h3V9h3V6H4V4h5l.07-3z" style="isolation:auto;mix-blend-mode:normal;marker:none" overflow="visible" fill="#f00e55" fill-rule="evenodd" paint-order="markers fill stroke"/></g></svg>