<svg xmlns="http://www.w3.org/2000/svg" width="16" viewBox="0 0 16 16" height="16"><title>Template icons dark</title><defs><linearGradient id="b"><stop offset="0" stop-color="#d6c8ee"/><stop offset="1" stop-color="#aad1f7"/></linearGradient><linearGradient id="a"><stop offset="0" stop-color="#5d8afc"/><stop offset="1" stop-color="#aa88d1"/></linearGradient><radialGradient gradientTransform="matrix(.06522 -.0039 .00381 .06372 -97.9 -56.391)" gradientUnits="userSpaceOnUse" id="c" r="776.623" fy="3474.059" fx="3838.903" cy="3474.059" cx="3838.903"><stop offset="0%" stop-color="#444367"/><stop offset="44.511%" stop-color="#29253B"/><stop offset="1" stop-color="#1f2032"/></radialGradient><radialGradient gradientTransform="matrix(.06522 -.0039 .00381 .06372 -97.9 -56.391)" gradientUnits="userSpaceOnUse" id="d" r="776.623" fy="3474.059" fx="3838.903" cy="3474.059" cx="3838.903"><stop offset="0%" stop-color="#444367"/><stop offset="44.511%" stop-color="#29253B"/><stop offset="1" stop-color="#1f2032"/></radialGradient><radialGradient gradientTransform="matrix(.06522 -.0039 .00381 .06372 -97.9 -56.391)" gradientUnits="userSpaceOnUse" id="e" r="776.623" fy="3474.059" fx="3838.903" cy="3474.059" cx="3838.903"><stop offset="0%" stop-color="#444367"/><stop offset="44.511%" stop-color="#29253B"/><stop offset="1" stop-color="#1f2032"/></radialGradient><radialGradient gradientTransform="matrix(.06522 -.0039 .00381 .06372 -97.9 -56.391)" gradientUnits="userSpaceOnUse" id="f" r="776.623" fy="3474.059" fx="3838.903" cy="3474.059" cx="3838.903"><stop offset="0%" stop-color="#444367"/><stop offset="44.511%" stop-color="#29253B"/><stop offset="1" stop-color="#1f2032"/></radialGradient><radialGradient gradientTransform="matrix(.06522 -.0039 .00381 .06372 -97.9 -56.391)" gradientUnits="userSpaceOnUse" id="g" r="776.623" fy="3474.059" fx="3838.903" cy="3474.059" cx="3838.903"><stop offset="0%" stop-color="#444367"/><stop offset="44.511%" stop-color="#29253B"/><stop offset="1" stop-color="#1f2032"/></radialGradient></defs><g font-weight="400"><path style="line-height:normal;font-variant-ligatures:normal;font-variant-position:normal;font-variant-caps:normal;font-variant-numeric:normal;font-variant-alternates:normal;font-feature-settings:normal;text-indent:0;text-align:start;text-decoration-line:none;text-decoration-style:solid;text-decoration-color:#000;text-transform:none;text-orientation:mixed;shape-padding:0;isolation:auto;mix-blend-mode:normal;marker:none" d="M8.002 0c-.232 0-.392.07-.63.164a11.68 11.68 0 0 0-.84.377c-.636.31-1.405.728-2.163 1.166-.758.438-1.505.894-2.092 1.29-.293.197-.545.378-.746.538-.2.16-.34.264-.457.465-.116.2-.135.374-.174.627-.038.253-.07.565-.093.918C.758 6.25.734 7.125.734 8s.024 1.75.073 2.455c.024.353.055.663.093.916.039.254.058.428.174.629.116.2.257.305.457.465.2.16.453.34.746.537.587.395 1.334.853 2.092 1.291.758.438 1.527.853 2.162 1.164.318.155.602.285.84.379.239.094.399.164.631.164.232 0 .392-.07.63-.164.24-.094.523-.224.84-.379.636-.31 1.405-.726 2.163-1.164a37.525 37.525 0 0 0 2.09-1.291c.293-.197.547-.377.748-.537.2-.16.34-.264.457-.465.116-.2.135-.375.174-.629.038-.253.067-.563.091-.916.049-.706.073-1.58.073-2.455s-.024-1.75-.073-2.455a11.83 11.83 0 0 0-.091-.918c-.039-.253-.058-.426-.174-.627-.116-.2-.257-.305-.457-.465-.2-.16-.455-.341-.748-.539a37.573 37.573 0 0 0-2.09-1.289A37.616 37.616 0 0 0 9.473.541a11.68 11.68 0 0 0-.84-.377C8.394.07 8.233 0 8.002 0zm0 .795c-.042 0 .134.028.34.11.206.08.476.201.781.35.611.3 1.368.71 2.113 1.14.746.43 1.48.882 2.045 1.261.282.19.522.362.696.5.173.138.286.277.265.24-.02-.036.041.131.074.35.033.219.063.514.086.854.047.678.07 1.54.07 2.4 0 .86-.023 1.722-.07 2.4-.023.34-.053.635-.086.854-.033.219-.095.384-.074.348.021-.037-.092.102-.265.24-.174.138-.414.312-.696.502-.564.38-1.3.83-2.045 1.26-.745.43-1.502.841-2.113 1.14-.305.15-.575.27-.781.352-.206.08-.382.11-.34.11.042 0-.136-.03-.342-.11-.206-.081-.474-.202-.78-.352-.61-.299-1.369-.71-2.114-1.14-.746-.43-1.48-.88-2.045-1.26-.282-.19-.523-.364-.696-.502-.173-.138-.284-.277-.263-.24.02.036-.043-.13-.076-.348A11.157 11.157 0 0 1 1.6 10.4c-.047-.678-.07-1.54-.07-2.4 0-.86.023-1.722.07-2.4.023-.34.053-.635.086-.854.033-.219.097-.386.076-.35-.021.037.09-.102.263-.24.173-.138.414-.31.696-.5.564-.38 1.3-.831 2.045-1.261.745-.43 1.504-.84 2.115-1.14.305-.149.573-.27.78-.35.205-.082.383-.11.341-.11z" color="#000" font-family="sans-serif" white-space="normal" overflow="visible" opacity=".9" fill="#fff"/><path d="M10.289 10.845V8.561h-1.88v-.945h3.019v3.65q-.667.474-1.47.719-.803.239-1.714.239-1.994 0-3.122-1.162Q4 9.894 4 7.815 4 5.73 5.122 4.568 6.25 3.4 8.244 3.4q.831 0 1.577.205.752.205 1.385.604v1.225q-.638-.541-1.356-.815-.718-.273-1.51-.273-1.56 0-2.347.871-.78.872-.78 2.598 0 1.72.78 2.592.787.871 2.347.871.61 0 1.088-.102.479-.108.86-.33z" style="line-height:1000%;-inkscape-font-specification:orya" font-family="orya" letter-spacing="0" word-spacing="0" fill="#fdfdfe"/></g></svg>