<svg xmlns="http://www.w3.org/2000/svg" xmlns:xlink="http://www.w3.org/1999/xlink" width="16" viewBox="0 0 16 16" height="16"><title>Template icons dark</title><defs><linearGradient id="b"><stop offset="0" stop-color="#d6c8ee"/><stop offset="1" stop-color="#aad1f7"/></linearGradient><linearGradient id="a"><stop offset="0" stop-color="#5d8afc"/><stop offset="1" stop-color="#aa88d1"/></linearGradient><linearGradient gradientTransform="translate(-91.991 -92.078) scale(.17532)" xlink:href="#a" id="h" x1="188.825" y1="190.844" x2="130.018" y2="127.876" gradientUnits="userSpaceOnUse"/><radialGradient gradientTransform="matrix(.06522 -.0039 .00381 .06372 -97.9 -56.391)" gradientUnits="userSpaceOnUse" id="c" r="776.623" fy="3474.059" fx="3838.903" cy="3474.059" cx="3838.903"><stop offset="0%" stop-color="#444367"/><stop offset="44.511%" stop-color="#29253B"/><stop offset="1" stop-color="#1f2032"/></radialGradient><radialGradient gradientTransform="matrix(.06522 -.0039 .00381 .06372 -97.9 -56.391)" gradientUnits="userSpaceOnUse" id="d" r="776.623" fy="3474.059" fx="3838.903" cy="3474.059" cx="3838.903"><stop offset="0%" stop-color="#444367"/><stop offset="44.511%" stop-color="#29253B"/><stop offset="1" stop-color="#1f2032"/></radialGradient><radialGradient gradientTransform="matrix(.06522 -.0039 .00381 .06372 -97.9 -56.391)" gradientUnits="userSpaceOnUse" id="e" r="776.623" fy="3474.059" fx="3838.903" cy="3474.059" cx="3838.903"><stop offset="0%" stop-color="#444367"/><stop offset="44.511%" stop-color="#29253B"/><stop offset="1" stop-color="#1f2032"/></radialGradient><radialGradient gradientTransform="matrix(.06522 -.0039 .00381 .06372 -97.9 -56.391)" gradientUnits="userSpaceOnUse" id="f" r="776.623" fy="3474.059" fx="3838.903" cy="3474.059" cx="3838.903"><stop offset="0%" stop-color="#444367"/><stop offset="44.511%" stop-color="#29253B"/><stop offset="1" stop-color="#1f2032"/></radialGradient><radialGradient gradientTransform="matrix(.06522 -.0039 .00381 .06372 -97.9 -56.391)" gradientUnits="userSpaceOnUse" id="g" r="776.623" fy="3474.059" fx="3838.903" cy="3474.059" cx="3838.903"><stop offset="0%" stop-color="#444367"/><stop offset="44.511%" stop-color="#29253B"/><stop offset="1" stop-color="#1f2032"/></radialGradient></defs><path style="isolation:auto;mix-blend-mode:normal;marker:none" d="M-63.999-56.398c-.76 0-6.203-3.143-6.584-3.801-.38-.658-.38-6.944 0-7.603.38-.658 5.824-3.8 6.584-3.8.76 0 6.204 3.142 6.584 3.8.38.659.38 6.945 0 7.603-.38.658-5.823 3.801-6.584 3.801z" color="#000" overflow="visible" fill="#2f2e47" stroke="url(#h)" stroke-width=".795" transform="translate(72 72)"/><path style="line-height:1000%;-inkscape-font-specification:orya" d="M10.289 10.845V8.561h-1.88v-.945h3.019v3.65q-.667.474-1.47.719-.803.239-1.714.239-1.994 0-3.122-1.162Q4 9.894 4 7.815 4 5.73 5.122 4.568 6.25 3.4 8.244 3.4q.831 0 1.577.205.752.205 1.385.604v1.225q-.638-.541-1.356-.815-.718-.273-1.51-.273-1.56 0-2.347.871-.78.872-.78 2.598 0 1.72.78 2.592.787.871 2.347.871.61 0 1.088-.102.479-.108.86-.33z" font-weight="400" font-family="orya" letter-spacing="0" word-spacing="0" fill="#cacaf0"/></svg>