<svg xmlns="http://www.w3.org/2000/svg" height="16" viewBox="0 0 16 16" width="16"><title>Template icons dark</title><defs><linearGradient id="a"><stop offset="0" stop-color="#4ceb78"/><stop offset="1" stop-color="#2ec43e"/></linearGradient><linearGradient id="b"><stop offset="0" stop-color="#e12850"/><stop offset="1" stop-color="#ff2e62"/></linearGradient><linearGradient id="c"><stop offset="0" stop-color="#ffa300"/><stop offset="1" stop-color="#ffcf46"/></linearGradient></defs><g fill-rule="evenodd"><path d="M15.209 4.537L7.896 5.71c.025.005.055.002.079.008a2.291 2.291 0 0 1 2.29 2.29c0 .66-.3 1.267-.761 1.704l-1.92 6.268c.139.007.274.021.416.021a8 8 0 0 0 8-8 7.959 7.959 0 0 0-.791-3.463zM6.102 15.752c.127.033.253.07.384.096-.13-.026-.256-.065-.384-.096zm.642.137z" fill="#ffc130"/><path d="M8 0a7.977 7.977 0 0 0-6.373 3.176l4.398 6.033c.013.021.032.038.045.059a2.262 2.262 0 0 1-.386-1.26 2.29 2.29 0 0 1 2.11-2.283l7.444-1.192a8.218 8.218 0 0 0-1.013-1.627C12.758 1.114 10.497 0 8 0zM1.096 3.967c-.003.004-.006.007-.008.012l.002.002c.002-.005.003-.01.006-.014z" fill="#ef2b58"/><path d="M1.625 3.172a8.203 8.203 0 0 0-.53.795l-.005.013a7.812 7.812 0 0 0-.422.825 7.986 7.986 0 0 0 .217 6.851 7.993 7.993 0 0 0 6.697 4.332l1.922-6.277a2.294 2.294 0 0 1-.485.336 2.285 2.285 0 0 1-2.949-.78c-.013-.02-.032-.037-.045-.058L1.627 3.176z" style="isolation:auto;mix-blend-mode:normal" color="#000" overflow="visible" fill="#3cd65a"/></g></svg>