<svg xmlns="http://www.w3.org/2000/svg" xmlns:xlink="http://www.w3.org/1999/xlink" height="16" viewBox="0 0 16 16" width="16"><title>Template icons dark</title><defs><linearGradient id="j"><stop offset="0" stop-color="#fff" stop-opacity=".852"/><stop offset="1" stop-color="#fff" stop-opacity="0"/></linearGradient><linearGradient id="i"><stop offset="0" stop-color="#fff" stop-opacity=".56"/><stop offset="1" stop-color="#fff" stop-opacity="0"/></linearGradient><linearGradient id="h"><stop offset="0" stop-color="#28263e"/><stop offset="1" stop-color="#494b5a"/></linearGradient><linearGradient id="g"><stop offset="0" stop-color="#4abecb"/><stop offset=".505" stop-color="#60d9b6" stop-opacity=".989"/><stop offset="1" stop-color="#dff48b" stop-opacity=".973"/></linearGradient><linearGradient id="f"><stop offset="0" stop-color="#2aa591"/><stop offset="1" stop-color="#2498e4"/></linearGradient><linearGradient id="a"><stop offset="0" stop-color="#2a0ff3" stop-opacity=".132"/><stop offset=".521" stop-color="#3bf963" stop-opacity=".291"/><stop offset="1" stop-color="#ef4cff" stop-opacity=".297"/></linearGradient><linearGradient id="b"><stop offset="0" stop-color="#fff"/><stop offset="1" stop-color="#fff" stop-opacity="0"/></linearGradient><linearGradient id="c"><stop offset="0"/><stop offset="1" stop-opacity="0"/></linearGradient><linearGradient id="d"><stop offset="0" stop-color="#babdb6"/><stop offset="1" stop-color="#fff"/></linearGradient><linearGradient id="e"><stop offset="0" stop-color="#888a85"/><stop offset="1" stop-color="#555753"/></linearGradient><linearGradient xlink:href="#g" id="l" x1="167.206" y1="193.417" x2="165.746" y2="132.007" gradientUnits="userSpaceOnUse" gradientTransform="scale(.1669) rotate(-45 -762.808 545.248)"/><linearGradient gradientTransform="rotate(-45 -131.716 101.724) scale(.20622)" xlink:href="#h" id="k" x1="153.065" y1="190.903" x2="153.065" y2="125.679" gradientUnits="userSpaceOnUse"/></defs><g color="#000"><path style="isolation:auto;mix-blend-mode:normal;marker:none" d="M11.724 1.495l4.05 7.016-3.883 6.725H4.126L.243 8.51l4.082-7.016z" display="block" overflow="visible" fill="none" stroke="#000" stroke-width=".406" stroke-opacity=".33" paint-order="fill markers stroke"/><path style="isolation:auto;mix-blend-mode:normal;marker:none" d="M-60.276-70.505l4.05 7.016-3.883 6.725h-7.765l-3.883-6.725 4.082-7.016z" display="block" overflow="visible" fill="url(#k)" paint-order="fill markers stroke" transform="translate(72 72)"/><path style="isolation:auto;mix-blend-mode:normal;marker:none" d="M.389 6.465L.76 3.737a.343.343 0 0 1 .387-.295l2.729.372c.189.026.294.388.1.535l-3.1 2.363c-.194.14-.514-.058-.488-.247z" display="block" overflow="visible" fill-opacity=".297" paint-order="fill markers stroke"/><path d="M-67.231-69.1l-3.045 5.61 3.142 5.443h6.285l3.142-5.442-3.068-5.61zm1.492 2.713h3.35l1.674 2.9-1.675 2.901h-3.35l-1.674-2.9z" style="isolation:auto;mix-blend-mode:normal;marker:none" display="block" overflow="visible" fill="url(#l)" paint-order="fill markers stroke" transform="translate(72 72)"/><path d="M.345 6.124l.373-2.729a.343.343 0 0 1 .387-.294l2.729.372c.189.026.294.387.1.535L.833 6.37C.64 6.51.32 6.313.345 6.124z" style="isolation:auto;mix-blend-mode:normal;marker:none" display="block" overflow="visible" fill="#d0ec8c" paint-order="fill markers stroke"/><path d="M3.97 12.618l-2.746.51a.348.348 0 0 1-.407-.28l-.51-2.745c-.035-.19.28-.407.483-.267l3.262 2.234c.197.141.107.513-.083.548z" style="isolation:auto;mix-blend-mode:normal;marker:none" display="block" overflow="visible" fill-opacity=".379" paint-order="fill markers stroke"/><path style="isolation:auto;mix-blend-mode:normal;marker:none" d="M3.975 12.265l-2.745.51a.348.348 0 0 1-.407-.28l-.51-2.746c-.035-.19.28-.406.483-.267l3.262 2.235c.197.14.107.512-.083.548z" display="block" overflow="visible" fill="#7bddab" paint-order="fill markers stroke"/><path d="M10.738 14.237l-2.43 1.668a.368.368 0 0 1-.513-.095l-1.668-2.43c-.115-.169.095-.513.352-.465l4.104.758c.25.052.324.449.155.564z" style="isolation:auto;mix-blend-mode:normal;marker:none" display="block" overflow="visible" fill-opacity=".593" paint-order="fill markers stroke"/><path style="isolation:auto;mix-blend-mode:normal;marker:none" d="M10.834 13.723l-2.43 1.668a.368.368 0 0 1-.513-.095l-1.668-2.431c-.116-.168.095-.512.351-.465l4.105.759c.25.051.323.448.155.564z" display="block" overflow="visible" fill="#f0f7f8" paint-order="fill markers stroke"/><path style="isolation:auto;mix-blend-mode:normal;marker:none" d="M6.09 1.672L8.289.403A.316.316 0 0 1 8.72.52L9.99 2.716c.088.152-.116.433-.332.375l-3.471-.925c-.211-.061-.247-.407-.095-.494z" display="block" overflow="visible" fill-opacity=".264" paint-order="fill markers stroke"/><path d="M5.963 1.45L8.16.182a.316.316 0 0 1 .433.116l1.269 2.197c.088.152-.116.433-.333.375l-3.47-.925c-.212-.061-.248-.407-.096-.495z" style="isolation:auto;mix-blend-mode:normal;marker:none" display="block" overflow="visible" fill="#b6e895" paint-order="fill markers stroke"/><path d="M12.154 3.126l3.06 1.767a.44.44 0 0 1 .162.604l-1.767 3.06c-.122.213-.604.162-.684-.14l-1.302-4.832c-.073-.297.319-.581.53-.459z" style="isolation:auto;mix-blend-mode:normal;marker:none" display="block" overflow="visible" fill-opacity=".511" paint-order="fill markers stroke"/><path style="isolation:auto;mix-blend-mode:normal;marker:none" d="M12.53 1.95l3.06 1.768a.44.44 0 0 1 .163.603l-1.768 3.061c-.122.212-.603.162-.684-.14L12 2.41c-.073-.298.318-.582.53-.46z" display="block" overflow="visible" fill="#60d7b5" paint-order="fill markers stroke"/><path style="isolation:auto;mix-blend-mode:normal;marker:none" d="M9 7.5V9H7V7.5z" display="block" overflow="visible" fill="#bde993" fill-opacity=".956" paint-order="fill markers stroke"/></g></svg>