<svg xmlns="http://www.w3.org/2000/svg" xmlns:xlink="http://www.w3.org/1999/xlink" height="16" viewBox="0 0 16 16" width="16"><title>Template icons dark</title><defs><linearGradient id="A"><stop offset="0" stop-color="#e3ab74"/><stop offset="1" stop-color="#c89e75"/></linearGradient><linearGradient id="N"><stop offset="0" stop-opacity=".291"/><stop offset="1" stop-opacity="0"/></linearGradient><linearGradient id="q"><stop offset="0" stop-color="#6a5033"/><stop offset="1" stop-color="#bb905d"/></linearGradient><linearGradient id="x"><stop offset="0" stop-color="#739eff"/><stop offset="1" stop-color="#98e6f6"/></linearGradient><linearGradient id="r"><stop offset="0" stop-color="#967248" stop-opacity=".325"/><stop offset="1" stop-color="#bb905d"/></linearGradient><linearGradient id="p"><stop offset="0" stop-opacity="0"/><stop offset=".151" stop-opacity="0"/><stop offset=".416" stop-opacity=".319"/><stop offset=".703" stop-opacity=".082"/><stop offset="1" stop-opacity="0"/></linearGradient><linearGradient id="a"><stop offset="0"/><stop offset="1" stop-opacity="0"/></linearGradient><linearGradient id="b"><stop offset="0" stop-color="#fff" stop-opacity="0"/><stop offset=".245" stop-color="#fff"/><stop offset=".774" stop-color="#fff"/><stop offset="1" stop-color="#fff" stop-opacity="0"/></linearGradient><linearGradient id="c"><stop offset="0" stop-color="#fff"/><stop offset="1" stop-color="#fff" stop-opacity="0"/></linearGradient><linearGradient id="d"><stop offset="0" stop-color="#dac197"/><stop offset=".239" stop-color="#c1a581"/><stop offset=".276" stop-color="#dbc298"/><stop offset="1" stop-color="#a68b60"/></linearGradient><linearGradient x1="63.999" y1="3.1" x2="63.999" y2="122.899" id="e" gradientUnits="userSpaceOnUse"><stop offset="0" stop-color="#f6f6f6"/><stop offset="1" stop-color="#d2d2d2"/></linearGradient><linearGradient id="f"><stop offset="0" stop-color="#969696"/><stop offset="1" stop-color="#787878"/></linearGradient><linearGradient id="g"><stop offset="0" stop-color="#fff"/><stop offset="1" stop-color="#959595"/></linearGradient><linearGradient id="h"><stop offset="0" stop-color="#d3d7cf"/><stop offset=".183" stop-color="#babdb6"/><stop offset=".319" stop-color="#fff"/><stop offset=".876" stop-color="#babdb6"/><stop offset="1" stop-color="#eeeeec"/></linearGradient><linearGradient id="i"><stop offset="0" stop-color="#888a85"/><stop offset="1" stop-color="#555753"/></linearGradient><linearGradient id="j"><stop offset="0" stop-color="#babdb6"/><stop offset="1" stop-color="#fff"/></linearGradient><linearGradient id="k"><stop offset="0" stop-color="#edd563"/><stop offset="1" stop-color="#e08223"/></linearGradient><linearGradient id="l"><stop offset="0" stop-color="#bb5e12"/><stop offset="1" stop-color="#cd8033"/></linearGradient><linearGradient id="m"><stop offset="0" stop-color="#695337"/><stop offset="1" stop-color="#695337" stop-opacity="0"/></linearGradient><linearGradient id="n"><stop offset="0" stop-color="#c3a67d"/><stop offset=".239" stop-color="#a17d4f"/><stop offset=".276" stop-color="#bb9b71"/><stop offset="1" stop-color="#836945"/></linearGradient><linearGradient id="o"><stop offset="0" stop-opacity="0"/><stop offset=".5"/><stop offset="1" stop-opacity="0"/></linearGradient><linearGradient id="s"><stop offset="0" stop-color="#fcd9cd"/><stop offset="1" stop-color="#fcd9cd" stop-opacity="0"/></linearGradient><linearGradient id="t"><stop offset="0" stop-color="#ebeec7"/><stop offset="1" stop-color="#ebeec7" stop-opacity="0"/></linearGradient><linearGradient id="u"><stop offset="0" stop-color="#c4ebdd"/><stop offset="1" stop-color="#c4ebdd" stop-opacity="0"/></linearGradient><linearGradient id="v"><stop offset="0" stop-color="#c1cbe4"/><stop offset="1" stop-color="#c1cbe4" stop-opacity="0"/></linearGradient><linearGradient id="w"><stop offset="0" stop-color="#e6cde2"/><stop offset="1" stop-color="#e6cde2" stop-opacity="0"/></linearGradient><linearGradient id="E" y2="32.509" gradientUnits="userSpaceOnUse" x2="21.448" gradientTransform="translate(115.776 107.335) scale(1.3125)" y1="15.5" x1="21.448"><stop offset="0" stop-color="#aaa"/><stop offset="1" stop-color="#d4d4d4"/></linearGradient><linearGradient id="C" y2="14.203" gradientUnits="userSpaceOnUse" x2="35.391" gradientTransform="rotate(90 41.228 142.348) scale(1.5714)" y1="32.416" x1="12.274"><stop offset="0" stop-color="#dedbde"/><stop offset=".5" stop-color="#e6e6e6"/><stop offset="1" stop-color="#d2d2d2"/></linearGradient><linearGradient id="D" y2="45.033" gradientUnits="userSpaceOnUse" x2="-21.916" gradientTransform="translate(182.51 106.64) scale(1.3415)" y1="3" x1="-21.916"><stop offset="0" stop-color="#b4b4b4"/><stop offset="1" stop-color="#969696"/></linearGradient><linearGradient id="y"><stop offset="0" stop-color="#fff5ef"/><stop offset="1" stop-color="#fef8dd"/></linearGradient><linearGradient id="z"><stop offset="0" stop-color="#fff"/><stop offset=".063" stop-color="#fff" stop-opacity=".235"/><stop offset=".951" stop-color="#fff" stop-opacity=".157"/><stop offset="1" stop-color="#fff" stop-opacity=".392"/></linearGradient><linearGradient id="M"><stop offset="0" stop-color="#ff7d7d"/><stop offset=".262" stop-color="#fc6136"/><stop offset=".705" stop-color="#e21d0e"/><stop offset="1" stop-color="#ac1f1f"/></linearGradient><linearGradient id="B"><stop offset="0" stop-color="#ca81c4"/><stop offset="1" stop-color="#ce1748"/></linearGradient><linearGradient id="F" y2="41.181" gradientUnits="userSpaceOnUse" x2="25.208" gradientTransform="matrix(.92308 0 0 .9 134.545 121.35)" y1="28.5" x1="13.63"><stop offset="0" stop-color="#82fa32" stop-opacity=".841"/><stop offset="1" stop-color="#54be35" stop-opacity=".791"/></linearGradient><linearGradient x2="1" gradientUnits="userSpaceOnUse" gradientTransform="scale(37.65896) rotate(-88.059 4.182 .033)" id="G"><stop offset="0" stop-color="#888c8f"/><stop offset=".062" stop-color="#888c8f"/><stop offset=".677" stop-color="#fff"/><stop offset=".971" stop-color="#c5c7c6"/><stop offset="1" stop-color="#c5c7c6"/></linearGradient><linearGradient x1="-.006" y1=".936" x2="1.249" y2="-.572" gradientUnits="userSpaceOnUse" gradientTransform="rotate(-88.059 163.826 7.503) scale(35.6457)" id="H"><stop offset="0" stop-color="#636869"/><stop offset=".119" stop-color="#a4a8aa"/><stop offset=".177" stop-color="#c6c9ca"/><stop offset=".265" stop-color="#b7babb"/><stop offset=".501" stop-color="#d8d8d8"/><stop offset=".642" stop-color="#cfd0d0"/><stop offset=".73" stop-color="#c9d9d9"/><stop offset=".84" stop-color="#cbcccc"/><stop offset=".971" stop-color="#dadbdb"/><stop offset="1" stop-color="#dbdddc"/></linearGradient><linearGradient x1=".297" y1="-.219" x2=".827" y2=".252" gradientUnits="userSpaceOnUse" gradientTransform="scale(36.36815) rotate(18.09 -11.34 17.011)" id="I"><stop offset="0" stop-color="#cdc9c1"/><stop offset=".181" stop-color="#f4f3f1"/><stop offset=".492" stop-color="#b8b8b8"/><stop offset=".931" stop-color="#efeeeb"/><stop offset="1" stop-color="#fff"/></linearGradient><linearGradient x2="1" gradientUnits="userSpaceOnUse" gradientTransform="scale(-25.52501 25.52501) rotate(21.485 -18.377 -13.86)" id="J"><stop offset="0" stop-color="#888c8f"/><stop offset=".062" stop-color="#888c8f"/><stop offset=".677" stop-color="#fff"/><stop offset=".971" stop-color="#c5c7c6"/><stop offset="1" stop-color="#c5c7c6"/></linearGradient><linearGradient x1=".204" y1=".178" x2=".988" y2="-.108" gradientUnits="userSpaceOnUse" gradientTransform="scale(69.4056) rotate(-71.943 2.912 -.084)" id="K"><stop offset="0" stop-color="#a1a5a7"/><stop offset=".052" stop-color="#aeb1b3"/><stop offset=".178" stop-color="#d9dbdc"/><stop offset=".499" stop-color="#dcdfdf"/><stop offset=".677" stop-color="#fff"/><stop offset=".971" stop-color="#c5c7c6"/><stop offset="1" stop-color="#c5c7c6"/></linearGradient><linearGradient x1=".292" y1="-.05" x2=".949" y2="-.086" gradientUnits="userSpaceOnUse" gradientTransform="scale(36.36778 -36.36778) rotate(-68.481 -1.174 -5.63)" id="L"><stop offset="0" stop-color="#dcd9d4"/><stop offset=".019" stop-color="#dedcd7"/><stop offset=".402" stop-color="#c7d2d5"/><stop offset=".882" stop-color="#fbfbfa"/><stop offset="1" stop-color="#a7a093"/></linearGradient><linearGradient gradientTransform="matrix(.16667 0 0 .16667 -90.667 -90.353)" xlink:href="#A" id="af" x1="128.906" y1="195" x2="190.795" y2="153" gradientUnits="userSpaceOnUse"/><linearGradient xlink:href="#p" id="ag" x1="160" y1="166.656" x2="160" y2="196.616" gradientUnits="userSpaceOnUse" gradientTransform="matrix(.16667 0 0 .32813 -90.667 -121.5)"/><linearGradient xlink:href="#C" id="O" gradientUnits="userSpaceOnUse" gradientTransform="rotate(90 41.228 142.348) scale(1.5714)" x1="12.274" y1="32.416" x2="35.391" y2="14.203"/><linearGradient xlink:href="#D" id="P" gradientUnits="userSpaceOnUse" gradientTransform="translate(182.51 106.64) scale(1.3415)" x1="-21.916" y1="3" x2="-21.916" y2="45.033"/><linearGradient xlink:href="#E" id="Q" gradientUnits="userSpaceOnUse" gradientTransform="translate(115.776 107.335) scale(1.3125)" x1="21.448" y1="15.5" x2="21.448" y2="32.509"/><linearGradient xlink:href="#c" id="R" gradientUnits="userSpaceOnUse" gradientTransform="translate(133.133 124.313) scale(.58088)" x1="18.776" y1="4.038" x2="18.203" y2="45.962"/><linearGradient xlink:href="#w" id="S" gradientUnits="userSpaceOnUse" gradientTransform="rotate(1.621 -3694.103 4166.568) scale(1.3333)" x1="20.58" y1="10.775" x2="24.274" y2="9.862" spreadMethod="reflect"/><linearGradient xlink:href="#v" id="T" gradientUnits="userSpaceOnUse" gradientTransform="translate(115.276 106.894) scale(1.3333)" x1="17.495" y1="11.2" x2="21.047" y2="9.796" spreadMethod="reflect"/><linearGradient xlink:href="#u" id="U" gradientUnits="userSpaceOnUse" gradientTransform="translate(115.276 106.894) scale(1.3333)" x1="14.085" y1="13.046" x2="16.994" y2="10.732" spreadMethod="reflect"/><linearGradient xlink:href="#t" id="V" gradientUnits="userSpaceOnUse" gradientTransform="translate(115.276 106.894) scale(1.3333)" x1="12.372" y1="16.188" x2="14.609" y2="13.462" spreadMethod="reflect"/><linearGradient xlink:href="#s" id="W" gradientUnits="userSpaceOnUse" gradientTransform="translate(115.276 106.894) scale(1.3333)" x1="10.609" y1="17.886" x2="9.73" y2="20.613" spreadMethod="reflect"/><linearGradient xlink:href="#c" id="X" gradientUnits="userSpaceOnUse" gradientTransform="translate(114.686 105.371) scale(1.3385)" x1="10.502" y1="3.61" x2="48.799" y2="54.698"/><linearGradient xlink:href="#w" id="Y" gradientUnits="userSpaceOnUse" gradientTransform="rotate(-178.379 90.39 84.629) scale(1.3333)" x1="20.58" y1="10.775" x2="24.274" y2="9.862" spreadMethod="reflect"/><linearGradient xlink:href="#v" id="Z" gradientUnits="userSpaceOnUse" gradientTransform="rotate(180 89.638 85.44) scale(1.3333)" x1="17.495" y1="11.2" x2="21.047" y2="9.796" spreadMethod="reflect"/><linearGradient xlink:href="#u" id="aa" gradientUnits="userSpaceOnUse" gradientTransform="rotate(180 89.638 85.44) scale(1.3333)" x1="14.085" y1="13.046" x2="16.994" y2="10.732" spreadMethod="reflect"/><linearGradient xlink:href="#t" id="ab" gradientUnits="userSpaceOnUse" gradientTransform="rotate(180 89.638 85.44) scale(1.3333)" x1="12.372" y1="16.188" x2="14.609" y2="13.462" spreadMethod="reflect"/><linearGradient xlink:href="#s" id="ac" gradientUnits="userSpaceOnUse" gradientTransform="rotate(180 89.638 85.44) scale(1.3333)" x1="10.609" y1="17.886" x2="9.73" y2="20.613" spreadMethod="reflect"/><linearGradient xlink:href="#x" id="ad" gradientUnits="userSpaceOnUse" gradientTransform="matrix(1.12918 0 0 1.12918 -20.349 -36.224)" x1="211.886" y1="114.474" x2="230.317" y2="77.976"/><radialGradient xlink:href="#N" id="ae" cx="157.114" cy="228.185" fx="157.114" fy="228.185" r="37" gradientTransform="matrix(.22782 0 0 .01399 -100.293 -60.212)" gradientUnits="userSpaceOnUse"/></defs><path d="M174.776 138.835a27.43 27.43 0 0 0-27.5-27.5 27.43 27.43 0 0 0-27.5 27.5 27.43 27.43 0 0 0 27.5 27.5 27.43 27.43 0 0 0 27.5-27.5zm-17 0c0 5.538-4.851 10.5-10.5 10.5-5.76 0-10.5-5.074-10.5-10.5 0-5.537 4.519-10.5 10.5-10.5 5.98 0 10.5 5.073 10.5 10.5z" fill="url(#O)" stroke="url(#P)" transform="matrix(.1777 0 0 .1777 -19.367 -19.08)"/><path d="M147.276 128.335c-5.796 0-10.5 4.704-10.5 10.5s4.704 10.5 10.5 10.5 10.5-4.704 10.5-10.5-4.704-10.5-10.5-10.5zm0 5.25a5.252 5.252 0 0 1 5.25 5.25 5.252 5.252 0 0 1-5.25 5.25 5.252 5.252 0 0 1-5.25-5.25 5.252 5.252 0 0 1 5.25-5.25z" fill="#fff" fill-opacity=".498" stroke="url(#Q)" stroke-linejoin="round" transform="matrix(.1777 0 0 .1777 -19.367 -19.08)"/><path d="M147.276 127.335c-6.374 0-11.5 5.126-11.5 11.5s5.126 11.5 11.5 11.5 11.5-5.126 11.5-11.5-5.126-11.5-11.5-11.5z" opacity=".8" fill="none" stroke="url(#R)" transform="matrix(.1777 0 0 .1777 -19.367 -19.08)"/><path d="M137.117 114.234l5.955 14.324a11.045 11.045 0 0 1 4.525-.83l.125.003.456-15.486c-3.918-.205-7.412.667-11.061 1.99z" opacity=".8" fill="url(#S)" transform="matrix(.1777 0 0 .1777 -19.367 -19.08)"/><path d="M131.437 117.435l9.24 12.48a11.058 11.058 0 0 1 4.191-1.9c.041-.01.08-.02.123-.027l-3.24-15.193c-3.852.748-7.092 2.474-10.314 4.64z" opacity=".8" fill="url(#T)" transform="matrix(.1777 0 0 .1777 -19.367 -19.08)"/><path d="M126.279 122.422l12.284 9.54a11.068 11.068 0 0 1 3.556-2.92c.037-.018.072-.037.11-.057l-7.133-13.757c-3.526 1.72-6.266 4.268-8.817 7.194z" opacity=".8" fill="url(#U)" transform="matrix(.1777 0 0 .1777 -19.367 -19.08)"/><path d="M122.786 128.325c9.566 2.99 10.466 9.374 17.036 2.339l-10.547-11.595c-2.962 2.575-4.782 5.77-6.49 9.256z" opacity=".8" fill="url(#V)" transform="matrix(.1777 0 0 .1777 -19.367 -19.08)"/><path d="M124.816 124.484c-1.578 2.336-2.544 4.849-3.367 7.525l15.118 3.966c.287-1.017.691-2.018 1.292-2.957l.083-.125-13.126-8.41z" opacity=".8" fill="url(#W)" transform="matrix(.1777 0 0 .1777 -19.367 -19.08)"/><path d="M147.276 112.335a26.432 26.432 0 0 0-26.5 26.5 26.432 26.432 0 0 0 26.5 26.5 26.432 26.432 0 0 0 26.5-26.5 26.432 26.432 0 0 0-26.5-26.5z" opacity=".4" fill="none" stroke="url(#X)" transform="matrix(.1777 0 0 .1777 -19.367 -19.08)"/><path d="M157.435 163.541l-5.955-14.324c-1.397.573-2.92.876-4.526.831l-.125-.004-.456 15.486c3.918.206 7.412-.667 11.062-1.99z" opacity=".8" fill="url(#Y)" transform="matrix(.1777 0 0 .1777 -19.367 -19.08)"/><path d="M163.115 160.34l-9.241-12.48a11.058 11.058 0 0 1-4.191 1.9c-.041.01-.08.02-.123.028l3.24 15.192c3.852-.748 7.092-2.474 10.315-4.64z" opacity=".8" fill="url(#Z)" transform="matrix(.1777 0 0 .1777 -19.367 -19.08)"/><path d="M168.273 155.353l-12.285-9.54a11.068 11.068 0 0 1-3.556 2.92l-.11.057 7.133 13.757c3.526-1.72 6.266-4.268 8.818-7.194z" opacity=".8" fill="url(#aa)" transform="matrix(.1777 0 0 .1777 -19.367 -19.08)"/><path d="M171.765 149.45c-9.566-2.99-10.466-9.374-17.035-2.338l10.546 11.594c2.962-2.575 4.782-5.77 6.49-9.256z" opacity=".8" fill="url(#ab)" transform="matrix(.1777 0 0 .1777 -19.367 -19.08)"/><path d="M169.735 153.291c1.578-2.336 2.544-4.849 3.367-7.525l-15.118-3.966c-.287 1.017-.69 2.018-1.292 2.957l-.083.125 13.126 8.41z" opacity=".8" fill="url(#ac)" transform="matrix(.1777 0 0 .1777 -19.367 -19.08)"/><g><path transform="rotate(19.984 36.712 -55.476) scale(.14976)" style="isolation:auto;mix-blend-mode:normal;marker:none" color="#000" display="block" overflow="visible" fill="url(#ad)" stroke="#fff" stroke-width="2.258" paint-order="fill markers stroke" d="M200.173 46.657h40.544v44.812h-40.544z"/></g><path style="isolation:auto;mix-blend-mode:normal;marker:none" d="M-70.667-62.686h13.334v6.166h-13.334z" color="#000" overflow="visible" fill="url(#ae)" paint-order="fill markers stroke" transform="translate(72 72)"/><path style="isolation:auto;mix-blend-mode:normal;marker:none" d="M-70-65.186h12v8h-12z" color="#000" display="block" overflow="visible" fill="url(#af)" paint-order="fill markers stroke" transform="translate(72 72)"/><path d="M-70.01-67.686H-58v10.5h-12.01z" style="isolation:auto;mix-blend-mode:normal;marker:none" color="#000" display="block" overflow="visible" fill="url(#ag)" paint-order="fill markers stroke" transform="translate(72 72)"/><path d="M1.99 6.814H14l1.903 2.666H.086z" style="isolation:auto;mix-blend-mode:normal;marker:none" color="#000" display="block" overflow="visible" fill="#fece96" fill-opacity=".978" paint-order="fill markers stroke"/></svg>