<svg xmlns="http://www.w3.org/2000/svg" xmlns:xlink="http://www.w3.org/1999/xlink" height="16" viewBox="0 0 16 16" width="16"><title>Template icons dark</title><defs><linearGradient id="h"><stop offset="0" stop-color="#2b364a"/><stop offset="1" stop-color="#3a4964"/></linearGradient><linearGradient id="g"><stop offset="0" stop-color="#fff"/><stop offset="1" stop-color="#e1eef4"/></linearGradient><linearGradient id="f"><stop offset="0" stop-color="#fff"/><stop offset="1" stop-color="#dfdfdf" stop-opacity=".984"/></linearGradient><linearGradient id="e"><stop offset="0" stop-color="#009fe8" stop-opacity=".995"/><stop offset="1" stop-color="#0b7ac5" stop-opacity=".995"/></linearGradient><linearGradient id="d"><stop offset="0" stop-color="#d6dee0"/><stop offset="1" stop-color="#fff" stop-opacity=".474"/></linearGradient><linearGradient id="c"><stop offset="0" stop-color="#403d60" stop-opacity=".396"/><stop offset="1" stop-opacity=".073"/></linearGradient><linearGradient id="a"><stop offset="0" stop-color="#c9cfd1"/><stop offset="1" stop-color="#fff"/></linearGradient><linearGradient id="b"><stop offset="0" stop-color="#dce1e8"/><stop offset="1" stop-color="#fff"/></linearGradient><linearGradient xlink:href="#b" id="m" gradientUnits="userSpaceOnUse" gradientTransform="matrix(.40838 0 0 .40838 167.965 25.65)" x1="-578.647" y1="-204.784" x2="-578.647" y2="-214.622"/><linearGradient xlink:href="#f" id="l" x1="180" y1="177" x2="180" y2="183.78" gradientUnits="userSpaceOnUse" gradientTransform="translate(-94.732 -93.571) scale(.18993)"/><linearGradient gradientTransform="translate(-94.732 -93.951) scale(.18993)" xlink:href="#h" id="k" x1="181" y1="140" x2="198" y2="122.126" gradientUnits="userSpaceOnUse"/><linearGradient gradientTransform="translate(-94.732 -93.951) scale(.18993)" xlink:href="#e" id="j" x1="200.559" y1="193" x2="125" y2="123.315" gradientUnits="userSpaceOnUse"/><linearGradient gradientTransform="translate(-94.732 -93.951) scale(.18993)" xlink:href="#g" id="i" x1="133" y1="181" x2="191.252" y2="127" gradientUnits="userSpaceOnUse"/></defs><path style="isolation:auto;mix-blend-mode:normal;marker:none" d="M0 0v16h16v-6l-1-1V6l1-1V0h-6v1H8L6.312 0h-.494z" color="#000" display="block" overflow="visible" fill="#03070a" fill-opacity=".095"/><path style="isolation:auto;mix-blend-mode:normal;marker:none" d="M-70-70h12v12l-12.8.706z" color="#000" display="block" overflow="visible" fill="url(#i)" transform="translate(72 72)"/><path style="isolation:auto;mix-blend-mode:normal;marker:none" d="M-71-71v14h14v-5h-9v-9z" color="#000" overflow="visible" fill="url(#j)" transform="translate(72 72)"/><path style="isolation:auto;mix-blend-mode:normal;marker:none" d="M-61-71l-.04 4.04 4.105-.02L-57-71z" color="#000" display="block" overflow="visible" fill="url(#k)" transform="translate(72 72)"/><path d="M6 1l1 1v7l-1 1z" fill="#6bafdf" fill-rule="evenodd"/><path d="M15 10l-1-1H7l-1 1z" fill="#055fb0" fill-rule="evenodd"/><path style="isolation:auto;mix-blend-mode:normal;marker:none" d="M12 2h2v2h-2z" color="#000" display="block" overflow="visible" fill="#fff" fill-opacity=".542"/><path style="isolation:auto;mix-blend-mode:normal;marker:none" d="M-63.374-60.02h5.66c.115 0 .209.094.209.21v1.594c0 .116-.094.21-.21.21h-5.659a.209.209 0 0 1-.209-.21v-1.594c0-.116.093-.21.21-.21z" color="#000" display="block" overflow="visible" fill="url(#l)" transform="translate(72 72)"/><path style="isolation:auto;mix-blend-mode:normal;marker:none" d="M2.024 1H5v7H2z" color="#000" display="block" overflow="visible" fill="#07113c" fill-opacity=".289"/><path d="M-66.283-59.894a2.153 2.153 0 1 1-4.305 0 2.153 2.153 0 0 1 4.305 0z" fill="url(#m)" transform="translate(72 72)"/><path d="M5.62 12.106a2.055 2.055 0 1 1-4.11 0 2.055 2.055 0 0 1 4.11 0z" fill="none" stroke="#fff" stroke-width=".196" stroke-miterlimit="4.6" stroke-opacity=".237"/></svg>