<svg xmlns="http://www.w3.org/2000/svg" xmlns:xlink="http://www.w3.org/1999/xlink" height="16" viewBox="0 0 16 16" width="16"><title>Template icons dark</title><defs><linearGradient id="g"><stop offset="0" stop-color="#1d6e99"/><stop offset="1" stop-color="#f93000"/></linearGradient><linearGradient id="f"><stop offset="0" stop-color="#492f46" stop-opacity=".71"/><stop offset="1" stop-color="#3c3543" stop-opacity=".368"/></linearGradient><linearGradient id="h"><stop offset="0" stop-opacity=".511"/><stop offset="1" stop-opacity=".269"/></linearGradient><linearGradient id="a"><stop offset="0" stop-color="#313131" stop-opacity=".51"/><stop offset=".6" stop-color="#dfdfdf" stop-opacity=".761"/><stop offset="1" stop-color="#fff"/></linearGradient><linearGradient id="b"><stop offset="0" stop-color="#bcbcbc"/><stop offset="1" stop-color="#fff"/></linearGradient><linearGradient id="c"><stop offset="0" stop-color="#eee"/><stop offset=".413" stop-color="#a2a2a2"/><stop offset=".495" stop-color="#707070"/><stop offset=".53" stop-color="#838383"/><stop offset="1" stop-color="#d2d2d2"/></linearGradient><linearGradient id="d"><stop offset="0" stop-color="#353d5a" stop-opacity=".813"/><stop offset="1" stop-color="#a33284" stop-opacity=".588"/></linearGradient><linearGradient id="e"><stop offset="0" stop-color="#54546a"/><stop offset="1" stop-color="#5a6480"/></linearGradient><linearGradient xlink:href="#c" id="l" x1="43.116" y1="25.526" x2="1.463" y2="25.526" gradientUnits="userSpaceOnUse" gradientTransform="matrix(.3478 0 0 .3478 -71.843 -72.869)"/><linearGradient xlink:href="#d" id="k" gradientUnits="userSpaceOnUse" gradientTransform="matrix(.2953 0 0 .2953 -78.422 -360.451)" x1="50.104" y1="1012.168" x2="73.355" y2="1012.168"/><linearGradient xlink:href="#g" id="j" gradientUnits="userSpaceOnUse" gradientTransform="matrix(.2953 0 0 .2953 -78.424 -360.44)" x1="55.554" y1="1018.555" x2="6.881" y2="979.09"/><linearGradient xlink:href="#e" id="i" gradientUnits="userSpaceOnUse" gradientTransform="matrix(.2953 0 0 .2953 -78.422 -360.451)" x1="49.679" y1="1012.168" x2="28.449" y2="1012.168"/></defs><path d="M7.89.336C5.266.384.687 2.21.687 3.422L.66 8.01c0 3.158 5.2 7.582 7.286 7.655h.064c2.087-.073 7.295-4.497 7.295-7.655l-.046-4.587c0-1.213-4.57-3.04-7.194-3.086H7.89z" fill="none" stroke="#000" stroke-width=".672" stroke-opacity=".115"/><path d="M-64.11-71.678c-2.63.048-7.216 1.877-7.216 3.092l-.028 4.595c0 3.163 5.21 7.596 7.3 7.669h.065c2.09-.073 7.308-4.506 7.308-7.669l-.047-4.595c0-1.216-4.578-3.045-7.207-3.092h-.175z" fill="url(#i)" transform="translate(72 72)"/><path d="M-64.112-71.666c-2.63.047-7.216 1.876-7.216 3.09l-.028 4.596c0 3.164 5.21 7.596 7.3 7.669h.064c2.09-.073 7.308-4.505 7.308-7.669l-.046-4.595c0-1.215-4.578-3.045-7.207-3.091h-.175z" fill="url(#j)" transform="translate(72 72)"/><path d="M7.89.322C5.261.37.674 2.2.674 3.414L.646 8.009c0 1.328.92 2.879 2.139 4.237a14.018 13.175 0 0 1 12.43-9.075c-.528-1.202-4.69-2.805-7.15-2.849H7.89z" fill="#a3eaf1" fill-opacity=".302"/><path style="isolation:auto;mix-blend-mode:normal;marker:none" d="M11.736 3.644c1.995 1.995.175.937.175 3.758 0 2.821 1.82 1.763-.175 3.758s-.936.175-3.757.175c-2.822 0-1.763 1.82-3.758-.175s-.175-.937-.175-3.758c0-2.821-1.82-1.763.175-3.758s.936-.174 3.758-.174c2.821 0 1.762-1.82 3.757.174z" color="#000" overflow="visible" fill="#f8f8f8" paint-order="markers stroke fill"/><path d="M7.982 3.308a4.11 4.11 0 0 1 4.119 4.118 4.11 4.11 0 0 1-4.119 4.119 4.11 4.11 0 0 1-4.118-4.119 4.11 4.11 0 0 1 4.118-4.118z" fill="none" stroke="#000" stroke-width=".801" stroke-opacity=".456"/><path style="isolation:auto;mix-blend-mode:normal;marker:none" d="M7 5h2v3L8 9h1v1H7V7l1-1z" color="#000" overflow="visible" fill="#2d2d2d"/><path d="M-64.004-71.678v15.356H-63.99c2.09-.073 7.308-4.506 7.308-7.669l-.045-4.595c0-1.216-4.579-3.045-7.208-3.092h-.07z" opacity=".439" fill="url(#k)" transform="translate(72 72)"/><path d="M-64.108-71.504c-2.57.046-7.053 1.834-7.053 3.021l-.027 4.492c0 3.092 5.091 7.424 7.134 7.495h.064c2.042-.071 7.143-4.403 7.143-7.495l-.046-4.492c0-1.187-4.474-2.976-7.043-3.02-.034-.002-.076 0-.109 0h-.063z" fill="none" stroke="url(#l)" stroke-width=".658" transform="translate(72 72)"/><path style="line-height:normal;font-variant-ligatures:normal;font-variant-position:normal;font-variant-caps:normal;font-variant-numeric:normal;font-variant-alternates:normal;font-feature-settings:normal;text-indent:0;text-align:start;text-decoration-line:none;text-decoration-style:solid;text-decoration-color:#000;text-transform:none;text-orientation:mixed;shape-padding:0;isolation:auto;mix-blend-mode:normal" d="M7.888.334l.004.491L7.89.334h-.001zm.009.491H7.89l.001.167-.001-.166c-1.212.023-2.956.47-4.362 1.057-.705.293-1.328.623-1.755.934-.428.311-.606.61-.606.7v.001L1.141 8.01l.001.017.026-4.34v-.002c0-.09.178-.389.606-.7.427-.312 1.05-.641 1.755-.935C4.937 1.462 6.685 1.014 7.897.992h.161c1.212.021 2.958.47 4.364 1.057.703.293 1.325.623 1.752.934.427.312.604.61.604.701v.002l.044 4.35.001-.027-.045-4.49v-.002c0-.09-.177-.389-.604-.7-.427-.312-1.049-.641-1.752-.935C11.016 1.295 9.27.847 8.058.825h-.16-.001z" color="#000" font-weight="400" font-family="sans-serif" white-space="normal" overflow="visible" fill="#060606" fill-opacity=".451"/></svg>