<svg xmlns="http://www.w3.org/2000/svg" xmlns:xlink="http://www.w3.org/1999/xlink" height="16" viewBox="0 0 16 16" width="16"><title>Template icons dark</title><defs><linearGradient id="e"><stop offset="0" stop-color="#6e685c"/><stop offset="1" stop-color="#7f6a7f"/></linearGradient><linearGradient id="d"><stop offset="0" stop-opacity=".022"/><stop offset="1" stop-color="#111" stop-opacity=".551"/></linearGradient><linearGradient id="c"><stop offset="0" stop-color="#262532"/><stop offset="1" stop-color="#39343d"/></linearGradient><linearGradient id="b"><stop offset="0" stop-color="#f75100"/><stop offset="1" stop-color="#ffae11"/></linearGradient><linearGradient id="a"><stop offset="0" stop-color="#23211d"/><stop offset="1" stop-color="#3f474b"/></linearGradient><linearGradient gradientTransform="matrix(.14894 0 0 .14894 -87.83 -87.83)" xlink:href="#c" id="f" gradientUnits="userSpaceOnUse" x1="165.575" y1="196.64" x2="165.575" y2="124"/><linearGradient gradientTransform="matrix(.19619 0 0 .19619 -95.39 -95.464)" xlink:href="#b" id="g" x1="160" y1="182.114" x2="160" y2="138" gradientUnits="userSpaceOnUse"/></defs><g color="#000"><path d="M16 8c0 .56-3.515 6.648-4 6.928-.485.28-7.515.28-8 0C3.515 14.648 0 8.56 0 8c0-.56 3.515-6.648 4-6.928.485-.28 7.515-.28 8 0 .485.28 4 6.368 4 6.928z" style="isolation:auto;mix-blend-mode:normal;marker:none" overflow="visible" fill-opacity=".423" paint-order="fill markers stroke"/><path style="isolation:auto;mix-blend-mode:normal;marker:none" d="M-57-64c0 .49-3.076 5.817-3.5 6.062-.424.245-6.576.245-7 0-.424-.245-3.5-5.572-3.5-6.062 0-.49 3.076-5.817 3.5-6.062.424-.245 6.576-.245 7 0 .424.245 3.5 5.572 3.5 6.062z" display="block" overflow="visible" fill="url(#f)" paint-order="fill markers stroke" transform="translate(72 72)"/><path style="line-height:normal;font-variant-ligatures:normal;font-variant-position:normal;font-variant-caps:normal;font-variant-numeric:normal;font-variant-alternates:normal;font-feature-settings:normal;text-indent:0;text-align:start;text-decoration-line:none;text-decoration-style:solid;text-decoration-color:#000;text-transform:none;text-orientation:mixed;shape-padding:0;isolation:auto;mix-blend-mode:normal;marker:none" d="M-64-69.172c-.62 0-1.239.01-1.732.033a11.08 11.08 0 0 0-.639.045c-.088.01-.167.02-.244.034-.078.015-.136.011-.291.098-.155.087-.182.139-.233.196-.052.058-.1.119-.153.188-.106.14-.225.313-.359.515a37.03 37.03 0 0 0-.896 1.44c-.31.521-.61 1.047-.836 1.473-.113.214-.208.401-.28.56a2.78 2.78 0 0 0-.092.222c-.025.072-.058.12-.058.294s.033.221.058.294c.026.072.056.143.092.222.072.159.167.346.28.56a42.414 42.414 0 0 0 1.42 2.425l-.807 2.58 2.026-1.122c.049.015.087.019.129.027.077.014.156.025.244.034.177.019.392.033.639.044.493.023 1.112.034 1.732.034.62 0 1.238-.01 1.732-.034.247-.01.462-.025.639-.044.088-.01.167-.02.244-.034.078-.015.136-.011.291-.098.155-.087.182-.139.233-.196.052-.058.1-.119.153-.189.106-.139.225-.312.359-.514.267-.404.586-.919.896-1.44.31-.521.61-1.047.836-1.473.113-.214.208-.401.28-.56.036-.079.066-.15.092-.222.025-.073.058-.12.058-.294s-.033-.222-.058-.294a2.788 2.788 0 0 0-.092-.223 10.326 10.326 0 0 0-.28-.559 36.856 36.856 0 0 0-.836-1.473 37.033 37.033 0 0 0-.896-1.44 10.447 10.447 0 0 0-.359-.515 2.838 2.838 0 0 0-.153-.188c-.051-.057-.078-.109-.233-.196-.155-.087-.213-.083-.29-.098a2.985 2.985 0 0 0-.245-.034 11.104 11.104 0 0 0-.639-.045A39.46 39.46 0 0 0-64-69.172zm0 1.16c.605 0 1.211.01 1.676.032.067.003.102.008.163.012l-1.85 2.753-1.872-2.75c.075-.005.122-.01.207-.015.465-.021 1.071-.032 1.676-.032zM-61.076-67a40.418 40.418 0 0 1 1.397 2.382c.107.2.194.374.248.495l.021.049-.02.05a9.522 9.522 0 0 1-.249.494 38.918 38.918 0 0 1-1.478 2.508l-1.98-2.91zm-5.87.033l2.07 3.04-1.96 2.918a38.763 38.763 0 0 1-1.486-2.52 9.525 9.525 0 0 1-.247-.496l-.021-.049.02-.05c.055-.12.142-.294.248-.494a40.877 40.877 0 0 1 1.376-2.349zm2.944 4.324l1.684 2.474h-.006c-.465.022-1.071.033-1.676.033a38.63 38.63 0 0 1-1.665-.032z" font-weight="400" font-family="sans-serif" white-space="normal" display="block" overflow="visible" fill="url(#g)" paint-order="fill markers stroke" transform="translate(72 72)"/></g></svg>