<svg xmlns="http://www.w3.org/2000/svg" xmlns:xlink="http://www.w3.org/1999/xlink" height="16" viewBox="0 0 16 16" width="16"><title>Template icons dark</title><defs><linearGradient id="d"><stop offset="0" stop-color="#0a34ff" stop-opacity="0"/><stop offset="1" stop-color="#ffff0d" stop-opacity=".24"/></linearGradient><linearGradient id="c"><stop offset="0" stop-color="#cdcdcd"/><stop offset="1" stop-color="#fff"/></linearGradient><linearGradient id="b"><stop offset="0" stop-color="#fff" stop-opacity=".427"/><stop offset=".423" stop-color="#fafcfe"/><stop offset="1" stop-color="#fff" stop-opacity=".49"/></linearGradient><linearGradient id="a"><stop offset="0" stop-color="#0796d6"/><stop offset="1" stop-color="#4987ce"/></linearGradient><linearGradient gradientTransform="matrix(.17065 0 0 .17065 -91.304 -91.304)" xlink:href="#c" id="f" x1="161.772" y1="204" x2="161.772" y2="113" gradientUnits="userSpaceOnUse"/><linearGradient xlink:href="#a" id="e" x1="22.9" y1="46.6" x2="22.9" y2="-10.331" gradientUnits="userSpaceOnUse" gradientTransform="matrix(.38897 0 0 .38897 -72.752 -73.919)"/></defs><g color="#000"><path style="isolation:auto;mix-blend-mode:normal;marker:none" d="M-56-64a8 8 0 0 1-8 8 8 8 0 0 1-8-8 8 8 0 0 1 8-8 8 8 0 0 1 8 8z" display="block" overflow="visible" fill="url(#e)" transform="translate(72 72)"/><path style="isolation:auto;mix-blend-mode:normal;marker:none" d="M5.92.483L4.444 4.542l-2.51 6.893h1.67l2.134-5.858h1.256L4.86 11.435h1.67L8.518 5.97c.287-.785-.164-1.428-1-1.428H6.116L7.667.277C7.148.222 6.305.338 5.92.483zm4.376 4.059l-2.58 7.09h-.002L6.267 15.61a7.882 7.882 0 0 0 1.594.215l1.597-4.39h2.217c.389 0 .816-.299.949-.664l1.748-4.8c.285-.787-.165-1.43-1-1.43zm1.3 1.031h1.254l-1.757 4.823H9.837z" display="block" overflow="visible" fill="#fff"/><path style="isolation:auto;mix-blend-mode:normal;marker:none" d="M-56.49-64A7.51 7.51 0 0 1-64-56.49 7.51 7.51 0 0 1-71.51-64 7.51 7.51 0 0 1-64-71.51 7.51 7.51 0 0 1-56.49-64z" overflow="visible" fill="none" stroke="url(#f)" stroke-width=".981" stroke-linejoin="round" transform="translate(72 72)"/></g></svg>