<svg xmlns="http://www.w3.org/2000/svg" xmlns:xlink="http://www.w3.org/1999/xlink" height="16" viewBox="0 0 16 16" width="16"><title>Template icons dark</title><defs><linearGradient id="a"><stop offset="0" stop-color="#4d77d3"/><stop offset=".453" stop-color="#767294"/><stop offset="1" stop-color="#a6659c"/></linearGradient><linearGradient id="b"><stop offset="0" stop-color="#0b1528"/><stop offset="1" stop-color="#473d49"/></linearGradient><linearGradient xlink:href="#a" id="d" x1="53.271" y1="55.429" x2="-10.45" y2="-7.238" gradientUnits="userSpaceOnUse" gradientTransform="matrix(.20728 0 0 .20093 -68.943 -68.71)"/><linearGradient xlink:href="#b" id="c" x1="26.4" y1="60.613" x2="26.4" y2="-12.187" gradientUnits="userSpaceOnUse" gradientTransform="matrix(.19782 0 0 .18761 -68.77 -68.525)"/></defs><g color="#000" transform="translate(72 72)"><rect style="isolation:auto;mix-blend-mode:normal;marker:none" width="15.943" height="13.943" x="-72.004" y="-71.004" ry=".75" overflow="visible" fill="url(#c)" stroke="#000" stroke-width=".057" stroke-opacity=".471"/><rect style="isolation:auto;mix-blend-mode:normal;marker:none" width="15.002" height="13.002" x="-71.534" y="-70.534" ry=".225" overflow="visible" fill="none" stroke="url(#d)" stroke-width=".998"/><path style="isolation:auto;mix-blend-mode:normal;marker:none" d="M-69.263-68.473h1.053v2.633h-1.053z" display="block" overflow="visible" fill="#94d59b"/><path style="isolation:auto;mix-blend-mode:normal;marker:none" d="M-70.053-69H-69l-.008.264-.782-.001v3.16l.782.002v.262h-1.045z" display="block" overflow="visible" fill="#fff" fill-opacity=".247"/><path style="isolation:auto;mix-blend-mode:normal;marker:none" d="M-67.683-68.473h1.053v2.633h-1.053zM-66.103-68.473h1.053v2.633h-1.053z" display="block" overflow="visible" fill="#94d59b"/><path style="isolation:auto;mix-blend-mode:normal;marker:none" d="M-64.523-68.473h1.054v2.633h-1.054z" display="block" overflow="visible" fill="#94ccd5"/><path style="isolation:auto;mix-blend-mode:normal;marker:none" d="M-62.943-68.473h1.054v2.633h-1.054z" display="block" overflow="visible" fill="#d594c7"/><path style="isolation:auto;mix-blend-mode:normal;marker:none" d="M-69.263-63.47h1.053v2.634h-1.053z" display="block" overflow="visible" fill="#94d59b"/><path d="M-70.053-63.996H-69l-.008.264-.782-.001v3.16l.782.002v.262h-1.045z" style="isolation:auto;mix-blend-mode:normal;marker:none" display="block" overflow="visible" fill="#fff" fill-opacity=".247"/><path style="isolation:auto;mix-blend-mode:normal;marker:none" d="M-67.683-63.47h1.053v2.634h-1.053z" display="block" overflow="visible" fill="#94ccd5"/><path style="isolation:auto;mix-blend-mode:normal;marker:none" d="M-66.103-63.47h1.053v2.634h-1.053z" display="block" overflow="visible" fill="#d594c7"/></g></svg>