<svg xmlns="http://www.w3.org/2000/svg" height="16" viewBox="0 0 16 16" width="16"><title>Template icons dark</title><defs><linearGradient id="a"><stop offset="0" stop-color="#3b173b"/><stop offset="1" stop-color="#1c2d4c"/></linearGradient></defs><path d="M7.772.624l-7.54 9.83 7.562 5.293 7.561-5.293z" fill="#535363" fill-rule="evenodd"/><path d="M7.816.624l-7.562 9.83 7.562 5.293 7.561-5.293zm0 14.099l6.49-4.647-1.787-1.89-1.786.754-1.786-1.676-1.786.921-2.337-1.89-3.457 3.78z" fill="#dcdee0" fill-rule="evenodd"/><path d="M10.565 10.589c-.016.117-7.217-2.648-7.217-2.648l1.476-1.646 2.304 1.89 1.819-.921L7.816.624l7.54 9.83z" fill-opacity=".24" fill-rule="evenodd"/><path style="isolation:auto;mix-blend-mode:normal;marker:none" d="M7.402 0v.865h.868V0zm6.993 2.568a.488.488 0 0 0-.456.489.488.488 0 0 0 .489.488.488.488 0 0 0 .488-.488.488.488 0 0 0-.488-.489.488.488 0 0 0-.033 0zm-12.788.52a.488.488 0 0 0-.488.488.488.488 0 0 0 .488.488.488.488 0 0 0 .489-.488.488.488 0 0 0-.489-.488zM0 9.896v.866h.865v-.866zm14.895.172v.868h.867v-.868zM7.36 15.135V16h.868v-.865z" color="#000" display="block" overflow="visible" fill="#dedede" paint-order="fill markers stroke"/><path d="M7.887.47L1.54 3.487zm.168.173l6.357 2.363z" fill-opacity=".215" fill-rule="evenodd" stroke="#eed3fc" stroke-width=".302"/></svg>