<svg xmlns="http://www.w3.org/2000/svg" height="16" viewBox="0 0 16 16" width="16"><title>Template icons dark</title><defs><linearGradient id="a"><stop offset="0" stop-color="#99c7d1"/><stop offset="1" stop-color="#e4eff7"/></linearGradient><linearGradient id="b"><stop offset="0" stop-color="#4378aa"/><stop offset="1" stop-color="#3797ca"/></linearGradient><linearGradient id="c"><stop offset="0" stop-color="#649ad2"/><stop offset="1" stop-color="#87c7e0"/></linearGradient></defs><g fill-rule="evenodd"><path d="M15.209 4.537l-7.336.514c.032.006.071.002.102.01a2.986 2.986 0 0 1 2.986 2.986c0 .86-.391 1.651-.993 2.22l-2.384 5.712c.139.007.274.021.416.021a8 8 0 0 0 8-8 7.959 7.959 0 0 0-.791-3.463zM6.102 15.752c.127.033.253.07.384.096-.13-.026-.256-.065-.384-.096zm.642.137z" fill="#d7d7d7"/><path d="M8 0a7.977 7.977 0 0 0-6.373 3.176l3.807 6.437c.017.027.04.05.059.076a2.948 2.948 0 0 1-.504-1.642A2.985 2.985 0 0 1 7.74 5.071l7.498-.538a8.218 8.218 0 0 0-1.013-1.627C12.758 1.114 10.497 0 8 0zM1.096 3.967c-.003.004-.006.007-.008.012l.002.002c.002-.005.003-.01.006-.014z" fill="#2074ac"/><path style="isolation:auto;mix-blend-mode:normal" d="M1.625 3.172a8.203 8.203 0 0 0-.53.795l-.005.013a7.812 7.812 0 0 0-.422.825 7.986 7.986 0 0 0 .217 6.851 7.993 7.993 0 0 0 6.697 4.332l2.386-5.721a2.99 2.99 0 0 1-.632.438 2.978 2.978 0 0 1-3.843-1.016c-.018-.027-.042-.049-.059-.076L1.627 3.176z" color="#000" overflow="visible" fill="#72c1ff" fill-opacity=".99"/></g></svg>