<svg xmlns="http://www.w3.org/2000/svg" xmlns:xlink="http://www.w3.org/1999/xlink" height="16" viewBox="0 0 16 16" width="16"><title>Template icons dark</title><defs><linearGradient id="a"><stop offset="0" stop-color="#fff" stop-opacity=".427"/><stop offset=".423" stop-color="#fafcfe"/><stop offset="1" stop-color="#fff" stop-opacity=".49"/></linearGradient><linearGradient id="d"><stop offset="0" stop-color="#fe54ba"/><stop offset="1" stop-color="#722f98" stop-opacity=".995"/></linearGradient><linearGradient id="b"><stop offset="0" stop-color="#6a1262" stop-opacity=".611"/><stop offset="1" stop-color="#d75dea" stop-opacity=".979"/></linearGradient><linearGradient id="e"><stop offset="0" stop-color="#fff" stop-opacity=".179"/><stop offset="1" stop-color="#fff" stop-opacity=".795"/></linearGradient><linearGradient id="c"><stop offset="0" stop-color="#fff" stop-opacity=".526"/><stop offset=".446" stop-color="#fff" stop-opacity=".737"/><stop offset=".476" stop-color="#fff"/><stop offset=".503" stop-color="#fff" stop-opacity=".718"/><stop offset="1" stop-color="#fff" stop-opacity=".495"/></linearGradient><linearGradient xlink:href="#d" id="f" gradientUnits="userSpaceOnUse" x1="16.791" y1="294.048" x2="16.839" y2="271.451"/><linearGradient xlink:href="#b" id="g" gradientUnits="userSpaceOnUse" x1="16.907" y1="265.033" x2="17.034" y2="278.562" gradientTransform="translate(-72.414 -203.45) scale(.4966)"/><linearGradient gradientTransform="translate(-72.414 -203.45) scale(.4966)" xlink:href="#c" id="h" x1="7.403" y1="282" x2="27.388" y2="282.145" gradientUnits="userSpaceOnUse"/></defs><path d="M-63.998-72.006l-7.184 1.631v7.95l7.176 6.421 7.182-6.426v-7.947z" transform="translate(72 72)" fill="url(#g)" stroke-width=".131" style="isolation:auto;mix-blend-mode:normal;marker:none" color="#000" overflow="visible" stroke-opacity=".984"/><path d="M2.068 2.695v7.991l.618.56v-7.21l5.308 3.982 5.31-3.982v7.206l.617-.555V2.695L7.994 7.14z" fill="#3f2c48" fill-opacity=".347" fill-rule="evenodd" stroke-width=".176"/><path d="M-69.315-60.756v-7.208l5.31 3.982 5.308-3.982v7.208l-2.654 2.38v-4.279L-64.006-60l-2.654-2.655v4.28z" fill="url(#h)" fill-rule="evenodd" stroke-width=".158" transform="translate(72 72)"/><path style="line-height:normal;font-variant-ligatures:normal;font-variant-position:normal;font-variant-caps:normal;font-variant-numeric:normal;font-variant-alternates:normal;font-feature-settings:normal;text-indent:0;text-align:start;text-decoration-line:none;text-decoration-style:solid;text-decoration-color:#000;text-transform:none;text-orientation:mixed;shape-padding:0;isolation:auto;mix-blend-mode:normal" d="M5.419 13.692V9.536l2.575 2.575 2.576-2.575v4.156l.158-.142V9.155l-2.734 2.733-2.733-2.733v4.395zM2.764 4.194l5.23 3.922 5.23-3.922v7.122l.158-.124V3.879l-5.388 4.04-5.387-4.04v7.295l.157.142z" color="#000" font-weight="400" font-family="sans-serif" white-space="normal" overflow="visible" fill="#fff" fill-rule="evenodd" stroke-width=".158"/></svg>