<svg xmlns:osb="http://www.openswatchbook.org/uri/2009/osb" xmlns="http://www.w3.org/2000/svg" height="16" viewBox="0 0 16 16" width="16"><title>Template icons dark</title><defs><linearGradient id="e"><stop offset="0" stop-color="#a2f2e6"/><stop offset="1" stop-color="#77d6f5"/></linearGradient><linearGradient id="d"><stop offset="0" stop-color="#2384a9"/><stop offset="1" stop-color="#25ada9" stop-opacity=".953"/></linearGradient><linearGradient id="c" osb:paint="solid"><stop offset="0" stop-opacity=".134"/></linearGradient><linearGradient id="b" osb:paint="solid"><stop offset="0" stop-color="#fff" stop-opacity=".028"/></linearGradient><linearGradient id="a"><stop offset="0" stop-opacity=".036"/><stop offset="1" stop-color="#afe4ff" stop-opacity=".042"/></linearGradient></defs><g fill="#fff" fill-opacity=".995"><path d="M3 0L1 2v12l2 2h10l2-2V2l-2-2zm0 1h10l1 1v12l-1 1H3l-1-1V2z" style="line-height:normal;font-variant-ligatures:normal;font-variant-position:normal;font-variant-caps:normal;font-variant-numeric:normal;font-variant-alternates:normal;font-feature-settings:normal;text-indent:0;text-align:start;text-decoration-line:none;text-decoration-style:solid;text-decoration-color:#000;text-transform:none;text-orientation:mixed;shape-padding:0;isolation:auto;mix-blend-mode:normal;marker:none" color="#000" font-weight="400" font-family="sans-serif" white-space="normal" overflow="visible" opacity=".8" stroke-width=".727" stroke-miterlimit="0" paint-order="fill markers stroke"/><path style="marker:none" d="M1 5v1h14V5z" opacity=".2" stroke-width=".684" paint-order="fill markers stroke"/><path d="M4 7v1H3v1h1v1h1V9h1V8H5V7zm6 1v1h3V8zM10 11v1h3v-1zm0 2v1h3v-1z" style="line-height:1.25;-inkscape-font-specification:'Liberation Sans';text-align:center" font-weight="400" font-size="2.853" font-family="Liberation Sans" letter-spacing="0" word-spacing="0" text-anchor="middle" opacity=".64" stroke-width=".889"/><path d="M4 2v1h1v1H4v1h2V2zm5 0H8v1h1v2h1V2zm3 0l-1 2h1v1h1V2zM7 4v1h1V4z" style="line-height:1.25;-inkscape-font-specification:'Liberation Sans';text-align:center" font-weight="400" font-size="2.853" font-family="Liberation Sans" letter-spacing="0" word-spacing="0" text-anchor="middle" opacity=".64" stroke-width=".545"/><path d="M3 12h1v-1H3zm1 0v1h1v-1zm1 0h1v-1H5zm0 1v1h1v-1zm-1 0H3v1h1z" style="isolation:auto;mix-blend-mode:normal;marker:none" color="#000" overflow="visible" opacity=".64" stroke-width=".545" paint-order="fill markers stroke"/></g></svg>