<svg xmlns="http://www.w3.org/2000/svg" xmlns:xlink="http://www.w3.org/1999/xlink" height="16" viewBox="0 0 16 16" width="16"><title>Template icons dark</title><defs><linearGradient id="a"><stop offset="0" stop-color="#4b587a"/><stop offset="1" stop-color="#7a6982"/></linearGradient><linearGradient id="c"><stop offset="0" stop-color="#3e4453"/><stop offset="1" stop-color="#222630"/></linearGradient><linearGradient id="b"><stop offset="0" stop-color="#d4a8cf"/><stop offset="1" stop-color="#80c4e1" stop-opacity=".99"/></linearGradient><linearGradient id="d"><stop offset="0" stop-color="#9a9a9a" stop-opacity=".973"/><stop offset="1" stop-color="#f4f4f4"/></linearGradient><linearGradient xlink:href="#b" id="e" x1="4.995" y1="6.196" x2="40.265" y2="45.14" gradientUnits="userSpaceOnUse" gradientTransform="matrix(.36147 0 0 .36156 -71.74 -73.157)"/><linearGradient xlink:href="#c" id="f" gradientUnits="userSpaceOnUse" gradientTransform="matrix(.32312 0 0 .3573 -54.675 -60.42)" x1="-26.746" y1="-29.715" x2="-26.746" y2="10.031"/><linearGradient xlink:href="#d" id="g" gradientUnits="userSpaceOnUse" gradientTransform="matrix(.59538 0 0 .59538 -76.308 -69.422)" x1="20.942" y1="20.603" x2="20.942" y2="-3.389"/></defs><g color="#000"><path style="isolation:auto;mix-blend-mode:normal;marker:none" d="M1 0h14v16H1z" display="block" overflow="visible" fill-opacity=".088" stroke-width=".073" stroke-opacity=".52"/><path d="M-70-72v16h12v-16zm1 1h10v14h-10z" style="line-height:normal;font-variant-ligatures:normal;font-variant-position:normal;font-variant-caps:normal;font-variant-numeric:normal;font-variant-alternates:normal;font-feature-settings:normal;text-indent:0;text-align:start;text-decoration-line:none;text-decoration-style:solid;text-decoration-color:#000;text-transform:none;text-orientation:mixed;shape-padding:0;isolation:auto;mix-blend-mode:normal;marker:none" font-weight="400" font-family="sans-serif" white-space="normal" overflow="visible" fill="url(#e)" fill-opacity=".52" stroke-width=".178" transform="translate(72 72)"/><path d="M-69-71h10v14h-10z" style="isolation:auto;mix-blend-mode:normal;marker:none" display="block" overflow="visible" fill="url(#f)" stroke-width=".068" stroke-opacity=".52" transform="translate(72 72)"/><path style="isolation:auto;mix-blend-mode:normal;marker:none" d="M-64-72l-7 4v8l7 4 7-4v-8zm-4 5h7v1h-7zm0 2h4v1h-4zm0 2h6v1h-6zm0 2h4v1h-4z" overflow="visible" fill="url(#g)" stroke-width=".265" stroke-linejoin="round" stroke-opacity=".424" transform="translate(72 72)"/></g></svg>