<svg xmlns:osb="http://www.openswatchbook.org/uri/2009/osb" xmlns="http://www.w3.org/2000/svg" xmlns:xlink="http://www.w3.org/1999/xlink" height="16" viewBox="0 0 16 16" width="16"><title>Template icons dark</title><defs><linearGradient id="h"><stop offset="0" stop-color="#d6dee0"/><stop offset="1" stop-color="#fff" stop-opacity=".474"/></linearGradient><linearGradient id="g"><stop offset="0" stop-color="#403d60" stop-opacity=".396"/><stop offset="1" stop-opacity=".073"/></linearGradient><linearGradient id="f"><stop offset="0" stop-color="#c3ced1"/><stop offset="1" stop-color="#f6f6f6"/></linearGradient><linearGradient id="a"><stop offset="0" stop-color="#c9cfd1"/><stop offset="1" stop-color="#fff"/></linearGradient><linearGradient id="b" osb:paint="solid"><stop offset="0" stop-color="#2d393e" stop-opacity=".117"/></linearGradient><linearGradient id="c"><stop offset="0" stop-opacity=".204"/><stop offset="1" stop-opacity="0"/></linearGradient><linearGradient id="d"><stop offset="0" stop-color="#dce1e8"/><stop offset="1" stop-color="#fff"/></linearGradient><linearGradient id="e" osb:paint="solid"><stop offset="0" stop-color="#33d351"/></linearGradient><linearGradient gradientTransform="matrix(.19393 0 0 .19393 -95.029 -95.028)" xlink:href="#f" id="i" x1="162.551" y1="202.929" x2="162.551" y2="116" gradientUnits="userSpaceOnUse"/><linearGradient xlink:href="#e" id="j" gradientUnits="userSpaceOnUse" gradientTransform="matrix(.19448 0 0 .1956 -69.167 -264.477)"/></defs><g transform="translate(72 72)"><path d="M-70-72h12c.826 0 2 1.174 2 2v12c0 .826-1.174 2-2 2h-12c-.826 0-2-1.174-2-2v-12c0-.826 1.174-2 2-2z" style="isolation:auto;mix-blend-mode:normal;marker:none" color="#000" overflow="visible" fill="url(#i)" stroke-width=".194" stroke-opacity=".458" paint-order="fill markers stroke"/><path d="M-66.907-62.613h5.835a1.82 1.82 0 0 1 1.823 1.824 1.82 1.82 0 0 1-1.823 1.823h-5.835a1.82 1.82 0 0 1-1.823-1.823 1.82 1.82 0 0 1 1.823-1.824z" fill="url(#j)" stroke-width=".219"/><path d="M-66.693-69.038h5.861c1.015 0 1.832.817 1.832 1.832a1.828 1.828 0 0 1-1.832 1.831h-5.86a1.828 1.828 0 0 1-1.832-1.831c0-1.015.817-1.832 1.831-1.832z" fill="#2d393e" fill-opacity=".323" stroke-width=".246"/><path d="M-70.499-71.003a.501.501 0 1 0 0 1.003.501.501 0 0 0 0-1.003zM-57.49-71a.5.5 0 1 0 0 1 .5.5 0 0 0 0-1zm-13.013 13.007a.497.497 0 1 0 0 .993.497.497 0 0 0 0-.993zm12.991.001a.492.492 0 1 0 0 .984.492.492 0 0 0 0-.984z" style="isolation:auto;mix-blend-mode:normal;marker:none" color="#000" overflow="visible" fill-opacity=".313" stroke-width=".112" stroke-opacity=".198" paint-order="fill markers stroke"/><circle r="2.796" cy="-60.372" cx="-61.315" fill-opacity=".495" stroke-width=".117" stroke-miterlimit="4.6" stroke-opacity=".197"/><circle cx="-61.315" cy="-60.789" r="2.553" fill="#fff" fill-opacity=".984" stroke-width=".101" stroke-miterlimit="4.6"/><circle r="2.437" cy="-60.789" cx="-61.315" fill="none" stroke="#fff" stroke-width=".232" stroke-miterlimit="4.6" stroke-opacity=".237"/><circle cx="66.449" cy="-66.853" r="2.808" transform="scale(-1 1)" fill-opacity=".536" stroke-width=".117" stroke-miterlimit="4.6" stroke-opacity=".197"/><circle cx="-66.449" cy="-67.206" r="2.564" fill="#fff" fill-opacity=".984" stroke-width=".101" stroke-miterlimit="4.6"/><circle r="2.448" cy="-67.206" cx="-66.449" fill="none" stroke="#fff" stroke-width=".233" stroke-miterlimit="4.6" stroke-opacity=".237"/></g></svg>