<svg xmlns="http://www.w3.org/2000/svg" xmlns:xlink="http://www.w3.org/1999/xlink" height="16" viewBox="0 0 16 16" width="16"><title>Template icons dark</title><defs><linearGradient id="a"><stop offset="0" stop-color="#e9e9e9"/><stop offset="1" stop-color="#fff"/></linearGradient><linearGradient gradientTransform="matrix(.1739 0 0 .1739 -91.825 -91.825)" xlink:href="#a" id="b" x1="168" y1="201.741" x2="168" y2="114.331" gradientUnits="userSpaceOnUse"/></defs><path d="M-64.74-56.183c-1.119-.372-1.912-.877-2.805-1.786-.998-1.017-1.586-2.08-1.833-3.318-.342-1.712.566-3.282 2.482-4.288 2.312-1.215 5.472-1.33 6.637-.242.358.334.436.526.436 1.06 0 1.023-.564 1.655-2.77 3.107-2.663 1.754-2.941 2.183-2.015 3.11.38.379.624.499 1.017.499.51 0 .968-.293.992-.634.07-1 .22-1.184 1.168-1.435.794-.211 1.697-.076 1.888.282.22.41-.306 1.724-.958 2.397-1.216 1.257-2.805 1.724-4.239 1.248zm-5.143-9.688c-.802-.801-.864-1.849-.13-2.183.323-.147.418-.12.754.216.637.637.645 2.458.01 2.458-.08 0-.364-.22-.634-.49zm2.236-1.533c-.296-.327-.689-1.251-.689-1.621 0-.47.564-1.052 1.02-1.052.548 0 .771.304.854 1.162.094.98-.18 1.773-.615 1.773a.887.887 0 0 1-.57-.262zm6.178-.04c-.697-.406-.598-2.272.176-3.34 1.086-1.5 3.819-1.657 3.819-.22 0 .974-1.407 2.86-2.545 3.41-.691.335-1.066.374-1.45.15zm-3.493-.908c-.822-1.349-.318-3.046.905-3.046.576 0 .858.359.858 1.09 0 1.13-.635 2.433-1.186 2.433-.165 0-.409-.202-.577-.477z" fill="url(#b)" stroke-width=".147" transform="translate(72 72)"/></svg>