<svg xmlns="http://www.w3.org/2000/svg" xmlns:xlink="http://www.w3.org/1999/xlink" height="16" viewBox="0 0 16 16" width="16"><title>Template icons dark</title><defs><linearGradient id="j"><stop offset="0" stop-color="#078cd0" stop-opacity=".781"/><stop offset=".774" stop-color="#5946dd" stop-opacity=".584"/><stop offset="1" stop-color="#ca39f1" stop-opacity=".669"/></linearGradient><linearGradient id="i"><stop offset="0" stop-color="#078cd0" stop-opacity=".698"/><stop offset=".774" stop-color="#5946dd" stop-opacity=".443"/><stop offset="1" stop-color="#ca39f1" stop-opacity=".302"/></linearGradient><linearGradient id="c"><stop offset="0" stop-color="#d1f8fc" stop-opacity=".084"/><stop offset=".501" stop-color="#fff" stop-opacity=".039"/><stop offset="1" stop-color="#b6f3fa" stop-opacity=".096"/></linearGradient><linearGradient id="b"><stop offset="0" stop-color="#777"/><stop offset="1" stop-color="#595959"/></linearGradient><linearGradient id="h"><stop offset="0" stop-color="#fff" stop-opacity=".528"/><stop offset=".561" stop-color="#fff" stop-opacity=".522"/><stop offset="1" stop-color="#fff" stop-opacity="0"/></linearGradient><linearGradient id="f"><stop offset="0" stop-color="#fff" stop-opacity=".663"/><stop offset=".561" stop-color="#fff" stop-opacity=".522"/><stop offset="1" stop-color="#fff" stop-opacity="0"/></linearGradient><linearGradient id="g"><stop offset="0" stop-color="#fff"/><stop offset=".561" stop-color="#fff" stop-opacity=".522"/><stop offset="1" stop-color="#fff" stop-opacity="0"/></linearGradient><linearGradient id="e"><stop offset="0" stop-color="#4fb9ef" stop-opacity=".459"/><stop offset=".836" stop-color="#1f1cec" stop-opacity=".315"/><stop offset=".888" stop-color="#d039f1" stop-opacity=".376"/><stop offset="1" stop-color="#ca39f1" stop-opacity=".302"/></linearGradient><linearGradient id="d"><stop offset="0" stop-color="#393939"/><stop offset="1" stop-color="#181818"/></linearGradient><linearGradient id="a"><stop offset="0" stop-color="#efefef"/><stop offset="1" stop-color="#cacaca"/></linearGradient><linearGradient xlink:href="#a" id="k" x1="160" y1="133.669" x2="160" y2="186.583" gradientUnits="userSpaceOnUse" gradientTransform="matrix(.16685 0 0 .16667 -90.705 -90.839)"/><radialGradient xlink:href="#j" id="m" cx="-226.274" cy=".459" fx="-226.274" fy=".459" r="15.999" gradientUnits="userSpaceOnUse" gradientTransform="matrix(.23002 -.23002 .23032 .23032 -12.046 -116.219)"/><radialGradient gradientTransform="matrix(.18274 0 0 .18274 -93.238 -93.44)" xlink:href="#d" id="l" cx="160" cy="160" fx="160" fy="160" r="33" gradientUnits="userSpaceOnUse"/></defs><g color="#000" transform="translate(72 72)"><rect ry=".802" y="-70" x="-72" height="12" width="16" style="isolation:auto;mix-blend-mode:normal;marker:none" display="block" overflow="visible" fill-opacity=".202" stroke-width=".365" stroke-opacity=".344" paint-order="fill markers stroke"/><rect style="isolation:auto;mix-blend-mode:normal;marker:none" width="16" height="9.976" x="-72" y="-68.976" ry=".667" display="block" overflow="visible" fill="url(#k)" stroke-width=".333" stroke-opacity=".344" paint-order="fill markers stroke"/><rect style="isolation:auto;mix-blend-mode:normal;marker:none" width="1" height="1" x="-71" y="-68" ry=".062" display="block" overflow="visible" fill="#e33535" stroke-width=".364" paint-order="fill markers stroke"/><path style="isolation:auto;mix-blend-mode:normal;marker:none" d="M-57.431-63.733A6.569 6.569 0 0 1-64-57.165a6.569 6.569 0 0 1-6.569-6.568A6.569 6.569 0 0 1-64-70.302a6.569 6.569 0 0 1 6.569 6.569z" overflow="visible" fill-opacity=".404" stroke-width=".348" paint-order="fill markers stroke"/><path style="isolation:auto;mix-blend-mode:normal;marker:none" d="M-58.153-64.202A5.847 5.847 0 0 1-64-58.355a5.847 5.847 0 0 1-5.847-5.847A5.847 5.847 0 0 1-64-70.05a5.847 5.847 0 0 1 5.847 5.848z" overflow="visible" fill="url(#l)" stroke="#f2f2f2" stroke-width=".366" paint-order="fill markers stroke"/><path style="line-height:normal;font-variant-ligatures:normal;font-variant-position:normal;font-variant-caps:normal;font-variant-numeric:normal;font-variant-alternates:normal;font-feature-settings:normal;text-indent:0;text-align:start;text-decoration-line:none;text-decoration-style:solid;text-decoration-color:#000;text-transform:none;text-orientation:mixed;shape-padding:0;isolation:auto;mix-blend-mode:normal;marker:none" d="M-64-70.535a6.337 6.337 0 0 0-6.333 6.333A6.337 6.337 0 0 0-64-57.87a6.337 6.337 0 0 0 6.333-6.332A6.337 6.337 0 0 0-64-70.535zm0 .66a5.563 5.563 0 0 1 5.567 5.566c0 3.078-2.373 5.884-5.567 5.884s-5.567-2.806-5.567-5.884A5.563 5.563 0 0 1-64-69.876z" font-weight="400" font-family="sans-serif" white-space="normal" overflow="visible" fill="#fff" stroke-width=".76" paint-order="fill markers stroke"/><path style="isolation:auto;mix-blend-mode:normal;marker:none" d="M-60.467-60.694a5.027 5.027 0 0 1-7.11-.015l3.562-3.547z" overflow="visible" fill="#c7e8fb" fill-opacity=".157" stroke-width=".315" paint-order="fill markers stroke"/><path style="isolation:auto;mix-blend-mode:normal;marker:none" d="M-67.68-67.76a5.214 5.214 0 0 1 7.373.015L-64-64.065z" overflow="visible" fill="url(#m)" stroke-width=".326" paint-order="fill markers stroke"/><path style="isolation:auto;mix-blend-mode:normal;marker:none" d="M-63.412-63.315a.588.397 0 0 1-.588.397.588.397 0 0 1-.588-.397.588.397 0 0 1 .588-.398.588.397 0 0 1 .588.398z" overflow="visible" fill="#c7e8fb" fill-opacity=".382" stroke-width=".081" paint-order="fill markers stroke"/><path style="isolation:auto;mix-blend-mode:normal;marker:none" d="M-63.002-65.394a.998.813 0 0 1-.998.812.998.813 0 0 1-.998-.812.998.813 0 0 1 .998-.813.998.813 0 0 1 .998.813z" overflow="visible" fill="#ecf7fe" fill-opacity=".438" stroke-width=".078" paint-order="fill markers stroke"/><circle style="isolation:auto;mix-blend-mode:normal;marker:none" cx="-64" cy="-64.202" r="2.536" overflow="visible" fill="none" fill-opacity=".459" stroke="#8e8e8e" stroke-width="1.062" paint-order="fill markers stroke"/></g></svg>