<svg xmlns="http://www.w3.org/2000/svg" xmlns:xlink="http://www.w3.org/1999/xlink" height="16" viewBox="0 0 16 16" width="16"><title>Template icons dark</title><defs><linearGradient id="a"><stop offset="0" stop-color="#003783"/><stop offset="1" stop-color="#69e5ff"/></linearGradient><linearGradient xlink:href="#a" id="b" gradientUnits="userSpaceOnUse" x1="120" y1="120" x2="203.055" y2="204"/></defs><path style="isolation:auto;mix-blend-mode:normal;marker:none" d="M0 0h15.001v15.001H0z" color="#000" display="block" overflow="visible" fill="#a3acc3" stroke-width=".75" stroke-opacity=".079" paint-order="fill markers stroke"/><path style="isolation:auto;mix-blend-mode:normal;marker:none" d="M5 5h5v5H5z" color="#000" display="block" overflow="visible" fill="#79859c" stroke-width=".75" stroke-opacity=".079" paint-order="fill markers stroke"/><path style="isolation:auto;mix-blend-mode:normal;marker:none" d="M5 0h5v5H5z" color="#000" display="block" overflow="visible" fill="#696e82" stroke-width=".75" stroke-opacity=".079" paint-order="fill markers stroke"/><path style="isolation:auto;mix-blend-mode:normal;marker:none" d="M0 0h5v5H0z" color="#000" display="block" overflow="visible" fill="#565a68" stroke-width=".75" stroke-opacity=".079" paint-order="fill markers stroke"/><path style="isolation:auto;mix-blend-mode:normal;marker:none" d="M0 5h5v5H0z" color="#000" display="block" overflow="visible" fill="#777a8b" stroke-width=".75" stroke-opacity=".079" paint-order="fill markers stroke"/><path style="isolation:auto;mix-blend-mode:normal;marker:none" d="M10 5h4.999v5H10z" color="#000" display="block" overflow="visible" fill="#8d98b6" stroke-width=".75" stroke-opacity=".079" paint-order="fill markers stroke"/><path style="isolation:auto;mix-blend-mode:normal;marker:none" d="M10 0h4.999v5H10z" color="#000" display="block" overflow="visible" fill="#7a8399" stroke-width=".75" stroke-opacity=".079" paint-order="fill markers stroke"/><path style="isolation:auto;mix-blend-mode:normal;marker:none" d="M5 10h5v4.999H5z" color="#000" display="block" overflow="visible" fill="#9098b0" stroke-width=".75" stroke-opacity=".079" paint-order="fill markers stroke"/><path style="isolation:auto;mix-blend-mode:normal;marker:none" d="M0 10h5v4.999H0z" color="#000" display="block" overflow="visible" fill="#818da2" stroke-width=".75" stroke-opacity=".079" paint-order="fill markers stroke"/><path d="M12.1 1.174c-.445 0-.796.136-1.052.41-.256.272-.384.644-.384 1.117 0 .472.128.844.384 1.117.256.272.607.408 1.052.408a1.622 1.622 0 0 0 .936-.284v-.415a1.403 1.403 0 0 1-.43.28 1.263 1.263 0 0 1-.482.092c-.336 0-.594-.102-.772-.307-.18-.207-.268-.503-.268-.891 0-.389.089-.686.268-.89.178-.207.436-.31.772-.31.17 0 .332.03.483.093.152.061.295.155.43.28v-.42a1.552 1.552 0 0 0-.44-.21 1.693 1.693 0 0 0-.497-.07zm-9.313.053L1.664 4.169h.42l.268-.755h1.326l.268.755h.414L3.238 1.227zm3.745 0v2.942h1.056c.33 0 .584-.071.763-.215.178-.143.268-.346.268-.609 0-.2-.055-.365-.164-.498A.768.768 0 0 0 8 2.583a.565.565 0 0 0 .37-.2.674.674 0 0 0 .127-.429c0-.232-.082-.412-.247-.538-.164-.126-.398-.189-.702-.189zm.398.327h.59c.194 0 .338.037.433.11.096.074.143.185.143.333 0 .15-.047.262-.143.335-.095.073-.24.109-.434.109h-.59zm-3.918.065l.542 1.464H2.472zM6.93 2.764h.638c.214 0 .373.044.475.132.104.087.156.222.156.406 0 .183-.052.319-.156.408-.102.088-.26.132-.475.132H6.93zM2.787 6.412c-.118 0-.24.013-.365.04a2.359 2.359 0 0 0-.386.114v.335a1.46 1.46 0 0 1 .714-.181c.198 0 .352.046.46.138.111.09.166.219.166.386v.035h-.508c-.33 0-.578.063-.745.19-.165.125-.248.313-.248.561 0 .213.066.383.199.51.134.127.314.19.54.19.178 0 .33-.032.453-.095a.797.797 0 0 0 .31-.297v.335h.362v-1.26c0-.336-.079-.587-.237-.752-.157-.166-.396-.249-.715-.249zm.229 1.151h.36v.08c0 .237-.06.427-.183.57a.603.603 0 0 1-.483.213.507.507 0 0 1-.347-.112.395.395 0 0 1-.126-.308c0-.161.057-.275.17-.342.113-.067.316-.1.609-.1zm-.348 2.907a.256.256 0 0 0-.202.086.345.345 0 0 0-.074.233h.183v-.008a.16.16 0 0 1 .029-.103.099.099 0 0 1 .081-.036c.012 0 .025.003.04.008a.34.34 0 0 1 .06.028l.083.049c.05.026.09.043.118.05a.36.36 0 0 0 .094.012.247.247 0 0 0 .196-.086.355.355 0 0 0 .08-.233h-.183v.009c0 .04-.01.072-.03.097a.093.093 0 0 1-.075.037.143.143 0 0 1-.047-.01.377.377 0 0 1-.058-.027l-.084-.044a.373.373 0 0 0-.211-.063zm.063.385l-.308.388h.202l.243-.26.242.26h.203l-.308-.388zm.15.556c-.245 0-.44.079-.585.236-.144.157-.216.37-.216.637 0 .259.076.464.227.616.153.151.36.227.62.227a1.482 1.482 0 0 0 .605-.125v-.254c-.096.05-.192.088-.289.113a1.175 1.175 0 0 1-.3.039c-.177 0-.317-.048-.417-.145-.1-.097-.155-.238-.166-.423h1.234V12.2c0-.244-.063-.436-.192-.577a.665.665 0 0 0-.521-.213zm.003.228a.41.41 0 0 1 .318.131c.08.088.122.205.124.352l-.957.001a.537.537 0 0 1 .154-.357.507.507 0 0 1 .36-.127z" style="line-height:1000%" font-family="sans-serif" letter-spacing="0" word-spacing="0" fill="#fefefe" stroke-width=".252"/></svg>