<svg xmlns="http://www.w3.org/2000/svg" xmlns:xlink="http://www.w3.org/1999/xlink" height="16" viewBox="0 0 16 16" width="16"><title>Template icons dark</title><defs><linearGradient id="e"><stop offset="0" stop-color="#ff2a0b"/><stop offset=".496" stop-color="#110200" stop-opacity=".453"/><stop offset=".532" stop-opacity=".13"/><stop offset=".617" stop-color="#ffcdc5" stop-opacity=".106"/><stop offset=".702" stop-color="#ffd2cb" stop-opacity=".161"/><stop offset=".778" stop-color="#ffe2dd" stop-opacity="0"/><stop offset=".872" stop-color="#fff" stop-opacity=".109"/><stop offset=".936" stop-color="#fff" stop-opacity=".078"/><stop offset="1" stop-opacity=".354"/></linearGradient><linearGradient id="d"><stop offset="0" stop-opacity="0"/><stop offset=".497" stop-opacity="0"/><stop offset=".749" stop-opacity=".271"/><stop offset="1" stop-opacity="0"/></linearGradient><linearGradient id="b"><stop offset="0" stop-color="#c5c5c5"/><stop offset="1" stop-color="#f4f4f4"/></linearGradient><linearGradient id="a"><stop offset="0" stop-color="#cd3a00"/><stop offset="1" stop-color="#cf6e53"/></linearGradient><linearGradient id="c"><stop offset="0" stop-color="#fff" stop-opacity="0"/><stop offset=".657" stop-color="#fff" stop-opacity="0"/><stop offset=".829" stop-color="#fff8f4" stop-opacity=".26"/><stop offset="1" stop-color="#fff" stop-opacity="0"/></linearGradient><linearGradient gradientTransform="matrix(.16667 0 0 .16667 -90.667 -90.667)" xlink:href="#b" id="g" x1="170" y1="201.251" x2="170" y2="119" gradientUnits="userSpaceOnUse"/><linearGradient gradientTransform="matrix(.16667 0 0 .16667 -90.667 -90.667)" xlink:href="#a" id="f" x1="160" y1="205" x2="160" y2="113" gradientUnits="userSpaceOnUse"/></defs><path d="M2.741.5c-.735 0-.683 1.1-1.15 1.537-.382.357-1.251.13-1.314.856-.078.903-.013 2.597.23 3.065L5.69.833S3.411.5 2.741.5zm10.357 0c-.67 0-2.95.333-2.95.333l5.185 5.125c.242-.468.308-2.162.23-3.065-.063-.726-.933-.499-1.314-.856C13.782 1.599 13.833.5 13.099.5zM.506 10.162c-.242.469-.307 2.162-.23 3.065.064.726.933.499 1.315.856.467.438.415 1.537 1.15 1.537.67 0 2.95-.333 2.95-.333zm14.827 0l-5.185 5.125s2.28.333 2.95.333c.735 0 .684-1.1 1.15-1.537.382-.357 1.252-.13 1.315-.856.078-.903.012-2.596-.23-3.065z" fill="none" fill-rule="evenodd" stroke="#d7afaf" stroke-width=".217"/><path d="M8 0a8 8 0 1 0 0 16A8 8 0 0 0 8 0zm0 4.333a3.667 3.667 0 1 1 0 7.334 3.667 3.667 0 0 1 0-7.334z" style="isolation:auto;mix-blend-mode:normal;marker:none" color="#000" display="block" overflow="visible" fill-opacity=".052" stroke-width=".174" stroke-opacity=".37" paint-order="fill markers stroke"/><path style="isolation:auto;mix-blend-mode:normal;marker:none" d="M-64-71.833A7.833 7.833 0 0 0-71.833-64 7.833 7.833 0 0 0-64-56.167 7.833 7.833 0 0 0-56.167-64 7.833 7.833 0 0 0-64-71.833zm0 4A3.833 3.833 0 0 1-60.167-64 3.833 3.833 0 0 1-64-60.167 3.833 3.833 0 0 1-67.833-64 3.833 3.833 0 0 1-64-67.833z" color="#000" display="block" overflow="visible" fill="url(#f)" stroke-width=".17" stroke-opacity=".37" paint-order="fill markers stroke" transform="translate(72 72)"/><path style="isolation:auto;mix-blend-mode:normal;marker:none" d="M-67.972-70.751a7.87 7.87 0 0 0-2.779 2.78l3.187 2.696a3.79 3.79 0 0 1 2.289-2.29zm7.944 0l-2.697 3.187a3.79 3.79 0 0 1 2.29 2.289l3.186-2.697a7.87 7.87 0 0 0-2.78-2.779zm-7.537 8.027l-3.186 2.696a7.87 7.87 0 0 0 2.779 2.779l2.696-3.187a3.79 3.79 0 0 1-2.289-2.288zm7.129 0a3.79 3.79 0 0 1-2.288 2.289l2.696 3.186a7.87 7.87 0 0 0 2.779-2.779z" color="#000" overflow="visible" fill="url(#g)" stroke="#441201" stroke-width=".202" stroke-opacity=".391" paint-order="fill markers stroke" transform="translate(72 72)"/></svg>