<svg xmlns="http://www.w3.org/2000/svg" xmlns:xlink="http://www.w3.org/1999/xlink" height="16" viewBox="0 0 16 16" width="16"><title>Template icons dark</title><defs><linearGradient id="c"><stop offset="0" stop-color="#8298a2"/><stop offset="1" stop-color="#c3d5dc" stop-opacity=".984"/></linearGradient><linearGradient id="d"><stop offset="0" stop-color="#889da6"/><stop offset="1" stop-color="#b9cdd5" stop-opacity=".984"/></linearGradient><linearGradient id="e"><stop offset="0" stop-color="#758d98"/><stop offset="1" stop-color="#acc5ce" stop-opacity=".984"/></linearGradient><linearGradient id="b"><stop offset="0" stop-color="#e0eef7"/><stop offset="1" stop-color="#909b9c"/></linearGradient><linearGradient id="a"><stop offset="0" stop-color="#98aab2"/><stop offset="1" stop-color="#d3e0e5" stop-opacity=".984"/></linearGradient><linearGradient xlink:href="#a" id="g" gradientUnits="userSpaceOnUse" x1="141.165" y1="190.299" x2="186.52" y2="128" gradientTransform="translate(-90.415 -90.504) scale(.16545)"/><linearGradient xlink:href="#e" id="f" gradientUnits="userSpaceOnUse" x1="141.165" y1="190.299" x2="186.52" y2="128" gradientTransform="translate(-90.415 -90.504) scale(.16545)"/></defs><path style="isolation:auto;mix-blend-mode:normal;marker:none" d="M-69-71h10l1 1v11l-1 1h-10l-1-1v-11z" color="#000" overflow="visible" fill="url(#f)" stroke-width=".126" transform="translate(72 72)"/><path style="line-height:1000%;-inkscape-font-specification:'Nimbus Roman, '" d="M10.962 9.248V5.885h-.333c-.16 1.145-.406 1.348-1.595 1.377H6.932V4.044c.015-.435.058-.479.464-.493h1.972c1.681.029 1.97.232 2.203 1.522h.362L11.89 3H4.193v.275c1.058.073 1.232.261 1.26 1.305v6.277c-.014 1.232-.159 1.391-1.26 1.464v.275H8.25v-.275c-1.101-.044-1.304-.247-1.319-1.305v-3.16h2.102c1.189.015 1.42.217 1.595 1.392z" font-weight="400" font-family="Nimbus Roman" letter-spacing="0" word-spacing="0" fill-opacity=".456" stroke="#000" stroke-width=".906" stroke-opacity=".429"/><path style="line-height:1000%;-inkscape-font-specification:'Nimbus Roman, '" d="M11 8.798V5.435h-.333c-.16 1.145-.406 1.348-1.595 1.377H6.97V3.594c.015-.435.058-.479.464-.493h1.971c1.682.029 1.972.232 2.204 1.522h.362l-.043-2.073H4.23v.276c1.059.072 1.233.26 1.262 1.304v6.277c-.015 1.232-.16 1.391-1.262 1.464v.275h4.06v-.275c-1.102-.044-1.305-.247-1.32-1.305v-3.16h2.102c1.189.015 1.42.218 1.594 1.392z" font-weight="400" font-family="Nimbus Roman" letter-spacing="0" word-spacing="0" fill="#fdfefe" stroke="#fff" stroke-width=".555" stroke-opacity=".995"/></svg>