<svg xmlns="http://www.w3.org/2000/svg" xmlns:xlink="http://www.w3.org/1999/xlink" height="16" viewBox="0 0 16 16" width="16"><title>Template icons dark</title><defs><linearGradient id="k"><stop offset="0" stop-color="#4c4553"/><stop offset="1" stop-color="#3b3144" stop-opacity=".969"/></linearGradient><linearGradient id="j"><stop offset="0" stop-color="#3d3743"/><stop offset="1" stop-color="#2f2736" stop-opacity=".969"/></linearGradient><linearGradient id="d"><stop offset="0" stop-color="#f87c32"/><stop offset="1" stop-color="#fdab5a" stop-opacity=".996"/></linearGradient><linearGradient id="i"><stop offset="0" stop-color="#fff" stop-opacity=".125"/><stop offset="1" stop-color="#fff" stop-opacity="0"/></linearGradient><linearGradient id="h"><stop offset="0" stop-color="#fff" stop-opacity=".198"/><stop offset="1" stop-color="#fff" stop-opacity="0"/></linearGradient><linearGradient id="g"><stop offset="0" stop-color="#2c3749"/><stop offset="1" stop-color="#3d3c63"/></linearGradient><linearGradient id="f"><stop offset="0" stop-opacity=".129"/><stop offset=".347" stop-color="#4f4f4f" stop-opacity="0"/><stop offset=".765" stop-color="#8d8d8d" stop-opacity="0"/><stop offset="1" stop-color="#fff" stop-opacity=".104"/></linearGradient><linearGradient id="o"><stop offset="0" stop-opacity=".057"/><stop offset=".909" stop-color="#fff" stop-opacity=".02"/><stop offset="1" stop-color="#fff" stop-opacity=".536"/></linearGradient><linearGradient id="e"><stop offset="0" stop-color="#ff994a"/><stop offset="1" stop-color="#ffb555"/></linearGradient><linearGradient id="n"><stop offset="0" stop-opacity="0"/><stop offset=".887" stop-opacity=".078"/><stop offset="1" stop-color="#fff" stop-opacity=".464"/></linearGradient><linearGradient id="m"><stop offset="0" stop-opacity="0"/><stop offset=".887" stop-opacity=".078"/><stop offset="1" stop-opacity=".188"/></linearGradient><linearGradient id="l"><stop offset="0" stop-opacity=".057"/><stop offset=".909" stop-opacity=".021"/><stop offset="1" stop-opacity=".505"/></linearGradient><linearGradient id="c"><stop offset="0" stop-color="#f88232"/><stop offset="1" stop-color="#fdc85a" stop-opacity=".995"/></linearGradient><linearGradient id="b"><stop offset="0" stop-color="#ed7837" stop-opacity=".974"/><stop offset="1" stop-color="#e45a2a"/></linearGradient><linearGradient id="a"><stop offset="0" stop-color="#403a47"/><stop offset="1" stop-color="#2c2533" stop-opacity=".971"/></linearGradient><linearGradient gradientTransform="matrix(.22367 0 0 .24852 -101.695 -105.23)" xlink:href="#g" id="t" x1="188" y1="191" x2="188" y2="177" gradientUnits="userSpaceOnUse"/><linearGradient xlink:href="#c" id="s" gradientUnits="userSpaceOnUse" gradientTransform="rotate(-113.816 -54.013 -22.844) scale(.10304)" x1="-101.254" y1="-148.008" x2="-84.616" y2="-106.562"/><linearGradient xlink:href="#d" id="r" gradientUnits="userSpaceOnUse" gradientTransform="rotate(-41.818 -157.657 87.554) scale(.17219)" x1="104.202" y1="237.968" x2="124.46" y2="214.022"/><linearGradient xlink:href="#c" id="q" gradientUnits="userSpaceOnUse" gradientTransform="rotate(74.668 18.314 -114.425) scale(.17219)" x1="295.286" y1="-123.22" x2="267.135" y2="-118.871"/><linearGradient xlink:href="#c" id="p" gradientUnits="userSpaceOnUse" gradientTransform="rotate(175.638 -41.376 -45.92) scale(.17219)" x1="-112.967" y1="-156.148" x2="-80.17" y2="-124.045"/></defs><path style="isolation:auto;mix-blend-mode:normal;marker:none" d="M15.466 7.74a7.74 7.74 0 0 1-7.74 7.74 7.74 7.74 0 0 1-7.74-7.74A7.74 7.74 0 0 1 7.726 0a7.74 7.74 0 0 1 7.74 7.74z" color="#000" display="block" overflow="visible" fill="#191520" fill-opacity=".672" stroke-width=".016" stroke-miterlimit="4.6" paint-order="fill markers stroke"/><path style="isolation:auto;mix-blend-mode:normal;marker:none" d="M14.48 7.74a6.753 6.753 0 0 1-6.754 6.752A6.753 6.753 0 0 1 .973 7.74 6.753 6.753 0 0 1 7.726.986 6.753 6.753 0 0 1 14.48 7.74z" color="#000" display="block" overflow="visible" fill="#3f354a" stroke-width=".014" stroke-miterlimit="4.6" paint-order="fill markers stroke"/><path style="isolation:auto;mix-blend-mode:normal;marker:none" d="M-71.448-63.747a7.235 7.235 0 0 1 3.09-6.494l4.124 5.944z" color="#000" display="block" overflow="visible" fill="url(#p)" stroke-width="5.036" stroke-miterlimit="4.6" paint-order="fill markers stroke" transform="translate(72 72)"/><path style="isolation:auto;mix-blend-mode:normal;marker:none" d="M-62.85-59.256a5.248 5.248 0 0 1-5.05-1.303l3.663-3.758z" color="#000" display="block" overflow="visible" fill="url(#q)" stroke-width="5.036" stroke-miterlimit="4.6" paint-order="fill markers stroke" transform="translate(72 72)"/><path style="isolation:auto;mix-blend-mode:normal;marker:none" d="M-58.118-69.789a8.265 8.265 0 0 1 2.092 5.97l-8.252-.459z" color="#000" display="block" overflow="visible" fill="url(#r)" stroke-width="5.036" stroke-miterlimit="4.6" paint-order="fill markers stroke" transform="translate(72 72)"/><path style="isolation:auto;mix-blend-mode:normal;marker:none" d="M11.44 4.399a4.978 4.978 0 0 1 1.26 3.596l-4.97-.277z" color="#000" display="block" overflow="visible" fill="#fef6f0" fill-opacity=".422" stroke-width=".086" stroke-miterlimit="4.6" stroke-opacity=".307" paint-order="fill markers stroke"/><path style="isolation:auto;mix-blend-mode:normal;marker:none" d="M-65.351-68.483a4.33 4.33 0 0 1 2.93.265l-1.832 3.923z" color="#000" display="block" overflow="visible" fill="url(#s)" stroke-width="3.014" stroke-miterlimit="4.6" paint-order="fill markers stroke" transform="translate(72 72)"/><path style="isolation:auto;mix-blend-mode:normal;marker:none" d="M9.74 7.74a2.013 2.013 0 0 1-2.014 2.012A2.013 2.013 0 0 1 5.713 7.74a2.013 2.013 0 0 1 2.013-2.013A2.013 2.013 0 0 1 9.74 7.74z" color="#000" display="block" overflow="visible" fill="#37313e" stroke-width=".042" stroke-miterlimit="4.6" stroke-opacity=".344" paint-order="fill markers stroke"/><path style="isolation:auto;mix-blend-mode:normal;marker:none" d="M8.675 7.74a.949.949 0 0 1-.949.948.949.949 0 0 1-.948-.949.949.949 0 0 1 .948-.949.949.949 0 0 1 .95.95z" color="#000" display="block" overflow="visible" fill="#fff" fill-opacity=".943" stroke-width=".02" stroke-miterlimit="4.6" stroke-opacity=".344" paint-order="fill markers stroke"/><path style="isolation:auto;mix-blend-mode:normal;marker:none" d="M10 11h6v5h-6z" color="#000" display="block" overflow="visible" fill-opacity=".552" stroke-width="1.357" stroke-miterlimit="4.6" paint-order="fill markers stroke"/><path style="isolation:auto;mix-blend-mode:normal;marker:none" d="M-63-62h6v5h-6z" color="#000" display="block" overflow="visible" fill="url(#t)" stroke-width="1.357" stroke-miterlimit="4.6" paint-order="fill markers stroke" transform="translate(72 72)"/><path style="line-height:1000%" d="M13.687 12.693q-.272 0-.428.231-.153.231-.153.643 0 .406.153.64.156.231.428.231.265 0 .418-.23.156-.235.156-.64 0-.41-.156-.64-.153-.235-.418-.235zm0-.396q.493 0 .783.343.29.344.29.927 0 .584-.293.927-.29.34-.78.34-.5 0-.79-.34-.29-.343-.29-.927 0-.586.29-.927.293-.343.79-.343zm-3.221-1.9q-.269 0-.425.233-.153.231-.153.637 0 .412.153.643.153.231.425.231.271 0 .424-.23.156-.232.156-.644 0-.402-.156-.637-.156-.234-.424-.234zM13.284 10h.5l-2.916 4.835h-.499zm-2.818 0q.493 0 .786.343.294.34.294.924 0 .59-.294.93-.29.34-.786.34-.497 0-.787-.34-.287-.343-.287-.93 0-.58.29-.924.29-.343.784-.343z" font-family="sans-serif" letter-spacing="0" word-spacing="0" fill="#fff" stroke-width=".399"/></svg>