<svg xmlns="http://www.w3.org/2000/svg" height="16" viewBox="0 0 16 16" width="16"><title>Template icons dark</title><defs><linearGradient id="b"><stop offset="0" stop-color="#cfdde2"/><stop offset="1" stop-color="#90a1b1"/></linearGradient><linearGradient id="g"><stop offset="0" stop-color="#fff" stop-opacity="0"/><stop offset=".48" stop-color="#fff"/><stop offset="1" stop-color="#f5f6f6" stop-opacity="0"/></linearGradient><linearGradient id="e"><stop offset="0" stop-color="#eaf2f7"/><stop offset="1" stop-color="#99b4c0"/></linearGradient><linearGradient id="f"><stop offset="0" stop-color="#c1dae3"/><stop offset="1" stop-color="#8a98b4"/></linearGradient><linearGradient id="d"><stop offset="0" stop-color="#d2d2d2"/><stop offset="1" stop-color="#939393"/></linearGradient><linearGradient id="c"><stop offset="0" stop-color="#671e1e"/><stop offset="1" stop-color="#d04044"/></linearGradient><linearGradient id="a"><stop offset="0" stop-color="#0c528e"/><stop offset="1" stop-color="#5fb19b"/></linearGradient></defs><path style="isolation:auto;mix-blend-mode:normal;marker:none" d="M7.02 0c-.137 0-.213.108-.247.232l-.52 1.917c-.356.127-.824.304-1.139.469l-1.723-.993c-.112-.065-.244-.086-.34.01L1.65 3.037c-.096.096-.072.224-.008.335l.968 1.696c-.208.374-.377.769-.504 1.178l-1.873.505C.108 6.784 0 6.86 0 6.997v1.984c0 .136.108.21.232.244l1.833.499c.122.431.29.85.504 1.245l-.944 1.64c-.065.112-.086.244.01.34l1.402 1.402c.096.096.224.072.335.008l1.621-.928c.402.224.83.402 1.271.53l.487 1.807c.033.124.11.232.246.232h1.984c.136 0 .21-.108.244-.232l.492-1.806a6.165 6.165 0 0 0 1.256-.529l1.636.942c.112.065.244.086.34-.01l1.402-1.402c.096-.096.072-.226.008-.337l-.948-1.657c.206-.387.37-.795.49-1.217l1.867-.505c.124-.033.232-.108.232-.244V7.02c0-.136-.108-.212-.232-.246l-1.9-.515a6.152 6.152 0 0 0-.484-1.148l.991-1.72c.065-.111.086-.242-.01-.339L12.963 1.65c-.096-.096-.226-.072-.337-.008l-1.724.987c-.38-.156-.777-.35-1.132-.465L9.247.233C9.214.107 9.14 0 9.003 0zM8 3.175A4.838 4.838 0 0 1 12.825 8 4.838 4.838 0 0 1 8 12.825 4.838 4.838 0 0 1 3.175 8 4.838 4.838 0 0 1 8 3.175zm.002 1.219a3.601 3.601 0 0 0-3.618 3.614 3.603 3.603 0 0 0 3.618 3.617 3.6 3.6 0 0 0 3.615-3.617 3.598 3.598 0 0 0-3.615-3.614zm.01 1.416c1.223 0 2.2.977 2.2 2.2a2.191 2.191 0 0 1-2.2 2.202A2.193 2.193 0 0 1 5.81 8.01c0-1.223.98-2.2 2.202-2.2z" color="#000" overflow="visible" opacity=".9" fill="#fff" stroke-width=".333" stroke-opacity=".141" paint-order="fill markers stroke"/></svg>