<svg xmlns="http://www.w3.org/2000/svg" xmlns:xlink="http://www.w3.org/1999/xlink" height="16" viewBox="0 0 16 16" width="16"><title>Template icons dark</title><defs><linearGradient id="h"><stop offset="0" stop-color="#2aa591"/><stop offset="1" stop-color="#2498e4"/></linearGradient><linearGradient id="g"><stop offset="0" stop-color="#eeda60"/><stop offset="1" stop-color="#db9918"/></linearGradient><linearGradient id="b"><stop offset="0" stop-color="#2a0ff3" stop-opacity=".132"/><stop offset=".521" stop-color="#3bf963" stop-opacity=".291"/><stop offset="1" stop-color="#ef4cff" stop-opacity=".297"/></linearGradient><linearGradient id="a"><stop offset="0" stop-color="#e1e3e7"/><stop offset=".21" stop-color="#dee1e4"/><stop offset=".38" stop-color="#f1f2f3"/><stop offset=".67" stop-color="#c2c6cd"/><stop offset="1" stop-color="#d7dadf"/></linearGradient><linearGradient id="c"><stop offset="0" stop-color="#fff"/><stop offset="1" stop-color="#fff" stop-opacity="0"/></linearGradient><linearGradient id="d"><stop offset="0"/><stop offset="1" stop-opacity="0"/></linearGradient><linearGradient id="e"><stop offset="0" stop-color="#babdb6"/><stop offset="1" stop-color="#fff"/></linearGradient><linearGradient id="f"><stop offset="0" stop-color="#888a85"/><stop offset="1" stop-color="#555753"/></linearGradient><linearGradient xlink:href="#a" id="i" gradientUnits="userSpaceOnUse" x1="9.586" y1="4.485" x2="37.77" y2="43.886" gradientTransform="matrix(.66667 0 0 .66667 -79.833 -80)"/></defs><path d="M1 0v16h5v-3h4v3h5V0z" fill-opacity=".235" stroke-width=".667" stroke-opacity=".24"/><path d="M-69.976-71L-70-57h3v-3h6v3h3v-14z" fill="url(#i)" stroke-width=".667" stroke-opacity=".24" transform="translate(72 72)"/><path d="M3.5 2a.499.499 0 1 0 0 1 .499.499 0 1 0 0-1zm9 0a.499.499 0 1 0 0 1 .499.499 0 1 0 0-1zM3.518 8a.516.516 0 1 0 0 1.035.516.516 0 1 0 0-1.035zM12.5 8a.499.499 0 1 0 0 1 .499.499 0 1 0 0-1zm-9 5a.499.499 0 1 0 0 1 .499.499 0 1 0 0-1zm8.984 0a.499.499 0 1 0 0 1 .499.499 0 1 0 0-1z" fill="#454545" stroke-width=".667" stroke-opacity=".643"/><path d="M5 12v2h6v-2z" fill="#6c7587" fill-rule="evenodd" stroke-width=".667"/><path style="isolation:auto;mix-blend-mode:normal;marker:none" d="M6 12h4v2H6z" color="#000" display="block" overflow="visible" fill="#dbb518" stroke-width=".227" stroke-linecap="round" stroke-linejoin="round" stroke-opacity=".964"/><path style="isolation:auto;mix-blend-mode:normal;marker:none" d="M5 12h5.96l.04 1H5z" color="#000" display="block" overflow="visible" fill-opacity=".33" stroke-width=".114" stroke-linecap="round" stroke-linejoin="round" stroke-opacity=".964"/><path style="isolation:auto;mix-blend-mode:normal;marker:none" d="M7.538 3.024c-.062 0-.096.05-.112.107l-.222.836c-.202.06-.397.142-.58.246l-.741-.43c-.052-.03-.11-.04-.154.005l-.64.649c-.045.044-.035.105-.005.156l.43.761a2.873 2.873 0 0 0-.23.576l-.837.231c-.057.016-.106.05-.106.114v.918c0 .063.049.099.106.114l.856.234c.058.19.135.373.23.546l-.442.785c-.03.052-.04.111.003.156l.642.649c.044.045.103.034.154.004l.788-.46c.144.077.358.159.52.218l.239.888c.015.058.05.107.111.107h.907c.062 0 .097-.05.112-.107l.239-.895c.162-.054.344-.142.517-.215l.788.457c.051.03.11.04.154-.004l.641-.65c.044-.044.034-.104.004-.156l-.452-.796c.09-.17.165-.348.221-.532l.868-.24c.057-.015.106-.05.106-.113v-.919c0-.063-.05-.097-.106-.113l-.854-.234a2.873 2.873 0 0 0-.224-.563l.434-.768c.03-.051.04-.112-.004-.156l-.64-.65c-.045-.044-.104-.034-.155-.004l-.749.436a2.793 2.793 0 0 0-.573-.244l-.225-.837c-.016-.057-.05-.107-.112-.107zm.46 2.346c.738 0 1.337.607 1.337 1.355 0 .749-.599 1.356-1.338 1.356A1.347 1.347 0 0 1 6.66 6.725c0-.748.599-1.355 1.337-1.355z" color="#000" overflow="visible" fill="#656c76" stroke-width=".09" stroke-opacity=".808" paint-order="fill markers stroke"/></svg>