<svg xmlns="http://www.w3.org/2000/svg" xmlns:xlink="http://www.w3.org/1999/xlink" height="16" viewBox="0 0 16 16" width="16"><title>Template icons dark</title><defs><linearGradient id="c"><stop offset="0" stop-color="#35b8ff"/><stop offset="1" stop-color="#ffd578"/></linearGradient><linearGradient id="b"><stop offset="0" stop-opacity=".031"/><stop offset="1" stop-opacity=".266"/></linearGradient><linearGradient id="a"><stop offset="0" stop-color="#fff" stop-opacity="0"/><stop offset="1" stop-color="#e1f0f2" stop-opacity=".803"/></linearGradient><linearGradient xlink:href="#c" id="d" x1="184.536" y1="195.531" x2="131.031" y2="127.468" gradientUnits="userSpaceOnUse" gradientTransform="translate(-91.233 -91.236) scale(.17021)"/><linearGradient xlink:href="#a" id="e" gradientUnits="userSpaceOnUse" gradientTransform="matrix(.16611 -.0134 .0134 .16611 -92.742 -88.436)" x1="136.2" y1="136.006" x2="125.785" y2="189.342"/><linearGradient xlink:href="#b" id="f" gradientUnits="userSpaceOnUse" gradientTransform="scale(-.16665) rotate(64.278 93.687 450.297)" x1="177.255" y1="146.351" x2="140.341" y2="120.537"/><linearGradient xlink:href="#a" id="g" gradientUnits="userSpaceOnUse" gradientTransform="matrix(.16611 -.0134 .0134 .16611 -92.742 -88.436)" x1="139.777" y1="191.473" x2="200.801" y2="178.153"/><linearGradient xlink:href="#b" id="h" gradientUnits="userSpaceOnUse" x1="177.255" y1="146.351" x2="140.341" y2="120.537" gradientTransform="matrix(-.0895 .14059 -.14059 -.0895 -27.19 -72.166)"/><linearGradient xlink:href="#a" id="i" x1="193.184" y1="160.635" x2="155.531" y2="117.469" gradientUnits="userSpaceOnUse" gradientTransform="matrix(.16611 -.0134 .0134 .16611 -92.742 -88.436)"/><linearGradient xlink:href="#b" id="j" x1="177.255" y1="146.351" x2="140.341" y2="120.537" gradientUnits="userSpaceOnUse" gradientTransform="matrix(.16665 0 0 .16665 -90.664 -90.666)"/></defs><g color="#000" stroke-width="1.998"><path d="M-64-72a8 8 0 1 0 0 15.998 8 8 0 0 0 0-15.999zm0 5.542a2.456 2.456 0 1 1 0 4.913 2.456 2.456 0 0 1 0-4.913z" style="isolation:auto;mix-blend-mode:normal;marker:none" display="block" overflow="visible" fill="url(#d)" paint-order="fill markers stroke" transform="translate(72 72)"/><path d="M-70.892-59.94a8 8 0 0 0 2.846 2.838 7 7 0 0 1-.197-.309c-1.835-3.122.574-6.969 2.64-8.448.112-.096.231-.182.357-.257.12-.07.245-.129.375-.177l-3.187-4.599a8 8 0 0 0-2.834 10.952z" style="isolation:auto;mix-blend-mode:normal;marker:none" overflow="visible" fill="url(#e)" paint-order="fill markers stroke" transform="translate(72 72)"/><path d="M-68.256-57.242c.148.101.298.198.453.29a7.005 7.005 0 0 1-.196-.31c-1.558-2.667.378-6.2 1.768-7.757.225-.517.636-.849.636-.849-2.071 1.474-4.49 5.312-2.664 8.44.063.104.128.207.196.309-.066-.04-.129-.082-.193-.123z" style="isolation:auto;mix-blend-mode:normal;marker:none" overflow="visible" fill="url(#f)" paint-order="fill markers stroke" transform="translate(72 72)"/><path style="isolation:auto;mix-blend-mode:normal;marker:none" d="M-56.937-60.24a8 8 0 0 0 .935-3.909c-.05.111-.104.221-.16.33-1.706 3.194-6.245 3.146-8.586 2.155a2.456 2.456 0 0 1-.405-.17 2.455 2.455 0 0 1-.346-.227l-2.26 5.12a8 8 0 0 0 10.822-3.299z" overflow="visible" fill="url(#g)" paint-order="fill markers stroke" transform="translate(72 72)"/><path style="isolation:auto;mix-blend-mode:normal;marker:none" d="M-56.011-63.932c.008-.178.01-.358.007-.537-.05.11-.104.221-.16.33-1.446 2.729-5.469 2.941-7.524 2.58-.558.081-1.057-.093-1.057-.093 2.344.984 6.881 1.022 8.577-2.179.056-.108.109-.218.159-.33.002.077-.002.153-.002.23z" overflow="visible" fill="url(#h)" paint-order="fill markers stroke" transform="translate(72 72)"/><path d="M-64.64-71.976a8 8 0 0 0-3.796 1.322c.121-.017.243-.031.364-.042 3.61-.289 6.018 3.558 6.447 6.063.038.142.063.287.075.433.01.138.01.277-.004.414l5.53-.86a8 8 0 0 0-8.616-7.33z" style="isolation:auto;mix-blend-mode:normal;marker:none" overflow="visible" fill="url(#i)" paint-order="fill markers stroke" transform="translate(72 72)"/><path d="M-68.241-70.775c-.155.09-.308.183-.458.283.121-.017.243-.032.364-.043 3.08-.246 5.422 3.033 6.221 4.96.368.428.49.942.49.942-.43-2.505-2.837-6.352-6.448-6.064a7.01 7.01 0 0 0-.364.043c.064-.042.13-.08.195-.121z" style="isolation:auto;mix-blend-mode:normal;marker:none" overflow="visible" fill="url(#j)" paint-order="fill markers stroke" transform="translate(72 72)"/></g></svg>