<svg xmlns="http://www.w3.org/2000/svg" xmlns:xlink="http://www.w3.org/1999/xlink" height="16" viewBox="0 0 16 16" width="16" id="svg2"><title id="title4675">Template icons dark</title><defs id="defs22"><linearGradient id="linearGradient11855"><stop offset="0" id="stop11851" stop-opacity=".471"/><stop offset="1" id="stop11853" stop-opacity=".398"/></linearGradient><linearGradient id="linearGradient11845"><stop offset="0" id="stop11841" stop-opacity=".283"/><stop offset="1" id="stop11843" stop-color="#96d4fd" stop-opacity=".492"/></linearGradient><linearGradient id="linearGradient1272"><stop offset="0" id="stop1268" stop-color="#d4e4ef"/><stop offset="1" id="stop1270" stop-color="#c5b3cb"/></linearGradient><linearGradient id="linearGradient1264"><stop offset="0" id="stop1260" stop-color="#6c69e5" stop-opacity=".263"/><stop offset="1" id="stop1262" stop-color="#f3c6f8" stop-opacity=".272"/></linearGradient><linearGradient id="linearGradient1176"><stop offset="0" id="stop1172" stop-color="#5ca5ff"/><stop offset="1" id="stop1174" stop-color="#eb81ff"/></linearGradient><linearGradient id="linearGradient1151"><stop offset="0" id="stop1147" stop-color="#2395e4" stop-opacity=".979"/><stop offset="1" id="stop1149" stop-color="#40d0f0" stop-opacity=".984"/></linearGradient><linearGradient id="linearGradient1109"><stop offset="0" id="stop1105" stop-color="#d9dce8" stop-opacity=".99"/><stop offset="1" id="stop1107" stop-color="#ebf3ef" stop-opacity=".99"/></linearGradient><linearGradient id="linearGradient1064"><stop offset="0" id="stop1060" stop-color="#191c24"/><stop offset="1" id="stop1062" stop-color="#656177"/></linearGradient><linearGradient xlink:href="#linearGradient1064" id="linearGradient1066" x1="125" y1="203" x2="195" y2="117.567" gradientUnits="userSpaceOnUse"/><linearGradient xlink:href="#linearGradient1109" id="linearGradient1111" x1="194" y1="193.493" x2="194" y2="175.102" gradientUnits="userSpaceOnUse"/><linearGradient xlink:href="#linearGradient1064" id="linearGradient1165" gradientUnits="userSpaceOnUse" x1="125" y1="203" x2="195" y2="117.567"/><linearGradient xlink:href="#linearGradient1176" id="linearGradient1178" x1="129" y1="200" x2="191.567" y2="121" gradientUnits="userSpaceOnUse"/><linearGradient xlink:href="#linearGradient1151" id="linearGradient1185" gradientUnits="userSpaceOnUse" x1="144" y1="200" x2="179.567" y2="133" gradientTransform="matrix(1 0 0 1.01389 0 -1.833)"/><linearGradient xlink:href="#linearGradient1264" id="linearGradient1266" x1="128" y1="118" x2="193" y2="118" gradientUnits="userSpaceOnUse"/><linearGradient xlink:href="#linearGradient1272" id="linearGradient1274" x1="132.528" y1="193" x2="189" y2="122" gradientUnits="userSpaceOnUse"/><linearGradient xlink:href="#linearGradient1064" id="linearGradient1279" gradientUnits="userSpaceOnUse" x1="125" y1="203" x2="195" y2="117.567"/><linearGradient xlink:href="#linearGradient11845" id="linearGradient11847" x1="155" y1="196.575" x2="158.173" y2="206" gradientUnits="userSpaceOnUse"/><linearGradient xlink:href="#linearGradient11855" id="linearGradient11857" x1="159" y1="196" x2="159" y2="200" gradientUnits="userSpaceOnUse"/><linearGradient gradientTransform="matrix(1.33333 0 0 1.33333 58.138 57.825)" xlink:href="#linearGradient1272" id="linearGradient1274-3" x1="132.528" y1="193" x2="189" y2="122" gradientUnits="userSpaceOnUse"/><linearGradient gradientTransform="matrix(1.33333 0 0 1.33333 58.138 57.825)" xlink:href="#linearGradient1064" id="linearGradient1165-5" gradientUnits="userSpaceOnUse" x1="125" y1="203" x2="195" y2="117.567"/><linearGradient gradientTransform="matrix(1.33333 0 0 1.33333 58.138 57.825)" xlink:href="#linearGradient1264" id="linearGradient1266-6" x1="128" y1="118" x2="193" y2="118" gradientUnits="userSpaceOnUse"/><linearGradient gradientTransform="matrix(1.33333 0 0 1.33333 58.138 57.825)" xlink:href="#linearGradient1176" id="linearGradient1178-1" x1="129" y1="200" x2="191.567" y2="121" gradientUnits="userSpaceOnUse"/><linearGradient xlink:href="#linearGradient1151" id="linearGradient1185-0" gradientUnits="userSpaceOnUse" x1="144" y1="200" x2="179.567" y2="133" gradientTransform="matrix(1.33333 0 0 1.35185 58.138 55.381)"/><linearGradient gradientTransform="matrix(1.33333 0 0 1.33333 58.138 57.825)" xlink:href="#linearGradient11855" id="linearGradient11857-6" x1="159" y1="196" x2="159" y2="200" gradientUnits="userSpaceOnUse"/><linearGradient gradientTransform="matrix(1.33333 0 0 1.33333 58.138 57.825)" xlink:href="#linearGradient11845" id="linearGradient11847-1" x1="155" y1="196.575" x2="158.173" y2="206" gradientUnits="userSpaceOnUse"/><linearGradient xlink:href="#linearGradient11855" id="linearGradient1417" gradientUnits="userSpaceOnUse" gradientTransform="matrix(1.33333 0 0 1.33333 58.138 57.825)" x1="159" y1="196" x2="159" y2="200"/><linearGradient xlink:href="#linearGradient1064" id="linearGradient1419" gradientUnits="userSpaceOnUse" x1="125" y1="203" x2="195" y2="117.567"/><linearGradient xlink:href="#linearGradient1109" id="linearGradient1421" gradientUnits="userSpaceOnUse" x1="194" y1="193.493" x2="194" y2="175.102"/><linearGradient xlink:href="#linearGradient1064" id="linearGradient1423" gradientUnits="userSpaceOnUse" x1="125" y1="203" x2="195" y2="117.567"/><linearGradient gradientTransform="matrix(.67667 0 0 .67667 -28.242 -28.112)" xlink:href="#linearGradient1272" id="linearGradient1274-4" x1="132.528" y1="193" x2="189" y2="122" gradientUnits="userSpaceOnUse"/><linearGradient gradientTransform="matrix(.67667 0 0 .67667 -28.242 -28.112)" xlink:href="#linearGradient1064" id="linearGradient1165-54" gradientUnits="userSpaceOnUse" x1="125" y1="203" x2="195" y2="117.567"/><linearGradient gradientTransform="matrix(.67667 0 0 .67667 -28.242 -28.112)" xlink:href="#linearGradient1264" id="linearGradient1266-4" x1="128" y1="118" x2="193" y2="118" gradientUnits="userSpaceOnUse"/><linearGradient gradientTransform="matrix(.67667 0 0 .67667 -28.242 -28.112)" xlink:href="#linearGradient1176" id="linearGradient1178-7" x1="129" y1="200" x2="191.567" y2="121" gradientUnits="userSpaceOnUse"/><linearGradient xlink:href="#linearGradient1151" id="linearGradient1185-8" gradientUnits="userSpaceOnUse" x1="144" y1="200" x2="179.567" y2="133" gradientTransform="matrix(.67667 0 0 .68606 -28.242 -29.352)"/><linearGradient gradientTransform="matrix(.67667 0 0 .67667 -28.242 -28.112)" xlink:href="#linearGradient11855" id="linearGradient11857-4" x1="159" y1="196" x2="159" y2="200" gradientUnits="userSpaceOnUse"/><linearGradient gradientTransform="matrix(.67667 0 0 .67667 -28.242 -28.112)" xlink:href="#linearGradient11845" id="linearGradient11847-0" x1="155" y1="196.575" x2="158.173" y2="206" gradientUnits="userSpaceOnUse"/><linearGradient xlink:href="#linearGradient11855" id="linearGradient1575" gradientUnits="userSpaceOnUse" gradientTransform="matrix(.67667 0 0 .67667 -28.242 -28.112)" x1="159" y1="196" x2="159" y2="200"/><linearGradient xlink:href="#linearGradient1064" id="linearGradient1577" gradientUnits="userSpaceOnUse" x1="125" y1="203" x2="195" y2="117.567"/><linearGradient xlink:href="#linearGradient1109" id="linearGradient1579" gradientUnits="userSpaceOnUse" x1="194" y1="193.493" x2="194" y2="175.102"/><linearGradient xlink:href="#linearGradient1064" id="linearGradient1581" gradientUnits="userSpaceOnUse" x1="125" y1="203" x2="195" y2="117.567"/><linearGradient gradientTransform="matrix(.5 0 0 .5 -56.025 -55.557)" xlink:href="#linearGradient1272" id="linearGradient1274-9" x1="132.528" y1="193" x2="189" y2="122" gradientUnits="userSpaceOnUse"/><linearGradient gradientTransform="matrix(.5 0 0 .5 -56.025 -55.557)" xlink:href="#linearGradient1064" id="linearGradient1165-0" gradientUnits="userSpaceOnUse" x1="125" y1="203" x2="195" y2="117.567"/><linearGradient gradientTransform="matrix(.5 0 0 .5 -56.025 -55.557)" xlink:href="#linearGradient1264" id="linearGradient1266-5" x1="128" y1="118" x2="193" y2="118" gradientUnits="userSpaceOnUse"/><linearGradient xlink:href="#linearGradient1151" id="linearGradient1185-5" gradientUnits="userSpaceOnUse" x1="144" y1="200" x2="179.567" y2="133" gradientTransform="matrix(.5 0 0 .50694 -56.025 -56.474)"/><linearGradient xlink:href="#linearGradient11855" id="linearGradient1733" gradientUnits="userSpaceOnUse" gradientTransform="matrix(.5 0 0 .5 -56.025 -55.557)" x1="159" y1="196" x2="159" y2="200"/><linearGradient xlink:href="#linearGradient1064" id="linearGradient1735" gradientUnits="userSpaceOnUse" x1="125" y1="203" x2="195" y2="117.567"/><linearGradient xlink:href="#linearGradient1109" id="linearGradient1737" gradientUnits="userSpaceOnUse" x1="194" y1="193.493" x2="194" y2="175.102"/><linearGradient xlink:href="#linearGradient1064" id="linearGradient1739" gradientUnits="userSpaceOnUse" x1="125" y1="203" x2="195" y2="117.567"/><linearGradient gradientTransform="matrix(.33833 0 0 .33833 -69.748 -70.527)" xlink:href="#linearGradient1272" id="linearGradient1274-9-2" x1="132.528" y1="193" x2="189" y2="122" gradientUnits="userSpaceOnUse"/><linearGradient gradientTransform="matrix(.33833 0 0 .33833 -69.748 -70.527)" xlink:href="#linearGradient1064" id="linearGradient1165-0-0" gradientUnits="userSpaceOnUse" x1="125" y1="203" x2="195" y2="117.567"/><linearGradient gradientTransform="matrix(.33833 0 0 .33833 -69.748 -70.527)" xlink:href="#linearGradient1264" id="linearGradient1266-5-4" x1="128" y1="118" x2="193" y2="118" gradientUnits="userSpaceOnUse"/><linearGradient xlink:href="#linearGradient1151" id="linearGradient1185-5-2" gradientUnits="userSpaceOnUse" x1="144" y1="200" x2="179.567" y2="133" gradientTransform="matrix(.33833 0 0 .34303 -69.748 -71.147)"/><linearGradient xlink:href="#linearGradient11855" id="linearGradient1733-1" gradientUnits="userSpaceOnUse" gradientTransform="matrix(.33833 0 0 .33833 -69.748 -70.527)" x1="159" y1="196" x2="159" y2="200"/><linearGradient xlink:href="#linearGradient1064" id="linearGradient1939" gradientUnits="userSpaceOnUse" x1="125" y1="203" x2="195" y2="117.567"/><linearGradient xlink:href="#linearGradient1109" id="linearGradient1941" gradientUnits="userSpaceOnUse" x1="194" y1="193.493" x2="194" y2="175.102"/><linearGradient xlink:href="#linearGradient1064" id="linearGradient1943" gradientUnits="userSpaceOnUse" x1="125" y1="203" x2="195" y2="117.567"/><linearGradient xlink:href="#linearGradient11855" id="linearGradient1733-1-1" gradientUnits="userSpaceOnUse" gradientTransform="translate(-85.264 -85.19) scale(.25506)" x1="159" y1="196" x2="159" y2="200"/><linearGradient xlink:href="#linearGradient1151" id="linearGradient1185-5-2-6" gradientUnits="userSpaceOnUse" x1="144" y1="200" x2="179.567" y2="133" gradientTransform="matrix(.25506 0 0 .2586 -85.264 -85.657)"/><linearGradient gradientTransform="translate(-85.264 -85.19) scale(.25506)" xlink:href="#linearGradient1264" id="linearGradient1266-5-4-3" x1="128" y1="118" x2="193" y2="118" gradientUnits="userSpaceOnUse"/><linearGradient gradientTransform="translate(-85.264 -85.19) scale(.25506)" xlink:href="#linearGradient1064" id="linearGradient1165-0-0-5" gradientUnits="userSpaceOnUse" x1="125" y1="203" x2="195" y2="117.567"/><linearGradient gradientTransform="translate(-85.264 -85.19) scale(.25506)" xlink:href="#linearGradient1272" id="linearGradient1274-9-2-6" x1="132.528" y1="193" x2="189" y2="122" gradientUnits="userSpaceOnUse"/><linearGradient xlink:href="#linearGradient1151" id="linearGradient1185-5-2-6-8" gradientUnits="userSpaceOnUse" x1="144" y1="200" x2="179.567" y2="133" gradientTransform="matrix(.16911 0 0 .17146 -90.921 -91.584)"/><linearGradient gradientTransform="matrix(.16911 0 0 .16911 -90.921 -91.274)" xlink:href="#linearGradient1064" id="linearGradient1165-0-0-5-4" gradientUnits="userSpaceOnUse" x1="125" y1="203" x2="195" y2="117.567"/><linearGradient gradientTransform="matrix(.16911 0 0 .16911 -90.921 -91.274)" xlink:href="#linearGradient1272" id="linearGradient1274-9-2-6-6" x1="132.528" y1="193" x2="189" y2="122" gradientUnits="userSpaceOnUse"/><style id="style51071-8">.str0{stroke:#1f1a17;stroke-width:3}.fil0{fill:none}</style><style id="style2031-6">.str0{stroke:#1f1a17;stroke-width:.0762}.fil0,.fil1{fill:none}.fil1{fill-rule:nonzero}</style><style id="style5368-2">.str0,.str1{stroke:#000;stroke-width:63}.str1{stroke:#09098f}.fil5{fill:none}.fil1,.fil2{fill:#000}.fil3{fill:#4d66cc}.fil0{fill:#576ecd}.fil4{fill:#89a1d4}</style><style id="style51071">.str0{stroke:#1f1a17;stroke-width:3}.fil0{fill:none}</style><style id="style2031">.str0{stroke:#1f1a17;stroke-width:.0762}.fil0,.fil1{fill:none}.fil1{fill-rule:nonzero}</style><style id="style5368">.str0,.str1{stroke:#000;stroke-width:63}.str1{stroke:#09098f}.fil5{fill:none}.fil1,.fil2{fill:#000}.fil3{fill:#4d66cc}.fil0{fill:#576ecd}.fil4{fill:#89a1d4}</style></defs><g id="layer1" transform="translate(72 72)"><g id="layer6"><path style="isolation:auto;mix-blend-mode:normal;marker:none" d="M-71-72h14v16h-14z" id="rect1160-3-8-0-4" color="#000" overflow="visible" fill="#00010a" fill-opacity=".173" stroke-width=".169" stroke-opacity="0"/><path style="isolation:auto;mix-blend-mode:normal;marker:none" d="M-69-70h10v12h-10z" id="rect1187-0-0-0-2" color="#000" overflow="visible" fill="url(#linearGradient1274-9-2-6-6)" stroke-width=".169" stroke-opacity="0"/><path style="isolation:auto;mix-blend-mode:normal;marker:none" d="M-69.976-71L-70-57h12v-14zm.976 1h10v12h-10z" id="rect1029-4-2-4-2" color="#000" overflow="visible" fill="url(#linearGradient1165-0-0-5-4)" stroke-width=".169" stroke-opacity="0"/><path style="isolation:auto;mix-blend-mode:normal;marker:none" d="M-68-69h8v2h-8v-2z" id="rect1276-5-0-6-2" color="#000" display="block" overflow="visible" fill="#2d2d2d" fill-opacity=".995" stroke-width=".068"/><path style="isolation:auto;mix-blend-mode:normal;marker:none" d="M-67-68h6v12h-6z" id="rect1145-9-8-9-9" color="#000" overflow="visible" fill="url(#linearGradient1185-5-2-6-8)" stroke-width=".111" stroke-opacity=".262" paint-order="stroke fill markers"/><path style="isolation:auto;mix-blend-mode:normal;marker:none" d="M-61.038-60.546a.356.356 0 0 1-.114-.066c-.18-.074-.368-.127-.535-.23-.058-.009-.114-.024-.154-.073-.03-.008-.056-.028-.087-.037a.38.38 0 0 1-.215-.138c-.033-.023-.07-.043-.1-.068a.136.136 0 0 1-.076-.1c-.014-.063-.034-.127-.05-.19-.024-.064-.025-.132-.038-.198-.008-.037-.017-.069-.057-.08a.08.08 0 0 0-.037-.008c-.025 0-.05.01-.075.015a.187.187 0 0 1-.04.005c-.05 0-.077-.028-.087-.092-.008-.058-.024-.116-.026-.173-.006-.127-.025-.261.095-.355.14-.288.244-.59.327-.899.02-.07.052-.128.143-.13.055-.002.1-.041.117-.101.054-.182.106-.365.189-.536.025-.125.086-.241.092-.371-.002-.026.005-.052.003-.078l-.015-.028-.013-.01c.002-.056.006-.111.004-.166-.002-.078-.04-.142-.114-.162-.069-.018-.081-.057-.077-.119.016-.244.03-.489.043-.733l-.002-.023v-.014l-.022-.223c-.02-.176-.038-.355-.13-.512a1.769 1.769 0 0 0-.73-.693c-.26-.135-.544-.202-.829-.26a2.035 2.035 0 0 0-.408-.042c-.429 0-.82.15-1.171.454l.003.013a.35.35 0 0 0-.122.133 1.07 1.07 0 0 1-.218.269c-.154.145-.238.314-.213.529l-.017.01-.02.027c-.036.174.01.348.01.522.042.147.043.299.055.45.007.083-.016.139-.095.167-.1.036-.14.118-.153.216a.77.77 0 0 0 .01.308c.04.143.08.286.126.428.073.12.117.252.143.387.017.089.054.14.13.169a.166.166 0 0 1 .112.133c.023.104.061.204.093.305.036.083.097.156.097.253l.008.03c.174.281.267.577.153.909a.076.076 0 0 1-.058.027c-.04 0-.08-.03-.12-.031h-.03c-.045 0-.081.006-.093.067-.045.144-.07.294-.115.438a.267.267 0 0 1-.137.174 2.79 2.79 0 0 1-.502.209c-.116.083-.256.109-.386.158-.143.053-.29.093-.437.131 1.746 1.08 4.591.92 5.964.003z" id="path1043-21-0-7-0" color="#000" overflow="visible" fill="#eff9ff" stroke-width=".124" stroke-opacity="0"/><g id="g11818-78-6-2-2" transform="matrix(.10417 0 0 .10417 -82.541 -78.355)"><g transform="translate(-72.237 -123.395) scale(1.59009)" id="g11834-3-0-1-4"><path style="isolation:auto;mix-blend-mode:normal;marker:none" d="M124.157 132.5a4.453 4.453 0 0 1-4.452 4.453 4.453 4.453 0 0 1-4.453-4.453 4.453 4.453 0 0 1 4.453-4.453 4.453 4.453 0 0 1 4.452 4.453z" id="circle11832-0-2-9-9" color="#000" display="block" overflow="visible" fill="#fbfbfb" stroke-width=".524"/></g><g id="g2277" transform="translate(-72.464 -94.594) scale(1.59009)"><path id="path2275" d="M124.157 132.5a4.453 4.453 0 0 1-4.452 4.453 4.453 4.453 0 0 1-4.453-4.453 4.453 4.453 0 0 1 4.453-4.453 4.453 4.453 0 0 1 4.452 4.453z" style="isolation:auto;mix-blend-mode:normal;marker:none" color="#000" display="block" overflow="visible" fill="#fbfbfb" stroke-width=".524"/></g><g transform="translate(-72.464 -65.794) scale(1.59009)" id="g2281"><path style="isolation:auto;mix-blend-mode:normal;marker:none" d="M124.157 132.5a4.453 4.453 0 0 1-4.452 4.453 4.453 4.453 0 0 1-4.453-4.453 4.453 4.453 0 0 1 4.453-4.453 4.453 4.453 0 0 1 4.452 4.453z" id="path2279" color="#000" display="block" overflow="visible" fill="#fbfbfb" stroke-width=".524"/></g><g id="g2285" transform="translate(-72.464 -36.994) scale(1.59009)"><path id="path2283" d="M124.157 132.5a4.453 4.453 0 0 1-4.452 4.453 4.453 4.453 0 0 1-4.453-4.453 4.453 4.453 0 0 1 4.453-4.453 4.453 4.453 0 0 1 4.452 4.453z" style="isolation:auto;mix-blend-mode:normal;marker:none" color="#000" display="block" overflow="visible" fill="#fbfbfb" stroke-width=".524"/></g></g></g></g></svg>