<svg xmlns="http://www.w3.org/2000/svg" xmlns:xlink="http://www.w3.org/1999/xlink" height="16" viewBox="0 0 16 16" width="16"><title>Template icons dark</title><defs><linearGradient id="f"><stop offset="0" stop-color="#647780"/><stop offset="1" stop-color="#fff"/></linearGradient><linearGradient id="e"><stop offset="0" stop-opacity=".135"/><stop offset="1" stop-opacity="0"/></linearGradient><linearGradient id="d"><stop offset="0" stop-color="#391f3c" stop-opacity=".059"/><stop offset="1" stop-color="#391f3c" stop-opacity="0"/></linearGradient><linearGradient id="c"><stop offset="0" stop-color="#d8d8d8"/><stop offset="1" stop-color="#fff" stop-opacity=".995"/></linearGradient><linearGradient id="a"><stop offset="0" stop-color="#626262"/><stop offset="1" stop-color="#626262" stop-opacity="0"/></linearGradient><linearGradient id="b"><stop offset="0" stop-color="#69c2b7"/><stop offset="1" stop-color="#64a5b5"/></linearGradient><linearGradient gradientTransform="matrix(.1855 0 0 .1855 -93.687 -93.866)" xlink:href="#c" id="g" x1="196" y1="196" x2="160" y2="160" gradientUnits="userSpaceOnUse"/><linearGradient xlink:href="#b" id="h" gradientUnits="userSpaceOnUse" gradientTransform="matrix(.21849 0 0 .21849 -98.97 -98.33)" x1="161.606" y1="106.778" x2="161.606" y2="142.736"/></defs><path d="M16 12v1c0 1.15-1.85 3-3 3H3c-1.15 0-3-1.85-3-3v-1z" style="isolation:auto;mix-blend-mode:normal;marker:none" color="#000" display="block" overflow="visible" fill="#cacaca" fill-opacity=".172" stroke-width=".5"/><path style="isolation:auto;mix-blend-mode:normal;marker:none" d="M3 .024L13 0c1.15-.003 3 1.85 3 3v9c0 1.15-1.85 3-3 3H3c-1.15 0-3.003-1.85-3-3l.024-9C.027 1.85 1.849.026 3 .024z" color="#000" display="block" overflow="visible" fill="#ebebeb" stroke-width=".5"/><path style="isolation:auto;mix-blend-mode:normal;marker:none" d="M3 0C2 0 0 1.672 0 3.024L16 3c0-1-1.638-3-3-3z" color="#000" display="block" overflow="visible" fill="#594f54" fill-opacity=".172" stroke-width=".106" stroke-opacity=".583"/><path style="line-height:1000%;-inkscape-font-specification:Roboto" d="M-67.096-66.997c-.694 0-1.267.205-1.718.614a1.977 1.977 0 0 0-.672 1.531h.987c0-.402.126-.723.378-.965.257-.246.598-.369 1.025-.369.907 0 1.36.456 1.36 1.366 0 .406-.133.728-.4.967-.266.238-.633.36-1.099.368h-.741v.806h.741c.523.007.924.131 1.201.373.278.242.416.589.416 1.04 0 .467-.126.824-.378 1.073-.253.25-.618.374-1.094.374-.449 0-.806-.123-1.073-.368-.267-.246-.4-.573-.4-.982h-.993c0 .647.228 1.169.683 1.564.46.395 1.053.592 1.783.592.729 0 1.321-.205 1.777-.614.455-.409.683-.962.683-1.66 0-.451-.118-.834-.352-1.147-.232-.313-.56-.537-.988-.672.377-.157.675-.394.892-.71.22-.317.33-.644.33-.982 0-.69-.208-1.23-.624-1.617-.416-.388-.991-.582-1.724-.582zm6.25 0c-.844 0-1.463.278-1.858.833-.395.555-.592 1.403-.592 2.545v1.318c.014 1.093.22 1.915.619 2.466.398.548 1.012.822 1.841.822.84 0 1.457-.281 1.852-.843.395-.562.593-1.422.593-2.578v-1.28c-.011-1.118-.214-1.943-.609-2.477-.395-.537-1.01-.806-1.846-.806zm0 .811c.508 0 .88.192 1.115.577.235.38.352.989.352 1.825v1.617c-.01.811-.135 1.405-.373 1.782-.235.378-.596.566-1.084.566-.494 0-.864-.2-1.11-.598-.242-.402-.363-1.023-.363-1.862v-1.58c.007-.79.126-1.375.358-1.756.231-.38.6-.57 1.105-.57z" font-weight="400" font-family="Roboto" letter-spacing="0" word-spacing="0" fill="url(#h)" stroke-width=".683" transform="translate(72 72)"/><path style="isolation:auto;mix-blend-mode:normal;marker:none" color="#000" display="block" overflow="visible" fill="#fff" fill-opacity=".328" d="M5 1h1v1H5zM10 1h1v1h-1z"/></svg>