<svg xmlns="http://www.w3.org/2000/svg" xmlns:xlink="http://www.w3.org/1999/xlink" height="16" viewBox="0 0 16 16" width="16"><title>Template icons dark</title><defs><linearGradient id="a"><stop offset="0" stop-color="#4d77d3"/><stop offset=".453" stop-color="#767294"/><stop offset="1" stop-color="#a6659c"/></linearGradient><linearGradient id="b"><stop offset="0" stop-color="#0b1528"/><stop offset="1" stop-color="#473d49"/></linearGradient><linearGradient xlink:href="#a" id="d" x1="53.271" y1="55.429" x2="-10.45" y2="-7.238" gradientUnits="userSpaceOnUse" gradientTransform="matrix(.20728 0 0 .20093 -68.943 -68.71)"/><linearGradient xlink:href="#b" id="c" x1="26.4" y1="60.613" x2="26.4" y2="-12.187" gradientUnits="userSpaceOnUse" gradientTransform="matrix(.19782 0 0 .18761 -68.77 -68.525)"/></defs><g transform="translate(72 72)"><rect style="isolation:auto;mix-blend-mode:normal;marker:none" width="15.943" height="13.943" x="-72.004" y="-71.004" ry=".75" color="#000" overflow="visible" fill="url(#c)" stroke="#000" stroke-width=".057" stroke-opacity=".471"/><rect style="isolation:auto;mix-blend-mode:normal;marker:none" width="15.002" height="13.002" x="-71.534" y="-70.534" ry=".225" color="#000" overflow="visible" fill="none" stroke="url(#d)" stroke-width=".998"/><rect style="isolation:auto;mix-blend-mode:normal;marker:none" width="6" height="2" x="-65" y="-64" ry="0" color="#000" overflow="visible" fill="#e9f0fe" stroke-width=".408"/><path style="line-height:10;-inkscape-font-specification:'Ubuntu Mono'" d="M-68.291-62.89q.373 0 .622-.051.26-.063.405-.166.146-.115.208-.26.062-.156.062-.332 0-.26-.124-.436-.125-.187-.343-.322-.208-.145-.478-.25-.27-.113-.56-.217-.28-.104-.56-.229-.27-.124-.489-.3-.207-.188-.342-.437-.135-.26-.135-.633 0-.664.394-1.08.395-.415 1.142-.53V-69.2h.768v1.038q.416.02.758.104.353.072.56.155l-.176.727q-.218-.083-.55-.166-.332-.094-.84-.094-.561 0-.862.208-.291.208-.291.602 0 .218.083.364.093.145.26.26.166.113.384.207.228.093.508.197.353.135.686.29.332.146.58.354.25.207.395.498.156.29.156.696 0 .612-.405 1.038-.405.425-1.246.53V-61h-.768v-1.163q-.654-.02-1.059-.145-.405-.125-.602-.239l.229-.716q.28.135.664.26.384.114.965.114z" font-weight="400" font-size="10.102" font-family="Ubuntu Mono" letter-spacing="0" word-spacing="0" fill="#fff" fill-opacity=".989" stroke-width="1.028"/></g></svg>