<svg xmlns="http://www.w3.org/2000/svg" xmlns:xlink="http://www.w3.org/1999/xlink" height="16" viewBox="0 0 16 16" width="16"><title>Template icons dark</title><defs><linearGradient id="n"><stop offset="0" stop-color="#cacaca" stop-opacity="0"/><stop offset=".565" stop-color="#fff" stop-opacity=".422"/><stop offset="1" stop-color="#cacaca" stop-opacity="0"/></linearGradient><linearGradient id="o"><stop offset="0" stop-color="#fff" stop-opacity=".656"/><stop offset="1" stop-color="#fff" stop-opacity=".047"/></linearGradient><linearGradient id="p"><stop offset="0" stop-opacity=".26"/><stop offset="1" stop-color="#f0f0f0" stop-opacity="0"/></linearGradient><linearGradient id="m"><stop offset="0" stop-color="#fff" stop-opacity=".458"/><stop offset="1" stop-color="#fff" stop-opacity=".255"/></linearGradient><linearGradient id="l"><stop offset="0" stop-opacity=".146"/><stop offset=".494" stop-opacity=".506"/><stop offset="1" stop-opacity=".057"/></linearGradient><linearGradient id="k"><stop offset="0" stop-opacity=".156"/><stop offset="1" stop-color="#f0f0f0" stop-opacity="0"/></linearGradient><linearGradient id="a"><stop offset="0" stop-color="#58c19a"/><stop offset="1" stop-color="#38899d"/></linearGradient><linearGradient id="j"><stop offset="0" stop-opacity=".26"/><stop offset="1" stop-opacity="0"/></linearGradient><linearGradient id="g"><stop offset="0" stop-color="#afacd0"/><stop offset="1" stop-color="#eee"/></linearGradient><linearGradient id="i"><stop offset="0" stop-color="#cacaca" stop-opacity="0"/><stop offset=".583" stop-color="#fff" stop-opacity=".422"/><stop offset="1" stop-color="#cacaca" stop-opacity="0"/></linearGradient><linearGradient id="h"><stop offset="0" stop-color="#ececec"/><stop offset=".489" stop-color="#cacaca" stop-opacity=".459"/><stop offset="1" stop-color="#ececec"/></linearGradient><linearGradient id="c"><stop offset="0" stop-color="#bebebe"/><stop offset=".489" stop-color="#aeaeae" stop-opacity=".459"/><stop offset="1" stop-color="#bebebe"/></linearGradient><linearGradient id="b"><stop offset="0" stop-color="#dfdfdf"/><stop offset=".489" stop-color="silver" stop-opacity=".459"/><stop offset="1" stop-color="#dfdfdf"/></linearGradient><linearGradient id="d"><stop offset="0" stop-color="#444"/><stop offset="1" stop-color="#ececec"/></linearGradient><linearGradient id="e"><stop offset="0" stop-color="#a7a7a7"/><stop offset="1" stop-color="#eee"/></linearGradient><linearGradient id="f"><stop offset="0" stop-color="#a7a7a7"/><stop offset=".505" stop-color="#5b5b5b"/><stop offset="1" stop-color="#303030"/></linearGradient><linearGradient xlink:href="#a" id="q" gradientUnits="userSpaceOnUse" gradientTransform="matrix(1.16138 0 0 1.16874 -91.85 -91.052)" x1="23.981" y1="14.59" x2="23.981" y2="31.843"/><linearGradient xlink:href="#n" id="s" gradientUnits="userSpaceOnUse" x1="140.347" y1="191.371" x2="177.871" y2="191.371"/><linearGradient xlink:href="#c" id="r" gradientUnits="userSpaceOnUse" gradientTransform="matrix(.32771 0 0 .24329 -117.876 -100.67)" x1="160.971" y1="127.717" x2="167.448" y2="127.591"/></defs><g color="#000"><path style="isolation:auto;mix-blend-mode:normal;marker:none" d="M-68-72h8c1 0 3 2 3 3v10c0 .99-2 3-3 3h-8c-1 0-3-2-3-3v-10c0-1 2-3 3-3z" display="block" overflow="visible" fill="url(#q)" stroke-width=".44" paint-order="fill markers stroke" transform="translate(72 72)"/><path style="isolation:auto;mix-blend-mode:normal;marker:none" d="M11 0v7l-3 3-3-3V0z" overflow="visible" fill-opacity=".557" stroke-width=".126" paint-order="fill markers stroke"/><path style="isolation:auto;mix-blend-mode:normal;marker:none" d="M-66-72h2zm2 0v1h2v-1zm0 1h-2v1h2zm0 1v1h2v-1zm0 1h-2v1h2zm0 1v1h2v-1zm0 1h-2v1h2zm0 1v1h2v-1zm0 1h-2v1h2z" display="block" overflow="visible" fill="url(#r)" stroke-width=".185" stroke-opacity=".957" paint-order="fill markers stroke" transform="translate(72 72)"/><path d="M8.012 5.4c-.914 0-1.506.744-1.651 1.642l-1.308 4.805c-.26 1.61 1.32 2.942 2.96 2.942 1.639 0 3.219-1.333 2.959-2.942L9.664 7.042c-.146-.898-.737-1.641-1.652-1.641zm0 1.36a.79.79 0 0 1 .793.788.79.79 0 0 1-.793.789.79.79 0 0 1-.793-.79.79.79 0 0 1 .793-.787zm0 2.82c1.067 0 1.932.86 1.932 1.92s-.865 1.92-1.932 1.92A1.926 1.926 0 0 1 6.08 11.5c0-1.06.865-1.921 1.932-1.92z" style="isolation:auto;mix-blend-mode:normal;marker:none" display="block" overflow="visible" fill-opacity=".313" stroke-width=".1" stroke-opacity=".995" paint-order="fill markers stroke"/><path style="isolation:auto;mix-blend-mode:normal;marker:none" d="M8.012 5.69c-1.11 0-1.828.902-2.005 1.993l-.604 3.772c-.23 1.419 1.164 2.594 2.61 2.594 1.445 0 2.838-1.175 2.609-2.594l-.605-3.772c-.176-1.09-.894-1.994-2.005-1.994zm0 1.049a.97.97 0 0 1 .973.966.97.97 0 0 1-.973.968.97.97 0 0 1-.972-.968.97.97 0 0 1 .972-.966zm0 3.045c.92 0 1.664.74 1.664 1.654 0 .914-.745 1.654-1.664 1.654-.919 0-1.664-.74-1.664-1.654 0-.913.745-1.654 1.664-1.654z" overflow="visible" fill="#e7e7e7" stroke-width=".083" stroke-opacity=".995" paint-order="fill markers stroke"/><g opacity=".764"><path d="M4 0C2.798 0 1 2.203 1 3.503v.476C1 2.843 2.47 1 4 1h8s3 1 3 3.476V4c0-2.38-2.15-4-3-4z" style="isolation:auto;mix-blend-mode:normal;marker:none" overflow="visible" fill="#fff" fill-opacity=".505" stroke-width=".909" paint-order="fill markers stroke"/><path style="isolation:auto;mix-blend-mode:normal;marker:none" d="M151.191 174.806h16.793v2.099H151.19z" display="block" overflow="visible" fill="url(#s)" stroke-width=".829" paint-order="fill markers stroke" transform="matrix(.4764 0 0 .4764 -68.028 -68.278)"/></g></g></svg>