<svg xmlns="http://www.w3.org/2000/svg" xmlns:xlink="http://www.w3.org/1999/xlink" height="16" viewBox="0 0 16 16" width="16"><title>Template icons dark</title><defs><linearGradient id="h"><stop offset="0" stop-color="#e1140e"/><stop offset="1" stop-color="#951318"/></linearGradient><linearGradient id="g" gradientTransform="matrix(0 -100 -100 0 96 146)" gradientUnits="userSpaceOnUse" x2="1"><stop offset="0" stop-color="#fff"/><stop offset="1" stop-color="#c7c7c7"/></linearGradient><linearGradient id="b"><stop offset="0" stop-color="#c6120c"/><stop offset="1" stop-color="#490306"/></linearGradient><linearGradient id="f"><stop offset="0" stop-opacity=".736"/><stop offset="1" stop-opacity="0"/></linearGradient><linearGradient id="e"><stop offset="0" stop-opacity=".742"/><stop offset="1" stop-opacity="0"/></linearGradient><linearGradient id="d"><stop offset="0" stop-color="#8c1919"/><stop offset="1" stop-color="#ff3030"/></linearGradient><linearGradient id="i"><stop offset="0" stop-color="#fff"/><stop offset="1" stop-color="#dac7b4"/></linearGradient><linearGradient id="c"><stop offset="0" stop-color="#362c2d" stop-opacity=".374"/><stop offset="1" stop-opacity="0"/></linearGradient><linearGradient id="a"><stop offset="0" stop-color="#2c2e31"/><stop offset="1" stop-color="#40464d"/></linearGradient><linearGradient xlink:href="#g" id="u" gradientUnits="userSpaceOnUse" x1="177.323" y1="176" x2="177.323" y2="200" gradientTransform="matrix(.21294 0 0 .21294 -97.89 -96.493)"/><linearGradient xlink:href="#h" id="t" gradientUnits="userSpaceOnUse" x1="173.088" y1="180.647" x2="173.088" y2="200" gradientTransform="matrix(.21294 0 0 .21294 -97.89 -96.493)"/><linearGradient xlink:href="#b" id="n" x1="-567.013" y1="546.542" x2="-567.013" y2="541.888" gradientUnits="userSpaceOnUse" gradientTransform="matrix(.16274 0 0 .16274 28.307 -152.483)"/><linearGradient xlink:href="#a" id="m" x1="-553.436" y1="535.695" x2="-538.458" y2="525.571" gradientUnits="userSpaceOnUse" gradientTransform="matrix(.16274 0 0 .16274 28.307 -152.483)"/><linearGradient xlink:href="#a" id="l" x1="-591.369" y1="535.056" x2="-580.187" y2="522.822" gradientUnits="userSpaceOnUse" gradientTransform="matrix(.16274 0 0 .16274 28.307 -152.483)"/><linearGradient xlink:href="#c" id="k" x1="166" y1="152" x2="166" y2="146" gradientUnits="userSpaceOnUse" gradientTransform="matrix(.32646 0 0 .32646 -117.538 -110.775)"/><linearGradient xlink:href="#g" id="o" gradientUnits="userSpaceOnUse" gradientTransform="matrix(.21294 0 0 .21294 -97.89 -96.493)" x1="177.323" y1="176" x2="177.323" y2="200"/><linearGradient xlink:href="#g" id="p" gradientUnits="userSpaceOnUse" gradientTransform="matrix(.21294 0 0 .21294 -97.89 -96.493)" x1="177.323" y1="176" x2="177.323" y2="200"/><linearGradient xlink:href="#h" id="q" gradientUnits="userSpaceOnUse" gradientTransform="matrix(.21294 0 0 .21294 -97.89 -96.493)" x1="173.088" y1="180.647" x2="173.088" y2="200"/><linearGradient xlink:href="#h" id="r" gradientUnits="userSpaceOnUse" gradientTransform="matrix(.21294 0 0 .21294 -97.89 -96.493)" x1="173.088" y1="180.647" x2="173.088" y2="200"/><linearGradient xlink:href="#g" id="s" gradientUnits="userSpaceOnUse" gradientTransform="matrix(.21294 0 0 .21294 -97.89 -96.493)" x1="177.323" y1="176" x2="177.323" y2="200"/><radialGradient xlink:href="#i" id="j" cx="167.805" cy="136.668" fx="167.805" fy="136.668" r="20.669" gradientTransform="matrix(.32646 0 0 .26978 -117.538 -103.074)" gradientUnits="userSpaceOnUse"/></defs><path d="M-69.712-62.624c2.994 2.808 9.379 1.86 11.742.096 1.033-.999.677-2.438-.259-2.785 2.744-6.094-6.658-9.9-8.632-2.982-1.16-2.162-5.54-.02-2.803 2.806-1.355.217-1.746 2.295-.048 2.865z" fill="url(#j)" fill-rule="evenodd" stroke-width=".149" transform="translate(72 72)"/><path d="M-69.712-62.624c2.994 2.808 9.379 1.86 11.742.096 1.033-.999.677-2.438-.259-2.785 2.744-6.094-6.658-9.9-8.632-2.982-1.16-2.162-5.54-.02-2.803 2.806-1.355.217-1.746 2.295-.048 2.865z" fill="url(#k)" fill-rule="evenodd" stroke-width=".149" transform="translate(72 72)"/><path d="M-65.904-65.41a1.013 1.013 0 1 1-2.026 0 1.013 1.013 0 0 1 2.026 0z" fill="url(#l)" stroke-width=".098" stroke-linecap="round" stroke-linejoin="round" transform="translate(72 72)"/><path d="M-59.731-65.307a1.013 1.013 0 1 1-2.026 0 1.013 1.013 0 0 1 2.026 0z" fill="url(#m)" stroke-width=".098" stroke-linecap="round" stroke-linejoin="round" transform="translate(72 72)"/><path d="M-62.306-64.145c-.24 1.841-2.906 1.735-3.025-.022-.02-.173.015-.158.183-.16l2.625-.014c.23-.02.234.004.217.196z" opacity=".848" fill="url(#n)" fill-rule="evenodd" stroke-width=".156" transform="translate(72 72)"/><path d="M-66.135-56h1.459l-.206-5.322c-.003-.801-1.397-1.052-1.602-.193z" fill="url(#o)" fill-rule="evenodd" stroke-width=".136" transform="translate(72 72)"/><path d="M-61.894-56h-1.315l.115-5.363c.003-.8 1.397-1.051 1.601-.192z" fill="url(#p)" fill-rule="evenodd" stroke-width=".136" transform="translate(72 72)"/><path d="M-64.775-56h1.566l.122-5.178c-.01-1.15-1.793-1.154-1.798-.018z" fill="url(#q)" fill-rule="evenodd" stroke-width=".136" transform="translate(72 72)"/><path d="M-60.508-56h-1.477l.41-5.588c.022-.8 1.453-1.02 1.645-.157z" fill="url(#r)" fill-rule="evenodd" stroke-width=".136" transform="translate(72 72)"/><path d="M-59.38-56h-1.22l.677-5.874c.061-.799 1.456-.948 1.597-.076z" fill="url(#s)" fill-rule="evenodd" stroke-width=".136" transform="translate(72 72)"/><path d="M-67.422-56h1.459l-.519-5.547c-.021-.801-1.453-1.02-1.645-.157z" fill="url(#t)" fill-rule="evenodd" stroke-width=".136" transform="translate(72 72)"/><path d="M-68.636-56h1.287l-.784-5.834c-.062-.798-1.456-.948-1.598-.076z" fill="url(#u)" fill-rule="evenodd" stroke-width=".136" transform="translate(72 72)"/></svg>