<svg xmlns="http://www.w3.org/2000/svg" xmlns:xlink="http://www.w3.org/1999/xlink" height="16" viewBox="0 0 16 16" width="16"><title>Template icons dark</title><defs><linearGradient id="b"><stop offset="0" stop-color="#cfdde2"/><stop offset="1" stop-color="#90a1b1"/></linearGradient><linearGradient id="g"><stop offset="0" stop-color="#fff" stop-opacity="0"/><stop offset=".48" stop-color="#fff"/><stop offset="1" stop-color="#f5f6f6" stop-opacity="0"/></linearGradient><linearGradient id="e"><stop offset="0" stop-color="#eaf2f7"/><stop offset="1" stop-color="#99b4c0"/></linearGradient><linearGradient id="f"><stop offset="0" stop-color="#c1dae3"/><stop offset="1" stop-color="#8a98b4"/></linearGradient><linearGradient id="d"><stop offset="0" stop-color="#d2d2d2"/><stop offset="1" stop-color="#939393"/></linearGradient><linearGradient id="c"><stop offset="0" stop-color="#671e1e"/><stop offset="1" stop-color="#d04044"/></linearGradient><linearGradient id="a"><stop offset="0" stop-color="#0c708e"/><stop offset="1" stop-color="#4dc3a3"/></linearGradient><linearGradient xlink:href="#a" id="i" x1="10.43" y1="43.068" x2="38.891" y2="13.193" gradientUnits="userSpaceOnUse" gradientTransform="matrix(.166 0 0 .166 -91.892 -92.423)"/><linearGradient gradientTransform="matrix(.17204 0 0 .17204 -91.527 -91.527)" xlink:href="#b" id="h" gradientUnits="userSpaceOnUse" x1="161.702" y1="118.898" x2="161.702" y2="197.932"/></defs><g color="#000"><path d="M7.05.258c-.13 0-.204.104-.237.224L6.31 2.337c-.344.123-.797.295-1.101.454l-1.67-.96c-.108-.063-.233-.084-.326.009L1.854 3.197c-.093.093-.07.217-.009.325l.938 1.64a5.958 5.958 0 0 0-.488 1.142l-1.813.488c-.12.032-.224.106-.224.237v1.92c0 .132.104.204.224.237l1.773.483c.119.417.283.821.49 1.203l-.915 1.59c-.062.108-.083.233.01.326l1.357 1.358c.093.093.217.07.325.009l1.569-.898c.39.216.802.389 1.23.513l.47 1.748c.033.12.107.224.238.224h1.92c.132 0 .204-.104.237-.224l.476-1.75c.422-.124.83-.295 1.214-.51l1.586.912c.108.062.233.083.326-.01l1.358-1.357c.093-.093.07-.218.009-.327l-.92-1.604c.2-.374.36-.769.475-1.177l1.808-.488c.12-.033.224-.105.224-.236V7.05c0-.132-.104-.205-.224-.238l-1.838-.499a5.958 5.958 0 0 0-.468-1.112l.958-1.664c.062-.108.083-.233-.01-.326l-1.357-1.358c-.093-.092-.218-.07-.327-.009l-1.668.956c-.367-.151-.752-.338-1.096-.449L9.207.482C9.174.362 9.102.258 8.97.258H7.05zm.951 4.918a2.832 2.832 0 1 1 0 5.664 2.832 2.832 0 0 1 0-5.664z" style="isolation:auto;mix-blend-mode:normal;marker:none" overflow="visible" fill="none" stroke="#000" stroke-width=".516" stroke-opacity=".304" paint-order="fill markers stroke"/><path style="isolation:auto;mix-blend-mode:normal;marker:none" d="M-64.95-71.742c-.13 0-.204.104-.237.224l-.504 1.855c-.344.123-.797.295-1.101.454l-1.67-.96c-.108-.063-.233-.084-.326.009l-1.358 1.357c-.093.093-.07.217-.009.325l.938 1.64a5.958 5.958 0 0 0-.488 1.142l-1.813.488c-.12.032-.224.106-.224.237v1.92c0 .132.104.204.224.237l1.773.483c.119.417.283.821.49 1.203l-.915 1.59c-.062.108-.083.233.01.326l1.357 1.358c.093.093.217.07.325.009l1.569-.898c.39.216.802.389 1.23.513l.47 1.748c.033.12.107.224.238.224h1.92c.132 0 .204-.104.237-.224l.476-1.75c.422-.124.83-.295 1.214-.51l1.586.912c.108.062.233.083.326-.01l1.358-1.357c.093-.093.07-.218.009-.327l-.92-1.604c.2-.374.36-.769.475-1.177l1.808-.488c.12-.033.224-.105.224-.236v-1.92c0-.132-.104-.205-.224-.238l-1.838-.499a5.958 5.958 0 0 0-.468-1.112l.958-1.664c.062-.108.083-.233-.01-.326l-1.357-1.358c-.093-.092-.218-.07-.327-.009l-1.668.956c-.367-.151-.752-.338-1.096-.449l-.505-1.87c-.033-.12-.105-.224-.236-.224h-1.92zm.951 4.918a2.832 2.832 0 1 1 0 5.664 2.832 2.832 0 0 1 0-5.664z" overflow="visible" fill="url(#h)" stroke-width=".322" stroke-opacity=".141" paint-order="fill markers stroke" transform="translate(72 72)"/><path d="M-64-68.67c-2.569 0-4.67 2.1-4.67 4.67 0 2.568 2.101 4.67 4.67 4.67 2.57 0 4.67-2.102 4.67-4.67A4.68 4.68 0 0 0-64-68.67zm.001 1.179a3.483 3.483 0 0 1 3.499 3.499c0 1.944-1.554 3.5-3.499 3.5a3.486 3.486 0 0 1-3.5-3.5 3.485 3.485 0 0 1 3.5-3.5z" style="line-height:normal;text-indent:0;text-align:start;text-decoration-line:none;text-decoration-style:solid;text-decoration-color:#000;text-transform:none;isolation:auto;mix-blend-mode:normal;marker:none" font-weight="400" font-family="sans-serif" white-space="normal" overflow="visible" fill="url(#i)" stroke-width=".344" paint-order="fill markers stroke" transform="translate(72 72)"/><path d="M8.01 4.416a3.612 3.612 0 0 0-3.602 3.602 3.613 3.613 0 0 0 3.603 3.603 3.612 3.612 0 0 0 3.601-3.603 3.61 3.61 0 0 0-3.601-3.602z" style="line-height:normal;text-indent:0;text-align:start;text-decoration-line:none;text-decoration-style:solid;text-decoration-color:#000;text-transform:none;isolation:auto;mix-blend-mode:normal;marker:none" font-weight="400" font-family="sans-serif" white-space="normal" overflow="visible" fill="#b1c7d0" stroke-width=".351" stroke-opacity=".141" paint-order="fill markers stroke"/></g></svg>