<svg xmlns="http://www.w3.org/2000/svg" xmlns:xlink="http://www.w3.org/1999/xlink" height="16" viewBox="0 0 16 16" width="16"><title>Template icons dark</title><defs><linearGradient id="b"><stop offset="0" stop-color="#212121"/><stop offset="1" stop-color="#282828"/></linearGradient><linearGradient id="a"><stop offset="0" stop-color="#8683ee"/><stop offset="1" stop-color="#1ed7b6"/></linearGradient><linearGradient xlink:href="#a" id="c" x1="183.831" y1="182.717" x2="134.463" y2="144.519" gradientUnits="userSpaceOnUse" gradientTransform="matrix(.17226 0 0 .17226 -91.572 -91.572)"/><linearGradient xlink:href="#a" id="d" x1="4.376" y1="5.854" x2="42.128" y2="43.605" gradientUnits="userSpaceOnUse" gradientTransform="matrix(.3671 0 0 .3671 -72.851 -73.394)"/></defs><g transform="translate(72 72)"><circle style="isolation:auto;mix-blend-mode:normal;marker:none" cx="-64.011" cy="-64.011" r="8" color="#000" display="block" overflow="visible" fill-opacity=".078" stroke-width=".347"/><circle style="isolation:auto;mix-blend-mode:normal;marker:none" cx="-64.011" cy="-64.011" r="7.667" color="#000" overflow="visible" fill="#303030" stroke-width=".427"/><circle r="7.667" cy="-64.011" cx="-64.011" style="isolation:auto;mix-blend-mode:normal;marker:none" color="#000" overflow="visible" opacity=".119" fill="url(#c)" stroke-width=".427"/><path style="line-height:normal;font-variant-ligatures:normal;font-variant-position:normal;font-variant-caps:normal;font-variant-numeric:normal;font-variant-alternates:normal;font-feature-settings:normal;text-indent:0;text-align:start;text-decoration-line:none;text-decoration-style:solid;text-decoration-color:#000;text-transform:none;text-orientation:mixed;shape-padding:0;isolation:auto;mix-blend-mode:normal;marker:none" d="M-64.011-71.678a7.67 7.67 0 0 0-7.667 7.667 7.67 7.67 0 0 0 7.667 7.666 7.67 7.67 0 0 0 7.666-7.666 7.67 7.67 0 0 0-7.666-7.667zm0 .417a7.247 7.247 0 0 1 7.25 7.25 7.247 7.247 0 0 1-7.25 7.25 7.247 7.247 0 0 1-7.25-7.25 7.247 7.247 0 0 1 7.25-7.25z" color="#000" font-weight="400" font-family="sans-serif" white-space="normal" overflow="visible" fill="url(#d)" stroke-width=".427"/><path d="M-59.75-67.115l-4.518 4.318 4.518 4.32.006-2.055-2.265-2.265 2.263-2.263z" fill="#7f91e9" fill-rule="evenodd" stroke-width="2.128"/><path d="M-68.084-69.444l4.518 4.12-4.518 4.118.003-2.063 2.256-2.056-2.25-2.05z" fill="#25c9bb" fill-rule="evenodd" stroke-width="2.128"/></g></svg>