<svg xmlns="http://www.w3.org/2000/svg" xmlns:xlink="http://www.w3.org/1999/xlink" height="16" viewBox="0 0 16 16" width="16"><title>Template icons dark</title><defs><linearGradient id="e"><stop offset="0" stop-color="#242a34"/><stop offset="1" stop-color="#443f4c"/></linearGradient><linearGradient id="d"><stop offset="0" stop-color="#b1e3f2"/><stop offset="1"/></linearGradient><linearGradient id="f"><stop offset="0" stop-color="#aea6b6"/><stop offset="1" stop-color="#e4e4e4"/></linearGradient><linearGradient id="c"><stop offset="0" stop-color="#2d3840"/><stop offset="1" stop-color="#5f5777"/></linearGradient><linearGradient id="b"><stop offset="0" stop-color="#e8c2ee"/><stop offset="1" stop-color="#98d1e8"/></linearGradient><linearGradient id="a"><stop offset="0" stop-color="#50b4ce"/><stop offset="1" stop-color="#df2fb9" stop-opacity=".974"/></linearGradient><linearGradient id="g"><stop offset="0" stop-color="#e8c2ee"/><stop offset="1" stop-color="#98d1e8"/></linearGradient><linearGradient xlink:href="#f" id="h" gradientUnits="userSpaceOnUse" gradientTransform="matrix(.15606 0 0 .15598 -88.961 -89.162)" x1="151.033" y1="198.284" x2="151.033" y2="118.162"/><linearGradient xlink:href="#a" id="i" x1="120.752" y1="131.244" x2="191.98" y2="189.032" gradientUnits="userSpaceOnUse" gradientTransform="matrix(0 -.15762 .15762 0 -89.207 -40.131)"/><linearGradient xlink:href="#g" id="j" x1="151" y1="147" x2="151" y2="171.95" gradientUnits="userSpaceOnUse" gradientTransform="matrix(.13304 0 0 .13304 -84.204 -85.365)"/></defs><g color="#000"><path style="isolation:auto;mix-blend-mode:normal;marker:none" d="M5.496 15.77C3.613 12.51 1.883 9.372 0 6.111c1.499-2.596 1.155-1.96 2.331-3.996h11.317c1.126 1.95 1.03 1.73 2.34 3.996-1.897 3.285-3.6 6.375-5.496 9.66z" overflow="visible" fill="#000808" fill-opacity=".147" stroke-width=".088" stroke-opacity="0"/><path d="M-66.276-56.598c-1.777-3.079-3.574-6.162-5.352-9.24 1.416-2.451 1.162-1.805 2.272-3.728h10.7c1.062 1.841 1.033 1.588 2.269 3.728-1.79 3.101-3.56 6.139-5.35 9.24z" style="isolation:auto;mix-blend-mode:normal;marker:none" overflow="visible" fill="url(#h)" stroke="url(#linearGradient1010)" stroke-width=".183" transform="translate(72 72)"/><path d="M10.504.295c1.882 3.261 3.613 6.399 5.496 9.66-1.5 2.596-1.156 1.96-2.332 3.996H2.351c-1.126-1.95-1.03-1.73-2.339-3.997C1.908 6.67 3.612 3.58 5.508.295z" style="isolation:auto;mix-blend-mode:normal;marker:none" overflow="visible" fill="#000808" fill-opacity=".147" stroke-width=".088" stroke-opacity="0"/><path style="isolation:auto;mix-blend-mode:normal;marker:none" d="M-61.72-71.355c1.783 3.086 3.584 6.177 5.366 9.263-1.419 2.457-1.164 1.81-2.278 3.738h-10.725c-1.066-1.846-1.036-1.592-2.275-3.738 1.795-3.109 3.568-6.154 5.363-9.263z" overflow="visible" fill="url(#i)" stroke-width=".083" stroke-opacity="0" transform="translate(72 72)"/><path d="M10.076.951c1.707 2.956 3.55 5.964 5.256 8.92-1.359 2.353-1.164 1.657-2.23 3.504H2.91c-1.021-1.768-1.044-1.45-2.23-3.504C2.398 6.893 4.216 3.929 5.935.95z" style="isolation:auto;mix-blend-mode:normal;marker:none" overflow="visible" fill="#202020" fill-opacity=".995" stroke-width=".079" stroke-opacity="0"/><path style="isolation:auto;mix-blend-mode:normal;marker:none" d="M-60.815-64.193l-2.502 1.444-2.503 1.445v-5.779l2.503 1.445z" overflow="visible" fill="url(#j)" stroke-width=".067" stroke-opacity="0" transform="translate(72 72)"/></g></svg>