<svg xmlns="http://www.w3.org/2000/svg" xmlns:xlink="http://www.w3.org/1999/xlink" height="16" viewBox="0 0 16 16" width="16"><title>Template icons dark</title><defs><linearGradient id="c"><stop offset="0" stop-color="#8e8eb4"/><stop offset="1" stop-color="#fdfdfe"/></linearGradient><linearGradient id="b"><stop offset="0" stop-color="#9d9eb3"/><stop offset="1" stop-color="#bcbcbc"/></linearGradient><linearGradient id="a"><stop offset="0" stop-color="#530559"/><stop offset="1" stop-color="#8108f2"/></linearGradient><linearGradient xlink:href="#a" id="f" x1="-252.036" y1="73.11" x2="-193.17" y2="102.89" gradientUnits="userSpaceOnUse" gradientTransform="matrix(-.06751 -.15303 .13345 -.10083 -90.9 -90.757)"/><linearGradient gradientTransform="matrix(.16726 0 0 .16726 -90.755 -90.757)" xlink:href="#c" id="e" x1="160.004" y1="206.598" x2="160.004" y2="197.991" gradientUnits="userSpaceOnUse"/><linearGradient gradientTransform="matrix(.16726 0 0 .16726 -90.755 -90.757)" xlink:href="#b" id="d" x1="160.098" y1="193.342" x2="160.098" y2="197.786" gradientUnits="userSpaceOnUse"/></defs><path style="isolation:auto;mix-blend-mode:normal;marker:none" d="M5.662 13.366l-1.366.95-1.229 1.694 9.72.014-1.008-1.69-1.584-.958z" color="#000" fill-opacity=".184" fill-rule="evenodd" stroke-width=".143" stroke-linejoin="round"/><path style="isolation:auto;mix-blend-mode:normal;marker:none" d="M-67.437-57.655l6.933.015-1.467-.825-4.2-.01z" color="#000" fill="url(#d)" fill-rule="evenodd" stroke-width=".133" stroke-linejoin="round" transform="translate(72 72)"/><path style="isolation:auto;mix-blend-mode:normal;marker:none" d="M-68.576-56.138l1.139-1.517 6.933.015.933 1.515z" color="#000" fill="url(#e)" fill-rule="evenodd" stroke-width=".133" stroke-linejoin="round" transform="translate(72 72)"/><path style="isolation:auto;mix-blend-mode:normal;marker:none" d="M.501 4.126C2.484 1.503 5.185.026 8.004.023c2.819-.003 5.522 1.468 7.508 4.085L8.013 13.28z" color="#000" display="block" overflow="visible" fill-opacity=".195" stroke-width=".488" stroke-linecap="square" stroke-opacity=".279"/><path style="isolation:auto;mix-blend-mode:normal;marker:none" d="M-70.834-67.625a12.605 9.632 90 0 1 6.838-3.739 12.605 9.632 90 0 1 6.843 3.723l-6.834 8.882z" color="#000" display="block" overflow="visible" fill="url(#f)" stroke-width=".445" stroke-linecap="square" stroke-opacity=".279" transform="translate(72 72)"/><path d="M7.26 2.978V6.56h.3v-.496c.095.16.226.29.392.392.17.101.356.153.56.153.17 0 .328-.035.475-.104.15-.072.28-.167.389-.284a1.396 1.396 0 0 0 .348-.932c0-.167-.029-.329-.084-.486a1.313 1.313 0 0 0-.23-.427 1.088 1.088 0 0 0-.364-.304 1.004 1.004 0 0 0-.48-.113.977.977 0 0 0-.56.162c-.16.105-.298.244-.412.417v-1.56zm-2.595.098L3.207 6.56h.369l.446-1.09h1.565l.452 1.09H6.4L4.955 3.076zm.142.403L5.509 5.2H4.095zm7.443.48a1.236 1.236 0 0 0-1.188.805 1.4 1.4 0 0 0-.093.51c0 .183.031.355.094.515a1.3 1.3 0 0 0 .677.716c.157.069.329.104.515.104.121 0 .237-.017.348-.05a1.14 1.14 0 0 0 .31-.127c.094-.059.176-.126.245-.202a.864.864 0 0 0 .157-.254l-.329-.098a.455.455 0 0 1-.103.166.863.863 0 0 1-.177.143.99.99 0 0 1-.466.127.866.866 0 0 1-.363-.079 1.02 1.02 0 0 1-.294-.22 1.124 1.124 0 0 1-.275-.74c0-.148.023-.284.069-.409a.952.952 0 0 1 .49-.534.873.873 0 0 1 .795.035c.13.071.233.172.305.303l.323-.102a1.04 1.04 0 0 0-.407-.442 1.179 1.179 0 0 0-.633-.167zm-3.777.294c.134 0 .256.03.367.089a.831.831 0 0 1 .29.23.985.985 0 0 1 .186.329c.046.124.07.254.07.388 0 .13-.025.258-.075.382-.045.122-.11.23-.196.329a.953.953 0 0 1-.3.23.864.864 0 0 1-.652.035.977.977 0 0 1-.466-.328.576.576 0 0 1-.103-.25V4.89c.039-.085.089-.165.147-.24.06-.079.126-.148.202-.206a.906.906 0 0 1 .53-.192z" style="line-height:1000%;-inkscape-font-specification:Raleway" font-weight="400" font-family="Raleway" letter-spacing="0" word-spacing="0" fill="#fefefd" fill-opacity=".995" stroke="#fff" stroke-width=".23" stroke-opacity=".995"/></svg>