<svg xmlns="http://www.w3.org/2000/svg" xmlns:xlink="http://www.w3.org/1999/xlink" height="16" viewBox="0 0 16 16" width="16"><title>Template icons dark</title><defs><linearGradient id="h"><stop offset="0" stop-color="#53b679"/><stop offset="1" stop-color="#189189"/></linearGradient><linearGradient id="g"><stop offset="0" stop-color="#58c27e"/><stop offset=".194" stop-color="#d5db7e"/><stop offset=".681" stop-color="#fdb63d" stop-opacity=".989"/><stop offset="1" stop-color="#d66026"/></linearGradient><linearGradient id="f"><stop offset="0" stop-color="#18b378"/><stop offset="1" stop-color="#5bc981"/></linearGradient><linearGradient id="e"><stop offset="0" stop-color="#5ccb82"/><stop offset="1" stop-color="#479c6c"/></linearGradient><linearGradient id="d"><stop offset="0" stop-color="#097b8c"/><stop offset="1" stop-color="#27a787"/></linearGradient><linearGradient id="c"><stop offset="0" stop-color="#242d3c"/><stop offset="1" stop-color="#374160"/></linearGradient><linearGradient id="a"><stop offset="0" stop-color="#d78383"/><stop offset="1" stop-color="#fefefe"/></linearGradient><linearGradient id="b"><stop offset="0" stop-color="#2c2c2c"/><stop offset="1" stop-color="#4c4c4c"/></linearGradient><linearGradient gradientTransform="scale(.1553) rotate(-30 -1193.086 942.126)" xlink:href="#c" id="i" x1="127.52" y1="180.599" x2="204.29" y2="154.964" gradientUnits="userSpaceOnUse"/><linearGradient gradientTransform="scale(.1553) rotate(-30 -1193.086 942.126)" xlink:href="#h" id="j" x1="140.881" y1="187.394" x2="176.248" y2="126.137" gradientUnits="userSpaceOnUse"/><linearGradient xlink:href="#d" id="k" gradientUnits="userSpaceOnUse" gradientTransform="translate(-91.123 -90.874) scale(.16931)" x1="160.063" y1="176" x2="160.063" y2="196"/><linearGradient gradientTransform="translate(-91.126 -90.895) scale(.16931)" xlink:href="#f" id="l" x1="160.882" y1="204.887" x2="160.882" y2="180.705" gradientUnits="userSpaceOnUse"/><linearGradient xlink:href="#e" id="m" x1="160" y1="180" x2="160" y2="171.339" gradientUnits="userSpaceOnUse" gradientTransform="translate(-91.126 -90.752) scale(.16931)"/><linearGradient xlink:href="#g" id="n" x1="182.69" y1="179.28" x2="182.956" y2="140.009" gradientUnits="userSpaceOnUse" gradientTransform="matrix(.12172 0 0 .19811 -81.75 -96.192)"/><linearGradient xlink:href="#g" id="o" gradientUnits="userSpaceOnUse" gradientTransform="matrix(.0943 0 0 .1535 -83.161 -88.497)" x1="182.69" y1="179.28" x2="182.956" y2="140.009"/></defs><g color="#000" stroke-linecap="square"><path style="isolation:auto;mix-blend-mode:normal;marker:none" d="M-70.463-62.089c-.371 0-.541.184-.67.387l-.691 1.087a.121.121 0 0 0-.006.129.256.256 0 0 0 .006.133l.691 2.12c.129.395.299.754.67.754h12.854c.372 0 .542-.36.67-.754l.692-2.12a.258.258 0 0 0 .006-.134.12.12 0 0 0-.006-.128l-.691-1.087c-.13-.203-.3-.387-.67-.387z" overflow="visible" fill-opacity=".1" stroke-width=".307" filter="url(#filter5140)" transform="translate(72 72)"/><path style="isolation:auto;mix-blend-mode:normal;marker:none" d="M-56.998-67.869v8.212h-14.076v-8.212l7.038-4.063z" overflow="visible" fill-opacity=".153" stroke-width=".307" filter="url(#filter5140)" transform="translate(72 72)"/><path style="isolation:auto;mix-blend-mode:normal;marker:none" d="M-57.925-67.473v7.175H-70.147v-7.175l6.111-3.528z" overflow="visible" fill="url(#i)" stroke="url(#j)" stroke-width=".926" filter="url(#filter5140)" transform="translate(72 72)"/><path style="isolation:auto;mix-blend-mode:normal;marker:none" d="M-70.418-61.075h12.764c.37 0 1.194.334 1.07.704l-.66 1.979c-.124.368-.287.703-.642.703h-12.3c-.355 0-.518-.335-.64-.703l-.662-1.979c-.124-.37.701-.704 1.07-.704z" display="block" overflow="visible" fill="url(#k)" stroke-width=".29" filter="url(#filter5140)" transform="translate(72 72)"/><path d="M-67.844-61.096h7.617c1.205 0 .613.525.361 1.073l-1.385 3.017c-.246.535-.451 1.073-1.012 1.073h-3.545c-.561 0-.767-.538-1.012-1.073l-1.386-3.017c-.251-.548-.843-1.073.362-1.073z" style="isolation:auto;mix-blend-mode:normal;marker:none" overflow="visible" fill-opacity=".253" stroke-width=".307" filter="url(#filter5140)" transform="translate(72 72)"/><path style="isolation:auto;mix-blend-mode:normal;marker:none" d="M-67.745-61.096h7.418c1.173 0 .597.482.352.985l-1.349 2.77c-.24.49-.44.986-.986.986h-3.452c-.546 0-.746-.495-.985-.986l-1.35-2.77c-.244-.503-.82-.985.352-.985z" overflow="visible" fill="url(#l)" stroke-width=".29" filter="url(#filter5140)" transform="translate(72 72)"/><path d="M-70.784-60.255h13.497c.39 0 .827-.171.704-.36l-.662-1.016c-.123-.189-.286-.361-.641-.361h-12.3c-.355 0-.518.172-.64.361l-.662 1.015c-.124.19.314.361.704.361z" style="isolation:auto;mix-blend-mode:normal;marker:none" display="block" overflow="visible" fill="url(#m)" stroke-width=".208" filter="url(#filter5140)" transform="translate(72 72)"/><path style="isolation:auto;mix-blend-mode:normal;marker:none" d="M-62.604-67.503l-1.923-.026 3.154-3.917 2.944 3.943h-1.704s-.246 3.196.198 4.733c.443 1.537 1.585 2.24 1.585 2.24h-3.066s-.888-.86-1.227-2.503c-.338-1.642.039-4.47.039-4.47z" overflow="visible" fill="url(#n)" stroke-width=".311" filter="url(#filter5140)" transform="translate(72 72)"/><path d="M-68.328-66.27l-1.49-.02 2.444-3.034 2.28 3.055h-1.32s-.19 2.475.154 3.667c.344 1.19 1.228 1.735 1.228 1.735h-2.375s-.688-.666-.95-1.939c-.263-1.273.03-3.463.03-3.463z" style="isolation:auto;mix-blend-mode:normal;marker:none" display="block" overflow="visible" fill="url(#o)" stroke-width=".241" filter="url(#filter5140)" transform="translate(72 72)"/></g></svg>