<svg xmlns="http://www.w3.org/2000/svg" height="16" viewBox="0 0 16 16" width="16"><title>Template icons dark</title><defs><linearGradient id="h"><stop offset="0" stop-color="#53b679"/><stop offset="1" stop-color="#189189"/></linearGradient><linearGradient id="g"><stop offset="0" stop-color="#58c27e"/><stop offset=".194" stop-color="#d5db7e"/><stop offset=".681" stop-color="#fdb63d" stop-opacity=".989"/><stop offset="1" stop-color="#d66026"/></linearGradient><linearGradient id="f"><stop offset="0" stop-color="#18b378"/><stop offset="1" stop-color="#5bc981"/></linearGradient><linearGradient id="e"><stop offset="0" stop-color="#5ccb82"/><stop offset="1" stop-color="#479c6c"/></linearGradient><linearGradient id="d"><stop offset="0" stop-color="#097b8c"/><stop offset="1" stop-color="#27a787"/></linearGradient><linearGradient id="c"><stop offset="0" stop-color="#242d3c"/><stop offset="1" stop-color="#374160"/></linearGradient><linearGradient id="a"><stop offset="0" stop-color="#d78383"/><stop offset="1" stop-color="#fefefe"/></linearGradient><linearGradient id="b"><stop offset="0" stop-color="#2c2c2c"/><stop offset="1" stop-color="#4c4c4c"/></linearGradient></defs><path style="isolation:auto;mix-blend-mode:normal;marker:none" d="M-45.277-71.746l-.125.156-1.104 1.371-1.437-.83-3.075 1.776-.261-.352-.125.156-.63.781-2.02 1.168v5.48h-.04c-.355 0-.517.173-.64.362l-.662 1.014c-.022.033-.008.064.002.096a.24.24 0 0 0-.002.15l.662 1.979c.123.368.285.703.64.703h3.268l.17.347c.239.491.44.987.986.987h3.451c.546 0 .748-.496.987-.987l.17-.347h3.267c.355 0 .52-.335.643-.703l.66-1.979a.236.236 0 0 0-.002-.15c.01-.032.023-.063.002-.096l-.66-1.014c-.124-.189-.288-.361-.643-.361h-.037v-5.48l-.508-.293zm-.01.508l2.637 3.531h-1.536l-.01.144s-.062.804-.068 1.801c-.006.998.04 2.185.272 2.989.343 1.188.96 1.756 1.32 2.04h-2.58c-.06-.058-.829-.837-1.147-2.378-.326-1.586.042-4.418.042-4.418l.023-.174-1.781-.024zm-6.002 2.12l1.975 2.645h-1.153l-.01.145s-.048.623-.052 1.396c-.005.774.03 1.694.213 2.325.243.842.66 1.277.962 1.537h-1.875c-.03-.03-.637-.614-.884-1.815-.251-1.216.03-3.412.03-3.412l.024-.172-1.347-.02z" color="#000" overflow="visible" fill="#fff" fill-opacity=".995" stroke-width=".926" stroke-linecap="square" filter="url(#filter5140)" transform="translate(56 72)"/></svg>