<svg xmlns="http://www.w3.org/2000/svg" xmlns:xlink="http://www.w3.org/1999/xlink" height="16" viewBox="0 0 16 16" width="16"><title>Template icons dark</title><defs><linearGradient id="i"><stop offset="0" stop-color="#078cd0" stop-opacity=".781"/><stop offset=".774" stop-color="#5946dd" stop-opacity=".584"/><stop offset="1" stop-color="#ca39f1" stop-opacity=".669"/></linearGradient><linearGradient id="h"><stop offset="0" stop-color="#078cd0" stop-opacity=".698"/><stop offset=".774" stop-color="#5946dd" stop-opacity=".443"/><stop offset="1" stop-color="#ca39f1" stop-opacity=".302"/></linearGradient><linearGradient id="b"><stop offset="0" stop-color="#d1f8fc" stop-opacity=".084"/><stop offset=".501" stop-color="#fff" stop-opacity=".039"/><stop offset="1" stop-color="#b6f3fa" stop-opacity=".096"/></linearGradient><linearGradient id="a"><stop offset="0" stop-color="#777"/><stop offset="1" stop-color="#595959"/></linearGradient><linearGradient id="g"><stop offset="0" stop-color="#fff" stop-opacity=".528"/><stop offset=".561" stop-color="#fff" stop-opacity=".522"/><stop offset="1" stop-color="#fff" stop-opacity="0"/></linearGradient><linearGradient id="e"><stop offset="0" stop-color="#fff" stop-opacity=".663"/><stop offset=".561" stop-color="#fff" stop-opacity=".522"/><stop offset="1" stop-color="#fff" stop-opacity="0"/></linearGradient><linearGradient id="f"><stop offset="0" stop-color="#fff"/><stop offset=".561" stop-color="#fff" stop-opacity=".522"/><stop offset="1" stop-color="#fff" stop-opacity="0"/></linearGradient><linearGradient id="d"><stop offset="0" stop-color="#4fb9ef" stop-opacity=".459"/><stop offset=".836" stop-color="#1f1cec" stop-opacity=".315"/><stop offset=".888" stop-color="#d039f1" stop-opacity=".376"/><stop offset="1" stop-color="#ca39f1" stop-opacity=".302"/></linearGradient><linearGradient id="c"><stop offset="0" stop-color="#393939"/><stop offset="1" stop-color="#181818"/></linearGradient><radialGradient xlink:href="#i" id="k" cx="-226.274" cy=".459" fx="-226.274" fy=".459" r="15.999" gradientUnits="userSpaceOnUse" gradientTransform="matrix(.2596 -.2596 .25993 .25993 -5.367 -122.951)"/><radialGradient gradientTransform="matrix(.20623 0 0 .20623 -96.997 -97.244)" xlink:href="#c" id="j" cx="160" cy="160" fx="160" fy="160" r="33" gradientUnits="userSpaceOnUse"/></defs><g color="#000" transform="translate(72 72)"><path style="isolation:auto;mix-blend-mode:normal;marker:none" d="M-62.162-67.61l3.707-3.707a1.245 1.245 0 0 1 1.764 0 1.245 1.245 0 0 1 0 1.764l-3.706 3.707a1.245 1.245 0 0 1-1.765 0 1.245 1.245 0 0 1 0-1.765z" display="block" overflow="visible" fill="#fff" stroke-width=".122" stroke-linecap="round" stroke-linejoin="round" paint-order="stroke fill markers"/><path style="isolation:auto;mix-blend-mode:normal;marker:none" d="M-56.587-63.718A7.413 7.413 0 0 1-64-56.305a7.413 7.413 0 0 1-7.413-7.413A7.413 7.413 0 0 1-64-71.132a7.413 7.413 0 0 1 7.413 7.414z" overflow="visible" fill-opacity=".404" stroke-width=".392" paint-order="fill markers stroke"/><path style="isolation:auto;mix-blend-mode:normal;marker:none" d="M-57.401-64.248a6.599 6.599 0 0 1-6.599 6.6 6.599 6.599 0 0 1-6.599-6.6A6.599 6.599 0 0 1-64-70.847a6.599 6.599 0 0 1 6.599 6.6z" overflow="visible" fill="url(#j)" stroke="#f2f2f2" stroke-width=".413" paint-order="fill markers stroke"/><path style="line-height:normal;font-variant-ligatures:normal;font-variant-position:normal;font-variant-caps:normal;font-variant-numeric:normal;font-variant-alternates:normal;font-feature-settings:normal;text-indent:0;text-align:start;text-decoration-line:none;text-decoration-style:solid;text-decoration-color:#000;text-transform:none;text-orientation:mixed;shape-padding:0;isolation:auto;mix-blend-mode:normal;marker:none" d="M-64-71.395a7.151 7.151 0 0 0-7.147 7.147A7.151 7.151 0 0 0-64-57.1a7.151 7.151 0 0 0 7.147-7.147A7.151 7.151 0 0 0-64-71.395zm0 .745a6.278 6.278 0 0 1 6.283 6.282c0 3.473-2.678 6.64-6.283 6.64-3.605 0-6.283-3.167-6.283-6.64A6.278 6.278 0 0 1-64-70.65z" font-weight="400" font-family="sans-serif" white-space="normal" overflow="visible" fill="#fff" stroke-width=".857" paint-order="fill markers stroke"/><path style="isolation:auto;mix-blend-mode:normal;marker:none" d="M-60.013-60.289a5.673 5.673 0 0 1-8.023-.016l4.02-4.003z" overflow="visible" fill="#c7e8fb" fill-opacity=".157" stroke-width=".355" paint-order="fill markers stroke"/><path style="isolation:auto;mix-blend-mode:normal;marker:none" d="M-68.154-68.262a5.884 5.884 0 0 1 8.322.017l-4.17 4.152z" overflow="visible" fill="url(#k)" stroke-width=".368" paint-order="fill markers stroke"/><path style="isolation:auto;mix-blend-mode:normal;marker:none" d="M-63.336-63.247a.664.448 0 0 1-.664.449.664.448 0 0 1-.664-.449.664.448 0 0 1 .664-.448.664.448 0 0 1 .664.448z" overflow="visible" fill="#c7e8fb" fill-opacity=".382" stroke-width=".091" paint-order="fill markers stroke"/><path style="isolation:auto;mix-blend-mode:normal;marker:none" d="M-62.873-65.593a1.127.917 0 0 1-1.127.917 1.127.917 0 0 1-1.127-.917A1.127.917 0 0 1-64-66.51a1.127.917 0 0 1 1.127.917z" overflow="visible" fill="#ecf7fe" fill-opacity=".438" stroke-width=".088" paint-order="fill markers stroke"/><rect style="isolation:auto;mix-blend-mode:normal;marker:none" width="1" height="1" x="-58.016" y="-71.002" ry=".062" display="block" overflow="visible" fill="#e33535" stroke-width=".364" paint-order="fill markers stroke"/><circle style="isolation:auto;mix-blend-mode:normal;marker:none" cx="-64" cy="-64.248" r="2.862" overflow="visible" fill="none" fill-opacity=".459" stroke="#8e8e8e" stroke-width="1.198" paint-order="fill markers stroke"/></g></svg>