<svg xmlns:osb="http://www.openswatchbook.org/uri/2009/osb" xmlns="http://www.w3.org/2000/svg" xmlns:xlink="http://www.w3.org/1999/xlink" height="16" viewBox="0 0 16 16" width="16"><title>Template icons dark</title><defs><linearGradient xlink:href="#a" id="h" x1="99.818" y1="164.367" x2="220.995" y2="164.367" gradientUnits="userSpaceOnUse"/><linearGradient id="a"><stop offset="0" stop-color="#665e8f"/><stop offset="1" stop-color="#343b41"/></linearGradient><linearGradient id="b"><stop offset="0" stop-color="#383d60"/><stop offset="1" stop-color="#242e42"/></linearGradient><linearGradient id="d"><stop offset="0" stop-opacity=".204"/><stop offset="1" stop-opacity="0"/></linearGradient><linearGradient id="e" osb:paint="solid"><stop offset="0" stop-color="#8ca1a8" stop-opacity=".424"/></linearGradient><linearGradient id="f" osb:paint="solid"><stop offset="0" stop-color="#ff4ca1"/></linearGradient><linearGradient id="c"><stop offset="0" stop-color="#dce1e8"/><stop offset="1" stop-color="#fff"/></linearGradient><linearGradient id="g"><stop offset="0" stop-color="#383d60"/><stop offset="1" stop-color="#242e42"/></linearGradient><linearGradient xlink:href="#f" id="i" gradientUnits="userSpaceOnUse" gradientTransform="matrix(.15295 0 0 .15383 -68.127 -221.228)"/><linearGradient xlink:href="#c" id="j" gradientUnits="userSpaceOnUse" gradientTransform="translate(-68.794 -66.94) scale(.38085)" x1="17.92" y1="19.84" x2="17.92" y2="11.307"/><linearGradient xlink:href="#e" id="k" gradientUnits="userSpaceOnUse" gradientTransform="matrix(.19119 0 0 .19119 -37.839 -50.947)" x1="-49.096" y1="1041.18" x2="-9.096" y2="1041.18"/><linearGradient xlink:href="#c" id="l" gradientUnits="userSpaceOnUse" gradientTransform="translate(154.5 14.04) scale(.38085)" x1="-578.647" y1="-204.784" x2="-578.647" y2="-214.622"/></defs><path style="isolation:auto;mix-blend-mode:normal;marker:none" d="M8 1L2 4v8l6 3 6-3V4zm0 1l5 3v6l-5 3-5-3V5z" color="#000" overflow="visible" fill="#fff" fill-opacity=".719" stroke-width=".011"/><path transform="rotate(44.999 31.52 -1.74) scale(.1339)" style="isolation:auto;mix-blend-mode:normal;marker:none" d="M204.88 204.888l-58.088 15.842-36.966-36.965 15.843-58.09 58.088-15.841 36.966 36.965z" color="#000" overflow="visible" fill="url(#h)" stroke-width=".165"/><path d="M7.921 14L3 11V6l5-3 5 3v5z" style="isolation:auto;mix-blend-mode:normal;marker:none" color="#000" overflow="visible" fill="#29324a" stroke-width=".018"/><path d="M-66.349-62.471h4.589c.794 0 1.434.64 1.434 1.434a1.43 1.43 0 0 1-1.434 1.434h-4.589a1.43 1.43 0 0 1-1.434-1.434c0-.795.64-1.434 1.434-1.434z" fill="url(#i)" stroke-width=".173" transform="translate(72 72)"/><path d="M-59.944-61.037a2.007 2.007 0 0 1-2.007 2.007 2.007 2.007 0 0 1-2.008-2.007 2.007 2.007 0 0 1 2.008-2.008 2.007 2.007 0 0 1 2.007 2.008z" fill="url(#j)" stroke-width=".08" stroke-miterlimit="4.6" transform="translate(72 72)"/><path d="M-66.158-67.173h4.589c.794 0 1.434.64 1.434 1.434a1.43 1.43 0 0 1-1.434 1.434h-4.589a1.43 1.43 0 0 1-1.434-1.434c0-.795.64-1.434 1.434-1.434z" fill="url(#k)" stroke-width=".192" transform="translate(72 72)"/><path d="M-63.959-65.74a2.007 2.007 0 0 1-2.007 2.008 2.007 2.007 0 0 1-2.008-2.007 2.007 2.007 0 0 1 2.008-2.008 2.007 2.007 0 0 1 2.007 2.008z" fill="url(#l)" stroke-width=".08" stroke-miterlimit="4.6" transform="translate(72 72)"/></svg>