<svg xmlns="http://www.w3.org/2000/svg" xmlns:xlink="http://www.w3.org/1999/xlink" height="16" viewBox="0 0 16 16" width="16"><title>Template icons dark</title><defs><linearGradient id="d"><stop offset="0" stop-color="#fff" stop-opacity=".763"/><stop offset="1" stop-color="#fff" stop-opacity=".632"/></linearGradient><linearGradient id="c"><stop offset="0" stop-color="#fff"/><stop offset="1" stop-color="#fff" stop-opacity=".637"/></linearGradient><linearGradient id="b"><stop offset="0" stop-color="#ff053c"/><stop offset="1" stop-color="#0b31ff" stop-opacity=".974"/></linearGradient><linearGradient id="a"><stop offset="0" stop-color="#1ed760"/><stop offset="1" stop-color="#1ed760"/></linearGradient><linearGradient xlink:href="#a" id="e" x1="24.535" y1="7.996" x2="24.705" y2="38.25" gradientUnits="userSpaceOnUse" gradientTransform="matrix(.3671 0 0 .3671 -72.84 -73.382)"/><linearGradient xlink:href="#b" id="f" x1="122" y1="183" x2="196" y2="142" gradientUnits="userSpaceOnUse" gradientTransform="matrix(.17226 0 0 .17226 -91.56 -91.56)"/><linearGradient gradientTransform="matrix(.16667 0 0 .16667 -90.667 -90.667)" xlink:href="#c" id="h" x1="160.063" y1="147" x2="158.323" y2="181" gradientUnits="userSpaceOnUse"/><linearGradient gradientTransform="matrix(.16667 0 0 .16667 -90.667 -90.667)" xlink:href="#d" id="g" x1="172" y1="119" x2="148.724" y2="201.638" gradientUnits="userSpaceOnUse"/></defs><g color="#000" transform="translate(72 72)"><circle style="isolation:auto;mix-blend-mode:normal;marker:none" cx="-64" cy="-64" r="8" display="block" overflow="visible" fill-opacity=".078" stroke-width=".347"/><circle style="isolation:auto;mix-blend-mode:normal;marker:none" cx="-64" cy="-64" r="7.667" overflow="visible" fill="url(#e)" stroke-width=".427"/><circle r="7.667" cy="-64" cx="-64" style="isolation:auto;mix-blend-mode:normal;marker:none" overflow="visible" opacity=".109" fill="url(#f)" stroke-width=".427"/><circle style="isolation:auto;mix-blend-mode:normal;marker:none" cx="-64" cy="-64" r="7.458" overflow="visible" fill="none" stroke="url(#g)" stroke-width=".417"/><path style="line-height:normal;font-variant-ligatures:normal;font-variant-position:normal;font-variant-caps:normal;font-variant-numeric:normal;font-variant-alternates:normal;font-feature-settings:normal;text-indent:0;text-align:start;text-decoration-line:none;text-decoration-style:solid;text-decoration-color:#000;text-transform:none;text-orientation:mixed;shape-padding:0;isolation:auto;mix-blend-mode:normal" d="M-64.886-67.566c-1.263 0-2.508.167-3.675.478a.708.708 0 1 0 .365 1.368c2.786-.743 6.121-.55 8.846.886a.708.708 0 1 0 .66-1.253c-1.934-1.019-4.09-1.48-6.196-1.48zm-.083 2.603a11.621 11.621 0 0 0-3.14.41.61.61 0 1 0 .327 1.174c2.237-.624 5.376-.456 7.495.873a.61.61 0 1 0 .648-1.033c-1.576-.988-3.49-1.416-5.33-1.424zm.136 2.463c-1.076-.016-2.108.143-3.058.354a.472.472 0 1 0 .205.921c2.076-.461 4.352-.643 6.655.731a.472.472 0 1 0 .484-.81c-1.447-.864-2.903-1.175-4.286-1.196z" font-weight="400" font-family="sans-serif" white-space="normal" overflow="visible" fill-opacity=".147" stroke-width="1.416"/><path d="M-64.886-67.733c-1.263 0-2.508.167-3.675.478a.708.708 0 1 0 .365 1.368c2.786-.743 6.121-.55 8.846.886a.708.708 0 1 0 .66-1.252c-1.934-1.02-4.09-1.48-6.196-1.48zm-.083 2.603a11.62 11.62 0 0 0-3.14.41.61.61 0 1 0 .327 1.174c2.237-.623 5.376-.456 7.495.873a.61.61 0 1 0 .648-1.032c-1.576-.989-3.49-1.417-5.33-1.425zm.136 2.463c-1.076-.016-2.108.143-3.058.354a.472.472 0 1 0 .205.921c2.076-.46 4.352-.643 6.655.732a.472.472 0 1 0 .484-.811c-1.447-.864-2.903-1.175-4.286-1.196z" style="line-height:normal;font-variant-ligatures:normal;font-variant-position:normal;font-variant-caps:normal;font-variant-numeric:normal;font-variant-alternates:normal;font-feature-settings:normal;text-indent:0;text-align:start;text-decoration-line:none;text-decoration-style:solid;text-decoration-color:#000;text-transform:none;text-orientation:mixed;shape-padding:0;isolation:auto;mix-blend-mode:normal" font-weight="400" font-family="sans-serif" white-space="normal" overflow="visible" fill="url(#h)" stroke-width="1.416"/></g></svg>