<svg xmlns="http://www.w3.org/2000/svg" xmlns:xlink="http://www.w3.org/1999/xlink" height="16" viewBox="0 0 16 16" width="16"><title>Template icons dark</title><defs><linearGradient id="d"><stop offset="0" stop-color="#fff" stop-opacity=".763"/><stop offset="1" stop-color="#fff" stop-opacity=".632"/></linearGradient><linearGradient id="c"><stop offset="0" stop-color="#fff"/><stop offset="1" stop-color="#fff" stop-opacity=".637"/></linearGradient><linearGradient id="b"><stop offset="0" stop-color="#ff053c"/><stop offset="1" stop-color="#0b31ff" stop-opacity=".974"/></linearGradient><linearGradient id="a"><stop offset="0" stop-color="#1ed760"/><stop offset="1" stop-color="#1ed760"/></linearGradient><linearGradient xlink:href="#c" id="e" gradientUnits="userSpaceOnUse" gradientTransform="matrix(.16667 0 0 .16667 -74.667 -90.667)" x1="160.063" y1="147" x2="158.323" y2="181"/></defs><path style="isolation:auto;mix-blend-mode:normal;marker:none" d="M8 .334A7.667 7.667 0 0 0 .334 8 7.667 7.667 0 0 0 8 15.666 7.667 7.667 0 0 0 15.666 8 7.667 7.667 0 0 0 8 .334zm-.885 3.934c2.106-.001 4.261.459 6.196 1.478a.708.708 0 1 1-.66 1.252C9.924 5.562 6.59 5.37 3.804 6.113a.708.708 0 1 1-.366-1.367 14.34 14.34 0 0 1 3.676-.478zM7.031 6.87c1.84.008 3.755.436 5.33 1.424a.61.61 0 1 1-.648 1.033C9.594 8 6.456 7.83 4.219 8.453A.61.61 0 1 1 3.89 7.28c.96-.267 2.037-.413 3.14-.408zm.135 2.463c1.383.021 2.84.332 4.287 1.195a.472.472 0 1 1-.484.81c-2.303-1.374-4.579-1.19-6.655-.73a.472.472 0 1 1-.205-.921c.95-.212 1.981-.37 3.057-.354z" color="#000" overflow="visible" fill="#fff" fill-opacity=".989" stroke-width=".427"/></svg>