<svg xmlns="http://www.w3.org/2000/svg" xmlns:xlink="http://www.w3.org/1999/xlink" height="16" viewBox="0 0 16 16" width="16"><title>Template icons dark</title><defs><linearGradient id="b"><stop offset="0" stop-color="#aed5f8"/><stop offset="1" stop-color="#f7cbff"/></linearGradient><linearGradient id="c"><stop offset="0" stop-color="#5a9fdb"/><stop offset="1" stop-color="#e47ff5"/></linearGradient><linearGradient id="a"><stop offset="0" stop-color="#1d273b"/><stop offset="1" stop-color="#342b38"/></linearGradient><linearGradient xlink:href="#a" id="d" gradientUnits="userSpaceOnUse" gradientTransform="matrix(.35573 0 0 -.35573 -72.282 -55.206)" x1="14.633" y1="41.796" x2="34.842" y2="6.78"/><linearGradient xlink:href="#c" id="e" gradientUnits="userSpaceOnUse" gradientTransform="matrix(.17013 0 0 .17013 -91.221 -91.221)" x1="113" y1="160" x2="207" y2="160"/><linearGradient xlink:href="#b" id="f" gradientUnits="userSpaceOnUse" gradientTransform="matrix(.19765 0 0 .19765 -92.59 -98.524)" x1="112.037" y1="174.404" x2="175.498" y2="174.404"/></defs><g color="#000"><path style="isolation:auto;mix-blend-mode:normal;marker:none" d="M-64-56.174a7.826 7.826 0 1 1 0-15.652 7.826 7.826 0 0 1 0 15.652z" overflow="visible" fill="url(#d)" stroke="url(#e)" stroke-width=".348" transform="translate(72 72)"/><path style="isolation:auto;mix-blend-mode:normal;marker:none" d="M-61.11-69.996c-.91-.049-1.737.363-2.297.969-.066.071-.129.146-.187.223l-5.171 6.788-3.055-1.735s.01.617.102 1.063c.114.555.258 1.069.258 1.069l1.802.973c-.203.646-.067 1.38.5 1.949.762.76 1.824.747 2.568.18l7.54-5.743c1.23-.937 1.752-3.033.12-4.664-.718-.718-1.474-1.034-2.181-1.072zm.042 1.152a2.158 2.158 0 1 1-1.558.632c.412-.413.974-.64 1.557-.632zm-.037.741a1.39 1.39 0 1 0 0 2.782 1.39 1.39 0 0 0 0-2.782zm-6.285 6.444a1.247 1.247 0 1 1-1.23 1.53l.9.448a.814.814 0 0 0 .686-1.475l-.835-.415c.153-.06.315-.09.48-.088z" overflow="visible" fill="url(#f)" stroke-width=".198" transform="translate(72 72)"/></g></svg>