<svg xmlns="http://www.w3.org/2000/svg" xmlns:xlink="http://www.w3.org/1999/xlink" height="15.969" viewBox="0 0 15.968787 15.968787" width="15.969"><title>Template icons dark</title><defs><linearGradient id="a"><stop offset="0" stop-color="#eadfec"/><stop offset="1" stop-color="#c0dde6"/></linearGradient><linearGradient id="b"><stop offset="0" stop-color="#3e4453"/><stop offset="1" stop-color="#222630"/></linearGradient><linearGradient id="c"><stop offset="0" stop-color="#abd6e5"/><stop offset="1" stop-color="#f7e2f7"/></linearGradient><linearGradient xlink:href="#a" id="f" gradientUnits="userSpaceOnUse" gradientTransform="matrix(.4223 0 0 .4223 -73.5 -74.3)" x1="17.302" y1="14.341" x2="30.113" y2="34.354"/><linearGradient xlink:href="#b" id="d" gradientUnits="userSpaceOnUse" gradientTransform="matrix(.37047 0 0 .37047 -72.906 -73.453)" x1="24.535" y1="7.996" x2="24.766" y2="38.006"/><linearGradient xlink:href="#c" id="e" gradientUnits="userSpaceOnUse" gradientTransform="matrix(.36812 0 0 .36812 -72.82 -73.997)" x1="36.062" y1="47.638" x2="13.188" y2="8.325"/></defs><path style="isolation:auto;mix-blend-mode:normal;marker:none" d="M-56.247-63.984a7.737 7.737 0 0 1-7.737 7.737 7.737 7.737 0 0 1-7.737-7.737 7.737 7.737 0 0 1 7.737-7.737 7.737 7.737 0 0 1 7.737 7.737z" color="#000" overflow="visible" fill="url(#d)" stroke="url(#e)" stroke-width=".494" transform="translate(72 72)"/><path d="M9.793 10.6q0-.59-.447-.91-.44-.33-1.545-.566-1.099-.235-1.75-.564-.643-.33-.957-.785-.306-.455-.306-1.082 0-1.043.879-1.765.886-.722 2.26-.722 1.442 0 2.337.745.902.746.902 1.907h-1.46q0-.597-.51-1.028-.501-.431-1.27-.431-.792 0-1.24.345-.446.345-.446.902 0 .525.415.792.416.267 1.499.51 1.09.243 1.764.58.675.338.997.816.33.47.33 1.153 0 1.138-.91 1.828-.91.682-2.362.682-1.02 0-1.804-.36-.784-.361-1.232-1.005-.439-.65-.439-1.404H5.95q.04.73.58 1.161.55.424 1.444.424.824 0 1.318-.33.502-.337.502-.894z" style="line-height:10;-inkscape-font-specification:Roboto" font-weight="400" font-size="83.863" font-family="Roboto" letter-spacing="0" word-spacing="0" fill-opacity=".385" stroke-width=".781" stroke-opacity=".194"/><path style="line-height:10;-inkscape-font-specification:Roboto" d="M-62.207-62.134q0-.589-.447-.91-.44-.33-1.545-.565-1.099-.235-1.75-.565-.643-.33-.957-.784-.306-.455-.306-1.083 0-1.043.879-1.765.886-.721 2.26-.721 1.442 0 2.337.745.902.745.902 1.906h-1.46q0-.596-.51-1.028-.501-.431-1.27-.431-.792 0-1.24.345-.446.345-.446.902 0 .526.415.792.416.267 1.499.51 1.09.243 1.764.58.675.338.997.817.33.47.33 1.153 0 1.137-.91 1.827-.91.683-2.362.683-1.02 0-1.804-.361-.784-.36-1.232-1.004-.439-.651-.439-1.404h1.451q.04.73.58 1.16.55.424 1.444.424.824 0 1.318-.33.502-.336.502-.893z" font-weight="400" font-size="83.863" font-family="Roboto" letter-spacing="0" word-spacing="0" fill="url(#f)" stroke-width=".781" stroke-opacity=".194" transform="translate(72 72)"/></svg>