<svg xmlns="http://www.w3.org/2000/svg" height="15.969" viewBox="0 0 15.968787 15.968787" width="15.969"><title>Template icons dark</title><defs><linearGradient id="a"><stop offset="0" stop-color="#eadfec"/><stop offset="1" stop-color="#c0dde6"/></linearGradient><linearGradient id="b"><stop offset="0" stop-color="#3e4453"/><stop offset="1" stop-color="#222630"/></linearGradient><linearGradient id="c"><stop offset="0" stop-color="#abd6e5"/><stop offset="1" stop-color="#f7e2f7"/></linearGradient></defs><g fill="#fff"><path style="isolation:auto;mix-blend-mode:normal;marker:none" d="M15.753 8.016a7.737 7.737 0 0 1-7.737 7.737A7.737 7.737 0 0 1 .279 8.016 7.737 7.737 0 0 1 8.016.279a7.737 7.737 0 0 1 7.737 7.737z" color="#000" overflow="visible" fill-opacity=".153" stroke="#fff" stroke-width=".494"/><path d="M9.793 9.866q0-.589-.447-.91-.44-.33-1.545-.565-1.099-.235-1.75-.565-.643-.33-.957-.784-.306-.455-.306-1.083 0-1.043.879-1.765.886-.721 2.26-.721 1.442 0 2.337.745.902.745.902 1.906h-1.46q0-.596-.51-1.028-.501-.431-1.27-.431-.792 0-1.24.345-.446.345-.446.902 0 .526.415.792.416.267 1.499.51 1.09.243 1.764.58.675.338.997.817.33.47.33 1.153 0 1.137-.91 1.827-.91.683-2.362.683-1.02 0-1.804-.361-.784-.36-1.232-1.004-.439-.651-.439-1.404H5.95q.04.73.58 1.16.55.424 1.444.424.824 0 1.318-.33.502-.336.502-.893z" style="line-height:10;-inkscape-font-specification:Roboto" font-weight="400" font-size="83.863" font-family="Roboto" letter-spacing="0" word-spacing="0" stroke-width=".781" stroke-opacity=".194"/></g></svg>