<svg xmlns="http://www.w3.org/2000/svg" height="16" viewBox="0 0 16 16" width="16"><title>Template icons dark</title><defs><linearGradient id="d"><stop offset="0" stop-color="#443791"/><stop offset="1" stop-color="#915cb8"/></linearGradient><linearGradient id="c"><stop offset="0" stop-color="#fff"/><stop offset="1" stop-color="#d2d2d2"/></linearGradient><linearGradient id="b"><stop offset="0" stop-color="#5a41e2"/><stop offset="1" stop-color="#4c9ce0" stop-opacity=".945"/></linearGradient><linearGradient id="a"><stop offset="0" stop-color="#fffefe"/><stop offset="1" stop-color="#fff" stop-opacity=".855"/></linearGradient></defs><path d="M15.61 7.332L8.65.372a1.04 1.04 0 0 0-1.47 0L5.77 1.783l1.857 1.857a1.234 1.234 0 0 1 1.564 1.575l1.79 1.79a1.237 1.237 0 1 1-.74.698l-1.67-1.67.001 4.392a1.237 1.237 0 1 1-1.017-.036l-.001-4.433a1.238 1.238 0 0 1-.672-1.623L5.052 2.5.219 7.333a1.04 1.04 0 0 0 0 1.47l6.96 6.96a1.04 1.04 0 0 0 1.471 0l6.96-6.96a1.04 1.04 0 0 0 0-1.47z" fill="#fff" fill-opacity=".747" stroke-width=".176"/></svg>