<svg xmlns="http://www.w3.org/2000/svg" xmlns:xlink="http://www.w3.org/1999/xlink" height="16" viewBox="0 0 16 16" width="16"><title>Template icons dark</title><defs><linearGradient id="a"><stop offset="0" stop-color="#fff" stop-opacity=".105"/><stop offset="1" stop-color="#fff" stop-opacity=".414"/></linearGradient><linearGradient id="b"><stop offset="0" stop-color="#4b4b4b"/><stop offset=".125" stop-color="#fff"/><stop offset=".306" stop-color="#5c5c5c"/><stop offset=".455" stop-color="#fff"/><stop offset=".55" stop-color="#fff"/><stop offset=".731" stop-color="#626262"/><stop offset=".931" stop-color="#fff"/><stop offset="1" stop-color="#505050"/></linearGradient><linearGradient id="c"><stop offset="0" stop-color="#fcfcfc"/><stop offset=".512" stop-color="#7c7c7c"/><stop offset=".904" stop-color="#fcfcfc"/><stop offset="1" stop-color="#b5b5b5"/></linearGradient><linearGradient id="d"><stop offset="0" stop-opacity="0"/><stop offset="1" stop-color="#919191" stop-opacity=".502"/></linearGradient><linearGradient id="e"><stop offset="0" stop-color="#15b5ff"/><stop offset="1" stop-color="#1385ff"/></linearGradient><linearGradient id="f"><stop offset="0" stop-color="#42ec81"/><stop offset="1" stop-color="#3add5c"/></linearGradient><linearGradient id="g"><stop offset="0" stop-color="#ff8300"/><stop offset="1" stop-color="#ff5b00"/></linearGradient><linearGradient id="h"><stop offset="0" stop-color="#f72424" stop-opacity=".066"/><stop offset="1" stop-color="#f72424" stop-opacity=".118"/></linearGradient><linearGradient xlink:href="#d" id="i" x1="8.57" y1="18.196" x2="28.333" y2="31.765" gradientUnits="userSpaceOnUse" gradientTransform="matrix(.49893 0 0 .49893 -75.547 -77.405)"/><linearGradient xlink:href="#b" id="k" gradientUnits="userSpaceOnUse" gradientTransform="matrix(.5671 .56157 -1.11238 1.14519 196.997 109.169)" x1="45.878" y1="34.792" x2="45.869" y2="42.694"/><linearGradient xlink:href="#b" id="l" gradientUnits="userSpaceOnUse" gradientTransform="matrix(.7981 0 0 1.5965 225.755 -64.719)" x1="45.878" y1="34.792" x2="46.015" y2="47.577"/><linearGradient xlink:href="#a" id="j" x1="20.54" y1="20.256" x2="17.967" y2="15.009" gradientUnits="userSpaceOnUse" gradientTransform="matrix(.41955 0 0 .41955 -73.848 -75.913)"/></defs><path d="M-65.693-71.95a6.246 6.246 0 0 0-6.26 6.258 6.246 6.246 0 0 0 6.26 6.26 6.246 6.246 0 0 0 6.259-6.26 6.246 6.246 0 0 0-6.26-6.259zm0 .95a5.297 5.297 0 0 1 5.308 5.308 5.297 5.297 0 0 1-5.308 5.309 5.297 5.297 0 0 1-5.309-5.309A5.297 5.297 0 0 1-65.693-71z" fill="#d8e0e9" stroke="url(#i)" stroke-width=".073" transform="translate(72 72)"/><path d="M-65.45-69.902c-.27-.01-.54.014-.803.079-2.614.643-3.533 2.973-2.741 3.828.645.697 1.239-.638 3.053-1.074 1.815-.436 2.819.872 3.38.122.849-1.132-1.005-2.882-2.89-2.955zm3.087 3.731c-.266-.023-.546.185-.654.487-.122.346.008.738.303.843.296.105.644-.117.767-.463.123-.345-.008-.737-.303-.842a.45.45 0 0 0-.113-.025z" fill="url(#j)" stroke-width=".248" stroke-miterlimit="0" stroke-opacity=".192" transform="translate(72 72)"/><g stroke-width="1.693" stroke-miterlimit="0" stroke-opacity=".192"><path d="M180.51 170.87l5.744 5.435-9.088 9.234-5.558-5.503z" fill="url(#k)" transform="matrix(.1739 0 0 .1739 -19.907 -19.763)"/><path d="M258.257-9.374h22.38c1.012 0 1.826.815 1.826 1.827V8.935a1.823 1.823 0 0 1-1.826 1.826h-22.38a1.823 1.823 0 0 1-1.827-1.826V-7.547c0-1.012.815-1.827 1.827-1.827z" transform="matrix(.12357 .12237 -.12117 .12475 -19.907 -19.763)" fill="url(#l)"/></g></svg>