<svg xmlns="http://www.w3.org/2000/svg" xmlns:xlink="http://www.w3.org/1999/xlink" height="16" viewBox="0 0 16 16" width="16"><title>Template icons dark</title><defs><linearGradient id="l"><stop offset="0" stop-color="#5d6687"/><stop offset="1" stop-color="#e6e6e6"/></linearGradient><linearGradient id="k"><stop offset="0" stop-opacity=".286"/><stop offset="1" stop-opacity=".083"/></linearGradient><linearGradient id="a"><stop offset="0" stop-color="#fff" stop-opacity=".161"/><stop offset="1" stop-color="#fff" stop-opacity=".708"/></linearGradient><linearGradient id="b"><stop offset="0" stop-color="#4b4b4b"/><stop offset=".125" stop-color="#fff"/><stop offset=".306" stop-color="#747474"/><stop offset=".47" stop-color="#fff"/><stop offset=".539" stop-color="#fff"/><stop offset=".731" stop-color="#646464"/><stop offset=".931" stop-color="#fff"/><stop offset="1" stop-color="#505050"/></linearGradient><linearGradient id="c"><stop offset="0" stop-color="#fcfcfc"/><stop offset=".512" stop-color="#7c7c7c"/><stop offset=".904" stop-color="#fcfcfc"/><stop offset="1" stop-color="#b5b5b5"/></linearGradient><linearGradient id="d"><stop offset="0" stop-opacity="0"/><stop offset="1" stop-color="#919191" stop-opacity=".502"/></linearGradient><linearGradient id="e"><stop offset="0" stop-color="#15b5ff"/><stop offset="1" stop-color="#1385ff"/></linearGradient><linearGradient id="f"><stop offset="0" stop-color="#42ec81"/><stop offset="1" stop-color="#3add5c"/></linearGradient><linearGradient id="g"><stop offset="0" stop-color="#ff8300"/><stop offset="1" stop-color="#ff5b00"/></linearGradient><linearGradient id="h"><stop offset="0" stop-color="#f72424" stop-opacity=".066"/><stop offset="1" stop-color="#f72424" stop-opacity=".118"/></linearGradient><linearGradient id="i"><stop offset="0" stop-color="#6a7395"/><stop offset="1" stop-color="#d3d3d3"/></linearGradient><linearGradient id="j"><stop offset="0" stop-color="#b1b1b1"/><stop offset="1" stop-color="#7d809b"/></linearGradient><linearGradient xlink:href="#d" id="n" x1="8.57" y1="18.196" x2="28.333" y2="31.765" gradientUnits="userSpaceOnUse" gradientTransform="matrix(.49893 0 0 .49893 -75.547 -77.405)"/><linearGradient xlink:href="#j" id="m" gradientUnits="userSpaceOnUse" x1="26.05" y1="46.063" x2="26.05" y2="1.813" gradientTransform="matrix(.2173 0 0 .2173 -70.909 -70.907)"/><linearGradient xlink:href="#b" id="o" gradientUnits="userSpaceOnUse" gradientTransform="matrix(.5671 .56157 -1.11238 1.14519 196.997 109.169)" x1="45.878" y1="34.792" x2="45.869" y2="42.694"/><linearGradient xlink:href="#b" id="p" gradientUnits="userSpaceOnUse" gradientTransform="matrix(.7981 0 0 1.5965 225.755 -64.719)" x1="45.878" y1="34.792" x2="46.015" y2="47.577"/></defs><path style="isolation:auto;mix-blend-mode:normal;marker:none" d="M12.093 6.324a5.913 5.913 0 0 1-5.913 5.913A5.913 5.913 0 0 1 .267 6.324 5.913 5.913 0 0 1 6.18.41a5.913 5.913 0 0 1 5.913 5.913z" color="#000" display="block" overflow="visible" fill-opacity=".813" stroke-width=".087" stroke-opacity=".391" paint-order="fill markers stroke"/><path d="M-66.28-70.472c-.08 0-.126.064-.146.138l-.166 1.642.006.001c-.205.06-.402.14-.59.24l-1.273-1.05c-.066-.039-.144-.052-.201.005l-.838.839c-.058.057-.044.134-.006.2l1.03 1.264a3.162 3.162 0 0 0-.259.606l-1.613.15c-.074.02-.138.065-.138.146v1.186c0 .08.064.125.138.146l1.592.158c.063.221.15.436.26.638l-1.02 1.227c-.038.066-.05.144.007.201l.838.838c.057.058.134.044.2.006l1.22-1.006c.207.115.426.206.653.272l.147 1.576c.02.074.065.138.146.138h1.186c.081 0 .126-.064.146-.138l.148-1.576c.224-.067.44-.158.645-.272l1.23 1.015c.067.039.144.052.201-.006l.839-.838c.057-.057.044-.135.005-.201l-1.023-1.236c.106-.198.19-.408.252-.624l1.613-.16c.074-.02.138-.064.138-.145v-1.186c0-.081-.064-.126-.138-.147l-1.63-.157a3.162 3.162 0 0 0-.248-.59l1.045-1.275c.039-.067.052-.144-.005-.201l-.839-.839c-.057-.057-.134-.044-.201-.005l-1.275 1.046.005.007a3.162 3.162 0 0 0-.59-.245h.003l-.162-1.65c-.02-.074-.065-.138-.146-.138h-1.186zm.587 3.287a1.493 1.493 0 1 1 0 2.987 1.493 1.493 0 0 1 0-2.987z" style="isolation:auto;mix-blend-mode:normal;marker:none" color="#000" overflow="visible" opacity=".851" fill="#9b99b0" stroke="url(#m)" stroke-width=".152" stroke-linecap="round" paint-order="stroke fill markers" transform="translate(72 72)"/><path d="M-65.693-71.95a6.246 6.246 0 0 0-6.26 6.258 6.246 6.246 0 0 0 6.26 6.26 6.246 6.246 0 0 0 6.259-6.26 6.246 6.246 0 0 0-6.26-6.259zm0 .95a5.297 5.297 0 0 1 5.308 5.308 5.297 5.297 0 0 1-5.308 5.309 5.297 5.297 0 0 1-5.309-5.309A5.297 5.297 0 0 1-65.693-71z" fill="#d8e0e9" stroke="url(#n)" stroke-width=".073" transform="translate(72 72)"/><g stroke-width="1.693" stroke-miterlimit="0" stroke-opacity=".192"><path d="M180.51 170.87l5.744 5.435-9.088 9.234-5.558-5.503z" fill="url(#o)" transform="matrix(.1739 0 0 .1739 -19.907 -19.763)"/><path d="M258.257-9.374h22.38c1.012 0 1.826.815 1.826 1.827V8.935a1.823 1.823 0 0 1-1.826 1.826h-22.38a1.823 1.823 0 0 1-1.827-1.826V-7.547c0-1.012.815-1.827 1.827-1.827z" transform="matrix(.12357 .12237 -.12117 .12475 -19.907 -19.763)" fill="url(#p)"/></g></svg>