<svg xmlns="http://www.w3.org/2000/svg" xmlns:xlink="http://www.w3.org/1999/xlink" height="16" viewBox="0 0 16 16" width="16"><title>Template icons dark</title><defs><linearGradient id="d"><stop offset="0" stop-color="#e7747f"/><stop offset=".151" stop-color="#8c2f37"/><stop offset=".491" stop-color="#882d2d"/><stop offset=".873" stop-color="#cf5763"/><stop offset="1" stop-color="#f83044"/></linearGradient><linearGradient id="g"><stop offset="0" stop-color="#fff" stop-opacity=".115"/><stop offset=".555" stop-color="#fff" stop-opacity=".681"/><stop offset="1" stop-color="#fff" stop-opacity="0"/></linearGradient><linearGradient id="h"><stop offset="0" stop-color="#fff" stop-opacity=".073"/><stop offset=".555" stop-color="#fff" stop-opacity=".681"/><stop offset="1" stop-color="#fff" stop-opacity=".068"/></linearGradient><linearGradient id="f"><stop offset="0" stop-color="#463f54"/><stop offset=".192" stop-color="#413a4f"/><stop offset=".345" stop-color="#615876"/><stop offset=".499" stop-color="#3e384c"/><stop offset="1" stop-color="#343142"/></linearGradient><linearGradient id="e"><stop offset="0" stop-color="#b3b3b3"/><stop offset=".246" stop-color="#828282"/><stop offset=".543" stop-color="silver"/><stop offset=".824" stop-color="#fff"/><stop offset="1" stop-color="#8e8e8e"/></linearGradient><linearGradient id="c"><stop offset="0" stop-color="#fafafa"/><stop offset=".178" stop-color="#efe1f2"/><stop offset=".226" stop-color="#d5d6d8"/><stop offset=".705" stop-color="#7d8089"/><stop offset=".745" stop-color="#a6d6c0"/><stop offset=".796" stop-color="#657060"/><stop offset=".871" stop-color="#b3b2b7"/><stop offset=".961" stop-color="#fff"/><stop offset="1" stop-color="#cbcace"/></linearGradient><linearGradient id="b"><stop offset="0" stop-color="#4d4e55"/><stop offset="1" stop-color="#717171"/></linearGradient><linearGradient id="a"><stop offset="0" stop-color="#c2bac6"/><stop offset="1" stop-color="#fff"/></linearGradient><linearGradient xlink:href="#c" id="n" x1="159.898" y1="180" x2="159.898" y2="124" gradientUnits="userSpaceOnUse" gradientTransform="matrix(.20119 0 0 .20119 -96.179 -96.775)"/><linearGradient xlink:href="#d" id="m" x1="161" y1="133.852" x2="161" y2="126" gradientUnits="userSpaceOnUse" gradientTransform="matrix(.20119 0 0 .20119 -96.179 -96.775)"/><linearGradient xlink:href="#f" id="l" x1="160.063" y1="188" x2="160.063" y2="161.929" gradientUnits="userSpaceOnUse" gradientTransform="translate(-99.465 -101.692) scale(.22184)"/><linearGradient xlink:href="#e" id="k" x1="161" y1="132.669" x2="161" y2="126.984" gradientUnits="userSpaceOnUse" gradientTransform="matrix(.20119 0 0 .20119 -96.179 -96.775)"/><linearGradient xlink:href="#a" id="j" x1="160.063" y1="194.079" x2="160.063" y2="148.724" gradientUnits="userSpaceOnUse" gradientTransform="matrix(.20119 0 0 .20119 -96.179 -97.104)"/><linearGradient xlink:href="#b" id="i" gradientUnits="userSpaceOnUse" x1="160.063" y1="194.079" x2="160.063" y2="148.724" gradientTransform="translate(-98.404 -98.203) scale(.21508)"/></defs><g color="#000" stroke-opacity="0"><path d="M-68.022-67.06l8.523-.004c.673 0 1.045.49 1.207 1.144l2.044 8.207c.221.888-.716 1.71-1.631 1.71H-70.05c-.916 0-1.837-.822-1.616-1.71l2.044-8.207c.162-.653 1.025-1.09 1.423-1.125z" style="isolation:auto;mix-blend-mode:normal;marker:none" overflow="visible" fill="url(#i)" stroke-width=".108" transform="translate(72 72)"/><path style="isolation:auto;mix-blend-mode:normal;marker:none" d="M-68.022-67.49l8.11-.004c.63 0 1.096.295 1.254.904l1.912 7.36c.215.83-.69 1.547-1.546 1.547h-11.33c-.856 0-1.761-.717-1.546-1.546l1.912-7.36c.158-.61.605-.9 1.234-.9z" display="block" overflow="visible" fill="url(#j)" stroke-width=".101" transform="translate(72 72)"/><path style="isolation:auto;mix-blend-mode:normal;marker:none" d="M-68.698-71.214h9.466c.339 0 .339 1.183 0 1.183h-9.466c-.338 0-.338-1.183 0-1.183z" display="block" overflow="visible" fill="url(#k)" stroke-width=".068" transform="translate(72 72)"/><path d="M-61.087-64.866h-1.109l.888 3.106h2.613l-5.262 3.123-5.24-3.123h2.564l.888-3.106h-1.11l2.884-1.331z" style="isolation:auto;mix-blend-mode:normal;marker:none" display="block" overflow="visible" fill="url(#l)" stroke-width=".047" transform="translate(72 72)"/><path style="isolation:auto;mix-blend-mode:normal;marker:none" d="M-66.838-71.383l5.581.002c.335 0 1.192.01 1.35.167.17.171.155 1.027 0 1.183-.164.164-1.015.17-1.353.17h-5.578c-.339 0-1.015 0-1.184-.17-.169-.169-.169-1.014 0-1.183.158-.158.845-.169 1.184-.169z" display="block" overflow="visible" fill="url(#m)" stroke-width=".068" transform="translate(72 72)"/><path style="isolation:auto;mix-blend-mode:normal;marker:none" d="M-65.824-71.89c-.198 0-.579.264-.579.666v1.409c0 .527.805.64.805 1.137l.112 6.085h3.043l.064-6.085c.005-.498.805-.61.805-1.137v-1.409c0-.402-.33-.666-.531-.666z" display="block" overflow="visible" fill="url(#n)" stroke-width=".066" transform="translate(72 72)"/><path style="isolation:auto;mix-blend-mode:normal;marker:none" d="M.817 12.78c-.137.793.65 1.84 1.479 1.84h11.318c.828 0 1.792-1.047 1.655-1.84-.116.636-.948 1.191-1.655 1.191H2.296c-.707 0-1.363-.555-1.479-1.192z" display="block" overflow="visible" fill="#eaeaea" stroke-width=".101"/></g></svg>