<svg xmlns="http://www.w3.org/2000/svg" height="16" viewBox="0 0 16 16" width="16"><title>Template icons dark</title><defs><linearGradient id="a"><stop offset="0" stop-color="#4d77d3"/><stop offset=".453" stop-color="#767294"/><stop offset="1" stop-color="#a6659c"/></linearGradient><linearGradient id="b"><stop offset="0" stop-color="#0b1528"/><stop offset="1" stop-color="#473d49"/></linearGradient></defs><g transform="translate(56 72)"><path style="line-height:normal;font-variant-ligatures:normal;font-variant-position:normal;font-variant-caps:normal;font-variant-numeric:normal;font-variant-alternates:normal;font-feature-settings:normal;text-indent:0;text-align:start;text-decoration-line:none;text-decoration-style:solid;text-decoration-color:#000;text-transform:none;text-orientation:mixed;shape-padding:0;isolation:auto;mix-blend-mode:normal;marker:none" d="M-55-71l-1 1v12l1 1h14l1-1v-12l-1-1zm0 1h14v12h-14z" color="#000" font-weight="400" font-family="sans-serif" white-space="normal" overflow="visible" fill="#e9f0fe" stroke-width=".998"/><path d="M-52.291-62.89q.373 0 .622-.051.26-.063.405-.166.146-.115.208-.26.062-.156.062-.332 0-.26-.124-.436-.125-.187-.343-.322-.208-.145-.478-.25-.27-.113-.56-.217-.28-.104-.56-.229-.27-.124-.489-.3-.207-.188-.342-.437-.135-.26-.135-.633 0-.664.394-1.08.395-.415 1.142-.53V-69.2h.768v1.038q.416.02.758.104.353.072.56.155l-.176.727q-.218-.083-.55-.166-.332-.094-.84-.094-.561 0-.862.208-.291.208-.291.602 0 .218.083.364.093.145.26.26.166.113.384.207.228.093.508.197.353.135.686.29.332.146.58.354.25.207.395.498.156.29.156.696 0 .612-.405 1.038-.405.425-1.246.53V-61h-.768v-1.163q-.654-.02-1.059-.145-.405-.125-.602-.239l.229-.716q.28.135.664.26.384.114.965.114z" style="line-height:10;-inkscape-font-specification:'Ubuntu Mono'" font-weight="400" font-size="10.102" font-family="Ubuntu Mono" letter-spacing="0" word-spacing="0" fill="#fff" fill-opacity=".989" stroke-width="1.028"/><rect ry="0" y="-64" x="-49" height="2" width="6" style="isolation:auto;mix-blend-mode:normal;marker:none" color="#000" overflow="visible" fill="#e9f0fe" stroke-width=".408"/></g></svg>