<svg xmlns="http://www.w3.org/2000/svg" xmlns:xlink="http://www.w3.org/1999/xlink" height="16" viewBox="0 0 16 16" width="16"><title>Template icons dark</title><defs><linearGradient id="c"><stop offset="0" stop-color="#fff" stop-opacity="0"/><stop offset=".457" stop-color="#fff"/><stop offset="1" stop-color="#fff" stop-opacity="0"/></linearGradient><linearGradient id="d"><stop offset="0" stop-color="#fff" stop-opacity=".549"/><stop offset="1" stop-color="#fff" stop-opacity="0"/></linearGradient><linearGradient id="a"><stop offset="0" stop-color="#344961"/><stop offset="1" stop-color="#2d9580"/></linearGradient><linearGradient id="b"><stop offset="0" stop-color="#eff0c8" stop-opacity=".396"/><stop offset=".16" stop-color="#71cbd7" stop-opacity=".02"/><stop offset=".8" stop-color="#91dfcb" stop-opacity=".275"/><stop offset="1" stop-color="#6beed0" stop-opacity=".627"/></linearGradient><linearGradient xlink:href="#b" id="f" gradientUnits="userSpaceOnUse" gradientTransform="matrix(.4255 0 0 .42781 -74.078 -73.911)" x1="22.144" y1="41.149" x2="22.144" y2="5.178"/><linearGradient xlink:href="#a" id="e" x1="36.516" y1="40.131" x2="9.579" y2="9.429" gradientUnits="userSpaceOnUse" gradientTransform="matrix(.3777 0 0 .36928 -73.04 -72.829)"/></defs><g color="#000" transform="translate(72 72)"><rect style="isolation:auto;mix-blend-mode:normal;marker:none" width="16" height="16" x="-72" y="-72" ry="2" display="block" overflow="visible" fill-opacity=".148" stroke-width=".112" stroke-opacity=".471"/><rect ry="1.402" y="-71" x="-71" height="14" width="14" style="isolation:auto;mix-blend-mode:normal;marker:none" display="block" overflow="visible" fill="url(#e)" stroke-width=".111" stroke-opacity=".471"/><rect style="isolation:auto;mix-blend-mode:normal;marker:none" width="14" height="14" x="-71" y="-71" ry="1.402" display="block" overflow="visible" fill="url(#f)" stroke-width=".201"/><path style="line-height:normal;font-variant-ligatures:normal;font-variant-position:normal;font-variant-caps:normal;font-variant-numeric:normal;font-variant-alternates:normal;font-feature-settings:normal;text-indent:0;text-align:start;text-decoration-line:none;text-decoration-style:solid;text-decoration-color:#000;text-transform:none;text-orientation:mixed;shape-padding:0;isolation:auto;mix-blend-mode:normal" d="M-64.61-68.853a.177.177 0 0 0-.175.164l-.479 6.053-.038-.108a.177.177 0 0 0-.167-.118h-1.207a1.889 1.889 0 0 0-.285-.369.623.623 0 0 0-.42-.178.633.633 0 0 0-.412.187c-.096.089-.185.22-.276.36h-2.666c-.237 0-.237.355 0 .355h2.752c.062 0 .12-.032.152-.086.103-.17.198-.294.278-.367.08-.074.136-.094.178-.094.043 0 .097.016.177.088.08.072.179.197.285.373.032.054.09.086.152.086h1.167l.275.772c.064.18.328.145.344-.045l.363-4.593.438 5.808c.016.198.296.225.348.032l.531-1.974h1.246c.08 0 .15-.053.17-.13.234-.834.67-1.188 1.053-1.189.382 0 .818.353 1.052 1.19.021.076.091.13.17.13h1.108a.515.515 0 1 0 .008-.356h-.995c-.273-.835-.78-1.319-1.344-1.318-.564 0-1.07.485-1.342 1.318h-1.262c-.08 0-.15.054-.17.132l-.297 1.102-.533-7.06a.177.177 0 0 0-.178-.165z" font-weight="400" font-family="sans-serif" white-space="normal" overflow="visible" fill="#fcfffe" stroke-width=".355" stroke-linecap="round" stroke-linejoin="round"/><path d="M-64.61-68.853a.177.177 0 0 0-.175.164l-.479 6.053-.038-.108a.177.177 0 0 0-.167-.118h-1.207a1.889 1.889 0 0 0-.285-.369.623.623 0 0 0-.42-.178.633.633 0 0 0-.412.187c-.096.089-.185.22-.276.36h-2.666c-.237 0-.237.355 0 .355h2.752c.062 0 .12-.032.152-.086.103-.17.198-.294.278-.367.08-.074.136-.094.178-.094.043 0 .097.016.177.088.08.072.179.197.285.373.032.054.09.086.152.086h1.167l.275.772c.064.18.328.145.344-.045l.363-4.593.438 5.808c.016.198.296.225.348.032l.531-1.974h1.246c.08 0 .15-.053.17-.13.234-.834.67-1.188 1.053-1.189.382 0 .818.353 1.052 1.19.021.076.091.13.17.13h1.108a.515.515 0 1 0 .008-.356h-.995c-.273-.835-.78-1.319-1.344-1.318-.564 0-1.07.485-1.342 1.318h-1.262c-.08 0-.15.054-.17.132l-.297 1.102-.533-7.06a.177.177 0 0 0-.178-.165z" style="line-height:normal;font-variant-ligatures:normal;font-variant-position:normal;font-variant-caps:normal;font-variant-numeric:normal;font-variant-alternates:normal;font-feature-settings:normal;text-indent:0;text-align:start;text-decoration-line:none;text-decoration-style:solid;text-decoration-color:#000;text-transform:none;text-orientation:mixed;shape-padding:0;isolation:auto;mix-blend-mode:normal" font-weight="400" font-family="sans-serif" white-space="normal" overflow="visible" fill="none" stroke="#fff" stroke-width="1.026" stroke-linecap="round" stroke-linejoin="round" stroke-opacity=".269"/></g></svg>