<svg xmlns="http://www.w3.org/2000/svg" xmlns:xlink="http://www.w3.org/1999/xlink" height="16" viewBox="0 0 16 16" width="16"><title>Template icons dark</title><defs><linearGradient id="d"><stop offset="0" stop-color="#fff" stop-opacity=".802"/><stop offset=".502" stop-color="#fff" stop-opacity=".945"/><stop offset="1" stop-color="#fff" stop-opacity=".692"/></linearGradient><linearGradient id="c"><stop offset="0" stop-color="#fff" stop-opacity=".632"/><stop offset=".448" stop-color="#fff" stop-opacity=".94"/><stop offset="1" stop-color="#fff" stop-opacity=".61"/></linearGradient><linearGradient id="b"><stop offset="0" stop-color="#d1d1d1"/><stop offset="1" stop-color="#fff" stop-opacity=".989"/></linearGradient><linearGradient id="a"><stop offset="0" stop-color="#0086f7"/><stop offset="1" stop-color="#60cdff"/></linearGradient><linearGradient xlink:href="#a" id="e" gradientUnits="userSpaceOnUse" gradientTransform="matrix(2.2 0 0 2.2 -116.8 -123.84)" x1="25" y1="45.7" x2="25" y2="8.075"/><linearGradient gradientTransform="matrix(.19208 0 0 .19208 -94.732 -94.731)" xlink:href="#b" id="f" x1="157.89" y1="194.158" x2="157.89" y2="132" gradientUnits="userSpaceOnUse"/></defs><path d="M-68.875-72h9.75c2.285 0 3.125.84 3.125 3.125v9.75C-56-56.84-56.84-56-59.125-56h-9.75C-71.16-56-72-56.84-72-59.125v-9.75c0-2.285.84-3.125 3.125-3.125z" fill="url(#e)" stroke-width="1.804" stroke-linejoin="round" stroke-opacity=".131" transform="translate(72 72)"/><path d="M.377 7.584h2.758l1.621 6.163 2.27-8.92 1.947 6.325 1.784-6.326 1.784 6.326h3.082" fill="none" fill-rule="evenodd" stroke="#0a0a0a" stroke-width="1.127" stroke-opacity=".341"/><path d="M-71.623-65.783h2.758l1.621 6.163 2.27-8.92 1.947 6.325 1.784-6.325 1.784 6.325h3.082" fill="none" fill-rule="evenodd" stroke="url(#f)" stroke-width="1.127" transform="translate(72 72)"/></svg>