<svg xmlns="http://www.w3.org/2000/svg" xmlns:xlink="http://www.w3.org/1999/xlink" height="16" viewBox="0 0 16 16" width="16"><title>Template icons dark</title><defs><linearGradient id="a"><stop offset="0" stop-color="#56aff6"/><stop offset="1" stop-color="#2196f3"/></linearGradient><linearGradient xlink:href="#a" id="b" x1="-70" y1="-64" x2="-58" y2="-64" gradientUnits="userSpaceOnUse"/></defs><g fill-rule="evenodd"><path d="M13 .5l-7.5 5L3 3 .5 5.5v5L3 13l2.5-2.5 7.5 5 2.5-2.5V3zM13 3v10L8 8zM3 5.5L5.5 8 3 10.532z" fill-opacity=".104" stroke-width=".034"/><path d="M-60-70l-6 4-2-2-2 2v4l2 2 2-2 6 4 2-2v-8zm0 2v8l-4-4zm-8 2l2 2-2 2.025z" fill="url(#b)" stroke-width=".027" transform="translate(72 72)"/></g></svg>