<svg xmlns="http://www.w3.org/2000/svg" xmlns:xlink="http://www.w3.org/1999/xlink" height="16" viewBox="0 0 16 16" width="16"><title>Template icons dark</title><defs><linearGradient id="e"><stop offset="0" stop-color="#1cdbff" stop-opacity=".143"/><stop offset="1" stop-color="#c34c74" stop-opacity="0"/></linearGradient><linearGradient id="d"><stop offset="0" stop-color="#d663eb" stop-opacity=".423"/><stop offset="1" stop-color="#c34c74" stop-opacity="0"/></linearGradient><linearGradient id="f"><stop offset="0" stop-color="#97176b"/><stop offset="1" stop-color="#69104b"/></linearGradient><linearGradient id="b"><stop offset="0" stop-color="#8ab0c4"/><stop offset="1" stop-color="#fcf6f8"/></linearGradient><linearGradient id="a"><stop offset="0" stop-color="#d8eaf3"/><stop offset="1" stop-color="#fff" stop-opacity=".945"/></linearGradient><linearGradient id="c"><stop offset="0" stop-color="#30d9eb"/><stop offset="1" stop-color="#5393e4"/></linearGradient><linearGradient xlink:href="#b" id="g" x1="160" y1="196" x2="160" y2="110.592" gradientUnits="userSpaceOnUse" gradientTransform="matrix(.15459 0 0 .15459 -88.802 -88.802)"/><radialGradient xlink:href="#f" id="h" gradientUnits="userSpaceOnUse" gradientTransform="matrix(.4864 .03384 -.01694 .24342 -140.775 -107.079)" cx="168.187" cy="156.788" fx="168.187" fy="156.788" r="29.345"/></defs><g color="#000" stroke-opacity=".995" transform="translate(72 72)"><circle r="7.826" cy="-64.068" cx="-64.068" style="isolation:auto;mix-blend-mode:normal;marker:none" display="block" overflow="visible" fill="url(#g)" stroke-width=".132"/><path d="M-63.294-65.544c-4.39 1.785-6.337 2.354-8.07 3.668 1.118 3.088 3.793 5.328 6.984 5.418 4.686-.218 7.75-3.34 7.83-7.613a7.574 7.574 0 0 0-.981-3.72c.005.013.012.023.017.035-4.97 2.382-4.34 2.196-5.78 2.212z" style="isolation:auto;mix-blend-mode:normal;marker:none" overflow="visible" fill="url(#h)" stroke-width=".162"/><path d="M-62.382-65.585c-.5.865-6.032 6.815-8.929 3.81-2.336-5.83 7.364-3.787 8.93-3.81z" style="isolation:auto;mix-blend-mode:normal;marker:none" display="block" overflow="visible" fill="#b14abf" stroke-width=".235"/><path style="isolation:auto;mix-blend-mode:normal;marker:none" d="M-62.432-65.516c.328-.574 4.354-4.88 5.053-2.01-.057 3.05-4.22 2.193-5.053 2.01z" display="block" overflow="visible" fill="#ef53b7" stroke-width=".168"/></g></svg>