<svg xmlns="http://www.w3.org/2000/svg" xmlns:xlink="http://www.w3.org/1999/xlink" height="16" viewBox="0 0 16 16" width="16"><title>Template icons dark</title><defs><linearGradient id="d"><stop offset="0" stop-color="#1cdbff" stop-opacity=".143"/><stop offset="1" stop-color="#c34c74" stop-opacity="0"/></linearGradient><linearGradient id="c"><stop offset="0" stop-color="#d663eb" stop-opacity=".423"/><stop offset="1" stop-color="#c34c74" stop-opacity="0"/></linearGradient><linearGradient id="g"><stop offset="0" stop-color="#97176b"/><stop offset="1" stop-color="#69104b"/></linearGradient><linearGradient id="b"><stop offset="0" stop-color="#8ab0c4"/><stop offset="1" stop-color="#fcf6f8"/></linearGradient><linearGradient id="a"><stop offset="0" stop-color="#d8eaf3"/><stop offset="1" stop-color="#fff" stop-opacity=".945"/></linearGradient><linearGradient id="e"><stop offset="0" stop-color="#eeeeec"/><stop offset="1" stop-color="#d3d7cf"/></linearGradient><linearGradient id="f"><stop offset="0" stop-color="#2e3436"/><stop offset="1"/></linearGradient><linearGradient xlink:href="#b" id="h" x1="160" y1="196" x2="160" y2="110.592" gradientUnits="userSpaceOnUse" gradientTransform="matrix(.1513 0 0 .1513 -88.361 -88.36)"/><linearGradient xlink:href="#f" id="j" gradientUnits="userSpaceOnUse" gradientTransform="scale(1.94673) rotate(30 -52.286 194.21)" x1="9.697" y1="24.661" x2="33.232" y2="24.661"/><linearGradient xlink:href="#f" id="k" gradientUnits="userSpaceOnUse" gradientTransform="scale(1.94673) rotate(30 -52.286 194.21)" x1="19.5" y1="28.5" x2="23.5" y2="28.5"/><linearGradient xlink:href="#e" id="l" gradientUnits="userSpaceOnUse" gradientTransform="scale(1.94673) rotate(30 -52.286 194.21)" x1="20" y1="12" x2="23" y2="12"/><radialGradient xlink:href="#g" id="i" gradientUnits="userSpaceOnUse" gradientTransform="matrix(.47603 .03312 -.01658 .23824 -139.227 -106.247)" cx="168.187" cy="156.788" fx="168.187" fy="156.788" r="29.345"/></defs><g transform="translate(72 72)"><circle style="isolation:auto;mix-blend-mode:normal;marker:none" cx="-64.154" cy="-64.152" r="7.83" color="#000" overflow="visible" fill-opacity=".121" stroke-width=".172" stroke-opacity=".995"/><circle r="7.659" cy="-64.152" cx="-64.154" style="isolation:auto;mix-blend-mode:normal;marker:none" color="#000" display="block" overflow="visible" fill="url(#h)" stroke-width=".13" stroke-opacity=".995"/><path d="M-63.397-65.597c-4.297 1.747-6.201 2.304-7.898 3.59 1.095 3.023 3.713 5.215 6.835 5.303 4.587-.213 7.585-3.269 7.664-7.45a7.412 7.412 0 0 0-.96-3.64c.004.01.012.02.016.032-4.863 2.332-4.247 2.15-5.657 2.165z" style="isolation:auto;mix-blend-mode:normal;marker:none" color="#000" overflow="visible" fill="url(#i)" stroke-width=".159" stroke-opacity=".995"/><path d="M-62.504-65.637c-.489.847-5.904 6.67-8.738 3.728-2.287-5.704 7.206-3.705 8.738-3.728z" style="isolation:auto;mix-blend-mode:normal;marker:none" color="#000" display="block" overflow="visible" fill="#b14abf" stroke-width=".23" stroke-opacity=".995"/><path style="isolation:auto;mix-blend-mode:normal;marker:none" d="M-62.553-65.57c.322-.561 4.262-4.775 4.945-1.966-.055 2.984-4.13 2.146-4.945 1.967z" color="#000" display="block" overflow="visible" fill="#ef53b7" stroke-width=".164" stroke-opacity=".995"/><g transform="matrix(.2204 0 0 .2204 -102.538 -99.923)" stroke-width="1.947"><path d="M202.923 129.8l-36.988 64.065c-.538.93.536 2.557 2.398 3.632 1.863 1.075 3.808 1.192 4.346.261l36.988-64.065z" fill="url(#j)" stroke="url(#k)" stroke-linejoin="round"/><path d="M202.923 129.8l-9.734 16.859c-.537.93.536 2.557 2.399 3.632 1.862 1.076 3.807 1.192 4.345.261l9.734-16.859z" fill="url(#l)" stroke="#babdb6" stroke-linejoin="round"/><ellipse transform="rotate(30)" cx="244.53" cy="10.948" rx="3.893" ry="1.947" fill="#d3d7cf" stroke="#babdb6"/></g></g></svg>